<svg class="stroke_order_diagram--svg_container_for_51866298d5dda79658000a46" style="height: 100px; width: 300px;" viewbox="0 0 300 100"><desc>Created with Snap</desc><defs></defs><line class="stroke_order_diagram--bounding_box" x1="1" x2="299" y1="1" y2="1"></line><line class="stroke_order_diagram--bounding_box" x1="1" x2="1" y1="1" y2="99"></line><line class="stroke_order_diagram--bounding_box" x1="1" x2="299" y1="99" y2="99"></line><line class="stroke_order_diagram--guide_line" x1="0" x2="300" y1="50" y2="50"></line><line class="stroke_order_diagram--guide_line" x1="50" x2="50" y1="1" y2="99"></line><line class="stroke_order_diagram--bounding_box" x1="99" x2="99" y1="1" y2="99"></line><path class="stroke_order_diagram--current_path" d="M14.38,24.73c2.3,0.54,6.52,0.78,8.81,0.54c21.57-2.27,44.44-5.64,64.9-5.98c3.83-0.06,6.12,0.26,8.04,0.53" id="kvg:04e07-s1" kvg:type="㇐" transform="matrix(1,0,0,1,-4,-4)" xmlns:kvg="http://kanjivg.tagaini.net"></path><path class="stroke_order_diagram--current_path" d="M14.38,24.73c2.3,0.54,6.52,0.78,8.81,0.54c21.57-2.27,44.44-5.64,64.9-5.98c3.83-0.06,6.12,0.26,8.04,0.53" id="Ske292umwc" kvg:type="㇐" transform="matrix(1,0,0,1,-4,-4)" xmlns:kvg="http://kanjivg.tagaini.net"></path><circle class="stroke_order_diagram--path_start" cx="14.38" cy="24.73" r="4" transform="matrix(1,0,0,1,-4,-4)"></circle><line class="stroke_order_diagram--guide_line" x1="150" x2="150" y1="1" y2="99"></line><line class="stroke_order_diagram--bounding_box" x1="199" x2="199" y1="1" y2="99"></line><path class="stroke_order_diagram--existing_path" d="M14.38,24.73c2.3,0.54,6.52,0.78,8.81,0.54c21.57-2.27,44.44-5.64,64.9-5.98c3.83-0.06,6.12,0.26,8.04,0.53" id="Ske292umwf" kvg:type="㇐" transform="matrix(1,0,0,1,96,-4)" xmlns:kvg="http://kanjivg.tagaini.net"></path><path class="stroke_order_diagram--current_path" d="M51,41.5c1.45,0.7,3.19,1.43,5.19,1.74c7.31,1.14,17.05,1.94,22.64,1.5c4.64-0.37,6.38,1.08,5.17,4.73C77.88,68,72.75,78.75,63.87,90.4c-7.6,9.97-10.12,3.22-12.62,0.2" id="kvg:04e07-s2" kvg:type="㇆" transform="matrix(1,0,0,1,96,-4)" xmlns:kvg="http://kanjivg.tagaini.net"></path><path class="stroke_order_diagram--current_path" d="M51,41.5c1.45,0.7,3.19,1.43,5.19,1.74c7.31,1.14,17.05,1.94,22.64,1.5c4.64-0.37,6.38,1.08,5.17,4.73C77.88,68,72.75,78.75,63.87,90.4c-7.6,9.97-10.12,3.22-12.62,0.2" id="Ske292umwh" kvg:type="㇆" transform="matrix(1,0,0,1,96,-4)" xmlns:kvg="http://kanjivg.tagaini.net"></path><circle class="stroke_order_diagram--path_start" cx="51" cy="41.5" r="4" transform="matrix(1,0,0,1,96,-4)"></circle><line class="stroke_order_diagram--guide_line" x1="250" x2="250" y1="1" y2="99"></line><line class="stroke_order_diagram--bounding_box" x1="299" x2="299" y1="1" y2="99"></line><path class="stroke_order_diagram--existing_path" d="M14.38,24.73c2.3,0.54,6.52,0.78,8.81,0.54c21.57-2.27,44.44-5.64,64.9-5.98c3.83-0.06,6.12,0.26,8.04,0.53" id="Ske292umwk" kvg:type="㇐" transform="matrix(1,0,0,1,196,-4)" xmlns:kvg="http://kanjivg.tagaini.net"></path><path class="stroke_order_diagram--existing_path" d="M51,41.5c1.45,0.7,3.19,1.43,5.19,1.74c7.31,1.14,17.05,1.94,22.64,1.5c4.64-0.37,6.38,1.08,5.17,4.73C77.88,68,72.75,78.75,63.87,90.4c-7.6,9.97-10.12,3.22-12.62,0.2" id="Ske292umwl" kvg:type="㇆" transform="matrix(1,0,0,1,196,-4)" xmlns:kvg="http://kanjivg.tagaini.net"></path><path class="stroke_order_diagram--current_path" d="M51.75,25.5c0.5,2,0.22,3.78-0.21,5.89C48.95,43.8,34.75,73.38,13.56,87.97" id="kvg:04e07-s3" kvg:type="㇒" transform="matrix(1,0,0,1,196,-4)" xmlns:kvg="http://kanjivg.tagaini.net"></path><path class="stroke_order_diagram--current_path" d="M51.75,25.5c0.5,2,0.22,3.78-0.21,5.89C48.95,43.8,34.75,73.38,13.56,87.97" id="Ske292umwn" kvg:type="㇒" transform="matrix(1,0,0,1,196,-4)" xmlns:kvg="http://kanjivg.tagaini.net"></path><circle class="stroke_order_diagram--path_start" cx="51.75" cy="25.5" r="4" transform="matrix(1,0,0,1,196,-4)"></circle></svg>