<svg class="stroke_order_diagram--svg_container_for_5186629dd5dda79658000ba1" style="height: 100px; width: 1300px;" viewbox="0 0 1300 100"><desc>Created with Snap</desc><defs></defs><line class="stroke_order_diagram--bounding_box" x1="1" x2="1299" y1="1" y2="1"></line><line class="stroke_order_diagram--bounding_box" x1="1" x2="1" y1="1" y2="99"></line><line class="stroke_order_diagram--bounding_box" x1="1" x2="1299" y1="99" y2="99"></line><line class="stroke_order_diagram--guide_line" x1="0" x2="1300" y1="50" y2="50"></line><line class="stroke_order_diagram--guide_line" x1="50" x2="50" y1="1" y2="99"></line><line class="stroke_order_diagram--bounding_box" x1="99" x2="99" y1="1" y2="99"></line><path class="stroke_order_diagram--current_path" d="M45.97,12.89c0.08,0.27,0.17,0.7-0.17,1.1c-2.02,2.31-13.62,7.38-29.5,10.48" id="kvg:04e82-s1" kvg:type="㇒" transform="matrix(1,0,0,1,-4,-4)" xmlns:kvg="http://kanjivg.tagaini.net"></path><path class="stroke_order_diagram--current_path" d="M45.97,12.89c0.08,0.27,0.17,0.7-0.17,1.1c-2.02,2.31-13.62,7.38-29.5,10.48" id="Ske2bugw7m" kvg:type="㇒" transform="matrix(1,0,0,1,-4,-4)" xmlns:kvg="http://kanjivg.tagaini.net"></path><circle class="stroke_order_diagram--path_start" cx="45.97" cy="12.89" r="4" transform="matrix(1,0,0,1,-4,-4)"></circle><line class="stroke_order_diagram--guide_line" x1="150" x2="150" y1="1" y2="99"></line><line class="stroke_order_diagram--bounding_box" x1="199" x2="199" y1="1" y2="99"></line><path class="stroke_order_diagram--existing_path" d="M45.97,12.89c0.08,0.27,0.17,0.7-0.17,1.1c-2.02,2.31-13.62,7.38-29.5,10.48" id="Ske2bugw7p" kvg:type="㇒" transform="matrix(1,0,0,1,96,-4)" xmlns:kvg="http://kanjivg.tagaini.net"></path><path class="stroke_order_diagram--current_path" d="M19.28,27.14c0.02,0.3,0.05,0.77-0.05,1.19c-0.59,2.51-4,8.02-8.67,11.38" id="kvg:04e82-s2" kvg:type="㇒" transform="matrix(1,0,0,1,96,-4)" xmlns:kvg="http://kanjivg.tagaini.net"></path><path class="stroke_order_diagram--current_path" d="M19.28,27.14c0.02,0.3,0.05,0.77-0.05,1.19c-0.59,2.51-4,8.02-8.67,11.38" id="Ske2bugw7r" kvg:type="㇒" transform="matrix(1,0,0,1,96,-4)" xmlns:kvg="http://kanjivg.tagaini.net"></path><circle class="stroke_order_diagram--path_start" cx="19.28" cy="27.14" r="4" transform="matrix(1,0,0,1,96,-4)"></circle><line class="stroke_order_diagram--guide_line" x1="250" x2="250" y1="1" y2="99"></line><line class="stroke_order_diagram--bounding_box" x1="299" x2="299" y1="1" y2="99"></line><path class="stroke_order_diagram--existing_path" d="M45.97,12.89c0.08,0.27,0.17,0.7-0.17,1.1c-2.02,2.31-13.62,7.38-29.5,10.48" id="Ske2bugw7u" kvg:type="㇒" transform="matrix(1,0,0,1,196,-4)" xmlns:kvg="http://kanjivg.tagaini.net"></path><path class="stroke_order_diagram--existing_path" d="M19.28,27.14c0.02,0.3,0.05,0.77-0.05,1.19c-0.59,2.51-4,8.02-8.67,11.38" id="Ske2bugw7v" kvg:type="㇒" transform="matrix(1,0,0,1,196,-4)" xmlns:kvg="http://kanjivg.tagaini.net"></path><path class="stroke_order_diagram--current_path" d="M29.02,24.08c1.96,1.35,5.05,5.54,5.54,7.63" id="kvg:04e82-s3" kvg:type="㇔" transform="matrix(1,0,0,1,196,-4)" xmlns:kvg="http://kanjivg.tagaini.net"></path><path class="stroke_order_diagram--current_path" d="M29.02,24.08c1.96,1.35,5.05,5.54,5.54,7.63" id="Ske2bugw7x" kvg:type="㇔" transform="matrix(1,0,0,1,196,-4)" xmlns:kvg="http://kanjivg.tagaini.net"></path><circle class="stroke_order_diagram--path_start" cx="29.02" cy="24.08" r="4" transform="matrix(1,0,0,1,196,-4)"></circle><line class="stroke_order_diagram--guide_line" x1="350" x2="350" y1="1" y2="99"></line><line class="stroke_order_diagram--bounding_box" x1="399" x2="399" y1="1" y2="99"></line><path class="stroke_order_diagram--existing_path" d="M45.97,12.89c0.08,0.27,0.17,0.7-0.17,1.1c-2.02,2.31-13.62,7.38-29.5,10.48" id="Ske2bugw710" kvg:type="㇒" transform="matrix(1,0,0,1,296,-4)" xmlns:kvg="http://kanjivg.tagaini.net"></path><path class="stroke_order_diagram--existing_path" d="M19.28,27.14c0.02,0.3,0.05,0.77-0.05,1.19c-0.59,2.51-4,8.02-8.67,11.38" id="Ske2bugw711" kvg:type="㇒" transform="matrix(1,0,0,1,296,-4)" xmlns:kvg="http://kanjivg.tagaini.net"></path><path class="stroke_order_diagram--existing_path" d="M29.02,24.08c1.96,1.35,5.05,5.54,5.54,7.63" id="Ske2bugw712" kvg:type="㇔" transform="matrix(1,0,0,1,296,-4)" xmlns:kvg="http://kanjivg.tagaini.net"></path><path class="stroke_order_diagram--current_path" d="M42.77,22.58c3.02,1.61,7.79,6.63,8.54,9.13" id="kvg:04e82-s4" kvg:type="㇔" transform="matrix(1,0,0,1,296,-4)" xmlns:kvg="http://kanjivg.tagaini.net"></path><path class="stroke_order_diagram--current_path" d="M42.77,22.58c3.02,1.61,7.79,6.63,8.54,9.13" id="Ske2bugw714" kvg:type="㇔" transform="matrix(1,0,0,1,296,-4)" xmlns:kvg="http://kanjivg.tagaini.net"></path><circle class="stroke_order_diagram--path_start" cx="42.77" cy="22.58" r="4" transform="matrix(1,0,0,1,296,-4)"></circle><line class="stroke_order_diagram--guide_line" x1="450" x2="450" y1="1" y2="99"></line><line class="stroke_order_diagram--bounding_box" x1="499" x2="499" y1="1" y2="99"></line><path class="stroke_order_diagram--existing_path" d="M45.97,12.89c0.08,0.27,0.17,0.7-0.17,1.1c-2.02,2.31-13.62,7.38-29.5,10.48" id="Ske2bugw717" kvg:type="㇒" transform="matrix(1,0,0,1,396,-4)" xmlns:kvg="http://kanjivg.tagaini.net"></path><path class="stroke_order_diagram--existing_path" d="M19.28,27.14c0.02,0.3,0.05,0.77-0.05,1.19c-0.59,2.51-4,8.02-8.67,11.38" id="Ske2bugw718" kvg:type="㇒" transform="matrix(1,0,0,1,396,-4)" xmlns:kvg="http://kanjivg.tagaini.net"></path><path class="stroke_order_diagram--existing_path" d="M29.02,24.08c1.96,1.35,5.05,5.54,5.54,7.63" id="Ske2bugw719" kvg:type="㇔" transform="matrix(1,0,0,1,396,-4)" xmlns:kvg="http://kanjivg.tagaini.net"></path><path class="stroke_order_diagram--existing_path" d="M42.77,22.58c3.02,1.61,7.79,6.63,8.54,9.13" id="Ske2bugw71a" kvg:type="㇔" transform="matrix(1,0,0,1,396,-4)" xmlns:kvg="http://kanjivg.tagaini.net"></path><path class="stroke_order_diagram--current_path" d="M19.5,37.65c0.89,0.35,2.1,0.72,3.12,0.64c2-0.17,19.43-3.45,21.55-3.62S47,35.75,45.12,37c-0.97,0.64-10.97,7.17-12.31,7.86" id="kvg:04e82-s5" kvg:type="㇇" transform="matrix(1,0,0,1,396,-4)" xmlns:kvg="http://kanjivg.tagaini.net"></path><path class="stroke_order_diagram--current_path" d="M19.5,37.65c0.89,0.35,2.1,0.72,3.12,0.64c2-0.17,19.43-3.45,21.55-3.62S47,35.75,45.12,37c-0.97,0.64-10.97,7.17-12.31,7.86" id="Ske2bugw71c" kvg:type="㇇" transform="matrix(1,0,0,1,396,-4)" xmlns:kvg="http://kanjivg.tagaini.net"></path><circle class="stroke_order_diagram--path_start" cx="19.5" cy="37.65" r="4" transform="matrix(1,0,0,1,396,-4)"></circle><line class="stroke_order_diagram--guide_line" x1="550" x2="550" y1="1" y2="99"></line><line class="stroke_order_diagram--bounding_box" x1="599" x2="599" y1="1" y2="99"></line><path class="stroke_order_diagram--existing_path" d="M45.97,12.89c0.08,0.27,0.17,0.7-0.17,1.1c-2.02,2.31-13.62,7.38-29.5,10.48" id="Ske2bugw71f" kvg:type="㇒" transform="matrix(1,0,0,1,496,-4)" xmlns:kvg="http://kanjivg.tagaini.net"></path><path class="stroke_order_diagram--existing_path" d="M19.28,27.14c0.02,0.3,0.05,0.77-0.05,1.19c-0.59,2.51-4,8.02-8.67,11.38" id="Ske2bugw71g" kvg:type="㇒" transform="matrix(1,0,0,1,496,-4)" xmlns:kvg="http://kanjivg.tagaini.net"></path><path class="stroke_order_diagram--existing_path" d="M29.02,24.08c1.96,1.35,5.05,5.54,5.54,7.63" id="Ske2bugw71h" kvg:type="㇔" transform="matrix(1,0,0,1,496,-4)" xmlns:kvg="http://kanjivg.tagaini.net"></path><path class="stroke_order_diagram--existing_path" d="M42.77,22.58c3.02,1.61,7.79,6.63,8.54,9.13" id="Ske2bugw71i" kvg:type="㇔" transform="matrix(1,0,0,1,496,-4)" xmlns:kvg="http://kanjivg.tagaini.net"></path><path class="stroke_order_diagram--existing_path" d="M19.5,37.65c0.89,0.35,2.1,0.72,3.12,0.64c2-0.17,19.43-3.45,21.55-3.62S47,35.75,45.12,37c-0.97,0.64-10.97,7.17-12.31,7.86" id="Ske2bugw71j" kvg:type="㇇" transform="matrix(1,0,0,1,496,-4)" xmlns:kvg="http://kanjivg.tagaini.net"></path><path class="stroke_order_diagram--current_path" d="M28.41,41.89c2.02,0.89,7.23,4.29,8.18,6.61" id="kvg:04e82-s6" kvg:type="㇔" transform="matrix(1,0,0,1,496,-4)" xmlns:kvg="http://kanjivg.tagaini.net"></path><path class="stroke_order_diagram--current_path" d="M28.41,41.89c2.02,0.89,7.23,4.29,8.18,6.61" id="Ske2bugw71l" kvg:type="㇔" transform="matrix(1,0,0,1,496,-4)" xmlns:kvg="http://kanjivg.tagaini.net"></path><circle class="stroke_order_diagram--path_start" cx="28.41" cy="41.89" r="4" transform="matrix(1,0,0,1,496,-4)"></circle><line class="stroke_order_diagram--guide_line" x1="650" x2="650" y1="1" y2="99"></line><line class="stroke_order_diagram--bounding_box" x1="699" x2="699" y1="1" y2="99"></line><path class="stroke_order_diagram--existing_path" d="M45.97,12.89c0.08,0.27,0.17,0.7-0.17,1.1c-2.02,2.31-13.62,7.38-29.5,10.48" id="Ske2bugw71o" kvg:type="㇒" transform="matrix(1,0,0,1,596,-4)" xmlns:kvg="http://kanjivg.tagaini.net"></path><path class="stroke_order_diagram--existing_path" d="M19.28,27.14c0.02,0.3,0.05,0.77-0.05,1.19c-0.59,2.51-4,8.02-8.67,11.38" id="Ske2bugw71p" kvg:type="㇒" transform="matrix(1,0,0,1,596,-4)" xmlns:kvg="http://kanjivg.tagaini.net"></path><path class="stroke_order_diagram--existing_path" d="M29.02,24.08c1.96,1.35,5.05,5.54,5.54,7.63" id="Ske2bugw71q" kvg:type="㇔" transform="matrix(1,0,0,1,596,-4)" xmlns:kvg="http://kanjivg.tagaini.net"></path><path class="stroke_order_diagram--existing_path" d="M42.77,22.58c3.02,1.61,7.79,6.63,8.54,9.13" id="Ske2bugw71r" kvg:type="㇔" transform="matrix(1,0,0,1,596,-4)" xmlns:kvg="http://kanjivg.tagaini.net"></path><path class="stroke_order_diagram--existing_path" d="M19.5,37.65c0.89,0.35,2.1,0.72,3.12,0.64c2-0.17,19.43-3.45,21.55-3.62S47,35.75,45.12,37c-0.97,0.64-10.97,7.17-12.31,7.86" id="Ske2bugw71s" kvg:type="㇇" transform="matrix(1,0,0,1,596,-4)" xmlns:kvg="http://kanjivg.tagaini.net"></path><path class="stroke_order_diagram--existing_path" d="M28.41,41.89c2.02,0.89,7.23,4.29,8.18,6.61" id="Ske2bugw71t" kvg:type="㇔" transform="matrix(1,0,0,1,596,-4)" xmlns:kvg="http://kanjivg.tagaini.net"></path><path class="stroke_order_diagram--current_path" d="M15.03,52.3c1.04,0.65,1.86,2.43,1.86,3.61c0,7.59,0.04,30.84,0.04,40.34" id="kvg:04e82-s7" kvg:type="㇑" transform="matrix(1,0,0,1,596,-4)" xmlns:kvg="http://kanjivg.tagaini.net"></path><path class="stroke_order_diagram--current_path" d="M15.03,52.3c1.04,0.65,1.86,2.43,1.86,3.61c0,7.59,0.04,30.84,0.04,40.34" id="Ske2bugw71v" kvg:type="㇑" transform="matrix(1,0,0,1,596,-4)" xmlns:kvg="http://kanjivg.tagaini.net"></path><circle class="stroke_order_diagram--path_start" cx="15.03" cy="52.3" r="4" transform="matrix(1,0,0,1,596,-4)"></circle><line class="stroke_order_diagram--guide_line" x1="750" x2="750" y1="1" y2="99"></line><line class="stroke_order_diagram--bounding_box" x1="799" x2="799" y1="1" y2="99"></line><path class="stroke_order_diagram--existing_path" d="M45.97,12.89c0.08,0.27,0.17,0.7-0.17,1.1c-2.02,2.31-13.62,7.38-29.5,10.48" id="Ske2bugw71y" kvg:type="㇒" transform="matrix(1,0,0,1,696,-4)" xmlns:kvg="http://kanjivg.tagaini.net"></path><path class="stroke_order_diagram--existing_path" d="M19.28,27.14c0.02,0.3,0.05,0.77-0.05,1.19c-0.59,2.51-4,8.02-8.67,11.38" id="Ske2bugw71z" kvg:type="㇒" transform="matrix(1,0,0,1,696,-4)" xmlns:kvg="http://kanjivg.tagaini.net"></path><path class="stroke_order_diagram--existing_path" d="M29.02,24.08c1.96,1.35,5.05,5.54,5.54,7.63" id="Ske2bugw720" kvg:type="㇔" transform="matrix(1,0,0,1,696,-4)" xmlns:kvg="http://kanjivg.tagaini.net"></path><path class="stroke_order_diagram--existing_path" d="M42.77,22.58c3.02,1.61,7.79,6.63,8.54,9.13" id="Ske2bugw721" kvg:type="㇔" transform="matrix(1,0,0,1,696,-4)" xmlns:kvg="http://kanjivg.tagaini.net"></path><path class="stroke_order_diagram--existing_path" d="M19.5,37.65c0.89,0.35,2.1,0.72,3.12,0.64c2-0.17,19.43-3.45,21.55-3.62S47,35.75,45.12,37c-0.97,0.64-10.97,7.17-12.31,7.86" id="Ske2bugw722" kvg:type="㇇" transform="matrix(1,0,0,1,696,-4)" xmlns:kvg="http://kanjivg.tagaini.net"></path><path class="stroke_order_diagram--existing_path" d="M28.41,41.89c2.02,0.89,7.23,4.29,8.18,6.61" id="Ske2bugw723" kvg:type="㇔" transform="matrix(1,0,0,1,696,-4)" xmlns:kvg="http://kanjivg.tagaini.net"></path><path class="stroke_order_diagram--existing_path" d="M15.03,52.3c1.04,0.65,1.86,2.43,1.86,3.61c0,7.59,0.04,30.84,0.04,40.34" id="Ske2bugw724" kvg:type="㇑" transform="matrix(1,0,0,1,696,-4)" xmlns:kvg="http://kanjivg.tagaini.net"></path><path class="stroke_order_diagram--current_path" d="M16.36,53.53C22.5,53,45.93,50.08,47.79,49.5c2.17-0.68,3.61,1.67,3.53,3.68c-0.19,4.87-0.64,28.32-0.64,37.43c0,8-2.43,5.39-6.34,1.44" id="kvg:04e82-s8" kvg:type="㇆" transform="matrix(1,0,0,1,696,-4)" xmlns:kvg="http://kanjivg.tagaini.net"></path><path class="stroke_order_diagram--current_path" d="M16.36,53.53C22.5,53,45.93,50.08,47.79,49.5c2.17-0.68,3.61,1.67,3.53,3.68c-0.19,4.87-0.64,28.32-0.64,37.43c0,8-2.43,5.39-6.34,1.44" id="Ske2bugw726" kvg:type="㇆" transform="matrix(1,0,0,1,696,-4)" xmlns:kvg="http://kanjivg.tagaini.net"></path><circle class="stroke_order_diagram--path_start" cx="16.36" cy="53.53" r="4" transform="matrix(1,0,0,1,696,-4)"></circle><line class="stroke_order_diagram--guide_line" x1="850" x2="850" y1="1" y2="99"></line><line class="stroke_order_diagram--bounding_box" x1="899" x2="899" y1="1" y2="99"></line><path class="stroke_order_diagram--existing_path" d="M45.97,12.89c0.08,0.27,0.17,0.7-0.17,1.1c-2.02,2.31-13.62,7.38-29.5,10.48" id="Ske2bugw729" kvg:type="㇒" transform="matrix(1,0,0,1,796,-4)" xmlns:kvg="http://kanjivg.tagaini.net"></path><path class="stroke_order_diagram--existing_path" d="M19.28,27.14c0.02,0.3,0.05,0.77-0.05,1.19c-0.59,2.51-4,8.02-8.67,11.38" id="Ske2bugw72a" kvg:type="㇒" transform="matrix(1,0,0,1,796,-4)" xmlns:kvg="http://kanjivg.tagaini.net"></path><path class="stroke_order_diagram--existing_path" d="M29.02,24.08c1.96,1.35,5.05,5.54,5.54,7.63" id="Ske2bugw72b" kvg:type="㇔" transform="matrix(1,0,0,1,796,-4)" xmlns:kvg="http://kanjivg.tagaini.net"></path><path class="stroke_order_diagram--existing_path" d="M42.77,22.58c3.02,1.61,7.79,6.63,8.54,9.13" id="Ske2bugw72c" kvg:type="㇔" transform="matrix(1,0,0,1,796,-4)" xmlns:kvg="http://kanjivg.tagaini.net"></path><path class="stroke_order_diagram--existing_path" d="M19.5,37.65c0.89,0.35,2.1,0.72,3.12,0.64c2-0.17,19.43-3.45,21.55-3.62S47,35.75,45.12,37c-0.97,0.64-10.97,7.17-12.31,7.86" id="Ske2bugw72d" kvg:type="㇇" transform="matrix(1,0,0,1,796,-4)" xmlns:kvg="http://kanjivg.tagaini.net"></path><path class="stroke_order_diagram--existing_path" d="M28.41,41.89c2.02,0.89,7.23,4.29,8.18,6.61" id="Ske2bugw72e" kvg:type="㇔" transform="matrix(1,0,0,1,796,-4)" xmlns:kvg="http://kanjivg.tagaini.net"></path><path class="stroke_order_diagram--existing_path" d="M15.03,52.3c1.04,0.65,1.86,2.43,1.86,3.61c0,7.59,0.04,30.84,0.04,40.34" id="Ske2bugw72f" kvg:type="㇑" transform="matrix(1,0,0,1,796,-4)" xmlns:kvg="http://kanjivg.tagaini.net"></path><path class="stroke_order_diagram--existing_path" d="M16.36,53.53C22.5,53,45.93,50.08,47.79,49.5c2.17-0.68,3.61,1.67,3.53,3.68c-0.19,4.87-0.64,28.32-0.64,37.43c0,8-2.43,5.39-6.34,1.44" id="Ske2bugw72g" kvg:type="㇆" transform="matrix(1,0,0,1,796,-4)" xmlns:kvg="http://kanjivg.tagaini.net"></path><path class="stroke_order_diagram--current_path" d="M32.19,53.25c0.34,0.31,0.29,0.96-0.14,1.46c-2.05,2.4-6.8,6.59-7.55,7.58s-0.25,1.74,1.75,1.34c2.23-0.45,11.44-3.91,16.13-4.68" id="kvg:04e82-s9" kvg:type="㇜" transform="matrix(1,0,0,1,796,-4)" xmlns:kvg="http://kanjivg.tagaini.net"></path><path class="stroke_order_diagram--current_path" d="M32.19,53.25c0.34,0.31,0.29,0.96-0.14,1.46c-2.05,2.4-6.8,6.59-7.55,7.58s-0.25,1.74,1.75,1.34c2.23-0.45,11.44-3.91,16.13-4.68" id="Ske2bugw72i" kvg:type="㇜" transform="matrix(1,0,0,1,796,-4)" xmlns:kvg="http://kanjivg.tagaini.net"></path><circle class="stroke_order_diagram--path_start" cx="32.19" cy="53.25" r="4" transform="matrix(1,0,0,1,796,-4)"></circle><line class="stroke_order_diagram--guide_line" x1="950" x2="950" y1="1" y2="99"></line><line class="stroke_order_diagram--bounding_box" x1="999" x2="999" y1="1" y2="99"></line><path class="stroke_order_diagram--existing_path" d="M45.97,12.89c0.08,0.27,0.17,0.7-0.17,1.1c-2.02,2.31-13.62,7.38-29.5,10.48" id="Ske2bugw72l" kvg:type="㇒" transform="matrix(1,0,0,1,896,-4)" xmlns:kvg="http://kanjivg.tagaini.net"></path><path class="stroke_order_diagram--existing_path" d="M19.28,27.14c0.02,0.3,0.05,0.77-0.05,1.19c-0.59,2.51-4,8.02-8.67,11.38" id="Ske2bugw72m" kvg:type="㇒" transform="matrix(1,0,0,1,896,-4)" xmlns:kvg="http://kanjivg.tagaini.net"></path><path class="stroke_order_diagram--existing_path" d="M29.02,24.08c1.96,1.35,5.05,5.54,5.54,7.63" id="Ske2bugw72n" kvg:type="㇔" transform="matrix(1,0,0,1,896,-4)" xmlns:kvg="http://kanjivg.tagaini.net"></path><path class="stroke_order_diagram--existing_path" d="M42.77,22.58c3.02,1.61,7.79,6.63,8.54,9.13" id="Ske2bugw72o" kvg:type="㇔" transform="matrix(1,0,0,1,896,-4)" xmlns:kvg="http://kanjivg.tagaini.net"></path><path class="stroke_order_diagram--existing_path" d="M19.5,37.65c0.89,0.35,2.1,0.72,3.12,0.64c2-0.17,19.43-3.45,21.55-3.62S47,35.75,45.12,37c-0.97,0.64-10.97,7.17-12.31,7.86" id="Ske2bugw72p" kvg:type="㇇" transform="matrix(1,0,0,1,896,-4)" xmlns:kvg="http://kanjivg.tagaini.net"></path><path class="stroke_order_diagram--existing_path" d="M28.41,41.89c2.02,0.89,7.23,4.29,8.18,6.61" id="Ske2bugw72q" kvg:type="㇔" transform="matrix(1,0,0,1,896,-4)" xmlns:kvg="http://kanjivg.tagaini.net"></path><path class="stroke_order_diagram--existing_path" d="M15.03,52.3c1.04,0.65,1.86,2.43,1.86,3.61c0,7.59,0.04,30.84,0.04,40.34" id="Ske2bugw72r" kvg:type="㇑" transform="matrix(1,0,0,1,896,-4)" xmlns:kvg="http://kanjivg.tagaini.net"></path><path class="stroke_order_diagram--existing_path" d="M16.36,53.53C22.5,53,45.93,50.08,47.79,49.5c2.17-0.68,3.61,1.67,3.53,3.68c-0.19,4.87-0.64,28.32-0.64,37.43c0,8-2.43,5.39-6.34,1.44" id="Ske2bugw72s" kvg:type="㇆" transform="matrix(1,0,0,1,896,-4)" xmlns:kvg="http://kanjivg.tagaini.net"></path><path class="stroke_order_diagram--existing_path" d="M32.19,53.25c0.34,0.31,0.29,0.96-0.14,1.46c-2.05,2.4-6.8,6.59-7.55,7.58s-0.25,1.74,1.75,1.34c2.23-0.45,11.44-3.91,16.13-4.68" id="Ske2bugw72t" kvg:type="㇜" transform="matrix(1,0,0,1,896,-4)" xmlns:kvg="http://kanjivg.tagaini.net"></path><path class="stroke_order_diagram--current_path" d="M39.05,54.39c1.89,1.17,4.88,4.79,5.35,6.6" id="kvg:04e82-s10" kvg:type="㇔" transform="matrix(1,0,0,1,896,-4)" xmlns:kvg="http://kanjivg.tagaini.net"></path><path class="stroke_order_diagram--current_path" d="M39.05,54.39c1.89,1.17,4.88,4.79,5.35,6.6" id="Ske2bugw72v" kvg:type="㇔" transform="matrix(1,0,0,1,896,-4)" xmlns:kvg="http://kanjivg.tagaini.net"></path><circle class="stroke_order_diagram--path_start" cx="39.05" cy="54.39" r="4" transform="matrix(1,0,0,1,896,-4)"></circle><line class="stroke_order_diagram--guide_line" x1="1050" x2="1050" y1="1" y2="99"></line><line class="stroke_order_diagram--bounding_box" x1="1099" x2="1099" y1="1" y2="99"></line><path class="stroke_order_diagram--existing_path" d="M45.97,12.89c0.08,0.27,0.17,0.7-0.17,1.1c-2.02,2.31-13.62,7.38-29.5,10.48" id="Ske2bugw72y" kvg:type="㇒" transform="matrix(1,0,0,1,996,-4)" xmlns:kvg="http://kanjivg.tagaini.net"></path><path class="stroke_order_diagram--existing_path" d="M19.28,27.14c0.02,0.3,0.05,0.77-0.05,1.19c-0.59,2.51-4,8.02-8.67,11.38" id="Ske2bugw72z" kvg:type="㇒" transform="matrix(1,0,0,1,996,-4)" xmlns:kvg="http://kanjivg.tagaini.net"></path><path class="stroke_order_diagram--existing_path" d="M29.02,24.08c1.96,1.35,5.05,5.54,5.54,7.63" id="Ske2bugw730" kvg:type="㇔" transform="matrix(1,0,0,1,996,-4)" xmlns:kvg="http://kanjivg.tagaini.net"></path><path class="stroke_order_diagram--existing_path" d="M42.77,22.58c3.02,1.61,7.79,6.63,8.54,9.13" id="Ske2bugw731" kvg:type="㇔" transform="matrix(1,0,0,1,996,-4)" xmlns:kvg="http://kanjivg.tagaini.net"></path><path class="stroke_order_diagram--existing_path" d="M19.5,37.65c0.89,0.35,2.1,0.72,3.12,0.64c2-0.17,19.43-3.45,21.55-3.62S47,35.75,45.12,37c-0.97,0.64-10.97,7.17-12.31,7.86" id="Ske2bugw732" kvg:type="㇇" transform="matrix(1,0,0,1,996,-4)" xmlns:kvg="http://kanjivg.tagaini.net"></path><path class="stroke_order_diagram--existing_path" d="M28.41,41.89c2.02,0.89,7.23,4.29,8.18,6.61" id="Ske2bugw733" kvg:type="㇔" transform="matrix(1,0,0,1,996,-4)" xmlns:kvg="http://kanjivg.tagaini.net"></path><path class="stroke_order_diagram--existing_path" d="M15.03,52.3c1.04,0.65,1.86,2.43,1.86,3.61c0,7.59,0.04,30.84,0.04,40.34" id="Ske2bugw734" kvg:type="㇑" transform="matrix(1,0,0,1,996,-4)" xmlns:kvg="http://kanjivg.tagaini.net"></path><path class="stroke_order_diagram--existing_path" d="M16.36,53.53C22.5,53,45.93,50.08,47.79,49.5c2.17-0.68,3.61,1.67,3.53,3.68c-0.19,4.87-0.64,28.32-0.64,37.43c0,8-2.43,5.39-6.34,1.44" id="Ske2bugw735" kvg:type="㇆" transform="matrix(1,0,0,1,996,-4)" xmlns:kvg="http://kanjivg.tagaini.net"></path><path class="stroke_order_diagram--existing_path" d="M32.19,53.25c0.34,0.31,0.29,0.96-0.14,1.46c-2.05,2.4-6.8,6.59-7.55,7.58s-0.25,1.74,1.75,1.34c2.23-0.45,11.44-3.91,16.13-4.68" id="Ske2bugw736" kvg:type="㇜" transform="matrix(1,0,0,1,996,-4)" xmlns:kvg="http://kanjivg.tagaini.net"></path><path class="stroke_order_diagram--existing_path" d="M39.05,54.39c1.89,1.17,4.88,4.79,5.35,6.6" id="Ske2bugw737" kvg:type="㇔" transform="matrix(1,0,0,1,996,-4)" xmlns:kvg="http://kanjivg.tagaini.net"></path><path class="stroke_order_diagram--current_path" d="M24.12,71.61c0.76,0.16,0.86,0.41,2.38,0.16c1.52-0.24,12.46-3.35,13.51-3.59c1.05-0.24,1.87,0.92,1.43,1.78C36.5,79.5,31.5,85,23.5,90.5" id="kvg:04e82-s11" kvg:type="㇇" transform="matrix(1,0,0,1,996,-4)" xmlns:kvg="http://kanjivg.tagaini.net"></path><path class="stroke_order_diagram--current_path" d="M24.12,71.61c0.76,0.16,0.86,0.41,2.38,0.16c1.52-0.24,12.46-3.35,13.51-3.59c1.05-0.24,1.87,0.92,1.43,1.78C36.5,79.5,31.5,85,23.5,90.5" id="Ske2bugw739" kvg:type="㇇" transform="matrix(1,0,0,1,996,-4)" xmlns:kvg="http://kanjivg.tagaini.net"></path><circle class="stroke_order_diagram--path_start" cx="24.12" cy="71.61" r="4" transform="matrix(1,0,0,1,996,-4)"></circle><line class="stroke_order_diagram--guide_line" x1="1150" x2="1150" y1="1" y2="99"></line><line class="stroke_order_diagram--bounding_box" x1="1199" x2="1199" y1="1" y2="99"></line><path class="stroke_order_diagram--existing_path" d="M45.97,12.89c0.08,0.27,0.17,0.7-0.17,1.1c-2.02,2.31-13.62,7.38-29.5,10.48" id="Ske2bugw73c" kvg:type="㇒" transform="matrix(1,0,0,1,1096,-4)" xmlns:kvg="http://kanjivg.tagaini.net"></path><path class="stroke_order_diagram--existing_path" d="M19.28,27.14c0.02,0.3,0.05,0.77-0.05,1.19c-0.59,2.51-4,8.02-8.67,11.38" id="Ske2bugw73d" kvg:type="㇒" transform="matrix(1,0,0,1,1096,-4)" xmlns:kvg="http://kanjivg.tagaini.net"></path><path class="stroke_order_diagram--existing_path" d="M29.02,24.08c1.96,1.35,5.05,5.54,5.54,7.63" id="Ske2bugw73e" kvg:type="㇔" transform="matrix(1,0,0,1,1096,-4)" xmlns:kvg="http://kanjivg.tagaini.net"></path><path class="stroke_order_diagram--existing_path" d="M42.77,22.58c3.02,1.61,7.79,6.63,8.54,9.13" id="Ske2bugw73f" kvg:type="㇔" transform="matrix(1,0,0,1,1096,-4)" xmlns:kvg="http://kanjivg.tagaini.net"></path><path class="stroke_order_diagram--existing_path" d="M19.5,37.65c0.89,0.35,2.1,0.72,3.12,0.64c2-0.17,19.43-3.45,21.55-3.62S47,35.75,45.12,37c-0.97,0.64-10.97,7.17-12.31,7.86" id="Ske2bugw73g" kvg:type="㇇" transform="matrix(1,0,0,1,1096,-4)" xmlns:kvg="http://kanjivg.tagaini.net"></path><path class="stroke_order_diagram--existing_path" d="M28.41,41.89c2.02,0.89,7.23,4.29,8.18,6.61" id="Ske2bugw73h" kvg:type="㇔" transform="matrix(1,0,0,1,1096,-4)" xmlns:kvg="http://kanjivg.tagaini.net"></path><path class="stroke_order_diagram--existing_path" d="M15.03,52.3c1.04,0.65,1.86,2.43,1.86,3.61c0,7.59,0.04,30.84,0.04,40.34" id="Ske2bugw73i" kvg:type="㇑" transform="matrix(1,0,0,1,1096,-4)" xmlns:kvg="http://kanjivg.tagaini.net"></path><path class="stroke_order_diagram--existing_path" d="M16.36,53.53C22.5,53,45.93,50.08,47.79,49.5c2.17-0.68,3.61,1.67,3.53,3.68c-0.19,4.87-0.64,28.32-0.64,37.43c0,8-2.43,5.39-6.34,1.44" id="Ske2bugw73j" kvg:type="㇆" transform="matrix(1,0,0,1,1096,-4)" xmlns:kvg="http://kanjivg.tagaini.net"></path><path class="stroke_order_diagram--existing_path" d="M32.19,53.25c0.34,0.31,0.29,0.96-0.14,1.46c-2.05,2.4-6.8,6.59-7.55,7.58s-0.25,1.74,1.75,1.34c2.23-0.45,11.44-3.91,16.13-4.68" id="Ske2bugw73k" kvg:type="㇜" transform="matrix(1,0,0,1,1096,-4)" xmlns:kvg="http://kanjivg.tagaini.net"></path><path class="stroke_order_diagram--existing_path" d="M39.05,54.39c1.89,1.17,4.88,4.79,5.35,6.6" id="Ske2bugw73l" kvg:type="㇔" transform="matrix(1,0,0,1,1096,-4)" xmlns:kvg="http://kanjivg.tagaini.net"></path><path class="stroke_order_diagram--existing_path" d="M24.12,71.61c0.76,0.16,0.86,0.41,2.38,0.16c1.52-0.24,12.46-3.35,13.51-3.59c1.05-0.24,1.87,0.92,1.43,1.78C36.5,79.5,31.5,85,23.5,90.5" id="Ske2bugw73m" kvg:type="㇇" transform="matrix(1,0,0,1,1096,-4)" xmlns:kvg="http://kanjivg.tagaini.net"></path><path class="stroke_order_diagram--current_path" d="M28.56,77.58c3.9,1.19,9.14,4.14,12.22,7.72" id="kvg:04e82-s12" kvg:type="㇏" transform="matrix(1,0,0,1,1096,-4)" xmlns:kvg="http://kanjivg.tagaini.net"></path><path class="stroke_order_diagram--current_path" d="M28.56,77.58c3.9,1.19,9.14,4.14,12.22,7.72" id="Ske2bugw73o" kvg:type="㇏" transform="matrix(1,0,0,1,1096,-4)" xmlns:kvg="http://kanjivg.tagaini.net"></path><circle class="stroke_order_diagram--path_start" cx="28.56" cy="77.58" r="4" transform="matrix(1,0,0,1,1096,-4)"></circle><line class="stroke_order_diagram--guide_line" x1="1250" x2="1250" y1="1" y2="99"></line><line class="stroke_order_diagram--bounding_box" x1="1299" x2="1299" y1="1" y2="99"></line><path class="stroke_order_diagram--existing_path" d="M45.97,12.89c0.08,0.27,0.17,0.7-0.17,1.1c-2.02,2.31-13.62,7.38-29.5,10.48" id="Ske2bugw73r" kvg:type="㇒" transform="matrix(1,0,0,1,1196,-4)" xmlns:kvg="http://kanjivg.tagaini.net"></path><path class="stroke_order_diagram--existing_path" d="M19.28,27.14c0.02,0.3,0.05,0.77-0.05,1.19c-0.59,2.51-4,8.02-8.67,11.38" id="Ske2bugw73s" kvg:type="㇒" transform="matrix(1,0,0,1,1196,-4)" xmlns:kvg="http://kanjivg.tagaini.net"></path><path class="stroke_order_diagram--existing_path" d="M29.02,24.08c1.96,1.35,5.05,5.54,5.54,7.63" id="Ske2bugw73t" kvg:type="㇔" transform="matrix(1,0,0,1,1196,-4)" xmlns:kvg="http://kanjivg.tagaini.net"></path><path class="stroke_order_diagram--existing_path" d="M42.77,22.58c3.02,1.61,7.79,6.63,8.54,9.13" id="Ske2bugw73u" kvg:type="㇔" transform="matrix(1,0,0,1,1196,-4)" xmlns:kvg="http://kanjivg.tagaini.net"></path><path class="stroke_order_diagram--existing_path" d="M19.5,37.65c0.89,0.35,2.1,0.72,3.12,0.64c2-0.17,19.43-3.45,21.55-3.62S47,35.75,45.12,37c-0.97,0.64-10.97,7.17-12.31,7.86" id="Ske2bugw73v" kvg:type="㇇" transform="matrix(1,0,0,1,1196,-4)" xmlns:kvg="http://kanjivg.tagaini.net"></path><path class="stroke_order_diagram--existing_path" d="M28.41,41.89c2.02,0.89,7.23,4.29,8.18,6.61" id="Ske2bugw73w" kvg:type="㇔" transform="matrix(1,0,0,1,1196,-4)" xmlns:kvg="http://kanjivg.tagaini.net"></path><path class="stroke_order_diagram--existing_path" d="M15.03,52.3c1.04,0.65,1.86,2.43,1.86,3.61c0,7.59,0.04,30.84,0.04,40.34" id="Ske2bugw73x" kvg:type="㇑" transform="matrix(1,0,0,1,1196,-4)" xmlns:kvg="http://kanjivg.tagaini.net"></path><path class="stroke_order_diagram--existing_path" d="M16.36,53.53C22.5,53,45.93,50.08,47.79,49.5c2.17-0.68,3.61,1.67,3.53,3.68c-0.19,4.87-0.64,28.32-0.64,37.43c0,8-2.43,5.39-6.34,1.44" id="Ske2bugw73y" kvg:type="㇆" transform="matrix(1,0,0,1,1196,-4)" xmlns:kvg="http://kanjivg.tagaini.net"></path><path class="stroke_order_diagram--existing_path" d="M32.19,53.25c0.34,0.31,0.29,0.96-0.14,1.46c-2.05,2.4-6.8,6.59-7.55,7.58s-0.25,1.74,1.75,1.34c2.23-0.45,11.44-3.91,16.13-4.68" id="Ske2bugw73z" kvg:type="㇜" transform="matrix(1,0,0,1,1196,-4)" xmlns:kvg="http://kanjivg.tagaini.net"></path><path class="stroke_order_diagram--existing_path" d="M39.05,54.39c1.89,1.17,4.88,4.79,5.35,6.6" id="Ske2bugw740" kvg:type="㇔" transform="matrix(1,0,0,1,1196,-4)" xmlns:kvg="http://kanjivg.tagaini.net"></path><path class="stroke_order_diagram--existing_path" d="M24.12,71.61c0.76,0.16,0.86,0.41,2.38,0.16c1.52-0.24,12.46-3.35,13.51-3.59c1.05-0.24,1.87,0.92,1.43,1.78C36.5,79.5,31.5,85,23.5,90.5" id="Ske2bugw741" kvg:type="㇇" transform="matrix(1,0,0,1,1196,-4)" xmlns:kvg="http://kanjivg.tagaini.net"></path><path class="stroke_order_diagram--existing_path" d="M28.56,77.58c3.9,1.19,9.14,4.14,12.22,7.72" id="Ske2bugw742" kvg:type="㇏" transform="matrix(1,0,0,1,1196,-4)" xmlns:kvg="http://kanjivg.tagaini.net"></path><path class="stroke_order_diagram--current_path" d="M65.99,16.87c0.76,0.88,1.55,2.59,1.58,4.43c0.16,8.19-0.42,57.14-0.42,62.7c0,10.25,2.85,11.53,16.39,11.53c10.96,0,12.35-2.53,12.35-9.12" id="kvg:04e82-s13" kvg:type="㇟" transform="matrix(1,0,0,1,1196,-4)" xmlns:kvg="http://kanjivg.tagaini.net"></path><path class="stroke_order_diagram--current_path" d="M65.99,16.87c0.76,0.88,1.55,2.59,1.58,4.43c0.16,8.19-0.42,57.14-0.42,62.7c0,10.25,2.85,11.53,16.39,11.53c10.96,0,12.35-2.53,12.35-9.12" id="Ske2bugw744" kvg:type="㇟" transform="matrix(1,0,0,1,1196,-4)" xmlns:kvg="http://kanjivg.tagaini.net"></path><circle class="stroke_order_diagram--path_start" cx="65.99" cy="16.87" r="4" transform="matrix(1,0,0,1,1196,-4)"></circle></svg>