<svg class="stroke_order_diagram--svg_container_for_5186629dd5dda79658000b8c" style="height: 100px; width: 600px;" viewbox="0 0 600 100"><desc>Created with Snap</desc><defs></defs><line class="stroke_order_diagram--bounding_box" x1="1" x2="599" y1="1" y2="1"></line><line class="stroke_order_diagram--bounding_box" x1="1" x2="1" y1="1" y2="99"></line><line class="stroke_order_diagram--bounding_box" x1="1" x2="599" y1="99" y2="99"></line><line class="stroke_order_diagram--guide_line" x1="0" x2="600" y1="50" y2="50"></line><line class="stroke_order_diagram--guide_line" x1="50" x2="50" y1="1" y2="99"></line><line class="stroke_order_diagram--bounding_box" x1="99" x2="99" y1="1" y2="99"></line><path class="stroke_order_diagram--current_path" d="M21.5,19.66c1.35,0.29,3.81,0.35,5.15,0.29c12.98-0.54,48.11-3.37,60.89-3.37c2.24,0,3.59,0.14,4.71,0.29" id="kvg:04e99-s1" kvg:type="㇐" transform="matrix(1,0,0,1,-4,-4)" xmlns:kvg="http://kanjivg.tagaini.net"></path><path class="stroke_order_diagram--current_path" d="M21.5,19.66c1.35,0.29,3.81,0.35,5.15,0.29c12.98-0.54,48.11-3.37,60.89-3.37c2.24,0,3.59,0.14,4.71,0.29" id="Ske2boi0lf" kvg:type="㇐" transform="matrix(1,0,0,1,-4,-4)" xmlns:kvg="http://kanjivg.tagaini.net"></path><circle class="stroke_order_diagram--path_start" cx="21.5" cy="19.66" r="4" transform="matrix(1,0,0,1,-4,-4)"></circle><line class="stroke_order_diagram--guide_line" x1="150" x2="150" y1="1" y2="99"></line><line class="stroke_order_diagram--bounding_box" x1="199" x2="199" y1="1" y2="99"></line><path class="stroke_order_diagram--existing_path" d="M21.5,19.66c1.35,0.29,3.81,0.35,5.15,0.29c12.98-0.54,48.11-3.37,60.89-3.37c2.24,0,3.59,0.14,4.71,0.29" id="Ske2boi0li" kvg:type="㇐" transform="matrix(1,0,0,1,96,-4)" xmlns:kvg="http://kanjivg.tagaini.net"></path><path class="stroke_order_diagram--current_path" d="M44.5,22.25c1,1.5,1.02,4.39,0.5,6.75c-2.5,11.25-12.75,39.5-15.88,48.1" id="kvg:04e99-s2" kvg:type="㇑" transform="matrix(1,0,0,1,96,-4)" xmlns:kvg="http://kanjivg.tagaini.net"></path><path class="stroke_order_diagram--current_path" d="M44.5,22.25c1,1.5,1.02,4.39,0.5,6.75c-2.5,11.25-12.75,39.5-15.88,48.1" id="Ske2boi0lk" kvg:type="㇑" transform="matrix(1,0,0,1,96,-4)" xmlns:kvg="http://kanjivg.tagaini.net"></path><circle class="stroke_order_diagram--path_start" cx="44.5" cy="22.25" r="4" transform="matrix(1,0,0,1,96,-4)"></circle><line class="stroke_order_diagram--guide_line" x1="250" x2="250" y1="1" y2="99"></line><line class="stroke_order_diagram--bounding_box" x1="299" x2="299" y1="1" y2="99"></line><path class="stroke_order_diagram--existing_path" d="M21.5,19.66c1.35,0.29,3.81,0.35,5.15,0.29c12.98-0.54,48.11-3.37,60.89-3.37c2.24,0,3.59,0.14,4.71,0.29" id="Ske2boi0ln" kvg:type="㇐" transform="matrix(1,0,0,1,196,-4)" xmlns:kvg="http://kanjivg.tagaini.net"></path><path class="stroke_order_diagram--existing_path" d="M44.5,22.25c1,1.5,1.02,4.39,0.5,6.75c-2.5,11.25-12.75,39.5-15.88,48.1" id="Ske2boi0lo" kvg:type="㇑" transform="matrix(1,0,0,1,196,-4)" xmlns:kvg="http://kanjivg.tagaini.net"></path><path class="stroke_order_diagram--current_path" d="M42.75,39.08c8.42-1.26,26.53-2.8,29.44-3.07c3.51-0.32,4.09,1.93,3.29,4.17c-2.97,8.3-5.67,22.4-11.61,51.32" id="kvg:04e99-s3" kvg:type="㇕" transform="matrix(1,0,0,1,196,-4)" xmlns:kvg="http://kanjivg.tagaini.net"></path><path class="stroke_order_diagram--current_path" d="M42.75,39.08c8.42-1.26,26.53-2.8,29.44-3.07c3.51-0.32,4.09,1.93,3.29,4.17c-2.97,8.3-5.67,22.4-11.61,51.32" id="Ske2boi0lq" kvg:type="㇕" transform="matrix(1,0,0,1,196,-4)" xmlns:kvg="http://kanjivg.tagaini.net"></path><circle class="stroke_order_diagram--path_start" cx="42.75" cy="39.08" r="4" transform="matrix(1,0,0,1,196,-4)"></circle><line class="stroke_order_diagram--guide_line" x1="350" x2="350" y1="1" y2="99"></line><line class="stroke_order_diagram--bounding_box" x1="399" x2="399" y1="1" y2="99"></line><path class="stroke_order_diagram--existing_path" d="M21.5,19.66c1.35,0.29,3.81,0.35,5.15,0.29c12.98-0.54,48.11-3.37,60.89-3.37c2.24,0,3.59,0.14,4.71,0.29" id="Ske2boi0lt" kvg:type="㇐" transform="matrix(1,0,0,1,296,-4)" xmlns:kvg="http://kanjivg.tagaini.net"></path><path class="stroke_order_diagram--existing_path" d="M44.5,22.25c1,1.5,1.02,4.39,0.5,6.75c-2.5,11.25-12.75,39.5-15.88,48.1" id="Ske2boi0lu" kvg:type="㇑" transform="matrix(1,0,0,1,296,-4)" xmlns:kvg="http://kanjivg.tagaini.net"></path><path class="stroke_order_diagram--existing_path" d="M42.75,39.08c8.42-1.26,26.53-2.8,29.44-3.07c3.51-0.32,4.09,1.93,3.29,4.17c-2.97,8.3-5.67,22.4-11.61,51.32" id="Ske2boi0lv" kvg:type="㇕" transform="matrix(1,0,0,1,296,-4)" xmlns:kvg="http://kanjivg.tagaini.net"></path><path class="stroke_order_diagram--current_path" d="M47.5,50.5c4.24,1.76,10.94,7.25,12,10" id="kvg:04e99-s4" kvg:type="㇔" transform="matrix(1,0,0,1,296,-4)" xmlns:kvg="http://kanjivg.tagaini.net"></path><path class="stroke_order_diagram--current_path" d="M47.5,50.5c4.24,1.76,10.94,7.25,12,10" id="Ske2boi0lx" kvg:type="㇔" transform="matrix(1,0,0,1,296,-4)" xmlns:kvg="http://kanjivg.tagaini.net"></path><circle class="stroke_order_diagram--path_start" cx="47.5" cy="50.5" r="4" transform="matrix(1,0,0,1,296,-4)"></circle><line class="stroke_order_diagram--guide_line" x1="450" x2="450" y1="1" y2="99"></line><line class="stroke_order_diagram--bounding_box" x1="499" x2="499" y1="1" y2="99"></line><path class="stroke_order_diagram--existing_path" d="M21.5,19.66c1.35,0.29,3.81,0.35,5.15,0.29c12.98-0.54,48.11-3.37,60.89-3.37c2.24,0,3.59,0.14,4.71,0.29" id="Ske2boi0l10" kvg:type="㇐" transform="matrix(1,0,0,1,396,-4)" xmlns:kvg="http://kanjivg.tagaini.net"></path><path class="stroke_order_diagram--existing_path" d="M44.5,22.25c1,1.5,1.02,4.39,0.5,6.75c-2.5,11.25-12.75,39.5-15.88,48.1" id="Ske2boi0l11" kvg:type="㇑" transform="matrix(1,0,0,1,396,-4)" xmlns:kvg="http://kanjivg.tagaini.net"></path><path class="stroke_order_diagram--existing_path" d="M42.75,39.08c8.42-1.26,26.53-2.8,29.44-3.07c3.51-0.32,4.09,1.93,3.29,4.17c-2.97,8.3-5.67,22.4-11.61,51.32" id="Ske2boi0l12" kvg:type="㇕" transform="matrix(1,0,0,1,396,-4)" xmlns:kvg="http://kanjivg.tagaini.net"></path><path class="stroke_order_diagram--existing_path" d="M47.5,50.5c4.24,1.76,10.94,7.25,12,10" id="Ske2boi0l13" kvg:type="㇔" transform="matrix(1,0,0,1,396,-4)" xmlns:kvg="http://kanjivg.tagaini.net"></path><path class="stroke_order_diagram--current_path" d="M42.5,68.5c4.41,1.76,11.39,7.25,12.5,10" id="kvg:04e99-s5" kvg:type="㇔" transform="matrix(1,0,0,1,396,-4)" xmlns:kvg="http://kanjivg.tagaini.net"></path><path class="stroke_order_diagram--current_path" d="M42.5,68.5c4.41,1.76,11.39,7.25,12.5,10" id="Ske2boi0l15" kvg:type="㇔" transform="matrix(1,0,0,1,396,-4)" xmlns:kvg="http://kanjivg.tagaini.net"></path><circle class="stroke_order_diagram--path_start" cx="42.5" cy="68.5" r="4" transform="matrix(1,0,0,1,396,-4)"></circle><line class="stroke_order_diagram--guide_line" x1="550" x2="550" y1="1" y2="99"></line><line class="stroke_order_diagram--bounding_box" x1="599" x2="599" y1="1" y2="99"></line><path class="stroke_order_diagram--existing_path" d="M21.5,19.66c1.35,0.29,3.81,0.35,5.15,0.29c12.98-0.54,48.11-3.37,60.89-3.37c2.24,0,3.59,0.14,4.71,0.29" id="Ske2boi0l18" kvg:type="㇐" transform="matrix(1,0,0,1,496,-4)" xmlns:kvg="http://kanjivg.tagaini.net"></path><path class="stroke_order_diagram--existing_path" d="M44.5,22.25c1,1.5,1.02,4.39,0.5,6.75c-2.5,11.25-12.75,39.5-15.88,48.1" id="Ske2boi0l19" kvg:type="㇑" transform="matrix(1,0,0,1,496,-4)" xmlns:kvg="http://kanjivg.tagaini.net"></path><path class="stroke_order_diagram--existing_path" d="M42.75,39.08c8.42-1.26,26.53-2.8,29.44-3.07c3.51-0.32,4.09,1.93,3.29,4.17c-2.97,8.3-5.67,22.4-11.61,51.32" id="Ske2boi0l1a" kvg:type="㇕" transform="matrix(1,0,0,1,496,-4)" xmlns:kvg="http://kanjivg.tagaini.net"></path><path class="stroke_order_diagram--existing_path" d="M47.5,50.5c4.24,1.76,10.94,7.25,12,10" id="Ske2boi0l1b" kvg:type="㇔" transform="matrix(1,0,0,1,496,-4)" xmlns:kvg="http://kanjivg.tagaini.net"></path><path class="stroke_order_diagram--existing_path" d="M42.5,68.5c4.41,1.76,11.39,7.25,12.5,10" id="Ske2boi0l1c" kvg:type="㇔" transform="matrix(1,0,0,1,496,-4)" xmlns:kvg="http://kanjivg.tagaini.net"></path><path class="stroke_order_diagram--current_path" d="M13.75,93.25c1.57,0.56,4.44,0.61,6.01,0.56c16.59-0.52,53.82-3.05,70.26-2.27c2.61,0.12,4.18,0.27,5.48,0.55" id="kvg:04e99-s6" kvg:type="㇐" transform="matrix(1,0,0,1,496,-4)" xmlns:kvg="http://kanjivg.tagaini.net"></path><path class="stroke_order_diagram--current_path" d="M13.75,93.25c1.57,0.56,4.44,0.61,6.01,0.56c16.59-0.52,53.82-3.05,70.26-2.27c2.61,0.12,4.18,0.27,5.48,0.55" id="Ske2boi0l1e" kvg:type="㇐" transform="matrix(1,0,0,1,496,-4)" xmlns:kvg="http://kanjivg.tagaini.net"></path><circle class="stroke_order_diagram--path_start" cx="13.75" cy="93.25" r="4" transform="matrix(1,0,0,1,496,-4)"></circle></svg>