<svg class="stroke_order_diagram--svg_container_for_5186629ed5dda79658000bdc" style="height: 100px; width: 600px;" viewbox="0 0 600 100"><desc>Created with Snap</desc><defs></defs><line class="stroke_order_diagram--bounding_box" x1="1" x2="599" y1="1" y2="1"></line><line class="stroke_order_diagram--bounding_box" x1="1" x2="1" y1="1" y2="99"></line><line class="stroke_order_diagram--bounding_box" x1="1" x2="599" y1="99" y2="99"></line><line class="stroke_order_diagram--guide_line" x1="0" x2="600" y1="50" y2="50"></line><line class="stroke_order_diagram--guide_line" x1="50" x2="50" y1="1" y2="99"></line><line class="stroke_order_diagram--bounding_box" x1="99" x2="99" y1="1" y2="99"></line><path class="stroke_order_diagram--current_path" d="M32.48,16.89c0.14,1.13,0.25,2.55-0.13,3.93C29.99,29.6,20.84,46.57,9.81,58.47" id="kvg:04f1c-s1" kvg:type="㇒" transform="matrix(1,0,0,1,-4,-4)" xmlns:kvg="http://kanjivg.tagaini.net"></path><path class="stroke_order_diagram--current_path" d="M32.48,16.89c0.14,1.13,0.25,2.55-0.13,3.93C29.99,29.6,20.84,46.57,9.81,58.47" id="Ske2cbav1f" kvg:type="㇒" transform="matrix(1,0,0,1,-4,-4)" xmlns:kvg="http://kanjivg.tagaini.net"></path><circle class="stroke_order_diagram--path_start" cx="32.48" cy="16.89" r="4" transform="matrix(1,0,0,1,-4,-4)"></circle><line class="stroke_order_diagram--guide_line" x1="150" x2="150" y1="1" y2="99"></line><line class="stroke_order_diagram--bounding_box" x1="199" x2="199" y1="1" y2="99"></line><path class="stroke_order_diagram--existing_path" d="M32.48,16.89c0.14,1.13,0.25,2.55-0.13,3.93C29.99,29.6,20.84,46.57,9.81,58.47" id="Ske2cbav1i" kvg:type="㇒" transform="matrix(1,0,0,1,96,-4)" xmlns:kvg="http://kanjivg.tagaini.net"></path><path class="stroke_order_diagram--current_path" d="M25.99,41c0.66,0.68,0.84,2.19,0.84,3.58c0,14.46-0.32,39.08-0.32,48.79" id="kvg:04f1c-s2" kvg:type="㇑" transform="matrix(1,0,0,1,96,-4)" xmlns:kvg="http://kanjivg.tagaini.net"></path><path class="stroke_order_diagram--current_path" d="M25.99,41c0.66,0.68,0.84,2.19,0.84,3.58c0,14.46-0.32,39.08-0.32,48.79" id="Ske2cbav1k" kvg:type="㇑" transform="matrix(1,0,0,1,96,-4)" xmlns:kvg="http://kanjivg.tagaini.net"></path><circle class="stroke_order_diagram--path_start" cx="25.99" cy="41" r="4" transform="matrix(1,0,0,1,96,-4)"></circle><line class="stroke_order_diagram--guide_line" x1="250" x2="250" y1="1" y2="99"></line><line class="stroke_order_diagram--bounding_box" x1="299" x2="299" y1="1" y2="99"></line><path class="stroke_order_diagram--existing_path" d="M32.48,16.89c0.14,1.13,0.25,2.55-0.13,3.93C29.99,29.6,20.84,46.57,9.81,58.47" id="Ske2cbav1n" kvg:type="㇒" transform="matrix(1,0,0,1,196,-4)" xmlns:kvg="http://kanjivg.tagaini.net"></path><path class="stroke_order_diagram--existing_path" d="M25.99,41c0.66,0.68,0.84,2.19,0.84,3.58c0,14.46-0.32,39.08-0.32,48.79" id="Ske2cbav1o" kvg:type="㇑" transform="matrix(1,0,0,1,196,-4)" xmlns:kvg="http://kanjivg.tagaini.net"></path><path class="stroke_order_diagram--current_path" d="M62.43,13.12c0.27,0.92,0.54,1.9,0.44,2.61C60.25,34.25,54,52,41.88,60.75" id="kvg:04f1c-s3" kvg:type="㇒" transform="matrix(1,0,0,1,196,-4)" xmlns:kvg="http://kanjivg.tagaini.net"></path><path class="stroke_order_diagram--current_path" d="M62.43,13.12c0.27,0.92,0.54,1.9,0.44,2.61C60.25,34.25,54,52,41.88,60.75" id="Ske2cbav1q" kvg:type="㇒" transform="matrix(1,0,0,1,196,-4)" xmlns:kvg="http://kanjivg.tagaini.net"></path><circle class="stroke_order_diagram--path_start" cx="62.43" cy="13.12" r="4" transform="matrix(1,0,0,1,196,-4)"></circle><line class="stroke_order_diagram--guide_line" x1="350" x2="350" y1="1" y2="99"></line><line class="stroke_order_diagram--bounding_box" x1="399" x2="399" y1="1" y2="99"></line><path class="stroke_order_diagram--existing_path" d="M32.48,16.89c0.14,1.13,0.25,2.55-0.13,3.93C29.99,29.6,20.84,46.57,9.81,58.47" id="Ske2cbav1t" kvg:type="㇒" transform="matrix(1,0,0,1,296,-4)" xmlns:kvg="http://kanjivg.tagaini.net"></path><path class="stroke_order_diagram--existing_path" d="M25.99,41c0.66,0.68,0.84,2.19,0.84,3.58c0,14.46-0.32,39.08-0.32,48.79" id="Ske2cbav1u" kvg:type="㇑" transform="matrix(1,0,0,1,296,-4)" xmlns:kvg="http://kanjivg.tagaini.net"></path><path class="stroke_order_diagram--existing_path" d="M62.43,13.12c0.27,0.92,0.54,1.9,0.44,2.61C60.25,34.25,54,52,41.88,60.75" id="Ske2cbav1v" kvg:type="㇒" transform="matrix(1,0,0,1,296,-4)" xmlns:kvg="http://kanjivg.tagaini.net"></path><path class="stroke_order_diagram--current_path" d="M42.29,27.12c0.85,0.35,4.03,0.12,5.09,0c3.37-0.37,26.12-4.37,30-5.02c2.09-0.35,2.99,1.66,2.71,3.11c-0.59,3.04-3.8,11.66-3.8,16.63c0,5.91,2.46,9.91,9.64,9.91c7.07,0,9.53-1.61,9.53-6.29" id="kvg:04f1c-s4" kvg:type="㇈" transform="matrix(1,0,0,1,296,-4)" xmlns:kvg="http://kanjivg.tagaini.net"></path><path class="stroke_order_diagram--current_path" d="M42.29,27.12c0.85,0.35,4.03,0.12,5.09,0c3.37-0.37,26.12-4.37,30-5.02c2.09-0.35,2.99,1.66,2.71,3.11c-0.59,3.04-3.8,11.66-3.8,16.63c0,5.91,2.46,9.91,9.64,9.91c7.07,0,9.53-1.61,9.53-6.29" id="Ske2cbav1x" kvg:type="㇈" transform="matrix(1,0,0,1,296,-4)" xmlns:kvg="http://kanjivg.tagaini.net"></path><circle class="stroke_order_diagram--path_start" cx="42.29" cy="27.12" r="4" transform="matrix(1,0,0,1,296,-4)"></circle><line class="stroke_order_diagram--guide_line" x1="450" x2="450" y1="1" y2="99"></line><line class="stroke_order_diagram--bounding_box" x1="499" x2="499" y1="1" y2="99"></line><path class="stroke_order_diagram--existing_path" d="M32.48,16.89c0.14,1.13,0.25,2.55-0.13,3.93C29.99,29.6,20.84,46.57,9.81,58.47" id="Ske2cbav110" kvg:type="㇒" transform="matrix(1,0,0,1,396,-4)" xmlns:kvg="http://kanjivg.tagaini.net"></path><path class="stroke_order_diagram--existing_path" d="M25.99,41c0.66,0.68,0.84,2.19,0.84,3.58c0,14.46-0.32,39.08-0.32,48.79" id="Ske2cbav111" kvg:type="㇑" transform="matrix(1,0,0,1,396,-4)" xmlns:kvg="http://kanjivg.tagaini.net"></path><path class="stroke_order_diagram--existing_path" d="M62.43,13.12c0.27,0.92,0.54,1.9,0.44,2.61C60.25,34.25,54,52,41.88,60.75" id="Ske2cbav112" kvg:type="㇒" transform="matrix(1,0,0,1,396,-4)" xmlns:kvg="http://kanjivg.tagaini.net"></path><path class="stroke_order_diagram--existing_path" d="M42.29,27.12c0.85,0.35,4.03,0.12,5.09,0c3.37-0.37,26.12-4.37,30-5.02c2.09-0.35,2.99,1.66,2.71,3.11c-0.59,3.04-3.8,11.66-3.8,16.63c0,5.91,2.46,9.91,9.64,9.91c7.07,0,9.53-1.61,9.53-6.29" id="Ske2cbav113" kvg:type="㇈" transform="matrix(1,0,0,1,396,-4)" xmlns:kvg="http://kanjivg.tagaini.net"></path><path class="stroke_order_diagram--current_path" d="M37.38,70.12c1.61,0.64,4.57,0.8,6.18,0.64c13.2-1.27,31.81-4.95,45.94-5.2c2.68-0.05,4.29,0.31,5.64,0.63" id="kvg:04f1c-s5" kvg:type="㇐" transform="matrix(1,0,0,1,396,-4)" xmlns:kvg="http://kanjivg.tagaini.net"></path><path class="stroke_order_diagram--current_path" d="M37.38,70.12c1.61,0.64,4.57,0.8,6.18,0.64c13.2-1.27,31.81-4.95,45.94-5.2c2.68-0.05,4.29,0.31,5.64,0.63" id="Ske2cbav115" kvg:type="㇐" transform="matrix(1,0,0,1,396,-4)" xmlns:kvg="http://kanjivg.tagaini.net"></path><circle class="stroke_order_diagram--path_start" cx="37.38" cy="70.12" r="4" transform="matrix(1,0,0,1,396,-4)"></circle><line class="stroke_order_diagram--guide_line" x1="550" x2="550" y1="1" y2="99"></line><line class="stroke_order_diagram--bounding_box" x1="599" x2="599" y1="1" y2="99"></line><path class="stroke_order_diagram--existing_path" d="M32.48,16.89c0.14,1.13,0.25,2.55-0.13,3.93C29.99,29.6,20.84,46.57,9.81,58.47" id="Ske2cbav118" kvg:type="㇒" transform="matrix(1,0,0,1,496,-4)" xmlns:kvg="http://kanjivg.tagaini.net"></path><path class="stroke_order_diagram--existing_path" d="M25.99,41c0.66,0.68,0.84,2.19,0.84,3.58c0,14.46-0.32,39.08-0.32,48.79" id="Ske2cbav119" kvg:type="㇑" transform="matrix(1,0,0,1,496,-4)" xmlns:kvg="http://kanjivg.tagaini.net"></path><path class="stroke_order_diagram--existing_path" d="M62.43,13.12c0.27,0.92,0.54,1.9,0.44,2.61C60.25,34.25,54,52,41.88,60.75" id="Ske2cbav11a" kvg:type="㇒" transform="matrix(1,0,0,1,496,-4)" xmlns:kvg="http://kanjivg.tagaini.net"></path><path class="stroke_order_diagram--existing_path" d="M42.29,27.12c0.85,0.35,4.03,0.12,5.09,0c3.37-0.37,26.12-4.37,30-5.02c2.09-0.35,2.99,1.66,2.71,3.11c-0.59,3.04-3.8,11.66-3.8,16.63c0,5.91,2.46,9.91,9.64,9.91c7.07,0,9.53-1.61,9.53-6.29" id="Ske2cbav11b" kvg:type="㇈" transform="matrix(1,0,0,1,496,-4)" xmlns:kvg="http://kanjivg.tagaini.net"></path><path class="stroke_order_diagram--existing_path" d="M37.38,70.12c1.61,0.64,4.57,0.8,6.18,0.64c13.2-1.27,31.81-4.95,45.94-5.2c2.68-0.05,4.29,0.31,5.64,0.63" id="Ske2cbav11c" kvg:type="㇐" transform="matrix(1,0,0,1,496,-4)" xmlns:kvg="http://kanjivg.tagaini.net"></path><path class="stroke_order_diagram--current_path" d="M64.71,54.88c0.52,0.41,1.62,3.11,1.73,3.93c0.11,0.83-0.07,33.63-0.17,38.82" id="kvg:04f1c-s6" kvg:type="㇑" transform="matrix(1,0,0,1,496,-4)" xmlns:kvg="http://kanjivg.tagaini.net"></path><path class="stroke_order_diagram--current_path" d="M64.71,54.88c0.52,0.41,1.62,3.11,1.73,3.93c0.11,0.83-0.07,33.63-0.17,38.82" id="Ske2cbav11e" kvg:type="㇑" transform="matrix(1,0,0,1,496,-4)" xmlns:kvg="http://kanjivg.tagaini.net"></path><circle class="stroke_order_diagram--path_start" cx="64.71" cy="54.88" r="4" transform="matrix(1,0,0,1,496,-4)"></circle></svg>