<svg class="stroke_order_diagram--svg_container_for_51866275d5dda796580000db" style="height: 100px; width: 700px;" viewbox="0 0 700 100"><desc>Created with Snap</desc><defs></defs><line class="stroke_order_diagram--bounding_box" x1="1" x2="699" y1="1" y2="1"></line><line class="stroke_order_diagram--bounding_box" x1="1" x2="1" y1="1" y2="99"></line><line class="stroke_order_diagram--bounding_box" x1="1" x2="699" y1="99" y2="99"></line><line class="stroke_order_diagram--guide_line" x1="0" x2="700" y1="50" y2="50"></line><line class="stroke_order_diagram--guide_line" x1="50" x2="50" y1="1" y2="99"></line><line class="stroke_order_diagram--bounding_box" x1="99" x2="99" y1="1" y2="99"></line><path class="stroke_order_diagram--current_path" d="M32.5,13.75c0.23,2.1-0.19,3.81-0.8,5.66c-3.95,11.84-9.67,23.37-20.45,37.34" id="kvg:04f55-s1" kvg:type="㇒" transform="matrix(1,0,0,1,-4,-4)" xmlns:kvg="http://kanjivg.tagaini.net"></path><path class="stroke_order_diagram--current_path" d="M32.5,13.75c0.23,2.1-0.19,3.81-0.8,5.66c-3.95,11.84-9.67,23.37-20.45,37.34" id="Ske1oyhw9g" kvg:type="㇒" transform="matrix(1,0,0,1,-4,-4)" xmlns:kvg="http://kanjivg.tagaini.net"></path><circle class="stroke_order_diagram--path_start" cx="32.5" cy="13.75" r="4" transform="matrix(1,0,0,1,-4,-4)"></circle><line class="stroke_order_diagram--guide_line" x1="150" x2="150" y1="1" y2="99"></line><line class="stroke_order_diagram--bounding_box" x1="199" x2="199" y1="1" y2="99"></line><path class="stroke_order_diagram--existing_path" d="M32.5,13.75c0.23,2.1-0.19,3.81-0.8,5.66c-3.95,11.84-9.67,23.37-20.45,37.34" id="Ske1oyhw9j" kvg:type="㇒" transform="matrix(1,0,0,1,96,-4)" xmlns:kvg="http://kanjivg.tagaini.net"></path><path class="stroke_order_diagram--current_path" d="M26.76,36.5c1.24,1.5,1.54,3.04,1.54,5.5c0,9.46-0.13,30.79-0.17,44.62c-0.01,2.6-0.01,4.94-0.01,6.88" id="kvg:04f55-s2" kvg:type="㇑" transform="matrix(1,0,0,1,96,-4)" xmlns:kvg="http://kanjivg.tagaini.net"></path><path class="stroke_order_diagram--current_path" d="M26.76,36.5c1.24,1.5,1.54,3.04,1.54,5.5c0,9.46-0.13,30.79-0.17,44.62c-0.01,2.6-0.01,4.94-0.01,6.88" id="Ske1oyhw9l" kvg:type="㇑" transform="matrix(1,0,0,1,96,-4)" xmlns:kvg="http://kanjivg.tagaini.net"></path><circle class="stroke_order_diagram--path_start" cx="26.76" cy="36.5" r="4" transform="matrix(1,0,0,1,96,-4)"></circle><line class="stroke_order_diagram--guide_line" x1="250" x2="250" y1="1" y2="99"></line><line class="stroke_order_diagram--bounding_box" x1="299" x2="299" y1="1" y2="99"></line><path class="stroke_order_diagram--existing_path" d="M32.5,13.75c0.23,2.1-0.19,3.81-0.8,5.66c-3.95,11.84-9.67,23.37-20.45,37.34" id="Ske1oyhw9o" kvg:type="㇒" transform="matrix(1,0,0,1,196,-4)" xmlns:kvg="http://kanjivg.tagaini.net"></path><path class="stroke_order_diagram--existing_path" d="M26.76,36.5c1.24,1.5,1.54,3.04,1.54,5.5c0,9.46-0.13,30.79-0.17,44.62c-0.01,2.6-0.01,4.94-0.01,6.88" id="Ske1oyhw9p" kvg:type="㇑" transform="matrix(1,0,0,1,196,-4)" xmlns:kvg="http://kanjivg.tagaini.net"></path><path class="stroke_order_diagram--current_path" d="M38.88,26.64c1.74,0.5,4.68,0.67,6.41,0.5c13.21-1.27,33.84-4.77,46.26-5.86c2.88-0.25,4.63,0.24,6.08,0.49" id="kvg:04f55-s3" kvg:type="㇐" transform="matrix(1,0,0,1,196,-4)" xmlns:kvg="http://kanjivg.tagaini.net"></path><path class="stroke_order_diagram--current_path" d="M38.88,26.64c1.74,0.5,4.68,0.67,6.41,0.5c13.21-1.27,33.84-4.77,46.26-5.86c2.88-0.25,4.63,0.24,6.08,0.49" id="Ske1oyhw9r" kvg:type="㇐" transform="matrix(1,0,0,1,196,-4)" xmlns:kvg="http://kanjivg.tagaini.net"></path><circle class="stroke_order_diagram--path_start" cx="38.88" cy="26.64" r="4" transform="matrix(1,0,0,1,196,-4)"></circle><line class="stroke_order_diagram--guide_line" x1="350" x2="350" y1="1" y2="99"></line><line class="stroke_order_diagram--bounding_box" x1="399" x2="399" y1="1" y2="99"></line><path class="stroke_order_diagram--existing_path" d="M32.5,13.75c0.23,2.1-0.19,3.81-0.8,5.66c-3.95,11.84-9.67,23.37-20.45,37.34" id="Ske1oyhw9u" kvg:type="㇒" transform="matrix(1,0,0,1,296,-4)" xmlns:kvg="http://kanjivg.tagaini.net"></path><path class="stroke_order_diagram--existing_path" d="M26.76,36.5c1.24,1.5,1.54,3.04,1.54,5.5c0,9.46-0.13,30.79-0.17,44.62c-0.01,2.6-0.01,4.94-0.01,6.88" id="Ske1oyhw9v" kvg:type="㇑" transform="matrix(1,0,0,1,296,-4)" xmlns:kvg="http://kanjivg.tagaini.net"></path><path class="stroke_order_diagram--existing_path" d="M38.88,26.64c1.74,0.5,4.68,0.67,6.41,0.5c13.21-1.27,33.84-4.77,46.26-5.86c2.88-0.25,4.63,0.24,6.08,0.49" id="Ske1oyhw9w" kvg:type="㇐" transform="matrix(1,0,0,1,296,-4)" xmlns:kvg="http://kanjivg.tagaini.net"></path><path class="stroke_order_diagram--current_path" d="M40.87,44c0.75,0.75,1.26,1.62,1.36,2.21c0.67,4.06,1.44,10.16,2.25,16.3c0.27,2.04,0.26,2.01,0.47,3.75" id="kvg:04f55-s4" kvg:type="㇑" transform="matrix(1,0,0,1,296,-4)" xmlns:kvg="http://kanjivg.tagaini.net"></path><path class="stroke_order_diagram--current_path" d="M40.87,44c0.75,0.75,1.26,1.62,1.36,2.21c0.67,4.06,1.44,10.16,2.25,16.3c0.27,2.04,0.26,2.01,0.47,3.75" id="Ske1oyhw9y" kvg:type="㇑" transform="matrix(1,0,0,1,296,-4)" xmlns:kvg="http://kanjivg.tagaini.net"></path><circle class="stroke_order_diagram--path_start" cx="40.87" cy="44" r="4" transform="matrix(1,0,0,1,296,-4)"></circle><line class="stroke_order_diagram--guide_line" x1="450" x2="450" y1="1" y2="99"></line><line class="stroke_order_diagram--bounding_box" x1="499" x2="499" y1="1" y2="99"></line><path class="stroke_order_diagram--existing_path" d="M32.5,13.75c0.23,2.1-0.19,3.81-0.8,5.66c-3.95,11.84-9.67,23.37-20.45,37.34" id="Ske1oyhw911" kvg:type="㇒" transform="matrix(1,0,0,1,396,-4)" xmlns:kvg="http://kanjivg.tagaini.net"></path><path class="stroke_order_diagram--existing_path" d="M26.76,36.5c1.24,1.5,1.54,3.04,1.54,5.5c0,9.46-0.13,30.79-0.17,44.62c-0.01,2.6-0.01,4.94-0.01,6.88" id="Ske1oyhw912" kvg:type="㇑" transform="matrix(1,0,0,1,396,-4)" xmlns:kvg="http://kanjivg.tagaini.net"></path><path class="stroke_order_diagram--existing_path" d="M38.88,26.64c1.74,0.5,4.68,0.67,6.41,0.5c13.21-1.27,33.84-4.77,46.26-5.86c2.88-0.25,4.63,0.24,6.08,0.49" id="Ske1oyhw913" kvg:type="㇐" transform="matrix(1,0,0,1,396,-4)" xmlns:kvg="http://kanjivg.tagaini.net"></path><path class="stroke_order_diagram--existing_path" d="M40.87,44c0.75,0.75,1.26,1.62,1.36,2.21c0.67,4.06,1.44,10.16,2.25,16.3c0.27,2.04,0.26,2.01,0.47,3.75" id="Ske1oyhw914" kvg:type="㇑" transform="matrix(1,0,0,1,396,-4)" xmlns:kvg="http://kanjivg.tagaini.net"></path><path class="stroke_order_diagram--current_path" d="M43.27,45.6c6.28-1.17,15.14-2.97,19.73-3.72c3.13-0.51,4.4,0.31,3.68,3.51c-0.86,3.86-2.49,10.33-3.28,14.14" id="kvg:04f55-s5" kvg:type="㇕b" transform="matrix(1,0,0,1,396,-4)" xmlns:kvg="http://kanjivg.tagaini.net"></path><path class="stroke_order_diagram--current_path" d="M43.27,45.6c6.28-1.17,15.14-2.97,19.73-3.72c3.13-0.51,4.4,0.31,3.68,3.51c-0.86,3.86-2.49,10.33-3.28,14.14" id="Ske1oyhw916" kvg:type="㇕b" transform="matrix(1,0,0,1,396,-4)" xmlns:kvg="http://kanjivg.tagaini.net"></path><circle class="stroke_order_diagram--path_start" cx="43.27" cy="45.6" r="4" transform="matrix(1,0,0,1,396,-4)"></circle><line class="stroke_order_diagram--guide_line" x1="550" x2="550" y1="1" y2="99"></line><line class="stroke_order_diagram--bounding_box" x1="599" x2="599" y1="1" y2="99"></line><path class="stroke_order_diagram--existing_path" d="M32.5,13.75c0.23,2.1-0.19,3.81-0.8,5.66c-3.95,11.84-9.67,23.37-20.45,37.34" id="Ske1oyhw919" kvg:type="㇒" transform="matrix(1,0,0,1,496,-4)" xmlns:kvg="http://kanjivg.tagaini.net"></path><path class="stroke_order_diagram--existing_path" d="M26.76,36.5c1.24,1.5,1.54,3.04,1.54,5.5c0,9.46-0.13,30.79-0.17,44.62c-0.01,2.6-0.01,4.94-0.01,6.88" id="Ske1oyhw91a" kvg:type="㇑" transform="matrix(1,0,0,1,496,-4)" xmlns:kvg="http://kanjivg.tagaini.net"></path><path class="stroke_order_diagram--existing_path" d="M38.88,26.64c1.74,0.5,4.68,0.67,6.41,0.5c13.21-1.27,33.84-4.77,46.26-5.86c2.88-0.25,4.63,0.24,6.08,0.49" id="Ske1oyhw91b" kvg:type="㇐" transform="matrix(1,0,0,1,496,-4)" xmlns:kvg="http://kanjivg.tagaini.net"></path><path class="stroke_order_diagram--existing_path" d="M40.87,44c0.75,0.75,1.26,1.62,1.36,2.21c0.67,4.06,1.44,10.16,2.25,16.3c0.27,2.04,0.26,2.01,0.47,3.75" id="Ske1oyhw91c" kvg:type="㇑" transform="matrix(1,0,0,1,496,-4)" xmlns:kvg="http://kanjivg.tagaini.net"></path><path class="stroke_order_diagram--existing_path" d="M43.27,45.6c6.28-1.17,15.14-2.97,19.73-3.72c3.13-0.51,4.4,0.31,3.68,3.51c-0.86,3.86-2.49,10.33-3.28,14.14" id="Ske1oyhw91d" kvg:type="㇕b" transform="matrix(1,0,0,1,496,-4)" xmlns:kvg="http://kanjivg.tagaini.net"></path><path class="stroke_order_diagram--current_path" d="M45.59,63.17c3.71-0.39,9.45-1.24,14.45-1.85c1.89-0.23,3.82-0.47,5.75-0.69" id="kvg:04f55-s6" kvg:type="㇐b" transform="matrix(1,0,0,1,496,-4)" xmlns:kvg="http://kanjivg.tagaini.net"></path><path class="stroke_order_diagram--current_path" d="M45.59,63.17c3.71-0.39,9.45-1.24,14.45-1.85c1.89-0.23,3.82-0.47,5.75-0.69" id="Ske1oyhw91f" kvg:type="㇐b" transform="matrix(1,0,0,1,496,-4)" xmlns:kvg="http://kanjivg.tagaini.net"></path><circle class="stroke_order_diagram--path_start" cx="45.59" cy="63.17" r="4" transform="matrix(1,0,0,1,496,-4)"></circle><line class="stroke_order_diagram--guide_line" x1="650" x2="650" y1="1" y2="99"></line><line class="stroke_order_diagram--bounding_box" x1="699" x2="699" y1="1" y2="99"></line><path class="stroke_order_diagram--existing_path" d="M32.5,13.75c0.23,2.1-0.19,3.81-0.8,5.66c-3.95,11.84-9.67,23.37-20.45,37.34" id="Ske1oyhw91i" kvg:type="㇒" transform="matrix(1,0,0,1,596,-4)" xmlns:kvg="http://kanjivg.tagaini.net"></path><path class="stroke_order_diagram--existing_path" d="M26.76,36.5c1.24,1.5,1.54,3.04,1.54,5.5c0,9.46-0.13,30.79-0.17,44.62c-0.01,2.6-0.01,4.94-0.01,6.88" id="Ske1oyhw91j" kvg:type="㇑" transform="matrix(1,0,0,1,596,-4)" xmlns:kvg="http://kanjivg.tagaini.net"></path><path class="stroke_order_diagram--existing_path" d="M38.88,26.64c1.74,0.5,4.68,0.67,6.41,0.5c13.21-1.27,33.84-4.77,46.26-5.86c2.88-0.25,4.63,0.24,6.08,0.49" id="Ske1oyhw91k" kvg:type="㇐" transform="matrix(1,0,0,1,596,-4)" xmlns:kvg="http://kanjivg.tagaini.net"></path><path class="stroke_order_diagram--existing_path" d="M40.87,44c0.75,0.75,1.26,1.62,1.36,2.21c0.67,4.06,1.44,10.16,2.25,16.3c0.27,2.04,0.26,2.01,0.47,3.75" id="Ske1oyhw91l" kvg:type="㇑" transform="matrix(1,0,0,1,596,-4)" xmlns:kvg="http://kanjivg.tagaini.net"></path><path class="stroke_order_diagram--existing_path" d="M43.27,45.6c6.28-1.17,15.14-2.97,19.73-3.72c3.13-0.51,4.4,0.31,3.68,3.51c-0.86,3.86-2.49,10.33-3.28,14.14" id="Ske1oyhw91m" kvg:type="㇕b" transform="matrix(1,0,0,1,596,-4)" xmlns:kvg="http://kanjivg.tagaini.net"></path><path class="stroke_order_diagram--existing_path" d="M45.59,63.17c3.71-0.39,9.45-1.24,14.45-1.85c1.89-0.23,3.82-0.47,5.75-0.69" id="Ske1oyhw91n" kvg:type="㇐b" transform="matrix(1,0,0,1,596,-4)" xmlns:kvg="http://kanjivg.tagaini.net"></path><path class="stroke_order_diagram--current_path" d="M83.25,24.75c1,1,1.74,2.18,1.81,4.99c0.33,13.52-0.21,56.44-0.21,61.04c0,10.71-6.35,2.71-9.18-0.77" id="kvg:04f55-s7" kvg:type="㇚" transform="matrix(1,0,0,1,596,-4)" xmlns:kvg="http://kanjivg.tagaini.net"></path><path class="stroke_order_diagram--current_path" d="M83.25,24.75c1,1,1.74,2.18,1.81,4.99c0.33,13.52-0.21,56.44-0.21,61.04c0,10.71-6.35,2.71-9.18-0.77" id="Ske1oyhw91p" kvg:type="㇚" transform="matrix(1,0,0,1,596,-4)" xmlns:kvg="http://kanjivg.tagaini.net"></path><circle class="stroke_order_diagram--path_start" cx="83.25" cy="24.75" r="4" transform="matrix(1,0,0,1,596,-4)"></circle></svg>