<svg class="stroke_order_diagram--svg_container_for_5186629ed5dda79658000bda" style="height: 100px; width: 1000px;" viewbox="0 0 1000 100"><desc>Created with Snap</desc><defs></defs><line class="stroke_order_diagram--bounding_box" x1="1" x2="999" y1="1" y2="1"></line><line class="stroke_order_diagram--bounding_box" x1="1" x2="1" y1="1" y2="99"></line><line class="stroke_order_diagram--bounding_box" x1="1" x2="999" y1="99" y2="99"></line><line class="stroke_order_diagram--guide_line" x1="0" x2="1000" y1="50" y2="50"></line><line class="stroke_order_diagram--guide_line" x1="50" x2="50" y1="1" y2="99"></line><line class="stroke_order_diagram--bounding_box" x1="99" x2="99" y1="1" y2="99"></line><path class="stroke_order_diagram--current_path" d="M31.49,17.39c0.13,1.2,0.24,2.71-0.12,4.19c-2.26,9.36-11.02,27.45-21.56,40.13" id="kvg:05025-s1" kvg:type="㇒" transform="matrix(1,0,0,1,-4,-4)" xmlns:kvg="http://kanjivg.tagaini.net"></path><path class="stroke_order_diagram--current_path" d="M31.49,17.39c0.13,1.2,0.24,2.71-0.12,4.19c-2.26,9.36-11.02,27.45-21.56,40.13" id="Ske2caqlkj" kvg:type="㇒" transform="matrix(1,0,0,1,-4,-4)" xmlns:kvg="http://kanjivg.tagaini.net"></path><circle class="stroke_order_diagram--path_start" cx="31.49" cy="17.39" r="4" transform="matrix(1,0,0,1,-4,-4)"></circle><line class="stroke_order_diagram--guide_line" x1="150" x2="150" y1="1" y2="99"></line><line class="stroke_order_diagram--bounding_box" x1="199" x2="199" y1="1" y2="99"></line><path class="stroke_order_diagram--existing_path" d="M31.49,17.39c0.13,1.2,0.24,2.71-0.12,4.19c-2.26,9.36-11.02,27.45-21.56,40.13" id="Ske2caqlkm" kvg:type="㇒" transform="matrix(1,0,0,1,96,-4)" xmlns:kvg="http://kanjivg.tagaini.net"></path><path class="stroke_order_diagram--current_path" d="M25.99,41c0.66,0.68,0.84,2.19,0.84,3.58c0,14.46-0.32,41.08-0.32,50.79" id="kvg:05025-s2" kvg:type="㇑" transform="matrix(1,0,0,1,96,-4)" xmlns:kvg="http://kanjivg.tagaini.net"></path><path class="stroke_order_diagram--current_path" d="M25.99,41c0.66,0.68,0.84,2.19,0.84,3.58c0,14.46-0.32,41.08-0.32,50.79" id="Ske2caqlko" kvg:type="㇑" transform="matrix(1,0,0,1,96,-4)" xmlns:kvg="http://kanjivg.tagaini.net"></path><circle class="stroke_order_diagram--path_start" cx="25.99" cy="41" r="4" transform="matrix(1,0,0,1,96,-4)"></circle><line class="stroke_order_diagram--guide_line" x1="250" x2="250" y1="1" y2="99"></line><line class="stroke_order_diagram--bounding_box" x1="299" x2="299" y1="1" y2="99"></line><path class="stroke_order_diagram--existing_path" d="M31.49,17.39c0.13,1.2,0.24,2.71-0.12,4.19c-2.26,9.36-11.02,27.45-21.56,40.13" id="Ske2caqlkr" kvg:type="㇒" transform="matrix(1,0,0,1,196,-4)" xmlns:kvg="http://kanjivg.tagaini.net"></path><path class="stroke_order_diagram--existing_path" d="M25.99,41c0.66,0.68,0.84,2.19,0.84,3.58c0,14.46-0.32,41.08-0.32,50.79" id="Ske2caqlks" kvg:type="㇑" transform="matrix(1,0,0,1,196,-4)" xmlns:kvg="http://kanjivg.tagaini.net"></path><path class="stroke_order_diagram--current_path" d="M62.54,11.75c1.02,0.37,1.98,1.82,1.95,2.89C64.42,18,64.42,24,64.41,27.06" id="kvg:05025-s3" kvg:type="㇑a" transform="matrix(1,0,0,1,196,-4)" xmlns:kvg="http://kanjivg.tagaini.net"></path><path class="stroke_order_diagram--current_path" d="M62.54,11.75c1.02,0.37,1.98,1.82,1.95,2.89C64.42,18,64.42,24,64.41,27.06" id="Ske2caqlku" kvg:type="㇑a" transform="matrix(1,0,0,1,196,-4)" xmlns:kvg="http://kanjivg.tagaini.net"></path><circle class="stroke_order_diagram--path_start" cx="62.54" cy="11.75" r="4" transform="matrix(1,0,0,1,196,-4)"></circle><line class="stroke_order_diagram--guide_line" x1="350" x2="350" y1="1" y2="99"></line><line class="stroke_order_diagram--bounding_box" x1="399" x2="399" y1="1" y2="99"></line><path class="stroke_order_diagram--existing_path" d="M31.49,17.39c0.13,1.2,0.24,2.71-0.12,4.19c-2.26,9.36-11.02,27.45-21.56,40.13" id="Ske2caqlkx" kvg:type="㇒" transform="matrix(1,0,0,1,296,-4)" xmlns:kvg="http://kanjivg.tagaini.net"></path><path class="stroke_order_diagram--existing_path" d="M25.99,41c0.66,0.68,0.84,2.19,0.84,3.58c0,14.46-0.32,41.08-0.32,50.79" id="Ske2caqlky" kvg:type="㇑" transform="matrix(1,0,0,1,296,-4)" xmlns:kvg="http://kanjivg.tagaini.net"></path><path class="stroke_order_diagram--existing_path" d="M62.54,11.75c1.02,0.37,1.98,1.82,1.95,2.89C64.42,18,64.42,24,64.41,27.06" id="Ske2caqlkz" kvg:type="㇑a" transform="matrix(1,0,0,1,296,-4)" xmlns:kvg="http://kanjivg.tagaini.net"></path><path class="stroke_order_diagram--current_path" d="M39.57,27.73c0,3.51-2.06,13.18-2.99,15.52" id="kvg:05025-s4" kvg:type="㇔" transform="matrix(1,0,0,1,296,-4)" xmlns:kvg="http://kanjivg.tagaini.net"></path><path class="stroke_order_diagram--current_path" d="M39.57,27.73c0,3.51-2.06,13.18-2.99,15.52" id="Ske2caqlk11" kvg:type="㇔" transform="matrix(1,0,0,1,296,-4)" xmlns:kvg="http://kanjivg.tagaini.net"></path><circle class="stroke_order_diagram--path_start" cx="39.57" cy="27.73" r="4" transform="matrix(1,0,0,1,296,-4)"></circle><line class="stroke_order_diagram--guide_line" x1="450" x2="450" y1="1" y2="99"></line><line class="stroke_order_diagram--bounding_box" x1="499" x2="499" y1="1" y2="99"></line><path class="stroke_order_diagram--existing_path" d="M31.49,17.39c0.13,1.2,0.24,2.71-0.12,4.19c-2.26,9.36-11.02,27.45-21.56,40.13" id="Ske2caqlk14" kvg:type="㇒" transform="matrix(1,0,0,1,396,-4)" xmlns:kvg="http://kanjivg.tagaini.net"></path><path class="stroke_order_diagram--existing_path" d="M25.99,41c0.66,0.68,0.84,2.19,0.84,3.58c0,14.46-0.32,41.08-0.32,50.79" id="Ske2caqlk15" kvg:type="㇑" transform="matrix(1,0,0,1,396,-4)" xmlns:kvg="http://kanjivg.tagaini.net"></path><path class="stroke_order_diagram--existing_path" d="M62.54,11.75c1.02,0.37,1.98,1.82,1.95,2.89C64.42,18,64.42,24,64.41,27.06" id="Ske2caqlk16" kvg:type="㇑a" transform="matrix(1,0,0,1,396,-4)" xmlns:kvg="http://kanjivg.tagaini.net"></path><path class="stroke_order_diagram--existing_path" d="M39.57,27.73c0,3.51-2.06,13.18-2.99,15.52" id="Ske2caqlk17" kvg:type="㇔" transform="matrix(1,0,0,1,396,-4)" xmlns:kvg="http://kanjivg.tagaini.net"></path><path class="stroke_order_diagram--current_path" d="M41.61,29.63c6.14-1.13,43.24-3.85,47.87-4.13c7.67-0.47,3.21,4.67-0.47,8.17" id="kvg:05025-s5" kvg:type="㇖b" transform="matrix(1,0,0,1,396,-4)" xmlns:kvg="http://kanjivg.tagaini.net"></path><path class="stroke_order_diagram--current_path" d="M41.61,29.63c6.14-1.13,43.24-3.85,47.87-4.13c7.67-0.47,3.21,4.67-0.47,8.17" id="Ske2caqlk19" kvg:type="㇖b" transform="matrix(1,0,0,1,396,-4)" xmlns:kvg="http://kanjivg.tagaini.net"></path><circle class="stroke_order_diagram--path_start" cx="41.61" cy="29.63" r="4" transform="matrix(1,0,0,1,396,-4)"></circle><line class="stroke_order_diagram--guide_line" x1="550" x2="550" y1="1" y2="99"></line><line class="stroke_order_diagram--bounding_box" x1="599" x2="599" y1="1" y2="99"></line><path class="stroke_order_diagram--existing_path" d="M31.49,17.39c0.13,1.2,0.24,2.71-0.12,4.19c-2.26,9.36-11.02,27.45-21.56,40.13" id="Ske2caqlk1c" kvg:type="㇒" transform="matrix(1,0,0,1,496,-4)" xmlns:kvg="http://kanjivg.tagaini.net"></path><path class="stroke_order_diagram--existing_path" d="M25.99,41c0.66,0.68,0.84,2.19,0.84,3.58c0,14.46-0.32,41.08-0.32,50.79" id="Ske2caqlk1d" kvg:type="㇑" transform="matrix(1,0,0,1,496,-4)" xmlns:kvg="http://kanjivg.tagaini.net"></path><path class="stroke_order_diagram--existing_path" d="M62.54,11.75c1.02,0.37,1.98,1.82,1.95,2.89C64.42,18,64.42,24,64.41,27.06" id="Ske2caqlk1e" kvg:type="㇑a" transform="matrix(1,0,0,1,496,-4)" xmlns:kvg="http://kanjivg.tagaini.net"></path><path class="stroke_order_diagram--existing_path" d="M39.57,27.73c0,3.51-2.06,13.18-2.99,15.52" id="Ske2caqlk1f" kvg:type="㇔" transform="matrix(1,0,0,1,496,-4)" xmlns:kvg="http://kanjivg.tagaini.net"></path><path class="stroke_order_diagram--existing_path" d="M41.61,29.63c6.14-1.13,43.24-3.85,47.87-4.13c7.67-0.47,3.21,4.67-0.47,8.17" id="Ske2caqlk1g" kvg:type="㇖b" transform="matrix(1,0,0,1,496,-4)" xmlns:kvg="http://kanjivg.tagaini.net"></path><path class="stroke_order_diagram--current_path" d="M56.02,36.25c0.07,0.5,0.08,1.29-0.15,2.03c-2,6.48-4.57,11.44-13.12,17.72" id="kvg:05025-s6" kvg:type="㇒" transform="matrix(1,0,0,1,496,-4)" xmlns:kvg="http://kanjivg.tagaini.net"></path><path class="stroke_order_diagram--current_path" d="M56.02,36.25c0.07,0.5,0.08,1.29-0.15,2.03c-2,6.48-4.57,11.44-13.12,17.72" id="Ske2caqlk1i" kvg:type="㇒" transform="matrix(1,0,0,1,496,-4)" xmlns:kvg="http://kanjivg.tagaini.net"></path><circle class="stroke_order_diagram--path_start" cx="56.02" cy="36.25" r="4" transform="matrix(1,0,0,1,496,-4)"></circle><line class="stroke_order_diagram--guide_line" x1="650" x2="650" y1="1" y2="99"></line><line class="stroke_order_diagram--bounding_box" x1="699" x2="699" y1="1" y2="99"></line><path class="stroke_order_diagram--existing_path" d="M31.49,17.39c0.13,1.2,0.24,2.71-0.12,4.19c-2.26,9.36-11.02,27.45-21.56,40.13" id="Ske2caqlk1l" kvg:type="㇒" transform="matrix(1,0,0,1,596,-4)" xmlns:kvg="http://kanjivg.tagaini.net"></path><path class="stroke_order_diagram--existing_path" d="M25.99,41c0.66,0.68,0.84,2.19,0.84,3.58c0,14.46-0.32,41.08-0.32,50.79" id="Ske2caqlk1m" kvg:type="㇑" transform="matrix(1,0,0,1,596,-4)" xmlns:kvg="http://kanjivg.tagaini.net"></path><path class="stroke_order_diagram--existing_path" d="M62.54,11.75c1.02,0.37,1.98,1.82,1.95,2.89C64.42,18,64.42,24,64.41,27.06" id="Ske2caqlk1n" kvg:type="㇑a" transform="matrix(1,0,0,1,596,-4)" xmlns:kvg="http://kanjivg.tagaini.net"></path><path class="stroke_order_diagram--existing_path" d="M39.57,27.73c0,3.51-2.06,13.18-2.99,15.52" id="Ske2caqlk1o" kvg:type="㇔" transform="matrix(1,0,0,1,596,-4)" xmlns:kvg="http://kanjivg.tagaini.net"></path><path class="stroke_order_diagram--existing_path" d="M41.61,29.63c6.14-1.13,43.24-3.85,47.87-4.13c7.67-0.47,3.21,4.67-0.47,8.17" id="Ske2caqlk1p" kvg:type="㇖b" transform="matrix(1,0,0,1,596,-4)" xmlns:kvg="http://kanjivg.tagaini.net"></path><path class="stroke_order_diagram--existing_path" d="M56.02,36.25c0.07,0.5,0.08,1.29-0.15,2.03c-2,6.48-4.57,11.44-13.12,17.72" id="Ske2caqlk1q" kvg:type="㇒" transform="matrix(1,0,0,1,596,-4)" xmlns:kvg="http://kanjivg.tagaini.net"></path><path class="stroke_order_diagram--current_path" d="M70.01,32.72c1.02,0.88,1.83,1.92,1.89,3.28c0.12,2.8-0.04,5.46,0.04,7.73c0.21,5.97,0.98,7.25,9.33,6.89c4.02-0.17,8.49-0.91,10.48-1.4" id="kvg:05025-s7" kvg:type="㇟a/㇏" transform="matrix(1,0,0,1,596,-4)" xmlns:kvg="http://kanjivg.tagaini.net"></path><path class="stroke_order_diagram--current_path" d="M70.01,32.72c1.02,0.88,1.83,1.92,1.89,3.28c0.12,2.8-0.04,5.46,0.04,7.73c0.21,5.97,0.98,7.25,9.33,6.89c4.02-0.17,8.49-0.91,10.48-1.4" id="Ske2caqlk1s" kvg:type="㇟a/㇏" transform="matrix(1,0,0,1,596,-4)" xmlns:kvg="http://kanjivg.tagaini.net"></path><circle class="stroke_order_diagram--path_start" cx="70.01" cy="32.72" r="4" transform="matrix(1,0,0,1,596,-4)"></circle><line class="stroke_order_diagram--guide_line" x1="750" x2="750" y1="1" y2="99"></line><line class="stroke_order_diagram--bounding_box" x1="799" x2="799" y1="1" y2="99"></line><path class="stroke_order_diagram--existing_path" d="M31.49,17.39c0.13,1.2,0.24,2.71-0.12,4.19c-2.26,9.36-11.02,27.45-21.56,40.13" id="Ske2caqlk1v" kvg:type="㇒" transform="matrix(1,0,0,1,696,-4)" xmlns:kvg="http://kanjivg.tagaini.net"></path><path class="stroke_order_diagram--existing_path" d="M25.99,41c0.66,0.68,0.84,2.19,0.84,3.58c0,14.46-0.32,41.08-0.32,50.79" id="Ske2caqlk1w" kvg:type="㇑" transform="matrix(1,0,0,1,696,-4)" xmlns:kvg="http://kanjivg.tagaini.net"></path><path class="stroke_order_diagram--existing_path" d="M62.54,11.75c1.02,0.37,1.98,1.82,1.95,2.89C64.42,18,64.42,24,64.41,27.06" id="Ske2caqlk1x" kvg:type="㇑a" transform="matrix(1,0,0,1,696,-4)" xmlns:kvg="http://kanjivg.tagaini.net"></path><path class="stroke_order_diagram--existing_path" d="M39.57,27.73c0,3.51-2.06,13.18-2.99,15.52" id="Ske2caqlk1y" kvg:type="㇔" transform="matrix(1,0,0,1,696,-4)" xmlns:kvg="http://kanjivg.tagaini.net"></path><path class="stroke_order_diagram--existing_path" d="M41.61,29.63c6.14-1.13,43.24-3.85,47.87-4.13c7.67-0.47,3.21,4.67-0.47,8.17" id="Ske2caqlk1z" kvg:type="㇖b" transform="matrix(1,0,0,1,696,-4)" xmlns:kvg="http://kanjivg.tagaini.net"></path><path class="stroke_order_diagram--existing_path" d="M56.02,36.25c0.07,0.5,0.08,1.29-0.15,2.03c-2,6.48-4.57,11.44-13.12,17.72" id="Ske2caqlk20" kvg:type="㇒" transform="matrix(1,0,0,1,696,-4)" xmlns:kvg="http://kanjivg.tagaini.net"></path><path class="stroke_order_diagram--existing_path" d="M70.01,32.72c1.02,0.88,1.83,1.92,1.89,3.28c0.12,2.8-0.04,5.46,0.04,7.73c0.21,5.97,0.98,7.25,9.33,6.89c4.02-0.17,8.49-0.91,10.48-1.4" id="Ske2caqlk21" kvg:type="㇟a/㇏" transform="matrix(1,0,0,1,696,-4)" xmlns:kvg="http://kanjivg.tagaini.net"></path><path class="stroke_order_diagram--current_path" d="M46.67,64.05c0.85,0.46,2.68,0.56,3.55,0.47c7.79-0.88,20.13-2.62,29.77-3.32c1.31-0.09,2.5,0.09,3.58,0.47" id="kvg:05025-s8" kvg:type="㇐" transform="matrix(1,0,0,1,696,-4)" xmlns:kvg="http://kanjivg.tagaini.net"></path><path class="stroke_order_diagram--current_path" d="M46.67,64.05c0.85,0.46,2.68,0.56,3.55,0.47c7.79-0.88,20.13-2.62,29.77-3.32c1.31-0.09,2.5,0.09,3.58,0.47" id="Ske2caqlk23" kvg:type="㇐" transform="matrix(1,0,0,1,696,-4)" xmlns:kvg="http://kanjivg.tagaini.net"></path><circle class="stroke_order_diagram--path_start" cx="46.67" cy="64.05" r="4" transform="matrix(1,0,0,1,696,-4)"></circle><line class="stroke_order_diagram--guide_line" x1="850" x2="850" y1="1" y2="99"></line><line class="stroke_order_diagram--bounding_box" x1="899" x2="899" y1="1" y2="99"></line><path class="stroke_order_diagram--existing_path" d="M31.49,17.39c0.13,1.2,0.24,2.71-0.12,4.19c-2.26,9.36-11.02,27.45-21.56,40.13" id="Ske2caqlk26" kvg:type="㇒" transform="matrix(1,0,0,1,796,-4)" xmlns:kvg="http://kanjivg.tagaini.net"></path><path class="stroke_order_diagram--existing_path" d="M25.99,41c0.66,0.68,0.84,2.19,0.84,3.58c0,14.46-0.32,41.08-0.32,50.79" id="Ske2caqlk27" kvg:type="㇑" transform="matrix(1,0,0,1,796,-4)" xmlns:kvg="http://kanjivg.tagaini.net"></path><path class="stroke_order_diagram--existing_path" d="M62.54,11.75c1.02,0.37,1.98,1.82,1.95,2.89C64.42,18,64.42,24,64.41,27.06" id="Ske2caqlk28" kvg:type="㇑a" transform="matrix(1,0,0,1,796,-4)" xmlns:kvg="http://kanjivg.tagaini.net"></path><path class="stroke_order_diagram--existing_path" d="M39.57,27.73c0,3.51-2.06,13.18-2.99,15.52" id="Ske2caqlk29" kvg:type="㇔" transform="matrix(1,0,0,1,796,-4)" xmlns:kvg="http://kanjivg.tagaini.net"></path><path class="stroke_order_diagram--existing_path" d="M41.61,29.63c6.14-1.13,43.24-3.85,47.87-4.13c7.67-0.47,3.21,4.67-0.47,8.17" id="Ske2caqlk2a" kvg:type="㇖b" transform="matrix(1,0,0,1,796,-4)" xmlns:kvg="http://kanjivg.tagaini.net"></path><path class="stroke_order_diagram--existing_path" d="M56.02,36.25c0.07,0.5,0.08,1.29-0.15,2.03c-2,6.48-4.57,11.44-13.12,17.72" id="Ske2caqlk2b" kvg:type="㇒" transform="matrix(1,0,0,1,796,-4)" xmlns:kvg="http://kanjivg.tagaini.net"></path><path class="stroke_order_diagram--existing_path" d="M70.01,32.72c1.02,0.88,1.83,1.92,1.89,3.28c0.12,2.8-0.04,5.46,0.04,7.73c0.21,5.97,0.98,7.25,9.33,6.89c4.02-0.17,8.49-0.91,10.48-1.4" id="Ske2caqlk2c" kvg:type="㇟a/㇏" transform="matrix(1,0,0,1,796,-4)" xmlns:kvg="http://kanjivg.tagaini.net"></path><path class="stroke_order_diagram--existing_path" d="M46.67,64.05c0.85,0.46,2.68,0.56,3.55,0.47c7.79-0.88,20.13-2.62,29.77-3.32c1.31-0.09,2.5,0.09,3.58,0.47" id="Ske2caqlk2d" kvg:type="㇐" transform="matrix(1,0,0,1,796,-4)" xmlns:kvg="http://kanjivg.tagaini.net"></path><path class="stroke_order_diagram--current_path" d="M64.08,64.45c0.96,1.25,0.96,2,0.96,3c0,7,0.15,15.3,0.15,23.3" id="kvg:05025-s9" kvg:type="㇑a" transform="matrix(1,0,0,1,796,-4)" xmlns:kvg="http://kanjivg.tagaini.net"></path><path class="stroke_order_diagram--current_path" d="M64.08,64.45c0.96,1.25,0.96,2,0.96,3c0,7,0.15,15.3,0.15,23.3" id="Ske2caqlk2f" kvg:type="㇑a" transform="matrix(1,0,0,1,796,-4)" xmlns:kvg="http://kanjivg.tagaini.net"></path><circle class="stroke_order_diagram--path_start" cx="64.08" cy="64.45" r="4" transform="matrix(1,0,0,1,796,-4)"></circle><line class="stroke_order_diagram--guide_line" x1="950" x2="950" y1="1" y2="99"></line><line class="stroke_order_diagram--bounding_box" x1="999" x2="999" y1="1" y2="99"></line><path class="stroke_order_diagram--existing_path" d="M31.49,17.39c0.13,1.2,0.24,2.71-0.12,4.19c-2.26,9.36-11.02,27.45-21.56,40.13" id="Ske2caqlk2i" kvg:type="㇒" transform="matrix(1,0,0,1,896,-4)" xmlns:kvg="http://kanjivg.tagaini.net"></path><path class="stroke_order_diagram--existing_path" d="M25.99,41c0.66,0.68,0.84,2.19,0.84,3.58c0,14.46-0.32,41.08-0.32,50.79" id="Ske2caqlk2j" kvg:type="㇑" transform="matrix(1,0,0,1,896,-4)" xmlns:kvg="http://kanjivg.tagaini.net"></path><path class="stroke_order_diagram--existing_path" d="M62.54,11.75c1.02,0.37,1.98,1.82,1.95,2.89C64.42,18,64.42,24,64.41,27.06" id="Ske2caqlk2k" kvg:type="㇑a" transform="matrix(1,0,0,1,896,-4)" xmlns:kvg="http://kanjivg.tagaini.net"></path><path class="stroke_order_diagram--existing_path" d="M39.57,27.73c0,3.51-2.06,13.18-2.99,15.52" id="Ske2caqlk2l" kvg:type="㇔" transform="matrix(1,0,0,1,896,-4)" xmlns:kvg="http://kanjivg.tagaini.net"></path><path class="stroke_order_diagram--existing_path" d="M41.61,29.63c6.14-1.13,43.24-3.85,47.87-4.13c7.67-0.47,3.21,4.67-0.47,8.17" id="Ske2caqlk2m" kvg:type="㇖b" transform="matrix(1,0,0,1,896,-4)" xmlns:kvg="http://kanjivg.tagaini.net"></path><path class="stroke_order_diagram--existing_path" d="M56.02,36.25c0.07,0.5,0.08,1.29-0.15,2.03c-2,6.48-4.57,11.44-13.12,17.72" id="Ske2caqlk2n" kvg:type="㇒" transform="matrix(1,0,0,1,896,-4)" xmlns:kvg="http://kanjivg.tagaini.net"></path><path class="stroke_order_diagram--existing_path" d="M70.01,32.72c1.02,0.88,1.83,1.92,1.89,3.28c0.12,2.8-0.04,5.46,0.04,7.73c0.21,5.97,0.98,7.25,9.33,6.89c4.02-0.17,8.49-0.91,10.48-1.4" id="Ske2caqlk2o" kvg:type="㇟a/㇏" transform="matrix(1,0,0,1,896,-4)" xmlns:kvg="http://kanjivg.tagaini.net"></path><path class="stroke_order_diagram--existing_path" d="M46.67,64.05c0.85,0.46,2.68,0.56,3.55,0.47c7.79-0.88,20.13-2.62,29.77-3.32c1.31-0.09,2.5,0.09,3.58,0.47" id="Ske2caqlk2p" kvg:type="㇐" transform="matrix(1,0,0,1,896,-4)" xmlns:kvg="http://kanjivg.tagaini.net"></path><path class="stroke_order_diagram--existing_path" d="M64.08,64.45c0.96,1.25,0.96,2,0.96,3c0,7,0.15,15.3,0.15,23.3" id="Ske2caqlk2q" kvg:type="㇑a" transform="matrix(1,0,0,1,896,-4)" xmlns:kvg="http://kanjivg.tagaini.net"></path><path class="stroke_order_diagram--current_path" d="M36.75,92.2c0.84,0.23,5.25,0.43,6.67,0.36c11.04-0.57,30.68-2.52,47.44-3.04c2.27-0.07,5,0.38,6.14,0.73" id="kvg:05025-s10" kvg:type="㇐" transform="matrix(1,0,0,1,896,-4)" xmlns:kvg="http://kanjivg.tagaini.net"></path><path class="stroke_order_diagram--current_path" d="M36.75,92.2c0.84,0.23,5.25,0.43,6.67,0.36c11.04-0.57,30.68-2.52,47.44-3.04c2.27-0.07,5,0.38,6.14,0.73" id="Ske2caqlk2s" kvg:type="㇐" transform="matrix(1,0,0,1,896,-4)" xmlns:kvg="http://kanjivg.tagaini.net"></path><circle class="stroke_order_diagram--path_start" cx="36.75" cy="92.2" r="4" transform="matrix(1,0,0,1,896,-4)"></circle></svg>