<svg class="stroke_order_diagram--svg_container_for_5186629ed5dda79658000bea" style="height: 100px; width: 1100px;" viewbox="0 0 1100 100"><desc>Created with Snap</desc><defs></defs><line class="stroke_order_diagram--bounding_box" x1="1" x2="1099" y1="1" y2="1"></line><line class="stroke_order_diagram--bounding_box" x1="1" x2="1" y1="1" y2="99"></line><line class="stroke_order_diagram--bounding_box" x1="1" x2="1099" y1="99" y2="99"></line><line class="stroke_order_diagram--guide_line" x1="0" x2="1100" y1="50" y2="50"></line><line class="stroke_order_diagram--guide_line" x1="50" x2="50" y1="1" y2="99"></line><line class="stroke_order_diagram--bounding_box" x1="99" x2="99" y1="1" y2="99"></line><path class="stroke_order_diagram--current_path" d="M32.93,13.5c0.14,1.22,0.24,2.76-0.12,4.27C30.52,27.28,21.67,45.68,11,58.57" id="kvg:05048-s1" kvg:type="㇒" transform="matrix(1,0,0,1,-4,-4)" xmlns:kvg="http://kanjivg.tagaini.net"></path><path class="stroke_order_diagram--current_path" d="M32.93,13.5c0.14,1.22,0.24,2.76-0.12,4.27C30.52,27.28,21.67,45.68,11,58.57" id="Ske2cf5tik" kvg:type="㇒" transform="matrix(1,0,0,1,-4,-4)" xmlns:kvg="http://kanjivg.tagaini.net"></path><circle class="stroke_order_diagram--path_start" cx="32.93" cy="13.5" r="4" transform="matrix(1,0,0,1,-4,-4)"></circle><line class="stroke_order_diagram--guide_line" x1="150" x2="150" y1="1" y2="99"></line><line class="stroke_order_diagram--bounding_box" x1="199" x2="199" y1="1" y2="99"></line><path class="stroke_order_diagram--existing_path" d="M32.93,13.5c0.14,1.22,0.24,2.76-0.12,4.27C30.52,27.28,21.67,45.68,11,58.57" id="Ske2cf5tin" kvg:type="㇒" transform="matrix(1,0,0,1,96,-4)" xmlns:kvg="http://kanjivg.tagaini.net"></path><path class="stroke_order_diagram--current_path" d="M22.98,44.61c0.59,0.61,0.76,1.97,0.76,3.23c0,13.02-0.29,38.15-0.29,46.9" id="kvg:05048-s2" kvg:type="㇑" transform="matrix(1,0,0,1,96,-4)" xmlns:kvg="http://kanjivg.tagaini.net"></path><path class="stroke_order_diagram--current_path" d="M22.98,44.61c0.59,0.61,0.76,1.97,0.76,3.23c0,13.02-0.29,38.15-0.29,46.9" id="Ske2cf5tip" kvg:type="㇑" transform="matrix(1,0,0,1,96,-4)" xmlns:kvg="http://kanjivg.tagaini.net"></path><circle class="stroke_order_diagram--path_start" cx="22.98" cy="44.61" r="4" transform="matrix(1,0,0,1,96,-4)"></circle><line class="stroke_order_diagram--guide_line" x1="250" x2="250" y1="1" y2="99"></line><line class="stroke_order_diagram--bounding_box" x1="299" x2="299" y1="1" y2="99"></line><path class="stroke_order_diagram--existing_path" d="M32.93,13.5c0.14,1.22,0.24,2.76-0.12,4.27C30.52,27.28,21.67,45.68,11,58.57" id="Ske2cf5tis" kvg:type="㇒" transform="matrix(1,0,0,1,196,-4)" xmlns:kvg="http://kanjivg.tagaini.net"></path><path class="stroke_order_diagram--existing_path" d="M22.98,44.61c0.59,0.61,0.76,1.97,0.76,3.23c0,13.02-0.29,38.15-0.29,46.9" id="Ske2cf5tit" kvg:type="㇑" transform="matrix(1,0,0,1,196,-4)" xmlns:kvg="http://kanjivg.tagaini.net"></path><path class="stroke_order_diagram--current_path" d="M44.79,13.14c0.3,0.52,0.31,0.89,0.48,1.55c1.37,5.43,2.85,19.64,3.7,29.77" id="kvg:05048-s3" kvg:type="㇑" transform="matrix(1,0,0,1,196,-4)" xmlns:kvg="http://kanjivg.tagaini.net"></path><path class="stroke_order_diagram--current_path" d="M44.79,13.14c0.3,0.52,0.31,0.89,0.48,1.55c1.37,5.43,2.85,19.64,3.7,29.77" id="Ske2cf5tiv" kvg:type="㇑" transform="matrix(1,0,0,1,196,-4)" xmlns:kvg="http://kanjivg.tagaini.net"></path><circle class="stroke_order_diagram--path_start" cx="44.79" cy="13.14" r="4" transform="matrix(1,0,0,1,196,-4)"></circle><line class="stroke_order_diagram--guide_line" x1="350" x2="350" y1="1" y2="99"></line><line class="stroke_order_diagram--bounding_box" x1="399" x2="399" y1="1" y2="99"></line><path class="stroke_order_diagram--existing_path" d="M32.93,13.5c0.14,1.22,0.24,2.76-0.12,4.27C30.52,27.28,21.67,45.68,11,58.57" id="Ske2cf5tiy" kvg:type="㇒" transform="matrix(1,0,0,1,296,-4)" xmlns:kvg="http://kanjivg.tagaini.net"></path><path class="stroke_order_diagram--existing_path" d="M22.98,44.61c0.59,0.61,0.76,1.97,0.76,3.23c0,13.02-0.29,38.15-0.29,46.9" id="Ske2cf5tiz" kvg:type="㇑" transform="matrix(1,0,0,1,296,-4)" xmlns:kvg="http://kanjivg.tagaini.net"></path><path class="stroke_order_diagram--existing_path" d="M44.79,13.14c0.3,0.52,0.31,0.89,0.48,1.55c1.37,5.43,2.85,19.64,3.7,29.77" id="Ske2cf5ti10" kvg:type="㇑" transform="matrix(1,0,0,1,296,-4)" xmlns:kvg="http://kanjivg.tagaini.net"></path><path class="stroke_order_diagram--current_path" d="M45.77,15.44c9.38-1.16,26.83-3.4,35.51-4.15c2.58-0.22,3.1,2.05,2.96,3.32c-0.48,4.65-3.58,20.47-4.75,28.24" id="kvg:05048-s4" kvg:type="㇕a" transform="matrix(1,0,0,1,296,-4)" xmlns:kvg="http://kanjivg.tagaini.net"></path><path class="stroke_order_diagram--current_path" d="M45.77,15.44c9.38-1.16,26.83-3.4,35.51-4.15c2.58-0.22,3.1,2.05,2.96,3.32c-0.48,4.65-3.58,20.47-4.75,28.24" id="Ske2cf5ti12" kvg:type="㇕a" transform="matrix(1,0,0,1,296,-4)" xmlns:kvg="http://kanjivg.tagaini.net"></path><circle class="stroke_order_diagram--path_start" cx="45.77" cy="15.44" r="4" transform="matrix(1,0,0,1,296,-4)"></circle><line class="stroke_order_diagram--guide_line" x1="450" x2="450" y1="1" y2="99"></line><line class="stroke_order_diagram--bounding_box" x1="499" x2="499" y1="1" y2="99"></line><path class="stroke_order_diagram--existing_path" d="M32.93,13.5c0.14,1.22,0.24,2.76-0.12,4.27C30.52,27.28,21.67,45.68,11,58.57" id="Ske2cf5ti15" kvg:type="㇒" transform="matrix(1,0,0,1,396,-4)" xmlns:kvg="http://kanjivg.tagaini.net"></path><path class="stroke_order_diagram--existing_path" d="M22.98,44.61c0.59,0.61,0.76,1.97,0.76,3.23c0,13.02-0.29,38.15-0.29,46.9" id="Ske2cf5ti16" kvg:type="㇑" transform="matrix(1,0,0,1,396,-4)" xmlns:kvg="http://kanjivg.tagaini.net"></path><path class="stroke_order_diagram--existing_path" d="M44.79,13.14c0.3,0.52,0.31,0.89,0.48,1.55c1.37,5.43,2.85,19.64,3.7,29.77" id="Ske2cf5ti17" kvg:type="㇑" transform="matrix(1,0,0,1,396,-4)" xmlns:kvg="http://kanjivg.tagaini.net"></path><path class="stroke_order_diagram--existing_path" d="M45.77,15.44c9.38-1.16,26.83-3.4,35.51-4.15c2.58-0.22,3.1,2.05,2.96,3.32c-0.48,4.65-3.58,20.47-4.75,28.24" id="Ske2cf5ti18" kvg:type="㇕a" transform="matrix(1,0,0,1,396,-4)" xmlns:kvg="http://kanjivg.tagaini.net"></path><path class="stroke_order_diagram--current_path" d="M47.73,28.3c5.38-0.41,31.37-2.78,34.09-2.9" id="kvg:05048-s5" kvg:type="㇐a" transform="matrix(1,0,0,1,396,-4)" xmlns:kvg="http://kanjivg.tagaini.net"></path><path class="stroke_order_diagram--current_path" d="M47.73,28.3c5.38-0.41,31.37-2.78,34.09-2.9" id="Ske2cf5ti1a" kvg:type="㇐a" transform="matrix(1,0,0,1,396,-4)" xmlns:kvg="http://kanjivg.tagaini.net"></path><circle class="stroke_order_diagram--path_start" cx="47.73" cy="28.3" r="4" transform="matrix(1,0,0,1,396,-4)"></circle><line class="stroke_order_diagram--guide_line" x1="550" x2="550" y1="1" y2="99"></line><line class="stroke_order_diagram--bounding_box" x1="599" x2="599" y1="1" y2="99"></line><path class="stroke_order_diagram--existing_path" d="M32.93,13.5c0.14,1.22,0.24,2.76-0.12,4.27C30.52,27.28,21.67,45.68,11,58.57" id="Ske2cf5ti1d" kvg:type="㇒" transform="matrix(1,0,0,1,496,-4)" xmlns:kvg="http://kanjivg.tagaini.net"></path><path class="stroke_order_diagram--existing_path" d="M22.98,44.61c0.59,0.61,0.76,1.97,0.76,3.23c0,13.02-0.29,38.15-0.29,46.9" id="Ske2cf5ti1e" kvg:type="㇑" transform="matrix(1,0,0,1,496,-4)" xmlns:kvg="http://kanjivg.tagaini.net"></path><path class="stroke_order_diagram--existing_path" d="M44.79,13.14c0.3,0.52,0.31,0.89,0.48,1.55c1.37,5.43,2.85,19.64,3.7,29.77" id="Ske2cf5ti1f" kvg:type="㇑" transform="matrix(1,0,0,1,496,-4)" xmlns:kvg="http://kanjivg.tagaini.net"></path><path class="stroke_order_diagram--existing_path" d="M45.77,15.44c9.38-1.16,26.83-3.4,35.51-4.15c2.58-0.22,3.1,2.05,2.96,3.32c-0.48,4.65-3.58,20.47-4.75,28.24" id="Ske2cf5ti1g" kvg:type="㇕a" transform="matrix(1,0,0,1,496,-4)" xmlns:kvg="http://kanjivg.tagaini.net"></path><path class="stroke_order_diagram--existing_path" d="M47.73,28.3c5.38-0.41,31.37-2.78,34.09-2.9" id="Ske2cf5ti1h" kvg:type="㇐a" transform="matrix(1,0,0,1,496,-4)" xmlns:kvg="http://kanjivg.tagaini.net"></path><path class="stroke_order_diagram--current_path" d="M49.02,41.86c9.57-0.53,21.25-1.62,30.86-1.86" id="kvg:05048-s6" kvg:type="㇐a" transform="matrix(1,0,0,1,496,-4)" xmlns:kvg="http://kanjivg.tagaini.net"></path><path class="stroke_order_diagram--current_path" d="M49.02,41.86c9.57-0.53,21.25-1.62,30.86-1.86" id="Ske2cf5ti1j" kvg:type="㇐a" transform="matrix(1,0,0,1,496,-4)" xmlns:kvg="http://kanjivg.tagaini.net"></path><circle class="stroke_order_diagram--path_start" cx="49.02" cy="41.86" r="4" transform="matrix(1,0,0,1,496,-4)"></circle><line class="stroke_order_diagram--guide_line" x1="650" x2="650" y1="1" y2="99"></line><line class="stroke_order_diagram--bounding_box" x1="699" x2="699" y1="1" y2="99"></line><path class="stroke_order_diagram--existing_path" d="M32.93,13.5c0.14,1.22,0.24,2.76-0.12,4.27C30.52,27.28,21.67,45.68,11,58.57" id="Ske2cf5ti1m" kvg:type="㇒" transform="matrix(1,0,0,1,596,-4)" xmlns:kvg="http://kanjivg.tagaini.net"></path><path class="stroke_order_diagram--existing_path" d="M22.98,44.61c0.59,0.61,0.76,1.97,0.76,3.23c0,13.02-0.29,38.15-0.29,46.9" id="Ske2cf5ti1n" kvg:type="㇑" transform="matrix(1,0,0,1,596,-4)" xmlns:kvg="http://kanjivg.tagaini.net"></path><path class="stroke_order_diagram--existing_path" d="M44.79,13.14c0.3,0.52,0.31,0.89,0.48,1.55c1.37,5.43,2.85,19.64,3.7,29.77" id="Ske2cf5ti1o" kvg:type="㇑" transform="matrix(1,0,0,1,596,-4)" xmlns:kvg="http://kanjivg.tagaini.net"></path><path class="stroke_order_diagram--existing_path" d="M45.77,15.44c9.38-1.16,26.83-3.4,35.51-4.15c2.58-0.22,3.1,2.05,2.96,3.32c-0.48,4.65-3.58,20.47-4.75,28.24" id="Ske2cf5ti1p" kvg:type="㇕a" transform="matrix(1,0,0,1,596,-4)" xmlns:kvg="http://kanjivg.tagaini.net"></path><path class="stroke_order_diagram--existing_path" d="M47.73,28.3c5.38-0.41,31.37-2.78,34.09-2.9" id="Ske2cf5ti1q" kvg:type="㇐a" transform="matrix(1,0,0,1,596,-4)" xmlns:kvg="http://kanjivg.tagaini.net"></path><path class="stroke_order_diagram--existing_path" d="M49.02,41.86c9.57-0.53,21.25-1.62,30.86-1.86" id="Ske2cf5ti1r" kvg:type="㇐a" transform="matrix(1,0,0,1,596,-4)" xmlns:kvg="http://kanjivg.tagaini.net"></path><path class="stroke_order_diagram--current_path" d="M51.8,46.73c0.06,0.53,0.27,1.39-0.11,2.11C48.8,54.22,42.24,62.11,31.25,69" id="kvg:05048-s7" kvg:type="㇒" transform="matrix(1,0,0,1,596,-4)" xmlns:kvg="http://kanjivg.tagaini.net"></path><path class="stroke_order_diagram--current_path" d="M51.8,46.73c0.06,0.53,0.27,1.39-0.11,2.11C48.8,54.22,42.24,62.11,31.25,69" id="Ske2cf5ti1t" kvg:type="㇒" transform="matrix(1,0,0,1,596,-4)" xmlns:kvg="http://kanjivg.tagaini.net"></path><circle class="stroke_order_diagram--path_start" cx="51.8" cy="46.73" r="4" transform="matrix(1,0,0,1,596,-4)"></circle><line class="stroke_order_diagram--guide_line" x1="750" x2="750" y1="1" y2="99"></line><line class="stroke_order_diagram--bounding_box" x1="799" x2="799" y1="1" y2="99"></line><path class="stroke_order_diagram--existing_path" d="M32.93,13.5c0.14,1.22,0.24,2.76-0.12,4.27C30.52,27.28,21.67,45.68,11,58.57" id="Ske2cf5ti1w" kvg:type="㇒" transform="matrix(1,0,0,1,696,-4)" xmlns:kvg="http://kanjivg.tagaini.net"></path><path class="stroke_order_diagram--existing_path" d="M22.98,44.61c0.59,0.61,0.76,1.97,0.76,3.23c0,13.02-0.29,38.15-0.29,46.9" id="Ske2cf5ti1x" kvg:type="㇑" transform="matrix(1,0,0,1,696,-4)" xmlns:kvg="http://kanjivg.tagaini.net"></path><path class="stroke_order_diagram--existing_path" d="M44.79,13.14c0.3,0.52,0.31,0.89,0.48,1.55c1.37,5.43,2.85,19.64,3.7,29.77" id="Ske2cf5ti1y" kvg:type="㇑" transform="matrix(1,0,0,1,696,-4)" xmlns:kvg="http://kanjivg.tagaini.net"></path><path class="stroke_order_diagram--existing_path" d="M45.77,15.44c9.38-1.16,26.83-3.4,35.51-4.15c2.58-0.22,3.1,2.05,2.96,3.32c-0.48,4.65-3.58,20.47-4.75,28.24" id="Ske2cf5ti1z" kvg:type="㇕a" transform="matrix(1,0,0,1,696,-4)" xmlns:kvg="http://kanjivg.tagaini.net"></path><path class="stroke_order_diagram--existing_path" d="M47.73,28.3c5.38-0.41,31.37-2.78,34.09-2.9" id="Ske2cf5ti20" kvg:type="㇐a" transform="matrix(1,0,0,1,696,-4)" xmlns:kvg="http://kanjivg.tagaini.net"></path><path class="stroke_order_diagram--existing_path" d="M49.02,41.86c9.57-0.53,21.25-1.62,30.86-1.86" id="Ske2cf5ti21" kvg:type="㇐a" transform="matrix(1,0,0,1,696,-4)" xmlns:kvg="http://kanjivg.tagaini.net"></path><path class="stroke_order_diagram--existing_path" d="M51.8,46.73c0.06,0.53,0.27,1.39-0.11,2.11C48.8,54.22,42.24,62.11,31.25,69" id="Ske2cf5ti22" kvg:type="㇒" transform="matrix(1,0,0,1,696,-4)" xmlns:kvg="http://kanjivg.tagaini.net"></path><path class="stroke_order_diagram--current_path" d="M51.73,56.15c1.04,0.5,2.49,0.67,4.14,0.33c1.66-0.33,30.86-3.59,34.99-3.99c2.56-0.25,4.35,1.32,3.91,4.84c-1.52,12.16-5.1,25.39-11.71,36.76c-2.56,4.4-4.81,4.15-7.52-0.83" id="kvg:05048-s8" kvg:type="㇆" transform="matrix(1,0,0,1,696,-4)" xmlns:kvg="http://kanjivg.tagaini.net"></path><path class="stroke_order_diagram--current_path" d="M51.73,56.15c1.04,0.5,2.49,0.67,4.14,0.33c1.66-0.33,30.86-3.59,34.99-3.99c2.56-0.25,4.35,1.32,3.91,4.84c-1.52,12.16-5.1,25.39-11.71,36.76c-2.56,4.4-4.81,4.15-7.52-0.83" id="Ske2cf5ti24" kvg:type="㇆" transform="matrix(1,0,0,1,696,-4)" xmlns:kvg="http://kanjivg.tagaini.net"></path><circle class="stroke_order_diagram--path_start" cx="51.73" cy="56.15" r="4" transform="matrix(1,0,0,1,696,-4)"></circle><line class="stroke_order_diagram--guide_line" x1="850" x2="850" y1="1" y2="99"></line><line class="stroke_order_diagram--bounding_box" x1="899" x2="899" y1="1" y2="99"></line><path class="stroke_order_diagram--existing_path" d="M32.93,13.5c0.14,1.22,0.24,2.76-0.12,4.27C30.52,27.28,21.67,45.68,11,58.57" id="Ske2cf5ti27" kvg:type="㇒" transform="matrix(1,0,0,1,796,-4)" xmlns:kvg="http://kanjivg.tagaini.net"></path><path class="stroke_order_diagram--existing_path" d="M22.98,44.61c0.59,0.61,0.76,1.97,0.76,3.23c0,13.02-0.29,38.15-0.29,46.9" id="Ske2cf5ti28" kvg:type="㇑" transform="matrix(1,0,0,1,796,-4)" xmlns:kvg="http://kanjivg.tagaini.net"></path><path class="stroke_order_diagram--existing_path" d="M44.79,13.14c0.3,0.52,0.31,0.89,0.48,1.55c1.37,5.43,2.85,19.64,3.7,29.77" id="Ske2cf5ti29" kvg:type="㇑" transform="matrix(1,0,0,1,796,-4)" xmlns:kvg="http://kanjivg.tagaini.net"></path><path class="stroke_order_diagram--existing_path" d="M45.77,15.44c9.38-1.16,26.83-3.4,35.51-4.15c2.58-0.22,3.1,2.05,2.96,3.32c-0.48,4.65-3.58,20.47-4.75,28.24" id="Ske2cf5ti2a" kvg:type="㇕a" transform="matrix(1,0,0,1,796,-4)" xmlns:kvg="http://kanjivg.tagaini.net"></path><path class="stroke_order_diagram--existing_path" d="M47.73,28.3c5.38-0.41,31.37-2.78,34.09-2.9" id="Ske2cf5ti2b" kvg:type="㇐a" transform="matrix(1,0,0,1,796,-4)" xmlns:kvg="http://kanjivg.tagaini.net"></path><path class="stroke_order_diagram--existing_path" d="M49.02,41.86c9.57-0.53,21.25-1.62,30.86-1.86" id="Ske2cf5ti2c" kvg:type="㇐a" transform="matrix(1,0,0,1,796,-4)" xmlns:kvg="http://kanjivg.tagaini.net"></path><path class="stroke_order_diagram--existing_path" d="M51.8,46.73c0.06,0.53,0.27,1.39-0.11,2.11C48.8,54.22,42.24,62.11,31.25,69" id="Ske2cf5ti2d" kvg:type="㇒" transform="matrix(1,0,0,1,796,-4)" xmlns:kvg="http://kanjivg.tagaini.net"></path><path class="stroke_order_diagram--existing_path" d="M51.73,56.15c1.04,0.5,2.49,0.67,4.14,0.33c1.66-0.33,30.86-3.59,34.99-3.99c2.56-0.25,4.35,1.32,3.91,4.84c-1.52,12.16-5.1,25.39-11.71,36.76c-2.56,4.4-4.81,4.15-7.52-0.83" id="Ske2cf5ti2e" kvg:type="㇆" transform="matrix(1,0,0,1,796,-4)" xmlns:kvg="http://kanjivg.tagaini.net"></path><path class="stroke_order_diagram--current_path" d="M62.95,59.12c0.29,0.32-0.04,2.02-0.24,2.65C60.7,68,58.69,73.25,51.48,80.75" id="kvg:05048-s9" kvg:type="㇒" transform="matrix(1,0,0,1,796,-4)" xmlns:kvg="http://kanjivg.tagaini.net"></path><path class="stroke_order_diagram--current_path" d="M62.95,59.12c0.29,0.32-0.04,2.02-0.24,2.65C60.7,68,58.69,73.25,51.48,80.75" id="Ske2cf5ti2g" kvg:type="㇒" transform="matrix(1,0,0,1,796,-4)" xmlns:kvg="http://kanjivg.tagaini.net"></path><circle class="stroke_order_diagram--path_start" cx="62.95" cy="59.12" r="4" transform="matrix(1,0,0,1,796,-4)"></circle><line class="stroke_order_diagram--guide_line" x1="950" x2="950" y1="1" y2="99"></line><line class="stroke_order_diagram--bounding_box" x1="999" x2="999" y1="1" y2="99"></line><path class="stroke_order_diagram--existing_path" d="M32.93,13.5c0.14,1.22,0.24,2.76-0.12,4.27C30.52,27.28,21.67,45.68,11,58.57" id="Ske2cf5ti2j" kvg:type="㇒" transform="matrix(1,0,0,1,896,-4)" xmlns:kvg="http://kanjivg.tagaini.net"></path><path class="stroke_order_diagram--existing_path" d="M22.98,44.61c0.59,0.61,0.76,1.97,0.76,3.23c0,13.02-0.29,38.15-0.29,46.9" id="Ske2cf5ti2k" kvg:type="㇑" transform="matrix(1,0,0,1,896,-4)" xmlns:kvg="http://kanjivg.tagaini.net"></path><path class="stroke_order_diagram--existing_path" d="M44.79,13.14c0.3,0.52,0.31,0.89,0.48,1.55c1.37,5.43,2.85,19.64,3.7,29.77" id="Ske2cf5ti2l" kvg:type="㇑" transform="matrix(1,0,0,1,896,-4)" xmlns:kvg="http://kanjivg.tagaini.net"></path><path class="stroke_order_diagram--existing_path" d="M45.77,15.44c9.38-1.16,26.83-3.4,35.51-4.15c2.58-0.22,3.1,2.05,2.96,3.32c-0.48,4.65-3.58,20.47-4.75,28.24" id="Ske2cf5ti2m" kvg:type="㇕a" transform="matrix(1,0,0,1,896,-4)" xmlns:kvg="http://kanjivg.tagaini.net"></path><path class="stroke_order_diagram--existing_path" d="M47.73,28.3c5.38-0.41,31.37-2.78,34.09-2.9" id="Ske2cf5ti2n" kvg:type="㇐a" transform="matrix(1,0,0,1,896,-4)" xmlns:kvg="http://kanjivg.tagaini.net"></path><path class="stroke_order_diagram--existing_path" d="M49.02,41.86c9.57-0.53,21.25-1.62,30.86-1.86" id="Ske2cf5ti2o" kvg:type="㇐a" transform="matrix(1,0,0,1,896,-4)" xmlns:kvg="http://kanjivg.tagaini.net"></path><path class="stroke_order_diagram--existing_path" d="M51.8,46.73c0.06,0.53,0.27,1.39-0.11,2.11C48.8,54.22,42.24,62.11,31.25,69" id="Ske2cf5ti2p" kvg:type="㇒" transform="matrix(1,0,0,1,896,-4)" xmlns:kvg="http://kanjivg.tagaini.net"></path><path class="stroke_order_diagram--existing_path" d="M51.73,56.15c1.04,0.5,2.49,0.67,4.14,0.33c1.66-0.33,30.86-3.59,34.99-3.99c2.56-0.25,4.35,1.32,3.91,4.84c-1.52,12.16-5.1,25.39-11.71,36.76c-2.56,4.4-4.81,4.15-7.52-0.83" id="Ske2cf5ti2q" kvg:type="㇆" transform="matrix(1,0,0,1,896,-4)" xmlns:kvg="http://kanjivg.tagaini.net"></path><path class="stroke_order_diagram--existing_path" d="M62.95,59.12c0.29,0.32-0.04,2.02-0.24,2.65C60.7,68,58.69,73.25,51.48,80.75" id="Ske2cf5ti2r" kvg:type="㇒" transform="matrix(1,0,0,1,896,-4)" xmlns:kvg="http://kanjivg.tagaini.net"></path><path class="stroke_order_diagram--current_path" d="M60.96,68.29c4.3,1.78,9.78,6.51,11.88,11" id="kvg:05048-s10" kvg:type="㇏" transform="matrix(1,0,0,1,896,-4)" xmlns:kvg="http://kanjivg.tagaini.net"></path><path class="stroke_order_diagram--current_path" d="M60.96,68.29c4.3,1.78,9.78,6.51,11.88,11" id="Ske2cf5ti2t" kvg:type="㇏" transform="matrix(1,0,0,1,896,-4)" xmlns:kvg="http://kanjivg.tagaini.net"></path><circle class="stroke_order_diagram--path_start" cx="60.96" cy="68.29" r="4" transform="matrix(1,0,0,1,896,-4)"></circle><line class="stroke_order_diagram--guide_line" x1="1050" x2="1050" y1="1" y2="99"></line><line class="stroke_order_diagram--bounding_box" x1="1099" x2="1099" y1="1" y2="99"></line><path class="stroke_order_diagram--existing_path" d="M32.93,13.5c0.14,1.22,0.24,2.76-0.12,4.27C30.52,27.28,21.67,45.68,11,58.57" id="Ske2cf5ti2w" kvg:type="㇒" transform="matrix(1,0,0,1,996,-4)" xmlns:kvg="http://kanjivg.tagaini.net"></path><path class="stroke_order_diagram--existing_path" d="M22.98,44.61c0.59,0.61,0.76,1.97,0.76,3.23c0,13.02-0.29,38.15-0.29,46.9" id="Ske2cf5ti2x" kvg:type="㇑" transform="matrix(1,0,0,1,996,-4)" xmlns:kvg="http://kanjivg.tagaini.net"></path><path class="stroke_order_diagram--existing_path" d="M44.79,13.14c0.3,0.52,0.31,0.89,0.48,1.55c1.37,5.43,2.85,19.64,3.7,29.77" id="Ske2cf5ti2y" kvg:type="㇑" transform="matrix(1,0,0,1,996,-4)" xmlns:kvg="http://kanjivg.tagaini.net"></path><path class="stroke_order_diagram--existing_path" d="M45.77,15.44c9.38-1.16,26.83-3.4,35.51-4.15c2.58-0.22,3.1,2.05,2.96,3.32c-0.48,4.65-3.58,20.47-4.75,28.24" id="Ske2cf5ti2z" kvg:type="㇕a" transform="matrix(1,0,0,1,996,-4)" xmlns:kvg="http://kanjivg.tagaini.net"></path><path class="stroke_order_diagram--existing_path" d="M47.73,28.3c5.38-0.41,31.37-2.78,34.09-2.9" id="Ske2cf5ti30" kvg:type="㇐a" transform="matrix(1,0,0,1,996,-4)" xmlns:kvg="http://kanjivg.tagaini.net"></path><path class="stroke_order_diagram--existing_path" d="M49.02,41.86c9.57-0.53,21.25-1.62,30.86-1.86" id="Ske2cf5ti31" kvg:type="㇐a" transform="matrix(1,0,0,1,996,-4)" xmlns:kvg="http://kanjivg.tagaini.net"></path><path class="stroke_order_diagram--existing_path" d="M51.8,46.73c0.06,0.53,0.27,1.39-0.11,2.11C48.8,54.22,42.24,62.11,31.25,69" id="Ske2cf5ti32" kvg:type="㇒" transform="matrix(1,0,0,1,996,-4)" xmlns:kvg="http://kanjivg.tagaini.net"></path><path class="stroke_order_diagram--existing_path" d="M51.73,56.15c1.04,0.5,2.49,0.67,4.14,0.33c1.66-0.33,30.86-3.59,34.99-3.99c2.56-0.25,4.35,1.32,3.91,4.84c-1.52,12.16-5.1,25.39-11.71,36.76c-2.56,4.4-4.81,4.15-7.52-0.83" id="Ske2cf5ti33" kvg:type="㇆" transform="matrix(1,0,0,1,996,-4)" xmlns:kvg="http://kanjivg.tagaini.net"></path><path class="stroke_order_diagram--existing_path" d="M62.95,59.12c0.29,0.32-0.04,2.02-0.24,2.65C60.7,68,58.69,73.25,51.48,80.75" id="Ske2cf5ti34" kvg:type="㇒" transform="matrix(1,0,0,1,996,-4)" xmlns:kvg="http://kanjivg.tagaini.net"></path><path class="stroke_order_diagram--existing_path" d="M60.96,68.29c4.3,1.78,9.78,6.51,11.88,11" id="Ske2cf5ti35" kvg:type="㇏" transform="matrix(1,0,0,1,996,-4)" xmlns:kvg="http://kanjivg.tagaini.net"></path><path class="stroke_order_diagram--current_path" d="M42.1,65.51c0.76,0.46,1.21,2.07,1.36,2.99c0.14,0.83-0.53,7.72-0.53,15.87c0,1.88,0.62,3.07,2.69,2.86c4.83-0.49,20.31-2.24,28.77-2.87c1.84-0.14,3.32,0.38,4.23,0.38" id="kvg:05048-s11" kvg:type="㇄" transform="matrix(1,0,0,1,996,-4)" xmlns:kvg="http://kanjivg.tagaini.net"></path><path class="stroke_order_diagram--current_path" d="M42.1,65.51c0.76,0.46,1.21,2.07,1.36,2.99c0.14,0.83-0.53,7.72-0.53,15.87c0,1.88,0.62,3.07,2.69,2.86c4.83-0.49,20.31-2.24,28.77-2.87c1.84-0.14,3.32,0.38,4.23,0.38" id="Ske2cf5ti37" kvg:type="㇄" transform="matrix(1,0,0,1,996,-4)" xmlns:kvg="http://kanjivg.tagaini.net"></path><circle class="stroke_order_diagram--path_start" cx="42.1" cy="65.51" r="4" transform="matrix(1,0,0,1,996,-4)"></circle></svg>