<svg class="stroke_order_diagram--svg_container_for_5186629ed5dda79658000bf1" style="height: 100px; width: 1200px;" viewbox="0 0 1200 100"><desc>Created with Snap</desc><defs></defs><line class="stroke_order_diagram--bounding_box" x1="1" x2="1199" y1="1" y2="1"></line><line class="stroke_order_diagram--bounding_box" x1="1" x2="1" y1="1" y2="99"></line><line class="stroke_order_diagram--bounding_box" x1="1" x2="1199" y1="99" y2="99"></line><line class="stroke_order_diagram--guide_line" x1="0" x2="1200" y1="50" y2="50"></line><line class="stroke_order_diagram--guide_line" x1="50" x2="50" y1="1" y2="99"></line><line class="stroke_order_diagram--bounding_box" x1="99" x2="99" y1="1" y2="99"></line><path class="stroke_order_diagram--current_path" d="M32.94,18c0.13,1.23,0.22,2.78-0.11,4.29c-2.13,9.57-10.38,28.07-20.33,41.04" id="kvg:05085-s1" kvg:type="㇒" transform="matrix(1,0,0,1,-4,-4)" xmlns:kvg="http://kanjivg.tagaini.net"></path><path class="stroke_order_diagram--current_path" d="M32.94,18c0.13,1.23,0.22,2.78-0.11,4.29c-2.13,9.57-10.38,28.07-20.33,41.04" id="Ske2ch6dtl" kvg:type="㇒" transform="matrix(1,0,0,1,-4,-4)" xmlns:kvg="http://kanjivg.tagaini.net"></path><circle class="stroke_order_diagram--path_start" cx="32.94" cy="18" r="4" transform="matrix(1,0,0,1,-4,-4)"></circle><line class="stroke_order_diagram--guide_line" x1="150" x2="150" y1="1" y2="99"></line><line class="stroke_order_diagram--bounding_box" x1="199" x2="199" y1="1" y2="99"></line><path class="stroke_order_diagram--existing_path" d="M32.94,18c0.13,1.23,0.22,2.78-0.11,4.29c-2.13,9.57-10.38,28.07-20.33,41.04" id="Ske2ch6dto" kvg:type="㇒" transform="matrix(1,0,0,1,96,-4)" xmlns:kvg="http://kanjivg.tagaini.net"></path><path class="stroke_order_diagram--current_path" d="M27.48,43.11c0.59,0.61,0.76,1.97,0.76,3.23c0,13.02-0.29,39.15-0.29,47.9" id="kvg:05085-s2" kvg:type="㇑" transform="matrix(1,0,0,1,96,-4)" xmlns:kvg="http://kanjivg.tagaini.net"></path><path class="stroke_order_diagram--current_path" d="M27.48,43.11c0.59,0.61,0.76,1.97,0.76,3.23c0,13.02-0.29,39.15-0.29,47.9" id="Ske2ch6dtq" kvg:type="㇑" transform="matrix(1,0,0,1,96,-4)" xmlns:kvg="http://kanjivg.tagaini.net"></path><circle class="stroke_order_diagram--path_start" cx="27.48" cy="43.11" r="4" transform="matrix(1,0,0,1,96,-4)"></circle><line class="stroke_order_diagram--guide_line" x1="250" x2="250" y1="1" y2="99"></line><line class="stroke_order_diagram--bounding_box" x1="299" x2="299" y1="1" y2="99"></line><path class="stroke_order_diagram--existing_path" d="M32.94,18c0.13,1.23,0.22,2.78-0.11,4.29c-2.13,9.57-10.38,28.07-20.33,41.04" id="Ske2ch6dtt" kvg:type="㇒" transform="matrix(1,0,0,1,196,-4)" xmlns:kvg="http://kanjivg.tagaini.net"></path><path class="stroke_order_diagram--existing_path" d="M27.48,43.11c0.59,0.61,0.76,1.97,0.76,3.23c0,13.02-0.29,39.15-0.29,47.9" id="Ske2ch6dtu" kvg:type="㇑" transform="matrix(1,0,0,1,196,-4)" xmlns:kvg="http://kanjivg.tagaini.net"></path><path class="stroke_order_diagram--current_path" d="M45.25,22.24c1.02,0.36,2.89,0.43,3.91,0.36c4.9-0.32,16.92-2.91,28.48-3.04c1.7-0.02,2.72,0.17,3.57,0.36" id="kvg:05085-s3" kvg:type="㇐" transform="matrix(1,0,0,1,196,-4)" xmlns:kvg="http://kanjivg.tagaini.net"></path><path class="stroke_order_diagram--current_path" d="M45.25,22.24c1.02,0.36,2.89,0.43,3.91,0.36c4.9-0.32,16.92-2.91,28.48-3.04c1.7-0.02,2.72,0.17,3.57,0.36" id="Ske2ch6dtw" kvg:type="㇐" transform="matrix(1,0,0,1,196,-4)" xmlns:kvg="http://kanjivg.tagaini.net"></path><circle class="stroke_order_diagram--path_start" cx="45.25" cy="22.24" r="4" transform="matrix(1,0,0,1,196,-4)"></circle><line class="stroke_order_diagram--guide_line" x1="350" x2="350" y1="1" y2="99"></line><line class="stroke_order_diagram--bounding_box" x1="399" x2="399" y1="1" y2="99"></line><path class="stroke_order_diagram--existing_path" d="M32.94,18c0.13,1.23,0.22,2.78-0.11,4.29c-2.13,9.57-10.38,28.07-20.33,41.04" id="Ske2ch6dtz" kvg:type="㇒" transform="matrix(1,0,0,1,296,-4)" xmlns:kvg="http://kanjivg.tagaini.net"></path><path class="stroke_order_diagram--existing_path" d="M27.48,43.11c0.59,0.61,0.76,1.97,0.76,3.23c0,13.02-0.29,39.15-0.29,47.9" id="Ske2ch6dt10" kvg:type="㇑" transform="matrix(1,0,0,1,296,-4)" xmlns:kvg="http://kanjivg.tagaini.net"></path><path class="stroke_order_diagram--existing_path" d="M45.25,22.24c1.02,0.36,2.89,0.43,3.91,0.36c4.9-0.32,16.92-2.91,28.48-3.04c1.7-0.02,2.72,0.17,3.57,0.36" id="Ske2ch6dt11" kvg:type="㇐" transform="matrix(1,0,0,1,296,-4)" xmlns:kvg="http://kanjivg.tagaini.net"></path><path class="stroke_order_diagram--current_path" d="M45.17,30.68c0.51,0.54,0.85,1.09,1.02,1.64c0.17,0.55,0.3,21.34,0.31,26.25" id="kvg:05085-s4" kvg:type="㇑" transform="matrix(1,0,0,1,296,-4)" xmlns:kvg="http://kanjivg.tagaini.net"></path><path class="stroke_order_diagram--current_path" d="M45.17,30.68c0.51,0.54,0.85,1.09,1.02,1.64c0.17,0.55,0.3,21.34,0.31,26.25" id="Ske2ch6dt13" kvg:type="㇑" transform="matrix(1,0,0,1,296,-4)" xmlns:kvg="http://kanjivg.tagaini.net"></path><circle class="stroke_order_diagram--path_start" cx="45.17" cy="30.68" r="4" transform="matrix(1,0,0,1,296,-4)"></circle><line class="stroke_order_diagram--guide_line" x1="450" x2="450" y1="1" y2="99"></line><line class="stroke_order_diagram--bounding_box" x1="499" x2="499" y1="1" y2="99"></line><path class="stroke_order_diagram--existing_path" d="M32.94,18c0.13,1.23,0.22,2.78-0.11,4.29c-2.13,9.57-10.38,28.07-20.33,41.04" id="Ske2ch6dt16" kvg:type="㇒" transform="matrix(1,0,0,1,396,-4)" xmlns:kvg="http://kanjivg.tagaini.net"></path><path class="stroke_order_diagram--existing_path" d="M27.48,43.11c0.59,0.61,0.76,1.97,0.76,3.23c0,13.02-0.29,39.15-0.29,47.9" id="Ske2ch6dt17" kvg:type="㇑" transform="matrix(1,0,0,1,396,-4)" xmlns:kvg="http://kanjivg.tagaini.net"></path><path class="stroke_order_diagram--existing_path" d="M45.25,22.24c1.02,0.36,2.89,0.43,3.91,0.36c4.9-0.32,16.92-2.91,28.48-3.04c1.7-0.02,2.72,0.17,3.57,0.36" id="Ske2ch6dt18" kvg:type="㇐" transform="matrix(1,0,0,1,396,-4)" xmlns:kvg="http://kanjivg.tagaini.net"></path><path class="stroke_order_diagram--existing_path" d="M45.17,30.68c0.51,0.54,0.85,1.09,1.02,1.64c0.17,0.55,0.3,21.34,0.31,26.25" id="Ske2ch6dt19" kvg:type="㇑" transform="matrix(1,0,0,1,396,-4)" xmlns:kvg="http://kanjivg.tagaini.net"></path><path class="stroke_order_diagram--current_path" d="M47.2,32.62c5.73-0.23,31.83-3.33,33.35-3.48c2.72-0.27,3.74,1.77,3.4,2.59c-0.03,1.84-0.43,10.41-0.43,22.9" id="kvg:05085-s5" kvg:type="㇆" transform="matrix(1,0,0,1,396,-4)" xmlns:kvg="http://kanjivg.tagaini.net"></path><path class="stroke_order_diagram--current_path" d="M47.2,32.62c5.73-0.23,31.83-3.33,33.35-3.48c2.72-0.27,3.74,1.77,3.4,2.59c-0.03,1.84-0.43,10.41-0.43,22.9" id="Ske2ch6dt1b" kvg:type="㇆" transform="matrix(1,0,0,1,396,-4)" xmlns:kvg="http://kanjivg.tagaini.net"></path><circle class="stroke_order_diagram--path_start" cx="47.2" cy="32.62" r="4" transform="matrix(1,0,0,1,396,-4)"></circle><line class="stroke_order_diagram--guide_line" x1="550" x2="550" y1="1" y2="99"></line><line class="stroke_order_diagram--bounding_box" x1="599" x2="599" y1="1" y2="99"></line><path class="stroke_order_diagram--existing_path" d="M32.94,18c0.13,1.23,0.22,2.78-0.11,4.29c-2.13,9.57-10.38,28.07-20.33,41.04" id="Ske2ch6dt1e" kvg:type="㇒" transform="matrix(1,0,0,1,496,-4)" xmlns:kvg="http://kanjivg.tagaini.net"></path><path class="stroke_order_diagram--existing_path" d="M27.48,43.11c0.59,0.61,0.76,1.97,0.76,3.23c0,13.02-0.29,39.15-0.29,47.9" id="Ske2ch6dt1f" kvg:type="㇑" transform="matrix(1,0,0,1,496,-4)" xmlns:kvg="http://kanjivg.tagaini.net"></path><path class="stroke_order_diagram--existing_path" d="M45.25,22.24c1.02,0.36,2.89,0.43,3.91,0.36c4.9-0.32,16.92-2.91,28.48-3.04c1.7-0.02,2.72,0.17,3.57,0.36" id="Ske2ch6dt1g" kvg:type="㇐" transform="matrix(1,0,0,1,496,-4)" xmlns:kvg="http://kanjivg.tagaini.net"></path><path class="stroke_order_diagram--existing_path" d="M45.17,30.68c0.51,0.54,0.85,1.09,1.02,1.64c0.17,0.55,0.3,21.34,0.31,26.25" id="Ske2ch6dt1h" kvg:type="㇑" transform="matrix(1,0,0,1,496,-4)" xmlns:kvg="http://kanjivg.tagaini.net"></path><path class="stroke_order_diagram--existing_path" d="M47.2,32.62c5.73-0.23,31.83-3.33,33.35-3.48c2.72-0.27,3.74,1.77,3.4,2.59c-0.03,1.84-0.43,10.41-0.43,22.9" id="Ske2ch6dt1i" kvg:type="㇆" transform="matrix(1,0,0,1,496,-4)" xmlns:kvg="http://kanjivg.tagaini.net"></path><path class="stroke_order_diagram--current_path" d="M47.2,41.97c7.58-0.48,29.44-2.56,35.56-2.97" id="kvg:05085-s6" kvg:type="㇐" transform="matrix(1,0,0,1,496,-4)" xmlns:kvg="http://kanjivg.tagaini.net"></path><path class="stroke_order_diagram--current_path" d="M47.2,41.97c7.58-0.48,29.44-2.56,35.56-2.97" id="Ske2ch6dt1k" kvg:type="㇐" transform="matrix(1,0,0,1,496,-4)" xmlns:kvg="http://kanjivg.tagaini.net"></path><circle class="stroke_order_diagram--path_start" cx="47.2" cy="41.97" r="4" transform="matrix(1,0,0,1,496,-4)"></circle><line class="stroke_order_diagram--guide_line" x1="650" x2="650" y1="1" y2="99"></line><line class="stroke_order_diagram--bounding_box" x1="699" x2="699" y1="1" y2="99"></line><path class="stroke_order_diagram--existing_path" d="M32.94,18c0.13,1.23,0.22,2.78-0.11,4.29c-2.13,9.57-10.38,28.07-20.33,41.04" id="Ske2ch6dt1n" kvg:type="㇒" transform="matrix(1,0,0,1,596,-4)" xmlns:kvg="http://kanjivg.tagaini.net"></path><path class="stroke_order_diagram--existing_path" d="M27.48,43.11c0.59,0.61,0.76,1.97,0.76,3.23c0,13.02-0.29,39.15-0.29,47.9" id="Ske2ch6dt1o" kvg:type="㇑" transform="matrix(1,0,0,1,596,-4)" xmlns:kvg="http://kanjivg.tagaini.net"></path><path class="stroke_order_diagram--existing_path" d="M45.25,22.24c1.02,0.36,2.89,0.43,3.91,0.36c4.9-0.32,16.92-2.91,28.48-3.04c1.7-0.02,2.72,0.17,3.57,0.36" id="Ske2ch6dt1p" kvg:type="㇐" transform="matrix(1,0,0,1,596,-4)" xmlns:kvg="http://kanjivg.tagaini.net"></path><path class="stroke_order_diagram--existing_path" d="M45.17,30.68c0.51,0.54,0.85,1.09,1.02,1.64c0.17,0.55,0.3,21.34,0.31,26.25" id="Ske2ch6dt1q" kvg:type="㇑" transform="matrix(1,0,0,1,596,-4)" xmlns:kvg="http://kanjivg.tagaini.net"></path><path class="stroke_order_diagram--existing_path" d="M47.2,32.62c5.73-0.23,31.83-3.33,33.35-3.48c2.72-0.27,3.74,1.77,3.4,2.59c-0.03,1.84-0.43,10.41-0.43,22.9" id="Ske2ch6dt1r" kvg:type="㇆" transform="matrix(1,0,0,1,596,-4)" xmlns:kvg="http://kanjivg.tagaini.net"></path><path class="stroke_order_diagram--existing_path" d="M47.2,41.97c7.58-0.48,29.44-2.56,35.56-2.97" id="Ske2ch6dt1s" kvg:type="㇐" transform="matrix(1,0,0,1,596,-4)" xmlns:kvg="http://kanjivg.tagaini.net"></path><path class="stroke_order_diagram--current_path" d="M47.36,51.19c5.44-0.41,29.58-2.57,35.86-2.84" id="kvg:05085-s7" kvg:type="㇐" transform="matrix(1,0,0,1,596,-4)" xmlns:kvg="http://kanjivg.tagaini.net"></path><path class="stroke_order_diagram--current_path" d="M47.36,51.19c5.44-0.41,29.58-2.57,35.86-2.84" id="Ske2ch6dt1u" kvg:type="㇐" transform="matrix(1,0,0,1,596,-4)" xmlns:kvg="http://kanjivg.tagaini.net"></path><circle class="stroke_order_diagram--path_start" cx="47.36" cy="51.19" r="4" transform="matrix(1,0,0,1,596,-4)"></circle><line class="stroke_order_diagram--guide_line" x1="750" x2="750" y1="1" y2="99"></line><line class="stroke_order_diagram--bounding_box" x1="799" x2="799" y1="1" y2="99"></line><path class="stroke_order_diagram--existing_path" d="M32.94,18c0.13,1.23,0.22,2.78-0.11,4.29c-2.13,9.57-10.38,28.07-20.33,41.04" id="Ske2ch6dt1x" kvg:type="㇒" transform="matrix(1,0,0,1,696,-4)" xmlns:kvg="http://kanjivg.tagaini.net"></path><path class="stroke_order_diagram--existing_path" d="M27.48,43.11c0.59,0.61,0.76,1.97,0.76,3.23c0,13.02-0.29,39.15-0.29,47.9" id="Ske2ch6dt1y" kvg:type="㇑" transform="matrix(1,0,0,1,696,-4)" xmlns:kvg="http://kanjivg.tagaini.net"></path><path class="stroke_order_diagram--existing_path" d="M45.25,22.24c1.02,0.36,2.89,0.43,3.91,0.36c4.9-0.32,16.92-2.91,28.48-3.04c1.7-0.02,2.72,0.17,3.57,0.36" id="Ske2ch6dt1z" kvg:type="㇐" transform="matrix(1,0,0,1,696,-4)" xmlns:kvg="http://kanjivg.tagaini.net"></path><path class="stroke_order_diagram--existing_path" d="M45.17,30.68c0.51,0.54,0.85,1.09,1.02,1.64c0.17,0.55,0.3,21.34,0.31,26.25" id="Ske2ch6dt20" kvg:type="㇑" transform="matrix(1,0,0,1,696,-4)" xmlns:kvg="http://kanjivg.tagaini.net"></path><path class="stroke_order_diagram--existing_path" d="M47.2,32.62c5.73-0.23,31.83-3.33,33.35-3.48c2.72-0.27,3.74,1.77,3.4,2.59c-0.03,1.84-0.43,10.41-0.43,22.9" id="Ske2ch6dt21" kvg:type="㇆" transform="matrix(1,0,0,1,696,-4)" xmlns:kvg="http://kanjivg.tagaini.net"></path><path class="stroke_order_diagram--existing_path" d="M47.2,41.97c7.58-0.48,29.44-2.56,35.56-2.97" id="Ske2ch6dt22" kvg:type="㇐" transform="matrix(1,0,0,1,696,-4)" xmlns:kvg="http://kanjivg.tagaini.net"></path><path class="stroke_order_diagram--existing_path" d="M47.36,51.19c5.44-0.41,29.58-2.57,35.86-2.84" id="Ske2ch6dt23" kvg:type="㇐" transform="matrix(1,0,0,1,696,-4)" xmlns:kvg="http://kanjivg.tagaini.net"></path><path class="stroke_order_diagram--current_path" d="M62.14,11.73c0.99,0.45,1.58,2.04,1.78,2.95c0.2,0.91,0,37.34-0.2,43.02" id="kvg:05085-s8" kvg:type="㇑" transform="matrix(1,0,0,1,696,-4)" xmlns:kvg="http://kanjivg.tagaini.net"></path><path class="stroke_order_diagram--current_path" d="M62.14,11.73c0.99,0.45,1.58,2.04,1.78,2.95c0.2,0.91,0,37.34-0.2,43.02" id="Ske2ch6dt25" kvg:type="㇑" transform="matrix(1,0,0,1,696,-4)" xmlns:kvg="http://kanjivg.tagaini.net"></path><circle class="stroke_order_diagram--path_start" cx="62.14" cy="11.73" r="4" transform="matrix(1,0,0,1,696,-4)"></circle><line class="stroke_order_diagram--guide_line" x1="850" x2="850" y1="1" y2="99"></line><line class="stroke_order_diagram--bounding_box" x1="899" x2="899" y1="1" y2="99"></line><path class="stroke_order_diagram--existing_path" d="M32.94,18c0.13,1.23,0.22,2.78-0.11,4.29c-2.13,9.57-10.38,28.07-20.33,41.04" id="Ske2ch6dt28" kvg:type="㇒" transform="matrix(1,0,0,1,796,-4)" xmlns:kvg="http://kanjivg.tagaini.net"></path><path class="stroke_order_diagram--existing_path" d="M27.48,43.11c0.59,0.61,0.76,1.97,0.76,3.23c0,13.02-0.29,39.15-0.29,47.9" id="Ske2ch6dt29" kvg:type="㇑" transform="matrix(1,0,0,1,796,-4)" xmlns:kvg="http://kanjivg.tagaini.net"></path><path class="stroke_order_diagram--existing_path" d="M45.25,22.24c1.02,0.36,2.89,0.43,3.91,0.36c4.9-0.32,16.92-2.91,28.48-3.04c1.7-0.02,2.72,0.17,3.57,0.36" id="Ske2ch6dt2a" kvg:type="㇐" transform="matrix(1,0,0,1,796,-4)" xmlns:kvg="http://kanjivg.tagaini.net"></path><path class="stroke_order_diagram--existing_path" d="M45.17,30.68c0.51,0.54,0.85,1.09,1.02,1.64c0.17,0.55,0.3,21.34,0.31,26.25" id="Ske2ch6dt2b" kvg:type="㇑" transform="matrix(1,0,0,1,796,-4)" xmlns:kvg="http://kanjivg.tagaini.net"></path><path class="stroke_order_diagram--existing_path" d="M47.2,32.62c5.73-0.23,31.83-3.33,33.35-3.48c2.72-0.27,3.74,1.77,3.4,2.59c-0.03,1.84-0.43,10.41-0.43,22.9" id="Ske2ch6dt2c" kvg:type="㇆" transform="matrix(1,0,0,1,796,-4)" xmlns:kvg="http://kanjivg.tagaini.net"></path><path class="stroke_order_diagram--existing_path" d="M47.2,41.97c7.58-0.48,29.44-2.56,35.56-2.97" id="Ske2ch6dt2d" kvg:type="㇐" transform="matrix(1,0,0,1,796,-4)" xmlns:kvg="http://kanjivg.tagaini.net"></path><path class="stroke_order_diagram--existing_path" d="M47.36,51.19c5.44-0.41,29.58-2.57,35.86-2.84" id="Ske2ch6dt2e" kvg:type="㇐" transform="matrix(1,0,0,1,796,-4)" xmlns:kvg="http://kanjivg.tagaini.net"></path><path class="stroke_order_diagram--existing_path" d="M62.14,11.73c0.99,0.45,1.58,2.04,1.78,2.95c0.2,0.91,0,37.34-0.2,43.02" id="Ske2ch6dt2f" kvg:type="㇑" transform="matrix(1,0,0,1,796,-4)" xmlns:kvg="http://kanjivg.tagaini.net"></path><path class="stroke_order_diagram--current_path" d="M80.41,11c3.25,1.37,8.4,5.62,9.22,7.75" id="kvg:05085-s9" kvg:type="㇔" transform="matrix(1,0,0,1,796,-4)" xmlns:kvg="http://kanjivg.tagaini.net"></path><path class="stroke_order_diagram--current_path" d="M80.41,11c3.25,1.37,8.4,5.62,9.22,7.75" id="Ske2ch6dt2h" kvg:type="㇔" transform="matrix(1,0,0,1,796,-4)" xmlns:kvg="http://kanjivg.tagaini.net"></path><circle class="stroke_order_diagram--path_start" cx="80.41" cy="11" r="4" transform="matrix(1,0,0,1,796,-4)"></circle><line class="stroke_order_diagram--guide_line" x1="950" x2="950" y1="1" y2="99"></line><line class="stroke_order_diagram--bounding_box" x1="999" x2="999" y1="1" y2="99"></line><path class="stroke_order_diagram--existing_path" d="M32.94,18c0.13,1.23,0.22,2.78-0.11,4.29c-2.13,9.57-10.38,28.07-20.33,41.04" id="Ske2ch6dt2k" kvg:type="㇒" transform="matrix(1,0,0,1,896,-4)" xmlns:kvg="http://kanjivg.tagaini.net"></path><path class="stroke_order_diagram--existing_path" d="M27.48,43.11c0.59,0.61,0.76,1.97,0.76,3.23c0,13.02-0.29,39.15-0.29,47.9" id="Ske2ch6dt2l" kvg:type="㇑" transform="matrix(1,0,0,1,896,-4)" xmlns:kvg="http://kanjivg.tagaini.net"></path><path class="stroke_order_diagram--existing_path" d="M45.25,22.24c1.02,0.36,2.89,0.43,3.91,0.36c4.9-0.32,16.92-2.91,28.48-3.04c1.7-0.02,2.72,0.17,3.57,0.36" id="Ske2ch6dt2m" kvg:type="㇐" transform="matrix(1,0,0,1,896,-4)" xmlns:kvg="http://kanjivg.tagaini.net"></path><path class="stroke_order_diagram--existing_path" d="M45.17,30.68c0.51,0.54,0.85,1.09,1.02,1.64c0.17,0.55,0.3,21.34,0.31,26.25" id="Ske2ch6dt2n" kvg:type="㇑" transform="matrix(1,0,0,1,896,-4)" xmlns:kvg="http://kanjivg.tagaini.net"></path><path class="stroke_order_diagram--existing_path" d="M47.2,32.62c5.73-0.23,31.83-3.33,33.35-3.48c2.72-0.27,3.74,1.77,3.4,2.59c-0.03,1.84-0.43,10.41-0.43,22.9" id="Ske2ch6dt2o" kvg:type="㇆" transform="matrix(1,0,0,1,896,-4)" xmlns:kvg="http://kanjivg.tagaini.net"></path><path class="stroke_order_diagram--existing_path" d="M47.2,41.97c7.58-0.48,29.44-2.56,35.56-2.97" id="Ske2ch6dt2p" kvg:type="㇐" transform="matrix(1,0,0,1,896,-4)" xmlns:kvg="http://kanjivg.tagaini.net"></path><path class="stroke_order_diagram--existing_path" d="M47.36,51.19c5.44-0.41,29.58-2.57,35.86-2.84" id="Ske2ch6dt2q" kvg:type="㇐" transform="matrix(1,0,0,1,896,-4)" xmlns:kvg="http://kanjivg.tagaini.net"></path><path class="stroke_order_diagram--existing_path" d="M62.14,11.73c0.99,0.45,1.58,2.04,1.78,2.95c0.2,0.91,0,37.34-0.2,43.02" id="Ske2ch6dt2r" kvg:type="㇑" transform="matrix(1,0,0,1,896,-4)" xmlns:kvg="http://kanjivg.tagaini.net"></path><path class="stroke_order_diagram--existing_path" d="M80.41,11c3.25,1.37,8.4,5.62,9.22,7.75" id="Ske2ch6dt2s" kvg:type="㇔" transform="matrix(1,0,0,1,896,-4)" xmlns:kvg="http://kanjivg.tagaini.net"></path><path class="stroke_order_diagram--current_path" d="M35.99,67.99c1.09,0.55,3.06,0.62,4.17,0.55c11.84-0.79,37.29-3.67,50.55-4.5c1.81-0.11,2.9,0.26,3.8,0.53" id="kvg:05085-s10" kvg:type="㇐" transform="matrix(1,0,0,1,896,-4)" xmlns:kvg="http://kanjivg.tagaini.net"></path><path class="stroke_order_diagram--current_path" d="M35.99,67.99c1.09,0.55,3.06,0.62,4.17,0.55c11.84-0.79,37.29-3.67,50.55-4.5c1.81-0.11,2.9,0.26,3.8,0.53" id="Ske2ch6dt2u" kvg:type="㇐" transform="matrix(1,0,0,1,896,-4)" xmlns:kvg="http://kanjivg.tagaini.net"></path><circle class="stroke_order_diagram--path_start" cx="35.99" cy="67.99" r="4" transform="matrix(1,0,0,1,896,-4)"></circle><line class="stroke_order_diagram--guide_line" x1="1050" x2="1050" y1="1" y2="99"></line><line class="stroke_order_diagram--bounding_box" x1="1099" x2="1099" y1="1" y2="99"></line><path class="stroke_order_diagram--existing_path" d="M32.94,18c0.13,1.23,0.22,2.78-0.11,4.29c-2.13,9.57-10.38,28.07-20.33,41.04" id="Ske2ch6dt2x" kvg:type="㇒" transform="matrix(1,0,0,1,996,-4)" xmlns:kvg="http://kanjivg.tagaini.net"></path><path class="stroke_order_diagram--existing_path" d="M27.48,43.11c0.59,0.61,0.76,1.97,0.76,3.23c0,13.02-0.29,39.15-0.29,47.9" id="Ske2ch6dt2y" kvg:type="㇑" transform="matrix(1,0,0,1,996,-4)" xmlns:kvg="http://kanjivg.tagaini.net"></path><path class="stroke_order_diagram--existing_path" d="M45.25,22.24c1.02,0.36,2.89,0.43,3.91,0.36c4.9-0.32,16.92-2.91,28.48-3.04c1.7-0.02,2.72,0.17,3.57,0.36" id="Ske2ch6dt2z" kvg:type="㇐" transform="matrix(1,0,0,1,996,-4)" xmlns:kvg="http://kanjivg.tagaini.net"></path><path class="stroke_order_diagram--existing_path" d="M45.17,30.68c0.51,0.54,0.85,1.09,1.02,1.64c0.17,0.55,0.3,21.34,0.31,26.25" id="Ske2ch6dt30" kvg:type="㇑" transform="matrix(1,0,0,1,996,-4)" xmlns:kvg="http://kanjivg.tagaini.net"></path><path class="stroke_order_diagram--existing_path" d="M47.2,32.62c5.73-0.23,31.83-3.33,33.35-3.48c2.72-0.27,3.74,1.77,3.4,2.59c-0.03,1.84-0.43,10.41-0.43,22.9" id="Ske2ch6dt31" kvg:type="㇆" transform="matrix(1,0,0,1,996,-4)" xmlns:kvg="http://kanjivg.tagaini.net"></path><path class="stroke_order_diagram--existing_path" d="M47.2,41.97c7.58-0.48,29.44-2.56,35.56-2.97" id="Ske2ch6dt32" kvg:type="㇐" transform="matrix(1,0,0,1,996,-4)" xmlns:kvg="http://kanjivg.tagaini.net"></path><path class="stroke_order_diagram--existing_path" d="M47.36,51.19c5.44-0.41,29.58-2.57,35.86-2.84" id="Ske2ch6dt33" kvg:type="㇐" transform="matrix(1,0,0,1,996,-4)" xmlns:kvg="http://kanjivg.tagaini.net"></path><path class="stroke_order_diagram--existing_path" d="M62.14,11.73c0.99,0.45,1.58,2.04,1.78,2.95c0.2,0.91,0,37.34-0.2,43.02" id="Ske2ch6dt34" kvg:type="㇑" transform="matrix(1,0,0,1,996,-4)" xmlns:kvg="http://kanjivg.tagaini.net"></path><path class="stroke_order_diagram--existing_path" d="M80.41,11c3.25,1.37,8.4,5.62,9.22,7.75" id="Ske2ch6dt35" kvg:type="㇔" transform="matrix(1,0,0,1,996,-4)" xmlns:kvg="http://kanjivg.tagaini.net"></path><path class="stroke_order_diagram--existing_path" d="M35.99,67.99c1.09,0.55,3.06,0.62,4.17,0.55c11.84-0.79,37.29-3.67,50.55-4.5c1.81-0.11,2.9,0.26,3.8,0.53" id="Ske2ch6dt36" kvg:type="㇐" transform="matrix(1,0,0,1,996,-4)" xmlns:kvg="http://kanjivg.tagaini.net"></path><path class="stroke_order_diagram--current_path" d="M76.5,57.29c0.06,0.33,0.86,1.71,0.86,3.79c0,14-0.18,25.55-0.18,28.96c0,8.26-6.18,1.96-7.66-0.33" id="kvg:05085-s11" kvg:type="㇚" transform="matrix(1,0,0,1,996,-4)" xmlns:kvg="http://kanjivg.tagaini.net"></path><path class="stroke_order_diagram--current_path" d="M76.5,57.29c0.06,0.33,0.86,1.71,0.86,3.79c0,14-0.18,25.55-0.18,28.96c0,8.26-6.18,1.96-7.66-0.33" id="Ske2ch6dt38" kvg:type="㇚" transform="matrix(1,0,0,1,996,-4)" xmlns:kvg="http://kanjivg.tagaini.net"></path><circle class="stroke_order_diagram--path_start" cx="76.5" cy="57.29" r="4" transform="matrix(1,0,0,1,996,-4)"></circle><line class="stroke_order_diagram--guide_line" x1="1150" x2="1150" y1="1" y2="99"></line><line class="stroke_order_diagram--bounding_box" x1="1199" x2="1199" y1="1" y2="99"></line><path class="stroke_order_diagram--existing_path" d="M32.94,18c0.13,1.23,0.22,2.78-0.11,4.29c-2.13,9.57-10.38,28.07-20.33,41.04" id="Ske2ch6dt3b" kvg:type="㇒" transform="matrix(1,0,0,1,1096,-4)" xmlns:kvg="http://kanjivg.tagaini.net"></path><path class="stroke_order_diagram--existing_path" d="M27.48,43.11c0.59,0.61,0.76,1.97,0.76,3.23c0,13.02-0.29,39.15-0.29,47.9" id="Ske2ch6dt3c" kvg:type="㇑" transform="matrix(1,0,0,1,1096,-4)" xmlns:kvg="http://kanjivg.tagaini.net"></path><path class="stroke_order_diagram--existing_path" d="M45.25,22.24c1.02,0.36,2.89,0.43,3.91,0.36c4.9-0.32,16.92-2.91,28.48-3.04c1.7-0.02,2.72,0.17,3.57,0.36" id="Ske2ch6dt3d" kvg:type="㇐" transform="matrix(1,0,0,1,1096,-4)" xmlns:kvg="http://kanjivg.tagaini.net"></path><path class="stroke_order_diagram--existing_path" d="M45.17,30.68c0.51,0.54,0.85,1.09,1.02,1.64c0.17,0.55,0.3,21.34,0.31,26.25" id="Ske2ch6dt3e" kvg:type="㇑" transform="matrix(1,0,0,1,1096,-4)" xmlns:kvg="http://kanjivg.tagaini.net"></path><path class="stroke_order_diagram--existing_path" d="M47.2,32.62c5.73-0.23,31.83-3.33,33.35-3.48c2.72-0.27,3.74,1.77,3.4,2.59c-0.03,1.84-0.43,10.41-0.43,22.9" id="Ske2ch6dt3f" kvg:type="㇆" transform="matrix(1,0,0,1,1096,-4)" xmlns:kvg="http://kanjivg.tagaini.net"></path><path class="stroke_order_diagram--existing_path" d="M47.2,41.97c7.58-0.48,29.44-2.56,35.56-2.97" id="Ske2ch6dt3g" kvg:type="㇐" transform="matrix(1,0,0,1,1096,-4)" xmlns:kvg="http://kanjivg.tagaini.net"></path><path class="stroke_order_diagram--existing_path" d="M47.36,51.19c5.44-0.41,29.58-2.57,35.86-2.84" id="Ske2ch6dt3h" kvg:type="㇐" transform="matrix(1,0,0,1,1096,-4)" xmlns:kvg="http://kanjivg.tagaini.net"></path><path class="stroke_order_diagram--existing_path" d="M62.14,11.73c0.99,0.45,1.58,2.04,1.78,2.95c0.2,0.91,0,37.34-0.2,43.02" id="Ske2ch6dt3i" kvg:type="㇑" transform="matrix(1,0,0,1,1096,-4)" xmlns:kvg="http://kanjivg.tagaini.net"></path><path class="stroke_order_diagram--existing_path" d="M80.41,11c3.25,1.37,8.4,5.62,9.22,7.75" id="Ske2ch6dt3j" kvg:type="㇔" transform="matrix(1,0,0,1,1096,-4)" xmlns:kvg="http://kanjivg.tagaini.net"></path><path class="stroke_order_diagram--existing_path" d="M35.99,67.99c1.09,0.55,3.06,0.62,4.17,0.55c11.84-0.79,37.29-3.67,50.55-4.5c1.81-0.11,2.9,0.26,3.8,0.53" id="Ske2ch6dt3k" kvg:type="㇐" transform="matrix(1,0,0,1,1096,-4)" xmlns:kvg="http://kanjivg.tagaini.net"></path><path class="stroke_order_diagram--existing_path" d="M76.5,57.29c0.06,0.33,0.86,1.71,0.86,3.79c0,14-0.18,25.55-0.18,28.96c0,8.26-6.18,1.96-7.66-0.33" id="Ske2ch6dt3l" kvg:type="㇚" transform="matrix(1,0,0,1,1096,-4)" xmlns:kvg="http://kanjivg.tagaini.net"></path><path class="stroke_order_diagram--current_path" d="M48.46,75.7c2.59,1.75,6.68,7.19,7.33,9.91" id="kvg:05085-s12" kvg:type="㇔" transform="matrix(1,0,0,1,1096,-4)" xmlns:kvg="http://kanjivg.tagaini.net"></path><path class="stroke_order_diagram--current_path" d="M48.46,75.7c2.59,1.75,6.68,7.19,7.33,9.91" id="Ske2ch6dt3n" kvg:type="㇔" transform="matrix(1,0,0,1,1096,-4)" xmlns:kvg="http://kanjivg.tagaini.net"></path><circle class="stroke_order_diagram--path_start" cx="48.46" cy="75.7" r="4" transform="matrix(1,0,0,1,1096,-4)"></circle></svg>