<svg class="stroke_order_diagram--svg_container_for_5186629ed5dda79658000bfe" style="height: 100px; width: 1500px;" viewbox="0 0 1500 100"><desc>Created with Snap</desc><defs></defs><line class="stroke_order_diagram--bounding_box" x1="1" x2="1499" y1="1" y2="1"></line><line class="stroke_order_diagram--bounding_box" x1="1" x2="1" y1="1" y2="99"></line><line class="stroke_order_diagram--bounding_box" x1="1" x2="1499" y1="99" y2="99"></line><line class="stroke_order_diagram--guide_line" x1="0" x2="1500" y1="50" y2="50"></line><line class="stroke_order_diagram--guide_line" x1="50" x2="50" y1="1" y2="99"></line><line class="stroke_order_diagram--bounding_box" x1="99" x2="99" y1="1" y2="99"></line><path class="stroke_order_diagram--current_path" d="M32.44,17c0.13,1.16,0.23,2.62-0.12,4.05c-2.19,9.04-10.64,26.52-20.82,38.77" id="kvg:050f9-s1" kvg:type="㇒" transform="matrix(1,0,0,1,-4,-4)" xmlns:kvg="http://kanjivg.tagaini.net"></path><path class="stroke_order_diagram--current_path" d="M32.44,17c0.13,1.16,0.23,2.62-0.12,4.05c-2.19,9.04-10.64,26.52-20.82,38.77" id="Ske2ckswzo" kvg:type="㇒" transform="matrix(1,0,0,1,-4,-4)" xmlns:kvg="http://kanjivg.tagaini.net"></path><circle class="stroke_order_diagram--path_start" cx="32.44" cy="17" r="4" transform="matrix(1,0,0,1,-4,-4)"></circle><line class="stroke_order_diagram--guide_line" x1="150" x2="150" y1="1" y2="99"></line><line class="stroke_order_diagram--bounding_box" x1="199" x2="199" y1="1" y2="99"></line><path class="stroke_order_diagram--existing_path" d="M32.44,17c0.13,1.16,0.23,2.62-0.12,4.05c-2.19,9.04-10.64,26.52-20.82,38.77" id="Ske2ckswzr" kvg:type="㇒" transform="matrix(1,0,0,1,96,-4)" xmlns:kvg="http://kanjivg.tagaini.net"></path><path class="stroke_order_diagram--current_path" d="M27.46,40.11c0.62,0.64,0.79,2.05,0.79,3.37c0,13.58-0.3,41.88-0.3,51.01" id="kvg:050f9-s2" kvg:type="㇑" transform="matrix(1,0,0,1,96,-4)" xmlns:kvg="http://kanjivg.tagaini.net"></path><path class="stroke_order_diagram--current_path" d="M27.46,40.11c0.62,0.64,0.79,2.05,0.79,3.37c0,13.58-0.3,41.88-0.3,51.01" id="Ske2ckswzt" kvg:type="㇑" transform="matrix(1,0,0,1,96,-4)" xmlns:kvg="http://kanjivg.tagaini.net"></path><circle class="stroke_order_diagram--path_start" cx="27.46" cy="40.11" r="4" transform="matrix(1,0,0,1,96,-4)"></circle><line class="stroke_order_diagram--guide_line" x1="250" x2="250" y1="1" y2="99"></line><line class="stroke_order_diagram--bounding_box" x1="299" x2="299" y1="1" y2="99"></line><path class="stroke_order_diagram--existing_path" d="M32.44,17c0.13,1.16,0.23,2.62-0.12,4.05c-2.19,9.04-10.64,26.52-20.82,38.77" id="Ske2ckswzw" kvg:type="㇒" transform="matrix(1,0,0,1,196,-4)" xmlns:kvg="http://kanjivg.tagaini.net"></path><path class="stroke_order_diagram--existing_path" d="M27.46,40.11c0.62,0.64,0.79,2.05,0.79,3.37c0,13.58-0.3,41.88-0.3,51.01" id="Ske2ckswzx" kvg:type="㇑" transform="matrix(1,0,0,1,196,-4)" xmlns:kvg="http://kanjivg.tagaini.net"></path><path class="stroke_order_diagram--current_path" d="M43.89,16.39c0.84,0.44,2.38,0.5,3.23,0.44c7.75-0.59,30.02-3.33,36.48-3.36c1.4-0.01,2.24,0.21,2.95,0.42" id="kvg:050f9-s3" kvg:type="㇐" transform="matrix(1,0,0,1,196,-4)" xmlns:kvg="http://kanjivg.tagaini.net"></path><path class="stroke_order_diagram--current_path" d="M43.89,16.39c0.84,0.44,2.38,0.5,3.23,0.44c7.75-0.59,30.02-3.33,36.48-3.36c1.4-0.01,2.24,0.21,2.95,0.42" id="Ske2ckswzz" kvg:type="㇐" transform="matrix(1,0,0,1,196,-4)" xmlns:kvg="http://kanjivg.tagaini.net"></path><circle class="stroke_order_diagram--path_start" cx="43.89" cy="16.39" r="4" transform="matrix(1,0,0,1,196,-4)"></circle><line class="stroke_order_diagram--guide_line" x1="350" x2="350" y1="1" y2="99"></line><line class="stroke_order_diagram--bounding_box" x1="399" x2="399" y1="1" y2="99"></line><path class="stroke_order_diagram--existing_path" d="M32.44,17c0.13,1.16,0.23,2.62-0.12,4.05c-2.19,9.04-10.64,26.52-20.82,38.77" id="Ske2ckswz12" kvg:type="㇒" transform="matrix(1,0,0,1,296,-4)" xmlns:kvg="http://kanjivg.tagaini.net"></path><path class="stroke_order_diagram--existing_path" d="M27.46,40.11c0.62,0.64,0.79,2.05,0.79,3.37c0,13.58-0.3,41.88-0.3,51.01" id="Ske2ckswz13" kvg:type="㇑" transform="matrix(1,0,0,1,296,-4)" xmlns:kvg="http://kanjivg.tagaini.net"></path><path class="stroke_order_diagram--existing_path" d="M43.89,16.39c0.84,0.44,2.38,0.5,3.23,0.44c7.75-0.59,30.02-3.33,36.48-3.36c1.4-0.01,2.24,0.21,2.95,0.42" id="Ske2ckswz14" kvg:type="㇐" transform="matrix(1,0,0,1,296,-4)" xmlns:kvg="http://kanjivg.tagaini.net"></path><path class="stroke_order_diagram--current_path" d="M38.75,28.92c0.35,0.29,0.71,0.53,0.86,0.9c1.21,2.88,2.23,9.47,3.06,14.64" id="kvg:050f9-s4" kvg:type="㇑" transform="matrix(1,0,0,1,296,-4)" xmlns:kvg="http://kanjivg.tagaini.net"></path><path class="stroke_order_diagram--current_path" d="M38.75,28.92c0.35,0.29,0.71,0.53,0.86,0.9c1.21,2.88,2.23,9.47,3.06,14.64" id="Ske2ckswz16" kvg:type="㇑" transform="matrix(1,0,0,1,296,-4)" xmlns:kvg="http://kanjivg.tagaini.net"></path><circle class="stroke_order_diagram--path_start" cx="38.75" cy="28.92" r="4" transform="matrix(1,0,0,1,296,-4)"></circle><line class="stroke_order_diagram--guide_line" x1="450" x2="450" y1="1" y2="99"></line><line class="stroke_order_diagram--bounding_box" x1="499" x2="499" y1="1" y2="99"></line><path class="stroke_order_diagram--existing_path" d="M32.44,17c0.13,1.16,0.23,2.62-0.12,4.05c-2.19,9.04-10.64,26.52-20.82,38.77" id="Ske2ckswz19" kvg:type="㇒" transform="matrix(1,0,0,1,396,-4)" xmlns:kvg="http://kanjivg.tagaini.net"></path><path class="stroke_order_diagram--existing_path" d="M27.46,40.11c0.62,0.64,0.79,2.05,0.79,3.37c0,13.58-0.3,41.88-0.3,51.01" id="Ske2ckswz1a" kvg:type="㇑" transform="matrix(1,0,0,1,396,-4)" xmlns:kvg="http://kanjivg.tagaini.net"></path><path class="stroke_order_diagram--existing_path" d="M43.89,16.39c0.84,0.44,2.38,0.5,3.23,0.44c7.75-0.59,30.02-3.33,36.48-3.36c1.4-0.01,2.24,0.21,2.95,0.42" id="Ske2ckswz1b" kvg:type="㇐" transform="matrix(1,0,0,1,396,-4)" xmlns:kvg="http://kanjivg.tagaini.net"></path><path class="stroke_order_diagram--existing_path" d="M38.75,28.92c0.35,0.29,0.71,0.53,0.86,0.9c1.21,2.88,2.23,9.47,3.06,14.64" id="Ske2ckswz1c" kvg:type="㇑" transform="matrix(1,0,0,1,396,-4)" xmlns:kvg="http://kanjivg.tagaini.net"></path><path class="stroke_order_diagram--current_path" d="M40.92,29.91c8.55-1.21,43.92-5.04,48.33-5.45c1.61-0.15,2.58,1.5,2.35,2.38c-0.96,3.63-1.19,8.13-3.24,13.36" id="kvg:050f9-s5" kvg:type="㇕a" transform="matrix(1,0,0,1,396,-4)" xmlns:kvg="http://kanjivg.tagaini.net"></path><path class="stroke_order_diagram--current_path" d="M40.92,29.91c8.55-1.21,43.92-5.04,48.33-5.45c1.61-0.15,2.58,1.5,2.35,2.38c-0.96,3.63-1.19,8.13-3.24,13.36" id="Ske2ckswz1e" kvg:type="㇕a" transform="matrix(1,0,0,1,396,-4)" xmlns:kvg="http://kanjivg.tagaini.net"></path><circle class="stroke_order_diagram--path_start" cx="40.92" cy="29.91" r="4" transform="matrix(1,0,0,1,396,-4)"></circle><line class="stroke_order_diagram--guide_line" x1="550" x2="550" y1="1" y2="99"></line><line class="stroke_order_diagram--bounding_box" x1="599" x2="599" y1="1" y2="99"></line><path class="stroke_order_diagram--existing_path" d="M32.44,17c0.13,1.16,0.23,2.62-0.12,4.05c-2.19,9.04-10.64,26.52-20.82,38.77" id="Ske2ckswz1h" kvg:type="㇒" transform="matrix(1,0,0,1,496,-4)" xmlns:kvg="http://kanjivg.tagaini.net"></path><path class="stroke_order_diagram--existing_path" d="M27.46,40.11c0.62,0.64,0.79,2.05,0.79,3.37c0,13.58-0.3,41.88-0.3,51.01" id="Ske2ckswz1i" kvg:type="㇑" transform="matrix(1,0,0,1,496,-4)" xmlns:kvg="http://kanjivg.tagaini.net"></path><path class="stroke_order_diagram--existing_path" d="M43.89,16.39c0.84,0.44,2.38,0.5,3.23,0.44c7.75-0.59,30.02-3.33,36.48-3.36c1.4-0.01,2.24,0.21,2.95,0.42" id="Ske2ckswz1j" kvg:type="㇐" transform="matrix(1,0,0,1,496,-4)" xmlns:kvg="http://kanjivg.tagaini.net"></path><path class="stroke_order_diagram--existing_path" d="M38.75,28.92c0.35,0.29,0.71,0.53,0.86,0.9c1.21,2.88,2.23,9.47,3.06,14.64" id="Ske2ckswz1k" kvg:type="㇑" transform="matrix(1,0,0,1,496,-4)" xmlns:kvg="http://kanjivg.tagaini.net"></path><path class="stroke_order_diagram--existing_path" d="M40.92,29.91c8.55-1.21,43.92-5.04,48.33-5.45c1.61-0.15,2.58,1.5,2.35,2.38c-0.96,3.63-1.19,8.13-3.24,13.36" id="Ske2ckswz1l" kvg:type="㇕a" transform="matrix(1,0,0,1,496,-4)" xmlns:kvg="http://kanjivg.tagaini.net"></path><path class="stroke_order_diagram--current_path" d="M54.81,19.66c0.93,0.46,1.55,2.04,1.67,2.97c0.36,2.74,0.77,11.12,1.07,18.45" id="kvg:050f9-s6" kvg:type="㇒" transform="matrix(1,0,0,1,496,-4)" xmlns:kvg="http://kanjivg.tagaini.net"></path><path class="stroke_order_diagram--current_path" d="M54.81,19.66c0.93,0.46,1.55,2.04,1.67,2.97c0.36,2.74,0.77,11.12,1.07,18.45" id="Ske2ckswz1n" kvg:type="㇒" transform="matrix(1,0,0,1,496,-4)" xmlns:kvg="http://kanjivg.tagaini.net"></path><circle class="stroke_order_diagram--path_start" cx="54.81" cy="19.66" r="4" transform="matrix(1,0,0,1,496,-4)"></circle><line class="stroke_order_diagram--guide_line" x1="650" x2="650" y1="1" y2="99"></line><line class="stroke_order_diagram--bounding_box" x1="699" x2="699" y1="1" y2="99"></line><path class="stroke_order_diagram--existing_path" d="M32.44,17c0.13,1.16,0.23,2.62-0.12,4.05c-2.19,9.04-10.64,26.52-20.82,38.77" id="Ske2ckswz1q" kvg:type="㇒" transform="matrix(1,0,0,1,596,-4)" xmlns:kvg="http://kanjivg.tagaini.net"></path><path class="stroke_order_diagram--existing_path" d="M27.46,40.11c0.62,0.64,0.79,2.05,0.79,3.37c0,13.58-0.3,41.88-0.3,51.01" id="Ske2ckswz1r" kvg:type="㇑" transform="matrix(1,0,0,1,596,-4)" xmlns:kvg="http://kanjivg.tagaini.net"></path><path class="stroke_order_diagram--existing_path" d="M43.89,16.39c0.84,0.44,2.38,0.5,3.23,0.44c7.75-0.59,30.02-3.33,36.48-3.36c1.4-0.01,2.24,0.21,2.95,0.42" id="Ske2ckswz1s" kvg:type="㇐" transform="matrix(1,0,0,1,596,-4)" xmlns:kvg="http://kanjivg.tagaini.net"></path><path class="stroke_order_diagram--existing_path" d="M38.75,28.92c0.35,0.29,0.71,0.53,0.86,0.9c1.21,2.88,2.23,9.47,3.06,14.64" id="Ske2ckswz1t" kvg:type="㇑" transform="matrix(1,0,0,1,596,-4)" xmlns:kvg="http://kanjivg.tagaini.net"></path><path class="stroke_order_diagram--existing_path" d="M40.92,29.91c8.55-1.21,43.92-5.04,48.33-5.45c1.61-0.15,2.58,1.5,2.35,2.38c-0.96,3.63-1.19,8.13-3.24,13.36" id="Ske2ckswz1u" kvg:type="㇕a" transform="matrix(1,0,0,1,596,-4)" xmlns:kvg="http://kanjivg.tagaini.net"></path><path class="stroke_order_diagram--existing_path" d="M54.81,19.66c0.93,0.46,1.55,2.04,1.67,2.97c0.36,2.74,0.77,11.12,1.07,18.45" id="Ske2ckswz1v" kvg:type="㇒" transform="matrix(1,0,0,1,596,-4)" xmlns:kvg="http://kanjivg.tagaini.net"></path><path class="stroke_order_diagram--current_path" d="M73.04,16.88c0.93,0.46,1.21,2.48,0.97,4.57c-0.64,5.48-0.75,10.56-1.49,17.62" id="kvg:050f9-s7" kvg:type="㇟a" transform="matrix(1,0,0,1,596,-4)" xmlns:kvg="http://kanjivg.tagaini.net"></path><path class="stroke_order_diagram--current_path" d="M73.04,16.88c0.93,0.46,1.21,2.48,0.97,4.57c-0.64,5.48-0.75,10.56-1.49,17.62" id="Ske2ckswz1x" kvg:type="㇟a" transform="matrix(1,0,0,1,596,-4)" xmlns:kvg="http://kanjivg.tagaini.net"></path><circle class="stroke_order_diagram--path_start" cx="73.04" cy="16.88" r="4" transform="matrix(1,0,0,1,596,-4)"></circle><line class="stroke_order_diagram--guide_line" x1="750" x2="750" y1="1" y2="99"></line><line class="stroke_order_diagram--bounding_box" x1="799" x2="799" y1="1" y2="99"></line><path class="stroke_order_diagram--existing_path" d="M32.44,17c0.13,1.16,0.23,2.62-0.12,4.05c-2.19,9.04-10.64,26.52-20.82,38.77" id="Ske2ckswz20" kvg:type="㇒" transform="matrix(1,0,0,1,696,-4)" xmlns:kvg="http://kanjivg.tagaini.net"></path><path class="stroke_order_diagram--existing_path" d="M27.46,40.11c0.62,0.64,0.79,2.05,0.79,3.37c0,13.58-0.3,41.88-0.3,51.01" id="Ske2ckswz21" kvg:type="㇑" transform="matrix(1,0,0,1,696,-4)" xmlns:kvg="http://kanjivg.tagaini.net"></path><path class="stroke_order_diagram--existing_path" d="M43.89,16.39c0.84,0.44,2.38,0.5,3.23,0.44c7.75-0.59,30.02-3.33,36.48-3.36c1.4-0.01,2.24,0.21,2.95,0.42" id="Ske2ckswz22" kvg:type="㇐" transform="matrix(1,0,0,1,696,-4)" xmlns:kvg="http://kanjivg.tagaini.net"></path><path class="stroke_order_diagram--existing_path" d="M38.75,28.92c0.35,0.29,0.71,0.53,0.86,0.9c1.21,2.88,2.23,9.47,3.06,14.64" id="Ske2ckswz23" kvg:type="㇑" transform="matrix(1,0,0,1,696,-4)" xmlns:kvg="http://kanjivg.tagaini.net"></path><path class="stroke_order_diagram--existing_path" d="M40.92,29.91c8.55-1.21,43.92-5.04,48.33-5.45c1.61-0.15,2.58,1.5,2.35,2.38c-0.96,3.63-1.19,8.13-3.24,13.36" id="Ske2ckswz24" kvg:type="㇕a" transform="matrix(1,0,0,1,696,-4)" xmlns:kvg="http://kanjivg.tagaini.net"></path><path class="stroke_order_diagram--existing_path" d="M54.81,19.66c0.93,0.46,1.55,2.04,1.67,2.97c0.36,2.74,0.77,11.12,1.07,18.45" id="Ske2ckswz25" kvg:type="㇒" transform="matrix(1,0,0,1,696,-4)" xmlns:kvg="http://kanjivg.tagaini.net"></path><path class="stroke_order_diagram--existing_path" d="M73.04,16.88c0.93,0.46,1.21,2.48,0.97,4.57c-0.64,5.48-0.75,10.56-1.49,17.62" id="Ske2ckswz26" kvg:type="㇟a" transform="matrix(1,0,0,1,696,-4)" xmlns:kvg="http://kanjivg.tagaini.net"></path><path class="stroke_order_diagram--current_path" d="M43.02,42.56c5.18-0.46,39.53-3.72,46.1-4.18" id="kvg:050f9-s8" kvg:type="㇐a" transform="matrix(1,0,0,1,696,-4)" xmlns:kvg="http://kanjivg.tagaini.net"></path><path class="stroke_order_diagram--current_path" d="M43.02,42.56c5.18-0.46,39.53-3.72,46.1-4.18" id="Ske2ckswz28" kvg:type="㇐a" transform="matrix(1,0,0,1,696,-4)" xmlns:kvg="http://kanjivg.tagaini.net"></path><circle class="stroke_order_diagram--path_start" cx="43.02" cy="42.56" r="4" transform="matrix(1,0,0,1,696,-4)"></circle><line class="stroke_order_diagram--guide_line" x1="850" x2="850" y1="1" y2="99"></line><line class="stroke_order_diagram--bounding_box" x1="899" x2="899" y1="1" y2="99"></line><path class="stroke_order_diagram--existing_path" d="M32.44,17c0.13,1.16,0.23,2.62-0.12,4.05c-2.19,9.04-10.64,26.52-20.82,38.77" id="Ske2ckswz2b" kvg:type="㇒" transform="matrix(1,0,0,1,796,-4)" xmlns:kvg="http://kanjivg.tagaini.net"></path><path class="stroke_order_diagram--existing_path" d="M27.46,40.11c0.62,0.64,0.79,2.05,0.79,3.37c0,13.58-0.3,41.88-0.3,51.01" id="Ske2ckswz2c" kvg:type="㇑" transform="matrix(1,0,0,1,796,-4)" xmlns:kvg="http://kanjivg.tagaini.net"></path><path class="stroke_order_diagram--existing_path" d="M43.89,16.39c0.84,0.44,2.38,0.5,3.23,0.44c7.75-0.59,30.02-3.33,36.48-3.36c1.4-0.01,2.24,0.21,2.95,0.42" id="Ske2ckswz2d" kvg:type="㇐" transform="matrix(1,0,0,1,796,-4)" xmlns:kvg="http://kanjivg.tagaini.net"></path><path class="stroke_order_diagram--existing_path" d="M38.75,28.92c0.35,0.29,0.71,0.53,0.86,0.9c1.21,2.88,2.23,9.47,3.06,14.64" id="Ske2ckswz2e" kvg:type="㇑" transform="matrix(1,0,0,1,796,-4)" xmlns:kvg="http://kanjivg.tagaini.net"></path><path class="stroke_order_diagram--existing_path" d="M40.92,29.91c8.55-1.21,43.92-5.04,48.33-5.45c1.61-0.15,2.58,1.5,2.35,2.38c-0.96,3.63-1.19,8.13-3.24,13.36" id="Ske2ckswz2f" kvg:type="㇕a" transform="matrix(1,0,0,1,796,-4)" xmlns:kvg="http://kanjivg.tagaini.net"></path><path class="stroke_order_diagram--existing_path" d="M54.81,19.66c0.93,0.46,1.55,2.04,1.67,2.97c0.36,2.74,0.77,11.12,1.07,18.45" id="Ske2ckswz2g" kvg:type="㇒" transform="matrix(1,0,0,1,796,-4)" xmlns:kvg="http://kanjivg.tagaini.net"></path><path class="stroke_order_diagram--existing_path" d="M73.04,16.88c0.93,0.46,1.21,2.48,0.97,4.57c-0.64,5.48-0.75,10.56-1.49,17.62" id="Ske2ckswz2h" kvg:type="㇟a" transform="matrix(1,0,0,1,796,-4)" xmlns:kvg="http://kanjivg.tagaini.net"></path><path class="stroke_order_diagram--existing_path" d="M43.02,42.56c5.18-0.46,39.53-3.72,46.1-4.18" id="Ske2ckswz2i" kvg:type="㇐a" transform="matrix(1,0,0,1,796,-4)" xmlns:kvg="http://kanjivg.tagaini.net"></path><path class="stroke_order_diagram--current_path" d="M48.67,50.51c0.53,0.78,1.31,2.35,1.31,3.39c0,1.05,0.02,23.34,0.11,29.87" id="kvg:050f9-s9" kvg:type="㇑" transform="matrix(1,0,0,1,796,-4)" xmlns:kvg="http://kanjivg.tagaini.net"></path><path class="stroke_order_diagram--current_path" d="M48.67,50.51c0.53,0.78,1.31,2.35,1.31,3.39c0,1.05,0.02,23.34,0.11,29.87" id="Ske2ckswz2k" kvg:type="㇑" transform="matrix(1,0,0,1,796,-4)" xmlns:kvg="http://kanjivg.tagaini.net"></path><circle class="stroke_order_diagram--path_start" cx="48.67" cy="50.51" r="4" transform="matrix(1,0,0,1,796,-4)"></circle><line class="stroke_order_diagram--guide_line" x1="950" x2="950" y1="1" y2="99"></line><line class="stroke_order_diagram--bounding_box" x1="999" x2="999" y1="1" y2="99"></line><path class="stroke_order_diagram--existing_path" d="M32.44,17c0.13,1.16,0.23,2.62-0.12,4.05c-2.19,9.04-10.64,26.52-20.82,38.77" id="Ske2ckswz2n" kvg:type="㇒" transform="matrix(1,0,0,1,896,-4)" xmlns:kvg="http://kanjivg.tagaini.net"></path><path class="stroke_order_diagram--existing_path" d="M27.46,40.11c0.62,0.64,0.79,2.05,0.79,3.37c0,13.58-0.3,41.88-0.3,51.01" id="Ske2ckswz2o" kvg:type="㇑" transform="matrix(1,0,0,1,896,-4)" xmlns:kvg="http://kanjivg.tagaini.net"></path><path class="stroke_order_diagram--existing_path" d="M43.89,16.39c0.84,0.44,2.38,0.5,3.23,0.44c7.75-0.59,30.02-3.33,36.48-3.36c1.4-0.01,2.24,0.21,2.95,0.42" id="Ske2ckswz2p" kvg:type="㇐" transform="matrix(1,0,0,1,896,-4)" xmlns:kvg="http://kanjivg.tagaini.net"></path><path class="stroke_order_diagram--existing_path" d="M38.75,28.92c0.35,0.29,0.71,0.53,0.86,0.9c1.21,2.88,2.23,9.47,3.06,14.64" id="Ske2ckswz2q" kvg:type="㇑" transform="matrix(1,0,0,1,896,-4)" xmlns:kvg="http://kanjivg.tagaini.net"></path><path class="stroke_order_diagram--existing_path" d="M40.92,29.91c8.55-1.21,43.92-5.04,48.33-5.45c1.61-0.15,2.58,1.5,2.35,2.38c-0.96,3.63-1.19,8.13-3.24,13.36" id="Ske2ckswz2r" kvg:type="㇕a" transform="matrix(1,0,0,1,896,-4)" xmlns:kvg="http://kanjivg.tagaini.net"></path><path class="stroke_order_diagram--existing_path" d="M54.81,19.66c0.93,0.46,1.55,2.04,1.67,2.97c0.36,2.74,0.77,11.12,1.07,18.45" id="Ske2ckswz2s" kvg:type="㇒" transform="matrix(1,0,0,1,896,-4)" xmlns:kvg="http://kanjivg.tagaini.net"></path><path class="stroke_order_diagram--existing_path" d="M73.04,16.88c0.93,0.46,1.21,2.48,0.97,4.57c-0.64,5.48-0.75,10.56-1.49,17.62" id="Ske2ckswz2t" kvg:type="㇟a" transform="matrix(1,0,0,1,896,-4)" xmlns:kvg="http://kanjivg.tagaini.net"></path><path class="stroke_order_diagram--existing_path" d="M43.02,42.56c5.18-0.46,39.53-3.72,46.1-4.18" id="Ske2ckswz2u" kvg:type="㇐a" transform="matrix(1,0,0,1,896,-4)" xmlns:kvg="http://kanjivg.tagaini.net"></path><path class="stroke_order_diagram--existing_path" d="M48.67,50.51c0.53,0.78,1.31,2.35,1.31,3.39c0,1.05,0.02,23.34,0.11,29.87" id="Ske2ckswz2v" kvg:type="㇑" transform="matrix(1,0,0,1,896,-4)" xmlns:kvg="http://kanjivg.tagaini.net"></path><path class="stroke_order_diagram--current_path" d="M50.86,51.42c3-0.13,25.9-3.27,28.63-3.43c2.28-0.13,3.5,1.72,3.5,2.7c0,2.39-0.67,28.98-0.67,29.77" id="kvg:050f9-s10" kvg:type="㇕a" transform="matrix(1,0,0,1,896,-4)" xmlns:kvg="http://kanjivg.tagaini.net"></path><path class="stroke_order_diagram--current_path" d="M50.86,51.42c3-0.13,25.9-3.27,28.63-3.43c2.28-0.13,3.5,1.72,3.5,2.7c0,2.39-0.67,28.98-0.67,29.77" id="Ske2ckswz2x" kvg:type="㇕a" transform="matrix(1,0,0,1,896,-4)" xmlns:kvg="http://kanjivg.tagaini.net"></path><circle class="stroke_order_diagram--path_start" cx="50.86" cy="51.42" r="4" transform="matrix(1,0,0,1,896,-4)"></circle><line class="stroke_order_diagram--guide_line" x1="1050" x2="1050" y1="1" y2="99"></line><line class="stroke_order_diagram--bounding_box" x1="1099" x2="1099" y1="1" y2="99"></line><path class="stroke_order_diagram--existing_path" d="M32.44,17c0.13,1.16,0.23,2.62-0.12,4.05c-2.19,9.04-10.64,26.52-20.82,38.77" id="Ske2ckswz30" kvg:type="㇒" transform="matrix(1,0,0,1,996,-4)" xmlns:kvg="http://kanjivg.tagaini.net"></path><path class="stroke_order_diagram--existing_path" d="M27.46,40.11c0.62,0.64,0.79,2.05,0.79,3.37c0,13.58-0.3,41.88-0.3,51.01" id="Ske2ckswz31" kvg:type="㇑" transform="matrix(1,0,0,1,996,-4)" xmlns:kvg="http://kanjivg.tagaini.net"></path><path class="stroke_order_diagram--existing_path" d="M43.89,16.39c0.84,0.44,2.38,0.5,3.23,0.44c7.75-0.59,30.02-3.33,36.48-3.36c1.4-0.01,2.24,0.21,2.95,0.42" id="Ske2ckswz32" kvg:type="㇐" transform="matrix(1,0,0,1,996,-4)" xmlns:kvg="http://kanjivg.tagaini.net"></path><path class="stroke_order_diagram--existing_path" d="M38.75,28.92c0.35,0.29,0.71,0.53,0.86,0.9c1.21,2.88,2.23,9.47,3.06,14.64" id="Ske2ckswz33" kvg:type="㇑" transform="matrix(1,0,0,1,996,-4)" xmlns:kvg="http://kanjivg.tagaini.net"></path><path class="stroke_order_diagram--existing_path" d="M40.92,29.91c8.55-1.21,43.92-5.04,48.33-5.45c1.61-0.15,2.58,1.5,2.35,2.38c-0.96,3.63-1.19,8.13-3.24,13.36" id="Ske2ckswz34" kvg:type="㇕a" transform="matrix(1,0,0,1,996,-4)" xmlns:kvg="http://kanjivg.tagaini.net"></path><path class="stroke_order_diagram--existing_path" d="M54.81,19.66c0.93,0.46,1.55,2.04,1.67,2.97c0.36,2.74,0.77,11.12,1.07,18.45" id="Ske2ckswz35" kvg:type="㇒" transform="matrix(1,0,0,1,996,-4)" xmlns:kvg="http://kanjivg.tagaini.net"></path><path class="stroke_order_diagram--existing_path" d="M73.04,16.88c0.93,0.46,1.21,2.48,0.97,4.57c-0.64,5.48-0.75,10.56-1.49,17.62" id="Ske2ckswz36" kvg:type="㇟a" transform="matrix(1,0,0,1,996,-4)" xmlns:kvg="http://kanjivg.tagaini.net"></path><path class="stroke_order_diagram--existing_path" d="M43.02,42.56c5.18-0.46,39.53-3.72,46.1-4.18" id="Ske2ckswz37" kvg:type="㇐a" transform="matrix(1,0,0,1,996,-4)" xmlns:kvg="http://kanjivg.tagaini.net"></path><path class="stroke_order_diagram--existing_path" d="M48.67,50.51c0.53,0.78,1.31,2.35,1.31,3.39c0,1.05,0.02,23.34,0.11,29.87" id="Ske2ckswz38" kvg:type="㇑" transform="matrix(1,0,0,1,996,-4)" xmlns:kvg="http://kanjivg.tagaini.net"></path><path class="stroke_order_diagram--existing_path" d="M50.86,51.42c3-0.13,25.9-3.27,28.63-3.43c2.28-0.13,3.5,1.72,3.5,2.7c0,2.39-0.67,28.98-0.67,29.77" id="Ske2ckswz39" kvg:type="㇕a" transform="matrix(1,0,0,1,996,-4)" xmlns:kvg="http://kanjivg.tagaini.net"></path><path class="stroke_order_diagram--current_path" d="M50.04,61.5c7.21-0.75,27.4-3.12,32.21-3.12" id="kvg:050f9-s11" kvg:type="㇐a" transform="matrix(1,0,0,1,996,-4)" xmlns:kvg="http://kanjivg.tagaini.net"></path><path class="stroke_order_diagram--current_path" d="M50.04,61.5c7.21-0.75,27.4-3.12,32.21-3.12" id="Ske2ckswz3b" kvg:type="㇐a" transform="matrix(1,0,0,1,996,-4)" xmlns:kvg="http://kanjivg.tagaini.net"></path><circle class="stroke_order_diagram--path_start" cx="50.04" cy="61.5" r="4" transform="matrix(1,0,0,1,996,-4)"></circle><line class="stroke_order_diagram--guide_line" x1="1150" x2="1150" y1="1" y2="99"></line><line class="stroke_order_diagram--bounding_box" x1="1199" x2="1199" y1="1" y2="99"></line><path class="stroke_order_diagram--existing_path" d="M32.44,17c0.13,1.16,0.23,2.62-0.12,4.05c-2.19,9.04-10.64,26.52-20.82,38.77" id="Ske2ckswz3e" kvg:type="㇒" transform="matrix(1,0,0,1,1096,-4)" xmlns:kvg="http://kanjivg.tagaini.net"></path><path class="stroke_order_diagram--existing_path" d="M27.46,40.11c0.62,0.64,0.79,2.05,0.79,3.37c0,13.58-0.3,41.88-0.3,51.01" id="Ske2ckswz3f" kvg:type="㇑" transform="matrix(1,0,0,1,1096,-4)" xmlns:kvg="http://kanjivg.tagaini.net"></path><path class="stroke_order_diagram--existing_path" d="M43.89,16.39c0.84,0.44,2.38,0.5,3.23,0.44c7.75-0.59,30.02-3.33,36.48-3.36c1.4-0.01,2.24,0.21,2.95,0.42" id="Ske2ckswz3g" kvg:type="㇐" transform="matrix(1,0,0,1,1096,-4)" xmlns:kvg="http://kanjivg.tagaini.net"></path><path class="stroke_order_diagram--existing_path" d="M38.75,28.92c0.35,0.29,0.71,0.53,0.86,0.9c1.21,2.88,2.23,9.47,3.06,14.64" id="Ske2ckswz3h" kvg:type="㇑" transform="matrix(1,0,0,1,1096,-4)" xmlns:kvg="http://kanjivg.tagaini.net"></path><path class="stroke_order_diagram--existing_path" d="M40.92,29.91c8.55-1.21,43.92-5.04,48.33-5.45c1.61-0.15,2.58,1.5,2.35,2.38c-0.96,3.63-1.19,8.13-3.24,13.36" id="Ske2ckswz3i" kvg:type="㇕a" transform="matrix(1,0,0,1,1096,-4)" xmlns:kvg="http://kanjivg.tagaini.net"></path><path class="stroke_order_diagram--existing_path" d="M54.81,19.66c0.93,0.46,1.55,2.04,1.67,2.97c0.36,2.74,0.77,11.12,1.07,18.45" id="Ske2ckswz3j" kvg:type="㇒" transform="matrix(1,0,0,1,1096,-4)" xmlns:kvg="http://kanjivg.tagaini.net"></path><path class="stroke_order_diagram--existing_path" d="M73.04,16.88c0.93,0.46,1.21,2.48,0.97,4.57c-0.64,5.48-0.75,10.56-1.49,17.62" id="Ske2ckswz3k" kvg:type="㇟a" transform="matrix(1,0,0,1,1096,-4)" xmlns:kvg="http://kanjivg.tagaini.net"></path><path class="stroke_order_diagram--existing_path" d="M43.02,42.56c5.18-0.46,39.53-3.72,46.1-4.18" id="Ske2ckswz3l" kvg:type="㇐a" transform="matrix(1,0,0,1,1096,-4)" xmlns:kvg="http://kanjivg.tagaini.net"></path><path class="stroke_order_diagram--existing_path" d="M48.67,50.51c0.53,0.78,1.31,2.35,1.31,3.39c0,1.05,0.02,23.34,0.11,29.87" id="Ske2ckswz3m" kvg:type="㇑" transform="matrix(1,0,0,1,1096,-4)" xmlns:kvg="http://kanjivg.tagaini.net"></path><path class="stroke_order_diagram--existing_path" d="M50.86,51.42c3-0.13,25.9-3.27,28.63-3.43c2.28-0.13,3.5,1.72,3.5,2.7c0,2.39-0.67,28.98-0.67,29.77" id="Ske2ckswz3n" kvg:type="㇕a" transform="matrix(1,0,0,1,1096,-4)" xmlns:kvg="http://kanjivg.tagaini.net"></path><path class="stroke_order_diagram--existing_path" d="M50.04,61.5c7.21-0.75,27.4-3.12,32.21-3.12" id="Ske2ckswz3o" kvg:type="㇐a" transform="matrix(1,0,0,1,1096,-4)" xmlns:kvg="http://kanjivg.tagaini.net"></path><path class="stroke_order_diagram--current_path" d="M50.28,71.41c8.47-0.58,23.02-2.75,32-2.86" id="kvg:050f9-s12" kvg:type="㇐a" transform="matrix(1,0,0,1,1096,-4)" xmlns:kvg="http://kanjivg.tagaini.net"></path><path class="stroke_order_diagram--current_path" d="M50.28,71.41c8.47-0.58,23.02-2.75,32-2.86" id="Ske2ckswz3q" kvg:type="㇐a" transform="matrix(1,0,0,1,1096,-4)" xmlns:kvg="http://kanjivg.tagaini.net"></path><circle class="stroke_order_diagram--path_start" cx="50.28" cy="71.41" r="4" transform="matrix(1,0,0,1,1096,-4)"></circle><line class="stroke_order_diagram--guide_line" x1="1250" x2="1250" y1="1" y2="99"></line><line class="stroke_order_diagram--bounding_box" x1="1299" x2="1299" y1="1" y2="99"></line><path class="stroke_order_diagram--existing_path" d="M32.44,17c0.13,1.16,0.23,2.62-0.12,4.05c-2.19,9.04-10.64,26.52-20.82,38.77" id="Ske2ckswz3t" kvg:type="㇒" transform="matrix(1,0,0,1,1196,-4)" xmlns:kvg="http://kanjivg.tagaini.net"></path><path class="stroke_order_diagram--existing_path" d="M27.46,40.11c0.62,0.64,0.79,2.05,0.79,3.37c0,13.58-0.3,41.88-0.3,51.01" id="Ske2ckswz3u" kvg:type="㇑" transform="matrix(1,0,0,1,1196,-4)" xmlns:kvg="http://kanjivg.tagaini.net"></path><path class="stroke_order_diagram--existing_path" d="M43.89,16.39c0.84,0.44,2.38,0.5,3.23,0.44c7.75-0.59,30.02-3.33,36.48-3.36c1.4-0.01,2.24,0.21,2.95,0.42" id="Ske2ckswz3v" kvg:type="㇐" transform="matrix(1,0,0,1,1196,-4)" xmlns:kvg="http://kanjivg.tagaini.net"></path><path class="stroke_order_diagram--existing_path" d="M38.75,28.92c0.35,0.29,0.71,0.53,0.86,0.9c1.21,2.88,2.23,9.47,3.06,14.64" id="Ske2ckswz3w" kvg:type="㇑" transform="matrix(1,0,0,1,1196,-4)" xmlns:kvg="http://kanjivg.tagaini.net"></path><path class="stroke_order_diagram--existing_path" d="M40.92,29.91c8.55-1.21,43.92-5.04,48.33-5.45c1.61-0.15,2.58,1.5,2.35,2.38c-0.96,3.63-1.19,8.13-3.24,13.36" id="Ske2ckswz3x" kvg:type="㇕a" transform="matrix(1,0,0,1,1196,-4)" xmlns:kvg="http://kanjivg.tagaini.net"></path><path class="stroke_order_diagram--existing_path" d="M54.81,19.66c0.93,0.46,1.55,2.04,1.67,2.97c0.36,2.74,0.77,11.12,1.07,18.45" id="Ske2ckswz3y" kvg:type="㇒" transform="matrix(1,0,0,1,1196,-4)" xmlns:kvg="http://kanjivg.tagaini.net"></path><path class="stroke_order_diagram--existing_path" d="M73.04,16.88c0.93,0.46,1.21,2.48,0.97,4.57c-0.64,5.48-0.75,10.56-1.49,17.62" id="Ske2ckswz3z" kvg:type="㇟a" transform="matrix(1,0,0,1,1196,-4)" xmlns:kvg="http://kanjivg.tagaini.net"></path><path class="stroke_order_diagram--existing_path" d="M43.02,42.56c5.18-0.46,39.53-3.72,46.1-4.18" id="Ske2ckswz40" kvg:type="㇐a" transform="matrix(1,0,0,1,1196,-4)" xmlns:kvg="http://kanjivg.tagaini.net"></path><path class="stroke_order_diagram--existing_path" d="M48.67,50.51c0.53,0.78,1.31,2.35,1.31,3.39c0,1.05,0.02,23.34,0.11,29.87" id="Ske2ckswz41" kvg:type="㇑" transform="matrix(1,0,0,1,1196,-4)" xmlns:kvg="http://kanjivg.tagaini.net"></path><path class="stroke_order_diagram--existing_path" d="M50.86,51.42c3-0.13,25.9-3.27,28.63-3.43c2.28-0.13,3.5,1.72,3.5,2.7c0,2.39-0.67,28.98-0.67,29.77" id="Ske2ckswz42" kvg:type="㇕a" transform="matrix(1,0,0,1,1196,-4)" xmlns:kvg="http://kanjivg.tagaini.net"></path><path class="stroke_order_diagram--existing_path" d="M50.04,61.5c7.21-0.75,27.4-3.12,32.21-3.12" id="Ske2ckswz43" kvg:type="㇐a" transform="matrix(1,0,0,1,1196,-4)" xmlns:kvg="http://kanjivg.tagaini.net"></path><path class="stroke_order_diagram--existing_path" d="M50.28,71.41c8.47-0.58,23.02-2.75,32-2.86" id="Ske2ckswz44" kvg:type="㇐a" transform="matrix(1,0,0,1,1196,-4)" xmlns:kvg="http://kanjivg.tagaini.net"></path><path class="stroke_order_diagram--current_path" d="M50.39,81.72c8.48-0.43,23.66-2.57,31.39-2.57" id="kvg:050f9-s13" kvg:type="㇐a" transform="matrix(1,0,0,1,1196,-4)" xmlns:kvg="http://kanjivg.tagaini.net"></path><path class="stroke_order_diagram--current_path" d="M50.39,81.72c8.48-0.43,23.66-2.57,31.39-2.57" id="Ske2ckswz46" kvg:type="㇐a" transform="matrix(1,0,0,1,1196,-4)" xmlns:kvg="http://kanjivg.tagaini.net"></path><circle class="stroke_order_diagram--path_start" cx="50.39" cy="81.72" r="4" transform="matrix(1,0,0,1,1196,-4)"></circle><line class="stroke_order_diagram--guide_line" x1="1350" x2="1350" y1="1" y2="99"></line><line class="stroke_order_diagram--bounding_box" x1="1399" x2="1399" y1="1" y2="99"></line><path class="stroke_order_diagram--existing_path" d="M32.44,17c0.13,1.16,0.23,2.62-0.12,4.05c-2.19,9.04-10.64,26.52-20.82,38.77" id="Ske2ckswz49" kvg:type="㇒" transform="matrix(1,0,0,1,1296,-4)" xmlns:kvg="http://kanjivg.tagaini.net"></path><path class="stroke_order_diagram--existing_path" d="M27.46,40.11c0.62,0.64,0.79,2.05,0.79,3.37c0,13.58-0.3,41.88-0.3,51.01" id="Ske2ckswz4a" kvg:type="㇑" transform="matrix(1,0,0,1,1296,-4)" xmlns:kvg="http://kanjivg.tagaini.net"></path><path class="stroke_order_diagram--existing_path" d="M43.89,16.39c0.84,0.44,2.38,0.5,3.23,0.44c7.75-0.59,30.02-3.33,36.48-3.36c1.4-0.01,2.24,0.21,2.95,0.42" id="Ske2ckswz4b" kvg:type="㇐" transform="matrix(1,0,0,1,1296,-4)" xmlns:kvg="http://kanjivg.tagaini.net"></path><path class="stroke_order_diagram--existing_path" d="M38.75,28.92c0.35,0.29,0.71,0.53,0.86,0.9c1.21,2.88,2.23,9.47,3.06,14.64" id="Ske2ckswz4c" kvg:type="㇑" transform="matrix(1,0,0,1,1296,-4)" xmlns:kvg="http://kanjivg.tagaini.net"></path><path class="stroke_order_diagram--existing_path" d="M40.92,29.91c8.55-1.21,43.92-5.04,48.33-5.45c1.61-0.15,2.58,1.5,2.35,2.38c-0.96,3.63-1.19,8.13-3.24,13.36" id="Ske2ckswz4d" kvg:type="㇕a" transform="matrix(1,0,0,1,1296,-4)" xmlns:kvg="http://kanjivg.tagaini.net"></path><path class="stroke_order_diagram--existing_path" d="M54.81,19.66c0.93,0.46,1.55,2.04,1.67,2.97c0.36,2.74,0.77,11.12,1.07,18.45" id="Ske2ckswz4e" kvg:type="㇒" transform="matrix(1,0,0,1,1296,-4)" xmlns:kvg="http://kanjivg.tagaini.net"></path><path class="stroke_order_diagram--existing_path" d="M73.04,16.88c0.93,0.46,1.21,2.48,0.97,4.57c-0.64,5.48-0.75,10.56-1.49,17.62" id="Ske2ckswz4f" kvg:type="㇟a" transform="matrix(1,0,0,1,1296,-4)" xmlns:kvg="http://kanjivg.tagaini.net"></path><path class="stroke_order_diagram--existing_path" d="M43.02,42.56c5.18-0.46,39.53-3.72,46.1-4.18" id="Ske2ckswz4g" kvg:type="㇐a" transform="matrix(1,0,0,1,1296,-4)" xmlns:kvg="http://kanjivg.tagaini.net"></path><path class="stroke_order_diagram--existing_path" d="M48.67,50.51c0.53,0.78,1.31,2.35,1.31,3.39c0,1.05,0.02,23.34,0.11,29.87" id="Ske2ckswz4h" kvg:type="㇑" transform="matrix(1,0,0,1,1296,-4)" xmlns:kvg="http://kanjivg.tagaini.net"></path><path class="stroke_order_diagram--existing_path" d="M50.86,51.42c3-0.13,25.9-3.27,28.63-3.43c2.28-0.13,3.5,1.72,3.5,2.7c0,2.39-0.67,28.98-0.67,29.77" id="Ske2ckswz4i" kvg:type="㇕a" transform="matrix(1,0,0,1,1296,-4)" xmlns:kvg="http://kanjivg.tagaini.net"></path><path class="stroke_order_diagram--existing_path" d="M50.04,61.5c7.21-0.75,27.4-3.12,32.21-3.12" id="Ske2ckswz4j" kvg:type="㇐a" transform="matrix(1,0,0,1,1296,-4)" xmlns:kvg="http://kanjivg.tagaini.net"></path><path class="stroke_order_diagram--existing_path" d="M50.28,71.41c8.47-0.58,23.02-2.75,32-2.86" id="Ske2ckswz4k" kvg:type="㇐a" transform="matrix(1,0,0,1,1296,-4)" xmlns:kvg="http://kanjivg.tagaini.net"></path><path class="stroke_order_diagram--existing_path" d="M50.39,81.72c8.48-0.43,23.66-2.57,31.39-2.57" id="Ske2ckswz4l" kvg:type="㇐a" transform="matrix(1,0,0,1,1296,-4)" xmlns:kvg="http://kanjivg.tagaini.net"></path><path class="stroke_order_diagram--current_path" d="M57.18,84.96c0.48,0.99-0.36,1.95-1.31,2.67c-2.86,2.17-10.39,6.8-16.12,9.37" id="kvg:050f9-s14" kvg:type="㇒" transform="matrix(1,0,0,1,1296,-4)" xmlns:kvg="http://kanjivg.tagaini.net"></path><path class="stroke_order_diagram--current_path" d="M57.18,84.96c0.48,0.99-0.36,1.95-1.31,2.67c-2.86,2.17-10.39,6.8-16.12,9.37" id="Ske2ckswz4n" kvg:type="㇒" transform="matrix(1,0,0,1,1296,-4)" xmlns:kvg="http://kanjivg.tagaini.net"></path><circle class="stroke_order_diagram--path_start" cx="57.18" cy="84.96" r="4" transform="matrix(1,0,0,1,1296,-4)"></circle><line class="stroke_order_diagram--guide_line" x1="1450" x2="1450" y1="1" y2="99"></line><line class="stroke_order_diagram--bounding_box" x1="1499" x2="1499" y1="1" y2="99"></line><path class="stroke_order_diagram--existing_path" d="M32.44,17c0.13,1.16,0.23,2.62-0.12,4.05c-2.19,9.04-10.64,26.52-20.82,38.77" id="Ske2ckswz4q" kvg:type="㇒" transform="matrix(1,0,0,1,1396,-4)" xmlns:kvg="http://kanjivg.tagaini.net"></path><path class="stroke_order_diagram--existing_path" d="M27.46,40.11c0.62,0.64,0.79,2.05,0.79,3.37c0,13.58-0.3,41.88-0.3,51.01" id="Ske2ckswz4r" kvg:type="㇑" transform="matrix(1,0,0,1,1396,-4)" xmlns:kvg="http://kanjivg.tagaini.net"></path><path class="stroke_order_diagram--existing_path" d="M43.89,16.39c0.84,0.44,2.38,0.5,3.23,0.44c7.75-0.59,30.02-3.33,36.48-3.36c1.4-0.01,2.24,0.21,2.95,0.42" id="Ske2ckswz4s" kvg:type="㇐" transform="matrix(1,0,0,1,1396,-4)" xmlns:kvg="http://kanjivg.tagaini.net"></path><path class="stroke_order_diagram--existing_path" d="M38.75,28.92c0.35,0.29,0.71,0.53,0.86,0.9c1.21,2.88,2.23,9.47,3.06,14.64" id="Ske2ckswz4t" kvg:type="㇑" transform="matrix(1,0,0,1,1396,-4)" xmlns:kvg="http://kanjivg.tagaini.net"></path><path class="stroke_order_diagram--existing_path" d="M40.92,29.91c8.55-1.21,43.92-5.04,48.33-5.45c1.61-0.15,2.58,1.5,2.35,2.38c-0.96,3.63-1.19,8.13-3.24,13.36" id="Ske2ckswz4u" kvg:type="㇕a" transform="matrix(1,0,0,1,1396,-4)" xmlns:kvg="http://kanjivg.tagaini.net"></path><path class="stroke_order_diagram--existing_path" d="M54.81,19.66c0.93,0.46,1.55,2.04,1.67,2.97c0.36,2.74,0.77,11.12,1.07,18.45" id="Ske2ckswz4v" kvg:type="㇒" transform="matrix(1,0,0,1,1396,-4)" xmlns:kvg="http://kanjivg.tagaini.net"></path><path class="stroke_order_diagram--existing_path" d="M73.04,16.88c0.93,0.46,1.21,2.48,0.97,4.57c-0.64,5.48-0.75,10.56-1.49,17.62" id="Ske2ckswz4w" kvg:type="㇟a" transform="matrix(1,0,0,1,1396,-4)" xmlns:kvg="http://kanjivg.tagaini.net"></path><path class="stroke_order_diagram--existing_path" d="M43.02,42.56c5.18-0.46,39.53-3.72,46.1-4.18" id="Ske2ckswz4x" kvg:type="㇐a" transform="matrix(1,0,0,1,1396,-4)" xmlns:kvg="http://kanjivg.tagaini.net"></path><path class="stroke_order_diagram--existing_path" d="M48.67,50.51c0.53,0.78,1.31,2.35,1.31,3.39c0,1.05,0.02,23.34,0.11,29.87" id="Ske2ckswz4y" kvg:type="㇑" transform="matrix(1,0,0,1,1396,-4)" xmlns:kvg="http://kanjivg.tagaini.net"></path><path class="stroke_order_diagram--existing_path" d="M50.86,51.42c3-0.13,25.9-3.27,28.63-3.43c2.28-0.13,3.5,1.72,3.5,2.7c0,2.39-0.67,28.98-0.67,29.77" id="Ske2ckswz4z" kvg:type="㇕a" transform="matrix(1,0,0,1,1396,-4)" xmlns:kvg="http://kanjivg.tagaini.net"></path><path class="stroke_order_diagram--existing_path" d="M50.04,61.5c7.21-0.75,27.4-3.12,32.21-3.12" id="Ske2ckswz50" kvg:type="㇐a" transform="matrix(1,0,0,1,1396,-4)" xmlns:kvg="http://kanjivg.tagaini.net"></path><path class="stroke_order_diagram--existing_path" d="M50.28,71.41c8.47-0.58,23.02-2.75,32-2.86" id="Ske2ckswz51" kvg:type="㇐a" transform="matrix(1,0,0,1,1396,-4)" xmlns:kvg="http://kanjivg.tagaini.net"></path><path class="stroke_order_diagram--existing_path" d="M50.39,81.72c8.48-0.43,23.66-2.57,31.39-2.57" id="Ske2ckswz52" kvg:type="㇐a" transform="matrix(1,0,0,1,1396,-4)" xmlns:kvg="http://kanjivg.tagaini.net"></path><path class="stroke_order_diagram--existing_path" d="M57.18,84.96c0.48,0.99-0.36,1.95-1.31,2.67c-2.86,2.17-10.39,6.8-16.12,9.37" id="Ske2ckswz53" kvg:type="㇒" transform="matrix(1,0,0,1,1396,-4)" xmlns:kvg="http://kanjivg.tagaini.net"></path><path class="stroke_order_diagram--current_path" d="M75.18,83.91C81.62,87.08,89.24,92.83,91,95.6" id="kvg:050f9-s15" kvg:type="㇔" transform="matrix(1,0,0,1,1396,-4)" xmlns:kvg="http://kanjivg.tagaini.net"></path><path class="stroke_order_diagram--current_path" d="M75.18,83.91C81.62,87.08,89.24,92.83,91,95.6" id="Ske2ckswz55" kvg:type="㇔" transform="matrix(1,0,0,1,1396,-4)" xmlns:kvg="http://kanjivg.tagaini.net"></path><circle class="stroke_order_diagram--path_start" cx="75.18" cy="83.91" r="4" transform="matrix(1,0,0,1,1396,-4)"></circle></svg>