<svg class="stroke_order_diagram--svg_container_for_5186629ed5dda79658000c05" style="height: 100px; width: 1600px;" viewbox="0 0 1600 100"><desc>Created with Snap</desc><defs></defs><line class="stroke_order_diagram--bounding_box" x1="1" x2="1599" y1="1" y2="1"></line><line class="stroke_order_diagram--bounding_box" x1="1" x2="1" y1="1" y2="99"></line><line class="stroke_order_diagram--bounding_box" x1="1" x2="1599" y1="99" y2="99"></line><line class="stroke_order_diagram--guide_line" x1="0" x2="1600" y1="50" y2="50"></line><line class="stroke_order_diagram--guide_line" x1="50" x2="50" y1="1" y2="99"></line><line class="stroke_order_diagram--bounding_box" x1="99" x2="99" y1="1" y2="99"></line><path class="stroke_order_diagram--current_path" d="M33.44,13.5c0.13,1.23,0.22,2.78-0.11,4.29C31.19,27.36,22.94,45.86,13,58.82" id="kvg:05114-s1" kvg:type="㇒" transform="matrix(1,0,0,1,-4,-4)" xmlns:kvg="http://kanjivg.tagaini.net"></path><path class="stroke_order_diagram--current_path" d="M33.44,13.5c0.13,1.23,0.22,2.78-0.11,4.29C31.19,27.36,22.94,45.86,13,58.82" id="Ske2cmutxp" kvg:type="㇒" transform="matrix(1,0,0,1,-4,-4)" xmlns:kvg="http://kanjivg.tagaini.net"></path><circle class="stroke_order_diagram--path_start" cx="33.44" cy="13.5" r="4" transform="matrix(1,0,0,1,-4,-4)"></circle><line class="stroke_order_diagram--guide_line" x1="150" x2="150" y1="1" y2="99"></line><line class="stroke_order_diagram--bounding_box" x1="199" x2="199" y1="1" y2="99"></line><path class="stroke_order_diagram--existing_path" d="M33.44,13.5c0.13,1.23,0.22,2.78-0.11,4.29C31.19,27.36,22.94,45.86,13,58.82" id="Ske2cmutxs" kvg:type="㇒" transform="matrix(1,0,0,1,96,-4)" xmlns:kvg="http://kanjivg.tagaini.net"></path><path class="stroke_order_diagram--current_path" d="M26.48,41.61c0.59,0.61,0.76,1.97,0.76,3.23c0,13.02-0.29,42.15-0.29,50.9" id="kvg:05114-s2" kvg:type="㇑" transform="matrix(1,0,0,1,96,-4)" xmlns:kvg="http://kanjivg.tagaini.net"></path><path class="stroke_order_diagram--current_path" d="M26.48,41.61c0.59,0.61,0.76,1.97,0.76,3.23c0,13.02-0.29,42.15-0.29,50.9" id="Ske2cmutxu" kvg:type="㇑" transform="matrix(1,0,0,1,96,-4)" xmlns:kvg="http://kanjivg.tagaini.net"></path><circle class="stroke_order_diagram--path_start" cx="26.48" cy="41.61" r="4" transform="matrix(1,0,0,1,96,-4)"></circle><line class="stroke_order_diagram--guide_line" x1="250" x2="250" y1="1" y2="99"></line><line class="stroke_order_diagram--bounding_box" x1="299" x2="299" y1="1" y2="99"></line><path class="stroke_order_diagram--existing_path" d="M33.44,13.5c0.13,1.23,0.22,2.78-0.11,4.29C31.19,27.36,22.94,45.86,13,58.82" id="Ske2cmutxx" kvg:type="㇒" transform="matrix(1,0,0,1,196,-4)" xmlns:kvg="http://kanjivg.tagaini.net"></path><path class="stroke_order_diagram--existing_path" d="M26.48,41.61c0.59,0.61,0.76,1.97,0.76,3.23c0,13.02-0.29,42.15-0.29,50.9" id="Ske2cmutxy" kvg:type="㇑" transform="matrix(1,0,0,1,196,-4)" xmlns:kvg="http://kanjivg.tagaini.net"></path><path class="stroke_order_diagram--current_path" d="M41.91,19.13c0.87,0.38,2.45,0.44,3.32,0.38c9.01-0.63,24.81-3.63,35.12-3.61c1.44,0,2.31,0.18,3.03,0.37" id="kvg:05114-s3" kvg:type="㇐" transform="matrix(1,0,0,1,196,-4)" xmlns:kvg="http://kanjivg.tagaini.net"></path><path class="stroke_order_diagram--current_path" d="M41.91,19.13c0.87,0.38,2.45,0.44,3.32,0.38c9.01-0.63,24.81-3.63,35.12-3.61c1.44,0,2.31,0.18,3.03,0.37" id="Ske2cmutx10" kvg:type="㇐" transform="matrix(1,0,0,1,196,-4)" xmlns:kvg="http://kanjivg.tagaini.net"></path><circle class="stroke_order_diagram--path_start" cx="41.91" cy="19.13" r="4" transform="matrix(1,0,0,1,196,-4)"></circle><line class="stroke_order_diagram--guide_line" x1="350" x2="350" y1="1" y2="99"></line><line class="stroke_order_diagram--bounding_box" x1="399" x2="399" y1="1" y2="99"></line><path class="stroke_order_diagram--existing_path" d="M33.44,13.5c0.13,1.23,0.22,2.78-0.11,4.29C31.19,27.36,22.94,45.86,13,58.82" id="Ske2cmutx13" kvg:type="㇒" transform="matrix(1,0,0,1,296,-4)" xmlns:kvg="http://kanjivg.tagaini.net"></path><path class="stroke_order_diagram--existing_path" d="M26.48,41.61c0.59,0.61,0.76,1.97,0.76,3.23c0,13.02-0.29,42.15-0.29,50.9" id="Ske2cmutx14" kvg:type="㇑" transform="matrix(1,0,0,1,296,-4)" xmlns:kvg="http://kanjivg.tagaini.net"></path><path class="stroke_order_diagram--existing_path" d="M41.91,19.13c0.87,0.38,2.45,0.44,3.32,0.38c9.01-0.63,24.81-3.63,35.12-3.61c1.44,0,2.31,0.18,3.03,0.37" id="Ske2cmutx15" kvg:type="㇐" transform="matrix(1,0,0,1,296,-4)" xmlns:kvg="http://kanjivg.tagaini.net"></path><path class="stroke_order_diagram--current_path" d="M60.6,9.75c0.71,0.35,1.14,1.57,1.28,2.27s0.41,9.97,0.26,14.34" id="kvg:05114-s4" kvg:type="㇑a" transform="matrix(1,0,0,1,296,-4)" xmlns:kvg="http://kanjivg.tagaini.net"></path><path class="stroke_order_diagram--current_path" d="M60.6,9.75c0.71,0.35,1.14,1.57,1.28,2.27s0.41,9.97,0.26,14.34" id="Ske2cmutx17" kvg:type="㇑a" transform="matrix(1,0,0,1,296,-4)" xmlns:kvg="http://kanjivg.tagaini.net"></path><circle class="stroke_order_diagram--path_start" cx="60.6" cy="9.75" r="4" transform="matrix(1,0,0,1,296,-4)"></circle><line class="stroke_order_diagram--guide_line" x1="450" x2="450" y1="1" y2="99"></line><line class="stroke_order_diagram--bounding_box" x1="499" x2="499" y1="1" y2="99"></line><path class="stroke_order_diagram--existing_path" d="M33.44,13.5c0.13,1.23,0.22,2.78-0.11,4.29C31.19,27.36,22.94,45.86,13,58.82" id="Ske2cmutx1a" kvg:type="㇒" transform="matrix(1,0,0,1,396,-4)" xmlns:kvg="http://kanjivg.tagaini.net"></path><path class="stroke_order_diagram--existing_path" d="M26.48,41.61c0.59,0.61,0.76,1.97,0.76,3.23c0,13.02-0.29,42.15-0.29,50.9" id="Ske2cmutx1b" kvg:type="㇑" transform="matrix(1,0,0,1,396,-4)" xmlns:kvg="http://kanjivg.tagaini.net"></path><path class="stroke_order_diagram--existing_path" d="M41.91,19.13c0.87,0.38,2.45,0.44,3.32,0.38c9.01-0.63,24.81-3.63,35.12-3.61c1.44,0,2.31,0.18,3.03,0.37" id="Ske2cmutx1c" kvg:type="㇐" transform="matrix(1,0,0,1,396,-4)" xmlns:kvg="http://kanjivg.tagaini.net"></path><path class="stroke_order_diagram--existing_path" d="M60.6,9.75c0.71,0.35,1.14,1.57,1.28,2.27s0.41,9.97,0.26,14.34" id="Ske2cmutx1d" kvg:type="㇑a" transform="matrix(1,0,0,1,396,-4)" xmlns:kvg="http://kanjivg.tagaini.net"></path><path class="stroke_order_diagram--current_path" d="M46.77,28.61c0.69,0.26,1.95,0.3,2.65,0.26c7.09-0.37,18.58-3.33,28.21-3.31c1.15,0,1.84,0.12,2.42,0.25" id="kvg:05114-s5" kvg:type="㇐" transform="matrix(1,0,0,1,396,-4)" xmlns:kvg="http://kanjivg.tagaini.net"></path><path class="stroke_order_diagram--current_path" d="M46.77,28.61c0.69,0.26,1.95,0.3,2.65,0.26c7.09-0.37,18.58-3.33,28.21-3.31c1.15,0,1.84,0.12,2.42,0.25" id="Ske2cmutx1f" kvg:type="㇐" transform="matrix(1,0,0,1,396,-4)" xmlns:kvg="http://kanjivg.tagaini.net"></path><circle class="stroke_order_diagram--path_start" cx="46.77" cy="28.61" r="4" transform="matrix(1,0,0,1,396,-4)"></circle><line class="stroke_order_diagram--guide_line" x1="550" x2="550" y1="1" y2="99"></line><line class="stroke_order_diagram--bounding_box" x1="599" x2="599" y1="1" y2="99"></line><path class="stroke_order_diagram--existing_path" d="M33.44,13.5c0.13,1.23,0.22,2.78-0.11,4.29C31.19,27.36,22.94,45.86,13,58.82" id="Ske2cmutx1i" kvg:type="㇒" transform="matrix(1,0,0,1,496,-4)" xmlns:kvg="http://kanjivg.tagaini.net"></path><path class="stroke_order_diagram--existing_path" d="M26.48,41.61c0.59,0.61,0.76,1.97,0.76,3.23c0,13.02-0.29,42.15-0.29,50.9" id="Ske2cmutx1j" kvg:type="㇑" transform="matrix(1,0,0,1,496,-4)" xmlns:kvg="http://kanjivg.tagaini.net"></path><path class="stroke_order_diagram--existing_path" d="M41.91,19.13c0.87,0.38,2.45,0.44,3.32,0.38c9.01-0.63,24.81-3.63,35.12-3.61c1.44,0,2.31,0.18,3.03,0.37" id="Ske2cmutx1k" kvg:type="㇐" transform="matrix(1,0,0,1,496,-4)" xmlns:kvg="http://kanjivg.tagaini.net"></path><path class="stroke_order_diagram--existing_path" d="M60.6,9.75c0.71,0.35,1.14,1.57,1.28,2.27s0.41,9.97,0.26,14.34" id="Ske2cmutx1l" kvg:type="㇑a" transform="matrix(1,0,0,1,496,-4)" xmlns:kvg="http://kanjivg.tagaini.net"></path><path class="stroke_order_diagram--existing_path" d="M46.77,28.61c0.69,0.26,1.95,0.3,2.65,0.26c7.09-0.37,18.58-3.33,28.21-3.31c1.15,0,1.84,0.12,2.42,0.25" id="Ske2cmutx1m" kvg:type="㇐" transform="matrix(1,0,0,1,496,-4)" xmlns:kvg="http://kanjivg.tagaini.net"></path><path class="stroke_order_diagram--current_path" d="M35.15,37.74c1.23,0.51,3.55,1.02,5.8,0.65C52.5,36.5,75.25,33,87.32,32.34c8.44-0.46,1.99,6.16-0.46,8.28" id="kvg:05114-s6" kvg:type="㇖" transform="matrix(1,0,0,1,496,-4)" xmlns:kvg="http://kanjivg.tagaini.net"></path><path class="stroke_order_diagram--current_path" d="M35.15,37.74c1.23,0.51,3.55,1.02,5.8,0.65C52.5,36.5,75.25,33,87.32,32.34c8.44-0.46,1.99,6.16-0.46,8.28" id="Ske2cmutx1o" kvg:type="㇖" transform="matrix(1,0,0,1,496,-4)" xmlns:kvg="http://kanjivg.tagaini.net"></path><circle class="stroke_order_diagram--path_start" cx="35.15" cy="37.74" r="4" transform="matrix(1,0,0,1,496,-4)"></circle><line class="stroke_order_diagram--guide_line" x1="650" x2="650" y1="1" y2="99"></line><line class="stroke_order_diagram--bounding_box" x1="699" x2="699" y1="1" y2="99"></line><path class="stroke_order_diagram--existing_path" d="M33.44,13.5c0.13,1.23,0.22,2.78-0.11,4.29C31.19,27.36,22.94,45.86,13,58.82" id="Ske2cmutx1r" kvg:type="㇒" transform="matrix(1,0,0,1,596,-4)" xmlns:kvg="http://kanjivg.tagaini.net"></path><path class="stroke_order_diagram--existing_path" d="M26.48,41.61c0.59,0.61,0.76,1.97,0.76,3.23c0,13.02-0.29,42.15-0.29,50.9" id="Ske2cmutx1s" kvg:type="㇑" transform="matrix(1,0,0,1,596,-4)" xmlns:kvg="http://kanjivg.tagaini.net"></path><path class="stroke_order_diagram--existing_path" d="M41.91,19.13c0.87,0.38,2.45,0.44,3.32,0.38c9.01-0.63,24.81-3.63,35.12-3.61c1.44,0,2.31,0.18,3.03,0.37" id="Ske2cmutx1t" kvg:type="㇐" transform="matrix(1,0,0,1,596,-4)" xmlns:kvg="http://kanjivg.tagaini.net"></path><path class="stroke_order_diagram--existing_path" d="M60.6,9.75c0.71,0.35,1.14,1.57,1.28,2.27s0.41,9.97,0.26,14.34" id="Ske2cmutx1u" kvg:type="㇑a" transform="matrix(1,0,0,1,596,-4)" xmlns:kvg="http://kanjivg.tagaini.net"></path><path class="stroke_order_diagram--existing_path" d="M46.77,28.61c0.69,0.26,1.95,0.3,2.65,0.26c7.09-0.37,18.58-3.33,28.21-3.31c1.15,0,1.84,0.12,2.42,0.25" id="Ske2cmutx1v" kvg:type="㇐" transform="matrix(1,0,0,1,596,-4)" xmlns:kvg="http://kanjivg.tagaini.net"></path><path class="stroke_order_diagram--existing_path" d="M35.15,37.74c1.23,0.51,3.55,1.02,5.8,0.65C52.5,36.5,75.25,33,87.32,32.34c8.44-0.46,1.99,6.16-0.46,8.28" id="Ske2cmutx1w" kvg:type="㇖" transform="matrix(1,0,0,1,596,-4)" xmlns:kvg="http://kanjivg.tagaini.net"></path><path class="stroke_order_diagram--current_path" d="M44.58,44.69c0.57,0.38,2.42,0.5,2.99,0.39c2.67-0.52,23.28-3.49,27.76-3.88c0.88-0.08,1.67,0.08,2.4,0.4" id="kvg:05114-s7" kvg:type="㇐" transform="matrix(1,0,0,1,596,-4)" xmlns:kvg="http://kanjivg.tagaini.net"></path><path class="stroke_order_diagram--current_path" d="M44.58,44.69c0.57,0.38,2.42,0.5,2.99,0.39c2.67-0.52,23.28-3.49,27.76-3.88c0.88-0.08,1.67,0.08,2.4,0.4" id="Ske2cmutx1y" kvg:type="㇐" transform="matrix(1,0,0,1,596,-4)" xmlns:kvg="http://kanjivg.tagaini.net"></path><circle class="stroke_order_diagram--path_start" cx="44.58" cy="44.69" r="4" transform="matrix(1,0,0,1,596,-4)"></circle><line class="stroke_order_diagram--guide_line" x1="750" x2="750" y1="1" y2="99"></line><line class="stroke_order_diagram--bounding_box" x1="799" x2="799" y1="1" y2="99"></line><path class="stroke_order_diagram--existing_path" d="M33.44,13.5c0.13,1.23,0.22,2.78-0.11,4.29C31.19,27.36,22.94,45.86,13,58.82" id="Ske2cmutx21" kvg:type="㇒" transform="matrix(1,0,0,1,696,-4)" xmlns:kvg="http://kanjivg.tagaini.net"></path><path class="stroke_order_diagram--existing_path" d="M26.48,41.61c0.59,0.61,0.76,1.97,0.76,3.23c0,13.02-0.29,42.15-0.29,50.9" id="Ske2cmutx22" kvg:type="㇑" transform="matrix(1,0,0,1,696,-4)" xmlns:kvg="http://kanjivg.tagaini.net"></path><path class="stroke_order_diagram--existing_path" d="M41.91,19.13c0.87,0.38,2.45,0.44,3.32,0.38c9.01-0.63,24.81-3.63,35.12-3.61c1.44,0,2.31,0.18,3.03,0.37" id="Ske2cmutx23" kvg:type="㇐" transform="matrix(1,0,0,1,696,-4)" xmlns:kvg="http://kanjivg.tagaini.net"></path><path class="stroke_order_diagram--existing_path" d="M60.6,9.75c0.71,0.35,1.14,1.57,1.28,2.27s0.41,9.97,0.26,14.34" id="Ske2cmutx24" kvg:type="㇑a" transform="matrix(1,0,0,1,696,-4)" xmlns:kvg="http://kanjivg.tagaini.net"></path><path class="stroke_order_diagram--existing_path" d="M46.77,28.61c0.69,0.26,1.95,0.3,2.65,0.26c7.09-0.37,18.58-3.33,28.21-3.31c1.15,0,1.84,0.12,2.42,0.25" id="Ske2cmutx25" kvg:type="㇐" transform="matrix(1,0,0,1,696,-4)" xmlns:kvg="http://kanjivg.tagaini.net"></path><path class="stroke_order_diagram--existing_path" d="M35.15,37.74c1.23,0.51,3.55,1.02,5.8,0.65C52.5,36.5,75.25,33,87.32,32.34c8.44-0.46,1.99,6.16-0.46,8.28" id="Ske2cmutx26" kvg:type="㇖" transform="matrix(1,0,0,1,696,-4)" xmlns:kvg="http://kanjivg.tagaini.net"></path><path class="stroke_order_diagram--existing_path" d="M44.58,44.69c0.57,0.38,2.42,0.5,2.99,0.39c2.67-0.52,23.28-3.49,27.76-3.88c0.88-0.08,1.67,0.08,2.4,0.4" id="Ske2cmutx27" kvg:type="㇐" transform="matrix(1,0,0,1,696,-4)" xmlns:kvg="http://kanjivg.tagaini.net"></path><path class="stroke_order_diagram--current_path" d="M61.59,43.04c0.4,0.62,0.4,0.99,0.4,1.48c0,3.46-0.01,2.06-0.01,8" id="kvg:05114-s8" kvg:type="㇑a" transform="matrix(1,0,0,1,696,-4)" xmlns:kvg="http://kanjivg.tagaini.net"></path><path class="stroke_order_diagram--current_path" d="M61.59,43.04c0.4,0.62,0.4,0.99,0.4,1.48c0,3.46-0.01,2.06-0.01,8" id="Ske2cmutx29" kvg:type="㇑a" transform="matrix(1,0,0,1,696,-4)" xmlns:kvg="http://kanjivg.tagaini.net"></path><circle class="stroke_order_diagram--path_start" cx="61.59" cy="43.04" r="4" transform="matrix(1,0,0,1,696,-4)"></circle><line class="stroke_order_diagram--guide_line" x1="850" x2="850" y1="1" y2="99"></line><line class="stroke_order_diagram--bounding_box" x1="899" x2="899" y1="1" y2="99"></line><path class="stroke_order_diagram--existing_path" d="M33.44,13.5c0.13,1.23,0.22,2.78-0.11,4.29C31.19,27.36,22.94,45.86,13,58.82" id="Ske2cmutx2c" kvg:type="㇒" transform="matrix(1,0,0,1,796,-4)" xmlns:kvg="http://kanjivg.tagaini.net"></path><path class="stroke_order_diagram--existing_path" d="M26.48,41.61c0.59,0.61,0.76,1.97,0.76,3.23c0,13.02-0.29,42.15-0.29,50.9" id="Ske2cmutx2d" kvg:type="㇑" transform="matrix(1,0,0,1,796,-4)" xmlns:kvg="http://kanjivg.tagaini.net"></path><path class="stroke_order_diagram--existing_path" d="M41.91,19.13c0.87,0.38,2.45,0.44,3.32,0.38c9.01-0.63,24.81-3.63,35.12-3.61c1.44,0,2.31,0.18,3.03,0.37" id="Ske2cmutx2e" kvg:type="㇐" transform="matrix(1,0,0,1,796,-4)" xmlns:kvg="http://kanjivg.tagaini.net"></path><path class="stroke_order_diagram--existing_path" d="M60.6,9.75c0.71,0.35,1.14,1.57,1.28,2.27s0.41,9.97,0.26,14.34" id="Ske2cmutx2f" kvg:type="㇑a" transform="matrix(1,0,0,1,796,-4)" xmlns:kvg="http://kanjivg.tagaini.net"></path><path class="stroke_order_diagram--existing_path" d="M46.77,28.61c0.69,0.26,1.95,0.3,2.65,0.26c7.09-0.37,18.58-3.33,28.21-3.31c1.15,0,1.84,0.12,2.42,0.25" id="Ske2cmutx2g" kvg:type="㇐" transform="matrix(1,0,0,1,796,-4)" xmlns:kvg="http://kanjivg.tagaini.net"></path><path class="stroke_order_diagram--existing_path" d="M35.15,37.74c1.23,0.51,3.55,1.02,5.8,0.65C52.5,36.5,75.25,33,87.32,32.34c8.44-0.46,1.99,6.16-0.46,8.28" id="Ske2cmutx2h" kvg:type="㇖" transform="matrix(1,0,0,1,796,-4)" xmlns:kvg="http://kanjivg.tagaini.net"></path><path class="stroke_order_diagram--existing_path" d="M44.58,44.69c0.57,0.38,2.42,0.5,2.99,0.39c2.67-0.52,23.28-3.49,27.76-3.88c0.88-0.08,1.67,0.08,2.4,0.4" id="Ske2cmutx2i" kvg:type="㇐" transform="matrix(1,0,0,1,796,-4)" xmlns:kvg="http://kanjivg.tagaini.net"></path><path class="stroke_order_diagram--existing_path" d="M61.59,43.04c0.4,0.62,0.4,0.99,0.4,1.48c0,3.46-0.01,2.06-0.01,8" id="Ske2cmutx2j" kvg:type="㇑a" transform="matrix(1,0,0,1,796,-4)" xmlns:kvg="http://kanjivg.tagaini.net"></path><path class="stroke_order_diagram--current_path" d="M42.74,54.21c0.46,0.23,2.09,0.45,2.87,0.37c8.88-0.83,24.98-3.43,32.6-3.78c1.25-0.06,2.75,0.39,3.37,0.76" id="kvg:05114-s9" kvg:type="㇐" transform="matrix(1,0,0,1,796,-4)" xmlns:kvg="http://kanjivg.tagaini.net"></path><path class="stroke_order_diagram--current_path" d="M42.74,54.21c0.46,0.23,2.09,0.45,2.87,0.37c8.88-0.83,24.98-3.43,32.6-3.78c1.25-0.06,2.75,0.39,3.37,0.76" id="Ske2cmutx2l" kvg:type="㇐" transform="matrix(1,0,0,1,796,-4)" xmlns:kvg="http://kanjivg.tagaini.net"></path><circle class="stroke_order_diagram--path_start" cx="42.74" cy="54.21" r="4" transform="matrix(1,0,0,1,796,-4)"></circle><line class="stroke_order_diagram--guide_line" x1="950" x2="950" y1="1" y2="99"></line><line class="stroke_order_diagram--bounding_box" x1="999" x2="999" y1="1" y2="99"></line><path class="stroke_order_diagram--existing_path" d="M33.44,13.5c0.13,1.23,0.22,2.78-0.11,4.29C31.19,27.36,22.94,45.86,13,58.82" id="Ske2cmutx2o" kvg:type="㇒" transform="matrix(1,0,0,1,896,-4)" xmlns:kvg="http://kanjivg.tagaini.net"></path><path class="stroke_order_diagram--existing_path" d="M26.48,41.61c0.59,0.61,0.76,1.97,0.76,3.23c0,13.02-0.29,42.15-0.29,50.9" id="Ske2cmutx2p" kvg:type="㇑" transform="matrix(1,0,0,1,896,-4)" xmlns:kvg="http://kanjivg.tagaini.net"></path><path class="stroke_order_diagram--existing_path" d="M41.91,19.13c0.87,0.38,2.45,0.44,3.32,0.38c9.01-0.63,24.81-3.63,35.12-3.61c1.44,0,2.31,0.18,3.03,0.37" id="Ske2cmutx2q" kvg:type="㇐" transform="matrix(1,0,0,1,896,-4)" xmlns:kvg="http://kanjivg.tagaini.net"></path><path class="stroke_order_diagram--existing_path" d="M60.6,9.75c0.71,0.35,1.14,1.57,1.28,2.27s0.41,9.97,0.26,14.34" id="Ske2cmutx2r" kvg:type="㇑a" transform="matrix(1,0,0,1,896,-4)" xmlns:kvg="http://kanjivg.tagaini.net"></path><path class="stroke_order_diagram--existing_path" d="M46.77,28.61c0.69,0.26,1.95,0.3,2.65,0.26c7.09-0.37,18.58-3.33,28.21-3.31c1.15,0,1.84,0.12,2.42,0.25" id="Ske2cmutx2s" kvg:type="㇐" transform="matrix(1,0,0,1,896,-4)" xmlns:kvg="http://kanjivg.tagaini.net"></path><path class="stroke_order_diagram--existing_path" d="M35.15,37.74c1.23,0.51,3.55,1.02,5.8,0.65C52.5,36.5,75.25,33,87.32,32.34c8.44-0.46,1.99,6.16-0.46,8.28" id="Ske2cmutx2t" kvg:type="㇖" transform="matrix(1,0,0,1,896,-4)" xmlns:kvg="http://kanjivg.tagaini.net"></path><path class="stroke_order_diagram--existing_path" d="M44.58,44.69c0.57,0.38,2.42,0.5,2.99,0.39c2.67-0.52,23.28-3.49,27.76-3.88c0.88-0.08,1.67,0.08,2.4,0.4" id="Ske2cmutx2u" kvg:type="㇐" transform="matrix(1,0,0,1,896,-4)" xmlns:kvg="http://kanjivg.tagaini.net"></path><path class="stroke_order_diagram--existing_path" d="M61.59,43.04c0.4,0.62,0.4,0.99,0.4,1.48c0,3.46-0.01,2.06-0.01,8" id="Ske2cmutx2v" kvg:type="㇑a" transform="matrix(1,0,0,1,896,-4)" xmlns:kvg="http://kanjivg.tagaini.net"></path><path class="stroke_order_diagram--existing_path" d="M42.74,54.21c0.46,0.23,2.09,0.45,2.87,0.37c8.88-0.83,24.98-3.43,32.6-3.78c1.25-0.06,2.75,0.39,3.37,0.76" id="Ske2cmutx2w" kvg:type="㇐" transform="matrix(1,0,0,1,896,-4)" xmlns:kvg="http://kanjivg.tagaini.net"></path><path class="stroke_order_diagram--current_path" d="M35.25,62.7c1.24,0.54,3.51,0.61,4.75,0.54c9.5-0.49,35.25-4.74,50.16-5.73c2.06-0.14,3.3,0.26,4.34,0.53" id="kvg:05114-s10" kvg:type="㇐" transform="matrix(1,0,0,1,896,-4)" xmlns:kvg="http://kanjivg.tagaini.net"></path><path class="stroke_order_diagram--current_path" d="M35.25,62.7c1.24,0.54,3.51,0.61,4.75,0.54c9.5-0.49,35.25-4.74,50.16-5.73c2.06-0.14,3.3,0.26,4.34,0.53" id="Ske2cmutx2y" kvg:type="㇐" transform="matrix(1,0,0,1,896,-4)" xmlns:kvg="http://kanjivg.tagaini.net"></path><circle class="stroke_order_diagram--path_start" cx="35.25" cy="62.7" r="4" transform="matrix(1,0,0,1,896,-4)"></circle><line class="stroke_order_diagram--guide_line" x1="1050" x2="1050" y1="1" y2="99"></line><line class="stroke_order_diagram--bounding_box" x1="1099" x2="1099" y1="1" y2="99"></line><path class="stroke_order_diagram--existing_path" d="M33.44,13.5c0.13,1.23,0.22,2.78-0.11,4.29C31.19,27.36,22.94,45.86,13,58.82" id="Ske2cmutx31" kvg:type="㇒" transform="matrix(1,0,0,1,996,-4)" xmlns:kvg="http://kanjivg.tagaini.net"></path><path class="stroke_order_diagram--existing_path" d="M26.48,41.61c0.59,0.61,0.76,1.97,0.76,3.23c0,13.02-0.29,42.15-0.29,50.9" id="Ske2cmutx32" kvg:type="㇑" transform="matrix(1,0,0,1,996,-4)" xmlns:kvg="http://kanjivg.tagaini.net"></path><path class="stroke_order_diagram--existing_path" d="M41.91,19.13c0.87,0.38,2.45,0.44,3.32,0.38c9.01-0.63,24.81-3.63,35.12-3.61c1.44,0,2.31,0.18,3.03,0.37" id="Ske2cmutx33" kvg:type="㇐" transform="matrix(1,0,0,1,996,-4)" xmlns:kvg="http://kanjivg.tagaini.net"></path><path class="stroke_order_diagram--existing_path" d="M60.6,9.75c0.71,0.35,1.14,1.57,1.28,2.27s0.41,9.97,0.26,14.34" id="Ske2cmutx34" kvg:type="㇑a" transform="matrix(1,0,0,1,996,-4)" xmlns:kvg="http://kanjivg.tagaini.net"></path><path class="stroke_order_diagram--existing_path" d="M46.77,28.61c0.69,0.26,1.95,0.3,2.65,0.26c7.09-0.37,18.58-3.33,28.21-3.31c1.15,0,1.84,0.12,2.42,0.25" id="Ske2cmutx35" kvg:type="㇐" transform="matrix(1,0,0,1,996,-4)" xmlns:kvg="http://kanjivg.tagaini.net"></path><path class="stroke_order_diagram--existing_path" d="M35.15,37.74c1.23,0.51,3.55,1.02,5.8,0.65C52.5,36.5,75.25,33,87.32,32.34c8.44-0.46,1.99,6.16-0.46,8.28" id="Ske2cmutx36" kvg:type="㇖" transform="matrix(1,0,0,1,996,-4)" xmlns:kvg="http://kanjivg.tagaini.net"></path><path class="stroke_order_diagram--existing_path" d="M44.58,44.69c0.57,0.38,2.42,0.5,2.99,0.39c2.67-0.52,23.28-3.49,27.76-3.88c0.88-0.08,1.67,0.08,2.4,0.4" id="Ske2cmutx37" kvg:type="㇐" transform="matrix(1,0,0,1,996,-4)" xmlns:kvg="http://kanjivg.tagaini.net"></path><path class="stroke_order_diagram--existing_path" d="M61.59,43.04c0.4,0.62,0.4,0.99,0.4,1.48c0,3.46-0.01,2.06-0.01,8" id="Ske2cmutx38" kvg:type="㇑a" transform="matrix(1,0,0,1,996,-4)" xmlns:kvg="http://kanjivg.tagaini.net"></path><path class="stroke_order_diagram--existing_path" d="M42.74,54.21c0.46,0.23,2.09,0.45,2.87,0.37c8.88-0.83,24.98-3.43,32.6-3.78c1.25-0.06,2.75,0.39,3.37,0.76" id="Ske2cmutx39" kvg:type="㇐" transform="matrix(1,0,0,1,996,-4)" xmlns:kvg="http://kanjivg.tagaini.net"></path><path class="stroke_order_diagram--existing_path" d="M35.25,62.7c1.24,0.54,3.51,0.61,4.75,0.54c9.5-0.49,35.25-4.74,50.16-5.73c2.06-0.14,3.3,0.26,4.34,0.53" id="Ske2cmutx3a" kvg:type="㇐" transform="matrix(1,0,0,1,996,-4)" xmlns:kvg="http://kanjivg.tagaini.net"></path><path class="stroke_order_diagram--current_path" d="M38.46,73.3c0.27,0.29,0.55,0.53,0.67,0.89c0.94,2.85,2.06,11.7,2.7,16.81" id="kvg:05114-s11" kvg:type="㇑" transform="matrix(1,0,0,1,996,-4)" xmlns:kvg="http://kanjivg.tagaini.net"></path><path class="stroke_order_diagram--current_path" d="M38.46,73.3c0.27,0.29,0.55,0.53,0.67,0.89c0.94,2.85,2.06,11.7,2.7,16.81" id="Ske2cmutx3c" kvg:type="㇑" transform="matrix(1,0,0,1,996,-4)" xmlns:kvg="http://kanjivg.tagaini.net"></path><circle class="stroke_order_diagram--path_start" cx="38.46" cy="73.3" r="4" transform="matrix(1,0,0,1,996,-4)"></circle><line class="stroke_order_diagram--guide_line" x1="1150" x2="1150" y1="1" y2="99"></line><line class="stroke_order_diagram--bounding_box" x1="1199" x2="1199" y1="1" y2="99"></line><path class="stroke_order_diagram--existing_path" d="M33.44,13.5c0.13,1.23,0.22,2.78-0.11,4.29C31.19,27.36,22.94,45.86,13,58.82" id="Ske2cmutx3f" kvg:type="㇒" transform="matrix(1,0,0,1,1096,-4)" xmlns:kvg="http://kanjivg.tagaini.net"></path><path class="stroke_order_diagram--existing_path" d="M26.48,41.61c0.59,0.61,0.76,1.97,0.76,3.23c0,13.02-0.29,42.15-0.29,50.9" id="Ske2cmutx3g" kvg:type="㇑" transform="matrix(1,0,0,1,1096,-4)" xmlns:kvg="http://kanjivg.tagaini.net"></path><path class="stroke_order_diagram--existing_path" d="M41.91,19.13c0.87,0.38,2.45,0.44,3.32,0.38c9.01-0.63,24.81-3.63,35.12-3.61c1.44,0,2.31,0.18,3.03,0.37" id="Ske2cmutx3h" kvg:type="㇐" transform="matrix(1,0,0,1,1096,-4)" xmlns:kvg="http://kanjivg.tagaini.net"></path><path class="stroke_order_diagram--existing_path" d="M60.6,9.75c0.71,0.35,1.14,1.57,1.28,2.27s0.41,9.97,0.26,14.34" id="Ske2cmutx3i" kvg:type="㇑a" transform="matrix(1,0,0,1,1096,-4)" xmlns:kvg="http://kanjivg.tagaini.net"></path><path class="stroke_order_diagram--existing_path" d="M46.77,28.61c0.69,0.26,1.95,0.3,2.65,0.26c7.09-0.37,18.58-3.33,28.21-3.31c1.15,0,1.84,0.12,2.42,0.25" id="Ske2cmutx3j" kvg:type="㇐" transform="matrix(1,0,0,1,1096,-4)" xmlns:kvg="http://kanjivg.tagaini.net"></path><path class="stroke_order_diagram--existing_path" d="M35.15,37.74c1.23,0.51,3.55,1.02,5.8,0.65C52.5,36.5,75.25,33,87.32,32.34c8.44-0.46,1.99,6.16-0.46,8.28" id="Ske2cmutx3k" kvg:type="㇖" transform="matrix(1,0,0,1,1096,-4)" xmlns:kvg="http://kanjivg.tagaini.net"></path><path class="stroke_order_diagram--existing_path" d="M44.58,44.69c0.57,0.38,2.42,0.5,2.99,0.39c2.67-0.52,23.28-3.49,27.76-3.88c0.88-0.08,1.67,0.08,2.4,0.4" id="Ske2cmutx3l" kvg:type="㇐" transform="matrix(1,0,0,1,1096,-4)" xmlns:kvg="http://kanjivg.tagaini.net"></path><path class="stroke_order_diagram--existing_path" d="M61.59,43.04c0.4,0.62,0.4,0.99,0.4,1.48c0,3.46-0.01,2.06-0.01,8" id="Ske2cmutx3m" kvg:type="㇑a" transform="matrix(1,0,0,1,1096,-4)" xmlns:kvg="http://kanjivg.tagaini.net"></path><path class="stroke_order_diagram--existing_path" d="M42.74,54.21c0.46,0.23,2.09,0.45,2.87,0.37c8.88-0.83,24.98-3.43,32.6-3.78c1.25-0.06,2.75,0.39,3.37,0.76" id="Ske2cmutx3n" kvg:type="㇐" transform="matrix(1,0,0,1,1096,-4)" xmlns:kvg="http://kanjivg.tagaini.net"></path><path class="stroke_order_diagram--existing_path" d="M35.25,62.7c1.24,0.54,3.51,0.61,4.75,0.54c9.5-0.49,35.25-4.74,50.16-5.73c2.06-0.14,3.3,0.26,4.34,0.53" id="Ske2cmutx3o" kvg:type="㇐" transform="matrix(1,0,0,1,1096,-4)" xmlns:kvg="http://kanjivg.tagaini.net"></path><path class="stroke_order_diagram--existing_path" d="M38.46,73.3c0.27,0.29,0.55,0.53,0.67,0.89c0.94,2.85,2.06,11.7,2.7,16.81" id="Ske2cmutx3p" kvg:type="㇑" transform="matrix(1,0,0,1,1096,-4)" xmlns:kvg="http://kanjivg.tagaini.net"></path><path class="stroke_order_diagram--current_path" d="M40.15,75.23c5.54-1.48,11.78-3.13,14.95-3.5c1.16-0.14,1.86,0.81,1.69,1.61c-0.69,3.33-1.49,9.34-2.51,13.94" id="kvg:05114-s12" kvg:type="㇕b" transform="matrix(1,0,0,1,1096,-4)" xmlns:kvg="http://kanjivg.tagaini.net"></path><path class="stroke_order_diagram--current_path" d="M40.15,75.23c5.54-1.48,11.78-3.13,14.95-3.5c1.16-0.14,1.86,0.81,1.69,1.61c-0.69,3.33-1.49,9.34-2.51,13.94" id="Ske2cmutx3r" kvg:type="㇕b" transform="matrix(1,0,0,1,1096,-4)" xmlns:kvg="http://kanjivg.tagaini.net"></path><circle class="stroke_order_diagram--path_start" cx="40.15" cy="75.23" r="4" transform="matrix(1,0,0,1,1096,-4)"></circle><line class="stroke_order_diagram--guide_line" x1="1250" x2="1250" y1="1" y2="99"></line><line class="stroke_order_diagram--bounding_box" x1="1299" x2="1299" y1="1" y2="99"></line><path class="stroke_order_diagram--existing_path" d="M33.44,13.5c0.13,1.23,0.22,2.78-0.11,4.29C31.19,27.36,22.94,45.86,13,58.82" id="Ske2cmutx3u" kvg:type="㇒" transform="matrix(1,0,0,1,1196,-4)" xmlns:kvg="http://kanjivg.tagaini.net"></path><path class="stroke_order_diagram--existing_path" d="M26.48,41.61c0.59,0.61,0.76,1.97,0.76,3.23c0,13.02-0.29,42.15-0.29,50.9" id="Ske2cmutx3v" kvg:type="㇑" transform="matrix(1,0,0,1,1196,-4)" xmlns:kvg="http://kanjivg.tagaini.net"></path><path class="stroke_order_diagram--existing_path" d="M41.91,19.13c0.87,0.38,2.45,0.44,3.32,0.38c9.01-0.63,24.81-3.63,35.12-3.61c1.44,0,2.31,0.18,3.03,0.37" id="Ske2cmutx3w" kvg:type="㇐" transform="matrix(1,0,0,1,1196,-4)" xmlns:kvg="http://kanjivg.tagaini.net"></path><path class="stroke_order_diagram--existing_path" d="M60.6,9.75c0.71,0.35,1.14,1.57,1.28,2.27s0.41,9.97,0.26,14.34" id="Ske2cmutx3x" kvg:type="㇑a" transform="matrix(1,0,0,1,1196,-4)" xmlns:kvg="http://kanjivg.tagaini.net"></path><path class="stroke_order_diagram--existing_path" d="M46.77,28.61c0.69,0.26,1.95,0.3,2.65,0.26c7.09-0.37,18.58-3.33,28.21-3.31c1.15,0,1.84,0.12,2.42,0.25" id="Ske2cmutx3y" kvg:type="㇐" transform="matrix(1,0,0,1,1196,-4)" xmlns:kvg="http://kanjivg.tagaini.net"></path><path class="stroke_order_diagram--existing_path" d="M35.15,37.74c1.23,0.51,3.55,1.02,5.8,0.65C52.5,36.5,75.25,33,87.32,32.34c8.44-0.46,1.99,6.16-0.46,8.28" id="Ske2cmutx3z" kvg:type="㇖" transform="matrix(1,0,0,1,1196,-4)" xmlns:kvg="http://kanjivg.tagaini.net"></path><path class="stroke_order_diagram--existing_path" d="M44.58,44.69c0.57,0.38,2.42,0.5,2.99,0.39c2.67-0.52,23.28-3.49,27.76-3.88c0.88-0.08,1.67,0.08,2.4,0.4" id="Ske2cmutx40" kvg:type="㇐" transform="matrix(1,0,0,1,1196,-4)" xmlns:kvg="http://kanjivg.tagaini.net"></path><path class="stroke_order_diagram--existing_path" d="M61.59,43.04c0.4,0.62,0.4,0.99,0.4,1.48c0,3.46-0.01,2.06-0.01,8" id="Ske2cmutx41" kvg:type="㇑a" transform="matrix(1,0,0,1,1196,-4)" xmlns:kvg="http://kanjivg.tagaini.net"></path><path class="stroke_order_diagram--existing_path" d="M42.74,54.21c0.46,0.23,2.09,0.45,2.87,0.37c8.88-0.83,24.98-3.43,32.6-3.78c1.25-0.06,2.75,0.39,3.37,0.76" id="Ske2cmutx42" kvg:type="㇐" transform="matrix(1,0,0,1,1196,-4)" xmlns:kvg="http://kanjivg.tagaini.net"></path><path class="stroke_order_diagram--existing_path" d="M35.25,62.7c1.24,0.54,3.51,0.61,4.75,0.54c9.5-0.49,35.25-4.74,50.16-5.73c2.06-0.14,3.3,0.26,4.34,0.53" id="Ske2cmutx43" kvg:type="㇐" transform="matrix(1,0,0,1,1196,-4)" xmlns:kvg="http://kanjivg.tagaini.net"></path><path class="stroke_order_diagram--existing_path" d="M38.46,73.3c0.27,0.29,0.55,0.53,0.67,0.89c0.94,2.85,2.06,11.7,2.7,16.81" id="Ske2cmutx44" kvg:type="㇑" transform="matrix(1,0,0,1,1196,-4)" xmlns:kvg="http://kanjivg.tagaini.net"></path><path class="stroke_order_diagram--existing_path" d="M40.15,75.23c5.54-1.48,11.78-3.13,14.95-3.5c1.16-0.14,1.86,0.81,1.69,1.61c-0.69,3.33-1.49,9.34-2.51,13.94" id="Ske2cmutx45" kvg:type="㇕b" transform="matrix(1,0,0,1,1196,-4)" xmlns:kvg="http://kanjivg.tagaini.net"></path><path class="stroke_order_diagram--current_path" d="M41.96,89c3.73-0.42,8.86-1.15,13.98-1.8" id="kvg:05114-s13" kvg:type="㇐b" transform="matrix(1,0,0,1,1196,-4)" xmlns:kvg="http://kanjivg.tagaini.net"></path><path class="stroke_order_diagram--current_path" d="M41.96,89c3.73-0.42,8.86-1.15,13.98-1.8" id="Ske2cmutx47" kvg:type="㇐b" transform="matrix(1,0,0,1,1196,-4)" xmlns:kvg="http://kanjivg.tagaini.net"></path><circle class="stroke_order_diagram--path_start" cx="41.96" cy="89" r="4" transform="matrix(1,0,0,1,1196,-4)"></circle><line class="stroke_order_diagram--guide_line" x1="1350" x2="1350" y1="1" y2="99"></line><line class="stroke_order_diagram--bounding_box" x1="1399" x2="1399" y1="1" y2="99"></line><path class="stroke_order_diagram--existing_path" d="M33.44,13.5c0.13,1.23,0.22,2.78-0.11,4.29C31.19,27.36,22.94,45.86,13,58.82" id="Ske2cmutx4a" kvg:type="㇒" transform="matrix(1,0,0,1,1296,-4)" xmlns:kvg="http://kanjivg.tagaini.net"></path><path class="stroke_order_diagram--existing_path" d="M26.48,41.61c0.59,0.61,0.76,1.97,0.76,3.23c0,13.02-0.29,42.15-0.29,50.9" id="Ske2cmutx4b" kvg:type="㇑" transform="matrix(1,0,0,1,1296,-4)" xmlns:kvg="http://kanjivg.tagaini.net"></path><path class="stroke_order_diagram--existing_path" d="M41.91,19.13c0.87,0.38,2.45,0.44,3.32,0.38c9.01-0.63,24.81-3.63,35.12-3.61c1.44,0,2.31,0.18,3.03,0.37" id="Ske2cmutx4c" kvg:type="㇐" transform="matrix(1,0,0,1,1296,-4)" xmlns:kvg="http://kanjivg.tagaini.net"></path><path class="stroke_order_diagram--existing_path" d="M60.6,9.75c0.71,0.35,1.14,1.57,1.28,2.27s0.41,9.97,0.26,14.34" id="Ske2cmutx4d" kvg:type="㇑a" transform="matrix(1,0,0,1,1296,-4)" xmlns:kvg="http://kanjivg.tagaini.net"></path><path class="stroke_order_diagram--existing_path" d="M46.77,28.61c0.69,0.26,1.95,0.3,2.65,0.26c7.09-0.37,18.58-3.33,28.21-3.31c1.15,0,1.84,0.12,2.42,0.25" id="Ske2cmutx4e" kvg:type="㇐" transform="matrix(1,0,0,1,1296,-4)" xmlns:kvg="http://kanjivg.tagaini.net"></path><path class="stroke_order_diagram--existing_path" d="M35.15,37.74c1.23,0.51,3.55,1.02,5.8,0.65C52.5,36.5,75.25,33,87.32,32.34c8.44-0.46,1.99,6.16-0.46,8.28" id="Ske2cmutx4f" kvg:type="㇖" transform="matrix(1,0,0,1,1296,-4)" xmlns:kvg="http://kanjivg.tagaini.net"></path><path class="stroke_order_diagram--existing_path" d="M44.58,44.69c0.57,0.38,2.42,0.5,2.99,0.39c2.67-0.52,23.28-3.49,27.76-3.88c0.88-0.08,1.67,0.08,2.4,0.4" id="Ske2cmutx4g" kvg:type="㇐" transform="matrix(1,0,0,1,1296,-4)" xmlns:kvg="http://kanjivg.tagaini.net"></path><path class="stroke_order_diagram--existing_path" d="M61.59,43.04c0.4,0.62,0.4,0.99,0.4,1.48c0,3.46-0.01,2.06-0.01,8" id="Ske2cmutx4h" kvg:type="㇑a" transform="matrix(1,0,0,1,1296,-4)" xmlns:kvg="http://kanjivg.tagaini.net"></path><path class="stroke_order_diagram--existing_path" d="M42.74,54.21c0.46,0.23,2.09,0.45,2.87,0.37c8.88-0.83,24.98-3.43,32.6-3.78c1.25-0.06,2.75,0.39,3.37,0.76" id="Ske2cmutx4i" kvg:type="㇐" transform="matrix(1,0,0,1,1296,-4)" xmlns:kvg="http://kanjivg.tagaini.net"></path><path class="stroke_order_diagram--existing_path" d="M35.25,62.7c1.24,0.54,3.51,0.61,4.75,0.54c9.5-0.49,35.25-4.74,50.16-5.73c2.06-0.14,3.3,0.26,4.34,0.53" id="Ske2cmutx4j" kvg:type="㇐" transform="matrix(1,0,0,1,1296,-4)" xmlns:kvg="http://kanjivg.tagaini.net"></path><path class="stroke_order_diagram--existing_path" d="M38.46,73.3c0.27,0.29,0.55,0.53,0.67,0.89c0.94,2.85,2.06,11.7,2.7,16.81" id="Ske2cmutx4k" kvg:type="㇑" transform="matrix(1,0,0,1,1296,-4)" xmlns:kvg="http://kanjivg.tagaini.net"></path><path class="stroke_order_diagram--existing_path" d="M40.15,75.23c5.54-1.48,11.78-3.13,14.95-3.5c1.16-0.14,1.86,0.81,1.69,1.61c-0.69,3.33-1.49,9.34-2.51,13.94" id="Ske2cmutx4l" kvg:type="㇕b" transform="matrix(1,0,0,1,1296,-4)" xmlns:kvg="http://kanjivg.tagaini.net"></path><path class="stroke_order_diagram--existing_path" d="M41.96,89c3.73-0.42,8.86-1.15,13.98-1.8" id="Ske2cmutx4m" kvg:type="㇐b" transform="matrix(1,0,0,1,1296,-4)" xmlns:kvg="http://kanjivg.tagaini.net"></path><path class="stroke_order_diagram--current_path" d="M62.75,70.92c0.8,0.62,2.26,0.75,3.07,0.62c8.75-1.51,17.78-2.34,27.54-3.28c1.33-0.13,2.13,0.29,2.8,0.6" id="kvg:05114-s14" kvg:type="㇐" transform="matrix(1,0,0,1,1296,-4)" xmlns:kvg="http://kanjivg.tagaini.net"></path><path class="stroke_order_diagram--current_path" d="M62.75,70.92c0.8,0.62,2.26,0.75,3.07,0.62c8.75-1.51,17.78-2.34,27.54-3.28c1.33-0.13,2.13,0.29,2.8,0.6" id="Ske2cmutx4o" kvg:type="㇐" transform="matrix(1,0,0,1,1296,-4)" xmlns:kvg="http://kanjivg.tagaini.net"></path><circle class="stroke_order_diagram--path_start" cx="62.75" cy="70.92" r="4" transform="matrix(1,0,0,1,1296,-4)"></circle><line class="stroke_order_diagram--guide_line" x1="1450" x2="1450" y1="1" y2="99"></line><line class="stroke_order_diagram--bounding_box" x1="1499" x2="1499" y1="1" y2="99"></line><path class="stroke_order_diagram--existing_path" d="M33.44,13.5c0.13,1.23,0.22,2.78-0.11,4.29C31.19,27.36,22.94,45.86,13,58.82" id="Ske2cmutx4r" kvg:type="㇒" transform="matrix(1,0,0,1,1396,-4)" xmlns:kvg="http://kanjivg.tagaini.net"></path><path class="stroke_order_diagram--existing_path" d="M26.48,41.61c0.59,0.61,0.76,1.97,0.76,3.23c0,13.02-0.29,42.15-0.29,50.9" id="Ske2cmutx4s" kvg:type="㇑" transform="matrix(1,0,0,1,1396,-4)" xmlns:kvg="http://kanjivg.tagaini.net"></path><path class="stroke_order_diagram--existing_path" d="M41.91,19.13c0.87,0.38,2.45,0.44,3.32,0.38c9.01-0.63,24.81-3.63,35.12-3.61c1.44,0,2.31,0.18,3.03,0.37" id="Ske2cmutx4t" kvg:type="㇐" transform="matrix(1,0,0,1,1396,-4)" xmlns:kvg="http://kanjivg.tagaini.net"></path><path class="stroke_order_diagram--existing_path" d="M60.6,9.75c0.71,0.35,1.14,1.57,1.28,2.27s0.41,9.97,0.26,14.34" id="Ske2cmutx4u" kvg:type="㇑a" transform="matrix(1,0,0,1,1396,-4)" xmlns:kvg="http://kanjivg.tagaini.net"></path><path class="stroke_order_diagram--existing_path" d="M46.77,28.61c0.69,0.26,1.95,0.3,2.65,0.26c7.09-0.37,18.58-3.33,28.21-3.31c1.15,0,1.84,0.12,2.42,0.25" id="Ske2cmutx4v" kvg:type="㇐" transform="matrix(1,0,0,1,1396,-4)" xmlns:kvg="http://kanjivg.tagaini.net"></path><path class="stroke_order_diagram--existing_path" d="M35.15,37.74c1.23,0.51,3.55,1.02,5.8,0.65C52.5,36.5,75.25,33,87.32,32.34c8.44-0.46,1.99,6.16-0.46,8.28" id="Ske2cmutx4w" kvg:type="㇖" transform="matrix(1,0,0,1,1396,-4)" xmlns:kvg="http://kanjivg.tagaini.net"></path><path class="stroke_order_diagram--existing_path" d="M44.58,44.69c0.57,0.38,2.42,0.5,2.99,0.39c2.67-0.52,23.28-3.49,27.76-3.88c0.88-0.08,1.67,0.08,2.4,0.4" id="Ske2cmutx4x" kvg:type="㇐" transform="matrix(1,0,0,1,1396,-4)" xmlns:kvg="http://kanjivg.tagaini.net"></path><path class="stroke_order_diagram--existing_path" d="M61.59,43.04c0.4,0.62,0.4,0.99,0.4,1.48c0,3.46-0.01,2.06-0.01,8" id="Ske2cmutx4y" kvg:type="㇑a" transform="matrix(1,0,0,1,1396,-4)" xmlns:kvg="http://kanjivg.tagaini.net"></path><path class="stroke_order_diagram--existing_path" d="M42.74,54.21c0.46,0.23,2.09,0.45,2.87,0.37c8.88-0.83,24.98-3.43,32.6-3.78c1.25-0.06,2.75,0.39,3.37,0.76" id="Ske2cmutx4z" kvg:type="㇐" transform="matrix(1,0,0,1,1396,-4)" xmlns:kvg="http://kanjivg.tagaini.net"></path><path class="stroke_order_diagram--existing_path" d="M35.25,62.7c1.24,0.54,3.51,0.61,4.75,0.54c9.5-0.49,35.25-4.74,50.16-5.73c2.06-0.14,3.3,0.26,4.34,0.53" id="Ske2cmutx50" kvg:type="㇐" transform="matrix(1,0,0,1,1396,-4)" xmlns:kvg="http://kanjivg.tagaini.net"></path><path class="stroke_order_diagram--existing_path" d="M38.46,73.3c0.27,0.29,0.55,0.53,0.67,0.89c0.94,2.85,2.06,11.7,2.7,16.81" id="Ske2cmutx51" kvg:type="㇑" transform="matrix(1,0,0,1,1396,-4)" xmlns:kvg="http://kanjivg.tagaini.net"></path><path class="stroke_order_diagram--existing_path" d="M40.15,75.23c5.54-1.48,11.78-3.13,14.95-3.5c1.16-0.14,1.86,0.81,1.69,1.61c-0.69,3.33-1.49,9.34-2.51,13.94" id="Ske2cmutx52" kvg:type="㇕b" transform="matrix(1,0,0,1,1396,-4)" xmlns:kvg="http://kanjivg.tagaini.net"></path><path class="stroke_order_diagram--existing_path" d="M41.96,89c3.73-0.42,8.86-1.15,13.98-1.8" id="Ske2cmutx53" kvg:type="㇐b" transform="matrix(1,0,0,1,1396,-4)" xmlns:kvg="http://kanjivg.tagaini.net"></path><path class="stroke_order_diagram--existing_path" d="M62.75,70.92c0.8,0.62,2.26,0.75,3.07,0.62c8.75-1.51,17.78-2.34,27.54-3.28c1.33-0.13,2.13,0.29,2.8,0.6" id="Ske2cmutx54" kvg:type="㇐" transform="matrix(1,0,0,1,1396,-4)" xmlns:kvg="http://kanjivg.tagaini.net"></path><path class="stroke_order_diagram--current_path" d="M81.07,61.06c0.05,0.41,0.83,2.13,0.83,4.74c0,17.51-0.17,23.42-0.17,27.67c0,10.33-4.96,1.53-6.42,0.21" id="kvg:05114-s15" kvg:type="㇚" transform="matrix(1,0,0,1,1396,-4)" xmlns:kvg="http://kanjivg.tagaini.net"></path><path class="stroke_order_diagram--current_path" d="M81.07,61.06c0.05,0.41,0.83,2.13,0.83,4.74c0,17.51-0.17,23.42-0.17,27.67c0,10.33-4.96,1.53-6.42,0.21" id="Ske2cmutx56" kvg:type="㇚" transform="matrix(1,0,0,1,1396,-4)" xmlns:kvg="http://kanjivg.tagaini.net"></path><circle class="stroke_order_diagram--path_start" cx="81.07" cy="61.06" r="4" transform="matrix(1,0,0,1,1396,-4)"></circle><line class="stroke_order_diagram--guide_line" x1="1550" x2="1550" y1="1" y2="99"></line><line class="stroke_order_diagram--bounding_box" x1="1599" x2="1599" y1="1" y2="99"></line><path class="stroke_order_diagram--existing_path" d="M33.44,13.5c0.13,1.23,0.22,2.78-0.11,4.29C31.19,27.36,22.94,45.86,13,58.82" id="Ske2cmutx59" kvg:type="㇒" transform="matrix(1,0,0,1,1496,-4)" xmlns:kvg="http://kanjivg.tagaini.net"></path><path class="stroke_order_diagram--existing_path" d="M26.48,41.61c0.59,0.61,0.76,1.97,0.76,3.23c0,13.02-0.29,42.15-0.29,50.9" id="Ske2cmutx5a" kvg:type="㇑" transform="matrix(1,0,0,1,1496,-4)" xmlns:kvg="http://kanjivg.tagaini.net"></path><path class="stroke_order_diagram--existing_path" d="M41.91,19.13c0.87,0.38,2.45,0.44,3.32,0.38c9.01-0.63,24.81-3.63,35.12-3.61c1.44,0,2.31,0.18,3.03,0.37" id="Ske2cmutx5b" kvg:type="㇐" transform="matrix(1,0,0,1,1496,-4)" xmlns:kvg="http://kanjivg.tagaini.net"></path><path class="stroke_order_diagram--existing_path" d="M60.6,9.75c0.71,0.35,1.14,1.57,1.28,2.27s0.41,9.97,0.26,14.34" id="Ske2cmutx5c" kvg:type="㇑a" transform="matrix(1,0,0,1,1496,-4)" xmlns:kvg="http://kanjivg.tagaini.net"></path><path class="stroke_order_diagram--existing_path" d="M46.77,28.61c0.69,0.26,1.95,0.3,2.65,0.26c7.09-0.37,18.58-3.33,28.21-3.31c1.15,0,1.84,0.12,2.42,0.25" id="Ske2cmutx5d" kvg:type="㇐" transform="matrix(1,0,0,1,1496,-4)" xmlns:kvg="http://kanjivg.tagaini.net"></path><path class="stroke_order_diagram--existing_path" d="M35.15,37.74c1.23,0.51,3.55,1.02,5.8,0.65C52.5,36.5,75.25,33,87.32,32.34c8.44-0.46,1.99,6.16-0.46,8.28" id="Ske2cmutx5e" kvg:type="㇖" transform="matrix(1,0,0,1,1496,-4)" xmlns:kvg="http://kanjivg.tagaini.net"></path><path class="stroke_order_diagram--existing_path" d="M44.58,44.69c0.57,0.38,2.42,0.5,2.99,0.39c2.67-0.52,23.28-3.49,27.76-3.88c0.88-0.08,1.67,0.08,2.4,0.4" id="Ske2cmutx5f" kvg:type="㇐" transform="matrix(1,0,0,1,1496,-4)" xmlns:kvg="http://kanjivg.tagaini.net"></path><path class="stroke_order_diagram--existing_path" d="M61.59,43.04c0.4,0.62,0.4,0.99,0.4,1.48c0,3.46-0.01,2.06-0.01,8" id="Ske2cmutx5g" kvg:type="㇑a" transform="matrix(1,0,0,1,1496,-4)" xmlns:kvg="http://kanjivg.tagaini.net"></path><path class="stroke_order_diagram--existing_path" d="M42.74,54.21c0.46,0.23,2.09,0.45,2.87,0.37c8.88-0.83,24.98-3.43,32.6-3.78c1.25-0.06,2.75,0.39,3.37,0.76" id="Ske2cmutx5h" kvg:type="㇐" transform="matrix(1,0,0,1,1496,-4)" xmlns:kvg="http://kanjivg.tagaini.net"></path><path class="stroke_order_diagram--existing_path" d="M35.25,62.7c1.24,0.54,3.51,0.61,4.75,0.54c9.5-0.49,35.25-4.74,50.16-5.73c2.06-0.14,3.3,0.26,4.34,0.53" id="Ske2cmutx5i" kvg:type="㇐" transform="matrix(1,0,0,1,1496,-4)" xmlns:kvg="http://kanjivg.tagaini.net"></path><path class="stroke_order_diagram--existing_path" d="M38.46,73.3c0.27,0.29,0.55,0.53,0.67,0.89c0.94,2.85,2.06,11.7,2.7,16.81" id="Ske2cmutx5j" kvg:type="㇑" transform="matrix(1,0,0,1,1496,-4)" xmlns:kvg="http://kanjivg.tagaini.net"></path><path class="stroke_order_diagram--existing_path" d="M40.15,75.23c5.54-1.48,11.78-3.13,14.95-3.5c1.16-0.14,1.86,0.81,1.69,1.61c-0.69,3.33-1.49,9.34-2.51,13.94" id="Ske2cmutx5k" kvg:type="㇕b" transform="matrix(1,0,0,1,1496,-4)" xmlns:kvg="http://kanjivg.tagaini.net"></path><path class="stroke_order_diagram--existing_path" d="M41.96,89c3.73-0.42,8.86-1.15,13.98-1.8" id="Ske2cmutx5l" kvg:type="㇐b" transform="matrix(1,0,0,1,1496,-4)" xmlns:kvg="http://kanjivg.tagaini.net"></path><path class="stroke_order_diagram--existing_path" d="M62.75,70.92c0.8,0.62,2.26,0.75,3.07,0.62c8.75-1.51,17.78-2.34,27.54-3.28c1.33-0.13,2.13,0.29,2.8,0.6" id="Ske2cmutx5m" kvg:type="㇐" transform="matrix(1,0,0,1,1496,-4)" xmlns:kvg="http://kanjivg.tagaini.net"></path><path class="stroke_order_diagram--existing_path" d="M81.07,61.06c0.05,0.41,0.83,2.13,0.83,4.74c0,17.51-0.17,23.42-0.17,27.67c0,10.33-4.96,1.53-6.42,0.21" id="Ske2cmutx5n" kvg:type="㇚" transform="matrix(1,0,0,1,1496,-4)" xmlns:kvg="http://kanjivg.tagaini.net"></path><path class="stroke_order_diagram--current_path" d="M66.59,78.27c2.02,1.12,5.22,4.62,5.73,6.37" id="kvg:05114-s16" kvg:type="㇔" transform="matrix(1,0,0,1,1496,-4)" xmlns:kvg="http://kanjivg.tagaini.net"></path><path class="stroke_order_diagram--current_path" d="M66.59,78.27c2.02,1.12,5.22,4.62,5.73,6.37" id="Ske2cmutx5p" kvg:type="㇔" transform="matrix(1,0,0,1,1496,-4)" xmlns:kvg="http://kanjivg.tagaini.net"></path><circle class="stroke_order_diagram--path_start" cx="66.59" cy="78.27" r="4" transform="matrix(1,0,0,1,1496,-4)"></circle></svg>