<svg class="stroke_order_diagram--svg_container_for_5186629fd5dda79658000c1c" style="height: 100px; width: 900px;" viewbox="0 0 900 100"><desc>Created with Snap</desc><defs></defs><line class="stroke_order_diagram--bounding_box" x1="1" x2="899" y1="1" y2="1"></line><line class="stroke_order_diagram--bounding_box" x1="1" x2="1" y1="1" y2="99"></line><line class="stroke_order_diagram--bounding_box" x1="1" x2="899" y1="99" y2="99"></line><line class="stroke_order_diagram--guide_line" x1="0" x2="900" y1="50" y2="50"></line><line class="stroke_order_diagram--guide_line" x1="50" x2="50" y1="1" y2="99"></line><line class="stroke_order_diagram--bounding_box" x1="99" x2="99" y1="1" y2="99"></line><path class="stroke_order_diagram--current_path" d="M25.71,20.26c0.58,0.64,1.03,1.31,1.17,1.87c1.12,4.62,3.24,15.58,3.9,24.08" id="kvg:05191-s1" kvg:type="㇑" transform="matrix(1,0,0,1,-4,-4)" xmlns:kvg="http://kanjivg.tagaini.net"></path><path class="stroke_order_diagram--current_path" d="M25.71,20.26c0.58,0.64,1.03,1.31,1.17,1.87c1.12,4.62,3.24,15.58,3.9,24.08" id="Ske2ctgn1i" kvg:type="㇑" transform="matrix(1,0,0,1,-4,-4)" xmlns:kvg="http://kanjivg.tagaini.net"></path><circle class="stroke_order_diagram--path_start" cx="25.71" cy="20.26" r="4" transform="matrix(1,0,0,1,-4,-4)"></circle><line class="stroke_order_diagram--guide_line" x1="150" x2="150" y1="1" y2="99"></line><line class="stroke_order_diagram--bounding_box" x1="199" x2="199" y1="1" y2="99"></line><path class="stroke_order_diagram--existing_path" d="M25.71,20.26c0.58,0.64,1.03,1.31,1.17,1.87c1.12,4.62,3.24,15.58,3.9,24.08" id="Ske2ctgn1l" kvg:type="㇑" transform="matrix(1,0,0,1,96,-4)" xmlns:kvg="http://kanjivg.tagaini.net"></path><path class="stroke_order_diagram--current_path" d="M27.67,21.51c10.47-1.15,47-3.02,53.63-3.47c2.43-0.17,3.34,1.17,3.21,2.41c-0.49,4.53-1.95,15.24-3.48,22.7" id="kvg:05191-s2" kvg:type="㇕a" transform="matrix(1,0,0,1,96,-4)" xmlns:kvg="http://kanjivg.tagaini.net"></path><path class="stroke_order_diagram--current_path" d="M27.67,21.51c10.47-1.15,47-3.02,53.63-3.47c2.43-0.17,3.34,1.17,3.21,2.41c-0.49,4.53-1.95,15.24-3.48,22.7" id="Ske2ctgn1n" kvg:type="㇕a" transform="matrix(1,0,0,1,96,-4)" xmlns:kvg="http://kanjivg.tagaini.net"></path><circle class="stroke_order_diagram--path_start" cx="27.67" cy="21.51" r="4" transform="matrix(1,0,0,1,96,-4)"></circle><line class="stroke_order_diagram--guide_line" x1="250" x2="250" y1="1" y2="99"></line><line class="stroke_order_diagram--bounding_box" x1="299" x2="299" y1="1" y2="99"></line><path class="stroke_order_diagram--existing_path" d="M25.71,20.26c0.58,0.64,1.03,1.31,1.17,1.87c1.12,4.62,3.24,15.58,3.9,24.08" id="Ske2ctgn1q" kvg:type="㇑" transform="matrix(1,0,0,1,196,-4)" xmlns:kvg="http://kanjivg.tagaini.net"></path><path class="stroke_order_diagram--existing_path" d="M27.67,21.51c10.47-1.15,47-3.02,53.63-3.47c2.43-0.17,3.34,1.17,3.21,2.41c-0.49,4.53-1.95,15.24-3.48,22.7" id="Ske2ctgn1r" kvg:type="㇕a" transform="matrix(1,0,0,1,196,-4)" xmlns:kvg="http://kanjivg.tagaini.net"></path><path class="stroke_order_diagram--current_path" d="M52.36,8.5c1.16,0.8,1.85,1.95,1.85,3c0.04,10.36,0.21,27.82,0.21,30.52" id="kvg:05191-s3" kvg:type="㇑a" transform="matrix(1,0,0,1,196,-4)" xmlns:kvg="http://kanjivg.tagaini.net"></path><path class="stroke_order_diagram--current_path" d="M52.36,8.5c1.16,0.8,1.85,1.95,1.85,3c0.04,10.36,0.21,27.82,0.21,30.52" id="Ske2ctgn1t" kvg:type="㇑a" transform="matrix(1,0,0,1,196,-4)" xmlns:kvg="http://kanjivg.tagaini.net"></path><circle class="stroke_order_diagram--path_start" cx="52.36" cy="8.5" r="4" transform="matrix(1,0,0,1,196,-4)"></circle><line class="stroke_order_diagram--guide_line" x1="350" x2="350" y1="1" y2="99"></line><line class="stroke_order_diagram--bounding_box" x1="399" x2="399" y1="1" y2="99"></line><path class="stroke_order_diagram--existing_path" d="M25.71,20.26c0.58,0.64,1.03,1.31,1.17,1.87c1.12,4.62,3.24,15.58,3.9,24.08" id="Ske2ctgn1w" kvg:type="㇑" transform="matrix(1,0,0,1,296,-4)" xmlns:kvg="http://kanjivg.tagaini.net"></path><path class="stroke_order_diagram--existing_path" d="M27.67,21.51c10.47-1.15,47-3.02,53.63-3.47c2.43-0.17,3.34,1.17,3.21,2.41c-0.49,4.53-1.95,15.24-3.48,22.7" id="Ske2ctgn1x" kvg:type="㇕a" transform="matrix(1,0,0,1,296,-4)" xmlns:kvg="http://kanjivg.tagaini.net"></path><path class="stroke_order_diagram--existing_path" d="M52.36,8.5c1.16,0.8,1.85,1.95,1.85,3c0.04,10.36,0.21,27.82,0.21,30.52" id="Ske2ctgn1y" kvg:type="㇑a" transform="matrix(1,0,0,1,296,-4)" xmlns:kvg="http://kanjivg.tagaini.net"></path><path class="stroke_order_diagram--current_path" d="M28.75,31.83C31.64,31.6,80.98,29,83.37,29" id="kvg:05191-s4" kvg:type="㇐a" transform="matrix(1,0,0,1,296,-4)" xmlns:kvg="http://kanjivg.tagaini.net"></path><path class="stroke_order_diagram--current_path" d="M28.75,31.83C31.64,31.6,80.98,29,83.37,29" id="Ske2ctgn110" kvg:type="㇐a" transform="matrix(1,0,0,1,296,-4)" xmlns:kvg="http://kanjivg.tagaini.net"></path><circle class="stroke_order_diagram--path_start" cx="28.75" cy="31.83" r="4" transform="matrix(1,0,0,1,296,-4)"></circle><line class="stroke_order_diagram--guide_line" x1="450" x2="450" y1="1" y2="99"></line><line class="stroke_order_diagram--bounding_box" x1="499" x2="499" y1="1" y2="99"></line><path class="stroke_order_diagram--existing_path" d="M25.71,20.26c0.58,0.64,1.03,1.31,1.17,1.87c1.12,4.62,3.24,15.58,3.9,24.08" id="Ske2ctgn113" kvg:type="㇑" transform="matrix(1,0,0,1,396,-4)" xmlns:kvg="http://kanjivg.tagaini.net"></path><path class="stroke_order_diagram--existing_path" d="M27.67,21.51c10.47-1.15,47-3.02,53.63-3.47c2.43-0.17,3.34,1.17,3.21,2.41c-0.49,4.53-1.95,15.24-3.48,22.7" id="Ske2ctgn114" kvg:type="㇕a" transform="matrix(1,0,0,1,396,-4)" xmlns:kvg="http://kanjivg.tagaini.net"></path><path class="stroke_order_diagram--existing_path" d="M52.36,8.5c1.16,0.8,1.85,1.95,1.85,3c0.04,10.36,0.21,27.82,0.21,30.52" id="Ske2ctgn115" kvg:type="㇑a" transform="matrix(1,0,0,1,396,-4)" xmlns:kvg="http://kanjivg.tagaini.net"></path><path class="stroke_order_diagram--existing_path" d="M28.75,31.83C31.64,31.6,80.98,29,83.37,29" id="Ske2ctgn116" kvg:type="㇐a" transform="matrix(1,0,0,1,396,-4)" xmlns:kvg="http://kanjivg.tagaini.net"></path><path class="stroke_order_diagram--current_path" d="M30.75,44.06c7.31-0.33,41.54-3.02,50.36-3.14" id="kvg:05191-s5" kvg:type="㇐a" transform="matrix(1,0,0,1,396,-4)" xmlns:kvg="http://kanjivg.tagaini.net"></path><path class="stroke_order_diagram--current_path" d="M30.75,44.06c7.31-0.33,41.54-3.02,50.36-3.14" id="Ske2ctgn118" kvg:type="㇐a" transform="matrix(1,0,0,1,396,-4)" xmlns:kvg="http://kanjivg.tagaini.net"></path><circle class="stroke_order_diagram--path_start" cx="30.75" cy="44.06" r="4" transform="matrix(1,0,0,1,396,-4)"></circle><line class="stroke_order_diagram--guide_line" x1="550" x2="550" y1="1" y2="99"></line><line class="stroke_order_diagram--bounding_box" x1="599" x2="599" y1="1" y2="99"></line><path class="stroke_order_diagram--existing_path" d="M25.71,20.26c0.58,0.64,1.03,1.31,1.17,1.87c1.12,4.62,3.24,15.58,3.9,24.08" id="Ske2ctgn11b" kvg:type="㇑" transform="matrix(1,0,0,1,496,-4)" xmlns:kvg="http://kanjivg.tagaini.net"></path><path class="stroke_order_diagram--existing_path" d="M27.67,21.51c10.47-1.15,47-3.02,53.63-3.47c2.43-0.17,3.34,1.17,3.21,2.41c-0.49,4.53-1.95,15.24-3.48,22.7" id="Ske2ctgn11c" kvg:type="㇕a" transform="matrix(1,0,0,1,496,-4)" xmlns:kvg="http://kanjivg.tagaini.net"></path><path class="stroke_order_diagram--existing_path" d="M52.36,8.5c1.16,0.8,1.85,1.95,1.85,3c0.04,10.36,0.21,27.82,0.21,30.52" id="Ske2ctgn11d" kvg:type="㇑a" transform="matrix(1,0,0,1,496,-4)" xmlns:kvg="http://kanjivg.tagaini.net"></path><path class="stroke_order_diagram--existing_path" d="M28.75,31.83C31.64,31.6,80.98,29,83.37,29" id="Ske2ctgn11e" kvg:type="㇐a" transform="matrix(1,0,0,1,496,-4)" xmlns:kvg="http://kanjivg.tagaini.net"></path><path class="stroke_order_diagram--existing_path" d="M30.75,44.06c7.31-0.33,41.54-3.02,50.36-3.14" id="Ske2ctgn11f" kvg:type="㇐a" transform="matrix(1,0,0,1,496,-4)" xmlns:kvg="http://kanjivg.tagaini.net"></path><path class="stroke_order_diagram--current_path" d="M36.7,53.72c0.41,0.76,0.68,1.98,0.54,3.34c-0.14,1.37,0.14,39.91,0.14,42.19" id="kvg:05191-s6" kvg:type="㇑" transform="matrix(1,0,0,1,496,-4)" xmlns:kvg="http://kanjivg.tagaini.net"></path><path class="stroke_order_diagram--current_path" d="M36.7,53.72c0.41,0.76,0.68,1.98,0.54,3.34c-0.14,1.37,0.14,39.91,0.14,42.19" id="Ske2ctgn11h" kvg:type="㇑" transform="matrix(1,0,0,1,496,-4)" xmlns:kvg="http://kanjivg.tagaini.net"></path><circle class="stroke_order_diagram--path_start" cx="36.7" cy="53.72" r="4" transform="matrix(1,0,0,1,496,-4)"></circle><line class="stroke_order_diagram--guide_line" x1="650" x2="650" y1="1" y2="99"></line><line class="stroke_order_diagram--bounding_box" x1="699" x2="699" y1="1" y2="99"></line><path class="stroke_order_diagram--existing_path" d="M25.71,20.26c0.58,0.64,1.03,1.31,1.17,1.87c1.12,4.62,3.24,15.58,3.9,24.08" id="Ske2ctgn11k" kvg:type="㇑" transform="matrix(1,0,0,1,596,-4)" xmlns:kvg="http://kanjivg.tagaini.net"></path><path class="stroke_order_diagram--existing_path" d="M27.67,21.51c10.47-1.15,47-3.02,53.63-3.47c2.43-0.17,3.34,1.17,3.21,2.41c-0.49,4.53-1.95,15.24-3.48,22.7" id="Ske2ctgn11l" kvg:type="㇕a" transform="matrix(1,0,0,1,596,-4)" xmlns:kvg="http://kanjivg.tagaini.net"></path><path class="stroke_order_diagram--existing_path" d="M52.36,8.5c1.16,0.8,1.85,1.95,1.85,3c0.04,10.36,0.21,27.82,0.21,30.52" id="Ske2ctgn11m" kvg:type="㇑a" transform="matrix(1,0,0,1,596,-4)" xmlns:kvg="http://kanjivg.tagaini.net"></path><path class="stroke_order_diagram--existing_path" d="M28.75,31.83C31.64,31.6,80.98,29,83.37,29" id="Ske2ctgn11n" kvg:type="㇐a" transform="matrix(1,0,0,1,596,-4)" xmlns:kvg="http://kanjivg.tagaini.net"></path><path class="stroke_order_diagram--existing_path" d="M30.75,44.06c7.31-0.33,41.54-3.02,50.36-3.14" id="Ske2ctgn11o" kvg:type="㇐a" transform="matrix(1,0,0,1,596,-4)" xmlns:kvg="http://kanjivg.tagaini.net"></path><path class="stroke_order_diagram--existing_path" d="M36.7,53.72c0.41,0.76,0.68,1.98,0.54,3.34c-0.14,1.37,0.14,39.91,0.14,42.19" id="Ske2ctgn11p" kvg:type="㇑" transform="matrix(1,0,0,1,596,-4)" xmlns:kvg="http://kanjivg.tagaini.net"></path><path class="stroke_order_diagram--current_path" d="M37.24,55.24c5.13-0.61,33.31-2.83,34.32-3.04c2.16-0.46,3.75,1.11,3.51,1.82c-0.41,1.22-0.41,38.62-0.41,42.12c0,5.62-5.55,0.08-7.33-1.09" id="kvg:05191-s7" kvg:type="㇆a" transform="matrix(1,0,0,1,596,-4)" xmlns:kvg="http://kanjivg.tagaini.net"></path><path class="stroke_order_diagram--current_path" d="M37.24,55.24c5.13-0.61,33.31-2.83,34.32-3.04c2.16-0.46,3.75,1.11,3.51,1.82c-0.41,1.22-0.41,38.62-0.41,42.12c0,5.62-5.55,0.08-7.33-1.09" id="Ske2ctgn11r" kvg:type="㇆a" transform="matrix(1,0,0,1,596,-4)" xmlns:kvg="http://kanjivg.tagaini.net"></path><circle class="stroke_order_diagram--path_start" cx="37.24" cy="55.24" r="4" transform="matrix(1,0,0,1,596,-4)"></circle><line class="stroke_order_diagram--guide_line" x1="750" x2="750" y1="1" y2="99"></line><line class="stroke_order_diagram--bounding_box" x1="799" x2="799" y1="1" y2="99"></line><path class="stroke_order_diagram--existing_path" d="M25.71,20.26c0.58,0.64,1.03,1.31,1.17,1.87c1.12,4.62,3.24,15.58,3.9,24.08" id="Ske2ctgn11u" kvg:type="㇑" transform="matrix(1,0,0,1,696,-4)" xmlns:kvg="http://kanjivg.tagaini.net"></path><path class="stroke_order_diagram--existing_path" d="M27.67,21.51c10.47-1.15,47-3.02,53.63-3.47c2.43-0.17,3.34,1.17,3.21,2.41c-0.49,4.53-1.95,15.24-3.48,22.7" id="Ske2ctgn11v" kvg:type="㇕a" transform="matrix(1,0,0,1,696,-4)" xmlns:kvg="http://kanjivg.tagaini.net"></path><path class="stroke_order_diagram--existing_path" d="M52.36,8.5c1.16,0.8,1.85,1.95,1.85,3c0.04,10.36,0.21,27.82,0.21,30.52" id="Ske2ctgn11w" kvg:type="㇑a" transform="matrix(1,0,0,1,696,-4)" xmlns:kvg="http://kanjivg.tagaini.net"></path><path class="stroke_order_diagram--existing_path" d="M28.75,31.83C31.64,31.6,80.98,29,83.37,29" id="Ske2ctgn11x" kvg:type="㇐a" transform="matrix(1,0,0,1,696,-4)" xmlns:kvg="http://kanjivg.tagaini.net"></path><path class="stroke_order_diagram--existing_path" d="M30.75,44.06c7.31-0.33,41.54-3.02,50.36-3.14" id="Ske2ctgn11y" kvg:type="㇐a" transform="matrix(1,0,0,1,696,-4)" xmlns:kvg="http://kanjivg.tagaini.net"></path><path class="stroke_order_diagram--existing_path" d="M36.7,53.72c0.41,0.76,0.68,1.98,0.54,3.34c-0.14,1.37,0.14,39.91,0.14,42.19" id="Ske2ctgn11z" kvg:type="㇑" transform="matrix(1,0,0,1,696,-4)" xmlns:kvg="http://kanjivg.tagaini.net"></path><path class="stroke_order_diagram--existing_path" d="M37.24,55.24c5.13-0.61,33.31-2.83,34.32-3.04c2.16-0.46,3.75,1.11,3.51,1.82c-0.41,1.22-0.41,38.62-0.41,42.12c0,5.62-5.55,0.08-7.33-1.09" id="Ske2ctgn120" kvg:type="㇆a" transform="matrix(1,0,0,1,696,-4)" xmlns:kvg="http://kanjivg.tagaini.net"></path><path class="stroke_order_diagram--current_path" d="M44.25,67.14c0.43,0.17,1.21,0.21,1.64,0.17c2.72-0.29,17.48-1.89,20.12-1.7c0.71,0.05,1.14,0.08,1.5,0.16" id="kvg:05191-s8" kvg:type="㇐" transform="matrix(1,0,0,1,696,-4)" xmlns:kvg="http://kanjivg.tagaini.net"></path><path class="stroke_order_diagram--current_path" d="M44.25,67.14c0.43,0.17,1.21,0.21,1.64,0.17c2.72-0.29,17.48-1.89,20.12-1.7c0.71,0.05,1.14,0.08,1.5,0.16" id="Ske2ctgn122" kvg:type="㇐" transform="matrix(1,0,0,1,696,-4)" xmlns:kvg="http://kanjivg.tagaini.net"></path><circle class="stroke_order_diagram--path_start" cx="44.25" cy="67.14" r="4" transform="matrix(1,0,0,1,696,-4)"></circle><line class="stroke_order_diagram--guide_line" x1="850" x2="850" y1="1" y2="99"></line><line class="stroke_order_diagram--bounding_box" x1="899" x2="899" y1="1" y2="99"></line><path class="stroke_order_diagram--existing_path" d="M25.71,20.26c0.58,0.64,1.03,1.31,1.17,1.87c1.12,4.62,3.24,15.58,3.9,24.08" id="Ske2ctgn125" kvg:type="㇑" transform="matrix(1,0,0,1,796,-4)" xmlns:kvg="http://kanjivg.tagaini.net"></path><path class="stroke_order_diagram--existing_path" d="M27.67,21.51c10.47-1.15,47-3.02,53.63-3.47c2.43-0.17,3.34,1.17,3.21,2.41c-0.49,4.53-1.95,15.24-3.48,22.7" id="Ske2ctgn126" kvg:type="㇕a" transform="matrix(1,0,0,1,796,-4)" xmlns:kvg="http://kanjivg.tagaini.net"></path><path class="stroke_order_diagram--existing_path" d="M52.36,8.5c1.16,0.8,1.85,1.95,1.85,3c0.04,10.36,0.21,27.82,0.21,30.52" id="Ske2ctgn127" kvg:type="㇑a" transform="matrix(1,0,0,1,796,-4)" xmlns:kvg="http://kanjivg.tagaini.net"></path><path class="stroke_order_diagram--existing_path" d="M28.75,31.83C31.64,31.6,80.98,29,83.37,29" id="Ske2ctgn128" kvg:type="㇐a" transform="matrix(1,0,0,1,796,-4)" xmlns:kvg="http://kanjivg.tagaini.net"></path><path class="stroke_order_diagram--existing_path" d="M30.75,44.06c7.31-0.33,41.54-3.02,50.36-3.14" id="Ske2ctgn129" kvg:type="㇐a" transform="matrix(1,0,0,1,796,-4)" xmlns:kvg="http://kanjivg.tagaini.net"></path><path class="stroke_order_diagram--existing_path" d="M36.7,53.72c0.41,0.76,0.68,1.98,0.54,3.34c-0.14,1.37,0.14,39.91,0.14,42.19" id="Ske2ctgn12a" kvg:type="㇑" transform="matrix(1,0,0,1,796,-4)" xmlns:kvg="http://kanjivg.tagaini.net"></path><path class="stroke_order_diagram--existing_path" d="M37.24,55.24c5.13-0.61,33.31-2.83,34.32-3.04c2.16-0.46,3.75,1.11,3.51,1.82c-0.41,1.22-0.41,38.62-0.41,42.12c0,5.62-5.55,0.08-7.33-1.09" id="Ske2ctgn12b" kvg:type="㇆a" transform="matrix(1,0,0,1,796,-4)" xmlns:kvg="http://kanjivg.tagaini.net"></path><path class="stroke_order_diagram--existing_path" d="M44.25,67.14c0.43,0.17,1.21,0.21,1.64,0.17c2.72-0.29,17.48-1.89,20.12-1.7c0.71,0.05,1.14,0.08,1.5,0.16" id="Ske2ctgn12c" kvg:type="㇐" transform="matrix(1,0,0,1,796,-4)" xmlns:kvg="http://kanjivg.tagaini.net"></path><path class="stroke_order_diagram--current_path" d="M44.25,79.14c0.43,0.17,1.21,0.21,1.64,0.17c2.72-0.29,17.48-1.89,20.12-1.7c0.71,0.05,1.14,0.08,1.5,0.16" id="kvg:05191-s9" kvg:type="㇐" transform="matrix(1,0,0,1,796,-4)" xmlns:kvg="http://kanjivg.tagaini.net"></path><path class="stroke_order_diagram--current_path" d="M44.25,79.14c0.43,0.17,1.21,0.21,1.64,0.17c2.72-0.29,17.48-1.89,20.12-1.7c0.71,0.05,1.14,0.08,1.5,0.16" id="Ske2ctgn12e" kvg:type="㇐" transform="matrix(1,0,0,1,796,-4)" xmlns:kvg="http://kanjivg.tagaini.net"></path><circle class="stroke_order_diagram--path_start" cx="44.25" cy="79.14" r="4" transform="matrix(1,0,0,1,796,-4)"></circle></svg>