<svg class="stroke_order_diagram--svg_container_for_51866291d5dda79658000858" style="height: 100px; width: 600px;" viewbox="0 0 600 100"><desc>Created with Snap</desc><defs></defs><line class="stroke_order_diagram--bounding_box" x1="1" x2="599" y1="1" y2="1"></line><line class="stroke_order_diagram--bounding_box" x1="1" x2="1" y1="1" y2="99"></line><line class="stroke_order_diagram--bounding_box" x1="1" x2="599" y1="99" y2="99"></line><line class="stroke_order_diagram--guide_line" x1="0" x2="600" y1="50" y2="50"></line><line class="stroke_order_diagram--guide_line" x1="50" x2="50" y1="1" y2="99"></line><line class="stroke_order_diagram--bounding_box" x1="99" x2="99" y1="1" y2="99"></line><path class="stroke_order_diagram--current_path" d="M25.8,16.5c1.29,1.29,1.37,2.55,1.37,4.86c0,28.26-0.04,55.01-15.16,72.89" id="kvg:051ea-s1" kvg:type="㇒" transform="matrix(1,0,0,1,-4,-4)" xmlns:kvg="http://kanjivg.tagaini.net"></path><path class="stroke_order_diagram--current_path" d="M25.8,16.5c1.29,1.29,1.37,2.55,1.37,4.86c0,28.26-0.04,55.01-15.16,72.89" id="Ske251n2mf" kvg:type="㇒" transform="matrix(1,0,0,1,-4,-4)" xmlns:kvg="http://kanjivg.tagaini.net"></path><circle class="stroke_order_diagram--path_start" cx="25.8" cy="16.5" r="4" transform="matrix(1,0,0,1,-4,-4)"></circle><line class="stroke_order_diagram--guide_line" x1="150" x2="150" y1="1" y2="99"></line><line class="stroke_order_diagram--bounding_box" x1="199" x2="199" y1="1" y2="99"></line><path class="stroke_order_diagram--existing_path" d="M25.8,16.5c1.29,1.29,1.37,2.55,1.37,4.86c0,28.26-0.04,55.01-15.16,72.89" id="Ske251n2mi" kvg:type="㇒" transform="matrix(1,0,0,1,96,-4)" xmlns:kvg="http://kanjivg.tagaini.net"></path><path class="stroke_order_diagram--current_path" d="M28,18.25c14.38-1,43.75-3.25,47.75-3.25s5.72,0.93,5.5,4.75C79.75,45.5,79.69,75.18,92,90.5c5.62,7,6.25,5.25,5.75-3" id="kvg:051ea-s2" kvg:type="㇈" transform="matrix(1,0,0,1,96,-4)" xmlns:kvg="http://kanjivg.tagaini.net"></path><path class="stroke_order_diagram--current_path" d="M28,18.25c14.38-1,43.75-3.25,47.75-3.25s5.72,0.93,5.5,4.75C79.75,45.5,79.69,75.18,92,90.5c5.62,7,6.25,5.25,5.75-3" id="Ske251n2mk" kvg:type="㇈" transform="matrix(1,0,0,1,96,-4)" xmlns:kvg="http://kanjivg.tagaini.net"></path><circle class="stroke_order_diagram--path_start" cx="28" cy="18.25" r="4" transform="matrix(1,0,0,1,96,-4)"></circle><line class="stroke_order_diagram--guide_line" x1="250" x2="250" y1="1" y2="99"></line><line class="stroke_order_diagram--bounding_box" x1="299" x2="299" y1="1" y2="99"></line><path class="stroke_order_diagram--existing_path" d="M25.8,16.5c1.29,1.29,1.37,2.55,1.37,4.86c0,28.26-0.04,55.01-15.16,72.89" id="Ske251n2mn" kvg:type="㇒" transform="matrix(1,0,0,1,196,-4)" xmlns:kvg="http://kanjivg.tagaini.net"></path><path class="stroke_order_diagram--existing_path" d="M28,18.25c14.38-1,43.75-3.25,47.75-3.25s5.72,0.93,5.5,4.75C79.75,45.5,79.69,75.18,92,90.5c5.62,7,6.25,5.25,5.75-3" id="Ske251n2mo" kvg:type="㇈" transform="matrix(1,0,0,1,196,-4)" xmlns:kvg="http://kanjivg.tagaini.net"></path><path class="stroke_order_diagram--current_path" d="M55.12,29c1.06,1.06,1.15,2.38,1.15,3.74c0,0.86,0.07,49.14,0.07,55.31" id="kvg:051ea-s3" kvg:type="㇑a" transform="matrix(1,0,0,1,196,-4)" xmlns:kvg="http://kanjivg.tagaini.net"></path><path class="stroke_order_diagram--current_path" d="M55.12,29c1.06,1.06,1.15,2.38,1.15,3.74c0,0.86,0.07,49.14,0.07,55.31" id="Ske251n2mq" kvg:type="㇑a" transform="matrix(1,0,0,1,196,-4)" xmlns:kvg="http://kanjivg.tagaini.net"></path><circle class="stroke_order_diagram--path_start" cx="55.12" cy="29" r="4" transform="matrix(1,0,0,1,196,-4)"></circle><line class="stroke_order_diagram--guide_line" x1="350" x2="350" y1="1" y2="99"></line><line class="stroke_order_diagram--bounding_box" x1="399" x2="399" y1="1" y2="99"></line><path class="stroke_order_diagram--existing_path" d="M25.8,16.5c1.29,1.29,1.37,2.55,1.37,4.86c0,28.26-0.04,55.01-15.16,72.89" id="Ske251n2mt" kvg:type="㇒" transform="matrix(1,0,0,1,296,-4)" xmlns:kvg="http://kanjivg.tagaini.net"></path><path class="stroke_order_diagram--existing_path" d="M28,18.25c14.38-1,43.75-3.25,47.75-3.25s5.72,0.93,5.5,4.75C79.75,45.5,79.69,75.18,92,90.5c5.62,7,6.25,5.25,5.75-3" id="Ske251n2mu" kvg:type="㇈" transform="matrix(1,0,0,1,296,-4)" xmlns:kvg="http://kanjivg.tagaini.net"></path><path class="stroke_order_diagram--existing_path" d="M55.12,29c1.06,1.06,1.15,2.38,1.15,3.74c0,0.86,0.07,49.14,0.07,55.31" id="Ske251n2mv" kvg:type="㇑a" transform="matrix(1,0,0,1,296,-4)" xmlns:kvg="http://kanjivg.tagaini.net"></path><path class="stroke_order_diagram--current_path" d="M57.49,55.73c5.2-0.55,8.01-1.07,12.5-1.54c1.6-0.17,3.35-0.35,4.94,0.02" id="kvg:051ea-s4" kvg:type="㇐b" transform="matrix(1,0,0,1,296,-4)" xmlns:kvg="http://kanjivg.tagaini.net"></path><path class="stroke_order_diagram--current_path" d="M57.49,55.73c5.2-0.55,8.01-1.07,12.5-1.54c1.6-0.17,3.35-0.35,4.94,0.02" id="Ske251n2mx" kvg:type="㇐b" transform="matrix(1,0,0,1,296,-4)" xmlns:kvg="http://kanjivg.tagaini.net"></path><circle class="stroke_order_diagram--path_start" cx="57.49" cy="55.73" r="4" transform="matrix(1,0,0,1,296,-4)"></circle><line class="stroke_order_diagram--guide_line" x1="450" x2="450" y1="1" y2="99"></line><line class="stroke_order_diagram--bounding_box" x1="499" x2="499" y1="1" y2="99"></line><path class="stroke_order_diagram--existing_path" d="M25.8,16.5c1.29,1.29,1.37,2.55,1.37,4.86c0,28.26-0.04,55.01-15.16,72.89" id="Ske251n2m10" kvg:type="㇒" transform="matrix(1,0,0,1,396,-4)" xmlns:kvg="http://kanjivg.tagaini.net"></path><path class="stroke_order_diagram--existing_path" d="M28,18.25c14.38-1,43.75-3.25,47.75-3.25s5.72,0.93,5.5,4.75C79.75,45.5,79.69,75.18,92,90.5c5.62,7,6.25,5.25,5.75-3" id="Ske251n2m11" kvg:type="㇈" transform="matrix(1,0,0,1,396,-4)" xmlns:kvg="http://kanjivg.tagaini.net"></path><path class="stroke_order_diagram--existing_path" d="M55.12,29c1.06,1.06,1.15,2.38,1.15,3.74c0,0.86,0.07,49.14,0.07,55.31" id="Ske251n2m12" kvg:type="㇑a" transform="matrix(1,0,0,1,396,-4)" xmlns:kvg="http://kanjivg.tagaini.net"></path><path class="stroke_order_diagram--existing_path" d="M57.49,55.73c5.2-0.55,8.01-1.07,12.5-1.54c1.6-0.17,3.35-0.35,4.94,0.02" id="Ske251n2m13" kvg:type="㇐b" transform="matrix(1,0,0,1,396,-4)" xmlns:kvg="http://kanjivg.tagaini.net"></path><path class="stroke_order_diagram--current_path" d="M38.58,52.84c1.1,1.1,1.15,2.54,1.15,3.99c0,0.86-0.1,25.82-0.1,32.42" id="kvg:051ea-s5" kvg:type="㇑a" transform="matrix(1,0,0,1,396,-4)" xmlns:kvg="http://kanjivg.tagaini.net"></path><path class="stroke_order_diagram--current_path" d="M38.58,52.84c1.1,1.1,1.15,2.54,1.15,3.99c0,0.86-0.1,25.82-0.1,32.42" id="Ske251n2m15" kvg:type="㇑a" transform="matrix(1,0,0,1,396,-4)" xmlns:kvg="http://kanjivg.tagaini.net"></path><circle class="stroke_order_diagram--path_start" cx="38.58" cy="52.84" r="4" transform="matrix(1,0,0,1,396,-4)"></circle><line class="stroke_order_diagram--guide_line" x1="550" x2="550" y1="1" y2="99"></line><line class="stroke_order_diagram--bounding_box" x1="599" x2="599" y1="1" y2="99"></line><path class="stroke_order_diagram--existing_path" d="M25.8,16.5c1.29,1.29,1.37,2.55,1.37,4.86c0,28.26-0.04,55.01-15.16,72.89" id="Ske251n2m18" kvg:type="㇒" transform="matrix(1,0,0,1,496,-4)" xmlns:kvg="http://kanjivg.tagaini.net"></path><path class="stroke_order_diagram--existing_path" d="M28,18.25c14.38-1,43.75-3.25,47.75-3.25s5.72,0.93,5.5,4.75C79.75,45.5,79.69,75.18,92,90.5c5.62,7,6.25,5.25,5.75-3" id="Ske251n2m19" kvg:type="㇈" transform="matrix(1,0,0,1,496,-4)" xmlns:kvg="http://kanjivg.tagaini.net"></path><path class="stroke_order_diagram--existing_path" d="M55.12,29c1.06,1.06,1.15,2.38,1.15,3.74c0,0.86,0.07,49.14,0.07,55.31" id="Ske251n2m1a" kvg:type="㇑a" transform="matrix(1,0,0,1,496,-4)" xmlns:kvg="http://kanjivg.tagaini.net"></path><path class="stroke_order_diagram--existing_path" d="M57.49,55.73c5.2-0.55,8.01-1.07,12.5-1.54c1.6-0.17,3.35-0.35,4.94,0.02" id="Ske251n2m1b" kvg:type="㇐b" transform="matrix(1,0,0,1,496,-4)" xmlns:kvg="http://kanjivg.tagaini.net"></path><path class="stroke_order_diagram--existing_path" d="M38.58,52.84c1.1,1.1,1.15,2.54,1.15,3.99c0,0.86-0.1,25.82-0.1,32.42" id="Ske251n2m1c" kvg:type="㇑a" transform="matrix(1,0,0,1,496,-4)" xmlns:kvg="http://kanjivg.tagaini.net"></path><path class="stroke_order_diagram--current_path" d="M25.44,90.12c3.17,0.97,6.45,0.54,9.69,0.33c10.24-0.66,26.51-2.01,37.63-2.34c3.53-0.11,7.07,0.11,10.55,0.81" id="kvg:051ea-s6" kvg:type="㇐" transform="matrix(1,0,0,1,496,-4)" xmlns:kvg="http://kanjivg.tagaini.net"></path><path class="stroke_order_diagram--current_path" d="M25.44,90.12c3.17,0.97,6.45,0.54,9.69,0.33c10.24-0.66,26.51-2.01,37.63-2.34c3.53-0.11,7.07,0.11,10.55,0.81" id="Ske251n2m1e" kvg:type="㇐" transform="matrix(1,0,0,1,496,-4)" xmlns:kvg="http://kanjivg.tagaini.net"></path><circle class="stroke_order_diagram--path_start" cx="25.44" cy="90.12" r="4" transform="matrix(1,0,0,1,496,-4)"></circle></svg>