<svg class="stroke_order_diagram--svg_container_for_51866274d5dda796580000b8" style="height: 100px; width: 500px;" viewbox="0 0 500 100"><desc>Created with Snap</desc><defs></defs><line class="stroke_order_diagram--bounding_box" x1="1" x2="499" y1="1" y2="1"></line><line class="stroke_order_diagram--bounding_box" x1="1" x2="1" y1="1" y2="99"></line><line class="stroke_order_diagram--bounding_box" x1="1" x2="499" y1="99" y2="99"></line><line class="stroke_order_diagram--guide_line" x1="0" x2="500" y1="50" y2="50"></line><line class="stroke_order_diagram--guide_line" x1="50" x2="50" y1="1" y2="99"></line><line class="stroke_order_diagram--bounding_box" x1="99" x2="99" y1="1" y2="99"></line><path class="stroke_order_diagram--current_path" d="M20.25,23.75c2.18-0.22,12.22-1.66,17.01-2.29c3.52-0.46,5.24-0.08,5.24,3.79c0,5.37,0,27.08,0,29.5c0,1.75,0.63,2.69,2,2.5c5.5-0.75,16.75-1.5,19-1.5" id="kvg:051f9-s1" kvg:type="㇅" transform="matrix(1,0,0,1,-4,-4)" xmlns:kvg="http://kanjivg.tagaini.net"></path><path class="stroke_order_diagram--current_path" d="M20.25,23.75c2.18-0.22,12.22-1.66,17.01-2.29c3.52-0.46,5.24-0.08,5.24,3.79c0,5.37,0,27.08,0,29.5c0,1.75,0.63,2.69,2,2.5c5.5-0.75,16.75-1.5,19-1.5" id="Ske1ooquae" kvg:type="㇅" transform="matrix(1,0,0,1,-4,-4)" xmlns:kvg="http://kanjivg.tagaini.net"></path><circle class="stroke_order_diagram--path_start" cx="20.25" cy="23.75" r="4" transform="matrix(1,0,0,1,-4,-4)"></circle><line class="stroke_order_diagram--guide_line" x1="150" x2="150" y1="1" y2="99"></line><line class="stroke_order_diagram--bounding_box" x1="199" x2="199" y1="1" y2="99"></line><path class="stroke_order_diagram--existing_path" d="M20.25,23.75c2.18-0.22,12.22-1.66,17.01-2.29c3.52-0.46,5.24-0.08,5.24,3.79c0,5.37,0,27.08,0,29.5c0,1.75,0.63,2.69,2,2.5c5.5-0.75,16.75-1.5,19-1.5" id="Ske1ooquah" kvg:type="㇅" transform="matrix(1,0,0,1,96,-4)" xmlns:kvg="http://kanjivg.tagaini.net"></path><path class="stroke_order_diagram--current_path" d="M63.68,20.44c0.88,0.88,0.96,2.06,0.96,3.48c0,0.95,0.04,18.14,0.04,27.89c0,2.92-0.05,4.5-0.05,6.18" id="kvg:051f9-s2" kvg:type="㇑" transform="matrix(1,0,0,1,96,-4)" xmlns:kvg="http://kanjivg.tagaini.net"></path><path class="stroke_order_diagram--current_path" d="M63.68,20.44c0.88,0.88,0.96,2.06,0.96,3.48c0,0.95,0.04,18.14,0.04,27.89c0,2.92-0.05,4.5-0.05,6.18" id="Ske1ooquaj" kvg:type="㇑" transform="matrix(1,0,0,1,96,-4)" xmlns:kvg="http://kanjivg.tagaini.net"></path><circle class="stroke_order_diagram--path_start" cx="63.68" cy="20.44" r="4" transform="matrix(1,0,0,1,96,-4)"></circle><line class="stroke_order_diagram--guide_line" x1="250" x2="250" y1="1" y2="99"></line><line class="stroke_order_diagram--bounding_box" x1="299" x2="299" y1="1" y2="99"></line><path class="stroke_order_diagram--existing_path" d="M20.25,23.75c2.18-0.22,12.22-1.66,17.01-2.29c3.52-0.46,5.24-0.08,5.24,3.79c0,5.37,0,27.08,0,29.5c0,1.75,0.63,2.69,2,2.5c5.5-0.75,16.75-1.5,19-1.5" id="Ske1ooquam" kvg:type="㇅" transform="matrix(1,0,0,1,196,-4)" xmlns:kvg="http://kanjivg.tagaini.net"></path><path class="stroke_order_diagram--existing_path" d="M63.68,20.44c0.88,0.88,0.96,2.06,0.96,3.48c0,0.95,0.04,18.14,0.04,27.89c0,2.92-0.05,4.5-0.05,6.18" id="Ske1ooquan" kvg:type="㇑" transform="matrix(1,0,0,1,196,-4)" xmlns:kvg="http://kanjivg.tagaini.net"></path><path class="stroke_order_diagram--current_path" d="M65.44,21.82c2.2-0.13,19.61-2.28,21.62-2.44" id="kvg:051f9-s3" kvg:type="㇐a" transform="matrix(1,0,0,1,196,-4)" xmlns:kvg="http://kanjivg.tagaini.net"></path><path class="stroke_order_diagram--current_path" d="M65.44,21.82c2.2-0.13,19.61-2.28,21.62-2.44" id="Ske1ooquap" kvg:type="㇐a" transform="matrix(1,0,0,1,196,-4)" xmlns:kvg="http://kanjivg.tagaini.net"></path><circle class="stroke_order_diagram--path_start" cx="65.44" cy="21.82" r="4" transform="matrix(1,0,0,1,196,-4)"></circle><line class="stroke_order_diagram--guide_line" x1="350" x2="350" y1="1" y2="99"></line><line class="stroke_order_diagram--bounding_box" x1="399" x2="399" y1="1" y2="99"></line><path class="stroke_order_diagram--existing_path" d="M20.25,23.75c2.18-0.22,12.22-1.66,17.01-2.29c3.52-0.46,5.24-0.08,5.24,3.79c0,5.37,0,27.08,0,29.5c0,1.75,0.63,2.69,2,2.5c5.5-0.75,16.75-1.5,19-1.5" id="Ske1ooquas" kvg:type="㇅" transform="matrix(1,0,0,1,296,-4)" xmlns:kvg="http://kanjivg.tagaini.net"></path><path class="stroke_order_diagram--existing_path" d="M63.68,20.44c0.88,0.88,0.96,2.06,0.96,3.48c0,0.95,0.04,18.14,0.04,27.89c0,2.92-0.05,4.5-0.05,6.18" id="Ske1ooquat" kvg:type="㇑" transform="matrix(1,0,0,1,296,-4)" xmlns:kvg="http://kanjivg.tagaini.net"></path><path class="stroke_order_diagram--existing_path" d="M65.44,21.82c2.2-0.13,19.61-2.28,21.62-2.44" id="Ske1ooquau" kvg:type="㇐a" transform="matrix(1,0,0,1,296,-4)" xmlns:kvg="http://kanjivg.tagaini.net"></path><path class="stroke_order_diagram--current_path" d="M18.06,21.38c1.15,1.15,1.26,2.62,1.26,4.25c0,0.83,0.04,49.86,0.01,59.24c-0.01,1.82,0.26,3.54,2.65,3.4c13.79-0.82,43.27-1.52,65.77-1.77" id="kvg:051f9-s4" kvg:type="㇄a" transform="matrix(1,0,0,1,296,-4)" xmlns:kvg="http://kanjivg.tagaini.net"></path><path class="stroke_order_diagram--current_path" d="M18.06,21.38c1.15,1.15,1.26,2.62,1.26,4.25c0,0.83,0.04,49.86,0.01,59.24c-0.01,1.82,0.26,3.54,2.65,3.4c13.79-0.82,43.27-1.52,65.77-1.77" id="Ske1ooquaw" kvg:type="㇄a" transform="matrix(1,0,0,1,296,-4)" xmlns:kvg="http://kanjivg.tagaini.net"></path><circle class="stroke_order_diagram--path_start" cx="18.06" cy="21.38" r="4" transform="matrix(1,0,0,1,296,-4)"></circle><line class="stroke_order_diagram--guide_line" x1="450" x2="450" y1="1" y2="99"></line><line class="stroke_order_diagram--bounding_box" x1="499" x2="499" y1="1" y2="99"></line><path class="stroke_order_diagram--existing_path" d="M20.25,23.75c2.18-0.22,12.22-1.66,17.01-2.29c3.52-0.46,5.24-0.08,5.24,3.79c0,5.37,0,27.08,0,29.5c0,1.75,0.63,2.69,2,2.5c5.5-0.75,16.75-1.5,19-1.5" id="Ske1ooquaz" kvg:type="㇅" transform="matrix(1,0,0,1,396,-4)" xmlns:kvg="http://kanjivg.tagaini.net"></path><path class="stroke_order_diagram--existing_path" d="M63.68,20.44c0.88,0.88,0.96,2.06,0.96,3.48c0,0.95,0.04,18.14,0.04,27.89c0,2.92-0.05,4.5-0.05,6.18" id="Ske1ooqua10" kvg:type="㇑" transform="matrix(1,0,0,1,396,-4)" xmlns:kvg="http://kanjivg.tagaini.net"></path><path class="stroke_order_diagram--existing_path" d="M65.44,21.82c2.2-0.13,19.61-2.28,21.62-2.44" id="Ske1ooqua11" kvg:type="㇐a" transform="matrix(1,0,0,1,396,-4)" xmlns:kvg="http://kanjivg.tagaini.net"></path><path class="stroke_order_diagram--existing_path" d="M18.06,21.38c1.15,1.15,1.26,2.62,1.26,4.25c0,0.83,0.04,49.86,0.01,59.24c-0.01,1.82,0.26,3.54,2.65,3.4c13.79-0.82,43.27-1.52,65.77-1.77" id="Ske1ooqua12" kvg:type="㇄a" transform="matrix(1,0,0,1,396,-4)" xmlns:kvg="http://kanjivg.tagaini.net"></path><path class="stroke_order_diagram--current_path" d="M87.56,18.38c1.09,1.09,1.26,2.62,1.26,4c0,0.81,0.02,37.57-0.01,60.12c0,2.68,0,5.17,0.01,7.38" id="kvg:051f9-s5" kvg:type="㇑" transform="matrix(1,0,0,1,396,-4)" xmlns:kvg="http://kanjivg.tagaini.net"></path><path class="stroke_order_diagram--current_path" d="M87.56,18.38c1.09,1.09,1.26,2.62,1.26,4c0,0.81,0.02,37.57-0.01,60.12c0,2.68,0,5.17,0.01,7.38" id="Ske1ooqua14" kvg:type="㇑" transform="matrix(1,0,0,1,396,-4)" xmlns:kvg="http://kanjivg.tagaini.net"></path><circle class="stroke_order_diagram--path_start" cx="87.56" cy="18.38" r="4" transform="matrix(1,0,0,1,396,-4)"></circle></svg>