<svg class="stroke_order_diagram--svg_container_for_5186627bd5dda796580002ac" style="height: 100px; width: 600px;" viewbox="0 0 600 100"><desc>Created with Snap</desc><defs></defs><line class="stroke_order_diagram--bounding_box" x1="1" x2="599" y1="1" y2="1"></line><line class="stroke_order_diagram--bounding_box" x1="1" x2="1" y1="1" y2="99"></line><line class="stroke_order_diagram--bounding_box" x1="1" x2="599" y1="99" y2="99"></line><line class="stroke_order_diagram--guide_line" x1="0" x2="600" y1="50" y2="50"></line><line class="stroke_order_diagram--guide_line" x1="50" x2="50" y1="1" y2="99"></line><line class="stroke_order_diagram--bounding_box" x1="99" x2="99" y1="1" y2="99"></line><path class="stroke_order_diagram--current_path" d="M15.75,23.39c1.97,0.8,4.94,0.48,6.98,0.23c7.31-0.91,21.32-2.67,28.78-3.29c2.18-0.18,4.34-0.34,6.49,0.19" id="kvg:05211-s1" kvg:type="㇐" transform="matrix(1,0,0,1,-4,-4)" xmlns:kvg="http://kanjivg.tagaini.net"></path><path class="stroke_order_diagram--current_path" d="M15.75,23.39c1.97,0.8,4.94,0.48,6.98,0.23c7.31-0.91,21.32-2.67,28.78-3.29c2.18-0.18,4.34-0.34,6.49,0.19" id="Ske1sorhlf" kvg:type="㇐" transform="matrix(1,0,0,1,-4,-4)" xmlns:kvg="http://kanjivg.tagaini.net"></path><circle class="stroke_order_diagram--path_start" cx="15.75" cy="23.39" r="4" transform="matrix(1,0,0,1,-4,-4)"></circle><line class="stroke_order_diagram--guide_line" x1="150" x2="150" y1="1" y2="99"></line><line class="stroke_order_diagram--bounding_box" x1="199" x2="199" y1="1" y2="99"></line><path class="stroke_order_diagram--existing_path" d="M15.75,23.39c1.97,0.8,4.94,0.48,6.98,0.23c7.31-0.91,21.32-2.67,28.78-3.29c2.18-0.18,4.34-0.34,6.49,0.19" id="Ske1sorhli" kvg:type="㇐" transform="matrix(1,0,0,1,96,-4)" xmlns:kvg="http://kanjivg.tagaini.net"></path><path class="stroke_order_diagram--current_path" d="M11.75,50.64c2.16,0.88,5.4,0.42,7.65,0.13c8.6-1.12,26.45-3.44,35.35-4.32c2.4-0.24,5.14-0.26,7.5,0.32" id="kvg:05211-s2" kvg:type="㇐" transform="matrix(1,0,0,1,96,-4)" xmlns:kvg="http://kanjivg.tagaini.net"></path><path class="stroke_order_diagram--current_path" d="M11.75,50.64c2.16,0.88,5.4,0.42,7.65,0.13c8.6-1.12,26.45-3.44,35.35-4.32c2.4-0.24,5.14-0.26,7.5,0.32" id="Ske1sorhlk" kvg:type="㇐" transform="matrix(1,0,0,1,96,-4)" xmlns:kvg="http://kanjivg.tagaini.net"></path><circle class="stroke_order_diagram--path_start" cx="11.75" cy="50.64" r="4" transform="matrix(1,0,0,1,96,-4)"></circle><line class="stroke_order_diagram--guide_line" x1="250" x2="250" y1="1" y2="99"></line><line class="stroke_order_diagram--bounding_box" x1="299" x2="299" y1="1" y2="99"></line><path class="stroke_order_diagram--existing_path" d="M15.75,23.39c1.97,0.8,4.94,0.48,6.98,0.23c7.31-0.91,21.32-2.67,28.78-3.29c2.18-0.18,4.34-0.34,6.49,0.19" id="Ske1sorhln" kvg:type="㇐" transform="matrix(1,0,0,1,196,-4)" xmlns:kvg="http://kanjivg.tagaini.net"></path><path class="stroke_order_diagram--existing_path" d="M11.75,50.64c2.16,0.88,5.4,0.42,7.65,0.13c8.6-1.12,26.45-3.44,35.35-4.32c2.4-0.24,5.14-0.26,7.5,0.32" id="Ske1sorhlo" kvg:type="㇐" transform="matrix(1,0,0,1,196,-4)" xmlns:kvg="http://kanjivg.tagaini.net"></path><path class="stroke_order_diagram--current_path" d="M28.22,25.82c1.23,1.23,1.4,2.69,1.44,4.5c0.84,40.93-2.53,51.8-14.91,62.93" id="kvg:05211-s3" kvg:type="㇒/㇑" transform="matrix(1,0,0,1,196,-4)" xmlns:kvg="http://kanjivg.tagaini.net"></path><path class="stroke_order_diagram--current_path" d="M28.22,25.82c1.23,1.23,1.4,2.69,1.44,4.5c0.84,40.93-2.53,51.8-14.91,62.93" id="Ske1sorhlq" kvg:type="㇒/㇑" transform="matrix(1,0,0,1,196,-4)" xmlns:kvg="http://kanjivg.tagaini.net"></path><circle class="stroke_order_diagram--path_start" cx="28.22" cy="25.82" r="4" transform="matrix(1,0,0,1,196,-4)"></circle><line class="stroke_order_diagram--guide_line" x1="350" x2="350" y1="1" y2="99"></line><line class="stroke_order_diagram--bounding_box" x1="399" x2="399" y1="1" y2="99"></line><path class="stroke_order_diagram--existing_path" d="M15.75,23.39c1.97,0.8,4.94,0.48,6.98,0.23c7.31-0.91,21.32-2.67,28.78-3.29c2.18-0.18,4.34-0.34,6.49,0.19" id="Ske1sorhlt" kvg:type="㇐" transform="matrix(1,0,0,1,296,-4)" xmlns:kvg="http://kanjivg.tagaini.net"></path><path class="stroke_order_diagram--existing_path" d="M11.75,50.64c2.16,0.88,5.4,0.42,7.65,0.13c8.6-1.12,26.45-3.44,35.35-4.32c2.4-0.24,5.14-0.26,7.5,0.32" id="Ske1sorhlu" kvg:type="㇐" transform="matrix(1,0,0,1,296,-4)" xmlns:kvg="http://kanjivg.tagaini.net"></path><path class="stroke_order_diagram--existing_path" d="M28.22,25.82c1.23,1.23,1.4,2.69,1.44,4.5c0.84,40.93-2.53,51.8-14.91,62.93" id="Ske1sorhlv" kvg:type="㇒/㇑" transform="matrix(1,0,0,1,296,-4)" xmlns:kvg="http://kanjivg.tagaini.net"></path><path class="stroke_order_diagram--current_path" d="M46.25,23.13c0.75,0.75,1.16,2.74,1.16,4.24c0,6.5-0.02,41.77-0.03,57.13c0,3.8,0,6.38,0,7" id="kvg:05211-s4" kvg:type="㇑" transform="matrix(1,0,0,1,296,-4)" xmlns:kvg="http://kanjivg.tagaini.net"></path><path class="stroke_order_diagram--current_path" d="M46.25,23.13c0.75,0.75,1.16,2.74,1.16,4.24c0,6.5-0.02,41.77-0.03,57.13c0,3.8,0,6.38,0,7" id="Ske1sorhlx" kvg:type="㇑" transform="matrix(1,0,0,1,296,-4)" xmlns:kvg="http://kanjivg.tagaini.net"></path><circle class="stroke_order_diagram--path_start" cx="46.25" cy="23.13" r="4" transform="matrix(1,0,0,1,296,-4)"></circle><line class="stroke_order_diagram--guide_line" x1="450" x2="450" y1="1" y2="99"></line><line class="stroke_order_diagram--bounding_box" x1="499" x2="499" y1="1" y2="99"></line><path class="stroke_order_diagram--existing_path" d="M15.75,23.39c1.97,0.8,4.94,0.48,6.98,0.23c7.31-0.91,21.32-2.67,28.78-3.29c2.18-0.18,4.34-0.34,6.49,0.19" id="Ske1sorhl10" kvg:type="㇐" transform="matrix(1,0,0,1,396,-4)" xmlns:kvg="http://kanjivg.tagaini.net"></path><path class="stroke_order_diagram--existing_path" d="M11.75,50.64c2.16,0.88,5.4,0.42,7.65,0.13c8.6-1.12,26.45-3.44,35.35-4.32c2.4-0.24,5.14-0.26,7.5,0.32" id="Ske1sorhl11" kvg:type="㇐" transform="matrix(1,0,0,1,396,-4)" xmlns:kvg="http://kanjivg.tagaini.net"></path><path class="stroke_order_diagram--existing_path" d="M28.22,25.82c1.23,1.23,1.4,2.69,1.44,4.5c0.84,40.93-2.53,51.8-14.91,62.93" id="Ske1sorhl12" kvg:type="㇒/㇑" transform="matrix(1,0,0,1,396,-4)" xmlns:kvg="http://kanjivg.tagaini.net"></path><path class="stroke_order_diagram--existing_path" d="M46.25,23.13c0.75,0.75,1.16,2.74,1.16,4.24c0,6.5-0.02,41.77-0.03,57.13c0,3.8,0,6.38,0,7" id="Ske1sorhl13" kvg:type="㇑" transform="matrix(1,0,0,1,396,-4)" xmlns:kvg="http://kanjivg.tagaini.net"></path><path class="stroke_order_diagram--current_path" d="M71.02,26.33c0.98,0.92,1.76,2.67,1.76,5.02c0,10.52,0.06,22.4,0.06,30.65c0,3.5-0.08,6.24-0.08,7.75" id="kvg:05211-s5" kvg:type="㇑" transform="matrix(1,0,0,1,396,-4)" xmlns:kvg="http://kanjivg.tagaini.net"></path><path class="stroke_order_diagram--current_path" d="M71.02,26.33c0.98,0.92,1.76,2.67,1.76,5.02c0,10.52,0.06,22.4,0.06,30.65c0,3.5-0.08,6.24-0.08,7.75" id="Ske1sorhl15" kvg:type="㇑" transform="matrix(1,0,0,1,396,-4)" xmlns:kvg="http://kanjivg.tagaini.net"></path><circle class="stroke_order_diagram--path_start" cx="71.02" cy="26.33" r="4" transform="matrix(1,0,0,1,396,-4)"></circle><line class="stroke_order_diagram--guide_line" x1="550" x2="550" y1="1" y2="99"></line><line class="stroke_order_diagram--bounding_box" x1="599" x2="599" y1="1" y2="99"></line><path class="stroke_order_diagram--existing_path" d="M15.75,23.39c1.97,0.8,4.94,0.48,6.98,0.23c7.31-0.91,21.32-2.67,28.78-3.29c2.18-0.18,4.34-0.34,6.49,0.19" id="Ske1sorhl18" kvg:type="㇐" transform="matrix(1,0,0,1,496,-4)" xmlns:kvg="http://kanjivg.tagaini.net"></path><path class="stroke_order_diagram--existing_path" d="M11.75,50.64c2.16,0.88,5.4,0.42,7.65,0.13c8.6-1.12,26.45-3.44,35.35-4.32c2.4-0.24,5.14-0.26,7.5,0.32" id="Ske1sorhl19" kvg:type="㇐" transform="matrix(1,0,0,1,496,-4)" xmlns:kvg="http://kanjivg.tagaini.net"></path><path class="stroke_order_diagram--existing_path" d="M28.22,25.82c1.23,1.23,1.4,2.69,1.44,4.5c0.84,40.93-2.53,51.8-14.91,62.93" id="Ske1sorhl1a" kvg:type="㇒/㇑" transform="matrix(1,0,0,1,496,-4)" xmlns:kvg="http://kanjivg.tagaini.net"></path><path class="stroke_order_diagram--existing_path" d="M46.25,23.13c0.75,0.75,1.16,2.74,1.16,4.24c0,6.5-0.02,41.77-0.03,57.13c0,3.8,0,6.38,0,7" id="Ske1sorhl1b" kvg:type="㇑" transform="matrix(1,0,0,1,496,-4)" xmlns:kvg="http://kanjivg.tagaini.net"></path><path class="stroke_order_diagram--existing_path" d="M71.02,26.33c0.98,0.92,1.76,2.67,1.76,5.02c0,10.52,0.06,22.4,0.06,30.65c0,3.5-0.08,6.24-0.08,7.75" id="Ske1sorhl1c" kvg:type="㇑" transform="matrix(1,0,0,1,496,-4)" xmlns:kvg="http://kanjivg.tagaini.net"></path><path class="stroke_order_diagram--current_path" d="M90.77,15.83c1.2,1.2,1.76,2.67,1.76,5.02c0,14.56-0.01,62.41-0.01,67.37c0,8.12-5.52,5.41-9.96,0.75" id="kvg:05211-s6" kvg:type="㇚" transform="matrix(1,0,0,1,496,-4)" xmlns:kvg="http://kanjivg.tagaini.net"></path><path class="stroke_order_diagram--current_path" d="M90.77,15.83c1.2,1.2,1.76,2.67,1.76,5.02c0,14.56-0.01,62.41-0.01,67.37c0,8.12-5.52,5.41-9.96,0.75" id="Ske1sorhl1e" kvg:type="㇚" transform="matrix(1,0,0,1,496,-4)" xmlns:kvg="http://kanjivg.tagaini.net"></path><circle class="stroke_order_diagram--path_start" cx="90.77" cy="15.83" r="4" transform="matrix(1,0,0,1,496,-4)"></circle></svg>