<svg class="stroke_order_diagram--svg_container_for_5186628ed5dda7965800079e" style="height: 100px; width: 900px;" viewbox="0 0 900 100"><desc>Created with Snap</desc><defs></defs><line class="stroke_order_diagram--bounding_box" x1="1" x2="899" y1="1" y2="1"></line><line class="stroke_order_diagram--bounding_box" x1="1" x2="1" y1="1" y2="99"></line><line class="stroke_order_diagram--bounding_box" x1="1" x2="899" y1="99" y2="99"></line><line class="stroke_order_diagram--guide_line" x1="0" x2="900" y1="50" y2="50"></line><line class="stroke_order_diagram--guide_line" x1="50" x2="50" y1="1" y2="99"></line><line class="stroke_order_diagram--bounding_box" x1="99" x2="99" y1="1" y2="99"></line><path class="stroke_order_diagram--current_path" d="M21.16,15.25c2.62,1.63,6.78,6.69,7.43,9.22" id="kvg:05243-s1" kvg:type="㇔" transform="matrix(1,0,0,1,-4,-4)" xmlns:kvg="http://kanjivg.tagaini.net"></path><path class="stroke_order_diagram--current_path" d="M21.16,15.25c2.62,1.63,6.78,6.69,7.43,9.22" id="Ske23hfemi" kvg:type="㇔" transform="matrix(1,0,0,1,-4,-4)" xmlns:kvg="http://kanjivg.tagaini.net"></path><circle class="stroke_order_diagram--path_start" cx="21.16" cy="15.25" r="4" transform="matrix(1,0,0,1,-4,-4)"></circle><line class="stroke_order_diagram--guide_line" x1="150" x2="150" y1="1" y2="99"></line><line class="stroke_order_diagram--bounding_box" x1="199" x2="199" y1="1" y2="99"></line><path class="stroke_order_diagram--existing_path" d="M21.16,15.25c2.62,1.63,6.78,6.69,7.43,9.22" id="Ske23hfeml" kvg:type="㇔" transform="matrix(1,0,0,1,96,-4)" xmlns:kvg="http://kanjivg.tagaini.net"></path><path class="stroke_order_diagram--current_path" d="M47.85,12c0.08,1.05-0.09,2.06-0.49,3.04C46.2,18.43,44,21.5,39.36,27.25" id="kvg:05243-s2" kvg:type="㇒" transform="matrix(1,0,0,1,96,-4)" xmlns:kvg="http://kanjivg.tagaini.net"></path><path class="stroke_order_diagram--current_path" d="M47.85,12c0.08,1.05-0.09,2.06-0.49,3.04C46.2,18.43,44,21.5,39.36,27.25" id="Ske23hfemn" kvg:type="㇒" transform="matrix(1,0,0,1,96,-4)" xmlns:kvg="http://kanjivg.tagaini.net"></path><circle class="stroke_order_diagram--path_start" cx="47.85" cy="12" r="4" transform="matrix(1,0,0,1,96,-4)"></circle><line class="stroke_order_diagram--guide_line" x1="250" x2="250" y1="1" y2="99"></line><line class="stroke_order_diagram--bounding_box" x1="299" x2="299" y1="1" y2="99"></line><path class="stroke_order_diagram--existing_path" d="M21.16,15.25c2.62,1.63,6.78,6.69,7.43,9.22" id="Ske23hfemq" kvg:type="㇔" transform="matrix(1,0,0,1,196,-4)" xmlns:kvg="http://kanjivg.tagaini.net"></path><path class="stroke_order_diagram--existing_path" d="M47.85,12c0.08,1.05-0.09,2.06-0.49,3.04C46.2,18.43,44,21.5,39.36,27.25" id="Ske23hfemr" kvg:type="㇒" transform="matrix(1,0,0,1,196,-4)" xmlns:kvg="http://kanjivg.tagaini.net"></path><path class="stroke_order_diagram--current_path" d="M15.18,30.54c1.17,1.07,3.25,1.31,4.75,1.19c6.07-0.48,30.13-4.17,33.11-4.76c2.98-0.59,2.72,2.15,2.19,4.05c-0.55,1.97-1.56,5.47-2.29,8.28c-0.37,1.45-0.67,2.72-0.78,3.51" id="kvg:05243-s3" kvg:type="㇕c" transform="matrix(1,0,0,1,196,-4)" xmlns:kvg="http://kanjivg.tagaini.net"></path><path class="stroke_order_diagram--current_path" d="M15.18,30.54c1.17,1.07,3.25,1.31,4.75,1.19c6.07-0.48,30.13-4.17,33.11-4.76c2.98-0.59,2.72,2.15,2.19,4.05c-0.55,1.97-1.56,5.47-2.29,8.28c-0.37,1.45-0.67,2.72-0.78,3.51" id="Ske23hfemt" kvg:type="㇕c" transform="matrix(1,0,0,1,196,-4)" xmlns:kvg="http://kanjivg.tagaini.net"></path><circle class="stroke_order_diagram--path_start" cx="15.18" cy="30.54" r="4" transform="matrix(1,0,0,1,196,-4)"></circle><line class="stroke_order_diagram--guide_line" x1="350" x2="350" y1="1" y2="99"></line><line class="stroke_order_diagram--bounding_box" x1="399" x2="399" y1="1" y2="99"></line><path class="stroke_order_diagram--existing_path" d="M21.16,15.25c2.62,1.63,6.78,6.69,7.43,9.22" id="Ske23hfemw" kvg:type="㇔" transform="matrix(1,0,0,1,296,-4)" xmlns:kvg="http://kanjivg.tagaini.net"></path><path class="stroke_order_diagram--existing_path" d="M47.85,12c0.08,1.05-0.09,2.06-0.49,3.04C46.2,18.43,44,21.5,39.36,27.25" id="Ske23hfemx" kvg:type="㇒" transform="matrix(1,0,0,1,296,-4)" xmlns:kvg="http://kanjivg.tagaini.net"></path><path class="stroke_order_diagram--existing_path" d="M15.18,30.54c1.17,1.07,3.25,1.31,4.75,1.19c6.07-0.48,30.13-4.17,33.11-4.76c2.98-0.59,2.72,2.15,2.19,4.05c-0.55,1.97-1.56,5.47-2.29,8.28c-0.37,1.45-0.67,2.72-0.78,3.51" id="Ske23hfemy" kvg:type="㇕c" transform="matrix(1,0,0,1,296,-4)" xmlns:kvg="http://kanjivg.tagaini.net"></path><path class="stroke_order_diagram--current_path" d="M20.25,46.75c5-0.75,27.39-4,29.19-4s3.61,0,5.06,0" id="kvg:05243-s4" kvg:type="㇐" transform="matrix(1,0,0,1,296,-4)" xmlns:kvg="http://kanjivg.tagaini.net"></path><path class="stroke_order_diagram--current_path" d="M20.25,46.75c5-0.75,27.39-4,29.19-4s3.61,0,5.06,0" id="Ske23hfem10" kvg:type="㇐" transform="matrix(1,0,0,1,296,-4)" xmlns:kvg="http://kanjivg.tagaini.net"></path><circle class="stroke_order_diagram--path_start" cx="20.25" cy="46.75" r="4" transform="matrix(1,0,0,1,296,-4)"></circle><line class="stroke_order_diagram--guide_line" x1="450" x2="450" y1="1" y2="99"></line><line class="stroke_order_diagram--bounding_box" x1="499" x2="499" y1="1" y2="99"></line><path class="stroke_order_diagram--existing_path" d="M21.16,15.25c2.62,1.63,6.78,6.69,7.43,9.22" id="Ske23hfem13" kvg:type="㇔" transform="matrix(1,0,0,1,396,-4)" xmlns:kvg="http://kanjivg.tagaini.net"></path><path class="stroke_order_diagram--existing_path" d="M47.85,12c0.08,1.05-0.09,2.06-0.49,3.04C46.2,18.43,44,21.5,39.36,27.25" id="Ske23hfem14" kvg:type="㇒" transform="matrix(1,0,0,1,396,-4)" xmlns:kvg="http://kanjivg.tagaini.net"></path><path class="stroke_order_diagram--existing_path" d="M15.18,30.54c1.17,1.07,3.25,1.31,4.75,1.19c6.07-0.48,30.13-4.17,33.11-4.76c2.98-0.59,2.72,2.15,2.19,4.05c-0.55,1.97-1.56,5.47-2.29,8.28c-0.37,1.45-0.67,2.72-0.78,3.51" id="Ske23hfem15" kvg:type="㇕c" transform="matrix(1,0,0,1,396,-4)" xmlns:kvg="http://kanjivg.tagaini.net"></path><path class="stroke_order_diagram--existing_path" d="M20.25,46.75c5-0.75,27.39-4,29.19-4s3.61,0,5.06,0" id="Ske23hfem16" kvg:type="㇐" transform="matrix(1,0,0,1,396,-4)" xmlns:kvg="http://kanjivg.tagaini.net"></path><path class="stroke_order_diagram--current_path" d="M19.48,45.92c0.89,0.79,0.76,2.95,0.18,4.21c-0.66,1.44-3.27,7.54-3.64,8.34c-1.29,2.78-0.94,4.19,0.95,3.88c1.8-0.29,35.07-5.03,39.84-5.62c4.77-0.6,3.6,3.99,3.26,5.42c-0.65,2.74-3.06,11.6-5.74,17.29c-3.68,7.8-5.3,1.05-6.66-0.48" id="kvg:05243-s5" kvg:type="㇉" transform="matrix(1,0,0,1,396,-4)" xmlns:kvg="http://kanjivg.tagaini.net"></path><path class="stroke_order_diagram--current_path" d="M19.48,45.92c0.89,0.79,0.76,2.95,0.18,4.21c-0.66,1.44-3.27,7.54-3.64,8.34c-1.29,2.78-0.94,4.19,0.95,3.88c1.8-0.29,35.07-5.03,39.84-5.62c4.77-0.6,3.6,3.99,3.26,5.42c-0.65,2.74-3.06,11.6-5.74,17.29c-3.68,7.8-5.3,1.05-6.66-0.48" id="Ske23hfem18" kvg:type="㇉" transform="matrix(1,0,0,1,396,-4)" xmlns:kvg="http://kanjivg.tagaini.net"></path><circle class="stroke_order_diagram--path_start" cx="19.48" cy="45.92" r="4" transform="matrix(1,0,0,1,396,-4)"></circle><line class="stroke_order_diagram--guide_line" x1="550" x2="550" y1="1" y2="99"></line><line class="stroke_order_diagram--bounding_box" x1="599" x2="599" y1="1" y2="99"></line><path class="stroke_order_diagram--existing_path" d="M21.16,15.25c2.62,1.63,6.78,6.69,7.43,9.22" id="Ske23hfem1b" kvg:type="㇔" transform="matrix(1,0,0,1,496,-4)" xmlns:kvg="http://kanjivg.tagaini.net"></path><path class="stroke_order_diagram--existing_path" d="M47.85,12c0.08,1.05-0.09,2.06-0.49,3.04C46.2,18.43,44,21.5,39.36,27.25" id="Ske23hfem1c" kvg:type="㇒" transform="matrix(1,0,0,1,496,-4)" xmlns:kvg="http://kanjivg.tagaini.net"></path><path class="stroke_order_diagram--existing_path" d="M15.18,30.54c1.17,1.07,3.25,1.31,4.75,1.19c6.07-0.48,30.13-4.17,33.11-4.76c2.98-0.59,2.72,2.15,2.19,4.05c-0.55,1.97-1.56,5.47-2.29,8.28c-0.37,1.45-0.67,2.72-0.78,3.51" id="Ske23hfem1d" kvg:type="㇕c" transform="matrix(1,0,0,1,496,-4)" xmlns:kvg="http://kanjivg.tagaini.net"></path><path class="stroke_order_diagram--existing_path" d="M20.25,46.75c5-0.75,27.39-4,29.19-4s3.61,0,5.06,0" id="Ske23hfem1e" kvg:type="㇐" transform="matrix(1,0,0,1,496,-4)" xmlns:kvg="http://kanjivg.tagaini.net"></path><path class="stroke_order_diagram--existing_path" d="M19.48,45.92c0.89,0.79,0.76,2.95,0.18,4.21c-0.66,1.44-3.27,7.54-3.64,8.34c-1.29,2.78-0.94,4.19,0.95,3.88c1.8-0.29,35.07-5.03,39.84-5.62c4.77-0.6,3.6,3.99,3.26,5.42c-0.65,2.74-3.06,11.6-5.74,17.29c-3.68,7.8-5.3,1.05-6.66-0.48" id="Ske23hfem1f" kvg:type="㇉" transform="matrix(1,0,0,1,496,-4)" xmlns:kvg="http://kanjivg.tagaini.net"></path><path class="stroke_order_diagram--current_path" d="M35.87,31.41c1.22,1.15,1.45,2.48,1.48,4.09c0.14,9.47-0.07,40.65-0.14,57.25c-0.01,2.89-0.04,4.08-0.09,5.25" id="kvg:05243-s6" kvg:type="㇑" transform="matrix(1,0,0,1,496,-4)" xmlns:kvg="http://kanjivg.tagaini.net"></path><path class="stroke_order_diagram--current_path" d="M35.87,31.41c1.22,1.15,1.45,2.48,1.48,4.09c0.14,9.47-0.07,40.65-0.14,57.25c-0.01,2.89-0.04,4.08-0.09,5.25" id="Ske23hfem1h" kvg:type="㇑" transform="matrix(1,0,0,1,496,-4)" xmlns:kvg="http://kanjivg.tagaini.net"></path><circle class="stroke_order_diagram--path_start" cx="35.87" cy="31.41" r="4" transform="matrix(1,0,0,1,496,-4)"></circle><line class="stroke_order_diagram--guide_line" x1="650" x2="650" y1="1" y2="99"></line><line class="stroke_order_diagram--bounding_box" x1="699" x2="699" y1="1" y2="99"></line><path class="stroke_order_diagram--existing_path" d="M21.16,15.25c2.62,1.63,6.78,6.69,7.43,9.22" id="Ske23hfem1k" kvg:type="㇔" transform="matrix(1,0,0,1,596,-4)" xmlns:kvg="http://kanjivg.tagaini.net"></path><path class="stroke_order_diagram--existing_path" d="M47.85,12c0.08,1.05-0.09,2.06-0.49,3.04C46.2,18.43,44,21.5,39.36,27.25" id="Ske23hfem1l" kvg:type="㇒" transform="matrix(1,0,0,1,596,-4)" xmlns:kvg="http://kanjivg.tagaini.net"></path><path class="stroke_order_diagram--existing_path" d="M15.18,30.54c1.17,1.07,3.25,1.31,4.75,1.19c6.07-0.48,30.13-4.17,33.11-4.76c2.98-0.59,2.72,2.15,2.19,4.05c-0.55,1.97-1.56,5.47-2.29,8.28c-0.37,1.45-0.67,2.72-0.78,3.51" id="Ske23hfem1m" kvg:type="㇕c" transform="matrix(1,0,0,1,596,-4)" xmlns:kvg="http://kanjivg.tagaini.net"></path><path class="stroke_order_diagram--existing_path" d="M20.25,46.75c5-0.75,27.39-4,29.19-4s3.61,0,5.06,0" id="Ske23hfem1n" kvg:type="㇐" transform="matrix(1,0,0,1,596,-4)" xmlns:kvg="http://kanjivg.tagaini.net"></path><path class="stroke_order_diagram--existing_path" d="M19.48,45.92c0.89,0.79,0.76,2.95,0.18,4.21c-0.66,1.44-3.27,7.54-3.64,8.34c-1.29,2.78-0.94,4.19,0.95,3.88c1.8-0.29,35.07-5.03,39.84-5.62c4.77-0.6,3.6,3.99,3.26,5.42c-0.65,2.74-3.06,11.6-5.74,17.29c-3.68,7.8-5.3,1.05-6.66-0.48" id="Ske23hfem1o" kvg:type="㇉" transform="matrix(1,0,0,1,596,-4)" xmlns:kvg="http://kanjivg.tagaini.net"></path><path class="stroke_order_diagram--existing_path" d="M35.87,31.41c1.22,1.15,1.45,2.48,1.48,4.09c0.14,9.47-0.07,40.65-0.14,57.25c-0.01,2.89-0.04,4.08-0.09,5.25" id="Ske23hfem1p" kvg:type="㇑" transform="matrix(1,0,0,1,596,-4)" xmlns:kvg="http://kanjivg.tagaini.net"></path><path class="stroke_order_diagram--current_path" d="M34.94,60.5c0.06,0.62,0.13,1.6-0.14,2.49c-1.6,5.25-10.99,17.71-23.55,24.76" id="kvg:05243-s7" kvg:type="㇒" transform="matrix(1,0,0,1,596,-4)" xmlns:kvg="http://kanjivg.tagaini.net"></path><path class="stroke_order_diagram--current_path" d="M34.94,60.5c0.06,0.62,0.13,1.6-0.14,2.49c-1.6,5.25-10.99,17.71-23.55,24.76" id="Ske23hfem1r" kvg:type="㇒" transform="matrix(1,0,0,1,596,-4)" xmlns:kvg="http://kanjivg.tagaini.net"></path><circle class="stroke_order_diagram--path_start" cx="34.94" cy="60.5" r="4" transform="matrix(1,0,0,1,596,-4)"></circle><line class="stroke_order_diagram--guide_line" x1="750" x2="750" y1="1" y2="99"></line><line class="stroke_order_diagram--bounding_box" x1="799" x2="799" y1="1" y2="99"></line><path class="stroke_order_diagram--existing_path" d="M21.16,15.25c2.62,1.63,6.78,6.69,7.43,9.22" id="Ske23hfem1u" kvg:type="㇔" transform="matrix(1,0,0,1,696,-4)" xmlns:kvg="http://kanjivg.tagaini.net"></path><path class="stroke_order_diagram--existing_path" d="M47.85,12c0.08,1.05-0.09,2.06-0.49,3.04C46.2,18.43,44,21.5,39.36,27.25" id="Ske23hfem1v" kvg:type="㇒" transform="matrix(1,0,0,1,696,-4)" xmlns:kvg="http://kanjivg.tagaini.net"></path><path class="stroke_order_diagram--existing_path" d="M15.18,30.54c1.17,1.07,3.25,1.31,4.75,1.19c6.07-0.48,30.13-4.17,33.11-4.76c2.98-0.59,2.72,2.15,2.19,4.05c-0.55,1.97-1.56,5.47-2.29,8.28c-0.37,1.45-0.67,2.72-0.78,3.51" id="Ske23hfem1w" kvg:type="㇕c" transform="matrix(1,0,0,1,696,-4)" xmlns:kvg="http://kanjivg.tagaini.net"></path><path class="stroke_order_diagram--existing_path" d="M20.25,46.75c5-0.75,27.39-4,29.19-4s3.61,0,5.06,0" id="Ske23hfem1x" kvg:type="㇐" transform="matrix(1,0,0,1,696,-4)" xmlns:kvg="http://kanjivg.tagaini.net"></path><path class="stroke_order_diagram--existing_path" d="M19.48,45.92c0.89,0.79,0.76,2.95,0.18,4.21c-0.66,1.44-3.27,7.54-3.64,8.34c-1.29,2.78-0.94,4.19,0.95,3.88c1.8-0.29,35.07-5.03,39.84-5.62c4.77-0.6,3.6,3.99,3.26,5.42c-0.65,2.74-3.06,11.6-5.74,17.29c-3.68,7.8-5.3,1.05-6.66-0.48" id="Ske23hfem1y" kvg:type="㇉" transform="matrix(1,0,0,1,696,-4)" xmlns:kvg="http://kanjivg.tagaini.net"></path><path class="stroke_order_diagram--existing_path" d="M35.87,31.41c1.22,1.15,1.45,2.48,1.48,4.09c0.14,9.47-0.07,40.65-0.14,57.25c-0.01,2.89-0.04,4.08-0.09,5.25" id="Ske23hfem1z" kvg:type="㇑" transform="matrix(1,0,0,1,696,-4)" xmlns:kvg="http://kanjivg.tagaini.net"></path><path class="stroke_order_diagram--existing_path" d="M34.94,60.5c0.06,0.62,0.13,1.6-0.14,2.49c-1.6,5.25-10.99,17.71-23.55,24.76" id="Ske23hfem20" kvg:type="㇒" transform="matrix(1,0,0,1,696,-4)" xmlns:kvg="http://kanjivg.tagaini.net"></path><path class="stroke_order_diagram--current_path" d="M70.77,25.33c0.98,0.92,1.67,1.99,1.76,5.02c0.31,11.1,0.13,23.12,0.03,30.4c-0.03,2.27-0.05,4.07-0.05,5.25" id="kvg:05243-s8" kvg:type="㇑" transform="matrix(1,0,0,1,696,-4)" xmlns:kvg="http://kanjivg.tagaini.net"></path><path class="stroke_order_diagram--current_path" d="M70.77,25.33c0.98,0.92,1.67,1.99,1.76,5.02c0.31,11.1,0.13,23.12,0.03,30.4c-0.03,2.27-0.05,4.07-0.05,5.25" id="Ske23hfem22" kvg:type="㇑" transform="matrix(1,0,0,1,696,-4)" xmlns:kvg="http://kanjivg.tagaini.net"></path><circle class="stroke_order_diagram--path_start" cx="70.77" cy="25.33" r="4" transform="matrix(1,0,0,1,696,-4)"></circle><line class="stroke_order_diagram--guide_line" x1="850" x2="850" y1="1" y2="99"></line><line class="stroke_order_diagram--bounding_box" x1="899" x2="899" y1="1" y2="99"></line><path class="stroke_order_diagram--existing_path" d="M21.16,15.25c2.62,1.63,6.78,6.69,7.43,9.22" id="Ske23hfem25" kvg:type="㇔" transform="matrix(1,0,0,1,796,-4)" xmlns:kvg="http://kanjivg.tagaini.net"></path><path class="stroke_order_diagram--existing_path" d="M47.85,12c0.08,1.05-0.09,2.06-0.49,3.04C46.2,18.43,44,21.5,39.36,27.25" id="Ske23hfem26" kvg:type="㇒" transform="matrix(1,0,0,1,796,-4)" xmlns:kvg="http://kanjivg.tagaini.net"></path><path class="stroke_order_diagram--existing_path" d="M15.18,30.54c1.17,1.07,3.25,1.31,4.75,1.19c6.07-0.48,30.13-4.17,33.11-4.76c2.98-0.59,2.72,2.15,2.19,4.05c-0.55,1.97-1.56,5.47-2.29,8.28c-0.37,1.45-0.67,2.72-0.78,3.51" id="Ske23hfem27" kvg:type="㇕c" transform="matrix(1,0,0,1,796,-4)" xmlns:kvg="http://kanjivg.tagaini.net"></path><path class="stroke_order_diagram--existing_path" d="M20.25,46.75c5-0.75,27.39-4,29.19-4s3.61,0,5.06,0" id="Ske23hfem28" kvg:type="㇐" transform="matrix(1,0,0,1,796,-4)" xmlns:kvg="http://kanjivg.tagaini.net"></path><path class="stroke_order_diagram--existing_path" d="M19.48,45.92c0.89,0.79,0.76,2.95,0.18,4.21c-0.66,1.44-3.27,7.54-3.64,8.34c-1.29,2.78-0.94,4.19,0.95,3.88c1.8-0.29,35.07-5.03,39.84-5.62c4.77-0.6,3.6,3.99,3.26,5.42c-0.65,2.74-3.06,11.6-5.74,17.29c-3.68,7.8-5.3,1.05-6.66-0.48" id="Ske23hfem29" kvg:type="㇉" transform="matrix(1,0,0,1,796,-4)" xmlns:kvg="http://kanjivg.tagaini.net"></path><path class="stroke_order_diagram--existing_path" d="M35.87,31.41c1.22,1.15,1.45,2.48,1.48,4.09c0.14,9.47-0.07,40.65-0.14,57.25c-0.01,2.89-0.04,4.08-0.09,5.25" id="Ske23hfem2a" kvg:type="㇑" transform="matrix(1,0,0,1,796,-4)" xmlns:kvg="http://kanjivg.tagaini.net"></path><path class="stroke_order_diagram--existing_path" d="M34.94,60.5c0.06,0.62,0.13,1.6-0.14,2.49c-1.6,5.25-10.99,17.71-23.55,24.76" id="Ske23hfem2b" kvg:type="㇒" transform="matrix(1,0,0,1,796,-4)" xmlns:kvg="http://kanjivg.tagaini.net"></path><path class="stroke_order_diagram--existing_path" d="M70.77,25.33c0.98,0.92,1.67,1.99,1.76,5.02c0.31,11.1,0.13,23.12,0.03,30.4c-0.03,2.27-0.05,4.07-0.05,5.25" id="Ske23hfem2c" kvg:type="㇑" transform="matrix(1,0,0,1,796,-4)" xmlns:kvg="http://kanjivg.tagaini.net"></path><path class="stroke_order_diagram--current_path" d="M89.27,13.33c0.98,0.92,1.67,1.99,1.76,5.02c0.4,14.55-0.26,65.66-0.26,70.62c0,13.14-7.21,1.5-8.71,0.25" id="kvg:05243-s9" kvg:type="㇚" transform="matrix(1,0,0,1,796,-4)" xmlns:kvg="http://kanjivg.tagaini.net"></path><path class="stroke_order_diagram--current_path" d="M89.27,13.33c0.98,0.92,1.67,1.99,1.76,5.02c0.4,14.55-0.26,65.66-0.26,70.62c0,13.14-7.21,1.5-8.71,0.25" id="Ske23hfem2e" kvg:type="㇚" transform="matrix(1,0,0,1,796,-4)" xmlns:kvg="http://kanjivg.tagaini.net"></path><circle class="stroke_order_diagram--path_start" cx="89.27" cy="13.33" r="4" transform="matrix(1,0,0,1,796,-4)"></circle></svg>