<svg class="stroke_order_diagram--svg_container_for_5186629fd5dda79658000c42" style="height: 100px; width: 900px;" viewbox="0 0 900 100"><desc>Created with Snap</desc><defs></defs><line class="stroke_order_diagram--bounding_box" x1="1" x2="899" y1="1" y2="1"></line><line class="stroke_order_diagram--bounding_box" x1="1" x2="1" y1="1" y2="99"></line><line class="stroke_order_diagram--bounding_box" x1="1" x2="899" y1="99" y2="99"></line><line class="stroke_order_diagram--guide_line" x1="0" x2="900" y1="50" y2="50"></line><line class="stroke_order_diagram--guide_line" x1="50" x2="50" y1="1" y2="99"></line><line class="stroke_order_diagram--bounding_box" x1="99" x2="99" y1="1" y2="99"></line><path class="stroke_order_diagram--current_path" d="M17.25,27.72c0.72,0.47,3.24,0.76,3.97,0.68c6.07-0.63,25.22-3.96,31.73-4.4c1.2-0.08,3.12,0.22,3.73,0.45" id="kvg:0524c-s1" kvg:type="㇐" transform="matrix(1,0,0,1,-4,-4)" xmlns:kvg="http://kanjivg.tagaini.net"></path><path class="stroke_order_diagram--current_path" d="M17.25,27.72c0.72,0.47,3.24,0.76,3.97,0.68c6.07-0.63,25.22-3.96,31.73-4.4c1.2-0.08,3.12,0.22,3.73,0.45" id="Ske2d4dpri" kvg:type="㇐" transform="matrix(1,0,0,1,-4,-4)" xmlns:kvg="http://kanjivg.tagaini.net"></path><circle class="stroke_order_diagram--path_start" cx="17.25" cy="27.72" r="4" transform="matrix(1,0,0,1,-4,-4)"></circle><line class="stroke_order_diagram--guide_line" x1="150" x2="150" y1="1" y2="99"></line><line class="stroke_order_diagram--bounding_box" x1="199" x2="199" y1="1" y2="99"></line><path class="stroke_order_diagram--existing_path" d="M17.25,27.72c0.72,0.47,3.24,0.76,3.97,0.68c6.07-0.63,25.22-3.96,31.73-4.4c1.2-0.08,3.12,0.22,3.73,0.45" id="Ske2d4dprl" kvg:type="㇐" transform="matrix(1,0,0,1,96,-4)" xmlns:kvg="http://kanjivg.tagaini.net"></path><path class="stroke_order_diagram--current_path" d="M18.67,39.58c0.29,0.38,0.59,0.69,0.72,1.16c1.01,3.73,2.78,12.26,3.47,18.95" id="kvg:0524c-s2" kvg:type="㇑" transform="matrix(1,0,0,1,96,-4)" xmlns:kvg="http://kanjivg.tagaini.net"></path><path class="stroke_order_diagram--current_path" d="M18.67,39.58c0.29,0.38,0.59,0.69,0.72,1.16c1.01,3.73,2.78,12.26,3.47,18.95" id="Ske2d4dprn" kvg:type="㇑" transform="matrix(1,0,0,1,96,-4)" xmlns:kvg="http://kanjivg.tagaini.net"></path><circle class="stroke_order_diagram--path_start" cx="18.67" cy="39.58" r="4" transform="matrix(1,0,0,1,96,-4)"></circle><line class="stroke_order_diagram--guide_line" x1="250" x2="250" y1="1" y2="99"></line><line class="stroke_order_diagram--bounding_box" x1="299" x2="299" y1="1" y2="99"></line><path class="stroke_order_diagram--existing_path" d="M17.25,27.72c0.72,0.47,3.24,0.76,3.97,0.68c6.07-0.63,25.22-3.96,31.73-4.4c1.2-0.08,3.12,0.22,3.73,0.45" id="Ske2d4dprq" kvg:type="㇐" transform="matrix(1,0,0,1,196,-4)" xmlns:kvg="http://kanjivg.tagaini.net"></path><path class="stroke_order_diagram--existing_path" d="M18.67,39.58c0.29,0.38,0.59,0.69,0.72,1.16c1.01,3.73,2.78,12.26,3.47,18.95" id="Ske2d4dprr" kvg:type="㇑" transform="matrix(1,0,0,1,196,-4)" xmlns:kvg="http://kanjivg.tagaini.net"></path><path class="stroke_order_diagram--current_path" d="M20.48,41.61c8.73-1.61,30.08-4.7,33.5-5.07c2.13-0.23,3.47,2.42,2.91,4.58c-1.51,5.78-1.87,8.34-3.06,12.76" id="kvg:0524c-s3" kvg:type="㇕b" transform="matrix(1,0,0,1,196,-4)" xmlns:kvg="http://kanjivg.tagaini.net"></path><path class="stroke_order_diagram--current_path" d="M20.48,41.61c8.73-1.61,30.08-4.7,33.5-5.07c2.13-0.23,3.47,2.42,2.91,4.58c-1.51,5.78-1.87,8.34-3.06,12.76" id="Ske2d4dprt" kvg:type="㇕b" transform="matrix(1,0,0,1,196,-4)" xmlns:kvg="http://kanjivg.tagaini.net"></path><circle class="stroke_order_diagram--path_start" cx="20.48" cy="41.61" r="4" transform="matrix(1,0,0,1,196,-4)"></circle><line class="stroke_order_diagram--guide_line" x1="350" x2="350" y1="1" y2="99"></line><line class="stroke_order_diagram--bounding_box" x1="399" x2="399" y1="1" y2="99"></line><path class="stroke_order_diagram--existing_path" d="M17.25,27.72c0.72,0.47,3.24,0.76,3.97,0.68c6.07-0.63,25.22-3.96,31.73-4.4c1.2-0.08,3.12,0.22,3.73,0.45" id="Ske2d4dprw" kvg:type="㇐" transform="matrix(1,0,0,1,296,-4)" xmlns:kvg="http://kanjivg.tagaini.net"></path><path class="stroke_order_diagram--existing_path" d="M18.67,39.58c0.29,0.38,0.59,0.69,0.72,1.16c1.01,3.73,2.78,12.26,3.47,18.95" id="Ske2d4dprx" kvg:type="㇑" transform="matrix(1,0,0,1,296,-4)" xmlns:kvg="http://kanjivg.tagaini.net"></path><path class="stroke_order_diagram--existing_path" d="M20.48,41.61c8.73-1.61,30.08-4.7,33.5-5.07c2.13-0.23,3.47,2.42,2.91,4.58c-1.51,5.78-1.87,8.34-3.06,12.76" id="Ske2d4dpry" kvg:type="㇕b" transform="matrix(1,0,0,1,296,-4)" xmlns:kvg="http://kanjivg.tagaini.net"></path><path class="stroke_order_diagram--current_path" d="M23,57.49c10.49-0.93,24.77-2.38,32.64-3.08" id="kvg:0524c-s4" kvg:type="㇐b" transform="matrix(1,0,0,1,296,-4)" xmlns:kvg="http://kanjivg.tagaini.net"></path><path class="stroke_order_diagram--current_path" d="M23,57.49c10.49-0.93,24.77-2.38,32.64-3.08" id="Ske2d4dpr10" kvg:type="㇐b" transform="matrix(1,0,0,1,296,-4)" xmlns:kvg="http://kanjivg.tagaini.net"></path><circle class="stroke_order_diagram--path_start" cx="23" cy="57.49" r="4" transform="matrix(1,0,0,1,296,-4)"></circle><line class="stroke_order_diagram--guide_line" x1="450" x2="450" y1="1" y2="99"></line><line class="stroke_order_diagram--bounding_box" x1="499" x2="499" y1="1" y2="99"></line><path class="stroke_order_diagram--existing_path" d="M17.25,27.72c0.72,0.47,3.24,0.76,3.97,0.68c6.07-0.63,25.22-3.96,31.73-4.4c1.2-0.08,3.12,0.22,3.73,0.45" id="Ske2d4dpr13" kvg:type="㇐" transform="matrix(1,0,0,1,396,-4)" xmlns:kvg="http://kanjivg.tagaini.net"></path><path class="stroke_order_diagram--existing_path" d="M18.67,39.58c0.29,0.38,0.59,0.69,0.72,1.16c1.01,3.73,2.78,12.26,3.47,18.95" id="Ske2d4dpr14" kvg:type="㇑" transform="matrix(1,0,0,1,396,-4)" xmlns:kvg="http://kanjivg.tagaini.net"></path><path class="stroke_order_diagram--existing_path" d="M20.48,41.61c8.73-1.61,30.08-4.7,33.5-5.07c2.13-0.23,3.47,2.42,2.91,4.58c-1.51,5.78-1.87,8.34-3.06,12.76" id="Ske2d4dpr15" kvg:type="㇕b" transform="matrix(1,0,0,1,396,-4)" xmlns:kvg="http://kanjivg.tagaini.net"></path><path class="stroke_order_diagram--existing_path" d="M23,57.49c10.49-0.93,24.77-2.38,32.64-3.08" id="Ske2d4dpr16" kvg:type="㇐b" transform="matrix(1,0,0,1,396,-4)" xmlns:kvg="http://kanjivg.tagaini.net"></path><path class="stroke_order_diagram--current_path" d="M35.95,11c1.24,0.5,1.98,2.23,2.23,3.22c0.25,0.99,0,78.08-0.25,84.28" id="kvg:0524c-s5" kvg:type="㇑" transform="matrix(1,0,0,1,396,-4)" xmlns:kvg="http://kanjivg.tagaini.net"></path><path class="stroke_order_diagram--current_path" d="M35.95,11c1.24,0.5,1.98,2.23,2.23,3.22c0.25,0.99,0,78.08-0.25,84.28" id="Ske2d4dpr18" kvg:type="㇑" transform="matrix(1,0,0,1,396,-4)" xmlns:kvg="http://kanjivg.tagaini.net"></path><circle class="stroke_order_diagram--path_start" cx="35.95" cy="11" r="4" transform="matrix(1,0,0,1,396,-4)"></circle><line class="stroke_order_diagram--guide_line" x1="550" x2="550" y1="1" y2="99"></line><line class="stroke_order_diagram--bounding_box" x1="599" x2="599" y1="1" y2="99"></line><path class="stroke_order_diagram--existing_path" d="M17.25,27.72c0.72,0.47,3.24,0.76,3.97,0.68c6.07-0.63,25.22-3.96,31.73-4.4c1.2-0.08,3.12,0.22,3.73,0.45" id="Ske2d4dpr1b" kvg:type="㇐" transform="matrix(1,0,0,1,496,-4)" xmlns:kvg="http://kanjivg.tagaini.net"></path><path class="stroke_order_diagram--existing_path" d="M18.67,39.58c0.29,0.38,0.59,0.69,0.72,1.16c1.01,3.73,2.78,12.26,3.47,18.95" id="Ske2d4dpr1c" kvg:type="㇑" transform="matrix(1,0,0,1,496,-4)" xmlns:kvg="http://kanjivg.tagaini.net"></path><path class="stroke_order_diagram--existing_path" d="M20.48,41.61c8.73-1.61,30.08-4.7,33.5-5.07c2.13-0.23,3.47,2.42,2.91,4.58c-1.51,5.78-1.87,8.34-3.06,12.76" id="Ske2d4dpr1d" kvg:type="㇕b" transform="matrix(1,0,0,1,496,-4)" xmlns:kvg="http://kanjivg.tagaini.net"></path><path class="stroke_order_diagram--existing_path" d="M23,57.49c10.49-0.93,24.77-2.38,32.64-3.08" id="Ske2d4dpr1e" kvg:type="㇐b" transform="matrix(1,0,0,1,496,-4)" xmlns:kvg="http://kanjivg.tagaini.net"></path><path class="stroke_order_diagram--existing_path" d="M35.95,11c1.24,0.5,1.98,2.23,2.23,3.22c0.25,0.99,0,78.08-0.25,84.28" id="Ske2d4dpr1f" kvg:type="㇑" transform="matrix(1,0,0,1,496,-4)" xmlns:kvg="http://kanjivg.tagaini.net"></path><path class="stroke_order_diagram--current_path" d="M37.87,56.05c-4.07,10.4-14.64,25.11-23.1,31" id="kvg:0524c-s6" kvg:type="㇒" transform="matrix(1,0,0,1,496,-4)" xmlns:kvg="http://kanjivg.tagaini.net"></path><path class="stroke_order_diagram--current_path" d="M37.87,56.05c-4.07,10.4-14.64,25.11-23.1,31" id="Ske2d4dpr1h" kvg:type="㇒" transform="matrix(1,0,0,1,496,-4)" xmlns:kvg="http://kanjivg.tagaini.net"></path><circle class="stroke_order_diagram--path_start" cx="37.87" cy="56.05" r="4" transform="matrix(1,0,0,1,496,-4)"></circle><line class="stroke_order_diagram--guide_line" x1="650" x2="650" y1="1" y2="99"></line><line class="stroke_order_diagram--bounding_box" x1="699" x2="699" y1="1" y2="99"></line><path class="stroke_order_diagram--existing_path" d="M17.25,27.72c0.72,0.47,3.24,0.76,3.97,0.68c6.07-0.63,25.22-3.96,31.73-4.4c1.2-0.08,3.12,0.22,3.73,0.45" id="Ske2d4dpr1k" kvg:type="㇐" transform="matrix(1,0,0,1,596,-4)" xmlns:kvg="http://kanjivg.tagaini.net"></path><path class="stroke_order_diagram--existing_path" d="M18.67,39.58c0.29,0.38,0.59,0.69,0.72,1.16c1.01,3.73,2.78,12.26,3.47,18.95" id="Ske2d4dpr1l" kvg:type="㇑" transform="matrix(1,0,0,1,596,-4)" xmlns:kvg="http://kanjivg.tagaini.net"></path><path class="stroke_order_diagram--existing_path" d="M20.48,41.61c8.73-1.61,30.08-4.7,33.5-5.07c2.13-0.23,3.47,2.42,2.91,4.58c-1.51,5.78-1.87,8.34-3.06,12.76" id="Ske2d4dpr1m" kvg:type="㇕b" transform="matrix(1,0,0,1,596,-4)" xmlns:kvg="http://kanjivg.tagaini.net"></path><path class="stroke_order_diagram--existing_path" d="M23,57.49c10.49-0.93,24.77-2.38,32.64-3.08" id="Ske2d4dpr1n" kvg:type="㇐b" transform="matrix(1,0,0,1,596,-4)" xmlns:kvg="http://kanjivg.tagaini.net"></path><path class="stroke_order_diagram--existing_path" d="M35.95,11c1.24,0.5,1.98,2.23,2.23,3.22c0.25,0.99,0,78.08-0.25,84.28" id="Ske2d4dpr1o" kvg:type="㇑" transform="matrix(1,0,0,1,596,-4)" xmlns:kvg="http://kanjivg.tagaini.net"></path><path class="stroke_order_diagram--existing_path" d="M37.87,56.05c-4.07,10.4-14.64,25.11-23.1,31" id="Ske2d4dpr1p" kvg:type="㇒" transform="matrix(1,0,0,1,596,-4)" xmlns:kvg="http://kanjivg.tagaini.net"></path><path class="stroke_order_diagram--current_path" d="M40.85,61.59c6.66,3.02,12.02,8.96,15.37,14.98" id="kvg:0524c-s7" kvg:type="㇏" transform="matrix(1,0,0,1,596,-4)" xmlns:kvg="http://kanjivg.tagaini.net"></path><path class="stroke_order_diagram--current_path" d="M40.85,61.59c6.66,3.02,12.02,8.96,15.37,14.98" id="Ske2d4dpr1r" kvg:type="㇏" transform="matrix(1,0,0,1,596,-4)" xmlns:kvg="http://kanjivg.tagaini.net"></path><circle class="stroke_order_diagram--path_start" cx="40.85" cy="61.59" r="4" transform="matrix(1,0,0,1,596,-4)"></circle><line class="stroke_order_diagram--guide_line" x1="750" x2="750" y1="1" y2="99"></line><line class="stroke_order_diagram--bounding_box" x1="799" x2="799" y1="1" y2="99"></line><path class="stroke_order_diagram--existing_path" d="M17.25,27.72c0.72,0.47,3.24,0.76,3.97,0.68c6.07-0.63,25.22-3.96,31.73-4.4c1.2-0.08,3.12,0.22,3.73,0.45" id="Ske2d4dpr1u" kvg:type="㇐" transform="matrix(1,0,0,1,696,-4)" xmlns:kvg="http://kanjivg.tagaini.net"></path><path class="stroke_order_diagram--existing_path" d="M18.67,39.58c0.29,0.38,0.59,0.69,0.72,1.16c1.01,3.73,2.78,12.26,3.47,18.95" id="Ske2d4dpr1v" kvg:type="㇑" transform="matrix(1,0,0,1,696,-4)" xmlns:kvg="http://kanjivg.tagaini.net"></path><path class="stroke_order_diagram--existing_path" d="M20.48,41.61c8.73-1.61,30.08-4.7,33.5-5.07c2.13-0.23,3.47,2.42,2.91,4.58c-1.51,5.78-1.87,8.34-3.06,12.76" id="Ske2d4dpr1w" kvg:type="㇕b" transform="matrix(1,0,0,1,696,-4)" xmlns:kvg="http://kanjivg.tagaini.net"></path><path class="stroke_order_diagram--existing_path" d="M23,57.49c10.49-0.93,24.77-2.38,32.64-3.08" id="Ske2d4dpr1x" kvg:type="㇐b" transform="matrix(1,0,0,1,696,-4)" xmlns:kvg="http://kanjivg.tagaini.net"></path><path class="stroke_order_diagram--existing_path" d="M35.95,11c1.24,0.5,1.98,2.23,2.23,3.22c0.25,0.99,0,78.08-0.25,84.28" id="Ske2d4dpr1y" kvg:type="㇑" transform="matrix(1,0,0,1,696,-4)" xmlns:kvg="http://kanjivg.tagaini.net"></path><path class="stroke_order_diagram--existing_path" d="M37.87,56.05c-4.07,10.4-14.64,25.11-23.1,31" id="Ske2d4dpr1z" kvg:type="㇒" transform="matrix(1,0,0,1,696,-4)" xmlns:kvg="http://kanjivg.tagaini.net"></path><path class="stroke_order_diagram--existing_path" d="M40.85,61.59c6.66,3.02,12.02,8.96,15.37,14.98" id="Ske2d4dpr20" kvg:type="㇏" transform="matrix(1,0,0,1,696,-4)" xmlns:kvg="http://kanjivg.tagaini.net"></path><path class="stroke_order_diagram--current_path" d="M68.77,25.33c0.98,0.92,1.67,1.99,1.76,5.02c0.4,14.55-0.02,36.19-0.02,41.15" id="kvg:0524c-s8" kvg:type="㇑" transform="matrix(1,0,0,1,696,-4)" xmlns:kvg="http://kanjivg.tagaini.net"></path><path class="stroke_order_diagram--current_path" d="M68.77,25.33c0.98,0.92,1.67,1.99,1.76,5.02c0.4,14.55-0.02,36.19-0.02,41.15" id="Ske2d4dpr22" kvg:type="㇑" transform="matrix(1,0,0,1,696,-4)" xmlns:kvg="http://kanjivg.tagaini.net"></path><circle class="stroke_order_diagram--path_start" cx="68.77" cy="25.33" r="4" transform="matrix(1,0,0,1,696,-4)"></circle><line class="stroke_order_diagram--guide_line" x1="850" x2="850" y1="1" y2="99"></line><line class="stroke_order_diagram--bounding_box" x1="899" x2="899" y1="1" y2="99"></line><path class="stroke_order_diagram--existing_path" d="M17.25,27.72c0.72,0.47,3.24,0.76,3.97,0.68c6.07-0.63,25.22-3.96,31.73-4.4c1.2-0.08,3.12,0.22,3.73,0.45" id="Ske2d4dpr25" kvg:type="㇐" transform="matrix(1,0,0,1,796,-4)" xmlns:kvg="http://kanjivg.tagaini.net"></path><path class="stroke_order_diagram--existing_path" d="M18.67,39.58c0.29,0.38,0.59,0.69,0.72,1.16c1.01,3.73,2.78,12.26,3.47,18.95" id="Ske2d4dpr26" kvg:type="㇑" transform="matrix(1,0,0,1,796,-4)" xmlns:kvg="http://kanjivg.tagaini.net"></path><path class="stroke_order_diagram--existing_path" d="M20.48,41.61c8.73-1.61,30.08-4.7,33.5-5.07c2.13-0.23,3.47,2.42,2.91,4.58c-1.51,5.78-1.87,8.34-3.06,12.76" id="Ske2d4dpr27" kvg:type="㇕b" transform="matrix(1,0,0,1,796,-4)" xmlns:kvg="http://kanjivg.tagaini.net"></path><path class="stroke_order_diagram--existing_path" d="M23,57.49c10.49-0.93,24.77-2.38,32.64-3.08" id="Ske2d4dpr28" kvg:type="㇐b" transform="matrix(1,0,0,1,796,-4)" xmlns:kvg="http://kanjivg.tagaini.net"></path><path class="stroke_order_diagram--existing_path" d="M35.95,11c1.24,0.5,1.98,2.23,2.23,3.22c0.25,0.99,0,78.08-0.25,84.28" id="Ske2d4dpr29" kvg:type="㇑" transform="matrix(1,0,0,1,796,-4)" xmlns:kvg="http://kanjivg.tagaini.net"></path><path class="stroke_order_diagram--existing_path" d="M37.87,56.05c-4.07,10.4-14.64,25.11-23.1,31" id="Ske2d4dpr2a" kvg:type="㇒" transform="matrix(1,0,0,1,796,-4)" xmlns:kvg="http://kanjivg.tagaini.net"></path><path class="stroke_order_diagram--existing_path" d="M40.85,61.59c6.66,3.02,12.02,8.96,15.37,14.98" id="Ske2d4dpr2b" kvg:type="㇏" transform="matrix(1,0,0,1,796,-4)" xmlns:kvg="http://kanjivg.tagaini.net"></path><path class="stroke_order_diagram--existing_path" d="M68.77,25.33c0.98,0.92,1.67,1.99,1.76,5.02c0.4,14.55-0.02,36.19-0.02,41.15" id="Ske2d4dpr2c" kvg:type="㇑" transform="matrix(1,0,0,1,796,-4)" xmlns:kvg="http://kanjivg.tagaini.net"></path><path class="stroke_order_diagram--current_path" d="M88.77,11.33c0.98,0.92,1.67,1.99,1.76,5.02c0.4,14.55-0.26,68.66-0.26,73.62c0,13.14-7.21,1.5-8.71,0.25" id="kvg:0524c-s9" kvg:type="㇚" transform="matrix(1,0,0,1,796,-4)" xmlns:kvg="http://kanjivg.tagaini.net"></path><path class="stroke_order_diagram--current_path" d="M88.77,11.33c0.98,0.92,1.67,1.99,1.76,5.02c0.4,14.55-0.26,68.66-0.26,73.62c0,13.14-7.21,1.5-8.71,0.25" id="Ske2d4dpr2e" kvg:type="㇚" transform="matrix(1,0,0,1,796,-4)" xmlns:kvg="http://kanjivg.tagaini.net"></path><circle class="stroke_order_diagram--path_start" cx="88.77" cy="11.33" r="4" transform="matrix(1,0,0,1,796,-4)"></circle></svg>