<svg class="stroke_order_diagram--svg_container_for_518662a0d5dda79658000c5c" style="height: 100px; width: 1300px;" viewbox="0 0 1300 100"><desc>Created with Snap</desc><defs></defs><line class="stroke_order_diagram--bounding_box" x1="1" x2="1299" y1="1" y2="1"></line><line class="stroke_order_diagram--bounding_box" x1="1" x2="1" y1="1" y2="99"></line><line class="stroke_order_diagram--bounding_box" x1="1" x2="1299" y1="99" y2="99"></line><line class="stroke_order_diagram--guide_line" x1="0" x2="1300" y1="50" y2="50"></line><line class="stroke_order_diagram--guide_line" x1="50" x2="50" y1="1" y2="99"></line><line class="stroke_order_diagram--bounding_box" x1="99" x2="99" y1="1" y2="99"></line><path class="stroke_order_diagram--current_path" d="M23.09,12.66c0.62,0.26,0.13,2.07-0.1,2.68c-1.51,3.95-2.74,6.41-6.44,11.11c-0.64,0.81-0.37,0.7,0,0.89c4.61,2.3,5.58,5.51,8,10.19" id="kvg:052e6-s1" kvg:type="㇛" transform="matrix(1,0,0,1,-4,-4)" xmlns:kvg="http://kanjivg.tagaini.net"></path><path class="stroke_order_diagram--current_path" d="M23.09,12.66c0.62,0.26,0.13,2.07-0.1,2.68c-1.51,3.95-2.74,6.41-6.44,11.11c-0.64,0.81-0.37,0.7,0,0.89c4.61,2.3,5.58,5.51,8,10.19" id="Ske2dbugpm" kvg:type="㇛" transform="matrix(1,0,0,1,-4,-4)" xmlns:kvg="http://kanjivg.tagaini.net"></path><circle class="stroke_order_diagram--path_start" cx="23.09" cy="12.66" r="4" transform="matrix(1,0,0,1,-4,-4)"></circle><line class="stroke_order_diagram--guide_line" x1="150" x2="150" y1="1" y2="99"></line><line class="stroke_order_diagram--bounding_box" x1="199" x2="199" y1="1" y2="99"></line><path class="stroke_order_diagram--existing_path" d="M23.09,12.66c0.62,0.26,0.13,2.07-0.1,2.68c-1.51,3.95-2.74,6.41-6.44,11.11c-0.64,0.81-0.37,0.7,0,0.89c4.61,2.3,5.58,5.51,8,10.19" id="Ske2dbugpp" kvg:type="㇛" transform="matrix(1,0,0,1,96,-4)" xmlns:kvg="http://kanjivg.tagaini.net"></path><path class="stroke_order_diagram--current_path" d="M37.3,12.66c0.62,0.26,0.13,2.07-0.11,2.68c-1.51,3.95-3.45,6.57-7.44,10.11c-0.77,0.68-0.37,0.7,0,0.89c4.61,2.3,7.5,6.16,9.05,10.19" id="kvg:052e6-s2" kvg:type="㇛" transform="matrix(1,0,0,1,96,-4)" xmlns:kvg="http://kanjivg.tagaini.net"></path><path class="stroke_order_diagram--current_path" d="M37.3,12.66c0.62,0.26,0.13,2.07-0.11,2.68c-1.51,3.95-3.45,6.57-7.44,10.11c-0.77,0.68-0.37,0.7,0,0.89c4.61,2.3,7.5,6.16,9.05,10.19" id="Ske2dbugpr" kvg:type="㇛" transform="matrix(1,0,0,1,96,-4)" xmlns:kvg="http://kanjivg.tagaini.net"></path><circle class="stroke_order_diagram--path_start" cx="37.3" cy="12.66" r="4" transform="matrix(1,0,0,1,96,-4)"></circle><line class="stroke_order_diagram--guide_line" x1="250" x2="250" y1="1" y2="99"></line><line class="stroke_order_diagram--bounding_box" x1="299" x2="299" y1="1" y2="99"></line><path class="stroke_order_diagram--existing_path" d="M23.09,12.66c0.62,0.26,0.13,2.07-0.1,2.68c-1.51,3.95-2.74,6.41-6.44,11.11c-0.64,0.81-0.37,0.7,0,0.89c4.61,2.3,5.58,5.51,8,10.19" id="Ske2dbugpu" kvg:type="㇛" transform="matrix(1,0,0,1,196,-4)" xmlns:kvg="http://kanjivg.tagaini.net"></path><path class="stroke_order_diagram--existing_path" d="M37.3,12.66c0.62,0.26,0.13,2.07-0.11,2.68c-1.51,3.95-3.45,6.57-7.44,10.11c-0.77,0.68-0.37,0.7,0,0.89c4.61,2.3,7.5,6.16,9.05,10.19" id="Ske2dbugpv" kvg:type="㇛" transform="matrix(1,0,0,1,196,-4)" xmlns:kvg="http://kanjivg.tagaini.net"></path><path class="stroke_order_diagram--current_path" d="M50.74,12.16c0.62,0.26,0.07,2.05-0.1,2.68c-0.89,3.16-3.14,6.41-6.44,9.63c-0.74,0.72-0.34,0.66,0,0.89c3.56,2.39,6.56,5.64,8,9.67" id="kvg:052e6-s3" kvg:type="㇛" transform="matrix(1,0,0,1,196,-4)" xmlns:kvg="http://kanjivg.tagaini.net"></path><path class="stroke_order_diagram--current_path" d="M50.74,12.16c0.62,0.26,0.07,2.05-0.1,2.68c-0.89,3.16-3.14,6.41-6.44,9.63c-0.74,0.72-0.34,0.66,0,0.89c3.56,2.39,6.56,5.64,8,9.67" id="Ske2dbugpx" kvg:type="㇛" transform="matrix(1,0,0,1,196,-4)" xmlns:kvg="http://kanjivg.tagaini.net"></path><circle class="stroke_order_diagram--path_start" cx="50.74" cy="12.16" r="4" transform="matrix(1,0,0,1,196,-4)"></circle><line class="stroke_order_diagram--guide_line" x1="350" x2="350" y1="1" y2="99"></line><line class="stroke_order_diagram--bounding_box" x1="399" x2="399" y1="1" y2="99"></line><path class="stroke_order_diagram--existing_path" d="M23.09,12.66c0.62,0.26,0.13,2.07-0.1,2.68c-1.51,3.95-2.74,6.41-6.44,11.11c-0.64,0.81-0.37,0.7,0,0.89c4.61,2.3,5.58,5.51,8,10.19" id="Ske2dbugp10" kvg:type="㇛" transform="matrix(1,0,0,1,296,-4)" xmlns:kvg="http://kanjivg.tagaini.net"></path><path class="stroke_order_diagram--existing_path" d="M37.3,12.66c0.62,0.26,0.13,2.07-0.11,2.68c-1.51,3.95-3.45,6.57-7.44,10.11c-0.77,0.68-0.37,0.7,0,0.89c4.61,2.3,7.5,6.16,9.05,10.19" id="Ske2dbugp11" kvg:type="㇛" transform="matrix(1,0,0,1,296,-4)" xmlns:kvg="http://kanjivg.tagaini.net"></path><path class="stroke_order_diagram--existing_path" d="M50.74,12.16c0.62,0.26,0.07,2.05-0.1,2.68c-0.89,3.16-3.14,6.41-6.44,9.63c-0.74,0.72-0.34,0.66,0,0.89c3.56,2.39,6.56,5.64,8,9.67" id="Ske2dbugp12" kvg:type="㇛" transform="matrix(1,0,0,1,296,-4)" xmlns:kvg="http://kanjivg.tagaini.net"></path><path class="stroke_order_diagram--current_path" d="M17.38,42.18c0.47,0.51,1.14,1.13,1.14,1.82c0,0.69,3.21,19.02,3.21,19.37c0,0.35,0.08,0.35,0.17,1.04" id="kvg:052e6-s4" kvg:type="㇑" transform="matrix(1,0,0,1,296,-4)" xmlns:kvg="http://kanjivg.tagaini.net"></path><path class="stroke_order_diagram--current_path" d="M17.38,42.18c0.47,0.51,1.14,1.13,1.14,1.82c0,0.69,3.21,19.02,3.21,19.37c0,0.35,0.08,0.35,0.17,1.04" id="Ske2dbugp14" kvg:type="㇑" transform="matrix(1,0,0,1,296,-4)" xmlns:kvg="http://kanjivg.tagaini.net"></path><circle class="stroke_order_diagram--path_start" cx="17.38" cy="42.18" r="4" transform="matrix(1,0,0,1,296,-4)"></circle><line class="stroke_order_diagram--guide_line" x1="450" x2="450" y1="1" y2="99"></line><line class="stroke_order_diagram--bounding_box" x1="499" x2="499" y1="1" y2="99"></line><path class="stroke_order_diagram--existing_path" d="M23.09,12.66c0.62,0.26,0.13,2.07-0.1,2.68c-1.51,3.95-2.74,6.41-6.44,11.11c-0.64,0.81-0.37,0.7,0,0.89c4.61,2.3,5.58,5.51,8,10.19" id="Ske2dbugp17" kvg:type="㇛" transform="matrix(1,0,0,1,396,-4)" xmlns:kvg="http://kanjivg.tagaini.net"></path><path class="stroke_order_diagram--existing_path" d="M37.3,12.66c0.62,0.26,0.13,2.07-0.11,2.68c-1.51,3.95-3.45,6.57-7.44,10.11c-0.77,0.68-0.37,0.7,0,0.89c4.61,2.3,7.5,6.16,9.05,10.19" id="Ske2dbugp18" kvg:type="㇛" transform="matrix(1,0,0,1,396,-4)" xmlns:kvg="http://kanjivg.tagaini.net"></path><path class="stroke_order_diagram--existing_path" d="M50.74,12.16c0.62,0.26,0.07,2.05-0.1,2.68c-0.89,3.16-3.14,6.41-6.44,9.63c-0.74,0.72-0.34,0.66,0,0.89c3.56,2.39,6.56,5.64,8,9.67" id="Ske2dbugp19" kvg:type="㇛" transform="matrix(1,0,0,1,396,-4)" xmlns:kvg="http://kanjivg.tagaini.net"></path><path class="stroke_order_diagram--existing_path" d="M17.38,42.18c0.47,0.51,1.14,1.13,1.14,1.82c0,0.69,3.21,19.02,3.21,19.37c0,0.35,0.08,0.35,0.17,1.04" id="Ske2dbugp1a" kvg:type="㇑" transform="matrix(1,0,0,1,396,-4)" xmlns:kvg="http://kanjivg.tagaini.net"></path><path class="stroke_order_diagram--current_path" d="M18.61,43.32c1.41-0.09,29.96-3.08,31.25-3.08c1.69,0.01,2.39,2.01,2.31,2.52C52,43.8,49.25,58.5,47.97,62.52" id="kvg:052e6-s5" kvg:type="㇕a" transform="matrix(1,0,0,1,396,-4)" xmlns:kvg="http://kanjivg.tagaini.net"></path><path class="stroke_order_diagram--current_path" d="M18.61,43.32c1.41-0.09,29.96-3.08,31.25-3.08c1.69,0.01,2.39,2.01,2.31,2.52C52,43.8,49.25,58.5,47.97,62.52" id="Ske2dbugp1c" kvg:type="㇕a" transform="matrix(1,0,0,1,396,-4)" xmlns:kvg="http://kanjivg.tagaini.net"></path><circle class="stroke_order_diagram--path_start" cx="18.61" cy="43.32" r="4" transform="matrix(1,0,0,1,396,-4)"></circle><line class="stroke_order_diagram--guide_line" x1="550" x2="550" y1="1" y2="99"></line><line class="stroke_order_diagram--bounding_box" x1="599" x2="599" y1="1" y2="99"></line><path class="stroke_order_diagram--existing_path" d="M23.09,12.66c0.62,0.26,0.13,2.07-0.1,2.68c-1.51,3.95-2.74,6.41-6.44,11.11c-0.64,0.81-0.37,0.7,0,0.89c4.61,2.3,5.58,5.51,8,10.19" id="Ske2dbugp1f" kvg:type="㇛" transform="matrix(1,0,0,1,496,-4)" xmlns:kvg="http://kanjivg.tagaini.net"></path><path class="stroke_order_diagram--existing_path" d="M37.3,12.66c0.62,0.26,0.13,2.07-0.11,2.68c-1.51,3.95-3.45,6.57-7.44,10.11c-0.77,0.68-0.37,0.7,0,0.89c4.61,2.3,7.5,6.16,9.05,10.19" id="Ske2dbugp1g" kvg:type="㇛" transform="matrix(1,0,0,1,496,-4)" xmlns:kvg="http://kanjivg.tagaini.net"></path><path class="stroke_order_diagram--existing_path" d="M50.74,12.16c0.62,0.26,0.07,2.05-0.1,2.68c-0.89,3.16-3.14,6.41-6.44,9.63c-0.74,0.72-0.34,0.66,0,0.89c3.56,2.39,6.56,5.64,8,9.67" id="Ske2dbugp1h" kvg:type="㇛" transform="matrix(1,0,0,1,496,-4)" xmlns:kvg="http://kanjivg.tagaini.net"></path><path class="stroke_order_diagram--existing_path" d="M17.38,42.18c0.47,0.51,1.14,1.13,1.14,1.82c0,0.69,3.21,19.02,3.21,19.37c0,0.35,0.08,0.35,0.17,1.04" id="Ske2dbugp1i" kvg:type="㇑" transform="matrix(1,0,0,1,496,-4)" xmlns:kvg="http://kanjivg.tagaini.net"></path><path class="stroke_order_diagram--existing_path" d="M18.61,43.32c1.41-0.09,29.96-3.08,31.25-3.08c1.69,0.01,2.39,2.01,2.31,2.52C52,43.8,49.25,58.5,47.97,62.52" id="Ske2dbugp1j" kvg:type="㇕a" transform="matrix(1,0,0,1,496,-4)" xmlns:kvg="http://kanjivg.tagaini.net"></path><path class="stroke_order_diagram--current_path" d="M19.82,53.04c1.9,0,27.62-2.56,29.77-2.56" id="kvg:052e6-s6" kvg:type="㇐a" transform="matrix(1,0,0,1,496,-4)" xmlns:kvg="http://kanjivg.tagaini.net"></path><path class="stroke_order_diagram--current_path" d="M19.82,53.04c1.9,0,27.62-2.56,29.77-2.56" id="Ske2dbugp1l" kvg:type="㇐a" transform="matrix(1,0,0,1,496,-4)" xmlns:kvg="http://kanjivg.tagaini.net"></path><circle class="stroke_order_diagram--path_start" cx="19.82" cy="53.04" r="4" transform="matrix(1,0,0,1,496,-4)"></circle><line class="stroke_order_diagram--guide_line" x1="650" x2="650" y1="1" y2="99"></line><line class="stroke_order_diagram--bounding_box" x1="699" x2="699" y1="1" y2="99"></line><path class="stroke_order_diagram--existing_path" d="M23.09,12.66c0.62,0.26,0.13,2.07-0.1,2.68c-1.51,3.95-2.74,6.41-6.44,11.11c-0.64,0.81-0.37,0.7,0,0.89c4.61,2.3,5.58,5.51,8,10.19" id="Ske2dbugp1o" kvg:type="㇛" transform="matrix(1,0,0,1,596,-4)" xmlns:kvg="http://kanjivg.tagaini.net"></path><path class="stroke_order_diagram--existing_path" d="M37.3,12.66c0.62,0.26,0.13,2.07-0.11,2.68c-1.51,3.95-3.45,6.57-7.44,10.11c-0.77,0.68-0.37,0.7,0,0.89c4.61,2.3,7.5,6.16,9.05,10.19" id="Ske2dbugp1p" kvg:type="㇛" transform="matrix(1,0,0,1,596,-4)" xmlns:kvg="http://kanjivg.tagaini.net"></path><path class="stroke_order_diagram--existing_path" d="M50.74,12.16c0.62,0.26,0.07,2.05-0.1,2.68c-0.89,3.16-3.14,6.41-6.44,9.63c-0.74,0.72-0.34,0.66,0,0.89c3.56,2.39,6.56,5.64,8,9.67" id="Ske2dbugp1q" kvg:type="㇛" transform="matrix(1,0,0,1,596,-4)" xmlns:kvg="http://kanjivg.tagaini.net"></path><path class="stroke_order_diagram--existing_path" d="M17.38,42.18c0.47,0.51,1.14,1.13,1.14,1.82c0,0.69,3.21,19.02,3.21,19.37c0,0.35,0.08,0.35,0.17,1.04" id="Ske2dbugp1r" kvg:type="㇑" transform="matrix(1,0,0,1,596,-4)" xmlns:kvg="http://kanjivg.tagaini.net"></path><path class="stroke_order_diagram--existing_path" d="M18.61,43.32c1.41-0.09,29.96-3.08,31.25-3.08c1.69,0.01,2.39,2.01,2.31,2.52C52,43.8,49.25,58.5,47.97,62.52" id="Ske2dbugp1s" kvg:type="㇕a" transform="matrix(1,0,0,1,596,-4)" xmlns:kvg="http://kanjivg.tagaini.net"></path><path class="stroke_order_diagram--existing_path" d="M19.82,53.04c1.9,0,27.62-2.56,29.77-2.56" id="Ske2dbugp1t" kvg:type="㇐a" transform="matrix(1,0,0,1,596,-4)" xmlns:kvg="http://kanjivg.tagaini.net"></path><path class="stroke_order_diagram--current_path" d="M22.47,62.81c3.88-0.37,20.4-1.72,25.23-2.03" id="kvg:052e6-s7" kvg:type="㇐a" transform="matrix(1,0,0,1,596,-4)" xmlns:kvg="http://kanjivg.tagaini.net"></path><path class="stroke_order_diagram--current_path" d="M22.47,62.81c3.88-0.37,20.4-1.72,25.23-2.03" id="Ske2dbugp1v" kvg:type="㇐a" transform="matrix(1,0,0,1,596,-4)" xmlns:kvg="http://kanjivg.tagaini.net"></path><circle class="stroke_order_diagram--path_start" cx="22.47" cy="62.81" r="4" transform="matrix(1,0,0,1,596,-4)"></circle><line class="stroke_order_diagram--guide_line" x1="750" x2="750" y1="1" y2="99"></line><line class="stroke_order_diagram--bounding_box" x1="799" x2="799" y1="1" y2="99"></line><path class="stroke_order_diagram--existing_path" d="M23.09,12.66c0.62,0.26,0.13,2.07-0.1,2.68c-1.51,3.95-2.74,6.41-6.44,11.11c-0.64,0.81-0.37,0.7,0,0.89c4.61,2.3,5.58,5.51,8,10.19" id="Ske2dbugp1y" kvg:type="㇛" transform="matrix(1,0,0,1,696,-4)" xmlns:kvg="http://kanjivg.tagaini.net"></path><path class="stroke_order_diagram--existing_path" d="M37.3,12.66c0.62,0.26,0.13,2.07-0.11,2.68c-1.51,3.95-3.45,6.57-7.44,10.11c-0.77,0.68-0.37,0.7,0,0.89c4.61,2.3,7.5,6.16,9.05,10.19" id="Ske2dbugp1z" kvg:type="㇛" transform="matrix(1,0,0,1,696,-4)" xmlns:kvg="http://kanjivg.tagaini.net"></path><path class="stroke_order_diagram--existing_path" d="M50.74,12.16c0.62,0.26,0.07,2.05-0.1,2.68c-0.89,3.16-3.14,6.41-6.44,9.63c-0.74,0.72-0.34,0.66,0,0.89c3.56,2.39,6.56,5.64,8,9.67" id="Ske2dbugp20" kvg:type="㇛" transform="matrix(1,0,0,1,696,-4)" xmlns:kvg="http://kanjivg.tagaini.net"></path><path class="stroke_order_diagram--existing_path" d="M17.38,42.18c0.47,0.51,1.14,1.13,1.14,1.82c0,0.69,3.21,19.02,3.21,19.37c0,0.35,0.08,0.35,0.17,1.04" id="Ske2dbugp21" kvg:type="㇑" transform="matrix(1,0,0,1,696,-4)" xmlns:kvg="http://kanjivg.tagaini.net"></path><path class="stroke_order_diagram--existing_path" d="M18.61,43.32c1.41-0.09,29.96-3.08,31.25-3.08c1.69,0.01,2.39,2.01,2.31,2.52C52,43.8,49.25,58.5,47.97,62.52" id="Ske2dbugp22" kvg:type="㇕a" transform="matrix(1,0,0,1,696,-4)" xmlns:kvg="http://kanjivg.tagaini.net"></path><path class="stroke_order_diagram--existing_path" d="M19.82,53.04c1.9,0,27.62-2.56,29.77-2.56" id="Ske2dbugp23" kvg:type="㇐a" transform="matrix(1,0,0,1,696,-4)" xmlns:kvg="http://kanjivg.tagaini.net"></path><path class="stroke_order_diagram--existing_path" d="M22.47,62.81c3.88-0.37,20.4-1.72,25.23-2.03" id="Ske2dbugp24" kvg:type="㇐a" transform="matrix(1,0,0,1,696,-4)" xmlns:kvg="http://kanjivg.tagaini.net"></path><path class="stroke_order_diagram--current_path" d="M10.71,72.57c0.5,0.17,1.82,0.46,3.15,0.52c3.65,0.17,28.94-3.34,39.55-3.68c1.33-0.04,1.66,0.17,2.49,0.35" id="kvg:052e6-s8" kvg:type="㇐" transform="matrix(1,0,0,1,696,-4)" xmlns:kvg="http://kanjivg.tagaini.net"></path><path class="stroke_order_diagram--current_path" d="M10.71,72.57c0.5,0.17,1.82,0.46,3.15,0.52c3.65,0.17,28.94-3.34,39.55-3.68c1.33-0.04,1.66,0.17,2.49,0.35" id="Ske2dbugp26" kvg:type="㇐" transform="matrix(1,0,0,1,696,-4)" xmlns:kvg="http://kanjivg.tagaini.net"></path><circle class="stroke_order_diagram--path_start" cx="10.71" cy="72.57" r="4" transform="matrix(1,0,0,1,696,-4)"></circle><line class="stroke_order_diagram--guide_line" x1="850" x2="850" y1="1" y2="99"></line><line class="stroke_order_diagram--bounding_box" x1="899" x2="899" y1="1" y2="99"></line><path class="stroke_order_diagram--existing_path" d="M23.09,12.66c0.62,0.26,0.13,2.07-0.1,2.68c-1.51,3.95-2.74,6.41-6.44,11.11c-0.64,0.81-0.37,0.7,0,0.89c4.61,2.3,5.58,5.51,8,10.19" id="Ske2dbugp29" kvg:type="㇛" transform="matrix(1,0,0,1,796,-4)" xmlns:kvg="http://kanjivg.tagaini.net"></path><path class="stroke_order_diagram--existing_path" d="M37.3,12.66c0.62,0.26,0.13,2.07-0.11,2.68c-1.51,3.95-3.45,6.57-7.44,10.11c-0.77,0.68-0.37,0.7,0,0.89c4.61,2.3,7.5,6.16,9.05,10.19" id="Ske2dbugp2a" kvg:type="㇛" transform="matrix(1,0,0,1,796,-4)" xmlns:kvg="http://kanjivg.tagaini.net"></path><path class="stroke_order_diagram--existing_path" d="M50.74,12.16c0.62,0.26,0.07,2.05-0.1,2.68c-0.89,3.16-3.14,6.41-6.44,9.63c-0.74,0.72-0.34,0.66,0,0.89c3.56,2.39,6.56,5.64,8,9.67" id="Ske2dbugp2b" kvg:type="㇛" transform="matrix(1,0,0,1,796,-4)" xmlns:kvg="http://kanjivg.tagaini.net"></path><path class="stroke_order_diagram--existing_path" d="M17.38,42.18c0.47,0.51,1.14,1.13,1.14,1.82c0,0.69,3.21,19.02,3.21,19.37c0,0.35,0.08,0.35,0.17,1.04" id="Ske2dbugp2c" kvg:type="㇑" transform="matrix(1,0,0,1,796,-4)" xmlns:kvg="http://kanjivg.tagaini.net"></path><path class="stroke_order_diagram--existing_path" d="M18.61,43.32c1.41-0.09,29.96-3.08,31.25-3.08c1.69,0.01,2.39,2.01,2.31,2.52C52,43.8,49.25,58.5,47.97,62.52" id="Ske2dbugp2d" kvg:type="㇕a" transform="matrix(1,0,0,1,796,-4)" xmlns:kvg="http://kanjivg.tagaini.net"></path><path class="stroke_order_diagram--existing_path" d="M19.82,53.04c1.9,0,27.62-2.56,29.77-2.56" id="Ske2dbugp2e" kvg:type="㇐a" transform="matrix(1,0,0,1,796,-4)" xmlns:kvg="http://kanjivg.tagaini.net"></path><path class="stroke_order_diagram--existing_path" d="M22.47,62.81c3.88-0.37,20.4-1.72,25.23-2.03" id="Ske2dbugp2f" kvg:type="㇐a" transform="matrix(1,0,0,1,796,-4)" xmlns:kvg="http://kanjivg.tagaini.net"></path><path class="stroke_order_diagram--existing_path" d="M10.71,72.57c0.5,0.17,1.82,0.46,3.15,0.52c3.65,0.17,28.94-3.34,39.55-3.68c1.33-0.04,1.66,0.17,2.49,0.35" id="Ske2dbugp2g" kvg:type="㇐" transform="matrix(1,0,0,1,796,-4)" xmlns:kvg="http://kanjivg.tagaini.net"></path><path class="stroke_order_diagram--current_path" d="M33.94,44.6c0.77,0.39,1.23,1.77,1.38,2.55c0.15,0.78,0,45.69-0.15,50.59" id="kvg:052e6-s9" kvg:type="㇑" transform="matrix(1,0,0,1,796,-4)" xmlns:kvg="http://kanjivg.tagaini.net"></path><path class="stroke_order_diagram--current_path" d="M33.94,44.6c0.77,0.39,1.23,1.77,1.38,2.55c0.15,0.78,0,45.69-0.15,50.59" id="Ske2dbugp2i" kvg:type="㇑" transform="matrix(1,0,0,1,796,-4)" xmlns:kvg="http://kanjivg.tagaini.net"></path><circle class="stroke_order_diagram--path_start" cx="33.94" cy="44.6" r="4" transform="matrix(1,0,0,1,796,-4)"></circle><line class="stroke_order_diagram--guide_line" x1="950" x2="950" y1="1" y2="99"></line><line class="stroke_order_diagram--bounding_box" x1="999" x2="999" y1="1" y2="99"></line><path class="stroke_order_diagram--existing_path" d="M23.09,12.66c0.62,0.26,0.13,2.07-0.1,2.68c-1.51,3.95-2.74,6.41-6.44,11.11c-0.64,0.81-0.37,0.7,0,0.89c4.61,2.3,5.58,5.51,8,10.19" id="Ske2dbugp2l" kvg:type="㇛" transform="matrix(1,0,0,1,896,-4)" xmlns:kvg="http://kanjivg.tagaini.net"></path><path class="stroke_order_diagram--existing_path" d="M37.3,12.66c0.62,0.26,0.13,2.07-0.11,2.68c-1.51,3.95-3.45,6.57-7.44,10.11c-0.77,0.68-0.37,0.7,0,0.89c4.61,2.3,7.5,6.16,9.05,10.19" id="Ske2dbugp2m" kvg:type="㇛" transform="matrix(1,0,0,1,896,-4)" xmlns:kvg="http://kanjivg.tagaini.net"></path><path class="stroke_order_diagram--existing_path" d="M50.74,12.16c0.62,0.26,0.07,2.05-0.1,2.68c-0.89,3.16-3.14,6.41-6.44,9.63c-0.74,0.72-0.34,0.66,0,0.89c3.56,2.39,6.56,5.64,8,9.67" id="Ske2dbugp2n" kvg:type="㇛" transform="matrix(1,0,0,1,896,-4)" xmlns:kvg="http://kanjivg.tagaini.net"></path><path class="stroke_order_diagram--existing_path" d="M17.38,42.18c0.47,0.51,1.14,1.13,1.14,1.82c0,0.69,3.21,19.02,3.21,19.37c0,0.35,0.08,0.35,0.17,1.04" id="Ske2dbugp2o" kvg:type="㇑" transform="matrix(1,0,0,1,896,-4)" xmlns:kvg="http://kanjivg.tagaini.net"></path><path class="stroke_order_diagram--existing_path" d="M18.61,43.32c1.41-0.09,29.96-3.08,31.25-3.08c1.69,0.01,2.39,2.01,2.31,2.52C52,43.8,49.25,58.5,47.97,62.52" id="Ske2dbugp2p" kvg:type="㇕a" transform="matrix(1,0,0,1,896,-4)" xmlns:kvg="http://kanjivg.tagaini.net"></path><path class="stroke_order_diagram--existing_path" d="M19.82,53.04c1.9,0,27.62-2.56,29.77-2.56" id="Ske2dbugp2q" kvg:type="㇐a" transform="matrix(1,0,0,1,896,-4)" xmlns:kvg="http://kanjivg.tagaini.net"></path><path class="stroke_order_diagram--existing_path" d="M22.47,62.81c3.88-0.37,20.4-1.72,25.23-2.03" id="Ske2dbugp2r" kvg:type="㇐a" transform="matrix(1,0,0,1,896,-4)" xmlns:kvg="http://kanjivg.tagaini.net"></path><path class="stroke_order_diagram--existing_path" d="M10.71,72.57c0.5,0.17,1.82,0.46,3.15,0.52c3.65,0.17,28.94-3.34,39.55-3.68c1.33-0.04,1.66,0.17,2.49,0.35" id="Ske2dbugp2s" kvg:type="㇐" transform="matrix(1,0,0,1,896,-4)" xmlns:kvg="http://kanjivg.tagaini.net"></path><path class="stroke_order_diagram--existing_path" d="M33.94,44.6c0.77,0.39,1.23,1.77,1.38,2.55c0.15,0.78,0,45.69-0.15,50.59" id="Ske2dbugp2t" kvg:type="㇑" transform="matrix(1,0,0,1,896,-4)" xmlns:kvg="http://kanjivg.tagaini.net"></path><path class="stroke_order_diagram--current_path" d="M34.97,71.94c-4.26,6.94-15.35,16.76-24.22,20.69" id="kvg:052e6-s10" kvg:type="㇒" transform="matrix(1,0,0,1,896,-4)" xmlns:kvg="http://kanjivg.tagaini.net"></path><path class="stroke_order_diagram--current_path" d="M34.97,71.94c-4.26,6.94-15.35,16.76-24.22,20.69" id="Ske2dbugp2v" kvg:type="㇒" transform="matrix(1,0,0,1,896,-4)" xmlns:kvg="http://kanjivg.tagaini.net"></path><circle class="stroke_order_diagram--path_start" cx="34.97" cy="71.94" r="4" transform="matrix(1,0,0,1,896,-4)"></circle><line class="stroke_order_diagram--guide_line" x1="1050" x2="1050" y1="1" y2="99"></line><line class="stroke_order_diagram--bounding_box" x1="1099" x2="1099" y1="1" y2="99"></line><path class="stroke_order_diagram--existing_path" d="M23.09,12.66c0.62,0.26,0.13,2.07-0.1,2.68c-1.51,3.95-2.74,6.41-6.44,11.11c-0.64,0.81-0.37,0.7,0,0.89c4.61,2.3,5.58,5.51,8,10.19" id="Ske2dbugp2y" kvg:type="㇛" transform="matrix(1,0,0,1,996,-4)" xmlns:kvg="http://kanjivg.tagaini.net"></path><path class="stroke_order_diagram--existing_path" d="M37.3,12.66c0.62,0.26,0.13,2.07-0.11,2.68c-1.51,3.95-3.45,6.57-7.44,10.11c-0.77,0.68-0.37,0.7,0,0.89c4.61,2.3,7.5,6.16,9.05,10.19" id="Ske2dbugp2z" kvg:type="㇛" transform="matrix(1,0,0,1,996,-4)" xmlns:kvg="http://kanjivg.tagaini.net"></path><path class="stroke_order_diagram--existing_path" d="M50.74,12.16c0.62,0.26,0.07,2.05-0.1,2.68c-0.89,3.16-3.14,6.41-6.44,9.63c-0.74,0.72-0.34,0.66,0,0.89c3.56,2.39,6.56,5.64,8,9.67" id="Ske2dbugp30" kvg:type="㇛" transform="matrix(1,0,0,1,996,-4)" xmlns:kvg="http://kanjivg.tagaini.net"></path><path class="stroke_order_diagram--existing_path" d="M17.38,42.18c0.47,0.51,1.14,1.13,1.14,1.82c0,0.69,3.21,19.02,3.21,19.37c0,0.35,0.08,0.35,0.17,1.04" id="Ske2dbugp31" kvg:type="㇑" transform="matrix(1,0,0,1,996,-4)" xmlns:kvg="http://kanjivg.tagaini.net"></path><path class="stroke_order_diagram--existing_path" d="M18.61,43.32c1.41-0.09,29.96-3.08,31.25-3.08c1.69,0.01,2.39,2.01,2.31,2.52C52,43.8,49.25,58.5,47.97,62.52" id="Ske2dbugp32" kvg:type="㇕a" transform="matrix(1,0,0,1,996,-4)" xmlns:kvg="http://kanjivg.tagaini.net"></path><path class="stroke_order_diagram--existing_path" d="M19.82,53.04c1.9,0,27.62-2.56,29.77-2.56" id="Ske2dbugp33" kvg:type="㇐a" transform="matrix(1,0,0,1,996,-4)" xmlns:kvg="http://kanjivg.tagaini.net"></path><path class="stroke_order_diagram--existing_path" d="M22.47,62.81c3.88-0.37,20.4-1.72,25.23-2.03" id="Ske2dbugp34" kvg:type="㇐a" transform="matrix(1,0,0,1,996,-4)" xmlns:kvg="http://kanjivg.tagaini.net"></path><path class="stroke_order_diagram--existing_path" d="M10.71,72.57c0.5,0.17,1.82,0.46,3.15,0.52c3.65,0.17,28.94-3.34,39.55-3.68c1.33-0.04,1.66,0.17,2.49,0.35" id="Ske2dbugp35" kvg:type="㇐" transform="matrix(1,0,0,1,996,-4)" xmlns:kvg="http://kanjivg.tagaini.net"></path><path class="stroke_order_diagram--existing_path" d="M33.94,44.6c0.77,0.39,1.23,1.77,1.38,2.55c0.15,0.78,0,45.69-0.15,50.59" id="Ske2dbugp36" kvg:type="㇑" transform="matrix(1,0,0,1,996,-4)" xmlns:kvg="http://kanjivg.tagaini.net"></path><path class="stroke_order_diagram--existing_path" d="M34.97,71.94c-4.26,6.94-15.35,16.76-24.22,20.69" id="Ske2dbugp37" kvg:type="㇒" transform="matrix(1,0,0,1,996,-4)" xmlns:kvg="http://kanjivg.tagaini.net"></path><path class="stroke_order_diagram--current_path" d="M37.82,76.24c4.83,1.61,11.6,6.44,13.87,10.12" id="kvg:052e6-s11" kvg:type="㇔/㇏" transform="matrix(1,0,0,1,996,-4)" xmlns:kvg="http://kanjivg.tagaini.net"></path><path class="stroke_order_diagram--current_path" d="M37.82,76.24c4.83,1.61,11.6,6.44,13.87,10.12" id="Ske2dbugp39" kvg:type="㇔/㇏" transform="matrix(1,0,0,1,996,-4)" xmlns:kvg="http://kanjivg.tagaini.net"></path><circle class="stroke_order_diagram--path_start" cx="37.82" cy="76.24" r="4" transform="matrix(1,0,0,1,996,-4)"></circle><line class="stroke_order_diagram--guide_line" x1="1150" x2="1150" y1="1" y2="99"></line><line class="stroke_order_diagram--bounding_box" x1="1199" x2="1199" y1="1" y2="99"></line><path class="stroke_order_diagram--existing_path" d="M23.09,12.66c0.62,0.26,0.13,2.07-0.1,2.68c-1.51,3.95-2.74,6.41-6.44,11.11c-0.64,0.81-0.37,0.7,0,0.89c4.61,2.3,5.58,5.51,8,10.19" id="Ske2dbugp3c" kvg:type="㇛" transform="matrix(1,0,0,1,1096,-4)" xmlns:kvg="http://kanjivg.tagaini.net"></path><path class="stroke_order_diagram--existing_path" d="M37.3,12.66c0.62,0.26,0.13,2.07-0.11,2.68c-1.51,3.95-3.45,6.57-7.44,10.11c-0.77,0.68-0.37,0.7,0,0.89c4.61,2.3,7.5,6.16,9.05,10.19" id="Ske2dbugp3d" kvg:type="㇛" transform="matrix(1,0,0,1,1096,-4)" xmlns:kvg="http://kanjivg.tagaini.net"></path><path class="stroke_order_diagram--existing_path" d="M50.74,12.16c0.62,0.26,0.07,2.05-0.1,2.68c-0.89,3.16-3.14,6.41-6.44,9.63c-0.74,0.72-0.34,0.66,0,0.89c3.56,2.39,6.56,5.64,8,9.67" id="Ske2dbugp3e" kvg:type="㇛" transform="matrix(1,0,0,1,1096,-4)" xmlns:kvg="http://kanjivg.tagaini.net"></path><path class="stroke_order_diagram--existing_path" d="M17.38,42.18c0.47,0.51,1.14,1.13,1.14,1.82c0,0.69,3.21,19.02,3.21,19.37c0,0.35,0.08,0.35,0.17,1.04" id="Ske2dbugp3f" kvg:type="㇑" transform="matrix(1,0,0,1,1096,-4)" xmlns:kvg="http://kanjivg.tagaini.net"></path><path class="stroke_order_diagram--existing_path" d="M18.61,43.32c1.41-0.09,29.96-3.08,31.25-3.08c1.69,0.01,2.39,2.01,2.31,2.52C52,43.8,49.25,58.5,47.97,62.52" id="Ske2dbugp3g" kvg:type="㇕a" transform="matrix(1,0,0,1,1096,-4)" xmlns:kvg="http://kanjivg.tagaini.net"></path><path class="stroke_order_diagram--existing_path" d="M19.82,53.04c1.9,0,27.62-2.56,29.77-2.56" id="Ske2dbugp3h" kvg:type="㇐a" transform="matrix(1,0,0,1,1096,-4)" xmlns:kvg="http://kanjivg.tagaini.net"></path><path class="stroke_order_diagram--existing_path" d="M22.47,62.81c3.88-0.37,20.4-1.72,25.23-2.03" id="Ske2dbugp3i" kvg:type="㇐a" transform="matrix(1,0,0,1,1096,-4)" xmlns:kvg="http://kanjivg.tagaini.net"></path><path class="stroke_order_diagram--existing_path" d="M10.71,72.57c0.5,0.17,1.82,0.46,3.15,0.52c3.65,0.17,28.94-3.34,39.55-3.68c1.33-0.04,1.66,0.17,2.49,0.35" id="Ske2dbugp3j" kvg:type="㇐" transform="matrix(1,0,0,1,1096,-4)" xmlns:kvg="http://kanjivg.tagaini.net"></path><path class="stroke_order_diagram--existing_path" d="M33.94,44.6c0.77,0.39,1.23,1.77,1.38,2.55c0.15,0.78,0,45.69-0.15,50.59" id="Ske2dbugp3k" kvg:type="㇑" transform="matrix(1,0,0,1,1096,-4)" xmlns:kvg="http://kanjivg.tagaini.net"></path><path class="stroke_order_diagram--existing_path" d="M34.97,71.94c-4.26,6.94-15.35,16.76-24.22,20.69" id="Ske2dbugp3l" kvg:type="㇒" transform="matrix(1,0,0,1,1096,-4)" xmlns:kvg="http://kanjivg.tagaini.net"></path><path class="stroke_order_diagram--existing_path" d="M37.82,76.24c4.83,1.61,11.6,6.44,13.87,10.12" id="Ske2dbugp3m" kvg:type="㇔/㇏" transform="matrix(1,0,0,1,1096,-4)" xmlns:kvg="http://kanjivg.tagaini.net"></path><path class="stroke_order_diagram--current_path" d="M58.41,36.97c1.07,0.68,2.4,0.44,3.36,0.36c7.73-0.58,23.93-3.34,28.21-3.59c4.27-0.24,4.6,2.04,4.37,5.19C93.25,53.75,88,77.25,80.3,91.53c-3.55,6.59-6.23,0.31-7.34-0.68" id="kvg:052e6-s12" kvg:type="㇆" transform="matrix(1,0,0,1,1096,-4)" xmlns:kvg="http://kanjivg.tagaini.net"></path><path class="stroke_order_diagram--current_path" d="M58.41,36.97c1.07,0.68,2.4,0.44,3.36,0.36c7.73-0.58,23.93-3.34,28.21-3.59c4.27-0.24,4.6,2.04,4.37,5.19C93.25,53.75,88,77.25,80.3,91.53c-3.55,6.59-6.23,0.31-7.34-0.68" id="Ske2dbugp3o" kvg:type="㇆" transform="matrix(1,0,0,1,1096,-4)" xmlns:kvg="http://kanjivg.tagaini.net"></path><circle class="stroke_order_diagram--path_start" cx="58.41" cy="36.97" r="4" transform="matrix(1,0,0,1,1096,-4)"></circle><line class="stroke_order_diagram--guide_line" x1="1250" x2="1250" y1="1" y2="99"></line><line class="stroke_order_diagram--bounding_box" x1="1299" x2="1299" y1="1" y2="99"></line><path class="stroke_order_diagram--existing_path" d="M23.09,12.66c0.62,0.26,0.13,2.07-0.1,2.68c-1.51,3.95-2.74,6.41-6.44,11.11c-0.64,0.81-0.37,0.7,0,0.89c4.61,2.3,5.58,5.51,8,10.19" id="Ske2dbugp3r" kvg:type="㇛" transform="matrix(1,0,0,1,1196,-4)" xmlns:kvg="http://kanjivg.tagaini.net"></path><path class="stroke_order_diagram--existing_path" d="M37.3,12.66c0.62,0.26,0.13,2.07-0.11,2.68c-1.51,3.95-3.45,6.57-7.44,10.11c-0.77,0.68-0.37,0.7,0,0.89c4.61,2.3,7.5,6.16,9.05,10.19" id="Ske2dbugp3s" kvg:type="㇛" transform="matrix(1,0,0,1,1196,-4)" xmlns:kvg="http://kanjivg.tagaini.net"></path><path class="stroke_order_diagram--existing_path" d="M50.74,12.16c0.62,0.26,0.07,2.05-0.1,2.68c-0.89,3.16-3.14,6.41-6.44,9.63c-0.74,0.72-0.34,0.66,0,0.89c3.56,2.39,6.56,5.64,8,9.67" id="Ske2dbugp3t" kvg:type="㇛" transform="matrix(1,0,0,1,1196,-4)" xmlns:kvg="http://kanjivg.tagaini.net"></path><path class="stroke_order_diagram--existing_path" d="M17.38,42.18c0.47,0.51,1.14,1.13,1.14,1.82c0,0.69,3.21,19.02,3.21,19.37c0,0.35,0.08,0.35,0.17,1.04" id="Ske2dbugp3u" kvg:type="㇑" transform="matrix(1,0,0,1,1196,-4)" xmlns:kvg="http://kanjivg.tagaini.net"></path><path class="stroke_order_diagram--existing_path" d="M18.61,43.32c1.41-0.09,29.96-3.08,31.25-3.08c1.69,0.01,2.39,2.01,2.31,2.52C52,43.8,49.25,58.5,47.97,62.52" id="Ske2dbugp3v" kvg:type="㇕a" transform="matrix(1,0,0,1,1196,-4)" xmlns:kvg="http://kanjivg.tagaini.net"></path><path class="stroke_order_diagram--existing_path" d="M19.82,53.04c1.9,0,27.62-2.56,29.77-2.56" id="Ske2dbugp3w" kvg:type="㇐a" transform="matrix(1,0,0,1,1196,-4)" xmlns:kvg="http://kanjivg.tagaini.net"></path><path class="stroke_order_diagram--existing_path" d="M22.47,62.81c3.88-0.37,20.4-1.72,25.23-2.03" id="Ske2dbugp3x" kvg:type="㇐a" transform="matrix(1,0,0,1,1196,-4)" xmlns:kvg="http://kanjivg.tagaini.net"></path><path class="stroke_order_diagram--existing_path" d="M10.71,72.57c0.5,0.17,1.82,0.46,3.15,0.52c3.65,0.17,28.94-3.34,39.55-3.68c1.33-0.04,1.66,0.17,2.49,0.35" id="Ske2dbugp3y" kvg:type="㇐" transform="matrix(1,0,0,1,1196,-4)" xmlns:kvg="http://kanjivg.tagaini.net"></path><path class="stroke_order_diagram--existing_path" d="M33.94,44.6c0.77,0.39,1.23,1.77,1.38,2.55c0.15,0.78,0,45.69-0.15,50.59" id="Ske2dbugp3z" kvg:type="㇑" transform="matrix(1,0,0,1,1196,-4)" xmlns:kvg="http://kanjivg.tagaini.net"></path><path class="stroke_order_diagram--existing_path" d="M34.97,71.94c-4.26,6.94-15.35,16.76-24.22,20.69" id="Ske2dbugp40" kvg:type="㇒" transform="matrix(1,0,0,1,1196,-4)" xmlns:kvg="http://kanjivg.tagaini.net"></path><path class="stroke_order_diagram--existing_path" d="M37.82,76.24c4.83,1.61,11.6,6.44,13.87,10.12" id="Ske2dbugp41" kvg:type="㇔/㇏" transform="matrix(1,0,0,1,1196,-4)" xmlns:kvg="http://kanjivg.tagaini.net"></path><path class="stroke_order_diagram--existing_path" d="M58.41,36.97c1.07,0.68,2.4,0.44,3.36,0.36c7.73-0.58,23.93-3.34,28.21-3.59c4.27-0.24,4.6,2.04,4.37,5.19C93.25,53.75,88,77.25,80.3,91.53c-3.55,6.59-6.23,0.31-7.34-0.68" id="Ske2dbugp42" kvg:type="㇆" transform="matrix(1,0,0,1,1196,-4)" xmlns:kvg="http://kanjivg.tagaini.net"></path><path class="stroke_order_diagram--current_path" d="M77.43,14.18c0.82,1.08,1.18,2.12,0.86,4.69c-2.38,18.97-8.79,58.39-25.9,74.79" id="kvg:052e6-s13" kvg:type="㇒" transform="matrix(1,0,0,1,1196,-4)" xmlns:kvg="http://kanjivg.tagaini.net"></path><path class="stroke_order_diagram--current_path" d="M77.43,14.18c0.82,1.08,1.18,2.12,0.86,4.69c-2.38,18.97-8.79,58.39-25.9,74.79" id="Ske2dbugp44" kvg:type="㇒" transform="matrix(1,0,0,1,1196,-4)" xmlns:kvg="http://kanjivg.tagaini.net"></path><circle class="stroke_order_diagram--path_start" cx="77.43" cy="14.18" r="4" transform="matrix(1,0,0,1,1196,-4)"></circle></svg>