<svg class="stroke_order_diagram--svg_container_for_51866285d5dda79658000527" style="height: 100px; width: 400px;" viewbox="0 0 400 100"><desc>Created with Snap</desc><defs></defs><line class="stroke_order_diagram--bounding_box" x1="1" x2="399" y1="1" y2="1"></line><line class="stroke_order_diagram--bounding_box" x1="1" x2="1" y1="1" y2="99"></line><line class="stroke_order_diagram--bounding_box" x1="1" x2="399" y1="99" y2="99"></line><line class="stroke_order_diagram--guide_line" x1="0" x2="400" y1="50" y2="50"></line><line class="stroke_order_diagram--guide_line" x1="50" x2="50" y1="1" y2="99"></line><line class="stroke_order_diagram--bounding_box" x1="99" x2="99" y1="1" y2="99"></line><path class="stroke_order_diagram--current_path" d="M45.8,13.25c-0.17,1.75-0.64,2.71-1.91,3.87C38.25,22.25,29.75,28,19.75,32.29" id="kvg:05347-s1" kvg:type="㇒" transform="matrix(1,0,0,1,-4,-4)" xmlns:kvg="http://kanjivg.tagaini.net"></path><path class="stroke_order_diagram--current_path" d="M45.8,13.25c-0.17,1.75-0.64,2.71-1.91,3.87C38.25,22.25,29.75,28,19.75,32.29" id="Ske1xw1v8d" kvg:type="㇒" transform="matrix(1,0,0,1,-4,-4)" xmlns:kvg="http://kanjivg.tagaini.net"></path><circle class="stroke_order_diagram--path_start" cx="45.8" cy="13.25" r="4" transform="matrix(1,0,0,1,-4,-4)"></circle><line class="stroke_order_diagram--guide_line" x1="150" x2="150" y1="1" y2="99"></line><line class="stroke_order_diagram--bounding_box" x1="199" x2="199" y1="1" y2="99"></line><path class="stroke_order_diagram--existing_path" d="M45.8,13.25c-0.17,1.75-0.64,2.71-1.91,3.87C38.25,22.25,29.75,28,19.75,32.29" id="Ske1xw1v8g" kvg:type="㇒" transform="matrix(1,0,0,1,96,-4)" xmlns:kvg="http://kanjivg.tagaini.net"></path><path class="stroke_order_diagram--current_path" d="M39.61,26c1.01,1.01,1.51,2.17,1.59,4.43C42,53.25,40,77.5,21.5,92.5" id="kvg:05347-s2" kvg:type="㇒" transform="matrix(1,0,0,1,96,-4)" xmlns:kvg="http://kanjivg.tagaini.net"></path><path class="stroke_order_diagram--current_path" d="M39.61,26c1.01,1.01,1.51,2.17,1.59,4.43C42,53.25,40,77.5,21.5,92.5" id="Ske1xw1v8i" kvg:type="㇒" transform="matrix(1,0,0,1,96,-4)" xmlns:kvg="http://kanjivg.tagaini.net"></path><circle class="stroke_order_diagram--path_start" cx="39.61" cy="26" r="4" transform="matrix(1,0,0,1,96,-4)"></circle><line class="stroke_order_diagram--guide_line" x1="250" x2="250" y1="1" y2="99"></line><line class="stroke_order_diagram--bounding_box" x1="299" x2="299" y1="1" y2="99"></line><path class="stroke_order_diagram--existing_path" d="M45.8,13.25c-0.17,1.75-0.64,2.71-1.91,3.87C38.25,22.25,29.75,28,19.75,32.29" id="Ske1xw1v8l" kvg:type="㇒" transform="matrix(1,0,0,1,196,-4)" xmlns:kvg="http://kanjivg.tagaini.net"></path><path class="stroke_order_diagram--existing_path" d="M39.61,26c1.01,1.01,1.51,2.17,1.59,4.43C42,53.25,40,77.5,21.5,92.5" id="Ske1xw1v8m" kvg:type="㇒" transform="matrix(1,0,0,1,196,-4)" xmlns:kvg="http://kanjivg.tagaini.net"></path><path class="stroke_order_diagram--current_path" d="M12.88,52.73c4.12,0.77,8.17,0.52,11.65,0.02C43.75,50,65,46.25,85.51,44.35c4.36-0.4,8.12-0.35,11.37,0.22" id="kvg:05347-s3" kvg:type="㇐" transform="matrix(1,0,0,1,196,-4)" xmlns:kvg="http://kanjivg.tagaini.net"></path><path class="stroke_order_diagram--current_path" d="M12.88,52.73c4.12,0.77,8.17,0.52,11.65,0.02C43.75,50,65,46.25,85.51,44.35c4.36-0.4,8.12-0.35,11.37,0.22" id="Ske1xw1v8o" kvg:type="㇐" transform="matrix(1,0,0,1,196,-4)" xmlns:kvg="http://kanjivg.tagaini.net"></path><circle class="stroke_order_diagram--path_start" cx="12.88" cy="52.73" r="4" transform="matrix(1,0,0,1,196,-4)"></circle><line class="stroke_order_diagram--guide_line" x1="350" x2="350" y1="1" y2="99"></line><line class="stroke_order_diagram--bounding_box" x1="399" x2="399" y1="1" y2="99"></line><path class="stroke_order_diagram--existing_path" d="M45.8,13.25c-0.17,1.75-0.64,2.71-1.91,3.87C38.25,22.25,29.75,28,19.75,32.29" id="Ske1xw1v8r" kvg:type="㇒" transform="matrix(1,0,0,1,296,-4)" xmlns:kvg="http://kanjivg.tagaini.net"></path><path class="stroke_order_diagram--existing_path" d="M39.61,26c1.01,1.01,1.51,2.17,1.59,4.43C42,53.25,40,77.5,21.5,92.5" id="Ske1xw1v8s" kvg:type="㇒" transform="matrix(1,0,0,1,296,-4)" xmlns:kvg="http://kanjivg.tagaini.net"></path><path class="stroke_order_diagram--existing_path" d="M12.88,52.73c4.12,0.77,8.17,0.52,11.65,0.02C43.75,50,65,46.25,85.51,44.35c4.36-0.4,8.12-0.35,11.37,0.22" id="Ske1xw1v8t" kvg:type="㇐" transform="matrix(1,0,0,1,296,-4)" xmlns:kvg="http://kanjivg.tagaini.net"></path><path class="stroke_order_diagram--current_path" d="M67.12,12c1.44,1.44,1.71,3.5,1.71,5.5c0,8.66-0.06,50.24-0.08,74.5c0,3.06,0,5.84,0,8.25" id="kvg:05347-s4" kvg:type="㇑" transform="matrix(1,0,0,1,296,-4)" xmlns:kvg="http://kanjivg.tagaini.net"></path><path class="stroke_order_diagram--current_path" d="M67.12,12c1.44,1.44,1.71,3.5,1.71,5.5c0,8.66-0.06,50.24-0.08,74.5c0,3.06,0,5.84,0,8.25" id="Ske1xw1v8v" kvg:type="㇑" transform="matrix(1,0,0,1,296,-4)" xmlns:kvg="http://kanjivg.tagaini.net"></path><circle class="stroke_order_diagram--path_start" cx="67.12" cy="12" r="4" transform="matrix(1,0,0,1,296,-4)"></circle></svg>