<svg class="stroke_order_diagram--svg_container_for_518662a0d5dda79658000c82" style="height: 100px; width: 1400px;" viewbox="0 0 1400 100"><desc>Created with Snap</desc><defs></defs><line class="stroke_order_diagram--bounding_box" x1="1" x2="1399" y1="1" y2="1"></line><line class="stroke_order_diagram--bounding_box" x1="1" x2="1" y1="1" y2="99"></line><line class="stroke_order_diagram--bounding_box" x1="1" x2="1399" y1="99" y2="99"></line><line class="stroke_order_diagram--guide_line" x1="0" x2="1400" y1="50" y2="50"></line><line class="stroke_order_diagram--guide_line" x1="50" x2="50" y1="1" y2="99"></line><line class="stroke_order_diagram--bounding_box" x1="99" x2="99" y1="1" y2="99"></line><path class="stroke_order_diagram--current_path" d="M19.63,18.73c1.52,0.54,4.3,0.63,5.82,0.54c15.8-0.91,45.3-3.52,60.61-4.23c2.53-0.12,4.05,0.26,5.31,0.53" id="kvg:053ae-s1" kvg:type="㇐" transform="matrix(1,0,0,1,-4,-4)" xmlns:kvg="http://kanjivg.tagaini.net"></path><path class="stroke_order_diagram--current_path" d="M19.63,18.73c1.52,0.54,4.3,0.63,5.82,0.54c15.8-0.91,45.3-3.52,60.61-4.23c2.53-0.12,4.05,0.26,5.31,0.53" id="Ske2dmveln" kvg:type="㇐" transform="matrix(1,0,0,1,-4,-4)" xmlns:kvg="http://kanjivg.tagaini.net"></path><circle class="stroke_order_diagram--path_start" cx="19.63" cy="18.73" r="4" transform="matrix(1,0,0,1,-4,-4)"></circle><line class="stroke_order_diagram--guide_line" x1="150" x2="150" y1="1" y2="99"></line><line class="stroke_order_diagram--bounding_box" x1="199" x2="199" y1="1" y2="99"></line><path class="stroke_order_diagram--existing_path" d="M19.63,18.73c1.52,0.54,4.3,0.63,5.82,0.54c15.8-0.91,45.3-3.52,60.61-4.23c2.53-0.12,4.05,0.26,5.31,0.53" id="Ske2dmvelq" kvg:type="㇐" transform="matrix(1,0,0,1,96,-4)" xmlns:kvg="http://kanjivg.tagaini.net"></path><path class="stroke_order_diagram--current_path" d="M23.5,19.5c0.5,1.5,0.51,1.9,0.43,4.36C23.25,43.5,21.5,74.75,10.81,91.47" id="kvg:053ae-s2" kvg:type="㇒" transform="matrix(1,0,0,1,96,-4)" xmlns:kvg="http://kanjivg.tagaini.net"></path><path class="stroke_order_diagram--current_path" d="M23.5,19.5c0.5,1.5,0.51,1.9,0.43,4.36C23.25,43.5,21.5,74.75,10.81,91.47" id="Ske2dmvels" kvg:type="㇒" transform="matrix(1,0,0,1,96,-4)" xmlns:kvg="http://kanjivg.tagaini.net"></path><circle class="stroke_order_diagram--path_start" cx="23.5" cy="19.5" r="4" transform="matrix(1,0,0,1,96,-4)"></circle><line class="stroke_order_diagram--guide_line" x1="250" x2="250" y1="1" y2="99"></line><line class="stroke_order_diagram--bounding_box" x1="299" x2="299" y1="1" y2="99"></line><path class="stroke_order_diagram--existing_path" d="M19.63,18.73c1.52,0.54,4.3,0.63,5.82,0.54c15.8-0.91,45.3-3.52,60.61-4.23c2.53-0.12,4.05,0.26,5.31,0.53" id="Ske2dmvelv" kvg:type="㇐" transform="matrix(1,0,0,1,196,-4)" xmlns:kvg="http://kanjivg.tagaini.net"></path><path class="stroke_order_diagram--existing_path" d="M23.5,19.5c0.5,1.5,0.51,1.9,0.43,4.36C23.25,43.5,21.5,74.75,10.81,91.47" id="Ske2dmvelw" kvg:type="㇒" transform="matrix(1,0,0,1,196,-4)" xmlns:kvg="http://kanjivg.tagaini.net"></path><path class="stroke_order_diagram--current_path" d="M27.21,38.92c1.23,0.15,3.29,0.85,3.88,0.79c5.32-0.64,18.79-2.47,25.32-3.01c0.96-0.08,2.42,0.15,2.9,0.31" id="kvg:053ae-s3" kvg:type="㇐" transform="matrix(1,0,0,1,196,-4)" xmlns:kvg="http://kanjivg.tagaini.net"></path><path class="stroke_order_diagram--current_path" d="M27.21,38.92c1.23,0.15,3.29,0.85,3.88,0.79c5.32-0.64,18.79-2.47,25.32-3.01c0.96-0.08,2.42,0.15,2.9,0.31" id="Ske2dmvely" kvg:type="㇐" transform="matrix(1,0,0,1,196,-4)" xmlns:kvg="http://kanjivg.tagaini.net"></path><circle class="stroke_order_diagram--path_start" cx="27.21" cy="38.92" r="4" transform="matrix(1,0,0,1,196,-4)"></circle><line class="stroke_order_diagram--guide_line" x1="350" x2="350" y1="1" y2="99"></line><line class="stroke_order_diagram--bounding_box" x1="399" x2="399" y1="1" y2="99"></line><path class="stroke_order_diagram--existing_path" d="M19.63,18.73c1.52,0.54,4.3,0.63,5.82,0.54c15.8-0.91,45.3-3.52,60.61-4.23c2.53-0.12,4.05,0.26,5.31,0.53" id="Ske2dmvel11" kvg:type="㇐" transform="matrix(1,0,0,1,296,-4)" xmlns:kvg="http://kanjivg.tagaini.net"></path><path class="stroke_order_diagram--existing_path" d="M23.5,19.5c0.5,1.5,0.51,1.9,0.43,4.36C23.25,43.5,21.5,74.75,10.81,91.47" id="Ske2dmvel12" kvg:type="㇒" transform="matrix(1,0,0,1,296,-4)" xmlns:kvg="http://kanjivg.tagaini.net"></path><path class="stroke_order_diagram--existing_path" d="M27.21,38.92c1.23,0.15,3.29,0.85,3.88,0.79c5.32-0.64,18.79-2.47,25.32-3.01c0.96-0.08,2.42,0.15,2.9,0.31" id="Ske2dmvel13" kvg:type="㇐" transform="matrix(1,0,0,1,296,-4)" xmlns:kvg="http://kanjivg.tagaini.net"></path><path class="stroke_order_diagram--current_path" d="M34.7,27.85c0.67,0.45,1.07,2.01,1.2,2.91c0.13,0.89,0,37.94-0.13,43.52" id="kvg:053ae-s4" kvg:type="㇑a" transform="matrix(1,0,0,1,296,-4)" xmlns:kvg="http://kanjivg.tagaini.net"></path><path class="stroke_order_diagram--current_path" d="M34.7,27.85c0.67,0.45,1.07,2.01,1.2,2.91c0.13,0.89,0,37.94-0.13,43.52" id="Ske2dmvel15" kvg:type="㇑a" transform="matrix(1,0,0,1,296,-4)" xmlns:kvg="http://kanjivg.tagaini.net"></path><circle class="stroke_order_diagram--path_start" cx="34.7" cy="27.85" r="4" transform="matrix(1,0,0,1,296,-4)"></circle><line class="stroke_order_diagram--guide_line" x1="450" x2="450" y1="1" y2="99"></line><line class="stroke_order_diagram--bounding_box" x1="499" x2="499" y1="1" y2="99"></line><path class="stroke_order_diagram--existing_path" d="M19.63,18.73c1.52,0.54,4.3,0.63,5.82,0.54c15.8-0.91,45.3-3.52,60.61-4.23c2.53-0.12,4.05,0.26,5.31,0.53" id="Ske2dmvel18" kvg:type="㇐" transform="matrix(1,0,0,1,396,-4)" xmlns:kvg="http://kanjivg.tagaini.net"></path><path class="stroke_order_diagram--existing_path" d="M23.5,19.5c0.5,1.5,0.51,1.9,0.43,4.36C23.25,43.5,21.5,74.75,10.81,91.47" id="Ske2dmvel19" kvg:type="㇒" transform="matrix(1,0,0,1,396,-4)" xmlns:kvg="http://kanjivg.tagaini.net"></path><path class="stroke_order_diagram--existing_path" d="M27.21,38.92c1.23,0.15,3.29,0.85,3.88,0.79c5.32-0.64,18.79-2.47,25.32-3.01c0.96-0.08,2.42,0.15,2.9,0.31" id="Ske2dmvel1a" kvg:type="㇐" transform="matrix(1,0,0,1,396,-4)" xmlns:kvg="http://kanjivg.tagaini.net"></path><path class="stroke_order_diagram--existing_path" d="M34.7,27.85c0.67,0.45,1.07,2.01,1.2,2.91c0.13,0.89,0,37.94-0.13,43.52" id="Ske2dmvel1b" kvg:type="㇑a" transform="matrix(1,0,0,1,396,-4)" xmlns:kvg="http://kanjivg.tagaini.net"></path><path class="stroke_order_diagram--current_path" d="M50.79,25.25c0.67,0.45,1.07,2.01,1.2,2.91c0.13,0.89,0,39.68-0.13,45.27" id="kvg:053ae-s5" kvg:type="㇑a" transform="matrix(1,0,0,1,396,-4)" xmlns:kvg="http://kanjivg.tagaini.net"></path><path class="stroke_order_diagram--current_path" d="M50.79,25.25c0.67,0.45,1.07,2.01,1.2,2.91c0.13,0.89,0,39.68-0.13,45.27" id="Ske2dmvel1d" kvg:type="㇑a" transform="matrix(1,0,0,1,396,-4)" xmlns:kvg="http://kanjivg.tagaini.net"></path><circle class="stroke_order_diagram--path_start" cx="50.79" cy="25.25" r="4" transform="matrix(1,0,0,1,396,-4)"></circle><line class="stroke_order_diagram--guide_line" x1="550" x2="550" y1="1" y2="99"></line><line class="stroke_order_diagram--bounding_box" x1="599" x2="599" y1="1" y2="99"></line><path class="stroke_order_diagram--existing_path" d="M19.63,18.73c1.52,0.54,4.3,0.63,5.82,0.54c15.8-0.91,45.3-3.52,60.61-4.23c2.53-0.12,4.05,0.26,5.31,0.53" id="Ske2dmvel1g" kvg:type="㇐" transform="matrix(1,0,0,1,496,-4)" xmlns:kvg="http://kanjivg.tagaini.net"></path><path class="stroke_order_diagram--existing_path" d="M23.5,19.5c0.5,1.5,0.51,1.9,0.43,4.36C23.25,43.5,21.5,74.75,10.81,91.47" id="Ske2dmvel1h" kvg:type="㇒" transform="matrix(1,0,0,1,496,-4)" xmlns:kvg="http://kanjivg.tagaini.net"></path><path class="stroke_order_diagram--existing_path" d="M27.21,38.92c1.23,0.15,3.29,0.85,3.88,0.79c5.32-0.64,18.79-2.47,25.32-3.01c0.96-0.08,2.42,0.15,2.9,0.31" id="Ske2dmvel1i" kvg:type="㇐" transform="matrix(1,0,0,1,496,-4)" xmlns:kvg="http://kanjivg.tagaini.net"></path><path class="stroke_order_diagram--existing_path" d="M34.7,27.85c0.67,0.45,1.07,2.01,1.2,2.91c0.13,0.89,0,37.94-0.13,43.52" id="Ske2dmvel1j" kvg:type="㇑a" transform="matrix(1,0,0,1,496,-4)" xmlns:kvg="http://kanjivg.tagaini.net"></path><path class="stroke_order_diagram--existing_path" d="M50.79,25.25c0.67,0.45,1.07,2.01,1.2,2.91c0.13,0.89,0,39.68-0.13,45.27" id="Ske2dmvel1k" kvg:type="㇑a" transform="matrix(1,0,0,1,496,-4)" xmlns:kvg="http://kanjivg.tagaini.net"></path><path class="stroke_order_diagram--current_path" d="M36.66,51.1c2.46-0.22,12.67-1.77,14.97-1.99" id="kvg:053ae-s6" kvg:type="㇐a" transform="matrix(1,0,0,1,496,-4)" xmlns:kvg="http://kanjivg.tagaini.net"></path><path class="stroke_order_diagram--current_path" d="M36.66,51.1c2.46-0.22,12.67-1.77,14.97-1.99" id="Ske2dmvel1m" kvg:type="㇐a" transform="matrix(1,0,0,1,496,-4)" xmlns:kvg="http://kanjivg.tagaini.net"></path><circle class="stroke_order_diagram--path_start" cx="36.66" cy="51.1" r="4" transform="matrix(1,0,0,1,496,-4)"></circle><line class="stroke_order_diagram--guide_line" x1="650" x2="650" y1="1" y2="99"></line><line class="stroke_order_diagram--bounding_box" x1="699" x2="699" y1="1" y2="99"></line><path class="stroke_order_diagram--existing_path" d="M19.63,18.73c1.52,0.54,4.3,0.63,5.82,0.54c15.8-0.91,45.3-3.52,60.61-4.23c2.53-0.12,4.05,0.26,5.31,0.53" id="Ske2dmvel1p" kvg:type="㇐" transform="matrix(1,0,0,1,596,-4)" xmlns:kvg="http://kanjivg.tagaini.net"></path><path class="stroke_order_diagram--existing_path" d="M23.5,19.5c0.5,1.5,0.51,1.9,0.43,4.36C23.25,43.5,21.5,74.75,10.81,91.47" id="Ske2dmvel1q" kvg:type="㇒" transform="matrix(1,0,0,1,596,-4)" xmlns:kvg="http://kanjivg.tagaini.net"></path><path class="stroke_order_diagram--existing_path" d="M27.21,38.92c1.23,0.15,3.29,0.85,3.88,0.79c5.32-0.64,18.79-2.47,25.32-3.01c0.96-0.08,2.42,0.15,2.9,0.31" id="Ske2dmvel1r" kvg:type="㇐" transform="matrix(1,0,0,1,596,-4)" xmlns:kvg="http://kanjivg.tagaini.net"></path><path class="stroke_order_diagram--existing_path" d="M34.7,27.85c0.67,0.45,1.07,2.01,1.2,2.91c0.13,0.89,0,37.94-0.13,43.52" id="Ske2dmvel1s" kvg:type="㇑a" transform="matrix(1,0,0,1,596,-4)" xmlns:kvg="http://kanjivg.tagaini.net"></path><path class="stroke_order_diagram--existing_path" d="M50.79,25.25c0.67,0.45,1.07,2.01,1.2,2.91c0.13,0.89,0,39.68-0.13,45.27" id="Ske2dmvel1t" kvg:type="㇑a" transform="matrix(1,0,0,1,596,-4)" xmlns:kvg="http://kanjivg.tagaini.net"></path><path class="stroke_order_diagram--existing_path" d="M36.66,51.1c2.46-0.22,12.67-1.77,14.97-1.99" id="Ske2dmvel1u" kvg:type="㇐a" transform="matrix(1,0,0,1,596,-4)" xmlns:kvg="http://kanjivg.tagaini.net"></path><path class="stroke_order_diagram--current_path" d="M36.51,62.72c2.77-0.22,11.75-1.54,14.98-1.99" id="kvg:053ae-s7" kvg:type="㇐a" transform="matrix(1,0,0,1,596,-4)" xmlns:kvg="http://kanjivg.tagaini.net"></path><path class="stroke_order_diagram--current_path" d="M36.51,62.72c2.77-0.22,11.75-1.54,14.98-1.99" id="Ske2dmvel1w" kvg:type="㇐a" transform="matrix(1,0,0,1,596,-4)" xmlns:kvg="http://kanjivg.tagaini.net"></path><circle class="stroke_order_diagram--path_start" cx="36.51" cy="62.72" r="4" transform="matrix(1,0,0,1,596,-4)"></circle><line class="stroke_order_diagram--guide_line" x1="750" x2="750" y1="1" y2="99"></line><line class="stroke_order_diagram--bounding_box" x1="799" x2="799" y1="1" y2="99"></line><path class="stroke_order_diagram--existing_path" d="M19.63,18.73c1.52,0.54,4.3,0.63,5.82,0.54c15.8-0.91,45.3-3.52,60.61-4.23c2.53-0.12,4.05,0.26,5.31,0.53" id="Ske2dmvel1z" kvg:type="㇐" transform="matrix(1,0,0,1,696,-4)" xmlns:kvg="http://kanjivg.tagaini.net"></path><path class="stroke_order_diagram--existing_path" d="M23.5,19.5c0.5,1.5,0.51,1.9,0.43,4.36C23.25,43.5,21.5,74.75,10.81,91.47" id="Ske2dmvel20" kvg:type="㇒" transform="matrix(1,0,0,1,696,-4)" xmlns:kvg="http://kanjivg.tagaini.net"></path><path class="stroke_order_diagram--existing_path" d="M27.21,38.92c1.23,0.15,3.29,0.85,3.88,0.79c5.32-0.64,18.79-2.47,25.32-3.01c0.96-0.08,2.42,0.15,2.9,0.31" id="Ske2dmvel21" kvg:type="㇐" transform="matrix(1,0,0,1,696,-4)" xmlns:kvg="http://kanjivg.tagaini.net"></path><path class="stroke_order_diagram--existing_path" d="M34.7,27.85c0.67,0.45,1.07,2.01,1.2,2.91c0.13,0.89,0,37.94-0.13,43.52" id="Ske2dmvel22" kvg:type="㇑a" transform="matrix(1,0,0,1,696,-4)" xmlns:kvg="http://kanjivg.tagaini.net"></path><path class="stroke_order_diagram--existing_path" d="M50.79,25.25c0.67,0.45,1.07,2.01,1.2,2.91c0.13,0.89,0,39.68-0.13,45.27" id="Ske2dmvel23" kvg:type="㇑a" transform="matrix(1,0,0,1,696,-4)" xmlns:kvg="http://kanjivg.tagaini.net"></path><path class="stroke_order_diagram--existing_path" d="M36.66,51.1c2.46-0.22,12.67-1.77,14.97-1.99" id="Ske2dmvel24" kvg:type="㇐a" transform="matrix(1,0,0,1,696,-4)" xmlns:kvg="http://kanjivg.tagaini.net"></path><path class="stroke_order_diagram--existing_path" d="M36.51,62.72c2.77-0.22,11.75-1.54,14.98-1.99" id="Ske2dmvel25" kvg:type="㇐a" transform="matrix(1,0,0,1,696,-4)" xmlns:kvg="http://kanjivg.tagaini.net"></path><path class="stroke_order_diagram--current_path" d="M22.13,76.19c1.19,0.06,2.37,0.09,3.22,0c6.46-0.64,22.58-2.28,31.85-3.14c1.4-0.13,2.24,0.23,2.94,0.46" id="kvg:053ae-s8" kvg:type="㇐" transform="matrix(1,0,0,1,696,-4)" xmlns:kvg="http://kanjivg.tagaini.net"></path><path class="stroke_order_diagram--current_path" d="M22.13,76.19c1.19,0.06,2.37,0.09,3.22,0c6.46-0.64,22.58-2.28,31.85-3.14c1.4-0.13,2.24,0.23,2.94,0.46" id="Ske2dmvel27" kvg:type="㇐" transform="matrix(1,0,0,1,696,-4)" xmlns:kvg="http://kanjivg.tagaini.net"></path><circle class="stroke_order_diagram--path_start" cx="22.13" cy="76.19" r="4" transform="matrix(1,0,0,1,696,-4)"></circle><line class="stroke_order_diagram--guide_line" x1="850" x2="850" y1="1" y2="99"></line><line class="stroke_order_diagram--bounding_box" x1="899" x2="899" y1="1" y2="99"></line><path class="stroke_order_diagram--existing_path" d="M19.63,18.73c1.52,0.54,4.3,0.63,5.82,0.54c15.8-0.91,45.3-3.52,60.61-4.23c2.53-0.12,4.05,0.26,5.31,0.53" id="Ske2dmvel2a" kvg:type="㇐" transform="matrix(1,0,0,1,796,-4)" xmlns:kvg="http://kanjivg.tagaini.net"></path><path class="stroke_order_diagram--existing_path" d="M23.5,19.5c0.5,1.5,0.51,1.9,0.43,4.36C23.25,43.5,21.5,74.75,10.81,91.47" id="Ske2dmvel2b" kvg:type="㇒" transform="matrix(1,0,0,1,796,-4)" xmlns:kvg="http://kanjivg.tagaini.net"></path><path class="stroke_order_diagram--existing_path" d="M27.21,38.92c1.23,0.15,3.29,0.85,3.88,0.79c5.32-0.64,18.79-2.47,25.32-3.01c0.96-0.08,2.42,0.15,2.9,0.31" id="Ske2dmvel2c" kvg:type="㇐" transform="matrix(1,0,0,1,796,-4)" xmlns:kvg="http://kanjivg.tagaini.net"></path><path class="stroke_order_diagram--existing_path" d="M34.7,27.85c0.67,0.45,1.07,2.01,1.2,2.91c0.13,0.89,0,37.94-0.13,43.52" id="Ske2dmvel2d" kvg:type="㇑a" transform="matrix(1,0,0,1,796,-4)" xmlns:kvg="http://kanjivg.tagaini.net"></path><path class="stroke_order_diagram--existing_path" d="M50.79,25.25c0.67,0.45,1.07,2.01,1.2,2.91c0.13,0.89,0,39.68-0.13,45.27" id="Ske2dmvel2e" kvg:type="㇑a" transform="matrix(1,0,0,1,796,-4)" xmlns:kvg="http://kanjivg.tagaini.net"></path><path class="stroke_order_diagram--existing_path" d="M36.66,51.1c2.46-0.22,12.67-1.77,14.97-1.99" id="Ske2dmvel2f" kvg:type="㇐a" transform="matrix(1,0,0,1,796,-4)" xmlns:kvg="http://kanjivg.tagaini.net"></path><path class="stroke_order_diagram--existing_path" d="M36.51,62.72c2.77-0.22,11.75-1.54,14.98-1.99" id="Ske2dmvel2g" kvg:type="㇐a" transform="matrix(1,0,0,1,796,-4)" xmlns:kvg="http://kanjivg.tagaini.net"></path><path class="stroke_order_diagram--existing_path" d="M22.13,76.19c1.19,0.06,2.37,0.09,3.22,0c6.46-0.64,22.58-2.28,31.85-3.14c1.4-0.13,2.24,0.23,2.94,0.46" id="Ske2dmvel2h" kvg:type="㇐" transform="matrix(1,0,0,1,796,-4)" xmlns:kvg="http://kanjivg.tagaini.net"></path><path class="stroke_order_diagram--current_path" d="M36.21,81.02c0.04,0.38,0.09,0.97-0.08,1.52c-1,3.2-6.74,10.21-14.59,14.51" id="kvg:053ae-s9" kvg:type="㇒" transform="matrix(1,0,0,1,796,-4)" xmlns:kvg="http://kanjivg.tagaini.net"></path><path class="stroke_order_diagram--current_path" d="M36.21,81.02c0.04,0.38,0.09,0.97-0.08,1.52c-1,3.2-6.74,10.21-14.59,14.51" id="Ske2dmvel2j" kvg:type="㇒" transform="matrix(1,0,0,1,796,-4)" xmlns:kvg="http://kanjivg.tagaini.net"></path><circle class="stroke_order_diagram--path_start" cx="36.21" cy="81.02" r="4" transform="matrix(1,0,0,1,796,-4)"></circle><line class="stroke_order_diagram--guide_line" x1="950" x2="950" y1="1" y2="99"></line><line class="stroke_order_diagram--bounding_box" x1="999" x2="999" y1="1" y2="99"></line><path class="stroke_order_diagram--existing_path" d="M19.63,18.73c1.52,0.54,4.3,0.63,5.82,0.54c15.8-0.91,45.3-3.52,60.61-4.23c2.53-0.12,4.05,0.26,5.31,0.53" id="Ske2dmvel2m" kvg:type="㇐" transform="matrix(1,0,0,1,896,-4)" xmlns:kvg="http://kanjivg.tagaini.net"></path><path class="stroke_order_diagram--existing_path" d="M23.5,19.5c0.5,1.5,0.51,1.9,0.43,4.36C23.25,43.5,21.5,74.75,10.81,91.47" id="Ske2dmvel2n" kvg:type="㇒" transform="matrix(1,0,0,1,896,-4)" xmlns:kvg="http://kanjivg.tagaini.net"></path><path class="stroke_order_diagram--existing_path" d="M27.21,38.92c1.23,0.15,3.29,0.85,3.88,0.79c5.32-0.64,18.79-2.47,25.32-3.01c0.96-0.08,2.42,0.15,2.9,0.31" id="Ske2dmvel2o" kvg:type="㇐" transform="matrix(1,0,0,1,896,-4)" xmlns:kvg="http://kanjivg.tagaini.net"></path><path class="stroke_order_diagram--existing_path" d="M34.7,27.85c0.67,0.45,1.07,2.01,1.2,2.91c0.13,0.89,0,37.94-0.13,43.52" id="Ske2dmvel2p" kvg:type="㇑a" transform="matrix(1,0,0,1,896,-4)" xmlns:kvg="http://kanjivg.tagaini.net"></path><path class="stroke_order_diagram--existing_path" d="M50.79,25.25c0.67,0.45,1.07,2.01,1.2,2.91c0.13,0.89,0,39.68-0.13,45.27" id="Ske2dmvel2q" kvg:type="㇑a" transform="matrix(1,0,0,1,896,-4)" xmlns:kvg="http://kanjivg.tagaini.net"></path><path class="stroke_order_diagram--existing_path" d="M36.66,51.1c2.46-0.22,12.67-1.77,14.97-1.99" id="Ske2dmvel2r" kvg:type="㇐a" transform="matrix(1,0,0,1,896,-4)" xmlns:kvg="http://kanjivg.tagaini.net"></path><path class="stroke_order_diagram--existing_path" d="M36.51,62.72c2.77-0.22,11.75-1.54,14.98-1.99" id="Ske2dmvel2s" kvg:type="㇐a" transform="matrix(1,0,0,1,896,-4)" xmlns:kvg="http://kanjivg.tagaini.net"></path><path class="stroke_order_diagram--existing_path" d="M22.13,76.19c1.19,0.06,2.37,0.09,3.22,0c6.46-0.64,22.58-2.28,31.85-3.14c1.4-0.13,2.24,0.23,2.94,0.46" id="Ske2dmvel2t" kvg:type="㇐" transform="matrix(1,0,0,1,896,-4)" xmlns:kvg="http://kanjivg.tagaini.net"></path><path class="stroke_order_diagram--existing_path" d="M36.21,81.02c0.04,0.38,0.09,0.97-0.08,1.52c-1,3.2-6.74,10.21-14.59,14.51" id="Ske2dmvel2u" kvg:type="㇒" transform="matrix(1,0,0,1,896,-4)" xmlns:kvg="http://kanjivg.tagaini.net"></path><path class="stroke_order_diagram--current_path" d="M48.1,80.74c2.62,1.82,6.77,7.47,7.43,10.3" id="kvg:053ae-s10" kvg:type="㇔/㇏" transform="matrix(1,0,0,1,896,-4)" xmlns:kvg="http://kanjivg.tagaini.net"></path><path class="stroke_order_diagram--current_path" d="M48.1,80.74c2.62,1.82,6.77,7.47,7.43,10.3" id="Ske2dmvel2w" kvg:type="㇔/㇏" transform="matrix(1,0,0,1,896,-4)" xmlns:kvg="http://kanjivg.tagaini.net"></path><circle class="stroke_order_diagram--path_start" cx="48.1" cy="80.74" r="4" transform="matrix(1,0,0,1,896,-4)"></circle><line class="stroke_order_diagram--guide_line" x1="1050" x2="1050" y1="1" y2="99"></line><line class="stroke_order_diagram--bounding_box" x1="1099" x2="1099" y1="1" y2="99"></line><path class="stroke_order_diagram--existing_path" d="M19.63,18.73c1.52,0.54,4.3,0.63,5.82,0.54c15.8-0.91,45.3-3.52,60.61-4.23c2.53-0.12,4.05,0.26,5.31,0.53" id="Ske2dmvel2z" kvg:type="㇐" transform="matrix(1,0,0,1,996,-4)" xmlns:kvg="http://kanjivg.tagaini.net"></path><path class="stroke_order_diagram--existing_path" d="M23.5,19.5c0.5,1.5,0.51,1.9,0.43,4.36C23.25,43.5,21.5,74.75,10.81,91.47" id="Ske2dmvel30" kvg:type="㇒" transform="matrix(1,0,0,1,996,-4)" xmlns:kvg="http://kanjivg.tagaini.net"></path><path class="stroke_order_diagram--existing_path" d="M27.21,38.92c1.23,0.15,3.29,0.85,3.88,0.79c5.32-0.64,18.79-2.47,25.32-3.01c0.96-0.08,2.42,0.15,2.9,0.31" id="Ske2dmvel31" kvg:type="㇐" transform="matrix(1,0,0,1,996,-4)" xmlns:kvg="http://kanjivg.tagaini.net"></path><path class="stroke_order_diagram--existing_path" d="M34.7,27.85c0.67,0.45,1.07,2.01,1.2,2.91c0.13,0.89,0,37.94-0.13,43.52" id="Ske2dmvel32" kvg:type="㇑a" transform="matrix(1,0,0,1,996,-4)" xmlns:kvg="http://kanjivg.tagaini.net"></path><path class="stroke_order_diagram--existing_path" d="M50.79,25.25c0.67,0.45,1.07,2.01,1.2,2.91c0.13,0.89,0,39.68-0.13,45.27" id="Ske2dmvel33" kvg:type="㇑a" transform="matrix(1,0,0,1,996,-4)" xmlns:kvg="http://kanjivg.tagaini.net"></path><path class="stroke_order_diagram--existing_path" d="M36.66,51.1c2.46-0.22,12.67-1.77,14.97-1.99" id="Ske2dmvel34" kvg:type="㇐a" transform="matrix(1,0,0,1,996,-4)" xmlns:kvg="http://kanjivg.tagaini.net"></path><path class="stroke_order_diagram--existing_path" d="M36.51,62.72c2.77-0.22,11.75-1.54,14.98-1.99" id="Ske2dmvel35" kvg:type="㇐a" transform="matrix(1,0,0,1,996,-4)" xmlns:kvg="http://kanjivg.tagaini.net"></path><path class="stroke_order_diagram--existing_path" d="M22.13,76.19c1.19,0.06,2.37,0.09,3.22,0c6.46-0.64,22.58-2.28,31.85-3.14c1.4-0.13,2.24,0.23,2.94,0.46" id="Ske2dmvel36" kvg:type="㇐" transform="matrix(1,0,0,1,996,-4)" xmlns:kvg="http://kanjivg.tagaini.net"></path><path class="stroke_order_diagram--existing_path" d="M36.21,81.02c0.04,0.38,0.09,0.97-0.08,1.52c-1,3.2-6.74,10.21-14.59,14.51" id="Ske2dmvel37" kvg:type="㇒" transform="matrix(1,0,0,1,996,-4)" xmlns:kvg="http://kanjivg.tagaini.net"></path><path class="stroke_order_diagram--existing_path" d="M48.1,80.74c2.62,1.82,6.77,7.47,7.43,10.3" id="Ske2dmvel38" kvg:type="㇔/㇏" transform="matrix(1,0,0,1,996,-4)" xmlns:kvg="http://kanjivg.tagaini.net"></path><path class="stroke_order_diagram--current_path" d="M87.3,24.37c0.05,0.36,0.2,1.05-0.09,1.43c-3.92,5.22-8.93,9.18-17.19,13.67" id="kvg:053ae-s11" kvg:type="㇒" transform="matrix(1,0,0,1,996,-4)" xmlns:kvg="http://kanjivg.tagaini.net"></path><path class="stroke_order_diagram--current_path" d="M87.3,24.37c0.05,0.36,0.2,1.05-0.09,1.43c-3.92,5.22-8.93,9.18-17.19,13.67" id="Ske2dmvel3a" kvg:type="㇒" transform="matrix(1,0,0,1,996,-4)" xmlns:kvg="http://kanjivg.tagaini.net"></path><circle class="stroke_order_diagram--path_start" cx="87.3" cy="24.37" r="4" transform="matrix(1,0,0,1,996,-4)"></circle><line class="stroke_order_diagram--guide_line" x1="1150" x2="1150" y1="1" y2="99"></line><line class="stroke_order_diagram--bounding_box" x1="1199" x2="1199" y1="1" y2="99"></line><path class="stroke_order_diagram--existing_path" d="M19.63,18.73c1.52,0.54,4.3,0.63,5.82,0.54c15.8-0.91,45.3-3.52,60.61-4.23c2.53-0.12,4.05,0.26,5.31,0.53" id="Ske2dmvel3d" kvg:type="㇐" transform="matrix(1,0,0,1,1096,-4)" xmlns:kvg="http://kanjivg.tagaini.net"></path><path class="stroke_order_diagram--existing_path" d="M23.5,19.5c0.5,1.5,0.51,1.9,0.43,4.36C23.25,43.5,21.5,74.75,10.81,91.47" id="Ske2dmvel3e" kvg:type="㇒" transform="matrix(1,0,0,1,1096,-4)" xmlns:kvg="http://kanjivg.tagaini.net"></path><path class="stroke_order_diagram--existing_path" d="M27.21,38.92c1.23,0.15,3.29,0.85,3.88,0.79c5.32-0.64,18.79-2.47,25.32-3.01c0.96-0.08,2.42,0.15,2.9,0.31" id="Ske2dmvel3f" kvg:type="㇐" transform="matrix(1,0,0,1,1096,-4)" xmlns:kvg="http://kanjivg.tagaini.net"></path><path class="stroke_order_diagram--existing_path" d="M34.7,27.85c0.67,0.45,1.07,2.01,1.2,2.91c0.13,0.89,0,37.94-0.13,43.52" id="Ske2dmvel3g" kvg:type="㇑a" transform="matrix(1,0,0,1,1096,-4)" xmlns:kvg="http://kanjivg.tagaini.net"></path><path class="stroke_order_diagram--existing_path" d="M50.79,25.25c0.67,0.45,1.07,2.01,1.2,2.91c0.13,0.89,0,39.68-0.13,45.27" id="Ske2dmvel3h" kvg:type="㇑a" transform="matrix(1,0,0,1,1096,-4)" xmlns:kvg="http://kanjivg.tagaini.net"></path><path class="stroke_order_diagram--existing_path" d="M36.66,51.1c2.46-0.22,12.67-1.77,14.97-1.99" id="Ske2dmvel3i" kvg:type="㇐a" transform="matrix(1,0,0,1,1096,-4)" xmlns:kvg="http://kanjivg.tagaini.net"></path><path class="stroke_order_diagram--existing_path" d="M36.51,62.72c2.77-0.22,11.75-1.54,14.98-1.99" id="Ske2dmvel3j" kvg:type="㇐a" transform="matrix(1,0,0,1,1096,-4)" xmlns:kvg="http://kanjivg.tagaini.net"></path><path class="stroke_order_diagram--existing_path" d="M22.13,76.19c1.19,0.06,2.37,0.09,3.22,0c6.46-0.64,22.58-2.28,31.85-3.14c1.4-0.13,2.24,0.23,2.94,0.46" id="Ske2dmvel3k" kvg:type="㇐" transform="matrix(1,0,0,1,1096,-4)" xmlns:kvg="http://kanjivg.tagaini.net"></path><path class="stroke_order_diagram--existing_path" d="M36.21,81.02c0.04,0.38,0.09,0.97-0.08,1.52c-1,3.2-6.74,10.21-14.59,14.51" id="Ske2dmvel3l" kvg:type="㇒" transform="matrix(1,0,0,1,1096,-4)" xmlns:kvg="http://kanjivg.tagaini.net"></path><path class="stroke_order_diagram--existing_path" d="M48.1,80.74c2.62,1.82,6.77,7.47,7.43,10.3" id="Ske2dmvel3m" kvg:type="㇔/㇏" transform="matrix(1,0,0,1,1096,-4)" xmlns:kvg="http://kanjivg.tagaini.net"></path><path class="stroke_order_diagram--existing_path" d="M87.3,24.37c0.05,0.36,0.2,1.05-0.09,1.43c-3.92,5.22-8.93,9.18-17.19,13.67" id="Ske2dmvel3n" kvg:type="㇒" transform="matrix(1,0,0,1,1096,-4)" xmlns:kvg="http://kanjivg.tagaini.net"></path><path class="stroke_order_diagram--current_path" d="M66.68,39.35c1.02,1.62,1,3.17,1,4.93c0,22.47-1.82,41.5-9.24,49.66" id="kvg:053ae-s12" kvg:type="㇒" transform="matrix(1,0,0,1,1096,-4)" xmlns:kvg="http://kanjivg.tagaini.net"></path><path class="stroke_order_diagram--current_path" d="M66.68,39.35c1.02,1.62,1,3.17,1,4.93c0,22.47-1.82,41.5-9.24,49.66" id="Ske2dmvel3p" kvg:type="㇒" transform="matrix(1,0,0,1,1096,-4)" xmlns:kvg="http://kanjivg.tagaini.net"></path><circle class="stroke_order_diagram--path_start" cx="66.68" cy="39.35" r="4" transform="matrix(1,0,0,1,1096,-4)"></circle><line class="stroke_order_diagram--guide_line" x1="1250" x2="1250" y1="1" y2="99"></line><line class="stroke_order_diagram--bounding_box" x1="1299" x2="1299" y1="1" y2="99"></line><path class="stroke_order_diagram--existing_path" d="M19.63,18.73c1.52,0.54,4.3,0.63,5.82,0.54c15.8-0.91,45.3-3.52,60.61-4.23c2.53-0.12,4.05,0.26,5.31,0.53" id="Ske2dmvel3s" kvg:type="㇐" transform="matrix(1,0,0,1,1196,-4)" xmlns:kvg="http://kanjivg.tagaini.net"></path><path class="stroke_order_diagram--existing_path" d="M23.5,19.5c0.5,1.5,0.51,1.9,0.43,4.36C23.25,43.5,21.5,74.75,10.81,91.47" id="Ske2dmvel3t" kvg:type="㇒" transform="matrix(1,0,0,1,1196,-4)" xmlns:kvg="http://kanjivg.tagaini.net"></path><path class="stroke_order_diagram--existing_path" d="M27.21,38.92c1.23,0.15,3.29,0.85,3.88,0.79c5.32-0.64,18.79-2.47,25.32-3.01c0.96-0.08,2.42,0.15,2.9,0.31" id="Ske2dmvel3u" kvg:type="㇐" transform="matrix(1,0,0,1,1196,-4)" xmlns:kvg="http://kanjivg.tagaini.net"></path><path class="stroke_order_diagram--existing_path" d="M34.7,27.85c0.67,0.45,1.07,2.01,1.2,2.91c0.13,0.89,0,37.94-0.13,43.52" id="Ske2dmvel3v" kvg:type="㇑a" transform="matrix(1,0,0,1,1196,-4)" xmlns:kvg="http://kanjivg.tagaini.net"></path><path class="stroke_order_diagram--existing_path" d="M50.79,25.25c0.67,0.45,1.07,2.01,1.2,2.91c0.13,0.89,0,39.68-0.13,45.27" id="Ske2dmvel3w" kvg:type="㇑a" transform="matrix(1,0,0,1,1196,-4)" xmlns:kvg="http://kanjivg.tagaini.net"></path><path class="stroke_order_diagram--existing_path" d="M36.66,51.1c2.46-0.22,12.67-1.77,14.97-1.99" id="Ske2dmvel3x" kvg:type="㇐a" transform="matrix(1,0,0,1,1196,-4)" xmlns:kvg="http://kanjivg.tagaini.net"></path><path class="stroke_order_diagram--existing_path" d="M36.51,62.72c2.77-0.22,11.75-1.54,14.98-1.99" id="Ske2dmvel3y" kvg:type="㇐a" transform="matrix(1,0,0,1,1196,-4)" xmlns:kvg="http://kanjivg.tagaini.net"></path><path class="stroke_order_diagram--existing_path" d="M22.13,76.19c1.19,0.06,2.37,0.09,3.22,0c6.46-0.64,22.58-2.28,31.85-3.14c1.4-0.13,2.24,0.23,2.94,0.46" id="Ske2dmvel3z" kvg:type="㇐" transform="matrix(1,0,0,1,1196,-4)" xmlns:kvg="http://kanjivg.tagaini.net"></path><path class="stroke_order_diagram--existing_path" d="M36.21,81.02c0.04,0.38,0.09,0.97-0.08,1.52c-1,3.2-6.74,10.21-14.59,14.51" id="Ske2dmvel40" kvg:type="㇒" transform="matrix(1,0,0,1,1196,-4)" xmlns:kvg="http://kanjivg.tagaini.net"></path><path class="stroke_order_diagram--existing_path" d="M48.1,80.74c2.62,1.82,6.77,7.47,7.43,10.3" id="Ske2dmvel41" kvg:type="㇔/㇏" transform="matrix(1,0,0,1,1196,-4)" xmlns:kvg="http://kanjivg.tagaini.net"></path><path class="stroke_order_diagram--existing_path" d="M87.3,24.37c0.05,0.36,0.2,1.05-0.09,1.43c-3.92,5.22-8.93,9.18-17.19,13.67" id="Ske2dmvel42" kvg:type="㇒" transform="matrix(1,0,0,1,1196,-4)" xmlns:kvg="http://kanjivg.tagaini.net"></path><path class="stroke_order_diagram--existing_path" d="M66.68,39.35c1.02,1.62,1,3.17,1,4.93c0,22.47-1.82,41.5-9.24,49.66" id="Ske2dmvel43" kvg:type="㇒" transform="matrix(1,0,0,1,1196,-4)" xmlns:kvg="http://kanjivg.tagaini.net"></path><path class="stroke_order_diagram--current_path" d="M68.81,50.34c0.3,0.16,1.48,0.27,2.28,0.09c4.4-1,17.71-2.49,22.71-2.99c0.8-0.08,2.19-0.16,2.7,0" id="kvg:053ae-s13" kvg:type="㇐" transform="matrix(1,0,0,1,1196,-4)" xmlns:kvg="http://kanjivg.tagaini.net"></path><path class="stroke_order_diagram--current_path" d="M68.81,50.34c0.3,0.16,1.48,0.27,2.28,0.09c4.4-1,17.71-2.49,22.71-2.99c0.8-0.08,2.19-0.16,2.7,0" id="Ske2dmvel45" kvg:type="㇐" transform="matrix(1,0,0,1,1196,-4)" xmlns:kvg="http://kanjivg.tagaini.net"></path><circle class="stroke_order_diagram--path_start" cx="68.81" cy="50.34" r="4" transform="matrix(1,0,0,1,1196,-4)"></circle><line class="stroke_order_diagram--guide_line" x1="1350" x2="1350" y1="1" y2="99"></line><line class="stroke_order_diagram--bounding_box" x1="1399" x2="1399" y1="1" y2="99"></line><path class="stroke_order_diagram--existing_path" d="M19.63,18.73c1.52,0.54,4.3,0.63,5.82,0.54c15.8-0.91,45.3-3.52,60.61-4.23c2.53-0.12,4.05,0.26,5.31,0.53" id="Ske2dmvel48" kvg:type="㇐" transform="matrix(1,0,0,1,1296,-4)" xmlns:kvg="http://kanjivg.tagaini.net"></path><path class="stroke_order_diagram--existing_path" d="M23.5,19.5c0.5,1.5,0.51,1.9,0.43,4.36C23.25,43.5,21.5,74.75,10.81,91.47" id="Ske2dmvel49" kvg:type="㇒" transform="matrix(1,0,0,1,1296,-4)" xmlns:kvg="http://kanjivg.tagaini.net"></path><path class="stroke_order_diagram--existing_path" d="M27.21,38.92c1.23,0.15,3.29,0.85,3.88,0.79c5.32-0.64,18.79-2.47,25.32-3.01c0.96-0.08,2.42,0.15,2.9,0.31" id="Ske2dmvel4a" kvg:type="㇐" transform="matrix(1,0,0,1,1296,-4)" xmlns:kvg="http://kanjivg.tagaini.net"></path><path class="stroke_order_diagram--existing_path" d="M34.7,27.85c0.67,0.45,1.07,2.01,1.2,2.91c0.13,0.89,0,37.94-0.13,43.52" id="Ske2dmvel4b" kvg:type="㇑a" transform="matrix(1,0,0,1,1296,-4)" xmlns:kvg="http://kanjivg.tagaini.net"></path><path class="stroke_order_diagram--existing_path" d="M50.79,25.25c0.67,0.45,1.07,2.01,1.2,2.91c0.13,0.89,0,39.68-0.13,45.27" id="Ske2dmvel4c" kvg:type="㇑a" transform="matrix(1,0,0,1,1296,-4)" xmlns:kvg="http://kanjivg.tagaini.net"></path><path class="stroke_order_diagram--existing_path" d="M36.66,51.1c2.46-0.22,12.67-1.77,14.97-1.99" id="Ske2dmvel4d" kvg:type="㇐a" transform="matrix(1,0,0,1,1296,-4)" xmlns:kvg="http://kanjivg.tagaini.net"></path><path class="stroke_order_diagram--existing_path" d="M36.51,62.72c2.77-0.22,11.75-1.54,14.98-1.99" id="Ske2dmvel4e" kvg:type="㇐a" transform="matrix(1,0,0,1,1296,-4)" xmlns:kvg="http://kanjivg.tagaini.net"></path><path class="stroke_order_diagram--existing_path" d="M22.13,76.19c1.19,0.06,2.37,0.09,3.22,0c6.46-0.64,22.58-2.28,31.85-3.14c1.4-0.13,2.24,0.23,2.94,0.46" id="Ske2dmvel4f" kvg:type="㇐" transform="matrix(1,0,0,1,1296,-4)" xmlns:kvg="http://kanjivg.tagaini.net"></path><path class="stroke_order_diagram--existing_path" d="M36.21,81.02c0.04,0.38,0.09,0.97-0.08,1.52c-1,3.2-6.74,10.21-14.59,14.51" id="Ske2dmvel4g" kvg:type="㇒" transform="matrix(1,0,0,1,1296,-4)" xmlns:kvg="http://kanjivg.tagaini.net"></path><path class="stroke_order_diagram--existing_path" d="M48.1,80.74c2.62,1.82,6.77,7.47,7.43,10.3" id="Ske2dmvel4h" kvg:type="㇔/㇏" transform="matrix(1,0,0,1,1296,-4)" xmlns:kvg="http://kanjivg.tagaini.net"></path><path class="stroke_order_diagram--existing_path" d="M87.3,24.37c0.05,0.36,0.2,1.05-0.09,1.43c-3.92,5.22-8.93,9.18-17.19,13.67" id="Ske2dmvel4i" kvg:type="㇒" transform="matrix(1,0,0,1,1296,-4)" xmlns:kvg="http://kanjivg.tagaini.net"></path><path class="stroke_order_diagram--existing_path" d="M66.68,39.35c1.02,1.62,1,3.17,1,4.93c0,22.47-1.82,41.5-9.24,49.66" id="Ske2dmvel4j" kvg:type="㇒" transform="matrix(1,0,0,1,1296,-4)" xmlns:kvg="http://kanjivg.tagaini.net"></path><path class="stroke_order_diagram--existing_path" d="M68.81,50.34c0.3,0.16,1.48,0.27,2.28,0.09c4.4-1,17.71-2.49,22.71-2.99c0.8-0.08,2.19-0.16,2.7,0" id="Ske2dmvel4k" kvg:type="㇐" transform="matrix(1,0,0,1,1296,-4)" xmlns:kvg="http://kanjivg.tagaini.net"></path><path class="stroke_order_diagram--current_path" d="M83.06,51.01c0.65,0.5,1.04,2.25,1.17,3.25s0,38.74-0.13,44.99" id="kvg:053ae-s14" kvg:type="㇑" transform="matrix(1,0,0,1,1296,-4)" xmlns:kvg="http://kanjivg.tagaini.net"></path><path class="stroke_order_diagram--current_path" d="M83.06,51.01c0.65,0.5,1.04,2.25,1.17,3.25s0,38.74-0.13,44.99" id="Ske2dmvel4m" kvg:type="㇑" transform="matrix(1,0,0,1,1296,-4)" xmlns:kvg="http://kanjivg.tagaini.net"></path><circle class="stroke_order_diagram--path_start" cx="83.06" cy="51.01" r="4" transform="matrix(1,0,0,1,1296,-4)"></circle></svg>