<svg class="stroke_order_diagram--svg_container_for_518662a0d5dda79658000c95" style="height: 100px; width: 700px;" viewbox="0 0 700 100"><desc>Created with Snap</desc><defs></defs><line class="stroke_order_diagram--bounding_box" x1="1" x2="699" y1="1" y2="1"></line><line class="stroke_order_diagram--bounding_box" x1="1" x2="1" y1="1" y2="99"></line><line class="stroke_order_diagram--bounding_box" x1="1" x2="699" y1="99" y2="99"></line><line class="stroke_order_diagram--guide_line" x1="0" x2="700" y1="50" y2="50"></line><line class="stroke_order_diagram--guide_line" x1="50" x2="50" y1="1" y2="99"></line><line class="stroke_order_diagram--bounding_box" x1="99" x2="99" y1="1" y2="99"></line><path class="stroke_order_diagram--current_path" d="M11.25,33.29c0.37,0.51,0.76,0.94,0.92,1.58C13.46,39.93,15.51,53.9,16.4,63" id="kvg:0542e-s1" kvg:type="㇑" transform="matrix(1,0,0,1,-4,-4)" xmlns:kvg="http://kanjivg.tagaini.net"></path><path class="stroke_order_diagram--current_path" d="M11.25,33.29c0.37,0.51,0.76,0.94,0.92,1.58C13.46,39.93,15.51,53.9,16.4,63" id="Ske2dsfz4g" kvg:type="㇑" transform="matrix(1,0,0,1,-4,-4)" xmlns:kvg="http://kanjivg.tagaini.net"></path><circle class="stroke_order_diagram--path_start" cx="11.25" cy="33.29" r="4" transform="matrix(1,0,0,1,-4,-4)"></circle><line class="stroke_order_diagram--guide_line" x1="150" x2="150" y1="1" y2="99"></line><line class="stroke_order_diagram--bounding_box" x1="199" x2="199" y1="1" y2="99"></line><path class="stroke_order_diagram--existing_path" d="M11.25,33.29c0.37,0.51,0.76,0.94,0.92,1.58C13.46,39.93,15.51,53.9,16.4,63" id="Ske2dsfz4j" kvg:type="㇑" transform="matrix(1,0,0,1,96,-4)" xmlns:kvg="http://kanjivg.tagaini.net"></path><path class="stroke_order_diagram--current_path" d="M13.58,35.72c9.42-2.22,16.05-3.06,20.42-3.73c1.6-0.24,2.56,1.44,2.33,2.87c-0.95,5.92-2.55,14.07-3.96,22.25" id="kvg:0542e-s2" kvg:type="㇕b" transform="matrix(1,0,0,1,96,-4)" xmlns:kvg="http://kanjivg.tagaini.net"></path><path class="stroke_order_diagram--current_path" d="M13.58,35.72c9.42-2.22,16.05-3.06,20.42-3.73c1.6-0.24,2.56,1.44,2.33,2.87c-0.95,5.92-2.55,14.07-3.96,22.25" id="Ske2dsfz4l" kvg:type="㇕b" transform="matrix(1,0,0,1,96,-4)" xmlns:kvg="http://kanjivg.tagaini.net"></path><circle class="stroke_order_diagram--path_start" cx="13.58" cy="35.72" r="4" transform="matrix(1,0,0,1,96,-4)"></circle><line class="stroke_order_diagram--guide_line" x1="250" x2="250" y1="1" y2="99"></line><line class="stroke_order_diagram--bounding_box" x1="299" x2="299" y1="1" y2="99"></line><path class="stroke_order_diagram--existing_path" d="M11.25,33.29c0.37,0.51,0.76,0.94,0.92,1.58C13.46,39.93,15.51,53.9,16.4,63" id="Ske2dsfz4o" kvg:type="㇑" transform="matrix(1,0,0,1,196,-4)" xmlns:kvg="http://kanjivg.tagaini.net"></path><path class="stroke_order_diagram--existing_path" d="M13.58,35.72c9.42-2.22,16.05-3.06,20.42-3.73c1.6-0.24,2.56,1.44,2.33,2.87c-0.95,5.92-2.55,14.07-3.96,22.25" id="Ske2dsfz4p" kvg:type="㇕b" transform="matrix(1,0,0,1,196,-4)" xmlns:kvg="http://kanjivg.tagaini.net"></path><path class="stroke_order_diagram--current_path" d="M16.57,59.05c5.14-0.75,10.83-1.05,17.89-2.21" id="kvg:0542e-s3" kvg:type="㇐b" transform="matrix(1,0,0,1,196,-4)" xmlns:kvg="http://kanjivg.tagaini.net"></path><path class="stroke_order_diagram--current_path" d="M16.57,59.05c5.14-0.75,10.83-1.05,17.89-2.21" id="Ske2dsfz4r" kvg:type="㇐b" transform="matrix(1,0,0,1,196,-4)" xmlns:kvg="http://kanjivg.tagaini.net"></path><circle class="stroke_order_diagram--path_start" cx="16.57" cy="59.05" r="4" transform="matrix(1,0,0,1,196,-4)"></circle><line class="stroke_order_diagram--guide_line" x1="350" x2="350" y1="1" y2="99"></line><line class="stroke_order_diagram--bounding_box" x1="399" x2="399" y1="1" y2="99"></line><path class="stroke_order_diagram--existing_path" d="M11.25,33.29c0.37,0.51,0.76,0.94,0.92,1.58C13.46,39.93,15.51,53.9,16.4,63" id="Ske2dsfz4u" kvg:type="㇑" transform="matrix(1,0,0,1,296,-4)" xmlns:kvg="http://kanjivg.tagaini.net"></path><path class="stroke_order_diagram--existing_path" d="M13.58,35.72c9.42-2.22,16.05-3.06,20.42-3.73c1.6-0.24,2.56,1.44,2.33,2.87c-0.95,5.92-2.55,14.07-3.96,22.25" id="Ske2dsfz4v" kvg:type="㇕b" transform="matrix(1,0,0,1,296,-4)" xmlns:kvg="http://kanjivg.tagaini.net"></path><path class="stroke_order_diagram--existing_path" d="M16.57,59.05c5.14-0.75,10.83-1.05,17.89-2.21" id="Ske2dsfz4w" kvg:type="㇐b" transform="matrix(1,0,0,1,296,-4)" xmlns:kvg="http://kanjivg.tagaini.net"></path><path class="stroke_order_diagram--current_path" d="M65.17,10.75c0.59,0.63,0.64,3.1,0.2,3.88C59.75,24.5,54,31.75,46.3,41.3c-2.15,2.67-2.54,2.97,1.18,2.28c9.05-1.68,26.34-5.57,38.94-8.39" id="kvg:0542e-s4" kvg:type="㇜" transform="matrix(1,0,0,1,296,-4)" xmlns:kvg="http://kanjivg.tagaini.net"></path><path class="stroke_order_diagram--current_path" d="M65.17,10.75c0.59,0.63,0.64,3.1,0.2,3.88C59.75,24.5,54,31.75,46.3,41.3c-2.15,2.67-2.54,2.97,1.18,2.28c9.05-1.68,26.34-5.57,38.94-8.39" id="Ske2dsfz4y" kvg:type="㇜" transform="matrix(1,0,0,1,296,-4)" xmlns:kvg="http://kanjivg.tagaini.net"></path><circle class="stroke_order_diagram--path_start" cx="65.17" cy="10.75" r="4" transform="matrix(1,0,0,1,296,-4)"></circle><line class="stroke_order_diagram--guide_line" x1="450" x2="450" y1="1" y2="99"></line><line class="stroke_order_diagram--bounding_box" x1="499" x2="499" y1="1" y2="99"></line><path class="stroke_order_diagram--existing_path" d="M11.25,33.29c0.37,0.51,0.76,0.94,0.92,1.58C13.46,39.93,15.51,53.9,16.4,63" id="Ske2dsfz411" kvg:type="㇑" transform="matrix(1,0,0,1,396,-4)" xmlns:kvg="http://kanjivg.tagaini.net"></path><path class="stroke_order_diagram--existing_path" d="M13.58,35.72c9.42-2.22,16.05-3.06,20.42-3.73c1.6-0.24,2.56,1.44,2.33,2.87c-0.95,5.92-2.55,14.07-3.96,22.25" id="Ske2dsfz412" kvg:type="㇕b" transform="matrix(1,0,0,1,396,-4)" xmlns:kvg="http://kanjivg.tagaini.net"></path><path class="stroke_order_diagram--existing_path" d="M16.57,59.05c5.14-0.75,10.83-1.05,17.89-2.21" id="Ske2dsfz413" kvg:type="㇐b" transform="matrix(1,0,0,1,396,-4)" xmlns:kvg="http://kanjivg.tagaini.net"></path><path class="stroke_order_diagram--existing_path" d="M65.17,10.75c0.59,0.63,0.64,3.1,0.2,3.88C59.75,24.5,54,31.75,46.3,41.3c-2.15,2.67-2.54,2.97,1.18,2.28c9.05-1.68,26.34-5.57,38.94-8.39" id="Ske2dsfz414" kvg:type="㇜" transform="matrix(1,0,0,1,396,-4)" xmlns:kvg="http://kanjivg.tagaini.net"></path><path class="stroke_order_diagram--current_path" d="M77.25,24.83c5.57,3.6,14.38,14.79,15.77,20.39" id="kvg:0542e-s5" kvg:type="㇔" transform="matrix(1,0,0,1,396,-4)" xmlns:kvg="http://kanjivg.tagaini.net"></path><path class="stroke_order_diagram--current_path" d="M77.25,24.83c5.57,3.6,14.38,14.79,15.77,20.39" id="Ske2dsfz416" kvg:type="㇔" transform="matrix(1,0,0,1,396,-4)" xmlns:kvg="http://kanjivg.tagaini.net"></path><circle class="stroke_order_diagram--path_start" cx="77.25" cy="24.83" r="4" transform="matrix(1,0,0,1,396,-4)"></circle><line class="stroke_order_diagram--guide_line" x1="550" x2="550" y1="1" y2="99"></line><line class="stroke_order_diagram--bounding_box" x1="599" x2="599" y1="1" y2="99"></line><path class="stroke_order_diagram--existing_path" d="M11.25,33.29c0.37,0.51,0.76,0.94,0.92,1.58C13.46,39.93,15.51,53.9,16.4,63" id="Ske2dsfz419" kvg:type="㇑" transform="matrix(1,0,0,1,496,-4)" xmlns:kvg="http://kanjivg.tagaini.net"></path><path class="stroke_order_diagram--existing_path" d="M13.58,35.72c9.42-2.22,16.05-3.06,20.42-3.73c1.6-0.24,2.56,1.44,2.33,2.87c-0.95,5.92-2.55,14.07-3.96,22.25" id="Ske2dsfz41a" kvg:type="㇕b" transform="matrix(1,0,0,1,496,-4)" xmlns:kvg="http://kanjivg.tagaini.net"></path><path class="stroke_order_diagram--existing_path" d="M16.57,59.05c5.14-0.75,10.83-1.05,17.89-2.21" id="Ske2dsfz41b" kvg:type="㇐b" transform="matrix(1,0,0,1,496,-4)" xmlns:kvg="http://kanjivg.tagaini.net"></path><path class="stroke_order_diagram--existing_path" d="M65.17,10.75c0.59,0.63,0.64,3.1,0.2,3.88C59.75,24.5,54,31.75,46.3,41.3c-2.15,2.67-2.54,2.97,1.18,2.28c9.05-1.68,26.34-5.57,38.94-8.39" id="Ske2dsfz41c" kvg:type="㇜" transform="matrix(1,0,0,1,496,-4)" xmlns:kvg="http://kanjivg.tagaini.net"></path><path class="stroke_order_diagram--existing_path" d="M77.25,24.83c5.57,3.6,14.38,14.79,15.77,20.39" id="Ske2dsfz41d" kvg:type="㇔" transform="matrix(1,0,0,1,496,-4)" xmlns:kvg="http://kanjivg.tagaini.net"></path><path class="stroke_order_diagram--current_path" d="M56.47,49.21c0.78,0.79,1.39,2.96,1.38,4.63C57.75,68.75,53,90,34.89,98.17" id="kvg:0542e-s6" kvg:type="㇒" transform="matrix(1,0,0,1,496,-4)" xmlns:kvg="http://kanjivg.tagaini.net"></path><path class="stroke_order_diagram--current_path" d="M56.47,49.21c0.78,0.79,1.39,2.96,1.38,4.63C57.75,68.75,53,90,34.89,98.17" id="Ske2dsfz41f" kvg:type="㇒" transform="matrix(1,0,0,1,496,-4)" xmlns:kvg="http://kanjivg.tagaini.net"></path><circle class="stroke_order_diagram--path_start" cx="56.47" cy="49.21" r="4" transform="matrix(1,0,0,1,496,-4)"></circle><line class="stroke_order_diagram--guide_line" x1="650" x2="650" y1="1" y2="99"></line><line class="stroke_order_diagram--bounding_box" x1="699" x2="699" y1="1" y2="99"></line><path class="stroke_order_diagram--existing_path" d="M11.25,33.29c0.37,0.51,0.76,0.94,0.92,1.58C13.46,39.93,15.51,53.9,16.4,63" id="Ske2dsfz41i" kvg:type="㇑" transform="matrix(1,0,0,1,596,-4)" xmlns:kvg="http://kanjivg.tagaini.net"></path><path class="stroke_order_diagram--existing_path" d="M13.58,35.72c9.42-2.22,16.05-3.06,20.42-3.73c1.6-0.24,2.56,1.44,2.33,2.87c-0.95,5.92-2.55,14.07-3.96,22.25" id="Ske2dsfz41j" kvg:type="㇕b" transform="matrix(1,0,0,1,596,-4)" xmlns:kvg="http://kanjivg.tagaini.net"></path><path class="stroke_order_diagram--existing_path" d="M16.57,59.05c5.14-0.75,10.83-1.05,17.89-2.21" id="Ske2dsfz41k" kvg:type="㇐b" transform="matrix(1,0,0,1,596,-4)" xmlns:kvg="http://kanjivg.tagaini.net"></path><path class="stroke_order_diagram--existing_path" d="M65.17,10.75c0.59,0.63,0.64,3.1,0.2,3.88C59.75,24.5,54,31.75,46.3,41.3c-2.15,2.67-2.54,2.97,1.18,2.28c9.05-1.68,26.34-5.57,38.94-8.39" id="Ske2dsfz41l" kvg:type="㇜" transform="matrix(1,0,0,1,596,-4)" xmlns:kvg="http://kanjivg.tagaini.net"></path><path class="stroke_order_diagram--existing_path" d="M77.25,24.83c5.57,3.6,14.38,14.79,15.77,20.39" id="Ske2dsfz41m" kvg:type="㇔" transform="matrix(1,0,0,1,596,-4)" xmlns:kvg="http://kanjivg.tagaini.net"></path><path class="stroke_order_diagram--existing_path" d="M56.47,49.21c0.78,0.79,1.39,2.96,1.38,4.63C57.75,68.75,53,90,34.89,98.17" id="Ske2dsfz41n" kvg:type="㇒" transform="matrix(1,0,0,1,596,-4)" xmlns:kvg="http://kanjivg.tagaini.net"></path><path class="stroke_order_diagram--current_path" d="M72.84,43.87c0.61,1.54,1.09,3.35,1.12,5.72c0.16,10.58,0.07,25.86,0.07,33.06c0,12.1-0.04,13.91,12.44,13.91c9.77,0,10.94-2.56,10.94-13.3" id="kvg:0542e-s7" kvg:type="㇟" transform="matrix(1,0,0,1,596,-4)" xmlns:kvg="http://kanjivg.tagaini.net"></path><path class="stroke_order_diagram--current_path" d="M72.84,43.87c0.61,1.54,1.09,3.35,1.12,5.72c0.16,10.58,0.07,25.86,0.07,33.06c0,12.1-0.04,13.91,12.44,13.91c9.77,0,10.94-2.56,10.94-13.3" id="Ske2dsfz41p" kvg:type="㇟" transform="matrix(1,0,0,1,596,-4)" xmlns:kvg="http://kanjivg.tagaini.net"></path><circle class="stroke_order_diagram--path_start" cx="72.84" cy="43.87" r="4" transform="matrix(1,0,0,1,596,-4)"></circle></svg>