<svg class="stroke_order_diagram--svg_container_for_518662a0d5dda79658000c94" style="height: 100px; width: 700px;" viewbox="0 0 700 100"><desc>Created with Snap</desc><defs></defs><line class="stroke_order_diagram--bounding_box" x1="1" x2="699" y1="1" y2="1"></line><line class="stroke_order_diagram--bounding_box" x1="1" x2="1" y1="1" y2="99"></line><line class="stroke_order_diagram--bounding_box" x1="1" x2="699" y1="99" y2="99"></line><line class="stroke_order_diagram--guide_line" x1="0" x2="700" y1="50" y2="50"></line><line class="stroke_order_diagram--guide_line" x1="50" x2="50" y1="1" y2="99"></line><line class="stroke_order_diagram--bounding_box" x1="99" x2="99" y1="1" y2="99"></line><path class="stroke_order_diagram--current_path" d="M10.75,34.62c0.36,0.46,0.73,0.85,0.89,1.43c1.25,4.58,2.76,17.23,3.61,25.46" id="kvg:0543c-s1" kvg:type="㇑" transform="matrix(1,0,0,1,-4,-4)" xmlns:kvg="http://kanjivg.tagaini.net"></path><path class="stroke_order_diagram--current_path" d="M10.75,34.62c0.36,0.46,0.73,0.85,0.89,1.43c1.25,4.58,2.76,17.23,3.61,25.46" id="Ske2ds5t3g" kvg:type="㇑" transform="matrix(1,0,0,1,-4,-4)" xmlns:kvg="http://kanjivg.tagaini.net"></path><circle class="stroke_order_diagram--path_start" cx="10.75" cy="34.62" r="4" transform="matrix(1,0,0,1,-4,-4)"></circle><line class="stroke_order_diagram--guide_line" x1="150" x2="150" y1="1" y2="99"></line><line class="stroke_order_diagram--bounding_box" x1="199" x2="199" y1="1" y2="99"></line><path class="stroke_order_diagram--existing_path" d="M10.75,34.62c0.36,0.46,0.73,0.85,0.89,1.43c1.25,4.58,2.76,17.23,3.61,25.46" id="Ske2ds5t3j" kvg:type="㇑" transform="matrix(1,0,0,1,96,-4)" xmlns:kvg="http://kanjivg.tagaini.net"></path><path class="stroke_order_diagram--current_path" d="M13,36.82c9.13-2.01,14.58-3.23,18.81-3.83c1.55-0.22,2.48,1.3,2.26,2.6c-0.92,5.35-1.99,13.63-3.35,21.03" id="kvg:0543c-s2" kvg:type="㇕b" transform="matrix(1,0,0,1,96,-4)" xmlns:kvg="http://kanjivg.tagaini.net"></path><path class="stroke_order_diagram--current_path" d="M13,36.82c9.13-2.01,14.58-3.23,18.81-3.83c1.55-0.22,2.48,1.3,2.26,2.6c-0.92,5.35-1.99,13.63-3.35,21.03" id="Ske2ds5t3l" kvg:type="㇕b" transform="matrix(1,0,0,1,96,-4)" xmlns:kvg="http://kanjivg.tagaini.net"></path><circle class="stroke_order_diagram--path_start" cx="13" cy="36.82" r="4" transform="matrix(1,0,0,1,96,-4)"></circle><line class="stroke_order_diagram--guide_line" x1="250" x2="250" y1="1" y2="99"></line><line class="stroke_order_diagram--bounding_box" x1="299" x2="299" y1="1" y2="99"></line><path class="stroke_order_diagram--existing_path" d="M10.75,34.62c0.36,0.46,0.73,0.85,0.89,1.43c1.25,4.58,2.76,17.23,3.61,25.46" id="Ske2ds5t3o" kvg:type="㇑" transform="matrix(1,0,0,1,196,-4)" xmlns:kvg="http://kanjivg.tagaini.net"></path><path class="stroke_order_diagram--existing_path" d="M13,36.82c9.13-2.01,14.58-3.23,18.81-3.83c1.55-0.22,2.48,1.3,2.26,2.6c-0.92,5.35-1.99,13.63-3.35,21.03" id="Ske2ds5t3p" kvg:type="㇕b" transform="matrix(1,0,0,1,196,-4)" xmlns:kvg="http://kanjivg.tagaini.net"></path><path class="stroke_order_diagram--current_path" d="M15.42,59.29c4.98-0.68,10.98-0.95,17.81-2" id="kvg:0543c-s3" kvg:type="㇐b" transform="matrix(1,0,0,1,196,-4)" xmlns:kvg="http://kanjivg.tagaini.net"></path><path class="stroke_order_diagram--current_path" d="M15.42,59.29c4.98-0.68,10.98-0.95,17.81-2" id="Ske2ds5t3r" kvg:type="㇐b" transform="matrix(1,0,0,1,196,-4)" xmlns:kvg="http://kanjivg.tagaini.net"></path><circle class="stroke_order_diagram--path_start" cx="15.42" cy="59.29" r="4" transform="matrix(1,0,0,1,196,-4)"></circle><line class="stroke_order_diagram--guide_line" x1="350" x2="350" y1="1" y2="99"></line><line class="stroke_order_diagram--bounding_box" x1="399" x2="399" y1="1" y2="99"></line><path class="stroke_order_diagram--existing_path" d="M10.75,34.62c0.36,0.46,0.73,0.85,0.89,1.43c1.25,4.58,2.76,17.23,3.61,25.46" id="Ske2ds5t3u" kvg:type="㇑" transform="matrix(1,0,0,1,296,-4)" xmlns:kvg="http://kanjivg.tagaini.net"></path><path class="stroke_order_diagram--existing_path" d="M13,36.82c9.13-2.01,14.58-3.23,18.81-3.83c1.55-0.22,2.48,1.3,2.26,2.6c-0.92,5.35-1.99,13.63-3.35,21.03" id="Ske2ds5t3v" kvg:type="㇕b" transform="matrix(1,0,0,1,296,-4)" xmlns:kvg="http://kanjivg.tagaini.net"></path><path class="stroke_order_diagram--existing_path" d="M15.42,59.29c4.98-0.68,10.98-0.95,17.81-2" id="Ske2ds5t3w" kvg:type="㇐b" transform="matrix(1,0,0,1,296,-4)" xmlns:kvg="http://kanjivg.tagaini.net"></path><path class="stroke_order_diagram--current_path" d="M34.85,18.45c2.15,0.8,3.9,1.55,6.58,1.58c4.07,0.04,17.42-4.05,19.04-4.05c1.63,0,3.39,1.02,1.76,3.07c-1.62,2.05-9.62,13.06-15.27,18.99" id="kvg:0543c-s4" kvg:type="㇖" transform="matrix(1,0,0,1,296,-4)" xmlns:kvg="http://kanjivg.tagaini.net"></path><path class="stroke_order_diagram--current_path" d="M34.85,18.45c2.15,0.8,3.9,1.55,6.58,1.58c4.07,0.04,17.42-4.05,19.04-4.05c1.63,0,3.39,1.02,1.76,3.07c-1.62,2.05-9.62,13.06-15.27,18.99" id="Ske2ds5t3y" kvg:type="㇖" transform="matrix(1,0,0,1,296,-4)" xmlns:kvg="http://kanjivg.tagaini.net"></path><circle class="stroke_order_diagram--path_start" cx="34.85" cy="18.45" r="4" transform="matrix(1,0,0,1,296,-4)"></circle><line class="stroke_order_diagram--guide_line" x1="450" x2="450" y1="1" y2="99"></line><line class="stroke_order_diagram--bounding_box" x1="499" x2="499" y1="1" y2="99"></line><path class="stroke_order_diagram--existing_path" d="M10.75,34.62c0.36,0.46,0.73,0.85,0.89,1.43c1.25,4.58,2.76,17.23,3.61,25.46" id="Ske2ds5t311" kvg:type="㇑" transform="matrix(1,0,0,1,396,-4)" xmlns:kvg="http://kanjivg.tagaini.net"></path><path class="stroke_order_diagram--existing_path" d="M13,36.82c9.13-2.01,14.58-3.23,18.81-3.83c1.55-0.22,2.48,1.3,2.26,2.6c-0.92,5.35-1.99,13.63-3.35,21.03" id="Ske2ds5t312" kvg:type="㇕b" transform="matrix(1,0,0,1,396,-4)" xmlns:kvg="http://kanjivg.tagaini.net"></path><path class="stroke_order_diagram--existing_path" d="M15.42,59.29c4.98-0.68,10.98-0.95,17.81-2" id="Ske2ds5t313" kvg:type="㇐b" transform="matrix(1,0,0,1,396,-4)" xmlns:kvg="http://kanjivg.tagaini.net"></path><path class="stroke_order_diagram--existing_path" d="M34.85,18.45c2.15,0.8,3.9,1.55,6.58,1.58c4.07,0.04,17.42-4.05,19.04-4.05c1.63,0,3.39,1.02,1.76,3.07c-1.62,2.05-9.62,13.06-15.27,18.99" id="Ske2ds5t314" kvg:type="㇖" transform="matrix(1,0,0,1,396,-4)" xmlns:kvg="http://kanjivg.tagaini.net"></path><path class="stroke_order_diagram--current_path" d="M44.07,37.97C54.25,43,59.21,62.4,53.96,86.24c-1.71,7.76-4.46,9.51-10.18,3.07" id="kvg:0543c-s5" kvg:type="㇕v" transform="matrix(1,0,0,1,396,-4)" xmlns:kvg="http://kanjivg.tagaini.net"></path><path class="stroke_order_diagram--current_path" d="M44.07,37.97C54.25,43,59.21,62.4,53.96,86.24c-1.71,7.76-4.46,9.51-10.18,3.07" id="Ske2ds5t316" kvg:type="㇕v" transform="matrix(1,0,0,1,396,-4)" xmlns:kvg="http://kanjivg.tagaini.net"></path><circle class="stroke_order_diagram--path_start" cx="44.07" cy="37.97" r="4" transform="matrix(1,0,0,1,396,-4)"></circle><line class="stroke_order_diagram--guide_line" x1="550" x2="550" y1="1" y2="99"></line><line class="stroke_order_diagram--bounding_box" x1="599" x2="599" y1="1" y2="99"></line><path class="stroke_order_diagram--existing_path" d="M10.75,34.62c0.36,0.46,0.73,0.85,0.89,1.43c1.25,4.58,2.76,17.23,3.61,25.46" id="Ske2ds5t319" kvg:type="㇑" transform="matrix(1,0,0,1,496,-4)" xmlns:kvg="http://kanjivg.tagaini.net"></path><path class="stroke_order_diagram--existing_path" d="M13,36.82c9.13-2.01,14.58-3.23,18.81-3.83c1.55-0.22,2.48,1.3,2.26,2.6c-0.92,5.35-1.99,13.63-3.35,21.03" id="Ske2ds5t31a" kvg:type="㇕b" transform="matrix(1,0,0,1,496,-4)" xmlns:kvg="http://kanjivg.tagaini.net"></path><path class="stroke_order_diagram--existing_path" d="M15.42,59.29c4.98-0.68,10.98-0.95,17.81-2" id="Ske2ds5t31b" kvg:type="㇐b" transform="matrix(1,0,0,1,496,-4)" xmlns:kvg="http://kanjivg.tagaini.net"></path><path class="stroke_order_diagram--existing_path" d="M34.85,18.45c2.15,0.8,3.9,1.55,6.58,1.58c4.07,0.04,17.42-4.05,19.04-4.05c1.63,0,3.39,1.02,1.76,3.07c-1.62,2.05-9.62,13.06-15.27,18.99" id="Ske2ds5t31c" kvg:type="㇖" transform="matrix(1,0,0,1,496,-4)" xmlns:kvg="http://kanjivg.tagaini.net"></path><path class="stroke_order_diagram--existing_path" d="M44.07,37.97C54.25,43,59.21,62.4,53.96,86.24c-1.71,7.76-4.46,9.51-10.18,3.07" id="Ske2ds5t31d" kvg:type="㇕v" transform="matrix(1,0,0,1,496,-4)" xmlns:kvg="http://kanjivg.tagaini.net"></path><path class="stroke_order_diagram--current_path" d="M33,66.87c1.16,0.8,2.79,1.17,4.54,0.07c9.12-5.77,14.76-9.61,25.17-16.47" id="kvg:0543c-s6" kvg:type="㇀/㇐" transform="matrix(1,0,0,1,496,-4)" xmlns:kvg="http://kanjivg.tagaini.net"></path><path class="stroke_order_diagram--current_path" d="M33,66.87c1.16,0.8,2.79,1.17,4.54,0.07c9.12-5.77,14.76-9.61,25.17-16.47" id="Ske2ds5t31f" kvg:type="㇀/㇐" transform="matrix(1,0,0,1,496,-4)" xmlns:kvg="http://kanjivg.tagaini.net"></path><circle class="stroke_order_diagram--path_start" cx="33" cy="66.87" r="4" transform="matrix(1,0,0,1,496,-4)"></circle><line class="stroke_order_diagram--guide_line" x1="650" x2="650" y1="1" y2="99"></line><line class="stroke_order_diagram--bounding_box" x1="699" x2="699" y1="1" y2="99"></line><path class="stroke_order_diagram--existing_path" d="M10.75,34.62c0.36,0.46,0.73,0.85,0.89,1.43c1.25,4.58,2.76,17.23,3.61,25.46" id="Ske2ds5t31i" kvg:type="㇑" transform="matrix(1,0,0,1,596,-4)" xmlns:kvg="http://kanjivg.tagaini.net"></path><path class="stroke_order_diagram--existing_path" d="M13,36.82c9.13-2.01,14.58-3.23,18.81-3.83c1.55-0.22,2.48,1.3,2.26,2.6c-0.92,5.35-1.99,13.63-3.35,21.03" id="Ske2ds5t31j" kvg:type="㇕b" transform="matrix(1,0,0,1,596,-4)" xmlns:kvg="http://kanjivg.tagaini.net"></path><path class="stroke_order_diagram--existing_path" d="M15.42,59.29c4.98-0.68,10.98-0.95,17.81-2" id="Ske2ds5t31k" kvg:type="㇐b" transform="matrix(1,0,0,1,596,-4)" xmlns:kvg="http://kanjivg.tagaini.net"></path><path class="stroke_order_diagram--existing_path" d="M34.85,18.45c2.15,0.8,3.9,1.55,6.58,1.58c4.07,0.04,17.42-4.05,19.04-4.05c1.63,0,3.39,1.02,1.76,3.07c-1.62,2.05-9.62,13.06-15.27,18.99" id="Ske2ds5t31l" kvg:type="㇖" transform="matrix(1,0,0,1,596,-4)" xmlns:kvg="http://kanjivg.tagaini.net"></path><path class="stroke_order_diagram--existing_path" d="M44.07,37.97C54.25,43,59.21,62.4,53.96,86.24c-1.71,7.76-4.46,9.51-10.18,3.07" id="Ske2ds5t31m" kvg:type="㇕v" transform="matrix(1,0,0,1,596,-4)" xmlns:kvg="http://kanjivg.tagaini.net"></path><path class="stroke_order_diagram--existing_path" d="M33,66.87c1.16,0.8,2.79,1.17,4.54,0.07c9.12-5.77,14.76-9.61,25.17-16.47" id="Ske2ds5t31n" kvg:type="㇀/㇐" transform="matrix(1,0,0,1,596,-4)" xmlns:kvg="http://kanjivg.tagaini.net"></path><path class="stroke_order_diagram--current_path" d="M74.47,12.87c0.49,1.25,0.88,2.73,0.9,4.67c0.13,8.63-0.35,54.97-0.35,60.84C75.03,92.08,76.25,94,85.9,94c9.1,0,10.99-1.75,10.99-14.14" id="kvg:0543c-s7" kvg:type="㇟" transform="matrix(1,0,0,1,596,-4)" xmlns:kvg="http://kanjivg.tagaini.net"></path><path class="stroke_order_diagram--current_path" d="M74.47,12.87c0.49,1.25,0.88,2.73,0.9,4.67c0.13,8.63-0.35,54.97-0.35,60.84C75.03,92.08,76.25,94,85.9,94c9.1,0,10.99-1.75,10.99-14.14" id="Ske2ds5t31p" kvg:type="㇟" transform="matrix(1,0,0,1,596,-4)" xmlns:kvg="http://kanjivg.tagaini.net"></path><circle class="stroke_order_diagram--path_start" cx="74.47" cy="12.87" r="4" transform="matrix(1,0,0,1,596,-4)"></circle></svg>