<svg class="stroke_order_diagram--svg_container_for_5186627dd5dda79658000316" style="height: 100px; width: 800px;" viewbox="0 0 800 100"><desc>Created with Snap</desc><defs></defs><line class="stroke_order_diagram--bounding_box" x1="1" x2="799" y1="1" y2="1"></line><line class="stroke_order_diagram--bounding_box" x1="1" x2="1" y1="1" y2="99"></line><line class="stroke_order_diagram--bounding_box" x1="1" x2="799" y1="99" y2="99"></line><line class="stroke_order_diagram--guide_line" x1="0" x2="800" y1="50" y2="50"></line><line class="stroke_order_diagram--guide_line" x1="50" x2="50" y1="1" y2="99"></line><line class="stroke_order_diagram--bounding_box" x1="99" x2="99" y1="1" y2="99"></line><path class="stroke_order_diagram--current_path" d="M12.25,35.08c0.76,0.74,1.2,1.63,1.33,2.68c0.99,3.95,2.06,11.18,2.88,17.46c0.22,1.69,0.42,3.31,0.6,4.78" id="kvg:0547c-s1" kvg:type="㇑" transform="matrix(1,0,0,1,-4,-4)" xmlns:kvg="http://kanjivg.tagaini.net"></path><path class="stroke_order_diagram--current_path" d="M12.25,35.08c0.76,0.74,1.2,1.63,1.33,2.68c0.99,3.95,2.06,11.18,2.88,17.46c0.22,1.69,0.42,3.31,0.6,4.78" id="Ske1tjozdh" kvg:type="㇑" transform="matrix(1,0,0,1,-4,-4)" xmlns:kvg="http://kanjivg.tagaini.net"></path><circle class="stroke_order_diagram--path_start" cx="12.25" cy="35.08" r="4" transform="matrix(1,0,0,1,-4,-4)"></circle><line class="stroke_order_diagram--guide_line" x1="150" x2="150" y1="1" y2="99"></line><line class="stroke_order_diagram--bounding_box" x1="199" x2="199" y1="1" y2="99"></line><path class="stroke_order_diagram--existing_path" d="M12.25,35.08c0.76,0.74,1.2,1.63,1.33,2.68c0.99,3.95,2.06,11.18,2.88,17.46c0.22,1.69,0.42,3.31,0.6,4.78" id="Ske1tjozdk" kvg:type="㇑" transform="matrix(1,0,0,1,96,-4)" xmlns:kvg="http://kanjivg.tagaini.net"></path><path class="stroke_order_diagram--current_path" d="M14.4,36.71c8.72-1.71,16.5-2.94,21.22-3.56c2.13-0.28,3.75,1.35,3.25,3.5c-1.08,4.64-2.02,9.66-3.38,16.06" id="kvg:0547c-s2" kvg:type="㇕b" transform="matrix(1,0,0,1,96,-4)" xmlns:kvg="http://kanjivg.tagaini.net"></path><path class="stroke_order_diagram--current_path" d="M14.4,36.71c8.72-1.71,16.5-2.94,21.22-3.56c2.13-0.28,3.75,1.35,3.25,3.5c-1.08,4.64-2.02,9.66-3.38,16.06" id="Ske1tjozdm" kvg:type="㇕b" transform="matrix(1,0,0,1,96,-4)" xmlns:kvg="http://kanjivg.tagaini.net"></path><circle class="stroke_order_diagram--path_start" cx="14.4" cy="36.71" r="4" transform="matrix(1,0,0,1,96,-4)"></circle><line class="stroke_order_diagram--guide_line" x1="250" x2="250" y1="1" y2="99"></line><line class="stroke_order_diagram--bounding_box" x1="299" x2="299" y1="1" y2="99"></line><path class="stroke_order_diagram--existing_path" d="M12.25,35.08c0.76,0.74,1.2,1.63,1.33,2.68c0.99,3.95,2.06,11.18,2.88,17.46c0.22,1.69,0.42,3.31,0.6,4.78" id="Ske1tjozdp" kvg:type="㇑" transform="matrix(1,0,0,1,196,-4)" xmlns:kvg="http://kanjivg.tagaini.net"></path><path class="stroke_order_diagram--existing_path" d="M14.4,36.71c8.72-1.71,16.5-2.94,21.22-3.56c2.13-0.28,3.75,1.35,3.25,3.5c-1.08,4.64-2.02,9.66-3.38,16.06" id="Ske1tjozdq" kvg:type="㇕b" transform="matrix(1,0,0,1,196,-4)" xmlns:kvg="http://kanjivg.tagaini.net"></path><path class="stroke_order_diagram--current_path" d="M17.24,56.02c4.42-0.53,10.24-1.37,16.27-2.2c1.21-0.17,2.37-0.32,3.64-0.24" id="kvg:0547c-s3" kvg:type="㇐b" transform="matrix(1,0,0,1,196,-4)" xmlns:kvg="http://kanjivg.tagaini.net"></path><path class="stroke_order_diagram--current_path" d="M17.24,56.02c4.42-0.53,10.24-1.37,16.27-2.2c1.21-0.17,2.37-0.32,3.64-0.24" id="Ske1tjozds" kvg:type="㇐b" transform="matrix(1,0,0,1,196,-4)" xmlns:kvg="http://kanjivg.tagaini.net"></path><circle class="stroke_order_diagram--path_start" cx="17.24" cy="56.02" r="4" transform="matrix(1,0,0,1,196,-4)"></circle><line class="stroke_order_diagram--guide_line" x1="350" x2="350" y1="1" y2="99"></line><line class="stroke_order_diagram--bounding_box" x1="399" x2="399" y1="1" y2="99"></line><path class="stroke_order_diagram--existing_path" d="M12.25,35.08c0.76,0.74,1.2,1.63,1.33,2.68c0.99,3.95,2.06,11.18,2.88,17.46c0.22,1.69,0.42,3.31,0.6,4.78" id="Ske1tjozdv" kvg:type="㇑" transform="matrix(1,0,0,1,296,-4)" xmlns:kvg="http://kanjivg.tagaini.net"></path><path class="stroke_order_diagram--existing_path" d="M14.4,36.71c8.72-1.71,16.5-2.94,21.22-3.56c2.13-0.28,3.75,1.35,3.25,3.5c-1.08,4.64-2.02,9.66-3.38,16.06" id="Ske1tjozdw" kvg:type="㇕b" transform="matrix(1,0,0,1,296,-4)" xmlns:kvg="http://kanjivg.tagaini.net"></path><path class="stroke_order_diagram--existing_path" d="M17.24,56.02c4.42-0.53,10.24-1.37,16.27-2.2c1.21-0.17,2.37-0.32,3.64-0.24" id="Ske1tjozdx" kvg:type="㇐b" transform="matrix(1,0,0,1,296,-4)" xmlns:kvg="http://kanjivg.tagaini.net"></path><path class="stroke_order_diagram--current_path" d="M74.92,11.75c0,1.12-0.58,2.25-1.74,2.95C67,18.5,57.12,22.62,43.62,26.54" id="kvg:0547c-s4" kvg:type="㇒" transform="matrix(1,0,0,1,296,-4)" xmlns:kvg="http://kanjivg.tagaini.net"></path><path class="stroke_order_diagram--current_path" d="M74.92,11.75c0,1.12-0.58,2.25-1.74,2.95C67,18.5,57.12,22.62,43.62,26.54" id="Ske1tjozdz" kvg:type="㇒" transform="matrix(1,0,0,1,296,-4)" xmlns:kvg="http://kanjivg.tagaini.net"></path><circle class="stroke_order_diagram--path_start" cx="74.92" cy="11.75" r="4" transform="matrix(1,0,0,1,296,-4)"></circle><line class="stroke_order_diagram--guide_line" x1="450" x2="450" y1="1" y2="99"></line><line class="stroke_order_diagram--bounding_box" x1="499" x2="499" y1="1" y2="99"></line><path class="stroke_order_diagram--existing_path" d="M12.25,35.08c0.76,0.74,1.2,1.63,1.33,2.68c0.99,3.95,2.06,11.18,2.88,17.46c0.22,1.69,0.42,3.31,0.6,4.78" id="Ske1tjozd12" kvg:type="㇑" transform="matrix(1,0,0,1,396,-4)" xmlns:kvg="http://kanjivg.tagaini.net"></path><path class="stroke_order_diagram--existing_path" d="M14.4,36.71c8.72-1.71,16.5-2.94,21.22-3.56c2.13-0.28,3.75,1.35,3.25,3.5c-1.08,4.64-2.02,9.66-3.38,16.06" id="Ske1tjozd13" kvg:type="㇕b" transform="matrix(1,0,0,1,396,-4)" xmlns:kvg="http://kanjivg.tagaini.net"></path><path class="stroke_order_diagram--existing_path" d="M17.24,56.02c4.42-0.53,10.24-1.37,16.27-2.2c1.21-0.17,2.37-0.32,3.64-0.24" id="Ske1tjozd14" kvg:type="㇐b" transform="matrix(1,0,0,1,396,-4)" xmlns:kvg="http://kanjivg.tagaini.net"></path><path class="stroke_order_diagram--existing_path" d="M74.92,11.75c0,1.12-0.58,2.25-1.74,2.95C67,18.5,57.12,22.62,43.62,26.54" id="Ske1tjozd15" kvg:type="㇒" transform="matrix(1,0,0,1,396,-4)" xmlns:kvg="http://kanjivg.tagaini.net"></path><path class="stroke_order_diagram--current_path" d="M47.75,35c2.33,2.33,6.02,9.59,6.6,13.22" id="kvg:0547c-s5" kvg:type="㇔" transform="matrix(1,0,0,1,396,-4)" xmlns:kvg="http://kanjivg.tagaini.net"></path><path class="stroke_order_diagram--current_path" d="M47.75,35c2.33,2.33,6.02,9.59,6.6,13.22" id="Ske1tjozd17" kvg:type="㇔" transform="matrix(1,0,0,1,396,-4)" xmlns:kvg="http://kanjivg.tagaini.net"></path><circle class="stroke_order_diagram--path_start" cx="47.75" cy="35" r="4" transform="matrix(1,0,0,1,396,-4)"></circle><line class="stroke_order_diagram--guide_line" x1="550" x2="550" y1="1" y2="99"></line><line class="stroke_order_diagram--bounding_box" x1="599" x2="599" y1="1" y2="99"></line><path class="stroke_order_diagram--existing_path" d="M12.25,35.08c0.76,0.74,1.2,1.63,1.33,2.68c0.99,3.95,2.06,11.18,2.88,17.46c0.22,1.69,0.42,3.31,0.6,4.78" id="Ske1tjozd1a" kvg:type="㇑" transform="matrix(1,0,0,1,496,-4)" xmlns:kvg="http://kanjivg.tagaini.net"></path><path class="stroke_order_diagram--existing_path" d="M14.4,36.71c8.72-1.71,16.5-2.94,21.22-3.56c2.13-0.28,3.75,1.35,3.25,3.5c-1.08,4.64-2.02,9.66-3.38,16.06" id="Ske1tjozd1b" kvg:type="㇕b" transform="matrix(1,0,0,1,496,-4)" xmlns:kvg="http://kanjivg.tagaini.net"></path><path class="stroke_order_diagram--existing_path" d="M17.24,56.02c4.42-0.53,10.24-1.37,16.27-2.2c1.21-0.17,2.37-0.32,3.64-0.24" id="Ske1tjozd1c" kvg:type="㇐b" transform="matrix(1,0,0,1,496,-4)" xmlns:kvg="http://kanjivg.tagaini.net"></path><path class="stroke_order_diagram--existing_path" d="M74.92,11.75c0,1.12-0.58,2.25-1.74,2.95C67,18.5,57.12,22.62,43.62,26.54" id="Ske1tjozd1d" kvg:type="㇒" transform="matrix(1,0,0,1,496,-4)" xmlns:kvg="http://kanjivg.tagaini.net"></path><path class="stroke_order_diagram--existing_path" d="M47.75,35c2.33,2.33,6.02,9.59,6.6,13.22" id="Ske1tjozd1e" kvg:type="㇔" transform="matrix(1,0,0,1,496,-4)" xmlns:kvg="http://kanjivg.tagaini.net"></path><path class="stroke_order_diagram--current_path" d="M88.68,25.39c0.09,0.99,0.02,1.97-0.33,2.89c-1.73,4.59-4.98,10.34-9.92,15.81" id="kvg:0547c-s6" kvg:type="㇒" transform="matrix(1,0,0,1,496,-4)" xmlns:kvg="http://kanjivg.tagaini.net"></path><path class="stroke_order_diagram--current_path" d="M88.68,25.39c0.09,0.99,0.02,1.97-0.33,2.89c-1.73,4.59-4.98,10.34-9.92,15.81" id="Ske1tjozd1g" kvg:type="㇒" transform="matrix(1,0,0,1,496,-4)" xmlns:kvg="http://kanjivg.tagaini.net"></path><circle class="stroke_order_diagram--path_start" cx="88.68" cy="25.39" r="4" transform="matrix(1,0,0,1,496,-4)"></circle><line class="stroke_order_diagram--guide_line" x1="650" x2="650" y1="1" y2="99"></line><line class="stroke_order_diagram--bounding_box" x1="699" x2="699" y1="1" y2="99"></line><path class="stroke_order_diagram--existing_path" d="M12.25,35.08c0.76,0.74,1.2,1.63,1.33,2.68c0.99,3.95,2.06,11.18,2.88,17.46c0.22,1.69,0.42,3.31,0.6,4.78" id="Ske1tjozd1j" kvg:type="㇑" transform="matrix(1,0,0,1,596,-4)" xmlns:kvg="http://kanjivg.tagaini.net"></path><path class="stroke_order_diagram--existing_path" d="M14.4,36.71c8.72-1.71,16.5-2.94,21.22-3.56c2.13-0.28,3.75,1.35,3.25,3.5c-1.08,4.64-2.02,9.66-3.38,16.06" id="Ske1tjozd1k" kvg:type="㇕b" transform="matrix(1,0,0,1,596,-4)" xmlns:kvg="http://kanjivg.tagaini.net"></path><path class="stroke_order_diagram--existing_path" d="M17.24,56.02c4.42-0.53,10.24-1.37,16.27-2.2c1.21-0.17,2.37-0.32,3.64-0.24" id="Ske1tjozd1l" kvg:type="㇐b" transform="matrix(1,0,0,1,596,-4)" xmlns:kvg="http://kanjivg.tagaini.net"></path><path class="stroke_order_diagram--existing_path" d="M74.92,11.75c0,1.12-0.58,2.25-1.74,2.95C67,18.5,57.12,22.62,43.62,26.54" id="Ske1tjozd1m" kvg:type="㇒" transform="matrix(1,0,0,1,596,-4)" xmlns:kvg="http://kanjivg.tagaini.net"></path><path class="stroke_order_diagram--existing_path" d="M47.75,35c2.33,2.33,6.02,9.59,6.6,13.22" id="Ske1tjozd1n" kvg:type="㇔" transform="matrix(1,0,0,1,596,-4)" xmlns:kvg="http://kanjivg.tagaini.net"></path><path class="stroke_order_diagram--existing_path" d="M88.68,25.39c0.09,0.99,0.02,1.97-0.33,2.89c-1.73,4.59-4.98,10.34-9.92,15.81" id="Ske1tjozd1o" kvg:type="㇒" transform="matrix(1,0,0,1,596,-4)" xmlns:kvg="http://kanjivg.tagaini.net"></path><path class="stroke_order_diagram--current_path" d="M35.75,61.12c3.12,0.63,7.64,0.08,10.63-0.46c10.7-1.92,30.94-5.38,43.38-6.49c3.04-0.27,6-0.54,9,0.2" id="kvg:0547c-s7" kvg:type="㇐" transform="matrix(1,0,0,1,596,-4)" xmlns:kvg="http://kanjivg.tagaini.net"></path><path class="stroke_order_diagram--current_path" d="M35.75,61.12c3.12,0.63,7.64,0.08,10.63-0.46c10.7-1.92,30.94-5.38,43.38-6.49c3.04-0.27,6-0.54,9,0.2" id="Ske1tjozd1q" kvg:type="㇐" transform="matrix(1,0,0,1,596,-4)" xmlns:kvg="http://kanjivg.tagaini.net"></path><circle class="stroke_order_diagram--path_start" cx="35.75" cy="61.12" r="4" transform="matrix(1,0,0,1,596,-4)"></circle><line class="stroke_order_diagram--guide_line" x1="750" x2="750" y1="1" y2="99"></line><line class="stroke_order_diagram--bounding_box" x1="799" x2="799" y1="1" y2="99"></line><path class="stroke_order_diagram--existing_path" d="M12.25,35.08c0.76,0.74,1.2,1.63,1.33,2.68c0.99,3.95,2.06,11.18,2.88,17.46c0.22,1.69,0.42,3.31,0.6,4.78" id="Ske1tjozd1t" kvg:type="㇑" transform="matrix(1,0,0,1,696,-4)" xmlns:kvg="http://kanjivg.tagaini.net"></path><path class="stroke_order_diagram--existing_path" d="M14.4,36.71c8.72-1.71,16.5-2.94,21.22-3.56c2.13-0.28,3.75,1.35,3.25,3.5c-1.08,4.64-2.02,9.66-3.38,16.06" id="Ske1tjozd1u" kvg:type="㇕b" transform="matrix(1,0,0,1,696,-4)" xmlns:kvg="http://kanjivg.tagaini.net"></path><path class="stroke_order_diagram--existing_path" d="M17.24,56.02c4.42-0.53,10.24-1.37,16.27-2.2c1.21-0.17,2.37-0.32,3.64-0.24" id="Ske1tjozd1v" kvg:type="㇐b" transform="matrix(1,0,0,1,696,-4)" xmlns:kvg="http://kanjivg.tagaini.net"></path><path class="stroke_order_diagram--existing_path" d="M74.92,11.75c0,1.12-0.58,2.25-1.74,2.95C67,18.5,57.12,22.62,43.62,26.54" id="Ske1tjozd1w" kvg:type="㇒" transform="matrix(1,0,0,1,696,-4)" xmlns:kvg="http://kanjivg.tagaini.net"></path><path class="stroke_order_diagram--existing_path" d="M47.75,35c2.33,2.33,6.02,9.59,6.6,13.22" id="Ske1tjozd1x" kvg:type="㇔" transform="matrix(1,0,0,1,696,-4)" xmlns:kvg="http://kanjivg.tagaini.net"></path><path class="stroke_order_diagram--existing_path" d="M88.68,25.39c0.09,0.99,0.02,1.97-0.33,2.89c-1.73,4.59-4.98,10.34-9.92,15.81" id="Ske1tjozd1y" kvg:type="㇒" transform="matrix(1,0,0,1,696,-4)" xmlns:kvg="http://kanjivg.tagaini.net"></path><path class="stroke_order_diagram--existing_path" d="M35.75,61.12c3.12,0.63,7.64,0.08,10.63-0.46c10.7-1.92,30.94-5.38,43.38-6.49c3.04-0.27,6-0.54,9,0.2" id="Ske1tjozd1z" kvg:type="㇐" transform="matrix(1,0,0,1,696,-4)" xmlns:kvg="http://kanjivg.tagaini.net"></path><path class="stroke_order_diagram--current_path" d="M63.66,22.96C72,33.88,72.62,66.5,67.68,90.34c-2.18,10.5-9.05,1.09-10.43-0.18" id="kvg:0547c-s8" kvg:type="㇕v" transform="matrix(1,0,0,1,696,-4)" xmlns:kvg="http://kanjivg.tagaini.net"></path><path class="stroke_order_diagram--current_path" d="M63.66,22.96C72,33.88,72.62,66.5,67.68,90.34c-2.18,10.5-9.05,1.09-10.43-0.18" id="Ske1tjozd21" kvg:type="㇕v" transform="matrix(1,0,0,1,696,-4)" xmlns:kvg="http://kanjivg.tagaini.net"></path><circle class="stroke_order_diagram--path_start" cx="63.66" cy="22.96" r="4" transform="matrix(1,0,0,1,696,-4)"></circle></svg>