<svg class="stroke_order_diagram--svg_container_for_51866280d5dda796580003fc" style="height: 100px; width: 800px;" viewbox="0 0 800 100"><desc>Created with Snap</desc><defs></defs><line class="stroke_order_diagram--bounding_box" x1="1" x2="799" y1="1" y2="1"></line><line class="stroke_order_diagram--bounding_box" x1="1" x2="1" y1="1" y2="99"></line><line class="stroke_order_diagram--bounding_box" x1="1" x2="799" y1="99" y2="99"></line><line class="stroke_order_diagram--guide_line" x1="0" x2="800" y1="50" y2="50"></line><line class="stroke_order_diagram--guide_line" x1="50" x2="50" y1="1" y2="99"></line><line class="stroke_order_diagram--bounding_box" x1="99" x2="99" y1="1" y2="99"></line><path class="stroke_order_diagram--current_path" d="M11.5,27.54c1.11,1.1,1.43,2.24,1.51,3.43c0.72,5.71,1.64,14.09,2.39,21.42c0.27,2.65,0.53,5.16,0.74,7.37" id="kvg:0548b-s1" kvg:type="㇑" transform="matrix(1,0,0,1,-4,-4)" xmlns:kvg="http://kanjivg.tagaini.net"></path><path class="stroke_order_diagram--current_path" d="M11.5,27.54c1.11,1.1,1.43,2.24,1.51,3.43c0.72,5.71,1.64,14.09,2.39,21.42c0.27,2.65,0.53,5.16,0.74,7.37" id="Ske1vfbllh" kvg:type="㇑" transform="matrix(1,0,0,1,-4,-4)" xmlns:kvg="http://kanjivg.tagaini.net"></path><circle class="stroke_order_diagram--path_start" cx="11.5" cy="27.54" r="4" transform="matrix(1,0,0,1,-4,-4)"></circle><line class="stroke_order_diagram--guide_line" x1="150" x2="150" y1="1" y2="99"></line><line class="stroke_order_diagram--bounding_box" x1="199" x2="199" y1="1" y2="99"></line><path class="stroke_order_diagram--existing_path" d="M11.5,27.54c1.11,1.1,1.43,2.24,1.51,3.43c0.72,5.71,1.64,14.09,2.39,21.42c0.27,2.65,0.53,5.16,0.74,7.37" id="Ske1vfbllk" kvg:type="㇑" transform="matrix(1,0,0,1,96,-4)" xmlns:kvg="http://kanjivg.tagaini.net"></path><path class="stroke_order_diagram--current_path" d="M14.08,30.22c8.38-1.73,12.55-2.5,16.32-3.47c1.98-0.51,4.23,0.37,3.92,2.61c-0.8,5.94-2.05,14.07-3.46,22.25" id="kvg:0548b-s2" kvg:type="㇕b" transform="matrix(1,0,0,1,96,-4)" xmlns:kvg="http://kanjivg.tagaini.net"></path><path class="stroke_order_diagram--current_path" d="M14.08,30.22c8.38-1.73,12.55-2.5,16.32-3.47c1.98-0.51,4.23,0.37,3.92,2.61c-0.8,5.94-2.05,14.07-3.46,22.25" id="Ske1vfbllm" kvg:type="㇕b" transform="matrix(1,0,0,1,96,-4)" xmlns:kvg="http://kanjivg.tagaini.net"></path><circle class="stroke_order_diagram--path_start" cx="14.08" cy="30.22" r="4" transform="matrix(1,0,0,1,96,-4)"></circle><line class="stroke_order_diagram--guide_line" x1="250" x2="250" y1="1" y2="99"></line><line class="stroke_order_diagram--bounding_box" x1="299" x2="299" y1="1" y2="99"></line><path class="stroke_order_diagram--existing_path" d="M11.5,27.54c1.11,1.1,1.43,2.24,1.51,3.43c0.72,5.71,1.64,14.09,2.39,21.42c0.27,2.65,0.53,5.16,0.74,7.37" id="Ske1vfbllp" kvg:type="㇑" transform="matrix(1,0,0,1,196,-4)" xmlns:kvg="http://kanjivg.tagaini.net"></path><path class="stroke_order_diagram--existing_path" d="M14.08,30.22c8.38-1.73,12.55-2.5,16.32-3.47c1.98-0.51,4.23,0.37,3.92,2.61c-0.8,5.94-2.05,14.07-3.46,22.25" id="Ske1vfbllq" kvg:type="㇕b" transform="matrix(1,0,0,1,196,-4)" xmlns:kvg="http://kanjivg.tagaini.net"></path><path class="stroke_order_diagram--current_path" d="M16.57,54.8c3.84-0.56,7.77-1.15,12.41-1.79c1.57-0.22,3.22-0.44,4.97-0.67" id="kvg:0548b-s3" kvg:type="㇐b" transform="matrix(1,0,0,1,196,-4)" xmlns:kvg="http://kanjivg.tagaini.net"></path><path class="stroke_order_diagram--current_path" d="M16.57,54.8c3.84-0.56,7.77-1.15,12.41-1.79c1.57-0.22,3.22-0.44,4.97-0.67" id="Ske1vfblls" kvg:type="㇐b" transform="matrix(1,0,0,1,196,-4)" xmlns:kvg="http://kanjivg.tagaini.net"></path><circle class="stroke_order_diagram--path_start" cx="16.57" cy="54.8" r="4" transform="matrix(1,0,0,1,196,-4)"></circle><line class="stroke_order_diagram--guide_line" x1="350" x2="350" y1="1" y2="99"></line><line class="stroke_order_diagram--bounding_box" x1="399" x2="399" y1="1" y2="99"></line><path class="stroke_order_diagram--existing_path" d="M11.5,27.54c1.11,1.1,1.43,2.24,1.51,3.43c0.72,5.71,1.64,14.09,2.39,21.42c0.27,2.65,0.53,5.16,0.74,7.37" id="Ske1vfbllv" kvg:type="㇑" transform="matrix(1,0,0,1,296,-4)" xmlns:kvg="http://kanjivg.tagaini.net"></path><path class="stroke_order_diagram--existing_path" d="M14.08,30.22c8.38-1.73,12.55-2.5,16.32-3.47c1.98-0.51,4.23,0.37,3.92,2.61c-0.8,5.94-2.05,14.07-3.46,22.25" id="Ske1vfbllw" kvg:type="㇕b" transform="matrix(1,0,0,1,296,-4)" xmlns:kvg="http://kanjivg.tagaini.net"></path><path class="stroke_order_diagram--existing_path" d="M16.57,54.8c3.84-0.56,7.77-1.15,12.41-1.79c1.57-0.22,3.22-0.44,4.97-0.67" id="Ske1vfbllx" kvg:type="㇐b" transform="matrix(1,0,0,1,296,-4)" xmlns:kvg="http://kanjivg.tagaini.net"></path><path class="stroke_order_diagram--current_path" d="M55.76,13c0.04,0.98-0.15,2.35-0.58,3.68C51.5,28.12,48.12,39.5,40.31,53.5" id="kvg:0548b-s4" kvg:type="㇒" transform="matrix(1,0,0,1,296,-4)" xmlns:kvg="http://kanjivg.tagaini.net"></path><path class="stroke_order_diagram--current_path" d="M55.76,13c0.04,0.98-0.15,2.35-0.58,3.68C51.5,28.12,48.12,39.5,40.31,53.5" id="Ske1vfbllz" kvg:type="㇒" transform="matrix(1,0,0,1,296,-4)" xmlns:kvg="http://kanjivg.tagaini.net"></path><circle class="stroke_order_diagram--path_start" cx="55.76" cy="13" r="4" transform="matrix(1,0,0,1,296,-4)"></circle><line class="stroke_order_diagram--guide_line" x1="450" x2="450" y1="1" y2="99"></line><line class="stroke_order_diagram--bounding_box" x1="499" x2="499" y1="1" y2="99"></line><path class="stroke_order_diagram--existing_path" d="M11.5,27.54c1.11,1.1,1.43,2.24,1.51,3.43c0.72,5.71,1.64,14.09,2.39,21.42c0.27,2.65,0.53,5.16,0.74,7.37" id="Ske1vfbll12" kvg:type="㇑" transform="matrix(1,0,0,1,396,-4)" xmlns:kvg="http://kanjivg.tagaini.net"></path><path class="stroke_order_diagram--existing_path" d="M14.08,30.22c8.38-1.73,12.55-2.5,16.32-3.47c1.98-0.51,4.23,0.37,3.92,2.61c-0.8,5.94-2.05,14.07-3.46,22.25" id="Ske1vfbll13" kvg:type="㇕b" transform="matrix(1,0,0,1,396,-4)" xmlns:kvg="http://kanjivg.tagaini.net"></path><path class="stroke_order_diagram--existing_path" d="M16.57,54.8c3.84-0.56,7.77-1.15,12.41-1.79c1.57-0.22,3.22-0.44,4.97-0.67" id="Ske1vfbll14" kvg:type="㇐b" transform="matrix(1,0,0,1,396,-4)" xmlns:kvg="http://kanjivg.tagaini.net"></path><path class="stroke_order_diagram--existing_path" d="M55.76,13c0.04,0.98-0.15,2.35-0.58,3.68C51.5,28.12,48.12,39.5,40.31,53.5" id="Ske1vfbll15" kvg:type="㇒" transform="matrix(1,0,0,1,396,-4)" xmlns:kvg="http://kanjivg.tagaini.net"></path><path class="stroke_order_diagram--current_path" d="M54.36,31.67c2.52,0.25,5.02,0.13,7.51-0.35c9.17-1.32,20.36-3.94,27.96-5.31c2.53-0.7,5.17-0.76,7.63-0.64" id="kvg:0548b-s5" kvg:type="㇐" transform="matrix(1,0,0,1,396,-4)" xmlns:kvg="http://kanjivg.tagaini.net"></path><path class="stroke_order_diagram--current_path" d="M54.36,31.67c2.52,0.25,5.02,0.13,7.51-0.35c9.17-1.32,20.36-3.94,27.96-5.31c2.53-0.7,5.17-0.76,7.63-0.64" id="Ske1vfbll17" kvg:type="㇐" transform="matrix(1,0,0,1,396,-4)" xmlns:kvg="http://kanjivg.tagaini.net"></path><circle class="stroke_order_diagram--path_start" cx="54.36" cy="31.67" r="4" transform="matrix(1,0,0,1,396,-4)"></circle><line class="stroke_order_diagram--guide_line" x1="550" x2="550" y1="1" y2="99"></line><line class="stroke_order_diagram--bounding_box" x1="599" x2="599" y1="1" y2="99"></line><path class="stroke_order_diagram--existing_path" d="M11.5,27.54c1.11,1.1,1.43,2.24,1.51,3.43c0.72,5.71,1.64,14.09,2.39,21.42c0.27,2.65,0.53,5.16,0.74,7.37" id="Ske1vfbll1a" kvg:type="㇑" transform="matrix(1,0,0,1,496,-4)" xmlns:kvg="http://kanjivg.tagaini.net"></path><path class="stroke_order_diagram--existing_path" d="M14.08,30.22c8.38-1.73,12.55-2.5,16.32-3.47c1.98-0.51,4.23,0.37,3.92,2.61c-0.8,5.94-2.05,14.07-3.46,22.25" id="Ske1vfbll1b" kvg:type="㇕b" transform="matrix(1,0,0,1,496,-4)" xmlns:kvg="http://kanjivg.tagaini.net"></path><path class="stroke_order_diagram--existing_path" d="M16.57,54.8c3.84-0.56,7.77-1.15,12.41-1.79c1.57-0.22,3.22-0.44,4.97-0.67" id="Ske1vfbll1c" kvg:type="㇐b" transform="matrix(1,0,0,1,496,-4)" xmlns:kvg="http://kanjivg.tagaini.net"></path><path class="stroke_order_diagram--existing_path" d="M55.76,13c0.04,0.98-0.15,2.35-0.58,3.68C51.5,28.12,48.12,39.5,40.31,53.5" id="Ske1vfbll1d" kvg:type="㇒" transform="matrix(1,0,0,1,496,-4)" xmlns:kvg="http://kanjivg.tagaini.net"></path><path class="stroke_order_diagram--existing_path" d="M54.36,31.67c2.52,0.25,5.02,0.13,7.51-0.35c9.17-1.32,20.36-3.94,27.96-5.31c2.53-0.7,5.17-0.76,7.63-0.64" id="Ske1vfbll1e" kvg:type="㇐" transform="matrix(1,0,0,1,496,-4)" xmlns:kvg="http://kanjivg.tagaini.net"></path><path class="stroke_order_diagram--current_path" d="M62.5,33.25c1.13,1.13,1.19,2.25,1.19,3.84c0,0.74-0.04,31.76-0.06,49.66c-0.01,5.61-0.01,9.93-0.01,11.62" id="kvg:0548b-s6" kvg:type="㇑" transform="matrix(1,0,0,1,496,-4)" xmlns:kvg="http://kanjivg.tagaini.net"></path><path class="stroke_order_diagram--current_path" d="M62.5,33.25c1.13,1.13,1.19,2.25,1.19,3.84c0,0.74-0.04,31.76-0.06,49.66c-0.01,5.61-0.01,9.93-0.01,11.62" id="Ske1vfbll1g" kvg:type="㇑" transform="matrix(1,0,0,1,496,-4)" xmlns:kvg="http://kanjivg.tagaini.net"></path><circle class="stroke_order_diagram--path_start" cx="62.5" cy="33.25" r="4" transform="matrix(1,0,0,1,496,-4)"></circle><line class="stroke_order_diagram--guide_line" x1="650" x2="650" y1="1" y2="99"></line><line class="stroke_order_diagram--bounding_box" x1="699" x2="699" y1="1" y2="99"></line><path class="stroke_order_diagram--existing_path" d="M11.5,27.54c1.11,1.1,1.43,2.24,1.51,3.43c0.72,5.71,1.64,14.09,2.39,21.42c0.27,2.65,0.53,5.16,0.74,7.37" id="Ske1vfbll1j" kvg:type="㇑" transform="matrix(1,0,0,1,596,-4)" xmlns:kvg="http://kanjivg.tagaini.net"></path><path class="stroke_order_diagram--existing_path" d="M14.08,30.22c8.38-1.73,12.55-2.5,16.32-3.47c1.98-0.51,4.23,0.37,3.92,2.61c-0.8,5.94-2.05,14.07-3.46,22.25" id="Ske1vfbll1k" kvg:type="㇕b" transform="matrix(1,0,0,1,596,-4)" xmlns:kvg="http://kanjivg.tagaini.net"></path><path class="stroke_order_diagram--existing_path" d="M16.57,54.8c3.84-0.56,7.77-1.15,12.41-1.79c1.57-0.22,3.22-0.44,4.97-0.67" id="Ske1vfbll1l" kvg:type="㇐b" transform="matrix(1,0,0,1,596,-4)" xmlns:kvg="http://kanjivg.tagaini.net"></path><path class="stroke_order_diagram--existing_path" d="M55.76,13c0.04,0.98-0.15,2.35-0.58,3.68C51.5,28.12,48.12,39.5,40.31,53.5" id="Ske1vfbll1m" kvg:type="㇒" transform="matrix(1,0,0,1,596,-4)" xmlns:kvg="http://kanjivg.tagaini.net"></path><path class="stroke_order_diagram--existing_path" d="M54.36,31.67c2.52,0.25,5.02,0.13,7.51-0.35c9.17-1.32,20.36-3.94,27.96-5.31c2.53-0.7,5.17-0.76,7.63-0.64" id="Ske1vfbll1n" kvg:type="㇐" transform="matrix(1,0,0,1,596,-4)" xmlns:kvg="http://kanjivg.tagaini.net"></path><path class="stroke_order_diagram--existing_path" d="M62.5,33.25c1.13,1.13,1.19,2.25,1.19,3.84c0,0.74-0.04,31.76-0.06,49.66c-0.01,5.61-0.01,9.93-0.01,11.62" id="Ske1vfbll1o" kvg:type="㇑" transform="matrix(1,0,0,1,596,-4)" xmlns:kvg="http://kanjivg.tagaini.net"></path><path class="stroke_order_diagram--current_path" d="M65.32,48.38c5.65-0.95,12.61-2.46,18.92-3.42c2.05-0.45,4.13-0.5,6.23-0.13" id="kvg:0548b-s7" kvg:type="㇐b" transform="matrix(1,0,0,1,596,-4)" xmlns:kvg="http://kanjivg.tagaini.net"></path><path class="stroke_order_diagram--current_path" d="M65.32,48.38c5.65-0.95,12.61-2.46,18.92-3.42c2.05-0.45,4.13-0.5,6.23-0.13" id="Ske1vfbll1q" kvg:type="㇐b" transform="matrix(1,0,0,1,596,-4)" xmlns:kvg="http://kanjivg.tagaini.net"></path><circle class="stroke_order_diagram--path_start" cx="65.32" cy="48.38" r="4" transform="matrix(1,0,0,1,596,-4)"></circle><line class="stroke_order_diagram--guide_line" x1="750" x2="750" y1="1" y2="99"></line><line class="stroke_order_diagram--bounding_box" x1="799" x2="799" y1="1" y2="99"></line><path class="stroke_order_diagram--existing_path" d="M11.5,27.54c1.11,1.1,1.43,2.24,1.51,3.43c0.72,5.71,1.64,14.09,2.39,21.42c0.27,2.65,0.53,5.16,0.74,7.37" id="Ske1vfbll1t" kvg:type="㇑" transform="matrix(1,0,0,1,696,-4)" xmlns:kvg="http://kanjivg.tagaini.net"></path><path class="stroke_order_diagram--existing_path" d="M14.08,30.22c8.38-1.73,12.55-2.5,16.32-3.47c1.98-0.51,4.23,0.37,3.92,2.61c-0.8,5.94-2.05,14.07-3.46,22.25" id="Ske1vfbll1u" kvg:type="㇕b" transform="matrix(1,0,0,1,696,-4)" xmlns:kvg="http://kanjivg.tagaini.net"></path><path class="stroke_order_diagram--existing_path" d="M16.57,54.8c3.84-0.56,7.77-1.15,12.41-1.79c1.57-0.22,3.22-0.44,4.97-0.67" id="Ske1vfbll1v" kvg:type="㇐b" transform="matrix(1,0,0,1,696,-4)" xmlns:kvg="http://kanjivg.tagaini.net"></path><path class="stroke_order_diagram--existing_path" d="M55.76,13c0.04,0.98-0.15,2.35-0.58,3.68C51.5,28.12,48.12,39.5,40.31,53.5" id="Ske1vfbll1w" kvg:type="㇒" transform="matrix(1,0,0,1,696,-4)" xmlns:kvg="http://kanjivg.tagaini.net"></path><path class="stroke_order_diagram--existing_path" d="M54.36,31.67c2.52,0.25,5.02,0.13,7.51-0.35c9.17-1.32,20.36-3.94,27.96-5.31c2.53-0.7,5.17-0.76,7.63-0.64" id="Ske1vfbll1x" kvg:type="㇐" transform="matrix(1,0,0,1,696,-4)" xmlns:kvg="http://kanjivg.tagaini.net"></path><path class="stroke_order_diagram--existing_path" d="M62.5,33.25c1.13,1.13,1.19,2.25,1.19,3.84c0,0.74-0.04,31.76-0.06,49.66c-0.01,5.61-0.01,9.93-0.01,11.62" id="Ske1vfbll1y" kvg:type="㇑" transform="matrix(1,0,0,1,696,-4)" xmlns:kvg="http://kanjivg.tagaini.net"></path><path class="stroke_order_diagram--existing_path" d="M65.32,48.38c5.65-0.95,12.61-2.46,18.92-3.42c2.05-0.45,4.13-0.5,6.23-0.13" id="Ske1vfbll1z" kvg:type="㇐b" transform="matrix(1,0,0,1,696,-4)" xmlns:kvg="http://kanjivg.tagaini.net"></path><path class="stroke_order_diagram--current_path" d="M64.99,67.84c4.85-0.58,12.34-1.98,23.02-3.29c2.56-0.49,5.14-0.53,7.73-0.13" id="kvg:0548b-s8" kvg:type="㇐b" transform="matrix(1,0,0,1,696,-4)" xmlns:kvg="http://kanjivg.tagaini.net"></path><path class="stroke_order_diagram--current_path" d="M64.99,67.84c4.85-0.58,12.34-1.98,23.02-3.29c2.56-0.49,5.14-0.53,7.73-0.13" id="Ske1vfbll21" kvg:type="㇐b" transform="matrix(1,0,0,1,696,-4)" xmlns:kvg="http://kanjivg.tagaini.net"></path><circle class="stroke_order_diagram--path_start" cx="64.99" cy="67.84" r="4" transform="matrix(1,0,0,1,696,-4)"></circle></svg>