<svg class="stroke_order_diagram--svg_container_for_5186628fd5dda796580007c5" style="height: 100px; width: 1000px;" viewbox="0 0 1000 100"><desc>Created with Snap</desc><defs></defs><line class="stroke_order_diagram--bounding_box" x1="1" x2="999" y1="1" y2="1"></line><line class="stroke_order_diagram--bounding_box" x1="1" x2="1" y1="1" y2="99"></line><line class="stroke_order_diagram--bounding_box" x1="1" x2="999" y1="99" y2="99"></line><line class="stroke_order_diagram--guide_line" x1="0" x2="1000" y1="50" y2="50"></line><line class="stroke_order_diagram--guide_line" x1="50" x2="50" y1="1" y2="99"></line><line class="stroke_order_diagram--bounding_box" x1="99" x2="99" y1="1" y2="99"></line><path class="stroke_order_diagram--current_path" d="M14.25,29.76c1.99,0.23,3.89,0.3,5.89,0.1c5.04-0.52,14.17-2.32,21.85-3.92c0.83-0.17,2.14-0.32,3.18-0.25" id="kvg:054f2-s1" kvg:type="㇐" transform="matrix(1,0,0,1,-4,-4)" xmlns:kvg="http://kanjivg.tagaini.net"></path><path class="stroke_order_diagram--current_path" d="M14.25,29.76c1.99,0.23,3.89,0.3,5.89,0.1c5.04-0.52,14.17-2.32,21.85-3.92c0.83-0.17,2.14-0.32,3.18-0.25" id="Ske23thr5j" kvg:type="㇐" transform="matrix(1,0,0,1,-4,-4)" xmlns:kvg="http://kanjivg.tagaini.net"></path><circle class="stroke_order_diagram--path_start" cx="14.25" cy="29.76" r="4" transform="matrix(1,0,0,1,-4,-4)"></circle><line class="stroke_order_diagram--guide_line" x1="150" x2="150" y1="1" y2="99"></line><line class="stroke_order_diagram--bounding_box" x1="199" x2="199" y1="1" y2="99"></line><path class="stroke_order_diagram--existing_path" d="M14.25,29.76c1.99,0.23,3.89,0.3,5.89,0.1c5.04-0.52,14.17-2.32,21.85-3.92c0.83-0.17,2.14-0.32,3.18-0.25" id="Ske23thr5m" kvg:type="㇐" transform="matrix(1,0,0,1,96,-4)" xmlns:kvg="http://kanjivg.tagaini.net"></path><path class="stroke_order_diagram--current_path" d="M34.77,12.33c1.08,1.08,1.51,2.67,1.51,4.61c0,12.15-0.01,36.38-0.01,40.52c0,10.67-6.21,2.09-7.71,1.04" id="kvg:054f2-s2" kvg:type="㇚" transform="matrix(1,0,0,1,96,-4)" xmlns:kvg="http://kanjivg.tagaini.net"></path><path class="stroke_order_diagram--current_path" d="M34.77,12.33c1.08,1.08,1.51,2.67,1.51,4.61c0,12.15-0.01,36.38-0.01,40.52c0,10.67-6.21,2.09-7.71,1.04" id="Ske23thr5o" kvg:type="㇚" transform="matrix(1,0,0,1,96,-4)" xmlns:kvg="http://kanjivg.tagaini.net"></path><circle class="stroke_order_diagram--path_start" cx="34.77" cy="12.33" r="4" transform="matrix(1,0,0,1,96,-4)"></circle><line class="stroke_order_diagram--guide_line" x1="250" x2="250" y1="1" y2="99"></line><line class="stroke_order_diagram--bounding_box" x1="299" x2="299" y1="1" y2="99"></line><path class="stroke_order_diagram--existing_path" d="M14.25,29.76c1.99,0.23,3.89,0.3,5.89,0.1c5.04-0.52,14.17-2.32,21.85-3.92c0.83-0.17,2.14-0.32,3.18-0.25" id="Ske23thr5r" kvg:type="㇐" transform="matrix(1,0,0,1,196,-4)" xmlns:kvg="http://kanjivg.tagaini.net"></path><path class="stroke_order_diagram--existing_path" d="M34.77,12.33c1.08,1.08,1.51,2.67,1.51,4.61c0,12.15-0.01,36.38-0.01,40.52c0,10.67-6.21,2.09-7.71,1.04" id="Ske23thr5s" kvg:type="㇚" transform="matrix(1,0,0,1,196,-4)" xmlns:kvg="http://kanjivg.tagaini.net"></path><path class="stroke_order_diagram--current_path" d="M14.25,51.45c0.88,0.92,1.75,0.92,3.38,0.22c1.72-0.74,17.12-8.92,25.87-13.61" id="kvg:054f2-s3" kvg:type="㇀" transform="matrix(1,0,0,1,196,-4)" xmlns:kvg="http://kanjivg.tagaini.net"></path><path class="stroke_order_diagram--current_path" d="M14.25,51.45c0.88,0.92,1.75,0.92,3.38,0.22c1.72-0.74,17.12-8.92,25.87-13.61" id="Ske23thr5u" kvg:type="㇀" transform="matrix(1,0,0,1,196,-4)" xmlns:kvg="http://kanjivg.tagaini.net"></path><circle class="stroke_order_diagram--path_start" cx="14.25" cy="51.45" r="4" transform="matrix(1,0,0,1,196,-4)"></circle><line class="stroke_order_diagram--guide_line" x1="350" x2="350" y1="1" y2="99"></line><line class="stroke_order_diagram--bounding_box" x1="399" x2="399" y1="1" y2="99"></line><path class="stroke_order_diagram--existing_path" d="M14.25,29.76c1.99,0.23,3.89,0.3,5.89,0.1c5.04-0.52,14.17-2.32,21.85-3.92c0.83-0.17,2.14-0.32,3.18-0.25" id="Ske23thr5x" kvg:type="㇐" transform="matrix(1,0,0,1,296,-4)" xmlns:kvg="http://kanjivg.tagaini.net"></path><path class="stroke_order_diagram--existing_path" d="M34.77,12.33c1.08,1.08,1.51,2.67,1.51,4.61c0,12.15-0.01,36.38-0.01,40.52c0,10.67-6.21,2.09-7.71,1.04" id="Ske23thr5y" kvg:type="㇚" transform="matrix(1,0,0,1,296,-4)" xmlns:kvg="http://kanjivg.tagaini.net"></path><path class="stroke_order_diagram--existing_path" d="M14.25,51.45c0.88,0.92,1.75,0.92,3.38,0.22c1.72-0.74,17.12-8.92,25.87-13.61" id="Ske23thr5z" kvg:type="㇀" transform="matrix(1,0,0,1,296,-4)" xmlns:kvg="http://kanjivg.tagaini.net"></path><path class="stroke_order_diagram--current_path" d="M78.88,11.75c0.18,0.87-0.12,1.65-0.87,2.13c-4.88,3.12-8.38,4.24-17.5,7.87" id="kvg:054f2-s4" kvg:type="㇒" transform="matrix(1,0,0,1,296,-4)" xmlns:kvg="http://kanjivg.tagaini.net"></path><path class="stroke_order_diagram--current_path" d="M78.88,11.75c0.18,0.87-0.12,1.65-0.87,2.13c-4.88,3.12-8.38,4.24-17.5,7.87" id="Ske23thr511" kvg:type="㇒" transform="matrix(1,0,0,1,296,-4)" xmlns:kvg="http://kanjivg.tagaini.net"></path><circle class="stroke_order_diagram--path_start" cx="78.88" cy="11.75" r="4" transform="matrix(1,0,0,1,296,-4)"></circle><line class="stroke_order_diagram--guide_line" x1="450" x2="450" y1="1" y2="99"></line><line class="stroke_order_diagram--bounding_box" x1="499" x2="499" y1="1" y2="99"></line><path class="stroke_order_diagram--existing_path" d="M14.25,29.76c1.99,0.23,3.89,0.3,5.89,0.1c5.04-0.52,14.17-2.32,21.85-3.92c0.83-0.17,2.14-0.32,3.18-0.25" id="Ske23thr514" kvg:type="㇐" transform="matrix(1,0,0,1,396,-4)" xmlns:kvg="http://kanjivg.tagaini.net"></path><path class="stroke_order_diagram--existing_path" d="M34.77,12.33c1.08,1.08,1.51,2.67,1.51,4.61c0,12.15-0.01,36.38-0.01,40.52c0,10.67-6.21,2.09-7.71,1.04" id="Ske23thr515" kvg:type="㇚" transform="matrix(1,0,0,1,396,-4)" xmlns:kvg="http://kanjivg.tagaini.net"></path><path class="stroke_order_diagram--existing_path" d="M14.25,51.45c0.88,0.92,1.75,0.92,3.38,0.22c1.72-0.74,17.12-8.92,25.87-13.61" id="Ske23thr516" kvg:type="㇀" transform="matrix(1,0,0,1,396,-4)" xmlns:kvg="http://kanjivg.tagaini.net"></path><path class="stroke_order_diagram--existing_path" d="M78.88,11.75c0.18,0.87-0.12,1.65-0.87,2.13c-4.88,3.12-8.38,4.24-17.5,7.87" id="Ske23thr517" kvg:type="㇒" transform="matrix(1,0,0,1,396,-4)" xmlns:kvg="http://kanjivg.tagaini.net"></path><path class="stroke_order_diagram--current_path" d="M57.25,22.5c0.88,0.88,1.11,1.88,1.11,3.19c0,19.88-0.99,27.93-8.36,36.07" id="kvg:054f2-s5" kvg:type="㇒" transform="matrix(1,0,0,1,396,-4)" xmlns:kvg="http://kanjivg.tagaini.net"></path><path class="stroke_order_diagram--current_path" d="M57.25,22.5c0.88,0.88,1.11,1.88,1.11,3.19c0,19.88-0.99,27.93-8.36,36.07" id="Ske23thr519" kvg:type="㇒" transform="matrix(1,0,0,1,396,-4)" xmlns:kvg="http://kanjivg.tagaini.net"></path><circle class="stroke_order_diagram--path_start" cx="57.25" cy="22.5" r="4" transform="matrix(1,0,0,1,396,-4)"></circle><line class="stroke_order_diagram--guide_line" x1="550" x2="550" y1="1" y2="99"></line><line class="stroke_order_diagram--bounding_box" x1="599" x2="599" y1="1" y2="99"></line><path class="stroke_order_diagram--existing_path" d="M14.25,29.76c1.99,0.23,3.89,0.3,5.89,0.1c5.04-0.52,14.17-2.32,21.85-3.92c0.83-0.17,2.14-0.32,3.18-0.25" id="Ske23thr51c" kvg:type="㇐" transform="matrix(1,0,0,1,496,-4)" xmlns:kvg="http://kanjivg.tagaini.net"></path><path class="stroke_order_diagram--existing_path" d="M34.77,12.33c1.08,1.08,1.51,2.67,1.51,4.61c0,12.15-0.01,36.38-0.01,40.52c0,10.67-6.21,2.09-7.71,1.04" id="Ske23thr51d" kvg:type="㇚" transform="matrix(1,0,0,1,496,-4)" xmlns:kvg="http://kanjivg.tagaini.net"></path><path class="stroke_order_diagram--existing_path" d="M14.25,51.45c0.88,0.92,1.75,0.92,3.38,0.22c1.72-0.74,17.12-8.92,25.87-13.61" id="Ske23thr51e" kvg:type="㇀" transform="matrix(1,0,0,1,496,-4)" xmlns:kvg="http://kanjivg.tagaini.net"></path><path class="stroke_order_diagram--existing_path" d="M78.88,11.75c0.18,0.87-0.12,1.65-0.87,2.13c-4.88,3.12-8.38,4.24-17.5,7.87" id="Ske23thr51f" kvg:type="㇒" transform="matrix(1,0,0,1,496,-4)" xmlns:kvg="http://kanjivg.tagaini.net"></path><path class="stroke_order_diagram--existing_path" d="M57.25,22.5c0.88,0.88,1.11,1.88,1.11,3.19c0,19.88-0.99,27.93-8.36,36.07" id="Ske23thr51g" kvg:type="㇒" transform="matrix(1,0,0,1,496,-4)" xmlns:kvg="http://kanjivg.tagaini.net"></path><path class="stroke_order_diagram--current_path" d="M61.5,32.94c1.38,0.06,2.83-0.04,3.95-0.19c5.61-0.79,17.27-1.82,24.17-2.77c1.84-0.25,3.81-0.63,5.67-0.27" id="kvg:054f2-s6" kvg:type="㇐" transform="matrix(1,0,0,1,496,-4)" xmlns:kvg="http://kanjivg.tagaini.net"></path><path class="stroke_order_diagram--current_path" d="M61.5,32.94c1.38,0.06,2.83-0.04,3.95-0.19c5.61-0.79,17.27-1.82,24.17-2.77c1.84-0.25,3.81-0.63,5.67-0.27" id="Ske23thr51i" kvg:type="㇐" transform="matrix(1,0,0,1,496,-4)" xmlns:kvg="http://kanjivg.tagaini.net"></path><circle class="stroke_order_diagram--path_start" cx="61.5" cy="32.94" r="4" transform="matrix(1,0,0,1,496,-4)"></circle><line class="stroke_order_diagram--guide_line" x1="650" x2="650" y1="1" y2="99"></line><line class="stroke_order_diagram--bounding_box" x1="699" x2="699" y1="1" y2="99"></line><path class="stroke_order_diagram--existing_path" d="M14.25,29.76c1.99,0.23,3.89,0.3,5.89,0.1c5.04-0.52,14.17-2.32,21.85-3.92c0.83-0.17,2.14-0.32,3.18-0.25" id="Ske23thr51l" kvg:type="㇐" transform="matrix(1,0,0,1,596,-4)" xmlns:kvg="http://kanjivg.tagaini.net"></path><path class="stroke_order_diagram--existing_path" d="M34.77,12.33c1.08,1.08,1.51,2.67,1.51,4.61c0,12.15-0.01,36.38-0.01,40.52c0,10.67-6.21,2.09-7.71,1.04" id="Ske23thr51m" kvg:type="㇚" transform="matrix(1,0,0,1,596,-4)" xmlns:kvg="http://kanjivg.tagaini.net"></path><path class="stroke_order_diagram--existing_path" d="M14.25,51.45c0.88,0.92,1.75,0.92,3.38,0.22c1.72-0.74,17.12-8.92,25.87-13.61" id="Ske23thr51n" kvg:type="㇀" transform="matrix(1,0,0,1,596,-4)" xmlns:kvg="http://kanjivg.tagaini.net"></path><path class="stroke_order_diagram--existing_path" d="M78.88,11.75c0.18,0.87-0.12,1.65-0.87,2.13c-4.88,3.12-8.38,4.24-17.5,7.87" id="Ske23thr51o" kvg:type="㇒" transform="matrix(1,0,0,1,596,-4)" xmlns:kvg="http://kanjivg.tagaini.net"></path><path class="stroke_order_diagram--existing_path" d="M57.25,22.5c0.88,0.88,1.11,1.88,1.11,3.19c0,19.88-0.99,27.93-8.36,36.07" id="Ske23thr51p" kvg:type="㇒" transform="matrix(1,0,0,1,596,-4)" xmlns:kvg="http://kanjivg.tagaini.net"></path><path class="stroke_order_diagram--existing_path" d="M61.5,32.94c1.38,0.06,2.83-0.04,3.95-0.19c5.61-0.79,17.27-1.82,24.17-2.77c1.84-0.25,3.81-0.63,5.67-0.27" id="Ske23thr51q" kvg:type="㇐" transform="matrix(1,0,0,1,596,-4)" xmlns:kvg="http://kanjivg.tagaini.net"></path><path class="stroke_order_diagram--current_path" d="M78.81,33.13c0.91,0.91,1.13,2.12,1.13,3.56c0,0.64-0.04,9.56-0.04,17.81c0,2.93,0.02,5.37-0.03,6.88" id="kvg:054f2-s7" kvg:type="㇑" transform="matrix(1,0,0,1,596,-4)" xmlns:kvg="http://kanjivg.tagaini.net"></path><path class="stroke_order_diagram--current_path" d="M78.81,33.13c0.91,0.91,1.13,2.12,1.13,3.56c0,0.64-0.04,9.56-0.04,17.81c0,2.93,0.02,5.37-0.03,6.88" id="Ske23thr51s" kvg:type="㇑" transform="matrix(1,0,0,1,596,-4)" xmlns:kvg="http://kanjivg.tagaini.net"></path><circle class="stroke_order_diagram--path_start" cx="78.81" cy="33.13" r="4" transform="matrix(1,0,0,1,596,-4)"></circle><line class="stroke_order_diagram--guide_line" x1="750" x2="750" y1="1" y2="99"></line><line class="stroke_order_diagram--bounding_box" x1="799" x2="799" y1="1" y2="99"></line><path class="stroke_order_diagram--existing_path" d="M14.25,29.76c1.99,0.23,3.89,0.3,5.89,0.1c5.04-0.52,14.17-2.32,21.85-3.92c0.83-0.17,2.14-0.32,3.18-0.25" id="Ske23thr51v" kvg:type="㇐" transform="matrix(1,0,0,1,696,-4)" xmlns:kvg="http://kanjivg.tagaini.net"></path><path class="stroke_order_diagram--existing_path" d="M34.77,12.33c1.08,1.08,1.51,2.67,1.51,4.61c0,12.15-0.01,36.38-0.01,40.52c0,10.67-6.21,2.09-7.71,1.04" id="Ske23thr51w" kvg:type="㇚" transform="matrix(1,0,0,1,696,-4)" xmlns:kvg="http://kanjivg.tagaini.net"></path><path class="stroke_order_diagram--existing_path" d="M14.25,51.45c0.88,0.92,1.75,0.92,3.38,0.22c1.72-0.74,17.12-8.92,25.87-13.61" id="Ske23thr51x" kvg:type="㇀" transform="matrix(1,0,0,1,696,-4)" xmlns:kvg="http://kanjivg.tagaini.net"></path><path class="stroke_order_diagram--existing_path" d="M78.88,11.75c0.18,0.87-0.12,1.65-0.87,2.13c-4.88,3.12-8.38,4.24-17.5,7.87" id="Ske23thr51y" kvg:type="㇒" transform="matrix(1,0,0,1,696,-4)" xmlns:kvg="http://kanjivg.tagaini.net"></path><path class="stroke_order_diagram--existing_path" d="M57.25,22.5c0.88,0.88,1.11,1.88,1.11,3.19c0,19.88-0.99,27.93-8.36,36.07" id="Ske23thr51z" kvg:type="㇒" transform="matrix(1,0,0,1,696,-4)" xmlns:kvg="http://kanjivg.tagaini.net"></path><path class="stroke_order_diagram--existing_path" d="M61.5,32.94c1.38,0.06,2.83-0.04,3.95-0.19c5.61-0.79,17.27-1.82,24.17-2.77c1.84-0.25,3.81-0.63,5.67-0.27" id="Ske23thr520" kvg:type="㇐" transform="matrix(1,0,0,1,696,-4)" xmlns:kvg="http://kanjivg.tagaini.net"></path><path class="stroke_order_diagram--existing_path" d="M78.81,33.13c0.91,0.91,1.13,2.12,1.13,3.56c0,0.64-0.04,9.56-0.04,17.81c0,2.93,0.02,5.37-0.03,6.88" id="Ske23thr521" kvg:type="㇑" transform="matrix(1,0,0,1,696,-4)" xmlns:kvg="http://kanjivg.tagaini.net"></path><path class="stroke_order_diagram--current_path" d="M30.75,72.68c0.91,0.91,1.43,1.86,1.69,3.31c1.31,7.39,2.14,12.25,3.04,18.73c0.21,1.5,0.41,2.93,0.62,4.25" id="kvg:054f2-s8" kvg:type="㇑" transform="matrix(1,0,0,1,696,-4)" xmlns:kvg="http://kanjivg.tagaini.net"></path><path class="stroke_order_diagram--current_path" d="M30.75,72.68c0.91,0.91,1.43,1.86,1.69,3.31c1.31,7.39,2.14,12.25,3.04,18.73c0.21,1.5,0.41,2.93,0.62,4.25" id="Ske23thr523" kvg:type="㇑" transform="matrix(1,0,0,1,696,-4)" xmlns:kvg="http://kanjivg.tagaini.net"></path><circle class="stroke_order_diagram--path_start" cx="30.75" cy="72.68" r="4" transform="matrix(1,0,0,1,696,-4)"></circle><line class="stroke_order_diagram--guide_line" x1="850" x2="850" y1="1" y2="99"></line><line class="stroke_order_diagram--bounding_box" x1="899" x2="899" y1="1" y2="99"></line><path class="stroke_order_diagram--existing_path" d="M14.25,29.76c1.99,0.23,3.89,0.3,5.89,0.1c5.04-0.52,14.17-2.32,21.85-3.92c0.83-0.17,2.14-0.32,3.18-0.25" id="Ske23thr526" kvg:type="㇐" transform="matrix(1,0,0,1,796,-4)" xmlns:kvg="http://kanjivg.tagaini.net"></path><path class="stroke_order_diagram--existing_path" d="M34.77,12.33c1.08,1.08,1.51,2.67,1.51,4.61c0,12.15-0.01,36.38-0.01,40.52c0,10.67-6.21,2.09-7.71,1.04" id="Ske23thr527" kvg:type="㇚" transform="matrix(1,0,0,1,796,-4)" xmlns:kvg="http://kanjivg.tagaini.net"></path><path class="stroke_order_diagram--existing_path" d="M14.25,51.45c0.88,0.92,1.75,0.92,3.38,0.22c1.72-0.74,17.12-8.92,25.87-13.61" id="Ske23thr528" kvg:type="㇀" transform="matrix(1,0,0,1,796,-4)" xmlns:kvg="http://kanjivg.tagaini.net"></path><path class="stroke_order_diagram--existing_path" d="M78.88,11.75c0.18,0.87-0.12,1.65-0.87,2.13c-4.88,3.12-8.38,4.24-17.5,7.87" id="Ske23thr529" kvg:type="㇒" transform="matrix(1,0,0,1,796,-4)" xmlns:kvg="http://kanjivg.tagaini.net"></path><path class="stroke_order_diagram--existing_path" d="M57.25,22.5c0.88,0.88,1.11,1.88,1.11,3.19c0,19.88-0.99,27.93-8.36,36.07" id="Ske23thr52a" kvg:type="㇒" transform="matrix(1,0,0,1,796,-4)" xmlns:kvg="http://kanjivg.tagaini.net"></path><path class="stroke_order_diagram--existing_path" d="M61.5,32.94c1.38,0.06,2.83-0.04,3.95-0.19c5.61-0.79,17.27-1.82,24.17-2.77c1.84-0.25,3.81-0.63,5.67-0.27" id="Ske23thr52b" kvg:type="㇐" transform="matrix(1,0,0,1,796,-4)" xmlns:kvg="http://kanjivg.tagaini.net"></path><path class="stroke_order_diagram--existing_path" d="M78.81,33.13c0.91,0.91,1.13,2.12,1.13,3.56c0,0.64-0.04,9.56-0.04,17.81c0,2.93,0.02,5.37-0.03,6.88" id="Ske23thr52c" kvg:type="㇑" transform="matrix(1,0,0,1,796,-4)" xmlns:kvg="http://kanjivg.tagaini.net"></path><path class="stroke_order_diagram--existing_path" d="M30.75,72.68c0.91,0.91,1.43,1.86,1.69,3.31c1.31,7.39,2.14,12.25,3.04,18.73c0.21,1.5,0.41,2.93,0.62,4.25" id="Ske23thr52d" kvg:type="㇑" transform="matrix(1,0,0,1,796,-4)" xmlns:kvg="http://kanjivg.tagaini.net"></path><path class="stroke_order_diagram--current_path" d="M33.06,74.2c13.02-1.46,33.86-3.27,42.2-4.02c3.41-0.31,5.5,1.18,4.52,4.95c-1.32,5.04-2.27,8.24-4.91,16.51" id="kvg:054f2-s9" kvg:type="㇕b" transform="matrix(1,0,0,1,796,-4)" xmlns:kvg="http://kanjivg.tagaini.net"></path><path class="stroke_order_diagram--current_path" d="M33.06,74.2c13.02-1.46,33.86-3.27,42.2-4.02c3.41-0.31,5.5,1.18,4.52,4.95c-1.32,5.04-2.27,8.24-4.91,16.51" id="Ske23thr52f" kvg:type="㇕b" transform="matrix(1,0,0,1,796,-4)" xmlns:kvg="http://kanjivg.tagaini.net"></path><circle class="stroke_order_diagram--path_start" cx="33.06" cy="74.2" r="4" transform="matrix(1,0,0,1,796,-4)"></circle><line class="stroke_order_diagram--guide_line" x1="950" x2="950" y1="1" y2="99"></line><line class="stroke_order_diagram--bounding_box" x1="999" x2="999" y1="1" y2="99"></line><path class="stroke_order_diagram--existing_path" d="M14.25,29.76c1.99,0.23,3.89,0.3,5.89,0.1c5.04-0.52,14.17-2.32,21.85-3.92c0.83-0.17,2.14-0.32,3.18-0.25" id="Ske23thr52i" kvg:type="㇐" transform="matrix(1,0,0,1,896,-4)" xmlns:kvg="http://kanjivg.tagaini.net"></path><path class="stroke_order_diagram--existing_path" d="M34.77,12.33c1.08,1.08,1.51,2.67,1.51,4.61c0,12.15-0.01,36.38-0.01,40.52c0,10.67-6.21,2.09-7.71,1.04" id="Ske23thr52j" kvg:type="㇚" transform="matrix(1,0,0,1,896,-4)" xmlns:kvg="http://kanjivg.tagaini.net"></path><path class="stroke_order_diagram--existing_path" d="M14.25,51.45c0.88,0.92,1.75,0.92,3.38,0.22c1.72-0.74,17.12-8.92,25.87-13.61" id="Ske23thr52k" kvg:type="㇀" transform="matrix(1,0,0,1,896,-4)" xmlns:kvg="http://kanjivg.tagaini.net"></path><path class="stroke_order_diagram--existing_path" d="M78.88,11.75c0.18,0.87-0.12,1.65-0.87,2.13c-4.88,3.12-8.38,4.24-17.5,7.87" id="Ske23thr52l" kvg:type="㇒" transform="matrix(1,0,0,1,896,-4)" xmlns:kvg="http://kanjivg.tagaini.net"></path><path class="stroke_order_diagram--existing_path" d="M57.25,22.5c0.88,0.88,1.11,1.88,1.11,3.19c0,19.88-0.99,27.93-8.36,36.07" id="Ske23thr52m" kvg:type="㇒" transform="matrix(1,0,0,1,896,-4)" xmlns:kvg="http://kanjivg.tagaini.net"></path><path class="stroke_order_diagram--existing_path" d="M61.5,32.94c1.38,0.06,2.83-0.04,3.95-0.19c5.61-0.79,17.27-1.82,24.17-2.77c1.84-0.25,3.81-0.63,5.67-0.27" id="Ske23thr52n" kvg:type="㇐" transform="matrix(1,0,0,1,896,-4)" xmlns:kvg="http://kanjivg.tagaini.net"></path><path class="stroke_order_diagram--existing_path" d="M78.81,33.13c0.91,0.91,1.13,2.12,1.13,3.56c0,0.64-0.04,9.56-0.04,17.81c0,2.93,0.02,5.37-0.03,6.88" id="Ske23thr52o" kvg:type="㇑" transform="matrix(1,0,0,1,896,-4)" xmlns:kvg="http://kanjivg.tagaini.net"></path><path class="stroke_order_diagram--existing_path" d="M30.75,72.68c0.91,0.91,1.43,1.86,1.69,3.31c1.31,7.39,2.14,12.25,3.04,18.73c0.21,1.5,0.41,2.93,0.62,4.25" id="Ske23thr52p" kvg:type="㇑" transform="matrix(1,0,0,1,896,-4)" xmlns:kvg="http://kanjivg.tagaini.net"></path><path class="stroke_order_diagram--existing_path" d="M33.06,74.2c13.02-1.46,33.86-3.27,42.2-4.02c3.41-0.31,5.5,1.18,4.52,4.95c-1.32,5.04-2.27,8.24-4.91,16.51" id="Ske23thr52q" kvg:type="㇕b" transform="matrix(1,0,0,1,896,-4)" xmlns:kvg="http://kanjivg.tagaini.net"></path><path class="stroke_order_diagram--current_path" d="M36.88,95.53c6.87-0.55,25.38-2.14,36.82-2.98c1.82-0.13,3.47-0.25,4.86-0.33" id="kvg:054f2-s10" kvg:type="㇐b" transform="matrix(1,0,0,1,896,-4)" xmlns:kvg="http://kanjivg.tagaini.net"></path><path class="stroke_order_diagram--current_path" d="M36.88,95.53c6.87-0.55,25.38-2.14,36.82-2.98c1.82-0.13,3.47-0.25,4.86-0.33" id="Ske23thr52s" kvg:type="㇐b" transform="matrix(1,0,0,1,896,-4)" xmlns:kvg="http://kanjivg.tagaini.net"></path><circle class="stroke_order_diagram--path_start" cx="36.88" cy="95.53" r="4" transform="matrix(1,0,0,1,896,-4)"></circle></svg>