<svg class="stroke_order_diagram--svg_container_for_518662a1d5dda79658000cba" style="height: 100px; width: 1000px;" viewbox="0 0 1000 100"><desc>Created with Snap</desc><defs></defs><line class="stroke_order_diagram--bounding_box" x1="1" x2="999" y1="1" y2="1"></line><line class="stroke_order_diagram--bounding_box" x1="1" x2="1" y1="1" y2="99"></line><line class="stroke_order_diagram--bounding_box" x1="1" x2="999" y1="99" y2="99"></line><line class="stroke_order_diagram--guide_line" x1="0" x2="1000" y1="50" y2="50"></line><line class="stroke_order_diagram--guide_line" x1="50" x2="50" y1="1" y2="99"></line><line class="stroke_order_diagram--bounding_box" x1="99" x2="99" y1="1" y2="99"></line><path class="stroke_order_diagram--current_path" d="M9.75,34.29c0.37,0.51,0.76,0.94,0.92,1.58c1.29,5.07,3.34,16.54,4.23,25.63" id="kvg:054fd-s1" kvg:type="㇑" transform="matrix(1,0,0,1,-4,-4)" xmlns:kvg="http://kanjivg.tagaini.net"></path><path class="stroke_order_diagram--current_path" d="M9.75,34.29c0.37,0.51,0.76,0.94,0.92,1.58c1.29,5.07,3.34,16.54,4.23,25.63" id="Ske2e2zvmj" kvg:type="㇑" transform="matrix(1,0,0,1,-4,-4)" xmlns:kvg="http://kanjivg.tagaini.net"></path><circle class="stroke_order_diagram--path_start" cx="9.75" cy="34.29" r="4" transform="matrix(1,0,0,1,-4,-4)"></circle><line class="stroke_order_diagram--guide_line" x1="150" x2="150" y1="1" y2="99"></line><line class="stroke_order_diagram--bounding_box" x1="199" x2="199" y1="1" y2="99"></line><path class="stroke_order_diagram--existing_path" d="M9.75,34.29c0.37,0.51,0.76,0.94,0.92,1.58c1.29,5.07,3.34,16.54,4.23,25.63" id="Ske2e2zvmm" kvg:type="㇑" transform="matrix(1,0,0,1,96,-4)" xmlns:kvg="http://kanjivg.tagaini.net"></path><path class="stroke_order_diagram--current_path" d="M11.08,36.22c9.42-2.22,16.05-3.06,20.42-3.73c1.6-0.24,2.56,1.44,2.33,2.87c-0.95,5.92-2.05,12.07-3.46,20.25" id="kvg:054fd-s2" kvg:type="㇕b" transform="matrix(1,0,0,1,96,-4)" xmlns:kvg="http://kanjivg.tagaini.net"></path><path class="stroke_order_diagram--current_path" d="M11.08,36.22c9.42-2.22,16.05-3.06,20.42-3.73c1.6-0.24,2.56,1.44,2.33,2.87c-0.95,5.92-2.05,12.07-3.46,20.25" id="Ske2e2zvmo" kvg:type="㇕b" transform="matrix(1,0,0,1,96,-4)" xmlns:kvg="http://kanjivg.tagaini.net"></path><circle class="stroke_order_diagram--path_start" cx="11.08" cy="36.22" r="4" transform="matrix(1,0,0,1,96,-4)"></circle><line class="stroke_order_diagram--guide_line" x1="250" x2="250" y1="1" y2="99"></line><line class="stroke_order_diagram--bounding_box" x1="299" x2="299" y1="1" y2="99"></line><path class="stroke_order_diagram--existing_path" d="M9.75,34.29c0.37,0.51,0.76,0.94,0.92,1.58c1.29,5.07,3.34,16.54,4.23,25.63" id="Ske2e2zvmr" kvg:type="㇑" transform="matrix(1,0,0,1,196,-4)" xmlns:kvg="http://kanjivg.tagaini.net"></path><path class="stroke_order_diagram--existing_path" d="M11.08,36.22c9.42-2.22,16.05-3.06,20.42-3.73c1.6-0.24,2.56,1.44,2.33,2.87c-0.95,5.92-2.05,12.07-3.46,20.25" id="Ske2e2zvms" kvg:type="㇕b" transform="matrix(1,0,0,1,196,-4)" xmlns:kvg="http://kanjivg.tagaini.net"></path><path class="stroke_order_diagram--current_path" d="M15.07,58.05c5.14-0.75,10.33-1.05,17.39-2.21" id="kvg:054fd-s3" kvg:type="㇐b" transform="matrix(1,0,0,1,196,-4)" xmlns:kvg="http://kanjivg.tagaini.net"></path><path class="stroke_order_diagram--current_path" d="M15.07,58.05c5.14-0.75,10.33-1.05,17.39-2.21" id="Ske2e2zvmu" kvg:type="㇐b" transform="matrix(1,0,0,1,196,-4)" xmlns:kvg="http://kanjivg.tagaini.net"></path><circle class="stroke_order_diagram--path_start" cx="15.07" cy="58.05" r="4" transform="matrix(1,0,0,1,196,-4)"></circle><line class="stroke_order_diagram--guide_line" x1="350" x2="350" y1="1" y2="99"></line><line class="stroke_order_diagram--bounding_box" x1="399" x2="399" y1="1" y2="99"></line><path class="stroke_order_diagram--existing_path" d="M9.75,34.29c0.37,0.51,0.76,0.94,0.92,1.58c1.29,5.07,3.34,16.54,4.23,25.63" id="Ske2e2zvmx" kvg:type="㇑" transform="matrix(1,0,0,1,296,-4)" xmlns:kvg="http://kanjivg.tagaini.net"></path><path class="stroke_order_diagram--existing_path" d="M11.08,36.22c9.42-2.22,16.05-3.06,20.42-3.73c1.6-0.24,2.56,1.44,2.33,2.87c-0.95,5.92-2.05,12.07-3.46,20.25" id="Ske2e2zvmy" kvg:type="㇕b" transform="matrix(1,0,0,1,296,-4)" xmlns:kvg="http://kanjivg.tagaini.net"></path><path class="stroke_order_diagram--existing_path" d="M15.07,58.05c5.14-0.75,10.33-1.05,17.39-2.21" id="Ske2e2zvmz" kvg:type="㇐b" transform="matrix(1,0,0,1,296,-4)" xmlns:kvg="http://kanjivg.tagaini.net"></path><path class="stroke_order_diagram--current_path" d="M43.07,17.39c1.24,0.38,3.52,0.42,4.77,0.38C56,17.5,74.13,14.5,86.74,14.39c2.07-0.02,3.32,0.18,4.35,0.37" id="kvg:054fd-s4" kvg:type="㇐" transform="matrix(1,0,0,1,296,-4)" xmlns:kvg="http://kanjivg.tagaini.net"></path><path class="stroke_order_diagram--current_path" d="M43.07,17.39c1.24,0.38,3.52,0.42,4.77,0.38C56,17.5,74.13,14.5,86.74,14.39c2.07-0.02,3.32,0.18,4.35,0.37" id="Ske2e2zvm11" kvg:type="㇐" transform="matrix(1,0,0,1,296,-4)" xmlns:kvg="http://kanjivg.tagaini.net"></path><circle class="stroke_order_diagram--path_start" cx="43.07" cy="17.39" r="4" transform="matrix(1,0,0,1,296,-4)"></circle><line class="stroke_order_diagram--guide_line" x1="450" x2="450" y1="1" y2="99"></line><line class="stroke_order_diagram--bounding_box" x1="499" x2="499" y1="1" y2="99"></line><path class="stroke_order_diagram--existing_path" d="M9.75,34.29c0.37,0.51,0.76,0.94,0.92,1.58c1.29,5.07,3.34,16.54,4.23,25.63" id="Ske2e2zvm14" kvg:type="㇑" transform="matrix(1,0,0,1,396,-4)" xmlns:kvg="http://kanjivg.tagaini.net"></path><path class="stroke_order_diagram--existing_path" d="M11.08,36.22c9.42-2.22,16.05-3.06,20.42-3.73c1.6-0.24,2.56,1.44,2.33,2.87c-0.95,5.92-2.05,12.07-3.46,20.25" id="Ske2e2zvm15" kvg:type="㇕b" transform="matrix(1,0,0,1,396,-4)" xmlns:kvg="http://kanjivg.tagaini.net"></path><path class="stroke_order_diagram--existing_path" d="M15.07,58.05c5.14-0.75,10.33-1.05,17.39-2.21" id="Ske2e2zvm16" kvg:type="㇐b" transform="matrix(1,0,0,1,396,-4)" xmlns:kvg="http://kanjivg.tagaini.net"></path><path class="stroke_order_diagram--existing_path" d="M43.07,17.39c1.24,0.38,3.52,0.42,4.77,0.38C56,17.5,74.13,14.5,86.74,14.39c2.07-0.02,3.32,0.18,4.35,0.37" id="Ske2e2zvm17" kvg:type="㇐" transform="matrix(1,0,0,1,396,-4)" xmlns:kvg="http://kanjivg.tagaini.net"></path><path class="stroke_order_diagram--current_path" d="M43.98,31.85c0.56,0.75,0.76,1.74,1.13,2.67c1.64,4.22,4.68,26.78,4.48,25.72" id="kvg:054fd-s5" kvg:type="㇑" transform="matrix(1,0,0,1,396,-4)" xmlns:kvg="http://kanjivg.tagaini.net"></path><path class="stroke_order_diagram--current_path" d="M43.98,31.85c0.56,0.75,0.76,1.74,1.13,2.67c1.64,4.22,4.68,26.78,4.48,25.72" id="Ske2e2zvm19" kvg:type="㇑" transform="matrix(1,0,0,1,396,-4)" xmlns:kvg="http://kanjivg.tagaini.net"></path><circle class="stroke_order_diagram--path_start" cx="43.98" cy="31.85" r="4" transform="matrix(1,0,0,1,396,-4)"></circle><line class="stroke_order_diagram--guide_line" x1="550" x2="550" y1="1" y2="99"></line><line class="stroke_order_diagram--bounding_box" x1="599" x2="599" y1="1" y2="99"></line><path class="stroke_order_diagram--existing_path" d="M9.75,34.29c0.37,0.51,0.76,0.94,0.92,1.58c1.29,5.07,3.34,16.54,4.23,25.63" id="Ske2e2zvm1c" kvg:type="㇑" transform="matrix(1,0,0,1,496,-4)" xmlns:kvg="http://kanjivg.tagaini.net"></path><path class="stroke_order_diagram--existing_path" d="M11.08,36.22c9.42-2.22,16.05-3.06,20.42-3.73c1.6-0.24,2.56,1.44,2.33,2.87c-0.95,5.92-2.05,12.07-3.46,20.25" id="Ske2e2zvm1d" kvg:type="㇕b" transform="matrix(1,0,0,1,496,-4)" xmlns:kvg="http://kanjivg.tagaini.net"></path><path class="stroke_order_diagram--existing_path" d="M15.07,58.05c5.14-0.75,10.33-1.05,17.39-2.21" id="Ske2e2zvm1e" kvg:type="㇐b" transform="matrix(1,0,0,1,496,-4)" xmlns:kvg="http://kanjivg.tagaini.net"></path><path class="stroke_order_diagram--existing_path" d="M43.07,17.39c1.24,0.38,3.52,0.42,4.77,0.38C56,17.5,74.13,14.5,86.74,14.39c2.07-0.02,3.32,0.18,4.35,0.37" id="Ske2e2zvm1f" kvg:type="㇐" transform="matrix(1,0,0,1,496,-4)" xmlns:kvg="http://kanjivg.tagaini.net"></path><path class="stroke_order_diagram--existing_path" d="M43.98,31.85c0.56,0.75,0.76,1.74,1.13,2.67c1.64,4.22,4.68,26.78,4.48,25.72" id="Ske2e2zvm1g" kvg:type="㇑" transform="matrix(1,0,0,1,496,-4)" xmlns:kvg="http://kanjivg.tagaini.net"></path><path class="stroke_order_diagram--current_path" d="M46.04,33.06c3.17-0.12,38.93-4.17,41.82-4.32c2.41-0.12,3.8,1.64,3.1,5.39c-1.09,5.9-1.57,9.83-4.81,22.89" id="kvg:054fd-s6" kvg:type="㇕a" transform="matrix(1,0,0,1,496,-4)" xmlns:kvg="http://kanjivg.tagaini.net"></path><path class="stroke_order_diagram--current_path" d="M46.04,33.06c3.17-0.12,38.93-4.17,41.82-4.32c2.41-0.12,3.8,1.64,3.1,5.39c-1.09,5.9-1.57,9.83-4.81,22.89" id="Ske2e2zvm1i" kvg:type="㇕a" transform="matrix(1,0,0,1,496,-4)" xmlns:kvg="http://kanjivg.tagaini.net"></path><circle class="stroke_order_diagram--path_start" cx="46.04" cy="33.06" r="4" transform="matrix(1,0,0,1,496,-4)"></circle><line class="stroke_order_diagram--guide_line" x1="650" x2="650" y1="1" y2="99"></line><line class="stroke_order_diagram--bounding_box" x1="699" x2="699" y1="1" y2="99"></line><path class="stroke_order_diagram--existing_path" d="M9.75,34.29c0.37,0.51,0.76,0.94,0.92,1.58c1.29,5.07,3.34,16.54,4.23,25.63" id="Ske2e2zvm1l" kvg:type="㇑" transform="matrix(1,0,0,1,596,-4)" xmlns:kvg="http://kanjivg.tagaini.net"></path><path class="stroke_order_diagram--existing_path" d="M11.08,36.22c9.42-2.22,16.05-3.06,20.42-3.73c1.6-0.24,2.56,1.44,2.33,2.87c-0.95,5.92-2.05,12.07-3.46,20.25" id="Ske2e2zvm1m" kvg:type="㇕b" transform="matrix(1,0,0,1,596,-4)" xmlns:kvg="http://kanjivg.tagaini.net"></path><path class="stroke_order_diagram--existing_path" d="M15.07,58.05c5.14-0.75,10.33-1.05,17.39-2.21" id="Ske2e2zvm1n" kvg:type="㇐b" transform="matrix(1,0,0,1,596,-4)" xmlns:kvg="http://kanjivg.tagaini.net"></path><path class="stroke_order_diagram--existing_path" d="M43.07,17.39c1.24,0.38,3.52,0.42,4.77,0.38C56,17.5,74.13,14.5,86.74,14.39c2.07-0.02,3.32,0.18,4.35,0.37" id="Ske2e2zvm1o" kvg:type="㇐" transform="matrix(1,0,0,1,596,-4)" xmlns:kvg="http://kanjivg.tagaini.net"></path><path class="stroke_order_diagram--existing_path" d="M43.98,31.85c0.56,0.75,0.76,1.74,1.13,2.67c1.64,4.22,4.68,26.78,4.48,25.72" id="Ske2e2zvm1p" kvg:type="㇑" transform="matrix(1,0,0,1,596,-4)" xmlns:kvg="http://kanjivg.tagaini.net"></path><path class="stroke_order_diagram--existing_path" d="M46.04,33.06c3.17-0.12,38.93-4.17,41.82-4.32c2.41-0.12,3.8,1.64,3.1,5.39c-1.09,5.9-1.57,9.83-4.81,22.89" id="Ske2e2zvm1q" kvg:type="㇕a" transform="matrix(1,0,0,1,596,-4)" xmlns:kvg="http://kanjivg.tagaini.net"></path><path class="stroke_order_diagram--current_path" d="M48.55,45.51c7.99-1.28,34.18-3.78,39.04-3.78" id="kvg:054fd-s7" kvg:type="㇐a" transform="matrix(1,0,0,1,596,-4)" xmlns:kvg="http://kanjivg.tagaini.net"></path><path class="stroke_order_diagram--current_path" d="M48.55,45.51c7.99-1.28,34.18-3.78,39.04-3.78" id="Ske2e2zvm1s" kvg:type="㇐a" transform="matrix(1,0,0,1,596,-4)" xmlns:kvg="http://kanjivg.tagaini.net"></path><circle class="stroke_order_diagram--path_start" cx="48.55" cy="45.51" r="4" transform="matrix(1,0,0,1,596,-4)"></circle><line class="stroke_order_diagram--guide_line" x1="750" x2="750" y1="1" y2="99"></line><line class="stroke_order_diagram--bounding_box" x1="799" x2="799" y1="1" y2="99"></line><path class="stroke_order_diagram--existing_path" d="M9.75,34.29c0.37,0.51,0.76,0.94,0.92,1.58c1.29,5.07,3.34,16.54,4.23,25.63" id="Ske2e2zvm1v" kvg:type="㇑" transform="matrix(1,0,0,1,696,-4)" xmlns:kvg="http://kanjivg.tagaini.net"></path><path class="stroke_order_diagram--existing_path" d="M11.08,36.22c9.42-2.22,16.05-3.06,20.42-3.73c1.6-0.24,2.56,1.44,2.33,2.87c-0.95,5.92-2.05,12.07-3.46,20.25" id="Ske2e2zvm1w" kvg:type="㇕b" transform="matrix(1,0,0,1,696,-4)" xmlns:kvg="http://kanjivg.tagaini.net"></path><path class="stroke_order_diagram--existing_path" d="M15.07,58.05c5.14-0.75,10.33-1.05,17.39-2.21" id="Ske2e2zvm1x" kvg:type="㇐b" transform="matrix(1,0,0,1,696,-4)" xmlns:kvg="http://kanjivg.tagaini.net"></path><path class="stroke_order_diagram--existing_path" d="M43.07,17.39c1.24,0.38,3.52,0.42,4.77,0.38C56,17.5,74.13,14.5,86.74,14.39c2.07-0.02,3.32,0.18,4.35,0.37" id="Ske2e2zvm1y" kvg:type="㇐" transform="matrix(1,0,0,1,696,-4)" xmlns:kvg="http://kanjivg.tagaini.net"></path><path class="stroke_order_diagram--existing_path" d="M43.98,31.85c0.56,0.75,0.76,1.74,1.13,2.67c1.64,4.22,4.68,26.78,4.48,25.72" id="Ske2e2zvm1z" kvg:type="㇑" transform="matrix(1,0,0,1,696,-4)" xmlns:kvg="http://kanjivg.tagaini.net"></path><path class="stroke_order_diagram--existing_path" d="M46.04,33.06c3.17-0.12,38.93-4.17,41.82-4.32c2.41-0.12,3.8,1.64,3.1,5.39c-1.09,5.9-1.57,9.83-4.81,22.89" id="Ske2e2zvm20" kvg:type="㇕a" transform="matrix(1,0,0,1,696,-4)" xmlns:kvg="http://kanjivg.tagaini.net"></path><path class="stroke_order_diagram--existing_path" d="M48.55,45.51c7.99-1.28,34.18-3.78,39.04-3.78" id="Ske2e2zvm21" kvg:type="㇐a" transform="matrix(1,0,0,1,696,-4)" xmlns:kvg="http://kanjivg.tagaini.net"></path><path class="stroke_order_diagram--current_path" d="M51.39,57.43c12.36-1.53,21.85-2.34,35.03-3.53" id="kvg:054fd-s8" kvg:type="㇐a" transform="matrix(1,0,0,1,696,-4)" xmlns:kvg="http://kanjivg.tagaini.net"></path><path class="stroke_order_diagram--current_path" d="M51.39,57.43c12.36-1.53,21.85-2.34,35.03-3.53" id="Ske2e2zvm23" kvg:type="㇐a" transform="matrix(1,0,0,1,696,-4)" xmlns:kvg="http://kanjivg.tagaini.net"></path><circle class="stroke_order_diagram--path_start" cx="51.39" cy="57.43" r="4" transform="matrix(1,0,0,1,696,-4)"></circle><line class="stroke_order_diagram--guide_line" x1="850" x2="850" y1="1" y2="99"></line><line class="stroke_order_diagram--bounding_box" x1="899" x2="899" y1="1" y2="99"></line><path class="stroke_order_diagram--existing_path" d="M9.75,34.29c0.37,0.51,0.76,0.94,0.92,1.58c1.29,5.07,3.34,16.54,4.23,25.63" id="Ske2e2zvm26" kvg:type="㇑" transform="matrix(1,0,0,1,796,-4)" xmlns:kvg="http://kanjivg.tagaini.net"></path><path class="stroke_order_diagram--existing_path" d="M11.08,36.22c9.42-2.22,16.05-3.06,20.42-3.73c1.6-0.24,2.56,1.44,2.33,2.87c-0.95,5.92-2.05,12.07-3.46,20.25" id="Ske2e2zvm27" kvg:type="㇕b" transform="matrix(1,0,0,1,796,-4)" xmlns:kvg="http://kanjivg.tagaini.net"></path><path class="stroke_order_diagram--existing_path" d="M15.07,58.05c5.14-0.75,10.33-1.05,17.39-2.21" id="Ske2e2zvm28" kvg:type="㇐b" transform="matrix(1,0,0,1,796,-4)" xmlns:kvg="http://kanjivg.tagaini.net"></path><path class="stroke_order_diagram--existing_path" d="M43.07,17.39c1.24,0.38,3.52,0.42,4.77,0.38C56,17.5,74.13,14.5,86.74,14.39c2.07-0.02,3.32,0.18,4.35,0.37" id="Ske2e2zvm29" kvg:type="㇐" transform="matrix(1,0,0,1,796,-4)" xmlns:kvg="http://kanjivg.tagaini.net"></path><path class="stroke_order_diagram--existing_path" d="M43.98,31.85c0.56,0.75,0.76,1.74,1.13,2.67c1.64,4.22,4.68,26.78,4.48,25.72" id="Ske2e2zvm2a" kvg:type="㇑" transform="matrix(1,0,0,1,796,-4)" xmlns:kvg="http://kanjivg.tagaini.net"></path><path class="stroke_order_diagram--existing_path" d="M46.04,33.06c3.17-0.12,38.93-4.17,41.82-4.32c2.41-0.12,3.8,1.64,3.1,5.39c-1.09,5.9-1.57,9.83-4.81,22.89" id="Ske2e2zvm2b" kvg:type="㇕a" transform="matrix(1,0,0,1,796,-4)" xmlns:kvg="http://kanjivg.tagaini.net"></path><path class="stroke_order_diagram--existing_path" d="M48.55,45.51c7.99-1.28,34.18-3.78,39.04-3.78" id="Ske2e2zvm2c" kvg:type="㇐a" transform="matrix(1,0,0,1,796,-4)" xmlns:kvg="http://kanjivg.tagaini.net"></path><path class="stroke_order_diagram--existing_path" d="M51.39,57.43c12.36-1.53,21.85-2.34,35.03-3.53" id="Ske2e2zvm2d" kvg:type="㇐a" transform="matrix(1,0,0,1,796,-4)" xmlns:kvg="http://kanjivg.tagaini.net"></path><path class="stroke_order_diagram--current_path" d="M67.27,18c0.72,1.51,0.68,2.77,0.68,4.96c0,34.79-0.69,61.96-29.46,74.08" id="kvg:054fd-s9" kvg:type="㇒" transform="matrix(1,0,0,1,796,-4)" xmlns:kvg="http://kanjivg.tagaini.net"></path><path class="stroke_order_diagram--current_path" d="M67.27,18c0.72,1.51,0.68,2.77,0.68,4.96c0,34.79-0.69,61.96-29.46,74.08" id="Ske2e2zvm2f" kvg:type="㇒" transform="matrix(1,0,0,1,796,-4)" xmlns:kvg="http://kanjivg.tagaini.net"></path><circle class="stroke_order_diagram--path_start" cx="67.27" cy="18" r="4" transform="matrix(1,0,0,1,796,-4)"></circle><line class="stroke_order_diagram--guide_line" x1="950" x2="950" y1="1" y2="99"></line><line class="stroke_order_diagram--bounding_box" x1="999" x2="999" y1="1" y2="99"></line><path class="stroke_order_diagram--existing_path" d="M9.75,34.29c0.37,0.51,0.76,0.94,0.92,1.58c1.29,5.07,3.34,16.54,4.23,25.63" id="Ske2e2zvm2i" kvg:type="㇑" transform="matrix(1,0,0,1,896,-4)" xmlns:kvg="http://kanjivg.tagaini.net"></path><path class="stroke_order_diagram--existing_path" d="M11.08,36.22c9.42-2.22,16.05-3.06,20.42-3.73c1.6-0.24,2.56,1.44,2.33,2.87c-0.95,5.92-2.05,12.07-3.46,20.25" id="Ske2e2zvm2j" kvg:type="㇕b" transform="matrix(1,0,0,1,896,-4)" xmlns:kvg="http://kanjivg.tagaini.net"></path><path class="stroke_order_diagram--existing_path" d="M15.07,58.05c5.14-0.75,10.33-1.05,17.39-2.21" id="Ske2e2zvm2k" kvg:type="㇐b" transform="matrix(1,0,0,1,896,-4)" xmlns:kvg="http://kanjivg.tagaini.net"></path><path class="stroke_order_diagram--existing_path" d="M43.07,17.39c1.24,0.38,3.52,0.42,4.77,0.38C56,17.5,74.13,14.5,86.74,14.39c2.07-0.02,3.32,0.18,4.35,0.37" id="Ske2e2zvm2l" kvg:type="㇐" transform="matrix(1,0,0,1,896,-4)" xmlns:kvg="http://kanjivg.tagaini.net"></path><path class="stroke_order_diagram--existing_path" d="M43.98,31.85c0.56,0.75,0.76,1.74,1.13,2.67c1.64,4.22,4.68,26.78,4.48,25.72" id="Ske2e2zvm2m" kvg:type="㇑" transform="matrix(1,0,0,1,896,-4)" xmlns:kvg="http://kanjivg.tagaini.net"></path><path class="stroke_order_diagram--existing_path" d="M46.04,33.06c3.17-0.12,38.93-4.17,41.82-4.32c2.41-0.12,3.8,1.64,3.1,5.39c-1.09,5.9-1.57,9.83-4.81,22.89" id="Ske2e2zvm2n" kvg:type="㇕a" transform="matrix(1,0,0,1,896,-4)" xmlns:kvg="http://kanjivg.tagaini.net"></path><path class="stroke_order_diagram--existing_path" d="M48.55,45.51c7.99-1.28,34.18-3.78,39.04-3.78" id="Ske2e2zvm2o" kvg:type="㇐a" transform="matrix(1,0,0,1,896,-4)" xmlns:kvg="http://kanjivg.tagaini.net"></path><path class="stroke_order_diagram--existing_path" d="M51.39,57.43c12.36-1.53,21.85-2.34,35.03-3.53" id="Ske2e2zvm2p" kvg:type="㇐a" transform="matrix(1,0,0,1,896,-4)" xmlns:kvg="http://kanjivg.tagaini.net"></path><path class="stroke_order_diagram--existing_path" d="M67.27,18c0.72,1.51,0.68,2.77,0.68,4.96c0,34.79-0.69,61.96-29.46,74.08" id="Ske2e2zvm2q" kvg:type="㇒" transform="matrix(1,0,0,1,896,-4)" xmlns:kvg="http://kanjivg.tagaini.net"></path><path class="stroke_order_diagram--current_path" d="M45.22,67c8.91,3.17,31.98,20.72,45.62,27.19c2.65,1.26,4.82,1.93,7.42,2.31" id="kvg:054fd-s10" kvg:type="㇏" transform="matrix(1,0,0,1,896,-4)" xmlns:kvg="http://kanjivg.tagaini.net"></path><path class="stroke_order_diagram--current_path" d="M45.22,67c8.91,3.17,31.98,20.72,45.62,27.19c2.65,1.26,4.82,1.93,7.42,2.31" id="Ske2e2zvm2s" kvg:type="㇏" transform="matrix(1,0,0,1,896,-4)" xmlns:kvg="http://kanjivg.tagaini.net"></path><circle class="stroke_order_diagram--path_start" cx="45.22" cy="67" r="4" transform="matrix(1,0,0,1,896,-4)"></circle></svg>