<svg class="stroke_order_diagram--svg_container_for_51866277d5dda79658000185" style="height: 100px; width: 1200px;" viewbox="0 0 1200 100"><desc>Created with Snap</desc><defs></defs><line class="stroke_order_diagram--bounding_box" x1="1" x2="1199" y1="1" y2="1"></line><line class="stroke_order_diagram--bounding_box" x1="1" x2="1" y1="1" y2="99"></line><line class="stroke_order_diagram--bounding_box" x1="1" x2="1199" y1="99" y2="99"></line><line class="stroke_order_diagram--guide_line" x1="0" x2="1200" y1="50" y2="50"></line><line class="stroke_order_diagram--guide_line" x1="50" x2="50" y1="1" y2="99"></line><line class="stroke_order_diagram--bounding_box" x1="99" x2="99" y1="1" y2="99"></line><path class="stroke_order_diagram--current_path" d="M11.25,32.53c0.73,0.86,1.13,1.85,1.2,2.98c0.92,6.87,1.45,12.21,1.97,19c0.14,1.76,0.28,3.46,0.43,4.99" id="kvg:0559a-s1" kvg:type="㇑" transform="matrix(1,0,0,1,-4,-4)" xmlns:kvg="http://kanjivg.tagaini.net"></path><path class="stroke_order_diagram--current_path" d="M11.25,32.53c0.73,0.86,1.13,1.85,1.2,2.98c0.92,6.87,1.45,12.21,1.97,19c0.14,1.76,0.28,3.46,0.43,4.99" id="Ske1qayi9l" kvg:type="㇑" transform="matrix(1,0,0,1,-4,-4)" xmlns:kvg="http://kanjivg.tagaini.net"></path><circle class="stroke_order_diagram--path_start" cx="11.25" cy="32.53" r="4" transform="matrix(1,0,0,1,-4,-4)"></circle><line class="stroke_order_diagram--guide_line" x1="150" x2="150" y1="1" y2="99"></line><line class="stroke_order_diagram--bounding_box" x1="199" x2="199" y1="1" y2="99"></line><path class="stroke_order_diagram--existing_path" d="M11.25,32.53c0.73,0.86,1.13,1.85,1.2,2.98c0.92,6.87,1.45,12.21,1.97,19c0.14,1.76,0.28,3.46,0.43,4.99" id="Ske1qayi9o" kvg:type="㇑" transform="matrix(1,0,0,1,96,-4)" xmlns:kvg="http://kanjivg.tagaini.net"></path><path class="stroke_order_diagram--current_path" d="M13.68,34.65c7.54-1.53,12.44-2.25,16.21-2.79c3.86-0.55,4.96,0.2,4.38,4.28c-0.72,5.05-1.02,10.73-2.18,17.26" id="kvg:0559a-s2" kvg:type="㇕b" transform="matrix(1,0,0,1,96,-4)" xmlns:kvg="http://kanjivg.tagaini.net"></path><path class="stroke_order_diagram--current_path" d="M13.68,34.65c7.54-1.53,12.44-2.25,16.21-2.79c3.86-0.55,4.96,0.2,4.38,4.28c-0.72,5.05-1.02,10.73-2.18,17.26" id="Ske1qayi9q" kvg:type="㇕b" transform="matrix(1,0,0,1,96,-4)" xmlns:kvg="http://kanjivg.tagaini.net"></path><circle class="stroke_order_diagram--path_start" cx="13.68" cy="34.65" r="4" transform="matrix(1,0,0,1,96,-4)"></circle><line class="stroke_order_diagram--guide_line" x1="250" x2="250" y1="1" y2="99"></line><line class="stroke_order_diagram--bounding_box" x1="299" x2="299" y1="1" y2="99"></line><path class="stroke_order_diagram--existing_path" d="M11.25,32.53c0.73,0.86,1.13,1.85,1.2,2.98c0.92,6.87,1.45,12.21,1.97,19c0.14,1.76,0.28,3.46,0.43,4.99" id="Ske1qayi9t" kvg:type="㇑" transform="matrix(1,0,0,1,196,-4)" xmlns:kvg="http://kanjivg.tagaini.net"></path><path class="stroke_order_diagram--existing_path" d="M13.68,34.65c7.54-1.53,12.44-2.25,16.21-2.79c3.86-0.55,4.96,0.2,4.38,4.28c-0.72,5.05-1.02,10.73-2.18,17.26" id="Ske1qayi9u" kvg:type="㇕b" transform="matrix(1,0,0,1,196,-4)" xmlns:kvg="http://kanjivg.tagaini.net"></path><path class="stroke_order_diagram--current_path" d="M15.77,56.71c3.77-0.54,8.47-1.07,13.72-1.78c1.45-0.2,2.88-0.38,4.34-0.38" id="kvg:0559a-s3" kvg:type="㇐b" transform="matrix(1,0,0,1,196,-4)" xmlns:kvg="http://kanjivg.tagaini.net"></path><path class="stroke_order_diagram--current_path" d="M15.77,56.71c3.77-0.54,8.47-1.07,13.72-1.78c1.45-0.2,2.88-0.38,4.34-0.38" id="Ske1qayi9w" kvg:type="㇐b" transform="matrix(1,0,0,1,196,-4)" xmlns:kvg="http://kanjivg.tagaini.net"></path><circle class="stroke_order_diagram--path_start" cx="15.77" cy="56.71" r="4" transform="matrix(1,0,0,1,196,-4)"></circle><line class="stroke_order_diagram--guide_line" x1="350" x2="350" y1="1" y2="99"></line><line class="stroke_order_diagram--bounding_box" x1="399" x2="399" y1="1" y2="99"></line><path class="stroke_order_diagram--existing_path" d="M11.25,32.53c0.73,0.86,1.13,1.85,1.2,2.98c0.92,6.87,1.45,12.21,1.97,19c0.14,1.76,0.28,3.46,0.43,4.99" id="Ske1qayi9z" kvg:type="㇑" transform="matrix(1,0,0,1,296,-4)" xmlns:kvg="http://kanjivg.tagaini.net"></path><path class="stroke_order_diagram--existing_path" d="M13.68,34.65c7.54-1.53,12.44-2.25,16.21-2.79c3.86-0.55,4.96,0.2,4.38,4.28c-0.72,5.05-1.02,10.73-2.18,17.26" id="Ske1qayi910" kvg:type="㇕b" transform="matrix(1,0,0,1,296,-4)" xmlns:kvg="http://kanjivg.tagaini.net"></path><path class="stroke_order_diagram--existing_path" d="M15.77,56.71c3.77-0.54,8.47-1.07,13.72-1.78c1.45-0.2,2.88-0.38,4.34-0.38" id="Ske1qayi911" kvg:type="㇐b" transform="matrix(1,0,0,1,296,-4)" xmlns:kvg="http://kanjivg.tagaini.net"></path><path class="stroke_order_diagram--current_path" d="M59.35,13.5c0.1,1.03-0.16,2.16-0.67,3.03c-2.75,4.71-9.27,14.28-17.93,21.22" id="kvg:0559a-s4" kvg:type="㇒" transform="matrix(1,0,0,1,296,-4)" xmlns:kvg="http://kanjivg.tagaini.net"></path><path class="stroke_order_diagram--current_path" d="M59.35,13.5c0.1,1.03-0.16,2.16-0.67,3.03c-2.75,4.71-9.27,14.28-17.93,21.22" id="Ske1qayi913" kvg:type="㇒" transform="matrix(1,0,0,1,296,-4)" xmlns:kvg="http://kanjivg.tagaini.net"></path><circle class="stroke_order_diagram--path_start" cx="59.35" cy="13.5" r="4" transform="matrix(1,0,0,1,296,-4)"></circle><line class="stroke_order_diagram--guide_line" x1="450" x2="450" y1="1" y2="99"></line><line class="stroke_order_diagram--bounding_box" x1="499" x2="499" y1="1" y2="99"></line><path class="stroke_order_diagram--existing_path" d="M11.25,32.53c0.73,0.86,1.13,1.85,1.2,2.98c0.92,6.87,1.45,12.21,1.97,19c0.14,1.76,0.28,3.46,0.43,4.99" id="Ske1qayi916" kvg:type="㇑" transform="matrix(1,0,0,1,396,-4)" xmlns:kvg="http://kanjivg.tagaini.net"></path><path class="stroke_order_diagram--existing_path" d="M13.68,34.65c7.54-1.53,12.44-2.25,16.21-2.79c3.86-0.55,4.96,0.2,4.38,4.28c-0.72,5.05-1.02,10.73-2.18,17.26" id="Ske1qayi917" kvg:type="㇕b" transform="matrix(1,0,0,1,396,-4)" xmlns:kvg="http://kanjivg.tagaini.net"></path><path class="stroke_order_diagram--existing_path" d="M15.77,56.71c3.77-0.54,8.47-1.07,13.72-1.78c1.45-0.2,2.88-0.38,4.34-0.38" id="Ske1qayi918" kvg:type="㇐b" transform="matrix(1,0,0,1,396,-4)" xmlns:kvg="http://kanjivg.tagaini.net"></path><path class="stroke_order_diagram--existing_path" d="M59.35,13.5c0.1,1.03-0.16,2.16-0.67,3.03c-2.75,4.71-9.27,14.28-17.93,21.22" id="Ske1qayi919" kvg:type="㇒" transform="matrix(1,0,0,1,396,-4)" xmlns:kvg="http://kanjivg.tagaini.net"></path><path class="stroke_order_diagram--current_path" d="M59.55,20.01c4.2-0.51,10.82-2.01,13.59-2.72c2.58-0.66,3.6,0.59,1.71,2.76c-3.56,4.07-8.35,10.2-14.35,18.45" id="kvg:0559a-s5" kvg:type="㇇a" transform="matrix(1,0,0,1,396,-4)" xmlns:kvg="http://kanjivg.tagaini.net"></path><path class="stroke_order_diagram--current_path" d="M59.55,20.01c4.2-0.51,10.82-2.01,13.59-2.72c2.58-0.66,3.6,0.59,1.71,2.76c-3.56,4.07-8.35,10.2-14.35,18.45" id="Ske1qayi91b" kvg:type="㇇a" transform="matrix(1,0,0,1,396,-4)" xmlns:kvg="http://kanjivg.tagaini.net"></path><circle class="stroke_order_diagram--path_start" cx="59.55" cy="20.01" r="4" transform="matrix(1,0,0,1,396,-4)"></circle><line class="stroke_order_diagram--guide_line" x1="550" x2="550" y1="1" y2="99"></line><line class="stroke_order_diagram--bounding_box" x1="599" x2="599" y1="1" y2="99"></line><path class="stroke_order_diagram--existing_path" d="M11.25,32.53c0.73,0.86,1.13,1.85,1.2,2.98c0.92,6.87,1.45,12.21,1.97,19c0.14,1.76,0.28,3.46,0.43,4.99" id="Ske1qayi91e" kvg:type="㇑" transform="matrix(1,0,0,1,496,-4)" xmlns:kvg="http://kanjivg.tagaini.net"></path><path class="stroke_order_diagram--existing_path" d="M13.68,34.65c7.54-1.53,12.44-2.25,16.21-2.79c3.86-0.55,4.96,0.2,4.38,4.28c-0.72,5.05-1.02,10.73-2.18,17.26" id="Ske1qayi91f" kvg:type="㇕b" transform="matrix(1,0,0,1,496,-4)" xmlns:kvg="http://kanjivg.tagaini.net"></path><path class="stroke_order_diagram--existing_path" d="M15.77,56.71c3.77-0.54,8.47-1.07,13.72-1.78c1.45-0.2,2.88-0.38,4.34-0.38" id="Ske1qayi91g" kvg:type="㇐b" transform="matrix(1,0,0,1,496,-4)" xmlns:kvg="http://kanjivg.tagaini.net"></path><path class="stroke_order_diagram--existing_path" d="M59.35,13.5c0.1,1.03-0.16,2.16-0.67,3.03c-2.75,4.71-9.27,14.28-17.93,21.22" id="Ske1qayi91h" kvg:type="㇒" transform="matrix(1,0,0,1,496,-4)" xmlns:kvg="http://kanjivg.tagaini.net"></path><path class="stroke_order_diagram--existing_path" d="M59.55,20.01c4.2-0.51,10.82-2.01,13.59-2.72c2.58-0.66,3.6,0.59,1.71,2.76c-3.56,4.07-8.35,10.2-14.35,18.45" id="Ske1qayi91i" kvg:type="㇇a" transform="matrix(1,0,0,1,496,-4)" xmlns:kvg="http://kanjivg.tagaini.net"></path><path class="stroke_order_diagram--current_path" d="M44,40c0.94,0.94,1.51,2.61,1.73,3.87c1.13,6.45,1.18,9.73,1.95,16.33c0.16,1.41,0.35,2.99,0.57,4.79" id="kvg:0559a-s6" kvg:type="㇑" transform="matrix(1,0,0,1,496,-4)" xmlns:kvg="http://kanjivg.tagaini.net"></path><path class="stroke_order_diagram--current_path" d="M44,40c0.94,0.94,1.51,2.61,1.73,3.87c1.13,6.45,1.18,9.73,1.95,16.33c0.16,1.41,0.35,2.99,0.57,4.79" id="Ske1qayi91k" kvg:type="㇑" transform="matrix(1,0,0,1,496,-4)" xmlns:kvg="http://kanjivg.tagaini.net"></path><circle class="stroke_order_diagram--path_start" cx="44" cy="40" r="4" transform="matrix(1,0,0,1,496,-4)"></circle><line class="stroke_order_diagram--guide_line" x1="650" x2="650" y1="1" y2="99"></line><line class="stroke_order_diagram--bounding_box" x1="699" x2="699" y1="1" y2="99"></line><path class="stroke_order_diagram--existing_path" d="M11.25,32.53c0.73,0.86,1.13,1.85,1.2,2.98c0.92,6.87,1.45,12.21,1.97,19c0.14,1.76,0.28,3.46,0.43,4.99" id="Ske1qayi91n" kvg:type="㇑" transform="matrix(1,0,0,1,596,-4)" xmlns:kvg="http://kanjivg.tagaini.net"></path><path class="stroke_order_diagram--existing_path" d="M13.68,34.65c7.54-1.53,12.44-2.25,16.21-2.79c3.86-0.55,4.96,0.2,4.38,4.28c-0.72,5.05-1.02,10.73-2.18,17.26" id="Ske1qayi91o" kvg:type="㇕b" transform="matrix(1,0,0,1,596,-4)" xmlns:kvg="http://kanjivg.tagaini.net"></path><path class="stroke_order_diagram--existing_path" d="M15.77,56.71c3.77-0.54,8.47-1.07,13.72-1.78c1.45-0.2,2.88-0.38,4.34-0.38" id="Ske1qayi91p" kvg:type="㇐b" transform="matrix(1,0,0,1,596,-4)" xmlns:kvg="http://kanjivg.tagaini.net"></path><path class="stroke_order_diagram--existing_path" d="M59.35,13.5c0.1,1.03-0.16,2.16-0.67,3.03c-2.75,4.71-9.27,14.28-17.93,21.22" id="Ske1qayi91q" kvg:type="㇒" transform="matrix(1,0,0,1,596,-4)" xmlns:kvg="http://kanjivg.tagaini.net"></path><path class="stroke_order_diagram--existing_path" d="M59.55,20.01c4.2-0.51,10.82-2.01,13.59-2.72c2.58-0.66,3.6,0.59,1.71,2.76c-3.56,4.07-8.35,10.2-14.35,18.45" id="Ske1qayi91r" kvg:type="㇇a" transform="matrix(1,0,0,1,596,-4)" xmlns:kvg="http://kanjivg.tagaini.net"></path><path class="stroke_order_diagram--existing_path" d="M44,40c0.94,0.94,1.51,2.61,1.73,3.87c1.13,6.45,1.18,9.73,1.95,16.33c0.16,1.41,0.35,2.99,0.57,4.79" id="Ske1qayi91s" kvg:type="㇑" transform="matrix(1,0,0,1,596,-4)" xmlns:kvg="http://kanjivg.tagaini.net"></path><path class="stroke_order_diagram--current_path" d="M46.39,41.4c11.11-1.9,28.57-4.48,35.25-4.67c2.77-0.08,3.79,2.16,3.6,3.94c-0.19,1.82-0.84,8.01-1.84,14.4c-0.28,1.79-0.59,3.6-0.92,5.33" id="kvg:0559a-s7" kvg:type="㇕a" transform="matrix(1,0,0,1,596,-4)" xmlns:kvg="http://kanjivg.tagaini.net"></path><path class="stroke_order_diagram--current_path" d="M46.39,41.4c11.11-1.9,28.57-4.48,35.25-4.67c2.77-0.08,3.79,2.16,3.6,3.94c-0.19,1.82-0.84,8.01-1.84,14.4c-0.28,1.79-0.59,3.6-0.92,5.33" id="Ske1qayi91u" kvg:type="㇕a" transform="matrix(1,0,0,1,596,-4)" xmlns:kvg="http://kanjivg.tagaini.net"></path><circle class="stroke_order_diagram--path_start" cx="46.39" cy="41.4" r="4" transform="matrix(1,0,0,1,596,-4)"></circle><line class="stroke_order_diagram--guide_line" x1="750" x2="750" y1="1" y2="99"></line><line class="stroke_order_diagram--bounding_box" x1="799" x2="799" y1="1" y2="99"></line><path class="stroke_order_diagram--existing_path" d="M11.25,32.53c0.73,0.86,1.13,1.85,1.2,2.98c0.92,6.87,1.45,12.21,1.97,19c0.14,1.76,0.28,3.46,0.43,4.99" id="Ske1qayi91x" kvg:type="㇑" transform="matrix(1,0,0,1,696,-4)" xmlns:kvg="http://kanjivg.tagaini.net"></path><path class="stroke_order_diagram--existing_path" d="M13.68,34.65c7.54-1.53,12.44-2.25,16.21-2.79c3.86-0.55,4.96,0.2,4.38,4.28c-0.72,5.05-1.02,10.73-2.18,17.26" id="Ske1qayi91y" kvg:type="㇕b" transform="matrix(1,0,0,1,696,-4)" xmlns:kvg="http://kanjivg.tagaini.net"></path><path class="stroke_order_diagram--existing_path" d="M15.77,56.71c3.77-0.54,8.47-1.07,13.72-1.78c1.45-0.2,2.88-0.38,4.34-0.38" id="Ske1qayi91z" kvg:type="㇐b" transform="matrix(1,0,0,1,696,-4)" xmlns:kvg="http://kanjivg.tagaini.net"></path><path class="stroke_order_diagram--existing_path" d="M59.35,13.5c0.1,1.03-0.16,2.16-0.67,3.03c-2.75,4.71-9.27,14.28-17.93,21.22" id="Ske1qayi920" kvg:type="㇒" transform="matrix(1,0,0,1,696,-4)" xmlns:kvg="http://kanjivg.tagaini.net"></path><path class="stroke_order_diagram--existing_path" d="M59.55,20.01c4.2-0.51,10.82-2.01,13.59-2.72c2.58-0.66,3.6,0.59,1.71,2.76c-3.56,4.07-8.35,10.2-14.35,18.45" id="Ske1qayi921" kvg:type="㇇a" transform="matrix(1,0,0,1,696,-4)" xmlns:kvg="http://kanjivg.tagaini.net"></path><path class="stroke_order_diagram--existing_path" d="M44,40c0.94,0.94,1.51,2.61,1.73,3.87c1.13,6.45,1.18,9.73,1.95,16.33c0.16,1.41,0.35,2.99,0.57,4.79" id="Ske1qayi922" kvg:type="㇑" transform="matrix(1,0,0,1,696,-4)" xmlns:kvg="http://kanjivg.tagaini.net"></path><path class="stroke_order_diagram--existing_path" d="M46.39,41.4c11.11-1.9,28.57-4.48,35.25-4.67c2.77-0.08,3.79,2.16,3.6,3.94c-0.19,1.82-0.84,8.01-1.84,14.4c-0.28,1.79-0.59,3.6-0.92,5.33" id="Ske1qayi923" kvg:type="㇕a" transform="matrix(1,0,0,1,696,-4)" xmlns:kvg="http://kanjivg.tagaini.net"></path><path class="stroke_order_diagram--current_path" d="M58,43.75c0.25,0.5,0.25,1.23,0.18,1.79c-0.56,4.96-1.96,8.82-5.92,12.71" id="kvg:0559a-s8" kvg:type="㇒" transform="matrix(1,0,0,1,696,-4)" xmlns:kvg="http://kanjivg.tagaini.net"></path><path class="stroke_order_diagram--current_path" d="M58,43.75c0.25,0.5,0.25,1.23,0.18,1.79c-0.56,4.96-1.96,8.82-5.92,12.71" id="Ske1qayi925" kvg:type="㇒" transform="matrix(1,0,0,1,696,-4)" xmlns:kvg="http://kanjivg.tagaini.net"></path><circle class="stroke_order_diagram--path_start" cx="58" cy="43.75" r="4" transform="matrix(1,0,0,1,696,-4)"></circle><line class="stroke_order_diagram--guide_line" x1="850" x2="850" y1="1" y2="99"></line><line class="stroke_order_diagram--bounding_box" x1="899" x2="899" y1="1" y2="99"></line><path class="stroke_order_diagram--existing_path" d="M11.25,32.53c0.73,0.86,1.13,1.85,1.2,2.98c0.92,6.87,1.45,12.21,1.97,19c0.14,1.76,0.28,3.46,0.43,4.99" id="Ske1qayi928" kvg:type="㇑" transform="matrix(1,0,0,1,796,-4)" xmlns:kvg="http://kanjivg.tagaini.net"></path><path class="stroke_order_diagram--existing_path" d="M13.68,34.65c7.54-1.53,12.44-2.25,16.21-2.79c3.86-0.55,4.96,0.2,4.38,4.28c-0.72,5.05-1.02,10.73-2.18,17.26" id="Ske1qayi929" kvg:type="㇕b" transform="matrix(1,0,0,1,796,-4)" xmlns:kvg="http://kanjivg.tagaini.net"></path><path class="stroke_order_diagram--existing_path" d="M15.77,56.71c3.77-0.54,8.47-1.07,13.72-1.78c1.45-0.2,2.88-0.38,4.34-0.38" id="Ske1qayi92a" kvg:type="㇐b" transform="matrix(1,0,0,1,796,-4)" xmlns:kvg="http://kanjivg.tagaini.net"></path><path class="stroke_order_diagram--existing_path" d="M59.35,13.5c0.1,1.03-0.16,2.16-0.67,3.03c-2.75,4.71-9.27,14.28-17.93,21.22" id="Ske1qayi92b" kvg:type="㇒" transform="matrix(1,0,0,1,796,-4)" xmlns:kvg="http://kanjivg.tagaini.net"></path><path class="stroke_order_diagram--existing_path" d="M59.55,20.01c4.2-0.51,10.82-2.01,13.59-2.72c2.58-0.66,3.6,0.59,1.71,2.76c-3.56,4.07-8.35,10.2-14.35,18.45" id="Ske1qayi92c" kvg:type="㇇a" transform="matrix(1,0,0,1,796,-4)" xmlns:kvg="http://kanjivg.tagaini.net"></path><path class="stroke_order_diagram--existing_path" d="M44,40c0.94,0.94,1.51,2.61,1.73,3.87c1.13,6.45,1.18,9.73,1.95,16.33c0.16,1.41,0.35,2.99,0.57,4.79" id="Ske1qayi92d" kvg:type="㇑" transform="matrix(1,0,0,1,796,-4)" xmlns:kvg="http://kanjivg.tagaini.net"></path><path class="stroke_order_diagram--existing_path" d="M46.39,41.4c11.11-1.9,28.57-4.48,35.25-4.67c2.77-0.08,3.79,2.16,3.6,3.94c-0.19,1.82-0.84,8.01-1.84,14.4c-0.28,1.79-0.59,3.6-0.92,5.33" id="Ske1qayi92e" kvg:type="㇕a" transform="matrix(1,0,0,1,796,-4)" xmlns:kvg="http://kanjivg.tagaini.net"></path><path class="stroke_order_diagram--existing_path" d="M58,43.75c0.25,0.5,0.25,1.23,0.18,1.79c-0.56,4.96-1.96,8.82-5.92,12.71" id="Ske1qayi92f" kvg:type="㇒" transform="matrix(1,0,0,1,796,-4)" xmlns:kvg="http://kanjivg.tagaini.net"></path><path class="stroke_order_diagram--current_path" d="M67.77,39.21c0.49,0.87,0.91,1.89,0.91,3.22c0,1.8,0.1,3.42,0.1,4.7c0,3.36,1.43,4.69,4.65,4.69c2.91,0,5.05,0,6.29-1.13" id="kvg:0559a-s9" kvg:type="㇟" transform="matrix(1,0,0,1,796,-4)" xmlns:kvg="http://kanjivg.tagaini.net"></path><path class="stroke_order_diagram--current_path" d="M67.77,39.21c0.49,0.87,0.91,1.89,0.91,3.22c0,1.8,0.1,3.42,0.1,4.7c0,3.36,1.43,4.69,4.65,4.69c2.91,0,5.05,0,6.29-1.13" id="Ske1qayi92h" kvg:type="㇟" transform="matrix(1,0,0,1,796,-4)" xmlns:kvg="http://kanjivg.tagaini.net"></path><circle class="stroke_order_diagram--path_start" cx="67.77" cy="39.21" r="4" transform="matrix(1,0,0,1,796,-4)"></circle><line class="stroke_order_diagram--guide_line" x1="950" x2="950" y1="1" y2="99"></line><line class="stroke_order_diagram--bounding_box" x1="999" x2="999" y1="1" y2="99"></line><path class="stroke_order_diagram--existing_path" d="M11.25,32.53c0.73,0.86,1.13,1.85,1.2,2.98c0.92,6.87,1.45,12.21,1.97,19c0.14,1.76,0.28,3.46,0.43,4.99" id="Ske1qayi92k" kvg:type="㇑" transform="matrix(1,0,0,1,896,-4)" xmlns:kvg="http://kanjivg.tagaini.net"></path><path class="stroke_order_diagram--existing_path" d="M13.68,34.65c7.54-1.53,12.44-2.25,16.21-2.79c3.86-0.55,4.96,0.2,4.38,4.28c-0.72,5.05-1.02,10.73-2.18,17.26" id="Ske1qayi92l" kvg:type="㇕b" transform="matrix(1,0,0,1,896,-4)" xmlns:kvg="http://kanjivg.tagaini.net"></path><path class="stroke_order_diagram--existing_path" d="M15.77,56.71c3.77-0.54,8.47-1.07,13.72-1.78c1.45-0.2,2.88-0.38,4.34-0.38" id="Ske1qayi92m" kvg:type="㇐b" transform="matrix(1,0,0,1,896,-4)" xmlns:kvg="http://kanjivg.tagaini.net"></path><path class="stroke_order_diagram--existing_path" d="M59.35,13.5c0.1,1.03-0.16,2.16-0.67,3.03c-2.75,4.71-9.27,14.28-17.93,21.22" id="Ske1qayi92n" kvg:type="㇒" transform="matrix(1,0,0,1,896,-4)" xmlns:kvg="http://kanjivg.tagaini.net"></path><path class="stroke_order_diagram--existing_path" d="M59.55,20.01c4.2-0.51,10.82-2.01,13.59-2.72c2.58-0.66,3.6,0.59,1.71,2.76c-3.56,4.07-8.35,10.2-14.35,18.45" id="Ske1qayi92o" kvg:type="㇇a" transform="matrix(1,0,0,1,896,-4)" xmlns:kvg="http://kanjivg.tagaini.net"></path><path class="stroke_order_diagram--existing_path" d="M44,40c0.94,0.94,1.51,2.61,1.73,3.87c1.13,6.45,1.18,9.73,1.95,16.33c0.16,1.41,0.35,2.99,0.57,4.79" id="Ske1qayi92p" kvg:type="㇑" transform="matrix(1,0,0,1,896,-4)" xmlns:kvg="http://kanjivg.tagaini.net"></path><path class="stroke_order_diagram--existing_path" d="M46.39,41.4c11.11-1.9,28.57-4.48,35.25-4.67c2.77-0.08,3.79,2.16,3.6,3.94c-0.19,1.82-0.84,8.01-1.84,14.4c-0.28,1.79-0.59,3.6-0.92,5.33" id="Ske1qayi92q" kvg:type="㇕a" transform="matrix(1,0,0,1,896,-4)" xmlns:kvg="http://kanjivg.tagaini.net"></path><path class="stroke_order_diagram--existing_path" d="M58,43.75c0.25,0.5,0.25,1.23,0.18,1.79c-0.56,4.96-1.96,8.82-5.92,12.71" id="Ske1qayi92r" kvg:type="㇒" transform="matrix(1,0,0,1,896,-4)" xmlns:kvg="http://kanjivg.tagaini.net"></path><path class="stroke_order_diagram--existing_path" d="M67.77,39.21c0.49,0.87,0.91,1.89,0.91,3.22c0,1.8,0.1,3.42,0.1,4.7c0,3.36,1.43,4.69,4.65,4.69c2.91,0,5.05,0,6.29-1.13" id="Ske1qayi92s" kvg:type="㇟" transform="matrix(1,0,0,1,896,-4)" xmlns:kvg="http://kanjivg.tagaini.net"></path><path class="stroke_order_diagram--current_path" d="M35.09,70.64c2.48,0.59,5.42,0.44,7.91,0.13c15.38-1.89,33.6-3.26,45.88-4.22c2.51-0.2,5.5-0.3,7.76,0.22" id="kvg:0559a-s10" kvg:type="㇐" transform="matrix(1,0,0,1,896,-4)" xmlns:kvg="http://kanjivg.tagaini.net"></path><path class="stroke_order_diagram--current_path" d="M35.09,70.64c2.48,0.59,5.42,0.44,7.91,0.13c15.38-1.89,33.6-3.26,45.88-4.22c2.51-0.2,5.5-0.3,7.76,0.22" id="Ske1qayi92u" kvg:type="㇐" transform="matrix(1,0,0,1,896,-4)" xmlns:kvg="http://kanjivg.tagaini.net"></path><circle class="stroke_order_diagram--path_start" cx="35.09" cy="70.64" r="4" transform="matrix(1,0,0,1,896,-4)"></circle><line class="stroke_order_diagram--guide_line" x1="1050" x2="1050" y1="1" y2="99"></line><line class="stroke_order_diagram--bounding_box" x1="1099" x2="1099" y1="1" y2="99"></line><path class="stroke_order_diagram--existing_path" d="M11.25,32.53c0.73,0.86,1.13,1.85,1.2,2.98c0.92,6.87,1.45,12.21,1.97,19c0.14,1.76,0.28,3.46,0.43,4.99" id="Ske1qayi92x" kvg:type="㇑" transform="matrix(1,0,0,1,996,-4)" xmlns:kvg="http://kanjivg.tagaini.net"></path><path class="stroke_order_diagram--existing_path" d="M13.68,34.65c7.54-1.53,12.44-2.25,16.21-2.79c3.86-0.55,4.96,0.2,4.38,4.28c-0.72,5.05-1.02,10.73-2.18,17.26" id="Ske1qayi92y" kvg:type="㇕b" transform="matrix(1,0,0,1,996,-4)" xmlns:kvg="http://kanjivg.tagaini.net"></path><path class="stroke_order_diagram--existing_path" d="M15.77,56.71c3.77-0.54,8.47-1.07,13.72-1.78c1.45-0.2,2.88-0.38,4.34-0.38" id="Ske1qayi92z" kvg:type="㇐b" transform="matrix(1,0,0,1,996,-4)" xmlns:kvg="http://kanjivg.tagaini.net"></path><path class="stroke_order_diagram--existing_path" d="M59.35,13.5c0.1,1.03-0.16,2.16-0.67,3.03c-2.75,4.71-9.27,14.28-17.93,21.22" id="Ske1qayi930" kvg:type="㇒" transform="matrix(1,0,0,1,996,-4)" xmlns:kvg="http://kanjivg.tagaini.net"></path><path class="stroke_order_diagram--existing_path" d="M59.55,20.01c4.2-0.51,10.82-2.01,13.59-2.72c2.58-0.66,3.6,0.59,1.71,2.76c-3.56,4.07-8.35,10.2-14.35,18.45" id="Ske1qayi931" kvg:type="㇇a" transform="matrix(1,0,0,1,996,-4)" xmlns:kvg="http://kanjivg.tagaini.net"></path><path class="stroke_order_diagram--existing_path" d="M44,40c0.94,0.94,1.51,2.61,1.73,3.87c1.13,6.45,1.18,9.73,1.95,16.33c0.16,1.41,0.35,2.99,0.57,4.79" id="Ske1qayi932" kvg:type="㇑" transform="matrix(1,0,0,1,996,-4)" xmlns:kvg="http://kanjivg.tagaini.net"></path><path class="stroke_order_diagram--existing_path" d="M46.39,41.4c11.11-1.9,28.57-4.48,35.25-4.67c2.77-0.08,3.79,2.16,3.6,3.94c-0.19,1.82-0.84,8.01-1.84,14.4c-0.28,1.79-0.59,3.6-0.92,5.33" id="Ske1qayi933" kvg:type="㇕a" transform="matrix(1,0,0,1,996,-4)" xmlns:kvg="http://kanjivg.tagaini.net"></path><path class="stroke_order_diagram--existing_path" d="M58,43.75c0.25,0.5,0.25,1.23,0.18,1.79c-0.56,4.96-1.96,8.82-5.92,12.71" id="Ske1qayi934" kvg:type="㇒" transform="matrix(1,0,0,1,996,-4)" xmlns:kvg="http://kanjivg.tagaini.net"></path><path class="stroke_order_diagram--existing_path" d="M67.77,39.21c0.49,0.87,0.91,1.89,0.91,3.22c0,1.8,0.1,3.42,0.1,4.7c0,3.36,1.43,4.69,4.65,4.69c2.91,0,5.05,0,6.29-1.13" id="Ske1qayi935" kvg:type="㇟" transform="matrix(1,0,0,1,996,-4)" xmlns:kvg="http://kanjivg.tagaini.net"></path><path class="stroke_order_diagram--existing_path" d="M35.09,70.64c2.48,0.59,5.42,0.44,7.91,0.13c15.38-1.89,33.6-3.26,45.88-4.22c2.51-0.2,5.5-0.3,7.76,0.22" id="Ske1qayi936" kvg:type="㇐" transform="matrix(1,0,0,1,996,-4)" xmlns:kvg="http://kanjivg.tagaini.net"></path><path class="stroke_order_diagram--current_path" d="M62.89,58.92c0.31,1.17,0.54,2.4,0.31,3.49c-3.44,15.97-13.82,27.47-31.33,34.34" id="kvg:0559a-s11" kvg:type="㇒" transform="matrix(1,0,0,1,996,-4)" xmlns:kvg="http://kanjivg.tagaini.net"></path><path class="stroke_order_diagram--current_path" d="M62.89,58.92c0.31,1.17,0.54,2.4,0.31,3.49c-3.44,15.97-13.82,27.47-31.33,34.34" id="Ske1qayi938" kvg:type="㇒" transform="matrix(1,0,0,1,996,-4)" xmlns:kvg="http://kanjivg.tagaini.net"></path><circle class="stroke_order_diagram--path_start" cx="62.89" cy="58.92" r="4" transform="matrix(1,0,0,1,996,-4)"></circle><line class="stroke_order_diagram--guide_line" x1="1150" x2="1150" y1="1" y2="99"></line><line class="stroke_order_diagram--bounding_box" x1="1199" x2="1199" y1="1" y2="99"></line><path class="stroke_order_diagram--existing_path" d="M11.25,32.53c0.73,0.86,1.13,1.85,1.2,2.98c0.92,6.87,1.45,12.21,1.97,19c0.14,1.76,0.28,3.46,0.43,4.99" id="Ske1qayi93b" kvg:type="㇑" transform="matrix(1,0,0,1,1096,-4)" xmlns:kvg="http://kanjivg.tagaini.net"></path><path class="stroke_order_diagram--existing_path" d="M13.68,34.65c7.54-1.53,12.44-2.25,16.21-2.79c3.86-0.55,4.96,0.2,4.38,4.28c-0.72,5.05-1.02,10.73-2.18,17.26" id="Ske1qayi93c" kvg:type="㇕b" transform="matrix(1,0,0,1,1096,-4)" xmlns:kvg="http://kanjivg.tagaini.net"></path><path class="stroke_order_diagram--existing_path" d="M15.77,56.71c3.77-0.54,8.47-1.07,13.72-1.78c1.45-0.2,2.88-0.38,4.34-0.38" id="Ske1qayi93d" kvg:type="㇐b" transform="matrix(1,0,0,1,1096,-4)" xmlns:kvg="http://kanjivg.tagaini.net"></path><path class="stroke_order_diagram--existing_path" d="M59.35,13.5c0.1,1.03-0.16,2.16-0.67,3.03c-2.75,4.71-9.27,14.28-17.93,21.22" id="Ske1qayi93e" kvg:type="㇒" transform="matrix(1,0,0,1,1096,-4)" xmlns:kvg="http://kanjivg.tagaini.net"></path><path class="stroke_order_diagram--existing_path" d="M59.55,20.01c4.2-0.51,10.82-2.01,13.59-2.72c2.58-0.66,3.6,0.59,1.71,2.76c-3.56,4.07-8.35,10.2-14.35,18.45" id="Ske1qayi93f" kvg:type="㇇a" transform="matrix(1,0,0,1,1096,-4)" xmlns:kvg="http://kanjivg.tagaini.net"></path><path class="stroke_order_diagram--existing_path" d="M44,40c0.94,0.94,1.51,2.61,1.73,3.87c1.13,6.45,1.18,9.73,1.95,16.33c0.16,1.41,0.35,2.99,0.57,4.79" id="Ske1qayi93g" kvg:type="㇑" transform="matrix(1,0,0,1,1096,-4)" xmlns:kvg="http://kanjivg.tagaini.net"></path><path class="stroke_order_diagram--existing_path" d="M46.39,41.4c11.11-1.9,28.57-4.48,35.25-4.67c2.77-0.08,3.79,2.16,3.6,3.94c-0.19,1.82-0.84,8.01-1.84,14.4c-0.28,1.79-0.59,3.6-0.92,5.33" id="Ske1qayi93h" kvg:type="㇕a" transform="matrix(1,0,0,1,1096,-4)" xmlns:kvg="http://kanjivg.tagaini.net"></path><path class="stroke_order_diagram--existing_path" d="M58,43.75c0.25,0.5,0.25,1.23,0.18,1.79c-0.56,4.96-1.96,8.82-5.92,12.71" id="Ske1qayi93i" kvg:type="㇒" transform="matrix(1,0,0,1,1096,-4)" xmlns:kvg="http://kanjivg.tagaini.net"></path><path class="stroke_order_diagram--existing_path" d="M67.77,39.21c0.49,0.87,0.91,1.89,0.91,3.22c0,1.8,0.1,3.42,0.1,4.7c0,3.36,1.43,4.69,4.65,4.69c2.91,0,5.05,0,6.29-1.13" id="Ske1qayi93j" kvg:type="㇟" transform="matrix(1,0,0,1,1096,-4)" xmlns:kvg="http://kanjivg.tagaini.net"></path><path class="stroke_order_diagram--existing_path" d="M35.09,70.64c2.48,0.59,5.42,0.44,7.91,0.13c15.38-1.89,33.6-3.26,45.88-4.22c2.51-0.2,5.5-0.3,7.76,0.22" id="Ske1qayi93k" kvg:type="㇐" transform="matrix(1,0,0,1,1096,-4)" xmlns:kvg="http://kanjivg.tagaini.net"></path><path class="stroke_order_diagram--existing_path" d="M62.89,58.92c0.31,1.17,0.54,2.4,0.31,3.49c-3.44,15.97-13.82,27.47-31.33,34.34" id="Ske1qayi93l" kvg:type="㇒" transform="matrix(1,0,0,1,1096,-4)" xmlns:kvg="http://kanjivg.tagaini.net"></path><path class="stroke_order_diagram--current_path" d="M63.7,69.39c5.24,4.67,16.25,14.96,23.51,20.55c2.26,1.74,4.42,3.43,7.42,4.43" id="kvg:0559a-s12" kvg:type="㇏" transform="matrix(1,0,0,1,1096,-4)" xmlns:kvg="http://kanjivg.tagaini.net"></path><path class="stroke_order_diagram--current_path" d="M63.7,69.39c5.24,4.67,16.25,14.96,23.51,20.55c2.26,1.74,4.42,3.43,7.42,4.43" id="Ske1qayi93n" kvg:type="㇏" transform="matrix(1,0,0,1,1096,-4)" xmlns:kvg="http://kanjivg.tagaini.net"></path><circle class="stroke_order_diagram--path_start" cx="63.7" cy="69.39" r="4" transform="matrix(1,0,0,1,1096,-4)"></circle></svg>