<svg class="stroke_order_diagram--svg_container_for_518662a1d5dda79658000cdf" style="height: 100px; width: 1300px;" viewbox="0 0 1300 100"><desc>Created with Snap</desc><defs></defs><line class="stroke_order_diagram--bounding_box" x1="1" x2="1299" y1="1" y2="1"></line><line class="stroke_order_diagram--bounding_box" x1="1" x2="1" y1="1" y2="99"></line><line class="stroke_order_diagram--bounding_box" x1="1" x2="1299" y1="99" y2="99"></line><line class="stroke_order_diagram--guide_line" x1="0" x2="1300" y1="50" y2="50"></line><line class="stroke_order_diagram--guide_line" x1="50" x2="50" y1="1" y2="99"></line><line class="stroke_order_diagram--bounding_box" x1="99" x2="99" y1="1" y2="99"></line><path class="stroke_order_diagram--current_path" d="M9.75,34.06c0.35,0.45,0.72,0.82,0.87,1.38c1.23,4.42,3.7,18.12,4.54,26.06" id="kvg:055e4-s1" kvg:type="㇑" transform="matrix(1,0,0,1,-4,-4)" xmlns:kvg="http://kanjivg.tagaini.net"></path><path class="stroke_order_diagram--current_path" d="M9.75,34.06c0.35,0.45,0.72,0.82,0.87,1.38c1.23,4.42,3.7,18.12,4.54,26.06" id="Ske2edillm" kvg:type="㇑" transform="matrix(1,0,0,1,-4,-4)" xmlns:kvg="http://kanjivg.tagaini.net"></path><circle class="stroke_order_diagram--path_start" cx="9.75" cy="34.06" r="4" transform="matrix(1,0,0,1,-4,-4)"></circle><line class="stroke_order_diagram--guide_line" x1="150" x2="150" y1="1" y2="99"></line><line class="stroke_order_diagram--bounding_box" x1="199" x2="199" y1="1" y2="99"></line><path class="stroke_order_diagram--existing_path" d="M9.75,34.06c0.35,0.45,0.72,0.82,0.87,1.38c1.23,4.42,3.7,18.12,4.54,26.06" id="Ske2edillp" kvg:type="㇑" transform="matrix(1,0,0,1,96,-4)" xmlns:kvg="http://kanjivg.tagaini.net"></path><path class="stroke_order_diagram--current_path" d="M11.96,36.18c8.94-1.94,15.27-3.11,19.41-3.69c1.52-0.21,2.43,1.26,2.21,2.51c-0.9,5.17-2.45,12.65-3.78,19.8" id="kvg:055e4-s2" kvg:type="㇕b" transform="matrix(1,0,0,1,96,-4)" xmlns:kvg="http://kanjivg.tagaini.net"></path><path class="stroke_order_diagram--current_path" d="M11.96,36.18c8.94-1.94,15.27-3.11,19.41-3.69c1.52-0.21,2.43,1.26,2.21,2.51c-0.9,5.17-2.45,12.65-3.78,19.8" id="Ske2edillr" kvg:type="㇕b" transform="matrix(1,0,0,1,96,-4)" xmlns:kvg="http://kanjivg.tagaini.net"></path><circle class="stroke_order_diagram--path_start" cx="11.96" cy="36.18" r="4" transform="matrix(1,0,0,1,96,-4)"></circle><line class="stroke_order_diagram--guide_line" x1="250" x2="250" y1="1" y2="99"></line><line class="stroke_order_diagram--bounding_box" x1="299" x2="299" y1="1" y2="99"></line><path class="stroke_order_diagram--existing_path" d="M9.75,34.06c0.35,0.45,0.72,0.82,0.87,1.38c1.23,4.42,3.7,18.12,4.54,26.06" id="Ske2edillu" kvg:type="㇑" transform="matrix(1,0,0,1,196,-4)" xmlns:kvg="http://kanjivg.tagaini.net"></path><path class="stroke_order_diagram--existing_path" d="M11.96,36.18c8.94-1.94,15.27-3.11,19.41-3.69c1.52-0.21,2.43,1.26,2.21,2.51c-0.9,5.17-2.45,12.65-3.78,19.8" id="Ske2edillv" kvg:type="㇕b" transform="matrix(1,0,0,1,196,-4)" xmlns:kvg="http://kanjivg.tagaini.net"></path><path class="stroke_order_diagram--current_path" d="M14.82,57.86c4.87-0.66,10.75-1.42,17.43-2.43" id="kvg:055e4-s3" kvg:type="㇐b" transform="matrix(1,0,0,1,196,-4)" xmlns:kvg="http://kanjivg.tagaini.net"></path><path class="stroke_order_diagram--current_path" d="M14.82,57.86c4.87-0.66,10.75-1.42,17.43-2.43" id="Ske2edillx" kvg:type="㇐b" transform="matrix(1,0,0,1,196,-4)" xmlns:kvg="http://kanjivg.tagaini.net"></path><circle class="stroke_order_diagram--path_start" cx="14.82" cy="57.86" r="4" transform="matrix(1,0,0,1,196,-4)"></circle><line class="stroke_order_diagram--guide_line" x1="350" x2="350" y1="1" y2="99"></line><line class="stroke_order_diagram--bounding_box" x1="399" x2="399" y1="1" y2="99"></line><path class="stroke_order_diagram--existing_path" d="M9.75,34.06c0.35,0.45,0.72,0.82,0.87,1.38c1.23,4.42,3.7,18.12,4.54,26.06" id="Ske2edill10" kvg:type="㇑" transform="matrix(1,0,0,1,296,-4)" xmlns:kvg="http://kanjivg.tagaini.net"></path><path class="stroke_order_diagram--existing_path" d="M11.96,36.18c8.94-1.94,15.27-3.11,19.41-3.69c1.52-0.21,2.43,1.26,2.21,2.51c-0.9,5.17-2.45,12.65-3.78,19.8" id="Ske2edill11" kvg:type="㇕b" transform="matrix(1,0,0,1,296,-4)" xmlns:kvg="http://kanjivg.tagaini.net"></path><path class="stroke_order_diagram--existing_path" d="M14.82,57.86c4.87-0.66,10.75-1.42,17.43-2.43" id="Ske2edill12" kvg:type="㇐b" transform="matrix(1,0,0,1,296,-4)" xmlns:kvg="http://kanjivg.tagaini.net"></path><path class="stroke_order_diagram--current_path" d="M46.18,17.44c0.6,0.4,2.33,1.11,1.55,3.32c-0.97,2.75-1.47,6-2.33,9.68c-0.56,2.4-1.17,3.4,1.72,3.1c8.46-0.86,35.04-3.47,42.6-4.56" id="kvg:055e4-s4" kvg:type="㇗a" transform="matrix(1,0,0,1,296,-4)" xmlns:kvg="http://kanjivg.tagaini.net"></path><path class="stroke_order_diagram--current_path" d="M46.18,17.44c0.6,0.4,2.33,1.11,1.55,3.32c-0.97,2.75-1.47,6-2.33,9.68c-0.56,2.4-1.17,3.4,1.72,3.1c8.46-0.86,35.04-3.47,42.6-4.56" id="Ske2edill14" kvg:type="㇗a" transform="matrix(1,0,0,1,296,-4)" xmlns:kvg="http://kanjivg.tagaini.net"></path><circle class="stroke_order_diagram--path_start" cx="46.18" cy="17.44" r="4" transform="matrix(1,0,0,1,296,-4)"></circle><line class="stroke_order_diagram--guide_line" x1="450" x2="450" y1="1" y2="99"></line><line class="stroke_order_diagram--bounding_box" x1="499" x2="499" y1="1" y2="99"></line><path class="stroke_order_diagram--existing_path" d="M9.75,34.06c0.35,0.45,0.72,0.82,0.87,1.38c1.23,4.42,3.7,18.12,4.54,26.06" id="Ske2edill17" kvg:type="㇑" transform="matrix(1,0,0,1,396,-4)" xmlns:kvg="http://kanjivg.tagaini.net"></path><path class="stroke_order_diagram--existing_path" d="M11.96,36.18c8.94-1.94,15.27-3.11,19.41-3.69c1.52-0.21,2.43,1.26,2.21,2.51c-0.9,5.17-2.45,12.65-3.78,19.8" id="Ske2edill18" kvg:type="㇕b" transform="matrix(1,0,0,1,396,-4)" xmlns:kvg="http://kanjivg.tagaini.net"></path><path class="stroke_order_diagram--existing_path" d="M14.82,57.86c4.87-0.66,10.75-1.42,17.43-2.43" id="Ske2edill19" kvg:type="㇐b" transform="matrix(1,0,0,1,396,-4)" xmlns:kvg="http://kanjivg.tagaini.net"></path><path class="stroke_order_diagram--existing_path" d="M46.18,17.44c0.6,0.4,2.33,1.11,1.55,3.32c-0.97,2.75-1.47,6-2.33,9.68c-0.56,2.4-1.17,3.4,1.72,3.1c8.46-0.86,35.04-3.47,42.6-4.56" id="Ske2edill1a" kvg:type="㇗a" transform="matrix(1,0,0,1,396,-4)" xmlns:kvg="http://kanjivg.tagaini.net"></path><path class="stroke_order_diagram--current_path" d="M89.7,14.75c0.51,0.53,1.69,2.28,1.55,3.38C90.5,24,89.5,30.75,88.96,34.42" id="kvg:055e4-s5" kvg:type="㇑" transform="matrix(1,0,0,1,396,-4)" xmlns:kvg="http://kanjivg.tagaini.net"></path><path class="stroke_order_diagram--current_path" d="M89.7,14.75c0.51,0.53,1.69,2.28,1.55,3.38C90.5,24,89.5,30.75,88.96,34.42" id="Ske2edill1c" kvg:type="㇑" transform="matrix(1,0,0,1,396,-4)" xmlns:kvg="http://kanjivg.tagaini.net"></path><circle class="stroke_order_diagram--path_start" cx="89.7" cy="14.75" r="4" transform="matrix(1,0,0,1,396,-4)"></circle><line class="stroke_order_diagram--guide_line" x1="550" x2="550" y1="1" y2="99"></line><line class="stroke_order_diagram--bounding_box" x1="599" x2="599" y1="1" y2="99"></line><path class="stroke_order_diagram--existing_path" d="M9.75,34.06c0.35,0.45,0.72,0.82,0.87,1.38c1.23,4.42,3.7,18.12,4.54,26.06" id="Ske2edill1f" kvg:type="㇑" transform="matrix(1,0,0,1,496,-4)" xmlns:kvg="http://kanjivg.tagaini.net"></path><path class="stroke_order_diagram--existing_path" d="M11.96,36.18c8.94-1.94,15.27-3.11,19.41-3.69c1.52-0.21,2.43,1.26,2.21,2.51c-0.9,5.17-2.45,12.65-3.78,19.8" id="Ske2edill1g" kvg:type="㇕b" transform="matrix(1,0,0,1,496,-4)" xmlns:kvg="http://kanjivg.tagaini.net"></path><path class="stroke_order_diagram--existing_path" d="M14.82,57.86c4.87-0.66,10.75-1.42,17.43-2.43" id="Ske2edill1h" kvg:type="㇐b" transform="matrix(1,0,0,1,496,-4)" xmlns:kvg="http://kanjivg.tagaini.net"></path><path class="stroke_order_diagram--existing_path" d="M46.18,17.44c0.6,0.4,2.33,1.11,1.55,3.32c-0.97,2.75-1.47,6-2.33,9.68c-0.56,2.4-1.17,3.4,1.72,3.1c8.46-0.86,35.04-3.47,42.6-4.56" id="Ske2edill1i" kvg:type="㇗a" transform="matrix(1,0,0,1,496,-4)" xmlns:kvg="http://kanjivg.tagaini.net"></path><path class="stroke_order_diagram--existing_path" d="M89.7,14.75c0.51,0.53,1.69,2.28,1.55,3.38C90.5,24,89.5,30.75,88.96,34.42" id="Ske2edill1j" kvg:type="㇑" transform="matrix(1,0,0,1,496,-4)" xmlns:kvg="http://kanjivg.tagaini.net"></path><path class="stroke_order_diagram--current_path" d="M68.3,11.62c0.63,0.4,1.28,1.73,1.2,2.38c-1.26,11-5.26,23.75-15.27,33.34" id="kvg:055e4-s6" kvg:type="㇒" transform="matrix(1,0,0,1,496,-4)" xmlns:kvg="http://kanjivg.tagaini.net"></path><path class="stroke_order_diagram--current_path" d="M68.3,11.62c0.63,0.4,1.28,1.73,1.2,2.38c-1.26,11-5.26,23.75-15.27,33.34" id="Ske2edill1l" kvg:type="㇒" transform="matrix(1,0,0,1,496,-4)" xmlns:kvg="http://kanjivg.tagaini.net"></path><circle class="stroke_order_diagram--path_start" cx="68.3" cy="11.62" r="4" transform="matrix(1,0,0,1,496,-4)"></circle><line class="stroke_order_diagram--guide_line" x1="650" x2="650" y1="1" y2="99"></line><line class="stroke_order_diagram--bounding_box" x1="699" x2="699" y1="1" y2="99"></line><path class="stroke_order_diagram--existing_path" d="M9.75,34.06c0.35,0.45,0.72,0.82,0.87,1.38c1.23,4.42,3.7,18.12,4.54,26.06" id="Ske2edill1o" kvg:type="㇑" transform="matrix(1,0,0,1,596,-4)" xmlns:kvg="http://kanjivg.tagaini.net"></path><path class="stroke_order_diagram--existing_path" d="M11.96,36.18c8.94-1.94,15.27-3.11,19.41-3.69c1.52-0.21,2.43,1.26,2.21,2.51c-0.9,5.17-2.45,12.65-3.78,19.8" id="Ske2edill1p" kvg:type="㇕b" transform="matrix(1,0,0,1,596,-4)" xmlns:kvg="http://kanjivg.tagaini.net"></path><path class="stroke_order_diagram--existing_path" d="M14.82,57.86c4.87-0.66,10.75-1.42,17.43-2.43" id="Ske2edill1q" kvg:type="㇐b" transform="matrix(1,0,0,1,596,-4)" xmlns:kvg="http://kanjivg.tagaini.net"></path><path class="stroke_order_diagram--existing_path" d="M46.18,17.44c0.6,0.4,2.33,1.11,1.55,3.32c-0.97,2.75-1.47,6-2.33,9.68c-0.56,2.4-1.17,3.4,1.72,3.1c8.46-0.86,35.04-3.47,42.6-4.56" id="Ske2edill1r" kvg:type="㇗a" transform="matrix(1,0,0,1,596,-4)" xmlns:kvg="http://kanjivg.tagaini.net"></path><path class="stroke_order_diagram--existing_path" d="M89.7,14.75c0.51,0.53,1.69,2.28,1.55,3.38C90.5,24,89.5,30.75,88.96,34.42" id="Ske2edill1s" kvg:type="㇑" transform="matrix(1,0,0,1,596,-4)" xmlns:kvg="http://kanjivg.tagaini.net"></path><path class="stroke_order_diagram--existing_path" d="M68.3,11.62c0.63,0.4,1.28,1.73,1.2,2.38c-1.26,11-5.26,23.75-15.27,33.34" id="Ske2edill1t" kvg:type="㇒" transform="matrix(1,0,0,1,596,-4)" xmlns:kvg="http://kanjivg.tagaini.net"></path><path class="stroke_order_diagram--current_path" d="M39.75,49.7c1.18,0.54,3.34,0.58,4.51,0.54c15.46-0.49,36.09-3.99,49.61-3.73c1.96,0.04,3.14,0.26,4.12,0.53" id="kvg:055e4-s7" kvg:type="㇐" transform="matrix(1,0,0,1,596,-4)" xmlns:kvg="http://kanjivg.tagaini.net"></path><path class="stroke_order_diagram--current_path" d="M39.75,49.7c1.18,0.54,3.34,0.58,4.51,0.54c15.46-0.49,36.09-3.99,49.61-3.73c1.96,0.04,3.14,0.26,4.12,0.53" id="Ske2edill1v" kvg:type="㇐" transform="matrix(1,0,0,1,596,-4)" xmlns:kvg="http://kanjivg.tagaini.net"></path><circle class="stroke_order_diagram--path_start" cx="39.75" cy="49.7" r="4" transform="matrix(1,0,0,1,596,-4)"></circle><line class="stroke_order_diagram--guide_line" x1="750" x2="750" y1="1" y2="99"></line><line class="stroke_order_diagram--bounding_box" x1="799" x2="799" y1="1" y2="99"></line><path class="stroke_order_diagram--existing_path" d="M9.75,34.06c0.35,0.45,0.72,0.82,0.87,1.38c1.23,4.42,3.7,18.12,4.54,26.06" id="Ske2edill1y" kvg:type="㇑" transform="matrix(1,0,0,1,696,-4)" xmlns:kvg="http://kanjivg.tagaini.net"></path><path class="stroke_order_diagram--existing_path" d="M11.96,36.18c8.94-1.94,15.27-3.11,19.41-3.69c1.52-0.21,2.43,1.26,2.21,2.51c-0.9,5.17-2.45,12.65-3.78,19.8" id="Ske2edill1z" kvg:type="㇕b" transform="matrix(1,0,0,1,696,-4)" xmlns:kvg="http://kanjivg.tagaini.net"></path><path class="stroke_order_diagram--existing_path" d="M14.82,57.86c4.87-0.66,10.75-1.42,17.43-2.43" id="Ske2edill20" kvg:type="㇐b" transform="matrix(1,0,0,1,696,-4)" xmlns:kvg="http://kanjivg.tagaini.net"></path><path class="stroke_order_diagram--existing_path" d="M46.18,17.44c0.6,0.4,2.33,1.11,1.55,3.32c-0.97,2.75-1.47,6-2.33,9.68c-0.56,2.4-1.17,3.4,1.72,3.1c8.46-0.86,35.04-3.47,42.6-4.56" id="Ske2edill21" kvg:type="㇗a" transform="matrix(1,0,0,1,696,-4)" xmlns:kvg="http://kanjivg.tagaini.net"></path><path class="stroke_order_diagram--existing_path" d="M89.7,14.75c0.51,0.53,1.69,2.28,1.55,3.38C90.5,24,89.5,30.75,88.96,34.42" id="Ske2edill22" kvg:type="㇑" transform="matrix(1,0,0,1,696,-4)" xmlns:kvg="http://kanjivg.tagaini.net"></path><path class="stroke_order_diagram--existing_path" d="M68.3,11.62c0.63,0.4,1.28,1.73,1.2,2.38c-1.26,11-5.26,23.75-15.27,33.34" id="Ske2edill23" kvg:type="㇒" transform="matrix(1,0,0,1,696,-4)" xmlns:kvg="http://kanjivg.tagaini.net"></path><path class="stroke_order_diagram--existing_path" d="M39.75,49.7c1.18,0.54,3.34,0.58,4.51,0.54c15.46-0.49,36.09-3.99,49.61-3.73c1.96,0.04,3.14,0.26,4.12,0.53" id="Ske2edill24" kvg:type="㇐" transform="matrix(1,0,0,1,696,-4)" xmlns:kvg="http://kanjivg.tagaini.net"></path><path class="stroke_order_diagram--current_path" d="M44.81,60.71c0.62,0.4,1.07,1.38,1.18,1.91c0.85,3.8,2.21,9.81,3.4,17" id="kvg:055e4-s8" kvg:type="㇑" transform="matrix(1,0,0,1,696,-4)" xmlns:kvg="http://kanjivg.tagaini.net"></path><path class="stroke_order_diagram--current_path" d="M44.81,60.71c0.62,0.4,1.07,1.38,1.18,1.91c0.85,3.8,2.21,9.81,3.4,17" id="Ske2edill26" kvg:type="㇑" transform="matrix(1,0,0,1,696,-4)" xmlns:kvg="http://kanjivg.tagaini.net"></path><circle class="stroke_order_diagram--path_start" cx="44.81" cy="60.71" r="4" transform="matrix(1,0,0,1,696,-4)"></circle><line class="stroke_order_diagram--guide_line" x1="850" x2="850" y1="1" y2="99"></line><line class="stroke_order_diagram--bounding_box" x1="899" x2="899" y1="1" y2="99"></line><path class="stroke_order_diagram--existing_path" d="M9.75,34.06c0.35,0.45,0.72,0.82,0.87,1.38c1.23,4.42,3.7,18.12,4.54,26.06" id="Ske2edill29" kvg:type="㇑" transform="matrix(1,0,0,1,796,-4)" xmlns:kvg="http://kanjivg.tagaini.net"></path><path class="stroke_order_diagram--existing_path" d="M11.96,36.18c8.94-1.94,15.27-3.11,19.41-3.69c1.52-0.21,2.43,1.26,2.21,2.51c-0.9,5.17-2.45,12.65-3.78,19.8" id="Ske2edill2a" kvg:type="㇕b" transform="matrix(1,0,0,1,796,-4)" xmlns:kvg="http://kanjivg.tagaini.net"></path><path class="stroke_order_diagram--existing_path" d="M14.82,57.86c4.87-0.66,10.75-1.42,17.43-2.43" id="Ske2edill2b" kvg:type="㇐b" transform="matrix(1,0,0,1,796,-4)" xmlns:kvg="http://kanjivg.tagaini.net"></path><path class="stroke_order_diagram--existing_path" d="M46.18,17.44c0.6,0.4,2.33,1.11,1.55,3.32c-0.97,2.75-1.47,6-2.33,9.68c-0.56,2.4-1.17,3.4,1.72,3.1c8.46-0.86,35.04-3.47,42.6-4.56" id="Ske2edill2c" kvg:type="㇗a" transform="matrix(1,0,0,1,796,-4)" xmlns:kvg="http://kanjivg.tagaini.net"></path><path class="stroke_order_diagram--existing_path" d="M89.7,14.75c0.51,0.53,1.69,2.28,1.55,3.38C90.5,24,89.5,30.75,88.96,34.42" id="Ske2edill2d" kvg:type="㇑" transform="matrix(1,0,0,1,796,-4)" xmlns:kvg="http://kanjivg.tagaini.net"></path><path class="stroke_order_diagram--existing_path" d="M68.3,11.62c0.63,0.4,1.28,1.73,1.2,2.38c-1.26,11-5.26,23.75-15.27,33.34" id="Ske2edill2e" kvg:type="㇒" transform="matrix(1,0,0,1,796,-4)" xmlns:kvg="http://kanjivg.tagaini.net"></path><path class="stroke_order_diagram--existing_path" d="M39.75,49.7c1.18,0.54,3.34,0.58,4.51,0.54c15.46-0.49,36.09-3.99,49.61-3.73c1.96,0.04,3.14,0.26,4.12,0.53" id="Ske2edill2f" kvg:type="㇐" transform="matrix(1,0,0,1,796,-4)" xmlns:kvg="http://kanjivg.tagaini.net"></path><path class="stroke_order_diagram--existing_path" d="M44.81,60.71c0.62,0.4,1.07,1.38,1.18,1.91c0.85,3.8,2.21,9.81,3.4,17" id="Ske2edill2g" kvg:type="㇑" transform="matrix(1,0,0,1,796,-4)" xmlns:kvg="http://kanjivg.tagaini.net"></path><path class="stroke_order_diagram--current_path" d="M46.45,62.24c9.49-0.76,35.76-3.95,42.63-4.24c2.68-0.11,2.8,1.21,2.53,2.9c-0.62,3.93-1.6,5.69-3.45,12.17" id="kvg:055e4-s9" kvg:type="㇕b" transform="matrix(1,0,0,1,796,-4)" xmlns:kvg="http://kanjivg.tagaini.net"></path><path class="stroke_order_diagram--current_path" d="M46.45,62.24c9.49-0.76,35.76-3.95,42.63-4.24c2.68-0.11,2.8,1.21,2.53,2.9c-0.62,3.93-1.6,5.69-3.45,12.17" id="Ske2edill2i" kvg:type="㇕b" transform="matrix(1,0,0,1,796,-4)" xmlns:kvg="http://kanjivg.tagaini.net"></path><circle class="stroke_order_diagram--path_start" cx="46.45" cy="62.24" r="4" transform="matrix(1,0,0,1,796,-4)"></circle><line class="stroke_order_diagram--guide_line" x1="950" x2="950" y1="1" y2="99"></line><line class="stroke_order_diagram--bounding_box" x1="999" x2="999" y1="1" y2="99"></line><path class="stroke_order_diagram--existing_path" d="M9.75,34.06c0.35,0.45,0.72,0.82,0.87,1.38c1.23,4.42,3.7,18.12,4.54,26.06" id="Ske2edill2l" kvg:type="㇑" transform="matrix(1,0,0,1,896,-4)" xmlns:kvg="http://kanjivg.tagaini.net"></path><path class="stroke_order_diagram--existing_path" d="M11.96,36.18c8.94-1.94,15.27-3.11,19.41-3.69c1.52-0.21,2.43,1.26,2.21,2.51c-0.9,5.17-2.45,12.65-3.78,19.8" id="Ske2edill2m" kvg:type="㇕b" transform="matrix(1,0,0,1,896,-4)" xmlns:kvg="http://kanjivg.tagaini.net"></path><path class="stroke_order_diagram--existing_path" d="M14.82,57.86c4.87-0.66,10.75-1.42,17.43-2.43" id="Ske2edill2n" kvg:type="㇐b" transform="matrix(1,0,0,1,896,-4)" xmlns:kvg="http://kanjivg.tagaini.net"></path><path class="stroke_order_diagram--existing_path" d="M46.18,17.44c0.6,0.4,2.33,1.11,1.55,3.32c-0.97,2.75-1.47,6-2.33,9.68c-0.56,2.4-1.17,3.4,1.72,3.1c8.46-0.86,35.04-3.47,42.6-4.56" id="Ske2edill2o" kvg:type="㇗a" transform="matrix(1,0,0,1,896,-4)" xmlns:kvg="http://kanjivg.tagaini.net"></path><path class="stroke_order_diagram--existing_path" d="M89.7,14.75c0.51,0.53,1.69,2.28,1.55,3.38C90.5,24,89.5,30.75,88.96,34.42" id="Ske2edill2p" kvg:type="㇑" transform="matrix(1,0,0,1,896,-4)" xmlns:kvg="http://kanjivg.tagaini.net"></path><path class="stroke_order_diagram--existing_path" d="M68.3,11.62c0.63,0.4,1.28,1.73,1.2,2.38c-1.26,11-5.26,23.75-15.27,33.34" id="Ske2edill2q" kvg:type="㇒" transform="matrix(1,0,0,1,896,-4)" xmlns:kvg="http://kanjivg.tagaini.net"></path><path class="stroke_order_diagram--existing_path" d="M39.75,49.7c1.18,0.54,3.34,0.58,4.51,0.54c15.46-0.49,36.09-3.99,49.61-3.73c1.96,0.04,3.14,0.26,4.12,0.53" id="Ske2edill2r" kvg:type="㇐" transform="matrix(1,0,0,1,896,-4)" xmlns:kvg="http://kanjivg.tagaini.net"></path><path class="stroke_order_diagram--existing_path" d="M44.81,60.71c0.62,0.4,1.07,1.38,1.18,1.91c0.85,3.8,2.21,9.81,3.4,17" id="Ske2edill2s" kvg:type="㇑" transform="matrix(1,0,0,1,896,-4)" xmlns:kvg="http://kanjivg.tagaini.net"></path><path class="stroke_order_diagram--existing_path" d="M46.45,62.24c9.49-0.76,35.76-3.95,42.63-4.24c2.68-0.11,2.8,1.21,2.53,2.9c-0.62,3.93-1.6,5.69-3.45,12.17" id="Ske2edill2t" kvg:type="㇕b" transform="matrix(1,0,0,1,896,-4)" xmlns:kvg="http://kanjivg.tagaini.net"></path><path class="stroke_order_diagram--current_path" d="M49.74,75.59c7.63-0.76,29.46-1.94,40.14-2.66" id="kvg:055e4-s10" kvg:type="㇐b" transform="matrix(1,0,0,1,896,-4)" xmlns:kvg="http://kanjivg.tagaini.net"></path><path class="stroke_order_diagram--current_path" d="M49.74,75.59c7.63-0.76,29.46-1.94,40.14-2.66" id="Ske2edill2v" kvg:type="㇐b" transform="matrix(1,0,0,1,896,-4)" xmlns:kvg="http://kanjivg.tagaini.net"></path><circle class="stroke_order_diagram--path_start" cx="49.74" cy="75.59" r="4" transform="matrix(1,0,0,1,896,-4)"></circle><line class="stroke_order_diagram--guide_line" x1="1050" x2="1050" y1="1" y2="99"></line><line class="stroke_order_diagram--bounding_box" x1="1099" x2="1099" y1="1" y2="99"></line><path class="stroke_order_diagram--existing_path" d="M9.75,34.06c0.35,0.45,0.72,0.82,0.87,1.38c1.23,4.42,3.7,18.12,4.54,26.06" id="Ske2edill2y" kvg:type="㇑" transform="matrix(1,0,0,1,996,-4)" xmlns:kvg="http://kanjivg.tagaini.net"></path><path class="stroke_order_diagram--existing_path" d="M11.96,36.18c8.94-1.94,15.27-3.11,19.41-3.69c1.52-0.21,2.43,1.26,2.21,2.51c-0.9,5.17-2.45,12.65-3.78,19.8" id="Ske2edill2z" kvg:type="㇕b" transform="matrix(1,0,0,1,996,-4)" xmlns:kvg="http://kanjivg.tagaini.net"></path><path class="stroke_order_diagram--existing_path" d="M14.82,57.86c4.87-0.66,10.75-1.42,17.43-2.43" id="Ske2edill30" kvg:type="㇐b" transform="matrix(1,0,0,1,996,-4)" xmlns:kvg="http://kanjivg.tagaini.net"></path><path class="stroke_order_diagram--existing_path" d="M46.18,17.44c0.6,0.4,2.33,1.11,1.55,3.32c-0.97,2.75-1.47,6-2.33,9.68c-0.56,2.4-1.17,3.4,1.72,3.1c8.46-0.86,35.04-3.47,42.6-4.56" id="Ske2edill31" kvg:type="㇗a" transform="matrix(1,0,0,1,996,-4)" xmlns:kvg="http://kanjivg.tagaini.net"></path><path class="stroke_order_diagram--existing_path" d="M89.7,14.75c0.51,0.53,1.69,2.28,1.55,3.38C90.5,24,89.5,30.75,88.96,34.42" id="Ske2edill32" kvg:type="㇑" transform="matrix(1,0,0,1,996,-4)" xmlns:kvg="http://kanjivg.tagaini.net"></path><path class="stroke_order_diagram--existing_path" d="M68.3,11.62c0.63,0.4,1.28,1.73,1.2,2.38c-1.26,11-5.26,23.75-15.27,33.34" id="Ske2edill33" kvg:type="㇒" transform="matrix(1,0,0,1,996,-4)" xmlns:kvg="http://kanjivg.tagaini.net"></path><path class="stroke_order_diagram--existing_path" d="M39.75,49.7c1.18,0.54,3.34,0.58,4.51,0.54c15.46-0.49,36.09-3.99,49.61-3.73c1.96,0.04,3.14,0.26,4.12,0.53" id="Ske2edill34" kvg:type="㇐" transform="matrix(1,0,0,1,996,-4)" xmlns:kvg="http://kanjivg.tagaini.net"></path><path class="stroke_order_diagram--existing_path" d="M44.81,60.71c0.62,0.4,1.07,1.38,1.18,1.91c0.85,3.8,2.21,9.81,3.4,17" id="Ske2edill35" kvg:type="㇑" transform="matrix(1,0,0,1,996,-4)" xmlns:kvg="http://kanjivg.tagaini.net"></path><path class="stroke_order_diagram--existing_path" d="M46.45,62.24c9.49-0.76,35.76-3.95,42.63-4.24c2.68-0.11,2.8,1.21,2.53,2.9c-0.62,3.93-1.6,5.69-3.45,12.17" id="Ske2edill36" kvg:type="㇕b" transform="matrix(1,0,0,1,996,-4)" xmlns:kvg="http://kanjivg.tagaini.net"></path><path class="stroke_order_diagram--existing_path" d="M49.74,75.59c7.63-0.76,29.46-1.94,40.14-2.66" id="Ske2edill37" kvg:type="㇐b" transform="matrix(1,0,0,1,996,-4)" xmlns:kvg="http://kanjivg.tagaini.net"></path><path class="stroke_order_diagram--current_path" d="M67.07,50.75c0.85,0.42,1.36,1.91,1.53,2.76c0.17,0.85,0,32.68-0.17,37.99" id="kvg:055e4-s11" kvg:type="㇑a" transform="matrix(1,0,0,1,996,-4)" xmlns:kvg="http://kanjivg.tagaini.net"></path><path class="stroke_order_diagram--current_path" d="M67.07,50.75c0.85,0.42,1.36,1.91,1.53,2.76c0.17,0.85,0,32.68-0.17,37.99" id="Ske2edill39" kvg:type="㇑a" transform="matrix(1,0,0,1,996,-4)" xmlns:kvg="http://kanjivg.tagaini.net"></path><circle class="stroke_order_diagram--path_start" cx="67.07" cy="50.75" r="4" transform="matrix(1,0,0,1,996,-4)"></circle><line class="stroke_order_diagram--guide_line" x1="1150" x2="1150" y1="1" y2="99"></line><line class="stroke_order_diagram--bounding_box" x1="1199" x2="1199" y1="1" y2="99"></line><path class="stroke_order_diagram--existing_path" d="M9.75,34.06c0.35,0.45,0.72,0.82,0.87,1.38c1.23,4.42,3.7,18.12,4.54,26.06" id="Ske2edill3c" kvg:type="㇑" transform="matrix(1,0,0,1,1096,-4)" xmlns:kvg="http://kanjivg.tagaini.net"></path><path class="stroke_order_diagram--existing_path" d="M11.96,36.18c8.94-1.94,15.27-3.11,19.41-3.69c1.52-0.21,2.43,1.26,2.21,2.51c-0.9,5.17-2.45,12.65-3.78,19.8" id="Ske2edill3d" kvg:type="㇕b" transform="matrix(1,0,0,1,1096,-4)" xmlns:kvg="http://kanjivg.tagaini.net"></path><path class="stroke_order_diagram--existing_path" d="M14.82,57.86c4.87-0.66,10.75-1.42,17.43-2.43" id="Ske2edill3e" kvg:type="㇐b" transform="matrix(1,0,0,1,1096,-4)" xmlns:kvg="http://kanjivg.tagaini.net"></path><path class="stroke_order_diagram--existing_path" d="M46.18,17.44c0.6,0.4,2.33,1.11,1.55,3.32c-0.97,2.75-1.47,6-2.33,9.68c-0.56,2.4-1.17,3.4,1.72,3.1c8.46-0.86,35.04-3.47,42.6-4.56" id="Ske2edill3f" kvg:type="㇗a" transform="matrix(1,0,0,1,1096,-4)" xmlns:kvg="http://kanjivg.tagaini.net"></path><path class="stroke_order_diagram--existing_path" d="M89.7,14.75c0.51,0.53,1.69,2.28,1.55,3.38C90.5,24,89.5,30.75,88.96,34.42" id="Ske2edill3g" kvg:type="㇑" transform="matrix(1,0,0,1,1096,-4)" xmlns:kvg="http://kanjivg.tagaini.net"></path><path class="stroke_order_diagram--existing_path" d="M68.3,11.62c0.63,0.4,1.28,1.73,1.2,2.38c-1.26,11-5.26,23.75-15.27,33.34" id="Ske2edill3h" kvg:type="㇒" transform="matrix(1,0,0,1,1096,-4)" xmlns:kvg="http://kanjivg.tagaini.net"></path><path class="stroke_order_diagram--existing_path" d="M39.75,49.7c1.18,0.54,3.34,0.58,4.51,0.54c15.46-0.49,36.09-3.99,49.61-3.73c1.96,0.04,3.14,0.26,4.12,0.53" id="Ske2edill3i" kvg:type="㇐" transform="matrix(1,0,0,1,1096,-4)" xmlns:kvg="http://kanjivg.tagaini.net"></path><path class="stroke_order_diagram--existing_path" d="M44.81,60.71c0.62,0.4,1.07,1.38,1.18,1.91c0.85,3.8,2.21,9.81,3.4,17" id="Ske2edill3j" kvg:type="㇑" transform="matrix(1,0,0,1,1096,-4)" xmlns:kvg="http://kanjivg.tagaini.net"></path><path class="stroke_order_diagram--existing_path" d="M46.45,62.24c9.49-0.76,35.76-3.95,42.63-4.24c2.68-0.11,2.8,1.21,2.53,2.9c-0.62,3.93-1.6,5.69-3.45,12.17" id="Ske2edill3k" kvg:type="㇕b" transform="matrix(1,0,0,1,1096,-4)" xmlns:kvg="http://kanjivg.tagaini.net"></path><path class="stroke_order_diagram--existing_path" d="M49.74,75.59c7.63-0.76,29.46-1.94,40.14-2.66" id="Ske2edill3l" kvg:type="㇐b" transform="matrix(1,0,0,1,1096,-4)" xmlns:kvg="http://kanjivg.tagaini.net"></path><path class="stroke_order_diagram--existing_path" d="M67.07,50.75c0.85,0.42,1.36,1.91,1.53,2.76c0.17,0.85,0,32.68-0.17,37.99" id="Ske2edill3m" kvg:type="㇑a" transform="matrix(1,0,0,1,1096,-4)" xmlns:kvg="http://kanjivg.tagaini.net"></path><path class="stroke_order_diagram--current_path" d="M42.68,95.28c0.99,0.74,1.98,1.59,2.98,1.47c2.32-0.27,37.55-8.66,43.67-10.13" id="kvg:055e4-s12" kvg:type="㇀" transform="matrix(1,0,0,1,1096,-4)" xmlns:kvg="http://kanjivg.tagaini.net"></path><path class="stroke_order_diagram--current_path" d="M42.68,95.28c0.99,0.74,1.98,1.59,2.98,1.47c2.32-0.27,37.55-8.66,43.67-10.13" id="Ske2edill3o" kvg:type="㇀" transform="matrix(1,0,0,1,1096,-4)" xmlns:kvg="http://kanjivg.tagaini.net"></path><circle class="stroke_order_diagram--path_start" cx="42.68" cy="95.28" r="4" transform="matrix(1,0,0,1,1096,-4)"></circle><line class="stroke_order_diagram--guide_line" x1="1250" x2="1250" y1="1" y2="99"></line><line class="stroke_order_diagram--bounding_box" x1="1299" x2="1299" y1="1" y2="99"></line><path class="stroke_order_diagram--existing_path" d="M9.75,34.06c0.35,0.45,0.72,0.82,0.87,1.38c1.23,4.42,3.7,18.12,4.54,26.06" id="Ske2edill3r" kvg:type="㇑" transform="matrix(1,0,0,1,1196,-4)" xmlns:kvg="http://kanjivg.tagaini.net"></path><path class="stroke_order_diagram--existing_path" d="M11.96,36.18c8.94-1.94,15.27-3.11,19.41-3.69c1.52-0.21,2.43,1.26,2.21,2.51c-0.9,5.17-2.45,12.65-3.78,19.8" id="Ske2edill3s" kvg:type="㇕b" transform="matrix(1,0,0,1,1196,-4)" xmlns:kvg="http://kanjivg.tagaini.net"></path><path class="stroke_order_diagram--existing_path" d="M14.82,57.86c4.87-0.66,10.75-1.42,17.43-2.43" id="Ske2edill3t" kvg:type="㇐b" transform="matrix(1,0,0,1,1196,-4)" xmlns:kvg="http://kanjivg.tagaini.net"></path><path class="stroke_order_diagram--existing_path" d="M46.18,17.44c0.6,0.4,2.33,1.11,1.55,3.32c-0.97,2.75-1.47,6-2.33,9.68c-0.56,2.4-1.17,3.4,1.72,3.1c8.46-0.86,35.04-3.47,42.6-4.56" id="Ske2edill3u" kvg:type="㇗a" transform="matrix(1,0,0,1,1196,-4)" xmlns:kvg="http://kanjivg.tagaini.net"></path><path class="stroke_order_diagram--existing_path" d="M89.7,14.75c0.51,0.53,1.69,2.28,1.55,3.38C90.5,24,89.5,30.75,88.96,34.42" id="Ske2edill3v" kvg:type="㇑" transform="matrix(1,0,0,1,1196,-4)" xmlns:kvg="http://kanjivg.tagaini.net"></path><path class="stroke_order_diagram--existing_path" d="M68.3,11.62c0.63,0.4,1.28,1.73,1.2,2.38c-1.26,11-5.26,23.75-15.27,33.34" id="Ske2edill3w" kvg:type="㇒" transform="matrix(1,0,0,1,1196,-4)" xmlns:kvg="http://kanjivg.tagaini.net"></path><path class="stroke_order_diagram--existing_path" d="M39.75,49.7c1.18,0.54,3.34,0.58,4.51,0.54c15.46-0.49,36.09-3.99,49.61-3.73c1.96,0.04,3.14,0.26,4.12,0.53" id="Ske2edill3x" kvg:type="㇐" transform="matrix(1,0,0,1,1196,-4)" xmlns:kvg="http://kanjivg.tagaini.net"></path><path class="stroke_order_diagram--existing_path" d="M44.81,60.71c0.62,0.4,1.07,1.38,1.18,1.91c0.85,3.8,2.21,9.81,3.4,17" id="Ske2edill3y" kvg:type="㇑" transform="matrix(1,0,0,1,1196,-4)" xmlns:kvg="http://kanjivg.tagaini.net"></path><path class="stroke_order_diagram--existing_path" d="M46.45,62.24c9.49-0.76,35.76-3.95,42.63-4.24c2.68-0.11,2.8,1.21,2.53,2.9c-0.62,3.93-1.6,5.69-3.45,12.17" id="Ske2edill3z" kvg:type="㇕b" transform="matrix(1,0,0,1,1196,-4)" xmlns:kvg="http://kanjivg.tagaini.net"></path><path class="stroke_order_diagram--existing_path" d="M49.74,75.59c7.63-0.76,29.46-1.94,40.14-2.66" id="Ske2edill40" kvg:type="㇐b" transform="matrix(1,0,0,1,1196,-4)" xmlns:kvg="http://kanjivg.tagaini.net"></path><path class="stroke_order_diagram--existing_path" d="M67.07,50.75c0.85,0.42,1.36,1.91,1.53,2.76c0.17,0.85,0,32.68-0.17,37.99" id="Ske2edill41" kvg:type="㇑a" transform="matrix(1,0,0,1,1196,-4)" xmlns:kvg="http://kanjivg.tagaini.net"></path><path class="stroke_order_diagram--existing_path" d="M42.68,95.28c0.99,0.74,1.98,1.59,2.98,1.47c2.32-0.27,37.55-8.66,43.67-10.13" id="Ske2edill42" kvg:type="㇀" transform="matrix(1,0,0,1,1196,-4)" xmlns:kvg="http://kanjivg.tagaini.net"></path><path class="stroke_order_diagram--current_path" d="M82.76,80.07c4.82,2.96,12.45,12.15,13.65,16.75" id="kvg:055e4-s13" kvg:type="㇔" transform="matrix(1,0,0,1,1196,-4)" xmlns:kvg="http://kanjivg.tagaini.net"></path><path class="stroke_order_diagram--current_path" d="M82.76,80.07c4.82,2.96,12.45,12.15,13.65,16.75" id="Ske2edill44" kvg:type="㇔" transform="matrix(1,0,0,1,1196,-4)" xmlns:kvg="http://kanjivg.tagaini.net"></path><circle class="stroke_order_diagram--path_start" cx="82.76" cy="80.07" r="4" transform="matrix(1,0,0,1,1196,-4)"></circle></svg>