<svg class="stroke_order_diagram--svg_container_for_51866286d5dda79658000580" style="height: 100px; width: 1500px;" viewbox="0 0 1500 100"><desc>Created with Snap</desc><defs></defs><line class="stroke_order_diagram--bounding_box" x1="1" x2="1499" y1="1" y2="1"></line><line class="stroke_order_diagram--bounding_box" x1="1" x2="1" y1="1" y2="99"></line><line class="stroke_order_diagram--bounding_box" x1="1" x2="1499" y1="99" y2="99"></line><line class="stroke_order_diagram--guide_line" x1="0" x2="1500" y1="50" y2="50"></line><line class="stroke_order_diagram--guide_line" x1="50" x2="50" y1="1" y2="99"></line><line class="stroke_order_diagram--bounding_box" x1="99" x2="99" y1="1" y2="99"></line><path class="stroke_order_diagram--current_path" d="M12.14,34.92c0.77,0.83,1.16,1.81,1.16,2.95c0.77,4.42,1.66,11.38,2.45,17.38c0.17,1.31,0.34,2.57,0.5,3.75" id="kvg:05631-s1" kvg:type="㇑" transform="matrix(1,0,0,1,-4,-4)" xmlns:kvg="http://kanjivg.tagaini.net"></path><path class="stroke_order_diagram--current_path" d="M12.14,34.92c0.77,0.83,1.16,1.81,1.16,2.95c0.77,4.42,1.66,11.38,2.45,17.38c0.17,1.31,0.34,2.57,0.5,3.75" id="Ske1yoh0eo" kvg:type="㇑" transform="matrix(1,0,0,1,-4,-4)" xmlns:kvg="http://kanjivg.tagaini.net"></path><circle class="stroke_order_diagram--path_start" cx="12.14" cy="34.92" r="4" transform="matrix(1,0,0,1,-4,-4)"></circle><line class="stroke_order_diagram--guide_line" x1="150" x2="150" y1="1" y2="99"></line><line class="stroke_order_diagram--bounding_box" x1="199" x2="199" y1="1" y2="99"></line><path class="stroke_order_diagram--existing_path" d="M12.14,34.92c0.77,0.83,1.16,1.81,1.16,2.95c0.77,4.42,1.66,11.38,2.45,17.38c0.17,1.31,0.34,2.57,0.5,3.75" id="Ske1yoh0er" kvg:type="㇑" transform="matrix(1,0,0,1,96,-4)" xmlns:kvg="http://kanjivg.tagaini.net"></path><path class="stroke_order_diagram--current_path" d="M14.06,36.33c6.32-1.39,10.59-2.19,15.57-3.08c3.19-0.57,4.6-0.05,4.07,3.36c-0.73,4.66-1.08,9.77-2.52,17.42" id="kvg:05631-s2" kvg:type="㇕b" transform="matrix(1,0,0,1,96,-4)" xmlns:kvg="http://kanjivg.tagaini.net"></path><path class="stroke_order_diagram--current_path" d="M14.06,36.33c6.32-1.39,10.59-2.19,15.57-3.08c3.19-0.57,4.6-0.05,4.07,3.36c-0.73,4.66-1.08,9.77-2.52,17.42" id="Ske1yoh0et" kvg:type="㇕b" transform="matrix(1,0,0,1,96,-4)" xmlns:kvg="http://kanjivg.tagaini.net"></path><circle class="stroke_order_diagram--path_start" cx="14.06" cy="36.33" r="4" transform="matrix(1,0,0,1,96,-4)"></circle><line class="stroke_order_diagram--guide_line" x1="250" x2="250" y1="1" y2="99"></line><line class="stroke_order_diagram--bounding_box" x1="299" x2="299" y1="1" y2="99"></line><path class="stroke_order_diagram--existing_path" d="M12.14,34.92c0.77,0.83,1.16,1.81,1.16,2.95c0.77,4.42,1.66,11.38,2.45,17.38c0.17,1.31,0.34,2.57,0.5,3.75" id="Ske1yoh0ew" kvg:type="㇑" transform="matrix(1,0,0,1,196,-4)" xmlns:kvg="http://kanjivg.tagaini.net"></path><path class="stroke_order_diagram--existing_path" d="M14.06,36.33c6.32-1.39,10.59-2.19,15.57-3.08c3.19-0.57,4.6-0.05,4.07,3.36c-0.73,4.66-1.08,9.77-2.52,17.42" id="Ske1yoh0ex" kvg:type="㇕b" transform="matrix(1,0,0,1,196,-4)" xmlns:kvg="http://kanjivg.tagaini.net"></path><path class="stroke_order_diagram--current_path" d="M16.97,56.89c4.08-0.54,8.32-1.31,13.53-1.89c0.92-0.1,1.88-0.21,2.92-0.34" id="kvg:05631-s3" kvg:type="㇐b" transform="matrix(1,0,0,1,196,-4)" xmlns:kvg="http://kanjivg.tagaini.net"></path><path class="stroke_order_diagram--current_path" d="M16.97,56.89c4.08-0.54,8.32-1.31,13.53-1.89c0.92-0.1,1.88-0.21,2.92-0.34" id="Ske1yoh0ez" kvg:type="㇐b" transform="matrix(1,0,0,1,196,-4)" xmlns:kvg="http://kanjivg.tagaini.net"></path><circle class="stroke_order_diagram--path_start" cx="16.97" cy="56.89" r="4" transform="matrix(1,0,0,1,196,-4)"></circle><line class="stroke_order_diagram--guide_line" x1="350" x2="350" y1="1" y2="99"></line><line class="stroke_order_diagram--bounding_box" x1="399" x2="399" y1="1" y2="99"></line><path class="stroke_order_diagram--existing_path" d="M12.14,34.92c0.77,0.83,1.16,1.81,1.16,2.95c0.77,4.42,1.66,11.38,2.45,17.38c0.17,1.31,0.34,2.57,0.5,3.75" id="Ske1yoh0e12" kvg:type="㇑" transform="matrix(1,0,0,1,296,-4)" xmlns:kvg="http://kanjivg.tagaini.net"></path><path class="stroke_order_diagram--existing_path" d="M14.06,36.33c6.32-1.39,10.59-2.19,15.57-3.08c3.19-0.57,4.6-0.05,4.07,3.36c-0.73,4.66-1.08,9.77-2.52,17.42" id="Ske1yoh0e13" kvg:type="㇕b" transform="matrix(1,0,0,1,296,-4)" xmlns:kvg="http://kanjivg.tagaini.net"></path><path class="stroke_order_diagram--existing_path" d="M16.97,56.89c4.08-0.54,8.32-1.31,13.53-1.89c0.92-0.1,1.88-0.21,2.92-0.34" id="Ske1yoh0e14" kvg:type="㇐b" transform="matrix(1,0,0,1,296,-4)" xmlns:kvg="http://kanjivg.tagaini.net"></path><path class="stroke_order_diagram--current_path" d="M43.1,17.43c1.43,0.76,3.59,0.85,5.1,0.71c8.41-0.75,24.18-2.27,33.68-2.91c3.29-0.22,4.28,1.27,3.8,3.81c-0.3,1.58-0.67,3.21-1.89,7.4" id="kvg:05631-s4" kvg:type="㇕c" transform="matrix(1,0,0,1,296,-4)" xmlns:kvg="http://kanjivg.tagaini.net"></path><path class="stroke_order_diagram--current_path" d="M43.1,17.43c1.43,0.76,3.59,0.85,5.1,0.71c8.41-0.75,24.18-2.27,33.68-2.91c3.29-0.22,4.28,1.27,3.8,3.81c-0.3,1.58-0.67,3.21-1.89,7.4" id="Ske1yoh0e16" kvg:type="㇕c" transform="matrix(1,0,0,1,296,-4)" xmlns:kvg="http://kanjivg.tagaini.net"></path><circle class="stroke_order_diagram--path_start" cx="43.1" cy="17.43" r="4" transform="matrix(1,0,0,1,296,-4)"></circle><line class="stroke_order_diagram--guide_line" x1="450" x2="450" y1="1" y2="99"></line><line class="stroke_order_diagram--bounding_box" x1="499" x2="499" y1="1" y2="99"></line><path class="stroke_order_diagram--existing_path" d="M12.14,34.92c0.77,0.83,1.16,1.81,1.16,2.95c0.77,4.42,1.66,11.38,2.45,17.38c0.17,1.31,0.34,2.57,0.5,3.75" id="Ske1yoh0e19" kvg:type="㇑" transform="matrix(1,0,0,1,396,-4)" xmlns:kvg="http://kanjivg.tagaini.net"></path><path class="stroke_order_diagram--existing_path" d="M14.06,36.33c6.32-1.39,10.59-2.19,15.57-3.08c3.19-0.57,4.6-0.05,4.07,3.36c-0.73,4.66-1.08,9.77-2.52,17.42" id="Ske1yoh0e1a" kvg:type="㇕b" transform="matrix(1,0,0,1,396,-4)" xmlns:kvg="http://kanjivg.tagaini.net"></path><path class="stroke_order_diagram--existing_path" d="M16.97,56.89c4.08-0.54,8.32-1.31,13.53-1.89c0.92-0.1,1.88-0.21,2.92-0.34" id="Ske1yoh0e1b" kvg:type="㇐b" transform="matrix(1,0,0,1,396,-4)" xmlns:kvg="http://kanjivg.tagaini.net"></path><path class="stroke_order_diagram--existing_path" d="M43.1,17.43c1.43,0.76,3.59,0.85,5.1,0.71c8.41-0.75,24.18-2.27,33.68-2.91c3.29-0.22,4.28,1.27,3.8,3.81c-0.3,1.58-0.67,3.21-1.89,7.4" id="Ske1yoh0e1c" kvg:type="㇕c" transform="matrix(1,0,0,1,396,-4)" xmlns:kvg="http://kanjivg.tagaini.net"></path><path class="stroke_order_diagram--current_path" d="M47.5,30.39c8-0.89,21.73-1.82,31.89-2.54c2.12-0.15,4.27-0.37,6.4-0.35" id="kvg:05631-s5" kvg:type="㇐b" transform="matrix(1,0,0,1,396,-4)" xmlns:kvg="http://kanjivg.tagaini.net"></path><path class="stroke_order_diagram--current_path" d="M47.5,30.39c8-0.89,21.73-1.82,31.89-2.54c2.12-0.15,4.27-0.37,6.4-0.35" id="Ske1yoh0e1e" kvg:type="㇐b" transform="matrix(1,0,0,1,396,-4)" xmlns:kvg="http://kanjivg.tagaini.net"></path><circle class="stroke_order_diagram--path_start" cx="47.5" cy="30.39" r="4" transform="matrix(1,0,0,1,396,-4)"></circle><line class="stroke_order_diagram--guide_line" x1="550" x2="550" y1="1" y2="99"></line><line class="stroke_order_diagram--bounding_box" x1="599" x2="599" y1="1" y2="99"></line><path class="stroke_order_diagram--existing_path" d="M12.14,34.92c0.77,0.83,1.16,1.81,1.16,2.95c0.77,4.42,1.66,11.38,2.45,17.38c0.17,1.31,0.34,2.57,0.5,3.75" id="Ske1yoh0e1h" kvg:type="㇑" transform="matrix(1,0,0,1,496,-4)" xmlns:kvg="http://kanjivg.tagaini.net"></path><path class="stroke_order_diagram--existing_path" d="M14.06,36.33c6.32-1.39,10.59-2.19,15.57-3.08c3.19-0.57,4.6-0.05,4.07,3.36c-0.73,4.66-1.08,9.77-2.52,17.42" id="Ske1yoh0e1i" kvg:type="㇕b" transform="matrix(1,0,0,1,496,-4)" xmlns:kvg="http://kanjivg.tagaini.net"></path><path class="stroke_order_diagram--existing_path" d="M16.97,56.89c4.08-0.54,8.32-1.31,13.53-1.89c0.92-0.1,1.88-0.21,2.92-0.34" id="Ske1yoh0e1j" kvg:type="㇐b" transform="matrix(1,0,0,1,496,-4)" xmlns:kvg="http://kanjivg.tagaini.net"></path><path class="stroke_order_diagram--existing_path" d="M43.1,17.43c1.43,0.76,3.59,0.85,5.1,0.71c8.41-0.75,24.18-2.27,33.68-2.91c3.29-0.22,4.28,1.27,3.8,3.81c-0.3,1.58-0.67,3.21-1.89,7.4" id="Ske1yoh0e1k" kvg:type="㇕c" transform="matrix(1,0,0,1,496,-4)" xmlns:kvg="http://kanjivg.tagaini.net"></path><path class="stroke_order_diagram--existing_path" d="M47.5,30.39c8-0.89,21.73-1.82,31.89-2.54c2.12-0.15,4.27-0.37,6.4-0.35" id="Ske1yoh0e1l" kvg:type="㇐b" transform="matrix(1,0,0,1,496,-4)" xmlns:kvg="http://kanjivg.tagaini.net"></path><path class="stroke_order_diagram--current_path" d="M45.39,18.7c0.83,0.83,1.46,2.05,1.45,3.06c-0.09,27.37-5.53,53.02-19.09,67.51" id="kvg:05631-s6" kvg:type="㇒" transform="matrix(1,0,0,1,496,-4)" xmlns:kvg="http://kanjivg.tagaini.net"></path><path class="stroke_order_diagram--current_path" d="M45.39,18.7c0.83,0.83,1.46,2.05,1.45,3.06c-0.09,27.37-5.53,53.02-19.09,67.51" id="Ske1yoh0e1n" kvg:type="㇒" transform="matrix(1,0,0,1,496,-4)" xmlns:kvg="http://kanjivg.tagaini.net"></path><circle class="stroke_order_diagram--path_start" cx="45.39" cy="18.7" r="4" transform="matrix(1,0,0,1,496,-4)"></circle><line class="stroke_order_diagram--guide_line" x1="650" x2="650" y1="1" y2="99"></line><line class="stroke_order_diagram--bounding_box" x1="699" x2="699" y1="1" y2="99"></line><path class="stroke_order_diagram--existing_path" d="M12.14,34.92c0.77,0.83,1.16,1.81,1.16,2.95c0.77,4.42,1.66,11.38,2.45,17.38c0.17,1.31,0.34,2.57,0.5,3.75" id="Ske1yoh0e1q" kvg:type="㇑" transform="matrix(1,0,0,1,596,-4)" xmlns:kvg="http://kanjivg.tagaini.net"></path><path class="stroke_order_diagram--existing_path" d="M14.06,36.33c6.32-1.39,10.59-2.19,15.57-3.08c3.19-0.57,4.6-0.05,4.07,3.36c-0.73,4.66-1.08,9.77-2.52,17.42" id="Ske1yoh0e1r" kvg:type="㇕b" transform="matrix(1,0,0,1,596,-4)" xmlns:kvg="http://kanjivg.tagaini.net"></path><path class="stroke_order_diagram--existing_path" d="M16.97,56.89c4.08-0.54,8.32-1.31,13.53-1.89c0.92-0.1,1.88-0.21,2.92-0.34" id="Ske1yoh0e1s" kvg:type="㇐b" transform="matrix(1,0,0,1,596,-4)" xmlns:kvg="http://kanjivg.tagaini.net"></path><path class="stroke_order_diagram--existing_path" d="M43.1,17.43c1.43,0.76,3.59,0.85,5.1,0.71c8.41-0.75,24.18-2.27,33.68-2.91c3.29-0.22,4.28,1.27,3.8,3.81c-0.3,1.58-0.67,3.21-1.89,7.4" id="Ske1yoh0e1t" kvg:type="㇕c" transform="matrix(1,0,0,1,596,-4)" xmlns:kvg="http://kanjivg.tagaini.net"></path><path class="stroke_order_diagram--existing_path" d="M47.5,30.39c8-0.89,21.73-1.82,31.89-2.54c2.12-0.15,4.27-0.37,6.4-0.35" id="Ske1yoh0e1u" kvg:type="㇐b" transform="matrix(1,0,0,1,596,-4)" xmlns:kvg="http://kanjivg.tagaini.net"></path><path class="stroke_order_diagram--existing_path" d="M45.39,18.7c0.83,0.83,1.46,2.05,1.45,3.06c-0.09,27.37-5.53,53.02-19.09,67.51" id="Ske1yoh0e1v" kvg:type="㇒" transform="matrix(1,0,0,1,596,-4)" xmlns:kvg="http://kanjivg.tagaini.net"></path><path class="stroke_order_diagram--current_path" d="M78.69,32.5c0,0.88-0.5,1.7-1.29,2.28c-4.67,3.41-10.33,5.5-21.63,8.34" id="kvg:05631-s7" kvg:type="㇒" transform="matrix(1,0,0,1,596,-4)" xmlns:kvg="http://kanjivg.tagaini.net"></path><path class="stroke_order_diagram--current_path" d="M78.69,32.5c0,0.88-0.5,1.7-1.29,2.28c-4.67,3.41-10.33,5.5-21.63,8.34" id="Ske1yoh0e1x" kvg:type="㇒" transform="matrix(1,0,0,1,596,-4)" xmlns:kvg="http://kanjivg.tagaini.net"></path><circle class="stroke_order_diagram--path_start" cx="78.69" cy="32.5" r="4" transform="matrix(1,0,0,1,596,-4)"></circle><line class="stroke_order_diagram--guide_line" x1="750" x2="750" y1="1" y2="99"></line><line class="stroke_order_diagram--bounding_box" x1="799" x2="799" y1="1" y2="99"></line><path class="stroke_order_diagram--existing_path" d="M12.14,34.92c0.77,0.83,1.16,1.81,1.16,2.95c0.77,4.42,1.66,11.38,2.45,17.38c0.17,1.31,0.34,2.57,0.5,3.75" id="Ske1yoh0e20" kvg:type="㇑" transform="matrix(1,0,0,1,696,-4)" xmlns:kvg="http://kanjivg.tagaini.net"></path><path class="stroke_order_diagram--existing_path" d="M14.06,36.33c6.32-1.39,10.59-2.19,15.57-3.08c3.19-0.57,4.6-0.05,4.07,3.36c-0.73,4.66-1.08,9.77-2.52,17.42" id="Ske1yoh0e21" kvg:type="㇕b" transform="matrix(1,0,0,1,696,-4)" xmlns:kvg="http://kanjivg.tagaini.net"></path><path class="stroke_order_diagram--existing_path" d="M16.97,56.89c4.08-0.54,8.32-1.31,13.53-1.89c0.92-0.1,1.88-0.21,2.92-0.34" id="Ske1yoh0e22" kvg:type="㇐b" transform="matrix(1,0,0,1,696,-4)" xmlns:kvg="http://kanjivg.tagaini.net"></path><path class="stroke_order_diagram--existing_path" d="M43.1,17.43c1.43,0.76,3.59,0.85,5.1,0.71c8.41-0.75,24.18-2.27,33.68-2.91c3.29-0.22,4.28,1.27,3.8,3.81c-0.3,1.58-0.67,3.21-1.89,7.4" id="Ske1yoh0e23" kvg:type="㇕c" transform="matrix(1,0,0,1,696,-4)" xmlns:kvg="http://kanjivg.tagaini.net"></path><path class="stroke_order_diagram--existing_path" d="M47.5,30.39c8-0.89,21.73-1.82,31.89-2.54c2.12-0.15,4.27-0.37,6.4-0.35" id="Ske1yoh0e24" kvg:type="㇐b" transform="matrix(1,0,0,1,696,-4)" xmlns:kvg="http://kanjivg.tagaini.net"></path><path class="stroke_order_diagram--existing_path" d="M45.39,18.7c0.83,0.83,1.46,2.05,1.45,3.06c-0.09,27.37-5.53,53.02-19.09,67.51" id="Ske1yoh0e25" kvg:type="㇒" transform="matrix(1,0,0,1,696,-4)" xmlns:kvg="http://kanjivg.tagaini.net"></path><path class="stroke_order_diagram--existing_path" d="M78.69,32.5c0,0.88-0.5,1.7-1.29,2.28c-4.67,3.41-10.33,5.5-21.63,8.34" id="Ske1yoh0e26" kvg:type="㇒" transform="matrix(1,0,0,1,696,-4)" xmlns:kvg="http://kanjivg.tagaini.net"></path><path class="stroke_order_diagram--current_path" d="M52.16,47.86c0.62,0.62,0.84,1.39,1.1,2.36c0.72,2.68,0.9,3.66,1.62,7.77c0.19,1.1,0.4,1.58,0.62,2.96" id="kvg:05631-s8" kvg:type="㇑" transform="matrix(1,0,0,1,696,-4)" xmlns:kvg="http://kanjivg.tagaini.net"></path><path class="stroke_order_diagram--current_path" d="M52.16,47.86c0.62,0.62,0.84,1.39,1.1,2.36c0.72,2.68,0.9,3.66,1.62,7.77c0.19,1.1,0.4,1.58,0.62,2.96" id="Ske1yoh0e28" kvg:type="㇑" transform="matrix(1,0,0,1,696,-4)" xmlns:kvg="http://kanjivg.tagaini.net"></path><circle class="stroke_order_diagram--path_start" cx="52.16" cy="47.86" r="4" transform="matrix(1,0,0,1,696,-4)"></circle><line class="stroke_order_diagram--guide_line" x1="850" x2="850" y1="1" y2="99"></line><line class="stroke_order_diagram--bounding_box" x1="899" x2="899" y1="1" y2="99"></line><path class="stroke_order_diagram--existing_path" d="M12.14,34.92c0.77,0.83,1.16,1.81,1.16,2.95c0.77,4.42,1.66,11.38,2.45,17.38c0.17,1.31,0.34,2.57,0.5,3.75" id="Ske1yoh0e2b" kvg:type="㇑" transform="matrix(1,0,0,1,796,-4)" xmlns:kvg="http://kanjivg.tagaini.net"></path><path class="stroke_order_diagram--existing_path" d="M14.06,36.33c6.32-1.39,10.59-2.19,15.57-3.08c3.19-0.57,4.6-0.05,4.07,3.36c-0.73,4.66-1.08,9.77-2.52,17.42" id="Ske1yoh0e2c" kvg:type="㇕b" transform="matrix(1,0,0,1,796,-4)" xmlns:kvg="http://kanjivg.tagaini.net"></path><path class="stroke_order_diagram--existing_path" d="M16.97,56.89c4.08-0.54,8.32-1.31,13.53-1.89c0.92-0.1,1.88-0.21,2.92-0.34" id="Ske1yoh0e2d" kvg:type="㇐b" transform="matrix(1,0,0,1,796,-4)" xmlns:kvg="http://kanjivg.tagaini.net"></path><path class="stroke_order_diagram--existing_path" d="M43.1,17.43c1.43,0.76,3.59,0.85,5.1,0.71c8.41-0.75,24.18-2.27,33.68-2.91c3.29-0.22,4.28,1.27,3.8,3.81c-0.3,1.58-0.67,3.21-1.89,7.4" id="Ske1yoh0e2e" kvg:type="㇕c" transform="matrix(1,0,0,1,796,-4)" xmlns:kvg="http://kanjivg.tagaini.net"></path><path class="stroke_order_diagram--existing_path" d="M47.5,30.39c8-0.89,21.73-1.82,31.89-2.54c2.12-0.15,4.27-0.37,6.4-0.35" id="Ske1yoh0e2f" kvg:type="㇐b" transform="matrix(1,0,0,1,796,-4)" xmlns:kvg="http://kanjivg.tagaini.net"></path><path class="stroke_order_diagram--existing_path" d="M45.39,18.7c0.83,0.83,1.46,2.05,1.45,3.06c-0.09,27.37-5.53,53.02-19.09,67.51" id="Ske1yoh0e2g" kvg:type="㇒" transform="matrix(1,0,0,1,796,-4)" xmlns:kvg="http://kanjivg.tagaini.net"></path><path class="stroke_order_diagram--existing_path" d="M78.69,32.5c0,0.88-0.5,1.7-1.29,2.28c-4.67,3.41-10.33,5.5-21.63,8.34" id="Ske1yoh0e2h" kvg:type="㇒" transform="matrix(1,0,0,1,796,-4)" xmlns:kvg="http://kanjivg.tagaini.net"></path><path class="stroke_order_diagram--existing_path" d="M52.16,47.86c0.62,0.62,0.84,1.39,1.1,2.36c0.72,2.68,0.9,3.66,1.62,7.77c0.19,1.1,0.4,1.58,0.62,2.96" id="Ske1yoh0e2i" kvg:type="㇑" transform="matrix(1,0,0,1,796,-4)" xmlns:kvg="http://kanjivg.tagaini.net"></path><path class="stroke_order_diagram--current_path" d="M54.41,49.08c11.84-1.58,24.02-3.57,30.06-3.83c2.36-0.1,3.47,0.82,3.15,2.7c-0.66,3.89-1.13,5.55-1.87,7.68" id="kvg:05631-s9" kvg:type="㇕b" transform="matrix(1,0,0,1,796,-4)" xmlns:kvg="http://kanjivg.tagaini.net"></path><path class="stroke_order_diagram--current_path" d="M54.41,49.08c11.84-1.58,24.02-3.57,30.06-3.83c2.36-0.1,3.47,0.82,3.15,2.7c-0.66,3.89-1.13,5.55-1.87,7.68" id="Ske1yoh0e2k" kvg:type="㇕b" transform="matrix(1,0,0,1,796,-4)" xmlns:kvg="http://kanjivg.tagaini.net"></path><circle class="stroke_order_diagram--path_start" cx="54.41" cy="49.08" r="4" transform="matrix(1,0,0,1,796,-4)"></circle><line class="stroke_order_diagram--guide_line" x1="950" x2="950" y1="1" y2="99"></line><line class="stroke_order_diagram--bounding_box" x1="999" x2="999" y1="1" y2="99"></line><path class="stroke_order_diagram--existing_path" d="M12.14,34.92c0.77,0.83,1.16,1.81,1.16,2.95c0.77,4.42,1.66,11.38,2.45,17.38c0.17,1.31,0.34,2.57,0.5,3.75" id="Ske1yoh0e2n" kvg:type="㇑" transform="matrix(1,0,0,1,896,-4)" xmlns:kvg="http://kanjivg.tagaini.net"></path><path class="stroke_order_diagram--existing_path" d="M14.06,36.33c6.32-1.39,10.59-2.19,15.57-3.08c3.19-0.57,4.6-0.05,4.07,3.36c-0.73,4.66-1.08,9.77-2.52,17.42" id="Ske1yoh0e2o" kvg:type="㇕b" transform="matrix(1,0,0,1,896,-4)" xmlns:kvg="http://kanjivg.tagaini.net"></path><path class="stroke_order_diagram--existing_path" d="M16.97,56.89c4.08-0.54,8.32-1.31,13.53-1.89c0.92-0.1,1.88-0.21,2.92-0.34" id="Ske1yoh0e2p" kvg:type="㇐b" transform="matrix(1,0,0,1,896,-4)" xmlns:kvg="http://kanjivg.tagaini.net"></path><path class="stroke_order_diagram--existing_path" d="M43.1,17.43c1.43,0.76,3.59,0.85,5.1,0.71c8.41-0.75,24.18-2.27,33.68-2.91c3.29-0.22,4.28,1.27,3.8,3.81c-0.3,1.58-0.67,3.21-1.89,7.4" id="Ske1yoh0e2q" kvg:type="㇕c" transform="matrix(1,0,0,1,896,-4)" xmlns:kvg="http://kanjivg.tagaini.net"></path><path class="stroke_order_diagram--existing_path" d="M47.5,30.39c8-0.89,21.73-1.82,31.89-2.54c2.12-0.15,4.27-0.37,6.4-0.35" id="Ske1yoh0e2r" kvg:type="㇐b" transform="matrix(1,0,0,1,896,-4)" xmlns:kvg="http://kanjivg.tagaini.net"></path><path class="stroke_order_diagram--existing_path" d="M45.39,18.7c0.83,0.83,1.46,2.05,1.45,3.06c-0.09,27.37-5.53,53.02-19.09,67.51" id="Ske1yoh0e2s" kvg:type="㇒" transform="matrix(1,0,0,1,896,-4)" xmlns:kvg="http://kanjivg.tagaini.net"></path><path class="stroke_order_diagram--existing_path" d="M78.69,32.5c0,0.88-0.5,1.7-1.29,2.28c-4.67,3.41-10.33,5.5-21.63,8.34" id="Ske1yoh0e2t" kvg:type="㇒" transform="matrix(1,0,0,1,896,-4)" xmlns:kvg="http://kanjivg.tagaini.net"></path><path class="stroke_order_diagram--existing_path" d="M52.16,47.86c0.62,0.62,0.84,1.39,1.1,2.36c0.72,2.68,0.9,3.66,1.62,7.77c0.19,1.1,0.4,1.58,0.62,2.96" id="Ske1yoh0e2u" kvg:type="㇑" transform="matrix(1,0,0,1,896,-4)" xmlns:kvg="http://kanjivg.tagaini.net"></path><path class="stroke_order_diagram--existing_path" d="M54.41,49.08c11.84-1.58,24.02-3.57,30.06-3.83c2.36-0.1,3.47,0.82,3.15,2.7c-0.66,3.89-1.13,5.55-1.87,7.68" id="Ske1yoh0e2v" kvg:type="㇕b" transform="matrix(1,0,0,1,896,-4)" xmlns:kvg="http://kanjivg.tagaini.net"></path><path class="stroke_order_diagram--current_path" d="M56.56,59.09c5.79-0.52,17.41-1.56,26.65-2.2c1.47-0.1,2.88-0.19,4.17-0.27" id="kvg:05631-s10" kvg:type="㇐b" transform="matrix(1,0,0,1,896,-4)" xmlns:kvg="http://kanjivg.tagaini.net"></path><path class="stroke_order_diagram--current_path" d="M56.56,59.09c5.79-0.52,17.41-1.56,26.65-2.2c1.47-0.1,2.88-0.19,4.17-0.27" id="Ske1yoh0e2x" kvg:type="㇐b" transform="matrix(1,0,0,1,896,-4)" xmlns:kvg="http://kanjivg.tagaini.net"></path><circle class="stroke_order_diagram--path_start" cx="56.56" cy="59.09" r="4" transform="matrix(1,0,0,1,896,-4)"></circle><line class="stroke_order_diagram--guide_line" x1="1050" x2="1050" y1="1" y2="99"></line><line class="stroke_order_diagram--bounding_box" x1="1099" x2="1099" y1="1" y2="99"></line><path class="stroke_order_diagram--existing_path" d="M12.14,34.92c0.77,0.83,1.16,1.81,1.16,2.95c0.77,4.42,1.66,11.38,2.45,17.38c0.17,1.31,0.34,2.57,0.5,3.75" id="Ske1yoh0e30" kvg:type="㇑" transform="matrix(1,0,0,1,996,-4)" xmlns:kvg="http://kanjivg.tagaini.net"></path><path class="stroke_order_diagram--existing_path" d="M14.06,36.33c6.32-1.39,10.59-2.19,15.57-3.08c3.19-0.57,4.6-0.05,4.07,3.36c-0.73,4.66-1.08,9.77-2.52,17.42" id="Ske1yoh0e31" kvg:type="㇕b" transform="matrix(1,0,0,1,996,-4)" xmlns:kvg="http://kanjivg.tagaini.net"></path><path class="stroke_order_diagram--existing_path" d="M16.97,56.89c4.08-0.54,8.32-1.31,13.53-1.89c0.92-0.1,1.88-0.21,2.92-0.34" id="Ske1yoh0e32" kvg:type="㇐b" transform="matrix(1,0,0,1,996,-4)" xmlns:kvg="http://kanjivg.tagaini.net"></path><path class="stroke_order_diagram--existing_path" d="M43.1,17.43c1.43,0.76,3.59,0.85,5.1,0.71c8.41-0.75,24.18-2.27,33.68-2.91c3.29-0.22,4.28,1.27,3.8,3.81c-0.3,1.58-0.67,3.21-1.89,7.4" id="Ske1yoh0e33" kvg:type="㇕c" transform="matrix(1,0,0,1,996,-4)" xmlns:kvg="http://kanjivg.tagaini.net"></path><path class="stroke_order_diagram--existing_path" d="M47.5,30.39c8-0.89,21.73-1.82,31.89-2.54c2.12-0.15,4.27-0.37,6.4-0.35" id="Ske1yoh0e34" kvg:type="㇐b" transform="matrix(1,0,0,1,996,-4)" xmlns:kvg="http://kanjivg.tagaini.net"></path><path class="stroke_order_diagram--existing_path" d="M45.39,18.7c0.83,0.83,1.46,2.05,1.45,3.06c-0.09,27.37-5.53,53.02-19.09,67.51" id="Ske1yoh0e35" kvg:type="㇒" transform="matrix(1,0,0,1,996,-4)" xmlns:kvg="http://kanjivg.tagaini.net"></path><path class="stroke_order_diagram--existing_path" d="M78.69,32.5c0,0.88-0.5,1.7-1.29,2.28c-4.67,3.41-10.33,5.5-21.63,8.34" id="Ske1yoh0e36" kvg:type="㇒" transform="matrix(1,0,0,1,996,-4)" xmlns:kvg="http://kanjivg.tagaini.net"></path><path class="stroke_order_diagram--existing_path" d="M52.16,47.86c0.62,0.62,0.84,1.39,1.1,2.36c0.72,2.68,0.9,3.66,1.62,7.77c0.19,1.1,0.4,1.58,0.62,2.96" id="Ske1yoh0e37" kvg:type="㇑" transform="matrix(1,0,0,1,996,-4)" xmlns:kvg="http://kanjivg.tagaini.net"></path><path class="stroke_order_diagram--existing_path" d="M54.41,49.08c11.84-1.58,24.02-3.57,30.06-3.83c2.36-0.1,3.47,0.82,3.15,2.7c-0.66,3.89-1.13,5.55-1.87,7.68" id="Ske1yoh0e38" kvg:type="㇕b" transform="matrix(1,0,0,1,996,-4)" xmlns:kvg="http://kanjivg.tagaini.net"></path><path class="stroke_order_diagram--existing_path" d="M56.56,59.09c5.79-0.52,17.41-1.56,26.65-2.2c1.47-0.1,2.88-0.19,4.17-0.27" id="Ske1yoh0e39" kvg:type="㇐b" transform="matrix(1,0,0,1,996,-4)" xmlns:kvg="http://kanjivg.tagaini.net"></path><path class="stroke_order_diagram--current_path" d="M48.24,68.39c0.81,0.81,1.1,1.96,1.16,2.82c0.24,3.51,0.38,12.99,0.44,19.04c0.03,2.76,0.04,4.81,0.04,5.25" id="kvg:05631-s11" kvg:type="㇑" transform="matrix(1,0,0,1,996,-4)" xmlns:kvg="http://kanjivg.tagaini.net"></path><path class="stroke_order_diagram--current_path" d="M48.24,68.39c0.81,0.81,1.1,1.96,1.16,2.82c0.24,3.51,0.38,12.99,0.44,19.04c0.03,2.76,0.04,4.81,0.04,5.25" id="Ske1yoh0e3b" kvg:type="㇑" transform="matrix(1,0,0,1,996,-4)" xmlns:kvg="http://kanjivg.tagaini.net"></path><circle class="stroke_order_diagram--path_start" cx="48.24" cy="68.39" r="4" transform="matrix(1,0,0,1,996,-4)"></circle><line class="stroke_order_diagram--guide_line" x1="1150" x2="1150" y1="1" y2="99"></line><line class="stroke_order_diagram--bounding_box" x1="1199" x2="1199" y1="1" y2="99"></line><path class="stroke_order_diagram--existing_path" d="M12.14,34.92c0.77,0.83,1.16,1.81,1.16,2.95c0.77,4.42,1.66,11.38,2.45,17.38c0.17,1.31,0.34,2.57,0.5,3.75" id="Ske1yoh0e3e" kvg:type="㇑" transform="matrix(1,0,0,1,1096,-4)" xmlns:kvg="http://kanjivg.tagaini.net"></path><path class="stroke_order_diagram--existing_path" d="M14.06,36.33c6.32-1.39,10.59-2.19,15.57-3.08c3.19-0.57,4.6-0.05,4.07,3.36c-0.73,4.66-1.08,9.77-2.52,17.42" id="Ske1yoh0e3f" kvg:type="㇕b" transform="matrix(1,0,0,1,1096,-4)" xmlns:kvg="http://kanjivg.tagaini.net"></path><path class="stroke_order_diagram--existing_path" d="M16.97,56.89c4.08-0.54,8.32-1.31,13.53-1.89c0.92-0.1,1.88-0.21,2.92-0.34" id="Ske1yoh0e3g" kvg:type="㇐b" transform="matrix(1,0,0,1,1096,-4)" xmlns:kvg="http://kanjivg.tagaini.net"></path><path class="stroke_order_diagram--existing_path" d="M43.1,17.43c1.43,0.76,3.59,0.85,5.1,0.71c8.41-0.75,24.18-2.27,33.68-2.91c3.29-0.22,4.28,1.27,3.8,3.81c-0.3,1.58-0.67,3.21-1.89,7.4" id="Ske1yoh0e3h" kvg:type="㇕c" transform="matrix(1,0,0,1,1096,-4)" xmlns:kvg="http://kanjivg.tagaini.net"></path><path class="stroke_order_diagram--existing_path" d="M47.5,30.39c8-0.89,21.73-1.82,31.89-2.54c2.12-0.15,4.27-0.37,6.4-0.35" id="Ske1yoh0e3i" kvg:type="㇐b" transform="matrix(1,0,0,1,1096,-4)" xmlns:kvg="http://kanjivg.tagaini.net"></path><path class="stroke_order_diagram--existing_path" d="M45.39,18.7c0.83,0.83,1.46,2.05,1.45,3.06c-0.09,27.37-5.53,53.02-19.09,67.51" id="Ske1yoh0e3j" kvg:type="㇒" transform="matrix(1,0,0,1,1096,-4)" xmlns:kvg="http://kanjivg.tagaini.net"></path><path class="stroke_order_diagram--existing_path" d="M78.69,32.5c0,0.88-0.5,1.7-1.29,2.28c-4.67,3.41-10.33,5.5-21.63,8.34" id="Ske1yoh0e3k" kvg:type="㇒" transform="matrix(1,0,0,1,1096,-4)" xmlns:kvg="http://kanjivg.tagaini.net"></path><path class="stroke_order_diagram--existing_path" d="M52.16,47.86c0.62,0.62,0.84,1.39,1.1,2.36c0.72,2.68,0.9,3.66,1.62,7.77c0.19,1.1,0.4,1.58,0.62,2.96" id="Ske1yoh0e3l" kvg:type="㇑" transform="matrix(1,0,0,1,1096,-4)" xmlns:kvg="http://kanjivg.tagaini.net"></path><path class="stroke_order_diagram--existing_path" d="M54.41,49.08c11.84-1.58,24.02-3.57,30.06-3.83c2.36-0.1,3.47,0.82,3.15,2.7c-0.66,3.89-1.13,5.55-1.87,7.68" id="Ske1yoh0e3m" kvg:type="㇕b" transform="matrix(1,0,0,1,1096,-4)" xmlns:kvg="http://kanjivg.tagaini.net"></path><path class="stroke_order_diagram--existing_path" d="M56.56,59.09c5.79-0.52,17.41-1.56,26.65-2.2c1.47-0.1,2.88-0.19,4.17-0.27" id="Ske1yoh0e3n" kvg:type="㇐b" transform="matrix(1,0,0,1,1096,-4)" xmlns:kvg="http://kanjivg.tagaini.net"></path><path class="stroke_order_diagram--existing_path" d="M48.24,68.39c0.81,0.81,1.1,1.96,1.16,2.82c0.24,3.51,0.38,12.99,0.44,19.04c0.03,2.76,0.04,4.81,0.04,5.25" id="Ske1yoh0e3o" kvg:type="㇑" transform="matrix(1,0,0,1,1096,-4)" xmlns:kvg="http://kanjivg.tagaini.net"></path><path class="stroke_order_diagram--current_path" d="M49.97,69.63c7.28-0.83,30.19-2.84,39.04-3.79c4.47-0.47,6.13-0.07,5.75,4.78c-0.62,8.13-1.09,13.54-3.13,19.82C89.5,97,86.5,92.5,85.38,90.83" id="kvg:05631-s12" kvg:type="㇆a" transform="matrix(1,0,0,1,1096,-4)" xmlns:kvg="http://kanjivg.tagaini.net"></path><path class="stroke_order_diagram--current_path" d="M49.97,69.63c7.28-0.83,30.19-2.84,39.04-3.79c4.47-0.47,6.13-0.07,5.75,4.78c-0.62,8.13-1.09,13.54-3.13,19.82C89.5,97,86.5,92.5,85.38,90.83" id="Ske1yoh0e3q" kvg:type="㇆a" transform="matrix(1,0,0,1,1096,-4)" xmlns:kvg="http://kanjivg.tagaini.net"></path><circle class="stroke_order_diagram--path_start" cx="49.97" cy="69.63" r="4" transform="matrix(1,0,0,1,1096,-4)"></circle><line class="stroke_order_diagram--guide_line" x1="1250" x2="1250" y1="1" y2="99"></line><line class="stroke_order_diagram--bounding_box" x1="1299" x2="1299" y1="1" y2="99"></line><path class="stroke_order_diagram--existing_path" d="M12.14,34.92c0.77,0.83,1.16,1.81,1.16,2.95c0.77,4.42,1.66,11.38,2.45,17.38c0.17,1.31,0.34,2.57,0.5,3.75" id="Ske1yoh0e3t" kvg:type="㇑" transform="matrix(1,0,0,1,1196,-4)" xmlns:kvg="http://kanjivg.tagaini.net"></path><path class="stroke_order_diagram--existing_path" d="M14.06,36.33c6.32-1.39,10.59-2.19,15.57-3.08c3.19-0.57,4.6-0.05,4.07,3.36c-0.73,4.66-1.08,9.77-2.52,17.42" id="Ske1yoh0e3u" kvg:type="㇕b" transform="matrix(1,0,0,1,1196,-4)" xmlns:kvg="http://kanjivg.tagaini.net"></path><path class="stroke_order_diagram--existing_path" d="M16.97,56.89c4.08-0.54,8.32-1.31,13.53-1.89c0.92-0.1,1.88-0.21,2.92-0.34" id="Ske1yoh0e3v" kvg:type="㇐b" transform="matrix(1,0,0,1,1196,-4)" xmlns:kvg="http://kanjivg.tagaini.net"></path><path class="stroke_order_diagram--existing_path" d="M43.1,17.43c1.43,0.76,3.59,0.85,5.1,0.71c8.41-0.75,24.18-2.27,33.68-2.91c3.29-0.22,4.28,1.27,3.8,3.81c-0.3,1.58-0.67,3.21-1.89,7.4" id="Ske1yoh0e3w" kvg:type="㇕c" transform="matrix(1,0,0,1,1196,-4)" xmlns:kvg="http://kanjivg.tagaini.net"></path><path class="stroke_order_diagram--existing_path" d="M47.5,30.39c8-0.89,21.73-1.82,31.89-2.54c2.12-0.15,4.27-0.37,6.4-0.35" id="Ske1yoh0e3x" kvg:type="㇐b" transform="matrix(1,0,0,1,1196,-4)" xmlns:kvg="http://kanjivg.tagaini.net"></path><path class="stroke_order_diagram--existing_path" d="M45.39,18.7c0.83,0.83,1.46,2.05,1.45,3.06c-0.09,27.37-5.53,53.02-19.09,67.51" id="Ske1yoh0e3y" kvg:type="㇒" transform="matrix(1,0,0,1,1196,-4)" xmlns:kvg="http://kanjivg.tagaini.net"></path><path class="stroke_order_diagram--existing_path" d="M78.69,32.5c0,0.88-0.5,1.7-1.29,2.28c-4.67,3.41-10.33,5.5-21.63,8.34" id="Ske1yoh0e3z" kvg:type="㇒" transform="matrix(1,0,0,1,1196,-4)" xmlns:kvg="http://kanjivg.tagaini.net"></path><path class="stroke_order_diagram--existing_path" d="M52.16,47.86c0.62,0.62,0.84,1.39,1.1,2.36c0.72,2.68,0.9,3.66,1.62,7.77c0.19,1.1,0.4,1.58,0.62,2.96" id="Ske1yoh0e40" kvg:type="㇑" transform="matrix(1,0,0,1,1196,-4)" xmlns:kvg="http://kanjivg.tagaini.net"></path><path class="stroke_order_diagram--existing_path" d="M54.41,49.08c11.84-1.58,24.02-3.57,30.06-3.83c2.36-0.1,3.47,0.82,3.15,2.7c-0.66,3.89-1.13,5.55-1.87,7.68" id="Ske1yoh0e41" kvg:type="㇕b" transform="matrix(1,0,0,1,1196,-4)" xmlns:kvg="http://kanjivg.tagaini.net"></path><path class="stroke_order_diagram--existing_path" d="M56.56,59.09c5.79-0.52,17.41-1.56,26.65-2.2c1.47-0.1,2.88-0.19,4.17-0.27" id="Ske1yoh0e42" kvg:type="㇐b" transform="matrix(1,0,0,1,1196,-4)" xmlns:kvg="http://kanjivg.tagaini.net"></path><path class="stroke_order_diagram--existing_path" d="M48.24,68.39c0.81,0.81,1.1,1.96,1.16,2.82c0.24,3.51,0.38,12.99,0.44,19.04c0.03,2.76,0.04,4.81,0.04,5.25" id="Ske1yoh0e43" kvg:type="㇑" transform="matrix(1,0,0,1,1196,-4)" xmlns:kvg="http://kanjivg.tagaini.net"></path><path class="stroke_order_diagram--existing_path" d="M49.97,69.63c7.28-0.83,30.19-2.84,39.04-3.79c4.47-0.47,6.13-0.07,5.75,4.78c-0.62,8.13-1.09,13.54-3.13,19.82C89.5,97,86.5,92.5,85.38,90.83" id="Ske1yoh0e44" kvg:type="㇆a" transform="matrix(1,0,0,1,1196,-4)" xmlns:kvg="http://kanjivg.tagaini.net"></path><path class="stroke_order_diagram--current_path" d="M68.52,41.48c0.88,0.88,1.21,2.15,1.21,3.62c0,4.04-0.04,29.77-0.04,34.18" id="kvg:05631-s13" kvg:type="㇑a" transform="matrix(1,0,0,1,1196,-4)" xmlns:kvg="http://kanjivg.tagaini.net"></path><path class="stroke_order_diagram--current_path" d="M68.52,41.48c0.88,0.88,1.21,2.15,1.21,3.62c0,4.04-0.04,29.77-0.04,34.18" id="Ske1yoh0e46" kvg:type="㇑a" transform="matrix(1,0,0,1,1196,-4)" xmlns:kvg="http://kanjivg.tagaini.net"></path><circle class="stroke_order_diagram--path_start" cx="68.52" cy="41.48" r="4" transform="matrix(1,0,0,1,1196,-4)"></circle><line class="stroke_order_diagram--guide_line" x1="1350" x2="1350" y1="1" y2="99"></line><line class="stroke_order_diagram--bounding_box" x1="1399" x2="1399" y1="1" y2="99"></line><path class="stroke_order_diagram--existing_path" d="M12.14,34.92c0.77,0.83,1.16,1.81,1.16,2.95c0.77,4.42,1.66,11.38,2.45,17.38c0.17,1.31,0.34,2.57,0.5,3.75" id="Ske1yoh0e49" kvg:type="㇑" transform="matrix(1,0,0,1,1296,-4)" xmlns:kvg="http://kanjivg.tagaini.net"></path><path class="stroke_order_diagram--existing_path" d="M14.06,36.33c6.32-1.39,10.59-2.19,15.57-3.08c3.19-0.57,4.6-0.05,4.07,3.36c-0.73,4.66-1.08,9.77-2.52,17.42" id="Ske1yoh0e4a" kvg:type="㇕b" transform="matrix(1,0,0,1,1296,-4)" xmlns:kvg="http://kanjivg.tagaini.net"></path><path class="stroke_order_diagram--existing_path" d="M16.97,56.89c4.08-0.54,8.32-1.31,13.53-1.89c0.92-0.1,1.88-0.21,2.92-0.34" id="Ske1yoh0e4b" kvg:type="㇐b" transform="matrix(1,0,0,1,1296,-4)" xmlns:kvg="http://kanjivg.tagaini.net"></path><path class="stroke_order_diagram--existing_path" d="M43.1,17.43c1.43,0.76,3.59,0.85,5.1,0.71c8.41-0.75,24.18-2.27,33.68-2.91c3.29-0.22,4.28,1.27,3.8,3.81c-0.3,1.58-0.67,3.21-1.89,7.4" id="Ske1yoh0e4c" kvg:type="㇕c" transform="matrix(1,0,0,1,1296,-4)" xmlns:kvg="http://kanjivg.tagaini.net"></path><path class="stroke_order_diagram--existing_path" d="M47.5,30.39c8-0.89,21.73-1.82,31.89-2.54c2.12-0.15,4.27-0.37,6.4-0.35" id="Ske1yoh0e4d" kvg:type="㇐b" transform="matrix(1,0,0,1,1296,-4)" xmlns:kvg="http://kanjivg.tagaini.net"></path><path class="stroke_order_diagram--existing_path" d="M45.39,18.7c0.83,0.83,1.46,2.05,1.45,3.06c-0.09,27.37-5.53,53.02-19.09,67.51" id="Ske1yoh0e4e" kvg:type="㇒" transform="matrix(1,0,0,1,1296,-4)" xmlns:kvg="http://kanjivg.tagaini.net"></path><path class="stroke_order_diagram--existing_path" d="M78.69,32.5c0,0.88-0.5,1.7-1.29,2.28c-4.67,3.41-10.33,5.5-21.63,8.34" id="Ske1yoh0e4f" kvg:type="㇒" transform="matrix(1,0,0,1,1296,-4)" xmlns:kvg="http://kanjivg.tagaini.net"></path><path class="stroke_order_diagram--existing_path" d="M52.16,47.86c0.62,0.62,0.84,1.39,1.1,2.36c0.72,2.68,0.9,3.66,1.62,7.77c0.19,1.1,0.4,1.58,0.62,2.96" id="Ske1yoh0e4g" kvg:type="㇑" transform="matrix(1,0,0,1,1296,-4)" xmlns:kvg="http://kanjivg.tagaini.net"></path><path class="stroke_order_diagram--existing_path" d="M54.41,49.08c11.84-1.58,24.02-3.57,30.06-3.83c2.36-0.1,3.47,0.82,3.15,2.7c-0.66,3.89-1.13,5.55-1.87,7.68" id="Ske1yoh0e4h" kvg:type="㇕b" transform="matrix(1,0,0,1,1296,-4)" xmlns:kvg="http://kanjivg.tagaini.net"></path><path class="stroke_order_diagram--existing_path" d="M56.56,59.09c5.79-0.52,17.41-1.56,26.65-2.2c1.47-0.1,2.88-0.19,4.17-0.27" id="Ske1yoh0e4i" kvg:type="㇐b" transform="matrix(1,0,0,1,1296,-4)" xmlns:kvg="http://kanjivg.tagaini.net"></path><path class="stroke_order_diagram--existing_path" d="M48.24,68.39c0.81,0.81,1.1,1.96,1.16,2.82c0.24,3.51,0.38,12.99,0.44,19.04c0.03,2.76,0.04,4.81,0.04,5.25" id="Ske1yoh0e4j" kvg:type="㇑" transform="matrix(1,0,0,1,1296,-4)" xmlns:kvg="http://kanjivg.tagaini.net"></path><path class="stroke_order_diagram--existing_path" d="M49.97,69.63c7.28-0.83,30.19-2.84,39.04-3.79c4.47-0.47,6.13-0.07,5.75,4.78c-0.62,8.13-1.09,13.54-3.13,19.82C89.5,97,86.5,92.5,85.38,90.83" id="Ske1yoh0e4k" kvg:type="㇆a" transform="matrix(1,0,0,1,1296,-4)" xmlns:kvg="http://kanjivg.tagaini.net"></path><path class="stroke_order_diagram--existing_path" d="M68.52,41.48c0.88,0.88,1.21,2.15,1.21,3.62c0,4.04-0.04,29.77-0.04,34.18" id="Ske1yoh0e4l" kvg:type="㇑a" transform="matrix(1,0,0,1,1296,-4)" xmlns:kvg="http://kanjivg.tagaini.net"></path><path class="stroke_order_diagram--current_path" d="M58.38,81.34c0.62,1.03,1.5,1.28,2.96,0.95c4.85-1.11,17.9-4.35,19.36-4.78" id="kvg:05631-s14" kvg:type="㇀" transform="matrix(1,0,0,1,1296,-4)" xmlns:kvg="http://kanjivg.tagaini.net"></path><path class="stroke_order_diagram--current_path" d="M58.38,81.34c0.62,1.03,1.5,1.28,2.96,0.95c4.85-1.11,17.9-4.35,19.36-4.78" id="Ske1yoh0e4n" kvg:type="㇀" transform="matrix(1,0,0,1,1296,-4)" xmlns:kvg="http://kanjivg.tagaini.net"></path><circle class="stroke_order_diagram--path_start" cx="58.38" cy="81.34" r="4" transform="matrix(1,0,0,1,1296,-4)"></circle><line class="stroke_order_diagram--guide_line" x1="1450" x2="1450" y1="1" y2="99"></line><line class="stroke_order_diagram--bounding_box" x1="1499" x2="1499" y1="1" y2="99"></line><path class="stroke_order_diagram--existing_path" d="M12.14,34.92c0.77,0.83,1.16,1.81,1.16,2.95c0.77,4.42,1.66,11.38,2.45,17.38c0.17,1.31,0.34,2.57,0.5,3.75" id="Ske1yoh0e4q" kvg:type="㇑" transform="matrix(1,0,0,1,1396,-4)" xmlns:kvg="http://kanjivg.tagaini.net"></path><path class="stroke_order_diagram--existing_path" d="M14.06,36.33c6.32-1.39,10.59-2.19,15.57-3.08c3.19-0.57,4.6-0.05,4.07,3.36c-0.73,4.66-1.08,9.77-2.52,17.42" id="Ske1yoh0e4r" kvg:type="㇕b" transform="matrix(1,0,0,1,1396,-4)" xmlns:kvg="http://kanjivg.tagaini.net"></path><path class="stroke_order_diagram--existing_path" d="M16.97,56.89c4.08-0.54,8.32-1.31,13.53-1.89c0.92-0.1,1.88-0.21,2.92-0.34" id="Ske1yoh0e4s" kvg:type="㇐b" transform="matrix(1,0,0,1,1396,-4)" xmlns:kvg="http://kanjivg.tagaini.net"></path><path class="stroke_order_diagram--existing_path" d="M43.1,17.43c1.43,0.76,3.59,0.85,5.1,0.71c8.41-0.75,24.18-2.27,33.68-2.91c3.29-0.22,4.28,1.27,3.8,3.81c-0.3,1.58-0.67,3.21-1.89,7.4" id="Ske1yoh0e4t" kvg:type="㇕c" transform="matrix(1,0,0,1,1396,-4)" xmlns:kvg="http://kanjivg.tagaini.net"></path><path class="stroke_order_diagram--existing_path" d="M47.5,30.39c8-0.89,21.73-1.82,31.89-2.54c2.12-0.15,4.27-0.37,6.4-0.35" id="Ske1yoh0e4u" kvg:type="㇐b" transform="matrix(1,0,0,1,1396,-4)" xmlns:kvg="http://kanjivg.tagaini.net"></path><path class="stroke_order_diagram--existing_path" d="M45.39,18.7c0.83,0.83,1.46,2.05,1.45,3.06c-0.09,27.37-5.53,53.02-19.09,67.51" id="Ske1yoh0e4v" kvg:type="㇒" transform="matrix(1,0,0,1,1396,-4)" xmlns:kvg="http://kanjivg.tagaini.net"></path><path class="stroke_order_diagram--existing_path" d="M78.69,32.5c0,0.88-0.5,1.7-1.29,2.28c-4.67,3.41-10.33,5.5-21.63,8.34" id="Ske1yoh0e4w" kvg:type="㇒" transform="matrix(1,0,0,1,1396,-4)" xmlns:kvg="http://kanjivg.tagaini.net"></path><path class="stroke_order_diagram--existing_path" d="M52.16,47.86c0.62,0.62,0.84,1.39,1.1,2.36c0.72,2.68,0.9,3.66,1.62,7.77c0.19,1.1,0.4,1.58,0.62,2.96" id="Ske1yoh0e4x" kvg:type="㇑" transform="matrix(1,0,0,1,1396,-4)" xmlns:kvg="http://kanjivg.tagaini.net"></path><path class="stroke_order_diagram--existing_path" d="M54.41,49.08c11.84-1.58,24.02-3.57,30.06-3.83c2.36-0.1,3.47,0.82,3.15,2.7c-0.66,3.89-1.13,5.55-1.87,7.68" id="Ske1yoh0e4y" kvg:type="㇕b" transform="matrix(1,0,0,1,1396,-4)" xmlns:kvg="http://kanjivg.tagaini.net"></path><path class="stroke_order_diagram--existing_path" d="M56.56,59.09c5.79-0.52,17.41-1.56,26.65-2.2c1.47-0.1,2.88-0.19,4.17-0.27" id="Ske1yoh0e4z" kvg:type="㇐b" transform="matrix(1,0,0,1,1396,-4)" xmlns:kvg="http://kanjivg.tagaini.net"></path><path class="stroke_order_diagram--existing_path" d="M48.24,68.39c0.81,0.81,1.1,1.96,1.16,2.82c0.24,3.51,0.38,12.99,0.44,19.04c0.03,2.76,0.04,4.81,0.04,5.25" id="Ske1yoh0e50" kvg:type="㇑" transform="matrix(1,0,0,1,1396,-4)" xmlns:kvg="http://kanjivg.tagaini.net"></path><path class="stroke_order_diagram--existing_path" d="M49.97,69.63c7.28-0.83,30.19-2.84,39.04-3.79c4.47-0.47,6.13-0.07,5.75,4.78c-0.62,8.13-1.09,13.54-3.13,19.82C89.5,97,86.5,92.5,85.38,90.83" id="Ske1yoh0e51" kvg:type="㇆a" transform="matrix(1,0,0,1,1396,-4)" xmlns:kvg="http://kanjivg.tagaini.net"></path><path class="stroke_order_diagram--existing_path" d="M68.52,41.48c0.88,0.88,1.21,2.15,1.21,3.62c0,4.04-0.04,29.77-0.04,34.18" id="Ske1yoh0e52" kvg:type="㇑a" transform="matrix(1,0,0,1,1396,-4)" xmlns:kvg="http://kanjivg.tagaini.net"></path><path class="stroke_order_diagram--existing_path" d="M58.38,81.34c0.62,1.03,1.5,1.28,2.96,0.95c4.85-1.11,17.9-4.35,19.36-4.78" id="Ske1yoh0e53" kvg:type="㇀" transform="matrix(1,0,0,1,1396,-4)" xmlns:kvg="http://kanjivg.tagaini.net"></path><path class="stroke_order_diagram--current_path" d="M79.12,72.62c1.91,1.95,4.94,8.04,5.42,11.07" id="kvg:05631-s15" kvg:type="㇔" transform="matrix(1,0,0,1,1396,-4)" xmlns:kvg="http://kanjivg.tagaini.net"></path><path class="stroke_order_diagram--current_path" d="M79.12,72.62c1.91,1.95,4.94,8.04,5.42,11.07" id="Ske1yoh0e55" kvg:type="㇔" transform="matrix(1,0,0,1,1396,-4)" xmlns:kvg="http://kanjivg.tagaini.net"></path><circle class="stroke_order_diagram--path_start" cx="79.12" cy="72.62" r="4" transform="matrix(1,0,0,1,1396,-4)"></circle></svg>