<svg class="stroke_order_diagram--svg_container_for_518662a1d5dda79658000ce8" style="height: 100px; width: 1500px;" viewbox="0 0 1500 100"><desc>Created with Snap</desc><defs></defs><line class="stroke_order_diagram--bounding_box" x1="1" x2="1499" y1="1" y2="1"></line><line class="stroke_order_diagram--bounding_box" x1="1" x2="1" y1="1" y2="99"></line><line class="stroke_order_diagram--bounding_box" x1="1" x2="1499" y1="99" y2="99"></line><line class="stroke_order_diagram--guide_line" x1="0" x2="1500" y1="50" y2="50"></line><line class="stroke_order_diagram--guide_line" x1="50" x2="50" y1="1" y2="99"></line><line class="stroke_order_diagram--bounding_box" x1="99" x2="99" y1="1" y2="99"></line><path class="stroke_order_diagram--current_path" d="M9.75,34.06c0.35,0.45,0.72,0.82,0.87,1.38c1.23,4.42,3.7,18.12,4.54,26.06" id="kvg:0564e-s1" kvg:type="㇑" transform="matrix(1,0,0,1,-4,-4)" xmlns:kvg="http://kanjivg.tagaini.net"></path><path class="stroke_order_diagram--current_path" d="M9.75,34.06c0.35,0.45,0.72,0.82,0.87,1.38c1.23,4.42,3.7,18.12,4.54,26.06" id="Ske2eg33no" kvg:type="㇑" transform="matrix(1,0,0,1,-4,-4)" xmlns:kvg="http://kanjivg.tagaini.net"></path><circle class="stroke_order_diagram--path_start" cx="9.75" cy="34.06" r="4" transform="matrix(1,0,0,1,-4,-4)"></circle><line class="stroke_order_diagram--guide_line" x1="150" x2="150" y1="1" y2="99"></line><line class="stroke_order_diagram--bounding_box" x1="199" x2="199" y1="1" y2="99"></line><path class="stroke_order_diagram--existing_path" d="M9.75,34.06c0.35,0.45,0.72,0.82,0.87,1.38c1.23,4.42,3.7,18.12,4.54,26.06" id="Ske2eg33nr" kvg:type="㇑" transform="matrix(1,0,0,1,96,-4)" xmlns:kvg="http://kanjivg.tagaini.net"></path><path class="stroke_order_diagram--current_path" d="M11.96,36.18c8.94-1.94,15.27-3.11,19.41-3.69c1.52-0.21,2.43,1.26,2.21,2.51c-0.9,5.17-2.45,12.65-3.78,19.8" id="kvg:0564e-s2" kvg:type="㇕b" transform="matrix(1,0,0,1,96,-4)" xmlns:kvg="http://kanjivg.tagaini.net"></path><path class="stroke_order_diagram--current_path" d="M11.96,36.18c8.94-1.94,15.27-3.11,19.41-3.69c1.52-0.21,2.43,1.26,2.21,2.51c-0.9,5.17-2.45,12.65-3.78,19.8" id="Ske2eg33nt" kvg:type="㇕b" transform="matrix(1,0,0,1,96,-4)" xmlns:kvg="http://kanjivg.tagaini.net"></path><circle class="stroke_order_diagram--path_start" cx="11.96" cy="36.18" r="4" transform="matrix(1,0,0,1,96,-4)"></circle><line class="stroke_order_diagram--guide_line" x1="250" x2="250" y1="1" y2="99"></line><line class="stroke_order_diagram--bounding_box" x1="299" x2="299" y1="1" y2="99"></line><path class="stroke_order_diagram--existing_path" d="M9.75,34.06c0.35,0.45,0.72,0.82,0.87,1.38c1.23,4.42,3.7,18.12,4.54,26.06" id="Ske2eg33nw" kvg:type="㇑" transform="matrix(1,0,0,1,196,-4)" xmlns:kvg="http://kanjivg.tagaini.net"></path><path class="stroke_order_diagram--existing_path" d="M11.96,36.18c8.94-1.94,15.27-3.11,19.41-3.69c1.52-0.21,2.43,1.26,2.21,2.51c-0.9,5.17-2.45,12.65-3.78,19.8" id="Ske2eg33nx" kvg:type="㇕b" transform="matrix(1,0,0,1,196,-4)" xmlns:kvg="http://kanjivg.tagaini.net"></path><path class="stroke_order_diagram--current_path" d="M14.82,57.86c4.87-0.66,10.75-1.42,17.43-2.43" id="kvg:0564e-s3" kvg:type="㇐b" transform="matrix(1,0,0,1,196,-4)" xmlns:kvg="http://kanjivg.tagaini.net"></path><path class="stroke_order_diagram--current_path" d="M14.82,57.86c4.87-0.66,10.75-1.42,17.43-2.43" id="Ske2eg33nz" kvg:type="㇐b" transform="matrix(1,0,0,1,196,-4)" xmlns:kvg="http://kanjivg.tagaini.net"></path><circle class="stroke_order_diagram--path_start" cx="14.82" cy="57.86" r="4" transform="matrix(1,0,0,1,196,-4)"></circle><line class="stroke_order_diagram--guide_line" x1="350" x2="350" y1="1" y2="99"></line><line class="stroke_order_diagram--bounding_box" x1="399" x2="399" y1="1" y2="99"></line><path class="stroke_order_diagram--existing_path" d="M9.75,34.06c0.35,0.45,0.72,0.82,0.87,1.38c1.23,4.42,3.7,18.12,4.54,26.06" id="Ske2eg33n12" kvg:type="㇑" transform="matrix(1,0,0,1,296,-4)" xmlns:kvg="http://kanjivg.tagaini.net"></path><path class="stroke_order_diagram--existing_path" d="M11.96,36.18c8.94-1.94,15.27-3.11,19.41-3.69c1.52-0.21,2.43,1.26,2.21,2.51c-0.9,5.17-2.45,12.65-3.78,19.8" id="Ske2eg33n13" kvg:type="㇕b" transform="matrix(1,0,0,1,296,-4)" xmlns:kvg="http://kanjivg.tagaini.net"></path><path class="stroke_order_diagram--existing_path" d="M14.82,57.86c4.87-0.66,10.75-1.42,17.43-2.43" id="Ske2eg33n14" kvg:type="㇐b" transform="matrix(1,0,0,1,296,-4)" xmlns:kvg="http://kanjivg.tagaini.net"></path><path class="stroke_order_diagram--current_path" d="M42.52,24.33c0.92,0.39,2.6,0.46,3.51,0.39c9.53-0.66,29.91-4.74,40.8-4.71c1.53,0,2.44,0.19,3.21,0.39" id="kvg:0564e-s4" kvg:type="㇐" transform="matrix(1,0,0,1,296,-4)" xmlns:kvg="http://kanjivg.tagaini.net"></path><path class="stroke_order_diagram--current_path" d="M42.52,24.33c0.92,0.39,2.6,0.46,3.51,0.39c9.53-0.66,29.91-4.74,40.8-4.71c1.53,0,2.44,0.19,3.21,0.39" id="Ske2eg33n16" kvg:type="㇐" transform="matrix(1,0,0,1,296,-4)" xmlns:kvg="http://kanjivg.tagaini.net"></path><circle class="stroke_order_diagram--path_start" cx="42.52" cy="24.33" r="4" transform="matrix(1,0,0,1,296,-4)"></circle><line class="stroke_order_diagram--guide_line" x1="450" x2="450" y1="1" y2="99"></line><line class="stroke_order_diagram--bounding_box" x1="499" x2="499" y1="1" y2="99"></line><path class="stroke_order_diagram--existing_path" d="M9.75,34.06c0.35,0.45,0.72,0.82,0.87,1.38c1.23,4.42,3.7,18.12,4.54,26.06" id="Ske2eg33n19" kvg:type="㇑" transform="matrix(1,0,0,1,396,-4)" xmlns:kvg="http://kanjivg.tagaini.net"></path><path class="stroke_order_diagram--existing_path" d="M11.96,36.18c8.94-1.94,15.27-3.11,19.41-3.69c1.52-0.21,2.43,1.26,2.21,2.51c-0.9,5.17-2.45,12.65-3.78,19.8" id="Ske2eg33n1a" kvg:type="㇕b" transform="matrix(1,0,0,1,396,-4)" xmlns:kvg="http://kanjivg.tagaini.net"></path><path class="stroke_order_diagram--existing_path" d="M14.82,57.86c4.87-0.66,10.75-1.42,17.43-2.43" id="Ske2eg33n1b" kvg:type="㇐b" transform="matrix(1,0,0,1,396,-4)" xmlns:kvg="http://kanjivg.tagaini.net"></path><path class="stroke_order_diagram--existing_path" d="M42.52,24.33c0.92,0.39,2.6,0.46,3.51,0.39c9.53-0.66,29.91-4.74,40.8-4.71c1.53,0,2.44,0.19,3.21,0.39" id="Ske2eg33n1c" kvg:type="㇐" transform="matrix(1,0,0,1,396,-4)" xmlns:kvg="http://kanjivg.tagaini.net"></path><path class="stroke_order_diagram--current_path" d="M64.52,10.5c0.76,0.36,1.21,1.63,1.36,2.36c0.15,0.73,0.42,15.98,0.27,20.52" id="kvg:0564e-s5" kvg:type="㇑a" transform="matrix(1,0,0,1,396,-4)" xmlns:kvg="http://kanjivg.tagaini.net"></path><path class="stroke_order_diagram--current_path" d="M64.52,10.5c0.76,0.36,1.21,1.63,1.36,2.36c0.15,0.73,0.42,15.98,0.27,20.52" id="Ske2eg33n1e" kvg:type="㇑a" transform="matrix(1,0,0,1,396,-4)" xmlns:kvg="http://kanjivg.tagaini.net"></path><circle class="stroke_order_diagram--path_start" cx="64.52" cy="10.5" r="4" transform="matrix(1,0,0,1,396,-4)"></circle><line class="stroke_order_diagram--guide_line" x1="550" x2="550" y1="1" y2="99"></line><line class="stroke_order_diagram--bounding_box" x1="599" x2="599" y1="1" y2="99"></line><path class="stroke_order_diagram--existing_path" d="M9.75,34.06c0.35,0.45,0.72,0.82,0.87,1.38c1.23,4.42,3.7,18.12,4.54,26.06" id="Ske2eg33n1h" kvg:type="㇑" transform="matrix(1,0,0,1,496,-4)" xmlns:kvg="http://kanjivg.tagaini.net"></path><path class="stroke_order_diagram--existing_path" d="M11.96,36.18c8.94-1.94,15.27-3.11,19.41-3.69c1.52-0.21,2.43,1.26,2.21,2.51c-0.9,5.17-2.45,12.65-3.78,19.8" id="Ske2eg33n1i" kvg:type="㇕b" transform="matrix(1,0,0,1,496,-4)" xmlns:kvg="http://kanjivg.tagaini.net"></path><path class="stroke_order_diagram--existing_path" d="M14.82,57.86c4.87-0.66,10.75-1.42,17.43-2.43" id="Ske2eg33n1j" kvg:type="㇐b" transform="matrix(1,0,0,1,496,-4)" xmlns:kvg="http://kanjivg.tagaini.net"></path><path class="stroke_order_diagram--existing_path" d="M42.52,24.33c0.92,0.39,2.6,0.46,3.51,0.39c9.53-0.66,29.91-4.74,40.8-4.71c1.53,0,2.44,0.19,3.21,0.39" id="Ske2eg33n1k" kvg:type="㇐" transform="matrix(1,0,0,1,496,-4)" xmlns:kvg="http://kanjivg.tagaini.net"></path><path class="stroke_order_diagram--existing_path" d="M64.52,10.5c0.76,0.36,1.21,1.63,1.36,2.36c0.15,0.73,0.42,15.98,0.27,20.52" id="Ske2eg33n1l" kvg:type="㇑a" transform="matrix(1,0,0,1,496,-4)" xmlns:kvg="http://kanjivg.tagaini.net"></path><path class="stroke_order_diagram--current_path" d="M49.67,34.69c0.73,0.27,2.07,0.29,2.8,0.27c9.65-0.32,19.55-2.41,29.73-2.38c1.22,0,1.95,0.13,2.56,0.26" id="kvg:0564e-s6" kvg:type="㇐" transform="matrix(1,0,0,1,496,-4)" xmlns:kvg="http://kanjivg.tagaini.net"></path><path class="stroke_order_diagram--current_path" d="M49.67,34.69c0.73,0.27,2.07,0.29,2.8,0.27c9.65-0.32,19.55-2.41,29.73-2.38c1.22,0,1.95,0.13,2.56,0.26" id="Ske2eg33n1n" kvg:type="㇐" transform="matrix(1,0,0,1,496,-4)" xmlns:kvg="http://kanjivg.tagaini.net"></path><circle class="stroke_order_diagram--path_start" cx="49.67" cy="34.69" r="4" transform="matrix(1,0,0,1,496,-4)"></circle><line class="stroke_order_diagram--guide_line" x1="650" x2="650" y1="1" y2="99"></line><line class="stroke_order_diagram--bounding_box" x1="699" x2="699" y1="1" y2="99"></line><path class="stroke_order_diagram--existing_path" d="M9.75,34.06c0.35,0.45,0.72,0.82,0.87,1.38c1.23,4.42,3.7,18.12,4.54,26.06" id="Ske2eg33n1q" kvg:type="㇑" transform="matrix(1,0,0,1,596,-4)" xmlns:kvg="http://kanjivg.tagaini.net"></path><path class="stroke_order_diagram--existing_path" d="M11.96,36.18c8.94-1.94,15.27-3.11,19.41-3.69c1.52-0.21,2.43,1.26,2.21,2.51c-0.9,5.17-2.45,12.65-3.78,19.8" id="Ske2eg33n1r" kvg:type="㇕b" transform="matrix(1,0,0,1,596,-4)" xmlns:kvg="http://kanjivg.tagaini.net"></path><path class="stroke_order_diagram--existing_path" d="M14.82,57.86c4.87-0.66,10.75-1.42,17.43-2.43" id="Ske2eg33n1s" kvg:type="㇐b" transform="matrix(1,0,0,1,596,-4)" xmlns:kvg="http://kanjivg.tagaini.net"></path><path class="stroke_order_diagram--existing_path" d="M42.52,24.33c0.92,0.39,2.6,0.46,3.51,0.39c9.53-0.66,29.91-4.74,40.8-4.71c1.53,0,2.44,0.19,3.21,0.39" id="Ske2eg33n1t" kvg:type="㇐" transform="matrix(1,0,0,1,596,-4)" xmlns:kvg="http://kanjivg.tagaini.net"></path><path class="stroke_order_diagram--existing_path" d="M64.52,10.5c0.76,0.36,1.21,1.63,1.36,2.36c0.15,0.73,0.42,15.98,0.27,20.52" id="Ske2eg33n1u" kvg:type="㇑a" transform="matrix(1,0,0,1,596,-4)" xmlns:kvg="http://kanjivg.tagaini.net"></path><path class="stroke_order_diagram--existing_path" d="M49.67,34.69c0.73,0.27,2.07,0.29,2.8,0.27c9.65-0.32,19.55-2.41,29.73-2.38c1.22,0,1.95,0.13,2.56,0.26" id="Ske2eg33n1v" kvg:type="㇐" transform="matrix(1,0,0,1,596,-4)" xmlns:kvg="http://kanjivg.tagaini.net"></path><path class="stroke_order_diagram--current_path" d="M41.55,43.95c-0.11,3.2-2.64,11.58-3.55,13.49" id="kvg:0564e-s7" kvg:type="㇔" transform="matrix(1,0,0,1,596,-4)" xmlns:kvg="http://kanjivg.tagaini.net"></path><path class="stroke_order_diagram--current_path" d="M41.55,43.95c-0.11,3.2-2.64,11.58-3.55,13.49" id="Ske2eg33n1x" kvg:type="㇔" transform="matrix(1,0,0,1,596,-4)" xmlns:kvg="http://kanjivg.tagaini.net"></path><circle class="stroke_order_diagram--path_start" cx="41.55" cy="43.95" r="4" transform="matrix(1,0,0,1,596,-4)"></circle><line class="stroke_order_diagram--guide_line" x1="750" x2="750" y1="1" y2="99"></line><line class="stroke_order_diagram--bounding_box" x1="799" x2="799" y1="1" y2="99"></line><path class="stroke_order_diagram--existing_path" d="M9.75,34.06c0.35,0.45,0.72,0.82,0.87,1.38c1.23,4.42,3.7,18.12,4.54,26.06" id="Ske2eg33n20" kvg:type="㇑" transform="matrix(1,0,0,1,696,-4)" xmlns:kvg="http://kanjivg.tagaini.net"></path><path class="stroke_order_diagram--existing_path" d="M11.96,36.18c8.94-1.94,15.27-3.11,19.41-3.69c1.52-0.21,2.43,1.26,2.21,2.51c-0.9,5.17-2.45,12.65-3.78,19.8" id="Ske2eg33n21" kvg:type="㇕b" transform="matrix(1,0,0,1,696,-4)" xmlns:kvg="http://kanjivg.tagaini.net"></path><path class="stroke_order_diagram--existing_path" d="M14.82,57.86c4.87-0.66,10.75-1.42,17.43-2.43" id="Ske2eg33n22" kvg:type="㇐b" transform="matrix(1,0,0,1,696,-4)" xmlns:kvg="http://kanjivg.tagaini.net"></path><path class="stroke_order_diagram--existing_path" d="M42.52,24.33c0.92,0.39,2.6,0.46,3.51,0.39c9.53-0.66,29.91-4.74,40.8-4.71c1.53,0,2.44,0.19,3.21,0.39" id="Ske2eg33n23" kvg:type="㇐" transform="matrix(1,0,0,1,696,-4)" xmlns:kvg="http://kanjivg.tagaini.net"></path><path class="stroke_order_diagram--existing_path" d="M64.52,10.5c0.76,0.36,1.21,1.63,1.36,2.36c0.15,0.73,0.42,15.98,0.27,20.52" id="Ske2eg33n24" kvg:type="㇑a" transform="matrix(1,0,0,1,696,-4)" xmlns:kvg="http://kanjivg.tagaini.net"></path><path class="stroke_order_diagram--existing_path" d="M49.67,34.69c0.73,0.27,2.07,0.29,2.8,0.27c9.65-0.32,19.55-2.41,29.73-2.38c1.22,0,1.95,0.13,2.56,0.26" id="Ske2eg33n25" kvg:type="㇐" transform="matrix(1,0,0,1,696,-4)" xmlns:kvg="http://kanjivg.tagaini.net"></path><path class="stroke_order_diagram--existing_path" d="M41.55,43.95c-0.11,3.2-2.64,11.58-3.55,13.49" id="Ske2eg33n26" kvg:type="㇔" transform="matrix(1,0,0,1,696,-4)" xmlns:kvg="http://kanjivg.tagaini.net"></path><path class="stroke_order_diagram--current_path" d="M43.07,46.15c2.6,0,34.96-3.77,48.03-3.77c8.89,0,2.81,4.1-0.51,7.43" id="kvg:0564e-s8" kvg:type="㇖b" transform="matrix(1,0,0,1,696,-4)" xmlns:kvg="http://kanjivg.tagaini.net"></path><path class="stroke_order_diagram--current_path" d="M43.07,46.15c2.6,0,34.96-3.77,48.03-3.77c8.89,0,2.81,4.1-0.51,7.43" id="Ske2eg33n28" kvg:type="㇖b" transform="matrix(1,0,0,1,696,-4)" xmlns:kvg="http://kanjivg.tagaini.net"></path><circle class="stroke_order_diagram--path_start" cx="43.07" cy="46.15" r="4" transform="matrix(1,0,0,1,696,-4)"></circle><line class="stroke_order_diagram--guide_line" x1="850" x2="850" y1="1" y2="99"></line><line class="stroke_order_diagram--bounding_box" x1="899" x2="899" y1="1" y2="99"></line><path class="stroke_order_diagram--existing_path" d="M9.75,34.06c0.35,0.45,0.72,0.82,0.87,1.38c1.23,4.42,3.7,18.12,4.54,26.06" id="Ske2eg33n2b" kvg:type="㇑" transform="matrix(1,0,0,1,796,-4)" xmlns:kvg="http://kanjivg.tagaini.net"></path><path class="stroke_order_diagram--existing_path" d="M11.96,36.18c8.94-1.94,15.27-3.11,19.41-3.69c1.52-0.21,2.43,1.26,2.21,2.51c-0.9,5.17-2.45,12.65-3.78,19.8" id="Ske2eg33n2c" kvg:type="㇕b" transform="matrix(1,0,0,1,796,-4)" xmlns:kvg="http://kanjivg.tagaini.net"></path><path class="stroke_order_diagram--existing_path" d="M14.82,57.86c4.87-0.66,10.75-1.42,17.43-2.43" id="Ske2eg33n2d" kvg:type="㇐b" transform="matrix(1,0,0,1,796,-4)" xmlns:kvg="http://kanjivg.tagaini.net"></path><path class="stroke_order_diagram--existing_path" d="M42.52,24.33c0.92,0.39,2.6,0.46,3.51,0.39c9.53-0.66,29.91-4.74,40.8-4.71c1.53,0,2.44,0.19,3.21,0.39" id="Ske2eg33n2e" kvg:type="㇐" transform="matrix(1,0,0,1,796,-4)" xmlns:kvg="http://kanjivg.tagaini.net"></path><path class="stroke_order_diagram--existing_path" d="M64.52,10.5c0.76,0.36,1.21,1.63,1.36,2.36c0.15,0.73,0.42,15.98,0.27,20.52" id="Ske2eg33n2f" kvg:type="㇑a" transform="matrix(1,0,0,1,796,-4)" xmlns:kvg="http://kanjivg.tagaini.net"></path><path class="stroke_order_diagram--existing_path" d="M49.67,34.69c0.73,0.27,2.07,0.29,2.8,0.27c9.65-0.32,19.55-2.41,29.73-2.38c1.22,0,1.95,0.13,2.56,0.26" id="Ske2eg33n2g" kvg:type="㇐" transform="matrix(1,0,0,1,796,-4)" xmlns:kvg="http://kanjivg.tagaini.net"></path><path class="stroke_order_diagram--existing_path" d="M41.55,43.95c-0.11,3.2-2.64,11.58-3.55,13.49" id="Ske2eg33n2h" kvg:type="㇔" transform="matrix(1,0,0,1,796,-4)" xmlns:kvg="http://kanjivg.tagaini.net"></path><path class="stroke_order_diagram--existing_path" d="M43.07,46.15c2.6,0,34.96-3.77,48.03-3.77c8.89,0,2.81,4.1-0.51,7.43" id="Ske2eg33n2i" kvg:type="㇖b" transform="matrix(1,0,0,1,796,-4)" xmlns:kvg="http://kanjivg.tagaini.net"></path><path class="stroke_order_diagram--current_path" d="M49.29,54.43c0.73,0.36,2.07,0.4,2.81,0.36c7.63-0.41,17.9-2.54,27.05-3.18c1.22-0.08,1.96,0.17,2.57,0.35" id="kvg:0564e-s9" kvg:type="㇐" transform="matrix(1,0,0,1,796,-4)" xmlns:kvg="http://kanjivg.tagaini.net"></path><path class="stroke_order_diagram--current_path" d="M49.29,54.43c0.73,0.36,2.07,0.4,2.81,0.36c7.63-0.41,17.9-2.54,27.05-3.18c1.22-0.08,1.96,0.17,2.57,0.35" id="Ske2eg33n2k" kvg:type="㇐" transform="matrix(1,0,0,1,796,-4)" xmlns:kvg="http://kanjivg.tagaini.net"></path><circle class="stroke_order_diagram--path_start" cx="49.29" cy="54.43" r="4" transform="matrix(1,0,0,1,796,-4)"></circle><line class="stroke_order_diagram--guide_line" x1="950" x2="950" y1="1" y2="99"></line><line class="stroke_order_diagram--bounding_box" x1="999" x2="999" y1="1" y2="99"></line><path class="stroke_order_diagram--existing_path" d="M9.75,34.06c0.35,0.45,0.72,0.82,0.87,1.38c1.23,4.42,3.7,18.12,4.54,26.06" id="Ske2eg33n2n" kvg:type="㇑" transform="matrix(1,0,0,1,896,-4)" xmlns:kvg="http://kanjivg.tagaini.net"></path><path class="stroke_order_diagram--existing_path" d="M11.96,36.18c8.94-1.94,15.27-3.11,19.41-3.69c1.52-0.21,2.43,1.26,2.21,2.51c-0.9,5.17-2.45,12.65-3.78,19.8" id="Ske2eg33n2o" kvg:type="㇕b" transform="matrix(1,0,0,1,896,-4)" xmlns:kvg="http://kanjivg.tagaini.net"></path><path class="stroke_order_diagram--existing_path" d="M14.82,57.86c4.87-0.66,10.75-1.42,17.43-2.43" id="Ske2eg33n2p" kvg:type="㇐b" transform="matrix(1,0,0,1,896,-4)" xmlns:kvg="http://kanjivg.tagaini.net"></path><path class="stroke_order_diagram--existing_path" d="M42.52,24.33c0.92,0.39,2.6,0.46,3.51,0.39c9.53-0.66,29.91-4.74,40.8-4.71c1.53,0,2.44,0.19,3.21,0.39" id="Ske2eg33n2q" kvg:type="㇐" transform="matrix(1,0,0,1,896,-4)" xmlns:kvg="http://kanjivg.tagaini.net"></path><path class="stroke_order_diagram--existing_path" d="M64.52,10.5c0.76,0.36,1.21,1.63,1.36,2.36c0.15,0.73,0.42,15.98,0.27,20.52" id="Ske2eg33n2r" kvg:type="㇑a" transform="matrix(1,0,0,1,896,-4)" xmlns:kvg="http://kanjivg.tagaini.net"></path><path class="stroke_order_diagram--existing_path" d="M49.67,34.69c0.73,0.27,2.07,0.29,2.8,0.27c9.65-0.32,19.55-2.41,29.73-2.38c1.22,0,1.95,0.13,2.56,0.26" id="Ske2eg33n2s" kvg:type="㇐" transform="matrix(1,0,0,1,896,-4)" xmlns:kvg="http://kanjivg.tagaini.net"></path><path class="stroke_order_diagram--existing_path" d="M41.55,43.95c-0.11,3.2-2.64,11.58-3.55,13.49" id="Ske2eg33n2t" kvg:type="㇔" transform="matrix(1,0,0,1,896,-4)" xmlns:kvg="http://kanjivg.tagaini.net"></path><path class="stroke_order_diagram--existing_path" d="M43.07,46.15c2.6,0,34.96-3.77,48.03-3.77c8.89,0,2.81,4.1-0.51,7.43" id="Ske2eg33n2u" kvg:type="㇖b" transform="matrix(1,0,0,1,896,-4)" xmlns:kvg="http://kanjivg.tagaini.net"></path><path class="stroke_order_diagram--existing_path" d="M49.29,54.43c0.73,0.36,2.07,0.4,2.81,0.36c7.63-0.41,17.9-2.54,27.05-3.18c1.22-0.08,1.96,0.17,2.57,0.35" id="Ske2eg33n2v" kvg:type="㇐" transform="matrix(1,0,0,1,896,-4)" xmlns:kvg="http://kanjivg.tagaini.net"></path><path class="stroke_order_diagram--current_path" d="M49.38,63.67c0.37,0.27,0.84,0.47,0.91,0.83c0.5,2.57,1.87,8.65,2.99,13.75" id="kvg:0564e-s10" kvg:type="㇑" transform="matrix(1,0,0,1,896,-4)" xmlns:kvg="http://kanjivg.tagaini.net"></path><path class="stroke_order_diagram--current_path" d="M49.38,63.67c0.37,0.27,0.84,0.47,0.91,0.83c0.5,2.57,1.87,8.65,2.99,13.75" id="Ske2eg33n2x" kvg:type="㇑" transform="matrix(1,0,0,1,896,-4)" xmlns:kvg="http://kanjivg.tagaini.net"></path><circle class="stroke_order_diagram--path_start" cx="49.38" cy="63.67" r="4" transform="matrix(1,0,0,1,896,-4)"></circle><line class="stroke_order_diagram--guide_line" x1="1050" x2="1050" y1="1" y2="99"></line><line class="stroke_order_diagram--bounding_box" x1="1099" x2="1099" y1="1" y2="99"></line><path class="stroke_order_diagram--existing_path" d="M9.75,34.06c0.35,0.45,0.72,0.82,0.87,1.38c1.23,4.42,3.7,18.12,4.54,26.06" id="Ske2eg33n30" kvg:type="㇑" transform="matrix(1,0,0,1,996,-4)" xmlns:kvg="http://kanjivg.tagaini.net"></path><path class="stroke_order_diagram--existing_path" d="M11.96,36.18c8.94-1.94,15.27-3.11,19.41-3.69c1.52-0.21,2.43,1.26,2.21,2.51c-0.9,5.17-2.45,12.65-3.78,19.8" id="Ske2eg33n31" kvg:type="㇕b" transform="matrix(1,0,0,1,996,-4)" xmlns:kvg="http://kanjivg.tagaini.net"></path><path class="stroke_order_diagram--existing_path" d="M14.82,57.86c4.87-0.66,10.75-1.42,17.43-2.43" id="Ske2eg33n32" kvg:type="㇐b" transform="matrix(1,0,0,1,996,-4)" xmlns:kvg="http://kanjivg.tagaini.net"></path><path class="stroke_order_diagram--existing_path" d="M42.52,24.33c0.92,0.39,2.6,0.46,3.51,0.39c9.53-0.66,29.91-4.74,40.8-4.71c1.53,0,2.44,0.19,3.21,0.39" id="Ske2eg33n33" kvg:type="㇐" transform="matrix(1,0,0,1,996,-4)" xmlns:kvg="http://kanjivg.tagaini.net"></path><path class="stroke_order_diagram--existing_path" d="M64.52,10.5c0.76,0.36,1.21,1.63,1.36,2.36c0.15,0.73,0.42,15.98,0.27,20.52" id="Ske2eg33n34" kvg:type="㇑a" transform="matrix(1,0,0,1,996,-4)" xmlns:kvg="http://kanjivg.tagaini.net"></path><path class="stroke_order_diagram--existing_path" d="M49.67,34.69c0.73,0.27,2.07,0.29,2.8,0.27c9.65-0.32,19.55-2.41,29.73-2.38c1.22,0,1.95,0.13,2.56,0.26" id="Ske2eg33n35" kvg:type="㇐" transform="matrix(1,0,0,1,996,-4)" xmlns:kvg="http://kanjivg.tagaini.net"></path><path class="stroke_order_diagram--existing_path" d="M41.55,43.95c-0.11,3.2-2.64,11.58-3.55,13.49" id="Ske2eg33n36" kvg:type="㇔" transform="matrix(1,0,0,1,996,-4)" xmlns:kvg="http://kanjivg.tagaini.net"></path><path class="stroke_order_diagram--existing_path" d="M43.07,46.15c2.6,0,34.96-3.77,48.03-3.77c8.89,0,2.81,4.1-0.51,7.43" id="Ske2eg33n37" kvg:type="㇖b" transform="matrix(1,0,0,1,996,-4)" xmlns:kvg="http://kanjivg.tagaini.net"></path><path class="stroke_order_diagram--existing_path" d="M49.29,54.43c0.73,0.36,2.07,0.4,2.81,0.36c7.63-0.41,17.9-2.54,27.05-3.18c1.22-0.08,1.96,0.17,2.57,0.35" id="Ske2eg33n38" kvg:type="㇐" transform="matrix(1,0,0,1,996,-4)" xmlns:kvg="http://kanjivg.tagaini.net"></path><path class="stroke_order_diagram--existing_path" d="M49.38,63.67c0.37,0.27,0.84,0.47,0.91,0.83c0.5,2.57,1.87,8.65,2.99,13.75" id="Ske2eg33n39" kvg:type="㇑" transform="matrix(1,0,0,1,996,-4)" xmlns:kvg="http://kanjivg.tagaini.net"></path><path class="stroke_order_diagram--current_path" d="M50.8,65.11C56.4,64.6,73.5,62,78.9,61.04c1.56-0.28,2.65,0.67,2.3,2.16c-0.64,2.68-1.3,4.8-3.23,9.92" id="kvg:0564e-s11" kvg:type="㇕b" transform="matrix(1,0,0,1,996,-4)" xmlns:kvg="http://kanjivg.tagaini.net"></path><path class="stroke_order_diagram--current_path" d="M50.8,65.11C56.4,64.6,73.5,62,78.9,61.04c1.56-0.28,2.65,0.67,2.3,2.16c-0.64,2.68-1.3,4.8-3.23,9.92" id="Ske2eg33n3b" kvg:type="㇕b" transform="matrix(1,0,0,1,996,-4)" xmlns:kvg="http://kanjivg.tagaini.net"></path><circle class="stroke_order_diagram--path_start" cx="50.8" cy="65.11" r="4" transform="matrix(1,0,0,1,996,-4)"></circle><line class="stroke_order_diagram--guide_line" x1="1150" x2="1150" y1="1" y2="99"></line><line class="stroke_order_diagram--bounding_box" x1="1199" x2="1199" y1="1" y2="99"></line><path class="stroke_order_diagram--existing_path" d="M9.75,34.06c0.35,0.45,0.72,0.82,0.87,1.38c1.23,4.42,3.7,18.12,4.54,26.06" id="Ske2eg33n3e" kvg:type="㇑" transform="matrix(1,0,0,1,1096,-4)" xmlns:kvg="http://kanjivg.tagaini.net"></path><path class="stroke_order_diagram--existing_path" d="M11.96,36.18c8.94-1.94,15.27-3.11,19.41-3.69c1.52-0.21,2.43,1.26,2.21,2.51c-0.9,5.17-2.45,12.65-3.78,19.8" id="Ske2eg33n3f" kvg:type="㇕b" transform="matrix(1,0,0,1,1096,-4)" xmlns:kvg="http://kanjivg.tagaini.net"></path><path class="stroke_order_diagram--existing_path" d="M14.82,57.86c4.87-0.66,10.75-1.42,17.43-2.43" id="Ske2eg33n3g" kvg:type="㇐b" transform="matrix(1,0,0,1,1096,-4)" xmlns:kvg="http://kanjivg.tagaini.net"></path><path class="stroke_order_diagram--existing_path" d="M42.52,24.33c0.92,0.39,2.6,0.46,3.51,0.39c9.53-0.66,29.91-4.74,40.8-4.71c1.53,0,2.44,0.19,3.21,0.39" id="Ske2eg33n3h" kvg:type="㇐" transform="matrix(1,0,0,1,1096,-4)" xmlns:kvg="http://kanjivg.tagaini.net"></path><path class="stroke_order_diagram--existing_path" d="M64.52,10.5c0.76,0.36,1.21,1.63,1.36,2.36c0.15,0.73,0.42,15.98,0.27,20.52" id="Ske2eg33n3i" kvg:type="㇑a" transform="matrix(1,0,0,1,1096,-4)" xmlns:kvg="http://kanjivg.tagaini.net"></path><path class="stroke_order_diagram--existing_path" d="M49.67,34.69c0.73,0.27,2.07,0.29,2.8,0.27c9.65-0.32,19.55-2.41,29.73-2.38c1.22,0,1.95,0.13,2.56,0.26" id="Ske2eg33n3j" kvg:type="㇐" transform="matrix(1,0,0,1,1096,-4)" xmlns:kvg="http://kanjivg.tagaini.net"></path><path class="stroke_order_diagram--existing_path" d="M41.55,43.95c-0.11,3.2-2.64,11.58-3.55,13.49" id="Ske2eg33n3k" kvg:type="㇔" transform="matrix(1,0,0,1,1096,-4)" xmlns:kvg="http://kanjivg.tagaini.net"></path><path class="stroke_order_diagram--existing_path" d="M43.07,46.15c2.6,0,34.96-3.77,48.03-3.77c8.89,0,2.81,4.1-0.51,7.43" id="Ske2eg33n3l" kvg:type="㇖b" transform="matrix(1,0,0,1,1096,-4)" xmlns:kvg="http://kanjivg.tagaini.net"></path><path class="stroke_order_diagram--existing_path" d="M49.29,54.43c0.73,0.36,2.07,0.4,2.81,0.36c7.63-0.41,17.9-2.54,27.05-3.18c1.22-0.08,1.96,0.17,2.57,0.35" id="Ske2eg33n3m" kvg:type="㇐" transform="matrix(1,0,0,1,1096,-4)" xmlns:kvg="http://kanjivg.tagaini.net"></path><path class="stroke_order_diagram--existing_path" d="M49.38,63.67c0.37,0.27,0.84,0.47,0.91,0.83c0.5,2.57,1.87,8.65,2.99,13.75" id="Ske2eg33n3n" kvg:type="㇑" transform="matrix(1,0,0,1,1096,-4)" xmlns:kvg="http://kanjivg.tagaini.net"></path><path class="stroke_order_diagram--existing_path" d="M50.8,65.11C56.4,64.6,73.5,62,78.9,61.04c1.56-0.28,2.65,0.67,2.3,2.16c-0.64,2.68-1.3,4.8-3.23,9.92" id="Ske2eg33n3o" kvg:type="㇕b" transform="matrix(1,0,0,1,1096,-4)" xmlns:kvg="http://kanjivg.tagaini.net"></path><path class="stroke_order_diagram--current_path" d="M53.58,76.49c5.54-0.27,20.63-2.76,25.33-2.83" id="kvg:0564e-s12" kvg:type="㇐b" transform="matrix(1,0,0,1,1096,-4)" xmlns:kvg="http://kanjivg.tagaini.net"></path><path class="stroke_order_diagram--current_path" d="M53.58,76.49c5.54-0.27,20.63-2.76,25.33-2.83" id="Ske2eg33n3q" kvg:type="㇐b" transform="matrix(1,0,0,1,1096,-4)" xmlns:kvg="http://kanjivg.tagaini.net"></path><circle class="stroke_order_diagram--path_start" cx="53.58" cy="76.49" r="4" transform="matrix(1,0,0,1,1096,-4)"></circle><line class="stroke_order_diagram--guide_line" x1="1250" x2="1250" y1="1" y2="99"></line><line class="stroke_order_diagram--bounding_box" x1="1299" x2="1299" y1="1" y2="99"></line><path class="stroke_order_diagram--existing_path" d="M9.75,34.06c0.35,0.45,0.72,0.82,0.87,1.38c1.23,4.42,3.7,18.12,4.54,26.06" id="Ske2eg33n3t" kvg:type="㇑" transform="matrix(1,0,0,1,1196,-4)" xmlns:kvg="http://kanjivg.tagaini.net"></path><path class="stroke_order_diagram--existing_path" d="M11.96,36.18c8.94-1.94,15.27-3.11,19.41-3.69c1.52-0.21,2.43,1.26,2.21,2.51c-0.9,5.17-2.45,12.65-3.78,19.8" id="Ske2eg33n3u" kvg:type="㇕b" transform="matrix(1,0,0,1,1196,-4)" xmlns:kvg="http://kanjivg.tagaini.net"></path><path class="stroke_order_diagram--existing_path" d="M14.82,57.86c4.87-0.66,10.75-1.42,17.43-2.43" id="Ske2eg33n3v" kvg:type="㇐b" transform="matrix(1,0,0,1,1196,-4)" xmlns:kvg="http://kanjivg.tagaini.net"></path><path class="stroke_order_diagram--existing_path" d="M42.52,24.33c0.92,0.39,2.6,0.46,3.51,0.39c9.53-0.66,29.91-4.74,40.8-4.71c1.53,0,2.44,0.19,3.21,0.39" id="Ske2eg33n3w" kvg:type="㇐" transform="matrix(1,0,0,1,1196,-4)" xmlns:kvg="http://kanjivg.tagaini.net"></path><path class="stroke_order_diagram--existing_path" d="M64.52,10.5c0.76,0.36,1.21,1.63,1.36,2.36c0.15,0.73,0.42,15.98,0.27,20.52" id="Ske2eg33n3x" kvg:type="㇑a" transform="matrix(1,0,0,1,1196,-4)" xmlns:kvg="http://kanjivg.tagaini.net"></path><path class="stroke_order_diagram--existing_path" d="M49.67,34.69c0.73,0.27,2.07,0.29,2.8,0.27c9.65-0.32,19.55-2.41,29.73-2.38c1.22,0,1.95,0.13,2.56,0.26" id="Ske2eg33n3y" kvg:type="㇐" transform="matrix(1,0,0,1,1196,-4)" xmlns:kvg="http://kanjivg.tagaini.net"></path><path class="stroke_order_diagram--existing_path" d="M41.55,43.95c-0.11,3.2-2.64,11.58-3.55,13.49" id="Ske2eg33n3z" kvg:type="㇔" transform="matrix(1,0,0,1,1196,-4)" xmlns:kvg="http://kanjivg.tagaini.net"></path><path class="stroke_order_diagram--existing_path" d="M43.07,46.15c2.6,0,34.96-3.77,48.03-3.77c8.89,0,2.81,4.1-0.51,7.43" id="Ske2eg33n40" kvg:type="㇖b" transform="matrix(1,0,0,1,1196,-4)" xmlns:kvg="http://kanjivg.tagaini.net"></path><path class="stroke_order_diagram--existing_path" d="M49.29,54.43c0.73,0.36,2.07,0.4,2.81,0.36c7.63-0.41,17.9-2.54,27.05-3.18c1.22-0.08,1.96,0.17,2.57,0.35" id="Ske2eg33n41" kvg:type="㇐" transform="matrix(1,0,0,1,1196,-4)" xmlns:kvg="http://kanjivg.tagaini.net"></path><path class="stroke_order_diagram--existing_path" d="M49.38,63.67c0.37,0.27,0.84,0.47,0.91,0.83c0.5,2.57,1.87,8.65,2.99,13.75" id="Ske2eg33n42" kvg:type="㇑" transform="matrix(1,0,0,1,1196,-4)" xmlns:kvg="http://kanjivg.tagaini.net"></path><path class="stroke_order_diagram--existing_path" d="M50.8,65.11C56.4,64.6,73.5,62,78.9,61.04c1.56-0.28,2.65,0.67,2.3,2.16c-0.64,2.68-1.3,4.8-3.23,9.92" id="Ske2eg33n43" kvg:type="㇕b" transform="matrix(1,0,0,1,1196,-4)" xmlns:kvg="http://kanjivg.tagaini.net"></path><path class="stroke_order_diagram--existing_path" d="M53.58,76.49c5.54-0.27,20.63-2.76,25.33-2.83" id="Ske2eg33n44" kvg:type="㇐b" transform="matrix(1,0,0,1,1196,-4)" xmlns:kvg="http://kanjivg.tagaini.net"></path><path class="stroke_order_diagram--current_path" d="M53,82.92c1.77,1.82,4.57,7.5,5.01,10.34" id="kvg:0564e-s13" kvg:type="㇔" transform="matrix(1,0,0,1,1196,-4)" xmlns:kvg="http://kanjivg.tagaini.net"></path><path class="stroke_order_diagram--current_path" d="M53,82.92c1.77,1.82,4.57,7.5,5.01,10.34" id="Ske2eg33n46" kvg:type="㇔" transform="matrix(1,0,0,1,1196,-4)" xmlns:kvg="http://kanjivg.tagaini.net"></path><circle class="stroke_order_diagram--path_start" cx="53" cy="82.92" r="4" transform="matrix(1,0,0,1,1196,-4)"></circle><line class="stroke_order_diagram--guide_line" x1="1350" x2="1350" y1="1" y2="99"></line><line class="stroke_order_diagram--bounding_box" x1="1399" x2="1399" y1="1" y2="99"></line><path class="stroke_order_diagram--existing_path" d="M9.75,34.06c0.35,0.45,0.72,0.82,0.87,1.38c1.23,4.42,3.7,18.12,4.54,26.06" id="Ske2eg33n49" kvg:type="㇑" transform="matrix(1,0,0,1,1296,-4)" xmlns:kvg="http://kanjivg.tagaini.net"></path><path class="stroke_order_diagram--existing_path" d="M11.96,36.18c8.94-1.94,15.27-3.11,19.41-3.69c1.52-0.21,2.43,1.26,2.21,2.51c-0.9,5.17-2.45,12.65-3.78,19.8" id="Ske2eg33n4a" kvg:type="㇕b" transform="matrix(1,0,0,1,1296,-4)" xmlns:kvg="http://kanjivg.tagaini.net"></path><path class="stroke_order_diagram--existing_path" d="M14.82,57.86c4.87-0.66,10.75-1.42,17.43-2.43" id="Ske2eg33n4b" kvg:type="㇐b" transform="matrix(1,0,0,1,1296,-4)" xmlns:kvg="http://kanjivg.tagaini.net"></path><path class="stroke_order_diagram--existing_path" d="M42.52,24.33c0.92,0.39,2.6,0.46,3.51,0.39c9.53-0.66,29.91-4.74,40.8-4.71c1.53,0,2.44,0.19,3.21,0.39" id="Ske2eg33n4c" kvg:type="㇐" transform="matrix(1,0,0,1,1296,-4)" xmlns:kvg="http://kanjivg.tagaini.net"></path><path class="stroke_order_diagram--existing_path" d="M64.52,10.5c0.76,0.36,1.21,1.63,1.36,2.36c0.15,0.73,0.42,15.98,0.27,20.52" id="Ske2eg33n4d" kvg:type="㇑a" transform="matrix(1,0,0,1,1296,-4)" xmlns:kvg="http://kanjivg.tagaini.net"></path><path class="stroke_order_diagram--existing_path" d="M49.67,34.69c0.73,0.27,2.07,0.29,2.8,0.27c9.65-0.32,19.55-2.41,29.73-2.38c1.22,0,1.95,0.13,2.56,0.26" id="Ske2eg33n4e" kvg:type="㇐" transform="matrix(1,0,0,1,1296,-4)" xmlns:kvg="http://kanjivg.tagaini.net"></path><path class="stroke_order_diagram--existing_path" d="M41.55,43.95c-0.11,3.2-2.64,11.58-3.55,13.49" id="Ske2eg33n4f" kvg:type="㇔" transform="matrix(1,0,0,1,1296,-4)" xmlns:kvg="http://kanjivg.tagaini.net"></path><path class="stroke_order_diagram--existing_path" d="M43.07,46.15c2.6,0,34.96-3.77,48.03-3.77c8.89,0,2.81,4.1-0.51,7.43" id="Ske2eg33n4g" kvg:type="㇖b" transform="matrix(1,0,0,1,1296,-4)" xmlns:kvg="http://kanjivg.tagaini.net"></path><path class="stroke_order_diagram--existing_path" d="M49.29,54.43c0.73,0.36,2.07,0.4,2.81,0.36c7.63-0.41,17.9-2.54,27.05-3.18c1.22-0.08,1.96,0.17,2.57,0.35" id="Ske2eg33n4h" kvg:type="㇐" transform="matrix(1,0,0,1,1296,-4)" xmlns:kvg="http://kanjivg.tagaini.net"></path><path class="stroke_order_diagram--existing_path" d="M49.38,63.67c0.37,0.27,0.84,0.47,0.91,0.83c0.5,2.57,1.87,8.65,2.99,13.75" id="Ske2eg33n4i" kvg:type="㇑" transform="matrix(1,0,0,1,1296,-4)" xmlns:kvg="http://kanjivg.tagaini.net"></path><path class="stroke_order_diagram--existing_path" d="M50.8,65.11C56.4,64.6,73.5,62,78.9,61.04c1.56-0.28,2.65,0.67,2.3,2.16c-0.64,2.68-1.3,4.8-3.23,9.92" id="Ske2eg33n4j" kvg:type="㇕b" transform="matrix(1,0,0,1,1296,-4)" xmlns:kvg="http://kanjivg.tagaini.net"></path><path class="stroke_order_diagram--existing_path" d="M53.58,76.49c5.54-0.27,20.63-2.76,25.33-2.83" id="Ske2eg33n4k" kvg:type="㇐b" transform="matrix(1,0,0,1,1296,-4)" xmlns:kvg="http://kanjivg.tagaini.net"></path><path class="stroke_order_diagram--existing_path" d="M53,82.92c1.77,1.82,4.57,7.5,5.01,10.34" id="Ske2eg33n4l" kvg:type="㇔" transform="matrix(1,0,0,1,1296,-4)" xmlns:kvg="http://kanjivg.tagaini.net"></path><path class="stroke_order_diagram--current_path" d="M78.6,78.47c0.02,0.34,0.04,0.88-0.04,1.36c-0.45,2.87-3.01,9.18-6.51,13.04" id="kvg:0564e-s14" kvg:type="㇒" transform="matrix(1,0,0,1,1296,-4)" xmlns:kvg="http://kanjivg.tagaini.net"></path><path class="stroke_order_diagram--current_path" d="M78.6,78.47c0.02,0.34,0.04,0.88-0.04,1.36c-0.45,2.87-3.01,9.18-6.51,13.04" id="Ske2eg33n4n" kvg:type="㇒" transform="matrix(1,0,0,1,1296,-4)" xmlns:kvg="http://kanjivg.tagaini.net"></path><circle class="stroke_order_diagram--path_start" cx="78.6" cy="78.47" r="4" transform="matrix(1,0,0,1,1296,-4)"></circle><line class="stroke_order_diagram--guide_line" x1="1450" x2="1450" y1="1" y2="99"></line><line class="stroke_order_diagram--bounding_box" x1="1499" x2="1499" y1="1" y2="99"></line><path class="stroke_order_diagram--existing_path" d="M9.75,34.06c0.35,0.45,0.72,0.82,0.87,1.38c1.23,4.42,3.7,18.12,4.54,26.06" id="Ske2eg33n4q" kvg:type="㇑" transform="matrix(1,0,0,1,1396,-4)" xmlns:kvg="http://kanjivg.tagaini.net"></path><path class="stroke_order_diagram--existing_path" d="M11.96,36.18c8.94-1.94,15.27-3.11,19.41-3.69c1.52-0.21,2.43,1.26,2.21,2.51c-0.9,5.17-2.45,12.65-3.78,19.8" id="Ske2eg33n4r" kvg:type="㇕b" transform="matrix(1,0,0,1,1396,-4)" xmlns:kvg="http://kanjivg.tagaini.net"></path><path class="stroke_order_diagram--existing_path" d="M14.82,57.86c4.87-0.66,10.75-1.42,17.43-2.43" id="Ske2eg33n4s" kvg:type="㇐b" transform="matrix(1,0,0,1,1396,-4)" xmlns:kvg="http://kanjivg.tagaini.net"></path><path class="stroke_order_diagram--existing_path" d="M42.52,24.33c0.92,0.39,2.6,0.46,3.51,0.39c9.53-0.66,29.91-4.74,40.8-4.71c1.53,0,2.44,0.19,3.21,0.39" id="Ske2eg33n4t" kvg:type="㇐" transform="matrix(1,0,0,1,1396,-4)" xmlns:kvg="http://kanjivg.tagaini.net"></path><path class="stroke_order_diagram--existing_path" d="M64.52,10.5c0.76,0.36,1.21,1.63,1.36,2.36c0.15,0.73,0.42,15.98,0.27,20.52" id="Ske2eg33n4u" kvg:type="㇑a" transform="matrix(1,0,0,1,1396,-4)" xmlns:kvg="http://kanjivg.tagaini.net"></path><path class="stroke_order_diagram--existing_path" d="M49.67,34.69c0.73,0.27,2.07,0.29,2.8,0.27c9.65-0.32,19.55-2.41,29.73-2.38c1.22,0,1.95,0.13,2.56,0.26" id="Ske2eg33n4v" kvg:type="㇐" transform="matrix(1,0,0,1,1396,-4)" xmlns:kvg="http://kanjivg.tagaini.net"></path><path class="stroke_order_diagram--existing_path" d="M41.55,43.95c-0.11,3.2-2.64,11.58-3.55,13.49" id="Ske2eg33n4w" kvg:type="㇔" transform="matrix(1,0,0,1,1396,-4)" xmlns:kvg="http://kanjivg.tagaini.net"></path><path class="stroke_order_diagram--existing_path" d="M43.07,46.15c2.6,0,34.96-3.77,48.03-3.77c8.89,0,2.81,4.1-0.51,7.43" id="Ske2eg33n4x" kvg:type="㇖b" transform="matrix(1,0,0,1,1396,-4)" xmlns:kvg="http://kanjivg.tagaini.net"></path><path class="stroke_order_diagram--existing_path" d="M49.29,54.43c0.73,0.36,2.07,0.4,2.81,0.36c7.63-0.41,17.9-2.54,27.05-3.18c1.22-0.08,1.96,0.17,2.57,0.35" id="Ske2eg33n4y" kvg:type="㇐" transform="matrix(1,0,0,1,1396,-4)" xmlns:kvg="http://kanjivg.tagaini.net"></path><path class="stroke_order_diagram--existing_path" d="M49.38,63.67c0.37,0.27,0.84,0.47,0.91,0.83c0.5,2.57,1.87,8.65,2.99,13.75" id="Ske2eg33n4z" kvg:type="㇑" transform="matrix(1,0,0,1,1396,-4)" xmlns:kvg="http://kanjivg.tagaini.net"></path><path class="stroke_order_diagram--existing_path" d="M50.8,65.11C56.4,64.6,73.5,62,78.9,61.04c1.56-0.28,2.65,0.67,2.3,2.16c-0.64,2.68-1.3,4.8-3.23,9.92" id="Ske2eg33n50" kvg:type="㇕b" transform="matrix(1,0,0,1,1396,-4)" xmlns:kvg="http://kanjivg.tagaini.net"></path><path class="stroke_order_diagram--existing_path" d="M53.58,76.49c5.54-0.27,20.63-2.76,25.33-2.83" id="Ske2eg33n51" kvg:type="㇐b" transform="matrix(1,0,0,1,1396,-4)" xmlns:kvg="http://kanjivg.tagaini.net"></path><path class="stroke_order_diagram--existing_path" d="M53,82.92c1.77,1.82,4.57,7.5,5.01,10.34" id="Ske2eg33n52" kvg:type="㇔" transform="matrix(1,0,0,1,1396,-4)" xmlns:kvg="http://kanjivg.tagaini.net"></path><path class="stroke_order_diagram--existing_path" d="M78.6,78.47c0.02,0.34,0.04,0.88-0.04,1.36c-0.45,2.87-3.01,9.18-6.51,13.04" id="Ske2eg33n53" kvg:type="㇒" transform="matrix(1,0,0,1,1396,-4)" xmlns:kvg="http://kanjivg.tagaini.net"></path><path class="stroke_order_diagram--current_path" d="M37.94,96.51c1.26,0.51,3.58,0.59,4.84,0.51c13.15-0.85,37.69-2.65,51.67-3c2.11-0.05,3.37,0.24,4.42,0.5" id="kvg:0564e-s15" kvg:type="㇐" transform="matrix(1,0,0,1,1396,-4)" xmlns:kvg="http://kanjivg.tagaini.net"></path><path class="stroke_order_diagram--current_path" d="M37.94,96.51c1.26,0.51,3.58,0.59,4.84,0.51c13.15-0.85,37.69-2.65,51.67-3c2.11-0.05,3.37,0.24,4.42,0.5" id="Ske2eg33n55" kvg:type="㇐" transform="matrix(1,0,0,1,1396,-4)" xmlns:kvg="http://kanjivg.tagaini.net"></path><circle class="stroke_order_diagram--path_start" cx="37.94" cy="96.51" r="4" transform="matrix(1,0,0,1,1396,-4)"></circle></svg>