<svg class="stroke_order_diagram--svg_container_for_51866276d5dda7965800013f" style="height: 100px; width: 1700px;" viewbox="0 0 1700 100"><desc>Created with Snap</desc><defs></defs><line class="stroke_order_diagram--bounding_box" x1="1" x2="1699" y1="1" y2="1"></line><line class="stroke_order_diagram--bounding_box" x1="1" x2="1" y1="1" y2="99"></line><line class="stroke_order_diagram--bounding_box" x1="1" x2="1699" y1="99" y2="99"></line><line class="stroke_order_diagram--guide_line" x1="0" x2="1700" y1="50" y2="50"></line><line class="stroke_order_diagram--guide_line" x1="50" x2="50" y1="1" y2="99"></line><line class="stroke_order_diagram--bounding_box" x1="99" x2="99" y1="1" y2="99"></line><path class="stroke_order_diagram--current_path" d="M11.5,35.18c1.03,1.03,1.25,2.32,1.43,3.8c0.56,4.5,0.92,11.88,1.31,18.51c0.12,2.03,0.24,3.98,0.36,5.77" id="kvg:05687-s1" kvg:type="㇑" transform="matrix(1,0,0,1,-4,-4)" xmlns:kvg="http://kanjivg.tagaini.net"></path><path class="stroke_order_diagram--current_path" d="M11.5,35.18c1.03,1.03,1.25,2.32,1.43,3.8c0.56,4.5,0.92,11.88,1.31,18.51c0.12,2.03,0.24,3.98,0.36,5.77" id="Ske1pr837q" kvg:type="㇑" transform="matrix(1,0,0,1,-4,-4)" xmlns:kvg="http://kanjivg.tagaini.net"></path><circle class="stroke_order_diagram--path_start" cx="11.5" cy="35.18" r="4" transform="matrix(1,0,0,1,-4,-4)"></circle><line class="stroke_order_diagram--guide_line" x1="150" x2="150" y1="1" y2="99"></line><line class="stroke_order_diagram--bounding_box" x1="199" x2="199" y1="1" y2="99"></line><path class="stroke_order_diagram--existing_path" d="M11.5,35.18c1.03,1.03,1.25,2.32,1.43,3.8c0.56,4.5,0.92,11.88,1.31,18.51c0.12,2.03,0.24,3.98,0.36,5.77" id="Ske1pr837t" kvg:type="㇑" transform="matrix(1,0,0,1,96,-4)" xmlns:kvg="http://kanjivg.tagaini.net"></path><path class="stroke_order_diagram--current_path" d="M13.8,36.48c4.03-0.77,6.7-1.23,10.22-1.75c3.12-0.46,5.17-1.18,4.71,2.9c-0.61,5.51-1.57,11.83-2.46,19.3" id="kvg:05687-s2" kvg:type="㇕b" transform="matrix(1,0,0,1,96,-4)" xmlns:kvg="http://kanjivg.tagaini.net"></path><path class="stroke_order_diagram--current_path" d="M13.8,36.48c4.03-0.77,6.7-1.23,10.22-1.75c3.12-0.46,5.17-1.18,4.71,2.9c-0.61,5.51-1.57,11.83-2.46,19.3" id="Ske1pr837v" kvg:type="㇕b" transform="matrix(1,0,0,1,96,-4)" xmlns:kvg="http://kanjivg.tagaini.net"></path><circle class="stroke_order_diagram--path_start" cx="13.8" cy="36.48" r="4" transform="matrix(1,0,0,1,96,-4)"></circle><line class="stroke_order_diagram--guide_line" x1="250" x2="250" y1="1" y2="99"></line><line class="stroke_order_diagram--bounding_box" x1="299" x2="299" y1="1" y2="99"></line><path class="stroke_order_diagram--existing_path" d="M11.5,35.18c1.03,1.03,1.25,2.32,1.43,3.8c0.56,4.5,0.92,11.88,1.31,18.51c0.12,2.03,0.24,3.98,0.36,5.77" id="Ske1pr837y" kvg:type="㇑" transform="matrix(1,0,0,1,196,-4)" xmlns:kvg="http://kanjivg.tagaini.net"></path><path class="stroke_order_diagram--existing_path" d="M13.8,36.48c4.03-0.77,6.7-1.23,10.22-1.75c3.12-0.46,5.17-1.18,4.71,2.9c-0.61,5.51-1.57,11.83-2.46,19.3" id="Ske1pr837z" kvg:type="㇕b" transform="matrix(1,0,0,1,196,-4)" xmlns:kvg="http://kanjivg.tagaini.net"></path><path class="stroke_order_diagram--current_path" d="M15.47,59.22c3.42-0.18,5.02-0.63,8.78-1.01c0.95-0.1,1.97-0.2,3.09-0.33" id="kvg:05687-s3" kvg:type="㇐b" transform="matrix(1,0,0,1,196,-4)" xmlns:kvg="http://kanjivg.tagaini.net"></path><path class="stroke_order_diagram--current_path" d="M15.47,59.22c3.42-0.18,5.02-0.63,8.78-1.01c0.95-0.1,1.97-0.2,3.09-0.33" id="Ske1pr83711" kvg:type="㇐b" transform="matrix(1,0,0,1,196,-4)" xmlns:kvg="http://kanjivg.tagaini.net"></path><circle class="stroke_order_diagram--path_start" cx="15.47" cy="59.22" r="4" transform="matrix(1,0,0,1,196,-4)"></circle><line class="stroke_order_diagram--guide_line" x1="350" x2="350" y1="1" y2="99"></line><line class="stroke_order_diagram--bounding_box" x1="399" x2="399" y1="1" y2="99"></line><path class="stroke_order_diagram--existing_path" d="M11.5,35.18c1.03,1.03,1.25,2.32,1.43,3.8c0.56,4.5,0.92,11.88,1.31,18.51c0.12,2.03,0.24,3.98,0.36,5.77" id="Ske1pr83714" kvg:type="㇑" transform="matrix(1,0,0,1,296,-4)" xmlns:kvg="http://kanjivg.tagaini.net"></path><path class="stroke_order_diagram--existing_path" d="M13.8,36.48c4.03-0.77,6.7-1.23,10.22-1.75c3.12-0.46,5.17-1.18,4.71,2.9c-0.61,5.51-1.57,11.83-2.46,19.3" id="Ske1pr83715" kvg:type="㇕b" transform="matrix(1,0,0,1,296,-4)" xmlns:kvg="http://kanjivg.tagaini.net"></path><path class="stroke_order_diagram--existing_path" d="M15.47,59.22c3.42-0.18,5.02-0.63,8.78-1.01c0.95-0.1,1.97-0.2,3.09-0.33" id="Ske1pr83716" kvg:type="㇐b" transform="matrix(1,0,0,1,296,-4)" xmlns:kvg="http://kanjivg.tagaini.net"></path><path class="stroke_order_diagram--current_path" d="M34,32.24c0.63,0.46,2.78,0.51,3.38,0.48c4.69-0.26,8.53-1.03,14.63-2.17c1.24-0.23,2.62-0.3,3.6,0.02" id="kvg:05687-s4" kvg:type="㇐" transform="matrix(1,0,0,1,296,-4)" xmlns:kvg="http://kanjivg.tagaini.net"></path><path class="stroke_order_diagram--current_path" d="M34,32.24c0.63,0.46,2.78,0.51,3.38,0.48c4.69-0.26,8.53-1.03,14.63-2.17c1.24-0.23,2.62-0.3,3.6,0.02" id="Ske1pr83718" kvg:type="㇐" transform="matrix(1,0,0,1,296,-4)" xmlns:kvg="http://kanjivg.tagaini.net"></path><circle class="stroke_order_diagram--path_start" cx="34" cy="32.24" r="4" transform="matrix(1,0,0,1,296,-4)"></circle><line class="stroke_order_diagram--guide_line" x1="450" x2="450" y1="1" y2="99"></line><line class="stroke_order_diagram--bounding_box" x1="499" x2="499" y1="1" y2="99"></line><path class="stroke_order_diagram--existing_path" d="M11.5,35.18c1.03,1.03,1.25,2.32,1.43,3.8c0.56,4.5,0.92,11.88,1.31,18.51c0.12,2.03,0.24,3.98,0.36,5.77" id="Ske1pr8371b" kvg:type="㇑" transform="matrix(1,0,0,1,396,-4)" xmlns:kvg="http://kanjivg.tagaini.net"></path><path class="stroke_order_diagram--existing_path" d="M13.8,36.48c4.03-0.77,6.7-1.23,10.22-1.75c3.12-0.46,5.17-1.18,4.71,2.9c-0.61,5.51-1.57,11.83-2.46,19.3" id="Ske1pr8371c" kvg:type="㇕b" transform="matrix(1,0,0,1,396,-4)" xmlns:kvg="http://kanjivg.tagaini.net"></path><path class="stroke_order_diagram--existing_path" d="M15.47,59.22c3.42-0.18,5.02-0.63,8.78-1.01c0.95-0.1,1.97-0.2,3.09-0.33" id="Ske1pr8371d" kvg:type="㇐b" transform="matrix(1,0,0,1,396,-4)" xmlns:kvg="http://kanjivg.tagaini.net"></path><path class="stroke_order_diagram--existing_path" d="M34,32.24c0.63,0.46,2.78,0.51,3.38,0.48c4.69-0.26,8.53-1.03,14.63-2.17c1.24-0.23,2.62-0.3,3.6,0.02" id="Ske1pr8371e" kvg:type="㇐" transform="matrix(1,0,0,1,396,-4)" xmlns:kvg="http://kanjivg.tagaini.net"></path><path class="stroke_order_diagram--current_path" d="M44.9,14.45c0.89,0.89,1.11,2.3,1.11,3.84c0,0.55,0,23.34,0,27.13" id="kvg:05687-s5" kvg:type="㇑a" transform="matrix(1,0,0,1,396,-4)" xmlns:kvg="http://kanjivg.tagaini.net"></path><path class="stroke_order_diagram--current_path" d="M44.9,14.45c0.89,0.89,1.11,2.3,1.11,3.84c0,0.55,0,23.34,0,27.13" id="Ske1pr8371g" kvg:type="㇑a" transform="matrix(1,0,0,1,396,-4)" xmlns:kvg="http://kanjivg.tagaini.net"></path><circle class="stroke_order_diagram--path_start" cx="44.9" cy="14.45" r="4" transform="matrix(1,0,0,1,396,-4)"></circle><line class="stroke_order_diagram--guide_line" x1="550" x2="550" y1="1" y2="99"></line><line class="stroke_order_diagram--bounding_box" x1="599" x2="599" y1="1" y2="99"></line><path class="stroke_order_diagram--existing_path" d="M11.5,35.18c1.03,1.03,1.25,2.32,1.43,3.8c0.56,4.5,0.92,11.88,1.31,18.51c0.12,2.03,0.24,3.98,0.36,5.77" id="Ske1pr8371j" kvg:type="㇑" transform="matrix(1,0,0,1,496,-4)" xmlns:kvg="http://kanjivg.tagaini.net"></path><path class="stroke_order_diagram--existing_path" d="M13.8,36.48c4.03-0.77,6.7-1.23,10.22-1.75c3.12-0.46,5.17-1.18,4.71,2.9c-0.61,5.51-1.57,11.83-2.46,19.3" id="Ske1pr8371k" kvg:type="㇕b" transform="matrix(1,0,0,1,496,-4)" xmlns:kvg="http://kanjivg.tagaini.net"></path><path class="stroke_order_diagram--existing_path" d="M15.47,59.22c3.42-0.18,5.02-0.63,8.78-1.01c0.95-0.1,1.97-0.2,3.09-0.33" id="Ske1pr8371l" kvg:type="㇐b" transform="matrix(1,0,0,1,496,-4)" xmlns:kvg="http://kanjivg.tagaini.net"></path><path class="stroke_order_diagram--existing_path" d="M34,32.24c0.63,0.46,2.78,0.51,3.38,0.48c4.69-0.26,8.53-1.03,14.63-2.17c1.24-0.23,2.62-0.3,3.6,0.02" id="Ske1pr8371m" kvg:type="㇐" transform="matrix(1,0,0,1,496,-4)" xmlns:kvg="http://kanjivg.tagaini.net"></path><path class="stroke_order_diagram--existing_path" d="M44.9,14.45c0.89,0.89,1.11,2.3,1.11,3.84c0,0.55,0,23.34,0,27.13" id="Ske1pr8371n" kvg:type="㇑a" transform="matrix(1,0,0,1,496,-4)" xmlns:kvg="http://kanjivg.tagaini.net"></path><path class="stroke_order_diagram--current_path" d="M32.44,47.64c1.26,0.85,4.06,0.39,5.41,0.19c5.18-0.76,11.29-1.76,18.03-2.66c1.47-0.2,2.55-0.46,3.92,0.1" id="kvg:05687-s6" kvg:type="㇐" transform="matrix(1,0,0,1,496,-4)" xmlns:kvg="http://kanjivg.tagaini.net"></path><path class="stroke_order_diagram--current_path" d="M32.44,47.64c1.26,0.85,4.06,0.39,5.41,0.19c5.18-0.76,11.29-1.76,18.03-2.66c1.47-0.2,2.55-0.46,3.92,0.1" id="Ske1pr8371p" kvg:type="㇐" transform="matrix(1,0,0,1,496,-4)" xmlns:kvg="http://kanjivg.tagaini.net"></path><circle class="stroke_order_diagram--path_start" cx="32.44" cy="47.64" r="4" transform="matrix(1,0,0,1,496,-4)"></circle><line class="stroke_order_diagram--guide_line" x1="650" x2="650" y1="1" y2="99"></line><line class="stroke_order_diagram--bounding_box" x1="699" x2="699" y1="1" y2="99"></line><path class="stroke_order_diagram--existing_path" d="M11.5,35.18c1.03,1.03,1.25,2.32,1.43,3.8c0.56,4.5,0.92,11.88,1.31,18.51c0.12,2.03,0.24,3.98,0.36,5.77" id="Ske1pr8371s" kvg:type="㇑" transform="matrix(1,0,0,1,596,-4)" xmlns:kvg="http://kanjivg.tagaini.net"></path><path class="stroke_order_diagram--existing_path" d="M13.8,36.48c4.03-0.77,6.7-1.23,10.22-1.75c3.12-0.46,5.17-1.18,4.71,2.9c-0.61,5.51-1.57,11.83-2.46,19.3" id="Ske1pr8371t" kvg:type="㇕b" transform="matrix(1,0,0,1,596,-4)" xmlns:kvg="http://kanjivg.tagaini.net"></path><path class="stroke_order_diagram--existing_path" d="M15.47,59.22c3.42-0.18,5.02-0.63,8.78-1.01c0.95-0.1,1.97-0.2,3.09-0.33" id="Ske1pr8371u" kvg:type="㇐b" transform="matrix(1,0,0,1,596,-4)" xmlns:kvg="http://kanjivg.tagaini.net"></path><path class="stroke_order_diagram--existing_path" d="M34,32.24c0.63,0.46,2.78,0.51,3.38,0.48c4.69-0.26,8.53-1.03,14.63-2.17c1.24-0.23,2.62-0.3,3.6,0.02" id="Ske1pr8371v" kvg:type="㇐" transform="matrix(1,0,0,1,596,-4)" xmlns:kvg="http://kanjivg.tagaini.net"></path><path class="stroke_order_diagram--existing_path" d="M44.9,14.45c0.89,0.89,1.11,2.3,1.11,3.84c0,0.55,0,23.34,0,27.13" id="Ske1pr8371w" kvg:type="㇑a" transform="matrix(1,0,0,1,596,-4)" xmlns:kvg="http://kanjivg.tagaini.net"></path><path class="stroke_order_diagram--existing_path" d="M32.44,47.64c1.26,0.85,4.06,0.39,5.41,0.19c5.18-0.76,11.29-1.76,18.03-2.66c1.47-0.2,2.55-0.46,3.92,0.1" id="Ske1pr8371x" kvg:type="㇐" transform="matrix(1,0,0,1,596,-4)" xmlns:kvg="http://kanjivg.tagaini.net"></path><path class="stroke_order_diagram--current_path" d="M39.76,50c0.87,0.87,1.14,2.41,1.14,3.89c-0.02,22.61-1.65,29.49-9.65,39.36" id="kvg:05687-s7" kvg:type="㇒" transform="matrix(1,0,0,1,596,-4)" xmlns:kvg="http://kanjivg.tagaini.net"></path><path class="stroke_order_diagram--current_path" d="M39.76,50c0.87,0.87,1.14,2.41,1.14,3.89c-0.02,22.61-1.65,29.49-9.65,39.36" id="Ske1pr8371z" kvg:type="㇒" transform="matrix(1,0,0,1,596,-4)" xmlns:kvg="http://kanjivg.tagaini.net"></path><circle class="stroke_order_diagram--path_start" cx="39.76" cy="50" r="4" transform="matrix(1,0,0,1,596,-4)"></circle><line class="stroke_order_diagram--guide_line" x1="750" x2="750" y1="1" y2="99"></line><line class="stroke_order_diagram--bounding_box" x1="799" x2="799" y1="1" y2="99"></line><path class="stroke_order_diagram--existing_path" d="M11.5,35.18c1.03,1.03,1.25,2.32,1.43,3.8c0.56,4.5,0.92,11.88,1.31,18.51c0.12,2.03,0.24,3.98,0.36,5.77" id="Ske1pr83722" kvg:type="㇑" transform="matrix(1,0,0,1,696,-4)" xmlns:kvg="http://kanjivg.tagaini.net"></path><path class="stroke_order_diagram--existing_path" d="M13.8,36.48c4.03-0.77,6.7-1.23,10.22-1.75c3.12-0.46,5.17-1.18,4.71,2.9c-0.61,5.51-1.57,11.83-2.46,19.3" id="Ske1pr83723" kvg:type="㇕b" transform="matrix(1,0,0,1,696,-4)" xmlns:kvg="http://kanjivg.tagaini.net"></path><path class="stroke_order_diagram--existing_path" d="M15.47,59.22c3.42-0.18,5.02-0.63,8.78-1.01c0.95-0.1,1.97-0.2,3.09-0.33" id="Ske1pr83724" kvg:type="㇐b" transform="matrix(1,0,0,1,696,-4)" xmlns:kvg="http://kanjivg.tagaini.net"></path><path class="stroke_order_diagram--existing_path" d="M34,32.24c0.63,0.46,2.78,0.51,3.38,0.48c4.69-0.26,8.53-1.03,14.63-2.17c1.24-0.23,2.62-0.3,3.6,0.02" id="Ske1pr83725" kvg:type="㇐" transform="matrix(1,0,0,1,696,-4)" xmlns:kvg="http://kanjivg.tagaini.net"></path><path class="stroke_order_diagram--existing_path" d="M44.9,14.45c0.89,0.89,1.11,2.3,1.11,3.84c0,0.55,0,23.34,0,27.13" id="Ske1pr83726" kvg:type="㇑a" transform="matrix(1,0,0,1,696,-4)" xmlns:kvg="http://kanjivg.tagaini.net"></path><path class="stroke_order_diagram--existing_path" d="M32.44,47.64c1.26,0.85,4.06,0.39,5.41,0.19c5.18-0.76,11.29-1.76,18.03-2.66c1.47-0.2,2.55-0.46,3.92,0.1" id="Ske1pr83727" kvg:type="㇐" transform="matrix(1,0,0,1,696,-4)" xmlns:kvg="http://kanjivg.tagaini.net"></path><path class="stroke_order_diagram--existing_path" d="M39.76,50c0.87,0.87,1.14,2.41,1.14,3.89c-0.02,22.61-1.65,29.49-9.65,39.36" id="Ske1pr83728" kvg:type="㇒" transform="matrix(1,0,0,1,696,-4)" xmlns:kvg="http://kanjivg.tagaini.net"></path><path class="stroke_order_diagram--current_path" d="M49.13,48.66c0.73,0.73,1.1,2.24,1.1,4.1s0.02,26.86,0.02,33.74c0,9.38-3.88,3.75-5.71,1.78" id="kvg:05687-s8" kvg:type="㇚" transform="matrix(1,0,0,1,696,-4)" xmlns:kvg="http://kanjivg.tagaini.net"></path><path class="stroke_order_diagram--current_path" d="M49.13,48.66c0.73,0.73,1.1,2.24,1.1,4.1s0.02,26.86,0.02,33.74c0,9.38-3.88,3.75-5.71,1.78" id="Ske1pr8372a" kvg:type="㇚" transform="matrix(1,0,0,1,696,-4)" xmlns:kvg="http://kanjivg.tagaini.net"></path><circle class="stroke_order_diagram--path_start" cx="49.13" cy="48.66" r="4" transform="matrix(1,0,0,1,696,-4)"></circle><line class="stroke_order_diagram--guide_line" x1="850" x2="850" y1="1" y2="99"></line><line class="stroke_order_diagram--bounding_box" x1="899" x2="899" y1="1" y2="99"></line><path class="stroke_order_diagram--existing_path" d="M11.5,35.18c1.03,1.03,1.25,2.32,1.43,3.8c0.56,4.5,0.92,11.88,1.31,18.51c0.12,2.03,0.24,3.98,0.36,5.77" id="Ske1pr8372d" kvg:type="㇑" transform="matrix(1,0,0,1,796,-4)" xmlns:kvg="http://kanjivg.tagaini.net"></path><path class="stroke_order_diagram--existing_path" d="M13.8,36.48c4.03-0.77,6.7-1.23,10.22-1.75c3.12-0.46,5.17-1.18,4.71,2.9c-0.61,5.51-1.57,11.83-2.46,19.3" id="Ske1pr8372e" kvg:type="㇕b" transform="matrix(1,0,0,1,796,-4)" xmlns:kvg="http://kanjivg.tagaini.net"></path><path class="stroke_order_diagram--existing_path" d="M15.47,59.22c3.42-0.18,5.02-0.63,8.78-1.01c0.95-0.1,1.97-0.2,3.09-0.33" id="Ske1pr8372f" kvg:type="㇐b" transform="matrix(1,0,0,1,796,-4)" xmlns:kvg="http://kanjivg.tagaini.net"></path><path class="stroke_order_diagram--existing_path" d="M34,32.24c0.63,0.46,2.78,0.51,3.38,0.48c4.69-0.26,8.53-1.03,14.63-2.17c1.24-0.23,2.62-0.3,3.6,0.02" id="Ske1pr8372g" kvg:type="㇐" transform="matrix(1,0,0,1,796,-4)" xmlns:kvg="http://kanjivg.tagaini.net"></path><path class="stroke_order_diagram--existing_path" d="M44.9,14.45c0.89,0.89,1.11,2.3,1.11,3.84c0,0.55,0,23.34,0,27.13" id="Ske1pr8372h" kvg:type="㇑a" transform="matrix(1,0,0,1,796,-4)" xmlns:kvg="http://kanjivg.tagaini.net"></path><path class="stroke_order_diagram--existing_path" d="M32.44,47.64c1.26,0.85,4.06,0.39,5.41,0.19c5.18-0.76,11.29-1.76,18.03-2.66c1.47-0.2,2.55-0.46,3.92,0.1" id="Ske1pr8372i" kvg:type="㇐" transform="matrix(1,0,0,1,796,-4)" xmlns:kvg="http://kanjivg.tagaini.net"></path><path class="stroke_order_diagram--existing_path" d="M39.76,50c0.87,0.87,1.14,2.41,1.14,3.89c-0.02,22.61-1.65,29.49-9.65,39.36" id="Ske1pr8372j" kvg:type="㇒" transform="matrix(1,0,0,1,796,-4)" xmlns:kvg="http://kanjivg.tagaini.net"></path><path class="stroke_order_diagram--existing_path" d="M49.13,48.66c0.73,0.73,1.1,2.24,1.1,4.1s0.02,26.86,0.02,33.74c0,9.38-3.88,3.75-5.71,1.78" id="Ske1pr8372k" kvg:type="㇚" transform="matrix(1,0,0,1,796,-4)" xmlns:kvg="http://kanjivg.tagaini.net"></path><path class="stroke_order_diagram--current_path" d="M33.35,56.36c0.02,0.55,0.04,1.41-0.04,2.19c-0.46,4.62-2.68,12.58-6.06,20.2" id="kvg:05687-s9" kvg:type="㇒" transform="matrix(1,0,0,1,796,-4)" xmlns:kvg="http://kanjivg.tagaini.net"></path><path class="stroke_order_diagram--current_path" d="M33.35,56.36c0.02,0.55,0.04,1.41-0.04,2.19c-0.46,4.62-2.68,12.58-6.06,20.2" id="Ske1pr8372m" kvg:type="㇒" transform="matrix(1,0,0,1,796,-4)" xmlns:kvg="http://kanjivg.tagaini.net"></path><circle class="stroke_order_diagram--path_start" cx="33.35" cy="56.36" r="4" transform="matrix(1,0,0,1,796,-4)"></circle><line class="stroke_order_diagram--guide_line" x1="950" x2="950" y1="1" y2="99"></line><line class="stroke_order_diagram--bounding_box" x1="999" x2="999" y1="1" y2="99"></line><path class="stroke_order_diagram--existing_path" d="M11.5,35.18c1.03,1.03,1.25,2.32,1.43,3.8c0.56,4.5,0.92,11.88,1.31,18.51c0.12,2.03,0.24,3.98,0.36,5.77" id="Ske1pr8372p" kvg:type="㇑" transform="matrix(1,0,0,1,896,-4)" xmlns:kvg="http://kanjivg.tagaini.net"></path><path class="stroke_order_diagram--existing_path" d="M13.8,36.48c4.03-0.77,6.7-1.23,10.22-1.75c3.12-0.46,5.17-1.18,4.71,2.9c-0.61,5.51-1.57,11.83-2.46,19.3" id="Ske1pr8372q" kvg:type="㇕b" transform="matrix(1,0,0,1,896,-4)" xmlns:kvg="http://kanjivg.tagaini.net"></path><path class="stroke_order_diagram--existing_path" d="M15.47,59.22c3.42-0.18,5.02-0.63,8.78-1.01c0.95-0.1,1.97-0.2,3.09-0.33" id="Ske1pr8372r" kvg:type="㇐b" transform="matrix(1,0,0,1,896,-4)" xmlns:kvg="http://kanjivg.tagaini.net"></path><path class="stroke_order_diagram--existing_path" d="M34,32.24c0.63,0.46,2.78,0.51,3.38,0.48c4.69-0.26,8.53-1.03,14.63-2.17c1.24-0.23,2.62-0.3,3.6,0.02" id="Ske1pr8372s" kvg:type="㇐" transform="matrix(1,0,0,1,896,-4)" xmlns:kvg="http://kanjivg.tagaini.net"></path><path class="stroke_order_diagram--existing_path" d="M44.9,14.45c0.89,0.89,1.11,2.3,1.11,3.84c0,0.55,0,23.34,0,27.13" id="Ske1pr8372t" kvg:type="㇑a" transform="matrix(1,0,0,1,896,-4)" xmlns:kvg="http://kanjivg.tagaini.net"></path><path class="stroke_order_diagram--existing_path" d="M32.44,47.64c1.26,0.85,4.06,0.39,5.41,0.19c5.18-0.76,11.29-1.76,18.03-2.66c1.47-0.2,2.55-0.46,3.92,0.1" id="Ske1pr8372u" kvg:type="㇐" transform="matrix(1,0,0,1,896,-4)" xmlns:kvg="http://kanjivg.tagaini.net"></path><path class="stroke_order_diagram--existing_path" d="M39.76,50c0.87,0.87,1.14,2.41,1.14,3.89c-0.02,22.61-1.65,29.49-9.65,39.36" id="Ske1pr8372v" kvg:type="㇒" transform="matrix(1,0,0,1,896,-4)" xmlns:kvg="http://kanjivg.tagaini.net"></path><path class="stroke_order_diagram--existing_path" d="M49.13,48.66c0.73,0.73,1.1,2.24,1.1,4.1s0.02,26.86,0.02,33.74c0,9.38-3.88,3.75-5.71,1.78" id="Ske1pr8372w" kvg:type="㇚" transform="matrix(1,0,0,1,896,-4)" xmlns:kvg="http://kanjivg.tagaini.net"></path><path class="stroke_order_diagram--existing_path" d="M33.35,56.36c0.02,0.55,0.04,1.41-0.04,2.19c-0.46,4.62-2.68,12.58-6.06,20.2" id="Ske1pr8372x" kvg:type="㇒" transform="matrix(1,0,0,1,896,-4)" xmlns:kvg="http://kanjivg.tagaini.net"></path><path class="stroke_order_diagram--current_path" d="M55.48,58c1.08,1.94,2.78,7.98,3.05,11" id="kvg:05687-s10" kvg:type="㇔" transform="matrix(1,0,0,1,896,-4)" xmlns:kvg="http://kanjivg.tagaini.net"></path><path class="stroke_order_diagram--current_path" d="M55.48,58c1.08,1.94,2.78,7.98,3.05,11" id="Ske1pr8372z" kvg:type="㇔" transform="matrix(1,0,0,1,896,-4)" xmlns:kvg="http://kanjivg.tagaini.net"></path><circle class="stroke_order_diagram--path_start" cx="55.48" cy="58" r="4" transform="matrix(1,0,0,1,896,-4)"></circle><line class="stroke_order_diagram--guide_line" x1="1050" x2="1050" y1="1" y2="99"></line><line class="stroke_order_diagram--bounding_box" x1="1099" x2="1099" y1="1" y2="99"></line><path class="stroke_order_diagram--existing_path" d="M11.5,35.18c1.03,1.03,1.25,2.32,1.43,3.8c0.56,4.5,0.92,11.88,1.31,18.51c0.12,2.03,0.24,3.98,0.36,5.77" id="Ske1pr83732" kvg:type="㇑" transform="matrix(1,0,0,1,996,-4)" xmlns:kvg="http://kanjivg.tagaini.net"></path><path class="stroke_order_diagram--existing_path" d="M13.8,36.48c4.03-0.77,6.7-1.23,10.22-1.75c3.12-0.46,5.17-1.18,4.71,2.9c-0.61,5.51-1.57,11.83-2.46,19.3" id="Ske1pr83733" kvg:type="㇕b" transform="matrix(1,0,0,1,996,-4)" xmlns:kvg="http://kanjivg.tagaini.net"></path><path class="stroke_order_diagram--existing_path" d="M15.47,59.22c3.42-0.18,5.02-0.63,8.78-1.01c0.95-0.1,1.97-0.2,3.09-0.33" id="Ske1pr83734" kvg:type="㇐b" transform="matrix(1,0,0,1,996,-4)" xmlns:kvg="http://kanjivg.tagaini.net"></path><path class="stroke_order_diagram--existing_path" d="M34,32.24c0.63,0.46,2.78,0.51,3.38,0.48c4.69-0.26,8.53-1.03,14.63-2.17c1.24-0.23,2.62-0.3,3.6,0.02" id="Ske1pr83735" kvg:type="㇐" transform="matrix(1,0,0,1,996,-4)" xmlns:kvg="http://kanjivg.tagaini.net"></path><path class="stroke_order_diagram--existing_path" d="M44.9,14.45c0.89,0.89,1.11,2.3,1.11,3.84c0,0.55,0,23.34,0,27.13" id="Ske1pr83736" kvg:type="㇑a" transform="matrix(1,0,0,1,996,-4)" xmlns:kvg="http://kanjivg.tagaini.net"></path><path class="stroke_order_diagram--existing_path" d="M32.44,47.64c1.26,0.85,4.06,0.39,5.41,0.19c5.18-0.76,11.29-1.76,18.03-2.66c1.47-0.2,2.55-0.46,3.92,0.1" id="Ske1pr83737" kvg:type="㇐" transform="matrix(1,0,0,1,996,-4)" xmlns:kvg="http://kanjivg.tagaini.net"></path><path class="stroke_order_diagram--existing_path" d="M39.76,50c0.87,0.87,1.14,2.41,1.14,3.89c-0.02,22.61-1.65,29.49-9.65,39.36" id="Ske1pr83738" kvg:type="㇒" transform="matrix(1,0,0,1,996,-4)" xmlns:kvg="http://kanjivg.tagaini.net"></path><path class="stroke_order_diagram--existing_path" d="M49.13,48.66c0.73,0.73,1.1,2.24,1.1,4.1s0.02,26.86,0.02,33.74c0,9.38-3.88,3.75-5.71,1.78" id="Ske1pr83739" kvg:type="㇚" transform="matrix(1,0,0,1,996,-4)" xmlns:kvg="http://kanjivg.tagaini.net"></path><path class="stroke_order_diagram--existing_path" d="M33.35,56.36c0.02,0.55,0.04,1.41-0.04,2.19c-0.46,4.62-2.68,12.58-6.06,20.2" id="Ske1pr8373a" kvg:type="㇒" transform="matrix(1,0,0,1,996,-4)" xmlns:kvg="http://kanjivg.tagaini.net"></path><path class="stroke_order_diagram--existing_path" d="M55.48,58c1.08,1.94,2.78,7.98,3.05,11" id="Ske1pr8373b" kvg:type="㇔" transform="matrix(1,0,0,1,996,-4)" xmlns:kvg="http://kanjivg.tagaini.net"></path><path class="stroke_order_diagram--current_path" d="M65.66,28.74c0.88,0.62,3.1,0.49,4.09,0.41c5.18-0.43,11.19-0.93,17.37-2.03c1.43-0.26,2.75-0.37,4.08-0.05" id="kvg:05687-s11" kvg:type="㇐" transform="matrix(1,0,0,1,996,-4)" xmlns:kvg="http://kanjivg.tagaini.net"></path><path class="stroke_order_diagram--current_path" d="M65.66,28.74c0.88,0.62,3.1,0.49,4.09,0.41c5.18-0.43,11.19-0.93,17.37-2.03c1.43-0.26,2.75-0.37,4.08-0.05" id="Ske1pr8373d" kvg:type="㇐" transform="matrix(1,0,0,1,996,-4)" xmlns:kvg="http://kanjivg.tagaini.net"></path><circle class="stroke_order_diagram--path_start" cx="65.66" cy="28.74" r="4" transform="matrix(1,0,0,1,996,-4)"></circle><line class="stroke_order_diagram--guide_line" x1="1150" x2="1150" y1="1" y2="99"></line><line class="stroke_order_diagram--bounding_box" x1="1199" x2="1199" y1="1" y2="99"></line><path class="stroke_order_diagram--existing_path" d="M11.5,35.18c1.03,1.03,1.25,2.32,1.43,3.8c0.56,4.5,0.92,11.88,1.31,18.51c0.12,2.03,0.24,3.98,0.36,5.77" id="Ske1pr8373g" kvg:type="㇑" transform="matrix(1,0,0,1,1096,-4)" xmlns:kvg="http://kanjivg.tagaini.net"></path><path class="stroke_order_diagram--existing_path" d="M13.8,36.48c4.03-0.77,6.7-1.23,10.22-1.75c3.12-0.46,5.17-1.18,4.71,2.9c-0.61,5.51-1.57,11.83-2.46,19.3" id="Ske1pr8373h" kvg:type="㇕b" transform="matrix(1,0,0,1,1096,-4)" xmlns:kvg="http://kanjivg.tagaini.net"></path><path class="stroke_order_diagram--existing_path" d="M15.47,59.22c3.42-0.18,5.02-0.63,8.78-1.01c0.95-0.1,1.97-0.2,3.09-0.33" id="Ske1pr8373i" kvg:type="㇐b" transform="matrix(1,0,0,1,1096,-4)" xmlns:kvg="http://kanjivg.tagaini.net"></path><path class="stroke_order_diagram--existing_path" d="M34,32.24c0.63,0.46,2.78,0.51,3.38,0.48c4.69-0.26,8.53-1.03,14.63-2.17c1.24-0.23,2.62-0.3,3.6,0.02" id="Ske1pr8373j" kvg:type="㇐" transform="matrix(1,0,0,1,1096,-4)" xmlns:kvg="http://kanjivg.tagaini.net"></path><path class="stroke_order_diagram--existing_path" d="M44.9,14.45c0.89,0.89,1.11,2.3,1.11,3.84c0,0.55,0,23.34,0,27.13" id="Ske1pr8373k" kvg:type="㇑a" transform="matrix(1,0,0,1,1096,-4)" xmlns:kvg="http://kanjivg.tagaini.net"></path><path class="stroke_order_diagram--existing_path" d="M32.44,47.64c1.26,0.85,4.06,0.39,5.41,0.19c5.18-0.76,11.29-1.76,18.03-2.66c1.47-0.2,2.55-0.46,3.92,0.1" id="Ske1pr8373l" kvg:type="㇐" transform="matrix(1,0,0,1,1096,-4)" xmlns:kvg="http://kanjivg.tagaini.net"></path><path class="stroke_order_diagram--existing_path" d="M39.76,50c0.87,0.87,1.14,2.41,1.14,3.89c-0.02,22.61-1.65,29.49-9.65,39.36" id="Ske1pr8373m" kvg:type="㇒" transform="matrix(1,0,0,1,1096,-4)" xmlns:kvg="http://kanjivg.tagaini.net"></path><path class="stroke_order_diagram--existing_path" d="M49.13,48.66c0.73,0.73,1.1,2.24,1.1,4.1s0.02,26.86,0.02,33.74c0,9.38-3.88,3.75-5.71,1.78" id="Ske1pr8373n" kvg:type="㇚" transform="matrix(1,0,0,1,1096,-4)" xmlns:kvg="http://kanjivg.tagaini.net"></path><path class="stroke_order_diagram--existing_path" d="M33.35,56.36c0.02,0.55,0.04,1.41-0.04,2.19c-0.46,4.62-2.68,12.58-6.06,20.2" id="Ske1pr8373o" kvg:type="㇒" transform="matrix(1,0,0,1,1096,-4)" xmlns:kvg="http://kanjivg.tagaini.net"></path><path class="stroke_order_diagram--existing_path" d="M55.48,58c1.08,1.94,2.78,7.98,3.05,11" id="Ske1pr8373p" kvg:type="㇔" transform="matrix(1,0,0,1,1096,-4)" xmlns:kvg="http://kanjivg.tagaini.net"></path><path class="stroke_order_diagram--existing_path" d="M65.66,28.74c0.88,0.62,3.1,0.49,4.09,0.41c5.18-0.43,11.19-0.93,17.37-2.03c1.43-0.26,2.75-0.37,4.08-0.05" id="Ske1pr8373q" kvg:type="㇐" transform="matrix(1,0,0,1,1096,-4)" xmlns:kvg="http://kanjivg.tagaini.net"></path><path class="stroke_order_diagram--current_path" d="M77.02,13.7c1.08,1.08,1.47,2.55,1.47,4.24s-0.05,19.16-0.11,22.56" id="kvg:05687-s12" kvg:type="㇑a" transform="matrix(1,0,0,1,1096,-4)" xmlns:kvg="http://kanjivg.tagaini.net"></path><path class="stroke_order_diagram--current_path" d="M77.02,13.7c1.08,1.08,1.47,2.55,1.47,4.24s-0.05,19.16-0.11,22.56" id="Ske1pr8373s" kvg:type="㇑a" transform="matrix(1,0,0,1,1096,-4)" xmlns:kvg="http://kanjivg.tagaini.net"></path><circle class="stroke_order_diagram--path_start" cx="77.02" cy="13.7" r="4" transform="matrix(1,0,0,1,1096,-4)"></circle><line class="stroke_order_diagram--guide_line" x1="1250" x2="1250" y1="1" y2="99"></line><line class="stroke_order_diagram--bounding_box" x1="1299" x2="1299" y1="1" y2="99"></line><path class="stroke_order_diagram--existing_path" d="M11.5,35.18c1.03,1.03,1.25,2.32,1.43,3.8c0.56,4.5,0.92,11.88,1.31,18.51c0.12,2.03,0.24,3.98,0.36,5.77" id="Ske1pr8373v" kvg:type="㇑" transform="matrix(1,0,0,1,1196,-4)" xmlns:kvg="http://kanjivg.tagaini.net"></path><path class="stroke_order_diagram--existing_path" d="M13.8,36.48c4.03-0.77,6.7-1.23,10.22-1.75c3.12-0.46,5.17-1.18,4.71,2.9c-0.61,5.51-1.57,11.83-2.46,19.3" id="Ske1pr8373w" kvg:type="㇕b" transform="matrix(1,0,0,1,1196,-4)" xmlns:kvg="http://kanjivg.tagaini.net"></path><path class="stroke_order_diagram--existing_path" d="M15.47,59.22c3.42-0.18,5.02-0.63,8.78-1.01c0.95-0.1,1.97-0.2,3.09-0.33" id="Ske1pr8373x" kvg:type="㇐b" transform="matrix(1,0,0,1,1196,-4)" xmlns:kvg="http://kanjivg.tagaini.net"></path><path class="stroke_order_diagram--existing_path" d="M34,32.24c0.63,0.46,2.78,0.51,3.38,0.48c4.69-0.26,8.53-1.03,14.63-2.17c1.24-0.23,2.62-0.3,3.6,0.02" id="Ske1pr8373y" kvg:type="㇐" transform="matrix(1,0,0,1,1196,-4)" xmlns:kvg="http://kanjivg.tagaini.net"></path><path class="stroke_order_diagram--existing_path" d="M44.9,14.45c0.89,0.89,1.11,2.3,1.11,3.84c0,0.55,0,23.34,0,27.13" id="Ske1pr8373z" kvg:type="㇑a" transform="matrix(1,0,0,1,1196,-4)" xmlns:kvg="http://kanjivg.tagaini.net"></path><path class="stroke_order_diagram--existing_path" d="M32.44,47.64c1.26,0.85,4.06,0.39,5.41,0.19c5.18-0.76,11.29-1.76,18.03-2.66c1.47-0.2,2.55-0.46,3.92,0.1" id="Ske1pr83740" kvg:type="㇐" transform="matrix(1,0,0,1,1196,-4)" xmlns:kvg="http://kanjivg.tagaini.net"></path><path class="stroke_order_diagram--existing_path" d="M39.76,50c0.87,0.87,1.14,2.41,1.14,3.89c-0.02,22.61-1.65,29.49-9.65,39.36" id="Ske1pr83741" kvg:type="㇒" transform="matrix(1,0,0,1,1196,-4)" xmlns:kvg="http://kanjivg.tagaini.net"></path><path class="stroke_order_diagram--existing_path" d="M49.13,48.66c0.73,0.73,1.1,2.24,1.1,4.1s0.02,26.86,0.02,33.74c0,9.38-3.88,3.75-5.71,1.78" id="Ske1pr83742" kvg:type="㇚" transform="matrix(1,0,0,1,1196,-4)" xmlns:kvg="http://kanjivg.tagaini.net"></path><path class="stroke_order_diagram--existing_path" d="M33.35,56.36c0.02,0.55,0.04,1.41-0.04,2.19c-0.46,4.62-2.68,12.58-6.06,20.2" id="Ske1pr83743" kvg:type="㇒" transform="matrix(1,0,0,1,1196,-4)" xmlns:kvg="http://kanjivg.tagaini.net"></path><path class="stroke_order_diagram--existing_path" d="M55.48,58c1.08,1.94,2.78,7.98,3.05,11" id="Ske1pr83744" kvg:type="㇔" transform="matrix(1,0,0,1,1196,-4)" xmlns:kvg="http://kanjivg.tagaini.net"></path><path class="stroke_order_diagram--existing_path" d="M65.66,28.74c0.88,0.62,3.1,0.49,4.09,0.41c5.18-0.43,11.19-0.93,17.37-2.03c1.43-0.26,2.75-0.37,4.08-0.05" id="Ske1pr83745" kvg:type="㇐" transform="matrix(1,0,0,1,1196,-4)" xmlns:kvg="http://kanjivg.tagaini.net"></path><path class="stroke_order_diagram--existing_path" d="M77.02,13.7c1.08,1.08,1.47,2.55,1.47,4.24s-0.05,19.16-0.11,22.56" id="Ske1pr83746" kvg:type="㇑a" transform="matrix(1,0,0,1,1196,-4)" xmlns:kvg="http://kanjivg.tagaini.net"></path><path class="stroke_order_diagram--current_path" d="M62.77,42.89c1.86,0.49,4.12,0.39,5.5,0.21c6.65-0.88,17.61-2,25.24-2.91c1.46-0.17,2.79-0.23,4.2,0.33" id="kvg:05687-s13" kvg:type="㇐" transform="matrix(1,0,0,1,1196,-4)" xmlns:kvg="http://kanjivg.tagaini.net"></path><path class="stroke_order_diagram--current_path" d="M62.77,42.89c1.86,0.49,4.12,0.39,5.5,0.21c6.65-0.88,17.61-2,25.24-2.91c1.46-0.17,2.79-0.23,4.2,0.33" id="Ske1pr83748" kvg:type="㇐" transform="matrix(1,0,0,1,1196,-4)" xmlns:kvg="http://kanjivg.tagaini.net"></path><circle class="stroke_order_diagram--path_start" cx="62.77" cy="42.89" r="4" transform="matrix(1,0,0,1,1196,-4)"></circle><line class="stroke_order_diagram--guide_line" x1="1350" x2="1350" y1="1" y2="99"></line><line class="stroke_order_diagram--bounding_box" x1="1399" x2="1399" y1="1" y2="99"></line><path class="stroke_order_diagram--existing_path" d="M11.5,35.18c1.03,1.03,1.25,2.32,1.43,3.8c0.56,4.5,0.92,11.88,1.31,18.51c0.12,2.03,0.24,3.98,0.36,5.77" id="Ske1pr8374b" kvg:type="㇑" transform="matrix(1,0,0,1,1296,-4)" xmlns:kvg="http://kanjivg.tagaini.net"></path><path class="stroke_order_diagram--existing_path" d="M13.8,36.48c4.03-0.77,6.7-1.23,10.22-1.75c3.12-0.46,5.17-1.18,4.71,2.9c-0.61,5.51-1.57,11.83-2.46,19.3" id="Ske1pr8374c" kvg:type="㇕b" transform="matrix(1,0,0,1,1296,-4)" xmlns:kvg="http://kanjivg.tagaini.net"></path><path class="stroke_order_diagram--existing_path" d="M15.47,59.22c3.42-0.18,5.02-0.63,8.78-1.01c0.95-0.1,1.97-0.2,3.09-0.33" id="Ske1pr8374d" kvg:type="㇐b" transform="matrix(1,0,0,1,1296,-4)" xmlns:kvg="http://kanjivg.tagaini.net"></path><path class="stroke_order_diagram--existing_path" d="M34,32.24c0.63,0.46,2.78,0.51,3.38,0.48c4.69-0.26,8.53-1.03,14.63-2.17c1.24-0.23,2.62-0.3,3.6,0.02" id="Ske1pr8374e" kvg:type="㇐" transform="matrix(1,0,0,1,1296,-4)" xmlns:kvg="http://kanjivg.tagaini.net"></path><path class="stroke_order_diagram--existing_path" d="M44.9,14.45c0.89,0.89,1.11,2.3,1.11,3.84c0,0.55,0,23.34,0,27.13" id="Ske1pr8374f" kvg:type="㇑a" transform="matrix(1,0,0,1,1296,-4)" xmlns:kvg="http://kanjivg.tagaini.net"></path><path class="stroke_order_diagram--existing_path" d="M32.44,47.64c1.26,0.85,4.06,0.39,5.41,0.19c5.18-0.76,11.29-1.76,18.03-2.66c1.47-0.2,2.55-0.46,3.92,0.1" id="Ske1pr8374g" kvg:type="㇐" transform="matrix(1,0,0,1,1296,-4)" xmlns:kvg="http://kanjivg.tagaini.net"></path><path class="stroke_order_diagram--existing_path" d="M39.76,50c0.87,0.87,1.14,2.41,1.14,3.89c-0.02,22.61-1.65,29.49-9.65,39.36" id="Ske1pr8374h" kvg:type="㇒" transform="matrix(1,0,0,1,1296,-4)" xmlns:kvg="http://kanjivg.tagaini.net"></path><path class="stroke_order_diagram--existing_path" d="M49.13,48.66c0.73,0.73,1.1,2.24,1.1,4.1s0.02,26.86,0.02,33.74c0,9.38-3.88,3.75-5.71,1.78" id="Ske1pr8374i" kvg:type="㇚" transform="matrix(1,0,0,1,1296,-4)" xmlns:kvg="http://kanjivg.tagaini.net"></path><path class="stroke_order_diagram--existing_path" d="M33.35,56.36c0.02,0.55,0.04,1.41-0.04,2.19c-0.46,4.62-2.68,12.58-6.06,20.2" id="Ske1pr8374j" kvg:type="㇒" transform="matrix(1,0,0,1,1296,-4)" xmlns:kvg="http://kanjivg.tagaini.net"></path><path class="stroke_order_diagram--existing_path" d="M55.48,58c1.08,1.94,2.78,7.98,3.05,11" id="Ske1pr8374k" kvg:type="㇔" transform="matrix(1,0,0,1,1296,-4)" xmlns:kvg="http://kanjivg.tagaini.net"></path><path class="stroke_order_diagram--existing_path" d="M65.66,28.74c0.88,0.62,3.1,0.49,4.09,0.41c5.18-0.43,11.19-0.93,17.37-2.03c1.43-0.26,2.75-0.37,4.08-0.05" id="Ske1pr8374l" kvg:type="㇐" transform="matrix(1,0,0,1,1296,-4)" xmlns:kvg="http://kanjivg.tagaini.net"></path><path class="stroke_order_diagram--existing_path" d="M77.02,13.7c1.08,1.08,1.47,2.55,1.47,4.24s-0.05,19.16-0.11,22.56" id="Ske1pr8374m" kvg:type="㇑a" transform="matrix(1,0,0,1,1296,-4)" xmlns:kvg="http://kanjivg.tagaini.net"></path><path class="stroke_order_diagram--existing_path" d="M62.77,42.89c1.86,0.49,4.12,0.39,5.5,0.21c6.65-0.88,17.61-2,25.24-2.91c1.46-0.17,2.79-0.23,4.2,0.33" id="Ske1pr8374n" kvg:type="㇐" transform="matrix(1,0,0,1,1296,-4)" xmlns:kvg="http://kanjivg.tagaini.net"></path><path class="stroke_order_diagram--current_path" d="M72.06,45.86c0.68,1.03,1.14,2.8,1.11,4.53C72.85,69.34,72.75,85.25,62,96" id="kvg:05687-s14" kvg:type="㇒" transform="matrix(1,0,0,1,1296,-4)" xmlns:kvg="http://kanjivg.tagaini.net"></path><path class="stroke_order_diagram--current_path" d="M72.06,45.86c0.68,1.03,1.14,2.8,1.11,4.53C72.85,69.34,72.75,85.25,62,96" id="Ske1pr8374p" kvg:type="㇒" transform="matrix(1,0,0,1,1296,-4)" xmlns:kvg="http://kanjivg.tagaini.net"></path><circle class="stroke_order_diagram--path_start" cx="72.06" cy="45.86" r="4" transform="matrix(1,0,0,1,1296,-4)"></circle><line class="stroke_order_diagram--guide_line" x1="1450" x2="1450" y1="1" y2="99"></line><line class="stroke_order_diagram--bounding_box" x1="1499" x2="1499" y1="1" y2="99"></line><path class="stroke_order_diagram--existing_path" d="M11.5,35.18c1.03,1.03,1.25,2.32,1.43,3.8c0.56,4.5,0.92,11.88,1.31,18.51c0.12,2.03,0.24,3.98,0.36,5.77" id="Ske1pr8374s" kvg:type="㇑" transform="matrix(1,0,0,1,1396,-4)" xmlns:kvg="http://kanjivg.tagaini.net"></path><path class="stroke_order_diagram--existing_path" d="M13.8,36.48c4.03-0.77,6.7-1.23,10.22-1.75c3.12-0.46,5.17-1.18,4.71,2.9c-0.61,5.51-1.57,11.83-2.46,19.3" id="Ske1pr8374t" kvg:type="㇕b" transform="matrix(1,0,0,1,1396,-4)" xmlns:kvg="http://kanjivg.tagaini.net"></path><path class="stroke_order_diagram--existing_path" d="M15.47,59.22c3.42-0.18,5.02-0.63,8.78-1.01c0.95-0.1,1.97-0.2,3.09-0.33" id="Ske1pr8374u" kvg:type="㇐b" transform="matrix(1,0,0,1,1396,-4)" xmlns:kvg="http://kanjivg.tagaini.net"></path><path class="stroke_order_diagram--existing_path" d="M34,32.24c0.63,0.46,2.78,0.51,3.38,0.48c4.69-0.26,8.53-1.03,14.63-2.17c1.24-0.23,2.62-0.3,3.6,0.02" id="Ske1pr8374v" kvg:type="㇐" transform="matrix(1,0,0,1,1396,-4)" xmlns:kvg="http://kanjivg.tagaini.net"></path><path class="stroke_order_diagram--existing_path" d="M44.9,14.45c0.89,0.89,1.11,2.3,1.11,3.84c0,0.55,0,23.34,0,27.13" id="Ske1pr8374w" kvg:type="㇑a" transform="matrix(1,0,0,1,1396,-4)" xmlns:kvg="http://kanjivg.tagaini.net"></path><path class="stroke_order_diagram--existing_path" d="M32.44,47.64c1.26,0.85,4.06,0.39,5.41,0.19c5.18-0.76,11.29-1.76,18.03-2.66c1.47-0.2,2.55-0.46,3.92,0.1" id="Ske1pr8374x" kvg:type="㇐" transform="matrix(1,0,0,1,1396,-4)" xmlns:kvg="http://kanjivg.tagaini.net"></path><path class="stroke_order_diagram--existing_path" d="M39.76,50c0.87,0.87,1.14,2.41,1.14,3.89c-0.02,22.61-1.65,29.49-9.65,39.36" id="Ske1pr8374y" kvg:type="㇒" transform="matrix(1,0,0,1,1396,-4)" xmlns:kvg="http://kanjivg.tagaini.net"></path><path class="stroke_order_diagram--existing_path" d="M49.13,48.66c0.73,0.73,1.1,2.24,1.1,4.1s0.02,26.86,0.02,33.74c0,9.38-3.88,3.75-5.71,1.78" id="Ske1pr8374z" kvg:type="㇚" transform="matrix(1,0,0,1,1396,-4)" xmlns:kvg="http://kanjivg.tagaini.net"></path><path class="stroke_order_diagram--existing_path" d="M33.35,56.36c0.02,0.55,0.04,1.41-0.04,2.19c-0.46,4.62-2.68,12.58-6.06,20.2" id="Ske1pr83750" kvg:type="㇒" transform="matrix(1,0,0,1,1396,-4)" xmlns:kvg="http://kanjivg.tagaini.net"></path><path class="stroke_order_diagram--existing_path" d="M55.48,58c1.08,1.94,2.78,7.98,3.05,11" id="Ske1pr83751" kvg:type="㇔" transform="matrix(1,0,0,1,1396,-4)" xmlns:kvg="http://kanjivg.tagaini.net"></path><path class="stroke_order_diagram--existing_path" d="M65.66,28.74c0.88,0.62,3.1,0.49,4.09,0.41c5.18-0.43,11.19-0.93,17.37-2.03c1.43-0.26,2.75-0.37,4.08-0.05" id="Ske1pr83752" kvg:type="㇐" transform="matrix(1,0,0,1,1396,-4)" xmlns:kvg="http://kanjivg.tagaini.net"></path><path class="stroke_order_diagram--existing_path" d="M77.02,13.7c1.08,1.08,1.47,2.55,1.47,4.24s-0.05,19.16-0.11,22.56" id="Ske1pr83753" kvg:type="㇑a" transform="matrix(1,0,0,1,1396,-4)" xmlns:kvg="http://kanjivg.tagaini.net"></path><path class="stroke_order_diagram--existing_path" d="M62.77,42.89c1.86,0.49,4.12,0.39,5.5,0.21c6.65-0.88,17.61-2,25.24-2.91c1.46-0.17,2.79-0.23,4.2,0.33" id="Ske1pr83754" kvg:type="㇐" transform="matrix(1,0,0,1,1396,-4)" xmlns:kvg="http://kanjivg.tagaini.net"></path><path class="stroke_order_diagram--existing_path" d="M72.06,45.86c0.68,1.03,1.14,2.8,1.11,4.53C72.85,69.34,72.75,85.25,62,96" id="Ske1pr83755" kvg:type="㇒" transform="matrix(1,0,0,1,1396,-4)" xmlns:kvg="http://kanjivg.tagaini.net"></path><path class="stroke_order_diagram--current_path" d="M81.27,44.41c0.85,0.85,1.1,2.49,1.1,5.1s-0.12,32.81-0.12,41.74c0,9.5-4.3,3.64-5.54,1.67" id="kvg:05687-s15" kvg:type="㇚" transform="matrix(1,0,0,1,1396,-4)" xmlns:kvg="http://kanjivg.tagaini.net"></path><path class="stroke_order_diagram--current_path" d="M81.27,44.41c0.85,0.85,1.1,2.49,1.1,5.1s-0.12,32.81-0.12,41.74c0,9.5-4.3,3.64-5.54,1.67" id="Ske1pr83757" kvg:type="㇚" transform="matrix(1,0,0,1,1396,-4)" xmlns:kvg="http://kanjivg.tagaini.net"></path><circle class="stroke_order_diagram--path_start" cx="81.27" cy="44.41" r="4" transform="matrix(1,0,0,1,1396,-4)"></circle><line class="stroke_order_diagram--guide_line" x1="1550" x2="1550" y1="1" y2="99"></line><line class="stroke_order_diagram--bounding_box" x1="1599" x2="1599" y1="1" y2="99"></line><path class="stroke_order_diagram--existing_path" d="M11.5,35.18c1.03,1.03,1.25,2.32,1.43,3.8c0.56,4.5,0.92,11.88,1.31,18.51c0.12,2.03,0.24,3.98,0.36,5.77" id="Ske1pr8375a" kvg:type="㇑" transform="matrix(1,0,0,1,1496,-4)" xmlns:kvg="http://kanjivg.tagaini.net"></path><path class="stroke_order_diagram--existing_path" d="M13.8,36.48c4.03-0.77,6.7-1.23,10.22-1.75c3.12-0.46,5.17-1.18,4.71,2.9c-0.61,5.51-1.57,11.83-2.46,19.3" id="Ske1pr8375b" kvg:type="㇕b" transform="matrix(1,0,0,1,1496,-4)" xmlns:kvg="http://kanjivg.tagaini.net"></path><path class="stroke_order_diagram--existing_path" d="M15.47,59.22c3.42-0.18,5.02-0.63,8.78-1.01c0.95-0.1,1.97-0.2,3.09-0.33" id="Ske1pr8375c" kvg:type="㇐b" transform="matrix(1,0,0,1,1496,-4)" xmlns:kvg="http://kanjivg.tagaini.net"></path><path class="stroke_order_diagram--existing_path" d="M34,32.24c0.63,0.46,2.78,0.51,3.38,0.48c4.69-0.26,8.53-1.03,14.63-2.17c1.24-0.23,2.62-0.3,3.6,0.02" id="Ske1pr8375d" kvg:type="㇐" transform="matrix(1,0,0,1,1496,-4)" xmlns:kvg="http://kanjivg.tagaini.net"></path><path class="stroke_order_diagram--existing_path" d="M44.9,14.45c0.89,0.89,1.11,2.3,1.11,3.84c0,0.55,0,23.34,0,27.13" id="Ske1pr8375e" kvg:type="㇑a" transform="matrix(1,0,0,1,1496,-4)" xmlns:kvg="http://kanjivg.tagaini.net"></path><path class="stroke_order_diagram--existing_path" d="M32.44,47.64c1.26,0.85,4.06,0.39,5.41,0.19c5.18-0.76,11.29-1.76,18.03-2.66c1.47-0.2,2.55-0.46,3.92,0.1" id="Ske1pr8375f" kvg:type="㇐" transform="matrix(1,0,0,1,1496,-4)" xmlns:kvg="http://kanjivg.tagaini.net"></path><path class="stroke_order_diagram--existing_path" d="M39.76,50c0.87,0.87,1.14,2.41,1.14,3.89c-0.02,22.61-1.65,29.49-9.65,39.36" id="Ske1pr8375g" kvg:type="㇒" transform="matrix(1,0,0,1,1496,-4)" xmlns:kvg="http://kanjivg.tagaini.net"></path><path class="stroke_order_diagram--existing_path" d="M49.13,48.66c0.73,0.73,1.1,2.24,1.1,4.1s0.02,26.86,0.02,33.74c0,9.38-3.88,3.75-5.71,1.78" id="Ske1pr8375h" kvg:type="㇚" transform="matrix(1,0,0,1,1496,-4)" xmlns:kvg="http://kanjivg.tagaini.net"></path><path class="stroke_order_diagram--existing_path" d="M33.35,56.36c0.02,0.55,0.04,1.41-0.04,2.19c-0.46,4.62-2.68,12.58-6.06,20.2" id="Ske1pr8375i" kvg:type="㇒" transform="matrix(1,0,0,1,1496,-4)" xmlns:kvg="http://kanjivg.tagaini.net"></path><path class="stroke_order_diagram--existing_path" d="M55.48,58c1.08,1.94,2.78,7.98,3.05,11" id="Ske1pr8375j" kvg:type="㇔" transform="matrix(1,0,0,1,1496,-4)" xmlns:kvg="http://kanjivg.tagaini.net"></path><path class="stroke_order_diagram--existing_path" d="M65.66,28.74c0.88,0.62,3.1,0.49,4.09,0.41c5.18-0.43,11.19-0.93,17.37-2.03c1.43-0.26,2.75-0.37,4.08-0.05" id="Ske1pr8375k" kvg:type="㇐" transform="matrix(1,0,0,1,1496,-4)" xmlns:kvg="http://kanjivg.tagaini.net"></path><path class="stroke_order_diagram--existing_path" d="M77.02,13.7c1.08,1.08,1.47,2.55,1.47,4.24s-0.05,19.16-0.11,22.56" id="Ske1pr8375l" kvg:type="㇑a" transform="matrix(1,0,0,1,1496,-4)" xmlns:kvg="http://kanjivg.tagaini.net"></path><path class="stroke_order_diagram--existing_path" d="M62.77,42.89c1.86,0.49,4.12,0.39,5.5,0.21c6.65-0.88,17.61-2,25.24-2.91c1.46-0.17,2.79-0.23,4.2,0.33" id="Ske1pr8375m" kvg:type="㇐" transform="matrix(1,0,0,1,1496,-4)" xmlns:kvg="http://kanjivg.tagaini.net"></path><path class="stroke_order_diagram--existing_path" d="M72.06,45.86c0.68,1.03,1.14,2.8,1.11,4.53C72.85,69.34,72.75,85.25,62,96" id="Ske1pr8375n" kvg:type="㇒" transform="matrix(1,0,0,1,1496,-4)" xmlns:kvg="http://kanjivg.tagaini.net"></path><path class="stroke_order_diagram--existing_path" d="M81.27,44.41c0.85,0.85,1.1,2.49,1.1,5.1s-0.12,32.81-0.12,41.74c0,9.5-4.3,3.64-5.54,1.67" id="Ske1pr8375o" kvg:type="㇚" transform="matrix(1,0,0,1,1496,-4)" xmlns:kvg="http://kanjivg.tagaini.net"></path><path class="stroke_order_diagram--current_path" d="M64.75,53.25c0.37,0.88,0.54,1.78,0.46,2.77c-0.52,5.85-2.5,16.87-6.59,24.73" id="kvg:05687-s16" kvg:type="㇒" transform="matrix(1,0,0,1,1496,-4)" xmlns:kvg="http://kanjivg.tagaini.net"></path><path class="stroke_order_diagram--current_path" d="M64.75,53.25c0.37,0.88,0.54,1.78,0.46,2.77c-0.52,5.85-2.5,16.87-6.59,24.73" id="Ske1pr8375q" kvg:type="㇒" transform="matrix(1,0,0,1,1496,-4)" xmlns:kvg="http://kanjivg.tagaini.net"></path><circle class="stroke_order_diagram--path_start" cx="64.75" cy="53.25" r="4" transform="matrix(1,0,0,1,1496,-4)"></circle><line class="stroke_order_diagram--guide_line" x1="1650" x2="1650" y1="1" y2="99"></line><line class="stroke_order_diagram--bounding_box" x1="1699" x2="1699" y1="1" y2="99"></line><path class="stroke_order_diagram--existing_path" d="M11.5,35.18c1.03,1.03,1.25,2.32,1.43,3.8c0.56,4.5,0.92,11.88,1.31,18.51c0.12,2.03,0.24,3.98,0.36,5.77" id="Ske1pr8375t" kvg:type="㇑" transform="matrix(1,0,0,1,1596,-4)" xmlns:kvg="http://kanjivg.tagaini.net"></path><path class="stroke_order_diagram--existing_path" d="M13.8,36.48c4.03-0.77,6.7-1.23,10.22-1.75c3.12-0.46,5.17-1.18,4.71,2.9c-0.61,5.51-1.57,11.83-2.46,19.3" id="Ske1pr8375u" kvg:type="㇕b" transform="matrix(1,0,0,1,1596,-4)" xmlns:kvg="http://kanjivg.tagaini.net"></path><path class="stroke_order_diagram--existing_path" d="M15.47,59.22c3.42-0.18,5.02-0.63,8.78-1.01c0.95-0.1,1.97-0.2,3.09-0.33" id="Ske1pr8375v" kvg:type="㇐b" transform="matrix(1,0,0,1,1596,-4)" xmlns:kvg="http://kanjivg.tagaini.net"></path><path class="stroke_order_diagram--existing_path" d="M34,32.24c0.63,0.46,2.78,0.51,3.38,0.48c4.69-0.26,8.53-1.03,14.63-2.17c1.24-0.23,2.62-0.3,3.6,0.02" id="Ske1pr8375w" kvg:type="㇐" transform="matrix(1,0,0,1,1596,-4)" xmlns:kvg="http://kanjivg.tagaini.net"></path><path class="stroke_order_diagram--existing_path" d="M44.9,14.45c0.89,0.89,1.11,2.3,1.11,3.84c0,0.55,0,23.34,0,27.13" id="Ske1pr8375x" kvg:type="㇑a" transform="matrix(1,0,0,1,1596,-4)" xmlns:kvg="http://kanjivg.tagaini.net"></path><path class="stroke_order_diagram--existing_path" d="M32.44,47.64c1.26,0.85,4.06,0.39,5.41,0.19c5.18-0.76,11.29-1.76,18.03-2.66c1.47-0.2,2.55-0.46,3.92,0.1" id="Ske1pr8375y" kvg:type="㇐" transform="matrix(1,0,0,1,1596,-4)" xmlns:kvg="http://kanjivg.tagaini.net"></path><path class="stroke_order_diagram--existing_path" d="M39.76,50c0.87,0.87,1.14,2.41,1.14,3.89c-0.02,22.61-1.65,29.49-9.65,39.36" id="Ske1pr8375z" kvg:type="㇒" transform="matrix(1,0,0,1,1596,-4)" xmlns:kvg="http://kanjivg.tagaini.net"></path><path class="stroke_order_diagram--existing_path" d="M49.13,48.66c0.73,0.73,1.1,2.24,1.1,4.1s0.02,26.86,0.02,33.74c0,9.38-3.88,3.75-5.71,1.78" id="Ske1pr83760" kvg:type="㇚" transform="matrix(1,0,0,1,1596,-4)" xmlns:kvg="http://kanjivg.tagaini.net"></path><path class="stroke_order_diagram--existing_path" d="M33.35,56.36c0.02,0.55,0.04,1.41-0.04,2.19c-0.46,4.62-2.68,12.58-6.06,20.2" id="Ske1pr83761" kvg:type="㇒" transform="matrix(1,0,0,1,1596,-4)" xmlns:kvg="http://kanjivg.tagaini.net"></path><path class="stroke_order_diagram--existing_path" d="M55.48,58c1.08,1.94,2.78,7.98,3.05,11" id="Ske1pr83762" kvg:type="㇔" transform="matrix(1,0,0,1,1596,-4)" xmlns:kvg="http://kanjivg.tagaini.net"></path><path class="stroke_order_diagram--existing_path" d="M65.66,28.74c0.88,0.62,3.1,0.49,4.09,0.41c5.18-0.43,11.19-0.93,17.37-2.03c1.43-0.26,2.75-0.37,4.08-0.05" id="Ske1pr83763" kvg:type="㇐" transform="matrix(1,0,0,1,1596,-4)" xmlns:kvg="http://kanjivg.tagaini.net"></path><path class="stroke_order_diagram--existing_path" d="M77.02,13.7c1.08,1.08,1.47,2.55,1.47,4.24s-0.05,19.16-0.11,22.56" id="Ske1pr83764" kvg:type="㇑a" transform="matrix(1,0,0,1,1596,-4)" xmlns:kvg="http://kanjivg.tagaini.net"></path><path class="stroke_order_diagram--existing_path" d="M62.77,42.89c1.86,0.49,4.12,0.39,5.5,0.21c6.65-0.88,17.61-2,25.24-2.91c1.46-0.17,2.79-0.23,4.2,0.33" id="Ske1pr83765" kvg:type="㇐" transform="matrix(1,0,0,1,1596,-4)" xmlns:kvg="http://kanjivg.tagaini.net"></path><path class="stroke_order_diagram--existing_path" d="M72.06,45.86c0.68,1.03,1.14,2.8,1.11,4.53C72.85,69.34,72.75,85.25,62,96" id="Ske1pr83766" kvg:type="㇒" transform="matrix(1,0,0,1,1596,-4)" xmlns:kvg="http://kanjivg.tagaini.net"></path><path class="stroke_order_diagram--existing_path" d="M81.27,44.41c0.85,0.85,1.1,2.49,1.1,5.1s-0.12,32.81-0.12,41.74c0,9.5-4.3,3.64-5.54,1.67" id="Ske1pr83767" kvg:type="㇚" transform="matrix(1,0,0,1,1596,-4)" xmlns:kvg="http://kanjivg.tagaini.net"></path><path class="stroke_order_diagram--existing_path" d="M64.75,53.25c0.37,0.88,0.54,1.78,0.46,2.77c-0.52,5.85-2.5,16.87-6.59,24.73" id="Ske1pr83768" kvg:type="㇒" transform="matrix(1,0,0,1,1596,-4)" xmlns:kvg="http://kanjivg.tagaini.net"></path><path class="stroke_order_diagram--current_path" d="M88.25,54.5c2.75,4.42,7.1,18.2,7.79,25.08" id="kvg:05687-s17" kvg:type="㇔" transform="matrix(1,0,0,1,1596,-4)" xmlns:kvg="http://kanjivg.tagaini.net"></path><path class="stroke_order_diagram--current_path" d="M88.25,54.5c2.75,4.42,7.1,18.2,7.79,25.08" id="Ske1pr8376a" kvg:type="㇔" transform="matrix(1,0,0,1,1596,-4)" xmlns:kvg="http://kanjivg.tagaini.net"></path><circle class="stroke_order_diagram--path_start" cx="88.25" cy="54.5" r="4" transform="matrix(1,0,0,1,1596,-4)"></circle></svg>