<svg class="stroke_order_diagram--svg_container_for_51866292d5dda796580008af" style="height: 100px; width: 1100px;" viewbox="0 0 1100 100"><desc>Created with Snap</desc><defs></defs><line class="stroke_order_diagram--bounding_box" x1="1" x2="1099" y1="1" y2="1"></line><line class="stroke_order_diagram--bounding_box" x1="1" x2="1" y1="1" y2="99"></line><line class="stroke_order_diagram--bounding_box" x1="1" x2="1099" y1="99" y2="99"></line><line class="stroke_order_diagram--guide_line" x1="0" x2="1100" y1="50" y2="50"></line><line class="stroke_order_diagram--guide_line" x1="50" x2="50" y1="1" y2="99"></line><line class="stroke_order_diagram--bounding_box" x1="99" x2="99" y1="1" y2="99"></line><path class="stroke_order_diagram--current_path" d="M13.25,43.14c1.33,0.67,3.68,0.52,5.12,0.33c5.38-0.69,14.71-2.19,19.38-2.72c1.25-0.14,2.62-0.18,3.25,0.01" id="kvg:057f9-s1" kvg:type="㇐" transform="matrix(1,0,0,1,-4,-4)" xmlns:kvg="http://kanjivg.tagaini.net"></path><path class="stroke_order_diagram--current_path" d="M13.25,43.14c1.33,0.67,3.68,0.52,5.12,0.33c5.38-0.69,14.71-2.19,19.38-2.72c1.25-0.14,2.62-0.18,3.25,0.01" id="Ske25rqjyk" kvg:type="㇐" transform="matrix(1,0,0,1,-4,-4)" xmlns:kvg="http://kanjivg.tagaini.net"></path><circle class="stroke_order_diagram--path_start" cx="13.25" cy="43.14" r="4" transform="matrix(1,0,0,1,-4,-4)"></circle><line class="stroke_order_diagram--guide_line" x1="150" x2="150" y1="1" y2="99"></line><line class="stroke_order_diagram--bounding_box" x1="199" x2="199" y1="1" y2="99"></line><path class="stroke_order_diagram--existing_path" d="M13.25,43.14c1.33,0.67,3.68,0.52,5.12,0.33c5.38-0.69,14.71-2.19,19.38-2.72c1.25-0.14,2.62-0.18,3.25,0.01" id="Ske25rqjyn" kvg:type="㇐" transform="matrix(1,0,0,1,96,-4)" xmlns:kvg="http://kanjivg.tagaini.net"></path><path class="stroke_order_diagram--current_path" d="M27.87,18.5c1.06,1.06,1.21,2.38,1.21,3.75c0,7.25,0.03,34.75,0.03,45.5" id="kvg:057f9-s2" kvg:type="㇑a" transform="matrix(1,0,0,1,96,-4)" xmlns:kvg="http://kanjivg.tagaini.net"></path><path class="stroke_order_diagram--current_path" d="M27.87,18.5c1.06,1.06,1.21,2.38,1.21,3.75c0,7.25,0.03,34.75,0.03,45.5" id="Ske25rqjyp" kvg:type="㇑a" transform="matrix(1,0,0,1,96,-4)" xmlns:kvg="http://kanjivg.tagaini.net"></path><circle class="stroke_order_diagram--path_start" cx="27.87" cy="18.5" r="4" transform="matrix(1,0,0,1,96,-4)"></circle><line class="stroke_order_diagram--guide_line" x1="250" x2="250" y1="1" y2="99"></line><line class="stroke_order_diagram--bounding_box" x1="299" x2="299" y1="1" y2="99"></line><path class="stroke_order_diagram--existing_path" d="M13.25,43.14c1.33,0.67,3.68,0.52,5.12,0.33c5.38-0.69,14.71-2.19,19.38-2.72c1.25-0.14,2.62-0.18,3.25,0.01" id="Ske25rqjys" kvg:type="㇐" transform="matrix(1,0,0,1,196,-4)" xmlns:kvg="http://kanjivg.tagaini.net"></path><path class="stroke_order_diagram--existing_path" d="M27.87,18.5c1.06,1.06,1.21,2.38,1.21,3.75c0,7.25,0.03,34.75,0.03,45.5" id="Ske25rqjyt" kvg:type="㇑a" transform="matrix(1,0,0,1,196,-4)" xmlns:kvg="http://kanjivg.tagaini.net"></path><path class="stroke_order_diagram--current_path" d="M13.75,76.54c0.75,0.96,2.12,0.96,4-0.29c7.28-4.85,14.62-9.5,22.5-14.5" id="kvg:057f9-s3" kvg:type="㇀/㇐" transform="matrix(1,0,0,1,196,-4)" xmlns:kvg="http://kanjivg.tagaini.net"></path><path class="stroke_order_diagram--current_path" d="M13.75,76.54c0.75,0.96,2.12,0.96,4-0.29c7.28-4.85,14.62-9.5,22.5-14.5" id="Ske25rqjyv" kvg:type="㇀/㇐" transform="matrix(1,0,0,1,196,-4)" xmlns:kvg="http://kanjivg.tagaini.net"></path><circle class="stroke_order_diagram--path_start" cx="13.75" cy="76.54" r="4" transform="matrix(1,0,0,1,196,-4)"></circle><line class="stroke_order_diagram--guide_line" x1="350" x2="350" y1="1" y2="99"></line><line class="stroke_order_diagram--bounding_box" x1="399" x2="399" y1="1" y2="99"></line><path class="stroke_order_diagram--existing_path" d="M13.25,43.14c1.33,0.67,3.68,0.52,5.12,0.33c5.38-0.69,14.71-2.19,19.38-2.72c1.25-0.14,2.62-0.18,3.25,0.01" id="Ske25rqjyy" kvg:type="㇐" transform="matrix(1,0,0,1,296,-4)" xmlns:kvg="http://kanjivg.tagaini.net"></path><path class="stroke_order_diagram--existing_path" d="M27.87,18.5c1.06,1.06,1.21,2.38,1.21,3.75c0,7.25,0.03,34.75,0.03,45.5" id="Ske25rqjyz" kvg:type="㇑a" transform="matrix(1,0,0,1,296,-4)" xmlns:kvg="http://kanjivg.tagaini.net"></path><path class="stroke_order_diagram--existing_path" d="M13.75,76.54c0.75,0.96,2.12,0.96,4-0.29c7.28-4.85,14.62-9.5,22.5-14.5" id="Ske25rqjy10" kvg:type="㇀/㇐" transform="matrix(1,0,0,1,296,-4)" xmlns:kvg="http://kanjivg.tagaini.net"></path><path class="stroke_order_diagram--current_path" d="M68.21,13.25c1.14,1.14,1.32,2.12,1.32,3.92c0,2.39,0,6.83,0,9.9" id="kvg:057f9-s4" kvg:type="㇑a" transform="matrix(1,0,0,1,296,-4)" xmlns:kvg="http://kanjivg.tagaini.net"></path><path class="stroke_order_diagram--current_path" d="M68.21,13.25c1.14,1.14,1.32,2.12,1.32,3.92c0,2.39,0,6.83,0,9.9" id="Ske25rqjy12" kvg:type="㇑a" transform="matrix(1,0,0,1,296,-4)" xmlns:kvg="http://kanjivg.tagaini.net"></path><circle class="stroke_order_diagram--path_start" cx="68.21" cy="13.25" r="4" transform="matrix(1,0,0,1,296,-4)"></circle><line class="stroke_order_diagram--guide_line" x1="450" x2="450" y1="1" y2="99"></line><line class="stroke_order_diagram--bounding_box" x1="499" x2="499" y1="1" y2="99"></line><path class="stroke_order_diagram--existing_path" d="M13.25,43.14c1.33,0.67,3.68,0.52,5.12,0.33c5.38-0.69,14.71-2.19,19.38-2.72c1.25-0.14,2.62-0.18,3.25,0.01" id="Ske25rqjy15" kvg:type="㇐" transform="matrix(1,0,0,1,396,-4)" xmlns:kvg="http://kanjivg.tagaini.net"></path><path class="stroke_order_diagram--existing_path" d="M27.87,18.5c1.06,1.06,1.21,2.38,1.21,3.75c0,7.25,0.03,34.75,0.03,45.5" id="Ske25rqjy16" kvg:type="㇑a" transform="matrix(1,0,0,1,396,-4)" xmlns:kvg="http://kanjivg.tagaini.net"></path><path class="stroke_order_diagram--existing_path" d="M13.75,76.54c0.75,0.96,2.12,0.96,4-0.29c7.28-4.85,14.62-9.5,22.5-14.5" id="Ske25rqjy17" kvg:type="㇀/㇐" transform="matrix(1,0,0,1,396,-4)" xmlns:kvg="http://kanjivg.tagaini.net"></path><path class="stroke_order_diagram--existing_path" d="M68.21,13.25c1.14,1.14,1.32,2.12,1.32,3.92c0,2.39,0,6.83,0,9.9" id="Ske25rqjy18" kvg:type="㇑a" transform="matrix(1,0,0,1,396,-4)" xmlns:kvg="http://kanjivg.tagaini.net"></path><path class="stroke_order_diagram--current_path" d="M47.5,30.25c2.5,0.25,4.92,0.34,7.28,0.03c7.97-1.03,20.04-2.71,28.74-3.28c2.43-0.16,4.82-0.24,7.23,0.17" id="kvg:057f9-s5" kvg:type="㇐" transform="matrix(1,0,0,1,396,-4)" xmlns:kvg="http://kanjivg.tagaini.net"></path><path class="stroke_order_diagram--current_path" d="M47.5,30.25c2.5,0.25,4.92,0.34,7.28,0.03c7.97-1.03,20.04-2.71,28.74-3.28c2.43-0.16,4.82-0.24,7.23,0.17" id="Ske25rqjy1a" kvg:type="㇐" transform="matrix(1,0,0,1,396,-4)" xmlns:kvg="http://kanjivg.tagaini.net"></path><circle class="stroke_order_diagram--path_start" cx="47.5" cy="30.25" r="4" transform="matrix(1,0,0,1,396,-4)"></circle><line class="stroke_order_diagram--guide_line" x1="550" x2="550" y1="1" y2="99"></line><line class="stroke_order_diagram--bounding_box" x1="599" x2="599" y1="1" y2="99"></line><path class="stroke_order_diagram--existing_path" d="M13.25,43.14c1.33,0.67,3.68,0.52,5.12,0.33c5.38-0.69,14.71-2.19,19.38-2.72c1.25-0.14,2.62-0.18,3.25,0.01" id="Ske25rqjy1d" kvg:type="㇐" transform="matrix(1,0,0,1,496,-4)" xmlns:kvg="http://kanjivg.tagaini.net"></path><path class="stroke_order_diagram--existing_path" d="M27.87,18.5c1.06,1.06,1.21,2.38,1.21,3.75c0,7.25,0.03,34.75,0.03,45.5" id="Ske25rqjy1e" kvg:type="㇑a" transform="matrix(1,0,0,1,496,-4)" xmlns:kvg="http://kanjivg.tagaini.net"></path><path class="stroke_order_diagram--existing_path" d="M13.75,76.54c0.75,0.96,2.12,0.96,4-0.29c7.28-4.85,14.62-9.5,22.5-14.5" id="Ske25rqjy1f" kvg:type="㇀/㇐" transform="matrix(1,0,0,1,496,-4)" xmlns:kvg="http://kanjivg.tagaini.net"></path><path class="stroke_order_diagram--existing_path" d="M68.21,13.25c1.14,1.14,1.32,2.12,1.32,3.92c0,2.39,0,6.83,0,9.9" id="Ske25rqjy1g" kvg:type="㇑a" transform="matrix(1,0,0,1,496,-4)" xmlns:kvg="http://kanjivg.tagaini.net"></path><path class="stroke_order_diagram--existing_path" d="M47.5,30.25c2.5,0.25,4.92,0.34,7.28,0.03c7.97-1.03,20.04-2.71,28.74-3.28c2.43-0.16,4.82-0.24,7.23,0.17" id="Ske25rqjy1h" kvg:type="㇐" transform="matrix(1,0,0,1,496,-4)" xmlns:kvg="http://kanjivg.tagaini.net"></path><path class="stroke_order_diagram--current_path" d="M55.75,37.2c3.56,4.7,5.18,9.5,5.5,12.6" id="kvg:057f9-s6" kvg:type="㇔" transform="matrix(1,0,0,1,496,-4)" xmlns:kvg="http://kanjivg.tagaini.net"></path><path class="stroke_order_diagram--current_path" d="M55.75,37.2c3.56,4.7,5.18,9.5,5.5,12.6" id="Ske25rqjy1j" kvg:type="㇔" transform="matrix(1,0,0,1,496,-4)" xmlns:kvg="http://kanjivg.tagaini.net"></path><circle class="stroke_order_diagram--path_start" cx="55.75" cy="37.2" r="4" transform="matrix(1,0,0,1,496,-4)"></circle><line class="stroke_order_diagram--guide_line" x1="650" x2="650" y1="1" y2="99"></line><line class="stroke_order_diagram--bounding_box" x1="699" x2="699" y1="1" y2="99"></line><path class="stroke_order_diagram--existing_path" d="M13.25,43.14c1.33,0.67,3.68,0.52,5.12,0.33c5.38-0.69,14.71-2.19,19.38-2.72c1.25-0.14,2.62-0.18,3.25,0.01" id="Ske25rqjy1m" kvg:type="㇐" transform="matrix(1,0,0,1,596,-4)" xmlns:kvg="http://kanjivg.tagaini.net"></path><path class="stroke_order_diagram--existing_path" d="M27.87,18.5c1.06,1.06,1.21,2.38,1.21,3.75c0,7.25,0.03,34.75,0.03,45.5" id="Ske25rqjy1n" kvg:type="㇑a" transform="matrix(1,0,0,1,596,-4)" xmlns:kvg="http://kanjivg.tagaini.net"></path><path class="stroke_order_diagram--existing_path" d="M13.75,76.54c0.75,0.96,2.12,0.96,4-0.29c7.28-4.85,14.62-9.5,22.5-14.5" id="Ske25rqjy1o" kvg:type="㇀/㇐" transform="matrix(1,0,0,1,596,-4)" xmlns:kvg="http://kanjivg.tagaini.net"></path><path class="stroke_order_diagram--existing_path" d="M68.21,13.25c1.14,1.14,1.32,2.12,1.32,3.92c0,2.39,0,6.83,0,9.9" id="Ske25rqjy1p" kvg:type="㇑a" transform="matrix(1,0,0,1,596,-4)" xmlns:kvg="http://kanjivg.tagaini.net"></path><path class="stroke_order_diagram--existing_path" d="M47.5,30.25c2.5,0.25,4.92,0.34,7.28,0.03c7.97-1.03,20.04-2.71,28.74-3.28c2.43-0.16,4.82-0.24,7.23,0.17" id="Ske25rqjy1q" kvg:type="㇐" transform="matrix(1,0,0,1,596,-4)" xmlns:kvg="http://kanjivg.tagaini.net"></path><path class="stroke_order_diagram--existing_path" d="M55.75,37.2c3.56,4.7,5.18,9.5,5.5,12.6" id="Ske25rqjy1r" kvg:type="㇔" transform="matrix(1,0,0,1,596,-4)" xmlns:kvg="http://kanjivg.tagaini.net"></path><path class="stroke_order_diagram--current_path" d="M81.48,31.51c0.42,1.11,0.32,1.96-0.01,3c-1.6,5.11-4.35,10.98-7.22,15.51" id="kvg:057f9-s7" kvg:type="㇒" transform="matrix(1,0,0,1,596,-4)" xmlns:kvg="http://kanjivg.tagaini.net"></path><path class="stroke_order_diagram--current_path" d="M81.48,31.51c0.42,1.11,0.32,1.96-0.01,3c-1.6,5.11-4.35,10.98-7.22,15.51" id="Ske25rqjy1t" kvg:type="㇒" transform="matrix(1,0,0,1,596,-4)" xmlns:kvg="http://kanjivg.tagaini.net"></path><circle class="stroke_order_diagram--path_start" cx="81.48" cy="31.51" r="4" transform="matrix(1,0,0,1,596,-4)"></circle><line class="stroke_order_diagram--guide_line" x1="750" x2="750" y1="1" y2="99"></line><line class="stroke_order_diagram--bounding_box" x1="799" x2="799" y1="1" y2="99"></line><path class="stroke_order_diagram--existing_path" d="M13.25,43.14c1.33,0.67,3.68,0.52,5.12,0.33c5.38-0.69,14.71-2.19,19.38-2.72c1.25-0.14,2.62-0.18,3.25,0.01" id="Ske25rqjy1w" kvg:type="㇐" transform="matrix(1,0,0,1,696,-4)" xmlns:kvg="http://kanjivg.tagaini.net"></path><path class="stroke_order_diagram--existing_path" d="M27.87,18.5c1.06,1.06,1.21,2.38,1.21,3.75c0,7.25,0.03,34.75,0.03,45.5" id="Ske25rqjy1x" kvg:type="㇑a" transform="matrix(1,0,0,1,696,-4)" xmlns:kvg="http://kanjivg.tagaini.net"></path><path class="stroke_order_diagram--existing_path" d="M13.75,76.54c0.75,0.96,2.12,0.96,4-0.29c7.28-4.85,14.62-9.5,22.5-14.5" id="Ske25rqjy1y" kvg:type="㇀/㇐" transform="matrix(1,0,0,1,696,-4)" xmlns:kvg="http://kanjivg.tagaini.net"></path><path class="stroke_order_diagram--existing_path" d="M68.21,13.25c1.14,1.14,1.32,2.12,1.32,3.92c0,2.39,0,6.83,0,9.9" id="Ske25rqjy1z" kvg:type="㇑a" transform="matrix(1,0,0,1,696,-4)" xmlns:kvg="http://kanjivg.tagaini.net"></path><path class="stroke_order_diagram--existing_path" d="M47.5,30.25c2.5,0.25,4.92,0.34,7.28,0.03c7.97-1.03,20.04-2.71,28.74-3.28c2.43-0.16,4.82-0.24,7.23,0.17" id="Ske25rqjy20" kvg:type="㇐" transform="matrix(1,0,0,1,696,-4)" xmlns:kvg="http://kanjivg.tagaini.net"></path><path class="stroke_order_diagram--existing_path" d="M55.75,37.2c3.56,4.7,5.18,9.5,5.5,12.6" id="Ske25rqjy21" kvg:type="㇔" transform="matrix(1,0,0,1,696,-4)" xmlns:kvg="http://kanjivg.tagaini.net"></path><path class="stroke_order_diagram--existing_path" d="M81.48,31.51c0.42,1.11,0.32,1.96-0.01,3c-1.6,5.11-4.35,10.98-7.22,15.51" id="Ske25rqjy22" kvg:type="㇒" transform="matrix(1,0,0,1,696,-4)" xmlns:kvg="http://kanjivg.tagaini.net"></path><path class="stroke_order_diagram--current_path" d="M44,55.51c2.43,0.64,5.3,0.63,7.77,0.29c14.1-1.93,23.85-2.93,38.73-3.98c2.54-0.18,4.98-0.13,7.5,0.27" id="kvg:057f9-s8" kvg:type="㇐" transform="matrix(1,0,0,1,696,-4)" xmlns:kvg="http://kanjivg.tagaini.net"></path><path class="stroke_order_diagram--current_path" d="M44,55.51c2.43,0.64,5.3,0.63,7.77,0.29c14.1-1.93,23.85-2.93,38.73-3.98c2.54-0.18,4.98-0.13,7.5,0.27" id="Ske25rqjy24" kvg:type="㇐" transform="matrix(1,0,0,1,696,-4)" xmlns:kvg="http://kanjivg.tagaini.net"></path><circle class="stroke_order_diagram--path_start" cx="44" cy="55.51" r="4" transform="matrix(1,0,0,1,696,-4)"></circle><line class="stroke_order_diagram--guide_line" x1="850" x2="850" y1="1" y2="99"></line><line class="stroke_order_diagram--bounding_box" x1="899" x2="899" y1="1" y2="99"></line><path class="stroke_order_diagram--existing_path" d="M13.25,43.14c1.33,0.67,3.68,0.52,5.12,0.33c5.38-0.69,14.71-2.19,19.38-2.72c1.25-0.14,2.62-0.18,3.25,0.01" id="Ske25rqjy27" kvg:type="㇐" transform="matrix(1,0,0,1,796,-4)" xmlns:kvg="http://kanjivg.tagaini.net"></path><path class="stroke_order_diagram--existing_path" d="M27.87,18.5c1.06,1.06,1.21,2.38,1.21,3.75c0,7.25,0.03,34.75,0.03,45.5" id="Ske25rqjy28" kvg:type="㇑a" transform="matrix(1,0,0,1,796,-4)" xmlns:kvg="http://kanjivg.tagaini.net"></path><path class="stroke_order_diagram--existing_path" d="M13.75,76.54c0.75,0.96,2.12,0.96,4-0.29c7.28-4.85,14.62-9.5,22.5-14.5" id="Ske25rqjy29" kvg:type="㇀/㇐" transform="matrix(1,0,0,1,796,-4)" xmlns:kvg="http://kanjivg.tagaini.net"></path><path class="stroke_order_diagram--existing_path" d="M68.21,13.25c1.14,1.14,1.32,2.12,1.32,3.92c0,2.39,0,6.83,0,9.9" id="Ske25rqjy2a" kvg:type="㇑a" transform="matrix(1,0,0,1,796,-4)" xmlns:kvg="http://kanjivg.tagaini.net"></path><path class="stroke_order_diagram--existing_path" d="M47.5,30.25c2.5,0.25,4.92,0.34,7.28,0.03c7.97-1.03,20.04-2.71,28.74-3.28c2.43-0.16,4.82-0.24,7.23,0.17" id="Ske25rqjy2b" kvg:type="㇐" transform="matrix(1,0,0,1,796,-4)" xmlns:kvg="http://kanjivg.tagaini.net"></path><path class="stroke_order_diagram--existing_path" d="M55.75,37.2c3.56,4.7,5.18,9.5,5.5,12.6" id="Ske25rqjy2c" kvg:type="㇔" transform="matrix(1,0,0,1,796,-4)" xmlns:kvg="http://kanjivg.tagaini.net"></path><path class="stroke_order_diagram--existing_path" d="M81.48,31.51c0.42,1.11,0.32,1.96-0.01,3c-1.6,5.11-4.35,10.98-7.22,15.51" id="Ske25rqjy2d" kvg:type="㇒" transform="matrix(1,0,0,1,796,-4)" xmlns:kvg="http://kanjivg.tagaini.net"></path><path class="stroke_order_diagram--existing_path" d="M44,55.51c2.43,0.64,5.3,0.63,7.77,0.29c14.1-1.93,23.85-2.93,38.73-3.98c2.54-0.18,4.98-0.13,7.5,0.27" id="Ske25rqjy2e" kvg:type="㇐" transform="matrix(1,0,0,1,796,-4)" xmlns:kvg="http://kanjivg.tagaini.net"></path><path class="stroke_order_diagram--current_path" d="M52,67.44c0.8,0.74,1.45,1.71,1.64,2.8c0.98,5.63,1.96,11.17,2.75,17.27C56.6,89.14,56.81,90.67,57,92" id="kvg:057f9-s9" kvg:type="㇑" transform="matrix(1,0,0,1,796,-4)" xmlns:kvg="http://kanjivg.tagaini.net"></path><path class="stroke_order_diagram--current_path" d="M52,67.44c0.8,0.74,1.45,1.71,1.64,2.8c0.98,5.63,1.96,11.17,2.75,17.27C56.6,89.14,56.81,90.67,57,92" id="Ske25rqjy2g" kvg:type="㇑" transform="matrix(1,0,0,1,796,-4)" xmlns:kvg="http://kanjivg.tagaini.net"></path><circle class="stroke_order_diagram--path_start" cx="52" cy="67.44" r="4" transform="matrix(1,0,0,1,796,-4)"></circle><line class="stroke_order_diagram--guide_line" x1="950" x2="950" y1="1" y2="99"></line><line class="stroke_order_diagram--bounding_box" x1="999" x2="999" y1="1" y2="99"></line><path class="stroke_order_diagram--existing_path" d="M13.25,43.14c1.33,0.67,3.68,0.52,5.12,0.33c5.38-0.69,14.71-2.19,19.38-2.72c1.25-0.14,2.62-0.18,3.25,0.01" id="Ske25rqjy2j" kvg:type="㇐" transform="matrix(1,0,0,1,896,-4)" xmlns:kvg="http://kanjivg.tagaini.net"></path><path class="stroke_order_diagram--existing_path" d="M27.87,18.5c1.06,1.06,1.21,2.38,1.21,3.75c0,7.25,0.03,34.75,0.03,45.5" id="Ske25rqjy2k" kvg:type="㇑a" transform="matrix(1,0,0,1,896,-4)" xmlns:kvg="http://kanjivg.tagaini.net"></path><path class="stroke_order_diagram--existing_path" d="M13.75,76.54c0.75,0.96,2.12,0.96,4-0.29c7.28-4.85,14.62-9.5,22.5-14.5" id="Ske25rqjy2l" kvg:type="㇀/㇐" transform="matrix(1,0,0,1,896,-4)" xmlns:kvg="http://kanjivg.tagaini.net"></path><path class="stroke_order_diagram--existing_path" d="M68.21,13.25c1.14,1.14,1.32,2.12,1.32,3.92c0,2.39,0,6.83,0,9.9" id="Ske25rqjy2m" kvg:type="㇑a" transform="matrix(1,0,0,1,896,-4)" xmlns:kvg="http://kanjivg.tagaini.net"></path><path class="stroke_order_diagram--existing_path" d="M47.5,30.25c2.5,0.25,4.92,0.34,7.28,0.03c7.97-1.03,20.04-2.71,28.74-3.28c2.43-0.16,4.82-0.24,7.23,0.17" id="Ske25rqjy2n" kvg:type="㇐" transform="matrix(1,0,0,1,896,-4)" xmlns:kvg="http://kanjivg.tagaini.net"></path><path class="stroke_order_diagram--existing_path" d="M55.75,37.2c3.56,4.7,5.18,9.5,5.5,12.6" id="Ske25rqjy2o" kvg:type="㇔" transform="matrix(1,0,0,1,896,-4)" xmlns:kvg="http://kanjivg.tagaini.net"></path><path class="stroke_order_diagram--existing_path" d="M81.48,31.51c0.42,1.11,0.32,1.96-0.01,3c-1.6,5.11-4.35,10.98-7.22,15.51" id="Ske25rqjy2p" kvg:type="㇒" transform="matrix(1,0,0,1,896,-4)" xmlns:kvg="http://kanjivg.tagaini.net"></path><path class="stroke_order_diagram--existing_path" d="M44,55.51c2.43,0.64,5.3,0.63,7.77,0.29c14.1-1.93,23.85-2.93,38.73-3.98c2.54-0.18,4.98-0.13,7.5,0.27" id="Ske25rqjy2q" kvg:type="㇐" transform="matrix(1,0,0,1,896,-4)" xmlns:kvg="http://kanjivg.tagaini.net"></path><path class="stroke_order_diagram--existing_path" d="M52,67.44c0.8,0.74,1.45,1.71,1.64,2.8c0.98,5.63,1.96,11.17,2.75,17.27C56.6,89.14,56.81,90.67,57,92" id="Ske25rqjy2r" kvg:type="㇑" transform="matrix(1,0,0,1,896,-4)" xmlns:kvg="http://kanjivg.tagaini.net"></path><path class="stroke_order_diagram--current_path" d="M54.38,68.82c8.28-0.93,21.98-2.52,28.63-3.24c3.36-0.37,5.61,0.05,4.71,3.94c-1.03,4.53-2.38,11.04-3.8,16.59" id="kvg:057f9-s10" kvg:type="㇕b" transform="matrix(1,0,0,1,896,-4)" xmlns:kvg="http://kanjivg.tagaini.net"></path><path class="stroke_order_diagram--current_path" d="M54.38,68.82c8.28-0.93,21.98-2.52,28.63-3.24c3.36-0.37,5.61,0.05,4.71,3.94c-1.03,4.53-2.38,11.04-3.8,16.59" id="Ske25rqjy2t" kvg:type="㇕b" transform="matrix(1,0,0,1,896,-4)" xmlns:kvg="http://kanjivg.tagaini.net"></path><circle class="stroke_order_diagram--path_start" cx="54.38" cy="68.82" r="4" transform="matrix(1,0,0,1,896,-4)"></circle><line class="stroke_order_diagram--guide_line" x1="1050" x2="1050" y1="1" y2="99"></line><line class="stroke_order_diagram--bounding_box" x1="1099" x2="1099" y1="1" y2="99"></line><path class="stroke_order_diagram--existing_path" d="M13.25,43.14c1.33,0.67,3.68,0.52,5.12,0.33c5.38-0.69,14.71-2.19,19.38-2.72c1.25-0.14,2.62-0.18,3.25,0.01" id="Ske25rqjy2w" kvg:type="㇐" transform="matrix(1,0,0,1,996,-4)" xmlns:kvg="http://kanjivg.tagaini.net"></path><path class="stroke_order_diagram--existing_path" d="M27.87,18.5c1.06,1.06,1.21,2.38,1.21,3.75c0,7.25,0.03,34.75,0.03,45.5" id="Ske25rqjy2x" kvg:type="㇑a" transform="matrix(1,0,0,1,996,-4)" xmlns:kvg="http://kanjivg.tagaini.net"></path><path class="stroke_order_diagram--existing_path" d="M13.75,76.54c0.75,0.96,2.12,0.96,4-0.29c7.28-4.85,14.62-9.5,22.5-14.5" id="Ske25rqjy2y" kvg:type="㇀/㇐" transform="matrix(1,0,0,1,996,-4)" xmlns:kvg="http://kanjivg.tagaini.net"></path><path class="stroke_order_diagram--existing_path" d="M68.21,13.25c1.14,1.14,1.32,2.12,1.32,3.92c0,2.39,0,6.83,0,9.9" id="Ske25rqjy2z" kvg:type="㇑a" transform="matrix(1,0,0,1,996,-4)" xmlns:kvg="http://kanjivg.tagaini.net"></path><path class="stroke_order_diagram--existing_path" d="M47.5,30.25c2.5,0.25,4.92,0.34,7.28,0.03c7.97-1.03,20.04-2.71,28.74-3.28c2.43-0.16,4.82-0.24,7.23,0.17" id="Ske25rqjy30" kvg:type="㇐" transform="matrix(1,0,0,1,996,-4)" xmlns:kvg="http://kanjivg.tagaini.net"></path><path class="stroke_order_diagram--existing_path" d="M55.75,37.2c3.56,4.7,5.18,9.5,5.5,12.6" id="Ske25rqjy31" kvg:type="㇔" transform="matrix(1,0,0,1,996,-4)" xmlns:kvg="http://kanjivg.tagaini.net"></path><path class="stroke_order_diagram--existing_path" d="M81.48,31.51c0.42,1.11,0.32,1.96-0.01,3c-1.6,5.11-4.35,10.98-7.22,15.51" id="Ske25rqjy32" kvg:type="㇒" transform="matrix(1,0,0,1,996,-4)" xmlns:kvg="http://kanjivg.tagaini.net"></path><path class="stroke_order_diagram--existing_path" d="M44,55.51c2.43,0.64,5.3,0.63,7.77,0.29c14.1-1.93,23.85-2.93,38.73-3.98c2.54-0.18,4.98-0.13,7.5,0.27" id="Ske25rqjy33" kvg:type="㇐" transform="matrix(1,0,0,1,996,-4)" xmlns:kvg="http://kanjivg.tagaini.net"></path><path class="stroke_order_diagram--existing_path" d="M52,67.44c0.8,0.74,1.45,1.71,1.64,2.8c0.98,5.63,1.96,11.17,2.75,17.27C56.6,89.14,56.81,90.67,57,92" id="Ske25rqjy34" kvg:type="㇑" transform="matrix(1,0,0,1,996,-4)" xmlns:kvg="http://kanjivg.tagaini.net"></path><path class="stroke_order_diagram--existing_path" d="M54.38,68.82c8.28-0.93,21.98-2.52,28.63-3.24c3.36-0.37,5.61,0.05,4.71,3.94c-1.03,4.53-2.38,11.04-3.8,16.59" id="Ske25rqjy35" kvg:type="㇕b" transform="matrix(1,0,0,1,996,-4)" xmlns:kvg="http://kanjivg.tagaini.net"></path><path class="stroke_order_diagram--current_path" d="M57.7,89.36c4.79-0.47,15.74-1.23,23.82-1.97c1.71-0.16,3.36-0.22,4.7-0.22" id="kvg:057f9-s11" kvg:type="㇐b" transform="matrix(1,0,0,1,996,-4)" xmlns:kvg="http://kanjivg.tagaini.net"></path><path class="stroke_order_diagram--current_path" d="M57.7,89.36c4.79-0.47,15.74-1.23,23.82-1.97c1.71-0.16,3.36-0.22,4.7-0.22" id="Ske25rqjy37" kvg:type="㇐b" transform="matrix(1,0,0,1,996,-4)" xmlns:kvg="http://kanjivg.tagaini.net"></path><circle class="stroke_order_diagram--path_start" cx="57.7" cy="89.36" r="4" transform="matrix(1,0,0,1,996,-4)"></circle></svg>