<svg class="stroke_order_diagram--svg_container_for_5186627fd5dda79658000396" style="height: 100px; width: 1700px;" viewbox="0 0 1700 100"><desc>Created with Snap</desc><defs></defs><line class="stroke_order_diagram--bounding_box" x1="1" x2="1699" y1="1" y2="1"></line><line class="stroke_order_diagram--bounding_box" x1="1" x2="1" y1="1" y2="99"></line><line class="stroke_order_diagram--bounding_box" x1="1" x2="1699" y1="99" y2="99"></line><line class="stroke_order_diagram--guide_line" x1="0" x2="1700" y1="50" y2="50"></line><line class="stroke_order_diagram--guide_line" x1="50" x2="50" y1="1" y2="99"></line><line class="stroke_order_diagram--bounding_box" x1="99" x2="99" y1="1" y2="99"></line><path class="stroke_order_diagram--current_path" d="M12.25,42.89c2.09,0.44,4.18,0.48,6.29,0.12c4.47-0.69,10.3-1.7,14.59-2.28c1.7-0.29,3.4-0.62,5.13-0.48" id="kvg:058d5-s1" kvg:type="㇐" transform="matrix(1,0,0,1,-4,-4)" xmlns:kvg="http://kanjivg.tagaini.net"></path><path class="stroke_order_diagram--current_path" d="M12.25,42.89c2.09,0.44,4.18,0.48,6.29,0.12c4.47-0.69,10.3-1.7,14.59-2.28c1.7-0.29,3.4-0.62,5.13-0.48" id="Ske1ulfg1q" kvg:type="㇐" transform="matrix(1,0,0,1,-4,-4)" xmlns:kvg="http://kanjivg.tagaini.net"></path><circle class="stroke_order_diagram--path_start" cx="12.25" cy="42.89" r="4" transform="matrix(1,0,0,1,-4,-4)"></circle><line class="stroke_order_diagram--guide_line" x1="150" x2="150" y1="1" y2="99"></line><line class="stroke_order_diagram--bounding_box" x1="199" x2="199" y1="1" y2="99"></line><path class="stroke_order_diagram--existing_path" d="M12.25,42.89c2.09,0.44,4.18,0.48,6.29,0.12c4.47-0.69,10.3-1.7,14.59-2.28c1.7-0.29,3.4-0.62,5.13-0.48" id="Ske1ulfg1t" kvg:type="㇐" transform="matrix(1,0,0,1,96,-4)" xmlns:kvg="http://kanjivg.tagaini.net"></path><path class="stroke_order_diagram--current_path" d="M25.37,20.5c1,1,0.96,1.88,0.96,3c0,1.02,0.03,36.5,0.03,43.75" id="kvg:058d5-s2" kvg:type="㇑a" transform="matrix(1,0,0,1,96,-4)" xmlns:kvg="http://kanjivg.tagaini.net"></path><path class="stroke_order_diagram--current_path" d="M25.37,20.5c1,1,0.96,1.88,0.96,3c0,1.02,0.03,36.5,0.03,43.75" id="Ske1ulfg1v" kvg:type="㇑a" transform="matrix(1,0,0,1,96,-4)" xmlns:kvg="http://kanjivg.tagaini.net"></path><circle class="stroke_order_diagram--path_start" cx="25.37" cy="20.5" r="4" transform="matrix(1,0,0,1,96,-4)"></circle><line class="stroke_order_diagram--guide_line" x1="250" x2="250" y1="1" y2="99"></line><line class="stroke_order_diagram--bounding_box" x1="299" x2="299" y1="1" y2="99"></line><path class="stroke_order_diagram--existing_path" d="M12.25,42.89c2.09,0.44,4.18,0.48,6.29,0.12c4.47-0.69,10.3-1.7,14.59-2.28c1.7-0.29,3.4-0.62,5.13-0.48" id="Ske1ulfg1y" kvg:type="㇐" transform="matrix(1,0,0,1,196,-4)" xmlns:kvg="http://kanjivg.tagaini.net"></path><path class="stroke_order_diagram--existing_path" d="M25.37,20.5c1,1,0.96,1.88,0.96,3c0,1.02,0.03,36.5,0.03,43.75" id="Ske1ulfg1z" kvg:type="㇑a" transform="matrix(1,0,0,1,196,-4)" xmlns:kvg="http://kanjivg.tagaini.net"></path><path class="stroke_order_diagram--current_path" d="M11.75,74.87c1.38,1,2.9,0.61,4.69-0.51C23.88,69.75,28,67,35.25,62.25" id="kvg:058d5-s3" kvg:type="㇀/㇐" transform="matrix(1,0,0,1,196,-4)" xmlns:kvg="http://kanjivg.tagaini.net"></path><path class="stroke_order_diagram--current_path" d="M11.75,74.87c1.38,1,2.9,0.61,4.69-0.51C23.88,69.75,28,67,35.25,62.25" id="Ske1ulfg111" kvg:type="㇀/㇐" transform="matrix(1,0,0,1,196,-4)" xmlns:kvg="http://kanjivg.tagaini.net"></path><circle class="stroke_order_diagram--path_start" cx="11.75" cy="74.87" r="4" transform="matrix(1,0,0,1,196,-4)"></circle><line class="stroke_order_diagram--guide_line" x1="350" x2="350" y1="1" y2="99"></line><line class="stroke_order_diagram--bounding_box" x1="399" x2="399" y1="1" y2="99"></line><path class="stroke_order_diagram--existing_path" d="M12.25,42.89c2.09,0.44,4.18,0.48,6.29,0.12c4.47-0.69,10.3-1.7,14.59-2.28c1.7-0.29,3.4-0.62,5.13-0.48" id="Ske1ulfg114" kvg:type="㇐" transform="matrix(1,0,0,1,296,-4)" xmlns:kvg="http://kanjivg.tagaini.net"></path><path class="stroke_order_diagram--existing_path" d="M25.37,20.5c1,1,0.96,1.88,0.96,3c0,1.02,0.03,36.5,0.03,43.75" id="Ske1ulfg115" kvg:type="㇑a" transform="matrix(1,0,0,1,296,-4)" xmlns:kvg="http://kanjivg.tagaini.net"></path><path class="stroke_order_diagram--existing_path" d="M11.75,74.87c1.38,1,2.9,0.61,4.69-0.51C23.88,69.75,28,67,35.25,62.25" id="Ske1ulfg116" kvg:type="㇀/㇐" transform="matrix(1,0,0,1,296,-4)" xmlns:kvg="http://kanjivg.tagaini.net"></path><path class="stroke_order_diagram--current_path" d="M62.94,9.96c0.99,0.99,1.12,1.92,1.12,2.9c0,2.03-0.07,3.62-0.07,5.27" id="kvg:058d5-s4" kvg:type="㇑a" transform="matrix(1,0,0,1,296,-4)" xmlns:kvg="http://kanjivg.tagaini.net"></path><path class="stroke_order_diagram--current_path" d="M62.94,9.96c0.99,0.99,1.12,1.92,1.12,2.9c0,2.03-0.07,3.62-0.07,5.27" id="Ske1ulfg118" kvg:type="㇑a" transform="matrix(1,0,0,1,296,-4)" xmlns:kvg="http://kanjivg.tagaini.net"></path><circle class="stroke_order_diagram--path_start" cx="62.94" cy="9.96" r="4" transform="matrix(1,0,0,1,296,-4)"></circle><line class="stroke_order_diagram--guide_line" x1="450" x2="450" y1="1" y2="99"></line><line class="stroke_order_diagram--bounding_box" x1="499" x2="499" y1="1" y2="99"></line><path class="stroke_order_diagram--existing_path" d="M12.25,42.89c2.09,0.44,4.18,0.48,6.29,0.12c4.47-0.69,10.3-1.7,14.59-2.28c1.7-0.29,3.4-0.62,5.13-0.48" id="Ske1ulfg11b" kvg:type="㇐" transform="matrix(1,0,0,1,396,-4)" xmlns:kvg="http://kanjivg.tagaini.net"></path><path class="stroke_order_diagram--existing_path" d="M25.37,20.5c1,1,0.96,1.88,0.96,3c0,1.02,0.03,36.5,0.03,43.75" id="Ske1ulfg11c" kvg:type="㇑a" transform="matrix(1,0,0,1,396,-4)" xmlns:kvg="http://kanjivg.tagaini.net"></path><path class="stroke_order_diagram--existing_path" d="M11.75,74.87c1.38,1,2.9,0.61,4.69-0.51C23.88,69.75,28,67,35.25,62.25" id="Ske1ulfg11d" kvg:type="㇀/㇐" transform="matrix(1,0,0,1,396,-4)" xmlns:kvg="http://kanjivg.tagaini.net"></path><path class="stroke_order_diagram--existing_path" d="M62.94,9.96c0.99,0.99,1.12,1.92,1.12,2.9c0,2.03-0.07,3.62-0.07,5.27" id="Ske1ulfg11e" kvg:type="㇑a" transform="matrix(1,0,0,1,396,-4)" xmlns:kvg="http://kanjivg.tagaini.net"></path><path class="stroke_order_diagram--current_path" d="M43.82,20.59c2.69,0.56,5.32,0.22,8.07-0.13c8.49-1.08,21.68-2.67,29.75-3.08c2.1-0.11,4.11-0.34,6.12,0.24" id="kvg:058d5-s5" kvg:type="㇐" transform="matrix(1,0,0,1,396,-4)" xmlns:kvg="http://kanjivg.tagaini.net"></path><path class="stroke_order_diagram--current_path" d="M43.82,20.59c2.69,0.56,5.32,0.22,8.07-0.13c8.49-1.08,21.68-2.67,29.75-3.08c2.1-0.11,4.11-0.34,6.12,0.24" id="Ske1ulfg11g" kvg:type="㇐" transform="matrix(1,0,0,1,396,-4)" xmlns:kvg="http://kanjivg.tagaini.net"></path><circle class="stroke_order_diagram--path_start" cx="43.82" cy="20.59" r="4" transform="matrix(1,0,0,1,396,-4)"></circle><line class="stroke_order_diagram--guide_line" x1="550" x2="550" y1="1" y2="99"></line><line class="stroke_order_diagram--bounding_box" x1="599" x2="599" y1="1" y2="99"></line><path class="stroke_order_diagram--existing_path" d="M12.25,42.89c2.09,0.44,4.18,0.48,6.29,0.12c4.47-0.69,10.3-1.7,14.59-2.28c1.7-0.29,3.4-0.62,5.13-0.48" id="Ske1ulfg11j" kvg:type="㇐" transform="matrix(1,0,0,1,496,-4)" xmlns:kvg="http://kanjivg.tagaini.net"></path><path class="stroke_order_diagram--existing_path" d="M25.37,20.5c1,1,0.96,1.88,0.96,3c0,1.02,0.03,36.5,0.03,43.75" id="Ske1ulfg11k" kvg:type="㇑a" transform="matrix(1,0,0,1,496,-4)" xmlns:kvg="http://kanjivg.tagaini.net"></path><path class="stroke_order_diagram--existing_path" d="M11.75,74.87c1.38,1,2.9,0.61,4.69-0.51C23.88,69.75,28,67,35.25,62.25" id="Ske1ulfg11l" kvg:type="㇀/㇐" transform="matrix(1,0,0,1,496,-4)" xmlns:kvg="http://kanjivg.tagaini.net"></path><path class="stroke_order_diagram--existing_path" d="M62.94,9.96c0.99,0.99,1.12,1.92,1.12,2.9c0,2.03-0.07,3.62-0.07,5.27" id="Ske1ulfg11m" kvg:type="㇑a" transform="matrix(1,0,0,1,496,-4)" xmlns:kvg="http://kanjivg.tagaini.net"></path><path class="stroke_order_diagram--existing_path" d="M43.82,20.59c2.69,0.56,5.32,0.22,8.07-0.13c8.49-1.08,21.68-2.67,29.75-3.08c2.1-0.11,4.11-0.34,6.12,0.24" id="Ske1ulfg11n" kvg:type="㇐" transform="matrix(1,0,0,1,496,-4)" xmlns:kvg="http://kanjivg.tagaini.net"></path><path class="stroke_order_diagram--current_path" d="M52.36,27.26c0.75,0.75,0.91,1.31,1.16,2.23c0.42,1.58,0.83,3.27,1.18,4.89c0.26,1.21,0.49,2.39,0.68,3.46" id="kvg:058d5-s6" kvg:type="㇑" transform="matrix(1,0,0,1,496,-4)" xmlns:kvg="http://kanjivg.tagaini.net"></path><path class="stroke_order_diagram--current_path" d="M52.36,27.26c0.75,0.75,0.91,1.31,1.16,2.23c0.42,1.58,0.83,3.27,1.18,4.89c0.26,1.21,0.49,2.39,0.68,3.46" id="Ske1ulfg11p" kvg:type="㇑" transform="matrix(1,0,0,1,496,-4)" xmlns:kvg="http://kanjivg.tagaini.net"></path><circle class="stroke_order_diagram--path_start" cx="52.36" cy="27.26" r="4" transform="matrix(1,0,0,1,496,-4)"></circle><line class="stroke_order_diagram--guide_line" x1="650" x2="650" y1="1" y2="99"></line><line class="stroke_order_diagram--bounding_box" x1="699" x2="699" y1="1" y2="99"></line><path class="stroke_order_diagram--existing_path" d="M12.25,42.89c2.09,0.44,4.18,0.48,6.29,0.12c4.47-0.69,10.3-1.7,14.59-2.28c1.7-0.29,3.4-0.62,5.13-0.48" id="Ske1ulfg11s" kvg:type="㇐" transform="matrix(1,0,0,1,596,-4)" xmlns:kvg="http://kanjivg.tagaini.net"></path><path class="stroke_order_diagram--existing_path" d="M25.37,20.5c1,1,0.96,1.88,0.96,3c0,1.02,0.03,36.5,0.03,43.75" id="Ske1ulfg11t" kvg:type="㇑a" transform="matrix(1,0,0,1,596,-4)" xmlns:kvg="http://kanjivg.tagaini.net"></path><path class="stroke_order_diagram--existing_path" d="M11.75,74.87c1.38,1,2.9,0.61,4.69-0.51C23.88,69.75,28,67,35.25,62.25" id="Ske1ulfg11u" kvg:type="㇀/㇐" transform="matrix(1,0,0,1,596,-4)" xmlns:kvg="http://kanjivg.tagaini.net"></path><path class="stroke_order_diagram--existing_path" d="M62.94,9.96c0.99,0.99,1.12,1.92,1.12,2.9c0,2.03-0.07,3.62-0.07,5.27" id="Ske1ulfg11v" kvg:type="㇑a" transform="matrix(1,0,0,1,596,-4)" xmlns:kvg="http://kanjivg.tagaini.net"></path><path class="stroke_order_diagram--existing_path" d="M43.82,20.59c2.69,0.56,5.32,0.22,8.07-0.13c8.49-1.08,21.68-2.67,29.75-3.08c2.1-0.11,4.11-0.34,6.12,0.24" id="Ske1ulfg11w" kvg:type="㇐" transform="matrix(1,0,0,1,596,-4)" xmlns:kvg="http://kanjivg.tagaini.net"></path><path class="stroke_order_diagram--existing_path" d="M52.36,27.26c0.75,0.75,0.91,1.31,1.16,2.23c0.42,1.58,0.83,3.27,1.18,4.89c0.26,1.21,0.49,2.39,0.68,3.46" id="Ske1ulfg11x" kvg:type="㇑" transform="matrix(1,0,0,1,596,-4)" xmlns:kvg="http://kanjivg.tagaini.net"></path><path class="stroke_order_diagram--current_path" d="M53.81,27.88c5.17-0.68,16.27-2.38,20.58-2.89c3.17-0.37,3.91,1.05,3.24,3.04c-0.75,2.22-0.89,2.43-2,5.09" id="kvg:058d5-s7" kvg:type="㇕b" transform="matrix(1,0,0,1,596,-4)" xmlns:kvg="http://kanjivg.tagaini.net"></path><path class="stroke_order_diagram--current_path" d="M53.81,27.88c5.17-0.68,16.27-2.38,20.58-2.89c3.17-0.37,3.91,1.05,3.24,3.04c-0.75,2.22-0.89,2.43-2,5.09" id="Ske1ulfg11z" kvg:type="㇕b" transform="matrix(1,0,0,1,596,-4)" xmlns:kvg="http://kanjivg.tagaini.net"></path><circle class="stroke_order_diagram--path_start" cx="53.81" cy="27.88" r="4" transform="matrix(1,0,0,1,596,-4)"></circle><line class="stroke_order_diagram--guide_line" x1="750" x2="750" y1="1" y2="99"></line><line class="stroke_order_diagram--bounding_box" x1="799" x2="799" y1="1" y2="99"></line><path class="stroke_order_diagram--existing_path" d="M12.25,42.89c2.09,0.44,4.18,0.48,6.29,0.12c4.47-0.69,10.3-1.7,14.59-2.28c1.7-0.29,3.4-0.62,5.13-0.48" id="Ske1ulfg122" kvg:type="㇐" transform="matrix(1,0,0,1,696,-4)" xmlns:kvg="http://kanjivg.tagaini.net"></path><path class="stroke_order_diagram--existing_path" d="M25.37,20.5c1,1,0.96,1.88,0.96,3c0,1.02,0.03,36.5,0.03,43.75" id="Ske1ulfg123" kvg:type="㇑a" transform="matrix(1,0,0,1,696,-4)" xmlns:kvg="http://kanjivg.tagaini.net"></path><path class="stroke_order_diagram--existing_path" d="M11.75,74.87c1.38,1,2.9,0.61,4.69-0.51C23.88,69.75,28,67,35.25,62.25" id="Ske1ulfg124" kvg:type="㇀/㇐" transform="matrix(1,0,0,1,696,-4)" xmlns:kvg="http://kanjivg.tagaini.net"></path><path class="stroke_order_diagram--existing_path" d="M62.94,9.96c0.99,0.99,1.12,1.92,1.12,2.9c0,2.03-0.07,3.62-0.07,5.27" id="Ske1ulfg125" kvg:type="㇑a" transform="matrix(1,0,0,1,696,-4)" xmlns:kvg="http://kanjivg.tagaini.net"></path><path class="stroke_order_diagram--existing_path" d="M43.82,20.59c2.69,0.56,5.32,0.22,8.07-0.13c8.49-1.08,21.68-2.67,29.75-3.08c2.1-0.11,4.11-0.34,6.12,0.24" id="Ske1ulfg126" kvg:type="㇐" transform="matrix(1,0,0,1,696,-4)" xmlns:kvg="http://kanjivg.tagaini.net"></path><path class="stroke_order_diagram--existing_path" d="M52.36,27.26c0.75,0.75,0.91,1.31,1.16,2.23c0.42,1.58,0.83,3.27,1.18,4.89c0.26,1.21,0.49,2.39,0.68,3.46" id="Ske1ulfg127" kvg:type="㇑" transform="matrix(1,0,0,1,696,-4)" xmlns:kvg="http://kanjivg.tagaini.net"></path><path class="stroke_order_diagram--existing_path" d="M53.81,27.88c5.17-0.68,16.27-2.38,20.58-2.89c3.17-0.37,3.91,1.05,3.24,3.04c-0.75,2.22-0.89,2.43-2,5.09" id="Ske1ulfg128" kvg:type="㇕b" transform="matrix(1,0,0,1,696,-4)" xmlns:kvg="http://kanjivg.tagaini.net"></path><path class="stroke_order_diagram--current_path" d="M56.24,36.15c2.71-0.23,11.64-1.14,17.51-1.67c1.64-0.15,3.03-0.26,3.99-0.33" id="kvg:058d5-s8" kvg:type="㇐b" transform="matrix(1,0,0,1,696,-4)" xmlns:kvg="http://kanjivg.tagaini.net"></path><path class="stroke_order_diagram--current_path" d="M56.24,36.15c2.71-0.23,11.64-1.14,17.51-1.67c1.64-0.15,3.03-0.26,3.99-0.33" id="Ske1ulfg12a" kvg:type="㇐b" transform="matrix(1,0,0,1,696,-4)" xmlns:kvg="http://kanjivg.tagaini.net"></path><circle class="stroke_order_diagram--path_start" cx="56.24" cy="36.15" r="4" transform="matrix(1,0,0,1,696,-4)"></circle><line class="stroke_order_diagram--guide_line" x1="850" x2="850" y1="1" y2="99"></line><line class="stroke_order_diagram--bounding_box" x1="899" x2="899" y1="1" y2="99"></line><path class="stroke_order_diagram--existing_path" d="M12.25,42.89c2.09,0.44,4.18,0.48,6.29,0.12c4.47-0.69,10.3-1.7,14.59-2.28c1.7-0.29,3.4-0.62,5.13-0.48" id="Ske1ulfg12d" kvg:type="㇐" transform="matrix(1,0,0,1,796,-4)" xmlns:kvg="http://kanjivg.tagaini.net"></path><path class="stroke_order_diagram--existing_path" d="M25.37,20.5c1,1,0.96,1.88,0.96,3c0,1.02,0.03,36.5,0.03,43.75" id="Ske1ulfg12e" kvg:type="㇑a" transform="matrix(1,0,0,1,796,-4)" xmlns:kvg="http://kanjivg.tagaini.net"></path><path class="stroke_order_diagram--existing_path" d="M11.75,74.87c1.38,1,2.9,0.61,4.69-0.51C23.88,69.75,28,67,35.25,62.25" id="Ske1ulfg12f" kvg:type="㇀/㇐" transform="matrix(1,0,0,1,796,-4)" xmlns:kvg="http://kanjivg.tagaini.net"></path><path class="stroke_order_diagram--existing_path" d="M62.94,9.96c0.99,0.99,1.12,1.92,1.12,2.9c0,2.03-0.07,3.62-0.07,5.27" id="Ske1ulfg12g" kvg:type="㇑a" transform="matrix(1,0,0,1,796,-4)" xmlns:kvg="http://kanjivg.tagaini.net"></path><path class="stroke_order_diagram--existing_path" d="M43.82,20.59c2.69,0.56,5.32,0.22,8.07-0.13c8.49-1.08,21.68-2.67,29.75-3.08c2.1-0.11,4.11-0.34,6.12,0.24" id="Ske1ulfg12h" kvg:type="㇐" transform="matrix(1,0,0,1,796,-4)" xmlns:kvg="http://kanjivg.tagaini.net"></path><path class="stroke_order_diagram--existing_path" d="M52.36,27.26c0.75,0.75,0.91,1.31,1.16,2.23c0.42,1.58,0.83,3.27,1.18,4.89c0.26,1.21,0.49,2.39,0.68,3.46" id="Ske1ulfg12i" kvg:type="㇑" transform="matrix(1,0,0,1,796,-4)" xmlns:kvg="http://kanjivg.tagaini.net"></path><path class="stroke_order_diagram--existing_path" d="M53.81,27.88c5.17-0.68,16.27-2.38,20.58-2.89c3.17-0.37,3.91,1.05,3.24,3.04c-0.75,2.22-0.89,2.43-2,5.09" id="Ske1ulfg12j" kvg:type="㇕b" transform="matrix(1,0,0,1,796,-4)" xmlns:kvg="http://kanjivg.tagaini.net"></path><path class="stroke_order_diagram--existing_path" d="M56.24,36.15c2.71-0.23,11.64-1.14,17.51-1.67c1.64-0.15,3.03-0.26,3.99-0.33" id="Ske1ulfg12k" kvg:type="㇐b" transform="matrix(1,0,0,1,796,-4)" xmlns:kvg="http://kanjivg.tagaini.net"></path><path class="stroke_order_diagram--current_path" d="M44.63,43.63c0,2.57-2.08,9.9-2.9,11.62" id="kvg:058d5-s9" kvg:type="㇔" transform="matrix(1,0,0,1,796,-4)" xmlns:kvg="http://kanjivg.tagaini.net"></path><path class="stroke_order_diagram--current_path" d="M44.63,43.63c0,2.57-2.08,9.9-2.9,11.62" id="Ske1ulfg12m" kvg:type="㇔" transform="matrix(1,0,0,1,796,-4)" xmlns:kvg="http://kanjivg.tagaini.net"></path><circle class="stroke_order_diagram--path_start" cx="44.63" cy="43.63" r="4" transform="matrix(1,0,0,1,796,-4)"></circle><line class="stroke_order_diagram--guide_line" x1="950" x2="950" y1="1" y2="99"></line><line class="stroke_order_diagram--bounding_box" x1="999" x2="999" y1="1" y2="99"></line><path class="stroke_order_diagram--existing_path" d="M12.25,42.89c2.09,0.44,4.18,0.48,6.29,0.12c4.47-0.69,10.3-1.7,14.59-2.28c1.7-0.29,3.4-0.62,5.13-0.48" id="Ske1ulfg12p" kvg:type="㇐" transform="matrix(1,0,0,1,896,-4)" xmlns:kvg="http://kanjivg.tagaini.net"></path><path class="stroke_order_diagram--existing_path" d="M25.37,20.5c1,1,0.96,1.88,0.96,3c0,1.02,0.03,36.5,0.03,43.75" id="Ske1ulfg12q" kvg:type="㇑a" transform="matrix(1,0,0,1,896,-4)" xmlns:kvg="http://kanjivg.tagaini.net"></path><path class="stroke_order_diagram--existing_path" d="M11.75,74.87c1.38,1,2.9,0.61,4.69-0.51C23.88,69.75,28,67,35.25,62.25" id="Ske1ulfg12r" kvg:type="㇀/㇐" transform="matrix(1,0,0,1,896,-4)" xmlns:kvg="http://kanjivg.tagaini.net"></path><path class="stroke_order_diagram--existing_path" d="M62.94,9.96c0.99,0.99,1.12,1.92,1.12,2.9c0,2.03-0.07,3.62-0.07,5.27" id="Ske1ulfg12s" kvg:type="㇑a" transform="matrix(1,0,0,1,896,-4)" xmlns:kvg="http://kanjivg.tagaini.net"></path><path class="stroke_order_diagram--existing_path" d="M43.82,20.59c2.69,0.56,5.32,0.22,8.07-0.13c8.49-1.08,21.68-2.67,29.75-3.08c2.1-0.11,4.11-0.34,6.12,0.24" id="Ske1ulfg12t" kvg:type="㇐" transform="matrix(1,0,0,1,896,-4)" xmlns:kvg="http://kanjivg.tagaini.net"></path><path class="stroke_order_diagram--existing_path" d="M52.36,27.26c0.75,0.75,0.91,1.31,1.16,2.23c0.42,1.58,0.83,3.27,1.18,4.89c0.26,1.21,0.49,2.39,0.68,3.46" id="Ske1ulfg12u" kvg:type="㇑" transform="matrix(1,0,0,1,896,-4)" xmlns:kvg="http://kanjivg.tagaini.net"></path><path class="stroke_order_diagram--existing_path" d="M53.81,27.88c5.17-0.68,16.27-2.38,20.58-2.89c3.17-0.37,3.91,1.05,3.24,3.04c-0.75,2.22-0.89,2.43-2,5.09" id="Ske1ulfg12v" kvg:type="㇕b" transform="matrix(1,0,0,1,896,-4)" xmlns:kvg="http://kanjivg.tagaini.net"></path><path class="stroke_order_diagram--existing_path" d="M56.24,36.15c2.71-0.23,11.64-1.14,17.51-1.67c1.64-0.15,3.03-0.26,3.99-0.33" id="Ske1ulfg12w" kvg:type="㇐b" transform="matrix(1,0,0,1,896,-4)" xmlns:kvg="http://kanjivg.tagaini.net"></path><path class="stroke_order_diagram--existing_path" d="M44.63,43.63c0,2.57-2.08,9.9-2.9,11.62" id="Ske1ulfg12x" kvg:type="㇔" transform="matrix(1,0,0,1,896,-4)" xmlns:kvg="http://kanjivg.tagaini.net"></path><path class="stroke_order_diagram--current_path" d="M45.3,46.49C61.12,44,74.12,42.5,88.79,41.34c6.7-0.53,2.21,5.16-2.35,8.28" id="kvg:058d5-s10" kvg:type="㇖b" transform="matrix(1,0,0,1,896,-4)" xmlns:kvg="http://kanjivg.tagaini.net"></path><path class="stroke_order_diagram--current_path" d="M45.3,46.49C61.12,44,74.12,42.5,88.79,41.34c6.7-0.53,2.21,5.16-2.35,8.28" id="Ske1ulfg12z" kvg:type="㇖b" transform="matrix(1,0,0,1,896,-4)" xmlns:kvg="http://kanjivg.tagaini.net"></path><circle class="stroke_order_diagram--path_start" cx="45.3" cy="46.49" r="4" transform="matrix(1,0,0,1,896,-4)"></circle><line class="stroke_order_diagram--guide_line" x1="1050" x2="1050" y1="1" y2="99"></line><line class="stroke_order_diagram--bounding_box" x1="1099" x2="1099" y1="1" y2="99"></line><path class="stroke_order_diagram--existing_path" d="M12.25,42.89c2.09,0.44,4.18,0.48,6.29,0.12c4.47-0.69,10.3-1.7,14.59-2.28c1.7-0.29,3.4-0.62,5.13-0.48" id="Ske1ulfg132" kvg:type="㇐" transform="matrix(1,0,0,1,996,-4)" xmlns:kvg="http://kanjivg.tagaini.net"></path><path class="stroke_order_diagram--existing_path" d="M25.37,20.5c1,1,0.96,1.88,0.96,3c0,1.02,0.03,36.5,0.03,43.75" id="Ske1ulfg133" kvg:type="㇑a" transform="matrix(1,0,0,1,996,-4)" xmlns:kvg="http://kanjivg.tagaini.net"></path><path class="stroke_order_diagram--existing_path" d="M11.75,74.87c1.38,1,2.9,0.61,4.69-0.51C23.88,69.75,28,67,35.25,62.25" id="Ske1ulfg134" kvg:type="㇀/㇐" transform="matrix(1,0,0,1,996,-4)" xmlns:kvg="http://kanjivg.tagaini.net"></path><path class="stroke_order_diagram--existing_path" d="M62.94,9.96c0.99,0.99,1.12,1.92,1.12,2.9c0,2.03-0.07,3.62-0.07,5.27" id="Ske1ulfg135" kvg:type="㇑a" transform="matrix(1,0,0,1,996,-4)" xmlns:kvg="http://kanjivg.tagaini.net"></path><path class="stroke_order_diagram--existing_path" d="M43.82,20.59c2.69,0.56,5.32,0.22,8.07-0.13c8.49-1.08,21.68-2.67,29.75-3.08c2.1-0.11,4.11-0.34,6.12,0.24" id="Ske1ulfg136" kvg:type="㇐" transform="matrix(1,0,0,1,996,-4)" xmlns:kvg="http://kanjivg.tagaini.net"></path><path class="stroke_order_diagram--existing_path" d="M52.36,27.26c0.75,0.75,0.91,1.31,1.16,2.23c0.42,1.58,0.83,3.27,1.18,4.89c0.26,1.21,0.49,2.39,0.68,3.46" id="Ske1ulfg137" kvg:type="㇑" transform="matrix(1,0,0,1,996,-4)" xmlns:kvg="http://kanjivg.tagaini.net"></path><path class="stroke_order_diagram--existing_path" d="M53.81,27.88c5.17-0.68,16.27-2.38,20.58-2.89c3.17-0.37,3.91,1.05,3.24,3.04c-0.75,2.22-0.89,2.43-2,5.09" id="Ske1ulfg138" kvg:type="㇕b" transform="matrix(1,0,0,1,996,-4)" xmlns:kvg="http://kanjivg.tagaini.net"></path><path class="stroke_order_diagram--existing_path" d="M56.24,36.15c2.71-0.23,11.64-1.14,17.51-1.67c1.64-0.15,3.03-0.26,3.99-0.33" id="Ske1ulfg139" kvg:type="㇐b" transform="matrix(1,0,0,1,996,-4)" xmlns:kvg="http://kanjivg.tagaini.net"></path><path class="stroke_order_diagram--existing_path" d="M44.63,43.63c0,2.57-2.08,9.9-2.9,11.62" id="Ske1ulfg13a" kvg:type="㇔" transform="matrix(1,0,0,1,996,-4)" xmlns:kvg="http://kanjivg.tagaini.net"></path><path class="stroke_order_diagram--existing_path" d="M45.3,46.49C61.12,44,74.12,42.5,88.79,41.34c6.7-0.53,2.21,5.16-2.35,8.28" id="Ske1ulfg13b" kvg:type="㇖b" transform="matrix(1,0,0,1,996,-4)" xmlns:kvg="http://kanjivg.tagaini.net"></path><path class="stroke_order_diagram--current_path" d="M49.03,54.26c1.95,0.61,3.95,0.97,5.97,0.71c5.75-0.72,12.88-1.85,18.4-3.03c1.83-0.39,3.51-0.72,5.3-0.16" id="kvg:058d5-s11" kvg:type="㇐" transform="matrix(1,0,0,1,996,-4)" xmlns:kvg="http://kanjivg.tagaini.net"></path><path class="stroke_order_diagram--current_path" d="M49.03,54.26c1.95,0.61,3.95,0.97,5.97,0.71c5.75-0.72,12.88-1.85,18.4-3.03c1.83-0.39,3.51-0.72,5.3-0.16" id="Ske1ulfg13d" kvg:type="㇐" transform="matrix(1,0,0,1,996,-4)" xmlns:kvg="http://kanjivg.tagaini.net"></path><circle class="stroke_order_diagram--path_start" cx="49.03" cy="54.26" r="4" transform="matrix(1,0,0,1,996,-4)"></circle><line class="stroke_order_diagram--guide_line" x1="1150" x2="1150" y1="1" y2="99"></line><line class="stroke_order_diagram--bounding_box" x1="1199" x2="1199" y1="1" y2="99"></line><path class="stroke_order_diagram--existing_path" d="M12.25,42.89c2.09,0.44,4.18,0.48,6.29,0.12c4.47-0.69,10.3-1.7,14.59-2.28c1.7-0.29,3.4-0.62,5.13-0.48" id="Ske1ulfg13g" kvg:type="㇐" transform="matrix(1,0,0,1,1096,-4)" xmlns:kvg="http://kanjivg.tagaini.net"></path><path class="stroke_order_diagram--existing_path" d="M25.37,20.5c1,1,0.96,1.88,0.96,3c0,1.02,0.03,36.5,0.03,43.75" id="Ske1ulfg13h" kvg:type="㇑a" transform="matrix(1,0,0,1,1096,-4)" xmlns:kvg="http://kanjivg.tagaini.net"></path><path class="stroke_order_diagram--existing_path" d="M11.75,74.87c1.38,1,2.9,0.61,4.69-0.51C23.88,69.75,28,67,35.25,62.25" id="Ske1ulfg13i" kvg:type="㇀/㇐" transform="matrix(1,0,0,1,1096,-4)" xmlns:kvg="http://kanjivg.tagaini.net"></path><path class="stroke_order_diagram--existing_path" d="M62.94,9.96c0.99,0.99,1.12,1.92,1.12,2.9c0,2.03-0.07,3.62-0.07,5.27" id="Ske1ulfg13j" kvg:type="㇑a" transform="matrix(1,0,0,1,1096,-4)" xmlns:kvg="http://kanjivg.tagaini.net"></path><path class="stroke_order_diagram--existing_path" d="M43.82,20.59c2.69,0.56,5.32,0.22,8.07-0.13c8.49-1.08,21.68-2.67,29.75-3.08c2.1-0.11,4.11-0.34,6.12,0.24" id="Ske1ulfg13k" kvg:type="㇐" transform="matrix(1,0,0,1,1096,-4)" xmlns:kvg="http://kanjivg.tagaini.net"></path><path class="stroke_order_diagram--existing_path" d="M52.36,27.26c0.75,0.75,0.91,1.31,1.16,2.23c0.42,1.58,0.83,3.27,1.18,4.89c0.26,1.21,0.49,2.39,0.68,3.46" id="Ske1ulfg13l" kvg:type="㇑" transform="matrix(1,0,0,1,1096,-4)" xmlns:kvg="http://kanjivg.tagaini.net"></path><path class="stroke_order_diagram--existing_path" d="M53.81,27.88c5.17-0.68,16.27-2.38,20.58-2.89c3.17-0.37,3.91,1.05,3.24,3.04c-0.75,2.22-0.89,2.43-2,5.09" id="Ske1ulfg13m" kvg:type="㇕b" transform="matrix(1,0,0,1,1096,-4)" xmlns:kvg="http://kanjivg.tagaini.net"></path><path class="stroke_order_diagram--existing_path" d="M56.24,36.15c2.71-0.23,11.64-1.14,17.51-1.67c1.64-0.15,3.03-0.26,3.99-0.33" id="Ske1ulfg13n" kvg:type="㇐b" transform="matrix(1,0,0,1,1096,-4)" xmlns:kvg="http://kanjivg.tagaini.net"></path><path class="stroke_order_diagram--existing_path" d="M44.63,43.63c0,2.57-2.08,9.9-2.9,11.62" id="Ske1ulfg13o" kvg:type="㇔" transform="matrix(1,0,0,1,1096,-4)" xmlns:kvg="http://kanjivg.tagaini.net"></path><path class="stroke_order_diagram--existing_path" d="M45.3,46.49C61.12,44,74.12,42.5,88.79,41.34c6.7-0.53,2.21,5.16-2.35,8.28" id="Ske1ulfg13p" kvg:type="㇖b" transform="matrix(1,0,0,1,1096,-4)" xmlns:kvg="http://kanjivg.tagaini.net"></path><path class="stroke_order_diagram--existing_path" d="M49.03,54.26c1.95,0.61,3.95,0.97,5.97,0.71c5.75-0.72,12.88-1.85,18.4-3.03c1.83-0.39,3.51-0.72,5.3-0.16" id="Ske1ulfg13q" kvg:type="㇐" transform="matrix(1,0,0,1,1096,-4)" xmlns:kvg="http://kanjivg.tagaini.net"></path><path class="stroke_order_diagram--current_path" d="M62.6,56.97c-0.23,0.9-0.7,1.44-1.44,2.06c-2.31,2.63-7.79,5.72-16.21,9.54" id="kvg:058d5-s12" kvg:type="㇒" transform="matrix(1,0,0,1,1096,-4)" xmlns:kvg="http://kanjivg.tagaini.net"></path><path class="stroke_order_diagram--current_path" d="M62.6,56.97c-0.23,0.9-0.7,1.44-1.44,2.06c-2.31,2.63-7.79,5.72-16.21,9.54" id="Ske1ulfg13s" kvg:type="㇒" transform="matrix(1,0,0,1,1096,-4)" xmlns:kvg="http://kanjivg.tagaini.net"></path><circle class="stroke_order_diagram--path_start" cx="62.6" cy="56.97" r="4" transform="matrix(1,0,0,1,1096,-4)"></circle><line class="stroke_order_diagram--guide_line" x1="1250" x2="1250" y1="1" y2="99"></line><line class="stroke_order_diagram--bounding_box" x1="1299" x2="1299" y1="1" y2="99"></line><path class="stroke_order_diagram--existing_path" d="M12.25,42.89c2.09,0.44,4.18,0.48,6.29,0.12c4.47-0.69,10.3-1.7,14.59-2.28c1.7-0.29,3.4-0.62,5.13-0.48" id="Ske1ulfg13v" kvg:type="㇐" transform="matrix(1,0,0,1,1196,-4)" xmlns:kvg="http://kanjivg.tagaini.net"></path><path class="stroke_order_diagram--existing_path" d="M25.37,20.5c1,1,0.96,1.88,0.96,3c0,1.02,0.03,36.5,0.03,43.75" id="Ske1ulfg13w" kvg:type="㇑a" transform="matrix(1,0,0,1,1196,-4)" xmlns:kvg="http://kanjivg.tagaini.net"></path><path class="stroke_order_diagram--existing_path" d="M11.75,74.87c1.38,1,2.9,0.61,4.69-0.51C23.88,69.75,28,67,35.25,62.25" id="Ske1ulfg13x" kvg:type="㇀/㇐" transform="matrix(1,0,0,1,1196,-4)" xmlns:kvg="http://kanjivg.tagaini.net"></path><path class="stroke_order_diagram--existing_path" d="M62.94,9.96c0.99,0.99,1.12,1.92,1.12,2.9c0,2.03-0.07,3.62-0.07,5.27" id="Ske1ulfg13y" kvg:type="㇑a" transform="matrix(1,0,0,1,1196,-4)" xmlns:kvg="http://kanjivg.tagaini.net"></path><path class="stroke_order_diagram--existing_path" d="M43.82,20.59c2.69,0.56,5.32,0.22,8.07-0.13c8.49-1.08,21.68-2.67,29.75-3.08c2.1-0.11,4.11-0.34,6.12,0.24" id="Ske1ulfg13z" kvg:type="㇐" transform="matrix(1,0,0,1,1196,-4)" xmlns:kvg="http://kanjivg.tagaini.net"></path><path class="stroke_order_diagram--existing_path" d="M52.36,27.26c0.75,0.75,0.91,1.31,1.16,2.23c0.42,1.58,0.83,3.27,1.18,4.89c0.26,1.21,0.49,2.39,0.68,3.46" id="Ske1ulfg140" kvg:type="㇑" transform="matrix(1,0,0,1,1196,-4)" xmlns:kvg="http://kanjivg.tagaini.net"></path><path class="stroke_order_diagram--existing_path" d="M53.81,27.88c5.17-0.68,16.27-2.38,20.58-2.89c3.17-0.37,3.91,1.05,3.24,3.04c-0.75,2.22-0.89,2.43-2,5.09" id="Ske1ulfg141" kvg:type="㇕b" transform="matrix(1,0,0,1,1196,-4)" xmlns:kvg="http://kanjivg.tagaini.net"></path><path class="stroke_order_diagram--existing_path" d="M56.24,36.15c2.71-0.23,11.64-1.14,17.51-1.67c1.64-0.15,3.03-0.26,3.99-0.33" id="Ske1ulfg142" kvg:type="㇐b" transform="matrix(1,0,0,1,1196,-4)" xmlns:kvg="http://kanjivg.tagaini.net"></path><path class="stroke_order_diagram--existing_path" d="M44.63,43.63c0,2.57-2.08,9.9-2.9,11.62" id="Ske1ulfg143" kvg:type="㇔" transform="matrix(1,0,0,1,1196,-4)" xmlns:kvg="http://kanjivg.tagaini.net"></path><path class="stroke_order_diagram--existing_path" d="M45.3,46.49C61.12,44,74.12,42.5,88.79,41.34c6.7-0.53,2.21,5.16-2.35,8.28" id="Ske1ulfg144" kvg:type="㇖b" transform="matrix(1,0,0,1,1196,-4)" xmlns:kvg="http://kanjivg.tagaini.net"></path><path class="stroke_order_diagram--existing_path" d="M49.03,54.26c1.95,0.61,3.95,0.97,5.97,0.71c5.75-0.72,12.88-1.85,18.4-3.03c1.83-0.39,3.51-0.72,5.3-0.16" id="Ske1ulfg145" kvg:type="㇐" transform="matrix(1,0,0,1,1196,-4)" xmlns:kvg="http://kanjivg.tagaini.net"></path><path class="stroke_order_diagram--existing_path" d="M62.6,56.97c-0.23,0.9-0.7,1.44-1.44,2.06c-2.31,2.63-7.79,5.72-16.21,9.54" id="Ske1ulfg146" kvg:type="㇒" transform="matrix(1,0,0,1,1196,-4)" xmlns:kvg="http://kanjivg.tagaini.net"></path><path class="stroke_order_diagram--current_path" d="M60,63c5.75,4.5,9.12,19.62,5.49,32.42c-1.56,5.51-5.49,1.58-6.88-0.96" id="kvg:058d5-s13" kvg:type="㇕v" transform="matrix(1,0,0,1,1196,-4)" xmlns:kvg="http://kanjivg.tagaini.net"></path><path class="stroke_order_diagram--current_path" d="M60,63c5.75,4.5,9.12,19.62,5.49,32.42c-1.56,5.51-5.49,1.58-6.88-0.96" id="Ske1ulfg148" kvg:type="㇕v" transform="matrix(1,0,0,1,1196,-4)" xmlns:kvg="http://kanjivg.tagaini.net"></path><circle class="stroke_order_diagram--path_start" cx="60" cy="63" r="4" transform="matrix(1,0,0,1,1196,-4)"></circle><line class="stroke_order_diagram--guide_line" x1="1350" x2="1350" y1="1" y2="99"></line><line class="stroke_order_diagram--bounding_box" x1="1399" x2="1399" y1="1" y2="99"></line><path class="stroke_order_diagram--existing_path" d="M12.25,42.89c2.09,0.44,4.18,0.48,6.29,0.12c4.47-0.69,10.3-1.7,14.59-2.28c1.7-0.29,3.4-0.62,5.13-0.48" id="Ske1ulfg14b" kvg:type="㇐" transform="matrix(1,0,0,1,1296,-4)" xmlns:kvg="http://kanjivg.tagaini.net"></path><path class="stroke_order_diagram--existing_path" d="M25.37,20.5c1,1,0.96,1.88,0.96,3c0,1.02,0.03,36.5,0.03,43.75" id="Ske1ulfg14c" kvg:type="㇑a" transform="matrix(1,0,0,1,1296,-4)" xmlns:kvg="http://kanjivg.tagaini.net"></path><path class="stroke_order_diagram--existing_path" d="M11.75,74.87c1.38,1,2.9,0.61,4.69-0.51C23.88,69.75,28,67,35.25,62.25" id="Ske1ulfg14d" kvg:type="㇀/㇐" transform="matrix(1,0,0,1,1296,-4)" xmlns:kvg="http://kanjivg.tagaini.net"></path><path class="stroke_order_diagram--existing_path" d="M62.94,9.96c0.99,0.99,1.12,1.92,1.12,2.9c0,2.03-0.07,3.62-0.07,5.27" id="Ske1ulfg14e" kvg:type="㇑a" transform="matrix(1,0,0,1,1296,-4)" xmlns:kvg="http://kanjivg.tagaini.net"></path><path class="stroke_order_diagram--existing_path" d="M43.82,20.59c2.69,0.56,5.32,0.22,8.07-0.13c8.49-1.08,21.68-2.67,29.75-3.08c2.1-0.11,4.11-0.34,6.12,0.24" id="Ske1ulfg14f" kvg:type="㇐" transform="matrix(1,0,0,1,1296,-4)" xmlns:kvg="http://kanjivg.tagaini.net"></path><path class="stroke_order_diagram--existing_path" d="M52.36,27.26c0.75,0.75,0.91,1.31,1.16,2.23c0.42,1.58,0.83,3.27,1.18,4.89c0.26,1.21,0.49,2.39,0.68,3.46" id="Ske1ulfg14g" kvg:type="㇑" transform="matrix(1,0,0,1,1296,-4)" xmlns:kvg="http://kanjivg.tagaini.net"></path><path class="stroke_order_diagram--existing_path" d="M53.81,27.88c5.17-0.68,16.27-2.38,20.58-2.89c3.17-0.37,3.91,1.05,3.24,3.04c-0.75,2.22-0.89,2.43-2,5.09" id="Ske1ulfg14h" kvg:type="㇕b" transform="matrix(1,0,0,1,1296,-4)" xmlns:kvg="http://kanjivg.tagaini.net"></path><path class="stroke_order_diagram--existing_path" d="M56.24,36.15c2.71-0.23,11.64-1.14,17.51-1.67c1.64-0.15,3.03-0.26,3.99-0.33" id="Ske1ulfg14i" kvg:type="㇐b" transform="matrix(1,0,0,1,1296,-4)" xmlns:kvg="http://kanjivg.tagaini.net"></path><path class="stroke_order_diagram--existing_path" d="M44.63,43.63c0,2.57-2.08,9.9-2.9,11.62" id="Ske1ulfg14j" kvg:type="㇔" transform="matrix(1,0,0,1,1296,-4)" xmlns:kvg="http://kanjivg.tagaini.net"></path><path class="stroke_order_diagram--existing_path" d="M45.3,46.49C61.12,44,74.12,42.5,88.79,41.34c6.7-0.53,2.21,5.16-2.35,8.28" id="Ske1ulfg14k" kvg:type="㇖b" transform="matrix(1,0,0,1,1296,-4)" xmlns:kvg="http://kanjivg.tagaini.net"></path><path class="stroke_order_diagram--existing_path" d="M49.03,54.26c1.95,0.61,3.95,0.97,5.97,0.71c5.75-0.72,12.88-1.85,18.4-3.03c1.83-0.39,3.51-0.72,5.3-0.16" id="Ske1ulfg14l" kvg:type="㇐" transform="matrix(1,0,0,1,1296,-4)" xmlns:kvg="http://kanjivg.tagaini.net"></path><path class="stroke_order_diagram--existing_path" d="M62.6,56.97c-0.23,0.9-0.7,1.44-1.44,2.06c-2.31,2.63-7.79,5.72-16.21,9.54" id="Ske1ulfg14m" kvg:type="㇒" transform="matrix(1,0,0,1,1296,-4)" xmlns:kvg="http://kanjivg.tagaini.net"></path><path class="stroke_order_diagram--existing_path" d="M60,63c5.75,4.5,9.12,19.62,5.49,32.42c-1.56,5.51-5.49,1.58-6.88-0.96" id="Ske1ulfg14n" kvg:type="㇕v" transform="matrix(1,0,0,1,1296,-4)" xmlns:kvg="http://kanjivg.tagaini.net"></path><path class="stroke_order_diagram--current_path" d="M60.6,67.33c0,1.04-0.33,1.76-0.96,2.43c-4.02,4.24-8.02,7.86-17.53,11.91" id="kvg:058d5-s14" kvg:type="㇒" transform="matrix(1,0,0,1,1296,-4)" xmlns:kvg="http://kanjivg.tagaini.net"></path><path class="stroke_order_diagram--current_path" d="M60.6,67.33c0,1.04-0.33,1.76-0.96,2.43c-4.02,4.24-8.02,7.86-17.53,11.91" id="Ske1ulfg14p" kvg:type="㇒" transform="matrix(1,0,0,1,1296,-4)" xmlns:kvg="http://kanjivg.tagaini.net"></path><circle class="stroke_order_diagram--path_start" cx="60.6" cy="67.33" r="4" transform="matrix(1,0,0,1,1296,-4)"></circle><line class="stroke_order_diagram--guide_line" x1="1450" x2="1450" y1="1" y2="99"></line><line class="stroke_order_diagram--bounding_box" x1="1499" x2="1499" y1="1" y2="99"></line><path class="stroke_order_diagram--existing_path" d="M12.25,42.89c2.09,0.44,4.18,0.48,6.29,0.12c4.47-0.69,10.3-1.7,14.59-2.28c1.7-0.29,3.4-0.62,5.13-0.48" id="Ske1ulfg14s" kvg:type="㇐" transform="matrix(1,0,0,1,1396,-4)" xmlns:kvg="http://kanjivg.tagaini.net"></path><path class="stroke_order_diagram--existing_path" d="M25.37,20.5c1,1,0.96,1.88,0.96,3c0,1.02,0.03,36.5,0.03,43.75" id="Ske1ulfg14t" kvg:type="㇑a" transform="matrix(1,0,0,1,1396,-4)" xmlns:kvg="http://kanjivg.tagaini.net"></path><path class="stroke_order_diagram--existing_path" d="M11.75,74.87c1.38,1,2.9,0.61,4.69-0.51C23.88,69.75,28,67,35.25,62.25" id="Ske1ulfg14u" kvg:type="㇀/㇐" transform="matrix(1,0,0,1,1396,-4)" xmlns:kvg="http://kanjivg.tagaini.net"></path><path class="stroke_order_diagram--existing_path" d="M62.94,9.96c0.99,0.99,1.12,1.92,1.12,2.9c0,2.03-0.07,3.62-0.07,5.27" id="Ske1ulfg14v" kvg:type="㇑a" transform="matrix(1,0,0,1,1396,-4)" xmlns:kvg="http://kanjivg.tagaini.net"></path><path class="stroke_order_diagram--existing_path" d="M43.82,20.59c2.69,0.56,5.32,0.22,8.07-0.13c8.49-1.08,21.68-2.67,29.75-3.08c2.1-0.11,4.11-0.34,6.12,0.24" id="Ske1ulfg14w" kvg:type="㇐" transform="matrix(1,0,0,1,1396,-4)" xmlns:kvg="http://kanjivg.tagaini.net"></path><path class="stroke_order_diagram--existing_path" d="M52.36,27.26c0.75,0.75,0.91,1.31,1.16,2.23c0.42,1.58,0.83,3.27,1.18,4.89c0.26,1.21,0.49,2.39,0.68,3.46" id="Ske1ulfg14x" kvg:type="㇑" transform="matrix(1,0,0,1,1396,-4)" xmlns:kvg="http://kanjivg.tagaini.net"></path><path class="stroke_order_diagram--existing_path" d="M53.81,27.88c5.17-0.68,16.27-2.38,20.58-2.89c3.17-0.37,3.91,1.05,3.24,3.04c-0.75,2.22-0.89,2.43-2,5.09" id="Ske1ulfg14y" kvg:type="㇕b" transform="matrix(1,0,0,1,1396,-4)" xmlns:kvg="http://kanjivg.tagaini.net"></path><path class="stroke_order_diagram--existing_path" d="M56.24,36.15c2.71-0.23,11.64-1.14,17.51-1.67c1.64-0.15,3.03-0.26,3.99-0.33" id="Ske1ulfg14z" kvg:type="㇐b" transform="matrix(1,0,0,1,1396,-4)" xmlns:kvg="http://kanjivg.tagaini.net"></path><path class="stroke_order_diagram--existing_path" d="M44.63,43.63c0,2.57-2.08,9.9-2.9,11.62" id="Ske1ulfg150" kvg:type="㇔" transform="matrix(1,0,0,1,1396,-4)" xmlns:kvg="http://kanjivg.tagaini.net"></path><path class="stroke_order_diagram--existing_path" d="M45.3,46.49C61.12,44,74.12,42.5,88.79,41.34c6.7-0.53,2.21,5.16-2.35,8.28" id="Ske1ulfg151" kvg:type="㇖b" transform="matrix(1,0,0,1,1396,-4)" xmlns:kvg="http://kanjivg.tagaini.net"></path><path class="stroke_order_diagram--existing_path" d="M49.03,54.26c1.95,0.61,3.95,0.97,5.97,0.71c5.75-0.72,12.88-1.85,18.4-3.03c1.83-0.39,3.51-0.72,5.3-0.16" id="Ske1ulfg152" kvg:type="㇐" transform="matrix(1,0,0,1,1396,-4)" xmlns:kvg="http://kanjivg.tagaini.net"></path><path class="stroke_order_diagram--existing_path" d="M62.6,56.97c-0.23,0.9-0.7,1.44-1.44,2.06c-2.31,2.63-7.79,5.72-16.21,9.54" id="Ske1ulfg153" kvg:type="㇒" transform="matrix(1,0,0,1,1396,-4)" xmlns:kvg="http://kanjivg.tagaini.net"></path><path class="stroke_order_diagram--existing_path" d="M60,63c5.75,4.5,9.12,19.62,5.49,32.42c-1.56,5.51-5.49,1.58-6.88-0.96" id="Ske1ulfg154" kvg:type="㇕v" transform="matrix(1,0,0,1,1396,-4)" xmlns:kvg="http://kanjivg.tagaini.net"></path><path class="stroke_order_diagram--existing_path" d="M60.6,67.33c0,1.04-0.33,1.76-0.96,2.43c-4.02,4.24-8.02,7.86-17.53,11.91" id="Ske1ulfg155" kvg:type="㇒" transform="matrix(1,0,0,1,1396,-4)" xmlns:kvg="http://kanjivg.tagaini.net"></path><path class="stroke_order_diagram--current_path" d="M62.82,76.94c0,1.18-0.31,1.96-0.94,2.76c-4.13,4.55-10.75,9.3-21.89,14.35" id="kvg:058d5-s15" kvg:type="㇒" transform="matrix(1,0,0,1,1396,-4)" xmlns:kvg="http://kanjivg.tagaini.net"></path><path class="stroke_order_diagram--current_path" d="M62.82,76.94c0,1.18-0.31,1.96-0.94,2.76c-4.13,4.55-10.75,9.3-21.89,14.35" id="Ske1ulfg157" kvg:type="㇒" transform="matrix(1,0,0,1,1396,-4)" xmlns:kvg="http://kanjivg.tagaini.net"></path><circle class="stroke_order_diagram--path_start" cx="62.82" cy="76.94" r="4" transform="matrix(1,0,0,1,1396,-4)"></circle><line class="stroke_order_diagram--guide_line" x1="1550" x2="1550" y1="1" y2="99"></line><line class="stroke_order_diagram--bounding_box" x1="1599" x2="1599" y1="1" y2="99"></line><path class="stroke_order_diagram--existing_path" d="M12.25,42.89c2.09,0.44,4.18,0.48,6.29,0.12c4.47-0.69,10.3-1.7,14.59-2.28c1.7-0.29,3.4-0.62,5.13-0.48" id="Ske1ulfg15a" kvg:type="㇐" transform="matrix(1,0,0,1,1496,-4)" xmlns:kvg="http://kanjivg.tagaini.net"></path><path class="stroke_order_diagram--existing_path" d="M25.37,20.5c1,1,0.96,1.88,0.96,3c0,1.02,0.03,36.5,0.03,43.75" id="Ske1ulfg15b" kvg:type="㇑a" transform="matrix(1,0,0,1,1496,-4)" xmlns:kvg="http://kanjivg.tagaini.net"></path><path class="stroke_order_diagram--existing_path" d="M11.75,74.87c1.38,1,2.9,0.61,4.69-0.51C23.88,69.75,28,67,35.25,62.25" id="Ske1ulfg15c" kvg:type="㇀/㇐" transform="matrix(1,0,0,1,1496,-4)" xmlns:kvg="http://kanjivg.tagaini.net"></path><path class="stroke_order_diagram--existing_path" d="M62.94,9.96c0.99,0.99,1.12,1.92,1.12,2.9c0,2.03-0.07,3.62-0.07,5.27" id="Ske1ulfg15d" kvg:type="㇑a" transform="matrix(1,0,0,1,1496,-4)" xmlns:kvg="http://kanjivg.tagaini.net"></path><path class="stroke_order_diagram--existing_path" d="M43.82,20.59c2.69,0.56,5.32,0.22,8.07-0.13c8.49-1.08,21.68-2.67,29.75-3.08c2.1-0.11,4.11-0.34,6.12,0.24" id="Ske1ulfg15e" kvg:type="㇐" transform="matrix(1,0,0,1,1496,-4)" xmlns:kvg="http://kanjivg.tagaini.net"></path><path class="stroke_order_diagram--existing_path" d="M52.36,27.26c0.75,0.75,0.91,1.31,1.16,2.23c0.42,1.58,0.83,3.27,1.18,4.89c0.26,1.21,0.49,2.39,0.68,3.46" id="Ske1ulfg15f" kvg:type="㇑" transform="matrix(1,0,0,1,1496,-4)" xmlns:kvg="http://kanjivg.tagaini.net"></path><path class="stroke_order_diagram--existing_path" d="M53.81,27.88c5.17-0.68,16.27-2.38,20.58-2.89c3.17-0.37,3.91,1.05,3.24,3.04c-0.75,2.22-0.89,2.43-2,5.09" id="Ske1ulfg15g" kvg:type="㇕b" transform="matrix(1,0,0,1,1496,-4)" xmlns:kvg="http://kanjivg.tagaini.net"></path><path class="stroke_order_diagram--existing_path" d="M56.24,36.15c2.71-0.23,11.64-1.14,17.51-1.67c1.64-0.15,3.03-0.26,3.99-0.33" id="Ske1ulfg15h" kvg:type="㇐b" transform="matrix(1,0,0,1,1496,-4)" xmlns:kvg="http://kanjivg.tagaini.net"></path><path class="stroke_order_diagram--existing_path" d="M44.63,43.63c0,2.57-2.08,9.9-2.9,11.62" id="Ske1ulfg15i" kvg:type="㇔" transform="matrix(1,0,0,1,1496,-4)" xmlns:kvg="http://kanjivg.tagaini.net"></path><path class="stroke_order_diagram--existing_path" d="M45.3,46.49C61.12,44,74.12,42.5,88.79,41.34c6.7-0.53,2.21,5.16-2.35,8.28" id="Ske1ulfg15j" kvg:type="㇖b" transform="matrix(1,0,0,1,1496,-4)" xmlns:kvg="http://kanjivg.tagaini.net"></path><path class="stroke_order_diagram--existing_path" d="M49.03,54.26c1.95,0.61,3.95,0.97,5.97,0.71c5.75-0.72,12.88-1.85,18.4-3.03c1.83-0.39,3.51-0.72,5.3-0.16" id="Ske1ulfg15k" kvg:type="㇐" transform="matrix(1,0,0,1,1496,-4)" xmlns:kvg="http://kanjivg.tagaini.net"></path><path class="stroke_order_diagram--existing_path" d="M62.6,56.97c-0.23,0.9-0.7,1.44-1.44,2.06c-2.31,2.63-7.79,5.72-16.21,9.54" id="Ske1ulfg15l" kvg:type="㇒" transform="matrix(1,0,0,1,1496,-4)" xmlns:kvg="http://kanjivg.tagaini.net"></path><path class="stroke_order_diagram--existing_path" d="M60,63c5.75,4.5,9.12,19.62,5.49,32.42c-1.56,5.51-5.49,1.58-6.88-0.96" id="Ske1ulfg15m" kvg:type="㇕v" transform="matrix(1,0,0,1,1496,-4)" xmlns:kvg="http://kanjivg.tagaini.net"></path><path class="stroke_order_diagram--existing_path" d="M60.6,67.33c0,1.04-0.33,1.76-0.96,2.43c-4.02,4.24-8.02,7.86-17.53,11.91" id="Ske1ulfg15n" kvg:type="㇒" transform="matrix(1,0,0,1,1496,-4)" xmlns:kvg="http://kanjivg.tagaini.net"></path><path class="stroke_order_diagram--existing_path" d="M62.82,76.94c0,1.18-0.31,1.96-0.94,2.76c-4.13,4.55-10.75,9.3-21.89,14.35" id="Ske1ulfg15o" kvg:type="㇒" transform="matrix(1,0,0,1,1496,-4)" xmlns:kvg="http://kanjivg.tagaini.net"></path><path class="stroke_order_diagram--current_path" d="M80.4,60.53c0,0.85-0.32,1.5-0.9,2.02c-2.75,2.45-4.94,4.2-11.25,7.83" id="kvg:058d5-s16" kvg:type="㇒" transform="matrix(1,0,0,1,1496,-4)" xmlns:kvg="http://kanjivg.tagaini.net"></path><path class="stroke_order_diagram--current_path" d="M80.4,60.53c0,0.85-0.32,1.5-0.9,2.02c-2.75,2.45-4.94,4.2-11.25,7.83" id="Ske1ulfg15q" kvg:type="㇒" transform="matrix(1,0,0,1,1496,-4)" xmlns:kvg="http://kanjivg.tagaini.net"></path><circle class="stroke_order_diagram--path_start" cx="80.4" cy="60.53" r="4" transform="matrix(1,0,0,1,1496,-4)"></circle><line class="stroke_order_diagram--guide_line" x1="1650" x2="1650" y1="1" y2="99"></line><line class="stroke_order_diagram--bounding_box" x1="1699" x2="1699" y1="1" y2="99"></line><path class="stroke_order_diagram--existing_path" d="M12.25,42.89c2.09,0.44,4.18,0.48,6.29,0.12c4.47-0.69,10.3-1.7,14.59-2.28c1.7-0.29,3.4-0.62,5.13-0.48" id="Ske1ulfg15t" kvg:type="㇐" transform="matrix(1,0,0,1,1596,-4)" xmlns:kvg="http://kanjivg.tagaini.net"></path><path class="stroke_order_diagram--existing_path" d="M25.37,20.5c1,1,0.96,1.88,0.96,3c0,1.02,0.03,36.5,0.03,43.75" id="Ske1ulfg15u" kvg:type="㇑a" transform="matrix(1,0,0,1,1596,-4)" xmlns:kvg="http://kanjivg.tagaini.net"></path><path class="stroke_order_diagram--existing_path" d="M11.75,74.87c1.38,1,2.9,0.61,4.69-0.51C23.88,69.75,28,67,35.25,62.25" id="Ske1ulfg15v" kvg:type="㇀/㇐" transform="matrix(1,0,0,1,1596,-4)" xmlns:kvg="http://kanjivg.tagaini.net"></path><path class="stroke_order_diagram--existing_path" d="M62.94,9.96c0.99,0.99,1.12,1.92,1.12,2.9c0,2.03-0.07,3.62-0.07,5.27" id="Ske1ulfg15w" kvg:type="㇑a" transform="matrix(1,0,0,1,1596,-4)" xmlns:kvg="http://kanjivg.tagaini.net"></path><path class="stroke_order_diagram--existing_path" d="M43.82,20.59c2.69,0.56,5.32,0.22,8.07-0.13c8.49-1.08,21.68-2.67,29.75-3.08c2.1-0.11,4.11-0.34,6.12,0.24" id="Ske1ulfg15x" kvg:type="㇐" transform="matrix(1,0,0,1,1596,-4)" xmlns:kvg="http://kanjivg.tagaini.net"></path><path class="stroke_order_diagram--existing_path" d="M52.36,27.26c0.75,0.75,0.91,1.31,1.16,2.23c0.42,1.58,0.83,3.27,1.18,4.89c0.26,1.21,0.49,2.39,0.68,3.46" id="Ske1ulfg15y" kvg:type="㇑" transform="matrix(1,0,0,1,1596,-4)" xmlns:kvg="http://kanjivg.tagaini.net"></path><path class="stroke_order_diagram--existing_path" d="M53.81,27.88c5.17-0.68,16.27-2.38,20.58-2.89c3.17-0.37,3.91,1.05,3.24,3.04c-0.75,2.22-0.89,2.43-2,5.09" id="Ske1ulfg15z" kvg:type="㇕b" transform="matrix(1,0,0,1,1596,-4)" xmlns:kvg="http://kanjivg.tagaini.net"></path><path class="stroke_order_diagram--existing_path" d="M56.24,36.15c2.71-0.23,11.64-1.14,17.51-1.67c1.64-0.15,3.03-0.26,3.99-0.33" id="Ske1ulfg160" kvg:type="㇐b" transform="matrix(1,0,0,1,1596,-4)" xmlns:kvg="http://kanjivg.tagaini.net"></path><path class="stroke_order_diagram--existing_path" d="M44.63,43.63c0,2.57-2.08,9.9-2.9,11.62" id="Ske1ulfg161" kvg:type="㇔" transform="matrix(1,0,0,1,1596,-4)" xmlns:kvg="http://kanjivg.tagaini.net"></path><path class="stroke_order_diagram--existing_path" d="M45.3,46.49C61.12,44,74.12,42.5,88.79,41.34c6.7-0.53,2.21,5.16-2.35,8.28" id="Ske1ulfg162" kvg:type="㇖b" transform="matrix(1,0,0,1,1596,-4)" xmlns:kvg="http://kanjivg.tagaini.net"></path><path class="stroke_order_diagram--existing_path" d="M49.03,54.26c1.95,0.61,3.95,0.97,5.97,0.71c5.75-0.72,12.88-1.85,18.4-3.03c1.83-0.39,3.51-0.72,5.3-0.16" id="Ske1ulfg163" kvg:type="㇐" transform="matrix(1,0,0,1,1596,-4)" xmlns:kvg="http://kanjivg.tagaini.net"></path><path class="stroke_order_diagram--existing_path" d="M62.6,56.97c-0.23,0.9-0.7,1.44-1.44,2.06c-2.31,2.63-7.79,5.72-16.21,9.54" id="Ske1ulfg164" kvg:type="㇒" transform="matrix(1,0,0,1,1596,-4)" xmlns:kvg="http://kanjivg.tagaini.net"></path><path class="stroke_order_diagram--existing_path" d="M60,63c5.75,4.5,9.12,19.62,5.49,32.42c-1.56,5.51-5.49,1.58-6.88-0.96" id="Ske1ulfg165" kvg:type="㇕v" transform="matrix(1,0,0,1,1596,-4)" xmlns:kvg="http://kanjivg.tagaini.net"></path><path class="stroke_order_diagram--existing_path" d="M60.6,67.33c0,1.04-0.33,1.76-0.96,2.43c-4.02,4.24-8.02,7.86-17.53,11.91" id="Ske1ulfg166" kvg:type="㇒" transform="matrix(1,0,0,1,1596,-4)" xmlns:kvg="http://kanjivg.tagaini.net"></path><path class="stroke_order_diagram--existing_path" d="M62.82,76.94c0,1.18-0.31,1.96-0.94,2.76c-4.13,4.55-10.75,9.3-21.89,14.35" id="Ske1ulfg167" kvg:type="㇒" transform="matrix(1,0,0,1,1596,-4)" xmlns:kvg="http://kanjivg.tagaini.net"></path><path class="stroke_order_diagram--existing_path" d="M80.4,60.53c0,0.85-0.32,1.5-0.9,2.02c-2.75,2.45-4.94,4.2-11.25,7.83" id="Ske1ulfg168" kvg:type="㇒" transform="matrix(1,0,0,1,1596,-4)" xmlns:kvg="http://kanjivg.tagaini.net"></path><path class="stroke_order_diagram--current_path" d="M68.25,73.62c4.62,3.75,10.08,8.77,16.07,13.19c2.73,1.91,5.39,3.5,8.46,4.79" id="kvg:058d5-s17" kvg:type="㇏" transform="matrix(1,0,0,1,1596,-4)" xmlns:kvg="http://kanjivg.tagaini.net"></path><path class="stroke_order_diagram--current_path" d="M68.25,73.62c4.62,3.75,10.08,8.77,16.07,13.19c2.73,1.91,5.39,3.5,8.46,4.79" id="Ske1ulfg16a" kvg:type="㇏" transform="matrix(1,0,0,1,1596,-4)" xmlns:kvg="http://kanjivg.tagaini.net"></path><circle class="stroke_order_diagram--path_start" cx="68.25" cy="73.62" r="4" transform="matrix(1,0,0,1,1596,-4)"></circle></svg>