<svg class="stroke_order_diagram--svg_container_for_518662a3d5dda79658000d6e" style="height: 100px; width: 700px;" viewbox="0 0 700 100"><desc>Created with Snap</desc><defs></defs><line class="stroke_order_diagram--bounding_box" x1="1" x2="699" y1="1" y2="1"></line><line class="stroke_order_diagram--bounding_box" x1="1" x2="1" y1="1" y2="99"></line><line class="stroke_order_diagram--bounding_box" x1="1" x2="699" y1="99" y2="99"></line><line class="stroke_order_diagram--guide_line" x1="0" x2="700" y1="50" y2="50"></line><line class="stroke_order_diagram--guide_line" x1="50" x2="50" y1="1" y2="99"></line><line class="stroke_order_diagram--bounding_box" x1="99" x2="99" y1="1" y2="99"></line><path class="stroke_order_diagram--current_path" d="M37.6,13.72c1.21,1.37,1.98,3.71,1.98,5.33c0,15.46-0.04,69.81-0.04,75.08" id="kvg:0599d-s1" kvg:type="㇄" transform="matrix(1,0,0,1,-4,-4)" xmlns:kvg="http://kanjivg.tagaini.net"></path><path class="stroke_order_diagram--current_path" d="M37.6,13.72c1.21,1.37,1.98,3.71,1.98,5.33c0,15.46-0.04,69.81-0.04,75.08" id="Ske2fig10g" kvg:type="㇄" transform="matrix(1,0,0,1,-4,-4)" xmlns:kvg="http://kanjivg.tagaini.net"></path><circle class="stroke_order_diagram--path_start" cx="37.6" cy="13.72" r="4" transform="matrix(1,0,0,1,-4,-4)"></circle><line class="stroke_order_diagram--guide_line" x1="150" x2="150" y1="1" y2="99"></line><line class="stroke_order_diagram--bounding_box" x1="199" x2="199" y1="1" y2="99"></line><path class="stroke_order_diagram--existing_path" d="M37.6,13.72c1.21,1.37,1.98,3.71,1.98,5.33c0,15.46-0.04,69.81-0.04,75.08" id="Ske2fig10j" kvg:type="㇄" transform="matrix(1,0,0,1,96,-4)" xmlns:kvg="http://kanjivg.tagaini.net"></path><path class="stroke_order_diagram--current_path" d="M17.25,18.42c1.37,0.64,1.89,1.38,2.01,3.48c0.18,3.15-0.74,15.51-1.16,18.81c-0.14,1.05,0.24,2.62,2.28,2.46C27.56,42.6,35,41.25,39.56,40.6" id="kvg:0599d-s2" kvg:type="㇐" transform="matrix(1,0,0,1,96,-4)" xmlns:kvg="http://kanjivg.tagaini.net"></path><path class="stroke_order_diagram--current_path" d="M17.25,18.42c1.37,0.64,1.89,1.38,2.01,3.48c0.18,3.15-0.74,15.51-1.16,18.81c-0.14,1.05,0.24,2.62,2.28,2.46C27.56,42.6,35,41.25,39.56,40.6" id="Ske2fig10l" kvg:type="㇐" transform="matrix(1,0,0,1,96,-4)" xmlns:kvg="http://kanjivg.tagaini.net"></path><circle class="stroke_order_diagram--path_start" cx="17.25" cy="18.42" r="4" transform="matrix(1,0,0,1,96,-4)"></circle><line class="stroke_order_diagram--guide_line" x1="250" x2="250" y1="1" y2="99"></line><line class="stroke_order_diagram--bounding_box" x1="299" x2="299" y1="1" y2="99"></line><path class="stroke_order_diagram--existing_path" d="M37.6,13.72c1.21,1.37,1.98,3.71,1.98,5.33c0,15.46-0.04,69.81-0.04,75.08" id="Ske2fig10o" kvg:type="㇄" transform="matrix(1,0,0,1,196,-4)" xmlns:kvg="http://kanjivg.tagaini.net"></path><path class="stroke_order_diagram--existing_path" d="M17.25,18.42c1.37,0.64,1.89,1.38,2.01,3.48c0.18,3.15-0.74,15.51-1.16,18.81c-0.14,1.05,0.24,2.62,2.28,2.46C27.56,42.6,35,41.25,39.56,40.6" id="Ske2fig10p" kvg:type="㇐" transform="matrix(1,0,0,1,196,-4)" xmlns:kvg="http://kanjivg.tagaini.net"></path><path class="stroke_order_diagram--current_path" d="M12.8,58.68c1.33,0.14,1.61,0.57,3.17,0.47c6.66-0.42,18.69-1.92,23.34-2.15" id="kvg:0599d-s3" kvg:type="㇒" transform="matrix(1,0,0,1,196,-4)" xmlns:kvg="http://kanjivg.tagaini.net"></path><path class="stroke_order_diagram--current_path" d="M12.8,58.68c1.33,0.14,1.61,0.57,3.17,0.47c6.66-0.42,18.69-1.92,23.34-2.15" id="Ske2fig10r" kvg:type="㇒" transform="matrix(1,0,0,1,196,-4)" xmlns:kvg="http://kanjivg.tagaini.net"></path><circle class="stroke_order_diagram--path_start" cx="12.8" cy="58.68" r="4" transform="matrix(1,0,0,1,196,-4)"></circle><line class="stroke_order_diagram--guide_line" x1="350" x2="350" y1="1" y2="99"></line><line class="stroke_order_diagram--bounding_box" x1="399" x2="399" y1="1" y2="99"></line><path class="stroke_order_diagram--existing_path" d="M37.6,13.72c1.21,1.37,1.98,3.71,1.98,5.33c0,15.46-0.04,69.81-0.04,75.08" id="Ske2fig10u" kvg:type="㇄" transform="matrix(1,0,0,1,296,-4)" xmlns:kvg="http://kanjivg.tagaini.net"></path><path class="stroke_order_diagram--existing_path" d="M17.25,18.42c1.37,0.64,1.89,1.38,2.01,3.48c0.18,3.15-0.74,15.51-1.16,18.81c-0.14,1.05,0.24,2.62,2.28,2.46C27.56,42.6,35,41.25,39.56,40.6" id="Ske2fig10v" kvg:type="㇐" transform="matrix(1,0,0,1,296,-4)" xmlns:kvg="http://kanjivg.tagaini.net"></path><path class="stroke_order_diagram--existing_path" d="M12.8,58.68c1.33,0.14,1.61,0.57,3.17,0.47c6.66-0.42,18.69-1.92,23.34-2.15" id="Ske2fig10w" kvg:type="㇒" transform="matrix(1,0,0,1,296,-4)" xmlns:kvg="http://kanjivg.tagaini.net"></path><path class="stroke_order_diagram--current_path" d="M22.74,60.89c0.26,0.86,0.51,1.72,0.45,2.97C22.5,77.25,18.5,87.5,10,93.75" id="kvg:0599d-s4" kvg:type="㇑" transform="matrix(1,0,0,1,296,-4)" xmlns:kvg="http://kanjivg.tagaini.net"></path><path class="stroke_order_diagram--current_path" d="M22.74,60.89c0.26,0.86,0.51,1.72,0.45,2.97C22.5,77.25,18.5,87.5,10,93.75" id="Ske2fig10y" kvg:type="㇑" transform="matrix(1,0,0,1,296,-4)" xmlns:kvg="http://kanjivg.tagaini.net"></path><circle class="stroke_order_diagram--path_start" cx="22.74" cy="60.89" r="4" transform="matrix(1,0,0,1,296,-4)"></circle><line class="stroke_order_diagram--guide_line" x1="450" x2="450" y1="1" y2="99"></line><line class="stroke_order_diagram--bounding_box" x1="499" x2="499" y1="1" y2="99"></line><path class="stroke_order_diagram--existing_path" d="M37.6,13.72c1.21,1.37,1.98,3.71,1.98,5.33c0,15.46-0.04,69.81-0.04,75.08" id="Ske2fig1011" kvg:type="㇄" transform="matrix(1,0,0,1,396,-4)" xmlns:kvg="http://kanjivg.tagaini.net"></path><path class="stroke_order_diagram--existing_path" d="M17.25,18.42c1.37,0.64,1.89,1.38,2.01,3.48c0.18,3.15-0.74,15.51-1.16,18.81c-0.14,1.05,0.24,2.62,2.28,2.46C27.56,42.6,35,41.25,39.56,40.6" id="Ske2fig1012" kvg:type="㇐" transform="matrix(1,0,0,1,396,-4)" xmlns:kvg="http://kanjivg.tagaini.net"></path><path class="stroke_order_diagram--existing_path" d="M12.8,58.68c1.33,0.14,1.61,0.57,3.17,0.47c6.66-0.42,18.69-1.92,23.34-2.15" id="Ske2fig1013" kvg:type="㇒" transform="matrix(1,0,0,1,396,-4)" xmlns:kvg="http://kanjivg.tagaini.net"></path><path class="stroke_order_diagram--existing_path" d="M22.74,60.89c0.26,0.86,0.51,1.72,0.45,2.97C22.5,77.25,18.5,87.5,10,93.75" id="Ske2fig1014" kvg:type="㇑" transform="matrix(1,0,0,1,396,-4)" xmlns:kvg="http://kanjivg.tagaini.net"></path><path class="stroke_order_diagram--current_path" d="M68.1,15.87c0.34,1.54,0.1,3.48-0.17,5.39C66.6,30.64,59,55.5,52.9,66.51c-1.22,2.21,0.31,2.83,1.01,2.83C66.75,69.25,82.75,78.5,91,92.22" id="kvg:0599d-s5" kvg:type="㇛" transform="matrix(1,0,0,1,396,-4)" xmlns:kvg="http://kanjivg.tagaini.net"></path><path class="stroke_order_diagram--current_path" d="M68.1,15.87c0.34,1.54,0.1,3.48-0.17,5.39C66.6,30.64,59,55.5,52.9,66.51c-1.22,2.21,0.31,2.83,1.01,2.83C66.75,69.25,82.75,78.5,91,92.22" id="Ske2fig1016" kvg:type="㇛" transform="matrix(1,0,0,1,396,-4)" xmlns:kvg="http://kanjivg.tagaini.net"></path><circle class="stroke_order_diagram--path_start" cx="68.1" cy="15.87" r="4" transform="matrix(1,0,0,1,396,-4)"></circle><line class="stroke_order_diagram--guide_line" x1="550" x2="550" y1="1" y2="99"></line><line class="stroke_order_diagram--bounding_box" x1="599" x2="599" y1="1" y2="99"></line><path class="stroke_order_diagram--existing_path" d="M37.6,13.72c1.21,1.37,1.98,3.71,1.98,5.33c0,15.46-0.04,69.81-0.04,75.08" id="Ske2fig1019" kvg:type="㇄" transform="matrix(1,0,0,1,496,-4)" xmlns:kvg="http://kanjivg.tagaini.net"></path><path class="stroke_order_diagram--existing_path" d="M17.25,18.42c1.37,0.64,1.89,1.38,2.01,3.48c0.18,3.15-0.74,15.51-1.16,18.81c-0.14,1.05,0.24,2.62,2.28,2.46C27.56,42.6,35,41.25,39.56,40.6" id="Ske2fig101a" kvg:type="㇐" transform="matrix(1,0,0,1,496,-4)" xmlns:kvg="http://kanjivg.tagaini.net"></path><path class="stroke_order_diagram--existing_path" d="M12.8,58.68c1.33,0.14,1.61,0.57,3.17,0.47c6.66-0.42,18.69-1.92,23.34-2.15" id="Ske2fig101b" kvg:type="㇒" transform="matrix(1,0,0,1,496,-4)" xmlns:kvg="http://kanjivg.tagaini.net"></path><path class="stroke_order_diagram--existing_path" d="M22.74,60.89c0.26,0.86,0.51,1.72,0.45,2.97C22.5,77.25,18.5,87.5,10,93.75" id="Ske2fig101c" kvg:type="㇑" transform="matrix(1,0,0,1,496,-4)" xmlns:kvg="http://kanjivg.tagaini.net"></path><path class="stroke_order_diagram--existing_path" d="M68.1,15.87c0.34,1.54,0.1,3.48-0.17,5.39C66.6,30.64,59,55.5,52.9,66.51c-1.22,2.21,0.31,2.83,1.01,2.83C66.75,69.25,82.75,78.5,91,92.22" id="Ske2fig101d" kvg:type="㇛" transform="matrix(1,0,0,1,496,-4)" xmlns:kvg="http://kanjivg.tagaini.net"></path><path class="stroke_order_diagram--current_path" d="M82.79,32.09c1.01,1.42,1.1,2.53,0.9,4.67C82,54,71.25,83,48.29,93.75" id="kvg:0599d-s6" kvg:type="㇒" transform="matrix(1,0,0,1,496,-4)" xmlns:kvg="http://kanjivg.tagaini.net"></path><path class="stroke_order_diagram--current_path" d="M82.79,32.09c1.01,1.42,1.1,2.53,0.9,4.67C82,54,71.25,83,48.29,93.75" id="Ske2fig101f" kvg:type="㇒" transform="matrix(1,0,0,1,496,-4)" xmlns:kvg="http://kanjivg.tagaini.net"></path><circle class="stroke_order_diagram--path_start" cx="82.79" cy="32.09" r="4" transform="matrix(1,0,0,1,496,-4)"></circle><line class="stroke_order_diagram--guide_line" x1="650" x2="650" y1="1" y2="99"></line><line class="stroke_order_diagram--bounding_box" x1="699" x2="699" y1="1" y2="99"></line><path class="stroke_order_diagram--existing_path" d="M37.6,13.72c1.21,1.37,1.98,3.71,1.98,5.33c0,15.46-0.04,69.81-0.04,75.08" id="Ske2fig101i" kvg:type="㇄" transform="matrix(1,0,0,1,596,-4)" xmlns:kvg="http://kanjivg.tagaini.net"></path><path class="stroke_order_diagram--existing_path" d="M17.25,18.42c1.37,0.64,1.89,1.38,2.01,3.48c0.18,3.15-0.74,15.51-1.16,18.81c-0.14,1.05,0.24,2.62,2.28,2.46C27.56,42.6,35,41.25,39.56,40.6" id="Ske2fig101j" kvg:type="㇐" transform="matrix(1,0,0,1,596,-4)" xmlns:kvg="http://kanjivg.tagaini.net"></path><path class="stroke_order_diagram--existing_path" d="M12.8,58.68c1.33,0.14,1.61,0.57,3.17,0.47c6.66-0.42,18.69-1.92,23.34-2.15" id="Ske2fig101k" kvg:type="㇒" transform="matrix(1,0,0,1,596,-4)" xmlns:kvg="http://kanjivg.tagaini.net"></path><path class="stroke_order_diagram--existing_path" d="M22.74,60.89c0.26,0.86,0.51,1.72,0.45,2.97C22.5,77.25,18.5,87.5,10,93.75" id="Ske2fig101l" kvg:type="㇑" transform="matrix(1,0,0,1,596,-4)" xmlns:kvg="http://kanjivg.tagaini.net"></path><path class="stroke_order_diagram--existing_path" d="M68.1,15.87c0.34,1.54,0.1,3.48-0.17,5.39C66.6,30.64,59,55.5,52.9,66.51c-1.22,2.21,0.31,2.83,1.01,2.83C66.75,69.25,82.75,78.5,91,92.22" id="Ske2fig101m" kvg:type="㇛" transform="matrix(1,0,0,1,596,-4)" xmlns:kvg="http://kanjivg.tagaini.net"></path><path class="stroke_order_diagram--existing_path" d="M82.79,32.09c1.01,1.42,1.1,2.53,0.9,4.67C82,54,71.25,83,48.29,93.75" id="Ske2fig101n" kvg:type="㇒" transform="matrix(1,0,0,1,596,-4)" xmlns:kvg="http://kanjivg.tagaini.net"></path><path class="stroke_order_diagram--current_path" d="M45.88,42.93c1.39,0.35,2.87,0.58,3.54,0.53c14.06-1.09,32.23-3.06,45.65-3.21c1.11-0.01,3.03,0.21,3.93,0.61" id="kvg:0599d-s7" kvg:type="㇐" transform="matrix(1,0,0,1,596,-4)" xmlns:kvg="http://kanjivg.tagaini.net"></path><path class="stroke_order_diagram--current_path" d="M45.88,42.93c1.39,0.35,2.87,0.58,3.54,0.53c14.06-1.09,32.23-3.06,45.65-3.21c1.11-0.01,3.03,0.21,3.93,0.61" id="Ske2fig101p" kvg:type="㇐" transform="matrix(1,0,0,1,596,-4)" xmlns:kvg="http://kanjivg.tagaini.net"></path><circle class="stroke_order_diagram--path_start" cx="45.88" cy="42.93" r="4" transform="matrix(1,0,0,1,596,-4)"></circle></svg>