<svg class="stroke_order_diagram--svg_container_for_51866288d5dda796580005eb" style="height: 100px; width: 800px;" viewbox="0 0 800 100"><desc>Created with Snap</desc><defs></defs><line class="stroke_order_diagram--bounding_box" x1="1" x2="799" y1="1" y2="1"></line><line class="stroke_order_diagram--bounding_box" x1="1" x2="1" y1="1" y2="99"></line><line class="stroke_order_diagram--bounding_box" x1="1" x2="799" y1="99" y2="99"></line><line class="stroke_order_diagram--guide_line" x1="0" x2="800" y1="50" y2="50"></line><line class="stroke_order_diagram--guide_line" x1="50" x2="50" y1="1" y2="99"></line><line class="stroke_order_diagram--bounding_box" x1="99" x2="99" y1="1" y2="99"></line><path class="stroke_order_diagram--current_path" d="M29.31,19.62c0.4,1,0.62,2.38,0.41,3.82c-1.01,7.08-6.53,32.99-10.98,41.27c-0.91,1.7,0.41,2.36,0.91,2.52c6.93,2.21,12.86,5.23,17.52,9.59c1.85,1.73,3.29,3.89,4.83,5.96" id="kvg:059d3-s1" kvg:type="㇛" transform="matrix(1,0,0,1,-4,-4)" xmlns:kvg="http://kanjivg.tagaini.net"></path><path class="stroke_order_diagram--current_path" d="M29.31,19.62c0.4,1,0.62,2.38,0.41,3.82c-1.01,7.08-6.53,32.99-10.98,41.27c-0.91,1.7,0.41,2.36,0.91,2.52c6.93,2.21,12.86,5.23,17.52,9.59c1.85,1.73,3.29,3.89,4.83,5.96" id="Ske1ziu8zh" kvg:type="㇛" transform="matrix(1,0,0,1,-4,-4)" xmlns:kvg="http://kanjivg.tagaini.net"></path><circle class="stroke_order_diagram--path_start" cx="29.31" cy="19.62" r="4" transform="matrix(1,0,0,1,-4,-4)"></circle><line class="stroke_order_diagram--guide_line" x1="150" x2="150" y1="1" y2="99"></line><line class="stroke_order_diagram--bounding_box" x1="199" x2="199" y1="1" y2="99"></line><path class="stroke_order_diagram--existing_path" d="M29.31,19.62c0.4,1,0.62,2.38,0.41,3.82c-1.01,7.08-6.53,32.99-10.98,41.27c-0.91,1.7,0.41,2.36,0.91,2.52c6.93,2.21,12.86,5.23,17.52,9.59c1.85,1.73,3.29,3.89,4.83,5.96" id="Ske1ziu8zk" kvg:type="㇛" transform="matrix(1,0,0,1,96,-4)" xmlns:kvg="http://kanjivg.tagaini.net"></path><path class="stroke_order_diagram--current_path" d="M40.25,38.39c0.5,1.61,0.88,3.59,0.59,5.43c-2.32,14.84-9.01,36.63-25.6,47.68" id="kvg:059d3-s2" kvg:type="㇒" transform="matrix(1,0,0,1,96,-4)" xmlns:kvg="http://kanjivg.tagaini.net"></path><path class="stroke_order_diagram--current_path" d="M40.25,38.39c0.5,1.61,0.88,3.59,0.59,5.43c-2.32,14.84-9.01,36.63-25.6,47.68" id="Ske1ziu8zm" kvg:type="㇒" transform="matrix(1,0,0,1,96,-4)" xmlns:kvg="http://kanjivg.tagaini.net"></path><circle class="stroke_order_diagram--path_start" cx="40.25" cy="38.39" r="4" transform="matrix(1,0,0,1,96,-4)"></circle><line class="stroke_order_diagram--guide_line" x1="250" x2="250" y1="1" y2="99"></line><line class="stroke_order_diagram--bounding_box" x1="299" x2="299" y1="1" y2="99"></line><path class="stroke_order_diagram--existing_path" d="M29.31,19.62c0.4,1,0.62,2.38,0.41,3.82c-1.01,7.08-6.53,32.99-10.98,41.27c-0.91,1.7,0.41,2.36,0.91,2.52c6.93,2.21,12.86,5.23,17.52,9.59c1.85,1.73,3.29,3.89,4.83,5.96" id="Ske1ziu8zp" kvg:type="㇛" transform="matrix(1,0,0,1,196,-4)" xmlns:kvg="http://kanjivg.tagaini.net"></path><path class="stroke_order_diagram--existing_path" d="M40.25,38.39c0.5,1.61,0.88,3.59,0.59,5.43c-2.32,14.84-9.01,36.63-25.6,47.68" id="Ske1ziu8zq" kvg:type="㇒" transform="matrix(1,0,0,1,196,-4)" xmlns:kvg="http://kanjivg.tagaini.net"></path><path class="stroke_order_diagram--current_path" d="M11.75,49.22c0.75,0.94,1.75,1.62,3.75,1.39c2.15-0.24,20.09-4.6,29-6.98" id="kvg:059d3-s3" kvg:type="㇀/㇐" transform="matrix(1,0,0,1,196,-4)" xmlns:kvg="http://kanjivg.tagaini.net"></path><path class="stroke_order_diagram--current_path" d="M11.75,49.22c0.75,0.94,1.75,1.62,3.75,1.39c2.15-0.24,20.09-4.6,29-6.98" id="Ske1ziu8zs" kvg:type="㇀/㇐" transform="matrix(1,0,0,1,196,-4)" xmlns:kvg="http://kanjivg.tagaini.net"></path><circle class="stroke_order_diagram--path_start" cx="11.75" cy="49.22" r="4" transform="matrix(1,0,0,1,196,-4)"></circle><line class="stroke_order_diagram--guide_line" x1="350" x2="350" y1="1" y2="99"></line><line class="stroke_order_diagram--bounding_box" x1="399" x2="399" y1="1" y2="99"></line><path class="stroke_order_diagram--existing_path" d="M29.31,19.62c0.4,1,0.62,2.38,0.41,3.82c-1.01,7.08-6.53,32.99-10.98,41.27c-0.91,1.7,0.41,2.36,0.91,2.52c6.93,2.21,12.86,5.23,17.52,9.59c1.85,1.73,3.29,3.89,4.83,5.96" id="Ske1ziu8zv" kvg:type="㇛" transform="matrix(1,0,0,1,296,-4)" xmlns:kvg="http://kanjivg.tagaini.net"></path><path class="stroke_order_diagram--existing_path" d="M40.25,38.39c0.5,1.61,0.88,3.59,0.59,5.43c-2.32,14.84-9.01,36.63-25.6,47.68" id="Ske1ziu8zw" kvg:type="㇒" transform="matrix(1,0,0,1,296,-4)" xmlns:kvg="http://kanjivg.tagaini.net"></path><path class="stroke_order_diagram--existing_path" d="M11.75,49.22c0.75,0.94,1.75,1.62,3.75,1.39c2.15-0.24,20.09-4.6,29-6.98" id="Ske1ziu8zx" kvg:type="㇀/㇐" transform="matrix(1,0,0,1,296,-4)" xmlns:kvg="http://kanjivg.tagaini.net"></path><path class="stroke_order_diagram--current_path" d="M58.02,29.49c0.05,1.16,0.06,2.29-0.25,3.42c-1.64,5.97-4.63,13.87-8.85,19.5" id="kvg:059d3-s4" kvg:type="㇒" transform="matrix(1,0,0,1,296,-4)" xmlns:kvg="http://kanjivg.tagaini.net"></path><path class="stroke_order_diagram--current_path" d="M58.02,29.49c0.05,1.16,0.06,2.29-0.25,3.42c-1.64,5.97-4.63,13.87-8.85,19.5" id="Ske1ziu8zz" kvg:type="㇒" transform="matrix(1,0,0,1,296,-4)" xmlns:kvg="http://kanjivg.tagaini.net"></path><circle class="stroke_order_diagram--path_start" cx="58.02" cy="29.49" r="4" transform="matrix(1,0,0,1,296,-4)"></circle><line class="stroke_order_diagram--guide_line" x1="450" x2="450" y1="1" y2="99"></line><line class="stroke_order_diagram--bounding_box" x1="499" x2="499" y1="1" y2="99"></line><path class="stroke_order_diagram--existing_path" d="M29.31,19.62c0.4,1,0.62,2.38,0.41,3.82c-1.01,7.08-6.53,32.99-10.98,41.27c-0.91,1.7,0.41,2.36,0.91,2.52c6.93,2.21,12.86,5.23,17.52,9.59c1.85,1.73,3.29,3.89,4.83,5.96" id="Ske1ziu8z12" kvg:type="㇛" transform="matrix(1,0,0,1,396,-4)" xmlns:kvg="http://kanjivg.tagaini.net"></path><path class="stroke_order_diagram--existing_path" d="M40.25,38.39c0.5,1.61,0.88,3.59,0.59,5.43c-2.32,14.84-9.01,36.63-25.6,47.68" id="Ske1ziu8z13" kvg:type="㇒" transform="matrix(1,0,0,1,396,-4)" xmlns:kvg="http://kanjivg.tagaini.net"></path><path class="stroke_order_diagram--existing_path" d="M11.75,49.22c0.75,0.94,1.75,1.62,3.75,1.39c2.15-0.24,20.09-4.6,29-6.98" id="Ske1ziu8z14" kvg:type="㇀/㇐" transform="matrix(1,0,0,1,396,-4)" xmlns:kvg="http://kanjivg.tagaini.net"></path><path class="stroke_order_diagram--existing_path" d="M58.02,29.49c0.05,1.16,0.06,2.29-0.25,3.42c-1.64,5.97-4.63,13.87-8.85,19.5" id="Ske1ziu8z15" kvg:type="㇒" transform="matrix(1,0,0,1,396,-4)" xmlns:kvg="http://kanjivg.tagaini.net"></path><path class="stroke_order_diagram--current_path" d="M58.18,42.37c1.57,0.13,2.88,0.06,4.18-0.08c5.37-0.56,17-1.93,23.16-2.6c1.83-0.2,3.32-0.35,5.12-0.15" id="kvg:059d3-s5" kvg:type="㇐" transform="matrix(1,0,0,1,396,-4)" xmlns:kvg="http://kanjivg.tagaini.net"></path><path class="stroke_order_diagram--current_path" d="M58.18,42.37c1.57,0.13,2.88,0.06,4.18-0.08c5.37-0.56,17-1.93,23.16-2.6c1.83-0.2,3.32-0.35,5.12-0.15" id="Ske1ziu8z17" kvg:type="㇐" transform="matrix(1,0,0,1,396,-4)" xmlns:kvg="http://kanjivg.tagaini.net"></path><circle class="stroke_order_diagram--path_start" cx="58.18" cy="42.37" r="4" transform="matrix(1,0,0,1,396,-4)"></circle><line class="stroke_order_diagram--guide_line" x1="550" x2="550" y1="1" y2="99"></line><line class="stroke_order_diagram--bounding_box" x1="599" x2="599" y1="1" y2="99"></line><path class="stroke_order_diagram--existing_path" d="M29.31,19.62c0.4,1,0.62,2.38,0.41,3.82c-1.01,7.08-6.53,32.99-10.98,41.27c-0.91,1.7,0.41,2.36,0.91,2.52c6.93,2.21,12.86,5.23,17.52,9.59c1.85,1.73,3.29,3.89,4.83,5.96" id="Ske1ziu8z1a" kvg:type="㇛" transform="matrix(1,0,0,1,496,-4)" xmlns:kvg="http://kanjivg.tagaini.net"></path><path class="stroke_order_diagram--existing_path" d="M40.25,38.39c0.5,1.61,0.88,3.59,0.59,5.43c-2.32,14.84-9.01,36.63-25.6,47.68" id="Ske1ziu8z1b" kvg:type="㇒" transform="matrix(1,0,0,1,496,-4)" xmlns:kvg="http://kanjivg.tagaini.net"></path><path class="stroke_order_diagram--existing_path" d="M11.75,49.22c0.75,0.94,1.75,1.62,3.75,1.39c2.15-0.24,20.09-4.6,29-6.98" id="Ske1ziu8z1c" kvg:type="㇀/㇐" transform="matrix(1,0,0,1,496,-4)" xmlns:kvg="http://kanjivg.tagaini.net"></path><path class="stroke_order_diagram--existing_path" d="M58.02,29.49c0.05,1.16,0.06,2.29-0.25,3.42c-1.64,5.97-4.63,13.87-8.85,19.5" id="Ske1ziu8z1d" kvg:type="㇒" transform="matrix(1,0,0,1,496,-4)" xmlns:kvg="http://kanjivg.tagaini.net"></path><path class="stroke_order_diagram--existing_path" d="M58.18,42.37c1.57,0.13,2.88,0.06,4.18-0.08c5.37-0.56,17-1.93,23.16-2.6c1.83-0.2,3.32-0.35,5.12-0.15" id="Ske1ziu8z1e" kvg:type="㇐" transform="matrix(1,0,0,1,496,-4)" xmlns:kvg="http://kanjivg.tagaini.net"></path><path class="stroke_order_diagram--current_path" d="M69.65,16.13c1.11,1.11,1.69,2.74,1.69,5.09c0,1.03,0.01,58.9,0.01,68.27" id="kvg:059d3-s6" kvg:type="㇑a" transform="matrix(1,0,0,1,496,-4)" xmlns:kvg="http://kanjivg.tagaini.net"></path><path class="stroke_order_diagram--current_path" d="M69.65,16.13c1.11,1.11,1.69,2.74,1.69,5.09c0,1.03,0.01,58.9,0.01,68.27" id="Ske1ziu8z1g" kvg:type="㇑a" transform="matrix(1,0,0,1,496,-4)" xmlns:kvg="http://kanjivg.tagaini.net"></path><circle class="stroke_order_diagram--path_start" cx="69.65" cy="16.13" r="4" transform="matrix(1,0,0,1,496,-4)"></circle><line class="stroke_order_diagram--guide_line" x1="650" x2="650" y1="1" y2="99"></line><line class="stroke_order_diagram--bounding_box" x1="699" x2="699" y1="1" y2="99"></line><path class="stroke_order_diagram--existing_path" d="M29.31,19.62c0.4,1,0.62,2.38,0.41,3.82c-1.01,7.08-6.53,32.99-10.98,41.27c-0.91,1.7,0.41,2.36,0.91,2.52c6.93,2.21,12.86,5.23,17.52,9.59c1.85,1.73,3.29,3.89,4.83,5.96" id="Ske1ziu8z1j" kvg:type="㇛" transform="matrix(1,0,0,1,596,-4)" xmlns:kvg="http://kanjivg.tagaini.net"></path><path class="stroke_order_diagram--existing_path" d="M40.25,38.39c0.5,1.61,0.88,3.59,0.59,5.43c-2.32,14.84-9.01,36.63-25.6,47.68" id="Ske1ziu8z1k" kvg:type="㇒" transform="matrix(1,0,0,1,596,-4)" xmlns:kvg="http://kanjivg.tagaini.net"></path><path class="stroke_order_diagram--existing_path" d="M11.75,49.22c0.75,0.94,1.75,1.62,3.75,1.39c2.15-0.24,20.09-4.6,29-6.98" id="Ske1ziu8z1l" kvg:type="㇀/㇐" transform="matrix(1,0,0,1,596,-4)" xmlns:kvg="http://kanjivg.tagaini.net"></path><path class="stroke_order_diagram--existing_path" d="M58.02,29.49c0.05,1.16,0.06,2.29-0.25,3.42c-1.64,5.97-4.63,13.87-8.85,19.5" id="Ske1ziu8z1m" kvg:type="㇒" transform="matrix(1,0,0,1,596,-4)" xmlns:kvg="http://kanjivg.tagaini.net"></path><path class="stroke_order_diagram--existing_path" d="M58.18,42.37c1.57,0.13,2.88,0.06,4.18-0.08c5.37-0.56,17-1.93,23.16-2.6c1.83-0.2,3.32-0.35,5.12-0.15" id="Ske1ziu8z1n" kvg:type="㇐" transform="matrix(1,0,0,1,596,-4)" xmlns:kvg="http://kanjivg.tagaini.net"></path><path class="stroke_order_diagram--existing_path" d="M69.65,16.13c1.11,1.11,1.69,2.74,1.69,5.09c0,1.03,0.01,58.9,0.01,68.27" id="Ske1ziu8z1o" kvg:type="㇑a" transform="matrix(1,0,0,1,596,-4)" xmlns:kvg="http://kanjivg.tagaini.net"></path><path class="stroke_order_diagram--current_path" d="M54.43,64.55c2.07,0.45,3.85,0.46,5.46,0.27c7.87-0.94,19-1.69,25.26-2.22c1.63-0.14,3.5,0.06,5.14,0.2" id="kvg:059d3-s7" kvg:type="㇐" transform="matrix(1,0,0,1,596,-4)" xmlns:kvg="http://kanjivg.tagaini.net"></path><path class="stroke_order_diagram--current_path" d="M54.43,64.55c2.07,0.45,3.85,0.46,5.46,0.27c7.87-0.94,19-1.69,25.26-2.22c1.63-0.14,3.5,0.06,5.14,0.2" id="Ske1ziu8z1q" kvg:type="㇐" transform="matrix(1,0,0,1,596,-4)" xmlns:kvg="http://kanjivg.tagaini.net"></path><circle class="stroke_order_diagram--path_start" cx="54.43" cy="64.55" r="4" transform="matrix(1,0,0,1,596,-4)"></circle><line class="stroke_order_diagram--guide_line" x1="750" x2="750" y1="1" y2="99"></line><line class="stroke_order_diagram--bounding_box" x1="799" x2="799" y1="1" y2="99"></line><path class="stroke_order_diagram--existing_path" d="M29.31,19.62c0.4,1,0.62,2.38,0.41,3.82c-1.01,7.08-6.53,32.99-10.98,41.27c-0.91,1.7,0.41,2.36,0.91,2.52c6.93,2.21,12.86,5.23,17.52,9.59c1.85,1.73,3.29,3.89,4.83,5.96" id="Ske1ziu8z1t" kvg:type="㇛" transform="matrix(1,0,0,1,696,-4)" xmlns:kvg="http://kanjivg.tagaini.net"></path><path class="stroke_order_diagram--existing_path" d="M40.25,38.39c0.5,1.61,0.88,3.59,0.59,5.43c-2.32,14.84-9.01,36.63-25.6,47.68" id="Ske1ziu8z1u" kvg:type="㇒" transform="matrix(1,0,0,1,696,-4)" xmlns:kvg="http://kanjivg.tagaini.net"></path><path class="stroke_order_diagram--existing_path" d="M11.75,49.22c0.75,0.94,1.75,1.62,3.75,1.39c2.15-0.24,20.09-4.6,29-6.98" id="Ske1ziu8z1v" kvg:type="㇀/㇐" transform="matrix(1,0,0,1,696,-4)" xmlns:kvg="http://kanjivg.tagaini.net"></path><path class="stroke_order_diagram--existing_path" d="M58.02,29.49c0.05,1.16,0.06,2.29-0.25,3.42c-1.64,5.97-4.63,13.87-8.85,19.5" id="Ske1ziu8z1w" kvg:type="㇒" transform="matrix(1,0,0,1,696,-4)" xmlns:kvg="http://kanjivg.tagaini.net"></path><path class="stroke_order_diagram--existing_path" d="M58.18,42.37c1.57,0.13,2.88,0.06,4.18-0.08c5.37-0.56,17-1.93,23.16-2.6c1.83-0.2,3.32-0.35,5.12-0.15" id="Ske1ziu8z1x" kvg:type="㇐" transform="matrix(1,0,0,1,696,-4)" xmlns:kvg="http://kanjivg.tagaini.net"></path><path class="stroke_order_diagram--existing_path" d="M69.65,16.13c1.11,1.11,1.69,2.74,1.69,5.09c0,1.03,0.01,58.9,0.01,68.27" id="Ske1ziu8z1y" kvg:type="㇑a" transform="matrix(1,0,0,1,696,-4)" xmlns:kvg="http://kanjivg.tagaini.net"></path><path class="stroke_order_diagram--existing_path" d="M54.43,64.55c2.07,0.45,3.85,0.46,5.46,0.27c7.87-0.94,19-1.69,25.26-2.22c1.63-0.14,3.5,0.06,5.14,0.2" id="Ske1ziu8z1z" kvg:type="㇐" transform="matrix(1,0,0,1,696,-4)" xmlns:kvg="http://kanjivg.tagaini.net"></path><path class="stroke_order_diagram--current_path" d="M45.93,90.76c2.58,0.79,5.18,0.7,7.82,0.57c9.4-0.47,27-1.71,36.27-1.74c2.55-0.01,4.8,0.12,7.18,1.28" id="kvg:059d3-s8" kvg:type="㇐" transform="matrix(1,0,0,1,696,-4)" xmlns:kvg="http://kanjivg.tagaini.net"></path><path class="stroke_order_diagram--current_path" d="M45.93,90.76c2.58,0.79,5.18,0.7,7.82,0.57c9.4-0.47,27-1.71,36.27-1.74c2.55-0.01,4.8,0.12,7.18,1.28" id="Ske1ziu8z21" kvg:type="㇐" transform="matrix(1,0,0,1,696,-4)" xmlns:kvg="http://kanjivg.tagaini.net"></path><circle class="stroke_order_diagram--path_start" cx="45.93" cy="90.76" r="4" transform="matrix(1,0,0,1,696,-4)"></circle></svg>