<svg class="stroke_order_diagram--svg_container_for_51866272d5dda79658000031" style="height: 100px; width: 800px;" viewbox="0 0 800 100"><desc>Created with Snap</desc><defs></defs><line class="stroke_order_diagram--bounding_box" x1="1" x2="799" y1="1" y2="1"></line><line class="stroke_order_diagram--bounding_box" x1="1" x2="1" y1="1" y2="99"></line><line class="stroke_order_diagram--bounding_box" x1="1" x2="799" y1="99" y2="99"></line><line class="stroke_order_diagram--guide_line" x1="0" x2="800" y1="50" y2="50"></line><line class="stroke_order_diagram--guide_line" x1="50" x2="50" y1="1" y2="99"></line><line class="stroke_order_diagram--bounding_box" x1="99" x2="99" y1="1" y2="99"></line><path class="stroke_order_diagram--current_path" d="M68.25,11.75c-0.25,1-1.3,1.89-1.94,2.18C61.48,16.15,49,20.12,32.25,22" id="kvg:059d4-s1" kvg:type="㇒" transform="matrix(1,0,0,1,-4,-4)" xmlns:kvg="http://kanjivg.tagaini.net"></path><path class="stroke_order_diagram--current_path" d="M68.25,11.75c-0.25,1-1.3,1.89-1.94,2.18C61.48,16.15,49,20.12,32.25,22" id="Ske1nlvigh" kvg:type="㇒" transform="matrix(1,0,0,1,-4,-4)" xmlns:kvg="http://kanjivg.tagaini.net"></path><circle class="stroke_order_diagram--path_start" cx="68.25" cy="11.75" r="4" transform="matrix(1,0,0,1,-4,-4)"></circle><line class="stroke_order_diagram--guide_line" x1="150" x2="150" y1="1" y2="99"></line><line class="stroke_order_diagram--bounding_box" x1="199" x2="199" y1="1" y2="99"></line><path class="stroke_order_diagram--existing_path" d="M68.25,11.75c-0.25,1-1.3,1.89-1.94,2.18C61.48,16.15,49,20.12,32.25,22" id="Ske1nlvigk" kvg:type="㇒" transform="matrix(1,0,0,1,96,-4)" xmlns:kvg="http://kanjivg.tagaini.net"></path><path class="stroke_order_diagram--current_path" d="M22.5,33.54c2.5,0.46,4.85,0.52,7.96,0.19c14.91-1.6,31.16-3.1,49.15-4.36c3.12-0.22,5.43-0.15,7.39,0" id="kvg:059d4-s2" kvg:type="㇐" transform="matrix(1,0,0,1,96,-4)" xmlns:kvg="http://kanjivg.tagaini.net"></path><path class="stroke_order_diagram--current_path" d="M22.5,33.54c2.5,0.46,4.85,0.52,7.96,0.19c14.91-1.6,31.16-3.1,49.15-4.36c3.12-0.22,5.43-0.15,7.39,0" id="Ske1nlvigm" kvg:type="㇐" transform="matrix(1,0,0,1,96,-4)" xmlns:kvg="http://kanjivg.tagaini.net"></path><circle class="stroke_order_diagram--path_start" cx="22.5" cy="33.54" r="4" transform="matrix(1,0,0,1,96,-4)"></circle><line class="stroke_order_diagram--guide_line" x1="250" x2="250" y1="1" y2="99"></line><line class="stroke_order_diagram--bounding_box" x1="299" x2="299" y1="1" y2="99"></line><path class="stroke_order_diagram--existing_path" d="M68.25,11.75c-0.25,1-1.3,1.89-1.94,2.18C61.48,16.15,49,20.12,32.25,22" id="Ske1nlvigp" kvg:type="㇒" transform="matrix(1,0,0,1,196,-4)" xmlns:kvg="http://kanjivg.tagaini.net"></path><path class="stroke_order_diagram--existing_path" d="M22.5,33.54c2.5,0.46,4.85,0.52,7.96,0.19c14.91-1.6,31.16-3.1,49.15-4.36c3.12-0.22,5.43-0.15,7.39,0" id="Ske1nlvigq" kvg:type="㇐" transform="matrix(1,0,0,1,196,-4)" xmlns:kvg="http://kanjivg.tagaini.net"></path><path class="stroke_order_diagram--current_path" d="M53.47,20.96c0.91,0.91,1.35,2.04,1.35,3.74c0,3.55,0.05,14.88-0.08,23.32c-0.03,1.99-0.06,3.51-0.1,4.24" id="kvg:059d4-s3" kvg:type="㇑" transform="matrix(1,0,0,1,196,-4)" xmlns:kvg="http://kanjivg.tagaini.net"></path><path class="stroke_order_diagram--current_path" d="M53.47,20.96c0.91,0.91,1.35,2.04,1.35,3.74c0,3.55,0.05,14.88-0.08,23.32c-0.03,1.99-0.06,3.51-0.1,4.24" id="Ske1nlvigs" kvg:type="㇑" transform="matrix(1,0,0,1,196,-4)" xmlns:kvg="http://kanjivg.tagaini.net"></path><circle class="stroke_order_diagram--path_start" cx="53.47" cy="20.96" r="4" transform="matrix(1,0,0,1,196,-4)"></circle><line class="stroke_order_diagram--guide_line" x1="350" x2="350" y1="1" y2="99"></line><line class="stroke_order_diagram--bounding_box" x1="399" x2="399" y1="1" y2="99"></line><path class="stroke_order_diagram--existing_path" d="M68.25,11.75c-0.25,1-1.3,1.89-1.94,2.18C61.48,16.15,49,20.12,32.25,22" id="Ske1nlvigv" kvg:type="㇒" transform="matrix(1,0,0,1,296,-4)" xmlns:kvg="http://kanjivg.tagaini.net"></path><path class="stroke_order_diagram--existing_path" d="M22.5,33.54c2.5,0.46,4.85,0.52,7.96,0.19c14.91-1.6,31.16-3.1,49.15-4.36c3.12-0.22,5.43-0.15,7.39,0" id="Ske1nlvigw" kvg:type="㇐" transform="matrix(1,0,0,1,296,-4)" xmlns:kvg="http://kanjivg.tagaini.net"></path><path class="stroke_order_diagram--existing_path" d="M53.47,20.96c0.91,0.91,1.35,2.04,1.35,3.74c0,3.55,0.05,14.88-0.08,23.32c-0.03,1.99-0.06,3.51-0.1,4.24" id="Ske1nlvigx" kvg:type="㇑" transform="matrix(1,0,0,1,296,-4)" xmlns:kvg="http://kanjivg.tagaini.net"></path><path class="stroke_order_diagram--current_path" d="M50.88,32.38c-0.24,1.04-0.82,2.12-1.54,2.94c-7.44,8.5-19.48,17.66-32.09,21.81" id="kvg:059d4-s4" kvg:type="㇒" transform="matrix(1,0,0,1,296,-4)" xmlns:kvg="http://kanjivg.tagaini.net"></path><path class="stroke_order_diagram--current_path" d="M50.88,32.38c-0.24,1.04-0.82,2.12-1.54,2.94c-7.44,8.5-19.48,17.66-32.09,21.81" id="Ske1nlvigz" kvg:type="㇒" transform="matrix(1,0,0,1,296,-4)" xmlns:kvg="http://kanjivg.tagaini.net"></path><circle class="stroke_order_diagram--path_start" cx="50.88" cy="32.38" r="4" transform="matrix(1,0,0,1,296,-4)"></circle><line class="stroke_order_diagram--guide_line" x1="450" x2="450" y1="1" y2="99"></line><line class="stroke_order_diagram--bounding_box" x1="499" x2="499" y1="1" y2="99"></line><path class="stroke_order_diagram--existing_path" d="M68.25,11.75c-0.25,1-1.3,1.89-1.94,2.18C61.48,16.15,49,20.12,32.25,22" id="Ske1nlvig12" kvg:type="㇒" transform="matrix(1,0,0,1,396,-4)" xmlns:kvg="http://kanjivg.tagaini.net"></path><path class="stroke_order_diagram--existing_path" d="M22.5,33.54c2.5,0.46,4.85,0.52,7.96,0.19c14.91-1.6,31.16-3.1,49.15-4.36c3.12-0.22,5.43-0.15,7.39,0" id="Ske1nlvig13" kvg:type="㇐" transform="matrix(1,0,0,1,396,-4)" xmlns:kvg="http://kanjivg.tagaini.net"></path><path class="stroke_order_diagram--existing_path" d="M53.47,20.96c0.91,0.91,1.35,2.04,1.35,3.74c0,3.55,0.05,14.88-0.08,23.32c-0.03,1.99-0.06,3.51-0.1,4.24" id="Ske1nlvig14" kvg:type="㇑" transform="matrix(1,0,0,1,396,-4)" xmlns:kvg="http://kanjivg.tagaini.net"></path><path class="stroke_order_diagram--existing_path" d="M50.88,32.38c-0.24,1.04-0.82,2.12-1.54,2.94c-7.44,8.5-19.48,17.66-32.09,21.81" id="Ske1nlvig15" kvg:type="㇒" transform="matrix(1,0,0,1,396,-4)" xmlns:kvg="http://kanjivg.tagaini.net"></path><path class="stroke_order_diagram--current_path" d="M56,33.07c4.56,2.96,19.56,11.49,27.74,15.96c3.02,1.65,6.3,2.93,9.76,3.51" id="kvg:059d4-s5" kvg:type="㇏" transform="matrix(1,0,0,1,396,-4)" xmlns:kvg="http://kanjivg.tagaini.net"></path><path class="stroke_order_diagram--current_path" d="M56,33.07c4.56,2.96,19.56,11.49,27.74,15.96c3.02,1.65,6.3,2.93,9.76,3.51" id="Ske1nlvig17" kvg:type="㇏" transform="matrix(1,0,0,1,396,-4)" xmlns:kvg="http://kanjivg.tagaini.net"></path><circle class="stroke_order_diagram--path_start" cx="56" cy="33.07" r="4" transform="matrix(1,0,0,1,396,-4)"></circle><line class="stroke_order_diagram--guide_line" x1="550" x2="550" y1="1" y2="99"></line><line class="stroke_order_diagram--bounding_box" x1="599" x2="599" y1="1" y2="99"></line><path class="stroke_order_diagram--existing_path" d="M68.25,11.75c-0.25,1-1.3,1.89-1.94,2.18C61.48,16.15,49,20.12,32.25,22" id="Ske1nlvig1a" kvg:type="㇒" transform="matrix(1,0,0,1,496,-4)" xmlns:kvg="http://kanjivg.tagaini.net"></path><path class="stroke_order_diagram--existing_path" d="M22.5,33.54c2.5,0.46,4.85,0.52,7.96,0.19c14.91-1.6,31.16-3.1,49.15-4.36c3.12-0.22,5.43-0.15,7.39,0" id="Ske1nlvig1b" kvg:type="㇐" transform="matrix(1,0,0,1,496,-4)" xmlns:kvg="http://kanjivg.tagaini.net"></path><path class="stroke_order_diagram--existing_path" d="M53.47,20.96c0.91,0.91,1.35,2.04,1.35,3.74c0,3.55,0.05,14.88-0.08,23.32c-0.03,1.99-0.06,3.51-0.1,4.24" id="Ske1nlvig1c" kvg:type="㇑" transform="matrix(1,0,0,1,496,-4)" xmlns:kvg="http://kanjivg.tagaini.net"></path><path class="stroke_order_diagram--existing_path" d="M50.88,32.38c-0.24,1.04-0.82,2.12-1.54,2.94c-7.44,8.5-19.48,17.66-32.09,21.81" id="Ske1nlvig1d" kvg:type="㇒" transform="matrix(1,0,0,1,496,-4)" xmlns:kvg="http://kanjivg.tagaini.net"></path><path class="stroke_order_diagram--existing_path" d="M56,33.07c4.56,2.96,19.56,11.49,27.74,15.96c3.02,1.65,6.3,2.93,9.76,3.51" id="Ske1nlvig1e" kvg:type="㇏" transform="matrix(1,0,0,1,496,-4)" xmlns:kvg="http://kanjivg.tagaini.net"></path><path class="stroke_order_diagram--current_path" d="M49.71,54.87c0.29,1.38-0.02,3.21-0.75,4.49c-4.21,7.39-5.46,11.02-11.71,19C35.89,80.09,36,80.76,38.5,81c13.25,1.25,21.5,4.25,32.4,10.18c4.21,2.29,7.98,4.82,10.85,7.67" id="kvg:059d4-s6" kvg:type="㇛" transform="matrix(1,0,0,1,496,-4)" xmlns:kvg="http://kanjivg.tagaini.net"></path><path class="stroke_order_diagram--current_path" d="M49.71,54.87c0.29,1.38-0.02,3.21-0.75,4.49c-4.21,7.39-5.46,11.02-11.71,19C35.89,80.09,36,80.76,38.5,81c13.25,1.25,21.5,4.25,32.4,10.18c4.21,2.29,7.98,4.82,10.85,7.67" id="Ske1nlvig1g" kvg:type="㇛" transform="matrix(1,0,0,1,496,-4)" xmlns:kvg="http://kanjivg.tagaini.net"></path><circle class="stroke_order_diagram--path_start" cx="49.71" cy="54.87" r="4" transform="matrix(1,0,0,1,496,-4)"></circle><line class="stroke_order_diagram--guide_line" x1="650" x2="650" y1="1" y2="99"></line><line class="stroke_order_diagram--bounding_box" x1="699" x2="699" y1="1" y2="99"></line><path class="stroke_order_diagram--existing_path" d="M68.25,11.75c-0.25,1-1.3,1.89-1.94,2.18C61.48,16.15,49,20.12,32.25,22" id="Ske1nlvig1j" kvg:type="㇒" transform="matrix(1,0,0,1,596,-4)" xmlns:kvg="http://kanjivg.tagaini.net"></path><path class="stroke_order_diagram--existing_path" d="M22.5,33.54c2.5,0.46,4.85,0.52,7.96,0.19c14.91-1.6,31.16-3.1,49.15-4.36c3.12-0.22,5.43-0.15,7.39,0" id="Ske1nlvig1k" kvg:type="㇐" transform="matrix(1,0,0,1,596,-4)" xmlns:kvg="http://kanjivg.tagaini.net"></path><path class="stroke_order_diagram--existing_path" d="M53.47,20.96c0.91,0.91,1.35,2.04,1.35,3.74c0,3.55,0.05,14.88-0.08,23.32c-0.03,1.99-0.06,3.51-0.1,4.24" id="Ske1nlvig1l" kvg:type="㇑" transform="matrix(1,0,0,1,596,-4)" xmlns:kvg="http://kanjivg.tagaini.net"></path><path class="stroke_order_diagram--existing_path" d="M50.88,32.38c-0.24,1.04-0.82,2.12-1.54,2.94c-7.44,8.5-19.48,17.66-32.09,21.81" id="Ske1nlvig1m" kvg:type="㇒" transform="matrix(1,0,0,1,596,-4)" xmlns:kvg="http://kanjivg.tagaini.net"></path><path class="stroke_order_diagram--existing_path" d="M56,33.07c4.56,2.96,19.56,11.49,27.74,15.96c3.02,1.65,6.3,2.93,9.76,3.51" id="Ske1nlvig1n" kvg:type="㇏" transform="matrix(1,0,0,1,596,-4)" xmlns:kvg="http://kanjivg.tagaini.net"></path><path class="stroke_order_diagram--existing_path" d="M49.71,54.87c0.29,1.38-0.02,3.21-0.75,4.49c-4.21,7.39-5.46,11.02-11.71,19C35.89,80.09,36,80.76,38.5,81c13.25,1.25,21.5,4.25,32.4,10.18c4.21,2.29,7.98,4.82,10.85,7.67" id="Ske1nlvig1o" kvg:type="㇛" transform="matrix(1,0,0,1,596,-4)" xmlns:kvg="http://kanjivg.tagaini.net"></path><path class="stroke_order_diagram--current_path" d="M70.75,61c0.13,0.93,0,2.45-0.52,3.79C65.75,76.25,53.75,93,25.25,99.75" id="kvg:059d4-s7" kvg:type="㇒" transform="matrix(1,0,0,1,596,-4)" xmlns:kvg="http://kanjivg.tagaini.net"></path><path class="stroke_order_diagram--current_path" d="M70.75,61c0.13,0.93,0,2.45-0.52,3.79C65.75,76.25,53.75,93,25.25,99.75" id="Ske1nlvig1q" kvg:type="㇒" transform="matrix(1,0,0,1,596,-4)" xmlns:kvg="http://kanjivg.tagaini.net"></path><circle class="stroke_order_diagram--path_start" cx="70.75" cy="61" r="4" transform="matrix(1,0,0,1,596,-4)"></circle><line class="stroke_order_diagram--guide_line" x1="750" x2="750" y1="1" y2="99"></line><line class="stroke_order_diagram--bounding_box" x1="799" x2="799" y1="1" y2="99"></line><path class="stroke_order_diagram--existing_path" d="M68.25,11.75c-0.25,1-1.3,1.89-1.94,2.18C61.48,16.15,49,20.12,32.25,22" id="Ske1nlvig1t" kvg:type="㇒" transform="matrix(1,0,0,1,696,-4)" xmlns:kvg="http://kanjivg.tagaini.net"></path><path class="stroke_order_diagram--existing_path" d="M22.5,33.54c2.5,0.46,4.85,0.52,7.96,0.19c14.91-1.6,31.16-3.1,49.15-4.36c3.12-0.22,5.43-0.15,7.39,0" id="Ske1nlvig1u" kvg:type="㇐" transform="matrix(1,0,0,1,696,-4)" xmlns:kvg="http://kanjivg.tagaini.net"></path><path class="stroke_order_diagram--existing_path" d="M53.47,20.96c0.91,0.91,1.35,2.04,1.35,3.74c0,3.55,0.05,14.88-0.08,23.32c-0.03,1.99-0.06,3.51-0.1,4.24" id="Ske1nlvig1v" kvg:type="㇑" transform="matrix(1,0,0,1,696,-4)" xmlns:kvg="http://kanjivg.tagaini.net"></path><path class="stroke_order_diagram--existing_path" d="M50.88,32.38c-0.24,1.04-0.82,2.12-1.54,2.94c-7.44,8.5-19.48,17.66-32.09,21.81" id="Ske1nlvig1w" kvg:type="㇒" transform="matrix(1,0,0,1,696,-4)" xmlns:kvg="http://kanjivg.tagaini.net"></path><path class="stroke_order_diagram--existing_path" d="M56,33.07c4.56,2.96,19.56,11.49,27.74,15.96c3.02,1.65,6.3,2.93,9.76,3.51" id="Ske1nlvig1x" kvg:type="㇏" transform="matrix(1,0,0,1,696,-4)" xmlns:kvg="http://kanjivg.tagaini.net"></path><path class="stroke_order_diagram--existing_path" d="M49.71,54.87c0.29,1.38-0.02,3.21-0.75,4.49c-4.21,7.39-5.46,11.02-11.71,19C35.89,80.09,36,80.76,38.5,81c13.25,1.25,21.5,4.25,32.4,10.18c4.21,2.29,7.98,4.82,10.85,7.67" id="Ske1nlvig1y" kvg:type="㇛" transform="matrix(1,0,0,1,696,-4)" xmlns:kvg="http://kanjivg.tagaini.net"></path><path class="stroke_order_diagram--existing_path" d="M70.75,61c0.13,0.93,0,2.45-0.52,3.79C65.75,76.25,53.75,93,25.25,99.75" id="Ske1nlvig1z" kvg:type="㇒" transform="matrix(1,0,0,1,696,-4)" xmlns:kvg="http://kanjivg.tagaini.net"></path><path class="stroke_order_diagram--current_path" d="M14.13,68.86c1.45,0.34,6.94,0.41,8.38,0.34c25.84-1.3,42.74-3.7,67.61-3.65c2.41,0,6.56,0.32,8.51,0.92" id="kvg:059d4-s8" kvg:type="㇐" transform="matrix(1,0,0,1,696,-4)" xmlns:kvg="http://kanjivg.tagaini.net"></path><path class="stroke_order_diagram--current_path" d="M14.13,68.86c1.45,0.34,6.94,0.41,8.38,0.34c25.84-1.3,42.74-3.7,67.61-3.65c2.41,0,6.56,0.32,8.51,0.92" id="Ske1nlvig21" kvg:type="㇐" transform="matrix(1,0,0,1,696,-4)" xmlns:kvg="http://kanjivg.tagaini.net"></path><circle class="stroke_order_diagram--path_start" cx="14.13" cy="68.86" r="4" transform="matrix(1,0,0,1,696,-4)"></circle></svg>