<svg class="stroke_order_diagram--svg_container_for_51866282d5dda79658000444" style="height: 100px; width: 700px;" viewbox="0 0 700 100"><desc>Created with Snap</desc><defs></defs><line class="stroke_order_diagram--bounding_box" x1="1" x2="699" y1="1" y2="1"></line><line class="stroke_order_diagram--bounding_box" x1="1" x2="1" y1="1" y2="99"></line><line class="stroke_order_diagram--bounding_box" x1="1" x2="699" y1="99" y2="99"></line><line class="stroke_order_diagram--guide_line" x1="0" x2="700" y1="50" y2="50"></line><line class="stroke_order_diagram--guide_line" x1="50" x2="50" y1="1" y2="99"></line><line class="stroke_order_diagram--bounding_box" x1="99" x2="99" y1="1" y2="99"></line><path class="stroke_order_diagram--current_path" d="M13.54,26.08c2.3,0.85,4.68,0.45,6.99-0.12c4.99-1.22,13.97-3.61,17.83-4.45c3.05-0.66,5.1,1.56,2.51,4.09c-3.74,3.65-10.51,10.68-14.24,13.9" id="kvg:05b5c-s1" kvg:type="㇖" transform="matrix(1,0,0,1,-4,-4)" xmlns:kvg="http://kanjivg.tagaini.net"></path><path class="stroke_order_diagram--current_path" d="M13.54,26.08c2.3,0.85,4.68,0.45,6.99-0.12c4.99-1.22,13.97-3.61,17.83-4.45c3.05-0.66,5.1,1.56,2.51,4.09c-3.74,3.65-10.51,10.68-14.24,13.9" id="Ske1w0sv3g" kvg:type="㇖" transform="matrix(1,0,0,1,-4,-4)" xmlns:kvg="http://kanjivg.tagaini.net"></path><circle class="stroke_order_diagram--path_start" cx="13.54" cy="26.08" r="4" transform="matrix(1,0,0,1,-4,-4)"></circle><line class="stroke_order_diagram--guide_line" x1="150" x2="150" y1="1" y2="99"></line><line class="stroke_order_diagram--bounding_box" x1="199" x2="199" y1="1" y2="99"></line><path class="stroke_order_diagram--existing_path" d="M13.54,26.08c2.3,0.85,4.68,0.45,6.99-0.12c4.99-1.22,13.97-3.61,17.83-4.45c3.05-0.66,5.1,1.56,2.51,4.09c-3.74,3.65-10.51,10.68-14.24,13.9" id="Ske1w0sv3j" kvg:type="㇖" transform="matrix(1,0,0,1,96,-4)" xmlns:kvg="http://kanjivg.tagaini.net"></path><path class="stroke_order_diagram--current_path" d="M23.95,40.63c9.8,6.99,14.3,23.12,7.83,45.92c-2.95,10.38-8.53,3.2-10.26,0.8" id="kvg:05b5c-s2" kvg:type="㇕v" transform="matrix(1,0,0,1,96,-4)" xmlns:kvg="http://kanjivg.tagaini.net"></path><path class="stroke_order_diagram--current_path" d="M23.95,40.63c9.8,6.99,14.3,23.12,7.83,45.92c-2.95,10.38-8.53,3.2-10.26,0.8" id="Ske1w0sv3l" kvg:type="㇕v" transform="matrix(1,0,0,1,96,-4)" xmlns:kvg="http://kanjivg.tagaini.net"></path><circle class="stroke_order_diagram--path_start" cx="23.95" cy="40.63" r="4" transform="matrix(1,0,0,1,96,-4)"></circle><line class="stroke_order_diagram--guide_line" x1="250" x2="250" y1="1" y2="99"></line><line class="stroke_order_diagram--bounding_box" x1="299" x2="299" y1="1" y2="99"></line><path class="stroke_order_diagram--existing_path" d="M13.54,26.08c2.3,0.85,4.68,0.45,6.99-0.12c4.99-1.22,13.97-3.61,17.83-4.45c3.05-0.66,5.1,1.56,2.51,4.09c-3.74,3.65-10.51,10.68-14.24,13.9" id="Ske1w0sv3o" kvg:type="㇖" transform="matrix(1,0,0,1,196,-4)" xmlns:kvg="http://kanjivg.tagaini.net"></path><path class="stroke_order_diagram--existing_path" d="M23.95,40.63c9.8,6.99,14.3,23.12,7.83,45.92c-2.95,10.38-8.53,3.2-10.26,0.8" id="Ske1w0sv3p" kvg:type="㇕v" transform="matrix(1,0,0,1,196,-4)" xmlns:kvg="http://kanjivg.tagaini.net"></path><path class="stroke_order_diagram--current_path" d="M12.25,61.91c1.36,0.89,2.55,0.83,4.57-0.42c8.92-5.51,12.06-7.37,24.68-15.74" id="kvg:05b5c-s3" kvg:type="㇀/㇐" transform="matrix(1,0,0,1,196,-4)" xmlns:kvg="http://kanjivg.tagaini.net"></path><path class="stroke_order_diagram--current_path" d="M12.25,61.91c1.36,0.89,2.55,0.83,4.57-0.42c8.92-5.51,12.06-7.37,24.68-15.74" id="Ske1w0sv3r" kvg:type="㇀/㇐" transform="matrix(1,0,0,1,196,-4)" xmlns:kvg="http://kanjivg.tagaini.net"></path><circle class="stroke_order_diagram--path_start" cx="12.25" cy="61.91" r="4" transform="matrix(1,0,0,1,196,-4)"></circle><line class="stroke_order_diagram--guide_line" x1="350" x2="350" y1="1" y2="99"></line><line class="stroke_order_diagram--bounding_box" x1="399" x2="399" y1="1" y2="99"></line><path class="stroke_order_diagram--existing_path" d="M13.54,26.08c2.3,0.85,4.68,0.45,6.99-0.12c4.99-1.22,13.97-3.61,17.83-4.45c3.05-0.66,5.1,1.56,2.51,4.09c-3.74,3.65-10.51,10.68-14.24,13.9" id="Ske1w0sv3u" kvg:type="㇖" transform="matrix(1,0,0,1,296,-4)" xmlns:kvg="http://kanjivg.tagaini.net"></path><path class="stroke_order_diagram--existing_path" d="M23.95,40.63c9.8,6.99,14.3,23.12,7.83,45.92c-2.95,10.38-8.53,3.2-10.26,0.8" id="Ske1w0sv3v" kvg:type="㇕v" transform="matrix(1,0,0,1,296,-4)" xmlns:kvg="http://kanjivg.tagaini.net"></path><path class="stroke_order_diagram--existing_path" d="M12.25,61.91c1.36,0.89,2.55,0.83,4.57-0.42c8.92-5.51,12.06-7.37,24.68-15.74" id="Ske1w0sv3w" kvg:type="㇀/㇐" transform="matrix(1,0,0,1,296,-4)" xmlns:kvg="http://kanjivg.tagaini.net"></path><path class="stroke_order_diagram--current_path" d="M65.32,17.39c0.05,0.8,0.02,1.85-0.35,2.97C62.5,28,55.16,43.46,46.25,53.25" id="kvg:05b5c-s4" kvg:type="㇒" transform="matrix(1,0,0,1,296,-4)" xmlns:kvg="http://kanjivg.tagaini.net"></path><path class="stroke_order_diagram--current_path" d="M65.32,17.39c0.05,0.8,0.02,1.85-0.35,2.97C62.5,28,55.16,43.46,46.25,53.25" id="Ske1w0sv3y" kvg:type="㇒" transform="matrix(1,0,0,1,296,-4)" xmlns:kvg="http://kanjivg.tagaini.net"></path><circle class="stroke_order_diagram--path_start" cx="65.32" cy="17.39" r="4" transform="matrix(1,0,0,1,296,-4)"></circle><line class="stroke_order_diagram--guide_line" x1="450" x2="450" y1="1" y2="99"></line><line class="stroke_order_diagram--bounding_box" x1="499" x2="499" y1="1" y2="99"></line><path class="stroke_order_diagram--existing_path" d="M13.54,26.08c2.3,0.85,4.68,0.45,6.99-0.12c4.99-1.22,13.97-3.61,17.83-4.45c3.05-0.66,5.1,1.56,2.51,4.09c-3.74,3.65-10.51,10.68-14.24,13.9" id="Ske1w0sv311" kvg:type="㇖" transform="matrix(1,0,0,1,396,-4)" xmlns:kvg="http://kanjivg.tagaini.net"></path><path class="stroke_order_diagram--existing_path" d="M23.95,40.63c9.8,6.99,14.3,23.12,7.83,45.92c-2.95,10.38-8.53,3.2-10.26,0.8" id="Ske1w0sv312" kvg:type="㇕v" transform="matrix(1,0,0,1,396,-4)" xmlns:kvg="http://kanjivg.tagaini.net"></path><path class="stroke_order_diagram--existing_path" d="M12.25,61.91c1.36,0.89,2.55,0.83,4.57-0.42c8.92-5.51,12.06-7.37,24.68-15.74" id="Ske1w0sv313" kvg:type="㇀/㇐" transform="matrix(1,0,0,1,396,-4)" xmlns:kvg="http://kanjivg.tagaini.net"></path><path class="stroke_order_diagram--existing_path" d="M65.32,17.39c0.05,0.8,0.02,1.85-0.35,2.97C62.5,28,55.16,43.46,46.25,53.25" id="Ske1w0sv314" kvg:type="㇒" transform="matrix(1,0,0,1,396,-4)" xmlns:kvg="http://kanjivg.tagaini.net"></path><path class="stroke_order_diagram--current_path" d="M58.97,40.76c3.03,0.49,4.45,0.29,7.16-0.01c6.62-0.75,13.75-2.5,21.11-3.86c2.07-0.38,4.09-0.65,6.16-0.39" id="kvg:05b5c-s5" kvg:type="㇐" transform="matrix(1,0,0,1,396,-4)" xmlns:kvg="http://kanjivg.tagaini.net"></path><path class="stroke_order_diagram--current_path" d="M58.97,40.76c3.03,0.49,4.45,0.29,7.16-0.01c6.62-0.75,13.75-2.5,21.11-3.86c2.07-0.38,4.09-0.65,6.16-0.39" id="Ske1w0sv316" kvg:type="㇐" transform="matrix(1,0,0,1,396,-4)" xmlns:kvg="http://kanjivg.tagaini.net"></path><circle class="stroke_order_diagram--path_start" cx="58.97" cy="40.76" r="4" transform="matrix(1,0,0,1,396,-4)"></circle><line class="stroke_order_diagram--guide_line" x1="550" x2="550" y1="1" y2="99"></line><line class="stroke_order_diagram--bounding_box" x1="599" x2="599" y1="1" y2="99"></line><path class="stroke_order_diagram--existing_path" d="M13.54,26.08c2.3,0.85,4.68,0.45,6.99-0.12c4.99-1.22,13.97-3.61,17.83-4.45c3.05-0.66,5.1,1.56,2.51,4.09c-3.74,3.65-10.51,10.68-14.24,13.9" id="Ske1w0sv319" kvg:type="㇖" transform="matrix(1,0,0,1,496,-4)" xmlns:kvg="http://kanjivg.tagaini.net"></path><path class="stroke_order_diagram--existing_path" d="M23.95,40.63c9.8,6.99,14.3,23.12,7.83,45.92c-2.95,10.38-8.53,3.2-10.26,0.8" id="Ske1w0sv31a" kvg:type="㇕v" transform="matrix(1,0,0,1,496,-4)" xmlns:kvg="http://kanjivg.tagaini.net"></path><path class="stroke_order_diagram--existing_path" d="M12.25,61.91c1.36,0.89,2.55,0.83,4.57-0.42c8.92-5.51,12.06-7.37,24.68-15.74" id="Ske1w0sv31b" kvg:type="㇀/㇐" transform="matrix(1,0,0,1,496,-4)" xmlns:kvg="http://kanjivg.tagaini.net"></path><path class="stroke_order_diagram--existing_path" d="M65.32,17.39c0.05,0.8,0.02,1.85-0.35,2.97C62.5,28,55.16,43.46,46.25,53.25" id="Ske1w0sv31c" kvg:type="㇒" transform="matrix(1,0,0,1,496,-4)" xmlns:kvg="http://kanjivg.tagaini.net"></path><path class="stroke_order_diagram--existing_path" d="M58.97,40.76c3.03,0.49,4.45,0.29,7.16-0.01c6.62-0.75,13.75-2.5,21.11-3.86c2.07-0.38,4.09-0.65,6.16-0.39" id="Ske1w0sv31d" kvg:type="㇐" transform="matrix(1,0,0,1,496,-4)" xmlns:kvg="http://kanjivg.tagaini.net"></path><path class="stroke_order_diagram--current_path" d="M79.49,42.18c0.39,1.45,0.17,2.67-0.7,5.1C71.5,67.75,61.38,83.38,41.37,97" id="kvg:05b5c-s6" kvg:type="㇒" transform="matrix(1,0,0,1,496,-4)" xmlns:kvg="http://kanjivg.tagaini.net"></path><path class="stroke_order_diagram--current_path" d="M79.49,42.18c0.39,1.45,0.17,2.67-0.7,5.1C71.5,67.75,61.38,83.38,41.37,97" id="Ske1w0sv31f" kvg:type="㇒" transform="matrix(1,0,0,1,496,-4)" xmlns:kvg="http://kanjivg.tagaini.net"></path><circle class="stroke_order_diagram--path_start" cx="79.49" cy="42.18" r="4" transform="matrix(1,0,0,1,496,-4)"></circle><line class="stroke_order_diagram--guide_line" x1="650" x2="650" y1="1" y2="99"></line><line class="stroke_order_diagram--bounding_box" x1="699" x2="699" y1="1" y2="99"></line><path class="stroke_order_diagram--existing_path" d="M13.54,26.08c2.3,0.85,4.68,0.45,6.99-0.12c4.99-1.22,13.97-3.61,17.83-4.45c3.05-0.66,5.1,1.56,2.51,4.09c-3.74,3.65-10.51,10.68-14.24,13.9" id="Ske1w0sv31i" kvg:type="㇖" transform="matrix(1,0,0,1,596,-4)" xmlns:kvg="http://kanjivg.tagaini.net"></path><path class="stroke_order_diagram--existing_path" d="M23.95,40.63c9.8,6.99,14.3,23.12,7.83,45.92c-2.95,10.38-8.53,3.2-10.26,0.8" id="Ske1w0sv31j" kvg:type="㇕v" transform="matrix(1,0,0,1,596,-4)" xmlns:kvg="http://kanjivg.tagaini.net"></path><path class="stroke_order_diagram--existing_path" d="M12.25,61.91c1.36,0.89,2.55,0.83,4.57-0.42c8.92-5.51,12.06-7.37,24.68-15.74" id="Ske1w0sv31k" kvg:type="㇀/㇐" transform="matrix(1,0,0,1,596,-4)" xmlns:kvg="http://kanjivg.tagaini.net"></path><path class="stroke_order_diagram--existing_path" d="M65.32,17.39c0.05,0.8,0.02,1.85-0.35,2.97C62.5,28,55.16,43.46,46.25,53.25" id="Ske1w0sv31l" kvg:type="㇒" transform="matrix(1,0,0,1,596,-4)" xmlns:kvg="http://kanjivg.tagaini.net"></path><path class="stroke_order_diagram--existing_path" d="M58.97,40.76c3.03,0.49,4.45,0.29,7.16-0.01c6.62-0.75,13.75-2.5,21.11-3.86c2.07-0.38,4.09-0.65,6.16-0.39" id="Ske1w0sv31m" kvg:type="㇐" transform="matrix(1,0,0,1,596,-4)" xmlns:kvg="http://kanjivg.tagaini.net"></path><path class="stroke_order_diagram--existing_path" d="M79.49,42.18c0.39,1.45,0.17,2.67-0.7,5.1C71.5,67.75,61.38,83.38,41.37,97" id="Ske1w0sv31n" kvg:type="㇒" transform="matrix(1,0,0,1,596,-4)" xmlns:kvg="http://kanjivg.tagaini.net"></path><path class="stroke_order_diagram--current_path" d="M53.75,51.76C58.94,53.7,71,73,84.36,86.39c4.2,4.21,6.52,6.49,10.14,7.86" id="kvg:05b5c-s7" kvg:type="㇏" transform="matrix(1,0,0,1,596,-4)" xmlns:kvg="http://kanjivg.tagaini.net"></path><path class="stroke_order_diagram--current_path" d="M53.75,51.76C58.94,53.7,71,73,84.36,86.39c4.2,4.21,6.52,6.49,10.14,7.86" id="Ske1w0sv31p" kvg:type="㇏" transform="matrix(1,0,0,1,596,-4)" xmlns:kvg="http://kanjivg.tagaini.net"></path><circle class="stroke_order_diagram--path_start" cx="53.75" cy="51.76" r="4" transform="matrix(1,0,0,1,596,-4)"></circle></svg>