<svg class="stroke_order_diagram--svg_container_for_518662a4d5dda79658000db0" style="height: 100px; width: 1100px;" viewbox="0 0 1100 100"><desc>Created with Snap</desc><defs></defs><line class="stroke_order_diagram--bounding_box" x1="1" x2="1099" y1="1" y2="1"></line><line class="stroke_order_diagram--bounding_box" x1="1" x2="1" y1="1" y2="99"></line><line class="stroke_order_diagram--bounding_box" x1="1" x2="1099" y1="99" y2="99"></line><line class="stroke_order_diagram--guide_line" x1="0" x2="1100" y1="50" y2="50"></line><line class="stroke_order_diagram--guide_line" x1="50" x2="50" y1="1" y2="99"></line><line class="stroke_order_diagram--bounding_box" x1="99" x2="99" y1="1" y2="99"></line><path class="stroke_order_diagram--current_path" d="M50.91,11.33c1.24,0.4,3,2.38,2.97,3.54c-0.09,3.66-0.09,7.2-0.1,10.53" id="kvg:05bc9-s1" kvg:type="㇑a" transform="matrix(1,0,0,1,-4,-4)" xmlns:kvg="http://kanjivg.tagaini.net"></path><path class="stroke_order_diagram--current_path" d="M50.91,11.33c1.24,0.4,3,2.38,2.97,3.54c-0.09,3.66-0.09,7.2-0.1,10.53" id="Ske2g1rh3k" kvg:type="㇑a" transform="matrix(1,0,0,1,-4,-4)" xmlns:kvg="http://kanjivg.tagaini.net"></path><circle class="stroke_order_diagram--path_start" cx="50.91" cy="11.33" r="4" transform="matrix(1,0,0,1,-4,-4)"></circle><line class="stroke_order_diagram--guide_line" x1="150" x2="150" y1="1" y2="99"></line><line class="stroke_order_diagram--bounding_box" x1="199" x2="199" y1="1" y2="99"></line><path class="stroke_order_diagram--existing_path" d="M50.91,11.33c1.24,0.4,3,2.38,2.97,3.54c-0.09,3.66-0.09,7.2-0.1,10.53" id="Ske2g1rh3n" kvg:type="㇑a" transform="matrix(1,0,0,1,96,-4)" xmlns:kvg="http://kanjivg.tagaini.net"></path><path class="stroke_order_diagram--current_path" d="M21.7,24.12c0,3.8-2.72,14.27-3.95,16.8" id="kvg:05bc9-s2" kvg:type="㇔" transform="matrix(1,0,0,1,96,-4)" xmlns:kvg="http://kanjivg.tagaini.net"></path><path class="stroke_order_diagram--current_path" d="M21.7,24.12c0,3.8-2.72,14.27-3.95,16.8" id="Ske2g1rh3p" kvg:type="㇔" transform="matrix(1,0,0,1,96,-4)" xmlns:kvg="http://kanjivg.tagaini.net"></path><circle class="stroke_order_diagram--path_start" cx="21.7" cy="24.12" r="4" transform="matrix(1,0,0,1,96,-4)"></circle><line class="stroke_order_diagram--guide_line" x1="250" x2="250" y1="1" y2="99"></line><line class="stroke_order_diagram--bounding_box" x1="299" x2="299" y1="1" y2="99"></line><path class="stroke_order_diagram--existing_path" d="M50.91,11.33c1.24,0.4,3,2.38,2.97,3.54c-0.09,3.66-0.09,7.2-0.1,10.53" id="Ske2g1rh3s" kvg:type="㇑a" transform="matrix(1,0,0,1,196,-4)" xmlns:kvg="http://kanjivg.tagaini.net"></path><path class="stroke_order_diagram--existing_path" d="M21.7,24.12c0,3.8-2.72,14.27-3.95,16.8" id="Ske2g1rh3t" kvg:type="㇔" transform="matrix(1,0,0,1,196,-4)" xmlns:kvg="http://kanjivg.tagaini.net"></path><path class="stroke_order_diagram--current_path" d="M21.87,28.45c8.92-0.93,56.54-5.13,63.78-5.48c11.31-0.55,1.71,8.01-1.11,9.99" id="kvg:05bc9-s3" kvg:type="㇖b" transform="matrix(1,0,0,1,196,-4)" xmlns:kvg="http://kanjivg.tagaini.net"></path><path class="stroke_order_diagram--current_path" d="M21.87,28.45c8.92-0.93,56.54-5.13,63.78-5.48c11.31-0.55,1.71,8.01-1.11,9.99" id="Ske2g1rh3v" kvg:type="㇖b" transform="matrix(1,0,0,1,196,-4)" xmlns:kvg="http://kanjivg.tagaini.net"></path><circle class="stroke_order_diagram--path_start" cx="21.87" cy="28.45" r="4" transform="matrix(1,0,0,1,196,-4)"></circle><line class="stroke_order_diagram--guide_line" x1="350" x2="350" y1="1" y2="99"></line><line class="stroke_order_diagram--bounding_box" x1="399" x2="399" y1="1" y2="99"></line><path class="stroke_order_diagram--existing_path" d="M50.91,11.33c1.24,0.4,3,2.38,2.97,3.54c-0.09,3.66-0.09,7.2-0.1,10.53" id="Ske2g1rh3y" kvg:type="㇑a" transform="matrix(1,0,0,1,296,-4)" xmlns:kvg="http://kanjivg.tagaini.net"></path><path class="stroke_order_diagram--existing_path" d="M21.7,24.12c0,3.8-2.72,14.27-3.95,16.8" id="Ske2g1rh3z" kvg:type="㇔" transform="matrix(1,0,0,1,296,-4)" xmlns:kvg="http://kanjivg.tagaini.net"></path><path class="stroke_order_diagram--existing_path" d="M21.87,28.45c8.92-0.93,56.54-5.13,63.78-5.48c11.31-0.55,1.71,8.01-1.11,9.99" id="Ske2g1rh310" kvg:type="㇖b" transform="matrix(1,0,0,1,296,-4)" xmlns:kvg="http://kanjivg.tagaini.net"></path><path class="stroke_order_diagram--current_path" d="M37.76,31.25c0.23,1.52-0.06,3.5-0.79,4.8c-4.65,8.28-10.55,15.28-21.22,25.36" id="kvg:05bc9-s4" kvg:type="㇒" transform="matrix(1,0,0,1,296,-4)" xmlns:kvg="http://kanjivg.tagaini.net"></path><path class="stroke_order_diagram--current_path" d="M37.76,31.25c0.23,1.52-0.06,3.5-0.79,4.8c-4.65,8.28-10.55,15.28-21.22,25.36" id="Ske2g1rh312" kvg:type="㇒" transform="matrix(1,0,0,1,296,-4)" xmlns:kvg="http://kanjivg.tagaini.net"></path><circle class="stroke_order_diagram--path_start" cx="37.76" cy="31.25" r="4" transform="matrix(1,0,0,1,296,-4)"></circle><line class="stroke_order_diagram--guide_line" x1="450" x2="450" y1="1" y2="99"></line><line class="stroke_order_diagram--bounding_box" x1="499" x2="499" y1="1" y2="99"></line><path class="stroke_order_diagram--existing_path" d="M50.91,11.33c1.24,0.4,3,2.38,2.97,3.54c-0.09,3.66-0.09,7.2-0.1,10.53" id="Ske2g1rh315" kvg:type="㇑a" transform="matrix(1,0,0,1,396,-4)" xmlns:kvg="http://kanjivg.tagaini.net"></path><path class="stroke_order_diagram--existing_path" d="M21.7,24.12c0,3.8-2.72,14.27-3.95,16.8" id="Ske2g1rh316" kvg:type="㇔" transform="matrix(1,0,0,1,396,-4)" xmlns:kvg="http://kanjivg.tagaini.net"></path><path class="stroke_order_diagram--existing_path" d="M21.87,28.45c8.92-0.93,56.54-5.13,63.78-5.48c11.31-0.55,1.71,8.01-1.11,9.99" id="Ske2g1rh317" kvg:type="㇖b" transform="matrix(1,0,0,1,396,-4)" xmlns:kvg="http://kanjivg.tagaini.net"></path><path class="stroke_order_diagram--existing_path" d="M37.76,31.25c0.23,1.52-0.06,3.5-0.79,4.8c-4.65,8.28-10.55,15.28-21.22,25.36" id="Ske2g1rh318" kvg:type="㇒" transform="matrix(1,0,0,1,396,-4)" xmlns:kvg="http://kanjivg.tagaini.net"></path><path class="stroke_order_diagram--current_path" d="M31.47,47.81c0.84,0.79,1.49,2.54,1.54,3.77c0.5,10.98-0.69,42.46-0.27,48.17" id="kvg:05bc9-s5" kvg:type="㇑" transform="matrix(1,0,0,1,396,-4)" xmlns:kvg="http://kanjivg.tagaini.net"></path><path class="stroke_order_diagram--current_path" d="M31.47,47.81c0.84,0.79,1.49,2.54,1.54,3.77c0.5,10.98-0.69,42.46-0.27,48.17" id="Ske2g1rh31a" kvg:type="㇑" transform="matrix(1,0,0,1,396,-4)" xmlns:kvg="http://kanjivg.tagaini.net"></path><circle class="stroke_order_diagram--path_start" cx="31.47" cy="47.81" r="4" transform="matrix(1,0,0,1,396,-4)"></circle><line class="stroke_order_diagram--guide_line" x1="550" x2="550" y1="1" y2="99"></line><line class="stroke_order_diagram--bounding_box" x1="599" x2="599" y1="1" y2="99"></line><path class="stroke_order_diagram--existing_path" d="M50.91,11.33c1.24,0.4,3,2.38,2.97,3.54c-0.09,3.66-0.09,7.2-0.1,10.53" id="Ske2g1rh31d" kvg:type="㇑a" transform="matrix(1,0,0,1,496,-4)" xmlns:kvg="http://kanjivg.tagaini.net"></path><path class="stroke_order_diagram--existing_path" d="M21.7,24.12c0,3.8-2.72,14.27-3.95,16.8" id="Ske2g1rh31e" kvg:type="㇔" transform="matrix(1,0,0,1,496,-4)" xmlns:kvg="http://kanjivg.tagaini.net"></path><path class="stroke_order_diagram--existing_path" d="M21.87,28.45c8.92-0.93,56.54-5.13,63.78-5.48c11.31-0.55,1.71,8.01-1.11,9.99" id="Ske2g1rh31f" kvg:type="㇖b" transform="matrix(1,0,0,1,496,-4)" xmlns:kvg="http://kanjivg.tagaini.net"></path><path class="stroke_order_diagram--existing_path" d="M37.76,31.25c0.23,1.52-0.06,3.5-0.79,4.8c-4.65,8.28-10.55,15.28-21.22,25.36" id="Ske2g1rh31g" kvg:type="㇒" transform="matrix(1,0,0,1,496,-4)" xmlns:kvg="http://kanjivg.tagaini.net"></path><path class="stroke_order_diagram--existing_path" d="M31.47,47.81c0.84,0.79,1.49,2.54,1.54,3.77c0.5,10.98-0.69,42.46-0.27,48.17" id="Ske2g1rh31h" kvg:type="㇑" transform="matrix(1,0,0,1,496,-4)" xmlns:kvg="http://kanjivg.tagaini.net"></path><path class="stroke_order_diagram--current_path" d="M61.43,29.75c0.07,0.81-0.02,1.88-0.24,2.57c-1.4,4.43-3.17,7.86-6.37,13.26" id="kvg:05bc9-s6" kvg:type="㇒" transform="matrix(1,0,0,1,496,-4)" xmlns:kvg="http://kanjivg.tagaini.net"></path><path class="stroke_order_diagram--current_path" d="M61.43,29.75c0.07,0.81-0.02,1.88-0.24,2.57c-1.4,4.43-3.17,7.86-6.37,13.26" id="Ske2g1rh31j" kvg:type="㇒" transform="matrix(1,0,0,1,496,-4)" xmlns:kvg="http://kanjivg.tagaini.net"></path><circle class="stroke_order_diagram--path_start" cx="61.43" cy="29.75" r="4" transform="matrix(1,0,0,1,496,-4)"></circle><line class="stroke_order_diagram--guide_line" x1="650" x2="650" y1="1" y2="99"></line><line class="stroke_order_diagram--bounding_box" x1="699" x2="699" y1="1" y2="99"></line><path class="stroke_order_diagram--existing_path" d="M50.91,11.33c1.24,0.4,3,2.38,2.97,3.54c-0.09,3.66-0.09,7.2-0.1,10.53" id="Ske2g1rh31m" kvg:type="㇑a" transform="matrix(1,0,0,1,596,-4)" xmlns:kvg="http://kanjivg.tagaini.net"></path><path class="stroke_order_diagram--existing_path" d="M21.7,24.12c0,3.8-2.72,14.27-3.95,16.8" id="Ske2g1rh31n" kvg:type="㇔" transform="matrix(1,0,0,1,596,-4)" xmlns:kvg="http://kanjivg.tagaini.net"></path><path class="stroke_order_diagram--existing_path" d="M21.87,28.45c8.92-0.93,56.54-5.13,63.78-5.48c11.31-0.55,1.71,8.01-1.11,9.99" id="Ske2g1rh31o" kvg:type="㇖b" transform="matrix(1,0,0,1,596,-4)" xmlns:kvg="http://kanjivg.tagaini.net"></path><path class="stroke_order_diagram--existing_path" d="M37.76,31.25c0.23,1.52-0.06,3.5-0.79,4.8c-4.65,8.28-10.55,15.28-21.22,25.36" id="Ske2g1rh31p" kvg:type="㇒" transform="matrix(1,0,0,1,596,-4)" xmlns:kvg="http://kanjivg.tagaini.net"></path><path class="stroke_order_diagram--existing_path" d="M31.47,47.81c0.84,0.79,1.49,2.54,1.54,3.77c0.5,10.98-0.69,42.46-0.27,48.17" id="Ske2g1rh31q" kvg:type="㇑" transform="matrix(1,0,0,1,596,-4)" xmlns:kvg="http://kanjivg.tagaini.net"></path><path class="stroke_order_diagram--existing_path" d="M61.43,29.75c0.07,0.81-0.02,1.88-0.24,2.57c-1.4,4.43-3.17,7.86-6.37,13.26" id="Ske2g1rh31r" kvg:type="㇒" transform="matrix(1,0,0,1,596,-4)" xmlns:kvg="http://kanjivg.tagaini.net"></path><path class="stroke_order_diagram--current_path" d="M32.27,49.04c9.77-1.03,48.96-4.54,53.15-5.11" id="kvg:05bc9-s7" kvg:type="㇐b" transform="matrix(1,0,0,1,596,-4)" xmlns:kvg="http://kanjivg.tagaini.net"></path><path class="stroke_order_diagram--current_path" d="M32.27,49.04c9.77-1.03,48.96-4.54,53.15-5.11" id="Ske2g1rh31t" kvg:type="㇐b" transform="matrix(1,0,0,1,596,-4)" xmlns:kvg="http://kanjivg.tagaini.net"></path><circle class="stroke_order_diagram--path_start" cx="32.27" cy="49.04" r="4" transform="matrix(1,0,0,1,596,-4)"></circle><line class="stroke_order_diagram--guide_line" x1="750" x2="750" y1="1" y2="99"></line><line class="stroke_order_diagram--bounding_box" x1="799" x2="799" y1="1" y2="99"></line><path class="stroke_order_diagram--existing_path" d="M50.91,11.33c1.24,0.4,3,2.38,2.97,3.54c-0.09,3.66-0.09,7.2-0.1,10.53" id="Ske2g1rh31w" kvg:type="㇑a" transform="matrix(1,0,0,1,696,-4)" xmlns:kvg="http://kanjivg.tagaini.net"></path><path class="stroke_order_diagram--existing_path" d="M21.7,24.12c0,3.8-2.72,14.27-3.95,16.8" id="Ske2g1rh31x" kvg:type="㇔" transform="matrix(1,0,0,1,696,-4)" xmlns:kvg="http://kanjivg.tagaini.net"></path><path class="stroke_order_diagram--existing_path" d="M21.87,28.45c8.92-0.93,56.54-5.13,63.78-5.48c11.31-0.55,1.71,8.01-1.11,9.99" id="Ske2g1rh31y" kvg:type="㇖b" transform="matrix(1,0,0,1,696,-4)" xmlns:kvg="http://kanjivg.tagaini.net"></path><path class="stroke_order_diagram--existing_path" d="M37.76,31.25c0.23,1.52-0.06,3.5-0.79,4.8c-4.65,8.28-10.55,15.28-21.22,25.36" id="Ske2g1rh31z" kvg:type="㇒" transform="matrix(1,0,0,1,696,-4)" xmlns:kvg="http://kanjivg.tagaini.net"></path><path class="stroke_order_diagram--existing_path" d="M31.47,47.81c0.84,0.79,1.49,2.54,1.54,3.77c0.5,10.98-0.69,42.46-0.27,48.17" id="Ske2g1rh320" kvg:type="㇑" transform="matrix(1,0,0,1,696,-4)" xmlns:kvg="http://kanjivg.tagaini.net"></path><path class="stroke_order_diagram--existing_path" d="M61.43,29.75c0.07,0.81-0.02,1.88-0.24,2.57c-1.4,4.43-3.17,7.86-6.37,13.26" id="Ske2g1rh321" kvg:type="㇒" transform="matrix(1,0,0,1,696,-4)" xmlns:kvg="http://kanjivg.tagaini.net"></path><path class="stroke_order_diagram--existing_path" d="M32.27,49.04c9.77-1.03,48.96-4.54,53.15-5.11" id="Ske2g1rh322" kvg:type="㇐b" transform="matrix(1,0,0,1,696,-4)" xmlns:kvg="http://kanjivg.tagaini.net"></path><path class="stroke_order_diagram--current_path" d="M56.79,47.61c0.47,0.41,0.85,0.96,0.85,1.66c0,7.12,0.05,32.6-0.23,43.81" id="kvg:05bc9-s8" kvg:type="㇑a" transform="matrix(1,0,0,1,696,-4)" xmlns:kvg="http://kanjivg.tagaini.net"></path><path class="stroke_order_diagram--current_path" d="M56.79,47.61c0.47,0.41,0.85,0.96,0.85,1.66c0,7.12,0.05,32.6-0.23,43.81" id="Ske2g1rh324" kvg:type="㇑a" transform="matrix(1,0,0,1,696,-4)" xmlns:kvg="http://kanjivg.tagaini.net"></path><circle class="stroke_order_diagram--path_start" cx="56.79" cy="47.61" r="4" transform="matrix(1,0,0,1,696,-4)"></circle><line class="stroke_order_diagram--guide_line" x1="850" x2="850" y1="1" y2="99"></line><line class="stroke_order_diagram--bounding_box" x1="899" x2="899" y1="1" y2="99"></line><path class="stroke_order_diagram--existing_path" d="M50.91,11.33c1.24,0.4,3,2.38,2.97,3.54c-0.09,3.66-0.09,7.2-0.1,10.53" id="Ske2g1rh327" kvg:type="㇑a" transform="matrix(1,0,0,1,796,-4)" xmlns:kvg="http://kanjivg.tagaini.net"></path><path class="stroke_order_diagram--existing_path" d="M21.7,24.12c0,3.8-2.72,14.27-3.95,16.8" id="Ske2g1rh328" kvg:type="㇔" transform="matrix(1,0,0,1,796,-4)" xmlns:kvg="http://kanjivg.tagaini.net"></path><path class="stroke_order_diagram--existing_path" d="M21.87,28.45c8.92-0.93,56.54-5.13,63.78-5.48c11.31-0.55,1.71,8.01-1.11,9.99" id="Ske2g1rh329" kvg:type="㇖b" transform="matrix(1,0,0,1,796,-4)" xmlns:kvg="http://kanjivg.tagaini.net"></path><path class="stroke_order_diagram--existing_path" d="M37.76,31.25c0.23,1.52-0.06,3.5-0.79,4.8c-4.65,8.28-10.55,15.28-21.22,25.36" id="Ske2g1rh32a" kvg:type="㇒" transform="matrix(1,0,0,1,796,-4)" xmlns:kvg="http://kanjivg.tagaini.net"></path><path class="stroke_order_diagram--existing_path" d="M31.47,47.81c0.84,0.79,1.49,2.54,1.54,3.77c0.5,10.98-0.69,42.46-0.27,48.17" id="Ske2g1rh32b" kvg:type="㇑" transform="matrix(1,0,0,1,796,-4)" xmlns:kvg="http://kanjivg.tagaini.net"></path><path class="stroke_order_diagram--existing_path" d="M61.43,29.75c0.07,0.81-0.02,1.88-0.24,2.57c-1.4,4.43-3.17,7.86-6.37,13.26" id="Ske2g1rh32c" kvg:type="㇒" transform="matrix(1,0,0,1,796,-4)" xmlns:kvg="http://kanjivg.tagaini.net"></path><path class="stroke_order_diagram--existing_path" d="M32.27,49.04c9.77-1.03,48.96-4.54,53.15-5.11" id="Ske2g1rh32d" kvg:type="㇐b" transform="matrix(1,0,0,1,796,-4)" xmlns:kvg="http://kanjivg.tagaini.net"></path><path class="stroke_order_diagram--existing_path" d="M56.79,47.61c0.47,0.41,0.85,0.96,0.85,1.66c0,7.12,0.05,32.6-0.23,43.81" id="Ske2g1rh32e" kvg:type="㇑a" transform="matrix(1,0,0,1,796,-4)" xmlns:kvg="http://kanjivg.tagaini.net"></path><path class="stroke_order_diagram--current_path" d="M33.58,62.55c9.22-0.86,44.49-4.35,48.44-4.81" id="kvg:05bc9-s9" kvg:type="㇐b" transform="matrix(1,0,0,1,796,-4)" xmlns:kvg="http://kanjivg.tagaini.net"></path><path class="stroke_order_diagram--current_path" d="M33.58,62.55c9.22-0.86,44.49-4.35,48.44-4.81" id="Ske2g1rh32g" kvg:type="㇐b" transform="matrix(1,0,0,1,796,-4)" xmlns:kvg="http://kanjivg.tagaini.net"></path><circle class="stroke_order_diagram--path_start" cx="33.58" cy="62.55" r="4" transform="matrix(1,0,0,1,796,-4)"></circle><line class="stroke_order_diagram--guide_line" x1="950" x2="950" y1="1" y2="99"></line><line class="stroke_order_diagram--bounding_box" x1="999" x2="999" y1="1" y2="99"></line><path class="stroke_order_diagram--existing_path" d="M50.91,11.33c1.24,0.4,3,2.38,2.97,3.54c-0.09,3.66-0.09,7.2-0.1,10.53" id="Ske2g1rh32j" kvg:type="㇑a" transform="matrix(1,0,0,1,896,-4)" xmlns:kvg="http://kanjivg.tagaini.net"></path><path class="stroke_order_diagram--existing_path" d="M21.7,24.12c0,3.8-2.72,14.27-3.95,16.8" id="Ske2g1rh32k" kvg:type="㇔" transform="matrix(1,0,0,1,896,-4)" xmlns:kvg="http://kanjivg.tagaini.net"></path><path class="stroke_order_diagram--existing_path" d="M21.87,28.45c8.92-0.93,56.54-5.13,63.78-5.48c11.31-0.55,1.71,8.01-1.11,9.99" id="Ske2g1rh32l" kvg:type="㇖b" transform="matrix(1,0,0,1,896,-4)" xmlns:kvg="http://kanjivg.tagaini.net"></path><path class="stroke_order_diagram--existing_path" d="M37.76,31.25c0.23,1.52-0.06,3.5-0.79,4.8c-4.65,8.28-10.55,15.28-21.22,25.36" id="Ske2g1rh32m" kvg:type="㇒" transform="matrix(1,0,0,1,896,-4)" xmlns:kvg="http://kanjivg.tagaini.net"></path><path class="stroke_order_diagram--existing_path" d="M31.47,47.81c0.84,0.79,1.49,2.54,1.54,3.77c0.5,10.98-0.69,42.46-0.27,48.17" id="Ske2g1rh32n" kvg:type="㇑" transform="matrix(1,0,0,1,896,-4)" xmlns:kvg="http://kanjivg.tagaini.net"></path><path class="stroke_order_diagram--existing_path" d="M61.43,29.75c0.07,0.81-0.02,1.88-0.24,2.57c-1.4,4.43-3.17,7.86-6.37,13.26" id="Ske2g1rh32o" kvg:type="㇒" transform="matrix(1,0,0,1,896,-4)" xmlns:kvg="http://kanjivg.tagaini.net"></path><path class="stroke_order_diagram--existing_path" d="M32.27,49.04c9.77-1.03,48.96-4.54,53.15-5.11" id="Ske2g1rh32p" kvg:type="㇐b" transform="matrix(1,0,0,1,896,-4)" xmlns:kvg="http://kanjivg.tagaini.net"></path><path class="stroke_order_diagram--existing_path" d="M56.79,47.61c0.47,0.41,0.85,0.96,0.85,1.66c0,7.12,0.05,32.6-0.23,43.81" id="Ske2g1rh32q" kvg:type="㇑a" transform="matrix(1,0,0,1,896,-4)" xmlns:kvg="http://kanjivg.tagaini.net"></path><path class="stroke_order_diagram--existing_path" d="M33.58,62.55c9.22-0.86,44.49-4.35,48.44-4.81" id="Ske2g1rh32r" kvg:type="㇐b" transform="matrix(1,0,0,1,896,-4)" xmlns:kvg="http://kanjivg.tagaini.net"></path><path class="stroke_order_diagram--current_path" d="M33.46,77.5c9.73-0.72,45.19-4.69,49.37-5.08" id="kvg:05bc9-s10" kvg:type="㇐b" transform="matrix(1,0,0,1,896,-4)" xmlns:kvg="http://kanjivg.tagaini.net"></path><path class="stroke_order_diagram--current_path" d="M33.46,77.5c9.73-0.72,45.19-4.69,49.37-5.08" id="Ske2g1rh32t" kvg:type="㇐b" transform="matrix(1,0,0,1,896,-4)" xmlns:kvg="http://kanjivg.tagaini.net"></path><circle class="stroke_order_diagram--path_start" cx="33.46" cy="77.5" r="4" transform="matrix(1,0,0,1,896,-4)"></circle><line class="stroke_order_diagram--guide_line" x1="1050" x2="1050" y1="1" y2="99"></line><line class="stroke_order_diagram--bounding_box" x1="1099" x2="1099" y1="1" y2="99"></line><path class="stroke_order_diagram--existing_path" d="M50.91,11.33c1.24,0.4,3,2.38,2.97,3.54c-0.09,3.66-0.09,7.2-0.1,10.53" id="Ske2g1rh32w" kvg:type="㇑a" transform="matrix(1,0,0,1,996,-4)" xmlns:kvg="http://kanjivg.tagaini.net"></path><path class="stroke_order_diagram--existing_path" d="M21.7,24.12c0,3.8-2.72,14.27-3.95,16.8" id="Ske2g1rh32x" kvg:type="㇔" transform="matrix(1,0,0,1,996,-4)" xmlns:kvg="http://kanjivg.tagaini.net"></path><path class="stroke_order_diagram--existing_path" d="M21.87,28.45c8.92-0.93,56.54-5.13,63.78-5.48c11.31-0.55,1.71,8.01-1.11,9.99" id="Ske2g1rh32y" kvg:type="㇖b" transform="matrix(1,0,0,1,996,-4)" xmlns:kvg="http://kanjivg.tagaini.net"></path><path class="stroke_order_diagram--existing_path" d="M37.76,31.25c0.23,1.52-0.06,3.5-0.79,4.8c-4.65,8.28-10.55,15.28-21.22,25.36" id="Ske2g1rh32z" kvg:type="㇒" transform="matrix(1,0,0,1,996,-4)" xmlns:kvg="http://kanjivg.tagaini.net"></path><path class="stroke_order_diagram--existing_path" d="M31.47,47.81c0.84,0.79,1.49,2.54,1.54,3.77c0.5,10.98-0.69,42.46-0.27,48.17" id="Ske2g1rh330" kvg:type="㇑" transform="matrix(1,0,0,1,996,-4)" xmlns:kvg="http://kanjivg.tagaini.net"></path><path class="stroke_order_diagram--existing_path" d="M61.43,29.75c0.07,0.81-0.02,1.88-0.24,2.57c-1.4,4.43-3.17,7.86-6.37,13.26" id="Ske2g1rh331" kvg:type="㇒" transform="matrix(1,0,0,1,996,-4)" xmlns:kvg="http://kanjivg.tagaini.net"></path><path class="stroke_order_diagram--existing_path" d="M32.27,49.04c9.77-1.03,48.96-4.54,53.15-5.11" id="Ske2g1rh332" kvg:type="㇐b" transform="matrix(1,0,0,1,996,-4)" xmlns:kvg="http://kanjivg.tagaini.net"></path><path class="stroke_order_diagram--existing_path" d="M56.79,47.61c0.47,0.41,0.85,0.96,0.85,1.66c0,7.12,0.05,32.6-0.23,43.81" id="Ske2g1rh333" kvg:type="㇑a" transform="matrix(1,0,0,1,996,-4)" xmlns:kvg="http://kanjivg.tagaini.net"></path><path class="stroke_order_diagram--existing_path" d="M33.58,62.55c9.22-0.86,44.49-4.35,48.44-4.81" id="Ske2g1rh334" kvg:type="㇐b" transform="matrix(1,0,0,1,996,-4)" xmlns:kvg="http://kanjivg.tagaini.net"></path><path class="stroke_order_diagram--existing_path" d="M33.46,77.5c9.73-0.72,45.19-4.69,49.37-5.08" id="Ske2g1rh335" kvg:type="㇐b" transform="matrix(1,0,0,1,996,-4)" xmlns:kvg="http://kanjivg.tagaini.net"></path><path class="stroke_order_diagram--current_path" d="M32.96,95.97c9.77-1.03,51.1-4.01,55.29-4.57" id="kvg:05bc9-s11" kvg:type="㇐b" transform="matrix(1,0,0,1,996,-4)" xmlns:kvg="http://kanjivg.tagaini.net"></path><path class="stroke_order_diagram--current_path" d="M32.96,95.97c9.77-1.03,51.1-4.01,55.29-4.57" id="Ske2g1rh337" kvg:type="㇐b" transform="matrix(1,0,0,1,996,-4)" xmlns:kvg="http://kanjivg.tagaini.net"></path><circle class="stroke_order_diagram--path_start" cx="32.96" cy="95.97" r="4" transform="matrix(1,0,0,1,996,-4)"></circle></svg>