<svg class="stroke_order_diagram--svg_container_for_518662a4d5dda79658000de6" style="height: 100px; width: 1100px;" viewbox="0 0 1100 100"><desc>Created with Snap</desc><defs></defs><line class="stroke_order_diagram--bounding_box" x1="1" x2="1099" y1="1" y2="1"></line><line class="stroke_order_diagram--bounding_box" x1="1" x2="1" y1="1" y2="99"></line><line class="stroke_order_diagram--bounding_box" x1="1" x2="1099" y1="99" y2="99"></line><line class="stroke_order_diagram--guide_line" x1="0" x2="1100" y1="50" y2="50"></line><line class="stroke_order_diagram--guide_line" x1="50" x2="50" y1="1" y2="99"></line><line class="stroke_order_diagram--bounding_box" x1="99" x2="99" y1="1" y2="99"></line><path class="stroke_order_diagram--current_path" d="M22.2,18.25c0.61,0.36,2.01,2.69,2.01,3.42c0,7.55,0.25,39.47,0.25,49.15" id="kvg:05d15-s1" kvg:type="㇑a" transform="matrix(1,0,0,1,-4,-4)" xmlns:kvg="http://kanjivg.tagaini.net"></path><path class="stroke_order_diagram--current_path" d="M22.2,18.25c0.61,0.36,2.01,2.69,2.01,3.42c0,7.55,0.25,39.47,0.25,49.15" id="Ske2gh1vqk" kvg:type="㇑a" transform="matrix(1,0,0,1,-4,-4)" xmlns:kvg="http://kanjivg.tagaini.net"></path><circle class="stroke_order_diagram--path_start" cx="22.2" cy="18.25" r="4" transform="matrix(1,0,0,1,-4,-4)"></circle><line class="stroke_order_diagram--guide_line" x1="150" x2="150" y1="1" y2="99"></line><line class="stroke_order_diagram--bounding_box" x1="199" x2="199" y1="1" y2="99"></line><path class="stroke_order_diagram--existing_path" d="M22.2,18.25c0.61,0.36,2.01,2.69,2.01,3.42c0,7.55,0.25,39.47,0.25,49.15" id="Ske2gh1vqn" kvg:type="㇑a" transform="matrix(1,0,0,1,96,-4)" xmlns:kvg="http://kanjivg.tagaini.net"></path><path class="stroke_order_diagram--current_path" d="M10.79,44.01c0.67,0.4,1.39,2.07,1.33,2.88c-0.37,5.52-0.37,17.06-1.7,25.36c-0.29,1.8,0.21,2.27,1.82,1.81C19.5,72,24.25,71.25,35.5,68.95" id="kvg:05d15-s2" kvg:type="㇄a" transform="matrix(1,0,0,1,96,-4)" xmlns:kvg="http://kanjivg.tagaini.net"></path><path class="stroke_order_diagram--current_path" d="M10.79,44.01c0.67,0.4,1.39,2.07,1.33,2.88c-0.37,5.52-0.37,17.06-1.7,25.36c-0.29,1.8,0.21,2.27,1.82,1.81C19.5,72,24.25,71.25,35.5,68.95" id="Ske2gh1vqp" kvg:type="㇄a" transform="matrix(1,0,0,1,96,-4)" xmlns:kvg="http://kanjivg.tagaini.net"></path><circle class="stroke_order_diagram--path_start" cx="10.79" cy="44.01" r="4" transform="matrix(1,0,0,1,96,-4)"></circle><line class="stroke_order_diagram--guide_line" x1="250" x2="250" y1="1" y2="99"></line><line class="stroke_order_diagram--bounding_box" x1="299" x2="299" y1="1" y2="99"></line><path class="stroke_order_diagram--existing_path" d="M22.2,18.25c0.61,0.36,2.01,2.69,2.01,3.42c0,7.55,0.25,39.47,0.25,49.15" id="Ske2gh1vqs" kvg:type="㇑a" transform="matrix(1,0,0,1,196,-4)" xmlns:kvg="http://kanjivg.tagaini.net"></path><path class="stroke_order_diagram--existing_path" d="M10.79,44.01c0.67,0.4,1.39,2.07,1.33,2.88c-0.37,5.52-0.37,17.06-1.7,25.36c-0.29,1.8,0.21,2.27,1.82,1.81C19.5,72,24.25,71.25,35.5,68.95" id="Ske2gh1vqt" kvg:type="㇄a" transform="matrix(1,0,0,1,196,-4)" xmlns:kvg="http://kanjivg.tagaini.net"></path><path class="stroke_order_diagram--current_path" d="M36.22,39.66c0.67,0.4,1.33,2.96,1.33,3.76c0,6.21-1.42,19.26-1.42,29.31" id="kvg:05d15-s3" kvg:type="㇑" transform="matrix(1,0,0,1,196,-4)" xmlns:kvg="http://kanjivg.tagaini.net"></path><path class="stroke_order_diagram--current_path" d="M36.22,39.66c0.67,0.4,1.33,2.96,1.33,3.76c0,6.21-1.42,19.26-1.42,29.31" id="Ske2gh1vqv" kvg:type="㇑" transform="matrix(1,0,0,1,196,-4)" xmlns:kvg="http://kanjivg.tagaini.net"></path><circle class="stroke_order_diagram--path_start" cx="36.22" cy="39.66" r="4" transform="matrix(1,0,0,1,196,-4)"></circle><line class="stroke_order_diagram--guide_line" x1="350" x2="350" y1="1" y2="99"></line><line class="stroke_order_diagram--bounding_box" x1="399" x2="399" y1="1" y2="99"></line><path class="stroke_order_diagram--existing_path" d="M22.2,18.25c0.61,0.36,2.01,2.69,2.01,3.42c0,7.55,0.25,39.47,0.25,49.15" id="Ske2gh1vqy" kvg:type="㇑a" transform="matrix(1,0,0,1,296,-4)" xmlns:kvg="http://kanjivg.tagaini.net"></path><path class="stroke_order_diagram--existing_path" d="M10.79,44.01c0.67,0.4,1.39,2.07,1.33,2.88c-0.37,5.52-0.37,17.06-1.7,25.36c-0.29,1.8,0.21,2.27,1.82,1.81C19.5,72,24.25,71.25,35.5,68.95" id="Ske2gh1vqz" kvg:type="㇄a" transform="matrix(1,0,0,1,296,-4)" xmlns:kvg="http://kanjivg.tagaini.net"></path><path class="stroke_order_diagram--existing_path" d="M36.22,39.66c0.67,0.4,1.33,2.96,1.33,3.76c0,6.21-1.42,19.26-1.42,29.31" id="Ske2gh1vq10" kvg:type="㇑" transform="matrix(1,0,0,1,296,-4)" xmlns:kvg="http://kanjivg.tagaini.net"></path><path class="stroke_order_diagram--current_path" d="M44.92,21.8c1.09,0.52,3.09,0.6,4.18,0.52C59.5,21.5,76.5,19,91.31,18.29c1.81-0.09,2.91,0.25,3.81,0.5" id="kvg:05d15-s4" kvg:type="㇐" transform="matrix(1,0,0,1,296,-4)" xmlns:kvg="http://kanjivg.tagaini.net"></path><path class="stroke_order_diagram--current_path" d="M44.92,21.8c1.09,0.52,3.09,0.6,4.18,0.52C59.5,21.5,76.5,19,91.31,18.29c1.81-0.09,2.91,0.25,3.81,0.5" id="Ske2gh1vq12" kvg:type="㇐" transform="matrix(1,0,0,1,296,-4)" xmlns:kvg="http://kanjivg.tagaini.net"></path><circle class="stroke_order_diagram--path_start" cx="44.92" cy="21.8" r="4" transform="matrix(1,0,0,1,296,-4)"></circle><line class="stroke_order_diagram--guide_line" x1="450" x2="450" y1="1" y2="99"></line><line class="stroke_order_diagram--bounding_box" x1="499" x2="499" y1="1" y2="99"></line><path class="stroke_order_diagram--existing_path" d="M22.2,18.25c0.61,0.36,2.01,2.69,2.01,3.42c0,7.55,0.25,39.47,0.25,49.15" id="Ske2gh1vq15" kvg:type="㇑a" transform="matrix(1,0,0,1,396,-4)" xmlns:kvg="http://kanjivg.tagaini.net"></path><path class="stroke_order_diagram--existing_path" d="M10.79,44.01c0.67,0.4,1.39,2.07,1.33,2.88c-0.37,5.52-0.37,17.06-1.7,25.36c-0.29,1.8,0.21,2.27,1.82,1.81C19.5,72,24.25,71.25,35.5,68.95" id="Ske2gh1vq16" kvg:type="㇄a" transform="matrix(1,0,0,1,396,-4)" xmlns:kvg="http://kanjivg.tagaini.net"></path><path class="stroke_order_diagram--existing_path" d="M36.22,39.66c0.67,0.4,1.33,2.96,1.33,3.76c0,6.21-1.42,19.26-1.42,29.31" id="Ske2gh1vq17" kvg:type="㇑" transform="matrix(1,0,0,1,396,-4)" xmlns:kvg="http://kanjivg.tagaini.net"></path><path class="stroke_order_diagram--existing_path" d="M44.92,21.8c1.09,0.52,3.09,0.6,4.18,0.52C59.5,21.5,76.5,19,91.31,18.29c1.81-0.09,2.91,0.25,3.81,0.5" id="Ske2gh1vq18" kvg:type="㇐" transform="matrix(1,0,0,1,396,-4)" xmlns:kvg="http://kanjivg.tagaini.net"></path><path class="stroke_order_diagram--current_path" d="M49.41,22.94c0.04,1.55,0,3.49-0.08,5.72C48.5,53.5,45.74,74.61,35.5,88.75" id="kvg:05d15-s5" kvg:type="㇒" transform="matrix(1,0,0,1,396,-4)" xmlns:kvg="http://kanjivg.tagaini.net"></path><path class="stroke_order_diagram--current_path" d="M49.41,22.94c0.04,1.55,0,3.49-0.08,5.72C48.5,53.5,45.74,74.61,35.5,88.75" id="Ske2gh1vq1a" kvg:type="㇒" transform="matrix(1,0,0,1,396,-4)" xmlns:kvg="http://kanjivg.tagaini.net"></path><circle class="stroke_order_diagram--path_start" cx="49.41" cy="22.94" r="4" transform="matrix(1,0,0,1,396,-4)"></circle><line class="stroke_order_diagram--guide_line" x1="550" x2="550" y1="1" y2="99"></line><line class="stroke_order_diagram--bounding_box" x1="599" x2="599" y1="1" y2="99"></line><path class="stroke_order_diagram--existing_path" d="M22.2,18.25c0.61,0.36,2.01,2.69,2.01,3.42c0,7.55,0.25,39.47,0.25,49.15" id="Ske2gh1vq1d" kvg:type="㇑a" transform="matrix(1,0,0,1,496,-4)" xmlns:kvg="http://kanjivg.tagaini.net"></path><path class="stroke_order_diagram--existing_path" d="M10.79,44.01c0.67,0.4,1.39,2.07,1.33,2.88c-0.37,5.52-0.37,17.06-1.7,25.36c-0.29,1.8,0.21,2.27,1.82,1.81C19.5,72,24.25,71.25,35.5,68.95" id="Ske2gh1vq1e" kvg:type="㇄a" transform="matrix(1,0,0,1,496,-4)" xmlns:kvg="http://kanjivg.tagaini.net"></path><path class="stroke_order_diagram--existing_path" d="M36.22,39.66c0.67,0.4,1.33,2.96,1.33,3.76c0,6.21-1.42,19.26-1.42,29.31" id="Ske2gh1vq1f" kvg:type="㇑" transform="matrix(1,0,0,1,496,-4)" xmlns:kvg="http://kanjivg.tagaini.net"></path><path class="stroke_order_diagram--existing_path" d="M44.92,21.8c1.09,0.52,3.09,0.6,4.18,0.52C59.5,21.5,76.5,19,91.31,18.29c1.81-0.09,2.91,0.25,3.81,0.5" id="Ske2gh1vq1g" kvg:type="㇐" transform="matrix(1,0,0,1,496,-4)" xmlns:kvg="http://kanjivg.tagaini.net"></path><path class="stroke_order_diagram--existing_path" d="M49.41,22.94c0.04,1.55,0,3.49-0.08,5.72C48.5,53.5,45.74,74.61,35.5,88.75" id="Ske2gh1vq1h" kvg:type="㇒" transform="matrix(1,0,0,1,496,-4)" xmlns:kvg="http://kanjivg.tagaini.net"></path><path class="stroke_order_diagram--current_path" d="M56.7,40.46c0.62,0.27,1.75,0.34,2.37,0.27c7.94-0.93,21.31-2.98,29.3-3.22c1.03-0.03,1.65,0.13,2.16,0.27" id="kvg:05d15-s6" kvg:type="㇐" transform="matrix(1,0,0,1,496,-4)" xmlns:kvg="http://kanjivg.tagaini.net"></path><path class="stroke_order_diagram--current_path" d="M56.7,40.46c0.62,0.27,1.75,0.34,2.37,0.27c7.94-0.93,21.31-2.98,29.3-3.22c1.03-0.03,1.65,0.13,2.16,0.27" id="Ske2gh1vq1j" kvg:type="㇐" transform="matrix(1,0,0,1,496,-4)" xmlns:kvg="http://kanjivg.tagaini.net"></path><circle class="stroke_order_diagram--path_start" cx="56.7" cy="40.46" r="4" transform="matrix(1,0,0,1,496,-4)"></circle><line class="stroke_order_diagram--guide_line" x1="650" x2="650" y1="1" y2="99"></line><line class="stroke_order_diagram--bounding_box" x1="699" x2="699" y1="1" y2="99"></line><path class="stroke_order_diagram--existing_path" d="M22.2,18.25c0.61,0.36,2.01,2.69,2.01,3.42c0,7.55,0.25,39.47,0.25,49.15" id="Ske2gh1vq1m" kvg:type="㇑a" transform="matrix(1,0,0,1,596,-4)" xmlns:kvg="http://kanjivg.tagaini.net"></path><path class="stroke_order_diagram--existing_path" d="M10.79,44.01c0.67,0.4,1.39,2.07,1.33,2.88c-0.37,5.52-0.37,17.06-1.7,25.36c-0.29,1.8,0.21,2.27,1.82,1.81C19.5,72,24.25,71.25,35.5,68.95" id="Ske2gh1vq1n" kvg:type="㇄a" transform="matrix(1,0,0,1,596,-4)" xmlns:kvg="http://kanjivg.tagaini.net"></path><path class="stroke_order_diagram--existing_path" d="M36.22,39.66c0.67,0.4,1.33,2.96,1.33,3.76c0,6.21-1.42,19.26-1.42,29.31" id="Ske2gh1vq1o" kvg:type="㇑" transform="matrix(1,0,0,1,596,-4)" xmlns:kvg="http://kanjivg.tagaini.net"></path><path class="stroke_order_diagram--existing_path" d="M44.92,21.8c1.09,0.52,3.09,0.6,4.18,0.52C59.5,21.5,76.5,19,91.31,18.29c1.81-0.09,2.91,0.25,3.81,0.5" id="Ske2gh1vq1p" kvg:type="㇐" transform="matrix(1,0,0,1,596,-4)" xmlns:kvg="http://kanjivg.tagaini.net"></path><path class="stroke_order_diagram--existing_path" d="M49.41,22.94c0.04,1.55,0,3.49-0.08,5.72C48.5,53.5,45.74,74.61,35.5,88.75" id="Ske2gh1vq1q" kvg:type="㇒" transform="matrix(1,0,0,1,596,-4)" xmlns:kvg="http://kanjivg.tagaini.net"></path><path class="stroke_order_diagram--existing_path" d="M56.7,40.46c0.62,0.27,1.75,0.34,2.37,0.27c7.94-0.93,21.31-2.98,29.3-3.22c1.03-0.03,1.65,0.13,2.16,0.27" id="Ske2gh1vq1r" kvg:type="㇐" transform="matrix(1,0,0,1,596,-4)" xmlns:kvg="http://kanjivg.tagaini.net"></path><path class="stroke_order_diagram--current_path" d="M71.86,26.62c0.1,0.28,1.48,1.48,1.48,3.29c0,5.09-0.19,18.59-0.19,24.4" id="kvg:05d15-s7" kvg:type="㇑a" transform="matrix(1,0,0,1,596,-4)" xmlns:kvg="http://kanjivg.tagaini.net"></path><path class="stroke_order_diagram--current_path" d="M71.86,26.62c0.1,0.28,1.48,1.48,1.48,3.29c0,5.09-0.19,18.59-0.19,24.4" id="Ske2gh1vq1t" kvg:type="㇑a" transform="matrix(1,0,0,1,596,-4)" xmlns:kvg="http://kanjivg.tagaini.net"></path><circle class="stroke_order_diagram--path_start" cx="71.86" cy="26.62" r="4" transform="matrix(1,0,0,1,596,-4)"></circle><line class="stroke_order_diagram--guide_line" x1="750" x2="750" y1="1" y2="99"></line><line class="stroke_order_diagram--bounding_box" x1="799" x2="799" y1="1" y2="99"></line><path class="stroke_order_diagram--existing_path" d="M22.2,18.25c0.61,0.36,2.01,2.69,2.01,3.42c0,7.55,0.25,39.47,0.25,49.15" id="Ske2gh1vq1w" kvg:type="㇑a" transform="matrix(1,0,0,1,696,-4)" xmlns:kvg="http://kanjivg.tagaini.net"></path><path class="stroke_order_diagram--existing_path" d="M10.79,44.01c0.67,0.4,1.39,2.07,1.33,2.88c-0.37,5.52-0.37,17.06-1.7,25.36c-0.29,1.8,0.21,2.27,1.82,1.81C19.5,72,24.25,71.25,35.5,68.95" id="Ske2gh1vq1x" kvg:type="㇄a" transform="matrix(1,0,0,1,696,-4)" xmlns:kvg="http://kanjivg.tagaini.net"></path><path class="stroke_order_diagram--existing_path" d="M36.22,39.66c0.67,0.4,1.33,2.96,1.33,3.76c0,6.21-1.42,19.26-1.42,29.31" id="Ske2gh1vq1y" kvg:type="㇑" transform="matrix(1,0,0,1,696,-4)" xmlns:kvg="http://kanjivg.tagaini.net"></path><path class="stroke_order_diagram--existing_path" d="M44.92,21.8c1.09,0.52,3.09,0.6,4.18,0.52C59.5,21.5,76.5,19,91.31,18.29c1.81-0.09,2.91,0.25,3.81,0.5" id="Ske2gh1vq1z" kvg:type="㇐" transform="matrix(1,0,0,1,696,-4)" xmlns:kvg="http://kanjivg.tagaini.net"></path><path class="stroke_order_diagram--existing_path" d="M49.41,22.94c0.04,1.55,0,3.49-0.08,5.72C48.5,53.5,45.74,74.61,35.5,88.75" id="Ske2gh1vq20" kvg:type="㇒" transform="matrix(1,0,0,1,696,-4)" xmlns:kvg="http://kanjivg.tagaini.net"></path><path class="stroke_order_diagram--existing_path" d="M56.7,40.46c0.62,0.27,1.75,0.34,2.37,0.27c7.94-0.93,21.31-2.98,29.3-3.22c1.03-0.03,1.65,0.13,2.16,0.27" id="Ske2gh1vq21" kvg:type="㇐" transform="matrix(1,0,0,1,696,-4)" xmlns:kvg="http://kanjivg.tagaini.net"></path><path class="stroke_order_diagram--existing_path" d="M71.86,26.62c0.1,0.28,1.48,1.48,1.48,3.29c0,5.09-0.19,18.59-0.19,24.4" id="Ske2gh1vq22" kvg:type="㇑a" transform="matrix(1,0,0,1,696,-4)" xmlns:kvg="http://kanjivg.tagaini.net"></path><path class="stroke_order_diagram--current_path" d="M53.62,55.34c1.1,0.45,3.12,0.51,4.23,0.45c8.9-0.54,25.65-2.79,35-3.07c1.84-0.06,2.94,0.21,3.86,0.44" id="kvg:05d15-s8" kvg:type="㇐" transform="matrix(1,0,0,1,696,-4)" xmlns:kvg="http://kanjivg.tagaini.net"></path><path class="stroke_order_diagram--current_path" d="M53.62,55.34c1.1,0.45,3.12,0.51,4.23,0.45c8.9-0.54,25.65-2.79,35-3.07c1.84-0.06,2.94,0.21,3.86,0.44" id="Ske2gh1vq24" kvg:type="㇐" transform="matrix(1,0,0,1,696,-4)" xmlns:kvg="http://kanjivg.tagaini.net"></path><circle class="stroke_order_diagram--path_start" cx="53.62" cy="55.34" r="4" transform="matrix(1,0,0,1,696,-4)"></circle><line class="stroke_order_diagram--guide_line" x1="850" x2="850" y1="1" y2="99"></line><line class="stroke_order_diagram--bounding_box" x1="899" x2="899" y1="1" y2="99"></line><path class="stroke_order_diagram--existing_path" d="M22.2,18.25c0.61,0.36,2.01,2.69,2.01,3.42c0,7.55,0.25,39.47,0.25,49.15" id="Ske2gh1vq27" kvg:type="㇑a" transform="matrix(1,0,0,1,796,-4)" xmlns:kvg="http://kanjivg.tagaini.net"></path><path class="stroke_order_diagram--existing_path" d="M10.79,44.01c0.67,0.4,1.39,2.07,1.33,2.88c-0.37,5.52-0.37,17.06-1.7,25.36c-0.29,1.8,0.21,2.27,1.82,1.81C19.5,72,24.25,71.25,35.5,68.95" id="Ske2gh1vq28" kvg:type="㇄a" transform="matrix(1,0,0,1,796,-4)" xmlns:kvg="http://kanjivg.tagaini.net"></path><path class="stroke_order_diagram--existing_path" d="M36.22,39.66c0.67,0.4,1.33,2.96,1.33,3.76c0,6.21-1.42,19.26-1.42,29.31" id="Ske2gh1vq29" kvg:type="㇑" transform="matrix(1,0,0,1,796,-4)" xmlns:kvg="http://kanjivg.tagaini.net"></path><path class="stroke_order_diagram--existing_path" d="M44.92,21.8c1.09,0.52,3.09,0.6,4.18,0.52C59.5,21.5,76.5,19,91.31,18.29c1.81-0.09,2.91,0.25,3.81,0.5" id="Ske2gh1vq2a" kvg:type="㇐" transform="matrix(1,0,0,1,796,-4)" xmlns:kvg="http://kanjivg.tagaini.net"></path><path class="stroke_order_diagram--existing_path" d="M49.41,22.94c0.04,1.55,0,3.49-0.08,5.72C48.5,53.5,45.74,74.61,35.5,88.75" id="Ske2gh1vq2b" kvg:type="㇒" transform="matrix(1,0,0,1,796,-4)" xmlns:kvg="http://kanjivg.tagaini.net"></path><path class="stroke_order_diagram--existing_path" d="M56.7,40.46c0.62,0.27,1.75,0.34,2.37,0.27c7.94-0.93,21.31-2.98,29.3-3.22c1.03-0.03,1.65,0.13,2.16,0.27" id="Ske2gh1vq2c" kvg:type="㇐" transform="matrix(1,0,0,1,796,-4)" xmlns:kvg="http://kanjivg.tagaini.net"></path><path class="stroke_order_diagram--existing_path" d="M71.86,26.62c0.1,0.28,1.48,1.48,1.48,3.29c0,5.09-0.19,18.59-0.19,24.4" id="Ske2gh1vq2d" kvg:type="㇑a" transform="matrix(1,0,0,1,796,-4)" xmlns:kvg="http://kanjivg.tagaini.net"></path><path class="stroke_order_diagram--existing_path" d="M53.62,55.34c1.1,0.45,3.12,0.51,4.23,0.45c8.9-0.54,25.65-2.79,35-3.07c1.84-0.06,2.94,0.21,3.86,0.44" id="Ske2gh1vq2e" kvg:type="㇐" transform="matrix(1,0,0,1,796,-4)" xmlns:kvg="http://kanjivg.tagaini.net"></path><path class="stroke_order_diagram--current_path" d="M55.09,72.71c0.7,0.27,1.97,0.34,2.67,0.27c8.95-0.93,23.55-2.89,32.56-3.13c1.16-0.03,1.86,0.13,2.44,0.27" id="kvg:05d15-s9" kvg:type="㇐" transform="matrix(1,0,0,1,796,-4)" xmlns:kvg="http://kanjivg.tagaini.net"></path><path class="stroke_order_diagram--current_path" d="M55.09,72.71c0.7,0.27,1.97,0.34,2.67,0.27c8.95-0.93,23.55-2.89,32.56-3.13c1.16-0.03,1.86,0.13,2.44,0.27" id="Ske2gh1vq2g" kvg:type="㇐" transform="matrix(1,0,0,1,796,-4)" xmlns:kvg="http://kanjivg.tagaini.net"></path><circle class="stroke_order_diagram--path_start" cx="55.09" cy="72.71" r="4" transform="matrix(1,0,0,1,796,-4)"></circle><line class="stroke_order_diagram--guide_line" x1="950" x2="950" y1="1" y2="99"></line><line class="stroke_order_diagram--bounding_box" x1="999" x2="999" y1="1" y2="99"></line><path class="stroke_order_diagram--existing_path" d="M22.2,18.25c0.61,0.36,2.01,2.69,2.01,3.42c0,7.55,0.25,39.47,0.25,49.15" id="Ske2gh1vq2j" kvg:type="㇑a" transform="matrix(1,0,0,1,896,-4)" xmlns:kvg="http://kanjivg.tagaini.net"></path><path class="stroke_order_diagram--existing_path" d="M10.79,44.01c0.67,0.4,1.39,2.07,1.33,2.88c-0.37,5.52-0.37,17.06-1.7,25.36c-0.29,1.8,0.21,2.27,1.82,1.81C19.5,72,24.25,71.25,35.5,68.95" id="Ske2gh1vq2k" kvg:type="㇄a" transform="matrix(1,0,0,1,896,-4)" xmlns:kvg="http://kanjivg.tagaini.net"></path><path class="stroke_order_diagram--existing_path" d="M36.22,39.66c0.67,0.4,1.33,2.96,1.33,3.76c0,6.21-1.42,19.26-1.42,29.31" id="Ske2gh1vq2l" kvg:type="㇑" transform="matrix(1,0,0,1,896,-4)" xmlns:kvg="http://kanjivg.tagaini.net"></path><path class="stroke_order_diagram--existing_path" d="M44.92,21.8c1.09,0.52,3.09,0.6,4.18,0.52C59.5,21.5,76.5,19,91.31,18.29c1.81-0.09,2.91,0.25,3.81,0.5" id="Ske2gh1vq2m" kvg:type="㇐" transform="matrix(1,0,0,1,896,-4)" xmlns:kvg="http://kanjivg.tagaini.net"></path><path class="stroke_order_diagram--existing_path" d="M49.41,22.94c0.04,1.55,0,3.49-0.08,5.72C48.5,53.5,45.74,74.61,35.5,88.75" id="Ske2gh1vq2n" kvg:type="㇒" transform="matrix(1,0,0,1,896,-4)" xmlns:kvg="http://kanjivg.tagaini.net"></path><path class="stroke_order_diagram--existing_path" d="M56.7,40.46c0.62,0.27,1.75,0.34,2.37,0.27c7.94-0.93,21.31-2.98,29.3-3.22c1.03-0.03,1.65,0.13,2.16,0.27" id="Ske2gh1vq2o" kvg:type="㇐" transform="matrix(1,0,0,1,896,-4)" xmlns:kvg="http://kanjivg.tagaini.net"></path><path class="stroke_order_diagram--existing_path" d="M71.86,26.62c0.1,0.28,1.48,1.48,1.48,3.29c0,5.09-0.19,18.59-0.19,24.4" id="Ske2gh1vq2p" kvg:type="㇑a" transform="matrix(1,0,0,1,896,-4)" xmlns:kvg="http://kanjivg.tagaini.net"></path><path class="stroke_order_diagram--existing_path" d="M53.62,55.34c1.1,0.45,3.12,0.51,4.23,0.45c8.9-0.54,25.65-2.79,35-3.07c1.84-0.06,2.94,0.21,3.86,0.44" id="Ske2gh1vq2q" kvg:type="㇐" transform="matrix(1,0,0,1,896,-4)" xmlns:kvg="http://kanjivg.tagaini.net"></path><path class="stroke_order_diagram--existing_path" d="M55.09,72.71c0.7,0.27,1.97,0.34,2.67,0.27c8.95-0.93,23.55-2.89,32.56-3.13c1.16-0.03,1.86,0.13,2.44,0.27" id="Ske2gh1vq2r" kvg:type="㇐" transform="matrix(1,0,0,1,896,-4)" xmlns:kvg="http://kanjivg.tagaini.net"></path><path class="stroke_order_diagram--current_path" d="M72.4,59.96c0.09,0.36,1.29,1.86,1.29,4.15c0,6.65-0.19,12.59-0.19,25.65" id="kvg:05d15-s10" kvg:type="㇑a" transform="matrix(1,0,0,1,896,-4)" xmlns:kvg="http://kanjivg.tagaini.net"></path><path class="stroke_order_diagram--current_path" d="M72.4,59.96c0.09,0.36,1.29,1.86,1.29,4.15c0,6.65-0.19,12.59-0.19,25.65" id="Ske2gh1vq2t" kvg:type="㇑a" transform="matrix(1,0,0,1,896,-4)" xmlns:kvg="http://kanjivg.tagaini.net"></path><circle class="stroke_order_diagram--path_start" cx="72.4" cy="59.96" r="4" transform="matrix(1,0,0,1,896,-4)"></circle><line class="stroke_order_diagram--guide_line" x1="1050" x2="1050" y1="1" y2="99"></line><line class="stroke_order_diagram--bounding_box" x1="1099" x2="1099" y1="1" y2="99"></line><path class="stroke_order_diagram--existing_path" d="M22.2,18.25c0.61,0.36,2.01,2.69,2.01,3.42c0,7.55,0.25,39.47,0.25,49.15" id="Ske2gh1vq2w" kvg:type="㇑a" transform="matrix(1,0,0,1,996,-4)" xmlns:kvg="http://kanjivg.tagaini.net"></path><path class="stroke_order_diagram--existing_path" d="M10.79,44.01c0.67,0.4,1.39,2.07,1.33,2.88c-0.37,5.52-0.37,17.06-1.7,25.36c-0.29,1.8,0.21,2.27,1.82,1.81C19.5,72,24.25,71.25,35.5,68.95" id="Ske2gh1vq2x" kvg:type="㇄a" transform="matrix(1,0,0,1,996,-4)" xmlns:kvg="http://kanjivg.tagaini.net"></path><path class="stroke_order_diagram--existing_path" d="M36.22,39.66c0.67,0.4,1.33,2.96,1.33,3.76c0,6.21-1.42,19.26-1.42,29.31" id="Ske2gh1vq2y" kvg:type="㇑" transform="matrix(1,0,0,1,996,-4)" xmlns:kvg="http://kanjivg.tagaini.net"></path><path class="stroke_order_diagram--existing_path" d="M44.92,21.8c1.09,0.52,3.09,0.6,4.18,0.52C59.5,21.5,76.5,19,91.31,18.29c1.81-0.09,2.91,0.25,3.81,0.5" id="Ske2gh1vq2z" kvg:type="㇐" transform="matrix(1,0,0,1,996,-4)" xmlns:kvg="http://kanjivg.tagaini.net"></path><path class="stroke_order_diagram--existing_path" d="M49.41,22.94c0.04,1.55,0,3.49-0.08,5.72C48.5,53.5,45.74,74.61,35.5,88.75" id="Ske2gh1vq30" kvg:type="㇒" transform="matrix(1,0,0,1,996,-4)" xmlns:kvg="http://kanjivg.tagaini.net"></path><path class="stroke_order_diagram--existing_path" d="M56.7,40.46c0.62,0.27,1.75,0.34,2.37,0.27c7.94-0.93,21.31-2.98,29.3-3.22c1.03-0.03,1.65,0.13,2.16,0.27" id="Ske2gh1vq31" kvg:type="㇐" transform="matrix(1,0,0,1,996,-4)" xmlns:kvg="http://kanjivg.tagaini.net"></path><path class="stroke_order_diagram--existing_path" d="M71.86,26.62c0.1,0.28,1.48,1.48,1.48,3.29c0,5.09-0.19,18.59-0.19,24.4" id="Ske2gh1vq32" kvg:type="㇑a" transform="matrix(1,0,0,1,996,-4)" xmlns:kvg="http://kanjivg.tagaini.net"></path><path class="stroke_order_diagram--existing_path" d="M53.62,55.34c1.1,0.45,3.12,0.51,4.23,0.45c8.9-0.54,25.65-2.79,35-3.07c1.84-0.06,2.94,0.21,3.86,0.44" id="Ske2gh1vq33" kvg:type="㇐" transform="matrix(1,0,0,1,996,-4)" xmlns:kvg="http://kanjivg.tagaini.net"></path><path class="stroke_order_diagram--existing_path" d="M55.09,72.71c0.7,0.27,1.97,0.34,2.67,0.27c8.95-0.93,23.55-2.89,32.56-3.13c1.16-0.03,1.86,0.13,2.44,0.27" id="Ske2gh1vq34" kvg:type="㇐" transform="matrix(1,0,0,1,996,-4)" xmlns:kvg="http://kanjivg.tagaini.net"></path><path class="stroke_order_diagram--existing_path" d="M72.4,59.96c0.09,0.36,1.29,1.86,1.29,4.15c0,6.65-0.19,12.59-0.19,25.65" id="Ske2gh1vq35" kvg:type="㇑a" transform="matrix(1,0,0,1,996,-4)" xmlns:kvg="http://kanjivg.tagaini.net"></path><path class="stroke_order_diagram--current_path" d="M47.3,90.33c1.1,0.45,3.13,0.55,4.23,0.45c13.66-1.25,32.59-1.98,44.81-2.57c1.84-0.09,2.94,0.21,3.86,0.44" id="kvg:05d15-s11" kvg:type="㇐" transform="matrix(1,0,0,1,996,-4)" xmlns:kvg="http://kanjivg.tagaini.net"></path><path class="stroke_order_diagram--current_path" d="M47.3,90.33c1.1,0.45,3.13,0.55,4.23,0.45c13.66-1.25,32.59-1.98,44.81-2.57c1.84-0.09,2.94,0.21,3.86,0.44" id="Ske2gh1vq37" kvg:type="㇐" transform="matrix(1,0,0,1,996,-4)" xmlns:kvg="http://kanjivg.tagaini.net"></path><circle class="stroke_order_diagram--path_start" cx="47.3" cy="90.33" r="4" transform="matrix(1,0,0,1,996,-4)"></circle></svg>