<svg class="stroke_order_diagram--svg_container_for_51866277d5dda79658000184" style="height: 100px; width: 900px;" viewbox="0 0 900 100"><desc>Created with Snap</desc><defs></defs><line class="stroke_order_diagram--bounding_box" x1="1" x2="899" y1="1" y2="1"></line><line class="stroke_order_diagram--bounding_box" x1="1" x2="1" y1="1" y2="99"></line><line class="stroke_order_diagram--bounding_box" x1="1" x2="899" y1="99" y2="99"></line><line class="stroke_order_diagram--guide_line" x1="0" x2="900" y1="50" y2="50"></line><line class="stroke_order_diagram--guide_line" x1="50" x2="50" y1="1" y2="99"></line><line class="stroke_order_diagram--bounding_box" x1="99" x2="99" y1="1" y2="99"></line><path class="stroke_order_diagram--current_path" d="M30.02,16.83c3.37,2.1,8.2,8.12,9.04,11.38" id="kvg:05dfb-s1" kvg:type="㇔" transform="matrix(1,0,0,1,-4,-4)" xmlns:kvg="http://kanjivg.tagaini.net"></path><path class="stroke_order_diagram--current_path" d="M30.02,16.83c3.37,2.1,8.2,8.12,9.04,11.38" id="Ske1qaouai" kvg:type="㇔" transform="matrix(1,0,0,1,-4,-4)" xmlns:kvg="http://kanjivg.tagaini.net"></path><circle class="stroke_order_diagram--path_start" cx="30.02" cy="16.83" r="4" transform="matrix(1,0,0,1,-4,-4)"></circle><line class="stroke_order_diagram--guide_line" x1="150" x2="150" y1="1" y2="99"></line><line class="stroke_order_diagram--bounding_box" x1="199" x2="199" y1="1" y2="99"></line><path class="stroke_order_diagram--existing_path" d="M30.02,16.83c3.37,2.1,8.2,8.12,9.04,11.38" id="Ske1qaoual" kvg:type="㇔" transform="matrix(1,0,0,1,96,-4)" xmlns:kvg="http://kanjivg.tagaini.net"></path><path class="stroke_order_diagram--current_path" d="M72.77,12.89c0.11,0.95,0.14,1.93-0.33,2.74c-2.19,3.74-5.95,9.16-11.88,15.58" id="kvg:05dfb-s2" kvg:type="㇒" transform="matrix(1,0,0,1,96,-4)" xmlns:kvg="http://kanjivg.tagaini.net"></path><path class="stroke_order_diagram--current_path" d="M72.77,12.89c0.11,0.95,0.14,1.93-0.33,2.74c-2.19,3.74-5.95,9.16-11.88,15.58" id="Ske1qaouan" kvg:type="㇒" transform="matrix(1,0,0,1,96,-4)" xmlns:kvg="http://kanjivg.tagaini.net"></path><circle class="stroke_order_diagram--path_start" cx="72.77" cy="12.89" r="4" transform="matrix(1,0,0,1,96,-4)"></circle><line class="stroke_order_diagram--guide_line" x1="250" x2="250" y1="1" y2="99"></line><line class="stroke_order_diagram--bounding_box" x1="299" x2="299" y1="1" y2="99"></line><path class="stroke_order_diagram--existing_path" d="M30.02,16.83c3.37,2.1,8.2,8.12,9.04,11.38" id="Ske1qaouaq" kvg:type="㇔" transform="matrix(1,0,0,1,196,-4)" xmlns:kvg="http://kanjivg.tagaini.net"></path><path class="stroke_order_diagram--existing_path" d="M72.77,12.89c0.11,0.95,0.14,1.93-0.33,2.74c-2.19,3.74-5.95,9.16-11.88,15.58" id="Ske1qaouar" kvg:type="㇒" transform="matrix(1,0,0,1,196,-4)" xmlns:kvg="http://kanjivg.tagaini.net"></path><path class="stroke_order_diagram--current_path" d="M28,37.39c2.5,0.49,4.26,0.36,6.26,0.06c8.86-1.33,25.25-3.73,33.98-4.56c2.22-0.21,4.33-0.41,6.51,0.12" id="kvg:05dfb-s3" kvg:type="㇐" transform="matrix(1,0,0,1,196,-4)" xmlns:kvg="http://kanjivg.tagaini.net"></path><path class="stroke_order_diagram--current_path" d="M28,37.39c2.5,0.49,4.26,0.36,6.26,0.06c8.86-1.33,25.25-3.73,33.98-4.56c2.22-0.21,4.33-0.41,6.51,0.12" id="Ske1qaouat" kvg:type="㇐" transform="matrix(1,0,0,1,196,-4)" xmlns:kvg="http://kanjivg.tagaini.net"></path><circle class="stroke_order_diagram--path_start" cx="28" cy="37.39" r="4" transform="matrix(1,0,0,1,196,-4)"></circle><line class="stroke_order_diagram--guide_line" x1="350" x2="350" y1="1" y2="99"></line><line class="stroke_order_diagram--bounding_box" x1="399" x2="399" y1="1" y2="99"></line><path class="stroke_order_diagram--existing_path" d="M30.02,16.83c3.37,2.1,8.2,8.12,9.04,11.38" id="Ske1qaouaw" kvg:type="㇔" transform="matrix(1,0,0,1,296,-4)" xmlns:kvg="http://kanjivg.tagaini.net"></path><path class="stroke_order_diagram--existing_path" d="M72.77,12.89c0.11,0.95,0.14,1.93-0.33,2.74c-2.19,3.74-5.95,9.16-11.88,15.58" id="Ske1qaouax" kvg:type="㇒" transform="matrix(1,0,0,1,296,-4)" xmlns:kvg="http://kanjivg.tagaini.net"></path><path class="stroke_order_diagram--existing_path" d="M28,37.39c2.5,0.49,4.26,0.36,6.26,0.06c8.86-1.33,25.25-3.73,33.98-4.56c2.22-0.21,4.33-0.41,6.51,0.12" id="Ske1qaouay" kvg:type="㇐" transform="matrix(1,0,0,1,296,-4)" xmlns:kvg="http://kanjivg.tagaini.net"></path><path class="stroke_order_diagram--current_path" d="M15.25,52.7c2.97,1.06,6.92,0.69,10.01,0.35c11.8-1.31,39.9-4.57,55.49-5.37c3.27-0.17,6.52-0.32,9.75,0.37" id="kvg:05dfb-s4" kvg:type="㇐" transform="matrix(1,0,0,1,296,-4)" xmlns:kvg="http://kanjivg.tagaini.net"></path><path class="stroke_order_diagram--current_path" d="M15.25,52.7c2.97,1.06,6.92,0.69,10.01,0.35c11.8-1.31,39.9-4.57,55.49-5.37c3.27-0.17,6.52-0.32,9.75,0.37" id="Ske1qaoua10" kvg:type="㇐" transform="matrix(1,0,0,1,296,-4)" xmlns:kvg="http://kanjivg.tagaini.net"></path><circle class="stroke_order_diagram--path_start" cx="15.25" cy="52.7" r="4" transform="matrix(1,0,0,1,296,-4)"></circle><line class="stroke_order_diagram--guide_line" x1="450" x2="450" y1="1" y2="99"></line><line class="stroke_order_diagram--bounding_box" x1="499" x2="499" y1="1" y2="99"></line><path class="stroke_order_diagram--existing_path" d="M30.02,16.83c3.37,2.1,8.2,8.12,9.04,11.38" id="Ske1qaoua13" kvg:type="㇔" transform="matrix(1,0,0,1,396,-4)" xmlns:kvg="http://kanjivg.tagaini.net"></path><path class="stroke_order_diagram--existing_path" d="M72.77,12.89c0.11,0.95,0.14,1.93-0.33,2.74c-2.19,3.74-5.95,9.16-11.88,15.58" id="Ske1qaoua14" kvg:type="㇒" transform="matrix(1,0,0,1,396,-4)" xmlns:kvg="http://kanjivg.tagaini.net"></path><path class="stroke_order_diagram--existing_path" d="M28,37.39c2.5,0.49,4.26,0.36,6.26,0.06c8.86-1.33,25.25-3.73,33.98-4.56c2.22-0.21,4.33-0.41,6.51,0.12" id="Ske1qaoua15" kvg:type="㇐" transform="matrix(1,0,0,1,396,-4)" xmlns:kvg="http://kanjivg.tagaini.net"></path><path class="stroke_order_diagram--existing_path" d="M15.25,52.7c2.97,1.06,6.92,0.69,10.01,0.35c11.8-1.31,39.9-4.57,55.49-5.37c3.27-0.17,6.52-0.32,9.75,0.37" id="Ske1qaoua16" kvg:type="㇐" transform="matrix(1,0,0,1,396,-4)" xmlns:kvg="http://kanjivg.tagaini.net"></path><path class="stroke_order_diagram--current_path" d="M52.5,10.5c0.37,1.25,0.62,2.38,0.29,3.97C50.02,27.7,41.5,63,14.75,76.5" id="kvg:05dfb-s5" kvg:type="㇒" transform="matrix(1,0,0,1,396,-4)" xmlns:kvg="http://kanjivg.tagaini.net"></path><path class="stroke_order_diagram--current_path" d="M52.5,10.5c0.37,1.25,0.62,2.38,0.29,3.97C50.02,27.7,41.5,63,14.75,76.5" id="Ske1qaoua18" kvg:type="㇒" transform="matrix(1,0,0,1,396,-4)" xmlns:kvg="http://kanjivg.tagaini.net"></path><circle class="stroke_order_diagram--path_start" cx="52.5" cy="10.5" r="4" transform="matrix(1,0,0,1,396,-4)"></circle><line class="stroke_order_diagram--guide_line" x1="550" x2="550" y1="1" y2="99"></line><line class="stroke_order_diagram--bounding_box" x1="599" x2="599" y1="1" y2="99"></line><path class="stroke_order_diagram--existing_path" d="M30.02,16.83c3.37,2.1,8.2,8.12,9.04,11.38" id="Ske1qaoua1b" kvg:type="㇔" transform="matrix(1,0,0,1,496,-4)" xmlns:kvg="http://kanjivg.tagaini.net"></path><path class="stroke_order_diagram--existing_path" d="M72.77,12.89c0.11,0.95,0.14,1.93-0.33,2.74c-2.19,3.74-5.95,9.16-11.88,15.58" id="Ske1qaoua1c" kvg:type="㇒" transform="matrix(1,0,0,1,496,-4)" xmlns:kvg="http://kanjivg.tagaini.net"></path><path class="stroke_order_diagram--existing_path" d="M28,37.39c2.5,0.49,4.26,0.36,6.26,0.06c8.86-1.33,25.25-3.73,33.98-4.56c2.22-0.21,4.33-0.41,6.51,0.12" id="Ske1qaoua1d" kvg:type="㇐" transform="matrix(1,0,0,1,496,-4)" xmlns:kvg="http://kanjivg.tagaini.net"></path><path class="stroke_order_diagram--existing_path" d="M15.25,52.7c2.97,1.06,6.92,0.69,10.01,0.35c11.8-1.31,39.9-4.57,55.49-5.37c3.27-0.17,6.52-0.32,9.75,0.37" id="Ske1qaoua1e" kvg:type="㇐" transform="matrix(1,0,0,1,496,-4)" xmlns:kvg="http://kanjivg.tagaini.net"></path><path class="stroke_order_diagram--existing_path" d="M52.5,10.5c0.37,1.25,0.62,2.38,0.29,3.97C50.02,27.7,41.5,63,14.75,76.5" id="Ske1qaoua1f" kvg:type="㇒" transform="matrix(1,0,0,1,496,-4)" xmlns:kvg="http://kanjivg.tagaini.net"></path><path class="stroke_order_diagram--current_path" d="M54.5,35.5c6.6,7.23,21.19,22.22,29.24,30.02c2.77,2.68,5.64,5.74,9.26,7.23" id="kvg:05dfb-s6" kvg:type="㇏" transform="matrix(1,0,0,1,496,-4)" xmlns:kvg="http://kanjivg.tagaini.net"></path><path class="stroke_order_diagram--current_path" d="M54.5,35.5c6.6,7.23,21.19,22.22,29.24,30.02c2.77,2.68,5.64,5.74,9.26,7.23" id="Ske1qaoua1h" kvg:type="㇏" transform="matrix(1,0,0,1,496,-4)" xmlns:kvg="http://kanjivg.tagaini.net"></path><circle class="stroke_order_diagram--path_start" cx="54.5" cy="35.5" r="4" transform="matrix(1,0,0,1,496,-4)"></circle><line class="stroke_order_diagram--guide_line" x1="650" x2="650" y1="1" y2="99"></line><line class="stroke_order_diagram--bounding_box" x1="699" x2="699" y1="1" y2="99"></line><path class="stroke_order_diagram--existing_path" d="M30.02,16.83c3.37,2.1,8.2,8.12,9.04,11.38" id="Ske1qaoua1k" kvg:type="㇔" transform="matrix(1,0,0,1,596,-4)" xmlns:kvg="http://kanjivg.tagaini.net"></path><path class="stroke_order_diagram--existing_path" d="M72.77,12.89c0.11,0.95,0.14,1.93-0.33,2.74c-2.19,3.74-5.95,9.16-11.88,15.58" id="Ske1qaoua1l" kvg:type="㇒" transform="matrix(1,0,0,1,596,-4)" xmlns:kvg="http://kanjivg.tagaini.net"></path><path class="stroke_order_diagram--existing_path" d="M28,37.39c2.5,0.49,4.26,0.36,6.26,0.06c8.86-1.33,25.25-3.73,33.98-4.56c2.22-0.21,4.33-0.41,6.51,0.12" id="Ske1qaoua1m" kvg:type="㇐" transform="matrix(1,0,0,1,596,-4)" xmlns:kvg="http://kanjivg.tagaini.net"></path><path class="stroke_order_diagram--existing_path" d="M15.25,52.7c2.97,1.06,6.92,0.69,10.01,0.35c11.8-1.31,39.9-4.57,55.49-5.37c3.27-0.17,6.52-0.32,9.75,0.37" id="Ske1qaoua1n" kvg:type="㇐" transform="matrix(1,0,0,1,596,-4)" xmlns:kvg="http://kanjivg.tagaini.net"></path><path class="stroke_order_diagram--existing_path" d="M52.5,10.5c0.37,1.25,0.62,2.38,0.29,3.97C50.02,27.7,41.5,63,14.75,76.5" id="Ske1qaoua1o" kvg:type="㇒" transform="matrix(1,0,0,1,596,-4)" xmlns:kvg="http://kanjivg.tagaini.net"></path><path class="stroke_order_diagram--existing_path" d="M54.5,35.5c6.6,7.23,21.19,22.22,29.24,30.02c2.77,2.68,5.64,5.74,9.26,7.23" id="Ske1qaoua1p" kvg:type="㇏" transform="matrix(1,0,0,1,596,-4)" xmlns:kvg="http://kanjivg.tagaini.net"></path><path class="stroke_order_diagram--current_path" d="M38.02,66.55c1.11,0.65,2.82,0.66,4.45,0.43c4.57-0.63,16.41-2.73,20.18-3.34c2.37-0.38,3.46,0.4,2.87,2.87c-0.33,1.39-1.06,5.21-1.82,9.08" id="kvg:05dfb-s7" kvg:type="㇕c" transform="matrix(1,0,0,1,596,-4)" xmlns:kvg="http://kanjivg.tagaini.net"></path><path class="stroke_order_diagram--current_path" d="M38.02,66.55c1.11,0.65,2.82,0.66,4.45,0.43c4.57-0.63,16.41-2.73,20.18-3.34c2.37-0.38,3.46,0.4,2.87,2.87c-0.33,1.39-1.06,5.21-1.82,9.08" id="Ske1qaoua1r" kvg:type="㇕c" transform="matrix(1,0,0,1,596,-4)" xmlns:kvg="http://kanjivg.tagaini.net"></path><circle class="stroke_order_diagram--path_start" cx="38.02" cy="66.55" r="4" transform="matrix(1,0,0,1,596,-4)"></circle><line class="stroke_order_diagram--guide_line" x1="750" x2="750" y1="1" y2="99"></line><line class="stroke_order_diagram--bounding_box" x1="799" x2="799" y1="1" y2="99"></line><path class="stroke_order_diagram--existing_path" d="M30.02,16.83c3.37,2.1,8.2,8.12,9.04,11.38" id="Ske1qaoua1u" kvg:type="㇔" transform="matrix(1,0,0,1,696,-4)" xmlns:kvg="http://kanjivg.tagaini.net"></path><path class="stroke_order_diagram--existing_path" d="M72.77,12.89c0.11,0.95,0.14,1.93-0.33,2.74c-2.19,3.74-5.95,9.16-11.88,15.58" id="Ske1qaoua1v" kvg:type="㇒" transform="matrix(1,0,0,1,696,-4)" xmlns:kvg="http://kanjivg.tagaini.net"></path><path class="stroke_order_diagram--existing_path" d="M28,37.39c2.5,0.49,4.26,0.36,6.26,0.06c8.86-1.33,25.25-3.73,33.98-4.56c2.22-0.21,4.33-0.41,6.51,0.12" id="Ske1qaoua1w" kvg:type="㇐" transform="matrix(1,0,0,1,696,-4)" xmlns:kvg="http://kanjivg.tagaini.net"></path><path class="stroke_order_diagram--existing_path" d="M15.25,52.7c2.97,1.06,6.92,0.69,10.01,0.35c11.8-1.31,39.9-4.57,55.49-5.37c3.27-0.17,6.52-0.32,9.75,0.37" id="Ske1qaoua1x" kvg:type="㇐" transform="matrix(1,0,0,1,696,-4)" xmlns:kvg="http://kanjivg.tagaini.net"></path><path class="stroke_order_diagram--existing_path" d="M52.5,10.5c0.37,1.25,0.62,2.38,0.29,3.97C50.02,27.7,41.5,63,14.75,76.5" id="Ske1qaoua1y" kvg:type="㇒" transform="matrix(1,0,0,1,696,-4)" xmlns:kvg="http://kanjivg.tagaini.net"></path><path class="stroke_order_diagram--existing_path" d="M54.5,35.5c6.6,7.23,21.19,22.22,29.24,30.02c2.77,2.68,5.64,5.74,9.26,7.23" id="Ske1qaoua1z" kvg:type="㇏" transform="matrix(1,0,0,1,696,-4)" xmlns:kvg="http://kanjivg.tagaini.net"></path><path class="stroke_order_diagram--existing_path" d="M38.02,66.55c1.11,0.65,2.82,0.66,4.45,0.43c4.57-0.63,16.41-2.73,20.18-3.34c2.37-0.38,3.46,0.4,2.87,2.87c-0.33,1.39-1.06,5.21-1.82,9.08" id="Ske1qaoua20" kvg:type="㇕c" transform="matrix(1,0,0,1,696,-4)" xmlns:kvg="http://kanjivg.tagaini.net"></path><path class="stroke_order_diagram--current_path" d="M35.78,78.59c0.84,0.53,2.03,0.83,3.45,0.7c5.94-0.58,15.58-1.74,22.76-2.43c1.23-0.12,2.26-0.24,3.4-0.06" id="kvg:05dfb-s8" kvg:type="㇐" transform="matrix(1,0,0,1,696,-4)" xmlns:kvg="http://kanjivg.tagaini.net"></path><path class="stroke_order_diagram--current_path" d="M35.78,78.59c0.84,0.53,2.03,0.83,3.45,0.7c5.94-0.58,15.58-1.74,22.76-2.43c1.23-0.12,2.26-0.24,3.4-0.06" id="Ske1qaoua22" kvg:type="㇐" transform="matrix(1,0,0,1,696,-4)" xmlns:kvg="http://kanjivg.tagaini.net"></path><circle class="stroke_order_diagram--path_start" cx="35.78" cy="78.59" r="4" transform="matrix(1,0,0,1,696,-4)"></circle><line class="stroke_order_diagram--guide_line" x1="850" x2="850" y1="1" y2="99"></line><line class="stroke_order_diagram--bounding_box" x1="899" x2="899" y1="1" y2="99"></line><path class="stroke_order_diagram--existing_path" d="M30.02,16.83c3.37,2.1,8.2,8.12,9.04,11.38" id="Ske1qaoua25" kvg:type="㇔" transform="matrix(1,0,0,1,796,-4)" xmlns:kvg="http://kanjivg.tagaini.net"></path><path class="stroke_order_diagram--existing_path" d="M72.77,12.89c0.11,0.95,0.14,1.93-0.33,2.74c-2.19,3.74-5.95,9.16-11.88,15.58" id="Ske1qaoua26" kvg:type="㇒" transform="matrix(1,0,0,1,796,-4)" xmlns:kvg="http://kanjivg.tagaini.net"></path><path class="stroke_order_diagram--existing_path" d="M28,37.39c2.5,0.49,4.26,0.36,6.26,0.06c8.86-1.33,25.25-3.73,33.98-4.56c2.22-0.21,4.33-0.41,6.51,0.12" id="Ske1qaoua27" kvg:type="㇐" transform="matrix(1,0,0,1,796,-4)" xmlns:kvg="http://kanjivg.tagaini.net"></path><path class="stroke_order_diagram--existing_path" d="M15.25,52.7c2.97,1.06,6.92,0.69,10.01,0.35c11.8-1.31,39.9-4.57,55.49-5.37c3.27-0.17,6.52-0.32,9.75,0.37" id="Ske1qaoua28" kvg:type="㇐" transform="matrix(1,0,0,1,796,-4)" xmlns:kvg="http://kanjivg.tagaini.net"></path><path class="stroke_order_diagram--existing_path" d="M52.5,10.5c0.37,1.25,0.62,2.38,0.29,3.97C50.02,27.7,41.5,63,14.75,76.5" id="Ske1qaoua29" kvg:type="㇒" transform="matrix(1,0,0,1,796,-4)" xmlns:kvg="http://kanjivg.tagaini.net"></path><path class="stroke_order_diagram--existing_path" d="M54.5,35.5c6.6,7.23,21.19,22.22,29.24,30.02c2.77,2.68,5.64,5.74,9.26,7.23" id="Ske1qaoua2a" kvg:type="㇏" transform="matrix(1,0,0,1,796,-4)" xmlns:kvg="http://kanjivg.tagaini.net"></path><path class="stroke_order_diagram--existing_path" d="M38.02,66.55c1.11,0.65,2.82,0.66,4.45,0.43c4.57-0.63,16.41-2.73,20.18-3.34c2.37-0.38,3.46,0.4,2.87,2.87c-0.33,1.39-1.06,5.21-1.82,9.08" id="Ske1qaoua2b" kvg:type="㇕c" transform="matrix(1,0,0,1,796,-4)" xmlns:kvg="http://kanjivg.tagaini.net"></path><path class="stroke_order_diagram--existing_path" d="M35.78,78.59c0.84,0.53,2.03,0.83,3.45,0.7c5.94-0.58,15.58-1.74,22.76-2.43c1.23-0.12,2.26-0.24,3.4-0.06" id="Ske1qaoua2c" kvg:type="㇐" transform="matrix(1,0,0,1,796,-4)" xmlns:kvg="http://kanjivg.tagaini.net"></path><path class="stroke_order_diagram--current_path" d="M37.12,79.53c0.74,0.74,1.06,1.82,1.05,2.93c-0.02,3.24,0.03,4.7,0.03,7.64c0,7.15,0.67,8.42,17.52,8.42c16.28,0,17.95-1.52,17.95-8.72" id="kvg:05dfb-s9" kvg:type="㇟" transform="matrix(1,0,0,1,796,-4)" xmlns:kvg="http://kanjivg.tagaini.net"></path><path class="stroke_order_diagram--current_path" d="M37.12,79.53c0.74,0.74,1.06,1.82,1.05,2.93c-0.02,3.24,0.03,4.7,0.03,7.64c0,7.15,0.67,8.42,17.52,8.42c16.28,0,17.95-1.52,17.95-8.72" id="Ske1qaoua2e" kvg:type="㇟" transform="matrix(1,0,0,1,796,-4)" xmlns:kvg="http://kanjivg.tagaini.net"></path><circle class="stroke_order_diagram--path_start" cx="37.12" cy="79.53" r="4" transform="matrix(1,0,0,1,796,-4)"></circle></svg>