<svg class="stroke_order_diagram--svg_container_for_51866277d5dda7965800018b" style="height: 100px; width: 300px;" viewbox="0 0 300 100"><desc>Created with Snap</desc><defs></defs><line class="stroke_order_diagram--bounding_box" x1="1" x2="299" y1="1" y2="1"></line><line class="stroke_order_diagram--bounding_box" x1="1" x2="1" y1="1" y2="99"></line><line class="stroke_order_diagram--bounding_box" x1="1" x2="299" y1="99" y2="99"></line><line class="stroke_order_diagram--guide_line" x1="0" x2="300" y1="50" y2="50"></line><line class="stroke_order_diagram--guide_line" x1="50" x2="50" y1="1" y2="99"></line><line class="stroke_order_diagram--bounding_box" x1="99" x2="99" y1="1" y2="99"></line><path class="stroke_order_diagram--current_path" d="M28.63,21.62c2.62,0.63,5.47,0.36,7.75,0.15c9.37-0.89,26.14-2.9,36.63-3.81c2.7-0.23,5.47-0.34,8.12,0.38" id="kvg:05e72-s1" kvg:type="㇐" transform="matrix(1,0,0,1,-4,-4)" xmlns:kvg="http://kanjivg.tagaini.net"></path><path class="stroke_order_diagram--current_path" d="M28.63,21.62c2.62,0.63,5.47,0.36,7.75,0.15c9.37-0.89,26.14-2.9,36.63-3.81c2.7-0.23,5.47-0.34,8.12,0.38" id="Ske1qcp1bc" kvg:type="㇐" transform="matrix(1,0,0,1,-4,-4)" xmlns:kvg="http://kanjivg.tagaini.net"></path><circle class="stroke_order_diagram--path_start" cx="28.63" cy="21.62" r="4" transform="matrix(1,0,0,1,-4,-4)"></circle><line class="stroke_order_diagram--guide_line" x1="150" x2="150" y1="1" y2="99"></line><line class="stroke_order_diagram--bounding_box" x1="199" x2="199" y1="1" y2="99"></line><path class="stroke_order_diagram--existing_path" d="M28.63,21.62c2.62,0.63,5.47,0.36,7.75,0.15c9.37-0.89,26.14-2.9,36.63-3.81c2.7-0.23,5.47-0.34,8.12,0.38" id="Ske1qcp1bf" kvg:type="㇐" transform="matrix(1,0,0,1,96,-4)" xmlns:kvg="http://kanjivg.tagaini.net"></path><path class="stroke_order_diagram--current_path" d="M16.88,49.03c3.37,0.72,7.13,0.53,10.62,0.11c15.17-1.86,39.74-4.77,56.13-5.91c3.1-0.22,6.18-0.26,9.25,0.3" id="kvg:05e72-s2" kvg:type="㇐" transform="matrix(1,0,0,1,96,-4)" xmlns:kvg="http://kanjivg.tagaini.net"></path><path class="stroke_order_diagram--current_path" d="M16.88,49.03c3.37,0.72,7.13,0.53,10.62,0.11c15.17-1.86,39.74-4.77,56.13-5.91c3.1-0.22,6.18-0.26,9.25,0.3" id="Ske1qcp1bh" kvg:type="㇐" transform="matrix(1,0,0,1,96,-4)" xmlns:kvg="http://kanjivg.tagaini.net"></path><circle class="stroke_order_diagram--path_start" cx="16.88" cy="49.03" r="4" transform="matrix(1,0,0,1,96,-4)"></circle><line class="stroke_order_diagram--guide_line" x1="250" x2="250" y1="1" y2="99"></line><line class="stroke_order_diagram--bounding_box" x1="299" x2="299" y1="1" y2="99"></line><path class="stroke_order_diagram--existing_path" d="M28.63,21.62c2.62,0.63,5.47,0.36,7.75,0.15c9.37-0.89,26.14-2.9,36.63-3.81c2.7-0.23,5.47-0.34,8.12,0.38" id="Ske1qcp1bk" kvg:type="㇐" transform="matrix(1,0,0,1,196,-4)" xmlns:kvg="http://kanjivg.tagaini.net"></path><path class="stroke_order_diagram--existing_path" d="M16.88,49.03c3.37,0.72,7.13,0.53,10.62,0.11c15.17-1.86,39.74-4.77,56.13-5.91c3.1-0.22,6.18-0.26,9.25,0.3" id="Ske1qcp1bl" kvg:type="㇐" transform="matrix(1,0,0,1,196,-4)" xmlns:kvg="http://kanjivg.tagaini.net"></path><path class="stroke_order_diagram--current_path" d="M52.81,21.63c1.22,1.22,1.79,2.99,1.79,4.83c0,0.85-0.02,43.7-0.12,61.54c-0.02,3.65-0.04,6.3-0.06,7.38" id="kvg:05e72-s3" kvg:type="㇑" transform="matrix(1,0,0,1,196,-4)" xmlns:kvg="http://kanjivg.tagaini.net"></path><path class="stroke_order_diagram--current_path" d="M52.81,21.63c1.22,1.22,1.79,2.99,1.79,4.83c0,0.85-0.02,43.7-0.12,61.54c-0.02,3.65-0.04,6.3-0.06,7.38" id="Ske1qcp1bn" kvg:type="㇑" transform="matrix(1,0,0,1,196,-4)" xmlns:kvg="http://kanjivg.tagaini.net"></path><circle class="stroke_order_diagram--path_start" cx="52.81" cy="21.63" r="4" transform="matrix(1,0,0,1,196,-4)"></circle></svg>