<svg class="stroke_order_diagram--svg_container_for_51866285d5dda79658000536" style="height: 100px; width: 700px;" viewbox="0 0 700 100"><desc>Created with Snap</desc><defs></defs><line class="stroke_order_diagram--bounding_box" x1="1" x2="699" y1="1" y2="1"></line><line class="stroke_order_diagram--bounding_box" x1="1" x2="1" y1="1" y2="99"></line><line class="stroke_order_diagram--bounding_box" x1="1" x2="699" y1="99" y2="99"></line><line class="stroke_order_diagram--guide_line" x1="0" x2="700" y1="50" y2="50"></line><line class="stroke_order_diagram--guide_line" x1="50" x2="50" y1="1" y2="99"></line><line class="stroke_order_diagram--bounding_box" x1="99" x2="99" y1="1" y2="99"></line><path class="stroke_order_diagram--current_path" d="M51.31,11.13c1.09,1.09,1.51,2.74,1.51,4.65c0,0.79-0.07,4.34-0.07,7.46" id="kvg:05e8a-s1" kvg:type="㇑a" transform="matrix(1,0,0,1,-4,-4)" xmlns:kvg="http://kanjivg.tagaini.net"></path><path class="stroke_order_diagram--current_path" d="M51.31,11.13c1.09,1.09,1.51,2.74,1.51,4.65c0,0.79-0.07,4.34-0.07,7.46" id="Ske1y0kcgg" kvg:type="㇑a" transform="matrix(1,0,0,1,-4,-4)" xmlns:kvg="http://kanjivg.tagaini.net"></path><circle class="stroke_order_diagram--path_start" cx="51.31" cy="11.13" r="4" transform="matrix(1,0,0,1,-4,-4)"></circle><line class="stroke_order_diagram--guide_line" x1="150" x2="150" y1="1" y2="99"></line><line class="stroke_order_diagram--bounding_box" x1="199" x2="199" y1="1" y2="99"></line><path class="stroke_order_diagram--existing_path" d="M51.31,11.13c1.09,1.09,1.51,2.74,1.51,4.65c0,0.79-0.07,4.34-0.07,7.46" id="Ske1y0kcgj" kvg:type="㇑a" transform="matrix(1,0,0,1,96,-4)" xmlns:kvg="http://kanjivg.tagaini.net"></path><path class="stroke_order_diagram--current_path" d="M19.38,26.98c3.08,1.1,6.85,0.63,10,0.23c15.63-1.96,31-4.08,46.13-5.27c3-0.23,5.92-0.26,8.87,0.38" id="kvg:05e8a-s2" kvg:type="㇐" transform="matrix(1,0,0,1,96,-4)" xmlns:kvg="http://kanjivg.tagaini.net"></path><path class="stroke_order_diagram--current_path" d="M19.38,26.98c3.08,1.1,6.85,0.63,10,0.23c15.63-1.96,31-4.08,46.13-5.27c3-0.23,5.92-0.26,8.87,0.38" id="Ske1y0kcgl" kvg:type="㇐" transform="matrix(1,0,0,1,96,-4)" xmlns:kvg="http://kanjivg.tagaini.net"></path><circle class="stroke_order_diagram--path_start" cx="19.38" cy="26.98" r="4" transform="matrix(1,0,0,1,96,-4)"></circle><line class="stroke_order_diagram--guide_line" x1="250" x2="250" y1="1" y2="99"></line><line class="stroke_order_diagram--bounding_box" x1="299" x2="299" y1="1" y2="99"></line><path class="stroke_order_diagram--existing_path" d="M51.31,11.13c1.09,1.09,1.51,2.74,1.51,4.65c0,0.79-0.07,4.34-0.07,7.46" id="Ske1y0kcgo" kvg:type="㇑a" transform="matrix(1,0,0,1,196,-4)" xmlns:kvg="http://kanjivg.tagaini.net"></path><path class="stroke_order_diagram--existing_path" d="M19.38,26.98c3.08,1.1,6.85,0.63,10,0.23c15.63-1.96,31-4.08,46.13-5.27c3-0.23,5.92-0.26,8.87,0.38" id="Ske1y0kcgp" kvg:type="㇐" transform="matrix(1,0,0,1,196,-4)" xmlns:kvg="http://kanjivg.tagaini.net"></path><path class="stroke_order_diagram--current_path" d="M22.75,28.25c0.88,0.88,0.99,2.25,0.92,4.2C23,49.88,21,71.5,9.56,86.22" id="kvg:05e8a-s3" kvg:type="㇒" transform="matrix(1,0,0,1,196,-4)" xmlns:kvg="http://kanjivg.tagaini.net"></path><path class="stroke_order_diagram--current_path" d="M22.75,28.25c0.88,0.88,0.99,2.25,0.92,4.2C23,49.88,21,71.5,9.56,86.22" id="Ske1y0kcgr" kvg:type="㇒" transform="matrix(1,0,0,1,196,-4)" xmlns:kvg="http://kanjivg.tagaini.net"></path><circle class="stroke_order_diagram--path_start" cx="22.75" cy="28.25" r="4" transform="matrix(1,0,0,1,196,-4)"></circle><line class="stroke_order_diagram--guide_line" x1="350" x2="350" y1="1" y2="99"></line><line class="stroke_order_diagram--bounding_box" x1="399" x2="399" y1="1" y2="99"></line><path class="stroke_order_diagram--existing_path" d="M51.31,11.13c1.09,1.09,1.51,2.74,1.51,4.65c0,0.79-0.07,4.34-0.07,7.46" id="Ske1y0kcgu" kvg:type="㇑a" transform="matrix(1,0,0,1,296,-4)" xmlns:kvg="http://kanjivg.tagaini.net"></path><path class="stroke_order_diagram--existing_path" d="M19.38,26.98c3.08,1.1,6.85,0.63,10,0.23c15.63-1.96,31-4.08,46.13-5.27c3-0.23,5.92-0.26,8.87,0.38" id="Ske1y0kcgv" kvg:type="㇐" transform="matrix(1,0,0,1,296,-4)" xmlns:kvg="http://kanjivg.tagaini.net"></path><path class="stroke_order_diagram--existing_path" d="M22.75,28.25c0.88,0.88,0.99,2.25,0.92,4.2C23,49.88,21,71.5,9.56,86.22" id="Ske1y0kcgw" kvg:type="㇒" transform="matrix(1,0,0,1,296,-4)" xmlns:kvg="http://kanjivg.tagaini.net"></path><path class="stroke_order_diagram--current_path" d="M31.5,49.98c2.72,0.89,5.51,0.38,8.27,0.04c8.78-1.06,23.71-3.33,34.58-4.34c2.64-0.24,5.04-0.4,7.65,0.13" id="kvg:05e8a-s4" kvg:type="㇐" transform="matrix(1,0,0,1,296,-4)" xmlns:kvg="http://kanjivg.tagaini.net"></path><path class="stroke_order_diagram--current_path" d="M31.5,49.98c2.72,0.89,5.51,0.38,8.27,0.04c8.78-1.06,23.71-3.33,34.58-4.34c2.64-0.24,5.04-0.4,7.65,0.13" id="Ske1y0kcgy" kvg:type="㇐" transform="matrix(1,0,0,1,296,-4)" xmlns:kvg="http://kanjivg.tagaini.net"></path><circle class="stroke_order_diagram--path_start" cx="31.5" cy="49.98" r="4" transform="matrix(1,0,0,1,296,-4)"></circle><line class="stroke_order_diagram--guide_line" x1="450" x2="450" y1="1" y2="99"></line><line class="stroke_order_diagram--bounding_box" x1="499" x2="499" y1="1" y2="99"></line><path class="stroke_order_diagram--existing_path" d="M51.31,11.13c1.09,1.09,1.51,2.74,1.51,4.65c0,0.79-0.07,4.34-0.07,7.46" id="Ske1y0kcg11" kvg:type="㇑a" transform="matrix(1,0,0,1,396,-4)" xmlns:kvg="http://kanjivg.tagaini.net"></path><path class="stroke_order_diagram--existing_path" d="M19.38,26.98c3.08,1.1,6.85,0.63,10,0.23c15.63-1.96,31-4.08,46.13-5.27c3-0.23,5.92-0.26,8.87,0.38" id="Ske1y0kcg12" kvg:type="㇐" transform="matrix(1,0,0,1,396,-4)" xmlns:kvg="http://kanjivg.tagaini.net"></path><path class="stroke_order_diagram--existing_path" d="M22.75,28.25c0.88,0.88,0.99,2.25,0.92,4.2C23,49.88,21,71.5,9.56,86.22" id="Ske1y0kcg13" kvg:type="㇒" transform="matrix(1,0,0,1,396,-4)" xmlns:kvg="http://kanjivg.tagaini.net"></path><path class="stroke_order_diagram--existing_path" d="M31.5,49.98c2.72,0.89,5.51,0.38,8.27,0.04c8.78-1.06,23.71-3.33,34.58-4.34c2.64-0.24,5.04-0.4,7.65,0.13" id="Ske1y0kcg14" kvg:type="㇐" transform="matrix(1,0,0,1,396,-4)" xmlns:kvg="http://kanjivg.tagaini.net"></path><path class="stroke_order_diagram--current_path" d="M54.25,32.75c1.25,1.25,1.5,2.75,1.5,4.5c0,8.38,0.12,36.25,0.12,51.5c0,3.71-0.07,6.49-0.12,7.75" id="kvg:05e8a-s5" kvg:type="㇑" transform="matrix(1,0,0,1,396,-4)" xmlns:kvg="http://kanjivg.tagaini.net"></path><path class="stroke_order_diagram--current_path" d="M54.25,32.75c1.25,1.25,1.5,2.75,1.5,4.5c0,8.38,0.12,36.25,0.12,51.5c0,3.71-0.07,6.49-0.12,7.75" id="Ske1y0kcg16" kvg:type="㇑" transform="matrix(1,0,0,1,396,-4)" xmlns:kvg="http://kanjivg.tagaini.net"></path><circle class="stroke_order_diagram--path_start" cx="54.25" cy="32.75" r="4" transform="matrix(1,0,0,1,396,-4)"></circle><line class="stroke_order_diagram--guide_line" x1="550" x2="550" y1="1" y2="99"></line><line class="stroke_order_diagram--bounding_box" x1="599" x2="599" y1="1" y2="99"></line><path class="stroke_order_diagram--existing_path" d="M51.31,11.13c1.09,1.09,1.51,2.74,1.51,4.65c0,0.79-0.07,4.34-0.07,7.46" id="Ske1y0kcg19" kvg:type="㇑a" transform="matrix(1,0,0,1,496,-4)" xmlns:kvg="http://kanjivg.tagaini.net"></path><path class="stroke_order_diagram--existing_path" d="M19.38,26.98c3.08,1.1,6.85,0.63,10,0.23c15.63-1.96,31-4.08,46.13-5.27c3-0.23,5.92-0.26,8.87,0.38" id="Ske1y0kcg1a" kvg:type="㇐" transform="matrix(1,0,0,1,496,-4)" xmlns:kvg="http://kanjivg.tagaini.net"></path><path class="stroke_order_diagram--existing_path" d="M22.75,28.25c0.88,0.88,0.99,2.25,0.92,4.2C23,49.88,21,71.5,9.56,86.22" id="Ske1y0kcg1b" kvg:type="㇒" transform="matrix(1,0,0,1,496,-4)" xmlns:kvg="http://kanjivg.tagaini.net"></path><path class="stroke_order_diagram--existing_path" d="M31.5,49.98c2.72,0.89,5.51,0.38,8.27,0.04c8.78-1.06,23.71-3.33,34.58-4.34c2.64-0.24,5.04-0.4,7.65,0.13" id="Ske1y0kcg1c" kvg:type="㇐" transform="matrix(1,0,0,1,496,-4)" xmlns:kvg="http://kanjivg.tagaini.net"></path><path class="stroke_order_diagram--existing_path" d="M54.25,32.75c1.25,1.25,1.5,2.75,1.5,4.5c0,8.38,0.12,36.25,0.12,51.5c0,3.71-0.07,6.49-0.12,7.75" id="Ske1y0kcg1d" kvg:type="㇑" transform="matrix(1,0,0,1,496,-4)" xmlns:kvg="http://kanjivg.tagaini.net"></path><path class="stroke_order_diagram--current_path" d="M54.5,50.25c0,1.25-0.23,2.44-1.65,4.22C44.5,65,33.25,76.5,20.5,85.25" id="kvg:05e8a-s6" kvg:type="㇒" transform="matrix(1,0,0,1,496,-4)" xmlns:kvg="http://kanjivg.tagaini.net"></path><path class="stroke_order_diagram--current_path" d="M54.5,50.25c0,1.25-0.23,2.44-1.65,4.22C44.5,65,33.25,76.5,20.5,85.25" id="Ske1y0kcg1f" kvg:type="㇒" transform="matrix(1,0,0,1,496,-4)" xmlns:kvg="http://kanjivg.tagaini.net"></path><circle class="stroke_order_diagram--path_start" cx="54.5" cy="50.25" r="4" transform="matrix(1,0,0,1,496,-4)"></circle><line class="stroke_order_diagram--guide_line" x1="650" x2="650" y1="1" y2="99"></line><line class="stroke_order_diagram--bounding_box" x1="699" x2="699" y1="1" y2="99"></line><path class="stroke_order_diagram--existing_path" d="M51.31,11.13c1.09,1.09,1.51,2.74,1.51,4.65c0,0.79-0.07,4.34-0.07,7.46" id="Ske1y0kcg1i" kvg:type="㇑a" transform="matrix(1,0,0,1,596,-4)" xmlns:kvg="http://kanjivg.tagaini.net"></path><path class="stroke_order_diagram--existing_path" d="M19.38,26.98c3.08,1.1,6.85,0.63,10,0.23c15.63-1.96,31-4.08,46.13-5.27c3-0.23,5.92-0.26,8.87,0.38" id="Ske1y0kcg1j" kvg:type="㇐" transform="matrix(1,0,0,1,596,-4)" xmlns:kvg="http://kanjivg.tagaini.net"></path><path class="stroke_order_diagram--existing_path" d="M22.75,28.25c0.88,0.88,0.99,2.25,0.92,4.2C23,49.88,21,71.5,9.56,86.22" id="Ske1y0kcg1k" kvg:type="㇒" transform="matrix(1,0,0,1,596,-4)" xmlns:kvg="http://kanjivg.tagaini.net"></path><path class="stroke_order_diagram--existing_path" d="M31.5,49.98c2.72,0.89,5.51,0.38,8.27,0.04c8.78-1.06,23.71-3.33,34.58-4.34c2.64-0.24,5.04-0.4,7.65,0.13" id="Ske1y0kcg1l" kvg:type="㇐" transform="matrix(1,0,0,1,596,-4)" xmlns:kvg="http://kanjivg.tagaini.net"></path><path class="stroke_order_diagram--existing_path" d="M54.25,32.75c1.25,1.25,1.5,2.75,1.5,4.5c0,8.38,0.12,36.25,0.12,51.5c0,3.71-0.07,6.49-0.12,7.75" id="Ske1y0kcg1m" kvg:type="㇑" transform="matrix(1,0,0,1,596,-4)" xmlns:kvg="http://kanjivg.tagaini.net"></path><path class="stroke_order_diagram--existing_path" d="M54.5,50.25c0,1.25-0.23,2.44-1.65,4.22C44.5,65,33.25,76.5,20.5,85.25" id="Ske1y0kcg1n" kvg:type="㇒" transform="matrix(1,0,0,1,596,-4)" xmlns:kvg="http://kanjivg.tagaini.net"></path><path class="stroke_order_diagram--current_path" d="M56.5,49.5c3.91,3.34,19.93,17.42,28.67,24.98c2.84,2.46,5.95,4.43,9.33,6.02" id="kvg:05e8a-s7" kvg:type="㇏" transform="matrix(1,0,0,1,596,-4)" xmlns:kvg="http://kanjivg.tagaini.net"></path><path class="stroke_order_diagram--current_path" d="M56.5,49.5c3.91,3.34,19.93,17.42,28.67,24.98c2.84,2.46,5.95,4.43,9.33,6.02" id="Ske1y0kcg1p" kvg:type="㇏" transform="matrix(1,0,0,1,596,-4)" xmlns:kvg="http://kanjivg.tagaini.net"></path><circle class="stroke_order_diagram--path_start" cx="56.5" cy="49.5" r="4" transform="matrix(1,0,0,1,596,-4)"></circle></svg>