<svg class="stroke_order_diagram--svg_container_for_51866285d5dda79658000514" style="height: 100px; width: 1100px;" viewbox="0 0 1100 100"><desc>Created with Snap</desc><defs></defs><line class="stroke_order_diagram--bounding_box" x1="1" x2="1099" y1="1" y2="1"></line><line class="stroke_order_diagram--bounding_box" x1="1" x2="1" y1="1" y2="99"></line><line class="stroke_order_diagram--bounding_box" x1="1" x2="1099" y1="99" y2="99"></line><line class="stroke_order_diagram--guide_line" x1="0" x2="1100" y1="50" y2="50"></line><line class="stroke_order_diagram--guide_line" x1="50" x2="50" y1="1" y2="99"></line><line class="stroke_order_diagram--bounding_box" x1="99" x2="99" y1="1" y2="99"></line><path class="stroke_order_diagram--current_path" d="M56.06,12.88c1.03,1.03,1.26,2.37,1.26,4.15c0,0.79,0.08,3.4-0.07,8.21" id="kvg:05eb6-s1" kvg:type="㇑a" transform="matrix(1,0,0,1,-4,-4)" xmlns:kvg="http://kanjivg.tagaini.net"></path><path class="stroke_order_diagram--current_path" d="M56.06,12.88c1.03,1.03,1.26,2.37,1.26,4.15c0,0.79,0.08,3.4-0.07,8.21" id="Ske1xqhobk" kvg:type="㇑a" transform="matrix(1,0,0,1,-4,-4)" xmlns:kvg="http://kanjivg.tagaini.net"></path><circle class="stroke_order_diagram--path_start" cx="56.06" cy="12.88" r="4" transform="matrix(1,0,0,1,-4,-4)"></circle><line class="stroke_order_diagram--guide_line" x1="150" x2="150" y1="1" y2="99"></line><line class="stroke_order_diagram--bounding_box" x1="199" x2="199" y1="1" y2="99"></line><path class="stroke_order_diagram--existing_path" d="M56.06,12.88c1.03,1.03,1.26,2.37,1.26,4.15c0,0.79,0.08,3.4-0.07,8.21" id="Ske1xqhobn" kvg:type="㇑a" transform="matrix(1,0,0,1,96,-4)" xmlns:kvg="http://kanjivg.tagaini.net"></path><path class="stroke_order_diagram--current_path" d="M23.13,28.23c2.67,0.95,5.99,0.64,8.76,0.36c14.86-1.5,31.74-2.96,50.49-4.17c2.88-0.19,5.68-0.2,8.5,0.41" id="kvg:05eb6-s2" kvg:type="㇐" transform="matrix(1,0,0,1,96,-4)" xmlns:kvg="http://kanjivg.tagaini.net"></path><path class="stroke_order_diagram--current_path" d="M23.13,28.23c2.67,0.95,5.99,0.64,8.76,0.36c14.86-1.5,31.74-2.96,50.49-4.17c2.88-0.19,5.68-0.2,8.5,0.41" id="Ske1xqhobp" kvg:type="㇐" transform="matrix(1,0,0,1,96,-4)" xmlns:kvg="http://kanjivg.tagaini.net"></path><circle class="stroke_order_diagram--path_start" cx="23.13" cy="28.23" r="4" transform="matrix(1,0,0,1,96,-4)"></circle><line class="stroke_order_diagram--guide_line" x1="250" x2="250" y1="1" y2="99"></line><line class="stroke_order_diagram--bounding_box" x1="299" x2="299" y1="1" y2="99"></line><path class="stroke_order_diagram--existing_path" d="M56.06,12.88c1.03,1.03,1.26,2.37,1.26,4.15c0,0.79,0.08,3.4-0.07,8.21" id="Ske1xqhobs" kvg:type="㇑a" transform="matrix(1,0,0,1,196,-4)" xmlns:kvg="http://kanjivg.tagaini.net"></path><path class="stroke_order_diagram--existing_path" d="M23.13,28.23c2.67,0.95,5.99,0.64,8.76,0.36c14.86-1.5,31.74-2.96,50.49-4.17c2.88-0.19,5.68-0.2,8.5,0.41" id="Ske1xqhobt" kvg:type="㇐" transform="matrix(1,0,0,1,196,-4)" xmlns:kvg="http://kanjivg.tagaini.net"></path><path class="stroke_order_diagram--current_path" d="M25.74,29.5c1.13,1.13,1.18,2.6,1.16,4.62c-0.15,15.13-2.65,38.76-16.09,54.85" id="kvg:05eb6-s3" kvg:type="㇒" transform="matrix(1,0,0,1,196,-4)" xmlns:kvg="http://kanjivg.tagaini.net"></path><path class="stroke_order_diagram--current_path" d="M25.74,29.5c1.13,1.13,1.18,2.6,1.16,4.62c-0.15,15.13-2.65,38.76-16.09,54.85" id="Ske1xqhobv" kvg:type="㇒" transform="matrix(1,0,0,1,196,-4)" xmlns:kvg="http://kanjivg.tagaini.net"></path><circle class="stroke_order_diagram--path_start" cx="25.74" cy="29.5" r="4" transform="matrix(1,0,0,1,196,-4)"></circle><line class="stroke_order_diagram--guide_line" x1="350" x2="350" y1="1" y2="99"></line><line class="stroke_order_diagram--bounding_box" x1="399" x2="399" y1="1" y2="99"></line><path class="stroke_order_diagram--existing_path" d="M56.06,12.88c1.03,1.03,1.26,2.37,1.26,4.15c0,0.79,0.08,3.4-0.07,8.21" id="Ske1xqhoby" kvg:type="㇑a" transform="matrix(1,0,0,1,296,-4)" xmlns:kvg="http://kanjivg.tagaini.net"></path><path class="stroke_order_diagram--existing_path" d="M23.13,28.23c2.67,0.95,5.99,0.64,8.76,0.36c14.86-1.5,31.74-2.96,50.49-4.17c2.88-0.19,5.68-0.2,8.5,0.41" id="Ske1xqhobz" kvg:type="㇐" transform="matrix(1,0,0,1,296,-4)" xmlns:kvg="http://kanjivg.tagaini.net"></path><path class="stroke_order_diagram--existing_path" d="M25.74,29.5c1.13,1.13,1.18,2.6,1.16,4.62c-0.15,15.13-2.65,38.76-16.09,54.85" id="Ske1xqhob10" kvg:type="㇒" transform="matrix(1,0,0,1,296,-4)" xmlns:kvg="http://kanjivg.tagaini.net"></path><path class="stroke_order_diagram--current_path" d="M33.5,49.7c2.88,0.68,5.59,0.52,7.89,0.25c12.18-1.45,30.36-3.63,41.98-4.5c2.45-0.18,4.73-0.3,7.13,0.34" id="kvg:05eb6-s4" kvg:type="㇐" transform="matrix(1,0,0,1,296,-4)" xmlns:kvg="http://kanjivg.tagaini.net"></path><path class="stroke_order_diagram--current_path" d="M33.5,49.7c2.88,0.68,5.59,0.52,7.89,0.25c12.18-1.45,30.36-3.63,41.98-4.5c2.45-0.18,4.73-0.3,7.13,0.34" id="Ske1xqhob12" kvg:type="㇐" transform="matrix(1,0,0,1,296,-4)" xmlns:kvg="http://kanjivg.tagaini.net"></path><circle class="stroke_order_diagram--path_start" cx="33.5" cy="49.7" r="4" transform="matrix(1,0,0,1,296,-4)"></circle><line class="stroke_order_diagram--guide_line" x1="450" x2="450" y1="1" y2="99"></line><line class="stroke_order_diagram--bounding_box" x1="499" x2="499" y1="1" y2="99"></line><path class="stroke_order_diagram--existing_path" d="M56.06,12.88c1.03,1.03,1.26,2.37,1.26,4.15c0,0.79,0.08,3.4-0.07,8.21" id="Ske1xqhob15" kvg:type="㇑a" transform="matrix(1,0,0,1,396,-4)" xmlns:kvg="http://kanjivg.tagaini.net"></path><path class="stroke_order_diagram--existing_path" d="M23.13,28.23c2.67,0.95,5.99,0.64,8.76,0.36c14.86-1.5,31.74-2.96,50.49-4.17c2.88-0.19,5.68-0.2,8.5,0.41" id="Ske1xqhob16" kvg:type="㇐" transform="matrix(1,0,0,1,396,-4)" xmlns:kvg="http://kanjivg.tagaini.net"></path><path class="stroke_order_diagram--existing_path" d="M25.74,29.5c1.13,1.13,1.18,2.6,1.16,4.62c-0.15,15.13-2.65,38.76-16.09,54.85" id="Ske1xqhob17" kvg:type="㇒" transform="matrix(1,0,0,1,396,-4)" xmlns:kvg="http://kanjivg.tagaini.net"></path><path class="stroke_order_diagram--existing_path" d="M33.5,49.7c2.88,0.68,5.59,0.52,7.89,0.25c12.18-1.45,30.36-3.63,41.98-4.5c2.45-0.18,4.73-0.3,7.13,0.34" id="Ske1xqhob18" kvg:type="㇐" transform="matrix(1,0,0,1,396,-4)" xmlns:kvg="http://kanjivg.tagaini.net"></path><path class="stroke_order_diagram--current_path" d="M47.75,36c0.94,0.94,1.5,2.5,1.5,4c0,0.87,0.17,17.43,0.08,26.75C49.32,68.53,49.29,70,49.25,71" id="kvg:05eb6-s5" kvg:type="㇑" transform="matrix(1,0,0,1,396,-4)" xmlns:kvg="http://kanjivg.tagaini.net"></path><path class="stroke_order_diagram--current_path" d="M47.75,36c0.94,0.94,1.5,2.5,1.5,4c0,0.87,0.17,17.43,0.08,26.75C49.32,68.53,49.29,70,49.25,71" id="Ske1xqhob1a" kvg:type="㇑" transform="matrix(1,0,0,1,396,-4)" xmlns:kvg="http://kanjivg.tagaini.net"></path><circle class="stroke_order_diagram--path_start" cx="47.75" cy="36" r="4" transform="matrix(1,0,0,1,396,-4)"></circle><line class="stroke_order_diagram--guide_line" x1="550" x2="550" y1="1" y2="99"></line><line class="stroke_order_diagram--bounding_box" x1="599" x2="599" y1="1" y2="99"></line><path class="stroke_order_diagram--existing_path" d="M56.06,12.88c1.03,1.03,1.26,2.37,1.26,4.15c0,0.79,0.08,3.4-0.07,8.21" id="Ske1xqhob1d" kvg:type="㇑a" transform="matrix(1,0,0,1,496,-4)" xmlns:kvg="http://kanjivg.tagaini.net"></path><path class="stroke_order_diagram--existing_path" d="M23.13,28.23c2.67,0.95,5.99,0.64,8.76,0.36c14.86-1.5,31.74-2.96,50.49-4.17c2.88-0.19,5.68-0.2,8.5,0.41" id="Ske1xqhob1e" kvg:type="㇐" transform="matrix(1,0,0,1,496,-4)" xmlns:kvg="http://kanjivg.tagaini.net"></path><path class="stroke_order_diagram--existing_path" d="M25.74,29.5c1.13,1.13,1.18,2.6,1.16,4.62c-0.15,15.13-2.65,38.76-16.09,54.85" id="Ske1xqhob1f" kvg:type="㇒" transform="matrix(1,0,0,1,496,-4)" xmlns:kvg="http://kanjivg.tagaini.net"></path><path class="stroke_order_diagram--existing_path" d="M33.5,49.7c2.88,0.68,5.59,0.52,7.89,0.25c12.18-1.45,30.36-3.63,41.98-4.5c2.45-0.18,4.73-0.3,7.13,0.34" id="Ske1xqhob1g" kvg:type="㇐" transform="matrix(1,0,0,1,496,-4)" xmlns:kvg="http://kanjivg.tagaini.net"></path><path class="stroke_order_diagram--existing_path" d="M47.75,36c0.94,0.94,1.5,2.5,1.5,4c0,0.87,0.17,17.43,0.08,26.75C49.32,68.53,49.29,70,49.25,71" id="Ske1xqhob1h" kvg:type="㇑" transform="matrix(1,0,0,1,496,-4)" xmlns:kvg="http://kanjivg.tagaini.net"></path><path class="stroke_order_diagram--current_path" d="M71,34c0.88,1,1.07,2.47,1,3.5c-0.75,10.38-1.5,19-2.25,28.25" id="kvg:05eb6-s6" kvg:type="㇑a" transform="matrix(1,0,0,1,496,-4)" xmlns:kvg="http://kanjivg.tagaini.net"></path><path class="stroke_order_diagram--current_path" d="M71,34c0.88,1,1.07,2.47,1,3.5c-0.75,10.38-1.5,19-2.25,28.25" id="Ske1xqhob1j" kvg:type="㇑a" transform="matrix(1,0,0,1,496,-4)" xmlns:kvg="http://kanjivg.tagaini.net"></path><circle class="stroke_order_diagram--path_start" cx="71" cy="34" r="4" transform="matrix(1,0,0,1,496,-4)"></circle><line class="stroke_order_diagram--guide_line" x1="650" x2="650" y1="1" y2="99"></line><line class="stroke_order_diagram--bounding_box" x1="699" x2="699" y1="1" y2="99"></line><path class="stroke_order_diagram--existing_path" d="M56.06,12.88c1.03,1.03,1.26,2.37,1.26,4.15c0,0.79,0.08,3.4-0.07,8.21" id="Ske1xqhob1m" kvg:type="㇑a" transform="matrix(1,0,0,1,596,-4)" xmlns:kvg="http://kanjivg.tagaini.net"></path><path class="stroke_order_diagram--existing_path" d="M23.13,28.23c2.67,0.95,5.99,0.64,8.76,0.36c14.86-1.5,31.74-2.96,50.49-4.17c2.88-0.19,5.68-0.2,8.5,0.41" id="Ske1xqhob1n" kvg:type="㇐" transform="matrix(1,0,0,1,596,-4)" xmlns:kvg="http://kanjivg.tagaini.net"></path><path class="stroke_order_diagram--existing_path" d="M25.74,29.5c1.13,1.13,1.18,2.6,1.16,4.62c-0.15,15.13-2.65,38.76-16.09,54.85" id="Ske1xqhob1o" kvg:type="㇒" transform="matrix(1,0,0,1,596,-4)" xmlns:kvg="http://kanjivg.tagaini.net"></path><path class="stroke_order_diagram--existing_path" d="M33.5,49.7c2.88,0.68,5.59,0.52,7.89,0.25c12.18-1.45,30.36-3.63,41.98-4.5c2.45-0.18,4.73-0.3,7.13,0.34" id="Ske1xqhob1p" kvg:type="㇐" transform="matrix(1,0,0,1,596,-4)" xmlns:kvg="http://kanjivg.tagaini.net"></path><path class="stroke_order_diagram--existing_path" d="M47.75,36c0.94,0.94,1.5,2.5,1.5,4c0,0.87,0.17,17.43,0.08,26.75C49.32,68.53,49.29,70,49.25,71" id="Ske1xqhob1q" kvg:type="㇑" transform="matrix(1,0,0,1,596,-4)" xmlns:kvg="http://kanjivg.tagaini.net"></path><path class="stroke_order_diagram--existing_path" d="M71,34c0.88,1,1.07,2.47,1,3.5c-0.75,10.38-1.5,19-2.25,28.25" id="Ske1xqhob1r" kvg:type="㇑a" transform="matrix(1,0,0,1,596,-4)" xmlns:kvg="http://kanjivg.tagaini.net"></path><path class="stroke_order_diagram--current_path" d="M50.5,68.75c5.88-0.5,11.22-1.26,16.97-1.85c1.88-0.19,3.47-0.09,4.53-0.15" id="kvg:05eb6-s7" kvg:type="㇐b" transform="matrix(1,0,0,1,596,-4)" xmlns:kvg="http://kanjivg.tagaini.net"></path><path class="stroke_order_diagram--current_path" d="M50.5,68.75c5.88-0.5,11.22-1.26,16.97-1.85c1.88-0.19,3.47-0.09,4.53-0.15" id="Ske1xqhob1t" kvg:type="㇐b" transform="matrix(1,0,0,1,596,-4)" xmlns:kvg="http://kanjivg.tagaini.net"></path><circle class="stroke_order_diagram--path_start" cx="50.5" cy="68.75" r="4" transform="matrix(1,0,0,1,596,-4)"></circle><line class="stroke_order_diagram--guide_line" x1="750" x2="750" y1="1" y2="99"></line><line class="stroke_order_diagram--bounding_box" x1="799" x2="799" y1="1" y2="99"></line><path class="stroke_order_diagram--existing_path" d="M56.06,12.88c1.03,1.03,1.26,2.37,1.26,4.15c0,0.79,0.08,3.4-0.07,8.21" id="Ske1xqhob1w" kvg:type="㇑a" transform="matrix(1,0,0,1,696,-4)" xmlns:kvg="http://kanjivg.tagaini.net"></path><path class="stroke_order_diagram--existing_path" d="M23.13,28.23c2.67,0.95,5.99,0.64,8.76,0.36c14.86-1.5,31.74-2.96,50.49-4.17c2.88-0.19,5.68-0.2,8.5,0.41" id="Ske1xqhob1x" kvg:type="㇐" transform="matrix(1,0,0,1,696,-4)" xmlns:kvg="http://kanjivg.tagaini.net"></path><path class="stroke_order_diagram--existing_path" d="M25.74,29.5c1.13,1.13,1.18,2.6,1.16,4.62c-0.15,15.13-2.65,38.76-16.09,54.85" id="Ske1xqhob1y" kvg:type="㇒" transform="matrix(1,0,0,1,696,-4)" xmlns:kvg="http://kanjivg.tagaini.net"></path><path class="stroke_order_diagram--existing_path" d="M33.5,49.7c2.88,0.68,5.59,0.52,7.89,0.25c12.18-1.45,30.36-3.63,41.98-4.5c2.45-0.18,4.73-0.3,7.13,0.34" id="Ske1xqhob1z" kvg:type="㇐" transform="matrix(1,0,0,1,696,-4)" xmlns:kvg="http://kanjivg.tagaini.net"></path><path class="stroke_order_diagram--existing_path" d="M47.75,36c0.94,0.94,1.5,2.5,1.5,4c0,0.87,0.17,17.43,0.08,26.75C49.32,68.53,49.29,70,49.25,71" id="Ske1xqhob20" kvg:type="㇑" transform="matrix(1,0,0,1,696,-4)" xmlns:kvg="http://kanjivg.tagaini.net"></path><path class="stroke_order_diagram--existing_path" d="M71,34c0.88,1,1.07,2.47,1,3.5c-0.75,10.38-1.5,19-2.25,28.25" id="Ske1xqhob21" kvg:type="㇑a" transform="matrix(1,0,0,1,696,-4)" xmlns:kvg="http://kanjivg.tagaini.net"></path><path class="stroke_order_diagram--existing_path" d="M50.5,68.75c5.88-0.5,11.22-1.26,16.97-1.85c1.88-0.19,3.47-0.09,4.53-0.15" id="Ske1xqhob22" kvg:type="㇐b" transform="matrix(1,0,0,1,696,-4)" xmlns:kvg="http://kanjivg.tagaini.net"></path><path class="stroke_order_diagram--current_path" d="M33.69,79.25c0,6.06-5.1,15.02-6.44,16.75" id="kvg:05eb6-s8" kvg:type="㇔" transform="matrix(1,0,0,1,696,-4)" xmlns:kvg="http://kanjivg.tagaini.net"></path><path class="stroke_order_diagram--current_path" d="M33.69,79.25c0,6.06-5.1,15.02-6.44,16.75" id="Ske1xqhob24" kvg:type="㇔" transform="matrix(1,0,0,1,696,-4)" xmlns:kvg="http://kanjivg.tagaini.net"></path><circle class="stroke_order_diagram--path_start" cx="33.69" cy="79.25" r="4" transform="matrix(1,0,0,1,696,-4)"></circle><line class="stroke_order_diagram--guide_line" x1="850" x2="850" y1="1" y2="99"></line><line class="stroke_order_diagram--bounding_box" x1="899" x2="899" y1="1" y2="99"></line><path class="stroke_order_diagram--existing_path" d="M56.06,12.88c1.03,1.03,1.26,2.37,1.26,4.15c0,0.79,0.08,3.4-0.07,8.21" id="Ske1xqhob27" kvg:type="㇑a" transform="matrix(1,0,0,1,796,-4)" xmlns:kvg="http://kanjivg.tagaini.net"></path><path class="stroke_order_diagram--existing_path" d="M23.13,28.23c2.67,0.95,5.99,0.64,8.76,0.36c14.86-1.5,31.74-2.96,50.49-4.17c2.88-0.19,5.68-0.2,8.5,0.41" id="Ske1xqhob28" kvg:type="㇐" transform="matrix(1,0,0,1,796,-4)" xmlns:kvg="http://kanjivg.tagaini.net"></path><path class="stroke_order_diagram--existing_path" d="M25.74,29.5c1.13,1.13,1.18,2.6,1.16,4.62c-0.15,15.13-2.65,38.76-16.09,54.85" id="Ske1xqhob29" kvg:type="㇒" transform="matrix(1,0,0,1,796,-4)" xmlns:kvg="http://kanjivg.tagaini.net"></path><path class="stroke_order_diagram--existing_path" d="M33.5,49.7c2.88,0.68,5.59,0.52,7.89,0.25c12.18-1.45,30.36-3.63,41.98-4.5c2.45-0.18,4.73-0.3,7.13,0.34" id="Ske1xqhob2a" kvg:type="㇐" transform="matrix(1,0,0,1,796,-4)" xmlns:kvg="http://kanjivg.tagaini.net"></path><path class="stroke_order_diagram--existing_path" d="M47.75,36c0.94,0.94,1.5,2.5,1.5,4c0,0.87,0.17,17.43,0.08,26.75C49.32,68.53,49.29,70,49.25,71" id="Ske1xqhob2b" kvg:type="㇑" transform="matrix(1,0,0,1,796,-4)" xmlns:kvg="http://kanjivg.tagaini.net"></path><path class="stroke_order_diagram--existing_path" d="M71,34c0.88,1,1.07,2.47,1,3.5c-0.75,10.38-1.5,19-2.25,28.25" id="Ske1xqhob2c" kvg:type="㇑a" transform="matrix(1,0,0,1,796,-4)" xmlns:kvg="http://kanjivg.tagaini.net"></path><path class="stroke_order_diagram--existing_path" d="M50.5,68.75c5.88-0.5,11.22-1.26,16.97-1.85c1.88-0.19,3.47-0.09,4.53-0.15" id="Ske1xqhob2d" kvg:type="㇐b" transform="matrix(1,0,0,1,796,-4)" xmlns:kvg="http://kanjivg.tagaini.net"></path><path class="stroke_order_diagram--existing_path" d="M33.69,79.25c0,6.06-5.1,15.02-6.44,16.75" id="Ske1xqhob2e" kvg:type="㇔" transform="matrix(1,0,0,1,796,-4)" xmlns:kvg="http://kanjivg.tagaini.net"></path><path class="stroke_order_diagram--current_path" d="M47.68,78.33c2,3.18,3.9,11.93,4.4,16.88" id="kvg:05eb6-s9" kvg:type="㇔" transform="matrix(1,0,0,1,796,-4)" xmlns:kvg="http://kanjivg.tagaini.net"></path><path class="stroke_order_diagram--current_path" d="M47.68,78.33c2,3.18,3.9,11.93,4.4,16.88" id="Ske1xqhob2g" kvg:type="㇔" transform="matrix(1,0,0,1,796,-4)" xmlns:kvg="http://kanjivg.tagaini.net"></path><circle class="stroke_order_diagram--path_start" cx="47.68" cy="78.33" r="4" transform="matrix(1,0,0,1,796,-4)"></circle><line class="stroke_order_diagram--guide_line" x1="950" x2="950" y1="1" y2="99"></line><line class="stroke_order_diagram--bounding_box" x1="999" x2="999" y1="1" y2="99"></line><path class="stroke_order_diagram--existing_path" d="M56.06,12.88c1.03,1.03,1.26,2.37,1.26,4.15c0,0.79,0.08,3.4-0.07,8.21" id="Ske1xqhob2j" kvg:type="㇑a" transform="matrix(1,0,0,1,896,-4)" xmlns:kvg="http://kanjivg.tagaini.net"></path><path class="stroke_order_diagram--existing_path" d="M23.13,28.23c2.67,0.95,5.99,0.64,8.76,0.36c14.86-1.5,31.74-2.96,50.49-4.17c2.88-0.19,5.68-0.2,8.5,0.41" id="Ske1xqhob2k" kvg:type="㇐" transform="matrix(1,0,0,1,896,-4)" xmlns:kvg="http://kanjivg.tagaini.net"></path><path class="stroke_order_diagram--existing_path" d="M25.74,29.5c1.13,1.13,1.18,2.6,1.16,4.62c-0.15,15.13-2.65,38.76-16.09,54.85" id="Ske1xqhob2l" kvg:type="㇒" transform="matrix(1,0,0,1,896,-4)" xmlns:kvg="http://kanjivg.tagaini.net"></path><path class="stroke_order_diagram--existing_path" d="M33.5,49.7c2.88,0.68,5.59,0.52,7.89,0.25c12.18-1.45,30.36-3.63,41.98-4.5c2.45-0.18,4.73-0.3,7.13,0.34" id="Ske1xqhob2m" kvg:type="㇐" transform="matrix(1,0,0,1,896,-4)" xmlns:kvg="http://kanjivg.tagaini.net"></path><path class="stroke_order_diagram--existing_path" d="M47.75,36c0.94,0.94,1.5,2.5,1.5,4c0,0.87,0.17,17.43,0.08,26.75C49.32,68.53,49.29,70,49.25,71" id="Ske1xqhob2n" kvg:type="㇑" transform="matrix(1,0,0,1,896,-4)" xmlns:kvg="http://kanjivg.tagaini.net"></path><path class="stroke_order_diagram--existing_path" d="M71,34c0.88,1,1.07,2.47,1,3.5c-0.75,10.38-1.5,19-2.25,28.25" id="Ske1xqhob2o" kvg:type="㇑a" transform="matrix(1,0,0,1,896,-4)" xmlns:kvg="http://kanjivg.tagaini.net"></path><path class="stroke_order_diagram--existing_path" d="M50.5,68.75c5.88-0.5,11.22-1.26,16.97-1.85c1.88-0.19,3.47-0.09,4.53-0.15" id="Ske1xqhob2p" kvg:type="㇐b" transform="matrix(1,0,0,1,896,-4)" xmlns:kvg="http://kanjivg.tagaini.net"></path><path class="stroke_order_diagram--existing_path" d="M33.69,79.25c0,6.06-5.1,15.02-6.44,16.75" id="Ske1xqhob2q" kvg:type="㇔" transform="matrix(1,0,0,1,896,-4)" xmlns:kvg="http://kanjivg.tagaini.net"></path><path class="stroke_order_diagram--existing_path" d="M47.68,78.33c2,3.18,3.9,11.93,4.4,16.88" id="Ske1xqhob2r" kvg:type="㇔" transform="matrix(1,0,0,1,896,-4)" xmlns:kvg="http://kanjivg.tagaini.net"></path><path class="stroke_order_diagram--current_path" d="M64.75,77.58c2.2,2.8,5.69,11.52,6.24,15.88" id="kvg:05eb6-s10" kvg:type="㇔" transform="matrix(1,0,0,1,896,-4)" xmlns:kvg="http://kanjivg.tagaini.net"></path><path class="stroke_order_diagram--current_path" d="M64.75,77.58c2.2,2.8,5.69,11.52,6.24,15.88" id="Ske1xqhob2t" kvg:type="㇔" transform="matrix(1,0,0,1,896,-4)" xmlns:kvg="http://kanjivg.tagaini.net"></path><circle class="stroke_order_diagram--path_start" cx="64.75" cy="77.58" r="4" transform="matrix(1,0,0,1,896,-4)"></circle><line class="stroke_order_diagram--guide_line" x1="1050" x2="1050" y1="1" y2="99"></line><line class="stroke_order_diagram--bounding_box" x1="1099" x2="1099" y1="1" y2="99"></line><path class="stroke_order_diagram--existing_path" d="M56.06,12.88c1.03,1.03,1.26,2.37,1.26,4.15c0,0.79,0.08,3.4-0.07,8.21" id="Ske1xqhob2w" kvg:type="㇑a" transform="matrix(1,0,0,1,996,-4)" xmlns:kvg="http://kanjivg.tagaini.net"></path><path class="stroke_order_diagram--existing_path" d="M23.13,28.23c2.67,0.95,5.99,0.64,8.76,0.36c14.86-1.5,31.74-2.96,50.49-4.17c2.88-0.19,5.68-0.2,8.5,0.41" id="Ske1xqhob2x" kvg:type="㇐" transform="matrix(1,0,0,1,996,-4)" xmlns:kvg="http://kanjivg.tagaini.net"></path><path class="stroke_order_diagram--existing_path" d="M25.74,29.5c1.13,1.13,1.18,2.6,1.16,4.62c-0.15,15.13-2.65,38.76-16.09,54.85" id="Ske1xqhob2y" kvg:type="㇒" transform="matrix(1,0,0,1,996,-4)" xmlns:kvg="http://kanjivg.tagaini.net"></path><path class="stroke_order_diagram--existing_path" d="M33.5,49.7c2.88,0.68,5.59,0.52,7.89,0.25c12.18-1.45,30.36-3.63,41.98-4.5c2.45-0.18,4.73-0.3,7.13,0.34" id="Ske1xqhob2z" kvg:type="㇐" transform="matrix(1,0,0,1,996,-4)" xmlns:kvg="http://kanjivg.tagaini.net"></path><path class="stroke_order_diagram--existing_path" d="M47.75,36c0.94,0.94,1.5,2.5,1.5,4c0,0.87,0.17,17.43,0.08,26.75C49.32,68.53,49.29,70,49.25,71" id="Ske1xqhob30" kvg:type="㇑" transform="matrix(1,0,0,1,996,-4)" xmlns:kvg="http://kanjivg.tagaini.net"></path><path class="stroke_order_diagram--existing_path" d="M71,34c0.88,1,1.07,2.47,1,3.5c-0.75,10.38-1.5,19-2.25,28.25" id="Ske1xqhob31" kvg:type="㇑a" transform="matrix(1,0,0,1,996,-4)" xmlns:kvg="http://kanjivg.tagaini.net"></path><path class="stroke_order_diagram--existing_path" d="M50.5,68.75c5.88-0.5,11.22-1.26,16.97-1.85c1.88-0.19,3.47-0.09,4.53-0.15" id="Ske1xqhob32" kvg:type="㇐b" transform="matrix(1,0,0,1,996,-4)" xmlns:kvg="http://kanjivg.tagaini.net"></path><path class="stroke_order_diagram--existing_path" d="M33.69,79.25c0,6.06-5.1,15.02-6.44,16.75" id="Ske1xqhob33" kvg:type="㇔" transform="matrix(1,0,0,1,996,-4)" xmlns:kvg="http://kanjivg.tagaini.net"></path><path class="stroke_order_diagram--existing_path" d="M47.68,78.33c2,3.18,3.9,11.93,4.4,16.88" id="Ske1xqhob34" kvg:type="㇔" transform="matrix(1,0,0,1,996,-4)" xmlns:kvg="http://kanjivg.tagaini.net"></path><path class="stroke_order_diagram--existing_path" d="M64.75,77.58c2.2,2.8,5.69,11.52,6.24,15.88" id="Ske1xqhob35" kvg:type="㇔" transform="matrix(1,0,0,1,996,-4)" xmlns:kvg="http://kanjivg.tagaini.net"></path><path class="stroke_order_diagram--current_path" d="M82.68,76.33c3.84,2.93,9.92,12.07,10.88,16.63" id="kvg:05eb6-s11" kvg:type="㇔" transform="matrix(1,0,0,1,996,-4)" xmlns:kvg="http://kanjivg.tagaini.net"></path><path class="stroke_order_diagram--current_path" d="M82.68,76.33c3.84,2.93,9.92,12.07,10.88,16.63" id="Ske1xqhob37" kvg:type="㇔" transform="matrix(1,0,0,1,996,-4)" xmlns:kvg="http://kanjivg.tagaini.net"></path><circle class="stroke_order_diagram--path_start" cx="82.68" cy="76.33" r="4" transform="matrix(1,0,0,1,996,-4)"></circle></svg>