<svg class="stroke_order_diagram--svg_container_for_518662a6d5dda79658000e76" style="height: 100px; width: 900px;" viewbox="0 0 900 100"><desc>Created with Snap</desc><defs></defs><line class="stroke_order_diagram--bounding_box" x1="1" x2="899" y1="1" y2="1"></line><line class="stroke_order_diagram--bounding_box" x1="1" x2="1" y1="1" y2="99"></line><line class="stroke_order_diagram--bounding_box" x1="1" x2="899" y1="99" y2="99"></line><line class="stroke_order_diagram--guide_line" x1="0" x2="900" y1="50" y2="50"></line><line class="stroke_order_diagram--guide_line" x1="50" x2="50" y1="1" y2="99"></line><line class="stroke_order_diagram--bounding_box" x1="99" x2="99" y1="1" y2="99"></line><path class="stroke_order_diagram--current_path" d="M15.72,32.5c0.03,4.31-2.21,14.14-4.19,17.5" id="kvg:0605f-s1" kvg:type="㇔" transform="matrix(1,0,0,1,-4,-4)" xmlns:kvg="http://kanjivg.tagaini.net"></path><path class="stroke_order_diagram--current_path" d="M15.72,32.5c0.03,4.31-2.21,14.14-4.19,17.5" id="Ske2hmbspi" kvg:type="㇔" transform="matrix(1,0,0,1,-4,-4)" xmlns:kvg="http://kanjivg.tagaini.net"></path><circle class="stroke_order_diagram--path_start" cx="15.72" cy="32.5" r="4" transform="matrix(1,0,0,1,-4,-4)"></circle><line class="stroke_order_diagram--guide_line" x1="150" x2="150" y1="1" y2="99"></line><line class="stroke_order_diagram--bounding_box" x1="199" x2="199" y1="1" y2="99"></line><path class="stroke_order_diagram--existing_path" d="M15.72,32.5c0.03,4.31-2.21,14.14-4.19,17.5" id="Ske2hmbspl" kvg:type="㇔" transform="matrix(1,0,0,1,96,-4)" xmlns:kvg="http://kanjivg.tagaini.net"></path><path class="stroke_order_diagram--current_path" d="M28.27,29.58c2.4,1.74,6.19,7.17,6.79,9.88" id="kvg:0605f-s2" kvg:type="㇔" transform="matrix(1,0,0,1,96,-4)" xmlns:kvg="http://kanjivg.tagaini.net"></path><path class="stroke_order_diagram--current_path" d="M28.27,29.58c2.4,1.74,6.19,7.17,6.79,9.88" id="Ske2hmbspn" kvg:type="㇔" transform="matrix(1,0,0,1,96,-4)" xmlns:kvg="http://kanjivg.tagaini.net"></path><circle class="stroke_order_diagram--path_start" cx="28.27" cy="29.58" r="4" transform="matrix(1,0,0,1,96,-4)"></circle><line class="stroke_order_diagram--guide_line" x1="250" x2="250" y1="1" y2="99"></line><line class="stroke_order_diagram--bounding_box" x1="299" x2="299" y1="1" y2="99"></line><path class="stroke_order_diagram--existing_path" d="M15.72,32.5c0.03,4.31-2.21,14.14-4.19,17.5" id="Ske2hmbspq" kvg:type="㇔" transform="matrix(1,0,0,1,196,-4)" xmlns:kvg="http://kanjivg.tagaini.net"></path><path class="stroke_order_diagram--existing_path" d="M28.27,29.58c2.4,1.74,6.19,7.17,6.79,9.88" id="Ske2hmbspr" kvg:type="㇔" transform="matrix(1,0,0,1,196,-4)" xmlns:kvg="http://kanjivg.tagaini.net"></path><path class="stroke_order_diagram--current_path" d="M22.87,13.75c1.09,0.5,1.74,2.25,1.96,3.25c0.22,1,0,73.75-0.22,80" id="kvg:0605f-s3" kvg:type="㇑" transform="matrix(1,0,0,1,196,-4)" xmlns:kvg="http://kanjivg.tagaini.net"></path><path class="stroke_order_diagram--current_path" d="M22.87,13.75c1.09,0.5,1.74,2.25,1.96,3.25c0.22,1,0,73.75-0.22,80" id="Ske2hmbspt" kvg:type="㇑" transform="matrix(1,0,0,1,196,-4)" xmlns:kvg="http://kanjivg.tagaini.net"></path><circle class="stroke_order_diagram--path_start" cx="22.87" cy="13.75" r="4" transform="matrix(1,0,0,1,196,-4)"></circle><line class="stroke_order_diagram--guide_line" x1="350" x2="350" y1="1" y2="99"></line><line class="stroke_order_diagram--bounding_box" x1="399" x2="399" y1="1" y2="99"></line><path class="stroke_order_diagram--existing_path" d="M15.72,32.5c0.03,4.31-2.21,14.14-4.19,17.5" id="Ske2hmbspw" kvg:type="㇔" transform="matrix(1,0,0,1,296,-4)" xmlns:kvg="http://kanjivg.tagaini.net"></path><path class="stroke_order_diagram--existing_path" d="M28.27,29.58c2.4,1.74,6.19,7.17,6.79,9.88" id="Ske2hmbspx" kvg:type="㇔" transform="matrix(1,0,0,1,296,-4)" xmlns:kvg="http://kanjivg.tagaini.net"></path><path class="stroke_order_diagram--existing_path" d="M22.87,13.75c1.09,0.5,1.74,2.25,1.96,3.25c0.22,1,0,73.75-0.22,80" id="Ske2hmbspy" kvg:type="㇑" transform="matrix(1,0,0,1,296,-4)" xmlns:kvg="http://kanjivg.tagaini.net"></path><path class="stroke_order_diagram--current_path" d="M53.33,14c0.05,0.8,0.27,2.13-0.1,3.23c-2.58,7.65-6.4,18.76-17.69,30.9" id="kvg:0605f-s4" kvg:type="㇒" transform="matrix(1,0,0,1,296,-4)" xmlns:kvg="http://kanjivg.tagaini.net"></path><path class="stroke_order_diagram--current_path" d="M53.33,14c0.05,0.8,0.27,2.13-0.1,3.23c-2.58,7.65-6.4,18.76-17.69,30.9" id="Ske2hmbsp10" kvg:type="㇒" transform="matrix(1,0,0,1,296,-4)" xmlns:kvg="http://kanjivg.tagaini.net"></path><circle class="stroke_order_diagram--path_start" cx="53.33" cy="14" r="4" transform="matrix(1,0,0,1,296,-4)"></circle><line class="stroke_order_diagram--guide_line" x1="450" x2="450" y1="1" y2="99"></line><line class="stroke_order_diagram--bounding_box" x1="499" x2="499" y1="1" y2="99"></line><path class="stroke_order_diagram--existing_path" d="M15.72,32.5c0.03,4.31-2.21,14.14-4.19,17.5" id="Ske2hmbsp13" kvg:type="㇔" transform="matrix(1,0,0,1,396,-4)" xmlns:kvg="http://kanjivg.tagaini.net"></path><path class="stroke_order_diagram--existing_path" d="M28.27,29.58c2.4,1.74,6.19,7.17,6.79,9.88" id="Ske2hmbsp14" kvg:type="㇔" transform="matrix(1,0,0,1,396,-4)" xmlns:kvg="http://kanjivg.tagaini.net"></path><path class="stroke_order_diagram--existing_path" d="M22.87,13.75c1.09,0.5,1.74,2.25,1.96,3.25c0.22,1,0,73.75-0.22,80" id="Ske2hmbsp15" kvg:type="㇑" transform="matrix(1,0,0,1,396,-4)" xmlns:kvg="http://kanjivg.tagaini.net"></path><path class="stroke_order_diagram--existing_path" d="M53.33,14c0.05,0.8,0.27,2.13-0.1,3.23c-2.58,7.65-6.4,18.76-17.69,30.9" id="Ske2hmbsp16" kvg:type="㇒" transform="matrix(1,0,0,1,396,-4)" xmlns:kvg="http://kanjivg.tagaini.net"></path><path class="stroke_order_diagram--current_path" d="M51.35,30.03c1.18,0.72,2.78,0.66,4.71,0.48c5.44-0.51,27.56-3.09,32.28-3.33c4.71-0.24,5.2,2.37,4.95,7.49C93,40.5,91.25,71,86.59,90.84c-1.19,5.04-4.76,1.81-7.54-1.21" id="kvg:0605f-s5" kvg:type="㇆" transform="matrix(1,0,0,1,396,-4)" xmlns:kvg="http://kanjivg.tagaini.net"></path><path class="stroke_order_diagram--current_path" d="M51.35,30.03c1.18,0.72,2.78,0.66,4.71,0.48c5.44-0.51,27.56-3.09,32.28-3.33c4.71-0.24,5.2,2.37,4.95,7.49C93,40.5,91.25,71,86.59,90.84c-1.19,5.04-4.76,1.81-7.54-1.21" id="Ske2hmbsp18" kvg:type="㇆" transform="matrix(1,0,0,1,396,-4)" xmlns:kvg="http://kanjivg.tagaini.net"></path><circle class="stroke_order_diagram--path_start" cx="51.35" cy="30.03" r="4" transform="matrix(1,0,0,1,396,-4)"></circle><line class="stroke_order_diagram--guide_line" x1="550" x2="550" y1="1" y2="99"></line><line class="stroke_order_diagram--bounding_box" x1="599" x2="599" y1="1" y2="99"></line><path class="stroke_order_diagram--existing_path" d="M15.72,32.5c0.03,4.31-2.21,14.14-4.19,17.5" id="Ske2hmbsp1b" kvg:type="㇔" transform="matrix(1,0,0,1,496,-4)" xmlns:kvg="http://kanjivg.tagaini.net"></path><path class="stroke_order_diagram--existing_path" d="M28.27,29.58c2.4,1.74,6.19,7.17,6.79,9.88" id="Ske2hmbsp1c" kvg:type="㇔" transform="matrix(1,0,0,1,496,-4)" xmlns:kvg="http://kanjivg.tagaini.net"></path><path class="stroke_order_diagram--existing_path" d="M22.87,13.75c1.09,0.5,1.74,2.25,1.96,3.25c0.22,1,0,73.75-0.22,80" id="Ske2hmbsp1d" kvg:type="㇑" transform="matrix(1,0,0,1,496,-4)" xmlns:kvg="http://kanjivg.tagaini.net"></path><path class="stroke_order_diagram--existing_path" d="M53.33,14c0.05,0.8,0.27,2.13-0.1,3.23c-2.58,7.65-6.4,18.76-17.69,30.9" id="Ske2hmbsp1e" kvg:type="㇒" transform="matrix(1,0,0,1,496,-4)" xmlns:kvg="http://kanjivg.tagaini.net"></path><path class="stroke_order_diagram--existing_path" d="M51.35,30.03c1.18,0.72,2.78,0.66,4.71,0.48c5.44-0.51,27.56-3.09,32.28-3.33c4.71-0.24,5.2,2.37,4.95,7.49C93,40.5,91.25,71,86.59,90.84c-1.19,5.04-4.76,1.81-7.54-1.21" id="Ske2hmbsp1f" kvg:type="㇆" transform="matrix(1,0,0,1,496,-4)" xmlns:kvg="http://kanjivg.tagaini.net"></path><path class="stroke_order_diagram--current_path" d="M67.32,38.43c0.29,0.9,0.71,1.64,0.14,3.19c-4.96,13.63-10.21,24.63-17.94,33.5" id="kvg:0605f-s6" kvg:type="㇒" transform="matrix(1,0,0,1,496,-4)" xmlns:kvg="http://kanjivg.tagaini.net"></path><path class="stroke_order_diagram--current_path" d="M67.32,38.43c0.29,0.9,0.71,1.64,0.14,3.19c-4.96,13.63-10.21,24.63-17.94,33.5" id="Ske2hmbsp1h" kvg:type="㇒" transform="matrix(1,0,0,1,496,-4)" xmlns:kvg="http://kanjivg.tagaini.net"></path><circle class="stroke_order_diagram--path_start" cx="67.32" cy="38.43" r="4" transform="matrix(1,0,0,1,496,-4)"></circle><line class="stroke_order_diagram--guide_line" x1="650" x2="650" y1="1" y2="99"></line><line class="stroke_order_diagram--bounding_box" x1="699" x2="699" y1="1" y2="99"></line><path class="stroke_order_diagram--existing_path" d="M15.72,32.5c0.03,4.31-2.21,14.14-4.19,17.5" id="Ske2hmbsp1k" kvg:type="㇔" transform="matrix(1,0,0,1,596,-4)" xmlns:kvg="http://kanjivg.tagaini.net"></path><path class="stroke_order_diagram--existing_path" d="M28.27,29.58c2.4,1.74,6.19,7.17,6.79,9.88" id="Ske2hmbsp1l" kvg:type="㇔" transform="matrix(1,0,0,1,596,-4)" xmlns:kvg="http://kanjivg.tagaini.net"></path><path class="stroke_order_diagram--existing_path" d="M22.87,13.75c1.09,0.5,1.74,2.25,1.96,3.25c0.22,1,0,73.75-0.22,80" id="Ske2hmbsp1m" kvg:type="㇑" transform="matrix(1,0,0,1,596,-4)" xmlns:kvg="http://kanjivg.tagaini.net"></path><path class="stroke_order_diagram--existing_path" d="M53.33,14c0.05,0.8,0.27,2.13-0.1,3.23c-2.58,7.65-6.4,18.76-17.69,30.9" id="Ske2hmbsp1n" kvg:type="㇒" transform="matrix(1,0,0,1,596,-4)" xmlns:kvg="http://kanjivg.tagaini.net"></path><path class="stroke_order_diagram--existing_path" d="M51.35,30.03c1.18,0.72,2.78,0.66,4.71,0.48c5.44-0.51,27.56-3.09,32.28-3.33c4.71-0.24,5.2,2.37,4.95,7.49C93,40.5,91.25,71,86.59,90.84c-1.19,5.04-4.76,1.81-7.54-1.21" id="Ske2hmbsp1o" kvg:type="㇆" transform="matrix(1,0,0,1,596,-4)" xmlns:kvg="http://kanjivg.tagaini.net"></path><path class="stroke_order_diagram--existing_path" d="M67.32,38.43c0.29,0.9,0.71,1.64,0.14,3.19c-4.96,13.63-10.21,24.63-17.94,33.5" id="Ske2hmbsp1p" kvg:type="㇒" transform="matrix(1,0,0,1,596,-4)" xmlns:kvg="http://kanjivg.tagaini.net"></path><path class="stroke_order_diagram--current_path" d="M51.33,49.5c6.3,4.45,12.98,12.18,16.58,20.94" id="kvg:0605f-s7" kvg:type="㇔/㇏" transform="matrix(1,0,0,1,596,-4)" xmlns:kvg="http://kanjivg.tagaini.net"></path><path class="stroke_order_diagram--current_path" d="M51.33,49.5c6.3,4.45,12.98,12.18,16.58,20.94" id="Ske2hmbsp1r" kvg:type="㇔/㇏" transform="matrix(1,0,0,1,596,-4)" xmlns:kvg="http://kanjivg.tagaini.net"></path><circle class="stroke_order_diagram--path_start" cx="51.33" cy="49.5" r="4" transform="matrix(1,0,0,1,596,-4)"></circle><line class="stroke_order_diagram--guide_line" x1="750" x2="750" y1="1" y2="99"></line><line class="stroke_order_diagram--bounding_box" x1="799" x2="799" y1="1" y2="99"></line><path class="stroke_order_diagram--existing_path" d="M15.72,32.5c0.03,4.31-2.21,14.14-4.19,17.5" id="Ske2hmbsp1u" kvg:type="㇔" transform="matrix(1,0,0,1,696,-4)" xmlns:kvg="http://kanjivg.tagaini.net"></path><path class="stroke_order_diagram--existing_path" d="M28.27,29.58c2.4,1.74,6.19,7.17,6.79,9.88" id="Ske2hmbsp1v" kvg:type="㇔" transform="matrix(1,0,0,1,696,-4)" xmlns:kvg="http://kanjivg.tagaini.net"></path><path class="stroke_order_diagram--existing_path" d="M22.87,13.75c1.09,0.5,1.74,2.25,1.96,3.25c0.22,1,0,73.75-0.22,80" id="Ske2hmbsp1w" kvg:type="㇑" transform="matrix(1,0,0,1,696,-4)" xmlns:kvg="http://kanjivg.tagaini.net"></path><path class="stroke_order_diagram--existing_path" d="M53.33,14c0.05,0.8,0.27,2.13-0.1,3.23c-2.58,7.65-6.4,18.76-17.69,30.9" id="Ske2hmbsp1x" kvg:type="㇒" transform="matrix(1,0,0,1,696,-4)" xmlns:kvg="http://kanjivg.tagaini.net"></path><path class="stroke_order_diagram--existing_path" d="M51.35,30.03c1.18,0.72,2.78,0.66,4.71,0.48c5.44-0.51,27.56-3.09,32.28-3.33c4.71-0.24,5.2,2.37,4.95,7.49C93,40.5,91.25,71,86.59,90.84c-1.19,5.04-4.76,1.81-7.54-1.21" id="Ske2hmbsp1y" kvg:type="㇆" transform="matrix(1,0,0,1,696,-4)" xmlns:kvg="http://kanjivg.tagaini.net"></path><path class="stroke_order_diagram--existing_path" d="M67.32,38.43c0.29,0.9,0.71,1.64,0.14,3.19c-4.96,13.63-10.21,24.63-17.94,33.5" id="Ske2hmbsp1z" kvg:type="㇒" transform="matrix(1,0,0,1,696,-4)" xmlns:kvg="http://kanjivg.tagaini.net"></path><path class="stroke_order_diagram--existing_path" d="M51.33,49.5c6.3,4.45,12.98,12.18,16.58,20.94" id="Ske2hmbsp20" kvg:type="㇔/㇏" transform="matrix(1,0,0,1,696,-4)" xmlns:kvg="http://kanjivg.tagaini.net"></path><path class="stroke_order_diagram--current_path" d="M43.57,50.9c0.36,0.22,0.89,2.48,0.81,2.92c-0.79,4.31-2.28,20.54-2.62,27.63c-0.06,1.33,0.82,1.87,1.51,1.67c8.8-2.6,29.03-4.94,32.8-5.16" id="kvg:0605f-s8" kvg:type="㇄a" transform="matrix(1,0,0,1,696,-4)" xmlns:kvg="http://kanjivg.tagaini.net"></path><path class="stroke_order_diagram--current_path" d="M43.57,50.9c0.36,0.22,0.89,2.48,0.81,2.92c-0.79,4.31-2.28,20.54-2.62,27.63c-0.06,1.33,0.82,1.87,1.51,1.67c8.8-2.6,29.03-4.94,32.8-5.16" id="Ske2hmbsp22" kvg:type="㇄a" transform="matrix(1,0,0,1,696,-4)" xmlns:kvg="http://kanjivg.tagaini.net"></path><circle class="stroke_order_diagram--path_start" cx="43.57" cy="50.9" r="4" transform="matrix(1,0,0,1,696,-4)"></circle><line class="stroke_order_diagram--guide_line" x1="850" x2="850" y1="1" y2="99"></line><line class="stroke_order_diagram--bounding_box" x1="899" x2="899" y1="1" y2="99"></line><path class="stroke_order_diagram--existing_path" d="M15.72,32.5c0.03,4.31-2.21,14.14-4.19,17.5" id="Ske2hmbsp25" kvg:type="㇔" transform="matrix(1,0,0,1,796,-4)" xmlns:kvg="http://kanjivg.tagaini.net"></path><path class="stroke_order_diagram--existing_path" d="M28.27,29.58c2.4,1.74,6.19,7.17,6.79,9.88" id="Ske2hmbsp26" kvg:type="㇔" transform="matrix(1,0,0,1,796,-4)" xmlns:kvg="http://kanjivg.tagaini.net"></path><path class="stroke_order_diagram--existing_path" d="M22.87,13.75c1.09,0.5,1.74,2.25,1.96,3.25c0.22,1,0,73.75-0.22,80" id="Ske2hmbsp27" kvg:type="㇑" transform="matrix(1,0,0,1,796,-4)" xmlns:kvg="http://kanjivg.tagaini.net"></path><path class="stroke_order_diagram--existing_path" d="M53.33,14c0.05,0.8,0.27,2.13-0.1,3.23c-2.58,7.65-6.4,18.76-17.69,30.9" id="Ske2hmbsp28" kvg:type="㇒" transform="matrix(1,0,0,1,796,-4)" xmlns:kvg="http://kanjivg.tagaini.net"></path><path class="stroke_order_diagram--existing_path" d="M51.35,30.03c1.18,0.72,2.78,0.66,4.71,0.48c5.44-0.51,27.56-3.09,32.28-3.33c4.71-0.24,5.2,2.37,4.95,7.49C93,40.5,91.25,71,86.59,90.84c-1.19,5.04-4.76,1.81-7.54-1.21" id="Ske2hmbsp29" kvg:type="㇆" transform="matrix(1,0,0,1,796,-4)" xmlns:kvg="http://kanjivg.tagaini.net"></path><path class="stroke_order_diagram--existing_path" d="M67.32,38.43c0.29,0.9,0.71,1.64,0.14,3.19c-4.96,13.63-10.21,24.63-17.94,33.5" id="Ske2hmbsp2a" kvg:type="㇒" transform="matrix(1,0,0,1,796,-4)" xmlns:kvg="http://kanjivg.tagaini.net"></path><path class="stroke_order_diagram--existing_path" d="M51.33,49.5c6.3,4.45,12.98,12.18,16.58,20.94" id="Ske2hmbsp2b" kvg:type="㇔/㇏" transform="matrix(1,0,0,1,796,-4)" xmlns:kvg="http://kanjivg.tagaini.net"></path><path class="stroke_order_diagram--existing_path" d="M43.57,50.9c0.36,0.22,0.89,2.48,0.81,2.92c-0.79,4.31-2.28,20.54-2.62,27.63c-0.06,1.33,0.82,1.87,1.51,1.67c8.8-2.6,29.03-4.94,32.8-5.16" id="Ske2hmbsp2c" kvg:type="㇄a" transform="matrix(1,0,0,1,796,-4)" xmlns:kvg="http://kanjivg.tagaini.net"></path><path class="stroke_order_diagram--current_path" d="M76.14,46.84c0.36,0.22,1.13,1.65,1.21,2.1C77.42,49.38,77,69,75.63,81.39" id="kvg:0605f-s9" kvg:type="㇑" transform="matrix(1,0,0,1,796,-4)" xmlns:kvg="http://kanjivg.tagaini.net"></path><path class="stroke_order_diagram--current_path" d="M76.14,46.84c0.36,0.22,1.13,1.65,1.21,2.1C77.42,49.38,77,69,75.63,81.39" id="Ske2hmbsp2e" kvg:type="㇑" transform="matrix(1,0,0,1,796,-4)" xmlns:kvg="http://kanjivg.tagaini.net"></path><circle class="stroke_order_diagram--path_start" cx="76.14" cy="46.84" r="4" transform="matrix(1,0,0,1,796,-4)"></circle></svg>