<svg class="stroke_order_diagram--svg_container_for_51866276d5dda79658000160" style="height: 100px; width: 900px;" viewbox="0 0 900 100"><desc>Created with Snap</desc><defs></defs><line class="stroke_order_diagram--bounding_box" x1="1" x2="899" y1="1" y2="1"></line><line class="stroke_order_diagram--bounding_box" x1="1" x2="1" y1="1" y2="99"></line><line class="stroke_order_diagram--bounding_box" x1="1" x2="899" y1="99" y2="99"></line><line class="stroke_order_diagram--guide_line" x1="0" x2="900" y1="50" y2="50"></line><line class="stroke_order_diagram--guide_line" x1="50" x2="50" y1="1" y2="99"></line><line class="stroke_order_diagram--bounding_box" x1="99" x2="99" y1="1" y2="99"></line><path class="stroke_order_diagram--current_path" d="M17.72,39.75c0,6.61-2.97,16.61-3.94,18.5" id="kvg:06070-s1" kvg:type="㇔" transform="matrix(1,0,0,1,-4,-4)" xmlns:kvg="http://kanjivg.tagaini.net"></path><path class="stroke_order_diagram--current_path" d="M17.72,39.75c0,6.61-2.97,16.61-3.94,18.5" id="Ske1q0jtei" kvg:type="㇔" transform="matrix(1,0,0,1,-4,-4)" xmlns:kvg="http://kanjivg.tagaini.net"></path><circle class="stroke_order_diagram--path_start" cx="17.72" cy="39.75" r="4" transform="matrix(1,0,0,1,-4,-4)"></circle><line class="stroke_order_diagram--guide_line" x1="150" x2="150" y1="1" y2="99"></line><line class="stroke_order_diagram--bounding_box" x1="199" x2="199" y1="1" y2="99"></line><path class="stroke_order_diagram--existing_path" d="M17.72,39.75c0,6.61-2.97,16.61-3.94,18.5" id="Ske1q0jtel" kvg:type="㇔" transform="matrix(1,0,0,1,96,-4)" xmlns:kvg="http://kanjivg.tagaini.net"></path><path class="stroke_order_diagram--current_path" d="M31.02,35.58c2.66,1.57,6.88,6.69,7.54,9.13" id="kvg:06070-s2" kvg:type="㇔" transform="matrix(1,0,0,1,96,-4)" xmlns:kvg="http://kanjivg.tagaini.net"></path><path class="stroke_order_diagram--current_path" d="M31.02,35.58c2.66,1.57,6.88,6.69,7.54,9.13" id="Ske1q0jten" kvg:type="㇔" transform="matrix(1,0,0,1,96,-4)" xmlns:kvg="http://kanjivg.tagaini.net"></path><circle class="stroke_order_diagram--path_start" cx="31.02" cy="35.58" r="4" transform="matrix(1,0,0,1,96,-4)"></circle><line class="stroke_order_diagram--guide_line" x1="250" x2="250" y1="1" y2="99"></line><line class="stroke_order_diagram--bounding_box" x1="299" x2="299" y1="1" y2="99"></line><path class="stroke_order_diagram--existing_path" d="M17.72,39.75c0,6.61-2.97,16.61-3.94,18.5" id="Ske1q0jteq" kvg:type="㇔" transform="matrix(1,0,0,1,196,-4)" xmlns:kvg="http://kanjivg.tagaini.net"></path><path class="stroke_order_diagram--existing_path" d="M31.02,35.58c2.66,1.57,6.88,6.69,7.54,9.13" id="Ske1q0jter" kvg:type="㇔" transform="matrix(1,0,0,1,196,-4)" xmlns:kvg="http://kanjivg.tagaini.net"></path><path class="stroke_order_diagram--current_path" d="M26.12,15.75c0.94,0.94,1.21,2.23,1.21,3.25c0,4.77,0.02,48.37,0.03,68c0,4.54,0,7.8,0,9" id="kvg:06070-s3" kvg:type="㇑" transform="matrix(1,0,0,1,196,-4)" xmlns:kvg="http://kanjivg.tagaini.net"></path><path class="stroke_order_diagram--current_path" d="M26.12,15.75c0.94,0.94,1.21,2.23,1.21,3.25c0,4.77,0.02,48.37,0.03,68c0,4.54,0,7.8,0,9" id="Ske1q0jtet" kvg:type="㇑" transform="matrix(1,0,0,1,196,-4)" xmlns:kvg="http://kanjivg.tagaini.net"></path><circle class="stroke_order_diagram--path_start" cx="26.12" cy="15.75" r="4" transform="matrix(1,0,0,1,196,-4)"></circle><line class="stroke_order_diagram--guide_line" x1="350" x2="350" y1="1" y2="99"></line><line class="stroke_order_diagram--bounding_box" x1="399" x2="399" y1="1" y2="99"></line><path class="stroke_order_diagram--existing_path" d="M17.72,39.75c0,6.61-2.97,16.61-3.94,18.5" id="Ske1q0jtew" kvg:type="㇔" transform="matrix(1,0,0,1,296,-4)" xmlns:kvg="http://kanjivg.tagaini.net"></path><path class="stroke_order_diagram--existing_path" d="M31.02,35.58c2.66,1.57,6.88,6.69,7.54,9.13" id="Ske1q0jtex" kvg:type="㇔" transform="matrix(1,0,0,1,296,-4)" xmlns:kvg="http://kanjivg.tagaini.net"></path><path class="stroke_order_diagram--existing_path" d="M26.12,15.75c0.94,0.94,1.21,2.23,1.21,3.25c0,4.77,0.02,48.37,0.03,68c0,4.54,0,7.8,0,9" id="Ske1q0jtey" kvg:type="㇑" transform="matrix(1,0,0,1,296,-4)" xmlns:kvg="http://kanjivg.tagaini.net"></path><path class="stroke_order_diagram--current_path" d="M62.42,13c0,1.38-0.21,2.79-0.62,4.2C58.92,27,53.12,41.75,40.82,56.93" id="kvg:06070-s4" kvg:type="㇒" transform="matrix(1,0,0,1,296,-4)" xmlns:kvg="http://kanjivg.tagaini.net"></path><path class="stroke_order_diagram--current_path" d="M62.42,13c0,1.38-0.21,2.79-0.62,4.2C58.92,27,53.12,41.75,40.82,56.93" id="Ske1q0jte10" kvg:type="㇒" transform="matrix(1,0,0,1,296,-4)" xmlns:kvg="http://kanjivg.tagaini.net"></path><circle class="stroke_order_diagram--path_start" cx="62.42" cy="13" r="4" transform="matrix(1,0,0,1,296,-4)"></circle><line class="stroke_order_diagram--guide_line" x1="450" x2="450" y1="1" y2="99"></line><line class="stroke_order_diagram--bounding_box" x1="499" x2="499" y1="1" y2="99"></line><path class="stroke_order_diagram--existing_path" d="M17.72,39.75c0,6.61-2.97,16.61-3.94,18.5" id="Ske1q0jte13" kvg:type="㇔" transform="matrix(1,0,0,1,396,-4)" xmlns:kvg="http://kanjivg.tagaini.net"></path><path class="stroke_order_diagram--existing_path" d="M31.02,35.58c2.66,1.57,6.88,6.69,7.54,9.13" id="Ske1q0jte14" kvg:type="㇔" transform="matrix(1,0,0,1,396,-4)" xmlns:kvg="http://kanjivg.tagaini.net"></path><path class="stroke_order_diagram--existing_path" d="M26.12,15.75c0.94,0.94,1.21,2.23,1.21,3.25c0,4.77,0.02,48.37,0.03,68c0,4.54,0,7.8,0,9" id="Ske1q0jte15" kvg:type="㇑" transform="matrix(1,0,0,1,396,-4)" xmlns:kvg="http://kanjivg.tagaini.net"></path><path class="stroke_order_diagram--existing_path" d="M62.42,13c0,1.38-0.21,2.79-0.62,4.2C58.92,27,53.12,41.75,40.82,56.93" id="Ske1q0jte16" kvg:type="㇒" transform="matrix(1,0,0,1,396,-4)" xmlns:kvg="http://kanjivg.tagaini.net"></path><path class="stroke_order_diagram--current_path" d="M62.58,17.58c4.47,5.92,15.55,19.48,22.72,27.63c2.98,3.51,6.28,6.29,10.38,8.36" id="kvg:06070-s5" kvg:type="㇏" transform="matrix(1,0,0,1,396,-4)" xmlns:kvg="http://kanjivg.tagaini.net"></path><path class="stroke_order_diagram--current_path" d="M62.58,17.58c4.47,5.92,15.55,19.48,22.72,27.63c2.98,3.51,6.28,6.29,10.38,8.36" id="Ske1q0jte18" kvg:type="㇏" transform="matrix(1,0,0,1,396,-4)" xmlns:kvg="http://kanjivg.tagaini.net"></path><circle class="stroke_order_diagram--path_start" cx="62.58" cy="17.58" r="4" transform="matrix(1,0,0,1,396,-4)"></circle><line class="stroke_order_diagram--guide_line" x1="550" x2="550" y1="1" y2="99"></line><line class="stroke_order_diagram--bounding_box" x1="599" x2="599" y1="1" y2="99"></line><path class="stroke_order_diagram--existing_path" d="M17.72,39.75c0,6.61-2.97,16.61-3.94,18.5" id="Ske1q0jte1b" kvg:type="㇔" transform="matrix(1,0,0,1,496,-4)" xmlns:kvg="http://kanjivg.tagaini.net"></path><path class="stroke_order_diagram--existing_path" d="M31.02,35.58c2.66,1.57,6.88,6.69,7.54,9.13" id="Ske1q0jte1c" kvg:type="㇔" transform="matrix(1,0,0,1,496,-4)" xmlns:kvg="http://kanjivg.tagaini.net"></path><path class="stroke_order_diagram--existing_path" d="M26.12,15.75c0.94,0.94,1.21,2.23,1.21,3.25c0,4.77,0.02,48.37,0.03,68c0,4.54,0,7.8,0,9" id="Ske1q0jte1d" kvg:type="㇑" transform="matrix(1,0,0,1,496,-4)" xmlns:kvg="http://kanjivg.tagaini.net"></path><path class="stroke_order_diagram--existing_path" d="M62.42,13c0,1.38-0.21,2.79-0.62,4.2C58.92,27,53.12,41.75,40.82,56.93" id="Ske1q0jte1e" kvg:type="㇒" transform="matrix(1,0,0,1,496,-4)" xmlns:kvg="http://kanjivg.tagaini.net"></path><path class="stroke_order_diagram--existing_path" d="M62.58,17.58c4.47,5.92,15.55,19.48,22.72,27.63c2.98,3.51,6.28,6.29,10.38,8.36" id="Ske1q0jte1f" kvg:type="㇏" transform="matrix(1,0,0,1,496,-4)" xmlns:kvg="http://kanjivg.tagaini.net"></path><path class="stroke_order_diagram--current_path" d="M52.55,50.89c1.57,0.27,3.14,0.32,4.72,0.12c4.36-0.51,8.68-1.24,13.87-1.97c1.75-0.2,3.49-0.16,5.22,0.11" id="kvg:06070-s6" kvg:type="㇐" transform="matrix(1,0,0,1,496,-4)" xmlns:kvg="http://kanjivg.tagaini.net"></path><path class="stroke_order_diagram--current_path" d="M52.55,50.89c1.57,0.27,3.14,0.32,4.72,0.12c4.36-0.51,8.68-1.24,13.87-1.97c1.75-0.2,3.49-0.16,5.22,0.11" id="Ske1q0jte1h" kvg:type="㇐" transform="matrix(1,0,0,1,496,-4)" xmlns:kvg="http://kanjivg.tagaini.net"></path><circle class="stroke_order_diagram--path_start" cx="52.55" cy="50.89" r="4" transform="matrix(1,0,0,1,496,-4)"></circle><line class="stroke_order_diagram--guide_line" x1="650" x2="650" y1="1" y2="99"></line><line class="stroke_order_diagram--bounding_box" x1="699" x2="699" y1="1" y2="99"></line><path class="stroke_order_diagram--existing_path" d="M17.72,39.75c0,6.61-2.97,16.61-3.94,18.5" id="Ske1q0jte1k" kvg:type="㇔" transform="matrix(1,0,0,1,596,-4)" xmlns:kvg="http://kanjivg.tagaini.net"></path><path class="stroke_order_diagram--existing_path" d="M31.02,35.58c2.66,1.57,6.88,6.69,7.54,9.13" id="Ske1q0jte1l" kvg:type="㇔" transform="matrix(1,0,0,1,596,-4)" xmlns:kvg="http://kanjivg.tagaini.net"></path><path class="stroke_order_diagram--existing_path" d="M26.12,15.75c0.94,0.94,1.21,2.23,1.21,3.25c0,4.77,0.02,48.37,0.03,68c0,4.54,0,7.8,0,9" id="Ske1q0jte1m" kvg:type="㇑" transform="matrix(1,0,0,1,596,-4)" xmlns:kvg="http://kanjivg.tagaini.net"></path><path class="stroke_order_diagram--existing_path" d="M62.42,13c0,1.38-0.21,2.79-0.62,4.2C58.92,27,53.12,41.75,40.82,56.93" id="Ske1q0jte1n" kvg:type="㇒" transform="matrix(1,0,0,1,596,-4)" xmlns:kvg="http://kanjivg.tagaini.net"></path><path class="stroke_order_diagram--existing_path" d="M62.58,17.58c4.47,5.92,15.55,19.48,22.72,27.63c2.98,3.51,6.28,6.29,10.38,8.36" id="Ske1q0jte1o" kvg:type="㇏" transform="matrix(1,0,0,1,596,-4)" xmlns:kvg="http://kanjivg.tagaini.net"></path><path class="stroke_order_diagram--existing_path" d="M52.55,50.89c1.57,0.27,3.14,0.32,4.72,0.12c4.36-0.51,8.68-1.24,13.87-1.97c1.75-0.2,3.49-0.16,5.22,0.11" id="Ske1q0jte1p" kvg:type="㇐" transform="matrix(1,0,0,1,596,-4)" xmlns:kvg="http://kanjivg.tagaini.net"></path><path class="stroke_order_diagram--current_path" d="M48.09,66.28c0.76,0.76,1.3,2.21,1.42,2.97c1.17,7.31,2.27,12.97,3.19,18.76c0.33,2.05,0.63,4.12,0.91,6.28" id="kvg:06070-s7" kvg:type="㇑" transform="matrix(1,0,0,1,596,-4)" xmlns:kvg="http://kanjivg.tagaini.net"></path><path class="stroke_order_diagram--current_path" d="M48.09,66.28c0.76,0.76,1.3,2.21,1.42,2.97c1.17,7.31,2.27,12.97,3.19,18.76c0.33,2.05,0.63,4.12,0.91,6.28" id="Ske1q0jte1r" kvg:type="㇑" transform="matrix(1,0,0,1,596,-4)" xmlns:kvg="http://kanjivg.tagaini.net"></path><circle class="stroke_order_diagram--path_start" cx="48.09" cy="66.28" r="4" transform="matrix(1,0,0,1,596,-4)"></circle><line class="stroke_order_diagram--guide_line" x1="750" x2="750" y1="1" y2="99"></line><line class="stroke_order_diagram--bounding_box" x1="799" x2="799" y1="1" y2="99"></line><path class="stroke_order_diagram--existing_path" d="M17.72,39.75c0,6.61-2.97,16.61-3.94,18.5" id="Ske1q0jte1u" kvg:type="㇔" transform="matrix(1,0,0,1,696,-4)" xmlns:kvg="http://kanjivg.tagaini.net"></path><path class="stroke_order_diagram--existing_path" d="M31.02,35.58c2.66,1.57,6.88,6.69,7.54,9.13" id="Ske1q0jte1v" kvg:type="㇔" transform="matrix(1,0,0,1,696,-4)" xmlns:kvg="http://kanjivg.tagaini.net"></path><path class="stroke_order_diagram--existing_path" d="M26.12,15.75c0.94,0.94,1.21,2.23,1.21,3.25c0,4.77,0.02,48.37,0.03,68c0,4.54,0,7.8,0,9" id="Ske1q0jte1w" kvg:type="㇑" transform="matrix(1,0,0,1,696,-4)" xmlns:kvg="http://kanjivg.tagaini.net"></path><path class="stroke_order_diagram--existing_path" d="M62.42,13c0,1.38-0.21,2.79-0.62,4.2C58.92,27,53.12,41.75,40.82,56.93" id="Ske1q0jte1x" kvg:type="㇒" transform="matrix(1,0,0,1,696,-4)" xmlns:kvg="http://kanjivg.tagaini.net"></path><path class="stroke_order_diagram--existing_path" d="M62.58,17.58c4.47,5.92,15.55,19.48,22.72,27.63c2.98,3.51,6.28,6.29,10.38,8.36" id="Ske1q0jte1y" kvg:type="㇏" transform="matrix(1,0,0,1,696,-4)" xmlns:kvg="http://kanjivg.tagaini.net"></path><path class="stroke_order_diagram--existing_path" d="M52.55,50.89c1.57,0.27,3.14,0.32,4.72,0.12c4.36-0.51,8.68-1.24,13.87-1.97c1.75-0.2,3.49-0.16,5.22,0.11" id="Ske1q0jte1z" kvg:type="㇐" transform="matrix(1,0,0,1,696,-4)" xmlns:kvg="http://kanjivg.tagaini.net"></path><path class="stroke_order_diagram--existing_path" d="M48.09,66.28c0.76,0.76,1.3,2.21,1.42,2.97c1.17,7.31,2.27,12.97,3.19,18.76c0.33,2.05,0.63,4.12,0.91,6.28" id="Ske1q0jte20" kvg:type="㇑" transform="matrix(1,0,0,1,696,-4)" xmlns:kvg="http://kanjivg.tagaini.net"></path><path class="stroke_order_diagram--current_path" d="M49.85,67.51c10.13-1.42,21.73-2.29,27.89-3.01c3.01-0.35,4.98,0.62,4.38,3.99c-1.1,6.27-1.87,11.43-4.21,20.34" id="kvg:06070-s8" kvg:type="㇕b" transform="matrix(1,0,0,1,696,-4)" xmlns:kvg="http://kanjivg.tagaini.net"></path><path class="stroke_order_diagram--current_path" d="M49.85,67.51c10.13-1.42,21.73-2.29,27.89-3.01c3.01-0.35,4.98,0.62,4.38,3.99c-1.1,6.27-1.87,11.43-4.21,20.34" id="Ske1q0jte22" kvg:type="㇕b" transform="matrix(1,0,0,1,696,-4)" xmlns:kvg="http://kanjivg.tagaini.net"></path><circle class="stroke_order_diagram--path_start" cx="49.85" cy="67.51" r="4" transform="matrix(1,0,0,1,696,-4)"></circle><line class="stroke_order_diagram--guide_line" x1="850" x2="850" y1="1" y2="99"></line><line class="stroke_order_diagram--bounding_box" x1="899" x2="899" y1="1" y2="99"></line><path class="stroke_order_diagram--existing_path" d="M17.72,39.75c0,6.61-2.97,16.61-3.94,18.5" id="Ske1q0jte25" kvg:type="㇔" transform="matrix(1,0,0,1,796,-4)" xmlns:kvg="http://kanjivg.tagaini.net"></path><path class="stroke_order_diagram--existing_path" d="M31.02,35.58c2.66,1.57,6.88,6.69,7.54,9.13" id="Ske1q0jte26" kvg:type="㇔" transform="matrix(1,0,0,1,796,-4)" xmlns:kvg="http://kanjivg.tagaini.net"></path><path class="stroke_order_diagram--existing_path" d="M26.12,15.75c0.94,0.94,1.21,2.23,1.21,3.25c0,4.77,0.02,48.37,0.03,68c0,4.54,0,7.8,0,9" id="Ske1q0jte27" kvg:type="㇑" transform="matrix(1,0,0,1,796,-4)" xmlns:kvg="http://kanjivg.tagaini.net"></path><path class="stroke_order_diagram--existing_path" d="M62.42,13c0,1.38-0.21,2.79-0.62,4.2C58.92,27,53.12,41.75,40.82,56.93" id="Ske1q0jte28" kvg:type="㇒" transform="matrix(1,0,0,1,796,-4)" xmlns:kvg="http://kanjivg.tagaini.net"></path><path class="stroke_order_diagram--existing_path" d="M62.58,17.58c4.47,5.92,15.55,19.48,22.72,27.63c2.98,3.51,6.28,6.29,10.38,8.36" id="Ske1q0jte29" kvg:type="㇏" transform="matrix(1,0,0,1,796,-4)" xmlns:kvg="http://kanjivg.tagaini.net"></path><path class="stroke_order_diagram--existing_path" d="M52.55,50.89c1.57,0.27,3.14,0.32,4.72,0.12c4.36-0.51,8.68-1.24,13.87-1.97c1.75-0.2,3.49-0.16,5.22,0.11" id="Ske1q0jte2a" kvg:type="㇐" transform="matrix(1,0,0,1,796,-4)" xmlns:kvg="http://kanjivg.tagaini.net"></path><path class="stroke_order_diagram--existing_path" d="M48.09,66.28c0.76,0.76,1.3,2.21,1.42,2.97c1.17,7.31,2.27,12.97,3.19,18.76c0.33,2.05,0.63,4.12,0.91,6.28" id="Ske1q0jte2b" kvg:type="㇑" transform="matrix(1,0,0,1,796,-4)" xmlns:kvg="http://kanjivg.tagaini.net"></path><path class="stroke_order_diagram--existing_path" d="M49.85,67.51c10.13-1.42,21.73-2.29,27.89-3.01c3.01-0.35,4.98,0.62,4.38,3.99c-1.1,6.27-1.87,11.43-4.21,20.34" id="Ske1q0jte2c" kvg:type="㇕b" transform="matrix(1,0,0,1,796,-4)" xmlns:kvg="http://kanjivg.tagaini.net"></path><path class="stroke_order_diagram--current_path" d="M53.84,92.12c6.29-0.62,12.81-1.29,20.54-1.83c1.85-0.13,3.71-0.25,5.55-0.37" id="kvg:06070-s9" kvg:type="㇐b" transform="matrix(1,0,0,1,796,-4)" xmlns:kvg="http://kanjivg.tagaini.net"></path><path class="stroke_order_diagram--current_path" d="M53.84,92.12c6.29-0.62,12.81-1.29,20.54-1.83c1.85-0.13,3.71-0.25,5.55-0.37" id="Ske1q0jte2e" kvg:type="㇐b" transform="matrix(1,0,0,1,796,-4)" xmlns:kvg="http://kanjivg.tagaini.net"></path><circle class="stroke_order_diagram--path_start" cx="53.84" cy="92.12" r="4" transform="matrix(1,0,0,1,796,-4)"></circle></svg>