<svg class="stroke_order_diagram--svg_container_for_518662a6d5dda79658000e75" style="height: 100px; width: 1000px;" viewbox="0 0 1000 100"><desc>Created with Snap</desc><defs></defs><line class="stroke_order_diagram--bounding_box" x1="1" x2="999" y1="1" y2="1"></line><line class="stroke_order_diagram--bounding_box" x1="1" x2="1" y1="1" y2="99"></line><line class="stroke_order_diagram--bounding_box" x1="1" x2="999" y1="99" y2="99"></line><line class="stroke_order_diagram--guide_line" x1="0" x2="1000" y1="50" y2="50"></line><line class="stroke_order_diagram--guide_line" x1="50" x2="50" y1="1" y2="99"></line><line class="stroke_order_diagram--bounding_box" x1="99" x2="99" y1="1" y2="99"></line><path class="stroke_order_diagram--current_path" d="M35.4,14.36c0.23,1.49-0.06,3.45-0.79,4.73c-4.64,8.16-10.53,15.82-21.17,25.75" id="kvg:06077-s1" kvg:type="㇒" transform="matrix(1,0,0,1,-4,-4)" xmlns:kvg="http://kanjivg.tagaini.net"></path><path class="stroke_order_diagram--current_path" d="M35.4,14.36c0.23,1.49-0.06,3.45-0.79,4.73c-4.64,8.16-10.53,15.82-21.17,25.75" id="Ske2hm24dj" kvg:type="㇒" transform="matrix(1,0,0,1,-4,-4)" xmlns:kvg="http://kanjivg.tagaini.net"></path><circle class="stroke_order_diagram--path_start" cx="35.4" cy="14.36" r="4" transform="matrix(1,0,0,1,-4,-4)"></circle><line class="stroke_order_diagram--guide_line" x1="150" x2="150" y1="1" y2="99"></line><line class="stroke_order_diagram--bounding_box" x1="199" x2="199" y1="1" y2="99"></line><path class="stroke_order_diagram--existing_path" d="M35.4,14.36c0.23,1.49-0.06,3.45-0.79,4.73c-4.64,8.16-10.53,15.82-21.17,25.75" id="Ske2hm24dm" kvg:type="㇒" transform="matrix(1,0,0,1,96,-4)" xmlns:kvg="http://kanjivg.tagaini.net"></path><path class="stroke_order_diagram--current_path" d="M27.91,32.85c0.09,0.6,0.57,1.69,0.62,2.55c0.45,8-0.44,23.11-0.44,30.91" id="kvg:06077-s2" kvg:type="㇑" transform="matrix(1,0,0,1,96,-4)" xmlns:kvg="http://kanjivg.tagaini.net"></path><path class="stroke_order_diagram--current_path" d="M27.91,32.85c0.09,0.6,0.57,1.69,0.62,2.55c0.45,8-0.44,23.11-0.44,30.91" id="Ske2hm24do" kvg:type="㇑" transform="matrix(1,0,0,1,96,-4)" xmlns:kvg="http://kanjivg.tagaini.net"></path><circle class="stroke_order_diagram--path_start" cx="27.91" cy="32.85" r="4" transform="matrix(1,0,0,1,96,-4)"></circle><line class="stroke_order_diagram--guide_line" x1="250" x2="250" y1="1" y2="99"></line><line class="stroke_order_diagram--bounding_box" x1="299" x2="299" y1="1" y2="99"></line><path class="stroke_order_diagram--existing_path" d="M35.4,14.36c0.23,1.49-0.06,3.45-0.79,4.73c-4.64,8.16-10.53,15.82-21.17,25.75" id="Ske2hm24dr" kvg:type="㇒" transform="matrix(1,0,0,1,196,-4)" xmlns:kvg="http://kanjivg.tagaini.net"></path><path class="stroke_order_diagram--existing_path" d="M27.91,32.85c0.09,0.6,0.57,1.69,0.62,2.55c0.45,8-0.44,23.11-0.44,30.91" id="Ske2hm24ds" kvg:type="㇑" transform="matrix(1,0,0,1,196,-4)" xmlns:kvg="http://kanjivg.tagaini.net"></path><path class="stroke_order_diagram--current_path" d="M40.56,28.77c0.55,0.21,2.93,0.78,4.4,0.63c10.62-1.12,26.2-3.24,38.9-3.67c1.48-0.05,2.74-0.21,3.66,0" id="kvg:06077-s3" kvg:type="㇐" transform="matrix(1,0,0,1,196,-4)" xmlns:kvg="http://kanjivg.tagaini.net"></path><path class="stroke_order_diagram--current_path" d="M40.56,28.77c0.55,0.21,2.93,0.78,4.4,0.63c10.62-1.12,26.2-3.24,38.9-3.67c1.48-0.05,2.74-0.21,3.66,0" id="Ske2hm24du" kvg:type="㇐" transform="matrix(1,0,0,1,196,-4)" xmlns:kvg="http://kanjivg.tagaini.net"></path><circle class="stroke_order_diagram--path_start" cx="40.56" cy="28.77" r="4" transform="matrix(1,0,0,1,196,-4)"></circle><line class="stroke_order_diagram--guide_line" x1="350" x2="350" y1="1" y2="99"></line><line class="stroke_order_diagram--bounding_box" x1="399" x2="399" y1="1" y2="99"></line><path class="stroke_order_diagram--existing_path" d="M35.4,14.36c0.23,1.49-0.06,3.45-0.79,4.73c-4.64,8.16-10.53,15.82-21.17,25.75" id="Ske2hm24dx" kvg:type="㇒" transform="matrix(1,0,0,1,296,-4)" xmlns:kvg="http://kanjivg.tagaini.net"></path><path class="stroke_order_diagram--existing_path" d="M27.91,32.85c0.09,0.6,0.57,1.69,0.62,2.55c0.45,8-0.44,23.11-0.44,30.91" id="Ske2hm24dy" kvg:type="㇑" transform="matrix(1,0,0,1,296,-4)" xmlns:kvg="http://kanjivg.tagaini.net"></path><path class="stroke_order_diagram--existing_path" d="M40.56,28.77c0.55,0.21,2.93,0.78,4.4,0.63c10.62-1.12,26.2-3.24,38.9-3.67c1.48-0.05,2.74-0.21,3.66,0" id="Ske2hm24dz" kvg:type="㇐" transform="matrix(1,0,0,1,296,-4)" xmlns:kvg="http://kanjivg.tagaini.net"></path><path class="stroke_order_diagram--current_path" d="M60.44,12c0.84,0.33,1.35,1.51,1.52,2.17c0.17,0.67,0,47.64-0.17,51.83" id="kvg:06077-s4" kvg:type="㇑" transform="matrix(1,0,0,1,296,-4)" xmlns:kvg="http://kanjivg.tagaini.net"></path><path class="stroke_order_diagram--current_path" d="M60.44,12c0.84,0.33,1.35,1.51,1.52,2.17c0.17,0.67,0,47.64-0.17,51.83" id="Ske2hm24d11" kvg:type="㇑" transform="matrix(1,0,0,1,296,-4)" xmlns:kvg="http://kanjivg.tagaini.net"></path><circle class="stroke_order_diagram--path_start" cx="60.44" cy="12" r="4" transform="matrix(1,0,0,1,296,-4)"></circle><line class="stroke_order_diagram--guide_line" x1="450" x2="450" y1="1" y2="99"></line><line class="stroke_order_diagram--bounding_box" x1="499" x2="499" y1="1" y2="99"></line><path class="stroke_order_diagram--existing_path" d="M35.4,14.36c0.23,1.49-0.06,3.45-0.79,4.73c-4.64,8.16-10.53,15.82-21.17,25.75" id="Ske2hm24d14" kvg:type="㇒" transform="matrix(1,0,0,1,396,-4)" xmlns:kvg="http://kanjivg.tagaini.net"></path><path class="stroke_order_diagram--existing_path" d="M27.91,32.85c0.09,0.6,0.57,1.69,0.62,2.55c0.45,8-0.44,23.11-0.44,30.91" id="Ske2hm24d15" kvg:type="㇑" transform="matrix(1,0,0,1,396,-4)" xmlns:kvg="http://kanjivg.tagaini.net"></path><path class="stroke_order_diagram--existing_path" d="M40.56,28.77c0.55,0.21,2.93,0.78,4.4,0.63c10.62-1.12,26.2-3.24,38.9-3.67c1.48-0.05,2.74-0.21,3.66,0" id="Ske2hm24d16" kvg:type="㇐" transform="matrix(1,0,0,1,396,-4)" xmlns:kvg="http://kanjivg.tagaini.net"></path><path class="stroke_order_diagram--existing_path" d="M60.44,12c0.84,0.33,1.35,1.51,1.52,2.17c0.17,0.67,0,47.64-0.17,51.83" id="Ske2hm24d17" kvg:type="㇑" transform="matrix(1,0,0,1,396,-4)" xmlns:kvg="http://kanjivg.tagaini.net"></path><path class="stroke_order_diagram--current_path" d="M61.86,27.68c-4.42,9.39-13.77,22.14-22.96,27.45" id="kvg:06077-s5" kvg:type="㇒" transform="matrix(1,0,0,1,396,-4)" xmlns:kvg="http://kanjivg.tagaini.net"></path><path class="stroke_order_diagram--current_path" d="M61.86,27.68c-4.42,9.39-13.77,22.14-22.96,27.45" id="Ske2hm24d19" kvg:type="㇒" transform="matrix(1,0,0,1,396,-4)" xmlns:kvg="http://kanjivg.tagaini.net"></path><circle class="stroke_order_diagram--path_start" cx="61.86" cy="27.68" r="4" transform="matrix(1,0,0,1,396,-4)"></circle><line class="stroke_order_diagram--guide_line" x1="550" x2="550" y1="1" y2="99"></line><line class="stroke_order_diagram--bounding_box" x1="599" x2="599" y1="1" y2="99"></line><path class="stroke_order_diagram--existing_path" d="M35.4,14.36c0.23,1.49-0.06,3.45-0.79,4.73c-4.64,8.16-10.53,15.82-21.17,25.75" id="Ske2hm24d1c" kvg:type="㇒" transform="matrix(1,0,0,1,496,-4)" xmlns:kvg="http://kanjivg.tagaini.net"></path><path class="stroke_order_diagram--existing_path" d="M27.91,32.85c0.09,0.6,0.57,1.69,0.62,2.55c0.45,8-0.44,23.11-0.44,30.91" id="Ske2hm24d1d" kvg:type="㇑" transform="matrix(1,0,0,1,496,-4)" xmlns:kvg="http://kanjivg.tagaini.net"></path><path class="stroke_order_diagram--existing_path" d="M40.56,28.77c0.55,0.21,2.93,0.78,4.4,0.63c10.62-1.12,26.2-3.24,38.9-3.67c1.48-0.05,2.74-0.21,3.66,0" id="Ske2hm24d1e" kvg:type="㇐" transform="matrix(1,0,0,1,496,-4)" xmlns:kvg="http://kanjivg.tagaini.net"></path><path class="stroke_order_diagram--existing_path" d="M60.44,12c0.84,0.33,1.35,1.51,1.52,2.17c0.17,0.67,0,47.64-0.17,51.83" id="Ske2hm24d1f" kvg:type="㇑" transform="matrix(1,0,0,1,496,-4)" xmlns:kvg="http://kanjivg.tagaini.net"></path><path class="stroke_order_diagram--existing_path" d="M61.86,27.68c-4.42,9.39-13.77,22.14-22.96,27.45" id="Ske2hm24d1g" kvg:type="㇒" transform="matrix(1,0,0,1,496,-4)" xmlns:kvg="http://kanjivg.tagaini.net"></path><path class="stroke_order_diagram--current_path" d="M62.13,27.51C68,34,79.75,45.75,88.42,52.99c1.75,1.46,3.02,1.98,4.64,2.37" id="kvg:06077-s6" kvg:type="㇏" transform="matrix(1,0,0,1,496,-4)" xmlns:kvg="http://kanjivg.tagaini.net"></path><path class="stroke_order_diagram--current_path" d="M62.13,27.51C68,34,79.75,45.75,88.42,52.99c1.75,1.46,3.02,1.98,4.64,2.37" id="Ske2hm24d1i" kvg:type="㇏" transform="matrix(1,0,0,1,496,-4)" xmlns:kvg="http://kanjivg.tagaini.net"></path><circle class="stroke_order_diagram--path_start" cx="62.13" cy="27.51" r="4" transform="matrix(1,0,0,1,496,-4)"></circle><line class="stroke_order_diagram--guide_line" x1="650" x2="650" y1="1" y2="99"></line><line class="stroke_order_diagram--bounding_box" x1="699" x2="699" y1="1" y2="99"></line><path class="stroke_order_diagram--existing_path" d="M35.4,14.36c0.23,1.49-0.06,3.45-0.79,4.73c-4.64,8.16-10.53,15.82-21.17,25.75" id="Ske2hm24d1l" kvg:type="㇒" transform="matrix(1,0,0,1,596,-4)" xmlns:kvg="http://kanjivg.tagaini.net"></path><path class="stroke_order_diagram--existing_path" d="M27.91,32.85c0.09,0.6,0.57,1.69,0.62,2.55c0.45,8-0.44,23.11-0.44,30.91" id="Ske2hm24d1m" kvg:type="㇑" transform="matrix(1,0,0,1,596,-4)" xmlns:kvg="http://kanjivg.tagaini.net"></path><path class="stroke_order_diagram--existing_path" d="M40.56,28.77c0.55,0.21,2.93,0.78,4.4,0.63c10.62-1.12,26.2-3.24,38.9-3.67c1.48-0.05,2.74-0.21,3.66,0" id="Ske2hm24d1n" kvg:type="㇐" transform="matrix(1,0,0,1,596,-4)" xmlns:kvg="http://kanjivg.tagaini.net"></path><path class="stroke_order_diagram--existing_path" d="M60.44,12c0.84,0.33,1.35,1.51,1.52,2.17c0.17,0.67,0,47.64-0.17,51.83" id="Ske2hm24d1o" kvg:type="㇑" transform="matrix(1,0,0,1,596,-4)" xmlns:kvg="http://kanjivg.tagaini.net"></path><path class="stroke_order_diagram--existing_path" d="M61.86,27.68c-4.42,9.39-13.77,22.14-22.96,27.45" id="Ske2hm24d1p" kvg:type="㇒" transform="matrix(1,0,0,1,596,-4)" xmlns:kvg="http://kanjivg.tagaini.net"></path><path class="stroke_order_diagram--existing_path" d="M62.13,27.51C68,34,79.75,45.75,88.42,52.99c1.75,1.46,3.02,1.98,4.64,2.37" id="Ske2hm24d1q" kvg:type="㇏" transform="matrix(1,0,0,1,596,-4)" xmlns:kvg="http://kanjivg.tagaini.net"></path><path class="stroke_order_diagram--current_path" d="M24.14,80.07c0.39,2.28-3.92,12.36-7.06,16.17" id="kvg:06077-s7" kvg:type="㇔" transform="matrix(1,0,0,1,596,-4)" xmlns:kvg="http://kanjivg.tagaini.net"></path><path class="stroke_order_diagram--current_path" d="M24.14,80.07c0.39,2.28-3.92,12.36-7.06,16.17" id="Ske2hm24d1s" kvg:type="㇔" transform="matrix(1,0,0,1,596,-4)" xmlns:kvg="http://kanjivg.tagaini.net"></path><circle class="stroke_order_diagram--path_start" cx="24.14" cy="80.07" r="4" transform="matrix(1,0,0,1,596,-4)"></circle><line class="stroke_order_diagram--guide_line" x1="750" x2="750" y1="1" y2="99"></line><line class="stroke_order_diagram--bounding_box" x1="799" x2="799" y1="1" y2="99"></line><path class="stroke_order_diagram--existing_path" d="M35.4,14.36c0.23,1.49-0.06,3.45-0.79,4.73c-4.64,8.16-10.53,15.82-21.17,25.75" id="Ske2hm24d1v" kvg:type="㇒" transform="matrix(1,0,0,1,696,-4)" xmlns:kvg="http://kanjivg.tagaini.net"></path><path class="stroke_order_diagram--existing_path" d="M27.91,32.85c0.09,0.6,0.57,1.69,0.62,2.55c0.45,8-0.44,23.11-0.44,30.91" id="Ske2hm24d1w" kvg:type="㇑" transform="matrix(1,0,0,1,696,-4)" xmlns:kvg="http://kanjivg.tagaini.net"></path><path class="stroke_order_diagram--existing_path" d="M40.56,28.77c0.55,0.21,2.93,0.78,4.4,0.63c10.62-1.12,26.2-3.24,38.9-3.67c1.48-0.05,2.74-0.21,3.66,0" id="Ske2hm24d1x" kvg:type="㇐" transform="matrix(1,0,0,1,696,-4)" xmlns:kvg="http://kanjivg.tagaini.net"></path><path class="stroke_order_diagram--existing_path" d="M60.44,12c0.84,0.33,1.35,1.51,1.52,2.17c0.17,0.67,0,47.64-0.17,51.83" id="Ske2hm24d1y" kvg:type="㇑" transform="matrix(1,0,0,1,696,-4)" xmlns:kvg="http://kanjivg.tagaini.net"></path><path class="stroke_order_diagram--existing_path" d="M61.86,27.68c-4.42,9.39-13.77,22.14-22.96,27.45" id="Ske2hm24d1z" kvg:type="㇒" transform="matrix(1,0,0,1,696,-4)" xmlns:kvg="http://kanjivg.tagaini.net"></path><path class="stroke_order_diagram--existing_path" d="M62.13,27.51C68,34,79.75,45.75,88.42,52.99c1.75,1.46,3.02,1.98,4.64,2.37" id="Ske2hm24d20" kvg:type="㇏" transform="matrix(1,0,0,1,696,-4)" xmlns:kvg="http://kanjivg.tagaini.net"></path><path class="stroke_order_diagram--existing_path" d="M24.14,80.07c0.39,2.28-3.92,12.36-7.06,16.17" id="Ske2hm24d21" kvg:type="㇔" transform="matrix(1,0,0,1,696,-4)" xmlns:kvg="http://kanjivg.tagaini.net"></path><path class="stroke_order_diagram--current_path" d="M35.58,73.25c6.17,13.66,15.92,25.51,39.7,25.68c11.47,0.08,12.22-3.64,2.65-9.86" id="kvg:06077-s8" kvg:type="㇟b" transform="matrix(1,0,0,1,696,-4)" xmlns:kvg="http://kanjivg.tagaini.net"></path><path class="stroke_order_diagram--current_path" d="M35.58,73.25c6.17,13.66,15.92,25.51,39.7,25.68c11.47,0.08,12.22-3.64,2.65-9.86" id="Ske2hm24d23" kvg:type="㇟b" transform="matrix(1,0,0,1,696,-4)" xmlns:kvg="http://kanjivg.tagaini.net"></path><circle class="stroke_order_diagram--path_start" cx="35.58" cy="73.25" r="4" transform="matrix(1,0,0,1,696,-4)"></circle><line class="stroke_order_diagram--guide_line" x1="850" x2="850" y1="1" y2="99"></line><line class="stroke_order_diagram--bounding_box" x1="899" x2="899" y1="1" y2="99"></line><path class="stroke_order_diagram--existing_path" d="M35.4,14.36c0.23,1.49-0.06,3.45-0.79,4.73c-4.64,8.16-10.53,15.82-21.17,25.75" id="Ske2hm24d26" kvg:type="㇒" transform="matrix(1,0,0,1,796,-4)" xmlns:kvg="http://kanjivg.tagaini.net"></path><path class="stroke_order_diagram--existing_path" d="M27.91,32.85c0.09,0.6,0.57,1.69,0.62,2.55c0.45,8-0.44,23.11-0.44,30.91" id="Ske2hm24d27" kvg:type="㇑" transform="matrix(1,0,0,1,796,-4)" xmlns:kvg="http://kanjivg.tagaini.net"></path><path class="stroke_order_diagram--existing_path" d="M40.56,28.77c0.55,0.21,2.93,0.78,4.4,0.63c10.62-1.12,26.2-3.24,38.9-3.67c1.48-0.05,2.74-0.21,3.66,0" id="Ske2hm24d28" kvg:type="㇐" transform="matrix(1,0,0,1,796,-4)" xmlns:kvg="http://kanjivg.tagaini.net"></path><path class="stroke_order_diagram--existing_path" d="M60.44,12c0.84,0.33,1.35,1.51,1.52,2.17c0.17,0.67,0,47.64-0.17,51.83" id="Ske2hm24d29" kvg:type="㇑" transform="matrix(1,0,0,1,796,-4)" xmlns:kvg="http://kanjivg.tagaini.net"></path><path class="stroke_order_diagram--existing_path" d="M61.86,27.68c-4.42,9.39-13.77,22.14-22.96,27.45" id="Ske2hm24d2a" kvg:type="㇒" transform="matrix(1,0,0,1,796,-4)" xmlns:kvg="http://kanjivg.tagaini.net"></path><path class="stroke_order_diagram--existing_path" d="M62.13,27.51C68,34,79.75,45.75,88.42,52.99c1.75,1.46,3.02,1.98,4.64,2.37" id="Ske2hm24d2b" kvg:type="㇏" transform="matrix(1,0,0,1,796,-4)" xmlns:kvg="http://kanjivg.tagaini.net"></path><path class="stroke_order_diagram--existing_path" d="M24.14,80.07c0.39,2.28-3.92,12.36-7.06,16.17" id="Ske2hm24d2c" kvg:type="㇔" transform="matrix(1,0,0,1,796,-4)" xmlns:kvg="http://kanjivg.tagaini.net"></path><path class="stroke_order_diagram--existing_path" d="M35.58,73.25c6.17,13.66,15.92,25.51,39.7,25.68c11.47,0.08,12.22-3.64,2.65-9.86" id="Ske2hm24d2d" kvg:type="㇟b" transform="matrix(1,0,0,1,796,-4)" xmlns:kvg="http://kanjivg.tagaini.net"></path><path class="stroke_order_diagram--current_path" d="M55.91,73.25c2.17,5.25,5.32,10.5,7.63,2.46" id="kvg:06077-s9" kvg:type="㇔a" transform="matrix(1,0,0,1,796,-4)" xmlns:kvg="http://kanjivg.tagaini.net"></path><path class="stroke_order_diagram--current_path" d="M55.91,73.25c2.17,5.25,5.32,10.5,7.63,2.46" id="Ske2hm24d2f" kvg:type="㇔a" transform="matrix(1,0,0,1,796,-4)" xmlns:kvg="http://kanjivg.tagaini.net"></path><circle class="stroke_order_diagram--path_start" cx="55.91" cy="73.25" r="4" transform="matrix(1,0,0,1,796,-4)"></circle><line class="stroke_order_diagram--guide_line" x1="950" x2="950" y1="1" y2="99"></line><line class="stroke_order_diagram--bounding_box" x1="999" x2="999" y1="1" y2="99"></line><path class="stroke_order_diagram--existing_path" d="M35.4,14.36c0.23,1.49-0.06,3.45-0.79,4.73c-4.64,8.16-10.53,15.82-21.17,25.75" id="Ske2hm24d2i" kvg:type="㇒" transform="matrix(1,0,0,1,896,-4)" xmlns:kvg="http://kanjivg.tagaini.net"></path><path class="stroke_order_diagram--existing_path" d="M27.91,32.85c0.09,0.6,0.57,1.69,0.62,2.55c0.45,8-0.44,23.11-0.44,30.91" id="Ske2hm24d2j" kvg:type="㇑" transform="matrix(1,0,0,1,896,-4)" xmlns:kvg="http://kanjivg.tagaini.net"></path><path class="stroke_order_diagram--existing_path" d="M40.56,28.77c0.55,0.21,2.93,0.78,4.4,0.63c10.62-1.12,26.2-3.24,38.9-3.67c1.48-0.05,2.74-0.21,3.66,0" id="Ske2hm24d2k" kvg:type="㇐" transform="matrix(1,0,0,1,896,-4)" xmlns:kvg="http://kanjivg.tagaini.net"></path><path class="stroke_order_diagram--existing_path" d="M60.44,12c0.84,0.33,1.35,1.51,1.52,2.17c0.17,0.67,0,47.64-0.17,51.83" id="Ske2hm24d2l" kvg:type="㇑" transform="matrix(1,0,0,1,896,-4)" xmlns:kvg="http://kanjivg.tagaini.net"></path><path class="stroke_order_diagram--existing_path" d="M61.86,27.68c-4.42,9.39-13.77,22.14-22.96,27.45" id="Ske2hm24d2m" kvg:type="㇒" transform="matrix(1,0,0,1,896,-4)" xmlns:kvg="http://kanjivg.tagaini.net"></path><path class="stroke_order_diagram--existing_path" d="M62.13,27.51C68,34,79.75,45.75,88.42,52.99c1.75,1.46,3.02,1.98,4.64,2.37" id="Ske2hm24d2n" kvg:type="㇏" transform="matrix(1,0,0,1,896,-4)" xmlns:kvg="http://kanjivg.tagaini.net"></path><path class="stroke_order_diagram--existing_path" d="M24.14,80.07c0.39,2.28-3.92,12.36-7.06,16.17" id="Ske2hm24d2o" kvg:type="㇔" transform="matrix(1,0,0,1,896,-4)" xmlns:kvg="http://kanjivg.tagaini.net"></path><path class="stroke_order_diagram--existing_path" d="M35.58,73.25c6.17,13.66,15.92,25.51,39.7,25.68c11.47,0.08,12.22-3.64,2.65-9.86" id="Ske2hm24d2p" kvg:type="㇟b" transform="matrix(1,0,0,1,896,-4)" xmlns:kvg="http://kanjivg.tagaini.net"></path><path class="stroke_order_diagram--existing_path" d="M55.91,73.25c2.17,5.25,5.32,10.5,7.63,2.46" id="Ske2hm24d2q" kvg:type="㇔a" transform="matrix(1,0,0,1,896,-4)" xmlns:kvg="http://kanjivg.tagaini.net"></path><path class="stroke_order_diagram--current_path" d="M82.38,72.23c4.63,2.07,8.09,3.96,11.85,10.36" id="kvg:06077-s10" kvg:type="㇔" transform="matrix(1,0,0,1,896,-4)" xmlns:kvg="http://kanjivg.tagaini.net"></path><path class="stroke_order_diagram--current_path" d="M82.38,72.23c4.63,2.07,8.09,3.96,11.85,10.36" id="Ske2hm24d2s" kvg:type="㇔" transform="matrix(1,0,0,1,896,-4)" xmlns:kvg="http://kanjivg.tagaini.net"></path><circle class="stroke_order_diagram--path_start" cx="82.38" cy="72.23" r="4" transform="matrix(1,0,0,1,896,-4)"></circle></svg>