<svg class="stroke_order_diagram--svg_container_for_518662a7d5dda79658000ea6" style="height: 100px; width: 1300px;" viewbox="0 0 1300 100"><desc>Created with Snap</desc><defs></defs><line class="stroke_order_diagram--bounding_box" x1="1" x2="1299" y1="1" y2="1"></line><line class="stroke_order_diagram--bounding_box" x1="1" x2="1" y1="1" y2="99"></line><line class="stroke_order_diagram--bounding_box" x1="1" x2="1299" y1="99" y2="99"></line><line class="stroke_order_diagram--guide_line" x1="0" x2="1300" y1="50" y2="50"></line><line class="stroke_order_diagram--guide_line" x1="50" x2="50" y1="1" y2="99"></line><line class="stroke_order_diagram--bounding_box" x1="99" x2="99" y1="1" y2="99"></line><path class="stroke_order_diagram--current_path" d="M16.72,34c0.03,4.31-2.47,14.14-4.69,17.5" id="kvg:0613e-s1" kvg:type="㇔" transform="matrix(1,0,0,1,-4,-4)" xmlns:kvg="http://kanjivg.tagaini.net"></path><path class="stroke_order_diagram--current_path" d="M16.72,34c0.03,4.31-2.47,14.14-4.69,17.5" id="Ske2hzy6rm" kvg:type="㇔" transform="matrix(1,0,0,1,-4,-4)" xmlns:kvg="http://kanjivg.tagaini.net"></path><circle class="stroke_order_diagram--path_start" cx="16.72" cy="34" r="4" transform="matrix(1,0,0,1,-4,-4)"></circle><line class="stroke_order_diagram--guide_line" x1="150" x2="150" y1="1" y2="99"></line><line class="stroke_order_diagram--bounding_box" x1="199" x2="199" y1="1" y2="99"></line><path class="stroke_order_diagram--existing_path" d="M16.72,34c0.03,4.31-2.47,14.14-4.69,17.5" id="Ske2hzy6rp" kvg:type="㇔" transform="matrix(1,0,0,1,96,-4)" xmlns:kvg="http://kanjivg.tagaini.net"></path><path class="stroke_order_diagram--current_path" d="M27.52,33.08c2.49,1.92,6.42,7.9,7.04,10.88" id="kvg:0613e-s2" kvg:type="㇔" transform="matrix(1,0,0,1,96,-4)" xmlns:kvg="http://kanjivg.tagaini.net"></path><path class="stroke_order_diagram--current_path" d="M27.52,33.08c2.49,1.92,6.42,7.9,7.04,10.88" id="Ske2hzy6rr" kvg:type="㇔" transform="matrix(1,0,0,1,96,-4)" xmlns:kvg="http://kanjivg.tagaini.net"></path><circle class="stroke_order_diagram--path_start" cx="27.52" cy="33.08" r="4" transform="matrix(1,0,0,1,96,-4)"></circle><line class="stroke_order_diagram--guide_line" x1="250" x2="250" y1="1" y2="99"></line><line class="stroke_order_diagram--bounding_box" x1="299" x2="299" y1="1" y2="99"></line><path class="stroke_order_diagram--existing_path" d="M16.72,34c0.03,4.31-2.47,14.14-4.69,17.5" id="Ske2hzy6ru" kvg:type="㇔" transform="matrix(1,0,0,1,196,-4)" xmlns:kvg="http://kanjivg.tagaini.net"></path><path class="stroke_order_diagram--existing_path" d="M27.52,33.08c2.49,1.92,6.42,7.9,7.04,10.88" id="Ske2hzy6rv" kvg:type="㇔" transform="matrix(1,0,0,1,196,-4)" xmlns:kvg="http://kanjivg.tagaini.net"></path><path class="stroke_order_diagram--current_path" d="M22.37,12.25c1.09,0.5,1.74,2.25,1.96,3.25c0.22,1,0,75.75-0.22,82" id="kvg:0613e-s3" kvg:type="㇑" transform="matrix(1,0,0,1,196,-4)" xmlns:kvg="http://kanjivg.tagaini.net"></path><path class="stroke_order_diagram--current_path" d="M22.37,12.25c1.09,0.5,1.74,2.25,1.96,3.25c0.22,1,0,75.75-0.22,82" id="Ske2hzy6rx" kvg:type="㇑" transform="matrix(1,0,0,1,196,-4)" xmlns:kvg="http://kanjivg.tagaini.net"></path><circle class="stroke_order_diagram--path_start" cx="22.37" cy="12.25" r="4" transform="matrix(1,0,0,1,196,-4)"></circle><line class="stroke_order_diagram--guide_line" x1="350" x2="350" y1="1" y2="99"></line><line class="stroke_order_diagram--bounding_box" x1="399" x2="399" y1="1" y2="99"></line><path class="stroke_order_diagram--existing_path" d="M16.72,34c0.03,4.31-2.47,14.14-4.69,17.5" id="Ske2hzy6r10" kvg:type="㇔" transform="matrix(1,0,0,1,296,-4)" xmlns:kvg="http://kanjivg.tagaini.net"></path><path class="stroke_order_diagram--existing_path" d="M27.52,33.08c2.49,1.92,6.42,7.9,7.04,10.88" id="Ske2hzy6r11" kvg:type="㇔" transform="matrix(1,0,0,1,296,-4)" xmlns:kvg="http://kanjivg.tagaini.net"></path><path class="stroke_order_diagram--existing_path" d="M22.37,12.25c1.09,0.5,1.74,2.25,1.96,3.25c0.22,1,0,75.75-0.22,82" id="Ske2hzy6r12" kvg:type="㇑" transform="matrix(1,0,0,1,296,-4)" xmlns:kvg="http://kanjivg.tagaini.net"></path><path class="stroke_order_diagram--current_path" d="M51.15,11.69c0.2,1.42-0.01,1.96-0.39,3c-1.33,3.67-7.58,16.81-12.27,22.28" id="kvg:0613e-s4" kvg:type="㇒" transform="matrix(1,0,0,1,296,-4)" xmlns:kvg="http://kanjivg.tagaini.net"></path><path class="stroke_order_diagram--current_path" d="M51.15,11.69c0.2,1.42-0.01,1.96-0.39,3c-1.33,3.67-7.58,16.81-12.27,22.28" id="Ske2hzy6r14" kvg:type="㇒" transform="matrix(1,0,0,1,296,-4)" xmlns:kvg="http://kanjivg.tagaini.net"></path><circle class="stroke_order_diagram--path_start" cx="51.15" cy="11.69" r="4" transform="matrix(1,0,0,1,296,-4)"></circle><line class="stroke_order_diagram--guide_line" x1="450" x2="450" y1="1" y2="99"></line><line class="stroke_order_diagram--bounding_box" x1="499" x2="499" y1="1" y2="99"></line><path class="stroke_order_diagram--existing_path" d="M16.72,34c0.03,4.31-2.47,14.14-4.69,17.5" id="Ske2hzy6r17" kvg:type="㇔" transform="matrix(1,0,0,1,396,-4)" xmlns:kvg="http://kanjivg.tagaini.net"></path><path class="stroke_order_diagram--existing_path" d="M27.52,33.08c2.49,1.92,6.42,7.9,7.04,10.88" id="Ske2hzy6r18" kvg:type="㇔" transform="matrix(1,0,0,1,396,-4)" xmlns:kvg="http://kanjivg.tagaini.net"></path><path class="stroke_order_diagram--existing_path" d="M22.37,12.25c1.09,0.5,1.74,2.25,1.96,3.25c0.22,1,0,75.75-0.22,82" id="Ske2hzy6r19" kvg:type="㇑" transform="matrix(1,0,0,1,396,-4)" xmlns:kvg="http://kanjivg.tagaini.net"></path><path class="stroke_order_diagram--existing_path" d="M51.15,11.69c0.2,1.42-0.01,1.96-0.39,3c-1.33,3.67-7.58,16.81-12.27,22.28" id="Ske2hzy6r1a" kvg:type="㇒" transform="matrix(1,0,0,1,396,-4)" xmlns:kvg="http://kanjivg.tagaini.net"></path><path class="stroke_order_diagram--current_path" d="M49.39,22.68c1.57,0.34,2.9,0.56,4.04,0.49c8.05-0.54,21.16-3.04,30.86-3.43c0.98-0.04,2.86-0.07,3.76-0.09" id="kvg:0613e-s5" kvg:type="㇐" transform="matrix(1,0,0,1,396,-4)" xmlns:kvg="http://kanjivg.tagaini.net"></path><path class="stroke_order_diagram--current_path" d="M49.39,22.68c1.57,0.34,2.9,0.56,4.04,0.49c8.05-0.54,21.16-3.04,30.86-3.43c0.98-0.04,2.86-0.07,3.76-0.09" id="Ske2hzy6r1c" kvg:type="㇐" transform="matrix(1,0,0,1,396,-4)" xmlns:kvg="http://kanjivg.tagaini.net"></path><circle class="stroke_order_diagram--path_start" cx="49.39" cy="22.68" r="4" transform="matrix(1,0,0,1,396,-4)"></circle><line class="stroke_order_diagram--guide_line" x1="550" x2="550" y1="1" y2="99"></line><line class="stroke_order_diagram--bounding_box" x1="599" x2="599" y1="1" y2="99"></line><path class="stroke_order_diagram--existing_path" d="M16.72,34c0.03,4.31-2.47,14.14-4.69,17.5" id="Ske2hzy6r1f" kvg:type="㇔" transform="matrix(1,0,0,1,496,-4)" xmlns:kvg="http://kanjivg.tagaini.net"></path><path class="stroke_order_diagram--existing_path" d="M27.52,33.08c2.49,1.92,6.42,7.9,7.04,10.88" id="Ske2hzy6r1g" kvg:type="㇔" transform="matrix(1,0,0,1,496,-4)" xmlns:kvg="http://kanjivg.tagaini.net"></path><path class="stroke_order_diagram--existing_path" d="M22.37,12.25c1.09,0.5,1.74,2.25,1.96,3.25c0.22,1,0,75.75-0.22,82" id="Ske2hzy6r1h" kvg:type="㇑" transform="matrix(1,0,0,1,496,-4)" xmlns:kvg="http://kanjivg.tagaini.net"></path><path class="stroke_order_diagram--existing_path" d="M51.15,11.69c0.2,1.42-0.01,1.96-0.39,3c-1.33,3.67-7.58,16.81-12.27,22.28" id="Ske2hzy6r1i" kvg:type="㇒" transform="matrix(1,0,0,1,496,-4)" xmlns:kvg="http://kanjivg.tagaini.net"></path><path class="stroke_order_diagram--existing_path" d="M49.39,22.68c1.57,0.34,2.9,0.56,4.04,0.49c8.05-0.54,21.16-3.04,30.86-3.43c0.98-0.04,2.86-0.07,3.76-0.09" id="Ske2hzy6r1j" kvg:type="㇐" transform="matrix(1,0,0,1,496,-4)" xmlns:kvg="http://kanjivg.tagaini.net"></path><path class="stroke_order_diagram--current_path" d="M49.21,35.21c0.82,0.02,1.8,0.01,2.89-0.06c6.35-0.42,17.76-2.31,24.17-2.83c1.18-0.1,3.1-0.16,3.96-0.18" id="kvg:0613e-s6" kvg:type="㇐" transform="matrix(1,0,0,1,496,-4)" xmlns:kvg="http://kanjivg.tagaini.net"></path><path class="stroke_order_diagram--current_path" d="M49.21,35.21c0.82,0.02,1.8,0.01,2.89-0.06c6.35-0.42,17.76-2.31,24.17-2.83c1.18-0.1,3.1-0.16,3.96-0.18" id="Ske2hzy6r1l" kvg:type="㇐" transform="matrix(1,0,0,1,496,-4)" xmlns:kvg="http://kanjivg.tagaini.net"></path><circle class="stroke_order_diagram--path_start" cx="49.21" cy="35.21" r="4" transform="matrix(1,0,0,1,496,-4)"></circle><line class="stroke_order_diagram--guide_line" x1="650" x2="650" y1="1" y2="99"></line><line class="stroke_order_diagram--bounding_box" x1="699" x2="699" y1="1" y2="99"></line><path class="stroke_order_diagram--existing_path" d="M16.72,34c0.03,4.31-2.47,14.14-4.69,17.5" id="Ske2hzy6r1o" kvg:type="㇔" transform="matrix(1,0,0,1,596,-4)" xmlns:kvg="http://kanjivg.tagaini.net"></path><path class="stroke_order_diagram--existing_path" d="M27.52,33.08c2.49,1.92,6.42,7.9,7.04,10.88" id="Ske2hzy6r1p" kvg:type="㇔" transform="matrix(1,0,0,1,596,-4)" xmlns:kvg="http://kanjivg.tagaini.net"></path><path class="stroke_order_diagram--existing_path" d="M22.37,12.25c1.09,0.5,1.74,2.25,1.96,3.25c0.22,1,0,75.75-0.22,82" id="Ske2hzy6r1q" kvg:type="㇑" transform="matrix(1,0,0,1,596,-4)" xmlns:kvg="http://kanjivg.tagaini.net"></path><path class="stroke_order_diagram--existing_path" d="M51.15,11.69c0.2,1.42-0.01,1.96-0.39,3c-1.33,3.67-7.58,16.81-12.27,22.28" id="Ske2hzy6r1r" kvg:type="㇒" transform="matrix(1,0,0,1,596,-4)" xmlns:kvg="http://kanjivg.tagaini.net"></path><path class="stroke_order_diagram--existing_path" d="M49.39,22.68c1.57,0.34,2.9,0.56,4.04,0.49c8.05-0.54,21.16-3.04,30.86-3.43c0.98-0.04,2.86-0.07,3.76-0.09" id="Ske2hzy6r1s" kvg:type="㇐" transform="matrix(1,0,0,1,596,-4)" xmlns:kvg="http://kanjivg.tagaini.net"></path><path class="stroke_order_diagram--existing_path" d="M49.21,35.21c0.82,0.02,1.8,0.01,2.89-0.06c6.35-0.42,17.76-2.31,24.17-2.83c1.18-0.1,3.1-0.16,3.96-0.18" id="Ske2hzy6r1t" kvg:type="㇐" transform="matrix(1,0,0,1,596,-4)" xmlns:kvg="http://kanjivg.tagaini.net"></path><path class="stroke_order_diagram--current_path" d="M40.93,46.18c0.91,0.45,2.67,0.6,3.94,0.51c10.45-0.74,28.78-3.85,37.34-5.19c2.35-0.37,2.53,1.04,2.12,2.76C79.5,65,81,83.5,93.13,95.23c6.23,6.02,5.25,1.07,4.26-7.63" id="kvg:0613e-s7" kvg:type="㇈a" transform="matrix(1,0,0,1,596,-4)" xmlns:kvg="http://kanjivg.tagaini.net"></path><path class="stroke_order_diagram--current_path" d="M40.93,46.18c0.91,0.45,2.67,0.6,3.94,0.51c10.45-0.74,28.78-3.85,37.34-5.19c2.35-0.37,2.53,1.04,2.12,2.76C79.5,65,81,83.5,93.13,95.23c6.23,6.02,5.25,1.07,4.26-7.63" id="Ske2hzy6r1v" kvg:type="㇈a" transform="matrix(1,0,0,1,596,-4)" xmlns:kvg="http://kanjivg.tagaini.net"></path><circle class="stroke_order_diagram--path_start" cx="40.93" cy="46.18" r="4" transform="matrix(1,0,0,1,596,-4)"></circle><line class="stroke_order_diagram--guide_line" x1="750" x2="750" y1="1" y2="99"></line><line class="stroke_order_diagram--bounding_box" x1="799" x2="799" y1="1" y2="99"></line><path class="stroke_order_diagram--existing_path" d="M16.72,34c0.03,4.31-2.47,14.14-4.69,17.5" id="Ske2hzy6r1y" kvg:type="㇔" transform="matrix(1,0,0,1,696,-4)" xmlns:kvg="http://kanjivg.tagaini.net"></path><path class="stroke_order_diagram--existing_path" d="M27.52,33.08c2.49,1.92,6.42,7.9,7.04,10.88" id="Ske2hzy6r1z" kvg:type="㇔" transform="matrix(1,0,0,1,696,-4)" xmlns:kvg="http://kanjivg.tagaini.net"></path><path class="stroke_order_diagram--existing_path" d="M22.37,12.25c1.09,0.5,1.74,2.25,1.96,3.25c0.22,1,0,75.75-0.22,82" id="Ske2hzy6r20" kvg:type="㇑" transform="matrix(1,0,0,1,696,-4)" xmlns:kvg="http://kanjivg.tagaini.net"></path><path class="stroke_order_diagram--existing_path" d="M51.15,11.69c0.2,1.42-0.01,1.96-0.39,3c-1.33,3.67-7.58,16.81-12.27,22.28" id="Ske2hzy6r21" kvg:type="㇒" transform="matrix(1,0,0,1,696,-4)" xmlns:kvg="http://kanjivg.tagaini.net"></path><path class="stroke_order_diagram--existing_path" d="M49.39,22.68c1.57,0.34,2.9,0.56,4.04,0.49c8.05-0.54,21.16-3.04,30.86-3.43c0.98-0.04,2.86-0.07,3.76-0.09" id="Ske2hzy6r22" kvg:type="㇐" transform="matrix(1,0,0,1,696,-4)" xmlns:kvg="http://kanjivg.tagaini.net"></path><path class="stroke_order_diagram--existing_path" d="M49.21,35.21c0.82,0.02,1.8,0.01,2.89-0.06c6.35-0.42,17.76-2.31,24.17-2.83c1.18-0.1,3.1-0.16,3.96-0.18" id="Ske2hzy6r23" kvg:type="㇐" transform="matrix(1,0,0,1,696,-4)" xmlns:kvg="http://kanjivg.tagaini.net"></path><path class="stroke_order_diagram--existing_path" d="M40.93,46.18c0.91,0.45,2.67,0.6,3.94,0.51c10.45-0.74,28.78-3.85,37.34-5.19c2.35-0.37,2.53,1.04,2.12,2.76C79.5,65,81,83.5,93.13,95.23c6.23,6.02,5.25,1.07,4.26-7.63" id="Ske2hzy6r24" kvg:type="㇈a" transform="matrix(1,0,0,1,696,-4)" xmlns:kvg="http://kanjivg.tagaini.net"></path><path class="stroke_order_diagram--current_path" d="M41.43,54.07c2.33,1.55,5.84,5.94,6.43,8.35" id="kvg:0613e-s8" kvg:type="㇔" transform="matrix(1,0,0,1,696,-4)" xmlns:kvg="http://kanjivg.tagaini.net"></path><path class="stroke_order_diagram--current_path" d="M41.43,54.07c2.33,1.55,5.84,5.94,6.43,8.35" id="Ske2hzy6r26" kvg:type="㇔" transform="matrix(1,0,0,1,696,-4)" xmlns:kvg="http://kanjivg.tagaini.net"></path><circle class="stroke_order_diagram--path_start" cx="41.43" cy="54.07" r="4" transform="matrix(1,0,0,1,696,-4)"></circle><line class="stroke_order_diagram--guide_line" x1="850" x2="850" y1="1" y2="99"></line><line class="stroke_order_diagram--bounding_box" x1="899" x2="899" y1="1" y2="99"></line><path class="stroke_order_diagram--existing_path" d="M16.72,34c0.03,4.31-2.47,14.14-4.69,17.5" id="Ske2hzy6r29" kvg:type="㇔" transform="matrix(1,0,0,1,796,-4)" xmlns:kvg="http://kanjivg.tagaini.net"></path><path class="stroke_order_diagram--existing_path" d="M27.52,33.08c2.49,1.92,6.42,7.9,7.04,10.88" id="Ske2hzy6r2a" kvg:type="㇔" transform="matrix(1,0,0,1,796,-4)" xmlns:kvg="http://kanjivg.tagaini.net"></path><path class="stroke_order_diagram--existing_path" d="M22.37,12.25c1.09,0.5,1.74,2.25,1.96,3.25c0.22,1,0,75.75-0.22,82" id="Ske2hzy6r2b" kvg:type="㇑" transform="matrix(1,0,0,1,796,-4)" xmlns:kvg="http://kanjivg.tagaini.net"></path><path class="stroke_order_diagram--existing_path" d="M51.15,11.69c0.2,1.42-0.01,1.96-0.39,3c-1.33,3.67-7.58,16.81-12.27,22.28" id="Ske2hzy6r2c" kvg:type="㇒" transform="matrix(1,0,0,1,796,-4)" xmlns:kvg="http://kanjivg.tagaini.net"></path><path class="stroke_order_diagram--existing_path" d="M49.39,22.68c1.57,0.34,2.9,0.56,4.04,0.49c8.05-0.54,21.16-3.04,30.86-3.43c0.98-0.04,2.86-0.07,3.76-0.09" id="Ske2hzy6r2d" kvg:type="㇐" transform="matrix(1,0,0,1,796,-4)" xmlns:kvg="http://kanjivg.tagaini.net"></path><path class="stroke_order_diagram--existing_path" d="M49.21,35.21c0.82,0.02,1.8,0.01,2.89-0.06c6.35-0.42,17.76-2.31,24.17-2.83c1.18-0.1,3.1-0.16,3.96-0.18" id="Ske2hzy6r2e" kvg:type="㇐" transform="matrix(1,0,0,1,796,-4)" xmlns:kvg="http://kanjivg.tagaini.net"></path><path class="stroke_order_diagram--existing_path" d="M40.93,46.18c0.91,0.45,2.67,0.6,3.94,0.51c10.45-0.74,28.78-3.85,37.34-5.19c2.35-0.37,2.53,1.04,2.12,2.76C79.5,65,81,83.5,93.13,95.23c6.23,6.02,5.25,1.07,4.26-7.63" id="Ske2hzy6r2f" kvg:type="㇈a" transform="matrix(1,0,0,1,796,-4)" xmlns:kvg="http://kanjivg.tagaini.net"></path><path class="stroke_order_diagram--existing_path" d="M41.43,54.07c2.33,1.55,5.84,5.94,6.43,8.35" id="Ske2hzy6r2g" kvg:type="㇔" transform="matrix(1,0,0,1,796,-4)" xmlns:kvg="http://kanjivg.tagaini.net"></path><path class="stroke_order_diagram--current_path" d="M71.95,50.58c0.03,0.29,0.05,0.75-0.05,1.17c-0.6,2.47-4.04,7.9-8.75,11.22" id="kvg:0613e-s9" kvg:type="㇒" transform="matrix(1,0,0,1,796,-4)" xmlns:kvg="http://kanjivg.tagaini.net"></path><path class="stroke_order_diagram--current_path" d="M71.95,50.58c0.03,0.29,0.05,0.75-0.05,1.17c-0.6,2.47-4.04,7.9-8.75,11.22" id="Ske2hzy6r2i" kvg:type="㇒" transform="matrix(1,0,0,1,796,-4)" xmlns:kvg="http://kanjivg.tagaini.net"></path><circle class="stroke_order_diagram--path_start" cx="71.95" cy="50.58" r="4" transform="matrix(1,0,0,1,796,-4)"></circle><line class="stroke_order_diagram--guide_line" x1="950" x2="950" y1="1" y2="99"></line><line class="stroke_order_diagram--bounding_box" x1="999" x2="999" y1="1" y2="99"></line><path class="stroke_order_diagram--existing_path" d="M16.72,34c0.03,4.31-2.47,14.14-4.69,17.5" id="Ske2hzy6r2l" kvg:type="㇔" transform="matrix(1,0,0,1,896,-4)" xmlns:kvg="http://kanjivg.tagaini.net"></path><path class="stroke_order_diagram--existing_path" d="M27.52,33.08c2.49,1.92,6.42,7.9,7.04,10.88" id="Ske2hzy6r2m" kvg:type="㇔" transform="matrix(1,0,0,1,896,-4)" xmlns:kvg="http://kanjivg.tagaini.net"></path><path class="stroke_order_diagram--existing_path" d="M22.37,12.25c1.09,0.5,1.74,2.25,1.96,3.25c0.22,1,0,75.75-0.22,82" id="Ske2hzy6r2n" kvg:type="㇑" transform="matrix(1,0,0,1,896,-4)" xmlns:kvg="http://kanjivg.tagaini.net"></path><path class="stroke_order_diagram--existing_path" d="M51.15,11.69c0.2,1.42-0.01,1.96-0.39,3c-1.33,3.67-7.58,16.81-12.27,22.28" id="Ske2hzy6r2o" kvg:type="㇒" transform="matrix(1,0,0,1,896,-4)" xmlns:kvg="http://kanjivg.tagaini.net"></path><path class="stroke_order_diagram--existing_path" d="M49.39,22.68c1.57,0.34,2.9,0.56,4.04,0.49c8.05-0.54,21.16-3.04,30.86-3.43c0.98-0.04,2.86-0.07,3.76-0.09" id="Ske2hzy6r2p" kvg:type="㇐" transform="matrix(1,0,0,1,896,-4)" xmlns:kvg="http://kanjivg.tagaini.net"></path><path class="stroke_order_diagram--existing_path" d="M49.21,35.21c0.82,0.02,1.8,0.01,2.89-0.06c6.35-0.42,17.76-2.31,24.17-2.83c1.18-0.1,3.1-0.16,3.96-0.18" id="Ske2hzy6r2q" kvg:type="㇐" transform="matrix(1,0,0,1,896,-4)" xmlns:kvg="http://kanjivg.tagaini.net"></path><path class="stroke_order_diagram--existing_path" d="M40.93,46.18c0.91,0.45,2.67,0.6,3.94,0.51c10.45-0.74,28.78-3.85,37.34-5.19c2.35-0.37,2.53,1.04,2.12,2.76C79.5,65,81,83.5,93.13,95.23c6.23,6.02,5.25,1.07,4.26-7.63" id="Ske2hzy6r2r" kvg:type="㇈a" transform="matrix(1,0,0,1,896,-4)" xmlns:kvg="http://kanjivg.tagaini.net"></path><path class="stroke_order_diagram--existing_path" d="M41.43,54.07c2.33,1.55,5.84,5.94,6.43,8.35" id="Ske2hzy6r2s" kvg:type="㇔" transform="matrix(1,0,0,1,896,-4)" xmlns:kvg="http://kanjivg.tagaini.net"></path><path class="stroke_order_diagram--existing_path" d="M71.95,50.58c0.03,0.29,0.05,0.75-0.05,1.17c-0.6,2.47-4.04,7.9-8.75,11.22" id="Ske2hzy6r2t" kvg:type="㇒" transform="matrix(1,0,0,1,896,-4)" xmlns:kvg="http://kanjivg.tagaini.net"></path><path class="stroke_order_diagram--current_path" d="M38.64,67.8c0.44,0.15,1.61,0.39,2.78,0.44c3.22,0.15,29.11-3.84,34.23-3.55c1.17,0.07,1.46-0.15,2.19,0" id="kvg:0613e-s10" kvg:type="㇐" transform="matrix(1,0,0,1,896,-4)" xmlns:kvg="http://kanjivg.tagaini.net"></path><path class="stroke_order_diagram--current_path" d="M38.64,67.8c0.44,0.15,1.61,0.39,2.78,0.44c3.22,0.15,29.11-3.84,34.23-3.55c1.17,0.07,1.46-0.15,2.19,0" id="Ske2hzy6r2v" kvg:type="㇐" transform="matrix(1,0,0,1,896,-4)" xmlns:kvg="http://kanjivg.tagaini.net"></path><circle class="stroke_order_diagram--path_start" cx="38.64" cy="67.8" r="4" transform="matrix(1,0,0,1,896,-4)"></circle><line class="stroke_order_diagram--guide_line" x1="1050" x2="1050" y1="1" y2="99"></line><line class="stroke_order_diagram--bounding_box" x1="1099" x2="1099" y1="1" y2="99"></line><path class="stroke_order_diagram--existing_path" d="M16.72,34c0.03,4.31-2.47,14.14-4.69,17.5" id="Ske2hzy6r2y" kvg:type="㇔" transform="matrix(1,0,0,1,996,-4)" xmlns:kvg="http://kanjivg.tagaini.net"></path><path class="stroke_order_diagram--existing_path" d="M27.52,33.08c2.49,1.92,6.42,7.9,7.04,10.88" id="Ske2hzy6r2z" kvg:type="㇔" transform="matrix(1,0,0,1,996,-4)" xmlns:kvg="http://kanjivg.tagaini.net"></path><path class="stroke_order_diagram--existing_path" d="M22.37,12.25c1.09,0.5,1.74,2.25,1.96,3.25c0.22,1,0,75.75-0.22,82" id="Ske2hzy6r30" kvg:type="㇑" transform="matrix(1,0,0,1,996,-4)" xmlns:kvg="http://kanjivg.tagaini.net"></path><path class="stroke_order_diagram--existing_path" d="M51.15,11.69c0.2,1.42-0.01,1.96-0.39,3c-1.33,3.67-7.58,16.81-12.27,22.28" id="Ske2hzy6r31" kvg:type="㇒" transform="matrix(1,0,0,1,996,-4)" xmlns:kvg="http://kanjivg.tagaini.net"></path><path class="stroke_order_diagram--existing_path" d="M49.39,22.68c1.57,0.34,2.9,0.56,4.04,0.49c8.05-0.54,21.16-3.04,30.86-3.43c0.98-0.04,2.86-0.07,3.76-0.09" id="Ske2hzy6r32" kvg:type="㇐" transform="matrix(1,0,0,1,996,-4)" xmlns:kvg="http://kanjivg.tagaini.net"></path><path class="stroke_order_diagram--existing_path" d="M49.21,35.21c0.82,0.02,1.8,0.01,2.89-0.06c6.35-0.42,17.76-2.31,24.17-2.83c1.18-0.1,3.1-0.16,3.96-0.18" id="Ske2hzy6r33" kvg:type="㇐" transform="matrix(1,0,0,1,996,-4)" xmlns:kvg="http://kanjivg.tagaini.net"></path><path class="stroke_order_diagram--existing_path" d="M40.93,46.18c0.91,0.45,2.67,0.6,3.94,0.51c10.45-0.74,28.78-3.85,37.34-5.19c2.35-0.37,2.53,1.04,2.12,2.76C79.5,65,81,83.5,93.13,95.23c6.23,6.02,5.25,1.07,4.26-7.63" id="Ske2hzy6r34" kvg:type="㇈a" transform="matrix(1,0,0,1,996,-4)" xmlns:kvg="http://kanjivg.tagaini.net"></path><path class="stroke_order_diagram--existing_path" d="M41.43,54.07c2.33,1.55,5.84,5.94,6.43,8.35" id="Ske2hzy6r35" kvg:type="㇔" transform="matrix(1,0,0,1,996,-4)" xmlns:kvg="http://kanjivg.tagaini.net"></path><path class="stroke_order_diagram--existing_path" d="M71.95,50.58c0.03,0.29,0.05,0.75-0.05,1.17c-0.6,2.47-4.04,7.9-8.75,11.22" id="Ske2hzy6r36" kvg:type="㇒" transform="matrix(1,0,0,1,996,-4)" xmlns:kvg="http://kanjivg.tagaini.net"></path><path class="stroke_order_diagram--existing_path" d="M38.64,67.8c0.44,0.15,1.61,0.39,2.78,0.44c3.22,0.15,29.11-3.84,34.23-3.55c1.17,0.07,1.46-0.15,2.19,0" id="Ske2hzy6r37" kvg:type="㇐" transform="matrix(1,0,0,1,996,-4)" xmlns:kvg="http://kanjivg.tagaini.net"></path><path class="stroke_order_diagram--current_path" d="M56.79,50.59c0.7,0.3,1.12,1.33,1.26,1.92s0,42.04-0.14,45.74" id="kvg:0613e-s11" kvg:type="㇑" transform="matrix(1,0,0,1,996,-4)" xmlns:kvg="http://kanjivg.tagaini.net"></path><path class="stroke_order_diagram--current_path" d="M56.79,50.59c0.7,0.3,1.12,1.33,1.26,1.92s0,42.04-0.14,45.74" id="Ske2hzy6r39" kvg:type="㇑" transform="matrix(1,0,0,1,996,-4)" xmlns:kvg="http://kanjivg.tagaini.net"></path><circle class="stroke_order_diagram--path_start" cx="56.79" cy="50.59" r="4" transform="matrix(1,0,0,1,996,-4)"></circle><line class="stroke_order_diagram--guide_line" x1="1150" x2="1150" y1="1" y2="99"></line><line class="stroke_order_diagram--bounding_box" x1="1199" x2="1199" y1="1" y2="99"></line><path class="stroke_order_diagram--existing_path" d="M16.72,34c0.03,4.31-2.47,14.14-4.69,17.5" id="Ske2hzy6r3c" kvg:type="㇔" transform="matrix(1,0,0,1,1096,-4)" xmlns:kvg="http://kanjivg.tagaini.net"></path><path class="stroke_order_diagram--existing_path" d="M27.52,33.08c2.49,1.92,6.42,7.9,7.04,10.88" id="Ske2hzy6r3d" kvg:type="㇔" transform="matrix(1,0,0,1,1096,-4)" xmlns:kvg="http://kanjivg.tagaini.net"></path><path class="stroke_order_diagram--existing_path" d="M22.37,12.25c1.09,0.5,1.74,2.25,1.96,3.25c0.22,1,0,75.75-0.22,82" id="Ske2hzy6r3e" kvg:type="㇑" transform="matrix(1,0,0,1,1096,-4)" xmlns:kvg="http://kanjivg.tagaini.net"></path><path class="stroke_order_diagram--existing_path" d="M51.15,11.69c0.2,1.42-0.01,1.96-0.39,3c-1.33,3.67-7.58,16.81-12.27,22.28" id="Ske2hzy6r3f" kvg:type="㇒" transform="matrix(1,0,0,1,1096,-4)" xmlns:kvg="http://kanjivg.tagaini.net"></path><path class="stroke_order_diagram--existing_path" d="M49.39,22.68c1.57,0.34,2.9,0.56,4.04,0.49c8.05-0.54,21.16-3.04,30.86-3.43c0.98-0.04,2.86-0.07,3.76-0.09" id="Ske2hzy6r3g" kvg:type="㇐" transform="matrix(1,0,0,1,1096,-4)" xmlns:kvg="http://kanjivg.tagaini.net"></path><path class="stroke_order_diagram--existing_path" d="M49.21,35.21c0.82,0.02,1.8,0.01,2.89-0.06c6.35-0.42,17.76-2.31,24.17-2.83c1.18-0.1,3.1-0.16,3.96-0.18" id="Ske2hzy6r3h" kvg:type="㇐" transform="matrix(1,0,0,1,1096,-4)" xmlns:kvg="http://kanjivg.tagaini.net"></path><path class="stroke_order_diagram--existing_path" d="M40.93,46.18c0.91,0.45,2.67,0.6,3.94,0.51c10.45-0.74,28.78-3.85,37.34-5.19c2.35-0.37,2.53,1.04,2.12,2.76C79.5,65,81,83.5,93.13,95.23c6.23,6.02,5.25,1.07,4.26-7.63" id="Ske2hzy6r3i" kvg:type="㇈a" transform="matrix(1,0,0,1,1096,-4)" xmlns:kvg="http://kanjivg.tagaini.net"></path><path class="stroke_order_diagram--existing_path" d="M41.43,54.07c2.33,1.55,5.84,5.94,6.43,8.35" id="Ske2hzy6r3j" kvg:type="㇔" transform="matrix(1,0,0,1,1096,-4)" xmlns:kvg="http://kanjivg.tagaini.net"></path><path class="stroke_order_diagram--existing_path" d="M71.95,50.58c0.03,0.29,0.05,0.75-0.05,1.17c-0.6,2.47-4.04,7.9-8.75,11.22" id="Ske2hzy6r3k" kvg:type="㇒" transform="matrix(1,0,0,1,1096,-4)" xmlns:kvg="http://kanjivg.tagaini.net"></path><path class="stroke_order_diagram--existing_path" d="M38.64,67.8c0.44,0.15,1.61,0.39,2.78,0.44c3.22,0.15,29.11-3.84,34.23-3.55c1.17,0.07,1.46-0.15,2.19,0" id="Ske2hzy6r3l" kvg:type="㇐" transform="matrix(1,0,0,1,1096,-4)" xmlns:kvg="http://kanjivg.tagaini.net"></path><path class="stroke_order_diagram--existing_path" d="M56.79,50.59c0.7,0.3,1.12,1.33,1.26,1.92s0,42.04-0.14,45.74" id="Ske2hzy6r3m" kvg:type="㇑" transform="matrix(1,0,0,1,1096,-4)" xmlns:kvg="http://kanjivg.tagaini.net"></path><path class="stroke_order_diagram--current_path" d="M57.51,67.11c-3.94,7.92-13.52,19.04-22.39,23.6" id="kvg:0613e-s12" kvg:type="㇒" transform="matrix(1,0,0,1,1096,-4)" xmlns:kvg="http://kanjivg.tagaini.net"></path><path class="stroke_order_diagram--current_path" d="M57.51,67.11c-3.94,7.92-13.52,19.04-22.39,23.6" id="Ske2hzy6r3o" kvg:type="㇒" transform="matrix(1,0,0,1,1096,-4)" xmlns:kvg="http://kanjivg.tagaini.net"></path><circle class="stroke_order_diagram--path_start" cx="57.51" cy="67.11" r="4" transform="matrix(1,0,0,1,1096,-4)"></circle><line class="stroke_order_diagram--guide_line" x1="1250" x2="1250" y1="1" y2="99"></line><line class="stroke_order_diagram--bounding_box" x1="1299" x2="1299" y1="1" y2="99"></line><path class="stroke_order_diagram--existing_path" d="M16.72,34c0.03,4.31-2.47,14.14-4.69,17.5" id="Ske2hzy6r3r" kvg:type="㇔" transform="matrix(1,0,0,1,1196,-4)" xmlns:kvg="http://kanjivg.tagaini.net"></path><path class="stroke_order_diagram--existing_path" d="M27.52,33.08c2.49,1.92,6.42,7.9,7.04,10.88" id="Ske2hzy6r3s" kvg:type="㇔" transform="matrix(1,0,0,1,1196,-4)" xmlns:kvg="http://kanjivg.tagaini.net"></path><path class="stroke_order_diagram--existing_path" d="M22.37,12.25c1.09,0.5,1.74,2.25,1.96,3.25c0.22,1,0,75.75-0.22,82" id="Ske2hzy6r3t" kvg:type="㇑" transform="matrix(1,0,0,1,1196,-4)" xmlns:kvg="http://kanjivg.tagaini.net"></path><path class="stroke_order_diagram--existing_path" d="M51.15,11.69c0.2,1.42-0.01,1.96-0.39,3c-1.33,3.67-7.58,16.81-12.27,22.28" id="Ske2hzy6r3u" kvg:type="㇒" transform="matrix(1,0,0,1,1196,-4)" xmlns:kvg="http://kanjivg.tagaini.net"></path><path class="stroke_order_diagram--existing_path" d="M49.39,22.68c1.57,0.34,2.9,0.56,4.04,0.49c8.05-0.54,21.16-3.04,30.86-3.43c0.98-0.04,2.86-0.07,3.76-0.09" id="Ske2hzy6r3v" kvg:type="㇐" transform="matrix(1,0,0,1,1196,-4)" xmlns:kvg="http://kanjivg.tagaini.net"></path><path class="stroke_order_diagram--existing_path" d="M49.21,35.21c0.82,0.02,1.8,0.01,2.89-0.06c6.35-0.42,17.76-2.31,24.17-2.83c1.18-0.1,3.1-0.16,3.96-0.18" id="Ske2hzy6r3w" kvg:type="㇐" transform="matrix(1,0,0,1,1196,-4)" xmlns:kvg="http://kanjivg.tagaini.net"></path><path class="stroke_order_diagram--existing_path" d="M40.93,46.18c0.91,0.45,2.67,0.6,3.94,0.51c10.45-0.74,28.78-3.85,37.34-5.19c2.35-0.37,2.53,1.04,2.12,2.76C79.5,65,81,83.5,93.13,95.23c6.23,6.02,5.25,1.07,4.26-7.63" id="Ske2hzy6r3x" kvg:type="㇈a" transform="matrix(1,0,0,1,1196,-4)" xmlns:kvg="http://kanjivg.tagaini.net"></path><path class="stroke_order_diagram--existing_path" d="M41.43,54.07c2.33,1.55,5.84,5.94,6.43,8.35" id="Ske2hzy6r3y" kvg:type="㇔" transform="matrix(1,0,0,1,1196,-4)" xmlns:kvg="http://kanjivg.tagaini.net"></path><path class="stroke_order_diagram--existing_path" d="M71.95,50.58c0.03,0.29,0.05,0.75-0.05,1.17c-0.6,2.47-4.04,7.9-8.75,11.22" id="Ske2hzy6r3z" kvg:type="㇒" transform="matrix(1,0,0,1,1196,-4)" xmlns:kvg="http://kanjivg.tagaini.net"></path><path class="stroke_order_diagram--existing_path" d="M38.64,67.8c0.44,0.15,1.61,0.39,2.78,0.44c3.22,0.15,29.11-3.84,34.23-3.55c1.17,0.07,1.46-0.15,2.19,0" id="Ske2hzy6r40" kvg:type="㇐" transform="matrix(1,0,0,1,1196,-4)" xmlns:kvg="http://kanjivg.tagaini.net"></path><path class="stroke_order_diagram--existing_path" d="M56.79,50.59c0.7,0.3,1.12,1.33,1.26,1.92s0,42.04-0.14,45.74" id="Ske2hzy6r41" kvg:type="㇑" transform="matrix(1,0,0,1,1196,-4)" xmlns:kvg="http://kanjivg.tagaini.net"></path><path class="stroke_order_diagram--existing_path" d="M57.51,67.11c-3.94,7.92-13.52,19.04-22.39,23.6" id="Ske2hzy6r42" kvg:type="㇒" transform="matrix(1,0,0,1,1196,-4)" xmlns:kvg="http://kanjivg.tagaini.net"></path><path class="stroke_order_diagram--current_path" d="M60.04,73.89c5.53,2.05,12.05,7.97,14.99,13.12" id="kvg:0613e-s13" kvg:type="㇔/㇏" transform="matrix(1,0,0,1,1196,-4)" xmlns:kvg="http://kanjivg.tagaini.net"></path><path class="stroke_order_diagram--current_path" d="M60.04,73.89c5.53,2.05,12.05,7.97,14.99,13.12" id="Ske2hzy6r44" kvg:type="㇔/㇏" transform="matrix(1,0,0,1,1196,-4)" xmlns:kvg="http://kanjivg.tagaini.net"></path><circle class="stroke_order_diagram--path_start" cx="60.04" cy="73.89" r="4" transform="matrix(1,0,0,1,1196,-4)"></circle></svg>