<svg class="stroke_order_diagram--svg_container_for_518662a7d5dda79658000eaf" style="height: 100px; width: 1400px;" viewbox="0 0 1400 100"><desc>Created with Snap</desc><defs></defs><line class="stroke_order_diagram--bounding_box" x1="1" x2="1399" y1="1" y2="1"></line><line class="stroke_order_diagram--bounding_box" x1="1" x2="1" y1="1" y2="99"></line><line class="stroke_order_diagram--bounding_box" x1="1" x2="1399" y1="99" y2="99"></line><line class="stroke_order_diagram--guide_line" x1="0" x2="1400" y1="50" y2="50"></line><line class="stroke_order_diagram--guide_line" x1="50" x2="50" y1="1" y2="99"></line><line class="stroke_order_diagram--bounding_box" x1="99" x2="99" y1="1" y2="99"></line><path class="stroke_order_diagram--current_path" d="M24.19,12.86c3.17,1.27,8.17,5.24,8.97,7.22" id="kvg:06142-s1" kvg:type="㇔" transform="matrix(1,0,0,1,-4,-4)" xmlns:kvg="http://kanjivg.tagaini.net"></path><path class="stroke_order_diagram--current_path" d="M24.19,12.86c3.17,1.27,8.17,5.24,8.97,7.22" id="Ske2i2g0an" kvg:type="㇔" transform="matrix(1,0,0,1,-4,-4)" xmlns:kvg="http://kanjivg.tagaini.net"></path><circle class="stroke_order_diagram--path_start" cx="24.19" cy="12.86" r="4" transform="matrix(1,0,0,1,-4,-4)"></circle><line class="stroke_order_diagram--guide_line" x1="150" x2="150" y1="1" y2="99"></line><line class="stroke_order_diagram--bounding_box" x1="199" x2="199" y1="1" y2="99"></line><path class="stroke_order_diagram--existing_path" d="M24.19,12.86c3.17,1.27,8.17,5.24,8.97,7.22" id="Ske2i2g0aq" kvg:type="㇔" transform="matrix(1,0,0,1,96,-4)" xmlns:kvg="http://kanjivg.tagaini.net"></path><path class="stroke_order_diagram--current_path" d="M18.03,28.97c3.12,1.25,8.05,5.13,8.83,7.07" id="kvg:06142-s2" kvg:type="㇔" transform="matrix(1,0,0,1,96,-4)" xmlns:kvg="http://kanjivg.tagaini.net"></path><path class="stroke_order_diagram--current_path" d="M18.03,28.97c3.12,1.25,8.05,5.13,8.83,7.07" id="Ske2i2g0as" kvg:type="㇔" transform="matrix(1,0,0,1,96,-4)" xmlns:kvg="http://kanjivg.tagaini.net"></path><circle class="stroke_order_diagram--path_start" cx="18.03" cy="28.97" r="4" transform="matrix(1,0,0,1,96,-4)"></circle><line class="stroke_order_diagram--guide_line" x1="250" x2="250" y1="1" y2="99"></line><line class="stroke_order_diagram--bounding_box" x1="299" x2="299" y1="1" y2="99"></line><path class="stroke_order_diagram--existing_path" d="M24.19,12.86c3.17,1.27,8.17,5.24,8.97,7.22" id="Ske2i2g0av" kvg:type="㇔" transform="matrix(1,0,0,1,196,-4)" xmlns:kvg="http://kanjivg.tagaini.net"></path><path class="stroke_order_diagram--existing_path" d="M18.03,28.97c3.12,1.25,8.05,5.13,8.83,7.07" id="Ske2i2g0aw" kvg:type="㇔" transform="matrix(1,0,0,1,196,-4)" xmlns:kvg="http://kanjivg.tagaini.net"></path><path class="stroke_order_diagram--current_path" d="M18.5,62.37c1.8,1.32,3.56,0.87,4.69-0.76c3.29-4.74,4.56-8.11,9.98-16.57" id="kvg:06142-s3" kvg:type="㇀" transform="matrix(1,0,0,1,196,-4)" xmlns:kvg="http://kanjivg.tagaini.net"></path><path class="stroke_order_diagram--current_path" d="M18.5,62.37c1.8,1.32,3.56,0.87,4.69-0.76c3.29-4.74,4.56-8.11,9.98-16.57" id="Ske2i2g0ay" kvg:type="㇀" transform="matrix(1,0,0,1,196,-4)" xmlns:kvg="http://kanjivg.tagaini.net"></path><circle class="stroke_order_diagram--path_start" cx="18.5" cy="62.37" r="4" transform="matrix(1,0,0,1,196,-4)"></circle><line class="stroke_order_diagram--guide_line" x1="350" x2="350" y1="1" y2="99"></line><line class="stroke_order_diagram--bounding_box" x1="399" x2="399" y1="1" y2="99"></line><path class="stroke_order_diagram--existing_path" d="M24.19,12.86c3.17,1.27,8.17,5.24,8.97,7.22" id="Ske2i2g0a11" kvg:type="㇔" transform="matrix(1,0,0,1,296,-4)" xmlns:kvg="http://kanjivg.tagaini.net"></path><path class="stroke_order_diagram--existing_path" d="M18.03,28.97c3.12,1.25,8.05,5.13,8.83,7.07" id="Ske2i2g0a12" kvg:type="㇔" transform="matrix(1,0,0,1,296,-4)" xmlns:kvg="http://kanjivg.tagaini.net"></path><path class="stroke_order_diagram--existing_path" d="M18.5,62.37c1.8,1.32,3.56,0.87,4.69-0.76c3.29-4.74,4.56-8.11,9.98-16.57" id="Ske2i2g0a13" kvg:type="㇀" transform="matrix(1,0,0,1,296,-4)" xmlns:kvg="http://kanjivg.tagaini.net"></path><path class="stroke_order_diagram--current_path" d="M48.12,13.43c1.06,0.58,3.5,1.46,4.7,1.56c3.43,0.27,18.18-2.23,26.83-3.64c4.11-0.67,4.16,1.67,1.46,3.67c-1.38,1.02-12.64,10.25-14.22,11.4" id="kvg:06142-s4" kvg:type="㇇" transform="matrix(1,0,0,1,296,-4)" xmlns:kvg="http://kanjivg.tagaini.net"></path><path class="stroke_order_diagram--current_path" d="M48.12,13.43c1.06,0.58,3.5,1.46,4.7,1.56c3.43,0.27,18.18-2.23,26.83-3.64c4.11-0.67,4.16,1.67,1.46,3.67c-1.38,1.02-12.64,10.25-14.22,11.4" id="Ske2i2g0a15" kvg:type="㇇" transform="matrix(1,0,0,1,296,-4)" xmlns:kvg="http://kanjivg.tagaini.net"></path><circle class="stroke_order_diagram--path_start" cx="48.12" cy="13.43" r="4" transform="matrix(1,0,0,1,296,-4)"></circle><line class="stroke_order_diagram--guide_line" x1="450" x2="450" y1="1" y2="99"></line><line class="stroke_order_diagram--bounding_box" x1="499" x2="499" y1="1" y2="99"></line><path class="stroke_order_diagram--existing_path" d="M24.19,12.86c3.17,1.27,8.17,5.24,8.97,7.22" id="Ske2i2g0a18" kvg:type="㇔" transform="matrix(1,0,0,1,396,-4)" xmlns:kvg="http://kanjivg.tagaini.net"></path><path class="stroke_order_diagram--existing_path" d="M18.03,28.97c3.12,1.25,8.05,5.13,8.83,7.07" id="Ske2i2g0a19" kvg:type="㇔" transform="matrix(1,0,0,1,396,-4)" xmlns:kvg="http://kanjivg.tagaini.net"></path><path class="stroke_order_diagram--existing_path" d="M18.5,62.37c1.8,1.32,3.56,0.87,4.69-0.76c3.29-4.74,4.56-8.11,9.98-16.57" id="Ske2i2g0a1a" kvg:type="㇀" transform="matrix(1,0,0,1,396,-4)" xmlns:kvg="http://kanjivg.tagaini.net"></path><path class="stroke_order_diagram--existing_path" d="M48.12,13.43c1.06,0.58,3.5,1.46,4.7,1.56c3.43,0.27,18.18-2.23,26.83-3.64c4.11-0.67,4.16,1.67,1.46,3.67c-1.38,1.02-12.64,10.25-14.22,11.4" id="Ske2i2g0a1b" kvg:type="㇇" transform="matrix(1,0,0,1,396,-4)" xmlns:kvg="http://kanjivg.tagaini.net"></path><path class="stroke_order_diagram--current_path" d="M56.64,20.96c2.96,1.1,10.62,5.35,12.02,8.23" id="kvg:06142-s5" kvg:type="㇔" transform="matrix(1,0,0,1,396,-4)" xmlns:kvg="http://kanjivg.tagaini.net"></path><path class="stroke_order_diagram--current_path" d="M56.64,20.96c2.96,1.1,10.62,5.35,12.02,8.23" id="Ske2i2g0a1d" kvg:type="㇔" transform="matrix(1,0,0,1,396,-4)" xmlns:kvg="http://kanjivg.tagaini.net"></path><circle class="stroke_order_diagram--path_start" cx="56.64" cy="20.96" r="4" transform="matrix(1,0,0,1,396,-4)"></circle><line class="stroke_order_diagram--guide_line" x1="550" x2="550" y1="1" y2="99"></line><line class="stroke_order_diagram--bounding_box" x1="599" x2="599" y1="1" y2="99"></line><path class="stroke_order_diagram--existing_path" d="M24.19,12.86c3.17,1.27,8.17,5.24,8.97,7.22" id="Ske2i2g0a1g" kvg:type="㇔" transform="matrix(1,0,0,1,496,-4)" xmlns:kvg="http://kanjivg.tagaini.net"></path><path class="stroke_order_diagram--existing_path" d="M18.03,28.97c3.12,1.25,8.05,5.13,8.83,7.07" id="Ske2i2g0a1h" kvg:type="㇔" transform="matrix(1,0,0,1,496,-4)" xmlns:kvg="http://kanjivg.tagaini.net"></path><path class="stroke_order_diagram--existing_path" d="M18.5,62.37c1.8,1.32,3.56,0.87,4.69-0.76c3.29-4.74,4.56-8.11,9.98-16.57" id="Ske2i2g0a1i" kvg:type="㇀" transform="matrix(1,0,0,1,496,-4)" xmlns:kvg="http://kanjivg.tagaini.net"></path><path class="stroke_order_diagram--existing_path" d="M48.12,13.43c1.06,0.58,3.5,1.46,4.7,1.56c3.43,0.27,18.18-2.23,26.83-3.64c4.11-0.67,4.16,1.67,1.46,3.67c-1.38,1.02-12.64,10.25-14.22,11.4" id="Ske2i2g0a1j" kvg:type="㇇" transform="matrix(1,0,0,1,496,-4)" xmlns:kvg="http://kanjivg.tagaini.net"></path><path class="stroke_order_diagram--existing_path" d="M56.64,20.96c2.96,1.1,10.62,5.35,12.02,8.23" id="Ske2i2g0a1k" kvg:type="㇔" transform="matrix(1,0,0,1,496,-4)" xmlns:kvg="http://kanjivg.tagaini.net"></path><path class="stroke_order_diagram--current_path" d="M47.56,31.47c0.54,0.51,0.91,1.37,1.09,1.88c0.18,0.52,0.18,30.98,0.18,32.14" id="kvg:06142-s6" kvg:type="㇑/㇒" transform="matrix(1,0,0,1,496,-4)" xmlns:kvg="http://kanjivg.tagaini.net"></path><path class="stroke_order_diagram--current_path" d="M47.56,31.47c0.54,0.51,0.91,1.37,1.09,1.88c0.18,0.52,0.18,30.98,0.18,32.14" id="Ske2i2g0a1m" kvg:type="㇑/㇒" transform="matrix(1,0,0,1,496,-4)" xmlns:kvg="http://kanjivg.tagaini.net"></path><circle class="stroke_order_diagram--path_start" cx="47.56" cy="31.47" r="4" transform="matrix(1,0,0,1,496,-4)"></circle><line class="stroke_order_diagram--guide_line" x1="650" x2="650" y1="1" y2="99"></line><line class="stroke_order_diagram--bounding_box" x1="699" x2="699" y1="1" y2="99"></line><path class="stroke_order_diagram--existing_path" d="M24.19,12.86c3.17,1.27,8.17,5.24,8.97,7.22" id="Ske2i2g0a1p" kvg:type="㇔" transform="matrix(1,0,0,1,596,-4)" xmlns:kvg="http://kanjivg.tagaini.net"></path><path class="stroke_order_diagram--existing_path" d="M18.03,28.97c3.12,1.25,8.05,5.13,8.83,7.07" id="Ske2i2g0a1q" kvg:type="㇔" transform="matrix(1,0,0,1,596,-4)" xmlns:kvg="http://kanjivg.tagaini.net"></path><path class="stroke_order_diagram--existing_path" d="M18.5,62.37c1.8,1.32,3.56,0.87,4.69-0.76c3.29-4.74,4.56-8.11,9.98-16.57" id="Ske2i2g0a1r" kvg:type="㇀" transform="matrix(1,0,0,1,596,-4)" xmlns:kvg="http://kanjivg.tagaini.net"></path><path class="stroke_order_diagram--existing_path" d="M48.12,13.43c1.06,0.58,3.5,1.46,4.7,1.56c3.43,0.27,18.18-2.23,26.83-3.64c4.11-0.67,4.16,1.67,1.46,3.67c-1.38,1.02-12.64,10.25-14.22,11.4" id="Ske2i2g0a1s" kvg:type="㇇" transform="matrix(1,0,0,1,596,-4)" xmlns:kvg="http://kanjivg.tagaini.net"></path><path class="stroke_order_diagram--existing_path" d="M56.64,20.96c2.96,1.1,10.62,5.35,12.02,8.23" id="Ske2i2g0a1t" kvg:type="㇔" transform="matrix(1,0,0,1,596,-4)" xmlns:kvg="http://kanjivg.tagaini.net"></path><path class="stroke_order_diagram--existing_path" d="M47.56,31.47c0.54,0.51,0.91,1.37,1.09,1.88c0.18,0.52,0.18,30.98,0.18,32.14" id="Ske2i2g0a1u" kvg:type="㇑/㇒" transform="matrix(1,0,0,1,596,-4)" xmlns:kvg="http://kanjivg.tagaini.net"></path><path class="stroke_order_diagram--current_path" d="M49.29,33.16c6.25-0.21,33.66-2.99,35.31-3.14c2.97-0.26,4.08,1.67,3.71,2.44c-0.36,0.74-0.56,17.65-0.56,28.07c0,9.47-4.26,2.72-6.49,0.66" id="kvg:06142-s7" kvg:type="㇆a" transform="matrix(1,0,0,1,596,-4)" xmlns:kvg="http://kanjivg.tagaini.net"></path><path class="stroke_order_diagram--current_path" d="M49.29,33.16c6.25-0.21,33.66-2.99,35.31-3.14c2.97-0.26,4.08,1.67,3.71,2.44c-0.36,0.74-0.56,17.65-0.56,28.07c0,9.47-4.26,2.72-6.49,0.66" id="Ske2i2g0a1w" kvg:type="㇆a" transform="matrix(1,0,0,1,596,-4)" xmlns:kvg="http://kanjivg.tagaini.net"></path><circle class="stroke_order_diagram--path_start" cx="49.29" cy="33.16" r="4" transform="matrix(1,0,0,1,596,-4)"></circle><line class="stroke_order_diagram--guide_line" x1="750" x2="750" y1="1" y2="99"></line><line class="stroke_order_diagram--bounding_box" x1="799" x2="799" y1="1" y2="99"></line><path class="stroke_order_diagram--existing_path" d="M24.19,12.86c3.17,1.27,8.17,5.24,8.97,7.22" id="Ske2i2g0a1z" kvg:type="㇔" transform="matrix(1,0,0,1,696,-4)" xmlns:kvg="http://kanjivg.tagaini.net"></path><path class="stroke_order_diagram--existing_path" d="M18.03,28.97c3.12,1.25,8.05,5.13,8.83,7.07" id="Ske2i2g0a20" kvg:type="㇔" transform="matrix(1,0,0,1,696,-4)" xmlns:kvg="http://kanjivg.tagaini.net"></path><path class="stroke_order_diagram--existing_path" d="M18.5,62.37c1.8,1.32,3.56,0.87,4.69-0.76c3.29-4.74,4.56-8.11,9.98-16.57" id="Ske2i2g0a21" kvg:type="㇀" transform="matrix(1,0,0,1,696,-4)" xmlns:kvg="http://kanjivg.tagaini.net"></path><path class="stroke_order_diagram--existing_path" d="M48.12,13.43c1.06,0.58,3.5,1.46,4.7,1.56c3.43,0.27,18.18-2.23,26.83-3.64c4.11-0.67,4.16,1.67,1.46,3.67c-1.38,1.02-12.64,10.25-14.22,11.4" id="Ske2i2g0a22" kvg:type="㇇" transform="matrix(1,0,0,1,696,-4)" xmlns:kvg="http://kanjivg.tagaini.net"></path><path class="stroke_order_diagram--existing_path" d="M56.64,20.96c2.96,1.1,10.62,5.35,12.02,8.23" id="Ske2i2g0a23" kvg:type="㇔" transform="matrix(1,0,0,1,696,-4)" xmlns:kvg="http://kanjivg.tagaini.net"></path><path class="stroke_order_diagram--existing_path" d="M47.56,31.47c0.54,0.51,0.91,1.37,1.09,1.88c0.18,0.52,0.18,30.98,0.18,32.14" id="Ske2i2g0a24" kvg:type="㇑/㇒" transform="matrix(1,0,0,1,696,-4)" xmlns:kvg="http://kanjivg.tagaini.net"></path><path class="stroke_order_diagram--existing_path" d="M49.29,33.16c6.25-0.21,33.66-2.99,35.31-3.14c2.97-0.26,4.08,1.67,3.71,2.44c-0.36,0.74-0.56,17.65-0.56,28.07c0,9.47-4.26,2.72-6.49,0.66" id="Ske2i2g0a25" kvg:type="㇆a" transform="matrix(1,0,0,1,696,-4)" xmlns:kvg="http://kanjivg.tagaini.net"></path><path class="stroke_order_diagram--current_path" d="M49.29,41.87c8.28-0.45,31.94-1.99,38.62-2.37" id="kvg:06142-s8" kvg:type="㇐a" transform="matrix(1,0,0,1,696,-4)" xmlns:kvg="http://kanjivg.tagaini.net"></path><path class="stroke_order_diagram--current_path" d="M49.29,41.87c8.28-0.45,31.94-1.99,38.62-2.37" id="Ske2i2g0a27" kvg:type="㇐a" transform="matrix(1,0,0,1,696,-4)" xmlns:kvg="http://kanjivg.tagaini.net"></path><circle class="stroke_order_diagram--path_start" cx="49.29" cy="41.87" r="4" transform="matrix(1,0,0,1,696,-4)"></circle><line class="stroke_order_diagram--guide_line" x1="850" x2="850" y1="1" y2="99"></line><line class="stroke_order_diagram--bounding_box" x1="899" x2="899" y1="1" y2="99"></line><path class="stroke_order_diagram--existing_path" d="M24.19,12.86c3.17,1.27,8.17,5.24,8.97,7.22" id="Ske2i2g0a2a" kvg:type="㇔" transform="matrix(1,0,0,1,796,-4)" xmlns:kvg="http://kanjivg.tagaini.net"></path><path class="stroke_order_diagram--existing_path" d="M18.03,28.97c3.12,1.25,8.05,5.13,8.83,7.07" id="Ske2i2g0a2b" kvg:type="㇔" transform="matrix(1,0,0,1,796,-4)" xmlns:kvg="http://kanjivg.tagaini.net"></path><path class="stroke_order_diagram--existing_path" d="M18.5,62.37c1.8,1.32,3.56,0.87,4.69-0.76c3.29-4.74,4.56-8.11,9.98-16.57" id="Ske2i2g0a2c" kvg:type="㇀" transform="matrix(1,0,0,1,796,-4)" xmlns:kvg="http://kanjivg.tagaini.net"></path><path class="stroke_order_diagram--existing_path" d="M48.12,13.43c1.06,0.58,3.5,1.46,4.7,1.56c3.43,0.27,18.18-2.23,26.83-3.64c4.11-0.67,4.16,1.67,1.46,3.67c-1.38,1.02-12.64,10.25-14.22,11.4" id="Ske2i2g0a2d" kvg:type="㇇" transform="matrix(1,0,0,1,796,-4)" xmlns:kvg="http://kanjivg.tagaini.net"></path><path class="stroke_order_diagram--existing_path" d="M56.64,20.96c2.96,1.1,10.62,5.35,12.02,8.23" id="Ske2i2g0a2e" kvg:type="㇔" transform="matrix(1,0,0,1,796,-4)" xmlns:kvg="http://kanjivg.tagaini.net"></path><path class="stroke_order_diagram--existing_path" d="M47.56,31.47c0.54,0.51,0.91,1.37,1.09,1.88c0.18,0.52,0.18,30.98,0.18,32.14" id="Ske2i2g0a2f" kvg:type="㇑/㇒" transform="matrix(1,0,0,1,796,-4)" xmlns:kvg="http://kanjivg.tagaini.net"></path><path class="stroke_order_diagram--existing_path" d="M49.29,33.16c6.25-0.21,33.66-2.99,35.31-3.14c2.97-0.26,4.08,1.67,3.71,2.44c-0.36,0.74-0.56,17.65-0.56,28.07c0,9.47-4.26,2.72-6.49,0.66" id="Ske2i2g0a2g" kvg:type="㇆a" transform="matrix(1,0,0,1,796,-4)" xmlns:kvg="http://kanjivg.tagaini.net"></path><path class="stroke_order_diagram--existing_path" d="M49.29,41.87c8.28-0.45,31.94-1.99,38.62-2.37" id="Ske2i2g0a2h" kvg:type="㇐a" transform="matrix(1,0,0,1,796,-4)" xmlns:kvg="http://kanjivg.tagaini.net"></path><path class="stroke_order_diagram--current_path" d="M49.47,50.71c5.94-0.39,31.19-2.2,38.06-2.45" id="kvg:06142-s9" kvg:type="㇐a" transform="matrix(1,0,0,1,796,-4)" xmlns:kvg="http://kanjivg.tagaini.net"></path><path class="stroke_order_diagram--current_path" d="M49.47,50.71c5.94-0.39,31.19-2.2,38.06-2.45" id="Ske2i2g0a2j" kvg:type="㇐a" transform="matrix(1,0,0,1,796,-4)" xmlns:kvg="http://kanjivg.tagaini.net"></path><circle class="stroke_order_diagram--path_start" cx="49.47" cy="50.71" r="4" transform="matrix(1,0,0,1,796,-4)"></circle><line class="stroke_order_diagram--guide_line" x1="950" x2="950" y1="1" y2="99"></line><line class="stroke_order_diagram--bounding_box" x1="999" x2="999" y1="1" y2="99"></line><path class="stroke_order_diagram--existing_path" d="M24.19,12.86c3.17,1.27,8.17,5.24,8.97,7.22" id="Ske2i2g0a2m" kvg:type="㇔" transform="matrix(1,0,0,1,896,-4)" xmlns:kvg="http://kanjivg.tagaini.net"></path><path class="stroke_order_diagram--existing_path" d="M18.03,28.97c3.12,1.25,8.05,5.13,8.83,7.07" id="Ske2i2g0a2n" kvg:type="㇔" transform="matrix(1,0,0,1,896,-4)" xmlns:kvg="http://kanjivg.tagaini.net"></path><path class="stroke_order_diagram--existing_path" d="M18.5,62.37c1.8,1.32,3.56,0.87,4.69-0.76c3.29-4.74,4.56-8.11,9.98-16.57" id="Ske2i2g0a2o" kvg:type="㇀" transform="matrix(1,0,0,1,896,-4)" xmlns:kvg="http://kanjivg.tagaini.net"></path><path class="stroke_order_diagram--existing_path" d="M48.12,13.43c1.06,0.58,3.5,1.46,4.7,1.56c3.43,0.27,18.18-2.23,26.83-3.64c4.11-0.67,4.16,1.67,1.46,3.67c-1.38,1.02-12.64,10.25-14.22,11.4" id="Ske2i2g0a2p" kvg:type="㇇" transform="matrix(1,0,0,1,896,-4)" xmlns:kvg="http://kanjivg.tagaini.net"></path><path class="stroke_order_diagram--existing_path" d="M56.64,20.96c2.96,1.1,10.62,5.35,12.02,8.23" id="Ske2i2g0a2q" kvg:type="㇔" transform="matrix(1,0,0,1,896,-4)" xmlns:kvg="http://kanjivg.tagaini.net"></path><path class="stroke_order_diagram--existing_path" d="M47.56,31.47c0.54,0.51,0.91,1.37,1.09,1.88c0.18,0.52,0.18,30.98,0.18,32.14" id="Ske2i2g0a2r" kvg:type="㇑/㇒" transform="matrix(1,0,0,1,896,-4)" xmlns:kvg="http://kanjivg.tagaini.net"></path><path class="stroke_order_diagram--existing_path" d="M49.29,33.16c6.25-0.21,33.66-2.99,35.31-3.14c2.97-0.26,4.08,1.67,3.71,2.44c-0.36,0.74-0.56,17.65-0.56,28.07c0,9.47-4.26,2.72-6.49,0.66" id="Ske2i2g0a2s" kvg:type="㇆a" transform="matrix(1,0,0,1,896,-4)" xmlns:kvg="http://kanjivg.tagaini.net"></path><path class="stroke_order_diagram--existing_path" d="M49.29,41.87c8.28-0.45,31.94-1.99,38.62-2.37" id="Ske2i2g0a2t" kvg:type="㇐a" transform="matrix(1,0,0,1,896,-4)" xmlns:kvg="http://kanjivg.tagaini.net"></path><path class="stroke_order_diagram--existing_path" d="M49.47,50.71c5.94-0.39,31.19-2.2,38.06-2.45" id="Ske2i2g0a2u" kvg:type="㇐a" transform="matrix(1,0,0,1,896,-4)" xmlns:kvg="http://kanjivg.tagaini.net"></path><path class="stroke_order_diagram--current_path" d="M66.81,33.48c0.72,0.25,1.15,1.12,1.29,1.61c0.14,0.5,0,25.58-0.14,28.68" id="kvg:06142-s10" kvg:type="㇑" transform="matrix(1,0,0,1,896,-4)" xmlns:kvg="http://kanjivg.tagaini.net"></path><path class="stroke_order_diagram--current_path" d="M66.81,33.48c0.72,0.25,1.15,1.12,1.29,1.61c0.14,0.5,0,25.58-0.14,28.68" id="Ske2i2g0a2w" kvg:type="㇑" transform="matrix(1,0,0,1,896,-4)" xmlns:kvg="http://kanjivg.tagaini.net"></path><circle class="stroke_order_diagram--path_start" cx="66.81" cy="33.48" r="4" transform="matrix(1,0,0,1,896,-4)"></circle><line class="stroke_order_diagram--guide_line" x1="1050" x2="1050" y1="1" y2="99"></line><line class="stroke_order_diagram--bounding_box" x1="1099" x2="1099" y1="1" y2="99"></line><path class="stroke_order_diagram--existing_path" d="M24.19,12.86c3.17,1.27,8.17,5.24,8.97,7.22" id="Ske2i2g0a2z" kvg:type="㇔" transform="matrix(1,0,0,1,996,-4)" xmlns:kvg="http://kanjivg.tagaini.net"></path><path class="stroke_order_diagram--existing_path" d="M18.03,28.97c3.12,1.25,8.05,5.13,8.83,7.07" id="Ske2i2g0a30" kvg:type="㇔" transform="matrix(1,0,0,1,996,-4)" xmlns:kvg="http://kanjivg.tagaini.net"></path><path class="stroke_order_diagram--existing_path" d="M18.5,62.37c1.8,1.32,3.56,0.87,4.69-0.76c3.29-4.74,4.56-8.11,9.98-16.57" id="Ske2i2g0a31" kvg:type="㇀" transform="matrix(1,0,0,1,996,-4)" xmlns:kvg="http://kanjivg.tagaini.net"></path><path class="stroke_order_diagram--existing_path" d="M48.12,13.43c1.06,0.58,3.5,1.46,4.7,1.56c3.43,0.27,18.18-2.23,26.83-3.64c4.11-0.67,4.16,1.67,1.46,3.67c-1.38,1.02-12.64,10.25-14.22,11.4" id="Ske2i2g0a32" kvg:type="㇇" transform="matrix(1,0,0,1,996,-4)" xmlns:kvg="http://kanjivg.tagaini.net"></path><path class="stroke_order_diagram--existing_path" d="M56.64,20.96c2.96,1.1,10.62,5.35,12.02,8.23" id="Ske2i2g0a33" kvg:type="㇔" transform="matrix(1,0,0,1,996,-4)" xmlns:kvg="http://kanjivg.tagaini.net"></path><path class="stroke_order_diagram--existing_path" d="M47.56,31.47c0.54,0.51,0.91,1.37,1.09,1.88c0.18,0.52,0.18,30.98,0.18,32.14" id="Ske2i2g0a34" kvg:type="㇑/㇒" transform="matrix(1,0,0,1,996,-4)" xmlns:kvg="http://kanjivg.tagaini.net"></path><path class="stroke_order_diagram--existing_path" d="M49.29,33.16c6.25-0.21,33.66-2.99,35.31-3.14c2.97-0.26,4.08,1.67,3.71,2.44c-0.36,0.74-0.56,17.65-0.56,28.07c0,9.47-4.26,2.72-6.49,0.66" id="Ske2i2g0a35" kvg:type="㇆a" transform="matrix(1,0,0,1,996,-4)" xmlns:kvg="http://kanjivg.tagaini.net"></path><path class="stroke_order_diagram--existing_path" d="M49.29,41.87c8.28-0.45,31.94-1.99,38.62-2.37" id="Ske2i2g0a36" kvg:type="㇐a" transform="matrix(1,0,0,1,996,-4)" xmlns:kvg="http://kanjivg.tagaini.net"></path><path class="stroke_order_diagram--existing_path" d="M49.47,50.71c5.94-0.39,31.19-2.2,38.06-2.45" id="Ske2i2g0a37" kvg:type="㇐a" transform="matrix(1,0,0,1,996,-4)" xmlns:kvg="http://kanjivg.tagaini.net"></path><path class="stroke_order_diagram--existing_path" d="M66.81,33.48c0.72,0.25,1.15,1.12,1.29,1.61c0.14,0.5,0,25.58-0.14,28.68" id="Ske2i2g0a38" kvg:type="㇑" transform="matrix(1,0,0,1,996,-4)" xmlns:kvg="http://kanjivg.tagaini.net"></path><path class="stroke_order_diagram--current_path" d="M23.82,77.13C24.14,79.42,20.59,89.5,18,93.3" id="kvg:06142-s11" kvg:type="㇔" transform="matrix(1,0,0,1,996,-4)" xmlns:kvg="http://kanjivg.tagaini.net"></path><path class="stroke_order_diagram--current_path" d="M23.82,77.13C24.14,79.42,20.59,89.5,18,93.3" id="Ske2i2g0a3a" kvg:type="㇔" transform="matrix(1,0,0,1,996,-4)" xmlns:kvg="http://kanjivg.tagaini.net"></path><circle class="stroke_order_diagram--path_start" cx="23.82" cy="77.13" r="4" transform="matrix(1,0,0,1,996,-4)"></circle><line class="stroke_order_diagram--guide_line" x1="1150" x2="1150" y1="1" y2="99"></line><line class="stroke_order_diagram--bounding_box" x1="1199" x2="1199" y1="1" y2="99"></line><path class="stroke_order_diagram--existing_path" d="M24.19,12.86c3.17,1.27,8.17,5.24,8.97,7.22" id="Ske2i2g0a3d" kvg:type="㇔" transform="matrix(1,0,0,1,1096,-4)" xmlns:kvg="http://kanjivg.tagaini.net"></path><path class="stroke_order_diagram--existing_path" d="M18.03,28.97c3.12,1.25,8.05,5.13,8.83,7.07" id="Ske2i2g0a3e" kvg:type="㇔" transform="matrix(1,0,0,1,1096,-4)" xmlns:kvg="http://kanjivg.tagaini.net"></path><path class="stroke_order_diagram--existing_path" d="M18.5,62.37c1.8,1.32,3.56,0.87,4.69-0.76c3.29-4.74,4.56-8.11,9.98-16.57" id="Ske2i2g0a3f" kvg:type="㇀" transform="matrix(1,0,0,1,1096,-4)" xmlns:kvg="http://kanjivg.tagaini.net"></path><path class="stroke_order_diagram--existing_path" d="M48.12,13.43c1.06,0.58,3.5,1.46,4.7,1.56c3.43,0.27,18.18-2.23,26.83-3.64c4.11-0.67,4.16,1.67,1.46,3.67c-1.38,1.02-12.64,10.25-14.22,11.4" id="Ske2i2g0a3g" kvg:type="㇇" transform="matrix(1,0,0,1,1096,-4)" xmlns:kvg="http://kanjivg.tagaini.net"></path><path class="stroke_order_diagram--existing_path" d="M56.64,20.96c2.96,1.1,10.62,5.35,12.02,8.23" id="Ske2i2g0a3h" kvg:type="㇔" transform="matrix(1,0,0,1,1096,-4)" xmlns:kvg="http://kanjivg.tagaini.net"></path><path class="stroke_order_diagram--existing_path" d="M47.56,31.47c0.54,0.51,0.91,1.37,1.09,1.88c0.18,0.52,0.18,30.98,0.18,32.14" id="Ske2i2g0a3i" kvg:type="㇑/㇒" transform="matrix(1,0,0,1,1096,-4)" xmlns:kvg="http://kanjivg.tagaini.net"></path><path class="stroke_order_diagram--existing_path" d="M49.29,33.16c6.25-0.21,33.66-2.99,35.31-3.14c2.97-0.26,4.08,1.67,3.71,2.44c-0.36,0.74-0.56,17.65-0.56,28.07c0,9.47-4.26,2.72-6.49,0.66" id="Ske2i2g0a3j" kvg:type="㇆a" transform="matrix(1,0,0,1,1096,-4)" xmlns:kvg="http://kanjivg.tagaini.net"></path><path class="stroke_order_diagram--existing_path" d="M49.29,41.87c8.28-0.45,31.94-1.99,38.62-2.37" id="Ske2i2g0a3k" kvg:type="㇐a" transform="matrix(1,0,0,1,1096,-4)" xmlns:kvg="http://kanjivg.tagaini.net"></path><path class="stroke_order_diagram--existing_path" d="M49.47,50.71c5.94-0.39,31.19-2.2,38.06-2.45" id="Ske2i2g0a3l" kvg:type="㇐a" transform="matrix(1,0,0,1,1096,-4)" xmlns:kvg="http://kanjivg.tagaini.net"></path><path class="stroke_order_diagram--existing_path" d="M66.81,33.48c0.72,0.25,1.15,1.12,1.29,1.61c0.14,0.5,0,25.58-0.14,28.68" id="Ske2i2g0a3m" kvg:type="㇑" transform="matrix(1,0,0,1,1096,-4)" xmlns:kvg="http://kanjivg.tagaini.net"></path><path class="stroke_order_diagram--existing_path" d="M23.82,77.13C24.14,79.42,20.59,89.5,18,93.3" id="Ske2i2g0a3n" kvg:type="㇔" transform="matrix(1,0,0,1,1096,-4)" xmlns:kvg="http://kanjivg.tagaini.net"></path><path class="stroke_order_diagram--current_path" d="M34.5,74.82c6.92,12.46,17.87,23.28,44.56,23.43c12.88,0.08,13.72-3.32,2.98-9" id="kvg:06142-s12" kvg:type="㇟b" transform="matrix(1,0,0,1,1096,-4)" xmlns:kvg="http://kanjivg.tagaini.net"></path><path class="stroke_order_diagram--current_path" d="M34.5,74.82c6.92,12.46,17.87,23.28,44.56,23.43c12.88,0.08,13.72-3.32,2.98-9" id="Ske2i2g0a3p" kvg:type="㇟b" transform="matrix(1,0,0,1,1096,-4)" xmlns:kvg="http://kanjivg.tagaini.net"></path><circle class="stroke_order_diagram--path_start" cx="34.5" cy="74.82" r="4" transform="matrix(1,0,0,1,1096,-4)"></circle><line class="stroke_order_diagram--guide_line" x1="1250" x2="1250" y1="1" y2="99"></line><line class="stroke_order_diagram--bounding_box" x1="1299" x2="1299" y1="1" y2="99"></line><path class="stroke_order_diagram--existing_path" d="M24.19,12.86c3.17,1.27,8.17,5.24,8.97,7.22" id="Ske2i2g0a3s" kvg:type="㇔" transform="matrix(1,0,0,1,1196,-4)" xmlns:kvg="http://kanjivg.tagaini.net"></path><path class="stroke_order_diagram--existing_path" d="M18.03,28.97c3.12,1.25,8.05,5.13,8.83,7.07" id="Ske2i2g0a3t" kvg:type="㇔" transform="matrix(1,0,0,1,1196,-4)" xmlns:kvg="http://kanjivg.tagaini.net"></path><path class="stroke_order_diagram--existing_path" d="M18.5,62.37c1.8,1.32,3.56,0.87,4.69-0.76c3.29-4.74,4.56-8.11,9.98-16.57" id="Ske2i2g0a3u" kvg:type="㇀" transform="matrix(1,0,0,1,1196,-4)" xmlns:kvg="http://kanjivg.tagaini.net"></path><path class="stroke_order_diagram--existing_path" d="M48.12,13.43c1.06,0.58,3.5,1.46,4.7,1.56c3.43,0.27,18.18-2.23,26.83-3.64c4.11-0.67,4.16,1.67,1.46,3.67c-1.38,1.02-12.64,10.25-14.22,11.4" id="Ske2i2g0a3v" kvg:type="㇇" transform="matrix(1,0,0,1,1196,-4)" xmlns:kvg="http://kanjivg.tagaini.net"></path><path class="stroke_order_diagram--existing_path" d="M56.64,20.96c2.96,1.1,10.62,5.35,12.02,8.23" id="Ske2i2g0a3w" kvg:type="㇔" transform="matrix(1,0,0,1,1196,-4)" xmlns:kvg="http://kanjivg.tagaini.net"></path><path class="stroke_order_diagram--existing_path" d="M47.56,31.47c0.54,0.51,0.91,1.37,1.09,1.88c0.18,0.52,0.18,30.98,0.18,32.14" id="Ske2i2g0a3x" kvg:type="㇑/㇒" transform="matrix(1,0,0,1,1196,-4)" xmlns:kvg="http://kanjivg.tagaini.net"></path><path class="stroke_order_diagram--existing_path" d="M49.29,33.16c6.25-0.21,33.66-2.99,35.31-3.14c2.97-0.26,4.08,1.67,3.71,2.44c-0.36,0.74-0.56,17.65-0.56,28.07c0,9.47-4.26,2.72-6.49,0.66" id="Ske2i2g0a3y" kvg:type="㇆a" transform="matrix(1,0,0,1,1196,-4)" xmlns:kvg="http://kanjivg.tagaini.net"></path><path class="stroke_order_diagram--existing_path" d="M49.29,41.87c8.28-0.45,31.94-1.99,38.62-2.37" id="Ske2i2g0a3z" kvg:type="㇐a" transform="matrix(1,0,0,1,1196,-4)" xmlns:kvg="http://kanjivg.tagaini.net"></path><path class="stroke_order_diagram--existing_path" d="M49.47,50.71c5.94-0.39,31.19-2.2,38.06-2.45" id="Ske2i2g0a40" kvg:type="㇐a" transform="matrix(1,0,0,1,1196,-4)" xmlns:kvg="http://kanjivg.tagaini.net"></path><path class="stroke_order_diagram--existing_path" d="M66.81,33.48c0.72,0.25,1.15,1.12,1.29,1.61c0.14,0.5,0,25.58-0.14,28.68" id="Ske2i2g0a41" kvg:type="㇑" transform="matrix(1,0,0,1,1196,-4)" xmlns:kvg="http://kanjivg.tagaini.net"></path><path class="stroke_order_diagram--existing_path" d="M23.82,77.13C24.14,79.42,20.59,89.5,18,93.3" id="Ske2i2g0a42" kvg:type="㇔" transform="matrix(1,0,0,1,1196,-4)" xmlns:kvg="http://kanjivg.tagaini.net"></path><path class="stroke_order_diagram--existing_path" d="M34.5,74.82c6.92,12.46,17.87,23.28,44.56,23.43c12.88,0.08,13.72-3.32,2.98-9" id="Ske2i2g0a43" kvg:type="㇟b" transform="matrix(1,0,0,1,1196,-4)" xmlns:kvg="http://kanjivg.tagaini.net"></path><path class="stroke_order_diagram--current_path" d="M55.83,74.32c1.95,4.26,4.79,8.51,6.88,2" id="kvg:06142-s13" kvg:type="㇔a" transform="matrix(1,0,0,1,1196,-4)" xmlns:kvg="http://kanjivg.tagaini.net"></path><path class="stroke_order_diagram--current_path" d="M55.83,74.32c1.95,4.26,4.79,8.51,6.88,2" id="Ske2i2g0a45" kvg:type="㇔a" transform="matrix(1,0,0,1,1196,-4)" xmlns:kvg="http://kanjivg.tagaini.net"></path><circle class="stroke_order_diagram--path_start" cx="55.83" cy="74.32" r="4" transform="matrix(1,0,0,1,1196,-4)"></circle><line class="stroke_order_diagram--guide_line" x1="1350" x2="1350" y1="1" y2="99"></line><line class="stroke_order_diagram--bounding_box" x1="1399" x2="1399" y1="1" y2="99"></line><path class="stroke_order_diagram--existing_path" d="M24.19,12.86c3.17,1.27,8.17,5.24,8.97,7.22" id="Ske2i2g0a48" kvg:type="㇔" transform="matrix(1,0,0,1,1296,-4)" xmlns:kvg="http://kanjivg.tagaini.net"></path><path class="stroke_order_diagram--existing_path" d="M18.03,28.97c3.12,1.25,8.05,5.13,8.83,7.07" id="Ske2i2g0a49" kvg:type="㇔" transform="matrix(1,0,0,1,1296,-4)" xmlns:kvg="http://kanjivg.tagaini.net"></path><path class="stroke_order_diagram--existing_path" d="M18.5,62.37c1.8,1.32,3.56,0.87,4.69-0.76c3.29-4.74,4.56-8.11,9.98-16.57" id="Ske2i2g0a4a" kvg:type="㇀" transform="matrix(1,0,0,1,1296,-4)" xmlns:kvg="http://kanjivg.tagaini.net"></path><path class="stroke_order_diagram--existing_path" d="M48.12,13.43c1.06,0.58,3.5,1.46,4.7,1.56c3.43,0.27,18.18-2.23,26.83-3.64c4.11-0.67,4.16,1.67,1.46,3.67c-1.38,1.02-12.64,10.25-14.22,11.4" id="Ske2i2g0a4b" kvg:type="㇇" transform="matrix(1,0,0,1,1296,-4)" xmlns:kvg="http://kanjivg.tagaini.net"></path><path class="stroke_order_diagram--existing_path" d="M56.64,20.96c2.96,1.1,10.62,5.35,12.02,8.23" id="Ske2i2g0a4c" kvg:type="㇔" transform="matrix(1,0,0,1,1296,-4)" xmlns:kvg="http://kanjivg.tagaini.net"></path><path class="stroke_order_diagram--existing_path" d="M47.56,31.47c0.54,0.51,0.91,1.37,1.09,1.88c0.18,0.52,0.18,30.98,0.18,32.14" id="Ske2i2g0a4d" kvg:type="㇑/㇒" transform="matrix(1,0,0,1,1296,-4)" xmlns:kvg="http://kanjivg.tagaini.net"></path><path class="stroke_order_diagram--existing_path" d="M49.29,33.16c6.25-0.21,33.66-2.99,35.31-3.14c2.97-0.26,4.08,1.67,3.71,2.44c-0.36,0.74-0.56,17.65-0.56,28.07c0,9.47-4.26,2.72-6.49,0.66" id="Ske2i2g0a4e" kvg:type="㇆a" transform="matrix(1,0,0,1,1296,-4)" xmlns:kvg="http://kanjivg.tagaini.net"></path><path class="stroke_order_diagram--existing_path" d="M49.29,41.87c8.28-0.45,31.94-1.99,38.62-2.37" id="Ske2i2g0a4f" kvg:type="㇐a" transform="matrix(1,0,0,1,1296,-4)" xmlns:kvg="http://kanjivg.tagaini.net"></path><path class="stroke_order_diagram--existing_path" d="M49.47,50.71c5.94-0.39,31.19-2.2,38.06-2.45" id="Ske2i2g0a4g" kvg:type="㇐a" transform="matrix(1,0,0,1,1296,-4)" xmlns:kvg="http://kanjivg.tagaini.net"></path><path class="stroke_order_diagram--existing_path" d="M66.81,33.48c0.72,0.25,1.15,1.12,1.29,1.61c0.14,0.5,0,25.58-0.14,28.68" id="Ske2i2g0a4h" kvg:type="㇑" transform="matrix(1,0,0,1,1296,-4)" xmlns:kvg="http://kanjivg.tagaini.net"></path><path class="stroke_order_diagram--existing_path" d="M23.82,77.13C24.14,79.42,20.59,89.5,18,93.3" id="Ske2i2g0a4i" kvg:type="㇔" transform="matrix(1,0,0,1,1296,-4)" xmlns:kvg="http://kanjivg.tagaini.net"></path><path class="stroke_order_diagram--existing_path" d="M34.5,74.82c6.92,12.46,17.87,23.28,44.56,23.43c12.88,0.08,13.72-3.32,2.98-9" id="Ske2i2g0a4j" kvg:type="㇟b" transform="matrix(1,0,0,1,1296,-4)" xmlns:kvg="http://kanjivg.tagaini.net"></path><path class="stroke_order_diagram--existing_path" d="M55.83,74.32c1.95,4.26,4.79,8.51,6.88,2" id="Ske2i2g0a4k" kvg:type="㇔a" transform="matrix(1,0,0,1,1296,-4)" xmlns:kvg="http://kanjivg.tagaini.net"></path><path class="stroke_order_diagram--current_path" d="M81.8,72.05c5.21,2.22,9.12,4.24,13.35,11.11" id="kvg:06142-s14" kvg:type="㇔" transform="matrix(1,0,0,1,1296,-4)" xmlns:kvg="http://kanjivg.tagaini.net"></path><path class="stroke_order_diagram--current_path" d="M81.8,72.05c5.21,2.22,9.12,4.24,13.35,11.11" id="Ske2i2g0a4m" kvg:type="㇔" transform="matrix(1,0,0,1,1296,-4)" xmlns:kvg="http://kanjivg.tagaini.net"></path><circle class="stroke_order_diagram--path_start" cx="81.8" cy="72.05" r="4" transform="matrix(1,0,0,1,1296,-4)"></circle></svg>