<svg class="stroke_order_diagram--svg_container_for_518662a7d5dda79658000eb1" style="height: 100px; width: 1500px;" viewbox="0 0 1500 100"><desc>Created with Snap</desc><defs></defs><line class="stroke_order_diagram--bounding_box" x1="1" x2="1499" y1="1" y2="1"></line><line class="stroke_order_diagram--bounding_box" x1="1" x2="1" y1="1" y2="99"></line><line class="stroke_order_diagram--bounding_box" x1="1" x2="1499" y1="99" y2="99"></line><line class="stroke_order_diagram--guide_line" x1="0" x2="1500" y1="50" y2="50"></line><line class="stroke_order_diagram--guide_line" x1="50" x2="50" y1="1" y2="99"></line><line class="stroke_order_diagram--bounding_box" x1="99" x2="99" y1="1" y2="99"></line><path class="stroke_order_diagram--current_path" d="M14.72,34.5c0.03,4.31-2.47,14.14-4.69,17.5" id="kvg:06173-s1" kvg:type="㇔" transform="matrix(1,0,0,1,-4,-4)" xmlns:kvg="http://kanjivg.tagaini.net"></path><path class="stroke_order_diagram--current_path" d="M14.72,34.5c0.03,4.31-2.47,14.14-4.69,17.5" id="Ske2i30f0o" kvg:type="㇔" transform="matrix(1,0,0,1,-4,-4)" xmlns:kvg="http://kanjivg.tagaini.net"></path><circle class="stroke_order_diagram--path_start" cx="14.72" cy="34.5" r="4" transform="matrix(1,0,0,1,-4,-4)"></circle><line class="stroke_order_diagram--guide_line" x1="150" x2="150" y1="1" y2="99"></line><line class="stroke_order_diagram--bounding_box" x1="199" x2="199" y1="1" y2="99"></line><path class="stroke_order_diagram--existing_path" d="M14.72,34.5c0.03,4.31-2.47,14.14-4.69,17.5" id="Ske2i30f0r" kvg:type="㇔" transform="matrix(1,0,0,1,96,-4)" xmlns:kvg="http://kanjivg.tagaini.net"></path><path class="stroke_order_diagram--current_path" d="M27.77,30.83c1.87,1.88,4.83,7.71,5.29,10.63" id="kvg:06173-s2" kvg:type="㇔" transform="matrix(1,0,0,1,96,-4)" xmlns:kvg="http://kanjivg.tagaini.net"></path><path class="stroke_order_diagram--current_path" d="M27.77,30.83c1.87,1.88,4.83,7.71,5.29,10.63" id="Ske2i30f0t" kvg:type="㇔" transform="matrix(1,0,0,1,96,-4)" xmlns:kvg="http://kanjivg.tagaini.net"></path><circle class="stroke_order_diagram--path_start" cx="27.77" cy="30.83" r="4" transform="matrix(1,0,0,1,96,-4)"></circle><line class="stroke_order_diagram--guide_line" x1="250" x2="250" y1="1" y2="99"></line><line class="stroke_order_diagram--bounding_box" x1="299" x2="299" y1="1" y2="99"></line><path class="stroke_order_diagram--existing_path" d="M14.72,34.5c0.03,4.31-2.47,14.14-4.69,17.5" id="Ske2i30f0w" kvg:type="㇔" transform="matrix(1,0,0,1,196,-4)" xmlns:kvg="http://kanjivg.tagaini.net"></path><path class="stroke_order_diagram--existing_path" d="M27.77,30.83c1.87,1.88,4.83,7.71,5.29,10.63" id="Ske2i30f0x" kvg:type="㇔" transform="matrix(1,0,0,1,196,-4)" xmlns:kvg="http://kanjivg.tagaini.net"></path><path class="stroke_order_diagram--current_path" d="M19.87,13.75c1.09,0.5,1.74,2.25,1.96,3.25c0.22,1,0,73.75-0.22,80" id="kvg:06173-s3" kvg:type="㇑" transform="matrix(1,0,0,1,196,-4)" xmlns:kvg="http://kanjivg.tagaini.net"></path><path class="stroke_order_diagram--current_path" d="M19.87,13.75c1.09,0.5,1.74,2.25,1.96,3.25c0.22,1,0,73.75-0.22,80" id="Ske2i30f0z" kvg:type="㇑" transform="matrix(1,0,0,1,196,-4)" xmlns:kvg="http://kanjivg.tagaini.net"></path><circle class="stroke_order_diagram--path_start" cx="19.87" cy="13.75" r="4" transform="matrix(1,0,0,1,196,-4)"></circle><line class="stroke_order_diagram--guide_line" x1="350" x2="350" y1="1" y2="99"></line><line class="stroke_order_diagram--bounding_box" x1="399" x2="399" y1="1" y2="99"></line><path class="stroke_order_diagram--existing_path" d="M14.72,34.5c0.03,4.31-2.47,14.14-4.69,17.5" id="Ske2i30f012" kvg:type="㇔" transform="matrix(1,0,0,1,296,-4)" xmlns:kvg="http://kanjivg.tagaini.net"></path><path class="stroke_order_diagram--existing_path" d="M27.77,30.83c1.87,1.88,4.83,7.71,5.29,10.63" id="Ske2i30f013" kvg:type="㇔" transform="matrix(1,0,0,1,296,-4)" xmlns:kvg="http://kanjivg.tagaini.net"></path><path class="stroke_order_diagram--existing_path" d="M19.87,13.75c1.09,0.5,1.74,2.25,1.96,3.25c0.22,1,0,73.75-0.22,80" id="Ske2i30f014" kvg:type="㇑" transform="matrix(1,0,0,1,296,-4)" xmlns:kvg="http://kanjivg.tagaini.net"></path><path class="stroke_order_diagram--current_path" d="M38.91,18.87c0.26,0.97,0.68,2.48,0.77,2.97c0.09,0.49,0.38,34.38,0.33,37.44" id="kvg:06173-s4" kvg:type="㇑" transform="matrix(1,0,0,1,296,-4)" xmlns:kvg="http://kanjivg.tagaini.net"></path><path class="stroke_order_diagram--current_path" d="M38.91,18.87c0.26,0.97,0.68,2.48,0.77,2.97c0.09,0.49,0.38,34.38,0.33,37.44" id="Ske2i30f016" kvg:type="㇑" transform="matrix(1,0,0,1,296,-4)" xmlns:kvg="http://kanjivg.tagaini.net"></path><circle class="stroke_order_diagram--path_start" cx="38.91" cy="18.87" r="4" transform="matrix(1,0,0,1,296,-4)"></circle><line class="stroke_order_diagram--guide_line" x1="450" x2="450" y1="1" y2="99"></line><line class="stroke_order_diagram--bounding_box" x1="499" x2="499" y1="1" y2="99"></line><path class="stroke_order_diagram--existing_path" d="M14.72,34.5c0.03,4.31-2.47,14.14-4.69,17.5" id="Ske2i30f019" kvg:type="㇔" transform="matrix(1,0,0,1,396,-4)" xmlns:kvg="http://kanjivg.tagaini.net"></path><path class="stroke_order_diagram--existing_path" d="M27.77,30.83c1.87,1.88,4.83,7.71,5.29,10.63" id="Ske2i30f01a" kvg:type="㇔" transform="matrix(1,0,0,1,396,-4)" xmlns:kvg="http://kanjivg.tagaini.net"></path><path class="stroke_order_diagram--existing_path" d="M19.87,13.75c1.09,0.5,1.74,2.25,1.96,3.25c0.22,1,0,73.75-0.22,80" id="Ske2i30f01b" kvg:type="㇑" transform="matrix(1,0,0,1,396,-4)" xmlns:kvg="http://kanjivg.tagaini.net"></path><path class="stroke_order_diagram--existing_path" d="M38.91,18.87c0.26,0.97,0.68,2.48,0.77,2.97c0.09,0.49,0.38,34.38,0.33,37.44" id="Ske2i30f01c" kvg:type="㇑" transform="matrix(1,0,0,1,396,-4)" xmlns:kvg="http://kanjivg.tagaini.net"></path><path class="stroke_order_diagram--current_path" d="M39.77,21c2.74-0.43,14.21-2.63,20.58-3.14c0.97-0.08,1.55-0.16,2.03-0.03" id="kvg:06173-s5" kvg:type="㇐b" transform="matrix(1,0,0,1,396,-4)" xmlns:kvg="http://kanjivg.tagaini.net"></path><path class="stroke_order_diagram--current_path" d="M39.77,21c2.74-0.43,14.21-2.63,20.58-3.14c0.97-0.08,1.55-0.16,2.03-0.03" id="Ske2i30f01e" kvg:type="㇐b" transform="matrix(1,0,0,1,396,-4)" xmlns:kvg="http://kanjivg.tagaini.net"></path><circle class="stroke_order_diagram--path_start" cx="39.77" cy="21" r="4" transform="matrix(1,0,0,1,396,-4)"></circle><line class="stroke_order_diagram--guide_line" x1="550" x2="550" y1="1" y2="99"></line><line class="stroke_order_diagram--bounding_box" x1="599" x2="599" y1="1" y2="99"></line><path class="stroke_order_diagram--existing_path" d="M14.72,34.5c0.03,4.31-2.47,14.14-4.69,17.5" id="Ske2i30f01h" kvg:type="㇔" transform="matrix(1,0,0,1,496,-4)" xmlns:kvg="http://kanjivg.tagaini.net"></path><path class="stroke_order_diagram--existing_path" d="M27.77,30.83c1.87,1.88,4.83,7.71,5.29,10.63" id="Ske2i30f01i" kvg:type="㇔" transform="matrix(1,0,0,1,496,-4)" xmlns:kvg="http://kanjivg.tagaini.net"></path><path class="stroke_order_diagram--existing_path" d="M19.87,13.75c1.09,0.5,1.74,2.25,1.96,3.25c0.22,1,0,73.75-0.22,80" id="Ske2i30f01j" kvg:type="㇑" transform="matrix(1,0,0,1,496,-4)" xmlns:kvg="http://kanjivg.tagaini.net"></path><path class="stroke_order_diagram--existing_path" d="M38.91,18.87c0.26,0.97,0.68,2.48,0.77,2.97c0.09,0.49,0.38,34.38,0.33,37.44" id="Ske2i30f01k" kvg:type="㇑" transform="matrix(1,0,0,1,496,-4)" xmlns:kvg="http://kanjivg.tagaini.net"></path><path class="stroke_order_diagram--existing_path" d="M39.77,21c2.74-0.43,14.21-2.63,20.58-3.14c0.97-0.08,1.55-0.16,2.03-0.03" id="Ske2i30f01l" kvg:type="㇐b" transform="matrix(1,0,0,1,496,-4)" xmlns:kvg="http://kanjivg.tagaini.net"></path><path class="stroke_order_diagram--current_path" d="M50.87,21.27c0.42,0.24,0.68,1.09,0.77,1.58c0.09,0.49,0.12,5.12,0.07,8.19" id="kvg:06173-s6" kvg:type="㇑a" transform="matrix(1,0,0,1,496,-4)" xmlns:kvg="http://kanjivg.tagaini.net"></path><path class="stroke_order_diagram--current_path" d="M50.87,21.27c0.42,0.24,0.68,1.09,0.77,1.58c0.09,0.49,0.12,5.12,0.07,8.19" id="Ske2i30f01n" kvg:type="㇑a" transform="matrix(1,0,0,1,496,-4)" xmlns:kvg="http://kanjivg.tagaini.net"></path><circle class="stroke_order_diagram--path_start" cx="50.87" cy="21.27" r="4" transform="matrix(1,0,0,1,496,-4)"></circle><line class="stroke_order_diagram--guide_line" x1="650" x2="650" y1="1" y2="99"></line><line class="stroke_order_diagram--bounding_box" x1="699" x2="699" y1="1" y2="99"></line><path class="stroke_order_diagram--existing_path" d="M14.72,34.5c0.03,4.31-2.47,14.14-4.69,17.5" id="Ske2i30f01q" kvg:type="㇔" transform="matrix(1,0,0,1,596,-4)" xmlns:kvg="http://kanjivg.tagaini.net"></path><path class="stroke_order_diagram--existing_path" d="M27.77,30.83c1.87,1.88,4.83,7.71,5.29,10.63" id="Ske2i30f01r" kvg:type="㇔" transform="matrix(1,0,0,1,596,-4)" xmlns:kvg="http://kanjivg.tagaini.net"></path><path class="stroke_order_diagram--existing_path" d="M19.87,13.75c1.09,0.5,1.74,2.25,1.96,3.25c0.22,1,0,73.75-0.22,80" id="Ske2i30f01s" kvg:type="㇑" transform="matrix(1,0,0,1,596,-4)" xmlns:kvg="http://kanjivg.tagaini.net"></path><path class="stroke_order_diagram--existing_path" d="M38.91,18.87c0.26,0.97,0.68,2.48,0.77,2.97c0.09,0.49,0.38,34.38,0.33,37.44" id="Ske2i30f01t" kvg:type="㇑" transform="matrix(1,0,0,1,596,-4)" xmlns:kvg="http://kanjivg.tagaini.net"></path><path class="stroke_order_diagram--existing_path" d="M39.77,21c2.74-0.43,14.21-2.63,20.58-3.14c0.97-0.08,1.55-0.16,2.03-0.03" id="Ske2i30f01u" kvg:type="㇐b" transform="matrix(1,0,0,1,596,-4)" xmlns:kvg="http://kanjivg.tagaini.net"></path><path class="stroke_order_diagram--existing_path" d="M50.87,21.27c0.42,0.24,0.68,1.09,0.77,1.58c0.09,0.49,0.12,5.12,0.07,8.19" id="Ske2i30f01v" kvg:type="㇑a" transform="matrix(1,0,0,1,596,-4)" xmlns:kvg="http://kanjivg.tagaini.net"></path><path class="stroke_order_diagram--current_path" d="M40.06,32.78c6.56-1.06,15.72-2.15,20.27-2.88c1.84-0.3,2.37,0.71,2.12,2.03c-0.44,2.41-1.47,5.86-1.91,8.75" id="kvg:06173-s7" kvg:type="㇕b" transform="matrix(1,0,0,1,596,-4)" xmlns:kvg="http://kanjivg.tagaini.net"></path><path class="stroke_order_diagram--current_path" d="M40.06,32.78c6.56-1.06,15.72-2.15,20.27-2.88c1.84-0.3,2.37,0.71,2.12,2.03c-0.44,2.41-1.47,5.86-1.91,8.75" id="Ske2i30f01x" kvg:type="㇕b" transform="matrix(1,0,0,1,596,-4)" xmlns:kvg="http://kanjivg.tagaini.net"></path><circle class="stroke_order_diagram--path_start" cx="40.06" cy="32.78" r="4" transform="matrix(1,0,0,1,596,-4)"></circle><line class="stroke_order_diagram--guide_line" x1="750" x2="750" y1="1" y2="99"></line><line class="stroke_order_diagram--bounding_box" x1="799" x2="799" y1="1" y2="99"></line><path class="stroke_order_diagram--existing_path" d="M14.72,34.5c0.03,4.31-2.47,14.14-4.69,17.5" id="Ske2i30f020" kvg:type="㇔" transform="matrix(1,0,0,1,696,-4)" xmlns:kvg="http://kanjivg.tagaini.net"></path><path class="stroke_order_diagram--existing_path" d="M27.77,30.83c1.87,1.88,4.83,7.71,5.29,10.63" id="Ske2i30f021" kvg:type="㇔" transform="matrix(1,0,0,1,696,-4)" xmlns:kvg="http://kanjivg.tagaini.net"></path><path class="stroke_order_diagram--existing_path" d="M19.87,13.75c1.09,0.5,1.74,2.25,1.96,3.25c0.22,1,0,73.75-0.22,80" id="Ske2i30f022" kvg:type="㇑" transform="matrix(1,0,0,1,696,-4)" xmlns:kvg="http://kanjivg.tagaini.net"></path><path class="stroke_order_diagram--existing_path" d="M38.91,18.87c0.26,0.97,0.68,2.48,0.77,2.97c0.09,0.49,0.38,34.38,0.33,37.44" id="Ske2i30f023" kvg:type="㇑" transform="matrix(1,0,0,1,696,-4)" xmlns:kvg="http://kanjivg.tagaini.net"></path><path class="stroke_order_diagram--existing_path" d="M39.77,21c2.74-0.43,14.21-2.63,20.58-3.14c0.97-0.08,1.55-0.16,2.03-0.03" id="Ske2i30f024" kvg:type="㇐b" transform="matrix(1,0,0,1,696,-4)" xmlns:kvg="http://kanjivg.tagaini.net"></path><path class="stroke_order_diagram--existing_path" d="M50.87,21.27c0.42,0.24,0.68,1.09,0.77,1.58c0.09,0.49,0.12,5.12,0.07,8.19" id="Ske2i30f025" kvg:type="㇑a" transform="matrix(1,0,0,1,696,-4)" xmlns:kvg="http://kanjivg.tagaini.net"></path><path class="stroke_order_diagram--existing_path" d="M40.06,32.78c6.56-1.06,15.72-2.15,20.27-2.88c1.84-0.3,2.37,0.71,2.12,2.03c-0.44,2.41-1.47,5.86-1.91,8.75" id="Ske2i30f026" kvg:type="㇕b" transform="matrix(1,0,0,1,696,-4)" xmlns:kvg="http://kanjivg.tagaini.net"></path><path class="stroke_order_diagram--current_path" d="M40.2,43.81c2.74-0.43,18.72-2.23,21.29-2.52" id="kvg:06173-s8" kvg:type="㇐b" transform="matrix(1,0,0,1,696,-4)" xmlns:kvg="http://kanjivg.tagaini.net"></path><path class="stroke_order_diagram--current_path" d="M40.2,43.81c2.74-0.43,18.72-2.23,21.29-2.52" id="Ske2i30f028" kvg:type="㇐b" transform="matrix(1,0,0,1,696,-4)" xmlns:kvg="http://kanjivg.tagaini.net"></path><circle class="stroke_order_diagram--path_start" cx="40.2" cy="43.81" r="4" transform="matrix(1,0,0,1,696,-4)"></circle><line class="stroke_order_diagram--guide_line" x1="850" x2="850" y1="1" y2="99"></line><line class="stroke_order_diagram--bounding_box" x1="899" x2="899" y1="1" y2="99"></line><path class="stroke_order_diagram--existing_path" d="M14.72,34.5c0.03,4.31-2.47,14.14-4.69,17.5" id="Ske2i30f02b" kvg:type="㇔" transform="matrix(1,0,0,1,796,-4)" xmlns:kvg="http://kanjivg.tagaini.net"></path><path class="stroke_order_diagram--existing_path" d="M27.77,30.83c1.87,1.88,4.83,7.71,5.29,10.63" id="Ske2i30f02c" kvg:type="㇔" transform="matrix(1,0,0,1,796,-4)" xmlns:kvg="http://kanjivg.tagaini.net"></path><path class="stroke_order_diagram--existing_path" d="M19.87,13.75c1.09,0.5,1.74,2.25,1.96,3.25c0.22,1,0,73.75-0.22,80" id="Ske2i30f02d" kvg:type="㇑" transform="matrix(1,0,0,1,796,-4)" xmlns:kvg="http://kanjivg.tagaini.net"></path><path class="stroke_order_diagram--existing_path" d="M38.91,18.87c0.26,0.97,0.68,2.48,0.77,2.97c0.09,0.49,0.38,34.38,0.33,37.44" id="Ske2i30f02e" kvg:type="㇑" transform="matrix(1,0,0,1,796,-4)" xmlns:kvg="http://kanjivg.tagaini.net"></path><path class="stroke_order_diagram--existing_path" d="M39.77,21c2.74-0.43,14.21-2.63,20.58-3.14c0.97-0.08,1.55-0.16,2.03-0.03" id="Ske2i30f02f" kvg:type="㇐b" transform="matrix(1,0,0,1,796,-4)" xmlns:kvg="http://kanjivg.tagaini.net"></path><path class="stroke_order_diagram--existing_path" d="M50.87,21.27c0.42,0.24,0.68,1.09,0.77,1.58c0.09,0.49,0.12,5.12,0.07,8.19" id="Ske2i30f02g" kvg:type="㇑a" transform="matrix(1,0,0,1,796,-4)" xmlns:kvg="http://kanjivg.tagaini.net"></path><path class="stroke_order_diagram--existing_path" d="M40.06,32.78c6.56-1.06,15.72-2.15,20.27-2.88c1.84-0.3,2.37,0.71,2.12,2.03c-0.44,2.41-1.47,5.86-1.91,8.75" id="Ske2i30f02h" kvg:type="㇕b" transform="matrix(1,0,0,1,796,-4)" xmlns:kvg="http://kanjivg.tagaini.net"></path><path class="stroke_order_diagram--existing_path" d="M40.2,43.81c2.74-0.43,18.72-2.23,21.29-2.52" id="Ske2i30f02i" kvg:type="㇐b" transform="matrix(1,0,0,1,796,-4)" xmlns:kvg="http://kanjivg.tagaini.net"></path><path class="stroke_order_diagram--current_path" d="M50.9,42.7c0.42,0.24,0.68,1.09,0.77,1.58c0.09,0.49,0.15,8.83,0.1,11.9" id="kvg:06173-s9" kvg:type="㇑a" transform="matrix(1,0,0,1,796,-4)" xmlns:kvg="http://kanjivg.tagaini.net"></path><path class="stroke_order_diagram--current_path" d="M50.9,42.7c0.42,0.24,0.68,1.09,0.77,1.58c0.09,0.49,0.15,8.83,0.1,11.9" id="Ske2i30f02k" kvg:type="㇑a" transform="matrix(1,0,0,1,796,-4)" xmlns:kvg="http://kanjivg.tagaini.net"></path><circle class="stroke_order_diagram--path_start" cx="50.9" cy="42.7" r="4" transform="matrix(1,0,0,1,796,-4)"></circle><line class="stroke_order_diagram--guide_line" x1="950" x2="950" y1="1" y2="99"></line><line class="stroke_order_diagram--bounding_box" x1="999" x2="999" y1="1" y2="99"></line><path class="stroke_order_diagram--existing_path" d="M14.72,34.5c0.03,4.31-2.47,14.14-4.69,17.5" id="Ske2i30f02n" kvg:type="㇔" transform="matrix(1,0,0,1,896,-4)" xmlns:kvg="http://kanjivg.tagaini.net"></path><path class="stroke_order_diagram--existing_path" d="M27.77,30.83c1.87,1.88,4.83,7.71,5.29,10.63" id="Ske2i30f02o" kvg:type="㇔" transform="matrix(1,0,0,1,896,-4)" xmlns:kvg="http://kanjivg.tagaini.net"></path><path class="stroke_order_diagram--existing_path" d="M19.87,13.75c1.09,0.5,1.74,2.25,1.96,3.25c0.22,1,0,73.75-0.22,80" id="Ske2i30f02p" kvg:type="㇑" transform="matrix(1,0,0,1,896,-4)" xmlns:kvg="http://kanjivg.tagaini.net"></path><path class="stroke_order_diagram--existing_path" d="M38.91,18.87c0.26,0.97,0.68,2.48,0.77,2.97c0.09,0.49,0.38,34.38,0.33,37.44" id="Ske2i30f02q" kvg:type="㇑" transform="matrix(1,0,0,1,896,-4)" xmlns:kvg="http://kanjivg.tagaini.net"></path><path class="stroke_order_diagram--existing_path" d="M39.77,21c2.74-0.43,14.21-2.63,20.58-3.14c0.97-0.08,1.55-0.16,2.03-0.03" id="Ske2i30f02r" kvg:type="㇐b" transform="matrix(1,0,0,1,896,-4)" xmlns:kvg="http://kanjivg.tagaini.net"></path><path class="stroke_order_diagram--existing_path" d="M50.87,21.27c0.42,0.24,0.68,1.09,0.77,1.58c0.09,0.49,0.12,5.12,0.07,8.19" id="Ske2i30f02s" kvg:type="㇑a" transform="matrix(1,0,0,1,896,-4)" xmlns:kvg="http://kanjivg.tagaini.net"></path><path class="stroke_order_diagram--existing_path" d="M40.06,32.78c6.56-1.06,15.72-2.15,20.27-2.88c1.84-0.3,2.37,0.71,2.12,2.03c-0.44,2.41-1.47,5.86-1.91,8.75" id="Ske2i30f02t" kvg:type="㇕b" transform="matrix(1,0,0,1,896,-4)" xmlns:kvg="http://kanjivg.tagaini.net"></path><path class="stroke_order_diagram--existing_path" d="M40.2,43.81c2.74-0.43,18.72-2.23,21.29-2.52" id="Ske2i30f02u" kvg:type="㇐b" transform="matrix(1,0,0,1,896,-4)" xmlns:kvg="http://kanjivg.tagaini.net"></path><path class="stroke_order_diagram--existing_path" d="M50.9,42.7c0.42,0.24,0.68,1.09,0.77,1.58c0.09,0.49,0.15,8.83,0.1,11.9" id="Ske2i30f02v" kvg:type="㇑a" transform="matrix(1,0,0,1,896,-4)" xmlns:kvg="http://kanjivg.tagaini.net"></path><path class="stroke_order_diagram--current_path" d="M40.16,57.8c2.74-0.43,15.18-1.92,21.55-2.44c0.96-0.08,1.54-0.15,2.03-0.03" id="kvg:06173-s10" kvg:type="㇐b" transform="matrix(1,0,0,1,896,-4)" xmlns:kvg="http://kanjivg.tagaini.net"></path><path class="stroke_order_diagram--current_path" d="M40.16,57.8c2.74-0.43,15.18-1.92,21.55-2.44c0.96-0.08,1.54-0.15,2.03-0.03" id="Ske2i30f02x" kvg:type="㇐b" transform="matrix(1,0,0,1,896,-4)" xmlns:kvg="http://kanjivg.tagaini.net"></path><circle class="stroke_order_diagram--path_start" cx="40.16" cy="57.8" r="4" transform="matrix(1,0,0,1,896,-4)"></circle><line class="stroke_order_diagram--guide_line" x1="1050" x2="1050" y1="1" y2="99"></line><line class="stroke_order_diagram--bounding_box" x1="1099" x2="1099" y1="1" y2="99"></line><path class="stroke_order_diagram--existing_path" d="M14.72,34.5c0.03,4.31-2.47,14.14-4.69,17.5" id="Ske2i30f030" kvg:type="㇔" transform="matrix(1,0,0,1,996,-4)" xmlns:kvg="http://kanjivg.tagaini.net"></path><path class="stroke_order_diagram--existing_path" d="M27.77,30.83c1.87,1.88,4.83,7.71,5.29,10.63" id="Ske2i30f031" kvg:type="㇔" transform="matrix(1,0,0,1,996,-4)" xmlns:kvg="http://kanjivg.tagaini.net"></path><path class="stroke_order_diagram--existing_path" d="M19.87,13.75c1.09,0.5,1.74,2.25,1.96,3.25c0.22,1,0,73.75-0.22,80" id="Ske2i30f032" kvg:type="㇑" transform="matrix(1,0,0,1,996,-4)" xmlns:kvg="http://kanjivg.tagaini.net"></path><path class="stroke_order_diagram--existing_path" d="M38.91,18.87c0.26,0.97,0.68,2.48,0.77,2.97c0.09,0.49,0.38,34.38,0.33,37.44" id="Ske2i30f033" kvg:type="㇑" transform="matrix(1,0,0,1,996,-4)" xmlns:kvg="http://kanjivg.tagaini.net"></path><path class="stroke_order_diagram--existing_path" d="M39.77,21c2.74-0.43,14.21-2.63,20.58-3.14c0.97-0.08,1.55-0.16,2.03-0.03" id="Ske2i30f034" kvg:type="㇐b" transform="matrix(1,0,0,1,996,-4)" xmlns:kvg="http://kanjivg.tagaini.net"></path><path class="stroke_order_diagram--existing_path" d="M50.87,21.27c0.42,0.24,0.68,1.09,0.77,1.58c0.09,0.49,0.12,5.12,0.07,8.19" id="Ske2i30f035" kvg:type="㇑a" transform="matrix(1,0,0,1,996,-4)" xmlns:kvg="http://kanjivg.tagaini.net"></path><path class="stroke_order_diagram--existing_path" d="M40.06,32.78c6.56-1.06,15.72-2.15,20.27-2.88c1.84-0.3,2.37,0.71,2.12,2.03c-0.44,2.41-1.47,5.86-1.91,8.75" id="Ske2i30f036" kvg:type="㇕b" transform="matrix(1,0,0,1,996,-4)" xmlns:kvg="http://kanjivg.tagaini.net"></path><path class="stroke_order_diagram--existing_path" d="M40.2,43.81c2.74-0.43,18.72-2.23,21.29-2.52" id="Ske2i30f037" kvg:type="㇐b" transform="matrix(1,0,0,1,996,-4)" xmlns:kvg="http://kanjivg.tagaini.net"></path><path class="stroke_order_diagram--existing_path" d="M50.9,42.7c0.42,0.24,0.68,1.09,0.77,1.58c0.09,0.49,0.15,8.83,0.1,11.9" id="Ske2i30f038" kvg:type="㇑a" transform="matrix(1,0,0,1,996,-4)" xmlns:kvg="http://kanjivg.tagaini.net"></path><path class="stroke_order_diagram--existing_path" d="M40.16,57.8c2.74-0.43,15.18-1.92,21.55-2.44c0.96-0.08,1.54-0.15,2.03-0.03" id="Ske2i30f039" kvg:type="㇐b" transform="matrix(1,0,0,1,996,-4)" xmlns:kvg="http://kanjivg.tagaini.net"></path><path class="stroke_order_diagram--current_path" d="M69.59,21.2c0.81,0.25,0.91,0.64,2.52,0.25c1.62-0.38,17.78-3.89,18.89-4.27c1.11-0.38,1.92,1.4,1.51,2.79c-4.74,16.5-15.12,31.19-24.21,37.41" id="kvg:06173-s11" kvg:type="㇇" transform="matrix(1,0,0,1,996,-4)" xmlns:kvg="http://kanjivg.tagaini.net"></path><path class="stroke_order_diagram--current_path" d="M69.59,21.2c0.81,0.25,0.91,0.64,2.52,0.25c1.62-0.38,17.78-3.89,18.89-4.27c1.11-0.38,1.92,1.4,1.51,2.79c-4.74,16.5-15.12,31.19-24.21,37.41" id="Ske2i30f03b" kvg:type="㇇" transform="matrix(1,0,0,1,996,-4)" xmlns:kvg="http://kanjivg.tagaini.net"></path><circle class="stroke_order_diagram--path_start" cx="69.59" cy="21.2" r="4" transform="matrix(1,0,0,1,996,-4)"></circle><line class="stroke_order_diagram--guide_line" x1="1150" x2="1150" y1="1" y2="99"></line><line class="stroke_order_diagram--bounding_box" x1="1199" x2="1199" y1="1" y2="99"></line><path class="stroke_order_diagram--existing_path" d="M14.72,34.5c0.03,4.31-2.47,14.14-4.69,17.5" id="Ske2i30f03e" kvg:type="㇔" transform="matrix(1,0,0,1,1096,-4)" xmlns:kvg="http://kanjivg.tagaini.net"></path><path class="stroke_order_diagram--existing_path" d="M27.77,30.83c1.87,1.88,4.83,7.71,5.29,10.63" id="Ske2i30f03f" kvg:type="㇔" transform="matrix(1,0,0,1,1096,-4)" xmlns:kvg="http://kanjivg.tagaini.net"></path><path class="stroke_order_diagram--existing_path" d="M19.87,13.75c1.09,0.5,1.74,2.25,1.96,3.25c0.22,1,0,73.75-0.22,80" id="Ske2i30f03g" kvg:type="㇑" transform="matrix(1,0,0,1,1096,-4)" xmlns:kvg="http://kanjivg.tagaini.net"></path><path class="stroke_order_diagram--existing_path" d="M38.91,18.87c0.26,0.97,0.68,2.48,0.77,2.97c0.09,0.49,0.38,34.38,0.33,37.44" id="Ske2i30f03h" kvg:type="㇑" transform="matrix(1,0,0,1,1096,-4)" xmlns:kvg="http://kanjivg.tagaini.net"></path><path class="stroke_order_diagram--existing_path" d="M39.77,21c2.74-0.43,14.21-2.63,20.58-3.14c0.97-0.08,1.55-0.16,2.03-0.03" id="Ske2i30f03i" kvg:type="㇐b" transform="matrix(1,0,0,1,1096,-4)" xmlns:kvg="http://kanjivg.tagaini.net"></path><path class="stroke_order_diagram--existing_path" d="M50.87,21.27c0.42,0.24,0.68,1.09,0.77,1.58c0.09,0.49,0.12,5.12,0.07,8.19" id="Ske2i30f03j" kvg:type="㇑a" transform="matrix(1,0,0,1,1096,-4)" xmlns:kvg="http://kanjivg.tagaini.net"></path><path class="stroke_order_diagram--existing_path" d="M40.06,32.78c6.56-1.06,15.72-2.15,20.27-2.88c1.84-0.3,2.37,0.71,2.12,2.03c-0.44,2.41-1.47,5.86-1.91,8.75" id="Ske2i30f03k" kvg:type="㇕b" transform="matrix(1,0,0,1,1096,-4)" xmlns:kvg="http://kanjivg.tagaini.net"></path><path class="stroke_order_diagram--existing_path" d="M40.2,43.81c2.74-0.43,18.72-2.23,21.29-2.52" id="Ske2i30f03l" kvg:type="㇐b" transform="matrix(1,0,0,1,1096,-4)" xmlns:kvg="http://kanjivg.tagaini.net"></path><path class="stroke_order_diagram--existing_path" d="M50.9,42.7c0.42,0.24,0.68,1.09,0.77,1.58c0.09,0.49,0.15,8.83,0.1,11.9" id="Ske2i30f03m" kvg:type="㇑a" transform="matrix(1,0,0,1,1096,-4)" xmlns:kvg="http://kanjivg.tagaini.net"></path><path class="stroke_order_diagram--existing_path" d="M40.16,57.8c2.74-0.43,15.18-1.92,21.55-2.44c0.96-0.08,1.54-0.15,2.03-0.03" id="Ske2i30f03n" kvg:type="㇐b" transform="matrix(1,0,0,1,1096,-4)" xmlns:kvg="http://kanjivg.tagaini.net"></path><path class="stroke_order_diagram--existing_path" d="M69.59,21.2c0.81,0.25,0.91,0.64,2.52,0.25c1.62-0.38,17.78-3.89,18.89-4.27c1.11-0.38,1.92,1.4,1.51,2.79c-4.74,16.5-15.12,31.19-24.21,37.41" id="Ske2i30f03o" kvg:type="㇇" transform="matrix(1,0,0,1,1096,-4)" xmlns:kvg="http://kanjivg.tagaini.net"></path><path class="stroke_order_diagram--current_path" d="M68.86,29.43c2.52,0.68,14.86,18.81,23.65,26.24c1.37,1.16,2.37,1.93,3.64,2.31" id="kvg:06173-s12" kvg:type="㇏" transform="matrix(1,0,0,1,1096,-4)" xmlns:kvg="http://kanjivg.tagaini.net"></path><path class="stroke_order_diagram--current_path" d="M68.86,29.43c2.52,0.68,14.86,18.81,23.65,26.24c1.37,1.16,2.37,1.93,3.64,2.31" id="Ske2i30f03q" kvg:type="㇏" transform="matrix(1,0,0,1,1096,-4)" xmlns:kvg="http://kanjivg.tagaini.net"></path><circle class="stroke_order_diagram--path_start" cx="68.86" cy="29.43" r="4" transform="matrix(1,0,0,1,1096,-4)"></circle><line class="stroke_order_diagram--guide_line" x1="1250" x2="1250" y1="1" y2="99"></line><line class="stroke_order_diagram--bounding_box" x1="1299" x2="1299" y1="1" y2="99"></line><path class="stroke_order_diagram--existing_path" d="M14.72,34.5c0.03,4.31-2.47,14.14-4.69,17.5" id="Ske2i30f03t" kvg:type="㇔" transform="matrix(1,0,0,1,1196,-4)" xmlns:kvg="http://kanjivg.tagaini.net"></path><path class="stroke_order_diagram--existing_path" d="M27.77,30.83c1.87,1.88,4.83,7.71,5.29,10.63" id="Ske2i30f03u" kvg:type="㇔" transform="matrix(1,0,0,1,1196,-4)" xmlns:kvg="http://kanjivg.tagaini.net"></path><path class="stroke_order_diagram--existing_path" d="M19.87,13.75c1.09,0.5,1.74,2.25,1.96,3.25c0.22,1,0,73.75-0.22,80" id="Ske2i30f03v" kvg:type="㇑" transform="matrix(1,0,0,1,1196,-4)" xmlns:kvg="http://kanjivg.tagaini.net"></path><path class="stroke_order_diagram--existing_path" d="M38.91,18.87c0.26,0.97,0.68,2.48,0.77,2.97c0.09,0.49,0.38,34.38,0.33,37.44" id="Ske2i30f03w" kvg:type="㇑" transform="matrix(1,0,0,1,1196,-4)" xmlns:kvg="http://kanjivg.tagaini.net"></path><path class="stroke_order_diagram--existing_path" d="M39.77,21c2.74-0.43,14.21-2.63,20.58-3.14c0.97-0.08,1.55-0.16,2.03-0.03" id="Ske2i30f03x" kvg:type="㇐b" transform="matrix(1,0,0,1,1196,-4)" xmlns:kvg="http://kanjivg.tagaini.net"></path><path class="stroke_order_diagram--existing_path" d="M50.87,21.27c0.42,0.24,0.68,1.09,0.77,1.58c0.09,0.49,0.12,5.12,0.07,8.19" id="Ske2i30f03y" kvg:type="㇑a" transform="matrix(1,0,0,1,1196,-4)" xmlns:kvg="http://kanjivg.tagaini.net"></path><path class="stroke_order_diagram--existing_path" d="M40.06,32.78c6.56-1.06,15.72-2.15,20.27-2.88c1.84-0.3,2.37,0.71,2.12,2.03c-0.44,2.41-1.47,5.86-1.91,8.75" id="Ske2i30f03z" kvg:type="㇕b" transform="matrix(1,0,0,1,1196,-4)" xmlns:kvg="http://kanjivg.tagaini.net"></path><path class="stroke_order_diagram--existing_path" d="M40.2,43.81c2.74-0.43,18.72-2.23,21.29-2.52" id="Ske2i30f040" kvg:type="㇐b" transform="matrix(1,0,0,1,1196,-4)" xmlns:kvg="http://kanjivg.tagaini.net"></path><path class="stroke_order_diagram--existing_path" d="M50.9,42.7c0.42,0.24,0.68,1.09,0.77,1.58c0.09,0.49,0.15,8.83,0.1,11.9" id="Ske2i30f041" kvg:type="㇑a" transform="matrix(1,0,0,1,1196,-4)" xmlns:kvg="http://kanjivg.tagaini.net"></path><path class="stroke_order_diagram--existing_path" d="M40.16,57.8c2.74-0.43,15.18-1.92,21.55-2.44c0.96-0.08,1.54-0.15,2.03-0.03" id="Ske2i30f042" kvg:type="㇐b" transform="matrix(1,0,0,1,1196,-4)" xmlns:kvg="http://kanjivg.tagaini.net"></path><path class="stroke_order_diagram--existing_path" d="M69.59,21.2c0.81,0.25,0.91,0.64,2.52,0.25c1.62-0.38,17.78-3.89,18.89-4.27c1.11-0.38,1.92,1.4,1.51,2.79c-4.74,16.5-15.12,31.19-24.21,37.41" id="Ske2i30f043" kvg:type="㇇" transform="matrix(1,0,0,1,1196,-4)" xmlns:kvg="http://kanjivg.tagaini.net"></path><path class="stroke_order_diagram--existing_path" d="M68.86,29.43c2.52,0.68,14.86,18.81,23.65,26.24c1.37,1.16,2.37,1.93,3.64,2.31" id="Ske2i30f044" kvg:type="㇏" transform="matrix(1,0,0,1,1196,-4)" xmlns:kvg="http://kanjivg.tagaini.net"></path><path class="stroke_order_diagram--current_path" d="M44.69,75.42c1.09,0.55,3.09,0.65,4.19,0.55C59.5,75,73.5,73.75,84.16,73.14c1.82-0.1,2.92,0.26,3.83,0.54" id="kvg:06173-s13" kvg:type="㇐" transform="matrix(1,0,0,1,1196,-4)" xmlns:kvg="http://kanjivg.tagaini.net"></path><path class="stroke_order_diagram--current_path" d="M44.69,75.42c1.09,0.55,3.09,0.65,4.19,0.55C59.5,75,73.5,73.75,84.16,73.14c1.82-0.1,2.92,0.26,3.83,0.54" id="Ske2i30f046" kvg:type="㇐" transform="matrix(1,0,0,1,1196,-4)" xmlns:kvg="http://kanjivg.tagaini.net"></path><circle class="stroke_order_diagram--path_start" cx="44.69" cy="75.42" r="4" transform="matrix(1,0,0,1,1196,-4)"></circle><line class="stroke_order_diagram--guide_line" x1="1350" x2="1350" y1="1" y2="99"></line><line class="stroke_order_diagram--bounding_box" x1="1399" x2="1399" y1="1" y2="99"></line><path class="stroke_order_diagram--existing_path" d="M14.72,34.5c0.03,4.31-2.47,14.14-4.69,17.5" id="Ske2i30f049" kvg:type="㇔" transform="matrix(1,0,0,1,1296,-4)" xmlns:kvg="http://kanjivg.tagaini.net"></path><path class="stroke_order_diagram--existing_path" d="M27.77,30.83c1.87,1.88,4.83,7.71,5.29,10.63" id="Ske2i30f04a" kvg:type="㇔" transform="matrix(1,0,0,1,1296,-4)" xmlns:kvg="http://kanjivg.tagaini.net"></path><path class="stroke_order_diagram--existing_path" d="M19.87,13.75c1.09,0.5,1.74,2.25,1.96,3.25c0.22,1,0,73.75-0.22,80" id="Ske2i30f04b" kvg:type="㇑" transform="matrix(1,0,0,1,1296,-4)" xmlns:kvg="http://kanjivg.tagaini.net"></path><path class="stroke_order_diagram--existing_path" d="M38.91,18.87c0.26,0.97,0.68,2.48,0.77,2.97c0.09,0.49,0.38,34.38,0.33,37.44" id="Ske2i30f04c" kvg:type="㇑" transform="matrix(1,0,0,1,1296,-4)" xmlns:kvg="http://kanjivg.tagaini.net"></path><path class="stroke_order_diagram--existing_path" d="M39.77,21c2.74-0.43,14.21-2.63,20.58-3.14c0.97-0.08,1.55-0.16,2.03-0.03" id="Ske2i30f04d" kvg:type="㇐b" transform="matrix(1,0,0,1,1296,-4)" xmlns:kvg="http://kanjivg.tagaini.net"></path><path class="stroke_order_diagram--existing_path" d="M50.87,21.27c0.42,0.24,0.68,1.09,0.77,1.58c0.09,0.49,0.12,5.12,0.07,8.19" id="Ske2i30f04e" kvg:type="㇑a" transform="matrix(1,0,0,1,1296,-4)" xmlns:kvg="http://kanjivg.tagaini.net"></path><path class="stroke_order_diagram--existing_path" d="M40.06,32.78c6.56-1.06,15.72-2.15,20.27-2.88c1.84-0.3,2.37,0.71,2.12,2.03c-0.44,2.41-1.47,5.86-1.91,8.75" id="Ske2i30f04f" kvg:type="㇕b" transform="matrix(1,0,0,1,1296,-4)" xmlns:kvg="http://kanjivg.tagaini.net"></path><path class="stroke_order_diagram--existing_path" d="M40.2,43.81c2.74-0.43,18.72-2.23,21.29-2.52" id="Ske2i30f04g" kvg:type="㇐b" transform="matrix(1,0,0,1,1296,-4)" xmlns:kvg="http://kanjivg.tagaini.net"></path><path class="stroke_order_diagram--existing_path" d="M50.9,42.7c0.42,0.24,0.68,1.09,0.77,1.58c0.09,0.49,0.15,8.83,0.1,11.9" id="Ske2i30f04h" kvg:type="㇑a" transform="matrix(1,0,0,1,1296,-4)" xmlns:kvg="http://kanjivg.tagaini.net"></path><path class="stroke_order_diagram--existing_path" d="M40.16,57.8c2.74-0.43,15.18-1.92,21.55-2.44c0.96-0.08,1.54-0.15,2.03-0.03" id="Ske2i30f04i" kvg:type="㇐b" transform="matrix(1,0,0,1,1296,-4)" xmlns:kvg="http://kanjivg.tagaini.net"></path><path class="stroke_order_diagram--existing_path" d="M69.59,21.2c0.81,0.25,0.91,0.64,2.52,0.25c1.62-0.38,17.78-3.89,18.89-4.27c1.11-0.38,1.92,1.4,1.51,2.79c-4.74,16.5-15.12,31.19-24.21,37.41" id="Ske2i30f04j" kvg:type="㇇" transform="matrix(1,0,0,1,1296,-4)" xmlns:kvg="http://kanjivg.tagaini.net"></path><path class="stroke_order_diagram--existing_path" d="M68.86,29.43c2.52,0.68,14.86,18.81,23.65,26.24c1.37,1.16,2.37,1.93,3.64,2.31" id="Ske2i30f04k" kvg:type="㇏" transform="matrix(1,0,0,1,1296,-4)" xmlns:kvg="http://kanjivg.tagaini.net"></path><path class="stroke_order_diagram--existing_path" d="M44.69,75.42c1.09,0.55,3.09,0.65,4.19,0.55C59.5,75,73.5,73.75,84.16,73.14c1.82-0.1,2.92,0.26,3.83,0.54" id="Ske2i30f04l" kvg:type="㇐" transform="matrix(1,0,0,1,1296,-4)" xmlns:kvg="http://kanjivg.tagaini.net"></path><path class="stroke_order_diagram--current_path" d="M64.58,62.63c0.09,0.28,1.3,1.45,1.3,3.23c0,11.44-0.27,18.89-0.27,26.68" id="kvg:06173-s14" kvg:type="㇑a" transform="matrix(1,0,0,1,1296,-4)" xmlns:kvg="http://kanjivg.tagaini.net"></path><path class="stroke_order_diagram--current_path" d="M64.58,62.63c0.09,0.28,1.3,1.45,1.3,3.23c0,11.44-0.27,18.89-0.27,26.68" id="Ske2i30f04n" kvg:type="㇑a" transform="matrix(1,0,0,1,1296,-4)" xmlns:kvg="http://kanjivg.tagaini.net"></path><circle class="stroke_order_diagram--path_start" cx="64.58" cy="62.63" r="4" transform="matrix(1,0,0,1,1296,-4)"></circle><line class="stroke_order_diagram--guide_line" x1="1450" x2="1450" y1="1" y2="99"></line><line class="stroke_order_diagram--bounding_box" x1="1499" x2="1499" y1="1" y2="99"></line><path class="stroke_order_diagram--existing_path" d="M14.72,34.5c0.03,4.31-2.47,14.14-4.69,17.5" id="Ske2i30f04q" kvg:type="㇔" transform="matrix(1,0,0,1,1396,-4)" xmlns:kvg="http://kanjivg.tagaini.net"></path><path class="stroke_order_diagram--existing_path" d="M27.77,30.83c1.87,1.88,4.83,7.71,5.29,10.63" id="Ske2i30f04r" kvg:type="㇔" transform="matrix(1,0,0,1,1396,-4)" xmlns:kvg="http://kanjivg.tagaini.net"></path><path class="stroke_order_diagram--existing_path" d="M19.87,13.75c1.09,0.5,1.74,2.25,1.96,3.25c0.22,1,0,73.75-0.22,80" id="Ske2i30f04s" kvg:type="㇑" transform="matrix(1,0,0,1,1396,-4)" xmlns:kvg="http://kanjivg.tagaini.net"></path><path class="stroke_order_diagram--existing_path" d="M38.91,18.87c0.26,0.97,0.68,2.48,0.77,2.97c0.09,0.49,0.38,34.38,0.33,37.44" id="Ske2i30f04t" kvg:type="㇑" transform="matrix(1,0,0,1,1396,-4)" xmlns:kvg="http://kanjivg.tagaini.net"></path><path class="stroke_order_diagram--existing_path" d="M39.77,21c2.74-0.43,14.21-2.63,20.58-3.14c0.97-0.08,1.55-0.16,2.03-0.03" id="Ske2i30f04u" kvg:type="㇐b" transform="matrix(1,0,0,1,1396,-4)" xmlns:kvg="http://kanjivg.tagaini.net"></path><path class="stroke_order_diagram--existing_path" d="M50.87,21.27c0.42,0.24,0.68,1.09,0.77,1.58c0.09,0.49,0.12,5.12,0.07,8.19" id="Ske2i30f04v" kvg:type="㇑a" transform="matrix(1,0,0,1,1396,-4)" xmlns:kvg="http://kanjivg.tagaini.net"></path><path class="stroke_order_diagram--existing_path" d="M40.06,32.78c6.56-1.06,15.72-2.15,20.27-2.88c1.84-0.3,2.37,0.71,2.12,2.03c-0.44,2.41-1.47,5.86-1.91,8.75" id="Ske2i30f04w" kvg:type="㇕b" transform="matrix(1,0,0,1,1396,-4)" xmlns:kvg="http://kanjivg.tagaini.net"></path><path class="stroke_order_diagram--existing_path" d="M40.2,43.81c2.74-0.43,18.72-2.23,21.29-2.52" id="Ske2i30f04x" kvg:type="㇐b" transform="matrix(1,0,0,1,1396,-4)" xmlns:kvg="http://kanjivg.tagaini.net"></path><path class="stroke_order_diagram--existing_path" d="M50.9,42.7c0.42,0.24,0.68,1.09,0.77,1.58c0.09,0.49,0.15,8.83,0.1,11.9" id="Ske2i30f04y" kvg:type="㇑a" transform="matrix(1,0,0,1,1396,-4)" xmlns:kvg="http://kanjivg.tagaini.net"></path><path class="stroke_order_diagram--existing_path" d="M40.16,57.8c2.74-0.43,15.18-1.92,21.55-2.44c0.96-0.08,1.54-0.15,2.03-0.03" id="Ske2i30f04z" kvg:type="㇐b" transform="matrix(1,0,0,1,1396,-4)" xmlns:kvg="http://kanjivg.tagaini.net"></path><path class="stroke_order_diagram--existing_path" d="M69.59,21.2c0.81,0.25,0.91,0.64,2.52,0.25c1.62-0.38,17.78-3.89,18.89-4.27c1.11-0.38,1.92,1.4,1.51,2.79c-4.74,16.5-15.12,31.19-24.21,37.41" id="Ske2i30f050" kvg:type="㇇" transform="matrix(1,0,0,1,1396,-4)" xmlns:kvg="http://kanjivg.tagaini.net"></path><path class="stroke_order_diagram--existing_path" d="M68.86,29.43c2.52,0.68,14.86,18.81,23.65,26.24c1.37,1.16,2.37,1.93,3.64,2.31" id="Ske2i30f051" kvg:type="㇏" transform="matrix(1,0,0,1,1396,-4)" xmlns:kvg="http://kanjivg.tagaini.net"></path><path class="stroke_order_diagram--existing_path" d="M44.69,75.42c1.09,0.55,3.09,0.65,4.19,0.55C59.5,75,73.5,73.75,84.16,73.14c1.82-0.1,2.92,0.26,3.83,0.54" id="Ske2i30f052" kvg:type="㇐" transform="matrix(1,0,0,1,1396,-4)" xmlns:kvg="http://kanjivg.tagaini.net"></path><path class="stroke_order_diagram--existing_path" d="M64.58,62.63c0.09,0.28,1.3,1.45,1.3,3.23c0,11.44-0.27,18.89-0.27,26.68" id="Ske2i30f053" kvg:type="㇑a" transform="matrix(1,0,0,1,1396,-4)" xmlns:kvg="http://kanjivg.tagaini.net"></path><path class="stroke_order_diagram--current_path" d="M36.4,93.82c1.42,0.65,4.01,0.71,5.43,0.65c12.8-0.56,33.48-3.09,49.77-2.42c2.36,0.1,3.77,0.31,4.95,0.64" id="kvg:06173-s15" kvg:type="㇐" transform="matrix(1,0,0,1,1396,-4)" xmlns:kvg="http://kanjivg.tagaini.net"></path><path class="stroke_order_diagram--current_path" d="M36.4,93.82c1.42,0.65,4.01,0.71,5.43,0.65c12.8-0.56,33.48-3.09,49.77-2.42c2.36,0.1,3.77,0.31,4.95,0.64" id="Ske2i30f055" kvg:type="㇐" transform="matrix(1,0,0,1,1396,-4)" xmlns:kvg="http://kanjivg.tagaini.net"></path><circle class="stroke_order_diagram--path_start" cx="36.4" cy="93.82" r="4" transform="matrix(1,0,0,1,1396,-4)"></circle></svg>