<svg class="stroke_order_diagram--svg_container_for_5186627cd5dda796580002d3" style="height: 100px; width: 1200px;" viewbox="0 0 1200 100"><desc>Created with Snap</desc><defs></defs><line class="stroke_order_diagram--bounding_box" x1="1" x2="1199" y1="1" y2="1"></line><line class="stroke_order_diagram--bounding_box" x1="1" x2="1" y1="1" y2="99"></line><line class="stroke_order_diagram--bounding_box" x1="1" x2="1199" y1="99" y2="99"></line><line class="stroke_order_diagram--guide_line" x1="0" x2="1200" y1="50" y2="50"></line><line class="stroke_order_diagram--guide_line" x1="50" x2="50" y1="1" y2="99"></line><line class="stroke_order_diagram--bounding_box" x1="99" x2="99" y1="1" y2="99"></line><path class="stroke_order_diagram--current_path" d="M15.18,27.88c2.69,0.62,5.24,0.36,8.09-0.02c8.23-1.1,15.73-2.73,21.61-3.74c1.54-0.27,3.11-0.51,4.68-0.5" id="kvg:0621f-s1" kvg:type="㇐" transform="matrix(1,0,0,1,-4,-4)" xmlns:kvg="http://kanjivg.tagaini.net"></path><path class="stroke_order_diagram--current_path" d="M15.18,27.88c2.69,0.62,5.24,0.36,8.09-0.02c8.23-1.1,15.73-2.73,21.61-3.74c1.54-0.27,3.11-0.51,4.68-0.5" id="Ske1t0gnjl" kvg:type="㇐" transform="matrix(1,0,0,1,-4,-4)" xmlns:kvg="http://kanjivg.tagaini.net"></path><circle class="stroke_order_diagram--path_start" cx="15.18" cy="27.88" r="4" transform="matrix(1,0,0,1,-4,-4)"></circle><line class="stroke_order_diagram--guide_line" x1="150" x2="150" y1="1" y2="99"></line><line class="stroke_order_diagram--bounding_box" x1="199" x2="199" y1="1" y2="99"></line><path class="stroke_order_diagram--existing_path" d="M15.18,27.88c2.69,0.62,5.24,0.36,8.09-0.02c8.23-1.1,15.73-2.73,21.61-3.74c1.54-0.27,3.11-0.51,4.68-0.5" id="Ske1t0gnjo" kvg:type="㇐" transform="matrix(1,0,0,1,96,-4)" xmlns:kvg="http://kanjivg.tagaini.net"></path><path class="stroke_order_diagram--current_path" d="M33.2,12.38c0.83,0.83,0.92,1.99,0.92,2.99c0,0.48-0.04,19.81-0.12,22.76" id="kvg:0621f-s2" kvg:type="㇑" transform="matrix(1,0,0,1,96,-4)" xmlns:kvg="http://kanjivg.tagaini.net"></path><path class="stroke_order_diagram--current_path" d="M33.2,12.38c0.83,0.83,0.92,1.99,0.92,2.99c0,0.48-0.04,19.81-0.12,22.76" id="Ske1t0gnjq" kvg:type="㇑" transform="matrix(1,0,0,1,96,-4)" xmlns:kvg="http://kanjivg.tagaini.net"></path><circle class="stroke_order_diagram--path_start" cx="33.2" cy="12.38" r="4" transform="matrix(1,0,0,1,96,-4)"></circle><line class="stroke_order_diagram--guide_line" x1="250" x2="250" y1="1" y2="99"></line><line class="stroke_order_diagram--bounding_box" x1="299" x2="299" y1="1" y2="99"></line><path class="stroke_order_diagram--existing_path" d="M15.18,27.88c2.69,0.62,5.24,0.36,8.09-0.02c8.23-1.1,15.73-2.73,21.61-3.74c1.54-0.27,3.11-0.51,4.68-0.5" id="Ske1t0gnjt" kvg:type="㇐" transform="matrix(1,0,0,1,196,-4)" xmlns:kvg="http://kanjivg.tagaini.net"></path><path class="stroke_order_diagram--existing_path" d="M33.2,12.38c0.83,0.83,0.92,1.99,0.92,2.99c0,0.48-0.04,19.81-0.12,22.76" id="Ske1t0gnju" kvg:type="㇑" transform="matrix(1,0,0,1,196,-4)" xmlns:kvg="http://kanjivg.tagaini.net"></path><path class="stroke_order_diagram--current_path" d="M16.77,40.41c0.97,0.97,1.54,2.01,1.76,3.36c0.84,5.11,2.46,15.98,3.12,19.01" id="kvg:0621f-s3" kvg:type="㇑" transform="matrix(1,0,0,1,196,-4)" xmlns:kvg="http://kanjivg.tagaini.net"></path><path class="stroke_order_diagram--current_path" d="M16.77,40.41c0.97,0.97,1.54,2.01,1.76,3.36c0.84,5.11,2.46,15.98,3.12,19.01" id="Ske1t0gnjw" kvg:type="㇑" transform="matrix(1,0,0,1,196,-4)" xmlns:kvg="http://kanjivg.tagaini.net"></path><circle class="stroke_order_diagram--path_start" cx="16.77" cy="40.41" r="4" transform="matrix(1,0,0,1,196,-4)"></circle><line class="stroke_order_diagram--guide_line" x1="350" x2="350" y1="1" y2="99"></line><line class="stroke_order_diagram--bounding_box" x1="399" x2="399" y1="1" y2="99"></line><path class="stroke_order_diagram--existing_path" d="M15.18,27.88c2.69,0.62,5.24,0.36,8.09-0.02c8.23-1.1,15.73-2.73,21.61-3.74c1.54-0.27,3.11-0.51,4.68-0.5" id="Ske1t0gnjz" kvg:type="㇐" transform="matrix(1,0,0,1,296,-4)" xmlns:kvg="http://kanjivg.tagaini.net"></path><path class="stroke_order_diagram--existing_path" d="M33.2,12.38c0.83,0.83,0.92,1.99,0.92,2.99c0,0.48-0.04,19.81-0.12,22.76" id="Ske1t0gnj10" kvg:type="㇑" transform="matrix(1,0,0,1,296,-4)" xmlns:kvg="http://kanjivg.tagaini.net"></path><path class="stroke_order_diagram--existing_path" d="M16.77,40.41c0.97,0.97,1.54,2.01,1.76,3.36c0.84,5.11,2.46,15.98,3.12,19.01" id="Ske1t0gnj11" kvg:type="㇑" transform="matrix(1,0,0,1,296,-4)" xmlns:kvg="http://kanjivg.tagaini.net"></path><path class="stroke_order_diagram--current_path" d="M18.83,42.16c5.54-1.05,19.55-3.66,27.17-4.55c3.27-0.38,5,0.64,4.58,3.52c-0.5,3.43-2.1,12.4-3.37,18.47" id="kvg:0621f-s4" kvg:type="㇕a" transform="matrix(1,0,0,1,296,-4)" xmlns:kvg="http://kanjivg.tagaini.net"></path><path class="stroke_order_diagram--current_path" d="M18.83,42.16c5.54-1.05,19.55-3.66,27.17-4.55c3.27-0.38,5,0.64,4.58,3.52c-0.5,3.43-2.1,12.4-3.37,18.47" id="Ske1t0gnj13" kvg:type="㇕a" transform="matrix(1,0,0,1,296,-4)" xmlns:kvg="http://kanjivg.tagaini.net"></path><circle class="stroke_order_diagram--path_start" cx="18.83" cy="42.16" r="4" transform="matrix(1,0,0,1,296,-4)"></circle><line class="stroke_order_diagram--guide_line" x1="450" x2="450" y1="1" y2="99"></line><line class="stroke_order_diagram--bounding_box" x1="499" x2="499" y1="1" y2="99"></line><path class="stroke_order_diagram--existing_path" d="M15.18,27.88c2.69,0.62,5.24,0.36,8.09-0.02c8.23-1.1,15.73-2.73,21.61-3.74c1.54-0.27,3.11-0.51,4.68-0.5" id="Ske1t0gnj16" kvg:type="㇐" transform="matrix(1,0,0,1,396,-4)" xmlns:kvg="http://kanjivg.tagaini.net"></path><path class="stroke_order_diagram--existing_path" d="M33.2,12.38c0.83,0.83,0.92,1.99,0.92,2.99c0,0.48-0.04,19.81-0.12,22.76" id="Ske1t0gnj17" kvg:type="㇑" transform="matrix(1,0,0,1,396,-4)" xmlns:kvg="http://kanjivg.tagaini.net"></path><path class="stroke_order_diagram--existing_path" d="M16.77,40.41c0.97,0.97,1.54,2.01,1.76,3.36c0.84,5.11,2.46,15.98,3.12,19.01" id="Ske1t0gnj18" kvg:type="㇑" transform="matrix(1,0,0,1,396,-4)" xmlns:kvg="http://kanjivg.tagaini.net"></path><path class="stroke_order_diagram--existing_path" d="M18.83,42.16c5.54-1.05,19.55-3.66,27.17-4.55c3.27-0.38,5,0.64,4.58,3.52c-0.5,3.43-2.1,12.4-3.37,18.47" id="Ske1t0gnj19" kvg:type="㇕a" transform="matrix(1,0,0,1,396,-4)" xmlns:kvg="http://kanjivg.tagaini.net"></path><path class="stroke_order_diagram--current_path" d="M20.88,51.38c7.12-1.25,18.75-3.12,27.61-3.75" id="kvg:0621f-s5" kvg:type="㇐a" transform="matrix(1,0,0,1,396,-4)" xmlns:kvg="http://kanjivg.tagaini.net"></path><path class="stroke_order_diagram--current_path" d="M20.88,51.38c7.12-1.25,18.75-3.12,27.61-3.75" id="Ske1t0gnj1b" kvg:type="㇐a" transform="matrix(1,0,0,1,396,-4)" xmlns:kvg="http://kanjivg.tagaini.net"></path><circle class="stroke_order_diagram--path_start" cx="20.88" cy="51.38" r="4" transform="matrix(1,0,0,1,396,-4)"></circle><line class="stroke_order_diagram--guide_line" x1="550" x2="550" y1="1" y2="99"></line><line class="stroke_order_diagram--bounding_box" x1="599" x2="599" y1="1" y2="99"></line><path class="stroke_order_diagram--existing_path" d="M15.18,27.88c2.69,0.62,5.24,0.36,8.09-0.02c8.23-1.1,15.73-2.73,21.61-3.74c1.54-0.27,3.11-0.51,4.68-0.5" id="Ske1t0gnj1e" kvg:type="㇐" transform="matrix(1,0,0,1,496,-4)" xmlns:kvg="http://kanjivg.tagaini.net"></path><path class="stroke_order_diagram--existing_path" d="M33.2,12.38c0.83,0.83,0.92,1.99,0.92,2.99c0,0.48-0.04,19.81-0.12,22.76" id="Ske1t0gnj1f" kvg:type="㇑" transform="matrix(1,0,0,1,496,-4)" xmlns:kvg="http://kanjivg.tagaini.net"></path><path class="stroke_order_diagram--existing_path" d="M16.77,40.41c0.97,0.97,1.54,2.01,1.76,3.36c0.84,5.11,2.46,15.98,3.12,19.01" id="Ske1t0gnj1g" kvg:type="㇑" transform="matrix(1,0,0,1,496,-4)" xmlns:kvg="http://kanjivg.tagaini.net"></path><path class="stroke_order_diagram--existing_path" d="M18.83,42.16c5.54-1.05,19.55-3.66,27.17-4.55c3.27-0.38,5,0.64,4.58,3.52c-0.5,3.43-2.1,12.4-3.37,18.47" id="Ske1t0gnj1h" kvg:type="㇕a" transform="matrix(1,0,0,1,496,-4)" xmlns:kvg="http://kanjivg.tagaini.net"></path><path class="stroke_order_diagram--existing_path" d="M20.88,51.38c7.12-1.25,18.75-3.12,27.61-3.75" id="Ske1t0gnj1i" kvg:type="㇐a" transform="matrix(1,0,0,1,496,-4)" xmlns:kvg="http://kanjivg.tagaini.net"></path><path class="stroke_order_diagram--current_path" d="M22.45,61.06c6.8-0.81,17.55-2.69,24.23-3.14" id="kvg:0621f-s6" kvg:type="㇐a" transform="matrix(1,0,0,1,496,-4)" xmlns:kvg="http://kanjivg.tagaini.net"></path><path class="stroke_order_diagram--current_path" d="M22.45,61.06c6.8-0.81,17.55-2.69,24.23-3.14" id="Ske1t0gnj1k" kvg:type="㇐a" transform="matrix(1,0,0,1,496,-4)" xmlns:kvg="http://kanjivg.tagaini.net"></path><circle class="stroke_order_diagram--path_start" cx="22.45" cy="61.06" r="4" transform="matrix(1,0,0,1,496,-4)"></circle><line class="stroke_order_diagram--guide_line" x1="650" x2="650" y1="1" y2="99"></line><line class="stroke_order_diagram--bounding_box" x1="699" x2="699" y1="1" y2="99"></line><path class="stroke_order_diagram--existing_path" d="M15.18,27.88c2.69,0.62,5.24,0.36,8.09-0.02c8.23-1.1,15.73-2.73,21.61-3.74c1.54-0.27,3.11-0.51,4.68-0.5" id="Ske1t0gnj1n" kvg:type="㇐" transform="matrix(1,0,0,1,596,-4)" xmlns:kvg="http://kanjivg.tagaini.net"></path><path class="stroke_order_diagram--existing_path" d="M33.2,12.38c0.83,0.83,0.92,1.99,0.92,2.99c0,0.48-0.04,19.81-0.12,22.76" id="Ske1t0gnj1o" kvg:type="㇑" transform="matrix(1,0,0,1,596,-4)" xmlns:kvg="http://kanjivg.tagaini.net"></path><path class="stroke_order_diagram--existing_path" d="M16.77,40.41c0.97,0.97,1.54,2.01,1.76,3.36c0.84,5.11,2.46,15.98,3.12,19.01" id="Ske1t0gnj1p" kvg:type="㇑" transform="matrix(1,0,0,1,596,-4)" xmlns:kvg="http://kanjivg.tagaini.net"></path><path class="stroke_order_diagram--existing_path" d="M18.83,42.16c5.54-1.05,19.55-3.66,27.17-4.55c3.27-0.38,5,0.64,4.58,3.52c-0.5,3.43-2.1,12.4-3.37,18.47" id="Ske1t0gnj1q" kvg:type="㇕a" transform="matrix(1,0,0,1,596,-4)" xmlns:kvg="http://kanjivg.tagaini.net"></path><path class="stroke_order_diagram--existing_path" d="M20.88,51.38c7.12-1.25,18.75-3.12,27.61-3.75" id="Ske1t0gnj1r" kvg:type="㇐a" transform="matrix(1,0,0,1,596,-4)" xmlns:kvg="http://kanjivg.tagaini.net"></path><path class="stroke_order_diagram--existing_path" d="M22.45,61.06c6.8-0.81,17.55-2.69,24.23-3.14" id="Ske1t0gnj1s" kvg:type="㇐a" transform="matrix(1,0,0,1,596,-4)" xmlns:kvg="http://kanjivg.tagaini.net"></path><path class="stroke_order_diagram--current_path" d="M11.74,75.82c3.05,0.45,5.63,0.61,8.65,0.02c7.6-1.49,17.74-3.09,25.4-4.66c2.59-0.53,5.12-0.98,7.73-0.72" id="kvg:0621f-s7" kvg:type="㇐" transform="matrix(1,0,0,1,596,-4)" xmlns:kvg="http://kanjivg.tagaini.net"></path><path class="stroke_order_diagram--current_path" d="M11.74,75.82c3.05,0.45,5.63,0.61,8.65,0.02c7.6-1.49,17.74-3.09,25.4-4.66c2.59-0.53,5.12-0.98,7.73-0.72" id="Ske1t0gnj1u" kvg:type="㇐" transform="matrix(1,0,0,1,596,-4)" xmlns:kvg="http://kanjivg.tagaini.net"></path><circle class="stroke_order_diagram--path_start" cx="11.74" cy="75.82" r="4" transform="matrix(1,0,0,1,596,-4)"></circle><line class="stroke_order_diagram--guide_line" x1="750" x2="750" y1="1" y2="99"></line><line class="stroke_order_diagram--bounding_box" x1="799" x2="799" y1="1" y2="99"></line><path class="stroke_order_diagram--existing_path" d="M15.18,27.88c2.69,0.62,5.24,0.36,8.09-0.02c8.23-1.1,15.73-2.73,21.61-3.74c1.54-0.27,3.11-0.51,4.68-0.5" id="Ske1t0gnj1x" kvg:type="㇐" transform="matrix(1,0,0,1,696,-4)" xmlns:kvg="http://kanjivg.tagaini.net"></path><path class="stroke_order_diagram--existing_path" d="M33.2,12.38c0.83,0.83,0.92,1.99,0.92,2.99c0,0.48-0.04,19.81-0.12,22.76" id="Ske1t0gnj1y" kvg:type="㇑" transform="matrix(1,0,0,1,696,-4)" xmlns:kvg="http://kanjivg.tagaini.net"></path><path class="stroke_order_diagram--existing_path" d="M16.77,40.41c0.97,0.97,1.54,2.01,1.76,3.36c0.84,5.11,2.46,15.98,3.12,19.01" id="Ske1t0gnj1z" kvg:type="㇑" transform="matrix(1,0,0,1,696,-4)" xmlns:kvg="http://kanjivg.tagaini.net"></path><path class="stroke_order_diagram--existing_path" d="M18.83,42.16c5.54-1.05,19.55-3.66,27.17-4.55c3.27-0.38,5,0.64,4.58,3.52c-0.5,3.43-2.1,12.4-3.37,18.47" id="Ske1t0gnj20" kvg:type="㇕a" transform="matrix(1,0,0,1,696,-4)" xmlns:kvg="http://kanjivg.tagaini.net"></path><path class="stroke_order_diagram--existing_path" d="M20.88,51.38c7.12-1.25,18.75-3.12,27.61-3.75" id="Ske1t0gnj21" kvg:type="㇐a" transform="matrix(1,0,0,1,696,-4)" xmlns:kvg="http://kanjivg.tagaini.net"></path><path class="stroke_order_diagram--existing_path" d="M22.45,61.06c6.8-0.81,17.55-2.69,24.23-3.14" id="Ske1t0gnj22" kvg:type="㇐a" transform="matrix(1,0,0,1,696,-4)" xmlns:kvg="http://kanjivg.tagaini.net"></path><path class="stroke_order_diagram--existing_path" d="M11.74,75.82c3.05,0.45,5.63,0.61,8.65,0.02c7.6-1.49,17.74-3.09,25.4-4.66c2.59-0.53,5.12-0.98,7.73-0.72" id="Ske1t0gnj23" kvg:type="㇐" transform="matrix(1,0,0,1,696,-4)" xmlns:kvg="http://kanjivg.tagaini.net"></path><path class="stroke_order_diagram--current_path" d="M33.32,62.24c0.91,0.91,1.32,2.01,1.32,3.74c0,0.59-0.01,14.39-0.01,23.64c0,3.11,0,5.71,0,7.12" id="kvg:0621f-s8" kvg:type="㇑" transform="matrix(1,0,0,1,696,-4)" xmlns:kvg="http://kanjivg.tagaini.net"></path><path class="stroke_order_diagram--current_path" d="M33.32,62.24c0.91,0.91,1.32,2.01,1.32,3.74c0,0.59-0.01,14.39-0.01,23.64c0,3.11,0,5.71,0,7.12" id="Ske1t0gnj25" kvg:type="㇑" transform="matrix(1,0,0,1,696,-4)" xmlns:kvg="http://kanjivg.tagaini.net"></path><circle class="stroke_order_diagram--path_start" cx="33.32" cy="62.24" r="4" transform="matrix(1,0,0,1,696,-4)"></circle><line class="stroke_order_diagram--guide_line" x1="850" x2="850" y1="1" y2="99"></line><line class="stroke_order_diagram--bounding_box" x1="899" x2="899" y1="1" y2="99"></line><path class="stroke_order_diagram--existing_path" d="M15.18,27.88c2.69,0.62,5.24,0.36,8.09-0.02c8.23-1.1,15.73-2.73,21.61-3.74c1.54-0.27,3.11-0.51,4.68-0.5" id="Ske1t0gnj28" kvg:type="㇐" transform="matrix(1,0,0,1,796,-4)" xmlns:kvg="http://kanjivg.tagaini.net"></path><path class="stroke_order_diagram--existing_path" d="M33.2,12.38c0.83,0.83,0.92,1.99,0.92,2.99c0,0.48-0.04,19.81-0.12,22.76" id="Ske1t0gnj29" kvg:type="㇑" transform="matrix(1,0,0,1,796,-4)" xmlns:kvg="http://kanjivg.tagaini.net"></path><path class="stroke_order_diagram--existing_path" d="M16.77,40.41c0.97,0.97,1.54,2.01,1.76,3.36c0.84,5.11,2.46,15.98,3.12,19.01" id="Ske1t0gnj2a" kvg:type="㇑" transform="matrix(1,0,0,1,796,-4)" xmlns:kvg="http://kanjivg.tagaini.net"></path><path class="stroke_order_diagram--existing_path" d="M18.83,42.16c5.54-1.05,19.55-3.66,27.17-4.55c3.27-0.38,5,0.64,4.58,3.52c-0.5,3.43-2.1,12.4-3.37,18.47" id="Ske1t0gnj2b" kvg:type="㇕a" transform="matrix(1,0,0,1,796,-4)" xmlns:kvg="http://kanjivg.tagaini.net"></path><path class="stroke_order_diagram--existing_path" d="M20.88,51.38c7.12-1.25,18.75-3.12,27.61-3.75" id="Ske1t0gnj2c" kvg:type="㇐a" transform="matrix(1,0,0,1,796,-4)" xmlns:kvg="http://kanjivg.tagaini.net"></path><path class="stroke_order_diagram--existing_path" d="M22.45,61.06c6.8-0.81,17.55-2.69,24.23-3.14" id="Ske1t0gnj2d" kvg:type="㇐a" transform="matrix(1,0,0,1,796,-4)" xmlns:kvg="http://kanjivg.tagaini.net"></path><path class="stroke_order_diagram--existing_path" d="M11.74,75.82c3.05,0.45,5.63,0.61,8.65,0.02c7.6-1.49,17.74-3.09,25.4-4.66c2.59-0.53,5.12-0.98,7.73-0.72" id="Ske1t0gnj2e" kvg:type="㇐" transform="matrix(1,0,0,1,796,-4)" xmlns:kvg="http://kanjivg.tagaini.net"></path><path class="stroke_order_diagram--existing_path" d="M33.32,62.24c0.91,0.91,1.32,2.01,1.32,3.74c0,0.59-0.01,14.39-0.01,23.64c0,3.11,0,5.71,0,7.12" id="Ske1t0gnj2f" kvg:type="㇑" transform="matrix(1,0,0,1,796,-4)" xmlns:kvg="http://kanjivg.tagaini.net"></path><path class="stroke_order_diagram--current_path" d="M56.75,43.57c2.47,0.7,4.86,0.44,7.36-0.14c7.39-1.69,13.01-3.44,19.6-5.42c1.74-0.52,3.41-0.77,5.37-0.83" id="kvg:0621f-s9" kvg:type="㇐" transform="matrix(1,0,0,1,796,-4)" xmlns:kvg="http://kanjivg.tagaini.net"></path><path class="stroke_order_diagram--current_path" d="M56.75,43.57c2.47,0.7,4.86,0.44,7.36-0.14c7.39-1.69,13.01-3.44,19.6-5.42c1.74-0.52,3.41-0.77,5.37-0.83" id="Ske1t0gnj2h" kvg:type="㇐" transform="matrix(1,0,0,1,796,-4)" xmlns:kvg="http://kanjivg.tagaini.net"></path><circle class="stroke_order_diagram--path_start" cx="56.75" cy="43.57" r="4" transform="matrix(1,0,0,1,796,-4)"></circle><line class="stroke_order_diagram--guide_line" x1="950" x2="950" y1="1" y2="99"></line><line class="stroke_order_diagram--bounding_box" x1="999" x2="999" y1="1" y2="99"></line><path class="stroke_order_diagram--existing_path" d="M15.18,27.88c2.69,0.62,5.24,0.36,8.09-0.02c8.23-1.1,15.73-2.73,21.61-3.74c1.54-0.27,3.11-0.51,4.68-0.5" id="Ske1t0gnj2k" kvg:type="㇐" transform="matrix(1,0,0,1,896,-4)" xmlns:kvg="http://kanjivg.tagaini.net"></path><path class="stroke_order_diagram--existing_path" d="M33.2,12.38c0.83,0.83,0.92,1.99,0.92,2.99c0,0.48-0.04,19.81-0.12,22.76" id="Ske1t0gnj2l" kvg:type="㇑" transform="matrix(1,0,0,1,896,-4)" xmlns:kvg="http://kanjivg.tagaini.net"></path><path class="stroke_order_diagram--existing_path" d="M16.77,40.41c0.97,0.97,1.54,2.01,1.76,3.36c0.84,5.11,2.46,15.98,3.12,19.01" id="Ske1t0gnj2m" kvg:type="㇑" transform="matrix(1,0,0,1,896,-4)" xmlns:kvg="http://kanjivg.tagaini.net"></path><path class="stroke_order_diagram--existing_path" d="M18.83,42.16c5.54-1.05,19.55-3.66,27.17-4.55c3.27-0.38,5,0.64,4.58,3.52c-0.5,3.43-2.1,12.4-3.37,18.47" id="Ske1t0gnj2n" kvg:type="㇕a" transform="matrix(1,0,0,1,896,-4)" xmlns:kvg="http://kanjivg.tagaini.net"></path><path class="stroke_order_diagram--existing_path" d="M20.88,51.38c7.12-1.25,18.75-3.12,27.61-3.75" id="Ske1t0gnj2o" kvg:type="㇐a" transform="matrix(1,0,0,1,896,-4)" xmlns:kvg="http://kanjivg.tagaini.net"></path><path class="stroke_order_diagram--existing_path" d="M22.45,61.06c6.8-0.81,17.55-2.69,24.23-3.14" id="Ske1t0gnj2p" kvg:type="㇐a" transform="matrix(1,0,0,1,896,-4)" xmlns:kvg="http://kanjivg.tagaini.net"></path><path class="stroke_order_diagram--existing_path" d="M11.74,75.82c3.05,0.45,5.63,0.61,8.65,0.02c7.6-1.49,17.74-3.09,25.4-4.66c2.59-0.53,5.12-0.98,7.73-0.72" id="Ske1t0gnj2q" kvg:type="㇐" transform="matrix(1,0,0,1,896,-4)" xmlns:kvg="http://kanjivg.tagaini.net"></path><path class="stroke_order_diagram--existing_path" d="M33.32,62.24c0.91,0.91,1.32,2.01,1.32,3.74c0,0.59-0.01,14.39-0.01,23.64c0,3.11,0,5.71,0,7.12" id="Ske1t0gnj2r" kvg:type="㇑" transform="matrix(1,0,0,1,896,-4)" xmlns:kvg="http://kanjivg.tagaini.net"></path><path class="stroke_order_diagram--existing_path" d="M56.75,43.57c2.47,0.7,4.86,0.44,7.36-0.14c7.39-1.69,13.01-3.44,19.6-5.42c1.74-0.52,3.41-0.77,5.37-0.83" id="Ske1t0gnj2s" kvg:type="㇐" transform="matrix(1,0,0,1,896,-4)" xmlns:kvg="http://kanjivg.tagaini.net"></path><path class="stroke_order_diagram--current_path" d="M64.49,12.25c1.13,1.13,1.8,2.37,2.04,4.8C69.49,47.37,76.75,73,90.03,86.71c6.07,6.27,7.65,6.15,7.46-3.17" id="kvg:0621f-s10" kvg:type="㇂" transform="matrix(1,0,0,1,896,-4)" xmlns:kvg="http://kanjivg.tagaini.net"></path><path class="stroke_order_diagram--current_path" d="M64.49,12.25c1.13,1.13,1.8,2.37,2.04,4.8C69.49,47.37,76.75,73,90.03,86.71c6.07,6.27,7.65,6.15,7.46-3.17" id="Ske1t0gnj2u" kvg:type="㇂" transform="matrix(1,0,0,1,896,-4)" xmlns:kvg="http://kanjivg.tagaini.net"></path><circle class="stroke_order_diagram--path_start" cx="64.49" cy="12.25" r="4" transform="matrix(1,0,0,1,896,-4)"></circle><line class="stroke_order_diagram--guide_line" x1="1050" x2="1050" y1="1" y2="99"></line><line class="stroke_order_diagram--bounding_box" x1="1099" x2="1099" y1="1" y2="99"></line><path class="stroke_order_diagram--existing_path" d="M15.18,27.88c2.69,0.62,5.24,0.36,8.09-0.02c8.23-1.1,15.73-2.73,21.61-3.74c1.54-0.27,3.11-0.51,4.68-0.5" id="Ske1t0gnj2x" kvg:type="㇐" transform="matrix(1,0,0,1,996,-4)" xmlns:kvg="http://kanjivg.tagaini.net"></path><path class="stroke_order_diagram--existing_path" d="M33.2,12.38c0.83,0.83,0.92,1.99,0.92,2.99c0,0.48-0.04,19.81-0.12,22.76" id="Ske1t0gnj2y" kvg:type="㇑" transform="matrix(1,0,0,1,996,-4)" xmlns:kvg="http://kanjivg.tagaini.net"></path><path class="stroke_order_diagram--existing_path" d="M16.77,40.41c0.97,0.97,1.54,2.01,1.76,3.36c0.84,5.11,2.46,15.98,3.12,19.01" id="Ske1t0gnj2z" kvg:type="㇑" transform="matrix(1,0,0,1,996,-4)" xmlns:kvg="http://kanjivg.tagaini.net"></path><path class="stroke_order_diagram--existing_path" d="M18.83,42.16c5.54-1.05,19.55-3.66,27.17-4.55c3.27-0.38,5,0.64,4.58,3.52c-0.5,3.43-2.1,12.4-3.37,18.47" id="Ske1t0gnj30" kvg:type="㇕a" transform="matrix(1,0,0,1,996,-4)" xmlns:kvg="http://kanjivg.tagaini.net"></path><path class="stroke_order_diagram--existing_path" d="M20.88,51.38c7.12-1.25,18.75-3.12,27.61-3.75" id="Ske1t0gnj31" kvg:type="㇐a" transform="matrix(1,0,0,1,996,-4)" xmlns:kvg="http://kanjivg.tagaini.net"></path><path class="stroke_order_diagram--existing_path" d="M22.45,61.06c6.8-0.81,17.55-2.69,24.23-3.14" id="Ske1t0gnj32" kvg:type="㇐a" transform="matrix(1,0,0,1,996,-4)" xmlns:kvg="http://kanjivg.tagaini.net"></path><path class="stroke_order_diagram--existing_path" d="M11.74,75.82c3.05,0.45,5.63,0.61,8.65,0.02c7.6-1.49,17.74-3.09,25.4-4.66c2.59-0.53,5.12-0.98,7.73-0.72" id="Ske1t0gnj33" kvg:type="㇐" transform="matrix(1,0,0,1,996,-4)" xmlns:kvg="http://kanjivg.tagaini.net"></path><path class="stroke_order_diagram--existing_path" d="M33.32,62.24c0.91,0.91,1.32,2.01,1.32,3.74c0,0.59-0.01,14.39-0.01,23.64c0,3.11,0,5.71,0,7.12" id="Ske1t0gnj34" kvg:type="㇑" transform="matrix(1,0,0,1,996,-4)" xmlns:kvg="http://kanjivg.tagaini.net"></path><path class="stroke_order_diagram--existing_path" d="M56.75,43.57c2.47,0.7,4.86,0.44,7.36-0.14c7.39-1.69,13.01-3.44,19.6-5.42c1.74-0.52,3.41-0.77,5.37-0.83" id="Ske1t0gnj35" kvg:type="㇐" transform="matrix(1,0,0,1,996,-4)" xmlns:kvg="http://kanjivg.tagaini.net"></path><path class="stroke_order_diagram--existing_path" d="M64.49,12.25c1.13,1.13,1.8,2.37,2.04,4.8C69.49,47.37,76.75,73,90.03,86.71c6.07,6.27,7.65,6.15,7.46-3.17" id="Ske1t0gnj36" kvg:type="㇂" transform="matrix(1,0,0,1,996,-4)" xmlns:kvg="http://kanjivg.tagaini.net"></path><path class="stroke_order_diagram--current_path" d="M86.74,47.24c0.09,0.93-0.19,2.31-0.94,3.49c-6.93,10.9-17.3,25.15-33.05,36.86" id="kvg:0621f-s11" kvg:type="㇒" transform="matrix(1,0,0,1,996,-4)" xmlns:kvg="http://kanjivg.tagaini.net"></path><path class="stroke_order_diagram--current_path" d="M86.74,47.24c0.09,0.93-0.19,2.31-0.94,3.49c-6.93,10.9-17.3,25.15-33.05,36.86" id="Ske1t0gnj38" kvg:type="㇒" transform="matrix(1,0,0,1,996,-4)" xmlns:kvg="http://kanjivg.tagaini.net"></path><circle class="stroke_order_diagram--path_start" cx="86.74" cy="47.24" r="4" transform="matrix(1,0,0,1,996,-4)"></circle><line class="stroke_order_diagram--guide_line" x1="1150" x2="1150" y1="1" y2="99"></line><line class="stroke_order_diagram--bounding_box" x1="1199" x2="1199" y1="1" y2="99"></line><path class="stroke_order_diagram--existing_path" d="M15.18,27.88c2.69,0.62,5.24,0.36,8.09-0.02c8.23-1.1,15.73-2.73,21.61-3.74c1.54-0.27,3.11-0.51,4.68-0.5" id="Ske1t0gnj3b" kvg:type="㇐" transform="matrix(1,0,0,1,1096,-4)" xmlns:kvg="http://kanjivg.tagaini.net"></path><path class="stroke_order_diagram--existing_path" d="M33.2,12.38c0.83,0.83,0.92,1.99,0.92,2.99c0,0.48-0.04,19.81-0.12,22.76" id="Ske1t0gnj3c" kvg:type="㇑" transform="matrix(1,0,0,1,1096,-4)" xmlns:kvg="http://kanjivg.tagaini.net"></path><path class="stroke_order_diagram--existing_path" d="M16.77,40.41c0.97,0.97,1.54,2.01,1.76,3.36c0.84,5.11,2.46,15.98,3.12,19.01" id="Ske1t0gnj3d" kvg:type="㇑" transform="matrix(1,0,0,1,1096,-4)" xmlns:kvg="http://kanjivg.tagaini.net"></path><path class="stroke_order_diagram--existing_path" d="M18.83,42.16c5.54-1.05,19.55-3.66,27.17-4.55c3.27-0.38,5,0.64,4.58,3.52c-0.5,3.43-2.1,12.4-3.37,18.47" id="Ske1t0gnj3e" kvg:type="㇕a" transform="matrix(1,0,0,1,1096,-4)" xmlns:kvg="http://kanjivg.tagaini.net"></path><path class="stroke_order_diagram--existing_path" d="M20.88,51.38c7.12-1.25,18.75-3.12,27.61-3.75" id="Ske1t0gnj3f" kvg:type="㇐a" transform="matrix(1,0,0,1,1096,-4)" xmlns:kvg="http://kanjivg.tagaini.net"></path><path class="stroke_order_diagram--existing_path" d="M22.45,61.06c6.8-0.81,17.55-2.69,24.23-3.14" id="Ske1t0gnj3g" kvg:type="㇐a" transform="matrix(1,0,0,1,1096,-4)" xmlns:kvg="http://kanjivg.tagaini.net"></path><path class="stroke_order_diagram--existing_path" d="M11.74,75.82c3.05,0.45,5.63,0.61,8.65,0.02c7.6-1.49,17.74-3.09,25.4-4.66c2.59-0.53,5.12-0.98,7.73-0.72" id="Ske1t0gnj3h" kvg:type="㇐" transform="matrix(1,0,0,1,1096,-4)" xmlns:kvg="http://kanjivg.tagaini.net"></path><path class="stroke_order_diagram--existing_path" d="M33.32,62.24c0.91,0.91,1.32,2.01,1.32,3.74c0,0.59-0.01,14.39-0.01,23.64c0,3.11,0,5.71,0,7.12" id="Ske1t0gnj3i" kvg:type="㇑" transform="matrix(1,0,0,1,1096,-4)" xmlns:kvg="http://kanjivg.tagaini.net"></path><path class="stroke_order_diagram--existing_path" d="M56.75,43.57c2.47,0.7,4.86,0.44,7.36-0.14c7.39-1.69,13.01-3.44,19.6-5.42c1.74-0.52,3.41-0.77,5.37-0.83" id="Ske1t0gnj3j" kvg:type="㇐" transform="matrix(1,0,0,1,1096,-4)" xmlns:kvg="http://kanjivg.tagaini.net"></path><path class="stroke_order_diagram--existing_path" d="M64.49,12.25c1.13,1.13,1.8,2.37,2.04,4.8C69.49,47.37,76.75,73,90.03,86.71c6.07,6.27,7.65,6.15,7.46-3.17" id="Ske1t0gnj3k" kvg:type="㇂" transform="matrix(1,0,0,1,1096,-4)" xmlns:kvg="http://kanjivg.tagaini.net"></path><path class="stroke_order_diagram--existing_path" d="M86.74,47.24c0.09,0.93-0.19,2.31-0.94,3.49c-6.93,10.9-17.3,25.15-33.05,36.86" id="Ske1t0gnj3l" kvg:type="㇒" transform="matrix(1,0,0,1,1096,-4)" xmlns:kvg="http://kanjivg.tagaini.net"></path><path class="stroke_order_diagram--current_path" d="M79.49,16.71c2.48,1.98,7.19,7,8.34,10.39" id="kvg:0621f-s12" kvg:type="㇔" transform="matrix(1,0,0,1,1096,-4)" xmlns:kvg="http://kanjivg.tagaini.net"></path><path class="stroke_order_diagram--current_path" d="M79.49,16.71c2.48,1.98,7.19,7,8.34,10.39" id="Ske1t0gnj3n" kvg:type="㇔" transform="matrix(1,0,0,1,1096,-4)" xmlns:kvg="http://kanjivg.tagaini.net"></path><circle class="stroke_order_diagram--path_start" cx="79.49" cy="16.71" r="4" transform="matrix(1,0,0,1,1096,-4)"></circle></svg>