<svg class="stroke_order_diagram--svg_container_for_51866285d5dda7965800053a" style="height: 100px; width: 700px;" viewbox="0 0 700 100"><desc>Created with Snap</desc><defs></defs><line class="stroke_order_diagram--bounding_box" x1="1" x2="699" y1="1" y2="1"></line><line class="stroke_order_diagram--bounding_box" x1="1" x2="1" y1="1" y2="99"></line><line class="stroke_order_diagram--bounding_box" x1="1" x2="699" y1="99" y2="99"></line><line class="stroke_order_diagram--guide_line" x1="0" x2="700" y1="50" y2="50"></line><line class="stroke_order_diagram--guide_line" x1="50" x2="50" y1="1" y2="99"></line><line class="stroke_order_diagram--bounding_box" x1="99" x2="99" y1="1" y2="99"></line><path class="stroke_order_diagram--current_path" d="M14.5,34.92c2.61,0.31,4.63,0.39,7.4-0.02c5.08-0.75,12.62-2.33,19.09-3.22c1.07-0.15,2.39-0.42,3.68-0.42" id="kvg:06284-s1" kvg:type="㇐" transform="matrix(1,0,0,1,-4,-4)" xmlns:kvg="http://kanjivg.tagaini.net"></path><path class="stroke_order_diagram--current_path" d="M14.5,34.92c2.61,0.31,4.63,0.39,7.4-0.02c5.08-0.75,12.62-2.33,19.09-3.22c1.07-0.15,2.39-0.42,3.68-0.42" id="Ske1y1sbjg" kvg:type="㇐" transform="matrix(1,0,0,1,-4,-4)" xmlns:kvg="http://kanjivg.tagaini.net"></path><circle class="stroke_order_diagram--path_start" cx="14.5" cy="34.92" r="4" transform="matrix(1,0,0,1,-4,-4)"></circle><line class="stroke_order_diagram--guide_line" x1="150" x2="150" y1="1" y2="99"></line><line class="stroke_order_diagram--bounding_box" x1="199" x2="199" y1="1" y2="99"></line><path class="stroke_order_diagram--existing_path" d="M14.5,34.92c2.61,0.31,4.63,0.39,7.4-0.02c5.08-0.75,12.62-2.33,19.09-3.22c1.07-0.15,2.39-0.42,3.68-0.42" id="Ske1y1sbjj" kvg:type="㇐" transform="matrix(1,0,0,1,96,-4)" xmlns:kvg="http://kanjivg.tagaini.net"></path><path class="stroke_order_diagram--current_path" d="M31.52,12.25c1.05,1.05,1.51,2.62,1.51,4.77c0,15.23-0.01,58.71-0.01,70.15c0,12.83-6.57,4.28-8.02,2.75" id="kvg:06284-s2" kvg:type="㇚" transform="matrix(1,0,0,1,96,-4)" xmlns:kvg="http://kanjivg.tagaini.net"></path><path class="stroke_order_diagram--current_path" d="M31.52,12.25c1.05,1.05,1.51,2.62,1.51,4.77c0,15.23-0.01,58.71-0.01,70.15c0,12.83-6.57,4.28-8.02,2.75" id="Ske1y1sbjl" kvg:type="㇚" transform="matrix(1,0,0,1,96,-4)" xmlns:kvg="http://kanjivg.tagaini.net"></path><circle class="stroke_order_diagram--path_start" cx="31.52" cy="12.25" r="4" transform="matrix(1,0,0,1,96,-4)"></circle><line class="stroke_order_diagram--guide_line" x1="250" x2="250" y1="1" y2="99"></line><line class="stroke_order_diagram--bounding_box" x1="299" x2="299" y1="1" y2="99"></line><path class="stroke_order_diagram--existing_path" d="M14.5,34.92c2.61,0.31,4.63,0.39,7.4-0.02c5.08-0.75,12.62-2.33,19.09-3.22c1.07-0.15,2.39-0.42,3.68-0.42" id="Ske1y1sbjo" kvg:type="㇐" transform="matrix(1,0,0,1,196,-4)" xmlns:kvg="http://kanjivg.tagaini.net"></path><path class="stroke_order_diagram--existing_path" d="M31.52,12.25c1.05,1.05,1.51,2.62,1.51,4.77c0,15.23-0.01,58.71-0.01,70.15c0,12.83-6.57,4.28-8.02,2.75" id="Ske1y1sbjp" kvg:type="㇚" transform="matrix(1,0,0,1,196,-4)" xmlns:kvg="http://kanjivg.tagaini.net"></path><path class="stroke_order_diagram--current_path" d="M15.24,68.26c1.21,1.01,2.76,0.82,4.01-0.26c7.25-6.25,8.5-7.25,19.25-16.83" id="kvg:06284-s3" kvg:type="㇀" transform="matrix(1,0,0,1,196,-4)" xmlns:kvg="http://kanjivg.tagaini.net"></path><path class="stroke_order_diagram--current_path" d="M15.24,68.26c1.21,1.01,2.76,0.82,4.01-0.26c7.25-6.25,8.5-7.25,19.25-16.83" id="Ske1y1sbjr" kvg:type="㇀" transform="matrix(1,0,0,1,196,-4)" xmlns:kvg="http://kanjivg.tagaini.net"></path><circle class="stroke_order_diagram--path_start" cx="15.24" cy="68.26" r="4" transform="matrix(1,0,0,1,196,-4)"></circle><line class="stroke_order_diagram--guide_line" x1="350" x2="350" y1="1" y2="99"></line><line class="stroke_order_diagram--bounding_box" x1="399" x2="399" y1="1" y2="99"></line><path class="stroke_order_diagram--existing_path" d="M14.5,34.92c2.61,0.31,4.63,0.39,7.4-0.02c5.08-0.75,12.62-2.33,19.09-3.22c1.07-0.15,2.39-0.42,3.68-0.42" id="Ske1y1sbju" kvg:type="㇐" transform="matrix(1,0,0,1,296,-4)" xmlns:kvg="http://kanjivg.tagaini.net"></path><path class="stroke_order_diagram--existing_path" d="M31.52,12.25c1.05,1.05,1.51,2.62,1.51,4.77c0,15.23-0.01,58.71-0.01,70.15c0,12.83-6.57,4.28-8.02,2.75" id="Ske1y1sbjv" kvg:type="㇚" transform="matrix(1,0,0,1,296,-4)" xmlns:kvg="http://kanjivg.tagaini.net"></path><path class="stroke_order_diagram--existing_path" d="M15.24,68.26c1.21,1.01,2.76,0.82,4.01-0.26c7.25-6.25,8.5-7.25,19.25-16.83" id="Ske1y1sbjw" kvg:type="㇀" transform="matrix(1,0,0,1,296,-4)" xmlns:kvg="http://kanjivg.tagaini.net"></path><path class="stroke_order_diagram--current_path" d="M67.21,11c0.77,0.77,1.26,2,1.26,3.58c0,10.12-0.01,42.2-0.01,45.65c0,9.77-5.46,2.04-6.96,1.17" id="kvg:06284-s4" kvg:type="㇚" transform="matrix(1,0,0,1,296,-4)" xmlns:kvg="http://kanjivg.tagaini.net"></path><path class="stroke_order_diagram--current_path" d="M67.21,11c0.77,0.77,1.26,2,1.26,3.58c0,10.12-0.01,42.2-0.01,45.65c0,9.77-5.46,2.04-6.96,1.17" id="Ske1y1sbjy" kvg:type="㇚" transform="matrix(1,0,0,1,296,-4)" xmlns:kvg="http://kanjivg.tagaini.net"></path><circle class="stroke_order_diagram--path_start" cx="67.21" cy="11" r="4" transform="matrix(1,0,0,1,296,-4)"></circle><line class="stroke_order_diagram--guide_line" x1="450" x2="450" y1="1" y2="99"></line><line class="stroke_order_diagram--bounding_box" x1="499" x2="499" y1="1" y2="99"></line><path class="stroke_order_diagram--existing_path" d="M14.5,34.92c2.61,0.31,4.63,0.39,7.4-0.02c5.08-0.75,12.62-2.33,19.09-3.22c1.07-0.15,2.39-0.42,3.68-0.42" id="Ske1y1sbj11" kvg:type="㇐" transform="matrix(1,0,0,1,396,-4)" xmlns:kvg="http://kanjivg.tagaini.net"></path><path class="stroke_order_diagram--existing_path" d="M31.52,12.25c1.05,1.05,1.51,2.62,1.51,4.77c0,15.23-0.01,58.71-0.01,70.15c0,12.83-6.57,4.28-8.02,2.75" id="Ske1y1sbj12" kvg:type="㇚" transform="matrix(1,0,0,1,396,-4)" xmlns:kvg="http://kanjivg.tagaini.net"></path><path class="stroke_order_diagram--existing_path" d="M15.24,68.26c1.21,1.01,2.76,0.82,4.01-0.26c7.25-6.25,8.5-7.25,19.25-16.83" id="Ske1y1sbj13" kvg:type="㇀" transform="matrix(1,0,0,1,396,-4)" xmlns:kvg="http://kanjivg.tagaini.net"></path><path class="stroke_order_diagram--existing_path" d="M67.21,11c0.77,0.77,1.26,2,1.26,3.58c0,10.12-0.01,42.2-0.01,45.65c0,9.77-5.46,2.04-6.96,1.17" id="Ske1y1sbj14" kvg:type="㇚" transform="matrix(1,0,0,1,396,-4)" xmlns:kvg="http://kanjivg.tagaini.net"></path><path class="stroke_order_diagram--current_path" d="M58.16,35.42c0.1,1.25-0.23,2.25-0.8,3.33c-3.4,6.5-9.33,15.94-16.94,22.93" id="kvg:06284-s5" kvg:type="㇒" transform="matrix(1,0,0,1,396,-4)" xmlns:kvg="http://kanjivg.tagaini.net"></path><path class="stroke_order_diagram--current_path" d="M58.16,35.42c0.1,1.25-0.23,2.25-0.8,3.33c-3.4,6.5-9.33,15.94-16.94,22.93" id="Ske1y1sbj16" kvg:type="㇒" transform="matrix(1,0,0,1,396,-4)" xmlns:kvg="http://kanjivg.tagaini.net"></path><circle class="stroke_order_diagram--path_start" cx="58.16" cy="35.42" r="4" transform="matrix(1,0,0,1,396,-4)"></circle><line class="stroke_order_diagram--guide_line" x1="550" x2="550" y1="1" y2="99"></line><line class="stroke_order_diagram--bounding_box" x1="599" x2="599" y1="1" y2="99"></line><path class="stroke_order_diagram--existing_path" d="M14.5,34.92c2.61,0.31,4.63,0.39,7.4-0.02c5.08-0.75,12.62-2.33,19.09-3.22c1.07-0.15,2.39-0.42,3.68-0.42" id="Ske1y1sbj19" kvg:type="㇐" transform="matrix(1,0,0,1,496,-4)" xmlns:kvg="http://kanjivg.tagaini.net"></path><path class="stroke_order_diagram--existing_path" d="M31.52,12.25c1.05,1.05,1.51,2.62,1.51,4.77c0,15.23-0.01,58.71-0.01,70.15c0,12.83-6.57,4.28-8.02,2.75" id="Ske1y1sbj1a" kvg:type="㇚" transform="matrix(1,0,0,1,496,-4)" xmlns:kvg="http://kanjivg.tagaini.net"></path><path class="stroke_order_diagram--existing_path" d="M15.24,68.26c1.21,1.01,2.76,0.82,4.01-0.26c7.25-6.25,8.5-7.25,19.25-16.83" id="Ske1y1sbj1b" kvg:type="㇀" transform="matrix(1,0,0,1,496,-4)" xmlns:kvg="http://kanjivg.tagaini.net"></path><path class="stroke_order_diagram--existing_path" d="M67.21,11c0.77,0.77,1.26,2,1.26,3.58c0,10.12-0.01,42.2-0.01,45.65c0,9.77-5.46,2.04-6.96,1.17" id="Ske1y1sbj1c" kvg:type="㇚" transform="matrix(1,0,0,1,496,-4)" xmlns:kvg="http://kanjivg.tagaini.net"></path><path class="stroke_order_diagram--existing_path" d="M58.16,35.42c0.1,1.25-0.23,2.25-0.8,3.33c-3.4,6.5-9.33,15.94-16.94,22.93" id="Ske1y1sbj1d" kvg:type="㇒" transform="matrix(1,0,0,1,496,-4)" xmlns:kvg="http://kanjivg.tagaini.net"></path><path class="stroke_order_diagram--current_path" d="M79.25,34.25c7.33,2.41,17.17,8.59,19,12.34" id="kvg:06284-s6" kvg:type="㇔" transform="matrix(1,0,0,1,496,-4)" xmlns:kvg="http://kanjivg.tagaini.net"></path><path class="stroke_order_diagram--current_path" d="M79.25,34.25c7.33,2.41,17.17,8.59,19,12.34" id="Ske1y1sbj1f" kvg:type="㇔" transform="matrix(1,0,0,1,496,-4)" xmlns:kvg="http://kanjivg.tagaini.net"></path><circle class="stroke_order_diagram--path_start" cx="79.25" cy="34.25" r="4" transform="matrix(1,0,0,1,496,-4)"></circle><line class="stroke_order_diagram--guide_line" x1="650" x2="650" y1="1" y2="99"></line><line class="stroke_order_diagram--bounding_box" x1="699" x2="699" y1="1" y2="99"></line><path class="stroke_order_diagram--existing_path" d="M14.5,34.92c2.61,0.31,4.63,0.39,7.4-0.02c5.08-0.75,12.62-2.33,19.09-3.22c1.07-0.15,2.39-0.42,3.68-0.42" id="Ske1y1sbj1i" kvg:type="㇐" transform="matrix(1,0,0,1,596,-4)" xmlns:kvg="http://kanjivg.tagaini.net"></path><path class="stroke_order_diagram--existing_path" d="M31.52,12.25c1.05,1.05,1.51,2.62,1.51,4.77c0,15.23-0.01,58.71-0.01,70.15c0,12.83-6.57,4.28-8.02,2.75" id="Ske1y1sbj1j" kvg:type="㇚" transform="matrix(1,0,0,1,596,-4)" xmlns:kvg="http://kanjivg.tagaini.net"></path><path class="stroke_order_diagram--existing_path" d="M15.24,68.26c1.21,1.01,2.76,0.82,4.01-0.26c7.25-6.25,8.5-7.25,19.25-16.83" id="Ske1y1sbj1k" kvg:type="㇀" transform="matrix(1,0,0,1,596,-4)" xmlns:kvg="http://kanjivg.tagaini.net"></path><path class="stroke_order_diagram--existing_path" d="M67.21,11c0.77,0.77,1.26,2,1.26,3.58c0,10.12-0.01,42.2-0.01,45.65c0,9.77-5.46,2.04-6.96,1.17" id="Ske1y1sbj1l" kvg:type="㇚" transform="matrix(1,0,0,1,596,-4)" xmlns:kvg="http://kanjivg.tagaini.net"></path><path class="stroke_order_diagram--existing_path" d="M58.16,35.42c0.1,1.25-0.23,2.25-0.8,3.33c-3.4,6.5-9.33,15.94-16.94,22.93" id="Ske1y1sbj1m" kvg:type="㇒" transform="matrix(1,0,0,1,596,-4)" xmlns:kvg="http://kanjivg.tagaini.net"></path><path class="stroke_order_diagram--existing_path" d="M79.25,34.25c7.33,2.41,17.17,8.59,19,12.34" id="Ske1y1sbj1n" kvg:type="㇔" transform="matrix(1,0,0,1,596,-4)" xmlns:kvg="http://kanjivg.tagaini.net"></path><path class="stroke_order_diagram--current_path" d="M86.37,48.08c0.12,1.27-0.08,3.06-0.76,4.85c-6.24,16.44-24.88,37.85-45.11,47.82" id="kvg:06284-s7" kvg:type="㇒" transform="matrix(1,0,0,1,596,-4)" xmlns:kvg="http://kanjivg.tagaini.net"></path><path class="stroke_order_diagram--current_path" d="M86.37,48.08c0.12,1.27-0.08,3.06-0.76,4.85c-6.24,16.44-24.88,37.85-45.11,47.82" id="Ske1y1sbj1p" kvg:type="㇒" transform="matrix(1,0,0,1,596,-4)" xmlns:kvg="http://kanjivg.tagaini.net"></path><circle class="stroke_order_diagram--path_start" cx="86.37" cy="48.08" r="4" transform="matrix(1,0,0,1,596,-4)"></circle></svg>