<svg class="stroke_order_diagram--svg_container_for_51866280d5dda796580003cf" style="height: 100px; width: 1000px;" viewbox="0 0 1000 100"><desc>Created with Snap</desc><defs></defs><line class="stroke_order_diagram--bounding_box" x1="1" x2="999" y1="1" y2="1"></line><line class="stroke_order_diagram--bounding_box" x1="1" x2="1" y1="1" y2="99"></line><line class="stroke_order_diagram--bounding_box" x1="1" x2="999" y1="99" y2="99"></line><line class="stroke_order_diagram--guide_line" x1="0" x2="1000" y1="50" y2="50"></line><line class="stroke_order_diagram--guide_line" x1="50" x2="50" y1="1" y2="99"></line><line class="stroke_order_diagram--bounding_box" x1="99" x2="99" y1="1" y2="99"></line><path class="stroke_order_diagram--current_path" d="M12.25,38.5c2.18,0.26,4.13,0.42,6.37,0.09c4.93-0.75,12.86-1.64,19.77-2.57c1.11-0.15,2.36-0.18,3.27-0.18" id="kvg:0632b-s1" kvg:type="㇐" transform="matrix(1,0,0,1,-4,-4)" xmlns:kvg="http://kanjivg.tagaini.net"></path><path class="stroke_order_diagram--current_path" d="M12.25,38.5c2.18,0.26,4.13,0.42,6.37,0.09c4.93-0.75,12.86-1.64,19.77-2.57c1.11-0.15,2.36-0.18,3.27-0.18" id="Ske1v249gj" kvg:type="㇐" transform="matrix(1,0,0,1,-4,-4)" xmlns:kvg="http://kanjivg.tagaini.net"></path><circle class="stroke_order_diagram--path_start" cx="12.25" cy="38.5" r="4" transform="matrix(1,0,0,1,-4,-4)"></circle><line class="stroke_order_diagram--guide_line" x1="150" x2="150" y1="1" y2="99"></line><line class="stroke_order_diagram--bounding_box" x1="199" x2="199" y1="1" y2="99"></line><path class="stroke_order_diagram--existing_path" d="M12.25,38.5c2.18,0.26,4.13,0.42,6.37,0.09c4.93-0.75,12.86-1.64,19.77-2.57c1.11-0.15,2.36-0.18,3.27-0.18" id="Ske1v249gm" kvg:type="㇐" transform="matrix(1,0,0,1,96,-4)" xmlns:kvg="http://kanjivg.tagaini.net"></path><path class="stroke_order_diagram--current_path" d="M29.27,14.33c1.01,1.01,1.26,2.42,1.26,4.27c0,14.56-0.01,64.69-0.01,69.65c0,14.25-6.07,3.53-7.52,2" id="kvg:0632b-s2" kvg:type="㇚" transform="matrix(1,0,0,1,96,-4)" xmlns:kvg="http://kanjivg.tagaini.net"></path><path class="stroke_order_diagram--current_path" d="M29.27,14.33c1.01,1.01,1.26,2.42,1.26,4.27c0,14.56-0.01,64.69-0.01,69.65c0,14.25-6.07,3.53-7.52,2" id="Ske1v249go" kvg:type="㇚" transform="matrix(1,0,0,1,96,-4)" xmlns:kvg="http://kanjivg.tagaini.net"></path><circle class="stroke_order_diagram--path_start" cx="29.27" cy="14.33" r="4" transform="matrix(1,0,0,1,96,-4)"></circle><line class="stroke_order_diagram--guide_line" x1="250" x2="250" y1="1" y2="99"></line><line class="stroke_order_diagram--bounding_box" x1="299" x2="299" y1="1" y2="99"></line><path class="stroke_order_diagram--existing_path" d="M12.25,38.5c2.18,0.26,4.13,0.42,6.37,0.09c4.93-0.75,12.86-1.64,19.77-2.57c1.11-0.15,2.36-0.18,3.27-0.18" id="Ske1v249gr" kvg:type="㇐" transform="matrix(1,0,0,1,196,-4)" xmlns:kvg="http://kanjivg.tagaini.net"></path><path class="stroke_order_diagram--existing_path" d="M29.27,14.33c1.01,1.01,1.26,2.42,1.26,4.27c0,14.56-0.01,64.69-0.01,69.65c0,14.25-6.07,3.53-7.52,2" id="Ske1v249gs" kvg:type="㇚" transform="matrix(1,0,0,1,196,-4)" xmlns:kvg="http://kanjivg.tagaini.net"></path><path class="stroke_order_diagram--current_path" d="M12.25,67.23c1.66,0.75,3.06,0.37,4.45-0.61c9.18-6.49,13.18-9.24,21.05-15.62" id="kvg:0632b-s3" kvg:type="㇀" transform="matrix(1,0,0,1,196,-4)" xmlns:kvg="http://kanjivg.tagaini.net"></path><path class="stroke_order_diagram--current_path" d="M12.25,67.23c1.66,0.75,3.06,0.37,4.45-0.61c9.18-6.49,13.18-9.24,21.05-15.62" id="Ske1v249gu" kvg:type="㇀" transform="matrix(1,0,0,1,196,-4)" xmlns:kvg="http://kanjivg.tagaini.net"></path><circle class="stroke_order_diagram--path_start" cx="12.25" cy="67.23" r="4" transform="matrix(1,0,0,1,196,-4)"></circle><line class="stroke_order_diagram--guide_line" x1="350" x2="350" y1="1" y2="99"></line><line class="stroke_order_diagram--bounding_box" x1="399" x2="399" y1="1" y2="99"></line><path class="stroke_order_diagram--existing_path" d="M12.25,38.5c2.18,0.26,4.13,0.42,6.37,0.09c4.93-0.75,12.86-1.64,19.77-2.57c1.11-0.15,2.36-0.18,3.27-0.18" id="Ske1v249gx" kvg:type="㇐" transform="matrix(1,0,0,1,296,-4)" xmlns:kvg="http://kanjivg.tagaini.net"></path><path class="stroke_order_diagram--existing_path" d="M29.27,14.33c1.01,1.01,1.26,2.42,1.26,4.27c0,14.56-0.01,64.69-0.01,69.65c0,14.25-6.07,3.53-7.52,2" id="Ske1v249gy" kvg:type="㇚" transform="matrix(1,0,0,1,296,-4)" xmlns:kvg="http://kanjivg.tagaini.net"></path><path class="stroke_order_diagram--existing_path" d="M12.25,67.23c1.66,0.75,3.06,0.37,4.45-0.61c9.18-6.49,13.18-9.24,21.05-15.62" id="Ske1v249gz" kvg:type="㇀" transform="matrix(1,0,0,1,296,-4)" xmlns:kvg="http://kanjivg.tagaini.net"></path><path class="stroke_order_diagram--current_path" d="M55.25,32.49c0,1.38-0.29,2.25-0.72,3.31c-2.27,7.31-5.65,13.63-12.32,23.83" id="kvg:0632b-s4" kvg:type="㇒" transform="matrix(1,0,0,1,296,-4)" xmlns:kvg="http://kanjivg.tagaini.net"></path><path class="stroke_order_diagram--current_path" d="M55.25,32.49c0,1.38-0.29,2.25-0.72,3.31c-2.27,7.31-5.65,13.63-12.32,23.83" id="Ske1v249g11" kvg:type="㇒" transform="matrix(1,0,0,1,296,-4)" xmlns:kvg="http://kanjivg.tagaini.net"></path><circle class="stroke_order_diagram--path_start" cx="55.25" cy="32.49" r="4" transform="matrix(1,0,0,1,296,-4)"></circle><line class="stroke_order_diagram--guide_line" x1="450" x2="450" y1="1" y2="99"></line><line class="stroke_order_diagram--bounding_box" x1="499" x2="499" y1="1" y2="99"></line><path class="stroke_order_diagram--existing_path" d="M12.25,38.5c2.18,0.26,4.13,0.42,6.37,0.09c4.93-0.75,12.86-1.64,19.77-2.57c1.11-0.15,2.36-0.18,3.27-0.18" id="Ske1v249g14" kvg:type="㇐" transform="matrix(1,0,0,1,396,-4)" xmlns:kvg="http://kanjivg.tagaini.net"></path><path class="stroke_order_diagram--existing_path" d="M29.27,14.33c1.01,1.01,1.26,2.42,1.26,4.27c0,14.56-0.01,64.69-0.01,69.65c0,14.25-6.07,3.53-7.52,2" id="Ske1v249g15" kvg:type="㇚" transform="matrix(1,0,0,1,396,-4)" xmlns:kvg="http://kanjivg.tagaini.net"></path><path class="stroke_order_diagram--existing_path" d="M12.25,67.23c1.66,0.75,3.06,0.37,4.45-0.61c9.18-6.49,13.18-9.24,21.05-15.62" id="Ske1v249g16" kvg:type="㇀" transform="matrix(1,0,0,1,396,-4)" xmlns:kvg="http://kanjivg.tagaini.net"></path><path class="stroke_order_diagram--existing_path" d="M55.25,32.49c0,1.38-0.29,2.25-0.72,3.31c-2.27,7.31-5.65,13.63-12.32,23.83" id="Ske1v249g17" kvg:type="㇒" transform="matrix(1,0,0,1,396,-4)" xmlns:kvg="http://kanjivg.tagaini.net"></path><path class="stroke_order_diagram--current_path" d="M54.25,45.88c3.88,2.62,6.62,6.75,7.75,10.88" id="kvg:0632b-s5" kvg:type="㇏" transform="matrix(1,0,0,1,396,-4)" xmlns:kvg="http://kanjivg.tagaini.net"></path><path class="stroke_order_diagram--current_path" d="M54.25,45.88c3.88,2.62,6.62,6.75,7.75,10.88" id="Ske1v249g19" kvg:type="㇏" transform="matrix(1,0,0,1,396,-4)" xmlns:kvg="http://kanjivg.tagaini.net"></path><circle class="stroke_order_diagram--path_start" cx="54.25" cy="45.88" r="4" transform="matrix(1,0,0,1,396,-4)"></circle><line class="stroke_order_diagram--guide_line" x1="550" x2="550" y1="1" y2="99"></line><line class="stroke_order_diagram--bounding_box" x1="599" x2="599" y1="1" y2="99"></line><path class="stroke_order_diagram--existing_path" d="M12.25,38.5c2.18,0.26,4.13,0.42,6.37,0.09c4.93-0.75,12.86-1.64,19.77-2.57c1.11-0.15,2.36-0.18,3.27-0.18" id="Ske1v249g1c" kvg:type="㇐" transform="matrix(1,0,0,1,496,-4)" xmlns:kvg="http://kanjivg.tagaini.net"></path><path class="stroke_order_diagram--existing_path" d="M29.27,14.33c1.01,1.01,1.26,2.42,1.26,4.27c0,14.56-0.01,64.69-0.01,69.65c0,14.25-6.07,3.53-7.52,2" id="Ske1v249g1d" kvg:type="㇚" transform="matrix(1,0,0,1,496,-4)" xmlns:kvg="http://kanjivg.tagaini.net"></path><path class="stroke_order_diagram--existing_path" d="M12.25,67.23c1.66,0.75,3.06,0.37,4.45-0.61c9.18-6.49,13.18-9.24,21.05-15.62" id="Ske1v249g1e" kvg:type="㇀" transform="matrix(1,0,0,1,496,-4)" xmlns:kvg="http://kanjivg.tagaini.net"></path><path class="stroke_order_diagram--existing_path" d="M55.25,32.49c0,1.38-0.29,2.25-0.72,3.31c-2.27,7.31-5.65,13.63-12.32,23.83" id="Ske1v249g1f" kvg:type="㇒" transform="matrix(1,0,0,1,496,-4)" xmlns:kvg="http://kanjivg.tagaini.net"></path><path class="stroke_order_diagram--existing_path" d="M54.25,45.88c3.88,2.62,6.62,6.75,7.75,10.88" id="Ske1v249g1g" kvg:type="㇏" transform="matrix(1,0,0,1,496,-4)" xmlns:kvg="http://kanjivg.tagaini.net"></path><path class="stroke_order_diagram--current_path" d="M87.51,32.49c0.09,0.96-0.03,1.88-0.36,2.76C84.62,42,81.38,48.38,75.22,56.88" id="kvg:0632b-s6" kvg:type="㇒" transform="matrix(1,0,0,1,496,-4)" xmlns:kvg="http://kanjivg.tagaini.net"></path><path class="stroke_order_diagram--current_path" d="M87.51,32.49c0.09,0.96-0.03,1.88-0.36,2.76C84.62,42,81.38,48.38,75.22,56.88" id="Ske1v249g1i" kvg:type="㇒" transform="matrix(1,0,0,1,496,-4)" xmlns:kvg="http://kanjivg.tagaini.net"></path><circle class="stroke_order_diagram--path_start" cx="87.51" cy="32.49" r="4" transform="matrix(1,0,0,1,496,-4)"></circle><line class="stroke_order_diagram--guide_line" x1="650" x2="650" y1="1" y2="99"></line><line class="stroke_order_diagram--bounding_box" x1="699" x2="699" y1="1" y2="99"></line><path class="stroke_order_diagram--existing_path" d="M12.25,38.5c2.18,0.26,4.13,0.42,6.37,0.09c4.93-0.75,12.86-1.64,19.77-2.57c1.11-0.15,2.36-0.18,3.27-0.18" id="Ske1v249g1l" kvg:type="㇐" transform="matrix(1,0,0,1,596,-4)" xmlns:kvg="http://kanjivg.tagaini.net"></path><path class="stroke_order_diagram--existing_path" d="M29.27,14.33c1.01,1.01,1.26,2.42,1.26,4.27c0,14.56-0.01,64.69-0.01,69.65c0,14.25-6.07,3.53-7.52,2" id="Ske1v249g1m" kvg:type="㇚" transform="matrix(1,0,0,1,596,-4)" xmlns:kvg="http://kanjivg.tagaini.net"></path><path class="stroke_order_diagram--existing_path" d="M12.25,67.23c1.66,0.75,3.06,0.37,4.45-0.61c9.18-6.49,13.18-9.24,21.05-15.62" id="Ske1v249g1n" kvg:type="㇀" transform="matrix(1,0,0,1,596,-4)" xmlns:kvg="http://kanjivg.tagaini.net"></path><path class="stroke_order_diagram--existing_path" d="M55.25,32.49c0,1.38-0.29,2.25-0.72,3.31c-2.27,7.31-5.65,13.63-12.32,23.83" id="Ske1v249g1o" kvg:type="㇒" transform="matrix(1,0,0,1,596,-4)" xmlns:kvg="http://kanjivg.tagaini.net"></path><path class="stroke_order_diagram--existing_path" d="M54.25,45.88c3.88,2.62,6.62,6.75,7.75,10.88" id="Ske1v249g1p" kvg:type="㇏" transform="matrix(1,0,0,1,596,-4)" xmlns:kvg="http://kanjivg.tagaini.net"></path><path class="stroke_order_diagram--existing_path" d="M87.51,32.49c0.09,0.96-0.03,1.88-0.36,2.76C84.62,42,81.38,48.38,75.22,56.88" id="Ske1v249g1q" kvg:type="㇒" transform="matrix(1,0,0,1,596,-4)" xmlns:kvg="http://kanjivg.tagaini.net"></path><path class="stroke_order_diagram--current_path" d="M87.12,44.5c4.25,3.62,7.25,7.88,8.62,11.25" id="kvg:0632b-s7" kvg:type="㇏" transform="matrix(1,0,0,1,596,-4)" xmlns:kvg="http://kanjivg.tagaini.net"></path><path class="stroke_order_diagram--current_path" d="M87.12,44.5c4.25,3.62,7.25,7.88,8.62,11.25" id="Ske1v249g1s" kvg:type="㇏" transform="matrix(1,0,0,1,596,-4)" xmlns:kvg="http://kanjivg.tagaini.net"></path><circle class="stroke_order_diagram--path_start" cx="87.12" cy="44.5" r="4" transform="matrix(1,0,0,1,596,-4)"></circle><line class="stroke_order_diagram--guide_line" x1="750" x2="750" y1="1" y2="99"></line><line class="stroke_order_diagram--bounding_box" x1="799" x2="799" y1="1" y2="99"></line><path class="stroke_order_diagram--existing_path" d="M12.25,38.5c2.18,0.26,4.13,0.42,6.37,0.09c4.93-0.75,12.86-1.64,19.77-2.57c1.11-0.15,2.36-0.18,3.27-0.18" id="Ske1v249g1v" kvg:type="㇐" transform="matrix(1,0,0,1,696,-4)" xmlns:kvg="http://kanjivg.tagaini.net"></path><path class="stroke_order_diagram--existing_path" d="M29.27,14.33c1.01,1.01,1.26,2.42,1.26,4.27c0,14.56-0.01,64.69-0.01,69.65c0,14.25-6.07,3.53-7.52,2" id="Ske1v249g1w" kvg:type="㇚" transform="matrix(1,0,0,1,696,-4)" xmlns:kvg="http://kanjivg.tagaini.net"></path><path class="stroke_order_diagram--existing_path" d="M12.25,67.23c1.66,0.75,3.06,0.37,4.45-0.61c9.18-6.49,13.18-9.24,21.05-15.62" id="Ske1v249g1x" kvg:type="㇀" transform="matrix(1,0,0,1,696,-4)" xmlns:kvg="http://kanjivg.tagaini.net"></path><path class="stroke_order_diagram--existing_path" d="M55.25,32.49c0,1.38-0.29,2.25-0.72,3.31c-2.27,7.31-5.65,13.63-12.32,23.83" id="Ske1v249g1y" kvg:type="㇒" transform="matrix(1,0,0,1,696,-4)" xmlns:kvg="http://kanjivg.tagaini.net"></path><path class="stroke_order_diagram--existing_path" d="M54.25,45.88c3.88,2.62,6.62,6.75,7.75,10.88" id="Ske1v249g1z" kvg:type="㇏" transform="matrix(1,0,0,1,696,-4)" xmlns:kvg="http://kanjivg.tagaini.net"></path><path class="stroke_order_diagram--existing_path" d="M87.51,32.49c0.09,0.96-0.03,1.88-0.36,2.76C84.62,42,81.38,48.38,75.22,56.88" id="Ske1v249g20" kvg:type="㇒" transform="matrix(1,0,0,1,696,-4)" xmlns:kvg="http://kanjivg.tagaini.net"></path><path class="stroke_order_diagram--existing_path" d="M87.12,44.5c4.25,3.62,7.25,7.88,8.62,11.25" id="Ske1v249g21" kvg:type="㇏" transform="matrix(1,0,0,1,696,-4)" xmlns:kvg="http://kanjivg.tagaini.net"></path><path class="stroke_order_diagram--current_path" d="M67.42,13.87c0.79,0.79,1.27,2.26,1.27,3.89c0,12.37-0.07,55.01-0.07,71.12" id="kvg:0632b-s8" kvg:type="㇑a" transform="matrix(1,0,0,1,696,-4)" xmlns:kvg="http://kanjivg.tagaini.net"></path><path class="stroke_order_diagram--current_path" d="M67.42,13.87c0.79,0.79,1.27,2.26,1.27,3.89c0,12.37-0.07,55.01-0.07,71.12" id="Ske1v249g23" kvg:type="㇑a" transform="matrix(1,0,0,1,696,-4)" xmlns:kvg="http://kanjivg.tagaini.net"></path><circle class="stroke_order_diagram--path_start" cx="67.42" cy="13.87" r="4" transform="matrix(1,0,0,1,696,-4)"></circle><line class="stroke_order_diagram--guide_line" x1="850" x2="850" y1="1" y2="99"></line><line class="stroke_order_diagram--bounding_box" x1="899" x2="899" y1="1" y2="99"></line><path class="stroke_order_diagram--existing_path" d="M12.25,38.5c2.18,0.26,4.13,0.42,6.37,0.09c4.93-0.75,12.86-1.64,19.77-2.57c1.11-0.15,2.36-0.18,3.27-0.18" id="Ske1v249g26" kvg:type="㇐" transform="matrix(1,0,0,1,796,-4)" xmlns:kvg="http://kanjivg.tagaini.net"></path><path class="stroke_order_diagram--existing_path" d="M29.27,14.33c1.01,1.01,1.26,2.42,1.26,4.27c0,14.56-0.01,64.69-0.01,69.65c0,14.25-6.07,3.53-7.52,2" id="Ske1v249g27" kvg:type="㇚" transform="matrix(1,0,0,1,796,-4)" xmlns:kvg="http://kanjivg.tagaini.net"></path><path class="stroke_order_diagram--existing_path" d="M12.25,67.23c1.66,0.75,3.06,0.37,4.45-0.61c9.18-6.49,13.18-9.24,21.05-15.62" id="Ske1v249g28" kvg:type="㇀" transform="matrix(1,0,0,1,796,-4)" xmlns:kvg="http://kanjivg.tagaini.net"></path><path class="stroke_order_diagram--existing_path" d="M55.25,32.49c0,1.38-0.29,2.25-0.72,3.31c-2.27,7.31-5.65,13.63-12.32,23.83" id="Ske1v249g29" kvg:type="㇒" transform="matrix(1,0,0,1,796,-4)" xmlns:kvg="http://kanjivg.tagaini.net"></path><path class="stroke_order_diagram--existing_path" d="M54.25,45.88c3.88,2.62,6.62,6.75,7.75,10.88" id="Ske1v249g2a" kvg:type="㇏" transform="matrix(1,0,0,1,796,-4)" xmlns:kvg="http://kanjivg.tagaini.net"></path><path class="stroke_order_diagram--existing_path" d="M87.51,32.49c0.09,0.96-0.03,1.88-0.36,2.76C84.62,42,81.38,48.38,75.22,56.88" id="Ske1v249g2b" kvg:type="㇒" transform="matrix(1,0,0,1,796,-4)" xmlns:kvg="http://kanjivg.tagaini.net"></path><path class="stroke_order_diagram--existing_path" d="M87.12,44.5c4.25,3.62,7.25,7.88,8.62,11.25" id="Ske1v249g2c" kvg:type="㇏" transform="matrix(1,0,0,1,796,-4)" xmlns:kvg="http://kanjivg.tagaini.net"></path><path class="stroke_order_diagram--existing_path" d="M67.42,13.87c0.79,0.79,1.27,2.26,1.27,3.89c0,12.37-0.07,55.01-0.07,71.12" id="Ske1v249g2d" kvg:type="㇑a" transform="matrix(1,0,0,1,796,-4)" xmlns:kvg="http://kanjivg.tagaini.net"></path><path class="stroke_order_diagram--current_path" d="M47.63,69.67c2.71,0.53,5.37,0.2,8.13-0.07c9.74-0.97,17.25-1.83,26.37-2.25c2.82-0.13,5.49,0.05,8.25,0.7" id="kvg:0632b-s9" kvg:type="㇐" transform="matrix(1,0,0,1,796,-4)" xmlns:kvg="http://kanjivg.tagaini.net"></path><path class="stroke_order_diagram--current_path" d="M47.63,69.67c2.71,0.53,5.37,0.2,8.13-0.07c9.74-0.97,17.25-1.83,26.37-2.25c2.82-0.13,5.49,0.05,8.25,0.7" id="Ske1v249g2f" kvg:type="㇐" transform="matrix(1,0,0,1,796,-4)" xmlns:kvg="http://kanjivg.tagaini.net"></path><circle class="stroke_order_diagram--path_start" cx="47.63" cy="69.67" r="4" transform="matrix(1,0,0,1,796,-4)"></circle><line class="stroke_order_diagram--guide_line" x1="950" x2="950" y1="1" y2="99"></line><line class="stroke_order_diagram--bounding_box" x1="999" x2="999" y1="1" y2="99"></line><path class="stroke_order_diagram--existing_path" d="M12.25,38.5c2.18,0.26,4.13,0.42,6.37,0.09c4.93-0.75,12.86-1.64,19.77-2.57c1.11-0.15,2.36-0.18,3.27-0.18" id="Ske1v249g2i" kvg:type="㇐" transform="matrix(1,0,0,1,896,-4)" xmlns:kvg="http://kanjivg.tagaini.net"></path><path class="stroke_order_diagram--existing_path" d="M29.27,14.33c1.01,1.01,1.26,2.42,1.26,4.27c0,14.56-0.01,64.69-0.01,69.65c0,14.25-6.07,3.53-7.52,2" id="Ske1v249g2j" kvg:type="㇚" transform="matrix(1,0,0,1,896,-4)" xmlns:kvg="http://kanjivg.tagaini.net"></path><path class="stroke_order_diagram--existing_path" d="M12.25,67.23c1.66,0.75,3.06,0.37,4.45-0.61c9.18-6.49,13.18-9.24,21.05-15.62" id="Ske1v249g2k" kvg:type="㇀" transform="matrix(1,0,0,1,896,-4)" xmlns:kvg="http://kanjivg.tagaini.net"></path><path class="stroke_order_diagram--existing_path" d="M55.25,32.49c0,1.38-0.29,2.25-0.72,3.31c-2.27,7.31-5.65,13.63-12.32,23.83" id="Ske1v249g2l" kvg:type="㇒" transform="matrix(1,0,0,1,896,-4)" xmlns:kvg="http://kanjivg.tagaini.net"></path><path class="stroke_order_diagram--existing_path" d="M54.25,45.88c3.88,2.62,6.62,6.75,7.75,10.88" id="Ske1v249g2m" kvg:type="㇏" transform="matrix(1,0,0,1,896,-4)" xmlns:kvg="http://kanjivg.tagaini.net"></path><path class="stroke_order_diagram--existing_path" d="M87.51,32.49c0.09,0.96-0.03,1.88-0.36,2.76C84.62,42,81.38,48.38,75.22,56.88" id="Ske1v249g2n" kvg:type="㇒" transform="matrix(1,0,0,1,896,-4)" xmlns:kvg="http://kanjivg.tagaini.net"></path><path class="stroke_order_diagram--existing_path" d="M87.12,44.5c4.25,3.62,7.25,7.88,8.62,11.25" id="Ske1v249g2o" kvg:type="㇏" transform="matrix(1,0,0,1,896,-4)" xmlns:kvg="http://kanjivg.tagaini.net"></path><path class="stroke_order_diagram--existing_path" d="M67.42,13.87c0.79,0.79,1.27,2.26,1.27,3.89c0,12.37-0.07,55.01-0.07,71.12" id="Ske1v249g2p" kvg:type="㇑a" transform="matrix(1,0,0,1,896,-4)" xmlns:kvg="http://kanjivg.tagaini.net"></path><path class="stroke_order_diagram--existing_path" d="M47.63,69.67c2.71,0.53,5.37,0.2,8.13-0.07c9.74-0.97,17.25-1.83,26.37-2.25c2.82-0.13,5.49,0.05,8.25,0.7" id="Ske1v249g2q" kvg:type="㇐" transform="matrix(1,0,0,1,896,-4)" xmlns:kvg="http://kanjivg.tagaini.net"></path><path class="stroke_order_diagram--current_path" d="M40.13,90.48c3.93,0.95,7.84,0.73,11.87,0.32c12.63-1.29,20.51-1.67,34.02-1.97c4.1-0.09,8.12,0.13,12.12,0.99" id="kvg:0632b-s10" kvg:type="㇐" transform="matrix(1,0,0,1,896,-4)" xmlns:kvg="http://kanjivg.tagaini.net"></path><path class="stroke_order_diagram--current_path" d="M40.13,90.48c3.93,0.95,7.84,0.73,11.87,0.32c12.63-1.29,20.51-1.67,34.02-1.97c4.1-0.09,8.12,0.13,12.12,0.99" id="Ske1v249g2s" kvg:type="㇐" transform="matrix(1,0,0,1,896,-4)" xmlns:kvg="http://kanjivg.tagaini.net"></path><circle class="stroke_order_diagram--path_start" cx="40.13" cy="90.48" r="4" transform="matrix(1,0,0,1,896,-4)"></circle></svg>