<svg class="stroke_order_diagram--svg_container_for_518662a8d5dda79658000f14" style="height: 100px; width: 1000px;" viewbox="0 0 1000 100"><desc>Created with Snap</desc><defs></defs><line class="stroke_order_diagram--bounding_box" x1="1" x2="999" y1="1" y2="1"></line><line class="stroke_order_diagram--bounding_box" x1="1" x2="1" y1="1" y2="99"></line><line class="stroke_order_diagram--bounding_box" x1="1" x2="999" y1="99" y2="99"></line><line class="stroke_order_diagram--guide_line" x1="0" x2="1000" y1="50" y2="50"></line><line class="stroke_order_diagram--guide_line" x1="50" x2="50" y1="1" y2="99"></line><line class="stroke_order_diagram--bounding_box" x1="99" x2="99" y1="1" y2="99"></line><path class="stroke_order_diagram--current_path" d="M10.25,39.04c2.25,0.27,1.37,0.6,3.78,0.27c5.94-0.81,16.74-2.7,26.64-3.96" id="kvg:0633e-s1" kvg:type="㇐" transform="matrix(1,0,0,1,-4,-4)" xmlns:kvg="http://kanjivg.tagaini.net"></path><path class="stroke_order_diagram--current_path" d="M10.25,39.04c2.25,0.27,1.37,0.6,3.78,0.27c5.94-0.81,16.74-2.7,26.64-3.96" id="Ske2krvr5j" kvg:type="㇐" transform="matrix(1,0,0,1,-4,-4)" xmlns:kvg="http://kanjivg.tagaini.net"></path><circle class="stroke_order_diagram--path_start" cx="10.25" cy="39.04" r="4" transform="matrix(1,0,0,1,-4,-4)"></circle><line class="stroke_order_diagram--guide_line" x1="150" x2="150" y1="1" y2="99"></line><line class="stroke_order_diagram--bounding_box" x1="199" x2="199" y1="1" y2="99"></line><path class="stroke_order_diagram--existing_path" d="M10.25,39.04c2.25,0.27,1.37,0.6,3.78,0.27c5.94-0.81,16.74-2.7,26.64-3.96" id="Ske2krvr5m" kvg:type="㇐" transform="matrix(1,0,0,1,96,-4)" xmlns:kvg="http://kanjivg.tagaini.net"></path><path class="stroke_order_diagram--current_path" d="M28.27,13.5c0.48,0.92,1.76,2.49,1.76,5.52c0,15.23,0.24,55.46,0.24,66.9c0,14.25-6.32,3.53-7.77,2" id="kvg:0633e-s2" kvg:type="㇚" transform="matrix(1,0,0,1,96,-4)" xmlns:kvg="http://kanjivg.tagaini.net"></path><path class="stroke_order_diagram--current_path" d="M28.27,13.5c0.48,0.92,1.76,2.49,1.76,5.52c0,15.23,0.24,55.46,0.24,66.9c0,14.25-6.32,3.53-7.77,2" id="Ske2krvr5o" kvg:type="㇚" transform="matrix(1,0,0,1,96,-4)" xmlns:kvg="http://kanjivg.tagaini.net"></path><circle class="stroke_order_diagram--path_start" cx="28.27" cy="13.5" r="4" transform="matrix(1,0,0,1,96,-4)"></circle><line class="stroke_order_diagram--guide_line" x1="250" x2="250" y1="1" y2="99"></line><line class="stroke_order_diagram--bounding_box" x1="299" x2="299" y1="1" y2="99"></line><path class="stroke_order_diagram--existing_path" d="M10.25,39.04c2.25,0.27,1.37,0.6,3.78,0.27c5.94-0.81,16.74-2.7,26.64-3.96" id="Ske2krvr5r" kvg:type="㇐" transform="matrix(1,0,0,1,196,-4)" xmlns:kvg="http://kanjivg.tagaini.net"></path><path class="stroke_order_diagram--existing_path" d="M28.27,13.5c0.48,0.92,1.76,2.49,1.76,5.52c0,15.23,0.24,55.46,0.24,66.9c0,14.25-6.32,3.53-7.77,2" id="Ske2krvr5s" kvg:type="㇚" transform="matrix(1,0,0,1,196,-4)" xmlns:kvg="http://kanjivg.tagaini.net"></path><path class="stroke_order_diagram--current_path" d="M9.75,65.39c0.97,1.15,2.52,1.83,4.66,0.76c1.26-0.63,21.23-13.98,26.59-17" id="kvg:0633e-s3" kvg:type="㇀" transform="matrix(1,0,0,1,196,-4)" xmlns:kvg="http://kanjivg.tagaini.net"></path><path class="stroke_order_diagram--current_path" d="M9.75,65.39c0.97,1.15,2.52,1.83,4.66,0.76c1.26-0.63,21.23-13.98,26.59-17" id="Ske2krvr5u" kvg:type="㇀" transform="matrix(1,0,0,1,196,-4)" xmlns:kvg="http://kanjivg.tagaini.net"></path><circle class="stroke_order_diagram--path_start" cx="9.75" cy="65.39" r="4" transform="matrix(1,0,0,1,196,-4)"></circle><line class="stroke_order_diagram--guide_line" x1="350" x2="350" y1="1" y2="99"></line><line class="stroke_order_diagram--bounding_box" x1="399" x2="399" y1="1" y2="99"></line><path class="stroke_order_diagram--existing_path" d="M10.25,39.04c2.25,0.27,1.37,0.6,3.78,0.27c5.94-0.81,16.74-2.7,26.64-3.96" id="Ske2krvr5x" kvg:type="㇐" transform="matrix(1,0,0,1,296,-4)" xmlns:kvg="http://kanjivg.tagaini.net"></path><path class="stroke_order_diagram--existing_path" d="M28.27,13.5c0.48,0.92,1.76,2.49,1.76,5.52c0,15.23,0.24,55.46,0.24,66.9c0,14.25-6.32,3.53-7.77,2" id="Ske2krvr5y" kvg:type="㇚" transform="matrix(1,0,0,1,296,-4)" xmlns:kvg="http://kanjivg.tagaini.net"></path><path class="stroke_order_diagram--existing_path" d="M9.75,65.39c0.97,1.15,2.52,1.83,4.66,0.76c1.26-0.63,21.23-13.98,26.59-17" id="Ske2krvr5z" kvg:type="㇀" transform="matrix(1,0,0,1,296,-4)" xmlns:kvg="http://kanjivg.tagaini.net"></path><path class="stroke_order_diagram--current_path" d="M46.25,31.65c1.08,0.44,3.05,0.56,4.12,0.44c6.85-0.76,34.48-4.02,41.12-3.52c1.79,0.14,2.87,0.21,3.76,0.43" id="kvg:0633e-s4" kvg:type="㇐" transform="matrix(1,0,0,1,296,-4)" xmlns:kvg="http://kanjivg.tagaini.net"></path><path class="stroke_order_diagram--current_path" d="M46.25,31.65c1.08,0.44,3.05,0.56,4.12,0.44c6.85-0.76,34.48-4.02,41.12-3.52c1.79,0.14,2.87,0.21,3.76,0.43" id="Ske2krvr511" kvg:type="㇐" transform="matrix(1,0,0,1,296,-4)" xmlns:kvg="http://kanjivg.tagaini.net"></path><circle class="stroke_order_diagram--path_start" cx="46.25" cy="31.65" r="4" transform="matrix(1,0,0,1,296,-4)"></circle><line class="stroke_order_diagram--guide_line" x1="450" x2="450" y1="1" y2="99"></line><line class="stroke_order_diagram--bounding_box" x1="499" x2="499" y1="1" y2="99"></line><path class="stroke_order_diagram--existing_path" d="M10.25,39.04c2.25,0.27,1.37,0.6,3.78,0.27c5.94-0.81,16.74-2.7,26.64-3.96" id="Ske2krvr514" kvg:type="㇐" transform="matrix(1,0,0,1,396,-4)" xmlns:kvg="http://kanjivg.tagaini.net"></path><path class="stroke_order_diagram--existing_path" d="M28.27,13.5c0.48,0.92,1.76,2.49,1.76,5.52c0,15.23,0.24,55.46,0.24,66.9c0,14.25-6.32,3.53-7.77,2" id="Ske2krvr515" kvg:type="㇚" transform="matrix(1,0,0,1,396,-4)" xmlns:kvg="http://kanjivg.tagaini.net"></path><path class="stroke_order_diagram--existing_path" d="M9.75,65.39c0.97,1.15,2.52,1.83,4.66,0.76c1.26-0.63,21.23-13.98,26.59-17" id="Ske2krvr516" kvg:type="㇀" transform="matrix(1,0,0,1,396,-4)" xmlns:kvg="http://kanjivg.tagaini.net"></path><path class="stroke_order_diagram--existing_path" d="M46.25,31.65c1.08,0.44,3.05,0.56,4.12,0.44c6.85-0.76,34.48-4.02,41.12-3.52c1.79,0.14,2.87,0.21,3.76,0.43" id="Ske2krvr517" kvg:type="㇐" transform="matrix(1,0,0,1,396,-4)" xmlns:kvg="http://kanjivg.tagaini.net"></path><path class="stroke_order_diagram--current_path" d="M53.01,42.24c0,0.57,0.06,1.05-0.1,1.71c-1.46,6.18-5.8,13.86-12.19,20.68" id="kvg:0633e-s5" kvg:type="㇒" transform="matrix(1,0,0,1,396,-4)" xmlns:kvg="http://kanjivg.tagaini.net"></path><path class="stroke_order_diagram--current_path" d="M53.01,42.24c0,0.57,0.06,1.05-0.1,1.71c-1.46,6.18-5.8,13.86-12.19,20.68" id="Ske2krvr519" kvg:type="㇒" transform="matrix(1,0,0,1,396,-4)" xmlns:kvg="http://kanjivg.tagaini.net"></path><circle class="stroke_order_diagram--path_start" cx="53.01" cy="42.24" r="4" transform="matrix(1,0,0,1,396,-4)"></circle><line class="stroke_order_diagram--guide_line" x1="550" x2="550" y1="1" y2="99"></line><line class="stroke_order_diagram--bounding_box" x1="599" x2="599" y1="1" y2="99"></line><path class="stroke_order_diagram--existing_path" d="M10.25,39.04c2.25,0.27,1.37,0.6,3.78,0.27c5.94-0.81,16.74-2.7,26.64-3.96" id="Ske2krvr51c" kvg:type="㇐" transform="matrix(1,0,0,1,496,-4)" xmlns:kvg="http://kanjivg.tagaini.net"></path><path class="stroke_order_diagram--existing_path" d="M28.27,13.5c0.48,0.92,1.76,2.49,1.76,5.52c0,15.23,0.24,55.46,0.24,66.9c0,14.25-6.32,3.53-7.77,2" id="Ske2krvr51d" kvg:type="㇚" transform="matrix(1,0,0,1,496,-4)" xmlns:kvg="http://kanjivg.tagaini.net"></path><path class="stroke_order_diagram--existing_path" d="M9.75,65.39c0.97,1.15,2.52,1.83,4.66,0.76c1.26-0.63,21.23-13.98,26.59-17" id="Ske2krvr51e" kvg:type="㇀" transform="matrix(1,0,0,1,496,-4)" xmlns:kvg="http://kanjivg.tagaini.net"></path><path class="stroke_order_diagram--existing_path" d="M46.25,31.65c1.08,0.44,3.05,0.56,4.12,0.44c6.85-0.76,34.48-4.02,41.12-3.52c1.79,0.14,2.87,0.21,3.76,0.43" id="Ske2krvr51f" kvg:type="㇐" transform="matrix(1,0,0,1,496,-4)" xmlns:kvg="http://kanjivg.tagaini.net"></path><path class="stroke_order_diagram--existing_path" d="M53.01,42.24c0,0.57,0.06,1.05-0.1,1.71c-1.46,6.18-5.8,13.86-12.19,20.68" id="Ske2krvr51g" kvg:type="㇒" transform="matrix(1,0,0,1,496,-4)" xmlns:kvg="http://kanjivg.tagaini.net"></path><path class="stroke_order_diagram--current_path" d="M50.89,51.71c2.84,1.58,6.48,5.79,7.86,9.79" id="kvg:0633e-s6" kvg:type="㇏" transform="matrix(1,0,0,1,496,-4)" xmlns:kvg="http://kanjivg.tagaini.net"></path><path class="stroke_order_diagram--current_path" d="M50.89,51.71c2.84,1.58,6.48,5.79,7.86,9.79" id="Ske2krvr51i" kvg:type="㇏" transform="matrix(1,0,0,1,496,-4)" xmlns:kvg="http://kanjivg.tagaini.net"></path><circle class="stroke_order_diagram--path_start" cx="50.89" cy="51.71" r="4" transform="matrix(1,0,0,1,496,-4)"></circle><line class="stroke_order_diagram--guide_line" x1="650" x2="650" y1="1" y2="99"></line><line class="stroke_order_diagram--bounding_box" x1="699" x2="699" y1="1" y2="99"></line><path class="stroke_order_diagram--existing_path" d="M10.25,39.04c2.25,0.27,1.37,0.6,3.78,0.27c5.94-0.81,16.74-2.7,26.64-3.96" id="Ske2krvr51l" kvg:type="㇐" transform="matrix(1,0,0,1,596,-4)" xmlns:kvg="http://kanjivg.tagaini.net"></path><path class="stroke_order_diagram--existing_path" d="M28.27,13.5c0.48,0.92,1.76,2.49,1.76,5.52c0,15.23,0.24,55.46,0.24,66.9c0,14.25-6.32,3.53-7.77,2" id="Ske2krvr51m" kvg:type="㇚" transform="matrix(1,0,0,1,596,-4)" xmlns:kvg="http://kanjivg.tagaini.net"></path><path class="stroke_order_diagram--existing_path" d="M9.75,65.39c0.97,1.15,2.52,1.83,4.66,0.76c1.26-0.63,21.23-13.98,26.59-17" id="Ske2krvr51n" kvg:type="㇀" transform="matrix(1,0,0,1,596,-4)" xmlns:kvg="http://kanjivg.tagaini.net"></path><path class="stroke_order_diagram--existing_path" d="M46.25,31.65c1.08,0.44,3.05,0.56,4.12,0.44c6.85-0.76,34.48-4.02,41.12-3.52c1.79,0.14,2.87,0.21,3.76,0.43" id="Ske2krvr51o" kvg:type="㇐" transform="matrix(1,0,0,1,596,-4)" xmlns:kvg="http://kanjivg.tagaini.net"></path><path class="stroke_order_diagram--existing_path" d="M53.01,42.24c0,0.57,0.06,1.05-0.1,1.71c-1.46,6.18-5.8,13.86-12.19,20.68" id="Ske2krvr51p" kvg:type="㇒" transform="matrix(1,0,0,1,596,-4)" xmlns:kvg="http://kanjivg.tagaini.net"></path><path class="stroke_order_diagram--existing_path" d="M50.89,51.71c2.84,1.58,6.48,5.79,7.86,9.79" id="Ske2krvr51q" kvg:type="㇏" transform="matrix(1,0,0,1,596,-4)" xmlns:kvg="http://kanjivg.tagaini.net"></path><path class="stroke_order_diagram--current_path" d="M86.26,38.74c0,0.51,0.1,0.95-0.09,1.52c-1.65,4.98-6.35,13.84-11.95,18.86" id="kvg:0633e-s7" kvg:type="㇒" transform="matrix(1,0,0,1,596,-4)" xmlns:kvg="http://kanjivg.tagaini.net"></path><path class="stroke_order_diagram--current_path" d="M86.26,38.74c0,0.51,0.1,0.95-0.09,1.52c-1.65,4.98-6.35,13.84-11.95,18.86" id="Ske2krvr51s" kvg:type="㇒" transform="matrix(1,0,0,1,596,-4)" xmlns:kvg="http://kanjivg.tagaini.net"></path><circle class="stroke_order_diagram--path_start" cx="86.26" cy="38.74" r="4" transform="matrix(1,0,0,1,596,-4)"></circle><line class="stroke_order_diagram--guide_line" x1="750" x2="750" y1="1" y2="99"></line><line class="stroke_order_diagram--bounding_box" x1="799" x2="799" y1="1" y2="99"></line><path class="stroke_order_diagram--existing_path" d="M10.25,39.04c2.25,0.27,1.37,0.6,3.78,0.27c5.94-0.81,16.74-2.7,26.64-3.96" id="Ske2krvr51v" kvg:type="㇐" transform="matrix(1,0,0,1,696,-4)" xmlns:kvg="http://kanjivg.tagaini.net"></path><path class="stroke_order_diagram--existing_path" d="M28.27,13.5c0.48,0.92,1.76,2.49,1.76,5.52c0,15.23,0.24,55.46,0.24,66.9c0,14.25-6.32,3.53-7.77,2" id="Ske2krvr51w" kvg:type="㇚" transform="matrix(1,0,0,1,696,-4)" xmlns:kvg="http://kanjivg.tagaini.net"></path><path class="stroke_order_diagram--existing_path" d="M9.75,65.39c0.97,1.15,2.52,1.83,4.66,0.76c1.26-0.63,21.23-13.98,26.59-17" id="Ske2krvr51x" kvg:type="㇀" transform="matrix(1,0,0,1,696,-4)" xmlns:kvg="http://kanjivg.tagaini.net"></path><path class="stroke_order_diagram--existing_path" d="M46.25,31.65c1.08,0.44,3.05,0.56,4.12,0.44c6.85-0.76,34.48-4.02,41.12-3.52c1.79,0.14,2.87,0.21,3.76,0.43" id="Ske2krvr51y" kvg:type="㇐" transform="matrix(1,0,0,1,696,-4)" xmlns:kvg="http://kanjivg.tagaini.net"></path><path class="stroke_order_diagram--existing_path" d="M53.01,42.24c0,0.57,0.06,1.05-0.1,1.71c-1.46,6.18-5.8,13.86-12.19,20.68" id="Ske2krvr51z" kvg:type="㇒" transform="matrix(1,0,0,1,696,-4)" xmlns:kvg="http://kanjivg.tagaini.net"></path><path class="stroke_order_diagram--existing_path" d="M50.89,51.71c2.84,1.58,6.48,5.79,7.86,9.79" id="Ske2krvr520" kvg:type="㇏" transform="matrix(1,0,0,1,696,-4)" xmlns:kvg="http://kanjivg.tagaini.net"></path><path class="stroke_order_diagram--existing_path" d="M86.26,38.74c0,0.51,0.1,0.95-0.09,1.52c-1.65,4.98-6.35,13.84-11.95,18.86" id="Ske2krvr521" kvg:type="㇒" transform="matrix(1,0,0,1,696,-4)" xmlns:kvg="http://kanjivg.tagaini.net"></path><path class="stroke_order_diagram--current_path" d="M82.39,47.71c5.22,3.25,9.24,7.34,12.36,12.29" id="kvg:0633e-s8" kvg:type="㇏" transform="matrix(1,0,0,1,696,-4)" xmlns:kvg="http://kanjivg.tagaini.net"></path><path class="stroke_order_diagram--current_path" d="M82.39,47.71c5.22,3.25,9.24,7.34,12.36,12.29" id="Ske2krvr523" kvg:type="㇏" transform="matrix(1,0,0,1,696,-4)" xmlns:kvg="http://kanjivg.tagaini.net"></path><circle class="stroke_order_diagram--path_start" cx="82.39" cy="47.71" r="4" transform="matrix(1,0,0,1,696,-4)"></circle><line class="stroke_order_diagram--guide_line" x1="850" x2="850" y1="1" y2="99"></line><line class="stroke_order_diagram--bounding_box" x1="899" x2="899" y1="1" y2="99"></line><path class="stroke_order_diagram--existing_path" d="M10.25,39.04c2.25,0.27,1.37,0.6,3.78,0.27c5.94-0.81,16.74-2.7,26.64-3.96" id="Ske2krvr526" kvg:type="㇐" transform="matrix(1,0,0,1,796,-4)" xmlns:kvg="http://kanjivg.tagaini.net"></path><path class="stroke_order_diagram--existing_path" d="M28.27,13.5c0.48,0.92,1.76,2.49,1.76,5.52c0,15.23,0.24,55.46,0.24,66.9c0,14.25-6.32,3.53-7.77,2" id="Ske2krvr527" kvg:type="㇚" transform="matrix(1,0,0,1,796,-4)" xmlns:kvg="http://kanjivg.tagaini.net"></path><path class="stroke_order_diagram--existing_path" d="M9.75,65.39c0.97,1.15,2.52,1.83,4.66,0.76c1.26-0.63,21.23-13.98,26.59-17" id="Ske2krvr528" kvg:type="㇀" transform="matrix(1,0,0,1,796,-4)" xmlns:kvg="http://kanjivg.tagaini.net"></path><path class="stroke_order_diagram--existing_path" d="M46.25,31.65c1.08,0.44,3.05,0.56,4.12,0.44c6.85-0.76,34.48-4.02,41.12-3.52c1.79,0.14,2.87,0.21,3.76,0.43" id="Ske2krvr529" kvg:type="㇐" transform="matrix(1,0,0,1,796,-4)" xmlns:kvg="http://kanjivg.tagaini.net"></path><path class="stroke_order_diagram--existing_path" d="M53.01,42.24c0,0.57,0.06,1.05-0.1,1.71c-1.46,6.18-5.8,13.86-12.19,20.68" id="Ske2krvr52a" kvg:type="㇒" transform="matrix(1,0,0,1,796,-4)" xmlns:kvg="http://kanjivg.tagaini.net"></path><path class="stroke_order_diagram--existing_path" d="M50.89,51.71c2.84,1.58,6.48,5.79,7.86,9.79" id="Ske2krvr52b" kvg:type="㇏" transform="matrix(1,0,0,1,796,-4)" xmlns:kvg="http://kanjivg.tagaini.net"></path><path class="stroke_order_diagram--existing_path" d="M86.26,38.74c0,0.51,0.1,0.95-0.09,1.52c-1.65,4.98-6.35,13.84-11.95,18.86" id="Ske2krvr52c" kvg:type="㇒" transform="matrix(1,0,0,1,796,-4)" xmlns:kvg="http://kanjivg.tagaini.net"></path><path class="stroke_order_diagram--existing_path" d="M82.39,47.71c5.22,3.25,9.24,7.34,12.36,12.29" id="Ske2krvr52d" kvg:type="㇏" transform="matrix(1,0,0,1,796,-4)" xmlns:kvg="http://kanjivg.tagaini.net"></path><path class="stroke_order_diagram--current_path" d="M66.83,12.75c0.45,1.13,1.17,2.43,1.17,4.86c0,45.19-1.49,62.29-29.24,77.39" id="kvg:0633e-s9" kvg:type="㇒" transform="matrix(1,0,0,1,796,-4)" xmlns:kvg="http://kanjivg.tagaini.net"></path><path class="stroke_order_diagram--current_path" d="M66.83,12.75c0.45,1.13,1.17,2.43,1.17,4.86c0,45.19-1.49,62.29-29.24,77.39" id="Ske2krvr52f" kvg:type="㇒" transform="matrix(1,0,0,1,796,-4)" xmlns:kvg="http://kanjivg.tagaini.net"></path><circle class="stroke_order_diagram--path_start" cx="66.83" cy="12.75" r="4" transform="matrix(1,0,0,1,796,-4)"></circle><line class="stroke_order_diagram--guide_line" x1="950" x2="950" y1="1" y2="99"></line><line class="stroke_order_diagram--bounding_box" x1="999" x2="999" y1="1" y2="99"></line><path class="stroke_order_diagram--existing_path" d="M10.25,39.04c2.25,0.27,1.37,0.6,3.78,0.27c5.94-0.81,16.74-2.7,26.64-3.96" id="Ske2krvr52i" kvg:type="㇐" transform="matrix(1,0,0,1,896,-4)" xmlns:kvg="http://kanjivg.tagaini.net"></path><path class="stroke_order_diagram--existing_path" d="M28.27,13.5c0.48,0.92,1.76,2.49,1.76,5.52c0,15.23,0.24,55.46,0.24,66.9c0,14.25-6.32,3.53-7.77,2" id="Ske2krvr52j" kvg:type="㇚" transform="matrix(1,0,0,1,896,-4)" xmlns:kvg="http://kanjivg.tagaini.net"></path><path class="stroke_order_diagram--existing_path" d="M9.75,65.39c0.97,1.15,2.52,1.83,4.66,0.76c1.26-0.63,21.23-13.98,26.59-17" id="Ske2krvr52k" kvg:type="㇀" transform="matrix(1,0,0,1,896,-4)" xmlns:kvg="http://kanjivg.tagaini.net"></path><path class="stroke_order_diagram--existing_path" d="M46.25,31.65c1.08,0.44,3.05,0.56,4.12,0.44c6.85-0.76,34.48-4.02,41.12-3.52c1.79,0.14,2.87,0.21,3.76,0.43" id="Ske2krvr52l" kvg:type="㇐" transform="matrix(1,0,0,1,896,-4)" xmlns:kvg="http://kanjivg.tagaini.net"></path><path class="stroke_order_diagram--existing_path" d="M53.01,42.24c0,0.57,0.06,1.05-0.1,1.71c-1.46,6.18-5.8,13.86-12.19,20.68" id="Ske2krvr52m" kvg:type="㇒" transform="matrix(1,0,0,1,896,-4)" xmlns:kvg="http://kanjivg.tagaini.net"></path><path class="stroke_order_diagram--existing_path" d="M50.89,51.71c2.84,1.58,6.48,5.79,7.86,9.79" id="Ske2krvr52n" kvg:type="㇏" transform="matrix(1,0,0,1,896,-4)" xmlns:kvg="http://kanjivg.tagaini.net"></path><path class="stroke_order_diagram--existing_path" d="M86.26,38.74c0,0.51,0.1,0.95-0.09,1.52c-1.65,4.98-6.35,13.84-11.95,18.86" id="Ske2krvr52o" kvg:type="㇒" transform="matrix(1,0,0,1,896,-4)" xmlns:kvg="http://kanjivg.tagaini.net"></path><path class="stroke_order_diagram--existing_path" d="M82.39,47.71c5.22,3.25,9.24,7.34,12.36,12.29" id="Ske2krvr52p" kvg:type="㇏" transform="matrix(1,0,0,1,896,-4)" xmlns:kvg="http://kanjivg.tagaini.net"></path><path class="stroke_order_diagram--existing_path" d="M66.83,12.75c0.45,1.13,1.17,2.43,1.17,4.86c0,45.19-1.49,62.29-29.24,77.39" id="Ske2krvr52q" kvg:type="㇒" transform="matrix(1,0,0,1,896,-4)" xmlns:kvg="http://kanjivg.tagaini.net"></path><path class="stroke_order_diagram--current_path" d="M66.75,57.5c5.58,10.21,17.85,28.33,25.41,34.2c2.12,1.65,2.68,2.12,3.59,2.3" id="kvg:0633e-s10" kvg:type="㇏" transform="matrix(1,0,0,1,896,-4)" xmlns:kvg="http://kanjivg.tagaini.net"></path><path class="stroke_order_diagram--current_path" d="M66.75,57.5c5.58,10.21,17.85,28.33,25.41,34.2c2.12,1.65,2.68,2.12,3.59,2.3" id="Ske2krvr52s" kvg:type="㇏" transform="matrix(1,0,0,1,896,-4)" xmlns:kvg="http://kanjivg.tagaini.net"></path><circle class="stroke_order_diagram--path_start" cx="66.75" cy="57.5" r="4" transform="matrix(1,0,0,1,896,-4)"></circle></svg>