<svg class="stroke_order_diagram--svg_container_for_5186627cd5dda796580002b9" style="height: 100px; width: 1100px;" viewbox="0 0 1100 100"><desc>Created with Snap</desc><defs></defs><line class="stroke_order_diagram--bounding_box" x1="1" x2="1099" y1="1" y2="1"></line><line class="stroke_order_diagram--bounding_box" x1="1" x2="1" y1="1" y2="99"></line><line class="stroke_order_diagram--bounding_box" x1="1" x2="1099" y1="99" y2="99"></line><line class="stroke_order_diagram--guide_line" x1="0" x2="1100" y1="50" y2="50"></line><line class="stroke_order_diagram--guide_line" x1="50" x2="50" y1="1" y2="99"></line><line class="stroke_order_diagram--bounding_box" x1="99" x2="99" y1="1" y2="99"></line><path class="stroke_order_diagram--current_path" d="M14.5,39.67c2.32,0.28,4.16,0.41,6.61,0.07c5.03-0.7,12.5-2.22,19.02-3.21c1.26-0.19,2.37-0.28,3.79-0.28" id="kvg:063b2-s1" kvg:type="㇐" transform="matrix(1,0,0,1,-4,-4)" xmlns:kvg="http://kanjivg.tagaini.net"></path><path class="stroke_order_diagram--current_path" d="M14.5,39.67c2.32,0.28,4.16,0.41,6.61,0.07c5.03-0.7,12.5-2.22,19.02-3.21c1.26-0.19,2.37-0.28,3.79-0.28" id="Ske1ssnd7k" kvg:type="㇐" transform="matrix(1,0,0,1,-4,-4)" xmlns:kvg="http://kanjivg.tagaini.net"></path><circle class="stroke_order_diagram--path_start" cx="14.5" cy="39.67" r="4" transform="matrix(1,0,0,1,-4,-4)"></circle><line class="stroke_order_diagram--guide_line" x1="150" x2="150" y1="1" y2="99"></line><line class="stroke_order_diagram--bounding_box" x1="199" x2="199" y1="1" y2="99"></line><path class="stroke_order_diagram--existing_path" d="M14.5,39.67c2.32,0.28,4.16,0.41,6.61,0.07c5.03-0.7,12.5-2.22,19.02-3.21c1.26-0.19,2.37-0.28,3.79-0.28" id="Ske1ssnd7n" kvg:type="㇐" transform="matrix(1,0,0,1,96,-4)" xmlns:kvg="http://kanjivg.tagaini.net"></path><path class="stroke_order_diagram--current_path" d="M31.27,15.75c0.99,0.99,1.51,2.88,1.51,5.02c0,15.23-0.01,53.71-0.01,65.15c0,14.25-6.32,3.53-7.77,2" id="kvg:063b2-s2" kvg:type="㇚" transform="matrix(1,0,0,1,96,-4)" xmlns:kvg="http://kanjivg.tagaini.net"></path><path class="stroke_order_diagram--current_path" d="M31.27,15.75c0.99,0.99,1.51,2.88,1.51,5.02c0,15.23-0.01,53.71-0.01,65.15c0,14.25-6.32,3.53-7.77,2" id="Ske1ssnd7p" kvg:type="㇚" transform="matrix(1,0,0,1,96,-4)" xmlns:kvg="http://kanjivg.tagaini.net"></path><circle class="stroke_order_diagram--path_start" cx="31.27" cy="15.75" r="4" transform="matrix(1,0,0,1,96,-4)"></circle><line class="stroke_order_diagram--guide_line" x1="250" x2="250" y1="1" y2="99"></line><line class="stroke_order_diagram--bounding_box" x1="299" x2="299" y1="1" y2="99"></line><path class="stroke_order_diagram--existing_path" d="M14.5,39.67c2.32,0.28,4.16,0.41,6.61,0.07c5.03-0.7,12.5-2.22,19.02-3.21c1.26-0.19,2.37-0.28,3.79-0.28" id="Ske1ssnd7s" kvg:type="㇐" transform="matrix(1,0,0,1,196,-4)" xmlns:kvg="http://kanjivg.tagaini.net"></path><path class="stroke_order_diagram--existing_path" d="M31.27,15.75c0.99,0.99,1.51,2.88,1.51,5.02c0,15.23-0.01,53.71-0.01,65.15c0,14.25-6.32,3.53-7.77,2" id="Ske1ssnd7t" kvg:type="㇚" transform="matrix(1,0,0,1,196,-4)" xmlns:kvg="http://kanjivg.tagaini.net"></path><path class="stroke_order_diagram--current_path" d="M13.71,67.02c1.01,1.01,2.04,1.23,3.82,0.02c4.67-3.18,12.47-9.2,23.72-17.29" id="kvg:063b2-s3" kvg:type="㇀" transform="matrix(1,0,0,1,196,-4)" xmlns:kvg="http://kanjivg.tagaini.net"></path><path class="stroke_order_diagram--current_path" d="M13.71,67.02c1.01,1.01,2.04,1.23,3.82,0.02c4.67-3.18,12.47-9.2,23.72-17.29" id="Ske1ssnd7v" kvg:type="㇀" transform="matrix(1,0,0,1,196,-4)" xmlns:kvg="http://kanjivg.tagaini.net"></path><circle class="stroke_order_diagram--path_start" cx="13.71" cy="67.02" r="4" transform="matrix(1,0,0,1,196,-4)"></circle><line class="stroke_order_diagram--guide_line" x1="350" x2="350" y1="1" y2="99"></line><line class="stroke_order_diagram--bounding_box" x1="399" x2="399" y1="1" y2="99"></line><path class="stroke_order_diagram--existing_path" d="M14.5,39.67c2.32,0.28,4.16,0.41,6.61,0.07c5.03-0.7,12.5-2.22,19.02-3.21c1.26-0.19,2.37-0.28,3.79-0.28" id="Ske1ssnd7y" kvg:type="㇐" transform="matrix(1,0,0,1,296,-4)" xmlns:kvg="http://kanjivg.tagaini.net"></path><path class="stroke_order_diagram--existing_path" d="M31.27,15.75c0.99,0.99,1.51,2.88,1.51,5.02c0,15.23-0.01,53.71-0.01,65.15c0,14.25-6.32,3.53-7.77,2" id="Ske1ssnd7z" kvg:type="㇚" transform="matrix(1,0,0,1,296,-4)" xmlns:kvg="http://kanjivg.tagaini.net"></path><path class="stroke_order_diagram--existing_path" d="M13.71,67.02c1.01,1.01,2.04,1.23,3.82,0.02c4.67-3.18,12.47-9.2,23.72-17.29" id="Ske1ssnd710" kvg:type="㇀" transform="matrix(1,0,0,1,296,-4)" xmlns:kvg="http://kanjivg.tagaini.net"></path><path class="stroke_order_diagram--current_path" d="M48.75,14.52c0.87,0.87,0.88,1.86,1,3.11s1.55,14.79,2.06,19.87c0.14,1.45,0.36,2.9,0.49,3.75" id="kvg:063b2-s4" kvg:type="㇑" transform="matrix(1,0,0,1,296,-4)" xmlns:kvg="http://kanjivg.tagaini.net"></path><path class="stroke_order_diagram--current_path" d="M48.75,14.52c0.87,0.87,0.88,1.86,1,3.11s1.55,14.79,2.06,19.87c0.14,1.45,0.36,2.9,0.49,3.75" id="Ske1ssnd712" kvg:type="㇑" transform="matrix(1,0,0,1,296,-4)" xmlns:kvg="http://kanjivg.tagaini.net"></path><circle class="stroke_order_diagram--path_start" cx="48.75" cy="14.52" r="4" transform="matrix(1,0,0,1,296,-4)"></circle><line class="stroke_order_diagram--guide_line" x1="450" x2="450" y1="1" y2="99"></line><line class="stroke_order_diagram--bounding_box" x1="499" x2="499" y1="1" y2="99"></line><path class="stroke_order_diagram--existing_path" d="M14.5,39.67c2.32,0.28,4.16,0.41,6.61,0.07c5.03-0.7,12.5-2.22,19.02-3.21c1.26-0.19,2.37-0.28,3.79-0.28" id="Ske1ssnd715" kvg:type="㇐" transform="matrix(1,0,0,1,396,-4)" xmlns:kvg="http://kanjivg.tagaini.net"></path><path class="stroke_order_diagram--existing_path" d="M31.27,15.75c0.99,0.99,1.51,2.88,1.51,5.02c0,15.23-0.01,53.71-0.01,65.15c0,14.25-6.32,3.53-7.77,2" id="Ske1ssnd716" kvg:type="㇚" transform="matrix(1,0,0,1,396,-4)" xmlns:kvg="http://kanjivg.tagaini.net"></path><path class="stroke_order_diagram--existing_path" d="M13.71,67.02c1.01,1.01,2.04,1.23,3.82,0.02c4.67-3.18,12.47-9.2,23.72-17.29" id="Ske1ssnd717" kvg:type="㇀" transform="matrix(1,0,0,1,396,-4)" xmlns:kvg="http://kanjivg.tagaini.net"></path><path class="stroke_order_diagram--existing_path" d="M48.75,14.52c0.87,0.87,0.88,1.86,1,3.11s1.55,14.79,2.06,19.87c0.14,1.45,0.36,2.9,0.49,3.75" id="Ske1ssnd718" kvg:type="㇑" transform="matrix(1,0,0,1,396,-4)" xmlns:kvg="http://kanjivg.tagaini.net"></path><path class="stroke_order_diagram--current_path" d="M50.69,15.62c3.43-0.49,17.62-2.5,24.44-3.26c4.13-0.46,6.9-0.2,6.27,4.65c-0.79,6.16-1.82,12.23-2.79,18.55c-0.22,1.42-0.44,2.85-0.65,4.3" id="kvg:063b2-s5" kvg:type="㇕a" transform="matrix(1,0,0,1,396,-4)" xmlns:kvg="http://kanjivg.tagaini.net"></path><path class="stroke_order_diagram--current_path" d="M50.69,15.62c3.43-0.49,17.62-2.5,24.44-3.26c4.13-0.46,6.9-0.2,6.27,4.65c-0.79,6.16-1.82,12.23-2.79,18.55c-0.22,1.42-0.44,2.85-0.65,4.3" id="Ske1ssnd71a" kvg:type="㇕a" transform="matrix(1,0,0,1,396,-4)" xmlns:kvg="http://kanjivg.tagaini.net"></path><circle class="stroke_order_diagram--path_start" cx="50.69" cy="15.62" r="4" transform="matrix(1,0,0,1,396,-4)"></circle><line class="stroke_order_diagram--guide_line" x1="550" x2="550" y1="1" y2="99"></line><line class="stroke_order_diagram--bounding_box" x1="599" x2="599" y1="1" y2="99"></line><path class="stroke_order_diagram--existing_path" d="M14.5,39.67c2.32,0.28,4.16,0.41,6.61,0.07c5.03-0.7,12.5-2.22,19.02-3.21c1.26-0.19,2.37-0.28,3.79-0.28" id="Ske1ssnd71d" kvg:type="㇐" transform="matrix(1,0,0,1,496,-4)" xmlns:kvg="http://kanjivg.tagaini.net"></path><path class="stroke_order_diagram--existing_path" d="M31.27,15.75c0.99,0.99,1.51,2.88,1.51,5.02c0,15.23-0.01,53.71-0.01,65.15c0,14.25-6.32,3.53-7.77,2" id="Ske1ssnd71e" kvg:type="㇚" transform="matrix(1,0,0,1,496,-4)" xmlns:kvg="http://kanjivg.tagaini.net"></path><path class="stroke_order_diagram--existing_path" d="M13.71,67.02c1.01,1.01,2.04,1.23,3.82,0.02c4.67-3.18,12.47-9.2,23.72-17.29" id="Ske1ssnd71f" kvg:type="㇀" transform="matrix(1,0,0,1,496,-4)" xmlns:kvg="http://kanjivg.tagaini.net"></path><path class="stroke_order_diagram--existing_path" d="M48.75,14.52c0.87,0.87,0.88,1.86,1,3.11s1.55,14.79,2.06,19.87c0.14,1.45,0.36,2.9,0.49,3.75" id="Ske1ssnd71g" kvg:type="㇑" transform="matrix(1,0,0,1,496,-4)" xmlns:kvg="http://kanjivg.tagaini.net"></path><path class="stroke_order_diagram--existing_path" d="M50.69,15.62c3.43-0.49,17.62-2.5,24.44-3.26c4.13-0.46,6.9-0.2,6.27,4.65c-0.79,6.16-1.82,12.23-2.79,18.55c-0.22,1.42-0.44,2.85-0.65,4.3" id="Ske1ssnd71h" kvg:type="㇕a" transform="matrix(1,0,0,1,496,-4)" xmlns:kvg="http://kanjivg.tagaini.net"></path><path class="stroke_order_diagram--current_path" d="M52.08,27.47C58.75,26.5,73,24.62,79.3,24.44" id="kvg:063b2-s6" kvg:type="㇐a" transform="matrix(1,0,0,1,496,-4)" xmlns:kvg="http://kanjivg.tagaini.net"></path><path class="stroke_order_diagram--current_path" d="M52.08,27.47C58.75,26.5,73,24.62,79.3,24.44" id="Ske1ssnd71j" kvg:type="㇐a" transform="matrix(1,0,0,1,496,-4)" xmlns:kvg="http://kanjivg.tagaini.net"></path><circle class="stroke_order_diagram--path_start" cx="52.08" cy="27.47" r="4" transform="matrix(1,0,0,1,496,-4)"></circle><line class="stroke_order_diagram--guide_line" x1="650" x2="650" y1="1" y2="99"></line><line class="stroke_order_diagram--bounding_box" x1="699" x2="699" y1="1" y2="99"></line><path class="stroke_order_diagram--existing_path" d="M14.5,39.67c2.32,0.28,4.16,0.41,6.61,0.07c5.03-0.7,12.5-2.22,19.02-3.21c1.26-0.19,2.37-0.28,3.79-0.28" id="Ske1ssnd71m" kvg:type="㇐" transform="matrix(1,0,0,1,596,-4)" xmlns:kvg="http://kanjivg.tagaini.net"></path><path class="stroke_order_diagram--existing_path" d="M31.27,15.75c0.99,0.99,1.51,2.88,1.51,5.02c0,15.23-0.01,53.71-0.01,65.15c0,14.25-6.32,3.53-7.77,2" id="Ske1ssnd71n" kvg:type="㇚" transform="matrix(1,0,0,1,596,-4)" xmlns:kvg="http://kanjivg.tagaini.net"></path><path class="stroke_order_diagram--existing_path" d="M13.71,67.02c1.01,1.01,2.04,1.23,3.82,0.02c4.67-3.18,12.47-9.2,23.72-17.29" id="Ske1ssnd71o" kvg:type="㇀" transform="matrix(1,0,0,1,596,-4)" xmlns:kvg="http://kanjivg.tagaini.net"></path><path class="stroke_order_diagram--existing_path" d="M48.75,14.52c0.87,0.87,0.88,1.86,1,3.11s1.55,14.79,2.06,19.87c0.14,1.45,0.36,2.9,0.49,3.75" id="Ske1ssnd71p" kvg:type="㇑" transform="matrix(1,0,0,1,596,-4)" xmlns:kvg="http://kanjivg.tagaini.net"></path><path class="stroke_order_diagram--existing_path" d="M50.69,15.62c3.43-0.49,17.62-2.5,24.44-3.26c4.13-0.46,6.9-0.2,6.27,4.65c-0.79,6.16-1.82,12.23-2.79,18.55c-0.22,1.42-0.44,2.85-0.65,4.3" id="Ske1ssnd71q" kvg:type="㇕a" transform="matrix(1,0,0,1,596,-4)" xmlns:kvg="http://kanjivg.tagaini.net"></path><path class="stroke_order_diagram--existing_path" d="M52.08,27.47C58.75,26.5,73,24.62,79.3,24.44" id="Ske1ssnd71r" kvg:type="㇐a" transform="matrix(1,0,0,1,596,-4)" xmlns:kvg="http://kanjivg.tagaini.net"></path><path class="stroke_order_diagram--current_path" d="M53.19,39.36c8.06-0.73,15.81-1.73,23.85-2.32" id="kvg:063b2-s7" kvg:type="㇐a" transform="matrix(1,0,0,1,596,-4)" xmlns:kvg="http://kanjivg.tagaini.net"></path><path class="stroke_order_diagram--current_path" d="M53.19,39.36c8.06-0.73,15.81-1.73,23.85-2.32" id="Ske1ssnd71t" kvg:type="㇐a" transform="matrix(1,0,0,1,596,-4)" xmlns:kvg="http://kanjivg.tagaini.net"></path><circle class="stroke_order_diagram--path_start" cx="53.19" cy="39.36" r="4" transform="matrix(1,0,0,1,596,-4)"></circle><line class="stroke_order_diagram--guide_line" x1="750" x2="750" y1="1" y2="99"></line><line class="stroke_order_diagram--bounding_box" x1="799" x2="799" y1="1" y2="99"></line><path class="stroke_order_diagram--existing_path" d="M14.5,39.67c2.32,0.28,4.16,0.41,6.61,0.07c5.03-0.7,12.5-2.22,19.02-3.21c1.26-0.19,2.37-0.28,3.79-0.28" id="Ske1ssnd71w" kvg:type="㇐" transform="matrix(1,0,0,1,696,-4)" xmlns:kvg="http://kanjivg.tagaini.net"></path><path class="stroke_order_diagram--existing_path" d="M31.27,15.75c0.99,0.99,1.51,2.88,1.51,5.02c0,15.23-0.01,53.71-0.01,65.15c0,14.25-6.32,3.53-7.77,2" id="Ske1ssnd71x" kvg:type="㇚" transform="matrix(1,0,0,1,696,-4)" xmlns:kvg="http://kanjivg.tagaini.net"></path><path class="stroke_order_diagram--existing_path" d="M13.71,67.02c1.01,1.01,2.04,1.23,3.82,0.02c4.67-3.18,12.47-9.2,23.72-17.29" id="Ske1ssnd71y" kvg:type="㇀" transform="matrix(1,0,0,1,696,-4)" xmlns:kvg="http://kanjivg.tagaini.net"></path><path class="stroke_order_diagram--existing_path" d="M48.75,14.52c0.87,0.87,0.88,1.86,1,3.11s1.55,14.79,2.06,19.87c0.14,1.45,0.36,2.9,0.49,3.75" id="Ske1ssnd71z" kvg:type="㇑" transform="matrix(1,0,0,1,696,-4)" xmlns:kvg="http://kanjivg.tagaini.net"></path><path class="stroke_order_diagram--existing_path" d="M50.69,15.62c3.43-0.49,17.62-2.5,24.44-3.26c4.13-0.46,6.9-0.2,6.27,4.65c-0.79,6.16-1.82,12.23-2.79,18.55c-0.22,1.42-0.44,2.85-0.65,4.3" id="Ske1ssnd720" kvg:type="㇕a" transform="matrix(1,0,0,1,696,-4)" xmlns:kvg="http://kanjivg.tagaini.net"></path><path class="stroke_order_diagram--existing_path" d="M52.08,27.47C58.75,26.5,73,24.62,79.3,24.44" id="Ske1ssnd721" kvg:type="㇐a" transform="matrix(1,0,0,1,696,-4)" xmlns:kvg="http://kanjivg.tagaini.net"></path><path class="stroke_order_diagram--existing_path" d="M53.19,39.36c8.06-0.73,15.81-1.73,23.85-2.32" id="Ske1ssnd722" kvg:type="㇐a" transform="matrix(1,0,0,1,696,-4)" xmlns:kvg="http://kanjivg.tagaini.net"></path><path class="stroke_order_diagram--current_path" d="M56.75,42.5c0.05,0.62,0.23,1.65-0.1,2.51c-2.42,6.4-7.18,13.54-16.41,21.74" id="kvg:063b2-s8" kvg:type="㇒" transform="matrix(1,0,0,1,696,-4)" xmlns:kvg="http://kanjivg.tagaini.net"></path><path class="stroke_order_diagram--current_path" d="M56.75,42.5c0.05,0.62,0.23,1.65-0.1,2.51c-2.42,6.4-7.18,13.54-16.41,21.74" id="Ske1ssnd724" kvg:type="㇒" transform="matrix(1,0,0,1,696,-4)" xmlns:kvg="http://kanjivg.tagaini.net"></path><circle class="stroke_order_diagram--path_start" cx="56.75" cy="42.5" r="4" transform="matrix(1,0,0,1,696,-4)"></circle><line class="stroke_order_diagram--guide_line" x1="850" x2="850" y1="1" y2="99"></line><line class="stroke_order_diagram--bounding_box" x1="899" x2="899" y1="1" y2="99"></line><path class="stroke_order_diagram--existing_path" d="M14.5,39.67c2.32,0.28,4.16,0.41,6.61,0.07c5.03-0.7,12.5-2.22,19.02-3.21c1.26-0.19,2.37-0.28,3.79-0.28" id="Ske1ssnd727" kvg:type="㇐" transform="matrix(1,0,0,1,796,-4)" xmlns:kvg="http://kanjivg.tagaini.net"></path><path class="stroke_order_diagram--existing_path" d="M31.27,15.75c0.99,0.99,1.51,2.88,1.51,5.02c0,15.23-0.01,53.71-0.01,65.15c0,14.25-6.32,3.53-7.77,2" id="Ske1ssnd728" kvg:type="㇚" transform="matrix(1,0,0,1,796,-4)" xmlns:kvg="http://kanjivg.tagaini.net"></path><path class="stroke_order_diagram--existing_path" d="M13.71,67.02c1.01,1.01,2.04,1.23,3.82,0.02c4.67-3.18,12.47-9.2,23.72-17.29" id="Ske1ssnd729" kvg:type="㇀" transform="matrix(1,0,0,1,796,-4)" xmlns:kvg="http://kanjivg.tagaini.net"></path><path class="stroke_order_diagram--existing_path" d="M48.75,14.52c0.87,0.87,0.88,1.86,1,3.11s1.55,14.79,2.06,19.87c0.14,1.45,0.36,2.9,0.49,3.75" id="Ske1ssnd72a" kvg:type="㇑" transform="matrix(1,0,0,1,796,-4)" xmlns:kvg="http://kanjivg.tagaini.net"></path><path class="stroke_order_diagram--existing_path" d="M50.69,15.62c3.43-0.49,17.62-2.5,24.44-3.26c4.13-0.46,6.9-0.2,6.27,4.65c-0.79,6.16-1.82,12.23-2.79,18.55c-0.22,1.42-0.44,2.85-0.65,4.3" id="Ske1ssnd72b" kvg:type="㇕a" transform="matrix(1,0,0,1,796,-4)" xmlns:kvg="http://kanjivg.tagaini.net"></path><path class="stroke_order_diagram--existing_path" d="M52.08,27.47C58.75,26.5,73,24.62,79.3,24.44" id="Ske1ssnd72c" kvg:type="㇐a" transform="matrix(1,0,0,1,796,-4)" xmlns:kvg="http://kanjivg.tagaini.net"></path><path class="stroke_order_diagram--existing_path" d="M53.19,39.36c8.06-0.73,15.81-1.73,23.85-2.32" id="Ske1ssnd72d" kvg:type="㇐a" transform="matrix(1,0,0,1,796,-4)" xmlns:kvg="http://kanjivg.tagaini.net"></path><path class="stroke_order_diagram--existing_path" d="M56.75,42.5c0.05,0.62,0.23,1.65-0.1,2.51c-2.42,6.4-7.18,13.54-16.41,21.74" id="Ske1ssnd72e" kvg:type="㇒" transform="matrix(1,0,0,1,796,-4)" xmlns:kvg="http://kanjivg.tagaini.net"></path><path class="stroke_order_diagram--current_path" d="M56.45,51.35c2.42,0.53,4.9,0.38,6.79,0.07c5.29-0.86,16.92-2.66,22.5-3.43c5.74-0.79,6.89,0.77,6.44,5.64c-0.73,7.87-3.35,23.9-8.39,36.09c-2.91,7.04-5.25,9.01-9.61,4.26" id="kvg:063b2-s9" kvg:type="㇆" transform="matrix(1,0,0,1,796,-4)" xmlns:kvg="http://kanjivg.tagaini.net"></path><path class="stroke_order_diagram--current_path" d="M56.45,51.35c2.42,0.53,4.9,0.38,6.79,0.07c5.29-0.86,16.92-2.66,22.5-3.43c5.74-0.79,6.89,0.77,6.44,5.64c-0.73,7.87-3.35,23.9-8.39,36.09c-2.91,7.04-5.25,9.01-9.61,4.26" id="Ske1ssnd72g" kvg:type="㇆" transform="matrix(1,0,0,1,796,-4)" xmlns:kvg="http://kanjivg.tagaini.net"></path><circle class="stroke_order_diagram--path_start" cx="56.45" cy="51.35" r="4" transform="matrix(1,0,0,1,796,-4)"></circle><line class="stroke_order_diagram--guide_line" x1="950" x2="950" y1="1" y2="99"></line><line class="stroke_order_diagram--bounding_box" x1="999" x2="999" y1="1" y2="99"></line><path class="stroke_order_diagram--existing_path" d="M14.5,39.67c2.32,0.28,4.16,0.41,6.61,0.07c5.03-0.7,12.5-2.22,19.02-3.21c1.26-0.19,2.37-0.28,3.79-0.28" id="Ske1ssnd72j" kvg:type="㇐" transform="matrix(1,0,0,1,896,-4)" xmlns:kvg="http://kanjivg.tagaini.net"></path><path class="stroke_order_diagram--existing_path" d="M31.27,15.75c0.99,0.99,1.51,2.88,1.51,5.02c0,15.23-0.01,53.71-0.01,65.15c0,14.25-6.32,3.53-7.77,2" id="Ske1ssnd72k" kvg:type="㇚" transform="matrix(1,0,0,1,896,-4)" xmlns:kvg="http://kanjivg.tagaini.net"></path><path class="stroke_order_diagram--existing_path" d="M13.71,67.02c1.01,1.01,2.04,1.23,3.82,0.02c4.67-3.18,12.47-9.2,23.72-17.29" id="Ske1ssnd72l" kvg:type="㇀" transform="matrix(1,0,0,1,896,-4)" xmlns:kvg="http://kanjivg.tagaini.net"></path><path class="stroke_order_diagram--existing_path" d="M48.75,14.52c0.87,0.87,0.88,1.86,1,3.11s1.55,14.79,2.06,19.87c0.14,1.45,0.36,2.9,0.49,3.75" id="Ske1ssnd72m" kvg:type="㇑" transform="matrix(1,0,0,1,896,-4)" xmlns:kvg="http://kanjivg.tagaini.net"></path><path class="stroke_order_diagram--existing_path" d="M50.69,15.62c3.43-0.49,17.62-2.5,24.44-3.26c4.13-0.46,6.9-0.2,6.27,4.65c-0.79,6.16-1.82,12.23-2.79,18.55c-0.22,1.42-0.44,2.85-0.65,4.3" id="Ske1ssnd72n" kvg:type="㇕a" transform="matrix(1,0,0,1,896,-4)" xmlns:kvg="http://kanjivg.tagaini.net"></path><path class="stroke_order_diagram--existing_path" d="M52.08,27.47C58.75,26.5,73,24.62,79.3,24.44" id="Ske1ssnd72o" kvg:type="㇐a" transform="matrix(1,0,0,1,896,-4)" xmlns:kvg="http://kanjivg.tagaini.net"></path><path class="stroke_order_diagram--existing_path" d="M53.19,39.36c8.06-0.73,15.81-1.73,23.85-2.32" id="Ske1ssnd72p" kvg:type="㇐a" transform="matrix(1,0,0,1,896,-4)" xmlns:kvg="http://kanjivg.tagaini.net"></path><path class="stroke_order_diagram--existing_path" d="M56.75,42.5c0.05,0.62,0.23,1.65-0.1,2.51c-2.42,6.4-7.18,13.54-16.41,21.74" id="Ske1ssnd72q" kvg:type="㇒" transform="matrix(1,0,0,1,896,-4)" xmlns:kvg="http://kanjivg.tagaini.net"></path><path class="stroke_order_diagram--existing_path" d="M56.45,51.35c2.42,0.53,4.9,0.38,6.79,0.07c5.29-0.86,16.92-2.66,22.5-3.43c5.74-0.79,6.89,0.77,6.44,5.64c-0.73,7.87-3.35,23.9-8.39,36.09c-2.91,7.04-5.25,9.01-9.61,4.26" id="Ske1ssnd72r" kvg:type="㇆" transform="matrix(1,0,0,1,896,-4)" xmlns:kvg="http://kanjivg.tagaini.net"></path><path class="stroke_order_diagram--current_path" d="M72.98,60.61c0,1.02-0.48,1.77-1.36,2.51c-3.17,2.69-9.79,5.92-18.71,8.56" id="kvg:063b2-s10" kvg:type="㇒" transform="matrix(1,0,0,1,896,-4)" xmlns:kvg="http://kanjivg.tagaini.net"></path><path class="stroke_order_diagram--current_path" d="M72.98,60.61c0,1.02-0.48,1.77-1.36,2.51c-3.17,2.69-9.79,5.92-18.71,8.56" id="Ske1ssnd72t" kvg:type="㇒" transform="matrix(1,0,0,1,896,-4)" xmlns:kvg="http://kanjivg.tagaini.net"></path><circle class="stroke_order_diagram--path_start" cx="72.98" cy="60.61" r="4" transform="matrix(1,0,0,1,896,-4)"></circle><line class="stroke_order_diagram--guide_line" x1="1050" x2="1050" y1="1" y2="99"></line><line class="stroke_order_diagram--bounding_box" x1="1099" x2="1099" y1="1" y2="99"></line><path class="stroke_order_diagram--existing_path" d="M14.5,39.67c2.32,0.28,4.16,0.41,6.61,0.07c5.03-0.7,12.5-2.22,19.02-3.21c1.26-0.19,2.37-0.28,3.79-0.28" id="Ske1ssnd72w" kvg:type="㇐" transform="matrix(1,0,0,1,996,-4)" xmlns:kvg="http://kanjivg.tagaini.net"></path><path class="stroke_order_diagram--existing_path" d="M31.27,15.75c0.99,0.99,1.51,2.88,1.51,5.02c0,15.23-0.01,53.71-0.01,65.15c0,14.25-6.32,3.53-7.77,2" id="Ske1ssnd72x" kvg:type="㇚" transform="matrix(1,0,0,1,996,-4)" xmlns:kvg="http://kanjivg.tagaini.net"></path><path class="stroke_order_diagram--existing_path" d="M13.71,67.02c1.01,1.01,2.04,1.23,3.82,0.02c4.67-3.18,12.47-9.2,23.72-17.29" id="Ske1ssnd72y" kvg:type="㇀" transform="matrix(1,0,0,1,996,-4)" xmlns:kvg="http://kanjivg.tagaini.net"></path><path class="stroke_order_diagram--existing_path" d="M48.75,14.52c0.87,0.87,0.88,1.86,1,3.11s1.55,14.79,2.06,19.87c0.14,1.45,0.36,2.9,0.49,3.75" id="Ske1ssnd72z" kvg:type="㇑" transform="matrix(1,0,0,1,996,-4)" xmlns:kvg="http://kanjivg.tagaini.net"></path><path class="stroke_order_diagram--existing_path" d="M50.69,15.62c3.43-0.49,17.62-2.5,24.44-3.26c4.13-0.46,6.9-0.2,6.27,4.65c-0.79,6.16-1.82,12.23-2.79,18.55c-0.22,1.42-0.44,2.85-0.65,4.3" id="Ske1ssnd730" kvg:type="㇕a" transform="matrix(1,0,0,1,996,-4)" xmlns:kvg="http://kanjivg.tagaini.net"></path><path class="stroke_order_diagram--existing_path" d="M52.08,27.47C58.75,26.5,73,24.62,79.3,24.44" id="Ske1ssnd731" kvg:type="㇐a" transform="matrix(1,0,0,1,996,-4)" xmlns:kvg="http://kanjivg.tagaini.net"></path><path class="stroke_order_diagram--existing_path" d="M53.19,39.36c8.06-0.73,15.81-1.73,23.85-2.32" id="Ske1ssnd732" kvg:type="㇐a" transform="matrix(1,0,0,1,996,-4)" xmlns:kvg="http://kanjivg.tagaini.net"></path><path class="stroke_order_diagram--existing_path" d="M56.75,42.5c0.05,0.62,0.23,1.65-0.1,2.51c-2.42,6.4-7.18,13.54-16.41,21.74" id="Ske1ssnd733" kvg:type="㇒" transform="matrix(1,0,0,1,996,-4)" xmlns:kvg="http://kanjivg.tagaini.net"></path><path class="stroke_order_diagram--existing_path" d="M56.45,51.35c2.42,0.53,4.9,0.38,6.79,0.07c5.29-0.86,16.92-2.66,22.5-3.43c5.74-0.79,6.89,0.77,6.44,5.64c-0.73,7.87-3.35,23.9-8.39,36.09c-2.91,7.04-5.25,9.01-9.61,4.26" id="Ske1ssnd734" kvg:type="㇆" transform="matrix(1,0,0,1,996,-4)" xmlns:kvg="http://kanjivg.tagaini.net"></path><path class="stroke_order_diagram--existing_path" d="M72.98,60.61c0,1.02-0.48,1.77-1.36,2.51c-3.17,2.69-9.79,5.92-18.71,8.56" id="Ske1ssnd735" kvg:type="㇒" transform="matrix(1,0,0,1,996,-4)" xmlns:kvg="http://kanjivg.tagaini.net"></path><path class="stroke_order_diagram--current_path" d="M49.42,62.3c0.82,0.82,1.13,2.07,1.13,3.18c0,2.67-0.06,4.42-0.06,9.01c0,6.12,1.62,7.57,12.42,7.57c10.83,0,12.04-1.2,12.04-6.81" id="kvg:063b2-s11" kvg:type="㇟" transform="matrix(1,0,0,1,996,-4)" xmlns:kvg="http://kanjivg.tagaini.net"></path><path class="stroke_order_diagram--current_path" d="M49.42,62.3c0.82,0.82,1.13,2.07,1.13,3.18c0,2.67-0.06,4.42-0.06,9.01c0,6.12,1.62,7.57,12.42,7.57c10.83,0,12.04-1.2,12.04-6.81" id="Ske1ssnd737" kvg:type="㇟" transform="matrix(1,0,0,1,996,-4)" xmlns:kvg="http://kanjivg.tagaini.net"></path><circle class="stroke_order_diagram--path_start" cx="49.42" cy="62.3" r="4" transform="matrix(1,0,0,1,996,-4)"></circle></svg>