<svg class="stroke_order_diagram--svg_container_for_51866281d5dda79658000420" style="height: 100px; width: 1200px;" viewbox="0 0 1200 100"><desc>Created with Snap</desc><defs></defs><line class="stroke_order_diagram--bounding_box" x1="1" x2="1199" y1="1" y2="1"></line><line class="stroke_order_diagram--bounding_box" x1="1" x2="1" y1="1" y2="99"></line><line class="stroke_order_diagram--bounding_box" x1="1" x2="1199" y1="99" y2="99"></line><line class="stroke_order_diagram--guide_line" x1="0" x2="1200" y1="50" y2="50"></line><line class="stroke_order_diagram--guide_line" x1="50" x2="50" y1="1" y2="99"></line><line class="stroke_order_diagram--bounding_box" x1="99" x2="99" y1="1" y2="99"></line><path class="stroke_order_diagram--current_path" d="M18.25,30.21c1.89,0.41,3.64,0.35,5.54,0.09c6.46-0.88,19.22-2.83,23.93-3.21c2.15-0.17,3.45,0.13,4.53,0.27" id="kvg:06563-s1" kvg:type="㇐" transform="matrix(1,0,0,1,-4,-4)" xmlns:kvg="http://kanjivg.tagaini.net"></path><path class="stroke_order_diagram--current_path" d="M18.25,30.21c1.89,0.41,3.64,0.35,5.54,0.09c6.46-0.88,19.22-2.83,23.93-3.21c2.15-0.17,3.45,0.13,4.53,0.27" id="Ske1vq227l" kvg:type="㇐" transform="matrix(1,0,0,1,-4,-4)" xmlns:kvg="http://kanjivg.tagaini.net"></path><circle class="stroke_order_diagram--path_start" cx="18.25" cy="30.21" r="4" transform="matrix(1,0,0,1,-4,-4)"></circle><line class="stroke_order_diagram--guide_line" x1="150" x2="150" y1="1" y2="99"></line><line class="stroke_order_diagram--bounding_box" x1="199" x2="199" y1="1" y2="99"></line><path class="stroke_order_diagram--existing_path" d="M18.25,30.21c1.89,0.41,3.64,0.35,5.54,0.09c6.46-0.88,19.22-2.83,23.93-3.21c2.15-0.17,3.45,0.13,4.53,0.27" id="Ske1vq227o" kvg:type="㇐" transform="matrix(1,0,0,1,96,-4)" xmlns:kvg="http://kanjivg.tagaini.net"></path><path class="stroke_order_diagram--current_path" d="M24.5,18.25c1,1,1.46,2.3,1.55,3.27c0.7,7.98,1.35,14.23,1.7,21.23" id="kvg:06563-s2" kvg:type="㇑a" transform="matrix(1,0,0,1,96,-4)" xmlns:kvg="http://kanjivg.tagaini.net"></path><path class="stroke_order_diagram--current_path" d="M24.5,18.25c1,1,1.46,2.3,1.55,3.27c0.7,7.98,1.35,14.23,1.7,21.23" id="Ske1vq227q" kvg:type="㇑a" transform="matrix(1,0,0,1,96,-4)" xmlns:kvg="http://kanjivg.tagaini.net"></path><circle class="stroke_order_diagram--path_start" cx="24.5" cy="18.25" r="4" transform="matrix(1,0,0,1,96,-4)"></circle><line class="stroke_order_diagram--guide_line" x1="250" x2="250" y1="1" y2="99"></line><line class="stroke_order_diagram--bounding_box" x1="299" x2="299" y1="1" y2="99"></line><path class="stroke_order_diagram--existing_path" d="M18.25,30.21c1.89,0.41,3.64,0.35,5.54,0.09c6.46-0.88,19.22-2.83,23.93-3.21c2.15-0.17,3.45,0.13,4.53,0.27" id="Ske1vq227t" kvg:type="㇐" transform="matrix(1,0,0,1,196,-4)" xmlns:kvg="http://kanjivg.tagaini.net"></path><path class="stroke_order_diagram--existing_path" d="M24.5,18.25c1,1,1.46,2.3,1.55,3.27c0.7,7.98,1.35,14.23,1.7,21.23" id="Ske1vq227u" kvg:type="㇑a" transform="matrix(1,0,0,1,196,-4)" xmlns:kvg="http://kanjivg.tagaini.net"></path><path class="stroke_order_diagram--current_path" d="M43.53,15c0.72,1.25,1.06,2.81,0.79,4.43c-1.6,9.55-2.33,14.33-4.07,23.32" id="kvg:06563-s3" kvg:type="㇑a" transform="matrix(1,0,0,1,196,-4)" xmlns:kvg="http://kanjivg.tagaini.net"></path><path class="stroke_order_diagram--current_path" d="M43.53,15c0.72,1.25,1.06,2.81,0.79,4.43c-1.6,9.55-2.33,14.33-4.07,23.32" id="Ske1vq227w" kvg:type="㇑a" transform="matrix(1,0,0,1,196,-4)" xmlns:kvg="http://kanjivg.tagaini.net"></path><circle class="stroke_order_diagram--path_start" cx="43.53" cy="15" r="4" transform="matrix(1,0,0,1,196,-4)"></circle><line class="stroke_order_diagram--guide_line" x1="350" x2="350" y1="1" y2="99"></line><line class="stroke_order_diagram--bounding_box" x1="399" x2="399" y1="1" y2="99"></line><path class="stroke_order_diagram--existing_path" d="M18.25,30.21c1.89,0.41,3.64,0.35,5.54,0.09c6.46-0.88,19.22-2.83,23.93-3.21c2.15-0.17,3.45,0.13,4.53,0.27" id="Ske1vq227z" kvg:type="㇐" transform="matrix(1,0,0,1,296,-4)" xmlns:kvg="http://kanjivg.tagaini.net"></path><path class="stroke_order_diagram--existing_path" d="M24.5,18.25c1,1,1.46,2.3,1.55,3.27c0.7,7.98,1.35,14.23,1.7,21.23" id="Ske1vq22710" kvg:type="㇑a" transform="matrix(1,0,0,1,296,-4)" xmlns:kvg="http://kanjivg.tagaini.net"></path><path class="stroke_order_diagram--existing_path" d="M43.53,15c0.72,1.25,1.06,2.81,0.79,4.43c-1.6,9.55-2.33,14.33-4.07,23.32" id="Ske1vq22711" kvg:type="㇑a" transform="matrix(1,0,0,1,296,-4)" xmlns:kvg="http://kanjivg.tagaini.net"></path><path class="stroke_order_diagram--current_path" d="M11.75,45.23c2.22,0.65,4.37,0.35,6.61,0.07c6.98-0.87,22.8-2.68,28.88-3.21c2.13-0.19,4.15-0.12,6.25,0.25" id="kvg:06563-s4" kvg:type="㇐" transform="matrix(1,0,0,1,296,-4)" xmlns:kvg="http://kanjivg.tagaini.net"></path><path class="stroke_order_diagram--current_path" d="M11.75,45.23c2.22,0.65,4.37,0.35,6.61,0.07c6.98-0.87,22.8-2.68,28.88-3.21c2.13-0.19,4.15-0.12,6.25,0.25" id="Ske1vq22713" kvg:type="㇐" transform="matrix(1,0,0,1,296,-4)" xmlns:kvg="http://kanjivg.tagaini.net"></path><circle class="stroke_order_diagram--path_start" cx="11.75" cy="45.23" r="4" transform="matrix(1,0,0,1,296,-4)"></circle><line class="stroke_order_diagram--guide_line" x1="450" x2="450" y1="1" y2="99"></line><line class="stroke_order_diagram--bounding_box" x1="499" x2="499" y1="1" y2="99"></line><path class="stroke_order_diagram--existing_path" d="M18.25,30.21c1.89,0.41,3.64,0.35,5.54,0.09c6.46-0.88,19.22-2.83,23.93-3.21c2.15-0.17,3.45,0.13,4.53,0.27" id="Ske1vq22716" kvg:type="㇐" transform="matrix(1,0,0,1,396,-4)" xmlns:kvg="http://kanjivg.tagaini.net"></path><path class="stroke_order_diagram--existing_path" d="M24.5,18.25c1,1,1.46,2.3,1.55,3.27c0.7,7.98,1.35,14.23,1.7,21.23" id="Ske1vq22717" kvg:type="㇑a" transform="matrix(1,0,0,1,396,-4)" xmlns:kvg="http://kanjivg.tagaini.net"></path><path class="stroke_order_diagram--existing_path" d="M43.53,15c0.72,1.25,1.06,2.81,0.79,4.43c-1.6,9.55-2.33,14.33-4.07,23.32" id="Ske1vq22718" kvg:type="㇑a" transform="matrix(1,0,0,1,396,-4)" xmlns:kvg="http://kanjivg.tagaini.net"></path><path class="stroke_order_diagram--existing_path" d="M11.75,45.23c2.22,0.65,4.37,0.35,6.61,0.07c6.98-0.87,22.8-2.68,28.88-3.21c2.13-0.19,4.15-0.12,6.25,0.25" id="Ske1vq22719" kvg:type="㇐" transform="matrix(1,0,0,1,396,-4)" xmlns:kvg="http://kanjivg.tagaini.net"></path><path class="stroke_order_diagram--current_path" d="M22.08,53.83c0.8,0.8,1.1,2.05,1.1,3.2c0,0.46-0.03,22.8-0.07,33.22c-0.01,2.94-0.02,4.93-0.04,5.22" id="kvg:06563-s5" kvg:type="㇑/㇒" transform="matrix(1,0,0,1,396,-4)" xmlns:kvg="http://kanjivg.tagaini.net"></path><path class="stroke_order_diagram--current_path" d="M22.08,53.83c0.8,0.8,1.1,2.05,1.1,3.2c0,0.46-0.03,22.8-0.07,33.22c-0.01,2.94-0.02,4.93-0.04,5.22" id="Ske1vq2271b" kvg:type="㇑/㇒" transform="matrix(1,0,0,1,396,-4)" xmlns:kvg="http://kanjivg.tagaini.net"></path><circle class="stroke_order_diagram--path_start" cx="22.08" cy="53.83" r="4" transform="matrix(1,0,0,1,396,-4)"></circle><line class="stroke_order_diagram--guide_line" x1="550" x2="550" y1="1" y2="99"></line><line class="stroke_order_diagram--bounding_box" x1="599" x2="599" y1="1" y2="99"></line><path class="stroke_order_diagram--existing_path" d="M18.25,30.21c1.89,0.41,3.64,0.35,5.54,0.09c6.46-0.88,19.22-2.83,23.93-3.21c2.15-0.17,3.45,0.13,4.53,0.27" id="Ske1vq2271e" kvg:type="㇐" transform="matrix(1,0,0,1,496,-4)" xmlns:kvg="http://kanjivg.tagaini.net"></path><path class="stroke_order_diagram--existing_path" d="M24.5,18.25c1,1,1.46,2.3,1.55,3.27c0.7,7.98,1.35,14.23,1.7,21.23" id="Ske1vq2271f" kvg:type="㇑a" transform="matrix(1,0,0,1,496,-4)" xmlns:kvg="http://kanjivg.tagaini.net"></path><path class="stroke_order_diagram--existing_path" d="M43.53,15c0.72,1.25,1.06,2.81,0.79,4.43c-1.6,9.55-2.33,14.33-4.07,23.32" id="Ske1vq2271g" kvg:type="㇑a" transform="matrix(1,0,0,1,496,-4)" xmlns:kvg="http://kanjivg.tagaini.net"></path><path class="stroke_order_diagram--existing_path" d="M11.75,45.23c2.22,0.65,4.37,0.35,6.61,0.07c6.98-0.87,22.8-2.68,28.88-3.21c2.13-0.19,4.15-0.12,6.25,0.25" id="Ske1vq2271h" kvg:type="㇐" transform="matrix(1,0,0,1,496,-4)" xmlns:kvg="http://kanjivg.tagaini.net"></path><path class="stroke_order_diagram--existing_path" d="M22.08,53.83c0.8,0.8,1.1,2.05,1.1,3.2c0,0.46-0.03,22.8-0.07,33.22c-0.01,2.94-0.02,4.93-0.04,5.22" id="Ske1vq2271i" kvg:type="㇑/㇒" transform="matrix(1,0,0,1,496,-4)" xmlns:kvg="http://kanjivg.tagaini.net"></path><path class="stroke_order_diagram--current_path" d="M23.78,55.14c1.49-0.12,13.32-1.96,17.22-2.54c3.52-0.52,3.85,1.22,3.85,4.14c0,6-0.06,23.54-0.06,33.35c0,5.04-2.16,4.52-5.83-0.22" id="kvg:06563-s6" kvg:type="㇆a" transform="matrix(1,0,0,1,496,-4)" xmlns:kvg="http://kanjivg.tagaini.net"></path><path class="stroke_order_diagram--current_path" d="M23.78,55.14c1.49-0.12,13.32-1.96,17.22-2.54c3.52-0.52,3.85,1.22,3.85,4.14c0,6-0.06,23.54-0.06,33.35c0,5.04-2.16,4.52-5.83-0.22" id="Ske1vq2271k" kvg:type="㇆a" transform="matrix(1,0,0,1,496,-4)" xmlns:kvg="http://kanjivg.tagaini.net"></path><circle class="stroke_order_diagram--path_start" cx="23.78" cy="55.14" r="4" transform="matrix(1,0,0,1,496,-4)"></circle><line class="stroke_order_diagram--guide_line" x1="650" x2="650" y1="1" y2="99"></line><line class="stroke_order_diagram--bounding_box" x1="699" x2="699" y1="1" y2="99"></line><path class="stroke_order_diagram--existing_path" d="M18.25,30.21c1.89,0.41,3.64,0.35,5.54,0.09c6.46-0.88,19.22-2.83,23.93-3.21c2.15-0.17,3.45,0.13,4.53,0.27" id="Ske1vq2271n" kvg:type="㇐" transform="matrix(1,0,0,1,596,-4)" xmlns:kvg="http://kanjivg.tagaini.net"></path><path class="stroke_order_diagram--existing_path" d="M24.5,18.25c1,1,1.46,2.3,1.55,3.27c0.7,7.98,1.35,14.23,1.7,21.23" id="Ske1vq2271o" kvg:type="㇑a" transform="matrix(1,0,0,1,596,-4)" xmlns:kvg="http://kanjivg.tagaini.net"></path><path class="stroke_order_diagram--existing_path" d="M43.53,15c0.72,1.25,1.06,2.81,0.79,4.43c-1.6,9.55-2.33,14.33-4.07,23.32" id="Ske1vq2271p" kvg:type="㇑a" transform="matrix(1,0,0,1,596,-4)" xmlns:kvg="http://kanjivg.tagaini.net"></path><path class="stroke_order_diagram--existing_path" d="M11.75,45.23c2.22,0.65,4.37,0.35,6.61,0.07c6.98-0.87,22.8-2.68,28.88-3.21c2.13-0.19,4.15-0.12,6.25,0.25" id="Ske1vq2271q" kvg:type="㇐" transform="matrix(1,0,0,1,596,-4)" xmlns:kvg="http://kanjivg.tagaini.net"></path><path class="stroke_order_diagram--existing_path" d="M22.08,53.83c0.8,0.8,1.1,2.05,1.1,3.2c0,0.46-0.03,22.8-0.07,33.22c-0.01,2.94-0.02,4.93-0.04,5.22" id="Ske1vq2271r" kvg:type="㇑/㇒" transform="matrix(1,0,0,1,596,-4)" xmlns:kvg="http://kanjivg.tagaini.net"></path><path class="stroke_order_diagram--existing_path" d="M23.78,55.14c1.49-0.12,13.32-1.96,17.22-2.54c3.52-0.52,3.85,1.22,3.85,4.14c0,6-0.06,23.54-0.06,33.35c0,5.04-2.16,4.52-5.83-0.22" id="Ske1vq2271s" kvg:type="㇆a" transform="matrix(1,0,0,1,596,-4)" xmlns:kvg="http://kanjivg.tagaini.net"></path><path class="stroke_order_diagram--current_path" d="M24.28,65.57c5.82-0.85,14.08-1.88,19.19-2.3" id="kvg:06563-s7" kvg:type="㇐a" transform="matrix(1,0,0,1,596,-4)" xmlns:kvg="http://kanjivg.tagaini.net"></path><path class="stroke_order_diagram--current_path" d="M24.28,65.57c5.82-0.85,14.08-1.88,19.19-2.3" id="Ske1vq2271u" kvg:type="㇐a" transform="matrix(1,0,0,1,596,-4)" xmlns:kvg="http://kanjivg.tagaini.net"></path><circle class="stroke_order_diagram--path_start" cx="24.28" cy="65.57" r="4" transform="matrix(1,0,0,1,596,-4)"></circle><line class="stroke_order_diagram--guide_line" x1="750" x2="750" y1="1" y2="99"></line><line class="stroke_order_diagram--bounding_box" x1="799" x2="799" y1="1" y2="99"></line><path class="stroke_order_diagram--existing_path" d="M18.25,30.21c1.89,0.41,3.64,0.35,5.54,0.09c6.46-0.88,19.22-2.83,23.93-3.21c2.15-0.17,3.45,0.13,4.53,0.27" id="Ske1vq2271x" kvg:type="㇐" transform="matrix(1,0,0,1,696,-4)" xmlns:kvg="http://kanjivg.tagaini.net"></path><path class="stroke_order_diagram--existing_path" d="M24.5,18.25c1,1,1.46,2.3,1.55,3.27c0.7,7.98,1.35,14.23,1.7,21.23" id="Ske1vq2271y" kvg:type="㇑a" transform="matrix(1,0,0,1,696,-4)" xmlns:kvg="http://kanjivg.tagaini.net"></path><path class="stroke_order_diagram--existing_path" d="M43.53,15c0.72,1.25,1.06,2.81,0.79,4.43c-1.6,9.55-2.33,14.33-4.07,23.32" id="Ske1vq2271z" kvg:type="㇑a" transform="matrix(1,0,0,1,696,-4)" xmlns:kvg="http://kanjivg.tagaini.net"></path><path class="stroke_order_diagram--existing_path" d="M11.75,45.23c2.22,0.65,4.37,0.35,6.61,0.07c6.98-0.87,22.8-2.68,28.88-3.21c2.13-0.19,4.15-0.12,6.25,0.25" id="Ske1vq22720" kvg:type="㇐" transform="matrix(1,0,0,1,696,-4)" xmlns:kvg="http://kanjivg.tagaini.net"></path><path class="stroke_order_diagram--existing_path" d="M22.08,53.83c0.8,0.8,1.1,2.05,1.1,3.2c0,0.46-0.03,22.8-0.07,33.22c-0.01,2.94-0.02,4.93-0.04,5.22" id="Ske1vq22721" kvg:type="㇑/㇒" transform="matrix(1,0,0,1,696,-4)" xmlns:kvg="http://kanjivg.tagaini.net"></path><path class="stroke_order_diagram--existing_path" d="M23.78,55.14c1.49-0.12,13.32-1.96,17.22-2.54c3.52-0.52,3.85,1.22,3.85,4.14c0,6-0.06,23.54-0.06,33.35c0,5.04-2.16,4.52-5.83-0.22" id="Ske1vq22722" kvg:type="㇆a" transform="matrix(1,0,0,1,696,-4)" xmlns:kvg="http://kanjivg.tagaini.net"></path><path class="stroke_order_diagram--existing_path" d="M24.28,65.57c5.82-0.85,14.08-1.88,19.19-2.3" id="Ske1vq22723" kvg:type="㇐a" transform="matrix(1,0,0,1,696,-4)" xmlns:kvg="http://kanjivg.tagaini.net"></path><path class="stroke_order_diagram--current_path" d="M24.21,77.03c4.54-0.43,14.23-1.7,19.48-1.99" id="kvg:06563-s8" kvg:type="㇐a" transform="matrix(1,0,0,1,696,-4)" xmlns:kvg="http://kanjivg.tagaini.net"></path><path class="stroke_order_diagram--current_path" d="M24.21,77.03c4.54-0.43,14.23-1.7,19.48-1.99" id="Ske1vq22725" kvg:type="㇐a" transform="matrix(1,0,0,1,696,-4)" xmlns:kvg="http://kanjivg.tagaini.net"></path><circle class="stroke_order_diagram--path_start" cx="24.21" cy="77.03" r="4" transform="matrix(1,0,0,1,696,-4)"></circle><line class="stroke_order_diagram--guide_line" x1="850" x2="850" y1="1" y2="99"></line><line class="stroke_order_diagram--bounding_box" x1="899" x2="899" y1="1" y2="99"></line><path class="stroke_order_diagram--existing_path" d="M18.25,30.21c1.89,0.41,3.64,0.35,5.54,0.09c6.46-0.88,19.22-2.83,23.93-3.21c2.15-0.17,3.45,0.13,4.53,0.27" id="Ske1vq22728" kvg:type="㇐" transform="matrix(1,0,0,1,796,-4)" xmlns:kvg="http://kanjivg.tagaini.net"></path><path class="stroke_order_diagram--existing_path" d="M24.5,18.25c1,1,1.46,2.3,1.55,3.27c0.7,7.98,1.35,14.23,1.7,21.23" id="Ske1vq22729" kvg:type="㇑a" transform="matrix(1,0,0,1,796,-4)" xmlns:kvg="http://kanjivg.tagaini.net"></path><path class="stroke_order_diagram--existing_path" d="M43.53,15c0.72,1.25,1.06,2.81,0.79,4.43c-1.6,9.55-2.33,14.33-4.07,23.32" id="Ske1vq2272a" kvg:type="㇑a" transform="matrix(1,0,0,1,796,-4)" xmlns:kvg="http://kanjivg.tagaini.net"></path><path class="stroke_order_diagram--existing_path" d="M11.75,45.23c2.22,0.65,4.37,0.35,6.61,0.07c6.98-0.87,22.8-2.68,28.88-3.21c2.13-0.19,4.15-0.12,6.25,0.25" id="Ske1vq2272b" kvg:type="㇐" transform="matrix(1,0,0,1,796,-4)" xmlns:kvg="http://kanjivg.tagaini.net"></path><path class="stroke_order_diagram--existing_path" d="M22.08,53.83c0.8,0.8,1.1,2.05,1.1,3.2c0,0.46-0.03,22.8-0.07,33.22c-0.01,2.94-0.02,4.93-0.04,5.22" id="Ske1vq2272c" kvg:type="㇑/㇒" transform="matrix(1,0,0,1,796,-4)" xmlns:kvg="http://kanjivg.tagaini.net"></path><path class="stroke_order_diagram--existing_path" d="M23.78,55.14c1.49-0.12,13.32-1.96,17.22-2.54c3.52-0.52,3.85,1.22,3.85,4.14c0,6-0.06,23.54-0.06,33.35c0,5.04-2.16,4.52-5.83-0.22" id="Ske1vq2272d" kvg:type="㇆a" transform="matrix(1,0,0,1,796,-4)" xmlns:kvg="http://kanjivg.tagaini.net"></path><path class="stroke_order_diagram--existing_path" d="M24.28,65.57c5.82-0.85,14.08-1.88,19.19-2.3" id="Ske1vq2272e" kvg:type="㇐a" transform="matrix(1,0,0,1,796,-4)" xmlns:kvg="http://kanjivg.tagaini.net"></path><path class="stroke_order_diagram--existing_path" d="M24.21,77.03c4.54-0.43,14.23-1.7,19.48-1.99" id="Ske1vq2272f" kvg:type="㇐a" transform="matrix(1,0,0,1,796,-4)" xmlns:kvg="http://kanjivg.tagaini.net"></path><path class="stroke_order_diagram--current_path" d="M68.53,17.64c0.34,1.11,0.24,2.47-0.09,3.77c-2.32,9.33-6.69,23.21-15.69,34.83" id="kvg:06563-s9" kvg:type="㇒" transform="matrix(1,0,0,1,796,-4)" xmlns:kvg="http://kanjivg.tagaini.net"></path><path class="stroke_order_diagram--current_path" d="M68.53,17.64c0.34,1.11,0.24,2.47-0.09,3.77c-2.32,9.33-6.69,23.21-15.69,34.83" id="Ske1vq2272h" kvg:type="㇒" transform="matrix(1,0,0,1,796,-4)" xmlns:kvg="http://kanjivg.tagaini.net"></path><circle class="stroke_order_diagram--path_start" cx="68.53" cy="17.64" r="4" transform="matrix(1,0,0,1,796,-4)"></circle><line class="stroke_order_diagram--guide_line" x1="950" x2="950" y1="1" y2="99"></line><line class="stroke_order_diagram--bounding_box" x1="999" x2="999" y1="1" y2="99"></line><path class="stroke_order_diagram--existing_path" d="M18.25,30.21c1.89,0.41,3.64,0.35,5.54,0.09c6.46-0.88,19.22-2.83,23.93-3.21c2.15-0.17,3.45,0.13,4.53,0.27" id="Ske1vq2272k" kvg:type="㇐" transform="matrix(1,0,0,1,896,-4)" xmlns:kvg="http://kanjivg.tagaini.net"></path><path class="stroke_order_diagram--existing_path" d="M24.5,18.25c1,1,1.46,2.3,1.55,3.27c0.7,7.98,1.35,14.23,1.7,21.23" id="Ske1vq2272l" kvg:type="㇑a" transform="matrix(1,0,0,1,896,-4)" xmlns:kvg="http://kanjivg.tagaini.net"></path><path class="stroke_order_diagram--existing_path" d="M43.53,15c0.72,1.25,1.06,2.81,0.79,4.43c-1.6,9.55-2.33,14.33-4.07,23.32" id="Ske1vq2272m" kvg:type="㇑a" transform="matrix(1,0,0,1,896,-4)" xmlns:kvg="http://kanjivg.tagaini.net"></path><path class="stroke_order_diagram--existing_path" d="M11.75,45.23c2.22,0.65,4.37,0.35,6.61,0.07c6.98-0.87,22.8-2.68,28.88-3.21c2.13-0.19,4.15-0.12,6.25,0.25" id="Ske1vq2272n" kvg:type="㇐" transform="matrix(1,0,0,1,896,-4)" xmlns:kvg="http://kanjivg.tagaini.net"></path><path class="stroke_order_diagram--existing_path" d="M22.08,53.83c0.8,0.8,1.1,2.05,1.1,3.2c0,0.46-0.03,22.8-0.07,33.22c-0.01,2.94-0.02,4.93-0.04,5.22" id="Ske1vq2272o" kvg:type="㇑/㇒" transform="matrix(1,0,0,1,896,-4)" xmlns:kvg="http://kanjivg.tagaini.net"></path><path class="stroke_order_diagram--existing_path" d="M23.78,55.14c1.49-0.12,13.32-1.96,17.22-2.54c3.52-0.52,3.85,1.22,3.85,4.14c0,6-0.06,23.54-0.06,33.35c0,5.04-2.16,4.52-5.83-0.22" id="Ske1vq2272p" kvg:type="㇆a" transform="matrix(1,0,0,1,896,-4)" xmlns:kvg="http://kanjivg.tagaini.net"></path><path class="stroke_order_diagram--existing_path" d="M24.28,65.57c5.82-0.85,14.08-1.88,19.19-2.3" id="Ske1vq2272q" kvg:type="㇐a" transform="matrix(1,0,0,1,896,-4)" xmlns:kvg="http://kanjivg.tagaini.net"></path><path class="stroke_order_diagram--existing_path" d="M24.21,77.03c4.54-0.43,14.23-1.7,19.48-1.99" id="Ske1vq2272r" kvg:type="㇐a" transform="matrix(1,0,0,1,896,-4)" xmlns:kvg="http://kanjivg.tagaini.net"></path><path class="stroke_order_diagram--existing_path" d="M68.53,17.64c0.34,1.11,0.24,2.47-0.09,3.77c-2.32,9.33-6.69,23.21-15.69,34.83" id="Ske1vq2272s" kvg:type="㇒" transform="matrix(1,0,0,1,896,-4)" xmlns:kvg="http://kanjivg.tagaini.net"></path><path class="stroke_order_diagram--current_path" d="M66.82,39.02c1.56,0.11,2.6-0.02,3.25-0.1c3.12-0.38,14.06-2.54,18.93-3.67c1.12-0.26,3.25-0.38,4.31-0.1" id="kvg:06563-s10" kvg:type="㇐" transform="matrix(1,0,0,1,896,-4)" xmlns:kvg="http://kanjivg.tagaini.net"></path><path class="stroke_order_diagram--current_path" d="M66.82,39.02c1.56,0.11,2.6-0.02,3.25-0.1c3.12-0.38,14.06-2.54,18.93-3.67c1.12-0.26,3.25-0.38,4.31-0.1" id="Ske1vq2272u" kvg:type="㇐" transform="matrix(1,0,0,1,896,-4)" xmlns:kvg="http://kanjivg.tagaini.net"></path><circle class="stroke_order_diagram--path_start" cx="66.82" cy="39.02" r="4" transform="matrix(1,0,0,1,896,-4)"></circle><line class="stroke_order_diagram--guide_line" x1="1050" x2="1050" y1="1" y2="99"></line><line class="stroke_order_diagram--bounding_box" x1="1099" x2="1099" y1="1" y2="99"></line><path class="stroke_order_diagram--existing_path" d="M18.25,30.21c1.89,0.41,3.64,0.35,5.54,0.09c6.46-0.88,19.22-2.83,23.93-3.21c2.15-0.17,3.45,0.13,4.53,0.27" id="Ske1vq2272x" kvg:type="㇐" transform="matrix(1,0,0,1,996,-4)" xmlns:kvg="http://kanjivg.tagaini.net"></path><path class="stroke_order_diagram--existing_path" d="M24.5,18.25c1,1,1.46,2.3,1.55,3.27c0.7,7.98,1.35,14.23,1.7,21.23" id="Ske1vq2272y" kvg:type="㇑a" transform="matrix(1,0,0,1,996,-4)" xmlns:kvg="http://kanjivg.tagaini.net"></path><path class="stroke_order_diagram--existing_path" d="M43.53,15c0.72,1.25,1.06,2.81,0.79,4.43c-1.6,9.55-2.33,14.33-4.07,23.32" id="Ske1vq2272z" kvg:type="㇑a" transform="matrix(1,0,0,1,996,-4)" xmlns:kvg="http://kanjivg.tagaini.net"></path><path class="stroke_order_diagram--existing_path" d="M11.75,45.23c2.22,0.65,4.37,0.35,6.61,0.07c6.98-0.87,22.8-2.68,28.88-3.21c2.13-0.19,4.15-0.12,6.25,0.25" id="Ske1vq22730" kvg:type="㇐" transform="matrix(1,0,0,1,996,-4)" xmlns:kvg="http://kanjivg.tagaini.net"></path><path class="stroke_order_diagram--existing_path" d="M22.08,53.83c0.8,0.8,1.1,2.05,1.1,3.2c0,0.46-0.03,22.8-0.07,33.22c-0.01,2.94-0.02,4.93-0.04,5.22" id="Ske1vq22731" kvg:type="㇑/㇒" transform="matrix(1,0,0,1,996,-4)" xmlns:kvg="http://kanjivg.tagaini.net"></path><path class="stroke_order_diagram--existing_path" d="M23.78,55.14c1.49-0.12,13.32-1.96,17.22-2.54c3.52-0.52,3.85,1.22,3.85,4.14c0,6-0.06,23.54-0.06,33.35c0,5.04-2.16,4.52-5.83-0.22" id="Ske1vq22732" kvg:type="㇆a" transform="matrix(1,0,0,1,996,-4)" xmlns:kvg="http://kanjivg.tagaini.net"></path><path class="stroke_order_diagram--existing_path" d="M24.28,65.57c5.82-0.85,14.08-1.88,19.19-2.3" id="Ske1vq22733" kvg:type="㇐a" transform="matrix(1,0,0,1,996,-4)" xmlns:kvg="http://kanjivg.tagaini.net"></path><path class="stroke_order_diagram--existing_path" d="M24.21,77.03c4.54-0.43,14.23-1.7,19.48-1.99" id="Ske1vq22734" kvg:type="㇐a" transform="matrix(1,0,0,1,996,-4)" xmlns:kvg="http://kanjivg.tagaini.net"></path><path class="stroke_order_diagram--existing_path" d="M68.53,17.64c0.34,1.11,0.24,2.47-0.09,3.77c-2.32,9.33-6.69,23.21-15.69,34.83" id="Ske1vq22735" kvg:type="㇒" transform="matrix(1,0,0,1,996,-4)" xmlns:kvg="http://kanjivg.tagaini.net"></path><path class="stroke_order_diagram--existing_path" d="M66.82,39.02c1.56,0.11,2.6-0.02,3.25-0.1c3.12-0.38,14.06-2.54,18.93-3.67c1.12-0.26,3.25-0.38,4.31-0.1" id="Ske1vq22736" kvg:type="㇐" transform="matrix(1,0,0,1,996,-4)" xmlns:kvg="http://kanjivg.tagaini.net"></path><path class="stroke_order_diagram--current_path" d="M79.54,41.43c0.48,1.31,0.74,2.99,0.24,5.39c-4.54,21.73-14.81,38.81-29.81,47.93" id="kvg:06563-s11" kvg:type="㇒" transform="matrix(1,0,0,1,996,-4)" xmlns:kvg="http://kanjivg.tagaini.net"></path><path class="stroke_order_diagram--current_path" d="M79.54,41.43c0.48,1.31,0.74,2.99,0.24,5.39c-4.54,21.73-14.81,38.81-29.81,47.93" id="Ske1vq22738" kvg:type="㇒" transform="matrix(1,0,0,1,996,-4)" xmlns:kvg="http://kanjivg.tagaini.net"></path><circle class="stroke_order_diagram--path_start" cx="79.54" cy="41.43" r="4" transform="matrix(1,0,0,1,996,-4)"></circle><line class="stroke_order_diagram--guide_line" x1="1150" x2="1150" y1="1" y2="99"></line><line class="stroke_order_diagram--bounding_box" x1="1199" x2="1199" y1="1" y2="99"></line><path class="stroke_order_diagram--existing_path" d="M18.25,30.21c1.89,0.41,3.64,0.35,5.54,0.09c6.46-0.88,19.22-2.83,23.93-3.21c2.15-0.17,3.45,0.13,4.53,0.27" id="Ske1vq2273b" kvg:type="㇐" transform="matrix(1,0,0,1,1096,-4)" xmlns:kvg="http://kanjivg.tagaini.net"></path><path class="stroke_order_diagram--existing_path" d="M24.5,18.25c1,1,1.46,2.3,1.55,3.27c0.7,7.98,1.35,14.23,1.7,21.23" id="Ske1vq2273c" kvg:type="㇑a" transform="matrix(1,0,0,1,1096,-4)" xmlns:kvg="http://kanjivg.tagaini.net"></path><path class="stroke_order_diagram--existing_path" d="M43.53,15c0.72,1.25,1.06,2.81,0.79,4.43c-1.6,9.55-2.33,14.33-4.07,23.32" id="Ske1vq2273d" kvg:type="㇑a" transform="matrix(1,0,0,1,1096,-4)" xmlns:kvg="http://kanjivg.tagaini.net"></path><path class="stroke_order_diagram--existing_path" d="M11.75,45.23c2.22,0.65,4.37,0.35,6.61,0.07c6.98-0.87,22.8-2.68,28.88-3.21c2.13-0.19,4.15-0.12,6.25,0.25" id="Ske1vq2273e" kvg:type="㇐" transform="matrix(1,0,0,1,1096,-4)" xmlns:kvg="http://kanjivg.tagaini.net"></path><path class="stroke_order_diagram--existing_path" d="M22.08,53.83c0.8,0.8,1.1,2.05,1.1,3.2c0,0.46-0.03,22.8-0.07,33.22c-0.01,2.94-0.02,4.93-0.04,5.22" id="Ske1vq2273f" kvg:type="㇑/㇒" transform="matrix(1,0,0,1,1096,-4)" xmlns:kvg="http://kanjivg.tagaini.net"></path><path class="stroke_order_diagram--existing_path" d="M23.78,55.14c1.49-0.12,13.32-1.96,17.22-2.54c3.52-0.52,3.85,1.22,3.85,4.14c0,6-0.06,23.54-0.06,33.35c0,5.04-2.16,4.52-5.83-0.22" id="Ske1vq2273g" kvg:type="㇆a" transform="matrix(1,0,0,1,1096,-4)" xmlns:kvg="http://kanjivg.tagaini.net"></path><path class="stroke_order_diagram--existing_path" d="M24.28,65.57c5.82-0.85,14.08-1.88,19.19-2.3" id="Ske1vq2273h" kvg:type="㇐a" transform="matrix(1,0,0,1,1096,-4)" xmlns:kvg="http://kanjivg.tagaini.net"></path><path class="stroke_order_diagram--existing_path" d="M24.21,77.03c4.54-0.43,14.23-1.7,19.48-1.99" id="Ske1vq2273i" kvg:type="㇐a" transform="matrix(1,0,0,1,1096,-4)" xmlns:kvg="http://kanjivg.tagaini.net"></path><path class="stroke_order_diagram--existing_path" d="M68.53,17.64c0.34,1.11,0.24,2.47-0.09,3.77c-2.32,9.33-6.69,23.21-15.69,34.83" id="Ske1vq2273j" kvg:type="㇒" transform="matrix(1,0,0,1,1096,-4)" xmlns:kvg="http://kanjivg.tagaini.net"></path><path class="stroke_order_diagram--existing_path" d="M66.82,39.02c1.56,0.11,2.6-0.02,3.25-0.1c3.12-0.38,14.06-2.54,18.93-3.67c1.12-0.26,3.25-0.38,4.31-0.1" id="Ske1vq2273k" kvg:type="㇐" transform="matrix(1,0,0,1,1096,-4)" xmlns:kvg="http://kanjivg.tagaini.net"></path><path class="stroke_order_diagram--existing_path" d="M79.54,41.43c0.48,1.31,0.74,2.99,0.24,5.39c-4.54,21.73-14.81,38.81-29.81,47.93" id="Ske1vq2273l" kvg:type="㇒" transform="matrix(1,0,0,1,1096,-4)" xmlns:kvg="http://kanjivg.tagaini.net"></path><path class="stroke_order_diagram--current_path" d="M57.98,51.64c2.89,1.11,19.29,26.49,29.08,36.66c2.29,2.37,4.44,4.07,7.56,5.32" id="kvg:06563-s12" kvg:type="㇏" transform="matrix(1,0,0,1,1096,-4)" xmlns:kvg="http://kanjivg.tagaini.net"></path><path class="stroke_order_diagram--current_path" d="M57.98,51.64c2.89,1.11,19.29,26.49,29.08,36.66c2.29,2.37,4.44,4.07,7.56,5.32" id="Ske1vq2273n" kvg:type="㇏" transform="matrix(1,0,0,1,1096,-4)" xmlns:kvg="http://kanjivg.tagaini.net"></path><circle class="stroke_order_diagram--path_start" cx="57.98" cy="51.64" r="4" transform="matrix(1,0,0,1,1096,-4)"></circle></svg>