<svg class="stroke_order_diagram--svg_container_for_51866288d5dda79658000606" style="height: 100px; width: 800px;" viewbox="0 0 800 100"><desc>Created with Snap</desc><defs></defs><line class="stroke_order_diagram--bounding_box" x1="1" x2="799" y1="1" y2="1"></line><line class="stroke_order_diagram--bounding_box" x1="1" x2="1" y1="1" y2="99"></line><line class="stroke_order_diagram--bounding_box" x1="1" x2="799" y1="99" y2="99"></line><line class="stroke_order_diagram--guide_line" x1="0" x2="800" y1="50" y2="50"></line><line class="stroke_order_diagram--guide_line" x1="50" x2="50" y1="1" y2="99"></line><line class="stroke_order_diagram--bounding_box" x1="99" x2="99" y1="1" y2="99"></line><path class="stroke_order_diagram--current_path" d="M52.29,10.5c1.17,1.17,1.64,2.5,1.64,4.37c0,1.63-0.06,4.63-0.06,6" id="kvg:06589-s1" kvg:type="㇑a" transform="matrix(1,0,0,1,-4,-4)" xmlns:kvg="http://kanjivg.tagaini.net"></path><path class="stroke_order_diagram--current_path" d="M52.29,10.5c1.17,1.17,1.64,2.5,1.64,4.37c0,1.63-0.06,4.63-0.06,6" id="Ske1zqeyuh" kvg:type="㇑a" transform="matrix(1,0,0,1,-4,-4)" xmlns:kvg="http://kanjivg.tagaini.net"></path><circle class="stroke_order_diagram--path_start" cx="52.29" cy="10.5" r="4" transform="matrix(1,0,0,1,-4,-4)"></circle><line class="stroke_order_diagram--guide_line" x1="150" x2="150" y1="1" y2="99"></line><line class="stroke_order_diagram--bounding_box" x1="199" x2="199" y1="1" y2="99"></line><path class="stroke_order_diagram--existing_path" d="M52.29,10.5c1.17,1.17,1.64,2.5,1.64,4.37c0,1.63-0.06,4.63-0.06,6" id="Ske1zqeyuk" kvg:type="㇑a" transform="matrix(1,0,0,1,96,-4)" xmlns:kvg="http://kanjivg.tagaini.net"></path><path class="stroke_order_diagram--current_path" d="M21.16,23.97c3.46,0.4,5.85,0.25,8.97,0.04c11.62-0.81,35.96-2.88,49.36-3.49c2.88-0.13,5.5-0.15,8.83,0.76" id="kvg:06589-s2" kvg:type="㇐" transform="matrix(1,0,0,1,96,-4)" xmlns:kvg="http://kanjivg.tagaini.net"></path><path class="stroke_order_diagram--current_path" d="M21.16,23.97c3.46,0.4,5.85,0.25,8.97,0.04c11.62-0.81,35.96-2.88,49.36-3.49c2.88-0.13,5.5-0.15,8.83,0.76" id="Ske1zqeyum" kvg:type="㇐" transform="matrix(1,0,0,1,96,-4)" xmlns:kvg="http://kanjivg.tagaini.net"></path><circle class="stroke_order_diagram--path_start" cx="21.16" cy="23.97" r="4" transform="matrix(1,0,0,1,96,-4)"></circle><line class="stroke_order_diagram--guide_line" x1="250" x2="250" y1="1" y2="99"></line><line class="stroke_order_diagram--bounding_box" x1="299" x2="299" y1="1" y2="99"></line><path class="stroke_order_diagram--existing_path" d="M52.29,10.5c1.17,1.17,1.64,2.5,1.64,4.37c0,1.63-0.06,4.63-0.06,6" id="Ske1zqeyup" kvg:type="㇑a" transform="matrix(1,0,0,1,196,-4)" xmlns:kvg="http://kanjivg.tagaini.net"></path><path class="stroke_order_diagram--existing_path" d="M21.16,23.97c3.46,0.4,5.85,0.25,8.97,0.04c11.62-0.81,35.96-2.88,49.36-3.49c2.88-0.13,5.5-0.15,8.83,0.76" id="Ske1zqeyuq" kvg:type="㇐" transform="matrix(1,0,0,1,196,-4)" xmlns:kvg="http://kanjivg.tagaini.net"></path><path class="stroke_order_diagram--current_path" d="M67.09,24.5c-0.09,1.25-0.56,2.13-1.68,3.23C55.25,37.75,38.25,49.12,15.87,55" id="kvg:06589-s3" kvg:type="㇒" transform="matrix(1,0,0,1,196,-4)" xmlns:kvg="http://kanjivg.tagaini.net"></path><path class="stroke_order_diagram--current_path" d="M67.09,24.5c-0.09,1.25-0.56,2.13-1.68,3.23C55.25,37.75,38.25,49.12,15.87,55" id="Ske1zqeyus" kvg:type="㇒" transform="matrix(1,0,0,1,196,-4)" xmlns:kvg="http://kanjivg.tagaini.net"></path><circle class="stroke_order_diagram--path_start" cx="67.09" cy="24.5" r="4" transform="matrix(1,0,0,1,196,-4)"></circle><line class="stroke_order_diagram--guide_line" x1="350" x2="350" y1="1" y2="99"></line><line class="stroke_order_diagram--bounding_box" x1="399" x2="399" y1="1" y2="99"></line><path class="stroke_order_diagram--existing_path" d="M52.29,10.5c1.17,1.17,1.64,2.5,1.64,4.37c0,1.63-0.06,4.63-0.06,6" id="Ske1zqeyuv" kvg:type="㇑a" transform="matrix(1,0,0,1,296,-4)" xmlns:kvg="http://kanjivg.tagaini.net"></path><path class="stroke_order_diagram--existing_path" d="M21.16,23.97c3.46,0.4,5.85,0.25,8.97,0.04c11.62-0.81,35.96-2.88,49.36-3.49c2.88-0.13,5.5-0.15,8.83,0.76" id="Ske1zqeyuw" kvg:type="㇐" transform="matrix(1,0,0,1,296,-4)" xmlns:kvg="http://kanjivg.tagaini.net"></path><path class="stroke_order_diagram--existing_path" d="M67.09,24.5c-0.09,1.25-0.56,2.13-1.68,3.23C55.25,37.75,38.25,49.12,15.87,55" id="Ske1zqeyux" kvg:type="㇒" transform="matrix(1,0,0,1,296,-4)" xmlns:kvg="http://kanjivg.tagaini.net"></path><path class="stroke_order_diagram--current_path" d="M35.07,25.83c13.22,5.84,29.67,15.46,45.78,22.25c3.98,1.68,7.95,3.28,12.24,3.93" id="kvg:06589-s4" kvg:type="㇏" transform="matrix(1,0,0,1,296,-4)" xmlns:kvg="http://kanjivg.tagaini.net"></path><path class="stroke_order_diagram--current_path" d="M35.07,25.83c13.22,5.84,29.67,15.46,45.78,22.25c3.98,1.68,7.95,3.28,12.24,3.93" id="Ske1zqeyuz" kvg:type="㇏" transform="matrix(1,0,0,1,296,-4)" xmlns:kvg="http://kanjivg.tagaini.net"></path><circle class="stroke_order_diagram--path_start" cx="35.07" cy="25.83" r="4" transform="matrix(1,0,0,1,296,-4)"></circle><line class="stroke_order_diagram--guide_line" x1="450" x2="450" y1="1" y2="99"></line><line class="stroke_order_diagram--bounding_box" x1="499" x2="499" y1="1" y2="99"></line><path class="stroke_order_diagram--existing_path" d="M52.29,10.5c1.17,1.17,1.64,2.5,1.64,4.37c0,1.63-0.06,4.63-0.06,6" id="Ske1zqeyu12" kvg:type="㇑a" transform="matrix(1,0,0,1,396,-4)" xmlns:kvg="http://kanjivg.tagaini.net"></path><path class="stroke_order_diagram--existing_path" d="M21.16,23.97c3.46,0.4,5.85,0.25,8.97,0.04c11.62-0.81,35.96-2.88,49.36-3.49c2.88-0.13,5.5-0.15,8.83,0.76" id="Ske1zqeyu13" kvg:type="㇐" transform="matrix(1,0,0,1,396,-4)" xmlns:kvg="http://kanjivg.tagaini.net"></path><path class="stroke_order_diagram--existing_path" d="M67.09,24.5c-0.09,1.25-0.56,2.13-1.68,3.23C55.25,37.75,38.25,49.12,15.87,55" id="Ske1zqeyu14" kvg:type="㇒" transform="matrix(1,0,0,1,396,-4)" xmlns:kvg="http://kanjivg.tagaini.net"></path><path class="stroke_order_diagram--existing_path" d="M35.07,25.83c13.22,5.84,29.67,15.46,45.78,22.25c3.98,1.68,7.95,3.28,12.24,3.93" id="Ske1zqeyu15" kvg:type="㇏" transform="matrix(1,0,0,1,396,-4)" xmlns:kvg="http://kanjivg.tagaini.net"></path><path class="stroke_order_diagram--current_path" d="M33.75,53.25c0.81,0.81,1.2,2.13,1.25,3.5c0.88,22.87-2.38,32.62-11.25,40.75" id="kvg:06589-s5" kvg:type="㇒" transform="matrix(1,0,0,1,396,-4)" xmlns:kvg="http://kanjivg.tagaini.net"></path><path class="stroke_order_diagram--current_path" d="M33.75,53.25c0.81,0.81,1.2,2.13,1.25,3.5c0.88,22.87-2.38,32.62-11.25,40.75" id="Ske1zqeyu17" kvg:type="㇒" transform="matrix(1,0,0,1,396,-4)" xmlns:kvg="http://kanjivg.tagaini.net"></path><circle class="stroke_order_diagram--path_start" cx="33.75" cy="53.25" r="4" transform="matrix(1,0,0,1,396,-4)"></circle><line class="stroke_order_diagram--guide_line" x1="550" x2="550" y1="1" y2="99"></line><line class="stroke_order_diagram--bounding_box" x1="599" x2="599" y1="1" y2="99"></line><path class="stroke_order_diagram--existing_path" d="M52.29,10.5c1.17,1.17,1.64,2.5,1.64,4.37c0,1.63-0.06,4.63-0.06,6" id="Ske1zqeyu1a" kvg:type="㇑a" transform="matrix(1,0,0,1,496,-4)" xmlns:kvg="http://kanjivg.tagaini.net"></path><path class="stroke_order_diagram--existing_path" d="M21.16,23.97c3.46,0.4,5.85,0.25,8.97,0.04c11.62-0.81,35.96-2.88,49.36-3.49c2.88-0.13,5.5-0.15,8.83,0.76" id="Ske1zqeyu1b" kvg:type="㇐" transform="matrix(1,0,0,1,496,-4)" xmlns:kvg="http://kanjivg.tagaini.net"></path><path class="stroke_order_diagram--existing_path" d="M67.09,24.5c-0.09,1.25-0.56,2.13-1.68,3.23C55.25,37.75,38.25,49.12,15.87,55" id="Ske1zqeyu1c" kvg:type="㇒" transform="matrix(1,0,0,1,496,-4)" xmlns:kvg="http://kanjivg.tagaini.net"></path><path class="stroke_order_diagram--existing_path" d="M35.07,25.83c13.22,5.84,29.67,15.46,45.78,22.25c3.98,1.68,7.95,3.28,12.24,3.93" id="Ske1zqeyu1d" kvg:type="㇏" transform="matrix(1,0,0,1,496,-4)" xmlns:kvg="http://kanjivg.tagaini.net"></path><path class="stroke_order_diagram--existing_path" d="M33.75,53.25c0.81,0.81,1.2,2.13,1.25,3.5c0.88,22.87-2.38,32.62-11.25,40.75" id="Ske1zqeyu1e" kvg:type="㇒" transform="matrix(1,0,0,1,496,-4)" xmlns:kvg="http://kanjivg.tagaini.net"></path><path class="stroke_order_diagram--current_path" d="M36.25,60.25c10.82-0.58,28.25-1.71,37.75-2" id="kvg:06589-s6" kvg:type="㇐a" transform="matrix(1,0,0,1,496,-4)" xmlns:kvg="http://kanjivg.tagaini.net"></path><path class="stroke_order_diagram--current_path" d="M36.25,60.25c10.82-0.58,28.25-1.71,37.75-2" id="Ske1zqeyu1g" kvg:type="㇐a" transform="matrix(1,0,0,1,496,-4)" xmlns:kvg="http://kanjivg.tagaini.net"></path><circle class="stroke_order_diagram--path_start" cx="36.25" cy="60.25" r="4" transform="matrix(1,0,0,1,496,-4)"></circle><line class="stroke_order_diagram--guide_line" x1="650" x2="650" y1="1" y2="99"></line><line class="stroke_order_diagram--bounding_box" x1="699" x2="699" y1="1" y2="99"></line><path class="stroke_order_diagram--existing_path" d="M52.29,10.5c1.17,1.17,1.64,2.5,1.64,4.37c0,1.63-0.06,4.63-0.06,6" id="Ske1zqeyu1j" kvg:type="㇑a" transform="matrix(1,0,0,1,596,-4)" xmlns:kvg="http://kanjivg.tagaini.net"></path><path class="stroke_order_diagram--existing_path" d="M21.16,23.97c3.46,0.4,5.85,0.25,8.97,0.04c11.62-0.81,35.96-2.88,49.36-3.49c2.88-0.13,5.5-0.15,8.83,0.76" id="Ske1zqeyu1k" kvg:type="㇐" transform="matrix(1,0,0,1,596,-4)" xmlns:kvg="http://kanjivg.tagaini.net"></path><path class="stroke_order_diagram--existing_path" d="M67.09,24.5c-0.09,1.25-0.56,2.13-1.68,3.23C55.25,37.75,38.25,49.12,15.87,55" id="Ske1zqeyu1l" kvg:type="㇒" transform="matrix(1,0,0,1,596,-4)" xmlns:kvg="http://kanjivg.tagaini.net"></path><path class="stroke_order_diagram--existing_path" d="M35.07,25.83c13.22,5.84,29.67,15.46,45.78,22.25c3.98,1.68,7.95,3.28,12.24,3.93" id="Ske1zqeyu1m" kvg:type="㇏" transform="matrix(1,0,0,1,596,-4)" xmlns:kvg="http://kanjivg.tagaini.net"></path><path class="stroke_order_diagram--existing_path" d="M33.75,53.25c0.81,0.81,1.2,2.13,1.25,3.5c0.88,22.87-2.38,32.62-11.25,40.75" id="Ske1zqeyu1n" kvg:type="㇒" transform="matrix(1,0,0,1,596,-4)" xmlns:kvg="http://kanjivg.tagaini.net"></path><path class="stroke_order_diagram--existing_path" d="M36.25,60.25c10.82-0.58,28.25-1.71,37.75-2" id="Ske1zqeyu1o" kvg:type="㇐a" transform="matrix(1,0,0,1,596,-4)" xmlns:kvg="http://kanjivg.tagaini.net"></path><path class="stroke_order_diagram--current_path" d="M35.75,74.49c8.58-0.37,28.08-1.48,38-1.72" id="kvg:06589-s7" kvg:type="㇐a" transform="matrix(1,0,0,1,596,-4)" xmlns:kvg="http://kanjivg.tagaini.net"></path><path class="stroke_order_diagram--current_path" d="M35.75,74.49c8.58-0.37,28.08-1.48,38-1.72" id="Ske1zqeyu1q" kvg:type="㇐a" transform="matrix(1,0,0,1,596,-4)" xmlns:kvg="http://kanjivg.tagaini.net"></path><circle class="stroke_order_diagram--path_start" cx="35.75" cy="74.49" r="4" transform="matrix(1,0,0,1,596,-4)"></circle><line class="stroke_order_diagram--guide_line" x1="750" x2="750" y1="1" y2="99"></line><line class="stroke_order_diagram--bounding_box" x1="799" x2="799" y1="1" y2="99"></line><path class="stroke_order_diagram--existing_path" d="M52.29,10.5c1.17,1.17,1.64,2.5,1.64,4.37c0,1.63-0.06,4.63-0.06,6" id="Ske1zqeyu1t" kvg:type="㇑a" transform="matrix(1,0,0,1,696,-4)" xmlns:kvg="http://kanjivg.tagaini.net"></path><path class="stroke_order_diagram--existing_path" d="M21.16,23.97c3.46,0.4,5.85,0.25,8.97,0.04c11.62-0.81,35.96-2.88,49.36-3.49c2.88-0.13,5.5-0.15,8.83,0.76" id="Ske1zqeyu1u" kvg:type="㇐" transform="matrix(1,0,0,1,696,-4)" xmlns:kvg="http://kanjivg.tagaini.net"></path><path class="stroke_order_diagram--existing_path" d="M67.09,24.5c-0.09,1.25-0.56,2.13-1.68,3.23C55.25,37.75,38.25,49.12,15.87,55" id="Ske1zqeyu1v" kvg:type="㇒" transform="matrix(1,0,0,1,696,-4)" xmlns:kvg="http://kanjivg.tagaini.net"></path><path class="stroke_order_diagram--existing_path" d="M35.07,25.83c13.22,5.84,29.67,15.46,45.78,22.25c3.98,1.68,7.95,3.28,12.24,3.93" id="Ske1zqeyu1w" kvg:type="㇏" transform="matrix(1,0,0,1,696,-4)" xmlns:kvg="http://kanjivg.tagaini.net"></path><path class="stroke_order_diagram--existing_path" d="M33.75,53.25c0.81,0.81,1.2,2.13,1.25,3.5c0.88,22.87-2.38,32.62-11.25,40.75" id="Ske1zqeyu1x" kvg:type="㇒" transform="matrix(1,0,0,1,696,-4)" xmlns:kvg="http://kanjivg.tagaini.net"></path><path class="stroke_order_diagram--existing_path" d="M36.25,60.25c10.82-0.58,28.25-1.71,37.75-2" id="Ske1zqeyu1y" kvg:type="㇐a" transform="matrix(1,0,0,1,696,-4)" xmlns:kvg="http://kanjivg.tagaini.net"></path><path class="stroke_order_diagram--existing_path" d="M35.75,74.49c8.58-0.37,28.08-1.48,38-1.72" id="Ske1zqeyu1z" kvg:type="㇐a" transform="matrix(1,0,0,1,696,-4)" xmlns:kvg="http://kanjivg.tagaini.net"></path><path class="stroke_order_diagram--current_path" d="M73.75,52.25c1.06,1.06,1.21,2.25,1.21,3.63c0,2.44-0.01,22.62-0.04,34.62c-0.01,4.33-0.03,7.46-0.04,8.09" id="kvg:06589-s8" kvg:type="㇑" transform="matrix(1,0,0,1,696,-4)" xmlns:kvg="http://kanjivg.tagaini.net"></path><path class="stroke_order_diagram--current_path" d="M73.75,52.25c1.06,1.06,1.21,2.25,1.21,3.63c0,2.44-0.01,22.62-0.04,34.62c-0.01,4.33-0.03,7.46-0.04,8.09" id="Ske1zqeyu21" kvg:type="㇑" transform="matrix(1,0,0,1,696,-4)" xmlns:kvg="http://kanjivg.tagaini.net"></path><circle class="stroke_order_diagram--path_start" cx="73.75" cy="52.25" r="4" transform="matrix(1,0,0,1,696,-4)"></circle></svg>