<svg class="stroke_order_diagram--svg_container_for_518662a9d5dda79658000f71" style="height: 100px; width: 1300px;" viewbox="0 0 1300 100"><desc>Created with Snap</desc><defs></defs><line class="stroke_order_diagram--bounding_box" x1="1" x2="1299" y1="1" y2="1"></line><line class="stroke_order_diagram--bounding_box" x1="1" x2="1" y1="1" y2="99"></line><line class="stroke_order_diagram--bounding_box" x1="1" x2="1299" y1="99" y2="99"></line><line class="stroke_order_diagram--guide_line" x1="0" x2="1300" y1="50" y2="50"></line><line class="stroke_order_diagram--guide_line" x1="50" x2="50" y1="1" y2="99"></line><line class="stroke_order_diagram--bounding_box" x1="99" x2="99" y1="1" y2="99"></line><path class="stroke_order_diagram--current_path" d="M13.28,27.91c0.89,0.43,2.53,0.54,3.42,0.43c6.57-0.79,25.8-2.59,37.18-3.54c1.48-0.12,2.38,0.21,3.12,0.42" id="kvg:0659f-s1" kvg:type="㇐" transform="matrix(1,0,0,1,-4,-4)" xmlns:kvg="http://kanjivg.tagaini.net"></path><path class="stroke_order_diagram--current_path" d="M13.28,27.91c0.89,0.43,2.53,0.54,3.42,0.43c6.57-0.79,25.8-2.59,37.18-3.54c1.48-0.12,2.38,0.21,3.12,0.42" id="Ske2ll3htm" kvg:type="㇐" transform="matrix(1,0,0,1,-4,-4)" xmlns:kvg="http://kanjivg.tagaini.net"></path><circle class="stroke_order_diagram--path_start" cx="13.28" cy="27.91" r="4" transform="matrix(1,0,0,1,-4,-4)"></circle><line class="stroke_order_diagram--guide_line" x1="150" x2="150" y1="1" y2="99"></line><line class="stroke_order_diagram--bounding_box" x1="199" x2="199" y1="1" y2="99"></line><path class="stroke_order_diagram--existing_path" d="M13.28,27.91c0.89,0.43,2.53,0.54,3.42,0.43c6.57-0.79,25.8-2.59,37.18-3.54c1.48-0.12,2.38,0.21,3.12,0.42" id="Ske2ll3htp" kvg:type="㇐" transform="matrix(1,0,0,1,96,-4)" xmlns:kvg="http://kanjivg.tagaini.net"></path><path class="stroke_order_diagram--current_path" d="M24.75,15.75c0.78,0.48,1.24,2.16,1.4,3.12c0.16,0.96,0.15,39.18,0.02,44.13" id="kvg:0659f-s2" kvg:type="㇑" transform="matrix(1,0,0,1,96,-4)" xmlns:kvg="http://kanjivg.tagaini.net"></path><path class="stroke_order_diagram--current_path" d="M24.75,15.75c0.78,0.48,1.24,2.16,1.4,3.12c0.16,0.96,0.15,39.18,0.02,44.13" id="Ske2ll3htr" kvg:type="㇑" transform="matrix(1,0,0,1,96,-4)" xmlns:kvg="http://kanjivg.tagaini.net"></path><circle class="stroke_order_diagram--path_start" cx="24.75" cy="15.75" r="4" transform="matrix(1,0,0,1,96,-4)"></circle><line class="stroke_order_diagram--guide_line" x1="250" x2="250" y1="1" y2="99"></line><line class="stroke_order_diagram--bounding_box" x1="299" x2="299" y1="1" y2="99"></line><path class="stroke_order_diagram--existing_path" d="M13.28,27.91c0.89,0.43,2.53,0.54,3.42,0.43c6.57-0.79,25.8-2.59,37.18-3.54c1.48-0.12,2.38,0.21,3.12,0.42" id="Ske2ll3htu" kvg:type="㇐" transform="matrix(1,0,0,1,196,-4)" xmlns:kvg="http://kanjivg.tagaini.net"></path><path class="stroke_order_diagram--existing_path" d="M24.75,15.75c0.78,0.48,1.24,2.16,1.4,3.12c0.16,0.96,0.15,39.18,0.02,44.13" id="Ske2ll3htv" kvg:type="㇑" transform="matrix(1,0,0,1,196,-4)" xmlns:kvg="http://kanjivg.tagaini.net"></path><path class="stroke_order_diagram--current_path" d="M44.31,12.53c0.8,0.5,1.28,2.23,1.44,3.22c0.16,0.99,0.22,40.01,0.09,44.96" id="kvg:0659f-s3" kvg:type="㇑" transform="matrix(1,0,0,1,196,-4)" xmlns:kvg="http://kanjivg.tagaini.net"></path><path class="stroke_order_diagram--current_path" d="M44.31,12.53c0.8,0.5,1.28,2.23,1.44,3.22c0.16,0.99,0.22,40.01,0.09,44.96" id="Ske2ll3htx" kvg:type="㇑" transform="matrix(1,0,0,1,196,-4)" xmlns:kvg="http://kanjivg.tagaini.net"></path><circle class="stroke_order_diagram--path_start" cx="44.31" cy="12.53" r="4" transform="matrix(1,0,0,1,196,-4)"></circle><line class="stroke_order_diagram--guide_line" x1="350" x2="350" y1="1" y2="99"></line><line class="stroke_order_diagram--bounding_box" x1="399" x2="399" y1="1" y2="99"></line><path class="stroke_order_diagram--existing_path" d="M13.28,27.91c0.89,0.43,2.53,0.54,3.42,0.43c6.57-0.79,25.8-2.59,37.18-3.54c1.48-0.12,2.38,0.21,3.12,0.42" id="Ske2ll3ht10" kvg:type="㇐" transform="matrix(1,0,0,1,296,-4)" xmlns:kvg="http://kanjivg.tagaini.net"></path><path class="stroke_order_diagram--existing_path" d="M24.75,15.75c0.78,0.48,1.24,2.16,1.4,3.12c0.16,0.96,0.15,39.18,0.02,44.13" id="Ske2ll3ht11" kvg:type="㇑" transform="matrix(1,0,0,1,296,-4)" xmlns:kvg="http://kanjivg.tagaini.net"></path><path class="stroke_order_diagram--existing_path" d="M44.31,12.53c0.8,0.5,1.28,2.23,1.44,3.22c0.16,0.99,0.22,40.01,0.09,44.96" id="Ske2ll3ht12" kvg:type="㇑" transform="matrix(1,0,0,1,296,-4)" xmlns:kvg="http://kanjivg.tagaini.net"></path><path class="stroke_order_diagram--current_path" d="M26.69,38.87c2.5-0.4,16.88-1.88,18.64-1.88" id="kvg:0659f-s4" kvg:type="㇐" transform="matrix(1,0,0,1,296,-4)" xmlns:kvg="http://kanjivg.tagaini.net"></path><path class="stroke_order_diagram--current_path" d="M26.69,38.87c2.5-0.4,16.88-1.88,18.64-1.88" id="Ske2ll3ht14" kvg:type="㇐" transform="matrix(1,0,0,1,296,-4)" xmlns:kvg="http://kanjivg.tagaini.net"></path><circle class="stroke_order_diagram--path_start" cx="26.69" cy="38.87" r="4" transform="matrix(1,0,0,1,296,-4)"></circle><line class="stroke_order_diagram--guide_line" x1="450" x2="450" y1="1" y2="99"></line><line class="stroke_order_diagram--bounding_box" x1="499" x2="499" y1="1" y2="99"></line><path class="stroke_order_diagram--existing_path" d="M13.28,27.91c0.89,0.43,2.53,0.54,3.42,0.43c6.57-0.79,25.8-2.59,37.18-3.54c1.48-0.12,2.38,0.21,3.12,0.42" id="Ske2ll3ht17" kvg:type="㇐" transform="matrix(1,0,0,1,396,-4)" xmlns:kvg="http://kanjivg.tagaini.net"></path><path class="stroke_order_diagram--existing_path" d="M24.75,15.75c0.78,0.48,1.24,2.16,1.4,3.12c0.16,0.96,0.15,39.18,0.02,44.13" id="Ske2ll3ht18" kvg:type="㇑" transform="matrix(1,0,0,1,396,-4)" xmlns:kvg="http://kanjivg.tagaini.net"></path><path class="stroke_order_diagram--existing_path" d="M44.31,12.53c0.8,0.5,1.28,2.23,1.44,3.22c0.16,0.99,0.22,40.01,0.09,44.96" id="Ske2ll3ht19" kvg:type="㇑" transform="matrix(1,0,0,1,396,-4)" xmlns:kvg="http://kanjivg.tagaini.net"></path><path class="stroke_order_diagram--existing_path" d="M26.69,38.87c2.5-0.4,16.88-1.88,18.64-1.88" id="Ske2ll3ht1a" kvg:type="㇐" transform="matrix(1,0,0,1,396,-4)" xmlns:kvg="http://kanjivg.tagaini.net"></path><path class="stroke_order_diagram--current_path" d="M26.69,50.05c3.82-0.2,15.47-1.39,19-1.58" id="kvg:0659f-s5" kvg:type="㇐" transform="matrix(1,0,0,1,396,-4)" xmlns:kvg="http://kanjivg.tagaini.net"></path><path class="stroke_order_diagram--current_path" d="M26.69,50.05c3.82-0.2,15.47-1.39,19-1.58" id="Ske2ll3ht1c" kvg:type="㇐" transform="matrix(1,0,0,1,396,-4)" xmlns:kvg="http://kanjivg.tagaini.net"></path><circle class="stroke_order_diagram--path_start" cx="26.69" cy="50.05" r="4" transform="matrix(1,0,0,1,396,-4)"></circle><line class="stroke_order_diagram--guide_line" x1="550" x2="550" y1="1" y2="99"></line><line class="stroke_order_diagram--bounding_box" x1="599" x2="599" y1="1" y2="99"></line><path class="stroke_order_diagram--existing_path" d="M13.28,27.91c0.89,0.43,2.53,0.54,3.42,0.43c6.57-0.79,25.8-2.59,37.18-3.54c1.48-0.12,2.38,0.21,3.12,0.42" id="Ske2ll3ht1f" kvg:type="㇐" transform="matrix(1,0,0,1,496,-4)" xmlns:kvg="http://kanjivg.tagaini.net"></path><path class="stroke_order_diagram--existing_path" d="M24.75,15.75c0.78,0.48,1.24,2.16,1.4,3.12c0.16,0.96,0.15,39.18,0.02,44.13" id="Ske2ll3ht1g" kvg:type="㇑" transform="matrix(1,0,0,1,496,-4)" xmlns:kvg="http://kanjivg.tagaini.net"></path><path class="stroke_order_diagram--existing_path" d="M44.31,12.53c0.8,0.5,1.28,2.23,1.44,3.22c0.16,0.99,0.22,40.01,0.09,44.96" id="Ske2ll3ht1h" kvg:type="㇑" transform="matrix(1,0,0,1,496,-4)" xmlns:kvg="http://kanjivg.tagaini.net"></path><path class="stroke_order_diagram--existing_path" d="M26.69,38.87c2.5-0.4,16.88-1.88,18.64-1.88" id="Ske2ll3ht1i" kvg:type="㇐" transform="matrix(1,0,0,1,496,-4)" xmlns:kvg="http://kanjivg.tagaini.net"></path><path class="stroke_order_diagram--existing_path" d="M26.69,50.05c3.82-0.2,15.47-1.39,19-1.58" id="Ske2ll3ht1j" kvg:type="㇐" transform="matrix(1,0,0,1,496,-4)" xmlns:kvg="http://kanjivg.tagaini.net"></path><path class="stroke_order_diagram--current_path" d="M10.75,64.3c1.05,0.44,2.99,0.51,4.04,0.44c10.97-0.73,28.55-4.03,39.27-4.79c1.75-0.12,2.81,0.21,3.69,0.43" id="kvg:0659f-s6" kvg:type="㇐" transform="matrix(1,0,0,1,496,-4)" xmlns:kvg="http://kanjivg.tagaini.net"></path><path class="stroke_order_diagram--current_path" d="M10.75,64.3c1.05,0.44,2.99,0.51,4.04,0.44c10.97-0.73,28.55-4.03,39.27-4.79c1.75-0.12,2.81,0.21,3.69,0.43" id="Ske2ll3ht1l" kvg:type="㇐" transform="matrix(1,0,0,1,496,-4)" xmlns:kvg="http://kanjivg.tagaini.net"></path><circle class="stroke_order_diagram--path_start" cx="10.75" cy="64.3" r="4" transform="matrix(1,0,0,1,496,-4)"></circle><line class="stroke_order_diagram--guide_line" x1="650" x2="650" y1="1" y2="99"></line><line class="stroke_order_diagram--bounding_box" x1="699" x2="699" y1="1" y2="99"></line><path class="stroke_order_diagram--existing_path" d="M13.28,27.91c0.89,0.43,2.53,0.54,3.42,0.43c6.57-0.79,25.8-2.59,37.18-3.54c1.48-0.12,2.38,0.21,3.12,0.42" id="Ske2ll3ht1o" kvg:type="㇐" transform="matrix(1,0,0,1,596,-4)" xmlns:kvg="http://kanjivg.tagaini.net"></path><path class="stroke_order_diagram--existing_path" d="M24.75,15.75c0.78,0.48,1.24,2.16,1.4,3.12c0.16,0.96,0.15,39.18,0.02,44.13" id="Ske2ll3ht1p" kvg:type="㇑" transform="matrix(1,0,0,1,596,-4)" xmlns:kvg="http://kanjivg.tagaini.net"></path><path class="stroke_order_diagram--existing_path" d="M44.31,12.53c0.8,0.5,1.28,2.23,1.44,3.22c0.16,0.99,0.22,40.01,0.09,44.96" id="Ske2ll3ht1q" kvg:type="㇑" transform="matrix(1,0,0,1,596,-4)" xmlns:kvg="http://kanjivg.tagaini.net"></path><path class="stroke_order_diagram--existing_path" d="M26.69,38.87c2.5-0.4,16.88-1.88,18.64-1.88" id="Ske2ll3ht1r" kvg:type="㇐" transform="matrix(1,0,0,1,596,-4)" xmlns:kvg="http://kanjivg.tagaini.net"></path><path class="stroke_order_diagram--existing_path" d="M26.69,50.05c3.82-0.2,15.47-1.39,19-1.58" id="Ske2ll3ht1s" kvg:type="㇐" transform="matrix(1,0,0,1,596,-4)" xmlns:kvg="http://kanjivg.tagaini.net"></path><path class="stroke_order_diagram--existing_path" d="M10.75,64.3c1.05,0.44,2.99,0.51,4.04,0.44c10.97-0.73,28.55-4.03,39.27-4.79c1.75-0.12,2.81,0.21,3.69,0.43" id="Ske2ll3ht1t" kvg:type="㇐" transform="matrix(1,0,0,1,596,-4)" xmlns:kvg="http://kanjivg.tagaini.net"></path><path class="stroke_order_diagram--current_path" d="M32.5,66.25c0.26,0.29,0.57,1.03,0.51,1.61c-0.52,4.72-4.12,12.62-8.25,15.39" id="kvg:0659f-s7" kvg:type="㇒" transform="matrix(1,0,0,1,596,-4)" xmlns:kvg="http://kanjivg.tagaini.net"></path><path class="stroke_order_diagram--current_path" d="M32.5,66.25c0.26,0.29,0.57,1.03,0.51,1.61c-0.52,4.72-4.12,12.62-8.25,15.39" id="Ske2ll3ht1v" kvg:type="㇒" transform="matrix(1,0,0,1,596,-4)" xmlns:kvg="http://kanjivg.tagaini.net"></path><circle class="stroke_order_diagram--path_start" cx="32.5" cy="66.25" r="4" transform="matrix(1,0,0,1,596,-4)"></circle><line class="stroke_order_diagram--guide_line" x1="750" x2="750" y1="1" y2="99"></line><line class="stroke_order_diagram--bounding_box" x1="799" x2="799" y1="1" y2="99"></line><path class="stroke_order_diagram--existing_path" d="M13.28,27.91c0.89,0.43,2.53,0.54,3.42,0.43c6.57-0.79,25.8-2.59,37.18-3.54c1.48-0.12,2.38,0.21,3.12,0.42" id="Ske2ll3ht1y" kvg:type="㇐" transform="matrix(1,0,0,1,696,-4)" xmlns:kvg="http://kanjivg.tagaini.net"></path><path class="stroke_order_diagram--existing_path" d="M24.75,15.75c0.78,0.48,1.24,2.16,1.4,3.12c0.16,0.96,0.15,39.18,0.02,44.13" id="Ske2ll3ht1z" kvg:type="㇑" transform="matrix(1,0,0,1,696,-4)" xmlns:kvg="http://kanjivg.tagaini.net"></path><path class="stroke_order_diagram--existing_path" d="M44.31,12.53c0.8,0.5,1.28,2.23,1.44,3.22c0.16,0.99,0.22,40.01,0.09,44.96" id="Ske2ll3ht20" kvg:type="㇑" transform="matrix(1,0,0,1,696,-4)" xmlns:kvg="http://kanjivg.tagaini.net"></path><path class="stroke_order_diagram--existing_path" d="M26.69,38.87c2.5-0.4,16.88-1.88,18.64-1.88" id="Ske2ll3ht21" kvg:type="㇐" transform="matrix(1,0,0,1,696,-4)" xmlns:kvg="http://kanjivg.tagaini.net"></path><path class="stroke_order_diagram--existing_path" d="M26.69,50.05c3.82-0.2,15.47-1.39,19-1.58" id="Ske2ll3ht22" kvg:type="㇐" transform="matrix(1,0,0,1,696,-4)" xmlns:kvg="http://kanjivg.tagaini.net"></path><path class="stroke_order_diagram--existing_path" d="M10.75,64.3c1.05,0.44,2.99,0.51,4.04,0.44c10.97-0.73,28.55-4.03,39.27-4.79c1.75-0.12,2.81,0.21,3.69,0.43" id="Ske2ll3ht23" kvg:type="㇐" transform="matrix(1,0,0,1,696,-4)" xmlns:kvg="http://kanjivg.tagaini.net"></path><path class="stroke_order_diagram--existing_path" d="M32.5,66.25c0.26,0.29,0.57,1.03,0.51,1.61c-0.52,4.72-4.12,12.62-8.25,15.39" id="Ske2ll3ht24" kvg:type="㇒" transform="matrix(1,0,0,1,696,-4)" xmlns:kvg="http://kanjivg.tagaini.net"></path><path class="stroke_order_diagram--current_path" d="M40.71,63.78c0.57,0.88,1.05,1.91,1.05,3.26c0,1.95-0.13,1.62-0.13,5.06c0,6.94,1.71,7.14,6.63,7.14c4.24,0,5.52-0.79,6.24-1.62" id="kvg:0659f-s8" kvg:type="㇟" transform="matrix(1,0,0,1,696,-4)" xmlns:kvg="http://kanjivg.tagaini.net"></path><path class="stroke_order_diagram--current_path" d="M40.71,63.78c0.57,0.88,1.05,1.91,1.05,3.26c0,1.95-0.13,1.62-0.13,5.06c0,6.94,1.71,7.14,6.63,7.14c4.24,0,5.52-0.79,6.24-1.62" id="Ske2ll3ht26" kvg:type="㇟" transform="matrix(1,0,0,1,696,-4)" xmlns:kvg="http://kanjivg.tagaini.net"></path><circle class="stroke_order_diagram--path_start" cx="40.71" cy="63.78" r="4" transform="matrix(1,0,0,1,696,-4)"></circle><line class="stroke_order_diagram--guide_line" x1="850" x2="850" y1="1" y2="99"></line><line class="stroke_order_diagram--bounding_box" x1="899" x2="899" y1="1" y2="99"></line><path class="stroke_order_diagram--existing_path" d="M13.28,27.91c0.89,0.43,2.53,0.54,3.42,0.43c6.57-0.79,25.8-2.59,37.18-3.54c1.48-0.12,2.38,0.21,3.12,0.42" id="Ske2ll3ht29" kvg:type="㇐" transform="matrix(1,0,0,1,796,-4)" xmlns:kvg="http://kanjivg.tagaini.net"></path><path class="stroke_order_diagram--existing_path" d="M24.75,15.75c0.78,0.48,1.24,2.16,1.4,3.12c0.16,0.96,0.15,39.18,0.02,44.13" id="Ske2ll3ht2a" kvg:type="㇑" transform="matrix(1,0,0,1,796,-4)" xmlns:kvg="http://kanjivg.tagaini.net"></path><path class="stroke_order_diagram--existing_path" d="M44.31,12.53c0.8,0.5,1.28,2.23,1.44,3.22c0.16,0.99,0.22,40.01,0.09,44.96" id="Ske2ll3ht2b" kvg:type="㇑" transform="matrix(1,0,0,1,796,-4)" xmlns:kvg="http://kanjivg.tagaini.net"></path><path class="stroke_order_diagram--existing_path" d="M26.69,38.87c2.5-0.4,16.88-1.88,18.64-1.88" id="Ske2ll3ht2c" kvg:type="㇐" transform="matrix(1,0,0,1,796,-4)" xmlns:kvg="http://kanjivg.tagaini.net"></path><path class="stroke_order_diagram--existing_path" d="M26.69,50.05c3.82-0.2,15.47-1.39,19-1.58" id="Ske2ll3ht2d" kvg:type="㇐" transform="matrix(1,0,0,1,796,-4)" xmlns:kvg="http://kanjivg.tagaini.net"></path><path class="stroke_order_diagram--existing_path" d="M10.75,64.3c1.05,0.44,2.99,0.51,4.04,0.44c10.97-0.73,28.55-4.03,39.27-4.79c1.75-0.12,2.81,0.21,3.69,0.43" id="Ske2ll3ht2e" kvg:type="㇐" transform="matrix(1,0,0,1,796,-4)" xmlns:kvg="http://kanjivg.tagaini.net"></path><path class="stroke_order_diagram--existing_path" d="M32.5,66.25c0.26,0.29,0.57,1.03,0.51,1.61c-0.52,4.72-4.12,12.62-8.25,15.39" id="Ske2ll3ht2f" kvg:type="㇒" transform="matrix(1,0,0,1,796,-4)" xmlns:kvg="http://kanjivg.tagaini.net"></path><path class="stroke_order_diagram--existing_path" d="M40.71,63.78c0.57,0.88,1.05,1.91,1.05,3.26c0,1.95-0.13,1.62-0.13,5.06c0,6.94,1.71,7.14,6.63,7.14c4.24,0,5.52-0.79,6.24-1.62" id="Ske2ll3ht2g" kvg:type="㇟" transform="matrix(1,0,0,1,796,-4)" xmlns:kvg="http://kanjivg.tagaini.net"></path><path class="stroke_order_diagram--current_path" d="M19.06,67.64c0.82,1.26,1.51,2.74,1.51,4.68c0,2.8-0.08,9.02-0.08,13.18c0,8.42,2.68,8.5,15.85,8.5c11.34,0,14.78-0.76,16.7-1.77" id="kvg:0659f-s9" kvg:type="㇗" transform="matrix(1,0,0,1,796,-4)" xmlns:kvg="http://kanjivg.tagaini.net"></path><path class="stroke_order_diagram--current_path" d="M19.06,67.64c0.82,1.26,1.51,2.74,1.51,4.68c0,2.8-0.08,9.02-0.08,13.18c0,8.42,2.68,8.5,15.85,8.5c11.34,0,14.78-0.76,16.7-1.77" id="Ske2ll3ht2i" kvg:type="㇗" transform="matrix(1,0,0,1,796,-4)" xmlns:kvg="http://kanjivg.tagaini.net"></path><circle class="stroke_order_diagram--path_start" cx="19.06" cy="67.64" r="4" transform="matrix(1,0,0,1,796,-4)"></circle><line class="stroke_order_diagram--guide_line" x1="950" x2="950" y1="1" y2="99"></line><line class="stroke_order_diagram--bounding_box" x1="999" x2="999" y1="1" y2="99"></line><path class="stroke_order_diagram--existing_path" d="M13.28,27.91c0.89,0.43,2.53,0.54,3.42,0.43c6.57-0.79,25.8-2.59,37.18-3.54c1.48-0.12,2.38,0.21,3.12,0.42" id="Ske2ll3ht2l" kvg:type="㇐" transform="matrix(1,0,0,1,896,-4)" xmlns:kvg="http://kanjivg.tagaini.net"></path><path class="stroke_order_diagram--existing_path" d="M24.75,15.75c0.78,0.48,1.24,2.16,1.4,3.12c0.16,0.96,0.15,39.18,0.02,44.13" id="Ske2ll3ht2m" kvg:type="㇑" transform="matrix(1,0,0,1,896,-4)" xmlns:kvg="http://kanjivg.tagaini.net"></path><path class="stroke_order_diagram--existing_path" d="M44.31,12.53c0.8,0.5,1.28,2.23,1.44,3.22c0.16,0.99,0.22,40.01,0.09,44.96" id="Ske2ll3ht2n" kvg:type="㇑" transform="matrix(1,0,0,1,896,-4)" xmlns:kvg="http://kanjivg.tagaini.net"></path><path class="stroke_order_diagram--existing_path" d="M26.69,38.87c2.5-0.4,16.88-1.88,18.64-1.88" id="Ske2ll3ht2o" kvg:type="㇐" transform="matrix(1,0,0,1,896,-4)" xmlns:kvg="http://kanjivg.tagaini.net"></path><path class="stroke_order_diagram--existing_path" d="M26.69,50.05c3.82-0.2,15.47-1.39,19-1.58" id="Ske2ll3ht2p" kvg:type="㇐" transform="matrix(1,0,0,1,896,-4)" xmlns:kvg="http://kanjivg.tagaini.net"></path><path class="stroke_order_diagram--existing_path" d="M10.75,64.3c1.05,0.44,2.99,0.51,4.04,0.44c10.97-0.73,28.55-4.03,39.27-4.79c1.75-0.12,2.81,0.21,3.69,0.43" id="Ske2ll3ht2q" kvg:type="㇐" transform="matrix(1,0,0,1,896,-4)" xmlns:kvg="http://kanjivg.tagaini.net"></path><path class="stroke_order_diagram--existing_path" d="M32.5,66.25c0.26,0.29,0.57,1.03,0.51,1.61c-0.52,4.72-4.12,12.62-8.25,15.39" id="Ske2ll3ht2r" kvg:type="㇒" transform="matrix(1,0,0,1,896,-4)" xmlns:kvg="http://kanjivg.tagaini.net"></path><path class="stroke_order_diagram--existing_path" d="M40.71,63.78c0.57,0.88,1.05,1.91,1.05,3.26c0,1.95-0.13,1.62-0.13,5.06c0,6.94,1.71,7.14,6.63,7.14c4.24,0,5.52-0.79,6.24-1.62" id="Ske2ll3ht2s" kvg:type="㇟" transform="matrix(1,0,0,1,896,-4)" xmlns:kvg="http://kanjivg.tagaini.net"></path><path class="stroke_order_diagram--existing_path" d="M19.06,67.64c0.82,1.26,1.51,2.74,1.51,4.68c0,2.8-0.08,9.02-0.08,13.18c0,8.42,2.68,8.5,15.85,8.5c11.34,0,14.78-0.76,16.7-1.77" id="Ske2ll3ht2t" kvg:type="㇗" transform="matrix(1,0,0,1,896,-4)" xmlns:kvg="http://kanjivg.tagaini.net"></path><path class="stroke_order_diagram--current_path" d="M64.25,27.5C67.34,29,72.23,33.67,73,36" id="kvg:0659f-s10" kvg:type="㇔" transform="matrix(1,0,0,1,896,-4)" xmlns:kvg="http://kanjivg.tagaini.net"></path><path class="stroke_order_diagram--current_path" d="M64.25,27.5C67.34,29,72.23,33.67,73,36" id="Ske2ll3ht2v" kvg:type="㇔" transform="matrix(1,0,0,1,896,-4)" xmlns:kvg="http://kanjivg.tagaini.net"></path><circle class="stroke_order_diagram--path_start" cx="64.25" cy="27.5" r="4" transform="matrix(1,0,0,1,896,-4)"></circle><line class="stroke_order_diagram--guide_line" x1="1050" x2="1050" y1="1" y2="99"></line><line class="stroke_order_diagram--bounding_box" x1="1099" x2="1099" y1="1" y2="99"></line><path class="stroke_order_diagram--existing_path" d="M13.28,27.91c0.89,0.43,2.53,0.54,3.42,0.43c6.57-0.79,25.8-2.59,37.18-3.54c1.48-0.12,2.38,0.21,3.12,0.42" id="Ske2ll3ht2y" kvg:type="㇐" transform="matrix(1,0,0,1,996,-4)" xmlns:kvg="http://kanjivg.tagaini.net"></path><path class="stroke_order_diagram--existing_path" d="M24.75,15.75c0.78,0.48,1.24,2.16,1.4,3.12c0.16,0.96,0.15,39.18,0.02,44.13" id="Ske2ll3ht2z" kvg:type="㇑" transform="matrix(1,0,0,1,996,-4)" xmlns:kvg="http://kanjivg.tagaini.net"></path><path class="stroke_order_diagram--existing_path" d="M44.31,12.53c0.8,0.5,1.28,2.23,1.44,3.22c0.16,0.99,0.22,40.01,0.09,44.96" id="Ske2ll3ht30" kvg:type="㇑" transform="matrix(1,0,0,1,996,-4)" xmlns:kvg="http://kanjivg.tagaini.net"></path><path class="stroke_order_diagram--existing_path" d="M26.69,38.87c2.5-0.4,16.88-1.88,18.64-1.88" id="Ske2ll3ht31" kvg:type="㇐" transform="matrix(1,0,0,1,996,-4)" xmlns:kvg="http://kanjivg.tagaini.net"></path><path class="stroke_order_diagram--existing_path" d="M26.69,50.05c3.82-0.2,15.47-1.39,19-1.58" id="Ske2ll3ht32" kvg:type="㇐" transform="matrix(1,0,0,1,996,-4)" xmlns:kvg="http://kanjivg.tagaini.net"></path><path class="stroke_order_diagram--existing_path" d="M10.75,64.3c1.05,0.44,2.99,0.51,4.04,0.44c10.97-0.73,28.55-4.03,39.27-4.79c1.75-0.12,2.81,0.21,3.69,0.43" id="Ske2ll3ht33" kvg:type="㇐" transform="matrix(1,0,0,1,996,-4)" xmlns:kvg="http://kanjivg.tagaini.net"></path><path class="stroke_order_diagram--existing_path" d="M32.5,66.25c0.26,0.29,0.57,1.03,0.51,1.61c-0.52,4.72-4.12,12.62-8.25,15.39" id="Ske2ll3ht34" kvg:type="㇒" transform="matrix(1,0,0,1,996,-4)" xmlns:kvg="http://kanjivg.tagaini.net"></path><path class="stroke_order_diagram--existing_path" d="M40.71,63.78c0.57,0.88,1.05,1.91,1.05,3.26c0,1.95-0.13,1.62-0.13,5.06c0,6.94,1.71,7.14,6.63,7.14c4.24,0,5.52-0.79,6.24-1.62" id="Ske2ll3ht35" kvg:type="㇟" transform="matrix(1,0,0,1,996,-4)" xmlns:kvg="http://kanjivg.tagaini.net"></path><path class="stroke_order_diagram--existing_path" d="M19.06,67.64c0.82,1.26,1.51,2.74,1.51,4.68c0,2.8-0.08,9.02-0.08,13.18c0,8.42,2.68,8.5,15.85,8.5c11.34,0,14.78-0.76,16.7-1.77" id="Ske2ll3ht36" kvg:type="㇗" transform="matrix(1,0,0,1,996,-4)" xmlns:kvg="http://kanjivg.tagaini.net"></path><path class="stroke_order_diagram--existing_path" d="M64.25,27.5C67.34,29,72.23,33.67,73,36" id="Ske2ll3ht37" kvg:type="㇔" transform="matrix(1,0,0,1,996,-4)" xmlns:kvg="http://kanjivg.tagaini.net"></path><path class="stroke_order_diagram--current_path" d="M60.25,44.25c3.26,1.41,8.43,5.8,9.25,8" id="kvg:0659f-s11" kvg:type="㇔" transform="matrix(1,0,0,1,996,-4)" xmlns:kvg="http://kanjivg.tagaini.net"></path><path class="stroke_order_diagram--current_path" d="M60.25,44.25c3.26,1.41,8.43,5.8,9.25,8" id="Ske2ll3ht39" kvg:type="㇔" transform="matrix(1,0,0,1,996,-4)" xmlns:kvg="http://kanjivg.tagaini.net"></path><circle class="stroke_order_diagram--path_start" cx="60.25" cy="44.25" r="4" transform="matrix(1,0,0,1,996,-4)"></circle><line class="stroke_order_diagram--guide_line" x1="1150" x2="1150" y1="1" y2="99"></line><line class="stroke_order_diagram--bounding_box" x1="1199" x2="1199" y1="1" y2="99"></line><path class="stroke_order_diagram--existing_path" d="M13.28,27.91c0.89,0.43,2.53,0.54,3.42,0.43c6.57-0.79,25.8-2.59,37.18-3.54c1.48-0.12,2.38,0.21,3.12,0.42" id="Ske2ll3ht3c" kvg:type="㇐" transform="matrix(1,0,0,1,1096,-4)" xmlns:kvg="http://kanjivg.tagaini.net"></path><path class="stroke_order_diagram--existing_path" d="M24.75,15.75c0.78,0.48,1.24,2.16,1.4,3.12c0.16,0.96,0.15,39.18,0.02,44.13" id="Ske2ll3ht3d" kvg:type="㇑" transform="matrix(1,0,0,1,1096,-4)" xmlns:kvg="http://kanjivg.tagaini.net"></path><path class="stroke_order_diagram--existing_path" d="M44.31,12.53c0.8,0.5,1.28,2.23,1.44,3.22c0.16,0.99,0.22,40.01,0.09,44.96" id="Ske2ll3ht3e" kvg:type="㇑" transform="matrix(1,0,0,1,1096,-4)" xmlns:kvg="http://kanjivg.tagaini.net"></path><path class="stroke_order_diagram--existing_path" d="M26.69,38.87c2.5-0.4,16.88-1.88,18.64-1.88" id="Ske2ll3ht3f" kvg:type="㇐" transform="matrix(1,0,0,1,1096,-4)" xmlns:kvg="http://kanjivg.tagaini.net"></path><path class="stroke_order_diagram--existing_path" d="M26.69,50.05c3.82-0.2,15.47-1.39,19-1.58" id="Ske2ll3ht3g" kvg:type="㇐" transform="matrix(1,0,0,1,1096,-4)" xmlns:kvg="http://kanjivg.tagaini.net"></path><path class="stroke_order_diagram--existing_path" d="M10.75,64.3c1.05,0.44,2.99,0.51,4.04,0.44c10.97-0.73,28.55-4.03,39.27-4.79c1.75-0.12,2.81,0.21,3.69,0.43" id="Ske2ll3ht3h" kvg:type="㇐" transform="matrix(1,0,0,1,1096,-4)" xmlns:kvg="http://kanjivg.tagaini.net"></path><path class="stroke_order_diagram--existing_path" d="M32.5,66.25c0.26,0.29,0.57,1.03,0.51,1.61c-0.52,4.72-4.12,12.62-8.25,15.39" id="Ske2ll3ht3i" kvg:type="㇒" transform="matrix(1,0,0,1,1096,-4)" xmlns:kvg="http://kanjivg.tagaini.net"></path><path class="stroke_order_diagram--existing_path" d="M40.71,63.78c0.57,0.88,1.05,1.91,1.05,3.26c0,1.95-0.13,1.62-0.13,5.06c0,6.94,1.71,7.14,6.63,7.14c4.24,0,5.52-0.79,6.24-1.62" id="Ske2ll3ht3j" kvg:type="㇟" transform="matrix(1,0,0,1,1096,-4)" xmlns:kvg="http://kanjivg.tagaini.net"></path><path class="stroke_order_diagram--existing_path" d="M19.06,67.64c0.82,1.26,1.51,2.74,1.51,4.68c0,2.8-0.08,9.02-0.08,13.18c0,8.42,2.68,8.5,15.85,8.5c11.34,0,14.78-0.76,16.7-1.77" id="Ske2ll3ht3k" kvg:type="㇗" transform="matrix(1,0,0,1,1096,-4)" xmlns:kvg="http://kanjivg.tagaini.net"></path><path class="stroke_order_diagram--existing_path" d="M64.25,27.5C67.34,29,72.23,33.67,73,36" id="Ske2ll3ht3l" kvg:type="㇔" transform="matrix(1,0,0,1,1096,-4)" xmlns:kvg="http://kanjivg.tagaini.net"></path><path class="stroke_order_diagram--existing_path" d="M60.25,44.25c3.26,1.41,8.43,5.8,9.25,8" id="Ske2ll3ht3m" kvg:type="㇔" transform="matrix(1,0,0,1,1096,-4)" xmlns:kvg="http://kanjivg.tagaini.net"></path><path class="stroke_order_diagram--current_path" d="M56.75,66.25c0.65,0.25,2.4,0.93,4.13,0.75c7.12-0.75,25.62-4,35.85-4c1.74,0,2.18-0.25,3.26,0" id="kvg:0659f-s12" kvg:type="㇐" transform="matrix(1,0,0,1,1096,-4)" xmlns:kvg="http://kanjivg.tagaini.net"></path><path class="stroke_order_diagram--current_path" d="M56.75,66.25c0.65,0.25,2.4,0.93,4.13,0.75c7.12-0.75,25.62-4,35.85-4c1.74,0,2.18-0.25,3.26,0" id="Ske2ll3ht3o" kvg:type="㇐" transform="matrix(1,0,0,1,1096,-4)" xmlns:kvg="http://kanjivg.tagaini.net"></path><circle class="stroke_order_diagram--path_start" cx="56.75" cy="66.25" r="4" transform="matrix(1,0,0,1,1096,-4)"></circle><line class="stroke_order_diagram--guide_line" x1="1250" x2="1250" y1="1" y2="99"></line><line class="stroke_order_diagram--bounding_box" x1="1299" x2="1299" y1="1" y2="99"></line><path class="stroke_order_diagram--existing_path" d="M13.28,27.91c0.89,0.43,2.53,0.54,3.42,0.43c6.57-0.79,25.8-2.59,37.18-3.54c1.48-0.12,2.38,0.21,3.12,0.42" id="Ske2ll3ht3r" kvg:type="㇐" transform="matrix(1,0,0,1,1196,-4)" xmlns:kvg="http://kanjivg.tagaini.net"></path><path class="stroke_order_diagram--existing_path" d="M24.75,15.75c0.78,0.48,1.24,2.16,1.4,3.12c0.16,0.96,0.15,39.18,0.02,44.13" id="Ske2ll3ht3s" kvg:type="㇑" transform="matrix(1,0,0,1,1196,-4)" xmlns:kvg="http://kanjivg.tagaini.net"></path><path class="stroke_order_diagram--existing_path" d="M44.31,12.53c0.8,0.5,1.28,2.23,1.44,3.22c0.16,0.99,0.22,40.01,0.09,44.96" id="Ske2ll3ht3t" kvg:type="㇑" transform="matrix(1,0,0,1,1196,-4)" xmlns:kvg="http://kanjivg.tagaini.net"></path><path class="stroke_order_diagram--existing_path" d="M26.69,38.87c2.5-0.4,16.88-1.88,18.64-1.88" id="Ske2ll3ht3u" kvg:type="㇐" transform="matrix(1,0,0,1,1196,-4)" xmlns:kvg="http://kanjivg.tagaini.net"></path><path class="stroke_order_diagram--existing_path" d="M26.69,50.05c3.82-0.2,15.47-1.39,19-1.58" id="Ske2ll3ht3v" kvg:type="㇐" transform="matrix(1,0,0,1,1196,-4)" xmlns:kvg="http://kanjivg.tagaini.net"></path><path class="stroke_order_diagram--existing_path" d="M10.75,64.3c1.05,0.44,2.99,0.51,4.04,0.44c10.97-0.73,28.55-4.03,39.27-4.79c1.75-0.12,2.81,0.21,3.69,0.43" id="Ske2ll3ht3w" kvg:type="㇐" transform="matrix(1,0,0,1,1196,-4)" xmlns:kvg="http://kanjivg.tagaini.net"></path><path class="stroke_order_diagram--existing_path" d="M32.5,66.25c0.26,0.29,0.57,1.03,0.51,1.61c-0.52,4.72-4.12,12.62-8.25,15.39" id="Ske2ll3ht3x" kvg:type="㇒" transform="matrix(1,0,0,1,1196,-4)" xmlns:kvg="http://kanjivg.tagaini.net"></path><path class="stroke_order_diagram--existing_path" d="M40.71,63.78c0.57,0.88,1.05,1.91,1.05,3.26c0,1.95-0.13,1.62-0.13,5.06c0,6.94,1.71,7.14,6.63,7.14c4.24,0,5.52-0.79,6.24-1.62" id="Ske2ll3ht3y" kvg:type="㇟" transform="matrix(1,0,0,1,1196,-4)" xmlns:kvg="http://kanjivg.tagaini.net"></path><path class="stroke_order_diagram--existing_path" d="M19.06,67.64c0.82,1.26,1.51,2.74,1.51,4.68c0,2.8-0.08,9.02-0.08,13.18c0,8.42,2.68,8.5,15.85,8.5c11.34,0,14.78-0.76,16.7-1.77" id="Ske2ll3ht3z" kvg:type="㇗" transform="matrix(1,0,0,1,1196,-4)" xmlns:kvg="http://kanjivg.tagaini.net"></path><path class="stroke_order_diagram--existing_path" d="M64.25,27.5C67.34,29,72.23,33.67,73,36" id="Ske2ll3ht40" kvg:type="㇔" transform="matrix(1,0,0,1,1196,-4)" xmlns:kvg="http://kanjivg.tagaini.net"></path><path class="stroke_order_diagram--existing_path" d="M60.25,44.25c3.26,1.41,8.43,5.8,9.25,8" id="Ske2ll3ht41" kvg:type="㇔" transform="matrix(1,0,0,1,1196,-4)" xmlns:kvg="http://kanjivg.tagaini.net"></path><path class="stroke_order_diagram--existing_path" d="M56.75,66.25c0.65,0.25,2.4,0.93,4.13,0.75c7.12-0.75,25.62-4,35.85-4c1.74,0,2.18-0.25,3.26,0" id="Ske2ll3ht42" kvg:type="㇐" transform="matrix(1,0,0,1,1196,-4)" xmlns:kvg="http://kanjivg.tagaini.net"></path><path class="stroke_order_diagram--current_path" d="M79.37,12.25c1.09,0.5,1.74,2.25,1.96,3.25c0.22,1,0,75.25-0.22,81.5" id="kvg:0659f-s13" kvg:type="㇑" transform="matrix(1,0,0,1,1196,-4)" xmlns:kvg="http://kanjivg.tagaini.net"></path><path class="stroke_order_diagram--current_path" d="M79.37,12.25c1.09,0.5,1.74,2.25,1.96,3.25c0.22,1,0,75.25-0.22,81.5" id="Ske2ll3ht44" kvg:type="㇑" transform="matrix(1,0,0,1,1196,-4)" xmlns:kvg="http://kanjivg.tagaini.net"></path><circle class="stroke_order_diagram--path_start" cx="79.37" cy="12.25" r="4" transform="matrix(1,0,0,1,1196,-4)"></circle></svg>