<svg class="stroke_order_diagram--svg_container_for_51866288d5dda796580005f2" style="height: 100px; width: 1200px;" viewbox="0 0 1200 100"><desc>Created with Snap</desc><defs></defs><line class="stroke_order_diagram--bounding_box" x1="1" x2="1199" y1="1" y2="1"></line><line class="stroke_order_diagram--bounding_box" x1="1" x2="1" y1="1" y2="99"></line><line class="stroke_order_diagram--bounding_box" x1="1" x2="1199" y1="99" y2="99"></line><line class="stroke_order_diagram--guide_line" x1="0" x2="1200" y1="50" y2="50"></line><line class="stroke_order_diagram--guide_line" x1="50" x2="50" y1="1" y2="99"></line><line class="stroke_order_diagram--bounding_box" x1="99" x2="99" y1="1" y2="99"></line><path class="stroke_order_diagram--current_path" d="M13.75,26.83c0.96,0.96,1.7,2.45,1.7,3.73c0,1.29-0.23,35.36-0.23,36c0,0.64,0.12,1.64,0.23,2.93" id="kvg:06674-s1" kvg:type="㇑" transform="matrix(1,0,0,1,-4,-4)" xmlns:kvg="http://kanjivg.tagaini.net"></path><path class="stroke_order_diagram--current_path" d="M13.75,26.83c0.96,0.96,1.7,2.45,1.7,3.73c0,1.29-0.23,35.36-0.23,36c0,0.64,0.12,1.64,0.23,2.93" id="Ske1zkq6fl" kvg:type="㇑" transform="matrix(1,0,0,1,-4,-4)" xmlns:kvg="http://kanjivg.tagaini.net"></path><circle class="stroke_order_diagram--path_start" cx="13.75" cy="26.83" r="4" transform="matrix(1,0,0,1,-4,-4)"></circle><line class="stroke_order_diagram--guide_line" x1="150" x2="150" y1="1" y2="99"></line><line class="stroke_order_diagram--bounding_box" x1="199" x2="199" y1="1" y2="99"></line><path class="stroke_order_diagram--existing_path" d="M13.75,26.83c0.96,0.96,1.7,2.45,1.7,3.73c0,1.29-0.23,35.36-0.23,36c0,0.64,0.12,1.64,0.23,2.93" id="Ske1zkq6fo" kvg:type="㇑" transform="matrix(1,0,0,1,96,-4)" xmlns:kvg="http://kanjivg.tagaini.net"></path><path class="stroke_order_diagram--current_path" d="M15.81,27.88c5.12-0.6,17.72-1.74,19.1-1.89c1.51-0.16,2.47,1.78,2.36,2.73c-0.24,1.93-0.35,21.93-0.35,36.08c0,1.46-0.12,3.09-0.12,4.05" id="kvg:06674-s2" kvg:type="㇕a" transform="matrix(1,0,0,1,96,-4)" xmlns:kvg="http://kanjivg.tagaini.net"></path><path class="stroke_order_diagram--current_path" d="M15.81,27.88c5.12-0.6,17.72-1.74,19.1-1.89c1.51-0.16,2.47,1.78,2.36,2.73c-0.24,1.93-0.35,21.93-0.35,36.08c0,1.46-0.12,3.09-0.12,4.05" id="Ske1zkq6fq" kvg:type="㇕a" transform="matrix(1,0,0,1,96,-4)" xmlns:kvg="http://kanjivg.tagaini.net"></path><circle class="stroke_order_diagram--path_start" cx="15.81" cy="27.88" r="4" transform="matrix(1,0,0,1,96,-4)"></circle><line class="stroke_order_diagram--guide_line" x1="250" x2="250" y1="1" y2="99"></line><line class="stroke_order_diagram--bounding_box" x1="299" x2="299" y1="1" y2="99"></line><path class="stroke_order_diagram--existing_path" d="M13.75,26.83c0.96,0.96,1.7,2.45,1.7,3.73c0,1.29-0.23,35.36-0.23,36c0,0.64,0.12,1.64,0.23,2.93" id="Ske1zkq6ft" kvg:type="㇑" transform="matrix(1,0,0,1,196,-4)" xmlns:kvg="http://kanjivg.tagaini.net"></path><path class="stroke_order_diagram--existing_path" d="M15.81,27.88c5.12-0.6,17.72-1.74,19.1-1.89c1.51-0.16,2.47,1.78,2.36,2.73c-0.24,1.93-0.35,21.93-0.35,36.08c0,1.46-0.12,3.09-0.12,4.05" id="Ske1zkq6fu" kvg:type="㇕a" transform="matrix(1,0,0,1,196,-4)" xmlns:kvg="http://kanjivg.tagaini.net"></path><path class="stroke_order_diagram--current_path" d="M16.39,46.64c2.68,0,16.56-1.61,19.59-1.61" id="kvg:06674-s3" kvg:type="㇐a" transform="matrix(1,0,0,1,196,-4)" xmlns:kvg="http://kanjivg.tagaini.net"></path><path class="stroke_order_diagram--current_path" d="M16.39,46.64c2.68,0,16.56-1.61,19.59-1.61" id="Ske1zkq6fw" kvg:type="㇐a" transform="matrix(1,0,0,1,196,-4)" xmlns:kvg="http://kanjivg.tagaini.net"></path><circle class="stroke_order_diagram--path_start" cx="16.39" cy="46.64" r="4" transform="matrix(1,0,0,1,196,-4)"></circle><line class="stroke_order_diagram--guide_line" x1="350" x2="350" y1="1" y2="99"></line><line class="stroke_order_diagram--bounding_box" x1="399" x2="399" y1="1" y2="99"></line><path class="stroke_order_diagram--existing_path" d="M13.75,26.83c0.96,0.96,1.7,2.45,1.7,3.73c0,1.29-0.23,35.36-0.23,36c0,0.64,0.12,1.64,0.23,2.93" id="Ske1zkq6fz" kvg:type="㇑" transform="matrix(1,0,0,1,296,-4)" xmlns:kvg="http://kanjivg.tagaini.net"></path><path class="stroke_order_diagram--existing_path" d="M15.81,27.88c5.12-0.6,17.72-1.74,19.1-1.89c1.51-0.16,2.47,1.78,2.36,2.73c-0.24,1.93-0.35,21.93-0.35,36.08c0,1.46-0.12,3.09-0.12,4.05" id="Ske1zkq6f10" kvg:type="㇕a" transform="matrix(1,0,0,1,296,-4)" xmlns:kvg="http://kanjivg.tagaini.net"></path><path class="stroke_order_diagram--existing_path" d="M16.39,46.64c2.68,0,16.56-1.61,19.59-1.61" id="Ske1zkq6f11" kvg:type="㇐a" transform="matrix(1,0,0,1,296,-4)" xmlns:kvg="http://kanjivg.tagaini.net"></path><path class="stroke_order_diagram--current_path" d="M16.04,66.73c3.97,0,14.58-1.29,19.71-1.29" id="kvg:06674-s4" kvg:type="㇐a" transform="matrix(1,0,0,1,296,-4)" xmlns:kvg="http://kanjivg.tagaini.net"></path><path class="stroke_order_diagram--current_path" d="M16.04,66.73c3.97,0,14.58-1.29,19.71-1.29" id="Ske1zkq6f13" kvg:type="㇐a" transform="matrix(1,0,0,1,296,-4)" xmlns:kvg="http://kanjivg.tagaini.net"></path><circle class="stroke_order_diagram--path_start" cx="16.04" cy="66.73" r="4" transform="matrix(1,0,0,1,296,-4)"></circle><line class="stroke_order_diagram--guide_line" x1="450" x2="450" y1="1" y2="99"></line><line class="stroke_order_diagram--bounding_box" x1="499" x2="499" y1="1" y2="99"></line><path class="stroke_order_diagram--existing_path" d="M13.75,26.83c0.96,0.96,1.7,2.45,1.7,3.73c0,1.29-0.23,35.36-0.23,36c0,0.64,0.12,1.64,0.23,2.93" id="Ske1zkq6f16" kvg:type="㇑" transform="matrix(1,0,0,1,396,-4)" xmlns:kvg="http://kanjivg.tagaini.net"></path><path class="stroke_order_diagram--existing_path" d="M15.81,27.88c5.12-0.6,17.72-1.74,19.1-1.89c1.51-0.16,2.47,1.78,2.36,2.73c-0.24,1.93-0.35,21.93-0.35,36.08c0,1.46-0.12,3.09-0.12,4.05" id="Ske1zkq6f17" kvg:type="㇕a" transform="matrix(1,0,0,1,396,-4)" xmlns:kvg="http://kanjivg.tagaini.net"></path><path class="stroke_order_diagram--existing_path" d="M16.39,46.64c2.68,0,16.56-1.61,19.59-1.61" id="Ske1zkq6f18" kvg:type="㇐a" transform="matrix(1,0,0,1,396,-4)" xmlns:kvg="http://kanjivg.tagaini.net"></path><path class="stroke_order_diagram--existing_path" d="M16.04,66.73c3.97,0,14.58-1.29,19.71-1.29" id="Ske1zkq6f19" kvg:type="㇐a" transform="matrix(1,0,0,1,396,-4)" xmlns:kvg="http://kanjivg.tagaini.net"></path><path class="stroke_order_diagram--current_path" d="M50.36,23.41c1.67,0.61,3.55,0.48,5.27,0.28c7.29-0.85,20.21-2.83,27.12-3.54c2.06-0.21,4.13-0.38,6.14,0.26" id="kvg:06674-s5" kvg:type="㇐" transform="matrix(1,0,0,1,396,-4)" xmlns:kvg="http://kanjivg.tagaini.net"></path><path class="stroke_order_diagram--current_path" d="M50.36,23.41c1.67,0.61,3.55,0.48,5.27,0.28c7.29-0.85,20.21-2.83,27.12-3.54c2.06-0.21,4.13-0.38,6.14,0.26" id="Ske1zkq6f1b" kvg:type="㇐" transform="matrix(1,0,0,1,396,-4)" xmlns:kvg="http://kanjivg.tagaini.net"></path><circle class="stroke_order_diagram--path_start" cx="50.36" cy="23.41" r="4" transform="matrix(1,0,0,1,396,-4)"></circle><line class="stroke_order_diagram--guide_line" x1="550" x2="550" y1="1" y2="99"></line><line class="stroke_order_diagram--bounding_box" x1="599" x2="599" y1="1" y2="99"></line><path class="stroke_order_diagram--existing_path" d="M13.75,26.83c0.96,0.96,1.7,2.45,1.7,3.73c0,1.29-0.23,35.36-0.23,36c0,0.64,0.12,1.64,0.23,2.93" id="Ske1zkq6f1e" kvg:type="㇑" transform="matrix(1,0,0,1,496,-4)" xmlns:kvg="http://kanjivg.tagaini.net"></path><path class="stroke_order_diagram--existing_path" d="M15.81,27.88c5.12-0.6,17.72-1.74,19.1-1.89c1.51-0.16,2.47,1.78,2.36,2.73c-0.24,1.93-0.35,21.93-0.35,36.08c0,1.46-0.12,3.09-0.12,4.05" id="Ske1zkq6f1f" kvg:type="㇕a" transform="matrix(1,0,0,1,496,-4)" xmlns:kvg="http://kanjivg.tagaini.net"></path><path class="stroke_order_diagram--existing_path" d="M16.39,46.64c2.68,0,16.56-1.61,19.59-1.61" id="Ske1zkq6f1g" kvg:type="㇐a" transform="matrix(1,0,0,1,496,-4)" xmlns:kvg="http://kanjivg.tagaini.net"></path><path class="stroke_order_diagram--existing_path" d="M16.04,66.73c3.97,0,14.58-1.29,19.71-1.29" id="Ske1zkq6f1h" kvg:type="㇐a" transform="matrix(1,0,0,1,496,-4)" xmlns:kvg="http://kanjivg.tagaini.net"></path><path class="stroke_order_diagram--existing_path" d="M50.36,23.41c1.67,0.61,3.55,0.48,5.27,0.28c7.29-0.85,20.21-2.83,27.12-3.54c2.06-0.21,4.13-0.38,6.14,0.26" id="Ske1zkq6f1i" kvg:type="㇐" transform="matrix(1,0,0,1,496,-4)" xmlns:kvg="http://kanjivg.tagaini.net"></path><path class="stroke_order_diagram--current_path" d="M66.9,9.63c1.3,1.3,1.78,2.62,1.78,3.87c0,0.45-0.01,20.47,0.06,30.49" id="kvg:06674-s6" kvg:type="㇑a" transform="matrix(1,0,0,1,496,-4)" xmlns:kvg="http://kanjivg.tagaini.net"></path><path class="stroke_order_diagram--current_path" d="M66.9,9.63c1.3,1.3,1.78,2.62,1.78,3.87c0,0.45-0.01,20.47,0.06,30.49" id="Ske1zkq6f1k" kvg:type="㇑a" transform="matrix(1,0,0,1,496,-4)" xmlns:kvg="http://kanjivg.tagaini.net"></path><circle class="stroke_order_diagram--path_start" cx="66.9" cy="9.63" r="4" transform="matrix(1,0,0,1,496,-4)"></circle><line class="stroke_order_diagram--guide_line" x1="650" x2="650" y1="1" y2="99"></line><line class="stroke_order_diagram--bounding_box" x1="699" x2="699" y1="1" y2="99"></line><path class="stroke_order_diagram--existing_path" d="M13.75,26.83c0.96,0.96,1.7,2.45,1.7,3.73c0,1.29-0.23,35.36-0.23,36c0,0.64,0.12,1.64,0.23,2.93" id="Ske1zkq6f1n" kvg:type="㇑" transform="matrix(1,0,0,1,596,-4)" xmlns:kvg="http://kanjivg.tagaini.net"></path><path class="stroke_order_diagram--existing_path" d="M15.81,27.88c5.12-0.6,17.72-1.74,19.1-1.89c1.51-0.16,2.47,1.78,2.36,2.73c-0.24,1.93-0.35,21.93-0.35,36.08c0,1.46-0.12,3.09-0.12,4.05" id="Ske1zkq6f1o" kvg:type="㇕a" transform="matrix(1,0,0,1,596,-4)" xmlns:kvg="http://kanjivg.tagaini.net"></path><path class="stroke_order_diagram--existing_path" d="M16.39,46.64c2.68,0,16.56-1.61,19.59-1.61" id="Ske1zkq6f1p" kvg:type="㇐a" transform="matrix(1,0,0,1,596,-4)" xmlns:kvg="http://kanjivg.tagaini.net"></path><path class="stroke_order_diagram--existing_path" d="M16.04,66.73c3.97,0,14.58-1.29,19.71-1.29" id="Ske1zkq6f1q" kvg:type="㇐a" transform="matrix(1,0,0,1,596,-4)" xmlns:kvg="http://kanjivg.tagaini.net"></path><path class="stroke_order_diagram--existing_path" d="M50.36,23.41c1.67,0.61,3.55,0.48,5.27,0.28c7.29-0.85,20.21-2.83,27.12-3.54c2.06-0.21,4.13-0.38,6.14,0.26" id="Ske1zkq6f1r" kvg:type="㇐" transform="matrix(1,0,0,1,596,-4)" xmlns:kvg="http://kanjivg.tagaini.net"></path><path class="stroke_order_diagram--existing_path" d="M66.9,9.63c1.3,1.3,1.78,2.62,1.78,3.87c0,0.45-0.01,20.47,0.06,30.49" id="Ske1zkq6f1s" kvg:type="㇑a" transform="matrix(1,0,0,1,596,-4)" xmlns:kvg="http://kanjivg.tagaini.net"></path><path class="stroke_order_diagram--current_path" d="M52.02,34.52c1.21,0.27,3.43,0.17,4.63,0.02c9.57-1.17,17.91-2.42,26.31-3.29c1.99-0.21,4.17-0.25,5.49-0.02" id="kvg:06674-s7" kvg:type="㇐" transform="matrix(1,0,0,1,596,-4)" xmlns:kvg="http://kanjivg.tagaini.net"></path><path class="stroke_order_diagram--current_path" d="M52.02,34.52c1.21,0.27,3.43,0.17,4.63,0.02c9.57-1.17,17.91-2.42,26.31-3.29c1.99-0.21,4.17-0.25,5.49-0.02" id="Ske1zkq6f1u" kvg:type="㇐" transform="matrix(1,0,0,1,596,-4)" xmlns:kvg="http://kanjivg.tagaini.net"></path><circle class="stroke_order_diagram--path_start" cx="52.02" cy="34.52" r="4" transform="matrix(1,0,0,1,596,-4)"></circle><line class="stroke_order_diagram--guide_line" x1="750" x2="750" y1="1" y2="99"></line><line class="stroke_order_diagram--bounding_box" x1="799" x2="799" y1="1" y2="99"></line><path class="stroke_order_diagram--existing_path" d="M13.75,26.83c0.96,0.96,1.7,2.45,1.7,3.73c0,1.29-0.23,35.36-0.23,36c0,0.64,0.12,1.64,0.23,2.93" id="Ske1zkq6f1x" kvg:type="㇑" transform="matrix(1,0,0,1,696,-4)" xmlns:kvg="http://kanjivg.tagaini.net"></path><path class="stroke_order_diagram--existing_path" d="M15.81,27.88c5.12-0.6,17.72-1.74,19.1-1.89c1.51-0.16,2.47,1.78,2.36,2.73c-0.24,1.93-0.35,21.93-0.35,36.08c0,1.46-0.12,3.09-0.12,4.05" id="Ske1zkq6f1y" kvg:type="㇕a" transform="matrix(1,0,0,1,696,-4)" xmlns:kvg="http://kanjivg.tagaini.net"></path><path class="stroke_order_diagram--existing_path" d="M16.39,46.64c2.68,0,16.56-1.61,19.59-1.61" id="Ske1zkq6f1z" kvg:type="㇐a" transform="matrix(1,0,0,1,696,-4)" xmlns:kvg="http://kanjivg.tagaini.net"></path><path class="stroke_order_diagram--existing_path" d="M16.04,66.73c3.97,0,14.58-1.29,19.71-1.29" id="Ske1zkq6f20" kvg:type="㇐a" transform="matrix(1,0,0,1,696,-4)" xmlns:kvg="http://kanjivg.tagaini.net"></path><path class="stroke_order_diagram--existing_path" d="M50.36,23.41c1.67,0.61,3.55,0.48,5.27,0.28c7.29-0.85,20.21-2.83,27.12-3.54c2.06-0.21,4.13-0.38,6.14,0.26" id="Ske1zkq6f21" kvg:type="㇐" transform="matrix(1,0,0,1,696,-4)" xmlns:kvg="http://kanjivg.tagaini.net"></path><path class="stroke_order_diagram--existing_path" d="M66.9,9.63c1.3,1.3,1.78,2.62,1.78,3.87c0,0.45-0.01,20.47,0.06,30.49" id="Ske1zkq6f22" kvg:type="㇑a" transform="matrix(1,0,0,1,696,-4)" xmlns:kvg="http://kanjivg.tagaini.net"></path><path class="stroke_order_diagram--existing_path" d="M52.02,34.52c1.21,0.27,3.43,0.17,4.63,0.02c9.57-1.17,17.91-2.42,26.31-3.29c1.99-0.21,4.17-0.25,5.49-0.02" id="Ske1zkq6f23" kvg:type="㇐" transform="matrix(1,0,0,1,696,-4)" xmlns:kvg="http://kanjivg.tagaini.net"></path><path class="stroke_order_diagram--current_path" d="M44.63,46.64c2.23,0.56,4.53,0.38,6.78,0.13c10.69-1.19,31.35-3.45,40.46-4.16c2.16-0.17,4.95-0.07,6.88,0.51" id="kvg:06674-s8" kvg:type="㇐" transform="matrix(1,0,0,1,696,-4)" xmlns:kvg="http://kanjivg.tagaini.net"></path><path class="stroke_order_diagram--current_path" d="M44.63,46.64c2.23,0.56,4.53,0.38,6.78,0.13c10.69-1.19,31.35-3.45,40.46-4.16c2.16-0.17,4.95-0.07,6.88,0.51" id="Ske1zkq6f25" kvg:type="㇐" transform="matrix(1,0,0,1,696,-4)" xmlns:kvg="http://kanjivg.tagaini.net"></path><circle class="stroke_order_diagram--path_start" cx="44.63" cy="46.64" r="4" transform="matrix(1,0,0,1,696,-4)"></circle><line class="stroke_order_diagram--guide_line" x1="850" x2="850" y1="1" y2="99"></line><line class="stroke_order_diagram--bounding_box" x1="899" x2="899" y1="1" y2="99"></line><path class="stroke_order_diagram--existing_path" d="M13.75,26.83c0.96,0.96,1.7,2.45,1.7,3.73c0,1.29-0.23,35.36-0.23,36c0,0.64,0.12,1.64,0.23,2.93" id="Ske1zkq6f28" kvg:type="㇑" transform="matrix(1,0,0,1,796,-4)" xmlns:kvg="http://kanjivg.tagaini.net"></path><path class="stroke_order_diagram--existing_path" d="M15.81,27.88c5.12-0.6,17.72-1.74,19.1-1.89c1.51-0.16,2.47,1.78,2.36,2.73c-0.24,1.93-0.35,21.93-0.35,36.08c0,1.46-0.12,3.09-0.12,4.05" id="Ske1zkq6f29" kvg:type="㇕a" transform="matrix(1,0,0,1,796,-4)" xmlns:kvg="http://kanjivg.tagaini.net"></path><path class="stroke_order_diagram--existing_path" d="M16.39,46.64c2.68,0,16.56-1.61,19.59-1.61" id="Ske1zkq6f2a" kvg:type="㇐a" transform="matrix(1,0,0,1,796,-4)" xmlns:kvg="http://kanjivg.tagaini.net"></path><path class="stroke_order_diagram--existing_path" d="M16.04,66.73c3.97,0,14.58-1.29,19.71-1.29" id="Ske1zkq6f2b" kvg:type="㇐a" transform="matrix(1,0,0,1,796,-4)" xmlns:kvg="http://kanjivg.tagaini.net"></path><path class="stroke_order_diagram--existing_path" d="M50.36,23.41c1.67,0.61,3.55,0.48,5.27,0.28c7.29-0.85,20.21-2.83,27.12-3.54c2.06-0.21,4.13-0.38,6.14,0.26" id="Ske1zkq6f2c" kvg:type="㇐" transform="matrix(1,0,0,1,796,-4)" xmlns:kvg="http://kanjivg.tagaini.net"></path><path class="stroke_order_diagram--existing_path" d="M66.9,9.63c1.3,1.3,1.78,2.62,1.78,3.87c0,0.45-0.01,20.47,0.06,30.49" id="Ske1zkq6f2d" kvg:type="㇑a" transform="matrix(1,0,0,1,796,-4)" xmlns:kvg="http://kanjivg.tagaini.net"></path><path class="stroke_order_diagram--existing_path" d="M52.02,34.52c1.21,0.27,3.43,0.17,4.63,0.02c9.57-1.17,17.91-2.42,26.31-3.29c1.99-0.21,4.17-0.25,5.49-0.02" id="Ske1zkq6f2e" kvg:type="㇐" transform="matrix(1,0,0,1,796,-4)" xmlns:kvg="http://kanjivg.tagaini.net"></path><path class="stroke_order_diagram--existing_path" d="M44.63,46.64c2.23,0.56,4.53,0.38,6.78,0.13c10.69-1.19,31.35-3.45,40.46-4.16c2.16-0.17,4.95-0.07,6.88,0.51" id="Ske1zkq6f2f" kvg:type="㇐" transform="matrix(1,0,0,1,796,-4)" xmlns:kvg="http://kanjivg.tagaini.net"></path><path class="stroke_order_diagram--current_path" d="M54.65,54.97c1,1,1.44,2.03,1.44,3.29c0,4-0.06,20.62-0.06,35.76c0,1.73,0,3.36,0,4.72" id="kvg:06674-s9" kvg:type="㇑/㇒" transform="matrix(1,0,0,1,796,-4)" xmlns:kvg="http://kanjivg.tagaini.net"></path><path class="stroke_order_diagram--current_path" d="M54.65,54.97c1,1,1.44,2.03,1.44,3.29c0,4-0.06,20.62-0.06,35.76c0,1.73,0,3.36,0,4.72" id="Ske1zkq6f2h" kvg:type="㇑/㇒" transform="matrix(1,0,0,1,796,-4)" xmlns:kvg="http://kanjivg.tagaini.net"></path><circle class="stroke_order_diagram--path_start" cx="54.65" cy="54.97" r="4" transform="matrix(1,0,0,1,796,-4)"></circle><line class="stroke_order_diagram--guide_line" x1="950" x2="950" y1="1" y2="99"></line><line class="stroke_order_diagram--bounding_box" x1="999" x2="999" y1="1" y2="99"></line><path class="stroke_order_diagram--existing_path" d="M13.75,26.83c0.96,0.96,1.7,2.45,1.7,3.73c0,1.29-0.23,35.36-0.23,36c0,0.64,0.12,1.64,0.23,2.93" id="Ske1zkq6f2k" kvg:type="㇑" transform="matrix(1,0,0,1,896,-4)" xmlns:kvg="http://kanjivg.tagaini.net"></path><path class="stroke_order_diagram--existing_path" d="M15.81,27.88c5.12-0.6,17.72-1.74,19.1-1.89c1.51-0.16,2.47,1.78,2.36,2.73c-0.24,1.93-0.35,21.93-0.35,36.08c0,1.46-0.12,3.09-0.12,4.05" id="Ske1zkq6f2l" kvg:type="㇕a" transform="matrix(1,0,0,1,896,-4)" xmlns:kvg="http://kanjivg.tagaini.net"></path><path class="stroke_order_diagram--existing_path" d="M16.39,46.64c2.68,0,16.56-1.61,19.59-1.61" id="Ske1zkq6f2m" kvg:type="㇐a" transform="matrix(1,0,0,1,896,-4)" xmlns:kvg="http://kanjivg.tagaini.net"></path><path class="stroke_order_diagram--existing_path" d="M16.04,66.73c3.97,0,14.58-1.29,19.71-1.29" id="Ske1zkq6f2n" kvg:type="㇐a" transform="matrix(1,0,0,1,896,-4)" xmlns:kvg="http://kanjivg.tagaini.net"></path><path class="stroke_order_diagram--existing_path" d="M50.36,23.41c1.67,0.61,3.55,0.48,5.27,0.28c7.29-0.85,20.21-2.83,27.12-3.54c2.06-0.21,4.13-0.38,6.14,0.26" id="Ske1zkq6f2o" kvg:type="㇐" transform="matrix(1,0,0,1,896,-4)" xmlns:kvg="http://kanjivg.tagaini.net"></path><path class="stroke_order_diagram--existing_path" d="M66.9,9.63c1.3,1.3,1.78,2.62,1.78,3.87c0,0.45-0.01,20.47,0.06,30.49" id="Ske1zkq6f2p" kvg:type="㇑a" transform="matrix(1,0,0,1,896,-4)" xmlns:kvg="http://kanjivg.tagaini.net"></path><path class="stroke_order_diagram--existing_path" d="M52.02,34.52c1.21,0.27,3.43,0.17,4.63,0.02c9.57-1.17,17.91-2.42,26.31-3.29c1.99-0.21,4.17-0.25,5.49-0.02" id="Ske1zkq6f2q" kvg:type="㇐" transform="matrix(1,0,0,1,896,-4)" xmlns:kvg="http://kanjivg.tagaini.net"></path><path class="stroke_order_diagram--existing_path" d="M44.63,46.64c2.23,0.56,4.53,0.38,6.78,0.13c10.69-1.19,31.35-3.45,40.46-4.16c2.16-0.17,4.95-0.07,6.88,0.51" id="Ske1zkq6f2r" kvg:type="㇐" transform="matrix(1,0,0,1,896,-4)" xmlns:kvg="http://kanjivg.tagaini.net"></path><path class="stroke_order_diagram--existing_path" d="M54.65,54.97c1,1,1.44,2.03,1.44,3.29c0,4-0.06,20.62-0.06,35.76c0,1.73,0,3.36,0,4.72" id="Ske1zkq6f2s" kvg:type="㇑/㇒" transform="matrix(1,0,0,1,896,-4)" xmlns:kvg="http://kanjivg.tagaini.net"></path><path class="stroke_order_diagram--current_path" d="M56.79,56.11c7.06-0.88,25.13-3.24,26.51-3.37c3.18-0.3,3.97,1.01,3.97,3.33c0,2.94-0.6,25.77-0.6,37.83c0,8.61-3.43,3.36-5.75,0.84" id="kvg:06674-s10" kvg:type="㇆a" transform="matrix(1,0,0,1,896,-4)" xmlns:kvg="http://kanjivg.tagaini.net"></path><path class="stroke_order_diagram--current_path" d="M56.79,56.11c7.06-0.88,25.13-3.24,26.51-3.37c3.18-0.3,3.97,1.01,3.97,3.33c0,2.94-0.6,25.77-0.6,37.83c0,8.61-3.43,3.36-5.75,0.84" id="Ske1zkq6f2u" kvg:type="㇆a" transform="matrix(1,0,0,1,896,-4)" xmlns:kvg="http://kanjivg.tagaini.net"></path><circle class="stroke_order_diagram--path_start" cx="56.79" cy="56.11" r="4" transform="matrix(1,0,0,1,896,-4)"></circle><line class="stroke_order_diagram--guide_line" x1="1050" x2="1050" y1="1" y2="99"></line><line class="stroke_order_diagram--bounding_box" x1="1099" x2="1099" y1="1" y2="99"></line><path class="stroke_order_diagram--existing_path" d="M13.75,26.83c0.96,0.96,1.7,2.45,1.7,3.73c0,1.29-0.23,35.36-0.23,36c0,0.64,0.12,1.64,0.23,2.93" id="Ske1zkq6f2x" kvg:type="㇑" transform="matrix(1,0,0,1,996,-4)" xmlns:kvg="http://kanjivg.tagaini.net"></path><path class="stroke_order_diagram--existing_path" d="M15.81,27.88c5.12-0.6,17.72-1.74,19.1-1.89c1.51-0.16,2.47,1.78,2.36,2.73c-0.24,1.93-0.35,21.93-0.35,36.08c0,1.46-0.12,3.09-0.12,4.05" id="Ske1zkq6f2y" kvg:type="㇕a" transform="matrix(1,0,0,1,996,-4)" xmlns:kvg="http://kanjivg.tagaini.net"></path><path class="stroke_order_diagram--existing_path" d="M16.39,46.64c2.68,0,16.56-1.61,19.59-1.61" id="Ske1zkq6f2z" kvg:type="㇐a" transform="matrix(1,0,0,1,996,-4)" xmlns:kvg="http://kanjivg.tagaini.net"></path><path class="stroke_order_diagram--existing_path" d="M16.04,66.73c3.97,0,14.58-1.29,19.71-1.29" id="Ske1zkq6f30" kvg:type="㇐a" transform="matrix(1,0,0,1,996,-4)" xmlns:kvg="http://kanjivg.tagaini.net"></path><path class="stroke_order_diagram--existing_path" d="M50.36,23.41c1.67,0.61,3.55,0.48,5.27,0.28c7.29-0.85,20.21-2.83,27.12-3.54c2.06-0.21,4.13-0.38,6.14,0.26" id="Ske1zkq6f31" kvg:type="㇐" transform="matrix(1,0,0,1,996,-4)" xmlns:kvg="http://kanjivg.tagaini.net"></path><path class="stroke_order_diagram--existing_path" d="M66.9,9.63c1.3,1.3,1.78,2.62,1.78,3.87c0,0.45-0.01,20.47,0.06,30.49" id="Ske1zkq6f32" kvg:type="㇑a" transform="matrix(1,0,0,1,996,-4)" xmlns:kvg="http://kanjivg.tagaini.net"></path><path class="stroke_order_diagram--existing_path" d="M52.02,34.52c1.21,0.27,3.43,0.17,4.63,0.02c9.57-1.17,17.91-2.42,26.31-3.29c1.99-0.21,4.17-0.25,5.49-0.02" id="Ske1zkq6f33" kvg:type="㇐" transform="matrix(1,0,0,1,996,-4)" xmlns:kvg="http://kanjivg.tagaini.net"></path><path class="stroke_order_diagram--existing_path" d="M44.63,46.64c2.23,0.56,4.53,0.38,6.78,0.13c10.69-1.19,31.35-3.45,40.46-4.16c2.16-0.17,4.95-0.07,6.88,0.51" id="Ske1zkq6f34" kvg:type="㇐" transform="matrix(1,0,0,1,996,-4)" xmlns:kvg="http://kanjivg.tagaini.net"></path><path class="stroke_order_diagram--existing_path" d="M54.65,54.97c1,1,1.44,2.03,1.44,3.29c0,4-0.06,20.62-0.06,35.76c0,1.73,0,3.36,0,4.72" id="Ske1zkq6f35" kvg:type="㇑/㇒" transform="matrix(1,0,0,1,996,-4)" xmlns:kvg="http://kanjivg.tagaini.net"></path><path class="stroke_order_diagram--existing_path" d="M56.79,56.11c7.06-0.88,25.13-3.24,26.51-3.37c3.18-0.3,3.97,1.01,3.97,3.33c0,2.94-0.6,25.77-0.6,37.83c0,8.61-3.43,3.36-5.75,0.84" id="Ske1zkq6f36" kvg:type="㇆a" transform="matrix(1,0,0,1,996,-4)" xmlns:kvg="http://kanjivg.tagaini.net"></path><path class="stroke_order_diagram--current_path" d="M57.28,67.03c5.09-0.53,20.97-1.9,28.6-2.43" id="kvg:06674-s11" kvg:type="㇐a" transform="matrix(1,0,0,1,996,-4)" xmlns:kvg="http://kanjivg.tagaini.net"></path><path class="stroke_order_diagram--current_path" d="M57.28,67.03c5.09-0.53,20.97-1.9,28.6-2.43" id="Ske1zkq6f38" kvg:type="㇐a" transform="matrix(1,0,0,1,996,-4)" xmlns:kvg="http://kanjivg.tagaini.net"></path><circle class="stroke_order_diagram--path_start" cx="57.28" cy="67.03" r="4" transform="matrix(1,0,0,1,996,-4)"></circle><line class="stroke_order_diagram--guide_line" x1="1150" x2="1150" y1="1" y2="99"></line><line class="stroke_order_diagram--bounding_box" x1="1199" x2="1199" y1="1" y2="99"></line><path class="stroke_order_diagram--existing_path" d="M13.75,26.83c0.96,0.96,1.7,2.45,1.7,3.73c0,1.29-0.23,35.36-0.23,36c0,0.64,0.12,1.64,0.23,2.93" id="Ske1zkq6f3b" kvg:type="㇑" transform="matrix(1,0,0,1,1096,-4)" xmlns:kvg="http://kanjivg.tagaini.net"></path><path class="stroke_order_diagram--existing_path" d="M15.81,27.88c5.12-0.6,17.72-1.74,19.1-1.89c1.51-0.16,2.47,1.78,2.36,2.73c-0.24,1.93-0.35,21.93-0.35,36.08c0,1.46-0.12,3.09-0.12,4.05" id="Ske1zkq6f3c" kvg:type="㇕a" transform="matrix(1,0,0,1,1096,-4)" xmlns:kvg="http://kanjivg.tagaini.net"></path><path class="stroke_order_diagram--existing_path" d="M16.39,46.64c2.68,0,16.56-1.61,19.59-1.61" id="Ske1zkq6f3d" kvg:type="㇐a" transform="matrix(1,0,0,1,1096,-4)" xmlns:kvg="http://kanjivg.tagaini.net"></path><path class="stroke_order_diagram--existing_path" d="M16.04,66.73c3.97,0,14.58-1.29,19.71-1.29" id="Ske1zkq6f3e" kvg:type="㇐a" transform="matrix(1,0,0,1,1096,-4)" xmlns:kvg="http://kanjivg.tagaini.net"></path><path class="stroke_order_diagram--existing_path" d="M50.36,23.41c1.67,0.61,3.55,0.48,5.27,0.28c7.29-0.85,20.21-2.83,27.12-3.54c2.06-0.21,4.13-0.38,6.14,0.26" id="Ske1zkq6f3f" kvg:type="㇐" transform="matrix(1,0,0,1,1096,-4)" xmlns:kvg="http://kanjivg.tagaini.net"></path><path class="stroke_order_diagram--existing_path" d="M66.9,9.63c1.3,1.3,1.78,2.62,1.78,3.87c0,0.45-0.01,20.47,0.06,30.49" id="Ske1zkq6f3g" kvg:type="㇑a" transform="matrix(1,0,0,1,1096,-4)" xmlns:kvg="http://kanjivg.tagaini.net"></path><path class="stroke_order_diagram--existing_path" d="M52.02,34.52c1.21,0.27,3.43,0.17,4.63,0.02c9.57-1.17,17.91-2.42,26.31-3.29c1.99-0.21,4.17-0.25,5.49-0.02" id="Ske1zkq6f3h" kvg:type="㇐" transform="matrix(1,0,0,1,1096,-4)" xmlns:kvg="http://kanjivg.tagaini.net"></path><path class="stroke_order_diagram--existing_path" d="M44.63,46.64c2.23,0.56,4.53,0.38,6.78,0.13c10.69-1.19,31.35-3.45,40.46-4.16c2.16-0.17,4.95-0.07,6.88,0.51" id="Ske1zkq6f3i" kvg:type="㇐" transform="matrix(1,0,0,1,1096,-4)" xmlns:kvg="http://kanjivg.tagaini.net"></path><path class="stroke_order_diagram--existing_path" d="M54.65,54.97c1,1,1.44,2.03,1.44,3.29c0,4-0.06,20.62-0.06,35.76c0,1.73,0,3.36,0,4.72" id="Ske1zkq6f3j" kvg:type="㇑/㇒" transform="matrix(1,0,0,1,1096,-4)" xmlns:kvg="http://kanjivg.tagaini.net"></path><path class="stroke_order_diagram--existing_path" d="M56.79,56.11c7.06-0.88,25.13-3.24,26.51-3.37c3.18-0.3,3.97,1.01,3.97,3.33c0,2.94-0.6,25.77-0.6,37.83c0,8.61-3.43,3.36-5.75,0.84" id="Ske1zkq6f3k" kvg:type="㇆a" transform="matrix(1,0,0,1,1096,-4)" xmlns:kvg="http://kanjivg.tagaini.net"></path><path class="stroke_order_diagram--existing_path" d="M57.28,67.03c5.09-0.53,20.97-1.9,28.6-2.43" id="Ske1zkq6f3l" kvg:type="㇐a" transform="matrix(1,0,0,1,1096,-4)" xmlns:kvg="http://kanjivg.tagaini.net"></path><path class="stroke_order_diagram--current_path" d="M57.88,79.02c6.12-0.4,19.37-1.77,27.61-2.08" id="kvg:06674-s12" kvg:type="㇐a" transform="matrix(1,0,0,1,1096,-4)" xmlns:kvg="http://kanjivg.tagaini.net"></path><path class="stroke_order_diagram--current_path" d="M57.88,79.02c6.12-0.4,19.37-1.77,27.61-2.08" id="Ske1zkq6f3n" kvg:type="㇐a" transform="matrix(1,0,0,1,1096,-4)" xmlns:kvg="http://kanjivg.tagaini.net"></path><circle class="stroke_order_diagram--path_start" cx="57.88" cy="79.02" r="4" transform="matrix(1,0,0,1,1096,-4)"></circle></svg>