<svg class="stroke_order_diagram--svg_container_for_51866291d5dda79658000852" style="height: 100px; width: 1600px;" viewbox="0 0 1600 100"><desc>Created with Snap</desc><defs></defs><line class="stroke_order_diagram--bounding_box" x1="1" x2="1599" y1="1" y2="1"></line><line class="stroke_order_diagram--bounding_box" x1="1" x2="1" y1="1" y2="99"></line><line class="stroke_order_diagram--bounding_box" x1="1" x2="1599" y1="99" y2="99"></line><line class="stroke_order_diagram--guide_line" x1="0" x2="1600" y1="50" y2="50"></line><line class="stroke_order_diagram--guide_line" x1="50" x2="50" y1="1" y2="99"></line><line class="stroke_order_diagram--bounding_box" x1="99" x2="99" y1="1" y2="99"></line><path class="stroke_order_diagram--current_path" d="M31.45,13.2c0.67,0.67,1.11,1.53,1.31,2.25c1.61,5.79,1.99,8.08,3.17,13.26c0.27,1.19,0.63,2.35,0.8,3.49" id="kvg:066c7-s1" kvg:type="㇑" transform="matrix(1,0,0,1,-4,-4)" xmlns:kvg="http://kanjivg.tagaini.net"></path><path class="stroke_order_diagram--current_path" d="M31.45,13.2c0.67,0.67,1.11,1.53,1.31,2.25c1.61,5.79,1.99,8.08,3.17,13.26c0.27,1.19,0.63,2.35,0.8,3.49" id="Ske24zuujp" kvg:type="㇑" transform="matrix(1,0,0,1,-4,-4)" xmlns:kvg="http://kanjivg.tagaini.net"></path><circle class="stroke_order_diagram--path_start" cx="31.45" cy="13.2" r="4" transform="matrix(1,0,0,1,-4,-4)"></circle><line class="stroke_order_diagram--guide_line" x1="150" x2="150" y1="1" y2="99"></line><line class="stroke_order_diagram--bounding_box" x1="199" x2="199" y1="1" y2="99"></line><path class="stroke_order_diagram--existing_path" d="M31.45,13.2c0.67,0.67,1.11,1.53,1.31,2.25c1.61,5.79,1.99,8.08,3.17,13.26c0.27,1.19,0.63,2.35,0.8,3.49" id="Ske24zuujs" kvg:type="㇑" transform="matrix(1,0,0,1,96,-4)" xmlns:kvg="http://kanjivg.tagaini.net"></path><path class="stroke_order_diagram--current_path" d="M32.88,14.14C46.5,12.62,62.94,11.21,71,10.52c2.67-0.23,4.62,0.91,4.21,3.74c-0.37,2.55-1.47,6.75-2.52,10.79c-0.41,1.55-0.8,3.08-1.15,4.48" id="kvg:066c7-s2" kvg:type="㇕a" transform="matrix(1,0,0,1,96,-4)" xmlns:kvg="http://kanjivg.tagaini.net"></path><path class="stroke_order_diagram--current_path" d="M32.88,14.14C46.5,12.62,62.94,11.21,71,10.52c2.67-0.23,4.62,0.91,4.21,3.74c-0.37,2.55-1.47,6.75-2.52,10.79c-0.41,1.55-0.8,3.08-1.15,4.48" id="Ske24zuuju" kvg:type="㇕a" transform="matrix(1,0,0,1,96,-4)" xmlns:kvg="http://kanjivg.tagaini.net"></path><circle class="stroke_order_diagram--path_start" cx="32.88" cy="14.14" r="4" transform="matrix(1,0,0,1,96,-4)"></circle><line class="stroke_order_diagram--guide_line" x1="250" x2="250" y1="1" y2="99"></line><line class="stroke_order_diagram--bounding_box" x1="299" x2="299" y1="1" y2="99"></line><path class="stroke_order_diagram--existing_path" d="M31.45,13.2c0.67,0.67,1.11,1.53,1.31,2.25c1.61,5.79,1.99,8.08,3.17,13.26c0.27,1.19,0.63,2.35,0.8,3.49" id="Ske24zuujx" kvg:type="㇑" transform="matrix(1,0,0,1,196,-4)" xmlns:kvg="http://kanjivg.tagaini.net"></path><path class="stroke_order_diagram--existing_path" d="M32.88,14.14C46.5,12.62,62.94,11.21,71,10.52c2.67-0.23,4.62,0.91,4.21,3.74c-0.37,2.55-1.47,6.75-2.52,10.79c-0.41,1.55-0.8,3.08-1.15,4.48" id="Ske24zuujy" kvg:type="㇕a" transform="matrix(1,0,0,1,196,-4)" xmlns:kvg="http://kanjivg.tagaini.net"></path><path class="stroke_order_diagram--current_path" d="M35.88,21.95c8.24-1.08,30.12-2.83,37.07-3.02" id="kvg:066c7-s3" kvg:type="㇐a" transform="matrix(1,0,0,1,196,-4)" xmlns:kvg="http://kanjivg.tagaini.net"></path><path class="stroke_order_diagram--current_path" d="M35.88,21.95c8.24-1.08,30.12-2.83,37.07-3.02" id="Ske24zuuj10" kvg:type="㇐a" transform="matrix(1,0,0,1,196,-4)" xmlns:kvg="http://kanjivg.tagaini.net"></path><circle class="stroke_order_diagram--path_start" cx="35.88" cy="21.95" r="4" transform="matrix(1,0,0,1,196,-4)"></circle><line class="stroke_order_diagram--guide_line" x1="350" x2="350" y1="1" y2="99"></line><line class="stroke_order_diagram--bounding_box" x1="399" x2="399" y1="1" y2="99"></line><path class="stroke_order_diagram--existing_path" d="M31.45,13.2c0.67,0.67,1.11,1.53,1.31,2.25c1.61,5.79,1.99,8.08,3.17,13.26c0.27,1.19,0.63,2.35,0.8,3.49" id="Ske24zuuj13" kvg:type="㇑" transform="matrix(1,0,0,1,296,-4)" xmlns:kvg="http://kanjivg.tagaini.net"></path><path class="stroke_order_diagram--existing_path" d="M32.88,14.14C46.5,12.62,62.94,11.21,71,10.52c2.67-0.23,4.62,0.91,4.21,3.74c-0.37,2.55-1.47,6.75-2.52,10.79c-0.41,1.55-0.8,3.08-1.15,4.48" id="Ske24zuuj14" kvg:type="㇕a" transform="matrix(1,0,0,1,296,-4)" xmlns:kvg="http://kanjivg.tagaini.net"></path><path class="stroke_order_diagram--existing_path" d="M35.88,21.95c8.24-1.08,30.12-2.83,37.07-3.02" id="Ske24zuuj15" kvg:type="㇐a" transform="matrix(1,0,0,1,296,-4)" xmlns:kvg="http://kanjivg.tagaini.net"></path><path class="stroke_order_diagram--current_path" d="M37.53,30.33c8.1-0.71,23.43-2.15,33.47-2.83" id="kvg:066c7-s4" kvg:type="㇐a" transform="matrix(1,0,0,1,296,-4)" xmlns:kvg="http://kanjivg.tagaini.net"></path><path class="stroke_order_diagram--current_path" d="M37.53,30.33c8.1-0.71,23.43-2.15,33.47-2.83" id="Ske24zuuj17" kvg:type="㇐a" transform="matrix(1,0,0,1,296,-4)" xmlns:kvg="http://kanjivg.tagaini.net"></path><circle class="stroke_order_diagram--path_start" cx="37.53" cy="30.33" r="4" transform="matrix(1,0,0,1,296,-4)"></circle><line class="stroke_order_diagram--guide_line" x1="450" x2="450" y1="1" y2="99"></line><line class="stroke_order_diagram--bounding_box" x1="499" x2="499" y1="1" y2="99"></line><path class="stroke_order_diagram--existing_path" d="M31.45,13.2c0.67,0.67,1.11,1.53,1.31,2.25c1.61,5.79,1.99,8.08,3.17,13.26c0.27,1.19,0.63,2.35,0.8,3.49" id="Ske24zuuj1a" kvg:type="㇑" transform="matrix(1,0,0,1,396,-4)" xmlns:kvg="http://kanjivg.tagaini.net"></path><path class="stroke_order_diagram--existing_path" d="M32.88,14.14C46.5,12.62,62.94,11.21,71,10.52c2.67-0.23,4.62,0.91,4.21,3.74c-0.37,2.55-1.47,6.75-2.52,10.79c-0.41,1.55-0.8,3.08-1.15,4.48" id="Ske24zuuj1b" kvg:type="㇕a" transform="matrix(1,0,0,1,396,-4)" xmlns:kvg="http://kanjivg.tagaini.net"></path><path class="stroke_order_diagram--existing_path" d="M35.88,21.95c8.24-1.08,30.12-2.83,37.07-3.02" id="Ske24zuuj1c" kvg:type="㇐a" transform="matrix(1,0,0,1,396,-4)" xmlns:kvg="http://kanjivg.tagaini.net"></path><path class="stroke_order_diagram--existing_path" d="M37.53,30.33c8.1-0.71,23.43-2.15,33.47-2.83" id="Ske24zuuj1d" kvg:type="㇐a" transform="matrix(1,0,0,1,396,-4)" xmlns:kvg="http://kanjivg.tagaini.net"></path><path class="stroke_order_diagram--current_path" d="M34.21,39.56c2.2,0.23,4.24,0.08,6.42-0.18c5.47-0.67,16.34-1.84,25.25-2.39c2.12-0.13,4.26-0.3,6.37-0.03" id="kvg:066c7-s5" kvg:type="㇐" transform="matrix(1,0,0,1,396,-4)" xmlns:kvg="http://kanjivg.tagaini.net"></path><path class="stroke_order_diagram--current_path" d="M34.21,39.56c2.2,0.23,4.24,0.08,6.42-0.18c5.47-0.67,16.34-1.84,25.25-2.39c2.12-0.13,4.26-0.3,6.37-0.03" id="Ske24zuuj1f" kvg:type="㇐" transform="matrix(1,0,0,1,396,-4)" xmlns:kvg="http://kanjivg.tagaini.net"></path><circle class="stroke_order_diagram--path_start" cx="34.21" cy="39.56" r="4" transform="matrix(1,0,0,1,396,-4)"></circle><line class="stroke_order_diagram--guide_line" x1="550" x2="550" y1="1" y2="99"></line><line class="stroke_order_diagram--bounding_box" x1="599" x2="599" y1="1" y2="99"></line><path class="stroke_order_diagram--existing_path" d="M31.45,13.2c0.67,0.67,1.11,1.53,1.31,2.25c1.61,5.79,1.99,8.08,3.17,13.26c0.27,1.19,0.63,2.35,0.8,3.49" id="Ske24zuuj1i" kvg:type="㇑" transform="matrix(1,0,0,1,496,-4)" xmlns:kvg="http://kanjivg.tagaini.net"></path><path class="stroke_order_diagram--existing_path" d="M32.88,14.14C46.5,12.62,62.94,11.21,71,10.52c2.67-0.23,4.62,0.91,4.21,3.74c-0.37,2.55-1.47,6.75-2.52,10.79c-0.41,1.55-0.8,3.08-1.15,4.48" id="Ske24zuuj1j" kvg:type="㇕a" transform="matrix(1,0,0,1,496,-4)" xmlns:kvg="http://kanjivg.tagaini.net"></path><path class="stroke_order_diagram--existing_path" d="M35.88,21.95c8.24-1.08,30.12-2.83,37.07-3.02" id="Ske24zuuj1k" kvg:type="㇐a" transform="matrix(1,0,0,1,496,-4)" xmlns:kvg="http://kanjivg.tagaini.net"></path><path class="stroke_order_diagram--existing_path" d="M37.53,30.33c8.1-0.71,23.43-2.15,33.47-2.83" id="Ske24zuuj1l" kvg:type="㇐a" transform="matrix(1,0,0,1,496,-4)" xmlns:kvg="http://kanjivg.tagaini.net"></path><path class="stroke_order_diagram--existing_path" d="M34.21,39.56c2.2,0.23,4.24,0.08,6.42-0.18c5.47-0.67,16.34-1.84,25.25-2.39c2.12-0.13,4.26-0.3,6.37-0.03" id="Ske24zuuj1m" kvg:type="㇐" transform="matrix(1,0,0,1,496,-4)" xmlns:kvg="http://kanjivg.tagaini.net"></path><path class="stroke_order_diagram--current_path" d="M21.1,48.77c-0.2,5.28-1.95,10.09-3.22,15.35" id="kvg:066c7-s6" kvg:type="㇔/㇑" transform="matrix(1,0,0,1,496,-4)" xmlns:kvg="http://kanjivg.tagaini.net"></path><path class="stroke_order_diagram--current_path" d="M21.1,48.77c-0.2,5.28-1.95,10.09-3.22,15.35" id="Ske24zuuj1o" kvg:type="㇔/㇑" transform="matrix(1,0,0,1,496,-4)" xmlns:kvg="http://kanjivg.tagaini.net"></path><circle class="stroke_order_diagram--path_start" cx="21.1" cy="48.77" r="4" transform="matrix(1,0,0,1,496,-4)"></circle><line class="stroke_order_diagram--guide_line" x1="650" x2="650" y1="1" y2="99"></line><line class="stroke_order_diagram--bounding_box" x1="699" x2="699" y1="1" y2="99"></line><path class="stroke_order_diagram--existing_path" d="M31.45,13.2c0.67,0.67,1.11,1.53,1.31,2.25c1.61,5.79,1.99,8.08,3.17,13.26c0.27,1.19,0.63,2.35,0.8,3.49" id="Ske24zuuj1r" kvg:type="㇑" transform="matrix(1,0,0,1,596,-4)" xmlns:kvg="http://kanjivg.tagaini.net"></path><path class="stroke_order_diagram--existing_path" d="M32.88,14.14C46.5,12.62,62.94,11.21,71,10.52c2.67-0.23,4.62,0.91,4.21,3.74c-0.37,2.55-1.47,6.75-2.52,10.79c-0.41,1.55-0.8,3.08-1.15,4.48" id="Ske24zuuj1s" kvg:type="㇕a" transform="matrix(1,0,0,1,596,-4)" xmlns:kvg="http://kanjivg.tagaini.net"></path><path class="stroke_order_diagram--existing_path" d="M35.88,21.95c8.24-1.08,30.12-2.83,37.07-3.02" id="Ske24zuuj1t" kvg:type="㇐a" transform="matrix(1,0,0,1,596,-4)" xmlns:kvg="http://kanjivg.tagaini.net"></path><path class="stroke_order_diagram--existing_path" d="M37.53,30.33c8.1-0.71,23.43-2.15,33.47-2.83" id="Ske24zuuj1u" kvg:type="㇐a" transform="matrix(1,0,0,1,596,-4)" xmlns:kvg="http://kanjivg.tagaini.net"></path><path class="stroke_order_diagram--existing_path" d="M34.21,39.56c2.2,0.23,4.24,0.08,6.42-0.18c5.47-0.67,16.34-1.84,25.25-2.39c2.12-0.13,4.26-0.3,6.37-0.03" id="Ske24zuuj1v" kvg:type="㇐" transform="matrix(1,0,0,1,596,-4)" xmlns:kvg="http://kanjivg.tagaini.net"></path><path class="stroke_order_diagram--existing_path" d="M21.1,48.77c-0.2,5.28-1.95,10.09-3.22,15.35" id="Ske24zuuj1w" kvg:type="㇔/㇑" transform="matrix(1,0,0,1,596,-4)" xmlns:kvg="http://kanjivg.tagaini.net"></path><path class="stroke_order_diagram--current_path" d="M22.25,51.4c17.62-2.03,49-5.13,63.5-5.51c11.49-0.3,1.54,6.18,0.25,7.5" id="kvg:066c7-s7" kvg:type="㇖b/㇆" transform="matrix(1,0,0,1,596,-4)" xmlns:kvg="http://kanjivg.tagaini.net"></path><path class="stroke_order_diagram--current_path" d="M22.25,51.4c17.62-2.03,49-5.13,63.5-5.51c11.49-0.3,1.54,6.18,0.25,7.5" id="Ske24zuuj1y" kvg:type="㇖b/㇆" transform="matrix(1,0,0,1,596,-4)" xmlns:kvg="http://kanjivg.tagaini.net"></path><circle class="stroke_order_diagram--path_start" cx="22.25" cy="51.4" r="4" transform="matrix(1,0,0,1,596,-4)"></circle><line class="stroke_order_diagram--guide_line" x1="750" x2="750" y1="1" y2="99"></line><line class="stroke_order_diagram--bounding_box" x1="799" x2="799" y1="1" y2="99"></line><path class="stroke_order_diagram--existing_path" d="M31.45,13.2c0.67,0.67,1.11,1.53,1.31,2.25c1.61,5.79,1.99,8.08,3.17,13.26c0.27,1.19,0.63,2.35,0.8,3.49" id="Ske24zuuj21" kvg:type="㇑" transform="matrix(1,0,0,1,696,-4)" xmlns:kvg="http://kanjivg.tagaini.net"></path><path class="stroke_order_diagram--existing_path" d="M32.88,14.14C46.5,12.62,62.94,11.21,71,10.52c2.67-0.23,4.62,0.91,4.21,3.74c-0.37,2.55-1.47,6.75-2.52,10.79c-0.41,1.55-0.8,3.08-1.15,4.48" id="Ske24zuuj22" kvg:type="㇕a" transform="matrix(1,0,0,1,696,-4)" xmlns:kvg="http://kanjivg.tagaini.net"></path><path class="stroke_order_diagram--existing_path" d="M35.88,21.95c8.24-1.08,30.12-2.83,37.07-3.02" id="Ske24zuuj23" kvg:type="㇐a" transform="matrix(1,0,0,1,696,-4)" xmlns:kvg="http://kanjivg.tagaini.net"></path><path class="stroke_order_diagram--existing_path" d="M37.53,30.33c8.1-0.71,23.43-2.15,33.47-2.83" id="Ske24zuuj24" kvg:type="㇐a" transform="matrix(1,0,0,1,696,-4)" xmlns:kvg="http://kanjivg.tagaini.net"></path><path class="stroke_order_diagram--existing_path" d="M34.21,39.56c2.2,0.23,4.24,0.08,6.42-0.18c5.47-0.67,16.34-1.84,25.25-2.39c2.12-0.13,4.26-0.3,6.37-0.03" id="Ske24zuuj25" kvg:type="㇐" transform="matrix(1,0,0,1,696,-4)" xmlns:kvg="http://kanjivg.tagaini.net"></path><path class="stroke_order_diagram--existing_path" d="M21.1,48.77c-0.2,5.28-1.95,10.09-3.22,15.35" id="Ske24zuuj26" kvg:type="㇔/㇑" transform="matrix(1,0,0,1,696,-4)" xmlns:kvg="http://kanjivg.tagaini.net"></path><path class="stroke_order_diagram--existing_path" d="M22.25,51.4c17.62-2.03,49-5.13,63.5-5.51c11.49-0.3,1.54,6.18,0.25,7.5" id="Ske24zuuj27" kvg:type="㇖b/㇆" transform="matrix(1,0,0,1,696,-4)" xmlns:kvg="http://kanjivg.tagaini.net"></path><path class="stroke_order_diagram--current_path" d="M51.48,40.25c1.07,1.07,1.57,2.5,1.57,3.78c0,1.38,0.03,9.99,0.04,15.59c0.01,2.74,0.02,4.76,0.02,4.87" id="kvg:066c7-s8" kvg:type="㇑" transform="matrix(1,0,0,1,696,-4)" xmlns:kvg="http://kanjivg.tagaini.net"></path><path class="stroke_order_diagram--current_path" d="M51.48,40.25c1.07,1.07,1.57,2.5,1.57,3.78c0,1.38,0.03,9.99,0.04,15.59c0.01,2.74,0.02,4.76,0.02,4.87" id="Ske24zuuj29" kvg:type="㇑" transform="matrix(1,0,0,1,696,-4)" xmlns:kvg="http://kanjivg.tagaini.net"></path><circle class="stroke_order_diagram--path_start" cx="51.48" cy="40.25" r="4" transform="matrix(1,0,0,1,696,-4)"></circle><line class="stroke_order_diagram--guide_line" x1="850" x2="850" y1="1" y2="99"></line><line class="stroke_order_diagram--bounding_box" x1="899" x2="899" y1="1" y2="99"></line><path class="stroke_order_diagram--existing_path" d="M31.45,13.2c0.67,0.67,1.11,1.53,1.31,2.25c1.61,5.79,1.99,8.08,3.17,13.26c0.27,1.19,0.63,2.35,0.8,3.49" id="Ske24zuuj2c" kvg:type="㇑" transform="matrix(1,0,0,1,796,-4)" xmlns:kvg="http://kanjivg.tagaini.net"></path><path class="stroke_order_diagram--existing_path" d="M32.88,14.14C46.5,12.62,62.94,11.21,71,10.52c2.67-0.23,4.62,0.91,4.21,3.74c-0.37,2.55-1.47,6.75-2.52,10.79c-0.41,1.55-0.8,3.08-1.15,4.48" id="Ske24zuuj2d" kvg:type="㇕a" transform="matrix(1,0,0,1,796,-4)" xmlns:kvg="http://kanjivg.tagaini.net"></path><path class="stroke_order_diagram--existing_path" d="M35.88,21.95c8.24-1.08,30.12-2.83,37.07-3.02" id="Ske24zuuj2e" kvg:type="㇐a" transform="matrix(1,0,0,1,796,-4)" xmlns:kvg="http://kanjivg.tagaini.net"></path><path class="stroke_order_diagram--existing_path" d="M37.53,30.33c8.1-0.71,23.43-2.15,33.47-2.83" id="Ske24zuuj2f" kvg:type="㇐a" transform="matrix(1,0,0,1,796,-4)" xmlns:kvg="http://kanjivg.tagaini.net"></path><path class="stroke_order_diagram--existing_path" d="M34.21,39.56c2.2,0.23,4.24,0.08,6.42-0.18c5.47-0.67,16.34-1.84,25.25-2.39c2.12-0.13,4.26-0.3,6.37-0.03" id="Ske24zuuj2g" kvg:type="㇐" transform="matrix(1,0,0,1,796,-4)" xmlns:kvg="http://kanjivg.tagaini.net"></path><path class="stroke_order_diagram--existing_path" d="M21.1,48.77c-0.2,5.28-1.95,10.09-3.22,15.35" id="Ske24zuuj2h" kvg:type="㇔/㇑" transform="matrix(1,0,0,1,796,-4)" xmlns:kvg="http://kanjivg.tagaini.net"></path><path class="stroke_order_diagram--existing_path" d="M22.25,51.4c17.62-2.03,49-5.13,63.5-5.51c11.49-0.3,1.54,6.18,0.25,7.5" id="Ske24zuuj2i" kvg:type="㇖b/㇆" transform="matrix(1,0,0,1,796,-4)" xmlns:kvg="http://kanjivg.tagaini.net"></path><path class="stroke_order_diagram--existing_path" d="M51.48,40.25c1.07,1.07,1.57,2.5,1.57,3.78c0,1.38,0.03,9.99,0.04,15.59c0.01,2.74,0.02,4.76,0.02,4.87" id="Ske24zuuj2j" kvg:type="㇑" transform="matrix(1,0,0,1,796,-4)" xmlns:kvg="http://kanjivg.tagaini.net"></path><path class="stroke_order_diagram--current_path" d="M34.38,55.5c2.54,0.56,6,2.24,7.38,3.18" id="kvg:066c7-s9" kvg:type="㇔" transform="matrix(1,0,0,1,796,-4)" xmlns:kvg="http://kanjivg.tagaini.net"></path><path class="stroke_order_diagram--current_path" d="M34.38,55.5c2.54,0.56,6,2.24,7.38,3.18" id="Ske24zuuj2l" kvg:type="㇔" transform="matrix(1,0,0,1,796,-4)" xmlns:kvg="http://kanjivg.tagaini.net"></path><circle class="stroke_order_diagram--path_start" cx="34.38" cy="55.5" r="4" transform="matrix(1,0,0,1,796,-4)"></circle><line class="stroke_order_diagram--guide_line" x1="950" x2="950" y1="1" y2="99"></line><line class="stroke_order_diagram--bounding_box" x1="999" x2="999" y1="1" y2="99"></line><path class="stroke_order_diagram--existing_path" d="M31.45,13.2c0.67,0.67,1.11,1.53,1.31,2.25c1.61,5.79,1.99,8.08,3.17,13.26c0.27,1.19,0.63,2.35,0.8,3.49" id="Ske24zuuj2o" kvg:type="㇑" transform="matrix(1,0,0,1,896,-4)" xmlns:kvg="http://kanjivg.tagaini.net"></path><path class="stroke_order_diagram--existing_path" d="M32.88,14.14C46.5,12.62,62.94,11.21,71,10.52c2.67-0.23,4.62,0.91,4.21,3.74c-0.37,2.55-1.47,6.75-2.52,10.79c-0.41,1.55-0.8,3.08-1.15,4.48" id="Ske24zuuj2p" kvg:type="㇕a" transform="matrix(1,0,0,1,896,-4)" xmlns:kvg="http://kanjivg.tagaini.net"></path><path class="stroke_order_diagram--existing_path" d="M35.88,21.95c8.24-1.08,30.12-2.83,37.07-3.02" id="Ske24zuuj2q" kvg:type="㇐a" transform="matrix(1,0,0,1,896,-4)" xmlns:kvg="http://kanjivg.tagaini.net"></path><path class="stroke_order_diagram--existing_path" d="M37.53,30.33c8.1-0.71,23.43-2.15,33.47-2.83" id="Ske24zuuj2r" kvg:type="㇐a" transform="matrix(1,0,0,1,896,-4)" xmlns:kvg="http://kanjivg.tagaini.net"></path><path class="stroke_order_diagram--existing_path" d="M34.21,39.56c2.2,0.23,4.24,0.08,6.42-0.18c5.47-0.67,16.34-1.84,25.25-2.39c2.12-0.13,4.26-0.3,6.37-0.03" id="Ske24zuuj2s" kvg:type="㇐" transform="matrix(1,0,0,1,896,-4)" xmlns:kvg="http://kanjivg.tagaini.net"></path><path class="stroke_order_diagram--existing_path" d="M21.1,48.77c-0.2,5.28-1.95,10.09-3.22,15.35" id="Ske24zuuj2t" kvg:type="㇔/㇑" transform="matrix(1,0,0,1,896,-4)" xmlns:kvg="http://kanjivg.tagaini.net"></path><path class="stroke_order_diagram--existing_path" d="M22.25,51.4c17.62-2.03,49-5.13,63.5-5.51c11.49-0.3,1.54,6.18,0.25,7.5" id="Ske24zuuj2u" kvg:type="㇖b/㇆" transform="matrix(1,0,0,1,896,-4)" xmlns:kvg="http://kanjivg.tagaini.net"></path><path class="stroke_order_diagram--existing_path" d="M51.48,40.25c1.07,1.07,1.57,2.5,1.57,3.78c0,1.38,0.03,9.99,0.04,15.59c0.01,2.74,0.02,4.76,0.02,4.87" id="Ske24zuuj2v" kvg:type="㇑" transform="matrix(1,0,0,1,896,-4)" xmlns:kvg="http://kanjivg.tagaini.net"></path><path class="stroke_order_diagram--existing_path" d="M34.38,55.5c2.54,0.56,6,2.24,7.38,3.18" id="Ske24zuuj2w" kvg:type="㇔" transform="matrix(1,0,0,1,896,-4)" xmlns:kvg="http://kanjivg.tagaini.net"></path><path class="stroke_order_diagram--current_path" d="M29.97,62.22c2.5,0.58,6.37,2.69,7.74,3.65" id="kvg:066c7-s10" kvg:type="㇔" transform="matrix(1,0,0,1,896,-4)" xmlns:kvg="http://kanjivg.tagaini.net"></path><path class="stroke_order_diagram--current_path" d="M29.97,62.22c2.5,0.58,6.37,2.69,7.74,3.65" id="Ske24zuuj2y" kvg:type="㇔" transform="matrix(1,0,0,1,896,-4)" xmlns:kvg="http://kanjivg.tagaini.net"></path><circle class="stroke_order_diagram--path_start" cx="29.97" cy="62.22" r="4" transform="matrix(1,0,0,1,896,-4)"></circle><line class="stroke_order_diagram--guide_line" x1="1050" x2="1050" y1="1" y2="99"></line><line class="stroke_order_diagram--bounding_box" x1="1099" x2="1099" y1="1" y2="99"></line><path class="stroke_order_diagram--existing_path" d="M31.45,13.2c0.67,0.67,1.11,1.53,1.31,2.25c1.61,5.79,1.99,8.08,3.17,13.26c0.27,1.19,0.63,2.35,0.8,3.49" id="Ske24zuuj31" kvg:type="㇑" transform="matrix(1,0,0,1,996,-4)" xmlns:kvg="http://kanjivg.tagaini.net"></path><path class="stroke_order_diagram--existing_path" d="M32.88,14.14C46.5,12.62,62.94,11.21,71,10.52c2.67-0.23,4.62,0.91,4.21,3.74c-0.37,2.55-1.47,6.75-2.52,10.79c-0.41,1.55-0.8,3.08-1.15,4.48" id="Ske24zuuj32" kvg:type="㇕a" transform="matrix(1,0,0,1,996,-4)" xmlns:kvg="http://kanjivg.tagaini.net"></path><path class="stroke_order_diagram--existing_path" d="M35.88,21.95c8.24-1.08,30.12-2.83,37.07-3.02" id="Ske24zuuj33" kvg:type="㇐a" transform="matrix(1,0,0,1,996,-4)" xmlns:kvg="http://kanjivg.tagaini.net"></path><path class="stroke_order_diagram--existing_path" d="M37.53,30.33c8.1-0.71,23.43-2.15,33.47-2.83" id="Ske24zuuj34" kvg:type="㇐a" transform="matrix(1,0,0,1,996,-4)" xmlns:kvg="http://kanjivg.tagaini.net"></path><path class="stroke_order_diagram--existing_path" d="M34.21,39.56c2.2,0.23,4.24,0.08,6.42-0.18c5.47-0.67,16.34-1.84,25.25-2.39c2.12-0.13,4.26-0.3,6.37-0.03" id="Ske24zuuj35" kvg:type="㇐" transform="matrix(1,0,0,1,996,-4)" xmlns:kvg="http://kanjivg.tagaini.net"></path><path class="stroke_order_diagram--existing_path" d="M21.1,48.77c-0.2,5.28-1.95,10.09-3.22,15.35" id="Ske24zuuj36" kvg:type="㇔/㇑" transform="matrix(1,0,0,1,996,-4)" xmlns:kvg="http://kanjivg.tagaini.net"></path><path class="stroke_order_diagram--existing_path" d="M22.25,51.4c17.62-2.03,49-5.13,63.5-5.51c11.49-0.3,1.54,6.18,0.25,7.5" id="Ske24zuuj37" kvg:type="㇖b/㇆" transform="matrix(1,0,0,1,996,-4)" xmlns:kvg="http://kanjivg.tagaini.net"></path><path class="stroke_order_diagram--existing_path" d="M51.48,40.25c1.07,1.07,1.57,2.5,1.57,3.78c0,1.38,0.03,9.99,0.04,15.59c0.01,2.74,0.02,4.76,0.02,4.87" id="Ske24zuuj38" kvg:type="㇑" transform="matrix(1,0,0,1,996,-4)" xmlns:kvg="http://kanjivg.tagaini.net"></path><path class="stroke_order_diagram--existing_path" d="M34.38,55.5c2.54,0.56,6,2.24,7.38,3.18" id="Ske24zuuj39" kvg:type="㇔" transform="matrix(1,0,0,1,996,-4)" xmlns:kvg="http://kanjivg.tagaini.net"></path><path class="stroke_order_diagram--existing_path" d="M29.97,62.22c2.5,0.58,6.37,2.69,7.74,3.65" id="Ske24zuuj3a" kvg:type="㇔" transform="matrix(1,0,0,1,996,-4)" xmlns:kvg="http://kanjivg.tagaini.net"></path><path class="stroke_order_diagram--current_path" d="M67.68,53.11c3.02,0.92,6.44,2.77,7.65,3.54" id="kvg:066c7-s11" kvg:type="㇔" transform="matrix(1,0,0,1,996,-4)" xmlns:kvg="http://kanjivg.tagaini.net"></path><path class="stroke_order_diagram--current_path" d="M67.68,53.11c3.02,0.92,6.44,2.77,7.65,3.54" id="Ske24zuuj3c" kvg:type="㇔" transform="matrix(1,0,0,1,996,-4)" xmlns:kvg="http://kanjivg.tagaini.net"></path><circle class="stroke_order_diagram--path_start" cx="67.68" cy="53.11" r="4" transform="matrix(1,0,0,1,996,-4)"></circle><line class="stroke_order_diagram--guide_line" x1="1150" x2="1150" y1="1" y2="99"></line><line class="stroke_order_diagram--bounding_box" x1="1199" x2="1199" y1="1" y2="99"></line><path class="stroke_order_diagram--existing_path" d="M31.45,13.2c0.67,0.67,1.11,1.53,1.31,2.25c1.61,5.79,1.99,8.08,3.17,13.26c0.27,1.19,0.63,2.35,0.8,3.49" id="Ske24zuuj3f" kvg:type="㇑" transform="matrix(1,0,0,1,1096,-4)" xmlns:kvg="http://kanjivg.tagaini.net"></path><path class="stroke_order_diagram--existing_path" d="M32.88,14.14C46.5,12.62,62.94,11.21,71,10.52c2.67-0.23,4.62,0.91,4.21,3.74c-0.37,2.55-1.47,6.75-2.52,10.79c-0.41,1.55-0.8,3.08-1.15,4.48" id="Ske24zuuj3g" kvg:type="㇕a" transform="matrix(1,0,0,1,1096,-4)" xmlns:kvg="http://kanjivg.tagaini.net"></path><path class="stroke_order_diagram--existing_path" d="M35.88,21.95c8.24-1.08,30.12-2.83,37.07-3.02" id="Ske24zuuj3h" kvg:type="㇐a" transform="matrix(1,0,0,1,1096,-4)" xmlns:kvg="http://kanjivg.tagaini.net"></path><path class="stroke_order_diagram--existing_path" d="M37.53,30.33c8.1-0.71,23.43-2.15,33.47-2.83" id="Ske24zuuj3i" kvg:type="㇐a" transform="matrix(1,0,0,1,1096,-4)" xmlns:kvg="http://kanjivg.tagaini.net"></path><path class="stroke_order_diagram--existing_path" d="M34.21,39.56c2.2,0.23,4.24,0.08,6.42-0.18c5.47-0.67,16.34-1.84,25.25-2.39c2.12-0.13,4.26-0.3,6.37-0.03" id="Ske24zuuj3j" kvg:type="㇐" transform="matrix(1,0,0,1,1096,-4)" xmlns:kvg="http://kanjivg.tagaini.net"></path><path class="stroke_order_diagram--existing_path" d="M21.1,48.77c-0.2,5.28-1.95,10.09-3.22,15.35" id="Ske24zuuj3k" kvg:type="㇔/㇑" transform="matrix(1,0,0,1,1096,-4)" xmlns:kvg="http://kanjivg.tagaini.net"></path><path class="stroke_order_diagram--existing_path" d="M22.25,51.4c17.62-2.03,49-5.13,63.5-5.51c11.49-0.3,1.54,6.18,0.25,7.5" id="Ske24zuuj3l" kvg:type="㇖b/㇆" transform="matrix(1,0,0,1,1096,-4)" xmlns:kvg="http://kanjivg.tagaini.net"></path><path class="stroke_order_diagram--existing_path" d="M51.48,40.25c1.07,1.07,1.57,2.5,1.57,3.78c0,1.38,0.03,9.99,0.04,15.59c0.01,2.74,0.02,4.76,0.02,4.87" id="Ske24zuuj3m" kvg:type="㇑" transform="matrix(1,0,0,1,1096,-4)" xmlns:kvg="http://kanjivg.tagaini.net"></path><path class="stroke_order_diagram--existing_path" d="M34.38,55.5c2.54,0.56,6,2.24,7.38,3.18" id="Ske24zuuj3n" kvg:type="㇔" transform="matrix(1,0,0,1,1096,-4)" xmlns:kvg="http://kanjivg.tagaini.net"></path><path class="stroke_order_diagram--existing_path" d="M29.97,62.22c2.5,0.58,6.37,2.69,7.74,3.65" id="Ske24zuuj3o" kvg:type="㇔" transform="matrix(1,0,0,1,1096,-4)" xmlns:kvg="http://kanjivg.tagaini.net"></path><path class="stroke_order_diagram--existing_path" d="M67.68,53.11c3.02,0.92,6.44,2.77,7.65,3.54" id="Ske24zuuj3p" kvg:type="㇔" transform="matrix(1,0,0,1,1096,-4)" xmlns:kvg="http://kanjivg.tagaini.net"></path><path class="stroke_order_diagram--current_path" d="M65.75,60c2.57,0.75,6.08,3.01,7.49,4.26" id="kvg:066c7-s12" kvg:type="㇔" transform="matrix(1,0,0,1,1096,-4)" xmlns:kvg="http://kanjivg.tagaini.net"></path><path class="stroke_order_diagram--current_path" d="M65.75,60c2.57,0.75,6.08,3.01,7.49,4.26" id="Ske24zuuj3r" kvg:type="㇔" transform="matrix(1,0,0,1,1096,-4)" xmlns:kvg="http://kanjivg.tagaini.net"></path><circle class="stroke_order_diagram--path_start" cx="65.75" cy="60" r="4" transform="matrix(1,0,0,1,1096,-4)"></circle><line class="stroke_order_diagram--guide_line" x1="1250" x2="1250" y1="1" y2="99"></line><line class="stroke_order_diagram--bounding_box" x1="1299" x2="1299" y1="1" y2="99"></line><path class="stroke_order_diagram--existing_path" d="M31.45,13.2c0.67,0.67,1.11,1.53,1.31,2.25c1.61,5.79,1.99,8.08,3.17,13.26c0.27,1.19,0.63,2.35,0.8,3.49" id="Ske24zuuj3u" kvg:type="㇑" transform="matrix(1,0,0,1,1196,-4)" xmlns:kvg="http://kanjivg.tagaini.net"></path><path class="stroke_order_diagram--existing_path" d="M32.88,14.14C46.5,12.62,62.94,11.21,71,10.52c2.67-0.23,4.62,0.91,4.21,3.74c-0.37,2.55-1.47,6.75-2.52,10.79c-0.41,1.55-0.8,3.08-1.15,4.48" id="Ske24zuuj3v" kvg:type="㇕a" transform="matrix(1,0,0,1,1196,-4)" xmlns:kvg="http://kanjivg.tagaini.net"></path><path class="stroke_order_diagram--existing_path" d="M35.88,21.95c8.24-1.08,30.12-2.83,37.07-3.02" id="Ske24zuuj3w" kvg:type="㇐a" transform="matrix(1,0,0,1,1196,-4)" xmlns:kvg="http://kanjivg.tagaini.net"></path><path class="stroke_order_diagram--existing_path" d="M37.53,30.33c8.1-0.71,23.43-2.15,33.47-2.83" id="Ske24zuuj3x" kvg:type="㇐a" transform="matrix(1,0,0,1,1196,-4)" xmlns:kvg="http://kanjivg.tagaini.net"></path><path class="stroke_order_diagram--existing_path" d="M34.21,39.56c2.2,0.23,4.24,0.08,6.42-0.18c5.47-0.67,16.34-1.84,25.25-2.39c2.12-0.13,4.26-0.3,6.37-0.03" id="Ske24zuuj3y" kvg:type="㇐" transform="matrix(1,0,0,1,1196,-4)" xmlns:kvg="http://kanjivg.tagaini.net"></path><path class="stroke_order_diagram--existing_path" d="M21.1,48.77c-0.2,5.28-1.95,10.09-3.22,15.35" id="Ske24zuuj3z" kvg:type="㇔/㇑" transform="matrix(1,0,0,1,1196,-4)" xmlns:kvg="http://kanjivg.tagaini.net"></path><path class="stroke_order_diagram--existing_path" d="M22.25,51.4c17.62-2.03,49-5.13,63.5-5.51c11.49-0.3,1.54,6.18,0.25,7.5" id="Ske24zuuj40" kvg:type="㇖b/㇆" transform="matrix(1,0,0,1,1196,-4)" xmlns:kvg="http://kanjivg.tagaini.net"></path><path class="stroke_order_diagram--existing_path" d="M51.48,40.25c1.07,1.07,1.57,2.5,1.57,3.78c0,1.38,0.03,9.99,0.04,15.59c0.01,2.74,0.02,4.76,0.02,4.87" id="Ske24zuuj41" kvg:type="㇑" transform="matrix(1,0,0,1,1196,-4)" xmlns:kvg="http://kanjivg.tagaini.net"></path><path class="stroke_order_diagram--existing_path" d="M34.38,55.5c2.54,0.56,6,2.24,7.38,3.18" id="Ske24zuuj42" kvg:type="㇔" transform="matrix(1,0,0,1,1196,-4)" xmlns:kvg="http://kanjivg.tagaini.net"></path><path class="stroke_order_diagram--existing_path" d="M29.97,62.22c2.5,0.58,6.37,2.69,7.74,3.65" id="Ske24zuuj43" kvg:type="㇔" transform="matrix(1,0,0,1,1196,-4)" xmlns:kvg="http://kanjivg.tagaini.net"></path><path class="stroke_order_diagram--existing_path" d="M67.68,53.11c3.02,0.92,6.44,2.77,7.65,3.54" id="Ske24zuuj44" kvg:type="㇔" transform="matrix(1,0,0,1,1196,-4)" xmlns:kvg="http://kanjivg.tagaini.net"></path><path class="stroke_order_diagram--existing_path" d="M65.75,60c2.57,0.75,6.08,3.01,7.49,4.26" id="Ske24zuuj45" kvg:type="㇔" transform="matrix(1,0,0,1,1196,-4)" xmlns:kvg="http://kanjivg.tagaini.net"></path><path class="stroke_order_diagram--current_path" d="M38,71.05c1.45,0.45,3.27,0.23,4.77,0.14c5.35-0.33,13.07-1.34,21.23-1.92c1.38-0.1,2.64-0.16,4,0.09" id="kvg:066c7-s13" kvg:type="㇐" transform="matrix(1,0,0,1,1196,-4)" xmlns:kvg="http://kanjivg.tagaini.net"></path><path class="stroke_order_diagram--current_path" d="M38,71.05c1.45,0.45,3.27,0.23,4.77,0.14c5.35-0.33,13.07-1.34,21.23-1.92c1.38-0.1,2.64-0.16,4,0.09" id="Ske24zuuj47" kvg:type="㇐" transform="matrix(1,0,0,1,1196,-4)" xmlns:kvg="http://kanjivg.tagaini.net"></path><circle class="stroke_order_diagram--path_start" cx="38" cy="71.05" r="4" transform="matrix(1,0,0,1,1196,-4)"></circle><line class="stroke_order_diagram--guide_line" x1="1350" x2="1350" y1="1" y2="99"></line><line class="stroke_order_diagram--bounding_box" x1="1399" x2="1399" y1="1" y2="99"></line><path class="stroke_order_diagram--existing_path" d="M31.45,13.2c0.67,0.67,1.11,1.53,1.31,2.25c1.61,5.79,1.99,8.08,3.17,13.26c0.27,1.19,0.63,2.35,0.8,3.49" id="Ske24zuuj4a" kvg:type="㇑" transform="matrix(1,0,0,1,1296,-4)" xmlns:kvg="http://kanjivg.tagaini.net"></path><path class="stroke_order_diagram--existing_path" d="M32.88,14.14C46.5,12.62,62.94,11.21,71,10.52c2.67-0.23,4.62,0.91,4.21,3.74c-0.37,2.55-1.47,6.75-2.52,10.79c-0.41,1.55-0.8,3.08-1.15,4.48" id="Ske24zuuj4b" kvg:type="㇕a" transform="matrix(1,0,0,1,1296,-4)" xmlns:kvg="http://kanjivg.tagaini.net"></path><path class="stroke_order_diagram--existing_path" d="M35.88,21.95c8.24-1.08,30.12-2.83,37.07-3.02" id="Ske24zuuj4c" kvg:type="㇐a" transform="matrix(1,0,0,1,1296,-4)" xmlns:kvg="http://kanjivg.tagaini.net"></path><path class="stroke_order_diagram--existing_path" d="M37.53,30.33c8.1-0.71,23.43-2.15,33.47-2.83" id="Ske24zuuj4d" kvg:type="㇐a" transform="matrix(1,0,0,1,1296,-4)" xmlns:kvg="http://kanjivg.tagaini.net"></path><path class="stroke_order_diagram--existing_path" d="M34.21,39.56c2.2,0.23,4.24,0.08,6.42-0.18c5.47-0.67,16.34-1.84,25.25-2.39c2.12-0.13,4.26-0.3,6.37-0.03" id="Ske24zuuj4e" kvg:type="㇐" transform="matrix(1,0,0,1,1296,-4)" xmlns:kvg="http://kanjivg.tagaini.net"></path><path class="stroke_order_diagram--existing_path" d="M21.1,48.77c-0.2,5.28-1.95,10.09-3.22,15.35" id="Ske24zuuj4f" kvg:type="㇔/㇑" transform="matrix(1,0,0,1,1296,-4)" xmlns:kvg="http://kanjivg.tagaini.net"></path><path class="stroke_order_diagram--existing_path" d="M22.25,51.4c17.62-2.03,49-5.13,63.5-5.51c11.49-0.3,1.54,6.18,0.25,7.5" id="Ske24zuuj4g" kvg:type="㇖b/㇆" transform="matrix(1,0,0,1,1296,-4)" xmlns:kvg="http://kanjivg.tagaini.net"></path><path class="stroke_order_diagram--existing_path" d="M51.48,40.25c1.07,1.07,1.57,2.5,1.57,3.78c0,1.38,0.03,9.99,0.04,15.59c0.01,2.74,0.02,4.76,0.02,4.87" id="Ske24zuuj4h" kvg:type="㇑" transform="matrix(1,0,0,1,1296,-4)" xmlns:kvg="http://kanjivg.tagaini.net"></path><path class="stroke_order_diagram--existing_path" d="M34.38,55.5c2.54,0.56,6,2.24,7.38,3.18" id="Ske24zuuj4i" kvg:type="㇔" transform="matrix(1,0,0,1,1296,-4)" xmlns:kvg="http://kanjivg.tagaini.net"></path><path class="stroke_order_diagram--existing_path" d="M29.97,62.22c2.5,0.58,6.37,2.69,7.74,3.65" id="Ske24zuuj4j" kvg:type="㇔" transform="matrix(1,0,0,1,1296,-4)" xmlns:kvg="http://kanjivg.tagaini.net"></path><path class="stroke_order_diagram--existing_path" d="M67.68,53.11c3.02,0.92,6.44,2.77,7.65,3.54" id="Ske24zuuj4k" kvg:type="㇔" transform="matrix(1,0,0,1,1296,-4)" xmlns:kvg="http://kanjivg.tagaini.net"></path><path class="stroke_order_diagram--existing_path" d="M65.75,60c2.57,0.75,6.08,3.01,7.49,4.26" id="Ske24zuuj4l" kvg:type="㇔" transform="matrix(1,0,0,1,1296,-4)" xmlns:kvg="http://kanjivg.tagaini.net"></path><path class="stroke_order_diagram--existing_path" d="M38,71.05c1.45,0.45,3.27,0.23,4.77,0.14c5.35-0.33,13.07-1.34,21.23-1.92c1.38-0.1,2.64-0.16,4,0.09" id="Ske24zuuj4m" kvg:type="㇐" transform="matrix(1,0,0,1,1296,-4)" xmlns:kvg="http://kanjivg.tagaini.net"></path><path class="stroke_order_diagram--current_path" d="M19,82.5c3.04,0.63,6.22,0.27,9.27-0.01c13.03-1.17,33.23-3.83,52.36-4.63c3.39-0.14,6.87-0.11,9.87,0.64" id="kvg:066c7-s14" kvg:type="㇐" transform="matrix(1,0,0,1,1296,-4)" xmlns:kvg="http://kanjivg.tagaini.net"></path><path class="stroke_order_diagram--current_path" d="M19,82.5c3.04,0.63,6.22,0.27,9.27-0.01c13.03-1.17,33.23-3.83,52.36-4.63c3.39-0.14,6.87-0.11,9.87,0.64" id="Ske24zuuj4o" kvg:type="㇐" transform="matrix(1,0,0,1,1296,-4)" xmlns:kvg="http://kanjivg.tagaini.net"></path><circle class="stroke_order_diagram--path_start" cx="19" cy="82.5" r="4" transform="matrix(1,0,0,1,1296,-4)"></circle><line class="stroke_order_diagram--guide_line" x1="1450" x2="1450" y1="1" y2="99"></line><line class="stroke_order_diagram--bounding_box" x1="1499" x2="1499" y1="1" y2="99"></line><path class="stroke_order_diagram--existing_path" d="M31.45,13.2c0.67,0.67,1.11,1.53,1.31,2.25c1.61,5.79,1.99,8.08,3.17,13.26c0.27,1.19,0.63,2.35,0.8,3.49" id="Ske24zuuj4r" kvg:type="㇑" transform="matrix(1,0,0,1,1396,-4)" xmlns:kvg="http://kanjivg.tagaini.net"></path><path class="stroke_order_diagram--existing_path" d="M32.88,14.14C46.5,12.62,62.94,11.21,71,10.52c2.67-0.23,4.62,0.91,4.21,3.74c-0.37,2.55-1.47,6.75-2.52,10.79c-0.41,1.55-0.8,3.08-1.15,4.48" id="Ske24zuuj4s" kvg:type="㇕a" transform="matrix(1,0,0,1,1396,-4)" xmlns:kvg="http://kanjivg.tagaini.net"></path><path class="stroke_order_diagram--existing_path" d="M35.88,21.95c8.24-1.08,30.12-2.83,37.07-3.02" id="Ske24zuuj4t" kvg:type="㇐a" transform="matrix(1,0,0,1,1396,-4)" xmlns:kvg="http://kanjivg.tagaini.net"></path><path class="stroke_order_diagram--existing_path" d="M37.53,30.33c8.1-0.71,23.43-2.15,33.47-2.83" id="Ske24zuuj4u" kvg:type="㇐a" transform="matrix(1,0,0,1,1396,-4)" xmlns:kvg="http://kanjivg.tagaini.net"></path><path class="stroke_order_diagram--existing_path" d="M34.21,39.56c2.2,0.23,4.24,0.08,6.42-0.18c5.47-0.67,16.34-1.84,25.25-2.39c2.12-0.13,4.26-0.3,6.37-0.03" id="Ske24zuuj4v" kvg:type="㇐" transform="matrix(1,0,0,1,1396,-4)" xmlns:kvg="http://kanjivg.tagaini.net"></path><path class="stroke_order_diagram--existing_path" d="M21.1,48.77c-0.2,5.28-1.95,10.09-3.22,15.35" id="Ske24zuuj4w" kvg:type="㇔/㇑" transform="matrix(1,0,0,1,1396,-4)" xmlns:kvg="http://kanjivg.tagaini.net"></path><path class="stroke_order_diagram--existing_path" d="M22.25,51.4c17.62-2.03,49-5.13,63.5-5.51c11.49-0.3,1.54,6.18,0.25,7.5" id="Ske24zuuj4x" kvg:type="㇖b/㇆" transform="matrix(1,0,0,1,1396,-4)" xmlns:kvg="http://kanjivg.tagaini.net"></path><path class="stroke_order_diagram--existing_path" d="M51.48,40.25c1.07,1.07,1.57,2.5,1.57,3.78c0,1.38,0.03,9.99,0.04,15.59c0.01,2.74,0.02,4.76,0.02,4.87" id="Ske24zuuj4y" kvg:type="㇑" transform="matrix(1,0,0,1,1396,-4)" xmlns:kvg="http://kanjivg.tagaini.net"></path><path class="stroke_order_diagram--existing_path" d="M34.38,55.5c2.54,0.56,6,2.24,7.38,3.18" id="Ske24zuuj4z" kvg:type="㇔" transform="matrix(1,0,0,1,1396,-4)" xmlns:kvg="http://kanjivg.tagaini.net"></path><path class="stroke_order_diagram--existing_path" d="M29.97,62.22c2.5,0.58,6.37,2.69,7.74,3.65" id="Ske24zuuj50" kvg:type="㇔" transform="matrix(1,0,0,1,1396,-4)" xmlns:kvg="http://kanjivg.tagaini.net"></path><path class="stroke_order_diagram--existing_path" d="M67.68,53.11c3.02,0.92,6.44,2.77,7.65,3.54" id="Ske24zuuj51" kvg:type="㇔" transform="matrix(1,0,0,1,1396,-4)" xmlns:kvg="http://kanjivg.tagaini.net"></path><path class="stroke_order_diagram--existing_path" d="M65.75,60c2.57,0.75,6.08,3.01,7.49,4.26" id="Ske24zuuj52" kvg:type="㇔" transform="matrix(1,0,0,1,1396,-4)" xmlns:kvg="http://kanjivg.tagaini.net"></path><path class="stroke_order_diagram--existing_path" d="M38,71.05c1.45,0.45,3.27,0.23,4.77,0.14c5.35-0.33,13.07-1.34,21.23-1.92c1.38-0.1,2.64-0.16,4,0.09" id="Ske24zuuj53" kvg:type="㇐" transform="matrix(1,0,0,1,1396,-4)" xmlns:kvg="http://kanjivg.tagaini.net"></path><path class="stroke_order_diagram--existing_path" d="M19,82.5c3.04,0.63,6.22,0.27,9.27-0.01c13.03-1.17,33.23-3.83,52.36-4.63c3.39-0.14,6.87-0.11,9.87,0.64" id="Ske24zuuj54" kvg:type="㇐" transform="matrix(1,0,0,1,1396,-4)" xmlns:kvg="http://kanjivg.tagaini.net"></path><path class="stroke_order_diagram--current_path" d="M47.68,83.59c0.07,0.93-0.34,1.83-1.11,2.72c-2.57,2.94-5.82,5.94-10.04,9.73c-1.74,1.56-1.5,2.75,1.26,2.15c7.71-1.68,19.84-3.81,32.96-6.11" id="kvg:066c7-s15" kvg:type="㇜" transform="matrix(1,0,0,1,1396,-4)" xmlns:kvg="http://kanjivg.tagaini.net"></path><path class="stroke_order_diagram--current_path" d="M47.68,83.59c0.07,0.93-0.34,1.83-1.11,2.72c-2.57,2.94-5.82,5.94-10.04,9.73c-1.74,1.56-1.5,2.75,1.26,2.15c7.71-1.68,19.84-3.81,32.96-6.11" id="Ske24zuuj56" kvg:type="㇜" transform="matrix(1,0,0,1,1396,-4)" xmlns:kvg="http://kanjivg.tagaini.net"></path><circle class="stroke_order_diagram--path_start" cx="47.68" cy="83.59" r="4" transform="matrix(1,0,0,1,1396,-4)"></circle><line class="stroke_order_diagram--guide_line" x1="1550" x2="1550" y1="1" y2="99"></line><line class="stroke_order_diagram--bounding_box" x1="1599" x2="1599" y1="1" y2="99"></line><path class="stroke_order_diagram--existing_path" d="M31.45,13.2c0.67,0.67,1.11,1.53,1.31,2.25c1.61,5.79,1.99,8.08,3.17,13.26c0.27,1.19,0.63,2.35,0.8,3.49" id="Ske24zuuj59" kvg:type="㇑" transform="matrix(1,0,0,1,1496,-4)" xmlns:kvg="http://kanjivg.tagaini.net"></path><path class="stroke_order_diagram--existing_path" d="M32.88,14.14C46.5,12.62,62.94,11.21,71,10.52c2.67-0.23,4.62,0.91,4.21,3.74c-0.37,2.55-1.47,6.75-2.52,10.79c-0.41,1.55-0.8,3.08-1.15,4.48" id="Ske24zuuj5a" kvg:type="㇕a" transform="matrix(1,0,0,1,1496,-4)" xmlns:kvg="http://kanjivg.tagaini.net"></path><path class="stroke_order_diagram--existing_path" d="M35.88,21.95c8.24-1.08,30.12-2.83,37.07-3.02" id="Ske24zuuj5b" kvg:type="㇐a" transform="matrix(1,0,0,1,1496,-4)" xmlns:kvg="http://kanjivg.tagaini.net"></path><path class="stroke_order_diagram--existing_path" d="M37.53,30.33c8.1-0.71,23.43-2.15,33.47-2.83" id="Ske24zuuj5c" kvg:type="㇐a" transform="matrix(1,0,0,1,1496,-4)" xmlns:kvg="http://kanjivg.tagaini.net"></path><path class="stroke_order_diagram--existing_path" d="M34.21,39.56c2.2,0.23,4.24,0.08,6.42-0.18c5.47-0.67,16.34-1.84,25.25-2.39c2.12-0.13,4.26-0.3,6.37-0.03" id="Ske24zuuj5d" kvg:type="㇐" transform="matrix(1,0,0,1,1496,-4)" xmlns:kvg="http://kanjivg.tagaini.net"></path><path class="stroke_order_diagram--existing_path" d="M21.1,48.77c-0.2,5.28-1.95,10.09-3.22,15.35" id="Ske24zuuj5e" kvg:type="㇔/㇑" transform="matrix(1,0,0,1,1496,-4)" xmlns:kvg="http://kanjivg.tagaini.net"></path><path class="stroke_order_diagram--existing_path" d="M22.25,51.4c17.62-2.03,49-5.13,63.5-5.51c11.49-0.3,1.54,6.18,0.25,7.5" id="Ske24zuuj5f" kvg:type="㇖b/㇆" transform="matrix(1,0,0,1,1496,-4)" xmlns:kvg="http://kanjivg.tagaini.net"></path><path class="stroke_order_diagram--existing_path" d="M51.48,40.25c1.07,1.07,1.57,2.5,1.57,3.78c0,1.38,0.03,9.99,0.04,15.59c0.01,2.74,0.02,4.76,0.02,4.87" id="Ske24zuuj5g" kvg:type="㇑" transform="matrix(1,0,0,1,1496,-4)" xmlns:kvg="http://kanjivg.tagaini.net"></path><path class="stroke_order_diagram--existing_path" d="M34.38,55.5c2.54,0.56,6,2.24,7.38,3.18" id="Ske24zuuj5h" kvg:type="㇔" transform="matrix(1,0,0,1,1496,-4)" xmlns:kvg="http://kanjivg.tagaini.net"></path><path class="stroke_order_diagram--existing_path" d="M29.97,62.22c2.5,0.58,6.37,2.69,7.74,3.65" id="Ske24zuuj5i" kvg:type="㇔" transform="matrix(1,0,0,1,1496,-4)" xmlns:kvg="http://kanjivg.tagaini.net"></path><path class="stroke_order_diagram--existing_path" d="M67.68,53.11c3.02,0.92,6.44,2.77,7.65,3.54" id="Ske24zuuj5j" kvg:type="㇔" transform="matrix(1,0,0,1,1496,-4)" xmlns:kvg="http://kanjivg.tagaini.net"></path><path class="stroke_order_diagram--existing_path" d="M65.75,60c2.57,0.75,6.08,3.01,7.49,4.26" id="Ske24zuuj5k" kvg:type="㇔" transform="matrix(1,0,0,1,1496,-4)" xmlns:kvg="http://kanjivg.tagaini.net"></path><path class="stroke_order_diagram--existing_path" d="M38,71.05c1.45,0.45,3.27,0.23,4.77,0.14c5.35-0.33,13.07-1.34,21.23-1.92c1.38-0.1,2.64-0.16,4,0.09" id="Ske24zuuj5l" kvg:type="㇐" transform="matrix(1,0,0,1,1496,-4)" xmlns:kvg="http://kanjivg.tagaini.net"></path><path class="stroke_order_diagram--existing_path" d="M19,82.5c3.04,0.63,6.22,0.27,9.27-0.01c13.03-1.17,33.23-3.83,52.36-4.63c3.39-0.14,6.87-0.11,9.87,0.64" id="Ske24zuuj5m" kvg:type="㇐" transform="matrix(1,0,0,1,1496,-4)" xmlns:kvg="http://kanjivg.tagaini.net"></path><path class="stroke_order_diagram--existing_path" d="M47.68,83.59c0.07,0.93-0.34,1.83-1.11,2.72c-2.57,2.94-5.82,5.94-10.04,9.73c-1.74,1.56-1.5,2.75,1.26,2.15c7.71-1.68,19.84-3.81,32.96-6.11" id="Ske24zuuj5n" kvg:type="㇜" transform="matrix(1,0,0,1,1496,-4)" xmlns:kvg="http://kanjivg.tagaini.net"></path><path class="stroke_order_diagram--current_path" d="M65.46,85.44c4.36,2.44,11.26,10.02,12.35,13.81" id="kvg:066c7-s16" kvg:type="㇔" transform="matrix(1,0,0,1,1496,-4)" xmlns:kvg="http://kanjivg.tagaini.net"></path><path class="stroke_order_diagram--current_path" d="M65.46,85.44c4.36,2.44,11.26,10.02,12.35,13.81" id="Ske24zuuj5p" kvg:type="㇔" transform="matrix(1,0,0,1,1496,-4)" xmlns:kvg="http://kanjivg.tagaini.net"></path><circle class="stroke_order_diagram--path_start" cx="65.46" cy="85.44" r="4" transform="matrix(1,0,0,1,1496,-4)"></circle></svg>