<svg class="stroke_order_diagram--svg_container_for_518662aad5dda79658000fa2" style="height: 100px; width: 1700px;" viewbox="0 0 1700 100"><desc>Created with Snap</desc><defs></defs><line class="stroke_order_diagram--bounding_box" x1="1" x2="1699" y1="1" y2="1"></line><line class="stroke_order_diagram--bounding_box" x1="1" x2="1" y1="1" y2="99"></line><line class="stroke_order_diagram--bounding_box" x1="1" x2="1699" y1="99" y2="99"></line><line class="stroke_order_diagram--guide_line" x1="0" x2="1700" y1="50" y2="50"></line><line class="stroke_order_diagram--guide_line" x1="50" x2="50" y1="1" y2="99"></line><line class="stroke_order_diagram--bounding_box" x1="99" x2="99" y1="1" y2="99"></line><path class="stroke_order_diagram--current_path" d="M13.77,27.32c0.32,0.73,0.65,1.56,0.65,2.54c0,0.97-0.11,46.42,0,47.39" id="kvg:066d6-s1" kvg:type="㇑" transform="matrix(1,0,0,1,-4,-4)" xmlns:kvg="http://kanjivg.tagaini.net"></path><path class="stroke_order_diagram--current_path" d="M13.77,27.32c0.32,0.73,0.65,1.56,0.65,2.54c0,0.97-0.11,46.42,0,47.39" id="Ske2m39z0q" kvg:type="㇑" transform="matrix(1,0,0,1,-4,-4)" xmlns:kvg="http://kanjivg.tagaini.net"></path><circle class="stroke_order_diagram--path_start" cx="13.77" cy="27.32" r="4" transform="matrix(1,0,0,1,-4,-4)"></circle><line class="stroke_order_diagram--guide_line" x1="150" x2="150" y1="1" y2="99"></line><line class="stroke_order_diagram--bounding_box" x1="199" x2="199" y1="1" y2="99"></line><path class="stroke_order_diagram--existing_path" d="M13.77,27.32c0.32,0.73,0.65,1.56,0.65,2.54c0,0.97-0.11,46.42,0,47.39" id="Ske2m39z0t" kvg:type="㇑" transform="matrix(1,0,0,1,96,-4)" xmlns:kvg="http://kanjivg.tagaini.net"></path><path class="stroke_order_diagram--current_path" d="M14.95,28.84c4.21-1,10.88-1.4,14.09-2.1c1.37-0.3,2.18,1.34,2.18,2.07c0,3.76-0.43,39.82-0.43,46.56" id="kvg:066d6-s2" kvg:type="㇕a" transform="matrix(1,0,0,1,96,-4)" xmlns:kvg="http://kanjivg.tagaini.net"></path><path class="stroke_order_diagram--current_path" d="M14.95,28.84c4.21-1,10.88-1.4,14.09-2.1c1.37-0.3,2.18,1.34,2.18,2.07c0,3.76-0.43,39.82-0.43,46.56" id="Ske2m39z0v" kvg:type="㇕a" transform="matrix(1,0,0,1,96,-4)" xmlns:kvg="http://kanjivg.tagaini.net"></path><circle class="stroke_order_diagram--path_start" cx="14.95" cy="28.84" r="4" transform="matrix(1,0,0,1,96,-4)"></circle><line class="stroke_order_diagram--guide_line" x1="250" x2="250" y1="1" y2="99"></line><line class="stroke_order_diagram--bounding_box" x1="299" x2="299" y1="1" y2="99"></line><path class="stroke_order_diagram--existing_path" d="M13.77,27.32c0.32,0.73,0.65,1.56,0.65,2.54c0,0.97-0.11,46.42,0,47.39" id="Ske2m39z0y" kvg:type="㇑" transform="matrix(1,0,0,1,196,-4)" xmlns:kvg="http://kanjivg.tagaini.net"></path><path class="stroke_order_diagram--existing_path" d="M14.95,28.84c4.21-1,10.88-1.4,14.09-2.1c1.37-0.3,2.18,1.34,2.18,2.07c0,3.76-0.43,39.82-0.43,46.56" id="Ske2m39z0z" kvg:type="㇕a" transform="matrix(1,0,0,1,196,-4)" xmlns:kvg="http://kanjivg.tagaini.net"></path><path class="stroke_order_diagram--current_path" d="M14.44,51c5.56-0.68,11.6-1.16,16.43-1.7" id="kvg:066d6-s3" kvg:type="㇐a" transform="matrix(1,0,0,1,196,-4)" xmlns:kvg="http://kanjivg.tagaini.net"></path><path class="stroke_order_diagram--current_path" d="M14.44,51c5.56-0.68,11.6-1.16,16.43-1.7" id="Ske2m39z011" kvg:type="㇐a" transform="matrix(1,0,0,1,196,-4)" xmlns:kvg="http://kanjivg.tagaini.net"></path><circle class="stroke_order_diagram--path_start" cx="14.44" cy="51" r="4" transform="matrix(1,0,0,1,196,-4)"></circle><line class="stroke_order_diagram--guide_line" x1="350" x2="350" y1="1" y2="99"></line><line class="stroke_order_diagram--bounding_box" x1="399" x2="399" y1="1" y2="99"></line><path class="stroke_order_diagram--existing_path" d="M13.77,27.32c0.32,0.73,0.65,1.56,0.65,2.54c0,0.97-0.11,46.42,0,47.39" id="Ske2m39z014" kvg:type="㇑" transform="matrix(1,0,0,1,296,-4)" xmlns:kvg="http://kanjivg.tagaini.net"></path><path class="stroke_order_diagram--existing_path" d="M14.95,28.84c4.21-1,10.88-1.4,14.09-2.1c1.37-0.3,2.18,1.34,2.18,2.07c0,3.76-0.43,39.82-0.43,46.56" id="Ske2m39z015" kvg:type="㇕a" transform="matrix(1,0,0,1,296,-4)" xmlns:kvg="http://kanjivg.tagaini.net"></path><path class="stroke_order_diagram--existing_path" d="M14.44,51c5.56-0.68,11.6-1.16,16.43-1.7" id="Ske2m39z016" kvg:type="㇐a" transform="matrix(1,0,0,1,296,-4)" xmlns:kvg="http://kanjivg.tagaini.net"></path><path class="stroke_order_diagram--current_path" d="M14.75,74.51c5.05-0.52,9.63-1.46,15.7-1.91" id="kvg:066d6-s4" kvg:type="㇐a" transform="matrix(1,0,0,1,296,-4)" xmlns:kvg="http://kanjivg.tagaini.net"></path><path class="stroke_order_diagram--current_path" d="M14.75,74.51c5.05-0.52,9.63-1.46,15.7-1.91" id="Ske2m39z018" kvg:type="㇐a" transform="matrix(1,0,0,1,296,-4)" xmlns:kvg="http://kanjivg.tagaini.net"></path><circle class="stroke_order_diagram--path_start" cx="14.75" cy="74.51" r="4" transform="matrix(1,0,0,1,296,-4)"></circle><line class="stroke_order_diagram--guide_line" x1="450" x2="450" y1="1" y2="99"></line><line class="stroke_order_diagram--bounding_box" x1="499" x2="499" y1="1" y2="99"></line><path class="stroke_order_diagram--existing_path" d="M13.77,27.32c0.32,0.73,0.65,1.56,0.65,2.54c0,0.97-0.11,46.42,0,47.39" id="Ske2m39z01b" kvg:type="㇑" transform="matrix(1,0,0,1,396,-4)" xmlns:kvg="http://kanjivg.tagaini.net"></path><path class="stroke_order_diagram--existing_path" d="M14.95,28.84c4.21-1,10.88-1.4,14.09-2.1c1.37-0.3,2.18,1.34,2.18,2.07c0,3.76-0.43,39.82-0.43,46.56" id="Ske2m39z01c" kvg:type="㇕a" transform="matrix(1,0,0,1,396,-4)" xmlns:kvg="http://kanjivg.tagaini.net"></path><path class="stroke_order_diagram--existing_path" d="M14.44,51c5.56-0.68,11.6-1.16,16.43-1.7" id="Ske2m39z01d" kvg:type="㇐a" transform="matrix(1,0,0,1,396,-4)" xmlns:kvg="http://kanjivg.tagaini.net"></path><path class="stroke_order_diagram--existing_path" d="M14.75,74.51c5.05-0.52,9.63-1.46,15.7-1.91" id="Ske2m39z01e" kvg:type="㇐a" transform="matrix(1,0,0,1,396,-4)" xmlns:kvg="http://kanjivg.tagaini.net"></path><path class="stroke_order_diagram--current_path" d="M78.12,10.64c0.08,0.28,0.16,0.73-0.16,1.13c-1.92,2.39-15.59,7.19-30.71,10.39" id="kvg:066d6-s5" kvg:type="㇒" transform="matrix(1,0,0,1,396,-4)" xmlns:kvg="http://kanjivg.tagaini.net"></path><path class="stroke_order_diagram--current_path" d="M78.12,10.64c0.08,0.28,0.16,0.73-0.16,1.13c-1.92,2.39-15.59,7.19-30.71,10.39" id="Ske2m39z01g" kvg:type="㇒" transform="matrix(1,0,0,1,396,-4)" xmlns:kvg="http://kanjivg.tagaini.net"></path><circle class="stroke_order_diagram--path_start" cx="78.12" cy="10.64" r="4" transform="matrix(1,0,0,1,396,-4)"></circle><line class="stroke_order_diagram--guide_line" x1="550" x2="550" y1="1" y2="99"></line><line class="stroke_order_diagram--bounding_box" x1="599" x2="599" y1="1" y2="99"></line><path class="stroke_order_diagram--existing_path" d="M13.77,27.32c0.32,0.73,0.65,1.56,0.65,2.54c0,0.97-0.11,46.42,0,47.39" id="Ske2m39z01j" kvg:type="㇑" transform="matrix(1,0,0,1,496,-4)" xmlns:kvg="http://kanjivg.tagaini.net"></path><path class="stroke_order_diagram--existing_path" d="M14.95,28.84c4.21-1,10.88-1.4,14.09-2.1c1.37-0.3,2.18,1.34,2.18,2.07c0,3.76-0.43,39.82-0.43,46.56" id="Ske2m39z01k" kvg:type="㇕a" transform="matrix(1,0,0,1,496,-4)" xmlns:kvg="http://kanjivg.tagaini.net"></path><path class="stroke_order_diagram--existing_path" d="M14.44,51c5.56-0.68,11.6-1.16,16.43-1.7" id="Ske2m39z01l" kvg:type="㇐a" transform="matrix(1,0,0,1,496,-4)" xmlns:kvg="http://kanjivg.tagaini.net"></path><path class="stroke_order_diagram--existing_path" d="M14.75,74.51c5.05-0.52,9.63-1.46,15.7-1.91" id="Ske2m39z01m" kvg:type="㇐a" transform="matrix(1,0,0,1,496,-4)" xmlns:kvg="http://kanjivg.tagaini.net"></path><path class="stroke_order_diagram--existing_path" d="M78.12,10.64c0.08,0.28,0.16,0.73-0.16,1.13c-1.92,2.39-15.59,7.19-30.71,10.39" id="Ske2m39z01n" kvg:type="㇒" transform="matrix(1,0,0,1,496,-4)" xmlns:kvg="http://kanjivg.tagaini.net"></path><path class="stroke_order_diagram--current_path" d="M46.47,25.83c2.31,1.55,5.67,5.36,6.25,7.78" id="kvg:066d6-s6" kvg:type="㇔" transform="matrix(1,0,0,1,496,-4)" xmlns:kvg="http://kanjivg.tagaini.net"></path><path class="stroke_order_diagram--current_path" d="M46.47,25.83c2.31,1.55,5.67,5.36,6.25,7.78" id="Ske2m39z01p" kvg:type="㇔" transform="matrix(1,0,0,1,496,-4)" xmlns:kvg="http://kanjivg.tagaini.net"></path><circle class="stroke_order_diagram--path_start" cx="46.47" cy="25.83" r="4" transform="matrix(1,0,0,1,496,-4)"></circle><line class="stroke_order_diagram--guide_line" x1="650" x2="650" y1="1" y2="99"></line><line class="stroke_order_diagram--bounding_box" x1="699" x2="699" y1="1" y2="99"></line><path class="stroke_order_diagram--existing_path" d="M13.77,27.32c0.32,0.73,0.65,1.56,0.65,2.54c0,0.97-0.11,46.42,0,47.39" id="Ske2m39z01s" kvg:type="㇑" transform="matrix(1,0,0,1,596,-4)" xmlns:kvg="http://kanjivg.tagaini.net"></path><path class="stroke_order_diagram--existing_path" d="M14.95,28.84c4.21-1,10.88-1.4,14.09-2.1c1.37-0.3,2.18,1.34,2.18,2.07c0,3.76-0.43,39.82-0.43,46.56" id="Ske2m39z01t" kvg:type="㇕a" transform="matrix(1,0,0,1,596,-4)" xmlns:kvg="http://kanjivg.tagaini.net"></path><path class="stroke_order_diagram--existing_path" d="M14.44,51c5.56-0.68,11.6-1.16,16.43-1.7" id="Ske2m39z01u" kvg:type="㇐a" transform="matrix(1,0,0,1,596,-4)" xmlns:kvg="http://kanjivg.tagaini.net"></path><path class="stroke_order_diagram--existing_path" d="M14.75,74.51c5.05-0.52,9.63-1.46,15.7-1.91" id="Ske2m39z01v" kvg:type="㇐a" transform="matrix(1,0,0,1,596,-4)" xmlns:kvg="http://kanjivg.tagaini.net"></path><path class="stroke_order_diagram--existing_path" d="M78.12,10.64c0.08,0.28,0.16,0.73-0.16,1.13c-1.92,2.39-15.59,7.19-30.71,10.39" id="Ske2m39z01w" kvg:type="㇒" transform="matrix(1,0,0,1,596,-4)" xmlns:kvg="http://kanjivg.tagaini.net"></path><path class="stroke_order_diagram--existing_path" d="M46.47,25.83c2.31,1.55,5.67,5.36,6.25,7.78" id="Ske2m39z01x" kvg:type="㇔" transform="matrix(1,0,0,1,596,-4)" xmlns:kvg="http://kanjivg.tagaini.net"></path><path class="stroke_order_diagram--current_path" d="M61.59,22.47c1.97,1.28,5.1,5.25,5.59,7.24" id="kvg:066d6-s7" kvg:type="㇔" transform="matrix(1,0,0,1,596,-4)" xmlns:kvg="http://kanjivg.tagaini.net"></path><path class="stroke_order_diagram--current_path" d="M61.59,22.47c1.97,1.28,5.1,5.25,5.59,7.24" id="Ske2m39z01z" kvg:type="㇔" transform="matrix(1,0,0,1,596,-4)" xmlns:kvg="http://kanjivg.tagaini.net"></path><circle class="stroke_order_diagram--path_start" cx="61.59" cy="22.47" r="4" transform="matrix(1,0,0,1,596,-4)"></circle><line class="stroke_order_diagram--guide_line" x1="750" x2="750" y1="1" y2="99"></line><line class="stroke_order_diagram--bounding_box" x1="799" x2="799" y1="1" y2="99"></line><path class="stroke_order_diagram--existing_path" d="M13.77,27.32c0.32,0.73,0.65,1.56,0.65,2.54c0,0.97-0.11,46.42,0,47.39" id="Ske2m39z022" kvg:type="㇑" transform="matrix(1,0,0,1,696,-4)" xmlns:kvg="http://kanjivg.tagaini.net"></path><path class="stroke_order_diagram--existing_path" d="M14.95,28.84c4.21-1,10.88-1.4,14.09-2.1c1.37-0.3,2.18,1.34,2.18,2.07c0,3.76-0.43,39.82-0.43,46.56" id="Ske2m39z023" kvg:type="㇕a" transform="matrix(1,0,0,1,696,-4)" xmlns:kvg="http://kanjivg.tagaini.net"></path><path class="stroke_order_diagram--existing_path" d="M14.44,51c5.56-0.68,11.6-1.16,16.43-1.7" id="Ske2m39z024" kvg:type="㇐a" transform="matrix(1,0,0,1,696,-4)" xmlns:kvg="http://kanjivg.tagaini.net"></path><path class="stroke_order_diagram--existing_path" d="M14.75,74.51c5.05-0.52,9.63-1.46,15.7-1.91" id="Ske2m39z025" kvg:type="㇐a" transform="matrix(1,0,0,1,696,-4)" xmlns:kvg="http://kanjivg.tagaini.net"></path><path class="stroke_order_diagram--existing_path" d="M78.12,10.64c0.08,0.28,0.16,0.73-0.16,1.13c-1.92,2.39-15.59,7.19-30.71,10.39" id="Ske2m39z026" kvg:type="㇒" transform="matrix(1,0,0,1,696,-4)" xmlns:kvg="http://kanjivg.tagaini.net"></path><path class="stroke_order_diagram--existing_path" d="M46.47,25.83c2.31,1.55,5.67,5.36,6.25,7.78" id="Ske2m39z027" kvg:type="㇔" transform="matrix(1,0,0,1,696,-4)" xmlns:kvg="http://kanjivg.tagaini.net"></path><path class="stroke_order_diagram--existing_path" d="M61.59,22.47c1.97,1.28,5.1,5.25,5.59,7.24" id="Ske2m39z028" kvg:type="㇔" transform="matrix(1,0,0,1,696,-4)" xmlns:kvg="http://kanjivg.tagaini.net"></path><path class="stroke_order_diagram--current_path" d="M86.6,19.48c0.02,0.27,0.04,0.71-0.04,1.1c-0.51,2.31-3.41,7.39-7.38,10.5" id="kvg:066d6-s8" kvg:type="㇒" transform="matrix(1,0,0,1,696,-4)" xmlns:kvg="http://kanjivg.tagaini.net"></path><path class="stroke_order_diagram--current_path" d="M86.6,19.48c0.02,0.27,0.04,0.71-0.04,1.1c-0.51,2.31-3.41,7.39-7.38,10.5" id="Ske2m39z02a" kvg:type="㇒" transform="matrix(1,0,0,1,696,-4)" xmlns:kvg="http://kanjivg.tagaini.net"></path><circle class="stroke_order_diagram--path_start" cx="86.6" cy="19.48" r="4" transform="matrix(1,0,0,1,696,-4)"></circle><line class="stroke_order_diagram--guide_line" x1="850" x2="850" y1="1" y2="99"></line><line class="stroke_order_diagram--bounding_box" x1="899" x2="899" y1="1" y2="99"></line><path class="stroke_order_diagram--existing_path" d="M13.77,27.32c0.32,0.73,0.65,1.56,0.65,2.54c0,0.97-0.11,46.42,0,47.39" id="Ske2m39z02d" kvg:type="㇑" transform="matrix(1,0,0,1,796,-4)" xmlns:kvg="http://kanjivg.tagaini.net"></path><path class="stroke_order_diagram--existing_path" d="M14.95,28.84c4.21-1,10.88-1.4,14.09-2.1c1.37-0.3,2.18,1.34,2.18,2.07c0,3.76-0.43,39.82-0.43,46.56" id="Ske2m39z02e" kvg:type="㇕a" transform="matrix(1,0,0,1,796,-4)" xmlns:kvg="http://kanjivg.tagaini.net"></path><path class="stroke_order_diagram--existing_path" d="M14.44,51c5.56-0.68,11.6-1.16,16.43-1.7" id="Ske2m39z02f" kvg:type="㇐a" transform="matrix(1,0,0,1,796,-4)" xmlns:kvg="http://kanjivg.tagaini.net"></path><path class="stroke_order_diagram--existing_path" d="M14.75,74.51c5.05-0.52,9.63-1.46,15.7-1.91" id="Ske2m39z02g" kvg:type="㇐a" transform="matrix(1,0,0,1,796,-4)" xmlns:kvg="http://kanjivg.tagaini.net"></path><path class="stroke_order_diagram--existing_path" d="M78.12,10.64c0.08,0.28,0.16,0.73-0.16,1.13c-1.92,2.39-15.59,7.19-30.71,10.39" id="Ske2m39z02h" kvg:type="㇒" transform="matrix(1,0,0,1,796,-4)" xmlns:kvg="http://kanjivg.tagaini.net"></path><path class="stroke_order_diagram--existing_path" d="M46.47,25.83c2.31,1.55,5.67,5.36,6.25,7.78" id="Ske2m39z02i" kvg:type="㇔" transform="matrix(1,0,0,1,796,-4)" xmlns:kvg="http://kanjivg.tagaini.net"></path><path class="stroke_order_diagram--existing_path" d="M61.59,22.47c1.97,1.28,5.1,5.25,5.59,7.24" id="Ske2m39z02j" kvg:type="㇔" transform="matrix(1,0,0,1,796,-4)" xmlns:kvg="http://kanjivg.tagaini.net"></path><path class="stroke_order_diagram--existing_path" d="M86.6,19.48c0.02,0.27,0.04,0.71-0.04,1.1c-0.51,2.31-3.41,7.39-7.38,10.5" id="Ske2m39z02k" kvg:type="㇒" transform="matrix(1,0,0,1,796,-4)" xmlns:kvg="http://kanjivg.tagaini.net"></path><path class="stroke_order_diagram--current_path" d="M41.25,34.79c-0.12,3.53-2.35,11.56-3.43,13.73" id="kvg:066d6-s9" kvg:type="㇔" transform="matrix(1,0,0,1,796,-4)" xmlns:kvg="http://kanjivg.tagaini.net"></path><path class="stroke_order_diagram--current_path" d="M41.25,34.79c-0.12,3.53-2.35,11.56-3.43,13.73" id="Ske2m39z02m" kvg:type="㇔" transform="matrix(1,0,0,1,796,-4)" xmlns:kvg="http://kanjivg.tagaini.net"></path><circle class="stroke_order_diagram--path_start" cx="41.25" cy="34.79" r="4" transform="matrix(1,0,0,1,796,-4)"></circle><line class="stroke_order_diagram--guide_line" x1="950" x2="950" y1="1" y2="99"></line><line class="stroke_order_diagram--bounding_box" x1="999" x2="999" y1="1" y2="99"></line><path class="stroke_order_diagram--existing_path" d="M13.77,27.32c0.32,0.73,0.65,1.56,0.65,2.54c0,0.97-0.11,46.42,0,47.39" id="Ske2m39z02p" kvg:type="㇑" transform="matrix(1,0,0,1,896,-4)" xmlns:kvg="http://kanjivg.tagaini.net"></path><path class="stroke_order_diagram--existing_path" d="M14.95,28.84c4.21-1,10.88-1.4,14.09-2.1c1.37-0.3,2.18,1.34,2.18,2.07c0,3.76-0.43,39.82-0.43,46.56" id="Ske2m39z02q" kvg:type="㇕a" transform="matrix(1,0,0,1,896,-4)" xmlns:kvg="http://kanjivg.tagaini.net"></path><path class="stroke_order_diagram--existing_path" d="M14.44,51c5.56-0.68,11.6-1.16,16.43-1.7" id="Ske2m39z02r" kvg:type="㇐a" transform="matrix(1,0,0,1,896,-4)" xmlns:kvg="http://kanjivg.tagaini.net"></path><path class="stroke_order_diagram--existing_path" d="M14.75,74.51c5.05-0.52,9.63-1.46,15.7-1.91" id="Ske2m39z02s" kvg:type="㇐a" transform="matrix(1,0,0,1,896,-4)" xmlns:kvg="http://kanjivg.tagaini.net"></path><path class="stroke_order_diagram--existing_path" d="M78.12,10.64c0.08,0.28,0.16,0.73-0.16,1.13c-1.92,2.39-15.59,7.19-30.71,10.39" id="Ske2m39z02t" kvg:type="㇒" transform="matrix(1,0,0,1,896,-4)" xmlns:kvg="http://kanjivg.tagaini.net"></path><path class="stroke_order_diagram--existing_path" d="M46.47,25.83c2.31,1.55,5.67,5.36,6.25,7.78" id="Ske2m39z02u" kvg:type="㇔" transform="matrix(1,0,0,1,896,-4)" xmlns:kvg="http://kanjivg.tagaini.net"></path><path class="stroke_order_diagram--existing_path" d="M61.59,22.47c1.97,1.28,5.1,5.25,5.59,7.24" id="Ske2m39z02v" kvg:type="㇔" transform="matrix(1,0,0,1,896,-4)" xmlns:kvg="http://kanjivg.tagaini.net"></path><path class="stroke_order_diagram--existing_path" d="M86.6,19.48c0.02,0.27,0.04,0.71-0.04,1.1c-0.51,2.31-3.41,7.39-7.38,10.5" id="Ske2m39z02w" kvg:type="㇒" transform="matrix(1,0,0,1,896,-4)" xmlns:kvg="http://kanjivg.tagaini.net"></path><path class="stroke_order_diagram--existing_path" d="M41.25,34.79c-0.12,3.53-2.35,11.56-3.43,13.73" id="Ske2m39z02x" kvg:type="㇔" transform="matrix(1,0,0,1,896,-4)" xmlns:kvg="http://kanjivg.tagaini.net"></path><path class="stroke_order_diagram--current_path" d="M41.39,37.97c11.61-0.95,35.73-4.52,48.64-5.4c9.71-0.66,2.28,6.26-0.48,8.13" id="kvg:066d6-s10" kvg:type="㇖b" transform="matrix(1,0,0,1,896,-4)" xmlns:kvg="http://kanjivg.tagaini.net"></path><path class="stroke_order_diagram--current_path" d="M41.39,37.97c11.61-0.95,35.73-4.52,48.64-5.4c9.71-0.66,2.28,6.26-0.48,8.13" id="Ske2m39z02z" kvg:type="㇖b" transform="matrix(1,0,0,1,896,-4)" xmlns:kvg="http://kanjivg.tagaini.net"></path><circle class="stroke_order_diagram--path_start" cx="41.39" cy="37.97" r="4" transform="matrix(1,0,0,1,896,-4)"></circle><line class="stroke_order_diagram--guide_line" x1="1050" x2="1050" y1="1" y2="99"></line><line class="stroke_order_diagram--bounding_box" x1="1099" x2="1099" y1="1" y2="99"></line><path class="stroke_order_diagram--existing_path" d="M13.77,27.32c0.32,0.73,0.65,1.56,0.65,2.54c0,0.97-0.11,46.42,0,47.39" id="Ske2m39z032" kvg:type="㇑" transform="matrix(1,0,0,1,996,-4)" xmlns:kvg="http://kanjivg.tagaini.net"></path><path class="stroke_order_diagram--existing_path" d="M14.95,28.84c4.21-1,10.88-1.4,14.09-2.1c1.37-0.3,2.18,1.34,2.18,2.07c0,3.76-0.43,39.82-0.43,46.56" id="Ske2m39z033" kvg:type="㇕a" transform="matrix(1,0,0,1,996,-4)" xmlns:kvg="http://kanjivg.tagaini.net"></path><path class="stroke_order_diagram--existing_path" d="M14.44,51c5.56-0.68,11.6-1.16,16.43-1.7" id="Ske2m39z034" kvg:type="㇐a" transform="matrix(1,0,0,1,996,-4)" xmlns:kvg="http://kanjivg.tagaini.net"></path><path class="stroke_order_diagram--existing_path" d="M14.75,74.51c5.05-0.52,9.63-1.46,15.7-1.91" id="Ske2m39z035" kvg:type="㇐a" transform="matrix(1,0,0,1,996,-4)" xmlns:kvg="http://kanjivg.tagaini.net"></path><path class="stroke_order_diagram--existing_path" d="M78.12,10.64c0.08,0.28,0.16,0.73-0.16,1.13c-1.92,2.39-15.59,7.19-30.71,10.39" id="Ske2m39z036" kvg:type="㇒" transform="matrix(1,0,0,1,996,-4)" xmlns:kvg="http://kanjivg.tagaini.net"></path><path class="stroke_order_diagram--existing_path" d="M46.47,25.83c2.31,1.55,5.67,5.36,6.25,7.78" id="Ske2m39z037" kvg:type="㇔" transform="matrix(1,0,0,1,996,-4)" xmlns:kvg="http://kanjivg.tagaini.net"></path><path class="stroke_order_diagram--existing_path" d="M61.59,22.47c1.97,1.28,5.1,5.25,5.59,7.24" id="Ske2m39z038" kvg:type="㇔" transform="matrix(1,0,0,1,996,-4)" xmlns:kvg="http://kanjivg.tagaini.net"></path><path class="stroke_order_diagram--existing_path" d="M86.6,19.48c0.02,0.27,0.04,0.71-0.04,1.1c-0.51,2.31-3.41,7.39-7.38,10.5" id="Ske2m39z039" kvg:type="㇒" transform="matrix(1,0,0,1,996,-4)" xmlns:kvg="http://kanjivg.tagaini.net"></path><path class="stroke_order_diagram--existing_path" d="M41.25,34.79c-0.12,3.53-2.35,11.56-3.43,13.73" id="Ske2m39z03a" kvg:type="㇔" transform="matrix(1,0,0,1,996,-4)" xmlns:kvg="http://kanjivg.tagaini.net"></path><path class="stroke_order_diagram--existing_path" d="M41.39,37.97c11.61-0.95,35.73-4.52,48.64-5.4c9.71-0.66,2.28,6.26-0.48,8.13" id="Ske2m39z03b" kvg:type="㇖b" transform="matrix(1,0,0,1,996,-4)" xmlns:kvg="http://kanjivg.tagaini.net"></path><path class="stroke_order_diagram--current_path" d="M44.87,49.56c0.21,1.4-2.07,7.56-3.73,9.89" id="kvg:066d6-s11" kvg:type="㇔" transform="matrix(1,0,0,1,996,-4)" xmlns:kvg="http://kanjivg.tagaini.net"></path><path class="stroke_order_diagram--current_path" d="M44.87,49.56c0.21,1.4-2.07,7.56-3.73,9.89" id="Ske2m39z03d" kvg:type="㇔" transform="matrix(1,0,0,1,996,-4)" xmlns:kvg="http://kanjivg.tagaini.net"></path><circle class="stroke_order_diagram--path_start" cx="44.87" cy="49.56" r="4" transform="matrix(1,0,0,1,996,-4)"></circle><line class="stroke_order_diagram--guide_line" x1="1150" x2="1150" y1="1" y2="99"></line><line class="stroke_order_diagram--bounding_box" x1="1199" x2="1199" y1="1" y2="99"></line><path class="stroke_order_diagram--existing_path" d="M13.77,27.32c0.32,0.73,0.65,1.56,0.65,2.54c0,0.97-0.11,46.42,0,47.39" id="Ske2m39z03g" kvg:type="㇑" transform="matrix(1,0,0,1,1096,-4)" xmlns:kvg="http://kanjivg.tagaini.net"></path><path class="stroke_order_diagram--existing_path" d="M14.95,28.84c4.21-1,10.88-1.4,14.09-2.1c1.37-0.3,2.18,1.34,2.18,2.07c0,3.76-0.43,39.82-0.43,46.56" id="Ske2m39z03h" kvg:type="㇕a" transform="matrix(1,0,0,1,1096,-4)" xmlns:kvg="http://kanjivg.tagaini.net"></path><path class="stroke_order_diagram--existing_path" d="M14.44,51c5.56-0.68,11.6-1.16,16.43-1.7" id="Ske2m39z03i" kvg:type="㇐a" transform="matrix(1,0,0,1,1096,-4)" xmlns:kvg="http://kanjivg.tagaini.net"></path><path class="stroke_order_diagram--existing_path" d="M14.75,74.51c5.05-0.52,9.63-1.46,15.7-1.91" id="Ske2m39z03j" kvg:type="㇐a" transform="matrix(1,0,0,1,1096,-4)" xmlns:kvg="http://kanjivg.tagaini.net"></path><path class="stroke_order_diagram--existing_path" d="M78.12,10.64c0.08,0.28,0.16,0.73-0.16,1.13c-1.92,2.39-15.59,7.19-30.71,10.39" id="Ske2m39z03k" kvg:type="㇒" transform="matrix(1,0,0,1,1096,-4)" xmlns:kvg="http://kanjivg.tagaini.net"></path><path class="stroke_order_diagram--existing_path" d="M46.47,25.83c2.31,1.55,5.67,5.36,6.25,7.78" id="Ske2m39z03l" kvg:type="㇔" transform="matrix(1,0,0,1,1096,-4)" xmlns:kvg="http://kanjivg.tagaini.net"></path><path class="stroke_order_diagram--existing_path" d="M61.59,22.47c1.97,1.28,5.1,5.25,5.59,7.24" id="Ske2m39z03m" kvg:type="㇔" transform="matrix(1,0,0,1,1096,-4)" xmlns:kvg="http://kanjivg.tagaini.net"></path><path class="stroke_order_diagram--existing_path" d="M86.6,19.48c0.02,0.27,0.04,0.71-0.04,1.1c-0.51,2.31-3.41,7.39-7.38,10.5" id="Ske2m39z03n" kvg:type="㇒" transform="matrix(1,0,0,1,1096,-4)" xmlns:kvg="http://kanjivg.tagaini.net"></path><path class="stroke_order_diagram--existing_path" d="M41.25,34.79c-0.12,3.53-2.35,11.56-3.43,13.73" id="Ske2m39z03o" kvg:type="㇔" transform="matrix(1,0,0,1,1096,-4)" xmlns:kvg="http://kanjivg.tagaini.net"></path><path class="stroke_order_diagram--existing_path" d="M41.39,37.97c11.61-0.95,35.73-4.52,48.64-5.4c9.71-0.66,2.28,6.26-0.48,8.13" id="Ske2m39z03p" kvg:type="㇖b" transform="matrix(1,0,0,1,1096,-4)" xmlns:kvg="http://kanjivg.tagaini.net"></path><path class="stroke_order_diagram--existing_path" d="M44.87,49.56c0.21,1.4-2.07,7.56-3.73,9.89" id="Ske2m39z03q" kvg:type="㇔" transform="matrix(1,0,0,1,1096,-4)" xmlns:kvg="http://kanjivg.tagaini.net"></path><path class="stroke_order_diagram--current_path" d="M52.41,45.86c4.96,8.89,12.22,13.93,29.03,12.85c4.42-0.28,4.06-3.45-0.59-5.88" id="kvg:066d6-s12" kvg:type="㇟b" transform="matrix(1,0,0,1,1096,-4)" xmlns:kvg="http://kanjivg.tagaini.net"></path><path class="stroke_order_diagram--current_path" d="M52.41,45.86c4.96,8.89,12.22,13.93,29.03,12.85c4.42-0.28,4.06-3.45-0.59-5.88" id="Ske2m39z03s" kvg:type="㇟b" transform="matrix(1,0,0,1,1096,-4)" xmlns:kvg="http://kanjivg.tagaini.net"></path><circle class="stroke_order_diagram--path_start" cx="52.41" cy="45.86" r="4" transform="matrix(1,0,0,1,1096,-4)"></circle><line class="stroke_order_diagram--guide_line" x1="1250" x2="1250" y1="1" y2="99"></line><line class="stroke_order_diagram--bounding_box" x1="1299" x2="1299" y1="1" y2="99"></line><path class="stroke_order_diagram--existing_path" d="M13.77,27.32c0.32,0.73,0.65,1.56,0.65,2.54c0,0.97-0.11,46.42,0,47.39" id="Ske2m39z03v" kvg:type="㇑" transform="matrix(1,0,0,1,1196,-4)" xmlns:kvg="http://kanjivg.tagaini.net"></path><path class="stroke_order_diagram--existing_path" d="M14.95,28.84c4.21-1,10.88-1.4,14.09-2.1c1.37-0.3,2.18,1.34,2.18,2.07c0,3.76-0.43,39.82-0.43,46.56" id="Ske2m39z03w" kvg:type="㇕a" transform="matrix(1,0,0,1,1196,-4)" xmlns:kvg="http://kanjivg.tagaini.net"></path><path class="stroke_order_diagram--existing_path" d="M14.44,51c5.56-0.68,11.6-1.16,16.43-1.7" id="Ske2m39z03x" kvg:type="㇐a" transform="matrix(1,0,0,1,1196,-4)" xmlns:kvg="http://kanjivg.tagaini.net"></path><path class="stroke_order_diagram--existing_path" d="M14.75,74.51c5.05-0.52,9.63-1.46,15.7-1.91" id="Ske2m39z03y" kvg:type="㇐a" transform="matrix(1,0,0,1,1196,-4)" xmlns:kvg="http://kanjivg.tagaini.net"></path><path class="stroke_order_diagram--existing_path" d="M78.12,10.64c0.08,0.28,0.16,0.73-0.16,1.13c-1.92,2.39-15.59,7.19-30.71,10.39" id="Ske2m39z03z" kvg:type="㇒" transform="matrix(1,0,0,1,1196,-4)" xmlns:kvg="http://kanjivg.tagaini.net"></path><path class="stroke_order_diagram--existing_path" d="M46.47,25.83c2.31,1.55,5.67,5.36,6.25,7.78" id="Ske2m39z040" kvg:type="㇔" transform="matrix(1,0,0,1,1196,-4)" xmlns:kvg="http://kanjivg.tagaini.net"></path><path class="stroke_order_diagram--existing_path" d="M61.59,22.47c1.97,1.28,5.1,5.25,5.59,7.24" id="Ske2m39z041" kvg:type="㇔" transform="matrix(1,0,0,1,1196,-4)" xmlns:kvg="http://kanjivg.tagaini.net"></path><path class="stroke_order_diagram--existing_path" d="M86.6,19.48c0.02,0.27,0.04,0.71-0.04,1.1c-0.51,2.31-3.41,7.39-7.38,10.5" id="Ske2m39z042" kvg:type="㇒" transform="matrix(1,0,0,1,1196,-4)" xmlns:kvg="http://kanjivg.tagaini.net"></path><path class="stroke_order_diagram--existing_path" d="M41.25,34.79c-0.12,3.53-2.35,11.56-3.43,13.73" id="Ske2m39z043" kvg:type="㇔" transform="matrix(1,0,0,1,1196,-4)" xmlns:kvg="http://kanjivg.tagaini.net"></path><path class="stroke_order_diagram--existing_path" d="M41.39,37.97c11.61-0.95,35.73-4.52,48.64-5.4c9.71-0.66,2.28,6.26-0.48,8.13" id="Ske2m39z044" kvg:type="㇖b" transform="matrix(1,0,0,1,1196,-4)" xmlns:kvg="http://kanjivg.tagaini.net"></path><path class="stroke_order_diagram--existing_path" d="M44.87,49.56c0.21,1.4-2.07,7.56-3.73,9.89" id="Ske2m39z045" kvg:type="㇔" transform="matrix(1,0,0,1,1196,-4)" xmlns:kvg="http://kanjivg.tagaini.net"></path><path class="stroke_order_diagram--existing_path" d="M52.41,45.86c4.96,8.89,12.22,13.93,29.03,12.85c4.42-0.28,4.06-3.45-0.59-5.88" id="Ske2m39z046" kvg:type="㇟b" transform="matrix(1,0,0,1,1196,-4)" xmlns:kvg="http://kanjivg.tagaini.net"></path><path class="stroke_order_diagram--current_path" d="M64.4,44.08c1.35,3.17,4.72,4.32,5.36,2" id="kvg:066d6-s13" kvg:type="㇔a" transform="matrix(1,0,0,1,1196,-4)" xmlns:kvg="http://kanjivg.tagaini.net"></path><path class="stroke_order_diagram--current_path" d="M64.4,44.08c1.35,3.17,4.72,4.32,5.36,2" id="Ske2m39z048" kvg:type="㇔a" transform="matrix(1,0,0,1,1196,-4)" xmlns:kvg="http://kanjivg.tagaini.net"></path><circle class="stroke_order_diagram--path_start" cx="64.4" cy="44.08" r="4" transform="matrix(1,0,0,1,1196,-4)"></circle><line class="stroke_order_diagram--guide_line" x1="1350" x2="1350" y1="1" y2="99"></line><line class="stroke_order_diagram--bounding_box" x1="1399" x2="1399" y1="1" y2="99"></line><path class="stroke_order_diagram--existing_path" d="M13.77,27.32c0.32,0.73,0.65,1.56,0.65,2.54c0,0.97-0.11,46.42,0,47.39" id="Ske2m39z04b" kvg:type="㇑" transform="matrix(1,0,0,1,1296,-4)" xmlns:kvg="http://kanjivg.tagaini.net"></path><path class="stroke_order_diagram--existing_path" d="M14.95,28.84c4.21-1,10.88-1.4,14.09-2.1c1.37-0.3,2.18,1.34,2.18,2.07c0,3.76-0.43,39.82-0.43,46.56" id="Ske2m39z04c" kvg:type="㇕a" transform="matrix(1,0,0,1,1296,-4)" xmlns:kvg="http://kanjivg.tagaini.net"></path><path class="stroke_order_diagram--existing_path" d="M14.44,51c5.56-0.68,11.6-1.16,16.43-1.7" id="Ske2m39z04d" kvg:type="㇐a" transform="matrix(1,0,0,1,1296,-4)" xmlns:kvg="http://kanjivg.tagaini.net"></path><path class="stroke_order_diagram--existing_path" d="M14.75,74.51c5.05-0.52,9.63-1.46,15.7-1.91" id="Ske2m39z04e" kvg:type="㇐a" transform="matrix(1,0,0,1,1296,-4)" xmlns:kvg="http://kanjivg.tagaini.net"></path><path class="stroke_order_diagram--existing_path" d="M78.12,10.64c0.08,0.28,0.16,0.73-0.16,1.13c-1.92,2.39-15.59,7.19-30.71,10.39" id="Ske2m39z04f" kvg:type="㇒" transform="matrix(1,0,0,1,1296,-4)" xmlns:kvg="http://kanjivg.tagaini.net"></path><path class="stroke_order_diagram--existing_path" d="M46.47,25.83c2.31,1.55,5.67,5.36,6.25,7.78" id="Ske2m39z04g" kvg:type="㇔" transform="matrix(1,0,0,1,1296,-4)" xmlns:kvg="http://kanjivg.tagaini.net"></path><path class="stroke_order_diagram--existing_path" d="M61.59,22.47c1.97,1.28,5.1,5.25,5.59,7.24" id="Ske2m39z04h" kvg:type="㇔" transform="matrix(1,0,0,1,1296,-4)" xmlns:kvg="http://kanjivg.tagaini.net"></path><path class="stroke_order_diagram--existing_path" d="M86.6,19.48c0.02,0.27,0.04,0.71-0.04,1.1c-0.51,2.31-3.41,7.39-7.38,10.5" id="Ske2m39z04i" kvg:type="㇒" transform="matrix(1,0,0,1,1296,-4)" xmlns:kvg="http://kanjivg.tagaini.net"></path><path class="stroke_order_diagram--existing_path" d="M41.25,34.79c-0.12,3.53-2.35,11.56-3.43,13.73" id="Ske2m39z04j" kvg:type="㇔" transform="matrix(1,0,0,1,1296,-4)" xmlns:kvg="http://kanjivg.tagaini.net"></path><path class="stroke_order_diagram--existing_path" d="M41.39,37.97c11.61-0.95,35.73-4.52,48.64-5.4c9.71-0.66,2.28,6.26-0.48,8.13" id="Ske2m39z04k" kvg:type="㇖b" transform="matrix(1,0,0,1,1296,-4)" xmlns:kvg="http://kanjivg.tagaini.net"></path><path class="stroke_order_diagram--existing_path" d="M44.87,49.56c0.21,1.4-2.07,7.56-3.73,9.89" id="Ske2m39z04l" kvg:type="㇔" transform="matrix(1,0,0,1,1296,-4)" xmlns:kvg="http://kanjivg.tagaini.net"></path><path class="stroke_order_diagram--existing_path" d="M52.41,45.86c4.96,8.89,12.22,13.93,29.03,12.85c4.42-0.28,4.06-3.45-0.59-5.88" id="Ske2m39z04m" kvg:type="㇟b" transform="matrix(1,0,0,1,1296,-4)" xmlns:kvg="http://kanjivg.tagaini.net"></path><path class="stroke_order_diagram--existing_path" d="M64.4,44.08c1.35,3.17,4.72,4.32,5.36,2" id="Ske2m39z04n" kvg:type="㇔a" transform="matrix(1,0,0,1,1296,-4)" xmlns:kvg="http://kanjivg.tagaini.net"></path><path class="stroke_order_diagram--current_path" d="M81.24,43.27c3.9,1.65,6.83,3.16,10.01,8.28" id="kvg:066d6-s14" kvg:type="㇔" transform="matrix(1,0,0,1,1296,-4)" xmlns:kvg="http://kanjivg.tagaini.net"></path><path class="stroke_order_diagram--current_path" d="M81.24,43.27c3.9,1.65,6.83,3.16,10.01,8.28" id="Ske2m39z04p" kvg:type="㇔" transform="matrix(1,0,0,1,1296,-4)" xmlns:kvg="http://kanjivg.tagaini.net"></path><circle class="stroke_order_diagram--path_start" cx="81.24" cy="43.27" r="4" transform="matrix(1,0,0,1,1296,-4)"></circle><line class="stroke_order_diagram--guide_line" x1="1450" x2="1450" y1="1" y2="99"></line><line class="stroke_order_diagram--bounding_box" x1="1499" x2="1499" y1="1" y2="99"></line><path class="stroke_order_diagram--existing_path" d="M13.77,27.32c0.32,0.73,0.65,1.56,0.65,2.54c0,0.97-0.11,46.42,0,47.39" id="Ske2m39z04s" kvg:type="㇑" transform="matrix(1,0,0,1,1396,-4)" xmlns:kvg="http://kanjivg.tagaini.net"></path><path class="stroke_order_diagram--existing_path" d="M14.95,28.84c4.21-1,10.88-1.4,14.09-2.1c1.37-0.3,2.18,1.34,2.18,2.07c0,3.76-0.43,39.82-0.43,46.56" id="Ske2m39z04t" kvg:type="㇕a" transform="matrix(1,0,0,1,1396,-4)" xmlns:kvg="http://kanjivg.tagaini.net"></path><path class="stroke_order_diagram--existing_path" d="M14.44,51c5.56-0.68,11.6-1.16,16.43-1.7" id="Ske2m39z04u" kvg:type="㇐a" transform="matrix(1,0,0,1,1396,-4)" xmlns:kvg="http://kanjivg.tagaini.net"></path><path class="stroke_order_diagram--existing_path" d="M14.75,74.51c5.05-0.52,9.63-1.46,15.7-1.91" id="Ske2m39z04v" kvg:type="㇐a" transform="matrix(1,0,0,1,1396,-4)" xmlns:kvg="http://kanjivg.tagaini.net"></path><path class="stroke_order_diagram--existing_path" d="M78.12,10.64c0.08,0.28,0.16,0.73-0.16,1.13c-1.92,2.39-15.59,7.19-30.71,10.39" id="Ske2m39z04w" kvg:type="㇒" transform="matrix(1,0,0,1,1396,-4)" xmlns:kvg="http://kanjivg.tagaini.net"></path><path class="stroke_order_diagram--existing_path" d="M46.47,25.83c2.31,1.55,5.67,5.36,6.25,7.78" id="Ske2m39z04x" kvg:type="㇔" transform="matrix(1,0,0,1,1396,-4)" xmlns:kvg="http://kanjivg.tagaini.net"></path><path class="stroke_order_diagram--existing_path" d="M61.59,22.47c1.97,1.28,5.1,5.25,5.59,7.24" id="Ske2m39z04y" kvg:type="㇔" transform="matrix(1,0,0,1,1396,-4)" xmlns:kvg="http://kanjivg.tagaini.net"></path><path class="stroke_order_diagram--existing_path" d="M86.6,19.48c0.02,0.27,0.04,0.71-0.04,1.1c-0.51,2.31-3.41,7.39-7.38,10.5" id="Ske2m39z04z" kvg:type="㇒" transform="matrix(1,0,0,1,1396,-4)" xmlns:kvg="http://kanjivg.tagaini.net"></path><path class="stroke_order_diagram--existing_path" d="M41.25,34.79c-0.12,3.53-2.35,11.56-3.43,13.73" id="Ske2m39z050" kvg:type="㇔" transform="matrix(1,0,0,1,1396,-4)" xmlns:kvg="http://kanjivg.tagaini.net"></path><path class="stroke_order_diagram--existing_path" d="M41.39,37.97c11.61-0.95,35.73-4.52,48.64-5.4c9.71-0.66,2.28,6.26-0.48,8.13" id="Ske2m39z051" kvg:type="㇖b" transform="matrix(1,0,0,1,1396,-4)" xmlns:kvg="http://kanjivg.tagaini.net"></path><path class="stroke_order_diagram--existing_path" d="M44.87,49.56c0.21,1.4-2.07,7.56-3.73,9.89" id="Ske2m39z052" kvg:type="㇔" transform="matrix(1,0,0,1,1396,-4)" xmlns:kvg="http://kanjivg.tagaini.net"></path><path class="stroke_order_diagram--existing_path" d="M52.41,45.86c4.96,8.89,12.22,13.93,29.03,12.85c4.42-0.28,4.06-3.45-0.59-5.88" id="Ske2m39z053" kvg:type="㇟b" transform="matrix(1,0,0,1,1396,-4)" xmlns:kvg="http://kanjivg.tagaini.net"></path><path class="stroke_order_diagram--existing_path" d="M64.4,44.08c1.35,3.17,4.72,4.32,5.36,2" id="Ske2m39z054" kvg:type="㇔a" transform="matrix(1,0,0,1,1396,-4)" xmlns:kvg="http://kanjivg.tagaini.net"></path><path class="stroke_order_diagram--existing_path" d="M81.24,43.27c3.9,1.65,6.83,3.16,10.01,8.28" id="Ske2m39z055" kvg:type="㇔" transform="matrix(1,0,0,1,1396,-4)" xmlns:kvg="http://kanjivg.tagaini.net"></path><path class="stroke_order_diagram--current_path" d="M57.4,59.13c0.05,0.58,0.11,1.51-0.1,2.34c-1.21,4.94-8.16,15.78-17.66,22.41" id="kvg:066d6-s15" kvg:type="㇒" transform="matrix(1,0,0,1,1396,-4)" xmlns:kvg="http://kanjivg.tagaini.net"></path><path class="stroke_order_diagram--current_path" d="M57.4,59.13c0.05,0.58,0.11,1.51-0.1,2.34c-1.21,4.94-8.16,15.78-17.66,22.41" id="Ske2m39z057" kvg:type="㇒" transform="matrix(1,0,0,1,1396,-4)" xmlns:kvg="http://kanjivg.tagaini.net"></path><circle class="stroke_order_diagram--path_start" cx="57.4" cy="59.13" r="4" transform="matrix(1,0,0,1,1396,-4)"></circle><line class="stroke_order_diagram--guide_line" x1="1550" x2="1550" y1="1" y2="99"></line><line class="stroke_order_diagram--bounding_box" x1="1599" x2="1599" y1="1" y2="99"></line><path class="stroke_order_diagram--existing_path" d="M13.77,27.32c0.32,0.73,0.65,1.56,0.65,2.54c0,0.97-0.11,46.42,0,47.39" id="Ske2m39z05a" kvg:type="㇑" transform="matrix(1,0,0,1,1496,-4)" xmlns:kvg="http://kanjivg.tagaini.net"></path><path class="stroke_order_diagram--existing_path" d="M14.95,28.84c4.21-1,10.88-1.4,14.09-2.1c1.37-0.3,2.18,1.34,2.18,2.07c0,3.76-0.43,39.82-0.43,46.56" id="Ske2m39z05b" kvg:type="㇕a" transform="matrix(1,0,0,1,1496,-4)" xmlns:kvg="http://kanjivg.tagaini.net"></path><path class="stroke_order_diagram--existing_path" d="M14.44,51c5.56-0.68,11.6-1.16,16.43-1.7" id="Ske2m39z05c" kvg:type="㇐a" transform="matrix(1,0,0,1,1496,-4)" xmlns:kvg="http://kanjivg.tagaini.net"></path><path class="stroke_order_diagram--existing_path" d="M14.75,74.51c5.05-0.52,9.63-1.46,15.7-1.91" id="Ske2m39z05d" kvg:type="㇐a" transform="matrix(1,0,0,1,1496,-4)" xmlns:kvg="http://kanjivg.tagaini.net"></path><path class="stroke_order_diagram--existing_path" d="M78.12,10.64c0.08,0.28,0.16,0.73-0.16,1.13c-1.92,2.39-15.59,7.19-30.71,10.39" id="Ske2m39z05e" kvg:type="㇒" transform="matrix(1,0,0,1,1496,-4)" xmlns:kvg="http://kanjivg.tagaini.net"></path><path class="stroke_order_diagram--existing_path" d="M46.47,25.83c2.31,1.55,5.67,5.36,6.25,7.78" id="Ske2m39z05f" kvg:type="㇔" transform="matrix(1,0,0,1,1496,-4)" xmlns:kvg="http://kanjivg.tagaini.net"></path><path class="stroke_order_diagram--existing_path" d="M61.59,22.47c1.97,1.28,5.1,5.25,5.59,7.24" id="Ske2m39z05g" kvg:type="㇔" transform="matrix(1,0,0,1,1496,-4)" xmlns:kvg="http://kanjivg.tagaini.net"></path><path class="stroke_order_diagram--existing_path" d="M86.6,19.48c0.02,0.27,0.04,0.71-0.04,1.1c-0.51,2.31-3.41,7.39-7.38,10.5" id="Ske2m39z05h" kvg:type="㇒" transform="matrix(1,0,0,1,1496,-4)" xmlns:kvg="http://kanjivg.tagaini.net"></path><path class="stroke_order_diagram--existing_path" d="M41.25,34.79c-0.12,3.53-2.35,11.56-3.43,13.73" id="Ske2m39z05i" kvg:type="㇔" transform="matrix(1,0,0,1,1496,-4)" xmlns:kvg="http://kanjivg.tagaini.net"></path><path class="stroke_order_diagram--existing_path" d="M41.39,37.97c11.61-0.95,35.73-4.52,48.64-5.4c9.71-0.66,2.28,6.26-0.48,8.13" id="Ske2m39z05j" kvg:type="㇖b" transform="matrix(1,0,0,1,1496,-4)" xmlns:kvg="http://kanjivg.tagaini.net"></path><path class="stroke_order_diagram--existing_path" d="M44.87,49.56c0.21,1.4-2.07,7.56-3.73,9.89" id="Ske2m39z05k" kvg:type="㇔" transform="matrix(1,0,0,1,1496,-4)" xmlns:kvg="http://kanjivg.tagaini.net"></path><path class="stroke_order_diagram--existing_path" d="M52.41,45.86c4.96,8.89,12.22,13.93,29.03,12.85c4.42-0.28,4.06-3.45-0.59-5.88" id="Ske2m39z05l" kvg:type="㇟b" transform="matrix(1,0,0,1,1496,-4)" xmlns:kvg="http://kanjivg.tagaini.net"></path><path class="stroke_order_diagram--existing_path" d="M64.4,44.08c1.35,3.17,4.72,4.32,5.36,2" id="Ske2m39z05m" kvg:type="㇔a" transform="matrix(1,0,0,1,1496,-4)" xmlns:kvg="http://kanjivg.tagaini.net"></path><path class="stroke_order_diagram--existing_path" d="M81.24,43.27c3.9,1.65,6.83,3.16,10.01,8.28" id="Ske2m39z05n" kvg:type="㇔" transform="matrix(1,0,0,1,1496,-4)" xmlns:kvg="http://kanjivg.tagaini.net"></path><path class="stroke_order_diagram--existing_path" d="M57.4,59.13c0.05,0.58,0.11,1.51-0.1,2.34c-1.21,4.94-8.16,15.78-17.66,22.41" id="Ske2m39z05o" kvg:type="㇒" transform="matrix(1,0,0,1,1496,-4)" xmlns:kvg="http://kanjivg.tagaini.net"></path><path class="stroke_order_diagram--current_path" d="M58.01,67.23c0.3,0.02,1.57-0.04,2.42-0.08C64.5,67,73.9,65.7,77.9,64.96c2.75-0.51,3.93,0.48,2.43,3.6c-3.69,7.7-25.44,26.77-42.58,30.67" id="kvg:066d6-s16" kvg:type="㇇" transform="matrix(1,0,0,1,1496,-4)" xmlns:kvg="http://kanjivg.tagaini.net"></path><path class="stroke_order_diagram--current_path" d="M58.01,67.23c0.3,0.02,1.57-0.04,2.42-0.08C64.5,67,73.9,65.7,77.9,64.96c2.75-0.51,3.93,0.48,2.43,3.6c-3.69,7.7-25.44,26.77-42.58,30.67" id="Ske2m39z05q" kvg:type="㇇" transform="matrix(1,0,0,1,1496,-4)" xmlns:kvg="http://kanjivg.tagaini.net"></path><circle class="stroke_order_diagram--path_start" cx="58.01" cy="67.23" r="4" transform="matrix(1,0,0,1,1496,-4)"></circle><line class="stroke_order_diagram--guide_line" x1="1650" x2="1650" y1="1" y2="99"></line><line class="stroke_order_diagram--bounding_box" x1="1699" x2="1699" y1="1" y2="99"></line><path class="stroke_order_diagram--existing_path" d="M13.77,27.32c0.32,0.73,0.65,1.56,0.65,2.54c0,0.97-0.11,46.42,0,47.39" id="Ske2m39z05t" kvg:type="㇑" transform="matrix(1,0,0,1,1596,-4)" xmlns:kvg="http://kanjivg.tagaini.net"></path><path class="stroke_order_diagram--existing_path" d="M14.95,28.84c4.21-1,10.88-1.4,14.09-2.1c1.37-0.3,2.18,1.34,2.18,2.07c0,3.76-0.43,39.82-0.43,46.56" id="Ske2m39z05u" kvg:type="㇕a" transform="matrix(1,0,0,1,1596,-4)" xmlns:kvg="http://kanjivg.tagaini.net"></path><path class="stroke_order_diagram--existing_path" d="M14.44,51c5.56-0.68,11.6-1.16,16.43-1.7" id="Ske2m39z05v" kvg:type="㇐a" transform="matrix(1,0,0,1,1596,-4)" xmlns:kvg="http://kanjivg.tagaini.net"></path><path class="stroke_order_diagram--existing_path" d="M14.75,74.51c5.05-0.52,9.63-1.46,15.7-1.91" id="Ske2m39z05w" kvg:type="㇐a" transform="matrix(1,0,0,1,1596,-4)" xmlns:kvg="http://kanjivg.tagaini.net"></path><path class="stroke_order_diagram--existing_path" d="M78.12,10.64c0.08,0.28,0.16,0.73-0.16,1.13c-1.92,2.39-15.59,7.19-30.71,10.39" id="Ske2m39z05x" kvg:type="㇒" transform="matrix(1,0,0,1,1596,-4)" xmlns:kvg="http://kanjivg.tagaini.net"></path><path class="stroke_order_diagram--existing_path" d="M46.47,25.83c2.31,1.55,5.67,5.36,6.25,7.78" id="Ske2m39z05y" kvg:type="㇔" transform="matrix(1,0,0,1,1596,-4)" xmlns:kvg="http://kanjivg.tagaini.net"></path><path class="stroke_order_diagram--existing_path" d="M61.59,22.47c1.97,1.28,5.1,5.25,5.59,7.24" id="Ske2m39z05z" kvg:type="㇔" transform="matrix(1,0,0,1,1596,-4)" xmlns:kvg="http://kanjivg.tagaini.net"></path><path class="stroke_order_diagram--existing_path" d="M86.6,19.48c0.02,0.27,0.04,0.71-0.04,1.1c-0.51,2.31-3.41,7.39-7.38,10.5" id="Ske2m39z060" kvg:type="㇒" transform="matrix(1,0,0,1,1596,-4)" xmlns:kvg="http://kanjivg.tagaini.net"></path><path class="stroke_order_diagram--existing_path" d="M41.25,34.79c-0.12,3.53-2.35,11.56-3.43,13.73" id="Ske2m39z061" kvg:type="㇔" transform="matrix(1,0,0,1,1596,-4)" xmlns:kvg="http://kanjivg.tagaini.net"></path><path class="stroke_order_diagram--existing_path" d="M41.39,37.97c11.61-0.95,35.73-4.52,48.64-5.4c9.71-0.66,2.28,6.26-0.48,8.13" id="Ske2m39z062" kvg:type="㇖b" transform="matrix(1,0,0,1,1596,-4)" xmlns:kvg="http://kanjivg.tagaini.net"></path><path class="stroke_order_diagram--existing_path" d="M44.87,49.56c0.21,1.4-2.07,7.56-3.73,9.89" id="Ske2m39z063" kvg:type="㇔" transform="matrix(1,0,0,1,1596,-4)" xmlns:kvg="http://kanjivg.tagaini.net"></path><path class="stroke_order_diagram--existing_path" d="M52.41,45.86c4.96,8.89,12.22,13.93,29.03,12.85c4.42-0.28,4.06-3.45-0.59-5.88" id="Ske2m39z064" kvg:type="㇟b" transform="matrix(1,0,0,1,1596,-4)" xmlns:kvg="http://kanjivg.tagaini.net"></path><path class="stroke_order_diagram--existing_path" d="M64.4,44.08c1.35,3.17,4.72,4.32,5.36,2" id="Ske2m39z065" kvg:type="㇔a" transform="matrix(1,0,0,1,1596,-4)" xmlns:kvg="http://kanjivg.tagaini.net"></path><path class="stroke_order_diagram--existing_path" d="M81.24,43.27c3.9,1.65,6.83,3.16,10.01,8.28" id="Ske2m39z066" kvg:type="㇔" transform="matrix(1,0,0,1,1596,-4)" xmlns:kvg="http://kanjivg.tagaini.net"></path><path class="stroke_order_diagram--existing_path" d="M57.4,59.13c0.05,0.58,0.11,1.51-0.1,2.34c-1.21,4.94-8.16,15.78-17.66,22.41" id="Ske2m39z067" kvg:type="㇒" transform="matrix(1,0,0,1,1596,-4)" xmlns:kvg="http://kanjivg.tagaini.net"></path><path class="stroke_order_diagram--existing_path" d="M58.01,67.23c0.3,0.02,1.57-0.04,2.42-0.08C64.5,67,73.9,65.7,77.9,64.96c2.75-0.51,3.93,0.48,2.43,3.6c-3.69,7.7-25.44,26.77-42.58,30.67" id="Ske2m39z068" kvg:type="㇇" transform="matrix(1,0,0,1,1596,-4)" xmlns:kvg="http://kanjivg.tagaini.net"></path><path class="stroke_order_diagram--current_path" d="M52.85,72.44c8.53,2.72,26.4,18.56,35.64,22.72c2.29,1.03,3.98,1.79,6.12,2.15" id="kvg:066d6-s17" kvg:type="㇏" transform="matrix(1,0,0,1,1596,-4)" xmlns:kvg="http://kanjivg.tagaini.net"></path><path class="stroke_order_diagram--current_path" d="M52.85,72.44c8.53,2.72,26.4,18.56,35.64,22.72c2.29,1.03,3.98,1.79,6.12,2.15" id="Ske2m39z06a" kvg:type="㇏" transform="matrix(1,0,0,1,1596,-4)" xmlns:kvg="http://kanjivg.tagaini.net"></path><circle class="stroke_order_diagram--path_start" cx="52.85" cy="72.44" r="4" transform="matrix(1,0,0,1,1596,-4)"></circle></svg>