<svg class="stroke_order_diagram--svg_container_for_518662aad5dda79658000fb5" style="height: 100px; width: 600px;" viewbox="0 0 600 100"><desc>Created with Snap</desc><defs></defs><line class="stroke_order_diagram--bounding_box" x1="1" x2="599" y1="1" y2="1"></line><line class="stroke_order_diagram--bounding_box" x1="1" x2="1" y1="1" y2="99"></line><line class="stroke_order_diagram--bounding_box" x1="1" x2="599" y1="99" y2="99"></line><line class="stroke_order_diagram--guide_line" x1="0" x2="600" y1="50" y2="50"></line><line class="stroke_order_diagram--guide_line" x1="50" x2="50" y1="1" y2="99"></line><line class="stroke_order_diagram--bounding_box" x1="99" x2="99" y1="1" y2="99"></line><path class="stroke_order_diagram--current_path" d="M13.78,36.5c0.37,0.23,2.55,0.38,3.53,0.29c4.21-0.38,17.78-2.07,24.54-3.2c0.98-0.16,2.3-0.23,2.91,0" id="kvg:06738-s1" kvg:type="㇐" transform="matrix(1,0,0,1,-4,-4)" xmlns:kvg="http://kanjivg.tagaini.net"></path><path class="stroke_order_diagram--current_path" d="M13.78,36.5c0.37,0.23,2.55,0.38,3.53,0.29c4.21-0.38,17.78-2.07,24.54-3.2c0.98-0.16,2.3-0.23,2.91,0" id="Ske2mahgef" kvg:type="㇐" transform="matrix(1,0,0,1,-4,-4)" xmlns:kvg="http://kanjivg.tagaini.net"></path><circle class="stroke_order_diagram--path_start" cx="13.78" cy="36.5" r="4" transform="matrix(1,0,0,1,-4,-4)"></circle><line class="stroke_order_diagram--guide_line" x1="150" x2="150" y1="1" y2="99"></line><line class="stroke_order_diagram--bounding_box" x1="199" x2="199" y1="1" y2="99"></line><path class="stroke_order_diagram--existing_path" d="M13.78,36.5c0.37,0.23,2.55,0.38,3.53,0.29c4.21-0.38,17.78-2.07,24.54-3.2c0.98-0.16,2.3-0.23,2.91,0" id="Ske2mahgei" kvg:type="㇐" transform="matrix(1,0,0,1,96,-4)" xmlns:kvg="http://kanjivg.tagaini.net"></path><path class="stroke_order_diagram--current_path" d="M28.86,14.5c0.91,0.47,2.54,2.25,2.54,4.42c0,0.95-0.12,68.75-0.3,74.58" id="kvg:06738-s2" kvg:type="㇑" transform="matrix(1,0,0,1,96,-4)" xmlns:kvg="http://kanjivg.tagaini.net"></path><path class="stroke_order_diagram--current_path" d="M28.86,14.5c0.91,0.47,2.54,2.25,2.54,4.42c0,0.95-0.12,68.75-0.3,74.58" id="Ske2mahgek" kvg:type="㇑" transform="matrix(1,0,0,1,96,-4)" xmlns:kvg="http://kanjivg.tagaini.net"></path><circle class="stroke_order_diagram--path_start" cx="28.86" cy="14.5" r="4" transform="matrix(1,0,0,1,96,-4)"></circle><line class="stroke_order_diagram--guide_line" x1="250" x2="250" y1="1" y2="99"></line><line class="stroke_order_diagram--bounding_box" x1="299" x2="299" y1="1" y2="99"></line><path class="stroke_order_diagram--existing_path" d="M13.78,36.5c0.37,0.23,2.55,0.38,3.53,0.29c4.21-0.38,17.78-2.07,24.54-3.2c0.98-0.16,2.3-0.23,2.91,0" id="Ske2mahgen" kvg:type="㇐" transform="matrix(1,0,0,1,196,-4)" xmlns:kvg="http://kanjivg.tagaini.net"></path><path class="stroke_order_diagram--existing_path" d="M28.86,14.5c0.91,0.47,2.54,2.25,2.54,4.42c0,0.95-0.12,68.75-0.3,74.58" id="Ske2mahgeo" kvg:type="㇑" transform="matrix(1,0,0,1,196,-4)" xmlns:kvg="http://kanjivg.tagaini.net"></path><path class="stroke_order_diagram--current_path" d="M30.94,39.28c-5.98,15.91-9.31,22.63-18.58,36.56" id="kvg:06738-s3" kvg:type="㇒" transform="matrix(1,0,0,1,196,-4)" xmlns:kvg="http://kanjivg.tagaini.net"></path><path class="stroke_order_diagram--current_path" d="M30.94,39.28c-5.98,15.91-9.31,22.63-18.58,36.56" id="Ske2mahgeq" kvg:type="㇒" transform="matrix(1,0,0,1,196,-4)" xmlns:kvg="http://kanjivg.tagaini.net"></path><circle class="stroke_order_diagram--path_start" cx="30.94" cy="39.28" r="4" transform="matrix(1,0,0,1,196,-4)"></circle><line class="stroke_order_diagram--guide_line" x1="350" x2="350" y1="1" y2="99"></line><line class="stroke_order_diagram--bounding_box" x1="399" x2="399" y1="1" y2="99"></line><path class="stroke_order_diagram--existing_path" d="M13.78,36.5c0.37,0.23,2.55,0.38,3.53,0.29c4.21-0.38,17.78-2.07,24.54-3.2c0.98-0.16,2.3-0.23,2.91,0" id="Ske2mahget" kvg:type="㇐" transform="matrix(1,0,0,1,296,-4)" xmlns:kvg="http://kanjivg.tagaini.net"></path><path class="stroke_order_diagram--existing_path" d="M28.86,14.5c0.91,0.47,2.54,2.25,2.54,4.42c0,0.95-0.12,68.75-0.3,74.58" id="Ske2mahgeu" kvg:type="㇑" transform="matrix(1,0,0,1,296,-4)" xmlns:kvg="http://kanjivg.tagaini.net"></path><path class="stroke_order_diagram--existing_path" d="M30.94,39.28c-5.98,15.91-9.31,22.63-18.58,36.56" id="Ske2mahgev" kvg:type="㇒" transform="matrix(1,0,0,1,296,-4)" xmlns:kvg="http://kanjivg.tagaini.net"></path><path class="stroke_order_diagram--current_path" d="M34.47,45.9c2.37,1.59,7.78,8.1,9.28,11.85" id="kvg:06738-s4" kvg:type="㇔/㇏" transform="matrix(1,0,0,1,296,-4)" xmlns:kvg="http://kanjivg.tagaini.net"></path><path class="stroke_order_diagram--current_path" d="M34.47,45.9c2.37,1.59,7.78,8.1,9.28,11.85" id="Ske2mahgex" kvg:type="㇔/㇏" transform="matrix(1,0,0,1,296,-4)" xmlns:kvg="http://kanjivg.tagaini.net"></path><circle class="stroke_order_diagram--path_start" cx="34.47" cy="45.9" r="4" transform="matrix(1,0,0,1,296,-4)"></circle><line class="stroke_order_diagram--guide_line" x1="450" x2="450" y1="1" y2="99"></line><line class="stroke_order_diagram--bounding_box" x1="499" x2="499" y1="1" y2="99"></line><path class="stroke_order_diagram--existing_path" d="M13.78,36.5c0.37,0.23,2.55,0.38,3.53,0.29c4.21-0.38,17.78-2.07,24.54-3.2c0.98-0.16,2.3-0.23,2.91,0" id="Ske2mahge10" kvg:type="㇐" transform="matrix(1,0,0,1,396,-4)" xmlns:kvg="http://kanjivg.tagaini.net"></path><path class="stroke_order_diagram--existing_path" d="M28.86,14.5c0.91,0.47,2.54,2.25,2.54,4.42c0,0.95-0.12,68.75-0.3,74.58" id="Ske2mahge11" kvg:type="㇑" transform="matrix(1,0,0,1,396,-4)" xmlns:kvg="http://kanjivg.tagaini.net"></path><path class="stroke_order_diagram--existing_path" d="M30.94,39.28c-5.98,15.91-9.31,22.63-18.58,36.56" id="Ske2mahge12" kvg:type="㇒" transform="matrix(1,0,0,1,396,-4)" xmlns:kvg="http://kanjivg.tagaini.net"></path><path class="stroke_order_diagram--existing_path" d="M34.47,45.9c2.37,1.59,7.78,8.1,9.28,11.85" id="Ske2mahge13" kvg:type="㇔/㇏" transform="matrix(1,0,0,1,396,-4)" xmlns:kvg="http://kanjivg.tagaini.net"></path><path class="stroke_order_diagram--current_path" d="M48.91,41.53c1.1,0.69,2.46,0.51,3.44,0.37c9.19-1.35,31.14-3.91,35.53-4.16c4.37-0.25,4.63,2.06,4.47,5.26c-0.41,8.46-7.16,41.28-12.33,47.23c-5,5.75-6.38,0.31-7.52-0.69" id="kvg:06738-s5" kvg:type="㇆" transform="matrix(1,0,0,1,396,-4)" xmlns:kvg="http://kanjivg.tagaini.net"></path><path class="stroke_order_diagram--current_path" d="M48.91,41.53c1.1,0.69,2.46,0.51,3.44,0.37c9.19-1.35,31.14-3.91,35.53-4.16c4.37-0.25,4.63,2.06,4.47,5.26c-0.41,8.46-7.16,41.28-12.33,47.23c-5,5.75-6.38,0.31-7.52-0.69" id="Ske2mahge15" kvg:type="㇆" transform="matrix(1,0,0,1,396,-4)" xmlns:kvg="http://kanjivg.tagaini.net"></path><circle class="stroke_order_diagram--path_start" cx="48.91" cy="41.53" r="4" transform="matrix(1,0,0,1,396,-4)"></circle><line class="stroke_order_diagram--guide_line" x1="550" x2="550" y1="1" y2="99"></line><line class="stroke_order_diagram--bounding_box" x1="599" x2="599" y1="1" y2="99"></line><path class="stroke_order_diagram--existing_path" d="M13.78,36.5c0.37,0.23,2.55,0.38,3.53,0.29c4.21-0.38,17.78-2.07,24.54-3.2c0.98-0.16,2.3-0.23,2.91,0" id="Ske2mahge18" kvg:type="㇐" transform="matrix(1,0,0,1,496,-4)" xmlns:kvg="http://kanjivg.tagaini.net"></path><path class="stroke_order_diagram--existing_path" d="M28.86,14.5c0.91,0.47,2.54,2.25,2.54,4.42c0,0.95-0.12,68.75-0.3,74.58" id="Ske2mahge19" kvg:type="㇑" transform="matrix(1,0,0,1,496,-4)" xmlns:kvg="http://kanjivg.tagaini.net"></path><path class="stroke_order_diagram--existing_path" d="M30.94,39.28c-5.98,15.91-9.31,22.63-18.58,36.56" id="Ske2mahge1a" kvg:type="㇒" transform="matrix(1,0,0,1,496,-4)" xmlns:kvg="http://kanjivg.tagaini.net"></path><path class="stroke_order_diagram--existing_path" d="M34.47,45.9c2.37,1.59,7.78,8.1,9.28,11.85" id="Ske2mahge1b" kvg:type="㇔/㇏" transform="matrix(1,0,0,1,496,-4)" xmlns:kvg="http://kanjivg.tagaini.net"></path><path class="stroke_order_diagram--existing_path" d="M48.91,41.53c1.1,0.69,2.46,0.51,3.44,0.37c9.19-1.35,31.14-3.91,35.53-4.16c4.37-0.25,4.63,2.06,4.47,5.26c-0.41,8.46-7.16,41.28-12.33,47.23c-5,5.75-6.38,0.31-7.52-0.69" id="Ske2mahge1c" kvg:type="㇆" transform="matrix(1,0,0,1,496,-4)" xmlns:kvg="http://kanjivg.tagaini.net"></path><path class="stroke_order_diagram--current_path" d="M69.43,14.18c0.82,1.82,0.93,3.11,0.86,5.69C69.75,38,62.25,74.75,44.89,91.65" id="kvg:06738-s6" kvg:type="㇒" transform="matrix(1,0,0,1,496,-4)" xmlns:kvg="http://kanjivg.tagaini.net"></path><path class="stroke_order_diagram--current_path" d="M69.43,14.18c0.82,1.82,0.93,3.11,0.86,5.69C69.75,38,62.25,74.75,44.89,91.65" id="Ske2mahge1e" kvg:type="㇒" transform="matrix(1,0,0,1,496,-4)" xmlns:kvg="http://kanjivg.tagaini.net"></path><circle class="stroke_order_diagram--path_start" cx="69.43" cy="14.18" r="4" transform="matrix(1,0,0,1,496,-4)"></circle></svg>