<svg class="stroke_order_diagram--svg_container_for_518662abd5dda79658000fd6" style="height: 100px; width: 1000px;" viewbox="0 0 1000 100"><desc>Created with Snap</desc><defs></defs><line class="stroke_order_diagram--bounding_box" x1="1" x2="999" y1="1" y2="1"></line><line class="stroke_order_diagram--bounding_box" x1="1" x2="1" y1="1" y2="99"></line><line class="stroke_order_diagram--bounding_box" x1="1" x2="999" y1="99" y2="99"></line><line class="stroke_order_diagram--guide_line" x1="0" x2="1000" y1="50" y2="50"></line><line class="stroke_order_diagram--guide_line" x1="50" x2="50" y1="1" y2="99"></line><line class="stroke_order_diagram--bounding_box" x1="99" x2="99" y1="1" y2="99"></line><path class="stroke_order_diagram--current_path" d="M12.28,37.72c0.35,0.24,2.39,0.41,3.31,0.31c3.94-0.41,17.12-1.21,23.45-2.41c0.92-0.17,2.15-0.24,2.73,0" id="kvg:067e7-s1" kvg:type="㇐" transform="matrix(1,0,0,1,-4,-4)" xmlns:kvg="http://kanjivg.tagaini.net"></path><path class="stroke_order_diagram--current_path" d="M12.28,37.72c0.35,0.24,2.39,0.41,3.31,0.31c3.94-0.41,17.12-1.21,23.45-2.41c0.92-0.17,2.15-0.24,2.73,0" id="Ske2mlgdej" kvg:type="㇐" transform="matrix(1,0,0,1,-4,-4)" xmlns:kvg="http://kanjivg.tagaini.net"></path><circle class="stroke_order_diagram--path_start" cx="12.28" cy="37.72" r="4" transform="matrix(1,0,0,1,-4,-4)"></circle><line class="stroke_order_diagram--guide_line" x1="150" x2="150" y1="1" y2="99"></line><line class="stroke_order_diagram--bounding_box" x1="199" x2="199" y1="1" y2="99"></line><path class="stroke_order_diagram--existing_path" d="M12.28,37.72c0.35,0.24,2.39,0.41,3.31,0.31c3.94-0.41,17.12-1.21,23.45-2.41c0.92-0.17,2.15-0.24,2.73,0" id="Ske2mlgdem" kvg:type="㇐" transform="matrix(1,0,0,1,96,-4)" xmlns:kvg="http://kanjivg.tagaini.net"></path><path class="stroke_order_diagram--current_path" d="M26.36,15c0.91,0.47,2.54,2.25,2.54,4.42c0,0.95-0.12,69.75-0.3,75.58" id="kvg:067e7-s2" kvg:type="㇑" transform="matrix(1,0,0,1,96,-4)" xmlns:kvg="http://kanjivg.tagaini.net"></path><path class="stroke_order_diagram--current_path" d="M26.36,15c0.91,0.47,2.54,2.25,2.54,4.42c0,0.95-0.12,69.75-0.3,75.58" id="Ske2mlgdeo" kvg:type="㇑" transform="matrix(1,0,0,1,96,-4)" xmlns:kvg="http://kanjivg.tagaini.net"></path><circle class="stroke_order_diagram--path_start" cx="26.36" cy="15" r="4" transform="matrix(1,0,0,1,96,-4)"></circle><line class="stroke_order_diagram--guide_line" x1="250" x2="250" y1="1" y2="99"></line><line class="stroke_order_diagram--bounding_box" x1="299" x2="299" y1="1" y2="99"></line><path class="stroke_order_diagram--existing_path" d="M12.28,37.72c0.35,0.24,2.39,0.41,3.31,0.31c3.94-0.41,17.12-1.21,23.45-2.41c0.92-0.17,2.15-0.24,2.73,0" id="Ske2mlgder" kvg:type="㇐" transform="matrix(1,0,0,1,196,-4)" xmlns:kvg="http://kanjivg.tagaini.net"></path><path class="stroke_order_diagram--existing_path" d="M26.36,15c0.91,0.47,2.54,2.25,2.54,4.42c0,0.95-0.12,69.75-0.3,75.58" id="Ske2mlgdes" kvg:type="㇑" transform="matrix(1,0,0,1,196,-4)" xmlns:kvg="http://kanjivg.tagaini.net"></path><path class="stroke_order_diagram--current_path" d="M27.94,39.78C22.52,55.26,19.5,61.8,11.11,75.34" id="kvg:067e7-s3" kvg:type="㇒" transform="matrix(1,0,0,1,196,-4)" xmlns:kvg="http://kanjivg.tagaini.net"></path><path class="stroke_order_diagram--current_path" d="M27.94,39.78C22.52,55.26,19.5,61.8,11.11,75.34" id="Ske2mlgdeu" kvg:type="㇒" transform="matrix(1,0,0,1,196,-4)" xmlns:kvg="http://kanjivg.tagaini.net"></path><circle class="stroke_order_diagram--path_start" cx="27.94" cy="39.78" r="4" transform="matrix(1,0,0,1,196,-4)"></circle><line class="stroke_order_diagram--guide_line" x1="350" x2="350" y1="1" y2="99"></line><line class="stroke_order_diagram--bounding_box" x1="399" x2="399" y1="1" y2="99"></line><path class="stroke_order_diagram--existing_path" d="M12.28,37.72c0.35,0.24,2.39,0.41,3.31,0.31c3.94-0.41,17.12-1.21,23.45-2.41c0.92-0.17,2.15-0.24,2.73,0" id="Ske2mlgdex" kvg:type="㇐" transform="matrix(1,0,0,1,296,-4)" xmlns:kvg="http://kanjivg.tagaini.net"></path><path class="stroke_order_diagram--existing_path" d="M26.36,15c0.91,0.47,2.54,2.25,2.54,4.42c0,0.95-0.12,69.75-0.3,75.58" id="Ske2mlgdey" kvg:type="㇑" transform="matrix(1,0,0,1,296,-4)" xmlns:kvg="http://kanjivg.tagaini.net"></path><path class="stroke_order_diagram--existing_path" d="M27.94,39.78C22.52,55.26,19.5,61.8,11.11,75.34" id="Ske2mlgdez" kvg:type="㇒" transform="matrix(1,0,0,1,296,-4)" xmlns:kvg="http://kanjivg.tagaini.net"></path><path class="stroke_order_diagram--current_path" d="M31.47,47.4c2.23,1.74,5.9,8.48,7.78,11.85" id="kvg:067e7-s4" kvg:type="㇔/㇏" transform="matrix(1,0,0,1,296,-4)" xmlns:kvg="http://kanjivg.tagaini.net"></path><path class="stroke_order_diagram--current_path" d="M31.47,47.4c2.23,1.74,5.9,8.48,7.78,11.85" id="Ske2mlgde11" kvg:type="㇔/㇏" transform="matrix(1,0,0,1,296,-4)" xmlns:kvg="http://kanjivg.tagaini.net"></path><circle class="stroke_order_diagram--path_start" cx="31.47" cy="47.4" r="4" transform="matrix(1,0,0,1,296,-4)"></circle><line class="stroke_order_diagram--guide_line" x1="450" x2="450" y1="1" y2="99"></line><line class="stroke_order_diagram--bounding_box" x1="499" x2="499" y1="1" y2="99"></line><path class="stroke_order_diagram--existing_path" d="M12.28,37.72c0.35,0.24,2.39,0.41,3.31,0.31c3.94-0.41,17.12-1.21,23.45-2.41c0.92-0.17,2.15-0.24,2.73,0" id="Ske2mlgde14" kvg:type="㇐" transform="matrix(1,0,0,1,396,-4)" xmlns:kvg="http://kanjivg.tagaini.net"></path><path class="stroke_order_diagram--existing_path" d="M26.36,15c0.91,0.47,2.54,2.25,2.54,4.42c0,0.95-0.12,69.75-0.3,75.58" id="Ske2mlgde15" kvg:type="㇑" transform="matrix(1,0,0,1,396,-4)" xmlns:kvg="http://kanjivg.tagaini.net"></path><path class="stroke_order_diagram--existing_path" d="M27.94,39.78C22.52,55.26,19.5,61.8,11.11,75.34" id="Ske2mlgde16" kvg:type="㇒" transform="matrix(1,0,0,1,396,-4)" xmlns:kvg="http://kanjivg.tagaini.net"></path><path class="stroke_order_diagram--existing_path" d="M31.47,47.4c2.23,1.74,5.9,8.48,7.78,11.85" id="Ske2mlgde17" kvg:type="㇔/㇏" transform="matrix(1,0,0,1,396,-4)" xmlns:kvg="http://kanjivg.tagaini.net"></path><path class="stroke_order_diagram--current_path" d="M83.85,14c0.08,0.33-0.12,1.38-0.6,1.75c-5.98,4.61-14.37,8.41-29.94,12.13" id="kvg:067e7-s5" kvg:type="㇒" transform="matrix(1,0,0,1,396,-4)" xmlns:kvg="http://kanjivg.tagaini.net"></path><path class="stroke_order_diagram--current_path" d="M83.85,14c0.08,0.33-0.12,1.38-0.6,1.75c-5.98,4.61-14.37,8.41-29.94,12.13" id="Ske2mlgde19" kvg:type="㇒" transform="matrix(1,0,0,1,396,-4)" xmlns:kvg="http://kanjivg.tagaini.net"></path><circle class="stroke_order_diagram--path_start" cx="83.85" cy="14" r="4" transform="matrix(1,0,0,1,396,-4)"></circle><line class="stroke_order_diagram--guide_line" x1="550" x2="550" y1="1" y2="99"></line><line class="stroke_order_diagram--bounding_box" x1="599" x2="599" y1="1" y2="99"></line><path class="stroke_order_diagram--existing_path" d="M12.28,37.72c0.35,0.24,2.39,0.41,3.31,0.31c3.94-0.41,17.12-1.21,23.45-2.41c0.92-0.17,2.15-0.24,2.73,0" id="Ske2mlgde1c" kvg:type="㇐" transform="matrix(1,0,0,1,496,-4)" xmlns:kvg="http://kanjivg.tagaini.net"></path><path class="stroke_order_diagram--existing_path" d="M26.36,15c0.91,0.47,2.54,2.25,2.54,4.42c0,0.95-0.12,69.75-0.3,75.58" id="Ske2mlgde1d" kvg:type="㇑" transform="matrix(1,0,0,1,496,-4)" xmlns:kvg="http://kanjivg.tagaini.net"></path><path class="stroke_order_diagram--existing_path" d="M27.94,39.78C22.52,55.26,19.5,61.8,11.11,75.34" id="Ske2mlgde1e" kvg:type="㇒" transform="matrix(1,0,0,1,496,-4)" xmlns:kvg="http://kanjivg.tagaini.net"></path><path class="stroke_order_diagram--existing_path" d="M31.47,47.4c2.23,1.74,5.9,8.48,7.78,11.85" id="Ske2mlgde1f" kvg:type="㇔/㇏" transform="matrix(1,0,0,1,496,-4)" xmlns:kvg="http://kanjivg.tagaini.net"></path><path class="stroke_order_diagram--existing_path" d="M83.85,14c0.08,0.33-0.12,1.38-0.6,1.75c-5.98,4.61-14.37,8.41-29.94,12.13" id="Ske2mlgde1g" kvg:type="㇒" transform="matrix(1,0,0,1,496,-4)" xmlns:kvg="http://kanjivg.tagaini.net"></path><path class="stroke_order_diagram--current_path" d="M48.94,25.78c0.32,0.74,0.81,2.04,0.89,4.16c0.87,22.01-0.57,53.78-11.02,64.27" id="kvg:067e7-s6" kvg:type="㇒" transform="matrix(1,0,0,1,496,-4)" xmlns:kvg="http://kanjivg.tagaini.net"></path><path class="stroke_order_diagram--current_path" d="M48.94,25.78c0.32,0.74,0.81,2.04,0.89,4.16c0.87,22.01-0.57,53.78-11.02,64.27" id="Ske2mlgde1i" kvg:type="㇒" transform="matrix(1,0,0,1,496,-4)" xmlns:kvg="http://kanjivg.tagaini.net"></path><circle class="stroke_order_diagram--path_start" cx="48.94" cy="25.78" r="4" transform="matrix(1,0,0,1,496,-4)"></circle><line class="stroke_order_diagram--guide_line" x1="650" x2="650" y1="1" y2="99"></line><line class="stroke_order_diagram--bounding_box" x1="699" x2="699" y1="1" y2="99"></line><path class="stroke_order_diagram--existing_path" d="M12.28,37.72c0.35,0.24,2.39,0.41,3.31,0.31c3.94-0.41,17.12-1.21,23.45-2.41c0.92-0.17,2.15-0.24,2.73,0" id="Ske2mlgde1l" kvg:type="㇐" transform="matrix(1,0,0,1,596,-4)" xmlns:kvg="http://kanjivg.tagaini.net"></path><path class="stroke_order_diagram--existing_path" d="M26.36,15c0.91,0.47,2.54,2.25,2.54,4.42c0,0.95-0.12,69.75-0.3,75.58" id="Ske2mlgde1m" kvg:type="㇑" transform="matrix(1,0,0,1,596,-4)" xmlns:kvg="http://kanjivg.tagaini.net"></path><path class="stroke_order_diagram--existing_path" d="M27.94,39.78C22.52,55.26,19.5,61.8,11.11,75.34" id="Ske2mlgde1n" kvg:type="㇒" transform="matrix(1,0,0,1,596,-4)" xmlns:kvg="http://kanjivg.tagaini.net"></path><path class="stroke_order_diagram--existing_path" d="M31.47,47.4c2.23,1.74,5.9,8.48,7.78,11.85" id="Ske2mlgde1o" kvg:type="㇔/㇏" transform="matrix(1,0,0,1,596,-4)" xmlns:kvg="http://kanjivg.tagaini.net"></path><path class="stroke_order_diagram--existing_path" d="M83.85,14c0.08,0.33-0.12,1.38-0.6,1.75c-5.98,4.61-14.37,8.41-29.94,12.13" id="Ske2mlgde1p" kvg:type="㇒" transform="matrix(1,0,0,1,596,-4)" xmlns:kvg="http://kanjivg.tagaini.net"></path><path class="stroke_order_diagram--existing_path" d="M48.94,25.78c0.32,0.74,0.81,2.04,0.89,4.16c0.87,22.01-0.57,53.78-11.02,64.27" id="Ske2mlgde1q" kvg:type="㇒" transform="matrix(1,0,0,1,596,-4)" xmlns:kvg="http://kanjivg.tagaini.net"></path><path class="stroke_order_diagram--current_path" d="M62.58,27.26c0.87,0.62,1.56,2.75,1.56,4.01c0,6.44-0.17,44.09-0.17,54.55" id="kvg:067e7-s7" kvg:type="㇑" transform="matrix(1,0,0,1,596,-4)" xmlns:kvg="http://kanjivg.tagaini.net"></path><path class="stroke_order_diagram--current_path" d="M62.58,27.26c0.87,0.62,1.56,2.75,1.56,4.01c0,6.44-0.17,44.09-0.17,54.55" id="Ske2mlgde1s" kvg:type="㇑" transform="matrix(1,0,0,1,596,-4)" xmlns:kvg="http://kanjivg.tagaini.net"></path><circle class="stroke_order_diagram--path_start" cx="62.58" cy="27.26" r="4" transform="matrix(1,0,0,1,596,-4)"></circle><line class="stroke_order_diagram--guide_line" x1="750" x2="750" y1="1" y2="99"></line><line class="stroke_order_diagram--bounding_box" x1="799" x2="799" y1="1" y2="99"></line><path class="stroke_order_diagram--existing_path" d="M12.28,37.72c0.35,0.24,2.39,0.41,3.31,0.31c3.94-0.41,17.12-1.21,23.45-2.41c0.92-0.17,2.15-0.24,2.73,0" id="Ske2mlgde1v" kvg:type="㇐" transform="matrix(1,0,0,1,696,-4)" xmlns:kvg="http://kanjivg.tagaini.net"></path><path class="stroke_order_diagram--existing_path" d="M26.36,15c0.91,0.47,2.54,2.25,2.54,4.42c0,0.95-0.12,69.75-0.3,75.58" id="Ske2mlgde1w" kvg:type="㇑" transform="matrix(1,0,0,1,696,-4)" xmlns:kvg="http://kanjivg.tagaini.net"></path><path class="stroke_order_diagram--existing_path" d="M27.94,39.78C22.52,55.26,19.5,61.8,11.11,75.34" id="Ske2mlgde1x" kvg:type="㇒" transform="matrix(1,0,0,1,696,-4)" xmlns:kvg="http://kanjivg.tagaini.net"></path><path class="stroke_order_diagram--existing_path" d="M31.47,47.4c2.23,1.74,5.9,8.48,7.78,11.85" id="Ske2mlgde1y" kvg:type="㇔/㇏" transform="matrix(1,0,0,1,696,-4)" xmlns:kvg="http://kanjivg.tagaini.net"></path><path class="stroke_order_diagram--existing_path" d="M83.85,14c0.08,0.33-0.12,1.38-0.6,1.75c-5.98,4.61-14.37,8.41-29.94,12.13" id="Ske2mlgde1z" kvg:type="㇒" transform="matrix(1,0,0,1,696,-4)" xmlns:kvg="http://kanjivg.tagaini.net"></path><path class="stroke_order_diagram--existing_path" d="M48.94,25.78c0.32,0.74,0.81,2.04,0.89,4.16c0.87,22.01-0.57,53.78-11.02,64.27" id="Ske2mlgde20" kvg:type="㇒" transform="matrix(1,0,0,1,696,-4)" xmlns:kvg="http://kanjivg.tagaini.net"></path><path class="stroke_order_diagram--existing_path" d="M62.58,27.26c0.87,0.62,1.56,2.75,1.56,4.01c0,6.44-0.17,44.09-0.17,54.55" id="Ske2mlgde21" kvg:type="㇑" transform="matrix(1,0,0,1,696,-4)" xmlns:kvg="http://kanjivg.tagaini.net"></path><path class="stroke_order_diagram--current_path" d="M51.59,88.14c0.7,0.44,2.09,1.29,3.57,0.81c7.84-2.53,13.76-4.81,22.14-7.61" id="kvg:067e7-s8" kvg:type="㇐" transform="matrix(1,0,0,1,696,-4)" xmlns:kvg="http://kanjivg.tagaini.net"></path><path class="stroke_order_diagram--current_path" d="M51.59,88.14c0.7,0.44,2.09,1.29,3.57,0.81c7.84-2.53,13.76-4.81,22.14-7.61" id="Ske2mlgde23" kvg:type="㇐" transform="matrix(1,0,0,1,696,-4)" xmlns:kvg="http://kanjivg.tagaini.net"></path><circle class="stroke_order_diagram--path_start" cx="51.59" cy="88.14" r="4" transform="matrix(1,0,0,1,696,-4)"></circle><line class="stroke_order_diagram--guide_line" x1="850" x2="850" y1="1" y2="99"></line><line class="stroke_order_diagram--bounding_box" x1="899" x2="899" y1="1" y2="99"></line><path class="stroke_order_diagram--existing_path" d="M12.28,37.72c0.35,0.24,2.39,0.41,3.31,0.31c3.94-0.41,17.12-1.21,23.45-2.41c0.92-0.17,2.15-0.24,2.73,0" id="Ske2mlgde26" kvg:type="㇐" transform="matrix(1,0,0,1,796,-4)" xmlns:kvg="http://kanjivg.tagaini.net"></path><path class="stroke_order_diagram--existing_path" d="M26.36,15c0.91,0.47,2.54,2.25,2.54,4.42c0,0.95-0.12,69.75-0.3,75.58" id="Ske2mlgde27" kvg:type="㇑" transform="matrix(1,0,0,1,796,-4)" xmlns:kvg="http://kanjivg.tagaini.net"></path><path class="stroke_order_diagram--existing_path" d="M27.94,39.78C22.52,55.26,19.5,61.8,11.11,75.34" id="Ske2mlgde28" kvg:type="㇒" transform="matrix(1,0,0,1,796,-4)" xmlns:kvg="http://kanjivg.tagaini.net"></path><path class="stroke_order_diagram--existing_path" d="M31.47,47.4c2.23,1.74,5.9,8.48,7.78,11.85" id="Ske2mlgde29" kvg:type="㇔/㇏" transform="matrix(1,0,0,1,796,-4)" xmlns:kvg="http://kanjivg.tagaini.net"></path><path class="stroke_order_diagram--existing_path" d="M83.85,14c0.08,0.33-0.12,1.38-0.6,1.75c-5.98,4.61-14.37,8.41-29.94,12.13" id="Ske2mlgde2a" kvg:type="㇒" transform="matrix(1,0,0,1,796,-4)" xmlns:kvg="http://kanjivg.tagaini.net"></path><path class="stroke_order_diagram--existing_path" d="M48.94,25.78c0.32,0.74,0.81,2.04,0.89,4.16c0.87,22.01-0.57,53.78-11.02,64.27" id="Ske2mlgde2b" kvg:type="㇒" transform="matrix(1,0,0,1,796,-4)" xmlns:kvg="http://kanjivg.tagaini.net"></path><path class="stroke_order_diagram--existing_path" d="M62.58,27.26c0.87,0.62,1.56,2.75,1.56,4.01c0,6.44-0.17,44.09-0.17,54.55" id="Ske2mlgde2c" kvg:type="㇑" transform="matrix(1,0,0,1,796,-4)" xmlns:kvg="http://kanjivg.tagaini.net"></path><path class="stroke_order_diagram--existing_path" d="M51.59,88.14c0.7,0.44,2.09,1.29,3.57,0.81c7.84-2.53,13.76-4.81,22.14-7.61" id="Ske2mlgde2d" kvg:type="㇐" transform="matrix(1,0,0,1,796,-4)" xmlns:kvg="http://kanjivg.tagaini.net"></path><path class="stroke_order_diagram--current_path" d="M72.22,68.93c2.74,3.59,7.08,14.78,7.77,20.37" id="kvg:067e7-s9" kvg:type="㇔" transform="matrix(1,0,0,1,796,-4)" xmlns:kvg="http://kanjivg.tagaini.net"></path><path class="stroke_order_diagram--current_path" d="M72.22,68.93c2.74,3.59,7.08,14.78,7.77,20.37" id="Ske2mlgde2f" kvg:type="㇔" transform="matrix(1,0,0,1,796,-4)" xmlns:kvg="http://kanjivg.tagaini.net"></path><circle class="stroke_order_diagram--path_start" cx="72.22" cy="68.93" r="4" transform="matrix(1,0,0,1,796,-4)"></circle><line class="stroke_order_diagram--guide_line" x1="950" x2="950" y1="1" y2="99"></line><line class="stroke_order_diagram--bounding_box" x1="999" x2="999" y1="1" y2="99"></line><path class="stroke_order_diagram--existing_path" d="M12.28,37.72c0.35,0.24,2.39,0.41,3.31,0.31c3.94-0.41,17.12-1.21,23.45-2.41c0.92-0.17,2.15-0.24,2.73,0" id="Ske2mlgde2i" kvg:type="㇐" transform="matrix(1,0,0,1,896,-4)" xmlns:kvg="http://kanjivg.tagaini.net"></path><path class="stroke_order_diagram--existing_path" d="M26.36,15c0.91,0.47,2.54,2.25,2.54,4.42c0,0.95-0.12,69.75-0.3,75.58" id="Ske2mlgde2j" kvg:type="㇑" transform="matrix(1,0,0,1,896,-4)" xmlns:kvg="http://kanjivg.tagaini.net"></path><path class="stroke_order_diagram--existing_path" d="M27.94,39.78C22.52,55.26,19.5,61.8,11.11,75.34" id="Ske2mlgde2k" kvg:type="㇒" transform="matrix(1,0,0,1,896,-4)" xmlns:kvg="http://kanjivg.tagaini.net"></path><path class="stroke_order_diagram--existing_path" d="M31.47,47.4c2.23,1.74,5.9,8.48,7.78,11.85" id="Ske2mlgde2l" kvg:type="㇔/㇏" transform="matrix(1,0,0,1,896,-4)" xmlns:kvg="http://kanjivg.tagaini.net"></path><path class="stroke_order_diagram--existing_path" d="M83.85,14c0.08,0.33-0.12,1.38-0.6,1.75c-5.98,4.61-14.37,8.41-29.94,12.13" id="Ske2mlgde2m" kvg:type="㇒" transform="matrix(1,0,0,1,896,-4)" xmlns:kvg="http://kanjivg.tagaini.net"></path><path class="stroke_order_diagram--existing_path" d="M48.94,25.78c0.32,0.74,0.81,2.04,0.89,4.16c0.87,22.01-0.57,53.78-11.02,64.27" id="Ske2mlgde2n" kvg:type="㇒" transform="matrix(1,0,0,1,896,-4)" xmlns:kvg="http://kanjivg.tagaini.net"></path><path class="stroke_order_diagram--existing_path" d="M62.58,27.26c0.87,0.62,1.56,2.75,1.56,4.01c0,6.44-0.17,44.09-0.17,54.55" id="Ske2mlgde2o" kvg:type="㇑" transform="matrix(1,0,0,1,896,-4)" xmlns:kvg="http://kanjivg.tagaini.net"></path><path class="stroke_order_diagram--existing_path" d="M51.59,88.14c0.7,0.44,2.09,1.29,3.57,0.81c7.84-2.53,13.76-4.81,22.14-7.61" id="Ske2mlgde2p" kvg:type="㇐" transform="matrix(1,0,0,1,896,-4)" xmlns:kvg="http://kanjivg.tagaini.net"></path><path class="stroke_order_diagram--existing_path" d="M72.22,68.93c2.74,3.59,7.08,14.78,7.77,20.37" id="Ske2mlgde2q" kvg:type="㇔" transform="matrix(1,0,0,1,896,-4)" xmlns:kvg="http://kanjivg.tagaini.net"></path><path class="stroke_order_diagram--current_path" d="M76.12,25.67c0.21,0,0.9,0.62,1.14,1.87c2.6,13.63,6.94,42.57,15.95,59.55c1.37,2.58,2.82,4.18,3.8,5.02" id="kvg:067e7-s10" kvg:type="㇏" transform="matrix(1,0,0,1,896,-4)" xmlns:kvg="http://kanjivg.tagaini.net"></path><path class="stroke_order_diagram--current_path" d="M76.12,25.67c0.21,0,0.9,0.62,1.14,1.87c2.6,13.63,6.94,42.57,15.95,59.55c1.37,2.58,2.82,4.18,3.8,5.02" id="Ske2mlgde2s" kvg:type="㇏" transform="matrix(1,0,0,1,896,-4)" xmlns:kvg="http://kanjivg.tagaini.net"></path><circle class="stroke_order_diagram--path_start" cx="76.12" cy="25.67" r="4" transform="matrix(1,0,0,1,896,-4)"></circle></svg>