<svg class="stroke_order_diagram--svg_container_for_51866289d5dda79658000632" style="height: 100px; width: 1000px;" viewbox="0 0 1000 100"><desc>Created with Snap</desc><defs></defs><line class="stroke_order_diagram--bounding_box" x1="1" x2="999" y1="1" y2="1"></line><line class="stroke_order_diagram--bounding_box" x1="1" x2="1" y1="1" y2="99"></line><line class="stroke_order_diagram--bounding_box" x1="1" x2="999" y1="99" y2="99"></line><line class="stroke_order_diagram--guide_line" x1="0" x2="1000" y1="50" y2="50"></line><line class="stroke_order_diagram--guide_line" x1="50" x2="50" y1="1" y2="99"></line><line class="stroke_order_diagram--bounding_box" x1="99" x2="99" y1="1" y2="99"></line><path class="stroke_order_diagram--current_path" d="M11.53,39.97c1.29,0.9,5.05,0.39,6.49,0.24c5.52-0.55,15-1.73,20.77-2.34c0.93-0.1,2.4-0.24,2.98,0" id="kvg:06813-s1" kvg:type="㇐" transform="matrix(1,0,0,1,-4,-4)" xmlns:kvg="http://kanjivg.tagaini.net"></path><path class="stroke_order_diagram--current_path" d="M11.53,39.97c1.29,0.9,5.05,0.39,6.49,0.24c5.52-0.55,15-1.73,20.77-2.34c0.93-0.1,2.4-0.24,2.98,0" id="Ske204q7mj" kvg:type="㇐" transform="matrix(1,0,0,1,-4,-4)" xmlns:kvg="http://kanjivg.tagaini.net"></path><circle class="stroke_order_diagram--path_start" cx="11.53" cy="39.97" r="4" transform="matrix(1,0,0,1,-4,-4)"></circle><line class="stroke_order_diagram--guide_line" x1="150" x2="150" y1="1" y2="99"></line><line class="stroke_order_diagram--bounding_box" x1="199" x2="199" y1="1" y2="99"></line><path class="stroke_order_diagram--existing_path" d="M11.53,39.97c1.29,0.9,5.05,0.39,6.49,0.24c5.52-0.55,15-1.73,20.77-2.34c0.93-0.1,2.4-0.24,2.98,0" id="Ske204q7mm" kvg:type="㇐" transform="matrix(1,0,0,1,96,-4)" xmlns:kvg="http://kanjivg.tagaini.net"></path><path class="stroke_order_diagram--current_path" d="M27.86,13.75c1.38,1.38,2.04,3,2.04,5.42c0,3.16-0.01,47.73-0.03,68.08c-0.01,5.88-0.01,9.74-0.02,10" id="kvg:06813-s2" kvg:type="㇑" transform="matrix(1,0,0,1,96,-4)" xmlns:kvg="http://kanjivg.tagaini.net"></path><path class="stroke_order_diagram--current_path" d="M27.86,13.75c1.38,1.38,2.04,3,2.04,5.42c0,3.16-0.01,47.73-0.03,68.08c-0.01,5.88-0.01,9.74-0.02,10" id="Ske204q7mo" kvg:type="㇑" transform="matrix(1,0,0,1,96,-4)" xmlns:kvg="http://kanjivg.tagaini.net"></path><circle class="stroke_order_diagram--path_start" cx="27.86" cy="13.75" r="4" transform="matrix(1,0,0,1,96,-4)"></circle><line class="stroke_order_diagram--guide_line" x1="250" x2="250" y1="1" y2="99"></line><line class="stroke_order_diagram--bounding_box" x1="299" x2="299" y1="1" y2="99"></line><path class="stroke_order_diagram--existing_path" d="M11.53,39.97c1.29,0.9,5.05,0.39,6.49,0.24c5.52-0.55,15-1.73,20.77-2.34c0.93-0.1,2.4-0.24,2.98,0" id="Ske204q7mr" kvg:type="㇐" transform="matrix(1,0,0,1,196,-4)" xmlns:kvg="http://kanjivg.tagaini.net"></path><path class="stroke_order_diagram--existing_path" d="M27.86,13.75c1.38,1.38,2.04,3,2.04,5.42c0,3.16-0.01,47.73-0.03,68.08c-0.01,5.88-0.01,9.74-0.02,10" id="Ske204q7ms" kvg:type="㇑" transform="matrix(1,0,0,1,196,-4)" xmlns:kvg="http://kanjivg.tagaini.net"></path><path class="stroke_order_diagram--current_path" d="M28.44,40.28c0,1.59-0.75,4.38-1.45,6.21c-4.11,10.82-7.99,18-15.13,28.09" id="kvg:06813-s3" kvg:type="㇒" transform="matrix(1,0,0,1,196,-4)" xmlns:kvg="http://kanjivg.tagaini.net"></path><path class="stroke_order_diagram--current_path" d="M28.44,40.28c0,1.59-0.75,4.38-1.45,6.21c-4.11,10.82-7.99,18-15.13,28.09" id="Ske204q7mu" kvg:type="㇒" transform="matrix(1,0,0,1,196,-4)" xmlns:kvg="http://kanjivg.tagaini.net"></path><circle class="stroke_order_diagram--path_start" cx="28.44" cy="40.28" r="4" transform="matrix(1,0,0,1,196,-4)"></circle><line class="stroke_order_diagram--guide_line" x1="350" x2="350" y1="1" y2="99"></line><line class="stroke_order_diagram--bounding_box" x1="399" x2="399" y1="1" y2="99"></line><path class="stroke_order_diagram--existing_path" d="M11.53,39.97c1.29,0.9,5.05,0.39,6.49,0.24c5.52-0.55,15-1.73,20.77-2.34c0.93-0.1,2.4-0.24,2.98,0" id="Ske204q7mx" kvg:type="㇐" transform="matrix(1,0,0,1,296,-4)" xmlns:kvg="http://kanjivg.tagaini.net"></path><path class="stroke_order_diagram--existing_path" d="M27.86,13.75c1.38,1.38,2.04,3,2.04,5.42c0,3.16-0.01,47.73-0.03,68.08c-0.01,5.88-0.01,9.74-0.02,10" id="Ske204q7my" kvg:type="㇑" transform="matrix(1,0,0,1,296,-4)" xmlns:kvg="http://kanjivg.tagaini.net"></path><path class="stroke_order_diagram--existing_path" d="M28.44,40.28c0,1.59-0.75,4.38-1.45,6.21c-4.11,10.82-7.99,18-15.13,28.09" id="Ske204q7mz" kvg:type="㇒" transform="matrix(1,0,0,1,296,-4)" xmlns:kvg="http://kanjivg.tagaini.net"></path><path class="stroke_order_diagram--current_path" d="M31.72,47.65C34.1,49.24,38.38,55.5,40,59.5" id="kvg:06813-s4" kvg:type="㇔/㇏" transform="matrix(1,0,0,1,296,-4)" xmlns:kvg="http://kanjivg.tagaini.net"></path><path class="stroke_order_diagram--current_path" d="M31.72,47.65C34.1,49.24,38.38,55.5,40,59.5" id="Ske204q7m11" kvg:type="㇔/㇏" transform="matrix(1,0,0,1,296,-4)" xmlns:kvg="http://kanjivg.tagaini.net"></path><circle class="stroke_order_diagram--path_start" cx="31.72" cy="47.65" r="4" transform="matrix(1,0,0,1,296,-4)"></circle><line class="stroke_order_diagram--guide_line" x1="450" x2="450" y1="1" y2="99"></line><line class="stroke_order_diagram--bounding_box" x1="499" x2="499" y1="1" y2="99"></line><path class="stroke_order_diagram--existing_path" d="M11.53,39.97c1.29,0.9,5.05,0.39,6.49,0.24c5.52-0.55,15-1.73,20.77-2.34c0.93-0.1,2.4-0.24,2.98,0" id="Ske204q7m14" kvg:type="㇐" transform="matrix(1,0,0,1,396,-4)" xmlns:kvg="http://kanjivg.tagaini.net"></path><path class="stroke_order_diagram--existing_path" d="M27.86,13.75c1.38,1.38,2.04,3,2.04,5.42c0,3.16-0.01,47.73-0.03,68.08c-0.01,5.88-0.01,9.74-0.02,10" id="Ske204q7m15" kvg:type="㇑" transform="matrix(1,0,0,1,396,-4)" xmlns:kvg="http://kanjivg.tagaini.net"></path><path class="stroke_order_diagram--existing_path" d="M28.44,40.28c0,1.59-0.75,4.38-1.45,6.21c-4.11,10.82-7.99,18-15.13,28.09" id="Ske204q7m16" kvg:type="㇒" transform="matrix(1,0,0,1,396,-4)" xmlns:kvg="http://kanjivg.tagaini.net"></path><path class="stroke_order_diagram--existing_path" d="M31.72,47.65C34.1,49.24,38.38,55.5,40,59.5" id="Ske204q7m17" kvg:type="㇔/㇏" transform="matrix(1,0,0,1,396,-4)" xmlns:kvg="http://kanjivg.tagaini.net"></path><path class="stroke_order_diagram--current_path" d="M67.29,12.75c0.07,0.84-0.15,2.25-0.64,3.38c-4.4,10.12-10.53,20.74-24.25,32.62" id="kvg:06813-s5" kvg:type="㇒" transform="matrix(1,0,0,1,396,-4)" xmlns:kvg="http://kanjivg.tagaini.net"></path><path class="stroke_order_diagram--current_path" d="M67.29,12.75c0.07,0.84-0.15,2.25-0.64,3.38c-4.4,10.12-10.53,20.74-24.25,32.62" id="Ske204q7m19" kvg:type="㇒" transform="matrix(1,0,0,1,396,-4)" xmlns:kvg="http://kanjivg.tagaini.net"></path><circle class="stroke_order_diagram--path_start" cx="67.29" cy="12.75" r="4" transform="matrix(1,0,0,1,396,-4)"></circle><line class="stroke_order_diagram--guide_line" x1="550" x2="550" y1="1" y2="99"></line><line class="stroke_order_diagram--bounding_box" x1="599" x2="599" y1="1" y2="99"></line><path class="stroke_order_diagram--existing_path" d="M11.53,39.97c1.29,0.9,5.05,0.39,6.49,0.24c5.52-0.55,15-1.73,20.77-2.34c0.93-0.1,2.4-0.24,2.98,0" id="Ske204q7m1c" kvg:type="㇐" transform="matrix(1,0,0,1,496,-4)" xmlns:kvg="http://kanjivg.tagaini.net"></path><path class="stroke_order_diagram--existing_path" d="M27.86,13.75c1.38,1.38,2.04,3,2.04,5.42c0,3.16-0.01,47.73-0.03,68.08c-0.01,5.88-0.01,9.74-0.02,10" id="Ske204q7m1d" kvg:type="㇑" transform="matrix(1,0,0,1,496,-4)" xmlns:kvg="http://kanjivg.tagaini.net"></path><path class="stroke_order_diagram--existing_path" d="M28.44,40.28c0,1.59-0.75,4.38-1.45,6.21c-4.11,10.82-7.99,18-15.13,28.09" id="Ske204q7m1e" kvg:type="㇒" transform="matrix(1,0,0,1,496,-4)" xmlns:kvg="http://kanjivg.tagaini.net"></path><path class="stroke_order_diagram--existing_path" d="M31.72,47.65C34.1,49.24,38.38,55.5,40,59.5" id="Ske204q7m1f" kvg:type="㇔/㇏" transform="matrix(1,0,0,1,496,-4)" xmlns:kvg="http://kanjivg.tagaini.net"></path><path class="stroke_order_diagram--existing_path" d="M67.29,12.75c0.07,0.84-0.15,2.25-0.64,3.38c-4.4,10.12-10.53,20.74-24.25,32.62" id="Ske204q7m1g" kvg:type="㇒" transform="matrix(1,0,0,1,496,-4)" xmlns:kvg="http://kanjivg.tagaini.net"></path><path class="stroke_order_diagram--current_path" d="M68,18.62c4.17,5.24,11.75,12.62,19.56,19.7c3.17,2.87,5.74,5.11,9.29,7.36" id="kvg:06813-s6" kvg:type="㇏" transform="matrix(1,0,0,1,496,-4)" xmlns:kvg="http://kanjivg.tagaini.net"></path><path class="stroke_order_diagram--current_path" d="M68,18.62c4.17,5.24,11.75,12.62,19.56,19.7c3.17,2.87,5.74,5.11,9.29,7.36" id="Ske204q7m1i" kvg:type="㇏" transform="matrix(1,0,0,1,496,-4)" xmlns:kvg="http://kanjivg.tagaini.net"></path><circle class="stroke_order_diagram--path_start" cx="68" cy="18.62" r="4" transform="matrix(1,0,0,1,496,-4)"></circle><line class="stroke_order_diagram--guide_line" x1="650" x2="650" y1="1" y2="99"></line><line class="stroke_order_diagram--bounding_box" x1="699" x2="699" y1="1" y2="99"></line><path class="stroke_order_diagram--existing_path" d="M11.53,39.97c1.29,0.9,5.05,0.39,6.49,0.24c5.52-0.55,15-1.73,20.77-2.34c0.93-0.1,2.4-0.24,2.98,0" id="Ske204q7m1l" kvg:type="㇐" transform="matrix(1,0,0,1,596,-4)" xmlns:kvg="http://kanjivg.tagaini.net"></path><path class="stroke_order_diagram--existing_path" d="M27.86,13.75c1.38,1.38,2.04,3,2.04,5.42c0,3.16-0.01,47.73-0.03,68.08c-0.01,5.88-0.01,9.74-0.02,10" id="Ske204q7m1m" kvg:type="㇑" transform="matrix(1,0,0,1,596,-4)" xmlns:kvg="http://kanjivg.tagaini.net"></path><path class="stroke_order_diagram--existing_path" d="M28.44,40.28c0,1.59-0.75,4.38-1.45,6.21c-4.11,10.82-7.99,18-15.13,28.09" id="Ske204q7m1n" kvg:type="㇒" transform="matrix(1,0,0,1,596,-4)" xmlns:kvg="http://kanjivg.tagaini.net"></path><path class="stroke_order_diagram--existing_path" d="M31.72,47.65C34.1,49.24,38.38,55.5,40,59.5" id="Ske204q7m1o" kvg:type="㇔/㇏" transform="matrix(1,0,0,1,596,-4)" xmlns:kvg="http://kanjivg.tagaini.net"></path><path class="stroke_order_diagram--existing_path" d="M67.29,12.75c0.07,0.84-0.15,2.25-0.64,3.38c-4.4,10.12-10.53,20.74-24.25,32.62" id="Ske204q7m1p" kvg:type="㇒" transform="matrix(1,0,0,1,596,-4)" xmlns:kvg="http://kanjivg.tagaini.net"></path><path class="stroke_order_diagram--existing_path" d="M68,18.62c4.17,5.24,11.75,12.62,19.56,19.7c3.17,2.87,5.74,5.11,9.29,7.36" id="Ske204q7m1q" kvg:type="㇏" transform="matrix(1,0,0,1,596,-4)" xmlns:kvg="http://kanjivg.tagaini.net"></path><path class="stroke_order_diagram--current_path" d="M50.67,50.15c2.33,0.35,4.37,0.17,6.06-0.06c4.77-0.66,13.81-1.47,20.76-1.99c1.93-0.14,3.64-0.35,5.71,0.04" id="kvg:06813-s7" kvg:type="㇐" transform="matrix(1,0,0,1,596,-4)" xmlns:kvg="http://kanjivg.tagaini.net"></path><path class="stroke_order_diagram--current_path" d="M50.67,50.15c2.33,0.35,4.37,0.17,6.06-0.06c4.77-0.66,13.81-1.47,20.76-1.99c1.93-0.14,3.64-0.35,5.71,0.04" id="Ske204q7m1s" kvg:type="㇐" transform="matrix(1,0,0,1,596,-4)" xmlns:kvg="http://kanjivg.tagaini.net"></path><circle class="stroke_order_diagram--path_start" cx="50.67" cy="50.15" r="4" transform="matrix(1,0,0,1,596,-4)"></circle><line class="stroke_order_diagram--guide_line" x1="750" x2="750" y1="1" y2="99"></line><line class="stroke_order_diagram--bounding_box" x1="799" x2="799" y1="1" y2="99"></line><path class="stroke_order_diagram--existing_path" d="M11.53,39.97c1.29,0.9,5.05,0.39,6.49,0.24c5.52-0.55,15-1.73,20.77-2.34c0.93-0.1,2.4-0.24,2.98,0" id="Ske204q7m1v" kvg:type="㇐" transform="matrix(1,0,0,1,696,-4)" xmlns:kvg="http://kanjivg.tagaini.net"></path><path class="stroke_order_diagram--existing_path" d="M27.86,13.75c1.38,1.38,2.04,3,2.04,5.42c0,3.16-0.01,47.73-0.03,68.08c-0.01,5.88-0.01,9.74-0.02,10" id="Ske204q7m1w" kvg:type="㇑" transform="matrix(1,0,0,1,696,-4)" xmlns:kvg="http://kanjivg.tagaini.net"></path><path class="stroke_order_diagram--existing_path" d="M28.44,40.28c0,1.59-0.75,4.38-1.45,6.21c-4.11,10.82-7.99,18-15.13,28.09" id="Ske204q7m1x" kvg:type="㇒" transform="matrix(1,0,0,1,696,-4)" xmlns:kvg="http://kanjivg.tagaini.net"></path><path class="stroke_order_diagram--existing_path" d="M31.72,47.65C34.1,49.24,38.38,55.5,40,59.5" id="Ske204q7m1y" kvg:type="㇔/㇏" transform="matrix(1,0,0,1,696,-4)" xmlns:kvg="http://kanjivg.tagaini.net"></path><path class="stroke_order_diagram--existing_path" d="M67.29,12.75c0.07,0.84-0.15,2.25-0.64,3.38c-4.4,10.12-10.53,20.74-24.25,32.62" id="Ske204q7m1z" kvg:type="㇒" transform="matrix(1,0,0,1,696,-4)" xmlns:kvg="http://kanjivg.tagaini.net"></path><path class="stroke_order_diagram--existing_path" d="M68,18.62c4.17,5.24,11.75,12.62,19.56,19.7c3.17,2.87,5.74,5.11,9.29,7.36" id="Ske204q7m20" kvg:type="㇏" transform="matrix(1,0,0,1,696,-4)" xmlns:kvg="http://kanjivg.tagaini.net"></path><path class="stroke_order_diagram--existing_path" d="M50.67,50.15c2.33,0.35,4.37,0.17,6.06-0.06c4.77-0.66,13.81-1.47,20.76-1.99c1.93-0.14,3.64-0.35,5.71,0.04" id="Ske204q7m21" kvg:type="㇐" transform="matrix(1,0,0,1,696,-4)" xmlns:kvg="http://kanjivg.tagaini.net"></path><path class="stroke_order_diagram--current_path" d="M66.41,51.31c0.9,1.24,1.15,2.31,1.15,3.73c0,6.96-0.02,26.7-0.02,36.89" id="kvg:06813-s8" kvg:type="㇑a" transform="matrix(1,0,0,1,696,-4)" xmlns:kvg="http://kanjivg.tagaini.net"></path><path class="stroke_order_diagram--current_path" d="M66.41,51.31c0.9,1.24,1.15,2.31,1.15,3.73c0,6.96-0.02,26.7-0.02,36.89" id="Ske204q7m23" kvg:type="㇑a" transform="matrix(1,0,0,1,696,-4)" xmlns:kvg="http://kanjivg.tagaini.net"></path><circle class="stroke_order_diagram--path_start" cx="66.41" cy="51.31" r="4" transform="matrix(1,0,0,1,696,-4)"></circle><line class="stroke_order_diagram--guide_line" x1="850" x2="850" y1="1" y2="99"></line><line class="stroke_order_diagram--bounding_box" x1="899" x2="899" y1="1" y2="99"></line><path class="stroke_order_diagram--existing_path" d="M11.53,39.97c1.29,0.9,5.05,0.39,6.49,0.24c5.52-0.55,15-1.73,20.77-2.34c0.93-0.1,2.4-0.24,2.98,0" id="Ske204q7m26" kvg:type="㇐" transform="matrix(1,0,0,1,796,-4)" xmlns:kvg="http://kanjivg.tagaini.net"></path><path class="stroke_order_diagram--existing_path" d="M27.86,13.75c1.38,1.38,2.04,3,2.04,5.42c0,3.16-0.01,47.73-0.03,68.08c-0.01,5.88-0.01,9.74-0.02,10" id="Ske204q7m27" kvg:type="㇑" transform="matrix(1,0,0,1,796,-4)" xmlns:kvg="http://kanjivg.tagaini.net"></path><path class="stroke_order_diagram--existing_path" d="M28.44,40.28c0,1.59-0.75,4.38-1.45,6.21c-4.11,10.82-7.99,18-15.13,28.09" id="Ske204q7m28" kvg:type="㇒" transform="matrix(1,0,0,1,796,-4)" xmlns:kvg="http://kanjivg.tagaini.net"></path><path class="stroke_order_diagram--existing_path" d="M31.72,47.65C34.1,49.24,38.38,55.5,40,59.5" id="Ske204q7m29" kvg:type="㇔/㇏" transform="matrix(1,0,0,1,796,-4)" xmlns:kvg="http://kanjivg.tagaini.net"></path><path class="stroke_order_diagram--existing_path" d="M67.29,12.75c0.07,0.84-0.15,2.25-0.64,3.38c-4.4,10.12-10.53,20.74-24.25,32.62" id="Ske204q7m2a" kvg:type="㇒" transform="matrix(1,0,0,1,796,-4)" xmlns:kvg="http://kanjivg.tagaini.net"></path><path class="stroke_order_diagram--existing_path" d="M68,18.62c4.17,5.24,11.75,12.62,19.56,19.7c3.17,2.87,5.74,5.11,9.29,7.36" id="Ske204q7m2b" kvg:type="㇏" transform="matrix(1,0,0,1,796,-4)" xmlns:kvg="http://kanjivg.tagaini.net"></path><path class="stroke_order_diagram--existing_path" d="M50.67,50.15c2.33,0.35,4.37,0.17,6.06-0.06c4.77-0.66,13.81-1.47,20.76-1.99c1.93-0.14,3.64-0.35,5.71,0.04" id="Ske204q7m2c" kvg:type="㇐" transform="matrix(1,0,0,1,796,-4)" xmlns:kvg="http://kanjivg.tagaini.net"></path><path class="stroke_order_diagram--existing_path" d="M66.41,51.31c0.9,1.24,1.15,2.31,1.15,3.73c0,6.96-0.02,26.7-0.02,36.89" id="Ske204q7m2d" kvg:type="㇑a" transform="matrix(1,0,0,1,796,-4)" xmlns:kvg="http://kanjivg.tagaini.net"></path><path class="stroke_order_diagram--current_path" d="M48.95,71.17c1.85,0.59,3.9,0.31,5.79,0.11c8.2-0.88,16.13-1.49,25.66-2.39c2.01-0.19,4.17-0.46,6.14,0.15" id="kvg:06813-s9" kvg:type="㇐" transform="matrix(1,0,0,1,796,-4)" xmlns:kvg="http://kanjivg.tagaini.net"></path><path class="stroke_order_diagram--current_path" d="M48.95,71.17c1.85,0.59,3.9,0.31,5.79,0.11c8.2-0.88,16.13-1.49,25.66-2.39c2.01-0.19,4.17-0.46,6.14,0.15" id="Ske204q7m2f" kvg:type="㇐" transform="matrix(1,0,0,1,796,-4)" xmlns:kvg="http://kanjivg.tagaini.net"></path><circle class="stroke_order_diagram--path_start" cx="48.95" cy="71.17" r="4" transform="matrix(1,0,0,1,796,-4)"></circle><line class="stroke_order_diagram--guide_line" x1="950" x2="950" y1="1" y2="99"></line><line class="stroke_order_diagram--bounding_box" x1="999" x2="999" y1="1" y2="99"></line><path class="stroke_order_diagram--existing_path" d="M11.53,39.97c1.29,0.9,5.05,0.39,6.49,0.24c5.52-0.55,15-1.73,20.77-2.34c0.93-0.1,2.4-0.24,2.98,0" id="Ske204q7m2i" kvg:type="㇐" transform="matrix(1,0,0,1,896,-4)" xmlns:kvg="http://kanjivg.tagaini.net"></path><path class="stroke_order_diagram--existing_path" d="M27.86,13.75c1.38,1.38,2.04,3,2.04,5.42c0,3.16-0.01,47.73-0.03,68.08c-0.01,5.88-0.01,9.74-0.02,10" id="Ske204q7m2j" kvg:type="㇑" transform="matrix(1,0,0,1,896,-4)" xmlns:kvg="http://kanjivg.tagaini.net"></path><path class="stroke_order_diagram--existing_path" d="M28.44,40.28c0,1.59-0.75,4.38-1.45,6.21c-4.11,10.82-7.99,18-15.13,28.09" id="Ske204q7m2k" kvg:type="㇒" transform="matrix(1,0,0,1,896,-4)" xmlns:kvg="http://kanjivg.tagaini.net"></path><path class="stroke_order_diagram--existing_path" d="M31.72,47.65C34.1,49.24,38.38,55.5,40,59.5" id="Ske204q7m2l" kvg:type="㇔/㇏" transform="matrix(1,0,0,1,896,-4)" xmlns:kvg="http://kanjivg.tagaini.net"></path><path class="stroke_order_diagram--existing_path" d="M67.29,12.75c0.07,0.84-0.15,2.25-0.64,3.38c-4.4,10.12-10.53,20.74-24.25,32.62" id="Ske204q7m2m" kvg:type="㇒" transform="matrix(1,0,0,1,896,-4)" xmlns:kvg="http://kanjivg.tagaini.net"></path><path class="stroke_order_diagram--existing_path" d="M68,18.62c4.17,5.24,11.75,12.62,19.56,19.7c3.17,2.87,5.74,5.11,9.29,7.36" id="Ske204q7m2n" kvg:type="㇏" transform="matrix(1,0,0,1,896,-4)" xmlns:kvg="http://kanjivg.tagaini.net"></path><path class="stroke_order_diagram--existing_path" d="M50.67,50.15c2.33,0.35,4.37,0.17,6.06-0.06c4.77-0.66,13.81-1.47,20.76-1.99c1.93-0.14,3.64-0.35,5.71,0.04" id="Ske204q7m2o" kvg:type="㇐" transform="matrix(1,0,0,1,896,-4)" xmlns:kvg="http://kanjivg.tagaini.net"></path><path class="stroke_order_diagram--existing_path" d="M66.41,51.31c0.9,1.24,1.15,2.31,1.15,3.73c0,6.96-0.02,26.7-0.02,36.89" id="Ske204q7m2p" kvg:type="㇑a" transform="matrix(1,0,0,1,896,-4)" xmlns:kvg="http://kanjivg.tagaini.net"></path><path class="stroke_order_diagram--existing_path" d="M48.95,71.17c1.85,0.59,3.9,0.31,5.79,0.11c8.2-0.88,16.13-1.49,25.66-2.39c2.01-0.19,4.17-0.46,6.14,0.15" id="Ske204q7m2q" kvg:type="㇐" transform="matrix(1,0,0,1,896,-4)" xmlns:kvg="http://kanjivg.tagaini.net"></path><path class="stroke_order_diagram--current_path" d="M40.85,93.44c2.02,0.69,4.57,0.56,6.91,0.42c15.13-0.87,25.16-1.68,40.98-2.28c2.46-0.09,5.33,0.25,7.65,1.28" id="kvg:06813-s10" kvg:type="㇐" transform="matrix(1,0,0,1,896,-4)" xmlns:kvg="http://kanjivg.tagaini.net"></path><path class="stroke_order_diagram--current_path" d="M40.85,93.44c2.02,0.69,4.57,0.56,6.91,0.42c15.13-0.87,25.16-1.68,40.98-2.28c2.46-0.09,5.33,0.25,7.65,1.28" id="Ske204q7m2s" kvg:type="㇐" transform="matrix(1,0,0,1,896,-4)" xmlns:kvg="http://kanjivg.tagaini.net"></path><circle class="stroke_order_diagram--path_start" cx="40.85" cy="93.44" r="4" transform="matrix(1,0,0,1,896,-4)"></circle></svg>