<svg class="stroke_order_diagram--svg_container_for_518662abd5dda79658000fe9" style="height: 100px; width: 1100px;" viewbox="0 0 1100 100"><desc>Created with Snap</desc><defs></defs><line class="stroke_order_diagram--bounding_box" x1="1" x2="1099" y1="1" y2="1"></line><line class="stroke_order_diagram--bounding_box" x1="1" x2="1" y1="1" y2="99"></line><line class="stroke_order_diagram--bounding_box" x1="1" x2="1099" y1="99" y2="99"></line><line class="stroke_order_diagram--guide_line" x1="0" x2="1100" y1="50" y2="50"></line><line class="stroke_order_diagram--guide_line" x1="50" x2="50" y1="1" y2="99"></line><line class="stroke_order_diagram--bounding_box" x1="99" x2="99" y1="1" y2="99"></line><path class="stroke_order_diagram--current_path" d="M31.76,14c0.22,1.86-0.06,4.31-0.77,5.9C26.5,30.09,20.3,40.15,10,52.54" id="kvg:0689d-s1" kvg:type="㇒" transform="matrix(1,0,0,1,-4,-4)" xmlns:kvg="http://kanjivg.tagaini.net"></path><path class="stroke_order_diagram--current_path" d="M31.76,14c0.22,1.86-0.06,4.31-0.77,5.9C26.5,30.09,20.3,40.15,10,52.54" id="Ske2mqwork" kvg:type="㇒" transform="matrix(1,0,0,1,-4,-4)" xmlns:kvg="http://kanjivg.tagaini.net"></path><circle class="stroke_order_diagram--path_start" cx="31.76" cy="14" r="4" transform="matrix(1,0,0,1,-4,-4)"></circle><line class="stroke_order_diagram--guide_line" x1="150" x2="150" y1="1" y2="99"></line><line class="stroke_order_diagram--bounding_box" x1="199" x2="199" y1="1" y2="99"></line><path class="stroke_order_diagram--existing_path" d="M31.76,14c0.22,1.86-0.06,4.31-0.77,5.9C26.5,30.09,20.3,40.15,10,52.54" id="Ske2mqworn" kvg:type="㇒" transform="matrix(1,0,0,1,96,-4)" xmlns:kvg="http://kanjivg.tagaini.net"></path><path class="stroke_order_diagram--current_path" d="M23.53,38c0.47,1,1.25,1.94,1.25,3.23c0,14.27-0.53,43.27-0.53,54.02" id="kvg:0689d-s2" kvg:type="㇑" transform="matrix(1,0,0,1,96,-4)" xmlns:kvg="http://kanjivg.tagaini.net"></path><path class="stroke_order_diagram--current_path" d="M23.53,38c0.47,1,1.25,1.94,1.25,3.23c0,14.27-0.53,43.27-0.53,54.02" id="Ske2mqworp" kvg:type="㇑" transform="matrix(1,0,0,1,96,-4)" xmlns:kvg="http://kanjivg.tagaini.net"></path><circle class="stroke_order_diagram--path_start" cx="23.53" cy="38" r="4" transform="matrix(1,0,0,1,96,-4)"></circle><line class="stroke_order_diagram--guide_line" x1="250" x2="250" y1="1" y2="99"></line><line class="stroke_order_diagram--bounding_box" x1="299" x2="299" y1="1" y2="99"></line><path class="stroke_order_diagram--existing_path" d="M31.76,14c0.22,1.86-0.06,4.31-0.77,5.9C26.5,30.09,20.3,40.15,10,52.54" id="Ske2mqwors" kvg:type="㇒" transform="matrix(1,0,0,1,196,-4)" xmlns:kvg="http://kanjivg.tagaini.net"></path><path class="stroke_order_diagram--existing_path" d="M23.53,38c0.47,1,1.25,1.94,1.25,3.23c0,14.27-0.53,43.27-0.53,54.02" id="Ske2mqwort" kvg:type="㇑" transform="matrix(1,0,0,1,196,-4)" xmlns:kvg="http://kanjivg.tagaini.net"></path><path class="stroke_order_diagram--current_path" d="M35.27,35.83c0.98,0.92,1.67,1.99,1.76,5.02C37.42,55.41,37,76.54,37,81.5" id="kvg:0689d-s3" kvg:type="㇑" transform="matrix(1,0,0,1,196,-4)" xmlns:kvg="http://kanjivg.tagaini.net"></path><path class="stroke_order_diagram--current_path" d="M35.27,35.83c0.98,0.92,1.67,1.99,1.76,5.02C37.42,55.41,37,76.54,37,81.5" id="Ske2mqworv" kvg:type="㇑" transform="matrix(1,0,0,1,196,-4)" xmlns:kvg="http://kanjivg.tagaini.net"></path><circle class="stroke_order_diagram--path_start" cx="35.27" cy="35.83" r="4" transform="matrix(1,0,0,1,196,-4)"></circle><line class="stroke_order_diagram--guide_line" x1="350" x2="350" y1="1" y2="99"></line><line class="stroke_order_diagram--bounding_box" x1="399" x2="399" y1="1" y2="99"></line><path class="stroke_order_diagram--existing_path" d="M31.76,14c0.22,1.86-0.06,4.31-0.77,5.9C26.5,30.09,20.3,40.15,10,52.54" id="Ske2mqwory" kvg:type="㇒" transform="matrix(1,0,0,1,296,-4)" xmlns:kvg="http://kanjivg.tagaini.net"></path><path class="stroke_order_diagram--existing_path" d="M23.53,38c0.47,1,1.25,1.94,1.25,3.23c0,14.27-0.53,43.27-0.53,54.02" id="Ske2mqworz" kvg:type="㇑" transform="matrix(1,0,0,1,296,-4)" xmlns:kvg="http://kanjivg.tagaini.net"></path><path class="stroke_order_diagram--existing_path" d="M35.27,35.83c0.98,0.92,1.67,1.99,1.76,5.02C37.42,55.41,37,76.54,37,81.5" id="Ske2mqwor10" kvg:type="㇑" transform="matrix(1,0,0,1,296,-4)" xmlns:kvg="http://kanjivg.tagaini.net"></path><path class="stroke_order_diagram--current_path" d="M58.35,13.14c0.04,0.56,0.22,1.47-0.07,2.24C56.43,20.29,51.41,31.43,45,38.23" id="kvg:0689d-s4" kvg:type="㇒" transform="matrix(1,0,0,1,296,-4)" xmlns:kvg="http://kanjivg.tagaini.net"></path><path class="stroke_order_diagram--current_path" d="M58.35,13.14c0.04,0.56,0.22,1.47-0.07,2.24C56.43,20.29,51.41,31.43,45,38.23" id="Ske2mqwor12" kvg:type="㇒" transform="matrix(1,0,0,1,296,-4)" xmlns:kvg="http://kanjivg.tagaini.net"></path><circle class="stroke_order_diagram--path_start" cx="58.35" cy="13.14" r="4" transform="matrix(1,0,0,1,296,-4)"></circle><line class="stroke_order_diagram--guide_line" x1="450" x2="450" y1="1" y2="99"></line><line class="stroke_order_diagram--bounding_box" x1="499" x2="499" y1="1" y2="99"></line><path class="stroke_order_diagram--existing_path" d="M31.76,14c0.22,1.86-0.06,4.31-0.77,5.9C26.5,30.09,20.3,40.15,10,52.54" id="Ske2mqwor15" kvg:type="㇒" transform="matrix(1,0,0,1,396,-4)" xmlns:kvg="http://kanjivg.tagaini.net"></path><path class="stroke_order_diagram--existing_path" d="M23.53,38c0.47,1,1.25,1.94,1.25,3.23c0,14.27-0.53,43.27-0.53,54.02" id="Ske2mqwor16" kvg:type="㇑" transform="matrix(1,0,0,1,396,-4)" xmlns:kvg="http://kanjivg.tagaini.net"></path><path class="stroke_order_diagram--existing_path" d="M35.27,35.83c0.98,0.92,1.67,1.99,1.76,5.02C37.42,55.41,37,76.54,37,81.5" id="Ske2mqwor17" kvg:type="㇑" transform="matrix(1,0,0,1,396,-4)" xmlns:kvg="http://kanjivg.tagaini.net"></path><path class="stroke_order_diagram--existing_path" d="M58.35,13.14c0.04,0.56,0.22,1.47-0.07,2.24C56.43,20.29,51.41,31.43,45,38.23" id="Ske2mqwor18" kvg:type="㇒" transform="matrix(1,0,0,1,396,-4)" xmlns:kvg="http://kanjivg.tagaini.net"></path><path class="stroke_order_diagram--current_path" d="M58.22,23.84c0.03-0.09,1.71,0.26,2.31,0.24c6.28-0.27,18.52-2.74,28.1-3.18c1.08-0.05,1.74-0.01,2.02,0.04" id="kvg:0689d-s5" kvg:type="㇐" transform="matrix(1,0,0,1,396,-4)" xmlns:kvg="http://kanjivg.tagaini.net"></path><path class="stroke_order_diagram--current_path" d="M58.22,23.84c0.03-0.09,1.71,0.26,2.31,0.24c6.28-0.27,18.52-2.74,28.1-3.18c1.08-0.05,1.74-0.01,2.02,0.04" id="Ske2mqwor1a" kvg:type="㇐" transform="matrix(1,0,0,1,396,-4)" xmlns:kvg="http://kanjivg.tagaini.net"></path><circle class="stroke_order_diagram--path_start" cx="58.22" cy="23.84" r="4" transform="matrix(1,0,0,1,396,-4)"></circle><line class="stroke_order_diagram--guide_line" x1="550" x2="550" y1="1" y2="99"></line><line class="stroke_order_diagram--bounding_box" x1="599" x2="599" y1="1" y2="99"></line><path class="stroke_order_diagram--existing_path" d="M31.76,14c0.22,1.86-0.06,4.31-0.77,5.9C26.5,30.09,20.3,40.15,10,52.54" id="Ske2mqwor1d" kvg:type="㇒" transform="matrix(1,0,0,1,496,-4)" xmlns:kvg="http://kanjivg.tagaini.net"></path><path class="stroke_order_diagram--existing_path" d="M23.53,38c0.47,1,1.25,1.94,1.25,3.23c0,14.27-0.53,43.27-0.53,54.02" id="Ske2mqwor1e" kvg:type="㇑" transform="matrix(1,0,0,1,496,-4)" xmlns:kvg="http://kanjivg.tagaini.net"></path><path class="stroke_order_diagram--existing_path" d="M35.27,35.83c0.98,0.92,1.67,1.99,1.76,5.02C37.42,55.41,37,76.54,37,81.5" id="Ske2mqwor1f" kvg:type="㇑" transform="matrix(1,0,0,1,496,-4)" xmlns:kvg="http://kanjivg.tagaini.net"></path><path class="stroke_order_diagram--existing_path" d="M58.35,13.14c0.04,0.56,0.22,1.47-0.07,2.24C56.43,20.29,51.41,31.43,45,38.23" id="Ske2mqwor1g" kvg:type="㇒" transform="matrix(1,0,0,1,496,-4)" xmlns:kvg="http://kanjivg.tagaini.net"></path><path class="stroke_order_diagram--existing_path" d="M58.22,23.84c0.03-0.09,1.71,0.26,2.31,0.24c6.28-0.27,18.52-2.74,28.1-3.18c1.08-0.05,1.74-0.01,2.02,0.04" id="Ske2mqwor1h" kvg:type="㇐" transform="matrix(1,0,0,1,496,-4)" xmlns:kvg="http://kanjivg.tagaini.net"></path><path class="stroke_order_diagram--current_path" d="M77.29,25.53c-0.04,0.97,0.11,2.88-0.72,4.06C70.25,38.5,63.5,46.5,44.87,55" id="kvg:0689d-s6" kvg:type="㇒" transform="matrix(1,0,0,1,496,-4)" xmlns:kvg="http://kanjivg.tagaini.net"></path><path class="stroke_order_diagram--current_path" d="M77.29,25.53c-0.04,0.97,0.11,2.88-0.72,4.06C70.25,38.5,63.5,46.5,44.87,55" id="Ske2mqwor1j" kvg:type="㇒" transform="matrix(1,0,0,1,496,-4)" xmlns:kvg="http://kanjivg.tagaini.net"></path><circle class="stroke_order_diagram--path_start" cx="77.29" cy="25.53" r="4" transform="matrix(1,0,0,1,496,-4)"></circle><line class="stroke_order_diagram--guide_line" x1="650" x2="650" y1="1" y2="99"></line><line class="stroke_order_diagram--bounding_box" x1="699" x2="699" y1="1" y2="99"></line><path class="stroke_order_diagram--existing_path" d="M31.76,14c0.22,1.86-0.06,4.31-0.77,5.9C26.5,30.09,20.3,40.15,10,52.54" id="Ske2mqwor1m" kvg:type="㇒" transform="matrix(1,0,0,1,596,-4)" xmlns:kvg="http://kanjivg.tagaini.net"></path><path class="stroke_order_diagram--existing_path" d="M23.53,38c0.47,1,1.25,1.94,1.25,3.23c0,14.27-0.53,43.27-0.53,54.02" id="Ske2mqwor1n" kvg:type="㇑" transform="matrix(1,0,0,1,596,-4)" xmlns:kvg="http://kanjivg.tagaini.net"></path><path class="stroke_order_diagram--existing_path" d="M35.27,35.83c0.98,0.92,1.67,1.99,1.76,5.02C37.42,55.41,37,76.54,37,81.5" id="Ske2mqwor1o" kvg:type="㇑" transform="matrix(1,0,0,1,596,-4)" xmlns:kvg="http://kanjivg.tagaini.net"></path><path class="stroke_order_diagram--existing_path" d="M58.35,13.14c0.04,0.56,0.22,1.47-0.07,2.24C56.43,20.29,51.41,31.43,45,38.23" id="Ske2mqwor1p" kvg:type="㇒" transform="matrix(1,0,0,1,596,-4)" xmlns:kvg="http://kanjivg.tagaini.net"></path><path class="stroke_order_diagram--existing_path" d="M58.22,23.84c0.03-0.09,1.71,0.26,2.31,0.24c6.28-0.27,18.52-2.74,28.1-3.18c1.08-0.05,1.74-0.01,2.02,0.04" id="Ske2mqwor1q" kvg:type="㇐" transform="matrix(1,0,0,1,596,-4)" xmlns:kvg="http://kanjivg.tagaini.net"></path><path class="stroke_order_diagram--existing_path" d="M77.29,25.53c-0.04,0.97,0.11,2.88-0.72,4.06C70.25,38.5,63.5,46.5,44.87,55" id="Ske2mqwor1r" kvg:type="㇒" transform="matrix(1,0,0,1,596,-4)" xmlns:kvg="http://kanjivg.tagaini.net"></path><path class="stroke_order_diagram--current_path" d="M52.75,31.88c6.5,1.62,25.06,15.5,36.57,19.47c2.21,0.77,3.62,0.89,5.44,0.97" id="kvg:0689d-s7" kvg:type="㇏" transform="matrix(1,0,0,1,596,-4)" xmlns:kvg="http://kanjivg.tagaini.net"></path><path class="stroke_order_diagram--current_path" d="M52.75,31.88c6.5,1.62,25.06,15.5,36.57,19.47c2.21,0.77,3.62,0.89,5.44,0.97" id="Ske2mqwor1t" kvg:type="㇏" transform="matrix(1,0,0,1,596,-4)" xmlns:kvg="http://kanjivg.tagaini.net"></path><circle class="stroke_order_diagram--path_start" cx="52.75" cy="31.88" r="4" transform="matrix(1,0,0,1,596,-4)"></circle><line class="stroke_order_diagram--guide_line" x1="750" x2="750" y1="1" y2="99"></line><line class="stroke_order_diagram--bounding_box" x1="799" x2="799" y1="1" y2="99"></line><path class="stroke_order_diagram--existing_path" d="M31.76,14c0.22,1.86-0.06,4.31-0.77,5.9C26.5,30.09,20.3,40.15,10,52.54" id="Ske2mqwor1w" kvg:type="㇒" transform="matrix(1,0,0,1,696,-4)" xmlns:kvg="http://kanjivg.tagaini.net"></path><path class="stroke_order_diagram--existing_path" d="M23.53,38c0.47,1,1.25,1.94,1.25,3.23c0,14.27-0.53,43.27-0.53,54.02" id="Ske2mqwor1x" kvg:type="㇑" transform="matrix(1,0,0,1,696,-4)" xmlns:kvg="http://kanjivg.tagaini.net"></path><path class="stroke_order_diagram--existing_path" d="M35.27,35.83c0.98,0.92,1.67,1.99,1.76,5.02C37.42,55.41,37,76.54,37,81.5" id="Ske2mqwor1y" kvg:type="㇑" transform="matrix(1,0,0,1,696,-4)" xmlns:kvg="http://kanjivg.tagaini.net"></path><path class="stroke_order_diagram--existing_path" d="M58.35,13.14c0.04,0.56,0.22,1.47-0.07,2.24C56.43,20.29,51.41,31.43,45,38.23" id="Ske2mqwor1z" kvg:type="㇒" transform="matrix(1,0,0,1,696,-4)" xmlns:kvg="http://kanjivg.tagaini.net"></path><path class="stroke_order_diagram--existing_path" d="M58.22,23.84c0.03-0.09,1.71,0.26,2.31,0.24c6.28-0.27,18.52-2.74,28.1-3.18c1.08-0.05,1.74-0.01,2.02,0.04" id="Ske2mqwor20" kvg:type="㇐" transform="matrix(1,0,0,1,696,-4)" xmlns:kvg="http://kanjivg.tagaini.net"></path><path class="stroke_order_diagram--existing_path" d="M77.29,25.53c-0.04,0.97,0.11,2.88-0.72,4.06C70.25,38.5,63.5,46.5,44.87,55" id="Ske2mqwor21" kvg:type="㇒" transform="matrix(1,0,0,1,696,-4)" xmlns:kvg="http://kanjivg.tagaini.net"></path><path class="stroke_order_diagram--existing_path" d="M52.75,31.88c6.5,1.62,25.06,15.5,36.57,19.47c2.21,0.77,3.62,0.89,5.44,0.97" id="Ske2mqwor22" kvg:type="㇏" transform="matrix(1,0,0,1,696,-4)" xmlns:kvg="http://kanjivg.tagaini.net"></path><path class="stroke_order_diagram--current_path" d="M46.03,63.83c1.21,0.4,2.59,0.52,3.98,0.4c7.1-0.65,27.72-2.9,38.46-3.66c1.38-0.1,2.25,0.07,3.64,0.35" id="kvg:0689d-s8" kvg:type="㇐" transform="matrix(1,0,0,1,696,-4)" xmlns:kvg="http://kanjivg.tagaini.net"></path><path class="stroke_order_diagram--current_path" d="M46.03,63.83c1.21,0.4,2.59,0.52,3.98,0.4c7.1-0.65,27.72-2.9,38.46-3.66c1.38-0.1,2.25,0.07,3.64,0.35" id="Ske2mqwor24" kvg:type="㇐" transform="matrix(1,0,0,1,696,-4)" xmlns:kvg="http://kanjivg.tagaini.net"></path><circle class="stroke_order_diagram--path_start" cx="46.03" cy="63.83" r="4" transform="matrix(1,0,0,1,696,-4)"></circle><line class="stroke_order_diagram--guide_line" x1="850" x2="850" y1="1" y2="99"></line><line class="stroke_order_diagram--bounding_box" x1="899" x2="899" y1="1" y2="99"></line><path class="stroke_order_diagram--existing_path" d="M31.76,14c0.22,1.86-0.06,4.31-0.77,5.9C26.5,30.09,20.3,40.15,10,52.54" id="Ske2mqwor27" kvg:type="㇒" transform="matrix(1,0,0,1,796,-4)" xmlns:kvg="http://kanjivg.tagaini.net"></path><path class="stroke_order_diagram--existing_path" d="M23.53,38c0.47,1,1.25,1.94,1.25,3.23c0,14.27-0.53,43.27-0.53,54.02" id="Ske2mqwor28" kvg:type="㇑" transform="matrix(1,0,0,1,796,-4)" xmlns:kvg="http://kanjivg.tagaini.net"></path><path class="stroke_order_diagram--existing_path" d="M35.27,35.83c0.98,0.92,1.67,1.99,1.76,5.02C37.42,55.41,37,76.54,37,81.5" id="Ske2mqwor29" kvg:type="㇑" transform="matrix(1,0,0,1,796,-4)" xmlns:kvg="http://kanjivg.tagaini.net"></path><path class="stroke_order_diagram--existing_path" d="M58.35,13.14c0.04,0.56,0.22,1.47-0.07,2.24C56.43,20.29,51.41,31.43,45,38.23" id="Ske2mqwor2a" kvg:type="㇒" transform="matrix(1,0,0,1,796,-4)" xmlns:kvg="http://kanjivg.tagaini.net"></path><path class="stroke_order_diagram--existing_path" d="M58.22,23.84c0.03-0.09,1.71,0.26,2.31,0.24c6.28-0.27,18.52-2.74,28.1-3.18c1.08-0.05,1.74-0.01,2.02,0.04" id="Ske2mqwor2b" kvg:type="㇐" transform="matrix(1,0,0,1,796,-4)" xmlns:kvg="http://kanjivg.tagaini.net"></path><path class="stroke_order_diagram--existing_path" d="M77.29,25.53c-0.04,0.97,0.11,2.88-0.72,4.06C70.25,38.5,63.5,46.5,44.87,55" id="Ske2mqwor2c" kvg:type="㇒" transform="matrix(1,0,0,1,796,-4)" xmlns:kvg="http://kanjivg.tagaini.net"></path><path class="stroke_order_diagram--existing_path" d="M52.75,31.88c6.5,1.62,25.06,15.5,36.57,19.47c2.21,0.77,3.62,0.89,5.44,0.97" id="Ske2mqwor2d" kvg:type="㇏" transform="matrix(1,0,0,1,796,-4)" xmlns:kvg="http://kanjivg.tagaini.net"></path><path class="stroke_order_diagram--existing_path" d="M46.03,63.83c1.21,0.4,2.59,0.52,3.98,0.4c7.1-0.65,27.72-2.9,38.46-3.66c1.38-0.1,2.25,0.07,3.64,0.35" id="Ske2mqwor2e" kvg:type="㇐" transform="matrix(1,0,0,1,796,-4)" xmlns:kvg="http://kanjivg.tagaini.net"></path><path class="stroke_order_diagram--current_path" d="M66.84,49.25c0.66,1,1.27,2.25,1.27,2.84c0,5.93,0,42.38-0.14,45.91" id="kvg:0689d-s9" kvg:type="㇑" transform="matrix(1,0,0,1,796,-4)" xmlns:kvg="http://kanjivg.tagaini.net"></path><path class="stroke_order_diagram--current_path" d="M66.84,49.25c0.66,1,1.27,2.25,1.27,2.84c0,5.93,0,42.38-0.14,45.91" id="Ske2mqwor2g" kvg:type="㇑" transform="matrix(1,0,0,1,796,-4)" xmlns:kvg="http://kanjivg.tagaini.net"></path><circle class="stroke_order_diagram--path_start" cx="66.84" cy="49.25" r="4" transform="matrix(1,0,0,1,796,-4)"></circle><line class="stroke_order_diagram--guide_line" x1="950" x2="950" y1="1" y2="99"></line><line class="stroke_order_diagram--bounding_box" x1="999" x2="999" y1="1" y2="99"></line><path class="stroke_order_diagram--existing_path" d="M31.76,14c0.22,1.86-0.06,4.31-0.77,5.9C26.5,30.09,20.3,40.15,10,52.54" id="Ske2mqwor2j" kvg:type="㇒" transform="matrix(1,0,0,1,896,-4)" xmlns:kvg="http://kanjivg.tagaini.net"></path><path class="stroke_order_diagram--existing_path" d="M23.53,38c0.47,1,1.25,1.94,1.25,3.23c0,14.27-0.53,43.27-0.53,54.02" id="Ske2mqwor2k" kvg:type="㇑" transform="matrix(1,0,0,1,896,-4)" xmlns:kvg="http://kanjivg.tagaini.net"></path><path class="stroke_order_diagram--existing_path" d="M35.27,35.83c0.98,0.92,1.67,1.99,1.76,5.02C37.42,55.41,37,76.54,37,81.5" id="Ske2mqwor2l" kvg:type="㇑" transform="matrix(1,0,0,1,896,-4)" xmlns:kvg="http://kanjivg.tagaini.net"></path><path class="stroke_order_diagram--existing_path" d="M58.35,13.14c0.04,0.56,0.22,1.47-0.07,2.24C56.43,20.29,51.41,31.43,45,38.23" id="Ske2mqwor2m" kvg:type="㇒" transform="matrix(1,0,0,1,896,-4)" xmlns:kvg="http://kanjivg.tagaini.net"></path><path class="stroke_order_diagram--existing_path" d="M58.22,23.84c0.03-0.09,1.71,0.26,2.31,0.24c6.28-0.27,18.52-2.74,28.1-3.18c1.08-0.05,1.74-0.01,2.02,0.04" id="Ske2mqwor2n" kvg:type="㇐" transform="matrix(1,0,0,1,896,-4)" xmlns:kvg="http://kanjivg.tagaini.net"></path><path class="stroke_order_diagram--existing_path" d="M77.29,25.53c-0.04,0.97,0.11,2.88-0.72,4.06C70.25,38.5,63.5,46.5,44.87,55" id="Ske2mqwor2o" kvg:type="㇒" transform="matrix(1,0,0,1,896,-4)" xmlns:kvg="http://kanjivg.tagaini.net"></path><path class="stroke_order_diagram--existing_path" d="M52.75,31.88c6.5,1.62,25.06,15.5,36.57,19.47c2.21,0.77,3.62,0.89,5.44,0.97" id="Ske2mqwor2p" kvg:type="㇏" transform="matrix(1,0,0,1,896,-4)" xmlns:kvg="http://kanjivg.tagaini.net"></path><path class="stroke_order_diagram--existing_path" d="M46.03,63.83c1.21,0.4,2.59,0.52,3.98,0.4c7.1-0.65,27.72-2.9,38.46-3.66c1.38-0.1,2.25,0.07,3.64,0.35" id="Ske2mqwor2q" kvg:type="㇐" transform="matrix(1,0,0,1,896,-4)" xmlns:kvg="http://kanjivg.tagaini.net"></path><path class="stroke_order_diagram--existing_path" d="M66.84,49.25c0.66,1,1.27,2.25,1.27,2.84c0,5.93,0,42.38-0.14,45.91" id="Ske2mqwor2r" kvg:type="㇑" transform="matrix(1,0,0,1,896,-4)" xmlns:kvg="http://kanjivg.tagaini.net"></path><path class="stroke_order_diagram--current_path" d="M67.62,63.58c-3.53,7.49-13,18.94-20.35,23.17" id="kvg:0689d-s10" kvg:type="㇒" transform="matrix(1,0,0,1,896,-4)" xmlns:kvg="http://kanjivg.tagaini.net"></path><path class="stroke_order_diagram--current_path" d="M67.62,63.58c-3.53,7.49-13,18.94-20.35,23.17" id="Ske2mqwor2t" kvg:type="㇒" transform="matrix(1,0,0,1,896,-4)" xmlns:kvg="http://kanjivg.tagaini.net"></path><circle class="stroke_order_diagram--path_start" cx="67.62" cy="63.58" r="4" transform="matrix(1,0,0,1,896,-4)"></circle><line class="stroke_order_diagram--guide_line" x1="1050" x2="1050" y1="1" y2="99"></line><line class="stroke_order_diagram--bounding_box" x1="1099" x2="1099" y1="1" y2="99"></line><path class="stroke_order_diagram--existing_path" d="M31.76,14c0.22,1.86-0.06,4.31-0.77,5.9C26.5,30.09,20.3,40.15,10,52.54" id="Ske2mqwor2w" kvg:type="㇒" transform="matrix(1,0,0,1,996,-4)" xmlns:kvg="http://kanjivg.tagaini.net"></path><path class="stroke_order_diagram--existing_path" d="M23.53,38c0.47,1,1.25,1.94,1.25,3.23c0,14.27-0.53,43.27-0.53,54.02" id="Ske2mqwor2x" kvg:type="㇑" transform="matrix(1,0,0,1,996,-4)" xmlns:kvg="http://kanjivg.tagaini.net"></path><path class="stroke_order_diagram--existing_path" d="M35.27,35.83c0.98,0.92,1.67,1.99,1.76,5.02C37.42,55.41,37,76.54,37,81.5" id="Ske2mqwor2y" kvg:type="㇑" transform="matrix(1,0,0,1,996,-4)" xmlns:kvg="http://kanjivg.tagaini.net"></path><path class="stroke_order_diagram--existing_path" d="M58.35,13.14c0.04,0.56,0.22,1.47-0.07,2.24C56.43,20.29,51.41,31.43,45,38.23" id="Ske2mqwor2z" kvg:type="㇒" transform="matrix(1,0,0,1,996,-4)" xmlns:kvg="http://kanjivg.tagaini.net"></path><path class="stroke_order_diagram--existing_path" d="M58.22,23.84c0.03-0.09,1.71,0.26,2.31,0.24c6.28-0.27,18.52-2.74,28.1-3.18c1.08-0.05,1.74-0.01,2.02,0.04" id="Ske2mqwor30" kvg:type="㇐" transform="matrix(1,0,0,1,996,-4)" xmlns:kvg="http://kanjivg.tagaini.net"></path><path class="stroke_order_diagram--existing_path" d="M77.29,25.53c-0.04,0.97,0.11,2.88-0.72,4.06C70.25,38.5,63.5,46.5,44.87,55" id="Ske2mqwor31" kvg:type="㇒" transform="matrix(1,0,0,1,996,-4)" xmlns:kvg="http://kanjivg.tagaini.net"></path><path class="stroke_order_diagram--existing_path" d="M52.75,31.88c6.5,1.62,25.06,15.5,36.57,19.47c2.21,0.77,3.62,0.89,5.44,0.97" id="Ske2mqwor32" kvg:type="㇏" transform="matrix(1,0,0,1,996,-4)" xmlns:kvg="http://kanjivg.tagaini.net"></path><path class="stroke_order_diagram--existing_path" d="M46.03,63.83c1.21,0.4,2.59,0.52,3.98,0.4c7.1-0.65,27.72-2.9,38.46-3.66c1.38-0.1,2.25,0.07,3.64,0.35" id="Ske2mqwor33" kvg:type="㇐" transform="matrix(1,0,0,1,996,-4)" xmlns:kvg="http://kanjivg.tagaini.net"></path><path class="stroke_order_diagram--existing_path" d="M66.84,49.25c0.66,1,1.27,2.25,1.27,2.84c0,5.93,0,42.38-0.14,45.91" id="Ske2mqwor34" kvg:type="㇑" transform="matrix(1,0,0,1,996,-4)" xmlns:kvg="http://kanjivg.tagaini.net"></path><path class="stroke_order_diagram--existing_path" d="M67.62,63.58c-3.53,7.49-13,18.94-20.35,23.17" id="Ske2mqwor35" kvg:type="㇒" transform="matrix(1,0,0,1,996,-4)" xmlns:kvg="http://kanjivg.tagaini.net"></path><path class="stroke_order_diagram--current_path" d="M68.67,64.93C73.75,71.25,87,83.75,92.1,87.09c1.38,0.91,2.36,1.51,3.63,1.81" id="kvg:0689d-s11" kvg:type="㇏" transform="matrix(1,0,0,1,996,-4)" xmlns:kvg="http://kanjivg.tagaini.net"></path><path class="stroke_order_diagram--current_path" d="M68.67,64.93C73.75,71.25,87,83.75,92.1,87.09c1.38,0.91,2.36,1.51,3.63,1.81" id="Ske2mqwor37" kvg:type="㇏" transform="matrix(1,0,0,1,996,-4)" xmlns:kvg="http://kanjivg.tagaini.net"></path><circle class="stroke_order_diagram--path_start" cx="68.67" cy="64.93" r="4" transform="matrix(1,0,0,1,996,-4)"></circle></svg>