<svg class="stroke_order_diagram--svg_container_for_5186629bd5dda79658000b02" style="height: 100px; width: 1100px;" viewbox="0 0 1100 100"><desc>Created with Snap</desc><defs></defs><line class="stroke_order_diagram--bounding_box" x1="1" x2="1099" y1="1" y2="1"></line><line class="stroke_order_diagram--bounding_box" x1="1" x2="1" y1="1" y2="99"></line><line class="stroke_order_diagram--bounding_box" x1="1" x2="1099" y1="99" y2="99"></line><line class="stroke_order_diagram--guide_line" x1="0" x2="1100" y1="50" y2="50"></line><line class="stroke_order_diagram--guide_line" x1="50" x2="50" y1="1" y2="99"></line><line class="stroke_order_diagram--bounding_box" x1="99" x2="99" y1="1" y2="99"></line><path class="stroke_order_diagram--current_path" d="M44.1,10.36c-0.22,0.89-0.61,1.46-1.65,2.35c-2.78,2.37-8.97,5.61-18.3,8.04" id="kvg:068a8-s1" kvg:type="㇒" transform="matrix(1,0,0,1,-4,-4)" xmlns:kvg="http://kanjivg.tagaini.net"></path><path class="stroke_order_diagram--current_path" d="M44.1,10.36c-0.22,0.89-0.61,1.46-1.65,2.35c-2.78,2.37-8.97,5.61-18.3,8.04" id="Ske2ak74wk" kvg:type="㇒" transform="matrix(1,0,0,1,-4,-4)" xmlns:kvg="http://kanjivg.tagaini.net"></path><circle class="stroke_order_diagram--path_start" cx="44.1" cy="10.36" r="4" transform="matrix(1,0,0,1,-4,-4)"></circle><line class="stroke_order_diagram--guide_line" x1="150" x2="150" y1="1" y2="99"></line><line class="stroke_order_diagram--bounding_box" x1="199" x2="199" y1="1" y2="99"></line><path class="stroke_order_diagram--existing_path" d="M44.1,10.36c-0.22,0.89-0.61,1.46-1.65,2.35c-2.78,2.37-8.97,5.61-18.3,8.04" id="Ske2ak74wn" kvg:type="㇒" transform="matrix(1,0,0,1,96,-4)" xmlns:kvg="http://kanjivg.tagaini.net"></path><path class="stroke_order_diagram--current_path" d="M17.37,29.87c1.61,0.61,3.84,0.61,5.54,0.42c5.98-0.67,18.62-2.53,25.37-3.38c1.38-0.17,3.06-0.36,4.44-0.05" id="kvg:068a8-s2" kvg:type="㇐" transform="matrix(1,0,0,1,96,-4)" xmlns:kvg="http://kanjivg.tagaini.net"></path><path class="stroke_order_diagram--current_path" d="M17.37,29.87c1.61,0.61,3.84,0.61,5.54,0.42c5.98-0.67,18.62-2.53,25.37-3.38c1.38-0.17,3.06-0.36,4.44-0.05" id="Ske2ak74wp" kvg:type="㇐" transform="matrix(1,0,0,1,96,-4)" xmlns:kvg="http://kanjivg.tagaini.net"></path><circle class="stroke_order_diagram--path_start" cx="17.37" cy="29.87" r="4" transform="matrix(1,0,0,1,96,-4)"></circle><line class="stroke_order_diagram--guide_line" x1="250" x2="250" y1="1" y2="99"></line><line class="stroke_order_diagram--bounding_box" x1="299" x2="299" y1="1" y2="99"></line><path class="stroke_order_diagram--existing_path" d="M44.1,10.36c-0.22,0.89-0.61,1.46-1.65,2.35c-2.78,2.37-8.97,5.61-18.3,8.04" id="Ske2ak74ws" kvg:type="㇒" transform="matrix(1,0,0,1,196,-4)" xmlns:kvg="http://kanjivg.tagaini.net"></path><path class="stroke_order_diagram--existing_path" d="M17.37,29.87c1.61,0.61,3.84,0.61,5.54,0.42c5.98-0.67,18.62-2.53,25.37-3.38c1.38-0.17,3.06-0.36,4.44-0.05" id="Ske2ak74wt" kvg:type="㇐" transform="matrix(1,0,0,1,196,-4)" xmlns:kvg="http://kanjivg.tagaini.net"></path><path class="stroke_order_diagram--current_path" d="M38.66,18.85c0.87,0.87,1.09,1.9,1.09,3.41c0,2.48,0.06,18.29,0.09,27.86c0.01,3.05,0.02,5.47,0.02,6.62" id="kvg:068a8-s3" kvg:type="㇑" transform="matrix(1,0,0,1,196,-4)" xmlns:kvg="http://kanjivg.tagaini.net"></path><path class="stroke_order_diagram--current_path" d="M38.66,18.85c0.87,0.87,1.09,1.9,1.09,3.41c0,2.48,0.06,18.29,0.09,27.86c0.01,3.05,0.02,5.47,0.02,6.62" id="Ske2ak74wv" kvg:type="㇑" transform="matrix(1,0,0,1,196,-4)" xmlns:kvg="http://kanjivg.tagaini.net"></path><circle class="stroke_order_diagram--path_start" cx="38.66" cy="18.85" r="4" transform="matrix(1,0,0,1,196,-4)"></circle><line class="stroke_order_diagram--guide_line" x1="350" x2="350" y1="1" y2="99"></line><line class="stroke_order_diagram--bounding_box" x1="399" x2="399" y1="1" y2="99"></line><path class="stroke_order_diagram--existing_path" d="M44.1,10.36c-0.22,0.89-0.61,1.46-1.65,2.35c-2.78,2.37-8.97,5.61-18.3,8.04" id="Ske2ak74wy" kvg:type="㇒" transform="matrix(1,0,0,1,296,-4)" xmlns:kvg="http://kanjivg.tagaini.net"></path><path class="stroke_order_diagram--existing_path" d="M17.37,29.87c1.61,0.61,3.84,0.61,5.54,0.42c5.98-0.67,18.62-2.53,25.37-3.38c1.38-0.17,3.06-0.36,4.44-0.05" id="Ske2ak74wz" kvg:type="㇐" transform="matrix(1,0,0,1,296,-4)" xmlns:kvg="http://kanjivg.tagaini.net"></path><path class="stroke_order_diagram--existing_path" d="M38.66,18.85c0.87,0.87,1.09,1.9,1.09,3.41c0,2.48,0.06,18.29,0.09,27.86c0.01,3.05,0.02,5.47,0.02,6.62" id="Ske2ak74w10" kvg:type="㇑" transform="matrix(1,0,0,1,296,-4)" xmlns:kvg="http://kanjivg.tagaini.net"></path><path class="stroke_order_diagram--current_path" d="M38.29,29.43c0,1.19-0.84,2.25-1.6,3.55c-4.3,7.31-10.6,15.42-18.72,21.08" id="kvg:068a8-s4" kvg:type="㇒" transform="matrix(1,0,0,1,296,-4)" xmlns:kvg="http://kanjivg.tagaini.net"></path><path class="stroke_order_diagram--current_path" d="M38.29,29.43c0,1.19-0.84,2.25-1.6,3.55c-4.3,7.31-10.6,15.42-18.72,21.08" id="Ske2ak74w12" kvg:type="㇒" transform="matrix(1,0,0,1,296,-4)" xmlns:kvg="http://kanjivg.tagaini.net"></path><circle class="stroke_order_diagram--path_start" cx="38.29" cy="29.43" r="4" transform="matrix(1,0,0,1,296,-4)"></circle><line class="stroke_order_diagram--guide_line" x1="450" x2="450" y1="1" y2="99"></line><line class="stroke_order_diagram--bounding_box" x1="499" x2="499" y1="1" y2="99"></line><path class="stroke_order_diagram--existing_path" d="M44.1,10.36c-0.22,0.89-0.61,1.46-1.65,2.35c-2.78,2.37-8.97,5.61-18.3,8.04" id="Ske2ak74w15" kvg:type="㇒" transform="matrix(1,0,0,1,396,-4)" xmlns:kvg="http://kanjivg.tagaini.net"></path><path class="stroke_order_diagram--existing_path" d="M17.37,29.87c1.61,0.61,3.84,0.61,5.54,0.42c5.98-0.67,18.62-2.53,25.37-3.38c1.38-0.17,3.06-0.36,4.44-0.05" id="Ske2ak74w16" kvg:type="㇐" transform="matrix(1,0,0,1,396,-4)" xmlns:kvg="http://kanjivg.tagaini.net"></path><path class="stroke_order_diagram--existing_path" d="M38.66,18.85c0.87,0.87,1.09,1.9,1.09,3.41c0,2.48,0.06,18.29,0.09,27.86c0.01,3.05,0.02,5.47,0.02,6.62" id="Ske2ak74w17" kvg:type="㇑" transform="matrix(1,0,0,1,396,-4)" xmlns:kvg="http://kanjivg.tagaini.net"></path><path class="stroke_order_diagram--existing_path" d="M38.29,29.43c0,1.19-0.84,2.25-1.6,3.55c-4.3,7.31-10.6,15.42-18.72,21.08" id="Ske2ak74w18" kvg:type="㇒" transform="matrix(1,0,0,1,396,-4)" xmlns:kvg="http://kanjivg.tagaini.net"></path><path class="stroke_order_diagram--current_path" d="M43.62,36.12c3.94,1.8,7.28,5.4,9.41,7.71" id="kvg:068a8-s5" kvg:type="㇏" transform="matrix(1,0,0,1,396,-4)" xmlns:kvg="http://kanjivg.tagaini.net"></path><path class="stroke_order_diagram--current_path" d="M43.62,36.12c3.94,1.8,7.28,5.4,9.41,7.71" id="Ske2ak74w1a" kvg:type="㇏" transform="matrix(1,0,0,1,396,-4)" xmlns:kvg="http://kanjivg.tagaini.net"></path><circle class="stroke_order_diagram--path_start" cx="43.62" cy="36.12" r="4" transform="matrix(1,0,0,1,396,-4)"></circle><line class="stroke_order_diagram--guide_line" x1="550" x2="550" y1="1" y2="99"></line><line class="stroke_order_diagram--bounding_box" x1="599" x2="599" y1="1" y2="99"></line><path class="stroke_order_diagram--existing_path" d="M44.1,10.36c-0.22,0.89-0.61,1.46-1.65,2.35c-2.78,2.37-8.97,5.61-18.3,8.04" id="Ske2ak74w1d" kvg:type="㇒" transform="matrix(1,0,0,1,496,-4)" xmlns:kvg="http://kanjivg.tagaini.net"></path><path class="stroke_order_diagram--existing_path" d="M17.37,29.87c1.61,0.61,3.84,0.61,5.54,0.42c5.98-0.67,18.62-2.53,25.37-3.38c1.38-0.17,3.06-0.36,4.44-0.05" id="Ske2ak74w1e" kvg:type="㇐" transform="matrix(1,0,0,1,496,-4)" xmlns:kvg="http://kanjivg.tagaini.net"></path><path class="stroke_order_diagram--existing_path" d="M38.66,18.85c0.87,0.87,1.09,1.9,1.09,3.41c0,2.48,0.06,18.29,0.09,27.86c0.01,3.05,0.02,5.47,0.02,6.62" id="Ske2ak74w1f" kvg:type="㇑" transform="matrix(1,0,0,1,496,-4)" xmlns:kvg="http://kanjivg.tagaini.net"></path><path class="stroke_order_diagram--existing_path" d="M38.29,29.43c0,1.19-0.84,2.25-1.6,3.55c-4.3,7.31-10.6,15.42-18.72,21.08" id="Ske2ak74w1g" kvg:type="㇒" transform="matrix(1,0,0,1,496,-4)" xmlns:kvg="http://kanjivg.tagaini.net"></path><path class="stroke_order_diagram--existing_path" d="M43.62,36.12c3.94,1.8,7.28,5.4,9.41,7.71" id="Ske2ak74w1h" kvg:type="㇏" transform="matrix(1,0,0,1,496,-4)" xmlns:kvg="http://kanjivg.tagaini.net"></path><path class="stroke_order_diagram--current_path" d="M65.91,19.43c0.89,0.89,1.23,2.13,1.23,3.86c0,3.58-0.01,9.86-0.01,14.71c0,2.55-0.01,4.69-0.01,5.85" id="kvg:068a8-s6" kvg:type="㇑" transform="matrix(1,0,0,1,496,-4)" xmlns:kvg="http://kanjivg.tagaini.net"></path><path class="stroke_order_diagram--current_path" d="M65.91,19.43c0.89,0.89,1.23,2.13,1.23,3.86c0,3.58-0.01,9.86-0.01,14.71c0,2.55-0.01,4.69-0.01,5.85" id="Ske2ak74w1j" kvg:type="㇑" transform="matrix(1,0,0,1,496,-4)" xmlns:kvg="http://kanjivg.tagaini.net"></path><circle class="stroke_order_diagram--path_start" cx="65.91" cy="19.43" r="4" transform="matrix(1,0,0,1,496,-4)"></circle><line class="stroke_order_diagram--guide_line" x1="650" x2="650" y1="1" y2="99"></line><line class="stroke_order_diagram--bounding_box" x1="699" x2="699" y1="1" y2="99"></line><path class="stroke_order_diagram--existing_path" d="M44.1,10.36c-0.22,0.89-0.61,1.46-1.65,2.35c-2.78,2.37-8.97,5.61-18.3,8.04" id="Ske2ak74w1m" kvg:type="㇒" transform="matrix(1,0,0,1,596,-4)" xmlns:kvg="http://kanjivg.tagaini.net"></path><path class="stroke_order_diagram--existing_path" d="M17.37,29.87c1.61,0.61,3.84,0.61,5.54,0.42c5.98-0.67,18.62-2.53,25.37-3.38c1.38-0.17,3.06-0.36,4.44-0.05" id="Ske2ak74w1n" kvg:type="㇐" transform="matrix(1,0,0,1,596,-4)" xmlns:kvg="http://kanjivg.tagaini.net"></path><path class="stroke_order_diagram--existing_path" d="M38.66,18.85c0.87,0.87,1.09,1.9,1.09,3.41c0,2.48,0.06,18.29,0.09,27.86c0.01,3.05,0.02,5.47,0.02,6.62" id="Ske2ak74w1o" kvg:type="㇑" transform="matrix(1,0,0,1,596,-4)" xmlns:kvg="http://kanjivg.tagaini.net"></path><path class="stroke_order_diagram--existing_path" d="M38.29,29.43c0,1.19-0.84,2.25-1.6,3.55c-4.3,7.31-10.6,15.42-18.72,21.08" id="Ske2ak74w1p" kvg:type="㇒" transform="matrix(1,0,0,1,596,-4)" xmlns:kvg="http://kanjivg.tagaini.net"></path><path class="stroke_order_diagram--existing_path" d="M43.62,36.12c3.94,1.8,7.28,5.4,9.41,7.71" id="Ske2ak74w1q" kvg:type="㇏" transform="matrix(1,0,0,1,596,-4)" xmlns:kvg="http://kanjivg.tagaini.net"></path><path class="stroke_order_diagram--existing_path" d="M65.91,19.43c0.89,0.89,1.23,2.13,1.23,3.86c0,3.58-0.01,9.86-0.01,14.71c0,2.55-0.01,4.69-0.01,5.85" id="Ske2ak74w1r" kvg:type="㇑" transform="matrix(1,0,0,1,596,-4)" xmlns:kvg="http://kanjivg.tagaini.net"></path><path class="stroke_order_diagram--current_path" d="M83.06,10.58c0.99,0.99,1.23,2.04,1.23,3.61c0,8.31-0.02,31.85,0.03,34.67c0.17,8.38-5.41,0.86-6.67,0.14" id="kvg:068a8-s7" kvg:type="㇚" transform="matrix(1,0,0,1,596,-4)" xmlns:kvg="http://kanjivg.tagaini.net"></path><path class="stroke_order_diagram--current_path" d="M83.06,10.58c0.99,0.99,1.23,2.04,1.23,3.61c0,8.31-0.02,31.85,0.03,34.67c0.17,8.38-5.41,0.86-6.67,0.14" id="Ske2ak74w1t" kvg:type="㇚" transform="matrix(1,0,0,1,596,-4)" xmlns:kvg="http://kanjivg.tagaini.net"></path><circle class="stroke_order_diagram--path_start" cx="83.06" cy="10.58" r="4" transform="matrix(1,0,0,1,596,-4)"></circle><line class="stroke_order_diagram--guide_line" x1="750" x2="750" y1="1" y2="99"></line><line class="stroke_order_diagram--bounding_box" x1="799" x2="799" y1="1" y2="99"></line><path class="stroke_order_diagram--existing_path" d="M44.1,10.36c-0.22,0.89-0.61,1.46-1.65,2.35c-2.78,2.37-8.97,5.61-18.3,8.04" id="Ske2ak74w1w" kvg:type="㇒" transform="matrix(1,0,0,1,696,-4)" xmlns:kvg="http://kanjivg.tagaini.net"></path><path class="stroke_order_diagram--existing_path" d="M17.37,29.87c1.61,0.61,3.84,0.61,5.54,0.42c5.98-0.67,18.62-2.53,25.37-3.38c1.38-0.17,3.06-0.36,4.44-0.05" id="Ske2ak74w1x" kvg:type="㇐" transform="matrix(1,0,0,1,696,-4)" xmlns:kvg="http://kanjivg.tagaini.net"></path><path class="stroke_order_diagram--existing_path" d="M38.66,18.85c0.87,0.87,1.09,1.9,1.09,3.41c0,2.48,0.06,18.29,0.09,27.86c0.01,3.05,0.02,5.47,0.02,6.62" id="Ske2ak74w1y" kvg:type="㇑" transform="matrix(1,0,0,1,696,-4)" xmlns:kvg="http://kanjivg.tagaini.net"></path><path class="stroke_order_diagram--existing_path" d="M38.29,29.43c0,1.19-0.84,2.25-1.6,3.55c-4.3,7.31-10.6,15.42-18.72,21.08" id="Ske2ak74w1z" kvg:type="㇒" transform="matrix(1,0,0,1,696,-4)" xmlns:kvg="http://kanjivg.tagaini.net"></path><path class="stroke_order_diagram--existing_path" d="M43.62,36.12c3.94,1.8,7.28,5.4,9.41,7.71" id="Ske2ak74w20" kvg:type="㇏" transform="matrix(1,0,0,1,696,-4)" xmlns:kvg="http://kanjivg.tagaini.net"></path><path class="stroke_order_diagram--existing_path" d="M65.91,19.43c0.89,0.89,1.23,2.13,1.23,3.86c0,3.58-0.01,9.86-0.01,14.71c0,2.55-0.01,4.69-0.01,5.85" id="Ske2ak74w21" kvg:type="㇑" transform="matrix(1,0,0,1,696,-4)" xmlns:kvg="http://kanjivg.tagaini.net"></path><path class="stroke_order_diagram--existing_path" d="M83.06,10.58c0.99,0.99,1.23,2.04,1.23,3.61c0,8.31-0.02,31.85,0.03,34.67c0.17,8.38-5.41,0.86-6.67,0.14" id="Ske2ak74w22" kvg:type="㇚" transform="matrix(1,0,0,1,696,-4)" xmlns:kvg="http://kanjivg.tagaini.net"></path><path class="stroke_order_diagram--current_path" d="M18,67.92c3.2,1.02,6.49,0.56,9.75,0.24c11.81-1.13,35.27-3.55,50.49-4.76c3.42-0.27,6.61-0.24,10.01,0.43" id="kvg:068a8-s8" kvg:type="㇐" transform="matrix(1,0,0,1,696,-4)" xmlns:kvg="http://kanjivg.tagaini.net"></path><path class="stroke_order_diagram--current_path" d="M18,67.92c3.2,1.02,6.49,0.56,9.75,0.24c11.81-1.13,35.27-3.55,50.49-4.76c3.42-0.27,6.61-0.24,10.01,0.43" id="Ske2ak74w24" kvg:type="㇐" transform="matrix(1,0,0,1,696,-4)" xmlns:kvg="http://kanjivg.tagaini.net"></path><circle class="stroke_order_diagram--path_start" cx="18" cy="67.92" r="4" transform="matrix(1,0,0,1,696,-4)"></circle><line class="stroke_order_diagram--guide_line" x1="850" x2="850" y1="1" y2="99"></line><line class="stroke_order_diagram--bounding_box" x1="899" x2="899" y1="1" y2="99"></line><path class="stroke_order_diagram--existing_path" d="M44.1,10.36c-0.22,0.89-0.61,1.46-1.65,2.35c-2.78,2.37-8.97,5.61-18.3,8.04" id="Ske2ak74w27" kvg:type="㇒" transform="matrix(1,0,0,1,796,-4)" xmlns:kvg="http://kanjivg.tagaini.net"></path><path class="stroke_order_diagram--existing_path" d="M17.37,29.87c1.61,0.61,3.84,0.61,5.54,0.42c5.98-0.67,18.62-2.53,25.37-3.38c1.38-0.17,3.06-0.36,4.44-0.05" id="Ske2ak74w28" kvg:type="㇐" transform="matrix(1,0,0,1,796,-4)" xmlns:kvg="http://kanjivg.tagaini.net"></path><path class="stroke_order_diagram--existing_path" d="M38.66,18.85c0.87,0.87,1.09,1.9,1.09,3.41c0,2.48,0.06,18.29,0.09,27.86c0.01,3.05,0.02,5.47,0.02,6.62" id="Ske2ak74w29" kvg:type="㇑" transform="matrix(1,0,0,1,796,-4)" xmlns:kvg="http://kanjivg.tagaini.net"></path><path class="stroke_order_diagram--existing_path" d="M38.29,29.43c0,1.19-0.84,2.25-1.6,3.55c-4.3,7.31-10.6,15.42-18.72,21.08" id="Ske2ak74w2a" kvg:type="㇒" transform="matrix(1,0,0,1,796,-4)" xmlns:kvg="http://kanjivg.tagaini.net"></path><path class="stroke_order_diagram--existing_path" d="M43.62,36.12c3.94,1.8,7.28,5.4,9.41,7.71" id="Ske2ak74w2b" kvg:type="㇏" transform="matrix(1,0,0,1,796,-4)" xmlns:kvg="http://kanjivg.tagaini.net"></path><path class="stroke_order_diagram--existing_path" d="M65.91,19.43c0.89,0.89,1.23,2.13,1.23,3.86c0,3.58-0.01,9.86-0.01,14.71c0,2.55-0.01,4.69-0.01,5.85" id="Ske2ak74w2c" kvg:type="㇑" transform="matrix(1,0,0,1,796,-4)" xmlns:kvg="http://kanjivg.tagaini.net"></path><path class="stroke_order_diagram--existing_path" d="M83.06,10.58c0.99,0.99,1.23,2.04,1.23,3.61c0,8.31-0.02,31.85,0.03,34.67c0.17,8.38-5.41,0.86-6.67,0.14" id="Ske2ak74w2d" kvg:type="㇚" transform="matrix(1,0,0,1,796,-4)" xmlns:kvg="http://kanjivg.tagaini.net"></path><path class="stroke_order_diagram--existing_path" d="M18,67.92c3.2,1.02,6.49,0.56,9.75,0.24c11.81-1.13,35.27-3.55,50.49-4.76c3.42-0.27,6.61-0.24,10.01,0.43" id="Ske2ak74w2e" kvg:type="㇐" transform="matrix(1,0,0,1,796,-4)" xmlns:kvg="http://kanjivg.tagaini.net"></path><path class="stroke_order_diagram--current_path" d="M52.5,53.5c1.31,1.31,1.75,2.75,1.75,4.75c0,8.27,0,23.29,0,33.75c0,2.82,0,5.31,0,7.25" id="kvg:068a8-s9" kvg:type="㇑" transform="matrix(1,0,0,1,796,-4)" xmlns:kvg="http://kanjivg.tagaini.net"></path><path class="stroke_order_diagram--current_path" d="M52.5,53.5c1.31,1.31,1.75,2.75,1.75,4.75c0,8.27,0,23.29,0,33.75c0,2.82,0,5.31,0,7.25" id="Ske2ak74w2g" kvg:type="㇑" transform="matrix(1,0,0,1,796,-4)" xmlns:kvg="http://kanjivg.tagaini.net"></path><circle class="stroke_order_diagram--path_start" cx="52.5" cy="53.5" r="4" transform="matrix(1,0,0,1,796,-4)"></circle><line class="stroke_order_diagram--guide_line" x1="950" x2="950" y1="1" y2="99"></line><line class="stroke_order_diagram--bounding_box" x1="999" x2="999" y1="1" y2="99"></line><path class="stroke_order_diagram--existing_path" d="M44.1,10.36c-0.22,0.89-0.61,1.46-1.65,2.35c-2.78,2.37-8.97,5.61-18.3,8.04" id="Ske2ak74w2j" kvg:type="㇒" transform="matrix(1,0,0,1,896,-4)" xmlns:kvg="http://kanjivg.tagaini.net"></path><path class="stroke_order_diagram--existing_path" d="M17.37,29.87c1.61,0.61,3.84,0.61,5.54,0.42c5.98-0.67,18.62-2.53,25.37-3.38c1.38-0.17,3.06-0.36,4.44-0.05" id="Ske2ak74w2k" kvg:type="㇐" transform="matrix(1,0,0,1,896,-4)" xmlns:kvg="http://kanjivg.tagaini.net"></path><path class="stroke_order_diagram--existing_path" d="M38.66,18.85c0.87,0.87,1.09,1.9,1.09,3.41c0,2.48,0.06,18.29,0.09,27.86c0.01,3.05,0.02,5.47,0.02,6.62" id="Ske2ak74w2l" kvg:type="㇑" transform="matrix(1,0,0,1,896,-4)" xmlns:kvg="http://kanjivg.tagaini.net"></path><path class="stroke_order_diagram--existing_path" d="M38.29,29.43c0,1.19-0.84,2.25-1.6,3.55c-4.3,7.31-10.6,15.42-18.72,21.08" id="Ske2ak74w2m" kvg:type="㇒" transform="matrix(1,0,0,1,896,-4)" xmlns:kvg="http://kanjivg.tagaini.net"></path><path class="stroke_order_diagram--existing_path" d="M43.62,36.12c3.94,1.8,7.28,5.4,9.41,7.71" id="Ske2ak74w2n" kvg:type="㇏" transform="matrix(1,0,0,1,896,-4)" xmlns:kvg="http://kanjivg.tagaini.net"></path><path class="stroke_order_diagram--existing_path" d="M65.91,19.43c0.89,0.89,1.23,2.13,1.23,3.86c0,3.58-0.01,9.86-0.01,14.71c0,2.55-0.01,4.69-0.01,5.85" id="Ske2ak74w2o" kvg:type="㇑" transform="matrix(1,0,0,1,896,-4)" xmlns:kvg="http://kanjivg.tagaini.net"></path><path class="stroke_order_diagram--existing_path" d="M83.06,10.58c0.99,0.99,1.23,2.04,1.23,3.61c0,8.31-0.02,31.85,0.03,34.67c0.17,8.38-5.41,0.86-6.67,0.14" id="Ske2ak74w2p" kvg:type="㇚" transform="matrix(1,0,0,1,896,-4)" xmlns:kvg="http://kanjivg.tagaini.net"></path><path class="stroke_order_diagram--existing_path" d="M18,67.92c3.2,1.02,6.49,0.56,9.75,0.24c11.81-1.13,35.27-3.55,50.49-4.76c3.42-0.27,6.61-0.24,10.01,0.43" id="Ske2ak74w2q" kvg:type="㇐" transform="matrix(1,0,0,1,896,-4)" xmlns:kvg="http://kanjivg.tagaini.net"></path><path class="stroke_order_diagram--existing_path" d="M52.5,53.5c1.31,1.31,1.75,2.75,1.75,4.75c0,8.27,0,23.29,0,33.75c0,2.82,0,5.31,0,7.25" id="Ske2ak74w2r" kvg:type="㇑" transform="matrix(1,0,0,1,896,-4)" xmlns:kvg="http://kanjivg.tagaini.net"></path><path class="stroke_order_diagram--current_path" d="M49.75,66.75c0,1.12-0.57,2.02-1.33,3.16c-5.95,8.89-16.21,17.71-32.17,23.59" id="kvg:068a8-s10" kvg:type="㇒" transform="matrix(1,0,0,1,896,-4)" xmlns:kvg="http://kanjivg.tagaini.net"></path><path class="stroke_order_diagram--current_path" d="M49.75,66.75c0,1.12-0.57,2.02-1.33,3.16c-5.95,8.89-16.21,17.71-32.17,23.59" id="Ske2ak74w2t" kvg:type="㇒" transform="matrix(1,0,0,1,896,-4)" xmlns:kvg="http://kanjivg.tagaini.net"></path><circle class="stroke_order_diagram--path_start" cx="49.75" cy="66.75" r="4" transform="matrix(1,0,0,1,896,-4)"></circle><line class="stroke_order_diagram--guide_line" x1="1050" x2="1050" y1="1" y2="99"></line><line class="stroke_order_diagram--bounding_box" x1="1099" x2="1099" y1="1" y2="99"></line><path class="stroke_order_diagram--existing_path" d="M44.1,10.36c-0.22,0.89-0.61,1.46-1.65,2.35c-2.78,2.37-8.97,5.61-18.3,8.04" id="Ske2ak74w2w" kvg:type="㇒" transform="matrix(1,0,0,1,996,-4)" xmlns:kvg="http://kanjivg.tagaini.net"></path><path class="stroke_order_diagram--existing_path" d="M17.37,29.87c1.61,0.61,3.84,0.61,5.54,0.42c5.98-0.67,18.62-2.53,25.37-3.38c1.38-0.17,3.06-0.36,4.44-0.05" id="Ske2ak74w2x" kvg:type="㇐" transform="matrix(1,0,0,1,996,-4)" xmlns:kvg="http://kanjivg.tagaini.net"></path><path class="stroke_order_diagram--existing_path" d="M38.66,18.85c0.87,0.87,1.09,1.9,1.09,3.41c0,2.48,0.06,18.29,0.09,27.86c0.01,3.05,0.02,5.47,0.02,6.62" id="Ske2ak74w2y" kvg:type="㇑" transform="matrix(1,0,0,1,996,-4)" xmlns:kvg="http://kanjivg.tagaini.net"></path><path class="stroke_order_diagram--existing_path" d="M38.29,29.43c0,1.19-0.84,2.25-1.6,3.55c-4.3,7.31-10.6,15.42-18.72,21.08" id="Ske2ak74w2z" kvg:type="㇒" transform="matrix(1,0,0,1,996,-4)" xmlns:kvg="http://kanjivg.tagaini.net"></path><path class="stroke_order_diagram--existing_path" d="M43.62,36.12c3.94,1.8,7.28,5.4,9.41,7.71" id="Ske2ak74w30" kvg:type="㇏" transform="matrix(1,0,0,1,996,-4)" xmlns:kvg="http://kanjivg.tagaini.net"></path><path class="stroke_order_diagram--existing_path" d="M65.91,19.43c0.89,0.89,1.23,2.13,1.23,3.86c0,3.58-0.01,9.86-0.01,14.71c0,2.55-0.01,4.69-0.01,5.85" id="Ske2ak74w31" kvg:type="㇑" transform="matrix(1,0,0,1,996,-4)" xmlns:kvg="http://kanjivg.tagaini.net"></path><path class="stroke_order_diagram--existing_path" d="M83.06,10.58c0.99,0.99,1.23,2.04,1.23,3.61c0,8.31-0.02,31.85,0.03,34.67c0.17,8.38-5.41,0.86-6.67,0.14" id="Ske2ak74w32" kvg:type="㇚" transform="matrix(1,0,0,1,996,-4)" xmlns:kvg="http://kanjivg.tagaini.net"></path><path class="stroke_order_diagram--existing_path" d="M18,67.92c3.2,1.02,6.49,0.56,9.75,0.24c11.81-1.13,35.27-3.55,50.49-4.76c3.42-0.27,6.61-0.24,10.01,0.43" id="Ske2ak74w33" kvg:type="㇐" transform="matrix(1,0,0,1,996,-4)" xmlns:kvg="http://kanjivg.tagaini.net"></path><path class="stroke_order_diagram--existing_path" d="M52.5,53.5c1.31,1.31,1.75,2.75,1.75,4.75c0,8.27,0,23.29,0,33.75c0,2.82,0,5.31,0,7.25" id="Ske2ak74w34" kvg:type="㇑" transform="matrix(1,0,0,1,996,-4)" xmlns:kvg="http://kanjivg.tagaini.net"></path><path class="stroke_order_diagram--existing_path" d="M49.75,66.75c0,1.12-0.57,2.02-1.33,3.16c-5.95,8.89-16.21,17.71-32.17,23.59" id="Ske2ak74w35" kvg:type="㇒" transform="matrix(1,0,0,1,996,-4)" xmlns:kvg="http://kanjivg.tagaini.net"></path><path class="stroke_order_diagram--current_path" d="M55.25,66.75c3.79,2.48,18.18,13.29,26.53,18.83c2.71,1.8,6.33,3.83,9.47,4.67" id="kvg:068a8-s11" kvg:type="㇏" transform="matrix(1,0,0,1,996,-4)" xmlns:kvg="http://kanjivg.tagaini.net"></path><path class="stroke_order_diagram--current_path" d="M55.25,66.75c3.79,2.48,18.18,13.29,26.53,18.83c2.71,1.8,6.33,3.83,9.47,4.67" id="Ske2ak74w37" kvg:type="㇏" transform="matrix(1,0,0,1,996,-4)" xmlns:kvg="http://kanjivg.tagaini.net"></path><circle class="stroke_order_diagram--path_start" cx="55.25" cy="66.75" r="4" transform="matrix(1,0,0,1,996,-4)"></circle></svg>