<svg class="stroke_order_diagram--svg_container_for_518662c7d5dda796580018cf" style="height: 100px; width: 1400px;" viewbox="0 0 1400 100"><desc>Created with Snap</desc><defs></defs><line class="stroke_order_diagram--bounding_box" x1="1" x2="1399" y1="1" y2="1"></line><line class="stroke_order_diagram--bounding_box" x1="1" x2="1" y1="1" y2="99"></line><line class="stroke_order_diagram--bounding_box" x1="1" x2="1399" y1="99" y2="99"></line><line class="stroke_order_diagram--guide_line" x1="0" x2="1400" y1="50" y2="50"></line><line class="stroke_order_diagram--guide_line" x1="50" x2="50" y1="1" y2="99"></line><line class="stroke_order_diagram--bounding_box" x1="99" x2="99" y1="1" y2="99"></line><path class="stroke_order_diagram--current_path" d="M10.03,38.22c0.36,0.24,2.52,0.41,3.49,0.31c4.16-0.41,19.68-2.71,26.37-3.91c0.97-0.17,2.27-0.24,2.88,0" id="kvg:069c7-s1" kvg:type="㇐" transform="matrix(1,0,0,1,-4,-4)" xmlns:kvg="http://kanjivg.tagaini.net"></path><path class="stroke_order_diagram--current_path" d="M10.03,38.22c0.36,0.24,2.52,0.41,3.49,0.31c4.16-0.41,19.68-2.71,26.37-3.91c0.97-0.17,2.27-0.24,2.88,0" id="Ske36bbccn" kvg:type="㇐" transform="matrix(1,0,0,1,-4,-4)" xmlns:kvg="http://kanjivg.tagaini.net"></path><circle class="stroke_order_diagram--path_start" cx="10.03" cy="38.22" r="4" transform="matrix(1,0,0,1,-4,-4)"></circle><line class="stroke_order_diagram--guide_line" x1="150" x2="150" y1="1" y2="99"></line><line class="stroke_order_diagram--bounding_box" x1="199" x2="199" y1="1" y2="99"></line><path class="stroke_order_diagram--existing_path" d="M10.03,38.22c0.36,0.24,2.52,0.41,3.49,0.31c4.16-0.41,19.68-2.71,26.37-3.91c0.97-0.17,2.27-0.24,2.88,0" id="Ske36bbccq" kvg:type="㇐" transform="matrix(1,0,0,1,96,-4)" xmlns:kvg="http://kanjivg.tagaini.net"></path><path class="stroke_order_diagram--current_path" d="M27.86,14.5c0.91,0.47,2.54,2.5,2.54,4.42c0,0.95-0.12,71.75-0.3,77.58" id="kvg:069c7-s2" kvg:type="㇑" transform="matrix(1,0,0,1,96,-4)" xmlns:kvg="http://kanjivg.tagaini.net"></path><path class="stroke_order_diagram--current_path" d="M27.86,14.5c0.91,0.47,2.54,2.5,2.54,4.42c0,0.95-0.12,71.75-0.3,77.58" id="Ske36bbccs" kvg:type="㇑" transform="matrix(1,0,0,1,96,-4)" xmlns:kvg="http://kanjivg.tagaini.net"></path><circle class="stroke_order_diagram--path_start" cx="27.86" cy="14.5" r="4" transform="matrix(1,0,0,1,96,-4)"></circle><line class="stroke_order_diagram--guide_line" x1="250" x2="250" y1="1" y2="99"></line><line class="stroke_order_diagram--bounding_box" x1="299" x2="299" y1="1" y2="99"></line><path class="stroke_order_diagram--existing_path" d="M10.03,38.22c0.36,0.24,2.52,0.41,3.49,0.31c4.16-0.41,19.68-2.71,26.37-3.91c0.97-0.17,2.27-0.24,2.88,0" id="Ske36bbccv" kvg:type="㇐" transform="matrix(1,0,0,1,196,-4)" xmlns:kvg="http://kanjivg.tagaini.net"></path><path class="stroke_order_diagram--existing_path" d="M27.86,14.5c0.91,0.47,2.54,2.5,2.54,4.42c0,0.95-0.12,71.75-0.3,77.58" id="Ske36bbccw" kvg:type="㇑" transform="matrix(1,0,0,1,196,-4)" xmlns:kvg="http://kanjivg.tagaini.net"></path><path class="stroke_order_diagram--current_path" d="M29.94,40.28c-5.66,13.41-8.81,19.07-17.58,30.81" id="kvg:069c7-s3" kvg:type="㇒" transform="matrix(1,0,0,1,196,-4)" xmlns:kvg="http://kanjivg.tagaini.net"></path><path class="stroke_order_diagram--current_path" d="M29.94,40.28c-5.66,13.41-8.81,19.07-17.58,30.81" id="Ske36bbccy" kvg:type="㇒" transform="matrix(1,0,0,1,196,-4)" xmlns:kvg="http://kanjivg.tagaini.net"></path><circle class="stroke_order_diagram--path_start" cx="29.94" cy="40.28" r="4" transform="matrix(1,0,0,1,196,-4)"></circle><line class="stroke_order_diagram--guide_line" x1="350" x2="350" y1="1" y2="99"></line><line class="stroke_order_diagram--bounding_box" x1="399" x2="399" y1="1" y2="99"></line><path class="stroke_order_diagram--existing_path" d="M10.03,38.22c0.36,0.24,2.52,0.41,3.49,0.31c4.16-0.41,19.68-2.71,26.37-3.91c0.97-0.17,2.27-0.24,2.88,0" id="Ske36bbcc11" kvg:type="㇐" transform="matrix(1,0,0,1,296,-4)" xmlns:kvg="http://kanjivg.tagaini.net"></path><path class="stroke_order_diagram--existing_path" d="M27.86,14.5c0.91,0.47,2.54,2.5,2.54,4.42c0,0.95-0.12,71.75-0.3,77.58" id="Ske36bbcc12" kvg:type="㇑" transform="matrix(1,0,0,1,296,-4)" xmlns:kvg="http://kanjivg.tagaini.net"></path><path class="stroke_order_diagram--existing_path" d="M29.94,40.28c-5.66,13.41-8.81,19.07-17.58,30.81" id="Ske36bbcc13" kvg:type="㇒" transform="matrix(1,0,0,1,296,-4)" xmlns:kvg="http://kanjivg.tagaini.net"></path><path class="stroke_order_diagram--current_path" d="M32.47,44.9c2.37,1.59,6.28,5.76,8.28,8.85" id="kvg:069c7-s4" kvg:type="㇔/㇏" transform="matrix(1,0,0,1,296,-4)" xmlns:kvg="http://kanjivg.tagaini.net"></path><path class="stroke_order_diagram--current_path" d="M32.47,44.9c2.37,1.59,6.28,5.76,8.28,8.85" id="Ske36bbcc15" kvg:type="㇔/㇏" transform="matrix(1,0,0,1,296,-4)" xmlns:kvg="http://kanjivg.tagaini.net"></path><circle class="stroke_order_diagram--path_start" cx="32.47" cy="44.9" r="4" transform="matrix(1,0,0,1,296,-4)"></circle><line class="stroke_order_diagram--guide_line" x1="450" x2="450" y1="1" y2="99"></line><line class="stroke_order_diagram--bounding_box" x1="499" x2="499" y1="1" y2="99"></line><path class="stroke_order_diagram--existing_path" d="M10.03,38.22c0.36,0.24,2.52,0.41,3.49,0.31c4.16-0.41,19.68-2.71,26.37-3.91c0.97-0.17,2.27-0.24,2.88,0" id="Ske36bbcc18" kvg:type="㇐" transform="matrix(1,0,0,1,396,-4)" xmlns:kvg="http://kanjivg.tagaini.net"></path><path class="stroke_order_diagram--existing_path" d="M27.86,14.5c0.91,0.47,2.54,2.5,2.54,4.42c0,0.95-0.12,71.75-0.3,77.58" id="Ske36bbcc19" kvg:type="㇑" transform="matrix(1,0,0,1,396,-4)" xmlns:kvg="http://kanjivg.tagaini.net"></path><path class="stroke_order_diagram--existing_path" d="M29.94,40.28c-5.66,13.41-8.81,19.07-17.58,30.81" id="Ske36bbcc1a" kvg:type="㇒" transform="matrix(1,0,0,1,396,-4)" xmlns:kvg="http://kanjivg.tagaini.net"></path><path class="stroke_order_diagram--existing_path" d="M32.47,44.9c2.37,1.59,6.28,5.76,8.28,8.85" id="Ske36bbcc1b" kvg:type="㇔/㇏" transform="matrix(1,0,0,1,396,-4)" xmlns:kvg="http://kanjivg.tagaini.net"></path><path class="stroke_order_diagram--current_path" d="M81.09,13.23c-0.27,0.68-1.03,1.52-1.6,1.82c-3.64,1.91-14.17,6.68-25.94,8.64" id="kvg:069c7-s5" kvg:type="㇒" transform="matrix(1,0,0,1,396,-4)" xmlns:kvg="http://kanjivg.tagaini.net"></path><path class="stroke_order_diagram--current_path" d="M81.09,13.23c-0.27,0.68-1.03,1.52-1.6,1.82c-3.64,1.91-14.17,6.68-25.94,8.64" id="Ske36bbcc1d" kvg:type="㇒" transform="matrix(1,0,0,1,396,-4)" xmlns:kvg="http://kanjivg.tagaini.net"></path><circle class="stroke_order_diagram--path_start" cx="81.09" cy="13.23" r="4" transform="matrix(1,0,0,1,396,-4)"></circle><line class="stroke_order_diagram--guide_line" x1="550" x2="550" y1="1" y2="99"></line><line class="stroke_order_diagram--bounding_box" x1="599" x2="599" y1="1" y2="99"></line><path class="stroke_order_diagram--existing_path" d="M10.03,38.22c0.36,0.24,2.52,0.41,3.49,0.31c4.16-0.41,19.68-2.71,26.37-3.91c0.97-0.17,2.27-0.24,2.88,0" id="Ske36bbcc1g" kvg:type="㇐" transform="matrix(1,0,0,1,496,-4)" xmlns:kvg="http://kanjivg.tagaini.net"></path><path class="stroke_order_diagram--existing_path" d="M27.86,14.5c0.91,0.47,2.54,2.5,2.54,4.42c0,0.95-0.12,71.75-0.3,77.58" id="Ske36bbcc1h" kvg:type="㇑" transform="matrix(1,0,0,1,496,-4)" xmlns:kvg="http://kanjivg.tagaini.net"></path><path class="stroke_order_diagram--existing_path" d="M29.94,40.28c-5.66,13.41-8.81,19.07-17.58,30.81" id="Ske36bbcc1i" kvg:type="㇒" transform="matrix(1,0,0,1,496,-4)" xmlns:kvg="http://kanjivg.tagaini.net"></path><path class="stroke_order_diagram--existing_path" d="M32.47,44.9c2.37,1.59,6.28,5.76,8.28,8.85" id="Ske36bbcc1j" kvg:type="㇔/㇏" transform="matrix(1,0,0,1,496,-4)" xmlns:kvg="http://kanjivg.tagaini.net"></path><path class="stroke_order_diagram--existing_path" d="M81.09,13.23c-0.27,0.68-1.03,1.52-1.6,1.82c-3.64,1.91-14.17,6.68-25.94,8.64" id="Ske36bbcc1k" kvg:type="㇒" transform="matrix(1,0,0,1,496,-4)" xmlns:kvg="http://kanjivg.tagaini.net"></path><path class="stroke_order_diagram--current_path" d="M52.13,13.5c0.76,0.65,0.81,1.09,1.07,1.96c0.25,0.87-0.18,5.79-0.18,8.52c0,7.02,10.18,6.36,18.85,6.36c12.58,0,17.34-1.15,17.34-8.53" id="kvg:069c7-s6" kvg:type="㇟" transform="matrix(1,0,0,1,496,-4)" xmlns:kvg="http://kanjivg.tagaini.net"></path><path class="stroke_order_diagram--current_path" d="M52.13,13.5c0.76,0.65,0.81,1.09,1.07,1.96c0.25,0.87-0.18,5.79-0.18,8.52c0,7.02,10.18,6.36,18.85,6.36c12.58,0,17.34-1.15,17.34-8.53" id="Ske36bbcc1m" kvg:type="㇟" transform="matrix(1,0,0,1,496,-4)" xmlns:kvg="http://kanjivg.tagaini.net"></path><circle class="stroke_order_diagram--path_start" cx="52.13" cy="13.5" r="4" transform="matrix(1,0,0,1,496,-4)"></circle><line class="stroke_order_diagram--guide_line" x1="650" x2="650" y1="1" y2="99"></line><line class="stroke_order_diagram--bounding_box" x1="699" x2="699" y1="1" y2="99"></line><path class="stroke_order_diagram--existing_path" d="M10.03,38.22c0.36,0.24,2.52,0.41,3.49,0.31c4.16-0.41,19.68-2.71,26.37-3.91c0.97-0.17,2.27-0.24,2.88,0" id="Ske36bbcc1p" kvg:type="㇐" transform="matrix(1,0,0,1,596,-4)" xmlns:kvg="http://kanjivg.tagaini.net"></path><path class="stroke_order_diagram--existing_path" d="M27.86,14.5c0.91,0.47,2.54,2.5,2.54,4.42c0,0.95-0.12,71.75-0.3,77.58" id="Ske36bbcc1q" kvg:type="㇑" transform="matrix(1,0,0,1,596,-4)" xmlns:kvg="http://kanjivg.tagaini.net"></path><path class="stroke_order_diagram--existing_path" d="M29.94,40.28c-5.66,13.41-8.81,19.07-17.58,30.81" id="Ske36bbcc1r" kvg:type="㇒" transform="matrix(1,0,0,1,596,-4)" xmlns:kvg="http://kanjivg.tagaini.net"></path><path class="stroke_order_diagram--existing_path" d="M32.47,44.9c2.37,1.59,6.28,5.76,8.28,8.85" id="Ske36bbcc1s" kvg:type="㇔/㇏" transform="matrix(1,0,0,1,596,-4)" xmlns:kvg="http://kanjivg.tagaini.net"></path><path class="stroke_order_diagram--existing_path" d="M81.09,13.23c-0.27,0.68-1.03,1.52-1.6,1.82c-3.64,1.91-14.17,6.68-25.94,8.64" id="Ske36bbcc1t" kvg:type="㇒" transform="matrix(1,0,0,1,596,-4)" xmlns:kvg="http://kanjivg.tagaini.net"></path><path class="stroke_order_diagram--existing_path" d="M52.13,13.5c0.76,0.65,0.81,1.09,1.07,1.96c0.25,0.87-0.18,5.79-0.18,8.52c0,7.02,10.18,6.36,18.85,6.36c12.58,0,17.34-1.15,17.34-8.53" id="Ske36bbcc1u" kvg:type="㇟" transform="matrix(1,0,0,1,596,-4)" xmlns:kvg="http://kanjivg.tagaini.net"></path><path class="stroke_order_diagram--current_path" d="M58.96,38.01c0.38,0.71,0.95,2,0.95,2.95s-0.13,28.97,0,29.91" id="kvg:069c7-s7" kvg:type="㇑" transform="matrix(1,0,0,1,596,-4)" xmlns:kvg="http://kanjivg.tagaini.net"></path><path class="stroke_order_diagram--current_path" d="M58.96,38.01c0.38,0.71,0.95,2,0.95,2.95s-0.13,28.97,0,29.91" id="Ske36bbcc1w" kvg:type="㇑" transform="matrix(1,0,0,1,596,-4)" xmlns:kvg="http://kanjivg.tagaini.net"></path><circle class="stroke_order_diagram--path_start" cx="58.96" cy="38.01" r="4" transform="matrix(1,0,0,1,596,-4)"></circle><line class="stroke_order_diagram--guide_line" x1="750" x2="750" y1="1" y2="99"></line><line class="stroke_order_diagram--bounding_box" x1="799" x2="799" y1="1" y2="99"></line><path class="stroke_order_diagram--existing_path" d="M10.03,38.22c0.36,0.24,2.52,0.41,3.49,0.31c4.16-0.41,19.68-2.71,26.37-3.91c0.97-0.17,2.27-0.24,2.88,0" id="Ske36bbcc1z" kvg:type="㇐" transform="matrix(1,0,0,1,696,-4)" xmlns:kvg="http://kanjivg.tagaini.net"></path><path class="stroke_order_diagram--existing_path" d="M27.86,14.5c0.91,0.47,2.54,2.5,2.54,4.42c0,0.95-0.12,71.75-0.3,77.58" id="Ske36bbcc20" kvg:type="㇑" transform="matrix(1,0,0,1,696,-4)" xmlns:kvg="http://kanjivg.tagaini.net"></path><path class="stroke_order_diagram--existing_path" d="M29.94,40.28c-5.66,13.41-8.81,19.07-17.58,30.81" id="Ske36bbcc21" kvg:type="㇒" transform="matrix(1,0,0,1,696,-4)" xmlns:kvg="http://kanjivg.tagaini.net"></path><path class="stroke_order_diagram--existing_path" d="M32.47,44.9c2.37,1.59,6.28,5.76,8.28,8.85" id="Ske36bbcc22" kvg:type="㇔/㇏" transform="matrix(1,0,0,1,696,-4)" xmlns:kvg="http://kanjivg.tagaini.net"></path><path class="stroke_order_diagram--existing_path" d="M81.09,13.23c-0.27,0.68-1.03,1.52-1.6,1.82c-3.64,1.91-14.17,6.68-25.94,8.64" id="Ske36bbcc23" kvg:type="㇒" transform="matrix(1,0,0,1,696,-4)" xmlns:kvg="http://kanjivg.tagaini.net"></path><path class="stroke_order_diagram--existing_path" d="M52.13,13.5c0.76,0.65,0.81,1.09,1.07,1.96c0.25,0.87-0.18,5.79-0.18,8.52c0,7.02,10.18,6.36,18.85,6.36c12.58,0,17.34-1.15,17.34-8.53" id="Ske36bbcc24" kvg:type="㇟" transform="matrix(1,0,0,1,696,-4)" xmlns:kvg="http://kanjivg.tagaini.net"></path><path class="stroke_order_diagram--existing_path" d="M58.96,38.01c0.38,0.71,0.95,2,0.95,2.95s-0.13,28.97,0,29.91" id="Ske36bbcc25" kvg:type="㇑" transform="matrix(1,0,0,1,696,-4)" xmlns:kvg="http://kanjivg.tagaini.net"></path><path class="stroke_order_diagram--current_path" d="M60.55,39.97c2.18-0.12,19.8-2.25,21.79-2.22c0.91,0.02,1.81,0.47,1.81,1.99c0,1.13,0.03,29.23-0.1,29.93" id="kvg:069c7-s8" kvg:type="㇕a" transform="matrix(1,0,0,1,696,-4)" xmlns:kvg="http://kanjivg.tagaini.net"></path><path class="stroke_order_diagram--current_path" d="M60.55,39.97c2.18-0.12,19.8-2.25,21.79-2.22c0.91,0.02,1.81,0.47,1.81,1.99c0,1.13,0.03,29.23-0.1,29.93" id="Ske36bbcc27" kvg:type="㇕a" transform="matrix(1,0,0,1,696,-4)" xmlns:kvg="http://kanjivg.tagaini.net"></path><circle class="stroke_order_diagram--path_start" cx="60.55" cy="39.97" r="4" transform="matrix(1,0,0,1,696,-4)"></circle><line class="stroke_order_diagram--guide_line" x1="850" x2="850" y1="1" y2="99"></line><line class="stroke_order_diagram--bounding_box" x1="899" x2="899" y1="1" y2="99"></line><path class="stroke_order_diagram--existing_path" d="M10.03,38.22c0.36,0.24,2.52,0.41,3.49,0.31c4.16-0.41,19.68-2.71,26.37-3.91c0.97-0.17,2.27-0.24,2.88,0" id="Ske36bbcc2a" kvg:type="㇐" transform="matrix(1,0,0,1,796,-4)" xmlns:kvg="http://kanjivg.tagaini.net"></path><path class="stroke_order_diagram--existing_path" d="M27.86,14.5c0.91,0.47,2.54,2.5,2.54,4.42c0,0.95-0.12,71.75-0.3,77.58" id="Ske36bbcc2b" kvg:type="㇑" transform="matrix(1,0,0,1,796,-4)" xmlns:kvg="http://kanjivg.tagaini.net"></path><path class="stroke_order_diagram--existing_path" d="M29.94,40.28c-5.66,13.41-8.81,19.07-17.58,30.81" id="Ske36bbcc2c" kvg:type="㇒" transform="matrix(1,0,0,1,796,-4)" xmlns:kvg="http://kanjivg.tagaini.net"></path><path class="stroke_order_diagram--existing_path" d="M32.47,44.9c2.37,1.59,6.28,5.76,8.28,8.85" id="Ske36bbcc2d" kvg:type="㇔/㇏" transform="matrix(1,0,0,1,796,-4)" xmlns:kvg="http://kanjivg.tagaini.net"></path><path class="stroke_order_diagram--existing_path" d="M81.09,13.23c-0.27,0.68-1.03,1.52-1.6,1.82c-3.64,1.91-14.17,6.68-25.94,8.64" id="Ske36bbcc2e" kvg:type="㇒" transform="matrix(1,0,0,1,796,-4)" xmlns:kvg="http://kanjivg.tagaini.net"></path><path class="stroke_order_diagram--existing_path" d="M52.13,13.5c0.76,0.65,0.81,1.09,1.07,1.96c0.25,0.87-0.18,5.79-0.18,8.52c0,7.02,10.18,6.36,18.85,6.36c12.58,0,17.34-1.15,17.34-8.53" id="Ske36bbcc2f" kvg:type="㇟" transform="matrix(1,0,0,1,796,-4)" xmlns:kvg="http://kanjivg.tagaini.net"></path><path class="stroke_order_diagram--existing_path" d="M58.96,38.01c0.38,0.71,0.95,2,0.95,2.95s-0.13,28.97,0,29.91" id="Ske36bbcc2g" kvg:type="㇑" transform="matrix(1,0,0,1,796,-4)" xmlns:kvg="http://kanjivg.tagaini.net"></path><path class="stroke_order_diagram--existing_path" d="M60.55,39.97c2.18-0.12,19.8-2.25,21.79-2.22c0.91,0.02,1.81,0.47,1.81,1.99c0,1.13,0.03,29.23-0.1,29.93" id="Ske36bbcc2h" kvg:type="㇕a" transform="matrix(1,0,0,1,796,-4)" xmlns:kvg="http://kanjivg.tagaini.net"></path><path class="stroke_order_diagram--current_path" d="M60,49.23c4.3-0.16,20.15-1.95,23.65-1.95" id="kvg:069c7-s9" kvg:type="㇐a" transform="matrix(1,0,0,1,796,-4)" xmlns:kvg="http://kanjivg.tagaini.net"></path><path class="stroke_order_diagram--current_path" d="M60,49.23c4.3-0.16,20.15-1.95,23.65-1.95" id="Ske36bbcc2j" kvg:type="㇐a" transform="matrix(1,0,0,1,796,-4)" xmlns:kvg="http://kanjivg.tagaini.net"></path><circle class="stroke_order_diagram--path_start" cx="60" cy="49.23" r="4" transform="matrix(1,0,0,1,796,-4)"></circle><line class="stroke_order_diagram--guide_line" x1="950" x2="950" y1="1" y2="99"></line><line class="stroke_order_diagram--bounding_box" x1="999" x2="999" y1="1" y2="99"></line><path class="stroke_order_diagram--existing_path" d="M10.03,38.22c0.36,0.24,2.52,0.41,3.49,0.31c4.16-0.41,19.68-2.71,26.37-3.91c0.97-0.17,2.27-0.24,2.88,0" id="Ske36bbcc2m" kvg:type="㇐" transform="matrix(1,0,0,1,896,-4)" xmlns:kvg="http://kanjivg.tagaini.net"></path><path class="stroke_order_diagram--existing_path" d="M27.86,14.5c0.91,0.47,2.54,2.5,2.54,4.42c0,0.95-0.12,71.75-0.3,77.58" id="Ske36bbcc2n" kvg:type="㇑" transform="matrix(1,0,0,1,896,-4)" xmlns:kvg="http://kanjivg.tagaini.net"></path><path class="stroke_order_diagram--existing_path" d="M29.94,40.28c-5.66,13.41-8.81,19.07-17.58,30.81" id="Ske36bbcc2o" kvg:type="㇒" transform="matrix(1,0,0,1,896,-4)" xmlns:kvg="http://kanjivg.tagaini.net"></path><path class="stroke_order_diagram--existing_path" d="M32.47,44.9c2.37,1.59,6.28,5.76,8.28,8.85" id="Ske36bbcc2p" kvg:type="㇔/㇏" transform="matrix(1,0,0,1,896,-4)" xmlns:kvg="http://kanjivg.tagaini.net"></path><path class="stroke_order_diagram--existing_path" d="M81.09,13.23c-0.27,0.68-1.03,1.52-1.6,1.82c-3.64,1.91-14.17,6.68-25.94,8.64" id="Ske36bbcc2q" kvg:type="㇒" transform="matrix(1,0,0,1,896,-4)" xmlns:kvg="http://kanjivg.tagaini.net"></path><path class="stroke_order_diagram--existing_path" d="M52.13,13.5c0.76,0.65,0.81,1.09,1.07,1.96c0.25,0.87-0.18,5.79-0.18,8.52c0,7.02,10.18,6.36,18.85,6.36c12.58,0,17.34-1.15,17.34-8.53" id="Ske36bbcc2r" kvg:type="㇟" transform="matrix(1,0,0,1,896,-4)" xmlns:kvg="http://kanjivg.tagaini.net"></path><path class="stroke_order_diagram--existing_path" d="M58.96,38.01c0.38,0.71,0.95,2,0.95,2.95s-0.13,28.97,0,29.91" id="Ske36bbcc2s" kvg:type="㇑" transform="matrix(1,0,0,1,896,-4)" xmlns:kvg="http://kanjivg.tagaini.net"></path><path class="stroke_order_diagram--existing_path" d="M60.55,39.97c2.18-0.12,19.8-2.25,21.79-2.22c0.91,0.02,1.81,0.47,1.81,1.99c0,1.13,0.03,29.23-0.1,29.93" id="Ske36bbcc2t" kvg:type="㇕a" transform="matrix(1,0,0,1,896,-4)" xmlns:kvg="http://kanjivg.tagaini.net"></path><path class="stroke_order_diagram--existing_path" d="M60,49.23c4.3-0.16,20.15-1.95,23.65-1.95" id="Ske36bbcc2u" kvg:type="㇐a" transform="matrix(1,0,0,1,896,-4)" xmlns:kvg="http://kanjivg.tagaini.net"></path><path class="stroke_order_diagram--current_path" d="M59.84,58.74c5.78-0.4,18.28-1.87,23.89-1.87" id="kvg:069c7-s10" kvg:type="㇐a" transform="matrix(1,0,0,1,896,-4)" xmlns:kvg="http://kanjivg.tagaini.net"></path><path class="stroke_order_diagram--current_path" d="M59.84,58.74c5.78-0.4,18.28-1.87,23.89-1.87" id="Ske36bbcc2w" kvg:type="㇐a" transform="matrix(1,0,0,1,896,-4)" xmlns:kvg="http://kanjivg.tagaini.net"></path><circle class="stroke_order_diagram--path_start" cx="59.84" cy="58.74" r="4" transform="matrix(1,0,0,1,896,-4)"></circle><line class="stroke_order_diagram--guide_line" x1="1050" x2="1050" y1="1" y2="99"></line><line class="stroke_order_diagram--bounding_box" x1="1099" x2="1099" y1="1" y2="99"></line><path class="stroke_order_diagram--existing_path" d="M10.03,38.22c0.36,0.24,2.52,0.41,3.49,0.31c4.16-0.41,19.68-2.71,26.37-3.91c0.97-0.17,2.27-0.24,2.88,0" id="Ske36bbcc2z" kvg:type="㇐" transform="matrix(1,0,0,1,996,-4)" xmlns:kvg="http://kanjivg.tagaini.net"></path><path class="stroke_order_diagram--existing_path" d="M27.86,14.5c0.91,0.47,2.54,2.5,2.54,4.42c0,0.95-0.12,71.75-0.3,77.58" id="Ske36bbcc30" kvg:type="㇑" transform="matrix(1,0,0,1,996,-4)" xmlns:kvg="http://kanjivg.tagaini.net"></path><path class="stroke_order_diagram--existing_path" d="M29.94,40.28c-5.66,13.41-8.81,19.07-17.58,30.81" id="Ske36bbcc31" kvg:type="㇒" transform="matrix(1,0,0,1,996,-4)" xmlns:kvg="http://kanjivg.tagaini.net"></path><path class="stroke_order_diagram--existing_path" d="M32.47,44.9c2.37,1.59,6.28,5.76,8.28,8.85" id="Ske36bbcc32" kvg:type="㇔/㇏" transform="matrix(1,0,0,1,996,-4)" xmlns:kvg="http://kanjivg.tagaini.net"></path><path class="stroke_order_diagram--existing_path" d="M81.09,13.23c-0.27,0.68-1.03,1.52-1.6,1.82c-3.64,1.91-14.17,6.68-25.94,8.64" id="Ske36bbcc33" kvg:type="㇒" transform="matrix(1,0,0,1,996,-4)" xmlns:kvg="http://kanjivg.tagaini.net"></path><path class="stroke_order_diagram--existing_path" d="M52.13,13.5c0.76,0.65,0.81,1.09,1.07,1.96c0.25,0.87-0.18,5.79-0.18,8.52c0,7.02,10.18,6.36,18.85,6.36c12.58,0,17.34-1.15,17.34-8.53" id="Ske36bbcc34" kvg:type="㇟" transform="matrix(1,0,0,1,996,-4)" xmlns:kvg="http://kanjivg.tagaini.net"></path><path class="stroke_order_diagram--existing_path" d="M58.96,38.01c0.38,0.71,0.95,2,0.95,2.95s-0.13,28.97,0,29.91" id="Ske36bbcc35" kvg:type="㇑" transform="matrix(1,0,0,1,996,-4)" xmlns:kvg="http://kanjivg.tagaini.net"></path><path class="stroke_order_diagram--existing_path" d="M60.55,39.97c2.18-0.12,19.8-2.25,21.79-2.22c0.91,0.02,1.81,0.47,1.81,1.99c0,1.13,0.03,29.23-0.1,29.93" id="Ske36bbcc36" kvg:type="㇕a" transform="matrix(1,0,0,1,996,-4)" xmlns:kvg="http://kanjivg.tagaini.net"></path><path class="stroke_order_diagram--existing_path" d="M60,49.23c4.3-0.16,20.15-1.95,23.65-1.95" id="Ske36bbcc37" kvg:type="㇐a" transform="matrix(1,0,0,1,996,-4)" xmlns:kvg="http://kanjivg.tagaini.net"></path><path class="stroke_order_diagram--existing_path" d="M59.84,58.74c5.78-0.4,18.28-1.87,23.89-1.87" id="Ske36bbcc38" kvg:type="㇐a" transform="matrix(1,0,0,1,996,-4)" xmlns:kvg="http://kanjivg.tagaini.net"></path><path class="stroke_order_diagram--current_path" d="M60.03,68.86c4.33,0,18.13-1.96,23.74-1.96" id="kvg:069c7-s11" kvg:type="㇐a" transform="matrix(1,0,0,1,996,-4)" xmlns:kvg="http://kanjivg.tagaini.net"></path><path class="stroke_order_diagram--current_path" d="M60.03,68.86c4.33,0,18.13-1.96,23.74-1.96" id="Ske36bbcc3a" kvg:type="㇐a" transform="matrix(1,0,0,1,996,-4)" xmlns:kvg="http://kanjivg.tagaini.net"></path><circle class="stroke_order_diagram--path_start" cx="60.03" cy="68.86" r="4" transform="matrix(1,0,0,1,996,-4)"></circle><line class="stroke_order_diagram--guide_line" x1="1150" x2="1150" y1="1" y2="99"></line><line class="stroke_order_diagram--bounding_box" x1="1199" x2="1199" y1="1" y2="99"></line><path class="stroke_order_diagram--existing_path" d="M10.03,38.22c0.36,0.24,2.52,0.41,3.49,0.31c4.16-0.41,19.68-2.71,26.37-3.91c0.97-0.17,2.27-0.24,2.88,0" id="Ske36bbcc3d" kvg:type="㇐" transform="matrix(1,0,0,1,1096,-4)" xmlns:kvg="http://kanjivg.tagaini.net"></path><path class="stroke_order_diagram--existing_path" d="M27.86,14.5c0.91,0.47,2.54,2.5,2.54,4.42c0,0.95-0.12,71.75-0.3,77.58" id="Ske36bbcc3e" kvg:type="㇑" transform="matrix(1,0,0,1,1096,-4)" xmlns:kvg="http://kanjivg.tagaini.net"></path><path class="stroke_order_diagram--existing_path" d="M29.94,40.28c-5.66,13.41-8.81,19.07-17.58,30.81" id="Ske36bbcc3f" kvg:type="㇒" transform="matrix(1,0,0,1,1096,-4)" xmlns:kvg="http://kanjivg.tagaini.net"></path><path class="stroke_order_diagram--existing_path" d="M32.47,44.9c2.37,1.59,6.28,5.76,8.28,8.85" id="Ske36bbcc3g" kvg:type="㇔/㇏" transform="matrix(1,0,0,1,1096,-4)" xmlns:kvg="http://kanjivg.tagaini.net"></path><path class="stroke_order_diagram--existing_path" d="M81.09,13.23c-0.27,0.68-1.03,1.52-1.6,1.82c-3.64,1.91-14.17,6.68-25.94,8.64" id="Ske36bbcc3h" kvg:type="㇒" transform="matrix(1,0,0,1,1096,-4)" xmlns:kvg="http://kanjivg.tagaini.net"></path><path class="stroke_order_diagram--existing_path" d="M52.13,13.5c0.76,0.65,0.81,1.09,1.07,1.96c0.25,0.87-0.18,5.79-0.18,8.52c0,7.02,10.18,6.36,18.85,6.36c12.58,0,17.34-1.15,17.34-8.53" id="Ske36bbcc3i" kvg:type="㇟" transform="matrix(1,0,0,1,1096,-4)" xmlns:kvg="http://kanjivg.tagaini.net"></path><path class="stroke_order_diagram--existing_path" d="M58.96,38.01c0.38,0.71,0.95,2,0.95,2.95s-0.13,28.97,0,29.91" id="Ske36bbcc3j" kvg:type="㇑" transform="matrix(1,0,0,1,1096,-4)" xmlns:kvg="http://kanjivg.tagaini.net"></path><path class="stroke_order_diagram--existing_path" d="M60.55,39.97c2.18-0.12,19.8-2.25,21.79-2.22c0.91,0.02,1.81,0.47,1.81,1.99c0,1.13,0.03,29.23-0.1,29.93" id="Ske36bbcc3k" kvg:type="㇕a" transform="matrix(1,0,0,1,1096,-4)" xmlns:kvg="http://kanjivg.tagaini.net"></path><path class="stroke_order_diagram--existing_path" d="M60,49.23c4.3-0.16,20.15-1.95,23.65-1.95" id="Ske36bbcc3l" kvg:type="㇐a" transform="matrix(1,0,0,1,1096,-4)" xmlns:kvg="http://kanjivg.tagaini.net"></path><path class="stroke_order_diagram--existing_path" d="M59.84,58.74c5.78-0.4,18.28-1.87,23.89-1.87" id="Ske36bbcc3m" kvg:type="㇐a" transform="matrix(1,0,0,1,1096,-4)" xmlns:kvg="http://kanjivg.tagaini.net"></path><path class="stroke_order_diagram--existing_path" d="M60.03,68.86c4.33,0,18.13-1.96,23.74-1.96" id="Ske36bbcc3n" kvg:type="㇐a" transform="matrix(1,0,0,1,1096,-4)" xmlns:kvg="http://kanjivg.tagaini.net"></path><path class="stroke_order_diagram--current_path" d="M48.94,48.42c0.5,0.92,1.17,1.62,1.17,3.23c0,1.62-0.85,20.1-1.33,24.85c-0.21,2.07,0.19,3.83,2,3.42c14.23-3.17,32.18-3.23,39.48-2.77c1.5,0.1,3,0.35,4.5,0.96" id="kvg:069c7-s12" kvg:type="㇄" transform="matrix(1,0,0,1,1096,-4)" xmlns:kvg="http://kanjivg.tagaini.net"></path><path class="stroke_order_diagram--current_path" d="M48.94,48.42c0.5,0.92,1.17,1.62,1.17,3.23c0,1.62-0.85,20.1-1.33,24.85c-0.21,2.07,0.19,3.83,2,3.42c14.23-3.17,32.18-3.23,39.48-2.77c1.5,0.1,3,0.35,4.5,0.96" id="Ske36bbcc3p" kvg:type="㇄" transform="matrix(1,0,0,1,1096,-4)" xmlns:kvg="http://kanjivg.tagaini.net"></path><circle class="stroke_order_diagram--path_start" cx="48.94" cy="48.42" r="4" transform="matrix(1,0,0,1,1096,-4)"></circle><line class="stroke_order_diagram--guide_line" x1="1250" x2="1250" y1="1" y2="99"></line><line class="stroke_order_diagram--bounding_box" x1="1299" x2="1299" y1="1" y2="99"></line><path class="stroke_order_diagram--existing_path" d="M10.03,38.22c0.36,0.24,2.52,0.41,3.49,0.31c4.16-0.41,19.68-2.71,26.37-3.91c0.97-0.17,2.27-0.24,2.88,0" id="Ske36bbcc3s" kvg:type="㇐" transform="matrix(1,0,0,1,1196,-4)" xmlns:kvg="http://kanjivg.tagaini.net"></path><path class="stroke_order_diagram--existing_path" d="M27.86,14.5c0.91,0.47,2.54,2.5,2.54,4.42c0,0.95-0.12,71.75-0.3,77.58" id="Ske36bbcc3t" kvg:type="㇑" transform="matrix(1,0,0,1,1196,-4)" xmlns:kvg="http://kanjivg.tagaini.net"></path><path class="stroke_order_diagram--existing_path" d="M29.94,40.28c-5.66,13.41-8.81,19.07-17.58,30.81" id="Ske36bbcc3u" kvg:type="㇒" transform="matrix(1,0,0,1,1196,-4)" xmlns:kvg="http://kanjivg.tagaini.net"></path><path class="stroke_order_diagram--existing_path" d="M32.47,44.9c2.37,1.59,6.28,5.76,8.28,8.85" id="Ske36bbcc3v" kvg:type="㇔/㇏" transform="matrix(1,0,0,1,1196,-4)" xmlns:kvg="http://kanjivg.tagaini.net"></path><path class="stroke_order_diagram--existing_path" d="M81.09,13.23c-0.27,0.68-1.03,1.52-1.6,1.82c-3.64,1.91-14.17,6.68-25.94,8.64" id="Ske36bbcc3w" kvg:type="㇒" transform="matrix(1,0,0,1,1196,-4)" xmlns:kvg="http://kanjivg.tagaini.net"></path><path class="stroke_order_diagram--existing_path" d="M52.13,13.5c0.76,0.65,0.81,1.09,1.07,1.96c0.25,0.87-0.18,5.79-0.18,8.52c0,7.02,10.18,6.36,18.85,6.36c12.58,0,17.34-1.15,17.34-8.53" id="Ske36bbcc3x" kvg:type="㇟" transform="matrix(1,0,0,1,1196,-4)" xmlns:kvg="http://kanjivg.tagaini.net"></path><path class="stroke_order_diagram--existing_path" d="M58.96,38.01c0.38,0.71,0.95,2,0.95,2.95s-0.13,28.97,0,29.91" id="Ske36bbcc3y" kvg:type="㇑" transform="matrix(1,0,0,1,1196,-4)" xmlns:kvg="http://kanjivg.tagaini.net"></path><path class="stroke_order_diagram--existing_path" d="M60.55,39.97c2.18-0.12,19.8-2.25,21.79-2.22c0.91,0.02,1.81,0.47,1.81,1.99c0,1.13,0.03,29.23-0.1,29.93" id="Ske36bbcc3z" kvg:type="㇕a" transform="matrix(1,0,0,1,1196,-4)" xmlns:kvg="http://kanjivg.tagaini.net"></path><path class="stroke_order_diagram--existing_path" d="M60,49.23c4.3-0.16,20.15-1.95,23.65-1.95" id="Ske36bbcc40" kvg:type="㇐a" transform="matrix(1,0,0,1,1196,-4)" xmlns:kvg="http://kanjivg.tagaini.net"></path><path class="stroke_order_diagram--existing_path" d="M59.84,58.74c5.78-0.4,18.28-1.87,23.89-1.87" id="Ske36bbcc41" kvg:type="㇐a" transform="matrix(1,0,0,1,1196,-4)" xmlns:kvg="http://kanjivg.tagaini.net"></path><path class="stroke_order_diagram--existing_path" d="M60.03,68.86c4.33,0,18.13-1.96,23.74-1.96" id="Ske36bbcc42" kvg:type="㇐a" transform="matrix(1,0,0,1,1196,-4)" xmlns:kvg="http://kanjivg.tagaini.net"></path><path class="stroke_order_diagram--existing_path" d="M48.94,48.42c0.5,0.92,1.17,1.62,1.17,3.23c0,1.62-0.85,20.1-1.33,24.85c-0.21,2.07,0.19,3.83,2,3.42c14.23-3.17,32.18-3.23,39.48-2.77c1.5,0.1,3,0.35,4.5,0.96" id="Ske36bbcc43" kvg:type="㇄" transform="matrix(1,0,0,1,1196,-4)" xmlns:kvg="http://kanjivg.tagaini.net"></path><path class="stroke_order_diagram--current_path" d="M60.32,84.98c0.05,0.26,0.11,0.68-0.1,1.06c-1.24,2.24-8.39,7.17-18.16,10.18" id="kvg:069c7-s13" kvg:type="㇒" transform="matrix(1,0,0,1,1196,-4)" xmlns:kvg="http://kanjivg.tagaini.net"></path><path class="stroke_order_diagram--current_path" d="M60.32,84.98c0.05,0.26,0.11,0.68-0.1,1.06c-1.24,2.24-8.39,7.17-18.16,10.18" id="Ske36bbcc45" kvg:type="㇒" transform="matrix(1,0,0,1,1196,-4)" xmlns:kvg="http://kanjivg.tagaini.net"></path><circle class="stroke_order_diagram--path_start" cx="60.32" cy="84.98" r="4" transform="matrix(1,0,0,1,1196,-4)"></circle><line class="stroke_order_diagram--guide_line" x1="1350" x2="1350" y1="1" y2="99"></line><line class="stroke_order_diagram--bounding_box" x1="1399" x2="1399" y1="1" y2="99"></line><path class="stroke_order_diagram--existing_path" d="M10.03,38.22c0.36,0.24,2.52,0.41,3.49,0.31c4.16-0.41,19.68-2.71,26.37-3.91c0.97-0.17,2.27-0.24,2.88,0" id="Ske36bbcc48" kvg:type="㇐" transform="matrix(1,0,0,1,1296,-4)" xmlns:kvg="http://kanjivg.tagaini.net"></path><path class="stroke_order_diagram--existing_path" d="M27.86,14.5c0.91,0.47,2.54,2.5,2.54,4.42c0,0.95-0.12,71.75-0.3,77.58" id="Ske36bbcc49" kvg:type="㇑" transform="matrix(1,0,0,1,1296,-4)" xmlns:kvg="http://kanjivg.tagaini.net"></path><path class="stroke_order_diagram--existing_path" d="M29.94,40.28c-5.66,13.41-8.81,19.07-17.58,30.81" id="Ske36bbcc4a" kvg:type="㇒" transform="matrix(1,0,0,1,1296,-4)" xmlns:kvg="http://kanjivg.tagaini.net"></path><path class="stroke_order_diagram--existing_path" d="M32.47,44.9c2.37,1.59,6.28,5.76,8.28,8.85" id="Ske36bbcc4b" kvg:type="㇔/㇏" transform="matrix(1,0,0,1,1296,-4)" xmlns:kvg="http://kanjivg.tagaini.net"></path><path class="stroke_order_diagram--existing_path" d="M81.09,13.23c-0.27,0.68-1.03,1.52-1.6,1.82c-3.64,1.91-14.17,6.68-25.94,8.64" id="Ske36bbcc4c" kvg:type="㇒" transform="matrix(1,0,0,1,1296,-4)" xmlns:kvg="http://kanjivg.tagaini.net"></path><path class="stroke_order_diagram--existing_path" d="M52.13,13.5c0.76,0.65,0.81,1.09,1.07,1.96c0.25,0.87-0.18,5.79-0.18,8.52c0,7.02,10.18,6.36,18.85,6.36c12.58,0,17.34-1.15,17.34-8.53" id="Ske36bbcc4d" kvg:type="㇟" transform="matrix(1,0,0,1,1296,-4)" xmlns:kvg="http://kanjivg.tagaini.net"></path><path class="stroke_order_diagram--existing_path" d="M58.96,38.01c0.38,0.71,0.95,2,0.95,2.95s-0.13,28.97,0,29.91" id="Ske36bbcc4e" kvg:type="㇑" transform="matrix(1,0,0,1,1296,-4)" xmlns:kvg="http://kanjivg.tagaini.net"></path><path class="stroke_order_diagram--existing_path" d="M60.55,39.97c2.18-0.12,19.8-2.25,21.79-2.22c0.91,0.02,1.81,0.47,1.81,1.99c0,1.13,0.03,29.23-0.1,29.93" id="Ske36bbcc4f" kvg:type="㇕a" transform="matrix(1,0,0,1,1296,-4)" xmlns:kvg="http://kanjivg.tagaini.net"></path><path class="stroke_order_diagram--existing_path" d="M60,49.23c4.3-0.16,20.15-1.95,23.65-1.95" id="Ske36bbcc4g" kvg:type="㇐a" transform="matrix(1,0,0,1,1296,-4)" xmlns:kvg="http://kanjivg.tagaini.net"></path><path class="stroke_order_diagram--existing_path" d="M59.84,58.74c5.78-0.4,18.28-1.87,23.89-1.87" id="Ske36bbcc4h" kvg:type="㇐a" transform="matrix(1,0,0,1,1296,-4)" xmlns:kvg="http://kanjivg.tagaini.net"></path><path class="stroke_order_diagram--existing_path" d="M60.03,68.86c4.33,0,18.13-1.96,23.74-1.96" id="Ske36bbcc4i" kvg:type="㇐a" transform="matrix(1,0,0,1,1296,-4)" xmlns:kvg="http://kanjivg.tagaini.net"></path><path class="stroke_order_diagram--existing_path" d="M48.94,48.42c0.5,0.92,1.17,1.62,1.17,3.23c0,1.62-0.85,20.1-1.33,24.85c-0.21,2.07,0.19,3.83,2,3.42c14.23-3.17,32.18-3.23,39.48-2.77c1.5,0.1,3,0.35,4.5,0.96" id="Ske36bbcc4j" kvg:type="㇄" transform="matrix(1,0,0,1,1296,-4)" xmlns:kvg="http://kanjivg.tagaini.net"></path><path class="stroke_order_diagram--existing_path" d="M60.32,84.98c0.05,0.26,0.11,0.68-0.1,1.06c-1.24,2.24-8.39,7.17-18.16,10.18" id="Ske36bbcc4k" kvg:type="㇒" transform="matrix(1,0,0,1,1296,-4)" xmlns:kvg="http://kanjivg.tagaini.net"></path><path class="stroke_order_diagram--current_path" d="M78.39,83.73c5.07,2.18,13.09,8.96,14.36,12.35" id="kvg:069c7-s14" kvg:type="㇏" transform="matrix(1,0,0,1,1296,-4)" xmlns:kvg="http://kanjivg.tagaini.net"></path><path class="stroke_order_diagram--current_path" d="M78.39,83.73c5.07,2.18,13.09,8.96,14.36,12.35" id="Ske36bbcc4m" kvg:type="㇏" transform="matrix(1,0,0,1,1296,-4)" xmlns:kvg="http://kanjivg.tagaini.net"></path><circle class="stroke_order_diagram--path_start" cx="78.39" cy="83.73" r="4" transform="matrix(1,0,0,1,1296,-4)"></circle></svg>