<svg class="stroke_order_diagram--svg_container_for_518662acd5dda79658001058" style="height: 100px; width: 1600px;" viewbox="0 0 1600 100"><desc>Created with Snap</desc><defs></defs><line class="stroke_order_diagram--bounding_box" x1="1" x2="1599" y1="1" y2="1"></line><line class="stroke_order_diagram--bounding_box" x1="1" x2="1" y1="1" y2="99"></line><line class="stroke_order_diagram--bounding_box" x1="1" x2="1599" y1="99" y2="99"></line><line class="stroke_order_diagram--guide_line" x1="0" x2="1600" y1="50" y2="50"></line><line class="stroke_order_diagram--guide_line" x1="50" x2="50" y1="1" y2="99"></line><line class="stroke_order_diagram--bounding_box" x1="99" x2="99" y1="1" y2="99"></line><path class="stroke_order_diagram--current_path" d="M15.07,19.95c0.72,0.36,1.56,0.34,2.29,0.36c6.39,0.2,24.14-2.55,31.6-2.81c1.21-0.04,1.93,0.17,2.54,0.35" id="kvg:06aa0-s1" kvg:type="㇐" transform="matrix(1,0,0,1,-4,-4)" xmlns:kvg="http://kanjivg.tagaini.net"></path><path class="stroke_order_diagram--current_path" d="M15.07,19.95c0.72,0.36,1.56,0.34,2.29,0.36c6.39,0.2,24.14-2.55,31.6-2.81c1.21-0.04,1.93,0.17,2.54,0.35" id="Ske2np534p" kvg:type="㇐" transform="matrix(1,0,0,1,-4,-4)" xmlns:kvg="http://kanjivg.tagaini.net"></path><circle class="stroke_order_diagram--path_start" cx="15.07" cy="19.95" r="4" transform="matrix(1,0,0,1,-4,-4)"></circle><line class="stroke_order_diagram--guide_line" x1="150" x2="150" y1="1" y2="99"></line><line class="stroke_order_diagram--bounding_box" x1="199" x2="199" y1="1" y2="99"></line><path class="stroke_order_diagram--existing_path" d="M15.07,19.95c0.72,0.36,1.56,0.34,2.29,0.36c6.39,0.2,24.14-2.55,31.6-2.81c1.21-0.04,1.93,0.17,2.54,0.35" id="Ske2np534s" kvg:type="㇐" transform="matrix(1,0,0,1,96,-4)" xmlns:kvg="http://kanjivg.tagaini.net"></path><path class="stroke_order_diagram--current_path" d="M26.2,12.2c0.9,0.87,1.26,1.12,1.29,1.66c0.26,5.39,1.01,7.39,0.93,11.72" id="kvg:06aa0-s2" kvg:type="㇑a" transform="matrix(1,0,0,1,96,-4)" xmlns:kvg="http://kanjivg.tagaini.net"></path><path class="stroke_order_diagram--current_path" d="M26.2,12.2c0.9,0.87,1.26,1.12,1.29,1.66c0.26,5.39,1.01,7.39,0.93,11.72" id="Ske2np534u" kvg:type="㇑a" transform="matrix(1,0,0,1,96,-4)" xmlns:kvg="http://kanjivg.tagaini.net"></path><circle class="stroke_order_diagram--path_start" cx="26.2" cy="12.2" r="4" transform="matrix(1,0,0,1,96,-4)"></circle><line class="stroke_order_diagram--guide_line" x1="250" x2="250" y1="1" y2="99"></line><line class="stroke_order_diagram--bounding_box" x1="299" x2="299" y1="1" y2="99"></line><path class="stroke_order_diagram--existing_path" d="M15.07,19.95c0.72,0.36,1.56,0.34,2.29,0.36c6.39,0.2,24.14-2.55,31.6-2.81c1.21-0.04,1.93,0.17,2.54,0.35" id="Ske2np534x" kvg:type="㇐" transform="matrix(1,0,0,1,196,-4)" xmlns:kvg="http://kanjivg.tagaini.net"></path><path class="stroke_order_diagram--existing_path" d="M26.2,12.2c0.9,0.87,1.26,1.12,1.29,1.66c0.26,5.39,1.01,7.39,0.93,11.72" id="Ske2np534y" kvg:type="㇑a" transform="matrix(1,0,0,1,196,-4)" xmlns:kvg="http://kanjivg.tagaini.net"></path><path class="stroke_order_diagram--current_path" d="M41.83,10.64c0.17,0.63,0.38,1.09,0.2,1.87c-1.08,4.53-1.8,8.28-2.97,12.54" id="kvg:06aa0-s3" kvg:type="㇑a" transform="matrix(1,0,0,1,196,-4)" xmlns:kvg="http://kanjivg.tagaini.net"></path><path class="stroke_order_diagram--current_path" d="M41.83,10.64c0.17,0.63,0.38,1.09,0.2,1.87c-1.08,4.53-1.8,8.28-2.97,12.54" id="Ske2np53410" kvg:type="㇑a" transform="matrix(1,0,0,1,196,-4)" xmlns:kvg="http://kanjivg.tagaini.net"></path><circle class="stroke_order_diagram--path_start" cx="41.83" cy="10.64" r="4" transform="matrix(1,0,0,1,196,-4)"></circle><line class="stroke_order_diagram--guide_line" x1="350" x2="350" y1="1" y2="99"></line><line class="stroke_order_diagram--bounding_box" x1="399" x2="399" y1="1" y2="99"></line><path class="stroke_order_diagram--existing_path" d="M15.07,19.95c0.72,0.36,1.56,0.34,2.29,0.36c6.39,0.2,24.14-2.55,31.6-2.81c1.21-0.04,1.93,0.17,2.54,0.35" id="Ske2np53413" kvg:type="㇐" transform="matrix(1,0,0,1,296,-4)" xmlns:kvg="http://kanjivg.tagaini.net"></path><path class="stroke_order_diagram--existing_path" d="M26.2,12.2c0.9,0.87,1.26,1.12,1.29,1.66c0.26,5.39,1.01,7.39,0.93,11.72" id="Ske2np53414" kvg:type="㇑a" transform="matrix(1,0,0,1,296,-4)" xmlns:kvg="http://kanjivg.tagaini.net"></path><path class="stroke_order_diagram--existing_path" d="M41.83,10.64c0.17,0.63,0.38,1.09,0.2,1.87c-1.08,4.53-1.8,8.28-2.97,12.54" id="Ske2np53415" kvg:type="㇑a" transform="matrix(1,0,0,1,296,-4)" xmlns:kvg="http://kanjivg.tagaini.net"></path><path class="stroke_order_diagram--current_path" d="M22.75,26.5c0.03,0.4,0.06,1.02-0.06,1.59c-0.68,3.35-4.59,11.19-9.94,15.69" id="kvg:06aa0-s4" kvg:type="㇒" transform="matrix(1,0,0,1,296,-4)" xmlns:kvg="http://kanjivg.tagaini.net"></path><path class="stroke_order_diagram--current_path" d="M22.75,26.5c0.03,0.4,0.06,1.02-0.06,1.59c-0.68,3.35-4.59,11.19-9.94,15.69" id="Ske2np53417" kvg:type="㇒" transform="matrix(1,0,0,1,296,-4)" xmlns:kvg="http://kanjivg.tagaini.net"></path><circle class="stroke_order_diagram--path_start" cx="22.75" cy="26.5" r="4" transform="matrix(1,0,0,1,296,-4)"></circle><line class="stroke_order_diagram--guide_line" x1="450" x2="450" y1="1" y2="99"></line><line class="stroke_order_diagram--bounding_box" x1="499" x2="499" y1="1" y2="99"></line><path class="stroke_order_diagram--existing_path" d="M15.07,19.95c0.72,0.36,1.56,0.34,2.29,0.36c6.39,0.2,24.14-2.55,31.6-2.81c1.21-0.04,1.93,0.17,2.54,0.35" id="Ske2np5341a" kvg:type="㇐" transform="matrix(1,0,0,1,396,-4)" xmlns:kvg="http://kanjivg.tagaini.net"></path><path class="stroke_order_diagram--existing_path" d="M26.2,12.2c0.9,0.87,1.26,1.12,1.29,1.66c0.26,5.39,1.01,7.39,0.93,11.72" id="Ske2np5341b" kvg:type="㇑a" transform="matrix(1,0,0,1,396,-4)" xmlns:kvg="http://kanjivg.tagaini.net"></path><path class="stroke_order_diagram--existing_path" d="M41.83,10.64c0.17,0.63,0.38,1.09,0.2,1.87c-1.08,4.53-1.8,8.28-2.97,12.54" id="Ske2np5341c" kvg:type="㇑a" transform="matrix(1,0,0,1,396,-4)" xmlns:kvg="http://kanjivg.tagaini.net"></path><path class="stroke_order_diagram--existing_path" d="M22.75,26.5c0.03,0.4,0.06,1.02-0.06,1.59c-0.68,3.35-4.59,11.19-9.94,15.69" id="Ske2np5341d" kvg:type="㇒" transform="matrix(1,0,0,1,396,-4)" xmlns:kvg="http://kanjivg.tagaini.net"></path><path class="stroke_order_diagram--current_path" d="M21.69,32.95c0.54,0.32,2.26,0.35,3.17,0.21c3.39-0.49,16.25-1.83,18.36-2.2c2.77-0.49,4.6,0.79,4.28,3.84c-0.75,7.19-2,12.94-5.25,21.94c-1.71,4.73-5.01,2.11-6.3,0.77" id="kvg:06aa0-s5" kvg:type="㇆" transform="matrix(1,0,0,1,396,-4)" xmlns:kvg="http://kanjivg.tagaini.net"></path><path class="stroke_order_diagram--current_path" d="M21.69,32.95c0.54,0.32,2.26,0.35,3.17,0.21c3.39-0.49,16.25-1.83,18.36-2.2c2.77-0.49,4.6,0.79,4.28,3.84c-0.75,7.19-2,12.94-5.25,21.94c-1.71,4.73-5.01,2.11-6.3,0.77" id="Ske2np5341f" kvg:type="㇆" transform="matrix(1,0,0,1,396,-4)" xmlns:kvg="http://kanjivg.tagaini.net"></path><circle class="stroke_order_diagram--path_start" cx="21.69" cy="32.95" r="4" transform="matrix(1,0,0,1,396,-4)"></circle><line class="stroke_order_diagram--guide_line" x1="550" x2="550" y1="1" y2="99"></line><line class="stroke_order_diagram--bounding_box" x1="599" x2="599" y1="1" y2="99"></line><path class="stroke_order_diagram--existing_path" d="M15.07,19.95c0.72,0.36,1.56,0.34,2.29,0.36c6.39,0.2,24.14-2.55,31.6-2.81c1.21-0.04,1.93,0.17,2.54,0.35" id="Ske2np5341i" kvg:type="㇐" transform="matrix(1,0,0,1,496,-4)" xmlns:kvg="http://kanjivg.tagaini.net"></path><path class="stroke_order_diagram--existing_path" d="M26.2,12.2c0.9,0.87,1.26,1.12,1.29,1.66c0.26,5.39,1.01,7.39,0.93,11.72" id="Ske2np5341j" kvg:type="㇑a" transform="matrix(1,0,0,1,496,-4)" xmlns:kvg="http://kanjivg.tagaini.net"></path><path class="stroke_order_diagram--existing_path" d="M41.83,10.64c0.17,0.63,0.38,1.09,0.2,1.87c-1.08,4.53-1.8,8.28-2.97,12.54" id="Ske2np5341k" kvg:type="㇑a" transform="matrix(1,0,0,1,496,-4)" xmlns:kvg="http://kanjivg.tagaini.net"></path><path class="stroke_order_diagram--existing_path" d="M22.75,26.5c0.03,0.4,0.06,1.02-0.06,1.59c-0.68,3.35-4.59,11.19-9.94,15.69" id="Ske2np5341l" kvg:type="㇒" transform="matrix(1,0,0,1,496,-4)" xmlns:kvg="http://kanjivg.tagaini.net"></path><path class="stroke_order_diagram--existing_path" d="M21.69,32.95c0.54,0.32,2.26,0.35,3.17,0.21c3.39-0.49,16.25-1.83,18.36-2.2c2.77-0.49,4.6,0.79,4.28,3.84c-0.75,7.19-2,12.94-5.25,21.94c-1.71,4.73-5.01,2.11-6.3,0.77" id="Ske2np5341m" kvg:type="㇆" transform="matrix(1,0,0,1,496,-4)" xmlns:kvg="http://kanjivg.tagaini.net"></path><path class="stroke_order_diagram--current_path" d="M21.68,40.66c0.19,0.18,0.38,0.33,0.47,0.56c0.66,1.81,1.85,6.77,2.1,12" id="kvg:06aa0-s6" kvg:type="㇑" transform="matrix(1,0,0,1,496,-4)" xmlns:kvg="http://kanjivg.tagaini.net"></path><path class="stroke_order_diagram--current_path" d="M21.68,40.66c0.19,0.18,0.38,0.33,0.47,0.56c0.66,1.81,1.85,6.77,2.1,12" id="Ske2np5341o" kvg:type="㇑" transform="matrix(1,0,0,1,496,-4)" xmlns:kvg="http://kanjivg.tagaini.net"></path><circle class="stroke_order_diagram--path_start" cx="21.68" cy="40.66" r="4" transform="matrix(1,0,0,1,496,-4)"></circle><line class="stroke_order_diagram--guide_line" x1="650" x2="650" y1="1" y2="99"></line><line class="stroke_order_diagram--bounding_box" x1="699" x2="699" y1="1" y2="99"></line><path class="stroke_order_diagram--existing_path" d="M15.07,19.95c0.72,0.36,1.56,0.34,2.29,0.36c6.39,0.2,24.14-2.55,31.6-2.81c1.21-0.04,1.93,0.17,2.54,0.35" id="Ske2np5341r" kvg:type="㇐" transform="matrix(1,0,0,1,596,-4)" xmlns:kvg="http://kanjivg.tagaini.net"></path><path class="stroke_order_diagram--existing_path" d="M26.2,12.2c0.9,0.87,1.26,1.12,1.29,1.66c0.26,5.39,1.01,7.39,0.93,11.72" id="Ske2np5341s" kvg:type="㇑a" transform="matrix(1,0,0,1,596,-4)" xmlns:kvg="http://kanjivg.tagaini.net"></path><path class="stroke_order_diagram--existing_path" d="M41.83,10.64c0.17,0.63,0.38,1.09,0.2,1.87c-1.08,4.53-1.8,8.28-2.97,12.54" id="Ske2np5341t" kvg:type="㇑a" transform="matrix(1,0,0,1,596,-4)" xmlns:kvg="http://kanjivg.tagaini.net"></path><path class="stroke_order_diagram--existing_path" d="M22.75,26.5c0.03,0.4,0.06,1.02-0.06,1.59c-0.68,3.35-4.59,11.19-9.94,15.69" id="Ske2np5341u" kvg:type="㇒" transform="matrix(1,0,0,1,596,-4)" xmlns:kvg="http://kanjivg.tagaini.net"></path><path class="stroke_order_diagram--existing_path" d="M21.69,32.95c0.54,0.32,2.26,0.35,3.17,0.21c3.39-0.49,16.25-1.83,18.36-2.2c2.77-0.49,4.6,0.79,4.28,3.84c-0.75,7.19-2,12.94-5.25,21.94c-1.71,4.73-5.01,2.11-6.3,0.77" id="Ske2np5341v" kvg:type="㇆" transform="matrix(1,0,0,1,596,-4)" xmlns:kvg="http://kanjivg.tagaini.net"></path><path class="stroke_order_diagram--existing_path" d="M21.68,40.66c0.19,0.18,0.38,0.33,0.47,0.56c0.66,1.81,1.85,6.77,2.1,12" id="Ske2np5341w" kvg:type="㇑" transform="matrix(1,0,0,1,596,-4)" xmlns:kvg="http://kanjivg.tagaini.net"></path><path class="stroke_order_diagram--current_path" d="M22.91,42.1c4.88-1.02,9.64-2.03,12.27-2.3c0.96-0.1,1.6,0.47,1.4,1.4c-0.51,2.42-0.99,5.31-1.84,8.64" id="kvg:06aa0-s7" kvg:type="㇕b" transform="matrix(1,0,0,1,596,-4)" xmlns:kvg="http://kanjivg.tagaini.net"></path><path class="stroke_order_diagram--current_path" d="M22.91,42.1c4.88-1.02,9.64-2.03,12.27-2.3c0.96-0.1,1.6,0.47,1.4,1.4c-0.51,2.42-0.99,5.31-1.84,8.64" id="Ske2np5341y" kvg:type="㇕b" transform="matrix(1,0,0,1,596,-4)" xmlns:kvg="http://kanjivg.tagaini.net"></path><circle class="stroke_order_diagram--path_start" cx="22.91" cy="42.1" r="4" transform="matrix(1,0,0,1,596,-4)"></circle><line class="stroke_order_diagram--guide_line" x1="750" x2="750" y1="1" y2="99"></line><line class="stroke_order_diagram--bounding_box" x1="799" x2="799" y1="1" y2="99"></line><path class="stroke_order_diagram--existing_path" d="M15.07,19.95c0.72,0.36,1.56,0.34,2.29,0.36c6.39,0.2,24.14-2.55,31.6-2.81c1.21-0.04,1.93,0.17,2.54,0.35" id="Ske2np53421" kvg:type="㇐" transform="matrix(1,0,0,1,696,-4)" xmlns:kvg="http://kanjivg.tagaini.net"></path><path class="stroke_order_diagram--existing_path" d="M26.2,12.2c0.9,0.87,1.26,1.12,1.29,1.66c0.26,5.39,1.01,7.39,0.93,11.72" id="Ske2np53422" kvg:type="㇑a" transform="matrix(1,0,0,1,696,-4)" xmlns:kvg="http://kanjivg.tagaini.net"></path><path class="stroke_order_diagram--existing_path" d="M41.83,10.64c0.17,0.63,0.38,1.09,0.2,1.87c-1.08,4.53-1.8,8.28-2.97,12.54" id="Ske2np53423" kvg:type="㇑a" transform="matrix(1,0,0,1,696,-4)" xmlns:kvg="http://kanjivg.tagaini.net"></path><path class="stroke_order_diagram--existing_path" d="M22.75,26.5c0.03,0.4,0.06,1.02-0.06,1.59c-0.68,3.35-4.59,11.19-9.94,15.69" id="Ske2np53424" kvg:type="㇒" transform="matrix(1,0,0,1,696,-4)" xmlns:kvg="http://kanjivg.tagaini.net"></path><path class="stroke_order_diagram--existing_path" d="M21.69,32.95c0.54,0.32,2.26,0.35,3.17,0.21c3.39-0.49,16.25-1.83,18.36-2.2c2.77-0.49,4.6,0.79,4.28,3.84c-0.75,7.19-2,12.94-5.25,21.94c-1.71,4.73-5.01,2.11-6.3,0.77" id="Ske2np53425" kvg:type="㇆" transform="matrix(1,0,0,1,696,-4)" xmlns:kvg="http://kanjivg.tagaini.net"></path><path class="stroke_order_diagram--existing_path" d="M21.68,40.66c0.19,0.18,0.38,0.33,0.47,0.56c0.66,1.81,1.85,6.77,2.1,12" id="Ske2np53426" kvg:type="㇑" transform="matrix(1,0,0,1,696,-4)" xmlns:kvg="http://kanjivg.tagaini.net"></path><path class="stroke_order_diagram--existing_path" d="M22.91,42.1c4.88-1.02,9.64-2.03,12.27-2.3c0.96-0.1,1.6,0.47,1.4,1.4c-0.51,2.42-0.99,5.31-1.84,8.64" id="Ske2np53427" kvg:type="㇕b" transform="matrix(1,0,0,1,696,-4)" xmlns:kvg="http://kanjivg.tagaini.net"></path><path class="stroke_order_diagram--current_path" d="M24.37,51.51c3.09-0.31,7.32-0.83,11.57-1.3" id="kvg:06aa0-s8" kvg:type="㇐b" transform="matrix(1,0,0,1,696,-4)" xmlns:kvg="http://kanjivg.tagaini.net"></path><path class="stroke_order_diagram--current_path" d="M24.37,51.51c3.09-0.31,7.32-0.83,11.57-1.3" id="Ske2np53429" kvg:type="㇐b" transform="matrix(1,0,0,1,696,-4)" xmlns:kvg="http://kanjivg.tagaini.net"></path><circle class="stroke_order_diagram--path_start" cx="24.37" cy="51.51" r="4" transform="matrix(1,0,0,1,696,-4)"></circle><line class="stroke_order_diagram--guide_line" x1="850" x2="850" y1="1" y2="99"></line><line class="stroke_order_diagram--bounding_box" x1="899" x2="899" y1="1" y2="99"></line><path class="stroke_order_diagram--existing_path" d="M15.07,19.95c0.72,0.36,1.56,0.34,2.29,0.36c6.39,0.2,24.14-2.55,31.6-2.81c1.21-0.04,1.93,0.17,2.54,0.35" id="Ske2np5342c" kvg:type="㇐" transform="matrix(1,0,0,1,796,-4)" xmlns:kvg="http://kanjivg.tagaini.net"></path><path class="stroke_order_diagram--existing_path" d="M26.2,12.2c0.9,0.87,1.26,1.12,1.29,1.66c0.26,5.39,1.01,7.39,0.93,11.72" id="Ske2np5342d" kvg:type="㇑a" transform="matrix(1,0,0,1,796,-4)" xmlns:kvg="http://kanjivg.tagaini.net"></path><path class="stroke_order_diagram--existing_path" d="M41.83,10.64c0.17,0.63,0.38,1.09,0.2,1.87c-1.08,4.53-1.8,8.28-2.97,12.54" id="Ske2np5342e" kvg:type="㇑a" transform="matrix(1,0,0,1,796,-4)" xmlns:kvg="http://kanjivg.tagaini.net"></path><path class="stroke_order_diagram--existing_path" d="M22.75,26.5c0.03,0.4,0.06,1.02-0.06,1.59c-0.68,3.35-4.59,11.19-9.94,15.69" id="Ske2np5342f" kvg:type="㇒" transform="matrix(1,0,0,1,796,-4)" xmlns:kvg="http://kanjivg.tagaini.net"></path><path class="stroke_order_diagram--existing_path" d="M21.69,32.95c0.54,0.32,2.26,0.35,3.17,0.21c3.39-0.49,16.25-1.83,18.36-2.2c2.77-0.49,4.6,0.79,4.28,3.84c-0.75,7.19-2,12.94-5.25,21.94c-1.71,4.73-5.01,2.11-6.3,0.77" id="Ske2np5342g" kvg:type="㇆" transform="matrix(1,0,0,1,796,-4)" xmlns:kvg="http://kanjivg.tagaini.net"></path><path class="stroke_order_diagram--existing_path" d="M21.68,40.66c0.19,0.18,0.38,0.33,0.47,0.56c0.66,1.81,1.85,6.77,2.1,12" id="Ske2np5342h" kvg:type="㇑" transform="matrix(1,0,0,1,796,-4)" xmlns:kvg="http://kanjivg.tagaini.net"></path><path class="stroke_order_diagram--existing_path" d="M22.91,42.1c4.88-1.02,9.64-2.03,12.27-2.3c0.96-0.1,1.6,0.47,1.4,1.4c-0.51,2.42-0.99,5.31-1.84,8.64" id="Ske2np5342i" kvg:type="㇕b" transform="matrix(1,0,0,1,796,-4)" xmlns:kvg="http://kanjivg.tagaini.net"></path><path class="stroke_order_diagram--existing_path" d="M24.37,51.51c3.09-0.31,7.32-0.83,11.57-1.3" id="Ske2np5342j" kvg:type="㇐b" transform="matrix(1,0,0,1,796,-4)" xmlns:kvg="http://kanjivg.tagaini.net"></path><path class="stroke_order_diagram--current_path" d="M64.69,10.64c0.03,0.6,0.18,1.57-0.06,2.39c-1.55,5.26-5.03,15.63-10.39,22.91" id="kvg:06aa0-s9" kvg:type="㇒" transform="matrix(1,0,0,1,796,-4)" xmlns:kvg="http://kanjivg.tagaini.net"></path><path class="stroke_order_diagram--current_path" d="M64.69,10.64c0.03,0.6,0.18,1.57-0.06,2.39c-1.55,5.26-5.03,15.63-10.39,22.91" id="Ske2np5342l" kvg:type="㇒" transform="matrix(1,0,0,1,796,-4)" xmlns:kvg="http://kanjivg.tagaini.net"></path><circle class="stroke_order_diagram--path_start" cx="64.69" cy="10.64" r="4" transform="matrix(1,0,0,1,796,-4)"></circle><line class="stroke_order_diagram--guide_line" x1="950" x2="950" y1="1" y2="99"></line><line class="stroke_order_diagram--bounding_box" x1="999" x2="999" y1="1" y2="99"></line><path class="stroke_order_diagram--existing_path" d="M15.07,19.95c0.72,0.36,1.56,0.34,2.29,0.36c6.39,0.2,24.14-2.55,31.6-2.81c1.21-0.04,1.93,0.17,2.54,0.35" id="Ske2np5342o" kvg:type="㇐" transform="matrix(1,0,0,1,896,-4)" xmlns:kvg="http://kanjivg.tagaini.net"></path><path class="stroke_order_diagram--existing_path" d="M26.2,12.2c0.9,0.87,1.26,1.12,1.29,1.66c0.26,5.39,1.01,7.39,0.93,11.72" id="Ske2np5342p" kvg:type="㇑a" transform="matrix(1,0,0,1,896,-4)" xmlns:kvg="http://kanjivg.tagaini.net"></path><path class="stroke_order_diagram--existing_path" d="M41.83,10.64c0.17,0.63,0.38,1.09,0.2,1.87c-1.08,4.53-1.8,8.28-2.97,12.54" id="Ske2np5342q" kvg:type="㇑a" transform="matrix(1,0,0,1,896,-4)" xmlns:kvg="http://kanjivg.tagaini.net"></path><path class="stroke_order_diagram--existing_path" d="M22.75,26.5c0.03,0.4,0.06,1.02-0.06,1.59c-0.68,3.35-4.59,11.19-9.94,15.69" id="Ske2np5342r" kvg:type="㇒" transform="matrix(1,0,0,1,896,-4)" xmlns:kvg="http://kanjivg.tagaini.net"></path><path class="stroke_order_diagram--existing_path" d="M21.69,32.95c0.54,0.32,2.26,0.35,3.17,0.21c3.39-0.49,16.25-1.83,18.36-2.2c2.77-0.49,4.6,0.79,4.28,3.84c-0.75,7.19-2,12.94-5.25,21.94c-1.71,4.73-5.01,2.11-6.3,0.77" id="Ske2np5342s" kvg:type="㇆" transform="matrix(1,0,0,1,896,-4)" xmlns:kvg="http://kanjivg.tagaini.net"></path><path class="stroke_order_diagram--existing_path" d="M21.68,40.66c0.19,0.18,0.38,0.33,0.47,0.56c0.66,1.81,1.85,6.77,2.1,12" id="Ske2np5342t" kvg:type="㇑" transform="matrix(1,0,0,1,896,-4)" xmlns:kvg="http://kanjivg.tagaini.net"></path><path class="stroke_order_diagram--existing_path" d="M22.91,42.1c4.88-1.02,9.64-2.03,12.27-2.3c0.96-0.1,1.6,0.47,1.4,1.4c-0.51,2.42-0.99,5.31-1.84,8.64" id="Ske2np5342u" kvg:type="㇕b" transform="matrix(1,0,0,1,896,-4)" xmlns:kvg="http://kanjivg.tagaini.net"></path><path class="stroke_order_diagram--existing_path" d="M24.37,51.51c3.09-0.31,7.32-0.83,11.57-1.3" id="Ske2np5342v" kvg:type="㇐b" transform="matrix(1,0,0,1,896,-4)" xmlns:kvg="http://kanjivg.tagaini.net"></path><path class="stroke_order_diagram--existing_path" d="M64.69,10.64c0.03,0.6,0.18,1.57-0.06,2.39c-1.55,5.26-5.03,15.63-10.39,22.91" id="Ske2np5342w" kvg:type="㇒" transform="matrix(1,0,0,1,896,-4)" xmlns:kvg="http://kanjivg.tagaini.net"></path><path class="stroke_order_diagram--current_path" d="M64.08,24.37c0.53,0.28,1.49,0.32,2.02,0.28c5.47-0.33,13.83-1.41,20.4-2.87c0.91-0.2,2.61-0.01,2.85,0.05" id="kvg:06aa0-s10" kvg:type="㇐" transform="matrix(1,0,0,1,896,-4)" xmlns:kvg="http://kanjivg.tagaini.net"></path><path class="stroke_order_diagram--current_path" d="M64.08,24.37c0.53,0.28,1.49,0.32,2.02,0.28c5.47-0.33,13.83-1.41,20.4-2.87c0.91-0.2,2.61-0.01,2.85,0.05" id="Ske2np5342y" kvg:type="㇐" transform="matrix(1,0,0,1,896,-4)" xmlns:kvg="http://kanjivg.tagaini.net"></path><circle class="stroke_order_diagram--path_start" cx="64.08" cy="24.37" r="4" transform="matrix(1,0,0,1,896,-4)"></circle><line class="stroke_order_diagram--guide_line" x1="1050" x2="1050" y1="1" y2="99"></line><line class="stroke_order_diagram--bounding_box" x1="1099" x2="1099" y1="1" y2="99"></line><path class="stroke_order_diagram--existing_path" d="M15.07,19.95c0.72,0.36,1.56,0.34,2.29,0.36c6.39,0.2,24.14-2.55,31.6-2.81c1.21-0.04,1.93,0.17,2.54,0.35" id="Ske2np53431" kvg:type="㇐" transform="matrix(1,0,0,1,996,-4)" xmlns:kvg="http://kanjivg.tagaini.net"></path><path class="stroke_order_diagram--existing_path" d="M26.2,12.2c0.9,0.87,1.26,1.12,1.29,1.66c0.26,5.39,1.01,7.39,0.93,11.72" id="Ske2np53432" kvg:type="㇑a" transform="matrix(1,0,0,1,996,-4)" xmlns:kvg="http://kanjivg.tagaini.net"></path><path class="stroke_order_diagram--existing_path" d="M41.83,10.64c0.17,0.63,0.38,1.09,0.2,1.87c-1.08,4.53-1.8,8.28-2.97,12.54" id="Ske2np53433" kvg:type="㇑a" transform="matrix(1,0,0,1,996,-4)" xmlns:kvg="http://kanjivg.tagaini.net"></path><path class="stroke_order_diagram--existing_path" d="M22.75,26.5c0.03,0.4,0.06,1.02-0.06,1.59c-0.68,3.35-4.59,11.19-9.94,15.69" id="Ske2np53434" kvg:type="㇒" transform="matrix(1,0,0,1,996,-4)" xmlns:kvg="http://kanjivg.tagaini.net"></path><path class="stroke_order_diagram--existing_path" d="M21.69,32.95c0.54,0.32,2.26,0.35,3.17,0.21c3.39-0.49,16.25-1.83,18.36-2.2c2.77-0.49,4.6,0.79,4.28,3.84c-0.75,7.19-2,12.94-5.25,21.94c-1.71,4.73-5.01,2.11-6.3,0.77" id="Ske2np53435" kvg:type="㇆" transform="matrix(1,0,0,1,996,-4)" xmlns:kvg="http://kanjivg.tagaini.net"></path><path class="stroke_order_diagram--existing_path" d="M21.68,40.66c0.19,0.18,0.38,0.33,0.47,0.56c0.66,1.81,1.85,6.77,2.1,12" id="Ske2np53436" kvg:type="㇑" transform="matrix(1,0,0,1,996,-4)" xmlns:kvg="http://kanjivg.tagaini.net"></path><path class="stroke_order_diagram--existing_path" d="M22.91,42.1c4.88-1.02,9.64-2.03,12.27-2.3c0.96-0.1,1.6,0.47,1.4,1.4c-0.51,2.42-0.99,5.31-1.84,8.64" id="Ske2np53437" kvg:type="㇕b" transform="matrix(1,0,0,1,996,-4)" xmlns:kvg="http://kanjivg.tagaini.net"></path><path class="stroke_order_diagram--existing_path" d="M24.37,51.51c3.09-0.31,7.32-0.83,11.57-1.3" id="Ske2np53438" kvg:type="㇐b" transform="matrix(1,0,0,1,996,-4)" xmlns:kvg="http://kanjivg.tagaini.net"></path><path class="stroke_order_diagram--existing_path" d="M64.69,10.64c0.03,0.6,0.18,1.57-0.06,2.39c-1.55,5.26-5.03,15.63-10.39,22.91" id="Ske2np53439" kvg:type="㇒" transform="matrix(1,0,0,1,996,-4)" xmlns:kvg="http://kanjivg.tagaini.net"></path><path class="stroke_order_diagram--existing_path" d="M64.08,24.37c0.53,0.28,1.49,0.32,2.02,0.28c5.47-0.33,13.83-1.41,20.4-2.87c0.91-0.2,2.61-0.01,2.85,0.05" id="Ske2np5343a" kvg:type="㇐" transform="matrix(1,0,0,1,996,-4)" xmlns:kvg="http://kanjivg.tagaini.net"></path><path class="stroke_order_diagram--current_path" d="M78.28,28.28c0.31,0.62,0.65,1.12,0.16,2.19C74.25,39.5,70,46.5,59.08,53.5" id="kvg:06aa0-s11" kvg:type="㇒" transform="matrix(1,0,0,1,996,-4)" xmlns:kvg="http://kanjivg.tagaini.net"></path><path class="stroke_order_diagram--current_path" d="M78.28,28.28c0.31,0.62,0.65,1.12,0.16,2.19C74.25,39.5,70,46.5,59.08,53.5" id="Ske2np5343c" kvg:type="㇒" transform="matrix(1,0,0,1,996,-4)" xmlns:kvg="http://kanjivg.tagaini.net"></path><circle class="stroke_order_diagram--path_start" cx="78.28" cy="28.28" r="4" transform="matrix(1,0,0,1,996,-4)"></circle><line class="stroke_order_diagram--guide_line" x1="1150" x2="1150" y1="1" y2="99"></line><line class="stroke_order_diagram--bounding_box" x1="1199" x2="1199" y1="1" y2="99"></line><path class="stroke_order_diagram--existing_path" d="M15.07,19.95c0.72,0.36,1.56,0.34,2.29,0.36c6.39,0.2,24.14-2.55,31.6-2.81c1.21-0.04,1.93,0.17,2.54,0.35" id="Ske2np5343f" kvg:type="㇐" transform="matrix(1,0,0,1,1096,-4)" xmlns:kvg="http://kanjivg.tagaini.net"></path><path class="stroke_order_diagram--existing_path" d="M26.2,12.2c0.9,0.87,1.26,1.12,1.29,1.66c0.26,5.39,1.01,7.39,0.93,11.72" id="Ske2np5343g" kvg:type="㇑a" transform="matrix(1,0,0,1,1096,-4)" xmlns:kvg="http://kanjivg.tagaini.net"></path><path class="stroke_order_diagram--existing_path" d="M41.83,10.64c0.17,0.63,0.38,1.09,0.2,1.87c-1.08,4.53-1.8,8.28-2.97,12.54" id="Ske2np5343h" kvg:type="㇑a" transform="matrix(1,0,0,1,1096,-4)" xmlns:kvg="http://kanjivg.tagaini.net"></path><path class="stroke_order_diagram--existing_path" d="M22.75,26.5c0.03,0.4,0.06,1.02-0.06,1.59c-0.68,3.35-4.59,11.19-9.94,15.69" id="Ske2np5343i" kvg:type="㇒" transform="matrix(1,0,0,1,1096,-4)" xmlns:kvg="http://kanjivg.tagaini.net"></path><path class="stroke_order_diagram--existing_path" d="M21.69,32.95c0.54,0.32,2.26,0.35,3.17,0.21c3.39-0.49,16.25-1.83,18.36-2.2c2.77-0.49,4.6,0.79,4.28,3.84c-0.75,7.19-2,12.94-5.25,21.94c-1.71,4.73-5.01,2.11-6.3,0.77" id="Ske2np5343j" kvg:type="㇆" transform="matrix(1,0,0,1,1096,-4)" xmlns:kvg="http://kanjivg.tagaini.net"></path><path class="stroke_order_diagram--existing_path" d="M21.68,40.66c0.19,0.18,0.38,0.33,0.47,0.56c0.66,1.81,1.85,6.77,2.1,12" id="Ske2np5343k" kvg:type="㇑" transform="matrix(1,0,0,1,1096,-4)" xmlns:kvg="http://kanjivg.tagaini.net"></path><path class="stroke_order_diagram--existing_path" d="M22.91,42.1c4.88-1.02,9.64-2.03,12.27-2.3c0.96-0.1,1.6,0.47,1.4,1.4c-0.51,2.42-0.99,5.31-1.84,8.64" id="Ske2np5343l" kvg:type="㇕b" transform="matrix(1,0,0,1,1096,-4)" xmlns:kvg="http://kanjivg.tagaini.net"></path><path class="stroke_order_diagram--existing_path" d="M24.37,51.51c3.09-0.31,7.32-0.83,11.57-1.3" id="Ske2np5343m" kvg:type="㇐b" transform="matrix(1,0,0,1,1096,-4)" xmlns:kvg="http://kanjivg.tagaini.net"></path><path class="stroke_order_diagram--existing_path" d="M64.69,10.64c0.03,0.6,0.18,1.57-0.06,2.39c-1.55,5.26-5.03,15.63-10.39,22.91" id="Ske2np5343n" kvg:type="㇒" transform="matrix(1,0,0,1,1096,-4)" xmlns:kvg="http://kanjivg.tagaini.net"></path><path class="stroke_order_diagram--existing_path" d="M64.08,24.37c0.53,0.28,1.49,0.32,2.02,0.28c5.47-0.33,13.83-1.41,20.4-2.87c0.91-0.2,2.61-0.01,2.85,0.05" id="Ske2np5343o" kvg:type="㇐" transform="matrix(1,0,0,1,1096,-4)" xmlns:kvg="http://kanjivg.tagaini.net"></path><path class="stroke_order_diagram--existing_path" d="M78.28,28.28c0.31,0.62,0.65,1.12,0.16,2.19C74.25,39.5,70,46.5,59.08,53.5" id="Ske2np5343p" kvg:type="㇒" transform="matrix(1,0,0,1,1096,-4)" xmlns:kvg="http://kanjivg.tagaini.net"></path><path class="stroke_order_diagram--current_path" d="M59.15,32.96c5.72,2.83,20.74,18.58,29.48,23.58c1.68,0.96,2.75,1.12,4.13,1.22" id="kvg:06aa0-s12" kvg:type="㇏" transform="matrix(1,0,0,1,1096,-4)" xmlns:kvg="http://kanjivg.tagaini.net"></path><path class="stroke_order_diagram--current_path" d="M59.15,32.96c5.72,2.83,20.74,18.58,29.48,23.58c1.68,0.96,2.75,1.12,4.13,1.22" id="Ske2np5343r" kvg:type="㇏" transform="matrix(1,0,0,1,1096,-4)" xmlns:kvg="http://kanjivg.tagaini.net"></path><circle class="stroke_order_diagram--path_start" cx="59.15" cy="32.96" r="4" transform="matrix(1,0,0,1,1096,-4)"></circle><line class="stroke_order_diagram--guide_line" x1="1250" x2="1250" y1="1" y2="99"></line><line class="stroke_order_diagram--bounding_box" x1="1299" x2="1299" y1="1" y2="99"></line><path class="stroke_order_diagram--existing_path" d="M15.07,19.95c0.72,0.36,1.56,0.34,2.29,0.36c6.39,0.2,24.14-2.55,31.6-2.81c1.21-0.04,1.93,0.17,2.54,0.35" id="Ske2np5343u" kvg:type="㇐" transform="matrix(1,0,0,1,1196,-4)" xmlns:kvg="http://kanjivg.tagaini.net"></path><path class="stroke_order_diagram--existing_path" d="M26.2,12.2c0.9,0.87,1.26,1.12,1.29,1.66c0.26,5.39,1.01,7.39,0.93,11.72" id="Ske2np5343v" kvg:type="㇑a" transform="matrix(1,0,0,1,1196,-4)" xmlns:kvg="http://kanjivg.tagaini.net"></path><path class="stroke_order_diagram--existing_path" d="M41.83,10.64c0.17,0.63,0.38,1.09,0.2,1.87c-1.08,4.53-1.8,8.28-2.97,12.54" id="Ske2np5343w" kvg:type="㇑a" transform="matrix(1,0,0,1,1196,-4)" xmlns:kvg="http://kanjivg.tagaini.net"></path><path class="stroke_order_diagram--existing_path" d="M22.75,26.5c0.03,0.4,0.06,1.02-0.06,1.59c-0.68,3.35-4.59,11.19-9.94,15.69" id="Ske2np5343x" kvg:type="㇒" transform="matrix(1,0,0,1,1196,-4)" xmlns:kvg="http://kanjivg.tagaini.net"></path><path class="stroke_order_diagram--existing_path" d="M21.69,32.95c0.54,0.32,2.26,0.35,3.17,0.21c3.39-0.49,16.25-1.83,18.36-2.2c2.77-0.49,4.6,0.79,4.28,3.84c-0.75,7.19-2,12.94-5.25,21.94c-1.71,4.73-5.01,2.11-6.3,0.77" id="Ske2np5343y" kvg:type="㇆" transform="matrix(1,0,0,1,1196,-4)" xmlns:kvg="http://kanjivg.tagaini.net"></path><path class="stroke_order_diagram--existing_path" d="M21.68,40.66c0.19,0.18,0.38,0.33,0.47,0.56c0.66,1.81,1.85,6.77,2.1,12" id="Ske2np5343z" kvg:type="㇑" transform="matrix(1,0,0,1,1196,-4)" xmlns:kvg="http://kanjivg.tagaini.net"></path><path class="stroke_order_diagram--existing_path" d="M22.91,42.1c4.88-1.02,9.64-2.03,12.27-2.3c0.96-0.1,1.6,0.47,1.4,1.4c-0.51,2.42-0.99,5.31-1.84,8.64" id="Ske2np53440" kvg:type="㇕b" transform="matrix(1,0,0,1,1196,-4)" xmlns:kvg="http://kanjivg.tagaini.net"></path><path class="stroke_order_diagram--existing_path" d="M24.37,51.51c3.09-0.31,7.32-0.83,11.57-1.3" id="Ske2np53441" kvg:type="㇐b" transform="matrix(1,0,0,1,1196,-4)" xmlns:kvg="http://kanjivg.tagaini.net"></path><path class="stroke_order_diagram--existing_path" d="M64.69,10.64c0.03,0.6,0.18,1.57-0.06,2.39c-1.55,5.26-5.03,15.63-10.39,22.91" id="Ske2np53442" kvg:type="㇒" transform="matrix(1,0,0,1,1196,-4)" xmlns:kvg="http://kanjivg.tagaini.net"></path><path class="stroke_order_diagram--existing_path" d="M64.08,24.37c0.53,0.28,1.49,0.32,2.02,0.28c5.47-0.33,13.83-1.41,20.4-2.87c0.91-0.2,2.61-0.01,2.85,0.05" id="Ske2np53443" kvg:type="㇐" transform="matrix(1,0,0,1,1196,-4)" xmlns:kvg="http://kanjivg.tagaini.net"></path><path class="stroke_order_diagram--existing_path" d="M78.28,28.28c0.31,0.62,0.65,1.12,0.16,2.19C74.25,39.5,70,46.5,59.08,53.5" id="Ske2np53444" kvg:type="㇒" transform="matrix(1,0,0,1,1196,-4)" xmlns:kvg="http://kanjivg.tagaini.net"></path><path class="stroke_order_diagram--existing_path" d="M59.15,32.96c5.72,2.83,20.74,18.58,29.48,23.58c1.68,0.96,2.75,1.12,4.13,1.22" id="Ske2np53445" kvg:type="㇏" transform="matrix(1,0,0,1,1196,-4)" xmlns:kvg="http://kanjivg.tagaini.net"></path><path class="stroke_order_diagram--current_path" d="M18.25,68.82c1.91,0.39,4.08,0.51,6.27,0.39c11.17-0.63,43.61-2.82,60.51-3.57c2.18-0.09,3.54,0.07,5.72,0.34" id="kvg:06aa0-s13" kvg:type="㇐" transform="matrix(1,0,0,1,1196,-4)" xmlns:kvg="http://kanjivg.tagaini.net"></path><path class="stroke_order_diagram--current_path" d="M18.25,68.82c1.91,0.39,4.08,0.51,6.27,0.39c11.17-0.63,43.61-2.82,60.51-3.57c2.18-0.09,3.54,0.07,5.72,0.34" id="Ske2np53447" kvg:type="㇐" transform="matrix(1,0,0,1,1196,-4)" xmlns:kvg="http://kanjivg.tagaini.net"></path><circle class="stroke_order_diagram--path_start" cx="18.25" cy="68.82" r="4" transform="matrix(1,0,0,1,1196,-4)"></circle><line class="stroke_order_diagram--guide_line" x1="1350" x2="1350" y1="1" y2="99"></line><line class="stroke_order_diagram--bounding_box" x1="1399" x2="1399" y1="1" y2="99"></line><path class="stroke_order_diagram--existing_path" d="M15.07,19.95c0.72,0.36,1.56,0.34,2.29,0.36c6.39,0.2,24.14-2.55,31.6-2.81c1.21-0.04,1.93,0.17,2.54,0.35" id="Ske2np5344a" kvg:type="㇐" transform="matrix(1,0,0,1,1296,-4)" xmlns:kvg="http://kanjivg.tagaini.net"></path><path class="stroke_order_diagram--existing_path" d="M26.2,12.2c0.9,0.87,1.26,1.12,1.29,1.66c0.26,5.39,1.01,7.39,0.93,11.72" id="Ske2np5344b" kvg:type="㇑a" transform="matrix(1,0,0,1,1296,-4)" xmlns:kvg="http://kanjivg.tagaini.net"></path><path class="stroke_order_diagram--existing_path" d="M41.83,10.64c0.17,0.63,0.38,1.09,0.2,1.87c-1.08,4.53-1.8,8.28-2.97,12.54" id="Ske2np5344c" kvg:type="㇑a" transform="matrix(1,0,0,1,1296,-4)" xmlns:kvg="http://kanjivg.tagaini.net"></path><path class="stroke_order_diagram--existing_path" d="M22.75,26.5c0.03,0.4,0.06,1.02-0.06,1.59c-0.68,3.35-4.59,11.19-9.94,15.69" id="Ske2np5344d" kvg:type="㇒" transform="matrix(1,0,0,1,1296,-4)" xmlns:kvg="http://kanjivg.tagaini.net"></path><path class="stroke_order_diagram--existing_path" d="M21.69,32.95c0.54,0.32,2.26,0.35,3.17,0.21c3.39-0.49,16.25-1.83,18.36-2.2c2.77-0.49,4.6,0.79,4.28,3.84c-0.75,7.19-2,12.94-5.25,21.94c-1.71,4.73-5.01,2.11-6.3,0.77" id="Ske2np5344e" kvg:type="㇆" transform="matrix(1,0,0,1,1296,-4)" xmlns:kvg="http://kanjivg.tagaini.net"></path><path class="stroke_order_diagram--existing_path" d="M21.68,40.66c0.19,0.18,0.38,0.33,0.47,0.56c0.66,1.81,1.85,6.77,2.1,12" id="Ske2np5344f" kvg:type="㇑" transform="matrix(1,0,0,1,1296,-4)" xmlns:kvg="http://kanjivg.tagaini.net"></path><path class="stroke_order_diagram--existing_path" d="M22.91,42.1c4.88-1.02,9.64-2.03,12.27-2.3c0.96-0.1,1.6,0.47,1.4,1.4c-0.51,2.42-0.99,5.31-1.84,8.64" id="Ske2np5344g" kvg:type="㇕b" transform="matrix(1,0,0,1,1296,-4)" xmlns:kvg="http://kanjivg.tagaini.net"></path><path class="stroke_order_diagram--existing_path" d="M24.37,51.51c3.09-0.31,7.32-0.83,11.57-1.3" id="Ske2np5344h" kvg:type="㇐b" transform="matrix(1,0,0,1,1296,-4)" xmlns:kvg="http://kanjivg.tagaini.net"></path><path class="stroke_order_diagram--existing_path" d="M64.69,10.64c0.03,0.6,0.18,1.57-0.06,2.39c-1.55,5.26-5.03,15.63-10.39,22.91" id="Ske2np5344i" kvg:type="㇒" transform="matrix(1,0,0,1,1296,-4)" xmlns:kvg="http://kanjivg.tagaini.net"></path><path class="stroke_order_diagram--existing_path" d="M64.08,24.37c0.53,0.28,1.49,0.32,2.02,0.28c5.47-0.33,13.83-1.41,20.4-2.87c0.91-0.2,2.61-0.01,2.85,0.05" id="Ske2np5344j" kvg:type="㇐" transform="matrix(1,0,0,1,1296,-4)" xmlns:kvg="http://kanjivg.tagaini.net"></path><path class="stroke_order_diagram--existing_path" d="M78.28,28.28c0.31,0.62,0.65,1.12,0.16,2.19C74.25,39.5,70,46.5,59.08,53.5" id="Ske2np5344k" kvg:type="㇒" transform="matrix(1,0,0,1,1296,-4)" xmlns:kvg="http://kanjivg.tagaini.net"></path><path class="stroke_order_diagram--existing_path" d="M59.15,32.96c5.72,2.83,20.74,18.58,29.48,23.58c1.68,0.96,2.75,1.12,4.13,1.22" id="Ske2np5344l" kvg:type="㇏" transform="matrix(1,0,0,1,1296,-4)" xmlns:kvg="http://kanjivg.tagaini.net"></path><path class="stroke_order_diagram--existing_path" d="M18.25,68.82c1.91,0.39,4.08,0.51,6.27,0.39c11.17-0.63,43.61-2.82,60.51-3.57c2.18-0.09,3.54,0.07,5.72,0.34" id="Ske2np5344m" kvg:type="㇐" transform="matrix(1,0,0,1,1296,-4)" xmlns:kvg="http://kanjivg.tagaini.net"></path><path class="stroke_order_diagram--current_path" d="M52.25,55.25c1.25,0.5,2.25,2.22,2.25,3.25c0,10.5,0,34.75-0.25,41" id="kvg:06aa0-s14" kvg:type="㇑" transform="matrix(1,0,0,1,1296,-4)" xmlns:kvg="http://kanjivg.tagaini.net"></path><path class="stroke_order_diagram--current_path" d="M52.25,55.25c1.25,0.5,2.25,2.22,2.25,3.25c0,10.5,0,34.75-0.25,41" id="Ske2np5344o" kvg:type="㇑" transform="matrix(1,0,0,1,1296,-4)" xmlns:kvg="http://kanjivg.tagaini.net"></path><circle class="stroke_order_diagram--path_start" cx="52.25" cy="55.25" r="4" transform="matrix(1,0,0,1,1296,-4)"></circle><line class="stroke_order_diagram--guide_line" x1="1450" x2="1450" y1="1" y2="99"></line><line class="stroke_order_diagram--bounding_box" x1="1499" x2="1499" y1="1" y2="99"></line><path class="stroke_order_diagram--existing_path" d="M15.07,19.95c0.72,0.36,1.56,0.34,2.29,0.36c6.39,0.2,24.14-2.55,31.6-2.81c1.21-0.04,1.93,0.17,2.54,0.35" id="Ske2np5344r" kvg:type="㇐" transform="matrix(1,0,0,1,1396,-4)" xmlns:kvg="http://kanjivg.tagaini.net"></path><path class="stroke_order_diagram--existing_path" d="M26.2,12.2c0.9,0.87,1.26,1.12,1.29,1.66c0.26,5.39,1.01,7.39,0.93,11.72" id="Ske2np5344s" kvg:type="㇑a" transform="matrix(1,0,0,1,1396,-4)" xmlns:kvg="http://kanjivg.tagaini.net"></path><path class="stroke_order_diagram--existing_path" d="M41.83,10.64c0.17,0.63,0.38,1.09,0.2,1.87c-1.08,4.53-1.8,8.28-2.97,12.54" id="Ske2np5344t" kvg:type="㇑a" transform="matrix(1,0,0,1,1396,-4)" xmlns:kvg="http://kanjivg.tagaini.net"></path><path class="stroke_order_diagram--existing_path" d="M22.75,26.5c0.03,0.4,0.06,1.02-0.06,1.59c-0.68,3.35-4.59,11.19-9.94,15.69" id="Ske2np5344u" kvg:type="㇒" transform="matrix(1,0,0,1,1396,-4)" xmlns:kvg="http://kanjivg.tagaini.net"></path><path class="stroke_order_diagram--existing_path" d="M21.69,32.95c0.54,0.32,2.26,0.35,3.17,0.21c3.39-0.49,16.25-1.83,18.36-2.2c2.77-0.49,4.6,0.79,4.28,3.84c-0.75,7.19-2,12.94-5.25,21.94c-1.71,4.73-5.01,2.11-6.3,0.77" id="Ske2np5344v" kvg:type="㇆" transform="matrix(1,0,0,1,1396,-4)" xmlns:kvg="http://kanjivg.tagaini.net"></path><path class="stroke_order_diagram--existing_path" d="M21.68,40.66c0.19,0.18,0.38,0.33,0.47,0.56c0.66,1.81,1.85,6.77,2.1,12" id="Ske2np5344w" kvg:type="㇑" transform="matrix(1,0,0,1,1396,-4)" xmlns:kvg="http://kanjivg.tagaini.net"></path><path class="stroke_order_diagram--existing_path" d="M22.91,42.1c4.88-1.02,9.64-2.03,12.27-2.3c0.96-0.1,1.6,0.47,1.4,1.4c-0.51,2.42-0.99,5.31-1.84,8.64" id="Ske2np5344x" kvg:type="㇕b" transform="matrix(1,0,0,1,1396,-4)" xmlns:kvg="http://kanjivg.tagaini.net"></path><path class="stroke_order_diagram--existing_path" d="M24.37,51.51c3.09-0.31,7.32-0.83,11.57-1.3" id="Ske2np5344y" kvg:type="㇐b" transform="matrix(1,0,0,1,1396,-4)" xmlns:kvg="http://kanjivg.tagaini.net"></path><path class="stroke_order_diagram--existing_path" d="M64.69,10.64c0.03,0.6,0.18,1.57-0.06,2.39c-1.55,5.26-5.03,15.63-10.39,22.91" id="Ske2np5344z" kvg:type="㇒" transform="matrix(1,0,0,1,1396,-4)" xmlns:kvg="http://kanjivg.tagaini.net"></path><path class="stroke_order_diagram--existing_path" d="M64.08,24.37c0.53,0.28,1.49,0.32,2.02,0.28c5.47-0.33,13.83-1.41,20.4-2.87c0.91-0.2,2.61-0.01,2.85,0.05" id="Ske2np53450" kvg:type="㇐" transform="matrix(1,0,0,1,1396,-4)" xmlns:kvg="http://kanjivg.tagaini.net"></path><path class="stroke_order_diagram--existing_path" d="M78.28,28.28c0.31,0.62,0.65,1.12,0.16,2.19C74.25,39.5,70,46.5,59.08,53.5" id="Ske2np53451" kvg:type="㇒" transform="matrix(1,0,0,1,1396,-4)" xmlns:kvg="http://kanjivg.tagaini.net"></path><path class="stroke_order_diagram--existing_path" d="M59.15,32.96c5.72,2.83,20.74,18.58,29.48,23.58c1.68,0.96,2.75,1.12,4.13,1.22" id="Ske2np53452" kvg:type="㇏" transform="matrix(1,0,0,1,1396,-4)" xmlns:kvg="http://kanjivg.tagaini.net"></path><path class="stroke_order_diagram--existing_path" d="M18.25,68.82c1.91,0.39,4.08,0.51,6.27,0.39c11.17-0.63,43.61-2.82,60.51-3.57c2.18-0.09,3.54,0.07,5.72,0.34" id="Ske2np53453" kvg:type="㇐" transform="matrix(1,0,0,1,1396,-4)" xmlns:kvg="http://kanjivg.tagaini.net"></path><path class="stroke_order_diagram--existing_path" d="M52.25,55.25c1.25,0.5,2.25,2.22,2.25,3.25c0,10.5,0,34.75-0.25,41" id="Ske2np53454" kvg:type="㇑" transform="matrix(1,0,0,1,1396,-4)" xmlns:kvg="http://kanjivg.tagaini.net"></path><path class="stroke_order_diagram--current_path" d="M51.25,67.75c-6.25,8.64-23,21.86-36,26.75" id="kvg:06aa0-s15" kvg:type="㇒" transform="matrix(1,0,0,1,1396,-4)" xmlns:kvg="http://kanjivg.tagaini.net"></path><path class="stroke_order_diagram--current_path" d="M51.25,67.75c-6.25,8.64-23,21.86-36,26.75" id="Ske2np53456" kvg:type="㇒" transform="matrix(1,0,0,1,1396,-4)" xmlns:kvg="http://kanjivg.tagaini.net"></path><circle class="stroke_order_diagram--path_start" cx="51.25" cy="67.75" r="4" transform="matrix(1,0,0,1,1396,-4)"></circle><line class="stroke_order_diagram--guide_line" x1="1550" x2="1550" y1="1" y2="99"></line><line class="stroke_order_diagram--bounding_box" x1="1599" x2="1599" y1="1" y2="99"></line><path class="stroke_order_diagram--existing_path" d="M15.07,19.95c0.72,0.36,1.56,0.34,2.29,0.36c6.39,0.2,24.14-2.55,31.6-2.81c1.21-0.04,1.93,0.17,2.54,0.35" id="Ske2np53459" kvg:type="㇐" transform="matrix(1,0,0,1,1496,-4)" xmlns:kvg="http://kanjivg.tagaini.net"></path><path class="stroke_order_diagram--existing_path" d="M26.2,12.2c0.9,0.87,1.26,1.12,1.29,1.66c0.26,5.39,1.01,7.39,0.93,11.72" id="Ske2np5345a" kvg:type="㇑a" transform="matrix(1,0,0,1,1496,-4)" xmlns:kvg="http://kanjivg.tagaini.net"></path><path class="stroke_order_diagram--existing_path" d="M41.83,10.64c0.17,0.63,0.38,1.09,0.2,1.87c-1.08,4.53-1.8,8.28-2.97,12.54" id="Ske2np5345b" kvg:type="㇑a" transform="matrix(1,0,0,1,1496,-4)" xmlns:kvg="http://kanjivg.tagaini.net"></path><path class="stroke_order_diagram--existing_path" d="M22.75,26.5c0.03,0.4,0.06,1.02-0.06,1.59c-0.68,3.35-4.59,11.19-9.94,15.69" id="Ske2np5345c" kvg:type="㇒" transform="matrix(1,0,0,1,1496,-4)" xmlns:kvg="http://kanjivg.tagaini.net"></path><path class="stroke_order_diagram--existing_path" d="M21.69,32.95c0.54,0.32,2.26,0.35,3.17,0.21c3.39-0.49,16.25-1.83,18.36-2.2c2.77-0.49,4.6,0.79,4.28,3.84c-0.75,7.19-2,12.94-5.25,21.94c-1.71,4.73-5.01,2.11-6.3,0.77" id="Ske2np5345d" kvg:type="㇆" transform="matrix(1,0,0,1,1496,-4)" xmlns:kvg="http://kanjivg.tagaini.net"></path><path class="stroke_order_diagram--existing_path" d="M21.68,40.66c0.19,0.18,0.38,0.33,0.47,0.56c0.66,1.81,1.85,6.77,2.1,12" id="Ske2np5345e" kvg:type="㇑" transform="matrix(1,0,0,1,1496,-4)" xmlns:kvg="http://kanjivg.tagaini.net"></path><path class="stroke_order_diagram--existing_path" d="M22.91,42.1c4.88-1.02,9.64-2.03,12.27-2.3c0.96-0.1,1.6,0.47,1.4,1.4c-0.51,2.42-0.99,5.31-1.84,8.64" id="Ske2np5345f" kvg:type="㇕b" transform="matrix(1,0,0,1,1496,-4)" xmlns:kvg="http://kanjivg.tagaini.net"></path><path class="stroke_order_diagram--existing_path" d="M24.37,51.51c3.09-0.31,7.32-0.83,11.57-1.3" id="Ske2np5345g" kvg:type="㇐b" transform="matrix(1,0,0,1,1496,-4)" xmlns:kvg="http://kanjivg.tagaini.net"></path><path class="stroke_order_diagram--existing_path" d="M64.69,10.64c0.03,0.6,0.18,1.57-0.06,2.39c-1.55,5.26-5.03,15.63-10.39,22.91" id="Ske2np5345h" kvg:type="㇒" transform="matrix(1,0,0,1,1496,-4)" xmlns:kvg="http://kanjivg.tagaini.net"></path><path class="stroke_order_diagram--existing_path" d="M64.08,24.37c0.53,0.28,1.49,0.32,2.02,0.28c5.47-0.33,13.83-1.41,20.4-2.87c0.91-0.2,2.61-0.01,2.85,0.05" id="Ske2np5345i" kvg:type="㇐" transform="matrix(1,0,0,1,1496,-4)" xmlns:kvg="http://kanjivg.tagaini.net"></path><path class="stroke_order_diagram--existing_path" d="M78.28,28.28c0.31,0.62,0.65,1.12,0.16,2.19C74.25,39.5,70,46.5,59.08,53.5" id="Ske2np5345j" kvg:type="㇒" transform="matrix(1,0,0,1,1496,-4)" xmlns:kvg="http://kanjivg.tagaini.net"></path><path class="stroke_order_diagram--existing_path" d="M59.15,32.96c5.72,2.83,20.74,18.58,29.48,23.58c1.68,0.96,2.75,1.12,4.13,1.22" id="Ske2np5345k" kvg:type="㇏" transform="matrix(1,0,0,1,1496,-4)" xmlns:kvg="http://kanjivg.tagaini.net"></path><path class="stroke_order_diagram--existing_path" d="M18.25,68.82c1.91,0.39,4.08,0.51,6.27,0.39c11.17-0.63,43.61-2.82,60.51-3.57c2.18-0.09,3.54,0.07,5.72,0.34" id="Ske2np5345l" kvg:type="㇐" transform="matrix(1,0,0,1,1496,-4)" xmlns:kvg="http://kanjivg.tagaini.net"></path><path class="stroke_order_diagram--existing_path" d="M52.25,55.25c1.25,0.5,2.25,2.22,2.25,3.25c0,10.5,0,34.75-0.25,41" id="Ske2np5345m" kvg:type="㇑" transform="matrix(1,0,0,1,1496,-4)" xmlns:kvg="http://kanjivg.tagaini.net"></path><path class="stroke_order_diagram--existing_path" d="M51.25,67.75c-6.25,8.64-23,21.86-36,26.75" id="Ske2np5345n" kvg:type="㇒" transform="matrix(1,0,0,1,1496,-4)" xmlns:kvg="http://kanjivg.tagaini.net"></path><path class="stroke_order_diagram--current_path" d="M55.5,68c5.5,6.5,22.75,19,31.6,23.34c1.83,0.9,3.18,1.59,4.9,1.91" id="kvg:06aa0-s16" kvg:type="㇏" transform="matrix(1,0,0,1,1496,-4)" xmlns:kvg="http://kanjivg.tagaini.net"></path><path class="stroke_order_diagram--current_path" d="M55.5,68c5.5,6.5,22.75,19,31.6,23.34c1.83,0.9,3.18,1.59,4.9,1.91" id="Ske2np5345p" kvg:type="㇏" transform="matrix(1,0,0,1,1496,-4)" xmlns:kvg="http://kanjivg.tagaini.net"></path><circle class="stroke_order_diagram--path_start" cx="55.5" cy="68" r="4" transform="matrix(1,0,0,1,1496,-4)"></circle></svg>