<svg class="stroke_order_diagram--svg_container_for_5186628cd5dda79658000711" style="height: 100px; width: 1500px;" viewbox="0 0 1500 100"><desc>Created with Snap</desc><defs></defs><line class="stroke_order_diagram--bounding_box" x1="1" x2="1499" y1="1" y2="1"></line><line class="stroke_order_diagram--bounding_box" x1="1" x2="1" y1="1" y2="99"></line><line class="stroke_order_diagram--bounding_box" x1="1" x2="1499" y1="99" y2="99"></line><line class="stroke_order_diagram--guide_line" x1="0" x2="1500" y1="50" y2="50"></line><line class="stroke_order_diagram--guide_line" x1="50" x2="50" y1="1" y2="99"></line><line class="stroke_order_diagram--bounding_box" x1="99" x2="99" y1="1" y2="99"></line><path class="stroke_order_diagram--current_path" d="M10.48,26.55c0.9,0.38,1.94,0.36,2.84,0.38c6.93,0.08,26.22-3.27,35.65-3.3c1.49-0.01,2.39,0.18,3.14,0.37" id="kvg:06b4e-s1" kvg:type="㇐" transform="matrix(1,0,0,1,-4,-4)" xmlns:kvg="http://kanjivg.tagaini.net"></path><path class="stroke_order_diagram--current_path" d="M10.48,26.55c0.9,0.38,1.94,0.36,2.84,0.38c6.93,0.08,26.22-3.27,35.65-3.3c1.49-0.01,2.39,0.18,3.14,0.37" id="Ske226j5jo" kvg:type="㇐" transform="matrix(1,0,0,1,-4,-4)" xmlns:kvg="http://kanjivg.tagaini.net"></path><circle class="stroke_order_diagram--path_start" cx="10.48" cy="26.55" r="4" transform="matrix(1,0,0,1,-4,-4)"></circle><line class="stroke_order_diagram--guide_line" x1="150" x2="150" y1="1" y2="99"></line><line class="stroke_order_diagram--bounding_box" x1="199" x2="199" y1="1" y2="99"></line><path class="stroke_order_diagram--existing_path" d="M10.48,26.55c0.9,0.38,1.94,0.36,2.84,0.38c6.93,0.08,26.22-3.27,35.65-3.3c1.49-0.01,2.39,0.18,3.14,0.37" id="Ske226j5jr" kvg:type="㇐" transform="matrix(1,0,0,1,96,-4)" xmlns:kvg="http://kanjivg.tagaini.net"></path><path class="stroke_order_diagram--current_path" d="M21.15,17.57c1.06,1.13,1.4,1.47,1.51,2.16c1.06,6.49,1.57,11.89,1.88,14.25" id="kvg:06b4e-s2" kvg:type="㇑a" transform="matrix(1,0,0,1,96,-4)" xmlns:kvg="http://kanjivg.tagaini.net"></path><path class="stroke_order_diagram--current_path" d="M21.15,17.57c1.06,1.13,1.4,1.47,1.51,2.16c1.06,6.49,1.57,11.89,1.88,14.25" id="Ske226j5jt" kvg:type="㇑a" transform="matrix(1,0,0,1,96,-4)" xmlns:kvg="http://kanjivg.tagaini.net"></path><circle class="stroke_order_diagram--path_start" cx="21.15" cy="17.57" r="4" transform="matrix(1,0,0,1,96,-4)"></circle><line class="stroke_order_diagram--guide_line" x1="250" x2="250" y1="1" y2="99"></line><line class="stroke_order_diagram--bounding_box" x1="299" x2="299" y1="1" y2="99"></line><path class="stroke_order_diagram--existing_path" d="M10.48,26.55c0.9,0.38,1.94,0.36,2.84,0.38c6.93,0.08,26.22-3.27,35.65-3.3c1.49-0.01,2.39,0.18,3.14,0.37" id="Ske226j5jw" kvg:type="㇐" transform="matrix(1,0,0,1,196,-4)" xmlns:kvg="http://kanjivg.tagaini.net"></path><path class="stroke_order_diagram--existing_path" d="M21.15,17.57c1.06,1.13,1.4,1.47,1.51,2.16c1.06,6.49,1.57,11.89,1.88,14.25" id="Ske226j5jx" kvg:type="㇑a" transform="matrix(1,0,0,1,196,-4)" xmlns:kvg="http://kanjivg.tagaini.net"></path><path class="stroke_order_diagram--current_path" d="M40.54,15.06c0.29,0.84,0.6,1.44,0.35,2.5c-0.91,3.78-2.14,11.89-3.14,15.93" id="kvg:06b4e-s3" kvg:type="㇑a" transform="matrix(1,0,0,1,196,-4)" xmlns:kvg="http://kanjivg.tagaini.net"></path><path class="stroke_order_diagram--current_path" d="M40.54,15.06c0.29,0.84,0.6,1.44,0.35,2.5c-0.91,3.78-2.14,11.89-3.14,15.93" id="Ske226j5jz" kvg:type="㇑a" transform="matrix(1,0,0,1,196,-4)" xmlns:kvg="http://kanjivg.tagaini.net"></path><circle class="stroke_order_diagram--path_start" cx="40.54" cy="15.06" r="4" transform="matrix(1,0,0,1,196,-4)"></circle><line class="stroke_order_diagram--guide_line" x1="350" x2="350" y1="1" y2="99"></line><line class="stroke_order_diagram--bounding_box" x1="399" x2="399" y1="1" y2="99"></line><path class="stroke_order_diagram--existing_path" d="M10.48,26.55c0.9,0.38,1.94,0.36,2.84,0.38c6.93,0.08,26.22-3.27,35.65-3.3c1.49-0.01,2.39,0.18,3.14,0.37" id="Ske226j5j12" kvg:type="㇐" transform="matrix(1,0,0,1,296,-4)" xmlns:kvg="http://kanjivg.tagaini.net"></path><path class="stroke_order_diagram--existing_path" d="M21.15,17.57c1.06,1.13,1.4,1.47,1.51,2.16c1.06,6.49,1.57,11.89,1.88,14.25" id="Ske226j5j13" kvg:type="㇑a" transform="matrix(1,0,0,1,296,-4)" xmlns:kvg="http://kanjivg.tagaini.net"></path><path class="stroke_order_diagram--existing_path" d="M40.54,15.06c0.29,0.84,0.6,1.44,0.35,2.5c-0.91,3.78-2.14,11.89-3.14,15.93" id="Ske226j5j14" kvg:type="㇑a" transform="matrix(1,0,0,1,296,-4)" xmlns:kvg="http://kanjivg.tagaini.net"></path><path class="stroke_order_diagram--current_path" d="M24.57,33.92c3.43-0.17,9.68-1.17,13.15-1.3" id="kvg:06b4e-s4" kvg:type="㇐" transform="matrix(1,0,0,1,296,-4)" xmlns:kvg="http://kanjivg.tagaini.net"></path><path class="stroke_order_diagram--current_path" d="M24.57,33.92c3.43-0.17,9.68-1.17,13.15-1.3" id="Ske226j5j16" kvg:type="㇐" transform="matrix(1,0,0,1,296,-4)" xmlns:kvg="http://kanjivg.tagaini.net"></path><circle class="stroke_order_diagram--path_start" cx="24.57" cy="33.92" r="4" transform="matrix(1,0,0,1,296,-4)"></circle><line class="stroke_order_diagram--guide_line" x1="450" x2="450" y1="1" y2="99"></line><line class="stroke_order_diagram--bounding_box" x1="499" x2="499" y1="1" y2="99"></line><path class="stroke_order_diagram--existing_path" d="M10.48,26.55c0.9,0.38,1.94,0.36,2.84,0.38c6.93,0.08,26.22-3.27,35.65-3.3c1.49-0.01,2.39,0.18,3.14,0.37" id="Ske226j5j19" kvg:type="㇐" transform="matrix(1,0,0,1,396,-4)" xmlns:kvg="http://kanjivg.tagaini.net"></path><path class="stroke_order_diagram--existing_path" d="M21.15,17.57c1.06,1.13,1.4,1.47,1.51,2.16c1.06,6.49,1.57,11.89,1.88,14.25" id="Ske226j5j1a" kvg:type="㇑a" transform="matrix(1,0,0,1,396,-4)" xmlns:kvg="http://kanjivg.tagaini.net"></path><path class="stroke_order_diagram--existing_path" d="M40.54,15.06c0.29,0.84,0.6,1.44,0.35,2.5c-0.91,3.78-2.14,11.89-3.14,15.93" id="Ske226j5j1b" kvg:type="㇑a" transform="matrix(1,0,0,1,396,-4)" xmlns:kvg="http://kanjivg.tagaini.net"></path><path class="stroke_order_diagram--existing_path" d="M24.57,33.92c3.43-0.17,9.68-1.17,13.15-1.3" id="Ske226j5j1c" kvg:type="㇐" transform="matrix(1,0,0,1,396,-4)" xmlns:kvg="http://kanjivg.tagaini.net"></path><path class="stroke_order_diagram--current_path" d="M14.81,42.36c0.26,0.27,0.53,0.5,0.64,0.84c0.9,2.69,2.48,7.62,3.1,12.45" id="kvg:06b4e-s5" kvg:type="㇑" transform="matrix(1,0,0,1,396,-4)" xmlns:kvg="http://kanjivg.tagaini.net"></path><path class="stroke_order_diagram--current_path" d="M14.81,42.36c0.26,0.27,0.53,0.5,0.64,0.84c0.9,2.69,2.48,7.62,3.1,12.45" id="Ske226j5j1e" kvg:type="㇑" transform="matrix(1,0,0,1,396,-4)" xmlns:kvg="http://kanjivg.tagaini.net"></path><circle class="stroke_order_diagram--path_start" cx="14.81" cy="42.36" r="4" transform="matrix(1,0,0,1,396,-4)"></circle><line class="stroke_order_diagram--guide_line" x1="550" x2="550" y1="1" y2="99"></line><line class="stroke_order_diagram--bounding_box" x1="599" x2="599" y1="1" y2="99"></line><path class="stroke_order_diagram--existing_path" d="M10.48,26.55c0.9,0.38,1.94,0.36,2.84,0.38c6.93,0.08,26.22-3.27,35.65-3.3c1.49-0.01,2.39,0.18,3.14,0.37" id="Ske226j5j1h" kvg:type="㇐" transform="matrix(1,0,0,1,496,-4)" xmlns:kvg="http://kanjivg.tagaini.net"></path><path class="stroke_order_diagram--existing_path" d="M21.15,17.57c1.06,1.13,1.4,1.47,1.51,2.16c1.06,6.49,1.57,11.89,1.88,14.25" id="Ske226j5j1i" kvg:type="㇑a" transform="matrix(1,0,0,1,496,-4)" xmlns:kvg="http://kanjivg.tagaini.net"></path><path class="stroke_order_diagram--existing_path" d="M40.54,15.06c0.29,0.84,0.6,1.44,0.35,2.5c-0.91,3.78-2.14,11.89-3.14,15.93" id="Ske226j5j1j" kvg:type="㇑a" transform="matrix(1,0,0,1,496,-4)" xmlns:kvg="http://kanjivg.tagaini.net"></path><path class="stroke_order_diagram--existing_path" d="M24.57,33.92c3.43-0.17,9.68-1.17,13.15-1.3" id="Ske226j5j1k" kvg:type="㇐" transform="matrix(1,0,0,1,496,-4)" xmlns:kvg="http://kanjivg.tagaini.net"></path><path class="stroke_order_diagram--existing_path" d="M14.81,42.36c0.26,0.27,0.53,0.5,0.64,0.84c0.9,2.69,2.48,7.62,3.1,12.45" id="Ske226j5j1l" kvg:type="㇑" transform="matrix(1,0,0,1,496,-4)" xmlns:kvg="http://kanjivg.tagaini.net"></path><path class="stroke_order_diagram--current_path" d="M15.68,43.3c7.78-1.49,26.09-3.57,30.54-3.95c1.63-0.14,2.61,0.81,2.37,1.62c-0.97,3.34-2.09,5.88-3.53,10.5" id="kvg:06b4e-s6" kvg:type="㇕b" transform="matrix(1,0,0,1,496,-4)" xmlns:kvg="http://kanjivg.tagaini.net"></path><path class="stroke_order_diagram--current_path" d="M15.68,43.3c7.78-1.49,26.09-3.57,30.54-3.95c1.63-0.14,2.61,0.81,2.37,1.62c-0.97,3.34-2.09,5.88-3.53,10.5" id="Ske226j5j1n" kvg:type="㇕b" transform="matrix(1,0,0,1,496,-4)" xmlns:kvg="http://kanjivg.tagaini.net"></path><circle class="stroke_order_diagram--path_start" cx="15.68" cy="43.3" r="4" transform="matrix(1,0,0,1,496,-4)"></circle><line class="stroke_order_diagram--guide_line" x1="650" x2="650" y1="1" y2="99"></line><line class="stroke_order_diagram--bounding_box" x1="699" x2="699" y1="1" y2="99"></line><path class="stroke_order_diagram--existing_path" d="M10.48,26.55c0.9,0.38,1.94,0.36,2.84,0.38c6.93,0.08,26.22-3.27,35.65-3.3c1.49-0.01,2.39,0.18,3.14,0.37" id="Ske226j5j1q" kvg:type="㇐" transform="matrix(1,0,0,1,596,-4)" xmlns:kvg="http://kanjivg.tagaini.net"></path><path class="stroke_order_diagram--existing_path" d="M21.15,17.57c1.06,1.13,1.4,1.47,1.51,2.16c1.06,6.49,1.57,11.89,1.88,14.25" id="Ske226j5j1r" kvg:type="㇑a" transform="matrix(1,0,0,1,596,-4)" xmlns:kvg="http://kanjivg.tagaini.net"></path><path class="stroke_order_diagram--existing_path" d="M40.54,15.06c0.29,0.84,0.6,1.44,0.35,2.5c-0.91,3.78-2.14,11.89-3.14,15.93" id="Ske226j5j1s" kvg:type="㇑a" transform="matrix(1,0,0,1,596,-4)" xmlns:kvg="http://kanjivg.tagaini.net"></path><path class="stroke_order_diagram--existing_path" d="M24.57,33.92c3.43-0.17,9.68-1.17,13.15-1.3" id="Ske226j5j1t" kvg:type="㇐" transform="matrix(1,0,0,1,596,-4)" xmlns:kvg="http://kanjivg.tagaini.net"></path><path class="stroke_order_diagram--existing_path" d="M14.81,42.36c0.26,0.27,0.53,0.5,0.64,0.84c0.9,2.69,2.48,7.62,3.1,12.45" id="Ske226j5j1u" kvg:type="㇑" transform="matrix(1,0,0,1,596,-4)" xmlns:kvg="http://kanjivg.tagaini.net"></path><path class="stroke_order_diagram--existing_path" d="M15.68,43.3c7.78-1.49,26.09-3.57,30.54-3.95c1.63-0.14,2.61,0.81,2.37,1.62c-0.97,3.34-2.09,5.88-3.53,10.5" id="Ske226j5j1v" kvg:type="㇕b" transform="matrix(1,0,0,1,596,-4)" xmlns:kvg="http://kanjivg.tagaini.net"></path><path class="stroke_order_diagram--current_path" d="M18.72,55.14c5.23-0.43,20.78-2.59,27.97-3.24" id="kvg:06b4e-s7" kvg:type="㇐b" transform="matrix(1,0,0,1,596,-4)" xmlns:kvg="http://kanjivg.tagaini.net"></path><path class="stroke_order_diagram--current_path" d="M18.72,55.14c5.23-0.43,20.78-2.59,27.97-3.24" id="Ske226j5j1x" kvg:type="㇐b" transform="matrix(1,0,0,1,596,-4)" xmlns:kvg="http://kanjivg.tagaini.net"></path><circle class="stroke_order_diagram--path_start" cx="18.72" cy="55.14" r="4" transform="matrix(1,0,0,1,596,-4)"></circle><line class="stroke_order_diagram--guide_line" x1="750" x2="750" y1="1" y2="99"></line><line class="stroke_order_diagram--bounding_box" x1="799" x2="799" y1="1" y2="99"></line><path class="stroke_order_diagram--existing_path" d="M10.48,26.55c0.9,0.38,1.94,0.36,2.84,0.38c6.93,0.08,26.22-3.27,35.65-3.3c1.49-0.01,2.39,0.18,3.14,0.37" id="Ske226j5j20" kvg:type="㇐" transform="matrix(1,0,0,1,696,-4)" xmlns:kvg="http://kanjivg.tagaini.net"></path><path class="stroke_order_diagram--existing_path" d="M21.15,17.57c1.06,1.13,1.4,1.47,1.51,2.16c1.06,6.49,1.57,11.89,1.88,14.25" id="Ske226j5j21" kvg:type="㇑a" transform="matrix(1,0,0,1,696,-4)" xmlns:kvg="http://kanjivg.tagaini.net"></path><path class="stroke_order_diagram--existing_path" d="M40.54,15.06c0.29,0.84,0.6,1.44,0.35,2.5c-0.91,3.78-2.14,11.89-3.14,15.93" id="Ske226j5j22" kvg:type="㇑a" transform="matrix(1,0,0,1,696,-4)" xmlns:kvg="http://kanjivg.tagaini.net"></path><path class="stroke_order_diagram--existing_path" d="M24.57,33.92c3.43-0.17,9.68-1.17,13.15-1.3" id="Ske226j5j23" kvg:type="㇐" transform="matrix(1,0,0,1,696,-4)" xmlns:kvg="http://kanjivg.tagaini.net"></path><path class="stroke_order_diagram--existing_path" d="M14.81,42.36c0.26,0.27,0.53,0.5,0.64,0.84c0.9,2.69,2.48,7.62,3.1,12.45" id="Ske226j5j24" kvg:type="㇑" transform="matrix(1,0,0,1,696,-4)" xmlns:kvg="http://kanjivg.tagaini.net"></path><path class="stroke_order_diagram--existing_path" d="M15.68,43.3c7.78-1.49,26.09-3.57,30.54-3.95c1.63-0.14,2.61,0.81,2.37,1.62c-0.97,3.34-2.09,5.88-3.53,10.5" id="Ske226j5j25" kvg:type="㇕b" transform="matrix(1,0,0,1,696,-4)" xmlns:kvg="http://kanjivg.tagaini.net"></path><path class="stroke_order_diagram--existing_path" d="M18.72,55.14c5.23-0.43,20.78-2.59,27.97-3.24" id="Ske226j5j26" kvg:type="㇐b" transform="matrix(1,0,0,1,696,-4)" xmlns:kvg="http://kanjivg.tagaini.net"></path><path class="stroke_order_diagram--current_path" d="M15.43,64.16c0.65,0.27,1.82,0.26,2.47,0.27C22,64.5,37,62.25,43.44,61.68c1.07-0.09,1.72,0.13,2.26,0.26" id="kvg:06b4e-s8" kvg:type="㇐" transform="matrix(1,0,0,1,696,-4)" xmlns:kvg="http://kanjivg.tagaini.net"></path><path class="stroke_order_diagram--current_path" d="M15.43,64.16c0.65,0.27,1.82,0.26,2.47,0.27C22,64.5,37,62.25,43.44,61.68c1.07-0.09,1.72,0.13,2.26,0.26" id="Ske226j5j28" kvg:type="㇐" transform="matrix(1,0,0,1,696,-4)" xmlns:kvg="http://kanjivg.tagaini.net"></path><circle class="stroke_order_diagram--path_start" cx="15.43" cy="64.16" r="4" transform="matrix(1,0,0,1,696,-4)"></circle><line class="stroke_order_diagram--guide_line" x1="850" x2="850" y1="1" y2="99"></line><line class="stroke_order_diagram--bounding_box" x1="899" x2="899" y1="1" y2="99"></line><path class="stroke_order_diagram--existing_path" d="M10.48,26.55c0.9,0.38,1.94,0.36,2.84,0.38c6.93,0.08,26.22-3.27,35.65-3.3c1.49-0.01,2.39,0.18,3.14,0.37" id="Ske226j5j2b" kvg:type="㇐" transform="matrix(1,0,0,1,796,-4)" xmlns:kvg="http://kanjivg.tagaini.net"></path><path class="stroke_order_diagram--existing_path" d="M21.15,17.57c1.06,1.13,1.4,1.47,1.51,2.16c1.06,6.49,1.57,11.89,1.88,14.25" id="Ske226j5j2c" kvg:type="㇑a" transform="matrix(1,0,0,1,796,-4)" xmlns:kvg="http://kanjivg.tagaini.net"></path><path class="stroke_order_diagram--existing_path" d="M40.54,15.06c0.29,0.84,0.6,1.44,0.35,2.5c-0.91,3.78-2.14,11.89-3.14,15.93" id="Ske226j5j2d" kvg:type="㇑a" transform="matrix(1,0,0,1,796,-4)" xmlns:kvg="http://kanjivg.tagaini.net"></path><path class="stroke_order_diagram--existing_path" d="M24.57,33.92c3.43-0.17,9.68-1.17,13.15-1.3" id="Ske226j5j2e" kvg:type="㇐" transform="matrix(1,0,0,1,796,-4)" xmlns:kvg="http://kanjivg.tagaini.net"></path><path class="stroke_order_diagram--existing_path" d="M14.81,42.36c0.26,0.27,0.53,0.5,0.64,0.84c0.9,2.69,2.48,7.62,3.1,12.45" id="Ske226j5j2f" kvg:type="㇑" transform="matrix(1,0,0,1,796,-4)" xmlns:kvg="http://kanjivg.tagaini.net"></path><path class="stroke_order_diagram--existing_path" d="M15.68,43.3c7.78-1.49,26.09-3.57,30.54-3.95c1.63-0.14,2.61,0.81,2.37,1.62c-0.97,3.34-2.09,5.88-3.53,10.5" id="Ske226j5j2g" kvg:type="㇕b" transform="matrix(1,0,0,1,796,-4)" xmlns:kvg="http://kanjivg.tagaini.net"></path><path class="stroke_order_diagram--existing_path" d="M18.72,55.14c5.23-0.43,20.78-2.59,27.97-3.24" id="Ske226j5j2h" kvg:type="㇐b" transform="matrix(1,0,0,1,796,-4)" xmlns:kvg="http://kanjivg.tagaini.net"></path><path class="stroke_order_diagram--existing_path" d="M15.43,64.16c0.65,0.27,1.82,0.26,2.47,0.27C22,64.5,37,62.25,43.44,61.68c1.07-0.09,1.72,0.13,2.26,0.26" id="Ske226j5j2i" kvg:type="㇐" transform="matrix(1,0,0,1,796,-4)" xmlns:kvg="http://kanjivg.tagaini.net"></path><path class="stroke_order_diagram--current_path" d="M11.18,74.78c0.87,0.36,3.13,0.6,4,0.53c7.32-0.56,23.57-3.31,31.97-4.25c1.44-0.16,2.31,0.17,3.03,0.35" id="kvg:06b4e-s9" kvg:type="㇐" transform="matrix(1,0,0,1,796,-4)" xmlns:kvg="http://kanjivg.tagaini.net"></path><path class="stroke_order_diagram--current_path" d="M11.18,74.78c0.87,0.36,3.13,0.6,4,0.53c7.32-0.56,23.57-3.31,31.97-4.25c1.44-0.16,2.31,0.17,3.03,0.35" id="Ske226j5j2k" kvg:type="㇐" transform="matrix(1,0,0,1,796,-4)" xmlns:kvg="http://kanjivg.tagaini.net"></path><circle class="stroke_order_diagram--path_start" cx="11.18" cy="74.78" r="4" transform="matrix(1,0,0,1,796,-4)"></circle><line class="stroke_order_diagram--guide_line" x1="950" x2="950" y1="1" y2="99"></line><line class="stroke_order_diagram--bounding_box" x1="999" x2="999" y1="1" y2="99"></line><path class="stroke_order_diagram--existing_path" d="M10.48,26.55c0.9,0.38,1.94,0.36,2.84,0.38c6.93,0.08,26.22-3.27,35.65-3.3c1.49-0.01,2.39,0.18,3.14,0.37" id="Ske226j5j2n" kvg:type="㇐" transform="matrix(1,0,0,1,896,-4)" xmlns:kvg="http://kanjivg.tagaini.net"></path><path class="stroke_order_diagram--existing_path" d="M21.15,17.57c1.06,1.13,1.4,1.47,1.51,2.16c1.06,6.49,1.57,11.89,1.88,14.25" id="Ske226j5j2o" kvg:type="㇑a" transform="matrix(1,0,0,1,896,-4)" xmlns:kvg="http://kanjivg.tagaini.net"></path><path class="stroke_order_diagram--existing_path" d="M40.54,15.06c0.29,0.84,0.6,1.44,0.35,2.5c-0.91,3.78-2.14,11.89-3.14,15.93" id="Ske226j5j2p" kvg:type="㇑a" transform="matrix(1,0,0,1,896,-4)" xmlns:kvg="http://kanjivg.tagaini.net"></path><path class="stroke_order_diagram--existing_path" d="M24.57,33.92c3.43-0.17,9.68-1.17,13.15-1.3" id="Ske226j5j2q" kvg:type="㇐" transform="matrix(1,0,0,1,896,-4)" xmlns:kvg="http://kanjivg.tagaini.net"></path><path class="stroke_order_diagram--existing_path" d="M14.81,42.36c0.26,0.27,0.53,0.5,0.64,0.84c0.9,2.69,2.48,7.62,3.1,12.45" id="Ske226j5j2r" kvg:type="㇑" transform="matrix(1,0,0,1,896,-4)" xmlns:kvg="http://kanjivg.tagaini.net"></path><path class="stroke_order_diagram--existing_path" d="M15.68,43.3c7.78-1.49,26.09-3.57,30.54-3.95c1.63-0.14,2.61,0.81,2.37,1.62c-0.97,3.34-2.09,5.88-3.53,10.5" id="Ske226j5j2s" kvg:type="㇕b" transform="matrix(1,0,0,1,896,-4)" xmlns:kvg="http://kanjivg.tagaini.net"></path><path class="stroke_order_diagram--existing_path" d="M18.72,55.14c5.23-0.43,20.78-2.59,27.97-3.24" id="Ske226j5j2t" kvg:type="㇐b" transform="matrix(1,0,0,1,896,-4)" xmlns:kvg="http://kanjivg.tagaini.net"></path><path class="stroke_order_diagram--existing_path" d="M15.43,64.16c0.65,0.27,1.82,0.26,2.47,0.27C22,64.5,37,62.25,43.44,61.68c1.07-0.09,1.72,0.13,2.26,0.26" id="Ske226j5j2u" kvg:type="㇐" transform="matrix(1,0,0,1,896,-4)" xmlns:kvg="http://kanjivg.tagaini.net"></path><path class="stroke_order_diagram--existing_path" d="M11.18,74.78c0.87,0.36,3.13,0.6,4,0.53c7.32-0.56,23.57-3.31,31.97-4.25c1.44-0.16,2.31,0.17,3.03,0.35" id="Ske226j5j2v" kvg:type="㇐" transform="matrix(1,0,0,1,896,-4)" xmlns:kvg="http://kanjivg.tagaini.net"></path><path class="stroke_order_diagram--current_path" d="M31.04,33.64c0.37,0.86,0.47,1.66,0.51,3.33C32.5,81.25,29,88.75,10.74,96.94" id="kvg:06b4e-s10" kvg:type="㇒" transform="matrix(1,0,0,1,896,-4)" xmlns:kvg="http://kanjivg.tagaini.net"></path><path class="stroke_order_diagram--current_path" d="M31.04,33.64c0.37,0.86,0.47,1.66,0.51,3.33C32.5,81.25,29,88.75,10.74,96.94" id="Ske226j5j2x" kvg:type="㇒" transform="matrix(1,0,0,1,896,-4)" xmlns:kvg="http://kanjivg.tagaini.net"></path><circle class="stroke_order_diagram--path_start" cx="31.04" cy="33.64" r="4" transform="matrix(1,0,0,1,896,-4)"></circle><line class="stroke_order_diagram--guide_line" x1="1050" x2="1050" y1="1" y2="99"></line><line class="stroke_order_diagram--bounding_box" x1="1099" x2="1099" y1="1" y2="99"></line><path class="stroke_order_diagram--existing_path" d="M10.48,26.55c0.9,0.38,1.94,0.36,2.84,0.38c6.93,0.08,26.22-3.27,35.65-3.3c1.49-0.01,2.39,0.18,3.14,0.37" id="Ske226j5j30" kvg:type="㇐" transform="matrix(1,0,0,1,996,-4)" xmlns:kvg="http://kanjivg.tagaini.net"></path><path class="stroke_order_diagram--existing_path" d="M21.15,17.57c1.06,1.13,1.4,1.47,1.51,2.16c1.06,6.49,1.57,11.89,1.88,14.25" id="Ske226j5j31" kvg:type="㇑a" transform="matrix(1,0,0,1,996,-4)" xmlns:kvg="http://kanjivg.tagaini.net"></path><path class="stroke_order_diagram--existing_path" d="M40.54,15.06c0.29,0.84,0.6,1.44,0.35,2.5c-0.91,3.78-2.14,11.89-3.14,15.93" id="Ske226j5j32" kvg:type="㇑a" transform="matrix(1,0,0,1,996,-4)" xmlns:kvg="http://kanjivg.tagaini.net"></path><path class="stroke_order_diagram--existing_path" d="M24.57,33.92c3.43-0.17,9.68-1.17,13.15-1.3" id="Ske226j5j33" kvg:type="㇐" transform="matrix(1,0,0,1,996,-4)" xmlns:kvg="http://kanjivg.tagaini.net"></path><path class="stroke_order_diagram--existing_path" d="M14.81,42.36c0.26,0.27,0.53,0.5,0.64,0.84c0.9,2.69,2.48,7.62,3.1,12.45" id="Ske226j5j34" kvg:type="㇑" transform="matrix(1,0,0,1,996,-4)" xmlns:kvg="http://kanjivg.tagaini.net"></path><path class="stroke_order_diagram--existing_path" d="M15.68,43.3c7.78-1.49,26.09-3.57,30.54-3.95c1.63-0.14,2.61,0.81,2.37,1.62c-0.97,3.34-2.09,5.88-3.53,10.5" id="Ske226j5j35" kvg:type="㇕b" transform="matrix(1,0,0,1,996,-4)" xmlns:kvg="http://kanjivg.tagaini.net"></path><path class="stroke_order_diagram--existing_path" d="M18.72,55.14c5.23-0.43,20.78-2.59,27.97-3.24" id="Ske226j5j36" kvg:type="㇐b" transform="matrix(1,0,0,1,996,-4)" xmlns:kvg="http://kanjivg.tagaini.net"></path><path class="stroke_order_diagram--existing_path" d="M15.43,64.16c0.65,0.27,1.82,0.26,2.47,0.27C22,64.5,37,62.25,43.44,61.68c1.07-0.09,1.72,0.13,2.26,0.26" id="Ske226j5j37" kvg:type="㇐" transform="matrix(1,0,0,1,996,-4)" xmlns:kvg="http://kanjivg.tagaini.net"></path><path class="stroke_order_diagram--existing_path" d="M11.18,74.78c0.87,0.36,3.13,0.6,4,0.53c7.32-0.56,23.57-3.31,31.97-4.25c1.44-0.16,2.31,0.17,3.03,0.35" id="Ske226j5j38" kvg:type="㇐" transform="matrix(1,0,0,1,996,-4)" xmlns:kvg="http://kanjivg.tagaini.net"></path><path class="stroke_order_diagram--existing_path" d="M31.04,33.64c0.37,0.86,0.47,1.66,0.51,3.33C32.5,81.25,29,88.75,10.74,96.94" id="Ske226j5j39" kvg:type="㇒" transform="matrix(1,0,0,1,996,-4)" xmlns:kvg="http://kanjivg.tagaini.net"></path><path class="stroke_order_diagram--current_path" d="M30.18,77.92c6.31,2.88,12.3,7.89,14.92,13.01" id="kvg:06b4e-s11" kvg:type="㇏" transform="matrix(1,0,0,1,996,-4)" xmlns:kvg="http://kanjivg.tagaini.net"></path><path class="stroke_order_diagram--current_path" d="M30.18,77.92c6.31,2.88,12.3,7.89,14.92,13.01" id="Ske226j5j3b" kvg:type="㇏" transform="matrix(1,0,0,1,996,-4)" xmlns:kvg="http://kanjivg.tagaini.net"></path><circle class="stroke_order_diagram--path_start" cx="30.18" cy="77.92" r="4" transform="matrix(1,0,0,1,996,-4)"></circle><line class="stroke_order_diagram--guide_line" x1="1150" x2="1150" y1="1" y2="99"></line><line class="stroke_order_diagram--bounding_box" x1="1199" x2="1199" y1="1" y2="99"></line><path class="stroke_order_diagram--existing_path" d="M10.48,26.55c0.9,0.38,1.94,0.36,2.84,0.38c6.93,0.08,26.22-3.27,35.65-3.3c1.49-0.01,2.39,0.18,3.14,0.37" id="Ske226j5j3e" kvg:type="㇐" transform="matrix(1,0,0,1,1096,-4)" xmlns:kvg="http://kanjivg.tagaini.net"></path><path class="stroke_order_diagram--existing_path" d="M21.15,17.57c1.06,1.13,1.4,1.47,1.51,2.16c1.06,6.49,1.57,11.89,1.88,14.25" id="Ske226j5j3f" kvg:type="㇑a" transform="matrix(1,0,0,1,1096,-4)" xmlns:kvg="http://kanjivg.tagaini.net"></path><path class="stroke_order_diagram--existing_path" d="M40.54,15.06c0.29,0.84,0.6,1.44,0.35,2.5c-0.91,3.78-2.14,11.89-3.14,15.93" id="Ske226j5j3g" kvg:type="㇑a" transform="matrix(1,0,0,1,1096,-4)" xmlns:kvg="http://kanjivg.tagaini.net"></path><path class="stroke_order_diagram--existing_path" d="M24.57,33.92c3.43-0.17,9.68-1.17,13.15-1.3" id="Ske226j5j3h" kvg:type="㇐" transform="matrix(1,0,0,1,1096,-4)" xmlns:kvg="http://kanjivg.tagaini.net"></path><path class="stroke_order_diagram--existing_path" d="M14.81,42.36c0.26,0.27,0.53,0.5,0.64,0.84c0.9,2.69,2.48,7.62,3.1,12.45" id="Ske226j5j3i" kvg:type="㇑" transform="matrix(1,0,0,1,1096,-4)" xmlns:kvg="http://kanjivg.tagaini.net"></path><path class="stroke_order_diagram--existing_path" d="M15.68,43.3c7.78-1.49,26.09-3.57,30.54-3.95c1.63-0.14,2.61,0.81,2.37,1.62c-0.97,3.34-2.09,5.88-3.53,10.5" id="Ske226j5j3j" kvg:type="㇕b" transform="matrix(1,0,0,1,1096,-4)" xmlns:kvg="http://kanjivg.tagaini.net"></path><path class="stroke_order_diagram--existing_path" d="M18.72,55.14c5.23-0.43,20.78-2.59,27.97-3.24" id="Ske226j5j3k" kvg:type="㇐b" transform="matrix(1,0,0,1,1096,-4)" xmlns:kvg="http://kanjivg.tagaini.net"></path><path class="stroke_order_diagram--existing_path" d="M15.43,64.16c0.65,0.27,1.82,0.26,2.47,0.27C22,64.5,37,62.25,43.44,61.68c1.07-0.09,1.72,0.13,2.26,0.26" id="Ske226j5j3l" kvg:type="㇐" transform="matrix(1,0,0,1,1096,-4)" xmlns:kvg="http://kanjivg.tagaini.net"></path><path class="stroke_order_diagram--existing_path" d="M11.18,74.78c0.87,0.36,3.13,0.6,4,0.53c7.32-0.56,23.57-3.31,31.97-4.25c1.44-0.16,2.31,0.17,3.03,0.35" id="Ske226j5j3m" kvg:type="㇐" transform="matrix(1,0,0,1,1096,-4)" xmlns:kvg="http://kanjivg.tagaini.net"></path><path class="stroke_order_diagram--existing_path" d="M31.04,33.64c0.37,0.86,0.47,1.66,0.51,3.33C32.5,81.25,29,88.75,10.74,96.94" id="Ske226j5j3n" kvg:type="㇒" transform="matrix(1,0,0,1,1096,-4)" xmlns:kvg="http://kanjivg.tagaini.net"></path><path class="stroke_order_diagram--existing_path" d="M30.18,77.92c6.31,2.88,12.3,7.89,14.92,13.01" id="Ske226j5j3o" kvg:type="㇏" transform="matrix(1,0,0,1,1096,-4)" xmlns:kvg="http://kanjivg.tagaini.net"></path><path class="stroke_order_diagram--current_path" d="M66.75,16c0.04,0.78,0.08,2.02-0.08,3.15c-0.93,6.63-6.25,21.19-13.54,30.1" id="kvg:06b4e-s12" kvg:type="㇒" transform="matrix(1,0,0,1,1096,-4)" xmlns:kvg="http://kanjivg.tagaini.net"></path><path class="stroke_order_diagram--current_path" d="M66.75,16c0.04,0.78,0.08,2.02-0.08,3.15c-0.93,6.63-6.25,21.19-13.54,30.1" id="Ske226j5j3q" kvg:type="㇒" transform="matrix(1,0,0,1,1096,-4)" xmlns:kvg="http://kanjivg.tagaini.net"></path><circle class="stroke_order_diagram--path_start" cx="66.75" cy="16" r="4" transform="matrix(1,0,0,1,1096,-4)"></circle><line class="stroke_order_diagram--guide_line" x1="1250" x2="1250" y1="1" y2="99"></line><line class="stroke_order_diagram--bounding_box" x1="1299" x2="1299" y1="1" y2="99"></line><path class="stroke_order_diagram--existing_path" d="M10.48,26.55c0.9,0.38,1.94,0.36,2.84,0.38c6.93,0.08,26.22-3.27,35.65-3.3c1.49-0.01,2.39,0.18,3.14,0.37" id="Ske226j5j3t" kvg:type="㇐" transform="matrix(1,0,0,1,1196,-4)" xmlns:kvg="http://kanjivg.tagaini.net"></path><path class="stroke_order_diagram--existing_path" d="M21.15,17.57c1.06,1.13,1.4,1.47,1.51,2.16c1.06,6.49,1.57,11.89,1.88,14.25" id="Ske226j5j3u" kvg:type="㇑a" transform="matrix(1,0,0,1,1196,-4)" xmlns:kvg="http://kanjivg.tagaini.net"></path><path class="stroke_order_diagram--existing_path" d="M40.54,15.06c0.29,0.84,0.6,1.44,0.35,2.5c-0.91,3.78-2.14,11.89-3.14,15.93" id="Ske226j5j3v" kvg:type="㇑a" transform="matrix(1,0,0,1,1196,-4)" xmlns:kvg="http://kanjivg.tagaini.net"></path><path class="stroke_order_diagram--existing_path" d="M24.57,33.92c3.43-0.17,9.68-1.17,13.15-1.3" id="Ske226j5j3w" kvg:type="㇐" transform="matrix(1,0,0,1,1196,-4)" xmlns:kvg="http://kanjivg.tagaini.net"></path><path class="stroke_order_diagram--existing_path" d="M14.81,42.36c0.26,0.27,0.53,0.5,0.64,0.84c0.9,2.69,2.48,7.62,3.1,12.45" id="Ske226j5j3x" kvg:type="㇑" transform="matrix(1,0,0,1,1196,-4)" xmlns:kvg="http://kanjivg.tagaini.net"></path><path class="stroke_order_diagram--existing_path" d="M15.68,43.3c7.78-1.49,26.09-3.57,30.54-3.95c1.63-0.14,2.61,0.81,2.37,1.62c-0.97,3.34-2.09,5.88-3.53,10.5" id="Ske226j5j3y" kvg:type="㇕b" transform="matrix(1,0,0,1,1196,-4)" xmlns:kvg="http://kanjivg.tagaini.net"></path><path class="stroke_order_diagram--existing_path" d="M18.72,55.14c5.23-0.43,20.78-2.59,27.97-3.24" id="Ske226j5j3z" kvg:type="㇐b" transform="matrix(1,0,0,1,1196,-4)" xmlns:kvg="http://kanjivg.tagaini.net"></path><path class="stroke_order_diagram--existing_path" d="M15.43,64.16c0.65,0.27,1.82,0.26,2.47,0.27C22,64.5,37,62.25,43.44,61.68c1.07-0.09,1.72,0.13,2.26,0.26" id="Ske226j5j40" kvg:type="㇐" transform="matrix(1,0,0,1,1196,-4)" xmlns:kvg="http://kanjivg.tagaini.net"></path><path class="stroke_order_diagram--existing_path" d="M11.18,74.78c0.87,0.36,3.13,0.6,4,0.53c7.32-0.56,23.57-3.31,31.97-4.25c1.44-0.16,2.31,0.17,3.03,0.35" id="Ske226j5j41" kvg:type="㇐" transform="matrix(1,0,0,1,1196,-4)" xmlns:kvg="http://kanjivg.tagaini.net"></path><path class="stroke_order_diagram--existing_path" d="M31.04,33.64c0.37,0.86,0.47,1.66,0.51,3.33C32.5,81.25,29,88.75,10.74,96.94" id="Ske226j5j42" kvg:type="㇒" transform="matrix(1,0,0,1,1196,-4)" xmlns:kvg="http://kanjivg.tagaini.net"></path><path class="stroke_order_diagram--existing_path" d="M30.18,77.92c6.31,2.88,12.3,7.89,14.92,13.01" id="Ske226j5j43" kvg:type="㇏" transform="matrix(1,0,0,1,1196,-4)" xmlns:kvg="http://kanjivg.tagaini.net"></path><path class="stroke_order_diagram--existing_path" d="M66.75,16c0.04,0.78,0.08,2.02-0.08,3.15c-0.93,6.63-6.25,21.19-13.54,30.1" id="Ske226j5j44" kvg:type="㇒" transform="matrix(1,0,0,1,1196,-4)" xmlns:kvg="http://kanjivg.tagaini.net"></path><path class="stroke_order_diagram--current_path" d="M60.72,39.49c0.91,0.36,2.64,0.93,4.01,0.61c1.67-0.39,19.68-5.65,21.26-5.85c8-1-1.33,9.09-3,11" id="kvg:06b4e-s13" kvg:type="㇖a" transform="matrix(1,0,0,1,1196,-4)" xmlns:kvg="http://kanjivg.tagaini.net"></path><path class="stroke_order_diagram--current_path" d="M60.72,39.49c0.91,0.36,2.64,0.93,4.01,0.61c1.67-0.39,19.68-5.65,21.26-5.85c8-1-1.33,9.09-3,11" id="Ske226j5j46" kvg:type="㇖a" transform="matrix(1,0,0,1,1196,-4)" xmlns:kvg="http://kanjivg.tagaini.net"></path><circle class="stroke_order_diagram--path_start" cx="60.72" cy="39.49" r="4" transform="matrix(1,0,0,1,1196,-4)"></circle><line class="stroke_order_diagram--guide_line" x1="1350" x2="1350" y1="1" y2="99"></line><line class="stroke_order_diagram--bounding_box" x1="1399" x2="1399" y1="1" y2="99"></line><path class="stroke_order_diagram--existing_path" d="M10.48,26.55c0.9,0.38,1.94,0.36,2.84,0.38c6.93,0.08,26.22-3.27,35.65-3.3c1.49-0.01,2.39,0.18,3.14,0.37" id="Ske226j5j49" kvg:type="㇐" transform="matrix(1,0,0,1,1296,-4)" xmlns:kvg="http://kanjivg.tagaini.net"></path><path class="stroke_order_diagram--existing_path" d="M21.15,17.57c1.06,1.13,1.4,1.47,1.51,2.16c1.06,6.49,1.57,11.89,1.88,14.25" id="Ske226j5j4a" kvg:type="㇑a" transform="matrix(1,0,0,1,1296,-4)" xmlns:kvg="http://kanjivg.tagaini.net"></path><path class="stroke_order_diagram--existing_path" d="M40.54,15.06c0.29,0.84,0.6,1.44,0.35,2.5c-0.91,3.78-2.14,11.89-3.14,15.93" id="Ske226j5j4b" kvg:type="㇑a" transform="matrix(1,0,0,1,1296,-4)" xmlns:kvg="http://kanjivg.tagaini.net"></path><path class="stroke_order_diagram--existing_path" d="M24.57,33.92c3.43-0.17,9.68-1.17,13.15-1.3" id="Ske226j5j4c" kvg:type="㇐" transform="matrix(1,0,0,1,1296,-4)" xmlns:kvg="http://kanjivg.tagaini.net"></path><path class="stroke_order_diagram--existing_path" d="M14.81,42.36c0.26,0.27,0.53,0.5,0.64,0.84c0.9,2.69,2.48,7.62,3.1,12.45" id="Ske226j5j4d" kvg:type="㇑" transform="matrix(1,0,0,1,1296,-4)" xmlns:kvg="http://kanjivg.tagaini.net"></path><path class="stroke_order_diagram--existing_path" d="M15.68,43.3c7.78-1.49,26.09-3.57,30.54-3.95c1.63-0.14,2.61,0.81,2.37,1.62c-0.97,3.34-2.09,5.88-3.53,10.5" id="Ske226j5j4e" kvg:type="㇕b" transform="matrix(1,0,0,1,1296,-4)" xmlns:kvg="http://kanjivg.tagaini.net"></path><path class="stroke_order_diagram--existing_path" d="M18.72,55.14c5.23-0.43,20.78-2.59,27.97-3.24" id="Ske226j5j4f" kvg:type="㇐b" transform="matrix(1,0,0,1,1296,-4)" xmlns:kvg="http://kanjivg.tagaini.net"></path><path class="stroke_order_diagram--existing_path" d="M15.43,64.16c0.65,0.27,1.82,0.26,2.47,0.27C22,64.5,37,62.25,43.44,61.68c1.07-0.09,1.72,0.13,2.26,0.26" id="Ske226j5j4g" kvg:type="㇐" transform="matrix(1,0,0,1,1296,-4)" xmlns:kvg="http://kanjivg.tagaini.net"></path><path class="stroke_order_diagram--existing_path" d="M11.18,74.78c0.87,0.36,3.13,0.6,4,0.53c7.32-0.56,23.57-3.31,31.97-4.25c1.44-0.16,2.31,0.17,3.03,0.35" id="Ske226j5j4h" kvg:type="㇐" transform="matrix(1,0,0,1,1296,-4)" xmlns:kvg="http://kanjivg.tagaini.net"></path><path class="stroke_order_diagram--existing_path" d="M31.04,33.64c0.37,0.86,0.47,1.66,0.51,3.33C32.5,81.25,29,88.75,10.74,96.94" id="Ske226j5j4i" kvg:type="㇒" transform="matrix(1,0,0,1,1296,-4)" xmlns:kvg="http://kanjivg.tagaini.net"></path><path class="stroke_order_diagram--existing_path" d="M30.18,77.92c6.31,2.88,12.3,7.89,14.92,13.01" id="Ske226j5j4j" kvg:type="㇏" transform="matrix(1,0,0,1,1296,-4)" xmlns:kvg="http://kanjivg.tagaini.net"></path><path class="stroke_order_diagram--existing_path" d="M66.75,16c0.04,0.78,0.08,2.02-0.08,3.15c-0.93,6.63-6.25,21.19-13.54,30.1" id="Ske226j5j4k" kvg:type="㇒" transform="matrix(1,0,0,1,1296,-4)" xmlns:kvg="http://kanjivg.tagaini.net"></path><path class="stroke_order_diagram--existing_path" d="M60.72,39.49c0.91,0.36,2.64,0.93,4.01,0.61c1.67-0.39,19.68-5.65,21.26-5.85c8-1-1.33,9.09-3,11" id="Ske226j5j4l" kvg:type="㇖a" transform="matrix(1,0,0,1,1296,-4)" xmlns:kvg="http://kanjivg.tagaini.net"></path><path class="stroke_order_diagram--current_path" d="M67.11,48.5c0.06,1.13,0.63,2.89,0.39,4.52c-2.34,15.73-4.75,31.73-20.25,43.23" id="kvg:06b4e-s14" kvg:type="㇒" transform="matrix(1,0,0,1,1296,-4)" xmlns:kvg="http://kanjivg.tagaini.net"></path><path class="stroke_order_diagram--current_path" d="M67.11,48.5c0.06,1.13,0.63,2.89,0.39,4.52c-2.34,15.73-4.75,31.73-20.25,43.23" id="Ske226j5j4n" kvg:type="㇒" transform="matrix(1,0,0,1,1296,-4)" xmlns:kvg="http://kanjivg.tagaini.net"></path><circle class="stroke_order_diagram--path_start" cx="67.11" cy="48.5" r="4" transform="matrix(1,0,0,1,1296,-4)"></circle><line class="stroke_order_diagram--guide_line" x1="1450" x2="1450" y1="1" y2="99"></line><line class="stroke_order_diagram--bounding_box" x1="1499" x2="1499" y1="1" y2="99"></line><path class="stroke_order_diagram--existing_path" d="M10.48,26.55c0.9,0.38,1.94,0.36,2.84,0.38c6.93,0.08,26.22-3.27,35.65-3.3c1.49-0.01,2.39,0.18,3.14,0.37" id="Ske226j5j4q" kvg:type="㇐" transform="matrix(1,0,0,1,1396,-4)" xmlns:kvg="http://kanjivg.tagaini.net"></path><path class="stroke_order_diagram--existing_path" d="M21.15,17.57c1.06,1.13,1.4,1.47,1.51,2.16c1.06,6.49,1.57,11.89,1.88,14.25" id="Ske226j5j4r" kvg:type="㇑a" transform="matrix(1,0,0,1,1396,-4)" xmlns:kvg="http://kanjivg.tagaini.net"></path><path class="stroke_order_diagram--existing_path" d="M40.54,15.06c0.29,0.84,0.6,1.44,0.35,2.5c-0.91,3.78-2.14,11.89-3.14,15.93" id="Ske226j5j4s" kvg:type="㇑a" transform="matrix(1,0,0,1,1396,-4)" xmlns:kvg="http://kanjivg.tagaini.net"></path><path class="stroke_order_diagram--existing_path" d="M24.57,33.92c3.43-0.17,9.68-1.17,13.15-1.3" id="Ske226j5j4t" kvg:type="㇐" transform="matrix(1,0,0,1,1396,-4)" xmlns:kvg="http://kanjivg.tagaini.net"></path><path class="stroke_order_diagram--existing_path" d="M14.81,42.36c0.26,0.27,0.53,0.5,0.64,0.84c0.9,2.69,2.48,7.62,3.1,12.45" id="Ske226j5j4u" kvg:type="㇑" transform="matrix(1,0,0,1,1396,-4)" xmlns:kvg="http://kanjivg.tagaini.net"></path><path class="stroke_order_diagram--existing_path" d="M15.68,43.3c7.78-1.49,26.09-3.57,30.54-3.95c1.63-0.14,2.61,0.81,2.37,1.62c-0.97,3.34-2.09,5.88-3.53,10.5" id="Ske226j5j4v" kvg:type="㇕b" transform="matrix(1,0,0,1,1396,-4)" xmlns:kvg="http://kanjivg.tagaini.net"></path><path class="stroke_order_diagram--existing_path" d="M18.72,55.14c5.23-0.43,20.78-2.59,27.97-3.24" id="Ske226j5j4w" kvg:type="㇐b" transform="matrix(1,0,0,1,1396,-4)" xmlns:kvg="http://kanjivg.tagaini.net"></path><path class="stroke_order_diagram--existing_path" d="M15.43,64.16c0.65,0.27,1.82,0.26,2.47,0.27C22,64.5,37,62.25,43.44,61.68c1.07-0.09,1.72,0.13,2.26,0.26" id="Ske226j5j4x" kvg:type="㇐" transform="matrix(1,0,0,1,1396,-4)" xmlns:kvg="http://kanjivg.tagaini.net"></path><path class="stroke_order_diagram--existing_path" d="M11.18,74.78c0.87,0.36,3.13,0.6,4,0.53c7.32-0.56,23.57-3.31,31.97-4.25c1.44-0.16,2.31,0.17,3.03,0.35" id="Ske226j5j4y" kvg:type="㇐" transform="matrix(1,0,0,1,1396,-4)" xmlns:kvg="http://kanjivg.tagaini.net"></path><path class="stroke_order_diagram--existing_path" d="M31.04,33.64c0.37,0.86,0.47,1.66,0.51,3.33C32.5,81.25,29,88.75,10.74,96.94" id="Ske226j5j4z" kvg:type="㇒" transform="matrix(1,0,0,1,1396,-4)" xmlns:kvg="http://kanjivg.tagaini.net"></path><path class="stroke_order_diagram--existing_path" d="M30.18,77.92c6.31,2.88,12.3,7.89,14.92,13.01" id="Ske226j5j50" kvg:type="㇏" transform="matrix(1,0,0,1,1396,-4)" xmlns:kvg="http://kanjivg.tagaini.net"></path><path class="stroke_order_diagram--existing_path" d="M66.75,16c0.04,0.78,0.08,2.02-0.08,3.15c-0.93,6.63-6.25,21.19-13.54,30.1" id="Ske226j5j51" kvg:type="㇒" transform="matrix(1,0,0,1,1396,-4)" xmlns:kvg="http://kanjivg.tagaini.net"></path><path class="stroke_order_diagram--existing_path" d="M60.72,39.49c0.91,0.36,2.64,0.93,4.01,0.61c1.67-0.39,19.68-5.65,21.26-5.85c8-1-1.33,9.09-3,11" id="Ske226j5j52" kvg:type="㇖a" transform="matrix(1,0,0,1,1396,-4)" xmlns:kvg="http://kanjivg.tagaini.net"></path><path class="stroke_order_diagram--existing_path" d="M67.11,48.5c0.06,1.13,0.63,2.89,0.39,4.52c-2.34,15.73-4.75,31.73-20.25,43.23" id="Ske226j5j53" kvg:type="㇒" transform="matrix(1,0,0,1,1396,-4)" xmlns:kvg="http://kanjivg.tagaini.net"></path><path class="stroke_order_diagram--current_path" d="M66.92,58.5c4.08,7.75,18.8,26,25.5,32.41c1.41,1.35,2.48,2.16,3.82,2.59" id="kvg:06b4e-s15" kvg:type="㇏" transform="matrix(1,0,0,1,1396,-4)" xmlns:kvg="http://kanjivg.tagaini.net"></path><path class="stroke_order_diagram--current_path" d="M66.92,58.5c4.08,7.75,18.8,26,25.5,32.41c1.41,1.35,2.48,2.16,3.82,2.59" id="Ske226j5j55" kvg:type="㇏" transform="matrix(1,0,0,1,1396,-4)" xmlns:kvg="http://kanjivg.tagaini.net"></path><circle class="stroke_order_diagram--path_start" cx="66.92" cy="58.5" r="4" transform="matrix(1,0,0,1,1396,-4)"></circle></svg>