<svg class="stroke_order_diagram--svg_container_for_518662add5dda7965800108a" style="height: 100px; width: 1500px;" viewbox="0 0 1500 100"><desc>Created with Snap</desc><defs></defs><line class="stroke_order_diagram--bounding_box" x1="1" x2="1499" y1="1" y2="1"></line><line class="stroke_order_diagram--bounding_box" x1="1" x2="1" y1="1" y2="99"></line><line class="stroke_order_diagram--bounding_box" x1="1" x2="1499" y1="99" y2="99"></line><line class="stroke_order_diagram--guide_line" x1="0" x2="1500" y1="50" y2="50"></line><line class="stroke_order_diagram--guide_line" x1="50" x2="50" y1="1" y2="99"></line><line class="stroke_order_diagram--bounding_box" x1="99" x2="99" y1="1" y2="99"></line><path class="stroke_order_diagram--current_path" d="M15.75,17.47c1,0.28,2.79,0.56,3.8,0.52C25,17.75,39,17.25,45.28,16.51c1.64-0.19,2.64,0.25,3.47,0.5" id="kvg:06ba4-s1" kvg:type="㇐" transform="matrix(1,0,0,1,-4,-4)" xmlns:kvg="http://kanjivg.tagaini.net"></path><path class="stroke_order_diagram--current_path" d="M15.75,17.47c1,0.28,2.79,0.56,3.8,0.52C25,17.75,39,17.25,45.28,16.51c1.64-0.19,2.64,0.25,3.47,0.5" id="Ske2o3mc6o" kvg:type="㇐" transform="matrix(1,0,0,1,-4,-4)" xmlns:kvg="http://kanjivg.tagaini.net"></path><circle class="stroke_order_diagram--path_start" cx="15.75" cy="17.47" r="4" transform="matrix(1,0,0,1,-4,-4)"></circle><line class="stroke_order_diagram--guide_line" x1="150" x2="150" y1="1" y2="99"></line><line class="stroke_order_diagram--bounding_box" x1="199" x2="199" y1="1" y2="99"></line><path class="stroke_order_diagram--existing_path" d="M15.75,17.47c1,0.28,2.79,0.56,3.8,0.52C25,17.75,39,17.25,45.28,16.51c1.64-0.19,2.64,0.25,3.47,0.5" id="Ske2o3mc6r" kvg:type="㇐" transform="matrix(1,0,0,1,96,-4)" xmlns:kvg="http://kanjivg.tagaini.net"></path><path class="stroke_order_diagram--current_path" d="M29.66,20.39c0.2,0.73,0.84,1.96,0.38,3.34C26.75,33.75,20,47.75,11.67,59.41" id="kvg:06ba4-s2" kvg:type="㇒" transform="matrix(1,0,0,1,96,-4)" xmlns:kvg="http://kanjivg.tagaini.net"></path><path class="stroke_order_diagram--current_path" d="M29.66,20.39c0.2,0.73,0.84,1.96,0.38,3.34C26.75,33.75,20,47.75,11.67,59.41" id="Ske2o3mc6t" kvg:type="㇒" transform="matrix(1,0,0,1,96,-4)" xmlns:kvg="http://kanjivg.tagaini.net"></path><circle class="stroke_order_diagram--path_start" cx="29.66" cy="20.39" r="4" transform="matrix(1,0,0,1,96,-4)"></circle><line class="stroke_order_diagram--guide_line" x1="250" x2="250" y1="1" y2="99"></line><line class="stroke_order_diagram--bounding_box" x1="299" x2="299" y1="1" y2="99"></line><path class="stroke_order_diagram--existing_path" d="M15.75,17.47c1,0.28,2.79,0.56,3.8,0.52C25,17.75,39,17.25,45.28,16.51c1.64-0.19,2.64,0.25,3.47,0.5" id="Ske2o3mc6w" kvg:type="㇐" transform="matrix(1,0,0,1,196,-4)" xmlns:kvg="http://kanjivg.tagaini.net"></path><path class="stroke_order_diagram--existing_path" d="M29.66,20.39c0.2,0.73,0.84,1.96,0.38,3.34C26.75,33.75,20,47.75,11.67,59.41" id="Ske2o3mc6x" kvg:type="㇒" transform="matrix(1,0,0,1,196,-4)" xmlns:kvg="http://kanjivg.tagaini.net"></path><path class="stroke_order_diagram--current_path" d="M27.64,36.5c0.26,0.05,1.89,0,2.64-0.14c2.47-0.45,4.7-0.78,8.93-1.55c2.49-0.46,2.91,2.23,2.29,4.81C38.11,53.76,26,79,11.61,91.5" id="kvg:06ba4-s3" kvg:type="㇇" transform="matrix(1,0,0,1,196,-4)" xmlns:kvg="http://kanjivg.tagaini.net"></path><path class="stroke_order_diagram--current_path" d="M27.64,36.5c0.26,0.05,1.89,0,2.64-0.14c2.47-0.45,4.7-0.78,8.93-1.55c2.49-0.46,2.91,2.23,2.29,4.81C38.11,53.76,26,79,11.61,91.5" id="Ske2o3mc6z" kvg:type="㇇" transform="matrix(1,0,0,1,196,-4)" xmlns:kvg="http://kanjivg.tagaini.net"></path><circle class="stroke_order_diagram--path_start" cx="27.64" cy="36.5" r="4" transform="matrix(1,0,0,1,196,-4)"></circle><line class="stroke_order_diagram--guide_line" x1="350" x2="350" y1="1" y2="99"></line><line class="stroke_order_diagram--bounding_box" x1="399" x2="399" y1="1" y2="99"></line><path class="stroke_order_diagram--existing_path" d="M15.75,17.47c1,0.28,2.79,0.56,3.8,0.52C25,17.75,39,17.25,45.28,16.51c1.64-0.19,2.64,0.25,3.47,0.5" id="Ske2o3mc612" kvg:type="㇐" transform="matrix(1,0,0,1,296,-4)" xmlns:kvg="http://kanjivg.tagaini.net"></path><path class="stroke_order_diagram--existing_path" d="M29.66,20.39c0.2,0.73,0.84,1.96,0.38,3.34C26.75,33.75,20,47.75,11.67,59.41" id="Ske2o3mc613" kvg:type="㇒" transform="matrix(1,0,0,1,296,-4)" xmlns:kvg="http://kanjivg.tagaini.net"></path><path class="stroke_order_diagram--existing_path" d="M27.64,36.5c0.26,0.05,1.89,0,2.64-0.14c2.47-0.45,4.7-0.78,8.93-1.55c2.49-0.46,2.91,2.23,2.29,4.81C38.11,53.76,26,79,11.61,91.5" id="Ske2o3mc614" kvg:type="㇇" transform="matrix(1,0,0,1,296,-4)" xmlns:kvg="http://kanjivg.tagaini.net"></path><path class="stroke_order_diagram--current_path" d="M18.96,54.23c3.55,1.84,9.17,7.55,10.06,10.41" id="kvg:06ba4-s4" kvg:type="㇔" transform="matrix(1,0,0,1,296,-4)" xmlns:kvg="http://kanjivg.tagaini.net"></path><path class="stroke_order_diagram--current_path" d="M18.96,54.23c3.55,1.84,9.17,7.55,10.06,10.41" id="Ske2o3mc616" kvg:type="㇔" transform="matrix(1,0,0,1,296,-4)" xmlns:kvg="http://kanjivg.tagaini.net"></path><circle class="stroke_order_diagram--path_start" cx="18.96" cy="54.23" r="4" transform="matrix(1,0,0,1,296,-4)"></circle><line class="stroke_order_diagram--guide_line" x1="450" x2="450" y1="1" y2="99"></line><line class="stroke_order_diagram--bounding_box" x1="499" x2="499" y1="1" y2="99"></line><path class="stroke_order_diagram--existing_path" d="M15.75,17.47c1,0.28,2.79,0.56,3.8,0.52C25,17.75,39,17.25,45.28,16.51c1.64-0.19,2.64,0.25,3.47,0.5" id="Ske2o3mc619" kvg:type="㇐" transform="matrix(1,0,0,1,396,-4)" xmlns:kvg="http://kanjivg.tagaini.net"></path><path class="stroke_order_diagram--existing_path" d="M29.66,20.39c0.2,0.73,0.84,1.96,0.38,3.34C26.75,33.75,20,47.75,11.67,59.41" id="Ske2o3mc61a" kvg:type="㇒" transform="matrix(1,0,0,1,396,-4)" xmlns:kvg="http://kanjivg.tagaini.net"></path><path class="stroke_order_diagram--existing_path" d="M27.64,36.5c0.26,0.05,1.89,0,2.64-0.14c2.47-0.45,4.7-0.78,8.93-1.55c2.49-0.46,2.91,2.23,2.29,4.81C38.11,53.76,26,79,11.61,91.5" id="Ske2o3mc61b" kvg:type="㇇" transform="matrix(1,0,0,1,396,-4)" xmlns:kvg="http://kanjivg.tagaini.net"></path><path class="stroke_order_diagram--existing_path" d="M18.96,54.23c3.55,1.84,9.17,7.55,10.06,10.41" id="Ske2o3mc61c" kvg:type="㇔" transform="matrix(1,0,0,1,396,-4)" xmlns:kvg="http://kanjivg.tagaini.net"></path><path class="stroke_order_diagram--current_path" d="M61.35,11.5c0.04,0.48,0.14,1.38-0.07,1.92C58.67,20.18,54.89,26.71,48,32.79" id="kvg:06ba4-s5" kvg:type="㇒" transform="matrix(1,0,0,1,396,-4)" xmlns:kvg="http://kanjivg.tagaini.net"></path><path class="stroke_order_diagram--current_path" d="M61.35,11.5c0.04,0.48,0.14,1.38-0.07,1.92C58.67,20.18,54.89,26.71,48,32.79" id="Ske2o3mc61e" kvg:type="㇒" transform="matrix(1,0,0,1,396,-4)" xmlns:kvg="http://kanjivg.tagaini.net"></path><circle class="stroke_order_diagram--path_start" cx="61.35" cy="11.5" r="4" transform="matrix(1,0,0,1,396,-4)"></circle><line class="stroke_order_diagram--guide_line" x1="550" x2="550" y1="1" y2="99"></line><line class="stroke_order_diagram--bounding_box" x1="599" x2="599" y1="1" y2="99"></line><path class="stroke_order_diagram--existing_path" d="M15.75,17.47c1,0.28,2.79,0.56,3.8,0.52C25,17.75,39,17.25,45.28,16.51c1.64-0.19,2.64,0.25,3.47,0.5" id="Ske2o3mc61h" kvg:type="㇐" transform="matrix(1,0,0,1,496,-4)" xmlns:kvg="http://kanjivg.tagaini.net"></path><path class="stroke_order_diagram--existing_path" d="M29.66,20.39c0.2,0.73,0.84,1.96,0.38,3.34C26.75,33.75,20,47.75,11.67,59.41" id="Ske2o3mc61i" kvg:type="㇒" transform="matrix(1,0,0,1,496,-4)" xmlns:kvg="http://kanjivg.tagaini.net"></path><path class="stroke_order_diagram--existing_path" d="M27.64,36.5c0.26,0.05,1.89,0,2.64-0.14c2.47-0.45,4.7-0.78,8.93-1.55c2.49-0.46,2.91,2.23,2.29,4.81C38.11,53.76,26,79,11.61,91.5" id="Ske2o3mc61j" kvg:type="㇇" transform="matrix(1,0,0,1,496,-4)" xmlns:kvg="http://kanjivg.tagaini.net"></path><path class="stroke_order_diagram--existing_path" d="M18.96,54.23c3.55,1.84,9.17,7.55,10.06,10.41" id="Ske2o3mc61k" kvg:type="㇔" transform="matrix(1,0,0,1,496,-4)" xmlns:kvg="http://kanjivg.tagaini.net"></path><path class="stroke_order_diagram--existing_path" d="M61.35,11.5c0.04,0.48,0.14,1.38-0.07,1.92C58.67,20.18,54.89,26.71,48,32.79" id="Ske2o3mc61l" kvg:type="㇒" transform="matrix(1,0,0,1,496,-4)" xmlns:kvg="http://kanjivg.tagaini.net"></path><path class="stroke_order_diagram--current_path" d="M61,21.14c0.76,0.38,2.24,0.46,3,0.36c4.82-0.66,20.15-2.39,25.5-3c1.25-0.14,2.62-0.18,3.25,0.01" id="kvg:06ba4-s6" kvg:type="㇐" transform="matrix(1,0,0,1,496,-4)" xmlns:kvg="http://kanjivg.tagaini.net"></path><path class="stroke_order_diagram--current_path" d="M61,21.14c0.76,0.38,2.24,0.46,3,0.36c4.82-0.66,20.15-2.39,25.5-3c1.25-0.14,2.62-0.18,3.25,0.01" id="Ske2o3mc61n" kvg:type="㇐" transform="matrix(1,0,0,1,496,-4)" xmlns:kvg="http://kanjivg.tagaini.net"></path><circle class="stroke_order_diagram--path_start" cx="61" cy="21.14" r="4" transform="matrix(1,0,0,1,496,-4)"></circle><line class="stroke_order_diagram--guide_line" x1="650" x2="650" y1="1" y2="99"></line><line class="stroke_order_diagram--bounding_box" x1="699" x2="699" y1="1" y2="99"></line><path class="stroke_order_diagram--existing_path" d="M15.75,17.47c1,0.28,2.79,0.56,3.8,0.52C25,17.75,39,17.25,45.28,16.51c1.64-0.19,2.64,0.25,3.47,0.5" id="Ske2o3mc61q" kvg:type="㇐" transform="matrix(1,0,0,1,596,-4)" xmlns:kvg="http://kanjivg.tagaini.net"></path><path class="stroke_order_diagram--existing_path" d="M29.66,20.39c0.2,0.73,0.84,1.96,0.38,3.34C26.75,33.75,20,47.75,11.67,59.41" id="Ske2o3mc61r" kvg:type="㇒" transform="matrix(1,0,0,1,596,-4)" xmlns:kvg="http://kanjivg.tagaini.net"></path><path class="stroke_order_diagram--existing_path" d="M27.64,36.5c0.26,0.05,1.89,0,2.64-0.14c2.47-0.45,4.7-0.78,8.93-1.55c2.49-0.46,2.91,2.23,2.29,4.81C38.11,53.76,26,79,11.61,91.5" id="Ske2o3mc61s" kvg:type="㇇" transform="matrix(1,0,0,1,596,-4)" xmlns:kvg="http://kanjivg.tagaini.net"></path><path class="stroke_order_diagram--existing_path" d="M18.96,54.23c3.55,1.84,9.17,7.55,10.06,10.41" id="Ske2o3mc61t" kvg:type="㇔" transform="matrix(1,0,0,1,596,-4)" xmlns:kvg="http://kanjivg.tagaini.net"></path><path class="stroke_order_diagram--existing_path" d="M61.35,11.5c0.04,0.48,0.14,1.38-0.07,1.92C58.67,20.18,54.89,26.71,48,32.79" id="Ske2o3mc61u" kvg:type="㇒" transform="matrix(1,0,0,1,596,-4)" xmlns:kvg="http://kanjivg.tagaini.net"></path><path class="stroke_order_diagram--existing_path" d="M61,21.14c0.76,0.38,2.24,0.46,3,0.36c4.82-0.66,20.15-2.39,25.5-3c1.25-0.14,2.62-0.18,3.25,0.01" id="Ske2o3mc61v" kvg:type="㇐" transform="matrix(1,0,0,1,596,-4)" xmlns:kvg="http://kanjivg.tagaini.net"></path><path class="stroke_order_diagram--current_path" d="M56.63,30.86c0.24,0.4,0.4,0.61,0.48,1.13c0.59,3.68,2.39,15.99,2.47,16.52" id="kvg:06ba4-s7" kvg:type="㇑" transform="matrix(1,0,0,1,596,-4)" xmlns:kvg="http://kanjivg.tagaini.net"></path><path class="stroke_order_diagram--current_path" d="M56.63,30.86c0.24,0.4,0.4,0.61,0.48,1.13c0.59,3.68,2.39,15.99,2.47,16.52" id="Ske2o3mc61x" kvg:type="㇑" transform="matrix(1,0,0,1,596,-4)" xmlns:kvg="http://kanjivg.tagaini.net"></path><circle class="stroke_order_diagram--path_start" cx="56.63" cy="30.86" r="4" transform="matrix(1,0,0,1,596,-4)"></circle><line class="stroke_order_diagram--guide_line" x1="750" x2="750" y1="1" y2="99"></line><line class="stroke_order_diagram--bounding_box" x1="799" x2="799" y1="1" y2="99"></line><path class="stroke_order_diagram--existing_path" d="M15.75,17.47c1,0.28,2.79,0.56,3.8,0.52C25,17.75,39,17.25,45.28,16.51c1.64-0.19,2.64,0.25,3.47,0.5" id="Ske2o3mc620" kvg:type="㇐" transform="matrix(1,0,0,1,696,-4)" xmlns:kvg="http://kanjivg.tagaini.net"></path><path class="stroke_order_diagram--existing_path" d="M29.66,20.39c0.2,0.73,0.84,1.96,0.38,3.34C26.75,33.75,20,47.75,11.67,59.41" id="Ske2o3mc621" kvg:type="㇒" transform="matrix(1,0,0,1,696,-4)" xmlns:kvg="http://kanjivg.tagaini.net"></path><path class="stroke_order_diagram--existing_path" d="M27.64,36.5c0.26,0.05,1.89,0,2.64-0.14c2.47-0.45,4.7-0.78,8.93-1.55c2.49-0.46,2.91,2.23,2.29,4.81C38.11,53.76,26,79,11.61,91.5" id="Ske2o3mc622" kvg:type="㇇" transform="matrix(1,0,0,1,696,-4)" xmlns:kvg="http://kanjivg.tagaini.net"></path><path class="stroke_order_diagram--existing_path" d="M18.96,54.23c3.55,1.84,9.17,7.55,10.06,10.41" id="Ske2o3mc623" kvg:type="㇔" transform="matrix(1,0,0,1,696,-4)" xmlns:kvg="http://kanjivg.tagaini.net"></path><path class="stroke_order_diagram--existing_path" d="M61.35,11.5c0.04,0.48,0.14,1.38-0.07,1.92C58.67,20.18,54.89,26.71,48,32.79" id="Ske2o3mc624" kvg:type="㇒" transform="matrix(1,0,0,1,696,-4)" xmlns:kvg="http://kanjivg.tagaini.net"></path><path class="stroke_order_diagram--existing_path" d="M61,21.14c0.76,0.38,2.24,0.46,3,0.36c4.82-0.66,20.15-2.39,25.5-3c1.25-0.14,2.62-0.18,3.25,0.01" id="Ske2o3mc625" kvg:type="㇐" transform="matrix(1,0,0,1,696,-4)" xmlns:kvg="http://kanjivg.tagaini.net"></path><path class="stroke_order_diagram--existing_path" d="M56.63,30.86c0.24,0.4,0.4,0.61,0.48,1.13c0.59,3.68,2.39,15.99,2.47,16.52" id="Ske2o3mc626" kvg:type="㇑" transform="matrix(1,0,0,1,696,-4)" xmlns:kvg="http://kanjivg.tagaini.net"></path><path class="stroke_order_diagram--current_path" d="M57.7,31.5c4.62-0.52,19.26-1.91,25.18-2.26c1.03-0.06,1.65,1.42,1.61,1.82c-0.45,4.96-1.8,11.17-3.24,15.39" id="kvg:06ba4-s8" kvg:type="㇕a" transform="matrix(1,0,0,1,696,-4)" xmlns:kvg="http://kanjivg.tagaini.net"></path><path class="stroke_order_diagram--current_path" d="M57.7,31.5c4.62-0.52,19.26-1.91,25.18-2.26c1.03-0.06,1.65,1.42,1.61,1.82c-0.45,4.96-1.8,11.17-3.24,15.39" id="Ske2o3mc628" kvg:type="㇕a" transform="matrix(1,0,0,1,696,-4)" xmlns:kvg="http://kanjivg.tagaini.net"></path><circle class="stroke_order_diagram--path_start" cx="57.7" cy="31.5" r="4" transform="matrix(1,0,0,1,696,-4)"></circle><line class="stroke_order_diagram--guide_line" x1="850" x2="850" y1="1" y2="99"></line><line class="stroke_order_diagram--bounding_box" x1="899" x2="899" y1="1" y2="99"></line><path class="stroke_order_diagram--existing_path" d="M15.75,17.47c1,0.28,2.79,0.56,3.8,0.52C25,17.75,39,17.25,45.28,16.51c1.64-0.19,2.64,0.25,3.47,0.5" id="Ske2o3mc62b" kvg:type="㇐" transform="matrix(1,0,0,1,796,-4)" xmlns:kvg="http://kanjivg.tagaini.net"></path><path class="stroke_order_diagram--existing_path" d="M29.66,20.39c0.2,0.73,0.84,1.96,0.38,3.34C26.75,33.75,20,47.75,11.67,59.41" id="Ske2o3mc62c" kvg:type="㇒" transform="matrix(1,0,0,1,796,-4)" xmlns:kvg="http://kanjivg.tagaini.net"></path><path class="stroke_order_diagram--existing_path" d="M27.64,36.5c0.26,0.05,1.89,0,2.64-0.14c2.47-0.45,4.7-0.78,8.93-1.55c2.49-0.46,2.91,2.23,2.29,4.81C38.11,53.76,26,79,11.61,91.5" id="Ske2o3mc62d" kvg:type="㇇" transform="matrix(1,0,0,1,796,-4)" xmlns:kvg="http://kanjivg.tagaini.net"></path><path class="stroke_order_diagram--existing_path" d="M18.96,54.23c3.55,1.84,9.17,7.55,10.06,10.41" id="Ske2o3mc62e" kvg:type="㇔" transform="matrix(1,0,0,1,796,-4)" xmlns:kvg="http://kanjivg.tagaini.net"></path><path class="stroke_order_diagram--existing_path" d="M61.35,11.5c0.04,0.48,0.14,1.38-0.07,1.92C58.67,20.18,54.89,26.71,48,32.79" id="Ske2o3mc62f" kvg:type="㇒" transform="matrix(1,0,0,1,796,-4)" xmlns:kvg="http://kanjivg.tagaini.net"></path><path class="stroke_order_diagram--existing_path" d="M61,21.14c0.76,0.38,2.24,0.46,3,0.36c4.82-0.66,20.15-2.39,25.5-3c1.25-0.14,2.62-0.18,3.25,0.01" id="Ske2o3mc62g" kvg:type="㇐" transform="matrix(1,0,0,1,796,-4)" xmlns:kvg="http://kanjivg.tagaini.net"></path><path class="stroke_order_diagram--existing_path" d="M56.63,30.86c0.24,0.4,0.4,0.61,0.48,1.13c0.59,3.68,2.39,15.99,2.47,16.52" id="Ske2o3mc62h" kvg:type="㇑" transform="matrix(1,0,0,1,796,-4)" xmlns:kvg="http://kanjivg.tagaini.net"></path><path class="stroke_order_diagram--existing_path" d="M57.7,31.5c4.62-0.52,19.26-1.91,25.18-2.26c1.03-0.06,1.65,1.42,1.61,1.82c-0.45,4.96-1.8,11.17-3.24,15.39" id="Ske2o3mc62i" kvg:type="㇕a" transform="matrix(1,0,0,1,796,-4)" xmlns:kvg="http://kanjivg.tagaini.net"></path><path class="stroke_order_diagram--current_path" d="M58.63,38.8c1.83,0,21.97-1.74,24.05-1.74" id="kvg:06ba4-s9" kvg:type="㇐a" transform="matrix(1,0,0,1,796,-4)" xmlns:kvg="http://kanjivg.tagaini.net"></path><path class="stroke_order_diagram--current_path" d="M58.63,38.8c1.83,0,21.97-1.74,24.05-1.74" id="Ske2o3mc62k" kvg:type="㇐a" transform="matrix(1,0,0,1,796,-4)" xmlns:kvg="http://kanjivg.tagaini.net"></path><circle class="stroke_order_diagram--path_start" cx="58.63" cy="38.8" r="4" transform="matrix(1,0,0,1,796,-4)"></circle><line class="stroke_order_diagram--guide_line" x1="950" x2="950" y1="1" y2="99"></line><line class="stroke_order_diagram--bounding_box" x1="999" x2="999" y1="1" y2="99"></line><path class="stroke_order_diagram--existing_path" d="M15.75,17.47c1,0.28,2.79,0.56,3.8,0.52C25,17.75,39,17.25,45.28,16.51c1.64-0.19,2.64,0.25,3.47,0.5" id="Ske2o3mc62n" kvg:type="㇐" transform="matrix(1,0,0,1,896,-4)" xmlns:kvg="http://kanjivg.tagaini.net"></path><path class="stroke_order_diagram--existing_path" d="M29.66,20.39c0.2,0.73,0.84,1.96,0.38,3.34C26.75,33.75,20,47.75,11.67,59.41" id="Ske2o3mc62o" kvg:type="㇒" transform="matrix(1,0,0,1,896,-4)" xmlns:kvg="http://kanjivg.tagaini.net"></path><path class="stroke_order_diagram--existing_path" d="M27.64,36.5c0.26,0.05,1.89,0,2.64-0.14c2.47-0.45,4.7-0.78,8.93-1.55c2.49-0.46,2.91,2.23,2.29,4.81C38.11,53.76,26,79,11.61,91.5" id="Ske2o3mc62p" kvg:type="㇇" transform="matrix(1,0,0,1,896,-4)" xmlns:kvg="http://kanjivg.tagaini.net"></path><path class="stroke_order_diagram--existing_path" d="M18.96,54.23c3.55,1.84,9.17,7.55,10.06,10.41" id="Ske2o3mc62q" kvg:type="㇔" transform="matrix(1,0,0,1,896,-4)" xmlns:kvg="http://kanjivg.tagaini.net"></path><path class="stroke_order_diagram--existing_path" d="M61.35,11.5c0.04,0.48,0.14,1.38-0.07,1.92C58.67,20.18,54.89,26.71,48,32.79" id="Ske2o3mc62r" kvg:type="㇒" transform="matrix(1,0,0,1,896,-4)" xmlns:kvg="http://kanjivg.tagaini.net"></path><path class="stroke_order_diagram--existing_path" d="M61,21.14c0.76,0.38,2.24,0.46,3,0.36c4.82-0.66,20.15-2.39,25.5-3c1.25-0.14,2.62-0.18,3.25,0.01" id="Ske2o3mc62s" kvg:type="㇐" transform="matrix(1,0,0,1,896,-4)" xmlns:kvg="http://kanjivg.tagaini.net"></path><path class="stroke_order_diagram--existing_path" d="M56.63,30.86c0.24,0.4,0.4,0.61,0.48,1.13c0.59,3.68,2.39,15.99,2.47,16.52" id="Ske2o3mc62t" kvg:type="㇑" transform="matrix(1,0,0,1,896,-4)" xmlns:kvg="http://kanjivg.tagaini.net"></path><path class="stroke_order_diagram--existing_path" d="M57.7,31.5c4.62-0.52,19.26-1.91,25.18-2.26c1.03-0.06,1.65,1.42,1.61,1.82c-0.45,4.96-1.8,11.17-3.24,15.39" id="Ske2o3mc62u" kvg:type="㇕a" transform="matrix(1,0,0,1,896,-4)" xmlns:kvg="http://kanjivg.tagaini.net"></path><path class="stroke_order_diagram--existing_path" d="M58.63,38.8c1.83,0,21.97-1.74,24.05-1.74" id="Ske2o3mc62v" kvg:type="㇐a" transform="matrix(1,0,0,1,896,-4)" xmlns:kvg="http://kanjivg.tagaini.net"></path><path class="stroke_order_diagram--current_path" d="M59.86,46.44c3.73-0.39,16.34-1.22,20.99-1.55" id="kvg:06ba4-s10" kvg:type="㇐a" transform="matrix(1,0,0,1,896,-4)" xmlns:kvg="http://kanjivg.tagaini.net"></path><path class="stroke_order_diagram--current_path" d="M59.86,46.44c3.73-0.39,16.34-1.22,20.99-1.55" id="Ske2o3mc62x" kvg:type="㇐a" transform="matrix(1,0,0,1,896,-4)" xmlns:kvg="http://kanjivg.tagaini.net"></path><circle class="stroke_order_diagram--path_start" cx="59.86" cy="46.44" r="4" transform="matrix(1,0,0,1,896,-4)"></circle><line class="stroke_order_diagram--guide_line" x1="1050" x2="1050" y1="1" y2="99"></line><line class="stroke_order_diagram--bounding_box" x1="1099" x2="1099" y1="1" y2="99"></line><path class="stroke_order_diagram--existing_path" d="M15.75,17.47c1,0.28,2.79,0.56,3.8,0.52C25,17.75,39,17.25,45.28,16.51c1.64-0.19,2.64,0.25,3.47,0.5" id="Ske2o3mc630" kvg:type="㇐" transform="matrix(1,0,0,1,996,-4)" xmlns:kvg="http://kanjivg.tagaini.net"></path><path class="stroke_order_diagram--existing_path" d="M29.66,20.39c0.2,0.73,0.84,1.96,0.38,3.34C26.75,33.75,20,47.75,11.67,59.41" id="Ske2o3mc631" kvg:type="㇒" transform="matrix(1,0,0,1,996,-4)" xmlns:kvg="http://kanjivg.tagaini.net"></path><path class="stroke_order_diagram--existing_path" d="M27.64,36.5c0.26,0.05,1.89,0,2.64-0.14c2.47-0.45,4.7-0.78,8.93-1.55c2.49-0.46,2.91,2.23,2.29,4.81C38.11,53.76,26,79,11.61,91.5" id="Ske2o3mc632" kvg:type="㇇" transform="matrix(1,0,0,1,996,-4)" xmlns:kvg="http://kanjivg.tagaini.net"></path><path class="stroke_order_diagram--existing_path" d="M18.96,54.23c3.55,1.84,9.17,7.55,10.06,10.41" id="Ske2o3mc633" kvg:type="㇔" transform="matrix(1,0,0,1,996,-4)" xmlns:kvg="http://kanjivg.tagaini.net"></path><path class="stroke_order_diagram--existing_path" d="M61.35,11.5c0.04,0.48,0.14,1.38-0.07,1.92C58.67,20.18,54.89,26.71,48,32.79" id="Ske2o3mc634" kvg:type="㇒" transform="matrix(1,0,0,1,996,-4)" xmlns:kvg="http://kanjivg.tagaini.net"></path><path class="stroke_order_diagram--existing_path" d="M61,21.14c0.76,0.38,2.24,0.46,3,0.36c4.82-0.66,20.15-2.39,25.5-3c1.25-0.14,2.62-0.18,3.25,0.01" id="Ske2o3mc635" kvg:type="㇐" transform="matrix(1,0,0,1,996,-4)" xmlns:kvg="http://kanjivg.tagaini.net"></path><path class="stroke_order_diagram--existing_path" d="M56.63,30.86c0.24,0.4,0.4,0.61,0.48,1.13c0.59,3.68,2.39,15.99,2.47,16.52" id="Ske2o3mc636" kvg:type="㇑" transform="matrix(1,0,0,1,996,-4)" xmlns:kvg="http://kanjivg.tagaini.net"></path><path class="stroke_order_diagram--existing_path" d="M57.7,31.5c4.62-0.52,19.26-1.91,25.18-2.26c1.03-0.06,1.65,1.42,1.61,1.82c-0.45,4.96-1.8,11.17-3.24,15.39" id="Ske2o3mc637" kvg:type="㇕a" transform="matrix(1,0,0,1,996,-4)" xmlns:kvg="http://kanjivg.tagaini.net"></path><path class="stroke_order_diagram--existing_path" d="M58.63,38.8c1.83,0,21.97-1.74,24.05-1.74" id="Ske2o3mc638" kvg:type="㇐a" transform="matrix(1,0,0,1,996,-4)" xmlns:kvg="http://kanjivg.tagaini.net"></path><path class="stroke_order_diagram--existing_path" d="M59.86,46.44c3.73-0.39,16.34-1.22,20.99-1.55" id="Ske2o3mc639" kvg:type="㇐a" transform="matrix(1,0,0,1,996,-4)" xmlns:kvg="http://kanjivg.tagaini.net"></path><path class="stroke_order_diagram--current_path" d="M46.31,55.56c1.28,0.3,3.62,0.35,4.89,0.3c13.28-0.51,29.55-2.81,42-2.93c2.13-0.02,3.4,0.15,4.47,0.3" id="kvg:06ba4-s11" kvg:type="㇐" transform="matrix(1,0,0,1,996,-4)" xmlns:kvg="http://kanjivg.tagaini.net"></path><path class="stroke_order_diagram--current_path" d="M46.31,55.56c1.28,0.3,3.62,0.35,4.89,0.3c13.28-0.51,29.55-2.81,42-2.93c2.13-0.02,3.4,0.15,4.47,0.3" id="Ske2o3mc63b" kvg:type="㇐" transform="matrix(1,0,0,1,996,-4)" xmlns:kvg="http://kanjivg.tagaini.net"></path><circle class="stroke_order_diagram--path_start" cx="46.31" cy="55.56" r="4" transform="matrix(1,0,0,1,996,-4)"></circle><line class="stroke_order_diagram--guide_line" x1="1150" x2="1150" y1="1" y2="99"></line><line class="stroke_order_diagram--bounding_box" x1="1199" x2="1199" y1="1" y2="99"></line><path class="stroke_order_diagram--existing_path" d="M15.75,17.47c1,0.28,2.79,0.56,3.8,0.52C25,17.75,39,17.25,45.28,16.51c1.64-0.19,2.64,0.25,3.47,0.5" id="Ske2o3mc63e" kvg:type="㇐" transform="matrix(1,0,0,1,1096,-4)" xmlns:kvg="http://kanjivg.tagaini.net"></path><path class="stroke_order_diagram--existing_path" d="M29.66,20.39c0.2,0.73,0.84,1.96,0.38,3.34C26.75,33.75,20,47.75,11.67,59.41" id="Ske2o3mc63f" kvg:type="㇒" transform="matrix(1,0,0,1,1096,-4)" xmlns:kvg="http://kanjivg.tagaini.net"></path><path class="stroke_order_diagram--existing_path" d="M27.64,36.5c0.26,0.05,1.89,0,2.64-0.14c2.47-0.45,4.7-0.78,8.93-1.55c2.49-0.46,2.91,2.23,2.29,4.81C38.11,53.76,26,79,11.61,91.5" id="Ske2o3mc63g" kvg:type="㇇" transform="matrix(1,0,0,1,1096,-4)" xmlns:kvg="http://kanjivg.tagaini.net"></path><path class="stroke_order_diagram--existing_path" d="M18.96,54.23c3.55,1.84,9.17,7.55,10.06,10.41" id="Ske2o3mc63h" kvg:type="㇔" transform="matrix(1,0,0,1,1096,-4)" xmlns:kvg="http://kanjivg.tagaini.net"></path><path class="stroke_order_diagram--existing_path" d="M61.35,11.5c0.04,0.48,0.14,1.38-0.07,1.92C58.67,20.18,54.89,26.71,48,32.79" id="Ske2o3mc63i" kvg:type="㇒" transform="matrix(1,0,0,1,1096,-4)" xmlns:kvg="http://kanjivg.tagaini.net"></path><path class="stroke_order_diagram--existing_path" d="M61,21.14c0.76,0.38,2.24,0.46,3,0.36c4.82-0.66,20.15-2.39,25.5-3c1.25-0.14,2.62-0.18,3.25,0.01" id="Ske2o3mc63j" kvg:type="㇐" transform="matrix(1,0,0,1,1096,-4)" xmlns:kvg="http://kanjivg.tagaini.net"></path><path class="stroke_order_diagram--existing_path" d="M56.63,30.86c0.24,0.4,0.4,0.61,0.48,1.13c0.59,3.68,2.39,15.99,2.47,16.52" id="Ske2o3mc63k" kvg:type="㇑" transform="matrix(1,0,0,1,1096,-4)" xmlns:kvg="http://kanjivg.tagaini.net"></path><path class="stroke_order_diagram--existing_path" d="M57.7,31.5c4.62-0.52,19.26-1.91,25.18-2.26c1.03-0.06,1.65,1.42,1.61,1.82c-0.45,4.96-1.8,11.17-3.24,15.39" id="Ske2o3mc63l" kvg:type="㇕a" transform="matrix(1,0,0,1,1096,-4)" xmlns:kvg="http://kanjivg.tagaini.net"></path><path class="stroke_order_diagram--existing_path" d="M58.63,38.8c1.83,0,21.97-1.74,24.05-1.74" id="Ske2o3mc63m" kvg:type="㇐a" transform="matrix(1,0,0,1,1096,-4)" xmlns:kvg="http://kanjivg.tagaini.net"></path><path class="stroke_order_diagram--existing_path" d="M59.86,46.44c3.73-0.39,16.34-1.22,20.99-1.55" id="Ske2o3mc63n" kvg:type="㇐a" transform="matrix(1,0,0,1,1096,-4)" xmlns:kvg="http://kanjivg.tagaini.net"></path><path class="stroke_order_diagram--existing_path" d="M46.31,55.56c1.28,0.3,3.62,0.35,4.89,0.3c13.28-0.51,29.55-2.81,42-2.93c2.13-0.02,3.4,0.15,4.47,0.3" id="Ske2o3mc63o" kvg:type="㇐" transform="matrix(1,0,0,1,1096,-4)" xmlns:kvg="http://kanjivg.tagaini.net"></path><path class="stroke_order_diagram--current_path" d="M59.13,58.23c0.04,0.47,0.24,1.27-0.08,1.89c-2.3,4.38-8.15,11.02-15.85,16.85" id="kvg:06ba4-s12" kvg:type="㇒" transform="matrix(1,0,0,1,1096,-4)" xmlns:kvg="http://kanjivg.tagaini.net"></path><path class="stroke_order_diagram--current_path" d="M59.13,58.23c0.04,0.47,0.24,1.27-0.08,1.89c-2.3,4.38-8.15,11.02-15.85,16.85" id="Ske2o3mc63q" kvg:type="㇒" transform="matrix(1,0,0,1,1096,-4)" xmlns:kvg="http://kanjivg.tagaini.net"></path><circle class="stroke_order_diagram--path_start" cx="59.13" cy="58.23" r="4" transform="matrix(1,0,0,1,1096,-4)"></circle><line class="stroke_order_diagram--guide_line" x1="1250" x2="1250" y1="1" y2="99"></line><line class="stroke_order_diagram--bounding_box" x1="1299" x2="1299" y1="1" y2="99"></line><path class="stroke_order_diagram--existing_path" d="M15.75,17.47c1,0.28,2.79,0.56,3.8,0.52C25,17.75,39,17.25,45.28,16.51c1.64-0.19,2.64,0.25,3.47,0.5" id="Ske2o3mc63t" kvg:type="㇐" transform="matrix(1,0,0,1,1196,-4)" xmlns:kvg="http://kanjivg.tagaini.net"></path><path class="stroke_order_diagram--existing_path" d="M29.66,20.39c0.2,0.73,0.84,1.96,0.38,3.34C26.75,33.75,20,47.75,11.67,59.41" id="Ske2o3mc63u" kvg:type="㇒" transform="matrix(1,0,0,1,1196,-4)" xmlns:kvg="http://kanjivg.tagaini.net"></path><path class="stroke_order_diagram--existing_path" d="M27.64,36.5c0.26,0.05,1.89,0,2.64-0.14c2.47-0.45,4.7-0.78,8.93-1.55c2.49-0.46,2.91,2.23,2.29,4.81C38.11,53.76,26,79,11.61,91.5" id="Ske2o3mc63v" kvg:type="㇇" transform="matrix(1,0,0,1,1196,-4)" xmlns:kvg="http://kanjivg.tagaini.net"></path><path class="stroke_order_diagram--existing_path" d="M18.96,54.23c3.55,1.84,9.17,7.55,10.06,10.41" id="Ske2o3mc63w" kvg:type="㇔" transform="matrix(1,0,0,1,1196,-4)" xmlns:kvg="http://kanjivg.tagaini.net"></path><path class="stroke_order_diagram--existing_path" d="M61.35,11.5c0.04,0.48,0.14,1.38-0.07,1.92C58.67,20.18,54.89,26.71,48,32.79" id="Ske2o3mc63x" kvg:type="㇒" transform="matrix(1,0,0,1,1196,-4)" xmlns:kvg="http://kanjivg.tagaini.net"></path><path class="stroke_order_diagram--existing_path" d="M61,21.14c0.76,0.38,2.24,0.46,3,0.36c4.82-0.66,20.15-2.39,25.5-3c1.25-0.14,2.62-0.18,3.25,0.01" id="Ske2o3mc63y" kvg:type="㇐" transform="matrix(1,0,0,1,1196,-4)" xmlns:kvg="http://kanjivg.tagaini.net"></path><path class="stroke_order_diagram--existing_path" d="M56.63,30.86c0.24,0.4,0.4,0.61,0.48,1.13c0.59,3.68,2.39,15.99,2.47,16.52" id="Ske2o3mc63z" kvg:type="㇑" transform="matrix(1,0,0,1,1196,-4)" xmlns:kvg="http://kanjivg.tagaini.net"></path><path class="stroke_order_diagram--existing_path" d="M57.7,31.5c4.62-0.52,19.26-1.91,25.18-2.26c1.03-0.06,1.65,1.42,1.61,1.82c-0.45,4.96-1.8,11.17-3.24,15.39" id="Ske2o3mc640" kvg:type="㇕a" transform="matrix(1,0,0,1,1196,-4)" xmlns:kvg="http://kanjivg.tagaini.net"></path><path class="stroke_order_diagram--existing_path" d="M58.63,38.8c1.83,0,21.97-1.74,24.05-1.74" id="Ske2o3mc641" kvg:type="㇐a" transform="matrix(1,0,0,1,1196,-4)" xmlns:kvg="http://kanjivg.tagaini.net"></path><path class="stroke_order_diagram--existing_path" d="M59.86,46.44c3.73-0.39,16.34-1.22,20.99-1.55" id="Ske2o3mc642" kvg:type="㇐a" transform="matrix(1,0,0,1,1196,-4)" xmlns:kvg="http://kanjivg.tagaini.net"></path><path class="stroke_order_diagram--existing_path" d="M46.31,55.56c1.28,0.3,3.62,0.35,4.89,0.3c13.28-0.51,29.55-2.81,42-2.93c2.13-0.02,3.4,0.15,4.47,0.3" id="Ske2o3mc643" kvg:type="㇐" transform="matrix(1,0,0,1,1196,-4)" xmlns:kvg="http://kanjivg.tagaini.net"></path><path class="stroke_order_diagram--existing_path" d="M59.13,58.23c0.04,0.47,0.24,1.27-0.08,1.89c-2.3,4.38-8.15,11.02-15.85,16.85" id="Ske2o3mc644" kvg:type="㇒" transform="matrix(1,0,0,1,1196,-4)" xmlns:kvg="http://kanjivg.tagaini.net"></path><path class="stroke_order_diagram--current_path" d="M57.29,65.46c0.83,0.45,2,0.61,3.34,0.3c1.33-0.3,24.34-2.88,27.68-3.03c3.34-0.15,4,1.51,3.5,4.69C91.31,70.6,88.33,87.62,81,96.24c-2.21,2.59-3.45-0.43-5.42-2.32" id="kvg:06ba4-s13" kvg:type="㇆" transform="matrix(1,0,0,1,1196,-4)" xmlns:kvg="http://kanjivg.tagaini.net"></path><path class="stroke_order_diagram--current_path" d="M57.29,65.46c0.83,0.45,2,0.61,3.34,0.3c1.33-0.3,24.34-2.88,27.68-3.03c3.34-0.15,4,1.51,3.5,4.69C91.31,70.6,88.33,87.62,81,96.24c-2.21,2.59-3.45-0.43-5.42-2.32" id="Ske2o3mc646" kvg:type="㇆" transform="matrix(1,0,0,1,1196,-4)" xmlns:kvg="http://kanjivg.tagaini.net"></path><circle class="stroke_order_diagram--path_start" cx="57.29" cy="65.46" r="4" transform="matrix(1,0,0,1,1196,-4)"></circle><line class="stroke_order_diagram--guide_line" x1="1350" x2="1350" y1="1" y2="99"></line><line class="stroke_order_diagram--bounding_box" x1="1399" x2="1399" y1="1" y2="99"></line><path class="stroke_order_diagram--existing_path" d="M15.75,17.47c1,0.28,2.79,0.56,3.8,0.52C25,17.75,39,17.25,45.28,16.51c1.64-0.19,2.64,0.25,3.47,0.5" id="Ske2o3mc649" kvg:type="㇐" transform="matrix(1,0,0,1,1296,-4)" xmlns:kvg="http://kanjivg.tagaini.net"></path><path class="stroke_order_diagram--existing_path" d="M29.66,20.39c0.2,0.73,0.84,1.96,0.38,3.34C26.75,33.75,20,47.75,11.67,59.41" id="Ske2o3mc64a" kvg:type="㇒" transform="matrix(1,0,0,1,1296,-4)" xmlns:kvg="http://kanjivg.tagaini.net"></path><path class="stroke_order_diagram--existing_path" d="M27.64,36.5c0.26,0.05,1.89,0,2.64-0.14c2.47-0.45,4.7-0.78,8.93-1.55c2.49-0.46,2.91,2.23,2.29,4.81C38.11,53.76,26,79,11.61,91.5" id="Ske2o3mc64b" kvg:type="㇇" transform="matrix(1,0,0,1,1296,-4)" xmlns:kvg="http://kanjivg.tagaini.net"></path><path class="stroke_order_diagram--existing_path" d="M18.96,54.23c3.55,1.84,9.17,7.55,10.06,10.41" id="Ske2o3mc64c" kvg:type="㇔" transform="matrix(1,0,0,1,1296,-4)" xmlns:kvg="http://kanjivg.tagaini.net"></path><path class="stroke_order_diagram--existing_path" d="M61.35,11.5c0.04,0.48,0.14,1.38-0.07,1.92C58.67,20.18,54.89,26.71,48,32.79" id="Ske2o3mc64d" kvg:type="㇒" transform="matrix(1,0,0,1,1296,-4)" xmlns:kvg="http://kanjivg.tagaini.net"></path><path class="stroke_order_diagram--existing_path" d="M61,21.14c0.76,0.38,2.24,0.46,3,0.36c4.82-0.66,20.15-2.39,25.5-3c1.25-0.14,2.62-0.18,3.25,0.01" id="Ske2o3mc64e" kvg:type="㇐" transform="matrix(1,0,0,1,1296,-4)" xmlns:kvg="http://kanjivg.tagaini.net"></path><path class="stroke_order_diagram--existing_path" d="M56.63,30.86c0.24,0.4,0.4,0.61,0.48,1.13c0.59,3.68,2.39,15.99,2.47,16.52" id="Ske2o3mc64f" kvg:type="㇑" transform="matrix(1,0,0,1,1296,-4)" xmlns:kvg="http://kanjivg.tagaini.net"></path><path class="stroke_order_diagram--existing_path" d="M57.7,31.5c4.62-0.52,19.26-1.91,25.18-2.26c1.03-0.06,1.65,1.42,1.61,1.82c-0.45,4.96-1.8,11.17-3.24,15.39" id="Ske2o3mc64g" kvg:type="㇕a" transform="matrix(1,0,0,1,1296,-4)" xmlns:kvg="http://kanjivg.tagaini.net"></path><path class="stroke_order_diagram--existing_path" d="M58.63,38.8c1.83,0,21.97-1.74,24.05-1.74" id="Ske2o3mc64h" kvg:type="㇐a" transform="matrix(1,0,0,1,1296,-4)" xmlns:kvg="http://kanjivg.tagaini.net"></path><path class="stroke_order_diagram--existing_path" d="M59.86,46.44c3.73-0.39,16.34-1.22,20.99-1.55" id="Ske2o3mc64i" kvg:type="㇐a" transform="matrix(1,0,0,1,1296,-4)" xmlns:kvg="http://kanjivg.tagaini.net"></path><path class="stroke_order_diagram--existing_path" d="M46.31,55.56c1.28,0.3,3.62,0.35,4.89,0.3c13.28-0.51,29.55-2.81,42-2.93c2.13-0.02,3.4,0.15,4.47,0.3" id="Ske2o3mc64j" kvg:type="㇐" transform="matrix(1,0,0,1,1296,-4)" xmlns:kvg="http://kanjivg.tagaini.net"></path><path class="stroke_order_diagram--existing_path" d="M59.13,58.23c0.04,0.47,0.24,1.27-0.08,1.89c-2.3,4.38-8.15,11.02-15.85,16.85" id="Ske2o3mc64k" kvg:type="㇒" transform="matrix(1,0,0,1,1296,-4)" xmlns:kvg="http://kanjivg.tagaini.net"></path><path class="stroke_order_diagram--existing_path" d="M57.29,65.46c0.83,0.45,2,0.61,3.34,0.3c1.33-0.3,24.34-2.88,27.68-3.03c3.34-0.15,4,1.51,3.5,4.69C91.31,70.6,88.33,87.62,81,96.24c-2.21,2.59-3.45-0.43-5.42-2.32" id="Ske2o3mc64l" kvg:type="㇆" transform="matrix(1,0,0,1,1296,-4)" xmlns:kvg="http://kanjivg.tagaini.net"></path><path class="stroke_order_diagram--current_path" d="M64.16,68.72c0.05,0.42,0.15,1.1-0.1,1.69c-2.52,5.85-9.44,13.99-19.4,18.79" id="kvg:06ba4-s14" kvg:type="㇒" transform="matrix(1,0,0,1,1296,-4)" xmlns:kvg="http://kanjivg.tagaini.net"></path><path class="stroke_order_diagram--current_path" d="M64.16,68.72c0.05,0.42,0.15,1.1-0.1,1.69c-2.52,5.85-9.44,13.99-19.4,18.79" id="Ske2o3mc64n" kvg:type="㇒" transform="matrix(1,0,0,1,1296,-4)" xmlns:kvg="http://kanjivg.tagaini.net"></path><circle class="stroke_order_diagram--path_start" cx="64.16" cy="68.72" r="4" transform="matrix(1,0,0,1,1296,-4)"></circle><line class="stroke_order_diagram--guide_line" x1="1450" x2="1450" y1="1" y2="99"></line><line class="stroke_order_diagram--bounding_box" x1="1499" x2="1499" y1="1" y2="99"></line><path class="stroke_order_diagram--existing_path" d="M15.75,17.47c1,0.28,2.79,0.56,3.8,0.52C25,17.75,39,17.25,45.28,16.51c1.64-0.19,2.64,0.25,3.47,0.5" id="Ske2o3mc64q" kvg:type="㇐" transform="matrix(1,0,0,1,1396,-4)" xmlns:kvg="http://kanjivg.tagaini.net"></path><path class="stroke_order_diagram--existing_path" d="M29.66,20.39c0.2,0.73,0.84,1.96,0.38,3.34C26.75,33.75,20,47.75,11.67,59.41" id="Ske2o3mc64r" kvg:type="㇒" transform="matrix(1,0,0,1,1396,-4)" xmlns:kvg="http://kanjivg.tagaini.net"></path><path class="stroke_order_diagram--existing_path" d="M27.64,36.5c0.26,0.05,1.89,0,2.64-0.14c2.47-0.45,4.7-0.78,8.93-1.55c2.49-0.46,2.91,2.23,2.29,4.81C38.11,53.76,26,79,11.61,91.5" id="Ske2o3mc64s" kvg:type="㇇" transform="matrix(1,0,0,1,1396,-4)" xmlns:kvg="http://kanjivg.tagaini.net"></path><path class="stroke_order_diagram--existing_path" d="M18.96,54.23c3.55,1.84,9.17,7.55,10.06,10.41" id="Ske2o3mc64t" kvg:type="㇔" transform="matrix(1,0,0,1,1396,-4)" xmlns:kvg="http://kanjivg.tagaini.net"></path><path class="stroke_order_diagram--existing_path" d="M61.35,11.5c0.04,0.48,0.14,1.38-0.07,1.92C58.67,20.18,54.89,26.71,48,32.79" id="Ske2o3mc64u" kvg:type="㇒" transform="matrix(1,0,0,1,1396,-4)" xmlns:kvg="http://kanjivg.tagaini.net"></path><path class="stroke_order_diagram--existing_path" d="M61,21.14c0.76,0.38,2.24,0.46,3,0.36c4.82-0.66,20.15-2.39,25.5-3c1.25-0.14,2.62-0.18,3.25,0.01" id="Ske2o3mc64v" kvg:type="㇐" transform="matrix(1,0,0,1,1396,-4)" xmlns:kvg="http://kanjivg.tagaini.net"></path><path class="stroke_order_diagram--existing_path" d="M56.63,30.86c0.24,0.4,0.4,0.61,0.48,1.13c0.59,3.68,2.39,15.99,2.47,16.52" id="Ske2o3mc64w" kvg:type="㇑" transform="matrix(1,0,0,1,1396,-4)" xmlns:kvg="http://kanjivg.tagaini.net"></path><path class="stroke_order_diagram--existing_path" d="M57.7,31.5c4.62-0.52,19.26-1.91,25.18-2.26c1.03-0.06,1.65,1.42,1.61,1.82c-0.45,4.96-1.8,11.17-3.24,15.39" id="Ske2o3mc64x" kvg:type="㇕a" transform="matrix(1,0,0,1,1396,-4)" xmlns:kvg="http://kanjivg.tagaini.net"></path><path class="stroke_order_diagram--existing_path" d="M58.63,38.8c1.83,0,21.97-1.74,24.05-1.74" id="Ske2o3mc64y" kvg:type="㇐a" transform="matrix(1,0,0,1,1396,-4)" xmlns:kvg="http://kanjivg.tagaini.net"></path><path class="stroke_order_diagram--existing_path" d="M59.86,46.44c3.73-0.39,16.34-1.22,20.99-1.55" id="Ske2o3mc64z" kvg:type="㇐a" transform="matrix(1,0,0,1,1396,-4)" xmlns:kvg="http://kanjivg.tagaini.net"></path><path class="stroke_order_diagram--existing_path" d="M46.31,55.56c1.28,0.3,3.62,0.35,4.89,0.3c13.28-0.51,29.55-2.81,42-2.93c2.13-0.02,3.4,0.15,4.47,0.3" id="Ske2o3mc650" kvg:type="㇐" transform="matrix(1,0,0,1,1396,-4)" xmlns:kvg="http://kanjivg.tagaini.net"></path><path class="stroke_order_diagram--existing_path" d="M59.13,58.23c0.04,0.47,0.24,1.27-0.08,1.89c-2.3,4.38-8.15,11.02-15.85,16.85" id="Ske2o3mc651" kvg:type="㇒" transform="matrix(1,0,0,1,1396,-4)" xmlns:kvg="http://kanjivg.tagaini.net"></path><path class="stroke_order_diagram--existing_path" d="M57.29,65.46c0.83,0.45,2,0.61,3.34,0.3c1.33-0.3,24.34-2.88,27.68-3.03c3.34-0.15,4,1.51,3.5,4.69C91.31,70.6,88.33,87.62,81,96.24c-2.21,2.59-3.45-0.43-5.42-2.32" id="Ske2o3mc652" kvg:type="㇆" transform="matrix(1,0,0,1,1396,-4)" xmlns:kvg="http://kanjivg.tagaini.net"></path><path class="stroke_order_diagram--existing_path" d="M64.16,68.72c0.05,0.42,0.15,1.1-0.1,1.69c-2.52,5.85-9.44,13.99-19.4,18.79" id="Ske2o3mc653" kvg:type="㇒" transform="matrix(1,0,0,1,1396,-4)" xmlns:kvg="http://kanjivg.tagaini.net"></path><path class="stroke_order_diagram--current_path" d="M77.37,67.54c0.09,0.78,0.34,2.06-0.18,3.13c-3.25,6.74-10.07,16.89-23.32,25.73" id="kvg:06ba4-s15" kvg:type="㇒" transform="matrix(1,0,0,1,1396,-4)" xmlns:kvg="http://kanjivg.tagaini.net"></path><path class="stroke_order_diagram--current_path" d="M77.37,67.54c0.09,0.78,0.34,2.06-0.18,3.13c-3.25,6.74-10.07,16.89-23.32,25.73" id="Ske2o3mc655" kvg:type="㇒" transform="matrix(1,0,0,1,1396,-4)" xmlns:kvg="http://kanjivg.tagaini.net"></path><circle class="stroke_order_diagram--path_start" cx="77.37" cy="67.54" r="4" transform="matrix(1,0,0,1,1396,-4)"></circle></svg>