<svg class="stroke_order_diagram--svg_container_for_518662add5dda7965800108c" style="height: 100px; width: 1600px;" viewbox="0 0 1600 100"><desc>Created with Snap</desc><defs></defs><line class="stroke_order_diagram--bounding_box" x1="1" x2="1599" y1="1" y2="1"></line><line class="stroke_order_diagram--bounding_box" x1="1" x2="1" y1="1" y2="99"></line><line class="stroke_order_diagram--bounding_box" x1="1" x2="1599" y1="99" y2="99"></line><line class="stroke_order_diagram--guide_line" x1="0" x2="1600" y1="50" y2="50"></line><line class="stroke_order_diagram--guide_line" x1="50" x2="50" y1="1" y2="99"></line><line class="stroke_order_diagram--bounding_box" x1="99" x2="99" y1="1" y2="99"></line><path class="stroke_order_diagram--current_path" d="M14.25,17.97c1,0.28,3.3,0.66,4.3,0.52c5.2-0.73,13.7-1.73,21.24-2.97c1.63-0.27,2.64,0.25,3.47,0.5" id="kvg:06bab-s1" kvg:type="㇐" transform="matrix(1,0,0,1,-4,-4)" xmlns:kvg="http://kanjivg.tagaini.net"></path><path class="stroke_order_diagram--current_path" d="M14.25,17.97c1,0.28,3.3,0.66,4.3,0.52c5.2-0.73,13.7-1.73,21.24-2.97c1.63-0.27,2.64,0.25,3.47,0.5" id="Ske2o47enp" kvg:type="㇐" transform="matrix(1,0,0,1,-4,-4)" xmlns:kvg="http://kanjivg.tagaini.net"></path><circle class="stroke_order_diagram--path_start" cx="14.25" cy="17.97" r="4" transform="matrix(1,0,0,1,-4,-4)"></circle><line class="stroke_order_diagram--guide_line" x1="150" x2="150" y1="1" y2="99"></line><line class="stroke_order_diagram--bounding_box" x1="199" x2="199" y1="1" y2="99"></line><path class="stroke_order_diagram--existing_path" d="M14.25,17.97c1,0.28,3.3,0.66,4.3,0.52c5.2-0.73,13.7-1.73,21.24-2.97c1.63-0.27,2.64,0.25,3.47,0.5" id="Ske2o47ens" kvg:type="㇐" transform="matrix(1,0,0,1,96,-4)" xmlns:kvg="http://kanjivg.tagaini.net"></path><path class="stroke_order_diagram--current_path" d="M28.7,20.89c0.18,0.68,0.74,2.76,0.36,4.06c-2.6,8.81-7.9,21.71-17.13,32.46" id="kvg:06bab-s2" kvg:type="㇒" transform="matrix(1,0,0,1,96,-4)" xmlns:kvg="http://kanjivg.tagaini.net"></path><path class="stroke_order_diagram--current_path" d="M28.7,20.89c0.18,0.68,0.74,2.76,0.36,4.06c-2.6,8.81-7.9,21.71-17.13,32.46" id="Ske2o47enu" kvg:type="㇒" transform="matrix(1,0,0,1,96,-4)" xmlns:kvg="http://kanjivg.tagaini.net"></path><circle class="stroke_order_diagram--path_start" cx="28.7" cy="20.89" r="4" transform="matrix(1,0,0,1,96,-4)"></circle><line class="stroke_order_diagram--guide_line" x1="250" x2="250" y1="1" y2="99"></line><line class="stroke_order_diagram--bounding_box" x1="299" x2="299" y1="1" y2="99"></line><path class="stroke_order_diagram--existing_path" d="M14.25,17.97c1,0.28,3.3,0.66,4.3,0.52c5.2-0.73,13.7-1.73,21.24-2.97c1.63-0.27,2.64,0.25,3.47,0.5" id="Ske2o47enx" kvg:type="㇐" transform="matrix(1,0,0,1,196,-4)" xmlns:kvg="http://kanjivg.tagaini.net"></path><path class="stroke_order_diagram--existing_path" d="M28.7,20.89c0.18,0.68,0.74,2.76,0.36,4.06c-2.6,8.81-7.9,21.71-17.13,32.46" id="Ske2o47eny" kvg:type="㇒" transform="matrix(1,0,0,1,196,-4)" xmlns:kvg="http://kanjivg.tagaini.net"></path><path class="stroke_order_diagram--current_path" d="M27.64,36.5c0.26,0.05,2.44,0.67,3.14,0.36c2.48-1.11,4.73-1.86,8.93-3.05c2.43-0.69,3.41,1.73,2.79,4.31C39.11,52.26,24.5,81.5,9.11,91" id="kvg:06bab-s3" kvg:type="㇇" transform="matrix(1,0,0,1,196,-4)" xmlns:kvg="http://kanjivg.tagaini.net"></path><path class="stroke_order_diagram--current_path" d="M27.64,36.5c0.26,0.05,2.44,0.67,3.14,0.36c2.48-1.11,4.73-1.86,8.93-3.05c2.43-0.69,3.41,1.73,2.79,4.31C39.11,52.26,24.5,81.5,9.11,91" id="Ske2o47en10" kvg:type="㇇" transform="matrix(1,0,0,1,196,-4)" xmlns:kvg="http://kanjivg.tagaini.net"></path><circle class="stroke_order_diagram--path_start" cx="27.64" cy="36.5" r="4" transform="matrix(1,0,0,1,196,-4)"></circle><line class="stroke_order_diagram--guide_line" x1="350" x2="350" y1="1" y2="99"></line><line class="stroke_order_diagram--bounding_box" x1="399" x2="399" y1="1" y2="99"></line><path class="stroke_order_diagram--existing_path" d="M14.25,17.97c1,0.28,3.3,0.66,4.3,0.52c5.2-0.73,13.7-1.73,21.24-2.97c1.63-0.27,2.64,0.25,3.47,0.5" id="Ske2o47en13" kvg:type="㇐" transform="matrix(1,0,0,1,296,-4)" xmlns:kvg="http://kanjivg.tagaini.net"></path><path class="stroke_order_diagram--existing_path" d="M28.7,20.89c0.18,0.68,0.74,2.76,0.36,4.06c-2.6,8.81-7.9,21.71-17.13,32.46" id="Ske2o47en14" kvg:type="㇒" transform="matrix(1,0,0,1,296,-4)" xmlns:kvg="http://kanjivg.tagaini.net"></path><path class="stroke_order_diagram--existing_path" d="M27.64,36.5c0.26,0.05,2.44,0.67,3.14,0.36c2.48-1.11,4.73-1.86,8.93-3.05c2.43-0.69,3.41,1.73,2.79,4.31C39.11,52.26,24.5,81.5,9.11,91" id="Ske2o47en15" kvg:type="㇇" transform="matrix(1,0,0,1,296,-4)" xmlns:kvg="http://kanjivg.tagaini.net"></path><path class="stroke_order_diagram--current_path" d="M20.21,50.98c2.76,1.97,7.12,8.09,7.81,11.16" id="kvg:06bab-s4" kvg:type="㇔" transform="matrix(1,0,0,1,296,-4)" xmlns:kvg="http://kanjivg.tagaini.net"></path><path class="stroke_order_diagram--current_path" d="M20.21,50.98c2.76,1.97,7.12,8.09,7.81,11.16" id="Ske2o47en17" kvg:type="㇔" transform="matrix(1,0,0,1,296,-4)" xmlns:kvg="http://kanjivg.tagaini.net"></path><circle class="stroke_order_diagram--path_start" cx="20.21" cy="50.98" r="4" transform="matrix(1,0,0,1,296,-4)"></circle><line class="stroke_order_diagram--guide_line" x1="450" x2="450" y1="1" y2="99"></line><line class="stroke_order_diagram--bounding_box" x1="499" x2="499" y1="1" y2="99"></line><path class="stroke_order_diagram--existing_path" d="M14.25,17.97c1,0.28,3.3,0.66,4.3,0.52c5.2-0.73,13.7-1.73,21.24-2.97c1.63-0.27,2.64,0.25,3.47,0.5" id="Ske2o47en1a" kvg:type="㇐" transform="matrix(1,0,0,1,396,-4)" xmlns:kvg="http://kanjivg.tagaini.net"></path><path class="stroke_order_diagram--existing_path" d="M28.7,20.89c0.18,0.68,0.74,2.76,0.36,4.06c-2.6,8.81-7.9,21.71-17.13,32.46" id="Ske2o47en1b" kvg:type="㇒" transform="matrix(1,0,0,1,396,-4)" xmlns:kvg="http://kanjivg.tagaini.net"></path><path class="stroke_order_diagram--existing_path" d="M27.64,36.5c0.26,0.05,2.44,0.67,3.14,0.36c2.48-1.11,4.73-1.86,8.93-3.05c2.43-0.69,3.41,1.73,2.79,4.31C39.11,52.26,24.5,81.5,9.11,91" id="Ske2o47en1c" kvg:type="㇇" transform="matrix(1,0,0,1,396,-4)" xmlns:kvg="http://kanjivg.tagaini.net"></path><path class="stroke_order_diagram--existing_path" d="M20.21,50.98c2.76,1.97,7.12,8.09,7.81,11.16" id="Ske2o47en1d" kvg:type="㇔" transform="matrix(1,0,0,1,396,-4)" xmlns:kvg="http://kanjivg.tagaini.net"></path><path class="stroke_order_diagram--current_path" d="M49.36,15.55c0.29,0.28,0.61,0.51,0.71,0.88c0.82,3.25,1.81,8.77,2.64,13.55" id="kvg:06bab-s5" kvg:type="㇑" transform="matrix(1,0,0,1,396,-4)" xmlns:kvg="http://kanjivg.tagaini.net"></path><path class="stroke_order_diagram--current_path" d="M49.36,15.55c0.29,0.28,0.61,0.51,0.71,0.88c0.82,3.25,1.81,8.77,2.64,13.55" id="Ske2o47en1f" kvg:type="㇑" transform="matrix(1,0,0,1,396,-4)" xmlns:kvg="http://kanjivg.tagaini.net"></path><circle class="stroke_order_diagram--path_start" cx="49.36" cy="15.55" r="4" transform="matrix(1,0,0,1,396,-4)"></circle><line class="stroke_order_diagram--guide_line" x1="550" x2="550" y1="1" y2="99"></line><line class="stroke_order_diagram--bounding_box" x1="599" x2="599" y1="1" y2="99"></line><path class="stroke_order_diagram--existing_path" d="M14.25,17.97c1,0.28,3.3,0.66,4.3,0.52c5.2-0.73,13.7-1.73,21.24-2.97c1.63-0.27,2.64,0.25,3.47,0.5" id="Ske2o47en1i" kvg:type="㇐" transform="matrix(1,0,0,1,496,-4)" xmlns:kvg="http://kanjivg.tagaini.net"></path><path class="stroke_order_diagram--existing_path" d="M28.7,20.89c0.18,0.68,0.74,2.76,0.36,4.06c-2.6,8.81-7.9,21.71-17.13,32.46" id="Ske2o47en1j" kvg:type="㇒" transform="matrix(1,0,0,1,496,-4)" xmlns:kvg="http://kanjivg.tagaini.net"></path><path class="stroke_order_diagram--existing_path" d="M27.64,36.5c0.26,0.05,2.44,0.67,3.14,0.36c2.48-1.11,4.73-1.86,8.93-3.05c2.43-0.69,3.41,1.73,2.79,4.31C39.11,52.26,24.5,81.5,9.11,91" id="Ske2o47en1k" kvg:type="㇇" transform="matrix(1,0,0,1,496,-4)" xmlns:kvg="http://kanjivg.tagaini.net"></path><path class="stroke_order_diagram--existing_path" d="M20.21,50.98c2.76,1.97,7.12,8.09,7.81,11.16" id="Ske2o47en1l" kvg:type="㇔" transform="matrix(1,0,0,1,496,-4)" xmlns:kvg="http://kanjivg.tagaini.net"></path><path class="stroke_order_diagram--existing_path" d="M49.36,15.55c0.29,0.28,0.61,0.51,0.71,0.88c0.82,3.25,1.81,8.77,2.64,13.55" id="Ske2o47en1m" kvg:type="㇑" transform="matrix(1,0,0,1,496,-4)" xmlns:kvg="http://kanjivg.tagaini.net"></path><path class="stroke_order_diagram--current_path" d="M51.15,16.58c5.3-0.69,10.36-1.19,15.25-1.88c1.23-0.17,1.97,0.8,1.79,1.59c-0.73,3.28-1,4.78-2.3,10.25" id="kvg:06bab-s6" kvg:type="㇕b" transform="matrix(1,0,0,1,496,-4)" xmlns:kvg="http://kanjivg.tagaini.net"></path><path class="stroke_order_diagram--current_path" d="M51.15,16.58c5.3-0.69,10.36-1.19,15.25-1.88c1.23-0.17,1.97,0.8,1.79,1.59c-0.73,3.28-1,4.78-2.3,10.25" id="Ske2o47en1o" kvg:type="㇕b" transform="matrix(1,0,0,1,496,-4)" xmlns:kvg="http://kanjivg.tagaini.net"></path><circle class="stroke_order_diagram--path_start" cx="51.15" cy="16.58" r="4" transform="matrix(1,0,0,1,496,-4)"></circle><line class="stroke_order_diagram--guide_line" x1="650" x2="650" y1="1" y2="99"></line><line class="stroke_order_diagram--bounding_box" x1="699" x2="699" y1="1" y2="99"></line><path class="stroke_order_diagram--existing_path" d="M14.25,17.97c1,0.28,3.3,0.66,4.3,0.52c5.2-0.73,13.7-1.73,21.24-2.97c1.63-0.27,2.64,0.25,3.47,0.5" id="Ske2o47en1r" kvg:type="㇐" transform="matrix(1,0,0,1,596,-4)" xmlns:kvg="http://kanjivg.tagaini.net"></path><path class="stroke_order_diagram--existing_path" d="M28.7,20.89c0.18,0.68,0.74,2.76,0.36,4.06c-2.6,8.81-7.9,21.71-17.13,32.46" id="Ske2o47en1s" kvg:type="㇒" transform="matrix(1,0,0,1,596,-4)" xmlns:kvg="http://kanjivg.tagaini.net"></path><path class="stroke_order_diagram--existing_path" d="M27.64,36.5c0.26,0.05,2.44,0.67,3.14,0.36c2.48-1.11,4.73-1.86,8.93-3.05c2.43-0.69,3.41,1.73,2.79,4.31C39.11,52.26,24.5,81.5,9.11,91" id="Ske2o47en1t" kvg:type="㇇" transform="matrix(1,0,0,1,596,-4)" xmlns:kvg="http://kanjivg.tagaini.net"></path><path class="stroke_order_diagram--existing_path" d="M20.21,50.98c2.76,1.97,7.12,8.09,7.81,11.16" id="Ske2o47en1u" kvg:type="㇔" transform="matrix(1,0,0,1,596,-4)" xmlns:kvg="http://kanjivg.tagaini.net"></path><path class="stroke_order_diagram--existing_path" d="M49.36,15.55c0.29,0.28,0.61,0.51,0.71,0.88c0.82,3.25,1.81,8.77,2.64,13.55" id="Ske2o47en1v" kvg:type="㇑" transform="matrix(1,0,0,1,596,-4)" xmlns:kvg="http://kanjivg.tagaini.net"></path><path class="stroke_order_diagram--existing_path" d="M51.15,16.58c5.3-0.69,10.36-1.19,15.25-1.88c1.23-0.17,1.97,0.8,1.79,1.59c-0.73,3.28-1,4.78-2.3,10.25" id="Ske2o47en1w" kvg:type="㇕b" transform="matrix(1,0,0,1,596,-4)" xmlns:kvg="http://kanjivg.tagaini.net"></path><path class="stroke_order_diagram--current_path" d="M53.3,28.7c3.95-0.42,8.76-1.12,14.19-1.76" id="kvg:06bab-s7" kvg:type="㇐b" transform="matrix(1,0,0,1,596,-4)" xmlns:kvg="http://kanjivg.tagaini.net"></path><path class="stroke_order_diagram--current_path" d="M53.3,28.7c3.95-0.42,8.76-1.12,14.19-1.76" id="Ske2o47en1y" kvg:type="㇐b" transform="matrix(1,0,0,1,596,-4)" xmlns:kvg="http://kanjivg.tagaini.net"></path><circle class="stroke_order_diagram--path_start" cx="53.3" cy="28.7" r="4" transform="matrix(1,0,0,1,596,-4)"></circle><line class="stroke_order_diagram--guide_line" x1="750" x2="750" y1="1" y2="99"></line><line class="stroke_order_diagram--bounding_box" x1="799" x2="799" y1="1" y2="99"></line><path class="stroke_order_diagram--existing_path" d="M14.25,17.97c1,0.28,3.3,0.66,4.3,0.52c5.2-0.73,13.7-1.73,21.24-2.97c1.63-0.27,2.64,0.25,3.47,0.5" id="Ske2o47en21" kvg:type="㇐" transform="matrix(1,0,0,1,696,-4)" xmlns:kvg="http://kanjivg.tagaini.net"></path><path class="stroke_order_diagram--existing_path" d="M28.7,20.89c0.18,0.68,0.74,2.76,0.36,4.06c-2.6,8.81-7.9,21.71-17.13,32.46" id="Ske2o47en22" kvg:type="㇒" transform="matrix(1,0,0,1,696,-4)" xmlns:kvg="http://kanjivg.tagaini.net"></path><path class="stroke_order_diagram--existing_path" d="M27.64,36.5c0.26,0.05,2.44,0.67,3.14,0.36c2.48-1.11,4.73-1.86,8.93-3.05c2.43-0.69,3.41,1.73,2.79,4.31C39.11,52.26,24.5,81.5,9.11,91" id="Ske2o47en23" kvg:type="㇇" transform="matrix(1,0,0,1,696,-4)" xmlns:kvg="http://kanjivg.tagaini.net"></path><path class="stroke_order_diagram--existing_path" d="M20.21,50.98c2.76,1.97,7.12,8.09,7.81,11.16" id="Ske2o47en24" kvg:type="㇔" transform="matrix(1,0,0,1,696,-4)" xmlns:kvg="http://kanjivg.tagaini.net"></path><path class="stroke_order_diagram--existing_path" d="M49.36,15.55c0.29,0.28,0.61,0.51,0.71,0.88c0.82,3.25,1.81,8.77,2.64,13.55" id="Ske2o47en25" kvg:type="㇑" transform="matrix(1,0,0,1,696,-4)" xmlns:kvg="http://kanjivg.tagaini.net"></path><path class="stroke_order_diagram--existing_path" d="M51.15,16.58c5.3-0.69,10.36-1.19,15.25-1.88c1.23-0.17,1.97,0.8,1.79,1.59c-0.73,3.28-1,4.78-2.3,10.25" id="Ske2o47en26" kvg:type="㇕b" transform="matrix(1,0,0,1,696,-4)" xmlns:kvg="http://kanjivg.tagaini.net"></path><path class="stroke_order_diagram--existing_path" d="M53.3,28.7c3.95-0.42,8.76-1.12,14.19-1.76" id="Ske2o47en27" kvg:type="㇐b" transform="matrix(1,0,0,1,696,-4)" xmlns:kvg="http://kanjivg.tagaini.net"></path><path class="stroke_order_diagram--current_path" d="M73.79,13.79c0.28,0.34,1.09,1.62,1.18,2.07c0.79,3.97,1.19,6.96,1.98,12.79" id="kvg:06bab-s8" kvg:type="㇑" transform="matrix(1,0,0,1,696,-4)" xmlns:kvg="http://kanjivg.tagaini.net"></path><path class="stroke_order_diagram--current_path" d="M73.79,13.79c0.28,0.34,1.09,1.62,1.18,2.07c0.79,3.97,1.19,6.96,1.98,12.79" id="Ske2o47en29" kvg:type="㇑" transform="matrix(1,0,0,1,696,-4)" xmlns:kvg="http://kanjivg.tagaini.net"></path><circle class="stroke_order_diagram--path_start" cx="73.79" cy="13.79" r="4" transform="matrix(1,0,0,1,696,-4)"></circle><line class="stroke_order_diagram--guide_line" x1="850" x2="850" y1="1" y2="99"></line><line class="stroke_order_diagram--bounding_box" x1="899" x2="899" y1="1" y2="99"></line><path class="stroke_order_diagram--existing_path" d="M14.25,17.97c1,0.28,3.3,0.66,4.3,0.52c5.2-0.73,13.7-1.73,21.24-2.97c1.63-0.27,2.64,0.25,3.47,0.5" id="Ske2o47en2c" kvg:type="㇐" transform="matrix(1,0,0,1,796,-4)" xmlns:kvg="http://kanjivg.tagaini.net"></path><path class="stroke_order_diagram--existing_path" d="M28.7,20.89c0.18,0.68,0.74,2.76,0.36,4.06c-2.6,8.81-7.9,21.71-17.13,32.46" id="Ske2o47en2d" kvg:type="㇒" transform="matrix(1,0,0,1,796,-4)" xmlns:kvg="http://kanjivg.tagaini.net"></path><path class="stroke_order_diagram--existing_path" d="M27.64,36.5c0.26,0.05,2.44,0.67,3.14,0.36c2.48-1.11,4.73-1.86,8.93-3.05c2.43-0.69,3.41,1.73,2.79,4.31C39.11,52.26,24.5,81.5,9.11,91" id="Ske2o47en2e" kvg:type="㇇" transform="matrix(1,0,0,1,796,-4)" xmlns:kvg="http://kanjivg.tagaini.net"></path><path class="stroke_order_diagram--existing_path" d="M20.21,50.98c2.76,1.97,7.12,8.09,7.81,11.16" id="Ske2o47en2f" kvg:type="㇔" transform="matrix(1,0,0,1,796,-4)" xmlns:kvg="http://kanjivg.tagaini.net"></path><path class="stroke_order_diagram--existing_path" d="M49.36,15.55c0.29,0.28,0.61,0.51,0.71,0.88c0.82,3.25,1.81,8.77,2.64,13.55" id="Ske2o47en2g" kvg:type="㇑" transform="matrix(1,0,0,1,796,-4)" xmlns:kvg="http://kanjivg.tagaini.net"></path><path class="stroke_order_diagram--existing_path" d="M51.15,16.58c5.3-0.69,10.36-1.19,15.25-1.88c1.23-0.17,1.97,0.8,1.79,1.59c-0.73,3.28-1,4.78-2.3,10.25" id="Ske2o47en2h" kvg:type="㇕b" transform="matrix(1,0,0,1,796,-4)" xmlns:kvg="http://kanjivg.tagaini.net"></path><path class="stroke_order_diagram--existing_path" d="M53.3,28.7c3.95-0.42,8.76-1.12,14.19-1.76" id="Ske2o47en2i" kvg:type="㇐b" transform="matrix(1,0,0,1,796,-4)" xmlns:kvg="http://kanjivg.tagaini.net"></path><path class="stroke_order_diagram--existing_path" d="M73.79,13.79c0.28,0.34,1.09,1.62,1.18,2.07c0.79,3.97,1.19,6.96,1.98,12.79" id="Ske2o47en2j" kvg:type="㇑" transform="matrix(1,0,0,1,796,-4)" xmlns:kvg="http://kanjivg.tagaini.net"></path><path class="stroke_order_diagram--current_path" d="M75.22,14.68c6.53-0.93,11.37-1.46,16.08-2.31c1.18-0.21,1.9,0.98,1.73,1.95c-0.7,4.01-1.53,6.18-2.47,10.52" id="kvg:06bab-s9" kvg:type="㇕b" transform="matrix(1,0,0,1,796,-4)" xmlns:kvg="http://kanjivg.tagaini.net"></path><path class="stroke_order_diagram--current_path" d="M75.22,14.68c6.53-0.93,11.37-1.46,16.08-2.31c1.18-0.21,1.9,0.98,1.73,1.95c-0.7,4.01-1.53,6.18-2.47,10.52" id="Ske2o47en2l" kvg:type="㇕b" transform="matrix(1,0,0,1,796,-4)" xmlns:kvg="http://kanjivg.tagaini.net"></path><circle class="stroke_order_diagram--path_start" cx="75.22" cy="14.68" r="4" transform="matrix(1,0,0,1,796,-4)"></circle><line class="stroke_order_diagram--guide_line" x1="950" x2="950" y1="1" y2="99"></line><line class="stroke_order_diagram--bounding_box" x1="999" x2="999" y1="1" y2="99"></line><path class="stroke_order_diagram--existing_path" d="M14.25,17.97c1,0.28,3.3,0.66,4.3,0.52c5.2-0.73,13.7-1.73,21.24-2.97c1.63-0.27,2.64,0.25,3.47,0.5" id="Ske2o47en2o" kvg:type="㇐" transform="matrix(1,0,0,1,896,-4)" xmlns:kvg="http://kanjivg.tagaini.net"></path><path class="stroke_order_diagram--existing_path" d="M28.7,20.89c0.18,0.68,0.74,2.76,0.36,4.06c-2.6,8.81-7.9,21.71-17.13,32.46" id="Ske2o47en2p" kvg:type="㇒" transform="matrix(1,0,0,1,896,-4)" xmlns:kvg="http://kanjivg.tagaini.net"></path><path class="stroke_order_diagram--existing_path" d="M27.64,36.5c0.26,0.05,2.44,0.67,3.14,0.36c2.48-1.11,4.73-1.86,8.93-3.05c2.43-0.69,3.41,1.73,2.79,4.31C39.11,52.26,24.5,81.5,9.11,91" id="Ske2o47en2q" kvg:type="㇇" transform="matrix(1,0,0,1,896,-4)" xmlns:kvg="http://kanjivg.tagaini.net"></path><path class="stroke_order_diagram--existing_path" d="M20.21,50.98c2.76,1.97,7.12,8.09,7.81,11.16" id="Ske2o47en2r" kvg:type="㇔" transform="matrix(1,0,0,1,896,-4)" xmlns:kvg="http://kanjivg.tagaini.net"></path><path class="stroke_order_diagram--existing_path" d="M49.36,15.55c0.29,0.28,0.61,0.51,0.71,0.88c0.82,3.25,1.81,8.77,2.64,13.55" id="Ske2o47en2s" kvg:type="㇑" transform="matrix(1,0,0,1,896,-4)" xmlns:kvg="http://kanjivg.tagaini.net"></path><path class="stroke_order_diagram--existing_path" d="M51.15,16.58c5.3-0.69,10.36-1.19,15.25-1.88c1.23-0.17,1.97,0.8,1.79,1.59c-0.73,3.28-1,4.78-2.3,10.25" id="Ske2o47en2t" kvg:type="㇕b" transform="matrix(1,0,0,1,896,-4)" xmlns:kvg="http://kanjivg.tagaini.net"></path><path class="stroke_order_diagram--existing_path" d="M53.3,28.7c3.95-0.42,8.76-1.12,14.19-1.76" id="Ske2o47en2u" kvg:type="㇐b" transform="matrix(1,0,0,1,896,-4)" xmlns:kvg="http://kanjivg.tagaini.net"></path><path class="stroke_order_diagram--existing_path" d="M73.79,13.79c0.28,0.34,1.09,1.62,1.18,2.07c0.79,3.97,1.19,6.96,1.98,12.79" id="Ske2o47en2v" kvg:type="㇑" transform="matrix(1,0,0,1,896,-4)" xmlns:kvg="http://kanjivg.tagaini.net"></path><path class="stroke_order_diagram--existing_path" d="M75.22,14.68c6.53-0.93,11.37-1.46,16.08-2.31c1.18-0.21,1.9,0.98,1.73,1.95c-0.7,4.01-1.53,6.18-2.47,10.52" id="Ske2o47en2w" kvg:type="㇕b" transform="matrix(1,0,0,1,896,-4)" xmlns:kvg="http://kanjivg.tagaini.net"></path><path class="stroke_order_diagram--current_path" d="M76.73,26.57c5.02-0.32,9.52-1.07,16.92-1.21" id="kvg:06bab-s10" kvg:type="㇐b" transform="matrix(1,0,0,1,896,-4)" xmlns:kvg="http://kanjivg.tagaini.net"></path><path class="stroke_order_diagram--current_path" d="M76.73,26.57c5.02-0.32,9.52-1.07,16.92-1.21" id="Ske2o47en2y" kvg:type="㇐b" transform="matrix(1,0,0,1,896,-4)" xmlns:kvg="http://kanjivg.tagaini.net"></path><circle class="stroke_order_diagram--path_start" cx="76.73" cy="26.57" r="4" transform="matrix(1,0,0,1,896,-4)"></circle><line class="stroke_order_diagram--guide_line" x1="1050" x2="1050" y1="1" y2="99"></line><line class="stroke_order_diagram--bounding_box" x1="1099" x2="1099" y1="1" y2="99"></line><path class="stroke_order_diagram--existing_path" d="M14.25,17.97c1,0.28,3.3,0.66,4.3,0.52c5.2-0.73,13.7-1.73,21.24-2.97c1.63-0.27,2.64,0.25,3.47,0.5" id="Ske2o47en31" kvg:type="㇐" transform="matrix(1,0,0,1,996,-4)" xmlns:kvg="http://kanjivg.tagaini.net"></path><path class="stroke_order_diagram--existing_path" d="M28.7,20.89c0.18,0.68,0.74,2.76,0.36,4.06c-2.6,8.81-7.9,21.71-17.13,32.46" id="Ske2o47en32" kvg:type="㇒" transform="matrix(1,0,0,1,996,-4)" xmlns:kvg="http://kanjivg.tagaini.net"></path><path class="stroke_order_diagram--existing_path" d="M27.64,36.5c0.26,0.05,2.44,0.67,3.14,0.36c2.48-1.11,4.73-1.86,8.93-3.05c2.43-0.69,3.41,1.73,2.79,4.31C39.11,52.26,24.5,81.5,9.11,91" id="Ske2o47en33" kvg:type="㇇" transform="matrix(1,0,0,1,996,-4)" xmlns:kvg="http://kanjivg.tagaini.net"></path><path class="stroke_order_diagram--existing_path" d="M20.21,50.98c2.76,1.97,7.12,8.09,7.81,11.16" id="Ske2o47en34" kvg:type="㇔" transform="matrix(1,0,0,1,996,-4)" xmlns:kvg="http://kanjivg.tagaini.net"></path><path class="stroke_order_diagram--existing_path" d="M49.36,15.55c0.29,0.28,0.61,0.51,0.71,0.88c0.82,3.25,1.81,8.77,2.64,13.55" id="Ske2o47en35" kvg:type="㇑" transform="matrix(1,0,0,1,996,-4)" xmlns:kvg="http://kanjivg.tagaini.net"></path><path class="stroke_order_diagram--existing_path" d="M51.15,16.58c5.3-0.69,10.36-1.19,15.25-1.88c1.23-0.17,1.97,0.8,1.79,1.59c-0.73,3.28-1,4.78-2.3,10.25" id="Ske2o47en36" kvg:type="㇕b" transform="matrix(1,0,0,1,996,-4)" xmlns:kvg="http://kanjivg.tagaini.net"></path><path class="stroke_order_diagram--existing_path" d="M53.3,28.7c3.95-0.42,8.76-1.12,14.19-1.76" id="Ske2o47en37" kvg:type="㇐b" transform="matrix(1,0,0,1,996,-4)" xmlns:kvg="http://kanjivg.tagaini.net"></path><path class="stroke_order_diagram--existing_path" d="M73.79,13.79c0.28,0.34,1.09,1.62,1.18,2.07c0.79,3.97,1.19,6.96,1.98,12.79" id="Ske2o47en38" kvg:type="㇑" transform="matrix(1,0,0,1,996,-4)" xmlns:kvg="http://kanjivg.tagaini.net"></path><path class="stroke_order_diagram--existing_path" d="M75.22,14.68c6.53-0.93,11.37-1.46,16.08-2.31c1.18-0.21,1.9,0.98,1.73,1.95c-0.7,4.01-1.53,6.18-2.47,10.52" id="Ske2o47en39" kvg:type="㇕b" transform="matrix(1,0,0,1,996,-4)" xmlns:kvg="http://kanjivg.tagaini.net"></path><path class="stroke_order_diagram--existing_path" d="M76.73,26.57c5.02-0.32,9.52-1.07,16.92-1.21" id="Ske2o47en3a" kvg:type="㇐b" transform="matrix(1,0,0,1,996,-4)" xmlns:kvg="http://kanjivg.tagaini.net"></path><path class="stroke_order_diagram--current_path" d="M51.98,36.72c0.27,0.51,0.78,1.41,0.93,2.04c1.24,5.26,2.81,15.82,3.59,25.58" id="kvg:06bab-s11" kvg:type="㇑" transform="matrix(1,0,0,1,996,-4)" xmlns:kvg="http://kanjivg.tagaini.net"></path><path class="stroke_order_diagram--current_path" d="M51.98,36.72c0.27,0.51,0.78,1.41,0.93,2.04c1.24,5.26,2.81,15.82,3.59,25.58" id="Ske2o47en3c" kvg:type="㇑" transform="matrix(1,0,0,1,996,-4)" xmlns:kvg="http://kanjivg.tagaini.net"></path><circle class="stroke_order_diagram--path_start" cx="51.98" cy="36.72" r="4" transform="matrix(1,0,0,1,996,-4)"></circle><line class="stroke_order_diagram--guide_line" x1="1150" x2="1150" y1="1" y2="99"></line><line class="stroke_order_diagram--bounding_box" x1="1199" x2="1199" y1="1" y2="99"></line><path class="stroke_order_diagram--existing_path" d="M14.25,17.97c1,0.28,3.3,0.66,4.3,0.52c5.2-0.73,13.7-1.73,21.24-2.97c1.63-0.27,2.64,0.25,3.47,0.5" id="Ske2o47en3f" kvg:type="㇐" transform="matrix(1,0,0,1,1096,-4)" xmlns:kvg="http://kanjivg.tagaini.net"></path><path class="stroke_order_diagram--existing_path" d="M28.7,20.89c0.18,0.68,0.74,2.76,0.36,4.06c-2.6,8.81-7.9,21.71-17.13,32.46" id="Ske2o47en3g" kvg:type="㇒" transform="matrix(1,0,0,1,1096,-4)" xmlns:kvg="http://kanjivg.tagaini.net"></path><path class="stroke_order_diagram--existing_path" d="M27.64,36.5c0.26,0.05,2.44,0.67,3.14,0.36c2.48-1.11,4.73-1.86,8.93-3.05c2.43-0.69,3.41,1.73,2.79,4.31C39.11,52.26,24.5,81.5,9.11,91" id="Ske2o47en3h" kvg:type="㇇" transform="matrix(1,0,0,1,1096,-4)" xmlns:kvg="http://kanjivg.tagaini.net"></path><path class="stroke_order_diagram--existing_path" d="M20.21,50.98c2.76,1.97,7.12,8.09,7.81,11.16" id="Ske2o47en3i" kvg:type="㇔" transform="matrix(1,0,0,1,1096,-4)" xmlns:kvg="http://kanjivg.tagaini.net"></path><path class="stroke_order_diagram--existing_path" d="M49.36,15.55c0.29,0.28,0.61,0.51,0.71,0.88c0.82,3.25,1.81,8.77,2.64,13.55" id="Ske2o47en3j" kvg:type="㇑" transform="matrix(1,0,0,1,1096,-4)" xmlns:kvg="http://kanjivg.tagaini.net"></path><path class="stroke_order_diagram--existing_path" d="M51.15,16.58c5.3-0.69,10.36-1.19,15.25-1.88c1.23-0.17,1.97,0.8,1.79,1.59c-0.73,3.28-1,4.78-2.3,10.25" id="Ske2o47en3k" kvg:type="㇕b" transform="matrix(1,0,0,1,1096,-4)" xmlns:kvg="http://kanjivg.tagaini.net"></path><path class="stroke_order_diagram--existing_path" d="M53.3,28.7c3.95-0.42,8.76-1.12,14.19-1.76" id="Ske2o47en3l" kvg:type="㇐b" transform="matrix(1,0,0,1,1096,-4)" xmlns:kvg="http://kanjivg.tagaini.net"></path><path class="stroke_order_diagram--existing_path" d="M73.79,13.79c0.28,0.34,1.09,1.62,1.18,2.07c0.79,3.97,1.19,6.96,1.98,12.79" id="Ske2o47en3m" kvg:type="㇑" transform="matrix(1,0,0,1,1096,-4)" xmlns:kvg="http://kanjivg.tagaini.net"></path><path class="stroke_order_diagram--existing_path" d="M75.22,14.68c6.53-0.93,11.37-1.46,16.08-2.31c1.18-0.21,1.9,0.98,1.73,1.95c-0.7,4.01-1.53,6.18-2.47,10.52" id="Ske2o47en3n" kvg:type="㇕b" transform="matrix(1,0,0,1,1096,-4)" xmlns:kvg="http://kanjivg.tagaini.net"></path><path class="stroke_order_diagram--existing_path" d="M76.73,26.57c5.02-0.32,9.52-1.07,16.92-1.21" id="Ske2o47en3o" kvg:type="㇐b" transform="matrix(1,0,0,1,1096,-4)" xmlns:kvg="http://kanjivg.tagaini.net"></path><path class="stroke_order_diagram--existing_path" d="M51.98,36.72c0.27,0.51,0.78,1.41,0.93,2.04c1.24,5.26,2.81,15.82,3.59,25.58" id="Ske2o47en3p" kvg:type="㇑" transform="matrix(1,0,0,1,1096,-4)" xmlns:kvg="http://kanjivg.tagaini.net"></path><path class="stroke_order_diagram--current_path" d="M53.75,38.21c10.3-1.76,27.32-2.61,34.42-3.51c2.61-0.33,4.18,0.71,4.1,2.92c-0.18,5.26-2.97,21.07-3.43,23.26" id="kvg:06bab-s12" kvg:type="㇕" transform="matrix(1,0,0,1,1096,-4)" xmlns:kvg="http://kanjivg.tagaini.net"></path><path class="stroke_order_diagram--current_path" d="M53.75,38.21c10.3-1.76,27.32-2.61,34.42-3.51c2.61-0.33,4.18,0.71,4.1,2.92c-0.18,5.26-2.97,21.07-3.43,23.26" id="Ske2o47en3r" kvg:type="㇕" transform="matrix(1,0,0,1,1096,-4)" xmlns:kvg="http://kanjivg.tagaini.net"></path><circle class="stroke_order_diagram--path_start" cx="53.75" cy="38.21" r="4" transform="matrix(1,0,0,1,1096,-4)"></circle><line class="stroke_order_diagram--guide_line" x1="1250" x2="1250" y1="1" y2="99"></line><line class="stroke_order_diagram--bounding_box" x1="1299" x2="1299" y1="1" y2="99"></line><path class="stroke_order_diagram--existing_path" d="M14.25,17.97c1,0.28,3.3,0.66,4.3,0.52c5.2-0.73,13.7-1.73,21.24-2.97c1.63-0.27,2.64,0.25,3.47,0.5" id="Ske2o47en3u" kvg:type="㇐" transform="matrix(1,0,0,1,1196,-4)" xmlns:kvg="http://kanjivg.tagaini.net"></path><path class="stroke_order_diagram--existing_path" d="M28.7,20.89c0.18,0.68,0.74,2.76,0.36,4.06c-2.6,8.81-7.9,21.71-17.13,32.46" id="Ske2o47en3v" kvg:type="㇒" transform="matrix(1,0,0,1,1196,-4)" xmlns:kvg="http://kanjivg.tagaini.net"></path><path class="stroke_order_diagram--existing_path" d="M27.64,36.5c0.26,0.05,2.44,0.67,3.14,0.36c2.48-1.11,4.73-1.86,8.93-3.05c2.43-0.69,3.41,1.73,2.79,4.31C39.11,52.26,24.5,81.5,9.11,91" id="Ske2o47en3w" kvg:type="㇇" transform="matrix(1,0,0,1,1196,-4)" xmlns:kvg="http://kanjivg.tagaini.net"></path><path class="stroke_order_diagram--existing_path" d="M20.21,50.98c2.76,1.97,7.12,8.09,7.81,11.16" id="Ske2o47en3x" kvg:type="㇔" transform="matrix(1,0,0,1,1196,-4)" xmlns:kvg="http://kanjivg.tagaini.net"></path><path class="stroke_order_diagram--existing_path" d="M49.36,15.55c0.29,0.28,0.61,0.51,0.71,0.88c0.82,3.25,1.81,8.77,2.64,13.55" id="Ske2o47en3y" kvg:type="㇑" transform="matrix(1,0,0,1,1196,-4)" xmlns:kvg="http://kanjivg.tagaini.net"></path><path class="stroke_order_diagram--existing_path" d="M51.15,16.58c5.3-0.69,10.36-1.19,15.25-1.88c1.23-0.17,1.97,0.8,1.79,1.59c-0.73,3.28-1,4.78-2.3,10.25" id="Ske2o47en3z" kvg:type="㇕b" transform="matrix(1,0,0,1,1196,-4)" xmlns:kvg="http://kanjivg.tagaini.net"></path><path class="stroke_order_diagram--existing_path" d="M53.3,28.7c3.95-0.42,8.76-1.12,14.19-1.76" id="Ske2o47en40" kvg:type="㇐b" transform="matrix(1,0,0,1,1196,-4)" xmlns:kvg="http://kanjivg.tagaini.net"></path><path class="stroke_order_diagram--existing_path" d="M73.79,13.79c0.28,0.34,1.09,1.62,1.18,2.07c0.79,3.97,1.19,6.96,1.98,12.79" id="Ske2o47en41" kvg:type="㇑" transform="matrix(1,0,0,1,1196,-4)" xmlns:kvg="http://kanjivg.tagaini.net"></path><path class="stroke_order_diagram--existing_path" d="M75.22,14.68c6.53-0.93,11.37-1.46,16.08-2.31c1.18-0.21,1.9,0.98,1.73,1.95c-0.7,4.01-1.53,6.18-2.47,10.52" id="Ske2o47en42" kvg:type="㇕b" transform="matrix(1,0,0,1,1196,-4)" xmlns:kvg="http://kanjivg.tagaini.net"></path><path class="stroke_order_diagram--existing_path" d="M76.73,26.57c5.02-0.32,9.52-1.07,16.92-1.21" id="Ske2o47en43" kvg:type="㇐b" transform="matrix(1,0,0,1,1196,-4)" xmlns:kvg="http://kanjivg.tagaini.net"></path><path class="stroke_order_diagram--existing_path" d="M51.98,36.72c0.27,0.51,0.78,1.41,0.93,2.04c1.24,5.26,2.81,15.82,3.59,25.58" id="Ske2o47en44" kvg:type="㇑" transform="matrix(1,0,0,1,1196,-4)" xmlns:kvg="http://kanjivg.tagaini.net"></path><path class="stroke_order_diagram--existing_path" d="M53.75,38.21c10.3-1.76,27.32-2.61,34.42-3.51c2.61-0.33,4.18,0.71,4.1,2.92c-0.18,5.26-2.97,21.07-3.43,23.26" id="Ske2o47en45" kvg:type="㇕" transform="matrix(1,0,0,1,1196,-4)" xmlns:kvg="http://kanjivg.tagaini.net"></path><path class="stroke_order_diagram--current_path" d="M55.32,49.93c3.1-0.42,31.18-3.41,35.49-3.12" id="kvg:06bab-s13" kvg:type="㇐" transform="matrix(1,0,0,1,1196,-4)" xmlns:kvg="http://kanjivg.tagaini.net"></path><path class="stroke_order_diagram--current_path" d="M55.32,49.93c3.1-0.42,31.18-3.41,35.49-3.12" id="Ske2o47en47" kvg:type="㇐" transform="matrix(1,0,0,1,1196,-4)" xmlns:kvg="http://kanjivg.tagaini.net"></path><circle class="stroke_order_diagram--path_start" cx="55.32" cy="49.93" r="4" transform="matrix(1,0,0,1,1196,-4)"></circle><line class="stroke_order_diagram--guide_line" x1="1350" x2="1350" y1="1" y2="99"></line><line class="stroke_order_diagram--bounding_box" x1="1399" x2="1399" y1="1" y2="99"></line><path class="stroke_order_diagram--existing_path" d="M14.25,17.97c1,0.28,3.3,0.66,4.3,0.52c5.2-0.73,13.7-1.73,21.24-2.97c1.63-0.27,2.64,0.25,3.47,0.5" id="Ske2o47en4a" kvg:type="㇐" transform="matrix(1,0,0,1,1296,-4)" xmlns:kvg="http://kanjivg.tagaini.net"></path><path class="stroke_order_diagram--existing_path" d="M28.7,20.89c0.18,0.68,0.74,2.76,0.36,4.06c-2.6,8.81-7.9,21.71-17.13,32.46" id="Ske2o47en4b" kvg:type="㇒" transform="matrix(1,0,0,1,1296,-4)" xmlns:kvg="http://kanjivg.tagaini.net"></path><path class="stroke_order_diagram--existing_path" d="M27.64,36.5c0.26,0.05,2.44,0.67,3.14,0.36c2.48-1.11,4.73-1.86,8.93-3.05c2.43-0.69,3.41,1.73,2.79,4.31C39.11,52.26,24.5,81.5,9.11,91" id="Ske2o47en4c" kvg:type="㇇" transform="matrix(1,0,0,1,1296,-4)" xmlns:kvg="http://kanjivg.tagaini.net"></path><path class="stroke_order_diagram--existing_path" d="M20.21,50.98c2.76,1.97,7.12,8.09,7.81,11.16" id="Ske2o47en4d" kvg:type="㇔" transform="matrix(1,0,0,1,1296,-4)" xmlns:kvg="http://kanjivg.tagaini.net"></path><path class="stroke_order_diagram--existing_path" d="M49.36,15.55c0.29,0.28,0.61,0.51,0.71,0.88c0.82,3.25,1.81,8.77,2.64,13.55" id="Ske2o47en4e" kvg:type="㇑" transform="matrix(1,0,0,1,1296,-4)" xmlns:kvg="http://kanjivg.tagaini.net"></path><path class="stroke_order_diagram--existing_path" d="M51.15,16.58c5.3-0.69,10.36-1.19,15.25-1.88c1.23-0.17,1.97,0.8,1.79,1.59c-0.73,3.28-1,4.78-2.3,10.25" id="Ske2o47en4f" kvg:type="㇕b" transform="matrix(1,0,0,1,1296,-4)" xmlns:kvg="http://kanjivg.tagaini.net"></path><path class="stroke_order_diagram--existing_path" d="M53.3,28.7c3.95-0.42,8.76-1.12,14.19-1.76" id="Ske2o47en4g" kvg:type="㇐b" transform="matrix(1,0,0,1,1296,-4)" xmlns:kvg="http://kanjivg.tagaini.net"></path><path class="stroke_order_diagram--existing_path" d="M73.79,13.79c0.28,0.34,1.09,1.62,1.18,2.07c0.79,3.97,1.19,6.96,1.98,12.79" id="Ske2o47en4h" kvg:type="㇑" transform="matrix(1,0,0,1,1296,-4)" xmlns:kvg="http://kanjivg.tagaini.net"></path><path class="stroke_order_diagram--existing_path" d="M75.22,14.68c6.53-0.93,11.37-1.46,16.08-2.31c1.18-0.21,1.9,0.98,1.73,1.95c-0.7,4.01-1.53,6.18-2.47,10.52" id="Ske2o47en4i" kvg:type="㇕b" transform="matrix(1,0,0,1,1296,-4)" xmlns:kvg="http://kanjivg.tagaini.net"></path><path class="stroke_order_diagram--existing_path" d="M76.73,26.57c5.02-0.32,9.52-1.07,16.92-1.21" id="Ske2o47en4j" kvg:type="㇐b" transform="matrix(1,0,0,1,1296,-4)" xmlns:kvg="http://kanjivg.tagaini.net"></path><path class="stroke_order_diagram--existing_path" d="M51.98,36.72c0.27,0.51,0.78,1.41,0.93,2.04c1.24,5.26,2.81,15.82,3.59,25.58" id="Ske2o47en4k" kvg:type="㇑" transform="matrix(1,0,0,1,1296,-4)" xmlns:kvg="http://kanjivg.tagaini.net"></path><path class="stroke_order_diagram--existing_path" d="M53.75,38.21c10.3-1.76,27.32-2.61,34.42-3.51c2.61-0.33,4.18,0.71,4.1,2.92c-0.18,5.26-2.97,21.07-3.43,23.26" id="Ske2o47en4l" kvg:type="㇕" transform="matrix(1,0,0,1,1296,-4)" xmlns:kvg="http://kanjivg.tagaini.net"></path><path class="stroke_order_diagram--existing_path" d="M55.32,49.93c3.1-0.42,31.18-3.41,35.49-3.12" id="Ske2o47en4m" kvg:type="㇐" transform="matrix(1,0,0,1,1296,-4)" xmlns:kvg="http://kanjivg.tagaini.net"></path><path class="stroke_order_diagram--current_path" d="M56.87,61.83c10.63-1.41,22.23-2.01,32.04-3.03" id="kvg:06bab-s14" kvg:type="㇐" transform="matrix(1,0,0,1,1296,-4)" xmlns:kvg="http://kanjivg.tagaini.net"></path><path class="stroke_order_diagram--current_path" d="M56.87,61.83c10.63-1.41,22.23-2.01,32.04-3.03" id="Ske2o47en4o" kvg:type="㇐" transform="matrix(1,0,0,1,1296,-4)" xmlns:kvg="http://kanjivg.tagaini.net"></path><circle class="stroke_order_diagram--path_start" cx="56.87" cy="61.83" r="4" transform="matrix(1,0,0,1,1296,-4)"></circle><line class="stroke_order_diagram--guide_line" x1="1450" x2="1450" y1="1" y2="99"></line><line class="stroke_order_diagram--bounding_box" x1="1499" x2="1499" y1="1" y2="99"></line><path class="stroke_order_diagram--existing_path" d="M14.25,17.97c1,0.28,3.3,0.66,4.3,0.52c5.2-0.73,13.7-1.73,21.24-2.97c1.63-0.27,2.64,0.25,3.47,0.5" id="Ske2o47en4r" kvg:type="㇐" transform="matrix(1,0,0,1,1396,-4)" xmlns:kvg="http://kanjivg.tagaini.net"></path><path class="stroke_order_diagram--existing_path" d="M28.7,20.89c0.18,0.68,0.74,2.76,0.36,4.06c-2.6,8.81-7.9,21.71-17.13,32.46" id="Ske2o47en4s" kvg:type="㇒" transform="matrix(1,0,0,1,1396,-4)" xmlns:kvg="http://kanjivg.tagaini.net"></path><path class="stroke_order_diagram--existing_path" d="M27.64,36.5c0.26,0.05,2.44,0.67,3.14,0.36c2.48-1.11,4.73-1.86,8.93-3.05c2.43-0.69,3.41,1.73,2.79,4.31C39.11,52.26,24.5,81.5,9.11,91" id="Ske2o47en4t" kvg:type="㇇" transform="matrix(1,0,0,1,1396,-4)" xmlns:kvg="http://kanjivg.tagaini.net"></path><path class="stroke_order_diagram--existing_path" d="M20.21,50.98c2.76,1.97,7.12,8.09,7.81,11.16" id="Ske2o47en4u" kvg:type="㇔" transform="matrix(1,0,0,1,1396,-4)" xmlns:kvg="http://kanjivg.tagaini.net"></path><path class="stroke_order_diagram--existing_path" d="M49.36,15.55c0.29,0.28,0.61,0.51,0.71,0.88c0.82,3.25,1.81,8.77,2.64,13.55" id="Ske2o47en4v" kvg:type="㇑" transform="matrix(1,0,0,1,1396,-4)" xmlns:kvg="http://kanjivg.tagaini.net"></path><path class="stroke_order_diagram--existing_path" d="M51.15,16.58c5.3-0.69,10.36-1.19,15.25-1.88c1.23-0.17,1.97,0.8,1.79,1.59c-0.73,3.28-1,4.78-2.3,10.25" id="Ske2o47en4w" kvg:type="㇕b" transform="matrix(1,0,0,1,1396,-4)" xmlns:kvg="http://kanjivg.tagaini.net"></path><path class="stroke_order_diagram--existing_path" d="M53.3,28.7c3.95-0.42,8.76-1.12,14.19-1.76" id="Ske2o47en4x" kvg:type="㇐b" transform="matrix(1,0,0,1,1396,-4)" xmlns:kvg="http://kanjivg.tagaini.net"></path><path class="stroke_order_diagram--existing_path" d="M73.79,13.79c0.28,0.34,1.09,1.62,1.18,2.07c0.79,3.97,1.19,6.96,1.98,12.79" id="Ske2o47en4y" kvg:type="㇑" transform="matrix(1,0,0,1,1396,-4)" xmlns:kvg="http://kanjivg.tagaini.net"></path><path class="stroke_order_diagram--existing_path" d="M75.22,14.68c6.53-0.93,11.37-1.46,16.08-2.31c1.18-0.21,1.9,0.98,1.73,1.95c-0.7,4.01-1.53,6.18-2.47,10.52" id="Ske2o47en4z" kvg:type="㇕b" transform="matrix(1,0,0,1,1396,-4)" xmlns:kvg="http://kanjivg.tagaini.net"></path><path class="stroke_order_diagram--existing_path" d="M76.73,26.57c5.02-0.32,9.52-1.07,16.92-1.21" id="Ske2o47en50" kvg:type="㇐b" transform="matrix(1,0,0,1,1396,-4)" xmlns:kvg="http://kanjivg.tagaini.net"></path><path class="stroke_order_diagram--existing_path" d="M51.98,36.72c0.27,0.51,0.78,1.41,0.93,2.04c1.24,5.26,2.81,15.82,3.59,25.58" id="Ske2o47en51" kvg:type="㇑" transform="matrix(1,0,0,1,1396,-4)" xmlns:kvg="http://kanjivg.tagaini.net"></path><path class="stroke_order_diagram--existing_path" d="M53.75,38.21c10.3-1.76,27.32-2.61,34.42-3.51c2.61-0.33,4.18,0.71,4.1,2.92c-0.18,5.26-2.97,21.07-3.43,23.26" id="Ske2o47en52" kvg:type="㇕" transform="matrix(1,0,0,1,1396,-4)" xmlns:kvg="http://kanjivg.tagaini.net"></path><path class="stroke_order_diagram--existing_path" d="M55.32,49.93c3.1-0.42,31.18-3.41,35.49-3.12" id="Ske2o47en53" kvg:type="㇐" transform="matrix(1,0,0,1,1396,-4)" xmlns:kvg="http://kanjivg.tagaini.net"></path><path class="stroke_order_diagram--existing_path" d="M56.87,61.83c10.63-1.41,22.23-2.01,32.04-3.03" id="Ske2o47en54" kvg:type="㇐" transform="matrix(1,0,0,1,1396,-4)" xmlns:kvg="http://kanjivg.tagaini.net"></path><path class="stroke_order_diagram--current_path" d="M43.44,75.42c1.25,0.53,3.55,0.62,4.81,0.53c6.96-0.48,32.29-2.89,47.93-3.61c2.09-0.1,3.34,0.25,4.39,0.52" id="kvg:06bab-s15" kvg:type="㇐" transform="matrix(1,0,0,1,1396,-4)" xmlns:kvg="http://kanjivg.tagaini.net"></path><path class="stroke_order_diagram--current_path" d="M43.44,75.42c1.25,0.53,3.55,0.62,4.81,0.53c6.96-0.48,32.29-2.89,47.93-3.61c2.09-0.1,3.34,0.25,4.39,0.52" id="Ske2o47en56" kvg:type="㇐" transform="matrix(1,0,0,1,1396,-4)" xmlns:kvg="http://kanjivg.tagaini.net"></path><circle class="stroke_order_diagram--path_start" cx="43.44" cy="75.42" r="4" transform="matrix(1,0,0,1,1396,-4)"></circle><line class="stroke_order_diagram--guide_line" x1="1550" x2="1550" y1="1" y2="99"></line><line class="stroke_order_diagram--bounding_box" x1="1599" x2="1599" y1="1" y2="99"></line><path class="stroke_order_diagram--existing_path" d="M14.25,17.97c1,0.28,3.3,0.66,4.3,0.52c5.2-0.73,13.7-1.73,21.24-2.97c1.63-0.27,2.64,0.25,3.47,0.5" id="Ske2o47en59" kvg:type="㇐" transform="matrix(1,0,0,1,1496,-4)" xmlns:kvg="http://kanjivg.tagaini.net"></path><path class="stroke_order_diagram--existing_path" d="M28.7,20.89c0.18,0.68,0.74,2.76,0.36,4.06c-2.6,8.81-7.9,21.71-17.13,32.46" id="Ske2o47en5a" kvg:type="㇒" transform="matrix(1,0,0,1,1496,-4)" xmlns:kvg="http://kanjivg.tagaini.net"></path><path class="stroke_order_diagram--existing_path" d="M27.64,36.5c0.26,0.05,2.44,0.67,3.14,0.36c2.48-1.11,4.73-1.86,8.93-3.05c2.43-0.69,3.41,1.73,2.79,4.31C39.11,52.26,24.5,81.5,9.11,91" id="Ske2o47en5b" kvg:type="㇇" transform="matrix(1,0,0,1,1496,-4)" xmlns:kvg="http://kanjivg.tagaini.net"></path><path class="stroke_order_diagram--existing_path" d="M20.21,50.98c2.76,1.97,7.12,8.09,7.81,11.16" id="Ske2o47en5c" kvg:type="㇔" transform="matrix(1,0,0,1,1496,-4)" xmlns:kvg="http://kanjivg.tagaini.net"></path><path class="stroke_order_diagram--existing_path" d="M49.36,15.55c0.29,0.28,0.61,0.51,0.71,0.88c0.82,3.25,1.81,8.77,2.64,13.55" id="Ske2o47en5d" kvg:type="㇑" transform="matrix(1,0,0,1,1496,-4)" xmlns:kvg="http://kanjivg.tagaini.net"></path><path class="stroke_order_diagram--existing_path" d="M51.15,16.58c5.3-0.69,10.36-1.19,15.25-1.88c1.23-0.17,1.97,0.8,1.79,1.59c-0.73,3.28-1,4.78-2.3,10.25" id="Ske2o47en5e" kvg:type="㇕b" transform="matrix(1,0,0,1,1496,-4)" xmlns:kvg="http://kanjivg.tagaini.net"></path><path class="stroke_order_diagram--existing_path" d="M53.3,28.7c3.95-0.42,8.76-1.12,14.19-1.76" id="Ske2o47en5f" kvg:type="㇐b" transform="matrix(1,0,0,1,1496,-4)" xmlns:kvg="http://kanjivg.tagaini.net"></path><path class="stroke_order_diagram--existing_path" d="M73.79,13.79c0.28,0.34,1.09,1.62,1.18,2.07c0.79,3.97,1.19,6.96,1.98,12.79" id="Ske2o47en5g" kvg:type="㇑" transform="matrix(1,0,0,1,1496,-4)" xmlns:kvg="http://kanjivg.tagaini.net"></path><path class="stroke_order_diagram--existing_path" d="M75.22,14.68c6.53-0.93,11.37-1.46,16.08-2.31c1.18-0.21,1.9,0.98,1.73,1.95c-0.7,4.01-1.53,6.18-2.47,10.52" id="Ske2o47en5h" kvg:type="㇕b" transform="matrix(1,0,0,1,1496,-4)" xmlns:kvg="http://kanjivg.tagaini.net"></path><path class="stroke_order_diagram--existing_path" d="M76.73,26.57c5.02-0.32,9.52-1.07,16.92-1.21" id="Ske2o47en5i" kvg:type="㇐b" transform="matrix(1,0,0,1,1496,-4)" xmlns:kvg="http://kanjivg.tagaini.net"></path><path class="stroke_order_diagram--existing_path" d="M51.98,36.72c0.27,0.51,0.78,1.41,0.93,2.04c1.24,5.26,2.81,15.82,3.59,25.58" id="Ske2o47en5j" kvg:type="㇑" transform="matrix(1,0,0,1,1496,-4)" xmlns:kvg="http://kanjivg.tagaini.net"></path><path class="stroke_order_diagram--existing_path" d="M53.75,38.21c10.3-1.76,27.32-2.61,34.42-3.51c2.61-0.33,4.18,0.71,4.1,2.92c-0.18,5.26-2.97,21.07-3.43,23.26" id="Ske2o47en5k" kvg:type="㇕" transform="matrix(1,0,0,1,1496,-4)" xmlns:kvg="http://kanjivg.tagaini.net"></path><path class="stroke_order_diagram--existing_path" d="M55.32,49.93c3.1-0.42,31.18-3.41,35.49-3.12" id="Ske2o47en5l" kvg:type="㇐" transform="matrix(1,0,0,1,1496,-4)" xmlns:kvg="http://kanjivg.tagaini.net"></path><path class="stroke_order_diagram--existing_path" d="M56.87,61.83c10.63-1.41,22.23-2.01,32.04-3.03" id="Ske2o47en5m" kvg:type="㇐" transform="matrix(1,0,0,1,1496,-4)" xmlns:kvg="http://kanjivg.tagaini.net"></path><path class="stroke_order_diagram--existing_path" d="M43.44,75.42c1.25,0.53,3.55,0.62,4.81,0.53c6.96-0.48,32.29-2.89,47.93-3.61c2.09-0.1,3.34,0.25,4.39,0.52" id="Ske2o47en5n" kvg:type="㇐" transform="matrix(1,0,0,1,1496,-4)" xmlns:kvg="http://kanjivg.tagaini.net"></path><path class="stroke_order_diagram--current_path" d="M70.89,38.99c0.53,0.36,0.86,1.36,0.87,2.58c0.03,6.19,0.16,54.92,0.17,56.94" id="kvg:06bab-s16" kvg:type="㇑" transform="matrix(1,0,0,1,1496,-4)" xmlns:kvg="http://kanjivg.tagaini.net"></path><path class="stroke_order_diagram--current_path" d="M70.89,38.99c0.53,0.36,0.86,1.36,0.87,2.58c0.03,6.19,0.16,54.92,0.17,56.94" id="Ske2o47en5p" kvg:type="㇑" transform="matrix(1,0,0,1,1496,-4)" xmlns:kvg="http://kanjivg.tagaini.net"></path><circle class="stroke_order_diagram--path_start" cx="70.89" cy="38.99" r="4" transform="matrix(1,0,0,1,1496,-4)"></circle></svg>