<svg class="stroke_order_diagram--svg_container_for_518662add5dda7965800109d" style="height: 100px; width: 800px;" viewbox="0 0 800 100"><desc>Created with Snap</desc><defs></defs><line class="stroke_order_diagram--bounding_box" x1="1" x2="799" y1="1" y2="1"></line><line class="stroke_order_diagram--bounding_box" x1="1" x2="1" y1="1" y2="99"></line><line class="stroke_order_diagram--bounding_box" x1="1" x2="799" y1="99" y2="99"></line><line class="stroke_order_diagram--guide_line" x1="0" x2="800" y1="50" y2="50"></line><line class="stroke_order_diagram--guide_line" x1="50" x2="50" y1="1" y2="99"></line><line class="stroke_order_diagram--bounding_box" x1="99" x2="99" y1="1" y2="99"></line><path class="stroke_order_diagram--current_path" d="M25.04,16.36c1.27,0.68,2.71,3.28,2.71,4.64c0,5-0.03,11.5-0.03,15.82" id="kvg:06c13-s1" kvg:type="㇑a" transform="matrix(1,0,0,1,-4,-4)" xmlns:kvg="http://kanjivg.tagaini.net"></path><path class="stroke_order_diagram--current_path" d="M25.04,16.36c1.27,0.68,2.71,3.28,2.71,4.64c0,5-0.03,11.5-0.03,15.82" id="Ske2o8zwxh" kvg:type="㇑a" transform="matrix(1,0,0,1,-4,-4)" xmlns:kvg="http://kanjivg.tagaini.net"></path><circle class="stroke_order_diagram--path_start" cx="25.04" cy="16.36" r="4" transform="matrix(1,0,0,1,-4,-4)"></circle><line class="stroke_order_diagram--guide_line" x1="150" x2="150" y1="1" y2="99"></line><line class="stroke_order_diagram--bounding_box" x1="199" x2="199" y1="1" y2="99"></line><path class="stroke_order_diagram--existing_path" d="M25.04,16.36c1.27,0.68,2.71,3.28,2.71,4.64c0,5-0.03,11.5-0.03,15.82" id="Ske2o8zwxk" kvg:type="㇑a" transform="matrix(1,0,0,1,96,-4)" xmlns:kvg="http://kanjivg.tagaini.net"></path><path class="stroke_order_diagram--current_path" d="M11.88,38.35c0.79,0.06,2.58,0.4,3.35,0.34c6.26-0.45,20.71-1.77,26.84-2.03c1.3-0.06,1.95,0,3.29,0.44" id="kvg:06c13-s2" kvg:type="㇐" transform="matrix(1,0,0,1,96,-4)" xmlns:kvg="http://kanjivg.tagaini.net"></path><path class="stroke_order_diagram--current_path" d="M11.88,38.35c0.79,0.06,2.58,0.4,3.35,0.34c6.26-0.45,20.71-1.77,26.84-2.03c1.3-0.06,1.95,0,3.29,0.44" id="Ske2o8zwxm" kvg:type="㇐" transform="matrix(1,0,0,1,96,-4)" xmlns:kvg="http://kanjivg.tagaini.net"></path><circle class="stroke_order_diagram--path_start" cx="11.88" cy="38.35" r="4" transform="matrix(1,0,0,1,96,-4)"></circle><line class="stroke_order_diagram--guide_line" x1="250" x2="250" y1="1" y2="99"></line><line class="stroke_order_diagram--bounding_box" x1="299" x2="299" y1="1" y2="99"></line><path class="stroke_order_diagram--existing_path" d="M25.04,16.36c1.27,0.68,2.71,3.28,2.71,4.64c0,5-0.03,11.5-0.03,15.82" id="Ske2o8zwxp" kvg:type="㇑a" transform="matrix(1,0,0,1,196,-4)" xmlns:kvg="http://kanjivg.tagaini.net"></path><path class="stroke_order_diagram--existing_path" d="M11.88,38.35c0.79,0.06,2.58,0.4,3.35,0.34c6.26-0.45,20.71-1.77,26.84-2.03c1.3-0.06,1.95,0,3.29,0.44" id="Ske2o8zwxq" kvg:type="㇐" transform="matrix(1,0,0,1,196,-4)" xmlns:kvg="http://kanjivg.tagaini.net"></path><path class="stroke_order_diagram--current_path" d="M14.47,39c0,1.5,0.01,3.57,0.01,4.85c0,11.4,0,28.21,0,32.53c0,9.37,1.77,11.16,12.77,11.16c7.25,0,14.5-0.79,17.03-2.31" id="kvg:06c13-s3" kvg:type="㇄" transform="matrix(1,0,0,1,196,-4)" xmlns:kvg="http://kanjivg.tagaini.net"></path><path class="stroke_order_diagram--current_path" d="M14.47,39c0,1.5,0.01,3.57,0.01,4.85c0,11.4,0,28.21,0,32.53c0,9.37,1.77,11.16,12.77,11.16c7.25,0,14.5-0.79,17.03-2.31" id="Ske2o8zwxs" kvg:type="㇄" transform="matrix(1,0,0,1,196,-4)" xmlns:kvg="http://kanjivg.tagaini.net"></path><circle class="stroke_order_diagram--path_start" cx="14.47" cy="39" r="4" transform="matrix(1,0,0,1,196,-4)"></circle><line class="stroke_order_diagram--guide_line" x1="350" x2="350" y1="1" y2="99"></line><line class="stroke_order_diagram--bounding_box" x1="399" x2="399" y1="1" y2="99"></line><path class="stroke_order_diagram--existing_path" d="M25.04,16.36c1.27,0.68,2.71,3.28,2.71,4.64c0,5-0.03,11.5-0.03,15.82" id="Ske2o8zwxv" kvg:type="㇑a" transform="matrix(1,0,0,1,296,-4)" xmlns:kvg="http://kanjivg.tagaini.net"></path><path class="stroke_order_diagram--existing_path" d="M11.88,38.35c0.79,0.06,2.58,0.4,3.35,0.34c6.26-0.45,20.71-1.77,26.84-2.03c1.3-0.06,1.95,0,3.29,0.44" id="Ske2o8zwxw" kvg:type="㇐" transform="matrix(1,0,0,1,296,-4)" xmlns:kvg="http://kanjivg.tagaini.net"></path><path class="stroke_order_diagram--existing_path" d="M14.47,39c0,1.5,0.01,3.57,0.01,4.85c0,11.4,0,28.21,0,32.53c0,9.37,1.77,11.16,12.77,11.16c7.25,0,14.5-0.79,17.03-2.31" id="Ske2o8zwxx" kvg:type="㇄" transform="matrix(1,0,0,1,296,-4)" xmlns:kvg="http://kanjivg.tagaini.net"></path><path class="stroke_order_diagram--current_path" d="M49.06,15.27c0.74,0.15,2.93,0.66,4.44,0.55c8.11-0.57,26.75-3.27,30.47-3.3c2.28-0.02,4.12,2.27,3.83,3.56c-1.09,4.73-2.04,12.43-2.97,17.16" id="kvg:06c13-s4" kvg:type="㇕" transform="matrix(1,0,0,1,296,-4)" xmlns:kvg="http://kanjivg.tagaini.net"></path><path class="stroke_order_diagram--current_path" d="M49.06,15.27c0.74,0.15,2.93,0.66,4.44,0.55c8.11-0.57,26.75-3.27,30.47-3.3c2.28-0.02,4.12,2.27,3.83,3.56c-1.09,4.73-2.04,12.43-2.97,17.16" id="Ske2o8zwxz" kvg:type="㇕" transform="matrix(1,0,0,1,296,-4)" xmlns:kvg="http://kanjivg.tagaini.net"></path><circle class="stroke_order_diagram--path_start" cx="49.06" cy="15.27" r="4" transform="matrix(1,0,0,1,296,-4)"></circle><line class="stroke_order_diagram--guide_line" x1="450" x2="450" y1="1" y2="99"></line><line class="stroke_order_diagram--bounding_box" x1="499" x2="499" y1="1" y2="99"></line><path class="stroke_order_diagram--existing_path" d="M25.04,16.36c1.27,0.68,2.71,3.28,2.71,4.64c0,5-0.03,11.5-0.03,15.82" id="Ske2o8zwx12" kvg:type="㇑a" transform="matrix(1,0,0,1,396,-4)" xmlns:kvg="http://kanjivg.tagaini.net"></path><path class="stroke_order_diagram--existing_path" d="M11.88,38.35c0.79,0.06,2.58,0.4,3.35,0.34c6.26-0.45,20.71-1.77,26.84-2.03c1.3-0.06,1.95,0,3.29,0.44" id="Ske2o8zwx13" kvg:type="㇐" transform="matrix(1,0,0,1,396,-4)" xmlns:kvg="http://kanjivg.tagaini.net"></path><path class="stroke_order_diagram--existing_path" d="M14.47,39c0,1.5,0.01,3.57,0.01,4.85c0,11.4,0,28.21,0,32.53c0,9.37,1.77,11.16,12.77,11.16c7.25,0,14.5-0.79,17.03-2.31" id="Ske2o8zwx14" kvg:type="㇄" transform="matrix(1,0,0,1,396,-4)" xmlns:kvg="http://kanjivg.tagaini.net"></path><path class="stroke_order_diagram--existing_path" d="M49.06,15.27c0.74,0.15,2.93,0.66,4.44,0.55c8.11-0.57,26.75-3.27,30.47-3.3c2.28-0.02,4.12,2.27,3.83,3.56c-1.09,4.73-2.04,12.43-2.97,17.16" id="Ske2o8zwx15" kvg:type="㇕" transform="matrix(1,0,0,1,396,-4)" xmlns:kvg="http://kanjivg.tagaini.net"></path><path class="stroke_order_diagram--current_path" d="M52.7,37.56c5.92-0.94,24.63-3.17,31.45-3.97c1.07-0.12,3.21,0.17,3.75,0.34" id="kvg:06c13-s5" kvg:type="㇐" transform="matrix(1,0,0,1,396,-4)" xmlns:kvg="http://kanjivg.tagaini.net"></path><path class="stroke_order_diagram--current_path" d="M52.7,37.56c5.92-0.94,24.63-3.17,31.45-3.97c1.07-0.12,3.21,0.17,3.75,0.34" id="Ske2o8zwx17" kvg:type="㇐" transform="matrix(1,0,0,1,396,-4)" xmlns:kvg="http://kanjivg.tagaini.net"></path><circle class="stroke_order_diagram--path_start" cx="52.7" cy="37.56" r="4" transform="matrix(1,0,0,1,396,-4)"></circle><line class="stroke_order_diagram--guide_line" x1="550" x2="550" y1="1" y2="99"></line><line class="stroke_order_diagram--bounding_box" x1="599" x2="599" y1="1" y2="99"></line><path class="stroke_order_diagram--existing_path" d="M25.04,16.36c1.27,0.68,2.71,3.28,2.71,4.64c0,5-0.03,11.5-0.03,15.82" id="Ske2o8zwx1a" kvg:type="㇑a" transform="matrix(1,0,0,1,496,-4)" xmlns:kvg="http://kanjivg.tagaini.net"></path><path class="stroke_order_diagram--existing_path" d="M11.88,38.35c0.79,0.06,2.58,0.4,3.35,0.34c6.26-0.45,20.71-1.77,26.84-2.03c1.3-0.06,1.95,0,3.29,0.44" id="Ske2o8zwx1b" kvg:type="㇐" transform="matrix(1,0,0,1,496,-4)" xmlns:kvg="http://kanjivg.tagaini.net"></path><path class="stroke_order_diagram--existing_path" d="M14.47,39c0,1.5,0.01,3.57,0.01,4.85c0,11.4,0,28.21,0,32.53c0,9.37,1.77,11.16,12.77,11.16c7.25,0,14.5-0.79,17.03-2.31" id="Ske2o8zwx1c" kvg:type="㇄" transform="matrix(1,0,0,1,496,-4)" xmlns:kvg="http://kanjivg.tagaini.net"></path><path class="stroke_order_diagram--existing_path" d="M49.06,15.27c0.74,0.15,2.93,0.66,4.44,0.55c8.11-0.57,26.75-3.27,30.47-3.3c2.28-0.02,4.12,2.27,3.83,3.56c-1.09,4.73-2.04,12.43-2.97,17.16" id="Ske2o8zwx1d" kvg:type="㇕" transform="matrix(1,0,0,1,496,-4)" xmlns:kvg="http://kanjivg.tagaini.net"></path><path class="stroke_order_diagram--existing_path" d="M52.7,37.56c5.92-0.94,24.63-3.17,31.45-3.97c1.07-0.12,3.21,0.17,3.75,0.34" id="Ske2o8zwx1e" kvg:type="㇐" transform="matrix(1,0,0,1,496,-4)" xmlns:kvg="http://kanjivg.tagaini.net"></path><path class="stroke_order_diagram--current_path" d="M52.25,16.35c0.25,1.15,0.38,2.23,0.38,4.31c0,2.08-0.17,69.66-0.17,72.89c0,3.23,0.84,3.28,3.4,1.35C61,91,67.5,86.25,71.43,83.54" id="kvg:06c13-s6" kvg:type="㇙" transform="matrix(1,0,0,1,496,-4)" xmlns:kvg="http://kanjivg.tagaini.net"></path><path class="stroke_order_diagram--current_path" d="M52.25,16.35c0.25,1.15,0.38,2.23,0.38,4.31c0,2.08-0.17,69.66-0.17,72.89c0,3.23,0.84,3.28,3.4,1.35C61,91,67.5,86.25,71.43,83.54" id="Ske2o8zwx1g" kvg:type="㇙" transform="matrix(1,0,0,1,496,-4)" xmlns:kvg="http://kanjivg.tagaini.net"></path><circle class="stroke_order_diagram--path_start" cx="52.25" cy="16.35" r="4" transform="matrix(1,0,0,1,496,-4)"></circle><line class="stroke_order_diagram--guide_line" x1="650" x2="650" y1="1" y2="99"></line><line class="stroke_order_diagram--bounding_box" x1="699" x2="699" y1="1" y2="99"></line><path class="stroke_order_diagram--existing_path" d="M25.04,16.36c1.27,0.68,2.71,3.28,2.71,4.64c0,5-0.03,11.5-0.03,15.82" id="Ske2o8zwx1j" kvg:type="㇑a" transform="matrix(1,0,0,1,596,-4)" xmlns:kvg="http://kanjivg.tagaini.net"></path><path class="stroke_order_diagram--existing_path" d="M11.88,38.35c0.79,0.06,2.58,0.4,3.35,0.34c6.26-0.45,20.71-1.77,26.84-2.03c1.3-0.06,1.95,0,3.29,0.44" id="Ske2o8zwx1k" kvg:type="㇐" transform="matrix(1,0,0,1,596,-4)" xmlns:kvg="http://kanjivg.tagaini.net"></path><path class="stroke_order_diagram--existing_path" d="M14.47,39c0,1.5,0.01,3.57,0.01,4.85c0,11.4,0,28.21,0,32.53c0,9.37,1.77,11.16,12.77,11.16c7.25,0,14.5-0.79,17.03-2.31" id="Ske2o8zwx1l" kvg:type="㇄" transform="matrix(1,0,0,1,596,-4)" xmlns:kvg="http://kanjivg.tagaini.net"></path><path class="stroke_order_diagram--existing_path" d="M49.06,15.27c0.74,0.15,2.93,0.66,4.44,0.55c8.11-0.57,26.75-3.27,30.47-3.3c2.28-0.02,4.12,2.27,3.83,3.56c-1.09,4.73-2.04,12.43-2.97,17.16" id="Ske2o8zwx1m" kvg:type="㇕" transform="matrix(1,0,0,1,596,-4)" xmlns:kvg="http://kanjivg.tagaini.net"></path><path class="stroke_order_diagram--existing_path" d="M52.7,37.56c5.92-0.94,24.63-3.17,31.45-3.97c1.07-0.12,3.21,0.17,3.75,0.34" id="Ske2o8zwx1n" kvg:type="㇐" transform="matrix(1,0,0,1,596,-4)" xmlns:kvg="http://kanjivg.tagaini.net"></path><path class="stroke_order_diagram--existing_path" d="M52.25,16.35c0.25,1.15,0.38,2.23,0.38,4.31c0,2.08-0.17,69.66-0.17,72.89c0,3.23,0.84,3.28,3.4,1.35C61,91,67.5,86.25,71.43,83.54" id="Ske2o8zwx1o" kvg:type="㇙" transform="matrix(1,0,0,1,596,-4)" xmlns:kvg="http://kanjivg.tagaini.net"></path><path class="stroke_order_diagram--current_path" d="M52.63,56.06c9.69-0.68,27.3-1.27,40.45-2.9c1.29-0.16,2.05,0.22,2.69,0.44" id="kvg:06c13-s7" kvg:type="㇐" transform="matrix(1,0,0,1,596,-4)" xmlns:kvg="http://kanjivg.tagaini.net"></path><path class="stroke_order_diagram--current_path" d="M52.63,56.06c9.69-0.68,27.3-1.27,40.45-2.9c1.29-0.16,2.05,0.22,2.69,0.44" id="Ske2o8zwx1q" kvg:type="㇐" transform="matrix(1,0,0,1,596,-4)" xmlns:kvg="http://kanjivg.tagaini.net"></path><circle class="stroke_order_diagram--path_start" cx="52.63" cy="56.06" r="4" transform="matrix(1,0,0,1,596,-4)"></circle><line class="stroke_order_diagram--guide_line" x1="750" x2="750" y1="1" y2="99"></line><line class="stroke_order_diagram--bounding_box" x1="799" x2="799" y1="1" y2="99"></line><path class="stroke_order_diagram--existing_path" d="M25.04,16.36c1.27,0.68,2.71,3.28,2.71,4.64c0,5-0.03,11.5-0.03,15.82" id="Ske2o8zwx1t" kvg:type="㇑a" transform="matrix(1,0,0,1,696,-4)" xmlns:kvg="http://kanjivg.tagaini.net"></path><path class="stroke_order_diagram--existing_path" d="M11.88,38.35c0.79,0.06,2.58,0.4,3.35,0.34c6.26-0.45,20.71-1.77,26.84-2.03c1.3-0.06,1.95,0,3.29,0.44" id="Ske2o8zwx1u" kvg:type="㇐" transform="matrix(1,0,0,1,696,-4)" xmlns:kvg="http://kanjivg.tagaini.net"></path><path class="stroke_order_diagram--existing_path" d="M14.47,39c0,1.5,0.01,3.57,0.01,4.85c0,11.4,0,28.21,0,32.53c0,9.37,1.77,11.16,12.77,11.16c7.25,0,14.5-0.79,17.03-2.31" id="Ske2o8zwx1v" kvg:type="㇄" transform="matrix(1,0,0,1,696,-4)" xmlns:kvg="http://kanjivg.tagaini.net"></path><path class="stroke_order_diagram--existing_path" d="M49.06,15.27c0.74,0.15,2.93,0.66,4.44,0.55c8.11-0.57,26.75-3.27,30.47-3.3c2.28-0.02,4.12,2.27,3.83,3.56c-1.09,4.73-2.04,12.43-2.97,17.16" id="Ske2o8zwx1w" kvg:type="㇕" transform="matrix(1,0,0,1,696,-4)" xmlns:kvg="http://kanjivg.tagaini.net"></path><path class="stroke_order_diagram--existing_path" d="M52.7,37.56c5.92-0.94,24.63-3.17,31.45-3.97c1.07-0.12,3.21,0.17,3.75,0.34" id="Ske2o8zwx1x" kvg:type="㇐" transform="matrix(1,0,0,1,696,-4)" xmlns:kvg="http://kanjivg.tagaini.net"></path><path class="stroke_order_diagram--existing_path" d="M52.25,16.35c0.25,1.15,0.38,2.23,0.38,4.31c0,2.08-0.17,69.66-0.17,72.89c0,3.23,0.84,3.28,3.4,1.35C61,91,67.5,86.25,71.43,83.54" id="Ske2o8zwx1y" kvg:type="㇙" transform="matrix(1,0,0,1,696,-4)" xmlns:kvg="http://kanjivg.tagaini.net"></path><path class="stroke_order_diagram--existing_path" d="M52.63,56.06c9.69-0.68,27.3-1.27,40.45-2.9c1.29-0.16,2.05,0.22,2.69,0.44" id="Ske2o8zwx1z" kvg:type="㇐" transform="matrix(1,0,0,1,696,-4)" xmlns:kvg="http://kanjivg.tagaini.net"></path><path class="stroke_order_diagram--current_path" d="M69.48,38.31c0.52,0.69,1.08,2.56,1.17,3.88C72.25,66,79,84.6,92.56,93.01C101,98.25,99,93,97.92,87.1" id="kvg:06c13-s8" kvg:type="㇂" transform="matrix(1,0,0,1,696,-4)" xmlns:kvg="http://kanjivg.tagaini.net"></path><path class="stroke_order_diagram--current_path" d="M69.48,38.31c0.52,0.69,1.08,2.56,1.17,3.88C72.25,66,79,84.6,92.56,93.01C101,98.25,99,93,97.92,87.1" id="Ske2o8zwx21" kvg:type="㇂" transform="matrix(1,0,0,1,696,-4)" xmlns:kvg="http://kanjivg.tagaini.net"></path><circle class="stroke_order_diagram--path_start" cx="69.48" cy="38.31" r="4" transform="matrix(1,0,0,1,696,-4)"></circle></svg>