<svg class="stroke_order_diagram--svg_container_for_51866293d5dda796580008f6" style="height: 100px; width: 600px;" viewbox="0 0 600 100"><desc>Created with Snap</desc><defs></defs><line class="stroke_order_diagram--bounding_box" x1="1" x2="599" y1="1" y2="1"></line><line class="stroke_order_diagram--bounding_box" x1="1" x2="1" y1="1" y2="99"></line><line class="stroke_order_diagram--bounding_box" x1="1" x2="599" y1="99" y2="99"></line><line class="stroke_order_diagram--guide_line" x1="0" x2="600" y1="50" y2="50"></line><line class="stroke_order_diagram--guide_line" x1="50" x2="50" y1="1" y2="99"></line><line class="stroke_order_diagram--bounding_box" x1="99" x2="99" y1="1" y2="99"></line><path class="stroke_order_diagram--current_path" d="M20.13,18.25c4.45,1.47,11.5,6.05,12.62,8.34" id="kvg:06c4e-s1" kvg:type="㇔" transform="matrix(1,0,0,1,-4,-4)" xmlns:kvg="http://kanjivg.tagaini.net"></path><path class="stroke_order_diagram--current_path" d="M20.13,18.25c4.45,1.47,11.5,6.05,12.62,8.34" id="Ske26czhlf" kvg:type="㇔" transform="matrix(1,0,0,1,-4,-4)" xmlns:kvg="http://kanjivg.tagaini.net"></path><circle class="stroke_order_diagram--path_start" cx="20.13" cy="18.25" r="4" transform="matrix(1,0,0,1,-4,-4)"></circle><line class="stroke_order_diagram--guide_line" x1="150" x2="150" y1="1" y2="99"></line><line class="stroke_order_diagram--bounding_box" x1="199" x2="199" y1="1" y2="99"></line><path class="stroke_order_diagram--existing_path" d="M20.13,18.25c4.45,1.47,11.5,6.05,12.62,8.34" id="Ske26czhli" kvg:type="㇔" transform="matrix(1,0,0,1,96,-4)" xmlns:kvg="http://kanjivg.tagaini.net"></path><path class="stroke_order_diagram--current_path" d="M16,41.75c4.06,1.37,10.48,5.62,11.5,7.75" id="kvg:06c4e-s2" kvg:type="㇔" transform="matrix(1,0,0,1,96,-4)" xmlns:kvg="http://kanjivg.tagaini.net"></path><path class="stroke_order_diagram--current_path" d="M16,41.75c4.06,1.37,10.48,5.62,11.5,7.75" id="Ske26czhlk" kvg:type="㇔" transform="matrix(1,0,0,1,96,-4)" xmlns:kvg="http://kanjivg.tagaini.net"></path><circle class="stroke_order_diagram--path_start" cx="16" cy="41.75" r="4" transform="matrix(1,0,0,1,96,-4)"></circle><line class="stroke_order_diagram--guide_line" x1="250" x2="250" y1="1" y2="99"></line><line class="stroke_order_diagram--bounding_box" x1="299" x2="299" y1="1" y2="99"></line><path class="stroke_order_diagram--existing_path" d="M20.13,18.25c4.45,1.47,11.5,6.05,12.62,8.34" id="Ske26czhln" kvg:type="㇔" transform="matrix(1,0,0,1,196,-4)" xmlns:kvg="http://kanjivg.tagaini.net"></path><path class="stroke_order_diagram--existing_path" d="M16,41.75c4.06,1.37,10.48,5.62,11.5,7.75" id="Ske26czhlo" kvg:type="㇔" transform="matrix(1,0,0,1,196,-4)" xmlns:kvg="http://kanjivg.tagaini.net"></path><path class="stroke_order_diagram--current_path" d="M16.75,88.68c2.25,0.82,4.21-0.1,5.27-1.76c3.09-4.84,5.67-9.25,8.48-15.42" id="kvg:06c4e-s3" kvg:type="㇀" transform="matrix(1,0,0,1,196,-4)" xmlns:kvg="http://kanjivg.tagaini.net"></path><path class="stroke_order_diagram--current_path" d="M16.75,88.68c2.25,0.82,4.21-0.1,5.27-1.76c3.09-4.84,5.67-9.25,8.48-15.42" id="Ske26czhlq" kvg:type="㇀" transform="matrix(1,0,0,1,196,-4)" xmlns:kvg="http://kanjivg.tagaini.net"></path><circle class="stroke_order_diagram--path_start" cx="16.75" cy="88.68" r="4" transform="matrix(1,0,0,1,196,-4)"></circle><line class="stroke_order_diagram--guide_line" x1="350" x2="350" y1="1" y2="99"></line><line class="stroke_order_diagram--bounding_box" x1="399" x2="399" y1="1" y2="99"></line><path class="stroke_order_diagram--existing_path" d="M20.13,18.25c4.45,1.47,11.5,6.05,12.62,8.34" id="Ske26czhlt" kvg:type="㇔" transform="matrix(1,0,0,1,296,-4)" xmlns:kvg="http://kanjivg.tagaini.net"></path><path class="stroke_order_diagram--existing_path" d="M16,41.75c4.06,1.37,10.48,5.62,11.5,7.75" id="Ske26czhlu" kvg:type="㇔" transform="matrix(1,0,0,1,296,-4)" xmlns:kvg="http://kanjivg.tagaini.net"></path><path class="stroke_order_diagram--existing_path" d="M16.75,88.68c2.25,0.82,4.21-0.1,5.27-1.76c3.09-4.84,5.67-9.25,8.48-15.42" id="Ske26czhlv" kvg:type="㇀" transform="matrix(1,0,0,1,296,-4)" xmlns:kvg="http://kanjivg.tagaini.net"></path><path class="stroke_order_diagram--current_path" d="M51.87,19.89c0.54,2.02,1.3,3.61,1.3,6.13c0,23.06,0.73,54.26-16.42,69.23" id="kvg:06c4e-s4" kvg:type="㇒" transform="matrix(1,0,0,1,296,-4)" xmlns:kvg="http://kanjivg.tagaini.net"></path><path class="stroke_order_diagram--current_path" d="M51.87,19.89c0.54,2.02,1.3,3.61,1.3,6.13c0,23.06,0.73,54.26-16.42,69.23" id="Ske26czhlx" kvg:type="㇒" transform="matrix(1,0,0,1,296,-4)" xmlns:kvg="http://kanjivg.tagaini.net"></path><circle class="stroke_order_diagram--path_start" cx="51.87" cy="19.89" r="4" transform="matrix(1,0,0,1,296,-4)"></circle><line class="stroke_order_diagram--guide_line" x1="450" x2="450" y1="1" y2="99"></line><line class="stroke_order_diagram--bounding_box" x1="499" x2="499" y1="1" y2="99"></line><path class="stroke_order_diagram--existing_path" d="M20.13,18.25c4.45,1.47,11.5,6.05,12.62,8.34" id="Ske26czhl10" kvg:type="㇔" transform="matrix(1,0,0,1,396,-4)" xmlns:kvg="http://kanjivg.tagaini.net"></path><path class="stroke_order_diagram--existing_path" d="M16,41.75c4.06,1.37,10.48,5.62,11.5,7.75" id="Ske26czhl11" kvg:type="㇔" transform="matrix(1,0,0,1,396,-4)" xmlns:kvg="http://kanjivg.tagaini.net"></path><path class="stroke_order_diagram--existing_path" d="M16.75,88.68c2.25,0.82,4.21-0.1,5.27-1.76c3.09-4.84,5.67-9.25,8.48-15.42" id="Ske26czhl12" kvg:type="㇀" transform="matrix(1,0,0,1,396,-4)" xmlns:kvg="http://kanjivg.tagaini.net"></path><path class="stroke_order_diagram--existing_path" d="M51.87,19.89c0.54,2.02,1.3,3.61,1.3,6.13c0,23.06,0.73,54.26-16.42,69.23" id="Ske26czhl13" kvg:type="㇒" transform="matrix(1,0,0,1,396,-4)" xmlns:kvg="http://kanjivg.tagaini.net"></path><path class="stroke_order_diagram--current_path" d="M52.96,22.32c2.86-0.72,17.56-3.61,19.85-4.33c2.29-0.72,4.77,0.72,4.2,4.35c-0.57,3.62-0.85,52.84-0.91,55.49c-0.19,8.69-1.18,14.55,10.23,14.73s10.45-2.9,10.45-10.39" id="kvg:06c4e-s5" kvg:type="㇈b" transform="matrix(1,0,0,1,396,-4)" xmlns:kvg="http://kanjivg.tagaini.net"></path><path class="stroke_order_diagram--current_path" d="M52.96,22.32c2.86-0.72,17.56-3.61,19.85-4.33c2.29-0.72,4.77,0.72,4.2,4.35c-0.57,3.62-0.85,52.84-0.91,55.49c-0.19,8.69-1.18,14.55,10.23,14.73s10.45-2.9,10.45-10.39" id="Ske26czhl15" kvg:type="㇈b" transform="matrix(1,0,0,1,396,-4)" xmlns:kvg="http://kanjivg.tagaini.net"></path><circle class="stroke_order_diagram--path_start" cx="52.96" cy="22.32" r="4" transform="matrix(1,0,0,1,396,-4)"></circle><line class="stroke_order_diagram--guide_line" x1="550" x2="550" y1="1" y2="99"></line><line class="stroke_order_diagram--bounding_box" x1="599" x2="599" y1="1" y2="99"></line><path class="stroke_order_diagram--existing_path" d="M20.13,18.25c4.45,1.47,11.5,6.05,12.62,8.34" id="Ske26czhl18" kvg:type="㇔" transform="matrix(1,0,0,1,496,-4)" xmlns:kvg="http://kanjivg.tagaini.net"></path><path class="stroke_order_diagram--existing_path" d="M16,41.75c4.06,1.37,10.48,5.62,11.5,7.75" id="Ske26czhl19" kvg:type="㇔" transform="matrix(1,0,0,1,496,-4)" xmlns:kvg="http://kanjivg.tagaini.net"></path><path class="stroke_order_diagram--existing_path" d="M16.75,88.68c2.25,0.82,4.21-0.1,5.27-1.76c3.09-4.84,5.67-9.25,8.48-15.42" id="Ske26czhl1a" kvg:type="㇀" transform="matrix(1,0,0,1,496,-4)" xmlns:kvg="http://kanjivg.tagaini.net"></path><path class="stroke_order_diagram--existing_path" d="M51.87,19.89c0.54,2.02,1.3,3.61,1.3,6.13c0,23.06,0.73,54.26-16.42,69.23" id="Ske26czhl1b" kvg:type="㇒" transform="matrix(1,0,0,1,496,-4)" xmlns:kvg="http://kanjivg.tagaini.net"></path><path class="stroke_order_diagram--existing_path" d="M52.96,22.32c2.86-0.72,17.56-3.61,19.85-4.33c2.29-0.72,4.77,0.72,4.2,4.35c-0.57,3.62-0.85,52.84-0.91,55.49c-0.19,8.69-1.18,14.55,10.23,14.73s10.45-2.9,10.45-10.39" id="Ske26czhl1c" kvg:type="㇈b" transform="matrix(1,0,0,1,496,-4)" xmlns:kvg="http://kanjivg.tagaini.net"></path><path class="stroke_order_diagram--current_path" d="M59.45,45.26c5.06,4.09,7.95,8.44,9.52,12.28" id="kvg:06c4e-s6" kvg:type="㇔" transform="matrix(1,0,0,1,496,-4)" xmlns:kvg="http://kanjivg.tagaini.net"></path><path class="stroke_order_diagram--current_path" d="M59.45,45.26c5.06,4.09,7.95,8.44,9.52,12.28" id="Ske26czhl1e" kvg:type="㇔" transform="matrix(1,0,0,1,496,-4)" xmlns:kvg="http://kanjivg.tagaini.net"></path><circle class="stroke_order_diagram--path_start" cx="59.45" cy="45.26" r="4" transform="matrix(1,0,0,1,496,-4)"></circle></svg>