<svg class="stroke_order_diagram--svg_container_for_5186629ad5dda79658000ae6" style="height: 100px; width: 700px;" viewbox="0 0 700 100"><desc>Created with Snap</desc><defs></defs><line class="stroke_order_diagram--bounding_box" x1="1" x2="699" y1="1" y2="1"></line><line class="stroke_order_diagram--bounding_box" x1="1" x2="1" y1="1" y2="99"></line><line class="stroke_order_diagram--bounding_box" x1="1" x2="699" y1="99" y2="99"></line><line class="stroke_order_diagram--guide_line" x1="0" x2="700" y1="50" y2="50"></line><line class="stroke_order_diagram--guide_line" x1="50" x2="50" y1="1" y2="99"></line><line class="stroke_order_diagram--bounding_box" x1="99" x2="99" y1="1" y2="99"></line><path class="stroke_order_diagram--current_path" d="M18.38,17c4.54,1.34,11.73,5.51,12.87,7.59" id="kvg:06c83-s1" kvg:type="㇔" transform="matrix(1,0,0,1,-4,-4)" xmlns:kvg="http://kanjivg.tagaini.net"></path><path class="stroke_order_diagram--current_path" d="M18.38,17c4.54,1.34,11.73,5.51,12.87,7.59" id="Ske2ac8qlg" kvg:type="㇔" transform="matrix(1,0,0,1,-4,-4)" xmlns:kvg="http://kanjivg.tagaini.net"></path><circle class="stroke_order_diagram--path_start" cx="18.38" cy="17" r="4" transform="matrix(1,0,0,1,-4,-4)"></circle><line class="stroke_order_diagram--guide_line" x1="150" x2="150" y1="1" y2="99"></line><line class="stroke_order_diagram--bounding_box" x1="199" x2="199" y1="1" y2="99"></line><path class="stroke_order_diagram--existing_path" d="M18.38,17c4.54,1.34,11.73,5.51,12.87,7.59" id="Ske2ac8qlj" kvg:type="㇔" transform="matrix(1,0,0,1,96,-4)" xmlns:kvg="http://kanjivg.tagaini.net"></path><path class="stroke_order_diagram--current_path" d="M13.75,40c3.97,1.32,10.26,5.44,11.25,7.5" id="kvg:06c83-s2" kvg:type="㇔" transform="matrix(1,0,0,1,96,-4)" xmlns:kvg="http://kanjivg.tagaini.net"></path><path class="stroke_order_diagram--current_path" d="M13.75,40c3.97,1.32,10.26,5.44,11.25,7.5" id="Ske2ac8qll" kvg:type="㇔" transform="matrix(1,0,0,1,96,-4)" xmlns:kvg="http://kanjivg.tagaini.net"></path><circle class="stroke_order_diagram--path_start" cx="13.75" cy="40" r="4" transform="matrix(1,0,0,1,96,-4)"></circle><line class="stroke_order_diagram--guide_line" x1="250" x2="250" y1="1" y2="99"></line><line class="stroke_order_diagram--bounding_box" x1="299" x2="299" y1="1" y2="99"></line><path class="stroke_order_diagram--existing_path" d="M18.38,17c4.54,1.34,11.73,5.51,12.87,7.59" id="Ske2ac8qlo" kvg:type="㇔" transform="matrix(1,0,0,1,196,-4)" xmlns:kvg="http://kanjivg.tagaini.net"></path><path class="stroke_order_diagram--existing_path" d="M13.75,40c3.97,1.32,10.26,5.44,11.25,7.5" id="Ske2ac8qlp" kvg:type="㇔" transform="matrix(1,0,0,1,196,-4)" xmlns:kvg="http://kanjivg.tagaini.net"></path><path class="stroke_order_diagram--current_path" d="M11.75,88.97c1.81,1.29,3.98,1.34,5.12-0.25c3.31-4.64,6.62-10.31,9.63-16.22" id="kvg:06c83-s3" kvg:type="㇀" transform="matrix(1,0,0,1,196,-4)" xmlns:kvg="http://kanjivg.tagaini.net"></path><path class="stroke_order_diagram--current_path" d="M11.75,88.97c1.81,1.29,3.98,1.34,5.12-0.25c3.31-4.64,6.62-10.31,9.63-16.22" id="Ske2ac8qlr" kvg:type="㇀" transform="matrix(1,0,0,1,196,-4)" xmlns:kvg="http://kanjivg.tagaini.net"></path><circle class="stroke_order_diagram--path_start" cx="11.75" cy="88.97" r="4" transform="matrix(1,0,0,1,196,-4)"></circle><line class="stroke_order_diagram--guide_line" x1="350" x2="350" y1="1" y2="99"></line><line class="stroke_order_diagram--bounding_box" x1="399" x2="399" y1="1" y2="99"></line><path class="stroke_order_diagram--existing_path" d="M18.38,17c4.54,1.34,11.73,5.51,12.87,7.59" id="Ske2ac8qlu" kvg:type="㇔" transform="matrix(1,0,0,1,296,-4)" xmlns:kvg="http://kanjivg.tagaini.net"></path><path class="stroke_order_diagram--existing_path" d="M13.75,40c3.97,1.32,10.26,5.44,11.25,7.5" id="Ske2ac8qlv" kvg:type="㇔" transform="matrix(1,0,0,1,296,-4)" xmlns:kvg="http://kanjivg.tagaini.net"></path><path class="stroke_order_diagram--existing_path" d="M11.75,88.97c1.81,1.29,3.98,1.34,5.12-0.25c3.31-4.64,6.62-10.31,9.63-16.22" id="Ske2ac8qlw" kvg:type="㇀" transform="matrix(1,0,0,1,296,-4)" xmlns:kvg="http://kanjivg.tagaini.net"></path><path class="stroke_order_diagram--current_path" d="M80.57,15.89c-0.07,0.86-0.15,1.73-0.71,2.26C75.75,22,59.25,30.75,42.51,34.5" id="kvg:06c83-s4" kvg:type="㇒" transform="matrix(1,0,0,1,296,-4)" xmlns:kvg="http://kanjivg.tagaini.net"></path><path class="stroke_order_diagram--current_path" d="M80.57,15.89c-0.07,0.86-0.15,1.73-0.71,2.26C75.75,22,59.25,30.75,42.51,34.5" id="Ske2ac8qly" kvg:type="㇒" transform="matrix(1,0,0,1,296,-4)" xmlns:kvg="http://kanjivg.tagaini.net"></path><circle class="stroke_order_diagram--path_start" cx="80.57" cy="15.89" r="4" transform="matrix(1,0,0,1,296,-4)"></circle><line class="stroke_order_diagram--guide_line" x1="450" x2="450" y1="1" y2="99"></line><line class="stroke_order_diagram--bounding_box" x1="499" x2="499" y1="1" y2="99"></line><path class="stroke_order_diagram--existing_path" d="M18.38,17c4.54,1.34,11.73,5.51,12.87,7.59" id="Ske2ac8ql11" kvg:type="㇔" transform="matrix(1,0,0,1,396,-4)" xmlns:kvg="http://kanjivg.tagaini.net"></path><path class="stroke_order_diagram--existing_path" d="M13.75,40c3.97,1.32,10.26,5.44,11.25,7.5" id="Ske2ac8ql12" kvg:type="㇔" transform="matrix(1,0,0,1,396,-4)" xmlns:kvg="http://kanjivg.tagaini.net"></path><path class="stroke_order_diagram--existing_path" d="M11.75,88.97c1.81,1.29,3.98,1.34,5.12-0.25c3.31-4.64,6.62-10.31,9.63-16.22" id="Ske2ac8ql13" kvg:type="㇀" transform="matrix(1,0,0,1,396,-4)" xmlns:kvg="http://kanjivg.tagaini.net"></path><path class="stroke_order_diagram--existing_path" d="M80.57,15.89c-0.07,0.86-0.15,1.73-0.71,2.26C75.75,22,59.25,30.75,42.51,34.5" id="Ske2ac8ql14" kvg:type="㇒" transform="matrix(1,0,0,1,396,-4)" xmlns:kvg="http://kanjivg.tagaini.net"></path><path class="stroke_order_diagram--current_path" d="M36.35,52.51c0.77,0.42,2.73,0.64,3.58,0.58c9.8-0.69,39.33-4.74,51.61-4.9c1.07-0.01,2.57,0.16,4.95,0.88" id="kvg:06c83-s5" kvg:type="㇐" transform="matrix(1,0,0,1,396,-4)" xmlns:kvg="http://kanjivg.tagaini.net"></path><path class="stroke_order_diagram--current_path" d="M36.35,52.51c0.77,0.42,2.73,0.64,3.58,0.58c9.8-0.69,39.33-4.74,51.61-4.9c1.07-0.01,2.57,0.16,4.95,0.88" id="Ske2ac8ql16" kvg:type="㇐" transform="matrix(1,0,0,1,396,-4)" xmlns:kvg="http://kanjivg.tagaini.net"></path><circle class="stroke_order_diagram--path_start" cx="36.35" cy="52.51" r="4" transform="matrix(1,0,0,1,396,-4)"></circle><line class="stroke_order_diagram--guide_line" x1="550" x2="550" y1="1" y2="99"></line><line class="stroke_order_diagram--bounding_box" x1="599" x2="599" y1="1" y2="99"></line><path class="stroke_order_diagram--existing_path" d="M18.38,17c4.54,1.34,11.73,5.51,12.87,7.59" id="Ske2ac8ql19" kvg:type="㇔" transform="matrix(1,0,0,1,496,-4)" xmlns:kvg="http://kanjivg.tagaini.net"></path><path class="stroke_order_diagram--existing_path" d="M13.75,40c3.97,1.32,10.26,5.44,11.25,7.5" id="Ske2ac8ql1a" kvg:type="㇔" transform="matrix(1,0,0,1,496,-4)" xmlns:kvg="http://kanjivg.tagaini.net"></path><path class="stroke_order_diagram--existing_path" d="M11.75,88.97c1.81,1.29,3.98,1.34,5.12-0.25c3.31-4.64,6.62-10.31,9.63-16.22" id="Ske2ac8ql1b" kvg:type="㇀" transform="matrix(1,0,0,1,496,-4)" xmlns:kvg="http://kanjivg.tagaini.net"></path><path class="stroke_order_diagram--existing_path" d="M80.57,15.89c-0.07,0.86-0.15,1.73-0.71,2.26C75.75,22,59.25,30.75,42.51,34.5" id="Ske2ac8ql1c" kvg:type="㇒" transform="matrix(1,0,0,1,496,-4)" xmlns:kvg="http://kanjivg.tagaini.net"></path><path class="stroke_order_diagram--existing_path" d="M36.35,52.51c0.77,0.42,2.73,0.64,3.58,0.58c9.8-0.69,39.33-4.74,51.61-4.9c1.07-0.01,2.57,0.16,4.95,0.88" id="Ske2ac8ql1d" kvg:type="㇐" transform="matrix(1,0,0,1,496,-4)" xmlns:kvg="http://kanjivg.tagaini.net"></path><path class="stroke_order_diagram--current_path" d="M63.66,30.9c0.47,0.88,0.72,1.89,0.71,3.79C64.14,67.56,52.75,84.9,34,95" id="kvg:06c83-s6" kvg:type="㇒" transform="matrix(1,0,0,1,496,-4)" xmlns:kvg="http://kanjivg.tagaini.net"></path><path class="stroke_order_diagram--current_path" d="M63.66,30.9c0.47,0.88,0.72,1.89,0.71,3.79C64.14,67.56,52.75,84.9,34,95" id="Ske2ac8ql1f" kvg:type="㇒" transform="matrix(1,0,0,1,496,-4)" xmlns:kvg="http://kanjivg.tagaini.net"></path><circle class="stroke_order_diagram--path_start" cx="63.66" cy="30.9" r="4" transform="matrix(1,0,0,1,496,-4)"></circle><line class="stroke_order_diagram--guide_line" x1="650" x2="650" y1="1" y2="99"></line><line class="stroke_order_diagram--bounding_box" x1="699" x2="699" y1="1" y2="99"></line><path class="stroke_order_diagram--existing_path" d="M18.38,17c4.54,1.34,11.73,5.51,12.87,7.59" id="Ske2ac8ql1i" kvg:type="㇔" transform="matrix(1,0,0,1,596,-4)" xmlns:kvg="http://kanjivg.tagaini.net"></path><path class="stroke_order_diagram--existing_path" d="M13.75,40c3.97,1.32,10.26,5.44,11.25,7.5" id="Ske2ac8ql1j" kvg:type="㇔" transform="matrix(1,0,0,1,596,-4)" xmlns:kvg="http://kanjivg.tagaini.net"></path><path class="stroke_order_diagram--existing_path" d="M11.75,88.97c1.81,1.29,3.98,1.34,5.12-0.25c3.31-4.64,6.62-10.31,9.63-16.22" id="Ske2ac8ql1k" kvg:type="㇀" transform="matrix(1,0,0,1,596,-4)" xmlns:kvg="http://kanjivg.tagaini.net"></path><path class="stroke_order_diagram--existing_path" d="M80.57,15.89c-0.07,0.86-0.15,1.73-0.71,2.26C75.75,22,59.25,30.75,42.51,34.5" id="Ske2ac8ql1l" kvg:type="㇒" transform="matrix(1,0,0,1,596,-4)" xmlns:kvg="http://kanjivg.tagaini.net"></path><path class="stroke_order_diagram--existing_path" d="M36.35,52.51c0.77,0.42,2.73,0.64,3.58,0.58c9.8-0.69,39.33-4.74,51.61-4.9c1.07-0.01,2.57,0.16,4.95,0.88" id="Ske2ac8ql1m" kvg:type="㇐" transform="matrix(1,0,0,1,596,-4)" xmlns:kvg="http://kanjivg.tagaini.net"></path><path class="stroke_order_diagram--existing_path" d="M63.66,30.9c0.47,0.88,0.72,1.89,0.71,3.79C64.14,67.56,52.75,84.9,34,95" id="Ske2ac8ql1n" kvg:type="㇒" transform="matrix(1,0,0,1,596,-4)" xmlns:kvg="http://kanjivg.tagaini.net"></path><path class="stroke_order_diagram--current_path" d="M64.67,52.9c6.83,12.35,19.46,30.07,27.1,36.39c2.33,1.92,2.98,2.36,3.98,2.56" id="kvg:06c83-s7" kvg:type="㇏" transform="matrix(1,0,0,1,596,-4)" xmlns:kvg="http://kanjivg.tagaini.net"></path><path class="stroke_order_diagram--current_path" d="M64.67,52.9c6.83,12.35,19.46,30.07,27.1,36.39c2.33,1.92,2.98,2.36,3.98,2.56" id="Ske2ac8ql1p" kvg:type="㇏" transform="matrix(1,0,0,1,596,-4)" xmlns:kvg="http://kanjivg.tagaini.net"></path><circle class="stroke_order_diagram--path_start" cx="64.67" cy="52.9" r="4" transform="matrix(1,0,0,1,596,-4)"></circle></svg>