<svg class="stroke_order_diagram--svg_container_for_518662aed5dda796580010e3" style="height: 100px; width: 1100px;" viewbox="0 0 1100 100"><desc>Created with Snap</desc><defs></defs><line class="stroke_order_diagram--bounding_box" x1="1" x2="1099" y1="1" y2="1"></line><line class="stroke_order_diagram--bounding_box" x1="1" x2="1" y1="1" y2="99"></line><line class="stroke_order_diagram--bounding_box" x1="1" x2="1099" y1="99" y2="99"></line><line class="stroke_order_diagram--guide_line" x1="0" x2="1100" y1="50" y2="50"></line><line class="stroke_order_diagram--guide_line" x1="50" x2="50" y1="1" y2="99"></line><line class="stroke_order_diagram--bounding_box" x1="99" x2="99" y1="1" y2="99"></line><path class="stroke_order_diagram--current_path" d="M17.13,14c4.28,1.87,11.05,7.68,12.12,10.59" id="kvg:06dd9-s1" kvg:type="㇔" transform="matrix(1,0,0,1,-4,-4)" xmlns:kvg="http://kanjivg.tagaini.net"></path><path class="stroke_order_diagram--current_path" d="M17.13,14c4.28,1.87,11.05,7.68,12.12,10.59" id="Ske2otjijk" kvg:type="㇔" transform="matrix(1,0,0,1,-4,-4)" xmlns:kvg="http://kanjivg.tagaini.net"></path><circle class="stroke_order_diagram--path_start" cx="17.13" cy="14" r="4" transform="matrix(1,0,0,1,-4,-4)"></circle><line class="stroke_order_diagram--guide_line" x1="150" x2="150" y1="1" y2="99"></line><line class="stroke_order_diagram--bounding_box" x1="199" x2="199" y1="1" y2="99"></line><path class="stroke_order_diagram--existing_path" d="M17.13,14c4.28,1.87,11.05,7.68,12.12,10.59" id="Ske2otjijn" kvg:type="㇔" transform="matrix(1,0,0,1,96,-4)" xmlns:kvg="http://kanjivg.tagaini.net"></path><path class="stroke_order_diagram--current_path" d="M12.25,41.5c4.68,1.85,12.08,7.62,13.25,10.5" id="kvg:06dd9-s2" kvg:type="㇔" transform="matrix(1,0,0,1,96,-4)" xmlns:kvg="http://kanjivg.tagaini.net"></path><path class="stroke_order_diagram--current_path" d="M12.25,41.5c4.68,1.85,12.08,7.62,13.25,10.5" id="Ske2otjijp" kvg:type="㇔" transform="matrix(1,0,0,1,96,-4)" xmlns:kvg="http://kanjivg.tagaini.net"></path><circle class="stroke_order_diagram--path_start" cx="12.25" cy="41.5" r="4" transform="matrix(1,0,0,1,96,-4)"></circle><line class="stroke_order_diagram--guide_line" x1="250" x2="250" y1="1" y2="99"></line><line class="stroke_order_diagram--bounding_box" x1="299" x2="299" y1="1" y2="99"></line><path class="stroke_order_diagram--existing_path" d="M17.13,14c4.28,1.87,11.05,7.68,12.12,10.59" id="Ske2otjijs" kvg:type="㇔" transform="matrix(1,0,0,1,196,-4)" xmlns:kvg="http://kanjivg.tagaini.net"></path><path class="stroke_order_diagram--existing_path" d="M12.25,41.5c4.68,1.85,12.08,7.62,13.25,10.5" id="Ske2otjijt" kvg:type="㇔" transform="matrix(1,0,0,1,196,-4)" xmlns:kvg="http://kanjivg.tagaini.net"></path><path class="stroke_order_diagram--current_path" d="M14.25,87.73c1.71,1.27,3.78,1.32,4.86-0.25c3.14-4.57,9.79-15.66,12.64-21.49" id="kvg:06dd9-s3" kvg:type="㇀" transform="matrix(1,0,0,1,196,-4)" xmlns:kvg="http://kanjivg.tagaini.net"></path><path class="stroke_order_diagram--current_path" d="M14.25,87.73c1.71,1.27,3.78,1.32,4.86-0.25c3.14-4.57,9.79-15.66,12.64-21.49" id="Ske2otjijv" kvg:type="㇀" transform="matrix(1,0,0,1,196,-4)" xmlns:kvg="http://kanjivg.tagaini.net"></path><circle class="stroke_order_diagram--path_start" cx="14.25" cy="87.73" r="4" transform="matrix(1,0,0,1,196,-4)"></circle><line class="stroke_order_diagram--guide_line" x1="350" x2="350" y1="1" y2="99"></line><line class="stroke_order_diagram--bounding_box" x1="399" x2="399" y1="1" y2="99"></line><path class="stroke_order_diagram--existing_path" d="M17.13,14c4.28,1.87,11.05,7.68,12.12,10.59" id="Ske2otjijy" kvg:type="㇔" transform="matrix(1,0,0,1,296,-4)" xmlns:kvg="http://kanjivg.tagaini.net"></path><path class="stroke_order_diagram--existing_path" d="M12.25,41.5c4.68,1.85,12.08,7.62,13.25,10.5" id="Ske2otjijz" kvg:type="㇔" transform="matrix(1,0,0,1,296,-4)" xmlns:kvg="http://kanjivg.tagaini.net"></path><path class="stroke_order_diagram--existing_path" d="M14.25,87.73c1.71,1.27,3.78,1.32,4.86-0.25c3.14-4.57,9.79-15.66,12.64-21.49" id="Ske2otjij10" kvg:type="㇀" transform="matrix(1,0,0,1,296,-4)" xmlns:kvg="http://kanjivg.tagaini.net"></path><path class="stroke_order_diagram--current_path" d="M62.63,11c1.09,0.38,2.65,2.27,2.63,3.38c-0.08,3.5-0.08,8.02-0.08,11.2" id="kvg:06dd9-s4" kvg:type="㇑a" transform="matrix(1,0,0,1,296,-4)" xmlns:kvg="http://kanjivg.tagaini.net"></path><path class="stroke_order_diagram--current_path" d="M62.63,11c1.09,0.38,2.65,2.27,2.63,3.38c-0.08,3.5-0.08,8.02-0.08,11.2" id="Ske2otjij12" kvg:type="㇑a" transform="matrix(1,0,0,1,296,-4)" xmlns:kvg="http://kanjivg.tagaini.net"></path><circle class="stroke_order_diagram--path_start" cx="62.63" cy="11" r="4" transform="matrix(1,0,0,1,296,-4)"></circle><line class="stroke_order_diagram--guide_line" x1="450" x2="450" y1="1" y2="99"></line><line class="stroke_order_diagram--bounding_box" x1="499" x2="499" y1="1" y2="99"></line><path class="stroke_order_diagram--existing_path" d="M17.13,14c4.28,1.87,11.05,7.68,12.12,10.59" id="Ske2otjij15" kvg:type="㇔" transform="matrix(1,0,0,1,396,-4)" xmlns:kvg="http://kanjivg.tagaini.net"></path><path class="stroke_order_diagram--existing_path" d="M12.25,41.5c4.68,1.85,12.08,7.62,13.25,10.5" id="Ske2otjij16" kvg:type="㇔" transform="matrix(1,0,0,1,396,-4)" xmlns:kvg="http://kanjivg.tagaini.net"></path><path class="stroke_order_diagram--existing_path" d="M14.25,87.73c1.71,1.27,3.78,1.32,4.86-0.25c3.14-4.57,9.79-15.66,12.64-21.49" id="Ske2otjij17" kvg:type="㇀" transform="matrix(1,0,0,1,396,-4)" xmlns:kvg="http://kanjivg.tagaini.net"></path><path class="stroke_order_diagram--existing_path" d="M62.63,11c1.09,0.38,2.65,2.27,2.63,3.38c-0.08,3.5-0.08,8.02-0.08,11.2" id="Ske2otjij18" kvg:type="㇑a" transform="matrix(1,0,0,1,396,-4)" xmlns:kvg="http://kanjivg.tagaini.net"></path><path class="stroke_order_diagram--current_path" d="M41.55,26.06c0,3.21-2.59,13.56-3.76,15.7" id="kvg:06dd9-s5" kvg:type="㇔" transform="matrix(1,0,0,1,396,-4)" xmlns:kvg="http://kanjivg.tagaini.net"></path><path class="stroke_order_diagram--current_path" d="M41.55,26.06c0,3.21-2.59,13.56-3.76,15.7" id="Ske2otjij1a" kvg:type="㇔" transform="matrix(1,0,0,1,396,-4)" xmlns:kvg="http://kanjivg.tagaini.net"></path><circle class="stroke_order_diagram--path_start" cx="41.55" cy="26.06" r="4" transform="matrix(1,0,0,1,396,-4)"></circle><line class="stroke_order_diagram--guide_line" x1="550" x2="550" y1="1" y2="99"></line><line class="stroke_order_diagram--bounding_box" x1="599" x2="599" y1="1" y2="99"></line><path class="stroke_order_diagram--existing_path" d="M17.13,14c4.28,1.87,11.05,7.68,12.12,10.59" id="Ske2otjij1d" kvg:type="㇔" transform="matrix(1,0,0,1,496,-4)" xmlns:kvg="http://kanjivg.tagaini.net"></path><path class="stroke_order_diagram--existing_path" d="M12.25,41.5c4.68,1.85,12.08,7.62,13.25,10.5" id="Ske2otjij1e" kvg:type="㇔" transform="matrix(1,0,0,1,496,-4)" xmlns:kvg="http://kanjivg.tagaini.net"></path><path class="stroke_order_diagram--existing_path" d="M14.25,87.73c1.71,1.27,3.78,1.32,4.86-0.25c3.14-4.57,9.79-15.66,12.64-21.49" id="Ske2otjij1f" kvg:type="㇀" transform="matrix(1,0,0,1,496,-4)" xmlns:kvg="http://kanjivg.tagaini.net"></path><path class="stroke_order_diagram--existing_path" d="M62.63,11c1.09,0.38,2.65,2.27,2.63,3.38c-0.08,3.5-0.08,8.02-0.08,11.2" id="Ske2otjij1g" kvg:type="㇑a" transform="matrix(1,0,0,1,496,-4)" xmlns:kvg="http://kanjivg.tagaini.net"></path><path class="stroke_order_diagram--existing_path" d="M41.55,26.06c0,3.21-2.59,13.56-3.76,15.7" id="Ske2otjij1h" kvg:type="㇔" transform="matrix(1,0,0,1,496,-4)" xmlns:kvg="http://kanjivg.tagaini.net"></path><path class="stroke_order_diagram--current_path" d="M41.69,27.78c7.89-0.89,40.72-2.56,47.11-2.89c10-0.53,1.62,6.92-0.87,8.82" id="kvg:06dd9-s6" kvg:type="㇖b" transform="matrix(1,0,0,1,496,-4)" xmlns:kvg="http://kanjivg.tagaini.net"></path><path class="stroke_order_diagram--current_path" d="M41.69,27.78c7.89-0.89,40.72-2.56,47.11-2.89c10-0.53,1.62,6.92-0.87,8.82" id="Ske2otjij1j" kvg:type="㇖b" transform="matrix(1,0,0,1,496,-4)" xmlns:kvg="http://kanjivg.tagaini.net"></path><circle class="stroke_order_diagram--path_start" cx="41.69" cy="27.78" r="4" transform="matrix(1,0,0,1,496,-4)"></circle><line class="stroke_order_diagram--guide_line" x1="650" x2="650" y1="1" y2="99"></line><line class="stroke_order_diagram--bounding_box" x1="699" x2="699" y1="1" y2="99"></line><path class="stroke_order_diagram--existing_path" d="M17.13,14c4.28,1.87,11.05,7.68,12.12,10.59" id="Ske2otjij1m" kvg:type="㇔" transform="matrix(1,0,0,1,596,-4)" xmlns:kvg="http://kanjivg.tagaini.net"></path><path class="stroke_order_diagram--existing_path" d="M12.25,41.5c4.68,1.85,12.08,7.62,13.25,10.5" id="Ske2otjij1n" kvg:type="㇔" transform="matrix(1,0,0,1,596,-4)" xmlns:kvg="http://kanjivg.tagaini.net"></path><path class="stroke_order_diagram--existing_path" d="M14.25,87.73c1.71,1.27,3.78,1.32,4.86-0.25c3.14-4.57,9.79-15.66,12.64-21.49" id="Ske2otjij1o" kvg:type="㇀" transform="matrix(1,0,0,1,596,-4)" xmlns:kvg="http://kanjivg.tagaini.net"></path><path class="stroke_order_diagram--existing_path" d="M62.63,11c1.09,0.38,2.65,2.27,2.63,3.38c-0.08,3.5-0.08,8.02-0.08,11.2" id="Ske2otjij1p" kvg:type="㇑a" transform="matrix(1,0,0,1,596,-4)" xmlns:kvg="http://kanjivg.tagaini.net"></path><path class="stroke_order_diagram--existing_path" d="M41.55,26.06c0,3.21-2.59,13.56-3.76,15.7" id="Ske2otjij1q" kvg:type="㇔" transform="matrix(1,0,0,1,596,-4)" xmlns:kvg="http://kanjivg.tagaini.net"></path><path class="stroke_order_diagram--existing_path" d="M41.69,27.78c7.89-0.89,40.72-2.56,47.11-2.89c10-0.53,1.62,6.92-0.87,8.82" id="Ske2otjij1r" kvg:type="㇖b" transform="matrix(1,0,0,1,596,-4)" xmlns:kvg="http://kanjivg.tagaini.net"></path><path class="stroke_order_diagram--current_path" d="M48.85,40.2c0.74,0.22,2.09,0.28,2.83,0.22c4.7-0.38,21.39-1.78,26.37-1.84c1.23-0.02,1.97,0.1,2.58,0.22" id="kvg:06dd9-s7" kvg:type="㇐" transform="matrix(1,0,0,1,596,-4)" xmlns:kvg="http://kanjivg.tagaini.net"></path><path class="stroke_order_diagram--current_path" d="M48.85,40.2c0.74,0.22,2.09,0.28,2.83,0.22c4.7-0.38,21.39-1.78,26.37-1.84c1.23-0.02,1.97,0.1,2.58,0.22" id="Ske2otjij1t" kvg:type="㇐" transform="matrix(1,0,0,1,596,-4)" xmlns:kvg="http://kanjivg.tagaini.net"></path><circle class="stroke_order_diagram--path_start" cx="48.85" cy="40.2" r="4" transform="matrix(1,0,0,1,596,-4)"></circle><line class="stroke_order_diagram--guide_line" x1="750" x2="750" y1="1" y2="99"></line><line class="stroke_order_diagram--bounding_box" x1="799" x2="799" y1="1" y2="99"></line><path class="stroke_order_diagram--existing_path" d="M17.13,14c4.28,1.87,11.05,7.68,12.12,10.59" id="Ske2otjij1w" kvg:type="㇔" transform="matrix(1,0,0,1,696,-4)" xmlns:kvg="http://kanjivg.tagaini.net"></path><path class="stroke_order_diagram--existing_path" d="M12.25,41.5c4.68,1.85,12.08,7.62,13.25,10.5" id="Ske2otjij1x" kvg:type="㇔" transform="matrix(1,0,0,1,696,-4)" xmlns:kvg="http://kanjivg.tagaini.net"></path><path class="stroke_order_diagram--existing_path" d="M14.25,87.73c1.71,1.27,3.78,1.32,4.86-0.25c3.14-4.57,9.79-15.66,12.64-21.49" id="Ske2otjij1y" kvg:type="㇀" transform="matrix(1,0,0,1,696,-4)" xmlns:kvg="http://kanjivg.tagaini.net"></path><path class="stroke_order_diagram--existing_path" d="M62.63,11c1.09,0.38,2.65,2.27,2.63,3.38c-0.08,3.5-0.08,8.02-0.08,11.2" id="Ske2otjij1z" kvg:type="㇑a" transform="matrix(1,0,0,1,696,-4)" xmlns:kvg="http://kanjivg.tagaini.net"></path><path class="stroke_order_diagram--existing_path" d="M41.55,26.06c0,3.21-2.59,13.56-3.76,15.7" id="Ske2otjij20" kvg:type="㇔" transform="matrix(1,0,0,1,696,-4)" xmlns:kvg="http://kanjivg.tagaini.net"></path><path class="stroke_order_diagram--existing_path" d="M41.69,27.78c7.89-0.89,40.72-2.56,47.11-2.89c10-0.53,1.62,6.92-0.87,8.82" id="Ske2otjij21" kvg:type="㇖b" transform="matrix(1,0,0,1,696,-4)" xmlns:kvg="http://kanjivg.tagaini.net"></path><path class="stroke_order_diagram--existing_path" d="M48.85,40.2c0.74,0.22,2.09,0.28,2.83,0.22c4.7-0.38,21.39-1.78,26.37-1.84c1.23-0.02,1.97,0.1,2.58,0.22" id="Ske2otjij22" kvg:type="㇐" transform="matrix(1,0,0,1,696,-4)" xmlns:kvg="http://kanjivg.tagaini.net"></path><path class="stroke_order_diagram--current_path" d="M39.08,57.53c1.2,0.43,3.4,0.51,4.6,0.43c9.06-0.63,30.62-2.45,45.24-2.47c2,0,3.2,0.2,4.2,0.42" id="kvg:06dd9-s8" kvg:type="㇐" transform="matrix(1,0,0,1,696,-4)" xmlns:kvg="http://kanjivg.tagaini.net"></path><path class="stroke_order_diagram--current_path" d="M39.08,57.53c1.2,0.43,3.4,0.51,4.6,0.43c9.06-0.63,30.62-2.45,45.24-2.47c2,0,3.2,0.2,4.2,0.42" id="Ske2otjij24" kvg:type="㇐" transform="matrix(1,0,0,1,696,-4)" xmlns:kvg="http://kanjivg.tagaini.net"></path><circle class="stroke_order_diagram--path_start" cx="39.08" cy="57.53" r="4" transform="matrix(1,0,0,1,696,-4)"></circle><line class="stroke_order_diagram--guide_line" x1="850" x2="850" y1="1" y2="99"></line><line class="stroke_order_diagram--bounding_box" x1="899" x2="899" y1="1" y2="99"></line><path class="stroke_order_diagram--existing_path" d="M17.13,14c4.28,1.87,11.05,7.68,12.12,10.59" id="Ske2otjij27" kvg:type="㇔" transform="matrix(1,0,0,1,796,-4)" xmlns:kvg="http://kanjivg.tagaini.net"></path><path class="stroke_order_diagram--existing_path" d="M12.25,41.5c4.68,1.85,12.08,7.62,13.25,10.5" id="Ske2otjij28" kvg:type="㇔" transform="matrix(1,0,0,1,796,-4)" xmlns:kvg="http://kanjivg.tagaini.net"></path><path class="stroke_order_diagram--existing_path" d="M14.25,87.73c1.71,1.27,3.78,1.32,4.86-0.25c3.14-4.57,9.79-15.66,12.64-21.49" id="Ske2otjij29" kvg:type="㇀" transform="matrix(1,0,0,1,796,-4)" xmlns:kvg="http://kanjivg.tagaini.net"></path><path class="stroke_order_diagram--existing_path" d="M62.63,11c1.09,0.38,2.65,2.27,2.63,3.38c-0.08,3.5-0.08,8.02-0.08,11.2" id="Ske2otjij2a" kvg:type="㇑a" transform="matrix(1,0,0,1,796,-4)" xmlns:kvg="http://kanjivg.tagaini.net"></path><path class="stroke_order_diagram--existing_path" d="M41.55,26.06c0,3.21-2.59,13.56-3.76,15.7" id="Ske2otjij2b" kvg:type="㇔" transform="matrix(1,0,0,1,796,-4)" xmlns:kvg="http://kanjivg.tagaini.net"></path><path class="stroke_order_diagram--existing_path" d="M41.69,27.78c7.89-0.89,40.72-2.56,47.11-2.89c10-0.53,1.62,6.92-0.87,8.82" id="Ske2otjij2c" kvg:type="㇖b" transform="matrix(1,0,0,1,796,-4)" xmlns:kvg="http://kanjivg.tagaini.net"></path><path class="stroke_order_diagram--existing_path" d="M48.85,40.2c0.74,0.22,2.09,0.28,2.83,0.22c4.7-0.38,21.39-1.78,26.37-1.84c1.23-0.02,1.97,0.1,2.58,0.22" id="Ske2otjij2d" kvg:type="㇐" transform="matrix(1,0,0,1,796,-4)" xmlns:kvg="http://kanjivg.tagaini.net"></path><path class="stroke_order_diagram--existing_path" d="M39.08,57.53c1.2,0.43,3.4,0.51,4.6,0.43c9.06-0.63,30.62-2.45,45.24-2.47c2,0,3.2,0.2,4.2,0.42" id="Ske2otjij2e" kvg:type="㇐" transform="matrix(1,0,0,1,796,-4)" xmlns:kvg="http://kanjivg.tagaini.net"></path><path class="stroke_order_diagram--current_path" d="M64.86,59.59c0.07,0.37,1.36,1.92,1.42,4.27c0.31,11.26,0.25,24.55,0.25,28.39c0,8.15-5,1.93-8.24-0.81" id="kvg:06dd9-s9" kvg:type="㇑" transform="matrix(1,0,0,1,796,-4)" xmlns:kvg="http://kanjivg.tagaini.net"></path><path class="stroke_order_diagram--current_path" d="M64.86,59.59c0.07,0.37,1.36,1.92,1.42,4.27c0.31,11.26,0.25,24.55,0.25,28.39c0,8.15-5,1.93-8.24-0.81" id="Ske2otjij2g" kvg:type="㇑" transform="matrix(1,0,0,1,796,-4)" xmlns:kvg="http://kanjivg.tagaini.net"></path><circle class="stroke_order_diagram--path_start" cx="64.86" cy="59.59" r="4" transform="matrix(1,0,0,1,796,-4)"></circle><line class="stroke_order_diagram--guide_line" x1="950" x2="950" y1="1" y2="99"></line><line class="stroke_order_diagram--bounding_box" x1="999" x2="999" y1="1" y2="99"></line><path class="stroke_order_diagram--existing_path" d="M17.13,14c4.28,1.87,11.05,7.68,12.12,10.59" id="Ske2otjij2j" kvg:type="㇔" transform="matrix(1,0,0,1,896,-4)" xmlns:kvg="http://kanjivg.tagaini.net"></path><path class="stroke_order_diagram--existing_path" d="M12.25,41.5c4.68,1.85,12.08,7.62,13.25,10.5" id="Ske2otjij2k" kvg:type="㇔" transform="matrix(1,0,0,1,896,-4)" xmlns:kvg="http://kanjivg.tagaini.net"></path><path class="stroke_order_diagram--existing_path" d="M14.25,87.73c1.71,1.27,3.78,1.32,4.86-0.25c3.14-4.57,9.79-15.66,12.64-21.49" id="Ske2otjij2l" kvg:type="㇀" transform="matrix(1,0,0,1,896,-4)" xmlns:kvg="http://kanjivg.tagaini.net"></path><path class="stroke_order_diagram--existing_path" d="M62.63,11c1.09,0.38,2.65,2.27,2.63,3.38c-0.08,3.5-0.08,8.02-0.08,11.2" id="Ske2otjij2m" kvg:type="㇑a" transform="matrix(1,0,0,1,896,-4)" xmlns:kvg="http://kanjivg.tagaini.net"></path><path class="stroke_order_diagram--existing_path" d="M41.55,26.06c0,3.21-2.59,13.56-3.76,15.7" id="Ske2otjij2n" kvg:type="㇔" transform="matrix(1,0,0,1,896,-4)" xmlns:kvg="http://kanjivg.tagaini.net"></path><path class="stroke_order_diagram--existing_path" d="M41.69,27.78c7.89-0.89,40.72-2.56,47.11-2.89c10-0.53,1.62,6.92-0.87,8.82" id="Ske2otjij2o" kvg:type="㇖b" transform="matrix(1,0,0,1,896,-4)" xmlns:kvg="http://kanjivg.tagaini.net"></path><path class="stroke_order_diagram--existing_path" d="M48.85,40.2c0.74,0.22,2.09,0.28,2.83,0.22c4.7-0.38,21.39-1.78,26.37-1.84c1.23-0.02,1.97,0.1,2.58,0.22" id="Ske2otjij2p" kvg:type="㇐" transform="matrix(1,0,0,1,896,-4)" xmlns:kvg="http://kanjivg.tagaini.net"></path><path class="stroke_order_diagram--existing_path" d="M39.08,57.53c1.2,0.43,3.4,0.51,4.6,0.43c9.06-0.63,30.62-2.45,45.24-2.47c2,0,3.2,0.2,4.2,0.42" id="Ske2otjij2q" kvg:type="㇐" transform="matrix(1,0,0,1,896,-4)" xmlns:kvg="http://kanjivg.tagaini.net"></path><path class="stroke_order_diagram--existing_path" d="M64.86,59.59c0.07,0.37,1.36,1.92,1.42,4.27c0.31,11.26,0.25,24.55,0.25,28.39c0,8.15-5,1.93-8.24-0.81" id="Ske2otjij2r" kvg:type="㇑" transform="matrix(1,0,0,1,896,-4)" xmlns:kvg="http://kanjivg.tagaini.net"></path><path class="stroke_order_diagram--current_path" d="M51.48,69.17c0.04,0.56,0.09,1.44-0.09,2.24c-1.1,4.72-9.07,13.94-17.71,20.28" id="kvg:06dd9-s10" kvg:type="㇒" transform="matrix(1,0,0,1,896,-4)" xmlns:kvg="http://kanjivg.tagaini.net"></path><path class="stroke_order_diagram--current_path" d="M51.48,69.17c0.04,0.56,0.09,1.44-0.09,2.24c-1.1,4.72-9.07,13.94-17.71,20.28" id="Ske2otjij2t" kvg:type="㇒" transform="matrix(1,0,0,1,896,-4)" xmlns:kvg="http://kanjivg.tagaini.net"></path><circle class="stroke_order_diagram--path_start" cx="51.48" cy="69.17" r="4" transform="matrix(1,0,0,1,896,-4)"></circle><line class="stroke_order_diagram--guide_line" x1="1050" x2="1050" y1="1" y2="99"></line><line class="stroke_order_diagram--bounding_box" x1="1099" x2="1099" y1="1" y2="99"></line><path class="stroke_order_diagram--existing_path" d="M17.13,14c4.28,1.87,11.05,7.68,12.12,10.59" id="Ske2otjij2w" kvg:type="㇔" transform="matrix(1,0,0,1,996,-4)" xmlns:kvg="http://kanjivg.tagaini.net"></path><path class="stroke_order_diagram--existing_path" d="M12.25,41.5c4.68,1.85,12.08,7.62,13.25,10.5" id="Ske2otjij2x" kvg:type="㇔" transform="matrix(1,0,0,1,996,-4)" xmlns:kvg="http://kanjivg.tagaini.net"></path><path class="stroke_order_diagram--existing_path" d="M14.25,87.73c1.71,1.27,3.78,1.32,4.86-0.25c3.14-4.57,9.79-15.66,12.64-21.49" id="Ske2otjij2y" kvg:type="㇀" transform="matrix(1,0,0,1,996,-4)" xmlns:kvg="http://kanjivg.tagaini.net"></path><path class="stroke_order_diagram--existing_path" d="M62.63,11c1.09,0.38,2.65,2.27,2.63,3.38c-0.08,3.5-0.08,8.02-0.08,11.2" id="Ske2otjij2z" kvg:type="㇑a" transform="matrix(1,0,0,1,996,-4)" xmlns:kvg="http://kanjivg.tagaini.net"></path><path class="stroke_order_diagram--existing_path" d="M41.55,26.06c0,3.21-2.59,13.56-3.76,15.7" id="Ske2otjij30" kvg:type="㇔" transform="matrix(1,0,0,1,996,-4)" xmlns:kvg="http://kanjivg.tagaini.net"></path><path class="stroke_order_diagram--existing_path" d="M41.69,27.78c7.89-0.89,40.72-2.56,47.11-2.89c10-0.53,1.62,6.92-0.87,8.82" id="Ske2otjij31" kvg:type="㇖b" transform="matrix(1,0,0,1,996,-4)" xmlns:kvg="http://kanjivg.tagaini.net"></path><path class="stroke_order_diagram--existing_path" d="M48.85,40.2c0.74,0.22,2.09,0.28,2.83,0.22c4.7-0.38,21.39-1.78,26.37-1.84c1.23-0.02,1.97,0.1,2.58,0.22" id="Ske2otjij32" kvg:type="㇐" transform="matrix(1,0,0,1,996,-4)" xmlns:kvg="http://kanjivg.tagaini.net"></path><path class="stroke_order_diagram--existing_path" d="M39.08,57.53c1.2,0.43,3.4,0.51,4.6,0.43c9.06-0.63,30.62-2.45,45.24-2.47c2,0,3.2,0.2,4.2,0.42" id="Ske2otjij33" kvg:type="㇐" transform="matrix(1,0,0,1,996,-4)" xmlns:kvg="http://kanjivg.tagaini.net"></path><path class="stroke_order_diagram--existing_path" d="M64.86,59.59c0.07,0.37,1.36,1.92,1.42,4.27c0.31,11.26,0.25,24.55,0.25,28.39c0,8.15-5,1.93-8.24-0.81" id="Ske2otjij34" kvg:type="㇑" transform="matrix(1,0,0,1,996,-4)" xmlns:kvg="http://kanjivg.tagaini.net"></path><path class="stroke_order_diagram--existing_path" d="M51.48,69.17c0.04,0.56,0.09,1.44-0.09,2.24c-1.1,4.72-9.07,13.94-17.71,20.28" id="Ske2otjij35" kvg:type="㇒" transform="matrix(1,0,0,1,996,-4)" xmlns:kvg="http://kanjivg.tagaini.net"></path><path class="stroke_order_diagram--current_path" d="M77.15,69.43c5.72,3.3,15.06,13.21,16.49,18.34" id="kvg:06dd9-s11" kvg:type="㇔" transform="matrix(1,0,0,1,996,-4)" xmlns:kvg="http://kanjivg.tagaini.net"></path><path class="stroke_order_diagram--current_path" d="M77.15,69.43c5.72,3.3,15.06,13.21,16.49,18.34" id="Ske2otjij37" kvg:type="㇔" transform="matrix(1,0,0,1,996,-4)" xmlns:kvg="http://kanjivg.tagaini.net"></path><circle class="stroke_order_diagram--path_start" cx="77.15" cy="69.43" r="4" transform="matrix(1,0,0,1,996,-4)"></circle></svg>