<svg class="stroke_order_diagram--svg_container_for_5186629cd5dda79658000b5e" style="height: 100px; width: 1400px;" viewbox="0 0 1400 100"><desc>Created with Snap</desc><defs></defs><line class="stroke_order_diagram--bounding_box" x1="1" x2="1399" y1="1" y2="1"></line><line class="stroke_order_diagram--bounding_box" x1="1" x2="1" y1="1" y2="99"></line><line class="stroke_order_diagram--bounding_box" x1="1" x2="1399" y1="99" y2="99"></line><line class="stroke_order_diagram--guide_line" x1="0" x2="1400" y1="50" y2="50"></line><line class="stroke_order_diagram--guide_line" x1="50" x2="50" y1="1" y2="99"></line><line class="stroke_order_diagram--bounding_box" x1="99" x2="99" y1="1" y2="99"></line><path class="stroke_order_diagram--current_path" d="M18.13,15c3.75,1.52,9.68,6.23,10.62,8.59" id="kvg:06f23-s1" kvg:type="㇔" transform="matrix(1,0,0,1,-4,-4)" xmlns:kvg="http://kanjivg.tagaini.net"></path><path class="stroke_order_diagram--current_path" d="M18.13,15c3.75,1.52,9.68,6.23,10.62,8.59" id="Ske2banjin" kvg:type="㇔" transform="matrix(1,0,0,1,-4,-4)" xmlns:kvg="http://kanjivg.tagaini.net"></path><circle class="stroke_order_diagram--path_start" cx="18.13" cy="15" r="4" transform="matrix(1,0,0,1,-4,-4)"></circle><line class="stroke_order_diagram--guide_line" x1="150" x2="150" y1="1" y2="99"></line><line class="stroke_order_diagram--bounding_box" x1="199" x2="199" y1="1" y2="99"></line><path class="stroke_order_diagram--existing_path" d="M18.13,15c3.75,1.52,9.68,6.23,10.62,8.59" id="Ske2banjiq" kvg:type="㇔" transform="matrix(1,0,0,1,96,-4)" xmlns:kvg="http://kanjivg.tagaini.net"></path><path class="stroke_order_diagram--current_path" d="M12.5,39c4.24,1.32,10.94,5.44,12,7.5" id="kvg:06f23-s2" kvg:type="㇔" transform="matrix(1,0,0,1,96,-4)" xmlns:kvg="http://kanjivg.tagaini.net"></path><path class="stroke_order_diagram--current_path" d="M12.5,39c4.24,1.32,10.94,5.44,12,7.5" id="Ske2banjis" kvg:type="㇔" transform="matrix(1,0,0,1,96,-4)" xmlns:kvg="http://kanjivg.tagaini.net"></path><circle class="stroke_order_diagram--path_start" cx="12.5" cy="39" r="4" transform="matrix(1,0,0,1,96,-4)"></circle><line class="stroke_order_diagram--guide_line" x1="250" x2="250" y1="1" y2="99"></line><line class="stroke_order_diagram--bounding_box" x1="299" x2="299" y1="1" y2="99"></line><path class="stroke_order_diagram--existing_path" d="M18.13,15c3.75,1.52,9.68,6.23,10.62,8.59" id="Ske2banjiv" kvg:type="㇔" transform="matrix(1,0,0,1,196,-4)" xmlns:kvg="http://kanjivg.tagaini.net"></path><path class="stroke_order_diagram--existing_path" d="M12.5,39c4.24,1.32,10.94,5.44,12,7.5" id="Ske2banjiw" kvg:type="㇔" transform="matrix(1,0,0,1,196,-4)" xmlns:kvg="http://kanjivg.tagaini.net"></path><path class="stroke_order_diagram--current_path" d="M11.75,89.21c1.5,1.31,3.31,1.36,4.25-0.25c2.75-4.7,5.5-10.45,8-16.45" id="kvg:06f23-s3" kvg:type="㇀" transform="matrix(1,0,0,1,196,-4)" xmlns:kvg="http://kanjivg.tagaini.net"></path><path class="stroke_order_diagram--current_path" d="M11.75,89.21c1.5,1.31,3.31,1.36,4.25-0.25c2.75-4.7,5.5-10.45,8-16.45" id="Ske2banjiy" kvg:type="㇀" transform="matrix(1,0,0,1,196,-4)" xmlns:kvg="http://kanjivg.tagaini.net"></path><circle class="stroke_order_diagram--path_start" cx="11.75" cy="89.21" r="4" transform="matrix(1,0,0,1,196,-4)"></circle><line class="stroke_order_diagram--guide_line" x1="350" x2="350" y1="1" y2="99"></line><line class="stroke_order_diagram--bounding_box" x1="399" x2="399" y1="1" y2="99"></line><path class="stroke_order_diagram--existing_path" d="M18.13,15c3.75,1.52,9.68,6.23,10.62,8.59" id="Ske2banji11" kvg:type="㇔" transform="matrix(1,0,0,1,296,-4)" xmlns:kvg="http://kanjivg.tagaini.net"></path><path class="stroke_order_diagram--existing_path" d="M12.5,39c4.24,1.32,10.94,5.44,12,7.5" id="Ske2banji12" kvg:type="㇔" transform="matrix(1,0,0,1,296,-4)" xmlns:kvg="http://kanjivg.tagaini.net"></path><path class="stroke_order_diagram--existing_path" d="M11.75,89.21c1.5,1.31,3.31,1.36,4.25-0.25c2.75-4.7,5.5-10.45,8-16.45" id="Ske2banji13" kvg:type="㇀" transform="matrix(1,0,0,1,296,-4)" xmlns:kvg="http://kanjivg.tagaini.net"></path><path class="stroke_order_diagram--current_path" d="M55.66,24.54c0.7,0.36,1.99,0.48,2.68,0.36c10.19-1.76,20.36-2.16,30.27-3.1c1.16-0.11,1.87,0.17,2.45,0.35" id="kvg:06f23-s4" kvg:type="㇐" transform="matrix(1,0,0,1,296,-4)" xmlns:kvg="http://kanjivg.tagaini.net"></path><path class="stroke_order_diagram--current_path" d="M55.66,24.54c0.7,0.36,1.99,0.48,2.68,0.36c10.19-1.76,20.36-2.16,30.27-3.1c1.16-0.11,1.87,0.17,2.45,0.35" id="Ske2banji15" kvg:type="㇐" transform="matrix(1,0,0,1,296,-4)" xmlns:kvg="http://kanjivg.tagaini.net"></path><circle class="stroke_order_diagram--path_start" cx="55.66" cy="24.54" r="4" transform="matrix(1,0,0,1,296,-4)"></circle><line class="stroke_order_diagram--guide_line" x1="450" x2="450" y1="1" y2="99"></line><line class="stroke_order_diagram--bounding_box" x1="499" x2="499" y1="1" y2="99"></line><path class="stroke_order_diagram--existing_path" d="M18.13,15c3.75,1.52,9.68,6.23,10.62,8.59" id="Ske2banji18" kvg:type="㇔" transform="matrix(1,0,0,1,396,-4)" xmlns:kvg="http://kanjivg.tagaini.net"></path><path class="stroke_order_diagram--existing_path" d="M12.5,39c4.24,1.32,10.94,5.44,12,7.5" id="Ske2banji19" kvg:type="㇔" transform="matrix(1,0,0,1,396,-4)" xmlns:kvg="http://kanjivg.tagaini.net"></path><path class="stroke_order_diagram--existing_path" d="M11.75,89.21c1.5,1.31,3.31,1.36,4.25-0.25c2.75-4.7,5.5-10.45,8-16.45" id="Ske2banji1a" kvg:type="㇀" transform="matrix(1,0,0,1,396,-4)" xmlns:kvg="http://kanjivg.tagaini.net"></path><path class="stroke_order_diagram--existing_path" d="M55.66,24.54c0.7,0.36,1.99,0.48,2.68,0.36c10.19-1.76,20.36-2.16,30.27-3.1c1.16-0.11,1.87,0.17,2.45,0.35" id="Ske2banji1b" kvg:type="㇐" transform="matrix(1,0,0,1,396,-4)" xmlns:kvg="http://kanjivg.tagaini.net"></path><path class="stroke_order_diagram--current_path" d="M55.25,34.24c0.55,0.47,1.24,0.83,1.34,1.45c0.74,4.5,2.89,16.59,3.93,25.11" id="kvg:06f23-s5" kvg:type="㇑" transform="matrix(1,0,0,1,396,-4)" xmlns:kvg="http://kanjivg.tagaini.net"></path><path class="stroke_order_diagram--current_path" d="M55.25,34.24c0.55,0.47,1.24,0.83,1.34,1.45c0.74,4.5,2.89,16.59,3.93,25.11" id="Ske2banji1d" kvg:type="㇑" transform="matrix(1,0,0,1,396,-4)" xmlns:kvg="http://kanjivg.tagaini.net"></path><circle class="stroke_order_diagram--path_start" cx="55.25" cy="34.24" r="4" transform="matrix(1,0,0,1,396,-4)"></circle><line class="stroke_order_diagram--guide_line" x1="550" x2="550" y1="1" y2="99"></line><line class="stroke_order_diagram--bounding_box" x1="599" x2="599" y1="1" y2="99"></line><path class="stroke_order_diagram--existing_path" d="M18.13,15c3.75,1.52,9.68,6.23,10.62,8.59" id="Ske2banji1g" kvg:type="㇔" transform="matrix(1,0,0,1,496,-4)" xmlns:kvg="http://kanjivg.tagaini.net"></path><path class="stroke_order_diagram--existing_path" d="M12.5,39c4.24,1.32,10.94,5.44,12,7.5" id="Ske2banji1h" kvg:type="㇔" transform="matrix(1,0,0,1,496,-4)" xmlns:kvg="http://kanjivg.tagaini.net"></path><path class="stroke_order_diagram--existing_path" d="M11.75,89.21c1.5,1.31,3.31,1.36,4.25-0.25c2.75-4.7,5.5-10.45,8-16.45" id="Ske2banji1i" kvg:type="㇀" transform="matrix(1,0,0,1,496,-4)" xmlns:kvg="http://kanjivg.tagaini.net"></path><path class="stroke_order_diagram--existing_path" d="M55.66,24.54c0.7,0.36,1.99,0.48,2.68,0.36c10.19-1.76,20.36-2.16,30.27-3.1c1.16-0.11,1.87,0.17,2.45,0.35" id="Ske2banji1j" kvg:type="㇐" transform="matrix(1,0,0,1,496,-4)" xmlns:kvg="http://kanjivg.tagaini.net"></path><path class="stroke_order_diagram--existing_path" d="M55.25,34.24c0.55,0.47,1.24,0.83,1.34,1.45c0.74,4.5,2.89,16.59,3.93,25.11" id="Ske2banji1k" kvg:type="㇑" transform="matrix(1,0,0,1,496,-4)" xmlns:kvg="http://kanjivg.tagaini.net"></path><path class="stroke_order_diagram--current_path" d="M57.35,35.94c8.31-0.9,26.5-4.1,32.16-4.24c2.35-0.06,2.83,1.73,2.73,3.14c-0.34,4.85-2.03,15.79-3.89,23.74" id="kvg:06f23-s6" kvg:type="㇕a" transform="matrix(1,0,0,1,496,-4)" xmlns:kvg="http://kanjivg.tagaini.net"></path><path class="stroke_order_diagram--current_path" d="M57.35,35.94c8.31-0.9,26.5-4.1,32.16-4.24c2.35-0.06,2.83,1.73,2.73,3.14c-0.34,4.85-2.03,15.79-3.89,23.74" id="Ske2banji1m" kvg:type="㇕a" transform="matrix(1,0,0,1,496,-4)" xmlns:kvg="http://kanjivg.tagaini.net"></path><circle class="stroke_order_diagram--path_start" cx="57.35" cy="35.94" r="4" transform="matrix(1,0,0,1,496,-4)"></circle><line class="stroke_order_diagram--guide_line" x1="650" x2="650" y1="1" y2="99"></line><line class="stroke_order_diagram--bounding_box" x1="699" x2="699" y1="1" y2="99"></line><path class="stroke_order_diagram--existing_path" d="M18.13,15c3.75,1.52,9.68,6.23,10.62,8.59" id="Ske2banji1p" kvg:type="㇔" transform="matrix(1,0,0,1,596,-4)" xmlns:kvg="http://kanjivg.tagaini.net"></path><path class="stroke_order_diagram--existing_path" d="M12.5,39c4.24,1.32,10.94,5.44,12,7.5" id="Ske2banji1q" kvg:type="㇔" transform="matrix(1,0,0,1,596,-4)" xmlns:kvg="http://kanjivg.tagaini.net"></path><path class="stroke_order_diagram--existing_path" d="M11.75,89.21c1.5,1.31,3.31,1.36,4.25-0.25c2.75-4.7,5.5-10.45,8-16.45" id="Ske2banji1r" kvg:type="㇀" transform="matrix(1,0,0,1,596,-4)" xmlns:kvg="http://kanjivg.tagaini.net"></path><path class="stroke_order_diagram--existing_path" d="M55.66,24.54c0.7,0.36,1.99,0.48,2.68,0.36c10.19-1.76,20.36-2.16,30.27-3.1c1.16-0.11,1.87,0.17,2.45,0.35" id="Ske2banji1s" kvg:type="㇐" transform="matrix(1,0,0,1,596,-4)" xmlns:kvg="http://kanjivg.tagaini.net"></path><path class="stroke_order_diagram--existing_path" d="M55.25,34.24c0.55,0.47,1.24,0.83,1.34,1.45c0.74,4.5,2.89,16.59,3.93,25.11" id="Ske2banji1t" kvg:type="㇑" transform="matrix(1,0,0,1,596,-4)" xmlns:kvg="http://kanjivg.tagaini.net"></path><path class="stroke_order_diagram--existing_path" d="M57.35,35.94c8.31-0.9,26.5-4.1,32.16-4.24c2.35-0.06,2.83,1.73,2.73,3.14c-0.34,4.85-2.03,15.79-3.89,23.74" id="Ske2banji1u" kvg:type="㇕a" transform="matrix(1,0,0,1,596,-4)" xmlns:kvg="http://kanjivg.tagaini.net"></path><path class="stroke_order_diagram--current_path" d="M59.73,47.17c8.25-0.92,20.18-2.92,31.15-3.51" id="kvg:06f23-s7" kvg:type="㇐a" transform="matrix(1,0,0,1,596,-4)" xmlns:kvg="http://kanjivg.tagaini.net"></path><path class="stroke_order_diagram--current_path" d="M59.73,47.17c8.25-0.92,20.18-2.92,31.15-3.51" id="Ske2banji1w" kvg:type="㇐a" transform="matrix(1,0,0,1,596,-4)" xmlns:kvg="http://kanjivg.tagaini.net"></path><circle class="stroke_order_diagram--path_start" cx="59.73" cy="47.17" r="4" transform="matrix(1,0,0,1,596,-4)"></circle><line class="stroke_order_diagram--guide_line" x1="750" x2="750" y1="1" y2="99"></line><line class="stroke_order_diagram--bounding_box" x1="799" x2="799" y1="1" y2="99"></line><path class="stroke_order_diagram--existing_path" d="M18.13,15c3.75,1.52,9.68,6.23,10.62,8.59" id="Ske2banji1z" kvg:type="㇔" transform="matrix(1,0,0,1,696,-4)" xmlns:kvg="http://kanjivg.tagaini.net"></path><path class="stroke_order_diagram--existing_path" d="M12.5,39c4.24,1.32,10.94,5.44,12,7.5" id="Ske2banji20" kvg:type="㇔" transform="matrix(1,0,0,1,696,-4)" xmlns:kvg="http://kanjivg.tagaini.net"></path><path class="stroke_order_diagram--existing_path" d="M11.75,89.21c1.5,1.31,3.31,1.36,4.25-0.25c2.75-4.7,5.5-10.45,8-16.45" id="Ske2banji21" kvg:type="㇀" transform="matrix(1,0,0,1,696,-4)" xmlns:kvg="http://kanjivg.tagaini.net"></path><path class="stroke_order_diagram--existing_path" d="M55.66,24.54c0.7,0.36,1.99,0.48,2.68,0.36c10.19-1.76,20.36-2.16,30.27-3.1c1.16-0.11,1.87,0.17,2.45,0.35" id="Ske2banji22" kvg:type="㇐" transform="matrix(1,0,0,1,696,-4)" xmlns:kvg="http://kanjivg.tagaini.net"></path><path class="stroke_order_diagram--existing_path" d="M55.25,34.24c0.55,0.47,1.24,0.83,1.34,1.45c0.74,4.5,2.89,16.59,3.93,25.11" id="Ske2banji23" kvg:type="㇑" transform="matrix(1,0,0,1,696,-4)" xmlns:kvg="http://kanjivg.tagaini.net"></path><path class="stroke_order_diagram--existing_path" d="M57.35,35.94c8.31-0.9,26.5-4.1,32.16-4.24c2.35-0.06,2.83,1.73,2.73,3.14c-0.34,4.85-2.03,15.79-3.89,23.74" id="Ske2banji24" kvg:type="㇕a" transform="matrix(1,0,0,1,696,-4)" xmlns:kvg="http://kanjivg.tagaini.net"></path><path class="stroke_order_diagram--existing_path" d="M59.73,47.17c8.25-0.92,20.18-2.92,31.15-3.51" id="Ske2banji25" kvg:type="㇐a" transform="matrix(1,0,0,1,696,-4)" xmlns:kvg="http://kanjivg.tagaini.net"></path><path class="stroke_order_diagram--current_path" d="M60.57,59.39c7.28-0.94,18.72-2.74,28.2-2.74" id="kvg:06f23-s8" kvg:type="㇐a" transform="matrix(1,0,0,1,696,-4)" xmlns:kvg="http://kanjivg.tagaini.net"></path><path class="stroke_order_diagram--current_path" d="M60.57,59.39c7.28-0.94,18.72-2.74,28.2-2.74" id="Ske2banji27" kvg:type="㇐a" transform="matrix(1,0,0,1,696,-4)" xmlns:kvg="http://kanjivg.tagaini.net"></path><circle class="stroke_order_diagram--path_start" cx="60.57" cy="59.39" r="4" transform="matrix(1,0,0,1,696,-4)"></circle><line class="stroke_order_diagram--guide_line" x1="850" x2="850" y1="1" y2="99"></line><line class="stroke_order_diagram--bounding_box" x1="899" x2="899" y1="1" y2="99"></line><path class="stroke_order_diagram--existing_path" d="M18.13,15c3.75,1.52,9.68,6.23,10.62,8.59" id="Ske2banji2a" kvg:type="㇔" transform="matrix(1,0,0,1,796,-4)" xmlns:kvg="http://kanjivg.tagaini.net"></path><path class="stroke_order_diagram--existing_path" d="M12.5,39c4.24,1.32,10.94,5.44,12,7.5" id="Ske2banji2b" kvg:type="㇔" transform="matrix(1,0,0,1,796,-4)" xmlns:kvg="http://kanjivg.tagaini.net"></path><path class="stroke_order_diagram--existing_path" d="M11.75,89.21c1.5,1.31,3.31,1.36,4.25-0.25c2.75-4.7,5.5-10.45,8-16.45" id="Ske2banji2c" kvg:type="㇀" transform="matrix(1,0,0,1,796,-4)" xmlns:kvg="http://kanjivg.tagaini.net"></path><path class="stroke_order_diagram--existing_path" d="M55.66,24.54c0.7,0.36,1.99,0.48,2.68,0.36c10.19-1.76,20.36-2.16,30.27-3.1c1.16-0.11,1.87,0.17,2.45,0.35" id="Ske2banji2d" kvg:type="㇐" transform="matrix(1,0,0,1,796,-4)" xmlns:kvg="http://kanjivg.tagaini.net"></path><path class="stroke_order_diagram--existing_path" d="M55.25,34.24c0.55,0.47,1.24,0.83,1.34,1.45c0.74,4.5,2.89,16.59,3.93,25.11" id="Ske2banji2e" kvg:type="㇑" transform="matrix(1,0,0,1,796,-4)" xmlns:kvg="http://kanjivg.tagaini.net"></path><path class="stroke_order_diagram--existing_path" d="M57.35,35.94c8.31-0.9,26.5-4.1,32.16-4.24c2.35-0.06,2.83,1.73,2.73,3.14c-0.34,4.85-2.03,15.79-3.89,23.74" id="Ske2banji2f" kvg:type="㇕a" transform="matrix(1,0,0,1,796,-4)" xmlns:kvg="http://kanjivg.tagaini.net"></path><path class="stroke_order_diagram--existing_path" d="M59.73,47.17c8.25-0.92,20.18-2.92,31.15-3.51" id="Ske2banji2g" kvg:type="㇐a" transform="matrix(1,0,0,1,796,-4)" xmlns:kvg="http://kanjivg.tagaini.net"></path><path class="stroke_order_diagram--existing_path" d="M60.57,59.39c7.28-0.94,18.72-2.74,28.2-2.74" id="Ske2banji2h" kvg:type="㇐a" transform="matrix(1,0,0,1,796,-4)" xmlns:kvg="http://kanjivg.tagaini.net"></path><path class="stroke_order_diagram--current_path" d="M53.82,70.72c1,0.72,2.8,0.81,3.82,0.72c10.86-0.94,21.62-2.47,33.37-2.94c1.66-0.07,2.66,0.34,3.49,0.7" id="kvg:06f23-s9" kvg:type="㇐" transform="matrix(1,0,0,1,796,-4)" xmlns:kvg="http://kanjivg.tagaini.net"></path><path class="stroke_order_diagram--current_path" d="M53.82,70.72c1,0.72,2.8,0.81,3.82,0.72c10.86-0.94,21.62-2.47,33.37-2.94c1.66-0.07,2.66,0.34,3.49,0.7" id="Ske2banji2j" kvg:type="㇐" transform="matrix(1,0,0,1,796,-4)" xmlns:kvg="http://kanjivg.tagaini.net"></path><circle class="stroke_order_diagram--path_start" cx="53.82" cy="70.72" r="4" transform="matrix(1,0,0,1,796,-4)"></circle><line class="stroke_order_diagram--guide_line" x1="950" x2="950" y1="1" y2="99"></line><line class="stroke_order_diagram--bounding_box" x1="999" x2="999" y1="1" y2="99"></line><path class="stroke_order_diagram--existing_path" d="M18.13,15c3.75,1.52,9.68,6.23,10.62,8.59" id="Ske2banji2m" kvg:type="㇔" transform="matrix(1,0,0,1,896,-4)" xmlns:kvg="http://kanjivg.tagaini.net"></path><path class="stroke_order_diagram--existing_path" d="M12.5,39c4.24,1.32,10.94,5.44,12,7.5" id="Ske2banji2n" kvg:type="㇔" transform="matrix(1,0,0,1,896,-4)" xmlns:kvg="http://kanjivg.tagaini.net"></path><path class="stroke_order_diagram--existing_path" d="M11.75,89.21c1.5,1.31,3.31,1.36,4.25-0.25c2.75-4.7,5.5-10.45,8-16.45" id="Ske2banji2o" kvg:type="㇀" transform="matrix(1,0,0,1,896,-4)" xmlns:kvg="http://kanjivg.tagaini.net"></path><path class="stroke_order_diagram--existing_path" d="M55.66,24.54c0.7,0.36,1.99,0.48,2.68,0.36c10.19-1.76,20.36-2.16,30.27-3.1c1.16-0.11,1.87,0.17,2.45,0.35" id="Ske2banji2p" kvg:type="㇐" transform="matrix(1,0,0,1,896,-4)" xmlns:kvg="http://kanjivg.tagaini.net"></path><path class="stroke_order_diagram--existing_path" d="M55.25,34.24c0.55,0.47,1.24,0.83,1.34,1.45c0.74,4.5,2.89,16.59,3.93,25.11" id="Ske2banji2q" kvg:type="㇑" transform="matrix(1,0,0,1,896,-4)" xmlns:kvg="http://kanjivg.tagaini.net"></path><path class="stroke_order_diagram--existing_path" d="M57.35,35.94c8.31-0.9,26.5-4.1,32.16-4.24c2.35-0.06,2.83,1.73,2.73,3.14c-0.34,4.85-2.03,15.79-3.89,23.74" id="Ske2banji2r" kvg:type="㇕a" transform="matrix(1,0,0,1,896,-4)" xmlns:kvg="http://kanjivg.tagaini.net"></path><path class="stroke_order_diagram--existing_path" d="M59.73,47.17c8.25-0.92,20.18-2.92,31.15-3.51" id="Ske2banji2s" kvg:type="㇐a" transform="matrix(1,0,0,1,896,-4)" xmlns:kvg="http://kanjivg.tagaini.net"></path><path class="stroke_order_diagram--existing_path" d="M60.57,59.39c7.28-0.94,18.72-2.74,28.2-2.74" id="Ske2banji2t" kvg:type="㇐a" transform="matrix(1,0,0,1,896,-4)" xmlns:kvg="http://kanjivg.tagaini.net"></path><path class="stroke_order_diagram--existing_path" d="M53.82,70.72c1,0.72,2.8,0.81,3.82,0.72c10.86-0.94,21.62-2.47,33.37-2.94c1.66-0.07,2.66,0.34,3.49,0.7" id="Ske2banji2u" kvg:type="㇐" transform="matrix(1,0,0,1,896,-4)" xmlns:kvg="http://kanjivg.tagaini.net"></path><path class="stroke_order_diagram--current_path" d="M71.8,10.63c0.51,0.56,2.2,1.87,2.2,4.79c0,1.12-0.07,63.99-0.17,70.96" id="kvg:06f23-s10" kvg:type="㇑" transform="matrix(1,0,0,1,896,-4)" xmlns:kvg="http://kanjivg.tagaini.net"></path><path class="stroke_order_diagram--current_path" d="M71.8,10.63c0.51,0.56,2.2,1.87,2.2,4.79c0,1.12-0.07,63.99-0.17,70.96" id="Ske2banji2w" kvg:type="㇑" transform="matrix(1,0,0,1,896,-4)" xmlns:kvg="http://kanjivg.tagaini.net"></path><circle class="stroke_order_diagram--path_start" cx="71.8" cy="10.63" r="4" transform="matrix(1,0,0,1,896,-4)"></circle><line class="stroke_order_diagram--guide_line" x1="1050" x2="1050" y1="1" y2="99"></line><line class="stroke_order_diagram--bounding_box" x1="1099" x2="1099" y1="1" y2="99"></line><path class="stroke_order_diagram--existing_path" d="M18.13,15c3.75,1.52,9.68,6.23,10.62,8.59" id="Ske2banji2z" kvg:type="㇔" transform="matrix(1,0,0,1,996,-4)" xmlns:kvg="http://kanjivg.tagaini.net"></path><path class="stroke_order_diagram--existing_path" d="M12.5,39c4.24,1.32,10.94,5.44,12,7.5" id="Ske2banji30" kvg:type="㇔" transform="matrix(1,0,0,1,996,-4)" xmlns:kvg="http://kanjivg.tagaini.net"></path><path class="stroke_order_diagram--existing_path" d="M11.75,89.21c1.5,1.31,3.31,1.36,4.25-0.25c2.75-4.7,5.5-10.45,8-16.45" id="Ske2banji31" kvg:type="㇀" transform="matrix(1,0,0,1,996,-4)" xmlns:kvg="http://kanjivg.tagaini.net"></path><path class="stroke_order_diagram--existing_path" d="M55.66,24.54c0.7,0.36,1.99,0.48,2.68,0.36c10.19-1.76,20.36-2.16,30.27-3.1c1.16-0.11,1.87,0.17,2.45,0.35" id="Ske2banji32" kvg:type="㇐" transform="matrix(1,0,0,1,996,-4)" xmlns:kvg="http://kanjivg.tagaini.net"></path><path class="stroke_order_diagram--existing_path" d="M55.25,34.24c0.55,0.47,1.24,0.83,1.34,1.45c0.74,4.5,2.89,16.59,3.93,25.11" id="Ske2banji33" kvg:type="㇑" transform="matrix(1,0,0,1,996,-4)" xmlns:kvg="http://kanjivg.tagaini.net"></path><path class="stroke_order_diagram--existing_path" d="M57.35,35.94c8.31-0.9,26.5-4.1,32.16-4.24c2.35-0.06,2.83,1.73,2.73,3.14c-0.34,4.85-2.03,15.79-3.89,23.74" id="Ske2banji34" kvg:type="㇕a" transform="matrix(1,0,0,1,996,-4)" xmlns:kvg="http://kanjivg.tagaini.net"></path><path class="stroke_order_diagram--existing_path" d="M59.73,47.17c8.25-0.92,20.18-2.92,31.15-3.51" id="Ske2banji35" kvg:type="㇐a" transform="matrix(1,0,0,1,996,-4)" xmlns:kvg="http://kanjivg.tagaini.net"></path><path class="stroke_order_diagram--existing_path" d="M60.57,59.39c7.28-0.94,18.72-2.74,28.2-2.74" id="Ske2banji36" kvg:type="㇐a" transform="matrix(1,0,0,1,996,-4)" xmlns:kvg="http://kanjivg.tagaini.net"></path><path class="stroke_order_diagram--existing_path" d="M53.82,70.72c1,0.72,2.8,0.81,3.82,0.72c10.86-0.94,21.62-2.47,33.37-2.94c1.66-0.07,2.66,0.34,3.49,0.7" id="Ske2banji37" kvg:type="㇐" transform="matrix(1,0,0,1,996,-4)" xmlns:kvg="http://kanjivg.tagaini.net"></path><path class="stroke_order_diagram--existing_path" d="M71.8,10.63c0.51,0.56,2.2,1.87,2.2,4.79c0,1.12-0.07,63.99-0.17,70.96" id="Ske2banji38" kvg:type="㇑" transform="matrix(1,0,0,1,996,-4)" xmlns:kvg="http://kanjivg.tagaini.net"></path><path class="stroke_order_diagram--current_path" d="M39.53,16.5c2.89,1.74,7.47,7.17,8.19,9.88" id="kvg:06f23-s11" kvg:type="㇔" transform="matrix(1,0,0,1,996,-4)" xmlns:kvg="http://kanjivg.tagaini.net"></path><path class="stroke_order_diagram--current_path" d="M39.53,16.5c2.89,1.74,7.47,7.17,8.19,9.88" id="Ske2banji3a" kvg:type="㇔" transform="matrix(1,0,0,1,996,-4)" xmlns:kvg="http://kanjivg.tagaini.net"></path><circle class="stroke_order_diagram--path_start" cx="39.53" cy="16.5" r="4" transform="matrix(1,0,0,1,996,-4)"></circle><line class="stroke_order_diagram--guide_line" x1="1150" x2="1150" y1="1" y2="99"></line><line class="stroke_order_diagram--bounding_box" x1="1199" x2="1199" y1="1" y2="99"></line><path class="stroke_order_diagram--existing_path" d="M18.13,15c3.75,1.52,9.68,6.23,10.62,8.59" id="Ske2banji3d" kvg:type="㇔" transform="matrix(1,0,0,1,1096,-4)" xmlns:kvg="http://kanjivg.tagaini.net"></path><path class="stroke_order_diagram--existing_path" d="M12.5,39c4.24,1.32,10.94,5.44,12,7.5" id="Ske2banji3e" kvg:type="㇔" transform="matrix(1,0,0,1,1096,-4)" xmlns:kvg="http://kanjivg.tagaini.net"></path><path class="stroke_order_diagram--existing_path" d="M11.75,89.21c1.5,1.31,3.31,1.36,4.25-0.25c2.75-4.7,5.5-10.45,8-16.45" id="Ske2banji3f" kvg:type="㇀" transform="matrix(1,0,0,1,1096,-4)" xmlns:kvg="http://kanjivg.tagaini.net"></path><path class="stroke_order_diagram--existing_path" d="M55.66,24.54c0.7,0.36,1.99,0.48,2.68,0.36c10.19-1.76,20.36-2.16,30.27-3.1c1.16-0.11,1.87,0.17,2.45,0.35" id="Ske2banji3g" kvg:type="㇐" transform="matrix(1,0,0,1,1096,-4)" xmlns:kvg="http://kanjivg.tagaini.net"></path><path class="stroke_order_diagram--existing_path" d="M55.25,34.24c0.55,0.47,1.24,0.83,1.34,1.45c0.74,4.5,2.89,16.59,3.93,25.11" id="Ske2banji3h" kvg:type="㇑" transform="matrix(1,0,0,1,1096,-4)" xmlns:kvg="http://kanjivg.tagaini.net"></path><path class="stroke_order_diagram--existing_path" d="M57.35,35.94c8.31-0.9,26.5-4.1,32.16-4.24c2.35-0.06,2.83,1.73,2.73,3.14c-0.34,4.85-2.03,15.79-3.89,23.74" id="Ske2banji3i" kvg:type="㇕a" transform="matrix(1,0,0,1,1096,-4)" xmlns:kvg="http://kanjivg.tagaini.net"></path><path class="stroke_order_diagram--existing_path" d="M59.73,47.17c8.25-0.92,20.18-2.92,31.15-3.51" id="Ske2banji3j" kvg:type="㇐a" transform="matrix(1,0,0,1,1096,-4)" xmlns:kvg="http://kanjivg.tagaini.net"></path><path class="stroke_order_diagram--existing_path" d="M60.57,59.39c7.28-0.94,18.72-2.74,28.2-2.74" id="Ske2banji3k" kvg:type="㇐a" transform="matrix(1,0,0,1,1096,-4)" xmlns:kvg="http://kanjivg.tagaini.net"></path><path class="stroke_order_diagram--existing_path" d="M53.82,70.72c1,0.72,2.8,0.81,3.82,0.72c10.86-0.94,21.62-2.47,33.37-2.94c1.66-0.07,2.66,0.34,3.49,0.7" id="Ske2banji3l" kvg:type="㇐" transform="matrix(1,0,0,1,1096,-4)" xmlns:kvg="http://kanjivg.tagaini.net"></path><path class="stroke_order_diagram--existing_path" d="M71.8,10.63c0.51,0.56,2.2,1.87,2.2,4.79c0,1.12-0.07,63.99-0.17,70.96" id="Ske2banji3m" kvg:type="㇑" transform="matrix(1,0,0,1,1096,-4)" xmlns:kvg="http://kanjivg.tagaini.net"></path><path class="stroke_order_diagram--existing_path" d="M39.53,16.5c2.89,1.74,7.47,7.17,8.19,9.88" id="Ske2banji3n" kvg:type="㇔" transform="matrix(1,0,0,1,1096,-4)" xmlns:kvg="http://kanjivg.tagaini.net"></path><path class="stroke_order_diagram--current_path" d="M34.16,39c3.45,0.99,8.92,4.09,9.79,5.63" id="kvg:06f23-s12" kvg:type="㇔" transform="matrix(1,0,0,1,1096,-4)" xmlns:kvg="http://kanjivg.tagaini.net"></path><path class="stroke_order_diagram--current_path" d="M34.16,39c3.45,0.99,8.92,4.09,9.79,5.63" id="Ske2banji3p" kvg:type="㇔" transform="matrix(1,0,0,1,1096,-4)" xmlns:kvg="http://kanjivg.tagaini.net"></path><circle class="stroke_order_diagram--path_start" cx="34.16" cy="39" r="4" transform="matrix(1,0,0,1,1096,-4)"></circle><line class="stroke_order_diagram--guide_line" x1="1250" x2="1250" y1="1" y2="99"></line><line class="stroke_order_diagram--bounding_box" x1="1299" x2="1299" y1="1" y2="99"></line><path class="stroke_order_diagram--existing_path" d="M18.13,15c3.75,1.52,9.68,6.23,10.62,8.59" id="Ske2banji3s" kvg:type="㇔" transform="matrix(1,0,0,1,1196,-4)" xmlns:kvg="http://kanjivg.tagaini.net"></path><path class="stroke_order_diagram--existing_path" d="M12.5,39c4.24,1.32,10.94,5.44,12,7.5" id="Ske2banji3t" kvg:type="㇔" transform="matrix(1,0,0,1,1196,-4)" xmlns:kvg="http://kanjivg.tagaini.net"></path><path class="stroke_order_diagram--existing_path" d="M11.75,89.21c1.5,1.31,3.31,1.36,4.25-0.25c2.75-4.7,5.5-10.45,8-16.45" id="Ske2banji3u" kvg:type="㇀" transform="matrix(1,0,0,1,1196,-4)" xmlns:kvg="http://kanjivg.tagaini.net"></path><path class="stroke_order_diagram--existing_path" d="M55.66,24.54c0.7,0.36,1.99,0.48,2.68,0.36c10.19-1.76,20.36-2.16,30.27-3.1c1.16-0.11,1.87,0.17,2.45,0.35" id="Ske2banji3v" kvg:type="㇐" transform="matrix(1,0,0,1,1196,-4)" xmlns:kvg="http://kanjivg.tagaini.net"></path><path class="stroke_order_diagram--existing_path" d="M55.25,34.24c0.55,0.47,1.24,0.83,1.34,1.45c0.74,4.5,2.89,16.59,3.93,25.11" id="Ske2banji3w" kvg:type="㇑" transform="matrix(1,0,0,1,1196,-4)" xmlns:kvg="http://kanjivg.tagaini.net"></path><path class="stroke_order_diagram--existing_path" d="M57.35,35.94c8.31-0.9,26.5-4.1,32.16-4.24c2.35-0.06,2.83,1.73,2.73,3.14c-0.34,4.85-2.03,15.79-3.89,23.74" id="Ske2banji3x" kvg:type="㇕a" transform="matrix(1,0,0,1,1196,-4)" xmlns:kvg="http://kanjivg.tagaini.net"></path><path class="stroke_order_diagram--existing_path" d="M59.73,47.17c8.25-0.92,20.18-2.92,31.15-3.51" id="Ske2banji3y" kvg:type="㇐a" transform="matrix(1,0,0,1,1196,-4)" xmlns:kvg="http://kanjivg.tagaini.net"></path><path class="stroke_order_diagram--existing_path" d="M60.57,59.39c7.28-0.94,18.72-2.74,28.2-2.74" id="Ske2banji3z" kvg:type="㇐a" transform="matrix(1,0,0,1,1196,-4)" xmlns:kvg="http://kanjivg.tagaini.net"></path><path class="stroke_order_diagram--existing_path" d="M53.82,70.72c1,0.72,2.8,0.81,3.82,0.72c10.86-0.94,21.62-2.47,33.37-2.94c1.66-0.07,2.66,0.34,3.49,0.7" id="Ske2banji40" kvg:type="㇐" transform="matrix(1,0,0,1,1196,-4)" xmlns:kvg="http://kanjivg.tagaini.net"></path><path class="stroke_order_diagram--existing_path" d="M71.8,10.63c0.51,0.56,2.2,1.87,2.2,4.79c0,1.12-0.07,63.99-0.17,70.96" id="Ske2banji41" kvg:type="㇑" transform="matrix(1,0,0,1,1196,-4)" xmlns:kvg="http://kanjivg.tagaini.net"></path><path class="stroke_order_diagram--existing_path" d="M39.53,16.5c2.89,1.74,7.47,7.17,8.19,9.88" id="Ske2banji42" kvg:type="㇔" transform="matrix(1,0,0,1,1196,-4)" xmlns:kvg="http://kanjivg.tagaini.net"></path><path class="stroke_order_diagram--existing_path" d="M34.16,39c3.45,0.99,8.92,4.09,9.79,5.63" id="Ske2banji43" kvg:type="㇔" transform="matrix(1,0,0,1,1196,-4)" xmlns:kvg="http://kanjivg.tagaini.net"></path><path class="stroke_order_diagram--current_path" d="M33,60.94c1.79,0.85,2.99,0.43,3.78,0.21c0.8-0.21,6.37-2.99,7.56-3.42c1.19-0.43,2.99,1.07,2.19,2.35s-3.19,6.19-3.78,7.26c-0.6,1.07-0.4,2.99,0.8,4.48s2.19,3.2,2.79,4.48c0.6,1.28,0.6,2.35-0.6,3.42c-1.19,1.07-7.17,7.04-8.36,7.47" id="kvg:06f23-s13" kvg:type="㇋" transform="matrix(1,0,0,1,1196,-4)" xmlns:kvg="http://kanjivg.tagaini.net"></path><path class="stroke_order_diagram--current_path" d="M33,60.94c1.79,0.85,2.99,0.43,3.78,0.21c0.8-0.21,6.37-2.99,7.56-3.42c1.19-0.43,2.99,1.07,2.19,2.35s-3.19,6.19-3.78,7.26c-0.6,1.07-0.4,2.99,0.8,4.48s2.19,3.2,2.79,4.48c0.6,1.28,0.6,2.35-0.6,3.42c-1.19,1.07-7.17,7.04-8.36,7.47" id="Ske2banji45" kvg:type="㇋" transform="matrix(1,0,0,1,1196,-4)" xmlns:kvg="http://kanjivg.tagaini.net"></path><circle class="stroke_order_diagram--path_start" cx="33" cy="60.94" r="4" transform="matrix(1,0,0,1,1196,-4)"></circle><line class="stroke_order_diagram--guide_line" x1="1350" x2="1350" y1="1" y2="99"></line><line class="stroke_order_diagram--bounding_box" x1="1399" x2="1399" y1="1" y2="99"></line><path class="stroke_order_diagram--existing_path" d="M18.13,15c3.75,1.52,9.68,6.23,10.62,8.59" id="Ske2banji48" kvg:type="㇔" transform="matrix(1,0,0,1,1296,-4)" xmlns:kvg="http://kanjivg.tagaini.net"></path><path class="stroke_order_diagram--existing_path" d="M12.5,39c4.24,1.32,10.94,5.44,12,7.5" id="Ske2banji49" kvg:type="㇔" transform="matrix(1,0,0,1,1296,-4)" xmlns:kvg="http://kanjivg.tagaini.net"></path><path class="stroke_order_diagram--existing_path" d="M11.75,89.21c1.5,1.31,3.31,1.36,4.25-0.25c2.75-4.7,5.5-10.45,8-16.45" id="Ske2banji4a" kvg:type="㇀" transform="matrix(1,0,0,1,1296,-4)" xmlns:kvg="http://kanjivg.tagaini.net"></path><path class="stroke_order_diagram--existing_path" d="M55.66,24.54c0.7,0.36,1.99,0.48,2.68,0.36c10.19-1.76,20.36-2.16,30.27-3.1c1.16-0.11,1.87,0.17,2.45,0.35" id="Ske2banji4b" kvg:type="㇐" transform="matrix(1,0,0,1,1296,-4)" xmlns:kvg="http://kanjivg.tagaini.net"></path><path class="stroke_order_diagram--existing_path" d="M55.25,34.24c0.55,0.47,1.24,0.83,1.34,1.45c0.74,4.5,2.89,16.59,3.93,25.11" id="Ske2banji4c" kvg:type="㇑" transform="matrix(1,0,0,1,1296,-4)" xmlns:kvg="http://kanjivg.tagaini.net"></path><path class="stroke_order_diagram--existing_path" d="M57.35,35.94c8.31-0.9,26.5-4.1,32.16-4.24c2.35-0.06,2.83,1.73,2.73,3.14c-0.34,4.85-2.03,15.79-3.89,23.74" id="Ske2banji4d" kvg:type="㇕a" transform="matrix(1,0,0,1,1296,-4)" xmlns:kvg="http://kanjivg.tagaini.net"></path><path class="stroke_order_diagram--existing_path" d="M59.73,47.17c8.25-0.92,20.18-2.92,31.15-3.51" id="Ske2banji4e" kvg:type="㇐a" transform="matrix(1,0,0,1,1296,-4)" xmlns:kvg="http://kanjivg.tagaini.net"></path><path class="stroke_order_diagram--existing_path" d="M60.57,59.39c7.28-0.94,18.72-2.74,28.2-2.74" id="Ske2banji4f" kvg:type="㇐a" transform="matrix(1,0,0,1,1296,-4)" xmlns:kvg="http://kanjivg.tagaini.net"></path><path class="stroke_order_diagram--existing_path" d="M53.82,70.72c1,0.72,2.8,0.81,3.82,0.72c10.86-0.94,21.62-2.47,33.37-2.94c1.66-0.07,2.66,0.34,3.49,0.7" id="Ske2banji4g" kvg:type="㇐" transform="matrix(1,0,0,1,1296,-4)" xmlns:kvg="http://kanjivg.tagaini.net"></path><path class="stroke_order_diagram--existing_path" d="M71.8,10.63c0.51,0.56,2.2,1.87,2.2,4.79c0,1.12-0.07,63.99-0.17,70.96" id="Ske2banji4h" kvg:type="㇑" transform="matrix(1,0,0,1,1296,-4)" xmlns:kvg="http://kanjivg.tagaini.net"></path><path class="stroke_order_diagram--existing_path" d="M39.53,16.5c2.89,1.74,7.47,7.17,8.19,9.88" id="Ske2banji4i" kvg:type="㇔" transform="matrix(1,0,0,1,1296,-4)" xmlns:kvg="http://kanjivg.tagaini.net"></path><path class="stroke_order_diagram--existing_path" d="M34.16,39c3.45,0.99,8.92,4.09,9.79,5.63" id="Ske2banji4j" kvg:type="㇔" transform="matrix(1,0,0,1,1296,-4)" xmlns:kvg="http://kanjivg.tagaini.net"></path><path class="stroke_order_diagram--existing_path" d="M33,60.94c1.79,0.85,2.99,0.43,3.78,0.21c0.8-0.21,6.37-2.99,7.56-3.42c1.19-0.43,2.99,1.07,2.19,2.35s-3.19,6.19-3.78,7.26c-0.6,1.07-0.4,2.99,0.8,4.48s2.19,3.2,2.79,4.48c0.6,1.28,0.6,2.35-0.6,3.42c-1.19,1.07-7.17,7.04-8.36,7.47" id="Ske2banji4k" kvg:type="㇋" transform="matrix(1,0,0,1,1296,-4)" xmlns:kvg="http://kanjivg.tagaini.net"></path><path class="stroke_order_diagram--current_path" d="M34,88.07c2.36-0.24,7.07-0.85,10.61-0.37c3.54,0.49,23.64,3.76,27.12,4.39c9.43,1.71,16.7,2.19,23.78,1.34" id="kvg:06f23-s14" kvg:type="㇏" transform="matrix(1,0,0,1,1296,-4)" xmlns:kvg="http://kanjivg.tagaini.net"></path><path class="stroke_order_diagram--current_path" d="M34,88.07c2.36-0.24,7.07-0.85,10.61-0.37c3.54,0.49,23.64,3.76,27.12,4.39c9.43,1.71,16.7,2.19,23.78,1.34" id="Ske2banji4m" kvg:type="㇏" transform="matrix(1,0,0,1,1296,-4)" xmlns:kvg="http://kanjivg.tagaini.net"></path><circle class="stroke_order_diagram--path_start" cx="34" cy="88.07" r="4" transform="matrix(1,0,0,1,1296,-4)"></circle></svg>