<svg class="stroke_order_diagram--svg_container_for_518662aed5dda7965800111e" style="height: 100px; width: 1500px;" viewbox="0 0 1500 100"><desc>Created with Snap</desc><defs></defs><line class="stroke_order_diagram--bounding_box" x1="1" x2="1499" y1="1" y2="1"></line><line class="stroke_order_diagram--bounding_box" x1="1" x2="1" y1="1" y2="99"></line><line class="stroke_order_diagram--bounding_box" x1="1" x2="1499" y1="99" y2="99"></line><line class="stroke_order_diagram--guide_line" x1="0" x2="1500" y1="50" y2="50"></line><line class="stroke_order_diagram--guide_line" x1="50" x2="50" y1="1" y2="99"></line><line class="stroke_order_diagram--bounding_box" x1="99" x2="99" y1="1" y2="99"></line><path class="stroke_order_diagram--current_path" d="M18.13,15.75c4.45,1.56,11.5,6.41,12.62,8.84" id="kvg:06f81-s1" kvg:type="㇔" transform="matrix(1,0,0,1,-4,-4)" xmlns:kvg="http://kanjivg.tagaini.net"></path><path class="stroke_order_diagram--current_path" d="M18.13,15.75c4.45,1.56,11.5,6.41,12.62,8.84" id="Ske2pbvjfo" kvg:type="㇔" transform="matrix(1,0,0,1,-4,-4)" xmlns:kvg="http://kanjivg.tagaini.net"></path><circle class="stroke_order_diagram--path_start" cx="18.13" cy="15.75" r="4" transform="matrix(1,0,0,1,-4,-4)"></circle><line class="stroke_order_diagram--guide_line" x1="150" x2="150" y1="1" y2="99"></line><line class="stroke_order_diagram--bounding_box" x1="199" x2="199" y1="1" y2="99"></line><path class="stroke_order_diagram--existing_path" d="M18.13,15.75c4.45,1.56,11.5,6.41,12.62,8.84" id="Ske2pbvjfr" kvg:type="㇔" transform="matrix(1,0,0,1,96,-4)" xmlns:kvg="http://kanjivg.tagaini.net"></path><path class="stroke_order_diagram--current_path" d="M12.25,40.75c4.85,1.9,12.54,7.8,13.75,10.75" id="kvg:06f81-s2" kvg:type="㇔" transform="matrix(1,0,0,1,96,-4)" xmlns:kvg="http://kanjivg.tagaini.net"></path><path class="stroke_order_diagram--current_path" d="M12.25,40.75c4.85,1.9,12.54,7.8,13.75,10.75" id="Ske2pbvjft" kvg:type="㇔" transform="matrix(1,0,0,1,96,-4)" xmlns:kvg="http://kanjivg.tagaini.net"></path><circle class="stroke_order_diagram--path_start" cx="12.25" cy="40.75" r="4" transform="matrix(1,0,0,1,96,-4)"></circle><line class="stroke_order_diagram--guide_line" x1="250" x2="250" y1="1" y2="99"></line><line class="stroke_order_diagram--bounding_box" x1="299" x2="299" y1="1" y2="99"></line><path class="stroke_order_diagram--existing_path" d="M18.13,15.75c4.45,1.56,11.5,6.41,12.62,8.84" id="Ske2pbvjfw" kvg:type="㇔" transform="matrix(1,0,0,1,196,-4)" xmlns:kvg="http://kanjivg.tagaini.net"></path><path class="stroke_order_diagram--existing_path" d="M12.25,40.75c4.85,1.9,12.54,7.8,13.75,10.75" id="Ske2pbvjfx" kvg:type="㇔" transform="matrix(1,0,0,1,196,-4)" xmlns:kvg="http://kanjivg.tagaini.net"></path><path class="stroke_order_diagram--current_path" d="M13.25,88.23c1.71,1.27,3.93,1.42,4.86-0.25C22,81,24.75,75.25,27.25,68.5" id="kvg:06f81-s3" kvg:type="㇀" transform="matrix(1,0,0,1,196,-4)" xmlns:kvg="http://kanjivg.tagaini.net"></path><path class="stroke_order_diagram--current_path" d="M13.25,88.23c1.71,1.27,3.93,1.42,4.86-0.25C22,81,24.75,75.25,27.25,68.5" id="Ske2pbvjfz" kvg:type="㇀" transform="matrix(1,0,0,1,196,-4)" xmlns:kvg="http://kanjivg.tagaini.net"></path><circle class="stroke_order_diagram--path_start" cx="13.25" cy="88.23" r="4" transform="matrix(1,0,0,1,196,-4)"></circle><line class="stroke_order_diagram--guide_line" x1="350" x2="350" y1="1" y2="99"></line><line class="stroke_order_diagram--bounding_box" x1="399" x2="399" y1="1" y2="99"></line><path class="stroke_order_diagram--existing_path" d="M18.13,15.75c4.45,1.56,11.5,6.41,12.62,8.84" id="Ske2pbvjf12" kvg:type="㇔" transform="matrix(1,0,0,1,296,-4)" xmlns:kvg="http://kanjivg.tagaini.net"></path><path class="stroke_order_diagram--existing_path" d="M12.25,40.75c4.85,1.9,12.54,7.8,13.75,10.75" id="Ske2pbvjf13" kvg:type="㇔" transform="matrix(1,0,0,1,296,-4)" xmlns:kvg="http://kanjivg.tagaini.net"></path><path class="stroke_order_diagram--existing_path" d="M13.25,88.23c1.71,1.27,3.93,1.42,4.86-0.25C22,81,24.75,75.25,27.25,68.5" id="Ske2pbvjf14" kvg:type="㇀" transform="matrix(1,0,0,1,296,-4)" xmlns:kvg="http://kanjivg.tagaini.net"></path><path class="stroke_order_diagram--current_path" d="M64.63,11.5c1.04,0.48,1.66,2.14,1.87,3.1c0.21,0.95,0,18.88-0.21,24.83" id="kvg:06f81-s4" kvg:type="㇑a" transform="matrix(1,0,0,1,296,-4)" xmlns:kvg="http://kanjivg.tagaini.net"></path><path class="stroke_order_diagram--current_path" d="M64.63,11.5c1.04,0.48,1.66,2.14,1.87,3.1c0.21,0.95,0,18.88-0.21,24.83" id="Ske2pbvjf16" kvg:type="㇑a" transform="matrix(1,0,0,1,296,-4)" xmlns:kvg="http://kanjivg.tagaini.net"></path><circle class="stroke_order_diagram--path_start" cx="64.63" cy="11.5" r="4" transform="matrix(1,0,0,1,296,-4)"></circle><line class="stroke_order_diagram--guide_line" x1="450" x2="450" y1="1" y2="99"></line><line class="stroke_order_diagram--bounding_box" x1="499" x2="499" y1="1" y2="99"></line><path class="stroke_order_diagram--existing_path" d="M18.13,15.75c4.45,1.56,11.5,6.41,12.62,8.84" id="Ske2pbvjf19" kvg:type="㇔" transform="matrix(1,0,0,1,396,-4)" xmlns:kvg="http://kanjivg.tagaini.net"></path><path class="stroke_order_diagram--existing_path" d="M12.25,40.75c4.85,1.9,12.54,7.8,13.75,10.75" id="Ske2pbvjf1a" kvg:type="㇔" transform="matrix(1,0,0,1,396,-4)" xmlns:kvg="http://kanjivg.tagaini.net"></path><path class="stroke_order_diagram--existing_path" d="M13.25,88.23c1.71,1.27,3.93,1.42,4.86-0.25C22,81,24.75,75.25,27.25,68.5" id="Ske2pbvjf1b" kvg:type="㇀" transform="matrix(1,0,0,1,396,-4)" xmlns:kvg="http://kanjivg.tagaini.net"></path><path class="stroke_order_diagram--existing_path" d="M64.63,11.5c1.04,0.48,1.66,2.14,1.87,3.1c0.21,0.95,0,18.88-0.21,24.83" id="Ske2pbvjf1c" kvg:type="㇑a" transform="matrix(1,0,0,1,396,-4)" xmlns:kvg="http://kanjivg.tagaini.net"></path><path class="stroke_order_diagram--current_path" d="M66.67,25.02c6-0.63,15.07-1.4,20.96-2.03c1.46-0.16,1.83-0.21,2.75,0" id="kvg:06f81-s5" kvg:type="㇐b" transform="matrix(1,0,0,1,396,-4)" xmlns:kvg="http://kanjivg.tagaini.net"></path><path class="stroke_order_diagram--current_path" d="M66.67,25.02c6-0.63,15.07-1.4,20.96-2.03c1.46-0.16,1.83-0.21,2.75,0" id="Ske2pbvjf1e" kvg:type="㇐b" transform="matrix(1,0,0,1,396,-4)" xmlns:kvg="http://kanjivg.tagaini.net"></path><circle class="stroke_order_diagram--path_start" cx="66.67" cy="25.02" r="4" transform="matrix(1,0,0,1,396,-4)"></circle><line class="stroke_order_diagram--guide_line" x1="550" x2="550" y1="1" y2="99"></line><line class="stroke_order_diagram--bounding_box" x1="599" x2="599" y1="1" y2="99"></line><path class="stroke_order_diagram--existing_path" d="M18.13,15.75c4.45,1.56,11.5,6.41,12.62,8.84" id="Ske2pbvjf1h" kvg:type="㇔" transform="matrix(1,0,0,1,496,-4)" xmlns:kvg="http://kanjivg.tagaini.net"></path><path class="stroke_order_diagram--existing_path" d="M12.25,40.75c4.85,1.9,12.54,7.8,13.75,10.75" id="Ske2pbvjf1i" kvg:type="㇔" transform="matrix(1,0,0,1,496,-4)" xmlns:kvg="http://kanjivg.tagaini.net"></path><path class="stroke_order_diagram--existing_path" d="M13.25,88.23c1.71,1.27,3.93,1.42,4.86-0.25C22,81,24.75,75.25,27.25,68.5" id="Ske2pbvjf1j" kvg:type="㇀" transform="matrix(1,0,0,1,496,-4)" xmlns:kvg="http://kanjivg.tagaini.net"></path><path class="stroke_order_diagram--existing_path" d="M64.63,11.5c1.04,0.48,1.66,2.14,1.87,3.1c0.21,0.95,0,18.88-0.21,24.83" id="Ske2pbvjf1k" kvg:type="㇑a" transform="matrix(1,0,0,1,496,-4)" xmlns:kvg="http://kanjivg.tagaini.net"></path><path class="stroke_order_diagram--existing_path" d="M66.67,25.02c6-0.63,15.07-1.4,20.96-2.03c1.46-0.16,1.83-0.21,2.75,0" id="Ske2pbvjf1l" kvg:type="㇐b" transform="matrix(1,0,0,1,496,-4)" xmlns:kvg="http://kanjivg.tagaini.net"></path><path class="stroke_order_diagram--current_path" d="M47.64,19.5c1.04,0.48,1.66,2.14,1.87,3.1c0.21,0.95,0,12.38-0.21,18.34" id="kvg:06f81-s6" kvg:type="㇑a" transform="matrix(1,0,0,1,496,-4)" xmlns:kvg="http://kanjivg.tagaini.net"></path><path class="stroke_order_diagram--current_path" d="M47.64,19.5c1.04,0.48,1.66,2.14,1.87,3.1c0.21,0.95,0,12.38-0.21,18.34" id="Ske2pbvjf1n" kvg:type="㇑a" transform="matrix(1,0,0,1,496,-4)" xmlns:kvg="http://kanjivg.tagaini.net"></path><circle class="stroke_order_diagram--path_start" cx="47.64" cy="19.5" r="4" transform="matrix(1,0,0,1,496,-4)"></circle><line class="stroke_order_diagram--guide_line" x1="650" x2="650" y1="1" y2="99"></line><line class="stroke_order_diagram--bounding_box" x1="699" x2="699" y1="1" y2="99"></line><path class="stroke_order_diagram--existing_path" d="M18.13,15.75c4.45,1.56,11.5,6.41,12.62,8.84" id="Ske2pbvjf1q" kvg:type="㇔" transform="matrix(1,0,0,1,596,-4)" xmlns:kvg="http://kanjivg.tagaini.net"></path><path class="stroke_order_diagram--existing_path" d="M12.25,40.75c4.85,1.9,12.54,7.8,13.75,10.75" id="Ske2pbvjf1r" kvg:type="㇔" transform="matrix(1,0,0,1,596,-4)" xmlns:kvg="http://kanjivg.tagaini.net"></path><path class="stroke_order_diagram--existing_path" d="M13.25,88.23c1.71,1.27,3.93,1.42,4.86-0.25C22,81,24.75,75.25,27.25,68.5" id="Ske2pbvjf1s" kvg:type="㇀" transform="matrix(1,0,0,1,596,-4)" xmlns:kvg="http://kanjivg.tagaini.net"></path><path class="stroke_order_diagram--existing_path" d="M64.63,11.5c1.04,0.48,1.66,2.14,1.87,3.1c0.21,0.95,0,18.88-0.21,24.83" id="Ske2pbvjf1t" kvg:type="㇑a" transform="matrix(1,0,0,1,596,-4)" xmlns:kvg="http://kanjivg.tagaini.net"></path><path class="stroke_order_diagram--existing_path" d="M66.67,25.02c6-0.63,15.07-1.4,20.96-2.03c1.46-0.16,1.83-0.21,2.75,0" id="Ske2pbvjf1u" kvg:type="㇐b" transform="matrix(1,0,0,1,596,-4)" xmlns:kvg="http://kanjivg.tagaini.net"></path><path class="stroke_order_diagram--existing_path" d="M47.64,19.5c1.04,0.48,1.66,2.14,1.87,3.1c0.21,0.95,0,12.38-0.21,18.34" id="Ske2pbvjf1v" kvg:type="㇑a" transform="matrix(1,0,0,1,596,-4)" xmlns:kvg="http://kanjivg.tagaini.net"></path><path class="stroke_order_diagram--current_path" d="M34.15,41.16c0.64,0.19,2.36,0.66,4.07,0.59c9.23-0.39,41.12-3.41,52.85-3.41c1.72,0,4.69,0.39,5.67,0.59" id="kvg:06f81-s7" kvg:type="㇐" transform="matrix(1,0,0,1,596,-4)" xmlns:kvg="http://kanjivg.tagaini.net"></path><path class="stroke_order_diagram--current_path" d="M34.15,41.16c0.64,0.19,2.36,0.66,4.07,0.59c9.23-0.39,41.12-3.41,52.85-3.41c1.72,0,4.69,0.39,5.67,0.59" id="Ske2pbvjf1x" kvg:type="㇐" transform="matrix(1,0,0,1,596,-4)" xmlns:kvg="http://kanjivg.tagaini.net"></path><circle class="stroke_order_diagram--path_start" cx="34.15" cy="41.16" r="4" transform="matrix(1,0,0,1,596,-4)"></circle><line class="stroke_order_diagram--guide_line" x1="750" x2="750" y1="1" y2="99"></line><line class="stroke_order_diagram--bounding_box" x1="799" x2="799" y1="1" y2="99"></line><path class="stroke_order_diagram--existing_path" d="M18.13,15.75c4.45,1.56,11.5,6.41,12.62,8.84" id="Ske2pbvjf20" kvg:type="㇔" transform="matrix(1,0,0,1,696,-4)" xmlns:kvg="http://kanjivg.tagaini.net"></path><path class="stroke_order_diagram--existing_path" d="M12.25,40.75c4.85,1.9,12.54,7.8,13.75,10.75" id="Ske2pbvjf21" kvg:type="㇔" transform="matrix(1,0,0,1,696,-4)" xmlns:kvg="http://kanjivg.tagaini.net"></path><path class="stroke_order_diagram--existing_path" d="M13.25,88.23c1.71,1.27,3.93,1.42,4.86-0.25C22,81,24.75,75.25,27.25,68.5" id="Ske2pbvjf22" kvg:type="㇀" transform="matrix(1,0,0,1,696,-4)" xmlns:kvg="http://kanjivg.tagaini.net"></path><path class="stroke_order_diagram--existing_path" d="M64.63,11.5c1.04,0.48,1.66,2.14,1.87,3.1c0.21,0.95,0,18.88-0.21,24.83" id="Ske2pbvjf23" kvg:type="㇑a" transform="matrix(1,0,0,1,696,-4)" xmlns:kvg="http://kanjivg.tagaini.net"></path><path class="stroke_order_diagram--existing_path" d="M66.67,25.02c6-0.63,15.07-1.4,20.96-2.03c1.46-0.16,1.83-0.21,2.75,0" id="Ske2pbvjf24" kvg:type="㇐b" transform="matrix(1,0,0,1,696,-4)" xmlns:kvg="http://kanjivg.tagaini.net"></path><path class="stroke_order_diagram--existing_path" d="M47.64,19.5c1.04,0.48,1.66,2.14,1.87,3.1c0.21,0.95,0,12.38-0.21,18.34" id="Ske2pbvjf25" kvg:type="㇑a" transform="matrix(1,0,0,1,696,-4)" xmlns:kvg="http://kanjivg.tagaini.net"></path><path class="stroke_order_diagram--existing_path" d="M34.15,41.16c0.64,0.19,2.36,0.66,4.07,0.59c9.23-0.39,41.12-3.41,52.85-3.41c1.72,0,4.69,0.39,5.67,0.59" id="Ske2pbvjf26" kvg:type="㇐" transform="matrix(1,0,0,1,696,-4)" xmlns:kvg="http://kanjivg.tagaini.net"></path><path class="stroke_order_diagram--current_path" d="M46.21,51.59c0.94,0.43,1.5,1.94,1.69,2.8c0.19,0.86-0.19,23.36-0.19,31.82" id="kvg:06f81-s8" kvg:type="㇑" transform="matrix(1,0,0,1,696,-4)" xmlns:kvg="http://kanjivg.tagaini.net"></path><path class="stroke_order_diagram--current_path" d="M46.21,51.59c0.94,0.43,1.5,1.94,1.69,2.8c0.19,0.86-0.19,23.36-0.19,31.82" id="Ske2pbvjf28" kvg:type="㇑" transform="matrix(1,0,0,1,696,-4)" xmlns:kvg="http://kanjivg.tagaini.net"></path><circle class="stroke_order_diagram--path_start" cx="46.21" cy="51.59" r="4" transform="matrix(1,0,0,1,696,-4)"></circle><line class="stroke_order_diagram--guide_line" x1="850" x2="850" y1="1" y2="99"></line><line class="stroke_order_diagram--bounding_box" x1="899" x2="899" y1="1" y2="99"></line><path class="stroke_order_diagram--existing_path" d="M18.13,15.75c4.45,1.56,11.5,6.41,12.62,8.84" id="Ske2pbvjf2b" kvg:type="㇔" transform="matrix(1,0,0,1,796,-4)" xmlns:kvg="http://kanjivg.tagaini.net"></path><path class="stroke_order_diagram--existing_path" d="M12.25,40.75c4.85,1.9,12.54,7.8,13.75,10.75" id="Ske2pbvjf2c" kvg:type="㇔" transform="matrix(1,0,0,1,796,-4)" xmlns:kvg="http://kanjivg.tagaini.net"></path><path class="stroke_order_diagram--existing_path" d="M13.25,88.23c1.71,1.27,3.93,1.42,4.86-0.25C22,81,24.75,75.25,27.25,68.5" id="Ske2pbvjf2d" kvg:type="㇀" transform="matrix(1,0,0,1,796,-4)" xmlns:kvg="http://kanjivg.tagaini.net"></path><path class="stroke_order_diagram--existing_path" d="M64.63,11.5c1.04,0.48,1.66,2.14,1.87,3.1c0.21,0.95,0,18.88-0.21,24.83" id="Ske2pbvjf2e" kvg:type="㇑a" transform="matrix(1,0,0,1,796,-4)" xmlns:kvg="http://kanjivg.tagaini.net"></path><path class="stroke_order_diagram--existing_path" d="M66.67,25.02c6-0.63,15.07-1.4,20.96-2.03c1.46-0.16,1.83-0.21,2.75,0" id="Ske2pbvjf2f" kvg:type="㇐b" transform="matrix(1,0,0,1,796,-4)" xmlns:kvg="http://kanjivg.tagaini.net"></path><path class="stroke_order_diagram--existing_path" d="M47.64,19.5c1.04,0.48,1.66,2.14,1.87,3.1c0.21,0.95,0,12.38-0.21,18.34" id="Ske2pbvjf2g" kvg:type="㇑a" transform="matrix(1,0,0,1,796,-4)" xmlns:kvg="http://kanjivg.tagaini.net"></path><path class="stroke_order_diagram--existing_path" d="M34.15,41.16c0.64,0.19,2.36,0.66,4.07,0.59c9.23-0.39,41.12-3.41,52.85-3.41c1.72,0,4.69,0.39,5.67,0.59" id="Ske2pbvjf2h" kvg:type="㇐" transform="matrix(1,0,0,1,796,-4)" xmlns:kvg="http://kanjivg.tagaini.net"></path><path class="stroke_order_diagram--existing_path" d="M46.21,51.59c0.94,0.43,1.5,1.94,1.69,2.8c0.19,0.86-0.19,23.36-0.19,31.82" id="Ske2pbvjf2i" kvg:type="㇑" transform="matrix(1,0,0,1,796,-4)" xmlns:kvg="http://kanjivg.tagaini.net"></path><path class="stroke_order_diagram--current_path" d="M47.97,67.16c4.16-0.44,6.94-1.31,11.02-1.75c1.01-0.11,1.27-0.15,1.91,0" id="kvg:06f81-s9" kvg:type="㇐" transform="matrix(1,0,0,1,796,-4)" xmlns:kvg="http://kanjivg.tagaini.net"></path><path class="stroke_order_diagram--current_path" d="M47.97,67.16c4.16-0.44,6.94-1.31,11.02-1.75c1.01-0.11,1.27-0.15,1.91,0" id="Ske2pbvjf2k" kvg:type="㇐" transform="matrix(1,0,0,1,796,-4)" xmlns:kvg="http://kanjivg.tagaini.net"></path><circle class="stroke_order_diagram--path_start" cx="47.97" cy="67.16" r="4" transform="matrix(1,0,0,1,796,-4)"></circle><line class="stroke_order_diagram--guide_line" x1="950" x2="950" y1="1" y2="99"></line><line class="stroke_order_diagram--bounding_box" x1="999" x2="999" y1="1" y2="99"></line><path class="stroke_order_diagram--existing_path" d="M18.13,15.75c4.45,1.56,11.5,6.41,12.62,8.84" id="Ske2pbvjf2n" kvg:type="㇔" transform="matrix(1,0,0,1,896,-4)" xmlns:kvg="http://kanjivg.tagaini.net"></path><path class="stroke_order_diagram--existing_path" d="M12.25,40.75c4.85,1.9,12.54,7.8,13.75,10.75" id="Ske2pbvjf2o" kvg:type="㇔" transform="matrix(1,0,0,1,896,-4)" xmlns:kvg="http://kanjivg.tagaini.net"></path><path class="stroke_order_diagram--existing_path" d="M13.25,88.23c1.71,1.27,3.93,1.42,4.86-0.25C22,81,24.75,75.25,27.25,68.5" id="Ske2pbvjf2p" kvg:type="㇀" transform="matrix(1,0,0,1,896,-4)" xmlns:kvg="http://kanjivg.tagaini.net"></path><path class="stroke_order_diagram--existing_path" d="M64.63,11.5c1.04,0.48,1.66,2.14,1.87,3.1c0.21,0.95,0,18.88-0.21,24.83" id="Ske2pbvjf2q" kvg:type="㇑a" transform="matrix(1,0,0,1,896,-4)" xmlns:kvg="http://kanjivg.tagaini.net"></path><path class="stroke_order_diagram--existing_path" d="M66.67,25.02c6-0.63,15.07-1.4,20.96-2.03c1.46-0.16,1.83-0.21,2.75,0" id="Ske2pbvjf2r" kvg:type="㇐b" transform="matrix(1,0,0,1,896,-4)" xmlns:kvg="http://kanjivg.tagaini.net"></path><path class="stroke_order_diagram--existing_path" d="M47.64,19.5c1.04,0.48,1.66,2.14,1.87,3.1c0.21,0.95,0,12.38-0.21,18.34" id="Ske2pbvjf2s" kvg:type="㇑a" transform="matrix(1,0,0,1,896,-4)" xmlns:kvg="http://kanjivg.tagaini.net"></path><path class="stroke_order_diagram--existing_path" d="M34.15,41.16c0.64,0.19,2.36,0.66,4.07,0.59c9.23-0.39,41.12-3.41,52.85-3.41c1.72,0,4.69,0.39,5.67,0.59" id="Ske2pbvjf2t" kvg:type="㇐" transform="matrix(1,0,0,1,896,-4)" xmlns:kvg="http://kanjivg.tagaini.net"></path><path class="stroke_order_diagram--existing_path" d="M46.21,51.59c0.94,0.43,1.5,1.94,1.69,2.8c0.19,0.86-0.19,23.36-0.19,31.82" id="Ske2pbvjf2u" kvg:type="㇑" transform="matrix(1,0,0,1,896,-4)" xmlns:kvg="http://kanjivg.tagaini.net"></path><path class="stroke_order_diagram--existing_path" d="M47.97,67.16c4.16-0.44,6.94-1.31,11.02-1.75c1.01-0.11,1.27-0.15,1.91,0" id="Ske2pbvjf2v" kvg:type="㇐" transform="matrix(1,0,0,1,896,-4)" xmlns:kvg="http://kanjivg.tagaini.net"></path><path class="stroke_order_diagram--current_path" d="M35.99,65.84c0.81,0.37,1.29,1.67,1.45,2.41c0.16,0.74,0,16.55-0.16,21.18" id="kvg:06f81-s10" kvg:type="㇑" transform="matrix(1,0,0,1,896,-4)" xmlns:kvg="http://kanjivg.tagaini.net"></path><path class="stroke_order_diagram--current_path" d="M35.99,65.84c0.81,0.37,1.29,1.67,1.45,2.41c0.16,0.74,0,16.55-0.16,21.18" id="Ske2pbvjf2x" kvg:type="㇑" transform="matrix(1,0,0,1,896,-4)" xmlns:kvg="http://kanjivg.tagaini.net"></path><circle class="stroke_order_diagram--path_start" cx="35.99" cy="65.84" r="4" transform="matrix(1,0,0,1,896,-4)"></circle><line class="stroke_order_diagram--guide_line" x1="1050" x2="1050" y1="1" y2="99"></line><line class="stroke_order_diagram--bounding_box" x1="1099" x2="1099" y1="1" y2="99"></line><path class="stroke_order_diagram--existing_path" d="M18.13,15.75c4.45,1.56,11.5,6.41,12.62,8.84" id="Ske2pbvjf30" kvg:type="㇔" transform="matrix(1,0,0,1,996,-4)" xmlns:kvg="http://kanjivg.tagaini.net"></path><path class="stroke_order_diagram--existing_path" d="M12.25,40.75c4.85,1.9,12.54,7.8,13.75,10.75" id="Ske2pbvjf31" kvg:type="㇔" transform="matrix(1,0,0,1,996,-4)" xmlns:kvg="http://kanjivg.tagaini.net"></path><path class="stroke_order_diagram--existing_path" d="M13.25,88.23c1.71,1.27,3.93,1.42,4.86-0.25C22,81,24.75,75.25,27.25,68.5" id="Ske2pbvjf32" kvg:type="㇀" transform="matrix(1,0,0,1,996,-4)" xmlns:kvg="http://kanjivg.tagaini.net"></path><path class="stroke_order_diagram--existing_path" d="M64.63,11.5c1.04,0.48,1.66,2.14,1.87,3.1c0.21,0.95,0,18.88-0.21,24.83" id="Ske2pbvjf33" kvg:type="㇑a" transform="matrix(1,0,0,1,996,-4)" xmlns:kvg="http://kanjivg.tagaini.net"></path><path class="stroke_order_diagram--existing_path" d="M66.67,25.02c6-0.63,15.07-1.4,20.96-2.03c1.46-0.16,1.83-0.21,2.75,0" id="Ske2pbvjf34" kvg:type="㇐b" transform="matrix(1,0,0,1,996,-4)" xmlns:kvg="http://kanjivg.tagaini.net"></path><path class="stroke_order_diagram--existing_path" d="M47.64,19.5c1.04,0.48,1.66,2.14,1.87,3.1c0.21,0.95,0,12.38-0.21,18.34" id="Ske2pbvjf35" kvg:type="㇑a" transform="matrix(1,0,0,1,996,-4)" xmlns:kvg="http://kanjivg.tagaini.net"></path><path class="stroke_order_diagram--existing_path" d="M34.15,41.16c0.64,0.19,2.36,0.66,4.07,0.59c9.23-0.39,41.12-3.41,52.85-3.41c1.72,0,4.69,0.39,5.67,0.59" id="Ske2pbvjf36" kvg:type="㇐" transform="matrix(1,0,0,1,996,-4)" xmlns:kvg="http://kanjivg.tagaini.net"></path><path class="stroke_order_diagram--existing_path" d="M46.21,51.59c0.94,0.43,1.5,1.94,1.69,2.8c0.19,0.86-0.19,23.36-0.19,31.82" id="Ske2pbvjf37" kvg:type="㇑" transform="matrix(1,0,0,1,996,-4)" xmlns:kvg="http://kanjivg.tagaini.net"></path><path class="stroke_order_diagram--existing_path" d="M47.97,67.16c4.16-0.44,6.94-1.31,11.02-1.75c1.01-0.11,1.27-0.15,1.91,0" id="Ske2pbvjf38" kvg:type="㇐" transform="matrix(1,0,0,1,996,-4)" xmlns:kvg="http://kanjivg.tagaini.net"></path><path class="stroke_order_diagram--existing_path" d="M35.99,65.84c0.81,0.37,1.29,1.67,1.45,2.41c0.16,0.74,0,16.55-0.16,21.18" id="Ske2pbvjf39" kvg:type="㇑" transform="matrix(1,0,0,1,996,-4)" xmlns:kvg="http://kanjivg.tagaini.net"></path><path class="stroke_order_diagram--current_path" d="M29.5,90.44c0.34,0.5,2.28,1.29,3.17,1.01c6.08-1.94,20.33-7.19,26.6-9.56" id="kvg:06f81-s11" kvg:type="㇀/㇐" transform="matrix(1,0,0,1,996,-4)" xmlns:kvg="http://kanjivg.tagaini.net"></path><path class="stroke_order_diagram--current_path" d="M29.5,90.44c0.34,0.5,2.28,1.29,3.17,1.01c6.08-1.94,20.33-7.19,26.6-9.56" id="Ske2pbvjf3b" kvg:type="㇀/㇐" transform="matrix(1,0,0,1,996,-4)" xmlns:kvg="http://kanjivg.tagaini.net"></path><circle class="stroke_order_diagram--path_start" cx="29.5" cy="90.44" r="4" transform="matrix(1,0,0,1,996,-4)"></circle><line class="stroke_order_diagram--guide_line" x1="1150" x2="1150" y1="1" y2="99"></line><line class="stroke_order_diagram--bounding_box" x1="1199" x2="1199" y1="1" y2="99"></line><path class="stroke_order_diagram--existing_path" d="M18.13,15.75c4.45,1.56,11.5,6.41,12.62,8.84" id="Ske2pbvjf3e" kvg:type="㇔" transform="matrix(1,0,0,1,1096,-4)" xmlns:kvg="http://kanjivg.tagaini.net"></path><path class="stroke_order_diagram--existing_path" d="M12.25,40.75c4.85,1.9,12.54,7.8,13.75,10.75" id="Ske2pbvjf3f" kvg:type="㇔" transform="matrix(1,0,0,1,1096,-4)" xmlns:kvg="http://kanjivg.tagaini.net"></path><path class="stroke_order_diagram--existing_path" d="M13.25,88.23c1.71,1.27,3.93,1.42,4.86-0.25C22,81,24.75,75.25,27.25,68.5" id="Ske2pbvjf3g" kvg:type="㇀" transform="matrix(1,0,0,1,1096,-4)" xmlns:kvg="http://kanjivg.tagaini.net"></path><path class="stroke_order_diagram--existing_path" d="M64.63,11.5c1.04,0.48,1.66,2.14,1.87,3.1c0.21,0.95,0,18.88-0.21,24.83" id="Ske2pbvjf3h" kvg:type="㇑a" transform="matrix(1,0,0,1,1096,-4)" xmlns:kvg="http://kanjivg.tagaini.net"></path><path class="stroke_order_diagram--existing_path" d="M66.67,25.02c6-0.63,15.07-1.4,20.96-2.03c1.46-0.16,1.83-0.21,2.75,0" id="Ske2pbvjf3i" kvg:type="㇐b" transform="matrix(1,0,0,1,1096,-4)" xmlns:kvg="http://kanjivg.tagaini.net"></path><path class="stroke_order_diagram--existing_path" d="M47.64,19.5c1.04,0.48,1.66,2.14,1.87,3.1c0.21,0.95,0,12.38-0.21,18.34" id="Ske2pbvjf3j" kvg:type="㇑a" transform="matrix(1,0,0,1,1096,-4)" xmlns:kvg="http://kanjivg.tagaini.net"></path><path class="stroke_order_diagram--existing_path" d="M34.15,41.16c0.64,0.19,2.36,0.66,4.07,0.59c9.23-0.39,41.12-3.41,52.85-3.41c1.72,0,4.69,0.39,5.67,0.59" id="Ske2pbvjf3k" kvg:type="㇐" transform="matrix(1,0,0,1,1096,-4)" xmlns:kvg="http://kanjivg.tagaini.net"></path><path class="stroke_order_diagram--existing_path" d="M46.21,51.59c0.94,0.43,1.5,1.94,1.69,2.8c0.19,0.86-0.19,23.36-0.19,31.82" id="Ske2pbvjf3l" kvg:type="㇑" transform="matrix(1,0,0,1,1096,-4)" xmlns:kvg="http://kanjivg.tagaini.net"></path><path class="stroke_order_diagram--existing_path" d="M47.97,67.16c4.16-0.44,6.94-1.31,11.02-1.75c1.01-0.11,1.27-0.15,1.91,0" id="Ske2pbvjf3m" kvg:type="㇐" transform="matrix(1,0,0,1,1096,-4)" xmlns:kvg="http://kanjivg.tagaini.net"></path><path class="stroke_order_diagram--existing_path" d="M35.99,65.84c0.81,0.37,1.29,1.67,1.45,2.41c0.16,0.74,0,16.55-0.16,21.18" id="Ske2pbvjf3n" kvg:type="㇑" transform="matrix(1,0,0,1,1096,-4)" xmlns:kvg="http://kanjivg.tagaini.net"></path><path class="stroke_order_diagram--existing_path" d="M29.5,90.44c0.34,0.5,2.28,1.29,3.17,1.01c6.08-1.94,20.33-7.19,26.6-9.56" id="Ske2pbvjf3o" kvg:type="㇀/㇐" transform="matrix(1,0,0,1,1096,-4)" xmlns:kvg="http://kanjivg.tagaini.net"></path><path class="stroke_order_diagram--current_path" d="M78.58,49.18c1.04,0.48,1.87,2.12,1.87,3.1c0,9.72-0.21,32.97-0.21,39.88" id="kvg:06f81-s12" kvg:type="㇑a" transform="matrix(1,0,0,1,1096,-4)" xmlns:kvg="http://kanjivg.tagaini.net"></path><path class="stroke_order_diagram--current_path" d="M78.58,49.18c1.04,0.48,1.87,2.12,1.87,3.1c0,9.72-0.21,32.97-0.21,39.88" id="Ske2pbvjf3q" kvg:type="㇑a" transform="matrix(1,0,0,1,1096,-4)" xmlns:kvg="http://kanjivg.tagaini.net"></path><circle class="stroke_order_diagram--path_start" cx="78.58" cy="49.18" r="4" transform="matrix(1,0,0,1,1096,-4)"></circle><line class="stroke_order_diagram--guide_line" x1="1250" x2="1250" y1="1" y2="99"></line><line class="stroke_order_diagram--bounding_box" x1="1299" x2="1299" y1="1" y2="99"></line><path class="stroke_order_diagram--existing_path" d="M18.13,15.75c4.45,1.56,11.5,6.41,12.62,8.84" id="Ske2pbvjf3t" kvg:type="㇔" transform="matrix(1,0,0,1,1196,-4)" xmlns:kvg="http://kanjivg.tagaini.net"></path><path class="stroke_order_diagram--existing_path" d="M12.25,40.75c4.85,1.9,12.54,7.8,13.75,10.75" id="Ske2pbvjf3u" kvg:type="㇔" transform="matrix(1,0,0,1,1196,-4)" xmlns:kvg="http://kanjivg.tagaini.net"></path><path class="stroke_order_diagram--existing_path" d="M13.25,88.23c1.71,1.27,3.93,1.42,4.86-0.25C22,81,24.75,75.25,27.25,68.5" id="Ske2pbvjf3v" kvg:type="㇀" transform="matrix(1,0,0,1,1196,-4)" xmlns:kvg="http://kanjivg.tagaini.net"></path><path class="stroke_order_diagram--existing_path" d="M64.63,11.5c1.04,0.48,1.66,2.14,1.87,3.1c0.21,0.95,0,18.88-0.21,24.83" id="Ske2pbvjf3w" kvg:type="㇑a" transform="matrix(1,0,0,1,1196,-4)" xmlns:kvg="http://kanjivg.tagaini.net"></path><path class="stroke_order_diagram--existing_path" d="M66.67,25.02c6-0.63,15.07-1.4,20.96-2.03c1.46-0.16,1.83-0.21,2.75,0" id="Ske2pbvjf3x" kvg:type="㇐b" transform="matrix(1,0,0,1,1196,-4)" xmlns:kvg="http://kanjivg.tagaini.net"></path><path class="stroke_order_diagram--existing_path" d="M47.64,19.5c1.04,0.48,1.66,2.14,1.87,3.1c0.21,0.95,0,12.38-0.21,18.34" id="Ske2pbvjf3y" kvg:type="㇑a" transform="matrix(1,0,0,1,1196,-4)" xmlns:kvg="http://kanjivg.tagaini.net"></path><path class="stroke_order_diagram--existing_path" d="M34.15,41.16c0.64,0.19,2.36,0.66,4.07,0.59c9.23-0.39,41.12-3.41,52.85-3.41c1.72,0,4.69,0.39,5.67,0.59" id="Ske2pbvjf3z" kvg:type="㇐" transform="matrix(1,0,0,1,1196,-4)" xmlns:kvg="http://kanjivg.tagaini.net"></path><path class="stroke_order_diagram--existing_path" d="M46.21,51.59c0.94,0.43,1.5,1.94,1.69,2.8c0.19,0.86-0.19,23.36-0.19,31.82" id="Ske2pbvjf40" kvg:type="㇑" transform="matrix(1,0,0,1,1196,-4)" xmlns:kvg="http://kanjivg.tagaini.net"></path><path class="stroke_order_diagram--existing_path" d="M47.97,67.16c4.16-0.44,6.94-1.31,11.02-1.75c1.01-0.11,1.27-0.15,1.91,0" id="Ske2pbvjf41" kvg:type="㇐" transform="matrix(1,0,0,1,1196,-4)" xmlns:kvg="http://kanjivg.tagaini.net"></path><path class="stroke_order_diagram--existing_path" d="M35.99,65.84c0.81,0.37,1.29,1.67,1.45,2.41c0.16,0.74,0,16.55-0.16,21.18" id="Ske2pbvjf42" kvg:type="㇑" transform="matrix(1,0,0,1,1196,-4)" xmlns:kvg="http://kanjivg.tagaini.net"></path><path class="stroke_order_diagram--existing_path" d="M29.5,90.44c0.34,0.5,2.28,1.29,3.17,1.01c6.08-1.94,20.33-7.19,26.6-9.56" id="Ske2pbvjf43" kvg:type="㇀/㇐" transform="matrix(1,0,0,1,1196,-4)" xmlns:kvg="http://kanjivg.tagaini.net"></path><path class="stroke_order_diagram--existing_path" d="M78.58,49.18c1.04,0.48,1.87,2.12,1.87,3.1c0,9.72-0.21,32.97-0.21,39.88" id="Ske2pbvjf44" kvg:type="㇑a" transform="matrix(1,0,0,1,1196,-4)" xmlns:kvg="http://kanjivg.tagaini.net"></path><path class="stroke_order_diagram--current_path" d="M80.56,69.62c4.77-0.5,7.97-1.01,12.65-1.51c1.16-0.12,1.46-0.17,2.19,0" id="kvg:06f81-s13" kvg:type="㇐b" transform="matrix(1,0,0,1,1196,-4)" xmlns:kvg="http://kanjivg.tagaini.net"></path><path class="stroke_order_diagram--current_path" d="M80.56,69.62c4.77-0.5,7.97-1.01,12.65-1.51c1.16-0.12,1.46-0.17,2.19,0" id="Ske2pbvjf46" kvg:type="㇐b" transform="matrix(1,0,0,1,1196,-4)" xmlns:kvg="http://kanjivg.tagaini.net"></path><circle class="stroke_order_diagram--path_start" cx="80.56" cy="69.62" r="4" transform="matrix(1,0,0,1,1196,-4)"></circle><line class="stroke_order_diagram--guide_line" x1="1350" x2="1350" y1="1" y2="99"></line><line class="stroke_order_diagram--bounding_box" x1="1399" x2="1399" y1="1" y2="99"></line><path class="stroke_order_diagram--existing_path" d="M18.13,15.75c4.45,1.56,11.5,6.41,12.62,8.84" id="Ske2pbvjf49" kvg:type="㇔" transform="matrix(1,0,0,1,1296,-4)" xmlns:kvg="http://kanjivg.tagaini.net"></path><path class="stroke_order_diagram--existing_path" d="M12.25,40.75c4.85,1.9,12.54,7.8,13.75,10.75" id="Ske2pbvjf4a" kvg:type="㇔" transform="matrix(1,0,0,1,1296,-4)" xmlns:kvg="http://kanjivg.tagaini.net"></path><path class="stroke_order_diagram--existing_path" d="M13.25,88.23c1.71,1.27,3.93,1.42,4.86-0.25C22,81,24.75,75.25,27.25,68.5" id="Ske2pbvjf4b" kvg:type="㇀" transform="matrix(1,0,0,1,1296,-4)" xmlns:kvg="http://kanjivg.tagaini.net"></path><path class="stroke_order_diagram--existing_path" d="M64.63,11.5c1.04,0.48,1.66,2.14,1.87,3.1c0.21,0.95,0,18.88-0.21,24.83" id="Ske2pbvjf4c" kvg:type="㇑a" transform="matrix(1,0,0,1,1296,-4)" xmlns:kvg="http://kanjivg.tagaini.net"></path><path class="stroke_order_diagram--existing_path" d="M66.67,25.02c6-0.63,15.07-1.4,20.96-2.03c1.46-0.16,1.83-0.21,2.75,0" id="Ske2pbvjf4d" kvg:type="㇐b" transform="matrix(1,0,0,1,1296,-4)" xmlns:kvg="http://kanjivg.tagaini.net"></path><path class="stroke_order_diagram--existing_path" d="M47.64,19.5c1.04,0.48,1.66,2.14,1.87,3.1c0.21,0.95,0,12.38-0.21,18.34" id="Ske2pbvjf4e" kvg:type="㇑a" transform="matrix(1,0,0,1,1296,-4)" xmlns:kvg="http://kanjivg.tagaini.net"></path><path class="stroke_order_diagram--existing_path" d="M34.15,41.16c0.64,0.19,2.36,0.66,4.07,0.59c9.23-0.39,41.12-3.41,52.85-3.41c1.72,0,4.69,0.39,5.67,0.59" id="Ske2pbvjf4f" kvg:type="㇐" transform="matrix(1,0,0,1,1296,-4)" xmlns:kvg="http://kanjivg.tagaini.net"></path><path class="stroke_order_diagram--existing_path" d="M46.21,51.59c0.94,0.43,1.5,1.94,1.69,2.8c0.19,0.86-0.19,23.36-0.19,31.82" id="Ske2pbvjf4g" kvg:type="㇑" transform="matrix(1,0,0,1,1296,-4)" xmlns:kvg="http://kanjivg.tagaini.net"></path><path class="stroke_order_diagram--existing_path" d="M47.97,67.16c4.16-0.44,6.94-1.31,11.02-1.75c1.01-0.11,1.27-0.15,1.91,0" id="Ske2pbvjf4h" kvg:type="㇐" transform="matrix(1,0,0,1,1296,-4)" xmlns:kvg="http://kanjivg.tagaini.net"></path><path class="stroke_order_diagram--existing_path" d="M35.99,65.84c0.81,0.37,1.29,1.67,1.45,2.41c0.16,0.74,0,16.55-0.16,21.18" id="Ske2pbvjf4i" kvg:type="㇑" transform="matrix(1,0,0,1,1296,-4)" xmlns:kvg="http://kanjivg.tagaini.net"></path><path class="stroke_order_diagram--existing_path" d="M29.5,90.44c0.34,0.5,2.28,1.29,3.17,1.01c6.08-1.94,20.33-7.19,26.6-9.56" id="Ske2pbvjf4j" kvg:type="㇀/㇐" transform="matrix(1,0,0,1,1296,-4)" xmlns:kvg="http://kanjivg.tagaini.net"></path><path class="stroke_order_diagram--existing_path" d="M78.58,49.18c1.04,0.48,1.87,2.12,1.87,3.1c0,9.72-0.21,32.97-0.21,39.88" id="Ske2pbvjf4k" kvg:type="㇑a" transform="matrix(1,0,0,1,1296,-4)" xmlns:kvg="http://kanjivg.tagaini.net"></path><path class="stroke_order_diagram--existing_path" d="M80.56,69.62c4.77-0.5,7.97-1.01,12.65-1.51c1.16-0.12,1.46-0.17,2.19,0" id="Ske2pbvjf4l" kvg:type="㇐b" transform="matrix(1,0,0,1,1296,-4)" xmlns:kvg="http://kanjivg.tagaini.net"></path><path class="stroke_order_diagram--current_path" d="M66.77,64.12c1.12,0.51,1.79,2.31,2.01,3.34c0.22,1.03,0,19.12-0.22,25.54" id="kvg:06f81-s14" kvg:type="㇑a" transform="matrix(1,0,0,1,1296,-4)" xmlns:kvg="http://kanjivg.tagaini.net"></path><path class="stroke_order_diagram--current_path" d="M66.77,64.12c1.12,0.51,1.79,2.31,2.01,3.34c0.22,1.03,0,19.12-0.22,25.54" id="Ske2pbvjf4n" kvg:type="㇑a" transform="matrix(1,0,0,1,1296,-4)" xmlns:kvg="http://kanjivg.tagaini.net"></path><circle class="stroke_order_diagram--path_start" cx="66.77" cy="64.12" r="4" transform="matrix(1,0,0,1,1296,-4)"></circle><line class="stroke_order_diagram--guide_line" x1="1450" x2="1450" y1="1" y2="99"></line><line class="stroke_order_diagram--bounding_box" x1="1499" x2="1499" y1="1" y2="99"></line><path class="stroke_order_diagram--existing_path" d="M18.13,15.75c4.45,1.56,11.5,6.41,12.62,8.84" id="Ske2pbvjf4q" kvg:type="㇔" transform="matrix(1,0,0,1,1396,-4)" xmlns:kvg="http://kanjivg.tagaini.net"></path><path class="stroke_order_diagram--existing_path" d="M12.25,40.75c4.85,1.9,12.54,7.8,13.75,10.75" id="Ske2pbvjf4r" kvg:type="㇔" transform="matrix(1,0,0,1,1396,-4)" xmlns:kvg="http://kanjivg.tagaini.net"></path><path class="stroke_order_diagram--existing_path" d="M13.25,88.23c1.71,1.27,3.93,1.42,4.86-0.25C22,81,24.75,75.25,27.25,68.5" id="Ske2pbvjf4s" kvg:type="㇀" transform="matrix(1,0,0,1,1396,-4)" xmlns:kvg="http://kanjivg.tagaini.net"></path><path class="stroke_order_diagram--existing_path" d="M64.63,11.5c1.04,0.48,1.66,2.14,1.87,3.1c0.21,0.95,0,18.88-0.21,24.83" id="Ske2pbvjf4t" kvg:type="㇑a" transform="matrix(1,0,0,1,1396,-4)" xmlns:kvg="http://kanjivg.tagaini.net"></path><path class="stroke_order_diagram--existing_path" d="M66.67,25.02c6-0.63,15.07-1.4,20.96-2.03c1.46-0.16,1.83-0.21,2.75,0" id="Ske2pbvjf4u" kvg:type="㇐b" transform="matrix(1,0,0,1,1396,-4)" xmlns:kvg="http://kanjivg.tagaini.net"></path><path class="stroke_order_diagram--existing_path" d="M47.64,19.5c1.04,0.48,1.66,2.14,1.87,3.1c0.21,0.95,0,12.38-0.21,18.34" id="Ske2pbvjf4v" kvg:type="㇑a" transform="matrix(1,0,0,1,1396,-4)" xmlns:kvg="http://kanjivg.tagaini.net"></path><path class="stroke_order_diagram--existing_path" d="M34.15,41.16c0.64,0.19,2.36,0.66,4.07,0.59c9.23-0.39,41.12-3.41,52.85-3.41c1.72,0,4.69,0.39,5.67,0.59" id="Ske2pbvjf4w" kvg:type="㇐" transform="matrix(1,0,0,1,1396,-4)" xmlns:kvg="http://kanjivg.tagaini.net"></path><path class="stroke_order_diagram--existing_path" d="M46.21,51.59c0.94,0.43,1.5,1.94,1.69,2.8c0.19,0.86-0.19,23.36-0.19,31.82" id="Ske2pbvjf4x" kvg:type="㇑" transform="matrix(1,0,0,1,1396,-4)" xmlns:kvg="http://kanjivg.tagaini.net"></path><path class="stroke_order_diagram--existing_path" d="M47.97,67.16c4.16-0.44,6.94-1.31,11.02-1.75c1.01-0.11,1.27-0.15,1.91,0" id="Ske2pbvjf4y" kvg:type="㇐" transform="matrix(1,0,0,1,1396,-4)" xmlns:kvg="http://kanjivg.tagaini.net"></path><path class="stroke_order_diagram--existing_path" d="M35.99,65.84c0.81,0.37,1.29,1.67,1.45,2.41c0.16,0.74,0,16.55-0.16,21.18" id="Ske2pbvjf4z" kvg:type="㇑" transform="matrix(1,0,0,1,1396,-4)" xmlns:kvg="http://kanjivg.tagaini.net"></path><path class="stroke_order_diagram--existing_path" d="M29.5,90.44c0.34,0.5,2.28,1.29,3.17,1.01c6.08-1.94,20.33-7.19,26.6-9.56" id="Ske2pbvjf50" kvg:type="㇀/㇐" transform="matrix(1,0,0,1,1396,-4)" xmlns:kvg="http://kanjivg.tagaini.net"></path><path class="stroke_order_diagram--existing_path" d="M78.58,49.18c1.04,0.48,1.87,2.12,1.87,3.1c0,9.72-0.21,32.97-0.21,39.88" id="Ske2pbvjf51" kvg:type="㇑a" transform="matrix(1,0,0,1,1396,-4)" xmlns:kvg="http://kanjivg.tagaini.net"></path><path class="stroke_order_diagram--existing_path" d="M80.56,69.62c4.77-0.5,7.97-1.01,12.65-1.51c1.16-0.12,1.46-0.17,2.19,0" id="Ske2pbvjf52" kvg:type="㇐b" transform="matrix(1,0,0,1,1396,-4)" xmlns:kvg="http://kanjivg.tagaini.net"></path><path class="stroke_order_diagram--existing_path" d="M66.77,64.12c1.12,0.51,1.79,2.31,2.01,3.34c0.22,1.03,0,19.12-0.22,25.54" id="Ske2pbvjf53" kvg:type="㇑a" transform="matrix(1,0,0,1,1396,-4)" xmlns:kvg="http://kanjivg.tagaini.net"></path><path class="stroke_order_diagram--current_path" d="M55.25,93.75c0.55,0.17,2.02,0.56,3.49,0.5c7.9-0.33,24.36-1.85,34.41-1.85c1.47,0,4.02,0.33,4.86,0.5" id="kvg:06f81-s15" kvg:type="㇐" transform="matrix(1,0,0,1,1396,-4)" xmlns:kvg="http://kanjivg.tagaini.net"></path><path class="stroke_order_diagram--current_path" d="M55.25,93.75c0.55,0.17,2.02,0.56,3.49,0.5c7.9-0.33,24.36-1.85,34.41-1.85c1.47,0,4.02,0.33,4.86,0.5" id="Ske2pbvjf55" kvg:type="㇐" transform="matrix(1,0,0,1,1396,-4)" xmlns:kvg="http://kanjivg.tagaini.net"></path><circle class="stroke_order_diagram--path_start" cx="55.25" cy="93.75" r="4" transform="matrix(1,0,0,1,1396,-4)"></circle></svg>