<svg class="stroke_order_diagram--svg_container_for_518662afd5dda79658001147" style="height: 100px; width: 2000px;" viewbox="0 0 2000 100"><desc>Created with Snap</desc><defs></defs><line class="stroke_order_diagram--bounding_box" x1="1" x2="1999" y1="1" y2="1"></line><line class="stroke_order_diagram--bounding_box" x1="1" x2="1" y1="1" y2="99"></line><line class="stroke_order_diagram--bounding_box" x1="1" x2="1999" y1="99" y2="99"></line><line class="stroke_order_diagram--guide_line" x1="0" x2="2000" y1="50" y2="50"></line><line class="stroke_order_diagram--guide_line" x1="50" x2="50" y1="1" y2="99"></line><line class="stroke_order_diagram--bounding_box" x1="99" x2="99" y1="1" y2="99"></line><path class="stroke_order_diagram--current_path" d="M15.63,14.25c3.92,1.74,10.13,7.14,11.12,9.84" id="kvg:07030-s1" kvg:type="㇔" transform="matrix(1,0,0,1,-4,-4)" xmlns:kvg="http://kanjivg.tagaini.net"></path><path class="stroke_order_diagram--current_path" d="M15.63,14.25c3.92,1.74,10.13,7.14,11.12,9.84" id="Ske2pnt1jt" kvg:type="㇔" transform="matrix(1,0,0,1,-4,-4)" xmlns:kvg="http://kanjivg.tagaini.net"></path><circle class="stroke_order_diagram--path_start" cx="15.63" cy="14.25" r="4" transform="matrix(1,0,0,1,-4,-4)"></circle><line class="stroke_order_diagram--guide_line" x1="150" x2="150" y1="1" y2="99"></line><line class="stroke_order_diagram--bounding_box" x1="199" x2="199" y1="1" y2="99"></line><path class="stroke_order_diagram--existing_path" d="M15.63,14.25c3.92,1.74,10.13,7.14,11.12,9.84" id="Ske2pnt1jw" kvg:type="㇔" transform="matrix(1,0,0,1,96,-4)" xmlns:kvg="http://kanjivg.tagaini.net"></path><path class="stroke_order_diagram--current_path" d="M12.25,42.5c4.15,1.41,10.71,5.8,11.75,8" id="kvg:07030-s2" kvg:type="㇔" transform="matrix(1,0,0,1,96,-4)" xmlns:kvg="http://kanjivg.tagaini.net"></path><path class="stroke_order_diagram--current_path" d="M12.25,42.5c4.15,1.41,10.71,5.8,11.75,8" id="Ske2pnt1jy" kvg:type="㇔" transform="matrix(1,0,0,1,96,-4)" xmlns:kvg="http://kanjivg.tagaini.net"></path><circle class="stroke_order_diagram--path_start" cx="12.25" cy="42.5" r="4" transform="matrix(1,0,0,1,96,-4)"></circle><line class="stroke_order_diagram--guide_line" x1="250" x2="250" y1="1" y2="99"></line><line class="stroke_order_diagram--bounding_box" x1="299" x2="299" y1="1" y2="99"></line><path class="stroke_order_diagram--existing_path" d="M15.63,14.25c3.92,1.74,10.13,7.14,11.12,9.84" id="Ske2pnt1j11" kvg:type="㇔" transform="matrix(1,0,0,1,196,-4)" xmlns:kvg="http://kanjivg.tagaini.net"></path><path class="stroke_order_diagram--existing_path" d="M12.25,42.5c4.15,1.41,10.71,5.8,11.75,8" id="Ske2pnt1j12" kvg:type="㇔" transform="matrix(1,0,0,1,196,-4)" xmlns:kvg="http://kanjivg.tagaini.net"></path><path class="stroke_order_diagram--current_path" d="M10.75,87.73c1.71,1.27,3.78,1.32,4.86-0.25c3.14-4.57,6.79-10.66,9.64-16.49" id="kvg:07030-s3" kvg:type="㇀" transform="matrix(1,0,0,1,196,-4)" xmlns:kvg="http://kanjivg.tagaini.net"></path><path class="stroke_order_diagram--current_path" d="M10.75,87.73c1.71,1.27,3.78,1.32,4.86-0.25c3.14-4.57,6.79-10.66,9.64-16.49" id="Ske2pnt1j14" kvg:type="㇀" transform="matrix(1,0,0,1,196,-4)" xmlns:kvg="http://kanjivg.tagaini.net"></path><circle class="stroke_order_diagram--path_start" cx="10.75" cy="87.73" r="4" transform="matrix(1,0,0,1,196,-4)"></circle><line class="stroke_order_diagram--guide_line" x1="350" x2="350" y1="1" y2="99"></line><line class="stroke_order_diagram--bounding_box" x1="399" x2="399" y1="1" y2="99"></line><path class="stroke_order_diagram--existing_path" d="M15.63,14.25c3.92,1.74,10.13,7.14,11.12,9.84" id="Ske2pnt1j17" kvg:type="㇔" transform="matrix(1,0,0,1,296,-4)" xmlns:kvg="http://kanjivg.tagaini.net"></path><path class="stroke_order_diagram--existing_path" d="M12.25,42.5c4.15,1.41,10.71,5.8,11.75,8" id="Ske2pnt1j18" kvg:type="㇔" transform="matrix(1,0,0,1,296,-4)" xmlns:kvg="http://kanjivg.tagaini.net"></path><path class="stroke_order_diagram--existing_path" d="M10.75,87.73c1.71,1.27,3.78,1.32,4.86-0.25c3.14-4.57,6.79-10.66,9.64-16.49" id="Ske2pnt1j19" kvg:type="㇀" transform="matrix(1,0,0,1,296,-4)" xmlns:kvg="http://kanjivg.tagaini.net"></path><path class="stroke_order_diagram--current_path" d="M31.25,19.59c0.66,0.66,3.06,1.26,4.09,1.04c1.8-0.38,9.16-1.13,12.5-1.79c2.18-0.43,3.35,1.34,2.52,3.39c-0.61,1.49-1.86,7.46-2.72,11.74c-0.32,1.6-0.58,2.96-0.73,3.77" id="kvg:07030-s4" kvg:type="㇕c" transform="matrix(1,0,0,1,296,-4)" xmlns:kvg="http://kanjivg.tagaini.net"></path><path class="stroke_order_diagram--current_path" d="M31.25,19.59c0.66,0.66,3.06,1.26,4.09,1.04c1.8-0.38,9.16-1.13,12.5-1.79c2.18-0.43,3.35,1.34,2.52,3.39c-0.61,1.49-1.86,7.46-2.72,11.74c-0.32,1.6-0.58,2.96-0.73,3.77" id="Ske2pnt1j1b" kvg:type="㇕c" transform="matrix(1,0,0,1,296,-4)" xmlns:kvg="http://kanjivg.tagaini.net"></path><circle class="stroke_order_diagram--path_start" cx="31.25" cy="19.59" r="4" transform="matrix(1,0,0,1,296,-4)"></circle><line class="stroke_order_diagram--guide_line" x1="450" x2="450" y1="1" y2="99"></line><line class="stroke_order_diagram--bounding_box" x1="499" x2="499" y1="1" y2="99"></line><path class="stroke_order_diagram--existing_path" d="M15.63,14.25c3.92,1.74,10.13,7.14,11.12,9.84" id="Ske2pnt1j1e" kvg:type="㇔" transform="matrix(1,0,0,1,396,-4)" xmlns:kvg="http://kanjivg.tagaini.net"></path><path class="stroke_order_diagram--existing_path" d="M12.25,42.5c4.15,1.41,10.71,5.8,11.75,8" id="Ske2pnt1j1f" kvg:type="㇔" transform="matrix(1,0,0,1,396,-4)" xmlns:kvg="http://kanjivg.tagaini.net"></path><path class="stroke_order_diagram--existing_path" d="M10.75,87.73c1.71,1.27,3.78,1.32,4.86-0.25c3.14-4.57,6.79-10.66,9.64-16.49" id="Ske2pnt1j1g" kvg:type="㇀" transform="matrix(1,0,0,1,396,-4)" xmlns:kvg="http://kanjivg.tagaini.net"></path><path class="stroke_order_diagram--existing_path" d="M31.25,19.59c0.66,0.66,3.06,1.26,4.09,1.04c1.8-0.38,9.16-1.13,12.5-1.79c2.18-0.43,3.35,1.34,2.52,3.39c-0.61,1.49-1.86,7.46-2.72,11.74c-0.32,1.6-0.58,2.96-0.73,3.77" id="Ske2pnt1j1h" kvg:type="㇕c" transform="matrix(1,0,0,1,396,-4)" xmlns:kvg="http://kanjivg.tagaini.net"></path><path class="stroke_order_diagram--current_path" d="M34.75,39.75c1.75,0,9-1,10.25-1s2.5-0.5,3.5-0.5" id="kvg:07030-s5" kvg:type="㇐" transform="matrix(1,0,0,1,396,-4)" xmlns:kvg="http://kanjivg.tagaini.net"></path><path class="stroke_order_diagram--current_path" d="M34.75,39.75c1.75,0,9-1,10.25-1s2.5-0.5,3.5-0.5" id="Ske2pnt1j1j" kvg:type="㇐" transform="matrix(1,0,0,1,396,-4)" xmlns:kvg="http://kanjivg.tagaini.net"></path><circle class="stroke_order_diagram--path_start" cx="34.75" cy="39.75" r="4" transform="matrix(1,0,0,1,396,-4)"></circle><line class="stroke_order_diagram--guide_line" x1="550" x2="550" y1="1" y2="99"></line><line class="stroke_order_diagram--bounding_box" x1="599" x2="599" y1="1" y2="99"></line><path class="stroke_order_diagram--existing_path" d="M15.63,14.25c3.92,1.74,10.13,7.14,11.12,9.84" id="Ske2pnt1j1m" kvg:type="㇔" transform="matrix(1,0,0,1,496,-4)" xmlns:kvg="http://kanjivg.tagaini.net"></path><path class="stroke_order_diagram--existing_path" d="M12.25,42.5c4.15,1.41,10.71,5.8,11.75,8" id="Ske2pnt1j1n" kvg:type="㇔" transform="matrix(1,0,0,1,496,-4)" xmlns:kvg="http://kanjivg.tagaini.net"></path><path class="stroke_order_diagram--existing_path" d="M10.75,87.73c1.71,1.27,3.78,1.32,4.86-0.25c3.14-4.57,6.79-10.66,9.64-16.49" id="Ske2pnt1j1o" kvg:type="㇀" transform="matrix(1,0,0,1,496,-4)" xmlns:kvg="http://kanjivg.tagaini.net"></path><path class="stroke_order_diagram--existing_path" d="M31.25,19.59c0.66,0.66,3.06,1.26,4.09,1.04c1.8-0.38,9.16-1.13,12.5-1.79c2.18-0.43,3.35,1.34,2.52,3.39c-0.61,1.49-1.86,7.46-2.72,11.74c-0.32,1.6-0.58,2.96-0.73,3.77" id="Ske2pnt1j1p" kvg:type="㇕c" transform="matrix(1,0,0,1,496,-4)" xmlns:kvg="http://kanjivg.tagaini.net"></path><path class="stroke_order_diagram--existing_path" d="M34.75,39.75c1.75,0,9-1,10.25-1s2.5-0.5,3.5-0.5" id="Ske2pnt1j1q" kvg:type="㇐" transform="matrix(1,0,0,1,496,-4)" xmlns:kvg="http://kanjivg.tagaini.net"></path><path class="stroke_order_diagram--current_path" d="M 34.067916,39.2075 c 0.5,0.97 0.96,2.1 0.63,3.63 -0.37,1.76 -2.05,7.51 -2.93,11.32 -0.6,2.59 0.35,2.91 1.83,2.41 3.54,-1.22 9.957292,-2.955833 12.677292,-3.125833 2.21,-0.14 3.32,1.28 3.1,4.6 -0.69,10.5 -3.453542,23.297917 -8.683542,35.627917 -1.81,4.250005 -4.89,2.42 -6.34,-1.53" id="kvg:07030-s6" kvg:type="㇉" transform="matrix(1,0,0,1,496,-4)" xmlns:kvg="http://kanjivg.tagaini.net"></path><path class="stroke_order_diagram--current_path" d="M 34.067916,39.2075 c 0.5,0.97 0.96,2.1 0.63,3.63 -0.37,1.76 -2.05,7.51 -2.93,11.32 -0.6,2.59 0.35,2.91 1.83,2.41 3.54,-1.22 9.957292,-2.955833 12.677292,-3.125833 2.21,-0.14 3.32,1.28 3.1,4.6 -0.69,10.5 -3.453542,23.297917 -8.683542,35.627917 -1.81,4.250005 -4.89,2.42 -6.34,-1.53" id="Ske2pnt1j1s" kvg:type="㇉" transform="matrix(1,0,0,1,496,-4)" xmlns:kvg="http://kanjivg.tagaini.net"></path><circle class="stroke_order_diagram--path_start" cx="34.067916" cy="39.2075" r="4" transform="matrix(1,0,0,1,496,-4)"></circle><line class="stroke_order_diagram--guide_line" x1="650" x2="650" y1="1" y2="99"></line><line class="stroke_order_diagram--bounding_box" x1="699" x2="699" y1="1" y2="99"></line><path class="stroke_order_diagram--existing_path" d="M15.63,14.25c3.92,1.74,10.13,7.14,11.12,9.84" id="Ske2pnt1j1v" kvg:type="㇔" transform="matrix(1,0,0,1,596,-4)" xmlns:kvg="http://kanjivg.tagaini.net"></path><path class="stroke_order_diagram--existing_path" d="M12.25,42.5c4.15,1.41,10.71,5.8,11.75,8" id="Ske2pnt1j1w" kvg:type="㇔" transform="matrix(1,0,0,1,596,-4)" xmlns:kvg="http://kanjivg.tagaini.net"></path><path class="stroke_order_diagram--existing_path" d="M10.75,87.73c1.71,1.27,3.78,1.32,4.86-0.25c3.14-4.57,6.79-10.66,9.64-16.49" id="Ske2pnt1j1x" kvg:type="㇀" transform="matrix(1,0,0,1,596,-4)" xmlns:kvg="http://kanjivg.tagaini.net"></path><path class="stroke_order_diagram--existing_path" d="M31.25,19.59c0.66,0.66,3.06,1.26,4.09,1.04c1.8-0.38,9.16-1.13,12.5-1.79c2.18-0.43,3.35,1.34,2.52,3.39c-0.61,1.49-1.86,7.46-2.72,11.74c-0.32,1.6-0.58,2.96-0.73,3.77" id="Ske2pnt1j1y" kvg:type="㇕c" transform="matrix(1,0,0,1,596,-4)" xmlns:kvg="http://kanjivg.tagaini.net"></path><path class="stroke_order_diagram--existing_path" d="M34.75,39.75c1.75,0,9-1,10.25-1s2.5-0.5,3.5-0.5" id="Ske2pnt1j1z" kvg:type="㇐" transform="matrix(1,0,0,1,596,-4)" xmlns:kvg="http://kanjivg.tagaini.net"></path><path class="stroke_order_diagram--existing_path" d="M 34.067916,39.2075 c 0.5,0.97 0.96,2.1 0.63,3.63 -0.37,1.76 -2.05,7.51 -2.93,11.32 -0.6,2.59 0.35,2.91 1.83,2.41 3.54,-1.22 9.957292,-2.955833 12.677292,-3.125833 2.21,-0.14 3.32,1.28 3.1,4.6 -0.69,10.5 -3.453542,23.297917 -8.683542,35.627917 -1.81,4.250005 -4.89,2.42 -6.34,-1.53" id="Ske2pnt1j20" kvg:type="㇉" transform="matrix(1,0,0,1,596,-4)" xmlns:kvg="http://kanjivg.tagaini.net"></path><path class="stroke_order_diagram--current_path" d="M57.36,17.69c1.18,0.52,3.35,0.63,4.53,0.52c11.14-1.08,21.6-2.96,30.19-3.15c1.97-0.04,3.16,0.25,4.14,0.5" id="kvg:07030-s7" kvg:type="㇐" transform="matrix(1,0,0,1,596,-4)" xmlns:kvg="http://kanjivg.tagaini.net"></path><path class="stroke_order_diagram--current_path" d="M57.36,17.69c1.18,0.52,3.35,0.63,4.53,0.52c11.14-1.08,21.6-2.96,30.19-3.15c1.97-0.04,3.16,0.25,4.14,0.5" id="Ske2pnt1j22" kvg:type="㇐" transform="matrix(1,0,0,1,596,-4)" xmlns:kvg="http://kanjivg.tagaini.net"></path><circle class="stroke_order_diagram--path_start" cx="57.36" cy="17.69" r="4" transform="matrix(1,0,0,1,596,-4)"></circle><line class="stroke_order_diagram--guide_line" x1="750" x2="750" y1="1" y2="99"></line><line class="stroke_order_diagram--bounding_box" x1="799" x2="799" y1="1" y2="99"></line><path class="stroke_order_diagram--existing_path" d="M15.63,14.25c3.92,1.74,10.13,7.14,11.12,9.84" id="Ske2pnt1j25" kvg:type="㇔" transform="matrix(1,0,0,1,696,-4)" xmlns:kvg="http://kanjivg.tagaini.net"></path><path class="stroke_order_diagram--existing_path" d="M12.25,42.5c4.15,1.41,10.71,5.8,11.75,8" id="Ske2pnt1j26" kvg:type="㇔" transform="matrix(1,0,0,1,696,-4)" xmlns:kvg="http://kanjivg.tagaini.net"></path><path class="stroke_order_diagram--existing_path" d="M10.75,87.73c1.71,1.27,3.78,1.32,4.86-0.25c3.14-4.57,6.79-10.66,9.64-16.49" id="Ske2pnt1j27" kvg:type="㇀" transform="matrix(1,0,0,1,696,-4)" xmlns:kvg="http://kanjivg.tagaini.net"></path><path class="stroke_order_diagram--existing_path" d="M31.25,19.59c0.66,0.66,3.06,1.26,4.09,1.04c1.8-0.38,9.16-1.13,12.5-1.79c2.18-0.43,3.35,1.34,2.52,3.39c-0.61,1.49-1.86,7.46-2.72,11.74c-0.32,1.6-0.58,2.96-0.73,3.77" id="Ske2pnt1j28" kvg:type="㇕c" transform="matrix(1,0,0,1,696,-4)" xmlns:kvg="http://kanjivg.tagaini.net"></path><path class="stroke_order_diagram--existing_path" d="M34.75,39.75c1.75,0,9-1,10.25-1s2.5-0.5,3.5-0.5" id="Ske2pnt1j29" kvg:type="㇐" transform="matrix(1,0,0,1,696,-4)" xmlns:kvg="http://kanjivg.tagaini.net"></path><path class="stroke_order_diagram--existing_path" d="M 34.067916,39.2075 c 0.5,0.97 0.96,2.1 0.63,3.63 -0.37,1.76 -2.05,7.51 -2.93,11.32 -0.6,2.59 0.35,2.91 1.83,2.41 3.54,-1.22 9.957292,-2.955833 12.677292,-3.125833 2.21,-0.14 3.32,1.28 3.1,4.6 -0.69,10.5 -3.453542,23.297917 -8.683542,35.627917 -1.81,4.250005 -4.89,2.42 -6.34,-1.53" id="Ske2pnt1j2a" kvg:type="㇉" transform="matrix(1,0,0,1,696,-4)" xmlns:kvg="http://kanjivg.tagaini.net"></path><path class="stroke_order_diagram--existing_path" d="M57.36,17.69c1.18,0.52,3.35,0.63,4.53,0.52c11.14-1.08,21.6-2.96,30.19-3.15c1.97-0.04,3.16,0.25,4.14,0.5" id="Ske2pnt1j2b" kvg:type="㇐" transform="matrix(1,0,0,1,696,-4)" xmlns:kvg="http://kanjivg.tagaini.net"></path><path class="stroke_order_diagram--current_path" d="M65.66,24.64c0.09,0.77-0.16,1.44-0.75,1.99c-1.67,2.13-5.78,5.43-11.09,7.58" id="kvg:07030-s8" kvg:type="㇒" transform="matrix(1,0,0,1,696,-4)" xmlns:kvg="http://kanjivg.tagaini.net"></path><path class="stroke_order_diagram--current_path" d="M65.66,24.64c0.09,0.77-0.16,1.44-0.75,1.99c-1.67,2.13-5.78,5.43-11.09,7.58" id="Ske2pnt1j2d" kvg:type="㇒" transform="matrix(1,0,0,1,696,-4)" xmlns:kvg="http://kanjivg.tagaini.net"></path><circle class="stroke_order_diagram--path_start" cx="65.66" cy="24.64" r="4" transform="matrix(1,0,0,1,696,-4)"></circle><line class="stroke_order_diagram--guide_line" x1="850" x2="850" y1="1" y2="99"></line><line class="stroke_order_diagram--bounding_box" x1="899" x2="899" y1="1" y2="99"></line><path class="stroke_order_diagram--existing_path" d="M15.63,14.25c3.92,1.74,10.13,7.14,11.12,9.84" id="Ske2pnt1j2g" kvg:type="㇔" transform="matrix(1,0,0,1,796,-4)" xmlns:kvg="http://kanjivg.tagaini.net"></path><path class="stroke_order_diagram--existing_path" d="M12.25,42.5c4.15,1.41,10.71,5.8,11.75,8" id="Ske2pnt1j2h" kvg:type="㇔" transform="matrix(1,0,0,1,796,-4)" xmlns:kvg="http://kanjivg.tagaini.net"></path><path class="stroke_order_diagram--existing_path" d="M10.75,87.73c1.71,1.27,3.78,1.32,4.86-0.25c3.14-4.57,6.79-10.66,9.64-16.49" id="Ske2pnt1j2i" kvg:type="㇀" transform="matrix(1,0,0,1,796,-4)" xmlns:kvg="http://kanjivg.tagaini.net"></path><path class="stroke_order_diagram--existing_path" d="M31.25,19.59c0.66,0.66,3.06,1.26,4.09,1.04c1.8-0.38,9.16-1.13,12.5-1.79c2.18-0.43,3.35,1.34,2.52,3.39c-0.61,1.49-1.86,7.46-2.72,11.74c-0.32,1.6-0.58,2.96-0.73,3.77" id="Ske2pnt1j2j" kvg:type="㇕c" transform="matrix(1,0,0,1,796,-4)" xmlns:kvg="http://kanjivg.tagaini.net"></path><path class="stroke_order_diagram--existing_path" d="M34.75,39.75c1.75,0,9-1,10.25-1s2.5-0.5,3.5-0.5" id="Ske2pnt1j2k" kvg:type="㇐" transform="matrix(1,0,0,1,796,-4)" xmlns:kvg="http://kanjivg.tagaini.net"></path><path class="stroke_order_diagram--existing_path" d="M 34.067916,39.2075 c 0.5,0.97 0.96,2.1 0.63,3.63 -0.37,1.76 -2.05,7.51 -2.93,11.32 -0.6,2.59 0.35,2.91 1.83,2.41 3.54,-1.22 9.957292,-2.955833 12.677292,-3.125833 2.21,-0.14 3.32,1.28 3.1,4.6 -0.69,10.5 -3.453542,23.297917 -8.683542,35.627917 -1.81,4.250005 -4.89,2.42 -6.34,-1.53" id="Ske2pnt1j2l" kvg:type="㇉" transform="matrix(1,0,0,1,796,-4)" xmlns:kvg="http://kanjivg.tagaini.net"></path><path class="stroke_order_diagram--existing_path" d="M57.36,17.69c1.18,0.52,3.35,0.63,4.53,0.52c11.14-1.08,21.6-2.96,30.19-3.15c1.97-0.04,3.16,0.25,4.14,0.5" id="Ske2pnt1j2m" kvg:type="㇐" transform="matrix(1,0,0,1,796,-4)" xmlns:kvg="http://kanjivg.tagaini.net"></path><path class="stroke_order_diagram--existing_path" d="M65.66,24.64c0.09,0.77-0.16,1.44-0.75,1.99c-1.67,2.13-5.78,5.43-11.09,7.58" id="Ske2pnt1j2n" kvg:type="㇒" transform="matrix(1,0,0,1,796,-4)" xmlns:kvg="http://kanjivg.tagaini.net"></path><path class="stroke_order_diagram--current_path" d="M84.01,23.08c4.87,1.35,12.58,5.54,13.8,7.63" id="kvg:07030-s9" kvg:type="㇏" transform="matrix(1,0,0,1,796,-4)" xmlns:kvg="http://kanjivg.tagaini.net"></path><path class="stroke_order_diagram--current_path" d="M84.01,23.08c4.87,1.35,12.58,5.54,13.8,7.63" id="Ske2pnt1j2p" kvg:type="㇏" transform="matrix(1,0,0,1,796,-4)" xmlns:kvg="http://kanjivg.tagaini.net"></path><circle class="stroke_order_diagram--path_start" cx="84.01" cy="23.08" r="4" transform="matrix(1,0,0,1,796,-4)"></circle><line class="stroke_order_diagram--guide_line" x1="950" x2="950" y1="1" y2="99"></line><line class="stroke_order_diagram--bounding_box" x1="999" x2="999" y1="1" y2="99"></line><path class="stroke_order_diagram--existing_path" d="M15.63,14.25c3.92,1.74,10.13,7.14,11.12,9.84" id="Ske2pnt1j2s" kvg:type="㇔" transform="matrix(1,0,0,1,896,-4)" xmlns:kvg="http://kanjivg.tagaini.net"></path><path class="stroke_order_diagram--existing_path" d="M12.25,42.5c4.15,1.41,10.71,5.8,11.75,8" id="Ske2pnt1j2t" kvg:type="㇔" transform="matrix(1,0,0,1,896,-4)" xmlns:kvg="http://kanjivg.tagaini.net"></path><path class="stroke_order_diagram--existing_path" d="M10.75,87.73c1.71,1.27,3.78,1.32,4.86-0.25c3.14-4.57,6.79-10.66,9.64-16.49" id="Ske2pnt1j2u" kvg:type="㇀" transform="matrix(1,0,0,1,896,-4)" xmlns:kvg="http://kanjivg.tagaini.net"></path><path class="stroke_order_diagram--existing_path" d="M31.25,19.59c0.66,0.66,3.06,1.26,4.09,1.04c1.8-0.38,9.16-1.13,12.5-1.79c2.18-0.43,3.35,1.34,2.52,3.39c-0.61,1.49-1.86,7.46-2.72,11.74c-0.32,1.6-0.58,2.96-0.73,3.77" id="Ske2pnt1j2v" kvg:type="㇕c" transform="matrix(1,0,0,1,896,-4)" xmlns:kvg="http://kanjivg.tagaini.net"></path><path class="stroke_order_diagram--existing_path" d="M34.75,39.75c1.75,0,9-1,10.25-1s2.5-0.5,3.5-0.5" id="Ske2pnt1j2w" kvg:type="㇐" transform="matrix(1,0,0,1,896,-4)" xmlns:kvg="http://kanjivg.tagaini.net"></path><path class="stroke_order_diagram--existing_path" d="M 34.067916,39.2075 c 0.5,0.97 0.96,2.1 0.63,3.63 -0.37,1.76 -2.05,7.51 -2.93,11.32 -0.6,2.59 0.35,2.91 1.83,2.41 3.54,-1.22 9.957292,-2.955833 12.677292,-3.125833 2.21,-0.14 3.32,1.28 3.1,4.6 -0.69,10.5 -3.453542,23.297917 -8.683542,35.627917 -1.81,4.250005 -4.89,2.42 -6.34,-1.53" id="Ske2pnt1j2x" kvg:type="㇉" transform="matrix(1,0,0,1,896,-4)" xmlns:kvg="http://kanjivg.tagaini.net"></path><path class="stroke_order_diagram--existing_path" d="M57.36,17.69c1.18,0.52,3.35,0.63,4.53,0.52c11.14-1.08,21.6-2.96,30.19-3.15c1.97-0.04,3.16,0.25,4.14,0.5" id="Ske2pnt1j2y" kvg:type="㇐" transform="matrix(1,0,0,1,896,-4)" xmlns:kvg="http://kanjivg.tagaini.net"></path><path class="stroke_order_diagram--existing_path" d="M65.66,24.64c0.09,0.77-0.16,1.44-0.75,1.99c-1.67,2.13-5.78,5.43-11.09,7.58" id="Ske2pnt1j2z" kvg:type="㇒" transform="matrix(1,0,0,1,896,-4)" xmlns:kvg="http://kanjivg.tagaini.net"></path><path class="stroke_order_diagram--existing_path" d="M84.01,23.08c4.87,1.35,12.58,5.54,13.8,7.63" id="Ske2pnt1j30" kvg:type="㇏" transform="matrix(1,0,0,1,896,-4)" xmlns:kvg="http://kanjivg.tagaini.net"></path><path class="stroke_order_diagram--current_path" d="M55,39.13c0.64,1.12,0.85,2.78,0.85,4.73c0,5.35,0.09,33.84,0.12,46.39c0.01,3.02,0.01,5.12,0.01,5.75" id="kvg:07030-s10" kvg:type="㇑" transform="matrix(1,0,0,1,896,-4)" xmlns:kvg="http://kanjivg.tagaini.net"></path><path class="stroke_order_diagram--current_path" d="M55,39.13c0.64,1.12,0.85,2.78,0.85,4.73c0,5.35,0.09,33.84,0.12,46.39c0.01,3.02,0.01,5.12,0.01,5.75" id="Ske2pnt1j32" kvg:type="㇑" transform="matrix(1,0,0,1,896,-4)" xmlns:kvg="http://kanjivg.tagaini.net"></path><circle class="stroke_order_diagram--path_start" cx="55" cy="39.13" r="4" transform="matrix(1,0,0,1,896,-4)"></circle><line class="stroke_order_diagram--guide_line" x1="1050" x2="1050" y1="1" y2="99"></line><line class="stroke_order_diagram--bounding_box" x1="1099" x2="1099" y1="1" y2="99"></line><path class="stroke_order_diagram--existing_path" d="M15.63,14.25c3.92,1.74,10.13,7.14,11.12,9.84" id="Ske2pnt1j35" kvg:type="㇔" transform="matrix(1,0,0,1,996,-4)" xmlns:kvg="http://kanjivg.tagaini.net"></path><path class="stroke_order_diagram--existing_path" d="M12.25,42.5c4.15,1.41,10.71,5.8,11.75,8" id="Ske2pnt1j36" kvg:type="㇔" transform="matrix(1,0,0,1,996,-4)" xmlns:kvg="http://kanjivg.tagaini.net"></path><path class="stroke_order_diagram--existing_path" d="M10.75,87.73c1.71,1.27,3.78,1.32,4.86-0.25c3.14-4.57,6.79-10.66,9.64-16.49" id="Ske2pnt1j37" kvg:type="㇀" transform="matrix(1,0,0,1,996,-4)" xmlns:kvg="http://kanjivg.tagaini.net"></path><path class="stroke_order_diagram--existing_path" d="M31.25,19.59c0.66,0.66,3.06,1.26,4.09,1.04c1.8-0.38,9.16-1.13,12.5-1.79c2.18-0.43,3.35,1.34,2.52,3.39c-0.61,1.49-1.86,7.46-2.72,11.74c-0.32,1.6-0.58,2.96-0.73,3.77" id="Ske2pnt1j38" kvg:type="㇕c" transform="matrix(1,0,0,1,996,-4)" xmlns:kvg="http://kanjivg.tagaini.net"></path><path class="stroke_order_diagram--existing_path" d="M34.75,39.75c1.75,0,9-1,10.25-1s2.5-0.5,3.5-0.5" id="Ske2pnt1j39" kvg:type="㇐" transform="matrix(1,0,0,1,996,-4)" xmlns:kvg="http://kanjivg.tagaini.net"></path><path class="stroke_order_diagram--existing_path" d="M 34.067916,39.2075 c 0.5,0.97 0.96,2.1 0.63,3.63 -0.37,1.76 -2.05,7.51 -2.93,11.32 -0.6,2.59 0.35,2.91 1.83,2.41 3.54,-1.22 9.957292,-2.955833 12.677292,-3.125833 2.21,-0.14 3.32,1.28 3.1,4.6 -0.69,10.5 -3.453542,23.297917 -8.683542,35.627917 -1.81,4.250005 -4.89,2.42 -6.34,-1.53" id="Ske2pnt1j3a" kvg:type="㇉" transform="matrix(1,0,0,1,996,-4)" xmlns:kvg="http://kanjivg.tagaini.net"></path><path class="stroke_order_diagram--existing_path" d="M57.36,17.69c1.18,0.52,3.35,0.63,4.53,0.52c11.14-1.08,21.6-2.96,30.19-3.15c1.97-0.04,3.16,0.25,4.14,0.5" id="Ske2pnt1j3b" kvg:type="㇐" transform="matrix(1,0,0,1,996,-4)" xmlns:kvg="http://kanjivg.tagaini.net"></path><path class="stroke_order_diagram--existing_path" d="M65.66,24.64c0.09,0.77-0.16,1.44-0.75,1.99c-1.67,2.13-5.78,5.43-11.09,7.58" id="Ske2pnt1j3c" kvg:type="㇒" transform="matrix(1,0,0,1,996,-4)" xmlns:kvg="http://kanjivg.tagaini.net"></path><path class="stroke_order_diagram--existing_path" d="M84.01,23.08c4.87,1.35,12.58,5.54,13.8,7.63" id="Ske2pnt1j3d" kvg:type="㇏" transform="matrix(1,0,0,1,996,-4)" xmlns:kvg="http://kanjivg.tagaini.net"></path><path class="stroke_order_diagram--existing_path" d="M55,39.13c0.64,1.12,0.85,2.78,0.85,4.73c0,5.35,0.09,33.84,0.12,46.39c0.01,3.02,0.01,5.12,0.01,5.75" id="Ske2pnt1j3e" kvg:type="㇑" transform="matrix(1,0,0,1,996,-4)" xmlns:kvg="http://kanjivg.tagaini.net"></path><path class="stroke_order_diagram--current_path" d="M56.35,40.28c0.92-0.1,2.07-0.23,3.38-0.38c10.15-1.17,30.11-3.66,31.52-3.92c3.4-0.65,5.03,0.52,5.03,3.58c0,3.69-0.15,45.12-0.15,50.06c0,13.12-5.58,4.08-8.12,1.29" id="kvg:07030-s11" kvg:type="㇆a" transform="matrix(1,0,0,1,996,-4)" xmlns:kvg="http://kanjivg.tagaini.net"></path><path class="stroke_order_diagram--current_path" d="M56.35,40.28c0.92-0.1,2.07-0.23,3.38-0.38c10.15-1.17,30.11-3.66,31.52-3.92c3.4-0.65,5.03,0.52,5.03,3.58c0,3.69-0.15,45.12-0.15,50.06c0,13.12-5.58,4.08-8.12,1.29" id="Ske2pnt1j3g" kvg:type="㇆a" transform="matrix(1,0,0,1,996,-4)" xmlns:kvg="http://kanjivg.tagaini.net"></path><circle class="stroke_order_diagram--path_start" cx="56.35" cy="40.28" r="4" transform="matrix(1,0,0,1,996,-4)"></circle><line class="stroke_order_diagram--guide_line" x1="1150" x2="1150" y1="1" y2="99"></line><line class="stroke_order_diagram--bounding_box" x1="1199" x2="1199" y1="1" y2="99"></line><path class="stroke_order_diagram--existing_path" d="M15.63,14.25c3.92,1.74,10.13,7.14,11.12,9.84" id="Ske2pnt1j3j" kvg:type="㇔" transform="matrix(1,0,0,1,1096,-4)" xmlns:kvg="http://kanjivg.tagaini.net"></path><path class="stroke_order_diagram--existing_path" d="M12.25,42.5c4.15,1.41,10.71,5.8,11.75,8" id="Ske2pnt1j3k" kvg:type="㇔" transform="matrix(1,0,0,1,1096,-4)" xmlns:kvg="http://kanjivg.tagaini.net"></path><path class="stroke_order_diagram--existing_path" d="M10.75,87.73c1.71,1.27,3.78,1.32,4.86-0.25c3.14-4.57,6.79-10.66,9.64-16.49" id="Ske2pnt1j3l" kvg:type="㇀" transform="matrix(1,0,0,1,1096,-4)" xmlns:kvg="http://kanjivg.tagaini.net"></path><path class="stroke_order_diagram--existing_path" d="M31.25,19.59c0.66,0.66,3.06,1.26,4.09,1.04c1.8-0.38,9.16-1.13,12.5-1.79c2.18-0.43,3.35,1.34,2.52,3.39c-0.61,1.49-1.86,7.46-2.72,11.74c-0.32,1.6-0.58,2.96-0.73,3.77" id="Ske2pnt1j3m" kvg:type="㇕c" transform="matrix(1,0,0,1,1096,-4)" xmlns:kvg="http://kanjivg.tagaini.net"></path><path class="stroke_order_diagram--existing_path" d="M34.75,39.75c1.75,0,9-1,10.25-1s2.5-0.5,3.5-0.5" id="Ske2pnt1j3n" kvg:type="㇐" transform="matrix(1,0,0,1,1096,-4)" xmlns:kvg="http://kanjivg.tagaini.net"></path><path class="stroke_order_diagram--existing_path" d="M 34.067916,39.2075 c 0.5,0.97 0.96,2.1 0.63,3.63 -0.37,1.76 -2.05,7.51 -2.93,11.32 -0.6,2.59 0.35,2.91 1.83,2.41 3.54,-1.22 9.957292,-2.955833 12.677292,-3.125833 2.21,-0.14 3.32,1.28 3.1,4.6 -0.69,10.5 -3.453542,23.297917 -8.683542,35.627917 -1.81,4.250005 -4.89,2.42 -6.34,-1.53" id="Ske2pnt1j3o" kvg:type="㇉" transform="matrix(1,0,0,1,1096,-4)" xmlns:kvg="http://kanjivg.tagaini.net"></path><path class="stroke_order_diagram--existing_path" d="M57.36,17.69c1.18,0.52,3.35,0.63,4.53,0.52c11.14-1.08,21.6-2.96,30.19-3.15c1.97-0.04,3.16,0.25,4.14,0.5" id="Ske2pnt1j3p" kvg:type="㇐" transform="matrix(1,0,0,1,1096,-4)" xmlns:kvg="http://kanjivg.tagaini.net"></path><path class="stroke_order_diagram--existing_path" d="M65.66,24.64c0.09,0.77-0.16,1.44-0.75,1.99c-1.67,2.13-5.78,5.43-11.09,7.58" id="Ske2pnt1j3q" kvg:type="㇒" transform="matrix(1,0,0,1,1096,-4)" xmlns:kvg="http://kanjivg.tagaini.net"></path><path class="stroke_order_diagram--existing_path" d="M84.01,23.08c4.87,1.35,12.58,5.54,13.8,7.63" id="Ske2pnt1j3r" kvg:type="㇏" transform="matrix(1,0,0,1,1096,-4)" xmlns:kvg="http://kanjivg.tagaini.net"></path><path class="stroke_order_diagram--existing_path" d="M55,39.13c0.64,1.12,0.85,2.78,0.85,4.73c0,5.35,0.09,33.84,0.12,46.39c0.01,3.02,0.01,5.12,0.01,5.75" id="Ske2pnt1j3s" kvg:type="㇑" transform="matrix(1,0,0,1,1096,-4)" xmlns:kvg="http://kanjivg.tagaini.net"></path><path class="stroke_order_diagram--existing_path" d="M56.35,40.28c0.92-0.1,2.07-0.23,3.38-0.38c10.15-1.17,30.11-3.66,31.52-3.92c3.4-0.65,5.03,0.52,5.03,3.58c0,3.69-0.15,45.12-0.15,50.06c0,13.12-5.58,4.08-8.12,1.29" id="Ske2pnt1j3t" kvg:type="㇆a" transform="matrix(1,0,0,1,1096,-4)" xmlns:kvg="http://kanjivg.tagaini.net"></path><path class="stroke_order_diagram--current_path" d="M74.78,19.63c0.64,1.12,0.86,2.78,0.86,4.73c0,4.34-0.13,48.78-0.17,64.39c-0.01,2.86-0.01,4.75-0.01,5.25" id="kvg:07030-s12" kvg:type="㇑" transform="matrix(1,0,0,1,1096,-4)" xmlns:kvg="http://kanjivg.tagaini.net"></path><path class="stroke_order_diagram--current_path" d="M74.78,19.63c0.64,1.12,0.86,2.78,0.86,4.73c0,4.34-0.13,48.78-0.17,64.39c-0.01,2.86-0.01,4.75-0.01,5.25" id="Ske2pnt1j3v" kvg:type="㇑" transform="matrix(1,0,0,1,1096,-4)" xmlns:kvg="http://kanjivg.tagaini.net"></path><circle class="stroke_order_diagram--path_start" cx="74.78" cy="19.63" r="4" transform="matrix(1,0,0,1,1096,-4)"></circle><line class="stroke_order_diagram--guide_line" x1="1250" x2="1250" y1="1" y2="99"></line><line class="stroke_order_diagram--bounding_box" x1="1299" x2="1299" y1="1" y2="99"></line><path class="stroke_order_diagram--existing_path" d="M15.63,14.25c3.92,1.74,10.13,7.14,11.12,9.84" id="Ske2pnt1j3y" kvg:type="㇔" transform="matrix(1,0,0,1,1196,-4)" xmlns:kvg="http://kanjivg.tagaini.net"></path><path class="stroke_order_diagram--existing_path" d="M12.25,42.5c4.15,1.41,10.71,5.8,11.75,8" id="Ske2pnt1j3z" kvg:type="㇔" transform="matrix(1,0,0,1,1196,-4)" xmlns:kvg="http://kanjivg.tagaini.net"></path><path class="stroke_order_diagram--existing_path" d="M10.75,87.73c1.71,1.27,3.78,1.32,4.86-0.25c3.14-4.57,6.79-10.66,9.64-16.49" id="Ske2pnt1j40" kvg:type="㇀" transform="matrix(1,0,0,1,1196,-4)" xmlns:kvg="http://kanjivg.tagaini.net"></path><path class="stroke_order_diagram--existing_path" d="M31.25,19.59c0.66,0.66,3.06,1.26,4.09,1.04c1.8-0.38,9.16-1.13,12.5-1.79c2.18-0.43,3.35,1.34,2.52,3.39c-0.61,1.49-1.86,7.46-2.72,11.74c-0.32,1.6-0.58,2.96-0.73,3.77" id="Ske2pnt1j41" kvg:type="㇕c" transform="matrix(1,0,0,1,1196,-4)" xmlns:kvg="http://kanjivg.tagaini.net"></path><path class="stroke_order_diagram--existing_path" d="M34.75,39.75c1.75,0,9-1,10.25-1s2.5-0.5,3.5-0.5" id="Ske2pnt1j42" kvg:type="㇐" transform="matrix(1,0,0,1,1196,-4)" xmlns:kvg="http://kanjivg.tagaini.net"></path><path class="stroke_order_diagram--existing_path" d="M 34.067916,39.2075 c 0.5,0.97 0.96,2.1 0.63,3.63 -0.37,1.76 -2.05,7.51 -2.93,11.32 -0.6,2.59 0.35,2.91 1.83,2.41 3.54,-1.22 9.957292,-2.955833 12.677292,-3.125833 2.21,-0.14 3.32,1.28 3.1,4.6 -0.69,10.5 -3.453542,23.297917 -8.683542,35.627917 -1.81,4.250005 -4.89,2.42 -6.34,-1.53" id="Ske2pnt1j43" kvg:type="㇉" transform="matrix(1,0,0,1,1196,-4)" xmlns:kvg="http://kanjivg.tagaini.net"></path><path class="stroke_order_diagram--existing_path" d="M57.36,17.69c1.18,0.52,3.35,0.63,4.53,0.52c11.14-1.08,21.6-2.96,30.19-3.15c1.97-0.04,3.16,0.25,4.14,0.5" id="Ske2pnt1j44" kvg:type="㇐" transform="matrix(1,0,0,1,1196,-4)" xmlns:kvg="http://kanjivg.tagaini.net"></path><path class="stroke_order_diagram--existing_path" d="M65.66,24.64c0.09,0.77-0.16,1.44-0.75,1.99c-1.67,2.13-5.78,5.43-11.09,7.58" id="Ske2pnt1j45" kvg:type="㇒" transform="matrix(1,0,0,1,1196,-4)" xmlns:kvg="http://kanjivg.tagaini.net"></path><path class="stroke_order_diagram--existing_path" d="M84.01,23.08c4.87,1.35,12.58,5.54,13.8,7.63" id="Ske2pnt1j46" kvg:type="㇏" transform="matrix(1,0,0,1,1196,-4)" xmlns:kvg="http://kanjivg.tagaini.net"></path><path class="stroke_order_diagram--existing_path" d="M55,39.13c0.64,1.12,0.85,2.78,0.85,4.73c0,5.35,0.09,33.84,0.12,46.39c0.01,3.02,0.01,5.12,0.01,5.75" id="Ske2pnt1j47" kvg:type="㇑" transform="matrix(1,0,0,1,1196,-4)" xmlns:kvg="http://kanjivg.tagaini.net"></path><path class="stroke_order_diagram--existing_path" d="M56.35,40.28c0.92-0.1,2.07-0.23,3.38-0.38c10.15-1.17,30.11-3.66,31.52-3.92c3.4-0.65,5.03,0.52,5.03,3.58c0,3.69-0.15,45.12-0.15,50.06c0,13.12-5.58,4.08-8.12,1.29" id="Ske2pnt1j48" kvg:type="㇆a" transform="matrix(1,0,0,1,1196,-4)" xmlns:kvg="http://kanjivg.tagaini.net"></path><path class="stroke_order_diagram--existing_path" d="M74.78,19.63c0.64,1.12,0.86,2.78,0.86,4.73c0,4.34-0.13,48.78-0.17,64.39c-0.01,2.86-0.01,4.75-0.01,5.25" id="Ske2pnt1j49" kvg:type="㇑" transform="matrix(1,0,0,1,1196,-4)" xmlns:kvg="http://kanjivg.tagaini.net"></path><path class="stroke_order_diagram--current_path" d="M69.34,45.14c0.03,0.38,0.06,0.98-0.05,1.52c-0.64,3.21-4.3,10.24-9.32,14.55" id="kvg:07030-s13" kvg:type="㇒" transform="matrix(1,0,0,1,1196,-4)" xmlns:kvg="http://kanjivg.tagaini.net"></path><path class="stroke_order_diagram--current_path" d="M69.34,45.14c0.03,0.38,0.06,0.98-0.05,1.52c-0.64,3.21-4.3,10.24-9.32,14.55" id="Ske2pnt1j4b" kvg:type="㇒" transform="matrix(1,0,0,1,1196,-4)" xmlns:kvg="http://kanjivg.tagaini.net"></path><circle class="stroke_order_diagram--path_start" cx="69.34" cy="45.14" r="4" transform="matrix(1,0,0,1,1196,-4)"></circle><line class="stroke_order_diagram--guide_line" x1="1350" x2="1350" y1="1" y2="99"></line><line class="stroke_order_diagram--bounding_box" x1="1399" x2="1399" y1="1" y2="99"></line><path class="stroke_order_diagram--existing_path" d="M15.63,14.25c3.92,1.74,10.13,7.14,11.12,9.84" id="Ske2pnt1j4e" kvg:type="㇔" transform="matrix(1,0,0,1,1296,-4)" xmlns:kvg="http://kanjivg.tagaini.net"></path><path class="stroke_order_diagram--existing_path" d="M12.25,42.5c4.15,1.41,10.71,5.8,11.75,8" id="Ske2pnt1j4f" kvg:type="㇔" transform="matrix(1,0,0,1,1296,-4)" xmlns:kvg="http://kanjivg.tagaini.net"></path><path class="stroke_order_diagram--existing_path" d="M10.75,87.73c1.71,1.27,3.78,1.32,4.86-0.25c3.14-4.57,6.79-10.66,9.64-16.49" id="Ske2pnt1j4g" kvg:type="㇀" transform="matrix(1,0,0,1,1296,-4)" xmlns:kvg="http://kanjivg.tagaini.net"></path><path class="stroke_order_diagram--existing_path" d="M31.25,19.59c0.66,0.66,3.06,1.26,4.09,1.04c1.8-0.38,9.16-1.13,12.5-1.79c2.18-0.43,3.35,1.34,2.52,3.39c-0.61,1.49-1.86,7.46-2.72,11.74c-0.32,1.6-0.58,2.96-0.73,3.77" id="Ske2pnt1j4h" kvg:type="㇕c" transform="matrix(1,0,0,1,1296,-4)" xmlns:kvg="http://kanjivg.tagaini.net"></path><path class="stroke_order_diagram--existing_path" d="M34.75,39.75c1.75,0,9-1,10.25-1s2.5-0.5,3.5-0.5" id="Ske2pnt1j4i" kvg:type="㇐" transform="matrix(1,0,0,1,1296,-4)" xmlns:kvg="http://kanjivg.tagaini.net"></path><path class="stroke_order_diagram--existing_path" d="M 34.067916,39.2075 c 0.5,0.97 0.96,2.1 0.63,3.63 -0.37,1.76 -2.05,7.51 -2.93,11.32 -0.6,2.59 0.35,2.91 1.83,2.41 3.54,-1.22 9.957292,-2.955833 12.677292,-3.125833 2.21,-0.14 3.32,1.28 3.1,4.6 -0.69,10.5 -3.453542,23.297917 -8.683542,35.627917 -1.81,4.250005 -4.89,2.42 -6.34,-1.53" id="Ske2pnt1j4j" kvg:type="㇉" transform="matrix(1,0,0,1,1296,-4)" xmlns:kvg="http://kanjivg.tagaini.net"></path><path class="stroke_order_diagram--existing_path" d="M57.36,17.69c1.18,0.52,3.35,0.63,4.53,0.52c11.14-1.08,21.6-2.96,30.19-3.15c1.97-0.04,3.16,0.25,4.14,0.5" id="Ske2pnt1j4k" kvg:type="㇐" transform="matrix(1,0,0,1,1296,-4)" xmlns:kvg="http://kanjivg.tagaini.net"></path><path class="stroke_order_diagram--existing_path" d="M65.66,24.64c0.09,0.77-0.16,1.44-0.75,1.99c-1.67,2.13-5.78,5.43-11.09,7.58" id="Ske2pnt1j4l" kvg:type="㇒" transform="matrix(1,0,0,1,1296,-4)" xmlns:kvg="http://kanjivg.tagaini.net"></path><path class="stroke_order_diagram--existing_path" d="M84.01,23.08c4.87,1.35,12.58,5.54,13.8,7.63" id="Ske2pnt1j4m" kvg:type="㇏" transform="matrix(1,0,0,1,1296,-4)" xmlns:kvg="http://kanjivg.tagaini.net"></path><path class="stroke_order_diagram--existing_path" d="M55,39.13c0.64,1.12,0.85,2.78,0.85,4.73c0,5.35,0.09,33.84,0.12,46.39c0.01,3.02,0.01,5.12,0.01,5.75" id="Ske2pnt1j4n" kvg:type="㇑" transform="matrix(1,0,0,1,1296,-4)" xmlns:kvg="http://kanjivg.tagaini.net"></path><path class="stroke_order_diagram--existing_path" d="M56.35,40.28c0.92-0.1,2.07-0.23,3.38-0.38c10.15-1.17,30.11-3.66,31.52-3.92c3.4-0.65,5.03,0.52,5.03,3.58c0,3.69-0.15,45.12-0.15,50.06c0,13.12-5.58,4.08-8.12,1.29" id="Ske2pnt1j4o" kvg:type="㇆a" transform="matrix(1,0,0,1,1296,-4)" xmlns:kvg="http://kanjivg.tagaini.net"></path><path class="stroke_order_diagram--existing_path" d="M74.78,19.63c0.64,1.12,0.86,2.78,0.86,4.73c0,4.34-0.13,48.78-0.17,64.39c-0.01,2.86-0.01,4.75-0.01,5.25" id="Ske2pnt1j4p" kvg:type="㇑" transform="matrix(1,0,0,1,1296,-4)" xmlns:kvg="http://kanjivg.tagaini.net"></path><path class="stroke_order_diagram--existing_path" d="M69.34,45.14c0.03,0.38,0.06,0.98-0.05,1.52c-0.64,3.21-4.3,10.24-9.32,14.55" id="Ske2pnt1j4q" kvg:type="㇒" transform="matrix(1,0,0,1,1296,-4)" xmlns:kvg="http://kanjivg.tagaini.net"></path><path class="stroke_order_diagram--current_path" d="M62.04,49.65c2.72,1,6.35,6.09,7.41,9.61" id="kvg:07030-s14" kvg:type="㇏" transform="matrix(1,0,0,1,1296,-4)" xmlns:kvg="http://kanjivg.tagaini.net"></path><path class="stroke_order_diagram--current_path" d="M62.04,49.65c2.72,1,6.35,6.09,7.41,9.61" id="Ske2pnt1j4s" kvg:type="㇏" transform="matrix(1,0,0,1,1296,-4)" xmlns:kvg="http://kanjivg.tagaini.net"></path><circle class="stroke_order_diagram--path_start" cx="62.04" cy="49.65" r="4" transform="matrix(1,0,0,1,1296,-4)"></circle><line class="stroke_order_diagram--guide_line" x1="1450" x2="1450" y1="1" y2="99"></line><line class="stroke_order_diagram--bounding_box" x1="1499" x2="1499" y1="1" y2="99"></line><path class="stroke_order_diagram--existing_path" d="M15.63,14.25c3.92,1.74,10.13,7.14,11.12,9.84" id="Ske2pnt1j4v" kvg:type="㇔" transform="matrix(1,0,0,1,1396,-4)" xmlns:kvg="http://kanjivg.tagaini.net"></path><path class="stroke_order_diagram--existing_path" d="M12.25,42.5c4.15,1.41,10.71,5.8,11.75,8" id="Ske2pnt1j4w" kvg:type="㇔" transform="matrix(1,0,0,1,1396,-4)" xmlns:kvg="http://kanjivg.tagaini.net"></path><path class="stroke_order_diagram--existing_path" d="M10.75,87.73c1.71,1.27,3.78,1.32,4.86-0.25c3.14-4.57,6.79-10.66,9.64-16.49" id="Ske2pnt1j4x" kvg:type="㇀" transform="matrix(1,0,0,1,1396,-4)" xmlns:kvg="http://kanjivg.tagaini.net"></path><path class="stroke_order_diagram--existing_path" d="M31.25,19.59c0.66,0.66,3.06,1.26,4.09,1.04c1.8-0.38,9.16-1.13,12.5-1.79c2.18-0.43,3.35,1.34,2.52,3.39c-0.61,1.49-1.86,7.46-2.72,11.74c-0.32,1.6-0.58,2.96-0.73,3.77" id="Ske2pnt1j4y" kvg:type="㇕c" transform="matrix(1,0,0,1,1396,-4)" xmlns:kvg="http://kanjivg.tagaini.net"></path><path class="stroke_order_diagram--existing_path" d="M34.75,39.75c1.75,0,9-1,10.25-1s2.5-0.5,3.5-0.5" id="Ske2pnt1j4z" kvg:type="㇐" transform="matrix(1,0,0,1,1396,-4)" xmlns:kvg="http://kanjivg.tagaini.net"></path><path class="stroke_order_diagram--existing_path" d="M 34.067916,39.2075 c 0.5,0.97 0.96,2.1 0.63,3.63 -0.37,1.76 -2.05,7.51 -2.93,11.32 -0.6,2.59 0.35,2.91 1.83,2.41 3.54,-1.22 9.957292,-2.955833 12.677292,-3.125833 2.21,-0.14 3.32,1.28 3.1,4.6 -0.69,10.5 -3.453542,23.297917 -8.683542,35.627917 -1.81,4.250005 -4.89,2.42 -6.34,-1.53" id="Ske2pnt1j50" kvg:type="㇉" transform="matrix(1,0,0,1,1396,-4)" xmlns:kvg="http://kanjivg.tagaini.net"></path><path class="stroke_order_diagram--existing_path" d="M57.36,17.69c1.18,0.52,3.35,0.63,4.53,0.52c11.14-1.08,21.6-2.96,30.19-3.15c1.97-0.04,3.16,0.25,4.14,0.5" id="Ske2pnt1j51" kvg:type="㇐" transform="matrix(1,0,0,1,1396,-4)" xmlns:kvg="http://kanjivg.tagaini.net"></path><path class="stroke_order_diagram--existing_path" d="M65.66,24.64c0.09,0.77-0.16,1.44-0.75,1.99c-1.67,2.13-5.78,5.43-11.09,7.58" id="Ske2pnt1j52" kvg:type="㇒" transform="matrix(1,0,0,1,1396,-4)" xmlns:kvg="http://kanjivg.tagaini.net"></path><path class="stroke_order_diagram--existing_path" d="M84.01,23.08c4.87,1.35,12.58,5.54,13.8,7.63" id="Ske2pnt1j53" kvg:type="㇏" transform="matrix(1,0,0,1,1396,-4)" xmlns:kvg="http://kanjivg.tagaini.net"></path><path class="stroke_order_diagram--existing_path" d="M55,39.13c0.64,1.12,0.85,2.78,0.85,4.73c0,5.35,0.09,33.84,0.12,46.39c0.01,3.02,0.01,5.12,0.01,5.75" id="Ske2pnt1j54" kvg:type="㇑" transform="matrix(1,0,0,1,1396,-4)" xmlns:kvg="http://kanjivg.tagaini.net"></path><path class="stroke_order_diagram--existing_path" d="M56.35,40.28c0.92-0.1,2.07-0.23,3.38-0.38c10.15-1.17,30.11-3.66,31.52-3.92c3.4-0.65,5.03,0.52,5.03,3.58c0,3.69-0.15,45.12-0.15,50.06c0,13.12-5.58,4.08-8.12,1.29" id="Ske2pnt1j55" kvg:type="㇆a" transform="matrix(1,0,0,1,1396,-4)" xmlns:kvg="http://kanjivg.tagaini.net"></path><path class="stroke_order_diagram--existing_path" d="M74.78,19.63c0.64,1.12,0.86,2.78,0.86,4.73c0,4.34-0.13,48.78-0.17,64.39c-0.01,2.86-0.01,4.75-0.01,5.25" id="Ske2pnt1j56" kvg:type="㇑" transform="matrix(1,0,0,1,1396,-4)" xmlns:kvg="http://kanjivg.tagaini.net"></path><path class="stroke_order_diagram--existing_path" d="M69.34,45.14c0.03,0.38,0.06,0.98-0.05,1.52c-0.64,3.21-4.3,10.24-9.32,14.55" id="Ske2pnt1j57" kvg:type="㇒" transform="matrix(1,0,0,1,1396,-4)" xmlns:kvg="http://kanjivg.tagaini.net"></path><path class="stroke_order_diagram--existing_path" d="M62.04,49.65c2.72,1,6.35,6.09,7.41,9.61" id="Ske2pnt1j58" kvg:type="㇏" transform="matrix(1,0,0,1,1396,-4)" xmlns:kvg="http://kanjivg.tagaini.net"></path><path class="stroke_order_diagram--current_path" d="M69.03,64.89c0.03,0.38,0.05,0.99-0.05,1.54c-0.59,3.26-3.96,10.4-8.58,14.78" id="kvg:07030-s15" kvg:type="㇒" transform="matrix(1,0,0,1,1396,-4)" xmlns:kvg="http://kanjivg.tagaini.net"></path><path class="stroke_order_diagram--current_path" d="M69.03,64.89c0.03,0.38,0.05,0.99-0.05,1.54c-0.59,3.26-3.96,10.4-8.58,14.78" id="Ske2pnt1j5a" kvg:type="㇒" transform="matrix(1,0,0,1,1396,-4)" xmlns:kvg="http://kanjivg.tagaini.net"></path><circle class="stroke_order_diagram--path_start" cx="69.03" cy="64.89" r="4" transform="matrix(1,0,0,1,1396,-4)"></circle><line class="stroke_order_diagram--guide_line" x1="1550" x2="1550" y1="1" y2="99"></line><line class="stroke_order_diagram--bounding_box" x1="1599" x2="1599" y1="1" y2="99"></line><path class="stroke_order_diagram--existing_path" d="M15.63,14.25c3.92,1.74,10.13,7.14,11.12,9.84" id="Ske2pnt1j5d" kvg:type="㇔" transform="matrix(1,0,0,1,1496,-4)" xmlns:kvg="http://kanjivg.tagaini.net"></path><path class="stroke_order_diagram--existing_path" d="M12.25,42.5c4.15,1.41,10.71,5.8,11.75,8" id="Ske2pnt1j5e" kvg:type="㇔" transform="matrix(1,0,0,1,1496,-4)" xmlns:kvg="http://kanjivg.tagaini.net"></path><path class="stroke_order_diagram--existing_path" d="M10.75,87.73c1.71,1.27,3.78,1.32,4.86-0.25c3.14-4.57,6.79-10.66,9.64-16.49" id="Ske2pnt1j5f" kvg:type="㇀" transform="matrix(1,0,0,1,1496,-4)" xmlns:kvg="http://kanjivg.tagaini.net"></path><path class="stroke_order_diagram--existing_path" d="M31.25,19.59c0.66,0.66,3.06,1.26,4.09,1.04c1.8-0.38,9.16-1.13,12.5-1.79c2.18-0.43,3.35,1.34,2.52,3.39c-0.61,1.49-1.86,7.46-2.72,11.74c-0.32,1.6-0.58,2.96-0.73,3.77" id="Ske2pnt1j5g" kvg:type="㇕c" transform="matrix(1,0,0,1,1496,-4)" xmlns:kvg="http://kanjivg.tagaini.net"></path><path class="stroke_order_diagram--existing_path" d="M34.75,39.75c1.75,0,9-1,10.25-1s2.5-0.5,3.5-0.5" id="Ske2pnt1j5h" kvg:type="㇐" transform="matrix(1,0,0,1,1496,-4)" xmlns:kvg="http://kanjivg.tagaini.net"></path><path class="stroke_order_diagram--existing_path" d="M 34.067916,39.2075 c 0.5,0.97 0.96,2.1 0.63,3.63 -0.37,1.76 -2.05,7.51 -2.93,11.32 -0.6,2.59 0.35,2.91 1.83,2.41 3.54,-1.22 9.957292,-2.955833 12.677292,-3.125833 2.21,-0.14 3.32,1.28 3.1,4.6 -0.69,10.5 -3.453542,23.297917 -8.683542,35.627917 -1.81,4.250005 -4.89,2.42 -6.34,-1.53" id="Ske2pnt1j5i" kvg:type="㇉" transform="matrix(1,0,0,1,1496,-4)" xmlns:kvg="http://kanjivg.tagaini.net"></path><path class="stroke_order_diagram--existing_path" d="M57.36,17.69c1.18,0.52,3.35,0.63,4.53,0.52c11.14-1.08,21.6-2.96,30.19-3.15c1.97-0.04,3.16,0.25,4.14,0.5" id="Ske2pnt1j5j" kvg:type="㇐" transform="matrix(1,0,0,1,1496,-4)" xmlns:kvg="http://kanjivg.tagaini.net"></path><path class="stroke_order_diagram--existing_path" d="M65.66,24.64c0.09,0.77-0.16,1.44-0.75,1.99c-1.67,2.13-5.78,5.43-11.09,7.58" id="Ske2pnt1j5k" kvg:type="㇒" transform="matrix(1,0,0,1,1496,-4)" xmlns:kvg="http://kanjivg.tagaini.net"></path><path class="stroke_order_diagram--existing_path" d="M84.01,23.08c4.87,1.35,12.58,5.54,13.8,7.63" id="Ske2pnt1j5l" kvg:type="㇏" transform="matrix(1,0,0,1,1496,-4)" xmlns:kvg="http://kanjivg.tagaini.net"></path><path class="stroke_order_diagram--existing_path" d="M55,39.13c0.64,1.12,0.85,2.78,0.85,4.73c0,5.35,0.09,33.84,0.12,46.39c0.01,3.02,0.01,5.12,0.01,5.75" id="Ske2pnt1j5m" kvg:type="㇑" transform="matrix(1,0,0,1,1496,-4)" xmlns:kvg="http://kanjivg.tagaini.net"></path><path class="stroke_order_diagram--existing_path" d="M56.35,40.28c0.92-0.1,2.07-0.23,3.38-0.38c10.15-1.17,30.11-3.66,31.52-3.92c3.4-0.65,5.03,0.52,5.03,3.58c0,3.69-0.15,45.12-0.15,50.06c0,13.12-5.58,4.08-8.12,1.29" id="Ske2pnt1j5n" kvg:type="㇆a" transform="matrix(1,0,0,1,1496,-4)" xmlns:kvg="http://kanjivg.tagaini.net"></path><path class="stroke_order_diagram--existing_path" d="M74.78,19.63c0.64,1.12,0.86,2.78,0.86,4.73c0,4.34-0.13,48.78-0.17,64.39c-0.01,2.86-0.01,4.75-0.01,5.25" id="Ske2pnt1j5o" kvg:type="㇑" transform="matrix(1,0,0,1,1496,-4)" xmlns:kvg="http://kanjivg.tagaini.net"></path><path class="stroke_order_diagram--existing_path" d="M69.34,45.14c0.03,0.38,0.06,0.98-0.05,1.52c-0.64,3.21-4.3,10.24-9.32,14.55" id="Ske2pnt1j5p" kvg:type="㇒" transform="matrix(1,0,0,1,1496,-4)" xmlns:kvg="http://kanjivg.tagaini.net"></path><path class="stroke_order_diagram--existing_path" d="M62.04,49.65c2.72,1,6.35,6.09,7.41,9.61" id="Ske2pnt1j5q" kvg:type="㇏" transform="matrix(1,0,0,1,1496,-4)" xmlns:kvg="http://kanjivg.tagaini.net"></path><path class="stroke_order_diagram--existing_path" d="M69.03,64.89c0.03,0.38,0.05,0.99-0.05,1.54c-0.59,3.26-3.96,10.4-8.58,14.78" id="Ske2pnt1j5r" kvg:type="㇒" transform="matrix(1,0,0,1,1496,-4)" xmlns:kvg="http://kanjivg.tagaini.net"></path><path class="stroke_order_diagram--current_path" d="M60.64,70.65c2.94,1.29,6.85,7.83,8,12.36" id="kvg:07030-s16" kvg:type="㇏" transform="matrix(1,0,0,1,1496,-4)" xmlns:kvg="http://kanjivg.tagaini.net"></path><path class="stroke_order_diagram--current_path" d="M60.64,70.65c2.94,1.29,6.85,7.83,8,12.36" id="Ske2pnt1j5t" kvg:type="㇏" transform="matrix(1,0,0,1,1496,-4)" xmlns:kvg="http://kanjivg.tagaini.net"></path><circle class="stroke_order_diagram--path_start" cx="60.64" cy="70.65" r="4" transform="matrix(1,0,0,1,1496,-4)"></circle><line class="stroke_order_diagram--guide_line" x1="1650" x2="1650" y1="1" y2="99"></line><line class="stroke_order_diagram--bounding_box" x1="1699" x2="1699" y1="1" y2="99"></line><path class="stroke_order_diagram--existing_path" d="M15.63,14.25c3.92,1.74,10.13,7.14,11.12,9.84" id="Ske2pnt1j5w" kvg:type="㇔" transform="matrix(1,0,0,1,1596,-4)" xmlns:kvg="http://kanjivg.tagaini.net"></path><path class="stroke_order_diagram--existing_path" d="M12.25,42.5c4.15,1.41,10.71,5.8,11.75,8" id="Ske2pnt1j5x" kvg:type="㇔" transform="matrix(1,0,0,1,1596,-4)" xmlns:kvg="http://kanjivg.tagaini.net"></path><path class="stroke_order_diagram--existing_path" d="M10.75,87.73c1.71,1.27,3.78,1.32,4.86-0.25c3.14-4.57,6.79-10.66,9.64-16.49" id="Ske2pnt1j5y" kvg:type="㇀" transform="matrix(1,0,0,1,1596,-4)" xmlns:kvg="http://kanjivg.tagaini.net"></path><path class="stroke_order_diagram--existing_path" d="M31.25,19.59c0.66,0.66,3.06,1.26,4.09,1.04c1.8-0.38,9.16-1.13,12.5-1.79c2.18-0.43,3.35,1.34,2.52,3.39c-0.61,1.49-1.86,7.46-2.72,11.74c-0.32,1.6-0.58,2.96-0.73,3.77" id="Ske2pnt1j5z" kvg:type="㇕c" transform="matrix(1,0,0,1,1596,-4)" xmlns:kvg="http://kanjivg.tagaini.net"></path><path class="stroke_order_diagram--existing_path" d="M34.75,39.75c1.75,0,9-1,10.25-1s2.5-0.5,3.5-0.5" id="Ske2pnt1j60" kvg:type="㇐" transform="matrix(1,0,0,1,1596,-4)" xmlns:kvg="http://kanjivg.tagaini.net"></path><path class="stroke_order_diagram--existing_path" d="M 34.067916,39.2075 c 0.5,0.97 0.96,2.1 0.63,3.63 -0.37,1.76 -2.05,7.51 -2.93,11.32 -0.6,2.59 0.35,2.91 1.83,2.41 3.54,-1.22 9.957292,-2.955833 12.677292,-3.125833 2.21,-0.14 3.32,1.28 3.1,4.6 -0.69,10.5 -3.453542,23.297917 -8.683542,35.627917 -1.81,4.250005 -4.89,2.42 -6.34,-1.53" id="Ske2pnt1j61" kvg:type="㇉" transform="matrix(1,0,0,1,1596,-4)" xmlns:kvg="http://kanjivg.tagaini.net"></path><path class="stroke_order_diagram--existing_path" d="M57.36,17.69c1.18,0.52,3.35,0.63,4.53,0.52c11.14-1.08,21.6-2.96,30.19-3.15c1.97-0.04,3.16,0.25,4.14,0.5" id="Ske2pnt1j62" kvg:type="㇐" transform="matrix(1,0,0,1,1596,-4)" xmlns:kvg="http://kanjivg.tagaini.net"></path><path class="stroke_order_diagram--existing_path" d="M65.66,24.64c0.09,0.77-0.16,1.44-0.75,1.99c-1.67,2.13-5.78,5.43-11.09,7.58" id="Ske2pnt1j63" kvg:type="㇒" transform="matrix(1,0,0,1,1596,-4)" xmlns:kvg="http://kanjivg.tagaini.net"></path><path class="stroke_order_diagram--existing_path" d="M84.01,23.08c4.87,1.35,12.58,5.54,13.8,7.63" id="Ske2pnt1j64" kvg:type="㇏" transform="matrix(1,0,0,1,1596,-4)" xmlns:kvg="http://kanjivg.tagaini.net"></path><path class="stroke_order_diagram--existing_path" d="M55,39.13c0.64,1.12,0.85,2.78,0.85,4.73c0,5.35,0.09,33.84,0.12,46.39c0.01,3.02,0.01,5.12,0.01,5.75" id="Ske2pnt1j65" kvg:type="㇑" transform="matrix(1,0,0,1,1596,-4)" xmlns:kvg="http://kanjivg.tagaini.net"></path><path class="stroke_order_diagram--existing_path" d="M56.35,40.28c0.92-0.1,2.07-0.23,3.38-0.38c10.15-1.17,30.11-3.66,31.52-3.92c3.4-0.65,5.03,0.52,5.03,3.58c0,3.69-0.15,45.12-0.15,50.06c0,13.12-5.58,4.08-8.12,1.29" id="Ske2pnt1j66" kvg:type="㇆a" transform="matrix(1,0,0,1,1596,-4)" xmlns:kvg="http://kanjivg.tagaini.net"></path><path class="stroke_order_diagram--existing_path" d="M74.78,19.63c0.64,1.12,0.86,2.78,0.86,4.73c0,4.34-0.13,48.78-0.17,64.39c-0.01,2.86-0.01,4.75-0.01,5.25" id="Ske2pnt1j67" kvg:type="㇑" transform="matrix(1,0,0,1,1596,-4)" xmlns:kvg="http://kanjivg.tagaini.net"></path><path class="stroke_order_diagram--existing_path" d="M69.34,45.14c0.03,0.38,0.06,0.98-0.05,1.52c-0.64,3.21-4.3,10.24-9.32,14.55" id="Ske2pnt1j68" kvg:type="㇒" transform="matrix(1,0,0,1,1596,-4)" xmlns:kvg="http://kanjivg.tagaini.net"></path><path class="stroke_order_diagram--existing_path" d="M62.04,49.65c2.72,1,6.35,6.09,7.41,9.61" id="Ske2pnt1j69" kvg:type="㇏" transform="matrix(1,0,0,1,1596,-4)" xmlns:kvg="http://kanjivg.tagaini.net"></path><path class="stroke_order_diagram--existing_path" d="M69.03,64.89c0.03,0.38,0.05,0.99-0.05,1.54c-0.59,3.26-3.96,10.4-8.58,14.78" id="Ske2pnt1j6a" kvg:type="㇒" transform="matrix(1,0,0,1,1596,-4)" xmlns:kvg="http://kanjivg.tagaini.net"></path><path class="stroke_order_diagram--existing_path" d="M60.64,70.65c2.94,1.29,6.85,7.83,8,12.36" id="Ske2pnt1j6b" kvg:type="㇏" transform="matrix(1,0,0,1,1596,-4)" xmlns:kvg="http://kanjivg.tagaini.net"></path><path class="stroke_order_diagram--current_path" d="M88.08,43.14c0.02,0.35,0.05,0.9-0.05,1.4c-0.56,2.96-3.77,9.45-8.17,13.42" id="kvg:07030-s17" kvg:type="㇒" transform="matrix(1,0,0,1,1596,-4)" xmlns:kvg="http://kanjivg.tagaini.net"></path><path class="stroke_order_diagram--current_path" d="M88.08,43.14c0.02,0.35,0.05,0.9-0.05,1.4c-0.56,2.96-3.77,9.45-8.17,13.42" id="Ske2pnt1j6d" kvg:type="㇒" transform="matrix(1,0,0,1,1596,-4)" xmlns:kvg="http://kanjivg.tagaini.net"></path><circle class="stroke_order_diagram--path_start" cx="88.08" cy="43.14" r="4" transform="matrix(1,0,0,1,1596,-4)"></circle><line class="stroke_order_diagram--guide_line" x1="1750" x2="1750" y1="1" y2="99"></line><line class="stroke_order_diagram--bounding_box" x1="1799" x2="1799" y1="1" y2="99"></line><path class="stroke_order_diagram--existing_path" d="M15.63,14.25c3.92,1.74,10.13,7.14,11.12,9.84" id="Ske2pnt1j6g" kvg:type="㇔" transform="matrix(1,0,0,1,1696,-4)" xmlns:kvg="http://kanjivg.tagaini.net"></path><path class="stroke_order_diagram--existing_path" d="M12.25,42.5c4.15,1.41,10.71,5.8,11.75,8" id="Ske2pnt1j6h" kvg:type="㇔" transform="matrix(1,0,0,1,1696,-4)" xmlns:kvg="http://kanjivg.tagaini.net"></path><path class="stroke_order_diagram--existing_path" d="M10.75,87.73c1.71,1.27,3.78,1.32,4.86-0.25c3.14-4.57,6.79-10.66,9.64-16.49" id="Ske2pnt1j6i" kvg:type="㇀" transform="matrix(1,0,0,1,1696,-4)" xmlns:kvg="http://kanjivg.tagaini.net"></path><path class="stroke_order_diagram--existing_path" d="M31.25,19.59c0.66,0.66,3.06,1.26,4.09,1.04c1.8-0.38,9.16-1.13,12.5-1.79c2.18-0.43,3.35,1.34,2.52,3.39c-0.61,1.49-1.86,7.46-2.72,11.74c-0.32,1.6-0.58,2.96-0.73,3.77" id="Ske2pnt1j6j" kvg:type="㇕c" transform="matrix(1,0,0,1,1696,-4)" xmlns:kvg="http://kanjivg.tagaini.net"></path><path class="stroke_order_diagram--existing_path" d="M34.75,39.75c1.75,0,9-1,10.25-1s2.5-0.5,3.5-0.5" id="Ske2pnt1j6k" kvg:type="㇐" transform="matrix(1,0,0,1,1696,-4)" xmlns:kvg="http://kanjivg.tagaini.net"></path><path class="stroke_order_diagram--existing_path" d="M 34.067916,39.2075 c 0.5,0.97 0.96,2.1 0.63,3.63 -0.37,1.76 -2.05,7.51 -2.93,11.32 -0.6,2.59 0.35,2.91 1.83,2.41 3.54,-1.22 9.957292,-2.955833 12.677292,-3.125833 2.21,-0.14 3.32,1.28 3.1,4.6 -0.69,10.5 -3.453542,23.297917 -8.683542,35.627917 -1.81,4.250005 -4.89,2.42 -6.34,-1.53" id="Ske2pnt1j6l" kvg:type="㇉" transform="matrix(1,0,0,1,1696,-4)" xmlns:kvg="http://kanjivg.tagaini.net"></path><path class="stroke_order_diagram--existing_path" d="M57.36,17.69c1.18,0.52,3.35,0.63,4.53,0.52c11.14-1.08,21.6-2.96,30.19-3.15c1.97-0.04,3.16,0.25,4.14,0.5" id="Ske2pnt1j6m" kvg:type="㇐" transform="matrix(1,0,0,1,1696,-4)" xmlns:kvg="http://kanjivg.tagaini.net"></path><path class="stroke_order_diagram--existing_path" d="M65.66,24.64c0.09,0.77-0.16,1.44-0.75,1.99c-1.67,2.13-5.78,5.43-11.09,7.58" id="Ske2pnt1j6n" kvg:type="㇒" transform="matrix(1,0,0,1,1696,-4)" xmlns:kvg="http://kanjivg.tagaini.net"></path><path class="stroke_order_diagram--existing_path" d="M84.01,23.08c4.87,1.35,12.58,5.54,13.8,7.63" id="Ske2pnt1j6o" kvg:type="㇏" transform="matrix(1,0,0,1,1696,-4)" xmlns:kvg="http://kanjivg.tagaini.net"></path><path class="stroke_order_diagram--existing_path" d="M55,39.13c0.64,1.12,0.85,2.78,0.85,4.73c0,5.35,0.09,33.84,0.12,46.39c0.01,3.02,0.01,5.12,0.01,5.75" id="Ske2pnt1j6p" kvg:type="㇑" transform="matrix(1,0,0,1,1696,-4)" xmlns:kvg="http://kanjivg.tagaini.net"></path><path class="stroke_order_diagram--existing_path" d="M56.35,40.28c0.92-0.1,2.07-0.23,3.38-0.38c10.15-1.17,30.11-3.66,31.52-3.92c3.4-0.65,5.03,0.52,5.03,3.58c0,3.69-0.15,45.12-0.15,50.06c0,13.12-5.58,4.08-8.12,1.29" id="Ske2pnt1j6q" kvg:type="㇆a" transform="matrix(1,0,0,1,1696,-4)" xmlns:kvg="http://kanjivg.tagaini.net"></path><path class="stroke_order_diagram--existing_path" d="M74.78,19.63c0.64,1.12,0.86,2.78,0.86,4.73c0,4.34-0.13,48.78-0.17,64.39c-0.01,2.86-0.01,4.75-0.01,5.25" id="Ske2pnt1j6r" kvg:type="㇑" transform="matrix(1,0,0,1,1696,-4)" xmlns:kvg="http://kanjivg.tagaini.net"></path><path class="stroke_order_diagram--existing_path" d="M69.34,45.14c0.03,0.38,0.06,0.98-0.05,1.52c-0.64,3.21-4.3,10.24-9.32,14.55" id="Ske2pnt1j6s" kvg:type="㇒" transform="matrix(1,0,0,1,1696,-4)" xmlns:kvg="http://kanjivg.tagaini.net"></path><path class="stroke_order_diagram--existing_path" d="M62.04,49.65c2.72,1,6.35,6.09,7.41,9.61" id="Ske2pnt1j6t" kvg:type="㇏" transform="matrix(1,0,0,1,1696,-4)" xmlns:kvg="http://kanjivg.tagaini.net"></path><path class="stroke_order_diagram--existing_path" d="M69.03,64.89c0.03,0.38,0.05,0.99-0.05,1.54c-0.59,3.26-3.96,10.4-8.58,14.78" id="Ske2pnt1j6u" kvg:type="㇒" transform="matrix(1,0,0,1,1696,-4)" xmlns:kvg="http://kanjivg.tagaini.net"></path><path class="stroke_order_diagram--existing_path" d="M60.64,70.65c2.94,1.29,6.85,7.83,8,12.36" id="Ske2pnt1j6v" kvg:type="㇏" transform="matrix(1,0,0,1,1696,-4)" xmlns:kvg="http://kanjivg.tagaini.net"></path><path class="stroke_order_diagram--existing_path" d="M88.08,43.14c0.02,0.35,0.05,0.9-0.05,1.4c-0.56,2.96-3.77,9.45-8.17,13.42" id="Ske2pnt1j6w" kvg:type="㇒" transform="matrix(1,0,0,1,1696,-4)" xmlns:kvg="http://kanjivg.tagaini.net"></path><path class="stroke_order_diagram--current_path" d="M81.6,48.38c2.92,0.95,6.81,5.74,7.94,9.05" id="kvg:07030-s18" kvg:type="㇏" transform="matrix(1,0,0,1,1696,-4)" xmlns:kvg="http://kanjivg.tagaini.net"></path><path class="stroke_order_diagram--current_path" d="M81.6,48.38c2.92,0.95,6.81,5.74,7.94,9.05" id="Ske2pnt1j6y" kvg:type="㇏" transform="matrix(1,0,0,1,1696,-4)" xmlns:kvg="http://kanjivg.tagaini.net"></path><circle class="stroke_order_diagram--path_start" cx="81.6" cy="48.38" r="4" transform="matrix(1,0,0,1,1696,-4)"></circle><line class="stroke_order_diagram--guide_line" x1="1850" x2="1850" y1="1" y2="99"></line><line class="stroke_order_diagram--bounding_box" x1="1899" x2="1899" y1="1" y2="99"></line><path class="stroke_order_diagram--existing_path" d="M15.63,14.25c3.92,1.74,10.13,7.14,11.12,9.84" id="Ske2pnt1j71" kvg:type="㇔" transform="matrix(1,0,0,1,1796,-4)" xmlns:kvg="http://kanjivg.tagaini.net"></path><path class="stroke_order_diagram--existing_path" d="M12.25,42.5c4.15,1.41,10.71,5.8,11.75,8" id="Ske2pnt1j72" kvg:type="㇔" transform="matrix(1,0,0,1,1796,-4)" xmlns:kvg="http://kanjivg.tagaini.net"></path><path class="stroke_order_diagram--existing_path" d="M10.75,87.73c1.71,1.27,3.78,1.32,4.86-0.25c3.14-4.57,6.79-10.66,9.64-16.49" id="Ske2pnt1j73" kvg:type="㇀" transform="matrix(1,0,0,1,1796,-4)" xmlns:kvg="http://kanjivg.tagaini.net"></path><path class="stroke_order_diagram--existing_path" d="M31.25,19.59c0.66,0.66,3.06,1.26,4.09,1.04c1.8-0.38,9.16-1.13,12.5-1.79c2.18-0.43,3.35,1.34,2.52,3.39c-0.61,1.49-1.86,7.46-2.72,11.74c-0.32,1.6-0.58,2.96-0.73,3.77" id="Ske2pnt1j74" kvg:type="㇕c" transform="matrix(1,0,0,1,1796,-4)" xmlns:kvg="http://kanjivg.tagaini.net"></path><path class="stroke_order_diagram--existing_path" d="M34.75,39.75c1.75,0,9-1,10.25-1s2.5-0.5,3.5-0.5" id="Ske2pnt1j75" kvg:type="㇐" transform="matrix(1,0,0,1,1796,-4)" xmlns:kvg="http://kanjivg.tagaini.net"></path><path class="stroke_order_diagram--existing_path" d="M 34.067916,39.2075 c 0.5,0.97 0.96,2.1 0.63,3.63 -0.37,1.76 -2.05,7.51 -2.93,11.32 -0.6,2.59 0.35,2.91 1.83,2.41 3.54,-1.22 9.957292,-2.955833 12.677292,-3.125833 2.21,-0.14 3.32,1.28 3.1,4.6 -0.69,10.5 -3.453542,23.297917 -8.683542,35.627917 -1.81,4.250005 -4.89,2.42 -6.34,-1.53" id="Ske2pnt1j76" kvg:type="㇉" transform="matrix(1,0,0,1,1796,-4)" xmlns:kvg="http://kanjivg.tagaini.net"></path><path class="stroke_order_diagram--existing_path" d="M57.36,17.69c1.18,0.52,3.35,0.63,4.53,0.52c11.14-1.08,21.6-2.96,30.19-3.15c1.97-0.04,3.16,0.25,4.14,0.5" id="Ske2pnt1j77" kvg:type="㇐" transform="matrix(1,0,0,1,1796,-4)" xmlns:kvg="http://kanjivg.tagaini.net"></path><path class="stroke_order_diagram--existing_path" d="M65.66,24.64c0.09,0.77-0.16,1.44-0.75,1.99c-1.67,2.13-5.78,5.43-11.09,7.58" id="Ske2pnt1j78" kvg:type="㇒" transform="matrix(1,0,0,1,1796,-4)" xmlns:kvg="http://kanjivg.tagaini.net"></path><path class="stroke_order_diagram--existing_path" d="M84.01,23.08c4.87,1.35,12.58,5.54,13.8,7.63" id="Ske2pnt1j79" kvg:type="㇏" transform="matrix(1,0,0,1,1796,-4)" xmlns:kvg="http://kanjivg.tagaini.net"></path><path class="stroke_order_diagram--existing_path" d="M55,39.13c0.64,1.12,0.85,2.78,0.85,4.73c0,5.35,0.09,33.84,0.12,46.39c0.01,3.02,0.01,5.12,0.01,5.75" id="Ske2pnt1j7a" kvg:type="㇑" transform="matrix(1,0,0,1,1796,-4)" xmlns:kvg="http://kanjivg.tagaini.net"></path><path class="stroke_order_diagram--existing_path" d="M56.35,40.28c0.92-0.1,2.07-0.23,3.38-0.38c10.15-1.17,30.11-3.66,31.52-3.92c3.4-0.65,5.03,0.52,5.03,3.58c0,3.69-0.15,45.12-0.15,50.06c0,13.12-5.58,4.08-8.12,1.29" id="Ske2pnt1j7b" kvg:type="㇆a" transform="matrix(1,0,0,1,1796,-4)" xmlns:kvg="http://kanjivg.tagaini.net"></path><path class="stroke_order_diagram--existing_path" d="M74.78,19.63c0.64,1.12,0.86,2.78,0.86,4.73c0,4.34-0.13,48.78-0.17,64.39c-0.01,2.86-0.01,4.75-0.01,5.25" id="Ske2pnt1j7c" kvg:type="㇑" transform="matrix(1,0,0,1,1796,-4)" xmlns:kvg="http://kanjivg.tagaini.net"></path><path class="stroke_order_diagram--existing_path" d="M69.34,45.14c0.03,0.38,0.06,0.98-0.05,1.52c-0.64,3.21-4.3,10.24-9.32,14.55" id="Ske2pnt1j7d" kvg:type="㇒" transform="matrix(1,0,0,1,1796,-4)" xmlns:kvg="http://kanjivg.tagaini.net"></path><path class="stroke_order_diagram--existing_path" d="M62.04,49.65c2.72,1,6.35,6.09,7.41,9.61" id="Ske2pnt1j7e" kvg:type="㇏" transform="matrix(1,0,0,1,1796,-4)" xmlns:kvg="http://kanjivg.tagaini.net"></path><path class="stroke_order_diagram--existing_path" d="M69.03,64.89c0.03,0.38,0.05,0.99-0.05,1.54c-0.59,3.26-3.96,10.4-8.58,14.78" id="Ske2pnt1j7f" kvg:type="㇒" transform="matrix(1,0,0,1,1796,-4)" xmlns:kvg="http://kanjivg.tagaini.net"></path><path class="stroke_order_diagram--existing_path" d="M60.64,70.65c2.94,1.29,6.85,7.83,8,12.36" id="Ske2pnt1j7g" kvg:type="㇏" transform="matrix(1,0,0,1,1796,-4)" xmlns:kvg="http://kanjivg.tagaini.net"></path><path class="stroke_order_diagram--existing_path" d="M88.08,43.14c0.02,0.35,0.05,0.9-0.05,1.4c-0.56,2.96-3.77,9.45-8.17,13.42" id="Ske2pnt1j7h" kvg:type="㇒" transform="matrix(1,0,0,1,1796,-4)" xmlns:kvg="http://kanjivg.tagaini.net"></path><path class="stroke_order_diagram--existing_path" d="M81.6,48.38c2.92,0.95,6.81,5.74,7.94,9.05" id="Ske2pnt1j7i" kvg:type="㇏" transform="matrix(1,0,0,1,1796,-4)" xmlns:kvg="http://kanjivg.tagaini.net"></path><path class="stroke_order_diagram--current_path" d="M88.62,64.14c0.03,0.4,0.05,1.02-0.05,1.59c-0.59,3.36-3.96,10.72-8.58,15.23" id="kvg:07030-s19" kvg:type="㇒" transform="matrix(1,0,0,1,1796,-4)" xmlns:kvg="http://kanjivg.tagaini.net"></path><path class="stroke_order_diagram--current_path" d="M88.62,64.14c0.03,0.4,0.05,1.02-0.05,1.59c-0.59,3.36-3.96,10.72-8.58,15.23" id="Ske2pnt1j7k" kvg:type="㇒" transform="matrix(1,0,0,1,1796,-4)" xmlns:kvg="http://kanjivg.tagaini.net"></path><circle class="stroke_order_diagram--path_start" cx="88.62" cy="64.14" r="4" transform="matrix(1,0,0,1,1796,-4)"></circle><line class="stroke_order_diagram--guide_line" x1="1950" x2="1950" y1="1" y2="99"></line><line class="stroke_order_diagram--bounding_box" x1="1999" x2="1999" y1="1" y2="99"></line><path class="stroke_order_diagram--existing_path" d="M15.63,14.25c3.92,1.74,10.13,7.14,11.12,9.84" id="Ske2pnt1j7n" kvg:type="㇔" transform="matrix(1,0,0,1,1896,-4)" xmlns:kvg="http://kanjivg.tagaini.net"></path><path class="stroke_order_diagram--existing_path" d="M12.25,42.5c4.15,1.41,10.71,5.8,11.75,8" id="Ske2pnt1j7o" kvg:type="㇔" transform="matrix(1,0,0,1,1896,-4)" xmlns:kvg="http://kanjivg.tagaini.net"></path><path class="stroke_order_diagram--existing_path" d="M10.75,87.73c1.71,1.27,3.78,1.32,4.86-0.25c3.14-4.57,6.79-10.66,9.64-16.49" id="Ske2pnt1j7p" kvg:type="㇀" transform="matrix(1,0,0,1,1896,-4)" xmlns:kvg="http://kanjivg.tagaini.net"></path><path class="stroke_order_diagram--existing_path" d="M31.25,19.59c0.66,0.66,3.06,1.26,4.09,1.04c1.8-0.38,9.16-1.13,12.5-1.79c2.18-0.43,3.35,1.34,2.52,3.39c-0.61,1.49-1.86,7.46-2.72,11.74c-0.32,1.6-0.58,2.96-0.73,3.77" id="Ske2pnt1j7q" kvg:type="㇕c" transform="matrix(1,0,0,1,1896,-4)" xmlns:kvg="http://kanjivg.tagaini.net"></path><path class="stroke_order_diagram--existing_path" d="M34.75,39.75c1.75,0,9-1,10.25-1s2.5-0.5,3.5-0.5" id="Ske2pnt1j7r" kvg:type="㇐" transform="matrix(1,0,0,1,1896,-4)" xmlns:kvg="http://kanjivg.tagaini.net"></path><path class="stroke_order_diagram--existing_path" d="M 34.067916,39.2075 c 0.5,0.97 0.96,2.1 0.63,3.63 -0.37,1.76 -2.05,7.51 -2.93,11.32 -0.6,2.59 0.35,2.91 1.83,2.41 3.54,-1.22 9.957292,-2.955833 12.677292,-3.125833 2.21,-0.14 3.32,1.28 3.1,4.6 -0.69,10.5 -3.453542,23.297917 -8.683542,35.627917 -1.81,4.250005 -4.89,2.42 -6.34,-1.53" id="Ske2pnt1j7s" kvg:type="㇉" transform="matrix(1,0,0,1,1896,-4)" xmlns:kvg="http://kanjivg.tagaini.net"></path><path class="stroke_order_diagram--existing_path" d="M57.36,17.69c1.18,0.52,3.35,0.63,4.53,0.52c11.14-1.08,21.6-2.96,30.19-3.15c1.97-0.04,3.16,0.25,4.14,0.5" id="Ske2pnt1j7t" kvg:type="㇐" transform="matrix(1,0,0,1,1896,-4)" xmlns:kvg="http://kanjivg.tagaini.net"></path><path class="stroke_order_diagram--existing_path" d="M65.66,24.64c0.09,0.77-0.16,1.44-0.75,1.99c-1.67,2.13-5.78,5.43-11.09,7.58" id="Ske2pnt1j7u" kvg:type="㇒" transform="matrix(1,0,0,1,1896,-4)" xmlns:kvg="http://kanjivg.tagaini.net"></path><path class="stroke_order_diagram--existing_path" d="M84.01,23.08c4.87,1.35,12.58,5.54,13.8,7.63" id="Ske2pnt1j7v" kvg:type="㇏" transform="matrix(1,0,0,1,1896,-4)" xmlns:kvg="http://kanjivg.tagaini.net"></path><path class="stroke_order_diagram--existing_path" d="M55,39.13c0.64,1.12,0.85,2.78,0.85,4.73c0,5.35,0.09,33.84,0.12,46.39c0.01,3.02,0.01,5.12,0.01,5.75" id="Ske2pnt1j7w" kvg:type="㇑" transform="matrix(1,0,0,1,1896,-4)" xmlns:kvg="http://kanjivg.tagaini.net"></path><path class="stroke_order_diagram--existing_path" d="M56.35,40.28c0.92-0.1,2.07-0.23,3.38-0.38c10.15-1.17,30.11-3.66,31.52-3.92c3.4-0.65,5.03,0.52,5.03,3.58c0,3.69-0.15,45.12-0.15,50.06c0,13.12-5.58,4.08-8.12,1.29" id="Ske2pnt1j7x" kvg:type="㇆a" transform="matrix(1,0,0,1,1896,-4)" xmlns:kvg="http://kanjivg.tagaini.net"></path><path class="stroke_order_diagram--existing_path" d="M74.78,19.63c0.64,1.12,0.86,2.78,0.86,4.73c0,4.34-0.13,48.78-0.17,64.39c-0.01,2.86-0.01,4.75-0.01,5.25" id="Ske2pnt1j7y" kvg:type="㇑" transform="matrix(1,0,0,1,1896,-4)" xmlns:kvg="http://kanjivg.tagaini.net"></path><path class="stroke_order_diagram--existing_path" d="M69.34,45.14c0.03,0.38,0.06,0.98-0.05,1.52c-0.64,3.21-4.3,10.24-9.32,14.55" id="Ske2pnt1j7z" kvg:type="㇒" transform="matrix(1,0,0,1,1896,-4)" xmlns:kvg="http://kanjivg.tagaini.net"></path><path class="stroke_order_diagram--existing_path" d="M62.04,49.65c2.72,1,6.35,6.09,7.41,9.61" id="Ske2pnt1j80" kvg:type="㇏" transform="matrix(1,0,0,1,1896,-4)" xmlns:kvg="http://kanjivg.tagaini.net"></path><path class="stroke_order_diagram--existing_path" d="M69.03,64.89c0.03,0.38,0.05,0.99-0.05,1.54c-0.59,3.26-3.96,10.4-8.58,14.78" id="Ske2pnt1j81" kvg:type="㇒" transform="matrix(1,0,0,1,1896,-4)" xmlns:kvg="http://kanjivg.tagaini.net"></path><path class="stroke_order_diagram--existing_path" d="M60.64,70.65c2.94,1.29,6.85,7.83,8,12.36" id="Ske2pnt1j82" kvg:type="㇏" transform="matrix(1,0,0,1,1896,-4)" xmlns:kvg="http://kanjivg.tagaini.net"></path><path class="stroke_order_diagram--existing_path" d="M88.08,43.14c0.02,0.35,0.05,0.9-0.05,1.4c-0.56,2.96-3.77,9.45-8.17,13.42" id="Ske2pnt1j83" kvg:type="㇒" transform="matrix(1,0,0,1,1896,-4)" xmlns:kvg="http://kanjivg.tagaini.net"></path><path class="stroke_order_diagram--existing_path" d="M81.6,48.38c2.92,0.95,6.81,5.74,7.94,9.05" id="Ske2pnt1j84" kvg:type="㇏" transform="matrix(1,0,0,1,1896,-4)" xmlns:kvg="http://kanjivg.tagaini.net"></path><path class="stroke_order_diagram--existing_path" d="M88.62,64.14c0.03,0.4,0.05,1.02-0.05,1.59c-0.59,3.36-3.96,10.72-8.58,15.23" id="Ske2pnt1j85" kvg:type="㇒" transform="matrix(1,0,0,1,1896,-4)" xmlns:kvg="http://kanjivg.tagaini.net"></path><path class="stroke_order_diagram--current_path" d="M81.57,68.15c2.87,2.44,6.3,7.84,7.91,11.61" id="kvg:07030-s20" kvg:type="㇏" transform="matrix(1,0,0,1,1896,-4)" xmlns:kvg="http://kanjivg.tagaini.net"></path><path class="stroke_order_diagram--current_path" d="M81.57,68.15c2.87,2.44,6.3,7.84,7.91,11.61" id="Ske2pnt1j87" kvg:type="㇏" transform="matrix(1,0,0,1,1896,-4)" xmlns:kvg="http://kanjivg.tagaini.net"></path><circle class="stroke_order_diagram--path_start" cx="81.57" cy="68.15" r="4" transform="matrix(1,0,0,1,1896,-4)"></circle></svg>