<svg class="stroke_order_diagram--svg_container_for_51866273d5dda79658000066" style="height: 100px; width: 1000px;" viewbox="0 0 1000 100"><desc>Created with Snap</desc><defs></defs><line class="stroke_order_diagram--bounding_box" x1="1" x2="999" y1="1" y2="1"></line><line class="stroke_order_diagram--bounding_box" x1="1" x2="1" y1="1" y2="99"></line><line class="stroke_order_diagram--bounding_box" x1="1" x2="999" y1="99" y2="99"></line><line class="stroke_order_diagram--guide_line" x1="0" x2="1000" y1="50" y2="50"></line><line class="stroke_order_diagram--guide_line" x1="50" x2="50" y1="1" y2="99"></line><line class="stroke_order_diagram--bounding_box" x1="99" x2="99" y1="1" y2="99"></line><path class="stroke_order_diagram--current_path" d="M49.23,10.68c0.03,1.02-0.07,2.03-0.46,2.95c-1.51,3.5-3.51,7.12-6.76,11.12" id="kvg:070cf-s1" kvg:type="㇒" transform="matrix(1,0,0,1,-4,-4)" xmlns:kvg="http://kanjivg.tagaini.net"></path><path class="stroke_order_diagram--current_path" d="M49.23,10.68c0.03,1.02-0.07,2.03-0.46,2.95c-1.51,3.5-3.51,7.12-6.76,11.12" id="Ske1o0xtyj" kvg:type="㇒" transform="matrix(1,0,0,1,-4,-4)" xmlns:kvg="http://kanjivg.tagaini.net"></path><circle class="stroke_order_diagram--path_start" cx="49.23" cy="10.68" r="4" transform="matrix(1,0,0,1,-4,-4)"></circle><line class="stroke_order_diagram--guide_line" x1="150" x2="150" y1="1" y2="99"></line><line class="stroke_order_diagram--bounding_box" x1="199" x2="199" y1="1" y2="99"></line><path class="stroke_order_diagram--existing_path" d="M49.23,10.68c0.03,1.02-0.07,2.03-0.46,2.95c-1.51,3.5-3.51,7.12-6.76,11.12" id="Ske1o0xtym" kvg:type="㇒" transform="matrix(1,0,0,1,96,-4)" xmlns:kvg="http://kanjivg.tagaini.net"></path><path class="stroke_order_diagram--current_path" d="M33.38,27.07c0.78,0.78,1.07,2.18,1.07,3.3c0,5.08,0.03,19.07-0.08,30.63c-0.03,3.55-0.08,6.75-0.15,9.2" id="kvg:070cf-s2" kvg:type="㇑" transform="matrix(1,0,0,1,96,-4)" xmlns:kvg="http://kanjivg.tagaini.net"></path><path class="stroke_order_diagram--current_path" d="M33.38,27.07c0.78,0.78,1.07,2.18,1.07,3.3c0,5.08,0.03,19.07-0.08,30.63c-0.03,3.55-0.08,6.75-0.15,9.2" id="Ske1o0xtyo" kvg:type="㇑" transform="matrix(1,0,0,1,96,-4)" xmlns:kvg="http://kanjivg.tagaini.net"></path><circle class="stroke_order_diagram--path_start" cx="33.38" cy="27.07" r="4" transform="matrix(1,0,0,1,96,-4)"></circle><line class="stroke_order_diagram--guide_line" x1="250" x2="250" y1="1" y2="99"></line><line class="stroke_order_diagram--bounding_box" x1="299" x2="299" y1="1" y2="99"></line><path class="stroke_order_diagram--existing_path" d="M49.23,10.68c0.03,1.02-0.07,2.03-0.46,2.95c-1.51,3.5-3.51,7.12-6.76,11.12" id="Ske1o0xtyr" kvg:type="㇒" transform="matrix(1,0,0,1,196,-4)" xmlns:kvg="http://kanjivg.tagaini.net"></path><path class="stroke_order_diagram--existing_path" d="M33.38,27.07c0.78,0.78,1.07,2.18,1.07,3.3c0,5.08,0.03,19.07-0.08,30.63c-0.03,3.55-0.08,6.75-0.15,9.2" id="Ske1o0xtys" kvg:type="㇑" transform="matrix(1,0,0,1,196,-4)" xmlns:kvg="http://kanjivg.tagaini.net"></path><path class="stroke_order_diagram--current_path" d="M35.02,28.72c5.23-0.72,32.59-4.48,34.67-4.48c2.77,0,4.85,1.82,4.09,4.54c-0.53,1.9-1.98,6.51-3.5,11.35c-0.51,1.63-1.03,3.29-1.52,4.87" id="kvg:070cf-s3" kvg:type="㇕" transform="matrix(1,0,0,1,196,-4)" xmlns:kvg="http://kanjivg.tagaini.net"></path><path class="stroke_order_diagram--current_path" d="M35.02,28.72c5.23-0.72,32.59-4.48,34.67-4.48c2.77,0,4.85,1.82,4.09,4.54c-0.53,1.9-1.98,6.51-3.5,11.35c-0.51,1.63-1.03,3.29-1.52,4.87" id="Ske1o0xtyu" kvg:type="㇕" transform="matrix(1,0,0,1,196,-4)" xmlns:kvg="http://kanjivg.tagaini.net"></path><circle class="stroke_order_diagram--path_start" cx="35.02" cy="28.72" r="4" transform="matrix(1,0,0,1,196,-4)"></circle><line class="stroke_order_diagram--guide_line" x1="350" x2="350" y1="1" y2="99"></line><line class="stroke_order_diagram--bounding_box" x1="399" x2="399" y1="1" y2="99"></line><path class="stroke_order_diagram--existing_path" d="M49.23,10.68c0.03,1.02-0.07,2.03-0.46,2.95c-1.51,3.5-3.51,7.12-6.76,11.12" id="Ske1o0xtyx" kvg:type="㇒" transform="matrix(1,0,0,1,296,-4)" xmlns:kvg="http://kanjivg.tagaini.net"></path><path class="stroke_order_diagram--existing_path" d="M33.38,27.07c0.78,0.78,1.07,2.18,1.07,3.3c0,5.08,0.03,19.07-0.08,30.63c-0.03,3.55-0.08,6.75-0.15,9.2" id="Ske1o0xtyy" kvg:type="㇑" transform="matrix(1,0,0,1,296,-4)" xmlns:kvg="http://kanjivg.tagaini.net"></path><path class="stroke_order_diagram--existing_path" d="M35.02,28.72c5.23-0.72,32.59-4.48,34.67-4.48c2.77,0,4.85,1.82,4.09,4.54c-0.53,1.9-1.98,6.51-3.5,11.35c-0.51,1.63-1.03,3.29-1.52,4.87" id="Ske1o0xtyz" kvg:type="㇕" transform="matrix(1,0,0,1,296,-4)" xmlns:kvg="http://kanjivg.tagaini.net"></path><path class="stroke_order_diagram--current_path" d="M35.24,45.78c5.31-0.38,26.87-2.88,33.48-3.2" id="kvg:070cf-s4" kvg:type="㇐a" transform="matrix(1,0,0,1,296,-4)" xmlns:kvg="http://kanjivg.tagaini.net"></path><path class="stroke_order_diagram--current_path" d="M35.24,45.78c5.31-0.38,26.87-2.88,33.48-3.2" id="Ske1o0xty11" kvg:type="㇐a" transform="matrix(1,0,0,1,296,-4)" xmlns:kvg="http://kanjivg.tagaini.net"></path><circle class="stroke_order_diagram--path_start" cx="35.24" cy="45.78" r="4" transform="matrix(1,0,0,1,296,-4)"></circle><line class="stroke_order_diagram--guide_line" x1="450" x2="450" y1="1" y2="99"></line><line class="stroke_order_diagram--bounding_box" x1="499" x2="499" y1="1" y2="99"></line><path class="stroke_order_diagram--existing_path" d="M49.23,10.68c0.03,1.02-0.07,2.03-0.46,2.95c-1.51,3.5-3.51,7.12-6.76,11.12" id="Ske1o0xty14" kvg:type="㇒" transform="matrix(1,0,0,1,396,-4)" xmlns:kvg="http://kanjivg.tagaini.net"></path><path class="stroke_order_diagram--existing_path" d="M33.38,27.07c0.78,0.78,1.07,2.18,1.07,3.3c0,5.08,0.03,19.07-0.08,30.63c-0.03,3.55-0.08,6.75-0.15,9.2" id="Ske1o0xty15" kvg:type="㇑" transform="matrix(1,0,0,1,396,-4)" xmlns:kvg="http://kanjivg.tagaini.net"></path><path class="stroke_order_diagram--existing_path" d="M35.02,28.72c5.23-0.72,32.59-4.48,34.67-4.48c2.77,0,4.85,1.82,4.09,4.54c-0.53,1.9-1.98,6.51-3.5,11.35c-0.51,1.63-1.03,3.29-1.52,4.87" id="Ske1o0xty16" kvg:type="㇕" transform="matrix(1,0,0,1,396,-4)" xmlns:kvg="http://kanjivg.tagaini.net"></path><path class="stroke_order_diagram--existing_path" d="M35.24,45.78c5.31-0.38,26.87-2.88,33.48-3.2" id="Ske1o0xty17" kvg:type="㇐a" transform="matrix(1,0,0,1,396,-4)" xmlns:kvg="http://kanjivg.tagaini.net"></path><path class="stroke_order_diagram--current_path" d="M35.53,58.05c9.25-1.07,27.99-2.77,36.98-3.78c3.18-0.43,6.39-0.55,9.61-0.37" id="kvg:070cf-s5" kvg:type="㇐b" transform="matrix(1,0,0,1,396,-4)" xmlns:kvg="http://kanjivg.tagaini.net"></path><path class="stroke_order_diagram--current_path" d="M35.53,58.05c9.25-1.07,27.99-2.77,36.98-3.78c3.18-0.43,6.39-0.55,9.61-0.37" id="Ske1o0xty19" kvg:type="㇐b" transform="matrix(1,0,0,1,396,-4)" xmlns:kvg="http://kanjivg.tagaini.net"></path><circle class="stroke_order_diagram--path_start" cx="35.53" cy="58.05" r="4" transform="matrix(1,0,0,1,396,-4)"></circle><line class="stroke_order_diagram--guide_line" x1="550" x2="550" y1="1" y2="99"></line><line class="stroke_order_diagram--bounding_box" x1="599" x2="599" y1="1" y2="99"></line><path class="stroke_order_diagram--existing_path" d="M49.23,10.68c0.03,1.02-0.07,2.03-0.46,2.95c-1.51,3.5-3.51,7.12-6.76,11.12" id="Ske1o0xty1c" kvg:type="㇒" transform="matrix(1,0,0,1,496,-4)" xmlns:kvg="http://kanjivg.tagaini.net"></path><path class="stroke_order_diagram--existing_path" d="M33.38,27.07c0.78,0.78,1.07,2.18,1.07,3.3c0,5.08,0.03,19.07-0.08,30.63c-0.03,3.55-0.08,6.75-0.15,9.2" id="Ske1o0xty1d" kvg:type="㇑" transform="matrix(1,0,0,1,496,-4)" xmlns:kvg="http://kanjivg.tagaini.net"></path><path class="stroke_order_diagram--existing_path" d="M35.02,28.72c5.23-0.72,32.59-4.48,34.67-4.48c2.77,0,4.85,1.82,4.09,4.54c-0.53,1.9-1.98,6.51-3.5,11.35c-0.51,1.63-1.03,3.29-1.52,4.87" id="Ske1o0xty1e" kvg:type="㇕" transform="matrix(1,0,0,1,496,-4)" xmlns:kvg="http://kanjivg.tagaini.net"></path><path class="stroke_order_diagram--existing_path" d="M35.24,45.78c5.31-0.38,26.87-2.88,33.48-3.2" id="Ske1o0xty1f" kvg:type="㇐a" transform="matrix(1,0,0,1,496,-4)" xmlns:kvg="http://kanjivg.tagaini.net"></path><path class="stroke_order_diagram--existing_path" d="M35.53,58.05c9.25-1.07,27.99-2.77,36.98-3.78c3.18-0.43,6.39-0.55,9.61-0.37" id="Ske1o0xty1g" kvg:type="㇐b" transform="matrix(1,0,0,1,496,-4)" xmlns:kvg="http://kanjivg.tagaini.net"></path><path class="stroke_order_diagram--current_path" d="M34.48,70.4c17.27-2.53,37.15-4.56,49.02-5.4c5.25-0.38,6.81,2.33,6,5.75c-2.25,9.5-4.32,17.96-8,24c-3.5,5.75-5.25,3.75-9,0.75" id="kvg:070cf-s6" kvg:type="㇆" transform="matrix(1,0,0,1,496,-4)" xmlns:kvg="http://kanjivg.tagaini.net"></path><path class="stroke_order_diagram--current_path" d="M34.48,70.4c17.27-2.53,37.15-4.56,49.02-5.4c5.25-0.38,6.81,2.33,6,5.75c-2.25,9.5-4.32,17.96-8,24c-3.5,5.75-5.25,3.75-9,0.75" id="Ske1o0xty1i" kvg:type="㇆" transform="matrix(1,0,0,1,496,-4)" xmlns:kvg="http://kanjivg.tagaini.net"></path><circle class="stroke_order_diagram--path_start" cx="34.48" cy="70.4" r="4" transform="matrix(1,0,0,1,496,-4)"></circle><line class="stroke_order_diagram--guide_line" x1="650" x2="650" y1="1" y2="99"></line><line class="stroke_order_diagram--bounding_box" x1="699" x2="699" y1="1" y2="99"></line><path class="stroke_order_diagram--existing_path" d="M49.23,10.68c0.03,1.02-0.07,2.03-0.46,2.95c-1.51,3.5-3.51,7.12-6.76,11.12" id="Ske1o0xty1l" kvg:type="㇒" transform="matrix(1,0,0,1,596,-4)" xmlns:kvg="http://kanjivg.tagaini.net"></path><path class="stroke_order_diagram--existing_path" d="M33.38,27.07c0.78,0.78,1.07,2.18,1.07,3.3c0,5.08,0.03,19.07-0.08,30.63c-0.03,3.55-0.08,6.75-0.15,9.2" id="Ske1o0xty1m" kvg:type="㇑" transform="matrix(1,0,0,1,596,-4)" xmlns:kvg="http://kanjivg.tagaini.net"></path><path class="stroke_order_diagram--existing_path" d="M35.02,28.72c5.23-0.72,32.59-4.48,34.67-4.48c2.77,0,4.85,1.82,4.09,4.54c-0.53,1.9-1.98,6.51-3.5,11.35c-0.51,1.63-1.03,3.29-1.52,4.87" id="Ske1o0xty1n" kvg:type="㇕" transform="matrix(1,0,0,1,596,-4)" xmlns:kvg="http://kanjivg.tagaini.net"></path><path class="stroke_order_diagram--existing_path" d="M35.24,45.78c5.31-0.38,26.87-2.88,33.48-3.2" id="Ske1o0xty1o" kvg:type="㇐a" transform="matrix(1,0,0,1,596,-4)" xmlns:kvg="http://kanjivg.tagaini.net"></path><path class="stroke_order_diagram--existing_path" d="M35.53,58.05c9.25-1.07,27.99-2.77,36.98-3.78c3.18-0.43,6.39-0.55,9.61-0.37" id="Ske1o0xty1p" kvg:type="㇐b" transform="matrix(1,0,0,1,596,-4)" xmlns:kvg="http://kanjivg.tagaini.net"></path><path class="stroke_order_diagram--existing_path" d="M34.48,70.4c17.27-2.53,37.15-4.56,49.02-5.4c5.25-0.38,6.81,2.33,6,5.75c-2.25,9.5-4.32,17.96-8,24c-3.5,5.75-5.25,3.75-9,0.75" id="Ske1o0xty1q" kvg:type="㇆" transform="matrix(1,0,0,1,596,-4)" xmlns:kvg="http://kanjivg.tagaini.net"></path><path class="stroke_order_diagram--current_path" d="M16.39,80c0.41,5.38-0.29,11.89-1.5,15.25" id="kvg:070cf-s7" kvg:type="㇔" transform="matrix(1,0,0,1,596,-4)" xmlns:kvg="http://kanjivg.tagaini.net"></path><path class="stroke_order_diagram--current_path" d="M16.39,80c0.41,5.38-0.29,11.89-1.5,15.25" id="Ske1o0xty1s" kvg:type="㇔" transform="matrix(1,0,0,1,596,-4)" xmlns:kvg="http://kanjivg.tagaini.net"></path><circle class="stroke_order_diagram--path_start" cx="16.39" cy="80" r="4" transform="matrix(1,0,0,1,596,-4)"></circle><line class="stroke_order_diagram--guide_line" x1="750" x2="750" y1="1" y2="99"></line><line class="stroke_order_diagram--bounding_box" x1="799" x2="799" y1="1" y2="99"></line><path class="stroke_order_diagram--existing_path" d="M49.23,10.68c0.03,1.02-0.07,2.03-0.46,2.95c-1.51,3.5-3.51,7.12-6.76,11.12" id="Ske1o0xty1v" kvg:type="㇒" transform="matrix(1,0,0,1,696,-4)" xmlns:kvg="http://kanjivg.tagaini.net"></path><path class="stroke_order_diagram--existing_path" d="M33.38,27.07c0.78,0.78,1.07,2.18,1.07,3.3c0,5.08,0.03,19.07-0.08,30.63c-0.03,3.55-0.08,6.75-0.15,9.2" id="Ske1o0xty1w" kvg:type="㇑" transform="matrix(1,0,0,1,696,-4)" xmlns:kvg="http://kanjivg.tagaini.net"></path><path class="stroke_order_diagram--existing_path" d="M35.02,28.72c5.23-0.72,32.59-4.48,34.67-4.48c2.77,0,4.85,1.82,4.09,4.54c-0.53,1.9-1.98,6.51-3.5,11.35c-0.51,1.63-1.03,3.29-1.52,4.87" id="Ske1o0xty1x" kvg:type="㇕" transform="matrix(1,0,0,1,696,-4)" xmlns:kvg="http://kanjivg.tagaini.net"></path><path class="stroke_order_diagram--existing_path" d="M35.24,45.78c5.31-0.38,26.87-2.88,33.48-3.2" id="Ske1o0xty1y" kvg:type="㇐a" transform="matrix(1,0,0,1,696,-4)" xmlns:kvg="http://kanjivg.tagaini.net"></path><path class="stroke_order_diagram--existing_path" d="M35.53,58.05c9.25-1.07,27.99-2.77,36.98-3.78c3.18-0.43,6.39-0.55,9.61-0.37" id="Ske1o0xty1z" kvg:type="㇐b" transform="matrix(1,0,0,1,696,-4)" xmlns:kvg="http://kanjivg.tagaini.net"></path><path class="stroke_order_diagram--existing_path" d="M34.48,70.4c17.27-2.53,37.15-4.56,49.02-5.4c5.25-0.38,6.81,2.33,6,5.75c-2.25,9.5-4.32,17.96-8,24c-3.5,5.75-5.25,3.75-9,0.75" id="Ske1o0xty20" kvg:type="㇆" transform="matrix(1,0,0,1,696,-4)" xmlns:kvg="http://kanjivg.tagaini.net"></path><path class="stroke_order_diagram--existing_path" d="M16.39,80c0.41,5.38-0.29,11.89-1.5,15.25" id="Ske1o0xty21" kvg:type="㇔" transform="matrix(1,0,0,1,696,-4)" xmlns:kvg="http://kanjivg.tagaini.net"></path><path class="stroke_order_diagram--current_path" d="M32,79.75c2.69,2.18,5.24,8.16,5.91,11.55" id="kvg:070cf-s8" kvg:type="㇔" transform="matrix(1,0,0,1,696,-4)" xmlns:kvg="http://kanjivg.tagaini.net"></path><path class="stroke_order_diagram--current_path" d="M32,79.75c2.69,2.18,5.24,8.16,5.91,11.55" id="Ske1o0xty23" kvg:type="㇔" transform="matrix(1,0,0,1,696,-4)" xmlns:kvg="http://kanjivg.tagaini.net"></path><circle class="stroke_order_diagram--path_start" cx="32" cy="79.75" r="4" transform="matrix(1,0,0,1,696,-4)"></circle><line class="stroke_order_diagram--guide_line" x1="850" x2="850" y1="1" y2="99"></line><line class="stroke_order_diagram--bounding_box" x1="899" x2="899" y1="1" y2="99"></line><path class="stroke_order_diagram--existing_path" d="M49.23,10.68c0.03,1.02-0.07,2.03-0.46,2.95c-1.51,3.5-3.51,7.12-6.76,11.12" id="Ske1o0xty26" kvg:type="㇒" transform="matrix(1,0,0,1,796,-4)" xmlns:kvg="http://kanjivg.tagaini.net"></path><path class="stroke_order_diagram--existing_path" d="M33.38,27.07c0.78,0.78,1.07,2.18,1.07,3.3c0,5.08,0.03,19.07-0.08,30.63c-0.03,3.55-0.08,6.75-0.15,9.2" id="Ske1o0xty27" kvg:type="㇑" transform="matrix(1,0,0,1,796,-4)" xmlns:kvg="http://kanjivg.tagaini.net"></path><path class="stroke_order_diagram--existing_path" d="M35.02,28.72c5.23-0.72,32.59-4.48,34.67-4.48c2.77,0,4.85,1.82,4.09,4.54c-0.53,1.9-1.98,6.51-3.5,11.35c-0.51,1.63-1.03,3.29-1.52,4.87" id="Ske1o0xty28" kvg:type="㇕" transform="matrix(1,0,0,1,796,-4)" xmlns:kvg="http://kanjivg.tagaini.net"></path><path class="stroke_order_diagram--existing_path" d="M35.24,45.78c5.31-0.38,26.87-2.88,33.48-3.2" id="Ske1o0xty29" kvg:type="㇐a" transform="matrix(1,0,0,1,796,-4)" xmlns:kvg="http://kanjivg.tagaini.net"></path><path class="stroke_order_diagram--existing_path" d="M35.53,58.05c9.25-1.07,27.99-2.77,36.98-3.78c3.18-0.43,6.39-0.55,9.61-0.37" id="Ske1o0xty2a" kvg:type="㇐b" transform="matrix(1,0,0,1,796,-4)" xmlns:kvg="http://kanjivg.tagaini.net"></path><path class="stroke_order_diagram--existing_path" d="M34.48,70.4c17.27-2.53,37.15-4.56,49.02-5.4c5.25-0.38,6.81,2.33,6,5.75c-2.25,9.5-4.32,17.96-8,24c-3.5,5.75-5.25,3.75-9,0.75" id="Ske1o0xty2b" kvg:type="㇆" transform="matrix(1,0,0,1,796,-4)" xmlns:kvg="http://kanjivg.tagaini.net"></path><path class="stroke_order_diagram--existing_path" d="M16.39,80c0.41,5.38-0.29,11.89-1.5,15.25" id="Ske1o0xty2c" kvg:type="㇔" transform="matrix(1,0,0,1,796,-4)" xmlns:kvg="http://kanjivg.tagaini.net"></path><path class="stroke_order_diagram--existing_path" d="M32,79.75c2.69,2.18,5.24,8.16,5.91,11.55" id="Ske1o0xty2d" kvg:type="㇔" transform="matrix(1,0,0,1,796,-4)" xmlns:kvg="http://kanjivg.tagaini.net"></path><path class="stroke_order_diagram--current_path" d="M47.5,77.25c2.21,1.85,5.7,7.62,6.25,10.5" id="kvg:070cf-s9" kvg:type="㇔" transform="matrix(1,0,0,1,796,-4)" xmlns:kvg="http://kanjivg.tagaini.net"></path><path class="stroke_order_diagram--current_path" d="M47.5,77.25c2.21,1.85,5.7,7.62,6.25,10.5" id="Ske1o0xty2f" kvg:type="㇔" transform="matrix(1,0,0,1,796,-4)" xmlns:kvg="http://kanjivg.tagaini.net"></path><circle class="stroke_order_diagram--path_start" cx="47.5" cy="77.25" r="4" transform="matrix(1,0,0,1,796,-4)"></circle><line class="stroke_order_diagram--guide_line" x1="950" x2="950" y1="1" y2="99"></line><line class="stroke_order_diagram--bounding_box" x1="999" x2="999" y1="1" y2="99"></line><path class="stroke_order_diagram--existing_path" d="M49.23,10.68c0.03,1.02-0.07,2.03-0.46,2.95c-1.51,3.5-3.51,7.12-6.76,11.12" id="Ske1o0xty2i" kvg:type="㇒" transform="matrix(1,0,0,1,896,-4)" xmlns:kvg="http://kanjivg.tagaini.net"></path><path class="stroke_order_diagram--existing_path" d="M33.38,27.07c0.78,0.78,1.07,2.18,1.07,3.3c0,5.08,0.03,19.07-0.08,30.63c-0.03,3.55-0.08,6.75-0.15,9.2" id="Ske1o0xty2j" kvg:type="㇑" transform="matrix(1,0,0,1,896,-4)" xmlns:kvg="http://kanjivg.tagaini.net"></path><path class="stroke_order_diagram--existing_path" d="M35.02,28.72c5.23-0.72,32.59-4.48,34.67-4.48c2.77,0,4.85,1.82,4.09,4.54c-0.53,1.9-1.98,6.51-3.5,11.35c-0.51,1.63-1.03,3.29-1.52,4.87" id="Ske1o0xty2k" kvg:type="㇕" transform="matrix(1,0,0,1,896,-4)" xmlns:kvg="http://kanjivg.tagaini.net"></path><path class="stroke_order_diagram--existing_path" d="M35.24,45.78c5.31-0.38,26.87-2.88,33.48-3.2" id="Ske1o0xty2l" kvg:type="㇐a" transform="matrix(1,0,0,1,896,-4)" xmlns:kvg="http://kanjivg.tagaini.net"></path><path class="stroke_order_diagram--existing_path" d="M35.53,58.05c9.25-1.07,27.99-2.77,36.98-3.78c3.18-0.43,6.39-0.55,9.61-0.37" id="Ske1o0xty2m" kvg:type="㇐b" transform="matrix(1,0,0,1,896,-4)" xmlns:kvg="http://kanjivg.tagaini.net"></path><path class="stroke_order_diagram--existing_path" d="M34.48,70.4c17.27-2.53,37.15-4.56,49.02-5.4c5.25-0.38,6.81,2.33,6,5.75c-2.25,9.5-4.32,17.96-8,24c-3.5,5.75-5.25,3.75-9,0.75" id="Ske1o0xty2n" kvg:type="㇆" transform="matrix(1,0,0,1,896,-4)" xmlns:kvg="http://kanjivg.tagaini.net"></path><path class="stroke_order_diagram--existing_path" d="M16.39,80c0.41,5.38-0.29,11.89-1.5,15.25" id="Ske1o0xty2o" kvg:type="㇔" transform="matrix(1,0,0,1,896,-4)" xmlns:kvg="http://kanjivg.tagaini.net"></path><path class="stroke_order_diagram--existing_path" d="M32,79.75c2.69,2.18,5.24,8.16,5.91,11.55" id="Ske1o0xty2p" kvg:type="㇔" transform="matrix(1,0,0,1,896,-4)" xmlns:kvg="http://kanjivg.tagaini.net"></path><path class="stroke_order_diagram--existing_path" d="M47.5,77.25c2.21,1.85,5.7,7.62,6.25,10.5" id="Ske1o0xty2q" kvg:type="㇔" transform="matrix(1,0,0,1,896,-4)" xmlns:kvg="http://kanjivg.tagaini.net"></path><path class="stroke_order_diagram--current_path" d="M61.25,75.75c2.29,1.72,5.93,7.07,6.5,9.75" id="kvg:070cf-s10" kvg:type="㇔" transform="matrix(1,0,0,1,896,-4)" xmlns:kvg="http://kanjivg.tagaini.net"></path><path class="stroke_order_diagram--current_path" d="M61.25,75.75c2.29,1.72,5.93,7.07,6.5,9.75" id="Ske1o0xty2s" kvg:type="㇔" transform="matrix(1,0,0,1,896,-4)" xmlns:kvg="http://kanjivg.tagaini.net"></path><circle class="stroke_order_diagram--path_start" cx="61.25" cy="75.75" r="4" transform="matrix(1,0,0,1,896,-4)"></circle></svg>