<svg class="stroke_order_diagram--svg_container_for_51866296d5dda7965800099e" style="height: 100px; width: 1200px;" viewbox="0 0 1200 100"><desc>Created with Snap</desc><defs></defs><line class="stroke_order_diagram--bounding_box" x1="1" x2="1199" y1="1" y2="1"></line><line class="stroke_order_diagram--bounding_box" x1="1" x2="1" y1="1" y2="99"></line><line class="stroke_order_diagram--bounding_box" x1="1" x2="1199" y1="99" y2="99"></line><line class="stroke_order_diagram--guide_line" x1="0" x2="1200" y1="50" y2="50"></line><line class="stroke_order_diagram--guide_line" x1="50" x2="50" y1="1" y2="99"></line><line class="stroke_order_diagram--bounding_box" x1="99" x2="99" y1="1" y2="99"></line><path class="stroke_order_diagram--current_path" d="M16.16,28.07c0.82,0.24,3.31,0.7,5.5,0.5c7.7-0.71,14.04-2.08,22.29-2.55c2.19-0.13,3.85-0.71,5.22-0.47" id="kvg:0711a-s1" kvg:type="㇐" transform="matrix(1,0,0,1,-4,-4)" xmlns:kvg="http://kanjivg.tagaini.net"></path><path class="stroke_order_diagram--current_path" d="M16.16,28.07c0.82,0.24,3.31,0.7,5.5,0.5c7.7-0.71,14.04-2.08,22.29-2.55c2.19-0.13,3.85-0.71,5.22-0.47" id="Ske27qgxjl" kvg:type="㇐" transform="matrix(1,0,0,1,-4,-4)" xmlns:kvg="http://kanjivg.tagaini.net"></path><circle class="stroke_order_diagram--path_start" cx="16.16" cy="28.07" r="4" transform="matrix(1,0,0,1,-4,-4)"></circle><line class="stroke_order_diagram--guide_line" x1="150" x2="150" y1="1" y2="99"></line><line class="stroke_order_diagram--bounding_box" x1="199" x2="199" y1="1" y2="99"></line><path class="stroke_order_diagram--existing_path" d="M16.16,28.07c0.82,0.24,3.31,0.7,5.5,0.5c7.7-0.71,14.04-2.08,22.29-2.55c2.19-0.13,3.85-0.71,5.22-0.47" id="Ske27qgxjo" kvg:type="㇐" transform="matrix(1,0,0,1,96,-4)" xmlns:kvg="http://kanjivg.tagaini.net"></path><path class="stroke_order_diagram--current_path" d="M33.57,12.38c0.68,0.62,1.61,2.01,1.61,2.74c0,8.14-0.23,26.39-0.23,36.45" id="kvg:0711a-s2" kvg:type="㇑" transform="matrix(1,0,0,1,96,-4)" xmlns:kvg="http://kanjivg.tagaini.net"></path><path class="stroke_order_diagram--current_path" d="M33.57,12.38c0.68,0.62,1.61,2.01,1.61,2.74c0,8.14-0.23,26.39-0.23,36.45" id="Ske27qgxjq" kvg:type="㇑" transform="matrix(1,0,0,1,96,-4)" xmlns:kvg="http://kanjivg.tagaini.net"></path><circle class="stroke_order_diagram--path_start" cx="33.57" cy="12.38" r="4" transform="matrix(1,0,0,1,96,-4)"></circle><line class="stroke_order_diagram--guide_line" x1="250" x2="250" y1="1" y2="99"></line><line class="stroke_order_diagram--bounding_box" x1="299" x2="299" y1="1" y2="99"></line><path class="stroke_order_diagram--existing_path" d="M16.16,28.07c0.82,0.24,3.31,0.7,5.5,0.5c7.7-0.71,14.04-2.08,22.29-2.55c2.19-0.13,3.85-0.71,5.22-0.47" id="Ske27qgxjt" kvg:type="㇐" transform="matrix(1,0,0,1,196,-4)" xmlns:kvg="http://kanjivg.tagaini.net"></path><path class="stroke_order_diagram--existing_path" d="M33.57,12.38c0.68,0.62,1.61,2.01,1.61,2.74c0,8.14-0.23,26.39-0.23,36.45" id="Ske27qgxju" kvg:type="㇑" transform="matrix(1,0,0,1,196,-4)" xmlns:kvg="http://kanjivg.tagaini.net"></path><path class="stroke_order_diagram--current_path" d="M34.74,27.47c-3.49,7.03-13.79,16.79-21,20.34" id="kvg:0711a-s3" kvg:type="㇒" transform="matrix(1,0,0,1,196,-4)" xmlns:kvg="http://kanjivg.tagaini.net"></path><path class="stroke_order_diagram--current_path" d="M34.74,27.47c-3.49,7.03-13.79,16.79-21,20.34" id="Ske27qgxjw" kvg:type="㇒" transform="matrix(1,0,0,1,196,-4)" xmlns:kvg="http://kanjivg.tagaini.net"></path><circle class="stroke_order_diagram--path_start" cx="34.74" cy="27.47" r="4" transform="matrix(1,0,0,1,196,-4)"></circle><line class="stroke_order_diagram--guide_line" x1="350" x2="350" y1="1" y2="99"></line><line class="stroke_order_diagram--bounding_box" x1="399" x2="399" y1="1" y2="99"></line><path class="stroke_order_diagram--existing_path" d="M16.16,28.07c0.82,0.24,3.31,0.7,5.5,0.5c7.7-0.71,14.04-2.08,22.29-2.55c2.19-0.13,3.85-0.71,5.22-0.47" id="Ske27qgxjz" kvg:type="㇐" transform="matrix(1,0,0,1,296,-4)" xmlns:kvg="http://kanjivg.tagaini.net"></path><path class="stroke_order_diagram--existing_path" d="M33.57,12.38c0.68,0.62,1.61,2.01,1.61,2.74c0,8.14-0.23,26.39-0.23,36.45" id="Ske27qgxj10" kvg:type="㇑" transform="matrix(1,0,0,1,296,-4)" xmlns:kvg="http://kanjivg.tagaini.net"></path><path class="stroke_order_diagram--existing_path" d="M34.74,27.47c-3.49,7.03-13.79,16.79-21,20.34" id="Ske27qgxj11" kvg:type="㇒" transform="matrix(1,0,0,1,296,-4)" xmlns:kvg="http://kanjivg.tagaini.net"></path><path class="stroke_order_diagram--current_path" d="M38.11,31.04c3.39,1.96,7.14,6.21,9.36,9.84" id="kvg:0711a-s4" kvg:type="㇔/㇏" transform="matrix(1,0,0,1,296,-4)" xmlns:kvg="http://kanjivg.tagaini.net"></path><path class="stroke_order_diagram--current_path" d="M38.11,31.04c3.39,1.96,7.14,6.21,9.36,9.84" id="Ske27qgxj13" kvg:type="㇔/㇏" transform="matrix(1,0,0,1,296,-4)" xmlns:kvg="http://kanjivg.tagaini.net"></path><circle class="stroke_order_diagram--path_start" cx="38.11" cy="31.04" r="4" transform="matrix(1,0,0,1,296,-4)"></circle><line class="stroke_order_diagram--guide_line" x1="450" x2="450" y1="1" y2="99"></line><line class="stroke_order_diagram--bounding_box" x1="499" x2="499" y1="1" y2="99"></line><path class="stroke_order_diagram--existing_path" d="M16.16,28.07c0.82,0.24,3.31,0.7,5.5,0.5c7.7-0.71,14.04-2.08,22.29-2.55c2.19-0.13,3.85-0.71,5.22-0.47" id="Ske27qgxj16" kvg:type="㇐" transform="matrix(1,0,0,1,396,-4)" xmlns:kvg="http://kanjivg.tagaini.net"></path><path class="stroke_order_diagram--existing_path" d="M33.57,12.38c0.68,0.62,1.61,2.01,1.61,2.74c0,8.14-0.23,26.39-0.23,36.45" id="Ske27qgxj17" kvg:type="㇑" transform="matrix(1,0,0,1,396,-4)" xmlns:kvg="http://kanjivg.tagaini.net"></path><path class="stroke_order_diagram--existing_path" d="M34.74,27.47c-3.49,7.03-13.79,16.79-21,20.34" id="Ske27qgxj18" kvg:type="㇒" transform="matrix(1,0,0,1,396,-4)" xmlns:kvg="http://kanjivg.tagaini.net"></path><path class="stroke_order_diagram--existing_path" d="M38.11,31.04c3.39,1.96,7.14,6.21,9.36,9.84" id="Ske27qgxj19" kvg:type="㇔/㇏" transform="matrix(1,0,0,1,396,-4)" xmlns:kvg="http://kanjivg.tagaini.net"></path><path class="stroke_order_diagram--current_path" d="M56.52,25.35c0.57,0.17,1.33,0.45,2.85,0.52c4.18,0.17,16.73-1.21,27.19-2.07c1.52-0.12,2.84-0.17,3.79,0" id="kvg:0711a-s5" kvg:type="㇐" transform="matrix(1,0,0,1,396,-4)" xmlns:kvg="http://kanjivg.tagaini.net"></path><path class="stroke_order_diagram--current_path" d="M56.52,25.35c0.57,0.17,1.33,0.45,2.85,0.52c4.18,0.17,16.73-1.21,27.19-2.07c1.52-0.12,2.84-0.17,3.79,0" id="Ske27qgxj1b" kvg:type="㇐" transform="matrix(1,0,0,1,396,-4)" xmlns:kvg="http://kanjivg.tagaini.net"></path><circle class="stroke_order_diagram--path_start" cx="56.52" cy="25.35" r="4" transform="matrix(1,0,0,1,396,-4)"></circle><line class="stroke_order_diagram--guide_line" x1="550" x2="550" y1="1" y2="99"></line><line class="stroke_order_diagram--bounding_box" x1="599" x2="599" y1="1" y2="99"></line><path class="stroke_order_diagram--existing_path" d="M16.16,28.07c0.82,0.24,3.31,0.7,5.5,0.5c7.7-0.71,14.04-2.08,22.29-2.55c2.19-0.13,3.85-0.71,5.22-0.47" id="Ske27qgxj1e" kvg:type="㇐" transform="matrix(1,0,0,1,496,-4)" xmlns:kvg="http://kanjivg.tagaini.net"></path><path class="stroke_order_diagram--existing_path" d="M33.57,12.38c0.68,0.62,1.61,2.01,1.61,2.74c0,8.14-0.23,26.39-0.23,36.45" id="Ske27qgxj1f" kvg:type="㇑" transform="matrix(1,0,0,1,496,-4)" xmlns:kvg="http://kanjivg.tagaini.net"></path><path class="stroke_order_diagram--existing_path" d="M34.74,27.47c-3.49,7.03-13.79,16.79-21,20.34" id="Ske27qgxj1g" kvg:type="㇒" transform="matrix(1,0,0,1,496,-4)" xmlns:kvg="http://kanjivg.tagaini.net"></path><path class="stroke_order_diagram--existing_path" d="M38.11,31.04c3.39,1.96,7.14,6.21,9.36,9.84" id="Ske27qgxj1h" kvg:type="㇔/㇏" transform="matrix(1,0,0,1,496,-4)" xmlns:kvg="http://kanjivg.tagaini.net"></path><path class="stroke_order_diagram--existing_path" d="M56.52,25.35c0.57,0.17,1.33,0.45,2.85,0.52c4.18,0.17,16.73-1.21,27.19-2.07c1.52-0.12,2.84-0.17,3.79,0" id="Ske27qgxj1i" kvg:type="㇐" transform="matrix(1,0,0,1,496,-4)" xmlns:kvg="http://kanjivg.tagaini.net"></path><path class="stroke_order_diagram--current_path" d="M71.06,11.5c1.17,0.34,2.11,2.51,2.11,3.24c0,5.51,0,31.21-0.23,35.51" id="kvg:0711a-s6" kvg:type="㇑" transform="matrix(1,0,0,1,496,-4)" xmlns:kvg="http://kanjivg.tagaini.net"></path><path class="stroke_order_diagram--current_path" d="M71.06,11.5c1.17,0.34,2.11,2.51,2.11,3.24c0,5.51,0,31.21-0.23,35.51" id="Ske27qgxj1k" kvg:type="㇑" transform="matrix(1,0,0,1,496,-4)" xmlns:kvg="http://kanjivg.tagaini.net"></path><circle class="stroke_order_diagram--path_start" cx="71.06" cy="11.5" r="4" transform="matrix(1,0,0,1,496,-4)"></circle><line class="stroke_order_diagram--guide_line" x1="650" x2="650" y1="1" y2="99"></line><line class="stroke_order_diagram--bounding_box" x1="699" x2="699" y1="1" y2="99"></line><path class="stroke_order_diagram--existing_path" d="M16.16,28.07c0.82,0.24,3.31,0.7,5.5,0.5c7.7-0.71,14.04-2.08,22.29-2.55c2.19-0.13,3.85-0.71,5.22-0.47" id="Ske27qgxj1n" kvg:type="㇐" transform="matrix(1,0,0,1,596,-4)" xmlns:kvg="http://kanjivg.tagaini.net"></path><path class="stroke_order_diagram--existing_path" d="M33.57,12.38c0.68,0.62,1.61,2.01,1.61,2.74c0,8.14-0.23,26.39-0.23,36.45" id="Ske27qgxj1o" kvg:type="㇑" transform="matrix(1,0,0,1,596,-4)" xmlns:kvg="http://kanjivg.tagaini.net"></path><path class="stroke_order_diagram--existing_path" d="M34.74,27.47c-3.49,7.03-13.79,16.79-21,20.34" id="Ske27qgxj1p" kvg:type="㇒" transform="matrix(1,0,0,1,596,-4)" xmlns:kvg="http://kanjivg.tagaini.net"></path><path class="stroke_order_diagram--existing_path" d="M38.11,31.04c3.39,1.96,7.14,6.21,9.36,9.84" id="Ske27qgxj1q" kvg:type="㇔/㇏" transform="matrix(1,0,0,1,596,-4)" xmlns:kvg="http://kanjivg.tagaini.net"></path><path class="stroke_order_diagram--existing_path" d="M56.52,25.35c0.57,0.17,1.33,0.45,2.85,0.52c4.18,0.17,16.73-1.21,27.19-2.07c1.52-0.12,2.84-0.17,3.79,0" id="Ske27qgxj1r" kvg:type="㇐" transform="matrix(1,0,0,1,596,-4)" xmlns:kvg="http://kanjivg.tagaini.net"></path><path class="stroke_order_diagram--existing_path" d="M71.06,11.5c1.17,0.34,2.11,2.51,2.11,3.24c0,5.51,0,31.21-0.23,35.51" id="Ske27qgxj1s" kvg:type="㇑" transform="matrix(1,0,0,1,596,-4)" xmlns:kvg="http://kanjivg.tagaini.net"></path><path class="stroke_order_diagram--current_path" d="M72.99,24.4c-2.93,7.06-12.05,16.87-18.85,20.49" id="kvg:0711a-s7" kvg:type="㇒" transform="matrix(1,0,0,1,596,-4)" xmlns:kvg="http://kanjivg.tagaini.net"></path><path class="stroke_order_diagram--current_path" d="M72.99,24.4c-2.93,7.06-12.05,16.87-18.85,20.49" id="Ske27qgxj1u" kvg:type="㇒" transform="matrix(1,0,0,1,596,-4)" xmlns:kvg="http://kanjivg.tagaini.net"></path><circle class="stroke_order_diagram--path_start" cx="72.99" cy="24.4" r="4" transform="matrix(1,0,0,1,596,-4)"></circle><line class="stroke_order_diagram--guide_line" x1="750" x2="750" y1="1" y2="99"></line><line class="stroke_order_diagram--bounding_box" x1="799" x2="799" y1="1" y2="99"></line><path class="stroke_order_diagram--existing_path" d="M16.16,28.07c0.82,0.24,3.31,0.7,5.5,0.5c7.7-0.71,14.04-2.08,22.29-2.55c2.19-0.13,3.85-0.71,5.22-0.47" id="Ske27qgxj1x" kvg:type="㇐" transform="matrix(1,0,0,1,696,-4)" xmlns:kvg="http://kanjivg.tagaini.net"></path><path class="stroke_order_diagram--existing_path" d="M33.57,12.38c0.68,0.62,1.61,2.01,1.61,2.74c0,8.14-0.23,26.39-0.23,36.45" id="Ske27qgxj1y" kvg:type="㇑" transform="matrix(1,0,0,1,696,-4)" xmlns:kvg="http://kanjivg.tagaini.net"></path><path class="stroke_order_diagram--existing_path" d="M34.74,27.47c-3.49,7.03-13.79,16.79-21,20.34" id="Ske27qgxj1z" kvg:type="㇒" transform="matrix(1,0,0,1,696,-4)" xmlns:kvg="http://kanjivg.tagaini.net"></path><path class="stroke_order_diagram--existing_path" d="M38.11,31.04c3.39,1.96,7.14,6.21,9.36,9.84" id="Ske27qgxj20" kvg:type="㇔/㇏" transform="matrix(1,0,0,1,696,-4)" xmlns:kvg="http://kanjivg.tagaini.net"></path><path class="stroke_order_diagram--existing_path" d="M56.52,25.35c0.57,0.17,1.33,0.45,2.85,0.52c4.18,0.17,16.73-1.21,27.19-2.07c1.52-0.12,2.84-0.17,3.79,0" id="Ske27qgxj21" kvg:type="㇐" transform="matrix(1,0,0,1,696,-4)" xmlns:kvg="http://kanjivg.tagaini.net"></path><path class="stroke_order_diagram--existing_path" d="M71.06,11.5c1.17,0.34,2.11,2.51,2.11,3.24c0,5.51,0,31.21-0.23,35.51" id="Ske27qgxj22" kvg:type="㇑" transform="matrix(1,0,0,1,696,-4)" xmlns:kvg="http://kanjivg.tagaini.net"></path><path class="stroke_order_diagram--existing_path" d="M72.99,24.4c-2.93,7.06-12.05,16.87-18.85,20.49" id="Ske27qgxj23" kvg:type="㇒" transform="matrix(1,0,0,1,696,-4)" xmlns:kvg="http://kanjivg.tagaini.net"></path><path class="stroke_order_diagram--current_path" d="M72.37,25.7c5.52,6.37,14.35,14.54,18.83,17.05c1.28,0.72,1.99,1.21,3.06,1.45" id="kvg:0711a-s8" kvg:type="㇏" transform="matrix(1,0,0,1,696,-4)" xmlns:kvg="http://kanjivg.tagaini.net"></path><path class="stroke_order_diagram--current_path" d="M72.37,25.7c5.52,6.37,14.35,14.54,18.83,17.05c1.28,0.72,1.99,1.21,3.06,1.45" id="Ske27qgxj25" kvg:type="㇏" transform="matrix(1,0,0,1,696,-4)" xmlns:kvg="http://kanjivg.tagaini.net"></path><circle class="stroke_order_diagram--path_start" cx="72.37" cy="25.7" r="4" transform="matrix(1,0,0,1,696,-4)"></circle><line class="stroke_order_diagram--guide_line" x1="850" x2="850" y1="1" y2="99"></line><line class="stroke_order_diagram--bounding_box" x1="899" x2="899" y1="1" y2="99"></line><path class="stroke_order_diagram--existing_path" d="M16.16,28.07c0.82,0.24,3.31,0.7,5.5,0.5c7.7-0.71,14.04-2.08,22.29-2.55c2.19-0.13,3.85-0.71,5.22-0.47" id="Ske27qgxj28" kvg:type="㇐" transform="matrix(1,0,0,1,796,-4)" xmlns:kvg="http://kanjivg.tagaini.net"></path><path class="stroke_order_diagram--existing_path" d="M33.57,12.38c0.68,0.62,1.61,2.01,1.61,2.74c0,8.14-0.23,26.39-0.23,36.45" id="Ske27qgxj29" kvg:type="㇑" transform="matrix(1,0,0,1,796,-4)" xmlns:kvg="http://kanjivg.tagaini.net"></path><path class="stroke_order_diagram--existing_path" d="M34.74,27.47c-3.49,7.03-13.79,16.79-21,20.34" id="Ske27qgxj2a" kvg:type="㇒" transform="matrix(1,0,0,1,796,-4)" xmlns:kvg="http://kanjivg.tagaini.net"></path><path class="stroke_order_diagram--existing_path" d="M38.11,31.04c3.39,1.96,7.14,6.21,9.36,9.84" id="Ske27qgxj2b" kvg:type="㇔/㇏" transform="matrix(1,0,0,1,796,-4)" xmlns:kvg="http://kanjivg.tagaini.net"></path><path class="stroke_order_diagram--existing_path" d="M56.52,25.35c0.57,0.17,1.33,0.45,2.85,0.52c4.18,0.17,16.73-1.21,27.19-2.07c1.52-0.12,2.84-0.17,3.79,0" id="Ske27qgxj2c" kvg:type="㇐" transform="matrix(1,0,0,1,796,-4)" xmlns:kvg="http://kanjivg.tagaini.net"></path><path class="stroke_order_diagram--existing_path" d="M71.06,11.5c1.17,0.34,2.11,2.51,2.11,3.24c0,5.51,0,31.21-0.23,35.51" id="Ske27qgxj2d" kvg:type="㇑" transform="matrix(1,0,0,1,796,-4)" xmlns:kvg="http://kanjivg.tagaini.net"></path><path class="stroke_order_diagram--existing_path" d="M72.99,24.4c-2.93,7.06-12.05,16.87-18.85,20.49" id="Ske27qgxj2e" kvg:type="㇒" transform="matrix(1,0,0,1,796,-4)" xmlns:kvg="http://kanjivg.tagaini.net"></path><path class="stroke_order_diagram--existing_path" d="M72.37,25.7c5.52,6.37,14.35,14.54,18.83,17.05c1.28,0.72,1.99,1.21,3.06,1.45" id="Ske27qgxj2f" kvg:type="㇏" transform="matrix(1,0,0,1,796,-4)" xmlns:kvg="http://kanjivg.tagaini.net"></path><path class="stroke_order_diagram--current_path" d="M30.25,60.1c2.92,2.72,7.7,11.8,8.5,14.53" id="kvg:0711a-s9" kvg:type="㇔" transform="matrix(1,0,0,1,796,-4)" xmlns:kvg="http://kanjivg.tagaini.net"></path><path class="stroke_order_diagram--current_path" d="M30.25,60.1c2.92,2.72,7.7,11.8,8.5,14.53" id="Ske27qgxj2h" kvg:type="㇔" transform="matrix(1,0,0,1,796,-4)" xmlns:kvg="http://kanjivg.tagaini.net"></path><circle class="stroke_order_diagram--path_start" cx="30.25" cy="60.1" r="4" transform="matrix(1,0,0,1,796,-4)"></circle><line class="stroke_order_diagram--guide_line" x1="950" x2="950" y1="1" y2="99"></line><line class="stroke_order_diagram--bounding_box" x1="999" x2="999" y1="1" y2="99"></line><path class="stroke_order_diagram--existing_path" d="M16.16,28.07c0.82,0.24,3.31,0.7,5.5,0.5c7.7-0.71,14.04-2.08,22.29-2.55c2.19-0.13,3.85-0.71,5.22-0.47" id="Ske27qgxj2k" kvg:type="㇐" transform="matrix(1,0,0,1,896,-4)" xmlns:kvg="http://kanjivg.tagaini.net"></path><path class="stroke_order_diagram--existing_path" d="M33.57,12.38c0.68,0.62,1.61,2.01,1.61,2.74c0,8.14-0.23,26.39-0.23,36.45" id="Ske27qgxj2l" kvg:type="㇑" transform="matrix(1,0,0,1,896,-4)" xmlns:kvg="http://kanjivg.tagaini.net"></path><path class="stroke_order_diagram--existing_path" d="M34.74,27.47c-3.49,7.03-13.79,16.79-21,20.34" id="Ske27qgxj2m" kvg:type="㇒" transform="matrix(1,0,0,1,896,-4)" xmlns:kvg="http://kanjivg.tagaini.net"></path><path class="stroke_order_diagram--existing_path" d="M38.11,31.04c3.39,1.96,7.14,6.21,9.36,9.84" id="Ske27qgxj2n" kvg:type="㇔/㇏" transform="matrix(1,0,0,1,896,-4)" xmlns:kvg="http://kanjivg.tagaini.net"></path><path class="stroke_order_diagram--existing_path" d="M56.52,25.35c0.57,0.17,1.33,0.45,2.85,0.52c4.18,0.17,16.73-1.21,27.19-2.07c1.52-0.12,2.84-0.17,3.79,0" id="Ske27qgxj2o" kvg:type="㇐" transform="matrix(1,0,0,1,896,-4)" xmlns:kvg="http://kanjivg.tagaini.net"></path><path class="stroke_order_diagram--existing_path" d="M71.06,11.5c1.17,0.34,2.11,2.51,2.11,3.24c0,5.51,0,31.21-0.23,35.51" id="Ske27qgxj2p" kvg:type="㇑" transform="matrix(1,0,0,1,896,-4)" xmlns:kvg="http://kanjivg.tagaini.net"></path><path class="stroke_order_diagram--existing_path" d="M72.99,24.4c-2.93,7.06-12.05,16.87-18.85,20.49" id="Ske27qgxj2q" kvg:type="㇒" transform="matrix(1,0,0,1,896,-4)" xmlns:kvg="http://kanjivg.tagaini.net"></path><path class="stroke_order_diagram--existing_path" d="M72.37,25.7c5.52,6.37,14.35,14.54,18.83,17.05c1.28,0.72,1.99,1.21,3.06,1.45" id="Ske27qgxj2r" kvg:type="㇏" transform="matrix(1,0,0,1,896,-4)" xmlns:kvg="http://kanjivg.tagaini.net"></path><path class="stroke_order_diagram--existing_path" d="M30.25,60.1c2.92,2.72,7.7,11.8,8.5,14.53" id="Ske27qgxj2s" kvg:type="㇔" transform="matrix(1,0,0,1,896,-4)" xmlns:kvg="http://kanjivg.tagaini.net"></path><path class="stroke_order_diagram--current_path" d="M78.08,56.38c0.17,1.12,0.15,2.95-0.5,4.02c-0.65,1.07-7.32,8.76-10.58,11.25" id="kvg:0711a-s10" kvg:type="㇒" transform="matrix(1,0,0,1,896,-4)" xmlns:kvg="http://kanjivg.tagaini.net"></path><path class="stroke_order_diagram--current_path" d="M78.08,56.38c0.17,1.12,0.15,2.95-0.5,4.02c-0.65,1.07-7.32,8.76-10.58,11.25" id="Ske27qgxj2u" kvg:type="㇒" transform="matrix(1,0,0,1,896,-4)" xmlns:kvg="http://kanjivg.tagaini.net"></path><circle class="stroke_order_diagram--path_start" cx="78.08" cy="56.38" r="4" transform="matrix(1,0,0,1,896,-4)"></circle><line class="stroke_order_diagram--guide_line" x1="1050" x2="1050" y1="1" y2="99"></line><line class="stroke_order_diagram--bounding_box" x1="1099" x2="1099" y1="1" y2="99"></line><path class="stroke_order_diagram--existing_path" d="M16.16,28.07c0.82,0.24,3.31,0.7,5.5,0.5c7.7-0.71,14.04-2.08,22.29-2.55c2.19-0.13,3.85-0.71,5.22-0.47" id="Ske27qgxj2x" kvg:type="㇐" transform="matrix(1,0,0,1,996,-4)" xmlns:kvg="http://kanjivg.tagaini.net"></path><path class="stroke_order_diagram--existing_path" d="M33.57,12.38c0.68,0.62,1.61,2.01,1.61,2.74c0,8.14-0.23,26.39-0.23,36.45" id="Ske27qgxj2y" kvg:type="㇑" transform="matrix(1,0,0,1,996,-4)" xmlns:kvg="http://kanjivg.tagaini.net"></path><path class="stroke_order_diagram--existing_path" d="M34.74,27.47c-3.49,7.03-13.79,16.79-21,20.34" id="Ske27qgxj2z" kvg:type="㇒" transform="matrix(1,0,0,1,996,-4)" xmlns:kvg="http://kanjivg.tagaini.net"></path><path class="stroke_order_diagram--existing_path" d="M38.11,31.04c3.39,1.96,7.14,6.21,9.36,9.84" id="Ske27qgxj30" kvg:type="㇔/㇏" transform="matrix(1,0,0,1,996,-4)" xmlns:kvg="http://kanjivg.tagaini.net"></path><path class="stroke_order_diagram--existing_path" d="M56.52,25.35c0.57,0.17,1.33,0.45,2.85,0.52c4.18,0.17,16.73-1.21,27.19-2.07c1.52-0.12,2.84-0.17,3.79,0" id="Ske27qgxj31" kvg:type="㇐" transform="matrix(1,0,0,1,996,-4)" xmlns:kvg="http://kanjivg.tagaini.net"></path><path class="stroke_order_diagram--existing_path" d="M71.06,11.5c1.17,0.34,2.11,2.51,2.11,3.24c0,5.51,0,31.21-0.23,35.51" id="Ske27qgxj32" kvg:type="㇑" transform="matrix(1,0,0,1,996,-4)" xmlns:kvg="http://kanjivg.tagaini.net"></path><path class="stroke_order_diagram--existing_path" d="M72.99,24.4c-2.93,7.06-12.05,16.87-18.85,20.49" id="Ske27qgxj33" kvg:type="㇒" transform="matrix(1,0,0,1,996,-4)" xmlns:kvg="http://kanjivg.tagaini.net"></path><path class="stroke_order_diagram--existing_path" d="M72.37,25.7c5.52,6.37,14.35,14.54,18.83,17.05c1.28,0.72,1.99,1.21,3.06,1.45" id="Ske27qgxj34" kvg:type="㇏" transform="matrix(1,0,0,1,996,-4)" xmlns:kvg="http://kanjivg.tagaini.net"></path><path class="stroke_order_diagram--existing_path" d="M30.25,60.1c2.92,2.72,7.7,11.8,8.5,14.53" id="Ske27qgxj35" kvg:type="㇔" transform="matrix(1,0,0,1,996,-4)" xmlns:kvg="http://kanjivg.tagaini.net"></path><path class="stroke_order_diagram--existing_path" d="M78.08,56.38c0.17,1.12,0.15,2.95-0.5,4.02c-0.65,1.07-7.32,8.76-10.58,11.25" id="Ske27qgxj36" kvg:type="㇒" transform="matrix(1,0,0,1,996,-4)" xmlns:kvg="http://kanjivg.tagaini.net"></path><path class="stroke_order_diagram--current_path" d="M53.83,52.25c0.67,0.98,0.69,2.16,0.67,2.92C54,81.15,40.75,92.66,18.25,100.25" id="kvg:0711a-s11" kvg:type="㇒" transform="matrix(1,0,0,1,996,-4)" xmlns:kvg="http://kanjivg.tagaini.net"></path><path class="stroke_order_diagram--current_path" d="M53.83,52.25c0.67,0.98,0.69,2.16,0.67,2.92C54,81.15,40.75,92.66,18.25,100.25" id="Ske27qgxj38" kvg:type="㇒" transform="matrix(1,0,0,1,996,-4)" xmlns:kvg="http://kanjivg.tagaini.net"></path><circle class="stroke_order_diagram--path_start" cx="53.83" cy="52.25" r="4" transform="matrix(1,0,0,1,996,-4)"></circle><line class="stroke_order_diagram--guide_line" x1="1150" x2="1150" y1="1" y2="99"></line><line class="stroke_order_diagram--bounding_box" x1="1199" x2="1199" y1="1" y2="99"></line><path class="stroke_order_diagram--existing_path" d="M16.16,28.07c0.82,0.24,3.31,0.7,5.5,0.5c7.7-0.71,14.04-2.08,22.29-2.55c2.19-0.13,3.85-0.71,5.22-0.47" id="Ske27qgxj3b" kvg:type="㇐" transform="matrix(1,0,0,1,1096,-4)" xmlns:kvg="http://kanjivg.tagaini.net"></path><path class="stroke_order_diagram--existing_path" d="M33.57,12.38c0.68,0.62,1.61,2.01,1.61,2.74c0,8.14-0.23,26.39-0.23,36.45" id="Ske27qgxj3c" kvg:type="㇑" transform="matrix(1,0,0,1,1096,-4)" xmlns:kvg="http://kanjivg.tagaini.net"></path><path class="stroke_order_diagram--existing_path" d="M34.74,27.47c-3.49,7.03-13.79,16.79-21,20.34" id="Ske27qgxj3d" kvg:type="㇒" transform="matrix(1,0,0,1,1096,-4)" xmlns:kvg="http://kanjivg.tagaini.net"></path><path class="stroke_order_diagram--existing_path" d="M38.11,31.04c3.39,1.96,7.14,6.21,9.36,9.84" id="Ske27qgxj3e" kvg:type="㇔/㇏" transform="matrix(1,0,0,1,1096,-4)" xmlns:kvg="http://kanjivg.tagaini.net"></path><path class="stroke_order_diagram--existing_path" d="M56.52,25.35c0.57,0.17,1.33,0.45,2.85,0.52c4.18,0.17,16.73-1.21,27.19-2.07c1.52-0.12,2.84-0.17,3.79,0" id="Ske27qgxj3f" kvg:type="㇐" transform="matrix(1,0,0,1,1096,-4)" xmlns:kvg="http://kanjivg.tagaini.net"></path><path class="stroke_order_diagram--existing_path" d="M71.06,11.5c1.17,0.34,2.11,2.51,2.11,3.24c0,5.51,0,31.21-0.23,35.51" id="Ske27qgxj3g" kvg:type="㇑" transform="matrix(1,0,0,1,1096,-4)" xmlns:kvg="http://kanjivg.tagaini.net"></path><path class="stroke_order_diagram--existing_path" d="M72.99,24.4c-2.93,7.06-12.05,16.87-18.85,20.49" id="Ske27qgxj3h" kvg:type="㇒" transform="matrix(1,0,0,1,1096,-4)" xmlns:kvg="http://kanjivg.tagaini.net"></path><path class="stroke_order_diagram--existing_path" d="M72.37,25.7c5.52,6.37,14.35,14.54,18.83,17.05c1.28,0.72,1.99,1.21,3.06,1.45" id="Ske27qgxj3i" kvg:type="㇏" transform="matrix(1,0,0,1,1096,-4)" xmlns:kvg="http://kanjivg.tagaini.net"></path><path class="stroke_order_diagram--existing_path" d="M30.25,60.1c2.92,2.72,7.7,11.8,8.5,14.53" id="Ske27qgxj3j" kvg:type="㇔" transform="matrix(1,0,0,1,1096,-4)" xmlns:kvg="http://kanjivg.tagaini.net"></path><path class="stroke_order_diagram--existing_path" d="M78.08,56.38c0.17,1.12,0.15,2.95-0.5,4.02c-0.65,1.07-7.32,8.76-10.58,11.25" id="Ske27qgxj3k" kvg:type="㇒" transform="matrix(1,0,0,1,1096,-4)" xmlns:kvg="http://kanjivg.tagaini.net"></path><path class="stroke_order_diagram--existing_path" d="M53.83,52.25c0.67,0.98,0.69,2.16,0.67,2.92C54,81.15,40.75,92.66,18.25,100.25" id="Ske27qgxj3l" kvg:type="㇒" transform="matrix(1,0,0,1,1096,-4)" xmlns:kvg="http://kanjivg.tagaini.net"></path><path class="stroke_order_diagram--current_path" d="M52.5,70.72c12.58,10.69,27.84,21.56,36.15,26.01c2.61,1.4,3.21,1.25,5.35,1.6" id="kvg:0711a-s12" kvg:type="㇏" transform="matrix(1,0,0,1,1096,-4)" xmlns:kvg="http://kanjivg.tagaini.net"></path><path class="stroke_order_diagram--current_path" d="M52.5,70.72c12.58,10.69,27.84,21.56,36.15,26.01c2.61,1.4,3.21,1.25,5.35,1.6" id="Ske27qgxj3n" kvg:type="㇏" transform="matrix(1,0,0,1,1096,-4)" xmlns:kvg="http://kanjivg.tagaini.net"></path><circle class="stroke_order_diagram--path_start" cx="52.5" cy="70.72" r="4" transform="matrix(1,0,0,1,1096,-4)"></circle></svg>