<svg class="stroke_order_diagram--svg_container_for_518662afd5dda7965800115e" style="height: 100px; width: 1500px;" viewbox="0 0 1500 100"><desc>Created with Snap</desc><defs></defs><line class="stroke_order_diagram--bounding_box" x1="1" x2="1499" y1="1" y2="1"></line><line class="stroke_order_diagram--bounding_box" x1="1" x2="1" y1="1" y2="99"></line><line class="stroke_order_diagram--bounding_box" x1="1" x2="1499" y1="99" y2="99"></line><line class="stroke_order_diagram--guide_line" x1="0" x2="1500" y1="50" y2="50"></line><line class="stroke_order_diagram--guide_line" x1="50" x2="50" y1="1" y2="99"></line><line class="stroke_order_diagram--bounding_box" x1="99" x2="99" y1="1" y2="99"></line><path class="stroke_order_diagram--current_path" d="M24.23,15.75c0.48,1.43,1.16,2.55,1.16,4.33c0,16.28-1.89,35.92-14.34,47.64" id="kvg:07188-s1" kvg:type="㇒" transform="matrix(1,0,0,1,-4,-4)" xmlns:kvg="http://kanjivg.tagaini.net"></path><path class="stroke_order_diagram--current_path" d="M24.23,15.75c0.48,1.43,1.16,2.55,1.16,4.33c0,16.28-1.89,35.92-14.34,47.64" id="Ske2pui6ro" kvg:type="㇒" transform="matrix(1,0,0,1,-4,-4)" xmlns:kvg="http://kanjivg.tagaini.net"></path><circle class="stroke_order_diagram--path_start" cx="24.23" cy="15.75" r="4" transform="matrix(1,0,0,1,-4,-4)"></circle><line class="stroke_order_diagram--guide_line" x1="150" x2="150" y1="1" y2="99"></line><line class="stroke_order_diagram--bounding_box" x1="199" x2="199" y1="1" y2="99"></line><path class="stroke_order_diagram--existing_path" d="M24.23,15.75c0.48,1.43,1.16,2.55,1.16,4.33c0,16.28-1.89,35.92-14.34,47.64" id="Ske2pui6rr" kvg:type="㇒" transform="matrix(1,0,0,1,96,-4)" xmlns:kvg="http://kanjivg.tagaini.net"></path><path class="stroke_order_diagram--current_path" d="M35.37,14.75c1.09,0.5,1.74,2.25,1.96,3.25c0.22,1,0,41.25-0.22,47.5" id="kvg:07188-s2" kvg:type="㇑" transform="matrix(1,0,0,1,96,-4)" xmlns:kvg="http://kanjivg.tagaini.net"></path><path class="stroke_order_diagram--current_path" d="M35.37,14.75c1.09,0.5,1.74,2.25,1.96,3.25c0.22,1,0,41.25-0.22,47.5" id="Ske2pui6rt" kvg:type="㇑" transform="matrix(1,0,0,1,96,-4)" xmlns:kvg="http://kanjivg.tagaini.net"></path><circle class="stroke_order_diagram--path_start" cx="35.37" cy="14.75" r="4" transform="matrix(1,0,0,1,96,-4)"></circle><line class="stroke_order_diagram--guide_line" x1="250" x2="250" y1="1" y2="99"></line><line class="stroke_order_diagram--bounding_box" x1="299" x2="299" y1="1" y2="99"></line><path class="stroke_order_diagram--existing_path" d="M24.23,15.75c0.48,1.43,1.16,2.55,1.16,4.33c0,16.28-1.89,35.92-14.34,47.64" id="Ske2pui6rw" kvg:type="㇒" transform="matrix(1,0,0,1,196,-4)" xmlns:kvg="http://kanjivg.tagaini.net"></path><path class="stroke_order_diagram--existing_path" d="M35.37,14.75c1.09,0.5,1.74,2.25,1.96,3.25c0.22,1,0,41.25-0.22,47.5" id="Ske2pui6rx" kvg:type="㇑" transform="matrix(1,0,0,1,196,-4)" xmlns:kvg="http://kanjivg.tagaini.net"></path><path class="stroke_order_diagram--current_path" d="M37.25,16.5c0.63,0.29,1.78,0.32,2.41,0.29C44.5,16.5,53,16,59.05,15.37c1.04-0.11,2.18,0.14,2.7,0.28" id="kvg:07188-s3" kvg:type="㇐b" transform="matrix(1,0,0,1,196,-4)" xmlns:kvg="http://kanjivg.tagaini.net"></path><path class="stroke_order_diagram--current_path" d="M37.25,16.5c0.63,0.29,1.78,0.32,2.41,0.29C44.5,16.5,53,16,59.05,15.37c1.04-0.11,2.18,0.14,2.7,0.28" id="Ske2pui6rz" kvg:type="㇐b" transform="matrix(1,0,0,1,196,-4)" xmlns:kvg="http://kanjivg.tagaini.net"></path><circle class="stroke_order_diagram--path_start" cx="37.25" cy="16.5" r="4" transform="matrix(1,0,0,1,196,-4)"></circle><line class="stroke_order_diagram--guide_line" x1="350" x2="350" y1="1" y2="99"></line><line class="stroke_order_diagram--bounding_box" x1="399" x2="399" y1="1" y2="99"></line><path class="stroke_order_diagram--existing_path" d="M24.23,15.75c0.48,1.43,1.16,2.55,1.16,4.33c0,16.28-1.89,35.92-14.34,47.64" id="Ske2pui6r12" kvg:type="㇒" transform="matrix(1,0,0,1,296,-4)" xmlns:kvg="http://kanjivg.tagaini.net"></path><path class="stroke_order_diagram--existing_path" d="M35.37,14.75c1.09,0.5,1.74,2.25,1.96,3.25c0.22,1,0,41.25-0.22,47.5" id="Ske2pui6r13" kvg:type="㇑" transform="matrix(1,0,0,1,296,-4)" xmlns:kvg="http://kanjivg.tagaini.net"></path><path class="stroke_order_diagram--existing_path" d="M37.25,16.5c0.63,0.29,1.78,0.32,2.41,0.29C44.5,16.5,53,16,59.05,15.37c1.04-0.11,2.18,0.14,2.7,0.28" id="Ske2pui6r14" kvg:type="㇐b" transform="matrix(1,0,0,1,296,-4)" xmlns:kvg="http://kanjivg.tagaini.net"></path><path class="stroke_order_diagram--current_path" d="M48.35,17.25c0.58,0.27,0.93,1.2,1.04,1.73c0.12,0.53,0,8.45-0.12,11.77" id="kvg:07188-s4" kvg:type="㇑a" transform="matrix(1,0,0,1,296,-4)" xmlns:kvg="http://kanjivg.tagaini.net"></path><path class="stroke_order_diagram--current_path" d="M48.35,17.25c0.58,0.27,0.93,1.2,1.04,1.73c0.12,0.53,0,8.45-0.12,11.77" id="Ske2pui6r16" kvg:type="㇑a" transform="matrix(1,0,0,1,296,-4)" xmlns:kvg="http://kanjivg.tagaini.net"></path><circle class="stroke_order_diagram--path_start" cx="48.35" cy="17.25" r="4" transform="matrix(1,0,0,1,296,-4)"></circle><line class="stroke_order_diagram--guide_line" x1="450" x2="450" y1="1" y2="99"></line><line class="stroke_order_diagram--bounding_box" x1="499" x2="499" y1="1" y2="99"></line><path class="stroke_order_diagram--existing_path" d="M24.23,15.75c0.48,1.43,1.16,2.55,1.16,4.33c0,16.28-1.89,35.92-14.34,47.64" id="Ske2pui6r19" kvg:type="㇒" transform="matrix(1,0,0,1,396,-4)" xmlns:kvg="http://kanjivg.tagaini.net"></path><path class="stroke_order_diagram--existing_path" d="M35.37,14.75c1.09,0.5,1.74,2.25,1.96,3.25c0.22,1,0,41.25-0.22,47.5" id="Ske2pui6r1a" kvg:type="㇑" transform="matrix(1,0,0,1,396,-4)" xmlns:kvg="http://kanjivg.tagaini.net"></path><path class="stroke_order_diagram--existing_path" d="M37.25,16.5c0.63,0.29,1.78,0.32,2.41,0.29C44.5,16.5,53,16,59.05,15.37c1.04-0.11,2.18,0.14,2.7,0.28" id="Ske2pui6r1b" kvg:type="㇐b" transform="matrix(1,0,0,1,396,-4)" xmlns:kvg="http://kanjivg.tagaini.net"></path><path class="stroke_order_diagram--existing_path" d="M48.35,17.25c0.58,0.27,0.93,1.2,1.04,1.73c0.12,0.53,0,8.45-0.12,11.77" id="Ske2pui6r1c" kvg:type="㇑a" transform="matrix(1,0,0,1,396,-4)" xmlns:kvg="http://kanjivg.tagaini.net"></path><path class="stroke_order_diagram--current_path" d="M37.91,32.16c7.59-0.66,16.2-1.52,20.26-1.94c1.48-0.15,2.37,0.91,2.16,1.81c-0.88,3.74-1.4,7.25-2.71,12.42" id="kvg:07188-s5" kvg:type="㇕b" transform="matrix(1,0,0,1,396,-4)" xmlns:kvg="http://kanjivg.tagaini.net"></path><path class="stroke_order_diagram--current_path" d="M37.91,32.16c7.59-0.66,16.2-1.52,20.26-1.94c1.48-0.15,2.37,0.91,2.16,1.81c-0.88,3.74-1.4,7.25-2.71,12.42" id="Ske2pui6r1e" kvg:type="㇕b" transform="matrix(1,0,0,1,396,-4)" xmlns:kvg="http://kanjivg.tagaini.net"></path><circle class="stroke_order_diagram--path_start" cx="37.91" cy="32.16" r="4" transform="matrix(1,0,0,1,396,-4)"></circle><line class="stroke_order_diagram--guide_line" x1="550" x2="550" y1="1" y2="99"></line><line class="stroke_order_diagram--bounding_box" x1="599" x2="599" y1="1" y2="99"></line><path class="stroke_order_diagram--existing_path" d="M24.23,15.75c0.48,1.43,1.16,2.55,1.16,4.33c0,16.28-1.89,35.92-14.34,47.64" id="Ske2pui6r1h" kvg:type="㇒" transform="matrix(1,0,0,1,496,-4)" xmlns:kvg="http://kanjivg.tagaini.net"></path><path class="stroke_order_diagram--existing_path" d="M35.37,14.75c1.09,0.5,1.74,2.25,1.96,3.25c0.22,1,0,41.25-0.22,47.5" id="Ske2pui6r1i" kvg:type="㇑" transform="matrix(1,0,0,1,496,-4)" xmlns:kvg="http://kanjivg.tagaini.net"></path><path class="stroke_order_diagram--existing_path" d="M37.25,16.5c0.63,0.29,1.78,0.32,2.41,0.29C44.5,16.5,53,16,59.05,15.37c1.04-0.11,2.18,0.14,2.7,0.28" id="Ske2pui6r1j" kvg:type="㇐b" transform="matrix(1,0,0,1,496,-4)" xmlns:kvg="http://kanjivg.tagaini.net"></path><path class="stroke_order_diagram--existing_path" d="M48.35,17.25c0.58,0.27,0.93,1.2,1.04,1.73c0.12,0.53,0,8.45-0.12,11.77" id="Ske2pui6r1k" kvg:type="㇑a" transform="matrix(1,0,0,1,496,-4)" xmlns:kvg="http://kanjivg.tagaini.net"></path><path class="stroke_order_diagram--existing_path" d="M37.91,32.16c7.59-0.66,16.2-1.52,20.26-1.94c1.48-0.15,2.37,0.91,2.16,1.81c-0.88,3.74-1.4,7.25-2.71,12.42" id="Ske2pui6r1l" kvg:type="㇕b" transform="matrix(1,0,0,1,496,-4)" xmlns:kvg="http://kanjivg.tagaini.net"></path><path class="stroke_order_diagram--current_path" d="M37.72,46.95c4.76-0.48,15.33-1.3,21.87-2.03" id="kvg:07188-s6" kvg:type="㇐b" transform="matrix(1,0,0,1,496,-4)" xmlns:kvg="http://kanjivg.tagaini.net"></path><path class="stroke_order_diagram--current_path" d="M37.72,46.95c4.76-0.48,15.33-1.3,21.87-2.03" id="Ske2pui6r1n" kvg:type="㇐b" transform="matrix(1,0,0,1,496,-4)" xmlns:kvg="http://kanjivg.tagaini.net"></path><circle class="stroke_order_diagram--path_start" cx="37.72" cy="46.95" r="4" transform="matrix(1,0,0,1,496,-4)"></circle><line class="stroke_order_diagram--guide_line" x1="650" x2="650" y1="1" y2="99"></line><line class="stroke_order_diagram--bounding_box" x1="699" x2="699" y1="1" y2="99"></line><path class="stroke_order_diagram--existing_path" d="M24.23,15.75c0.48,1.43,1.16,2.55,1.16,4.33c0,16.28-1.89,35.92-14.34,47.64" id="Ske2pui6r1q" kvg:type="㇒" transform="matrix(1,0,0,1,596,-4)" xmlns:kvg="http://kanjivg.tagaini.net"></path><path class="stroke_order_diagram--existing_path" d="M35.37,14.75c1.09,0.5,1.74,2.25,1.96,3.25c0.22,1,0,41.25-0.22,47.5" id="Ske2pui6r1r" kvg:type="㇑" transform="matrix(1,0,0,1,596,-4)" xmlns:kvg="http://kanjivg.tagaini.net"></path><path class="stroke_order_diagram--existing_path" d="M37.25,16.5c0.63,0.29,1.78,0.32,2.41,0.29C44.5,16.5,53,16,59.05,15.37c1.04-0.11,2.18,0.14,2.7,0.28" id="Ske2pui6r1s" kvg:type="㇐b" transform="matrix(1,0,0,1,596,-4)" xmlns:kvg="http://kanjivg.tagaini.net"></path><path class="stroke_order_diagram--existing_path" d="M48.35,17.25c0.58,0.27,0.93,1.2,1.04,1.73c0.12,0.53,0,8.45-0.12,11.77" id="Ske2pui6r1t" kvg:type="㇑a" transform="matrix(1,0,0,1,596,-4)" xmlns:kvg="http://kanjivg.tagaini.net"></path><path class="stroke_order_diagram--existing_path" d="M37.91,32.16c7.59-0.66,16.2-1.52,20.26-1.94c1.48-0.15,2.37,0.91,2.16,1.81c-0.88,3.74-1.4,7.25-2.71,12.42" id="Ske2pui6r1u" kvg:type="㇕b" transform="matrix(1,0,0,1,596,-4)" xmlns:kvg="http://kanjivg.tagaini.net"></path><path class="stroke_order_diagram--existing_path" d="M37.72,46.95c4.76-0.48,15.33-1.3,21.87-2.03" id="Ske2pui6r1v" kvg:type="㇐b" transform="matrix(1,0,0,1,596,-4)" xmlns:kvg="http://kanjivg.tagaini.net"></path><path class="stroke_order_diagram--current_path" d="M48.35,47.25c0.58,0.27,0.93,1.2,1.04,1.73c0.12,0.53,0,8.95-0.12,12.27" id="kvg:07188-s7" kvg:type="㇑a" transform="matrix(1,0,0,1,596,-4)" xmlns:kvg="http://kanjivg.tagaini.net"></path><path class="stroke_order_diagram--current_path" d="M48.35,47.25c0.58,0.27,0.93,1.2,1.04,1.73c0.12,0.53,0,8.95-0.12,12.27" id="Ske2pui6r1x" kvg:type="㇑a" transform="matrix(1,0,0,1,596,-4)" xmlns:kvg="http://kanjivg.tagaini.net"></path><circle class="stroke_order_diagram--path_start" cx="48.35" cy="47.25" r="4" transform="matrix(1,0,0,1,596,-4)"></circle><line class="stroke_order_diagram--guide_line" x1="750" x2="750" y1="1" y2="99"></line><line class="stroke_order_diagram--bounding_box" x1="799" x2="799" y1="1" y2="99"></line><path class="stroke_order_diagram--existing_path" d="M24.23,15.75c0.48,1.43,1.16,2.55,1.16,4.33c0,16.28-1.89,35.92-14.34,47.64" id="Ske2pui6r20" kvg:type="㇒" transform="matrix(1,0,0,1,696,-4)" xmlns:kvg="http://kanjivg.tagaini.net"></path><path class="stroke_order_diagram--existing_path" d="M35.37,14.75c1.09,0.5,1.74,2.25,1.96,3.25c0.22,1,0,41.25-0.22,47.5" id="Ske2pui6r21" kvg:type="㇑" transform="matrix(1,0,0,1,696,-4)" xmlns:kvg="http://kanjivg.tagaini.net"></path><path class="stroke_order_diagram--existing_path" d="M37.25,16.5c0.63,0.29,1.78,0.32,2.41,0.29C44.5,16.5,53,16,59.05,15.37c1.04-0.11,2.18,0.14,2.7,0.28" id="Ske2pui6r22" kvg:type="㇐b" transform="matrix(1,0,0,1,696,-4)" xmlns:kvg="http://kanjivg.tagaini.net"></path><path class="stroke_order_diagram--existing_path" d="M48.35,17.25c0.58,0.27,0.93,1.2,1.04,1.73c0.12,0.53,0,8.45-0.12,11.77" id="Ske2pui6r23" kvg:type="㇑a" transform="matrix(1,0,0,1,696,-4)" xmlns:kvg="http://kanjivg.tagaini.net"></path><path class="stroke_order_diagram--existing_path" d="M37.91,32.16c7.59-0.66,16.2-1.52,20.26-1.94c1.48-0.15,2.37,0.91,2.16,1.81c-0.88,3.74-1.4,7.25-2.71,12.42" id="Ske2pui6r24" kvg:type="㇕b" transform="matrix(1,0,0,1,696,-4)" xmlns:kvg="http://kanjivg.tagaini.net"></path><path class="stroke_order_diagram--existing_path" d="M37.72,46.95c4.76-0.48,15.33-1.3,21.87-2.03" id="Ske2pui6r25" kvg:type="㇐b" transform="matrix(1,0,0,1,696,-4)" xmlns:kvg="http://kanjivg.tagaini.net"></path><path class="stroke_order_diagram--existing_path" d="M48.35,47.25c0.58,0.27,0.93,1.2,1.04,1.73c0.12,0.53,0,8.95-0.12,12.27" id="Ske2pui6r26" kvg:type="㇑a" transform="matrix(1,0,0,1,696,-4)" xmlns:kvg="http://kanjivg.tagaini.net"></path><path class="stroke_order_diagram--current_path" d="M37.25,63c0.63,0.29,1.78,0.32,2.41,0.29C44.5,63,54.5,62,60.55,61.37c1.04-0.11,2.18,0.14,2.7,0.28" id="kvg:07188-s8" kvg:type="㇐b" transform="matrix(1,0,0,1,696,-4)" xmlns:kvg="http://kanjivg.tagaini.net"></path><path class="stroke_order_diagram--current_path" d="M37.25,63c0.63,0.29,1.78,0.32,2.41,0.29C44.5,63,54.5,62,60.55,61.37c1.04-0.11,2.18,0.14,2.7,0.28" id="Ske2pui6r28" kvg:type="㇐b" transform="matrix(1,0,0,1,696,-4)" xmlns:kvg="http://kanjivg.tagaini.net"></path><circle class="stroke_order_diagram--path_start" cx="37.25" cy="63" r="4" transform="matrix(1,0,0,1,696,-4)"></circle><line class="stroke_order_diagram--guide_line" x1="850" x2="850" y1="1" y2="99"></line><line class="stroke_order_diagram--bounding_box" x1="899" x2="899" y1="1" y2="99"></line><path class="stroke_order_diagram--existing_path" d="M24.23,15.75c0.48,1.43,1.16,2.55,1.16,4.33c0,16.28-1.89,35.92-14.34,47.64" id="Ske2pui6r2b" kvg:type="㇒" transform="matrix(1,0,0,1,796,-4)" xmlns:kvg="http://kanjivg.tagaini.net"></path><path class="stroke_order_diagram--existing_path" d="M35.37,14.75c1.09,0.5,1.74,2.25,1.96,3.25c0.22,1,0,41.25-0.22,47.5" id="Ske2pui6r2c" kvg:type="㇑" transform="matrix(1,0,0,1,796,-4)" xmlns:kvg="http://kanjivg.tagaini.net"></path><path class="stroke_order_diagram--existing_path" d="M37.25,16.5c0.63,0.29,1.78,0.32,2.41,0.29C44.5,16.5,53,16,59.05,15.37c1.04-0.11,2.18,0.14,2.7,0.28" id="Ske2pui6r2d" kvg:type="㇐b" transform="matrix(1,0,0,1,796,-4)" xmlns:kvg="http://kanjivg.tagaini.net"></path><path class="stroke_order_diagram--existing_path" d="M48.35,17.25c0.58,0.27,0.93,1.2,1.04,1.73c0.12,0.53,0,8.45-0.12,11.77" id="Ske2pui6r2e" kvg:type="㇑a" transform="matrix(1,0,0,1,796,-4)" xmlns:kvg="http://kanjivg.tagaini.net"></path><path class="stroke_order_diagram--existing_path" d="M37.91,32.16c7.59-0.66,16.2-1.52,20.26-1.94c1.48-0.15,2.37,0.91,2.16,1.81c-0.88,3.74-1.4,7.25-2.71,12.42" id="Ske2pui6r2f" kvg:type="㇕b" transform="matrix(1,0,0,1,796,-4)" xmlns:kvg="http://kanjivg.tagaini.net"></path><path class="stroke_order_diagram--existing_path" d="M37.72,46.95c4.76-0.48,15.33-1.3,21.87-2.03" id="Ske2pui6r2g" kvg:type="㇐b" transform="matrix(1,0,0,1,796,-4)" xmlns:kvg="http://kanjivg.tagaini.net"></path><path class="stroke_order_diagram--existing_path" d="M48.35,47.25c0.58,0.27,0.93,1.2,1.04,1.73c0.12,0.53,0,8.95-0.12,12.27" id="Ske2pui6r2h" kvg:type="㇑a" transform="matrix(1,0,0,1,796,-4)" xmlns:kvg="http://kanjivg.tagaini.net"></path><path class="stroke_order_diagram--existing_path" d="M37.25,63c0.63,0.29,1.78,0.32,2.41,0.29C44.5,63,54.5,62,60.55,61.37c1.04-0.11,2.18,0.14,2.7,0.28" id="Ske2pui6r2i" kvg:type="㇐b" transform="matrix(1,0,0,1,796,-4)" xmlns:kvg="http://kanjivg.tagaini.net"></path><path class="stroke_order_diagram--current_path" d="M67,14.99c1.19,0.89,2.21,0.89,3.95,0.6c3.54-0.6,15.24-1.5,16.32-1.61c1.43-0.15,3.05,0.48,2.54,2.79c-0.15,0.69-2.11,11.86-3.11,18.46" id="kvg:07188-s9" kvg:type="㇕" transform="matrix(1,0,0,1,796,-4)" xmlns:kvg="http://kanjivg.tagaini.net"></path><path class="stroke_order_diagram--current_path" d="M67,14.99c1.19,0.89,2.21,0.89,3.95,0.6c3.54-0.6,15.24-1.5,16.32-1.61c1.43-0.15,3.05,0.48,2.54,2.79c-0.15,0.69-2.11,11.86-3.11,18.46" id="Ske2pui6r2k" kvg:type="㇕" transform="matrix(1,0,0,1,796,-4)" xmlns:kvg="http://kanjivg.tagaini.net"></path><circle class="stroke_order_diagram--path_start" cx="67" cy="14.99" r="4" transform="matrix(1,0,0,1,796,-4)"></circle><line class="stroke_order_diagram--guide_line" x1="950" x2="950" y1="1" y2="99"></line><line class="stroke_order_diagram--bounding_box" x1="999" x2="999" y1="1" y2="99"></line><path class="stroke_order_diagram--existing_path" d="M24.23,15.75c0.48,1.43,1.16,2.55,1.16,4.33c0,16.28-1.89,35.92-14.34,47.64" id="Ske2pui6r2n" kvg:type="㇒" transform="matrix(1,0,0,1,896,-4)" xmlns:kvg="http://kanjivg.tagaini.net"></path><path class="stroke_order_diagram--existing_path" d="M35.37,14.75c1.09,0.5,1.74,2.25,1.96,3.25c0.22,1,0,41.25-0.22,47.5" id="Ske2pui6r2o" kvg:type="㇑" transform="matrix(1,0,0,1,896,-4)" xmlns:kvg="http://kanjivg.tagaini.net"></path><path class="stroke_order_diagram--existing_path" d="M37.25,16.5c0.63,0.29,1.78,0.32,2.41,0.29C44.5,16.5,53,16,59.05,15.37c1.04-0.11,2.18,0.14,2.7,0.28" id="Ske2pui6r2p" kvg:type="㇐b" transform="matrix(1,0,0,1,896,-4)" xmlns:kvg="http://kanjivg.tagaini.net"></path><path class="stroke_order_diagram--existing_path" d="M48.35,17.25c0.58,0.27,0.93,1.2,1.04,1.73c0.12,0.53,0,8.45-0.12,11.77" id="Ske2pui6r2q" kvg:type="㇑a" transform="matrix(1,0,0,1,896,-4)" xmlns:kvg="http://kanjivg.tagaini.net"></path><path class="stroke_order_diagram--existing_path" d="M37.91,32.16c7.59-0.66,16.2-1.52,20.26-1.94c1.48-0.15,2.37,0.91,2.16,1.81c-0.88,3.74-1.4,7.25-2.71,12.42" id="Ske2pui6r2r" kvg:type="㇕b" transform="matrix(1,0,0,1,896,-4)" xmlns:kvg="http://kanjivg.tagaini.net"></path><path class="stroke_order_diagram--existing_path" d="M37.72,46.95c4.76-0.48,15.33-1.3,21.87-2.03" id="Ske2pui6r2s" kvg:type="㇐b" transform="matrix(1,0,0,1,896,-4)" xmlns:kvg="http://kanjivg.tagaini.net"></path><path class="stroke_order_diagram--existing_path" d="M48.35,47.25c0.58,0.27,0.93,1.2,1.04,1.73c0.12,0.53,0,8.95-0.12,12.27" id="Ske2pui6r2t" kvg:type="㇑a" transform="matrix(1,0,0,1,896,-4)" xmlns:kvg="http://kanjivg.tagaini.net"></path><path class="stroke_order_diagram--existing_path" d="M37.25,63c0.63,0.29,1.78,0.32,2.41,0.29C44.5,63,54.5,62,60.55,61.37c1.04-0.11,2.18,0.14,2.7,0.28" id="Ske2pui6r2u" kvg:type="㇐b" transform="matrix(1,0,0,1,896,-4)" xmlns:kvg="http://kanjivg.tagaini.net"></path><path class="stroke_order_diagram--existing_path" d="M67,14.99c1.19,0.89,2.21,0.89,3.95,0.6c3.54-0.6,15.24-1.5,16.32-1.61c1.43-0.15,3.05,0.48,2.54,2.79c-0.15,0.69-2.11,11.86-3.11,18.46" id="Ske2pui6r2v" kvg:type="㇕" transform="matrix(1,0,0,1,896,-4)" xmlns:kvg="http://kanjivg.tagaini.net"></path><path class="stroke_order_diagram--current_path" d="M70.25,36.68c2.75,0,13.86-1.03,19.21-1.33" id="kvg:07188-s10" kvg:type="㇐" transform="matrix(1,0,0,1,896,-4)" xmlns:kvg="http://kanjivg.tagaini.net"></path><path class="stroke_order_diagram--current_path" d="M70.25,36.68c2.75,0,13.86-1.03,19.21-1.33" id="Ske2pui6r2x" kvg:type="㇐" transform="matrix(1,0,0,1,896,-4)" xmlns:kvg="http://kanjivg.tagaini.net"></path><circle class="stroke_order_diagram--path_start" cx="70.25" cy="36.68" r="4" transform="matrix(1,0,0,1,896,-4)"></circle><line class="stroke_order_diagram--guide_line" x1="1050" x2="1050" y1="1" y2="99"></line><line class="stroke_order_diagram--bounding_box" x1="1099" x2="1099" y1="1" y2="99"></line><path class="stroke_order_diagram--existing_path" d="M24.23,15.75c0.48,1.43,1.16,2.55,1.16,4.33c0,16.28-1.89,35.92-14.34,47.64" id="Ske2pui6r30" kvg:type="㇒" transform="matrix(1,0,0,1,996,-4)" xmlns:kvg="http://kanjivg.tagaini.net"></path><path class="stroke_order_diagram--existing_path" d="M35.37,14.75c1.09,0.5,1.74,2.25,1.96,3.25c0.22,1,0,41.25-0.22,47.5" id="Ske2pui6r31" kvg:type="㇑" transform="matrix(1,0,0,1,996,-4)" xmlns:kvg="http://kanjivg.tagaini.net"></path><path class="stroke_order_diagram--existing_path" d="M37.25,16.5c0.63,0.29,1.78,0.32,2.41,0.29C44.5,16.5,53,16,59.05,15.37c1.04-0.11,2.18,0.14,2.7,0.28" id="Ske2pui6r32" kvg:type="㇐b" transform="matrix(1,0,0,1,996,-4)" xmlns:kvg="http://kanjivg.tagaini.net"></path><path class="stroke_order_diagram--existing_path" d="M48.35,17.25c0.58,0.27,0.93,1.2,1.04,1.73c0.12,0.53,0,8.45-0.12,11.77" id="Ske2pui6r33" kvg:type="㇑a" transform="matrix(1,0,0,1,996,-4)" xmlns:kvg="http://kanjivg.tagaini.net"></path><path class="stroke_order_diagram--existing_path" d="M37.91,32.16c7.59-0.66,16.2-1.52,20.26-1.94c1.48-0.15,2.37,0.91,2.16,1.81c-0.88,3.74-1.4,7.25-2.71,12.42" id="Ske2pui6r34" kvg:type="㇕b" transform="matrix(1,0,0,1,996,-4)" xmlns:kvg="http://kanjivg.tagaini.net"></path><path class="stroke_order_diagram--existing_path" d="M37.72,46.95c4.76-0.48,15.33-1.3,21.87-2.03" id="Ske2pui6r35" kvg:type="㇐b" transform="matrix(1,0,0,1,996,-4)" xmlns:kvg="http://kanjivg.tagaini.net"></path><path class="stroke_order_diagram--existing_path" d="M48.35,47.25c0.58,0.27,0.93,1.2,1.04,1.73c0.12,0.53,0,8.95-0.12,12.27" id="Ske2pui6r36" kvg:type="㇑a" transform="matrix(1,0,0,1,996,-4)" xmlns:kvg="http://kanjivg.tagaini.net"></path><path class="stroke_order_diagram--existing_path" d="M37.25,63c0.63,0.29,1.78,0.32,2.41,0.29C44.5,63,54.5,62,60.55,61.37c1.04-0.11,2.18,0.14,2.7,0.28" id="Ske2pui6r37" kvg:type="㇐b" transform="matrix(1,0,0,1,996,-4)" xmlns:kvg="http://kanjivg.tagaini.net"></path><path class="stroke_order_diagram--existing_path" d="M67,14.99c1.19,0.89,2.21,0.89,3.95,0.6c3.54-0.6,15.24-1.5,16.32-1.61c1.43-0.15,3.05,0.48,2.54,2.79c-0.15,0.69-2.11,11.86-3.11,18.46" id="Ske2pui6r38" kvg:type="㇕" transform="matrix(1,0,0,1,996,-4)" xmlns:kvg="http://kanjivg.tagaini.net"></path><path class="stroke_order_diagram--existing_path" d="M70.25,36.68c2.75,0,13.86-1.03,19.21-1.33" id="Ske2pui6r39" kvg:type="㇐" transform="matrix(1,0,0,1,996,-4)" xmlns:kvg="http://kanjivg.tagaini.net"></path><path class="stroke_order_diagram--current_path" d="M69.36,16.3c-0.02,4.9,0.09,30.21,0.09,34.65C69.45,61,71,62,82.69,62c12.06,0,12.88-2,12.88-8.22" id="kvg:07188-s11" kvg:type="㇟" transform="matrix(1,0,0,1,996,-4)" xmlns:kvg="http://kanjivg.tagaini.net"></path><path class="stroke_order_diagram--current_path" d="M69.36,16.3c-0.02,4.9,0.09,30.21,0.09,34.65C69.45,61,71,62,82.69,62c12.06,0,12.88-2,12.88-8.22" id="Ske2pui6r3b" kvg:type="㇟" transform="matrix(1,0,0,1,996,-4)" xmlns:kvg="http://kanjivg.tagaini.net"></path><circle class="stroke_order_diagram--path_start" cx="69.36" cy="16.3" r="4" transform="matrix(1,0,0,1,996,-4)"></circle><line class="stroke_order_diagram--guide_line" x1="1150" x2="1150" y1="1" y2="99"></line><line class="stroke_order_diagram--bounding_box" x1="1199" x2="1199" y1="1" y2="99"></line><path class="stroke_order_diagram--existing_path" d="M24.23,15.75c0.48,1.43,1.16,2.55,1.16,4.33c0,16.28-1.89,35.92-14.34,47.64" id="Ske2pui6r3e" kvg:type="㇒" transform="matrix(1,0,0,1,1096,-4)" xmlns:kvg="http://kanjivg.tagaini.net"></path><path class="stroke_order_diagram--existing_path" d="M35.37,14.75c1.09,0.5,1.74,2.25,1.96,3.25c0.22,1,0,41.25-0.22,47.5" id="Ske2pui6r3f" kvg:type="㇑" transform="matrix(1,0,0,1,1096,-4)" xmlns:kvg="http://kanjivg.tagaini.net"></path><path class="stroke_order_diagram--existing_path" d="M37.25,16.5c0.63,0.29,1.78,0.32,2.41,0.29C44.5,16.5,53,16,59.05,15.37c1.04-0.11,2.18,0.14,2.7,0.28" id="Ske2pui6r3g" kvg:type="㇐b" transform="matrix(1,0,0,1,1096,-4)" xmlns:kvg="http://kanjivg.tagaini.net"></path><path class="stroke_order_diagram--existing_path" d="M48.35,17.25c0.58,0.27,0.93,1.2,1.04,1.73c0.12,0.53,0,8.45-0.12,11.77" id="Ske2pui6r3h" kvg:type="㇑a" transform="matrix(1,0,0,1,1096,-4)" xmlns:kvg="http://kanjivg.tagaini.net"></path><path class="stroke_order_diagram--existing_path" d="M37.91,32.16c7.59-0.66,16.2-1.52,20.26-1.94c1.48-0.15,2.37,0.91,2.16,1.81c-0.88,3.74-1.4,7.25-2.71,12.42" id="Ske2pui6r3i" kvg:type="㇕b" transform="matrix(1,0,0,1,1096,-4)" xmlns:kvg="http://kanjivg.tagaini.net"></path><path class="stroke_order_diagram--existing_path" d="M37.72,46.95c4.76-0.48,15.33-1.3,21.87-2.03" id="Ske2pui6r3j" kvg:type="㇐b" transform="matrix(1,0,0,1,1096,-4)" xmlns:kvg="http://kanjivg.tagaini.net"></path><path class="stroke_order_diagram--existing_path" d="M48.35,47.25c0.58,0.27,0.93,1.2,1.04,1.73c0.12,0.53,0,8.95-0.12,12.27" id="Ske2pui6r3k" kvg:type="㇑a" transform="matrix(1,0,0,1,1096,-4)" xmlns:kvg="http://kanjivg.tagaini.net"></path><path class="stroke_order_diagram--existing_path" d="M37.25,63c0.63,0.29,1.78,0.32,2.41,0.29C44.5,63,54.5,62,60.55,61.37c1.04-0.11,2.18,0.14,2.7,0.28" id="Ske2pui6r3l" kvg:type="㇐b" transform="matrix(1,0,0,1,1096,-4)" xmlns:kvg="http://kanjivg.tagaini.net"></path><path class="stroke_order_diagram--existing_path" d="M67,14.99c1.19,0.89,2.21,0.89,3.95,0.6c3.54-0.6,15.24-1.5,16.32-1.61c1.43-0.15,3.05,0.48,2.54,2.79c-0.15,0.69-2.11,11.86-3.11,18.46" id="Ske2pui6r3m" kvg:type="㇕" transform="matrix(1,0,0,1,1096,-4)" xmlns:kvg="http://kanjivg.tagaini.net"></path><path class="stroke_order_diagram--existing_path" d="M70.25,36.68c2.75,0,13.86-1.03,19.21-1.33" id="Ske2pui6r3n" kvg:type="㇐" transform="matrix(1,0,0,1,1096,-4)" xmlns:kvg="http://kanjivg.tagaini.net"></path><path class="stroke_order_diagram--existing_path" d="M69.36,16.3c-0.02,4.9,0.09,30.21,0.09,34.65C69.45,61,71,62,82.69,62c12.06,0,12.88-2,12.88-8.22" id="Ske2pui6r3o" kvg:type="㇟" transform="matrix(1,0,0,1,1096,-4)" xmlns:kvg="http://kanjivg.tagaini.net"></path><path class="stroke_order_diagram--current_path" d="M22.5,76.75c0,6.43-6.74,15.91-8.5,17.75" id="kvg:07188-s12" kvg:type="㇔" transform="matrix(1,0,0,1,1096,-4)" xmlns:kvg="http://kanjivg.tagaini.net"></path><path class="stroke_order_diagram--current_path" d="M22.5,76.75c0,6.43-6.74,15.91-8.5,17.75" id="Ske2pui6r3q" kvg:type="㇔" transform="matrix(1,0,0,1,1096,-4)" xmlns:kvg="http://kanjivg.tagaini.net"></path><circle class="stroke_order_diagram--path_start" cx="22.5" cy="76.75" r="4" transform="matrix(1,0,0,1,1096,-4)"></circle><line class="stroke_order_diagram--guide_line" x1="1250" x2="1250" y1="1" y2="99"></line><line class="stroke_order_diagram--bounding_box" x1="1299" x2="1299" y1="1" y2="99"></line><path class="stroke_order_diagram--existing_path" d="M24.23,15.75c0.48,1.43,1.16,2.55,1.16,4.33c0,16.28-1.89,35.92-14.34,47.64" id="Ske2pui6r3t" kvg:type="㇒" transform="matrix(1,0,0,1,1196,-4)" xmlns:kvg="http://kanjivg.tagaini.net"></path><path class="stroke_order_diagram--existing_path" d="M35.37,14.75c1.09,0.5,1.74,2.25,1.96,3.25c0.22,1,0,41.25-0.22,47.5" id="Ske2pui6r3u" kvg:type="㇑" transform="matrix(1,0,0,1,1196,-4)" xmlns:kvg="http://kanjivg.tagaini.net"></path><path class="stroke_order_diagram--existing_path" d="M37.25,16.5c0.63,0.29,1.78,0.32,2.41,0.29C44.5,16.5,53,16,59.05,15.37c1.04-0.11,2.18,0.14,2.7,0.28" id="Ske2pui6r3v" kvg:type="㇐b" transform="matrix(1,0,0,1,1196,-4)" xmlns:kvg="http://kanjivg.tagaini.net"></path><path class="stroke_order_diagram--existing_path" d="M48.35,17.25c0.58,0.27,0.93,1.2,1.04,1.73c0.12,0.53,0,8.45-0.12,11.77" id="Ske2pui6r3w" kvg:type="㇑a" transform="matrix(1,0,0,1,1196,-4)" xmlns:kvg="http://kanjivg.tagaini.net"></path><path class="stroke_order_diagram--existing_path" d="M37.91,32.16c7.59-0.66,16.2-1.52,20.26-1.94c1.48-0.15,2.37,0.91,2.16,1.81c-0.88,3.74-1.4,7.25-2.71,12.42" id="Ske2pui6r3x" kvg:type="㇕b" transform="matrix(1,0,0,1,1196,-4)" xmlns:kvg="http://kanjivg.tagaini.net"></path><path class="stroke_order_diagram--existing_path" d="M37.72,46.95c4.76-0.48,15.33-1.3,21.87-2.03" id="Ske2pui6r3y" kvg:type="㇐b" transform="matrix(1,0,0,1,1196,-4)" xmlns:kvg="http://kanjivg.tagaini.net"></path><path class="stroke_order_diagram--existing_path" d="M48.35,47.25c0.58,0.27,0.93,1.2,1.04,1.73c0.12,0.53,0,8.95-0.12,12.27" id="Ske2pui6r3z" kvg:type="㇑a" transform="matrix(1,0,0,1,1196,-4)" xmlns:kvg="http://kanjivg.tagaini.net"></path><path class="stroke_order_diagram--existing_path" d="M37.25,63c0.63,0.29,1.78,0.32,2.41,0.29C44.5,63,54.5,62,60.55,61.37c1.04-0.11,2.18,0.14,2.7,0.28" id="Ske2pui6r40" kvg:type="㇐b" transform="matrix(1,0,0,1,1196,-4)" xmlns:kvg="http://kanjivg.tagaini.net"></path><path class="stroke_order_diagram--existing_path" d="M67,14.99c1.19,0.89,2.21,0.89,3.95,0.6c3.54-0.6,15.24-1.5,16.32-1.61c1.43-0.15,3.05,0.48,2.54,2.79c-0.15,0.69-2.11,11.86-3.11,18.46" id="Ske2pui6r41" kvg:type="㇕" transform="matrix(1,0,0,1,1196,-4)" xmlns:kvg="http://kanjivg.tagaini.net"></path><path class="stroke_order_diagram--existing_path" d="M70.25,36.68c2.75,0,13.86-1.03,19.21-1.33" id="Ske2pui6r42" kvg:type="㇐" transform="matrix(1,0,0,1,1196,-4)" xmlns:kvg="http://kanjivg.tagaini.net"></path><path class="stroke_order_diagram--existing_path" d="M69.36,16.3c-0.02,4.9,0.09,30.21,0.09,34.65C69.45,61,71,62,82.69,62c12.06,0,12.88-2,12.88-8.22" id="Ske2pui6r43" kvg:type="㇟" transform="matrix(1,0,0,1,1196,-4)" xmlns:kvg="http://kanjivg.tagaini.net"></path><path class="stroke_order_diagram--existing_path" d="M22.5,76.75c0,6.43-6.74,15.91-8.5,17.75" id="Ske2pui6r44" kvg:type="㇔" transform="matrix(1,0,0,1,1196,-4)" xmlns:kvg="http://kanjivg.tagaini.net"></path><path class="stroke_order_diagram--current_path" d="M38.67,75.62c2.59,3.44,4.53,12.85,4.8,18.16" id="kvg:07188-s13" kvg:type="㇔" transform="matrix(1,0,0,1,1196,-4)" xmlns:kvg="http://kanjivg.tagaini.net"></path><path class="stroke_order_diagram--current_path" d="M38.67,75.62c2.59,3.44,4.53,12.85,4.8,18.16" id="Ske2pui6r46" kvg:type="㇔" transform="matrix(1,0,0,1,1196,-4)" xmlns:kvg="http://kanjivg.tagaini.net"></path><circle class="stroke_order_diagram--path_start" cx="38.67" cy="75.62" r="4" transform="matrix(1,0,0,1,1196,-4)"></circle><line class="stroke_order_diagram--guide_line" x1="1350" x2="1350" y1="1" y2="99"></line><line class="stroke_order_diagram--bounding_box" x1="1399" x2="1399" y1="1" y2="99"></line><path class="stroke_order_diagram--existing_path" d="M24.23,15.75c0.48,1.43,1.16,2.55,1.16,4.33c0,16.28-1.89,35.92-14.34,47.64" id="Ske2pui6r49" kvg:type="㇒" transform="matrix(1,0,0,1,1296,-4)" xmlns:kvg="http://kanjivg.tagaini.net"></path><path class="stroke_order_diagram--existing_path" d="M35.37,14.75c1.09,0.5,1.74,2.25,1.96,3.25c0.22,1,0,41.25-0.22,47.5" id="Ske2pui6r4a" kvg:type="㇑" transform="matrix(1,0,0,1,1296,-4)" xmlns:kvg="http://kanjivg.tagaini.net"></path><path class="stroke_order_diagram--existing_path" d="M37.25,16.5c0.63,0.29,1.78,0.32,2.41,0.29C44.5,16.5,53,16,59.05,15.37c1.04-0.11,2.18,0.14,2.7,0.28" id="Ske2pui6r4b" kvg:type="㇐b" transform="matrix(1,0,0,1,1296,-4)" xmlns:kvg="http://kanjivg.tagaini.net"></path><path class="stroke_order_diagram--existing_path" d="M48.35,17.25c0.58,0.27,0.93,1.2,1.04,1.73c0.12,0.53,0,8.45-0.12,11.77" id="Ske2pui6r4c" kvg:type="㇑a" transform="matrix(1,0,0,1,1296,-4)" xmlns:kvg="http://kanjivg.tagaini.net"></path><path class="stroke_order_diagram--existing_path" d="M37.91,32.16c7.59-0.66,16.2-1.52,20.26-1.94c1.48-0.15,2.37,0.91,2.16,1.81c-0.88,3.74-1.4,7.25-2.71,12.42" id="Ske2pui6r4d" kvg:type="㇕b" transform="matrix(1,0,0,1,1296,-4)" xmlns:kvg="http://kanjivg.tagaini.net"></path><path class="stroke_order_diagram--existing_path" d="M37.72,46.95c4.76-0.48,15.33-1.3,21.87-2.03" id="Ske2pui6r4e" kvg:type="㇐b" transform="matrix(1,0,0,1,1296,-4)" xmlns:kvg="http://kanjivg.tagaini.net"></path><path class="stroke_order_diagram--existing_path" d="M48.35,47.25c0.58,0.27,0.93,1.2,1.04,1.73c0.12,0.53,0,8.95-0.12,12.27" id="Ske2pui6r4f" kvg:type="㇑a" transform="matrix(1,0,0,1,1296,-4)" xmlns:kvg="http://kanjivg.tagaini.net"></path><path class="stroke_order_diagram--existing_path" d="M37.25,63c0.63,0.29,1.78,0.32,2.41,0.29C44.5,63,54.5,62,60.55,61.37c1.04-0.11,2.18,0.14,2.7,0.28" id="Ske2pui6r4g" kvg:type="㇐b" transform="matrix(1,0,0,1,1296,-4)" xmlns:kvg="http://kanjivg.tagaini.net"></path><path class="stroke_order_diagram--existing_path" d="M67,14.99c1.19,0.89,2.21,0.89,3.95,0.6c3.54-0.6,15.24-1.5,16.32-1.61c1.43-0.15,3.05,0.48,2.54,2.79c-0.15,0.69-2.11,11.86-3.11,18.46" id="Ske2pui6r4h" kvg:type="㇕" transform="matrix(1,0,0,1,1296,-4)" xmlns:kvg="http://kanjivg.tagaini.net"></path><path class="stroke_order_diagram--existing_path" d="M70.25,36.68c2.75,0,13.86-1.03,19.21-1.33" id="Ske2pui6r4i" kvg:type="㇐" transform="matrix(1,0,0,1,1296,-4)" xmlns:kvg="http://kanjivg.tagaini.net"></path><path class="stroke_order_diagram--existing_path" d="M69.36,16.3c-0.02,4.9,0.09,30.21,0.09,34.65C69.45,61,71,62,82.69,62c12.06,0,12.88-2,12.88-8.22" id="Ske2pui6r4j" kvg:type="㇟" transform="matrix(1,0,0,1,1296,-4)" xmlns:kvg="http://kanjivg.tagaini.net"></path><path class="stroke_order_diagram--existing_path" d="M22.5,76.75c0,6.43-6.74,15.91-8.5,17.75" id="Ske2pui6r4k" kvg:type="㇔" transform="matrix(1,0,0,1,1296,-4)" xmlns:kvg="http://kanjivg.tagaini.net"></path><path class="stroke_order_diagram--existing_path" d="M38.67,75.62c2.59,3.44,4.53,12.85,4.8,18.16" id="Ske2pui6r4l" kvg:type="㇔" transform="matrix(1,0,0,1,1296,-4)" xmlns:kvg="http://kanjivg.tagaini.net"></path><path class="stroke_order_diagram--current_path" d="M60.52,75.01c2.94,3.32,7.1,13.59,7.41,18.71" id="kvg:07188-s14" kvg:type="㇔" transform="matrix(1,0,0,1,1296,-4)" xmlns:kvg="http://kanjivg.tagaini.net"></path><path class="stroke_order_diagram--current_path" d="M60.52,75.01c2.94,3.32,7.1,13.59,7.41,18.71" id="Ske2pui6r4n" kvg:type="㇔" transform="matrix(1,0,0,1,1296,-4)" xmlns:kvg="http://kanjivg.tagaini.net"></path><circle class="stroke_order_diagram--path_start" cx="60.52" cy="75.01" r="4" transform="matrix(1,0,0,1,1296,-4)"></circle><line class="stroke_order_diagram--guide_line" x1="1450" x2="1450" y1="1" y2="99"></line><line class="stroke_order_diagram--bounding_box" x1="1499" x2="1499" y1="1" y2="99"></line><path class="stroke_order_diagram--existing_path" d="M24.23,15.75c0.48,1.43,1.16,2.55,1.16,4.33c0,16.28-1.89,35.92-14.34,47.64" id="Ske2pui6r4q" kvg:type="㇒" transform="matrix(1,0,0,1,1396,-4)" xmlns:kvg="http://kanjivg.tagaini.net"></path><path class="stroke_order_diagram--existing_path" d="M35.37,14.75c1.09,0.5,1.74,2.25,1.96,3.25c0.22,1,0,41.25-0.22,47.5" id="Ske2pui6r4r" kvg:type="㇑" transform="matrix(1,0,0,1,1396,-4)" xmlns:kvg="http://kanjivg.tagaini.net"></path><path class="stroke_order_diagram--existing_path" d="M37.25,16.5c0.63,0.29,1.78,0.32,2.41,0.29C44.5,16.5,53,16,59.05,15.37c1.04-0.11,2.18,0.14,2.7,0.28" id="Ske2pui6r4s" kvg:type="㇐b" transform="matrix(1,0,0,1,1396,-4)" xmlns:kvg="http://kanjivg.tagaini.net"></path><path class="stroke_order_diagram--existing_path" d="M48.35,17.25c0.58,0.27,0.93,1.2,1.04,1.73c0.12,0.53,0,8.45-0.12,11.77" id="Ske2pui6r4t" kvg:type="㇑a" transform="matrix(1,0,0,1,1396,-4)" xmlns:kvg="http://kanjivg.tagaini.net"></path><path class="stroke_order_diagram--existing_path" d="M37.91,32.16c7.59-0.66,16.2-1.52,20.26-1.94c1.48-0.15,2.37,0.91,2.16,1.81c-0.88,3.74-1.4,7.25-2.71,12.42" id="Ske2pui6r4u" kvg:type="㇕b" transform="matrix(1,0,0,1,1396,-4)" xmlns:kvg="http://kanjivg.tagaini.net"></path><path class="stroke_order_diagram--existing_path" d="M37.72,46.95c4.76-0.48,15.33-1.3,21.87-2.03" id="Ske2pui6r4v" kvg:type="㇐b" transform="matrix(1,0,0,1,1396,-4)" xmlns:kvg="http://kanjivg.tagaini.net"></path><path class="stroke_order_diagram--existing_path" d="M48.35,47.25c0.58,0.27,0.93,1.2,1.04,1.73c0.12,0.53,0,8.95-0.12,12.27" id="Ske2pui6r4w" kvg:type="㇑a" transform="matrix(1,0,0,1,1396,-4)" xmlns:kvg="http://kanjivg.tagaini.net"></path><path class="stroke_order_diagram--existing_path" d="M37.25,63c0.63,0.29,1.78,0.32,2.41,0.29C44.5,63,54.5,62,60.55,61.37c1.04-0.11,2.18,0.14,2.7,0.28" id="Ske2pui6r4x" kvg:type="㇐b" transform="matrix(1,0,0,1,1396,-4)" xmlns:kvg="http://kanjivg.tagaini.net"></path><path class="stroke_order_diagram--existing_path" d="M67,14.99c1.19,0.89,2.21,0.89,3.95,0.6c3.54-0.6,15.24-1.5,16.32-1.61c1.43-0.15,3.05,0.48,2.54,2.79c-0.15,0.69-2.11,11.86-3.11,18.46" id="Ske2pui6r4y" kvg:type="㇕" transform="matrix(1,0,0,1,1396,-4)" xmlns:kvg="http://kanjivg.tagaini.net"></path><path class="stroke_order_diagram--existing_path" d="M70.25,36.68c2.75,0,13.86-1.03,19.21-1.33" id="Ske2pui6r4z" kvg:type="㇐" transform="matrix(1,0,0,1,1396,-4)" xmlns:kvg="http://kanjivg.tagaini.net"></path><path class="stroke_order_diagram--existing_path" d="M69.36,16.3c-0.02,4.9,0.09,30.21,0.09,34.65C69.45,61,71,62,82.69,62c12.06,0,12.88-2,12.88-8.22" id="Ske2pui6r50" kvg:type="㇟" transform="matrix(1,0,0,1,1396,-4)" xmlns:kvg="http://kanjivg.tagaini.net"></path><path class="stroke_order_diagram--existing_path" d="M22.5,76.75c0,6.43-6.74,15.91-8.5,17.75" id="Ske2pui6r51" kvg:type="㇔" transform="matrix(1,0,0,1,1396,-4)" xmlns:kvg="http://kanjivg.tagaini.net"></path><path class="stroke_order_diagram--existing_path" d="M38.67,75.62c2.59,3.44,4.53,12.85,4.8,18.16" id="Ske2pui6r52" kvg:type="㇔" transform="matrix(1,0,0,1,1396,-4)" xmlns:kvg="http://kanjivg.tagaini.net"></path><path class="stroke_order_diagram--existing_path" d="M60.52,75.01c2.94,3.32,7.1,13.59,7.41,18.71" id="Ske2pui6r53" kvg:type="㇔" transform="matrix(1,0,0,1,1396,-4)" xmlns:kvg="http://kanjivg.tagaini.net"></path><path class="stroke_order_diagram--current_path" d="M80.52,72.76c4.89,3.77,12.04,15.42,12.76,21.21" id="kvg:07188-s15" kvg:type="㇔" transform="matrix(1,0,0,1,1396,-4)" xmlns:kvg="http://kanjivg.tagaini.net"></path><path class="stroke_order_diagram--current_path" d="M80.52,72.76c4.89,3.77,12.04,15.42,12.76,21.21" id="Ske2pui6r55" kvg:type="㇔" transform="matrix(1,0,0,1,1396,-4)" xmlns:kvg="http://kanjivg.tagaini.net"></path><circle class="stroke_order_diagram--path_start" cx="80.52" cy="72.76" r="4" transform="matrix(1,0,0,1,1396,-4)"></circle></svg>