<svg class="stroke_order_diagram--svg_container_for_51866290d5dda7965800080b" style="height: 100px; width: 1600px;" viewbox="0 0 1600 100"><desc>Created with Snap</desc><defs></defs><line class="stroke_order_diagram--bounding_box" x1="1" x2="1599" y1="1" y2="1"></line><line class="stroke_order_diagram--bounding_box" x1="1" x2="1" y1="1" y2="99"></line><line class="stroke_order_diagram--bounding_box" x1="1" x2="1599" y1="99" y2="99"></line><line class="stroke_order_diagram--guide_line" x1="0" x2="1600" y1="50" y2="50"></line><line class="stroke_order_diagram--guide_line" x1="50" x2="50" y1="1" y2="99"></line><line class="stroke_order_diagram--bounding_box" x1="99" x2="99" y1="1" y2="99"></line><path class="stroke_order_diagram--current_path" d="M11.24,36.5c1.78,2.33,4.36,8.92,4.84,11.25" id="kvg:071c8-s1" kvg:type="㇔" transform="matrix(1,0,0,1,-4,-4)" xmlns:kvg="http://kanjivg.tagaini.net"></path><path class="stroke_order_diagram--current_path" d="M11.24,36.5c1.78,2.33,4.36,8.92,4.84,11.25" id="Ske24etlyp" kvg:type="㇔" transform="matrix(1,0,0,1,-4,-4)" xmlns:kvg="http://kanjivg.tagaini.net"></path><circle class="stroke_order_diagram--path_start" cx="11.24" cy="36.5" r="4" transform="matrix(1,0,0,1,-4,-4)"></circle><line class="stroke_order_diagram--guide_line" x1="150" x2="150" y1="1" y2="99"></line><line class="stroke_order_diagram--bounding_box" x1="199" x2="199" y1="1" y2="99"></line><path class="stroke_order_diagram--existing_path" d="M11.24,36.5c1.78,2.33,4.36,8.92,4.84,11.25" id="Ske24etlys" kvg:type="㇔" transform="matrix(1,0,0,1,96,-4)" xmlns:kvg="http://kanjivg.tagaini.net"></path><path class="stroke_order_diagram--current_path" d="M38.58,31.25c0.17,1.25,0.04,2.23-0.61,3.06c-0.64,0.82-6.77,6.77-9.99,8.69" id="kvg:071c8-s2" kvg:type="㇒" transform="matrix(1,0,0,1,96,-4)" xmlns:kvg="http://kanjivg.tagaini.net"></path><path class="stroke_order_diagram--current_path" d="M38.58,31.25c0.17,1.25,0.04,2.23-0.61,3.06c-0.64,0.82-6.77,6.77-9.99,8.69" id="Ske24etlyu" kvg:type="㇒" transform="matrix(1,0,0,1,96,-4)" xmlns:kvg="http://kanjivg.tagaini.net"></path><circle class="stroke_order_diagram--path_start" cx="38.58" cy="31.25" r="4" transform="matrix(1,0,0,1,96,-4)"></circle><line class="stroke_order_diagram--guide_line" x1="250" x2="250" y1="1" y2="99"></line><line class="stroke_order_diagram--bounding_box" x1="299" x2="299" y1="1" y2="99"></line><path class="stroke_order_diagram--existing_path" d="M11.24,36.5c1.78,2.33,4.36,8.92,4.84,11.25" id="Ske24etlyx" kvg:type="㇔" transform="matrix(1,0,0,1,196,-4)" xmlns:kvg="http://kanjivg.tagaini.net"></path><path class="stroke_order_diagram--existing_path" d="M38.58,31.25c0.17,1.25,0.04,2.23-0.61,3.06c-0.64,0.82-6.77,6.77-9.99,8.69" id="Ske24etlyy" kvg:type="㇒" transform="matrix(1,0,0,1,196,-4)" xmlns:kvg="http://kanjivg.tagaini.net"></path><path class="stroke_order_diagram--current_path" d="M25.75,15.25c0.76,0.71,1.02,2.17,1.03,3.36C27,67.62,23,76.88,10.5,89.25" id="kvg:071c8-s3" kvg:type="㇒" transform="matrix(1,0,0,1,196,-4)" xmlns:kvg="http://kanjivg.tagaini.net"></path><path class="stroke_order_diagram--current_path" d="M25.75,15.25c0.76,0.71,1.02,2.17,1.03,3.36C27,67.62,23,76.88,10.5,89.25" id="Ske24etly10" kvg:type="㇒" transform="matrix(1,0,0,1,196,-4)" xmlns:kvg="http://kanjivg.tagaini.net"></path><circle class="stroke_order_diagram--path_start" cx="25.75" cy="15.25" r="4" transform="matrix(1,0,0,1,196,-4)"></circle><line class="stroke_order_diagram--guide_line" x1="350" x2="350" y1="1" y2="99"></line><line class="stroke_order_diagram--bounding_box" x1="399" x2="399" y1="1" y2="99"></line><path class="stroke_order_diagram--existing_path" d="M11.24,36.5c1.78,2.33,4.36,8.92,4.84,11.25" id="Ske24etly13" kvg:type="㇔" transform="matrix(1,0,0,1,296,-4)" xmlns:kvg="http://kanjivg.tagaini.net"></path><path class="stroke_order_diagram--existing_path" d="M38.58,31.25c0.17,1.25,0.04,2.23-0.61,3.06c-0.64,0.82-6.77,6.77-9.99,8.69" id="Ske24etly14" kvg:type="㇒" transform="matrix(1,0,0,1,296,-4)" xmlns:kvg="http://kanjivg.tagaini.net"></path><path class="stroke_order_diagram--existing_path" d="M25.75,15.25c0.76,0.71,1.02,2.17,1.03,3.36C27,67.62,23,76.88,10.5,89.25" id="Ske24etly15" kvg:type="㇒" transform="matrix(1,0,0,1,296,-4)" xmlns:kvg="http://kanjivg.tagaini.net"></path><path class="stroke_order_diagram--current_path" d="M27.25,64C32,66.64,38,75.01,39.25,78.75" id="kvg:071c8-s4" kvg:type="㇔/㇏" transform="matrix(1,0,0,1,296,-4)" xmlns:kvg="http://kanjivg.tagaini.net"></path><path class="stroke_order_diagram--current_path" d="M27.25,64C32,66.64,38,75.01,39.25,78.75" id="Ske24etly17" kvg:type="㇔/㇏" transform="matrix(1,0,0,1,296,-4)" xmlns:kvg="http://kanjivg.tagaini.net"></path><circle class="stroke_order_diagram--path_start" cx="27.25" cy="64" r="4" transform="matrix(1,0,0,1,296,-4)"></circle><line class="stroke_order_diagram--guide_line" x1="450" x2="450" y1="1" y2="99"></line><line class="stroke_order_diagram--bounding_box" x1="499" x2="499" y1="1" y2="99"></line><path class="stroke_order_diagram--existing_path" d="M11.24,36.5c1.78,2.33,4.36,8.92,4.84,11.25" id="Ske24etly1a" kvg:type="㇔" transform="matrix(1,0,0,1,396,-4)" xmlns:kvg="http://kanjivg.tagaini.net"></path><path class="stroke_order_diagram--existing_path" d="M38.58,31.25c0.17,1.25,0.04,2.23-0.61,3.06c-0.64,0.82-6.77,6.77-9.99,8.69" id="Ske24etly1b" kvg:type="㇒" transform="matrix(1,0,0,1,396,-4)" xmlns:kvg="http://kanjivg.tagaini.net"></path><path class="stroke_order_diagram--existing_path" d="M25.75,15.25c0.76,0.71,1.02,2.17,1.03,3.36C27,67.62,23,76.88,10.5,89.25" id="Ske24etly1c" kvg:type="㇒" transform="matrix(1,0,0,1,396,-4)" xmlns:kvg="http://kanjivg.tagaini.net"></path><path class="stroke_order_diagram--existing_path" d="M27.25,64C32,66.64,38,75.01,39.25,78.75" id="Ske24etly1d" kvg:type="㇔/㇏" transform="matrix(1,0,0,1,396,-4)" xmlns:kvg="http://kanjivg.tagaini.net"></path><path class="stroke_order_diagram--current_path" d="M47.58,19.22c1.06,0.58,1.47,0.47,3.18,0.19c4.46-0.72,4.93-1.79,9.7-2.71c2.83-0.55,3.39,0.5,2.49,3.63c-2.12,7.36-12.56,26.11-25.22,32.73" id="kvg:071c8-s5" kvg:type="㇇" transform="matrix(1,0,0,1,396,-4)" xmlns:kvg="http://kanjivg.tagaini.net"></path><path class="stroke_order_diagram--current_path" d="M47.58,19.22c1.06,0.58,1.47,0.47,3.18,0.19c4.46-0.72,4.93-1.79,9.7-2.71c2.83-0.55,3.39,0.5,2.49,3.63c-2.12,7.36-12.56,26.11-25.22,32.73" id="Ske24etly1f" kvg:type="㇇" transform="matrix(1,0,0,1,396,-4)" xmlns:kvg="http://kanjivg.tagaini.net"></path><circle class="stroke_order_diagram--path_start" cx="47.58" cy="19.22" r="4" transform="matrix(1,0,0,1,396,-4)"></circle><line class="stroke_order_diagram--guide_line" x1="550" x2="550" y1="1" y2="99"></line><line class="stroke_order_diagram--bounding_box" x1="599" x2="599" y1="1" y2="99"></line><path class="stroke_order_diagram--existing_path" d="M11.24,36.5c1.78,2.33,4.36,8.92,4.84,11.25" id="Ske24etly1i" kvg:type="㇔" transform="matrix(1,0,0,1,496,-4)" xmlns:kvg="http://kanjivg.tagaini.net"></path><path class="stroke_order_diagram--existing_path" d="M38.58,31.25c0.17,1.25,0.04,2.23-0.61,3.06c-0.64,0.82-6.77,6.77-9.99,8.69" id="Ske24etly1j" kvg:type="㇒" transform="matrix(1,0,0,1,496,-4)" xmlns:kvg="http://kanjivg.tagaini.net"></path><path class="stroke_order_diagram--existing_path" d="M25.75,15.25c0.76,0.71,1.02,2.17,1.03,3.36C27,67.62,23,76.88,10.5,89.25" id="Ske24etly1k" kvg:type="㇒" transform="matrix(1,0,0,1,496,-4)" xmlns:kvg="http://kanjivg.tagaini.net"></path><path class="stroke_order_diagram--existing_path" d="M27.25,64C32,66.64,38,75.01,39.25,78.75" id="Ske24etly1l" kvg:type="㇔/㇏" transform="matrix(1,0,0,1,496,-4)" xmlns:kvg="http://kanjivg.tagaini.net"></path><path class="stroke_order_diagram--existing_path" d="M47.58,19.22c1.06,0.58,1.47,0.47,3.18,0.19c4.46-0.72,4.93-1.79,9.7-2.71c2.83-0.55,3.39,0.5,2.49,3.63c-2.12,7.36-12.56,26.11-25.22,32.73" id="Ske24etly1m" kvg:type="㇇" transform="matrix(1,0,0,1,496,-4)" xmlns:kvg="http://kanjivg.tagaini.net"></path><path class="stroke_order_diagram--current_path" d="M45.77,27.29c2.24,1.67,5.78,6.89,6.33,9.49" id="kvg:071c8-s6" kvg:type="㇔" transform="matrix(1,0,0,1,496,-4)" xmlns:kvg="http://kanjivg.tagaini.net"></path><path class="stroke_order_diagram--current_path" d="M45.77,27.29c2.24,1.67,5.78,6.89,6.33,9.49" id="Ske24etly1o" kvg:type="㇔" transform="matrix(1,0,0,1,496,-4)" xmlns:kvg="http://kanjivg.tagaini.net"></path><circle class="stroke_order_diagram--path_start" cx="45.77" cy="27.29" r="4" transform="matrix(1,0,0,1,496,-4)"></circle><line class="stroke_order_diagram--guide_line" x1="650" x2="650" y1="1" y2="99"></line><line class="stroke_order_diagram--bounding_box" x1="699" x2="699" y1="1" y2="99"></line><path class="stroke_order_diagram--existing_path" d="M11.24,36.5c1.78,2.33,4.36,8.92,4.84,11.25" id="Ske24etly1r" kvg:type="㇔" transform="matrix(1,0,0,1,596,-4)" xmlns:kvg="http://kanjivg.tagaini.net"></path><path class="stroke_order_diagram--existing_path" d="M38.58,31.25c0.17,1.25,0.04,2.23-0.61,3.06c-0.64,0.82-6.77,6.77-9.99,8.69" id="Ske24etly1s" kvg:type="㇒" transform="matrix(1,0,0,1,596,-4)" xmlns:kvg="http://kanjivg.tagaini.net"></path><path class="stroke_order_diagram--existing_path" d="M25.75,15.25c0.76,0.71,1.02,2.17,1.03,3.36C27,67.62,23,76.88,10.5,89.25" id="Ske24etly1t" kvg:type="㇒" transform="matrix(1,0,0,1,596,-4)" xmlns:kvg="http://kanjivg.tagaini.net"></path><path class="stroke_order_diagram--existing_path" d="M27.25,64C32,66.64,38,75.01,39.25,78.75" id="Ske24etly1u" kvg:type="㇔/㇏" transform="matrix(1,0,0,1,596,-4)" xmlns:kvg="http://kanjivg.tagaini.net"></path><path class="stroke_order_diagram--existing_path" d="M47.58,19.22c1.06,0.58,1.47,0.47,3.18,0.19c4.46-0.72,4.93-1.79,9.7-2.71c2.83-0.55,3.39,0.5,2.49,3.63c-2.12,7.36-12.56,26.11-25.22,32.73" id="Ske24etly1v" kvg:type="㇇" transform="matrix(1,0,0,1,596,-4)" xmlns:kvg="http://kanjivg.tagaini.net"></path><path class="stroke_order_diagram--existing_path" d="M45.77,27.29c2.24,1.67,5.78,6.89,6.33,9.49" id="Ske24etly1w" kvg:type="㇔" transform="matrix(1,0,0,1,596,-4)" xmlns:kvg="http://kanjivg.tagaini.net"></path><path class="stroke_order_diagram--current_path" d="M81.58,17.63c0.01,0.21,0.03,0.56-0.03,0.86c-0.4,1.82-2.71,5.3-5.87,7.75" id="kvg:071c8-s7" kvg:type="㇒" transform="matrix(1,0,0,1,596,-4)" xmlns:kvg="http://kanjivg.tagaini.net"></path><path class="stroke_order_diagram--current_path" d="M81.58,17.63c0.01,0.21,0.03,0.56-0.03,0.86c-0.4,1.82-2.71,5.3-5.87,7.75" id="Ske24etly1y" kvg:type="㇒" transform="matrix(1,0,0,1,596,-4)" xmlns:kvg="http://kanjivg.tagaini.net"></path><circle class="stroke_order_diagram--path_start" cx="81.58" cy="17.63" r="4" transform="matrix(1,0,0,1,596,-4)"></circle><line class="stroke_order_diagram--guide_line" x1="750" x2="750" y1="1" y2="99"></line><line class="stroke_order_diagram--bounding_box" x1="799" x2="799" y1="1" y2="99"></line><path class="stroke_order_diagram--existing_path" d="M11.24,36.5c1.78,2.33,4.36,8.92,4.84,11.25" id="Ske24etly21" kvg:type="㇔" transform="matrix(1,0,0,1,696,-4)" xmlns:kvg="http://kanjivg.tagaini.net"></path><path class="stroke_order_diagram--existing_path" d="M38.58,31.25c0.17,1.25,0.04,2.23-0.61,3.06c-0.64,0.82-6.77,6.77-9.99,8.69" id="Ske24etly22" kvg:type="㇒" transform="matrix(1,0,0,1,696,-4)" xmlns:kvg="http://kanjivg.tagaini.net"></path><path class="stroke_order_diagram--existing_path" d="M25.75,15.25c0.76,0.71,1.02,2.17,1.03,3.36C27,67.62,23,76.88,10.5,89.25" id="Ske24etly23" kvg:type="㇒" transform="matrix(1,0,0,1,696,-4)" xmlns:kvg="http://kanjivg.tagaini.net"></path><path class="stroke_order_diagram--existing_path" d="M27.25,64C32,66.64,38,75.01,39.25,78.75" id="Ske24etly24" kvg:type="㇔/㇏" transform="matrix(1,0,0,1,696,-4)" xmlns:kvg="http://kanjivg.tagaini.net"></path><path class="stroke_order_diagram--existing_path" d="M47.58,19.22c1.06,0.58,1.47,0.47,3.18,0.19c4.46-0.72,4.93-1.79,9.7-2.71c2.83-0.55,3.39,0.5,2.49,3.63c-2.12,7.36-12.56,26.11-25.22,32.73" id="Ske24etly25" kvg:type="㇇" transform="matrix(1,0,0,1,696,-4)" xmlns:kvg="http://kanjivg.tagaini.net"></path><path class="stroke_order_diagram--existing_path" d="M45.77,27.29c2.24,1.67,5.78,6.89,6.33,9.49" id="Ske24etly26" kvg:type="㇔" transform="matrix(1,0,0,1,696,-4)" xmlns:kvg="http://kanjivg.tagaini.net"></path><path class="stroke_order_diagram--existing_path" d="M81.58,17.63c0.01,0.21,0.03,0.56-0.03,0.86c-0.4,1.82-2.71,5.3-5.87,7.75" id="Ske24etly27" kvg:type="㇒" transform="matrix(1,0,0,1,696,-4)" xmlns:kvg="http://kanjivg.tagaini.net"></path><path class="stroke_order_diagram--current_path" d="M64.89,20.36c5.06,3.26,22.39,22.07,26.82,25.86c1.51,1.28,2.8,1.83,4.3,2.2" id="kvg:071c8-s8" kvg:type="㇏" transform="matrix(1,0,0,1,696,-4)" xmlns:kvg="http://kanjivg.tagaini.net"></path><path class="stroke_order_diagram--current_path" d="M64.89,20.36c5.06,3.26,22.39,22.07,26.82,25.86c1.51,1.28,2.8,1.83,4.3,2.2" id="Ske24etly29" kvg:type="㇏" transform="matrix(1,0,0,1,696,-4)" xmlns:kvg="http://kanjivg.tagaini.net"></path><circle class="stroke_order_diagram--path_start" cx="64.89" cy="20.36" r="4" transform="matrix(1,0,0,1,696,-4)"></circle><line class="stroke_order_diagram--guide_line" x1="850" x2="850" y1="1" y2="99"></line><line class="stroke_order_diagram--bounding_box" x1="899" x2="899" y1="1" y2="99"></line><path class="stroke_order_diagram--existing_path" d="M11.24,36.5c1.78,2.33,4.36,8.92,4.84,11.25" id="Ske24etly2c" kvg:type="㇔" transform="matrix(1,0,0,1,796,-4)" xmlns:kvg="http://kanjivg.tagaini.net"></path><path class="stroke_order_diagram--existing_path" d="M38.58,31.25c0.17,1.25,0.04,2.23-0.61,3.06c-0.64,0.82-6.77,6.77-9.99,8.69" id="Ske24etly2d" kvg:type="㇒" transform="matrix(1,0,0,1,796,-4)" xmlns:kvg="http://kanjivg.tagaini.net"></path><path class="stroke_order_diagram--existing_path" d="M25.75,15.25c0.76,0.71,1.02,2.17,1.03,3.36C27,67.62,23,76.88,10.5,89.25" id="Ske24etly2e" kvg:type="㇒" transform="matrix(1,0,0,1,796,-4)" xmlns:kvg="http://kanjivg.tagaini.net"></path><path class="stroke_order_diagram--existing_path" d="M27.25,64C32,66.64,38,75.01,39.25,78.75" id="Ske24etly2f" kvg:type="㇔/㇏" transform="matrix(1,0,0,1,796,-4)" xmlns:kvg="http://kanjivg.tagaini.net"></path><path class="stroke_order_diagram--existing_path" d="M47.58,19.22c1.06,0.58,1.47,0.47,3.18,0.19c4.46-0.72,4.93-1.79,9.7-2.71c2.83-0.55,3.39,0.5,2.49,3.63c-2.12,7.36-12.56,26.11-25.22,32.73" id="Ske24etly2g" kvg:type="㇇" transform="matrix(1,0,0,1,796,-4)" xmlns:kvg="http://kanjivg.tagaini.net"></path><path class="stroke_order_diagram--existing_path" d="M45.77,27.29c2.24,1.67,5.78,6.89,6.33,9.49" id="Ske24etly2h" kvg:type="㇔" transform="matrix(1,0,0,1,796,-4)" xmlns:kvg="http://kanjivg.tagaini.net"></path><path class="stroke_order_diagram--existing_path" d="M81.58,17.63c0.01,0.21,0.03,0.56-0.03,0.86c-0.4,1.82-2.71,5.3-5.87,7.75" id="Ske24etly2i" kvg:type="㇒" transform="matrix(1,0,0,1,796,-4)" xmlns:kvg="http://kanjivg.tagaini.net"></path><path class="stroke_order_diagram--existing_path" d="M64.89,20.36c5.06,3.26,22.39,22.07,26.82,25.86c1.51,1.28,2.8,1.83,4.3,2.2" id="Ske24etly2j" kvg:type="㇏" transform="matrix(1,0,0,1,796,-4)" xmlns:kvg="http://kanjivg.tagaini.net"></path><path class="stroke_order_diagram--current_path" d="M91.41,25.09c0.03,0.23,0.05,0.59-0.05,0.92c-0.59,1.94-3.97,5.76-8.6,8.37" id="kvg:071c8-s9" kvg:type="㇒" transform="matrix(1,0,0,1,796,-4)" xmlns:kvg="http://kanjivg.tagaini.net"></path><path class="stroke_order_diagram--current_path" d="M91.41,25.09c0.03,0.23,0.05,0.59-0.05,0.92c-0.59,1.94-3.97,5.76-8.6,8.37" id="Ske24etly2l" kvg:type="㇒" transform="matrix(1,0,0,1,796,-4)" xmlns:kvg="http://kanjivg.tagaini.net"></path><circle class="stroke_order_diagram--path_start" cx="91.41" cy="25.09" r="4" transform="matrix(1,0,0,1,796,-4)"></circle><line class="stroke_order_diagram--guide_line" x1="950" x2="950" y1="1" y2="99"></line><line class="stroke_order_diagram--bounding_box" x1="999" x2="999" y1="1" y2="99"></line><path class="stroke_order_diagram--existing_path" d="M11.24,36.5c1.78,2.33,4.36,8.92,4.84,11.25" id="Ske24etly2o" kvg:type="㇔" transform="matrix(1,0,0,1,896,-4)" xmlns:kvg="http://kanjivg.tagaini.net"></path><path class="stroke_order_diagram--existing_path" d="M38.58,31.25c0.17,1.25,0.04,2.23-0.61,3.06c-0.64,0.82-6.77,6.77-9.99,8.69" id="Ske24etly2p" kvg:type="㇒" transform="matrix(1,0,0,1,896,-4)" xmlns:kvg="http://kanjivg.tagaini.net"></path><path class="stroke_order_diagram--existing_path" d="M25.75,15.25c0.76,0.71,1.02,2.17,1.03,3.36C27,67.62,23,76.88,10.5,89.25" id="Ske24etly2q" kvg:type="㇒" transform="matrix(1,0,0,1,896,-4)" xmlns:kvg="http://kanjivg.tagaini.net"></path><path class="stroke_order_diagram--existing_path" d="M27.25,64C32,66.64,38,75.01,39.25,78.75" id="Ske24etly2r" kvg:type="㇔/㇏" transform="matrix(1,0,0,1,896,-4)" xmlns:kvg="http://kanjivg.tagaini.net"></path><path class="stroke_order_diagram--existing_path" d="M47.58,19.22c1.06,0.58,1.47,0.47,3.18,0.19c4.46-0.72,4.93-1.79,9.7-2.71c2.83-0.55,3.39,0.5,2.49,3.63c-2.12,7.36-12.56,26.11-25.22,32.73" id="Ske24etly2s" kvg:type="㇇" transform="matrix(1,0,0,1,896,-4)" xmlns:kvg="http://kanjivg.tagaini.net"></path><path class="stroke_order_diagram--existing_path" d="M45.77,27.29c2.24,1.67,5.78,6.89,6.33,9.49" id="Ske24etly2t" kvg:type="㇔" transform="matrix(1,0,0,1,896,-4)" xmlns:kvg="http://kanjivg.tagaini.net"></path><path class="stroke_order_diagram--existing_path" d="M81.58,17.63c0.01,0.21,0.03,0.56-0.03,0.86c-0.4,1.82-2.71,5.3-5.87,7.75" id="Ske24etly2u" kvg:type="㇒" transform="matrix(1,0,0,1,896,-4)" xmlns:kvg="http://kanjivg.tagaini.net"></path><path class="stroke_order_diagram--existing_path" d="M64.89,20.36c5.06,3.26,22.39,22.07,26.82,25.86c1.51,1.28,2.8,1.83,4.3,2.2" id="Ske24etly2v" kvg:type="㇏" transform="matrix(1,0,0,1,896,-4)" xmlns:kvg="http://kanjivg.tagaini.net"></path><path class="stroke_order_diagram--existing_path" d="M91.41,25.09c0.03,0.23,0.05,0.59-0.05,0.92c-0.59,1.94-3.97,5.76-8.6,8.37" id="Ske24etly2w" kvg:type="㇒" transform="matrix(1,0,0,1,896,-4)" xmlns:kvg="http://kanjivg.tagaini.net"></path><path class="stroke_order_diagram--current_path" d="M54.76,44.46c0.66,0.23,1.88,0.29,2.54,0.23c7.09-0.71,12.46-1.41,17.99-1.65c1.1-0.05,1.77,0.11,2.32,0.22" id="kvg:071c8-s10" kvg:type="㇐" transform="matrix(1,0,0,1,896,-4)" xmlns:kvg="http://kanjivg.tagaini.net"></path><path class="stroke_order_diagram--current_path" d="M54.76,44.46c0.66,0.23,1.88,0.29,2.54,0.23c7.09-0.71,12.46-1.41,17.99-1.65c1.1-0.05,1.77,0.11,2.32,0.22" id="Ske24etly2y" kvg:type="㇐" transform="matrix(1,0,0,1,896,-4)" xmlns:kvg="http://kanjivg.tagaini.net"></path><circle class="stroke_order_diagram--path_start" cx="54.76" cy="44.46" r="4" transform="matrix(1,0,0,1,896,-4)"></circle><line class="stroke_order_diagram--guide_line" x1="1050" x2="1050" y1="1" y2="99"></line><line class="stroke_order_diagram--bounding_box" x1="1099" x2="1099" y1="1" y2="99"></line><path class="stroke_order_diagram--existing_path" d="M11.24,36.5c1.78,2.33,4.36,8.92,4.84,11.25" id="Ske24etly31" kvg:type="㇔" transform="matrix(1,0,0,1,996,-4)" xmlns:kvg="http://kanjivg.tagaini.net"></path><path class="stroke_order_diagram--existing_path" d="M38.58,31.25c0.17,1.25,0.04,2.23-0.61,3.06c-0.64,0.82-6.77,6.77-9.99,8.69" id="Ske24etly32" kvg:type="㇒" transform="matrix(1,0,0,1,996,-4)" xmlns:kvg="http://kanjivg.tagaini.net"></path><path class="stroke_order_diagram--existing_path" d="M25.75,15.25c0.76,0.71,1.02,2.17,1.03,3.36C27,67.62,23,76.88,10.5,89.25" id="Ske24etly33" kvg:type="㇒" transform="matrix(1,0,0,1,996,-4)" xmlns:kvg="http://kanjivg.tagaini.net"></path><path class="stroke_order_diagram--existing_path" d="M27.25,64C32,66.64,38,75.01,39.25,78.75" id="Ske24etly34" kvg:type="㇔/㇏" transform="matrix(1,0,0,1,996,-4)" xmlns:kvg="http://kanjivg.tagaini.net"></path><path class="stroke_order_diagram--existing_path" d="M47.58,19.22c1.06,0.58,1.47,0.47,3.18,0.19c4.46-0.72,4.93-1.79,9.7-2.71c2.83-0.55,3.39,0.5,2.49,3.63c-2.12,7.36-12.56,26.11-25.22,32.73" id="Ske24etly35" kvg:type="㇇" transform="matrix(1,0,0,1,996,-4)" xmlns:kvg="http://kanjivg.tagaini.net"></path><path class="stroke_order_diagram--existing_path" d="M45.77,27.29c2.24,1.67,5.78,6.89,6.33,9.49" id="Ske24etly36" kvg:type="㇔" transform="matrix(1,0,0,1,996,-4)" xmlns:kvg="http://kanjivg.tagaini.net"></path><path class="stroke_order_diagram--existing_path" d="M81.58,17.63c0.01,0.21,0.03,0.56-0.03,0.86c-0.4,1.82-2.71,5.3-5.87,7.75" id="Ske24etly37" kvg:type="㇒" transform="matrix(1,0,0,1,996,-4)" xmlns:kvg="http://kanjivg.tagaini.net"></path><path class="stroke_order_diagram--existing_path" d="M64.89,20.36c5.06,3.26,22.39,22.07,26.82,25.86c1.51,1.28,2.8,1.83,4.3,2.2" id="Ske24etly38" kvg:type="㇏" transform="matrix(1,0,0,1,996,-4)" xmlns:kvg="http://kanjivg.tagaini.net"></path><path class="stroke_order_diagram--existing_path" d="M91.41,25.09c0.03,0.23,0.05,0.59-0.05,0.92c-0.59,1.94-3.97,5.76-8.6,8.37" id="Ske24etly39" kvg:type="㇒" transform="matrix(1,0,0,1,996,-4)" xmlns:kvg="http://kanjivg.tagaini.net"></path><path class="stroke_order_diagram--existing_path" d="M54.76,44.46c0.66,0.23,1.88,0.29,2.54,0.23c7.09-0.71,12.46-1.41,17.99-1.65c1.1-0.05,1.77,0.11,2.32,0.22" id="Ske24etly3a" kvg:type="㇐" transform="matrix(1,0,0,1,996,-4)" xmlns:kvg="http://kanjivg.tagaini.net"></path><path class="stroke_order_diagram--current_path" d="M50.73,55.07c0.42,0.35,0.95,0.62,1.03,1.08c0.57,3.36,2.12,9.77,2.98,15.98" id="kvg:071c8-s11" kvg:type="㇑" transform="matrix(1,0,0,1,996,-4)" xmlns:kvg="http://kanjivg.tagaini.net"></path><path class="stroke_order_diagram--current_path" d="M50.73,55.07c0.42,0.35,0.95,0.62,1.03,1.08c0.57,3.36,2.12,9.77,2.98,15.98" id="Ske24etly3c" kvg:type="㇑" transform="matrix(1,0,0,1,996,-4)" xmlns:kvg="http://kanjivg.tagaini.net"></path><circle class="stroke_order_diagram--path_start" cx="50.73" cy="55.07" r="4" transform="matrix(1,0,0,1,996,-4)"></circle><line class="stroke_order_diagram--guide_line" x1="1150" x2="1150" y1="1" y2="99"></line><line class="stroke_order_diagram--bounding_box" x1="1199" x2="1199" y1="1" y2="99"></line><path class="stroke_order_diagram--existing_path" d="M11.24,36.5c1.78,2.33,4.36,8.92,4.84,11.25" id="Ske24etly3f" kvg:type="㇔" transform="matrix(1,0,0,1,1096,-4)" xmlns:kvg="http://kanjivg.tagaini.net"></path><path class="stroke_order_diagram--existing_path" d="M38.58,31.25c0.17,1.25,0.04,2.23-0.61,3.06c-0.64,0.82-6.77,6.77-9.99,8.69" id="Ske24etly3g" kvg:type="㇒" transform="matrix(1,0,0,1,1096,-4)" xmlns:kvg="http://kanjivg.tagaini.net"></path><path class="stroke_order_diagram--existing_path" d="M25.75,15.25c0.76,0.71,1.02,2.17,1.03,3.36C27,67.62,23,76.88,10.5,89.25" id="Ske24etly3h" kvg:type="㇒" transform="matrix(1,0,0,1,1096,-4)" xmlns:kvg="http://kanjivg.tagaini.net"></path><path class="stroke_order_diagram--existing_path" d="M27.25,64C32,66.64,38,75.01,39.25,78.75" id="Ske24etly3i" kvg:type="㇔/㇏" transform="matrix(1,0,0,1,1096,-4)" xmlns:kvg="http://kanjivg.tagaini.net"></path><path class="stroke_order_diagram--existing_path" d="M47.58,19.22c1.06,0.58,1.47,0.47,3.18,0.19c4.46-0.72,4.93-1.79,9.7-2.71c2.83-0.55,3.39,0.5,2.49,3.63c-2.12,7.36-12.56,26.11-25.22,32.73" id="Ske24etly3j" kvg:type="㇇" transform="matrix(1,0,0,1,1096,-4)" xmlns:kvg="http://kanjivg.tagaini.net"></path><path class="stroke_order_diagram--existing_path" d="M45.77,27.29c2.24,1.67,5.78,6.89,6.33,9.49" id="Ske24etly3k" kvg:type="㇔" transform="matrix(1,0,0,1,1096,-4)" xmlns:kvg="http://kanjivg.tagaini.net"></path><path class="stroke_order_diagram--existing_path" d="M81.58,17.63c0.01,0.21,0.03,0.56-0.03,0.86c-0.4,1.82-2.71,5.3-5.87,7.75" id="Ske24etly3l" kvg:type="㇒" transform="matrix(1,0,0,1,1096,-4)" xmlns:kvg="http://kanjivg.tagaini.net"></path><path class="stroke_order_diagram--existing_path" d="M64.89,20.36c5.06,3.26,22.39,22.07,26.82,25.86c1.51,1.28,2.8,1.83,4.3,2.2" id="Ske24etly3m" kvg:type="㇏" transform="matrix(1,0,0,1,1096,-4)" xmlns:kvg="http://kanjivg.tagaini.net"></path><path class="stroke_order_diagram--existing_path" d="M91.41,25.09c0.03,0.23,0.05,0.59-0.05,0.92c-0.59,1.94-3.97,5.76-8.6,8.37" id="Ske24etly3n" kvg:type="㇒" transform="matrix(1,0,0,1,1096,-4)" xmlns:kvg="http://kanjivg.tagaini.net"></path><path class="stroke_order_diagram--existing_path" d="M54.76,44.46c0.66,0.23,1.88,0.29,2.54,0.23c7.09-0.71,12.46-1.41,17.99-1.65c1.1-0.05,1.77,0.11,2.32,0.22" id="Ske24etly3o" kvg:type="㇐" transform="matrix(1,0,0,1,1096,-4)" xmlns:kvg="http://kanjivg.tagaini.net"></path><path class="stroke_order_diagram--existing_path" d="M50.73,55.07c0.42,0.35,0.95,0.62,1.03,1.08c0.57,3.36,2.12,9.77,2.98,15.98" id="Ske24etly3p" kvg:type="㇑" transform="matrix(1,0,0,1,1096,-4)" xmlns:kvg="http://kanjivg.tagaini.net"></path><path class="stroke_order_diagram--current_path" d="M52.33,56.16c6.36-0.67,23.41-3.19,27.75-3.29c1.79-0.04,3.01,1.9,2.6,3.86c-0.72,3.51-2.08,7.36-3.3,11.94" id="kvg:071c8-s12" kvg:type="㇕b" transform="matrix(1,0,0,1,1096,-4)" xmlns:kvg="http://kanjivg.tagaini.net"></path><path class="stroke_order_diagram--current_path" d="M52.33,56.16c6.36-0.67,23.41-3.19,27.75-3.29c1.79-0.04,3.01,1.9,2.6,3.86c-0.72,3.51-2.08,7.36-3.3,11.94" id="Ske24etly3r" kvg:type="㇕b" transform="matrix(1,0,0,1,1096,-4)" xmlns:kvg="http://kanjivg.tagaini.net"></path><circle class="stroke_order_diagram--path_start" cx="52.33" cy="56.16" r="4" transform="matrix(1,0,0,1,1096,-4)"></circle><line class="stroke_order_diagram--guide_line" x1="1250" x2="1250" y1="1" y2="99"></line><line class="stroke_order_diagram--bounding_box" x1="1299" x2="1299" y1="1" y2="99"></line><path class="stroke_order_diagram--existing_path" d="M11.24,36.5c1.78,2.33,4.36,8.92,4.84,11.25" id="Ske24etly3u" kvg:type="㇔" transform="matrix(1,0,0,1,1196,-4)" xmlns:kvg="http://kanjivg.tagaini.net"></path><path class="stroke_order_diagram--existing_path" d="M38.58,31.25c0.17,1.25,0.04,2.23-0.61,3.06c-0.64,0.82-6.77,6.77-9.99,8.69" id="Ske24etly3v" kvg:type="㇒" transform="matrix(1,0,0,1,1196,-4)" xmlns:kvg="http://kanjivg.tagaini.net"></path><path class="stroke_order_diagram--existing_path" d="M25.75,15.25c0.76,0.71,1.02,2.17,1.03,3.36C27,67.62,23,76.88,10.5,89.25" id="Ske24etly3w" kvg:type="㇒" transform="matrix(1,0,0,1,1196,-4)" xmlns:kvg="http://kanjivg.tagaini.net"></path><path class="stroke_order_diagram--existing_path" d="M27.25,64C32,66.64,38,75.01,39.25,78.75" id="Ske24etly3x" kvg:type="㇔/㇏" transform="matrix(1,0,0,1,1196,-4)" xmlns:kvg="http://kanjivg.tagaini.net"></path><path class="stroke_order_diagram--existing_path" d="M47.58,19.22c1.06,0.58,1.47,0.47,3.18,0.19c4.46-0.72,4.93-1.79,9.7-2.71c2.83-0.55,3.39,0.5,2.49,3.63c-2.12,7.36-12.56,26.11-25.22,32.73" id="Ske24etly3y" kvg:type="㇇" transform="matrix(1,0,0,1,1196,-4)" xmlns:kvg="http://kanjivg.tagaini.net"></path><path class="stroke_order_diagram--existing_path" d="M45.77,27.29c2.24,1.67,5.78,6.89,6.33,9.49" id="Ske24etly3z" kvg:type="㇔" transform="matrix(1,0,0,1,1196,-4)" xmlns:kvg="http://kanjivg.tagaini.net"></path><path class="stroke_order_diagram--existing_path" d="M81.58,17.63c0.01,0.21,0.03,0.56-0.03,0.86c-0.4,1.82-2.71,5.3-5.87,7.75" id="Ske24etly40" kvg:type="㇒" transform="matrix(1,0,0,1,1196,-4)" xmlns:kvg="http://kanjivg.tagaini.net"></path><path class="stroke_order_diagram--existing_path" d="M64.89,20.36c5.06,3.26,22.39,22.07,26.82,25.86c1.51,1.28,2.8,1.83,4.3,2.2" id="Ske24etly41" kvg:type="㇏" transform="matrix(1,0,0,1,1196,-4)" xmlns:kvg="http://kanjivg.tagaini.net"></path><path class="stroke_order_diagram--existing_path" d="M91.41,25.09c0.03,0.23,0.05,0.59-0.05,0.92c-0.59,1.94-3.97,5.76-8.6,8.37" id="Ske24etly42" kvg:type="㇒" transform="matrix(1,0,0,1,1196,-4)" xmlns:kvg="http://kanjivg.tagaini.net"></path><path class="stroke_order_diagram--existing_path" d="M54.76,44.46c0.66,0.23,1.88,0.29,2.54,0.23c7.09-0.71,12.46-1.41,17.99-1.65c1.1-0.05,1.77,0.11,2.32,0.22" id="Ske24etly43" kvg:type="㇐" transform="matrix(1,0,0,1,1196,-4)" xmlns:kvg="http://kanjivg.tagaini.net"></path><path class="stroke_order_diagram--existing_path" d="M50.73,55.07c0.42,0.35,0.95,0.62,1.03,1.08c0.57,3.36,2.12,9.77,2.98,15.98" id="Ske24etly44" kvg:type="㇑" transform="matrix(1,0,0,1,1196,-4)" xmlns:kvg="http://kanjivg.tagaini.net"></path><path class="stroke_order_diagram--existing_path" d="M52.33,56.16c6.36-0.67,23.41-3.19,27.75-3.29c1.79-0.04,3.01,1.9,2.6,3.86c-0.72,3.51-2.08,7.36-3.3,11.94" id="Ske24etly45" kvg:type="㇕b" transform="matrix(1,0,0,1,1196,-4)" xmlns:kvg="http://kanjivg.tagaini.net"></path><path class="stroke_order_diagram--current_path" d="M55.99,70.9c6.54-0.65,20.73-1.94,25.96-2.2" id="kvg:071c8-s13" kvg:type="㇐b" transform="matrix(1,0,0,1,1196,-4)" xmlns:kvg="http://kanjivg.tagaini.net"></path><path class="stroke_order_diagram--current_path" d="M55.99,70.9c6.54-0.65,20.73-1.94,25.96-2.2" id="Ske24etly47" kvg:type="㇐b" transform="matrix(1,0,0,1,1196,-4)" xmlns:kvg="http://kanjivg.tagaini.net"></path><circle class="stroke_order_diagram--path_start" cx="55.99" cy="70.9" r="4" transform="matrix(1,0,0,1,1196,-4)"></circle><line class="stroke_order_diagram--guide_line" x1="1350" x2="1350" y1="1" y2="99"></line><line class="stroke_order_diagram--bounding_box" x1="1399" x2="1399" y1="1" y2="99"></line><path class="stroke_order_diagram--existing_path" d="M11.24,36.5c1.78,2.33,4.36,8.92,4.84,11.25" id="Ske24etly4a" kvg:type="㇔" transform="matrix(1,0,0,1,1296,-4)" xmlns:kvg="http://kanjivg.tagaini.net"></path><path class="stroke_order_diagram--existing_path" d="M38.58,31.25c0.17,1.25,0.04,2.23-0.61,3.06c-0.64,0.82-6.77,6.77-9.99,8.69" id="Ske24etly4b" kvg:type="㇒" transform="matrix(1,0,0,1,1296,-4)" xmlns:kvg="http://kanjivg.tagaini.net"></path><path class="stroke_order_diagram--existing_path" d="M25.75,15.25c0.76,0.71,1.02,2.17,1.03,3.36C27,67.62,23,76.88,10.5,89.25" id="Ske24etly4c" kvg:type="㇒" transform="matrix(1,0,0,1,1296,-4)" xmlns:kvg="http://kanjivg.tagaini.net"></path><path class="stroke_order_diagram--existing_path" d="M27.25,64C32,66.64,38,75.01,39.25,78.75" id="Ske24etly4d" kvg:type="㇔/㇏" transform="matrix(1,0,0,1,1296,-4)" xmlns:kvg="http://kanjivg.tagaini.net"></path><path class="stroke_order_diagram--existing_path" d="M47.58,19.22c1.06,0.58,1.47,0.47,3.18,0.19c4.46-0.72,4.93-1.79,9.7-2.71c2.83-0.55,3.39,0.5,2.49,3.63c-2.12,7.36-12.56,26.11-25.22,32.73" id="Ske24etly4e" kvg:type="㇇" transform="matrix(1,0,0,1,1296,-4)" xmlns:kvg="http://kanjivg.tagaini.net"></path><path class="stroke_order_diagram--existing_path" d="M45.77,27.29c2.24,1.67,5.78,6.89,6.33,9.49" id="Ske24etly4f" kvg:type="㇔" transform="matrix(1,0,0,1,1296,-4)" xmlns:kvg="http://kanjivg.tagaini.net"></path><path class="stroke_order_diagram--existing_path" d="M81.58,17.63c0.01,0.21,0.03,0.56-0.03,0.86c-0.4,1.82-2.71,5.3-5.87,7.75" id="Ske24etly4g" kvg:type="㇒" transform="matrix(1,0,0,1,1296,-4)" xmlns:kvg="http://kanjivg.tagaini.net"></path><path class="stroke_order_diagram--existing_path" d="M64.89,20.36c5.06,3.26,22.39,22.07,26.82,25.86c1.51,1.28,2.8,1.83,4.3,2.2" id="Ske24etly4h" kvg:type="㇏" transform="matrix(1,0,0,1,1296,-4)" xmlns:kvg="http://kanjivg.tagaini.net"></path><path class="stroke_order_diagram--existing_path" d="M91.41,25.09c0.03,0.23,0.05,0.59-0.05,0.92c-0.59,1.94-3.97,5.76-8.6,8.37" id="Ske24etly4i" kvg:type="㇒" transform="matrix(1,0,0,1,1296,-4)" xmlns:kvg="http://kanjivg.tagaini.net"></path><path class="stroke_order_diagram--existing_path" d="M54.76,44.46c0.66,0.23,1.88,0.29,2.54,0.23c7.09-0.71,12.46-1.41,17.99-1.65c1.1-0.05,1.77,0.11,2.32,0.22" id="Ske24etly4j" kvg:type="㇐" transform="matrix(1,0,0,1,1296,-4)" xmlns:kvg="http://kanjivg.tagaini.net"></path><path class="stroke_order_diagram--existing_path" d="M50.73,55.07c0.42,0.35,0.95,0.62,1.03,1.08c0.57,3.36,2.12,9.77,2.98,15.98" id="Ske24etly4k" kvg:type="㇑" transform="matrix(1,0,0,1,1296,-4)" xmlns:kvg="http://kanjivg.tagaini.net"></path><path class="stroke_order_diagram--existing_path" d="M52.33,56.16c6.36-0.67,23.41-3.19,27.75-3.29c1.79-0.04,3.01,1.9,2.6,3.86c-0.72,3.51-2.08,7.36-3.3,11.94" id="Ske24etly4l" kvg:type="㇕b" transform="matrix(1,0,0,1,1296,-4)" xmlns:kvg="http://kanjivg.tagaini.net"></path><path class="stroke_order_diagram--existing_path" d="M55.99,70.9c6.54-0.65,20.73-1.94,25.96-2.2" id="Ske24etly4m" kvg:type="㇐b" transform="matrix(1,0,0,1,1296,-4)" xmlns:kvg="http://kanjivg.tagaini.net"></path><path class="stroke_order_diagram--current_path" d="M53.58,76.18c2.06,2.4,5.28,8.51,5.8,12.23" id="kvg:071c8-s14" kvg:type="㇔" transform="matrix(1,0,0,1,1296,-4)" xmlns:kvg="http://kanjivg.tagaini.net"></path><path class="stroke_order_diagram--current_path" d="M53.58,76.18c2.06,2.4,5.28,8.51,5.8,12.23" id="Ske24etly4o" kvg:type="㇔" transform="matrix(1,0,0,1,1296,-4)" xmlns:kvg="http://kanjivg.tagaini.net"></path><circle class="stroke_order_diagram--path_start" cx="53.58" cy="76.18" r="4" transform="matrix(1,0,0,1,1296,-4)"></circle><line class="stroke_order_diagram--guide_line" x1="1450" x2="1450" y1="1" y2="99"></line><line class="stroke_order_diagram--bounding_box" x1="1499" x2="1499" y1="1" y2="99"></line><path class="stroke_order_diagram--existing_path" d="M11.24,36.5c1.78,2.33,4.36,8.92,4.84,11.25" id="Ske24etly4r" kvg:type="㇔" transform="matrix(1,0,0,1,1396,-4)" xmlns:kvg="http://kanjivg.tagaini.net"></path><path class="stroke_order_diagram--existing_path" d="M38.58,31.25c0.17,1.25,0.04,2.23-0.61,3.06c-0.64,0.82-6.77,6.77-9.99,8.69" id="Ske24etly4s" kvg:type="㇒" transform="matrix(1,0,0,1,1396,-4)" xmlns:kvg="http://kanjivg.tagaini.net"></path><path class="stroke_order_diagram--existing_path" d="M25.75,15.25c0.76,0.71,1.02,2.17,1.03,3.36C27,67.62,23,76.88,10.5,89.25" id="Ske24etly4t" kvg:type="㇒" transform="matrix(1,0,0,1,1396,-4)" xmlns:kvg="http://kanjivg.tagaini.net"></path><path class="stroke_order_diagram--existing_path" d="M27.25,64C32,66.64,38,75.01,39.25,78.75" id="Ske24etly4u" kvg:type="㇔/㇏" transform="matrix(1,0,0,1,1396,-4)" xmlns:kvg="http://kanjivg.tagaini.net"></path><path class="stroke_order_diagram--existing_path" d="M47.58,19.22c1.06,0.58,1.47,0.47,3.18,0.19c4.46-0.72,4.93-1.79,9.7-2.71c2.83-0.55,3.39,0.5,2.49,3.63c-2.12,7.36-12.56,26.11-25.22,32.73" id="Ske24etly4v" kvg:type="㇇" transform="matrix(1,0,0,1,1396,-4)" xmlns:kvg="http://kanjivg.tagaini.net"></path><path class="stroke_order_diagram--existing_path" d="M45.77,27.29c2.24,1.67,5.78,6.89,6.33,9.49" id="Ske24etly4w" kvg:type="㇔" transform="matrix(1,0,0,1,1396,-4)" xmlns:kvg="http://kanjivg.tagaini.net"></path><path class="stroke_order_diagram--existing_path" d="M81.58,17.63c0.01,0.21,0.03,0.56-0.03,0.86c-0.4,1.82-2.71,5.3-5.87,7.75" id="Ske24etly4x" kvg:type="㇒" transform="matrix(1,0,0,1,1396,-4)" xmlns:kvg="http://kanjivg.tagaini.net"></path><path class="stroke_order_diagram--existing_path" d="M64.89,20.36c5.06,3.26,22.39,22.07,26.82,25.86c1.51,1.28,2.8,1.83,4.3,2.2" id="Ske24etly4y" kvg:type="㇏" transform="matrix(1,0,0,1,1396,-4)" xmlns:kvg="http://kanjivg.tagaini.net"></path><path class="stroke_order_diagram--existing_path" d="M91.41,25.09c0.03,0.23,0.05,0.59-0.05,0.92c-0.59,1.94-3.97,5.76-8.6,8.37" id="Ske24etly4z" kvg:type="㇒" transform="matrix(1,0,0,1,1396,-4)" xmlns:kvg="http://kanjivg.tagaini.net"></path><path class="stroke_order_diagram--existing_path" d="M54.76,44.46c0.66,0.23,1.88,0.29,2.54,0.23c7.09-0.71,12.46-1.41,17.99-1.65c1.1-0.05,1.77,0.11,2.32,0.22" id="Ske24etly50" kvg:type="㇐" transform="matrix(1,0,0,1,1396,-4)" xmlns:kvg="http://kanjivg.tagaini.net"></path><path class="stroke_order_diagram--existing_path" d="M50.73,55.07c0.42,0.35,0.95,0.62,1.03,1.08c0.57,3.36,2.12,9.77,2.98,15.98" id="Ske24etly51" kvg:type="㇑" transform="matrix(1,0,0,1,1396,-4)" xmlns:kvg="http://kanjivg.tagaini.net"></path><path class="stroke_order_diagram--existing_path" d="M52.33,56.16c6.36-0.67,23.41-3.19,27.75-3.29c1.79-0.04,3.01,1.9,2.6,3.86c-0.72,3.51-2.08,7.36-3.3,11.94" id="Ske24etly52" kvg:type="㇕b" transform="matrix(1,0,0,1,1396,-4)" xmlns:kvg="http://kanjivg.tagaini.net"></path><path class="stroke_order_diagram--existing_path" d="M55.99,70.9c6.54-0.65,20.73-1.94,25.96-2.2" id="Ske24etly53" kvg:type="㇐b" transform="matrix(1,0,0,1,1396,-4)" xmlns:kvg="http://kanjivg.tagaini.net"></path><path class="stroke_order_diagram--existing_path" d="M53.58,76.18c2.06,2.4,5.28,8.51,5.8,12.23" id="Ske24etly54" kvg:type="㇔" transform="matrix(1,0,0,1,1396,-4)" xmlns:kvg="http://kanjivg.tagaini.net"></path><path class="stroke_order_diagram--current_path" d="M78.48,74.07c0.02,0.35,0.04,0.9-0.04,1.4c-0.43,2.94-2.89,9.41-6.25,13.37" id="kvg:071c8-s15" kvg:type="㇒" transform="matrix(1,0,0,1,1396,-4)" xmlns:kvg="http://kanjivg.tagaini.net"></path><path class="stroke_order_diagram--current_path" d="M78.48,74.07c0.02,0.35,0.04,0.9-0.04,1.4c-0.43,2.94-2.89,9.41-6.25,13.37" id="Ske24etly56" kvg:type="㇒" transform="matrix(1,0,0,1,1396,-4)" xmlns:kvg="http://kanjivg.tagaini.net"></path><circle class="stroke_order_diagram--path_start" cx="78.48" cy="74.07" r="4" transform="matrix(1,0,0,1,1396,-4)"></circle><line class="stroke_order_diagram--guide_line" x1="1550" x2="1550" y1="1" y2="99"></line><line class="stroke_order_diagram--bounding_box" x1="1599" x2="1599" y1="1" y2="99"></line><path class="stroke_order_diagram--existing_path" d="M11.24,36.5c1.78,2.33,4.36,8.92,4.84,11.25" id="Ske24etly59" kvg:type="㇔" transform="matrix(1,0,0,1,1496,-4)" xmlns:kvg="http://kanjivg.tagaini.net"></path><path class="stroke_order_diagram--existing_path" d="M38.58,31.25c0.17,1.25,0.04,2.23-0.61,3.06c-0.64,0.82-6.77,6.77-9.99,8.69" id="Ske24etly5a" kvg:type="㇒" transform="matrix(1,0,0,1,1496,-4)" xmlns:kvg="http://kanjivg.tagaini.net"></path><path class="stroke_order_diagram--existing_path" d="M25.75,15.25c0.76,0.71,1.02,2.17,1.03,3.36C27,67.62,23,76.88,10.5,89.25" id="Ske24etly5b" kvg:type="㇒" transform="matrix(1,0,0,1,1496,-4)" xmlns:kvg="http://kanjivg.tagaini.net"></path><path class="stroke_order_diagram--existing_path" d="M27.25,64C32,66.64,38,75.01,39.25,78.75" id="Ske24etly5c" kvg:type="㇔/㇏" transform="matrix(1,0,0,1,1496,-4)" xmlns:kvg="http://kanjivg.tagaini.net"></path><path class="stroke_order_diagram--existing_path" d="M47.58,19.22c1.06,0.58,1.47,0.47,3.18,0.19c4.46-0.72,4.93-1.79,9.7-2.71c2.83-0.55,3.39,0.5,2.49,3.63c-2.12,7.36-12.56,26.11-25.22,32.73" id="Ske24etly5d" kvg:type="㇇" transform="matrix(1,0,0,1,1496,-4)" xmlns:kvg="http://kanjivg.tagaini.net"></path><path class="stroke_order_diagram--existing_path" d="M45.77,27.29c2.24,1.67,5.78,6.89,6.33,9.49" id="Ske24etly5e" kvg:type="㇔" transform="matrix(1,0,0,1,1496,-4)" xmlns:kvg="http://kanjivg.tagaini.net"></path><path class="stroke_order_diagram--existing_path" d="M81.58,17.63c0.01,0.21,0.03,0.56-0.03,0.86c-0.4,1.82-2.71,5.3-5.87,7.75" id="Ske24etly5f" kvg:type="㇒" transform="matrix(1,0,0,1,1496,-4)" xmlns:kvg="http://kanjivg.tagaini.net"></path><path class="stroke_order_diagram--existing_path" d="M64.89,20.36c5.06,3.26,22.39,22.07,26.82,25.86c1.51,1.28,2.8,1.83,4.3,2.2" id="Ske24etly5g" kvg:type="㇏" transform="matrix(1,0,0,1,1496,-4)" xmlns:kvg="http://kanjivg.tagaini.net"></path><path class="stroke_order_diagram--existing_path" d="M91.41,25.09c0.03,0.23,0.05,0.59-0.05,0.92c-0.59,1.94-3.97,5.76-8.6,8.37" id="Ske24etly5h" kvg:type="㇒" transform="matrix(1,0,0,1,1496,-4)" xmlns:kvg="http://kanjivg.tagaini.net"></path><path class="stroke_order_diagram--existing_path" d="M54.76,44.46c0.66,0.23,1.88,0.29,2.54,0.23c7.09-0.71,12.46-1.41,17.99-1.65c1.1-0.05,1.77,0.11,2.32,0.22" id="Ske24etly5i" kvg:type="㇐" transform="matrix(1,0,0,1,1496,-4)" xmlns:kvg="http://kanjivg.tagaini.net"></path><path class="stroke_order_diagram--existing_path" d="M50.73,55.07c0.42,0.35,0.95,0.62,1.03,1.08c0.57,3.36,2.12,9.77,2.98,15.98" id="Ske24etly5j" kvg:type="㇑" transform="matrix(1,0,0,1,1496,-4)" xmlns:kvg="http://kanjivg.tagaini.net"></path><path class="stroke_order_diagram--existing_path" d="M52.33,56.16c6.36-0.67,23.41-3.19,27.75-3.29c1.79-0.04,3.01,1.9,2.6,3.86c-0.72,3.51-2.08,7.36-3.3,11.94" id="Ske24etly5k" kvg:type="㇕b" transform="matrix(1,0,0,1,1496,-4)" xmlns:kvg="http://kanjivg.tagaini.net"></path><path class="stroke_order_diagram--existing_path" d="M55.99,70.9c6.54-0.65,20.73-1.94,25.96-2.2" id="Ske24etly5l" kvg:type="㇐b" transform="matrix(1,0,0,1,1496,-4)" xmlns:kvg="http://kanjivg.tagaini.net"></path><path class="stroke_order_diagram--existing_path" d="M53.58,76.18c2.06,2.4,5.28,8.51,5.8,12.23" id="Ske24etly5m" kvg:type="㇔" transform="matrix(1,0,0,1,1496,-4)" xmlns:kvg="http://kanjivg.tagaini.net"></path><path class="stroke_order_diagram--existing_path" d="M78.48,74.07c0.02,0.35,0.04,0.9-0.04,1.4c-0.43,2.94-2.89,9.41-6.25,13.37" id="Ske24etly5n" kvg:type="㇒" transform="matrix(1,0,0,1,1496,-4)" xmlns:kvg="http://kanjivg.tagaini.net"></path><path class="stroke_order_diagram--current_path" d="M41.53,92.33c1.05,0.48,2.97,0.55,4.02,0.48c10.91-0.8,33.37-3.04,44.98-3.37c1.75-0.05,2.79,0.23,3.67,0.47" id="kvg:071c8-s16" kvg:type="㇐" transform="matrix(1,0,0,1,1496,-4)" xmlns:kvg="http://kanjivg.tagaini.net"></path><path class="stroke_order_diagram--current_path" d="M41.53,92.33c1.05,0.48,2.97,0.55,4.02,0.48c10.91-0.8,33.37-3.04,44.98-3.37c1.75-0.05,2.79,0.23,3.67,0.47" id="Ske24etly5p" kvg:type="㇐" transform="matrix(1,0,0,1,1496,-4)" xmlns:kvg="http://kanjivg.tagaini.net"></path><circle class="stroke_order_diagram--path_start" cx="41.53" cy="92.33" r="4" transform="matrix(1,0,0,1,1496,-4)"></circle></svg>