<svg class="stroke_order_diagram--svg_container_for_518662b0d5dda79658001182" style="height: 100px; width: 400px;" viewbox="0 0 400 100"><desc>Created with Snap</desc><defs></defs><line class="stroke_order_diagram--bounding_box" x1="1" x2="399" y1="1" y2="1"></line><line class="stroke_order_diagram--bounding_box" x1="1" x2="1" y1="1" y2="99"></line><line class="stroke_order_diagram--bounding_box" x1="1" x2="399" y1="99" y2="99"></line><line class="stroke_order_diagram--guide_line" x1="0" x2="400" y1="50" y2="50"></line><line class="stroke_order_diagram--guide_line" x1="50" x2="50" y1="1" y2="99"></line><line class="stroke_order_diagram--bounding_box" x1="99" x2="99" y1="1" y2="99"></line><path class="stroke_order_diagram--current_path" d="M66.96,8.29c1.29,1.46,2.11,3.96,2.11,5.68c0,16.51-0.04,81.46-0.04,87.08" id="kvg:0723f-s1" kvg:type="㇄" transform="matrix(1,0,0,1,-4,-4)" xmlns:kvg="http://kanjivg.tagaini.net"></path><path class="stroke_order_diagram--current_path" d="M66.96,8.29c1.29,1.46,2.11,3.96,2.11,5.68c0,16.51-0.04,81.46-0.04,87.08" id="Ske2q5aspd" kvg:type="㇄" transform="matrix(1,0,0,1,-4,-4)" xmlns:kvg="http://kanjivg.tagaini.net"></path><circle class="stroke_order_diagram--path_start" cx="66.96" cy="8.29" r="4" transform="matrix(1,0,0,1,-4,-4)"></circle><line class="stroke_order_diagram--guide_line" x1="150" x2="150" y1="1" y2="99"></line><line class="stroke_order_diagram--bounding_box" x1="199" x2="199" y1="1" y2="99"></line><path class="stroke_order_diagram--existing_path" d="M66.96,8.29c1.29,1.46,2.11,3.96,2.11,5.68c0,16.51-0.04,81.46-0.04,87.08" id="Ske2q5aspg" kvg:type="㇄" transform="matrix(1,0,0,1,96,-4)" xmlns:kvg="http://kanjivg.tagaini.net"></path><path class="stroke_order_diagram--current_path" d="M37.24,13.43c1.57,0.73,2.17,1.58,2.3,3.99c0.2,3.61-0.85,18.91-1.33,22.7c-0.16,1.21,0.27,3.01,2.61,2.82c8.24-0.66,18.16-2.42,27.7-2.95" id="kvg:0723f-s2" kvg:type="㇐" transform="matrix(1,0,0,1,96,-4)" xmlns:kvg="http://kanjivg.tagaini.net"></path><path class="stroke_order_diagram--current_path" d="M37.24,13.43c1.57,0.73,2.17,1.58,2.3,3.99c0.2,3.61-0.85,18.91-1.33,22.7c-0.16,1.21,0.27,3.01,2.61,2.82c8.24-0.66,18.16-2.42,27.7-2.95" id="Ske2q5aspi" kvg:type="㇐" transform="matrix(1,0,0,1,96,-4)" xmlns:kvg="http://kanjivg.tagaini.net"></path><circle class="stroke_order_diagram--path_start" cx="37.24" cy="13.43" r="4" transform="matrix(1,0,0,1,96,-4)"></circle><line class="stroke_order_diagram--guide_line" x1="250" x2="250" y1="1" y2="99"></line><line class="stroke_order_diagram--bounding_box" x1="299" x2="299" y1="1" y2="99"></line><path class="stroke_order_diagram--existing_path" d="M66.96,8.29c1.29,1.46,2.11,3.96,2.11,5.68c0,16.51-0.04,81.46-0.04,87.08" id="Ske2q5aspl" kvg:type="㇄" transform="matrix(1,0,0,1,196,-4)" xmlns:kvg="http://kanjivg.tagaini.net"></path><path class="stroke_order_diagram--existing_path" d="M37.24,13.43c1.57,0.73,2.17,1.58,2.3,3.99c0.2,3.61-0.85,18.91-1.33,22.7c-0.16,1.21,0.27,3.01,2.61,2.82c8.24-0.66,18.16-2.42,27.7-2.95" id="Ske2q5aspm" kvg:type="㇐" transform="matrix(1,0,0,1,196,-4)" xmlns:kvg="http://kanjivg.tagaini.net"></path><path class="stroke_order_diagram--current_path" d="M25.55,63.43c2.23,0.2,2.69,0.8,5.3,0.67c11.15-0.6,29.62-2.74,37.41-3.07" id="kvg:0723f-s3" kvg:type="㇒" transform="matrix(1,0,0,1,196,-4)" xmlns:kvg="http://kanjivg.tagaini.net"></path><path class="stroke_order_diagram--current_path" d="M25.55,63.43c2.23,0.2,2.69,0.8,5.3,0.67c11.15-0.6,29.62-2.74,37.41-3.07" id="Ske2q5aspo" kvg:type="㇒" transform="matrix(1,0,0,1,196,-4)" xmlns:kvg="http://kanjivg.tagaini.net"></path><circle class="stroke_order_diagram--path_start" cx="25.55" cy="63.43" r="4" transform="matrix(1,0,0,1,196,-4)"></circle><line class="stroke_order_diagram--guide_line" x1="350" x2="350" y1="1" y2="99"></line><line class="stroke_order_diagram--bounding_box" x1="399" x2="399" y1="1" y2="99"></line><path class="stroke_order_diagram--existing_path" d="M66.96,8.29c1.29,1.46,2.11,3.96,2.11,5.68c0,16.51-0.04,81.46-0.04,87.08" id="Ske2q5aspr" kvg:type="㇄" transform="matrix(1,0,0,1,296,-4)" xmlns:kvg="http://kanjivg.tagaini.net"></path><path class="stroke_order_diagram--existing_path" d="M37.24,13.43c1.57,0.73,2.17,1.58,2.3,3.99c0.2,3.61-0.85,18.91-1.33,22.7c-0.16,1.21,0.27,3.01,2.61,2.82c8.24-0.66,18.16-2.42,27.7-2.95" id="Ske2q5asps" kvg:type="㇐" transform="matrix(1,0,0,1,296,-4)" xmlns:kvg="http://kanjivg.tagaini.net"></path><path class="stroke_order_diagram--existing_path" d="M25.55,63.43c2.23,0.2,2.69,0.8,5.3,0.67c11.15-0.6,29.62-2.74,37.41-3.07" id="Ske2q5aspt" kvg:type="㇒" transform="matrix(1,0,0,1,296,-4)" xmlns:kvg="http://kanjivg.tagaini.net"></path><path class="stroke_order_diagram--current_path" d="M45.75,66.64c0.06,0.79,0.05,2.03-0.11,3.18C44.5,78,41.25,92,26.31,100.22" id="kvg:0723f-s4" kvg:type="㇑" transform="matrix(1,0,0,1,296,-4)" xmlns:kvg="http://kanjivg.tagaini.net"></path><path class="stroke_order_diagram--current_path" d="M45.75,66.64c0.06,0.79,0.05,2.03-0.11,3.18C44.5,78,41.25,92,26.31,100.22" id="Ske2q5aspv" kvg:type="㇑" transform="matrix(1,0,0,1,296,-4)" xmlns:kvg="http://kanjivg.tagaini.net"></path><circle class="stroke_order_diagram--path_start" cx="45.75" cy="66.64" r="4" transform="matrix(1,0,0,1,296,-4)"></circle></svg>