<svg class="stroke_order_diagram--svg_container_for_518662b0d5dda79658001191" style="height: 100px; width: 600px;" viewbox="0 0 600 100"><desc>Created with Snap</desc><defs></defs><line class="stroke_order_diagram--bounding_box" x1="1" x2="599" y1="1" y2="1"></line><line class="stroke_order_diagram--bounding_box" x1="1" x2="1" y1="1" y2="99"></line><line class="stroke_order_diagram--bounding_box" x1="1" x2="599" y1="99" y2="99"></line><line class="stroke_order_diagram--guide_line" x1="0" x2="600" y1="50" y2="50"></line><line class="stroke_order_diagram--guide_line" x1="50" x2="50" y1="1" y2="99"></line><line class="stroke_order_diagram--bounding_box" x1="99" x2="99" y1="1" y2="99"></line><path class="stroke_order_diagram--current_path" d="M39.29,17c0.07,0.53,0.31,1.56-0.14,2.13c-5.77,7.32-11.64,12.5-25.66,20.41" id="kvg:072b2-s1" kvg:type="㇒" transform="matrix(1,0,0,1,-4,-4)" xmlns:kvg="http://kanjivg.tagaini.net"></path><path class="stroke_order_diagram--current_path" d="M39.29,17c0.07,0.53,0.31,1.56-0.14,2.13c-5.77,7.32-11.64,12.5-25.66,20.41" id="Ske2q9j4kf" kvg:type="㇒" transform="matrix(1,0,0,1,-4,-4)" xmlns:kvg="http://kanjivg.tagaini.net"></path><circle class="stroke_order_diagram--path_start" cx="39.29" cy="17" r="4" transform="matrix(1,0,0,1,-4,-4)"></circle><line class="stroke_order_diagram--guide_line" x1="150" x2="150" y1="1" y2="99"></line><line class="stroke_order_diagram--bounding_box" x1="199" x2="199" y1="1" y2="99"></line><path class="stroke_order_diagram--existing_path" d="M39.29,17c0.07,0.53,0.31,1.56-0.14,2.13c-5.77,7.32-11.64,12.5-25.66,20.41" id="Ske2q9j4ki" kvg:type="㇒" transform="matrix(1,0,0,1,96,-4)" xmlns:kvg="http://kanjivg.tagaini.net"></path><path class="stroke_order_diagram--current_path" d="M20.5,17.5C46.25,38.25,40,103,24,89" id="kvg:072b2-s2" kvg:type="㇕va" transform="matrix(1,0,0,1,96,-4)" xmlns:kvg="http://kanjivg.tagaini.net"></path><path class="stroke_order_diagram--current_path" d="M20.5,17.5C46.25,38.25,40,103,24,89" id="Ske2q9j4kk" kvg:type="㇕va" transform="matrix(1,0,0,1,96,-4)" xmlns:kvg="http://kanjivg.tagaini.net"></path><circle class="stroke_order_diagram--path_start" cx="20.5" cy="17.5" r="4" transform="matrix(1,0,0,1,96,-4)"></circle><line class="stroke_order_diagram--guide_line" x1="250" x2="250" y1="1" y2="99"></line><line class="stroke_order_diagram--bounding_box" x1="299" x2="299" y1="1" y2="99"></line><path class="stroke_order_diagram--existing_path" d="M39.29,17c0.07,0.53,0.31,1.56-0.14,2.13c-5.77,7.32-11.64,12.5-25.66,20.41" id="Ske2q9j4kn" kvg:type="㇒" transform="matrix(1,0,0,1,196,-4)" xmlns:kvg="http://kanjivg.tagaini.net"></path><path class="stroke_order_diagram--existing_path" d="M20.5,17.5C46.25,38.25,40,103,24,89" id="Ske2q9j4ko" kvg:type="㇕va" transform="matrix(1,0,0,1,196,-4)" xmlns:kvg="http://kanjivg.tagaini.net"></path><path class="stroke_order_diagram--current_path" d="M32.33,42c0.05,0.67,0.22,1.96-0.1,2.68c-4.05,9.19-8.16,15.68-17.99,25.62" id="kvg:072b2-s3" kvg:type="㇒" transform="matrix(1,0,0,1,196,-4)" xmlns:kvg="http://kanjivg.tagaini.net"></path><path class="stroke_order_diagram--current_path" d="M32.33,42c0.05,0.67,0.22,1.96-0.1,2.68c-4.05,9.19-8.16,15.68-17.99,25.62" id="Ske2q9j4kq" kvg:type="㇒" transform="matrix(1,0,0,1,196,-4)" xmlns:kvg="http://kanjivg.tagaini.net"></path><circle class="stroke_order_diagram--path_start" cx="32.33" cy="42" r="4" transform="matrix(1,0,0,1,196,-4)"></circle><line class="stroke_order_diagram--guide_line" x1="350" x2="350" y1="1" y2="99"></line><line class="stroke_order_diagram--bounding_box" x1="399" x2="399" y1="1" y2="99"></line><path class="stroke_order_diagram--existing_path" d="M39.29,17c0.07,0.53,0.31,1.56-0.14,2.13c-5.77,7.32-11.64,12.5-25.66,20.41" id="Ske2q9j4kt" kvg:type="㇒" transform="matrix(1,0,0,1,296,-4)" xmlns:kvg="http://kanjivg.tagaini.net"></path><path class="stroke_order_diagram--existing_path" d="M20.5,17.5C46.25,38.25,40,103,24,89" id="Ske2q9j4ku" kvg:type="㇕va" transform="matrix(1,0,0,1,296,-4)" xmlns:kvg="http://kanjivg.tagaini.net"></path><path class="stroke_order_diagram--existing_path" d="M32.33,42c0.05,0.67,0.22,1.96-0.1,2.68c-4.05,9.19-8.16,15.68-17.99,25.62" id="Ske2q9j4kv" kvg:type="㇒" transform="matrix(1,0,0,1,296,-4)" xmlns:kvg="http://kanjivg.tagaini.net"></path><path class="stroke_order_diagram--current_path" d="M46.75,38.5c1.2,0,3.24,0.4,5.59,0.25C64.4,38,77.42,36.5,93.59,35.25c2.34-0.18,3.91,0,5.41,0.5" id="kvg:072b2-s4" kvg:type="㇐" transform="matrix(1,0,0,1,296,-4)" xmlns:kvg="http://kanjivg.tagaini.net"></path><path class="stroke_order_diagram--current_path" d="M46.75,38.5c1.2,0,3.24,0.4,5.59,0.25C64.4,38,77.42,36.5,93.59,35.25c2.34-0.18,3.91,0,5.41,0.5" id="Ske2q9j4kx" kvg:type="㇐" transform="matrix(1,0,0,1,296,-4)" xmlns:kvg="http://kanjivg.tagaini.net"></path><circle class="stroke_order_diagram--path_start" cx="46.75" cy="38.5" r="4" transform="matrix(1,0,0,1,296,-4)"></circle><line class="stroke_order_diagram--guide_line" x1="450" x2="450" y1="1" y2="99"></line><line class="stroke_order_diagram--bounding_box" x1="499" x2="499" y1="1" y2="99"></line><path class="stroke_order_diagram--existing_path" d="M39.29,17c0.07,0.53,0.31,1.56-0.14,2.13c-5.77,7.32-11.64,12.5-25.66,20.41" id="Ske2q9j4k10" kvg:type="㇒" transform="matrix(1,0,0,1,396,-4)" xmlns:kvg="http://kanjivg.tagaini.net"></path><path class="stroke_order_diagram--existing_path" d="M20.5,17.5C46.25,38.25,40,103,24,89" id="Ske2q9j4k11" kvg:type="㇕va" transform="matrix(1,0,0,1,396,-4)" xmlns:kvg="http://kanjivg.tagaini.net"></path><path class="stroke_order_diagram--existing_path" d="M32.33,42c0.05,0.67,0.22,1.96-0.1,2.68c-4.05,9.19-8.16,15.68-17.99,25.62" id="Ske2q9j4k12" kvg:type="㇒" transform="matrix(1,0,0,1,396,-4)" xmlns:kvg="http://kanjivg.tagaini.net"></path><path class="stroke_order_diagram--existing_path" d="M46.75,38.5c1.2,0,3.24,0.4,5.59,0.25C64.4,38,77.42,36.5,93.59,35.25c2.34-0.18,3.91,0,5.41,0.5" id="Ske2q9j4k13" kvg:type="㇐" transform="matrix(1,0,0,1,396,-4)" xmlns:kvg="http://kanjivg.tagaini.net"></path><path class="stroke_order_diagram--current_path" d="M77.77,12.83c1.23,0.92,2.17,2.49,2.26,5.52c0.4,14.55-0.26,67.66-0.26,72.62c0,8.78-7.21,0.5-8.71-0.75" id="kvg:072b2-s5" kvg:type="㇚" transform="matrix(1,0,0,1,396,-4)" xmlns:kvg="http://kanjivg.tagaini.net"></path><path class="stroke_order_diagram--current_path" d="M77.77,12.83c1.23,0.92,2.17,2.49,2.26,5.52c0.4,14.55-0.26,67.66-0.26,72.62c0,8.78-7.21,0.5-8.71-0.75" id="Ske2q9j4k15" kvg:type="㇚" transform="matrix(1,0,0,1,396,-4)" xmlns:kvg="http://kanjivg.tagaini.net"></path><circle class="stroke_order_diagram--path_start" cx="77.77" cy="12.83" r="4" transform="matrix(1,0,0,1,396,-4)"></circle><line class="stroke_order_diagram--guide_line" x1="550" x2="550" y1="1" y2="99"></line><line class="stroke_order_diagram--bounding_box" x1="599" x2="599" y1="1" y2="99"></line><path class="stroke_order_diagram--existing_path" d="M39.29,17c0.07,0.53,0.31,1.56-0.14,2.13c-5.77,7.32-11.64,12.5-25.66,20.41" id="Ske2q9j4k18" kvg:type="㇒" transform="matrix(1,0,0,1,496,-4)" xmlns:kvg="http://kanjivg.tagaini.net"></path><path class="stroke_order_diagram--existing_path" d="M20.5,17.5C46.25,38.25,40,103,24,89" id="Ske2q9j4k19" kvg:type="㇕va" transform="matrix(1,0,0,1,496,-4)" xmlns:kvg="http://kanjivg.tagaini.net"></path><path class="stroke_order_diagram--existing_path" d="M32.33,42c0.05,0.67,0.22,1.96-0.1,2.68c-4.05,9.19-8.16,15.68-17.99,25.62" id="Ske2q9j4k1a" kvg:type="㇒" transform="matrix(1,0,0,1,496,-4)" xmlns:kvg="http://kanjivg.tagaini.net"></path><path class="stroke_order_diagram--existing_path" d="M46.75,38.5c1.2,0,3.24,0.4,5.59,0.25C64.4,38,77.42,36.5,93.59,35.25c2.34-0.18,3.91,0,5.41,0.5" id="Ske2q9j4k1b" kvg:type="㇐" transform="matrix(1,0,0,1,496,-4)" xmlns:kvg="http://kanjivg.tagaini.net"></path><path class="stroke_order_diagram--existing_path" d="M77.77,12.83c1.23,0.92,2.17,2.49,2.26,5.52c0.4,14.55-0.26,67.66-0.26,72.62c0,8.78-7.21,0.5-8.71-0.75" id="Ske2q9j4k1c" kvg:type="㇚" transform="matrix(1,0,0,1,496,-4)" xmlns:kvg="http://kanjivg.tagaini.net"></path><path class="stroke_order_diagram--current_path" d="M79.29,36.5c-0.54,1.5-0.8,1.29-1.19,2.85c-2.29,9.17-15.46,29.28-33.48,41.59" id="kvg:072b2-s6" kvg:type="㇒" transform="matrix(1,0,0,1,496,-4)" xmlns:kvg="http://kanjivg.tagaini.net"></path><path class="stroke_order_diagram--current_path" d="M79.29,36.5c-0.54,1.5-0.8,1.29-1.19,2.85c-2.29,9.17-15.46,29.28-33.48,41.59" id="Ske2q9j4k1e" kvg:type="㇒" transform="matrix(1,0,0,1,496,-4)" xmlns:kvg="http://kanjivg.tagaini.net"></path><circle class="stroke_order_diagram--path_start" cx="79.29" cy="36.5" r="4" transform="matrix(1,0,0,1,496,-4)"></circle></svg>