<svg class="stroke_order_diagram--svg_container_for_5186629dd5dda79658000b77" style="height: 100px; width: 1000px;" viewbox="0 0 1000 100"><desc>Created with Snap</desc><defs></defs><line class="stroke_order_diagram--bounding_box" x1="1" x2="999" y1="1" y2="1"></line><line class="stroke_order_diagram--bounding_box" x1="1" x2="1" y1="1" y2="99"></line><line class="stroke_order_diagram--bounding_box" x1="1" x2="999" y1="99" y2="99"></line><line class="stroke_order_diagram--guide_line" x1="0" x2="1000" y1="50" y2="50"></line><line class="stroke_order_diagram--guide_line" x1="50" x2="50" y1="1" y2="99"></line><line class="stroke_order_diagram--bounding_box" x1="99" x2="99" y1="1" y2="99"></line><path class="stroke_order_diagram--current_path" d="M36.31,15c0.06,0.63,0.27,1.85-0.12,2.53C31.2,26.23,26.13,32.39,14,41.79" id="kvg:072fc-s1" kvg:type="㇒" transform="matrix(1,0,0,1,-4,-4)" xmlns:kvg="http://kanjivg.tagaini.net"></path><path class="stroke_order_diagram--current_path" d="M36.31,15c0.06,0.63,0.27,1.85-0.12,2.53C31.2,26.23,26.13,32.39,14,41.79" id="Ske2bi5nij" kvg:type="㇒" transform="matrix(1,0,0,1,-4,-4)" xmlns:kvg="http://kanjivg.tagaini.net"></path><circle class="stroke_order_diagram--path_start" cx="36.31" cy="15" r="4" transform="matrix(1,0,0,1,-4,-4)"></circle><line class="stroke_order_diagram--guide_line" x1="150" x2="150" y1="1" y2="99"></line><line class="stroke_order_diagram--bounding_box" x1="199" x2="199" y1="1" y2="99"></line><path class="stroke_order_diagram--existing_path" d="M36.31,15c0.06,0.63,0.27,1.85-0.12,2.53C31.2,26.23,26.13,32.39,14,41.79" id="Ske2bi5nim" kvg:type="㇒" transform="matrix(1,0,0,1,96,-4)" xmlns:kvg="http://kanjivg.tagaini.net"></path><path class="stroke_order_diagram--current_path" d="M18,21c28.75,24,15.75,81.5,5,69.5" id="kvg:072fc-s2" kvg:type="㇕va" transform="matrix(1,0,0,1,96,-4)" xmlns:kvg="http://kanjivg.tagaini.net"></path><path class="stroke_order_diagram--current_path" d="M18,21c28.75,24,15.75,81.5,5,69.5" id="Ske2bi5nio" kvg:type="㇕va" transform="matrix(1,0,0,1,96,-4)" xmlns:kvg="http://kanjivg.tagaini.net"></path><circle class="stroke_order_diagram--path_start" cx="18" cy="21" r="4" transform="matrix(1,0,0,1,96,-4)"></circle><line class="stroke_order_diagram--guide_line" x1="250" x2="250" y1="1" y2="99"></line><line class="stroke_order_diagram--bounding_box" x1="299" x2="299" y1="1" y2="99"></line><path class="stroke_order_diagram--existing_path" d="M36.31,15c0.06,0.63,0.27,1.85-0.12,2.53C31.2,26.23,26.13,32.39,14,41.79" id="Ske2bi5nir" kvg:type="㇒" transform="matrix(1,0,0,1,196,-4)" xmlns:kvg="http://kanjivg.tagaini.net"></path><path class="stroke_order_diagram--existing_path" d="M18,21c28.75,24,15.75,81.5,5,69.5" id="Ske2bi5nis" kvg:type="㇕va" transform="matrix(1,0,0,1,196,-4)" xmlns:kvg="http://kanjivg.tagaini.net"></path><path class="stroke_order_diagram--current_path" d="M29.83,43c0.05,0.66,0.22,1.94-0.1,2.65c-4.1,9.1-8.27,15.54-18.23,25.39" id="kvg:072fc-s3" kvg:type="㇒" transform="matrix(1,0,0,1,196,-4)" xmlns:kvg="http://kanjivg.tagaini.net"></path><path class="stroke_order_diagram--current_path" d="M29.83,43c0.05,0.66,0.22,1.94-0.1,2.65c-4.1,9.1-8.27,15.54-18.23,25.39" id="Ske2bi5niu" kvg:type="㇒" transform="matrix(1,0,0,1,196,-4)" xmlns:kvg="http://kanjivg.tagaini.net"></path><circle class="stroke_order_diagram--path_start" cx="29.83" cy="43" r="4" transform="matrix(1,0,0,1,196,-4)"></circle><line class="stroke_order_diagram--guide_line" x1="350" x2="350" y1="1" y2="99"></line><line class="stroke_order_diagram--bounding_box" x1="399" x2="399" y1="1" y2="99"></line><path class="stroke_order_diagram--existing_path" d="M36.31,15c0.06,0.63,0.27,1.85-0.12,2.53C31.2,26.23,26.13,32.39,14,41.79" id="Ske2bi5nix" kvg:type="㇒" transform="matrix(1,0,0,1,296,-4)" xmlns:kvg="http://kanjivg.tagaini.net"></path><path class="stroke_order_diagram--existing_path" d="M18,21c28.75,24,15.75,81.5,5,69.5" id="Ske2bi5niy" kvg:type="㇕va" transform="matrix(1,0,0,1,296,-4)" xmlns:kvg="http://kanjivg.tagaini.net"></path><path class="stroke_order_diagram--existing_path" d="M29.83,43c0.05,0.66,0.22,1.94-0.1,2.65c-4.1,9.1-8.27,15.54-18.23,25.39" id="Ske2bi5niz" kvg:type="㇒" transform="matrix(1,0,0,1,296,-4)" xmlns:kvg="http://kanjivg.tagaini.net"></path><path class="stroke_order_diagram--current_path" d="M61.25,12.75c1.17,0.59,1.87,1.47,2.1,2.64c0.23,1.17,0.23,6.86,0.23,9.8" id="kvg:072fc-s4" kvg:type="㇑a" transform="matrix(1,0,0,1,296,-4)" xmlns:kvg="http://kanjivg.tagaini.net"></path><path class="stroke_order_diagram--current_path" d="M61.25,12.75c1.17,0.59,1.87,1.47,2.1,2.64c0.23,1.17,0.23,6.86,0.23,9.8" id="Ske2bi5ni11" kvg:type="㇑a" transform="matrix(1,0,0,1,296,-4)" xmlns:kvg="http://kanjivg.tagaini.net"></path><circle class="stroke_order_diagram--path_start" cx="61.25" cy="12.75" r="4" transform="matrix(1,0,0,1,296,-4)"></circle><line class="stroke_order_diagram--guide_line" x1="450" x2="450" y1="1" y2="99"></line><line class="stroke_order_diagram--bounding_box" x1="499" x2="499" y1="1" y2="99"></line><path class="stroke_order_diagram--existing_path" d="M36.31,15c0.06,0.63,0.27,1.85-0.12,2.53C31.2,26.23,26.13,32.39,14,41.79" id="Ske2bi5ni14" kvg:type="㇒" transform="matrix(1,0,0,1,396,-4)" xmlns:kvg="http://kanjivg.tagaini.net"></path><path class="stroke_order_diagram--existing_path" d="M18,21c28.75,24,15.75,81.5,5,69.5" id="Ske2bi5ni15" kvg:type="㇕va" transform="matrix(1,0,0,1,396,-4)" xmlns:kvg="http://kanjivg.tagaini.net"></path><path class="stroke_order_diagram--existing_path" d="M29.83,43c0.05,0.66,0.22,1.94-0.1,2.65c-4.1,9.1-8.27,15.54-18.23,25.39" id="Ske2bi5ni16" kvg:type="㇒" transform="matrix(1,0,0,1,396,-4)" xmlns:kvg="http://kanjivg.tagaini.net"></path><path class="stroke_order_diagram--existing_path" d="M61.25,12.75c1.17,0.59,1.87,1.47,2.1,2.64c0.23,1.17,0.23,6.86,0.23,9.8" id="Ske2bi5ni17" kvg:type="㇑a" transform="matrix(1,0,0,1,396,-4)" xmlns:kvg="http://kanjivg.tagaini.net"></path><path class="stroke_order_diagram--current_path" d="M49.32,27.81c2.3-0.11,27.14-3.69,29.23-3.82c1.74-0.11,2.75,1.25,2.73,1.93c-0.12,4.83-3.04,19.83-4.01,24.63" id="kvg:072fc-s5" kvg:type="㇕" transform="matrix(1,0,0,1,396,-4)" xmlns:kvg="http://kanjivg.tagaini.net"></path><path class="stroke_order_diagram--current_path" d="M49.32,27.81c2.3-0.11,27.14-3.69,29.23-3.82c1.74-0.11,2.75,1.25,2.73,1.93c-0.12,4.83-3.04,19.83-4.01,24.63" id="Ske2bi5ni19" kvg:type="㇕" transform="matrix(1,0,0,1,396,-4)" xmlns:kvg="http://kanjivg.tagaini.net"></path><circle class="stroke_order_diagram--path_start" cx="49.32" cy="27.81" r="4" transform="matrix(1,0,0,1,396,-4)"></circle><line class="stroke_order_diagram--guide_line" x1="550" x2="550" y1="1" y2="99"></line><line class="stroke_order_diagram--bounding_box" x1="599" x2="599" y1="1" y2="99"></line><path class="stroke_order_diagram--existing_path" d="M36.31,15c0.06,0.63,0.27,1.85-0.12,2.53C31.2,26.23,26.13,32.39,14,41.79" id="Ske2bi5ni1c" kvg:type="㇒" transform="matrix(1,0,0,1,496,-4)" xmlns:kvg="http://kanjivg.tagaini.net"></path><path class="stroke_order_diagram--existing_path" d="M18,21c28.75,24,15.75,81.5,5,69.5" id="Ske2bi5ni1d" kvg:type="㇕va" transform="matrix(1,0,0,1,496,-4)" xmlns:kvg="http://kanjivg.tagaini.net"></path><path class="stroke_order_diagram--existing_path" d="M29.83,43c0.05,0.66,0.22,1.94-0.1,2.65c-4.1,9.1-8.27,15.54-18.23,25.39" id="Ske2bi5ni1e" kvg:type="㇒" transform="matrix(1,0,0,1,496,-4)" xmlns:kvg="http://kanjivg.tagaini.net"></path><path class="stroke_order_diagram--existing_path" d="M61.25,12.75c1.17,0.59,1.87,1.47,2.1,2.64c0.23,1.17,0.23,6.86,0.23,9.8" id="Ske2bi5ni1f" kvg:type="㇑a" transform="matrix(1,0,0,1,496,-4)" xmlns:kvg="http://kanjivg.tagaini.net"></path><path class="stroke_order_diagram--existing_path" d="M49.32,27.81c2.3-0.11,27.14-3.69,29.23-3.82c1.74-0.11,2.75,1.25,2.73,1.93c-0.12,4.83-3.04,19.83-4.01,24.63" id="Ske2bi5ni1g" kvg:type="㇕" transform="matrix(1,0,0,1,496,-4)" xmlns:kvg="http://kanjivg.tagaini.net"></path><path class="stroke_order_diagram--current_path" d="M49.98,40.44c5.77-0.54,23.04-2.67,28.59-3.1" id="kvg:072fc-s6" kvg:type="㇐a" transform="matrix(1,0,0,1,496,-4)" xmlns:kvg="http://kanjivg.tagaini.net"></path><path class="stroke_order_diagram--current_path" d="M49.98,40.44c5.77-0.54,23.04-2.67,28.59-3.1" id="Ske2bi5ni1i" kvg:type="㇐a" transform="matrix(1,0,0,1,496,-4)" xmlns:kvg="http://kanjivg.tagaini.net"></path><circle class="stroke_order_diagram--path_start" cx="49.98" cy="40.44" r="4" transform="matrix(1,0,0,1,496,-4)"></circle><line class="stroke_order_diagram--guide_line" x1="650" x2="650" y1="1" y2="99"></line><line class="stroke_order_diagram--bounding_box" x1="699" x2="699" y1="1" y2="99"></line><path class="stroke_order_diagram--existing_path" d="M36.31,15c0.06,0.63,0.27,1.85-0.12,2.53C31.2,26.23,26.13,32.39,14,41.79" id="Ske2bi5ni1l" kvg:type="㇒" transform="matrix(1,0,0,1,596,-4)" xmlns:kvg="http://kanjivg.tagaini.net"></path><path class="stroke_order_diagram--existing_path" d="M18,21c28.75,24,15.75,81.5,5,69.5" id="Ske2bi5ni1m" kvg:type="㇕va" transform="matrix(1,0,0,1,596,-4)" xmlns:kvg="http://kanjivg.tagaini.net"></path><path class="stroke_order_diagram--existing_path" d="M29.83,43c0.05,0.66,0.22,1.94-0.1,2.65c-4.1,9.1-8.27,15.54-18.23,25.39" id="Ske2bi5ni1n" kvg:type="㇒" transform="matrix(1,0,0,1,596,-4)" xmlns:kvg="http://kanjivg.tagaini.net"></path><path class="stroke_order_diagram--existing_path" d="M61.25,12.75c1.17,0.59,1.87,1.47,2.1,2.64c0.23,1.17,0.23,6.86,0.23,9.8" id="Ske2bi5ni1o" kvg:type="㇑a" transform="matrix(1,0,0,1,596,-4)" xmlns:kvg="http://kanjivg.tagaini.net"></path><path class="stroke_order_diagram--existing_path" d="M49.32,27.81c2.3-0.11,27.14-3.69,29.23-3.82c1.74-0.11,2.75,1.25,2.73,1.93c-0.12,4.83-3.04,19.83-4.01,24.63" id="Ske2bi5ni1p" kvg:type="㇕" transform="matrix(1,0,0,1,596,-4)" xmlns:kvg="http://kanjivg.tagaini.net"></path><path class="stroke_order_diagram--existing_path" d="M49.98,40.44c5.77-0.54,23.04-2.67,28.59-3.1" id="Ske2bi5ni1q" kvg:type="㇐a" transform="matrix(1,0,0,1,596,-4)" xmlns:kvg="http://kanjivg.tagaini.net"></path><path class="stroke_order_diagram--current_path" d="M49.59,53.42c7.91-0.87,21.29-2.12,29.88-2.95" id="kvg:072fc-s7" kvg:type="㇐a" transform="matrix(1,0,0,1,596,-4)" xmlns:kvg="http://kanjivg.tagaini.net"></path><path class="stroke_order_diagram--current_path" d="M49.59,53.42c7.91-0.87,21.29-2.12,29.88-2.95" id="Ske2bi5ni1s" kvg:type="㇐a" transform="matrix(1,0,0,1,596,-4)" xmlns:kvg="http://kanjivg.tagaini.net"></path><circle class="stroke_order_diagram--path_start" cx="49.59" cy="53.42" r="4" transform="matrix(1,0,0,1,596,-4)"></circle><line class="stroke_order_diagram--guide_line" x1="750" x2="750" y1="1" y2="99"></line><line class="stroke_order_diagram--bounding_box" x1="799" x2="799" y1="1" y2="99"></line><path class="stroke_order_diagram--existing_path" d="M36.31,15c0.06,0.63,0.27,1.85-0.12,2.53C31.2,26.23,26.13,32.39,14,41.79" id="Ske2bi5ni1v" kvg:type="㇒" transform="matrix(1,0,0,1,696,-4)" xmlns:kvg="http://kanjivg.tagaini.net"></path><path class="stroke_order_diagram--existing_path" d="M18,21c28.75,24,15.75,81.5,5,69.5" id="Ske2bi5ni1w" kvg:type="㇕va" transform="matrix(1,0,0,1,696,-4)" xmlns:kvg="http://kanjivg.tagaini.net"></path><path class="stroke_order_diagram--existing_path" d="M29.83,43c0.05,0.66,0.22,1.94-0.1,2.65c-4.1,9.1-8.27,15.54-18.23,25.39" id="Ske2bi5ni1x" kvg:type="㇒" transform="matrix(1,0,0,1,696,-4)" xmlns:kvg="http://kanjivg.tagaini.net"></path><path class="stroke_order_diagram--existing_path" d="M61.25,12.75c1.17,0.59,1.87,1.47,2.1,2.64c0.23,1.17,0.23,6.86,0.23,9.8" id="Ske2bi5ni1y" kvg:type="㇑a" transform="matrix(1,0,0,1,696,-4)" xmlns:kvg="http://kanjivg.tagaini.net"></path><path class="stroke_order_diagram--existing_path" d="M49.32,27.81c2.3-0.11,27.14-3.69,29.23-3.82c1.74-0.11,2.75,1.25,2.73,1.93c-0.12,4.83-3.04,19.83-4.01,24.63" id="Ske2bi5ni1z" kvg:type="㇕" transform="matrix(1,0,0,1,696,-4)" xmlns:kvg="http://kanjivg.tagaini.net"></path><path class="stroke_order_diagram--existing_path" d="M49.98,40.44c5.77-0.54,23.04-2.67,28.59-3.1" id="Ske2bi5ni20" kvg:type="㇐a" transform="matrix(1,0,0,1,696,-4)" xmlns:kvg="http://kanjivg.tagaini.net"></path><path class="stroke_order_diagram--existing_path" d="M49.59,53.42c7.91-0.87,21.29-2.12,29.88-2.95" id="Ske2bi5ni21" kvg:type="㇐a" transform="matrix(1,0,0,1,696,-4)" xmlns:kvg="http://kanjivg.tagaini.net"></path><path class="stroke_order_diagram--current_path" d="M47.01,25.73c1.31,0.53,2.09,2.39,2.35,3.45c0.26,1.06,0.26,57.87,0.26,60.52c0,3.05-0.18,5.34,2.99,3.23C57.75,89.5,58.75,89,67,84" id="kvg:072fc-s8" kvg:type="㇙" transform="matrix(1,0,0,1,696,-4)" xmlns:kvg="http://kanjivg.tagaini.net"></path><path class="stroke_order_diagram--current_path" d="M47.01,25.73c1.31,0.53,2.09,2.39,2.35,3.45c0.26,1.06,0.26,57.87,0.26,60.52c0,3.05-0.18,5.34,2.99,3.23C57.75,89.5,58.75,89,67,84" id="Ske2bi5ni23" kvg:type="㇙" transform="matrix(1,0,0,1,696,-4)" xmlns:kvg="http://kanjivg.tagaini.net"></path><circle class="stroke_order_diagram--path_start" cx="47.01" cy="25.73" r="4" transform="matrix(1,0,0,1,696,-4)"></circle><line class="stroke_order_diagram--guide_line" x1="850" x2="850" y1="1" y2="99"></line><line class="stroke_order_diagram--bounding_box" x1="899" x2="899" y1="1" y2="99"></line><path class="stroke_order_diagram--existing_path" d="M36.31,15c0.06,0.63,0.27,1.85-0.12,2.53C31.2,26.23,26.13,32.39,14,41.79" id="Ske2bi5ni26" kvg:type="㇒" transform="matrix(1,0,0,1,796,-4)" xmlns:kvg="http://kanjivg.tagaini.net"></path><path class="stroke_order_diagram--existing_path" d="M18,21c28.75,24,15.75,81.5,5,69.5" id="Ske2bi5ni27" kvg:type="㇕va" transform="matrix(1,0,0,1,796,-4)" xmlns:kvg="http://kanjivg.tagaini.net"></path><path class="stroke_order_diagram--existing_path" d="M29.83,43c0.05,0.66,0.22,1.94-0.1,2.65c-4.1,9.1-8.27,15.54-18.23,25.39" id="Ske2bi5ni28" kvg:type="㇒" transform="matrix(1,0,0,1,796,-4)" xmlns:kvg="http://kanjivg.tagaini.net"></path><path class="stroke_order_diagram--existing_path" d="M61.25,12.75c1.17,0.59,1.87,1.47,2.1,2.64c0.23,1.17,0.23,6.86,0.23,9.8" id="Ske2bi5ni29" kvg:type="㇑a" transform="matrix(1,0,0,1,796,-4)" xmlns:kvg="http://kanjivg.tagaini.net"></path><path class="stroke_order_diagram--existing_path" d="M49.32,27.81c2.3-0.11,27.14-3.69,29.23-3.82c1.74-0.11,2.75,1.25,2.73,1.93c-0.12,4.83-3.04,19.83-4.01,24.63" id="Ske2bi5ni2a" kvg:type="㇕" transform="matrix(1,0,0,1,796,-4)" xmlns:kvg="http://kanjivg.tagaini.net"></path><path class="stroke_order_diagram--existing_path" d="M49.98,40.44c5.77-0.54,23.04-2.67,28.59-3.1" id="Ske2bi5ni2b" kvg:type="㇐a" transform="matrix(1,0,0,1,796,-4)" xmlns:kvg="http://kanjivg.tagaini.net"></path><path class="stroke_order_diagram--existing_path" d="M49.59,53.42c7.91-0.87,21.29-2.12,29.88-2.95" id="Ske2bi5ni2c" kvg:type="㇐a" transform="matrix(1,0,0,1,796,-4)" xmlns:kvg="http://kanjivg.tagaini.net"></path><path class="stroke_order_diagram--existing_path" d="M47.01,25.73c1.31,0.53,2.09,2.39,2.35,3.45c0.26,1.06,0.26,57.87,0.26,60.52c0,3.05-0.18,5.34,2.99,3.23C57.75,89.5,58.75,89,67,84" id="Ske2bi5ni2d" kvg:type="㇙" transform="matrix(1,0,0,1,796,-4)" xmlns:kvg="http://kanjivg.tagaini.net"></path><path class="stroke_order_diagram--current_path" d="M86.17,52.05c0.33,1.43,0.53,2-0.57,3.15c-2.14,2.23-8.59,7.4-11.52,9.41" id="kvg:072fc-s9" kvg:type="㇒" transform="matrix(1,0,0,1,796,-4)" xmlns:kvg="http://kanjivg.tagaini.net"></path><path class="stroke_order_diagram--current_path" d="M86.17,52.05c0.33,1.43,0.53,2-0.57,3.15c-2.14,2.23-8.59,7.4-11.52,9.41" id="Ske2bi5ni2f" kvg:type="㇒" transform="matrix(1,0,0,1,796,-4)" xmlns:kvg="http://kanjivg.tagaini.net"></path><circle class="stroke_order_diagram--path_start" cx="86.17" cy="52.05" r="4" transform="matrix(1,0,0,1,796,-4)"></circle><line class="stroke_order_diagram--guide_line" x1="950" x2="950" y1="1" y2="99"></line><line class="stroke_order_diagram--bounding_box" x1="999" x2="999" y1="1" y2="99"></line><path class="stroke_order_diagram--existing_path" d="M36.31,15c0.06,0.63,0.27,1.85-0.12,2.53C31.2,26.23,26.13,32.39,14,41.79" id="Ske2bi5ni2i" kvg:type="㇒" transform="matrix(1,0,0,1,896,-4)" xmlns:kvg="http://kanjivg.tagaini.net"></path><path class="stroke_order_diagram--existing_path" d="M18,21c28.75,24,15.75,81.5,5,69.5" id="Ske2bi5ni2j" kvg:type="㇕va" transform="matrix(1,0,0,1,896,-4)" xmlns:kvg="http://kanjivg.tagaini.net"></path><path class="stroke_order_diagram--existing_path" d="M29.83,43c0.05,0.66,0.22,1.94-0.1,2.65c-4.1,9.1-8.27,15.54-18.23,25.39" id="Ske2bi5ni2k" kvg:type="㇒" transform="matrix(1,0,0,1,896,-4)" xmlns:kvg="http://kanjivg.tagaini.net"></path><path class="stroke_order_diagram--existing_path" d="M61.25,12.75c1.17,0.59,1.87,1.47,2.1,2.64c0.23,1.17,0.23,6.86,0.23,9.8" id="Ske2bi5ni2l" kvg:type="㇑a" transform="matrix(1,0,0,1,896,-4)" xmlns:kvg="http://kanjivg.tagaini.net"></path><path class="stroke_order_diagram--existing_path" d="M49.32,27.81c2.3-0.11,27.14-3.69,29.23-3.82c1.74-0.11,2.75,1.25,2.73,1.93c-0.12,4.83-3.04,19.83-4.01,24.63" id="Ske2bi5ni2m" kvg:type="㇕" transform="matrix(1,0,0,1,896,-4)" xmlns:kvg="http://kanjivg.tagaini.net"></path><path class="stroke_order_diagram--existing_path" d="M49.98,40.44c5.77-0.54,23.04-2.67,28.59-3.1" id="Ske2bi5ni2n" kvg:type="㇐a" transform="matrix(1,0,0,1,896,-4)" xmlns:kvg="http://kanjivg.tagaini.net"></path><path class="stroke_order_diagram--existing_path" d="M49.59,53.42c7.91-0.87,21.29-2.12,29.88-2.95" id="Ske2bi5ni2o" kvg:type="㇐a" transform="matrix(1,0,0,1,896,-4)" xmlns:kvg="http://kanjivg.tagaini.net"></path><path class="stroke_order_diagram--existing_path" d="M47.01,25.73c1.31,0.53,2.09,2.39,2.35,3.45c0.26,1.06,0.26,57.87,0.26,60.52c0,3.05-0.18,5.34,2.99,3.23C57.75,89.5,58.75,89,67,84" id="Ske2bi5ni2p" kvg:type="㇙" transform="matrix(1,0,0,1,896,-4)" xmlns:kvg="http://kanjivg.tagaini.net"></path><path class="stroke_order_diagram--existing_path" d="M86.17,52.05c0.33,1.43,0.53,2-0.57,3.15c-2.14,2.23-8.59,7.4-11.52,9.41" id="Ske2bi5ni2q" kvg:type="㇒" transform="matrix(1,0,0,1,896,-4)" xmlns:kvg="http://kanjivg.tagaini.net"></path><path class="stroke_order_diagram--current_path" d="M57.88,54.23c5.78,3.93,21.02,22.28,29.8,28.97c4.68,3.57,7.06,4.51,9.63,5.19" id="kvg:072fc-s10" kvg:type="㇏" transform="matrix(1,0,0,1,896,-4)" xmlns:kvg="http://kanjivg.tagaini.net"></path><path class="stroke_order_diagram--current_path" d="M57.88,54.23c5.78,3.93,21.02,22.28,29.8,28.97c4.68,3.57,7.06,4.51,9.63,5.19" id="Ske2bi5ni2s" kvg:type="㇏" transform="matrix(1,0,0,1,896,-4)" xmlns:kvg="http://kanjivg.tagaini.net"></path><circle class="stroke_order_diagram--path_start" cx="57.88" cy="54.23" r="4" transform="matrix(1,0,0,1,896,-4)"></circle></svg>