<svg class="stroke_order_diagram--svg_container_for_518662b0d5dda796580011a1" style="height: 100px; width: 1100px;" viewbox="0 0 1100 100"><desc>Created with Snap</desc><defs></defs><line class="stroke_order_diagram--bounding_box" x1="1" x2="1099" y1="1" y2="1"></line><line class="stroke_order_diagram--bounding_box" x1="1" x2="1" y1="1" y2="99"></line><line class="stroke_order_diagram--bounding_box" x1="1" x2="1099" y1="99" y2="99"></line><line class="stroke_order_diagram--guide_line" x1="0" x2="1100" y1="50" y2="50"></line><line class="stroke_order_diagram--guide_line" x1="50" x2="50" y1="1" y2="99"></line><line class="stroke_order_diagram--bounding_box" x1="99" x2="99" y1="1" y2="99"></line><path class="stroke_order_diagram--current_path" d="M39.04,15.75c0.07,0.61,0.32,1.78-0.14,2.44c-5.94,8.37-11.97,14.3-26.4,23.35" id="kvg:0731d-s1" kvg:type="㇒" transform="matrix(1,0,0,1,-4,-4)" xmlns:kvg="http://kanjivg.tagaini.net"></path><path class="stroke_order_diagram--current_path" d="M39.04,15.75c0.07,0.61,0.32,1.78-0.14,2.44c-5.94,8.37-11.97,14.3-26.4,23.35" id="Ske2qdv49k" kvg:type="㇒" transform="matrix(1,0,0,1,-4,-4)" xmlns:kvg="http://kanjivg.tagaini.net"></path><circle class="stroke_order_diagram--path_start" cx="39.04" cy="15.75" r="4" transform="matrix(1,0,0,1,-4,-4)"></circle><line class="stroke_order_diagram--guide_line" x1="150" x2="150" y1="1" y2="99"></line><line class="stroke_order_diagram--bounding_box" x1="199" x2="199" y1="1" y2="99"></line><path class="stroke_order_diagram--existing_path" d="M39.04,15.75c0.07,0.61,0.32,1.78-0.14,2.44c-5.94,8.37-11.97,14.3-26.4,23.35" id="Ske2qdv49n" kvg:type="㇒" transform="matrix(1,0,0,1,96,-4)" xmlns:kvg="http://kanjivg.tagaini.net"></path><path class="stroke_order_diagram--current_path" d="M17.5,19.25c31.8,22.54,19.65,81.57,6.47,69.07" id="kvg:0731d-s2" kvg:type="㇕va" transform="matrix(1,0,0,1,96,-4)" xmlns:kvg="http://kanjivg.tagaini.net"></path><path class="stroke_order_diagram--current_path" d="M17.5,19.25c31.8,22.54,19.65,81.57,6.47,69.07" id="Ske2qdv49p" kvg:type="㇕va" transform="matrix(1,0,0,1,96,-4)" xmlns:kvg="http://kanjivg.tagaini.net"></path><circle class="stroke_order_diagram--path_start" cx="17.5" cy="19.25" r="4" transform="matrix(1,0,0,1,96,-4)"></circle><line class="stroke_order_diagram--guide_line" x1="250" x2="250" y1="1" y2="99"></line><line class="stroke_order_diagram--bounding_box" x1="299" x2="299" y1="1" y2="99"></line><path class="stroke_order_diagram--existing_path" d="M39.04,15.75c0.07,0.61,0.32,1.78-0.14,2.44c-5.94,8.37-11.97,14.3-26.4,23.35" id="Ske2qdv49s" kvg:type="㇒" transform="matrix(1,0,0,1,196,-4)" xmlns:kvg="http://kanjivg.tagaini.net"></path><path class="stroke_order_diagram--existing_path" d="M17.5,19.25c31.8,22.54,19.65,81.57,6.47,69.07" id="Ske2qdv49t" kvg:type="㇕va" transform="matrix(1,0,0,1,196,-4)" xmlns:kvg="http://kanjivg.tagaini.net"></path><path class="stroke_order_diagram--current_path" d="M31.84,43c0.04,0.65,0.2,1.9-0.09,2.61c-3.71,8.94-7.48,15.27-16.5,24.94" id="kvg:0731d-s3" kvg:type="㇒" transform="matrix(1,0,0,1,196,-4)" xmlns:kvg="http://kanjivg.tagaini.net"></path><path class="stroke_order_diagram--current_path" d="M31.84,43c0.04,0.65,0.2,1.9-0.09,2.61c-3.71,8.94-7.48,15.27-16.5,24.94" id="Ske2qdv49v" kvg:type="㇒" transform="matrix(1,0,0,1,196,-4)" xmlns:kvg="http://kanjivg.tagaini.net"></path><circle class="stroke_order_diagram--path_start" cx="31.84" cy="43" r="4" transform="matrix(1,0,0,1,196,-4)"></circle><line class="stroke_order_diagram--guide_line" x1="350" x2="350" y1="1" y2="99"></line><line class="stroke_order_diagram--bounding_box" x1="399" x2="399" y1="1" y2="99"></line><path class="stroke_order_diagram--existing_path" d="M39.04,15.75c0.07,0.61,0.32,1.78-0.14,2.44c-5.94,8.37-11.97,14.3-26.4,23.35" id="Ske2qdv49y" kvg:type="㇒" transform="matrix(1,0,0,1,296,-4)" xmlns:kvg="http://kanjivg.tagaini.net"></path><path class="stroke_order_diagram--existing_path" d="M17.5,19.25c31.8,22.54,19.65,81.57,6.47,69.07" id="Ske2qdv49z" kvg:type="㇕va" transform="matrix(1,0,0,1,296,-4)" xmlns:kvg="http://kanjivg.tagaini.net"></path><path class="stroke_order_diagram--existing_path" d="M31.84,43c0.04,0.65,0.2,1.9-0.09,2.61c-3.71,8.94-7.48,15.27-16.5,24.94" id="Ske2qdv4910" kvg:type="㇒" transform="matrix(1,0,0,1,296,-4)" xmlns:kvg="http://kanjivg.tagaini.net"></path><path class="stroke_order_diagram--current_path" d="M66.64,13.5c0.49,0.47,1.3,2.26,1.3,3.19c0,3.41-0.06,6.56-0.06,9.57" id="kvg:0731d-s4" kvg:type="㇑a" transform="matrix(1,0,0,1,296,-4)" xmlns:kvg="http://kanjivg.tagaini.net"></path><path class="stroke_order_diagram--current_path" d="M66.64,13.5c0.49,0.47,1.3,2.26,1.3,3.19c0,3.41-0.06,6.56-0.06,9.57" id="Ske2qdv4912" kvg:type="㇑a" transform="matrix(1,0,0,1,296,-4)" xmlns:kvg="http://kanjivg.tagaini.net"></path><circle class="stroke_order_diagram--path_start" cx="66.64" cy="13.5" r="4" transform="matrix(1,0,0,1,296,-4)"></circle><line class="stroke_order_diagram--guide_line" x1="450" x2="450" y1="1" y2="99"></line><line class="stroke_order_diagram--bounding_box" x1="499" x2="499" y1="1" y2="99"></line><path class="stroke_order_diagram--existing_path" d="M39.04,15.75c0.07,0.61,0.32,1.78-0.14,2.44c-5.94,8.37-11.97,14.3-26.4,23.35" id="Ske2qdv4915" kvg:type="㇒" transform="matrix(1,0,0,1,396,-4)" xmlns:kvg="http://kanjivg.tagaini.net"></path><path class="stroke_order_diagram--existing_path" d="M17.5,19.25c31.8,22.54,19.65,81.57,6.47,69.07" id="Ske2qdv4916" kvg:type="㇕va" transform="matrix(1,0,0,1,396,-4)" xmlns:kvg="http://kanjivg.tagaini.net"></path><path class="stroke_order_diagram--existing_path" d="M31.84,43c0.04,0.65,0.2,1.9-0.09,2.61c-3.71,8.94-7.48,15.27-16.5,24.94" id="Ske2qdv4917" kvg:type="㇒" transform="matrix(1,0,0,1,396,-4)" xmlns:kvg="http://kanjivg.tagaini.net"></path><path class="stroke_order_diagram--existing_path" d="M66.64,13.5c0.49,0.47,1.3,2.26,1.3,3.19c0,3.41-0.06,6.56-0.06,9.57" id="Ske2qdv4918" kvg:type="㇑a" transform="matrix(1,0,0,1,396,-4)" xmlns:kvg="http://kanjivg.tagaini.net"></path><path class="stroke_order_diagram--current_path" d="M43.46,27.94c1.79,0.06,4.4,0.53,5.71,0.42c10.54-0.88,25.98-1.93,39.35-2.16c2.21-0.04,3.34,0.04,4.99,0.54" id="kvg:0731d-s5" kvg:type="㇐" transform="matrix(1,0,0,1,396,-4)" xmlns:kvg="http://kanjivg.tagaini.net"></path><path class="stroke_order_diagram--current_path" d="M43.46,27.94c1.79,0.06,4.4,0.53,5.71,0.42c10.54-0.88,25.98-1.93,39.35-2.16c2.21-0.04,3.34,0.04,4.99,0.54" id="Ske2qdv491a" kvg:type="㇐" transform="matrix(1,0,0,1,396,-4)" xmlns:kvg="http://kanjivg.tagaini.net"></path><circle class="stroke_order_diagram--path_start" cx="43.46" cy="27.94" r="4" transform="matrix(1,0,0,1,396,-4)"></circle><line class="stroke_order_diagram--guide_line" x1="550" x2="550" y1="1" y2="99"></line><line class="stroke_order_diagram--bounding_box" x1="599" x2="599" y1="1" y2="99"></line><path class="stroke_order_diagram--existing_path" d="M39.04,15.75c0.07,0.61,0.32,1.78-0.14,2.44c-5.94,8.37-11.97,14.3-26.4,23.35" id="Ske2qdv491d" kvg:type="㇒" transform="matrix(1,0,0,1,496,-4)" xmlns:kvg="http://kanjivg.tagaini.net"></path><path class="stroke_order_diagram--existing_path" d="M17.5,19.25c31.8,22.54,19.65,81.57,6.47,69.07" id="Ske2qdv491e" kvg:type="㇕va" transform="matrix(1,0,0,1,496,-4)" xmlns:kvg="http://kanjivg.tagaini.net"></path><path class="stroke_order_diagram--existing_path" d="M31.84,43c0.04,0.65,0.2,1.9-0.09,2.61c-3.71,8.94-7.48,15.27-16.5,24.94" id="Ske2qdv491f" kvg:type="㇒" transform="matrix(1,0,0,1,496,-4)" xmlns:kvg="http://kanjivg.tagaini.net"></path><path class="stroke_order_diagram--existing_path" d="M66.64,13.5c0.49,0.47,1.3,2.26,1.3,3.19c0,3.41-0.06,6.56-0.06,9.57" id="Ske2qdv491g" kvg:type="㇑a" transform="matrix(1,0,0,1,496,-4)" xmlns:kvg="http://kanjivg.tagaini.net"></path><path class="stroke_order_diagram--existing_path" d="M43.46,27.94c1.79,0.06,4.4,0.53,5.71,0.42c10.54-0.88,25.98-1.93,39.35-2.16c2.21-0.04,3.34,0.04,4.99,0.54" id="Ske2qdv491h" kvg:type="㇐" transform="matrix(1,0,0,1,496,-4)" xmlns:kvg="http://kanjivg.tagaini.net"></path><path class="stroke_order_diagram--current_path" d="M57.11,32.49c0,0.56,0.03,1-0.08,1.67c-0.58,3.48-6.07,15.07-10.77,20.22" id="kvg:0731d-s6" kvg:type="㇒" transform="matrix(1,0,0,1,496,-4)" xmlns:kvg="http://kanjivg.tagaini.net"></path><path class="stroke_order_diagram--current_path" d="M57.11,32.49c0,0.56,0.03,1-0.08,1.67c-0.58,3.48-6.07,15.07-10.77,20.22" id="Ske2qdv491j" kvg:type="㇒" transform="matrix(1,0,0,1,496,-4)" xmlns:kvg="http://kanjivg.tagaini.net"></path><circle class="stroke_order_diagram--path_start" cx="57.11" cy="32.49" r="4" transform="matrix(1,0,0,1,496,-4)"></circle><line class="stroke_order_diagram--guide_line" x1="650" x2="650" y1="1" y2="99"></line><line class="stroke_order_diagram--bounding_box" x1="699" x2="699" y1="1" y2="99"></line><path class="stroke_order_diagram--existing_path" d="M39.04,15.75c0.07,0.61,0.32,1.78-0.14,2.44c-5.94,8.37-11.97,14.3-26.4,23.35" id="Ske2qdv491m" kvg:type="㇒" transform="matrix(1,0,0,1,596,-4)" xmlns:kvg="http://kanjivg.tagaini.net"></path><path class="stroke_order_diagram--existing_path" d="M17.5,19.25c31.8,22.54,19.65,81.57,6.47,69.07" id="Ske2qdv491n" kvg:type="㇕va" transform="matrix(1,0,0,1,596,-4)" xmlns:kvg="http://kanjivg.tagaini.net"></path><path class="stroke_order_diagram--existing_path" d="M31.84,43c0.04,0.65,0.2,1.9-0.09,2.61c-3.71,8.94-7.48,15.27-16.5,24.94" id="Ske2qdv491o" kvg:type="㇒" transform="matrix(1,0,0,1,596,-4)" xmlns:kvg="http://kanjivg.tagaini.net"></path><path class="stroke_order_diagram--existing_path" d="M66.64,13.5c0.49,0.47,1.3,2.26,1.3,3.19c0,3.41-0.06,6.56-0.06,9.57" id="Ske2qdv491p" kvg:type="㇑a" transform="matrix(1,0,0,1,596,-4)" xmlns:kvg="http://kanjivg.tagaini.net"></path><path class="stroke_order_diagram--existing_path" d="M43.46,27.94c1.79,0.06,4.4,0.53,5.71,0.42c10.54-0.88,25.98-1.93,39.35-2.16c2.21-0.04,3.34,0.04,4.99,0.54" id="Ske2qdv491q" kvg:type="㇐" transform="matrix(1,0,0,1,596,-4)" xmlns:kvg="http://kanjivg.tagaini.net"></path><path class="stroke_order_diagram--existing_path" d="M57.11,32.49c0,0.56,0.03,1-0.08,1.67c-0.58,3.48-6.07,15.07-10.77,20.22" id="Ske2qdv491r" kvg:type="㇒" transform="matrix(1,0,0,1,596,-4)" xmlns:kvg="http://kanjivg.tagaini.net"></path><path class="stroke_order_diagram--current_path" d="M56.8,42.21c3.16,1.42,7.19,5.2,8.73,8.79" id="kvg:0731d-s7" kvg:type="㇏" transform="matrix(1,0,0,1,596,-4)" xmlns:kvg="http://kanjivg.tagaini.net"></path><path class="stroke_order_diagram--current_path" d="M56.8,42.21c3.16,1.42,7.19,5.2,8.73,8.79" id="Ske2qdv491t" kvg:type="㇏" transform="matrix(1,0,0,1,596,-4)" xmlns:kvg="http://kanjivg.tagaini.net"></path><circle class="stroke_order_diagram--path_start" cx="56.8" cy="42.21" r="4" transform="matrix(1,0,0,1,596,-4)"></circle><line class="stroke_order_diagram--guide_line" x1="750" x2="750" y1="1" y2="99"></line><line class="stroke_order_diagram--bounding_box" x1="799" x2="799" y1="1" y2="99"></line><path class="stroke_order_diagram--existing_path" d="M39.04,15.75c0.07,0.61,0.32,1.78-0.14,2.44c-5.94,8.37-11.97,14.3-26.4,23.35" id="Ske2qdv491w" kvg:type="㇒" transform="matrix(1,0,0,1,696,-4)" xmlns:kvg="http://kanjivg.tagaini.net"></path><path class="stroke_order_diagram--existing_path" d="M17.5,19.25c31.8,22.54,19.65,81.57,6.47,69.07" id="Ske2qdv491x" kvg:type="㇕va" transform="matrix(1,0,0,1,696,-4)" xmlns:kvg="http://kanjivg.tagaini.net"></path><path class="stroke_order_diagram--existing_path" d="M31.84,43c0.04,0.65,0.2,1.9-0.09,2.61c-3.71,8.94-7.48,15.27-16.5,24.94" id="Ske2qdv491y" kvg:type="㇒" transform="matrix(1,0,0,1,696,-4)" xmlns:kvg="http://kanjivg.tagaini.net"></path><path class="stroke_order_diagram--existing_path" d="M66.64,13.5c0.49,0.47,1.3,2.26,1.3,3.19c0,3.41-0.06,6.56-0.06,9.57" id="Ske2qdv491z" kvg:type="㇑a" transform="matrix(1,0,0,1,696,-4)" xmlns:kvg="http://kanjivg.tagaini.net"></path><path class="stroke_order_diagram--existing_path" d="M43.46,27.94c1.79,0.06,4.4,0.53,5.71,0.42c10.54-0.88,25.98-1.93,39.35-2.16c2.21-0.04,3.34,0.04,4.99,0.54" id="Ske2qdv4920" kvg:type="㇐" transform="matrix(1,0,0,1,696,-4)" xmlns:kvg="http://kanjivg.tagaini.net"></path><path class="stroke_order_diagram--existing_path" d="M57.11,32.49c0,0.56,0.03,1-0.08,1.67c-0.58,3.48-6.07,15.07-10.77,20.22" id="Ske2qdv4921" kvg:type="㇒" transform="matrix(1,0,0,1,696,-4)" xmlns:kvg="http://kanjivg.tagaini.net"></path><path class="stroke_order_diagram--existing_path" d="M56.8,42.21c3.16,1.42,7.19,5.2,8.73,8.79" id="Ske2qdv4922" kvg:type="㇏" transform="matrix(1,0,0,1,696,-4)" xmlns:kvg="http://kanjivg.tagaini.net"></path><path class="stroke_order_diagram--current_path" d="M80.85,32.49c0,0.47,0.03,0.84-0.08,1.4c-0.57,2.92-5.95,12.66-10.56,16.98" id="kvg:0731d-s8" kvg:type="㇒" transform="matrix(1,0,0,1,696,-4)" xmlns:kvg="http://kanjivg.tagaini.net"></path><path class="stroke_order_diagram--current_path" d="M80.85,32.49c0,0.47,0.03,0.84-0.08,1.4c-0.57,2.92-5.95,12.66-10.56,16.98" id="Ske2qdv4924" kvg:type="㇒" transform="matrix(1,0,0,1,696,-4)" xmlns:kvg="http://kanjivg.tagaini.net"></path><circle class="stroke_order_diagram--path_start" cx="80.85" cy="32.49" r="4" transform="matrix(1,0,0,1,696,-4)"></circle><line class="stroke_order_diagram--guide_line" x1="850" x2="850" y1="1" y2="99"></line><line class="stroke_order_diagram--bounding_box" x1="899" x2="899" y1="1" y2="99"></line><path class="stroke_order_diagram--existing_path" d="M39.04,15.75c0.07,0.61,0.32,1.78-0.14,2.44c-5.94,8.37-11.97,14.3-26.4,23.35" id="Ske2qdv4927" kvg:type="㇒" transform="matrix(1,0,0,1,796,-4)" xmlns:kvg="http://kanjivg.tagaini.net"></path><path class="stroke_order_diagram--existing_path" d="M17.5,19.25c31.8,22.54,19.65,81.57,6.47,69.07" id="Ske2qdv4928" kvg:type="㇕va" transform="matrix(1,0,0,1,796,-4)" xmlns:kvg="http://kanjivg.tagaini.net"></path><path class="stroke_order_diagram--existing_path" d="M31.84,43c0.04,0.65,0.2,1.9-0.09,2.61c-3.71,8.94-7.48,15.27-16.5,24.94" id="Ske2qdv4929" kvg:type="㇒" transform="matrix(1,0,0,1,796,-4)" xmlns:kvg="http://kanjivg.tagaini.net"></path><path class="stroke_order_diagram--existing_path" d="M66.64,13.5c0.49,0.47,1.3,2.26,1.3,3.19c0,3.41-0.06,6.56-0.06,9.57" id="Ske2qdv492a" kvg:type="㇑a" transform="matrix(1,0,0,1,796,-4)" xmlns:kvg="http://kanjivg.tagaini.net"></path><path class="stroke_order_diagram--existing_path" d="M43.46,27.94c1.79,0.06,4.4,0.53,5.71,0.42c10.54-0.88,25.98-1.93,39.35-2.16c2.21-0.04,3.34,0.04,4.99,0.54" id="Ske2qdv492b" kvg:type="㇐" transform="matrix(1,0,0,1,796,-4)" xmlns:kvg="http://kanjivg.tagaini.net"></path><path class="stroke_order_diagram--existing_path" d="M57.11,32.49c0,0.56,0.03,1-0.08,1.67c-0.58,3.48-6.07,15.07-10.77,20.22" id="Ske2qdv492c" kvg:type="㇒" transform="matrix(1,0,0,1,796,-4)" xmlns:kvg="http://kanjivg.tagaini.net"></path><path class="stroke_order_diagram--existing_path" d="M56.8,42.21c3.16,1.42,7.19,5.2,8.73,8.79" id="Ske2qdv492d" kvg:type="㇏" transform="matrix(1,0,0,1,796,-4)" xmlns:kvg="http://kanjivg.tagaini.net"></path><path class="stroke_order_diagram--existing_path" d="M80.85,32.49c0,0.47,0.03,0.84-0.08,1.4c-0.57,2.92-5.95,12.66-10.56,16.98" id="Ske2qdv492e" kvg:type="㇒" transform="matrix(1,0,0,1,796,-4)" xmlns:kvg="http://kanjivg.tagaini.net"></path><path class="stroke_order_diagram--current_path" d="M80.36,41.71c3.63,1.62,8.27,5.94,10.04,10.04" id="kvg:0731d-s9" kvg:type="㇏" transform="matrix(1,0,0,1,796,-4)" xmlns:kvg="http://kanjivg.tagaini.net"></path><path class="stroke_order_diagram--current_path" d="M80.36,41.71c3.63,1.62,8.27,5.94,10.04,10.04" id="Ske2qdv492g" kvg:type="㇏" transform="matrix(1,0,0,1,796,-4)" xmlns:kvg="http://kanjivg.tagaini.net"></path><circle class="stroke_order_diagram--path_start" cx="80.36" cy="41.71" r="4" transform="matrix(1,0,0,1,796,-4)"></circle><line class="stroke_order_diagram--guide_line" x1="950" x2="950" y1="1" y2="99"></line><line class="stroke_order_diagram--bounding_box" x1="999" x2="999" y1="1" y2="99"></line><path class="stroke_order_diagram--existing_path" d="M39.04,15.75c0.07,0.61,0.32,1.78-0.14,2.44c-5.94,8.37-11.97,14.3-26.4,23.35" id="Ske2qdv492j" kvg:type="㇒" transform="matrix(1,0,0,1,896,-4)" xmlns:kvg="http://kanjivg.tagaini.net"></path><path class="stroke_order_diagram--existing_path" d="M17.5,19.25c31.8,22.54,19.65,81.57,6.47,69.07" id="Ske2qdv492k" kvg:type="㇕va" transform="matrix(1,0,0,1,896,-4)" xmlns:kvg="http://kanjivg.tagaini.net"></path><path class="stroke_order_diagram--existing_path" d="M31.84,43c0.04,0.65,0.2,1.9-0.09,2.61c-3.71,8.94-7.48,15.27-16.5,24.94" id="Ske2qdv492l" kvg:type="㇒" transform="matrix(1,0,0,1,896,-4)" xmlns:kvg="http://kanjivg.tagaini.net"></path><path class="stroke_order_diagram--existing_path" d="M66.64,13.5c0.49,0.47,1.3,2.26,1.3,3.19c0,3.41-0.06,6.56-0.06,9.57" id="Ske2qdv492m" kvg:type="㇑a" transform="matrix(1,0,0,1,896,-4)" xmlns:kvg="http://kanjivg.tagaini.net"></path><path class="stroke_order_diagram--existing_path" d="M43.46,27.94c1.79,0.06,4.4,0.53,5.71,0.42c10.54-0.88,25.98-1.93,39.35-2.16c2.21-0.04,3.34,0.04,4.99,0.54" id="Ske2qdv492n" kvg:type="㇐" transform="matrix(1,0,0,1,896,-4)" xmlns:kvg="http://kanjivg.tagaini.net"></path><path class="stroke_order_diagram--existing_path" d="M57.11,32.49c0,0.56,0.03,1-0.08,1.67c-0.58,3.48-6.07,15.07-10.77,20.22" id="Ske2qdv492o" kvg:type="㇒" transform="matrix(1,0,0,1,896,-4)" xmlns:kvg="http://kanjivg.tagaini.net"></path><path class="stroke_order_diagram--existing_path" d="M56.8,42.21c3.16,1.42,7.19,5.2,8.73,8.79" id="Ske2qdv492p" kvg:type="㇏" transform="matrix(1,0,0,1,896,-4)" xmlns:kvg="http://kanjivg.tagaini.net"></path><path class="stroke_order_diagram--existing_path" d="M80.85,32.49c0,0.47,0.03,0.84-0.08,1.4c-0.57,2.92-5.95,12.66-10.56,16.98" id="Ske2qdv492q" kvg:type="㇒" transform="matrix(1,0,0,1,896,-4)" xmlns:kvg="http://kanjivg.tagaini.net"></path><path class="stroke_order_diagram--existing_path" d="M80.36,41.71c3.63,1.62,8.27,5.94,10.04,10.04" id="Ske2qdv492r" kvg:type="㇏" transform="matrix(1,0,0,1,896,-4)" xmlns:kvg="http://kanjivg.tagaini.net"></path><path class="stroke_order_diagram--current_path" d="M43.5,68.93c1.26,0.45,3.57,0.57,4.82,0.45c15.99-1.48,34.49-3.29,45.53-3.47c2.09-0.03,3.35,0.22,4.4,0.45" id="kvg:0731d-s10" kvg:type="㇐" transform="matrix(1,0,0,1,896,-4)" xmlns:kvg="http://kanjivg.tagaini.net"></path><path class="stroke_order_diagram--current_path" d="M43.5,68.93c1.26,0.45,3.57,0.57,4.82,0.45c15.99-1.48,34.49-3.29,45.53-3.47c2.09-0.03,3.35,0.22,4.4,0.45" id="Ske2qdv492t" kvg:type="㇐" transform="matrix(1,0,0,1,896,-4)" xmlns:kvg="http://kanjivg.tagaini.net"></path><circle class="stroke_order_diagram--path_start" cx="43.5" cy="68.93" r="4" transform="matrix(1,0,0,1,896,-4)"></circle><line class="stroke_order_diagram--guide_line" x1="1050" x2="1050" y1="1" y2="99"></line><line class="stroke_order_diagram--bounding_box" x1="1099" x2="1099" y1="1" y2="99"></line><path class="stroke_order_diagram--existing_path" d="M39.04,15.75c0.07,0.61,0.32,1.78-0.14,2.44c-5.94,8.37-11.97,14.3-26.4,23.35" id="Ske2qdv492w" kvg:type="㇒" transform="matrix(1,0,0,1,996,-4)" xmlns:kvg="http://kanjivg.tagaini.net"></path><path class="stroke_order_diagram--existing_path" d="M17.5,19.25c31.8,22.54,19.65,81.57,6.47,69.07" id="Ske2qdv492x" kvg:type="㇕va" transform="matrix(1,0,0,1,996,-4)" xmlns:kvg="http://kanjivg.tagaini.net"></path><path class="stroke_order_diagram--existing_path" d="M31.84,43c0.04,0.65,0.2,1.9-0.09,2.61c-3.71,8.94-7.48,15.27-16.5,24.94" id="Ske2qdv492y" kvg:type="㇒" transform="matrix(1,0,0,1,996,-4)" xmlns:kvg="http://kanjivg.tagaini.net"></path><path class="stroke_order_diagram--existing_path" d="M66.64,13.5c0.49,0.47,1.3,2.26,1.3,3.19c0,3.41-0.06,6.56-0.06,9.57" id="Ske2qdv492z" kvg:type="㇑a" transform="matrix(1,0,0,1,996,-4)" xmlns:kvg="http://kanjivg.tagaini.net"></path><path class="stroke_order_diagram--existing_path" d="M43.46,27.94c1.79,0.06,4.4,0.53,5.71,0.42c10.54-0.88,25.98-1.93,39.35-2.16c2.21-0.04,3.34,0.04,4.99,0.54" id="Ske2qdv4930" kvg:type="㇐" transform="matrix(1,0,0,1,996,-4)" xmlns:kvg="http://kanjivg.tagaini.net"></path><path class="stroke_order_diagram--existing_path" d="M57.11,32.49c0,0.56,0.03,1-0.08,1.67c-0.58,3.48-6.07,15.07-10.77,20.22" id="Ske2qdv4931" kvg:type="㇒" transform="matrix(1,0,0,1,996,-4)" xmlns:kvg="http://kanjivg.tagaini.net"></path><path class="stroke_order_diagram--existing_path" d="M56.8,42.21c3.16,1.42,7.19,5.2,8.73,8.79" id="Ske2qdv4932" kvg:type="㇏" transform="matrix(1,0,0,1,996,-4)" xmlns:kvg="http://kanjivg.tagaini.net"></path><path class="stroke_order_diagram--existing_path" d="M80.85,32.49c0,0.47,0.03,0.84-0.08,1.4c-0.57,2.92-5.95,12.66-10.56,16.98" id="Ske2qdv4933" kvg:type="㇒" transform="matrix(1,0,0,1,996,-4)" xmlns:kvg="http://kanjivg.tagaini.net"></path><path class="stroke_order_diagram--existing_path" d="M80.36,41.71c3.63,1.62,8.27,5.94,10.04,10.04" id="Ske2qdv4934" kvg:type="㇏" transform="matrix(1,0,0,1,996,-4)" xmlns:kvg="http://kanjivg.tagaini.net"></path><path class="stroke_order_diagram--existing_path" d="M43.5,68.93c1.26,0.45,3.57,0.57,4.82,0.45c15.99-1.48,34.49-3.29,45.53-3.47c2.09-0.03,3.35,0.22,4.4,0.45" id="Ske2qdv4935" kvg:type="㇐" transform="matrix(1,0,0,1,996,-4)" xmlns:kvg="http://kanjivg.tagaini.net"></path><path class="stroke_order_diagram--current_path" d="M67.64,58c0.67,0.56,1.71,1.5,1.71,4.3c0,1.13-0.09,28.21-0.22,35.2" id="kvg:0731d-s11" kvg:type="㇑" transform="matrix(1,0,0,1,996,-4)" xmlns:kvg="http://kanjivg.tagaini.net"></path><path class="stroke_order_diagram--current_path" d="M67.64,58c0.67,0.56,1.71,1.5,1.71,4.3c0,1.13-0.09,28.21-0.22,35.2" id="Ske2qdv4937" kvg:type="㇑" transform="matrix(1,0,0,1,996,-4)" xmlns:kvg="http://kanjivg.tagaini.net"></path><circle class="stroke_order_diagram--path_start" cx="67.64" cy="58" r="4" transform="matrix(1,0,0,1,996,-4)"></circle></svg>