<svg class="stroke_order_diagram--svg_container_for_518662b0d5dda796580011a2" style="height: 100px; width: 1200px;" viewbox="0 0 1200 100"><desc>Created with Snap</desc><defs></defs><line class="stroke_order_diagram--bounding_box" x1="1" x2="1199" y1="1" y2="1"></line><line class="stroke_order_diagram--bounding_box" x1="1" x2="1" y1="1" y2="99"></line><line class="stroke_order_diagram--bounding_box" x1="1" x2="1199" y1="99" y2="99"></line><line class="stroke_order_diagram--guide_line" x1="0" x2="1200" y1="50" y2="50"></line><line class="stroke_order_diagram--guide_line" x1="50" x2="50" y1="1" y2="99"></line><line class="stroke_order_diagram--bounding_box" x1="99" x2="99" y1="1" y2="99"></line><path class="stroke_order_diagram--current_path" d="M34.57,18.25c0.06,0.58,0.25,1.71-0.11,2.35c-4.66,8.05-9.39,13.74-20.71,22.45" id="kvg:07334-s1" kvg:type="㇒" transform="matrix(1,0,0,1,-4,-4)" xmlns:kvg="http://kanjivg.tagaini.net"></path><path class="stroke_order_diagram--current_path" d="M34.57,18.25c0.06,0.58,0.25,1.71-0.11,2.35c-4.66,8.05-9.39,13.74-20.71,22.45" id="Ske2qe4k7l" kvg:type="㇒" transform="matrix(1,0,0,1,-4,-4)" xmlns:kvg="http://kanjivg.tagaini.net"></path><circle class="stroke_order_diagram--path_start" cx="34.57" cy="18.25" r="4" transform="matrix(1,0,0,1,-4,-4)"></circle><line class="stroke_order_diagram--guide_line" x1="150" x2="150" y1="1" y2="99"></line><line class="stroke_order_diagram--bounding_box" x1="199" x2="199" y1="1" y2="99"></line><path class="stroke_order_diagram--existing_path" d="M34.57,18.25c0.06,0.58,0.25,1.71-0.11,2.35c-4.66,8.05-9.39,13.74-20.71,22.45" id="Ske2qe4k7o" kvg:type="㇒" transform="matrix(1,0,0,1,96,-4)" xmlns:kvg="http://kanjivg.tagaini.net"></path><path class="stroke_order_diagram--current_path" d="M15,20.25C44.43,42.24,36.5,103,20.99,87.62" id="kvg:07334-s2" kvg:type="㇕va" transform="matrix(1,0,0,1,96,-4)" xmlns:kvg="http://kanjivg.tagaini.net"></path><path class="stroke_order_diagram--current_path" d="M15,20.25C44.43,42.24,36.5,103,20.99,87.62" id="Ske2qe4k7q" kvg:type="㇕va" transform="matrix(1,0,0,1,96,-4)" xmlns:kvg="http://kanjivg.tagaini.net"></path><circle class="stroke_order_diagram--path_start" cx="15" cy="20.25" r="4" transform="matrix(1,0,0,1,96,-4)"></circle><line class="stroke_order_diagram--guide_line" x1="250" x2="250" y1="1" y2="99"></line><line class="stroke_order_diagram--bounding_box" x1="299" x2="299" y1="1" y2="99"></line><path class="stroke_order_diagram--existing_path" d="M34.57,18.25c0.06,0.58,0.25,1.71-0.11,2.35c-4.66,8.05-9.39,13.74-20.71,22.45" id="Ske2qe4k7t" kvg:type="㇒" transform="matrix(1,0,0,1,196,-4)" xmlns:kvg="http://kanjivg.tagaini.net"></path><path class="stroke_order_diagram--existing_path" d="M15,20.25C44.43,42.24,36.5,103,20.99,87.62" id="Ske2qe4k7u" kvg:type="㇕va" transform="matrix(1,0,0,1,196,-4)" xmlns:kvg="http://kanjivg.tagaini.net"></path><path class="stroke_order_diagram--current_path" d="M28.35,45c0.04,0.62,0.18,1.82-0.08,2.49c-3.38,8.54-6.81,14.57-15.02,23.81" id="kvg:07334-s3" kvg:type="㇒" transform="matrix(1,0,0,1,196,-4)" xmlns:kvg="http://kanjivg.tagaini.net"></path><path class="stroke_order_diagram--current_path" d="M28.35,45c0.04,0.62,0.18,1.82-0.08,2.49c-3.38,8.54-6.81,14.57-15.02,23.81" id="Ske2qe4k7w" kvg:type="㇒" transform="matrix(1,0,0,1,196,-4)" xmlns:kvg="http://kanjivg.tagaini.net"></path><circle class="stroke_order_diagram--path_start" cx="28.35" cy="45" r="4" transform="matrix(1,0,0,1,196,-4)"></circle><line class="stroke_order_diagram--guide_line" x1="350" x2="350" y1="1" y2="99"></line><line class="stroke_order_diagram--bounding_box" x1="399" x2="399" y1="1" y2="99"></line><path class="stroke_order_diagram--existing_path" d="M34.57,18.25c0.06,0.58,0.25,1.71-0.11,2.35c-4.66,8.05-9.39,13.74-20.71,22.45" id="Ske2qe4k7z" kvg:type="㇒" transform="matrix(1,0,0,1,296,-4)" xmlns:kvg="http://kanjivg.tagaini.net"></path><path class="stroke_order_diagram--existing_path" d="M15,20.25C44.43,42.24,36.5,103,20.99,87.62" id="Ske2qe4k710" kvg:type="㇕va" transform="matrix(1,0,0,1,296,-4)" xmlns:kvg="http://kanjivg.tagaini.net"></path><path class="stroke_order_diagram--existing_path" d="M28.35,45c0.04,0.62,0.18,1.82-0.08,2.49c-3.38,8.54-6.81,14.57-15.02,23.81" id="Ske2qe4k711" kvg:type="㇒" transform="matrix(1,0,0,1,296,-4)" xmlns:kvg="http://kanjivg.tagaini.net"></path><path class="stroke_order_diagram--current_path" d="M54.12,17.5c0.16,1.66-0.04,3.83-0.55,5.24c-3.25,9.04-7.37,17.54-14.82,28.55" id="kvg:07334-s4" kvg:type="㇒" transform="matrix(1,0,0,1,296,-4)" xmlns:kvg="http://kanjivg.tagaini.net"></path><path class="stroke_order_diagram--current_path" d="M54.12,17.5c0.16,1.66-0.04,3.83-0.55,5.24c-3.25,9.04-7.37,17.54-14.82,28.55" id="Ske2qe4k713" kvg:type="㇒" transform="matrix(1,0,0,1,296,-4)" xmlns:kvg="http://kanjivg.tagaini.net"></path><circle class="stroke_order_diagram--path_start" cx="54.12" cy="17.5" r="4" transform="matrix(1,0,0,1,296,-4)"></circle><line class="stroke_order_diagram--guide_line" x1="450" x2="450" y1="1" y2="99"></line><line class="stroke_order_diagram--bounding_box" x1="499" x2="499" y1="1" y2="99"></line><path class="stroke_order_diagram--existing_path" d="M34.57,18.25c0.06,0.58,0.25,1.71-0.11,2.35c-4.66,8.05-9.39,13.74-20.71,22.45" id="Ske2qe4k716" kvg:type="㇒" transform="matrix(1,0,0,1,396,-4)" xmlns:kvg="http://kanjivg.tagaini.net"></path><path class="stroke_order_diagram--existing_path" d="M15,20.25C44.43,42.24,36.5,103,20.99,87.62" id="Ske2qe4k717" kvg:type="㇕va" transform="matrix(1,0,0,1,396,-4)" xmlns:kvg="http://kanjivg.tagaini.net"></path><path class="stroke_order_diagram--existing_path" d="M28.35,45c0.04,0.62,0.18,1.82-0.08,2.49c-3.38,8.54-6.81,14.57-15.02,23.81" id="Ske2qe4k718" kvg:type="㇒" transform="matrix(1,0,0,1,396,-4)" xmlns:kvg="http://kanjivg.tagaini.net"></path><path class="stroke_order_diagram--existing_path" d="M54.12,17.5c0.16,1.66-0.04,3.83-0.55,5.24c-3.25,9.04-7.37,17.54-14.82,28.55" id="Ske2qe4k719" kvg:type="㇒" transform="matrix(1,0,0,1,396,-4)" xmlns:kvg="http://kanjivg.tagaini.net"></path><path class="stroke_order_diagram--current_path" d="M47.31,42.5c0.7,0.61,0.9,1.97,0.9,3.23c0,13.52-0.05,40.52-0.05,48.02" id="kvg:07334-s5" kvg:type="㇑" transform="matrix(1,0,0,1,396,-4)" xmlns:kvg="http://kanjivg.tagaini.net"></path><path class="stroke_order_diagram--current_path" d="M47.31,42.5c0.7,0.61,0.9,1.97,0.9,3.23c0,13.52-0.05,40.52-0.05,48.02" id="Ske2qe4k71b" kvg:type="㇑" transform="matrix(1,0,0,1,396,-4)" xmlns:kvg="http://kanjivg.tagaini.net"></path><circle class="stroke_order_diagram--path_start" cx="47.31" cy="42.5" r="4" transform="matrix(1,0,0,1,396,-4)"></circle><line class="stroke_order_diagram--guide_line" x1="550" x2="550" y1="1" y2="99"></line><line class="stroke_order_diagram--bounding_box" x1="599" x2="599" y1="1" y2="99"></line><path class="stroke_order_diagram--existing_path" d="M34.57,18.25c0.06,0.58,0.25,1.71-0.11,2.35c-4.66,8.05-9.39,13.74-20.71,22.45" id="Ske2qe4k71e" kvg:type="㇒" transform="matrix(1,0,0,1,496,-4)" xmlns:kvg="http://kanjivg.tagaini.net"></path><path class="stroke_order_diagram--existing_path" d="M15,20.25C44.43,42.24,36.5,103,20.99,87.62" id="Ske2qe4k71f" kvg:type="㇕va" transform="matrix(1,0,0,1,496,-4)" xmlns:kvg="http://kanjivg.tagaini.net"></path><path class="stroke_order_diagram--existing_path" d="M28.35,45c0.04,0.62,0.18,1.82-0.08,2.49c-3.38,8.54-6.81,14.57-15.02,23.81" id="Ske2qe4k71g" kvg:type="㇒" transform="matrix(1,0,0,1,496,-4)" xmlns:kvg="http://kanjivg.tagaini.net"></path><path class="stroke_order_diagram--existing_path" d="M54.12,17.5c0.16,1.66-0.04,3.83-0.55,5.24c-3.25,9.04-7.37,17.54-14.82,28.55" id="Ske2qe4k71h" kvg:type="㇒" transform="matrix(1,0,0,1,496,-4)" xmlns:kvg="http://kanjivg.tagaini.net"></path><path class="stroke_order_diagram--existing_path" d="M47.31,42.5c0.7,0.61,0.9,1.97,0.9,3.23c0,13.52-0.05,40.52-0.05,48.02" id="Ske2qe4k71i" kvg:type="㇑" transform="matrix(1,0,0,1,496,-4)" xmlns:kvg="http://kanjivg.tagaini.net"></path><path class="stroke_order_diagram--current_path" d="M61.17,18.65c0.83,0.6,3.34,0.71,3.89,0.66c6.34-0.57,14.81-2.46,18.74-2.82c1.3-0.12,2.73,1.91,2.38,3.29c-1.39,5.46-1.09,5.96-2.57,10.85" id="kvg:07334-s6" kvg:type="㇕" transform="matrix(1,0,0,1,496,-4)" xmlns:kvg="http://kanjivg.tagaini.net"></path><path class="stroke_order_diagram--current_path" d="M61.17,18.65c0.83,0.6,3.34,0.71,3.89,0.66c6.34-0.57,14.81-2.46,18.74-2.82c1.3-0.12,2.73,1.91,2.38,3.29c-1.39,5.46-1.09,5.96-2.57,10.85" id="Ske2qe4k71k" kvg:type="㇕" transform="matrix(1,0,0,1,496,-4)" xmlns:kvg="http://kanjivg.tagaini.net"></path><circle class="stroke_order_diagram--path_start" cx="61.17" cy="18.65" r="4" transform="matrix(1,0,0,1,496,-4)"></circle><line class="stroke_order_diagram--guide_line" x1="650" x2="650" y1="1" y2="99"></line><line class="stroke_order_diagram--bounding_box" x1="699" x2="699" y1="1" y2="99"></line><path class="stroke_order_diagram--existing_path" d="M34.57,18.25c0.06,0.58,0.25,1.71-0.11,2.35c-4.66,8.05-9.39,13.74-20.71,22.45" id="Ske2qe4k71n" kvg:type="㇒" transform="matrix(1,0,0,1,596,-4)" xmlns:kvg="http://kanjivg.tagaini.net"></path><path class="stroke_order_diagram--existing_path" d="M15,20.25C44.43,42.24,36.5,103,20.99,87.62" id="Ske2qe4k71o" kvg:type="㇕va" transform="matrix(1,0,0,1,596,-4)" xmlns:kvg="http://kanjivg.tagaini.net"></path><path class="stroke_order_diagram--existing_path" d="M28.35,45c0.04,0.62,0.18,1.82-0.08,2.49c-3.38,8.54-6.81,14.57-15.02,23.81" id="Ske2qe4k71p" kvg:type="㇒" transform="matrix(1,0,0,1,596,-4)" xmlns:kvg="http://kanjivg.tagaini.net"></path><path class="stroke_order_diagram--existing_path" d="M54.12,17.5c0.16,1.66-0.04,3.83-0.55,5.24c-3.25,9.04-7.37,17.54-14.82,28.55" id="Ske2qe4k71q" kvg:type="㇒" transform="matrix(1,0,0,1,596,-4)" xmlns:kvg="http://kanjivg.tagaini.net"></path><path class="stroke_order_diagram--existing_path" d="M47.31,42.5c0.7,0.61,0.9,1.97,0.9,3.23c0,13.52-0.05,40.52-0.05,48.02" id="Ske2qe4k71r" kvg:type="㇑" transform="matrix(1,0,0,1,596,-4)" xmlns:kvg="http://kanjivg.tagaini.net"></path><path class="stroke_order_diagram--existing_path" d="M61.17,18.65c0.83,0.6,3.34,0.71,3.89,0.66c6.34-0.57,14.81-2.46,18.74-2.82c1.3-0.12,2.73,1.91,2.38,3.29c-1.39,5.46-1.09,5.96-2.57,10.85" id="Ske2qe4k71s" kvg:type="㇕" transform="matrix(1,0,0,1,596,-4)" xmlns:kvg="http://kanjivg.tagaini.net"></path><path class="stroke_order_diagram--current_path" d="M56.18,32.69c1.04,0.48,2.96,0.57,4,0.48c10.86-1,22.51-2.25,33.47-2.56c1.74-0.05,2.78,0.23,3.65,0.47" id="kvg:07334-s7" kvg:type="㇐" transform="matrix(1,0,0,1,596,-4)" xmlns:kvg="http://kanjivg.tagaini.net"></path><path class="stroke_order_diagram--current_path" d="M56.18,32.69c1.04,0.48,2.96,0.57,4,0.48c10.86-1,22.51-2.25,33.47-2.56c1.74-0.05,2.78,0.23,3.65,0.47" id="Ske2qe4k71u" kvg:type="㇐" transform="matrix(1,0,0,1,596,-4)" xmlns:kvg="http://kanjivg.tagaini.net"></path><circle class="stroke_order_diagram--path_start" cx="56.18" cy="32.69" r="4" transform="matrix(1,0,0,1,596,-4)"></circle><line class="stroke_order_diagram--guide_line" x1="750" x2="750" y1="1" y2="99"></line><line class="stroke_order_diagram--bounding_box" x1="799" x2="799" y1="1" y2="99"></line><path class="stroke_order_diagram--existing_path" d="M34.57,18.25c0.06,0.58,0.25,1.71-0.11,2.35c-4.66,8.05-9.39,13.74-20.71,22.45" id="Ske2qe4k71x" kvg:type="㇒" transform="matrix(1,0,0,1,696,-4)" xmlns:kvg="http://kanjivg.tagaini.net"></path><path class="stroke_order_diagram--existing_path" d="M15,20.25C44.43,42.24,36.5,103,20.99,87.62" id="Ske2qe4k71y" kvg:type="㇕va" transform="matrix(1,0,0,1,696,-4)" xmlns:kvg="http://kanjivg.tagaini.net"></path><path class="stroke_order_diagram--existing_path" d="M28.35,45c0.04,0.62,0.18,1.82-0.08,2.49c-3.38,8.54-6.81,14.57-15.02,23.81" id="Ske2qe4k71z" kvg:type="㇒" transform="matrix(1,0,0,1,696,-4)" xmlns:kvg="http://kanjivg.tagaini.net"></path><path class="stroke_order_diagram--existing_path" d="M54.12,17.5c0.16,1.66-0.04,3.83-0.55,5.24c-3.25,9.04-7.37,17.54-14.82,28.55" id="Ske2qe4k720" kvg:type="㇒" transform="matrix(1,0,0,1,696,-4)" xmlns:kvg="http://kanjivg.tagaini.net"></path><path class="stroke_order_diagram--existing_path" d="M47.31,42.5c0.7,0.61,0.9,1.97,0.9,3.23c0,13.52-0.05,40.52-0.05,48.02" id="Ske2qe4k721" kvg:type="㇑" transform="matrix(1,0,0,1,696,-4)" xmlns:kvg="http://kanjivg.tagaini.net"></path><path class="stroke_order_diagram--existing_path" d="M61.17,18.65c0.83,0.6,3.34,0.71,3.89,0.66c6.34-0.57,14.81-2.46,18.74-2.82c1.3-0.12,2.73,1.91,2.38,3.29c-1.39,5.46-1.09,5.96-2.57,10.85" id="Ske2qe4k722" kvg:type="㇕" transform="matrix(1,0,0,1,696,-4)" xmlns:kvg="http://kanjivg.tagaini.net"></path><path class="stroke_order_diagram--existing_path" d="M56.18,32.69c1.04,0.48,2.96,0.57,4,0.48c10.86-1,22.51-2.25,33.47-2.56c1.74-0.05,2.78,0.23,3.65,0.47" id="Ske2qe4k723" kvg:type="㇐" transform="matrix(1,0,0,1,696,-4)" xmlns:kvg="http://kanjivg.tagaini.net"></path><path class="stroke_order_diagram--current_path" d="M64,37.5c0.03,0.48,0.06,1.24-0.05,1.93c-0.66,4.07-4.78,14.09-8.89,17.8" id="kvg:07334-s8" kvg:type="㇒" transform="matrix(1,0,0,1,696,-4)" xmlns:kvg="http://kanjivg.tagaini.net"></path><path class="stroke_order_diagram--current_path" d="M64,37.5c0.03,0.48,0.06,1.24-0.05,1.93c-0.66,4.07-4.78,14.09-8.89,17.8" id="Ske2qe4k725" kvg:type="㇒" transform="matrix(1,0,0,1,696,-4)" xmlns:kvg="http://kanjivg.tagaini.net"></path><circle class="stroke_order_diagram--path_start" cx="64" cy="37.5" r="4" transform="matrix(1,0,0,1,696,-4)"></circle><line class="stroke_order_diagram--guide_line" x1="850" x2="850" y1="1" y2="99"></line><line class="stroke_order_diagram--bounding_box" x1="899" x2="899" y1="1" y2="99"></line><path class="stroke_order_diagram--existing_path" d="M34.57,18.25c0.06,0.58,0.25,1.71-0.11,2.35c-4.66,8.05-9.39,13.74-20.71,22.45" id="Ske2qe4k728" kvg:type="㇒" transform="matrix(1,0,0,1,796,-4)" xmlns:kvg="http://kanjivg.tagaini.net"></path><path class="stroke_order_diagram--existing_path" d="M15,20.25C44.43,42.24,36.5,103,20.99,87.62" id="Ske2qe4k729" kvg:type="㇕va" transform="matrix(1,0,0,1,796,-4)" xmlns:kvg="http://kanjivg.tagaini.net"></path><path class="stroke_order_diagram--existing_path" d="M28.35,45c0.04,0.62,0.18,1.82-0.08,2.49c-3.38,8.54-6.81,14.57-15.02,23.81" id="Ske2qe4k72a" kvg:type="㇒" transform="matrix(1,0,0,1,796,-4)" xmlns:kvg="http://kanjivg.tagaini.net"></path><path class="stroke_order_diagram--existing_path" d="M54.12,17.5c0.16,1.66-0.04,3.83-0.55,5.24c-3.25,9.04-7.37,17.54-14.82,28.55" id="Ske2qe4k72b" kvg:type="㇒" transform="matrix(1,0,0,1,796,-4)" xmlns:kvg="http://kanjivg.tagaini.net"></path><path class="stroke_order_diagram--existing_path" d="M47.31,42.5c0.7,0.61,0.9,1.97,0.9,3.23c0,13.52-0.05,40.52-0.05,48.02" id="Ske2qe4k72c" kvg:type="㇑" transform="matrix(1,0,0,1,796,-4)" xmlns:kvg="http://kanjivg.tagaini.net"></path><path class="stroke_order_diagram--existing_path" d="M61.17,18.65c0.83,0.6,3.34,0.71,3.89,0.66c6.34-0.57,14.81-2.46,18.74-2.82c1.3-0.12,2.73,1.91,2.38,3.29c-1.39,5.46-1.09,5.96-2.57,10.85" id="Ske2qe4k72d" kvg:type="㇕" transform="matrix(1,0,0,1,796,-4)" xmlns:kvg="http://kanjivg.tagaini.net"></path><path class="stroke_order_diagram--existing_path" d="M56.18,32.69c1.04,0.48,2.96,0.57,4,0.48c10.86-1,22.51-2.25,33.47-2.56c1.74-0.05,2.78,0.23,3.65,0.47" id="Ske2qe4k72e" kvg:type="㇐" transform="matrix(1,0,0,1,796,-4)" xmlns:kvg="http://kanjivg.tagaini.net"></path><path class="stroke_order_diagram--existing_path" d="M64,37.5c0.03,0.48,0.06,1.24-0.05,1.93c-0.66,4.07-4.78,14.09-8.89,17.8" id="Ske2qe4k72f" kvg:type="㇒" transform="matrix(1,0,0,1,796,-4)" xmlns:kvg="http://kanjivg.tagaini.net"></path><path class="stroke_order_diagram--current_path" d="M64.66,45.54c0.75,0.2,2.14,0.29,2.89,0.2c3.05-0.38,15.04-1.74,19.75-2.4c1.23-0.17,2.02-0.23,2.65-0.13" id="kvg:07334-s9" kvg:type="㇐" transform="matrix(1,0,0,1,796,-4)" xmlns:kvg="http://kanjivg.tagaini.net"></path><path class="stroke_order_diagram--current_path" d="M64.66,45.54c0.75,0.2,2.14,0.29,2.89,0.2c3.05-0.38,15.04-1.74,19.75-2.4c1.23-0.17,2.02-0.23,2.65-0.13" id="Ske2qe4k72h" kvg:type="㇐" transform="matrix(1,0,0,1,796,-4)" xmlns:kvg="http://kanjivg.tagaini.net"></path><circle class="stroke_order_diagram--path_start" cx="64.66" cy="45.54" r="4" transform="matrix(1,0,0,1,796,-4)"></circle><line class="stroke_order_diagram--guide_line" x1="950" x2="950" y1="1" y2="99"></line><line class="stroke_order_diagram--bounding_box" x1="999" x2="999" y1="1" y2="99"></line><path class="stroke_order_diagram--existing_path" d="M34.57,18.25c0.06,0.58,0.25,1.71-0.11,2.35c-4.66,8.05-9.39,13.74-20.71,22.45" id="Ske2qe4k72k" kvg:type="㇒" transform="matrix(1,0,0,1,896,-4)" xmlns:kvg="http://kanjivg.tagaini.net"></path><path class="stroke_order_diagram--existing_path" d="M15,20.25C44.43,42.24,36.5,103,20.99,87.62" id="Ske2qe4k72l" kvg:type="㇕va" transform="matrix(1,0,0,1,896,-4)" xmlns:kvg="http://kanjivg.tagaini.net"></path><path class="stroke_order_diagram--existing_path" d="M28.35,45c0.04,0.62,0.18,1.82-0.08,2.49c-3.38,8.54-6.81,14.57-15.02,23.81" id="Ske2qe4k72m" kvg:type="㇒" transform="matrix(1,0,0,1,896,-4)" xmlns:kvg="http://kanjivg.tagaini.net"></path><path class="stroke_order_diagram--existing_path" d="M54.12,17.5c0.16,1.66-0.04,3.83-0.55,5.24c-3.25,9.04-7.37,17.54-14.82,28.55" id="Ske2qe4k72n" kvg:type="㇒" transform="matrix(1,0,0,1,896,-4)" xmlns:kvg="http://kanjivg.tagaini.net"></path><path class="stroke_order_diagram--existing_path" d="M47.31,42.5c0.7,0.61,0.9,1.97,0.9,3.23c0,13.52-0.05,40.52-0.05,48.02" id="Ske2qe4k72o" kvg:type="㇑" transform="matrix(1,0,0,1,896,-4)" xmlns:kvg="http://kanjivg.tagaini.net"></path><path class="stroke_order_diagram--existing_path" d="M61.17,18.65c0.83,0.6,3.34,0.71,3.89,0.66c6.34-0.57,14.81-2.46,18.74-2.82c1.3-0.12,2.73,1.91,2.38,3.29c-1.39,5.46-1.09,5.96-2.57,10.85" id="Ske2qe4k72p" kvg:type="㇕" transform="matrix(1,0,0,1,896,-4)" xmlns:kvg="http://kanjivg.tagaini.net"></path><path class="stroke_order_diagram--existing_path" d="M56.18,32.69c1.04,0.48,2.96,0.57,4,0.48c10.86-1,22.51-2.25,33.47-2.56c1.74-0.05,2.78,0.23,3.65,0.47" id="Ske2qe4k72q" kvg:type="㇐" transform="matrix(1,0,0,1,896,-4)" xmlns:kvg="http://kanjivg.tagaini.net"></path><path class="stroke_order_diagram--existing_path" d="M64,37.5c0.03,0.48,0.06,1.24-0.05,1.93c-0.66,4.07-4.78,14.09-8.89,17.8" id="Ske2qe4k72r" kvg:type="㇒" transform="matrix(1,0,0,1,896,-4)" xmlns:kvg="http://kanjivg.tagaini.net"></path><path class="stroke_order_diagram--existing_path" d="M64.66,45.54c0.75,0.2,2.14,0.29,2.89,0.2c3.05-0.38,15.04-1.74,19.75-2.4c1.23-0.17,2.02-0.23,2.65-0.13" id="Ske2qe4k72s" kvg:type="㇐" transform="matrix(1,0,0,1,896,-4)" xmlns:kvg="http://kanjivg.tagaini.net"></path><path class="stroke_order_diagram--current_path" d="M54.01,62.83c0.7,0.15,3.28,0.24,4.04,0.2c12.34-0.54,25.85-2.36,35.03-2.49c0.98-0.01,2.36,0.06,4.54,0.3" id="kvg:07334-s10" kvg:type="㇐" transform="matrix(1,0,0,1,896,-4)" xmlns:kvg="http://kanjivg.tagaini.net"></path><path class="stroke_order_diagram--current_path" d="M54.01,62.83c0.7,0.15,3.28,0.24,4.04,0.2c12.34-0.54,25.85-2.36,35.03-2.49c0.98-0.01,2.36,0.06,4.54,0.3" id="Ske2qe4k72u" kvg:type="㇐" transform="matrix(1,0,0,1,896,-4)" xmlns:kvg="http://kanjivg.tagaini.net"></path><circle class="stroke_order_diagram--path_start" cx="54.01" cy="62.83" r="4" transform="matrix(1,0,0,1,896,-4)"></circle><line class="stroke_order_diagram--guide_line" x1="1050" x2="1050" y1="1" y2="99"></line><line class="stroke_order_diagram--bounding_box" x1="1099" x2="1099" y1="1" y2="99"></line><path class="stroke_order_diagram--existing_path" d="M34.57,18.25c0.06,0.58,0.25,1.71-0.11,2.35c-4.66,8.05-9.39,13.74-20.71,22.45" id="Ske2qe4k72x" kvg:type="㇒" transform="matrix(1,0,0,1,996,-4)" xmlns:kvg="http://kanjivg.tagaini.net"></path><path class="stroke_order_diagram--existing_path" d="M15,20.25C44.43,42.24,36.5,103,20.99,87.62" id="Ske2qe4k72y" kvg:type="㇕va" transform="matrix(1,0,0,1,996,-4)" xmlns:kvg="http://kanjivg.tagaini.net"></path><path class="stroke_order_diagram--existing_path" d="M28.35,45c0.04,0.62,0.18,1.82-0.08,2.49c-3.38,8.54-6.81,14.57-15.02,23.81" id="Ske2qe4k72z" kvg:type="㇒" transform="matrix(1,0,0,1,996,-4)" xmlns:kvg="http://kanjivg.tagaini.net"></path><path class="stroke_order_diagram--existing_path" d="M54.12,17.5c0.16,1.66-0.04,3.83-0.55,5.24c-3.25,9.04-7.37,17.54-14.82,28.55" id="Ske2qe4k730" kvg:type="㇒" transform="matrix(1,0,0,1,996,-4)" xmlns:kvg="http://kanjivg.tagaini.net"></path><path class="stroke_order_diagram--existing_path" d="M47.31,42.5c0.7,0.61,0.9,1.97,0.9,3.23c0,13.52-0.05,40.52-0.05,48.02" id="Ske2qe4k731" kvg:type="㇑" transform="matrix(1,0,0,1,996,-4)" xmlns:kvg="http://kanjivg.tagaini.net"></path><path class="stroke_order_diagram--existing_path" d="M61.17,18.65c0.83,0.6,3.34,0.71,3.89,0.66c6.34-0.57,14.81-2.46,18.74-2.82c1.3-0.12,2.73,1.91,2.38,3.29c-1.39,5.46-1.09,5.96-2.57,10.85" id="Ske2qe4k732" kvg:type="㇕" transform="matrix(1,0,0,1,996,-4)" xmlns:kvg="http://kanjivg.tagaini.net"></path><path class="stroke_order_diagram--existing_path" d="M56.18,32.69c1.04,0.48,2.96,0.57,4,0.48c10.86-1,22.51-2.25,33.47-2.56c1.74-0.05,2.78,0.23,3.65,0.47" id="Ske2qe4k733" kvg:type="㇐" transform="matrix(1,0,0,1,996,-4)" xmlns:kvg="http://kanjivg.tagaini.net"></path><path class="stroke_order_diagram--existing_path" d="M64,37.5c0.03,0.48,0.06,1.24-0.05,1.93c-0.66,4.07-4.78,14.09-8.89,17.8" id="Ske2qe4k734" kvg:type="㇒" transform="matrix(1,0,0,1,996,-4)" xmlns:kvg="http://kanjivg.tagaini.net"></path><path class="stroke_order_diagram--existing_path" d="M64.66,45.54c0.75,0.2,2.14,0.29,2.89,0.2c3.05-0.38,15.04-1.74,19.75-2.4c1.23-0.17,2.02-0.23,2.65-0.13" id="Ske2qe4k735" kvg:type="㇐" transform="matrix(1,0,0,1,996,-4)" xmlns:kvg="http://kanjivg.tagaini.net"></path><path class="stroke_order_diagram--existing_path" d="M54.01,62.83c0.7,0.15,3.28,0.24,4.04,0.2c12.34-0.54,25.85-2.36,35.03-2.49c0.98-0.01,2.36,0.06,4.54,0.3" id="Ske2qe4k736" kvg:type="㇐" transform="matrix(1,0,0,1,996,-4)" xmlns:kvg="http://kanjivg.tagaini.net"></path><path class="stroke_order_diagram--current_path" d="M73.35,48.05c0.51,0.95,0.61,2.36,0.53,3.7c-1.13,19.5-4.46,35.5-16.59,42.92" id="kvg:07334-s11" kvg:type="㇒" transform="matrix(1,0,0,1,996,-4)" xmlns:kvg="http://kanjivg.tagaini.net"></path><path class="stroke_order_diagram--current_path" d="M73.35,48.05c0.51,0.95,0.61,2.36,0.53,3.7c-1.13,19.5-4.46,35.5-16.59,42.92" id="Ske2qe4k738" kvg:type="㇒" transform="matrix(1,0,0,1,996,-4)" xmlns:kvg="http://kanjivg.tagaini.net"></path><circle class="stroke_order_diagram--path_start" cx="73.35" cy="48.05" r="4" transform="matrix(1,0,0,1,996,-4)"></circle><line class="stroke_order_diagram--guide_line" x1="1150" x2="1150" y1="1" y2="99"></line><line class="stroke_order_diagram--bounding_box" x1="1199" x2="1199" y1="1" y2="99"></line><path class="stroke_order_diagram--existing_path" d="M34.57,18.25c0.06,0.58,0.25,1.71-0.11,2.35c-4.66,8.05-9.39,13.74-20.71,22.45" id="Ske2qe4k73b" kvg:type="㇒" transform="matrix(1,0,0,1,1096,-4)" xmlns:kvg="http://kanjivg.tagaini.net"></path><path class="stroke_order_diagram--existing_path" d="M15,20.25C44.43,42.24,36.5,103,20.99,87.62" id="Ske2qe4k73c" kvg:type="㇕va" transform="matrix(1,0,0,1,1096,-4)" xmlns:kvg="http://kanjivg.tagaini.net"></path><path class="stroke_order_diagram--existing_path" d="M28.35,45c0.04,0.62,0.18,1.82-0.08,2.49c-3.38,8.54-6.81,14.57-15.02,23.81" id="Ske2qe4k73d" kvg:type="㇒" transform="matrix(1,0,0,1,1096,-4)" xmlns:kvg="http://kanjivg.tagaini.net"></path><path class="stroke_order_diagram--existing_path" d="M54.12,17.5c0.16,1.66-0.04,3.83-0.55,5.24c-3.25,9.04-7.37,17.54-14.82,28.55" id="Ske2qe4k73e" kvg:type="㇒" transform="matrix(1,0,0,1,1096,-4)" xmlns:kvg="http://kanjivg.tagaini.net"></path><path class="stroke_order_diagram--existing_path" d="M47.31,42.5c0.7,0.61,0.9,1.97,0.9,3.23c0,13.52-0.05,40.52-0.05,48.02" id="Ske2qe4k73f" kvg:type="㇑" transform="matrix(1,0,0,1,1096,-4)" xmlns:kvg="http://kanjivg.tagaini.net"></path><path class="stroke_order_diagram--existing_path" d="M61.17,18.65c0.83,0.6,3.34,0.71,3.89,0.66c6.34-0.57,14.81-2.46,18.74-2.82c1.3-0.12,2.73,1.91,2.38,3.29c-1.39,5.46-1.09,5.96-2.57,10.85" id="Ske2qe4k73g" kvg:type="㇕" transform="matrix(1,0,0,1,1096,-4)" xmlns:kvg="http://kanjivg.tagaini.net"></path><path class="stroke_order_diagram--existing_path" d="M56.18,32.69c1.04,0.48,2.96,0.57,4,0.48c10.86-1,22.51-2.25,33.47-2.56c1.74-0.05,2.78,0.23,3.65,0.47" id="Ske2qe4k73h" kvg:type="㇐" transform="matrix(1,0,0,1,1096,-4)" xmlns:kvg="http://kanjivg.tagaini.net"></path><path class="stroke_order_diagram--existing_path" d="M64,37.5c0.03,0.48,0.06,1.24-0.05,1.93c-0.66,4.07-4.78,14.09-8.89,17.8" id="Ske2qe4k73i" kvg:type="㇒" transform="matrix(1,0,0,1,1096,-4)" xmlns:kvg="http://kanjivg.tagaini.net"></path><path class="stroke_order_diagram--existing_path" d="M64.66,45.54c0.75,0.2,2.14,0.29,2.89,0.2c3.05-0.38,15.04-1.74,19.75-2.4c1.23-0.17,2.02-0.23,2.65-0.13" id="Ske2qe4k73j" kvg:type="㇐" transform="matrix(1,0,0,1,1096,-4)" xmlns:kvg="http://kanjivg.tagaini.net"></path><path class="stroke_order_diagram--existing_path" d="M54.01,62.83c0.7,0.15,3.28,0.24,4.04,0.2c12.34-0.54,25.85-2.36,35.03-2.49c0.98-0.01,2.36,0.06,4.54,0.3" id="Ske2qe4k73k" kvg:type="㇐" transform="matrix(1,0,0,1,1096,-4)" xmlns:kvg="http://kanjivg.tagaini.net"></path><path class="stroke_order_diagram--existing_path" d="M73.35,48.05c0.51,0.95,0.61,2.36,0.53,3.7c-1.13,19.5-4.46,35.5-16.59,42.92" id="Ske2qe4k73l" kvg:type="㇒" transform="matrix(1,0,0,1,1096,-4)" xmlns:kvg="http://kanjivg.tagaini.net"></path><path class="stroke_order_diagram--current_path" d="M74.74,63.36c4.46,10.49,14.3,23.19,18.92,27.92c1.57,1.61,2.12,1.85,2.83,2" id="kvg:07334-s12" kvg:type="㇏" transform="matrix(1,0,0,1,1096,-4)" xmlns:kvg="http://kanjivg.tagaini.net"></path><path class="stroke_order_diagram--current_path" d="M74.74,63.36c4.46,10.49,14.3,23.19,18.92,27.92c1.57,1.61,2.12,1.85,2.83,2" id="Ske2qe4k73n" kvg:type="㇏" transform="matrix(1,0,0,1,1096,-4)" xmlns:kvg="http://kanjivg.tagaini.net"></path><circle class="stroke_order_diagram--path_start" cx="74.74" cy="63.36" r="4" transform="matrix(1,0,0,1,1096,-4)"></circle></svg>