<svg class="stroke_order_diagram--svg_container_for_518662b0d5dda796580011b9" style="height: 100px; width: 1000px;" viewbox="0 0 1000 100"><desc>Created with Snap</desc><defs></defs><line class="stroke_order_diagram--bounding_box" x1="1" x2="999" y1="1" y2="1"></line><line class="stroke_order_diagram--bounding_box" x1="1" x2="1" y1="1" y2="99"></line><line class="stroke_order_diagram--bounding_box" x1="1" x2="999" y1="99" y2="99"></line><line class="stroke_order_diagram--guide_line" x1="0" x2="1000" y1="50" y2="50"></line><line class="stroke_order_diagram--guide_line" x1="50" x2="50" y1="1" y2="99"></line><line class="stroke_order_diagram--bounding_box" x1="99" x2="99" y1="1" y2="99"></line><path class="stroke_order_diagram--current_path" d="M12.6,22.25c0.67,0.37,4.31,0.45,4.99,0.34c3.16-0.5,14.98-1.59,22.56-2.14c1.03-0.07,2.95-0.26,3.8,0.04" id="kvg:073de-s1" kvg:type="㇐" transform="matrix(1,0,0,1,-4,-4)" xmlns:kvg="http://kanjivg.tagaini.net"></path><path class="stroke_order_diagram--current_path" d="M12.6,22.25c0.67,0.37,4.31,0.45,4.99,0.34c3.16-0.5,14.98-1.59,22.56-2.14c1.03-0.07,2.95-0.26,3.8,0.04" id="Ske2qker5j" kvg:type="㇐" transform="matrix(1,0,0,1,-4,-4)" xmlns:kvg="http://kanjivg.tagaini.net"></path><circle class="stroke_order_diagram--path_start" cx="12.6" cy="22.25" r="4" transform="matrix(1,0,0,1,-4,-4)"></circle><line class="stroke_order_diagram--guide_line" x1="150" x2="150" y1="1" y2="99"></line><line class="stroke_order_diagram--bounding_box" x1="199" x2="199" y1="1" y2="99"></line><path class="stroke_order_diagram--existing_path" d="M12.6,22.25c0.67,0.37,4.31,0.45,4.99,0.34c3.16-0.5,14.98-1.59,22.56-2.14c1.03-0.07,2.95-0.26,3.8,0.04" id="Ske2qker5m" kvg:type="㇐" transform="matrix(1,0,0,1,96,-4)" xmlns:kvg="http://kanjivg.tagaini.net"></path><path class="stroke_order_diagram--current_path" d="M26.05,24.52c0.93,0.88,1.58,2.78,1.58,3.48c0,5.95,0.05,48.62-0.13,52.57" id="kvg:073de-s2" kvg:type="㇑a" transform="matrix(1,0,0,1,96,-4)" xmlns:kvg="http://kanjivg.tagaini.net"></path><path class="stroke_order_diagram--current_path" d="M26.05,24.52c0.93,0.88,1.58,2.78,1.58,3.48c0,5.95,0.05,48.62-0.13,52.57" id="Ske2qker5o" kvg:type="㇑a" transform="matrix(1,0,0,1,96,-4)" xmlns:kvg="http://kanjivg.tagaini.net"></path><circle class="stroke_order_diagram--path_start" cx="26.05" cy="24.52" r="4" transform="matrix(1,0,0,1,96,-4)"></circle><line class="stroke_order_diagram--guide_line" x1="250" x2="250" y1="1" y2="99"></line><line class="stroke_order_diagram--bounding_box" x1="299" x2="299" y1="1" y2="99"></line><path class="stroke_order_diagram--existing_path" d="M12.6,22.25c0.67,0.37,4.31,0.45,4.99,0.34c3.16-0.5,14.98-1.59,22.56-2.14c1.03-0.07,2.95-0.26,3.8,0.04" id="Ske2qker5r" kvg:type="㇐" transform="matrix(1,0,0,1,196,-4)" xmlns:kvg="http://kanjivg.tagaini.net"></path><path class="stroke_order_diagram--existing_path" d="M26.05,24.52c0.93,0.88,1.58,2.78,1.58,3.48c0,5.95,0.05,48.62-0.13,52.57" id="Ske2qker5s" kvg:type="㇑a" transform="matrix(1,0,0,1,196,-4)" xmlns:kvg="http://kanjivg.tagaini.net"></path><path class="stroke_order_diagram--current_path" d="M12.02,49c0.59,0.4,4.75,0.46,5.36,0.37c3.47-0.53,14.28-2.12,19.08-2.69c0.74-0.09,3.44-0.16,4.54,0.19" id="kvg:073de-s3" kvg:type="㇐" transform="matrix(1,0,0,1,196,-4)" xmlns:kvg="http://kanjivg.tagaini.net"></path><path class="stroke_order_diagram--current_path" d="M12.02,49c0.59,0.4,4.75,0.46,5.36,0.37c3.47-0.53,14.28-2.12,19.08-2.69c0.74-0.09,3.44-0.16,4.54,0.19" id="Ske2qker5u" kvg:type="㇐" transform="matrix(1,0,0,1,196,-4)" xmlns:kvg="http://kanjivg.tagaini.net"></path><circle class="stroke_order_diagram--path_start" cx="12.02" cy="49" r="4" transform="matrix(1,0,0,1,196,-4)"></circle><line class="stroke_order_diagram--guide_line" x1="350" x2="350" y1="1" y2="99"></line><line class="stroke_order_diagram--bounding_box" x1="399" x2="399" y1="1" y2="99"></line><path class="stroke_order_diagram--existing_path" d="M12.6,22.25c0.67,0.37,4.31,0.45,4.99,0.34c3.16-0.5,14.98-1.59,22.56-2.14c1.03-0.07,2.95-0.26,3.8,0.04" id="Ske2qker5x" kvg:type="㇐" transform="matrix(1,0,0,1,296,-4)" xmlns:kvg="http://kanjivg.tagaini.net"></path><path class="stroke_order_diagram--existing_path" d="M26.05,24.52c0.93,0.88,1.58,2.78,1.58,3.48c0,5.95,0.05,48.62-0.13,52.57" id="Ske2qker5y" kvg:type="㇑a" transform="matrix(1,0,0,1,296,-4)" xmlns:kvg="http://kanjivg.tagaini.net"></path><path class="stroke_order_diagram--existing_path" d="M12.02,49c0.59,0.4,4.75,0.46,5.36,0.37c3.47-0.53,14.28-2.12,19.08-2.69c0.74-0.09,3.44-0.16,4.54,0.19" id="Ske2qker5z" kvg:type="㇐" transform="matrix(1,0,0,1,296,-4)" xmlns:kvg="http://kanjivg.tagaini.net"></path><path class="stroke_order_diagram--current_path" d="M10.75,86.25c1.25,1,3.86,0.93,4.74,0.5C21.1,84,29.11,80,37.66,75.25" id="kvg:073de-s4" kvg:type="㇐" transform="matrix(1,0,0,1,296,-4)" xmlns:kvg="http://kanjivg.tagaini.net"></path><path class="stroke_order_diagram--current_path" d="M10.75,86.25c1.25,1,3.86,0.93,4.74,0.5C21.1,84,29.11,80,37.66,75.25" id="Ske2qker511" kvg:type="㇐" transform="matrix(1,0,0,1,296,-4)" xmlns:kvg="http://kanjivg.tagaini.net"></path><circle class="stroke_order_diagram--path_start" cx="10.75" cy="86.25" r="4" transform="matrix(1,0,0,1,296,-4)"></circle><line class="stroke_order_diagram--guide_line" x1="450" x2="450" y1="1" y2="99"></line><line class="stroke_order_diagram--bounding_box" x1="499" x2="499" y1="1" y2="99"></line><path class="stroke_order_diagram--existing_path" d="M12.6,22.25c0.67,0.37,4.31,0.45,4.99,0.34c3.16-0.5,14.98-1.59,22.56-2.14c1.03-0.07,2.95-0.26,3.8,0.04" id="Ske2qker514" kvg:type="㇐" transform="matrix(1,0,0,1,396,-4)" xmlns:kvg="http://kanjivg.tagaini.net"></path><path class="stroke_order_diagram--existing_path" d="M26.05,24.52c0.93,0.88,1.58,2.78,1.58,3.48c0,5.95,0.05,48.62-0.13,52.57" id="Ske2qker515" kvg:type="㇑a" transform="matrix(1,0,0,1,396,-4)" xmlns:kvg="http://kanjivg.tagaini.net"></path><path class="stroke_order_diagram--existing_path" d="M12.02,49c0.59,0.4,4.75,0.46,5.36,0.37c3.47-0.53,14.28-2.12,19.08-2.69c0.74-0.09,3.44-0.16,4.54,0.19" id="Ske2qker516" kvg:type="㇐" transform="matrix(1,0,0,1,396,-4)" xmlns:kvg="http://kanjivg.tagaini.net"></path><path class="stroke_order_diagram--existing_path" d="M10.75,86.25c1.25,1,3.86,0.93,4.74,0.5C21.1,84,29.11,80,37.66,75.25" id="Ske2qker517" kvg:type="㇐" transform="matrix(1,0,0,1,396,-4)" xmlns:kvg="http://kanjivg.tagaini.net"></path><path class="stroke_order_diagram--current_path" d="M62.29,12.75c0.05,0.7,0.24,1.86-0.09,2.82c-2.57,7.35-8.31,18.33-16.38,27.5" id="kvg:073de-s5" kvg:type="㇒" transform="matrix(1,0,0,1,396,-4)" xmlns:kvg="http://kanjivg.tagaini.net"></path><path class="stroke_order_diagram--current_path" d="M62.29,12.75c0.05,0.7,0.24,1.86-0.09,2.82c-2.57,7.35-8.31,18.33-16.38,27.5" id="Ske2qker519" kvg:type="㇒" transform="matrix(1,0,0,1,396,-4)" xmlns:kvg="http://kanjivg.tagaini.net"></path><circle class="stroke_order_diagram--path_start" cx="62.29" cy="12.75" r="4" transform="matrix(1,0,0,1,396,-4)"></circle><line class="stroke_order_diagram--guide_line" x1="550" x2="550" y1="1" y2="99"></line><line class="stroke_order_diagram--bounding_box" x1="599" x2="599" y1="1" y2="99"></line><path class="stroke_order_diagram--existing_path" d="M12.6,22.25c0.67,0.37,4.31,0.45,4.99,0.34c3.16-0.5,14.98-1.59,22.56-2.14c1.03-0.07,2.95-0.26,3.8,0.04" id="Ske2qker51c" kvg:type="㇐" transform="matrix(1,0,0,1,496,-4)" xmlns:kvg="http://kanjivg.tagaini.net"></path><path class="stroke_order_diagram--existing_path" d="M26.05,24.52c0.93,0.88,1.58,2.78,1.58,3.48c0,5.95,0.05,48.62-0.13,52.57" id="Ske2qker51d" kvg:type="㇑a" transform="matrix(1,0,0,1,496,-4)" xmlns:kvg="http://kanjivg.tagaini.net"></path><path class="stroke_order_diagram--existing_path" d="M12.02,49c0.59,0.4,4.75,0.46,5.36,0.37c3.47-0.53,14.28-2.12,19.08-2.69c0.74-0.09,3.44-0.16,4.54,0.19" id="Ske2qker51e" kvg:type="㇐" transform="matrix(1,0,0,1,496,-4)" xmlns:kvg="http://kanjivg.tagaini.net"></path><path class="stroke_order_diagram--existing_path" d="M10.75,86.25c1.25,1,3.86,0.93,4.74,0.5C21.1,84,29.11,80,37.66,75.25" id="Ske2qker51f" kvg:type="㇐" transform="matrix(1,0,0,1,496,-4)" xmlns:kvg="http://kanjivg.tagaini.net"></path><path class="stroke_order_diagram--existing_path" d="M62.29,12.75c0.05,0.7,0.24,1.86-0.09,2.82c-2.57,7.35-8.31,18.33-16.38,27.5" id="Ske2qker51g" kvg:type="㇒" transform="matrix(1,0,0,1,496,-4)" xmlns:kvg="http://kanjivg.tagaini.net"></path><path class="stroke_order_diagram--current_path" d="M63.76,20.91c0.33,0.04,1.76,0,2.71-0.11c3.14-0.35,9.96-1.59,14.44-2.68c3.08-0.75,3.95,0.85,3.16,2.89C79.78,32.14,63,58.25,40.94,66.53" id="kvg:073de-s6" kvg:type="㇇" transform="matrix(1,0,0,1,496,-4)" xmlns:kvg="http://kanjivg.tagaini.net"></path><path class="stroke_order_diagram--current_path" d="M63.76,20.91c0.33,0.04,1.76,0,2.71-0.11c3.14-0.35,9.96-1.59,14.44-2.68c3.08-0.75,3.95,0.85,3.16,2.89C79.78,32.14,63,58.25,40.94,66.53" id="Ske2qker51i" kvg:type="㇇" transform="matrix(1,0,0,1,496,-4)" xmlns:kvg="http://kanjivg.tagaini.net"></path><circle class="stroke_order_diagram--path_start" cx="63.76" cy="20.91" r="4" transform="matrix(1,0,0,1,496,-4)"></circle><line class="stroke_order_diagram--guide_line" x1="650" x2="650" y1="1" y2="99"></line><line class="stroke_order_diagram--bounding_box" x1="699" x2="699" y1="1" y2="99"></line><path class="stroke_order_diagram--existing_path" d="M12.6,22.25c0.67,0.37,4.31,0.45,4.99,0.34c3.16-0.5,14.98-1.59,22.56-2.14c1.03-0.07,2.95-0.26,3.8,0.04" id="Ske2qker51l" kvg:type="㇐" transform="matrix(1,0,0,1,596,-4)" xmlns:kvg="http://kanjivg.tagaini.net"></path><path class="stroke_order_diagram--existing_path" d="M26.05,24.52c0.93,0.88,1.58,2.78,1.58,3.48c0,5.95,0.05,48.62-0.13,52.57" id="Ske2qker51m" kvg:type="㇑a" transform="matrix(1,0,0,1,596,-4)" xmlns:kvg="http://kanjivg.tagaini.net"></path><path class="stroke_order_diagram--existing_path" d="M12.02,49c0.59,0.4,4.75,0.46,5.36,0.37c3.47-0.53,14.28-2.12,19.08-2.69c0.74-0.09,3.44-0.16,4.54,0.19" id="Ske2qker51n" kvg:type="㇐" transform="matrix(1,0,0,1,596,-4)" xmlns:kvg="http://kanjivg.tagaini.net"></path><path class="stroke_order_diagram--existing_path" d="M10.75,86.25c1.25,1,3.86,0.93,4.74,0.5C21.1,84,29.11,80,37.66,75.25" id="Ske2qker51o" kvg:type="㇐" transform="matrix(1,0,0,1,596,-4)" xmlns:kvg="http://kanjivg.tagaini.net"></path><path class="stroke_order_diagram--existing_path" d="M62.29,12.75c0.05,0.7,0.24,1.86-0.09,2.82c-2.57,7.35-8.31,18.33-16.38,27.5" id="Ske2qker51p" kvg:type="㇒" transform="matrix(1,0,0,1,596,-4)" xmlns:kvg="http://kanjivg.tagaini.net"></path><path class="stroke_order_diagram--existing_path" d="M63.76,20.91c0.33,0.04,1.76,0,2.71-0.11c3.14-0.35,9.96-1.59,14.44-2.68c3.08-0.75,3.95,0.85,3.16,2.89C79.78,32.14,63,58.25,40.94,66.53" id="Ske2qker51q" kvg:type="㇇" transform="matrix(1,0,0,1,596,-4)" xmlns:kvg="http://kanjivg.tagaini.net"></path><path class="stroke_order_diagram--current_path" d="M57.65,30.08c4.74,5.62,26.22,26.99,32.61,32.13c1.91,1.53,3.45,2.28,5.3,2.73" id="kvg:073de-s7" kvg:type="㇏" transform="matrix(1,0,0,1,596,-4)" xmlns:kvg="http://kanjivg.tagaini.net"></path><path class="stroke_order_diagram--current_path" d="M57.65,30.08c4.74,5.62,26.22,26.99,32.61,32.13c1.91,1.53,3.45,2.28,5.3,2.73" id="Ske2qker51s" kvg:type="㇏" transform="matrix(1,0,0,1,596,-4)" xmlns:kvg="http://kanjivg.tagaini.net"></path><circle class="stroke_order_diagram--path_start" cx="57.65" cy="30.08" r="4" transform="matrix(1,0,0,1,596,-4)"></circle><line class="stroke_order_diagram--guide_line" x1="750" x2="750" y1="1" y2="99"></line><line class="stroke_order_diagram--bounding_box" x1="799" x2="799" y1="1" y2="99"></line><path class="stroke_order_diagram--existing_path" d="M12.6,22.25c0.67,0.37,4.31,0.45,4.99,0.34c3.16-0.5,14.98-1.59,22.56-2.14c1.03-0.07,2.95-0.26,3.8,0.04" id="Ske2qker51v" kvg:type="㇐" transform="matrix(1,0,0,1,696,-4)" xmlns:kvg="http://kanjivg.tagaini.net"></path><path class="stroke_order_diagram--existing_path" d="M26.05,24.52c0.93,0.88,1.58,2.78,1.58,3.48c0,5.95,0.05,48.62-0.13,52.57" id="Ske2qker51w" kvg:type="㇑a" transform="matrix(1,0,0,1,696,-4)" xmlns:kvg="http://kanjivg.tagaini.net"></path><path class="stroke_order_diagram--existing_path" d="M12.02,49c0.59,0.4,4.75,0.46,5.36,0.37c3.47-0.53,14.28-2.12,19.08-2.69c0.74-0.09,3.44-0.16,4.54,0.19" id="Ske2qker51x" kvg:type="㇐" transform="matrix(1,0,0,1,696,-4)" xmlns:kvg="http://kanjivg.tagaini.net"></path><path class="stroke_order_diagram--existing_path" d="M10.75,86.25c1.25,1,3.86,0.93,4.74,0.5C21.1,84,29.11,80,37.66,75.25" id="Ske2qker51y" kvg:type="㇐" transform="matrix(1,0,0,1,696,-4)" xmlns:kvg="http://kanjivg.tagaini.net"></path><path class="stroke_order_diagram--existing_path" d="M62.29,12.75c0.05,0.7,0.24,1.86-0.09,2.82c-2.57,7.35-8.31,18.33-16.38,27.5" id="Ske2qker51z" kvg:type="㇒" transform="matrix(1,0,0,1,696,-4)" xmlns:kvg="http://kanjivg.tagaini.net"></path><path class="stroke_order_diagram--existing_path" d="M63.76,20.91c0.33,0.04,1.76,0,2.71-0.11c3.14-0.35,9.96-1.59,14.44-2.68c3.08-0.75,3.95,0.85,3.16,2.89C79.78,32.14,63,58.25,40.94,66.53" id="Ske2qker520" kvg:type="㇇" transform="matrix(1,0,0,1,696,-4)" xmlns:kvg="http://kanjivg.tagaini.net"></path><path class="stroke_order_diagram--existing_path" d="M57.65,30.08c4.74,5.62,26.22,26.99,32.61,32.13c1.91,1.53,3.45,2.28,5.3,2.73" id="Ske2qker521" kvg:type="㇏" transform="matrix(1,0,0,1,696,-4)" xmlns:kvg="http://kanjivg.tagaini.net"></path><path class="stroke_order_diagram--current_path" d="M50.33,69.15c0.41,0.48,0.83,0.88,1.01,1.49c1.42,4.77,2.56,18.49,3.53,27.07" id="kvg:073de-s8" kvg:type="㇑" transform="matrix(1,0,0,1,696,-4)" xmlns:kvg="http://kanjivg.tagaini.net"></path><path class="stroke_order_diagram--current_path" d="M50.33,69.15c0.41,0.48,0.83,0.88,1.01,1.49c1.42,4.77,2.56,18.49,3.53,27.07" id="Ske2qker523" kvg:type="㇑" transform="matrix(1,0,0,1,696,-4)" xmlns:kvg="http://kanjivg.tagaini.net"></path><circle class="stroke_order_diagram--path_start" cx="50.33" cy="69.15" r="4" transform="matrix(1,0,0,1,696,-4)"></circle><line class="stroke_order_diagram--guide_line" x1="850" x2="850" y1="1" y2="99"></line><line class="stroke_order_diagram--bounding_box" x1="899" x2="899" y1="1" y2="99"></line><path class="stroke_order_diagram--existing_path" d="M12.6,22.25c0.67,0.37,4.31,0.45,4.99,0.34c3.16-0.5,14.98-1.59,22.56-2.14c1.03-0.07,2.95-0.26,3.8,0.04" id="Ske2qker526" kvg:type="㇐" transform="matrix(1,0,0,1,796,-4)" xmlns:kvg="http://kanjivg.tagaini.net"></path><path class="stroke_order_diagram--existing_path" d="M26.05,24.52c0.93,0.88,1.58,2.78,1.58,3.48c0,5.95,0.05,48.62-0.13,52.57" id="Ske2qker527" kvg:type="㇑a" transform="matrix(1,0,0,1,796,-4)" xmlns:kvg="http://kanjivg.tagaini.net"></path><path class="stroke_order_diagram--existing_path" d="M12.02,49c0.59,0.4,4.75,0.46,5.36,0.37c3.47-0.53,14.28-2.12,19.08-2.69c0.74-0.09,3.44-0.16,4.54,0.19" id="Ske2qker528" kvg:type="㇐" transform="matrix(1,0,0,1,796,-4)" xmlns:kvg="http://kanjivg.tagaini.net"></path><path class="stroke_order_diagram--existing_path" d="M10.75,86.25c1.25,1,3.86,0.93,4.74,0.5C21.1,84,29.11,80,37.66,75.25" id="Ske2qker529" kvg:type="㇐" transform="matrix(1,0,0,1,796,-4)" xmlns:kvg="http://kanjivg.tagaini.net"></path><path class="stroke_order_diagram--existing_path" d="M62.29,12.75c0.05,0.7,0.24,1.86-0.09,2.82c-2.57,7.35-8.31,18.33-16.38,27.5" id="Ske2qker52a" kvg:type="㇒" transform="matrix(1,0,0,1,796,-4)" xmlns:kvg="http://kanjivg.tagaini.net"></path><path class="stroke_order_diagram--existing_path" d="M63.76,20.91c0.33,0.04,1.76,0,2.71-0.11c3.14-0.35,9.96-1.59,14.44-2.68c3.08-0.75,3.95,0.85,3.16,2.89C79.78,32.14,63,58.25,40.94,66.53" id="Ske2qker52b" kvg:type="㇇" transform="matrix(1,0,0,1,796,-4)" xmlns:kvg="http://kanjivg.tagaini.net"></path><path class="stroke_order_diagram--existing_path" d="M57.65,30.08c4.74,5.62,26.22,26.99,32.61,32.13c1.91,1.53,3.45,2.28,5.3,2.73" id="Ske2qker52c" kvg:type="㇏" transform="matrix(1,0,0,1,796,-4)" xmlns:kvg="http://kanjivg.tagaini.net"></path><path class="stroke_order_diagram--existing_path" d="M50.33,69.15c0.41,0.48,0.83,0.88,1.01,1.49c1.42,4.77,2.56,18.49,3.53,27.07" id="Ske2qker52d" kvg:type="㇑" transform="matrix(1,0,0,1,796,-4)" xmlns:kvg="http://kanjivg.tagaini.net"></path><path class="stroke_order_diagram--current_path" d="M52.88,71.31c11.52-1.61,26.17-2.57,30.98-3.19c1.75-0.23,2.81,1.36,2.55,2.71c-1.04,5.58-2.39,13.89-3.93,21.61" id="kvg:073de-s9" kvg:type="㇕b" transform="matrix(1,0,0,1,796,-4)" xmlns:kvg="http://kanjivg.tagaini.net"></path><path class="stroke_order_diagram--current_path" d="M52.88,71.31c11.52-1.61,26.17-2.57,30.98-3.19c1.75-0.23,2.81,1.36,2.55,2.71c-1.04,5.58-2.39,13.89-3.93,21.61" id="Ske2qker52f" kvg:type="㇕b" transform="matrix(1,0,0,1,796,-4)" xmlns:kvg="http://kanjivg.tagaini.net"></path><circle class="stroke_order_diagram--path_start" cx="52.88" cy="71.31" r="4" transform="matrix(1,0,0,1,796,-4)"></circle><line class="stroke_order_diagram--guide_line" x1="950" x2="950" y1="1" y2="99"></line><line class="stroke_order_diagram--bounding_box" x1="999" x2="999" y1="1" y2="99"></line><path class="stroke_order_diagram--existing_path" d="M12.6,22.25c0.67,0.37,4.31,0.45,4.99,0.34c3.16-0.5,14.98-1.59,22.56-2.14c1.03-0.07,2.95-0.26,3.8,0.04" id="Ske2qker52i" kvg:type="㇐" transform="matrix(1,0,0,1,896,-4)" xmlns:kvg="http://kanjivg.tagaini.net"></path><path class="stroke_order_diagram--existing_path" d="M26.05,24.52c0.93,0.88,1.58,2.78,1.58,3.48c0,5.95,0.05,48.62-0.13,52.57" id="Ske2qker52j" kvg:type="㇑a" transform="matrix(1,0,0,1,896,-4)" xmlns:kvg="http://kanjivg.tagaini.net"></path><path class="stroke_order_diagram--existing_path" d="M12.02,49c0.59,0.4,4.75,0.46,5.36,0.37c3.47-0.53,14.28-2.12,19.08-2.69c0.74-0.09,3.44-0.16,4.54,0.19" id="Ske2qker52k" kvg:type="㇐" transform="matrix(1,0,0,1,896,-4)" xmlns:kvg="http://kanjivg.tagaini.net"></path><path class="stroke_order_diagram--existing_path" d="M10.75,86.25c1.25,1,3.86,0.93,4.74,0.5C21.1,84,29.11,80,37.66,75.25" id="Ske2qker52l" kvg:type="㇐" transform="matrix(1,0,0,1,896,-4)" xmlns:kvg="http://kanjivg.tagaini.net"></path><path class="stroke_order_diagram--existing_path" d="M62.29,12.75c0.05,0.7,0.24,1.86-0.09,2.82c-2.57,7.35-8.31,18.33-16.38,27.5" id="Ske2qker52m" kvg:type="㇒" transform="matrix(1,0,0,1,896,-4)" xmlns:kvg="http://kanjivg.tagaini.net"></path><path class="stroke_order_diagram--existing_path" d="M63.76,20.91c0.33,0.04,1.76,0,2.71-0.11c3.14-0.35,9.96-1.59,14.44-2.68c3.08-0.75,3.95,0.85,3.16,2.89C79.78,32.14,63,58.25,40.94,66.53" id="Ske2qker52n" kvg:type="㇇" transform="matrix(1,0,0,1,896,-4)" xmlns:kvg="http://kanjivg.tagaini.net"></path><path class="stroke_order_diagram--existing_path" d="M57.65,30.08c4.74,5.62,26.22,26.99,32.61,32.13c1.91,1.53,3.45,2.28,5.3,2.73" id="Ske2qker52o" kvg:type="㇏" transform="matrix(1,0,0,1,896,-4)" xmlns:kvg="http://kanjivg.tagaini.net"></path><path class="stroke_order_diagram--existing_path" d="M50.33,69.15c0.41,0.48,0.83,0.88,1.01,1.49c1.42,4.77,2.56,18.49,3.53,27.07" id="Ske2qker52p" kvg:type="㇑" transform="matrix(1,0,0,1,896,-4)" xmlns:kvg="http://kanjivg.tagaini.net"></path><path class="stroke_order_diagram--existing_path" d="M52.88,71.31c11.52-1.61,26.17-2.57,30.98-3.19c1.75-0.23,2.81,1.36,2.55,2.71c-1.04,5.58-2.39,13.89-3.93,21.61" id="Ske2qker52q" kvg:type="㇕b" transform="matrix(1,0,0,1,896,-4)" xmlns:kvg="http://kanjivg.tagaini.net"></path><path class="stroke_order_diagram--current_path" d="M55.06,95.09c8.44-0.34,21.93-1.18,29.24-1.42" id="kvg:073de-s10" kvg:type="㇐b" transform="matrix(1,0,0,1,896,-4)" xmlns:kvg="http://kanjivg.tagaini.net"></path><path class="stroke_order_diagram--current_path" d="M55.06,95.09c8.44-0.34,21.93-1.18,29.24-1.42" id="Ske2qker52s" kvg:type="㇐b" transform="matrix(1,0,0,1,896,-4)" xmlns:kvg="http://kanjivg.tagaini.net"></path><circle class="stroke_order_diagram--path_start" cx="55.06" cy="95.09" r="4" transform="matrix(1,0,0,1,896,-4)"></circle></svg>