<svg class="stroke_order_diagram--svg_container_for_518662b0d5dda796580011bc" style="height: 100px; width: 1400px;" viewbox="0 0 1400 100"><desc>Created with Snap</desc><defs></defs><line class="stroke_order_diagram--bounding_box" x1="1" x2="1399" y1="1" y2="1"></line><line class="stroke_order_diagram--bounding_box" x1="1" x2="1" y1="1" y2="99"></line><line class="stroke_order_diagram--bounding_box" x1="1" x2="1399" y1="99" y2="99"></line><line class="stroke_order_diagram--guide_line" x1="0" x2="1400" y1="50" y2="50"></line><line class="stroke_order_diagram--guide_line" x1="50" x2="50" y1="1" y2="99"></line><line class="stroke_order_diagram--bounding_box" x1="99" x2="99" y1="1" y2="99"></line><path class="stroke_order_diagram--current_path" d="M10.1,25.44c0.5,0.3,3.21,0.37,3.71,0.28c2.35-0.41,12.4-2.22,18.05-2.66c0.77-0.06,2.2-0.22,2.83,0.04" id="kvg:0746f-s1" kvg:type="㇐" transform="matrix(1,0,0,1,-4,-4)" xmlns:kvg="http://kanjivg.tagaini.net"></path><path class="stroke_order_diagram--current_path" d="M10.1,25.44c0.5,0.3,3.21,0.37,3.71,0.28c2.35-0.41,12.4-2.22,18.05-2.66c0.77-0.06,2.2-0.22,2.83,0.04" id="Ske2ql877n" kvg:type="㇐" transform="matrix(1,0,0,1,-4,-4)" xmlns:kvg="http://kanjivg.tagaini.net"></path><circle class="stroke_order_diagram--path_start" cx="10.1" cy="25.44" r="4" transform="matrix(1,0,0,1,-4,-4)"></circle><line class="stroke_order_diagram--guide_line" x1="150" x2="150" y1="1" y2="99"></line><line class="stroke_order_diagram--bounding_box" x1="199" x2="199" y1="1" y2="99"></line><path class="stroke_order_diagram--existing_path" d="M10.1,25.44c0.5,0.3,3.21,0.37,3.71,0.28c2.35-0.41,12.4-2.22,18.05-2.66c0.77-0.06,2.2-0.22,2.83,0.04" id="Ske2ql877q" kvg:type="㇐" transform="matrix(1,0,0,1,96,-4)" xmlns:kvg="http://kanjivg.tagaini.net"></path><path class="stroke_order_diagram--current_path" d="M23.05,27.52c0.93,0.88,1.58,2.78,1.58,3.48c0,5.95,0.05,44.62-0.13,48.57" id="kvg:0746f-s2" kvg:type="㇑a" transform="matrix(1,0,0,1,96,-4)" xmlns:kvg="http://kanjivg.tagaini.net"></path><path class="stroke_order_diagram--current_path" d="M23.05,27.52c0.93,0.88,1.58,2.78,1.58,3.48c0,5.95,0.05,44.62-0.13,48.57" id="Ske2ql877s" kvg:type="㇑a" transform="matrix(1,0,0,1,96,-4)" xmlns:kvg="http://kanjivg.tagaini.net"></path><circle class="stroke_order_diagram--path_start" cx="23.05" cy="27.52" r="4" transform="matrix(1,0,0,1,96,-4)"></circle><line class="stroke_order_diagram--guide_line" x1="250" x2="250" y1="1" y2="99"></line><line class="stroke_order_diagram--bounding_box" x1="299" x2="299" y1="1" y2="99"></line><path class="stroke_order_diagram--existing_path" d="M10.1,25.44c0.5,0.3,3.21,0.37,3.71,0.28c2.35-0.41,12.4-2.22,18.05-2.66c0.77-0.06,2.2-0.22,2.83,0.04" id="Ske2ql877v" kvg:type="㇐" transform="matrix(1,0,0,1,196,-4)" xmlns:kvg="http://kanjivg.tagaini.net"></path><path class="stroke_order_diagram--existing_path" d="M23.05,27.52c0.93,0.88,1.58,2.78,1.58,3.48c0,5.95,0.05,44.62-0.13,48.57" id="Ske2ql877w" kvg:type="㇑a" transform="matrix(1,0,0,1,196,-4)" xmlns:kvg="http://kanjivg.tagaini.net"></path><path class="stroke_order_diagram--current_path" d="M12.02,51.27c0.45,0.31,3.64,0.35,4.11,0.28c2.66-0.41,11.71-1.12,15.39-1.56c0.57-0.07,2.63-0.13,3.48,0.15" id="kvg:0746f-s3" kvg:type="㇐" transform="matrix(1,0,0,1,196,-4)" xmlns:kvg="http://kanjivg.tagaini.net"></path><path class="stroke_order_diagram--current_path" d="M12.02,51.27c0.45,0.31,3.64,0.35,4.11,0.28c2.66-0.41,11.71-1.12,15.39-1.56c0.57-0.07,2.63-0.13,3.48,0.15" id="Ske2ql877y" kvg:type="㇐" transform="matrix(1,0,0,1,196,-4)" xmlns:kvg="http://kanjivg.tagaini.net"></path><circle class="stroke_order_diagram--path_start" cx="12.02" cy="51.27" r="4" transform="matrix(1,0,0,1,196,-4)"></circle><line class="stroke_order_diagram--guide_line" x1="350" x2="350" y1="1" y2="99"></line><line class="stroke_order_diagram--bounding_box" x1="399" x2="399" y1="1" y2="99"></line><path class="stroke_order_diagram--existing_path" d="M10.1,25.44c0.5,0.3,3.21,0.37,3.71,0.28c2.35-0.41,12.4-2.22,18.05-2.66c0.77-0.06,2.2-0.22,2.83,0.04" id="Ske2ql87711" kvg:type="㇐" transform="matrix(1,0,0,1,296,-4)" xmlns:kvg="http://kanjivg.tagaini.net"></path><path class="stroke_order_diagram--existing_path" d="M23.05,27.52c0.93,0.88,1.58,2.78,1.58,3.48c0,5.95,0.05,44.62-0.13,48.57" id="Ske2ql87712" kvg:type="㇑a" transform="matrix(1,0,0,1,296,-4)" xmlns:kvg="http://kanjivg.tagaini.net"></path><path class="stroke_order_diagram--existing_path" d="M12.02,51.27c0.45,0.31,3.64,0.35,4.11,0.28c2.66-0.41,11.71-1.12,15.39-1.56c0.57-0.07,2.63-0.13,3.48,0.15" id="Ske2ql87713" kvg:type="㇐" transform="matrix(1,0,0,1,296,-4)" xmlns:kvg="http://kanjivg.tagaini.net"></path><path class="stroke_order_diagram--current_path" d="M11.75,84.61c1,0.39,4.05,0.61,4.85,0.12c5.09-3.09,11.31-7.64,19.06-12.98" id="kvg:0746f-s4" kvg:type="㇐" transform="matrix(1,0,0,1,296,-4)" xmlns:kvg="http://kanjivg.tagaini.net"></path><path class="stroke_order_diagram--current_path" d="M11.75,84.61c1,0.39,4.05,0.61,4.85,0.12c5.09-3.09,11.31-7.64,19.06-12.98" id="Ske2ql87715" kvg:type="㇐" transform="matrix(1,0,0,1,296,-4)" xmlns:kvg="http://kanjivg.tagaini.net"></path><circle class="stroke_order_diagram--path_start" cx="11.75" cy="84.61" r="4" transform="matrix(1,0,0,1,296,-4)"></circle><line class="stroke_order_diagram--guide_line" x1="450" x2="450" y1="1" y2="99"></line><line class="stroke_order_diagram--bounding_box" x1="499" x2="499" y1="1" y2="99"></line><path class="stroke_order_diagram--existing_path" d="M10.1,25.44c0.5,0.3,3.21,0.37,3.71,0.28c2.35-0.41,12.4-2.22,18.05-2.66c0.77-0.06,2.2-0.22,2.83,0.04" id="Ske2ql87718" kvg:type="㇐" transform="matrix(1,0,0,1,396,-4)" xmlns:kvg="http://kanjivg.tagaini.net"></path><path class="stroke_order_diagram--existing_path" d="M23.05,27.52c0.93,0.88,1.58,2.78,1.58,3.48c0,5.95,0.05,44.62-0.13,48.57" id="Ske2ql87719" kvg:type="㇑a" transform="matrix(1,0,0,1,396,-4)" xmlns:kvg="http://kanjivg.tagaini.net"></path><path class="stroke_order_diagram--existing_path" d="M12.02,51.27c0.45,0.31,3.64,0.35,4.11,0.28c2.66-0.41,11.71-1.12,15.39-1.56c0.57-0.07,2.63-0.13,3.48,0.15" id="Ske2ql8771a" kvg:type="㇐" transform="matrix(1,0,0,1,396,-4)" xmlns:kvg="http://kanjivg.tagaini.net"></path><path class="stroke_order_diagram--existing_path" d="M11.75,84.61c1,0.39,4.05,0.61,4.85,0.12c5.09-3.09,11.31-7.64,19.06-12.98" id="Ske2ql8771b" kvg:type="㇐" transform="matrix(1,0,0,1,396,-4)" xmlns:kvg="http://kanjivg.tagaini.net"></path><path class="stroke_order_diagram--current_path" d="M51.19,12.01c0.79,0.57,1.27,1.42,1.43,2.55c0.16,1.13,0.16,7.26,0.16,10.08" id="kvg:0746f-s5" kvg:type="㇑a" transform="matrix(1,0,0,1,396,-4)" xmlns:kvg="http://kanjivg.tagaini.net"></path><path class="stroke_order_diagram--current_path" d="M51.19,12.01c0.79,0.57,1.27,1.42,1.43,2.55c0.16,1.13,0.16,7.26,0.16,10.08" id="Ske2ql8771d" kvg:type="㇑a" transform="matrix(1,0,0,1,396,-4)" xmlns:kvg="http://kanjivg.tagaini.net"></path><circle class="stroke_order_diagram--path_start" cx="51.19" cy="12.01" r="4" transform="matrix(1,0,0,1,396,-4)"></circle><line class="stroke_order_diagram--guide_line" x1="550" x2="550" y1="1" y2="99"></line><line class="stroke_order_diagram--bounding_box" x1="599" x2="599" y1="1" y2="99"></line><path class="stroke_order_diagram--existing_path" d="M10.1,25.44c0.5,0.3,3.21,0.37,3.71,0.28c2.35-0.41,12.4-2.22,18.05-2.66c0.77-0.06,2.2-0.22,2.83,0.04" id="Ske2ql8771g" kvg:type="㇐" transform="matrix(1,0,0,1,496,-4)" xmlns:kvg="http://kanjivg.tagaini.net"></path><path class="stroke_order_diagram--existing_path" d="M23.05,27.52c0.93,0.88,1.58,2.78,1.58,3.48c0,5.95,0.05,44.62-0.13,48.57" id="Ske2ql8771h" kvg:type="㇑a" transform="matrix(1,0,0,1,496,-4)" xmlns:kvg="http://kanjivg.tagaini.net"></path><path class="stroke_order_diagram--existing_path" d="M12.02,51.27c0.45,0.31,3.64,0.35,4.11,0.28c2.66-0.41,11.71-1.12,15.39-1.56c0.57-0.07,2.63-0.13,3.48,0.15" id="Ske2ql8771i" kvg:type="㇐" transform="matrix(1,0,0,1,496,-4)" xmlns:kvg="http://kanjivg.tagaini.net"></path><path class="stroke_order_diagram--existing_path" d="M11.75,84.61c1,0.39,4.05,0.61,4.85,0.12c5.09-3.09,11.31-7.64,19.06-12.98" id="Ske2ql8771j" kvg:type="㇐" transform="matrix(1,0,0,1,496,-4)" xmlns:kvg="http://kanjivg.tagaini.net"></path><path class="stroke_order_diagram--existing_path" d="M51.19,12.01c0.79,0.57,1.27,1.42,1.43,2.55c0.16,1.13,0.16,7.26,0.16,10.08" id="Ske2ql8771k" kvg:type="㇑a" transform="matrix(1,0,0,1,496,-4)" xmlns:kvg="http://kanjivg.tagaini.net"></path><path class="stroke_order_diagram--current_path" d="M42.96,27.09c1.4-0.12,17.78-3,19.05-3.23c2.15-0.39,2.68,1.43,2.6,3.24c-0.35,7.66-1.93,18.64-2.67,26.4" id="kvg:0746f-s6" kvg:type="㇕" transform="matrix(1,0,0,1,496,-4)" xmlns:kvg="http://kanjivg.tagaini.net"></path><path class="stroke_order_diagram--current_path" d="M42.96,27.09c1.4-0.12,17.78-3,19.05-3.23c2.15-0.39,2.68,1.43,2.6,3.24c-0.35,7.66-1.93,18.64-2.67,26.4" id="Ske2ql8771m" kvg:type="㇕" transform="matrix(1,0,0,1,496,-4)" xmlns:kvg="http://kanjivg.tagaini.net"></path><circle class="stroke_order_diagram--path_start" cx="42.96" cy="27.09" r="4" transform="matrix(1,0,0,1,496,-4)"></circle><line class="stroke_order_diagram--guide_line" x1="650" x2="650" y1="1" y2="99"></line><line class="stroke_order_diagram--bounding_box" x1="699" x2="699" y1="1" y2="99"></line><path class="stroke_order_diagram--existing_path" d="M10.1,25.44c0.5,0.3,3.21,0.37,3.71,0.28c2.35-0.41,12.4-2.22,18.05-2.66c0.77-0.06,2.2-0.22,2.83,0.04" id="Ske2ql8771p" kvg:type="㇐" transform="matrix(1,0,0,1,596,-4)" xmlns:kvg="http://kanjivg.tagaini.net"></path><path class="stroke_order_diagram--existing_path" d="M23.05,27.52c0.93,0.88,1.58,2.78,1.58,3.48c0,5.95,0.05,44.62-0.13,48.57" id="Ske2ql8771q" kvg:type="㇑a" transform="matrix(1,0,0,1,596,-4)" xmlns:kvg="http://kanjivg.tagaini.net"></path><path class="stroke_order_diagram--existing_path" d="M12.02,51.27c0.45,0.31,3.64,0.35,4.11,0.28c2.66-0.41,11.71-1.12,15.39-1.56c0.57-0.07,2.63-0.13,3.48,0.15" id="Ske2ql8771r" kvg:type="㇐" transform="matrix(1,0,0,1,596,-4)" xmlns:kvg="http://kanjivg.tagaini.net"></path><path class="stroke_order_diagram--existing_path" d="M11.75,84.61c1,0.39,4.05,0.61,4.85,0.12c5.09-3.09,11.31-7.64,19.06-12.98" id="Ske2ql8771s" kvg:type="㇐" transform="matrix(1,0,0,1,596,-4)" xmlns:kvg="http://kanjivg.tagaini.net"></path><path class="stroke_order_diagram--existing_path" d="M51.19,12.01c0.79,0.57,1.27,1.42,1.43,2.55c0.16,1.13,0.16,7.26,0.16,10.08" id="Ske2ql8771t" kvg:type="㇑a" transform="matrix(1,0,0,1,596,-4)" xmlns:kvg="http://kanjivg.tagaini.net"></path><path class="stroke_order_diagram--existing_path" d="M42.96,27.09c1.4-0.12,17.78-3,19.05-3.23c2.15-0.39,2.68,1.43,2.6,3.24c-0.35,7.66-1.93,18.64-2.67,26.4" id="Ske2ql8771u" kvg:type="㇕" transform="matrix(1,0,0,1,596,-4)" xmlns:kvg="http://kanjivg.tagaini.net"></path><path class="stroke_order_diagram--current_path" d="M43.21,39.83c3.56-0.49,13.45-2.02,18.84-2.36" id="kvg:0746f-s7" kvg:type="㇐" transform="matrix(1,0,0,1,596,-4)" xmlns:kvg="http://kanjivg.tagaini.net"></path><path class="stroke_order_diagram--current_path" d="M43.21,39.83c3.56-0.49,13.45-2.02,18.84-2.36" id="Ske2ql8771w" kvg:type="㇐" transform="matrix(1,0,0,1,596,-4)" xmlns:kvg="http://kanjivg.tagaini.net"></path><circle class="stroke_order_diagram--path_start" cx="43.21" cy="39.83" r="4" transform="matrix(1,0,0,1,596,-4)"></circle><line class="stroke_order_diagram--guide_line" x1="750" x2="750" y1="1" y2="99"></line><line class="stroke_order_diagram--bounding_box" x1="799" x2="799" y1="1" y2="99"></line><path class="stroke_order_diagram--existing_path" d="M10.1,25.44c0.5,0.3,3.21,0.37,3.71,0.28c2.35-0.41,12.4-2.22,18.05-2.66c0.77-0.06,2.2-0.22,2.83,0.04" id="Ske2ql8771z" kvg:type="㇐" transform="matrix(1,0,0,1,696,-4)" xmlns:kvg="http://kanjivg.tagaini.net"></path><path class="stroke_order_diagram--existing_path" d="M23.05,27.52c0.93,0.88,1.58,2.78,1.58,3.48c0,5.95,0.05,44.62-0.13,48.57" id="Ske2ql87720" kvg:type="㇑a" transform="matrix(1,0,0,1,696,-4)" xmlns:kvg="http://kanjivg.tagaini.net"></path><path class="stroke_order_diagram--existing_path" d="M12.02,51.27c0.45,0.31,3.64,0.35,4.11,0.28c2.66-0.41,11.71-1.12,15.39-1.56c0.57-0.07,2.63-0.13,3.48,0.15" id="Ske2ql87721" kvg:type="㇐" transform="matrix(1,0,0,1,696,-4)" xmlns:kvg="http://kanjivg.tagaini.net"></path><path class="stroke_order_diagram--existing_path" d="M11.75,84.61c1,0.39,4.05,0.61,4.85,0.12c5.09-3.09,11.31-7.64,19.06-12.98" id="Ske2ql87722" kvg:type="㇐" transform="matrix(1,0,0,1,696,-4)" xmlns:kvg="http://kanjivg.tagaini.net"></path><path class="stroke_order_diagram--existing_path" d="M51.19,12.01c0.79,0.57,1.27,1.42,1.43,2.55c0.16,1.13,0.16,7.26,0.16,10.08" id="Ske2ql87723" kvg:type="㇑a" transform="matrix(1,0,0,1,696,-4)" xmlns:kvg="http://kanjivg.tagaini.net"></path><path class="stroke_order_diagram--existing_path" d="M42.96,27.09c1.4-0.12,17.78-3,19.05-3.23c2.15-0.39,2.68,1.43,2.6,3.24c-0.35,7.66-1.93,18.64-2.67,26.4" id="Ske2ql87724" kvg:type="㇕" transform="matrix(1,0,0,1,696,-4)" xmlns:kvg="http://kanjivg.tagaini.net"></path><path class="stroke_order_diagram--existing_path" d="M43.21,39.83c3.56-0.49,13.45-2.02,18.84-2.36" id="Ske2ql87725" kvg:type="㇐" transform="matrix(1,0,0,1,696,-4)" xmlns:kvg="http://kanjivg.tagaini.net"></path><path class="stroke_order_diagram--current_path" d="M43.12,53.58c3.85-0.53,10.63-1.58,18.62-1.64" id="kvg:0746f-s8" kvg:type="㇐" transform="matrix(1,0,0,1,696,-4)" xmlns:kvg="http://kanjivg.tagaini.net"></path><path class="stroke_order_diagram--current_path" d="M43.12,53.58c3.85-0.53,10.63-1.58,18.62-1.64" id="Ske2ql87727" kvg:type="㇐" transform="matrix(1,0,0,1,696,-4)" xmlns:kvg="http://kanjivg.tagaini.net"></path><circle class="stroke_order_diagram--path_start" cx="43.12" cy="53.58" r="4" transform="matrix(1,0,0,1,696,-4)"></circle><line class="stroke_order_diagram--guide_line" x1="850" x2="850" y1="1" y2="99"></line><line class="stroke_order_diagram--bounding_box" x1="899" x2="899" y1="1" y2="99"></line><path class="stroke_order_diagram--existing_path" d="M10.1,25.44c0.5,0.3,3.21,0.37,3.71,0.28c2.35-0.41,12.4-2.22,18.05-2.66c0.77-0.06,2.2-0.22,2.83,0.04" id="Ske2ql8772a" kvg:type="㇐" transform="matrix(1,0,0,1,796,-4)" xmlns:kvg="http://kanjivg.tagaini.net"></path><path class="stroke_order_diagram--existing_path" d="M23.05,27.52c0.93,0.88,1.58,2.78,1.58,3.48c0,5.95,0.05,44.62-0.13,48.57" id="Ske2ql8772b" kvg:type="㇑a" transform="matrix(1,0,0,1,796,-4)" xmlns:kvg="http://kanjivg.tagaini.net"></path><path class="stroke_order_diagram--existing_path" d="M12.02,51.27c0.45,0.31,3.64,0.35,4.11,0.28c2.66-0.41,11.71-1.12,15.39-1.56c0.57-0.07,2.63-0.13,3.48,0.15" id="Ske2ql8772c" kvg:type="㇐" transform="matrix(1,0,0,1,796,-4)" xmlns:kvg="http://kanjivg.tagaini.net"></path><path class="stroke_order_diagram--existing_path" d="M11.75,84.61c1,0.39,4.05,0.61,4.85,0.12c5.09-3.09,11.31-7.64,19.06-12.98" id="Ske2ql8772d" kvg:type="㇐" transform="matrix(1,0,0,1,796,-4)" xmlns:kvg="http://kanjivg.tagaini.net"></path><path class="stroke_order_diagram--existing_path" d="M51.19,12.01c0.79,0.57,1.27,1.42,1.43,2.55c0.16,1.13,0.16,7.26,0.16,10.08" id="Ske2ql8772e" kvg:type="㇑a" transform="matrix(1,0,0,1,796,-4)" xmlns:kvg="http://kanjivg.tagaini.net"></path><path class="stroke_order_diagram--existing_path" d="M42.96,27.09c1.4-0.12,17.78-3,19.05-3.23c2.15-0.39,2.68,1.43,2.6,3.24c-0.35,7.66-1.93,18.64-2.67,26.4" id="Ske2ql8772f" kvg:type="㇕" transform="matrix(1,0,0,1,796,-4)" xmlns:kvg="http://kanjivg.tagaini.net"></path><path class="stroke_order_diagram--existing_path" d="M43.21,39.83c3.56-0.49,13.45-2.02,18.84-2.36" id="Ske2ql8772g" kvg:type="㇐" transform="matrix(1,0,0,1,796,-4)" xmlns:kvg="http://kanjivg.tagaini.net"></path><path class="stroke_order_diagram--existing_path" d="M43.12,53.58c3.85-0.53,10.63-1.58,18.62-1.64" id="Ske2ql8772h" kvg:type="㇐" transform="matrix(1,0,0,1,796,-4)" xmlns:kvg="http://kanjivg.tagaini.net"></path><path class="stroke_order_diagram--current_path" d="M41.25,24.44c0.8,0.57,1.27,2.55,1.43,3.68c0.14,1.03-0.09,49.8-0.09,59.84c0,2.66,0.97,2.55,1.89,1.68c3.23-3.04,8.54-6.87,12.13-9.65" id="kvg:0746f-s9" kvg:type="㇙" transform="matrix(1,0,0,1,796,-4)" xmlns:kvg="http://kanjivg.tagaini.net"></path><path class="stroke_order_diagram--current_path" d="M41.25,24.44c0.8,0.57,1.27,2.55,1.43,3.68c0.14,1.03-0.09,49.8-0.09,59.84c0,2.66,0.97,2.55,1.89,1.68c3.23-3.04,8.54-6.87,12.13-9.65" id="Ske2ql8772j" kvg:type="㇙" transform="matrix(1,0,0,1,796,-4)" xmlns:kvg="http://kanjivg.tagaini.net"></path><circle class="stroke_order_diagram--path_start" cx="41.25" cy="24.44" r="4" transform="matrix(1,0,0,1,796,-4)"></circle><line class="stroke_order_diagram--guide_line" x1="950" x2="950" y1="1" y2="99"></line><line class="stroke_order_diagram--bounding_box" x1="999" x2="999" y1="1" y2="99"></line><path class="stroke_order_diagram--existing_path" d="M10.1,25.44c0.5,0.3,3.21,0.37,3.71,0.28c2.35-0.41,12.4-2.22,18.05-2.66c0.77-0.06,2.2-0.22,2.83,0.04" id="Ske2ql8772m" kvg:type="㇐" transform="matrix(1,0,0,1,896,-4)" xmlns:kvg="http://kanjivg.tagaini.net"></path><path class="stroke_order_diagram--existing_path" d="M23.05,27.52c0.93,0.88,1.58,2.78,1.58,3.48c0,5.95,0.05,44.62-0.13,48.57" id="Ske2ql8772n" kvg:type="㇑a" transform="matrix(1,0,0,1,896,-4)" xmlns:kvg="http://kanjivg.tagaini.net"></path><path class="stroke_order_diagram--existing_path" d="M12.02,51.27c0.45,0.31,3.64,0.35,4.11,0.28c2.66-0.41,11.71-1.12,15.39-1.56c0.57-0.07,2.63-0.13,3.48,0.15" id="Ske2ql8772o" kvg:type="㇐" transform="matrix(1,0,0,1,896,-4)" xmlns:kvg="http://kanjivg.tagaini.net"></path><path class="stroke_order_diagram--existing_path" d="M11.75,84.61c1,0.39,4.05,0.61,4.85,0.12c5.09-3.09,11.31-7.64,19.06-12.98" id="Ske2ql8772p" kvg:type="㇐" transform="matrix(1,0,0,1,896,-4)" xmlns:kvg="http://kanjivg.tagaini.net"></path><path class="stroke_order_diagram--existing_path" d="M51.19,12.01c0.79,0.57,1.27,1.42,1.43,2.55c0.16,1.13,0.16,7.26,0.16,10.08" id="Ske2ql8772q" kvg:type="㇑a" transform="matrix(1,0,0,1,896,-4)" xmlns:kvg="http://kanjivg.tagaini.net"></path><path class="stroke_order_diagram--existing_path" d="M42.96,27.09c1.4-0.12,17.78-3,19.05-3.23c2.15-0.39,2.68,1.43,2.6,3.24c-0.35,7.66-1.93,18.64-2.67,26.4" id="Ske2ql8772r" kvg:type="㇕" transform="matrix(1,0,0,1,896,-4)" xmlns:kvg="http://kanjivg.tagaini.net"></path><path class="stroke_order_diagram--existing_path" d="M43.21,39.83c3.56-0.49,13.45-2.02,18.84-2.36" id="Ske2ql8772s" kvg:type="㇐" transform="matrix(1,0,0,1,896,-4)" xmlns:kvg="http://kanjivg.tagaini.net"></path><path class="stroke_order_diagram--existing_path" d="M43.12,53.58c3.85-0.53,10.63-1.58,18.62-1.64" id="Ske2ql8772t" kvg:type="㇐" transform="matrix(1,0,0,1,896,-4)" xmlns:kvg="http://kanjivg.tagaini.net"></path><path class="stroke_order_diagram--existing_path" d="M41.25,24.44c0.8,0.57,1.27,2.55,1.43,3.68c0.14,1.03-0.09,49.8-0.09,59.84c0,2.66,0.97,2.55,1.89,1.68c3.23-3.04,8.54-6.87,12.13-9.65" id="Ske2ql8772u" kvg:type="㇙" transform="matrix(1,0,0,1,896,-4)" xmlns:kvg="http://kanjivg.tagaini.net"></path><path class="stroke_order_diagram--current_path" d="M65.28,58.14c0.02,0.26,0.05,0.67-0.05,1.05c-0.58,2.21-3.89,7.06-8.42,10.03" id="kvg:0746f-s10" kvg:type="㇒" transform="matrix(1,0,0,1,896,-4)" xmlns:kvg="http://kanjivg.tagaini.net"></path><path class="stroke_order_diagram--current_path" d="M65.28,58.14c0.02,0.26,0.05,0.67-0.05,1.05c-0.58,2.21-3.89,7.06-8.42,10.03" id="Ske2ql8772w" kvg:type="㇒" transform="matrix(1,0,0,1,896,-4)" xmlns:kvg="http://kanjivg.tagaini.net"></path><circle class="stroke_order_diagram--path_start" cx="65.28" cy="58.14" r="4" transform="matrix(1,0,0,1,896,-4)"></circle><line class="stroke_order_diagram--guide_line" x1="1050" x2="1050" y1="1" y2="99"></line><line class="stroke_order_diagram--bounding_box" x1="1099" x2="1099" y1="1" y2="99"></line><path class="stroke_order_diagram--existing_path" d="M10.1,25.44c0.5,0.3,3.21,0.37,3.71,0.28c2.35-0.41,12.4-2.22,18.05-2.66c0.77-0.06,2.2-0.22,2.83,0.04" id="Ske2ql8772z" kvg:type="㇐" transform="matrix(1,0,0,1,996,-4)" xmlns:kvg="http://kanjivg.tagaini.net"></path><path class="stroke_order_diagram--existing_path" d="M23.05,27.52c0.93,0.88,1.58,2.78,1.58,3.48c0,5.95,0.05,44.62-0.13,48.57" id="Ske2ql87730" kvg:type="㇑a" transform="matrix(1,0,0,1,996,-4)" xmlns:kvg="http://kanjivg.tagaini.net"></path><path class="stroke_order_diagram--existing_path" d="M12.02,51.27c0.45,0.31,3.64,0.35,4.11,0.28c2.66-0.41,11.71-1.12,15.39-1.56c0.57-0.07,2.63-0.13,3.48,0.15" id="Ske2ql87731" kvg:type="㇐" transform="matrix(1,0,0,1,996,-4)" xmlns:kvg="http://kanjivg.tagaini.net"></path><path class="stroke_order_diagram--existing_path" d="M11.75,84.61c1,0.39,4.05,0.61,4.85,0.12c5.09-3.09,11.31-7.64,19.06-12.98" id="Ske2ql87732" kvg:type="㇐" transform="matrix(1,0,0,1,996,-4)" xmlns:kvg="http://kanjivg.tagaini.net"></path><path class="stroke_order_diagram--existing_path" d="M51.19,12.01c0.79,0.57,1.27,1.42,1.43,2.55c0.16,1.13,0.16,7.26,0.16,10.08" id="Ske2ql87733" kvg:type="㇑a" transform="matrix(1,0,0,1,996,-4)" xmlns:kvg="http://kanjivg.tagaini.net"></path><path class="stroke_order_diagram--existing_path" d="M42.96,27.09c1.4-0.12,17.78-3,19.05-3.23c2.15-0.39,2.68,1.43,2.6,3.24c-0.35,7.66-1.93,18.64-2.67,26.4" id="Ske2ql87734" kvg:type="㇕" transform="matrix(1,0,0,1,996,-4)" xmlns:kvg="http://kanjivg.tagaini.net"></path><path class="stroke_order_diagram--existing_path" d="M43.21,39.83c3.56-0.49,13.45-2.02,18.84-2.36" id="Ske2ql87735" kvg:type="㇐" transform="matrix(1,0,0,1,996,-4)" xmlns:kvg="http://kanjivg.tagaini.net"></path><path class="stroke_order_diagram--existing_path" d="M43.12,53.58c3.85-0.53,10.63-1.58,18.62-1.64" id="Ske2ql87736" kvg:type="㇐" transform="matrix(1,0,0,1,996,-4)" xmlns:kvg="http://kanjivg.tagaini.net"></path><path class="stroke_order_diagram--existing_path" d="M41.25,24.44c0.8,0.57,1.27,2.55,1.43,3.68c0.14,1.03-0.09,49.8-0.09,59.84c0,2.66,0.97,2.55,1.89,1.68c3.23-3.04,8.54-6.87,12.13-9.65" id="Ske2ql87737" kvg:type="㇙" transform="matrix(1,0,0,1,996,-4)" xmlns:kvg="http://kanjivg.tagaini.net"></path><path class="stroke_order_diagram--existing_path" d="M65.28,58.14c0.02,0.26,0.05,0.67-0.05,1.05c-0.58,2.21-3.89,7.06-8.42,10.03" id="Ske2ql87738" kvg:type="㇒" transform="matrix(1,0,0,1,996,-4)" xmlns:kvg="http://kanjivg.tagaini.net"></path><path class="stroke_order_diagram--current_path" d="M53.23,69.38c4.79,3.08,12.32,11.29,15.05,17.8" id="kvg:0746f-s11" kvg:type="㇔/㇏" transform="matrix(1,0,0,1,996,-4)" xmlns:kvg="http://kanjivg.tagaini.net"></path><path class="stroke_order_diagram--current_path" d="M53.23,69.38c4.79,3.08,12.32,11.29,15.05,17.8" id="Ske2ql8773a" kvg:type="㇔/㇏" transform="matrix(1,0,0,1,996,-4)" xmlns:kvg="http://kanjivg.tagaini.net"></path><circle class="stroke_order_diagram--path_start" cx="53.23" cy="69.38" r="4" transform="matrix(1,0,0,1,996,-4)"></circle><line class="stroke_order_diagram--guide_line" x1="1150" x2="1150" y1="1" y2="99"></line><line class="stroke_order_diagram--bounding_box" x1="1199" x2="1199" y1="1" y2="99"></line><path class="stroke_order_diagram--existing_path" d="M10.1,25.44c0.5,0.3,3.21,0.37,3.71,0.28c2.35-0.41,12.4-2.22,18.05-2.66c0.77-0.06,2.2-0.22,2.83,0.04" id="Ske2ql8773d" kvg:type="㇐" transform="matrix(1,0,0,1,1096,-4)" xmlns:kvg="http://kanjivg.tagaini.net"></path><path class="stroke_order_diagram--existing_path" d="M23.05,27.52c0.93,0.88,1.58,2.78,1.58,3.48c0,5.95,0.05,44.62-0.13,48.57" id="Ske2ql8773e" kvg:type="㇑a" transform="matrix(1,0,0,1,1096,-4)" xmlns:kvg="http://kanjivg.tagaini.net"></path><path class="stroke_order_diagram--existing_path" d="M12.02,51.27c0.45,0.31,3.64,0.35,4.11,0.28c2.66-0.41,11.71-1.12,15.39-1.56c0.57-0.07,2.63-0.13,3.48,0.15" id="Ske2ql8773f" kvg:type="㇐" transform="matrix(1,0,0,1,1096,-4)" xmlns:kvg="http://kanjivg.tagaini.net"></path><path class="stroke_order_diagram--existing_path" d="M11.75,84.61c1,0.39,4.05,0.61,4.85,0.12c5.09-3.09,11.31-7.64,19.06-12.98" id="Ske2ql8773g" kvg:type="㇐" transform="matrix(1,0,0,1,1096,-4)" xmlns:kvg="http://kanjivg.tagaini.net"></path><path class="stroke_order_diagram--existing_path" d="M51.19,12.01c0.79,0.57,1.27,1.42,1.43,2.55c0.16,1.13,0.16,7.26,0.16,10.08" id="Ske2ql8773h" kvg:type="㇑a" transform="matrix(1,0,0,1,1096,-4)" xmlns:kvg="http://kanjivg.tagaini.net"></path><path class="stroke_order_diagram--existing_path" d="M42.96,27.09c1.4-0.12,17.78-3,19.05-3.23c2.15-0.39,2.68,1.43,2.6,3.24c-0.35,7.66-1.93,18.64-2.67,26.4" id="Ske2ql8773i" kvg:type="㇕" transform="matrix(1,0,0,1,1096,-4)" xmlns:kvg="http://kanjivg.tagaini.net"></path><path class="stroke_order_diagram--existing_path" d="M43.21,39.83c3.56-0.49,13.45-2.02,18.84-2.36" id="Ske2ql8773j" kvg:type="㇐" transform="matrix(1,0,0,1,1096,-4)" xmlns:kvg="http://kanjivg.tagaini.net"></path><path class="stroke_order_diagram--existing_path" d="M43.12,53.58c3.85-0.53,10.63-1.58,18.62-1.64" id="Ske2ql8773k" kvg:type="㇐" transform="matrix(1,0,0,1,1096,-4)" xmlns:kvg="http://kanjivg.tagaini.net"></path><path class="stroke_order_diagram--existing_path" d="M41.25,24.44c0.8,0.57,1.27,2.55,1.43,3.68c0.14,1.03-0.09,49.8-0.09,59.84c0,2.66,0.97,2.55,1.89,1.68c3.23-3.04,8.54-6.87,12.13-9.65" id="Ske2ql8773l" kvg:type="㇙" transform="matrix(1,0,0,1,1096,-4)" xmlns:kvg="http://kanjivg.tagaini.net"></path><path class="stroke_order_diagram--existing_path" d="M65.28,58.14c0.02,0.26,0.05,0.67-0.05,1.05c-0.58,2.21-3.89,7.06-8.42,10.03" id="Ske2ql8773m" kvg:type="㇒" transform="matrix(1,0,0,1,1096,-4)" xmlns:kvg="http://kanjivg.tagaini.net"></path><path class="stroke_order_diagram--existing_path" d="M53.23,69.38c4.79,3.08,12.32,11.29,15.05,17.8" id="Ske2ql8773n" kvg:type="㇔/㇏" transform="matrix(1,0,0,1,1096,-4)" xmlns:kvg="http://kanjivg.tagaini.net"></path><path class="stroke_order_diagram--current_path" d="M74.14,21.46c1.29,0.29,2.06,0.59,3.11,0.52c6.67-0.47,11.82-1.18,14.68-2.24c3.35-1.24,5.09,1.74,3.6,4.64c-1.49,2.9-6.82,15.48-9.43,19.62" id="kvg:0746f-s12" kvg:type="㇇" transform="matrix(1,0,0,1,1096,-4)" xmlns:kvg="http://kanjivg.tagaini.net"></path><path class="stroke_order_diagram--current_path" d="M74.14,21.46c1.29,0.29,2.06,0.59,3.11,0.52c6.67-0.47,11.82-1.18,14.68-2.24c3.35-1.24,5.09,1.74,3.6,4.64c-1.49,2.9-6.82,15.48-9.43,19.62" id="Ske2ql8773p" kvg:type="㇇" transform="matrix(1,0,0,1,1096,-4)" xmlns:kvg="http://kanjivg.tagaini.net"></path><circle class="stroke_order_diagram--path_start" cx="74.14" cy="21.46" r="4" transform="matrix(1,0,0,1,1096,-4)"></circle><line class="stroke_order_diagram--guide_line" x1="1250" x2="1250" y1="1" y2="99"></line><line class="stroke_order_diagram--bounding_box" x1="1299" x2="1299" y1="1" y2="99"></line><path class="stroke_order_diagram--existing_path" d="M10.1,25.44c0.5,0.3,3.21,0.37,3.71,0.28c2.35-0.41,12.4-2.22,18.05-2.66c0.77-0.06,2.2-0.22,2.83,0.04" id="Ske2ql8773s" kvg:type="㇐" transform="matrix(1,0,0,1,1196,-4)" xmlns:kvg="http://kanjivg.tagaini.net"></path><path class="stroke_order_diagram--existing_path" d="M23.05,27.52c0.93,0.88,1.58,2.78,1.58,3.48c0,5.95,0.05,44.62-0.13,48.57" id="Ske2ql8773t" kvg:type="㇑a" transform="matrix(1,0,0,1,1196,-4)" xmlns:kvg="http://kanjivg.tagaini.net"></path><path class="stroke_order_diagram--existing_path" d="M12.02,51.27c0.45,0.31,3.64,0.35,4.11,0.28c2.66-0.41,11.71-1.12,15.39-1.56c0.57-0.07,2.63-0.13,3.48,0.15" id="Ske2ql8773u" kvg:type="㇐" transform="matrix(1,0,0,1,1196,-4)" xmlns:kvg="http://kanjivg.tagaini.net"></path><path class="stroke_order_diagram--existing_path" d="M11.75,84.61c1,0.39,4.05,0.61,4.85,0.12c5.09-3.09,11.31-7.64,19.06-12.98" id="Ske2ql8773v" kvg:type="㇐" transform="matrix(1,0,0,1,1196,-4)" xmlns:kvg="http://kanjivg.tagaini.net"></path><path class="stroke_order_diagram--existing_path" d="M51.19,12.01c0.79,0.57,1.27,1.42,1.43,2.55c0.16,1.13,0.16,7.26,0.16,10.08" id="Ske2ql8773w" kvg:type="㇑a" transform="matrix(1,0,0,1,1196,-4)" xmlns:kvg="http://kanjivg.tagaini.net"></path><path class="stroke_order_diagram--existing_path" d="M42.96,27.09c1.4-0.12,17.78-3,19.05-3.23c2.15-0.39,2.68,1.43,2.6,3.24c-0.35,7.66-1.93,18.64-2.67,26.4" id="Ske2ql8773x" kvg:type="㇕" transform="matrix(1,0,0,1,1196,-4)" xmlns:kvg="http://kanjivg.tagaini.net"></path><path class="stroke_order_diagram--existing_path" d="M43.21,39.83c3.56-0.49,13.45-2.02,18.84-2.36" id="Ske2ql8773y" kvg:type="㇐" transform="matrix(1,0,0,1,1196,-4)" xmlns:kvg="http://kanjivg.tagaini.net"></path><path class="stroke_order_diagram--existing_path" d="M43.12,53.58c3.85-0.53,10.63-1.58,18.62-1.64" id="Ske2ql8773z" kvg:type="㇐" transform="matrix(1,0,0,1,1196,-4)" xmlns:kvg="http://kanjivg.tagaini.net"></path><path class="stroke_order_diagram--existing_path" d="M41.25,24.44c0.8,0.57,1.27,2.55,1.43,3.68c0.14,1.03-0.09,49.8-0.09,59.84c0,2.66,0.97,2.55,1.89,1.68c3.23-3.04,8.54-6.87,12.13-9.65" id="Ske2ql87740" kvg:type="㇙" transform="matrix(1,0,0,1,1196,-4)" xmlns:kvg="http://kanjivg.tagaini.net"></path><path class="stroke_order_diagram--existing_path" d="M65.28,58.14c0.02,0.26,0.05,0.67-0.05,1.05c-0.58,2.21-3.89,7.06-8.42,10.03" id="Ske2ql87741" kvg:type="㇒" transform="matrix(1,0,0,1,1196,-4)" xmlns:kvg="http://kanjivg.tagaini.net"></path><path class="stroke_order_diagram--existing_path" d="M53.23,69.38c4.79,3.08,12.32,11.29,15.05,17.8" id="Ske2ql87742" kvg:type="㇔/㇏" transform="matrix(1,0,0,1,1196,-4)" xmlns:kvg="http://kanjivg.tagaini.net"></path><path class="stroke_order_diagram--existing_path" d="M74.14,21.46c1.29,0.29,2.06,0.59,3.11,0.52c6.67-0.47,11.82-1.18,14.68-2.24c3.35-1.24,5.09,1.74,3.6,4.64c-1.49,2.9-6.82,15.48-9.43,19.62" id="Ske2ql87743" kvg:type="㇇" transform="matrix(1,0,0,1,1196,-4)" xmlns:kvg="http://kanjivg.tagaini.net"></path><path class="stroke_order_diagram--current_path" d="M85.5,44.61C105,56.75,97.75,89,86.48,78.13" id="kvg:0746f-s13" kvg:type="㇕va" transform="matrix(1,0,0,1,1196,-4)" xmlns:kvg="http://kanjivg.tagaini.net"></path><path class="stroke_order_diagram--current_path" d="M85.5,44.61C105,56.75,97.75,89,86.48,78.13" id="Ske2ql87745" kvg:type="㇕va" transform="matrix(1,0,0,1,1196,-4)" xmlns:kvg="http://kanjivg.tagaini.net"></path><circle class="stroke_order_diagram--path_start" cx="85.5" cy="44.61" r="4" transform="matrix(1,0,0,1,1196,-4)"></circle><line class="stroke_order_diagram--guide_line" x1="1350" x2="1350" y1="1" y2="99"></line><line class="stroke_order_diagram--bounding_box" x1="1399" x2="1399" y1="1" y2="99"></line><path class="stroke_order_diagram--existing_path" d="M10.1,25.44c0.5,0.3,3.21,0.37,3.71,0.28c2.35-0.41,12.4-2.22,18.05-2.66c0.77-0.06,2.2-0.22,2.83,0.04" id="Ske2ql87748" kvg:type="㇐" transform="matrix(1,0,0,1,1296,-4)" xmlns:kvg="http://kanjivg.tagaini.net"></path><path class="stroke_order_diagram--existing_path" d="M23.05,27.52c0.93,0.88,1.58,2.78,1.58,3.48c0,5.95,0.05,44.62-0.13,48.57" id="Ske2ql87749" kvg:type="㇑a" transform="matrix(1,0,0,1,1296,-4)" xmlns:kvg="http://kanjivg.tagaini.net"></path><path class="stroke_order_diagram--existing_path" d="M12.02,51.27c0.45,0.31,3.64,0.35,4.11,0.28c2.66-0.41,11.71-1.12,15.39-1.56c0.57-0.07,2.63-0.13,3.48,0.15" id="Ske2ql8774a" kvg:type="㇐" transform="matrix(1,0,0,1,1296,-4)" xmlns:kvg="http://kanjivg.tagaini.net"></path><path class="stroke_order_diagram--existing_path" d="M11.75,84.61c1,0.39,4.05,0.61,4.85,0.12c5.09-3.09,11.31-7.64,19.06-12.98" id="Ske2ql8774b" kvg:type="㇐" transform="matrix(1,0,0,1,1296,-4)" xmlns:kvg="http://kanjivg.tagaini.net"></path><path class="stroke_order_diagram--existing_path" d="M51.19,12.01c0.79,0.57,1.27,1.42,1.43,2.55c0.16,1.13,0.16,7.26,0.16,10.08" id="Ske2ql8774c" kvg:type="㇑a" transform="matrix(1,0,0,1,1296,-4)" xmlns:kvg="http://kanjivg.tagaini.net"></path><path class="stroke_order_diagram--existing_path" d="M42.96,27.09c1.4-0.12,17.78-3,19.05-3.23c2.15-0.39,2.68,1.43,2.6,3.24c-0.35,7.66-1.93,18.64-2.67,26.4" id="Ske2ql8774d" kvg:type="㇕" transform="matrix(1,0,0,1,1296,-4)" xmlns:kvg="http://kanjivg.tagaini.net"></path><path class="stroke_order_diagram--existing_path" d="M43.21,39.83c3.56-0.49,13.45-2.02,18.84-2.36" id="Ske2ql8774e" kvg:type="㇐" transform="matrix(1,0,0,1,1296,-4)" xmlns:kvg="http://kanjivg.tagaini.net"></path><path class="stroke_order_diagram--existing_path" d="M43.12,53.58c3.85-0.53,10.63-1.58,18.62-1.64" id="Ske2ql8774f" kvg:type="㇐" transform="matrix(1,0,0,1,1296,-4)" xmlns:kvg="http://kanjivg.tagaini.net"></path><path class="stroke_order_diagram--existing_path" d="M41.25,24.44c0.8,0.57,1.27,2.55,1.43,3.68c0.14,1.03-0.09,49.8-0.09,59.84c0,2.66,0.97,2.55,1.89,1.68c3.23-3.04,8.54-6.87,12.13-9.65" id="Ske2ql8774g" kvg:type="㇙" transform="matrix(1,0,0,1,1296,-4)" xmlns:kvg="http://kanjivg.tagaini.net"></path><path class="stroke_order_diagram--existing_path" d="M65.28,58.14c0.02,0.26,0.05,0.67-0.05,1.05c-0.58,2.21-3.89,7.06-8.42,10.03" id="Ske2ql8774h" kvg:type="㇒" transform="matrix(1,0,0,1,1296,-4)" xmlns:kvg="http://kanjivg.tagaini.net"></path><path class="stroke_order_diagram--existing_path" d="M53.23,69.38c4.79,3.08,12.32,11.29,15.05,17.8" id="Ske2ql8774i" kvg:type="㇔/㇏" transform="matrix(1,0,0,1,1296,-4)" xmlns:kvg="http://kanjivg.tagaini.net"></path><path class="stroke_order_diagram--existing_path" d="M74.14,21.46c1.29,0.29,2.06,0.59,3.11,0.52c6.67-0.47,11.82-1.18,14.68-2.24c3.35-1.24,5.09,1.74,3.6,4.64c-1.49,2.9-6.82,15.48-9.43,19.62" id="Ske2ql8774j" kvg:type="㇇" transform="matrix(1,0,0,1,1296,-4)" xmlns:kvg="http://kanjivg.tagaini.net"></path><path class="stroke_order_diagram--existing_path" d="M85.5,44.61C105,56.75,97.75,89,86.48,78.13" id="Ske2ql8774k" kvg:type="㇕va" transform="matrix(1,0,0,1,1296,-4)" xmlns:kvg="http://kanjivg.tagaini.net"></path><path class="stroke_order_diagram--current_path" d="M77.33,22.25c0.42,1,0.41,2.25,0.58,3.25c0.18,1,0,65.75-0.17,72" id="kvg:0746f-s14" kvg:type="㇑" transform="matrix(1,0,0,1,1296,-4)" xmlns:kvg="http://kanjivg.tagaini.net"></path><path class="stroke_order_diagram--current_path" d="M77.33,22.25c0.42,1,0.41,2.25,0.58,3.25c0.18,1,0,65.75-0.17,72" id="Ske2ql8774m" kvg:type="㇑" transform="matrix(1,0,0,1,1296,-4)" xmlns:kvg="http://kanjivg.tagaini.net"></path><circle class="stroke_order_diagram--path_start" cx="77.33" cy="22.25" r="4" transform="matrix(1,0,0,1,1296,-4)"></circle></svg>