<svg class="stroke_order_diagram--svg_container_for_51866288d5dda796580005f8" style="height: 100px; width: 500px;" viewbox="0 0 500 100"><desc>Created with Snap</desc><defs></defs><line class="stroke_order_diagram--bounding_box" x1="1" x2="499" y1="1" y2="1"></line><line class="stroke_order_diagram--bounding_box" x1="1" x2="1" y1="1" y2="99"></line><line class="stroke_order_diagram--bounding_box" x1="1" x2="499" y1="99" y2="99"></line><line class="stroke_order_diagram--guide_line" x1="0" x2="500" y1="50" y2="50"></line><line class="stroke_order_diagram--guide_line" x1="50" x2="50" y1="1" y2="99"></line><line class="stroke_order_diagram--bounding_box" x1="99" x2="99" y1="1" y2="99"></line><path class="stroke_order_diagram--current_path" d="M31.26,25.89c0.36,1.36,0.35,2.65-0.05,3.79c-2.34,6.69-7.24,17.22-14.96,24.19" id="kvg:0751f-s1" kvg:type="㇒" transform="matrix(1,0,0,1,-4,-4)" xmlns:kvg="http://kanjivg.tagaini.net"></path><path class="stroke_order_diagram--current_path" d="M31.26,25.89c0.36,1.36,0.35,2.65-0.05,3.79c-2.34,6.69-7.24,17.22-14.96,24.19" id="Ske1zmccge" kvg:type="㇒" transform="matrix(1,0,0,1,-4,-4)" xmlns:kvg="http://kanjivg.tagaini.net"></path><circle class="stroke_order_diagram--path_start" cx="31.26" cy="25.89" r="4" transform="matrix(1,0,0,1,-4,-4)"></circle><line class="stroke_order_diagram--guide_line" x1="150" x2="150" y1="1" y2="99"></line><line class="stroke_order_diagram--bounding_box" x1="199" x2="199" y1="1" y2="99"></line><path class="stroke_order_diagram--existing_path" d="M31.26,25.89c0.36,1.36,0.35,2.65-0.05,3.79c-2.34,6.69-7.24,17.22-14.96,24.19" id="Ske1zmccgh" kvg:type="㇒" transform="matrix(1,0,0,1,96,-4)" xmlns:kvg="http://kanjivg.tagaini.net"></path><path class="stroke_order_diagram--current_path" d="M31.13,40.67c2.37,0.33,4.03,0.07,5.64-0.12c9.5-1.1,25.15-4.12,35.35-5.83c2.51-0.42,4.86-0.73,7.38-0.33" id="kvg:0751f-s2" kvg:type="㇐" transform="matrix(1,0,0,1,96,-4)" xmlns:kvg="http://kanjivg.tagaini.net"></path><path class="stroke_order_diagram--current_path" d="M31.13,40.67c2.37,0.33,4.03,0.07,5.64-0.12c9.5-1.1,25.15-4.12,35.35-5.83c2.51-0.42,4.86-0.73,7.38-0.33" id="Ske1zmccgj" kvg:type="㇐" transform="matrix(1,0,0,1,96,-4)" xmlns:kvg="http://kanjivg.tagaini.net"></path><circle class="stroke_order_diagram--path_start" cx="31.13" cy="40.67" r="4" transform="matrix(1,0,0,1,96,-4)"></circle><line class="stroke_order_diagram--guide_line" x1="250" x2="250" y1="1" y2="99"></line><line class="stroke_order_diagram--bounding_box" x1="299" x2="299" y1="1" y2="99"></line><path class="stroke_order_diagram--existing_path" d="M31.26,25.89c0.36,1.36,0.35,2.65-0.05,3.79c-2.34,6.69-7.24,17.22-14.96,24.19" id="Ske1zmccgm" kvg:type="㇒" transform="matrix(1,0,0,1,196,-4)" xmlns:kvg="http://kanjivg.tagaini.net"></path><path class="stroke_order_diagram--existing_path" d="M31.13,40.67c2.37,0.33,4.03,0.07,5.64-0.12c9.5-1.1,25.15-4.12,35.35-5.83c2.51-0.42,4.86-0.73,7.38-0.33" id="Ske1zmccgn" kvg:type="㇐" transform="matrix(1,0,0,1,196,-4)" xmlns:kvg="http://kanjivg.tagaini.net"></path><path class="stroke_order_diagram--current_path" d="M52.31,12.63c1.28,1.28,2.01,3.12,2.01,5.23c0,4.01,0,65.14,0,69.77" id="kvg:0751f-s3" kvg:type="㇑a" transform="matrix(1,0,0,1,196,-4)" xmlns:kvg="http://kanjivg.tagaini.net"></path><path class="stroke_order_diagram--current_path" d="M52.31,12.63c1.28,1.28,2.01,3.12,2.01,5.23c0,4.01,0,65.14,0,69.77" id="Ske1zmccgp" kvg:type="㇑a" transform="matrix(1,0,0,1,196,-4)" xmlns:kvg="http://kanjivg.tagaini.net"></path><circle class="stroke_order_diagram--path_start" cx="52.31" cy="12.63" r="4" transform="matrix(1,0,0,1,196,-4)"></circle><line class="stroke_order_diagram--guide_line" x1="350" x2="350" y1="1" y2="99"></line><line class="stroke_order_diagram--bounding_box" x1="399" x2="399" y1="1" y2="99"></line><path class="stroke_order_diagram--existing_path" d="M31.26,25.89c0.36,1.36,0.35,2.65-0.05,3.79c-2.34,6.69-7.24,17.22-14.96,24.19" id="Ske1zmccgs" kvg:type="㇒" transform="matrix(1,0,0,1,296,-4)" xmlns:kvg="http://kanjivg.tagaini.net"></path><path class="stroke_order_diagram--existing_path" d="M31.13,40.67c2.37,0.33,4.03,0.07,5.64-0.12c9.5-1.1,25.15-4.12,35.35-5.83c2.51-0.42,4.86-0.73,7.38-0.33" id="Ske1zmccgt" kvg:type="㇐" transform="matrix(1,0,0,1,296,-4)" xmlns:kvg="http://kanjivg.tagaini.net"></path><path class="stroke_order_diagram--existing_path" d="M52.31,12.63c1.28,1.28,2.01,3.12,2.01,5.23c0,4.01,0,65.14,0,69.77" id="Ske1zmccgu" kvg:type="㇑a" transform="matrix(1,0,0,1,296,-4)" xmlns:kvg="http://kanjivg.tagaini.net"></path><path class="stroke_order_diagram--current_path" d="M29.38,64.03c2.64,0.67,5.38,0.31,8.04-0.02C49.45,62.51,62.16,61,72.5,59.86c2.38-0.26,4.99-0.76,7.38-0.23" id="kvg:0751f-s4" kvg:type="㇐" transform="matrix(1,0,0,1,296,-4)" xmlns:kvg="http://kanjivg.tagaini.net"></path><path class="stroke_order_diagram--current_path" d="M29.38,64.03c2.64,0.67,5.38,0.31,8.04-0.02C49.45,62.51,62.16,61,72.5,59.86c2.38-0.26,4.99-0.76,7.38-0.23" id="Ske1zmccgw" kvg:type="㇐" transform="matrix(1,0,0,1,296,-4)" xmlns:kvg="http://kanjivg.tagaini.net"></path><circle class="stroke_order_diagram--path_start" cx="29.38" cy="64.03" r="4" transform="matrix(1,0,0,1,296,-4)"></circle><line class="stroke_order_diagram--guide_line" x1="450" x2="450" y1="1" y2="99"></line><line class="stroke_order_diagram--bounding_box" x1="499" x2="499" y1="1" y2="99"></line><path class="stroke_order_diagram--existing_path" d="M31.26,25.89c0.36,1.36,0.35,2.65-0.05,3.79c-2.34,6.69-7.24,17.22-14.96,24.19" id="Ske1zmccgz" kvg:type="㇒" transform="matrix(1,0,0,1,396,-4)" xmlns:kvg="http://kanjivg.tagaini.net"></path><path class="stroke_order_diagram--existing_path" d="M31.13,40.67c2.37,0.33,4.03,0.07,5.64-0.12c9.5-1.1,25.15-4.12,35.35-5.83c2.51-0.42,4.86-0.73,7.38-0.33" id="Ske1zmccg10" kvg:type="㇐" transform="matrix(1,0,0,1,396,-4)" xmlns:kvg="http://kanjivg.tagaini.net"></path><path class="stroke_order_diagram--existing_path" d="M52.31,12.63c1.28,1.28,2.01,3.12,2.01,5.23c0,4.01,0,65.14,0,69.77" id="Ske1zmccg11" kvg:type="㇑a" transform="matrix(1,0,0,1,396,-4)" xmlns:kvg="http://kanjivg.tagaini.net"></path><path class="stroke_order_diagram--existing_path" d="M29.38,64.03c2.64,0.67,5.38,0.31,8.04-0.02C49.45,62.51,62.16,61,72.5,59.86c2.38-0.26,4.99-0.76,7.38-0.23" id="Ske1zmccg12" kvg:type="㇐" transform="matrix(1,0,0,1,396,-4)" xmlns:kvg="http://kanjivg.tagaini.net"></path><path class="stroke_order_diagram--current_path" d="M15.75,90.25c3.04,0.75,6.21,0.94,8.4,0.8C40.62,90,68.12,86.5,83.3,85.75c3.63-0.18,7.68,0,10.07,0.73" id="kvg:0751f-s5" kvg:type="㇐" transform="matrix(1,0,0,1,396,-4)" xmlns:kvg="http://kanjivg.tagaini.net"></path><path class="stroke_order_diagram--current_path" d="M15.75,90.25c3.04,0.75,6.21,0.94,8.4,0.8C40.62,90,68.12,86.5,83.3,85.75c3.63-0.18,7.68,0,10.07,0.73" id="Ske1zmccg14" kvg:type="㇐" transform="matrix(1,0,0,1,396,-4)" xmlns:kvg="http://kanjivg.tagaini.net"></path><circle class="stroke_order_diagram--path_start" cx="15.75" cy="90.25" r="4" transform="matrix(1,0,0,1,396,-4)"></circle></svg>