<svg class="stroke_order_diagram--svg_container_for_51866288d5dda796580005e6" style="height: 100px; width: 1000px;" viewbox="0 0 1000 100"><desc>Created with Snap</desc><defs></defs><line class="stroke_order_diagram--bounding_box" x1="1" x2="999" y1="1" y2="1"></line><line class="stroke_order_diagram--bounding_box" x1="1" x2="1" y1="1" y2="99"></line><line class="stroke_order_diagram--bounding_box" x1="1" x2="999" y1="99" y2="99"></line><line class="stroke_order_diagram--guide_line" x1="0" x2="1000" y1="50" y2="50"></line><line class="stroke_order_diagram--guide_line" x1="50" x2="50" y1="1" y2="99"></line><line class="stroke_order_diagram--bounding_box" x1="99" x2="99" y1="1" y2="99"></line><path class="stroke_order_diagram--current_path" d="M28.99,17.75c1,1,1.4,2.4,1.4,3.95s-0.01,9.28-0.01,12.67" id="kvg:0755d-s1" kvg:type="㇑a" transform="matrix(1,0,0,1,-4,-4)" xmlns:kvg="http://kanjivg.tagaini.net"></path><path class="stroke_order_diagram--current_path" d="M28.99,17.75c1,1,1.4,2.4,1.4,3.95s-0.01,9.28-0.01,12.67" id="Ske1zhedwj" kvg:type="㇑a" transform="matrix(1,0,0,1,-4,-4)" xmlns:kvg="http://kanjivg.tagaini.net"></path><circle class="stroke_order_diagram--path_start" cx="28.99" cy="17.75" r="4" transform="matrix(1,0,0,1,-4,-4)"></circle><line class="stroke_order_diagram--guide_line" x1="150" x2="150" y1="1" y2="99"></line><line class="stroke_order_diagram--bounding_box" x1="199" x2="199" y1="1" y2="99"></line><path class="stroke_order_diagram--existing_path" d="M28.99,17.75c1,1,1.4,2.4,1.4,3.95s-0.01,9.28-0.01,12.67" id="Ske1zhedwm" kvg:type="㇑a" transform="matrix(1,0,0,1,96,-4)" xmlns:kvg="http://kanjivg.tagaini.net"></path><path class="stroke_order_diagram--current_path" d="M8.2,37.86c2.37,0.47,4.92,0.38,7.32,0.02c7.69-1.16,20.01-3.31,28.25-4.15c2.18-0.22,4.67-0.7,6.79,0.09" id="kvg:0755d-s2" kvg:type="㇐" transform="matrix(1,0,0,1,96,-4)" xmlns:kvg="http://kanjivg.tagaini.net"></path><path class="stroke_order_diagram--current_path" d="M8.2,37.86c2.37,0.47,4.92,0.38,7.32,0.02c7.69-1.16,20.01-3.31,28.25-4.15c2.18-0.22,4.67-0.7,6.79,0.09" id="Ske1zhedwo" kvg:type="㇐" transform="matrix(1,0,0,1,96,-4)" xmlns:kvg="http://kanjivg.tagaini.net"></path><circle class="stroke_order_diagram--path_start" cx="8.2" cy="37.86" r="4" transform="matrix(1,0,0,1,96,-4)"></circle><line class="stroke_order_diagram--guide_line" x1="250" x2="250" y1="1" y2="99"></line><line class="stroke_order_diagram--bounding_box" x1="299" x2="299" y1="1" y2="99"></line><path class="stroke_order_diagram--existing_path" d="M28.99,17.75c1,1,1.4,2.4,1.4,3.95s-0.01,9.28-0.01,12.67" id="Ske1zhedwr" kvg:type="㇑a" transform="matrix(1,0,0,1,196,-4)" xmlns:kvg="http://kanjivg.tagaini.net"></path><path class="stroke_order_diagram--existing_path" d="M8.2,37.86c2.37,0.47,4.92,0.38,7.32,0.02c7.69-1.16,20.01-3.31,28.25-4.15c2.18-0.22,4.67-0.7,6.79,0.09" id="Ske1zhedws" kvg:type="㇐" transform="matrix(1,0,0,1,196,-4)" xmlns:kvg="http://kanjivg.tagaini.net"></path><path class="stroke_order_diagram--current_path" d="M13.74,49.96c0.9,0.9,1.36,1.92,1.39,3.41c0.12,7.76,0.87,30.13,1.08,36.89" id="kvg:0755d-s3" kvg:type="㇑" transform="matrix(1,0,0,1,196,-4)" xmlns:kvg="http://kanjivg.tagaini.net"></path><path class="stroke_order_diagram--current_path" d="M13.74,49.96c0.9,0.9,1.36,1.92,1.39,3.41c0.12,7.76,0.87,30.13,1.08,36.89" id="Ske1zhedwu" kvg:type="㇑" transform="matrix(1,0,0,1,196,-4)" xmlns:kvg="http://kanjivg.tagaini.net"></path><circle class="stroke_order_diagram--path_start" cx="13.74" cy="49.96" r="4" transform="matrix(1,0,0,1,196,-4)"></circle><line class="stroke_order_diagram--guide_line" x1="350" x2="350" y1="1" y2="99"></line><line class="stroke_order_diagram--bounding_box" x1="399" x2="399" y1="1" y2="99"></line><path class="stroke_order_diagram--existing_path" d="M28.99,17.75c1,1,1.4,2.4,1.4,3.95s-0.01,9.28-0.01,12.67" id="Ske1zhedwx" kvg:type="㇑a" transform="matrix(1,0,0,1,296,-4)" xmlns:kvg="http://kanjivg.tagaini.net"></path><path class="stroke_order_diagram--existing_path" d="M8.2,37.86c2.37,0.47,4.92,0.38,7.32,0.02c7.69-1.16,20.01-3.31,28.25-4.15c2.18-0.22,4.67-0.7,6.79,0.09" id="Ske1zhedwy" kvg:type="㇐" transform="matrix(1,0,0,1,296,-4)" xmlns:kvg="http://kanjivg.tagaini.net"></path><path class="stroke_order_diagram--existing_path" d="M13.74,49.96c0.9,0.9,1.36,1.92,1.39,3.41c0.12,7.76,0.87,30.13,1.08,36.89" id="Ske1zhedwz" kvg:type="㇑" transform="matrix(1,0,0,1,296,-4)" xmlns:kvg="http://kanjivg.tagaini.net"></path><path class="stroke_order_diagram--current_path" d="M16.14,51.91c8.99-1.55,17.77-3.29,25.36-4.22c3.21-0.39,5.16,0.44,4.95,3.94c-0.35,6.07-0.7,19.4-1.55,29.86c-0.17,2.05-0.34,4-0.51,5.75" id="kvg:0755d-s4" kvg:type="㇕a" transform="matrix(1,0,0,1,296,-4)" xmlns:kvg="http://kanjivg.tagaini.net"></path><path class="stroke_order_diagram--current_path" d="M16.14,51.91c8.99-1.55,17.77-3.29,25.36-4.22c3.21-0.39,5.16,0.44,4.95,3.94c-0.35,6.07-0.7,19.4-1.55,29.86c-0.17,2.05-0.34,4-0.51,5.75" id="Ske1zhedw11" kvg:type="㇕a" transform="matrix(1,0,0,1,296,-4)" xmlns:kvg="http://kanjivg.tagaini.net"></path><circle class="stroke_order_diagram--path_start" cx="16.14" cy="51.91" r="4" transform="matrix(1,0,0,1,296,-4)"></circle><line class="stroke_order_diagram--guide_line" x1="450" x2="450" y1="1" y2="99"></line><line class="stroke_order_diagram--bounding_box" x1="499" x2="499" y1="1" y2="99"></line><path class="stroke_order_diagram--existing_path" d="M28.99,17.75c1,1,1.4,2.4,1.4,3.95s-0.01,9.28-0.01,12.67" id="Ske1zhedw14" kvg:type="㇑a" transform="matrix(1,0,0,1,396,-4)" xmlns:kvg="http://kanjivg.tagaini.net"></path><path class="stroke_order_diagram--existing_path" d="M8.2,37.86c2.37,0.47,4.92,0.38,7.32,0.02c7.69-1.16,20.01-3.31,28.25-4.15c2.18-0.22,4.67-0.7,6.79,0.09" id="Ske1zhedw15" kvg:type="㇐" transform="matrix(1,0,0,1,396,-4)" xmlns:kvg="http://kanjivg.tagaini.net"></path><path class="stroke_order_diagram--existing_path" d="M13.74,49.96c0.9,0.9,1.36,1.92,1.39,3.41c0.12,7.76,0.87,30.13,1.08,36.89" id="Ske1zhedw16" kvg:type="㇑" transform="matrix(1,0,0,1,396,-4)" xmlns:kvg="http://kanjivg.tagaini.net"></path><path class="stroke_order_diagram--existing_path" d="M16.14,51.91c8.99-1.55,17.77-3.29,25.36-4.22c3.21-0.39,5.16,0.44,4.95,3.94c-0.35,6.07-0.7,19.4-1.55,29.86c-0.17,2.05-0.34,4-0.51,5.75" id="Ske1zhedw17" kvg:type="㇕a" transform="matrix(1,0,0,1,396,-4)" xmlns:kvg="http://kanjivg.tagaini.net"></path><path class="stroke_order_diagram--current_path" d="M29.34,52.37c0.71,0.71,1.09,2.29,1.09,3.63c0,9.75,0.06,23.04,0.06,28.07" id="kvg:0755d-s5" kvg:type="㇑a" transform="matrix(1,0,0,1,396,-4)" xmlns:kvg="http://kanjivg.tagaini.net"></path><path class="stroke_order_diagram--current_path" d="M29.34,52.37c0.71,0.71,1.09,2.29,1.09,3.63c0,9.75,0.06,23.04,0.06,28.07" id="Ske1zhedw19" kvg:type="㇑a" transform="matrix(1,0,0,1,396,-4)" xmlns:kvg="http://kanjivg.tagaini.net"></path><circle class="stroke_order_diagram--path_start" cx="29.34" cy="52.37" r="4" transform="matrix(1,0,0,1,396,-4)"></circle><line class="stroke_order_diagram--guide_line" x1="550" x2="550" y1="1" y2="99"></line><line class="stroke_order_diagram--bounding_box" x1="599" x2="599" y1="1" y2="99"></line><path class="stroke_order_diagram--existing_path" d="M28.99,17.75c1,1,1.4,2.4,1.4,3.95s-0.01,9.28-0.01,12.67" id="Ske1zhedw1c" kvg:type="㇑a" transform="matrix(1,0,0,1,496,-4)" xmlns:kvg="http://kanjivg.tagaini.net"></path><path class="stroke_order_diagram--existing_path" d="M8.2,37.86c2.37,0.47,4.92,0.38,7.32,0.02c7.69-1.16,20.01-3.31,28.25-4.15c2.18-0.22,4.67-0.7,6.79,0.09" id="Ske1zhedw1d" kvg:type="㇐" transform="matrix(1,0,0,1,496,-4)" xmlns:kvg="http://kanjivg.tagaini.net"></path><path class="stroke_order_diagram--existing_path" d="M13.74,49.96c0.9,0.9,1.36,1.92,1.39,3.41c0.12,7.76,0.87,30.13,1.08,36.89" id="Ske1zhedw1e" kvg:type="㇑" transform="matrix(1,0,0,1,496,-4)" xmlns:kvg="http://kanjivg.tagaini.net"></path><path class="stroke_order_diagram--existing_path" d="M16.14,51.91c8.99-1.55,17.77-3.29,25.36-4.22c3.21-0.39,5.16,0.44,4.95,3.94c-0.35,6.07-0.7,19.4-1.55,29.86c-0.17,2.05-0.34,4-0.51,5.75" id="Ske1zhedw1f" kvg:type="㇕a" transform="matrix(1,0,0,1,496,-4)" xmlns:kvg="http://kanjivg.tagaini.net"></path><path class="stroke_order_diagram--existing_path" d="M29.34,52.37c0.71,0.71,1.09,2.29,1.09,3.63c0,9.75,0.06,23.04,0.06,28.07" id="Ske1zhedw1g" kvg:type="㇑a" transform="matrix(1,0,0,1,496,-4)" xmlns:kvg="http://kanjivg.tagaini.net"></path><path class="stroke_order_diagram--current_path" d="M16.74,68.38c5.51-0.88,20.63-3.26,27.89-3.7" id="kvg:0755d-s6" kvg:type="㇐a" transform="matrix(1,0,0,1,496,-4)" xmlns:kvg="http://kanjivg.tagaini.net"></path><path class="stroke_order_diagram--current_path" d="M16.74,68.38c5.51-0.88,20.63-3.26,27.89-3.7" id="Ske1zhedw1i" kvg:type="㇐a" transform="matrix(1,0,0,1,496,-4)" xmlns:kvg="http://kanjivg.tagaini.net"></path><circle class="stroke_order_diagram--path_start" cx="16.74" cy="68.38" r="4" transform="matrix(1,0,0,1,496,-4)"></circle><line class="stroke_order_diagram--guide_line" x1="650" x2="650" y1="1" y2="99"></line><line class="stroke_order_diagram--bounding_box" x1="699" x2="699" y1="1" y2="99"></line><path class="stroke_order_diagram--existing_path" d="M28.99,17.75c1,1,1.4,2.4,1.4,3.95s-0.01,9.28-0.01,12.67" id="Ske1zhedw1l" kvg:type="㇑a" transform="matrix(1,0,0,1,596,-4)" xmlns:kvg="http://kanjivg.tagaini.net"></path><path class="stroke_order_diagram--existing_path" d="M8.2,37.86c2.37,0.47,4.92,0.38,7.32,0.02c7.69-1.16,20.01-3.31,28.25-4.15c2.18-0.22,4.67-0.7,6.79,0.09" id="Ske1zhedw1m" kvg:type="㇐" transform="matrix(1,0,0,1,596,-4)" xmlns:kvg="http://kanjivg.tagaini.net"></path><path class="stroke_order_diagram--existing_path" d="M13.74,49.96c0.9,0.9,1.36,1.92,1.39,3.41c0.12,7.76,0.87,30.13,1.08,36.89" id="Ske1zhedw1n" kvg:type="㇑" transform="matrix(1,0,0,1,596,-4)" xmlns:kvg="http://kanjivg.tagaini.net"></path><path class="stroke_order_diagram--existing_path" d="M16.14,51.91c8.99-1.55,17.77-3.29,25.36-4.22c3.21-0.39,5.16,0.44,4.95,3.94c-0.35,6.07-0.7,19.4-1.55,29.86c-0.17,2.05-0.34,4-0.51,5.75" id="Ske1zhedw1o" kvg:type="㇕a" transform="matrix(1,0,0,1,596,-4)" xmlns:kvg="http://kanjivg.tagaini.net"></path><path class="stroke_order_diagram--existing_path" d="M29.34,52.37c0.71,0.71,1.09,2.29,1.09,3.63c0,9.75,0.06,23.04,0.06,28.07" id="Ske1zhedw1p" kvg:type="㇑a" transform="matrix(1,0,0,1,596,-4)" xmlns:kvg="http://kanjivg.tagaini.net"></path><path class="stroke_order_diagram--existing_path" d="M16.74,68.38c5.51-0.88,20.63-3.26,27.89-3.7" id="Ske1zhedw1q" kvg:type="㇐a" transform="matrix(1,0,0,1,596,-4)" xmlns:kvg="http://kanjivg.tagaini.net"></path><path class="stroke_order_diagram--current_path" d="M17.16,86.98c9.47-1.35,17.71-2.2,26.24-2.92" id="kvg:0755d-s7" kvg:type="㇐a" transform="matrix(1,0,0,1,596,-4)" xmlns:kvg="http://kanjivg.tagaini.net"></path><path class="stroke_order_diagram--current_path" d="M17.16,86.98c9.47-1.35,17.71-2.2,26.24-2.92" id="Ske1zhedw1s" kvg:type="㇐a" transform="matrix(1,0,0,1,596,-4)" xmlns:kvg="http://kanjivg.tagaini.net"></path><circle class="stroke_order_diagram--path_start" cx="17.16" cy="86.98" r="4" transform="matrix(1,0,0,1,596,-4)"></circle><line class="stroke_order_diagram--guide_line" x1="750" x2="750" y1="1" y2="99"></line><line class="stroke_order_diagram--bounding_box" x1="799" x2="799" y1="1" y2="99"></line><path class="stroke_order_diagram--existing_path" d="M28.99,17.75c1,1,1.4,2.4,1.4,3.95s-0.01,9.28-0.01,12.67" id="Ske1zhedw1v" kvg:type="㇑a" transform="matrix(1,0,0,1,696,-4)" xmlns:kvg="http://kanjivg.tagaini.net"></path><path class="stroke_order_diagram--existing_path" d="M8.2,37.86c2.37,0.47,4.92,0.38,7.32,0.02c7.69-1.16,20.01-3.31,28.25-4.15c2.18-0.22,4.67-0.7,6.79,0.09" id="Ske1zhedw1w" kvg:type="㇐" transform="matrix(1,0,0,1,696,-4)" xmlns:kvg="http://kanjivg.tagaini.net"></path><path class="stroke_order_diagram--existing_path" d="M13.74,49.96c0.9,0.9,1.36,1.92,1.39,3.41c0.12,7.76,0.87,30.13,1.08,36.89" id="Ske1zhedw1x" kvg:type="㇑" transform="matrix(1,0,0,1,696,-4)" xmlns:kvg="http://kanjivg.tagaini.net"></path><path class="stroke_order_diagram--existing_path" d="M16.14,51.91c8.99-1.55,17.77-3.29,25.36-4.22c3.21-0.39,5.16,0.44,4.95,3.94c-0.35,6.07-0.7,19.4-1.55,29.86c-0.17,2.05-0.34,4-0.51,5.75" id="Ske1zhedw1y" kvg:type="㇕a" transform="matrix(1,0,0,1,696,-4)" xmlns:kvg="http://kanjivg.tagaini.net"></path><path class="stroke_order_diagram--existing_path" d="M29.34,52.37c0.71,0.71,1.09,2.29,1.09,3.63c0,9.75,0.06,23.04,0.06,28.07" id="Ske1zhedw1z" kvg:type="㇑a" transform="matrix(1,0,0,1,696,-4)" xmlns:kvg="http://kanjivg.tagaini.net"></path><path class="stroke_order_diagram--existing_path" d="M16.74,68.38c5.51-0.88,20.63-3.26,27.89-3.7" id="Ske1zhedw20" kvg:type="㇐a" transform="matrix(1,0,0,1,696,-4)" xmlns:kvg="http://kanjivg.tagaini.net"></path><path class="stroke_order_diagram--existing_path" d="M17.16,86.98c9.47-1.35,17.71-2.2,26.24-2.92" id="Ske1zhedw21" kvg:type="㇐a" transform="matrix(1,0,0,1,696,-4)" xmlns:kvg="http://kanjivg.tagaini.net"></path><path class="stroke_order_diagram--current_path" d="M65.98,17c0.14,1,0.01,2.08-0.33,3.3c-2.28,8.2-5.9,20.7-13.38,32.95" id="kvg:0755d-s8" kvg:type="㇒" transform="matrix(1,0,0,1,696,-4)" xmlns:kvg="http://kanjivg.tagaini.net"></path><path class="stroke_order_diagram--current_path" d="M65.98,17c0.14,1,0.01,2.08-0.33,3.3c-2.28,8.2-5.9,20.7-13.38,32.95" id="Ske1zhedw23" kvg:type="㇒" transform="matrix(1,0,0,1,696,-4)" xmlns:kvg="http://kanjivg.tagaini.net"></path><circle class="stroke_order_diagram--path_start" cx="65.98" cy="17" r="4" transform="matrix(1,0,0,1,696,-4)"></circle><line class="stroke_order_diagram--guide_line" x1="850" x2="850" y1="1" y2="99"></line><line class="stroke_order_diagram--bounding_box" x1="899" x2="899" y1="1" y2="99"></line><path class="stroke_order_diagram--existing_path" d="M28.99,17.75c1,1,1.4,2.4,1.4,3.95s-0.01,9.28-0.01,12.67" id="Ske1zhedw26" kvg:type="㇑a" transform="matrix(1,0,0,1,796,-4)" xmlns:kvg="http://kanjivg.tagaini.net"></path><path class="stroke_order_diagram--existing_path" d="M8.2,37.86c2.37,0.47,4.92,0.38,7.32,0.02c7.69-1.16,20.01-3.31,28.25-4.15c2.18-0.22,4.67-0.7,6.79,0.09" id="Ske1zhedw27" kvg:type="㇐" transform="matrix(1,0,0,1,796,-4)" xmlns:kvg="http://kanjivg.tagaini.net"></path><path class="stroke_order_diagram--existing_path" d="M13.74,49.96c0.9,0.9,1.36,1.92,1.39,3.41c0.12,7.76,0.87,30.13,1.08,36.89" id="Ske1zhedw28" kvg:type="㇑" transform="matrix(1,0,0,1,796,-4)" xmlns:kvg="http://kanjivg.tagaini.net"></path><path class="stroke_order_diagram--existing_path" d="M16.14,51.91c8.99-1.55,17.77-3.29,25.36-4.22c3.21-0.39,5.16,0.44,4.95,3.94c-0.35,6.07-0.7,19.4-1.55,29.86c-0.17,2.05-0.34,4-0.51,5.75" id="Ske1zhedw29" kvg:type="㇕a" transform="matrix(1,0,0,1,796,-4)" xmlns:kvg="http://kanjivg.tagaini.net"></path><path class="stroke_order_diagram--existing_path" d="M29.34,52.37c0.71,0.71,1.09,2.29,1.09,3.63c0,9.75,0.06,23.04,0.06,28.07" id="Ske1zhedw2a" kvg:type="㇑a" transform="matrix(1,0,0,1,796,-4)" xmlns:kvg="http://kanjivg.tagaini.net"></path><path class="stroke_order_diagram--existing_path" d="M16.74,68.38c5.51-0.88,20.63-3.26,27.89-3.7" id="Ske1zhedw2b" kvg:type="㇐a" transform="matrix(1,0,0,1,796,-4)" xmlns:kvg="http://kanjivg.tagaini.net"></path><path class="stroke_order_diagram--existing_path" d="M17.16,86.98c9.47-1.35,17.71-2.2,26.24-2.92" id="Ske1zhedw2c" kvg:type="㇐a" transform="matrix(1,0,0,1,796,-4)" xmlns:kvg="http://kanjivg.tagaini.net"></path><path class="stroke_order_diagram--existing_path" d="M65.98,17c0.14,1,0.01,2.08-0.33,3.3c-2.28,8.2-5.9,20.7-13.38,32.95" id="Ske1zhedw2d" kvg:type="㇒" transform="matrix(1,0,0,1,796,-4)" xmlns:kvg="http://kanjivg.tagaini.net"></path><path class="stroke_order_diagram--current_path" d="M65.56,30.63c1.56,0.37,2.65,0.34,3.87,0.1c1.84-0.36,4.8-1.33,6.84-1.88c2.08-0.56,3.81-0.25,3.28,2.4c-2.61,13-12.93,44.5-29.81,58" id="kvg:0755d-s9" kvg:type="㇇" transform="matrix(1,0,0,1,796,-4)" xmlns:kvg="http://kanjivg.tagaini.net"></path><path class="stroke_order_diagram--current_path" d="M65.56,30.63c1.56,0.37,2.65,0.34,3.87,0.1c1.84-0.36,4.8-1.33,6.84-1.88c2.08-0.56,3.81-0.25,3.28,2.4c-2.61,13-12.93,44.5-29.81,58" id="Ske1zhedw2f" kvg:type="㇇" transform="matrix(1,0,0,1,796,-4)" xmlns:kvg="http://kanjivg.tagaini.net"></path><circle class="stroke_order_diagram--path_start" cx="65.56" cy="30.63" r="4" transform="matrix(1,0,0,1,796,-4)"></circle><line class="stroke_order_diagram--guide_line" x1="950" x2="950" y1="1" y2="99"></line><line class="stroke_order_diagram--bounding_box" x1="999" x2="999" y1="1" y2="99"></line><path class="stroke_order_diagram--existing_path" d="M28.99,17.75c1,1,1.4,2.4,1.4,3.95s-0.01,9.28-0.01,12.67" id="Ske1zhedw2i" kvg:type="㇑a" transform="matrix(1,0,0,1,896,-4)" xmlns:kvg="http://kanjivg.tagaini.net"></path><path class="stroke_order_diagram--existing_path" d="M8.2,37.86c2.37,0.47,4.92,0.38,7.32,0.02c7.69-1.16,20.01-3.31,28.25-4.15c2.18-0.22,4.67-0.7,6.79,0.09" id="Ske1zhedw2j" kvg:type="㇐" transform="matrix(1,0,0,1,896,-4)" xmlns:kvg="http://kanjivg.tagaini.net"></path><path class="stroke_order_diagram--existing_path" d="M13.74,49.96c0.9,0.9,1.36,1.92,1.39,3.41c0.12,7.76,0.87,30.13,1.08,36.89" id="Ske1zhedw2k" kvg:type="㇑" transform="matrix(1,0,0,1,896,-4)" xmlns:kvg="http://kanjivg.tagaini.net"></path><path class="stroke_order_diagram--existing_path" d="M16.14,51.91c8.99-1.55,17.77-3.29,25.36-4.22c3.21-0.39,5.16,0.44,4.95,3.94c-0.35,6.07-0.7,19.4-1.55,29.86c-0.17,2.05-0.34,4-0.51,5.75" id="Ske1zhedw2l" kvg:type="㇕a" transform="matrix(1,0,0,1,896,-4)" xmlns:kvg="http://kanjivg.tagaini.net"></path><path class="stroke_order_diagram--existing_path" d="M29.34,52.37c0.71,0.71,1.09,2.29,1.09,3.63c0,9.75,0.06,23.04,0.06,28.07" id="Ske1zhedw2m" kvg:type="㇑a" transform="matrix(1,0,0,1,896,-4)" xmlns:kvg="http://kanjivg.tagaini.net"></path><path class="stroke_order_diagram--existing_path" d="M16.74,68.38c5.51-0.88,20.63-3.26,27.89-3.7" id="Ske1zhedw2n" kvg:type="㇐a" transform="matrix(1,0,0,1,896,-4)" xmlns:kvg="http://kanjivg.tagaini.net"></path><path class="stroke_order_diagram--existing_path" d="M17.16,86.98c9.47-1.35,17.71-2.2,26.24-2.92" id="Ske1zhedw2o" kvg:type="㇐a" transform="matrix(1,0,0,1,896,-4)" xmlns:kvg="http://kanjivg.tagaini.net"></path><path class="stroke_order_diagram--existing_path" d="M65.98,17c0.14,1,0.01,2.08-0.33,3.3c-2.28,8.2-5.9,20.7-13.38,32.95" id="Ske1zhedw2p" kvg:type="㇒" transform="matrix(1,0,0,1,896,-4)" xmlns:kvg="http://kanjivg.tagaini.net"></path><path class="stroke_order_diagram--existing_path" d="M65.56,30.63c1.56,0.37,2.65,0.34,3.87,0.1c1.84-0.36,4.8-1.33,6.84-1.88c2.08-0.56,3.81-0.25,3.28,2.4c-2.61,13-12.93,44.5-29.81,58" id="Ske1zhedw2q" kvg:type="㇇" transform="matrix(1,0,0,1,896,-4)" xmlns:kvg="http://kanjivg.tagaini.net"></path><path class="stroke_order_diagram--current_path" d="M72.27,57c4.35,7.12,10.85,16.62,17.8,24.89c1.5,1.78,3.42,4.23,6.42,6.61" id="kvg:0755d-s10" kvg:type="㇏" transform="matrix(1,0,0,1,896,-4)" xmlns:kvg="http://kanjivg.tagaini.net"></path><path class="stroke_order_diagram--current_path" d="M72.27,57c4.35,7.12,10.85,16.62,17.8,24.89c1.5,1.78,3.42,4.23,6.42,6.61" id="Ske1zhedw2s" kvg:type="㇏" transform="matrix(1,0,0,1,896,-4)" xmlns:kvg="http://kanjivg.tagaini.net"></path><circle class="stroke_order_diagram--path_start" cx="72.27" cy="57" r="4" transform="matrix(1,0,0,1,896,-4)"></circle></svg>