<svg class="stroke_order_diagram--svg_container_for_5186628dd5dda7965800072e" style="height: 100px; width: 1300px;" viewbox="0 0 1300 100"><desc>Created with Snap</desc><defs></defs><line class="stroke_order_diagram--bounding_box" x1="1" x2="1299" y1="1" y2="1"></line><line class="stroke_order_diagram--bounding_box" x1="1" x2="1" y1="1" y2="99"></line><line class="stroke_order_diagram--bounding_box" x1="1" x2="1299" y1="99" y2="99"></line><line class="stroke_order_diagram--guide_line" x1="0" x2="1300" y1="50" y2="50"></line><line class="stroke_order_diagram--guide_line" x1="50" x2="50" y1="1" y2="99"></line><line class="stroke_order_diagram--bounding_box" x1="99" x2="99" y1="1" y2="99"></line><path class="stroke_order_diagram--current_path" d="M56.56,12.88c0.97,0.97,1.26,2.12,1.26,3.65c0,0.79-0.07,4.84-0.07,7.71" id="kvg:075f4-s1" kvg:type="㇑a" transform="matrix(1,0,0,1,-4,-4)" xmlns:kvg="http://kanjivg.tagaini.net"></path><path class="stroke_order_diagram--current_path" d="M56.56,12.88c0.97,0.97,1.26,2.12,1.26,3.65c0,0.79-0.07,4.84-0.07,7.71" id="Ske22fjcmm" kvg:type="㇑a" transform="matrix(1,0,0,1,-4,-4)" xmlns:kvg="http://kanjivg.tagaini.net"></path><circle class="stroke_order_diagram--path_start" cx="56.56" cy="12.88" r="4" transform="matrix(1,0,0,1,-4,-4)"></circle><line class="stroke_order_diagram--guide_line" x1="150" x2="150" y1="1" y2="99"></line><line class="stroke_order_diagram--bounding_box" x1="199" x2="199" y1="1" y2="99"></line><path class="stroke_order_diagram--existing_path" d="M56.56,12.88c0.97,0.97,1.26,2.12,1.26,3.65c0,0.79-0.07,4.84-0.07,7.71" id="Ske22fjcmp" kvg:type="㇑a" transform="matrix(1,0,0,1,96,-4)" xmlns:kvg="http://kanjivg.tagaini.net"></path><path class="stroke_order_diagram--current_path" d="M25.13,27.48c1.52,0.54,4.31,0.68,5.82,0.54C48,26.5,71.5,24,85.56,23.29c2.53-0.13,4.05,0.26,5.31,0.53" id="kvg:075f4-s2" kvg:type="㇐" transform="matrix(1,0,0,1,96,-4)" xmlns:kvg="http://kanjivg.tagaini.net"></path><path class="stroke_order_diagram--current_path" d="M25.13,27.48c1.52,0.54,4.31,0.68,5.82,0.54C48,26.5,71.5,24,85.56,23.29c2.53-0.13,4.05,0.26,5.31,0.53" id="Ske22fjcmr" kvg:type="㇐" transform="matrix(1,0,0,1,96,-4)" xmlns:kvg="http://kanjivg.tagaini.net"></path><circle class="stroke_order_diagram--path_start" cx="25.13" cy="27.48" r="4" transform="matrix(1,0,0,1,96,-4)"></circle><line class="stroke_order_diagram--guide_line" x1="250" x2="250" y1="1" y2="99"></line><line class="stroke_order_diagram--bounding_box" x1="299" x2="299" y1="1" y2="99"></line><path class="stroke_order_diagram--existing_path" d="M56.56,12.88c0.97,0.97,1.26,2.12,1.26,3.65c0,0.79-0.07,4.84-0.07,7.71" id="Ske22fjcmu" kvg:type="㇑a" transform="matrix(1,0,0,1,196,-4)" xmlns:kvg="http://kanjivg.tagaini.net"></path><path class="stroke_order_diagram--existing_path" d="M25.13,27.48c1.52,0.54,4.31,0.68,5.82,0.54C48,26.5,71.5,24,85.56,23.29c2.53-0.13,4.05,0.26,5.31,0.53" id="Ske22fjcmv" kvg:type="㇐" transform="matrix(1,0,0,1,196,-4)" xmlns:kvg="http://kanjivg.tagaini.net"></path><path class="stroke_order_diagram--current_path" d="M28.74,28.75c0.88,0.88,1.25,2.12,1.25,3.51c0,33.31-1.49,47.24-14.93,61.96" id="kvg:075f4-s3" kvg:type="㇒" transform="matrix(1,0,0,1,196,-4)" xmlns:kvg="http://kanjivg.tagaini.net"></path><path class="stroke_order_diagram--current_path" d="M28.74,28.75c0.88,0.88,1.25,2.12,1.25,3.51c0,33.31-1.49,47.24-14.93,61.96" id="Ske22fjcmx" kvg:type="㇒" transform="matrix(1,0,0,1,196,-4)" xmlns:kvg="http://kanjivg.tagaini.net"></path><circle class="stroke_order_diagram--path_start" cx="28.74" cy="28.75" r="4" transform="matrix(1,0,0,1,196,-4)"></circle><line class="stroke_order_diagram--guide_line" x1="350" x2="350" y1="1" y2="99"></line><line class="stroke_order_diagram--bounding_box" x1="399" x2="399" y1="1" y2="99"></line><path class="stroke_order_diagram--existing_path" d="M56.56,12.88c0.97,0.97,1.26,2.12,1.26,3.65c0,0.79-0.07,4.84-0.07,7.71" id="Ske22fjcm10" kvg:type="㇑a" transform="matrix(1,0,0,1,296,-4)" xmlns:kvg="http://kanjivg.tagaini.net"></path><path class="stroke_order_diagram--existing_path" d="M25.13,27.48c1.52,0.54,4.31,0.68,5.82,0.54C48,26.5,71.5,24,85.56,23.29c2.53-0.13,4.05,0.26,5.31,0.53" id="Ske22fjcm11" kvg:type="㇐" transform="matrix(1,0,0,1,296,-4)" xmlns:kvg="http://kanjivg.tagaini.net"></path><path class="stroke_order_diagram--existing_path" d="M28.74,28.75c0.88,0.88,1.25,2.12,1.25,3.51c0,33.31-1.49,47.24-14.93,61.96" id="Ske22fjcm12" kvg:type="㇒" transform="matrix(1,0,0,1,296,-4)" xmlns:kvg="http://kanjivg.tagaini.net"></path><path class="stroke_order_diagram--current_path" d="M13.75,41.5c2.65,1.54,6.84,6.35,7.5,8.75" id="kvg:075f4-s4" kvg:type="㇔" transform="matrix(1,0,0,1,296,-4)" xmlns:kvg="http://kanjivg.tagaini.net"></path><path class="stroke_order_diagram--current_path" d="M13.75,41.5c2.65,1.54,6.84,6.35,7.5,8.75" id="Ske22fjcm14" kvg:type="㇔" transform="matrix(1,0,0,1,296,-4)" xmlns:kvg="http://kanjivg.tagaini.net"></path><circle class="stroke_order_diagram--path_start" cx="13.75" cy="41.5" r="4" transform="matrix(1,0,0,1,296,-4)"></circle><line class="stroke_order_diagram--guide_line" x1="450" x2="450" y1="1" y2="99"></line><line class="stroke_order_diagram--bounding_box" x1="499" x2="499" y1="1" y2="99"></line><path class="stroke_order_diagram--existing_path" d="M56.56,12.88c0.97,0.97,1.26,2.12,1.26,3.65c0,0.79-0.07,4.84-0.07,7.71" id="Ske22fjcm17" kvg:type="㇑a" transform="matrix(1,0,0,1,396,-4)" xmlns:kvg="http://kanjivg.tagaini.net"></path><path class="stroke_order_diagram--existing_path" d="M25.13,27.48c1.52,0.54,4.31,0.68,5.82,0.54C48,26.5,71.5,24,85.56,23.29c2.53-0.13,4.05,0.26,5.31,0.53" id="Ske22fjcm18" kvg:type="㇐" transform="matrix(1,0,0,1,396,-4)" xmlns:kvg="http://kanjivg.tagaini.net"></path><path class="stroke_order_diagram--existing_path" d="M28.74,28.75c0.88,0.88,1.25,2.12,1.25,3.51c0,33.31-1.49,47.24-14.93,61.96" id="Ske22fjcm19" kvg:type="㇒" transform="matrix(1,0,0,1,396,-4)" xmlns:kvg="http://kanjivg.tagaini.net"></path><path class="stroke_order_diagram--existing_path" d="M13.75,41.5c2.65,1.54,6.84,6.35,7.5,8.75" id="Ske22fjcm1a" kvg:type="㇔" transform="matrix(1,0,0,1,396,-4)" xmlns:kvg="http://kanjivg.tagaini.net"></path><path class="stroke_order_diagram--current_path" d="M11.17,67.5c1.41,0.74,2.35,0.78,3.59-0.13c5.03-3.65,7.43-5.72,11.23-8.87" id="kvg:075f4-s5" kvg:type="㇀" transform="matrix(1,0,0,1,396,-4)" xmlns:kvg="http://kanjivg.tagaini.net"></path><path class="stroke_order_diagram--current_path" d="M11.17,67.5c1.41,0.74,2.35,0.78,3.59-0.13c5.03-3.65,7.43-5.72,11.23-8.87" id="Ske22fjcm1c" kvg:type="㇀" transform="matrix(1,0,0,1,396,-4)" xmlns:kvg="http://kanjivg.tagaini.net"></path><circle class="stroke_order_diagram--path_start" cx="11.17" cy="67.5" r="4" transform="matrix(1,0,0,1,396,-4)"></circle><line class="stroke_order_diagram--guide_line" x1="550" x2="550" y1="1" y2="99"></line><line class="stroke_order_diagram--bounding_box" x1="599" x2="599" y1="1" y2="99"></line><path class="stroke_order_diagram--existing_path" d="M56.56,12.88c0.97,0.97,1.26,2.12,1.26,3.65c0,0.79-0.07,4.84-0.07,7.71" id="Ske22fjcm1f" kvg:type="㇑a" transform="matrix(1,0,0,1,496,-4)" xmlns:kvg="http://kanjivg.tagaini.net"></path><path class="stroke_order_diagram--existing_path" d="M25.13,27.48c1.52,0.54,4.31,0.68,5.82,0.54C48,26.5,71.5,24,85.56,23.29c2.53-0.13,4.05,0.26,5.31,0.53" id="Ske22fjcm1g" kvg:type="㇐" transform="matrix(1,0,0,1,496,-4)" xmlns:kvg="http://kanjivg.tagaini.net"></path><path class="stroke_order_diagram--existing_path" d="M28.74,28.75c0.88,0.88,1.25,2.12,1.25,3.51c0,33.31-1.49,47.24-14.93,61.96" id="Ske22fjcm1h" kvg:type="㇒" transform="matrix(1,0,0,1,496,-4)" xmlns:kvg="http://kanjivg.tagaini.net"></path><path class="stroke_order_diagram--existing_path" d="M13.75,41.5c2.65,1.54,6.84,6.35,7.5,8.75" id="Ske22fjcm1i" kvg:type="㇔" transform="matrix(1,0,0,1,496,-4)" xmlns:kvg="http://kanjivg.tagaini.net"></path><path class="stroke_order_diagram--existing_path" d="M11.17,67.5c1.41,0.74,2.35,0.78,3.59-0.13c5.03-3.65,7.43-5.72,11.23-8.87" id="Ske22fjcm1j" kvg:type="㇀" transform="matrix(1,0,0,1,496,-4)" xmlns:kvg="http://kanjivg.tagaini.net"></path><path class="stroke_order_diagram--current_path" d="M45.28,32.96c0.03,0.55,0.07,1.42-0.06,2.21c-0.79,4.66-3.74,13.68-9.55,21.36" id="kvg:075f4-s6" kvg:type="㇒" transform="matrix(1,0,0,1,496,-4)" xmlns:kvg="http://kanjivg.tagaini.net"></path><path class="stroke_order_diagram--current_path" d="M45.28,32.96c0.03,0.55,0.07,1.42-0.06,2.21c-0.79,4.66-3.74,13.68-9.55,21.36" id="Ske22fjcm1l" kvg:type="㇒" transform="matrix(1,0,0,1,496,-4)" xmlns:kvg="http://kanjivg.tagaini.net"></path><circle class="stroke_order_diagram--path_start" cx="45.28" cy="32.96" r="4" transform="matrix(1,0,0,1,496,-4)"></circle><line class="stroke_order_diagram--guide_line" x1="650" x2="650" y1="1" y2="99"></line><line class="stroke_order_diagram--bounding_box" x1="699" x2="699" y1="1" y2="99"></line><path class="stroke_order_diagram--existing_path" d="M56.56,12.88c0.97,0.97,1.26,2.12,1.26,3.65c0,0.79-0.07,4.84-0.07,7.71" id="Ske22fjcm1o" kvg:type="㇑a" transform="matrix(1,0,0,1,596,-4)" xmlns:kvg="http://kanjivg.tagaini.net"></path><path class="stroke_order_diagram--existing_path" d="M25.13,27.48c1.52,0.54,4.31,0.68,5.82,0.54C48,26.5,71.5,24,85.56,23.29c2.53-0.13,4.05,0.26,5.31,0.53" id="Ske22fjcm1p" kvg:type="㇐" transform="matrix(1,0,0,1,596,-4)" xmlns:kvg="http://kanjivg.tagaini.net"></path><path class="stroke_order_diagram--existing_path" d="M28.74,28.75c0.88,0.88,1.25,2.12,1.25,3.51c0,33.31-1.49,47.24-14.93,61.96" id="Ske22fjcm1q" kvg:type="㇒" transform="matrix(1,0,0,1,596,-4)" xmlns:kvg="http://kanjivg.tagaini.net"></path><path class="stroke_order_diagram--existing_path" d="M13.75,41.5c2.65,1.54,6.84,6.35,7.5,8.75" id="Ske22fjcm1r" kvg:type="㇔" transform="matrix(1,0,0,1,596,-4)" xmlns:kvg="http://kanjivg.tagaini.net"></path><path class="stroke_order_diagram--existing_path" d="M11.17,67.5c1.41,0.74,2.35,0.78,3.59-0.13c5.03-3.65,7.43-5.72,11.23-8.87" id="Ske22fjcm1s" kvg:type="㇀" transform="matrix(1,0,0,1,596,-4)" xmlns:kvg="http://kanjivg.tagaini.net"></path><path class="stroke_order_diagram--existing_path" d="M45.28,32.96c0.03,0.55,0.07,1.42-0.06,2.21c-0.79,4.66-3.74,13.68-9.55,21.36" id="Ske22fjcm1t" kvg:type="㇒" transform="matrix(1,0,0,1,596,-4)" xmlns:kvg="http://kanjivg.tagaini.net"></path><path class="stroke_order_diagram--current_path" d="M43.86,46.67c1.48,0,1.8,0.12,2.53,0c3.66-0.59,7.4-0.27,12.67-1.9c1.19-0.37,2.39-0.19,3-0.03" id="kvg:075f4-s7" kvg:type="㇐" transform="matrix(1,0,0,1,596,-4)" xmlns:kvg="http://kanjivg.tagaini.net"></path><path class="stroke_order_diagram--current_path" d="M43.86,46.67c1.48,0,1.8,0.12,2.53,0c3.66-0.59,7.4-0.27,12.67-1.9c1.19-0.37,2.39-0.19,3-0.03" id="Ske22fjcm1v" kvg:type="㇐" transform="matrix(1,0,0,1,596,-4)" xmlns:kvg="http://kanjivg.tagaini.net"></path><circle class="stroke_order_diagram--path_start" cx="43.86" cy="46.67" r="4" transform="matrix(1,0,0,1,596,-4)"></circle><line class="stroke_order_diagram--guide_line" x1="750" x2="750" y1="1" y2="99"></line><line class="stroke_order_diagram--bounding_box" x1="799" x2="799" y1="1" y2="99"></line><path class="stroke_order_diagram--existing_path" d="M56.56,12.88c0.97,0.97,1.26,2.12,1.26,3.65c0,0.79-0.07,4.84-0.07,7.71" id="Ske22fjcm1y" kvg:type="㇑a" transform="matrix(1,0,0,1,696,-4)" xmlns:kvg="http://kanjivg.tagaini.net"></path><path class="stroke_order_diagram--existing_path" d="M25.13,27.48c1.52,0.54,4.31,0.68,5.82,0.54C48,26.5,71.5,24,85.56,23.29c2.53-0.13,4.05,0.26,5.31,0.53" id="Ske22fjcm1z" kvg:type="㇐" transform="matrix(1,0,0,1,696,-4)" xmlns:kvg="http://kanjivg.tagaini.net"></path><path class="stroke_order_diagram--existing_path" d="M28.74,28.75c0.88,0.88,1.25,2.12,1.25,3.51c0,33.31-1.49,47.24-14.93,61.96" id="Ske22fjcm20" kvg:type="㇒" transform="matrix(1,0,0,1,696,-4)" xmlns:kvg="http://kanjivg.tagaini.net"></path><path class="stroke_order_diagram--existing_path" d="M13.75,41.5c2.65,1.54,6.84,6.35,7.5,8.75" id="Ske22fjcm21" kvg:type="㇔" transform="matrix(1,0,0,1,696,-4)" xmlns:kvg="http://kanjivg.tagaini.net"></path><path class="stroke_order_diagram--existing_path" d="M11.17,67.5c1.41,0.74,2.35,0.78,3.59-0.13c5.03-3.65,7.43-5.72,11.23-8.87" id="Ske22fjcm22" kvg:type="㇀" transform="matrix(1,0,0,1,696,-4)" xmlns:kvg="http://kanjivg.tagaini.net"></path><path class="stroke_order_diagram--existing_path" d="M45.28,32.96c0.03,0.55,0.07,1.42-0.06,2.21c-0.79,4.66-3.74,13.68-9.55,21.36" id="Ske22fjcm23" kvg:type="㇒" transform="matrix(1,0,0,1,696,-4)" xmlns:kvg="http://kanjivg.tagaini.net"></path><path class="stroke_order_diagram--existing_path" d="M43.86,46.67c1.48,0,1.8,0.12,2.53,0c3.66-0.59,7.4-0.27,12.67-1.9c1.19-0.37,2.39-0.19,3-0.03" id="Ske22fjcm24" kvg:type="㇐" transform="matrix(1,0,0,1,696,-4)" xmlns:kvg="http://kanjivg.tagaini.net"></path><path class="stroke_order_diagram--current_path" d="M34,65.56c1.57,0.73,4.21,0.6,5.86,0.43c7.65-0.79,13.46-2.56,21.18-3.39c0.73-0.08,2.59-0.41,4.22,0.01" id="kvg:075f4-s8" kvg:type="㇐" transform="matrix(1,0,0,1,696,-4)" xmlns:kvg="http://kanjivg.tagaini.net"></path><path class="stroke_order_diagram--current_path" d="M34,65.56c1.57,0.73,4.21,0.6,5.86,0.43c7.65-0.79,13.46-2.56,21.18-3.39c0.73-0.08,2.59-0.41,4.22,0.01" id="Ske22fjcm26" kvg:type="㇐" transform="matrix(1,0,0,1,696,-4)" xmlns:kvg="http://kanjivg.tagaini.net"></path><circle class="stroke_order_diagram--path_start" cx="34" cy="65.56" r="4" transform="matrix(1,0,0,1,696,-4)"></circle><line class="stroke_order_diagram--guide_line" x1="850" x2="850" y1="1" y2="99"></line><line class="stroke_order_diagram--bounding_box" x1="899" x2="899" y1="1" y2="99"></line><path class="stroke_order_diagram--existing_path" d="M56.56,12.88c0.97,0.97,1.26,2.12,1.26,3.65c0,0.79-0.07,4.84-0.07,7.71" id="Ske22fjcm29" kvg:type="㇑a" transform="matrix(1,0,0,1,796,-4)" xmlns:kvg="http://kanjivg.tagaini.net"></path><path class="stroke_order_diagram--existing_path" d="M25.13,27.48c1.52,0.54,4.31,0.68,5.82,0.54C48,26.5,71.5,24,85.56,23.29c2.53-0.13,4.05,0.26,5.31,0.53" id="Ske22fjcm2a" kvg:type="㇐" transform="matrix(1,0,0,1,796,-4)" xmlns:kvg="http://kanjivg.tagaini.net"></path><path class="stroke_order_diagram--existing_path" d="M28.74,28.75c0.88,0.88,1.25,2.12,1.25,3.51c0,33.31-1.49,47.24-14.93,61.96" id="Ske22fjcm2b" kvg:type="㇒" transform="matrix(1,0,0,1,796,-4)" xmlns:kvg="http://kanjivg.tagaini.net"></path><path class="stroke_order_diagram--existing_path" d="M13.75,41.5c2.65,1.54,6.84,6.35,7.5,8.75" id="Ske22fjcm2c" kvg:type="㇔" transform="matrix(1,0,0,1,796,-4)" xmlns:kvg="http://kanjivg.tagaini.net"></path><path class="stroke_order_diagram--existing_path" d="M11.17,67.5c1.41,0.74,2.35,0.78,3.59-0.13c5.03-3.65,7.43-5.72,11.23-8.87" id="Ske22fjcm2d" kvg:type="㇀" transform="matrix(1,0,0,1,796,-4)" xmlns:kvg="http://kanjivg.tagaini.net"></path><path class="stroke_order_diagram--existing_path" d="M45.28,32.96c0.03,0.55,0.07,1.42-0.06,2.21c-0.79,4.66-3.74,13.68-9.55,21.36" id="Ske22fjcm2e" kvg:type="㇒" transform="matrix(1,0,0,1,796,-4)" xmlns:kvg="http://kanjivg.tagaini.net"></path><path class="stroke_order_diagram--existing_path" d="M43.86,46.67c1.48,0,1.8,0.12,2.53,0c3.66-0.59,7.4-0.27,12.67-1.9c1.19-0.37,2.39-0.19,3-0.03" id="Ske22fjcm2f" kvg:type="㇐" transform="matrix(1,0,0,1,796,-4)" xmlns:kvg="http://kanjivg.tagaini.net"></path><path class="stroke_order_diagram--existing_path" d="M34,65.56c1.57,0.73,4.21,0.6,5.86,0.43c7.65-0.79,13.46-2.56,21.18-3.39c0.73-0.08,2.59-0.41,4.22,0.01" id="Ske22fjcm2g" kvg:type="㇐" transform="matrix(1,0,0,1,796,-4)" xmlns:kvg="http://kanjivg.tagaini.net"></path><path class="stroke_order_diagram--current_path" d="M49.82,49.15c0.89,0.89,1.24,2.14,1.23,3.48c-0.16,23.19-8.42,34.13-20.25,42.05" id="kvg:075f4-s9" kvg:type="㇒" transform="matrix(1,0,0,1,796,-4)" xmlns:kvg="http://kanjivg.tagaini.net"></path><path class="stroke_order_diagram--current_path" d="M49.82,49.15c0.89,0.89,1.24,2.14,1.23,3.48c-0.16,23.19-8.42,34.13-20.25,42.05" id="Ske22fjcm2i" kvg:type="㇒" transform="matrix(1,0,0,1,796,-4)" xmlns:kvg="http://kanjivg.tagaini.net"></path><circle class="stroke_order_diagram--path_start" cx="49.82" cy="49.15" r="4" transform="matrix(1,0,0,1,796,-4)"></circle><line class="stroke_order_diagram--guide_line" x1="950" x2="950" y1="1" y2="99"></line><line class="stroke_order_diagram--bounding_box" x1="999" x2="999" y1="1" y2="99"></line><path class="stroke_order_diagram--existing_path" d="M56.56,12.88c0.97,0.97,1.26,2.12,1.26,3.65c0,0.79-0.07,4.84-0.07,7.71" id="Ske22fjcm2l" kvg:type="㇑a" transform="matrix(1,0,0,1,896,-4)" xmlns:kvg="http://kanjivg.tagaini.net"></path><path class="stroke_order_diagram--existing_path" d="M25.13,27.48c1.52,0.54,4.31,0.68,5.82,0.54C48,26.5,71.5,24,85.56,23.29c2.53-0.13,4.05,0.26,5.31,0.53" id="Ske22fjcm2m" kvg:type="㇐" transform="matrix(1,0,0,1,896,-4)" xmlns:kvg="http://kanjivg.tagaini.net"></path><path class="stroke_order_diagram--existing_path" d="M28.74,28.75c0.88,0.88,1.25,2.12,1.25,3.51c0,33.31-1.49,47.24-14.93,61.96" id="Ske22fjcm2n" kvg:type="㇒" transform="matrix(1,0,0,1,896,-4)" xmlns:kvg="http://kanjivg.tagaini.net"></path><path class="stroke_order_diagram--existing_path" d="M13.75,41.5c2.65,1.54,6.84,6.35,7.5,8.75" id="Ske22fjcm2o" kvg:type="㇔" transform="matrix(1,0,0,1,896,-4)" xmlns:kvg="http://kanjivg.tagaini.net"></path><path class="stroke_order_diagram--existing_path" d="M11.17,67.5c1.41,0.74,2.35,0.78,3.59-0.13c5.03-3.65,7.43-5.72,11.23-8.87" id="Ske22fjcm2p" kvg:type="㇀" transform="matrix(1,0,0,1,896,-4)" xmlns:kvg="http://kanjivg.tagaini.net"></path><path class="stroke_order_diagram--existing_path" d="M45.28,32.96c0.03,0.55,0.07,1.42-0.06,2.21c-0.79,4.66-3.74,13.68-9.55,21.36" id="Ske22fjcm2q" kvg:type="㇒" transform="matrix(1,0,0,1,896,-4)" xmlns:kvg="http://kanjivg.tagaini.net"></path><path class="stroke_order_diagram--existing_path" d="M43.86,46.67c1.48,0,1.8,0.12,2.53,0c3.66-0.59,7.4-0.27,12.67-1.9c1.19-0.37,2.39-0.19,3-0.03" id="Ske22fjcm2r" kvg:type="㇐" transform="matrix(1,0,0,1,896,-4)" xmlns:kvg="http://kanjivg.tagaini.net"></path><path class="stroke_order_diagram--existing_path" d="M34,65.56c1.57,0.73,4.21,0.6,5.86,0.43c7.65-0.79,13.46-2.56,21.18-3.39c0.73-0.08,2.59-0.41,4.22,0.01" id="Ske22fjcm2s" kvg:type="㇐" transform="matrix(1,0,0,1,896,-4)" xmlns:kvg="http://kanjivg.tagaini.net"></path><path class="stroke_order_diagram--existing_path" d="M49.82,49.15c0.89,0.89,1.24,2.14,1.23,3.48c-0.16,23.19-8.42,34.13-20.25,42.05" id="Ske22fjcm2t" kvg:type="㇒" transform="matrix(1,0,0,1,896,-4)" xmlns:kvg="http://kanjivg.tagaini.net"></path><path class="stroke_order_diagram--current_path" d="M51.83,72.57c5.6,3.38,10.62,9.16,11.59,12.8" id="kvg:075f4-s10" kvg:type="㇔/㇏" transform="matrix(1,0,0,1,896,-4)" xmlns:kvg="http://kanjivg.tagaini.net"></path><path class="stroke_order_diagram--current_path" d="M51.83,72.57c5.6,3.38,10.62,9.16,11.59,12.8" id="Ske22fjcm2v" kvg:type="㇔/㇏" transform="matrix(1,0,0,1,896,-4)" xmlns:kvg="http://kanjivg.tagaini.net"></path><circle class="stroke_order_diagram--path_start" cx="51.83" cy="72.57" r="4" transform="matrix(1,0,0,1,896,-4)"></circle><line class="stroke_order_diagram--guide_line" x1="1050" x2="1050" y1="1" y2="99"></line><line class="stroke_order_diagram--bounding_box" x1="1099" x2="1099" y1="1" y2="99"></line><path class="stroke_order_diagram--existing_path" d="M56.56,12.88c0.97,0.97,1.26,2.12,1.26,3.65c0,0.79-0.07,4.84-0.07,7.71" id="Ske22fjcm2y" kvg:type="㇑a" transform="matrix(1,0,0,1,996,-4)" xmlns:kvg="http://kanjivg.tagaini.net"></path><path class="stroke_order_diagram--existing_path" d="M25.13,27.48c1.52,0.54,4.31,0.68,5.82,0.54C48,26.5,71.5,24,85.56,23.29c2.53-0.13,4.05,0.26,5.31,0.53" id="Ske22fjcm2z" kvg:type="㇐" transform="matrix(1,0,0,1,996,-4)" xmlns:kvg="http://kanjivg.tagaini.net"></path><path class="stroke_order_diagram--existing_path" d="M28.74,28.75c0.88,0.88,1.25,2.12,1.25,3.51c0,33.31-1.49,47.24-14.93,61.96" id="Ske22fjcm30" kvg:type="㇒" transform="matrix(1,0,0,1,996,-4)" xmlns:kvg="http://kanjivg.tagaini.net"></path><path class="stroke_order_diagram--existing_path" d="M13.75,41.5c2.65,1.54,6.84,6.35,7.5,8.75" id="Ske22fjcm31" kvg:type="㇔" transform="matrix(1,0,0,1,996,-4)" xmlns:kvg="http://kanjivg.tagaini.net"></path><path class="stroke_order_diagram--existing_path" d="M11.17,67.5c1.41,0.74,2.35,0.78,3.59-0.13c5.03-3.65,7.43-5.72,11.23-8.87" id="Ske22fjcm32" kvg:type="㇀" transform="matrix(1,0,0,1,996,-4)" xmlns:kvg="http://kanjivg.tagaini.net"></path><path class="stroke_order_diagram--existing_path" d="M45.28,32.96c0.03,0.55,0.07,1.42-0.06,2.21c-0.79,4.66-3.74,13.68-9.55,21.36" id="Ske22fjcm33" kvg:type="㇒" transform="matrix(1,0,0,1,996,-4)" xmlns:kvg="http://kanjivg.tagaini.net"></path><path class="stroke_order_diagram--existing_path" d="M43.86,46.67c1.48,0,1.8,0.12,2.53,0c3.66-0.59,7.4-0.27,12.67-1.9c1.19-0.37,2.39-0.19,3-0.03" id="Ske22fjcm34" kvg:type="㇐" transform="matrix(1,0,0,1,996,-4)" xmlns:kvg="http://kanjivg.tagaini.net"></path><path class="stroke_order_diagram--existing_path" d="M34,65.56c1.57,0.73,4.21,0.6,5.86,0.43c7.65-0.79,13.46-2.56,21.18-3.39c0.73-0.08,2.59-0.41,4.22,0.01" id="Ske22fjcm35" kvg:type="㇐" transform="matrix(1,0,0,1,996,-4)" xmlns:kvg="http://kanjivg.tagaini.net"></path><path class="stroke_order_diagram--existing_path" d="M49.82,49.15c0.89,0.89,1.24,2.14,1.23,3.48c-0.16,23.19-8.42,34.13-20.25,42.05" id="Ske22fjcm36" kvg:type="㇒" transform="matrix(1,0,0,1,996,-4)" xmlns:kvg="http://kanjivg.tagaini.net"></path><path class="stroke_order_diagram--existing_path" d="M51.83,72.57c5.6,3.38,10.62,9.16,11.59,12.8" id="Ske22fjcm37" kvg:type="㇔/㇏" transform="matrix(1,0,0,1,996,-4)" xmlns:kvg="http://kanjivg.tagaini.net"></path><path class="stroke_order_diagram--current_path" d="M68.02,48.16c0.91,0.91,1.33,2.07,1.53,3.22c0.92,5.21,2.2,15.83,3.03,24.62c0.19,2.04,0.36,4,0.5,5.79" id="kvg:075f4-s11" kvg:type="㇑" transform="matrix(1,0,0,1,996,-4)" xmlns:kvg="http://kanjivg.tagaini.net"></path><path class="stroke_order_diagram--current_path" d="M68.02,48.16c0.91,0.91,1.33,2.07,1.53,3.22c0.92,5.21,2.2,15.83,3.03,24.62c0.19,2.04,0.36,4,0.5,5.79" id="Ske22fjcm39" kvg:type="㇑" transform="matrix(1,0,0,1,996,-4)" xmlns:kvg="http://kanjivg.tagaini.net"></path><circle class="stroke_order_diagram--path_start" cx="68.02" cy="48.16" r="4" transform="matrix(1,0,0,1,996,-4)"></circle><line class="stroke_order_diagram--guide_line" x1="1150" x2="1150" y1="1" y2="99"></line><line class="stroke_order_diagram--bounding_box" x1="1199" x2="1199" y1="1" y2="99"></line><path class="stroke_order_diagram--existing_path" d="M56.56,12.88c0.97,0.97,1.26,2.12,1.26,3.65c0,0.79-0.07,4.84-0.07,7.71" id="Ske22fjcm3c" kvg:type="㇑a" transform="matrix(1,0,0,1,1096,-4)" xmlns:kvg="http://kanjivg.tagaini.net"></path><path class="stroke_order_diagram--existing_path" d="M25.13,27.48c1.52,0.54,4.31,0.68,5.82,0.54C48,26.5,71.5,24,85.56,23.29c2.53-0.13,4.05,0.26,5.31,0.53" id="Ske22fjcm3d" kvg:type="㇐" transform="matrix(1,0,0,1,1096,-4)" xmlns:kvg="http://kanjivg.tagaini.net"></path><path class="stroke_order_diagram--existing_path" d="M28.74,28.75c0.88,0.88,1.25,2.12,1.25,3.51c0,33.31-1.49,47.24-14.93,61.96" id="Ske22fjcm3e" kvg:type="㇒" transform="matrix(1,0,0,1,1096,-4)" xmlns:kvg="http://kanjivg.tagaini.net"></path><path class="stroke_order_diagram--existing_path" d="M13.75,41.5c2.65,1.54,6.84,6.35,7.5,8.75" id="Ske22fjcm3f" kvg:type="㇔" transform="matrix(1,0,0,1,1096,-4)" xmlns:kvg="http://kanjivg.tagaini.net"></path><path class="stroke_order_diagram--existing_path" d="M11.17,67.5c1.41,0.74,2.35,0.78,3.59-0.13c5.03-3.65,7.43-5.72,11.23-8.87" id="Ske22fjcm3g" kvg:type="㇀" transform="matrix(1,0,0,1,1096,-4)" xmlns:kvg="http://kanjivg.tagaini.net"></path><path class="stroke_order_diagram--existing_path" d="M45.28,32.96c0.03,0.55,0.07,1.42-0.06,2.21c-0.79,4.66-3.74,13.68-9.55,21.36" id="Ske22fjcm3h" kvg:type="㇒" transform="matrix(1,0,0,1,1096,-4)" xmlns:kvg="http://kanjivg.tagaini.net"></path><path class="stroke_order_diagram--existing_path" d="M43.86,46.67c1.48,0,1.8,0.12,2.53,0c3.66-0.59,7.4-0.27,12.67-1.9c1.19-0.37,2.39-0.19,3-0.03" id="Ske22fjcm3i" kvg:type="㇐" transform="matrix(1,0,0,1,1096,-4)" xmlns:kvg="http://kanjivg.tagaini.net"></path><path class="stroke_order_diagram--existing_path" d="M34,65.56c1.57,0.73,4.21,0.6,5.86,0.43c7.65-0.79,13.46-2.56,21.18-3.39c0.73-0.08,2.59-0.41,4.22,0.01" id="Ske22fjcm3j" kvg:type="㇐" transform="matrix(1,0,0,1,1096,-4)" xmlns:kvg="http://kanjivg.tagaini.net"></path><path class="stroke_order_diagram--existing_path" d="M49.82,49.15c0.89,0.89,1.24,2.14,1.23,3.48c-0.16,23.19-8.42,34.13-20.25,42.05" id="Ske22fjcm3k" kvg:type="㇒" transform="matrix(1,0,0,1,1096,-4)" xmlns:kvg="http://kanjivg.tagaini.net"></path><path class="stroke_order_diagram--existing_path" d="M51.83,72.57c5.6,3.38,10.62,9.16,11.59,12.8" id="Ske22fjcm3l" kvg:type="㇔/㇏" transform="matrix(1,0,0,1,1096,-4)" xmlns:kvg="http://kanjivg.tagaini.net"></path><path class="stroke_order_diagram--existing_path" d="M68.02,48.16c0.91,0.91,1.33,2.07,1.53,3.22c0.92,5.21,2.2,15.83,3.03,24.62c0.19,2.04,0.36,4,0.5,5.79" id="Ske22fjcm3m" kvg:type="㇑" transform="matrix(1,0,0,1,1096,-4)" xmlns:kvg="http://kanjivg.tagaini.net"></path><path class="stroke_order_diagram--current_path" d="M70.24,49.83c7.1-1.2,13.66-2.22,18.74-3.06c2.49-0.41,4.08,0.66,3.69,3.51c-0.86,6.22-1.86,16.35-3.13,24.93" id="kvg:075f4-s12" kvg:type="㇕b" transform="matrix(1,0,0,1,1096,-4)" xmlns:kvg="http://kanjivg.tagaini.net"></path><path class="stroke_order_diagram--current_path" d="M70.24,49.83c7.1-1.2,13.66-2.22,18.74-3.06c2.49-0.41,4.08,0.66,3.69,3.51c-0.86,6.22-1.86,16.35-3.13,24.93" id="Ske22fjcm3o" kvg:type="㇕b" transform="matrix(1,0,0,1,1096,-4)" xmlns:kvg="http://kanjivg.tagaini.net"></path><circle class="stroke_order_diagram--path_start" cx="70.24" cy="49.83" r="4" transform="matrix(1,0,0,1,1096,-4)"></circle><line class="stroke_order_diagram--guide_line" x1="1250" x2="1250" y1="1" y2="99"></line><line class="stroke_order_diagram--bounding_box" x1="1299" x2="1299" y1="1" y2="99"></line><path class="stroke_order_diagram--existing_path" d="M56.56,12.88c0.97,0.97,1.26,2.12,1.26,3.65c0,0.79-0.07,4.84-0.07,7.71" id="Ske22fjcm3r" kvg:type="㇑a" transform="matrix(1,0,0,1,1196,-4)" xmlns:kvg="http://kanjivg.tagaini.net"></path><path class="stroke_order_diagram--existing_path" d="M25.13,27.48c1.52,0.54,4.31,0.68,5.82,0.54C48,26.5,71.5,24,85.56,23.29c2.53-0.13,4.05,0.26,5.31,0.53" id="Ske22fjcm3s" kvg:type="㇐" transform="matrix(1,0,0,1,1196,-4)" xmlns:kvg="http://kanjivg.tagaini.net"></path><path class="stroke_order_diagram--existing_path" d="M28.74,28.75c0.88,0.88,1.25,2.12,1.25,3.51c0,33.31-1.49,47.24-14.93,61.96" id="Ske22fjcm3t" kvg:type="㇒" transform="matrix(1,0,0,1,1196,-4)" xmlns:kvg="http://kanjivg.tagaini.net"></path><path class="stroke_order_diagram--existing_path" d="M13.75,41.5c2.65,1.54,6.84,6.35,7.5,8.75" id="Ske22fjcm3u" kvg:type="㇔" transform="matrix(1,0,0,1,1196,-4)" xmlns:kvg="http://kanjivg.tagaini.net"></path><path class="stroke_order_diagram--existing_path" d="M11.17,67.5c1.41,0.74,2.35,0.78,3.59-0.13c5.03-3.65,7.43-5.72,11.23-8.87" id="Ske22fjcm3v" kvg:type="㇀" transform="matrix(1,0,0,1,1196,-4)" xmlns:kvg="http://kanjivg.tagaini.net"></path><path class="stroke_order_diagram--existing_path" d="M45.28,32.96c0.03,0.55,0.07,1.42-0.06,2.21c-0.79,4.66-3.74,13.68-9.55,21.36" id="Ske22fjcm3w" kvg:type="㇒" transform="matrix(1,0,0,1,1196,-4)" xmlns:kvg="http://kanjivg.tagaini.net"></path><path class="stroke_order_diagram--existing_path" d="M43.86,46.67c1.48,0,1.8,0.12,2.53,0c3.66-0.59,7.4-0.27,12.67-1.9c1.19-0.37,2.39-0.19,3-0.03" id="Ske22fjcm3x" kvg:type="㇐" transform="matrix(1,0,0,1,1196,-4)" xmlns:kvg="http://kanjivg.tagaini.net"></path><path class="stroke_order_diagram--existing_path" d="M34,65.56c1.57,0.73,4.21,0.6,5.86,0.43c7.65-0.79,13.46-2.56,21.18-3.39c0.73-0.08,2.59-0.41,4.22,0.01" id="Ske22fjcm3y" kvg:type="㇐" transform="matrix(1,0,0,1,1196,-4)" xmlns:kvg="http://kanjivg.tagaini.net"></path><path class="stroke_order_diagram--existing_path" d="M49.82,49.15c0.89,0.89,1.24,2.14,1.23,3.48c-0.16,23.19-8.42,34.13-20.25,42.05" id="Ske22fjcm3z" kvg:type="㇒" transform="matrix(1,0,0,1,1196,-4)" xmlns:kvg="http://kanjivg.tagaini.net"></path><path class="stroke_order_diagram--existing_path" d="M51.83,72.57c5.6,3.38,10.62,9.16,11.59,12.8" id="Ske22fjcm40" kvg:type="㇔/㇏" transform="matrix(1,0,0,1,1196,-4)" xmlns:kvg="http://kanjivg.tagaini.net"></path><path class="stroke_order_diagram--existing_path" d="M68.02,48.16c0.91,0.91,1.33,2.07,1.53,3.22c0.92,5.21,2.2,15.83,3.03,24.62c0.19,2.04,0.36,4,0.5,5.79" id="Ske22fjcm41" kvg:type="㇑" transform="matrix(1,0,0,1,1196,-4)" xmlns:kvg="http://kanjivg.tagaini.net"></path><path class="stroke_order_diagram--existing_path" d="M70.24,49.83c7.1-1.2,13.66-2.22,18.74-3.06c2.49-0.41,4.08,0.66,3.69,3.51c-0.86,6.22-1.86,16.35-3.13,24.93" id="Ske22fjcm42" kvg:type="㇕b" transform="matrix(1,0,0,1,1196,-4)" xmlns:kvg="http://kanjivg.tagaini.net"></path><path class="stroke_order_diagram--current_path" d="M73.98,78.44c4.77-0.69,8.31-1.01,13.3-1.66c1.29-0.17,2.6-0.1,3.93-0.32" id="kvg:075f4-s13" kvg:type="㇐b" transform="matrix(1,0,0,1,1196,-4)" xmlns:kvg="http://kanjivg.tagaini.net"></path><path class="stroke_order_diagram--current_path" d="M73.98,78.44c4.77-0.69,8.31-1.01,13.3-1.66c1.29-0.17,2.6-0.1,3.93-0.32" id="Ske22fjcm44" kvg:type="㇐b" transform="matrix(1,0,0,1,1196,-4)" xmlns:kvg="http://kanjivg.tagaini.net"></path><circle class="stroke_order_diagram--path_start" cx="73.98" cy="78.44" r="4" transform="matrix(1,0,0,1,1196,-4)"></circle></svg>