<svg class="stroke_order_diagram--svg_container_for_5186628ed5dda79658000776" style="height: 100px; width: 800px;" viewbox="0 0 800 100"><desc>Created with Snap</desc><defs></defs><line class="stroke_order_diagram--bounding_box" x1="1" x2="799" y1="1" y2="1"></line><line class="stroke_order_diagram--bounding_box" x1="1" x2="1" y1="1" y2="99"></line><line class="stroke_order_diagram--bounding_box" x1="1" x2="799" y1="99" y2="99"></line><line class="stroke_order_diagram--guide_line" x1="0" x2="800" y1="50" y2="50"></line><line class="stroke_order_diagram--guide_line" x1="50" x2="50" y1="1" y2="99"></line><line class="stroke_order_diagram--bounding_box" x1="99" x2="99" y1="1" y2="99"></line><path class="stroke_order_diagram--current_path" d="M25.15,27.9c1.92,0.35,5.43,0.36,7.35,0.19c16.72-1.53,29.48-2.6,46.27-3.74c3.19-0.22,5.11,0.04,6.71,0.2" id="kvg:076f4-s1" kvg:type="㇐" transform="matrix(1,0,0,1,-4,-4)" xmlns:kvg="http://kanjivg.tagaini.net"></path><path class="stroke_order_diagram--current_path" d="M25.15,27.9c1.92,0.35,5.43,0.36,7.35,0.19c16.72-1.53,29.48-2.6,46.27-3.74c3.19-0.22,5.11,0.04,6.71,0.2" id="Ske234s8jh" kvg:type="㇐" transform="matrix(1,0,0,1,-4,-4)" xmlns:kvg="http://kanjivg.tagaini.net"></path><circle class="stroke_order_diagram--path_start" cx="25.15" cy="27.9" r="4" transform="matrix(1,0,0,1,-4,-4)"></circle><line class="stroke_order_diagram--guide_line" x1="150" x2="150" y1="1" y2="99"></line><line class="stroke_order_diagram--bounding_box" x1="199" x2="199" y1="1" y2="99"></line><path class="stroke_order_diagram--existing_path" d="M25.15,27.9c1.92,0.35,5.43,0.36,7.35,0.19c16.72-1.53,29.48-2.6,46.27-3.74c3.19-0.22,5.11,0.04,6.71,0.2" id="Ske234s8jk" kvg:type="㇐" transform="matrix(1,0,0,1,96,-4)" xmlns:kvg="http://kanjivg.tagaini.net"></path><path class="stroke_order_diagram--current_path" d="M53.73,12.51c1.38,1.38,2.01,3.12,2.01,4.89c0,3.35,0.09,8.6,0.09,19.6" id="kvg:076f4-s2" kvg:type="㇑a" transform="matrix(1,0,0,1,96,-4)" xmlns:kvg="http://kanjivg.tagaini.net"></path><path class="stroke_order_diagram--current_path" d="M53.73,12.51c1.38,1.38,2.01,3.12,2.01,4.89c0,3.35,0.09,8.6,0.09,19.6" id="Ske234s8jm" kvg:type="㇑a" transform="matrix(1,0,0,1,96,-4)" xmlns:kvg="http://kanjivg.tagaini.net"></path><circle class="stroke_order_diagram--path_start" cx="53.73" cy="12.51" r="4" transform="matrix(1,0,0,1,96,-4)"></circle><line class="stroke_order_diagram--guide_line" x1="250" x2="250" y1="1" y2="99"></line><line class="stroke_order_diagram--bounding_box" x1="299" x2="299" y1="1" y2="99"></line><path class="stroke_order_diagram--existing_path" d="M25.15,27.9c1.92,0.35,5.43,0.36,7.35,0.19c16.72-1.53,29.48-2.6,46.27-3.74c3.19-0.22,5.11,0.04,6.71,0.2" id="Ske234s8jp" kvg:type="㇐" transform="matrix(1,0,0,1,196,-4)" xmlns:kvg="http://kanjivg.tagaini.net"></path><path class="stroke_order_diagram--existing_path" d="M53.73,12.51c1.38,1.38,2.01,3.12,2.01,4.89c0,3.35,0.09,8.6,0.09,19.6" id="Ske234s8jq" kvg:type="㇑a" transform="matrix(1,0,0,1,196,-4)" xmlns:kvg="http://kanjivg.tagaini.net"></path><path class="stroke_order_diagram--current_path" d="M36.56,37.49c1.19,1.26,1.66,3.14,1.66,4.57c0,1.2,0.39,24.33,0.19,37.94c-0.02,1.46-0.04,2.82-0.07,4.01" id="kvg:076f4-s3" kvg:type="㇑" transform="matrix(1,0,0,1,196,-4)" xmlns:kvg="http://kanjivg.tagaini.net"></path><path class="stroke_order_diagram--current_path" d="M36.56,37.49c1.19,1.26,1.66,3.14,1.66,4.57c0,1.2,0.39,24.33,0.19,37.94c-0.02,1.46-0.04,2.82-0.07,4.01" id="Ske234s8js" kvg:type="㇑" transform="matrix(1,0,0,1,196,-4)" xmlns:kvg="http://kanjivg.tagaini.net"></path><circle class="stroke_order_diagram--path_start" cx="36.56" cy="37.49" r="4" transform="matrix(1,0,0,1,196,-4)"></circle><line class="stroke_order_diagram--guide_line" x1="350" x2="350" y1="1" y2="99"></line><line class="stroke_order_diagram--bounding_box" x1="399" x2="399" y1="1" y2="99"></line><path class="stroke_order_diagram--existing_path" d="M25.15,27.9c1.92,0.35,5.43,0.36,7.35,0.19c16.72-1.53,29.48-2.6,46.27-3.74c3.19-0.22,5.11,0.04,6.71,0.2" id="Ske234s8jv" kvg:type="㇐" transform="matrix(1,0,0,1,296,-4)" xmlns:kvg="http://kanjivg.tagaini.net"></path><path class="stroke_order_diagram--existing_path" d="M53.73,12.51c1.38,1.38,2.01,3.12,2.01,4.89c0,3.35,0.09,8.6,0.09,19.6" id="Ske234s8jw" kvg:type="㇑a" transform="matrix(1,0,0,1,296,-4)" xmlns:kvg="http://kanjivg.tagaini.net"></path><path class="stroke_order_diagram--existing_path" d="M36.56,37.49c1.19,1.26,1.66,3.14,1.66,4.57c0,1.2,0.39,24.33,0.19,37.94c-0.02,1.46-0.04,2.82-0.07,4.01" id="Ske234s8jx" kvg:type="㇑" transform="matrix(1,0,0,1,296,-4)" xmlns:kvg="http://kanjivg.tagaini.net"></path><path class="stroke_order_diagram--current_path" d="M39.52,39.91c8.14-0.78,28.45-3.08,30.99-3.25c2.46-0.17,3.99,1.59,4.19,4.16c0.11,1.44-0.12,22.29-0.19,36.93c-0.01,1.37-0.01,2.69-0.01,3.94" id="kvg:076f4-s4" kvg:type="㇕a" transform="matrix(1,0,0,1,296,-4)" xmlns:kvg="http://kanjivg.tagaini.net"></path><path class="stroke_order_diagram--current_path" d="M39.52,39.91c8.14-0.78,28.45-3.08,30.99-3.25c2.46-0.17,3.99,1.59,4.19,4.16c0.11,1.44-0.12,22.29-0.19,36.93c-0.01,1.37-0.01,2.69-0.01,3.94" id="Ske234s8jz" kvg:type="㇕a" transform="matrix(1,0,0,1,296,-4)" xmlns:kvg="http://kanjivg.tagaini.net"></path><circle class="stroke_order_diagram--path_start" cx="39.52" cy="39.91" r="4" transform="matrix(1,0,0,1,296,-4)"></circle><line class="stroke_order_diagram--guide_line" x1="450" x2="450" y1="1" y2="99"></line><line class="stroke_order_diagram--bounding_box" x1="499" x2="499" y1="1" y2="99"></line><path class="stroke_order_diagram--existing_path" d="M25.15,27.9c1.92,0.35,5.43,0.36,7.35,0.19c16.72-1.53,29.48-2.6,46.27-3.74c3.19-0.22,5.11,0.04,6.71,0.2" id="Ske234s8j12" kvg:type="㇐" transform="matrix(1,0,0,1,396,-4)" xmlns:kvg="http://kanjivg.tagaini.net"></path><path class="stroke_order_diagram--existing_path" d="M53.73,12.51c1.38,1.38,2.01,3.12,2.01,4.89c0,3.35,0.09,8.6,0.09,19.6" id="Ske234s8j13" kvg:type="㇑a" transform="matrix(1,0,0,1,396,-4)" xmlns:kvg="http://kanjivg.tagaini.net"></path><path class="stroke_order_diagram--existing_path" d="M36.56,37.49c1.19,1.26,1.66,3.14,1.66,4.57c0,1.2,0.39,24.33,0.19,37.94c-0.02,1.46-0.04,2.82-0.07,4.01" id="Ske234s8j14" kvg:type="㇑" transform="matrix(1,0,0,1,396,-4)" xmlns:kvg="http://kanjivg.tagaini.net"></path><path class="stroke_order_diagram--existing_path" d="M39.52,39.91c8.14-0.78,28.45-3.08,30.99-3.25c2.46-0.17,3.99,1.59,4.19,4.16c0.11,1.44-0.12,22.29-0.19,36.93c-0.01,1.37-0.01,2.69-0.01,3.94" id="Ske234s8j15" kvg:type="㇕a" transform="matrix(1,0,0,1,396,-4)" xmlns:kvg="http://kanjivg.tagaini.net"></path><path class="stroke_order_diagram--current_path" d="M39.61,52.51c8.01-0.63,27.51-2.38,33.61-2.61" id="kvg:076f4-s5" kvg:type="㇐a" transform="matrix(1,0,0,1,396,-4)" xmlns:kvg="http://kanjivg.tagaini.net"></path><path class="stroke_order_diagram--current_path" d="M39.61,52.51c8.01-0.63,27.51-2.38,33.61-2.61" id="Ske234s8j17" kvg:type="㇐a" transform="matrix(1,0,0,1,396,-4)" xmlns:kvg="http://kanjivg.tagaini.net"></path><circle class="stroke_order_diagram--path_start" cx="39.61" cy="52.51" r="4" transform="matrix(1,0,0,1,396,-4)"></circle><line class="stroke_order_diagram--guide_line" x1="550" x2="550" y1="1" y2="99"></line><line class="stroke_order_diagram--bounding_box" x1="599" x2="599" y1="1" y2="99"></line><path class="stroke_order_diagram--existing_path" d="M25.15,27.9c1.92,0.35,5.43,0.36,7.35,0.19c16.72-1.53,29.48-2.6,46.27-3.74c3.19-0.22,5.11,0.04,6.71,0.2" id="Ske234s8j1a" kvg:type="㇐" transform="matrix(1,0,0,1,496,-4)" xmlns:kvg="http://kanjivg.tagaini.net"></path><path class="stroke_order_diagram--existing_path" d="M53.73,12.51c1.38,1.38,2.01,3.12,2.01,4.89c0,3.35,0.09,8.6,0.09,19.6" id="Ske234s8j1b" kvg:type="㇑a" transform="matrix(1,0,0,1,496,-4)" xmlns:kvg="http://kanjivg.tagaini.net"></path><path class="stroke_order_diagram--existing_path" d="M36.56,37.49c1.19,1.26,1.66,3.14,1.66,4.57c0,1.2,0.39,24.33,0.19,37.94c-0.02,1.46-0.04,2.82-0.07,4.01" id="Ske234s8j1c" kvg:type="㇑" transform="matrix(1,0,0,1,496,-4)" xmlns:kvg="http://kanjivg.tagaini.net"></path><path class="stroke_order_diagram--existing_path" d="M39.52,39.91c8.14-0.78,28.45-3.08,30.99-3.25c2.46-0.17,3.99,1.59,4.19,4.16c0.11,1.44-0.12,22.29-0.19,36.93c-0.01,1.37-0.01,2.69-0.01,3.94" id="Ske234s8j1d" kvg:type="㇕a" transform="matrix(1,0,0,1,496,-4)" xmlns:kvg="http://kanjivg.tagaini.net"></path><path class="stroke_order_diagram--existing_path" d="M39.61,52.51c8.01-0.63,27.51-2.38,33.61-2.61" id="Ske234s8j1e" kvg:type="㇐a" transform="matrix(1,0,0,1,496,-4)" xmlns:kvg="http://kanjivg.tagaini.net"></path><path class="stroke_order_diagram--current_path" d="M39.63,65.91c8.64-0.56,24.87-2.16,33.96-2.49" id="kvg:076f4-s6" kvg:type="㇐a" transform="matrix(1,0,0,1,496,-4)" xmlns:kvg="http://kanjivg.tagaini.net"></path><path class="stroke_order_diagram--current_path" d="M39.63,65.91c8.64-0.56,24.87-2.16,33.96-2.49" id="Ske234s8j1g" kvg:type="㇐a" transform="matrix(1,0,0,1,496,-4)" xmlns:kvg="http://kanjivg.tagaini.net"></path><circle class="stroke_order_diagram--path_start" cx="39.63" cy="65.91" r="4" transform="matrix(1,0,0,1,496,-4)"></circle><line class="stroke_order_diagram--guide_line" x1="650" x2="650" y1="1" y2="99"></line><line class="stroke_order_diagram--bounding_box" x1="699" x2="699" y1="1" y2="99"></line><path class="stroke_order_diagram--existing_path" d="M25.15,27.9c1.92,0.35,5.43,0.36,7.35,0.19c16.72-1.53,29.48-2.6,46.27-3.74c3.19-0.22,5.11,0.04,6.71,0.2" id="Ske234s8j1j" kvg:type="㇐" transform="matrix(1,0,0,1,596,-4)" xmlns:kvg="http://kanjivg.tagaini.net"></path><path class="stroke_order_diagram--existing_path" d="M53.73,12.51c1.38,1.38,2.01,3.12,2.01,4.89c0,3.35,0.09,8.6,0.09,19.6" id="Ske234s8j1k" kvg:type="㇑a" transform="matrix(1,0,0,1,596,-4)" xmlns:kvg="http://kanjivg.tagaini.net"></path><path class="stroke_order_diagram--existing_path" d="M36.56,37.49c1.19,1.26,1.66,3.14,1.66,4.57c0,1.2,0.39,24.33,0.19,37.94c-0.02,1.46-0.04,2.82-0.07,4.01" id="Ske234s8j1l" kvg:type="㇑" transform="matrix(1,0,0,1,596,-4)" xmlns:kvg="http://kanjivg.tagaini.net"></path><path class="stroke_order_diagram--existing_path" d="M39.52,39.91c8.14-0.78,28.45-3.08,30.99-3.25c2.46-0.17,3.99,1.59,4.19,4.16c0.11,1.44-0.12,22.29-0.19,36.93c-0.01,1.37-0.01,2.69-0.01,3.94" id="Ske234s8j1m" kvg:type="㇕a" transform="matrix(1,0,0,1,596,-4)" xmlns:kvg="http://kanjivg.tagaini.net"></path><path class="stroke_order_diagram--existing_path" d="M39.61,52.51c8.01-0.63,27.51-2.38,33.61-2.61" id="Ske234s8j1n" kvg:type="㇐a" transform="matrix(1,0,0,1,596,-4)" xmlns:kvg="http://kanjivg.tagaini.net"></path><path class="stroke_order_diagram--existing_path" d="M39.63,65.91c8.64-0.56,24.87-2.16,33.96-2.49" id="Ske234s8j1o" kvg:type="㇐a" transform="matrix(1,0,0,1,596,-4)" xmlns:kvg="http://kanjivg.tagaini.net"></path><path class="stroke_order_diagram--current_path" d="M39.75,80.42c6.02-0.5,29.3-2.32,33.63-2.32" id="kvg:076f4-s7" kvg:type="㇐a" transform="matrix(1,0,0,1,596,-4)" xmlns:kvg="http://kanjivg.tagaini.net"></path><path class="stroke_order_diagram--current_path" d="M39.75,80.42c6.02-0.5,29.3-2.32,33.63-2.32" id="Ske234s8j1q" kvg:type="㇐a" transform="matrix(1,0,0,1,596,-4)" xmlns:kvg="http://kanjivg.tagaini.net"></path><circle class="stroke_order_diagram--path_start" cx="39.75" cy="80.42" r="4" transform="matrix(1,0,0,1,596,-4)"></circle><line class="stroke_order_diagram--guide_line" x1="750" x2="750" y1="1" y2="99"></line><line class="stroke_order_diagram--bounding_box" x1="799" x2="799" y1="1" y2="99"></line><path class="stroke_order_diagram--existing_path" d="M25.15,27.9c1.92,0.35,5.43,0.36,7.35,0.19c16.72-1.53,29.48-2.6,46.27-3.74c3.19-0.22,5.11,0.04,6.71,0.2" id="Ske234s8j1t" kvg:type="㇐" transform="matrix(1,0,0,1,696,-4)" xmlns:kvg="http://kanjivg.tagaini.net"></path><path class="stroke_order_diagram--existing_path" d="M53.73,12.51c1.38,1.38,2.01,3.12,2.01,4.89c0,3.35,0.09,8.6,0.09,19.6" id="Ske234s8j1u" kvg:type="㇑a" transform="matrix(1,0,0,1,696,-4)" xmlns:kvg="http://kanjivg.tagaini.net"></path><path class="stroke_order_diagram--existing_path" d="M36.56,37.49c1.19,1.26,1.66,3.14,1.66,4.57c0,1.2,0.39,24.33,0.19,37.94c-0.02,1.46-0.04,2.82-0.07,4.01" id="Ske234s8j1v" kvg:type="㇑" transform="matrix(1,0,0,1,696,-4)" xmlns:kvg="http://kanjivg.tagaini.net"></path><path class="stroke_order_diagram--existing_path" d="M39.52,39.91c8.14-0.78,28.45-3.08,30.99-3.25c2.46-0.17,3.99,1.59,4.19,4.16c0.11,1.44-0.12,22.29-0.19,36.93c-0.01,1.37-0.01,2.69-0.01,3.94" id="Ske234s8j1w" kvg:type="㇕a" transform="matrix(1,0,0,1,696,-4)" xmlns:kvg="http://kanjivg.tagaini.net"></path><path class="stroke_order_diagram--existing_path" d="M39.61,52.51c8.01-0.63,27.51-2.38,33.61-2.61" id="Ske234s8j1x" kvg:type="㇐a" transform="matrix(1,0,0,1,696,-4)" xmlns:kvg="http://kanjivg.tagaini.net"></path><path class="stroke_order_diagram--existing_path" d="M39.63,65.91c8.64-0.56,24.87-2.16,33.96-2.49" id="Ske234s8j1y" kvg:type="㇐a" transform="matrix(1,0,0,1,696,-4)" xmlns:kvg="http://kanjivg.tagaini.net"></path><path class="stroke_order_diagram--existing_path" d="M39.75,80.42c6.02-0.5,29.3-2.32,33.63-2.32" id="Ske234s8j1z" kvg:type="㇐a" transform="matrix(1,0,0,1,696,-4)" xmlns:kvg="http://kanjivg.tagaini.net"></path><path class="stroke_order_diagram--current_path" d="M19.75,50.5c1,1.25,1.75,2.75,1.75,5.25s-1.12,29.88-1.75,35.75c-0.28,2.6,0.27,4.15,3.25,3.75c20.5-2.75,41.5-4,63.75-4c2.75,0,5.5,0.5,7.5,1.25" id="kvg:076f4-s8" kvg:type="㇗" transform="matrix(1,0,0,1,696,-4)" xmlns:kvg="http://kanjivg.tagaini.net"></path><path class="stroke_order_diagram--current_path" d="M19.75,50.5c1,1.25,1.75,2.75,1.75,5.25s-1.12,29.88-1.75,35.75c-0.28,2.6,0.27,4.15,3.25,3.75c20.5-2.75,41.5-4,63.75-4c2.75,0,5.5,0.5,7.5,1.25" id="Ske234s8j21" kvg:type="㇗" transform="matrix(1,0,0,1,696,-4)" xmlns:kvg="http://kanjivg.tagaini.net"></path><circle class="stroke_order_diagram--path_start" cx="19.75" cy="50.5" r="4" transform="matrix(1,0,0,1,696,-4)"></circle></svg>