<svg class="stroke_order_diagram--svg_container_for_518662b3d5dda7965800128f" style="height: 100px; width: 1600px;" viewbox="0 0 1600 100"><desc>Created with Snap</desc><defs></defs><line class="stroke_order_diagram--bounding_box" x1="1" x2="1599" y1="1" y2="1"></line><line class="stroke_order_diagram--bounding_box" x1="1" x2="1" y1="1" y2="99"></line><line class="stroke_order_diagram--bounding_box" x1="1" x2="1599" y1="99" y2="99"></line><line class="stroke_order_diagram--guide_line" x1="0" x2="1600" y1="50" y2="50"></line><line class="stroke_order_diagram--guide_line" x1="50" x2="50" y1="1" y2="99"></line><line class="stroke_order_diagram--bounding_box" x1="99" x2="99" y1="1" y2="99"></line><path class="stroke_order_diagram--current_path" d="M19,18.34c0.83,0.1,2.35,0.58,3.18,0.53c8.62-0.47,17.57-1.38,27.18-2.2c1.38-0.12,2.21,0,2.9,0.04" id="kvg:078ec-s1" kvg:type="㇐" transform="matrix(1,0,0,1,-4,-4)" xmlns:kvg="http://kanjivg.tagaini.net"></path><path class="stroke_order_diagram--current_path" d="M19,18.34c0.83,0.1,2.35,0.58,3.18,0.53c8.62-0.47,17.57-1.38,27.18-2.2c1.38-0.12,2.21,0,2.9,0.04" id="Ske2s817hp" kvg:type="㇐" transform="matrix(1,0,0,1,-4,-4)" xmlns:kvg="http://kanjivg.tagaini.net"></path><circle class="stroke_order_diagram--path_start" cx="19" cy="18.34" r="4" transform="matrix(1,0,0,1,-4,-4)"></circle><line class="stroke_order_diagram--guide_line" x1="150" x2="150" y1="1" y2="99"></line><line class="stroke_order_diagram--bounding_box" x1="199" x2="199" y1="1" y2="99"></line><path class="stroke_order_diagram--existing_path" d="M19,18.34c0.83,0.1,2.35,0.58,3.18,0.53c8.62-0.47,17.57-1.38,27.18-2.2c1.38-0.12,2.21,0,2.9,0.04" id="Ske2s817hs" kvg:type="㇐" transform="matrix(1,0,0,1,96,-4)" xmlns:kvg="http://kanjivg.tagaini.net"></path><path class="stroke_order_diagram--current_path" d="M33.2,10c1.2,0.33,1.92,1.96,2.16,2.61c0.24,0.65,0.01,11.28-0.22,15.39" id="kvg:078ec-s2" kvg:type="㇑a" transform="matrix(1,0,0,1,96,-4)" xmlns:kvg="http://kanjivg.tagaini.net"></path><path class="stroke_order_diagram--current_path" d="M33.2,10c1.2,0.33,1.92,1.96,2.16,2.61c0.24,0.65,0.01,11.28-0.22,15.39" id="Ske2s817hu" kvg:type="㇑a" transform="matrix(1,0,0,1,96,-4)" xmlns:kvg="http://kanjivg.tagaini.net"></path><circle class="stroke_order_diagram--path_start" cx="33.2" cy="10" r="4" transform="matrix(1,0,0,1,96,-4)"></circle><line class="stroke_order_diagram--guide_line" x1="250" x2="250" y1="1" y2="99"></line><line class="stroke_order_diagram--bounding_box" x1="299" x2="299" y1="1" y2="99"></line><path class="stroke_order_diagram--existing_path" d="M19,18.34c0.83,0.1,2.35,0.58,3.18,0.53c8.62-0.47,17.57-1.38,27.18-2.2c1.38-0.12,2.21,0,2.9,0.04" id="Ske2s817hx" kvg:type="㇐" transform="matrix(1,0,0,1,196,-4)" xmlns:kvg="http://kanjivg.tagaini.net"></path><path class="stroke_order_diagram--existing_path" d="M33.2,10c1.2,0.33,1.92,1.96,2.16,2.61c0.24,0.65,0.01,11.28-0.22,15.39" id="Ske2s817hy" kvg:type="㇑a" transform="matrix(1,0,0,1,196,-4)" xmlns:kvg="http://kanjivg.tagaini.net"></path><path class="stroke_order_diagram--current_path" d="M23.5,28.86c0.62,0.12,1.75,0.07,2.37,0.02c8.18-0.62,10.09-1.06,21.94-1.75c1.03-0.06,1.65-0.02,2.17,0.03" id="kvg:078ec-s3" kvg:type="㇐" transform="matrix(1,0,0,1,196,-4)" xmlns:kvg="http://kanjivg.tagaini.net"></path><path class="stroke_order_diagram--current_path" d="M23.5,28.86c0.62,0.12,1.75,0.07,2.37,0.02c8.18-0.62,10.09-1.06,21.94-1.75c1.03-0.06,1.65-0.02,2.17,0.03" id="Ske2s817h10" kvg:type="㇐" transform="matrix(1,0,0,1,196,-4)" xmlns:kvg="http://kanjivg.tagaini.net"></path><circle class="stroke_order_diagram--path_start" cx="23.5" cy="28.86" r="4" transform="matrix(1,0,0,1,196,-4)"></circle><line class="stroke_order_diagram--guide_line" x1="350" x2="350" y1="1" y2="99"></line><line class="stroke_order_diagram--bounding_box" x1="399" x2="399" y1="1" y2="99"></line><path class="stroke_order_diagram--existing_path" d="M19,18.34c0.83,0.1,2.35,0.58,3.18,0.53c8.62-0.47,17.57-1.38,27.18-2.2c1.38-0.12,2.21,0,2.9,0.04" id="Ske2s817h13" kvg:type="㇐" transform="matrix(1,0,0,1,296,-4)" xmlns:kvg="http://kanjivg.tagaini.net"></path><path class="stroke_order_diagram--existing_path" d="M33.2,10c1.2,0.33,1.92,1.96,2.16,2.61c0.24,0.65,0.01,11.28-0.22,15.39" id="Ske2s817h14" kvg:type="㇑a" transform="matrix(1,0,0,1,296,-4)" xmlns:kvg="http://kanjivg.tagaini.net"></path><path class="stroke_order_diagram--existing_path" d="M23.5,28.86c0.62,0.12,1.75,0.07,2.37,0.02c8.18-0.62,10.09-1.06,21.94-1.75c1.03-0.06,1.65-0.02,2.17,0.03" id="Ske2s817h15" kvg:type="㇐" transform="matrix(1,0,0,1,296,-4)" xmlns:kvg="http://kanjivg.tagaini.net"></path><path class="stroke_order_diagram--current_path" d="M19.12,36.79c0.56,0.1,1.98,0.54,3.87,0.4c6.95-0.54,22.87-1.84,24.3-2.08c3.46-0.58,5.1,0.58,3.95,3.68c-0.62,1.68-2.3,6.56-2.96,7.92" id="kvg:078ec-s4" kvg:type="㇕" transform="matrix(1,0,0,1,296,-4)" xmlns:kvg="http://kanjivg.tagaini.net"></path><path class="stroke_order_diagram--current_path" d="M19.12,36.79c0.56,0.1,1.98,0.54,3.87,0.4c6.95-0.54,22.87-1.84,24.3-2.08c3.46-0.58,5.1,0.58,3.95,3.68c-0.62,1.68-2.3,6.56-2.96,7.92" id="Ske2s817h17" kvg:type="㇕" transform="matrix(1,0,0,1,296,-4)" xmlns:kvg="http://kanjivg.tagaini.net"></path><circle class="stroke_order_diagram--path_start" cx="19.12" cy="36.79" r="4" transform="matrix(1,0,0,1,296,-4)"></circle><line class="stroke_order_diagram--guide_line" x1="450" x2="450" y1="1" y2="99"></line><line class="stroke_order_diagram--bounding_box" x1="499" x2="499" y1="1" y2="99"></line><path class="stroke_order_diagram--existing_path" d="M19,18.34c0.83,0.1,2.35,0.58,3.18,0.53c8.62-0.47,17.57-1.38,27.18-2.2c1.38-0.12,2.21,0,2.9,0.04" id="Ske2s817h1a" kvg:type="㇐" transform="matrix(1,0,0,1,396,-4)" xmlns:kvg="http://kanjivg.tagaini.net"></path><path class="stroke_order_diagram--existing_path" d="M33.2,10c1.2,0.33,1.92,1.96,2.16,2.61c0.24,0.65,0.01,11.28-0.22,15.39" id="Ske2s817h1b" kvg:type="㇑a" transform="matrix(1,0,0,1,396,-4)" xmlns:kvg="http://kanjivg.tagaini.net"></path><path class="stroke_order_diagram--existing_path" d="M23.5,28.86c0.62,0.12,1.75,0.07,2.37,0.02c8.18-0.62,10.09-1.06,21.94-1.75c1.03-0.06,1.65-0.02,2.17,0.03" id="Ske2s817h1c" kvg:type="㇐" transform="matrix(1,0,0,1,396,-4)" xmlns:kvg="http://kanjivg.tagaini.net"></path><path class="stroke_order_diagram--existing_path" d="M19.12,36.79c0.56,0.1,1.98,0.54,3.87,0.4c6.95-0.54,22.87-1.84,24.3-2.08c3.46-0.58,5.1,0.58,3.95,3.68c-0.62,1.68-2.3,6.56-2.96,7.92" id="Ske2s817h1d" kvg:type="㇕" transform="matrix(1,0,0,1,396,-4)" xmlns:kvg="http://kanjivg.tagaini.net"></path><path class="stroke_order_diagram--current_path" d="M35.34,38.01c0,2.17,0.17,7.19,0.17,8.36" id="kvg:078ec-s5" kvg:type="㇑a" transform="matrix(1,0,0,1,396,-4)" xmlns:kvg="http://kanjivg.tagaini.net"></path><path class="stroke_order_diagram--current_path" d="M35.34,38.01c0,2.17,0.17,7.19,0.17,8.36" id="Ske2s817h1f" kvg:type="㇑a" transform="matrix(1,0,0,1,396,-4)" xmlns:kvg="http://kanjivg.tagaini.net"></path><circle class="stroke_order_diagram--path_start" cx="35.34" cy="38.01" r="4" transform="matrix(1,0,0,1,396,-4)"></circle><line class="stroke_order_diagram--guide_line" x1="550" x2="550" y1="1" y2="99"></line><line class="stroke_order_diagram--bounding_box" x1="599" x2="599" y1="1" y2="99"></line><path class="stroke_order_diagram--existing_path" d="M19,18.34c0.83,0.1,2.35,0.58,3.18,0.53c8.62-0.47,17.57-1.38,27.18-2.2c1.38-0.12,2.21,0,2.9,0.04" id="Ske2s817h1i" kvg:type="㇐" transform="matrix(1,0,0,1,496,-4)" xmlns:kvg="http://kanjivg.tagaini.net"></path><path class="stroke_order_diagram--existing_path" d="M33.2,10c1.2,0.33,1.92,1.96,2.16,2.61c0.24,0.65,0.01,11.28-0.22,15.39" id="Ske2s817h1j" kvg:type="㇑a" transform="matrix(1,0,0,1,496,-4)" xmlns:kvg="http://kanjivg.tagaini.net"></path><path class="stroke_order_diagram--existing_path" d="M23.5,28.86c0.62,0.12,1.75,0.07,2.37,0.02c8.18-0.62,10.09-1.06,21.94-1.75c1.03-0.06,1.65-0.02,2.17,0.03" id="Ske2s817h1k" kvg:type="㇐" transform="matrix(1,0,0,1,496,-4)" xmlns:kvg="http://kanjivg.tagaini.net"></path><path class="stroke_order_diagram--existing_path" d="M19.12,36.79c0.56,0.1,1.98,0.54,3.87,0.4c6.95-0.54,22.87-1.84,24.3-2.08c3.46-0.58,5.1,0.58,3.95,3.68c-0.62,1.68-2.3,6.56-2.96,7.92" id="Ske2s817h1l" kvg:type="㇕" transform="matrix(1,0,0,1,496,-4)" xmlns:kvg="http://kanjivg.tagaini.net"></path><path class="stroke_order_diagram--existing_path" d="M35.34,38.01c0,2.17,0.17,7.19,0.17,8.36" id="Ske2s817h1m" kvg:type="㇑a" transform="matrix(1,0,0,1,496,-4)" xmlns:kvg="http://kanjivg.tagaini.net"></path><path class="stroke_order_diagram--current_path" d="M23,49.64c2-0.12,23.83-2.23,28-2.48" id="kvg:078ec-s6" kvg:type="㇐a" transform="matrix(1,0,0,1,496,-4)" xmlns:kvg="http://kanjivg.tagaini.net"></path><path class="stroke_order_diagram--current_path" d="M23,49.64c2-0.12,23.83-2.23,28-2.48" id="Ske2s817h1o" kvg:type="㇐a" transform="matrix(1,0,0,1,496,-4)" xmlns:kvg="http://kanjivg.tagaini.net"></path><circle class="stroke_order_diagram--path_start" cx="23" cy="49.64" r="4" transform="matrix(1,0,0,1,496,-4)"></circle><line class="stroke_order_diagram--guide_line" x1="650" x2="650" y1="1" y2="99"></line><line class="stroke_order_diagram--bounding_box" x1="699" x2="699" y1="1" y2="99"></line><path class="stroke_order_diagram--existing_path" d="M19,18.34c0.83,0.1,2.35,0.58,3.18,0.53c8.62-0.47,17.57-1.38,27.18-2.2c1.38-0.12,2.21,0,2.9,0.04" id="Ske2s817h1r" kvg:type="㇐" transform="matrix(1,0,0,1,596,-4)" xmlns:kvg="http://kanjivg.tagaini.net"></path><path class="stroke_order_diagram--existing_path" d="M33.2,10c1.2,0.33,1.92,1.96,2.16,2.61c0.24,0.65,0.01,11.28-0.22,15.39" id="Ske2s817h1s" kvg:type="㇑a" transform="matrix(1,0,0,1,596,-4)" xmlns:kvg="http://kanjivg.tagaini.net"></path><path class="stroke_order_diagram--existing_path" d="M23.5,28.86c0.62,0.12,1.75,0.07,2.37,0.02c8.18-0.62,10.09-1.06,21.94-1.75c1.03-0.06,1.65-0.02,2.17,0.03" id="Ske2s817h1t" kvg:type="㇐" transform="matrix(1,0,0,1,596,-4)" xmlns:kvg="http://kanjivg.tagaini.net"></path><path class="stroke_order_diagram--existing_path" d="M19.12,36.79c0.56,0.1,1.98,0.54,3.87,0.4c6.95-0.54,22.87-1.84,24.3-2.08c3.46-0.58,5.1,0.58,3.95,3.68c-0.62,1.68-2.3,6.56-2.96,7.92" id="Ske2s817h1u" kvg:type="㇕" transform="matrix(1,0,0,1,596,-4)" xmlns:kvg="http://kanjivg.tagaini.net"></path><path class="stroke_order_diagram--existing_path" d="M35.34,38.01c0,2.17,0.17,7.19,0.17,8.36" id="Ske2s817h1v" kvg:type="㇑a" transform="matrix(1,0,0,1,596,-4)" xmlns:kvg="http://kanjivg.tagaini.net"></path><path class="stroke_order_diagram--existing_path" d="M23,49.64c2-0.12,23.83-2.23,28-2.48" id="Ske2s817h1w" kvg:type="㇐a" transform="matrix(1,0,0,1,596,-4)" xmlns:kvg="http://kanjivg.tagaini.net"></path><path class="stroke_order_diagram--current_path" d="M21.87,37.51c0.72,0.62,1.04,0.78,1,1.56C22.25,52.25,21,59,14,67.21" id="kvg:078ec-s7" kvg:type="㇒" transform="matrix(1,0,0,1,596,-4)" xmlns:kvg="http://kanjivg.tagaini.net"></path><path class="stroke_order_diagram--current_path" d="M21.87,37.51c0.72,0.62,1.04,0.78,1,1.56C22.25,52.25,21,59,14,67.21" id="Ske2s817h1y" kvg:type="㇒" transform="matrix(1,0,0,1,596,-4)" xmlns:kvg="http://kanjivg.tagaini.net"></path><circle class="stroke_order_diagram--path_start" cx="21.87" cy="37.51" r="4" transform="matrix(1,0,0,1,596,-4)"></circle><line class="stroke_order_diagram--guide_line" x1="750" x2="750" y1="1" y2="99"></line><line class="stroke_order_diagram--bounding_box" x1="799" x2="799" y1="1" y2="99"></line><path class="stroke_order_diagram--existing_path" d="M19,18.34c0.83,0.1,2.35,0.58,3.18,0.53c8.62-0.47,17.57-1.38,27.18-2.2c1.38-0.12,2.21,0,2.9,0.04" id="Ske2s817h21" kvg:type="㇐" transform="matrix(1,0,0,1,696,-4)" xmlns:kvg="http://kanjivg.tagaini.net"></path><path class="stroke_order_diagram--existing_path" d="M33.2,10c1.2,0.33,1.92,1.96,2.16,2.61c0.24,0.65,0.01,11.28-0.22,15.39" id="Ske2s817h22" kvg:type="㇑a" transform="matrix(1,0,0,1,696,-4)" xmlns:kvg="http://kanjivg.tagaini.net"></path><path class="stroke_order_diagram--existing_path" d="M23.5,28.86c0.62,0.12,1.75,0.07,2.37,0.02c8.18-0.62,10.09-1.06,21.94-1.75c1.03-0.06,1.65-0.02,2.17,0.03" id="Ske2s817h23" kvg:type="㇐" transform="matrix(1,0,0,1,696,-4)" xmlns:kvg="http://kanjivg.tagaini.net"></path><path class="stroke_order_diagram--existing_path" d="M19.12,36.79c0.56,0.1,1.98,0.54,3.87,0.4c6.95-0.54,22.87-1.84,24.3-2.08c3.46-0.58,5.1,0.58,3.95,3.68c-0.62,1.68-2.3,6.56-2.96,7.92" id="Ske2s817h24" kvg:type="㇕" transform="matrix(1,0,0,1,696,-4)" xmlns:kvg="http://kanjivg.tagaini.net"></path><path class="stroke_order_diagram--existing_path" d="M35.34,38.01c0,2.17,0.17,7.19,0.17,8.36" id="Ske2s817h25" kvg:type="㇑a" transform="matrix(1,0,0,1,696,-4)" xmlns:kvg="http://kanjivg.tagaini.net"></path><path class="stroke_order_diagram--existing_path" d="M23,49.64c2-0.12,23.83-2.23,28-2.48" id="Ske2s817h26" kvg:type="㇐a" transform="matrix(1,0,0,1,696,-4)" xmlns:kvg="http://kanjivg.tagaini.net"></path><path class="stroke_order_diagram--existing_path" d="M21.87,37.51c0.72,0.62,1.04,0.78,1,1.56C22.25,52.25,21,59,14,67.21" id="Ske2s817h27" kvg:type="㇒" transform="matrix(1,0,0,1,696,-4)" xmlns:kvg="http://kanjivg.tagaini.net"></path><path class="stroke_order_diagram--current_path" d="M61.96,14c0.21,0.5,0.41,1.6,0.4,2.34c-0.15,7.61-1.72,16.39-6.33,19.58" id="kvg:078ec-s8" kvg:type="㇒" transform="matrix(1,0,0,1,696,-4)" xmlns:kvg="http://kanjivg.tagaini.net"></path><path class="stroke_order_diagram--current_path" d="M61.96,14c0.21,0.5,0.41,1.6,0.4,2.34c-0.15,7.61-1.72,16.39-6.33,19.58" id="Ske2s817h29" kvg:type="㇒" transform="matrix(1,0,0,1,696,-4)" xmlns:kvg="http://kanjivg.tagaini.net"></path><circle class="stroke_order_diagram--path_start" cx="61.96" cy="14" r="4" transform="matrix(1,0,0,1,696,-4)"></circle><line class="stroke_order_diagram--guide_line" x1="850" x2="850" y1="1" y2="99"></line><line class="stroke_order_diagram--bounding_box" x1="899" x2="899" y1="1" y2="99"></line><path class="stroke_order_diagram--existing_path" d="M19,18.34c0.83,0.1,2.35,0.58,3.18,0.53c8.62-0.47,17.57-1.38,27.18-2.2c1.38-0.12,2.21,0,2.9,0.04" id="Ske2s817h2c" kvg:type="㇐" transform="matrix(1,0,0,1,796,-4)" xmlns:kvg="http://kanjivg.tagaini.net"></path><path class="stroke_order_diagram--existing_path" d="M33.2,10c1.2,0.33,1.92,1.96,2.16,2.61c0.24,0.65,0.01,11.28-0.22,15.39" id="Ske2s817h2d" kvg:type="㇑a" transform="matrix(1,0,0,1,796,-4)" xmlns:kvg="http://kanjivg.tagaini.net"></path><path class="stroke_order_diagram--existing_path" d="M23.5,28.86c0.62,0.12,1.75,0.07,2.37,0.02c8.18-0.62,10.09-1.06,21.94-1.75c1.03-0.06,1.65-0.02,2.17,0.03" id="Ske2s817h2e" kvg:type="㇐" transform="matrix(1,0,0,1,796,-4)" xmlns:kvg="http://kanjivg.tagaini.net"></path><path class="stroke_order_diagram--existing_path" d="M19.12,36.79c0.56,0.1,1.98,0.54,3.87,0.4c6.95-0.54,22.87-1.84,24.3-2.08c3.46-0.58,5.1,0.58,3.95,3.68c-0.62,1.68-2.3,6.56-2.96,7.92" id="Ske2s817h2f" kvg:type="㇕" transform="matrix(1,0,0,1,796,-4)" xmlns:kvg="http://kanjivg.tagaini.net"></path><path class="stroke_order_diagram--existing_path" d="M35.34,38.01c0,2.17,0.17,7.19,0.17,8.36" id="Ske2s817h2g" kvg:type="㇑a" transform="matrix(1,0,0,1,796,-4)" xmlns:kvg="http://kanjivg.tagaini.net"></path><path class="stroke_order_diagram--existing_path" d="M23,49.64c2-0.12,23.83-2.23,28-2.48" id="Ske2s817h2h" kvg:type="㇐a" transform="matrix(1,0,0,1,796,-4)" xmlns:kvg="http://kanjivg.tagaini.net"></path><path class="stroke_order_diagram--existing_path" d="M21.87,37.51c0.72,0.62,1.04,0.78,1,1.56C22.25,52.25,21,59,14,67.21" id="Ske2s817h2i" kvg:type="㇒" transform="matrix(1,0,0,1,796,-4)" xmlns:kvg="http://kanjivg.tagaini.net"></path><path class="stroke_order_diagram--existing_path" d="M61.96,14c0.21,0.5,0.41,1.6,0.4,2.34c-0.15,7.61-1.72,16.39-6.33,19.58" id="Ske2s817h2j" kvg:type="㇒" transform="matrix(1,0,0,1,796,-4)" xmlns:kvg="http://kanjivg.tagaini.net"></path><path class="stroke_order_diagram--current_path" d="M62.59,16.58c1.93,0.17,13.51-1.86,14.81-2.21c1.93-0.52,2.9,1.1,2.7,2.24c-0.38,2.24-1.58,6.02-1.58,8.26c0,3.1,1.96,5.34,8.33,5.34c7.52,0,7.83-0.34,7.83-6.71" id="kvg:078ec-s9" kvg:type="㇈b" transform="matrix(1,0,0,1,796,-4)" xmlns:kvg="http://kanjivg.tagaini.net"></path><path class="stroke_order_diagram--current_path" d="M62.59,16.58c1.93,0.17,13.51-1.86,14.81-2.21c1.93-0.52,2.9,1.1,2.7,2.24c-0.38,2.24-1.58,6.02-1.58,8.26c0,3.1,1.96,5.34,8.33,5.34c7.52,0,7.83-0.34,7.83-6.71" id="Ske2s817h2l" kvg:type="㇈b" transform="matrix(1,0,0,1,796,-4)" xmlns:kvg="http://kanjivg.tagaini.net"></path><circle class="stroke_order_diagram--path_start" cx="62.59" cy="16.58" r="4" transform="matrix(1,0,0,1,796,-4)"></circle><line class="stroke_order_diagram--guide_line" x1="950" x2="950" y1="1" y2="99"></line><line class="stroke_order_diagram--bounding_box" x1="999" x2="999" y1="1" y2="99"></line><path class="stroke_order_diagram--existing_path" d="M19,18.34c0.83,0.1,2.35,0.58,3.18,0.53c8.62-0.47,17.57-1.38,27.18-2.2c1.38-0.12,2.21,0,2.9,0.04" id="Ske2s817h2o" kvg:type="㇐" transform="matrix(1,0,0,1,896,-4)" xmlns:kvg="http://kanjivg.tagaini.net"></path><path class="stroke_order_diagram--existing_path" d="M33.2,10c1.2,0.33,1.92,1.96,2.16,2.61c0.24,0.65,0.01,11.28-0.22,15.39" id="Ske2s817h2p" kvg:type="㇑a" transform="matrix(1,0,0,1,896,-4)" xmlns:kvg="http://kanjivg.tagaini.net"></path><path class="stroke_order_diagram--existing_path" d="M23.5,28.86c0.62,0.12,1.75,0.07,2.37,0.02c8.18-0.62,10.09-1.06,21.94-1.75c1.03-0.06,1.65-0.02,2.17,0.03" id="Ske2s817h2q" kvg:type="㇐" transform="matrix(1,0,0,1,896,-4)" xmlns:kvg="http://kanjivg.tagaini.net"></path><path class="stroke_order_diagram--existing_path" d="M19.12,36.79c0.56,0.1,1.98,0.54,3.87,0.4c6.95-0.54,22.87-1.84,24.3-2.08c3.46-0.58,5.1,0.58,3.95,3.68c-0.62,1.68-2.3,6.56-2.96,7.92" id="Ske2s817h2r" kvg:type="㇕" transform="matrix(1,0,0,1,896,-4)" xmlns:kvg="http://kanjivg.tagaini.net"></path><path class="stroke_order_diagram--existing_path" d="M35.34,38.01c0,2.17,0.17,7.19,0.17,8.36" id="Ske2s817h2s" kvg:type="㇑a" transform="matrix(1,0,0,1,896,-4)" xmlns:kvg="http://kanjivg.tagaini.net"></path><path class="stroke_order_diagram--existing_path" d="M23,49.64c2-0.12,23.83-2.23,28-2.48" id="Ske2s817h2t" kvg:type="㇐a" transform="matrix(1,0,0,1,896,-4)" xmlns:kvg="http://kanjivg.tagaini.net"></path><path class="stroke_order_diagram--existing_path" d="M21.87,37.51c0.72,0.62,1.04,0.78,1,1.56C22.25,52.25,21,59,14,67.21" id="Ske2s817h2u" kvg:type="㇒" transform="matrix(1,0,0,1,896,-4)" xmlns:kvg="http://kanjivg.tagaini.net"></path><path class="stroke_order_diagram--existing_path" d="M61.96,14c0.21,0.5,0.41,1.6,0.4,2.34c-0.15,7.61-1.72,16.39-6.33,19.58" id="Ske2s817h2v" kvg:type="㇒" transform="matrix(1,0,0,1,896,-4)" xmlns:kvg="http://kanjivg.tagaini.net"></path><path class="stroke_order_diagram--existing_path" d="M62.59,16.58c1.93,0.17,13.51-1.86,14.81-2.21c1.93-0.52,2.9,1.1,2.7,2.24c-0.38,2.24-1.58,6.02-1.58,8.26c0,3.1,1.96,5.34,8.33,5.34c7.52,0,7.83-0.34,7.83-6.71" id="Ske2s817h2w" kvg:type="㇈b" transform="matrix(1,0,0,1,896,-4)" xmlns:kvg="http://kanjivg.tagaini.net"></path><path class="stroke_order_diagram--current_path" d="M62.25,37.21c1.13,0.22,1.27,0.55,3.52,0.22c2.25-0.33,11.65-2.29,13.19-2.62c1.55-0.33,2.8,1.27,2.11,2.41C73.95,48.93,65.25,55.56,51.75,61" id="kvg:078ec-s10" kvg:type="㇇" transform="matrix(1,0,0,1,896,-4)" xmlns:kvg="http://kanjivg.tagaini.net"></path><path class="stroke_order_diagram--current_path" d="M62.25,37.21c1.13,0.22,1.27,0.55,3.52,0.22c2.25-0.33,11.65-2.29,13.19-2.62c1.55-0.33,2.8,1.27,2.11,2.41C73.95,48.93,65.25,55.56,51.75,61" id="Ske2s817h2y" kvg:type="㇇" transform="matrix(1,0,0,1,896,-4)" xmlns:kvg="http://kanjivg.tagaini.net"></path><circle class="stroke_order_diagram--path_start" cx="62.25" cy="37.21" r="4" transform="matrix(1,0,0,1,896,-4)"></circle><line class="stroke_order_diagram--guide_line" x1="1050" x2="1050" y1="1" y2="99"></line><line class="stroke_order_diagram--bounding_box" x1="1099" x2="1099" y1="1" y2="99"></line><path class="stroke_order_diagram--existing_path" d="M19,18.34c0.83,0.1,2.35,0.58,3.18,0.53c8.62-0.47,17.57-1.38,27.18-2.2c1.38-0.12,2.21,0,2.9,0.04" id="Ske2s817h31" kvg:type="㇐" transform="matrix(1,0,0,1,996,-4)" xmlns:kvg="http://kanjivg.tagaini.net"></path><path class="stroke_order_diagram--existing_path" d="M33.2,10c1.2,0.33,1.92,1.96,2.16,2.61c0.24,0.65,0.01,11.28-0.22,15.39" id="Ske2s817h32" kvg:type="㇑a" transform="matrix(1,0,0,1,996,-4)" xmlns:kvg="http://kanjivg.tagaini.net"></path><path class="stroke_order_diagram--existing_path" d="M23.5,28.86c0.62,0.12,1.75,0.07,2.37,0.02c8.18-0.62,10.09-1.06,21.94-1.75c1.03-0.06,1.65-0.02,2.17,0.03" id="Ske2s817h33" kvg:type="㇐" transform="matrix(1,0,0,1,996,-4)" xmlns:kvg="http://kanjivg.tagaini.net"></path><path class="stroke_order_diagram--existing_path" d="M19.12,36.79c0.56,0.1,1.98,0.54,3.87,0.4c6.95-0.54,22.87-1.84,24.3-2.08c3.46-0.58,5.1,0.58,3.95,3.68c-0.62,1.68-2.3,6.56-2.96,7.92" id="Ske2s817h34" kvg:type="㇕" transform="matrix(1,0,0,1,996,-4)" xmlns:kvg="http://kanjivg.tagaini.net"></path><path class="stroke_order_diagram--existing_path" d="M35.34,38.01c0,2.17,0.17,7.19,0.17,8.36" id="Ske2s817h35" kvg:type="㇑a" transform="matrix(1,0,0,1,996,-4)" xmlns:kvg="http://kanjivg.tagaini.net"></path><path class="stroke_order_diagram--existing_path" d="M23,49.64c2-0.12,23.83-2.23,28-2.48" id="Ske2s817h36" kvg:type="㇐a" transform="matrix(1,0,0,1,996,-4)" xmlns:kvg="http://kanjivg.tagaini.net"></path><path class="stroke_order_diagram--existing_path" d="M21.87,37.51c0.72,0.62,1.04,0.78,1,1.56C22.25,52.25,21,59,14,67.21" id="Ske2s817h37" kvg:type="㇒" transform="matrix(1,0,0,1,996,-4)" xmlns:kvg="http://kanjivg.tagaini.net"></path><path class="stroke_order_diagram--existing_path" d="M61.96,14c0.21,0.5,0.41,1.6,0.4,2.34c-0.15,7.61-1.72,16.39-6.33,19.58" id="Ske2s817h38" kvg:type="㇒" transform="matrix(1,0,0,1,996,-4)" xmlns:kvg="http://kanjivg.tagaini.net"></path><path class="stroke_order_diagram--existing_path" d="M62.59,16.58c1.93,0.17,13.51-1.86,14.81-2.21c1.93-0.52,2.9,1.1,2.7,2.24c-0.38,2.24-1.58,6.02-1.58,8.26c0,3.1,1.96,5.34,8.33,5.34c7.52,0,7.83-0.34,7.83-6.71" id="Ske2s817h39" kvg:type="㇈b" transform="matrix(1,0,0,1,996,-4)" xmlns:kvg="http://kanjivg.tagaini.net"></path><path class="stroke_order_diagram--existing_path" d="M62.25,37.21c1.13,0.22,1.27,0.55,3.52,0.22c2.25-0.33,11.65-2.29,13.19-2.62c1.55-0.33,2.8,1.27,2.11,2.41C73.95,48.93,65.25,55.56,51.75,61" id="Ske2s817h3a" kvg:type="㇇" transform="matrix(1,0,0,1,996,-4)" xmlns:kvg="http://kanjivg.tagaini.net"></path><path class="stroke_order_diagram--current_path" d="M60.17,43.14c3.15,0.38,18.55,10.65,29.53,14.86c1.71,0.66,2.95,1.09,4.54,1.31" id="kvg:078ec-s11" kvg:type="㇏" transform="matrix(1,0,0,1,996,-4)" xmlns:kvg="http://kanjivg.tagaini.net"></path><path class="stroke_order_diagram--current_path" d="M60.17,43.14c3.15,0.38,18.55,10.65,29.53,14.86c1.71,0.66,2.95,1.09,4.54,1.31" id="Ske2s817h3c" kvg:type="㇏" transform="matrix(1,0,0,1,996,-4)" xmlns:kvg="http://kanjivg.tagaini.net"></path><circle class="stroke_order_diagram--path_start" cx="60.17" cy="43.14" r="4" transform="matrix(1,0,0,1,996,-4)"></circle><line class="stroke_order_diagram--guide_line" x1="1150" x2="1150" y1="1" y2="99"></line><line class="stroke_order_diagram--bounding_box" x1="1199" x2="1199" y1="1" y2="99"></line><path class="stroke_order_diagram--existing_path" d="M19,18.34c0.83,0.1,2.35,0.58,3.18,0.53c8.62-0.47,17.57-1.38,27.18-2.2c1.38-0.12,2.21,0,2.9,0.04" id="Ske2s817h3f" kvg:type="㇐" transform="matrix(1,0,0,1,1096,-4)" xmlns:kvg="http://kanjivg.tagaini.net"></path><path class="stroke_order_diagram--existing_path" d="M33.2,10c1.2,0.33,1.92,1.96,2.16,2.61c0.24,0.65,0.01,11.28-0.22,15.39" id="Ske2s817h3g" kvg:type="㇑a" transform="matrix(1,0,0,1,1096,-4)" xmlns:kvg="http://kanjivg.tagaini.net"></path><path class="stroke_order_diagram--existing_path" d="M23.5,28.86c0.62,0.12,1.75,0.07,2.37,0.02c8.18-0.62,10.09-1.06,21.94-1.75c1.03-0.06,1.65-0.02,2.17,0.03" id="Ske2s817h3h" kvg:type="㇐" transform="matrix(1,0,0,1,1096,-4)" xmlns:kvg="http://kanjivg.tagaini.net"></path><path class="stroke_order_diagram--existing_path" d="M19.12,36.79c0.56,0.1,1.98,0.54,3.87,0.4c6.95-0.54,22.87-1.84,24.3-2.08c3.46-0.58,5.1,0.58,3.95,3.68c-0.62,1.68-2.3,6.56-2.96,7.92" id="Ske2s817h3i" kvg:type="㇕" transform="matrix(1,0,0,1,1096,-4)" xmlns:kvg="http://kanjivg.tagaini.net"></path><path class="stroke_order_diagram--existing_path" d="M35.34,38.01c0,2.17,0.17,7.19,0.17,8.36" id="Ske2s817h3j" kvg:type="㇑a" transform="matrix(1,0,0,1,1096,-4)" xmlns:kvg="http://kanjivg.tagaini.net"></path><path class="stroke_order_diagram--existing_path" d="M23,49.64c2-0.12,23.83-2.23,28-2.48" id="Ske2s817h3k" kvg:type="㇐a" transform="matrix(1,0,0,1,1096,-4)" xmlns:kvg="http://kanjivg.tagaini.net"></path><path class="stroke_order_diagram--existing_path" d="M21.87,37.51c0.72,0.62,1.04,0.78,1,1.56C22.25,52.25,21,59,14,67.21" id="Ske2s817h3l" kvg:type="㇒" transform="matrix(1,0,0,1,1096,-4)" xmlns:kvg="http://kanjivg.tagaini.net"></path><path class="stroke_order_diagram--existing_path" d="M61.96,14c0.21,0.5,0.41,1.6,0.4,2.34c-0.15,7.61-1.72,16.39-6.33,19.58" id="Ske2s817h3m" kvg:type="㇒" transform="matrix(1,0,0,1,1096,-4)" xmlns:kvg="http://kanjivg.tagaini.net"></path><path class="stroke_order_diagram--existing_path" d="M62.59,16.58c1.93,0.17,13.51-1.86,14.81-2.21c1.93-0.52,2.9,1.1,2.7,2.24c-0.38,2.24-1.58,6.02-1.58,8.26c0,3.1,1.96,5.34,8.33,5.34c7.52,0,7.83-0.34,7.83-6.71" id="Ske2s817h3n" kvg:type="㇈b" transform="matrix(1,0,0,1,1096,-4)" xmlns:kvg="http://kanjivg.tagaini.net"></path><path class="stroke_order_diagram--existing_path" d="M62.25,37.21c1.13,0.22,1.27,0.55,3.52,0.22c2.25-0.33,11.65-2.29,13.19-2.62c1.55-0.33,2.8,1.27,2.11,2.41C73.95,48.93,65.25,55.56,51.75,61" id="Ske2s817h3o" kvg:type="㇇" transform="matrix(1,0,0,1,1096,-4)" xmlns:kvg="http://kanjivg.tagaini.net"></path><path class="stroke_order_diagram--existing_path" d="M60.17,43.14c3.15,0.38,18.55,10.65,29.53,14.86c1.71,0.66,2.95,1.09,4.54,1.31" id="Ske2s817h3p" kvg:type="㇏" transform="matrix(1,0,0,1,1096,-4)" xmlns:kvg="http://kanjivg.tagaini.net"></path><path class="stroke_order_diagram--current_path" d="M23,68.36c1.21,0.17,3.91,0.22,5.12,0.17c15.17-0.61,38.18-2.39,56.37-2.49c2.02-0.01,3.23,0.08,4.24,0.17" id="kvg:078ec-s12" kvg:type="㇐" transform="matrix(1,0,0,1,1096,-4)" xmlns:kvg="http://kanjivg.tagaini.net"></path><path class="stroke_order_diagram--current_path" d="M23,68.36c1.21,0.17,3.91,0.22,5.12,0.17c15.17-0.61,38.18-2.39,56.37-2.49c2.02-0.01,3.23,0.08,4.24,0.17" id="Ske2s817h3r" kvg:type="㇐" transform="matrix(1,0,0,1,1096,-4)" xmlns:kvg="http://kanjivg.tagaini.net"></path><circle class="stroke_order_diagram--path_start" cx="23" cy="68.36" r="4" transform="matrix(1,0,0,1,1096,-4)"></circle><line class="stroke_order_diagram--guide_line" x1="1250" x2="1250" y1="1" y2="99"></line><line class="stroke_order_diagram--bounding_box" x1="1299" x2="1299" y1="1" y2="99"></line><path class="stroke_order_diagram--existing_path" d="M19,18.34c0.83,0.1,2.35,0.58,3.18,0.53c8.62-0.47,17.57-1.38,27.18-2.2c1.38-0.12,2.21,0,2.9,0.04" id="Ske2s817h3u" kvg:type="㇐" transform="matrix(1,0,0,1,1196,-4)" xmlns:kvg="http://kanjivg.tagaini.net"></path><path class="stroke_order_diagram--existing_path" d="M33.2,10c1.2,0.33,1.92,1.96,2.16,2.61c0.24,0.65,0.01,11.28-0.22,15.39" id="Ske2s817h3v" kvg:type="㇑a" transform="matrix(1,0,0,1,1196,-4)" xmlns:kvg="http://kanjivg.tagaini.net"></path><path class="stroke_order_diagram--existing_path" d="M23.5,28.86c0.62,0.12,1.75,0.07,2.37,0.02c8.18-0.62,10.09-1.06,21.94-1.75c1.03-0.06,1.65-0.02,2.17,0.03" id="Ske2s817h3w" kvg:type="㇐" transform="matrix(1,0,0,1,1196,-4)" xmlns:kvg="http://kanjivg.tagaini.net"></path><path class="stroke_order_diagram--existing_path" d="M19.12,36.79c0.56,0.1,1.98,0.54,3.87,0.4c6.95-0.54,22.87-1.84,24.3-2.08c3.46-0.58,5.1,0.58,3.95,3.68c-0.62,1.68-2.3,6.56-2.96,7.92" id="Ske2s817h3x" kvg:type="㇕" transform="matrix(1,0,0,1,1196,-4)" xmlns:kvg="http://kanjivg.tagaini.net"></path><path class="stroke_order_diagram--existing_path" d="M35.34,38.01c0,2.17,0.17,7.19,0.17,8.36" id="Ske2s817h3y" kvg:type="㇑a" transform="matrix(1,0,0,1,1196,-4)" xmlns:kvg="http://kanjivg.tagaini.net"></path><path class="stroke_order_diagram--existing_path" d="M23,49.64c2-0.12,23.83-2.23,28-2.48" id="Ske2s817h3z" kvg:type="㇐a" transform="matrix(1,0,0,1,1196,-4)" xmlns:kvg="http://kanjivg.tagaini.net"></path><path class="stroke_order_diagram--existing_path" d="M21.87,37.51c0.72,0.62,1.04,0.78,1,1.56C22.25,52.25,21,59,14,67.21" id="Ske2s817h40" kvg:type="㇒" transform="matrix(1,0,0,1,1196,-4)" xmlns:kvg="http://kanjivg.tagaini.net"></path><path class="stroke_order_diagram--existing_path" d="M61.96,14c0.21,0.5,0.41,1.6,0.4,2.34c-0.15,7.61-1.72,16.39-6.33,19.58" id="Ske2s817h41" kvg:type="㇒" transform="matrix(1,0,0,1,1196,-4)" xmlns:kvg="http://kanjivg.tagaini.net"></path><path class="stroke_order_diagram--existing_path" d="M62.59,16.58c1.93,0.17,13.51-1.86,14.81-2.21c1.93-0.52,2.9,1.1,2.7,2.24c-0.38,2.24-1.58,6.02-1.58,8.26c0,3.1,1.96,5.34,8.33,5.34c7.52,0,7.83-0.34,7.83-6.71" id="Ske2s817h42" kvg:type="㇈b" transform="matrix(1,0,0,1,1196,-4)" xmlns:kvg="http://kanjivg.tagaini.net"></path><path class="stroke_order_diagram--existing_path" d="M62.25,37.21c1.13,0.22,1.27,0.55,3.52,0.22c2.25-0.33,11.65-2.29,13.19-2.62c1.55-0.33,2.8,1.27,2.11,2.41C73.95,48.93,65.25,55.56,51.75,61" id="Ske2s817h43" kvg:type="㇇" transform="matrix(1,0,0,1,1196,-4)" xmlns:kvg="http://kanjivg.tagaini.net"></path><path class="stroke_order_diagram--existing_path" d="M60.17,43.14c3.15,0.38,18.55,10.65,29.53,14.86c1.71,0.66,2.95,1.09,4.54,1.31" id="Ske2s817h44" kvg:type="㇏" transform="matrix(1,0,0,1,1196,-4)" xmlns:kvg="http://kanjivg.tagaini.net"></path><path class="stroke_order_diagram--existing_path" d="M23,68.36c1.21,0.17,3.91,0.22,5.12,0.17c15.17-0.61,38.18-2.39,56.37-2.49c2.02-0.01,3.23,0.08,4.24,0.17" id="Ske2s817h45" kvg:type="㇐" transform="matrix(1,0,0,1,1196,-4)" xmlns:kvg="http://kanjivg.tagaini.net"></path><path class="stroke_order_diagram--current_path" d="M44.43,68.55c0.07,0.6,0.16,1.55-0.15,2.41C42.44,76.03,31.91,87.18,17.5,94" id="kvg:078ec-s13" kvg:type="㇒" transform="matrix(1,0,0,1,1196,-4)" xmlns:kvg="http://kanjivg.tagaini.net"></path><path class="stroke_order_diagram--current_path" d="M44.43,68.55c0.07,0.6,0.16,1.55-0.15,2.41C42.44,76.03,31.91,87.18,17.5,94" id="Ske2s817h47" kvg:type="㇒" transform="matrix(1,0,0,1,1196,-4)" xmlns:kvg="http://kanjivg.tagaini.net"></path><circle class="stroke_order_diagram--path_start" cx="44.43" cy="68.55" r="4" transform="matrix(1,0,0,1,1196,-4)"></circle><line class="stroke_order_diagram--guide_line" x1="1350" x2="1350" y1="1" y2="99"></line><line class="stroke_order_diagram--bounding_box" x1="1399" x2="1399" y1="1" y2="99"></line><path class="stroke_order_diagram--existing_path" d="M19,18.34c0.83,0.1,2.35,0.58,3.18,0.53c8.62-0.47,17.57-1.38,27.18-2.2c1.38-0.12,2.21,0,2.9,0.04" id="Ske2s817h4a" kvg:type="㇐" transform="matrix(1,0,0,1,1296,-4)" xmlns:kvg="http://kanjivg.tagaini.net"></path><path class="stroke_order_diagram--existing_path" d="M33.2,10c1.2,0.33,1.92,1.96,2.16,2.61c0.24,0.65,0.01,11.28-0.22,15.39" id="Ske2s817h4b" kvg:type="㇑a" transform="matrix(1,0,0,1,1296,-4)" xmlns:kvg="http://kanjivg.tagaini.net"></path><path class="stroke_order_diagram--existing_path" d="M23.5,28.86c0.62,0.12,1.75,0.07,2.37,0.02c8.18-0.62,10.09-1.06,21.94-1.75c1.03-0.06,1.65-0.02,2.17,0.03" id="Ske2s817h4c" kvg:type="㇐" transform="matrix(1,0,0,1,1296,-4)" xmlns:kvg="http://kanjivg.tagaini.net"></path><path class="stroke_order_diagram--existing_path" d="M19.12,36.79c0.56,0.1,1.98,0.54,3.87,0.4c6.95-0.54,22.87-1.84,24.3-2.08c3.46-0.58,5.1,0.58,3.95,3.68c-0.62,1.68-2.3,6.56-2.96,7.92" id="Ske2s817h4d" kvg:type="㇕" transform="matrix(1,0,0,1,1296,-4)" xmlns:kvg="http://kanjivg.tagaini.net"></path><path class="stroke_order_diagram--existing_path" d="M35.34,38.01c0,2.17,0.17,7.19,0.17,8.36" id="Ske2s817h4e" kvg:type="㇑a" transform="matrix(1,0,0,1,1296,-4)" xmlns:kvg="http://kanjivg.tagaini.net"></path><path class="stroke_order_diagram--existing_path" d="M23,49.64c2-0.12,23.83-2.23,28-2.48" id="Ske2s817h4f" kvg:type="㇐a" transform="matrix(1,0,0,1,1296,-4)" xmlns:kvg="http://kanjivg.tagaini.net"></path><path class="stroke_order_diagram--existing_path" d="M21.87,37.51c0.72,0.62,1.04,0.78,1,1.56C22.25,52.25,21,59,14,67.21" id="Ske2s817h4g" kvg:type="㇒" transform="matrix(1,0,0,1,1296,-4)" xmlns:kvg="http://kanjivg.tagaini.net"></path><path class="stroke_order_diagram--existing_path" d="M61.96,14c0.21,0.5,0.41,1.6,0.4,2.34c-0.15,7.61-1.72,16.39-6.33,19.58" id="Ske2s817h4h" kvg:type="㇒" transform="matrix(1,0,0,1,1296,-4)" xmlns:kvg="http://kanjivg.tagaini.net"></path><path class="stroke_order_diagram--existing_path" d="M62.59,16.58c1.93,0.17,13.51-1.86,14.81-2.21c1.93-0.52,2.9,1.1,2.7,2.24c-0.38,2.24-1.58,6.02-1.58,8.26c0,3.1,1.96,5.34,8.33,5.34c7.52,0,7.83-0.34,7.83-6.71" id="Ske2s817h4i" kvg:type="㇈b" transform="matrix(1,0,0,1,1296,-4)" xmlns:kvg="http://kanjivg.tagaini.net"></path><path class="stroke_order_diagram--existing_path" d="M62.25,37.21c1.13,0.22,1.27,0.55,3.52,0.22c2.25-0.33,11.65-2.29,13.19-2.62c1.55-0.33,2.8,1.27,2.11,2.41C73.95,48.93,65.25,55.56,51.75,61" id="Ske2s817h4j" kvg:type="㇇" transform="matrix(1,0,0,1,1296,-4)" xmlns:kvg="http://kanjivg.tagaini.net"></path><path class="stroke_order_diagram--existing_path" d="M60.17,43.14c3.15,0.38,18.55,10.65,29.53,14.86c1.71,0.66,2.95,1.09,4.54,1.31" id="Ske2s817h4k" kvg:type="㇏" transform="matrix(1,0,0,1,1296,-4)" xmlns:kvg="http://kanjivg.tagaini.net"></path><path class="stroke_order_diagram--existing_path" d="M23,68.36c1.21,0.17,3.91,0.22,5.12,0.17c15.17-0.61,38.18-2.39,56.37-2.49c2.02-0.01,3.23,0.08,4.24,0.17" id="Ske2s817h4l" kvg:type="㇐" transform="matrix(1,0,0,1,1296,-4)" xmlns:kvg="http://kanjivg.tagaini.net"></path><path class="stroke_order_diagram--existing_path" d="M44.43,68.55c0.07,0.6,0.16,1.55-0.15,2.41C42.44,76.03,31.91,87.18,17.5,94" id="Ske2s817h4m" kvg:type="㇒" transform="matrix(1,0,0,1,1296,-4)" xmlns:kvg="http://kanjivg.tagaini.net"></path><path class="stroke_order_diagram--current_path" d="M40.7,78.34c0.4,0.4,0.92,2.01,0.99,2.54c0.55,3.82,1.55,11.13,2.32,18.37" id="kvg:078ec-s14" kvg:type="㇑" transform="matrix(1,0,0,1,1296,-4)" xmlns:kvg="http://kanjivg.tagaini.net"></path><path class="stroke_order_diagram--current_path" d="M40.7,78.34c0.4,0.4,0.92,2.01,0.99,2.54c0.55,3.82,1.55,11.13,2.32,18.37" id="Ske2s817h4o" kvg:type="㇑" transform="matrix(1,0,0,1,1296,-4)" xmlns:kvg="http://kanjivg.tagaini.net"></path><circle class="stroke_order_diagram--path_start" cx="40.7" cy="78.34" r="4" transform="matrix(1,0,0,1,1296,-4)"></circle><line class="stroke_order_diagram--guide_line" x1="1450" x2="1450" y1="1" y2="99"></line><line class="stroke_order_diagram--bounding_box" x1="1499" x2="1499" y1="1" y2="99"></line><path class="stroke_order_diagram--existing_path" d="M19,18.34c0.83,0.1,2.35,0.58,3.18,0.53c8.62-0.47,17.57-1.38,27.18-2.2c1.38-0.12,2.21,0,2.9,0.04" id="Ske2s817h4r" kvg:type="㇐" transform="matrix(1,0,0,1,1396,-4)" xmlns:kvg="http://kanjivg.tagaini.net"></path><path class="stroke_order_diagram--existing_path" d="M33.2,10c1.2,0.33,1.92,1.96,2.16,2.61c0.24,0.65,0.01,11.28-0.22,15.39" id="Ske2s817h4s" kvg:type="㇑a" transform="matrix(1,0,0,1,1396,-4)" xmlns:kvg="http://kanjivg.tagaini.net"></path><path class="stroke_order_diagram--existing_path" d="M23.5,28.86c0.62,0.12,1.75,0.07,2.37,0.02c8.18-0.62,10.09-1.06,21.94-1.75c1.03-0.06,1.65-0.02,2.17,0.03" id="Ske2s817h4t" kvg:type="㇐" transform="matrix(1,0,0,1,1396,-4)" xmlns:kvg="http://kanjivg.tagaini.net"></path><path class="stroke_order_diagram--existing_path" d="M19.12,36.79c0.56,0.1,1.98,0.54,3.87,0.4c6.95-0.54,22.87-1.84,24.3-2.08c3.46-0.58,5.1,0.58,3.95,3.68c-0.62,1.68-2.3,6.56-2.96,7.92" id="Ske2s817h4u" kvg:type="㇕" transform="matrix(1,0,0,1,1396,-4)" xmlns:kvg="http://kanjivg.tagaini.net"></path><path class="stroke_order_diagram--existing_path" d="M35.34,38.01c0,2.17,0.17,7.19,0.17,8.36" id="Ske2s817h4v" kvg:type="㇑a" transform="matrix(1,0,0,1,1396,-4)" xmlns:kvg="http://kanjivg.tagaini.net"></path><path class="stroke_order_diagram--existing_path" d="M23,49.64c2-0.12,23.83-2.23,28-2.48" id="Ske2s817h4w" kvg:type="㇐a" transform="matrix(1,0,0,1,1396,-4)" xmlns:kvg="http://kanjivg.tagaini.net"></path><path class="stroke_order_diagram--existing_path" d="M21.87,37.51c0.72,0.62,1.04,0.78,1,1.56C22.25,52.25,21,59,14,67.21" id="Ske2s817h4x" kvg:type="㇒" transform="matrix(1,0,0,1,1396,-4)" xmlns:kvg="http://kanjivg.tagaini.net"></path><path class="stroke_order_diagram--existing_path" d="M61.96,14c0.21,0.5,0.41,1.6,0.4,2.34c-0.15,7.61-1.72,16.39-6.33,19.58" id="Ske2s817h4y" kvg:type="㇒" transform="matrix(1,0,0,1,1396,-4)" xmlns:kvg="http://kanjivg.tagaini.net"></path><path class="stroke_order_diagram--existing_path" d="M62.59,16.58c1.93,0.17,13.51-1.86,14.81-2.21c1.93-0.52,2.9,1.1,2.7,2.24c-0.38,2.24-1.58,6.02-1.58,8.26c0,3.1,1.96,5.34,8.33,5.34c7.52,0,7.83-0.34,7.83-6.71" id="Ske2s817h4z" kvg:type="㇈b" transform="matrix(1,0,0,1,1396,-4)" xmlns:kvg="http://kanjivg.tagaini.net"></path><path class="stroke_order_diagram--existing_path" d="M62.25,37.21c1.13,0.22,1.27,0.55,3.52,0.22c2.25-0.33,11.65-2.29,13.19-2.62c1.55-0.33,2.8,1.27,2.11,2.41C73.95,48.93,65.25,55.56,51.75,61" id="Ske2s817h50" kvg:type="㇇" transform="matrix(1,0,0,1,1396,-4)" xmlns:kvg="http://kanjivg.tagaini.net"></path><path class="stroke_order_diagram--existing_path" d="M60.17,43.14c3.15,0.38,18.55,10.65,29.53,14.86c1.71,0.66,2.95,1.09,4.54,1.31" id="Ske2s817h51" kvg:type="㇏" transform="matrix(1,0,0,1,1396,-4)" xmlns:kvg="http://kanjivg.tagaini.net"></path><path class="stroke_order_diagram--existing_path" d="M23,68.36c1.21,0.17,3.91,0.22,5.12,0.17c15.17-0.61,38.18-2.39,56.37-2.49c2.02-0.01,3.23,0.08,4.24,0.17" id="Ske2s817h52" kvg:type="㇐" transform="matrix(1,0,0,1,1396,-4)" xmlns:kvg="http://kanjivg.tagaini.net"></path><path class="stroke_order_diagram--existing_path" d="M44.43,68.55c0.07,0.6,0.16,1.55-0.15,2.41C42.44,76.03,31.91,87.18,17.5,94" id="Ske2s817h53" kvg:type="㇒" transform="matrix(1,0,0,1,1396,-4)" xmlns:kvg="http://kanjivg.tagaini.net"></path><path class="stroke_order_diagram--existing_path" d="M40.7,78.34c0.4,0.4,0.92,2.01,0.99,2.54c0.55,3.82,1.55,11.13,2.32,18.37" id="Ske2s817h54" kvg:type="㇑" transform="matrix(1,0,0,1,1396,-4)" xmlns:kvg="http://kanjivg.tagaini.net"></path><path class="stroke_order_diagram--current_path" d="M41.65,80.58c9.11-0.71,30.35-3.1,36.56-3.21c2.57-0.05,3.02,1.84,2.72,2.91c-0.96,3.43-2.69,7.89-4.01,13.97" id="kvg:078ec-s15" kvg:type="㇕b" transform="matrix(1,0,0,1,1396,-4)" xmlns:kvg="http://kanjivg.tagaini.net"></path><path class="stroke_order_diagram--current_path" d="M41.65,80.58c9.11-0.71,30.35-3.1,36.56-3.21c2.57-0.05,3.02,1.84,2.72,2.91c-0.96,3.43-2.69,7.89-4.01,13.97" id="Ske2s817h56" kvg:type="㇕b" transform="matrix(1,0,0,1,1396,-4)" xmlns:kvg="http://kanjivg.tagaini.net"></path><circle class="stroke_order_diagram--path_start" cx="41.65" cy="80.58" r="4" transform="matrix(1,0,0,1,1396,-4)"></circle><line class="stroke_order_diagram--guide_line" x1="1550" x2="1550" y1="1" y2="99"></line><line class="stroke_order_diagram--bounding_box" x1="1599" x2="1599" y1="1" y2="99"></line><path class="stroke_order_diagram--existing_path" d="M19,18.34c0.83,0.1,2.35,0.58,3.18,0.53c8.62-0.47,17.57-1.38,27.18-2.2c1.38-0.12,2.21,0,2.9,0.04" id="Ske2s817h59" kvg:type="㇐" transform="matrix(1,0,0,1,1496,-4)" xmlns:kvg="http://kanjivg.tagaini.net"></path><path class="stroke_order_diagram--existing_path" d="M33.2,10c1.2,0.33,1.92,1.96,2.16,2.61c0.24,0.65,0.01,11.28-0.22,15.39" id="Ske2s817h5a" kvg:type="㇑a" transform="matrix(1,0,0,1,1496,-4)" xmlns:kvg="http://kanjivg.tagaini.net"></path><path class="stroke_order_diagram--existing_path" d="M23.5,28.86c0.62,0.12,1.75,0.07,2.37,0.02c8.18-0.62,10.09-1.06,21.94-1.75c1.03-0.06,1.65-0.02,2.17,0.03" id="Ske2s817h5b" kvg:type="㇐" transform="matrix(1,0,0,1,1496,-4)" xmlns:kvg="http://kanjivg.tagaini.net"></path><path class="stroke_order_diagram--existing_path" d="M19.12,36.79c0.56,0.1,1.98,0.54,3.87,0.4c6.95-0.54,22.87-1.84,24.3-2.08c3.46-0.58,5.1,0.58,3.95,3.68c-0.62,1.68-2.3,6.56-2.96,7.92" id="Ske2s817h5c" kvg:type="㇕" transform="matrix(1,0,0,1,1496,-4)" xmlns:kvg="http://kanjivg.tagaini.net"></path><path class="stroke_order_diagram--existing_path" d="M35.34,38.01c0,2.17,0.17,7.19,0.17,8.36" id="Ske2s817h5d" kvg:type="㇑a" transform="matrix(1,0,0,1,1496,-4)" xmlns:kvg="http://kanjivg.tagaini.net"></path><path class="stroke_order_diagram--existing_path" d="M23,49.64c2-0.12,23.83-2.23,28-2.48" id="Ske2s817h5e" kvg:type="㇐a" transform="matrix(1,0,0,1,1496,-4)" xmlns:kvg="http://kanjivg.tagaini.net"></path><path class="stroke_order_diagram--existing_path" d="M21.87,37.51c0.72,0.62,1.04,0.78,1,1.56C22.25,52.25,21,59,14,67.21" id="Ske2s817h5f" kvg:type="㇒" transform="matrix(1,0,0,1,1496,-4)" xmlns:kvg="http://kanjivg.tagaini.net"></path><path class="stroke_order_diagram--existing_path" d="M61.96,14c0.21,0.5,0.41,1.6,0.4,2.34c-0.15,7.61-1.72,16.39-6.33,19.58" id="Ske2s817h5g" kvg:type="㇒" transform="matrix(1,0,0,1,1496,-4)" xmlns:kvg="http://kanjivg.tagaini.net"></path><path class="stroke_order_diagram--existing_path" d="M62.59,16.58c1.93,0.17,13.51-1.86,14.81-2.21c1.93-0.52,2.9,1.1,2.7,2.24c-0.38,2.24-1.58,6.02-1.58,8.26c0,3.1,1.96,5.34,8.33,5.34c7.52,0,7.83-0.34,7.83-6.71" id="Ske2s817h5h" kvg:type="㇈b" transform="matrix(1,0,0,1,1496,-4)" xmlns:kvg="http://kanjivg.tagaini.net"></path><path class="stroke_order_diagram--existing_path" d="M62.25,37.21c1.13,0.22,1.27,0.55,3.52,0.22c2.25-0.33,11.65-2.29,13.19-2.62c1.55-0.33,2.8,1.27,2.11,2.41C73.95,48.93,65.25,55.56,51.75,61" id="Ske2s817h5i" kvg:type="㇇" transform="matrix(1,0,0,1,1496,-4)" xmlns:kvg="http://kanjivg.tagaini.net"></path><path class="stroke_order_diagram--existing_path" d="M60.17,43.14c3.15,0.38,18.55,10.65,29.53,14.86c1.71,0.66,2.95,1.09,4.54,1.31" id="Ske2s817h5j" kvg:type="㇏" transform="matrix(1,0,0,1,1496,-4)" xmlns:kvg="http://kanjivg.tagaini.net"></path><path class="stroke_order_diagram--existing_path" d="M23,68.36c1.21,0.17,3.91,0.22,5.12,0.17c15.17-0.61,38.18-2.39,56.37-2.49c2.02-0.01,3.23,0.08,4.24,0.17" id="Ske2s817h5k" kvg:type="㇐" transform="matrix(1,0,0,1,1496,-4)" xmlns:kvg="http://kanjivg.tagaini.net"></path><path class="stroke_order_diagram--existing_path" d="M44.43,68.55c0.07,0.6,0.16,1.55-0.15,2.41C42.44,76.03,31.91,87.18,17.5,94" id="Ske2s817h5l" kvg:type="㇒" transform="matrix(1,0,0,1,1496,-4)" xmlns:kvg="http://kanjivg.tagaini.net"></path><path class="stroke_order_diagram--existing_path" d="M40.7,78.34c0.4,0.4,0.92,2.01,0.99,2.54c0.55,3.82,1.55,11.13,2.32,18.37" id="Ske2s817h5m" kvg:type="㇑" transform="matrix(1,0,0,1,1496,-4)" xmlns:kvg="http://kanjivg.tagaini.net"></path><path class="stroke_order_diagram--existing_path" d="M41.65,80.58c9.11-0.71,30.35-3.1,36.56-3.21c2.57-0.05,3.02,1.84,2.72,2.91c-0.96,3.43-2.69,7.89-4.01,13.97" id="Ske2s817h5n" kvg:type="㇕b" transform="matrix(1,0,0,1,1496,-4)" xmlns:kvg="http://kanjivg.tagaini.net"></path><path class="stroke_order_diagram--current_path" d="M45.35,96.64c6.63-0.38,23.03-1.66,31.49-1.77" id="kvg:078ec-s16" kvg:type="㇐b" transform="matrix(1,0,0,1,1496,-4)" xmlns:kvg="http://kanjivg.tagaini.net"></path><path class="stroke_order_diagram--current_path" d="M45.35,96.64c6.63-0.38,23.03-1.66,31.49-1.77" id="Ske2s817h5p" kvg:type="㇐b" transform="matrix(1,0,0,1,1496,-4)" xmlns:kvg="http://kanjivg.tagaini.net"></path><circle class="stroke_order_diagram--path_start" cx="45.35" cy="96.64" r="4" transform="matrix(1,0,0,1,1496,-4)"></circle></svg>