<svg class="stroke_order_diagram--svg_container_for_518662b3d5dda7965800129e" style="height: 100px; width: 1000px;" viewbox="0 0 1000 100"><desc>Created with Snap</desc><defs></defs><line class="stroke_order_diagram--bounding_box" x1="1" x2="999" y1="1" y2="1"></line><line class="stroke_order_diagram--bounding_box" x1="1" x2="1" y1="1" y2="99"></line><line class="stroke_order_diagram--bounding_box" x1="1" x2="999" y1="99" y2="99"></line><line class="stroke_order_diagram--guide_line" x1="0" x2="1000" y1="50" y2="50"></line><line class="stroke_order_diagram--guide_line" x1="50" x2="50" y1="1" y2="99"></line><line class="stroke_order_diagram--bounding_box" x1="99" x2="99" y1="1" y2="99"></line><path class="stroke_order_diagram--current_path" d="M17.48,17.55c1.38,0.34,2.77,0.44,4.16,0.3c4.55-0.3,10.94-1.08,15.62-1.47c1.42-0.2,2.83-0.12,4.24,0.25" id="kvg:0795a-s1" kvg:type="㇐" transform="matrix(1,0,0,1,-4,-4)" xmlns:kvg="http://kanjivg.tagaini.net"></path><path class="stroke_order_diagram--current_path" d="M17.48,17.55c1.38,0.34,2.77,0.44,4.16,0.3c4.55-0.3,10.94-1.08,15.62-1.47c1.42-0.2,2.83-0.12,4.24,0.25" id="Ske2scccgj" kvg:type="㇐" transform="matrix(1,0,0,1,-4,-4)" xmlns:kvg="http://kanjivg.tagaini.net"></path><circle class="stroke_order_diagram--path_start" cx="17.48" cy="17.55" r="4" transform="matrix(1,0,0,1,-4,-4)"></circle><line class="stroke_order_diagram--guide_line" x1="150" x2="150" y1="1" y2="99"></line><line class="stroke_order_diagram--bounding_box" x1="199" x2="199" y1="1" y2="99"></line><path class="stroke_order_diagram--existing_path" d="M17.48,17.55c1.38,0.34,2.77,0.44,4.16,0.3c4.55-0.3,10.94-1.08,15.62-1.47c1.42-0.2,2.83-0.12,4.24,0.25" id="Ske2scccgm" kvg:type="㇐" transform="matrix(1,0,0,1,96,-4)" xmlns:kvg="http://kanjivg.tagaini.net"></path><path class="stroke_order_diagram--current_path" d="M11.91,35.65c1.99,0.13,3.98,0.09,5.96-0.1c7.02-0.59,16.8-1.76,24.75-2.5c1.98-0.23,3.96-0.28,5.96-0.14" id="kvg:0795a-s2" kvg:type="㇐" transform="matrix(1,0,0,1,96,-4)" xmlns:kvg="http://kanjivg.tagaini.net"></path><path class="stroke_order_diagram--current_path" d="M11.91,35.65c1.99,0.13,3.98,0.09,5.96-0.1c7.02-0.59,16.8-1.76,24.75-2.5c1.98-0.23,3.96-0.28,5.96-0.14" id="Ske2scccgo" kvg:type="㇐" transform="matrix(1,0,0,1,96,-4)" xmlns:kvg="http://kanjivg.tagaini.net"></path><circle class="stroke_order_diagram--path_start" cx="11.91" cy="35.65" r="4" transform="matrix(1,0,0,1,96,-4)"></circle><line class="stroke_order_diagram--guide_line" x1="250" x2="250" y1="1" y2="99"></line><line class="stroke_order_diagram--bounding_box" x1="299" x2="299" y1="1" y2="99"></line><path class="stroke_order_diagram--existing_path" d="M17.48,17.55c1.38,0.34,2.77,0.44,4.16,0.3c4.55-0.3,10.94-1.08,15.62-1.47c1.42-0.2,2.83-0.12,4.24,0.25" id="Ske2scccgr" kvg:type="㇐" transform="matrix(1,0,0,1,196,-4)" xmlns:kvg="http://kanjivg.tagaini.net"></path><path class="stroke_order_diagram--existing_path" d="M11.91,35.65c1.99,0.13,3.98,0.09,5.96-0.1c7.02-0.59,16.8-1.76,24.75-2.5c1.98-0.23,3.96-0.28,5.96-0.14" id="Ske2scccgs" kvg:type="㇐" transform="matrix(1,0,0,1,196,-4)" xmlns:kvg="http://kanjivg.tagaini.net"></path><path class="stroke_order_diagram--current_path" d="M29.59,36.93c0.95,1.79,1.28,3.69,1.01,5.69c0.04,8.29-0.01,32.64-0.08,45.75c-0.02,4.04-0.04,7.01-0.06,8.12" id="kvg:0795a-s3" kvg:type="㇑" transform="matrix(1,0,0,1,196,-4)" xmlns:kvg="http://kanjivg.tagaini.net"></path><path class="stroke_order_diagram--current_path" d="M29.59,36.93c0.95,1.79,1.28,3.69,1.01,5.69c0.04,8.29-0.01,32.64-0.08,45.75c-0.02,4.04-0.04,7.01-0.06,8.12" id="Ske2scccgu" kvg:type="㇑" transform="matrix(1,0,0,1,196,-4)" xmlns:kvg="http://kanjivg.tagaini.net"></path><circle class="stroke_order_diagram--path_start" cx="29.59" cy="36.93" r="4" transform="matrix(1,0,0,1,196,-4)"></circle><line class="stroke_order_diagram--guide_line" x1="350" x2="350" y1="1" y2="99"></line><line class="stroke_order_diagram--bounding_box" x1="399" x2="399" y1="1" y2="99"></line><path class="stroke_order_diagram--existing_path" d="M17.48,17.55c1.38,0.34,2.77,0.44,4.16,0.3c4.55-0.3,10.94-1.08,15.62-1.47c1.42-0.2,2.83-0.12,4.24,0.25" id="Ske2scccgx" kvg:type="㇐" transform="matrix(1,0,0,1,296,-4)" xmlns:kvg="http://kanjivg.tagaini.net"></path><path class="stroke_order_diagram--existing_path" d="M11.91,35.65c1.99,0.13,3.98,0.09,5.96-0.1c7.02-0.59,16.8-1.76,24.75-2.5c1.98-0.23,3.96-0.28,5.96-0.14" id="Ske2scccgy" kvg:type="㇐" transform="matrix(1,0,0,1,296,-4)" xmlns:kvg="http://kanjivg.tagaini.net"></path><path class="stroke_order_diagram--existing_path" d="M29.59,36.93c0.95,1.79,1.28,3.69,1.01,5.69c0.04,8.29-0.01,32.64-0.08,45.75c-0.02,4.04-0.04,7.01-0.06,8.12" id="Ske2scccgz" kvg:type="㇑" transform="matrix(1,0,0,1,296,-4)" xmlns:kvg="http://kanjivg.tagaini.net"></path><path class="stroke_order_diagram--current_path" d="M19.88,48.75c0.4,1.69,0.59,3.4,0.49,5.12c-0.61,10.5-2.36,22.38-8.56,32.59" id="kvg:0795a-s4" kvg:type="㇒" transform="matrix(1,0,0,1,296,-4)" xmlns:kvg="http://kanjivg.tagaini.net"></path><path class="stroke_order_diagram--current_path" d="M19.88,48.75c0.4,1.69,0.59,3.4,0.49,5.12c-0.61,10.5-2.36,22.38-8.56,32.59" id="Ske2scccg11" kvg:type="㇒" transform="matrix(1,0,0,1,296,-4)" xmlns:kvg="http://kanjivg.tagaini.net"></path><circle class="stroke_order_diagram--path_start" cx="19.88" cy="48.75" r="4" transform="matrix(1,0,0,1,296,-4)"></circle><line class="stroke_order_diagram--guide_line" x1="450" x2="450" y1="1" y2="99"></line><line class="stroke_order_diagram--bounding_box" x1="499" x2="499" y1="1" y2="99"></line><path class="stroke_order_diagram--existing_path" d="M17.48,17.55c1.38,0.34,2.77,0.44,4.16,0.3c4.55-0.3,10.94-1.08,15.62-1.47c1.42-0.2,2.83-0.12,4.24,0.25" id="Ske2scccg14" kvg:type="㇐" transform="matrix(1,0,0,1,396,-4)" xmlns:kvg="http://kanjivg.tagaini.net"></path><path class="stroke_order_diagram--existing_path" d="M11.91,35.65c1.99,0.13,3.98,0.09,5.96-0.1c7.02-0.59,16.8-1.76,24.75-2.5c1.98-0.23,3.96-0.28,5.96-0.14" id="Ske2scccg15" kvg:type="㇐" transform="matrix(1,0,0,1,396,-4)" xmlns:kvg="http://kanjivg.tagaini.net"></path><path class="stroke_order_diagram--existing_path" d="M29.59,36.93c0.95,1.79,1.28,3.69,1.01,5.69c0.04,8.29-0.01,32.64-0.08,45.75c-0.02,4.04-0.04,7.01-0.06,8.12" id="Ske2scccg16" kvg:type="㇑" transform="matrix(1,0,0,1,396,-4)" xmlns:kvg="http://kanjivg.tagaini.net"></path><path class="stroke_order_diagram--existing_path" d="M19.88,48.75c0.4,1.69,0.59,3.4,0.49,5.12c-0.61,10.5-2.36,22.38-8.56,32.59" id="Ske2scccg17" kvg:type="㇒" transform="matrix(1,0,0,1,396,-4)" xmlns:kvg="http://kanjivg.tagaini.net"></path><path class="stroke_order_diagram--current_path" d="M41.3,45.75c0.95,1,1.42,3.03,1.42,3.97c0,4.53-0.21,22.16-0.21,31.61" id="kvg:0795a-s5" kvg:type="㇑/㇔" transform="matrix(1,0,0,1,396,-4)" xmlns:kvg="http://kanjivg.tagaini.net"></path><path class="stroke_order_diagram--current_path" d="M41.3,45.75c0.95,1,1.42,3.03,1.42,3.97c0,4.53-0.21,22.16-0.21,31.61" id="Ske2scccg19" kvg:type="㇑/㇔" transform="matrix(1,0,0,1,396,-4)" xmlns:kvg="http://kanjivg.tagaini.net"></path><circle class="stroke_order_diagram--path_start" cx="41.3" cy="45.75" r="4" transform="matrix(1,0,0,1,396,-4)"></circle><line class="stroke_order_diagram--guide_line" x1="550" x2="550" y1="1" y2="99"></line><line class="stroke_order_diagram--bounding_box" x1="599" x2="599" y1="1" y2="99"></line><path class="stroke_order_diagram--existing_path" d="M17.48,17.55c1.38,0.34,2.77,0.44,4.16,0.3c4.55-0.3,10.94-1.08,15.62-1.47c1.42-0.2,2.83-0.12,4.24,0.25" id="Ske2scccg1c" kvg:type="㇐" transform="matrix(1,0,0,1,496,-4)" xmlns:kvg="http://kanjivg.tagaini.net"></path><path class="stroke_order_diagram--existing_path" d="M11.91,35.65c1.99,0.13,3.98,0.09,5.96-0.1c7.02-0.59,16.8-1.76,24.75-2.5c1.98-0.23,3.96-0.28,5.96-0.14" id="Ske2scccg1d" kvg:type="㇐" transform="matrix(1,0,0,1,496,-4)" xmlns:kvg="http://kanjivg.tagaini.net"></path><path class="stroke_order_diagram--existing_path" d="M29.59,36.93c0.95,1.79,1.28,3.69,1.01,5.69c0.04,8.29-0.01,32.64-0.08,45.75c-0.02,4.04-0.04,7.01-0.06,8.12" id="Ske2scccg1e" kvg:type="㇑" transform="matrix(1,0,0,1,496,-4)" xmlns:kvg="http://kanjivg.tagaini.net"></path><path class="stroke_order_diagram--existing_path" d="M19.88,48.75c0.4,1.69,0.59,3.4,0.49,5.12c-0.61,10.5-2.36,22.38-8.56,32.59" id="Ske2scccg1f" kvg:type="㇒" transform="matrix(1,0,0,1,496,-4)" xmlns:kvg="http://kanjivg.tagaini.net"></path><path class="stroke_order_diagram--existing_path" d="M41.3,45.75c0.95,1,1.42,3.03,1.42,3.97c0,4.53-0.21,22.16-0.21,31.61" id="Ske2scccg1g" kvg:type="㇑/㇔" transform="matrix(1,0,0,1,496,-4)" xmlns:kvg="http://kanjivg.tagaini.net"></path><path class="stroke_order_diagram--current_path" d="M67.52,12.5c0.25,1.54,0.07,3.01-0.54,4.4c-2.51,7.15-8.3,18.89-17.24,28.35" id="kvg:0795a-s6" kvg:type="㇒" transform="matrix(1,0,0,1,496,-4)" xmlns:kvg="http://kanjivg.tagaini.net"></path><path class="stroke_order_diagram--current_path" d="M67.52,12.5c0.25,1.54,0.07,3.01-0.54,4.4c-2.51,7.15-8.3,18.89-17.24,28.35" id="Ske2scccg1i" kvg:type="㇒" transform="matrix(1,0,0,1,496,-4)" xmlns:kvg="http://kanjivg.tagaini.net"></path><circle class="stroke_order_diagram--path_start" cx="67.52" cy="12.5" r="4" transform="matrix(1,0,0,1,496,-4)"></circle><line class="stroke_order_diagram--guide_line" x1="650" x2="650" y1="1" y2="99"></line><line class="stroke_order_diagram--bounding_box" x1="699" x2="699" y1="1" y2="99"></line><path class="stroke_order_diagram--existing_path" d="M17.48,17.55c1.38,0.34,2.77,0.44,4.16,0.3c4.55-0.3,10.94-1.08,15.62-1.47c1.42-0.2,2.83-0.12,4.24,0.25" id="Ske2scccg1l" kvg:type="㇐" transform="matrix(1,0,0,1,596,-4)" xmlns:kvg="http://kanjivg.tagaini.net"></path><path class="stroke_order_diagram--existing_path" d="M11.91,35.65c1.99,0.13,3.98,0.09,5.96-0.1c7.02-0.59,16.8-1.76,24.75-2.5c1.98-0.23,3.96-0.28,5.96-0.14" id="Ske2scccg1m" kvg:type="㇐" transform="matrix(1,0,0,1,596,-4)" xmlns:kvg="http://kanjivg.tagaini.net"></path><path class="stroke_order_diagram--existing_path" d="M29.59,36.93c0.95,1.79,1.28,3.69,1.01,5.69c0.04,8.29-0.01,32.64-0.08,45.75c-0.02,4.04-0.04,7.01-0.06,8.12" id="Ske2scccg1n" kvg:type="㇑" transform="matrix(1,0,0,1,596,-4)" xmlns:kvg="http://kanjivg.tagaini.net"></path><path class="stroke_order_diagram--existing_path" d="M19.88,48.75c0.4,1.69,0.59,3.4,0.49,5.12c-0.61,10.5-2.36,22.38-8.56,32.59" id="Ske2scccg1o" kvg:type="㇒" transform="matrix(1,0,0,1,596,-4)" xmlns:kvg="http://kanjivg.tagaini.net"></path><path class="stroke_order_diagram--existing_path" d="M41.3,45.75c0.95,1,1.42,3.03,1.42,3.97c0,4.53-0.21,22.16-0.21,31.61" id="Ske2scccg1p" kvg:type="㇑/㇔" transform="matrix(1,0,0,1,596,-4)" xmlns:kvg="http://kanjivg.tagaini.net"></path><path class="stroke_order_diagram--existing_path" d="M67.52,12.5c0.25,1.54,0.07,3.01-0.54,4.4c-2.51,7.15-8.3,18.89-17.24,28.35" id="Ske2scccg1q" kvg:type="㇒" transform="matrix(1,0,0,1,596,-4)" xmlns:kvg="http://kanjivg.tagaini.net"></path><path class="stroke_order_diagram--current_path" d="M63.36,31.8c1.8,0.27,3.6,0.32,5.4,0.15c10.67-0.65,16.55-2.86,24.61-3.54c1.87-0.2,3.75-0.14,5.62,0.18" id="kvg:0795a-s7" kvg:type="㇐" transform="matrix(1,0,0,1,596,-4)" xmlns:kvg="http://kanjivg.tagaini.net"></path><path class="stroke_order_diagram--current_path" d="M63.36,31.8c1.8,0.27,3.6,0.32,5.4,0.15c10.67-0.65,16.55-2.86,24.61-3.54c1.87-0.2,3.75-0.14,5.62,0.18" id="Ske2scccg1s" kvg:type="㇐" transform="matrix(1,0,0,1,596,-4)" xmlns:kvg="http://kanjivg.tagaini.net"></path><circle class="stroke_order_diagram--path_start" cx="63.36" cy="31.8" r="4" transform="matrix(1,0,0,1,596,-4)"></circle><line class="stroke_order_diagram--guide_line" x1="750" x2="750" y1="1" y2="99"></line><line class="stroke_order_diagram--bounding_box" x1="799" x2="799" y1="1" y2="99"></line><path class="stroke_order_diagram--existing_path" d="M17.48,17.55c1.38,0.34,2.77,0.44,4.16,0.3c4.55-0.3,10.94-1.08,15.62-1.47c1.42-0.2,2.83-0.12,4.24,0.25" id="Ske2scccg1v" kvg:type="㇐" transform="matrix(1,0,0,1,696,-4)" xmlns:kvg="http://kanjivg.tagaini.net"></path><path class="stroke_order_diagram--existing_path" d="M11.91,35.65c1.99,0.13,3.98,0.09,5.96-0.1c7.02-0.59,16.8-1.76,24.75-2.5c1.98-0.23,3.96-0.28,5.96-0.14" id="Ske2scccg1w" kvg:type="㇐" transform="matrix(1,0,0,1,696,-4)" xmlns:kvg="http://kanjivg.tagaini.net"></path><path class="stroke_order_diagram--existing_path" d="M29.59,36.93c0.95,1.79,1.28,3.69,1.01,5.69c0.04,8.29-0.01,32.64-0.08,45.75c-0.02,4.04-0.04,7.01-0.06,8.12" id="Ske2scccg1x" kvg:type="㇑" transform="matrix(1,0,0,1,696,-4)" xmlns:kvg="http://kanjivg.tagaini.net"></path><path class="stroke_order_diagram--existing_path" d="M19.88,48.75c0.4,1.69,0.59,3.4,0.49,5.12c-0.61,10.5-2.36,22.38-8.56,32.59" id="Ske2scccg1y" kvg:type="㇒" transform="matrix(1,0,0,1,696,-4)" xmlns:kvg="http://kanjivg.tagaini.net"></path><path class="stroke_order_diagram--existing_path" d="M41.3,45.75c0.95,1,1.42,3.03,1.42,3.97c0,4.53-0.21,22.16-0.21,31.61" id="Ske2scccg1z" kvg:type="㇑/㇔" transform="matrix(1,0,0,1,696,-4)" xmlns:kvg="http://kanjivg.tagaini.net"></path><path class="stroke_order_diagram--existing_path" d="M67.52,12.5c0.25,1.54,0.07,3.01-0.54,4.4c-2.51,7.15-8.3,18.89-17.24,28.35" id="Ske2scccg20" kvg:type="㇒" transform="matrix(1,0,0,1,696,-4)" xmlns:kvg="http://kanjivg.tagaini.net"></path><path class="stroke_order_diagram--existing_path" d="M63.36,31.8c1.8,0.27,3.6,0.32,5.4,0.15c10.67-0.65,16.55-2.86,24.61-3.54c1.87-0.2,3.75-0.14,5.62,0.18" id="Ske2scccg21" kvg:type="㇐" transform="matrix(1,0,0,1,696,-4)" xmlns:kvg="http://kanjivg.tagaini.net"></path><path class="stroke_order_diagram--current_path" d="M66.89,33.71c1.19,1.23,1.57,2.79,1.57,4.17c0,10.16-0.06,37.44-0.08,52.63c0,3.52-0.01,6.4-0.01,8.25" id="kvg:0795a-s8" kvg:type="㇑" transform="matrix(1,0,0,1,696,-4)" xmlns:kvg="http://kanjivg.tagaini.net"></path><path class="stroke_order_diagram--current_path" d="M66.89,33.71c1.19,1.23,1.57,2.79,1.57,4.17c0,10.16-0.06,37.44-0.08,52.63c0,3.52-0.01,6.4-0.01,8.25" id="Ske2scccg23" kvg:type="㇑" transform="matrix(1,0,0,1,696,-4)" xmlns:kvg="http://kanjivg.tagaini.net"></path><circle class="stroke_order_diagram--path_start" cx="66.89" cy="33.71" r="4" transform="matrix(1,0,0,1,696,-4)"></circle><line class="stroke_order_diagram--guide_line" x1="850" x2="850" y1="1" y2="99"></line><line class="stroke_order_diagram--bounding_box" x1="899" x2="899" y1="1" y2="99"></line><path class="stroke_order_diagram--existing_path" d="M17.48,17.55c1.38,0.34,2.77,0.44,4.16,0.3c4.55-0.3,10.94-1.08,15.62-1.47c1.42-0.2,2.83-0.12,4.24,0.25" id="Ske2scccg26" kvg:type="㇐" transform="matrix(1,0,0,1,796,-4)" xmlns:kvg="http://kanjivg.tagaini.net"></path><path class="stroke_order_diagram--existing_path" d="M11.91,35.65c1.99,0.13,3.98,0.09,5.96-0.1c7.02-0.59,16.8-1.76,24.75-2.5c1.98-0.23,3.96-0.28,5.96-0.14" id="Ske2scccg27" kvg:type="㇐" transform="matrix(1,0,0,1,796,-4)" xmlns:kvg="http://kanjivg.tagaini.net"></path><path class="stroke_order_diagram--existing_path" d="M29.59,36.93c0.95,1.79,1.28,3.69,1.01,5.69c0.04,8.29-0.01,32.64-0.08,45.75c-0.02,4.04-0.04,7.01-0.06,8.12" id="Ske2scccg28" kvg:type="㇑" transform="matrix(1,0,0,1,796,-4)" xmlns:kvg="http://kanjivg.tagaini.net"></path><path class="stroke_order_diagram--existing_path" d="M19.88,48.75c0.4,1.69,0.59,3.4,0.49,5.12c-0.61,10.5-2.36,22.38-8.56,32.59" id="Ske2scccg29" kvg:type="㇒" transform="matrix(1,0,0,1,796,-4)" xmlns:kvg="http://kanjivg.tagaini.net"></path><path class="stroke_order_diagram--existing_path" d="M41.3,45.75c0.95,1,1.42,3.03,1.42,3.97c0,4.53-0.21,22.16-0.21,31.61" id="Ske2scccg2a" kvg:type="㇑/㇔" transform="matrix(1,0,0,1,796,-4)" xmlns:kvg="http://kanjivg.tagaini.net"></path><path class="stroke_order_diagram--existing_path" d="M67.52,12.5c0.25,1.54,0.07,3.01-0.54,4.4c-2.51,7.15-8.3,18.89-17.24,28.35" id="Ske2scccg2b" kvg:type="㇒" transform="matrix(1,0,0,1,796,-4)" xmlns:kvg="http://kanjivg.tagaini.net"></path><path class="stroke_order_diagram--existing_path" d="M63.36,31.8c1.8,0.27,3.6,0.32,5.4,0.15c10.67-0.65,16.55-2.86,24.61-3.54c1.87-0.2,3.75-0.14,5.62,0.18" id="Ske2scccg2c" kvg:type="㇐" transform="matrix(1,0,0,1,796,-4)" xmlns:kvg="http://kanjivg.tagaini.net"></path><path class="stroke_order_diagram--existing_path" d="M66.89,33.71c1.19,1.23,1.57,2.79,1.57,4.17c0,10.16-0.06,37.44-0.08,52.63c0,3.52-0.01,6.4-0.01,8.25" id="Ske2scccg2d" kvg:type="㇑" transform="matrix(1,0,0,1,796,-4)" xmlns:kvg="http://kanjivg.tagaini.net"></path><path class="stroke_order_diagram--current_path" d="M71.32,51.19c6.93-0.69,11.25-1.13,17.29-1.72c1.63-0.16,3.23-0.3,4.86,0.01" id="kvg:0795a-s9" kvg:type="㇐b" transform="matrix(1,0,0,1,796,-4)" xmlns:kvg="http://kanjivg.tagaini.net"></path><path class="stroke_order_diagram--current_path" d="M71.32,51.19c6.93-0.69,11.25-1.13,17.29-1.72c1.63-0.16,3.23-0.3,4.86,0.01" id="Ske2scccg2f" kvg:type="㇐b" transform="matrix(1,0,0,1,796,-4)" xmlns:kvg="http://kanjivg.tagaini.net"></path><circle class="stroke_order_diagram--path_start" cx="71.32" cy="51.19" r="4" transform="matrix(1,0,0,1,796,-4)"></circle><line class="stroke_order_diagram--guide_line" x1="950" x2="950" y1="1" y2="99"></line><line class="stroke_order_diagram--bounding_box" x1="999" x2="999" y1="1" y2="99"></line><path class="stroke_order_diagram--existing_path" d="M17.48,17.55c1.38,0.34,2.77,0.44,4.16,0.3c4.55-0.3,10.94-1.08,15.62-1.47c1.42-0.2,2.83-0.12,4.24,0.25" id="Ske2scccg2i" kvg:type="㇐" transform="matrix(1,0,0,1,896,-4)" xmlns:kvg="http://kanjivg.tagaini.net"></path><path class="stroke_order_diagram--existing_path" d="M11.91,35.65c1.99,0.13,3.98,0.09,5.96-0.1c7.02-0.59,16.8-1.76,24.75-2.5c1.98-0.23,3.96-0.28,5.96-0.14" id="Ske2scccg2j" kvg:type="㇐" transform="matrix(1,0,0,1,896,-4)" xmlns:kvg="http://kanjivg.tagaini.net"></path><path class="stroke_order_diagram--existing_path" d="M29.59,36.93c0.95,1.79,1.28,3.69,1.01,5.69c0.04,8.29-0.01,32.64-0.08,45.75c-0.02,4.04-0.04,7.01-0.06,8.12" id="Ske2scccg2k" kvg:type="㇑" transform="matrix(1,0,0,1,896,-4)" xmlns:kvg="http://kanjivg.tagaini.net"></path><path class="stroke_order_diagram--existing_path" d="M19.88,48.75c0.4,1.69,0.59,3.4,0.49,5.12c-0.61,10.5-2.36,22.38-8.56,32.59" id="Ske2scccg2l" kvg:type="㇒" transform="matrix(1,0,0,1,896,-4)" xmlns:kvg="http://kanjivg.tagaini.net"></path><path class="stroke_order_diagram--existing_path" d="M41.3,45.75c0.95,1,1.42,3.03,1.42,3.97c0,4.53-0.21,22.16-0.21,31.61" id="Ske2scccg2m" kvg:type="㇑/㇔" transform="matrix(1,0,0,1,896,-4)" xmlns:kvg="http://kanjivg.tagaini.net"></path><path class="stroke_order_diagram--existing_path" d="M67.52,12.5c0.25,1.54,0.07,3.01-0.54,4.4c-2.51,7.15-8.3,18.89-17.24,28.35" id="Ske2scccg2n" kvg:type="㇒" transform="matrix(1,0,0,1,896,-4)" xmlns:kvg="http://kanjivg.tagaini.net"></path><path class="stroke_order_diagram--existing_path" d="M63.36,31.8c1.8,0.27,3.6,0.32,5.4,0.15c10.67-0.65,16.55-2.86,24.61-3.54c1.87-0.2,3.75-0.14,5.62,0.18" id="Ske2scccg2o" kvg:type="㇐" transform="matrix(1,0,0,1,896,-4)" xmlns:kvg="http://kanjivg.tagaini.net"></path><path class="stroke_order_diagram--existing_path" d="M66.89,33.71c1.19,1.23,1.57,2.79,1.57,4.17c0,10.16-0.06,37.44-0.08,52.63c0,3.52-0.01,6.4-0.01,8.25" id="Ske2scccg2p" kvg:type="㇑" transform="matrix(1,0,0,1,896,-4)" xmlns:kvg="http://kanjivg.tagaini.net"></path><path class="stroke_order_diagram--existing_path" d="M71.32,51.19c6.93-0.69,11.25-1.13,17.29-1.72c1.63-0.16,3.23-0.3,4.86,0.01" id="Ske2scccg2q" kvg:type="㇐b" transform="matrix(1,0,0,1,896,-4)" xmlns:kvg="http://kanjivg.tagaini.net"></path><path class="stroke_order_diagram--current_path" d="M70.98,68.63c4.08-0.46,12.42-1.48,21.64-2.46c1.61-0.24,3.23-0.22,4.86,0.05" id="kvg:0795a-s10" kvg:type="㇐b" transform="matrix(1,0,0,1,896,-4)" xmlns:kvg="http://kanjivg.tagaini.net"></path><path class="stroke_order_diagram--current_path" d="M70.98,68.63c4.08-0.46,12.42-1.48,21.64-2.46c1.61-0.24,3.23-0.22,4.86,0.05" id="Ske2scccg2s" kvg:type="㇐b" transform="matrix(1,0,0,1,896,-4)" xmlns:kvg="http://kanjivg.tagaini.net"></path><circle class="stroke_order_diagram--path_start" cx="70.98" cy="68.63" r="4" transform="matrix(1,0,0,1,896,-4)"></circle></svg>