<svg class="stroke_order_diagram--svg_container_for_51866287d5dda796580005a3" style="height: 100px; width: 1000px;" viewbox="0 0 1000 100"><desc>Created with Snap</desc><defs></defs><line class="stroke_order_diagram--bounding_box" x1="1" x2="999" y1="1" y2="1"></line><line class="stroke_order_diagram--bounding_box" x1="1" x2="1" y1="1" y2="99"></line><line class="stroke_order_diagram--bounding_box" x1="1" x2="999" y1="99" y2="99"></line><line class="stroke_order_diagram--guide_line" x1="0" x2="1000" y1="50" y2="50"></line><line class="stroke_order_diagram--guide_line" x1="50" x2="50" y1="1" y2="99"></line><line class="stroke_order_diagram--bounding_box" x1="99" x2="99" y1="1" y2="99"></line><path class="stroke_order_diagram--current_path" d="M29.23,22.37c2.32,0.74,5.18,0.47,7.54,0.21c10.73-1.2,24.29-1.91,35.86-2.48c2.38-0.12,4.7-0.25,7.05,0.2" id="kvg:079e6-s1" kvg:type="㇐" transform="matrix(1,0,0,1,-4,-4)" xmlns:kvg="http://kanjivg.tagaini.net"></path><path class="stroke_order_diagram--current_path" d="M29.23,22.37c2.32,0.74,5.18,0.47,7.54,0.21c10.73-1.2,24.29-1.91,35.86-2.48c2.38-0.12,4.7-0.25,7.05,0.2" id="Ske1yyfmej" kvg:type="㇐" transform="matrix(1,0,0,1,-4,-4)" xmlns:kvg="http://kanjivg.tagaini.net"></path><circle class="stroke_order_diagram--path_start" cx="29.23" cy="22.37" r="4" transform="matrix(1,0,0,1,-4,-4)"></circle><line class="stroke_order_diagram--guide_line" x1="150" x2="150" y1="1" y2="99"></line><line class="stroke_order_diagram--bounding_box" x1="199" x2="199" y1="1" y2="99"></line><path class="stroke_order_diagram--existing_path" d="M29.23,22.37c2.32,0.74,5.18,0.47,7.54,0.21c10.73-1.2,24.29-1.91,35.86-2.48c2.38-0.12,4.7-0.25,7.05,0.2" id="Ske1yyfmem" kvg:type="㇐" transform="matrix(1,0,0,1,96,-4)" xmlns:kvg="http://kanjivg.tagaini.net"></path><path class="stroke_order_diagram--current_path" d="M30.2,34.49c3.18,0.76,6.21,0.39,8.94,0.21c9.4-0.64,19.79-1.81,30.12-2.53c2.54-0.18,4.95-0.4,7.44,0.24" id="kvg:079e6-s2" kvg:type="㇐" transform="matrix(1,0,0,1,96,-4)" xmlns:kvg="http://kanjivg.tagaini.net"></path><path class="stroke_order_diagram--current_path" d="M30.2,34.49c3.18,0.76,6.21,0.39,8.94,0.21c9.4-0.64,19.79-1.81,30.12-2.53c2.54-0.18,4.95-0.4,7.44,0.24" id="Ske1yyfmeo" kvg:type="㇐" transform="matrix(1,0,0,1,96,-4)" xmlns:kvg="http://kanjivg.tagaini.net"></path><circle class="stroke_order_diagram--path_start" cx="30.2" cy="34.49" r="4" transform="matrix(1,0,0,1,96,-4)"></circle><line class="stroke_order_diagram--guide_line" x1="250" x2="250" y1="1" y2="99"></line><line class="stroke_order_diagram--bounding_box" x1="299" x2="299" y1="1" y2="99"></line><path class="stroke_order_diagram--existing_path" d="M29.23,22.37c2.32,0.74,5.18,0.47,7.54,0.21c10.73-1.2,24.29-1.91,35.86-2.48c2.38-0.12,4.7-0.25,7.05,0.2" id="Ske1yyfmer" kvg:type="㇐" transform="matrix(1,0,0,1,196,-4)" xmlns:kvg="http://kanjivg.tagaini.net"></path><path class="stroke_order_diagram--existing_path" d="M30.2,34.49c3.18,0.76,6.21,0.39,8.94,0.21c9.4-0.64,19.79-1.81,30.12-2.53c2.54-0.18,4.95-0.4,7.44,0.24" id="Ske1yyfmes" kvg:type="㇐" transform="matrix(1,0,0,1,196,-4)" xmlns:kvg="http://kanjivg.tagaini.net"></path><path class="stroke_order_diagram--current_path" d="M14.53,48.46c3.27,1.2,7.26,0.58,10.62,0.33c16.07-1.2,39.35-3.53,58.61-3.95c3.62-0.08,7.28-0.23,10.84,0.55" id="kvg:079e6-s3" kvg:type="㇐" transform="matrix(1,0,0,1,196,-4)" xmlns:kvg="http://kanjivg.tagaini.net"></path><path class="stroke_order_diagram--current_path" d="M14.53,48.46c3.27,1.2,7.26,0.58,10.62,0.33c16.07-1.2,39.35-3.53,58.61-3.95c3.62-0.08,7.28-0.23,10.84,0.55" id="Ske1yyfmeu" kvg:type="㇐" transform="matrix(1,0,0,1,196,-4)" xmlns:kvg="http://kanjivg.tagaini.net"></path><circle class="stroke_order_diagram--path_start" cx="14.53" cy="48.46" r="4" transform="matrix(1,0,0,1,196,-4)"></circle><line class="stroke_order_diagram--guide_line" x1="350" x2="350" y1="1" y2="99"></line><line class="stroke_order_diagram--bounding_box" x1="399" x2="399" y1="1" y2="99"></line><path class="stroke_order_diagram--existing_path" d="M29.23,22.37c2.32,0.74,5.18,0.47,7.54,0.21c10.73-1.2,24.29-1.91,35.86-2.48c2.38-0.12,4.7-0.25,7.05,0.2" id="Ske1yyfmex" kvg:type="㇐" transform="matrix(1,0,0,1,296,-4)" xmlns:kvg="http://kanjivg.tagaini.net"></path><path class="stroke_order_diagram--existing_path" d="M30.2,34.49c3.18,0.76,6.21,0.39,8.94,0.21c9.4-0.64,19.79-1.81,30.12-2.53c2.54-0.18,4.95-0.4,7.44,0.24" id="Ske1yyfmey" kvg:type="㇐" transform="matrix(1,0,0,1,296,-4)" xmlns:kvg="http://kanjivg.tagaini.net"></path><path class="stroke_order_diagram--existing_path" d="M14.53,48.46c3.27,1.2,7.26,0.58,10.62,0.33c16.07-1.2,39.35-3.53,58.61-3.95c3.62-0.08,7.28-0.23,10.84,0.55" id="Ske1yyfmez" kvg:type="㇐" transform="matrix(1,0,0,1,296,-4)" xmlns:kvg="http://kanjivg.tagaini.net"></path><path class="stroke_order_diagram--current_path" d="M54.91,10c0.49,1.4,0.5,2.64,0.02,4.84C50.62,34.62,38,59.25,14.26,75.39" id="kvg:079e6-s4" kvg:type="㇒" transform="matrix(1,0,0,1,296,-4)" xmlns:kvg="http://kanjivg.tagaini.net"></path><path class="stroke_order_diagram--current_path" d="M54.91,10c0.49,1.4,0.5,2.64,0.02,4.84C50.62,34.62,38,59.25,14.26,75.39" id="Ske1yyfme11" kvg:type="㇒" transform="matrix(1,0,0,1,296,-4)" xmlns:kvg="http://kanjivg.tagaini.net"></path><circle class="stroke_order_diagram--path_start" cx="54.91" cy="10" r="4" transform="matrix(1,0,0,1,296,-4)"></circle><line class="stroke_order_diagram--guide_line" x1="450" x2="450" y1="1" y2="99"></line><line class="stroke_order_diagram--bounding_box" x1="499" x2="499" y1="1" y2="99"></line><path class="stroke_order_diagram--existing_path" d="M29.23,22.37c2.32,0.74,5.18,0.47,7.54,0.21c10.73-1.2,24.29-1.91,35.86-2.48c2.38-0.12,4.7-0.25,7.05,0.2" id="Ske1yyfme14" kvg:type="㇐" transform="matrix(1,0,0,1,396,-4)" xmlns:kvg="http://kanjivg.tagaini.net"></path><path class="stroke_order_diagram--existing_path" d="M30.2,34.49c3.18,0.76,6.21,0.39,8.94,0.21c9.4-0.64,19.79-1.81,30.12-2.53c2.54-0.18,4.95-0.4,7.44,0.24" id="Ske1yyfme15" kvg:type="㇐" transform="matrix(1,0,0,1,396,-4)" xmlns:kvg="http://kanjivg.tagaini.net"></path><path class="stroke_order_diagram--existing_path" d="M14.53,48.46c3.27,1.2,7.26,0.58,10.62,0.33c16.07-1.2,39.35-3.53,58.61-3.95c3.62-0.08,7.28-0.23,10.84,0.55" id="Ske1yyfme16" kvg:type="㇐" transform="matrix(1,0,0,1,396,-4)" xmlns:kvg="http://kanjivg.tagaini.net"></path><path class="stroke_order_diagram--existing_path" d="M54.91,10c0.49,1.4,0.5,2.64,0.02,4.84C50.62,34.62,38,59.25,14.26,75.39" id="Ske1yyfme17" kvg:type="㇒" transform="matrix(1,0,0,1,396,-4)" xmlns:kvg="http://kanjivg.tagaini.net"></path><path class="stroke_order_diagram--current_path" d="M58.23,39.16c4.53,5.04,19.51,18.83,27.6,26.03c2.18,1.94,4.8,3.81,9.16,5.86" id="kvg:079e6-s5" kvg:type="㇏" transform="matrix(1,0,0,1,396,-4)" xmlns:kvg="http://kanjivg.tagaini.net"></path><path class="stroke_order_diagram--current_path" d="M58.23,39.16c4.53,5.04,19.51,18.83,27.6,26.03c2.18,1.94,4.8,3.81,9.16,5.86" id="Ske1yyfme19" kvg:type="㇏" transform="matrix(1,0,0,1,396,-4)" xmlns:kvg="http://kanjivg.tagaini.net"></path><circle class="stroke_order_diagram--path_start" cx="58.23" cy="39.16" r="4" transform="matrix(1,0,0,1,396,-4)"></circle><line class="stroke_order_diagram--guide_line" x1="550" x2="550" y1="1" y2="99"></line><line class="stroke_order_diagram--bounding_box" x1="599" x2="599" y1="1" y2="99"></line><path class="stroke_order_diagram--existing_path" d="M29.23,22.37c2.32,0.74,5.18,0.47,7.54,0.21c10.73-1.2,24.29-1.91,35.86-2.48c2.38-0.12,4.7-0.25,7.05,0.2" id="Ske1yyfme1c" kvg:type="㇐" transform="matrix(1,0,0,1,496,-4)" xmlns:kvg="http://kanjivg.tagaini.net"></path><path class="stroke_order_diagram--existing_path" d="M30.2,34.49c3.18,0.76,6.21,0.39,8.94,0.21c9.4-0.64,19.79-1.81,30.12-2.53c2.54-0.18,4.95-0.4,7.44,0.24" id="Ske1yyfme1d" kvg:type="㇐" transform="matrix(1,0,0,1,496,-4)" xmlns:kvg="http://kanjivg.tagaini.net"></path><path class="stroke_order_diagram--existing_path" d="M14.53,48.46c3.27,1.2,7.26,0.58,10.62,0.33c16.07-1.2,39.35-3.53,58.61-3.95c3.62-0.08,7.28-0.23,10.84,0.55" id="Ske1yyfme1e" kvg:type="㇐" transform="matrix(1,0,0,1,496,-4)" xmlns:kvg="http://kanjivg.tagaini.net"></path><path class="stroke_order_diagram--existing_path" d="M54.91,10c0.49,1.4,0.5,2.64,0.02,4.84C50.62,34.62,38,59.25,14.26,75.39" id="Ske1yyfme1f" kvg:type="㇒" transform="matrix(1,0,0,1,496,-4)" xmlns:kvg="http://kanjivg.tagaini.net"></path><path class="stroke_order_diagram--existing_path" d="M58.23,39.16c4.53,5.04,19.51,18.83,27.6,26.03c2.18,1.94,4.8,3.81,9.16,5.86" id="Ske1yyfme1g" kvg:type="㇏" transform="matrix(1,0,0,1,496,-4)" xmlns:kvg="http://kanjivg.tagaini.net"></path><path class="stroke_order_diagram--current_path" d="M62.89,52.92c-0.39,1.21-1.5,2.1-2.39,2.58c-5.12,2.75-12.44,5.89-24.27,8.49" id="kvg:079e6-s6" kvg:type="㇒" transform="matrix(1,0,0,1,496,-4)" xmlns:kvg="http://kanjivg.tagaini.net"></path><path class="stroke_order_diagram--current_path" d="M62.89,52.92c-0.39,1.21-1.5,2.1-2.39,2.58c-5.12,2.75-12.44,5.89-24.27,8.49" id="Ske1yyfme1i" kvg:type="㇒" transform="matrix(1,0,0,1,496,-4)" xmlns:kvg="http://kanjivg.tagaini.net"></path><circle class="stroke_order_diagram--path_start" cx="62.89" cy="52.92" r="4" transform="matrix(1,0,0,1,496,-4)"></circle><line class="stroke_order_diagram--guide_line" x1="650" x2="650" y1="1" y2="99"></line><line class="stroke_order_diagram--bounding_box" x1="699" x2="699" y1="1" y2="99"></line><path class="stroke_order_diagram--existing_path" d="M29.23,22.37c2.32,0.74,5.18,0.47,7.54,0.21c10.73-1.2,24.29-1.91,35.86-2.48c2.38-0.12,4.7-0.25,7.05,0.2" id="Ske1yyfme1l" kvg:type="㇐" transform="matrix(1,0,0,1,596,-4)" xmlns:kvg="http://kanjivg.tagaini.net"></path><path class="stroke_order_diagram--existing_path" d="M30.2,34.49c3.18,0.76,6.21,0.39,8.94,0.21c9.4-0.64,19.79-1.81,30.12-2.53c2.54-0.18,4.95-0.4,7.44,0.24" id="Ske1yyfme1m" kvg:type="㇐" transform="matrix(1,0,0,1,596,-4)" xmlns:kvg="http://kanjivg.tagaini.net"></path><path class="stroke_order_diagram--existing_path" d="M14.53,48.46c3.27,1.2,7.26,0.58,10.62,0.33c16.07-1.2,39.35-3.53,58.61-3.95c3.62-0.08,7.28-0.23,10.84,0.55" id="Ske1yyfme1n" kvg:type="㇐" transform="matrix(1,0,0,1,596,-4)" xmlns:kvg="http://kanjivg.tagaini.net"></path><path class="stroke_order_diagram--existing_path" d="M54.91,10c0.49,1.4,0.5,2.64,0.02,4.84C50.62,34.62,38,59.25,14.26,75.39" id="Ske1yyfme1o" kvg:type="㇒" transform="matrix(1,0,0,1,596,-4)" xmlns:kvg="http://kanjivg.tagaini.net"></path><path class="stroke_order_diagram--existing_path" d="M58.23,39.16c4.53,5.04,19.51,18.83,27.6,26.03c2.18,1.94,4.8,3.81,9.16,5.86" id="Ske1yyfme1p" kvg:type="㇏" transform="matrix(1,0,0,1,596,-4)" xmlns:kvg="http://kanjivg.tagaini.net"></path><path class="stroke_order_diagram--existing_path" d="M62.89,52.92c-0.39,1.21-1.5,2.1-2.39,2.58c-5.12,2.75-12.44,5.89-24.27,8.49" id="Ske1yyfme1q" kvg:type="㇒" transform="matrix(1,0,0,1,596,-4)" xmlns:kvg="http://kanjivg.tagaini.net"></path><path class="stroke_order_diagram--current_path" d="M29.15,71.61c2.38,0.71,4.82,0.46,7.26,0.26c7.73-0.62,22.57-1.89,32.73-2.43c2.5-0.13,4.93-0.23,7.4,0.22" id="kvg:079e6-s7" kvg:type="㇐" transform="matrix(1,0,0,1,596,-4)" xmlns:kvg="http://kanjivg.tagaini.net"></path><path class="stroke_order_diagram--current_path" d="M29.15,71.61c2.38,0.71,4.82,0.46,7.26,0.26c7.73-0.62,22.57-1.89,32.73-2.43c2.5-0.13,4.93-0.23,7.4,0.22" id="Ske1yyfme1s" kvg:type="㇐" transform="matrix(1,0,0,1,596,-4)" xmlns:kvg="http://kanjivg.tagaini.net"></path><circle class="stroke_order_diagram--path_start" cx="29.15" cy="71.61" r="4" transform="matrix(1,0,0,1,596,-4)"></circle><line class="stroke_order_diagram--guide_line" x1="750" x2="750" y1="1" y2="99"></line><line class="stroke_order_diagram--bounding_box" x1="799" x2="799" y1="1" y2="99"></line><path class="stroke_order_diagram--existing_path" d="M29.23,22.37c2.32,0.74,5.18,0.47,7.54,0.21c10.73-1.2,24.29-1.91,35.86-2.48c2.38-0.12,4.7-0.25,7.05,0.2" id="Ske1yyfme1v" kvg:type="㇐" transform="matrix(1,0,0,1,696,-4)" xmlns:kvg="http://kanjivg.tagaini.net"></path><path class="stroke_order_diagram--existing_path" d="M30.2,34.49c3.18,0.76,6.21,0.39,8.94,0.21c9.4-0.64,19.79-1.81,30.12-2.53c2.54-0.18,4.95-0.4,7.44,0.24" id="Ske1yyfme1w" kvg:type="㇐" transform="matrix(1,0,0,1,696,-4)" xmlns:kvg="http://kanjivg.tagaini.net"></path><path class="stroke_order_diagram--existing_path" d="M14.53,48.46c3.27,1.2,7.26,0.58,10.62,0.33c16.07-1.2,39.35-3.53,58.61-3.95c3.62-0.08,7.28-0.23,10.84,0.55" id="Ske1yyfme1x" kvg:type="㇐" transform="matrix(1,0,0,1,696,-4)" xmlns:kvg="http://kanjivg.tagaini.net"></path><path class="stroke_order_diagram--existing_path" d="M54.91,10c0.49,1.4,0.5,2.64,0.02,4.84C50.62,34.62,38,59.25,14.26,75.39" id="Ske1yyfme1y" kvg:type="㇒" transform="matrix(1,0,0,1,696,-4)" xmlns:kvg="http://kanjivg.tagaini.net"></path><path class="stroke_order_diagram--existing_path" d="M58.23,39.16c4.53,5.04,19.51,18.83,27.6,26.03c2.18,1.94,4.8,3.81,9.16,5.86" id="Ske1yyfme1z" kvg:type="㇏" transform="matrix(1,0,0,1,696,-4)" xmlns:kvg="http://kanjivg.tagaini.net"></path><path class="stroke_order_diagram--existing_path" d="M62.89,52.92c-0.39,1.21-1.5,2.1-2.39,2.58c-5.12,2.75-12.44,5.89-24.27,8.49" id="Ske1yyfme20" kvg:type="㇒" transform="matrix(1,0,0,1,696,-4)" xmlns:kvg="http://kanjivg.tagaini.net"></path><path class="stroke_order_diagram--existing_path" d="M29.15,71.61c2.38,0.71,4.82,0.46,7.26,0.26c7.73-0.62,22.57-1.89,32.73-2.43c2.5-0.13,4.93-0.23,7.4,0.22" id="Ske1yyfme21" kvg:type="㇐" transform="matrix(1,0,0,1,696,-4)" xmlns:kvg="http://kanjivg.tagaini.net"></path><path class="stroke_order_diagram--current_path" d="M52.56,62c0.84,0.84,0.84,2,0.84,3.04c0,0.39-0.02,19.36-0.02,29.33c0,2.62,0,4.62,0,5.5" id="kvg:079e6-s8" kvg:type="㇑" transform="matrix(1,0,0,1,696,-4)" xmlns:kvg="http://kanjivg.tagaini.net"></path><path class="stroke_order_diagram--current_path" d="M52.56,62c0.84,0.84,0.84,2,0.84,3.04c0,0.39-0.02,19.36-0.02,29.33c0,2.62,0,4.62,0,5.5" id="Ske1yyfme23" kvg:type="㇑" transform="matrix(1,0,0,1,696,-4)" xmlns:kvg="http://kanjivg.tagaini.net"></path><circle class="stroke_order_diagram--path_start" cx="52.56" cy="62" r="4" transform="matrix(1,0,0,1,696,-4)"></circle><line class="stroke_order_diagram--guide_line" x1="850" x2="850" y1="1" y2="99"></line><line class="stroke_order_diagram--bounding_box" x1="899" x2="899" y1="1" y2="99"></line><path class="stroke_order_diagram--existing_path" d="M29.23,22.37c2.32,0.74,5.18,0.47,7.54,0.21c10.73-1.2,24.29-1.91,35.86-2.48c2.38-0.12,4.7-0.25,7.05,0.2" id="Ske1yyfme26" kvg:type="㇐" transform="matrix(1,0,0,1,796,-4)" xmlns:kvg="http://kanjivg.tagaini.net"></path><path class="stroke_order_diagram--existing_path" d="M30.2,34.49c3.18,0.76,6.21,0.39,8.94,0.21c9.4-0.64,19.79-1.81,30.12-2.53c2.54-0.18,4.95-0.4,7.44,0.24" id="Ske1yyfme27" kvg:type="㇐" transform="matrix(1,0,0,1,796,-4)" xmlns:kvg="http://kanjivg.tagaini.net"></path><path class="stroke_order_diagram--existing_path" d="M14.53,48.46c3.27,1.2,7.26,0.58,10.62,0.33c16.07-1.2,39.35-3.53,58.61-3.95c3.62-0.08,7.28-0.23,10.84,0.55" id="Ske1yyfme28" kvg:type="㇐" transform="matrix(1,0,0,1,796,-4)" xmlns:kvg="http://kanjivg.tagaini.net"></path><path class="stroke_order_diagram--existing_path" d="M54.91,10c0.49,1.4,0.5,2.64,0.02,4.84C50.62,34.62,38,59.25,14.26,75.39" id="Ske1yyfme29" kvg:type="㇒" transform="matrix(1,0,0,1,796,-4)" xmlns:kvg="http://kanjivg.tagaini.net"></path><path class="stroke_order_diagram--existing_path" d="M58.23,39.16c4.53,5.04,19.51,18.83,27.6,26.03c2.18,1.94,4.8,3.81,9.16,5.86" id="Ske1yyfme2a" kvg:type="㇏" transform="matrix(1,0,0,1,796,-4)" xmlns:kvg="http://kanjivg.tagaini.net"></path><path class="stroke_order_diagram--existing_path" d="M62.89,52.92c-0.39,1.21-1.5,2.1-2.39,2.58c-5.12,2.75-12.44,5.89-24.27,8.49" id="Ske1yyfme2b" kvg:type="㇒" transform="matrix(1,0,0,1,796,-4)" xmlns:kvg="http://kanjivg.tagaini.net"></path><path class="stroke_order_diagram--existing_path" d="M29.15,71.61c2.38,0.71,4.82,0.46,7.26,0.26c7.73-0.62,22.57-1.89,32.73-2.43c2.5-0.13,4.93-0.23,7.4,0.22" id="Ske1yyfme2c" kvg:type="㇐" transform="matrix(1,0,0,1,796,-4)" xmlns:kvg="http://kanjivg.tagaini.net"></path><path class="stroke_order_diagram--existing_path" d="M52.56,62c0.84,0.84,0.84,2,0.84,3.04c0,0.39-0.02,19.36-0.02,29.33c0,2.62,0,4.62,0,5.5" id="Ske1yyfme2d" kvg:type="㇑" transform="matrix(1,0,0,1,796,-4)" xmlns:kvg="http://kanjivg.tagaini.net"></path><path class="stroke_order_diagram--current_path" d="M50.47,71.48c0,0.9-0.59,2-1.72,3.38c-6.3,7.7-14.34,14.6-24.62,19.92" id="kvg:079e6-s9" kvg:type="㇒" transform="matrix(1,0,0,1,796,-4)" xmlns:kvg="http://kanjivg.tagaini.net"></path><path class="stroke_order_diagram--current_path" d="M50.47,71.48c0,0.9-0.59,2-1.72,3.38c-6.3,7.7-14.34,14.6-24.62,19.92" id="Ske1yyfme2f" kvg:type="㇒" transform="matrix(1,0,0,1,796,-4)" xmlns:kvg="http://kanjivg.tagaini.net"></path><circle class="stroke_order_diagram--path_start" cx="50.47" cy="71.48" r="4" transform="matrix(1,0,0,1,796,-4)"></circle><line class="stroke_order_diagram--guide_line" x1="950" x2="950" y1="1" y2="99"></line><line class="stroke_order_diagram--bounding_box" x1="999" x2="999" y1="1" y2="99"></line><path class="stroke_order_diagram--existing_path" d="M29.23,22.37c2.32,0.74,5.18,0.47,7.54,0.21c10.73-1.2,24.29-1.91,35.86-2.48c2.38-0.12,4.7-0.25,7.05,0.2" id="Ske1yyfme2i" kvg:type="㇐" transform="matrix(1,0,0,1,896,-4)" xmlns:kvg="http://kanjivg.tagaini.net"></path><path class="stroke_order_diagram--existing_path" d="M30.2,34.49c3.18,0.76,6.21,0.39,8.94,0.21c9.4-0.64,19.79-1.81,30.12-2.53c2.54-0.18,4.95-0.4,7.44,0.24" id="Ske1yyfme2j" kvg:type="㇐" transform="matrix(1,0,0,1,896,-4)" xmlns:kvg="http://kanjivg.tagaini.net"></path><path class="stroke_order_diagram--existing_path" d="M14.53,48.46c3.27,1.2,7.26,0.58,10.62,0.33c16.07-1.2,39.35-3.53,58.61-3.95c3.62-0.08,7.28-0.23,10.84,0.55" id="Ske1yyfme2k" kvg:type="㇐" transform="matrix(1,0,0,1,896,-4)" xmlns:kvg="http://kanjivg.tagaini.net"></path><path class="stroke_order_diagram--existing_path" d="M54.91,10c0.49,1.4,0.5,2.64,0.02,4.84C50.62,34.62,38,59.25,14.26,75.39" id="Ske1yyfme2l" kvg:type="㇒" transform="matrix(1,0,0,1,896,-4)" xmlns:kvg="http://kanjivg.tagaini.net"></path><path class="stroke_order_diagram--existing_path" d="M58.23,39.16c4.53,5.04,19.51,18.83,27.6,26.03c2.18,1.94,4.8,3.81,9.16,5.86" id="Ske1yyfme2m" kvg:type="㇏" transform="matrix(1,0,0,1,896,-4)" xmlns:kvg="http://kanjivg.tagaini.net"></path><path class="stroke_order_diagram--existing_path" d="M62.89,52.92c-0.39,1.21-1.5,2.1-2.39,2.58c-5.12,2.75-12.44,5.89-24.27,8.49" id="Ske1yyfme2n" kvg:type="㇒" transform="matrix(1,0,0,1,896,-4)" xmlns:kvg="http://kanjivg.tagaini.net"></path><path class="stroke_order_diagram--existing_path" d="M29.15,71.61c2.38,0.71,4.82,0.46,7.26,0.26c7.73-0.62,22.57-1.89,32.73-2.43c2.5-0.13,4.93-0.23,7.4,0.22" id="Ske1yyfme2o" kvg:type="㇐" transform="matrix(1,0,0,1,896,-4)" xmlns:kvg="http://kanjivg.tagaini.net"></path><path class="stroke_order_diagram--existing_path" d="M52.56,62c0.84,0.84,0.84,2,0.84,3.04c0,0.39-0.02,19.36-0.02,29.33c0,2.62,0,4.62,0,5.5" id="Ske1yyfme2p" kvg:type="㇑" transform="matrix(1,0,0,1,896,-4)" xmlns:kvg="http://kanjivg.tagaini.net"></path><path class="stroke_order_diagram--existing_path" d="M50.47,71.48c0,0.9-0.59,2-1.72,3.38c-6.3,7.7-14.34,14.6-24.62,19.92" id="Ske1yyfme2q" kvg:type="㇒" transform="matrix(1,0,0,1,896,-4)" xmlns:kvg="http://kanjivg.tagaini.net"></path><path class="stroke_order_diagram--current_path" d="M56.5,76.92c7.13,2.33,19.79,11.57,23.84,17" id="kvg:079e6-s10" kvg:type="㇏" transform="matrix(1,0,0,1,896,-4)" xmlns:kvg="http://kanjivg.tagaini.net"></path><path class="stroke_order_diagram--current_path" d="M56.5,76.92c7.13,2.33,19.79,11.57,23.84,17" id="Ske1yyfme2s" kvg:type="㇏" transform="matrix(1,0,0,1,896,-4)" xmlns:kvg="http://kanjivg.tagaini.net"></path><circle class="stroke_order_diagram--path_start" cx="56.5" cy="76.92" r="4" transform="matrix(1,0,0,1,896,-4)"></circle></svg>