<svg class="stroke_order_diagram--svg_container_for_518662b3d5dda796580012b5" style="height: 100px; width: 1300px;" viewbox="0 0 1300 100"><desc>Created with Snap</desc><defs></defs><line class="stroke_order_diagram--bounding_box" x1="1" x2="1299" y1="1" y2="1"></line><line class="stroke_order_diagram--bounding_box" x1="1" x2="1" y1="1" y2="99"></line><line class="stroke_order_diagram--bounding_box" x1="1" x2="1299" y1="99" y2="99"></line><line class="stroke_order_diagram--guide_line" x1="0" x2="1300" y1="50" y2="50"></line><line class="stroke_order_diagram--guide_line" x1="50" x2="50" y1="1" y2="99"></line><line class="stroke_order_diagram--bounding_box" x1="99" x2="99" y1="1" y2="99"></line><path class="stroke_order_diagram--current_path" d="M40.24,15.75c0.08,0.29,0.16,0.76-0.15,1.18C38.23,19.43,27.58,24.9,13,28.25" id="kvg:07a19-s1" kvg:type="㇒" transform="matrix(1,0,0,1,-4,-4)" xmlns:kvg="http://kanjivg.tagaini.net"></path><path class="stroke_order_diagram--current_path" d="M40.24,15.75c0.08,0.29,0.16,0.76-0.15,1.18C38.23,19.43,27.58,24.9,13,28.25" id="Ske2sj0qkm" kvg:type="㇒" transform="matrix(1,0,0,1,-4,-4)" xmlns:kvg="http://kanjivg.tagaini.net"></path><circle class="stroke_order_diagram--path_start" cx="40.24" cy="15.75" r="4" transform="matrix(1,0,0,1,-4,-4)"></circle><line class="stroke_order_diagram--guide_line" x1="150" x2="150" y1="1" y2="99"></line><line class="stroke_order_diagram--bounding_box" x1="199" x2="199" y1="1" y2="99"></line><path class="stroke_order_diagram--existing_path" d="M40.24,15.75c0.08,0.29,0.16,0.76-0.15,1.18C38.23,19.43,27.58,24.9,13,28.25" id="Ske2sj0qkp" kvg:type="㇒" transform="matrix(1,0,0,1,96,-4)" xmlns:kvg="http://kanjivg.tagaini.net"></path><path class="stroke_order_diagram--current_path" d="M9.87,41.83c0.53,0.16,1.96,0.41,3.38,0.47c3.91,0.15,20.01-1.79,29.34-3.1c1.41-0.2,1.78-0.15,2.67,0" id="kvg:07a19-s2" kvg:type="㇐" transform="matrix(1,0,0,1,96,-4)" xmlns:kvg="http://kanjivg.tagaini.net"></path><path class="stroke_order_diagram--current_path" d="M9.87,41.83c0.53,0.16,1.96,0.41,3.38,0.47c3.91,0.15,20.01-1.79,29.34-3.1c1.41-0.2,1.78-0.15,2.67,0" id="Ske2sj0qkr" kvg:type="㇐" transform="matrix(1,0,0,1,96,-4)" xmlns:kvg="http://kanjivg.tagaini.net"></path><circle class="stroke_order_diagram--path_start" cx="9.87" cy="41.83" r="4" transform="matrix(1,0,0,1,96,-4)"></circle><line class="stroke_order_diagram--guide_line" x1="250" x2="250" y1="1" y2="99"></line><line class="stroke_order_diagram--bounding_box" x1="299" x2="299" y1="1" y2="99"></line><path class="stroke_order_diagram--existing_path" d="M40.24,15.75c0.08,0.29,0.16,0.76-0.15,1.18C38.23,19.43,27.58,24.9,13,28.25" id="Ske2sj0qku" kvg:type="㇒" transform="matrix(1,0,0,1,196,-4)" xmlns:kvg="http://kanjivg.tagaini.net"></path><path class="stroke_order_diagram--existing_path" d="M9.87,41.83c0.53,0.16,1.96,0.41,3.38,0.47c3.91,0.15,20.01-1.79,29.34-3.1c1.41-0.2,1.78-0.15,2.67,0" id="Ske2sj0qkv" kvg:type="㇐" transform="matrix(1,0,0,1,196,-4)" xmlns:kvg="http://kanjivg.tagaini.net"></path><path class="stroke_order_diagram--current_path" d="M30.83,25.75c0.37,0.44,0.58,1.97,0.66,2.85c0.07,0.88,0,62.17-0.07,67.65" id="kvg:07a19-s3" kvg:type="㇑" transform="matrix(1,0,0,1,196,-4)" xmlns:kvg="http://kanjivg.tagaini.net"></path><path class="stroke_order_diagram--current_path" d="M30.83,25.75c0.37,0.44,0.58,1.97,0.66,2.85c0.07,0.88,0,62.17-0.07,67.65" id="Ske2sj0qkx" kvg:type="㇑" transform="matrix(1,0,0,1,196,-4)" xmlns:kvg="http://kanjivg.tagaini.net"></path><circle class="stroke_order_diagram--path_start" cx="30.83" cy="25.75" r="4" transform="matrix(1,0,0,1,196,-4)"></circle><line class="stroke_order_diagram--guide_line" x1="350" x2="350" y1="1" y2="99"></line><line class="stroke_order_diagram--bounding_box" x1="399" x2="399" y1="1" y2="99"></line><path class="stroke_order_diagram--existing_path" d="M40.24,15.75c0.08,0.29,0.16,0.76-0.15,1.18C38.23,19.43,27.58,24.9,13,28.25" id="Ske2sj0qk10" kvg:type="㇒" transform="matrix(1,0,0,1,296,-4)" xmlns:kvg="http://kanjivg.tagaini.net"></path><path class="stroke_order_diagram--existing_path" d="M9.87,41.83c0.53,0.16,1.96,0.41,3.38,0.47c3.91,0.15,20.01-1.79,29.34-3.1c1.41-0.2,1.78-0.15,2.67,0" id="Ske2sj0qk11" kvg:type="㇐" transform="matrix(1,0,0,1,296,-4)" xmlns:kvg="http://kanjivg.tagaini.net"></path><path class="stroke_order_diagram--existing_path" d="M30.83,25.75c0.37,0.44,0.58,1.97,0.66,2.85c0.07,0.88,0,62.17-0.07,67.65" id="Ske2sj0qk12" kvg:type="㇑" transform="matrix(1,0,0,1,296,-4)" xmlns:kvg="http://kanjivg.tagaini.net"></path><path class="stroke_order_diagram--current_path" d="M31.43,43.47C27.09,53.96,19.84,66.92,10,75.5" id="kvg:07a19-s4" kvg:type="㇒" transform="matrix(1,0,0,1,296,-4)" xmlns:kvg="http://kanjivg.tagaini.net"></path><path class="stroke_order_diagram--current_path" d="M31.43,43.47C27.09,53.96,19.84,66.92,10,75.5" id="Ske2sj0qk14" kvg:type="㇒" transform="matrix(1,0,0,1,296,-4)" xmlns:kvg="http://kanjivg.tagaini.net"></path><circle class="stroke_order_diagram--path_start" cx="31.43" cy="43.47" r="4" transform="matrix(1,0,0,1,296,-4)"></circle><line class="stroke_order_diagram--guide_line" x1="450" x2="450" y1="1" y2="99"></line><line class="stroke_order_diagram--bounding_box" x1="499" x2="499" y1="1" y2="99"></line><path class="stroke_order_diagram--existing_path" d="M40.24,15.75c0.08,0.29,0.16,0.76-0.15,1.18C38.23,19.43,27.58,24.9,13,28.25" id="Ske2sj0qk17" kvg:type="㇒" transform="matrix(1,0,0,1,396,-4)" xmlns:kvg="http://kanjivg.tagaini.net"></path><path class="stroke_order_diagram--existing_path" d="M9.87,41.83c0.53,0.16,1.96,0.41,3.38,0.47c3.91,0.15,20.01-1.79,29.34-3.1c1.41-0.2,1.78-0.15,2.67,0" id="Ske2sj0qk18" kvg:type="㇐" transform="matrix(1,0,0,1,396,-4)" xmlns:kvg="http://kanjivg.tagaini.net"></path><path class="stroke_order_diagram--existing_path" d="M30.83,25.75c0.37,0.44,0.58,1.97,0.66,2.85c0.07,0.88,0,62.17-0.07,67.65" id="Ske2sj0qk19" kvg:type="㇑" transform="matrix(1,0,0,1,396,-4)" xmlns:kvg="http://kanjivg.tagaini.net"></path><path class="stroke_order_diagram--existing_path" d="M31.43,43.47C27.09,53.96,19.84,66.92,10,75.5" id="Ske2sj0qk1a" kvg:type="㇒" transform="matrix(1,0,0,1,396,-4)" xmlns:kvg="http://kanjivg.tagaini.net"></path><path class="stroke_order_diagram--current_path" d="M31.75,46.5c4.51,2.92,8.32,8.75,10.75,12.5" id="kvg:07a19-s5" kvg:type="㇔/㇏" transform="matrix(1,0,0,1,396,-4)" xmlns:kvg="http://kanjivg.tagaini.net"></path><path class="stroke_order_diagram--current_path" d="M31.75,46.5c4.51,2.92,8.32,8.75,10.75,12.5" id="Ske2sj0qk1c" kvg:type="㇔/㇏" transform="matrix(1,0,0,1,396,-4)" xmlns:kvg="http://kanjivg.tagaini.net"></path><circle class="stroke_order_diagram--path_start" cx="31.75" cy="46.5" r="4" transform="matrix(1,0,0,1,396,-4)"></circle><line class="stroke_order_diagram--guide_line" x1="550" x2="550" y1="1" y2="99"></line><line class="stroke_order_diagram--bounding_box" x1="599" x2="599" y1="1" y2="99"></line><path class="stroke_order_diagram--existing_path" d="M40.24,15.75c0.08,0.29,0.16,0.76-0.15,1.18C38.23,19.43,27.58,24.9,13,28.25" id="Ske2sj0qk1f" kvg:type="㇒" transform="matrix(1,0,0,1,496,-4)" xmlns:kvg="http://kanjivg.tagaini.net"></path><path class="stroke_order_diagram--existing_path" d="M9.87,41.83c0.53,0.16,1.96,0.41,3.38,0.47c3.91,0.15,20.01-1.79,29.34-3.1c1.41-0.2,1.78-0.15,2.67,0" id="Ske2sj0qk1g" kvg:type="㇐" transform="matrix(1,0,0,1,496,-4)" xmlns:kvg="http://kanjivg.tagaini.net"></path><path class="stroke_order_diagram--existing_path" d="M30.83,25.75c0.37,0.44,0.58,1.97,0.66,2.85c0.07,0.88,0,62.17-0.07,67.65" id="Ske2sj0qk1h" kvg:type="㇑" transform="matrix(1,0,0,1,496,-4)" xmlns:kvg="http://kanjivg.tagaini.net"></path><path class="stroke_order_diagram--existing_path" d="M31.43,43.47C27.09,53.96,19.84,66.92,10,75.5" id="Ske2sj0qk1i" kvg:type="㇒" transform="matrix(1,0,0,1,496,-4)" xmlns:kvg="http://kanjivg.tagaini.net"></path><path class="stroke_order_diagram--existing_path" d="M31.75,46.5c4.51,2.92,8.32,8.75,10.75,12.5" id="Ske2sj0qk1j" kvg:type="㇔/㇏" transform="matrix(1,0,0,1,496,-4)" xmlns:kvg="http://kanjivg.tagaini.net"></path><path class="stroke_order_diagram--current_path" d="M49.66,28.79c1.15,0.4,3.25,0.21,4.41,0.21c9.67,0.01,24.17-2.24,37.68-1.52c1.92,0.1,3.07,0.05,4.03,0.22" id="kvg:07a19-s6" kvg:type="㇐" transform="matrix(1,0,0,1,496,-4)" xmlns:kvg="http://kanjivg.tagaini.net"></path><path class="stroke_order_diagram--current_path" d="M49.66,28.79c1.15,0.4,3.25,0.21,4.41,0.21c9.67,0.01,24.17-2.24,37.68-1.52c1.92,0.1,3.07,0.05,4.03,0.22" id="Ske2sj0qk1l" kvg:type="㇐" transform="matrix(1,0,0,1,496,-4)" xmlns:kvg="http://kanjivg.tagaini.net"></path><circle class="stroke_order_diagram--path_start" cx="49.66" cy="28.79" r="4" transform="matrix(1,0,0,1,496,-4)"></circle><line class="stroke_order_diagram--guide_line" x1="650" x2="650" y1="1" y2="99"></line><line class="stroke_order_diagram--bounding_box" x1="699" x2="699" y1="1" y2="99"></line><path class="stroke_order_diagram--existing_path" d="M40.24,15.75c0.08,0.29,0.16,0.76-0.15,1.18C38.23,19.43,27.58,24.9,13,28.25" id="Ske2sj0qk1o" kvg:type="㇒" transform="matrix(1,0,0,1,596,-4)" xmlns:kvg="http://kanjivg.tagaini.net"></path><path class="stroke_order_diagram--existing_path" d="M9.87,41.83c0.53,0.16,1.96,0.41,3.38,0.47c3.91,0.15,20.01-1.79,29.34-3.1c1.41-0.2,1.78-0.15,2.67,0" id="Ske2sj0qk1p" kvg:type="㇐" transform="matrix(1,0,0,1,596,-4)" xmlns:kvg="http://kanjivg.tagaini.net"></path><path class="stroke_order_diagram--existing_path" d="M30.83,25.75c0.37,0.44,0.58,1.97,0.66,2.85c0.07,0.88,0,62.17-0.07,67.65" id="Ske2sj0qk1q" kvg:type="㇑" transform="matrix(1,0,0,1,596,-4)" xmlns:kvg="http://kanjivg.tagaini.net"></path><path class="stroke_order_diagram--existing_path" d="M31.43,43.47C27.09,53.96,19.84,66.92,10,75.5" id="Ske2sj0qk1r" kvg:type="㇒" transform="matrix(1,0,0,1,596,-4)" xmlns:kvg="http://kanjivg.tagaini.net"></path><path class="stroke_order_diagram--existing_path" d="M31.75,46.5c4.51,2.92,8.32,8.75,10.75,12.5" id="Ske2sj0qk1s" kvg:type="㇔/㇏" transform="matrix(1,0,0,1,596,-4)" xmlns:kvg="http://kanjivg.tagaini.net"></path><path class="stroke_order_diagram--existing_path" d="M49.66,28.79c1.15,0.4,3.25,0.21,4.41,0.21c9.67,0.01,24.17-2.24,37.68-1.52c1.92,0.1,3.07,0.05,4.03,0.22" id="Ske2sj0qk1t" kvg:type="㇐" transform="matrix(1,0,0,1,596,-4)" xmlns:kvg="http://kanjivg.tagaini.net"></path><path class="stroke_order_diagram--current_path" d="M69.1,13.98c0.89,0.39,1.51,2.08,1.74,3.05c0.23,0.98-0.02,12.72-0.15,23.97" id="kvg:07a19-s7" kvg:type="㇑a" transform="matrix(1,0,0,1,596,-4)" xmlns:kvg="http://kanjivg.tagaini.net"></path><path class="stroke_order_diagram--current_path" d="M69.1,13.98c0.89,0.39,1.51,2.08,1.74,3.05c0.23,0.98-0.02,12.72-0.15,23.97" id="Ske2sj0qk1v" kvg:type="㇑a" transform="matrix(1,0,0,1,596,-4)" xmlns:kvg="http://kanjivg.tagaini.net"></path><circle class="stroke_order_diagram--path_start" cx="69.1" cy="13.98" r="4" transform="matrix(1,0,0,1,596,-4)"></circle><line class="stroke_order_diagram--guide_line" x1="750" x2="750" y1="1" y2="99"></line><line class="stroke_order_diagram--bounding_box" x1="799" x2="799" y1="1" y2="99"></line><path class="stroke_order_diagram--existing_path" d="M40.24,15.75c0.08,0.29,0.16,0.76-0.15,1.18C38.23,19.43,27.58,24.9,13,28.25" id="Ske2sj0qk1y" kvg:type="㇒" transform="matrix(1,0,0,1,696,-4)" xmlns:kvg="http://kanjivg.tagaini.net"></path><path class="stroke_order_diagram--existing_path" d="M9.87,41.83c0.53,0.16,1.96,0.41,3.38,0.47c3.91,0.15,20.01-1.79,29.34-3.1c1.41-0.2,1.78-0.15,2.67,0" id="Ske2sj0qk1z" kvg:type="㇐" transform="matrix(1,0,0,1,696,-4)" xmlns:kvg="http://kanjivg.tagaini.net"></path><path class="stroke_order_diagram--existing_path" d="M30.83,25.75c0.37,0.44,0.58,1.97,0.66,2.85c0.07,0.88,0,62.17-0.07,67.65" id="Ske2sj0qk20" kvg:type="㇑" transform="matrix(1,0,0,1,696,-4)" xmlns:kvg="http://kanjivg.tagaini.net"></path><path class="stroke_order_diagram--existing_path" d="M31.43,43.47C27.09,53.96,19.84,66.92,10,75.5" id="Ske2sj0qk21" kvg:type="㇒" transform="matrix(1,0,0,1,696,-4)" xmlns:kvg="http://kanjivg.tagaini.net"></path><path class="stroke_order_diagram--existing_path" d="M31.75,46.5c4.51,2.92,8.32,8.75,10.75,12.5" id="Ske2sj0qk22" kvg:type="㇔/㇏" transform="matrix(1,0,0,1,696,-4)" xmlns:kvg="http://kanjivg.tagaini.net"></path><path class="stroke_order_diagram--existing_path" d="M49.66,28.79c1.15,0.4,3.25,0.21,4.41,0.21c9.67,0.01,24.17-2.24,37.68-1.52c1.92,0.1,3.07,0.05,4.03,0.22" id="Ske2sj0qk23" kvg:type="㇐" transform="matrix(1,0,0,1,696,-4)" xmlns:kvg="http://kanjivg.tagaini.net"></path><path class="stroke_order_diagram--existing_path" d="M69.1,13.98c0.89,0.39,1.51,2.08,1.74,3.05c0.23,0.98-0.02,12.72-0.15,23.97" id="Ske2sj0qk24" kvg:type="㇑a" transform="matrix(1,0,0,1,696,-4)" xmlns:kvg="http://kanjivg.tagaini.net"></path><path class="stroke_order_diagram--current_path" d="M57.71,40.84c0.56,0.81,1.38,2.22,1.38,3.3c0,1.08,0.37,25.23,0.12,35.25" id="kvg:07a19-s8" kvg:type="㇑" transform="matrix(1,0,0,1,696,-4)" xmlns:kvg="http://kanjivg.tagaini.net"></path><path class="stroke_order_diagram--current_path" d="M57.71,40.84c0.56,0.81,1.38,2.22,1.38,3.3c0,1.08,0.37,25.23,0.12,35.25" id="Ske2sj0qk26" kvg:type="㇑" transform="matrix(1,0,0,1,696,-4)" xmlns:kvg="http://kanjivg.tagaini.net"></path><circle class="stroke_order_diagram--path_start" cx="57.71" cy="40.84" r="4" transform="matrix(1,0,0,1,696,-4)"></circle><line class="stroke_order_diagram--guide_line" x1="850" x2="850" y1="1" y2="99"></line><line class="stroke_order_diagram--bounding_box" x1="899" x2="899" y1="1" y2="99"></line><path class="stroke_order_diagram--existing_path" d="M40.24,15.75c0.08,0.29,0.16,0.76-0.15,1.18C38.23,19.43,27.58,24.9,13,28.25" id="Ske2sj0qk29" kvg:type="㇒" transform="matrix(1,0,0,1,796,-4)" xmlns:kvg="http://kanjivg.tagaini.net"></path><path class="stroke_order_diagram--existing_path" d="M9.87,41.83c0.53,0.16,1.96,0.41,3.38,0.47c3.91,0.15,20.01-1.79,29.34-3.1c1.41-0.2,1.78-0.15,2.67,0" id="Ske2sj0qk2a" kvg:type="㇐" transform="matrix(1,0,0,1,796,-4)" xmlns:kvg="http://kanjivg.tagaini.net"></path><path class="stroke_order_diagram--existing_path" d="M30.83,25.75c0.37,0.44,0.58,1.97,0.66,2.85c0.07,0.88,0,62.17-0.07,67.65" id="Ske2sj0qk2b" kvg:type="㇑" transform="matrix(1,0,0,1,796,-4)" xmlns:kvg="http://kanjivg.tagaini.net"></path><path class="stroke_order_diagram--existing_path" d="M31.43,43.47C27.09,53.96,19.84,66.92,10,75.5" id="Ske2sj0qk2c" kvg:type="㇒" transform="matrix(1,0,0,1,796,-4)" xmlns:kvg="http://kanjivg.tagaini.net"></path><path class="stroke_order_diagram--existing_path" d="M31.75,46.5c4.51,2.92,8.32,8.75,10.75,12.5" id="Ske2sj0qk2d" kvg:type="㇔/㇏" transform="matrix(1,0,0,1,796,-4)" xmlns:kvg="http://kanjivg.tagaini.net"></path><path class="stroke_order_diagram--existing_path" d="M49.66,28.79c1.15,0.4,3.25,0.21,4.41,0.21c9.67,0.01,24.17-2.24,37.68-1.52c1.92,0.1,3.07,0.05,4.03,0.22" id="Ske2sj0qk2e" kvg:type="㇐" transform="matrix(1,0,0,1,796,-4)" xmlns:kvg="http://kanjivg.tagaini.net"></path><path class="stroke_order_diagram--existing_path" d="M69.1,13.98c0.89,0.39,1.51,2.08,1.74,3.05c0.23,0.98-0.02,12.72-0.15,23.97" id="Ske2sj0qk2f" kvg:type="㇑a" transform="matrix(1,0,0,1,796,-4)" xmlns:kvg="http://kanjivg.tagaini.net"></path><path class="stroke_order_diagram--existing_path" d="M57.71,40.84c0.56,0.81,1.38,2.22,1.38,3.3c0,1.08,0.37,25.23,0.12,35.25" id="Ske2sj0qk2g" kvg:type="㇑" transform="matrix(1,0,0,1,796,-4)" xmlns:kvg="http://kanjivg.tagaini.net"></path><path class="stroke_order_diagram--current_path" d="M59.47,42.57c2.68-0.15,22.82-2.49,25.28-2.68c1.93-0.14,3.46,1.67,3.29,2.74c-0.21,1.35-0.76,23.15-0.75,35.79" id="kvg:07a19-s9" kvg:type="㇕a" transform="matrix(1,0,0,1,796,-4)" xmlns:kvg="http://kanjivg.tagaini.net"></path><path class="stroke_order_diagram--current_path" d="M59.47,42.57c2.68-0.15,22.82-2.49,25.28-2.68c1.93-0.14,3.46,1.67,3.29,2.74c-0.21,1.35-0.76,23.15-0.75,35.79" id="Ske2sj0qk2i" kvg:type="㇕a" transform="matrix(1,0,0,1,796,-4)" xmlns:kvg="http://kanjivg.tagaini.net"></path><circle class="stroke_order_diagram--path_start" cx="59.47" cy="42.57" r="4" transform="matrix(1,0,0,1,796,-4)"></circle><line class="stroke_order_diagram--guide_line" x1="950" x2="950" y1="1" y2="99"></line><line class="stroke_order_diagram--bounding_box" x1="999" x2="999" y1="1" y2="99"></line><path class="stroke_order_diagram--existing_path" d="M40.24,15.75c0.08,0.29,0.16,0.76-0.15,1.18C38.23,19.43,27.58,24.9,13,28.25" id="Ske2sj0qk2l" kvg:type="㇒" transform="matrix(1,0,0,1,896,-4)" xmlns:kvg="http://kanjivg.tagaini.net"></path><path class="stroke_order_diagram--existing_path" d="M9.87,41.83c0.53,0.16,1.96,0.41,3.38,0.47c3.91,0.15,20.01-1.79,29.34-3.1c1.41-0.2,1.78-0.15,2.67,0" id="Ske2sj0qk2m" kvg:type="㇐" transform="matrix(1,0,0,1,896,-4)" xmlns:kvg="http://kanjivg.tagaini.net"></path><path class="stroke_order_diagram--existing_path" d="M30.83,25.75c0.37,0.44,0.58,1.97,0.66,2.85c0.07,0.88,0,62.17-0.07,67.65" id="Ske2sj0qk2n" kvg:type="㇑" transform="matrix(1,0,0,1,896,-4)" xmlns:kvg="http://kanjivg.tagaini.net"></path><path class="stroke_order_diagram--existing_path" d="M31.43,43.47C27.09,53.96,19.84,66.92,10,75.5" id="Ske2sj0qk2o" kvg:type="㇒" transform="matrix(1,0,0,1,896,-4)" xmlns:kvg="http://kanjivg.tagaini.net"></path><path class="stroke_order_diagram--existing_path" d="M31.75,46.5c4.51,2.92,8.32,8.75,10.75,12.5" id="Ske2sj0qk2p" kvg:type="㇔/㇏" transform="matrix(1,0,0,1,896,-4)" xmlns:kvg="http://kanjivg.tagaini.net"></path><path class="stroke_order_diagram--existing_path" d="M49.66,28.79c1.15,0.4,3.25,0.21,4.41,0.21c9.67,0.01,24.17-2.24,37.68-1.52c1.92,0.1,3.07,0.05,4.03,0.22" id="Ske2sj0qk2q" kvg:type="㇐" transform="matrix(1,0,0,1,896,-4)" xmlns:kvg="http://kanjivg.tagaini.net"></path><path class="stroke_order_diagram--existing_path" d="M69.1,13.98c0.89,0.39,1.51,2.08,1.74,3.05c0.23,0.98-0.02,12.72-0.15,23.97" id="Ske2sj0qk2r" kvg:type="㇑a" transform="matrix(1,0,0,1,896,-4)" xmlns:kvg="http://kanjivg.tagaini.net"></path><path class="stroke_order_diagram--existing_path" d="M57.71,40.84c0.56,0.81,1.38,2.22,1.38,3.3c0,1.08,0.37,25.23,0.12,35.25" id="Ske2sj0qk2s" kvg:type="㇑" transform="matrix(1,0,0,1,896,-4)" xmlns:kvg="http://kanjivg.tagaini.net"></path><path class="stroke_order_diagram--existing_path" d="M59.47,42.57c2.68-0.15,22.82-2.49,25.28-2.68c1.93-0.14,3.46,1.67,3.29,2.74c-0.21,1.35-0.76,23.15-0.75,35.79" id="Ske2sj0qk2t" kvg:type="㇕a" transform="matrix(1,0,0,1,896,-4)" xmlns:kvg="http://kanjivg.tagaini.net"></path><path class="stroke_order_diagram--current_path" d="M59.17,54.87c5.09-0.22,22.77-2.05,26.93-2.05" id="kvg:07a19-s10" kvg:type="㇐a" transform="matrix(1,0,0,1,896,-4)" xmlns:kvg="http://kanjivg.tagaini.net"></path><path class="stroke_order_diagram--current_path" d="M59.17,54.87c5.09-0.22,22.77-2.05,26.93-2.05" id="Ske2sj0qk2v" kvg:type="㇐a" transform="matrix(1,0,0,1,896,-4)" xmlns:kvg="http://kanjivg.tagaini.net"></path><circle class="stroke_order_diagram--path_start" cx="59.17" cy="54.87" r="4" transform="matrix(1,0,0,1,896,-4)"></circle><line class="stroke_order_diagram--guide_line" x1="1050" x2="1050" y1="1" y2="99"></line><line class="stroke_order_diagram--bounding_box" x1="1099" x2="1099" y1="1" y2="99"></line><path class="stroke_order_diagram--existing_path" d="M40.24,15.75c0.08,0.29,0.16,0.76-0.15,1.18C38.23,19.43,27.58,24.9,13,28.25" id="Ske2sj0qk2y" kvg:type="㇒" transform="matrix(1,0,0,1,996,-4)" xmlns:kvg="http://kanjivg.tagaini.net"></path><path class="stroke_order_diagram--existing_path" d="M9.87,41.83c0.53,0.16,1.96,0.41,3.38,0.47c3.91,0.15,20.01-1.79,29.34-3.1c1.41-0.2,1.78-0.15,2.67,0" id="Ske2sj0qk2z" kvg:type="㇐" transform="matrix(1,0,0,1,996,-4)" xmlns:kvg="http://kanjivg.tagaini.net"></path><path class="stroke_order_diagram--existing_path" d="M30.83,25.75c0.37,0.44,0.58,1.97,0.66,2.85c0.07,0.88,0,62.17-0.07,67.65" id="Ske2sj0qk30" kvg:type="㇑" transform="matrix(1,0,0,1,996,-4)" xmlns:kvg="http://kanjivg.tagaini.net"></path><path class="stroke_order_diagram--existing_path" d="M31.43,43.47C27.09,53.96,19.84,66.92,10,75.5" id="Ske2sj0qk31" kvg:type="㇒" transform="matrix(1,0,0,1,996,-4)" xmlns:kvg="http://kanjivg.tagaini.net"></path><path class="stroke_order_diagram--existing_path" d="M31.75,46.5c4.51,2.92,8.32,8.75,10.75,12.5" id="Ske2sj0qk32" kvg:type="㇔/㇏" transform="matrix(1,0,0,1,996,-4)" xmlns:kvg="http://kanjivg.tagaini.net"></path><path class="stroke_order_diagram--existing_path" d="M49.66,28.79c1.15,0.4,3.25,0.21,4.41,0.21c9.67,0.01,24.17-2.24,37.68-1.52c1.92,0.1,3.07,0.05,4.03,0.22" id="Ske2sj0qk33" kvg:type="㇐" transform="matrix(1,0,0,1,996,-4)" xmlns:kvg="http://kanjivg.tagaini.net"></path><path class="stroke_order_diagram--existing_path" d="M69.1,13.98c0.89,0.39,1.51,2.08,1.74,3.05c0.23,0.98-0.02,12.72-0.15,23.97" id="Ske2sj0qk34" kvg:type="㇑a" transform="matrix(1,0,0,1,996,-4)" xmlns:kvg="http://kanjivg.tagaini.net"></path><path class="stroke_order_diagram--existing_path" d="M57.71,40.84c0.56,0.81,1.38,2.22,1.38,3.3c0,1.08,0.37,25.23,0.12,35.25" id="Ske2sj0qk35" kvg:type="㇑" transform="matrix(1,0,0,1,996,-4)" xmlns:kvg="http://kanjivg.tagaini.net"></path><path class="stroke_order_diagram--existing_path" d="M59.47,42.57c2.68-0.15,22.82-2.49,25.28-2.68c1.93-0.14,3.46,1.67,3.29,2.74c-0.21,1.35-0.76,23.15-0.75,35.79" id="Ske2sj0qk36" kvg:type="㇕a" transform="matrix(1,0,0,1,996,-4)" xmlns:kvg="http://kanjivg.tagaini.net"></path><path class="stroke_order_diagram--existing_path" d="M59.17,54.87c5.09-0.22,22.77-2.05,26.93-2.05" id="Ske2sj0qk37" kvg:type="㇐a" transform="matrix(1,0,0,1,996,-4)" xmlns:kvg="http://kanjivg.tagaini.net"></path><path class="stroke_order_diagram--current_path" d="M59.37,66.2c6.79-0.43,19.83-1.53,26.42-1.53" id="kvg:07a19-s11" kvg:type="㇐a" transform="matrix(1,0,0,1,996,-4)" xmlns:kvg="http://kanjivg.tagaini.net"></path><path class="stroke_order_diagram--current_path" d="M59.37,66.2c6.79-0.43,19.83-1.53,26.42-1.53" id="Ske2sj0qk39" kvg:type="㇐a" transform="matrix(1,0,0,1,996,-4)" xmlns:kvg="http://kanjivg.tagaini.net"></path><circle class="stroke_order_diagram--path_start" cx="59.37" cy="66.2" r="4" transform="matrix(1,0,0,1,996,-4)"></circle><line class="stroke_order_diagram--guide_line" x1="1150" x2="1150" y1="1" y2="99"></line><line class="stroke_order_diagram--bounding_box" x1="1199" x2="1199" y1="1" y2="99"></line><path class="stroke_order_diagram--existing_path" d="M40.24,15.75c0.08,0.29,0.16,0.76-0.15,1.18C38.23,19.43,27.58,24.9,13,28.25" id="Ske2sj0qk3c" kvg:type="㇒" transform="matrix(1,0,0,1,1096,-4)" xmlns:kvg="http://kanjivg.tagaini.net"></path><path class="stroke_order_diagram--existing_path" d="M9.87,41.83c0.53,0.16,1.96,0.41,3.38,0.47c3.91,0.15,20.01-1.79,29.34-3.1c1.41-0.2,1.78-0.15,2.67,0" id="Ske2sj0qk3d" kvg:type="㇐" transform="matrix(1,0,0,1,1096,-4)" xmlns:kvg="http://kanjivg.tagaini.net"></path><path class="stroke_order_diagram--existing_path" d="M30.83,25.75c0.37,0.44,0.58,1.97,0.66,2.85c0.07,0.88,0,62.17-0.07,67.65" id="Ske2sj0qk3e" kvg:type="㇑" transform="matrix(1,0,0,1,1096,-4)" xmlns:kvg="http://kanjivg.tagaini.net"></path><path class="stroke_order_diagram--existing_path" d="M31.43,43.47C27.09,53.96,19.84,66.92,10,75.5" id="Ske2sj0qk3f" kvg:type="㇒" transform="matrix(1,0,0,1,1096,-4)" xmlns:kvg="http://kanjivg.tagaini.net"></path><path class="stroke_order_diagram--existing_path" d="M31.75,46.5c4.51,2.92,8.32,8.75,10.75,12.5" id="Ske2sj0qk3g" kvg:type="㇔/㇏" transform="matrix(1,0,0,1,1096,-4)" xmlns:kvg="http://kanjivg.tagaini.net"></path><path class="stroke_order_diagram--existing_path" d="M49.66,28.79c1.15,0.4,3.25,0.21,4.41,0.21c9.67,0.01,24.17-2.24,37.68-1.52c1.92,0.1,3.07,0.05,4.03,0.22" id="Ske2sj0qk3h" kvg:type="㇐" transform="matrix(1,0,0,1,1096,-4)" xmlns:kvg="http://kanjivg.tagaini.net"></path><path class="stroke_order_diagram--existing_path" d="M69.1,13.98c0.89,0.39,1.51,2.08,1.74,3.05c0.23,0.98-0.02,12.72-0.15,23.97" id="Ske2sj0qk3i" kvg:type="㇑a" transform="matrix(1,0,0,1,1096,-4)" xmlns:kvg="http://kanjivg.tagaini.net"></path><path class="stroke_order_diagram--existing_path" d="M57.71,40.84c0.56,0.81,1.38,2.22,1.38,3.3c0,1.08,0.37,25.23,0.12,35.25" id="Ske2sj0qk3j" kvg:type="㇑" transform="matrix(1,0,0,1,1096,-4)" xmlns:kvg="http://kanjivg.tagaini.net"></path><path class="stroke_order_diagram--existing_path" d="M59.47,42.57c2.68-0.15,22.82-2.49,25.28-2.68c1.93-0.14,3.46,1.67,3.29,2.74c-0.21,1.35-0.76,23.15-0.75,35.79" id="Ske2sj0qk3k" kvg:type="㇕a" transform="matrix(1,0,0,1,1096,-4)" xmlns:kvg="http://kanjivg.tagaini.net"></path><path class="stroke_order_diagram--existing_path" d="M59.17,54.87c5.09-0.22,22.77-2.05,26.93-2.05" id="Ske2sj0qk3l" kvg:type="㇐a" transform="matrix(1,0,0,1,1096,-4)" xmlns:kvg="http://kanjivg.tagaini.net"></path><path class="stroke_order_diagram--existing_path" d="M59.37,66.2c6.79-0.43,19.83-1.53,26.42-1.53" id="Ske2sj0qk3m" kvg:type="㇐a" transform="matrix(1,0,0,1,1096,-4)" xmlns:kvg="http://kanjivg.tagaini.net"></path><path class="stroke_order_diagram--current_path" d="M59.13,77.53c4.69-0.35,24.31-1.64,27.69-1.64" id="kvg:07a19-s12" kvg:type="㇐a" transform="matrix(1,0,0,1,1096,-4)" xmlns:kvg="http://kanjivg.tagaini.net"></path><path class="stroke_order_diagram--current_path" d="M59.13,77.53c4.69-0.35,24.31-1.64,27.69-1.64" id="Ske2sj0qk3o" kvg:type="㇐a" transform="matrix(1,0,0,1,1096,-4)" xmlns:kvg="http://kanjivg.tagaini.net"></path><circle class="stroke_order_diagram--path_start" cx="59.13" cy="77.53" r="4" transform="matrix(1,0,0,1,1096,-4)"></circle><line class="stroke_order_diagram--guide_line" x1="1250" x2="1250" y1="1" y2="99"></line><line class="stroke_order_diagram--bounding_box" x1="1299" x2="1299" y1="1" y2="99"></line><path class="stroke_order_diagram--existing_path" d="M40.24,15.75c0.08,0.29,0.16,0.76-0.15,1.18C38.23,19.43,27.58,24.9,13,28.25" id="Ske2sj0qk3r" kvg:type="㇒" transform="matrix(1,0,0,1,1196,-4)" xmlns:kvg="http://kanjivg.tagaini.net"></path><path class="stroke_order_diagram--existing_path" d="M9.87,41.83c0.53,0.16,1.96,0.41,3.38,0.47c3.91,0.15,20.01-1.79,29.34-3.1c1.41-0.2,1.78-0.15,2.67,0" id="Ske2sj0qk3s" kvg:type="㇐" transform="matrix(1,0,0,1,1196,-4)" xmlns:kvg="http://kanjivg.tagaini.net"></path><path class="stroke_order_diagram--existing_path" d="M30.83,25.75c0.37,0.44,0.58,1.97,0.66,2.85c0.07,0.88,0,62.17-0.07,67.65" id="Ske2sj0qk3t" kvg:type="㇑" transform="matrix(1,0,0,1,1196,-4)" xmlns:kvg="http://kanjivg.tagaini.net"></path><path class="stroke_order_diagram--existing_path" d="M31.43,43.47C27.09,53.96,19.84,66.92,10,75.5" id="Ske2sj0qk3u" kvg:type="㇒" transform="matrix(1,0,0,1,1196,-4)" xmlns:kvg="http://kanjivg.tagaini.net"></path><path class="stroke_order_diagram--existing_path" d="M31.75,46.5c4.51,2.92,8.32,8.75,10.75,12.5" id="Ske2sj0qk3v" kvg:type="㇔/㇏" transform="matrix(1,0,0,1,1196,-4)" xmlns:kvg="http://kanjivg.tagaini.net"></path><path class="stroke_order_diagram--existing_path" d="M49.66,28.79c1.15,0.4,3.25,0.21,4.41,0.21c9.67,0.01,24.17-2.24,37.68-1.52c1.92,0.1,3.07,0.05,4.03,0.22" id="Ske2sj0qk3w" kvg:type="㇐" transform="matrix(1,0,0,1,1196,-4)" xmlns:kvg="http://kanjivg.tagaini.net"></path><path class="stroke_order_diagram--existing_path" d="M69.1,13.98c0.89,0.39,1.51,2.08,1.74,3.05c0.23,0.98-0.02,12.72-0.15,23.97" id="Ske2sj0qk3x" kvg:type="㇑a" transform="matrix(1,0,0,1,1196,-4)" xmlns:kvg="http://kanjivg.tagaini.net"></path><path class="stroke_order_diagram--existing_path" d="M57.71,40.84c0.56,0.81,1.38,2.22,1.38,3.3c0,1.08,0.37,25.23,0.12,35.25" id="Ske2sj0qk3y" kvg:type="㇑" transform="matrix(1,0,0,1,1196,-4)" xmlns:kvg="http://kanjivg.tagaini.net"></path><path class="stroke_order_diagram--existing_path" d="M59.47,42.57c2.68-0.15,22.82-2.49,25.28-2.68c1.93-0.14,3.46,1.67,3.29,2.74c-0.21,1.35-0.76,23.15-0.75,35.79" id="Ske2sj0qk3z" kvg:type="㇕a" transform="matrix(1,0,0,1,1196,-4)" xmlns:kvg="http://kanjivg.tagaini.net"></path><path class="stroke_order_diagram--existing_path" d="M59.17,54.87c5.09-0.22,22.77-2.05,26.93-2.05" id="Ske2sj0qk40" kvg:type="㇐a" transform="matrix(1,0,0,1,1196,-4)" xmlns:kvg="http://kanjivg.tagaini.net"></path><path class="stroke_order_diagram--existing_path" d="M59.37,66.2c6.79-0.43,19.83-1.53,26.42-1.53" id="Ske2sj0qk41" kvg:type="㇐a" transform="matrix(1,0,0,1,1196,-4)" xmlns:kvg="http://kanjivg.tagaini.net"></path><path class="stroke_order_diagram--existing_path" d="M59.13,77.53c4.69-0.35,24.31-1.64,27.69-1.64" id="Ske2sj0qk42" kvg:type="㇐a" transform="matrix(1,0,0,1,1196,-4)" xmlns:kvg="http://kanjivg.tagaini.net"></path><path class="stroke_order_diagram--current_path" d="M47.43,55.47c0.69,1.26,1.03,1.76,1.03,4.27c0,2.51,0.41,24.45-0.03,26.63c-0.52,2.51,1.16,3.93,3.24,3.77c16.83-1.26,24.83-1.53,41.09-2.07c1.89-0.06,3.49-0.01,4.99,0.41" id="kvg:07a19-s13" kvg:type="㇗" transform="matrix(1,0,0,1,1196,-4)" xmlns:kvg="http://kanjivg.tagaini.net"></path><path class="stroke_order_diagram--current_path" d="M47.43,55.47c0.69,1.26,1.03,1.76,1.03,4.27c0,2.51,0.41,24.45-0.03,26.63c-0.52,2.51,1.16,3.93,3.24,3.77c16.83-1.26,24.83-1.53,41.09-2.07c1.89-0.06,3.49-0.01,4.99,0.41" id="Ske2sj0qk44" kvg:type="㇗" transform="matrix(1,0,0,1,1196,-4)" xmlns:kvg="http://kanjivg.tagaini.net"></path><circle class="stroke_order_diagram--path_start" cx="47.43" cy="55.47" r="4" transform="matrix(1,0,0,1,1196,-4)"></circle></svg>