<svg class="stroke_order_diagram--svg_container_for_51866286d5dda79658000553" style="height: 100px; width: 1100px;" viewbox="0 0 1100 100"><desc>Created with Snap</desc><defs></defs><line class="stroke_order_diagram--bounding_box" x1="1" x2="1099" y1="1" y2="1"></line><line class="stroke_order_diagram--bounding_box" x1="1" x2="1" y1="1" y2="99"></line><line class="stroke_order_diagram--bounding_box" x1="1" x2="1099" y1="99" y2="99"></line><line class="stroke_order_diagram--guide_line" x1="0" x2="1100" y1="50" y2="50"></line><line class="stroke_order_diagram--guide_line" x1="50" x2="50" y1="1" y2="99"></line><line class="stroke_order_diagram--bounding_box" x1="99" x2="99" y1="1" y2="99"></line><path class="stroke_order_diagram--current_path" d="M51.75,9.25c1,0.75,1.5,1.75,1.5,3.5s0,1.5,0,6.25" id="kvg:07ae0-s1" kvg:type="㇑a" transform="matrix(1,0,0,1,-4,-4)" xmlns:kvg="http://kanjivg.tagaini.net"></path><path class="stroke_order_diagram--current_path" d="M51.75,9.25c1,0.75,1.5,1.75,1.5,3.5s0,1.5,0,6.25" id="Ske1ya5xsk" kvg:type="㇑a" transform="matrix(1,0,0,1,-4,-4)" xmlns:kvg="http://kanjivg.tagaini.net"></path><circle class="stroke_order_diagram--path_start" cx="51.75" cy="9.25" r="4" transform="matrix(1,0,0,1,-4,-4)"></circle><line class="stroke_order_diagram--guide_line" x1="150" x2="150" y1="1" y2="99"></line><line class="stroke_order_diagram--bounding_box" x1="199" x2="199" y1="1" y2="99"></line><path class="stroke_order_diagram--existing_path" d="M51.75,9.25c1,0.75,1.5,1.75,1.5,3.5s0,1.5,0,6.25" id="Ske1ya5xsn" kvg:type="㇑a" transform="matrix(1,0,0,1,96,-4)" xmlns:kvg="http://kanjivg.tagaini.net"></path><path class="stroke_order_diagram--current_path" d="M28,21.95c2.75,0.3,5.21,0.19,7.75-0.07c9.16-0.93,24.63-2.66,37.25-3.61c2.64-0.2,5.13-0.38,7.75,0.06" id="kvg:07ae0-s2" kvg:type="㇐" transform="matrix(1,0,0,1,96,-4)" xmlns:kvg="http://kanjivg.tagaini.net"></path><path class="stroke_order_diagram--current_path" d="M28,21.95c2.75,0.3,5.21,0.19,7.75-0.07c9.16-0.93,24.63-2.66,37.25-3.61c2.64-0.2,5.13-0.38,7.75,0.06" id="Ske1ya5xsp" kvg:type="㇐" transform="matrix(1,0,0,1,96,-4)" xmlns:kvg="http://kanjivg.tagaini.net"></path><circle class="stroke_order_diagram--path_start" cx="28" cy="21.95" r="4" transform="matrix(1,0,0,1,96,-4)"></circle><line class="stroke_order_diagram--guide_line" x1="250" x2="250" y1="1" y2="99"></line><line class="stroke_order_diagram--bounding_box" x1="299" x2="299" y1="1" y2="99"></line><path class="stroke_order_diagram--existing_path" d="M51.75,9.25c1,0.75,1.5,1.75,1.5,3.5s0,1.5,0,6.25" id="Ske1ya5xss" kvg:type="㇑a" transform="matrix(1,0,0,1,196,-4)" xmlns:kvg="http://kanjivg.tagaini.net"></path><path class="stroke_order_diagram--existing_path" d="M28,21.95c2.75,0.3,5.21,0.19,7.75-0.07c9.16-0.93,24.63-2.66,37.25-3.61c2.64-0.2,5.13-0.38,7.75,0.06" id="Ske1ya5xst" kvg:type="㇐" transform="matrix(1,0,0,1,196,-4)" xmlns:kvg="http://kanjivg.tagaini.net"></path><path class="stroke_order_diagram--current_path" d="M38.5,25.38c3.09,3.71,4.77,7.68,5.05,10.12" id="kvg:07ae0-s3" kvg:type="㇔" transform="matrix(1,0,0,1,196,-4)" xmlns:kvg="http://kanjivg.tagaini.net"></path><path class="stroke_order_diagram--current_path" d="M38.5,25.38c3.09,3.71,4.77,7.68,5.05,10.12" id="Ske1ya5xsv" kvg:type="㇔" transform="matrix(1,0,0,1,196,-4)" xmlns:kvg="http://kanjivg.tagaini.net"></path><circle class="stroke_order_diagram--path_start" cx="38.5" cy="25.38" r="4" transform="matrix(1,0,0,1,196,-4)"></circle><line class="stroke_order_diagram--guide_line" x1="350" x2="350" y1="1" y2="99"></line><line class="stroke_order_diagram--bounding_box" x1="399" x2="399" y1="1" y2="99"></line><path class="stroke_order_diagram--existing_path" d="M51.75,9.25c1,0.75,1.5,1.75,1.5,3.5s0,1.5,0,6.25" id="Ske1ya5xsy" kvg:type="㇑a" transform="matrix(1,0,0,1,296,-4)" xmlns:kvg="http://kanjivg.tagaini.net"></path><path class="stroke_order_diagram--existing_path" d="M28,21.95c2.75,0.3,5.21,0.19,7.75-0.07c9.16-0.93,24.63-2.66,37.25-3.61c2.64-0.2,5.13-0.38,7.75,0.06" id="Ske1ya5xsz" kvg:type="㇐" transform="matrix(1,0,0,1,296,-4)" xmlns:kvg="http://kanjivg.tagaini.net"></path><path class="stroke_order_diagram--existing_path" d="M38.5,25.38c3.09,3.71,4.77,7.68,5.05,10.12" id="Ske1ya5xs10" kvg:type="㇔" transform="matrix(1,0,0,1,296,-4)" xmlns:kvg="http://kanjivg.tagaini.net"></path><path class="stroke_order_diagram--current_path" d="M67.97,23c0.16,0.88,0.15,1.85-0.19,2.6c-1.15,2.53-3.64,6.64-4.77,8.15" id="kvg:07ae0-s4" kvg:type="㇒" transform="matrix(1,0,0,1,296,-4)" xmlns:kvg="http://kanjivg.tagaini.net"></path><path class="stroke_order_diagram--current_path" d="M67.97,23c0.16,0.88,0.15,1.85-0.19,2.6c-1.15,2.53-3.64,6.64-4.77,8.15" id="Ske1ya5xs12" kvg:type="㇒" transform="matrix(1,0,0,1,296,-4)" xmlns:kvg="http://kanjivg.tagaini.net"></path><circle class="stroke_order_diagram--path_start" cx="67.97" cy="23" r="4" transform="matrix(1,0,0,1,296,-4)"></circle><line class="stroke_order_diagram--guide_line" x1="450" x2="450" y1="1" y2="99"></line><line class="stroke_order_diagram--bounding_box" x1="499" x2="499" y1="1" y2="99"></line><path class="stroke_order_diagram--existing_path" d="M51.75,9.25c1,0.75,1.5,1.75,1.5,3.5s0,1.5,0,6.25" id="Ske1ya5xs15" kvg:type="㇑a" transform="matrix(1,0,0,1,396,-4)" xmlns:kvg="http://kanjivg.tagaini.net"></path><path class="stroke_order_diagram--existing_path" d="M28,21.95c2.75,0.3,5.21,0.19,7.75-0.07c9.16-0.93,24.63-2.66,37.25-3.61c2.64-0.2,5.13-0.38,7.75,0.06" id="Ske1ya5xs16" kvg:type="㇐" transform="matrix(1,0,0,1,396,-4)" xmlns:kvg="http://kanjivg.tagaini.net"></path><path class="stroke_order_diagram--existing_path" d="M38.5,25.38c3.09,3.71,4.77,7.68,5.05,10.12" id="Ske1ya5xs17" kvg:type="㇔" transform="matrix(1,0,0,1,396,-4)" xmlns:kvg="http://kanjivg.tagaini.net"></path><path class="stroke_order_diagram--existing_path" d="M67.97,23c0.16,0.88,0.15,1.85-0.19,2.6c-1.15,2.53-3.64,6.64-4.77,8.15" id="Ske1ya5xs18" kvg:type="㇒" transform="matrix(1,0,0,1,396,-4)" xmlns:kvg="http://kanjivg.tagaini.net"></path><path class="stroke_order_diagram--current_path" d="M14.75,40.05c3.29,0.72,6.75,0.69,10.08,0.37c17.66-1.68,40.01-4.68,59.92-5.34c3.3-0.11,6.48-0.19,9.75,0.25" id="kvg:07ae0-s5" kvg:type="㇐" transform="matrix(1,0,0,1,396,-4)" xmlns:kvg="http://kanjivg.tagaini.net"></path><path class="stroke_order_diagram--current_path" d="M14.75,40.05c3.29,0.72,6.75,0.69,10.08,0.37c17.66-1.68,40.01-4.68,59.92-5.34c3.3-0.11,6.48-0.19,9.75,0.25" id="Ske1ya5xs1a" kvg:type="㇐" transform="matrix(1,0,0,1,396,-4)" xmlns:kvg="http://kanjivg.tagaini.net"></path><circle class="stroke_order_diagram--path_start" cx="14.75" cy="40.05" r="4" transform="matrix(1,0,0,1,396,-4)"></circle><line class="stroke_order_diagram--guide_line" x1="550" x2="550" y1="1" y2="99"></line><line class="stroke_order_diagram--bounding_box" x1="599" x2="599" y1="1" y2="99"></line><path class="stroke_order_diagram--existing_path" d="M51.75,9.25c1,0.75,1.5,1.75,1.5,3.5s0,1.5,0,6.25" id="Ske1ya5xs1d" kvg:type="㇑a" transform="matrix(1,0,0,1,496,-4)" xmlns:kvg="http://kanjivg.tagaini.net"></path><path class="stroke_order_diagram--existing_path" d="M28,21.95c2.75,0.3,5.21,0.19,7.75-0.07c9.16-0.93,24.63-2.66,37.25-3.61c2.64-0.2,5.13-0.38,7.75,0.06" id="Ske1ya5xs1e" kvg:type="㇐" transform="matrix(1,0,0,1,496,-4)" xmlns:kvg="http://kanjivg.tagaini.net"></path><path class="stroke_order_diagram--existing_path" d="M38.5,25.38c3.09,3.71,4.77,7.68,5.05,10.12" id="Ske1ya5xs1f" kvg:type="㇔" transform="matrix(1,0,0,1,496,-4)" xmlns:kvg="http://kanjivg.tagaini.net"></path><path class="stroke_order_diagram--existing_path" d="M67.97,23c0.16,0.88,0.15,1.85-0.19,2.6c-1.15,2.53-3.64,6.64-4.77,8.15" id="Ske1ya5xs1g" kvg:type="㇒" transform="matrix(1,0,0,1,496,-4)" xmlns:kvg="http://kanjivg.tagaini.net"></path><path class="stroke_order_diagram--existing_path" d="M14.75,40.05c3.29,0.72,6.75,0.69,10.08,0.37c17.66-1.68,40.01-4.68,59.92-5.34c3.3-0.11,6.48-0.19,9.75,0.25" id="Ske1ya5xs1h" kvg:type="㇐" transform="matrix(1,0,0,1,496,-4)" xmlns:kvg="http://kanjivg.tagaini.net"></path><path class="stroke_order_diagram--current_path" d="M30.54,47.49c1.08,0.76,1.96,2,2.31,3.43c1.15,4.61,2.38,10.7,3.49,16.44c0.23,1.21,0.46,2.41,0.69,3.57" id="kvg:07ae0-s6" kvg:type="㇑" transform="matrix(1,0,0,1,496,-4)" xmlns:kvg="http://kanjivg.tagaini.net"></path><path class="stroke_order_diagram--current_path" d="M30.54,47.49c1.08,0.76,1.96,2,2.31,3.43c1.15,4.61,2.38,10.7,3.49,16.44c0.23,1.21,0.46,2.41,0.69,3.57" id="Ske1ya5xs1j" kvg:type="㇑" transform="matrix(1,0,0,1,496,-4)" xmlns:kvg="http://kanjivg.tagaini.net"></path><circle class="stroke_order_diagram--path_start" cx="30.54" cy="47.49" r="4" transform="matrix(1,0,0,1,496,-4)"></circle><line class="stroke_order_diagram--guide_line" x1="650" x2="650" y1="1" y2="99"></line><line class="stroke_order_diagram--bounding_box" x1="699" x2="699" y1="1" y2="99"></line><path class="stroke_order_diagram--existing_path" d="M51.75,9.25c1,0.75,1.5,1.75,1.5,3.5s0,1.5,0,6.25" id="Ske1ya5xs1m" kvg:type="㇑a" transform="matrix(1,0,0,1,596,-4)" xmlns:kvg="http://kanjivg.tagaini.net"></path><path class="stroke_order_diagram--existing_path" d="M28,21.95c2.75,0.3,5.21,0.19,7.75-0.07c9.16-0.93,24.63-2.66,37.25-3.61c2.64-0.2,5.13-0.38,7.75,0.06" id="Ske1ya5xs1n" kvg:type="㇐" transform="matrix(1,0,0,1,596,-4)" xmlns:kvg="http://kanjivg.tagaini.net"></path><path class="stroke_order_diagram--existing_path" d="M38.5,25.38c3.09,3.71,4.77,7.68,5.05,10.12" id="Ske1ya5xs1o" kvg:type="㇔" transform="matrix(1,0,0,1,596,-4)" xmlns:kvg="http://kanjivg.tagaini.net"></path><path class="stroke_order_diagram--existing_path" d="M67.97,23c0.16,0.88,0.15,1.85-0.19,2.6c-1.15,2.53-3.64,6.64-4.77,8.15" id="Ske1ya5xs1p" kvg:type="㇒" transform="matrix(1,0,0,1,596,-4)" xmlns:kvg="http://kanjivg.tagaini.net"></path><path class="stroke_order_diagram--existing_path" d="M14.75,40.05c3.29,0.72,6.75,0.69,10.08,0.37c17.66-1.68,40.01-4.68,59.92-5.34c3.3-0.11,6.48-0.19,9.75,0.25" id="Ske1ya5xs1q" kvg:type="㇐" transform="matrix(1,0,0,1,596,-4)" xmlns:kvg="http://kanjivg.tagaini.net"></path><path class="stroke_order_diagram--existing_path" d="M30.54,47.49c1.08,0.76,1.96,2,2.31,3.43c1.15,4.61,2.38,10.7,3.49,16.44c0.23,1.21,0.46,2.41,0.69,3.57" id="Ske1ya5xs1r" kvg:type="㇑" transform="matrix(1,0,0,1,596,-4)" xmlns:kvg="http://kanjivg.tagaini.net"></path><path class="stroke_order_diagram--current_path" d="M33.07,48.74c6.12-0.89,30.74-3.63,38.55-4.17c3.58-0.25,6.02,1.01,5.39,5.08c-0.21,1.36-1.41,7.01-3.16,13.05c-0.4,1.4-0.84,2.81-1.3,4.21" id="kvg:07ae0-s7" kvg:type="㇕a" transform="matrix(1,0,0,1,596,-4)" xmlns:kvg="http://kanjivg.tagaini.net"></path><path class="stroke_order_diagram--current_path" d="M33.07,48.74c6.12-0.89,30.74-3.63,38.55-4.17c3.58-0.25,6.02,1.01,5.39,5.08c-0.21,1.36-1.41,7.01-3.16,13.05c-0.4,1.4-0.84,2.81-1.3,4.21" id="Ske1ya5xs1t" kvg:type="㇕a" transform="matrix(1,0,0,1,596,-4)" xmlns:kvg="http://kanjivg.tagaini.net"></path><circle class="stroke_order_diagram--path_start" cx="33.07" cy="48.74" r="4" transform="matrix(1,0,0,1,596,-4)"></circle><line class="stroke_order_diagram--guide_line" x1="750" x2="750" y1="1" y2="99"></line><line class="stroke_order_diagram--bounding_box" x1="799" x2="799" y1="1" y2="99"></line><path class="stroke_order_diagram--existing_path" d="M51.75,9.25c1,0.75,1.5,1.75,1.5,3.5s0,1.5,0,6.25" id="Ske1ya5xs1w" kvg:type="㇑a" transform="matrix(1,0,0,1,696,-4)" xmlns:kvg="http://kanjivg.tagaini.net"></path><path class="stroke_order_diagram--existing_path" d="M28,21.95c2.75,0.3,5.21,0.19,7.75-0.07c9.16-0.93,24.63-2.66,37.25-3.61c2.64-0.2,5.13-0.38,7.75,0.06" id="Ske1ya5xs1x" kvg:type="㇐" transform="matrix(1,0,0,1,696,-4)" xmlns:kvg="http://kanjivg.tagaini.net"></path><path class="stroke_order_diagram--existing_path" d="M38.5,25.38c3.09,3.71,4.77,7.68,5.05,10.12" id="Ske1ya5xs1y" kvg:type="㇔" transform="matrix(1,0,0,1,696,-4)" xmlns:kvg="http://kanjivg.tagaini.net"></path><path class="stroke_order_diagram--existing_path" d="M67.97,23c0.16,0.88,0.15,1.85-0.19,2.6c-1.15,2.53-3.64,6.64-4.77,8.15" id="Ske1ya5xs1z" kvg:type="㇒" transform="matrix(1,0,0,1,696,-4)" xmlns:kvg="http://kanjivg.tagaini.net"></path><path class="stroke_order_diagram--existing_path" d="M14.75,40.05c3.29,0.72,6.75,0.69,10.08,0.37c17.66-1.68,40.01-4.68,59.92-5.34c3.3-0.11,6.48-0.19,9.75,0.25" id="Ske1ya5xs20" kvg:type="㇐" transform="matrix(1,0,0,1,696,-4)" xmlns:kvg="http://kanjivg.tagaini.net"></path><path class="stroke_order_diagram--existing_path" d="M30.54,47.49c1.08,0.76,1.96,2,2.31,3.43c1.15,4.61,2.38,10.7,3.49,16.44c0.23,1.21,0.46,2.41,0.69,3.57" id="Ske1ya5xs21" kvg:type="㇑" transform="matrix(1,0,0,1,696,-4)" xmlns:kvg="http://kanjivg.tagaini.net"></path><path class="stroke_order_diagram--existing_path" d="M33.07,48.74c6.12-0.89,30.74-3.63,38.55-4.17c3.58-0.25,6.02,1.01,5.39,5.08c-0.21,1.36-1.41,7.01-3.16,13.05c-0.4,1.4-0.84,2.81-1.3,4.21" id="Ske1ya5xs22" kvg:type="㇕a" transform="matrix(1,0,0,1,696,-4)" xmlns:kvg="http://kanjivg.tagaini.net"></path><path class="stroke_order_diagram--current_path" d="M35.85,58.04C45,57,64.38,55,74.48,54.19" id="kvg:07ae0-s8" kvg:type="㇐a" transform="matrix(1,0,0,1,696,-4)" xmlns:kvg="http://kanjivg.tagaini.net"></path><path class="stroke_order_diagram--current_path" d="M35.85,58.04C45,57,64.38,55,74.48,54.19" id="Ske1ya5xs24" kvg:type="㇐a" transform="matrix(1,0,0,1,696,-4)" xmlns:kvg="http://kanjivg.tagaini.net"></path><circle class="stroke_order_diagram--path_start" cx="35.85" cy="58.04" r="4" transform="matrix(1,0,0,1,696,-4)"></circle><line class="stroke_order_diagram--guide_line" x1="850" x2="850" y1="1" y2="99"></line><line class="stroke_order_diagram--bounding_box" x1="899" x2="899" y1="1" y2="99"></line><path class="stroke_order_diagram--existing_path" d="M51.75,9.25c1,0.75,1.5,1.75,1.5,3.5s0,1.5,0,6.25" id="Ske1ya5xs27" kvg:type="㇑a" transform="matrix(1,0,0,1,796,-4)" xmlns:kvg="http://kanjivg.tagaini.net"></path><path class="stroke_order_diagram--existing_path" d="M28,21.95c2.75,0.3,5.21,0.19,7.75-0.07c9.16-0.93,24.63-2.66,37.25-3.61c2.64-0.2,5.13-0.38,7.75,0.06" id="Ske1ya5xs28" kvg:type="㇐" transform="matrix(1,0,0,1,796,-4)" xmlns:kvg="http://kanjivg.tagaini.net"></path><path class="stroke_order_diagram--existing_path" d="M38.5,25.38c3.09,3.71,4.77,7.68,5.05,10.12" id="Ske1ya5xs29" kvg:type="㇔" transform="matrix(1,0,0,1,796,-4)" xmlns:kvg="http://kanjivg.tagaini.net"></path><path class="stroke_order_diagram--existing_path" d="M67.97,23c0.16,0.88,0.15,1.85-0.19,2.6c-1.15,2.53-3.64,6.64-4.77,8.15" id="Ske1ya5xs2a" kvg:type="㇒" transform="matrix(1,0,0,1,796,-4)" xmlns:kvg="http://kanjivg.tagaini.net"></path><path class="stroke_order_diagram--existing_path" d="M14.75,40.05c3.29,0.72,6.75,0.69,10.08,0.37c17.66-1.68,40.01-4.68,59.92-5.34c3.3-0.11,6.48-0.19,9.75,0.25" id="Ske1ya5xs2b" kvg:type="㇐" transform="matrix(1,0,0,1,796,-4)" xmlns:kvg="http://kanjivg.tagaini.net"></path><path class="stroke_order_diagram--existing_path" d="M30.54,47.49c1.08,0.76,1.96,2,2.31,3.43c1.15,4.61,2.38,10.7,3.49,16.44c0.23,1.21,0.46,2.41,0.69,3.57" id="Ske1ya5xs2c" kvg:type="㇑" transform="matrix(1,0,0,1,796,-4)" xmlns:kvg="http://kanjivg.tagaini.net"></path><path class="stroke_order_diagram--existing_path" d="M33.07,48.74c6.12-0.89,30.74-3.63,38.55-4.17c3.58-0.25,6.02,1.01,5.39,5.08c-0.21,1.36-1.41,7.01-3.16,13.05c-0.4,1.4-0.84,2.81-1.3,4.21" id="Ske1ya5xs2d" kvg:type="㇕a" transform="matrix(1,0,0,1,796,-4)" xmlns:kvg="http://kanjivg.tagaini.net"></path><path class="stroke_order_diagram--existing_path" d="M35.85,58.04C45,57,64.38,55,74.48,54.19" id="Ske1ya5xs2e" kvg:type="㇐a" transform="matrix(1,0,0,1,796,-4)" xmlns:kvg="http://kanjivg.tagaini.net"></path><path class="stroke_order_diagram--current_path" d="M37.58,68.09c12.3-1.46,26.3-3.09,34.27-3.51" id="kvg:07ae0-s9" kvg:type="㇐a" transform="matrix(1,0,0,1,796,-4)" xmlns:kvg="http://kanjivg.tagaini.net"></path><path class="stroke_order_diagram--current_path" d="M37.58,68.09c12.3-1.46,26.3-3.09,34.27-3.51" id="Ske1ya5xs2g" kvg:type="㇐a" transform="matrix(1,0,0,1,796,-4)" xmlns:kvg="http://kanjivg.tagaini.net"></path><circle class="stroke_order_diagram--path_start" cx="37.58" cy="68.09" r="4" transform="matrix(1,0,0,1,796,-4)"></circle><line class="stroke_order_diagram--guide_line" x1="950" x2="950" y1="1" y2="99"></line><line class="stroke_order_diagram--bounding_box" x1="999" x2="999" y1="1" y2="99"></line><path class="stroke_order_diagram--existing_path" d="M51.75,9.25c1,0.75,1.5,1.75,1.5,3.5s0,1.5,0,6.25" id="Ske1ya5xs2j" kvg:type="㇑a" transform="matrix(1,0,0,1,896,-4)" xmlns:kvg="http://kanjivg.tagaini.net"></path><path class="stroke_order_diagram--existing_path" d="M28,21.95c2.75,0.3,5.21,0.19,7.75-0.07c9.16-0.93,24.63-2.66,37.25-3.61c2.64-0.2,5.13-0.38,7.75,0.06" id="Ske1ya5xs2k" kvg:type="㇐" transform="matrix(1,0,0,1,896,-4)" xmlns:kvg="http://kanjivg.tagaini.net"></path><path class="stroke_order_diagram--existing_path" d="M38.5,25.38c3.09,3.71,4.77,7.68,5.05,10.12" id="Ske1ya5xs2l" kvg:type="㇔" transform="matrix(1,0,0,1,896,-4)" xmlns:kvg="http://kanjivg.tagaini.net"></path><path class="stroke_order_diagram--existing_path" d="M67.97,23c0.16,0.88,0.15,1.85-0.19,2.6c-1.15,2.53-3.64,6.64-4.77,8.15" id="Ske1ya5xs2m" kvg:type="㇒" transform="matrix(1,0,0,1,896,-4)" xmlns:kvg="http://kanjivg.tagaini.net"></path><path class="stroke_order_diagram--existing_path" d="M14.75,40.05c3.29,0.72,6.75,0.69,10.08,0.37c17.66-1.68,40.01-4.68,59.92-5.34c3.3-0.11,6.48-0.19,9.75,0.25" id="Ske1ya5xs2n" kvg:type="㇐" transform="matrix(1,0,0,1,896,-4)" xmlns:kvg="http://kanjivg.tagaini.net"></path><path class="stroke_order_diagram--existing_path" d="M30.54,47.49c1.08,0.76,1.96,2,2.31,3.43c1.15,4.61,2.38,10.7,3.49,16.44c0.23,1.21,0.46,2.41,0.69,3.57" id="Ske1ya5xs2o" kvg:type="㇑" transform="matrix(1,0,0,1,896,-4)" xmlns:kvg="http://kanjivg.tagaini.net"></path><path class="stroke_order_diagram--existing_path" d="M33.07,48.74c6.12-0.89,30.74-3.63,38.55-4.17c3.58-0.25,6.02,1.01,5.39,5.08c-0.21,1.36-1.41,7.01-3.16,13.05c-0.4,1.4-0.84,2.81-1.3,4.21" id="Ske1ya5xs2p" kvg:type="㇕a" transform="matrix(1,0,0,1,896,-4)" xmlns:kvg="http://kanjivg.tagaini.net"></path><path class="stroke_order_diagram--existing_path" d="M35.85,58.04C45,57,64.38,55,74.48,54.19" id="Ske1ya5xs2q" kvg:type="㇐a" transform="matrix(1,0,0,1,896,-4)" xmlns:kvg="http://kanjivg.tagaini.net"></path><path class="stroke_order_diagram--existing_path" d="M37.58,68.09c12.3-1.46,26.3-3.09,34.27-3.51" id="Ske1ya5xs2r" kvg:type="㇐a" transform="matrix(1,0,0,1,896,-4)" xmlns:kvg="http://kanjivg.tagaini.net"></path><path class="stroke_order_diagram--current_path" d="M20.13,81.17c3.25,0.58,7.99,0.64,11.76,0.24C45.12,80,66.75,77.75,81.67,77.1c4.1-0.18,7.46-0.35,10.09,0.38" id="kvg:07ae0-s10" kvg:type="㇐" transform="matrix(1,0,0,1,896,-4)" xmlns:kvg="http://kanjivg.tagaini.net"></path><path class="stroke_order_diagram--current_path" d="M20.13,81.17c3.25,0.58,7.99,0.64,11.76,0.24C45.12,80,66.75,77.75,81.67,77.1c4.1-0.18,7.46-0.35,10.09,0.38" id="Ske1ya5xs2t" kvg:type="㇐" transform="matrix(1,0,0,1,896,-4)" xmlns:kvg="http://kanjivg.tagaini.net"></path><circle class="stroke_order_diagram--path_start" cx="20.13" cy="81.17" r="4" transform="matrix(1,0,0,1,896,-4)"></circle><line class="stroke_order_diagram--guide_line" x1="1050" x2="1050" y1="1" y2="99"></line><line class="stroke_order_diagram--bounding_box" x1="1099" x2="1099" y1="1" y2="99"></line><path class="stroke_order_diagram--existing_path" d="M51.75,9.25c1,0.75,1.5,1.75,1.5,3.5s0,1.5,0,6.25" id="Ske1ya5xs2w" kvg:type="㇑a" transform="matrix(1,0,0,1,996,-4)" xmlns:kvg="http://kanjivg.tagaini.net"></path><path class="stroke_order_diagram--existing_path" d="M28,21.95c2.75,0.3,5.21,0.19,7.75-0.07c9.16-0.93,24.63-2.66,37.25-3.61c2.64-0.2,5.13-0.38,7.75,0.06" id="Ske1ya5xs2x" kvg:type="㇐" transform="matrix(1,0,0,1,996,-4)" xmlns:kvg="http://kanjivg.tagaini.net"></path><path class="stroke_order_diagram--existing_path" d="M38.5,25.38c3.09,3.71,4.77,7.68,5.05,10.12" id="Ske1ya5xs2y" kvg:type="㇔" transform="matrix(1,0,0,1,996,-4)" xmlns:kvg="http://kanjivg.tagaini.net"></path><path class="stroke_order_diagram--existing_path" d="M67.97,23c0.16,0.88,0.15,1.85-0.19,2.6c-1.15,2.53-3.64,6.64-4.77,8.15" id="Ske1ya5xs2z" kvg:type="㇒" transform="matrix(1,0,0,1,996,-4)" xmlns:kvg="http://kanjivg.tagaini.net"></path><path class="stroke_order_diagram--existing_path" d="M14.75,40.05c3.29,0.72,6.75,0.69,10.08,0.37c17.66-1.68,40.01-4.68,59.92-5.34c3.3-0.11,6.48-0.19,9.75,0.25" id="Ske1ya5xs30" kvg:type="㇐" transform="matrix(1,0,0,1,996,-4)" xmlns:kvg="http://kanjivg.tagaini.net"></path><path class="stroke_order_diagram--existing_path" d="M30.54,47.49c1.08,0.76,1.96,2,2.31,3.43c1.15,4.61,2.38,10.7,3.49,16.44c0.23,1.21,0.46,2.41,0.69,3.57" id="Ske1ya5xs31" kvg:type="㇑" transform="matrix(1,0,0,1,996,-4)" xmlns:kvg="http://kanjivg.tagaini.net"></path><path class="stroke_order_diagram--existing_path" d="M33.07,48.74c6.12-0.89,30.74-3.63,38.55-4.17c3.58-0.25,6.02,1.01,5.39,5.08c-0.21,1.36-1.41,7.01-3.16,13.05c-0.4,1.4-0.84,2.81-1.3,4.21" id="Ske1ya5xs32" kvg:type="㇕a" transform="matrix(1,0,0,1,996,-4)" xmlns:kvg="http://kanjivg.tagaini.net"></path><path class="stroke_order_diagram--existing_path" d="M35.85,58.04C45,57,64.38,55,74.48,54.19" id="Ske1ya5xs33" kvg:type="㇐a" transform="matrix(1,0,0,1,996,-4)" xmlns:kvg="http://kanjivg.tagaini.net"></path><path class="stroke_order_diagram--existing_path" d="M37.58,68.09c12.3-1.46,26.3-3.09,34.27-3.51" id="Ske1ya5xs34" kvg:type="㇐a" transform="matrix(1,0,0,1,996,-4)" xmlns:kvg="http://kanjivg.tagaini.net"></path><path class="stroke_order_diagram--existing_path" d="M20.13,81.17c3.25,0.58,7.99,0.64,11.76,0.24C45.12,80,66.75,77.75,81.67,77.1c4.1-0.18,7.46-0.35,10.09,0.38" id="Ske1ya5xs35" kvg:type="㇐" transform="matrix(1,0,0,1,996,-4)" xmlns:kvg="http://kanjivg.tagaini.net"></path><path class="stroke_order_diagram--current_path" d="M53.21,68.5c1.02,1.02,1.35,2,1.35,3.51c0,3.86-0.08,15.44-0.11,23.24c-0.01,2.53-0.02,4.66-0.02,6" id="kvg:07ae0-s11" kvg:type="㇑" transform="matrix(1,0,0,1,996,-4)" xmlns:kvg="http://kanjivg.tagaini.net"></path><path class="stroke_order_diagram--current_path" d="M53.21,68.5c1.02,1.02,1.35,2,1.35,3.51c0,3.86-0.08,15.44-0.11,23.24c-0.01,2.53-0.02,4.66-0.02,6" id="Ske1ya5xs37" kvg:type="㇑" transform="matrix(1,0,0,1,996,-4)" xmlns:kvg="http://kanjivg.tagaini.net"></path><circle class="stroke_order_diagram--path_start" cx="53.21" cy="68.5" r="4" transform="matrix(1,0,0,1,996,-4)"></circle></svg>