<svg class="stroke_order_diagram--svg_container_for_51866290d5dda79658000811" style="height: 100px; width: 1200px;" viewbox="0 0 1200 100"><desc>Created with Snap</desc><defs></defs><line class="stroke_order_diagram--bounding_box" x1="1" x2="1199" y1="1" y2="1"></line><line class="stroke_order_diagram--bounding_box" x1="1" x2="1" y1="1" y2="99"></line><line class="stroke_order_diagram--bounding_box" x1="1" x2="1199" y1="99" y2="99"></line><line class="stroke_order_diagram--guide_line" x1="0" x2="1200" y1="50" y2="50"></line><line class="stroke_order_diagram--guide_line" x1="50" x2="50" y1="1" y2="99"></line><line class="stroke_order_diagram--bounding_box" x1="99" x2="99" y1="1" y2="99"></line><path class="stroke_order_diagram--current_path" d="M29.25,13c0.25,0.88-0.01,1.76-0.32,2.52c-2.05,4.98-6.3,12.6-12.68,20.48" id="kvg:07b52-s1" kvg:type="㇒" transform="matrix(1,0,0,1,-4,-4)" xmlns:kvg="http://kanjivg.tagaini.net"></path><path class="stroke_order_diagram--current_path" d="M29.25,13c0.25,0.88-0.01,1.76-0.32,2.52c-2.05,4.98-6.3,12.6-12.68,20.48" id="Ske24gk3vl" kvg:type="㇒" transform="matrix(1,0,0,1,-4,-4)" xmlns:kvg="http://kanjivg.tagaini.net"></path><circle class="stroke_order_diagram--path_start" cx="29.25" cy="13" r="4" transform="matrix(1,0,0,1,-4,-4)"></circle><line class="stroke_order_diagram--guide_line" x1="150" x2="150" y1="1" y2="99"></line><line class="stroke_order_diagram--bounding_box" x1="199" x2="199" y1="1" y2="99"></line><path class="stroke_order_diagram--existing_path" d="M29.25,13c0.25,0.88-0.01,1.76-0.32,2.52c-2.05,4.98-6.3,12.6-12.68,20.48" id="Ske24gk3vo" kvg:type="㇒" transform="matrix(1,0,0,1,96,-4)" xmlns:kvg="http://kanjivg.tagaini.net"></path><path class="stroke_order_diagram--current_path" d="M27.23,26.12c3.38,0,13.35-1.4,19.52-2.12c1.72-0.2,3.2-0.33,4.25-0.33" id="kvg:07b52-s2" kvg:type="㇐b" transform="matrix(1,0,0,1,96,-4)" xmlns:kvg="http://kanjivg.tagaini.net"></path><path class="stroke_order_diagram--current_path" d="M27.23,26.12c3.38,0,13.35-1.4,19.52-2.12c1.72-0.2,3.2-0.33,4.25-0.33" id="Ske24gk3vq" kvg:type="㇐b" transform="matrix(1,0,0,1,96,-4)" xmlns:kvg="http://kanjivg.tagaini.net"></path><circle class="stroke_order_diagram--path_start" cx="27.23" cy="26.12" r="4" transform="matrix(1,0,0,1,96,-4)"></circle><line class="stroke_order_diagram--guide_line" x1="250" x2="250" y1="1" y2="99"></line><line class="stroke_order_diagram--bounding_box" x1="299" x2="299" y1="1" y2="99"></line><path class="stroke_order_diagram--existing_path" d="M29.25,13c0.25,0.88-0.01,1.76-0.32,2.52c-2.05,4.98-6.3,12.6-12.68,20.48" id="Ske24gk3vt" kvg:type="㇒" transform="matrix(1,0,0,1,196,-4)" xmlns:kvg="http://kanjivg.tagaini.net"></path><path class="stroke_order_diagram--existing_path" d="M27.23,26.12c3.38,0,13.35-1.4,19.52-2.12c1.72-0.2,3.2-0.33,4.25-0.33" id="Ske24gk3vu" kvg:type="㇐b" transform="matrix(1,0,0,1,196,-4)" xmlns:kvg="http://kanjivg.tagaini.net"></path><path class="stroke_order_diagram--current_path" d="M32.77,28.33c2.57,1.61,6.65,6.63,7.29,9.13" id="kvg:07b52-s3" kvg:type="㇔/㇑" transform="matrix(1,0,0,1,196,-4)" xmlns:kvg="http://kanjivg.tagaini.net"></path><path class="stroke_order_diagram--current_path" d="M32.77,28.33c2.57,1.61,6.65,6.63,7.29,9.13" id="Ske24gk3vw" kvg:type="㇔/㇑" transform="matrix(1,0,0,1,196,-4)" xmlns:kvg="http://kanjivg.tagaini.net"></path><circle class="stroke_order_diagram--path_start" cx="32.77" cy="28.33" r="4" transform="matrix(1,0,0,1,196,-4)"></circle><line class="stroke_order_diagram--guide_line" x1="350" x2="350" y1="1" y2="99"></line><line class="stroke_order_diagram--bounding_box" x1="399" x2="399" y1="1" y2="99"></line><path class="stroke_order_diagram--existing_path" d="M29.25,13c0.25,0.88-0.01,1.76-0.32,2.52c-2.05,4.98-6.3,12.6-12.68,20.48" id="Ske24gk3vz" kvg:type="㇒" transform="matrix(1,0,0,1,296,-4)" xmlns:kvg="http://kanjivg.tagaini.net"></path><path class="stroke_order_diagram--existing_path" d="M27.23,26.12c3.38,0,13.35-1.4,19.52-2.12c1.72-0.2,3.2-0.33,4.25-0.33" id="Ske24gk3v10" kvg:type="㇐b" transform="matrix(1,0,0,1,296,-4)" xmlns:kvg="http://kanjivg.tagaini.net"></path><path class="stroke_order_diagram--existing_path" d="M32.77,28.33c2.57,1.61,6.65,6.63,7.29,9.13" id="Ske24gk3v11" kvg:type="㇔/㇑" transform="matrix(1,0,0,1,296,-4)" xmlns:kvg="http://kanjivg.tagaini.net"></path><path class="stroke_order_diagram--current_path" d="M61.75,12.25c0.05,0.84,0.1,1.63-0.21,2.42C59.5,20,56.73,26.21,52.25,32" id="kvg:07b52-s4" kvg:type="㇒" transform="matrix(1,0,0,1,296,-4)" xmlns:kvg="http://kanjivg.tagaini.net"></path><path class="stroke_order_diagram--current_path" d="M61.75,12.25c0.05,0.84,0.1,1.63-0.21,2.42C59.5,20,56.73,26.21,52.25,32" id="Ske24gk3v13" kvg:type="㇒" transform="matrix(1,0,0,1,296,-4)" xmlns:kvg="http://kanjivg.tagaini.net"></path><circle class="stroke_order_diagram--path_start" cx="61.75" cy="12.25" r="4" transform="matrix(1,0,0,1,296,-4)"></circle><line class="stroke_order_diagram--guide_line" x1="450" x2="450" y1="1" y2="99"></line><line class="stroke_order_diagram--bounding_box" x1="499" x2="499" y1="1" y2="99"></line><path class="stroke_order_diagram--existing_path" d="M29.25,13c0.25,0.88-0.01,1.76-0.32,2.52c-2.05,4.98-6.3,12.6-12.68,20.48" id="Ske24gk3v16" kvg:type="㇒" transform="matrix(1,0,0,1,396,-4)" xmlns:kvg="http://kanjivg.tagaini.net"></path><path class="stroke_order_diagram--existing_path" d="M27.23,26.12c3.38,0,13.35-1.4,19.52-2.12c1.72-0.2,3.2-0.33,4.25-0.33" id="Ske24gk3v17" kvg:type="㇐b" transform="matrix(1,0,0,1,396,-4)" xmlns:kvg="http://kanjivg.tagaini.net"></path><path class="stroke_order_diagram--existing_path" d="M32.77,28.33c2.57,1.61,6.65,6.63,7.29,9.13" id="Ske24gk3v18" kvg:type="㇔/㇑" transform="matrix(1,0,0,1,396,-4)" xmlns:kvg="http://kanjivg.tagaini.net"></path><path class="stroke_order_diagram--existing_path" d="M61.75,12.25c0.05,0.84,0.1,1.63-0.21,2.42C59.5,20,56.73,26.21,52.25,32" id="Ske24gk3v19" kvg:type="㇒" transform="matrix(1,0,0,1,396,-4)" xmlns:kvg="http://kanjivg.tagaini.net"></path><path class="stroke_order_diagram--current_path" d="M61.48,22.66c6.51-0.29,16.64-1.91,24.8-3.2c1.93-0.31,3.54-0.37,4.6-0.37" id="kvg:07b52-s5" kvg:type="㇐b" transform="matrix(1,0,0,1,396,-4)" xmlns:kvg="http://kanjivg.tagaini.net"></path><path class="stroke_order_diagram--current_path" d="M61.48,22.66c6.51-0.29,16.64-1.91,24.8-3.2c1.93-0.31,3.54-0.37,4.6-0.37" id="Ske24gk3v1b" kvg:type="㇐b" transform="matrix(1,0,0,1,396,-4)" xmlns:kvg="http://kanjivg.tagaini.net"></path><circle class="stroke_order_diagram--path_start" cx="61.48" cy="22.66" r="4" transform="matrix(1,0,0,1,396,-4)"></circle><line class="stroke_order_diagram--guide_line" x1="550" x2="550" y1="1" y2="99"></line><line class="stroke_order_diagram--bounding_box" x1="599" x2="599" y1="1" y2="99"></line><path class="stroke_order_diagram--existing_path" d="M29.25,13c0.25,0.88-0.01,1.76-0.32,2.52c-2.05,4.98-6.3,12.6-12.68,20.48" id="Ske24gk3v1e" kvg:type="㇒" transform="matrix(1,0,0,1,496,-4)" xmlns:kvg="http://kanjivg.tagaini.net"></path><path class="stroke_order_diagram--existing_path" d="M27.23,26.12c3.38,0,13.35-1.4,19.52-2.12c1.72-0.2,3.2-0.33,4.25-0.33" id="Ske24gk3v1f" kvg:type="㇐b" transform="matrix(1,0,0,1,496,-4)" xmlns:kvg="http://kanjivg.tagaini.net"></path><path class="stroke_order_diagram--existing_path" d="M32.77,28.33c2.57,1.61,6.65,6.63,7.29,9.13" id="Ske24gk3v1g" kvg:type="㇔/㇑" transform="matrix(1,0,0,1,496,-4)" xmlns:kvg="http://kanjivg.tagaini.net"></path><path class="stroke_order_diagram--existing_path" d="M61.75,12.25c0.05,0.84,0.1,1.63-0.21,2.42C59.5,20,56.73,26.21,52.25,32" id="Ske24gk3v1h" kvg:type="㇒" transform="matrix(1,0,0,1,496,-4)" xmlns:kvg="http://kanjivg.tagaini.net"></path><path class="stroke_order_diagram--existing_path" d="M61.48,22.66c6.51-0.29,16.64-1.91,24.8-3.2c1.93-0.31,3.54-0.37,4.6-0.37" id="Ske24gk3v1i" kvg:type="㇐b" transform="matrix(1,0,0,1,496,-4)" xmlns:kvg="http://kanjivg.tagaini.net"></path><path class="stroke_order_diagram--current_path" d="M73.28,25c0.08,0.59-0.01,1.14-0.3,1.66C72.05,29.08,70.96,31.47,68,35" id="kvg:07b52-s6" kvg:type="㇒/㇚" transform="matrix(1,0,0,1,496,-4)" xmlns:kvg="http://kanjivg.tagaini.net"></path><path class="stroke_order_diagram--current_path" d="M73.28,25c0.08,0.59-0.01,1.14-0.3,1.66C72.05,29.08,70.96,31.47,68,35" id="Ske24gk3v1k" kvg:type="㇒/㇚" transform="matrix(1,0,0,1,496,-4)" xmlns:kvg="http://kanjivg.tagaini.net"></path><circle class="stroke_order_diagram--path_start" cx="73.28" cy="25" r="4" transform="matrix(1,0,0,1,496,-4)"></circle><line class="stroke_order_diagram--guide_line" x1="650" x2="650" y1="1" y2="99"></line><line class="stroke_order_diagram--bounding_box" x1="699" x2="699" y1="1" y2="99"></line><path class="stroke_order_diagram--existing_path" d="M29.25,13c0.25,0.88-0.01,1.76-0.32,2.52c-2.05,4.98-6.3,12.6-12.68,20.48" id="Ske24gk3v1n" kvg:type="㇒" transform="matrix(1,0,0,1,596,-4)" xmlns:kvg="http://kanjivg.tagaini.net"></path><path class="stroke_order_diagram--existing_path" d="M27.23,26.12c3.38,0,13.35-1.4,19.52-2.12c1.72-0.2,3.2-0.33,4.25-0.33" id="Ske24gk3v1o" kvg:type="㇐b" transform="matrix(1,0,0,1,596,-4)" xmlns:kvg="http://kanjivg.tagaini.net"></path><path class="stroke_order_diagram--existing_path" d="M32.77,28.33c2.57,1.61,6.65,6.63,7.29,9.13" id="Ske24gk3v1p" kvg:type="㇔/㇑" transform="matrix(1,0,0,1,596,-4)" xmlns:kvg="http://kanjivg.tagaini.net"></path><path class="stroke_order_diagram--existing_path" d="M61.75,12.25c0.05,0.84,0.1,1.63-0.21,2.42C59.5,20,56.73,26.21,52.25,32" id="Ske24gk3v1q" kvg:type="㇒" transform="matrix(1,0,0,1,596,-4)" xmlns:kvg="http://kanjivg.tagaini.net"></path><path class="stroke_order_diagram--existing_path" d="M61.48,22.66c6.51-0.29,16.64-1.91,24.8-3.2c1.93-0.31,3.54-0.37,4.6-0.37" id="Ske24gk3v1r" kvg:type="㇐b" transform="matrix(1,0,0,1,596,-4)" xmlns:kvg="http://kanjivg.tagaini.net"></path><path class="stroke_order_diagram--existing_path" d="M73.28,25c0.08,0.59-0.01,1.14-0.3,1.66C72.05,29.08,70.96,31.47,68,35" id="Ske24gk3v1s" kvg:type="㇒/㇚" transform="matrix(1,0,0,1,596,-4)" xmlns:kvg="http://kanjivg.tagaini.net"></path><path class="stroke_order_diagram--current_path" d="M23.67,44.32c0.68,1.22,1.13,2.21,0.9,4.4c-0.18,1.71,0.02,27.56,0,40.78c0,3.77-0.01,6.5-0.01,7.31" id="kvg:07b52-s7" kvg:type="㇑" transform="matrix(1,0,0,1,596,-4)" xmlns:kvg="http://kanjivg.tagaini.net"></path><path class="stroke_order_diagram--current_path" d="M23.67,44.32c0.68,1.22,1.13,2.21,0.9,4.4c-0.18,1.71,0.02,27.56,0,40.78c0,3.77-0.01,6.5-0.01,7.31" id="Ske24gk3v1u" kvg:type="㇑" transform="matrix(1,0,0,1,596,-4)" xmlns:kvg="http://kanjivg.tagaini.net"></path><circle class="stroke_order_diagram--path_start" cx="23.67" cy="44.32" r="4" transform="matrix(1,0,0,1,596,-4)"></circle><line class="stroke_order_diagram--guide_line" x1="750" x2="750" y1="1" y2="99"></line><line class="stroke_order_diagram--bounding_box" x1="799" x2="799" y1="1" y2="99"></line><path class="stroke_order_diagram--existing_path" d="M29.25,13c0.25,0.88-0.01,1.76-0.32,2.52c-2.05,4.98-6.3,12.6-12.68,20.48" id="Ske24gk3v1x" kvg:type="㇒" transform="matrix(1,0,0,1,696,-4)" xmlns:kvg="http://kanjivg.tagaini.net"></path><path class="stroke_order_diagram--existing_path" d="M27.23,26.12c3.38,0,13.35-1.4,19.52-2.12c1.72-0.2,3.2-0.33,4.25-0.33" id="Ske24gk3v1y" kvg:type="㇐b" transform="matrix(1,0,0,1,696,-4)" xmlns:kvg="http://kanjivg.tagaini.net"></path><path class="stroke_order_diagram--existing_path" d="M32.77,28.33c2.57,1.61,6.65,6.63,7.29,9.13" id="Ske24gk3v1z" kvg:type="㇔/㇑" transform="matrix(1,0,0,1,696,-4)" xmlns:kvg="http://kanjivg.tagaini.net"></path><path class="stroke_order_diagram--existing_path" d="M61.75,12.25c0.05,0.84,0.1,1.63-0.21,2.42C59.5,20,56.73,26.21,52.25,32" id="Ske24gk3v20" kvg:type="㇒" transform="matrix(1,0,0,1,696,-4)" xmlns:kvg="http://kanjivg.tagaini.net"></path><path class="stroke_order_diagram--existing_path" d="M61.48,22.66c6.51-0.29,16.64-1.91,24.8-3.2c1.93-0.31,3.54-0.37,4.6-0.37" id="Ske24gk3v21" kvg:type="㇐b" transform="matrix(1,0,0,1,696,-4)" xmlns:kvg="http://kanjivg.tagaini.net"></path><path class="stroke_order_diagram--existing_path" d="M73.28,25c0.08,0.59-0.01,1.14-0.3,1.66C72.05,29.08,70.96,31.47,68,35" id="Ske24gk3v22" kvg:type="㇒/㇚" transform="matrix(1,0,0,1,696,-4)" xmlns:kvg="http://kanjivg.tagaini.net"></path><path class="stroke_order_diagram--existing_path" d="M23.67,44.32c0.68,1.22,1.13,2.21,0.9,4.4c-0.18,1.71,0.02,27.56,0,40.78c0,3.77-0.01,6.5-0.01,7.31" id="Ske24gk3v23" kvg:type="㇑" transform="matrix(1,0,0,1,696,-4)" xmlns:kvg="http://kanjivg.tagaini.net"></path><path class="stroke_order_diagram--current_path" d="M25.39,45.75c9.36-0.75,42.23-3.62,56.11-4.61c3.74-0.27,4.97,1.76,4.97,4.44c0,2.44-0.02,39.75-0.02,45.35c0,10.82-4.63,4.33-6.62,1.96" id="kvg:07b52-s8" kvg:type="㇆a" transform="matrix(1,0,0,1,696,-4)" xmlns:kvg="http://kanjivg.tagaini.net"></path><path class="stroke_order_diagram--current_path" d="M25.39,45.75c9.36-0.75,42.23-3.62,56.11-4.61c3.74-0.27,4.97,1.76,4.97,4.44c0,2.44-0.02,39.75-0.02,45.35c0,10.82-4.63,4.33-6.62,1.96" id="Ske24gk3v25" kvg:type="㇆a" transform="matrix(1,0,0,1,696,-4)" xmlns:kvg="http://kanjivg.tagaini.net"></path><circle class="stroke_order_diagram--path_start" cx="25.39" cy="45.75" r="4" transform="matrix(1,0,0,1,696,-4)"></circle><line class="stroke_order_diagram--guide_line" x1="850" x2="850" y1="1" y2="99"></line><line class="stroke_order_diagram--bounding_box" x1="899" x2="899" y1="1" y2="99"></line><path class="stroke_order_diagram--existing_path" d="M29.25,13c0.25,0.88-0.01,1.76-0.32,2.52c-2.05,4.98-6.3,12.6-12.68,20.48" id="Ske24gk3v28" kvg:type="㇒" transform="matrix(1,0,0,1,796,-4)" xmlns:kvg="http://kanjivg.tagaini.net"></path><path class="stroke_order_diagram--existing_path" d="M27.23,26.12c3.38,0,13.35-1.4,19.52-2.12c1.72-0.2,3.2-0.33,4.25-0.33" id="Ske24gk3v29" kvg:type="㇐b" transform="matrix(1,0,0,1,796,-4)" xmlns:kvg="http://kanjivg.tagaini.net"></path><path class="stroke_order_diagram--existing_path" d="M32.77,28.33c2.57,1.61,6.65,6.63,7.29,9.13" id="Ske24gk3v2a" kvg:type="㇔/㇑" transform="matrix(1,0,0,1,796,-4)" xmlns:kvg="http://kanjivg.tagaini.net"></path><path class="stroke_order_diagram--existing_path" d="M61.75,12.25c0.05,0.84,0.1,1.63-0.21,2.42C59.5,20,56.73,26.21,52.25,32" id="Ske24gk3v2b" kvg:type="㇒" transform="matrix(1,0,0,1,796,-4)" xmlns:kvg="http://kanjivg.tagaini.net"></path><path class="stroke_order_diagram--existing_path" d="M61.48,22.66c6.51-0.29,16.64-1.91,24.8-3.2c1.93-0.31,3.54-0.37,4.6-0.37" id="Ske24gk3v2c" kvg:type="㇐b" transform="matrix(1,0,0,1,796,-4)" xmlns:kvg="http://kanjivg.tagaini.net"></path><path class="stroke_order_diagram--existing_path" d="M73.28,25c0.08,0.59-0.01,1.14-0.3,1.66C72.05,29.08,70.96,31.47,68,35" id="Ske24gk3v2d" kvg:type="㇒/㇚" transform="matrix(1,0,0,1,796,-4)" xmlns:kvg="http://kanjivg.tagaini.net"></path><path class="stroke_order_diagram--existing_path" d="M23.67,44.32c0.68,1.22,1.13,2.21,0.9,4.4c-0.18,1.71,0.02,27.56,0,40.78c0,3.77-0.01,6.5-0.01,7.31" id="Ske24gk3v2e" kvg:type="㇑" transform="matrix(1,0,0,1,796,-4)" xmlns:kvg="http://kanjivg.tagaini.net"></path><path class="stroke_order_diagram--existing_path" d="M25.39,45.75c9.36-0.75,42.23-3.62,56.11-4.61c3.74-0.27,4.97,1.76,4.97,4.44c0,2.44-0.02,39.75-0.02,45.35c0,10.82-4.63,4.33-6.62,1.96" id="Ske24gk3v2f" kvg:type="㇆a" transform="matrix(1,0,0,1,796,-4)" xmlns:kvg="http://kanjivg.tagaini.net"></path><path class="stroke_order_diagram--current_path" d="M36.99,56.54c1.67,0.68,3.67,0.6,5.39,0.5c8.5-0.5,16.2-1.61,23.01-2.4c1.49-0.17,2.65-0.08,3.4,0.11" id="kvg:07b52-s9" kvg:type="㇐" transform="matrix(1,0,0,1,796,-4)" xmlns:kvg="http://kanjivg.tagaini.net"></path><path class="stroke_order_diagram--current_path" d="M36.99,56.54c1.67,0.68,3.67,0.6,5.39,0.5c8.5-0.5,16.2-1.61,23.01-2.4c1.49-0.17,2.65-0.08,3.4,0.11" id="Ske24gk3v2h" kvg:type="㇐" transform="matrix(1,0,0,1,796,-4)" xmlns:kvg="http://kanjivg.tagaini.net"></path><circle class="stroke_order_diagram--path_start" cx="36.99" cy="56.54" r="4" transform="matrix(1,0,0,1,796,-4)"></circle><line class="stroke_order_diagram--guide_line" x1="950" x2="950" y1="1" y2="99"></line><line class="stroke_order_diagram--bounding_box" x1="999" x2="999" y1="1" y2="99"></line><path class="stroke_order_diagram--existing_path" d="M29.25,13c0.25,0.88-0.01,1.76-0.32,2.52c-2.05,4.98-6.3,12.6-12.68,20.48" id="Ske24gk3v2k" kvg:type="㇒" transform="matrix(1,0,0,1,896,-4)" xmlns:kvg="http://kanjivg.tagaini.net"></path><path class="stroke_order_diagram--existing_path" d="M27.23,26.12c3.38,0,13.35-1.4,19.52-2.12c1.72-0.2,3.2-0.33,4.25-0.33" id="Ske24gk3v2l" kvg:type="㇐b" transform="matrix(1,0,0,1,896,-4)" xmlns:kvg="http://kanjivg.tagaini.net"></path><path class="stroke_order_diagram--existing_path" d="M32.77,28.33c2.57,1.61,6.65,6.63,7.29,9.13" id="Ske24gk3v2m" kvg:type="㇔/㇑" transform="matrix(1,0,0,1,896,-4)" xmlns:kvg="http://kanjivg.tagaini.net"></path><path class="stroke_order_diagram--existing_path" d="M61.75,12.25c0.05,0.84,0.1,1.63-0.21,2.42C59.5,20,56.73,26.21,52.25,32" id="Ske24gk3v2n" kvg:type="㇒" transform="matrix(1,0,0,1,896,-4)" xmlns:kvg="http://kanjivg.tagaini.net"></path><path class="stroke_order_diagram--existing_path" d="M61.48,22.66c6.51-0.29,16.64-1.91,24.8-3.2c1.93-0.31,3.54-0.37,4.6-0.37" id="Ske24gk3v2o" kvg:type="㇐b" transform="matrix(1,0,0,1,896,-4)" xmlns:kvg="http://kanjivg.tagaini.net"></path><path class="stroke_order_diagram--existing_path" d="M73.28,25c0.08,0.59-0.01,1.14-0.3,1.66C72.05,29.08,70.96,31.47,68,35" id="Ske24gk3v2p" kvg:type="㇒/㇚" transform="matrix(1,0,0,1,896,-4)" xmlns:kvg="http://kanjivg.tagaini.net"></path><path class="stroke_order_diagram--existing_path" d="M23.67,44.32c0.68,1.22,1.13,2.21,0.9,4.4c-0.18,1.71,0.02,27.56,0,40.78c0,3.77-0.01,6.5-0.01,7.31" id="Ske24gk3v2q" kvg:type="㇑" transform="matrix(1,0,0,1,896,-4)" xmlns:kvg="http://kanjivg.tagaini.net"></path><path class="stroke_order_diagram--existing_path" d="M25.39,45.75c9.36-0.75,42.23-3.62,56.11-4.61c3.74-0.27,4.97,1.76,4.97,4.44c0,2.44-0.02,39.75-0.02,45.35c0,10.82-4.63,4.33-6.62,1.96" id="Ske24gk3v2r" kvg:type="㇆a" transform="matrix(1,0,0,1,896,-4)" xmlns:kvg="http://kanjivg.tagaini.net"></path><path class="stroke_order_diagram--existing_path" d="M36.99,56.54c1.67,0.68,3.67,0.6,5.39,0.5c8.5-0.5,16.2-1.61,23.01-2.4c1.49-0.17,2.65-0.08,3.4,0.11" id="Ske24gk3v2s" kvg:type="㇐" transform="matrix(1,0,0,1,896,-4)" xmlns:kvg="http://kanjivg.tagaini.net"></path><path class="stroke_order_diagram--current_path" d="M37.14,69.01c0.61,0.61,1.28,1.9,1.48,2.91c0.89,3.95,1.12,5.97,1.68,9.86c0.25,1.71,0.51,3.36,0.81,4.78" id="kvg:07b52-s10" kvg:type="㇑" transform="matrix(1,0,0,1,896,-4)" xmlns:kvg="http://kanjivg.tagaini.net"></path><path class="stroke_order_diagram--current_path" d="M37.14,69.01c0.61,0.61,1.28,1.9,1.48,2.91c0.89,3.95,1.12,5.97,1.68,9.86c0.25,1.71,0.51,3.36,0.81,4.78" id="Ske24gk3v2u" kvg:type="㇑" transform="matrix(1,0,0,1,896,-4)" xmlns:kvg="http://kanjivg.tagaini.net"></path><circle class="stroke_order_diagram--path_start" cx="37.14" cy="69.01" r="4" transform="matrix(1,0,0,1,896,-4)"></circle><line class="stroke_order_diagram--guide_line" x1="1050" x2="1050" y1="1" y2="99"></line><line class="stroke_order_diagram--bounding_box" x1="1099" x2="1099" y1="1" y2="99"></line><path class="stroke_order_diagram--existing_path" d="M29.25,13c0.25,0.88-0.01,1.76-0.32,2.52c-2.05,4.98-6.3,12.6-12.68,20.48" id="Ske24gk3v2x" kvg:type="㇒" transform="matrix(1,0,0,1,996,-4)" xmlns:kvg="http://kanjivg.tagaini.net"></path><path class="stroke_order_diagram--existing_path" d="M27.23,26.12c3.38,0,13.35-1.4,19.52-2.12c1.72-0.2,3.2-0.33,4.25-0.33" id="Ske24gk3v2y" kvg:type="㇐b" transform="matrix(1,0,0,1,996,-4)" xmlns:kvg="http://kanjivg.tagaini.net"></path><path class="stroke_order_diagram--existing_path" d="M32.77,28.33c2.57,1.61,6.65,6.63,7.29,9.13" id="Ske24gk3v2z" kvg:type="㇔/㇑" transform="matrix(1,0,0,1,996,-4)" xmlns:kvg="http://kanjivg.tagaini.net"></path><path class="stroke_order_diagram--existing_path" d="M61.75,12.25c0.05,0.84,0.1,1.63-0.21,2.42C59.5,20,56.73,26.21,52.25,32" id="Ske24gk3v30" kvg:type="㇒" transform="matrix(1,0,0,1,996,-4)" xmlns:kvg="http://kanjivg.tagaini.net"></path><path class="stroke_order_diagram--existing_path" d="M61.48,22.66c6.51-0.29,16.64-1.91,24.8-3.2c1.93-0.31,3.54-0.37,4.6-0.37" id="Ske24gk3v31" kvg:type="㇐b" transform="matrix(1,0,0,1,996,-4)" xmlns:kvg="http://kanjivg.tagaini.net"></path><path class="stroke_order_diagram--existing_path" d="M73.28,25c0.08,0.59-0.01,1.14-0.3,1.66C72.05,29.08,70.96,31.47,68,35" id="Ske24gk3v32" kvg:type="㇒/㇚" transform="matrix(1,0,0,1,996,-4)" xmlns:kvg="http://kanjivg.tagaini.net"></path><path class="stroke_order_diagram--existing_path" d="M23.67,44.32c0.68,1.22,1.13,2.21,0.9,4.4c-0.18,1.71,0.02,27.56,0,40.78c0,3.77-0.01,6.5-0.01,7.31" id="Ske24gk3v33" kvg:type="㇑" transform="matrix(1,0,0,1,996,-4)" xmlns:kvg="http://kanjivg.tagaini.net"></path><path class="stroke_order_diagram--existing_path" d="M25.39,45.75c9.36-0.75,42.23-3.62,56.11-4.61c3.74-0.27,4.97,1.76,4.97,4.44c0,2.44-0.02,39.75-0.02,45.35c0,10.82-4.63,4.33-6.62,1.96" id="Ske24gk3v34" kvg:type="㇆a" transform="matrix(1,0,0,1,996,-4)" xmlns:kvg="http://kanjivg.tagaini.net"></path><path class="stroke_order_diagram--existing_path" d="M36.99,56.54c1.67,0.68,3.67,0.6,5.39,0.5c8.5-0.5,16.2-1.61,23.01-2.4c1.49-0.17,2.65-0.08,3.4,0.11" id="Ske24gk3v35" kvg:type="㇐" transform="matrix(1,0,0,1,996,-4)" xmlns:kvg="http://kanjivg.tagaini.net"></path><path class="stroke_order_diagram--existing_path" d="M37.14,69.01c0.61,0.61,1.28,1.9,1.48,2.91c0.89,3.95,1.12,5.97,1.68,9.86c0.25,1.71,0.51,3.36,0.81,4.78" id="Ske24gk3v36" kvg:type="㇑" transform="matrix(1,0,0,1,996,-4)" xmlns:kvg="http://kanjivg.tagaini.net"></path><path class="stroke_order_diagram--current_path" d="M39.37,70.33C49.75,69,60.46,67.94,66.1,67.52c2.67-0.2,3.21,1.07,2.54,3.27c-0.96,3.14-1.76,5.83-2.75,9.58" id="kvg:07b52-s11" kvg:type="㇕b" transform="matrix(1,0,0,1,996,-4)" xmlns:kvg="http://kanjivg.tagaini.net"></path><path class="stroke_order_diagram--current_path" d="M39.37,70.33C49.75,69,60.46,67.94,66.1,67.52c2.67-0.2,3.21,1.07,2.54,3.27c-0.96,3.14-1.76,5.83-2.75,9.58" id="Ske24gk3v38" kvg:type="㇕b" transform="matrix(1,0,0,1,996,-4)" xmlns:kvg="http://kanjivg.tagaini.net"></path><circle class="stroke_order_diagram--path_start" cx="39.37" cy="70.33" r="4" transform="matrix(1,0,0,1,996,-4)"></circle><line class="stroke_order_diagram--guide_line" x1="1150" x2="1150" y1="1" y2="99"></line><line class="stroke_order_diagram--bounding_box" x1="1199" x2="1199" y1="1" y2="99"></line><path class="stroke_order_diagram--existing_path" d="M29.25,13c0.25,0.88-0.01,1.76-0.32,2.52c-2.05,4.98-6.3,12.6-12.68,20.48" id="Ske24gk3v3b" kvg:type="㇒" transform="matrix(1,0,0,1,1096,-4)" xmlns:kvg="http://kanjivg.tagaini.net"></path><path class="stroke_order_diagram--existing_path" d="M27.23,26.12c3.38,0,13.35-1.4,19.52-2.12c1.72-0.2,3.2-0.33,4.25-0.33" id="Ske24gk3v3c" kvg:type="㇐b" transform="matrix(1,0,0,1,1096,-4)" xmlns:kvg="http://kanjivg.tagaini.net"></path><path class="stroke_order_diagram--existing_path" d="M32.77,28.33c2.57,1.61,6.65,6.63,7.29,9.13" id="Ske24gk3v3d" kvg:type="㇔/㇑" transform="matrix(1,0,0,1,1096,-4)" xmlns:kvg="http://kanjivg.tagaini.net"></path><path class="stroke_order_diagram--existing_path" d="M61.75,12.25c0.05,0.84,0.1,1.63-0.21,2.42C59.5,20,56.73,26.21,52.25,32" id="Ske24gk3v3e" kvg:type="㇒" transform="matrix(1,0,0,1,1096,-4)" xmlns:kvg="http://kanjivg.tagaini.net"></path><path class="stroke_order_diagram--existing_path" d="M61.48,22.66c6.51-0.29,16.64-1.91,24.8-3.2c1.93-0.31,3.54-0.37,4.6-0.37" id="Ske24gk3v3f" kvg:type="㇐b" transform="matrix(1,0,0,1,1096,-4)" xmlns:kvg="http://kanjivg.tagaini.net"></path><path class="stroke_order_diagram--existing_path" d="M73.28,25c0.08,0.59-0.01,1.14-0.3,1.66C72.05,29.08,70.96,31.47,68,35" id="Ske24gk3v3g" kvg:type="㇒/㇚" transform="matrix(1,0,0,1,1096,-4)" xmlns:kvg="http://kanjivg.tagaini.net"></path><path class="stroke_order_diagram--existing_path" d="M23.67,44.32c0.68,1.22,1.13,2.21,0.9,4.4c-0.18,1.71,0.02,27.56,0,40.78c0,3.77-0.01,6.5-0.01,7.31" id="Ske24gk3v3h" kvg:type="㇑" transform="matrix(1,0,0,1,1096,-4)" xmlns:kvg="http://kanjivg.tagaini.net"></path><path class="stroke_order_diagram--existing_path" d="M25.39,45.75c9.36-0.75,42.23-3.62,56.11-4.61c3.74-0.27,4.97,1.76,4.97,4.44c0,2.44-0.02,39.75-0.02,45.35c0,10.82-4.63,4.33-6.62,1.96" id="Ske24gk3v3i" kvg:type="㇆a" transform="matrix(1,0,0,1,1096,-4)" xmlns:kvg="http://kanjivg.tagaini.net"></path><path class="stroke_order_diagram--existing_path" d="M36.99,56.54c1.67,0.68,3.67,0.6,5.39,0.5c8.5-0.5,16.2-1.61,23.01-2.4c1.49-0.17,2.65-0.08,3.4,0.11" id="Ske24gk3v3j" kvg:type="㇐" transform="matrix(1,0,0,1,1096,-4)" xmlns:kvg="http://kanjivg.tagaini.net"></path><path class="stroke_order_diagram--existing_path" d="M37.14,69.01c0.61,0.61,1.28,1.9,1.48,2.91c0.89,3.95,1.12,5.97,1.68,9.86c0.25,1.71,0.51,3.36,0.81,4.78" id="Ske24gk3v3k" kvg:type="㇑" transform="matrix(1,0,0,1,1096,-4)" xmlns:kvg="http://kanjivg.tagaini.net"></path><path class="stroke_order_diagram--existing_path" d="M39.37,70.33C49.75,69,60.46,67.94,66.1,67.52c2.67-0.2,3.21,1.07,2.54,3.27c-0.96,3.14-1.76,5.83-2.75,9.58" id="Ske24gk3v3l" kvg:type="㇕b" transform="matrix(1,0,0,1,1096,-4)" xmlns:kvg="http://kanjivg.tagaini.net"></path><path class="stroke_order_diagram--current_path" d="M42.11,83.87c5.44-0.39,13.25-1.1,20.9-1.65c1.66-0.12,3.32-0.25,4.94-0.38" id="kvg:07b52-s12" kvg:type="㇐b" transform="matrix(1,0,0,1,1096,-4)" xmlns:kvg="http://kanjivg.tagaini.net"></path><path class="stroke_order_diagram--current_path" d="M42.11,83.87c5.44-0.39,13.25-1.1,20.9-1.65c1.66-0.12,3.32-0.25,4.94-0.38" id="Ske24gk3v3n" kvg:type="㇐b" transform="matrix(1,0,0,1,1096,-4)" xmlns:kvg="http://kanjivg.tagaini.net"></path><circle class="stroke_order_diagram--path_start" cx="42.11" cy="83.87" r="4" transform="matrix(1,0,0,1,1096,-4)"></circle></svg>