<svg class="stroke_order_diagram--svg_container_for_51866281d5dda79658000402" style="height: 100px; width: 1200px;" viewbox="0 0 1200 100"><desc>Created with Snap</desc><defs></defs><line class="stroke_order_diagram--bounding_box" x1="1" x2="1199" y1="1" y2="1"></line><line class="stroke_order_diagram--bounding_box" x1="1" x2="1" y1="1" y2="99"></line><line class="stroke_order_diagram--bounding_box" x1="1" x2="1199" y1="99" y2="99"></line><line class="stroke_order_diagram--guide_line" x1="0" x2="1200" y1="50" y2="50"></line><line class="stroke_order_diagram--guide_line" x1="50" x2="50" y1="1" y2="99"></line><line class="stroke_order_diagram--bounding_box" x1="99" x2="99" y1="1" y2="99"></line><path class="stroke_order_diagram--current_path" d="M29.5,11.5c0.08,1.11-0.03,1.82-0.47,2.86c-1.95,4.64-5.73,11.37-11.78,17.89" id="kvg:07b56-s1" kvg:type="㇒" transform="matrix(1,0,0,1,-4,-4)" xmlns:kvg="http://kanjivg.tagaini.net"></path><path class="stroke_order_diagram--current_path" d="M29.5,11.5c0.08,1.11-0.03,1.82-0.47,2.86c-1.95,4.64-5.73,11.37-11.78,17.89" id="Ske1vh3ksl" kvg:type="㇒" transform="matrix(1,0,0,1,-4,-4)" xmlns:kvg="http://kanjivg.tagaini.net"></path><circle class="stroke_order_diagram--path_start" cx="29.5" cy="11.5" r="4" transform="matrix(1,0,0,1,-4,-4)"></circle><line class="stroke_order_diagram--guide_line" x1="150" x2="150" y1="1" y2="99"></line><line class="stroke_order_diagram--bounding_box" x1="199" x2="199" y1="1" y2="99"></line><path class="stroke_order_diagram--existing_path" d="M29.5,11.5c0.08,1.11-0.03,1.82-0.47,2.86c-1.95,4.64-5.73,11.37-11.78,17.89" id="Ske1vh3kso" kvg:type="㇒" transform="matrix(1,0,0,1,96,-4)" xmlns:kvg="http://kanjivg.tagaini.net"></path><path class="stroke_order_diagram--current_path" d="M28.73,23.29c4.27-0.16,11.39-1.58,17.02-2.21C47.2,20.92,48.55,21,50,21" id="kvg:07b56-s2" kvg:type="㇐b" transform="matrix(1,0,0,1,96,-4)" xmlns:kvg="http://kanjivg.tagaini.net"></path><path class="stroke_order_diagram--current_path" d="M28.73,23.29c4.27-0.16,11.39-1.58,17.02-2.21C47.2,20.92,48.55,21,50,21" id="Ske1vh3ksq" kvg:type="㇐b" transform="matrix(1,0,0,1,96,-4)" xmlns:kvg="http://kanjivg.tagaini.net"></path><circle class="stroke_order_diagram--path_start" cx="28.73" cy="23.29" r="4" transform="matrix(1,0,0,1,96,-4)"></circle><line class="stroke_order_diagram--guide_line" x1="250" x2="250" y1="1" y2="99"></line><line class="stroke_order_diagram--bounding_box" x1="299" x2="299" y1="1" y2="99"></line><path class="stroke_order_diagram--existing_path" d="M29.5,11.5c0.08,1.11-0.03,1.82-0.47,2.86c-1.95,4.64-5.73,11.37-11.78,17.89" id="Ske1vh3kst" kvg:type="㇒" transform="matrix(1,0,0,1,196,-4)" xmlns:kvg="http://kanjivg.tagaini.net"></path><path class="stroke_order_diagram--existing_path" d="M28.73,23.29c4.27-0.16,11.39-1.58,17.02-2.21C47.2,20.92,48.55,21,50,21" id="Ske1vh3ksu" kvg:type="㇐b" transform="matrix(1,0,0,1,196,-4)" xmlns:kvg="http://kanjivg.tagaini.net"></path><path class="stroke_order_diagram--current_path" d="M35.52,25.96c1.44,1.37,4.18,6.12,4.54,8.26" id="kvg:07b56-s3" kvg:type="㇔/㇑" transform="matrix(1,0,0,1,196,-4)" xmlns:kvg="http://kanjivg.tagaini.net"></path><path class="stroke_order_diagram--current_path" d="M35.52,25.96c1.44,1.37,4.18,6.12,4.54,8.26" id="Ske1vh3ksw" kvg:type="㇔/㇑" transform="matrix(1,0,0,1,196,-4)" xmlns:kvg="http://kanjivg.tagaini.net"></path><circle class="stroke_order_diagram--path_start" cx="35.52" cy="25.96" r="4" transform="matrix(1,0,0,1,196,-4)"></circle><line class="stroke_order_diagram--guide_line" x1="350" x2="350" y1="1" y2="99"></line><line class="stroke_order_diagram--bounding_box" x1="399" x2="399" y1="1" y2="99"></line><path class="stroke_order_diagram--existing_path" d="M29.5,11.5c0.08,1.11-0.03,1.82-0.47,2.86c-1.95,4.64-5.73,11.37-11.78,17.89" id="Ske1vh3ksz" kvg:type="㇒" transform="matrix(1,0,0,1,296,-4)" xmlns:kvg="http://kanjivg.tagaini.net"></path><path class="stroke_order_diagram--existing_path" d="M28.73,23.29c4.27-0.16,11.39-1.58,17.02-2.21C47.2,20.92,48.55,21,50,21" id="Ske1vh3ks10" kvg:type="㇐b" transform="matrix(1,0,0,1,296,-4)" xmlns:kvg="http://kanjivg.tagaini.net"></path><path class="stroke_order_diagram--existing_path" d="M35.52,25.96c1.44,1.37,4.18,6.12,4.54,8.26" id="Ske1vh3ks11" kvg:type="㇔/㇑" transform="matrix(1,0,0,1,296,-4)" xmlns:kvg="http://kanjivg.tagaini.net"></path><path class="stroke_order_diagram--current_path" d="M65,8c0.1,0.88-0.02,1.73-0.39,2.53c-1.86,3.97-4.05,8.51-7.61,12.72" id="kvg:07b56-s4" kvg:type="㇒" transform="matrix(1,0,0,1,296,-4)" xmlns:kvg="http://kanjivg.tagaini.net"></path><path class="stroke_order_diagram--current_path" d="M65,8c0.1,0.88-0.02,1.73-0.39,2.53c-1.86,3.97-4.05,8.51-7.61,12.72" id="Ske1vh3ks13" kvg:type="㇒" transform="matrix(1,0,0,1,296,-4)" xmlns:kvg="http://kanjivg.tagaini.net"></path><circle class="stroke_order_diagram--path_start" cx="65" cy="8" r="4" transform="matrix(1,0,0,1,296,-4)"></circle><line class="stroke_order_diagram--guide_line" x1="450" x2="450" y1="1" y2="99"></line><line class="stroke_order_diagram--bounding_box" x1="499" x2="499" y1="1" y2="99"></line><path class="stroke_order_diagram--existing_path" d="M29.5,11.5c0.08,1.11-0.03,1.82-0.47,2.86c-1.95,4.64-5.73,11.37-11.78,17.89" id="Ske1vh3ks16" kvg:type="㇒" transform="matrix(1,0,0,1,396,-4)" xmlns:kvg="http://kanjivg.tagaini.net"></path><path class="stroke_order_diagram--existing_path" d="M28.73,23.29c4.27-0.16,11.39-1.58,17.02-2.21C47.2,20.92,48.55,21,50,21" id="Ske1vh3ks17" kvg:type="㇐b" transform="matrix(1,0,0,1,396,-4)" xmlns:kvg="http://kanjivg.tagaini.net"></path><path class="stroke_order_diagram--existing_path" d="M35.52,25.96c1.44,1.37,4.18,6.12,4.54,8.26" id="Ske1vh3ks18" kvg:type="㇔/㇑" transform="matrix(1,0,0,1,396,-4)" xmlns:kvg="http://kanjivg.tagaini.net"></path><path class="stroke_order_diagram--existing_path" d="M65,8c0.1,0.88-0.02,1.73-0.39,2.53c-1.86,3.97-4.05,8.51-7.61,12.72" id="Ske1vh3ks19" kvg:type="㇒" transform="matrix(1,0,0,1,396,-4)" xmlns:kvg="http://kanjivg.tagaini.net"></path><path class="stroke_order_diagram--current_path" d="M63.48,20.41c5.14-0.16,13.51-1.61,21.77-2.68c1.75-0.23,2.87-0.14,3.63-0.14" id="kvg:07b56-s5" kvg:type="㇐b" transform="matrix(1,0,0,1,396,-4)" xmlns:kvg="http://kanjivg.tagaini.net"></path><path class="stroke_order_diagram--current_path" d="M63.48,20.41c5.14-0.16,13.51-1.61,21.77-2.68c1.75-0.23,2.87-0.14,3.63-0.14" id="Ske1vh3ks1b" kvg:type="㇐b" transform="matrix(1,0,0,1,396,-4)" xmlns:kvg="http://kanjivg.tagaini.net"></path><circle class="stroke_order_diagram--path_start" cx="63.48" cy="20.41" r="4" transform="matrix(1,0,0,1,396,-4)"></circle><line class="stroke_order_diagram--guide_line" x1="550" x2="550" y1="1" y2="99"></line><line class="stroke_order_diagram--bounding_box" x1="599" x2="599" y1="1" y2="99"></line><path class="stroke_order_diagram--existing_path" d="M29.5,11.5c0.08,1.11-0.03,1.82-0.47,2.86c-1.95,4.64-5.73,11.37-11.78,17.89" id="Ske1vh3ks1e" kvg:type="㇒" transform="matrix(1,0,0,1,496,-4)" xmlns:kvg="http://kanjivg.tagaini.net"></path><path class="stroke_order_diagram--existing_path" d="M28.73,23.29c4.27-0.16,11.39-1.58,17.02-2.21C47.2,20.92,48.55,21,50,21" id="Ske1vh3ks1f" kvg:type="㇐b" transform="matrix(1,0,0,1,496,-4)" xmlns:kvg="http://kanjivg.tagaini.net"></path><path class="stroke_order_diagram--existing_path" d="M35.52,25.96c1.44,1.37,4.18,6.12,4.54,8.26" id="Ske1vh3ks1g" kvg:type="㇔/㇑" transform="matrix(1,0,0,1,496,-4)" xmlns:kvg="http://kanjivg.tagaini.net"></path><path class="stroke_order_diagram--existing_path" d="M65,8c0.1,0.88-0.02,1.73-0.39,2.53c-1.86,3.97-4.05,8.51-7.61,12.72" id="Ske1vh3ks1h" kvg:type="㇒" transform="matrix(1,0,0,1,496,-4)" xmlns:kvg="http://kanjivg.tagaini.net"></path><path class="stroke_order_diagram--existing_path" d="M63.48,20.41c5.14-0.16,13.51-1.61,21.77-2.68c1.75-0.23,2.87-0.14,3.63-0.14" id="Ske1vh3ks1i" kvg:type="㇐b" transform="matrix(1,0,0,1,496,-4)" xmlns:kvg="http://kanjivg.tagaini.net"></path><path class="stroke_order_diagram--current_path" d="M72.78,22.25c0.01,0.24,0.03,0.61-0.03,0.95c-0.36,2-2.42,6.37-5.25,9.05" id="kvg:07b56-s6" kvg:type="㇒/㇚" transform="matrix(1,0,0,1,496,-4)" xmlns:kvg="http://kanjivg.tagaini.net"></path><path class="stroke_order_diagram--current_path" d="M72.78,22.25c0.01,0.24,0.03,0.61-0.03,0.95c-0.36,2-2.42,6.37-5.25,9.05" id="Ske1vh3ks1k" kvg:type="㇒/㇚" transform="matrix(1,0,0,1,496,-4)" xmlns:kvg="http://kanjivg.tagaini.net"></path><circle class="stroke_order_diagram--path_start" cx="72.78" cy="22.25" r="4" transform="matrix(1,0,0,1,496,-4)"></circle><line class="stroke_order_diagram--guide_line" x1="650" x2="650" y1="1" y2="99"></line><line class="stroke_order_diagram--bounding_box" x1="699" x2="699" y1="1" y2="99"></line><path class="stroke_order_diagram--existing_path" d="M29.5,11.5c0.08,1.11-0.03,1.82-0.47,2.86c-1.95,4.64-5.73,11.37-11.78,17.89" id="Ske1vh3ks1n" kvg:type="㇒" transform="matrix(1,0,0,1,596,-4)" xmlns:kvg="http://kanjivg.tagaini.net"></path><path class="stroke_order_diagram--existing_path" d="M28.73,23.29c4.27-0.16,11.39-1.58,17.02-2.21C47.2,20.92,48.55,21,50,21" id="Ske1vh3ks1o" kvg:type="㇐b" transform="matrix(1,0,0,1,596,-4)" xmlns:kvg="http://kanjivg.tagaini.net"></path><path class="stroke_order_diagram--existing_path" d="M35.52,25.96c1.44,1.37,4.18,6.12,4.54,8.26" id="Ske1vh3ks1p" kvg:type="㇔/㇑" transform="matrix(1,0,0,1,596,-4)" xmlns:kvg="http://kanjivg.tagaini.net"></path><path class="stroke_order_diagram--existing_path" d="M65,8c0.1,0.88-0.02,1.73-0.39,2.53c-1.86,3.97-4.05,8.51-7.61,12.72" id="Ske1vh3ks1q" kvg:type="㇒" transform="matrix(1,0,0,1,596,-4)" xmlns:kvg="http://kanjivg.tagaini.net"></path><path class="stroke_order_diagram--existing_path" d="M63.48,20.41c5.14-0.16,13.51-1.61,21.77-2.68c1.75-0.23,2.87-0.14,3.63-0.14" id="Ske1vh3ks1r" kvg:type="㇐b" transform="matrix(1,0,0,1,596,-4)" xmlns:kvg="http://kanjivg.tagaini.net"></path><path class="stroke_order_diagram--existing_path" d="M72.78,22.25c0.01,0.24,0.03,0.61-0.03,0.95c-0.36,2-2.42,6.37-5.25,9.05" id="Ske1vh3ks1s" kvg:type="㇒/㇚" transform="matrix(1,0,0,1,596,-4)" xmlns:kvg="http://kanjivg.tagaini.net"></path><path class="stroke_order_diagram--current_path" d="M28.25,41.7c2.5,0.43,5.34,0.27,8.01-0.09c9.09-1.23,21.36-2.37,34.61-3.27c2.48-0.17,5.23-0.6,7.63,0.24" id="kvg:07b56-s7" kvg:type="㇐" transform="matrix(1,0,0,1,596,-4)" xmlns:kvg="http://kanjivg.tagaini.net"></path><path class="stroke_order_diagram--current_path" d="M28.25,41.7c2.5,0.43,5.34,0.27,8.01-0.09c9.09-1.23,21.36-2.37,34.61-3.27c2.48-0.17,5.23-0.6,7.63,0.24" id="Ske1vh3ks1u" kvg:type="㇐" transform="matrix(1,0,0,1,596,-4)" xmlns:kvg="http://kanjivg.tagaini.net"></path><circle class="stroke_order_diagram--path_start" cx="28.25" cy="41.7" r="4" transform="matrix(1,0,0,1,596,-4)"></circle><line class="stroke_order_diagram--guide_line" x1="750" x2="750" y1="1" y2="99"></line><line class="stroke_order_diagram--bounding_box" x1="799" x2="799" y1="1" y2="99"></line><path class="stroke_order_diagram--existing_path" d="M29.5,11.5c0.08,1.11-0.03,1.82-0.47,2.86c-1.95,4.64-5.73,11.37-11.78,17.89" id="Ske1vh3ks1x" kvg:type="㇒" transform="matrix(1,0,0,1,696,-4)" xmlns:kvg="http://kanjivg.tagaini.net"></path><path class="stroke_order_diagram--existing_path" d="M28.73,23.29c4.27-0.16,11.39-1.58,17.02-2.21C47.2,20.92,48.55,21,50,21" id="Ske1vh3ks1y" kvg:type="㇐b" transform="matrix(1,0,0,1,696,-4)" xmlns:kvg="http://kanjivg.tagaini.net"></path><path class="stroke_order_diagram--existing_path" d="M35.52,25.96c1.44,1.37,4.18,6.12,4.54,8.26" id="Ske1vh3ks1z" kvg:type="㇔/㇑" transform="matrix(1,0,0,1,696,-4)" xmlns:kvg="http://kanjivg.tagaini.net"></path><path class="stroke_order_diagram--existing_path" d="M65,8c0.1,0.88-0.02,1.73-0.39,2.53c-1.86,3.97-4.05,8.51-7.61,12.72" id="Ske1vh3ks20" kvg:type="㇒" transform="matrix(1,0,0,1,696,-4)" xmlns:kvg="http://kanjivg.tagaini.net"></path><path class="stroke_order_diagram--existing_path" d="M63.48,20.41c5.14-0.16,13.51-1.61,21.77-2.68c1.75-0.23,2.87-0.14,3.63-0.14" id="Ske1vh3ks21" kvg:type="㇐b" transform="matrix(1,0,0,1,696,-4)" xmlns:kvg="http://kanjivg.tagaini.net"></path><path class="stroke_order_diagram--existing_path" d="M72.78,22.25c0.01,0.24,0.03,0.61-0.03,0.95c-0.36,2-2.42,6.37-5.25,9.05" id="Ske1vh3ks22" kvg:type="㇒/㇚" transform="matrix(1,0,0,1,696,-4)" xmlns:kvg="http://kanjivg.tagaini.net"></path><path class="stroke_order_diagram--existing_path" d="M28.25,41.7c2.5,0.43,5.34,0.27,8.01-0.09c9.09-1.23,21.36-2.37,34.61-3.27c2.48-0.17,5.23-0.6,7.63,0.24" id="Ske1vh3ks23" kvg:type="㇐" transform="matrix(1,0,0,1,696,-4)" xmlns:kvg="http://kanjivg.tagaini.net"></path><path class="stroke_order_diagram--current_path" d="M27.5,52.38c0.81,0.81,1.19,2.23,1.49,3.75c0.53,2.67,1.18,7.07,1.62,10.83c0.2,1.69,0.41,3.25,0.64,4.47" id="kvg:07b56-s8" kvg:type="㇑" transform="matrix(1,0,0,1,696,-4)" xmlns:kvg="http://kanjivg.tagaini.net"></path><path class="stroke_order_diagram--current_path" d="M27.5,52.38c0.81,0.81,1.19,2.23,1.49,3.75c0.53,2.67,1.18,7.07,1.62,10.83c0.2,1.69,0.41,3.25,0.64,4.47" id="Ske1vh3ks25" kvg:type="㇑" transform="matrix(1,0,0,1,696,-4)" xmlns:kvg="http://kanjivg.tagaini.net"></path><circle class="stroke_order_diagram--path_start" cx="27.5" cy="52.38" r="4" transform="matrix(1,0,0,1,696,-4)"></circle><line class="stroke_order_diagram--guide_line" x1="850" x2="850" y1="1" y2="99"></line><line class="stroke_order_diagram--bounding_box" x1="899" x2="899" y1="1" y2="99"></line><path class="stroke_order_diagram--existing_path" d="M29.5,11.5c0.08,1.11-0.03,1.82-0.47,2.86c-1.95,4.64-5.73,11.37-11.78,17.89" id="Ske1vh3ks28" kvg:type="㇒" transform="matrix(1,0,0,1,796,-4)" xmlns:kvg="http://kanjivg.tagaini.net"></path><path class="stroke_order_diagram--existing_path" d="M28.73,23.29c4.27-0.16,11.39-1.58,17.02-2.21C47.2,20.92,48.55,21,50,21" id="Ske1vh3ks29" kvg:type="㇐b" transform="matrix(1,0,0,1,796,-4)" xmlns:kvg="http://kanjivg.tagaini.net"></path><path class="stroke_order_diagram--existing_path" d="M35.52,25.96c1.44,1.37,4.18,6.12,4.54,8.26" id="Ske1vh3ks2a" kvg:type="㇔/㇑" transform="matrix(1,0,0,1,796,-4)" xmlns:kvg="http://kanjivg.tagaini.net"></path><path class="stroke_order_diagram--existing_path" d="M65,8c0.1,0.88-0.02,1.73-0.39,2.53c-1.86,3.97-4.05,8.51-7.61,12.72" id="Ske1vh3ks2b" kvg:type="㇒" transform="matrix(1,0,0,1,796,-4)" xmlns:kvg="http://kanjivg.tagaini.net"></path><path class="stroke_order_diagram--existing_path" d="M63.48,20.41c5.14-0.16,13.51-1.61,21.77-2.68c1.75-0.23,2.87-0.14,3.63-0.14" id="Ske1vh3ks2c" kvg:type="㇐b" transform="matrix(1,0,0,1,796,-4)" xmlns:kvg="http://kanjivg.tagaini.net"></path><path class="stroke_order_diagram--existing_path" d="M72.78,22.25c0.01,0.24,0.03,0.61-0.03,0.95c-0.36,2-2.42,6.37-5.25,9.05" id="Ske1vh3ks2d" kvg:type="㇒/㇚" transform="matrix(1,0,0,1,796,-4)" xmlns:kvg="http://kanjivg.tagaini.net"></path><path class="stroke_order_diagram--existing_path" d="M28.25,41.7c2.5,0.43,5.34,0.27,8.01-0.09c9.09-1.23,21.36-2.37,34.61-3.27c2.48-0.17,5.23-0.6,7.63,0.24" id="Ske1vh3ks2e" kvg:type="㇐" transform="matrix(1,0,0,1,796,-4)" xmlns:kvg="http://kanjivg.tagaini.net"></path><path class="stroke_order_diagram--existing_path" d="M27.5,52.38c0.81,0.81,1.19,2.23,1.49,3.75c0.53,2.67,1.18,7.07,1.62,10.83c0.2,1.69,0.41,3.25,0.64,4.47" id="Ske1vh3ks2f" kvg:type="㇑" transform="matrix(1,0,0,1,796,-4)" xmlns:kvg="http://kanjivg.tagaini.net"></path><path class="stroke_order_diagram--current_path" d="M29.74,54.27C39.75,53,74.1,49.22,75.48,48.98c2.94-0.51,4.54,0.94,4.53,3.48C80,56.25,79.23,61,77.46,64.6c-2.96,6.01-3.63,3.24-5.84,1.02" id="kvg:07b56-s9" kvg:type="㇆a" transform="matrix(1,0,0,1,796,-4)" xmlns:kvg="http://kanjivg.tagaini.net"></path><path class="stroke_order_diagram--current_path" d="M29.74,54.27C39.75,53,74.1,49.22,75.48,48.98c2.94-0.51,4.54,0.94,4.53,3.48C80,56.25,79.23,61,77.46,64.6c-2.96,6.01-3.63,3.24-5.84,1.02" id="Ske1vh3ks2h" kvg:type="㇆a" transform="matrix(1,0,0,1,796,-4)" xmlns:kvg="http://kanjivg.tagaini.net"></path><circle class="stroke_order_diagram--path_start" cx="29.74" cy="54.27" r="4" transform="matrix(1,0,0,1,796,-4)"></circle><line class="stroke_order_diagram--guide_line" x1="950" x2="950" y1="1" y2="99"></line><line class="stroke_order_diagram--bounding_box" x1="999" x2="999" y1="1" y2="99"></line><path class="stroke_order_diagram--existing_path" d="M29.5,11.5c0.08,1.11-0.03,1.82-0.47,2.86c-1.95,4.64-5.73,11.37-11.78,17.89" id="Ske1vh3ks2k" kvg:type="㇒" transform="matrix(1,0,0,1,896,-4)" xmlns:kvg="http://kanjivg.tagaini.net"></path><path class="stroke_order_diagram--existing_path" d="M28.73,23.29c4.27-0.16,11.39-1.58,17.02-2.21C47.2,20.92,48.55,21,50,21" id="Ske1vh3ks2l" kvg:type="㇐b" transform="matrix(1,0,0,1,896,-4)" xmlns:kvg="http://kanjivg.tagaini.net"></path><path class="stroke_order_diagram--existing_path" d="M35.52,25.96c1.44,1.37,4.18,6.12,4.54,8.26" id="Ske1vh3ks2m" kvg:type="㇔/㇑" transform="matrix(1,0,0,1,896,-4)" xmlns:kvg="http://kanjivg.tagaini.net"></path><path class="stroke_order_diagram--existing_path" d="M65,8c0.1,0.88-0.02,1.73-0.39,2.53c-1.86,3.97-4.05,8.51-7.61,12.72" id="Ske1vh3ks2n" kvg:type="㇒" transform="matrix(1,0,0,1,896,-4)" xmlns:kvg="http://kanjivg.tagaini.net"></path><path class="stroke_order_diagram--existing_path" d="M63.48,20.41c5.14-0.16,13.51-1.61,21.77-2.68c1.75-0.23,2.87-0.14,3.63-0.14" id="Ske1vh3ks2o" kvg:type="㇐b" transform="matrix(1,0,0,1,896,-4)" xmlns:kvg="http://kanjivg.tagaini.net"></path><path class="stroke_order_diagram--existing_path" d="M72.78,22.25c0.01,0.24,0.03,0.61-0.03,0.95c-0.36,2-2.42,6.37-5.25,9.05" id="Ske1vh3ks2p" kvg:type="㇒/㇚" transform="matrix(1,0,0,1,896,-4)" xmlns:kvg="http://kanjivg.tagaini.net"></path><path class="stroke_order_diagram--existing_path" d="M28.25,41.7c2.5,0.43,5.34,0.27,8.01-0.09c9.09-1.23,21.36-2.37,34.61-3.27c2.48-0.17,5.23-0.6,7.63,0.24" id="Ske1vh3ks2q" kvg:type="㇐" transform="matrix(1,0,0,1,896,-4)" xmlns:kvg="http://kanjivg.tagaini.net"></path><path class="stroke_order_diagram--existing_path" d="M27.5,52.38c0.81,0.81,1.19,2.23,1.49,3.75c0.53,2.67,1.18,7.07,1.62,10.83c0.2,1.69,0.41,3.25,0.64,4.47" id="Ske1vh3ks2r" kvg:type="㇑" transform="matrix(1,0,0,1,896,-4)" xmlns:kvg="http://kanjivg.tagaini.net"></path><path class="stroke_order_diagram--existing_path" d="M29.74,54.27C39.75,53,74.1,49.22,75.48,48.98c2.94-0.51,4.54,0.94,4.53,3.48C80,56.25,79.23,61,77.46,64.6c-2.96,6.01-3.63,3.24-5.84,1.02" id="Ske1vh3ks2s" kvg:type="㇆a" transform="matrix(1,0,0,1,896,-4)" xmlns:kvg="http://kanjivg.tagaini.net"></path><path class="stroke_order_diagram--current_path" d="M53.03,29.75c1.05,1.04,1.41,2.75,1.41,4.12c0,3.55-0.03,44.16-0.04,60.76c0,3.32,0,5.69,0,6.62" id="kvg:07b56-s10" kvg:type="㇑" transform="matrix(1,0,0,1,896,-4)" xmlns:kvg="http://kanjivg.tagaini.net"></path><path class="stroke_order_diagram--current_path" d="M53.03,29.75c1.05,1.04,1.41,2.75,1.41,4.12c0,3.55-0.03,44.16-0.04,60.76c0,3.32,0,5.69,0,6.62" id="Ske1vh3ks2u" kvg:type="㇑" transform="matrix(1,0,0,1,896,-4)" xmlns:kvg="http://kanjivg.tagaini.net"></path><circle class="stroke_order_diagram--path_start" cx="53.03" cy="29.75" r="4" transform="matrix(1,0,0,1,896,-4)"></circle><line class="stroke_order_diagram--guide_line" x1="1050" x2="1050" y1="1" y2="99"></line><line class="stroke_order_diagram--bounding_box" x1="1099" x2="1099" y1="1" y2="99"></line><path class="stroke_order_diagram--existing_path" d="M29.5,11.5c0.08,1.11-0.03,1.82-0.47,2.86c-1.95,4.64-5.73,11.37-11.78,17.89" id="Ske1vh3ks2x" kvg:type="㇒" transform="matrix(1,0,0,1,996,-4)" xmlns:kvg="http://kanjivg.tagaini.net"></path><path class="stroke_order_diagram--existing_path" d="M28.73,23.29c4.27-0.16,11.39-1.58,17.02-2.21C47.2,20.92,48.55,21,50,21" id="Ske1vh3ks2y" kvg:type="㇐b" transform="matrix(1,0,0,1,996,-4)" xmlns:kvg="http://kanjivg.tagaini.net"></path><path class="stroke_order_diagram--existing_path" d="M35.52,25.96c1.44,1.37,4.18,6.12,4.54,8.26" id="Ske1vh3ks2z" kvg:type="㇔/㇑" transform="matrix(1,0,0,1,996,-4)" xmlns:kvg="http://kanjivg.tagaini.net"></path><path class="stroke_order_diagram--existing_path" d="M65,8c0.1,0.88-0.02,1.73-0.39,2.53c-1.86,3.97-4.05,8.51-7.61,12.72" id="Ske1vh3ks30" kvg:type="㇒" transform="matrix(1,0,0,1,996,-4)" xmlns:kvg="http://kanjivg.tagaini.net"></path><path class="stroke_order_diagram--existing_path" d="M63.48,20.41c5.14-0.16,13.51-1.61,21.77-2.68c1.75-0.23,2.87-0.14,3.63-0.14" id="Ske1vh3ks31" kvg:type="㇐b" transform="matrix(1,0,0,1,996,-4)" xmlns:kvg="http://kanjivg.tagaini.net"></path><path class="stroke_order_diagram--existing_path" d="M72.78,22.25c0.01,0.24,0.03,0.61-0.03,0.95c-0.36,2-2.42,6.37-5.25,9.05" id="Ske1vh3ks32" kvg:type="㇒/㇚" transform="matrix(1,0,0,1,996,-4)" xmlns:kvg="http://kanjivg.tagaini.net"></path><path class="stroke_order_diagram--existing_path" d="M28.25,41.7c2.5,0.43,5.34,0.27,8.01-0.09c9.09-1.23,21.36-2.37,34.61-3.27c2.48-0.17,5.23-0.6,7.63,0.24" id="Ske1vh3ks33" kvg:type="㇐" transform="matrix(1,0,0,1,996,-4)" xmlns:kvg="http://kanjivg.tagaini.net"></path><path class="stroke_order_diagram--existing_path" d="M27.5,52.38c0.81,0.81,1.19,2.23,1.49,3.75c0.53,2.67,1.18,7.07,1.62,10.83c0.2,1.69,0.41,3.25,0.64,4.47" id="Ske1vh3ks34" kvg:type="㇑" transform="matrix(1,0,0,1,996,-4)" xmlns:kvg="http://kanjivg.tagaini.net"></path><path class="stroke_order_diagram--existing_path" d="M29.74,54.27C39.75,53,74.1,49.22,75.48,48.98c2.94-0.51,4.54,0.94,4.53,3.48C80,56.25,79.23,61,77.46,64.6c-2.96,6.01-3.63,3.24-5.84,1.02" id="Ske1vh3ks35" kvg:type="㇆a" transform="matrix(1,0,0,1,996,-4)" xmlns:kvg="http://kanjivg.tagaini.net"></path><path class="stroke_order_diagram--existing_path" d="M53.03,29.75c1.05,1.04,1.41,2.75,1.41,4.12c0,3.55-0.03,44.16-0.04,60.76c0,3.32,0,5.69,0,6.62" id="Ske1vh3ks36" kvg:type="㇑" transform="matrix(1,0,0,1,996,-4)" xmlns:kvg="http://kanjivg.tagaini.net"></path><path class="stroke_order_diagram--current_path" d="M52.5,62.7c0,1.05-0.66,2.74-1.35,3.66c-7.54,10.13-21.99,22.25-34.4,27.57" id="kvg:07b56-s11" kvg:type="㇒" transform="matrix(1,0,0,1,996,-4)" xmlns:kvg="http://kanjivg.tagaini.net"></path><path class="stroke_order_diagram--current_path" d="M52.5,62.7c0,1.05-0.66,2.74-1.35,3.66c-7.54,10.13-21.99,22.25-34.4,27.57" id="Ske1vh3ks38" kvg:type="㇒" transform="matrix(1,0,0,1,996,-4)" xmlns:kvg="http://kanjivg.tagaini.net"></path><circle class="stroke_order_diagram--path_start" cx="52.5" cy="62.7" r="4" transform="matrix(1,0,0,1,996,-4)"></circle><line class="stroke_order_diagram--guide_line" x1="1150" x2="1150" y1="1" y2="99"></line><line class="stroke_order_diagram--bounding_box" x1="1199" x2="1199" y1="1" y2="99"></line><path class="stroke_order_diagram--existing_path" d="M29.5,11.5c0.08,1.11-0.03,1.82-0.47,2.86c-1.95,4.64-5.73,11.37-11.78,17.89" id="Ske1vh3ks3b" kvg:type="㇒" transform="matrix(1,0,0,1,1096,-4)" xmlns:kvg="http://kanjivg.tagaini.net"></path><path class="stroke_order_diagram--existing_path" d="M28.73,23.29c4.27-0.16,11.39-1.58,17.02-2.21C47.2,20.92,48.55,21,50,21" id="Ske1vh3ks3c" kvg:type="㇐b" transform="matrix(1,0,0,1,1096,-4)" xmlns:kvg="http://kanjivg.tagaini.net"></path><path class="stroke_order_diagram--existing_path" d="M35.52,25.96c1.44,1.37,4.18,6.12,4.54,8.26" id="Ske1vh3ks3d" kvg:type="㇔/㇑" transform="matrix(1,0,0,1,1096,-4)" xmlns:kvg="http://kanjivg.tagaini.net"></path><path class="stroke_order_diagram--existing_path" d="M65,8c0.1,0.88-0.02,1.73-0.39,2.53c-1.86,3.97-4.05,8.51-7.61,12.72" id="Ske1vh3ks3e" kvg:type="㇒" transform="matrix(1,0,0,1,1096,-4)" xmlns:kvg="http://kanjivg.tagaini.net"></path><path class="stroke_order_diagram--existing_path" d="M63.48,20.41c5.14-0.16,13.51-1.61,21.77-2.68c1.75-0.23,2.87-0.14,3.63-0.14" id="Ske1vh3ks3f" kvg:type="㇐b" transform="matrix(1,0,0,1,1096,-4)" xmlns:kvg="http://kanjivg.tagaini.net"></path><path class="stroke_order_diagram--existing_path" d="M72.78,22.25c0.01,0.24,0.03,0.61-0.03,0.95c-0.36,2-2.42,6.37-5.25,9.05" id="Ske1vh3ks3g" kvg:type="㇒/㇚" transform="matrix(1,0,0,1,1096,-4)" xmlns:kvg="http://kanjivg.tagaini.net"></path><path class="stroke_order_diagram--existing_path" d="M28.25,41.7c2.5,0.43,5.34,0.27,8.01-0.09c9.09-1.23,21.36-2.37,34.61-3.27c2.48-0.17,5.23-0.6,7.63,0.24" id="Ske1vh3ks3h" kvg:type="㇐" transform="matrix(1,0,0,1,1096,-4)" xmlns:kvg="http://kanjivg.tagaini.net"></path><path class="stroke_order_diagram--existing_path" d="M27.5,52.38c0.81,0.81,1.19,2.23,1.49,3.75c0.53,2.67,1.18,7.07,1.62,10.83c0.2,1.69,0.41,3.25,0.64,4.47" id="Ske1vh3ks3i" kvg:type="㇑" transform="matrix(1,0,0,1,1096,-4)" xmlns:kvg="http://kanjivg.tagaini.net"></path><path class="stroke_order_diagram--existing_path" d="M29.74,54.27C39.75,53,74.1,49.22,75.48,48.98c2.94-0.51,4.54,0.94,4.53,3.48C80,56.25,79.23,61,77.46,64.6c-2.96,6.01-3.63,3.24-5.84,1.02" id="Ske1vh3ks3j" kvg:type="㇆a" transform="matrix(1,0,0,1,1096,-4)" xmlns:kvg="http://kanjivg.tagaini.net"></path><path class="stroke_order_diagram--existing_path" d="M53.03,29.75c1.05,1.04,1.41,2.75,1.41,4.12c0,3.55-0.03,44.16-0.04,60.76c0,3.32,0,5.69,0,6.62" id="Ske1vh3ks3k" kvg:type="㇑" transform="matrix(1,0,0,1,1096,-4)" xmlns:kvg="http://kanjivg.tagaini.net"></path><path class="stroke_order_diagram--existing_path" d="M52.5,62.7c0,1.05-0.66,2.74-1.35,3.66c-7.54,10.13-21.99,22.25-34.4,27.57" id="Ske1vh3ks3l" kvg:type="㇒" transform="matrix(1,0,0,1,1096,-4)" xmlns:kvg="http://kanjivg.tagaini.net"></path><path class="stroke_order_diagram--current_path" d="M55.5,64.38c3.87,2.86,17.33,14,25.84,20.38c2.01,1.5,5.16,3.62,8.91,5.12" id="kvg:07b56-s12" kvg:type="㇏" transform="matrix(1,0,0,1,1096,-4)" xmlns:kvg="http://kanjivg.tagaini.net"></path><path class="stroke_order_diagram--current_path" d="M55.5,64.38c3.87,2.86,17.33,14,25.84,20.38c2.01,1.5,5.16,3.62,8.91,5.12" id="Ske1vh3ks3n" kvg:type="㇏" transform="matrix(1,0,0,1,1096,-4)" xmlns:kvg="http://kanjivg.tagaini.net"></path><circle class="stroke_order_diagram--path_start" cx="55.5" cy="64.38" r="4" transform="matrix(1,0,0,1,1096,-4)"></circle></svg>