<svg class="stroke_order_diagram--svg_container_for_51866289d5dda79658000621" style="height: 100px; width: 1300px;" viewbox="0 0 1300 100"><desc>Created with Snap</desc><defs></defs><line class="stroke_order_diagram--bounding_box" x1="1" x2="1299" y1="1" y2="1"></line><line class="stroke_order_diagram--bounding_box" x1="1" x2="1" y1="1" y2="99"></line><line class="stroke_order_diagram--bounding_box" x1="1" x2="1299" y1="99" y2="99"></line><line class="stroke_order_diagram--guide_line" x1="0" x2="1300" y1="50" y2="50"></line><line class="stroke_order_diagram--guide_line" x1="50" x2="50" y1="1" y2="99"></line><line class="stroke_order_diagram--bounding_box" x1="99" x2="99" y1="1" y2="99"></line><path class="stroke_order_diagram--current_path" d="M29.5,12c0.03,0.46,0.15,1.22-0.07,1.87C27.88,18.5,23.75,25.62,17,32.25" id="kvg:07bc0-s1" kvg:type="㇒" transform="matrix(1,0,0,1,-4,-4)" xmlns:kvg="http://kanjivg.tagaini.net"></path><path class="stroke_order_diagram--current_path" d="M29.5,12c0.03,0.46,0.15,1.22-0.07,1.87C27.88,18.5,23.75,25.62,17,32.25" id="Ske1zzla2m" kvg:type="㇒" transform="matrix(1,0,0,1,-4,-4)" xmlns:kvg="http://kanjivg.tagaini.net"></path><circle class="stroke_order_diagram--path_start" cx="29.5" cy="12" r="4" transform="matrix(1,0,0,1,-4,-4)"></circle><line class="stroke_order_diagram--guide_line" x1="150" x2="150" y1="1" y2="99"></line><line class="stroke_order_diagram--bounding_box" x1="199" x2="199" y1="1" y2="99"></line><path class="stroke_order_diagram--existing_path" d="M29.5,12c0.03,0.46,0.15,1.22-0.07,1.87C27.88,18.5,23.75,25.62,17,32.25" id="Ske1zzla2p" kvg:type="㇒" transform="matrix(1,0,0,1,96,-4)" xmlns:kvg="http://kanjivg.tagaini.net"></path><path class="stroke_order_diagram--current_path" d="M29.48,21.54c3.03,0,12.44-1.44,18.15-1.88c1.28-0.1,2.62-0.03,3.37,0.09" id="kvg:07bc0-s2" kvg:type="㇐b" transform="matrix(1,0,0,1,96,-4)" xmlns:kvg="http://kanjivg.tagaini.net"></path><path class="stroke_order_diagram--current_path" d="M29.48,21.54c3.03,0,12.44-1.44,18.15-1.88c1.28-0.1,2.62-0.03,3.37,0.09" id="Ske1zzla2r" kvg:type="㇐b" transform="matrix(1,0,0,1,96,-4)" xmlns:kvg="http://kanjivg.tagaini.net"></path><circle class="stroke_order_diagram--path_start" cx="29.48" cy="21.54" r="4" transform="matrix(1,0,0,1,96,-4)"></circle><line class="stroke_order_diagram--guide_line" x1="250" x2="250" y1="1" y2="99"></line><line class="stroke_order_diagram--bounding_box" x1="299" x2="299" y1="1" y2="99"></line><path class="stroke_order_diagram--existing_path" d="M29.5,12c0.03,0.46,0.15,1.22-0.07,1.87C27.88,18.5,23.75,25.62,17,32.25" id="Ske1zzla2u" kvg:type="㇒" transform="matrix(1,0,0,1,196,-4)" xmlns:kvg="http://kanjivg.tagaini.net"></path><path class="stroke_order_diagram--existing_path" d="M29.48,21.54c3.03,0,12.44-1.44,18.15-1.88c1.28-0.1,2.62-0.03,3.37,0.09" id="Ske1zzla2v" kvg:type="㇐b" transform="matrix(1,0,0,1,196,-4)" xmlns:kvg="http://kanjivg.tagaini.net"></path><path class="stroke_order_diagram--current_path" d="M35.02,24.33c1.6,1.44,5.14,6.9,5.54,9.13" id="kvg:07bc0-s3" kvg:type="㇔/㇑" transform="matrix(1,0,0,1,196,-4)" xmlns:kvg="http://kanjivg.tagaini.net"></path><path class="stroke_order_diagram--current_path" d="M35.02,24.33c1.6,1.44,5.14,6.9,5.54,9.13" id="Ske1zzla2x" kvg:type="㇔/㇑" transform="matrix(1,0,0,1,196,-4)" xmlns:kvg="http://kanjivg.tagaini.net"></path><circle class="stroke_order_diagram--path_start" cx="35.02" cy="24.33" r="4" transform="matrix(1,0,0,1,196,-4)"></circle><line class="stroke_order_diagram--guide_line" x1="350" x2="350" y1="1" y2="99"></line><line class="stroke_order_diagram--bounding_box" x1="399" x2="399" y1="1" y2="99"></line><path class="stroke_order_diagram--existing_path" d="M29.5,12c0.03,0.46,0.15,1.22-0.07,1.87C27.88,18.5,23.75,25.62,17,32.25" id="Ske1zzla210" kvg:type="㇒" transform="matrix(1,0,0,1,296,-4)" xmlns:kvg="http://kanjivg.tagaini.net"></path><path class="stroke_order_diagram--existing_path" d="M29.48,21.54c3.03,0,12.44-1.44,18.15-1.88c1.28-0.1,2.62-0.03,3.37,0.09" id="Ske1zzla211" kvg:type="㇐b" transform="matrix(1,0,0,1,296,-4)" xmlns:kvg="http://kanjivg.tagaini.net"></path><path class="stroke_order_diagram--existing_path" d="M35.02,24.33c1.6,1.44,5.14,6.9,5.54,9.13" id="Ske1zzla212" kvg:type="㇔/㇑" transform="matrix(1,0,0,1,296,-4)" xmlns:kvg="http://kanjivg.tagaini.net"></path><path class="stroke_order_diagram--current_path" d="M64,10c0.03,0.4,0.11,1.04-0.05,1.6c-1.22,4.2-5.73,11.86-10.2,17.02" id="kvg:07bc0-s4" kvg:type="㇒" transform="matrix(1,0,0,1,296,-4)" xmlns:kvg="http://kanjivg.tagaini.net"></path><path class="stroke_order_diagram--current_path" d="M64,10c0.03,0.4,0.11,1.04-0.05,1.6c-1.22,4.2-5.73,11.86-10.2,17.02" id="Ske1zzla214" kvg:type="㇒" transform="matrix(1,0,0,1,296,-4)" xmlns:kvg="http://kanjivg.tagaini.net"></path><circle class="stroke_order_diagram--path_start" cx="64" cy="10" r="4" transform="matrix(1,0,0,1,296,-4)"></circle><line class="stroke_order_diagram--guide_line" x1="450" x2="450" y1="1" y2="99"></line><line class="stroke_order_diagram--bounding_box" x1="499" x2="499" y1="1" y2="99"></line><path class="stroke_order_diagram--existing_path" d="M29.5,12c0.03,0.46,0.15,1.22-0.07,1.87C27.88,18.5,23.75,25.62,17,32.25" id="Ske1zzla217" kvg:type="㇒" transform="matrix(1,0,0,1,396,-4)" xmlns:kvg="http://kanjivg.tagaini.net"></path><path class="stroke_order_diagram--existing_path" d="M29.48,21.54c3.03,0,12.44-1.44,18.15-1.88c1.28-0.1,2.62-0.03,3.37,0.09" id="Ske1zzla218" kvg:type="㇐b" transform="matrix(1,0,0,1,396,-4)" xmlns:kvg="http://kanjivg.tagaini.net"></path><path class="stroke_order_diagram--existing_path" d="M35.02,24.33c1.6,1.44,5.14,6.9,5.54,9.13" id="Ske1zzla219" kvg:type="㇔/㇑" transform="matrix(1,0,0,1,396,-4)" xmlns:kvg="http://kanjivg.tagaini.net"></path><path class="stroke_order_diagram--existing_path" d="M64,10c0.03,0.4,0.11,1.04-0.05,1.6c-1.22,4.2-5.73,11.86-10.2,17.02" id="Ske1zzla21a" kvg:type="㇒" transform="matrix(1,0,0,1,396,-4)" xmlns:kvg="http://kanjivg.tagaini.net"></path><path class="stroke_order_diagram--current_path" d="M64.48,19.91c3.77,0,15.31-2.04,22.63-2.77c1.86-0.19,3.51-0.14,4.77-0.05" id="kvg:07bc0-s5" kvg:type="㇐b" transform="matrix(1,0,0,1,396,-4)" xmlns:kvg="http://kanjivg.tagaini.net"></path><path class="stroke_order_diagram--current_path" d="M64.48,19.91c3.77,0,15.31-2.04,22.63-2.77c1.86-0.19,3.51-0.14,4.77-0.05" id="Ske1zzla21c" kvg:type="㇐b" transform="matrix(1,0,0,1,396,-4)" xmlns:kvg="http://kanjivg.tagaini.net"></path><circle class="stroke_order_diagram--path_start" cx="64.48" cy="19.91" r="4" transform="matrix(1,0,0,1,396,-4)"></circle><line class="stroke_order_diagram--guide_line" x1="550" x2="550" y1="1" y2="99"></line><line class="stroke_order_diagram--bounding_box" x1="599" x2="599" y1="1" y2="99"></line><path class="stroke_order_diagram--existing_path" d="M29.5,12c0.03,0.46,0.15,1.22-0.07,1.87C27.88,18.5,23.75,25.62,17,32.25" id="Ske1zzla21f" kvg:type="㇒" transform="matrix(1,0,0,1,496,-4)" xmlns:kvg="http://kanjivg.tagaini.net"></path><path class="stroke_order_diagram--existing_path" d="M29.48,21.54c3.03,0,12.44-1.44,18.15-1.88c1.28-0.1,2.62-0.03,3.37,0.09" id="Ske1zzla21g" kvg:type="㇐b" transform="matrix(1,0,0,1,496,-4)" xmlns:kvg="http://kanjivg.tagaini.net"></path><path class="stroke_order_diagram--existing_path" d="M35.02,24.33c1.6,1.44,5.14,6.9,5.54,9.13" id="Ske1zzla21h" kvg:type="㇔/㇑" transform="matrix(1,0,0,1,496,-4)" xmlns:kvg="http://kanjivg.tagaini.net"></path><path class="stroke_order_diagram--existing_path" d="M64,10c0.03,0.4,0.11,1.04-0.05,1.6c-1.22,4.2-5.73,11.86-10.2,17.02" id="Ske1zzla21i" kvg:type="㇒" transform="matrix(1,0,0,1,496,-4)" xmlns:kvg="http://kanjivg.tagaini.net"></path><path class="stroke_order_diagram--existing_path" d="M64.48,19.91c3.77,0,15.31-2.04,22.63-2.77c1.86-0.19,3.51-0.14,4.77-0.05" id="Ske1zzla21j" kvg:type="㇐b" transform="matrix(1,0,0,1,496,-4)" xmlns:kvg="http://kanjivg.tagaini.net"></path><path class="stroke_order_diagram--current_path" d="M75.26,22.25c0.03,0.37,0.07,0.97-0.07,1.51c-0.48,1.87-2.67,5.61-5.69,9.24" id="kvg:07bc0-s6" kvg:type="㇒/㇚" transform="matrix(1,0,0,1,496,-4)" xmlns:kvg="http://kanjivg.tagaini.net"></path><path class="stroke_order_diagram--current_path" d="M75.26,22.25c0.03,0.37,0.07,0.97-0.07,1.51c-0.48,1.87-2.67,5.61-5.69,9.24" id="Ske1zzla21l" kvg:type="㇒/㇚" transform="matrix(1,0,0,1,496,-4)" xmlns:kvg="http://kanjivg.tagaini.net"></path><circle class="stroke_order_diagram--path_start" cx="75.26" cy="22.25" r="4" transform="matrix(1,0,0,1,496,-4)"></circle><line class="stroke_order_diagram--guide_line" x1="650" x2="650" y1="1" y2="99"></line><line class="stroke_order_diagram--bounding_box" x1="699" x2="699" y1="1" y2="99"></line><path class="stroke_order_diagram--existing_path" d="M29.5,12c0.03,0.46,0.15,1.22-0.07,1.87C27.88,18.5,23.75,25.62,17,32.25" id="Ske1zzla21o" kvg:type="㇒" transform="matrix(1,0,0,1,596,-4)" xmlns:kvg="http://kanjivg.tagaini.net"></path><path class="stroke_order_diagram--existing_path" d="M29.48,21.54c3.03,0,12.44-1.44,18.15-1.88c1.28-0.1,2.62-0.03,3.37,0.09" id="Ske1zzla21p" kvg:type="㇐b" transform="matrix(1,0,0,1,596,-4)" xmlns:kvg="http://kanjivg.tagaini.net"></path><path class="stroke_order_diagram--existing_path" d="M35.02,24.33c1.6,1.44,5.14,6.9,5.54,9.13" id="Ske1zzla21q" kvg:type="㇔/㇑" transform="matrix(1,0,0,1,596,-4)" xmlns:kvg="http://kanjivg.tagaini.net"></path><path class="stroke_order_diagram--existing_path" d="M64,10c0.03,0.4,0.11,1.04-0.05,1.6c-1.22,4.2-5.73,11.86-10.2,17.02" id="Ske1zzla21r" kvg:type="㇒" transform="matrix(1,0,0,1,596,-4)" xmlns:kvg="http://kanjivg.tagaini.net"></path><path class="stroke_order_diagram--existing_path" d="M64.48,19.91c3.77,0,15.31-2.04,22.63-2.77c1.86-0.19,3.51-0.14,4.77-0.05" id="Ske1zzla21s" kvg:type="㇐b" transform="matrix(1,0,0,1,596,-4)" xmlns:kvg="http://kanjivg.tagaini.net"></path><path class="stroke_order_diagram--existing_path" d="M75.26,22.25c0.03,0.37,0.07,0.97-0.07,1.51c-0.48,1.87-2.67,5.61-5.69,9.24" id="Ske1zzla21t" kvg:type="㇒/㇚" transform="matrix(1,0,0,1,596,-4)" xmlns:kvg="http://kanjivg.tagaini.net"></path><path class="stroke_order_diagram--current_path" d="M21.01,41.69c1.36,1.18,4.48,1.15,6.35,0.94c5.56-0.62,15.62-1.58,19.9-2.06c2.93-0.33,4.62,0.13,4.4,3.43c-0.31,4.49-1.5,12.46-2.36,18.88c-0.24,1.79-0.45,3.46-0.61,4.9" id="kvg:07bc0-s7" kvg:type="㇕" transform="matrix(1,0,0,1,596,-4)" xmlns:kvg="http://kanjivg.tagaini.net"></path><path class="stroke_order_diagram--current_path" d="M21.01,41.69c1.36,1.18,4.48,1.15,6.35,0.94c5.56-0.62,15.62-1.58,19.9-2.06c2.93-0.33,4.62,0.13,4.4,3.43c-0.31,4.49-1.5,12.46-2.36,18.88c-0.24,1.79-0.45,3.46-0.61,4.9" id="Ske1zzla21v" kvg:type="㇕" transform="matrix(1,0,0,1,596,-4)" xmlns:kvg="http://kanjivg.tagaini.net"></path><circle class="stroke_order_diagram--path_start" cx="21.01" cy="41.69" r="4" transform="matrix(1,0,0,1,596,-4)"></circle><line class="stroke_order_diagram--guide_line" x1="750" x2="750" y1="1" y2="99"></line><line class="stroke_order_diagram--bounding_box" x1="799" x2="799" y1="1" y2="99"></line><path class="stroke_order_diagram--existing_path" d="M29.5,12c0.03,0.46,0.15,1.22-0.07,1.87C27.88,18.5,23.75,25.62,17,32.25" id="Ske1zzla21y" kvg:type="㇒" transform="matrix(1,0,0,1,696,-4)" xmlns:kvg="http://kanjivg.tagaini.net"></path><path class="stroke_order_diagram--existing_path" d="M29.48,21.54c3.03,0,12.44-1.44,18.15-1.88c1.28-0.1,2.62-0.03,3.37,0.09" id="Ske1zzla21z" kvg:type="㇐b" transform="matrix(1,0,0,1,696,-4)" xmlns:kvg="http://kanjivg.tagaini.net"></path><path class="stroke_order_diagram--existing_path" d="M35.02,24.33c1.6,1.44,5.14,6.9,5.54,9.13" id="Ske1zzla220" kvg:type="㇔/㇑" transform="matrix(1,0,0,1,696,-4)" xmlns:kvg="http://kanjivg.tagaini.net"></path><path class="stroke_order_diagram--existing_path" d="M64,10c0.03,0.4,0.11,1.04-0.05,1.6c-1.22,4.2-5.73,11.86-10.2,17.02" id="Ske1zzla221" kvg:type="㇒" transform="matrix(1,0,0,1,696,-4)" xmlns:kvg="http://kanjivg.tagaini.net"></path><path class="stroke_order_diagram--existing_path" d="M64.48,19.91c3.77,0,15.31-2.04,22.63-2.77c1.86-0.19,3.51-0.14,4.77-0.05" id="Ske1zzla222" kvg:type="㇐b" transform="matrix(1,0,0,1,696,-4)" xmlns:kvg="http://kanjivg.tagaini.net"></path><path class="stroke_order_diagram--existing_path" d="M75.26,22.25c0.03,0.37,0.07,0.97-0.07,1.51c-0.48,1.87-2.67,5.61-5.69,9.24" id="Ske1zzla223" kvg:type="㇒/㇚" transform="matrix(1,0,0,1,696,-4)" xmlns:kvg="http://kanjivg.tagaini.net"></path><path class="stroke_order_diagram--existing_path" d="M21.01,41.69c1.36,1.18,4.48,1.15,6.35,0.94c5.56-0.62,15.62-1.58,19.9-2.06c2.93-0.33,4.62,0.13,4.4,3.43c-0.31,4.49-1.5,12.46-2.36,18.88c-0.24,1.79-0.45,3.46-0.61,4.9" id="Ske1zzla224" kvg:type="㇕" transform="matrix(1,0,0,1,696,-4)" xmlns:kvg="http://kanjivg.tagaini.net"></path><path class="stroke_order_diagram--current_path" d="M23.95,54.55c5.43-0.54,19.3-2.05,25.67-2.36" id="kvg:07bc0-s8" kvg:type="㇐a" transform="matrix(1,0,0,1,696,-4)" xmlns:kvg="http://kanjivg.tagaini.net"></path><path class="stroke_order_diagram--current_path" d="M23.95,54.55c5.43-0.54,19.3-2.05,25.67-2.36" id="Ske1zzla226" kvg:type="㇐a" transform="matrix(1,0,0,1,696,-4)" xmlns:kvg="http://kanjivg.tagaini.net"></path><circle class="stroke_order_diagram--path_start" cx="23.95" cy="54.55" r="4" transform="matrix(1,0,0,1,696,-4)"></circle><line class="stroke_order_diagram--guide_line" x1="850" x2="850" y1="1" y2="99"></line><line class="stroke_order_diagram--bounding_box" x1="899" x2="899" y1="1" y2="99"></line><path class="stroke_order_diagram--existing_path" d="M29.5,12c0.03,0.46,0.15,1.22-0.07,1.87C27.88,18.5,23.75,25.62,17,32.25" id="Ske1zzla229" kvg:type="㇒" transform="matrix(1,0,0,1,796,-4)" xmlns:kvg="http://kanjivg.tagaini.net"></path><path class="stroke_order_diagram--existing_path" d="M29.48,21.54c3.03,0,12.44-1.44,18.15-1.88c1.28-0.1,2.62-0.03,3.37,0.09" id="Ske1zzla22a" kvg:type="㇐b" transform="matrix(1,0,0,1,796,-4)" xmlns:kvg="http://kanjivg.tagaini.net"></path><path class="stroke_order_diagram--existing_path" d="M35.02,24.33c1.6,1.44,5.14,6.9,5.54,9.13" id="Ske1zzla22b" kvg:type="㇔/㇑" transform="matrix(1,0,0,1,796,-4)" xmlns:kvg="http://kanjivg.tagaini.net"></path><path class="stroke_order_diagram--existing_path" d="M64,10c0.03,0.4,0.11,1.04-0.05,1.6c-1.22,4.2-5.73,11.86-10.2,17.02" id="Ske1zzla22c" kvg:type="㇒" transform="matrix(1,0,0,1,796,-4)" xmlns:kvg="http://kanjivg.tagaini.net"></path><path class="stroke_order_diagram--existing_path" d="M64.48,19.91c3.77,0,15.31-2.04,22.63-2.77c1.86-0.19,3.51-0.14,4.77-0.05" id="Ske1zzla22d" kvg:type="㇐b" transform="matrix(1,0,0,1,796,-4)" xmlns:kvg="http://kanjivg.tagaini.net"></path><path class="stroke_order_diagram--existing_path" d="M75.26,22.25c0.03,0.37,0.07,0.97-0.07,1.51c-0.48,1.87-2.67,5.61-5.69,9.24" id="Ske1zzla22e" kvg:type="㇒/㇚" transform="matrix(1,0,0,1,796,-4)" xmlns:kvg="http://kanjivg.tagaini.net"></path><path class="stroke_order_diagram--existing_path" d="M21.01,41.69c1.36,1.18,4.48,1.15,6.35,0.94c5.56-0.62,15.62-1.58,19.9-2.06c2.93-0.33,4.62,0.13,4.4,3.43c-0.31,4.49-1.5,12.46-2.36,18.88c-0.24,1.79-0.45,3.46-0.61,4.9" id="Ske1zzla22f" kvg:type="㇕" transform="matrix(1,0,0,1,796,-4)" xmlns:kvg="http://kanjivg.tagaini.net"></path><path class="stroke_order_diagram--existing_path" d="M23.95,54.55c5.43-0.54,19.3-2.05,25.67-2.36" id="Ske1zzla22g" kvg:type="㇐a" transform="matrix(1,0,0,1,796,-4)" xmlns:kvg="http://kanjivg.tagaini.net"></path><path class="stroke_order_diagram--current_path" d="M24.16,66.4c7.45-0.87,15.22-1.77,23.71-2.19" id="kvg:07bc0-s9" kvg:type="㇐a" transform="matrix(1,0,0,1,796,-4)" xmlns:kvg="http://kanjivg.tagaini.net"></path><path class="stroke_order_diagram--current_path" d="M24.16,66.4c7.45-0.87,15.22-1.77,23.71-2.19" id="Ske1zzla22i" kvg:type="㇐a" transform="matrix(1,0,0,1,796,-4)" xmlns:kvg="http://kanjivg.tagaini.net"></path><circle class="stroke_order_diagram--path_start" cx="24.16" cy="66.4" r="4" transform="matrix(1,0,0,1,796,-4)"></circle><line class="stroke_order_diagram--guide_line" x1="950" x2="950" y1="1" y2="99"></line><line class="stroke_order_diagram--bounding_box" x1="999" x2="999" y1="1" y2="99"></line><path class="stroke_order_diagram--existing_path" d="M29.5,12c0.03,0.46,0.15,1.22-0.07,1.87C27.88,18.5,23.75,25.62,17,32.25" id="Ske1zzla22l" kvg:type="㇒" transform="matrix(1,0,0,1,896,-4)" xmlns:kvg="http://kanjivg.tagaini.net"></path><path class="stroke_order_diagram--existing_path" d="M29.48,21.54c3.03,0,12.44-1.44,18.15-1.88c1.28-0.1,2.62-0.03,3.37,0.09" id="Ske1zzla22m" kvg:type="㇐b" transform="matrix(1,0,0,1,896,-4)" xmlns:kvg="http://kanjivg.tagaini.net"></path><path class="stroke_order_diagram--existing_path" d="M35.02,24.33c1.6,1.44,5.14,6.9,5.54,9.13" id="Ske1zzla22n" kvg:type="㇔/㇑" transform="matrix(1,0,0,1,896,-4)" xmlns:kvg="http://kanjivg.tagaini.net"></path><path class="stroke_order_diagram--existing_path" d="M64,10c0.03,0.4,0.11,1.04-0.05,1.6c-1.22,4.2-5.73,11.86-10.2,17.02" id="Ske1zzla22o" kvg:type="㇒" transform="matrix(1,0,0,1,896,-4)" xmlns:kvg="http://kanjivg.tagaini.net"></path><path class="stroke_order_diagram--existing_path" d="M64.48,19.91c3.77,0,15.31-2.04,22.63-2.77c1.86-0.19,3.51-0.14,4.77-0.05" id="Ske1zzla22p" kvg:type="㇐b" transform="matrix(1,0,0,1,896,-4)" xmlns:kvg="http://kanjivg.tagaini.net"></path><path class="stroke_order_diagram--existing_path" d="M75.26,22.25c0.03,0.37,0.07,0.97-0.07,1.51c-0.48,1.87-2.67,5.61-5.69,9.24" id="Ske1zzla22q" kvg:type="㇒/㇚" transform="matrix(1,0,0,1,896,-4)" xmlns:kvg="http://kanjivg.tagaini.net"></path><path class="stroke_order_diagram--existing_path" d="M21.01,41.69c1.36,1.18,4.48,1.15,6.35,0.94c5.56-0.62,15.62-1.58,19.9-2.06c2.93-0.33,4.62,0.13,4.4,3.43c-0.31,4.49-1.5,12.46-2.36,18.88c-0.24,1.79-0.45,3.46-0.61,4.9" id="Ske1zzla22r" kvg:type="㇕" transform="matrix(1,0,0,1,896,-4)" xmlns:kvg="http://kanjivg.tagaini.net"></path><path class="stroke_order_diagram--existing_path" d="M23.95,54.55c5.43-0.54,19.3-2.05,25.67-2.36" id="Ske1zzla22s" kvg:type="㇐a" transform="matrix(1,0,0,1,896,-4)" xmlns:kvg="http://kanjivg.tagaini.net"></path><path class="stroke_order_diagram--existing_path" d="M24.16,66.4c7.45-0.87,15.22-1.77,23.71-2.19" id="Ske1zzla22t" kvg:type="㇐a" transform="matrix(1,0,0,1,896,-4)" xmlns:kvg="http://kanjivg.tagaini.net"></path><path class="stroke_order_diagram--current_path" d="M21.51,41.94c0.83,0.84,1.21,2.18,1.21,3.27c0,1.11,0.25,43.93,0.25,46.63c0,3.15,0.42,4.2,3.37,2.31c2.95-1.9,12.41-7.91,19.16-11.83" id="kvg:07bc0-s10" kvg:type="㇙" transform="matrix(1,0,0,1,896,-4)" xmlns:kvg="http://kanjivg.tagaini.net"></path><path class="stroke_order_diagram--current_path" d="M21.51,41.94c0.83,0.84,1.21,2.18,1.21,3.27c0,1.11,0.25,43.93,0.25,46.63c0,3.15,0.42,4.2,3.37,2.31c2.95-1.9,12.41-7.91,19.16-11.83" id="Ske1zzla22v" kvg:type="㇙" transform="matrix(1,0,0,1,896,-4)" xmlns:kvg="http://kanjivg.tagaini.net"></path><circle class="stroke_order_diagram--path_start" cx="21.51" cy="41.94" r="4" transform="matrix(1,0,0,1,896,-4)"></circle><line class="stroke_order_diagram--guide_line" x1="1050" x2="1050" y1="1" y2="99"></line><line class="stroke_order_diagram--bounding_box" x1="1099" x2="1099" y1="1" y2="99"></line><path class="stroke_order_diagram--existing_path" d="M29.5,12c0.03,0.46,0.15,1.22-0.07,1.87C27.88,18.5,23.75,25.62,17,32.25" id="Ske1zzla22y" kvg:type="㇒" transform="matrix(1,0,0,1,996,-4)" xmlns:kvg="http://kanjivg.tagaini.net"></path><path class="stroke_order_diagram--existing_path" d="M29.48,21.54c3.03,0,12.44-1.44,18.15-1.88c1.28-0.1,2.62-0.03,3.37,0.09" id="Ske1zzla22z" kvg:type="㇐b" transform="matrix(1,0,0,1,996,-4)" xmlns:kvg="http://kanjivg.tagaini.net"></path><path class="stroke_order_diagram--existing_path" d="M35.02,24.33c1.6,1.44,5.14,6.9,5.54,9.13" id="Ske1zzla230" kvg:type="㇔/㇑" transform="matrix(1,0,0,1,996,-4)" xmlns:kvg="http://kanjivg.tagaini.net"></path><path class="stroke_order_diagram--existing_path" d="M64,10c0.03,0.4,0.11,1.04-0.05,1.6c-1.22,4.2-5.73,11.86-10.2,17.02" id="Ske1zzla231" kvg:type="㇒" transform="matrix(1,0,0,1,996,-4)" xmlns:kvg="http://kanjivg.tagaini.net"></path><path class="stroke_order_diagram--existing_path" d="M64.48,19.91c3.77,0,15.31-2.04,22.63-2.77c1.86-0.19,3.51-0.14,4.77-0.05" id="Ske1zzla232" kvg:type="㇐b" transform="matrix(1,0,0,1,996,-4)" xmlns:kvg="http://kanjivg.tagaini.net"></path><path class="stroke_order_diagram--existing_path" d="M75.26,22.25c0.03,0.37,0.07,0.97-0.07,1.51c-0.48,1.87-2.67,5.61-5.69,9.24" id="Ske1zzla233" kvg:type="㇒/㇚" transform="matrix(1,0,0,1,996,-4)" xmlns:kvg="http://kanjivg.tagaini.net"></path><path class="stroke_order_diagram--existing_path" d="M21.01,41.69c1.36,1.18,4.48,1.15,6.35,0.94c5.56-0.62,15.62-1.58,19.9-2.06c2.93-0.33,4.62,0.13,4.4,3.43c-0.31,4.49-1.5,12.46-2.36,18.88c-0.24,1.79-0.45,3.46-0.61,4.9" id="Ske1zzla234" kvg:type="㇕" transform="matrix(1,0,0,1,996,-4)" xmlns:kvg="http://kanjivg.tagaini.net"></path><path class="stroke_order_diagram--existing_path" d="M23.95,54.55c5.43-0.54,19.3-2.05,25.67-2.36" id="Ske1zzla235" kvg:type="㇐a" transform="matrix(1,0,0,1,996,-4)" xmlns:kvg="http://kanjivg.tagaini.net"></path><path class="stroke_order_diagram--existing_path" d="M24.16,66.4c7.45-0.87,15.22-1.77,23.71-2.19" id="Ske1zzla236" kvg:type="㇐a" transform="matrix(1,0,0,1,996,-4)" xmlns:kvg="http://kanjivg.tagaini.net"></path><path class="stroke_order_diagram--existing_path" d="M21.51,41.94c0.83,0.84,1.21,2.18,1.21,3.27c0,1.11,0.25,43.93,0.25,46.63c0,3.15,0.42,4.2,3.37,2.31c2.95-1.9,12.41-7.91,19.16-11.83" id="Ske1zzla237" kvg:type="㇙" transform="matrix(1,0,0,1,996,-4)" xmlns:kvg="http://kanjivg.tagaini.net"></path><path class="stroke_order_diagram--current_path" d="M40.81,73.96c3.61,2.6,9.59,11.03,11.24,17.78" id="kvg:07bc0-s11" kvg:type="㇔" transform="matrix(1,0,0,1,996,-4)" xmlns:kvg="http://kanjivg.tagaini.net"></path><path class="stroke_order_diagram--current_path" d="M40.81,73.96c3.61,2.6,9.59,11.03,11.24,17.78" id="Ske1zzla239" kvg:type="㇔" transform="matrix(1,0,0,1,996,-4)" xmlns:kvg="http://kanjivg.tagaini.net"></path><circle class="stroke_order_diagram--path_start" cx="40.81" cy="73.96" r="4" transform="matrix(1,0,0,1,996,-4)"></circle><line class="stroke_order_diagram--guide_line" x1="1150" x2="1150" y1="1" y2="99"></line><line class="stroke_order_diagram--bounding_box" x1="1199" x2="1199" y1="1" y2="99"></line><path class="stroke_order_diagram--existing_path" d="M29.5,12c0.03,0.46,0.15,1.22-0.07,1.87C27.88,18.5,23.75,25.62,17,32.25" id="Ske1zzla23c" kvg:type="㇒" transform="matrix(1,0,0,1,1096,-4)" xmlns:kvg="http://kanjivg.tagaini.net"></path><path class="stroke_order_diagram--existing_path" d="M29.48,21.54c3.03,0,12.44-1.44,18.15-1.88c1.28-0.1,2.62-0.03,3.37,0.09" id="Ske1zzla23d" kvg:type="㇐b" transform="matrix(1,0,0,1,1096,-4)" xmlns:kvg="http://kanjivg.tagaini.net"></path><path class="stroke_order_diagram--existing_path" d="M35.02,24.33c1.6,1.44,5.14,6.9,5.54,9.13" id="Ske1zzla23e" kvg:type="㇔/㇑" transform="matrix(1,0,0,1,1096,-4)" xmlns:kvg="http://kanjivg.tagaini.net"></path><path class="stroke_order_diagram--existing_path" d="M64,10c0.03,0.4,0.11,1.04-0.05,1.6c-1.22,4.2-5.73,11.86-10.2,17.02" id="Ske1zzla23f" kvg:type="㇒" transform="matrix(1,0,0,1,1096,-4)" xmlns:kvg="http://kanjivg.tagaini.net"></path><path class="stroke_order_diagram--existing_path" d="M64.48,19.91c3.77,0,15.31-2.04,22.63-2.77c1.86-0.19,3.51-0.14,4.77-0.05" id="Ske1zzla23g" kvg:type="㇐b" transform="matrix(1,0,0,1,1096,-4)" xmlns:kvg="http://kanjivg.tagaini.net"></path><path class="stroke_order_diagram--existing_path" d="M75.26,22.25c0.03,0.37,0.07,0.97-0.07,1.51c-0.48,1.87-2.67,5.61-5.69,9.24" id="Ske1zzla23h" kvg:type="㇒/㇚" transform="matrix(1,0,0,1,1096,-4)" xmlns:kvg="http://kanjivg.tagaini.net"></path><path class="stroke_order_diagram--existing_path" d="M21.01,41.69c1.36,1.18,4.48,1.15,6.35,0.94c5.56-0.62,15.62-1.58,19.9-2.06c2.93-0.33,4.62,0.13,4.4,3.43c-0.31,4.49-1.5,12.46-2.36,18.88c-0.24,1.79-0.45,3.46-0.61,4.9" id="Ske1zzla23i" kvg:type="㇕" transform="matrix(1,0,0,1,1096,-4)" xmlns:kvg="http://kanjivg.tagaini.net"></path><path class="stroke_order_diagram--existing_path" d="M23.95,54.55c5.43-0.54,19.3-2.05,25.67-2.36" id="Ske1zzla23j" kvg:type="㇐a" transform="matrix(1,0,0,1,1096,-4)" xmlns:kvg="http://kanjivg.tagaini.net"></path><path class="stroke_order_diagram--existing_path" d="M24.16,66.4c7.45-0.87,15.22-1.77,23.71-2.19" id="Ske1zzla23k" kvg:type="㇐a" transform="matrix(1,0,0,1,1096,-4)" xmlns:kvg="http://kanjivg.tagaini.net"></path><path class="stroke_order_diagram--existing_path" d="M21.51,41.94c0.83,0.84,1.21,2.18,1.21,3.27c0,1.11,0.25,43.93,0.25,46.63c0,3.15,0.42,4.2,3.37,2.31c2.95-1.9,12.41-7.91,19.16-11.83" id="Ske1zzla23l" kvg:type="㇙" transform="matrix(1,0,0,1,1096,-4)" xmlns:kvg="http://kanjivg.tagaini.net"></path><path class="stroke_order_diagram--existing_path" d="M40.81,73.96c3.61,2.6,9.59,11.03,11.24,17.78" id="Ske1zzla23m" kvg:type="㇔" transform="matrix(1,0,0,1,1096,-4)" xmlns:kvg="http://kanjivg.tagaini.net"></path><path class="stroke_order_diagram--current_path" d="M61.25,41.26c1.25,0.49,2.52,0.78,3.98,0.64c6.7-0.68,18.88-2.54,20.65-2.68c3.41-0.26,5.84,0.63,5.54,4.41c-1.02,12.81-2.86,25.13-5.39,34.21c-2.42,8.7-5.4,3.79-7.61,0.49" id="kvg:07bc0-s12" kvg:type="㇆" transform="matrix(1,0,0,1,1096,-4)" xmlns:kvg="http://kanjivg.tagaini.net"></path><path class="stroke_order_diagram--current_path" d="M61.25,41.26c1.25,0.49,2.52,0.78,3.98,0.64c6.7-0.68,18.88-2.54,20.65-2.68c3.41-0.26,5.84,0.63,5.54,4.41c-1.02,12.81-2.86,25.13-5.39,34.21c-2.42,8.7-5.4,3.79-7.61,0.49" id="Ske1zzla23o" kvg:type="㇆" transform="matrix(1,0,0,1,1096,-4)" xmlns:kvg="http://kanjivg.tagaini.net"></path><circle class="stroke_order_diagram--path_start" cx="61.25" cy="41.26" r="4" transform="matrix(1,0,0,1,1096,-4)"></circle><line class="stroke_order_diagram--guide_line" x1="1250" x2="1250" y1="1" y2="99"></line><line class="stroke_order_diagram--bounding_box" x1="1299" x2="1299" y1="1" y2="99"></line><path class="stroke_order_diagram--existing_path" d="M29.5,12c0.03,0.46,0.15,1.22-0.07,1.87C27.88,18.5,23.75,25.62,17,32.25" id="Ske1zzla23r" kvg:type="㇒" transform="matrix(1,0,0,1,1196,-4)" xmlns:kvg="http://kanjivg.tagaini.net"></path><path class="stroke_order_diagram--existing_path" d="M29.48,21.54c3.03,0,12.44-1.44,18.15-1.88c1.28-0.1,2.62-0.03,3.37,0.09" id="Ske1zzla23s" kvg:type="㇐b" transform="matrix(1,0,0,1,1196,-4)" xmlns:kvg="http://kanjivg.tagaini.net"></path><path class="stroke_order_diagram--existing_path" d="M35.02,24.33c1.6,1.44,5.14,6.9,5.54,9.13" id="Ske1zzla23t" kvg:type="㇔/㇑" transform="matrix(1,0,0,1,1196,-4)" xmlns:kvg="http://kanjivg.tagaini.net"></path><path class="stroke_order_diagram--existing_path" d="M64,10c0.03,0.4,0.11,1.04-0.05,1.6c-1.22,4.2-5.73,11.86-10.2,17.02" id="Ske1zzla23u" kvg:type="㇒" transform="matrix(1,0,0,1,1196,-4)" xmlns:kvg="http://kanjivg.tagaini.net"></path><path class="stroke_order_diagram--existing_path" d="M64.48,19.91c3.77,0,15.31-2.04,22.63-2.77c1.86-0.19,3.51-0.14,4.77-0.05" id="Ske1zzla23v" kvg:type="㇐b" transform="matrix(1,0,0,1,1196,-4)" xmlns:kvg="http://kanjivg.tagaini.net"></path><path class="stroke_order_diagram--existing_path" d="M75.26,22.25c0.03,0.37,0.07,0.97-0.07,1.51c-0.48,1.87-2.67,5.61-5.69,9.24" id="Ske1zzla23w" kvg:type="㇒/㇚" transform="matrix(1,0,0,1,1196,-4)" xmlns:kvg="http://kanjivg.tagaini.net"></path><path class="stroke_order_diagram--existing_path" d="M21.01,41.69c1.36,1.18,4.48,1.15,6.35,0.94c5.56-0.62,15.62-1.58,19.9-2.06c2.93-0.33,4.62,0.13,4.4,3.43c-0.31,4.49-1.5,12.46-2.36,18.88c-0.24,1.79-0.45,3.46-0.61,4.9" id="Ske1zzla23x" kvg:type="㇕" transform="matrix(1,0,0,1,1196,-4)" xmlns:kvg="http://kanjivg.tagaini.net"></path><path class="stroke_order_diagram--existing_path" d="M23.95,54.55c5.43-0.54,19.3-2.05,25.67-2.36" id="Ske1zzla23y" kvg:type="㇐a" transform="matrix(1,0,0,1,1196,-4)" xmlns:kvg="http://kanjivg.tagaini.net"></path><path class="stroke_order_diagram--existing_path" d="M24.16,66.4c7.45-0.87,15.22-1.77,23.71-2.19" id="Ske1zzla23z" kvg:type="㇐a" transform="matrix(1,0,0,1,1196,-4)" xmlns:kvg="http://kanjivg.tagaini.net"></path><path class="stroke_order_diagram--existing_path" d="M21.51,41.94c0.83,0.84,1.21,2.18,1.21,3.27c0,1.11,0.25,43.93,0.25,46.63c0,3.15,0.42,4.2,3.37,2.31c2.95-1.9,12.41-7.91,19.16-11.83" id="Ske1zzla240" kvg:type="㇙" transform="matrix(1,0,0,1,1196,-4)" xmlns:kvg="http://kanjivg.tagaini.net"></path><path class="stroke_order_diagram--existing_path" d="M40.81,73.96c3.61,2.6,9.59,11.03,11.24,17.78" id="Ske1zzla241" kvg:type="㇔" transform="matrix(1,0,0,1,1196,-4)" xmlns:kvg="http://kanjivg.tagaini.net"></path><path class="stroke_order_diagram--existing_path" d="M61.25,41.26c1.25,0.49,2.52,0.78,3.98,0.64c6.7-0.68,18.88-2.54,20.65-2.68c3.41-0.26,5.84,0.63,5.54,4.41c-1.02,12.81-2.86,25.13-5.39,34.21c-2.42,8.7-5.4,3.79-7.61,0.49" id="Ske1zzla242" kvg:type="㇆" transform="matrix(1,0,0,1,1196,-4)" xmlns:kvg="http://kanjivg.tagaini.net"></path><path class="stroke_order_diagram--current_path" d="M62.87,42.25c1.07,1.06,1.46,2.88,1.46,3.75c0,3.09,0.02,34.6,0.03,48.88c0,2.47,0,4.43,0,5.62" id="kvg:07bc0-s13" kvg:type="㇑" transform="matrix(1,0,0,1,1196,-4)" xmlns:kvg="http://kanjivg.tagaini.net"></path><path class="stroke_order_diagram--current_path" d="M62.87,42.25c1.07,1.06,1.46,2.88,1.46,3.75c0,3.09,0.02,34.6,0.03,48.88c0,2.47,0,4.43,0,5.62" id="Ske1zzla244" kvg:type="㇑" transform="matrix(1,0,0,1,1196,-4)" xmlns:kvg="http://kanjivg.tagaini.net"></path><circle class="stroke_order_diagram--path_start" cx="62.87" cy="42.25" r="4" transform="matrix(1,0,0,1,1196,-4)"></circle></svg>