<svg class="stroke_order_diagram--svg_container_for_518662b5d5dda79658001312" style="height: 100px; width: 1600px;" viewbox="0 0 1600 100"><desc>Created with Snap</desc><defs></defs><line class="stroke_order_diagram--bounding_box" x1="1" x2="1599" y1="1" y2="1"></line><line class="stroke_order_diagram--bounding_box" x1="1" x2="1" y1="1" y2="99"></line><line class="stroke_order_diagram--bounding_box" x1="1" x2="1599" y1="99" y2="99"></line><line class="stroke_order_diagram--guide_line" x1="0" x2="1600" y1="50" y2="50"></line><line class="stroke_order_diagram--guide_line" x1="50" x2="50" y1="1" y2="99"></line><line class="stroke_order_diagram--bounding_box" x1="99" x2="99" y1="1" y2="99"></line><path class="stroke_order_diagram--current_path" d="M30.74,9c0.04,0.55,0.09,1.41-0.09,2.2c-1.06,4.64-7.11,14.82-15.4,21.05" id="kvg:07be5-s1" kvg:type="㇒" transform="matrix(1,0,0,1,-4,-4)" xmlns:kvg="http://kanjivg.tagaini.net"></path><path class="stroke_order_diagram--current_path" d="M30.74,9c0.04,0.55,0.09,1.41-0.09,2.2c-1.06,4.64-7.11,14.82-15.4,21.05" id="Ske2t9rb0p" kvg:type="㇒" transform="matrix(1,0,0,1,-4,-4)" xmlns:kvg="http://kanjivg.tagaini.net"></path><circle class="stroke_order_diagram--path_start" cx="30.74" cy="9" r="4" transform="matrix(1,0,0,1,-4,-4)"></circle><line class="stroke_order_diagram--guide_line" x1="150" x2="150" y1="1" y2="99"></line><line class="stroke_order_diagram--bounding_box" x1="199" x2="199" y1="1" y2="99"></line><path class="stroke_order_diagram--existing_path" d="M30.74,9c0.04,0.55,0.09,1.41-0.09,2.2c-1.06,4.64-7.11,14.82-15.4,21.05" id="Ske2t9rb0s" kvg:type="㇒" transform="matrix(1,0,0,1,96,-4)" xmlns:kvg="http://kanjivg.tagaini.net"></path><path class="stroke_order_diagram--current_path" d="M28.23,20.29c4.22,0,17.78-3.29,22.52-3.29" id="kvg:07be5-s2" kvg:type="㇐b" transform="matrix(1,0,0,1,96,-4)" xmlns:kvg="http://kanjivg.tagaini.net"></path><path class="stroke_order_diagram--current_path" d="M28.23,20.29c4.22,0,17.78-3.29,22.52-3.29" id="Ske2t9rb0u" kvg:type="㇐b" transform="matrix(1,0,0,1,96,-4)" xmlns:kvg="http://kanjivg.tagaini.net"></path><circle class="stroke_order_diagram--path_start" cx="28.23" cy="20.29" r="4" transform="matrix(1,0,0,1,96,-4)"></circle><line class="stroke_order_diagram--guide_line" x1="250" x2="250" y1="1" y2="99"></line><line class="stroke_order_diagram--bounding_box" x1="299" x2="299" y1="1" y2="99"></line><path class="stroke_order_diagram--existing_path" d="M30.74,9c0.04,0.55,0.09,1.41-0.09,2.2c-1.06,4.64-7.11,14.82-15.4,21.05" id="Ske2t9rb0x" kvg:type="㇒" transform="matrix(1,0,0,1,196,-4)" xmlns:kvg="http://kanjivg.tagaini.net"></path><path class="stroke_order_diagram--existing_path" d="M28.23,20.29c4.22,0,17.78-3.29,22.52-3.29" id="Ske2t9rb0y" kvg:type="㇐b" transform="matrix(1,0,0,1,196,-4)" xmlns:kvg="http://kanjivg.tagaini.net"></path><path class="stroke_order_diagram--current_path" d="M35.77,22.08c2.04,1.3,5.28,5.36,5.79,7.38" id="kvg:07be5-s3" kvg:type="㇔/㇑" transform="matrix(1,0,0,1,196,-4)" xmlns:kvg="http://kanjivg.tagaini.net"></path><path class="stroke_order_diagram--current_path" d="M35.77,22.08c2.04,1.3,5.28,5.36,5.79,7.38" id="Ske2t9rb010" kvg:type="㇔/㇑" transform="matrix(1,0,0,1,196,-4)" xmlns:kvg="http://kanjivg.tagaini.net"></path><circle class="stroke_order_diagram--path_start" cx="35.77" cy="22.08" r="4" transform="matrix(1,0,0,1,196,-4)"></circle><line class="stroke_order_diagram--guide_line" x1="350" x2="350" y1="1" y2="99"></line><line class="stroke_order_diagram--bounding_box" x1="399" x2="399" y1="1" y2="99"></line><path class="stroke_order_diagram--existing_path" d="M30.74,9c0.04,0.55,0.09,1.41-0.09,2.2c-1.06,4.64-7.11,14.82-15.4,21.05" id="Ske2t9rb013" kvg:type="㇒" transform="matrix(1,0,0,1,296,-4)" xmlns:kvg="http://kanjivg.tagaini.net"></path><path class="stroke_order_diagram--existing_path" d="M28.23,20.29c4.22,0,17.78-3.29,22.52-3.29" id="Ske2t9rb014" kvg:type="㇐b" transform="matrix(1,0,0,1,296,-4)" xmlns:kvg="http://kanjivg.tagaini.net"></path><path class="stroke_order_diagram--existing_path" d="M35.77,22.08c2.04,1.3,5.28,5.36,5.79,7.38" id="Ske2t9rb015" kvg:type="㇔/㇑" transform="matrix(1,0,0,1,296,-4)" xmlns:kvg="http://kanjivg.tagaini.net"></path><path class="stroke_order_diagram--current_path" d="M62.25,9.75c0.03,0.42,0.12,1.11-0.06,1.7c-1.37,4.46-5.16,10.82-10.19,16.3" id="kvg:07be5-s4" kvg:type="㇒" transform="matrix(1,0,0,1,296,-4)" xmlns:kvg="http://kanjivg.tagaini.net"></path><path class="stroke_order_diagram--current_path" d="M62.25,9.75c0.03,0.42,0.12,1.11-0.06,1.7c-1.37,4.46-5.16,10.82-10.19,16.3" id="Ske2t9rb017" kvg:type="㇒" transform="matrix(1,0,0,1,296,-4)" xmlns:kvg="http://kanjivg.tagaini.net"></path><circle class="stroke_order_diagram--path_start" cx="62.25" cy="9.75" r="4" transform="matrix(1,0,0,1,296,-4)"></circle><line class="stroke_order_diagram--guide_line" x1="450" x2="450" y1="1" y2="99"></line><line class="stroke_order_diagram--bounding_box" x1="499" x2="499" y1="1" y2="99"></line><path class="stroke_order_diagram--existing_path" d="M30.74,9c0.04,0.55,0.09,1.41-0.09,2.2c-1.06,4.64-7.11,14.82-15.4,21.05" id="Ske2t9rb01a" kvg:type="㇒" transform="matrix(1,0,0,1,396,-4)" xmlns:kvg="http://kanjivg.tagaini.net"></path><path class="stroke_order_diagram--existing_path" d="M28.23,20.29c4.22,0,17.78-3.29,22.52-3.29" id="Ske2t9rb01b" kvg:type="㇐b" transform="matrix(1,0,0,1,396,-4)" xmlns:kvg="http://kanjivg.tagaini.net"></path><path class="stroke_order_diagram--existing_path" d="M35.77,22.08c2.04,1.3,5.28,5.36,5.79,7.38" id="Ske2t9rb01c" kvg:type="㇔/㇑" transform="matrix(1,0,0,1,396,-4)" xmlns:kvg="http://kanjivg.tagaini.net"></path><path class="stroke_order_diagram--existing_path" d="M62.25,9.75c0.03,0.42,0.12,1.11-0.06,1.7c-1.37,4.46-5.16,10.82-10.19,16.3" id="Ske2t9rb01d" kvg:type="㇒" transform="matrix(1,0,0,1,396,-4)" xmlns:kvg="http://kanjivg.tagaini.net"></path><path class="stroke_order_diagram--current_path" d="M61.23,18.6c5.06,0,24.59-3.1,30.27-3.1" id="kvg:07be5-s5" kvg:type="㇐b" transform="matrix(1,0,0,1,396,-4)" xmlns:kvg="http://kanjivg.tagaini.net"></path><path class="stroke_order_diagram--current_path" d="M61.23,18.6c5.06,0,24.59-3.1,30.27-3.1" id="Ske2t9rb01f" kvg:type="㇐b" transform="matrix(1,0,0,1,396,-4)" xmlns:kvg="http://kanjivg.tagaini.net"></path><circle class="stroke_order_diagram--path_start" cx="61.23" cy="18.6" r="4" transform="matrix(1,0,0,1,396,-4)"></circle><line class="stroke_order_diagram--guide_line" x1="550" x2="550" y1="1" y2="99"></line><line class="stroke_order_diagram--bounding_box" x1="599" x2="599" y1="1" y2="99"></line><path class="stroke_order_diagram--existing_path" d="M30.74,9c0.04,0.55,0.09,1.41-0.09,2.2c-1.06,4.64-7.11,14.82-15.4,21.05" id="Ske2t9rb01i" kvg:type="㇒" transform="matrix(1,0,0,1,496,-4)" xmlns:kvg="http://kanjivg.tagaini.net"></path><path class="stroke_order_diagram--existing_path" d="M28.23,20.29c4.22,0,17.78-3.29,22.52-3.29" id="Ske2t9rb01j" kvg:type="㇐b" transform="matrix(1,0,0,1,496,-4)" xmlns:kvg="http://kanjivg.tagaini.net"></path><path class="stroke_order_diagram--existing_path" d="M35.77,22.08c2.04,1.3,5.28,5.36,5.79,7.38" id="Ske2t9rb01k" kvg:type="㇔/㇑" transform="matrix(1,0,0,1,496,-4)" xmlns:kvg="http://kanjivg.tagaini.net"></path><path class="stroke_order_diagram--existing_path" d="M62.25,9.75c0.03,0.42,0.12,1.11-0.06,1.7c-1.37,4.46-5.16,10.82-10.19,16.3" id="Ske2t9rb01l" kvg:type="㇒" transform="matrix(1,0,0,1,496,-4)" xmlns:kvg="http://kanjivg.tagaini.net"></path><path class="stroke_order_diagram--existing_path" d="M61.23,18.6c5.06,0,24.59-3.1,30.27-3.1" id="Ske2t9rb01m" kvg:type="㇐b" transform="matrix(1,0,0,1,496,-4)" xmlns:kvg="http://kanjivg.tagaini.net"></path><path class="stroke_order_diagram--current_path" d="M76.77,20.3c0.03,0.2,0.06,0.53-0.06,0.82c-0.68,1.73-4.6,5.54-9.96,7.87" id="kvg:07be5-s6" kvg:type="㇒/㇚" transform="matrix(1,0,0,1,496,-4)" xmlns:kvg="http://kanjivg.tagaini.net"></path><path class="stroke_order_diagram--current_path" d="M76.77,20.3c0.03,0.2,0.06,0.53-0.06,0.82c-0.68,1.73-4.6,5.54-9.96,7.87" id="Ske2t9rb01o" kvg:type="㇒/㇚" transform="matrix(1,0,0,1,496,-4)" xmlns:kvg="http://kanjivg.tagaini.net"></path><circle class="stroke_order_diagram--path_start" cx="76.77" cy="20.3" r="4" transform="matrix(1,0,0,1,496,-4)"></circle><line class="stroke_order_diagram--guide_line" x1="650" x2="650" y1="1" y2="99"></line><line class="stroke_order_diagram--bounding_box" x1="699" x2="699" y1="1" y2="99"></line><path class="stroke_order_diagram--existing_path" d="M30.74,9c0.04,0.55,0.09,1.41-0.09,2.2c-1.06,4.64-7.11,14.82-15.4,21.05" id="Ske2t9rb01r" kvg:type="㇒" transform="matrix(1,0,0,1,596,-4)" xmlns:kvg="http://kanjivg.tagaini.net"></path><path class="stroke_order_diagram--existing_path" d="M28.23,20.29c4.22,0,17.78-3.29,22.52-3.29" id="Ske2t9rb01s" kvg:type="㇐b" transform="matrix(1,0,0,1,596,-4)" xmlns:kvg="http://kanjivg.tagaini.net"></path><path class="stroke_order_diagram--existing_path" d="M35.77,22.08c2.04,1.3,5.28,5.36,5.79,7.38" id="Ske2t9rb01t" kvg:type="㇔/㇑" transform="matrix(1,0,0,1,596,-4)" xmlns:kvg="http://kanjivg.tagaini.net"></path><path class="stroke_order_diagram--existing_path" d="M62.25,9.75c0.03,0.42,0.12,1.11-0.06,1.7c-1.37,4.46-5.16,10.82-10.19,16.3" id="Ske2t9rb01u" kvg:type="㇒" transform="matrix(1,0,0,1,596,-4)" xmlns:kvg="http://kanjivg.tagaini.net"></path><path class="stroke_order_diagram--existing_path" d="M61.23,18.6c5.06,0,24.59-3.1,30.27-3.1" id="Ske2t9rb01v" kvg:type="㇐b" transform="matrix(1,0,0,1,596,-4)" xmlns:kvg="http://kanjivg.tagaini.net"></path><path class="stroke_order_diagram--existing_path" d="M76.77,20.3c0.03,0.2,0.06,0.53-0.06,0.82c-0.68,1.73-4.6,5.54-9.96,7.87" id="Ske2t9rb01w" kvg:type="㇒/㇚" transform="matrix(1,0,0,1,596,-4)" xmlns:kvg="http://kanjivg.tagaini.net"></path><path class="stroke_order_diagram--current_path" d="M21.99,35.88c1.42,0.67,4.02,0.79,5.45,0.71c13.11-0.8,46.07-5.08,55.1-5.37c2.38-0.07,3.79,0.35,4.98,0.69" id="kvg:07be5-s7" kvg:type="㇐" transform="matrix(1,0,0,1,596,-4)" xmlns:kvg="http://kanjivg.tagaini.net"></path><path class="stroke_order_diagram--current_path" d="M21.99,35.88c1.42,0.67,4.02,0.79,5.45,0.71c13.11-0.8,46.07-5.08,55.1-5.37c2.38-0.07,3.79,0.35,4.98,0.69" id="Ske2t9rb01y" kvg:type="㇐" transform="matrix(1,0,0,1,596,-4)" xmlns:kvg="http://kanjivg.tagaini.net"></path><circle class="stroke_order_diagram--path_start" cx="21.99" cy="35.88" r="4" transform="matrix(1,0,0,1,596,-4)"></circle><line class="stroke_order_diagram--guide_line" x1="750" x2="750" y1="1" y2="99"></line><line class="stroke_order_diagram--bounding_box" x1="799" x2="799" y1="1" y2="99"></line><path class="stroke_order_diagram--existing_path" d="M30.74,9c0.04,0.55,0.09,1.41-0.09,2.2c-1.06,4.64-7.11,14.82-15.4,21.05" id="Ske2t9rb021" kvg:type="㇒" transform="matrix(1,0,0,1,696,-4)" xmlns:kvg="http://kanjivg.tagaini.net"></path><path class="stroke_order_diagram--existing_path" d="M28.23,20.29c4.22,0,17.78-3.29,22.52-3.29" id="Ske2t9rb022" kvg:type="㇐b" transform="matrix(1,0,0,1,696,-4)" xmlns:kvg="http://kanjivg.tagaini.net"></path><path class="stroke_order_diagram--existing_path" d="M35.77,22.08c2.04,1.3,5.28,5.36,5.79,7.38" id="Ske2t9rb023" kvg:type="㇔/㇑" transform="matrix(1,0,0,1,696,-4)" xmlns:kvg="http://kanjivg.tagaini.net"></path><path class="stroke_order_diagram--existing_path" d="M62.25,9.75c0.03,0.42,0.12,1.11-0.06,1.7c-1.37,4.46-5.16,10.82-10.19,16.3" id="Ske2t9rb024" kvg:type="㇒" transform="matrix(1,0,0,1,696,-4)" xmlns:kvg="http://kanjivg.tagaini.net"></path><path class="stroke_order_diagram--existing_path" d="M61.23,18.6c5.06,0,24.59-3.1,30.27-3.1" id="Ske2t9rb025" kvg:type="㇐b" transform="matrix(1,0,0,1,696,-4)" xmlns:kvg="http://kanjivg.tagaini.net"></path><path class="stroke_order_diagram--existing_path" d="M76.77,20.3c0.03,0.2,0.06,0.53-0.06,0.82c-0.68,1.73-4.6,5.54-9.96,7.87" id="Ske2t9rb026" kvg:type="㇒/㇚" transform="matrix(1,0,0,1,696,-4)" xmlns:kvg="http://kanjivg.tagaini.net"></path><path class="stroke_order_diagram--existing_path" d="M21.99,35.88c1.42,0.67,4.02,0.79,5.45,0.71c13.11-0.8,46.07-5.08,55.1-5.37c2.38-0.07,3.79,0.35,4.98,0.69" id="Ske2t9rb027" kvg:type="㇐" transform="matrix(1,0,0,1,696,-4)" xmlns:kvg="http://kanjivg.tagaini.net"></path><path class="stroke_order_diagram--current_path" d="M23.88,46.37c0.32,0.28,0.64,0.52,0.78,0.87c1.3,3.35,2.44,11.04,3.09,15.48" id="kvg:07be5-s8" kvg:type="㇑" transform="matrix(1,0,0,1,696,-4)" xmlns:kvg="http://kanjivg.tagaini.net"></path><path class="stroke_order_diagram--current_path" d="M23.88,46.37c0.32,0.28,0.64,0.52,0.78,0.87c1.3,3.35,2.44,11.04,3.09,15.48" id="Ske2t9rb029" kvg:type="㇑" transform="matrix(1,0,0,1,696,-4)" xmlns:kvg="http://kanjivg.tagaini.net"></path><circle class="stroke_order_diagram--path_start" cx="23.88" cy="46.37" r="4" transform="matrix(1,0,0,1,696,-4)"></circle><line class="stroke_order_diagram--guide_line" x1="850" x2="850" y1="1" y2="99"></line><line class="stroke_order_diagram--bounding_box" x1="899" x2="899" y1="1" y2="99"></line><path class="stroke_order_diagram--existing_path" d="M30.74,9c0.04,0.55,0.09,1.41-0.09,2.2c-1.06,4.64-7.11,14.82-15.4,21.05" id="Ske2t9rb02c" kvg:type="㇒" transform="matrix(1,0,0,1,796,-4)" xmlns:kvg="http://kanjivg.tagaini.net"></path><path class="stroke_order_diagram--existing_path" d="M28.23,20.29c4.22,0,17.78-3.29,22.52-3.29" id="Ske2t9rb02d" kvg:type="㇐b" transform="matrix(1,0,0,1,796,-4)" xmlns:kvg="http://kanjivg.tagaini.net"></path><path class="stroke_order_diagram--existing_path" d="M35.77,22.08c2.04,1.3,5.28,5.36,5.79,7.38" id="Ske2t9rb02e" kvg:type="㇔/㇑" transform="matrix(1,0,0,1,796,-4)" xmlns:kvg="http://kanjivg.tagaini.net"></path><path class="stroke_order_diagram--existing_path" d="M62.25,9.75c0.03,0.42,0.12,1.11-0.06,1.7c-1.37,4.46-5.16,10.82-10.19,16.3" id="Ske2t9rb02f" kvg:type="㇒" transform="matrix(1,0,0,1,796,-4)" xmlns:kvg="http://kanjivg.tagaini.net"></path><path class="stroke_order_diagram--existing_path" d="M61.23,18.6c5.06,0,24.59-3.1,30.27-3.1" id="Ske2t9rb02g" kvg:type="㇐b" transform="matrix(1,0,0,1,796,-4)" xmlns:kvg="http://kanjivg.tagaini.net"></path><path class="stroke_order_diagram--existing_path" d="M76.77,20.3c0.03,0.2,0.06,0.53-0.06,0.82c-0.68,1.73-4.6,5.54-9.96,7.87" id="Ske2t9rb02h" kvg:type="㇒/㇚" transform="matrix(1,0,0,1,796,-4)" xmlns:kvg="http://kanjivg.tagaini.net"></path><path class="stroke_order_diagram--existing_path" d="M21.99,35.88c1.42,0.67,4.02,0.79,5.45,0.71c13.11-0.8,46.07-5.08,55.1-5.37c2.38-0.07,3.79,0.35,4.98,0.69" id="Ske2t9rb02i" kvg:type="㇐" transform="matrix(1,0,0,1,796,-4)" xmlns:kvg="http://kanjivg.tagaini.net"></path><path class="stroke_order_diagram--existing_path" d="M23.88,46.37c0.32,0.28,0.64,0.52,0.78,0.87c1.3,3.35,2.44,11.04,3.09,15.48" id="Ske2t9rb02j" kvg:type="㇑" transform="matrix(1,0,0,1,796,-4)" xmlns:kvg="http://kanjivg.tagaini.net"></path><path class="stroke_order_diagram--current_path" d="M25.79,47.34c10.25-1.1,51.69-4.71,56.98-5.08c1.93-0.13,3,1.34,2.82,2.17c-1.35,6.32-1.97,9.56-4.42,14.32" id="kvg:07be5-s9" kvg:type="㇕" transform="matrix(1,0,0,1,796,-4)" xmlns:kvg="http://kanjivg.tagaini.net"></path><path class="stroke_order_diagram--current_path" d="M25.79,47.34c10.25-1.1,51.69-4.71,56.98-5.08c1.93-0.13,3,1.34,2.82,2.17c-1.35,6.32-1.97,9.56-4.42,14.32" id="Ske2t9rb02l" kvg:type="㇕" transform="matrix(1,0,0,1,796,-4)" xmlns:kvg="http://kanjivg.tagaini.net"></path><circle class="stroke_order_diagram--path_start" cx="25.79" cy="47.34" r="4" transform="matrix(1,0,0,1,796,-4)"></circle><line class="stroke_order_diagram--guide_line" x1="950" x2="950" y1="1" y2="99"></line><line class="stroke_order_diagram--bounding_box" x1="999" x2="999" y1="1" y2="99"></line><path class="stroke_order_diagram--existing_path" d="M30.74,9c0.04,0.55,0.09,1.41-0.09,2.2c-1.06,4.64-7.11,14.82-15.4,21.05" id="Ske2t9rb02o" kvg:type="㇒" transform="matrix(1,0,0,1,896,-4)" xmlns:kvg="http://kanjivg.tagaini.net"></path><path class="stroke_order_diagram--existing_path" d="M28.23,20.29c4.22,0,17.78-3.29,22.52-3.29" id="Ske2t9rb02p" kvg:type="㇐b" transform="matrix(1,0,0,1,896,-4)" xmlns:kvg="http://kanjivg.tagaini.net"></path><path class="stroke_order_diagram--existing_path" d="M35.77,22.08c2.04,1.3,5.28,5.36,5.79,7.38" id="Ske2t9rb02q" kvg:type="㇔/㇑" transform="matrix(1,0,0,1,896,-4)" xmlns:kvg="http://kanjivg.tagaini.net"></path><path class="stroke_order_diagram--existing_path" d="M62.25,9.75c0.03,0.42,0.12,1.11-0.06,1.7c-1.37,4.46-5.16,10.82-10.19,16.3" id="Ske2t9rb02r" kvg:type="㇒" transform="matrix(1,0,0,1,896,-4)" xmlns:kvg="http://kanjivg.tagaini.net"></path><path class="stroke_order_diagram--existing_path" d="M61.23,18.6c5.06,0,24.59-3.1,30.27-3.1" id="Ske2t9rb02s" kvg:type="㇐b" transform="matrix(1,0,0,1,896,-4)" xmlns:kvg="http://kanjivg.tagaini.net"></path><path class="stroke_order_diagram--existing_path" d="M76.77,20.3c0.03,0.2,0.06,0.53-0.06,0.82c-0.68,1.73-4.6,5.54-9.96,7.87" id="Ske2t9rb02t" kvg:type="㇒/㇚" transform="matrix(1,0,0,1,896,-4)" xmlns:kvg="http://kanjivg.tagaini.net"></path><path class="stroke_order_diagram--existing_path" d="M21.99,35.88c1.42,0.67,4.02,0.79,5.45,0.71c13.11-0.8,46.07-5.08,55.1-5.37c2.38-0.07,3.79,0.35,4.98,0.69" id="Ske2t9rb02u" kvg:type="㇐" transform="matrix(1,0,0,1,896,-4)" xmlns:kvg="http://kanjivg.tagaini.net"></path><path class="stroke_order_diagram--existing_path" d="M23.88,46.37c0.32,0.28,0.64,0.52,0.78,0.87c1.3,3.35,2.44,11.04,3.09,15.48" id="Ske2t9rb02v" kvg:type="㇑" transform="matrix(1,0,0,1,896,-4)" xmlns:kvg="http://kanjivg.tagaini.net"></path><path class="stroke_order_diagram--existing_path" d="M25.79,47.34c10.25-1.1,51.69-4.71,56.98-5.08c1.93-0.13,3,1.34,2.82,2.17c-1.35,6.32-1.97,9.56-4.42,14.32" id="Ske2t9rb02w" kvg:type="㇕" transform="matrix(1,0,0,1,896,-4)" xmlns:kvg="http://kanjivg.tagaini.net"></path><path class="stroke_order_diagram--current_path" d="M43.12,36.32c0.78,0.47,1.34,2.07,1.42,3.01c0.28,2.77,0.96,13.57,1.65,20.03" id="kvg:07be5-s10" kvg:type="㇒" transform="matrix(1,0,0,1,896,-4)" xmlns:kvg="http://kanjivg.tagaini.net"></path><path class="stroke_order_diagram--current_path" d="M43.12,36.32c0.78,0.47,1.34,2.07,1.42,3.01c0.28,2.77,0.96,13.57,1.65,20.03" id="Ske2t9rb02y" kvg:type="㇒" transform="matrix(1,0,0,1,896,-4)" xmlns:kvg="http://kanjivg.tagaini.net"></path><circle class="stroke_order_diagram--path_start" cx="43.12" cy="36.32" r="4" transform="matrix(1,0,0,1,896,-4)"></circle><line class="stroke_order_diagram--guide_line" x1="1050" x2="1050" y1="1" y2="99"></line><line class="stroke_order_diagram--bounding_box" x1="1099" x2="1099" y1="1" y2="99"></line><path class="stroke_order_diagram--existing_path" d="M30.74,9c0.04,0.55,0.09,1.41-0.09,2.2c-1.06,4.64-7.11,14.82-15.4,21.05" id="Ske2t9rb031" kvg:type="㇒" transform="matrix(1,0,0,1,996,-4)" xmlns:kvg="http://kanjivg.tagaini.net"></path><path class="stroke_order_diagram--existing_path" d="M28.23,20.29c4.22,0,17.78-3.29,22.52-3.29" id="Ske2t9rb032" kvg:type="㇐b" transform="matrix(1,0,0,1,996,-4)" xmlns:kvg="http://kanjivg.tagaini.net"></path><path class="stroke_order_diagram--existing_path" d="M35.77,22.08c2.04,1.3,5.28,5.36,5.79,7.38" id="Ske2t9rb033" kvg:type="㇔/㇑" transform="matrix(1,0,0,1,996,-4)" xmlns:kvg="http://kanjivg.tagaini.net"></path><path class="stroke_order_diagram--existing_path" d="M62.25,9.75c0.03,0.42,0.12,1.11-0.06,1.7c-1.37,4.46-5.16,10.82-10.19,16.3" id="Ske2t9rb034" kvg:type="㇒" transform="matrix(1,0,0,1,996,-4)" xmlns:kvg="http://kanjivg.tagaini.net"></path><path class="stroke_order_diagram--existing_path" d="M61.23,18.6c5.06,0,24.59-3.1,30.27-3.1" id="Ske2t9rb035" kvg:type="㇐b" transform="matrix(1,0,0,1,996,-4)" xmlns:kvg="http://kanjivg.tagaini.net"></path><path class="stroke_order_diagram--existing_path" d="M76.77,20.3c0.03,0.2,0.06,0.53-0.06,0.82c-0.68,1.73-4.6,5.54-9.96,7.87" id="Ske2t9rb036" kvg:type="㇒/㇚" transform="matrix(1,0,0,1,996,-4)" xmlns:kvg="http://kanjivg.tagaini.net"></path><path class="stroke_order_diagram--existing_path" d="M21.99,35.88c1.42,0.67,4.02,0.79,5.45,0.71c13.11-0.8,46.07-5.08,55.1-5.37c2.38-0.07,3.79,0.35,4.98,0.69" id="Ske2t9rb037" kvg:type="㇐" transform="matrix(1,0,0,1,996,-4)" xmlns:kvg="http://kanjivg.tagaini.net"></path><path class="stroke_order_diagram--existing_path" d="M23.88,46.37c0.32,0.28,0.64,0.52,0.78,0.87c1.3,3.35,2.44,11.04,3.09,15.48" id="Ske2t9rb038" kvg:type="㇑" transform="matrix(1,0,0,1,996,-4)" xmlns:kvg="http://kanjivg.tagaini.net"></path><path class="stroke_order_diagram--existing_path" d="M25.79,47.34c10.25-1.1,51.69-4.71,56.98-5.08c1.93-0.13,3,1.34,2.82,2.17c-1.35,6.32-1.97,9.56-4.42,14.32" id="Ske2t9rb039" kvg:type="㇕" transform="matrix(1,0,0,1,996,-4)" xmlns:kvg="http://kanjivg.tagaini.net"></path><path class="stroke_order_diagram--existing_path" d="M43.12,36.32c0.78,0.47,1.34,2.07,1.42,3.01c0.28,2.77,0.96,13.57,1.65,20.03" id="Ske2t9rb03a" kvg:type="㇒" transform="matrix(1,0,0,1,996,-4)" xmlns:kvg="http://kanjivg.tagaini.net"></path><path class="stroke_order_diagram--current_path" d="M62.85,36.02c0.9,0.98,1.57,2.32,1.25,4.27c-0.82,5.13-0.82,9.4-2.19,17.73" id="kvg:07be5-s11" kvg:type="㇟" transform="matrix(1,0,0,1,996,-4)" xmlns:kvg="http://kanjivg.tagaini.net"></path><path class="stroke_order_diagram--current_path" d="M62.85,36.02c0.9,0.98,1.57,2.32,1.25,4.27c-0.82,5.13-0.82,9.4-2.19,17.73" id="Ske2t9rb03c" kvg:type="㇟" transform="matrix(1,0,0,1,996,-4)" xmlns:kvg="http://kanjivg.tagaini.net"></path><circle class="stroke_order_diagram--path_start" cx="62.85" cy="36.02" r="4" transform="matrix(1,0,0,1,996,-4)"></circle><line class="stroke_order_diagram--guide_line" x1="1150" x2="1150" y1="1" y2="99"></line><line class="stroke_order_diagram--bounding_box" x1="1199" x2="1199" y1="1" y2="99"></line><path class="stroke_order_diagram--existing_path" d="M30.74,9c0.04,0.55,0.09,1.41-0.09,2.2c-1.06,4.64-7.11,14.82-15.4,21.05" id="Ske2t9rb03f" kvg:type="㇒" transform="matrix(1,0,0,1,1096,-4)" xmlns:kvg="http://kanjivg.tagaini.net"></path><path class="stroke_order_diagram--existing_path" d="M28.23,20.29c4.22,0,17.78-3.29,22.52-3.29" id="Ske2t9rb03g" kvg:type="㇐b" transform="matrix(1,0,0,1,1096,-4)" xmlns:kvg="http://kanjivg.tagaini.net"></path><path class="stroke_order_diagram--existing_path" d="M35.77,22.08c2.04,1.3,5.28,5.36,5.79,7.38" id="Ske2t9rb03h" kvg:type="㇔/㇑" transform="matrix(1,0,0,1,1096,-4)" xmlns:kvg="http://kanjivg.tagaini.net"></path><path class="stroke_order_diagram--existing_path" d="M62.25,9.75c0.03,0.42,0.12,1.11-0.06,1.7c-1.37,4.46-5.16,10.82-10.19,16.3" id="Ske2t9rb03i" kvg:type="㇒" transform="matrix(1,0,0,1,1096,-4)" xmlns:kvg="http://kanjivg.tagaini.net"></path><path class="stroke_order_diagram--existing_path" d="M61.23,18.6c5.06,0,24.59-3.1,30.27-3.1" id="Ske2t9rb03j" kvg:type="㇐b" transform="matrix(1,0,0,1,1096,-4)" xmlns:kvg="http://kanjivg.tagaini.net"></path><path class="stroke_order_diagram--existing_path" d="M76.77,20.3c0.03,0.2,0.06,0.53-0.06,0.82c-0.68,1.73-4.6,5.54-9.96,7.87" id="Ske2t9rb03k" kvg:type="㇒/㇚" transform="matrix(1,0,0,1,1096,-4)" xmlns:kvg="http://kanjivg.tagaini.net"></path><path class="stroke_order_diagram--existing_path" d="M21.99,35.88c1.42,0.67,4.02,0.79,5.45,0.71c13.11-0.8,46.07-5.08,55.1-5.37c2.38-0.07,3.79,0.35,4.98,0.69" id="Ske2t9rb03l" kvg:type="㇐" transform="matrix(1,0,0,1,1096,-4)" xmlns:kvg="http://kanjivg.tagaini.net"></path><path class="stroke_order_diagram--existing_path" d="M23.88,46.37c0.32,0.28,0.64,0.52,0.78,0.87c1.3,3.35,2.44,11.04,3.09,15.48" id="Ske2t9rb03m" kvg:type="㇑" transform="matrix(1,0,0,1,1096,-4)" xmlns:kvg="http://kanjivg.tagaini.net"></path><path class="stroke_order_diagram--existing_path" d="M25.79,47.34c10.25-1.1,51.69-4.71,56.98-5.08c1.93-0.13,3,1.34,2.82,2.17c-1.35,6.32-1.97,9.56-4.42,14.32" id="Ske2t9rb03n" kvg:type="㇕" transform="matrix(1,0,0,1,1096,-4)" xmlns:kvg="http://kanjivg.tagaini.net"></path><path class="stroke_order_diagram--existing_path" d="M43.12,36.32c0.78,0.47,1.34,2.07,1.42,3.01c0.28,2.77,0.96,13.57,1.65,20.03" id="Ske2t9rb03o" kvg:type="㇒" transform="matrix(1,0,0,1,1096,-4)" xmlns:kvg="http://kanjivg.tagaini.net"></path><path class="stroke_order_diagram--existing_path" d="M62.85,36.02c0.9,0.98,1.57,2.32,1.25,4.27c-0.82,5.13-0.82,9.4-2.19,17.73" id="Ske2t9rb03p" kvg:type="㇟" transform="matrix(1,0,0,1,1096,-4)" xmlns:kvg="http://kanjivg.tagaini.net"></path><path class="stroke_order_diagram--current_path" d="M27.99,60.72c5.8-0.26,46.31-3.54,53.68-3.81" id="kvg:07be5-s12" kvg:type="㇐" transform="matrix(1,0,0,1,1096,-4)" xmlns:kvg="http://kanjivg.tagaini.net"></path><path class="stroke_order_diagram--current_path" d="M27.99,60.72c5.8-0.26,46.31-3.54,53.68-3.81" id="Ske2t9rb03r" kvg:type="㇐" transform="matrix(1,0,0,1,1096,-4)" xmlns:kvg="http://kanjivg.tagaini.net"></path><circle class="stroke_order_diagram--path_start" cx="27.99" cy="60.72" r="4" transform="matrix(1,0,0,1,1096,-4)"></circle><line class="stroke_order_diagram--guide_line" x1="1250" x2="1250" y1="1" y2="99"></line><line class="stroke_order_diagram--bounding_box" x1="1299" x2="1299" y1="1" y2="99"></line><path class="stroke_order_diagram--existing_path" d="M30.74,9c0.04,0.55,0.09,1.41-0.09,2.2c-1.06,4.64-7.11,14.82-15.4,21.05" id="Ske2t9rb03u" kvg:type="㇒" transform="matrix(1,0,0,1,1196,-4)" xmlns:kvg="http://kanjivg.tagaini.net"></path><path class="stroke_order_diagram--existing_path" d="M28.23,20.29c4.22,0,17.78-3.29,22.52-3.29" id="Ske2t9rb03v" kvg:type="㇐b" transform="matrix(1,0,0,1,1196,-4)" xmlns:kvg="http://kanjivg.tagaini.net"></path><path class="stroke_order_diagram--existing_path" d="M35.77,22.08c2.04,1.3,5.28,5.36,5.79,7.38" id="Ske2t9rb03w" kvg:type="㇔/㇑" transform="matrix(1,0,0,1,1196,-4)" xmlns:kvg="http://kanjivg.tagaini.net"></path><path class="stroke_order_diagram--existing_path" d="M62.25,9.75c0.03,0.42,0.12,1.11-0.06,1.7c-1.37,4.46-5.16,10.82-10.19,16.3" id="Ske2t9rb03x" kvg:type="㇒" transform="matrix(1,0,0,1,1196,-4)" xmlns:kvg="http://kanjivg.tagaini.net"></path><path class="stroke_order_diagram--existing_path" d="M61.23,18.6c5.06,0,24.59-3.1,30.27-3.1" id="Ske2t9rb03y" kvg:type="㇐b" transform="matrix(1,0,0,1,1196,-4)" xmlns:kvg="http://kanjivg.tagaini.net"></path><path class="stroke_order_diagram--existing_path" d="M76.77,20.3c0.03,0.2,0.06,0.53-0.06,0.82c-0.68,1.73-4.6,5.54-9.96,7.87" id="Ske2t9rb03z" kvg:type="㇒/㇚" transform="matrix(1,0,0,1,1196,-4)" xmlns:kvg="http://kanjivg.tagaini.net"></path><path class="stroke_order_diagram--existing_path" d="M21.99,35.88c1.42,0.67,4.02,0.79,5.45,0.71c13.11-0.8,46.07-5.08,55.1-5.37c2.38-0.07,3.79,0.35,4.98,0.69" id="Ske2t9rb040" kvg:type="㇐" transform="matrix(1,0,0,1,1196,-4)" xmlns:kvg="http://kanjivg.tagaini.net"></path><path class="stroke_order_diagram--existing_path" d="M23.88,46.37c0.32,0.28,0.64,0.52,0.78,0.87c1.3,3.35,2.44,11.04,3.09,15.48" id="Ske2t9rb041" kvg:type="㇑" transform="matrix(1,0,0,1,1196,-4)" xmlns:kvg="http://kanjivg.tagaini.net"></path><path class="stroke_order_diagram--existing_path" d="M25.79,47.34c10.25-1.1,51.69-4.71,56.98-5.08c1.93-0.13,3,1.34,2.82,2.17c-1.35,6.32-1.97,9.56-4.42,14.32" id="Ske2t9rb042" kvg:type="㇕" transform="matrix(1,0,0,1,1196,-4)" xmlns:kvg="http://kanjivg.tagaini.net"></path><path class="stroke_order_diagram--existing_path" d="M43.12,36.32c0.78,0.47,1.34,2.07,1.42,3.01c0.28,2.77,0.96,13.57,1.65,20.03" id="Ske2t9rb043" kvg:type="㇒" transform="matrix(1,0,0,1,1196,-4)" xmlns:kvg="http://kanjivg.tagaini.net"></path><path class="stroke_order_diagram--existing_path" d="M62.85,36.02c0.9,0.98,1.57,2.32,1.25,4.27c-0.82,5.13-0.82,9.4-2.19,17.73" id="Ske2t9rb044" kvg:type="㇟" transform="matrix(1,0,0,1,1196,-4)" xmlns:kvg="http://kanjivg.tagaini.net"></path><path class="stroke_order_diagram--existing_path" d="M27.99,60.72c5.8-0.26,46.31-3.54,53.68-3.81" id="Ske2t9rb045" kvg:type="㇐" transform="matrix(1,0,0,1,1196,-4)" xmlns:kvg="http://kanjivg.tagaini.net"></path><path class="stroke_order_diagram--current_path" d="M17.83,73.14c1.8,0.34,3.84,0.44,5.91,0.31c10.52-0.64,45.99-3.55,61.9-4.32c2.05-0.1,3.34,0.04,5.39,0.27" id="kvg:07be5-s13" kvg:type="㇐" transform="matrix(1,0,0,1,1196,-4)" xmlns:kvg="http://kanjivg.tagaini.net"></path><path class="stroke_order_diagram--current_path" d="M17.83,73.14c1.8,0.34,3.84,0.44,5.91,0.31c10.52-0.64,45.99-3.55,61.9-4.32c2.05-0.1,3.34,0.04,5.39,0.27" id="Ske2t9rb047" kvg:type="㇐" transform="matrix(1,0,0,1,1196,-4)" xmlns:kvg="http://kanjivg.tagaini.net"></path><circle class="stroke_order_diagram--path_start" cx="17.83" cy="73.14" r="4" transform="matrix(1,0,0,1,1196,-4)"></circle><line class="stroke_order_diagram--guide_line" x1="1350" x2="1350" y1="1" y2="99"></line><line class="stroke_order_diagram--bounding_box" x1="1399" x2="1399" y1="1" y2="99"></line><path class="stroke_order_diagram--existing_path" d="M30.74,9c0.04,0.55,0.09,1.41-0.09,2.2c-1.06,4.64-7.11,14.82-15.4,21.05" id="Ske2t9rb04a" kvg:type="㇒" transform="matrix(1,0,0,1,1296,-4)" xmlns:kvg="http://kanjivg.tagaini.net"></path><path class="stroke_order_diagram--existing_path" d="M28.23,20.29c4.22,0,17.78-3.29,22.52-3.29" id="Ske2t9rb04b" kvg:type="㇐b" transform="matrix(1,0,0,1,1296,-4)" xmlns:kvg="http://kanjivg.tagaini.net"></path><path class="stroke_order_diagram--existing_path" d="M35.77,22.08c2.04,1.3,5.28,5.36,5.79,7.38" id="Ske2t9rb04c" kvg:type="㇔/㇑" transform="matrix(1,0,0,1,1296,-4)" xmlns:kvg="http://kanjivg.tagaini.net"></path><path class="stroke_order_diagram--existing_path" d="M62.25,9.75c0.03,0.42,0.12,1.11-0.06,1.7c-1.37,4.46-5.16,10.82-10.19,16.3" id="Ske2t9rb04d" kvg:type="㇒" transform="matrix(1,0,0,1,1296,-4)" xmlns:kvg="http://kanjivg.tagaini.net"></path><path class="stroke_order_diagram--existing_path" d="M61.23,18.6c5.06,0,24.59-3.1,30.27-3.1" id="Ske2t9rb04e" kvg:type="㇐b" transform="matrix(1,0,0,1,1296,-4)" xmlns:kvg="http://kanjivg.tagaini.net"></path><path class="stroke_order_diagram--existing_path" d="M76.77,20.3c0.03,0.2,0.06,0.53-0.06,0.82c-0.68,1.73-4.6,5.54-9.96,7.87" id="Ske2t9rb04f" kvg:type="㇒/㇚" transform="matrix(1,0,0,1,1296,-4)" xmlns:kvg="http://kanjivg.tagaini.net"></path><path class="stroke_order_diagram--existing_path" d="M21.99,35.88c1.42,0.67,4.02,0.79,5.45,0.71c13.11-0.8,46.07-5.08,55.1-5.37c2.38-0.07,3.79,0.35,4.98,0.69" id="Ske2t9rb04g" kvg:type="㇐" transform="matrix(1,0,0,1,1296,-4)" xmlns:kvg="http://kanjivg.tagaini.net"></path><path class="stroke_order_diagram--existing_path" d="M23.88,46.37c0.32,0.28,0.64,0.52,0.78,0.87c1.3,3.35,2.44,11.04,3.09,15.48" id="Ske2t9rb04h" kvg:type="㇑" transform="matrix(1,0,0,1,1296,-4)" xmlns:kvg="http://kanjivg.tagaini.net"></path><path class="stroke_order_diagram--existing_path" d="M25.79,47.34c10.25-1.1,51.69-4.71,56.98-5.08c1.93-0.13,3,1.34,2.82,2.17c-1.35,6.32-1.97,9.56-4.42,14.32" id="Ske2t9rb04i" kvg:type="㇕" transform="matrix(1,0,0,1,1296,-4)" xmlns:kvg="http://kanjivg.tagaini.net"></path><path class="stroke_order_diagram--existing_path" d="M43.12,36.32c0.78,0.47,1.34,2.07,1.42,3.01c0.28,2.77,0.96,13.57,1.65,20.03" id="Ske2t9rb04j" kvg:type="㇒" transform="matrix(1,0,0,1,1296,-4)" xmlns:kvg="http://kanjivg.tagaini.net"></path><path class="stroke_order_diagram--existing_path" d="M62.85,36.02c0.9,0.98,1.57,2.32,1.25,4.27c-0.82,5.13-0.82,9.4-2.19,17.73" id="Ske2t9rb04k" kvg:type="㇟" transform="matrix(1,0,0,1,1296,-4)" xmlns:kvg="http://kanjivg.tagaini.net"></path><path class="stroke_order_diagram--existing_path" d="M27.99,60.72c5.8-0.26,46.31-3.54,53.68-3.81" id="Ske2t9rb04l" kvg:type="㇐" transform="matrix(1,0,0,1,1296,-4)" xmlns:kvg="http://kanjivg.tagaini.net"></path><path class="stroke_order_diagram--existing_path" d="M17.83,73.14c1.8,0.34,3.84,0.44,5.91,0.31c10.52-0.64,45.99-3.55,61.9-4.32c2.05-0.1,3.34,0.04,5.39,0.27" id="Ske2t9rb04m" kvg:type="㇐" transform="matrix(1,0,0,1,1296,-4)" xmlns:kvg="http://kanjivg.tagaini.net"></path><path class="stroke_order_diagram--current_path" d="M53.59,61c0.4,0.39,0.71,1.72,0.71,2.52c0,8.14,0,32.38-0.08,37.23" id="kvg:07be5-s14" kvg:type="㇑" transform="matrix(1,0,0,1,1296,-4)" xmlns:kvg="http://kanjivg.tagaini.net"></path><path class="stroke_order_diagram--current_path" d="M53.59,61c0.4,0.39,0.71,1.72,0.71,2.52c0,8.14,0,32.38-0.08,37.23" id="Ske2t9rb04o" kvg:type="㇑" transform="matrix(1,0,0,1,1296,-4)" xmlns:kvg="http://kanjivg.tagaini.net"></path><circle class="stroke_order_diagram--path_start" cx="53.59" cy="61" r="4" transform="matrix(1,0,0,1,1296,-4)"></circle><line class="stroke_order_diagram--guide_line" x1="1450" x2="1450" y1="1" y2="99"></line><line class="stroke_order_diagram--bounding_box" x1="1499" x2="1499" y1="1" y2="99"></line><path class="stroke_order_diagram--existing_path" d="M30.74,9c0.04,0.55,0.09,1.41-0.09,2.2c-1.06,4.64-7.11,14.82-15.4,21.05" id="Ske2t9rb04r" kvg:type="㇒" transform="matrix(1,0,0,1,1396,-4)" xmlns:kvg="http://kanjivg.tagaini.net"></path><path class="stroke_order_diagram--existing_path" d="M28.23,20.29c4.22,0,17.78-3.29,22.52-3.29" id="Ske2t9rb04s" kvg:type="㇐b" transform="matrix(1,0,0,1,1396,-4)" xmlns:kvg="http://kanjivg.tagaini.net"></path><path class="stroke_order_diagram--existing_path" d="M35.77,22.08c2.04,1.3,5.28,5.36,5.79,7.38" id="Ske2t9rb04t" kvg:type="㇔/㇑" transform="matrix(1,0,0,1,1396,-4)" xmlns:kvg="http://kanjivg.tagaini.net"></path><path class="stroke_order_diagram--existing_path" d="M62.25,9.75c0.03,0.42,0.12,1.11-0.06,1.7c-1.37,4.46-5.16,10.82-10.19,16.3" id="Ske2t9rb04u" kvg:type="㇒" transform="matrix(1,0,0,1,1396,-4)" xmlns:kvg="http://kanjivg.tagaini.net"></path><path class="stroke_order_diagram--existing_path" d="M61.23,18.6c5.06,0,24.59-3.1,30.27-3.1" id="Ske2t9rb04v" kvg:type="㇐b" transform="matrix(1,0,0,1,1396,-4)" xmlns:kvg="http://kanjivg.tagaini.net"></path><path class="stroke_order_diagram--existing_path" d="M76.77,20.3c0.03,0.2,0.06,0.53-0.06,0.82c-0.68,1.73-4.6,5.54-9.96,7.87" id="Ske2t9rb04w" kvg:type="㇒/㇚" transform="matrix(1,0,0,1,1396,-4)" xmlns:kvg="http://kanjivg.tagaini.net"></path><path class="stroke_order_diagram--existing_path" d="M21.99,35.88c1.42,0.67,4.02,0.79,5.45,0.71c13.11-0.8,46.07-5.08,55.1-5.37c2.38-0.07,3.79,0.35,4.98,0.69" id="Ske2t9rb04x" kvg:type="㇐" transform="matrix(1,0,0,1,1396,-4)" xmlns:kvg="http://kanjivg.tagaini.net"></path><path class="stroke_order_diagram--existing_path" d="M23.88,46.37c0.32,0.28,0.64,0.52,0.78,0.87c1.3,3.35,2.44,11.04,3.09,15.48" id="Ske2t9rb04y" kvg:type="㇑" transform="matrix(1,0,0,1,1396,-4)" xmlns:kvg="http://kanjivg.tagaini.net"></path><path class="stroke_order_diagram--existing_path" d="M25.79,47.34c10.25-1.1,51.69-4.71,56.98-5.08c1.93-0.13,3,1.34,2.82,2.17c-1.35,6.32-1.97,9.56-4.42,14.32" id="Ske2t9rb04z" kvg:type="㇕" transform="matrix(1,0,0,1,1396,-4)" xmlns:kvg="http://kanjivg.tagaini.net"></path><path class="stroke_order_diagram--existing_path" d="M43.12,36.32c0.78,0.47,1.34,2.07,1.42,3.01c0.28,2.77,0.96,13.57,1.65,20.03" id="Ske2t9rb050" kvg:type="㇒" transform="matrix(1,0,0,1,1396,-4)" xmlns:kvg="http://kanjivg.tagaini.net"></path><path class="stroke_order_diagram--existing_path" d="M62.85,36.02c0.9,0.98,1.57,2.32,1.25,4.27c-0.82,5.13-0.82,9.4-2.19,17.73" id="Ske2t9rb051" kvg:type="㇟" transform="matrix(1,0,0,1,1396,-4)" xmlns:kvg="http://kanjivg.tagaini.net"></path><path class="stroke_order_diagram--existing_path" d="M27.99,60.72c5.8-0.26,46.31-3.54,53.68-3.81" id="Ske2t9rb052" kvg:type="㇐" transform="matrix(1,0,0,1,1396,-4)" xmlns:kvg="http://kanjivg.tagaini.net"></path><path class="stroke_order_diagram--existing_path" d="M17.83,73.14c1.8,0.34,3.84,0.44,5.91,0.31c10.52-0.64,45.99-3.55,61.9-4.32c2.05-0.1,3.34,0.04,5.39,0.27" id="Ske2t9rb053" kvg:type="㇐" transform="matrix(1,0,0,1,1396,-4)" xmlns:kvg="http://kanjivg.tagaini.net"></path><path class="stroke_order_diagram--existing_path" d="M53.59,61c0.4,0.39,0.71,1.72,0.71,2.52c0,8.14,0,32.38-0.08,37.23" id="Ske2t9rb054" kvg:type="㇑" transform="matrix(1,0,0,1,1396,-4)" xmlns:kvg="http://kanjivg.tagaini.net"></path><path class="stroke_order_diagram--current_path" d="M53.5,71.75C45.78,81.22,32.91,92.76,15.25,98" id="kvg:07be5-s15" kvg:type="㇒" transform="matrix(1,0,0,1,1396,-4)" xmlns:kvg="http://kanjivg.tagaini.net"></path><path class="stroke_order_diagram--current_path" d="M53.5,71.75C45.78,81.22,32.91,92.76,15.25,98" id="Ske2t9rb056" kvg:type="㇒" transform="matrix(1,0,0,1,1396,-4)" xmlns:kvg="http://kanjivg.tagaini.net"></path><circle class="stroke_order_diagram--path_start" cx="53.5" cy="71.75" r="4" transform="matrix(1,0,0,1,1396,-4)"></circle><line class="stroke_order_diagram--guide_line" x1="1550" x2="1550" y1="1" y2="99"></line><line class="stroke_order_diagram--bounding_box" x1="1599" x2="1599" y1="1" y2="99"></line><path class="stroke_order_diagram--existing_path" d="M30.74,9c0.04,0.55,0.09,1.41-0.09,2.2c-1.06,4.64-7.11,14.82-15.4,21.05" id="Ske2t9rb059" kvg:type="㇒" transform="matrix(1,0,0,1,1496,-4)" xmlns:kvg="http://kanjivg.tagaini.net"></path><path class="stroke_order_diagram--existing_path" d="M28.23,20.29c4.22,0,17.78-3.29,22.52-3.29" id="Ske2t9rb05a" kvg:type="㇐b" transform="matrix(1,0,0,1,1496,-4)" xmlns:kvg="http://kanjivg.tagaini.net"></path><path class="stroke_order_diagram--existing_path" d="M35.77,22.08c2.04,1.3,5.28,5.36,5.79,7.38" id="Ske2t9rb05b" kvg:type="㇔/㇑" transform="matrix(1,0,0,1,1496,-4)" xmlns:kvg="http://kanjivg.tagaini.net"></path><path class="stroke_order_diagram--existing_path" d="M62.25,9.75c0.03,0.42,0.12,1.11-0.06,1.7c-1.37,4.46-5.16,10.82-10.19,16.3" id="Ske2t9rb05c" kvg:type="㇒" transform="matrix(1,0,0,1,1496,-4)" xmlns:kvg="http://kanjivg.tagaini.net"></path><path class="stroke_order_diagram--existing_path" d="M61.23,18.6c5.06,0,24.59-3.1,30.27-3.1" id="Ske2t9rb05d" kvg:type="㇐b" transform="matrix(1,0,0,1,1496,-4)" xmlns:kvg="http://kanjivg.tagaini.net"></path><path class="stroke_order_diagram--existing_path" d="M76.77,20.3c0.03,0.2,0.06,0.53-0.06,0.82c-0.68,1.73-4.6,5.54-9.96,7.87" id="Ske2t9rb05e" kvg:type="㇒/㇚" transform="matrix(1,0,0,1,1496,-4)" xmlns:kvg="http://kanjivg.tagaini.net"></path><path class="stroke_order_diagram--existing_path" d="M21.99,35.88c1.42,0.67,4.02,0.79,5.45,0.71c13.11-0.8,46.07-5.08,55.1-5.37c2.38-0.07,3.79,0.35,4.98,0.69" id="Ske2t9rb05f" kvg:type="㇐" transform="matrix(1,0,0,1,1496,-4)" xmlns:kvg="http://kanjivg.tagaini.net"></path><path class="stroke_order_diagram--existing_path" d="M23.88,46.37c0.32,0.28,0.64,0.52,0.78,0.87c1.3,3.35,2.44,11.04,3.09,15.48" id="Ske2t9rb05g" kvg:type="㇑" transform="matrix(1,0,0,1,1496,-4)" xmlns:kvg="http://kanjivg.tagaini.net"></path><path class="stroke_order_diagram--existing_path" d="M25.79,47.34c10.25-1.1,51.69-4.71,56.98-5.08c1.93-0.13,3,1.34,2.82,2.17c-1.35,6.32-1.97,9.56-4.42,14.32" id="Ske2t9rb05h" kvg:type="㇕" transform="matrix(1,0,0,1,1496,-4)" xmlns:kvg="http://kanjivg.tagaini.net"></path><path class="stroke_order_diagram--existing_path" d="M43.12,36.32c0.78,0.47,1.34,2.07,1.42,3.01c0.28,2.77,0.96,13.57,1.65,20.03" id="Ske2t9rb05i" kvg:type="㇒" transform="matrix(1,0,0,1,1496,-4)" xmlns:kvg="http://kanjivg.tagaini.net"></path><path class="stroke_order_diagram--existing_path" d="M62.85,36.02c0.9,0.98,1.57,2.32,1.25,4.27c-0.82,5.13-0.82,9.4-2.19,17.73" id="Ske2t9rb05j" kvg:type="㇟" transform="matrix(1,0,0,1,1496,-4)" xmlns:kvg="http://kanjivg.tagaini.net"></path><path class="stroke_order_diagram--existing_path" d="M27.99,60.72c5.8-0.26,46.31-3.54,53.68-3.81" id="Ske2t9rb05k" kvg:type="㇐" transform="matrix(1,0,0,1,1496,-4)" xmlns:kvg="http://kanjivg.tagaini.net"></path><path class="stroke_order_diagram--existing_path" d="M17.83,73.14c1.8,0.34,3.84,0.44,5.91,0.31c10.52-0.64,45.99-3.55,61.9-4.32c2.05-0.1,3.34,0.04,5.39,0.27" id="Ske2t9rb05l" kvg:type="㇐" transform="matrix(1,0,0,1,1496,-4)" xmlns:kvg="http://kanjivg.tagaini.net"></path><path class="stroke_order_diagram--existing_path" d="M53.59,61c0.4,0.39,0.71,1.72,0.71,2.52c0,8.14,0,32.38-0.08,37.23" id="Ske2t9rb05m" kvg:type="㇑" transform="matrix(1,0,0,1,1496,-4)" xmlns:kvg="http://kanjivg.tagaini.net"></path><path class="stroke_order_diagram--existing_path" d="M53.5,71.75C45.78,81.22,32.91,92.76,15.25,98" id="Ske2t9rb05n" kvg:type="㇒" transform="matrix(1,0,0,1,1496,-4)" xmlns:kvg="http://kanjivg.tagaini.net"></path><path class="stroke_order_diagram--current_path" d="M54.79,72.57c5.21,4.93,23.96,17.68,32,21.89c1.79,0.94,3.22,1.49,4.96,1.79" id="kvg:07be5-s16" kvg:type="㇏" transform="matrix(1,0,0,1,1496,-4)" xmlns:kvg="http://kanjivg.tagaini.net"></path><path class="stroke_order_diagram--current_path" d="M54.79,72.57c5.21,4.93,23.96,17.68,32,21.89c1.79,0.94,3.22,1.49,4.96,1.79" id="Ske2t9rb05p" kvg:type="㇏" transform="matrix(1,0,0,1,1496,-4)" xmlns:kvg="http://kanjivg.tagaini.net"></path><circle class="stroke_order_diagram--path_start" cx="54.79" cy="72.57" r="4" transform="matrix(1,0,0,1,1496,-4)"></circle></svg>