<svg class="stroke_order_diagram--svg_container_for_518662b5d5dda7965800132f" style="height: 100px; width: 800px;" viewbox="0 0 800 100"><desc>Created with Snap</desc><defs></defs><line class="stroke_order_diagram--bounding_box" x1="1" x2="799" y1="1" y2="1"></line><line class="stroke_order_diagram--bounding_box" x1="1" x2="1" y1="1" y2="99"></line><line class="stroke_order_diagram--bounding_box" x1="1" x2="799" y1="99" y2="99"></line><line class="stroke_order_diagram--guide_line" x1="0" x2="800" y1="50" y2="50"></line><line class="stroke_order_diagram--guide_line" x1="50" x2="50" y1="1" y2="99"></line><line class="stroke_order_diagram--bounding_box" x1="99" x2="99" y1="1" y2="99"></line><path class="stroke_order_diagram--current_path" d="M15.44,26.89c2.92,2.26,7.33,8.65,8.06,12.16" id="kvg:07c75-s1" kvg:type="㇔" transform="matrix(1,0,0,1,-4,-4)" xmlns:kvg="http://kanjivg.tagaini.net"></path><path class="stroke_order_diagram--current_path" d="M15.44,26.89c2.92,2.26,7.33,8.65,8.06,12.16" id="Ske2thzurh" kvg:type="㇔" transform="matrix(1,0,0,1,-4,-4)" xmlns:kvg="http://kanjivg.tagaini.net"></path><circle class="stroke_order_diagram--path_start" cx="15.44" cy="26.89" r="4" transform="matrix(1,0,0,1,-4,-4)"></circle><line class="stroke_order_diagram--guide_line" x1="150" x2="150" y1="1" y2="99"></line><line class="stroke_order_diagram--bounding_box" x1="199" x2="199" y1="1" y2="99"></line><path class="stroke_order_diagram--existing_path" d="M15.44,26.89c2.92,2.26,7.33,8.65,8.06,12.16" id="Ske2thzurk" kvg:type="㇔" transform="matrix(1,0,0,1,96,-4)" xmlns:kvg="http://kanjivg.tagaini.net"></path><path class="stroke_order_diagram--current_path" d="M48.26,23.47c0.02,0.35,0.05,0.9-0.05,1.4c-0.57,2.96-3.87,9.45-8.39,13.42" id="kvg:07c75-s2" kvg:type="㇒" transform="matrix(1,0,0,1,96,-4)" xmlns:kvg="http://kanjivg.tagaini.net"></path><path class="stroke_order_diagram--current_path" d="M48.26,23.47c0.02,0.35,0.05,0.9-0.05,1.4c-0.57,2.96-3.87,9.45-8.39,13.42" id="Ske2thzurm" kvg:type="㇒" transform="matrix(1,0,0,1,96,-4)" xmlns:kvg="http://kanjivg.tagaini.net"></path><circle class="stroke_order_diagram--path_start" cx="48.26" cy="23.47" r="4" transform="matrix(1,0,0,1,96,-4)"></circle><line class="stroke_order_diagram--guide_line" x1="250" x2="250" y1="1" y2="99"></line><line class="stroke_order_diagram--bounding_box" x1="299" x2="299" y1="1" y2="99"></line><path class="stroke_order_diagram--existing_path" d="M15.44,26.89c2.92,2.26,7.33,8.65,8.06,12.16" id="Ske2thzurp" kvg:type="㇔" transform="matrix(1,0,0,1,196,-4)" xmlns:kvg="http://kanjivg.tagaini.net"></path><path class="stroke_order_diagram--existing_path" d="M48.26,23.47c0.02,0.35,0.05,0.9-0.05,1.4c-0.57,2.96-3.87,9.45-8.39,13.42" id="Ske2thzurq" kvg:type="㇒" transform="matrix(1,0,0,1,196,-4)" xmlns:kvg="http://kanjivg.tagaini.net"></path><path class="stroke_order_diagram--current_path" d="M13.1,47.05c0.67,0.16,2.45,0.55,4.23,0.47c6.37-0.31,18.99-1.85,26.19-2.35c1.77-0.12,2.22-0.16,3.34,0" id="kvg:07c75-s3" kvg:type="㇐" transform="matrix(1,0,0,1,196,-4)" xmlns:kvg="http://kanjivg.tagaini.net"></path><path class="stroke_order_diagram--current_path" d="M13.1,47.05c0.67,0.16,2.45,0.55,4.23,0.47c6.37-0.31,18.99-1.85,26.19-2.35c1.77-0.12,2.22-0.16,3.34,0" id="Ske2thzurs" kvg:type="㇐" transform="matrix(1,0,0,1,196,-4)" xmlns:kvg="http://kanjivg.tagaini.net"></path><circle class="stroke_order_diagram--path_start" cx="13.1" cy="47.05" r="4" transform="matrix(1,0,0,1,196,-4)"></circle><line class="stroke_order_diagram--guide_line" x1="350" x2="350" y1="1" y2="99"></line><line class="stroke_order_diagram--bounding_box" x1="399" x2="399" y1="1" y2="99"></line><path class="stroke_order_diagram--existing_path" d="M15.44,26.89c2.92,2.26,7.33,8.65,8.06,12.16" id="Ske2thzurv" kvg:type="㇔" transform="matrix(1,0,0,1,296,-4)" xmlns:kvg="http://kanjivg.tagaini.net"></path><path class="stroke_order_diagram--existing_path" d="M48.26,23.47c0.02,0.35,0.05,0.9-0.05,1.4c-0.57,2.96-3.87,9.45-8.39,13.42" id="Ske2thzurw" kvg:type="㇒" transform="matrix(1,0,0,1,296,-4)" xmlns:kvg="http://kanjivg.tagaini.net"></path><path class="stroke_order_diagram--existing_path" d="M13.1,47.05c0.67,0.16,2.45,0.55,4.23,0.47c6.37-0.31,18.99-1.85,26.19-2.35c1.77-0.12,2.22-0.16,3.34,0" id="Ske2thzurx" kvg:type="㇐" transform="matrix(1,0,0,1,296,-4)" xmlns:kvg="http://kanjivg.tagaini.net"></path><path class="stroke_order_diagram--current_path" d="M30.52,16.46c0.88,0.45,1.41,2.03,1.59,2.94s0,70.74-0.18,76.39" id="kvg:07c75-s4" kvg:type="㇑" transform="matrix(1,0,0,1,296,-4)" xmlns:kvg="http://kanjivg.tagaini.net"></path><path class="stroke_order_diagram--current_path" d="M30.52,16.46c0.88,0.45,1.41,2.03,1.59,2.94s0,70.74-0.18,76.39" id="Ske2thzurz" kvg:type="㇑" transform="matrix(1,0,0,1,296,-4)" xmlns:kvg="http://kanjivg.tagaini.net"></path><circle class="stroke_order_diagram--path_start" cx="30.52" cy="16.46" r="4" transform="matrix(1,0,0,1,296,-4)"></circle><line class="stroke_order_diagram--guide_line" x1="450" x2="450" y1="1" y2="99"></line><line class="stroke_order_diagram--bounding_box" x1="499" x2="499" y1="1" y2="99"></line><path class="stroke_order_diagram--existing_path" d="M15.44,26.89c2.92,2.26,7.33,8.65,8.06,12.16" id="Ske2thzur12" kvg:type="㇔" transform="matrix(1,0,0,1,396,-4)" xmlns:kvg="http://kanjivg.tagaini.net"></path><path class="stroke_order_diagram--existing_path" d="M48.26,23.47c0.02,0.35,0.05,0.9-0.05,1.4c-0.57,2.96-3.87,9.45-8.39,13.42" id="Ske2thzur13" kvg:type="㇒" transform="matrix(1,0,0,1,396,-4)" xmlns:kvg="http://kanjivg.tagaini.net"></path><path class="stroke_order_diagram--existing_path" d="M13.1,47.05c0.67,0.16,2.45,0.55,4.23,0.47c6.37-0.31,18.99-1.85,26.19-2.35c1.77-0.12,2.22-0.16,3.34,0" id="Ske2thzur14" kvg:type="㇐" transform="matrix(1,0,0,1,396,-4)" xmlns:kvg="http://kanjivg.tagaini.net"></path><path class="stroke_order_diagram--existing_path" d="M30.52,16.46c0.88,0.45,1.41,2.03,1.59,2.94s0,70.74-0.18,76.39" id="Ske2thzur15" kvg:type="㇑" transform="matrix(1,0,0,1,396,-4)" xmlns:kvg="http://kanjivg.tagaini.net"></path><path class="stroke_order_diagram--current_path" d="M32.52,47.46C29.26,57.95,21.33,72.67,14,78.73" id="kvg:07c75-s5" kvg:type="㇒" transform="matrix(1,0,0,1,396,-4)" xmlns:kvg="http://kanjivg.tagaini.net"></path><path class="stroke_order_diagram--current_path" d="M32.52,47.46C29.26,57.95,21.33,72.67,14,78.73" id="Ske2thzur17" kvg:type="㇒" transform="matrix(1,0,0,1,396,-4)" xmlns:kvg="http://kanjivg.tagaini.net"></path><circle class="stroke_order_diagram--path_start" cx="32.52" cy="47.46" r="4" transform="matrix(1,0,0,1,396,-4)"></circle><line class="stroke_order_diagram--guide_line" x1="550" x2="550" y1="1" y2="99"></line><line class="stroke_order_diagram--bounding_box" x1="599" x2="599" y1="1" y2="99"></line><path class="stroke_order_diagram--existing_path" d="M15.44,26.89c2.92,2.26,7.33,8.65,8.06,12.16" id="Ske2thzur1a" kvg:type="㇔" transform="matrix(1,0,0,1,496,-4)" xmlns:kvg="http://kanjivg.tagaini.net"></path><path class="stroke_order_diagram--existing_path" d="M48.26,23.47c0.02,0.35,0.05,0.9-0.05,1.4c-0.57,2.96-3.87,9.45-8.39,13.42" id="Ske2thzur1b" kvg:type="㇒" transform="matrix(1,0,0,1,496,-4)" xmlns:kvg="http://kanjivg.tagaini.net"></path><path class="stroke_order_diagram--existing_path" d="M13.1,47.05c0.67,0.16,2.45,0.55,4.23,0.47c6.37-0.31,18.99-1.85,26.19-2.35c1.77-0.12,2.22-0.16,3.34,0" id="Ske2thzur1c" kvg:type="㇐" transform="matrix(1,0,0,1,496,-4)" xmlns:kvg="http://kanjivg.tagaini.net"></path><path class="stroke_order_diagram--existing_path" d="M30.52,16.46c0.88,0.45,1.41,2.03,1.59,2.94s0,70.74-0.18,76.39" id="Ske2thzur1d" kvg:type="㇑" transform="matrix(1,0,0,1,496,-4)" xmlns:kvg="http://kanjivg.tagaini.net"></path><path class="stroke_order_diagram--existing_path" d="M32.52,47.46C29.26,57.95,21.33,72.67,14,78.73" id="Ske2thzur1e" kvg:type="㇒" transform="matrix(1,0,0,1,496,-4)" xmlns:kvg="http://kanjivg.tagaini.net"></path><path class="stroke_order_diagram--current_path" d="M35.12,53.82c5.53,3.1,9.6,6.67,11.65,11.9" id="kvg:07c75-s6" kvg:type="㇔/㇏" transform="matrix(1,0,0,1,496,-4)" xmlns:kvg="http://kanjivg.tagaini.net"></path><path class="stroke_order_diagram--current_path" d="M35.12,53.82c5.53,3.1,9.6,6.67,11.65,11.9" id="Ske2thzur1g" kvg:type="㇔/㇏" transform="matrix(1,0,0,1,496,-4)" xmlns:kvg="http://kanjivg.tagaini.net"></path><circle class="stroke_order_diagram--path_start" cx="35.12" cy="53.82" r="4" transform="matrix(1,0,0,1,496,-4)"></circle><line class="stroke_order_diagram--guide_line" x1="650" x2="650" y1="1" y2="99"></line><line class="stroke_order_diagram--bounding_box" x1="699" x2="699" y1="1" y2="99"></line><path class="stroke_order_diagram--existing_path" d="M15.44,26.89c2.92,2.26,7.33,8.65,8.06,12.16" id="Ske2thzur1j" kvg:type="㇔" transform="matrix(1,0,0,1,596,-4)" xmlns:kvg="http://kanjivg.tagaini.net"></path><path class="stroke_order_diagram--existing_path" d="M48.26,23.47c0.02,0.35,0.05,0.9-0.05,1.4c-0.57,2.96-3.87,9.45-8.39,13.42" id="Ske2thzur1k" kvg:type="㇒" transform="matrix(1,0,0,1,596,-4)" xmlns:kvg="http://kanjivg.tagaini.net"></path><path class="stroke_order_diagram--existing_path" d="M13.1,47.05c0.67,0.16,2.45,0.55,4.23,0.47c6.37-0.31,18.99-1.85,26.19-2.35c1.77-0.12,2.22-0.16,3.34,0" id="Ske2thzur1l" kvg:type="㇐" transform="matrix(1,0,0,1,596,-4)" xmlns:kvg="http://kanjivg.tagaini.net"></path><path class="stroke_order_diagram--existing_path" d="M30.52,16.46c0.88,0.45,1.41,2.03,1.59,2.94s0,70.74-0.18,76.39" id="Ske2thzur1m" kvg:type="㇑" transform="matrix(1,0,0,1,596,-4)" xmlns:kvg="http://kanjivg.tagaini.net"></path><path class="stroke_order_diagram--existing_path" d="M32.52,47.46C29.26,57.95,21.33,72.67,14,78.73" id="Ske2thzur1n" kvg:type="㇒" transform="matrix(1,0,0,1,596,-4)" xmlns:kvg="http://kanjivg.tagaini.net"></path><path class="stroke_order_diagram--existing_path" d="M35.12,53.82c5.53,3.1,9.6,6.67,11.65,11.9" id="Ske2thzur1o" kvg:type="㇔/㇏" transform="matrix(1,0,0,1,596,-4)" xmlns:kvg="http://kanjivg.tagaini.net"></path><path class="stroke_order_diagram--current_path" d="M53.53,46.4c1.53,0.5,3.27,0.66,5.03,0.5c8.97-0.82,22.07-1.68,35.64-2.64c1.75-0.12,2.84,0.08,4.6,0.44" id="kvg:07c75-s7" kvg:type="㇐" transform="matrix(1,0,0,1,596,-4)" xmlns:kvg="http://kanjivg.tagaini.net"></path><path class="stroke_order_diagram--current_path" d="M53.53,46.4c1.53,0.5,3.27,0.66,5.03,0.5c8.97-0.82,22.07-1.68,35.64-2.64c1.75-0.12,2.84,0.08,4.6,0.44" id="Ske2thzur1q" kvg:type="㇐" transform="matrix(1,0,0,1,596,-4)" xmlns:kvg="http://kanjivg.tagaini.net"></path><circle class="stroke_order_diagram--path_start" cx="53.53" cy="46.4" r="4" transform="matrix(1,0,0,1,596,-4)"></circle><line class="stroke_order_diagram--guide_line" x1="750" x2="750" y1="1" y2="99"></line><line class="stroke_order_diagram--bounding_box" x1="799" x2="799" y1="1" y2="99"></line><path class="stroke_order_diagram--existing_path" d="M15.44,26.89c2.92,2.26,7.33,8.65,8.06,12.16" id="Ske2thzur1t" kvg:type="㇔" transform="matrix(1,0,0,1,696,-4)" xmlns:kvg="http://kanjivg.tagaini.net"></path><path class="stroke_order_diagram--existing_path" d="M48.26,23.47c0.02,0.35,0.05,0.9-0.05,1.4c-0.57,2.96-3.87,9.45-8.39,13.42" id="Ske2thzur1u" kvg:type="㇒" transform="matrix(1,0,0,1,696,-4)" xmlns:kvg="http://kanjivg.tagaini.net"></path><path class="stroke_order_diagram--existing_path" d="M13.1,47.05c0.67,0.16,2.45,0.55,4.23,0.47c6.37-0.31,18.99-1.85,26.19-2.35c1.77-0.12,2.22-0.16,3.34,0" id="Ske2thzur1v" kvg:type="㇐" transform="matrix(1,0,0,1,696,-4)" xmlns:kvg="http://kanjivg.tagaini.net"></path><path class="stroke_order_diagram--existing_path" d="M30.52,16.46c0.88,0.45,1.41,2.03,1.59,2.94s0,70.74-0.18,76.39" id="Ske2thzur1w" kvg:type="㇑" transform="matrix(1,0,0,1,696,-4)" xmlns:kvg="http://kanjivg.tagaini.net"></path><path class="stroke_order_diagram--existing_path" d="M32.52,47.46C29.26,57.95,21.33,72.67,14,78.73" id="Ske2thzur1x" kvg:type="㇒" transform="matrix(1,0,0,1,696,-4)" xmlns:kvg="http://kanjivg.tagaini.net"></path><path class="stroke_order_diagram--existing_path" d="M35.12,53.82c5.53,3.1,9.6,6.67,11.65,11.9" id="Ske2thzur1y" kvg:type="㇔/㇏" transform="matrix(1,0,0,1,696,-4)" xmlns:kvg="http://kanjivg.tagaini.net"></path><path class="stroke_order_diagram--existing_path" d="M53.53,46.4c1.53,0.5,3.27,0.66,5.03,0.5c8.97-0.82,22.07-1.68,35.64-2.64c1.75-0.12,2.84,0.08,4.6,0.44" id="Ske2thzur1z" kvg:type="㇐" transform="matrix(1,0,0,1,696,-4)" xmlns:kvg="http://kanjivg.tagaini.net"></path><path class="stroke_order_diagram--current_path" d="M72.6,14.75c1.21,0.48,2.17,2.14,2.17,3.14c0,10.13,0,73.58-0.24,79.61" id="kvg:07c75-s8" kvg:type="㇑" transform="matrix(1,0,0,1,696,-4)" xmlns:kvg="http://kanjivg.tagaini.net"></path><path class="stroke_order_diagram--current_path" d="M72.6,14.75c1.21,0.48,2.17,2.14,2.17,3.14c0,10.13,0,73.58-0.24,79.61" id="Ske2thzur21" kvg:type="㇑" transform="matrix(1,0,0,1,696,-4)" xmlns:kvg="http://kanjivg.tagaini.net"></path><circle class="stroke_order_diagram--path_start" cx="72.6" cy="14.75" r="4" transform="matrix(1,0,0,1,696,-4)"></circle></svg>