<svg class="stroke_order_diagram--svg_container_for_518662b5d5dda7965800133b" style="height: 100px; width: 1300px;" viewbox="0 0 1300 100"><desc>Created with Snap</desc><defs></defs><line class="stroke_order_diagram--bounding_box" x1="1" x2="1299" y1="1" y2="1"></line><line class="stroke_order_diagram--bounding_box" x1="1" x2="1" y1="1" y2="99"></line><line class="stroke_order_diagram--bounding_box" x1="1" x2="1299" y1="99" y2="99"></line><line class="stroke_order_diagram--guide_line" x1="0" x2="1300" y1="50" y2="50"></line><line class="stroke_order_diagram--guide_line" x1="50" x2="50" y1="1" y2="99"></line><line class="stroke_order_diagram--bounding_box" x1="99" x2="99" y1="1" y2="99"></line><path class="stroke_order_diagram--current_path" d="M13.94,25.89c2.92,2.26,7.33,8.65,8.06,12.16" id="kvg:07cae-s1" kvg:type="㇔" transform="matrix(1,0,0,1,-4,-4)" xmlns:kvg="http://kanjivg.tagaini.net"></path><path class="stroke_order_diagram--current_path" d="M13.94,25.89c2.92,2.26,7.33,8.65,8.06,12.16" id="Ske2tlgp3m" kvg:type="㇔" transform="matrix(1,0,0,1,-4,-4)" xmlns:kvg="http://kanjivg.tagaini.net"></path><circle class="stroke_order_diagram--path_start" cx="13.94" cy="25.89" r="4" transform="matrix(1,0,0,1,-4,-4)"></circle><line class="stroke_order_diagram--guide_line" x1="150" x2="150" y1="1" y2="99"></line><line class="stroke_order_diagram--bounding_box" x1="199" x2="199" y1="1" y2="99"></line><path class="stroke_order_diagram--existing_path" d="M13.94,25.89c2.92,2.26,7.33,8.65,8.06,12.16" id="Ske2tlgp3p" kvg:type="㇔" transform="matrix(1,0,0,1,96,-4)" xmlns:kvg="http://kanjivg.tagaini.net"></path><path class="stroke_order_diagram--current_path" d="M45.01,21.47c0.03,0.37,0.05,0.96-0.05,1.49c-0.6,3.15-4.02,10.06-8.71,14.29" id="kvg:07cae-s2" kvg:type="㇒" transform="matrix(1,0,0,1,96,-4)" xmlns:kvg="http://kanjivg.tagaini.net"></path><path class="stroke_order_diagram--current_path" d="M45.01,21.47c0.03,0.37,0.05,0.96-0.05,1.49c-0.6,3.15-4.02,10.06-8.71,14.29" id="Ske2tlgp3r" kvg:type="㇒" transform="matrix(1,0,0,1,96,-4)" xmlns:kvg="http://kanjivg.tagaini.net"></path><circle class="stroke_order_diagram--path_start" cx="45.01" cy="21.47" r="4" transform="matrix(1,0,0,1,96,-4)"></circle><line class="stroke_order_diagram--guide_line" x1="250" x2="250" y1="1" y2="99"></line><line class="stroke_order_diagram--bounding_box" x1="299" x2="299" y1="1" y2="99"></line><path class="stroke_order_diagram--existing_path" d="M13.94,25.89c2.92,2.26,7.33,8.65,8.06,12.16" id="Ske2tlgp3u" kvg:type="㇔" transform="matrix(1,0,0,1,196,-4)" xmlns:kvg="http://kanjivg.tagaini.net"></path><path class="stroke_order_diagram--existing_path" d="M45.01,21.47c0.03,0.37,0.05,0.96-0.05,1.49c-0.6,3.15-4.02,10.06-8.71,14.29" id="Ske2tlgp3v" kvg:type="㇒" transform="matrix(1,0,0,1,196,-4)" xmlns:kvg="http://kanjivg.tagaini.net"></path><path class="stroke_order_diagram--current_path" d="M11.95,45.47c0.56,0.17,2.06,0.59,3.55,0.5c5.36-0.33,20.74-2.7,26.8-3.23c1.49-0.13,1.87-0.17,2.81,0" id="kvg:07cae-s3" kvg:type="㇐" transform="matrix(1,0,0,1,196,-4)" xmlns:kvg="http://kanjivg.tagaini.net"></path><path class="stroke_order_diagram--current_path" d="M11.95,45.47c0.56,0.17,2.06,0.59,3.55,0.5c5.36-0.33,20.74-2.7,26.8-3.23c1.49-0.13,1.87-0.17,2.81,0" id="Ske2tlgp3x" kvg:type="㇐" transform="matrix(1,0,0,1,196,-4)" xmlns:kvg="http://kanjivg.tagaini.net"></path><circle class="stroke_order_diagram--path_start" cx="11.95" cy="45.47" r="4" transform="matrix(1,0,0,1,196,-4)"></circle><line class="stroke_order_diagram--guide_line" x1="350" x2="350" y1="1" y2="99"></line><line class="stroke_order_diagram--bounding_box" x1="399" x2="399" y1="1" y2="99"></line><path class="stroke_order_diagram--existing_path" d="M13.94,25.89c2.92,2.26,7.33,8.65,8.06,12.16" id="Ske2tlgp310" kvg:type="㇔" transform="matrix(1,0,0,1,296,-4)" xmlns:kvg="http://kanjivg.tagaini.net"></path><path class="stroke_order_diagram--existing_path" d="M45.01,21.47c0.03,0.37,0.05,0.96-0.05,1.49c-0.6,3.15-4.02,10.06-8.71,14.29" id="Ske2tlgp311" kvg:type="㇒" transform="matrix(1,0,0,1,296,-4)" xmlns:kvg="http://kanjivg.tagaini.net"></path><path class="stroke_order_diagram--existing_path" d="M11.95,45.47c0.56,0.17,2.06,0.59,3.55,0.5c5.36-0.33,20.74-2.7,26.8-3.23c1.49-0.13,1.87-0.17,2.81,0" id="Ske2tlgp312" kvg:type="㇐" transform="matrix(1,0,0,1,296,-4)" xmlns:kvg="http://kanjivg.tagaini.net"></path><path class="stroke_order_diagram--current_path" d="M29.52,15.46c0.88,0.47,1.41,2.1,1.59,3.04c0.18,0.94,0,73.15-0.18,79" id="kvg:07cae-s4" kvg:type="㇑" transform="matrix(1,0,0,1,296,-4)" xmlns:kvg="http://kanjivg.tagaini.net"></path><path class="stroke_order_diagram--current_path" d="M29.52,15.46c0.88,0.47,1.41,2.1,1.59,3.04c0.18,0.94,0,73.15-0.18,79" id="Ske2tlgp314" kvg:type="㇑" transform="matrix(1,0,0,1,296,-4)" xmlns:kvg="http://kanjivg.tagaini.net"></path><circle class="stroke_order_diagram--path_start" cx="29.52" cy="15.46" r="4" transform="matrix(1,0,0,1,296,-4)"></circle><line class="stroke_order_diagram--guide_line" x1="450" x2="450" y1="1" y2="99"></line><line class="stroke_order_diagram--bounding_box" x1="499" x2="499" y1="1" y2="99"></line><path class="stroke_order_diagram--existing_path" d="M13.94,25.89c2.92,2.26,7.33,8.65,8.06,12.16" id="Ske2tlgp317" kvg:type="㇔" transform="matrix(1,0,0,1,396,-4)" xmlns:kvg="http://kanjivg.tagaini.net"></path><path class="stroke_order_diagram--existing_path" d="M45.01,21.47c0.03,0.37,0.05,0.96-0.05,1.49c-0.6,3.15-4.02,10.06-8.71,14.29" id="Ske2tlgp318" kvg:type="㇒" transform="matrix(1,0,0,1,396,-4)" xmlns:kvg="http://kanjivg.tagaini.net"></path><path class="stroke_order_diagram--existing_path" d="M11.95,45.47c0.56,0.17,2.06,0.59,3.55,0.5c5.36-0.33,20.74-2.7,26.8-3.23c1.49-0.13,1.87-0.17,2.81,0" id="Ske2tlgp319" kvg:type="㇐" transform="matrix(1,0,0,1,396,-4)" xmlns:kvg="http://kanjivg.tagaini.net"></path><path class="stroke_order_diagram--existing_path" d="M29.52,15.46c0.88,0.47,1.41,2.1,1.59,3.04c0.18,0.94,0,73.15-0.18,79" id="Ske2tlgp31a" kvg:type="㇑" transform="matrix(1,0,0,1,396,-4)" xmlns:kvg="http://kanjivg.tagaini.net"></path><path class="stroke_order_diagram--current_path" d="M31.02,45.46C27.54,56.71,19.08,72.51,11.25,79" id="kvg:07cae-s5" kvg:type="㇒" transform="matrix(1,0,0,1,396,-4)" xmlns:kvg="http://kanjivg.tagaini.net"></path><path class="stroke_order_diagram--current_path" d="M31.02,45.46C27.54,56.71,19.08,72.51,11.25,79" id="Ske2tlgp31c" kvg:type="㇒" transform="matrix(1,0,0,1,396,-4)" xmlns:kvg="http://kanjivg.tagaini.net"></path><circle class="stroke_order_diagram--path_start" cx="31.02" cy="45.46" r="4" transform="matrix(1,0,0,1,396,-4)"></circle><line class="stroke_order_diagram--guide_line" x1="550" x2="550" y1="1" y2="99"></line><line class="stroke_order_diagram--bounding_box" x1="599" x2="599" y1="1" y2="99"></line><path class="stroke_order_diagram--existing_path" d="M13.94,25.89c2.92,2.26,7.33,8.65,8.06,12.16" id="Ske2tlgp31f" kvg:type="㇔" transform="matrix(1,0,0,1,496,-4)" xmlns:kvg="http://kanjivg.tagaini.net"></path><path class="stroke_order_diagram--existing_path" d="M45.01,21.47c0.03,0.37,0.05,0.96-0.05,1.49c-0.6,3.15-4.02,10.06-8.71,14.29" id="Ske2tlgp31g" kvg:type="㇒" transform="matrix(1,0,0,1,496,-4)" xmlns:kvg="http://kanjivg.tagaini.net"></path><path class="stroke_order_diagram--existing_path" d="M11.95,45.47c0.56,0.17,2.06,0.59,3.55,0.5c5.36-0.33,20.74-2.7,26.8-3.23c1.49-0.13,1.87-0.17,2.81,0" id="Ske2tlgp31h" kvg:type="㇐" transform="matrix(1,0,0,1,496,-4)" xmlns:kvg="http://kanjivg.tagaini.net"></path><path class="stroke_order_diagram--existing_path" d="M29.52,15.46c0.88,0.47,1.41,2.1,1.59,3.04c0.18,0.94,0,73.15-0.18,79" id="Ske2tlgp31i" kvg:type="㇑" transform="matrix(1,0,0,1,496,-4)" xmlns:kvg="http://kanjivg.tagaini.net"></path><path class="stroke_order_diagram--existing_path" d="M31.02,45.46C27.54,56.71,19.08,72.51,11.25,79" id="Ske2tlgp31j" kvg:type="㇒" transform="matrix(1,0,0,1,496,-4)" xmlns:kvg="http://kanjivg.tagaini.net"></path><path class="stroke_order_diagram--current_path" d="M31.87,53.07c5.52,3.24,9.58,6.97,11.63,12.43" id="kvg:07cae-s6" kvg:type="㇔/㇏" transform="matrix(1,0,0,1,496,-4)" xmlns:kvg="http://kanjivg.tagaini.net"></path><path class="stroke_order_diagram--current_path" d="M31.87,53.07c5.52,3.24,9.58,6.97,11.63,12.43" id="Ske2tlgp31l" kvg:type="㇔/㇏" transform="matrix(1,0,0,1,496,-4)" xmlns:kvg="http://kanjivg.tagaini.net"></path><circle class="stroke_order_diagram--path_start" cx="31.87" cy="53.07" r="4" transform="matrix(1,0,0,1,496,-4)"></circle><line class="stroke_order_diagram--guide_line" x1="650" x2="650" y1="1" y2="99"></line><line class="stroke_order_diagram--bounding_box" x1="699" x2="699" y1="1" y2="99"></line><path class="stroke_order_diagram--existing_path" d="M13.94,25.89c2.92,2.26,7.33,8.65,8.06,12.16" id="Ske2tlgp31o" kvg:type="㇔" transform="matrix(1,0,0,1,596,-4)" xmlns:kvg="http://kanjivg.tagaini.net"></path><path class="stroke_order_diagram--existing_path" d="M45.01,21.47c0.03,0.37,0.05,0.96-0.05,1.49c-0.6,3.15-4.02,10.06-8.71,14.29" id="Ske2tlgp31p" kvg:type="㇒" transform="matrix(1,0,0,1,596,-4)" xmlns:kvg="http://kanjivg.tagaini.net"></path><path class="stroke_order_diagram--existing_path" d="M11.95,45.47c0.56,0.17,2.06,0.59,3.55,0.5c5.36-0.33,20.74-2.7,26.8-3.23c1.49-0.13,1.87-0.17,2.81,0" id="Ske2tlgp31q" kvg:type="㇐" transform="matrix(1,0,0,1,596,-4)" xmlns:kvg="http://kanjivg.tagaini.net"></path><path class="stroke_order_diagram--existing_path" d="M29.52,15.46c0.88,0.47,1.41,2.1,1.59,3.04c0.18,0.94,0,73.15-0.18,79" id="Ske2tlgp31r" kvg:type="㇑" transform="matrix(1,0,0,1,596,-4)" xmlns:kvg="http://kanjivg.tagaini.net"></path><path class="stroke_order_diagram--existing_path" d="M31.02,45.46C27.54,56.71,19.08,72.51,11.25,79" id="Ske2tlgp31s" kvg:type="㇒" transform="matrix(1,0,0,1,596,-4)" xmlns:kvg="http://kanjivg.tagaini.net"></path><path class="stroke_order_diagram--existing_path" d="M31.87,53.07c5.52,3.24,9.58,6.97,11.63,12.43" id="Ske2tlgp31t" kvg:type="㇔/㇏" transform="matrix(1,0,0,1,596,-4)" xmlns:kvg="http://kanjivg.tagaini.net"></path><path class="stroke_order_diagram--current_path" d="M68.21,13.25c0.83,0.45,1.33,1.12,1.5,2.02c0.17,0.9,0.17,7.17,0.17,9.42" id="kvg:07cae-s7" kvg:type="㇑a" transform="matrix(1,0,0,1,596,-4)" xmlns:kvg="http://kanjivg.tagaini.net"></path><path class="stroke_order_diagram--current_path" d="M68.21,13.25c0.83,0.45,1.33,1.12,1.5,2.02c0.17,0.9,0.17,7.17,0.17,9.42" id="Ske2tlgp31v" kvg:type="㇑a" transform="matrix(1,0,0,1,596,-4)" xmlns:kvg="http://kanjivg.tagaini.net"></path><circle class="stroke_order_diagram--path_start" cx="68.21" cy="13.25" r="4" transform="matrix(1,0,0,1,596,-4)"></circle><line class="stroke_order_diagram--guide_line" x1="750" x2="750" y1="1" y2="99"></line><line class="stroke_order_diagram--bounding_box" x1="799" x2="799" y1="1" y2="99"></line><path class="stroke_order_diagram--existing_path" d="M13.94,25.89c2.92,2.26,7.33,8.65,8.06,12.16" id="Ske2tlgp31y" kvg:type="㇔" transform="matrix(1,0,0,1,696,-4)" xmlns:kvg="http://kanjivg.tagaini.net"></path><path class="stroke_order_diagram--existing_path" d="M45.01,21.47c0.03,0.37,0.05,0.96-0.05,1.49c-0.6,3.15-4.02,10.06-8.71,14.29" id="Ske2tlgp31z" kvg:type="㇒" transform="matrix(1,0,0,1,696,-4)" xmlns:kvg="http://kanjivg.tagaini.net"></path><path class="stroke_order_diagram--existing_path" d="M11.95,45.47c0.56,0.17,2.06,0.59,3.55,0.5c5.36-0.33,20.74-2.7,26.8-3.23c1.49-0.13,1.87-0.17,2.81,0" id="Ske2tlgp320" kvg:type="㇐" transform="matrix(1,0,0,1,696,-4)" xmlns:kvg="http://kanjivg.tagaini.net"></path><path class="stroke_order_diagram--existing_path" d="M29.52,15.46c0.88,0.47,1.41,2.1,1.59,3.04c0.18,0.94,0,73.15-0.18,79" id="Ske2tlgp321" kvg:type="㇑" transform="matrix(1,0,0,1,696,-4)" xmlns:kvg="http://kanjivg.tagaini.net"></path><path class="stroke_order_diagram--existing_path" d="M31.02,45.46C27.54,56.71,19.08,72.51,11.25,79" id="Ske2tlgp322" kvg:type="㇒" transform="matrix(1,0,0,1,696,-4)" xmlns:kvg="http://kanjivg.tagaini.net"></path><path class="stroke_order_diagram--existing_path" d="M31.87,53.07c5.52,3.24,9.58,6.97,11.63,12.43" id="Ske2tlgp323" kvg:type="㇔/㇏" transform="matrix(1,0,0,1,696,-4)" xmlns:kvg="http://kanjivg.tagaini.net"></path><path class="stroke_order_diagram--existing_path" d="M68.21,13.25c0.83,0.45,1.33,1.12,1.5,2.02c0.17,0.9,0.17,7.17,0.17,9.42" id="Ske2tlgp324" kvg:type="㇑a" transform="matrix(1,0,0,1,696,-4)" xmlns:kvg="http://kanjivg.tagaini.net"></path><path class="stroke_order_diagram--current_path" d="M56.61,27.45c2.28-0.05,25.52-3.07,27.6-3.15c1.73-0.07,2.69,1.34,2.65,2.04c-0.25,4.92-1.78,24.54-2.86,27.91" id="kvg:07cae-s8" kvg:type="㇕" transform="matrix(1,0,0,1,696,-4)" xmlns:kvg="http://kanjivg.tagaini.net"></path><path class="stroke_order_diagram--current_path" d="M56.61,27.45c2.28-0.05,25.52-3.07,27.6-3.15c1.73-0.07,2.69,1.34,2.65,2.04c-0.25,4.92-1.78,24.54-2.86,27.91" id="Ske2tlgp326" kvg:type="㇕" transform="matrix(1,0,0,1,696,-4)" xmlns:kvg="http://kanjivg.tagaini.net"></path><circle class="stroke_order_diagram--path_start" cx="56.61" cy="27.45" r="4" transform="matrix(1,0,0,1,696,-4)"></circle><line class="stroke_order_diagram--guide_line" x1="850" x2="850" y1="1" y2="99"></line><line class="stroke_order_diagram--bounding_box" x1="899" x2="899" y1="1" y2="99"></line><path class="stroke_order_diagram--existing_path" d="M13.94,25.89c2.92,2.26,7.33,8.65,8.06,12.16" id="Ske2tlgp329" kvg:type="㇔" transform="matrix(1,0,0,1,796,-4)" xmlns:kvg="http://kanjivg.tagaini.net"></path><path class="stroke_order_diagram--existing_path" d="M45.01,21.47c0.03,0.37,0.05,0.96-0.05,1.49c-0.6,3.15-4.02,10.06-8.71,14.29" id="Ske2tlgp32a" kvg:type="㇒" transform="matrix(1,0,0,1,796,-4)" xmlns:kvg="http://kanjivg.tagaini.net"></path><path class="stroke_order_diagram--existing_path" d="M11.95,45.47c0.56,0.17,2.06,0.59,3.55,0.5c5.36-0.33,20.74-2.7,26.8-3.23c1.49-0.13,1.87-0.17,2.81,0" id="Ske2tlgp32b" kvg:type="㇐" transform="matrix(1,0,0,1,796,-4)" xmlns:kvg="http://kanjivg.tagaini.net"></path><path class="stroke_order_diagram--existing_path" d="M29.52,15.46c0.88,0.47,1.41,2.1,1.59,3.04c0.18,0.94,0,73.15-0.18,79" id="Ske2tlgp32c" kvg:type="㇑" transform="matrix(1,0,0,1,796,-4)" xmlns:kvg="http://kanjivg.tagaini.net"></path><path class="stroke_order_diagram--existing_path" d="M31.02,45.46C27.54,56.71,19.08,72.51,11.25,79" id="Ske2tlgp32d" kvg:type="㇒" transform="matrix(1,0,0,1,796,-4)" xmlns:kvg="http://kanjivg.tagaini.net"></path><path class="stroke_order_diagram--existing_path" d="M31.87,53.07c5.52,3.24,9.58,6.97,11.63,12.43" id="Ske2tlgp32e" kvg:type="㇔/㇏" transform="matrix(1,0,0,1,796,-4)" xmlns:kvg="http://kanjivg.tagaini.net"></path><path class="stroke_order_diagram--existing_path" d="M68.21,13.25c0.83,0.45,1.33,1.12,1.5,2.02c0.17,0.9,0.17,7.17,0.17,9.42" id="Ske2tlgp32f" kvg:type="㇑a" transform="matrix(1,0,0,1,796,-4)" xmlns:kvg="http://kanjivg.tagaini.net"></path><path class="stroke_order_diagram--existing_path" d="M56.61,27.45c2.28-0.05,25.52-3.07,27.6-3.15c1.73-0.07,2.69,1.34,2.65,2.04c-0.25,4.92-1.78,24.54-2.86,27.91" id="Ske2tlgp32g" kvg:type="㇕" transform="matrix(1,0,0,1,796,-4)" xmlns:kvg="http://kanjivg.tagaini.net"></path><path class="stroke_order_diagram--current_path" d="M57.23,40.56c5.32-0.41,23.23-2,28.34-2.32" id="kvg:07cae-s9" kvg:type="㇐a" transform="matrix(1,0,0,1,796,-4)" xmlns:kvg="http://kanjivg.tagaini.net"></path><path class="stroke_order_diagram--current_path" d="M57.23,40.56c5.32-0.41,23.23-2,28.34-2.32" id="Ske2tlgp32i" kvg:type="㇐a" transform="matrix(1,0,0,1,796,-4)" xmlns:kvg="http://kanjivg.tagaini.net"></path><circle class="stroke_order_diagram--path_start" cx="57.23" cy="40.56" r="4" transform="matrix(1,0,0,1,796,-4)"></circle><line class="stroke_order_diagram--guide_line" x1="950" x2="950" y1="1" y2="99"></line><line class="stroke_order_diagram--bounding_box" x1="999" x2="999" y1="1" y2="99"></line><path class="stroke_order_diagram--existing_path" d="M13.94,25.89c2.92,2.26,7.33,8.65,8.06,12.16" id="Ske2tlgp32l" kvg:type="㇔" transform="matrix(1,0,0,1,896,-4)" xmlns:kvg="http://kanjivg.tagaini.net"></path><path class="stroke_order_diagram--existing_path" d="M45.01,21.47c0.03,0.37,0.05,0.96-0.05,1.49c-0.6,3.15-4.02,10.06-8.71,14.29" id="Ske2tlgp32m" kvg:type="㇒" transform="matrix(1,0,0,1,896,-4)" xmlns:kvg="http://kanjivg.tagaini.net"></path><path class="stroke_order_diagram--existing_path" d="M11.95,45.47c0.56,0.17,2.06,0.59,3.55,0.5c5.36-0.33,20.74-2.7,26.8-3.23c1.49-0.13,1.87-0.17,2.81,0" id="Ske2tlgp32n" kvg:type="㇐" transform="matrix(1,0,0,1,896,-4)" xmlns:kvg="http://kanjivg.tagaini.net"></path><path class="stroke_order_diagram--existing_path" d="M29.52,15.46c0.88,0.47,1.41,2.1,1.59,3.04c0.18,0.94,0,73.15-0.18,79" id="Ske2tlgp32o" kvg:type="㇑" transform="matrix(1,0,0,1,896,-4)" xmlns:kvg="http://kanjivg.tagaini.net"></path><path class="stroke_order_diagram--existing_path" d="M31.02,45.46C27.54,56.71,19.08,72.51,11.25,79" id="Ske2tlgp32p" kvg:type="㇒" transform="matrix(1,0,0,1,896,-4)" xmlns:kvg="http://kanjivg.tagaini.net"></path><path class="stroke_order_diagram--existing_path" d="M31.87,53.07c5.52,3.24,9.58,6.97,11.63,12.43" id="Ske2tlgp32q" kvg:type="㇔/㇏" transform="matrix(1,0,0,1,896,-4)" xmlns:kvg="http://kanjivg.tagaini.net"></path><path class="stroke_order_diagram--existing_path" d="M68.21,13.25c0.83,0.45,1.33,1.12,1.5,2.02c0.17,0.9,0.17,7.17,0.17,9.42" id="Ske2tlgp32r" kvg:type="㇑a" transform="matrix(1,0,0,1,896,-4)" xmlns:kvg="http://kanjivg.tagaini.net"></path><path class="stroke_order_diagram--existing_path" d="M56.61,27.45c2.28-0.05,25.52-3.07,27.6-3.15c1.73-0.07,2.69,1.34,2.65,2.04c-0.25,4.92-1.78,24.54-2.86,27.91" id="Ske2tlgp32s" kvg:type="㇕" transform="matrix(1,0,0,1,896,-4)" xmlns:kvg="http://kanjivg.tagaini.net"></path><path class="stroke_order_diagram--existing_path" d="M57.23,40.56c5.32-0.41,23.23-2,28.34-2.32" id="Ske2tlgp32t" kvg:type="㇐a" transform="matrix(1,0,0,1,896,-4)" xmlns:kvg="http://kanjivg.tagaini.net"></path><path class="stroke_order_diagram--current_path" d="M56.85,53.7c7.68-0.44,17.76-1.06,26.11-1.5" id="kvg:07cae-s10" kvg:type="㇐a" transform="matrix(1,0,0,1,896,-4)" xmlns:kvg="http://kanjivg.tagaini.net"></path><path class="stroke_order_diagram--current_path" d="M56.85,53.7c7.68-0.44,17.76-1.06,26.11-1.5" id="Ske2tlgp32v" kvg:type="㇐a" transform="matrix(1,0,0,1,896,-4)" xmlns:kvg="http://kanjivg.tagaini.net"></path><circle class="stroke_order_diagram--path_start" cx="56.85" cy="53.7" r="4" transform="matrix(1,0,0,1,896,-4)"></circle><line class="stroke_order_diagram--guide_line" x1="1050" x2="1050" y1="1" y2="99"></line><line class="stroke_order_diagram--bounding_box" x1="1099" x2="1099" y1="1" y2="99"></line><path class="stroke_order_diagram--existing_path" d="M13.94,25.89c2.92,2.26,7.33,8.65,8.06,12.16" id="Ske2tlgp32y" kvg:type="㇔" transform="matrix(1,0,0,1,996,-4)" xmlns:kvg="http://kanjivg.tagaini.net"></path><path class="stroke_order_diagram--existing_path" d="M45.01,21.47c0.03,0.37,0.05,0.96-0.05,1.49c-0.6,3.15-4.02,10.06-8.71,14.29" id="Ske2tlgp32z" kvg:type="㇒" transform="matrix(1,0,0,1,996,-4)" xmlns:kvg="http://kanjivg.tagaini.net"></path><path class="stroke_order_diagram--existing_path" d="M11.95,45.47c0.56,0.17,2.06,0.59,3.55,0.5c5.36-0.33,20.74-2.7,26.8-3.23c1.49-0.13,1.87-0.17,2.81,0" id="Ske2tlgp330" kvg:type="㇐" transform="matrix(1,0,0,1,996,-4)" xmlns:kvg="http://kanjivg.tagaini.net"></path><path class="stroke_order_diagram--existing_path" d="M29.52,15.46c0.88,0.47,1.41,2.1,1.59,3.04c0.18,0.94,0,73.15-0.18,79" id="Ske2tlgp331" kvg:type="㇑" transform="matrix(1,0,0,1,996,-4)" xmlns:kvg="http://kanjivg.tagaini.net"></path><path class="stroke_order_diagram--existing_path" d="M31.02,45.46C27.54,56.71,19.08,72.51,11.25,79" id="Ske2tlgp332" kvg:type="㇒" transform="matrix(1,0,0,1,996,-4)" xmlns:kvg="http://kanjivg.tagaini.net"></path><path class="stroke_order_diagram--existing_path" d="M31.87,53.07c5.52,3.24,9.58,6.97,11.63,12.43" id="Ske2tlgp333" kvg:type="㇔/㇏" transform="matrix(1,0,0,1,996,-4)" xmlns:kvg="http://kanjivg.tagaini.net"></path><path class="stroke_order_diagram--existing_path" d="M68.21,13.25c0.83,0.45,1.33,1.12,1.5,2.02c0.17,0.9,0.17,7.17,0.17,9.42" id="Ske2tlgp334" kvg:type="㇑a" transform="matrix(1,0,0,1,996,-4)" xmlns:kvg="http://kanjivg.tagaini.net"></path><path class="stroke_order_diagram--existing_path" d="M56.61,27.45c2.28-0.05,25.52-3.07,27.6-3.15c1.73-0.07,2.69,1.34,2.65,2.04c-0.25,4.92-1.78,24.54-2.86,27.91" id="Ske2tlgp335" kvg:type="㇕" transform="matrix(1,0,0,1,996,-4)" xmlns:kvg="http://kanjivg.tagaini.net"></path><path class="stroke_order_diagram--existing_path" d="M57.23,40.56c5.32-0.41,23.23-2,28.34-2.32" id="Ske2tlgp336" kvg:type="㇐a" transform="matrix(1,0,0,1,996,-4)" xmlns:kvg="http://kanjivg.tagaini.net"></path><path class="stroke_order_diagram--existing_path" d="M56.85,53.7c7.68-0.44,17.76-1.06,26.11-1.5" id="Ske2tlgp337" kvg:type="㇐a" transform="matrix(1,0,0,1,996,-4)" xmlns:kvg="http://kanjivg.tagaini.net"></path><path class="stroke_order_diagram--current_path" d="M53.51,25.73c1.46,0.58,2.34,2.63,2.64,3.81c0.29,1.17,0.62,59.49,0.29,62.4c-0.29,2.63-0.9,7.52,2.23,4.66c4.16-3.82,8.19-7.48,13.28-12.46" id="kvg:07cae-s11" kvg:type="㇙" transform="matrix(1,0,0,1,996,-4)" xmlns:kvg="http://kanjivg.tagaini.net"></path><path class="stroke_order_diagram--current_path" d="M53.51,25.73c1.46,0.58,2.34,2.63,2.64,3.81c0.29,1.17,0.62,59.49,0.29,62.4c-0.29,2.63-0.9,7.52,2.23,4.66c4.16-3.82,8.19-7.48,13.28-12.46" id="Ske2tlgp339" kvg:type="㇙" transform="matrix(1,0,0,1,996,-4)" xmlns:kvg="http://kanjivg.tagaini.net"></path><circle class="stroke_order_diagram--path_start" cx="53.51" cy="25.73" r="4" transform="matrix(1,0,0,1,996,-4)"></circle><line class="stroke_order_diagram--guide_line" x1="1150" x2="1150" y1="1" y2="99"></line><line class="stroke_order_diagram--bounding_box" x1="1199" x2="1199" y1="1" y2="99"></line><path class="stroke_order_diagram--existing_path" d="M13.94,25.89c2.92,2.26,7.33,8.65,8.06,12.16" id="Ske2tlgp33c" kvg:type="㇔" transform="matrix(1,0,0,1,1096,-4)" xmlns:kvg="http://kanjivg.tagaini.net"></path><path class="stroke_order_diagram--existing_path" d="M45.01,21.47c0.03,0.37,0.05,0.96-0.05,1.49c-0.6,3.15-4.02,10.06-8.71,14.29" id="Ske2tlgp33d" kvg:type="㇒" transform="matrix(1,0,0,1,1096,-4)" xmlns:kvg="http://kanjivg.tagaini.net"></path><path class="stroke_order_diagram--existing_path" d="M11.95,45.47c0.56,0.17,2.06,0.59,3.55,0.5c5.36-0.33,20.74-2.7,26.8-3.23c1.49-0.13,1.87-0.17,2.81,0" id="Ske2tlgp33e" kvg:type="㇐" transform="matrix(1,0,0,1,1096,-4)" xmlns:kvg="http://kanjivg.tagaini.net"></path><path class="stroke_order_diagram--existing_path" d="M29.52,15.46c0.88,0.47,1.41,2.1,1.59,3.04c0.18,0.94,0,73.15-0.18,79" id="Ske2tlgp33f" kvg:type="㇑" transform="matrix(1,0,0,1,1096,-4)" xmlns:kvg="http://kanjivg.tagaini.net"></path><path class="stroke_order_diagram--existing_path" d="M31.02,45.46C27.54,56.71,19.08,72.51,11.25,79" id="Ske2tlgp33g" kvg:type="㇒" transform="matrix(1,0,0,1,1096,-4)" xmlns:kvg="http://kanjivg.tagaini.net"></path><path class="stroke_order_diagram--existing_path" d="M31.87,53.07c5.52,3.24,9.58,6.97,11.63,12.43" id="Ske2tlgp33h" kvg:type="㇔/㇏" transform="matrix(1,0,0,1,1096,-4)" xmlns:kvg="http://kanjivg.tagaini.net"></path><path class="stroke_order_diagram--existing_path" d="M68.21,13.25c0.83,0.45,1.33,1.12,1.5,2.02c0.17,0.9,0.17,7.17,0.17,9.42" id="Ske2tlgp33i" kvg:type="㇑a" transform="matrix(1,0,0,1,1096,-4)" xmlns:kvg="http://kanjivg.tagaini.net"></path><path class="stroke_order_diagram--existing_path" d="M56.61,27.45c2.28-0.05,25.52-3.07,27.6-3.15c1.73-0.07,2.69,1.34,2.65,2.04c-0.25,4.92-1.78,24.54-2.86,27.91" id="Ske2tlgp33j" kvg:type="㇕" transform="matrix(1,0,0,1,1096,-4)" xmlns:kvg="http://kanjivg.tagaini.net"></path><path class="stroke_order_diagram--existing_path" d="M57.23,40.56c5.32-0.41,23.23-2,28.34-2.32" id="Ske2tlgp33k" kvg:type="㇐a" transform="matrix(1,0,0,1,1096,-4)" xmlns:kvg="http://kanjivg.tagaini.net"></path><path class="stroke_order_diagram--existing_path" d="M56.85,53.7c7.68-0.44,17.76-1.06,26.11-1.5" id="Ske2tlgp33l" kvg:type="㇐a" transform="matrix(1,0,0,1,1096,-4)" xmlns:kvg="http://kanjivg.tagaini.net"></path><path class="stroke_order_diagram--existing_path" d="M53.51,25.73c1.46,0.58,2.34,2.63,2.64,3.81c0.29,1.17,0.62,59.49,0.29,62.4c-0.29,2.63-0.9,7.52,2.23,4.66c4.16-3.82,8.19-7.48,13.28-12.46" id="Ske2tlgp33m" kvg:type="㇙" transform="matrix(1,0,0,1,1096,-4)" xmlns:kvg="http://kanjivg.tagaini.net"></path><path class="stroke_order_diagram--current_path" d="M91.38,57.55c0.37,1.48,0.08,2.53-1.15,3.75C87,64.5,82.37,68.93,79,71" id="kvg:07cae-s12" kvg:type="㇒" transform="matrix(1,0,0,1,1096,-4)" xmlns:kvg="http://kanjivg.tagaini.net"></path><path class="stroke_order_diagram--current_path" d="M91.38,57.55c0.37,1.48,0.08,2.53-1.15,3.75C87,64.5,82.37,68.93,79,71" id="Ske2tlgp33o" kvg:type="㇒" transform="matrix(1,0,0,1,1096,-4)" xmlns:kvg="http://kanjivg.tagaini.net"></path><circle class="stroke_order_diagram--path_start" cx="91.38" cy="57.55" r="4" transform="matrix(1,0,0,1,1096,-4)"></circle><line class="stroke_order_diagram--guide_line" x1="1250" x2="1250" y1="1" y2="99"></line><line class="stroke_order_diagram--bounding_box" x1="1299" x2="1299" y1="1" y2="99"></line><path class="stroke_order_diagram--existing_path" d="M13.94,25.89c2.92,2.26,7.33,8.65,8.06,12.16" id="Ske2tlgp33r" kvg:type="㇔" transform="matrix(1,0,0,1,1196,-4)" xmlns:kvg="http://kanjivg.tagaini.net"></path><path class="stroke_order_diagram--existing_path" d="M45.01,21.47c0.03,0.37,0.05,0.96-0.05,1.49c-0.6,3.15-4.02,10.06-8.71,14.29" id="Ske2tlgp33s" kvg:type="㇒" transform="matrix(1,0,0,1,1196,-4)" xmlns:kvg="http://kanjivg.tagaini.net"></path><path class="stroke_order_diagram--existing_path" d="M11.95,45.47c0.56,0.17,2.06,0.59,3.55,0.5c5.36-0.33,20.74-2.7,26.8-3.23c1.49-0.13,1.87-0.17,2.81,0" id="Ske2tlgp33t" kvg:type="㇐" transform="matrix(1,0,0,1,1196,-4)" xmlns:kvg="http://kanjivg.tagaini.net"></path><path class="stroke_order_diagram--existing_path" d="M29.52,15.46c0.88,0.47,1.41,2.1,1.59,3.04c0.18,0.94,0,73.15-0.18,79" id="Ske2tlgp33u" kvg:type="㇑" transform="matrix(1,0,0,1,1196,-4)" xmlns:kvg="http://kanjivg.tagaini.net"></path><path class="stroke_order_diagram--existing_path" d="M31.02,45.46C27.54,56.71,19.08,72.51,11.25,79" id="Ske2tlgp33v" kvg:type="㇒" transform="matrix(1,0,0,1,1196,-4)" xmlns:kvg="http://kanjivg.tagaini.net"></path><path class="stroke_order_diagram--existing_path" d="M31.87,53.07c5.52,3.24,9.58,6.97,11.63,12.43" id="Ske2tlgp33w" kvg:type="㇔/㇏" transform="matrix(1,0,0,1,1196,-4)" xmlns:kvg="http://kanjivg.tagaini.net"></path><path class="stroke_order_diagram--existing_path" d="M68.21,13.25c0.83,0.45,1.33,1.12,1.5,2.02c0.17,0.9,0.17,7.17,0.17,9.42" id="Ske2tlgp33x" kvg:type="㇑a" transform="matrix(1,0,0,1,1196,-4)" xmlns:kvg="http://kanjivg.tagaini.net"></path><path class="stroke_order_diagram--existing_path" d="M56.61,27.45c2.28-0.05,25.52-3.07,27.6-3.15c1.73-0.07,2.69,1.34,2.65,2.04c-0.25,4.92-1.78,24.54-2.86,27.91" id="Ske2tlgp33y" kvg:type="㇕" transform="matrix(1,0,0,1,1196,-4)" xmlns:kvg="http://kanjivg.tagaini.net"></path><path class="stroke_order_diagram--existing_path" d="M57.23,40.56c5.32-0.41,23.23-2,28.34-2.32" id="Ske2tlgp33z" kvg:type="㇐a" transform="matrix(1,0,0,1,1196,-4)" xmlns:kvg="http://kanjivg.tagaini.net"></path><path class="stroke_order_diagram--existing_path" d="M56.85,53.7c7.68-0.44,17.76-1.06,26.11-1.5" id="Ske2tlgp340" kvg:type="㇐a" transform="matrix(1,0,0,1,1196,-4)" xmlns:kvg="http://kanjivg.tagaini.net"></path><path class="stroke_order_diagram--existing_path" d="M53.51,25.73c1.46,0.58,2.34,2.63,2.64,3.81c0.29,1.17,0.62,59.49,0.29,62.4c-0.29,2.63-0.9,7.52,2.23,4.66c4.16-3.82,8.19-7.48,13.28-12.46" id="Ske2tlgp341" kvg:type="㇙" transform="matrix(1,0,0,1,1196,-4)" xmlns:kvg="http://kanjivg.tagaini.net"></path><path class="stroke_order_diagram--existing_path" d="M91.38,57.55c0.37,1.48,0.08,2.53-1.15,3.75C87,64.5,82.37,68.93,79,71" id="Ske2tlgp342" kvg:type="㇒" transform="matrix(1,0,0,1,1196,-4)" xmlns:kvg="http://kanjivg.tagaini.net"></path><path class="stroke_order_diagram--current_path" d="M64.38,54.48C69.02,59.16,81.27,81,88.33,88.97c3.76,4.25,5.67,5.37,7.74,6.17" id="kvg:07cae-s13" kvg:type="㇏" transform="matrix(1,0,0,1,1196,-4)" xmlns:kvg="http://kanjivg.tagaini.net"></path><path class="stroke_order_diagram--current_path" d="M64.38,54.48C69.02,59.16,81.27,81,88.33,88.97c3.76,4.25,5.67,5.37,7.74,6.17" id="Ske2tlgp344" kvg:type="㇏" transform="matrix(1,0,0,1,1196,-4)" xmlns:kvg="http://kanjivg.tagaini.net"></path><circle class="stroke_order_diagram--path_start" cx="64.38" cy="54.48" r="4" transform="matrix(1,0,0,1,1196,-4)"></circle></svg>