<svg class="stroke_order_diagram--svg_container_for_518662b5d5dda7965800134c" style="height: 100px; width: 900px;" viewbox="0 0 900 100"><desc>Created with Snap</desc><defs></defs><line class="stroke_order_diagram--bounding_box" x1="1" x2="899" y1="1" y2="1"></line><line class="stroke_order_diagram--bounding_box" x1="1" x2="1" y1="1" y2="99"></line><line class="stroke_order_diagram--bounding_box" x1="1" x2="899" y1="99" y2="99"></line><line class="stroke_order_diagram--guide_line" x1="0" x2="900" y1="50" y2="50"></line><line class="stroke_order_diagram--guide_line" x1="50" x2="50" y1="1" y2="99"></line><line class="stroke_order_diagram--bounding_box" x1="99" x2="99" y1="1" y2="99"></line><path class="stroke_order_diagram--current_path" d="M29.4,10.92c0.36,1.42,0.38,2.47-0.18,4.01c-2.46,6.81-7.46,14.56-12.28,20.01c-0.67,0.75-0.72,3.27,0,3.54c3.81,1.42,8.64,3.28,11.91,5.88" id="kvg:07d02-s1" kvg:type="㇜" transform="matrix(1,0,0,1,-4,-4)" xmlns:kvg="http://kanjivg.tagaini.net"></path><path class="stroke_order_diagram--current_path" d="M29.4,10.92c0.36,1.42,0.38,2.47-0.18,4.01c-2.46,6.81-7.46,14.56-12.28,20.01c-0.67,0.75-0.72,3.27,0,3.54c3.81,1.42,8.64,3.28,11.91,5.88" id="Ske2tqetei" kvg:type="㇜" transform="matrix(1,0,0,1,-4,-4)" xmlns:kvg="http://kanjivg.tagaini.net"></path><circle class="stroke_order_diagram--path_start" cx="29.4" cy="10.92" r="4" transform="matrix(1,0,0,1,-4,-4)"></circle><line class="stroke_order_diagram--guide_line" x1="150" x2="150" y1="1" y2="99"></line><line class="stroke_order_diagram--bounding_box" x1="199" x2="199" y1="1" y2="99"></line><path class="stroke_order_diagram--existing_path" d="M29.4,10.92c0.36,1.42,0.38,2.47-0.18,4.01c-2.46,6.81-7.46,14.56-12.28,20.01c-0.67,0.75-0.72,3.27,0,3.54c3.81,1.42,8.64,3.28,11.91,5.88" id="Ske2tqetel" kvg:type="㇜" transform="matrix(1,0,0,1,96,-4)" xmlns:kvg="http://kanjivg.tagaini.net"></path><path class="stroke_order_diagram--current_path" d="M42.3,25.68c0.3,0.58,0.37,2.46,0,3.09c-5.8,9.73-16.99,21.18-24.98,29.44c-1.83,1.89,0.46,2.98,1.65,2.59c5-1.61,16.87-4.49,23.29-6.03" id="kvg:07d02-s2" kvg:type="㇜" transform="matrix(1,0,0,1,96,-4)" xmlns:kvg="http://kanjivg.tagaini.net"></path><path class="stroke_order_diagram--current_path" d="M42.3,25.68c0.3,0.58,0.37,2.46,0,3.09c-5.8,9.73-16.99,21.18-24.98,29.44c-1.83,1.89,0.46,2.98,1.65,2.59c5-1.61,16.87-4.49,23.29-6.03" id="Ske2tqeten" kvg:type="㇜" transform="matrix(1,0,0,1,96,-4)" xmlns:kvg="http://kanjivg.tagaini.net"></path><circle class="stroke_order_diagram--path_start" cx="42.3" cy="25.68" r="4" transform="matrix(1,0,0,1,96,-4)"></circle><line class="stroke_order_diagram--guide_line" x1="250" x2="250" y1="1" y2="99"></line><line class="stroke_order_diagram--bounding_box" x1="299" x2="299" y1="1" y2="99"></line><path class="stroke_order_diagram--existing_path" d="M29.4,10.92c0.36,1.42,0.38,2.47-0.18,4.01c-2.46,6.81-7.46,14.56-12.28,20.01c-0.67,0.75-0.72,3.27,0,3.54c3.81,1.42,8.64,3.28,11.91,5.88" id="Ske2tqeteq" kvg:type="㇜" transform="matrix(1,0,0,1,196,-4)" xmlns:kvg="http://kanjivg.tagaini.net"></path><path class="stroke_order_diagram--existing_path" d="M42.3,25.68c0.3,0.58,0.37,2.46,0,3.09c-5.8,9.73-16.99,21.18-24.98,29.44c-1.83,1.89,0.46,2.98,1.65,2.59c5-1.61,16.87-4.49,23.29-6.03" id="Ske2tqeter" kvg:type="㇜" transform="matrix(1,0,0,1,196,-4)" xmlns:kvg="http://kanjivg.tagaini.net"></path><path class="stroke_order_diagram--current_path" d="M36.5,47c3.44,2.34,8.89,9.61,9.75,13.25" id="kvg:07d02-s3" kvg:type="㇔" transform="matrix(1,0,0,1,196,-4)" xmlns:kvg="http://kanjivg.tagaini.net"></path><path class="stroke_order_diagram--current_path" d="M36.5,47c3.44,2.34,8.89,9.61,9.75,13.25" id="Ske2tqetet" kvg:type="㇔" transform="matrix(1,0,0,1,196,-4)" xmlns:kvg="http://kanjivg.tagaini.net"></path><circle class="stroke_order_diagram--path_start" cx="36.5" cy="47" r="4" transform="matrix(1,0,0,1,196,-4)"></circle><line class="stroke_order_diagram--guide_line" x1="350" x2="350" y1="1" y2="99"></line><line class="stroke_order_diagram--bounding_box" x1="399" x2="399" y1="1" y2="99"></line><path class="stroke_order_diagram--existing_path" d="M29.4,10.92c0.36,1.42,0.38,2.47-0.18,4.01c-2.46,6.81-7.46,14.56-12.28,20.01c-0.67,0.75-0.72,3.27,0,3.54c3.81,1.42,8.64,3.28,11.91,5.88" id="Ske2tqetew" kvg:type="㇜" transform="matrix(1,0,0,1,296,-4)" xmlns:kvg="http://kanjivg.tagaini.net"></path><path class="stroke_order_diagram--existing_path" d="M42.3,25.68c0.3,0.58,0.37,2.46,0,3.09c-5.8,9.73-16.99,21.18-24.98,29.44c-1.83,1.89,0.46,2.98,1.65,2.59c5-1.61,16.87-4.49,23.29-6.03" id="Ske2tqetex" kvg:type="㇜" transform="matrix(1,0,0,1,296,-4)" xmlns:kvg="http://kanjivg.tagaini.net"></path><path class="stroke_order_diagram--existing_path" d="M36.5,47c3.44,2.34,8.89,9.61,9.75,13.25" id="Ske2tqetey" kvg:type="㇔" transform="matrix(1,0,0,1,296,-4)" xmlns:kvg="http://kanjivg.tagaini.net"></path><path class="stroke_order_diagram--current_path" d="M29.64,60.87c0.07,0.36,0.91,1.85,0.98,4.09c0.31,10.79-0.2,28.79-0.2,32.46" id="kvg:07d02-s4" kvg:type="㇑" transform="matrix(1,0,0,1,296,-4)" xmlns:kvg="http://kanjivg.tagaini.net"></path><path class="stroke_order_diagram--current_path" d="M29.64,60.87c0.07,0.36,0.91,1.85,0.98,4.09c0.31,10.79-0.2,28.79-0.2,32.46" id="Ske2tqete10" kvg:type="㇑" transform="matrix(1,0,0,1,296,-4)" xmlns:kvg="http://kanjivg.tagaini.net"></path><circle class="stroke_order_diagram--path_start" cx="29.64" cy="60.87" r="4" transform="matrix(1,0,0,1,296,-4)"></circle><line class="stroke_order_diagram--guide_line" x1="450" x2="450" y1="1" y2="99"></line><line class="stroke_order_diagram--bounding_box" x1="499" x2="499" y1="1" y2="99"></line><path class="stroke_order_diagram--existing_path" d="M29.4,10.92c0.36,1.42,0.38,2.47-0.18,4.01c-2.46,6.81-7.46,14.56-12.28,20.01c-0.67,0.75-0.72,3.27,0,3.54c3.81,1.42,8.64,3.28,11.91,5.88" id="Ske2tqete13" kvg:type="㇜" transform="matrix(1,0,0,1,396,-4)" xmlns:kvg="http://kanjivg.tagaini.net"></path><path class="stroke_order_diagram--existing_path" d="M42.3,25.68c0.3,0.58,0.37,2.46,0,3.09c-5.8,9.73-16.99,21.18-24.98,29.44c-1.83,1.89,0.46,2.98,1.65,2.59c5-1.61,16.87-4.49,23.29-6.03" id="Ske2tqete14" kvg:type="㇜" transform="matrix(1,0,0,1,396,-4)" xmlns:kvg="http://kanjivg.tagaini.net"></path><path class="stroke_order_diagram--existing_path" d="M36.5,47c3.44,2.34,8.89,9.61,9.75,13.25" id="Ske2tqete15" kvg:type="㇔" transform="matrix(1,0,0,1,396,-4)" xmlns:kvg="http://kanjivg.tagaini.net"></path><path class="stroke_order_diagram--existing_path" d="M29.64,60.87c0.07,0.36,0.91,1.85,0.98,4.09c0.31,10.79-0.2,28.79-0.2,32.46" id="Ske2tqete16" kvg:type="㇑" transform="matrix(1,0,0,1,396,-4)" xmlns:kvg="http://kanjivg.tagaini.net"></path><path class="stroke_order_diagram--current_path" d="M21.34,70.6c0.19,0.93,0.16,2.76-0.18,3.42c-2.22,4.33-7.76,12.69-10.9,16.41" id="kvg:07d02-s5" kvg:type="㇒" transform="matrix(1,0,0,1,396,-4)" xmlns:kvg="http://kanjivg.tagaini.net"></path><path class="stroke_order_diagram--current_path" d="M21.34,70.6c0.19,0.93,0.16,2.76-0.18,3.42c-2.22,4.33-7.76,12.69-10.9,16.41" id="Ske2tqete18" kvg:type="㇒" transform="matrix(1,0,0,1,396,-4)" xmlns:kvg="http://kanjivg.tagaini.net"></path><circle class="stroke_order_diagram--path_start" cx="21.34" cy="70.6" r="4" transform="matrix(1,0,0,1,396,-4)"></circle><line class="stroke_order_diagram--guide_line" x1="550" x2="550" y1="1" y2="99"></line><line class="stroke_order_diagram--bounding_box" x1="599" x2="599" y1="1" y2="99"></line><path class="stroke_order_diagram--existing_path" d="M29.4,10.92c0.36,1.42,0.38,2.47-0.18,4.01c-2.46,6.81-7.46,14.56-12.28,20.01c-0.67,0.75-0.72,3.27,0,3.54c3.81,1.42,8.64,3.28,11.91,5.88" id="Ske2tqete1b" kvg:type="㇜" transform="matrix(1,0,0,1,496,-4)" xmlns:kvg="http://kanjivg.tagaini.net"></path><path class="stroke_order_diagram--existing_path" d="M42.3,25.68c0.3,0.58,0.37,2.46,0,3.09c-5.8,9.73-16.99,21.18-24.98,29.44c-1.83,1.89,0.46,2.98,1.65,2.59c5-1.61,16.87-4.49,23.29-6.03" id="Ske2tqete1c" kvg:type="㇜" transform="matrix(1,0,0,1,496,-4)" xmlns:kvg="http://kanjivg.tagaini.net"></path><path class="stroke_order_diagram--existing_path" d="M36.5,47c3.44,2.34,8.89,9.61,9.75,13.25" id="Ske2tqete1d" kvg:type="㇔" transform="matrix(1,0,0,1,496,-4)" xmlns:kvg="http://kanjivg.tagaini.net"></path><path class="stroke_order_diagram--existing_path" d="M29.64,60.87c0.07,0.36,0.91,1.85,0.98,4.09c0.31,10.79-0.2,28.79-0.2,32.46" id="Ske2tqete1e" kvg:type="㇑" transform="matrix(1,0,0,1,496,-4)" xmlns:kvg="http://kanjivg.tagaini.net"></path><path class="stroke_order_diagram--existing_path" d="M21.34,70.6c0.19,0.93,0.16,2.76-0.18,3.42c-2.22,4.33-7.76,12.69-10.9,16.41" id="Ske2tqete1f" kvg:type="㇒" transform="matrix(1,0,0,1,496,-4)" xmlns:kvg="http://kanjivg.tagaini.net"></path><path class="stroke_order_diagram--current_path" d="M38.18,68.79c3.87,3.77,6.84,12.52,7.74,15.94" id="kvg:07d02-s6" kvg:type="㇔" transform="matrix(1,0,0,1,496,-4)" xmlns:kvg="http://kanjivg.tagaini.net"></path><path class="stroke_order_diagram--current_path" d="M38.18,68.79c3.87,3.77,6.84,12.52,7.74,15.94" id="Ske2tqete1h" kvg:type="㇔" transform="matrix(1,0,0,1,496,-4)" xmlns:kvg="http://kanjivg.tagaini.net"></path><circle class="stroke_order_diagram--path_start" cx="38.18" cy="68.79" r="4" transform="matrix(1,0,0,1,496,-4)"></circle><line class="stroke_order_diagram--guide_line" x1="650" x2="650" y1="1" y2="99"></line><line class="stroke_order_diagram--bounding_box" x1="699" x2="699" y1="1" y2="99"></line><path class="stroke_order_diagram--existing_path" d="M29.4,10.92c0.36,1.42,0.38,2.47-0.18,4.01c-2.46,6.81-7.46,14.56-12.28,20.01c-0.67,0.75-0.72,3.27,0,3.54c3.81,1.42,8.64,3.28,11.91,5.88" id="Ske2tqete1k" kvg:type="㇜" transform="matrix(1,0,0,1,596,-4)" xmlns:kvg="http://kanjivg.tagaini.net"></path><path class="stroke_order_diagram--existing_path" d="M42.3,25.68c0.3,0.58,0.37,2.46,0,3.09c-5.8,9.73-16.99,21.18-24.98,29.44c-1.83,1.89,0.46,2.98,1.65,2.59c5-1.61,16.87-4.49,23.29-6.03" id="Ske2tqete1l" kvg:type="㇜" transform="matrix(1,0,0,1,596,-4)" xmlns:kvg="http://kanjivg.tagaini.net"></path><path class="stroke_order_diagram--existing_path" d="M36.5,47c3.44,2.34,8.89,9.61,9.75,13.25" id="Ske2tqete1m" kvg:type="㇔" transform="matrix(1,0,0,1,596,-4)" xmlns:kvg="http://kanjivg.tagaini.net"></path><path class="stroke_order_diagram--existing_path" d="M29.64,60.87c0.07,0.36,0.91,1.85,0.98,4.09c0.31,10.79-0.2,28.79-0.2,32.46" id="Ske2tqete1n" kvg:type="㇑" transform="matrix(1,0,0,1,596,-4)" xmlns:kvg="http://kanjivg.tagaini.net"></path><path class="stroke_order_diagram--existing_path" d="M21.34,70.6c0.19,0.93,0.16,2.76-0.18,3.42c-2.22,4.33-7.76,12.69-10.9,16.41" id="Ske2tqete1o" kvg:type="㇒" transform="matrix(1,0,0,1,596,-4)" xmlns:kvg="http://kanjivg.tagaini.net"></path><path class="stroke_order_diagram--existing_path" d="M38.18,68.79c3.87,3.77,6.84,12.52,7.74,15.94" id="Ske2tqete1p" kvg:type="㇔" transform="matrix(1,0,0,1,596,-4)" xmlns:kvg="http://kanjivg.tagaini.net"></path><path class="stroke_order_diagram--current_path" d="M47,38.18c1.18,0.26,3.33,0.32,4.52,0.26c13.06-0.72,28.22-2.19,42.61-2.58c1.96-0.05,3.14,0.12,4.12,0.25" id="kvg:07d02-s7" kvg:type="㇐" transform="matrix(1,0,0,1,596,-4)" xmlns:kvg="http://kanjivg.tagaini.net"></path><path class="stroke_order_diagram--current_path" d="M47,38.18c1.18,0.26,3.33,0.32,4.52,0.26c13.06-0.72,28.22-2.19,42.61-2.58c1.96-0.05,3.14,0.12,4.12,0.25" id="Ske2tqete1r" kvg:type="㇐" transform="matrix(1,0,0,1,596,-4)" xmlns:kvg="http://kanjivg.tagaini.net"></path><circle class="stroke_order_diagram--path_start" cx="47" cy="38.18" r="4" transform="matrix(1,0,0,1,596,-4)"></circle><line class="stroke_order_diagram--guide_line" x1="750" x2="750" y1="1" y2="99"></line><line class="stroke_order_diagram--bounding_box" x1="799" x2="799" y1="1" y2="99"></line><path class="stroke_order_diagram--existing_path" d="M29.4,10.92c0.36,1.42,0.38,2.47-0.18,4.01c-2.46,6.81-7.46,14.56-12.28,20.01c-0.67,0.75-0.72,3.27,0,3.54c3.81,1.42,8.64,3.28,11.91,5.88" id="Ske2tqete1u" kvg:type="㇜" transform="matrix(1,0,0,1,696,-4)" xmlns:kvg="http://kanjivg.tagaini.net"></path><path class="stroke_order_diagram--existing_path" d="M42.3,25.68c0.3,0.58,0.37,2.46,0,3.09c-5.8,9.73-16.99,21.18-24.98,29.44c-1.83,1.89,0.46,2.98,1.65,2.59c5-1.61,16.87-4.49,23.29-6.03" id="Ske2tqete1v" kvg:type="㇜" transform="matrix(1,0,0,1,696,-4)" xmlns:kvg="http://kanjivg.tagaini.net"></path><path class="stroke_order_diagram--existing_path" d="M36.5,47c3.44,2.34,8.89,9.61,9.75,13.25" id="Ske2tqete1w" kvg:type="㇔" transform="matrix(1,0,0,1,696,-4)" xmlns:kvg="http://kanjivg.tagaini.net"></path><path class="stroke_order_diagram--existing_path" d="M29.64,60.87c0.07,0.36,0.91,1.85,0.98,4.09c0.31,10.79-0.2,28.79-0.2,32.46" id="Ske2tqete1x" kvg:type="㇑" transform="matrix(1,0,0,1,696,-4)" xmlns:kvg="http://kanjivg.tagaini.net"></path><path class="stroke_order_diagram--existing_path" d="M21.34,70.6c0.19,0.93,0.16,2.76-0.18,3.42c-2.22,4.33-7.76,12.69-10.9,16.41" id="Ske2tqete1y" kvg:type="㇒" transform="matrix(1,0,0,1,696,-4)" xmlns:kvg="http://kanjivg.tagaini.net"></path><path class="stroke_order_diagram--existing_path" d="M38.18,68.79c3.87,3.77,6.84,12.52,7.74,15.94" id="Ske2tqete1z" kvg:type="㇔" transform="matrix(1,0,0,1,696,-4)" xmlns:kvg="http://kanjivg.tagaini.net"></path><path class="stroke_order_diagram--existing_path" d="M47,38.18c1.18,0.26,3.33,0.32,4.52,0.26c13.06-0.72,28.22-2.19,42.61-2.58c1.96-0.05,3.14,0.12,4.12,0.25" id="Ske2tqete20" kvg:type="㇐" transform="matrix(1,0,0,1,696,-4)" xmlns:kvg="http://kanjivg.tagaini.net"></path><path class="stroke_order_diagram--current_path" d="M80.13,14.08c0.09,0.46,1.27,2.4,1.27,5.32c0,19.66-0.26,63.27-0.26,68.05c0,11.6-5.69,3.89-7.78,1.21" id="kvg:07d02-s8" kvg:type="㇚" transform="matrix(1,0,0,1,696,-4)" xmlns:kvg="http://kanjivg.tagaini.net"></path><path class="stroke_order_diagram--current_path" d="M80.13,14.08c0.09,0.46,1.27,2.4,1.27,5.32c0,19.66-0.26,63.27-0.26,68.05c0,11.6-5.69,3.89-7.78,1.21" id="Ske2tqete22" kvg:type="㇚" transform="matrix(1,0,0,1,696,-4)" xmlns:kvg="http://kanjivg.tagaini.net"></path><circle class="stroke_order_diagram--path_start" cx="80.13" cy="14.08" r="4" transform="matrix(1,0,0,1,696,-4)"></circle><line class="stroke_order_diagram--guide_line" x1="850" x2="850" y1="1" y2="99"></line><line class="stroke_order_diagram--bounding_box" x1="899" x2="899" y1="1" y2="99"></line><path class="stroke_order_diagram--existing_path" d="M29.4,10.92c0.36,1.42,0.38,2.47-0.18,4.01c-2.46,6.81-7.46,14.56-12.28,20.01c-0.67,0.75-0.72,3.27,0,3.54c3.81,1.42,8.64,3.28,11.91,5.88" id="Ske2tqete25" kvg:type="㇜" transform="matrix(1,0,0,1,796,-4)" xmlns:kvg="http://kanjivg.tagaini.net"></path><path class="stroke_order_diagram--existing_path" d="M42.3,25.68c0.3,0.58,0.37,2.46,0,3.09c-5.8,9.73-16.99,21.18-24.98,29.44c-1.83,1.89,0.46,2.98,1.65,2.59c5-1.61,16.87-4.49,23.29-6.03" id="Ske2tqete26" kvg:type="㇜" transform="matrix(1,0,0,1,796,-4)" xmlns:kvg="http://kanjivg.tagaini.net"></path><path class="stroke_order_diagram--existing_path" d="M36.5,47c3.44,2.34,8.89,9.61,9.75,13.25" id="Ske2tqete27" kvg:type="㇔" transform="matrix(1,0,0,1,796,-4)" xmlns:kvg="http://kanjivg.tagaini.net"></path><path class="stroke_order_diagram--existing_path" d="M29.64,60.87c0.07,0.36,0.91,1.85,0.98,4.09c0.31,10.79-0.2,28.79-0.2,32.46" id="Ske2tqete28" kvg:type="㇑" transform="matrix(1,0,0,1,796,-4)" xmlns:kvg="http://kanjivg.tagaini.net"></path><path class="stroke_order_diagram--existing_path" d="M21.34,70.6c0.19,0.93,0.16,2.76-0.18,3.42c-2.22,4.33-7.76,12.69-10.9,16.41" id="Ske2tqete29" kvg:type="㇒" transform="matrix(1,0,0,1,796,-4)" xmlns:kvg="http://kanjivg.tagaini.net"></path><path class="stroke_order_diagram--existing_path" d="M38.18,68.79c3.87,3.77,6.84,12.52,7.74,15.94" id="Ske2tqete2a" kvg:type="㇔" transform="matrix(1,0,0,1,796,-4)" xmlns:kvg="http://kanjivg.tagaini.net"></path><path class="stroke_order_diagram--existing_path" d="M47,38.18c1.18,0.26,3.33,0.32,4.52,0.26c13.06-0.72,28.22-2.19,42.61-2.58c1.96-0.05,3.14,0.12,4.12,0.25" id="Ske2tqete2b" kvg:type="㇐" transform="matrix(1,0,0,1,796,-4)" xmlns:kvg="http://kanjivg.tagaini.net"></path><path class="stroke_order_diagram--existing_path" d="M80.13,14.08c0.09,0.46,1.27,2.4,1.27,5.32c0,19.66-0.26,63.27-0.26,68.05c0,11.6-5.69,3.89-7.78,1.21" id="Ske2tqete2c" kvg:type="㇚" transform="matrix(1,0,0,1,796,-4)" xmlns:kvg="http://kanjivg.tagaini.net"></path><path class="stroke_order_diagram--current_path" d="M56.75,53c3.56,2.45,9.19,10.06,10.08,13.87" id="kvg:07d02-s9" kvg:type="㇔" transform="matrix(1,0,0,1,796,-4)" xmlns:kvg="http://kanjivg.tagaini.net"></path><path class="stroke_order_diagram--current_path" d="M56.75,53c3.56,2.45,9.19,10.06,10.08,13.87" id="Ske2tqete2e" kvg:type="㇔" transform="matrix(1,0,0,1,796,-4)" xmlns:kvg="http://kanjivg.tagaini.net"></path><circle class="stroke_order_diagram--path_start" cx="56.75" cy="53" r="4" transform="matrix(1,0,0,1,796,-4)"></circle></svg>