<svg class="stroke_order_diagram--svg_container_for_5186628ed5dda79658000795" style="height: 100px; width: 1100px;" viewbox="0 0 1100 100"><desc>Created with Snap</desc><defs></defs><line class="stroke_order_diagram--bounding_box" x1="1" x2="1099" y1="1" y2="1"></line><line class="stroke_order_diagram--bounding_box" x1="1" x2="1" y1="1" y2="99"></line><line class="stroke_order_diagram--bounding_box" x1="1" x2="1099" y1="99" y2="99"></line><line class="stroke_order_diagram--guide_line" x1="0" x2="1100" y1="50" y2="50"></line><line class="stroke_order_diagram--guide_line" x1="50" x2="50" y1="1" y2="99"></line><line class="stroke_order_diagram--bounding_box" x1="99" x2="99" y1="1" y2="99"></line><path class="stroke_order_diagram--current_path" d="M28.63,14.92c0.34,1.34,0.27,2.41-0.42,3.8c-3.2,6.4-6.49,12.15-10.88,17.21c-1.21,1.39-1.57,3.19,0.68,4.43c3.09,1.7,4.75,2.39,8.37,4.75" id="kvg:07d2c-s1" kvg:type="㇜" transform="matrix(1,0,0,1,-4,-4)" xmlns:kvg="http://kanjivg.tagaini.net"></path><path class="stroke_order_diagram--current_path" d="M28.63,14.92c0.34,1.34,0.27,2.41-0.42,3.8c-3.2,6.4-6.49,12.15-10.88,17.21c-1.21,1.39-1.57,3.19,0.68,4.43c3.09,1.7,4.75,2.39,8.37,4.75" id="Ske23elhyk" kvg:type="㇜" transform="matrix(1,0,0,1,-4,-4)" xmlns:kvg="http://kanjivg.tagaini.net"></path><circle class="stroke_order_diagram--path_start" cx="28.63" cy="14.92" r="4" transform="matrix(1,0,0,1,-4,-4)"></circle><line class="stroke_order_diagram--guide_line" x1="150" x2="150" y1="1" y2="99"></line><line class="stroke_order_diagram--bounding_box" x1="199" x2="199" y1="1" y2="99"></line><path class="stroke_order_diagram--existing_path" d="M28.63,14.92c0.34,1.34,0.27,2.41-0.42,3.8c-3.2,6.4-6.49,12.15-10.88,17.21c-1.21,1.39-1.57,3.19,0.68,4.43c3.09,1.7,4.75,2.39,8.37,4.75" id="Ske23elhyn" kvg:type="㇜" transform="matrix(1,0,0,1,96,-4)" xmlns:kvg="http://kanjivg.tagaini.net"></path><path class="stroke_order_diagram--current_path" d="M38.3,26.43c0.45,1.32,0.2,2.57-0.5,3.59c-6.17,9.02-13.12,18-20.87,26.05c-2.33,2.42-1.2,3.98,1.92,3.14c6.26-1.7,14.68-4,20.65-5.43" id="kvg:07d2c-s2" kvg:type="㇜" transform="matrix(1,0,0,1,96,-4)" xmlns:kvg="http://kanjivg.tagaini.net"></path><path class="stroke_order_diagram--current_path" d="M38.3,26.43c0.45,1.32,0.2,2.57-0.5,3.59c-6.17,9.02-13.12,18-20.87,26.05c-2.33,2.42-1.2,3.98,1.92,3.14c6.26-1.7,14.68-4,20.65-5.43" id="Ske23elhyp" kvg:type="㇜" transform="matrix(1,0,0,1,96,-4)" xmlns:kvg="http://kanjivg.tagaini.net"></path><circle class="stroke_order_diagram--path_start" cx="38.3" cy="26.43" r="4" transform="matrix(1,0,0,1,96,-4)"></circle><line class="stroke_order_diagram--guide_line" x1="250" x2="250" y1="1" y2="99"></line><line class="stroke_order_diagram--bounding_box" x1="299" x2="299" y1="1" y2="99"></line><path class="stroke_order_diagram--existing_path" d="M28.63,14.92c0.34,1.34,0.27,2.41-0.42,3.8c-3.2,6.4-6.49,12.15-10.88,17.21c-1.21,1.39-1.57,3.19,0.68,4.43c3.09,1.7,4.75,2.39,8.37,4.75" id="Ske23elhys" kvg:type="㇜" transform="matrix(1,0,0,1,196,-4)" xmlns:kvg="http://kanjivg.tagaini.net"></path><path class="stroke_order_diagram--existing_path" d="M38.3,26.43c0.45,1.32,0.2,2.57-0.5,3.59c-6.17,9.02-13.12,18-20.87,26.05c-2.33,2.42-1.2,3.98,1.92,3.14c6.26-1.7,14.68-4,20.65-5.43" id="Ske23elhyt" kvg:type="㇜" transform="matrix(1,0,0,1,196,-4)" xmlns:kvg="http://kanjivg.tagaini.net"></path><path class="stroke_order_diagram--current_path" d="M35.88,47.25c2.57,2.29,7.73,8.92,8.38,12.48" id="kvg:07d2c-s3" kvg:type="㇔" transform="matrix(1,0,0,1,196,-4)" xmlns:kvg="http://kanjivg.tagaini.net"></path><path class="stroke_order_diagram--current_path" d="M35.88,47.25c2.57,2.29,7.73,8.92,8.38,12.48" id="Ske23elhyv" kvg:type="㇔" transform="matrix(1,0,0,1,196,-4)" xmlns:kvg="http://kanjivg.tagaini.net"></path><circle class="stroke_order_diagram--path_start" cx="35.88" cy="47.25" r="4" transform="matrix(1,0,0,1,196,-4)"></circle><line class="stroke_order_diagram--guide_line" x1="350" x2="350" y1="1" y2="99"></line><line class="stroke_order_diagram--bounding_box" x1="399" x2="399" y1="1" y2="99"></line><path class="stroke_order_diagram--existing_path" d="M28.63,14.92c0.34,1.34,0.27,2.41-0.42,3.8c-3.2,6.4-6.49,12.15-10.88,17.21c-1.21,1.39-1.57,3.19,0.68,4.43c3.09,1.7,4.75,2.39,8.37,4.75" id="Ske23elhyy" kvg:type="㇜" transform="matrix(1,0,0,1,296,-4)" xmlns:kvg="http://kanjivg.tagaini.net"></path><path class="stroke_order_diagram--existing_path" d="M38.3,26.43c0.45,1.32,0.2,2.57-0.5,3.59c-6.17,9.02-13.12,18-20.87,26.05c-2.33,2.42-1.2,3.98,1.92,3.14c6.26-1.7,14.68-4,20.65-5.43" id="Ske23elhyz" kvg:type="㇜" transform="matrix(1,0,0,1,296,-4)" xmlns:kvg="http://kanjivg.tagaini.net"></path><path class="stroke_order_diagram--existing_path" d="M35.88,47.25c2.57,2.29,7.73,8.92,8.38,12.48" id="Ske23elhy10" kvg:type="㇔" transform="matrix(1,0,0,1,296,-4)" xmlns:kvg="http://kanjivg.tagaini.net"></path><path class="stroke_order_diagram--current_path" d="M28.89,59.62c0.87,0.87,1.23,2.26,1.23,3.84c0,8-0.06,17.86-0.1,24.54C30.01,90.34,30,92.28,30,93.62" id="kvg:07d2c-s4" kvg:type="㇑" transform="matrix(1,0,0,1,296,-4)" xmlns:kvg="http://kanjivg.tagaini.net"></path><path class="stroke_order_diagram--current_path" d="M28.89,59.62c0.87,0.87,1.23,2.26,1.23,3.84c0,8-0.06,17.86-0.1,24.54C30.01,90.34,30,92.28,30,93.62" id="Ske23elhy12" kvg:type="㇑" transform="matrix(1,0,0,1,296,-4)" xmlns:kvg="http://kanjivg.tagaini.net"></path><circle class="stroke_order_diagram--path_start" cx="28.89" cy="59.62" r="4" transform="matrix(1,0,0,1,296,-4)"></circle><line class="stroke_order_diagram--guide_line" x1="450" x2="450" y1="1" y2="99"></line><line class="stroke_order_diagram--bounding_box" x1="499" x2="499" y1="1" y2="99"></line><path class="stroke_order_diagram--existing_path" d="M28.63,14.92c0.34,1.34,0.27,2.41-0.42,3.8c-3.2,6.4-6.49,12.15-10.88,17.21c-1.21,1.39-1.57,3.19,0.68,4.43c3.09,1.7,4.75,2.39,8.37,4.75" id="Ske23elhy15" kvg:type="㇜" transform="matrix(1,0,0,1,396,-4)" xmlns:kvg="http://kanjivg.tagaini.net"></path><path class="stroke_order_diagram--existing_path" d="M38.3,26.43c0.45,1.32,0.2,2.57-0.5,3.59c-6.17,9.02-13.12,18-20.87,26.05c-2.33,2.42-1.2,3.98,1.92,3.14c6.26-1.7,14.68-4,20.65-5.43" id="Ske23elhy16" kvg:type="㇜" transform="matrix(1,0,0,1,396,-4)" xmlns:kvg="http://kanjivg.tagaini.net"></path><path class="stroke_order_diagram--existing_path" d="M35.88,47.25c2.57,2.29,7.73,8.92,8.38,12.48" id="Ske23elhy17" kvg:type="㇔" transform="matrix(1,0,0,1,396,-4)" xmlns:kvg="http://kanjivg.tagaini.net"></path><path class="stroke_order_diagram--existing_path" d="M28.89,59.62c0.87,0.87,1.23,2.26,1.23,3.84c0,8-0.06,17.86-0.1,24.54C30.01,90.34,30,92.28,30,93.62" id="Ske23elhy18" kvg:type="㇑" transform="matrix(1,0,0,1,396,-4)" xmlns:kvg="http://kanjivg.tagaini.net"></path><path class="stroke_order_diagram--current_path" d="M19.86,68.6c0.14,0.96-0.14,2.61-0.39,3.3C17.5,77.25,14.5,84,11,88.93" id="kvg:07d2c-s5" kvg:type="㇒" transform="matrix(1,0,0,1,396,-4)" xmlns:kvg="http://kanjivg.tagaini.net"></path><path class="stroke_order_diagram--current_path" d="M19.86,68.6c0.14,0.96-0.14,2.61-0.39,3.3C17.5,77.25,14.5,84,11,88.93" id="Ske23elhy1a" kvg:type="㇒" transform="matrix(1,0,0,1,396,-4)" xmlns:kvg="http://kanjivg.tagaini.net"></path><circle class="stroke_order_diagram--path_start" cx="19.86" cy="68.6" r="4" transform="matrix(1,0,0,1,396,-4)"></circle><line class="stroke_order_diagram--guide_line" x1="550" x2="550" y1="1" y2="99"></line><line class="stroke_order_diagram--bounding_box" x1="599" x2="599" y1="1" y2="99"></line><path class="stroke_order_diagram--existing_path" d="M28.63,14.92c0.34,1.34,0.27,2.41-0.42,3.8c-3.2,6.4-6.49,12.15-10.88,17.21c-1.21,1.39-1.57,3.19,0.68,4.43c3.09,1.7,4.75,2.39,8.37,4.75" id="Ske23elhy1d" kvg:type="㇜" transform="matrix(1,0,0,1,496,-4)" xmlns:kvg="http://kanjivg.tagaini.net"></path><path class="stroke_order_diagram--existing_path" d="M38.3,26.43c0.45,1.32,0.2,2.57-0.5,3.59c-6.17,9.02-13.12,18-20.87,26.05c-2.33,2.42-1.2,3.98,1.92,3.14c6.26-1.7,14.68-4,20.65-5.43" id="Ske23elhy1e" kvg:type="㇜" transform="matrix(1,0,0,1,496,-4)" xmlns:kvg="http://kanjivg.tagaini.net"></path><path class="stroke_order_diagram--existing_path" d="M35.88,47.25c2.57,2.29,7.73,8.92,8.38,12.48" id="Ske23elhy1f" kvg:type="㇔" transform="matrix(1,0,0,1,496,-4)" xmlns:kvg="http://kanjivg.tagaini.net"></path><path class="stroke_order_diagram--existing_path" d="M28.89,59.62c0.87,0.87,1.23,2.26,1.23,3.84c0,8-0.06,17.86-0.1,24.54C30.01,90.34,30,92.28,30,93.62" id="Ske23elhy1g" kvg:type="㇑" transform="matrix(1,0,0,1,496,-4)" xmlns:kvg="http://kanjivg.tagaini.net"></path><path class="stroke_order_diagram--existing_path" d="M19.86,68.6c0.14,0.96-0.14,2.61-0.39,3.3C17.5,77.25,14.5,84,11,88.93" id="Ske23elhy1h" kvg:type="㇒" transform="matrix(1,0,0,1,496,-4)" xmlns:kvg="http://kanjivg.tagaini.net"></path><path class="stroke_order_diagram--current_path" d="M37.68,66.79c3.25,3.95,5.74,13.11,6.49,16.69" id="kvg:07d2c-s6" kvg:type="㇔" transform="matrix(1,0,0,1,496,-4)" xmlns:kvg="http://kanjivg.tagaini.net"></path><path class="stroke_order_diagram--current_path" d="M37.68,66.79c3.25,3.95,5.74,13.11,6.49,16.69" id="Ske23elhy1j" kvg:type="㇔" transform="matrix(1,0,0,1,496,-4)" xmlns:kvg="http://kanjivg.tagaini.net"></path><circle class="stroke_order_diagram--path_start" cx="37.68" cy="66.79" r="4" transform="matrix(1,0,0,1,496,-4)"></circle><line class="stroke_order_diagram--guide_line" x1="650" x2="650" y1="1" y2="99"></line><line class="stroke_order_diagram--bounding_box" x1="699" x2="699" y1="1" y2="99"></line><path class="stroke_order_diagram--existing_path" d="M28.63,14.92c0.34,1.34,0.27,2.41-0.42,3.8c-3.2,6.4-6.49,12.15-10.88,17.21c-1.21,1.39-1.57,3.19,0.68,4.43c3.09,1.7,4.75,2.39,8.37,4.75" id="Ske23elhy1m" kvg:type="㇜" transform="matrix(1,0,0,1,596,-4)" xmlns:kvg="http://kanjivg.tagaini.net"></path><path class="stroke_order_diagram--existing_path" d="M38.3,26.43c0.45,1.32,0.2,2.57-0.5,3.59c-6.17,9.02-13.12,18-20.87,26.05c-2.33,2.42-1.2,3.98,1.92,3.14c6.26-1.7,14.68-4,20.65-5.43" id="Ske23elhy1n" kvg:type="㇜" transform="matrix(1,0,0,1,596,-4)" xmlns:kvg="http://kanjivg.tagaini.net"></path><path class="stroke_order_diagram--existing_path" d="M35.88,47.25c2.57,2.29,7.73,8.92,8.38,12.48" id="Ske23elhy1o" kvg:type="㇔" transform="matrix(1,0,0,1,596,-4)" xmlns:kvg="http://kanjivg.tagaini.net"></path><path class="stroke_order_diagram--existing_path" d="M28.89,59.62c0.87,0.87,1.23,2.26,1.23,3.84c0,8-0.06,17.86-0.1,24.54C30.01,90.34,30,92.28,30,93.62" id="Ske23elhy1p" kvg:type="㇑" transform="matrix(1,0,0,1,596,-4)" xmlns:kvg="http://kanjivg.tagaini.net"></path><path class="stroke_order_diagram--existing_path" d="M19.86,68.6c0.14,0.96-0.14,2.61-0.39,3.3C17.5,77.25,14.5,84,11,88.93" id="Ske23elhy1q" kvg:type="㇒" transform="matrix(1,0,0,1,596,-4)" xmlns:kvg="http://kanjivg.tagaini.net"></path><path class="stroke_order_diagram--existing_path" d="M37.68,66.79c3.25,3.95,5.74,13.11,6.49,16.69" id="Ske23elhy1r" kvg:type="㇔" transform="matrix(1,0,0,1,596,-4)" xmlns:kvg="http://kanjivg.tagaini.net"></path><path class="stroke_order_diagram--current_path" d="M51.01,44.08c1.21,1.21,1.31,2.44,1.43,4.43c0.52,8.71,0.79,22.29,1.26,37c0.07,2.23,0.15,4.49,0.23,6.76" id="kvg:07d2c-s7" kvg:type="㇑" transform="matrix(1,0,0,1,596,-4)" xmlns:kvg="http://kanjivg.tagaini.net"></path><path class="stroke_order_diagram--current_path" d="M51.01,44.08c1.21,1.21,1.31,2.44,1.43,4.43c0.52,8.71,0.79,22.29,1.26,37c0.07,2.23,0.15,4.49,0.23,6.76" id="Ske23elhy1t" kvg:type="㇑" transform="matrix(1,0,0,1,596,-4)" xmlns:kvg="http://kanjivg.tagaini.net"></path><circle class="stroke_order_diagram--path_start" cx="51.01" cy="44.08" r="4" transform="matrix(1,0,0,1,596,-4)"></circle><line class="stroke_order_diagram--guide_line" x1="750" x2="750" y1="1" y2="99"></line><line class="stroke_order_diagram--bounding_box" x1="799" x2="799" y1="1" y2="99"></line><path class="stroke_order_diagram--existing_path" d="M28.63,14.92c0.34,1.34,0.27,2.41-0.42,3.8c-3.2,6.4-6.49,12.15-10.88,17.21c-1.21,1.39-1.57,3.19,0.68,4.43c3.09,1.7,4.75,2.39,8.37,4.75" id="Ske23elhy1w" kvg:type="㇜" transform="matrix(1,0,0,1,696,-4)" xmlns:kvg="http://kanjivg.tagaini.net"></path><path class="stroke_order_diagram--existing_path" d="M38.3,26.43c0.45,1.32,0.2,2.57-0.5,3.59c-6.17,9.02-13.12,18-20.87,26.05c-2.33,2.42-1.2,3.98,1.92,3.14c6.26-1.7,14.68-4,20.65-5.43" id="Ske23elhy1x" kvg:type="㇜" transform="matrix(1,0,0,1,696,-4)" xmlns:kvg="http://kanjivg.tagaini.net"></path><path class="stroke_order_diagram--existing_path" d="M35.88,47.25c2.57,2.29,7.73,8.92,8.38,12.48" id="Ske23elhy1y" kvg:type="㇔" transform="matrix(1,0,0,1,696,-4)" xmlns:kvg="http://kanjivg.tagaini.net"></path><path class="stroke_order_diagram--existing_path" d="M28.89,59.62c0.87,0.87,1.23,2.26,1.23,3.84c0,8-0.06,17.86-0.1,24.54C30.01,90.34,30,92.28,30,93.62" id="Ske23elhy1z" kvg:type="㇑" transform="matrix(1,0,0,1,696,-4)" xmlns:kvg="http://kanjivg.tagaini.net"></path><path class="stroke_order_diagram--existing_path" d="M19.86,68.6c0.14,0.96-0.14,2.61-0.39,3.3C17.5,77.25,14.5,84,11,88.93" id="Ske23elhy20" kvg:type="㇒" transform="matrix(1,0,0,1,696,-4)" xmlns:kvg="http://kanjivg.tagaini.net"></path><path class="stroke_order_diagram--existing_path" d="M37.68,66.79c3.25,3.95,5.74,13.11,6.49,16.69" id="Ske23elhy21" kvg:type="㇔" transform="matrix(1,0,0,1,696,-4)" xmlns:kvg="http://kanjivg.tagaini.net"></path><path class="stroke_order_diagram--existing_path" d="M51.01,44.08c1.21,1.21,1.31,2.44,1.43,4.43c0.52,8.71,0.79,22.29,1.26,37c0.07,2.23,0.15,4.49,0.23,6.76" id="Ske23elhy22" kvg:type="㇑" transform="matrix(1,0,0,1,696,-4)" xmlns:kvg="http://kanjivg.tagaini.net"></path><path class="stroke_order_diagram--current_path" d="M52.75,45.03c12.64-1.31,26.27-2.26,34.75-2.8c4.78-0.31,6.5,1.28,6.31,6.15c-0.32,7.99-1.23,23.92-2.65,35.49c-0.31,2.52-0.64,4.83-1,6.8" id="kvg:07d2c-s8" kvg:type="㇕a" transform="matrix(1,0,0,1,696,-4)" xmlns:kvg="http://kanjivg.tagaini.net"></path><path class="stroke_order_diagram--current_path" d="M52.75,45.03c12.64-1.31,26.27-2.26,34.75-2.8c4.78-0.31,6.5,1.28,6.31,6.15c-0.32,7.99-1.23,23.92-2.65,35.49c-0.31,2.52-0.64,4.83-1,6.8" id="Ske23elhy24" kvg:type="㇕a" transform="matrix(1,0,0,1,696,-4)" xmlns:kvg="http://kanjivg.tagaini.net"></path><circle class="stroke_order_diagram--path_start" cx="52.75" cy="45.03" r="4" transform="matrix(1,0,0,1,696,-4)"></circle><line class="stroke_order_diagram--guide_line" x1="850" x2="850" y1="1" y2="99"></line><line class="stroke_order_diagram--bounding_box" x1="899" x2="899" y1="1" y2="99"></line><path class="stroke_order_diagram--existing_path" d="M28.63,14.92c0.34,1.34,0.27,2.41-0.42,3.8c-3.2,6.4-6.49,12.15-10.88,17.21c-1.21,1.39-1.57,3.19,0.68,4.43c3.09,1.7,4.75,2.39,8.37,4.75" id="Ske23elhy27" kvg:type="㇜" transform="matrix(1,0,0,1,796,-4)" xmlns:kvg="http://kanjivg.tagaini.net"></path><path class="stroke_order_diagram--existing_path" d="M38.3,26.43c0.45,1.32,0.2,2.57-0.5,3.59c-6.17,9.02-13.12,18-20.87,26.05c-2.33,2.42-1.2,3.98,1.92,3.14c6.26-1.7,14.68-4,20.65-5.43" id="Ske23elhy28" kvg:type="㇜" transform="matrix(1,0,0,1,796,-4)" xmlns:kvg="http://kanjivg.tagaini.net"></path><path class="stroke_order_diagram--existing_path" d="M35.88,47.25c2.57,2.29,7.73,8.92,8.38,12.48" id="Ske23elhy29" kvg:type="㇔" transform="matrix(1,0,0,1,796,-4)" xmlns:kvg="http://kanjivg.tagaini.net"></path><path class="stroke_order_diagram--existing_path" d="M28.89,59.62c0.87,0.87,1.23,2.26,1.23,3.84c0,8-0.06,17.86-0.1,24.54C30.01,90.34,30,92.28,30,93.62" id="Ske23elhy2a" kvg:type="㇑" transform="matrix(1,0,0,1,796,-4)" xmlns:kvg="http://kanjivg.tagaini.net"></path><path class="stroke_order_diagram--existing_path" d="M19.86,68.6c0.14,0.96-0.14,2.61-0.39,3.3C17.5,77.25,14.5,84,11,88.93" id="Ske23elhy2b" kvg:type="㇒" transform="matrix(1,0,0,1,796,-4)" xmlns:kvg="http://kanjivg.tagaini.net"></path><path class="stroke_order_diagram--existing_path" d="M37.68,66.79c3.25,3.95,5.74,13.11,6.49,16.69" id="Ske23elhy2c" kvg:type="㇔" transform="matrix(1,0,0,1,796,-4)" xmlns:kvg="http://kanjivg.tagaini.net"></path><path class="stroke_order_diagram--existing_path" d="M51.01,44.08c1.21,1.21,1.31,2.44,1.43,4.43c0.52,8.71,0.79,22.29,1.26,37c0.07,2.23,0.15,4.49,0.23,6.76" id="Ske23elhy2d" kvg:type="㇑" transform="matrix(1,0,0,1,796,-4)" xmlns:kvg="http://kanjivg.tagaini.net"></path><path class="stroke_order_diagram--existing_path" d="M52.75,45.03c12.64-1.31,26.27-2.26,34.75-2.8c4.78-0.31,6.5,1.28,6.31,6.15c-0.32,7.99-1.23,23.92-2.65,35.49c-0.31,2.52-0.64,4.83-1,6.8" id="Ske23elhy2e" kvg:type="㇕a" transform="matrix(1,0,0,1,796,-4)" xmlns:kvg="http://kanjivg.tagaini.net"></path><path class="stroke_order_diagram--current_path" d="M68.84,15.82c1.21,1.13,1.93,2.77,1.93,4.26c0.04,14.74-0.02,63.94-0.02,67.79" id="kvg:07d2c-s9" kvg:type="㇑a" transform="matrix(1,0,0,1,796,-4)" xmlns:kvg="http://kanjivg.tagaini.net"></path><path class="stroke_order_diagram--current_path" d="M68.84,15.82c1.21,1.13,1.93,2.77,1.93,4.26c0.04,14.74-0.02,63.94-0.02,67.79" id="Ske23elhy2g" kvg:type="㇑a" transform="matrix(1,0,0,1,796,-4)" xmlns:kvg="http://kanjivg.tagaini.net"></path><circle class="stroke_order_diagram--path_start" cx="68.84" cy="15.82" r="4" transform="matrix(1,0,0,1,796,-4)"></circle><line class="stroke_order_diagram--guide_line" x1="950" x2="950" y1="1" y2="99"></line><line class="stroke_order_diagram--bounding_box" x1="999" x2="999" y1="1" y2="99"></line><path class="stroke_order_diagram--existing_path" d="M28.63,14.92c0.34,1.34,0.27,2.41-0.42,3.8c-3.2,6.4-6.49,12.15-10.88,17.21c-1.21,1.39-1.57,3.19,0.68,4.43c3.09,1.7,4.75,2.39,8.37,4.75" id="Ske23elhy2j" kvg:type="㇜" transform="matrix(1,0,0,1,896,-4)" xmlns:kvg="http://kanjivg.tagaini.net"></path><path class="stroke_order_diagram--existing_path" d="M38.3,26.43c0.45,1.32,0.2,2.57-0.5,3.59c-6.17,9.02-13.12,18-20.87,26.05c-2.33,2.42-1.2,3.98,1.92,3.14c6.26-1.7,14.68-4,20.65-5.43" id="Ske23elhy2k" kvg:type="㇜" transform="matrix(1,0,0,1,896,-4)" xmlns:kvg="http://kanjivg.tagaini.net"></path><path class="stroke_order_diagram--existing_path" d="M35.88,47.25c2.57,2.29,7.73,8.92,8.38,12.48" id="Ske23elhy2l" kvg:type="㇔" transform="matrix(1,0,0,1,896,-4)" xmlns:kvg="http://kanjivg.tagaini.net"></path><path class="stroke_order_diagram--existing_path" d="M28.89,59.62c0.87,0.87,1.23,2.26,1.23,3.84c0,8-0.06,17.86-0.1,24.54C30.01,90.34,30,92.28,30,93.62" id="Ske23elhy2m" kvg:type="㇑" transform="matrix(1,0,0,1,896,-4)" xmlns:kvg="http://kanjivg.tagaini.net"></path><path class="stroke_order_diagram--existing_path" d="M19.86,68.6c0.14,0.96-0.14,2.61-0.39,3.3C17.5,77.25,14.5,84,11,88.93" id="Ske23elhy2n" kvg:type="㇒" transform="matrix(1,0,0,1,896,-4)" xmlns:kvg="http://kanjivg.tagaini.net"></path><path class="stroke_order_diagram--existing_path" d="M37.68,66.79c3.25,3.95,5.74,13.11,6.49,16.69" id="Ske23elhy2o" kvg:type="㇔" transform="matrix(1,0,0,1,896,-4)" xmlns:kvg="http://kanjivg.tagaini.net"></path><path class="stroke_order_diagram--existing_path" d="M51.01,44.08c1.21,1.21,1.31,2.44,1.43,4.43c0.52,8.71,0.79,22.29,1.26,37c0.07,2.23,0.15,4.49,0.23,6.76" id="Ske23elhy2p" kvg:type="㇑" transform="matrix(1,0,0,1,896,-4)" xmlns:kvg="http://kanjivg.tagaini.net"></path><path class="stroke_order_diagram--existing_path" d="M52.75,45.03c12.64-1.31,26.27-2.26,34.75-2.8c4.78-0.31,6.5,1.28,6.31,6.15c-0.32,7.99-1.23,23.92-2.65,35.49c-0.31,2.52-0.64,4.83-1,6.8" id="Ske23elhy2q" kvg:type="㇕a" transform="matrix(1,0,0,1,896,-4)" xmlns:kvg="http://kanjivg.tagaini.net"></path><path class="stroke_order_diagram--existing_path" d="M68.84,15.82c1.21,1.13,1.93,2.77,1.93,4.26c0.04,14.74-0.02,63.94-0.02,67.79" id="Ske23elhy2r" kvg:type="㇑a" transform="matrix(1,0,0,1,896,-4)" xmlns:kvg="http://kanjivg.tagaini.net"></path><path class="stroke_order_diagram--current_path" d="M54.23,65.57C62,65,79.38,63.62,91.64,63.5" id="kvg:07d2c-s10" kvg:type="㇐a" transform="matrix(1,0,0,1,896,-4)" xmlns:kvg="http://kanjivg.tagaini.net"></path><path class="stroke_order_diagram--current_path" d="M54.23,65.57C62,65,79.38,63.62,91.64,63.5" id="Ske23elhy2t" kvg:type="㇐a" transform="matrix(1,0,0,1,896,-4)" xmlns:kvg="http://kanjivg.tagaini.net"></path><circle class="stroke_order_diagram--path_start" cx="54.23" cy="65.57" r="4" transform="matrix(1,0,0,1,896,-4)"></circle><line class="stroke_order_diagram--guide_line" x1="1050" x2="1050" y1="1" y2="99"></line><line class="stroke_order_diagram--bounding_box" x1="1099" x2="1099" y1="1" y2="99"></line><path class="stroke_order_diagram--existing_path" d="M28.63,14.92c0.34,1.34,0.27,2.41-0.42,3.8c-3.2,6.4-6.49,12.15-10.88,17.21c-1.21,1.39-1.57,3.19,0.68,4.43c3.09,1.7,4.75,2.39,8.37,4.75" id="Ske23elhy2w" kvg:type="㇜" transform="matrix(1,0,0,1,996,-4)" xmlns:kvg="http://kanjivg.tagaini.net"></path><path class="stroke_order_diagram--existing_path" d="M38.3,26.43c0.45,1.32,0.2,2.57-0.5,3.59c-6.17,9.02-13.12,18-20.87,26.05c-2.33,2.42-1.2,3.98,1.92,3.14c6.26-1.7,14.68-4,20.65-5.43" id="Ske23elhy2x" kvg:type="㇜" transform="matrix(1,0,0,1,996,-4)" xmlns:kvg="http://kanjivg.tagaini.net"></path><path class="stroke_order_diagram--existing_path" d="M35.88,47.25c2.57,2.29,7.73,8.92,8.38,12.48" id="Ske23elhy2y" kvg:type="㇔" transform="matrix(1,0,0,1,996,-4)" xmlns:kvg="http://kanjivg.tagaini.net"></path><path class="stroke_order_diagram--existing_path" d="M28.89,59.62c0.87,0.87,1.23,2.26,1.23,3.84c0,8-0.06,17.86-0.1,24.54C30.01,90.34,30,92.28,30,93.62" id="Ske23elhy2z" kvg:type="㇑" transform="matrix(1,0,0,1,996,-4)" xmlns:kvg="http://kanjivg.tagaini.net"></path><path class="stroke_order_diagram--existing_path" d="M19.86,68.6c0.14,0.96-0.14,2.61-0.39,3.3C17.5,77.25,14.5,84,11,88.93" id="Ske23elhy30" kvg:type="㇒" transform="matrix(1,0,0,1,996,-4)" xmlns:kvg="http://kanjivg.tagaini.net"></path><path class="stroke_order_diagram--existing_path" d="M37.68,66.79c3.25,3.95,5.74,13.11,6.49,16.69" id="Ske23elhy31" kvg:type="㇔" transform="matrix(1,0,0,1,996,-4)" xmlns:kvg="http://kanjivg.tagaini.net"></path><path class="stroke_order_diagram--existing_path" d="M51.01,44.08c1.21,1.21,1.31,2.44,1.43,4.43c0.52,8.71,0.79,22.29,1.26,37c0.07,2.23,0.15,4.49,0.23,6.76" id="Ske23elhy32" kvg:type="㇑" transform="matrix(1,0,0,1,996,-4)" xmlns:kvg="http://kanjivg.tagaini.net"></path><path class="stroke_order_diagram--existing_path" d="M52.75,45.03c12.64-1.31,26.27-2.26,34.75-2.8c4.78-0.31,6.5,1.28,6.31,6.15c-0.32,7.99-1.23,23.92-2.65,35.49c-0.31,2.52-0.64,4.83-1,6.8" id="Ske23elhy33" kvg:type="㇕a" transform="matrix(1,0,0,1,996,-4)" xmlns:kvg="http://kanjivg.tagaini.net"></path><path class="stroke_order_diagram--existing_path" d="M68.84,15.82c1.21,1.13,1.93,2.77,1.93,4.26c0.04,14.74-0.02,63.94-0.02,67.79" id="Ske23elhy34" kvg:type="㇑a" transform="matrix(1,0,0,1,996,-4)" xmlns:kvg="http://kanjivg.tagaini.net"></path><path class="stroke_order_diagram--existing_path" d="M54.23,65.57C62,65,79.38,63.62,91.64,63.5" id="Ske23elhy35" kvg:type="㇐a" transform="matrix(1,0,0,1,996,-4)" xmlns:kvg="http://kanjivg.tagaini.net"></path><path class="stroke_order_diagram--current_path" d="M54.99,89.65c9.15-0.24,21.39-1.03,34.26-0.93" id="kvg:07d2c-s11" kvg:type="㇐a" transform="matrix(1,0,0,1,996,-4)" xmlns:kvg="http://kanjivg.tagaini.net"></path><path class="stroke_order_diagram--current_path" d="M54.99,89.65c9.15-0.24,21.39-1.03,34.26-0.93" id="Ske23elhy37" kvg:type="㇐a" transform="matrix(1,0,0,1,996,-4)" xmlns:kvg="http://kanjivg.tagaini.net"></path><circle class="stroke_order_diagram--path_start" cx="54.99" cy="89.65" r="4" transform="matrix(1,0,0,1,996,-4)"></circle></svg>