<svg class="stroke_order_diagram--svg_container_for_518662b6d5dda79658001366" style="height: 100px; width: 1400px;" viewbox="0 0 1400 100"><desc>Created with Snap</desc><defs></defs><line class="stroke_order_diagram--bounding_box" x1="1" x2="1399" y1="1" y2="1"></line><line class="stroke_order_diagram--bounding_box" x1="1" x2="1" y1="1" y2="99"></line><line class="stroke_order_diagram--bounding_box" x1="1" x2="1399" y1="99" y2="99"></line><line class="stroke_order_diagram--guide_line" x1="0" x2="1400" y1="50" y2="50"></line><line class="stroke_order_diagram--guide_line" x1="50" x2="50" y1="1" y2="99"></line><line class="stroke_order_diagram--bounding_box" x1="99" x2="99" y1="1" y2="99"></line><path class="stroke_order_diagram--current_path" d="M14.88,14.12c0.62,0.2,2.42,0.22,3.04,0.2c6.46-0.24,17.54-1.59,25.37-2c1.03-0.05,2.32,0.09,2.84,0.19" id="kvg:07dae-s1" kvg:type="㇐" transform="matrix(1,0,0,1,-4,-4)" xmlns:kvg="http://kanjivg.tagaini.net"></path><path class="stroke_order_diagram--current_path" d="M14.88,14.12c0.62,0.2,2.42,0.22,3.04,0.2c6.46-0.24,17.54-1.59,25.37-2c1.03-0.05,2.32,0.09,2.84,0.19" id="Ske2txw73n" kvg:type="㇐" transform="matrix(1,0,0,1,-4,-4)" xmlns:kvg="http://kanjivg.tagaini.net"></path><circle class="stroke_order_diagram--path_start" cx="14.88" cy="14.12" r="4" transform="matrix(1,0,0,1,-4,-4)"></circle><line class="stroke_order_diagram--guide_line" x1="150" x2="150" y1="1" y2="99"></line><line class="stroke_order_diagram--bounding_box" x1="199" x2="199" y1="1" y2="99"></line><path class="stroke_order_diagram--existing_path" d="M14.88,14.12c0.62,0.2,2.42,0.22,3.04,0.2c6.46-0.24,17.54-1.59,25.37-2c1.03-0.05,2.32,0.09,2.84,0.19" id="Ske2txw73q" kvg:type="㇐" transform="matrix(1,0,0,1,96,-4)" xmlns:kvg="http://kanjivg.tagaini.net"></path><path class="stroke_order_diagram--current_path" d="M17.65,24.12c0.74,0.22,1.86,0.63,3.31,0.46c7.55-0.84,16.8-1.94,21.54-2.34c1.28-0.11,2.57,0.75,2.09,2.39c-0.85,2.91-1.12,5.09-2.25,10.02" id="kvg:07dae-s2" kvg:type="㇕c" transform="matrix(1,0,0,1,96,-4)" xmlns:kvg="http://kanjivg.tagaini.net"></path><path class="stroke_order_diagram--current_path" d="M17.65,24.12c0.74,0.22,1.86,0.63,3.31,0.46c7.55-0.84,16.8-1.94,21.54-2.34c1.28-0.11,2.57,0.75,2.09,2.39c-0.85,2.91-1.12,5.09-2.25,10.02" id="Ske2txw73s" kvg:type="㇕c" transform="matrix(1,0,0,1,96,-4)" xmlns:kvg="http://kanjivg.tagaini.net"></path><circle class="stroke_order_diagram--path_start" cx="17.65" cy="24.12" r="4" transform="matrix(1,0,0,1,96,-4)"></circle><line class="stroke_order_diagram--guide_line" x1="250" x2="250" y1="1" y2="99"></line><line class="stroke_order_diagram--bounding_box" x1="299" x2="299" y1="1" y2="99"></line><path class="stroke_order_diagram--existing_path" d="M14.88,14.12c0.62,0.2,2.42,0.22,3.04,0.2c6.46-0.24,17.54-1.59,25.37-2c1.03-0.05,2.32,0.09,2.84,0.19" id="Ske2txw73v" kvg:type="㇐" transform="matrix(1,0,0,1,196,-4)" xmlns:kvg="http://kanjivg.tagaini.net"></path><path class="stroke_order_diagram--existing_path" d="M17.65,24.12c0.74,0.22,1.86,0.63,3.31,0.46c7.55-0.84,16.8-1.94,21.54-2.34c1.28-0.11,2.57,0.75,2.09,2.39c-0.85,2.91-1.12,5.09-2.25,10.02" id="Ske2txw73w" kvg:type="㇕c" transform="matrix(1,0,0,1,196,-4)" xmlns:kvg="http://kanjivg.tagaini.net"></path><path class="stroke_order_diagram--current_path" d="M19.5,38.34c0.77,0,18.45-1.88,24.64-1.88" id="kvg:07dae-s3" kvg:type="㇐b" transform="matrix(1,0,0,1,196,-4)" xmlns:kvg="http://kanjivg.tagaini.net"></path><path class="stroke_order_diagram--current_path" d="M19.5,38.34c0.77,0,18.45-1.88,24.64-1.88" id="Ske2txw73y" kvg:type="㇐b" transform="matrix(1,0,0,1,196,-4)" xmlns:kvg="http://kanjivg.tagaini.net"></path><circle class="stroke_order_diagram--path_start" cx="19.5" cy="38.34" r="4" transform="matrix(1,0,0,1,196,-4)"></circle><line class="stroke_order_diagram--guide_line" x1="350" x2="350" y1="1" y2="99"></line><line class="stroke_order_diagram--bounding_box" x1="399" x2="399" y1="1" y2="99"></line><path class="stroke_order_diagram--existing_path" d="M14.88,14.12c0.62,0.2,2.42,0.22,3.04,0.2c6.46-0.24,17.54-1.59,25.37-2c1.03-0.05,2.32,0.09,2.84,0.19" id="Ske2txw7311" kvg:type="㇐" transform="matrix(1,0,0,1,296,-4)" xmlns:kvg="http://kanjivg.tagaini.net"></path><path class="stroke_order_diagram--existing_path" d="M17.65,24.12c0.74,0.22,1.86,0.63,3.31,0.46c7.55-0.84,16.8-1.94,21.54-2.34c1.28-0.11,2.57,0.75,2.09,2.39c-0.85,2.91-1.12,5.09-2.25,10.02" id="Ske2txw7312" kvg:type="㇕c" transform="matrix(1,0,0,1,296,-4)" xmlns:kvg="http://kanjivg.tagaini.net"></path><path class="stroke_order_diagram--existing_path" d="M19.5,38.34c0.77,0,18.45-1.88,24.64-1.88" id="Ske2txw7313" kvg:type="㇐b" transform="matrix(1,0,0,1,296,-4)" xmlns:kvg="http://kanjivg.tagaini.net"></path><path class="stroke_order_diagram--current_path" d="M19.57,25.25c0.03,0.78,0.2,1.43,0.21,2.56c0.08,14.15-3.44,24.89-10.02,29.94" id="kvg:07dae-s4" kvg:type="㇒" transform="matrix(1,0,0,1,296,-4)" xmlns:kvg="http://kanjivg.tagaini.net"></path><path class="stroke_order_diagram--current_path" d="M19.57,25.25c0.03,0.78,0.2,1.43,0.21,2.56c0.08,14.15-3.44,24.89-10.02,29.94" id="Ske2txw7315" kvg:type="㇒" transform="matrix(1,0,0,1,296,-4)" xmlns:kvg="http://kanjivg.tagaini.net"></path><circle class="stroke_order_diagram--path_start" cx="19.57" cy="25.25" r="4" transform="matrix(1,0,0,1,296,-4)"></circle><line class="stroke_order_diagram--guide_line" x1="450" x2="450" y1="1" y2="99"></line><line class="stroke_order_diagram--bounding_box" x1="499" x2="499" y1="1" y2="99"></line><path class="stroke_order_diagram--existing_path" d="M14.88,14.12c0.62,0.2,2.42,0.22,3.04,0.2c6.46-0.24,17.54-1.59,25.37-2c1.03-0.05,2.32,0.09,2.84,0.19" id="Ske2txw7318" kvg:type="㇐" transform="matrix(1,0,0,1,396,-4)" xmlns:kvg="http://kanjivg.tagaini.net"></path><path class="stroke_order_diagram--existing_path" d="M17.65,24.12c0.74,0.22,1.86,0.63,3.31,0.46c7.55-0.84,16.8-1.94,21.54-2.34c1.28-0.11,2.57,0.75,2.09,2.39c-0.85,2.91-1.12,5.09-2.25,10.02" id="Ske2txw7319" kvg:type="㇕c" transform="matrix(1,0,0,1,396,-4)" xmlns:kvg="http://kanjivg.tagaini.net"></path><path class="stroke_order_diagram--existing_path" d="M19.5,38.34c0.77,0,18.45-1.88,24.64-1.88" id="Ske2txw731a" kvg:type="㇐b" transform="matrix(1,0,0,1,396,-4)" xmlns:kvg="http://kanjivg.tagaini.net"></path><path class="stroke_order_diagram--existing_path" d="M19.57,25.25c0.03,0.78,0.2,1.43,0.21,2.56c0.08,14.15-3.44,24.89-10.02,29.94" id="Ske2txw731b" kvg:type="㇒" transform="matrix(1,0,0,1,396,-4)" xmlns:kvg="http://kanjivg.tagaini.net"></path><path class="stroke_order_diagram--current_path" d="M64.54,9.64c0.04,0.45,0.19,1.19-0.07,1.82C62.61,16.05,58.43,23.81,52,29.35" id="kvg:07dae-s5" kvg:type="㇒" transform="matrix(1,0,0,1,396,-4)" xmlns:kvg="http://kanjivg.tagaini.net"></path><path class="stroke_order_diagram--current_path" d="M64.54,9.64c0.04,0.45,0.19,1.19-0.07,1.82C62.61,16.05,58.43,23.81,52,29.35" id="Ske2txw731d" kvg:type="㇒" transform="matrix(1,0,0,1,396,-4)" xmlns:kvg="http://kanjivg.tagaini.net"></path><circle class="stroke_order_diagram--path_start" cx="64.54" cy="9.64" r="4" transform="matrix(1,0,0,1,396,-4)"></circle><line class="stroke_order_diagram--guide_line" x1="550" x2="550" y1="1" y2="99"></line><line class="stroke_order_diagram--bounding_box" x1="599" x2="599" y1="1" y2="99"></line><path class="stroke_order_diagram--existing_path" d="M14.88,14.12c0.62,0.2,2.42,0.22,3.04,0.2c6.46-0.24,17.54-1.59,25.37-2c1.03-0.05,2.32,0.09,2.84,0.19" id="Ske2txw731g" kvg:type="㇐" transform="matrix(1,0,0,1,496,-4)" xmlns:kvg="http://kanjivg.tagaini.net"></path><path class="stroke_order_diagram--existing_path" d="M17.65,24.12c0.74,0.22,1.86,0.63,3.31,0.46c7.55-0.84,16.8-1.94,21.54-2.34c1.28-0.11,2.57,0.75,2.09,2.39c-0.85,2.91-1.12,5.09-2.25,10.02" id="Ske2txw731h" kvg:type="㇕c" transform="matrix(1,0,0,1,496,-4)" xmlns:kvg="http://kanjivg.tagaini.net"></path><path class="stroke_order_diagram--existing_path" d="M19.5,38.34c0.77,0,18.45-1.88,24.64-1.88" id="Ske2txw731i" kvg:type="㇐b" transform="matrix(1,0,0,1,496,-4)" xmlns:kvg="http://kanjivg.tagaini.net"></path><path class="stroke_order_diagram--existing_path" d="M19.57,25.25c0.03,0.78,0.2,1.43,0.21,2.56c0.08,14.15-3.44,24.89-10.02,29.94" id="Ske2txw731j" kvg:type="㇒" transform="matrix(1,0,0,1,496,-4)" xmlns:kvg="http://kanjivg.tagaini.net"></path><path class="stroke_order_diagram--existing_path" d="M64.54,9.64c0.04,0.45,0.19,1.19-0.07,1.82C62.61,16.05,58.43,23.81,52,29.35" id="Ske2txw731k" kvg:type="㇒" transform="matrix(1,0,0,1,496,-4)" xmlns:kvg="http://kanjivg.tagaini.net"></path><path class="stroke_order_diagram--current_path" d="M63.02,20.88c0.97,0.02,2.75-0.2,3.27-0.25c5.38-0.55,13.68-2.13,21.89-2.97c0.92-0.1,1.49-0.12,1.73-0.1" id="kvg:07dae-s6" kvg:type="㇐" transform="matrix(1,0,0,1,496,-4)" xmlns:kvg="http://kanjivg.tagaini.net"></path><path class="stroke_order_diagram--current_path" d="M63.02,20.88c0.97,0.02,2.75-0.2,3.27-0.25c5.38-0.55,13.68-2.13,21.89-2.97c0.92-0.1,1.49-0.12,1.73-0.1" id="Ske2txw731m" kvg:type="㇐" transform="matrix(1,0,0,1,496,-4)" xmlns:kvg="http://kanjivg.tagaini.net"></path><circle class="stroke_order_diagram--path_start" cx="63.02" cy="20.88" r="4" transform="matrix(1,0,0,1,496,-4)"></circle><line class="stroke_order_diagram--guide_line" x1="650" x2="650" y1="1" y2="99"></line><line class="stroke_order_diagram--bounding_box" x1="699" x2="699" y1="1" y2="99"></line><path class="stroke_order_diagram--existing_path" d="M14.88,14.12c0.62,0.2,2.42,0.22,3.04,0.2c6.46-0.24,17.54-1.59,25.37-2c1.03-0.05,2.32,0.09,2.84,0.19" id="Ske2txw731p" kvg:type="㇐" transform="matrix(1,0,0,1,596,-4)" xmlns:kvg="http://kanjivg.tagaini.net"></path><path class="stroke_order_diagram--existing_path" d="M17.65,24.12c0.74,0.22,1.86,0.63,3.31,0.46c7.55-0.84,16.8-1.94,21.54-2.34c1.28-0.11,2.57,0.75,2.09,2.39c-0.85,2.91-1.12,5.09-2.25,10.02" id="Ske2txw731q" kvg:type="㇕c" transform="matrix(1,0,0,1,596,-4)" xmlns:kvg="http://kanjivg.tagaini.net"></path><path class="stroke_order_diagram--existing_path" d="M19.5,38.34c0.77,0,18.45-1.88,24.64-1.88" id="Ske2txw731r" kvg:type="㇐b" transform="matrix(1,0,0,1,596,-4)" xmlns:kvg="http://kanjivg.tagaini.net"></path><path class="stroke_order_diagram--existing_path" d="M19.57,25.25c0.03,0.78,0.2,1.43,0.21,2.56c0.08,14.15-3.44,24.89-10.02,29.94" id="Ske2txw731s" kvg:type="㇒" transform="matrix(1,0,0,1,596,-4)" xmlns:kvg="http://kanjivg.tagaini.net"></path><path class="stroke_order_diagram--existing_path" d="M64.54,9.64c0.04,0.45,0.19,1.19-0.07,1.82C62.61,16.05,58.43,23.81,52,29.35" id="Ske2txw731t" kvg:type="㇒" transform="matrix(1,0,0,1,596,-4)" xmlns:kvg="http://kanjivg.tagaini.net"></path><path class="stroke_order_diagram--existing_path" d="M63.02,20.88c0.97,0.02,2.75-0.2,3.27-0.25c5.38-0.55,13.68-2.13,21.89-2.97c0.92-0.1,1.49-0.12,1.73-0.1" id="Ske2txw731u" kvg:type="㇐" transform="matrix(1,0,0,1,596,-4)" xmlns:kvg="http://kanjivg.tagaini.net"></path><path class="stroke_order_diagram--current_path" d="M80.27,22c0.4,0.57,0.34,2.09-0.3,3.01C74.25,33.25,67,40,55.5,45.5" id="kvg:07dae-s7" kvg:type="㇒" transform="matrix(1,0,0,1,596,-4)" xmlns:kvg="http://kanjivg.tagaini.net"></path><path class="stroke_order_diagram--current_path" d="M80.27,22c0.4,0.57,0.34,2.09-0.3,3.01C74.25,33.25,67,40,55.5,45.5" id="Ske2txw731w" kvg:type="㇒" transform="matrix(1,0,0,1,596,-4)" xmlns:kvg="http://kanjivg.tagaini.net"></path><circle class="stroke_order_diagram--path_start" cx="80.27" cy="22" r="4" transform="matrix(1,0,0,1,596,-4)"></circle><line class="stroke_order_diagram--guide_line" x1="750" x2="750" y1="1" y2="99"></line><line class="stroke_order_diagram--bounding_box" x1="799" x2="799" y1="1" y2="99"></line><path class="stroke_order_diagram--existing_path" d="M14.88,14.12c0.62,0.2,2.42,0.22,3.04,0.2c6.46-0.24,17.54-1.59,25.37-2c1.03-0.05,2.32,0.09,2.84,0.19" id="Ske2txw731z" kvg:type="㇐" transform="matrix(1,0,0,1,696,-4)" xmlns:kvg="http://kanjivg.tagaini.net"></path><path class="stroke_order_diagram--existing_path" d="M17.65,24.12c0.74,0.22,1.86,0.63,3.31,0.46c7.55-0.84,16.8-1.94,21.54-2.34c1.28-0.11,2.57,0.75,2.09,2.39c-0.85,2.91-1.12,5.09-2.25,10.02" id="Ske2txw7320" kvg:type="㇕c" transform="matrix(1,0,0,1,696,-4)" xmlns:kvg="http://kanjivg.tagaini.net"></path><path class="stroke_order_diagram--existing_path" d="M19.5,38.34c0.77,0,18.45-1.88,24.64-1.88" id="Ske2txw7321" kvg:type="㇐b" transform="matrix(1,0,0,1,696,-4)" xmlns:kvg="http://kanjivg.tagaini.net"></path><path class="stroke_order_diagram--existing_path" d="M19.57,25.25c0.03,0.78,0.2,1.43,0.21,2.56c0.08,14.15-3.44,24.89-10.02,29.94" id="Ske2txw7322" kvg:type="㇒" transform="matrix(1,0,0,1,696,-4)" xmlns:kvg="http://kanjivg.tagaini.net"></path><path class="stroke_order_diagram--existing_path" d="M64.54,9.64c0.04,0.45,0.19,1.19-0.07,1.82C62.61,16.05,58.43,23.81,52,29.35" id="Ske2txw7323" kvg:type="㇒" transform="matrix(1,0,0,1,696,-4)" xmlns:kvg="http://kanjivg.tagaini.net"></path><path class="stroke_order_diagram--existing_path" d="M63.02,20.88c0.97,0.02,2.75-0.2,3.27-0.25c5.38-0.55,13.68-2.13,21.89-2.97c0.92-0.1,1.49-0.12,1.73-0.1" id="Ske2txw7324" kvg:type="㇐" transform="matrix(1,0,0,1,696,-4)" xmlns:kvg="http://kanjivg.tagaini.net"></path><path class="stroke_order_diagram--existing_path" d="M80.27,22c0.4,0.57,0.34,2.09-0.3,3.01C74.25,33.25,67,40,55.5,45.5" id="Ske2txw7325" kvg:type="㇒" transform="matrix(1,0,0,1,696,-4)" xmlns:kvg="http://kanjivg.tagaini.net"></path><path class="stroke_order_diagram--current_path" d="M57.58,26.32c7.04,4.88,19.99,14.32,29.4,18.95c1.73,0.85,3.57,1.42,5.02,1.5" id="kvg:07dae-s8" kvg:type="㇏" transform="matrix(1,0,0,1,696,-4)" xmlns:kvg="http://kanjivg.tagaini.net"></path><path class="stroke_order_diagram--current_path" d="M57.58,26.32c7.04,4.88,19.99,14.32,29.4,18.95c1.73,0.85,3.57,1.42,5.02,1.5" id="Ske2txw7327" kvg:type="㇏" transform="matrix(1,0,0,1,696,-4)" xmlns:kvg="http://kanjivg.tagaini.net"></path><circle class="stroke_order_diagram--path_start" cx="57.58" cy="26.32" r="4" transform="matrix(1,0,0,1,696,-4)"></circle><line class="stroke_order_diagram--guide_line" x1="850" x2="850" y1="1" y2="99"></line><line class="stroke_order_diagram--bounding_box" x1="899" x2="899" y1="1" y2="99"></line><path class="stroke_order_diagram--existing_path" d="M14.88,14.12c0.62,0.2,2.42,0.22,3.04,0.2c6.46-0.24,17.54-1.59,25.37-2c1.03-0.05,2.32,0.09,2.84,0.19" id="Ske2txw732a" kvg:type="㇐" transform="matrix(1,0,0,1,796,-4)" xmlns:kvg="http://kanjivg.tagaini.net"></path><path class="stroke_order_diagram--existing_path" d="M17.65,24.12c0.74,0.22,1.86,0.63,3.31,0.46c7.55-0.84,16.8-1.94,21.54-2.34c1.28-0.11,2.57,0.75,2.09,2.39c-0.85,2.91-1.12,5.09-2.25,10.02" id="Ske2txw732b" kvg:type="㇕c" transform="matrix(1,0,0,1,796,-4)" xmlns:kvg="http://kanjivg.tagaini.net"></path><path class="stroke_order_diagram--existing_path" d="M19.5,38.34c0.77,0,18.45-1.88,24.64-1.88" id="Ske2txw732c" kvg:type="㇐b" transform="matrix(1,0,0,1,796,-4)" xmlns:kvg="http://kanjivg.tagaini.net"></path><path class="stroke_order_diagram--existing_path" d="M19.57,25.25c0.03,0.78,0.2,1.43,0.21,2.56c0.08,14.15-3.44,24.89-10.02,29.94" id="Ske2txw732d" kvg:type="㇒" transform="matrix(1,0,0,1,796,-4)" xmlns:kvg="http://kanjivg.tagaini.net"></path><path class="stroke_order_diagram--existing_path" d="M64.54,9.64c0.04,0.45,0.19,1.19-0.07,1.82C62.61,16.05,58.43,23.81,52,29.35" id="Ske2txw732e" kvg:type="㇒" transform="matrix(1,0,0,1,796,-4)" xmlns:kvg="http://kanjivg.tagaini.net"></path><path class="stroke_order_diagram--existing_path" d="M63.02,20.88c0.97,0.02,2.75-0.2,3.27-0.25c5.38-0.55,13.68-2.13,21.89-2.97c0.92-0.1,1.49-0.12,1.73-0.1" id="Ske2txw732f" kvg:type="㇐" transform="matrix(1,0,0,1,796,-4)" xmlns:kvg="http://kanjivg.tagaini.net"></path><path class="stroke_order_diagram--existing_path" d="M80.27,22c0.4,0.57,0.34,2.09-0.3,3.01C74.25,33.25,67,40,55.5,45.5" id="Ske2txw732g" kvg:type="㇒" transform="matrix(1,0,0,1,796,-4)" xmlns:kvg="http://kanjivg.tagaini.net"></path><path class="stroke_order_diagram--existing_path" d="M57.58,26.32c7.04,4.88,19.99,14.32,29.4,18.95c1.73,0.85,3.57,1.42,5.02,1.5" id="Ske2txw732h" kvg:type="㇏" transform="matrix(1,0,0,1,796,-4)" xmlns:kvg="http://kanjivg.tagaini.net"></path><path class="stroke_order_diagram--current_path" d="M48.37,42.25c0.38,0.83-0.4,1.97-1.19,2.86c-3.45,3.88-9.36,9.93-13.2,11.87c-0.79,0.4-0.76,1.92,0,2.08c4.03,0.83,8.44,2.22,11.9,3.74" id="kvg:07dae-s9" kvg:type="㇜" transform="matrix(1,0,0,1,796,-4)" xmlns:kvg="http://kanjivg.tagaini.net"></path><path class="stroke_order_diagram--current_path" d="M48.37,42.25c0.38,0.83-0.4,1.97-1.19,2.86c-3.45,3.88-9.36,9.93-13.2,11.87c-0.79,0.4-0.76,1.92,0,2.08c4.03,0.83,8.44,2.22,11.9,3.74" id="Ske2txw732j" kvg:type="㇜" transform="matrix(1,0,0,1,796,-4)" xmlns:kvg="http://kanjivg.tagaini.net"></path><circle class="stroke_order_diagram--path_start" cx="48.37" cy="42.25" r="4" transform="matrix(1,0,0,1,796,-4)"></circle><line class="stroke_order_diagram--guide_line" x1="950" x2="950" y1="1" y2="99"></line><line class="stroke_order_diagram--bounding_box" x1="999" x2="999" y1="1" y2="99"></line><path class="stroke_order_diagram--existing_path" d="M14.88,14.12c0.62,0.2,2.42,0.22,3.04,0.2c6.46-0.24,17.54-1.59,25.37-2c1.03-0.05,2.32,0.09,2.84,0.19" id="Ske2txw732m" kvg:type="㇐" transform="matrix(1,0,0,1,896,-4)" xmlns:kvg="http://kanjivg.tagaini.net"></path><path class="stroke_order_diagram--existing_path" d="M17.65,24.12c0.74,0.22,1.86,0.63,3.31,0.46c7.55-0.84,16.8-1.94,21.54-2.34c1.28-0.11,2.57,0.75,2.09,2.39c-0.85,2.91-1.12,5.09-2.25,10.02" id="Ske2txw732n" kvg:type="㇕c" transform="matrix(1,0,0,1,896,-4)" xmlns:kvg="http://kanjivg.tagaini.net"></path><path class="stroke_order_diagram--existing_path" d="M19.5,38.34c0.77,0,18.45-1.88,24.64-1.88" id="Ske2txw732o" kvg:type="㇐b" transform="matrix(1,0,0,1,896,-4)" xmlns:kvg="http://kanjivg.tagaini.net"></path><path class="stroke_order_diagram--existing_path" d="M19.57,25.25c0.03,0.78,0.2,1.43,0.21,2.56c0.08,14.15-3.44,24.89-10.02,29.94" id="Ske2txw732p" kvg:type="㇒" transform="matrix(1,0,0,1,896,-4)" xmlns:kvg="http://kanjivg.tagaini.net"></path><path class="stroke_order_diagram--existing_path" d="M64.54,9.64c0.04,0.45,0.19,1.19-0.07,1.82C62.61,16.05,58.43,23.81,52,29.35" id="Ske2txw732q" kvg:type="㇒" transform="matrix(1,0,0,1,896,-4)" xmlns:kvg="http://kanjivg.tagaini.net"></path><path class="stroke_order_diagram--existing_path" d="M63.02,20.88c0.97,0.02,2.75-0.2,3.27-0.25c5.38-0.55,13.68-2.13,21.89-2.97c0.92-0.1,1.49-0.12,1.73-0.1" id="Ske2txw732r" kvg:type="㇐" transform="matrix(1,0,0,1,896,-4)" xmlns:kvg="http://kanjivg.tagaini.net"></path><path class="stroke_order_diagram--existing_path" d="M80.27,22c0.4,0.57,0.34,2.09-0.3,3.01C74.25,33.25,67,40,55.5,45.5" id="Ske2txw732s" kvg:type="㇒" transform="matrix(1,0,0,1,896,-4)" xmlns:kvg="http://kanjivg.tagaini.net"></path><path class="stroke_order_diagram--existing_path" d="M57.58,26.32c7.04,4.88,19.99,14.32,29.4,18.95c1.73,0.85,3.57,1.42,5.02,1.5" id="Ske2txw732t" kvg:type="㇏" transform="matrix(1,0,0,1,896,-4)" xmlns:kvg="http://kanjivg.tagaini.net"></path><path class="stroke_order_diagram--existing_path" d="M48.37,42.25c0.38,0.83-0.4,1.97-1.19,2.86c-3.45,3.88-9.36,9.93-13.2,11.87c-0.79,0.4-0.76,1.92,0,2.08c4.03,0.83,8.44,2.22,11.9,3.74" id="Ske2txw732u" kvg:type="㇜" transform="matrix(1,0,0,1,896,-4)" xmlns:kvg="http://kanjivg.tagaini.net"></path><path class="stroke_order_diagram--current_path" d="M64.97,48.33c0.03,1.17,0.2,2.23-0.49,2.7c-10.59,7.19-23.65,15.73-37.19,23.5c-1.63,0.94-0.98,1.47,0.99,1.17c8.24-1.23,40.89-6.03,51.48-7.2" id="kvg:07dae-s10" kvg:type="㇜" transform="matrix(1,0,0,1,896,-4)" xmlns:kvg="http://kanjivg.tagaini.net"></path><path class="stroke_order_diagram--current_path" d="M64.97,48.33c0.03,1.17,0.2,2.23-0.49,2.7c-10.59,7.19-23.65,15.73-37.19,23.5c-1.63,0.94-0.98,1.47,0.99,1.17c8.24-1.23,40.89-6.03,51.48-7.2" id="Ske2txw732w" kvg:type="㇜" transform="matrix(1,0,0,1,896,-4)" xmlns:kvg="http://kanjivg.tagaini.net"></path><circle class="stroke_order_diagram--path_start" cx="64.97" cy="48.33" r="4" transform="matrix(1,0,0,1,896,-4)"></circle><line class="stroke_order_diagram--guide_line" x1="1050" x2="1050" y1="1" y2="99"></line><line class="stroke_order_diagram--bounding_box" x1="1099" x2="1099" y1="1" y2="99"></line><path class="stroke_order_diagram--existing_path" d="M14.88,14.12c0.62,0.2,2.42,0.22,3.04,0.2c6.46-0.24,17.54-1.59,25.37-2c1.03-0.05,2.32,0.09,2.84,0.19" id="Ske2txw732z" kvg:type="㇐" transform="matrix(1,0,0,1,996,-4)" xmlns:kvg="http://kanjivg.tagaini.net"></path><path class="stroke_order_diagram--existing_path" d="M17.65,24.12c0.74,0.22,1.86,0.63,3.31,0.46c7.55-0.84,16.8-1.94,21.54-2.34c1.28-0.11,2.57,0.75,2.09,2.39c-0.85,2.91-1.12,5.09-2.25,10.02" id="Ske2txw7330" kvg:type="㇕c" transform="matrix(1,0,0,1,996,-4)" xmlns:kvg="http://kanjivg.tagaini.net"></path><path class="stroke_order_diagram--existing_path" d="M19.5,38.34c0.77,0,18.45-1.88,24.64-1.88" id="Ske2txw7331" kvg:type="㇐b" transform="matrix(1,0,0,1,996,-4)" xmlns:kvg="http://kanjivg.tagaini.net"></path><path class="stroke_order_diagram--existing_path" d="M19.57,25.25c0.03,0.78,0.2,1.43,0.21,2.56c0.08,14.15-3.44,24.89-10.02,29.94" id="Ske2txw7332" kvg:type="㇒" transform="matrix(1,0,0,1,996,-4)" xmlns:kvg="http://kanjivg.tagaini.net"></path><path class="stroke_order_diagram--existing_path" d="M64.54,9.64c0.04,0.45,0.19,1.19-0.07,1.82C62.61,16.05,58.43,23.81,52,29.35" id="Ske2txw7333" kvg:type="㇒" transform="matrix(1,0,0,1,996,-4)" xmlns:kvg="http://kanjivg.tagaini.net"></path><path class="stroke_order_diagram--existing_path" d="M63.02,20.88c0.97,0.02,2.75-0.2,3.27-0.25c5.38-0.55,13.68-2.13,21.89-2.97c0.92-0.1,1.49-0.12,1.73-0.1" id="Ske2txw7334" kvg:type="㇐" transform="matrix(1,0,0,1,996,-4)" xmlns:kvg="http://kanjivg.tagaini.net"></path><path class="stroke_order_diagram--existing_path" d="M80.27,22c0.4,0.57,0.34,2.09-0.3,3.01C74.25,33.25,67,40,55.5,45.5" id="Ske2txw7335" kvg:type="㇒" transform="matrix(1,0,0,1,996,-4)" xmlns:kvg="http://kanjivg.tagaini.net"></path><path class="stroke_order_diagram--existing_path" d="M57.58,26.32c7.04,4.88,19.99,14.32,29.4,18.95c1.73,0.85,3.57,1.42,5.02,1.5" id="Ske2txw7336" kvg:type="㇏" transform="matrix(1,0,0,1,996,-4)" xmlns:kvg="http://kanjivg.tagaini.net"></path><path class="stroke_order_diagram--existing_path" d="M48.37,42.25c0.38,0.83-0.4,1.97-1.19,2.86c-3.45,3.88-9.36,9.93-13.2,11.87c-0.79,0.4-0.76,1.92,0,2.08c4.03,0.83,8.44,2.22,11.9,3.74" id="Ske2txw7337" kvg:type="㇜" transform="matrix(1,0,0,1,996,-4)" xmlns:kvg="http://kanjivg.tagaini.net"></path><path class="stroke_order_diagram--existing_path" d="M64.97,48.33c0.03,1.17,0.2,2.23-0.49,2.7c-10.59,7.19-23.65,15.73-37.19,23.5c-1.63,0.94-0.98,1.47,0.99,1.17c8.24-1.23,40.89-6.03,51.48-7.2" id="Ske2txw7338" kvg:type="㇜" transform="matrix(1,0,0,1,996,-4)" xmlns:kvg="http://kanjivg.tagaini.net"></path><path class="stroke_order_diagram--current_path" d="M69.83,59.6c5.54,2.99,14.32,12.31,15.7,16.97" id="kvg:07dae-s11" kvg:type="㇔" transform="matrix(1,0,0,1,996,-4)" xmlns:kvg="http://kanjivg.tagaini.net"></path><path class="stroke_order_diagram--current_path" d="M69.83,59.6c5.54,2.99,14.32,12.31,15.7,16.97" id="Ske2txw733a" kvg:type="㇔" transform="matrix(1,0,0,1,996,-4)" xmlns:kvg="http://kanjivg.tagaini.net"></path><circle class="stroke_order_diagram--path_start" cx="69.83" cy="59.6" r="4" transform="matrix(1,0,0,1,996,-4)"></circle><line class="stroke_order_diagram--guide_line" x1="1150" x2="1150" y1="1" y2="99"></line><line class="stroke_order_diagram--bounding_box" x1="1199" x2="1199" y1="1" y2="99"></line><path class="stroke_order_diagram--existing_path" d="M14.88,14.12c0.62,0.2,2.42,0.22,3.04,0.2c6.46-0.24,17.54-1.59,25.37-2c1.03-0.05,2.32,0.09,2.84,0.19" id="Ske2txw733d" kvg:type="㇐" transform="matrix(1,0,0,1,1096,-4)" xmlns:kvg="http://kanjivg.tagaini.net"></path><path class="stroke_order_diagram--existing_path" d="M17.65,24.12c0.74,0.22,1.86,0.63,3.31,0.46c7.55-0.84,16.8-1.94,21.54-2.34c1.28-0.11,2.57,0.75,2.09,2.39c-0.85,2.91-1.12,5.09-2.25,10.02" id="Ske2txw733e" kvg:type="㇕c" transform="matrix(1,0,0,1,1096,-4)" xmlns:kvg="http://kanjivg.tagaini.net"></path><path class="stroke_order_diagram--existing_path" d="M19.5,38.34c0.77,0,18.45-1.88,24.64-1.88" id="Ske2txw733f" kvg:type="㇐b" transform="matrix(1,0,0,1,1096,-4)" xmlns:kvg="http://kanjivg.tagaini.net"></path><path class="stroke_order_diagram--existing_path" d="M19.57,25.25c0.03,0.78,0.2,1.43,0.21,2.56c0.08,14.15-3.44,24.89-10.02,29.94" id="Ske2txw733g" kvg:type="㇒" transform="matrix(1,0,0,1,1096,-4)" xmlns:kvg="http://kanjivg.tagaini.net"></path><path class="stroke_order_diagram--existing_path" d="M64.54,9.64c0.04,0.45,0.19,1.19-0.07,1.82C62.61,16.05,58.43,23.81,52,29.35" id="Ske2txw733h" kvg:type="㇒" transform="matrix(1,0,0,1,1096,-4)" xmlns:kvg="http://kanjivg.tagaini.net"></path><path class="stroke_order_diagram--existing_path" d="M63.02,20.88c0.97,0.02,2.75-0.2,3.27-0.25c5.38-0.55,13.68-2.13,21.89-2.97c0.92-0.1,1.49-0.12,1.73-0.1" id="Ske2txw733i" kvg:type="㇐" transform="matrix(1,0,0,1,1096,-4)" xmlns:kvg="http://kanjivg.tagaini.net"></path><path class="stroke_order_diagram--existing_path" d="M80.27,22c0.4,0.57,0.34,2.09-0.3,3.01C74.25,33.25,67,40,55.5,45.5" id="Ske2txw733j" kvg:type="㇒" transform="matrix(1,0,0,1,1096,-4)" xmlns:kvg="http://kanjivg.tagaini.net"></path><path class="stroke_order_diagram--existing_path" d="M57.58,26.32c7.04,4.88,19.99,14.32,29.4,18.95c1.73,0.85,3.57,1.42,5.02,1.5" id="Ske2txw733k" kvg:type="㇏" transform="matrix(1,0,0,1,1096,-4)" xmlns:kvg="http://kanjivg.tagaini.net"></path><path class="stroke_order_diagram--existing_path" d="M48.37,42.25c0.38,0.83-0.4,1.97-1.19,2.86c-3.45,3.88-9.36,9.93-13.2,11.87c-0.79,0.4-0.76,1.92,0,2.08c4.03,0.83,8.44,2.22,11.9,3.74" id="Ske2txw733l" kvg:type="㇜" transform="matrix(1,0,0,1,1096,-4)" xmlns:kvg="http://kanjivg.tagaini.net"></path><path class="stroke_order_diagram--existing_path" d="M64.97,48.33c0.03,1.17,0.2,2.23-0.49,2.7c-10.59,7.19-23.65,15.73-37.19,23.5c-1.63,0.94-0.98,1.47,0.99,1.17c8.24-1.23,40.89-6.03,51.48-7.2" id="Ske2txw733m" kvg:type="㇜" transform="matrix(1,0,0,1,1096,-4)" xmlns:kvg="http://kanjivg.tagaini.net"></path><path class="stroke_order_diagram--existing_path" d="M69.83,59.6c5.54,2.99,14.32,12.31,15.7,16.97" id="Ske2txw733n" kvg:type="㇔" transform="matrix(1,0,0,1,1096,-4)" xmlns:kvg="http://kanjivg.tagaini.net"></path><path class="stroke_order_diagram--current_path" d="M53.02,74.75c0.08,0.19,1.06,0.98,1.13,2.17c0.36,5.72-0.23,22.13-0.23,24.08" id="kvg:07dae-s12" kvg:type="㇑" transform="matrix(1,0,0,1,1096,-4)" xmlns:kvg="http://kanjivg.tagaini.net"></path><path class="stroke_order_diagram--current_path" d="M53.02,74.75c0.08,0.19,1.06,0.98,1.13,2.17c0.36,5.72-0.23,22.13-0.23,24.08" id="Ske2txw733p" kvg:type="㇑" transform="matrix(1,0,0,1,1096,-4)" xmlns:kvg="http://kanjivg.tagaini.net"></path><circle class="stroke_order_diagram--path_start" cx="53.02" cy="74.75" r="4" transform="matrix(1,0,0,1,1096,-4)"></circle><line class="stroke_order_diagram--guide_line" x1="1250" x2="1250" y1="1" y2="99"></line><line class="stroke_order_diagram--bounding_box" x1="1299" x2="1299" y1="1" y2="99"></line><path class="stroke_order_diagram--existing_path" d="M14.88,14.12c0.62,0.2,2.42,0.22,3.04,0.2c6.46-0.24,17.54-1.59,25.37-2c1.03-0.05,2.32,0.09,2.84,0.19" id="Ske2txw733s" kvg:type="㇐" transform="matrix(1,0,0,1,1196,-4)" xmlns:kvg="http://kanjivg.tagaini.net"></path><path class="stroke_order_diagram--existing_path" d="M17.65,24.12c0.74,0.22,1.86,0.63,3.31,0.46c7.55-0.84,16.8-1.94,21.54-2.34c1.28-0.11,2.57,0.75,2.09,2.39c-0.85,2.91-1.12,5.09-2.25,10.02" id="Ske2txw733t" kvg:type="㇕c" transform="matrix(1,0,0,1,1196,-4)" xmlns:kvg="http://kanjivg.tagaini.net"></path><path class="stroke_order_diagram--existing_path" d="M19.5,38.34c0.77,0,18.45-1.88,24.64-1.88" id="Ske2txw733u" kvg:type="㇐b" transform="matrix(1,0,0,1,1196,-4)" xmlns:kvg="http://kanjivg.tagaini.net"></path><path class="stroke_order_diagram--existing_path" d="M19.57,25.25c0.03,0.78,0.2,1.43,0.21,2.56c0.08,14.15-3.44,24.89-10.02,29.94" id="Ske2txw733v" kvg:type="㇒" transform="matrix(1,0,0,1,1196,-4)" xmlns:kvg="http://kanjivg.tagaini.net"></path><path class="stroke_order_diagram--existing_path" d="M64.54,9.64c0.04,0.45,0.19,1.19-0.07,1.82C62.61,16.05,58.43,23.81,52,29.35" id="Ske2txw733w" kvg:type="㇒" transform="matrix(1,0,0,1,1196,-4)" xmlns:kvg="http://kanjivg.tagaini.net"></path><path class="stroke_order_diagram--existing_path" d="M63.02,20.88c0.97,0.02,2.75-0.2,3.27-0.25c5.38-0.55,13.68-2.13,21.89-2.97c0.92-0.1,1.49-0.12,1.73-0.1" id="Ske2txw733x" kvg:type="㇐" transform="matrix(1,0,0,1,1196,-4)" xmlns:kvg="http://kanjivg.tagaini.net"></path><path class="stroke_order_diagram--existing_path" d="M80.27,22c0.4,0.57,0.34,2.09-0.3,3.01C74.25,33.25,67,40,55.5,45.5" id="Ske2txw733y" kvg:type="㇒" transform="matrix(1,0,0,1,1196,-4)" xmlns:kvg="http://kanjivg.tagaini.net"></path><path class="stroke_order_diagram--existing_path" d="M57.58,26.32c7.04,4.88,19.99,14.32,29.4,18.95c1.73,0.85,3.57,1.42,5.02,1.5" id="Ske2txw733z" kvg:type="㇏" transform="matrix(1,0,0,1,1196,-4)" xmlns:kvg="http://kanjivg.tagaini.net"></path><path class="stroke_order_diagram--existing_path" d="M48.37,42.25c0.38,0.83-0.4,1.97-1.19,2.86c-3.45,3.88-9.36,9.93-13.2,11.87c-0.79,0.4-0.76,1.92,0,2.08c4.03,0.83,8.44,2.22,11.9,3.74" id="Ske2txw7340" kvg:type="㇜" transform="matrix(1,0,0,1,1196,-4)" xmlns:kvg="http://kanjivg.tagaini.net"></path><path class="stroke_order_diagram--existing_path" d="M64.97,48.33c0.03,1.17,0.2,2.23-0.49,2.7c-10.59,7.19-23.65,15.73-37.19,23.5c-1.63,0.94-0.98,1.47,0.99,1.17c8.24-1.23,40.89-6.03,51.48-7.2" id="Ske2txw7341" kvg:type="㇜" transform="matrix(1,0,0,1,1196,-4)" xmlns:kvg="http://kanjivg.tagaini.net"></path><path class="stroke_order_diagram--existing_path" d="M69.83,59.6c5.54,2.99,14.32,12.31,15.7,16.97" id="Ske2txw7342" kvg:type="㇔" transform="matrix(1,0,0,1,1196,-4)" xmlns:kvg="http://kanjivg.tagaini.net"></path><path class="stroke_order_diagram--existing_path" d="M53.02,74.75c0.08,0.19,1.06,0.98,1.13,2.17c0.36,5.72-0.23,22.13-0.23,24.08" id="Ske2txw7343" kvg:type="㇑" transform="matrix(1,0,0,1,1196,-4)" xmlns:kvg="http://kanjivg.tagaini.net"></path><path class="stroke_order_diagram--current_path" d="M39.17,81.37c0.33,0.75-0.23,3.23-0.83,3.77c-3.91,3.51-13.18,10.29-18.72,13.31" id="kvg:07dae-s13" kvg:type="㇒" transform="matrix(1,0,0,1,1196,-4)" xmlns:kvg="http://kanjivg.tagaini.net"></path><path class="stroke_order_diagram--current_path" d="M39.17,81.37c0.33,0.75-0.23,3.23-0.83,3.77c-3.91,3.51-13.18,10.29-18.72,13.31" id="Ske2txw7345" kvg:type="㇒" transform="matrix(1,0,0,1,1196,-4)" xmlns:kvg="http://kanjivg.tagaini.net"></path><circle class="stroke_order_diagram--path_start" cx="39.17" cy="81.37" r="4" transform="matrix(1,0,0,1,1196,-4)"></circle><line class="stroke_order_diagram--guide_line" x1="1350" x2="1350" y1="1" y2="99"></line><line class="stroke_order_diagram--bounding_box" x1="1399" x2="1399" y1="1" y2="99"></line><path class="stroke_order_diagram--existing_path" d="M14.88,14.12c0.62,0.2,2.42,0.22,3.04,0.2c6.46-0.24,17.54-1.59,25.37-2c1.03-0.05,2.32,0.09,2.84,0.19" id="Ske2txw7348" kvg:type="㇐" transform="matrix(1,0,0,1,1296,-4)" xmlns:kvg="http://kanjivg.tagaini.net"></path><path class="stroke_order_diagram--existing_path" d="M17.65,24.12c0.74,0.22,1.86,0.63,3.31,0.46c7.55-0.84,16.8-1.94,21.54-2.34c1.28-0.11,2.57,0.75,2.09,2.39c-0.85,2.91-1.12,5.09-2.25,10.02" id="Ske2txw7349" kvg:type="㇕c" transform="matrix(1,0,0,1,1296,-4)" xmlns:kvg="http://kanjivg.tagaini.net"></path><path class="stroke_order_diagram--existing_path" d="M19.5,38.34c0.77,0,18.45-1.88,24.64-1.88" id="Ske2txw734a" kvg:type="㇐b" transform="matrix(1,0,0,1,1296,-4)" xmlns:kvg="http://kanjivg.tagaini.net"></path><path class="stroke_order_diagram--existing_path" d="M19.57,25.25c0.03,0.78,0.2,1.43,0.21,2.56c0.08,14.15-3.44,24.89-10.02,29.94" id="Ske2txw734b" kvg:type="㇒" transform="matrix(1,0,0,1,1296,-4)" xmlns:kvg="http://kanjivg.tagaini.net"></path><path class="stroke_order_diagram--existing_path" d="M64.54,9.64c0.04,0.45,0.19,1.19-0.07,1.82C62.61,16.05,58.43,23.81,52,29.35" id="Ske2txw734c" kvg:type="㇒" transform="matrix(1,0,0,1,1296,-4)" xmlns:kvg="http://kanjivg.tagaini.net"></path><path class="stroke_order_diagram--existing_path" d="M63.02,20.88c0.97,0.02,2.75-0.2,3.27-0.25c5.38-0.55,13.68-2.13,21.89-2.97c0.92-0.1,1.49-0.12,1.73-0.1" id="Ske2txw734d" kvg:type="㇐" transform="matrix(1,0,0,1,1296,-4)" xmlns:kvg="http://kanjivg.tagaini.net"></path><path class="stroke_order_diagram--existing_path" d="M80.27,22c0.4,0.57,0.34,2.09-0.3,3.01C74.25,33.25,67,40,55.5,45.5" id="Ske2txw734e" kvg:type="㇒" transform="matrix(1,0,0,1,1296,-4)" xmlns:kvg="http://kanjivg.tagaini.net"></path><path class="stroke_order_diagram--existing_path" d="M57.58,26.32c7.04,4.88,19.99,14.32,29.4,18.95c1.73,0.85,3.57,1.42,5.02,1.5" id="Ske2txw734f" kvg:type="㇏" transform="matrix(1,0,0,1,1296,-4)" xmlns:kvg="http://kanjivg.tagaini.net"></path><path class="stroke_order_diagram--existing_path" d="M48.37,42.25c0.38,0.83-0.4,1.97-1.19,2.86c-3.45,3.88-9.36,9.93-13.2,11.87c-0.79,0.4-0.76,1.92,0,2.08c4.03,0.83,8.44,2.22,11.9,3.74" id="Ske2txw734g" kvg:type="㇜" transform="matrix(1,0,0,1,1296,-4)" xmlns:kvg="http://kanjivg.tagaini.net"></path><path class="stroke_order_diagram--existing_path" d="M64.97,48.33c0.03,1.17,0.2,2.23-0.49,2.7c-10.59,7.19-23.65,15.73-37.19,23.5c-1.63,0.94-0.98,1.47,0.99,1.17c8.24-1.23,40.89-6.03,51.48-7.2" id="Ske2txw734h" kvg:type="㇜" transform="matrix(1,0,0,1,1296,-4)" xmlns:kvg="http://kanjivg.tagaini.net"></path><path class="stroke_order_diagram--existing_path" d="M69.83,59.6c5.54,2.99,14.32,12.31,15.7,16.97" id="Ske2txw734i" kvg:type="㇔" transform="matrix(1,0,0,1,1296,-4)" xmlns:kvg="http://kanjivg.tagaini.net"></path><path class="stroke_order_diagram--existing_path" d="M53.02,74.75c0.08,0.19,1.06,0.98,1.13,2.17c0.36,5.72-0.23,22.13-0.23,24.08" id="Ske2txw734j" kvg:type="㇑" transform="matrix(1,0,0,1,1296,-4)" xmlns:kvg="http://kanjivg.tagaini.net"></path><path class="stroke_order_diagram--existing_path" d="M39.17,81.37c0.33,0.75-0.23,3.23-0.83,3.77c-3.91,3.51-13.18,10.29-18.72,13.31" id="Ske2txw734k" kvg:type="㇒" transform="matrix(1,0,0,1,1296,-4)" xmlns:kvg="http://kanjivg.tagaini.net"></path><path class="stroke_order_diagram--current_path" d="M66,80.75c6.27,3.32,17.01,12.18,19.25,15.5" id="kvg:07dae-s14" kvg:type="㇔" transform="matrix(1,0,0,1,1296,-4)" xmlns:kvg="http://kanjivg.tagaini.net"></path><path class="stroke_order_diagram--current_path" d="M66,80.75c6.27,3.32,17.01,12.18,19.25,15.5" id="Ske2txw734m" kvg:type="㇔" transform="matrix(1,0,0,1,1296,-4)" xmlns:kvg="http://kanjivg.tagaini.net"></path><circle class="stroke_order_diagram--path_start" cx="66" cy="80.75" r="4" transform="matrix(1,0,0,1,1296,-4)"></circle></svg>