<svg class="stroke_order_diagram--svg_container_for_518662b6d5dda79658001372" style="height: 100px; width: 1400px;" viewbox="0 0 1400 100"><desc>Created with Snap</desc><defs></defs><line class="stroke_order_diagram--bounding_box" x1="1" x2="1399" y1="1" y2="1"></line><line class="stroke_order_diagram--bounding_box" x1="1" x2="1" y1="1" y2="99"></line><line class="stroke_order_diagram--bounding_box" x1="1" x2="1399" y1="99" y2="99"></line><line class="stroke_order_diagram--guide_line" x1="0" x2="1400" y1="50" y2="50"></line><line class="stroke_order_diagram--guide_line" x1="50" x2="50" y1="1" y2="99"></line><line class="stroke_order_diagram--bounding_box" x1="99" x2="99" y1="1" y2="99"></line><path class="stroke_order_diagram--current_path" d="M27.15,12.67c0.35,1.36,0.36,2.37-0.18,3.86c-2.38,6.55-6.66,14.03-11.31,19.27c-0.64,0.72-0.7,3.15,0,3.41c3.68,1.36,8.32,2.66,11.47,5.15" id="kvg:07db0-s1" kvg:type="㇜" transform="matrix(1,0,0,1,-4,-4)" xmlns:kvg="http://kanjivg.tagaini.net"></path><path class="stroke_order_diagram--current_path" d="M27.15,12.67c0.35,1.36,0.36,2.37-0.18,3.86c-2.38,6.55-6.66,14.03-11.31,19.27c-0.64,0.72-0.7,3.15,0,3.41c3.68,1.36,8.32,2.66,11.47,5.15" id="Ske2u1fien" kvg:type="㇜" transform="matrix(1,0,0,1,-4,-4)" xmlns:kvg="http://kanjivg.tagaini.net"></path><circle class="stroke_order_diagram--path_start" cx="27.15" cy="12.67" r="4" transform="matrix(1,0,0,1,-4,-4)"></circle><line class="stroke_order_diagram--guide_line" x1="150" x2="150" y1="1" y2="99"></line><line class="stroke_order_diagram--bounding_box" x1="199" x2="199" y1="1" y2="99"></line><path class="stroke_order_diagram--existing_path" d="M27.15,12.67c0.35,1.36,0.36,2.37-0.18,3.86c-2.38,6.55-6.66,14.03-11.31,19.27c-0.64,0.72-0.7,3.15,0,3.41c3.68,1.36,8.32,2.66,11.47,5.15" id="Ske2u1fieq" kvg:type="㇜" transform="matrix(1,0,0,1,96,-4)" xmlns:kvg="http://kanjivg.tagaini.net"></path><path class="stroke_order_diagram--current_path" d="M37.65,25.93c0.28,0.57,0.35,2.41,0,3.02c-5.41,9.53-14.43,22.22-21.88,30.31c-1.71,1.86,0.42,2.92,1.54,2.54c4.66-1.58,15.72-4.4,21.7-5.91" id="kvg:07db0-s2" kvg:type="㇜" transform="matrix(1,0,0,1,96,-4)" xmlns:kvg="http://kanjivg.tagaini.net"></path><path class="stroke_order_diagram--current_path" d="M37.65,25.93c0.28,0.57,0.35,2.41,0,3.02c-5.41,9.53-14.43,22.22-21.88,30.31c-1.71,1.86,0.42,2.92,1.54,2.54c4.66-1.58,15.72-4.4,21.7-5.91" id="Ske2u1fies" kvg:type="㇜" transform="matrix(1,0,0,1,96,-4)" xmlns:kvg="http://kanjivg.tagaini.net"></path><circle class="stroke_order_diagram--path_start" cx="37.65" cy="25.93" r="4" transform="matrix(1,0,0,1,96,-4)"></circle><line class="stroke_order_diagram--guide_line" x1="250" x2="250" y1="1" y2="99"></line><line class="stroke_order_diagram--bounding_box" x1="299" x2="299" y1="1" y2="99"></line><path class="stroke_order_diagram--existing_path" d="M27.15,12.67c0.35,1.36,0.36,2.37-0.18,3.86c-2.38,6.55-6.66,14.03-11.31,19.27c-0.64,0.72-0.7,3.15,0,3.41c3.68,1.36,8.32,2.66,11.47,5.15" id="Ske2u1fiev" kvg:type="㇜" transform="matrix(1,0,0,1,196,-4)" xmlns:kvg="http://kanjivg.tagaini.net"></path><path class="stroke_order_diagram--existing_path" d="M37.65,25.93c0.28,0.57,0.35,2.41,0,3.02c-5.41,9.53-14.43,22.22-21.88,30.31c-1.71,1.86,0.42,2.92,1.54,2.54c4.66-1.58,15.72-4.4,21.7-5.91" id="Ske2u1fiew" kvg:type="㇜" transform="matrix(1,0,0,1,196,-4)" xmlns:kvg="http://kanjivg.tagaini.net"></path><path class="stroke_order_diagram--current_path" d="M34.13,48.88c2.95,2.36,7.63,9.69,8.37,13.35" id="kvg:07db0-s3" kvg:type="㇔" transform="matrix(1,0,0,1,196,-4)" xmlns:kvg="http://kanjivg.tagaini.net"></path><path class="stroke_order_diagram--current_path" d="M34.13,48.88c2.95,2.36,7.63,9.69,8.37,13.35" id="Ske2u1fiey" kvg:type="㇔" transform="matrix(1,0,0,1,196,-4)" xmlns:kvg="http://kanjivg.tagaini.net"></path><circle class="stroke_order_diagram--path_start" cx="34.13" cy="48.88" r="4" transform="matrix(1,0,0,1,196,-4)"></circle><line class="stroke_order_diagram--guide_line" x1="350" x2="350" y1="1" y2="99"></line><line class="stroke_order_diagram--bounding_box" x1="399" x2="399" y1="1" y2="99"></line><path class="stroke_order_diagram--existing_path" d="M27.15,12.67c0.35,1.36,0.36,2.37-0.18,3.86c-2.38,6.55-6.66,14.03-11.31,19.27c-0.64,0.72-0.7,3.15,0,3.41c3.68,1.36,8.32,2.66,11.47,5.15" id="Ske2u1fie11" kvg:type="㇜" transform="matrix(1,0,0,1,296,-4)" xmlns:kvg="http://kanjivg.tagaini.net"></path><path class="stroke_order_diagram--existing_path" d="M37.65,25.93c0.28,0.57,0.35,2.41,0,3.02c-5.41,9.53-14.43,22.22-21.88,30.31c-1.71,1.86,0.42,2.92,1.54,2.54c4.66-1.58,15.72-4.4,21.7-5.91" id="Ske2u1fie12" kvg:type="㇜" transform="matrix(1,0,0,1,296,-4)" xmlns:kvg="http://kanjivg.tagaini.net"></path><path class="stroke_order_diagram--existing_path" d="M34.13,48.88c2.95,2.36,7.63,9.69,8.37,13.35" id="Ske2u1fie13" kvg:type="㇔" transform="matrix(1,0,0,1,296,-4)" xmlns:kvg="http://kanjivg.tagaini.net"></path><path class="stroke_order_diagram--current_path" d="M27.89,60.62c0.07,0.36,0.91,1.85,0.98,4.09c0.31,10.79-0.2,28.79-0.2,32.46" id="kvg:07db0-s4" kvg:type="㇑" transform="matrix(1,0,0,1,296,-4)" xmlns:kvg="http://kanjivg.tagaini.net"></path><path class="stroke_order_diagram--current_path" d="M27.89,60.62c0.07,0.36,0.91,1.85,0.98,4.09c0.31,10.79-0.2,28.79-0.2,32.46" id="Ske2u1fie15" kvg:type="㇑" transform="matrix(1,0,0,1,296,-4)" xmlns:kvg="http://kanjivg.tagaini.net"></path><circle class="stroke_order_diagram--path_start" cx="27.89" cy="60.62" r="4" transform="matrix(1,0,0,1,296,-4)"></circle><line class="stroke_order_diagram--guide_line" x1="450" x2="450" y1="1" y2="99"></line><line class="stroke_order_diagram--bounding_box" x1="499" x2="499" y1="1" y2="99"></line><path class="stroke_order_diagram--existing_path" d="M27.15,12.67c0.35,1.36,0.36,2.37-0.18,3.86c-2.38,6.55-6.66,14.03-11.31,19.27c-0.64,0.72-0.7,3.15,0,3.41c3.68,1.36,8.32,2.66,11.47,5.15" id="Ske2u1fie18" kvg:type="㇜" transform="matrix(1,0,0,1,396,-4)" xmlns:kvg="http://kanjivg.tagaini.net"></path><path class="stroke_order_diagram--existing_path" d="M37.65,25.93c0.28,0.57,0.35,2.41,0,3.02c-5.41,9.53-14.43,22.22-21.88,30.31c-1.71,1.86,0.42,2.92,1.54,2.54c4.66-1.58,15.72-4.4,21.7-5.91" id="Ske2u1fie19" kvg:type="㇜" transform="matrix(1,0,0,1,396,-4)" xmlns:kvg="http://kanjivg.tagaini.net"></path><path class="stroke_order_diagram--existing_path" d="M34.13,48.88c2.95,2.36,7.63,9.69,8.37,13.35" id="Ske2u1fie1a" kvg:type="㇔" transform="matrix(1,0,0,1,396,-4)" xmlns:kvg="http://kanjivg.tagaini.net"></path><path class="stroke_order_diagram--existing_path" d="M27.89,60.62c0.07,0.36,0.91,1.85,0.98,4.09c0.31,10.79-0.2,28.79-0.2,32.46" id="Ske2u1fie1b" kvg:type="㇑" transform="matrix(1,0,0,1,396,-4)" xmlns:kvg="http://kanjivg.tagaini.net"></path><path class="stroke_order_diagram--current_path" d="M18.59,72.35c0.17,0.88,0.15,2.63-0.17,3.26c-2.07,4.13-7.24,12.1-10.17,15.64" id="kvg:07db0-s5" kvg:type="㇒" transform="matrix(1,0,0,1,396,-4)" xmlns:kvg="http://kanjivg.tagaini.net"></path><path class="stroke_order_diagram--current_path" d="M18.59,72.35c0.17,0.88,0.15,2.63-0.17,3.26c-2.07,4.13-7.24,12.1-10.17,15.64" id="Ske2u1fie1d" kvg:type="㇒" transform="matrix(1,0,0,1,396,-4)" xmlns:kvg="http://kanjivg.tagaini.net"></path><circle class="stroke_order_diagram--path_start" cx="18.59" cy="72.35" r="4" transform="matrix(1,0,0,1,396,-4)"></circle><line class="stroke_order_diagram--guide_line" x1="550" x2="550" y1="1" y2="99"></line><line class="stroke_order_diagram--bounding_box" x1="599" x2="599" y1="1" y2="99"></line><path class="stroke_order_diagram--existing_path" d="M27.15,12.67c0.35,1.36,0.36,2.37-0.18,3.86c-2.38,6.55-6.66,14.03-11.31,19.27c-0.64,0.72-0.7,3.15,0,3.41c3.68,1.36,8.32,2.66,11.47,5.15" id="Ske2u1fie1g" kvg:type="㇜" transform="matrix(1,0,0,1,496,-4)" xmlns:kvg="http://kanjivg.tagaini.net"></path><path class="stroke_order_diagram--existing_path" d="M37.65,25.93c0.28,0.57,0.35,2.41,0,3.02c-5.41,9.53-14.43,22.22-21.88,30.31c-1.71,1.86,0.42,2.92,1.54,2.54c4.66-1.58,15.72-4.4,21.7-5.91" id="Ske2u1fie1h" kvg:type="㇜" transform="matrix(1,0,0,1,496,-4)" xmlns:kvg="http://kanjivg.tagaini.net"></path><path class="stroke_order_diagram--existing_path" d="M34.13,48.88c2.95,2.36,7.63,9.69,8.37,13.35" id="Ske2u1fie1i" kvg:type="㇔" transform="matrix(1,0,0,1,496,-4)" xmlns:kvg="http://kanjivg.tagaini.net"></path><path class="stroke_order_diagram--existing_path" d="M27.89,60.62c0.07,0.36,0.91,1.85,0.98,4.09c0.31,10.79-0.2,28.79-0.2,32.46" id="Ske2u1fie1j" kvg:type="㇑" transform="matrix(1,0,0,1,496,-4)" xmlns:kvg="http://kanjivg.tagaini.net"></path><path class="stroke_order_diagram--existing_path" d="M18.59,72.35c0.17,0.88,0.15,2.63-0.17,3.26c-2.07,4.13-7.24,12.1-10.17,15.64" id="Ske2u1fie1k" kvg:type="㇒" transform="matrix(1,0,0,1,496,-4)" xmlns:kvg="http://kanjivg.tagaini.net"></path><path class="stroke_order_diagram--current_path" d="M36.43,70.29c4.03,3.6,7.13,11.95,8.07,15.21" id="kvg:07db0-s6" kvg:type="㇔" transform="matrix(1,0,0,1,496,-4)" xmlns:kvg="http://kanjivg.tagaini.net"></path><path class="stroke_order_diagram--current_path" d="M36.43,70.29c4.03,3.6,7.13,11.95,8.07,15.21" id="Ske2u1fie1m" kvg:type="㇔" transform="matrix(1,0,0,1,496,-4)" xmlns:kvg="http://kanjivg.tagaini.net"></path><circle class="stroke_order_diagram--path_start" cx="36.43" cy="70.29" r="4" transform="matrix(1,0,0,1,496,-4)"></circle><line class="stroke_order_diagram--guide_line" x1="650" x2="650" y1="1" y2="99"></line><line class="stroke_order_diagram--bounding_box" x1="699" x2="699" y1="1" y2="99"></line><path class="stroke_order_diagram--existing_path" d="M27.15,12.67c0.35,1.36,0.36,2.37-0.18,3.86c-2.38,6.55-6.66,14.03-11.31,19.27c-0.64,0.72-0.7,3.15,0,3.41c3.68,1.36,8.32,2.66,11.47,5.15" id="Ske2u1fie1p" kvg:type="㇜" transform="matrix(1,0,0,1,596,-4)" xmlns:kvg="http://kanjivg.tagaini.net"></path><path class="stroke_order_diagram--existing_path" d="M37.65,25.93c0.28,0.57,0.35,2.41,0,3.02c-5.41,9.53-14.43,22.22-21.88,30.31c-1.71,1.86,0.42,2.92,1.54,2.54c4.66-1.58,15.72-4.4,21.7-5.91" id="Ske2u1fie1q" kvg:type="㇜" transform="matrix(1,0,0,1,596,-4)" xmlns:kvg="http://kanjivg.tagaini.net"></path><path class="stroke_order_diagram--existing_path" d="M34.13,48.88c2.95,2.36,7.63,9.69,8.37,13.35" id="Ske2u1fie1r" kvg:type="㇔" transform="matrix(1,0,0,1,596,-4)" xmlns:kvg="http://kanjivg.tagaini.net"></path><path class="stroke_order_diagram--existing_path" d="M27.89,60.62c0.07,0.36,0.91,1.85,0.98,4.09c0.31,10.79-0.2,28.79-0.2,32.46" id="Ske2u1fie1s" kvg:type="㇑" transform="matrix(1,0,0,1,596,-4)" xmlns:kvg="http://kanjivg.tagaini.net"></path><path class="stroke_order_diagram--existing_path" d="M18.59,72.35c0.17,0.88,0.15,2.63-0.17,3.26c-2.07,4.13-7.24,12.1-10.17,15.64" id="Ske2u1fie1t" kvg:type="㇒" transform="matrix(1,0,0,1,596,-4)" xmlns:kvg="http://kanjivg.tagaini.net"></path><path class="stroke_order_diagram--existing_path" d="M36.43,70.29c4.03,3.6,7.13,11.95,8.07,15.21" id="Ske2u1fie1u" kvg:type="㇔" transform="matrix(1,0,0,1,596,-4)" xmlns:kvg="http://kanjivg.tagaini.net"></path><path class="stroke_order_diagram--current_path" d="M67.49,12.04c0.73,0.29,1.77,1.53,1.76,2.36c-0.05,2.62-0.05,7.43-0.06,9.81" id="kvg:07db0-s7" kvg:type="㇑a" transform="matrix(1,0,0,1,596,-4)" xmlns:kvg="http://kanjivg.tagaini.net"></path><path class="stroke_order_diagram--current_path" d="M67.49,12.04c0.73,0.29,1.77,1.53,1.76,2.36c-0.05,2.62-0.05,7.43-0.06,9.81" id="Ske2u1fie1w" kvg:type="㇑a" transform="matrix(1,0,0,1,596,-4)" xmlns:kvg="http://kanjivg.tagaini.net"></path><circle class="stroke_order_diagram--path_start" cx="67.49" cy="12.04" r="4" transform="matrix(1,0,0,1,596,-4)"></circle><line class="stroke_order_diagram--guide_line" x1="750" x2="750" y1="1" y2="99"></line><line class="stroke_order_diagram--bounding_box" x1="799" x2="799" y1="1" y2="99"></line><path class="stroke_order_diagram--existing_path" d="M27.15,12.67c0.35,1.36,0.36,2.37-0.18,3.86c-2.38,6.55-6.66,14.03-11.31,19.27c-0.64,0.72-0.7,3.15,0,3.41c3.68,1.36,8.32,2.66,11.47,5.15" id="Ske2u1fie1z" kvg:type="㇜" transform="matrix(1,0,0,1,696,-4)" xmlns:kvg="http://kanjivg.tagaini.net"></path><path class="stroke_order_diagram--existing_path" d="M37.65,25.93c0.28,0.57,0.35,2.41,0,3.02c-5.41,9.53-14.43,22.22-21.88,30.31c-1.71,1.86,0.42,2.92,1.54,2.54c4.66-1.58,15.72-4.4,21.7-5.91" id="Ske2u1fie20" kvg:type="㇜" transform="matrix(1,0,0,1,696,-4)" xmlns:kvg="http://kanjivg.tagaini.net"></path><path class="stroke_order_diagram--existing_path" d="M34.13,48.88c2.95,2.36,7.63,9.69,8.37,13.35" id="Ske2u1fie21" kvg:type="㇔" transform="matrix(1,0,0,1,696,-4)" xmlns:kvg="http://kanjivg.tagaini.net"></path><path class="stroke_order_diagram--existing_path" d="M27.89,60.62c0.07,0.36,0.91,1.85,0.98,4.09c0.31,10.79-0.2,28.79-0.2,32.46" id="Ske2u1fie22" kvg:type="㇑" transform="matrix(1,0,0,1,696,-4)" xmlns:kvg="http://kanjivg.tagaini.net"></path><path class="stroke_order_diagram--existing_path" d="M18.59,72.35c0.17,0.88,0.15,2.63-0.17,3.26c-2.07,4.13-7.24,12.1-10.17,15.64" id="Ske2u1fie23" kvg:type="㇒" transform="matrix(1,0,0,1,696,-4)" xmlns:kvg="http://kanjivg.tagaini.net"></path><path class="stroke_order_diagram--existing_path" d="M36.43,70.29c4.03,3.6,7.13,11.95,8.07,15.21" id="Ske2u1fie24" kvg:type="㇔" transform="matrix(1,0,0,1,696,-4)" xmlns:kvg="http://kanjivg.tagaini.net"></path><path class="stroke_order_diagram--existing_path" d="M67.49,12.04c0.73,0.29,1.77,1.53,1.76,2.36c-0.05,2.62-0.05,7.43-0.06,9.81" id="Ske2u1fie25" kvg:type="㇑a" transform="matrix(1,0,0,1,696,-4)" xmlns:kvg="http://kanjivg.tagaini.net"></path><path class="stroke_order_diagram--current_path" d="M48.3,23.75c-0.2,3.96-1.77,9.17-4.05,13.5" id="kvg:07db0-s8" kvg:type="㇔" transform="matrix(1,0,0,1,696,-4)" xmlns:kvg="http://kanjivg.tagaini.net"></path><path class="stroke_order_diagram--current_path" d="M48.3,23.75c-0.2,3.96-1.77,9.17-4.05,13.5" id="Ske2u1fie27" kvg:type="㇔" transform="matrix(1,0,0,1,696,-4)" xmlns:kvg="http://kanjivg.tagaini.net"></path><circle class="stroke_order_diagram--path_start" cx="48.3" cy="23.75" r="4" transform="matrix(1,0,0,1,696,-4)"></circle><line class="stroke_order_diagram--guide_line" x1="850" x2="850" y1="1" y2="99"></line><line class="stroke_order_diagram--bounding_box" x1="899" x2="899" y1="1" y2="99"></line><path class="stroke_order_diagram--existing_path" d="M27.15,12.67c0.35,1.36,0.36,2.37-0.18,3.86c-2.38,6.55-6.66,14.03-11.31,19.27c-0.64,0.72-0.7,3.15,0,3.41c3.68,1.36,8.32,2.66,11.47,5.15" id="Ske2u1fie2a" kvg:type="㇜" transform="matrix(1,0,0,1,796,-4)" xmlns:kvg="http://kanjivg.tagaini.net"></path><path class="stroke_order_diagram--existing_path" d="M37.65,25.93c0.28,0.57,0.35,2.41,0,3.02c-5.41,9.53-14.43,22.22-21.88,30.31c-1.71,1.86,0.42,2.92,1.54,2.54c4.66-1.58,15.72-4.4,21.7-5.91" id="Ske2u1fie2b" kvg:type="㇜" transform="matrix(1,0,0,1,796,-4)" xmlns:kvg="http://kanjivg.tagaini.net"></path><path class="stroke_order_diagram--existing_path" d="M34.13,48.88c2.95,2.36,7.63,9.69,8.37,13.35" id="Ske2u1fie2c" kvg:type="㇔" transform="matrix(1,0,0,1,796,-4)" xmlns:kvg="http://kanjivg.tagaini.net"></path><path class="stroke_order_diagram--existing_path" d="M27.89,60.62c0.07,0.36,0.91,1.85,0.98,4.09c0.31,10.79-0.2,28.79-0.2,32.46" id="Ske2u1fie2d" kvg:type="㇑" transform="matrix(1,0,0,1,796,-4)" xmlns:kvg="http://kanjivg.tagaini.net"></path><path class="stroke_order_diagram--existing_path" d="M18.59,72.35c0.17,0.88,0.15,2.63-0.17,3.26c-2.07,4.13-7.24,12.1-10.17,15.64" id="Ske2u1fie2e" kvg:type="㇒" transform="matrix(1,0,0,1,796,-4)" xmlns:kvg="http://kanjivg.tagaini.net"></path><path class="stroke_order_diagram--existing_path" d="M36.43,70.29c4.03,3.6,7.13,11.95,8.07,15.21" id="Ske2u1fie2f" kvg:type="㇔" transform="matrix(1,0,0,1,796,-4)" xmlns:kvg="http://kanjivg.tagaini.net"></path><path class="stroke_order_diagram--existing_path" d="M67.49,12.04c0.73,0.29,1.77,1.53,1.76,2.36c-0.05,2.62-0.05,7.43-0.06,9.81" id="Ske2u1fie2g" kvg:type="㇑a" transform="matrix(1,0,0,1,796,-4)" xmlns:kvg="http://kanjivg.tagaini.net"></path><path class="stroke_order_diagram--existing_path" d="M48.3,23.75c-0.2,3.96-1.77,9.17-4.05,13.5" id="Ske2u1fie2h" kvg:type="㇔" transform="matrix(1,0,0,1,796,-4)" xmlns:kvg="http://kanjivg.tagaini.net"></path><path class="stroke_order_diagram--current_path" d="M48.28,26.86c5.47-0.61,37.35-2.5,42.84-2.5c7.13,0,4.64,4.35-0.71,7.06" id="kvg:07db0-s9" kvg:type="㇖b" transform="matrix(1,0,0,1,796,-4)" xmlns:kvg="http://kanjivg.tagaini.net"></path><path class="stroke_order_diagram--current_path" d="M48.28,26.86c5.47-0.61,37.35-2.5,42.84-2.5c7.13,0,4.64,4.35-0.71,7.06" id="Ske2u1fie2j" kvg:type="㇖b" transform="matrix(1,0,0,1,796,-4)" xmlns:kvg="http://kanjivg.tagaini.net"></path><circle class="stroke_order_diagram--path_start" cx="48.28" cy="26.86" r="4" transform="matrix(1,0,0,1,796,-4)"></circle><line class="stroke_order_diagram--guide_line" x1="950" x2="950" y1="1" y2="99"></line><line class="stroke_order_diagram--bounding_box" x1="999" x2="999" y1="1" y2="99"></line><path class="stroke_order_diagram--existing_path" d="M27.15,12.67c0.35,1.36,0.36,2.37-0.18,3.86c-2.38,6.55-6.66,14.03-11.31,19.27c-0.64,0.72-0.7,3.15,0,3.41c3.68,1.36,8.32,2.66,11.47,5.15" id="Ske2u1fie2m" kvg:type="㇜" transform="matrix(1,0,0,1,896,-4)" xmlns:kvg="http://kanjivg.tagaini.net"></path><path class="stroke_order_diagram--existing_path" d="M37.65,25.93c0.28,0.57,0.35,2.41,0,3.02c-5.41,9.53-14.43,22.22-21.88,30.31c-1.71,1.86,0.42,2.92,1.54,2.54c4.66-1.58,15.72-4.4,21.7-5.91" id="Ske2u1fie2n" kvg:type="㇜" transform="matrix(1,0,0,1,896,-4)" xmlns:kvg="http://kanjivg.tagaini.net"></path><path class="stroke_order_diagram--existing_path" d="M34.13,48.88c2.95,2.36,7.63,9.69,8.37,13.35" id="Ske2u1fie2o" kvg:type="㇔" transform="matrix(1,0,0,1,896,-4)" xmlns:kvg="http://kanjivg.tagaini.net"></path><path class="stroke_order_diagram--existing_path" d="M27.89,60.62c0.07,0.36,0.91,1.85,0.98,4.09c0.31,10.79-0.2,28.79-0.2,32.46" id="Ske2u1fie2p" kvg:type="㇑" transform="matrix(1,0,0,1,896,-4)" xmlns:kvg="http://kanjivg.tagaini.net"></path><path class="stroke_order_diagram--existing_path" d="M18.59,72.35c0.17,0.88,0.15,2.63-0.17,3.26c-2.07,4.13-7.24,12.1-10.17,15.64" id="Ske2u1fie2q" kvg:type="㇒" transform="matrix(1,0,0,1,896,-4)" xmlns:kvg="http://kanjivg.tagaini.net"></path><path class="stroke_order_diagram--existing_path" d="M36.43,70.29c4.03,3.6,7.13,11.95,8.07,15.21" id="Ske2u1fie2r" kvg:type="㇔" transform="matrix(1,0,0,1,896,-4)" xmlns:kvg="http://kanjivg.tagaini.net"></path><path class="stroke_order_diagram--existing_path" d="M67.49,12.04c0.73,0.29,1.77,1.53,1.76,2.36c-0.05,2.62-0.05,7.43-0.06,9.81" id="Ske2u1fie2s" kvg:type="㇑a" transform="matrix(1,0,0,1,896,-4)" xmlns:kvg="http://kanjivg.tagaini.net"></path><path class="stroke_order_diagram--existing_path" d="M48.3,23.75c-0.2,3.96-1.77,9.17-4.05,13.5" id="Ske2u1fie2t" kvg:type="㇔" transform="matrix(1,0,0,1,896,-4)" xmlns:kvg="http://kanjivg.tagaini.net"></path><path class="stroke_order_diagram--existing_path" d="M48.28,26.86c5.47-0.61,37.35-2.5,42.84-2.5c7.13,0,4.64,4.35-0.71,7.06" id="Ske2u1fie2u" kvg:type="㇖b" transform="matrix(1,0,0,1,896,-4)" xmlns:kvg="http://kanjivg.tagaini.net"></path><path class="stroke_order_diagram--current_path" d="M53.45,38.09c0.63,0.48,1,2.18,1.13,3.15c0.12,0.97,0,49.18-0.13,55.23" id="kvg:07db0-s10" kvg:type="㇑" transform="matrix(1,0,0,1,896,-4)" xmlns:kvg="http://kanjivg.tagaini.net"></path><path class="stroke_order_diagram--current_path" d="M53.45,38.09c0.63,0.48,1,2.18,1.13,3.15c0.12,0.97,0,49.18-0.13,55.23" id="Ske2u1fie2w" kvg:type="㇑" transform="matrix(1,0,0,1,896,-4)" xmlns:kvg="http://kanjivg.tagaini.net"></path><circle class="stroke_order_diagram--path_start" cx="53.45" cy="38.09" r="4" transform="matrix(1,0,0,1,896,-4)"></circle><line class="stroke_order_diagram--guide_line" x1="1050" x2="1050" y1="1" y2="99"></line><line class="stroke_order_diagram--bounding_box" x1="1099" x2="1099" y1="1" y2="99"></line><path class="stroke_order_diagram--existing_path" d="M27.15,12.67c0.35,1.36,0.36,2.37-0.18,3.86c-2.38,6.55-6.66,14.03-11.31,19.27c-0.64,0.72-0.7,3.15,0,3.41c3.68,1.36,8.32,2.66,11.47,5.15" id="Ske2u1fie2z" kvg:type="㇜" transform="matrix(1,0,0,1,996,-4)" xmlns:kvg="http://kanjivg.tagaini.net"></path><path class="stroke_order_diagram--existing_path" d="M37.65,25.93c0.28,0.57,0.35,2.41,0,3.02c-5.41,9.53-14.43,22.22-21.88,30.31c-1.71,1.86,0.42,2.92,1.54,2.54c4.66-1.58,15.72-4.4,21.7-5.91" id="Ske2u1fie30" kvg:type="㇜" transform="matrix(1,0,0,1,996,-4)" xmlns:kvg="http://kanjivg.tagaini.net"></path><path class="stroke_order_diagram--existing_path" d="M34.13,48.88c2.95,2.36,7.63,9.69,8.37,13.35" id="Ske2u1fie31" kvg:type="㇔" transform="matrix(1,0,0,1,996,-4)" xmlns:kvg="http://kanjivg.tagaini.net"></path><path class="stroke_order_diagram--existing_path" d="M27.89,60.62c0.07,0.36,0.91,1.85,0.98,4.09c0.31,10.79-0.2,28.79-0.2,32.46" id="Ske2u1fie32" kvg:type="㇑" transform="matrix(1,0,0,1,996,-4)" xmlns:kvg="http://kanjivg.tagaini.net"></path><path class="stroke_order_diagram--existing_path" d="M18.59,72.35c0.17,0.88,0.15,2.63-0.17,3.26c-2.07,4.13-7.24,12.1-10.17,15.64" id="Ske2u1fie33" kvg:type="㇒" transform="matrix(1,0,0,1,996,-4)" xmlns:kvg="http://kanjivg.tagaini.net"></path><path class="stroke_order_diagram--existing_path" d="M36.43,70.29c4.03,3.6,7.13,11.95,8.07,15.21" id="Ske2u1fie34" kvg:type="㇔" transform="matrix(1,0,0,1,996,-4)" xmlns:kvg="http://kanjivg.tagaini.net"></path><path class="stroke_order_diagram--existing_path" d="M67.49,12.04c0.73,0.29,1.77,1.53,1.76,2.36c-0.05,2.62-0.05,7.43-0.06,9.81" id="Ske2u1fie35" kvg:type="㇑a" transform="matrix(1,0,0,1,996,-4)" xmlns:kvg="http://kanjivg.tagaini.net"></path><path class="stroke_order_diagram--existing_path" d="M48.3,23.75c-0.2,3.96-1.77,9.17-4.05,13.5" id="Ske2u1fie36" kvg:type="㇔" transform="matrix(1,0,0,1,996,-4)" xmlns:kvg="http://kanjivg.tagaini.net"></path><path class="stroke_order_diagram--existing_path" d="M48.28,26.86c5.47-0.61,37.35-2.5,42.84-2.5c7.13,0,4.64,4.35-0.71,7.06" id="Ske2u1fie37" kvg:type="㇖b" transform="matrix(1,0,0,1,996,-4)" xmlns:kvg="http://kanjivg.tagaini.net"></path><path class="stroke_order_diagram--existing_path" d="M53.45,38.09c0.63,0.48,1,2.18,1.13,3.15c0.12,0.97,0,49.18-0.13,55.23" id="Ske2u1fie38" kvg:type="㇑" transform="matrix(1,0,0,1,996,-4)" xmlns:kvg="http://kanjivg.tagaini.net"></path><path class="stroke_order_diagram--current_path" d="M55.06,40.16c8.12-1.27,23.38-2.28,27.84-2.71c1.63-0.16,2.61,0.94,2.37,1.88c-0.97,3.87-2.59,11.09-4.03,16.44" id="kvg:07db0-s11" kvg:type="㇕b" transform="matrix(1,0,0,1,996,-4)" xmlns:kvg="http://kanjivg.tagaini.net"></path><path class="stroke_order_diagram--current_path" d="M55.06,40.16c8.12-1.27,23.38-2.28,27.84-2.71c1.63-0.16,2.61,0.94,2.37,1.88c-0.97,3.87-2.59,11.09-4.03,16.44" id="Ske2u1fie3a" kvg:type="㇕b" transform="matrix(1,0,0,1,996,-4)" xmlns:kvg="http://kanjivg.tagaini.net"></path><circle class="stroke_order_diagram--path_start" cx="55.06" cy="40.16" r="4" transform="matrix(1,0,0,1,996,-4)"></circle><line class="stroke_order_diagram--guide_line" x1="1150" x2="1150" y1="1" y2="99"></line><line class="stroke_order_diagram--bounding_box" x1="1199" x2="1199" y1="1" y2="99"></line><path class="stroke_order_diagram--existing_path" d="M27.15,12.67c0.35,1.36,0.36,2.37-0.18,3.86c-2.38,6.55-6.66,14.03-11.31,19.27c-0.64,0.72-0.7,3.15,0,3.41c3.68,1.36,8.32,2.66,11.47,5.15" id="Ske2u1fie3d" kvg:type="㇜" transform="matrix(1,0,0,1,1096,-4)" xmlns:kvg="http://kanjivg.tagaini.net"></path><path class="stroke_order_diagram--existing_path" d="M37.65,25.93c0.28,0.57,0.35,2.41,0,3.02c-5.41,9.53-14.43,22.22-21.88,30.31c-1.71,1.86,0.42,2.92,1.54,2.54c4.66-1.58,15.72-4.4,21.7-5.91" id="Ske2u1fie3e" kvg:type="㇜" transform="matrix(1,0,0,1,1096,-4)" xmlns:kvg="http://kanjivg.tagaini.net"></path><path class="stroke_order_diagram--existing_path" d="M34.13,48.88c2.95,2.36,7.63,9.69,8.37,13.35" id="Ske2u1fie3f" kvg:type="㇔" transform="matrix(1,0,0,1,1096,-4)" xmlns:kvg="http://kanjivg.tagaini.net"></path><path class="stroke_order_diagram--existing_path" d="M27.89,60.62c0.07,0.36,0.91,1.85,0.98,4.09c0.31,10.79-0.2,28.79-0.2,32.46" id="Ske2u1fie3g" kvg:type="㇑" transform="matrix(1,0,0,1,1096,-4)" xmlns:kvg="http://kanjivg.tagaini.net"></path><path class="stroke_order_diagram--existing_path" d="M18.59,72.35c0.17,0.88,0.15,2.63-0.17,3.26c-2.07,4.13-7.24,12.1-10.17,15.64" id="Ske2u1fie3h" kvg:type="㇒" transform="matrix(1,0,0,1,1096,-4)" xmlns:kvg="http://kanjivg.tagaini.net"></path><path class="stroke_order_diagram--existing_path" d="M36.43,70.29c4.03,3.6,7.13,11.95,8.07,15.21" id="Ske2u1fie3i" kvg:type="㇔" transform="matrix(1,0,0,1,1096,-4)" xmlns:kvg="http://kanjivg.tagaini.net"></path><path class="stroke_order_diagram--existing_path" d="M67.49,12.04c0.73,0.29,1.77,1.53,1.76,2.36c-0.05,2.62-0.05,7.43-0.06,9.81" id="Ske2u1fie3j" kvg:type="㇑a" transform="matrix(1,0,0,1,1096,-4)" xmlns:kvg="http://kanjivg.tagaini.net"></path><path class="stroke_order_diagram--existing_path" d="M48.3,23.75c-0.2,3.96-1.77,9.17-4.05,13.5" id="Ske2u1fie3k" kvg:type="㇔" transform="matrix(1,0,0,1,1096,-4)" xmlns:kvg="http://kanjivg.tagaini.net"></path><path class="stroke_order_diagram--existing_path" d="M48.28,26.86c5.47-0.61,37.35-2.5,42.84-2.5c7.13,0,4.64,4.35-0.71,7.06" id="Ske2u1fie3l" kvg:type="㇖b" transform="matrix(1,0,0,1,1096,-4)" xmlns:kvg="http://kanjivg.tagaini.net"></path><path class="stroke_order_diagram--existing_path" d="M53.45,38.09c0.63,0.48,1,2.18,1.13,3.15c0.12,0.97,0,49.18-0.13,55.23" id="Ske2u1fie3m" kvg:type="㇑" transform="matrix(1,0,0,1,1096,-4)" xmlns:kvg="http://kanjivg.tagaini.net"></path><path class="stroke_order_diagram--existing_path" d="M55.06,40.16c8.12-1.27,23.38-2.28,27.84-2.71c1.63-0.16,2.61,0.94,2.37,1.88c-0.97,3.87-2.59,11.09-4.03,16.44" id="Ske2u1fie3n" kvg:type="㇕b" transform="matrix(1,0,0,1,1096,-4)" xmlns:kvg="http://kanjivg.tagaini.net"></path><path class="stroke_order_diagram--current_path" d="M55.19,57.5c5.41-0.53,21.32-1.13,28.75-1.95" id="kvg:07db0-s12" kvg:type="㇐b" transform="matrix(1,0,0,1,1096,-4)" xmlns:kvg="http://kanjivg.tagaini.net"></path><path class="stroke_order_diagram--current_path" d="M55.19,57.5c5.41-0.53,21.32-1.13,28.75-1.95" id="Ske2u1fie3p" kvg:type="㇐b" transform="matrix(1,0,0,1,1096,-4)" xmlns:kvg="http://kanjivg.tagaini.net"></path><circle class="stroke_order_diagram--path_start" cx="55.19" cy="57.5" r="4" transform="matrix(1,0,0,1,1096,-4)"></circle><line class="stroke_order_diagram--guide_line" x1="1250" x2="1250" y1="1" y2="99"></line><line class="stroke_order_diagram--bounding_box" x1="1299" x2="1299" y1="1" y2="99"></line><path class="stroke_order_diagram--existing_path" d="M27.15,12.67c0.35,1.36,0.36,2.37-0.18,3.86c-2.38,6.55-6.66,14.03-11.31,19.27c-0.64,0.72-0.7,3.15,0,3.41c3.68,1.36,8.32,2.66,11.47,5.15" id="Ske2u1fie3s" kvg:type="㇜" transform="matrix(1,0,0,1,1196,-4)" xmlns:kvg="http://kanjivg.tagaini.net"></path><path class="stroke_order_diagram--existing_path" d="M37.65,25.93c0.28,0.57,0.35,2.41,0,3.02c-5.41,9.53-14.43,22.22-21.88,30.31c-1.71,1.86,0.42,2.92,1.54,2.54c4.66-1.58,15.72-4.4,21.7-5.91" id="Ske2u1fie3t" kvg:type="㇜" transform="matrix(1,0,0,1,1196,-4)" xmlns:kvg="http://kanjivg.tagaini.net"></path><path class="stroke_order_diagram--existing_path" d="M34.13,48.88c2.95,2.36,7.63,9.69,8.37,13.35" id="Ske2u1fie3u" kvg:type="㇔" transform="matrix(1,0,0,1,1196,-4)" xmlns:kvg="http://kanjivg.tagaini.net"></path><path class="stroke_order_diagram--existing_path" d="M27.89,60.62c0.07,0.36,0.91,1.85,0.98,4.09c0.31,10.79-0.2,28.79-0.2,32.46" id="Ske2u1fie3v" kvg:type="㇑" transform="matrix(1,0,0,1,1196,-4)" xmlns:kvg="http://kanjivg.tagaini.net"></path><path class="stroke_order_diagram--existing_path" d="M18.59,72.35c0.17,0.88,0.15,2.63-0.17,3.26c-2.07,4.13-7.24,12.1-10.17,15.64" id="Ske2u1fie3w" kvg:type="㇒" transform="matrix(1,0,0,1,1196,-4)" xmlns:kvg="http://kanjivg.tagaini.net"></path><path class="stroke_order_diagram--existing_path" d="M36.43,70.29c4.03,3.6,7.13,11.95,8.07,15.21" id="Ske2u1fie3x" kvg:type="㇔" transform="matrix(1,0,0,1,1196,-4)" xmlns:kvg="http://kanjivg.tagaini.net"></path><path class="stroke_order_diagram--existing_path" d="M67.49,12.04c0.73,0.29,1.77,1.53,1.76,2.36c-0.05,2.62-0.05,7.43-0.06,9.81" id="Ske2u1fie3y" kvg:type="㇑a" transform="matrix(1,0,0,1,1196,-4)" xmlns:kvg="http://kanjivg.tagaini.net"></path><path class="stroke_order_diagram--existing_path" d="M48.3,23.75c-0.2,3.96-1.77,9.17-4.05,13.5" id="Ske2u1fie3z" kvg:type="㇔" transform="matrix(1,0,0,1,1196,-4)" xmlns:kvg="http://kanjivg.tagaini.net"></path><path class="stroke_order_diagram--existing_path" d="M48.28,26.86c5.47-0.61,37.35-2.5,42.84-2.5c7.13,0,4.64,4.35-0.71,7.06" id="Ske2u1fie40" kvg:type="㇖b" transform="matrix(1,0,0,1,1196,-4)" xmlns:kvg="http://kanjivg.tagaini.net"></path><path class="stroke_order_diagram--existing_path" d="M53.45,38.09c0.63,0.48,1,2.18,1.13,3.15c0.12,0.97,0,49.18-0.13,55.23" id="Ske2u1fie41" kvg:type="㇑" transform="matrix(1,0,0,1,1196,-4)" xmlns:kvg="http://kanjivg.tagaini.net"></path><path class="stroke_order_diagram--existing_path" d="M55.06,40.16c8.12-1.27,23.38-2.28,27.84-2.71c1.63-0.16,2.61,0.94,2.37,1.88c-0.97,3.87-2.59,11.09-4.03,16.44" id="Ske2u1fie42" kvg:type="㇕b" transform="matrix(1,0,0,1,1196,-4)" xmlns:kvg="http://kanjivg.tagaini.net"></path><path class="stroke_order_diagram--existing_path" d="M55.19,57.5c5.41-0.53,21.32-1.13,28.75-1.95" id="Ske2u1fie43" kvg:type="㇐b" transform="matrix(1,0,0,1,1196,-4)" xmlns:kvg="http://kanjivg.tagaini.net"></path><path class="stroke_order_diagram--current_path" d="M54.92,71.73c11.33-0.98,24.61-1.33,28.96-1.85c1.59-0.19,2.55,1.14,2.32,2.26C85.26,76.8,84.4,83.55,83,90" id="kvg:07db0-s13" kvg:type="㇕b" transform="matrix(1,0,0,1,1196,-4)" xmlns:kvg="http://kanjivg.tagaini.net"></path><path class="stroke_order_diagram--current_path" d="M54.92,71.73c11.33-0.98,24.61-1.33,28.96-1.85c1.59-0.19,2.55,1.14,2.32,2.26C85.26,76.8,84.4,83.55,83,90" id="Ske2u1fie45" kvg:type="㇕b" transform="matrix(1,0,0,1,1196,-4)" xmlns:kvg="http://kanjivg.tagaini.net"></path><circle class="stroke_order_diagram--path_start" cx="54.92" cy="71.73" r="4" transform="matrix(1,0,0,1,1196,-4)"></circle><line class="stroke_order_diagram--guide_line" x1="1350" x2="1350" y1="1" y2="99"></line><line class="stroke_order_diagram--bounding_box" x1="1399" x2="1399" y1="1" y2="99"></line><path class="stroke_order_diagram--existing_path" d="M27.15,12.67c0.35,1.36,0.36,2.37-0.18,3.86c-2.38,6.55-6.66,14.03-11.31,19.27c-0.64,0.72-0.7,3.15,0,3.41c3.68,1.36,8.32,2.66,11.47,5.15" id="Ske2u1fie48" kvg:type="㇜" transform="matrix(1,0,0,1,1296,-4)" xmlns:kvg="http://kanjivg.tagaini.net"></path><path class="stroke_order_diagram--existing_path" d="M37.65,25.93c0.28,0.57,0.35,2.41,0,3.02c-5.41,9.53-14.43,22.22-21.88,30.31c-1.71,1.86,0.42,2.92,1.54,2.54c4.66-1.58,15.72-4.4,21.7-5.91" id="Ske2u1fie49" kvg:type="㇜" transform="matrix(1,0,0,1,1296,-4)" xmlns:kvg="http://kanjivg.tagaini.net"></path><path class="stroke_order_diagram--existing_path" d="M34.13,48.88c2.95,2.36,7.63,9.69,8.37,13.35" id="Ske2u1fie4a" kvg:type="㇔" transform="matrix(1,0,0,1,1296,-4)" xmlns:kvg="http://kanjivg.tagaini.net"></path><path class="stroke_order_diagram--existing_path" d="M27.89,60.62c0.07,0.36,0.91,1.85,0.98,4.09c0.31,10.79-0.2,28.79-0.2,32.46" id="Ske2u1fie4b" kvg:type="㇑" transform="matrix(1,0,0,1,1296,-4)" xmlns:kvg="http://kanjivg.tagaini.net"></path><path class="stroke_order_diagram--existing_path" d="M18.59,72.35c0.17,0.88,0.15,2.63-0.17,3.26c-2.07,4.13-7.24,12.1-10.17,15.64" id="Ske2u1fie4c" kvg:type="㇒" transform="matrix(1,0,0,1,1296,-4)" xmlns:kvg="http://kanjivg.tagaini.net"></path><path class="stroke_order_diagram--existing_path" d="M36.43,70.29c4.03,3.6,7.13,11.95,8.07,15.21" id="Ske2u1fie4d" kvg:type="㇔" transform="matrix(1,0,0,1,1296,-4)" xmlns:kvg="http://kanjivg.tagaini.net"></path><path class="stroke_order_diagram--existing_path" d="M67.49,12.04c0.73,0.29,1.77,1.53,1.76,2.36c-0.05,2.62-0.05,7.43-0.06,9.81" id="Ske2u1fie4e" kvg:type="㇑a" transform="matrix(1,0,0,1,1296,-4)" xmlns:kvg="http://kanjivg.tagaini.net"></path><path class="stroke_order_diagram--existing_path" d="M48.3,23.75c-0.2,3.96-1.77,9.17-4.05,13.5" id="Ske2u1fie4f" kvg:type="㇔" transform="matrix(1,0,0,1,1296,-4)" xmlns:kvg="http://kanjivg.tagaini.net"></path><path class="stroke_order_diagram--existing_path" d="M48.28,26.86c5.47-0.61,37.35-2.5,42.84-2.5c7.13,0,4.64,4.35-0.71,7.06" id="Ske2u1fie4g" kvg:type="㇖b" transform="matrix(1,0,0,1,1296,-4)" xmlns:kvg="http://kanjivg.tagaini.net"></path><path class="stroke_order_diagram--existing_path" d="M53.45,38.09c0.63,0.48,1,2.18,1.13,3.15c0.12,0.97,0,49.18-0.13,55.23" id="Ske2u1fie4h" kvg:type="㇑" transform="matrix(1,0,0,1,1296,-4)" xmlns:kvg="http://kanjivg.tagaini.net"></path><path class="stroke_order_diagram--existing_path" d="M55.06,40.16c8.12-1.27,23.38-2.28,27.84-2.71c1.63-0.16,2.61,0.94,2.37,1.88c-0.97,3.87-2.59,11.09-4.03,16.44" id="Ske2u1fie4i" kvg:type="㇕b" transform="matrix(1,0,0,1,1296,-4)" xmlns:kvg="http://kanjivg.tagaini.net"></path><path class="stroke_order_diagram--existing_path" d="M55.19,57.5c5.41-0.53,21.32-1.13,28.75-1.95" id="Ske2u1fie4j" kvg:type="㇐b" transform="matrix(1,0,0,1,1296,-4)" xmlns:kvg="http://kanjivg.tagaini.net"></path><path class="stroke_order_diagram--existing_path" d="M54.92,71.73c11.33-0.98,24.61-1.33,28.96-1.85c1.59-0.19,2.55,1.14,2.32,2.26C85.26,76.8,84.4,83.55,83,90" id="Ske2u1fie4k" kvg:type="㇕b" transform="matrix(1,0,0,1,1296,-4)" xmlns:kvg="http://kanjivg.tagaini.net"></path><path class="stroke_order_diagram--current_path" d="M54.81,92.64C59.86,92.03,74.75,91,86,90.83" id="kvg:07db0-s14" kvg:type="㇐b" transform="matrix(1,0,0,1,1296,-4)" xmlns:kvg="http://kanjivg.tagaini.net"></path><path class="stroke_order_diagram--current_path" d="M54.81,92.64C59.86,92.03,74.75,91,86,90.83" id="Ske2u1fie4m" kvg:type="㇐b" transform="matrix(1,0,0,1,1296,-4)" xmlns:kvg="http://kanjivg.tagaini.net"></path><circle class="stroke_order_diagram--path_start" cx="54.81" cy="92.64" r="4" transform="matrix(1,0,0,1,1296,-4)"></circle></svg>