<svg class="stroke_order_diagram--svg_container_for_51866299d5dda79658000a72" style="height: 100px; width: 1400px;" viewbox="0 0 1400 100"><desc>Created with Snap</desc><defs></defs><line class="stroke_order_diagram--bounding_box" x1="1" x2="1399" y1="1" y2="1"></line><line class="stroke_order_diagram--bounding_box" x1="1" x2="1" y1="1" y2="99"></line><line class="stroke_order_diagram--bounding_box" x1="1" x2="1399" y1="99" y2="99"></line><line class="stroke_order_diagram--guide_line" x1="0" x2="1400" y1="50" y2="50"></line><line class="stroke_order_diagram--guide_line" x1="50" x2="50" y1="1" y2="99"></line><line class="stroke_order_diagram--bounding_box" x1="99" x2="99" y1="1" y2="99"></line><path class="stroke_order_diagram--current_path" d="M29.19,15.67c0.29,1.32,0.09,2.67-0.65,3.99C25,26,20.75,32.02,16.83,37.09c-0.54,0.7-0.34,2.3,0.25,2.55c3.09,1.32,6.04,2.61,9.49,4.98" id="kvg:07dbf-s1" kvg:type="㇜" transform="matrix(1,0,0,1,-4,-4)" xmlns:kvg="http://kanjivg.tagaini.net"></path><path class="stroke_order_diagram--current_path" d="M29.19,15.67c0.29,1.32,0.09,2.67-0.65,3.99C25,26,20.75,32.02,16.83,37.09c-0.54,0.7-0.34,2.3,0.25,2.55c3.09,1.32,6.04,2.61,9.49,4.98" id="Ske29f9jsn" kvg:type="㇜" transform="matrix(1,0,0,1,-4,-4)" xmlns:kvg="http://kanjivg.tagaini.net"></path><circle class="stroke_order_diagram--path_start" cx="29.19" cy="15.67" r="4" transform="matrix(1,0,0,1,-4,-4)"></circle><line class="stroke_order_diagram--guide_line" x1="150" x2="150" y1="1" y2="99"></line><line class="stroke_order_diagram--bounding_box" x1="199" x2="199" y1="1" y2="99"></line><path class="stroke_order_diagram--existing_path" d="M29.19,15.67c0.29,1.32,0.09,2.67-0.65,3.99C25,26,20.75,32.02,16.83,37.09c-0.54,0.7-0.34,2.3,0.25,2.55c3.09,1.32,6.04,2.61,9.49,4.98" id="Ske29f9jsq" kvg:type="㇜" transform="matrix(1,0,0,1,96,-4)" xmlns:kvg="http://kanjivg.tagaini.net"></path><path class="stroke_order_diagram--current_path" d="M41.05,23.18c0.2,0.82,0.32,2.2-0.25,3.09c-6.16,9.62-14.93,22.36-22.98,31.94c-1.69,2.02,0.46,2.98,1.65,2.59c5-1.61,15.03-5.05,22.04-7.28" id="kvg:07dbf-s2" kvg:type="㇜" transform="matrix(1,0,0,1,96,-4)" xmlns:kvg="http://kanjivg.tagaini.net"></path><path class="stroke_order_diagram--current_path" d="M41.05,23.18c0.2,0.82,0.32,2.2-0.25,3.09c-6.16,9.62-14.93,22.36-22.98,31.94c-1.69,2.02,0.46,2.98,1.65,2.59c5-1.61,15.03-5.05,22.04-7.28" id="Ske29f9jss" kvg:type="㇜" transform="matrix(1,0,0,1,96,-4)" xmlns:kvg="http://kanjivg.tagaini.net"></path><circle class="stroke_order_diagram--path_start" cx="41.05" cy="23.18" r="4" transform="matrix(1,0,0,1,96,-4)"></circle><line class="stroke_order_diagram--guide_line" x1="250" x2="250" y1="1" y2="99"></line><line class="stroke_order_diagram--bounding_box" x1="299" x2="299" y1="1" y2="99"></line><path class="stroke_order_diagram--existing_path" d="M29.19,15.67c0.29,1.32,0.09,2.67-0.65,3.99C25,26,20.75,32.02,16.83,37.09c-0.54,0.7-0.34,2.3,0.25,2.55c3.09,1.32,6.04,2.61,9.49,4.98" id="Ske29f9jsv" kvg:type="㇜" transform="matrix(1,0,0,1,196,-4)" xmlns:kvg="http://kanjivg.tagaini.net"></path><path class="stroke_order_diagram--existing_path" d="M41.05,23.18c0.2,0.82,0.32,2.2-0.25,3.09c-6.16,9.62-14.93,22.36-22.98,31.94c-1.69,2.02,0.46,2.98,1.65,2.59c5-1.61,15.03-5.05,22.04-7.28" id="Ske29f9jsw" kvg:type="㇜" transform="matrix(1,0,0,1,196,-4)" xmlns:kvg="http://kanjivg.tagaini.net"></path><path class="stroke_order_diagram--current_path" d="M38.13,46.63c2.6,2.14,6.72,8.78,7.37,12.1" id="kvg:07dbf-s3" kvg:type="㇔" transform="matrix(1,0,0,1,196,-4)" xmlns:kvg="http://kanjivg.tagaini.net"></path><path class="stroke_order_diagram--current_path" d="M38.13,46.63c2.6,2.14,6.72,8.78,7.37,12.1" id="Ske29f9jsy" kvg:type="㇔" transform="matrix(1,0,0,1,196,-4)" xmlns:kvg="http://kanjivg.tagaini.net"></path><circle class="stroke_order_diagram--path_start" cx="38.13" cy="46.63" r="4" transform="matrix(1,0,0,1,196,-4)"></circle><line class="stroke_order_diagram--guide_line" x1="350" x2="350" y1="1" y2="99"></line><line class="stroke_order_diagram--bounding_box" x1="399" x2="399" y1="1" y2="99"></line><path class="stroke_order_diagram--existing_path" d="M29.19,15.67c0.29,1.32,0.09,2.67-0.65,3.99C25,26,20.75,32.02,16.83,37.09c-0.54,0.7-0.34,2.3,0.25,2.55c3.09,1.32,6.04,2.61,9.49,4.98" id="Ske29f9js11" kvg:type="㇜" transform="matrix(1,0,0,1,296,-4)" xmlns:kvg="http://kanjivg.tagaini.net"></path><path class="stroke_order_diagram--existing_path" d="M41.05,23.18c0.2,0.82,0.32,2.2-0.25,3.09c-6.16,9.62-14.93,22.36-22.98,31.94c-1.69,2.02,0.46,2.98,1.65,2.59c5-1.61,15.03-5.05,22.04-7.28" id="Ske29f9js12" kvg:type="㇜" transform="matrix(1,0,0,1,296,-4)" xmlns:kvg="http://kanjivg.tagaini.net"></path><path class="stroke_order_diagram--existing_path" d="M38.13,46.63c2.6,2.14,6.72,8.78,7.37,12.1" id="Ske29f9js13" kvg:type="㇔" transform="matrix(1,0,0,1,296,-4)" xmlns:kvg="http://kanjivg.tagaini.net"></path><path class="stroke_order_diagram--current_path" d="M30.39,61.12c0.81,0.81,1.23,1.88,1.23,3.34c0,9.3-0.11,20.34-0.17,27.79c-0.02,2.39-0.03,4.49-0.03,6.17" id="kvg:07dbf-s4" kvg:type="㇑" transform="matrix(1,0,0,1,296,-4)" xmlns:kvg="http://kanjivg.tagaini.net"></path><path class="stroke_order_diagram--current_path" d="M30.39,61.12c0.81,0.81,1.23,1.88,1.23,3.34c0,9.3-0.11,20.34-0.17,27.79c-0.02,2.39-0.03,4.49-0.03,6.17" id="Ske29f9js15" kvg:type="㇑" transform="matrix(1,0,0,1,296,-4)" xmlns:kvg="http://kanjivg.tagaini.net"></path><circle class="stroke_order_diagram--path_start" cx="30.39" cy="61.12" r="4" transform="matrix(1,0,0,1,296,-4)"></circle><line class="stroke_order_diagram--guide_line" x1="450" x2="450" y1="1" y2="99"></line><line class="stroke_order_diagram--bounding_box" x1="499" x2="499" y1="1" y2="99"></line><path class="stroke_order_diagram--existing_path" d="M29.19,15.67c0.29,1.32,0.09,2.67-0.65,3.99C25,26,20.75,32.02,16.83,37.09c-0.54,0.7-0.34,2.3,0.25,2.55c3.09,1.32,6.04,2.61,9.49,4.98" id="Ske29f9js18" kvg:type="㇜" transform="matrix(1,0,0,1,396,-4)" xmlns:kvg="http://kanjivg.tagaini.net"></path><path class="stroke_order_diagram--existing_path" d="M41.05,23.18c0.2,0.82,0.32,2.2-0.25,3.09c-6.16,9.62-14.93,22.36-22.98,31.94c-1.69,2.02,0.46,2.98,1.65,2.59c5-1.61,15.03-5.05,22.04-7.28" id="Ske29f9js19" kvg:type="㇜" transform="matrix(1,0,0,1,396,-4)" xmlns:kvg="http://kanjivg.tagaini.net"></path><path class="stroke_order_diagram--existing_path" d="M38.13,46.63c2.6,2.14,6.72,8.78,7.37,12.1" id="Ske29f9js1a" kvg:type="㇔" transform="matrix(1,0,0,1,396,-4)" xmlns:kvg="http://kanjivg.tagaini.net"></path><path class="stroke_order_diagram--existing_path" d="M30.39,61.12c0.81,0.81,1.23,1.88,1.23,3.34c0,9.3-0.11,20.34-0.17,27.79c-0.02,2.39-0.03,4.49-0.03,6.17" id="Ske29f9js1b" kvg:type="㇑" transform="matrix(1,0,0,1,396,-4)" xmlns:kvg="http://kanjivg.tagaini.net"></path><path class="stroke_order_diagram--current_path" d="M20.1,71.1c0.16,0.92-0.11,2.48-0.41,3.14c-1.94,4.3-7.06,12.58-9.81,16.26" id="kvg:07dbf-s5" kvg:type="㇒" transform="matrix(1,0,0,1,396,-4)" xmlns:kvg="http://kanjivg.tagaini.net"></path><path class="stroke_order_diagram--current_path" d="M20.1,71.1c0.16,0.92-0.11,2.48-0.41,3.14c-1.94,4.3-7.06,12.58-9.81,16.26" id="Ske29f9js1d" kvg:type="㇒" transform="matrix(1,0,0,1,396,-4)" xmlns:kvg="http://kanjivg.tagaini.net"></path><circle class="stroke_order_diagram--path_start" cx="20.1" cy="71.1" r="4" transform="matrix(1,0,0,1,396,-4)"></circle><line class="stroke_order_diagram--guide_line" x1="550" x2="550" y1="1" y2="99"></line><line class="stroke_order_diagram--bounding_box" x1="599" x2="599" y1="1" y2="99"></line><path class="stroke_order_diagram--existing_path" d="M29.19,15.67c0.29,1.32,0.09,2.67-0.65,3.99C25,26,20.75,32.02,16.83,37.09c-0.54,0.7-0.34,2.3,0.25,2.55c3.09,1.32,6.04,2.61,9.49,4.98" id="Ske29f9js1g" kvg:type="㇜" transform="matrix(1,0,0,1,496,-4)" xmlns:kvg="http://kanjivg.tagaini.net"></path><path class="stroke_order_diagram--existing_path" d="M41.05,23.18c0.2,0.82,0.32,2.2-0.25,3.09c-6.16,9.62-14.93,22.36-22.98,31.94c-1.69,2.02,0.46,2.98,1.65,2.59c5-1.61,15.03-5.05,22.04-7.28" id="Ske29f9js1h" kvg:type="㇜" transform="matrix(1,0,0,1,496,-4)" xmlns:kvg="http://kanjivg.tagaini.net"></path><path class="stroke_order_diagram--existing_path" d="M38.13,46.63c2.6,2.14,6.72,8.78,7.37,12.1" id="Ske29f9js1i" kvg:type="㇔" transform="matrix(1,0,0,1,496,-4)" xmlns:kvg="http://kanjivg.tagaini.net"></path><path class="stroke_order_diagram--existing_path" d="M30.39,61.12c0.81,0.81,1.23,1.88,1.23,3.34c0,9.3-0.11,20.34-0.17,27.79c-0.02,2.39-0.03,4.49-0.03,6.17" id="Ske29f9js1j" kvg:type="㇑" transform="matrix(1,0,0,1,496,-4)" xmlns:kvg="http://kanjivg.tagaini.net"></path><path class="stroke_order_diagram--existing_path" d="M20.1,71.1c0.16,0.92-0.11,2.48-0.41,3.14c-1.94,4.3-7.06,12.58-9.81,16.26" id="Ske29f9js1k" kvg:type="㇒" transform="matrix(1,0,0,1,496,-4)" xmlns:kvg="http://kanjivg.tagaini.net"></path><path class="stroke_order_diagram--current_path" d="M39.88,67.12c2.15,3.45,3.8,11.47,4.3,14.6" id="kvg:07dbf-s6" kvg:type="㇔" transform="matrix(1,0,0,1,496,-4)" xmlns:kvg="http://kanjivg.tagaini.net"></path><path class="stroke_order_diagram--current_path" d="M39.88,67.12c2.15,3.45,3.8,11.47,4.3,14.6" id="Ske29f9js1m" kvg:type="㇔" transform="matrix(1,0,0,1,496,-4)" xmlns:kvg="http://kanjivg.tagaini.net"></path><circle class="stroke_order_diagram--path_start" cx="39.88" cy="67.12" r="4" transform="matrix(1,0,0,1,496,-4)"></circle><line class="stroke_order_diagram--guide_line" x1="650" x2="650" y1="1" y2="99"></line><line class="stroke_order_diagram--bounding_box" x1="699" x2="699" y1="1" y2="99"></line><path class="stroke_order_diagram--existing_path" d="M29.19,15.67c0.29,1.32,0.09,2.67-0.65,3.99C25,26,20.75,32.02,16.83,37.09c-0.54,0.7-0.34,2.3,0.25,2.55c3.09,1.32,6.04,2.61,9.49,4.98" id="Ske29f9js1p" kvg:type="㇜" transform="matrix(1,0,0,1,596,-4)" xmlns:kvg="http://kanjivg.tagaini.net"></path><path class="stroke_order_diagram--existing_path" d="M41.05,23.18c0.2,0.82,0.32,2.2-0.25,3.09c-6.16,9.62-14.93,22.36-22.98,31.94c-1.69,2.02,0.46,2.98,1.65,2.59c5-1.61,15.03-5.05,22.04-7.28" id="Ske29f9js1q" kvg:type="㇜" transform="matrix(1,0,0,1,596,-4)" xmlns:kvg="http://kanjivg.tagaini.net"></path><path class="stroke_order_diagram--existing_path" d="M38.13,46.63c2.6,2.14,6.72,8.78,7.37,12.1" id="Ske29f9js1r" kvg:type="㇔" transform="matrix(1,0,0,1,596,-4)" xmlns:kvg="http://kanjivg.tagaini.net"></path><path class="stroke_order_diagram--existing_path" d="M30.39,61.12c0.81,0.81,1.23,1.88,1.23,3.34c0,9.3-0.11,20.34-0.17,27.79c-0.02,2.39-0.03,4.49-0.03,6.17" id="Ske29f9js1s" kvg:type="㇑" transform="matrix(1,0,0,1,596,-4)" xmlns:kvg="http://kanjivg.tagaini.net"></path><path class="stroke_order_diagram--existing_path" d="M20.1,71.1c0.16,0.92-0.11,2.48-0.41,3.14c-1.94,4.3-7.06,12.58-9.81,16.26" id="Ske29f9js1t" kvg:type="㇒" transform="matrix(1,0,0,1,596,-4)" xmlns:kvg="http://kanjivg.tagaini.net"></path><path class="stroke_order_diagram--existing_path" d="M39.88,67.12c2.15,3.45,3.8,11.47,4.3,14.6" id="Ske29f9js1u" kvg:type="㇔" transform="matrix(1,0,0,1,596,-4)" xmlns:kvg="http://kanjivg.tagaini.net"></path><path class="stroke_order_diagram--current_path" d="M70.25,10c0.25,0.88,0.12,1.88-0.25,2.69c-1.34,2.96-2.87,5.18-5.88,9.31" id="kvg:07dbf-s7" kvg:type="㇒" transform="matrix(1,0,0,1,596,-4)" xmlns:kvg="http://kanjivg.tagaini.net"></path><path class="stroke_order_diagram--current_path" d="M70.25,10c0.25,0.88,0.12,1.88-0.25,2.69c-1.34,2.96-2.87,5.18-5.88,9.31" id="Ske29f9js1w" kvg:type="㇒" transform="matrix(1,0,0,1,596,-4)" xmlns:kvg="http://kanjivg.tagaini.net"></path><circle class="stroke_order_diagram--path_start" cx="70.25" cy="10" r="4" transform="matrix(1,0,0,1,596,-4)"></circle><line class="stroke_order_diagram--guide_line" x1="750" x2="750" y1="1" y2="99"></line><line class="stroke_order_diagram--bounding_box" x1="799" x2="799" y1="1" y2="99"></line><path class="stroke_order_diagram--existing_path" d="M29.19,15.67c0.29,1.32,0.09,2.67-0.65,3.99C25,26,20.75,32.02,16.83,37.09c-0.54,0.7-0.34,2.3,0.25,2.55c3.09,1.32,6.04,2.61,9.49,4.98" id="Ske29f9js1z" kvg:type="㇜" transform="matrix(1,0,0,1,696,-4)" xmlns:kvg="http://kanjivg.tagaini.net"></path><path class="stroke_order_diagram--existing_path" d="M41.05,23.18c0.2,0.82,0.32,2.2-0.25,3.09c-6.16,9.62-14.93,22.36-22.98,31.94c-1.69,2.02,0.46,2.98,1.65,2.59c5-1.61,15.03-5.05,22.04-7.28" id="Ske29f9js20" kvg:type="㇜" transform="matrix(1,0,0,1,696,-4)" xmlns:kvg="http://kanjivg.tagaini.net"></path><path class="stroke_order_diagram--existing_path" d="M38.13,46.63c2.6,2.14,6.72,8.78,7.37,12.1" id="Ske29f9js21" kvg:type="㇔" transform="matrix(1,0,0,1,696,-4)" xmlns:kvg="http://kanjivg.tagaini.net"></path><path class="stroke_order_diagram--existing_path" d="M30.39,61.12c0.81,0.81,1.23,1.88,1.23,3.34c0,9.3-0.11,20.34-0.17,27.79c-0.02,2.39-0.03,4.49-0.03,6.17" id="Ske29f9js22" kvg:type="㇑" transform="matrix(1,0,0,1,696,-4)" xmlns:kvg="http://kanjivg.tagaini.net"></path><path class="stroke_order_diagram--existing_path" d="M20.1,71.1c0.16,0.92-0.11,2.48-0.41,3.14c-1.94,4.3-7.06,12.58-9.81,16.26" id="Ske29f9js23" kvg:type="㇒" transform="matrix(1,0,0,1,696,-4)" xmlns:kvg="http://kanjivg.tagaini.net"></path><path class="stroke_order_diagram--existing_path" d="M39.88,67.12c2.15,3.45,3.8,11.47,4.3,14.6" id="Ske29f9js24" kvg:type="㇔" transform="matrix(1,0,0,1,696,-4)" xmlns:kvg="http://kanjivg.tagaini.net"></path><path class="stroke_order_diagram--existing_path" d="M70.25,10c0.25,0.88,0.12,1.88-0.25,2.69c-1.34,2.96-2.87,5.18-5.88,9.31" id="Ske29f9js25" kvg:type="㇒" transform="matrix(1,0,0,1,696,-4)" xmlns:kvg="http://kanjivg.tagaini.net"></path><path class="stroke_order_diagram--current_path" d="M52.6,23.61c0.89,0.89,1.38,2.11,1.54,3.53c0.61,5.61,1.48,10.54,2.44,19.85c0.15,1.4,0.29,2.79,0.41,4.13" id="kvg:07dbf-s8" kvg:type="㇑" transform="matrix(1,0,0,1,696,-4)" xmlns:kvg="http://kanjivg.tagaini.net"></path><path class="stroke_order_diagram--current_path" d="M52.6,23.61c0.89,0.89,1.38,2.11,1.54,3.53c0.61,5.61,1.48,10.54,2.44,19.85c0.15,1.4,0.29,2.79,0.41,4.13" id="Ske29f9js27" kvg:type="㇑" transform="matrix(1,0,0,1,696,-4)" xmlns:kvg="http://kanjivg.tagaini.net"></path><circle class="stroke_order_diagram--path_start" cx="52.6" cy="23.61" r="4" transform="matrix(1,0,0,1,696,-4)"></circle><line class="stroke_order_diagram--guide_line" x1="850" x2="850" y1="1" y2="99"></line><line class="stroke_order_diagram--bounding_box" x1="899" x2="899" y1="1" y2="99"></line><path class="stroke_order_diagram--existing_path" d="M29.19,15.67c0.29,1.32,0.09,2.67-0.65,3.99C25,26,20.75,32.02,16.83,37.09c-0.54,0.7-0.34,2.3,0.25,2.55c3.09,1.32,6.04,2.61,9.49,4.98" id="Ske29f9js2a" kvg:type="㇜" transform="matrix(1,0,0,1,796,-4)" xmlns:kvg="http://kanjivg.tagaini.net"></path><path class="stroke_order_diagram--existing_path" d="M41.05,23.18c0.2,0.82,0.32,2.2-0.25,3.09c-6.16,9.62-14.93,22.36-22.98,31.94c-1.69,2.02,0.46,2.98,1.65,2.59c5-1.61,15.03-5.05,22.04-7.28" id="Ske29f9js2b" kvg:type="㇜" transform="matrix(1,0,0,1,796,-4)" xmlns:kvg="http://kanjivg.tagaini.net"></path><path class="stroke_order_diagram--existing_path" d="M38.13,46.63c2.6,2.14,6.72,8.78,7.37,12.1" id="Ske29f9js2c" kvg:type="㇔" transform="matrix(1,0,0,1,796,-4)" xmlns:kvg="http://kanjivg.tagaini.net"></path><path class="stroke_order_diagram--existing_path" d="M30.39,61.12c0.81,0.81,1.23,1.88,1.23,3.34c0,9.3-0.11,20.34-0.17,27.79c-0.02,2.39-0.03,4.49-0.03,6.17" id="Ske29f9js2d" kvg:type="㇑" transform="matrix(1,0,0,1,796,-4)" xmlns:kvg="http://kanjivg.tagaini.net"></path><path class="stroke_order_diagram--existing_path" d="M20.1,71.1c0.16,0.92-0.11,2.48-0.41,3.14c-1.94,4.3-7.06,12.58-9.81,16.26" id="Ske29f9js2e" kvg:type="㇒" transform="matrix(1,0,0,1,796,-4)" xmlns:kvg="http://kanjivg.tagaini.net"></path><path class="stroke_order_diagram--existing_path" d="M39.88,67.12c2.15,3.45,3.8,11.47,4.3,14.6" id="Ske29f9js2f" kvg:type="㇔" transform="matrix(1,0,0,1,796,-4)" xmlns:kvg="http://kanjivg.tagaini.net"></path><path class="stroke_order_diagram--existing_path" d="M70.25,10c0.25,0.88,0.12,1.88-0.25,2.69c-1.34,2.96-2.87,5.18-5.88,9.31" id="Ske29f9js2g" kvg:type="㇒" transform="matrix(1,0,0,1,796,-4)" xmlns:kvg="http://kanjivg.tagaini.net"></path><path class="stroke_order_diagram--existing_path" d="M52.6,23.61c0.89,0.89,1.38,2.11,1.54,3.53c0.61,5.61,1.48,10.54,2.44,19.85c0.15,1.4,0.29,2.79,0.41,4.13" id="Ske29f9js2h" kvg:type="㇑" transform="matrix(1,0,0,1,796,-4)" xmlns:kvg="http://kanjivg.tagaini.net"></path><path class="stroke_order_diagram--current_path" d="M54.45,25.13c5.95-0.78,25.03-3,30.92-3.17c3-0.09,4.63,2.16,4.15,4.79c-0.54,2.95-1.35,9.1-3.25,17.06c-0.32,1.34-0.67,2.72-1.05,4.13" id="kvg:07dbf-s9" kvg:type="㇕a" transform="matrix(1,0,0,1,796,-4)" xmlns:kvg="http://kanjivg.tagaini.net"></path><path class="stroke_order_diagram--current_path" d="M54.45,25.13c5.95-0.78,25.03-3,30.92-3.17c3-0.09,4.63,2.16,4.15,4.79c-0.54,2.95-1.35,9.1-3.25,17.06c-0.32,1.34-0.67,2.72-1.05,4.13" id="Ske29f9js2j" kvg:type="㇕a" transform="matrix(1,0,0,1,796,-4)" xmlns:kvg="http://kanjivg.tagaini.net"></path><circle class="stroke_order_diagram--path_start" cx="54.45" cy="25.13" r="4" transform="matrix(1,0,0,1,796,-4)"></circle><line class="stroke_order_diagram--guide_line" x1="950" x2="950" y1="1" y2="99"></line><line class="stroke_order_diagram--bounding_box" x1="999" x2="999" y1="1" y2="99"></line><path class="stroke_order_diagram--existing_path" d="M29.19,15.67c0.29,1.32,0.09,2.67-0.65,3.99C25,26,20.75,32.02,16.83,37.09c-0.54,0.7-0.34,2.3,0.25,2.55c3.09,1.32,6.04,2.61,9.49,4.98" id="Ske29f9js2m" kvg:type="㇜" transform="matrix(1,0,0,1,896,-4)" xmlns:kvg="http://kanjivg.tagaini.net"></path><path class="stroke_order_diagram--existing_path" d="M41.05,23.18c0.2,0.82,0.32,2.2-0.25,3.09c-6.16,9.62-14.93,22.36-22.98,31.94c-1.69,2.02,0.46,2.98,1.65,2.59c5-1.61,15.03-5.05,22.04-7.28" id="Ske29f9js2n" kvg:type="㇜" transform="matrix(1,0,0,1,896,-4)" xmlns:kvg="http://kanjivg.tagaini.net"></path><path class="stroke_order_diagram--existing_path" d="M38.13,46.63c2.6,2.14,6.72,8.78,7.37,12.1" id="Ske29f9js2o" kvg:type="㇔" transform="matrix(1,0,0,1,896,-4)" xmlns:kvg="http://kanjivg.tagaini.net"></path><path class="stroke_order_diagram--existing_path" d="M30.39,61.12c0.81,0.81,1.23,1.88,1.23,3.34c0,9.3-0.11,20.34-0.17,27.79c-0.02,2.39-0.03,4.49-0.03,6.17" id="Ske29f9js2p" kvg:type="㇑" transform="matrix(1,0,0,1,896,-4)" xmlns:kvg="http://kanjivg.tagaini.net"></path><path class="stroke_order_diagram--existing_path" d="M20.1,71.1c0.16,0.92-0.11,2.48-0.41,3.14c-1.94,4.3-7.06,12.58-9.81,16.26" id="Ske29f9js2q" kvg:type="㇒" transform="matrix(1,0,0,1,896,-4)" xmlns:kvg="http://kanjivg.tagaini.net"></path><path class="stroke_order_diagram--existing_path" d="M39.88,67.12c2.15,3.45,3.8,11.47,4.3,14.6" id="Ske29f9js2r" kvg:type="㇔" transform="matrix(1,0,0,1,896,-4)" xmlns:kvg="http://kanjivg.tagaini.net"></path><path class="stroke_order_diagram--existing_path" d="M70.25,10c0.25,0.88,0.12,1.88-0.25,2.69c-1.34,2.96-2.87,5.18-5.88,9.31" id="Ske29f9js2s" kvg:type="㇒" transform="matrix(1,0,0,1,896,-4)" xmlns:kvg="http://kanjivg.tagaini.net"></path><path class="stroke_order_diagram--existing_path" d="M52.6,23.61c0.89,0.89,1.38,2.11,1.54,3.53c0.61,5.61,1.48,10.54,2.44,19.85c0.15,1.4,0.29,2.79,0.41,4.13" id="Ske29f9js2t" kvg:type="㇑" transform="matrix(1,0,0,1,896,-4)" xmlns:kvg="http://kanjivg.tagaini.net"></path><path class="stroke_order_diagram--existing_path" d="M54.45,25.13c5.95-0.78,25.03-3,30.92-3.17c3-0.09,4.63,2.16,4.15,4.79c-0.54,2.95-1.35,9.1-3.25,17.06c-0.32,1.34-0.67,2.72-1.05,4.13" id="Ske29f9js2u" kvg:type="㇕a" transform="matrix(1,0,0,1,896,-4)" xmlns:kvg="http://kanjivg.tagaini.net"></path><path class="stroke_order_diagram--current_path" d="M56.58,36.41c8-0.63,23.3-2.07,30.51-2.31" id="kvg:07dbf-s10" kvg:type="㇐a" transform="matrix(1,0,0,1,896,-4)" xmlns:kvg="http://kanjivg.tagaini.net"></path><path class="stroke_order_diagram--current_path" d="M56.58,36.41c8-0.63,23.3-2.07,30.51-2.31" id="Ske29f9js2w" kvg:type="㇐a" transform="matrix(1,0,0,1,896,-4)" xmlns:kvg="http://kanjivg.tagaini.net"></path><circle class="stroke_order_diagram--path_start" cx="56.58" cy="36.41" r="4" transform="matrix(1,0,0,1,896,-4)"></circle><line class="stroke_order_diagram--guide_line" x1="1050" x2="1050" y1="1" y2="99"></line><line class="stroke_order_diagram--bounding_box" x1="1099" x2="1099" y1="1" y2="99"></line><path class="stroke_order_diagram--existing_path" d="M29.19,15.67c0.29,1.32,0.09,2.67-0.65,3.99C25,26,20.75,32.02,16.83,37.09c-0.54,0.7-0.34,2.3,0.25,2.55c3.09,1.32,6.04,2.61,9.49,4.98" id="Ske29f9js2z" kvg:type="㇜" transform="matrix(1,0,0,1,996,-4)" xmlns:kvg="http://kanjivg.tagaini.net"></path><path class="stroke_order_diagram--existing_path" d="M41.05,23.18c0.2,0.82,0.32,2.2-0.25,3.09c-6.16,9.62-14.93,22.36-22.98,31.94c-1.69,2.02,0.46,2.98,1.65,2.59c5-1.61,15.03-5.05,22.04-7.28" id="Ske29f9js30" kvg:type="㇜" transform="matrix(1,0,0,1,996,-4)" xmlns:kvg="http://kanjivg.tagaini.net"></path><path class="stroke_order_diagram--existing_path" d="M38.13,46.63c2.6,2.14,6.72,8.78,7.37,12.1" id="Ske29f9js31" kvg:type="㇔" transform="matrix(1,0,0,1,996,-4)" xmlns:kvg="http://kanjivg.tagaini.net"></path><path class="stroke_order_diagram--existing_path" d="M30.39,61.12c0.81,0.81,1.23,1.88,1.23,3.34c0,9.3-0.11,20.34-0.17,27.79c-0.02,2.39-0.03,4.49-0.03,6.17" id="Ske29f9js32" kvg:type="㇑" transform="matrix(1,0,0,1,996,-4)" xmlns:kvg="http://kanjivg.tagaini.net"></path><path class="stroke_order_diagram--existing_path" d="M20.1,71.1c0.16,0.92-0.11,2.48-0.41,3.14c-1.94,4.3-7.06,12.58-9.81,16.26" id="Ske29f9js33" kvg:type="㇒" transform="matrix(1,0,0,1,996,-4)" xmlns:kvg="http://kanjivg.tagaini.net"></path><path class="stroke_order_diagram--existing_path" d="M39.88,67.12c2.15,3.45,3.8,11.47,4.3,14.6" id="Ske29f9js34" kvg:type="㇔" transform="matrix(1,0,0,1,996,-4)" xmlns:kvg="http://kanjivg.tagaini.net"></path><path class="stroke_order_diagram--existing_path" d="M70.25,10c0.25,0.88,0.12,1.88-0.25,2.69c-1.34,2.96-2.87,5.18-5.88,9.31" id="Ske29f9js35" kvg:type="㇒" transform="matrix(1,0,0,1,996,-4)" xmlns:kvg="http://kanjivg.tagaini.net"></path><path class="stroke_order_diagram--existing_path" d="M52.6,23.61c0.89,0.89,1.38,2.11,1.54,3.53c0.61,5.61,1.48,10.54,2.44,19.85c0.15,1.4,0.29,2.79,0.41,4.13" id="Ske29f9js36" kvg:type="㇑" transform="matrix(1,0,0,1,996,-4)" xmlns:kvg="http://kanjivg.tagaini.net"></path><path class="stroke_order_diagram--existing_path" d="M54.45,25.13c5.95-0.78,25.03-3,30.92-3.17c3-0.09,4.63,2.16,4.15,4.79c-0.54,2.95-1.35,9.1-3.25,17.06c-0.32,1.34-0.67,2.72-1.05,4.13" id="Ske29f9js37" kvg:type="㇕a" transform="matrix(1,0,0,1,996,-4)" xmlns:kvg="http://kanjivg.tagaini.net"></path><path class="stroke_order_diagram--existing_path" d="M56.58,36.41c8-0.63,23.3-2.07,30.51-2.31" id="Ske29f9js38" kvg:type="㇐a" transform="matrix(1,0,0,1,996,-4)" xmlns:kvg="http://kanjivg.tagaini.net"></path><path class="stroke_order_diagram--current_path" d="M58.01,48.66c10.51-1.2,18.74-1.66,26.47-1.99" id="kvg:07dbf-s11" kvg:type="㇐a" transform="matrix(1,0,0,1,996,-4)" xmlns:kvg="http://kanjivg.tagaini.net"></path><path class="stroke_order_diagram--current_path" d="M58.01,48.66c10.51-1.2,18.74-1.66,26.47-1.99" id="Ske29f9js3a" kvg:type="㇐a" transform="matrix(1,0,0,1,996,-4)" xmlns:kvg="http://kanjivg.tagaini.net"></path><circle class="stroke_order_diagram--path_start" cx="58.01" cy="48.66" r="4" transform="matrix(1,0,0,1,996,-4)"></circle><line class="stroke_order_diagram--guide_line" x1="1150" x2="1150" y1="1" y2="99"></line><line class="stroke_order_diagram--bounding_box" x1="1199" x2="1199" y1="1" y2="99"></line><path class="stroke_order_diagram--existing_path" d="M29.19,15.67c0.29,1.32,0.09,2.67-0.65,3.99C25,26,20.75,32.02,16.83,37.09c-0.54,0.7-0.34,2.3,0.25,2.55c3.09,1.32,6.04,2.61,9.49,4.98" id="Ske29f9js3d" kvg:type="㇜" transform="matrix(1,0,0,1,1096,-4)" xmlns:kvg="http://kanjivg.tagaini.net"></path><path class="stroke_order_diagram--existing_path" d="M41.05,23.18c0.2,0.82,0.32,2.2-0.25,3.09c-6.16,9.62-14.93,22.36-22.98,31.94c-1.69,2.02,0.46,2.98,1.65,2.59c5-1.61,15.03-5.05,22.04-7.28" id="Ske29f9js3e" kvg:type="㇜" transform="matrix(1,0,0,1,1096,-4)" xmlns:kvg="http://kanjivg.tagaini.net"></path><path class="stroke_order_diagram--existing_path" d="M38.13,46.63c2.6,2.14,6.72,8.78,7.37,12.1" id="Ske29f9js3f" kvg:type="㇔" transform="matrix(1,0,0,1,1096,-4)" xmlns:kvg="http://kanjivg.tagaini.net"></path><path class="stroke_order_diagram--existing_path" d="M30.39,61.12c0.81,0.81,1.23,1.88,1.23,3.34c0,9.3-0.11,20.34-0.17,27.79c-0.02,2.39-0.03,4.49-0.03,6.17" id="Ske29f9js3g" kvg:type="㇑" transform="matrix(1,0,0,1,1096,-4)" xmlns:kvg="http://kanjivg.tagaini.net"></path><path class="stroke_order_diagram--existing_path" d="M20.1,71.1c0.16,0.92-0.11,2.48-0.41,3.14c-1.94,4.3-7.06,12.58-9.81,16.26" id="Ske29f9js3h" kvg:type="㇒" transform="matrix(1,0,0,1,1096,-4)" xmlns:kvg="http://kanjivg.tagaini.net"></path><path class="stroke_order_diagram--existing_path" d="M39.88,67.12c2.15,3.45,3.8,11.47,4.3,14.6" id="Ske29f9js3i" kvg:type="㇔" transform="matrix(1,0,0,1,1096,-4)" xmlns:kvg="http://kanjivg.tagaini.net"></path><path class="stroke_order_diagram--existing_path" d="M70.25,10c0.25,0.88,0.12,1.88-0.25,2.69c-1.34,2.96-2.87,5.18-5.88,9.31" id="Ske29f9js3j" kvg:type="㇒" transform="matrix(1,0,0,1,1096,-4)" xmlns:kvg="http://kanjivg.tagaini.net"></path><path class="stroke_order_diagram--existing_path" d="M52.6,23.61c0.89,0.89,1.38,2.11,1.54,3.53c0.61,5.61,1.48,10.54,2.44,19.85c0.15,1.4,0.29,2.79,0.41,4.13" id="Ske29f9js3k" kvg:type="㇑" transform="matrix(1,0,0,1,1096,-4)" xmlns:kvg="http://kanjivg.tagaini.net"></path><path class="stroke_order_diagram--existing_path" d="M54.45,25.13c5.95-0.78,25.03-3,30.92-3.17c3-0.09,4.63,2.16,4.15,4.79c-0.54,2.95-1.35,9.1-3.25,17.06c-0.32,1.34-0.67,2.72-1.05,4.13" id="Ske29f9js3l" kvg:type="㇕a" transform="matrix(1,0,0,1,1096,-4)" xmlns:kvg="http://kanjivg.tagaini.net"></path><path class="stroke_order_diagram--existing_path" d="M56.58,36.41c8-0.63,23.3-2.07,30.51-2.31" id="Ske29f9js3m" kvg:type="㇐a" transform="matrix(1,0,0,1,1096,-4)" xmlns:kvg="http://kanjivg.tagaini.net"></path><path class="stroke_order_diagram--existing_path" d="M58.01,48.66c10.51-1.2,18.74-1.66,26.47-1.99" id="Ske29f9js3n" kvg:type="㇐a" transform="matrix(1,0,0,1,1096,-4)" xmlns:kvg="http://kanjivg.tagaini.net"></path><path class="stroke_order_diagram--current_path" d="M52.37,60.9c0.99,0.99,1.5,2.35,1.58,3.9c0.29,5.84-0.01,11.27-0.02,17.7c0,1.76,0,3.6,0,5.55" id="kvg:07dbf-s12" kvg:type="㇑" transform="matrix(1,0,0,1,1096,-4)" xmlns:kvg="http://kanjivg.tagaini.net"></path><path class="stroke_order_diagram--current_path" d="M52.37,60.9c0.99,0.99,1.5,2.35,1.58,3.9c0.29,5.84-0.01,11.27-0.02,17.7c0,1.76,0,3.6,0,5.55" id="Ske29f9js3p" kvg:type="㇑" transform="matrix(1,0,0,1,1096,-4)" xmlns:kvg="http://kanjivg.tagaini.net"></path><circle class="stroke_order_diagram--path_start" cx="52.37" cy="60.9" r="4" transform="matrix(1,0,0,1,1096,-4)"></circle><line class="stroke_order_diagram--guide_line" x1="1250" x2="1250" y1="1" y2="99"></line><line class="stroke_order_diagram--bounding_box" x1="1299" x2="1299" y1="1" y2="99"></line><path class="stroke_order_diagram--existing_path" d="M29.19,15.67c0.29,1.32,0.09,2.67-0.65,3.99C25,26,20.75,32.02,16.83,37.09c-0.54,0.7-0.34,2.3,0.25,2.55c3.09,1.32,6.04,2.61,9.49,4.98" id="Ske29f9js3s" kvg:type="㇜" transform="matrix(1,0,0,1,1196,-4)" xmlns:kvg="http://kanjivg.tagaini.net"></path><path class="stroke_order_diagram--existing_path" d="M41.05,23.18c0.2,0.82,0.32,2.2-0.25,3.09c-6.16,9.62-14.93,22.36-22.98,31.94c-1.69,2.02,0.46,2.98,1.65,2.59c5-1.61,15.03-5.05,22.04-7.28" id="Ske29f9js3t" kvg:type="㇜" transform="matrix(1,0,0,1,1196,-4)" xmlns:kvg="http://kanjivg.tagaini.net"></path><path class="stroke_order_diagram--existing_path" d="M38.13,46.63c2.6,2.14,6.72,8.78,7.37,12.1" id="Ske29f9js3u" kvg:type="㇔" transform="matrix(1,0,0,1,1196,-4)" xmlns:kvg="http://kanjivg.tagaini.net"></path><path class="stroke_order_diagram--existing_path" d="M30.39,61.12c0.81,0.81,1.23,1.88,1.23,3.34c0,9.3-0.11,20.34-0.17,27.79c-0.02,2.39-0.03,4.49-0.03,6.17" id="Ske29f9js3v" kvg:type="㇑" transform="matrix(1,0,0,1,1196,-4)" xmlns:kvg="http://kanjivg.tagaini.net"></path><path class="stroke_order_diagram--existing_path" d="M20.1,71.1c0.16,0.92-0.11,2.48-0.41,3.14c-1.94,4.3-7.06,12.58-9.81,16.26" id="Ske29f9js3w" kvg:type="㇒" transform="matrix(1,0,0,1,1196,-4)" xmlns:kvg="http://kanjivg.tagaini.net"></path><path class="stroke_order_diagram--existing_path" d="M39.88,67.12c2.15,3.45,3.8,11.47,4.3,14.6" id="Ske29f9js3x" kvg:type="㇔" transform="matrix(1,0,0,1,1196,-4)" xmlns:kvg="http://kanjivg.tagaini.net"></path><path class="stroke_order_diagram--existing_path" d="M70.25,10c0.25,0.88,0.12,1.88-0.25,2.69c-1.34,2.96-2.87,5.18-5.88,9.31" id="Ske29f9js3y" kvg:type="㇒" transform="matrix(1,0,0,1,1196,-4)" xmlns:kvg="http://kanjivg.tagaini.net"></path><path class="stroke_order_diagram--existing_path" d="M52.6,23.61c0.89,0.89,1.38,2.11,1.54,3.53c0.61,5.61,1.48,10.54,2.44,19.85c0.15,1.4,0.29,2.79,0.41,4.13" id="Ske29f9js3z" kvg:type="㇑" transform="matrix(1,0,0,1,1196,-4)" xmlns:kvg="http://kanjivg.tagaini.net"></path><path class="stroke_order_diagram--existing_path" d="M54.45,25.13c5.95-0.78,25.03-3,30.92-3.17c3-0.09,4.63,2.16,4.15,4.79c-0.54,2.95-1.35,9.1-3.25,17.06c-0.32,1.34-0.67,2.72-1.05,4.13" id="Ske29f9js40" kvg:type="㇕a" transform="matrix(1,0,0,1,1196,-4)" xmlns:kvg="http://kanjivg.tagaini.net"></path><path class="stroke_order_diagram--existing_path" d="M56.58,36.41c8-0.63,23.3-2.07,30.51-2.31" id="Ske29f9js41" kvg:type="㇐a" transform="matrix(1,0,0,1,1196,-4)" xmlns:kvg="http://kanjivg.tagaini.net"></path><path class="stroke_order_diagram--existing_path" d="M58.01,48.66c10.51-1.2,18.74-1.66,26.47-1.99" id="Ske29f9js42" kvg:type="㇐a" transform="matrix(1,0,0,1,1196,-4)" xmlns:kvg="http://kanjivg.tagaini.net"></path><path class="stroke_order_diagram--existing_path" d="M52.37,60.9c0.99,0.99,1.5,2.35,1.58,3.9c0.29,5.84-0.01,11.27-0.02,17.7c0,1.76,0,3.6,0,5.55" id="Ske29f9js43" kvg:type="㇑" transform="matrix(1,0,0,1,1196,-4)" xmlns:kvg="http://kanjivg.tagaini.net"></path><path class="stroke_order_diagram--current_path" d="M55,64.04c2.75-0.26,32.12-3.76,34.17-3.92c2.41-0.19,4.08,1.5,3.84,4.42c-0.68,8.43-1.1,13.78-3.03,22.62c-1.28,5.85-4.37,0.82-5.53-1.23" id="kvg:07dbf-s13" kvg:type="㇆a" transform="matrix(1,0,0,1,1196,-4)" xmlns:kvg="http://kanjivg.tagaini.net"></path><path class="stroke_order_diagram--current_path" d="M55,64.04c2.75-0.26,32.12-3.76,34.17-3.92c2.41-0.19,4.08,1.5,3.84,4.42c-0.68,8.43-1.1,13.78-3.03,22.62c-1.28,5.85-4.37,0.82-5.53-1.23" id="Ske29f9js45" kvg:type="㇆a" transform="matrix(1,0,0,1,1196,-4)" xmlns:kvg="http://kanjivg.tagaini.net"></path><circle class="stroke_order_diagram--path_start" cx="55" cy="64.04" r="4" transform="matrix(1,0,0,1,1196,-4)"></circle><line class="stroke_order_diagram--guide_line" x1="1350" x2="1350" y1="1" y2="99"></line><line class="stroke_order_diagram--bounding_box" x1="1399" x2="1399" y1="1" y2="99"></line><path class="stroke_order_diagram--existing_path" d="M29.19,15.67c0.29,1.32,0.09,2.67-0.65,3.99C25,26,20.75,32.02,16.83,37.09c-0.54,0.7-0.34,2.3,0.25,2.55c3.09,1.32,6.04,2.61,9.49,4.98" id="Ske29f9js48" kvg:type="㇜" transform="matrix(1,0,0,1,1296,-4)" xmlns:kvg="http://kanjivg.tagaini.net"></path><path class="stroke_order_diagram--existing_path" d="M41.05,23.18c0.2,0.82,0.32,2.2-0.25,3.09c-6.16,9.62-14.93,22.36-22.98,31.94c-1.69,2.02,0.46,2.98,1.65,2.59c5-1.61,15.03-5.05,22.04-7.28" id="Ske29f9js49" kvg:type="㇜" transform="matrix(1,0,0,1,1296,-4)" xmlns:kvg="http://kanjivg.tagaini.net"></path><path class="stroke_order_diagram--existing_path" d="M38.13,46.63c2.6,2.14,6.72,8.78,7.37,12.1" id="Ske29f9js4a" kvg:type="㇔" transform="matrix(1,0,0,1,1296,-4)" xmlns:kvg="http://kanjivg.tagaini.net"></path><path class="stroke_order_diagram--existing_path" d="M30.39,61.12c0.81,0.81,1.23,1.88,1.23,3.34c0,9.3-0.11,20.34-0.17,27.79c-0.02,2.39-0.03,4.49-0.03,6.17" id="Ske29f9js4b" kvg:type="㇑" transform="matrix(1,0,0,1,1296,-4)" xmlns:kvg="http://kanjivg.tagaini.net"></path><path class="stroke_order_diagram--existing_path" d="M20.1,71.1c0.16,0.92-0.11,2.48-0.41,3.14c-1.94,4.3-7.06,12.58-9.81,16.26" id="Ske29f9js4c" kvg:type="㇒" transform="matrix(1,0,0,1,1296,-4)" xmlns:kvg="http://kanjivg.tagaini.net"></path><path class="stroke_order_diagram--existing_path" d="M39.88,67.12c2.15,3.45,3.8,11.47,4.3,14.6" id="Ske29f9js4d" kvg:type="㇔" transform="matrix(1,0,0,1,1296,-4)" xmlns:kvg="http://kanjivg.tagaini.net"></path><path class="stroke_order_diagram--existing_path" d="M70.25,10c0.25,0.88,0.12,1.88-0.25,2.69c-1.34,2.96-2.87,5.18-5.88,9.31" id="Ske29f9js4e" kvg:type="㇒" transform="matrix(1,0,0,1,1296,-4)" xmlns:kvg="http://kanjivg.tagaini.net"></path><path class="stroke_order_diagram--existing_path" d="M52.6,23.61c0.89,0.89,1.38,2.11,1.54,3.53c0.61,5.61,1.48,10.54,2.44,19.85c0.15,1.4,0.29,2.79,0.41,4.13" id="Ske29f9js4f" kvg:type="㇑" transform="matrix(1,0,0,1,1296,-4)" xmlns:kvg="http://kanjivg.tagaini.net"></path><path class="stroke_order_diagram--existing_path" d="M54.45,25.13c5.95-0.78,25.03-3,30.92-3.17c3-0.09,4.63,2.16,4.15,4.79c-0.54,2.95-1.35,9.1-3.25,17.06c-0.32,1.34-0.67,2.72-1.05,4.13" id="Ske29f9js4g" kvg:type="㇕a" transform="matrix(1,0,0,1,1296,-4)" xmlns:kvg="http://kanjivg.tagaini.net"></path><path class="stroke_order_diagram--existing_path" d="M56.58,36.41c8-0.63,23.3-2.07,30.51-2.31" id="Ske29f9js4h" kvg:type="㇐a" transform="matrix(1,0,0,1,1296,-4)" xmlns:kvg="http://kanjivg.tagaini.net"></path><path class="stroke_order_diagram--existing_path" d="M58.01,48.66c10.51-1.2,18.74-1.66,26.47-1.99" id="Ske29f9js4i" kvg:type="㇐a" transform="matrix(1,0,0,1,1296,-4)" xmlns:kvg="http://kanjivg.tagaini.net"></path><path class="stroke_order_diagram--existing_path" d="M52.37,60.9c0.99,0.99,1.5,2.35,1.58,3.9c0.29,5.84-0.01,11.27-0.02,17.7c0,1.76,0,3.6,0,5.55" id="Ske29f9js4j" kvg:type="㇑" transform="matrix(1,0,0,1,1296,-4)" xmlns:kvg="http://kanjivg.tagaini.net"></path><path class="stroke_order_diagram--existing_path" d="M55,64.04c2.75-0.26,32.12-3.76,34.17-3.92c2.41-0.19,4.08,1.5,3.84,4.42c-0.68,8.43-1.1,13.78-3.03,22.62c-1.28,5.85-4.37,0.82-5.53-1.23" id="Ske29f9js4k" kvg:type="㇆a" transform="matrix(1,0,0,1,1296,-4)" xmlns:kvg="http://kanjivg.tagaini.net"></path><path class="stroke_order_diagram--current_path" d="M69.67,50.49c0.98,0.98,1.31,2.39,1.31,3.74c0,3.4,0.01,21.36-0.09,35.03c-0.04,5.26-0.08,9.34-0.11,10.62" id="kvg:07dbf-s14" kvg:type="㇑" transform="matrix(1,0,0,1,1296,-4)" xmlns:kvg="http://kanjivg.tagaini.net"></path><path class="stroke_order_diagram--current_path" d="M69.67,50.49c0.98,0.98,1.31,2.39,1.31,3.74c0,3.4,0.01,21.36-0.09,35.03c-0.04,5.26-0.08,9.34-0.11,10.62" id="Ske29f9js4m" kvg:type="㇑" transform="matrix(1,0,0,1,1296,-4)" xmlns:kvg="http://kanjivg.tagaini.net"></path><circle class="stroke_order_diagram--path_start" cx="69.67" cy="50.49" r="4" transform="matrix(1,0,0,1,1296,-4)"></circle></svg>