<svg class="stroke_order_diagram--svg_container_for_51866289d5dda7965800063e" style="height: 100px; width: 1500px;" viewbox="0 0 1500 100"><desc>Created with Snap</desc><defs></defs><line class="stroke_order_diagram--bounding_box" x1="1" x2="1499" y1="1" y2="1"></line><line class="stroke_order_diagram--bounding_box" x1="1" x2="1" y1="1" y2="99"></line><line class="stroke_order_diagram--bounding_box" x1="1" x2="1499" y1="99" y2="99"></line><line class="stroke_order_diagram--guide_line" x1="0" x2="1500" y1="50" y2="50"></line><line class="stroke_order_diagram--guide_line" x1="50" x2="50" y1="1" y2="99"></line><line class="stroke_order_diagram--bounding_box" x1="99" x2="99" y1="1" y2="99"></line><path class="stroke_order_diagram--current_path" d="M30.9,14c0.49,1.93,0.1,3.5-0.93,5.15c-4.47,7.1-10.65,15.21-13.54,17.84c-0.64,0.58-0.62,2.81,0,3.04c3.26,1.21,6.84,3.74,9.64,5.97" id="kvg:07dda-s1" kvg:type="㇜" transform="matrix(1,0,0,1,-4,-4)" xmlns:kvg="http://kanjivg.tagaini.net"></path><path class="stroke_order_diagram--current_path" d="M30.9,14c0.49,1.93,0.1,3.5-0.93,5.15c-4.47,7.1-10.65,15.21-13.54,17.84c-0.64,0.58-0.62,2.81,0,3.04c3.26,1.21,6.84,3.74,9.64,5.97" id="Ske208cg0o" kvg:type="㇜" transform="matrix(1,0,0,1,-4,-4)" xmlns:kvg="http://kanjivg.tagaini.net"></path><circle class="stroke_order_diagram--path_start" cx="30.9" cy="14" r="4" transform="matrix(1,0,0,1,-4,-4)"></circle><line class="stroke_order_diagram--guide_line" x1="150" x2="150" y1="1" y2="99"></line><line class="stroke_order_diagram--bounding_box" x1="199" x2="199" y1="1" y2="99"></line><path class="stroke_order_diagram--existing_path" d="M30.9,14c0.49,1.93,0.1,3.5-0.93,5.15c-4.47,7.1-10.65,15.21-13.54,17.84c-0.64,0.58-0.62,2.81,0,3.04c3.26,1.21,6.84,3.74,9.64,5.97" id="Ske208cg0r" kvg:type="㇜" transform="matrix(1,0,0,1,96,-4)" xmlns:kvg="http://kanjivg.tagaini.net"></path><path class="stroke_order_diagram--current_path" d="M40.53,25.44c0.47,1.31-0.11,3.17-0.95,4.27C33,38.25,24.44,50.07,17.15,57.61c-1.74,1.8,0.43,2.83,1.57,2.47c4.75-1.53,13.62-3.77,19.73-5.24" id="kvg:07dda-s2" kvg:type="㇜" transform="matrix(1,0,0,1,96,-4)" xmlns:kvg="http://kanjivg.tagaini.net"></path><path class="stroke_order_diagram--current_path" d="M40.53,25.44c0.47,1.31-0.11,3.17-0.95,4.27C33,38.25,24.44,50.07,17.15,57.61c-1.74,1.8,0.43,2.83,1.57,2.47c4.75-1.53,13.62-3.77,19.73-5.24" id="Ske208cg0t" kvg:type="㇜" transform="matrix(1,0,0,1,96,-4)" xmlns:kvg="http://kanjivg.tagaini.net"></path><circle class="stroke_order_diagram--path_start" cx="40.53" cy="25.44" r="4" transform="matrix(1,0,0,1,96,-4)"></circle><line class="stroke_order_diagram--guide_line" x1="250" x2="250" y1="1" y2="99"></line><line class="stroke_order_diagram--bounding_box" x1="299" x2="299" y1="1" y2="99"></line><path class="stroke_order_diagram--existing_path" d="M30.9,14c0.49,1.93,0.1,3.5-0.93,5.15c-4.47,7.1-10.65,15.21-13.54,17.84c-0.64,0.58-0.62,2.81,0,3.04c3.26,1.21,6.84,3.74,9.64,5.97" id="Ske208cg0w" kvg:type="㇜" transform="matrix(1,0,0,1,196,-4)" xmlns:kvg="http://kanjivg.tagaini.net"></path><path class="stroke_order_diagram--existing_path" d="M40.53,25.44c0.47,1.31-0.11,3.17-0.95,4.27C33,38.25,24.44,50.07,17.15,57.61c-1.74,1.8,0.43,2.83,1.57,2.47c4.75-1.53,13.62-3.77,19.73-5.24" id="Ske208cg0x" kvg:type="㇜" transform="matrix(1,0,0,1,196,-4)" xmlns:kvg="http://kanjivg.tagaini.net"></path><path class="stroke_order_diagram--current_path" d="M36.25,47.5c2.47,2.25,6.38,9.25,7,12.75" id="kvg:07dda-s3" kvg:type="㇔" transform="matrix(1,0,0,1,196,-4)" xmlns:kvg="http://kanjivg.tagaini.net"></path><path class="stroke_order_diagram--current_path" d="M36.25,47.5c2.47,2.25,6.38,9.25,7,12.75" id="Ske208cg0z" kvg:type="㇔" transform="matrix(1,0,0,1,196,-4)" xmlns:kvg="http://kanjivg.tagaini.net"></path><circle class="stroke_order_diagram--path_start" cx="36.25" cy="47.5" r="4" transform="matrix(1,0,0,1,196,-4)"></circle><line class="stroke_order_diagram--guide_line" x1="350" x2="350" y1="1" y2="99"></line><line class="stroke_order_diagram--bounding_box" x1="399" x2="399" y1="1" y2="99"></line><path class="stroke_order_diagram--existing_path" d="M30.9,14c0.49,1.93,0.1,3.5-0.93,5.15c-4.47,7.1-10.65,15.21-13.54,17.84c-0.64,0.58-0.62,2.81,0,3.04c3.26,1.21,6.84,3.74,9.64,5.97" id="Ske208cg012" kvg:type="㇜" transform="matrix(1,0,0,1,296,-4)" xmlns:kvg="http://kanjivg.tagaini.net"></path><path class="stroke_order_diagram--existing_path" d="M40.53,25.44c0.47,1.31-0.11,3.17-0.95,4.27C33,38.25,24.44,50.07,17.15,57.61c-1.74,1.8,0.43,2.83,1.57,2.47c4.75-1.53,13.62-3.77,19.73-5.24" id="Ske208cg013" kvg:type="㇜" transform="matrix(1,0,0,1,296,-4)" xmlns:kvg="http://kanjivg.tagaini.net"></path><path class="stroke_order_diagram--existing_path" d="M36.25,47.5c2.47,2.25,6.38,9.25,7,12.75" id="Ske208cg014" kvg:type="㇔" transform="matrix(1,0,0,1,296,-4)" xmlns:kvg="http://kanjivg.tagaini.net"></path><path class="stroke_order_diagram--current_path" d="M26.99,59.75c1,1,1.68,2.02,1.68,4.17c0,9.66-0.1,20.53-0.15,26.83c-0.02,2.56-0.04,4.49-0.04,5.5" id="kvg:07dda-s4" kvg:type="㇑" transform="matrix(1,0,0,1,296,-4)" xmlns:kvg="http://kanjivg.tagaini.net"></path><path class="stroke_order_diagram--current_path" d="M26.99,59.75c1,1,1.68,2.02,1.68,4.17c0,9.66-0.1,20.53-0.15,26.83c-0.02,2.56-0.04,4.49-0.04,5.5" id="Ske208cg016" kvg:type="㇑" transform="matrix(1,0,0,1,296,-4)" xmlns:kvg="http://kanjivg.tagaini.net"></path><circle class="stroke_order_diagram--path_start" cx="26.99" cy="59.75" r="4" transform="matrix(1,0,0,1,296,-4)"></circle><line class="stroke_order_diagram--guide_line" x1="450" x2="450" y1="1" y2="99"></line><line class="stroke_order_diagram--bounding_box" x1="499" x2="499" y1="1" y2="99"></line><path class="stroke_order_diagram--existing_path" d="M30.9,14c0.49,1.93,0.1,3.5-0.93,5.15c-4.47,7.1-10.65,15.21-13.54,17.84c-0.64,0.58-0.62,2.81,0,3.04c3.26,1.21,6.84,3.74,9.64,5.97" id="Ske208cg019" kvg:type="㇜" transform="matrix(1,0,0,1,396,-4)" xmlns:kvg="http://kanjivg.tagaini.net"></path><path class="stroke_order_diagram--existing_path" d="M40.53,25.44c0.47,1.31-0.11,3.17-0.95,4.27C33,38.25,24.44,50.07,17.15,57.61c-1.74,1.8,0.43,2.83,1.57,2.47c4.75-1.53,13.62-3.77,19.73-5.24" id="Ske208cg01a" kvg:type="㇜" transform="matrix(1,0,0,1,396,-4)" xmlns:kvg="http://kanjivg.tagaini.net"></path><path class="stroke_order_diagram--existing_path" d="M36.25,47.5c2.47,2.25,6.38,9.25,7,12.75" id="Ske208cg01b" kvg:type="㇔" transform="matrix(1,0,0,1,396,-4)" xmlns:kvg="http://kanjivg.tagaini.net"></path><path class="stroke_order_diagram--existing_path" d="M26.99,59.75c1,1,1.68,2.02,1.68,4.17c0,9.66-0.1,20.53-0.15,26.83c-0.02,2.56-0.04,4.49-0.04,5.5" id="Ske208cg01c" kvg:type="㇑" transform="matrix(1,0,0,1,396,-4)" xmlns:kvg="http://kanjivg.tagaini.net"></path><path class="stroke_order_diagram--current_path" d="M18.63,70.62c0.36,1.76,0.09,2.86-0.36,3.94c-1.5,3.61-3.65,8.06-6.77,12.69" id="kvg:07dda-s5" kvg:type="㇒" transform="matrix(1,0,0,1,396,-4)" xmlns:kvg="http://kanjivg.tagaini.net"></path><path class="stroke_order_diagram--current_path" d="M18.63,70.62c0.36,1.76,0.09,2.86-0.36,3.94c-1.5,3.61-3.65,8.06-6.77,12.69" id="Ske208cg01e" kvg:type="㇒" transform="matrix(1,0,0,1,396,-4)" xmlns:kvg="http://kanjivg.tagaini.net"></path><circle class="stroke_order_diagram--path_start" cx="18.63" cy="70.62" r="4" transform="matrix(1,0,0,1,396,-4)"></circle><line class="stroke_order_diagram--guide_line" x1="550" x2="550" y1="1" y2="99"></line><line class="stroke_order_diagram--bounding_box" x1="599" x2="599" y1="1" y2="99"></line><path class="stroke_order_diagram--existing_path" d="M30.9,14c0.49,1.93,0.1,3.5-0.93,5.15c-4.47,7.1-10.65,15.21-13.54,17.84c-0.64,0.58-0.62,2.81,0,3.04c3.26,1.21,6.84,3.74,9.64,5.97" id="Ske208cg01h" kvg:type="㇜" transform="matrix(1,0,0,1,496,-4)" xmlns:kvg="http://kanjivg.tagaini.net"></path><path class="stroke_order_diagram--existing_path" d="M40.53,25.44c0.47,1.31-0.11,3.17-0.95,4.27C33,38.25,24.44,50.07,17.15,57.61c-1.74,1.8,0.43,2.83,1.57,2.47c4.75-1.53,13.62-3.77,19.73-5.24" id="Ske208cg01i" kvg:type="㇜" transform="matrix(1,0,0,1,496,-4)" xmlns:kvg="http://kanjivg.tagaini.net"></path><path class="stroke_order_diagram--existing_path" d="M36.25,47.5c2.47,2.25,6.38,9.25,7,12.75" id="Ske208cg01j" kvg:type="㇔" transform="matrix(1,0,0,1,496,-4)" xmlns:kvg="http://kanjivg.tagaini.net"></path><path class="stroke_order_diagram--existing_path" d="M26.99,59.75c1,1,1.68,2.02,1.68,4.17c0,9.66-0.1,20.53-0.15,26.83c-0.02,2.56-0.04,4.49-0.04,5.5" id="Ske208cg01k" kvg:type="㇑" transform="matrix(1,0,0,1,496,-4)" xmlns:kvg="http://kanjivg.tagaini.net"></path><path class="stroke_order_diagram--existing_path" d="M18.63,70.62c0.36,1.76,0.09,2.86-0.36,3.94c-1.5,3.61-3.65,8.06-6.77,12.69" id="Ske208cg01l" kvg:type="㇒" transform="matrix(1,0,0,1,496,-4)" xmlns:kvg="http://kanjivg.tagaini.net"></path><path class="stroke_order_diagram--current_path" d="M37.5,69.12c2.85,3.35,4.09,10.09,4.75,13.12" id="kvg:07dda-s6" kvg:type="㇔" transform="matrix(1,0,0,1,496,-4)" xmlns:kvg="http://kanjivg.tagaini.net"></path><path class="stroke_order_diagram--current_path" d="M37.5,69.12c2.85,3.35,4.09,10.09,4.75,13.12" id="Ske208cg01n" kvg:type="㇔" transform="matrix(1,0,0,1,496,-4)" xmlns:kvg="http://kanjivg.tagaini.net"></path><circle class="stroke_order_diagram--path_start" cx="37.5" cy="69.12" r="4" transform="matrix(1,0,0,1,496,-4)"></circle><line class="stroke_order_diagram--guide_line" x1="650" x2="650" y1="1" y2="99"></line><line class="stroke_order_diagram--bounding_box" x1="699" x2="699" y1="1" y2="99"></line><path class="stroke_order_diagram--existing_path" d="M30.9,14c0.49,1.93,0.1,3.5-0.93,5.15c-4.47,7.1-10.65,15.21-13.54,17.84c-0.64,0.58-0.62,2.81,0,3.04c3.26,1.21,6.84,3.74,9.64,5.97" id="Ske208cg01q" kvg:type="㇜" transform="matrix(1,0,0,1,596,-4)" xmlns:kvg="http://kanjivg.tagaini.net"></path><path class="stroke_order_diagram--existing_path" d="M40.53,25.44c0.47,1.31-0.11,3.17-0.95,4.27C33,38.25,24.44,50.07,17.15,57.61c-1.74,1.8,0.43,2.83,1.57,2.47c4.75-1.53,13.62-3.77,19.73-5.24" id="Ske208cg01r" kvg:type="㇜" transform="matrix(1,0,0,1,596,-4)" xmlns:kvg="http://kanjivg.tagaini.net"></path><path class="stroke_order_diagram--existing_path" d="M36.25,47.5c2.47,2.25,6.38,9.25,7,12.75" id="Ske208cg01s" kvg:type="㇔" transform="matrix(1,0,0,1,596,-4)" xmlns:kvg="http://kanjivg.tagaini.net"></path><path class="stroke_order_diagram--existing_path" d="M26.99,59.75c1,1,1.68,2.02,1.68,4.17c0,9.66-0.1,20.53-0.15,26.83c-0.02,2.56-0.04,4.49-0.04,5.5" id="Ske208cg01t" kvg:type="㇑" transform="matrix(1,0,0,1,596,-4)" xmlns:kvg="http://kanjivg.tagaini.net"></path><path class="stroke_order_diagram--existing_path" d="M18.63,70.62c0.36,1.76,0.09,2.86-0.36,3.94c-1.5,3.61-3.65,8.06-6.77,12.69" id="Ske208cg01u" kvg:type="㇒" transform="matrix(1,0,0,1,596,-4)" xmlns:kvg="http://kanjivg.tagaini.net"></path><path class="stroke_order_diagram--existing_path" d="M37.5,69.12c2.85,3.35,4.09,10.09,4.75,13.12" id="Ske208cg01v" kvg:type="㇔" transform="matrix(1,0,0,1,596,-4)" xmlns:kvg="http://kanjivg.tagaini.net"></path><path class="stroke_order_diagram--current_path" d="M66.12,12.12c0.32,0.79,0.3,2-0.03,2.75c-0.84,2.6-3.37,6.27-5.71,9.06" id="kvg:07dda-s7" kvg:type="㇒" transform="matrix(1,0,0,1,596,-4)" xmlns:kvg="http://kanjivg.tagaini.net"></path><path class="stroke_order_diagram--current_path" d="M66.12,12.12c0.32,0.79,0.3,2-0.03,2.75c-0.84,2.6-3.37,6.27-5.71,9.06" id="Ske208cg01x" kvg:type="㇒" transform="matrix(1,0,0,1,596,-4)" xmlns:kvg="http://kanjivg.tagaini.net"></path><circle class="stroke_order_diagram--path_start" cx="66.12" cy="12.12" r="4" transform="matrix(1,0,0,1,596,-4)"></circle><line class="stroke_order_diagram--guide_line" x1="750" x2="750" y1="1" y2="99"></line><line class="stroke_order_diagram--bounding_box" x1="799" x2="799" y1="1" y2="99"></line><path class="stroke_order_diagram--existing_path" d="M30.9,14c0.49,1.93,0.1,3.5-0.93,5.15c-4.47,7.1-10.65,15.21-13.54,17.84c-0.64,0.58-0.62,2.81,0,3.04c3.26,1.21,6.84,3.74,9.64,5.97" id="Ske208cg020" kvg:type="㇜" transform="matrix(1,0,0,1,696,-4)" xmlns:kvg="http://kanjivg.tagaini.net"></path><path class="stroke_order_diagram--existing_path" d="M40.53,25.44c0.47,1.31-0.11,3.17-0.95,4.27C33,38.25,24.44,50.07,17.15,57.61c-1.74,1.8,0.43,2.83,1.57,2.47c4.75-1.53,13.62-3.77,19.73-5.24" id="Ske208cg021" kvg:type="㇜" transform="matrix(1,0,0,1,696,-4)" xmlns:kvg="http://kanjivg.tagaini.net"></path><path class="stroke_order_diagram--existing_path" d="M36.25,47.5c2.47,2.25,6.38,9.25,7,12.75" id="Ske208cg022" kvg:type="㇔" transform="matrix(1,0,0,1,696,-4)" xmlns:kvg="http://kanjivg.tagaini.net"></path><path class="stroke_order_diagram--existing_path" d="M26.99,59.75c1,1,1.68,2.02,1.68,4.17c0,9.66-0.1,20.53-0.15,26.83c-0.02,2.56-0.04,4.49-0.04,5.5" id="Ske208cg023" kvg:type="㇑" transform="matrix(1,0,0,1,696,-4)" xmlns:kvg="http://kanjivg.tagaini.net"></path><path class="stroke_order_diagram--existing_path" d="M18.63,70.62c0.36,1.76,0.09,2.86-0.36,3.94c-1.5,3.61-3.65,8.06-6.77,12.69" id="Ske208cg024" kvg:type="㇒" transform="matrix(1,0,0,1,696,-4)" xmlns:kvg="http://kanjivg.tagaini.net"></path><path class="stroke_order_diagram--existing_path" d="M37.5,69.12c2.85,3.35,4.09,10.09,4.75,13.12" id="Ske208cg025" kvg:type="㇔" transform="matrix(1,0,0,1,696,-4)" xmlns:kvg="http://kanjivg.tagaini.net"></path><path class="stroke_order_diagram--existing_path" d="M66.12,12.12c0.32,0.79,0.3,2-0.03,2.75c-0.84,2.6-3.37,6.27-5.71,9.06" id="Ske208cg026" kvg:type="㇒" transform="matrix(1,0,0,1,696,-4)" xmlns:kvg="http://kanjivg.tagaini.net"></path><path class="stroke_order_diagram--current_path" d="M49.09,26.97c0.97,0.97,1.76,2.43,2.03,4.01c1.25,7.15,2.09,12.2,2.88,17.53c0.2,1.34,0.34,2.42,0.38,3.08" id="kvg:07dda-s8" kvg:type="㇑" transform="matrix(1,0,0,1,696,-4)" xmlns:kvg="http://kanjivg.tagaini.net"></path><path class="stroke_order_diagram--current_path" d="M49.09,26.97c0.97,0.97,1.76,2.43,2.03,4.01c1.25,7.15,2.09,12.2,2.88,17.53c0.2,1.34,0.34,2.42,0.38,3.08" id="Ske208cg028" kvg:type="㇑" transform="matrix(1,0,0,1,696,-4)" xmlns:kvg="http://kanjivg.tagaini.net"></path><circle class="stroke_order_diagram--path_start" cx="49.09" cy="26.97" r="4" transform="matrix(1,0,0,1,696,-4)"></circle><line class="stroke_order_diagram--guide_line" x1="850" x2="850" y1="1" y2="99"></line><line class="stroke_order_diagram--bounding_box" x1="899" x2="899" y1="1" y2="99"></line><path class="stroke_order_diagram--existing_path" d="M30.9,14c0.49,1.93,0.1,3.5-0.93,5.15c-4.47,7.1-10.65,15.21-13.54,17.84c-0.64,0.58-0.62,2.81,0,3.04c3.26,1.21,6.84,3.74,9.64,5.97" id="Ske208cg02b" kvg:type="㇜" transform="matrix(1,0,0,1,796,-4)" xmlns:kvg="http://kanjivg.tagaini.net"></path><path class="stroke_order_diagram--existing_path" d="M40.53,25.44c0.47,1.31-0.11,3.17-0.95,4.27C33,38.25,24.44,50.07,17.15,57.61c-1.74,1.8,0.43,2.83,1.57,2.47c4.75-1.53,13.62-3.77,19.73-5.24" id="Ske208cg02c" kvg:type="㇜" transform="matrix(1,0,0,1,796,-4)" xmlns:kvg="http://kanjivg.tagaini.net"></path><path class="stroke_order_diagram--existing_path" d="M36.25,47.5c2.47,2.25,6.38,9.25,7,12.75" id="Ske208cg02d" kvg:type="㇔" transform="matrix(1,0,0,1,796,-4)" xmlns:kvg="http://kanjivg.tagaini.net"></path><path class="stroke_order_diagram--existing_path" d="M26.99,59.75c1,1,1.68,2.02,1.68,4.17c0,9.66-0.1,20.53-0.15,26.83c-0.02,2.56-0.04,4.49-0.04,5.5" id="Ske208cg02e" kvg:type="㇑" transform="matrix(1,0,0,1,796,-4)" xmlns:kvg="http://kanjivg.tagaini.net"></path><path class="stroke_order_diagram--existing_path" d="M18.63,70.62c0.36,1.76,0.09,2.86-0.36,3.94c-1.5,3.61-3.65,8.06-6.77,12.69" id="Ske208cg02f" kvg:type="㇒" transform="matrix(1,0,0,1,796,-4)" xmlns:kvg="http://kanjivg.tagaini.net"></path><path class="stroke_order_diagram--existing_path" d="M37.5,69.12c2.85,3.35,4.09,10.09,4.75,13.12" id="Ske208cg02g" kvg:type="㇔" transform="matrix(1,0,0,1,796,-4)" xmlns:kvg="http://kanjivg.tagaini.net"></path><path class="stroke_order_diagram--existing_path" d="M66.12,12.12c0.32,0.79,0.3,2-0.03,2.75c-0.84,2.6-3.37,6.27-5.71,9.06" id="Ske208cg02h" kvg:type="㇒" transform="matrix(1,0,0,1,796,-4)" xmlns:kvg="http://kanjivg.tagaini.net"></path><path class="stroke_order_diagram--existing_path" d="M49.09,26.97c0.97,0.97,1.76,2.43,2.03,4.01c1.25,7.15,2.09,12.2,2.88,17.53c0.2,1.34,0.34,2.42,0.38,3.08" id="Ske208cg02i" kvg:type="㇑" transform="matrix(1,0,0,1,796,-4)" xmlns:kvg="http://kanjivg.tagaini.net"></path><path class="stroke_order_diagram--current_path" d="M51.28,27.74c9.1-1.24,28.72-3.86,33.77-4.18c2.38-0.15,3.87,1.34,3.43,3.6c-0.2,1.07-1.82,9.53-3.62,17.61c-0.26,1.15-0.52,2.3-0.79,3.41" id="kvg:07dda-s9" kvg:type="㇕a" transform="matrix(1,0,0,1,796,-4)" xmlns:kvg="http://kanjivg.tagaini.net"></path><path class="stroke_order_diagram--current_path" d="M51.28,27.74c9.1-1.24,28.72-3.86,33.77-4.18c2.38-0.15,3.87,1.34,3.43,3.6c-0.2,1.07-1.82,9.53-3.62,17.61c-0.26,1.15-0.52,2.3-0.79,3.41" id="Ske208cg02k" kvg:type="㇕a" transform="matrix(1,0,0,1,796,-4)" xmlns:kvg="http://kanjivg.tagaini.net"></path><circle class="stroke_order_diagram--path_start" cx="51.28" cy="27.74" r="4" transform="matrix(1,0,0,1,796,-4)"></circle><line class="stroke_order_diagram--guide_line" x1="950" x2="950" y1="1" y2="99"></line><line class="stroke_order_diagram--bounding_box" x1="999" x2="999" y1="1" y2="99"></line><path class="stroke_order_diagram--existing_path" d="M30.9,14c0.49,1.93,0.1,3.5-0.93,5.15c-4.47,7.1-10.65,15.21-13.54,17.84c-0.64,0.58-0.62,2.81,0,3.04c3.26,1.21,6.84,3.74,9.64,5.97" id="Ske208cg02n" kvg:type="㇜" transform="matrix(1,0,0,1,896,-4)" xmlns:kvg="http://kanjivg.tagaini.net"></path><path class="stroke_order_diagram--existing_path" d="M40.53,25.44c0.47,1.31-0.11,3.17-0.95,4.27C33,38.25,24.44,50.07,17.15,57.61c-1.74,1.8,0.43,2.83,1.57,2.47c4.75-1.53,13.62-3.77,19.73-5.24" id="Ske208cg02o" kvg:type="㇜" transform="matrix(1,0,0,1,896,-4)" xmlns:kvg="http://kanjivg.tagaini.net"></path><path class="stroke_order_diagram--existing_path" d="M36.25,47.5c2.47,2.25,6.38,9.25,7,12.75" id="Ske208cg02p" kvg:type="㇔" transform="matrix(1,0,0,1,896,-4)" xmlns:kvg="http://kanjivg.tagaini.net"></path><path class="stroke_order_diagram--existing_path" d="M26.99,59.75c1,1,1.68,2.02,1.68,4.17c0,9.66-0.1,20.53-0.15,26.83c-0.02,2.56-0.04,4.49-0.04,5.5" id="Ske208cg02q" kvg:type="㇑" transform="matrix(1,0,0,1,896,-4)" xmlns:kvg="http://kanjivg.tagaini.net"></path><path class="stroke_order_diagram--existing_path" d="M18.63,70.62c0.36,1.76,0.09,2.86-0.36,3.94c-1.5,3.61-3.65,8.06-6.77,12.69" id="Ske208cg02r" kvg:type="㇒" transform="matrix(1,0,0,1,896,-4)" xmlns:kvg="http://kanjivg.tagaini.net"></path><path class="stroke_order_diagram--existing_path" d="M37.5,69.12c2.85,3.35,4.09,10.09,4.75,13.12" id="Ske208cg02s" kvg:type="㇔" transform="matrix(1,0,0,1,896,-4)" xmlns:kvg="http://kanjivg.tagaini.net"></path><path class="stroke_order_diagram--existing_path" d="M66.12,12.12c0.32,0.79,0.3,2-0.03,2.75c-0.84,2.6-3.37,6.27-5.71,9.06" id="Ske208cg02t" kvg:type="㇒" transform="matrix(1,0,0,1,896,-4)" xmlns:kvg="http://kanjivg.tagaini.net"></path><path class="stroke_order_diagram--existing_path" d="M49.09,26.97c0.97,0.97,1.76,2.43,2.03,4.01c1.25,7.15,2.09,12.2,2.88,17.53c0.2,1.34,0.34,2.42,0.38,3.08" id="Ske208cg02u" kvg:type="㇑" transform="matrix(1,0,0,1,896,-4)" xmlns:kvg="http://kanjivg.tagaini.net"></path><path class="stroke_order_diagram--existing_path" d="M51.28,27.74c9.1-1.24,28.72-3.86,33.77-4.18c2.38-0.15,3.87,1.34,3.43,3.6c-0.2,1.07-1.82,9.53-3.62,17.61c-0.26,1.15-0.52,2.3-0.79,3.41" id="Ske208cg02v" kvg:type="㇕a" transform="matrix(1,0,0,1,896,-4)" xmlns:kvg="http://kanjivg.tagaini.net"></path><path class="stroke_order_diagram--current_path" d="M53.64,38.24c9.11-1.24,21.98-2.86,32.19-3.67" id="kvg:07dda-s10" kvg:type="㇐a" transform="matrix(1,0,0,1,896,-4)" xmlns:kvg="http://kanjivg.tagaini.net"></path><path class="stroke_order_diagram--current_path" d="M53.64,38.24c9.11-1.24,21.98-2.86,32.19-3.67" id="Ske208cg02x" kvg:type="㇐a" transform="matrix(1,0,0,1,896,-4)" xmlns:kvg="http://kanjivg.tagaini.net"></path><circle class="stroke_order_diagram--path_start" cx="53.64" cy="38.24" r="4" transform="matrix(1,0,0,1,896,-4)"></circle><line class="stroke_order_diagram--guide_line" x1="1050" x2="1050" y1="1" y2="99"></line><line class="stroke_order_diagram--bounding_box" x1="1099" x2="1099" y1="1" y2="99"></line><path class="stroke_order_diagram--existing_path" d="M30.9,14c0.49,1.93,0.1,3.5-0.93,5.15c-4.47,7.1-10.65,15.21-13.54,17.84c-0.64,0.58-0.62,2.81,0,3.04c3.26,1.21,6.84,3.74,9.64,5.97" id="Ske208cg030" kvg:type="㇜" transform="matrix(1,0,0,1,996,-4)" xmlns:kvg="http://kanjivg.tagaini.net"></path><path class="stroke_order_diagram--existing_path" d="M40.53,25.44c0.47,1.31-0.11,3.17-0.95,4.27C33,38.25,24.44,50.07,17.15,57.61c-1.74,1.8,0.43,2.83,1.57,2.47c4.75-1.53,13.62-3.77,19.73-5.24" id="Ske208cg031" kvg:type="㇜" transform="matrix(1,0,0,1,996,-4)" xmlns:kvg="http://kanjivg.tagaini.net"></path><path class="stroke_order_diagram--existing_path" d="M36.25,47.5c2.47,2.25,6.38,9.25,7,12.75" id="Ske208cg032" kvg:type="㇔" transform="matrix(1,0,0,1,996,-4)" xmlns:kvg="http://kanjivg.tagaini.net"></path><path class="stroke_order_diagram--existing_path" d="M26.99,59.75c1,1,1.68,2.02,1.68,4.17c0,9.66-0.1,20.53-0.15,26.83c-0.02,2.56-0.04,4.49-0.04,5.5" id="Ske208cg033" kvg:type="㇑" transform="matrix(1,0,0,1,996,-4)" xmlns:kvg="http://kanjivg.tagaini.net"></path><path class="stroke_order_diagram--existing_path" d="M18.63,70.62c0.36,1.76,0.09,2.86-0.36,3.94c-1.5,3.61-3.65,8.06-6.77,12.69" id="Ske208cg034" kvg:type="㇒" transform="matrix(1,0,0,1,996,-4)" xmlns:kvg="http://kanjivg.tagaini.net"></path><path class="stroke_order_diagram--existing_path" d="M37.5,69.12c2.85,3.35,4.09,10.09,4.75,13.12" id="Ske208cg035" kvg:type="㇔" transform="matrix(1,0,0,1,996,-4)" xmlns:kvg="http://kanjivg.tagaini.net"></path><path class="stroke_order_diagram--existing_path" d="M66.12,12.12c0.32,0.79,0.3,2-0.03,2.75c-0.84,2.6-3.37,6.27-5.71,9.06" id="Ske208cg036" kvg:type="㇒" transform="matrix(1,0,0,1,996,-4)" xmlns:kvg="http://kanjivg.tagaini.net"></path><path class="stroke_order_diagram--existing_path" d="M49.09,26.97c0.97,0.97,1.76,2.43,2.03,4.01c1.25,7.15,2.09,12.2,2.88,17.53c0.2,1.34,0.34,2.42,0.38,3.08" id="Ske208cg037" kvg:type="㇑" transform="matrix(1,0,0,1,996,-4)" xmlns:kvg="http://kanjivg.tagaini.net"></path><path class="stroke_order_diagram--existing_path" d="M51.28,27.74c9.1-1.24,28.72-3.86,33.77-4.18c2.38-0.15,3.87,1.34,3.43,3.6c-0.2,1.07-1.82,9.53-3.62,17.61c-0.26,1.15-0.52,2.3-0.79,3.41" id="Ske208cg038" kvg:type="㇕a" transform="matrix(1,0,0,1,996,-4)" xmlns:kvg="http://kanjivg.tagaini.net"></path><path class="stroke_order_diagram--existing_path" d="M53.64,38.24c9.11-1.24,21.98-2.86,32.19-3.67" id="Ske208cg039" kvg:type="㇐a" transform="matrix(1,0,0,1,996,-4)" xmlns:kvg="http://kanjivg.tagaini.net"></path><path class="stroke_order_diagram--current_path" d="M55.44,49.16c9.31-1.41,17.56-2.41,27.95-3.06" id="kvg:07dda-s11" kvg:type="㇐a" transform="matrix(1,0,0,1,996,-4)" xmlns:kvg="http://kanjivg.tagaini.net"></path><path class="stroke_order_diagram--current_path" d="M55.44,49.16c9.31-1.41,17.56-2.41,27.95-3.06" id="Ske208cg03b" kvg:type="㇐a" transform="matrix(1,0,0,1,996,-4)" xmlns:kvg="http://kanjivg.tagaini.net"></path><circle class="stroke_order_diagram--path_start" cx="55.44" cy="49.16" r="4" transform="matrix(1,0,0,1,996,-4)"></circle><line class="stroke_order_diagram--guide_line" x1="1150" x2="1150" y1="1" y2="99"></line><line class="stroke_order_diagram--bounding_box" x1="1199" x2="1199" y1="1" y2="99"></line><path class="stroke_order_diagram--existing_path" d="M30.9,14c0.49,1.93,0.1,3.5-0.93,5.15c-4.47,7.1-10.65,15.21-13.54,17.84c-0.64,0.58-0.62,2.81,0,3.04c3.26,1.21,6.84,3.74,9.64,5.97" id="Ske208cg03e" kvg:type="㇜" transform="matrix(1,0,0,1,1096,-4)" xmlns:kvg="http://kanjivg.tagaini.net"></path><path class="stroke_order_diagram--existing_path" d="M40.53,25.44c0.47,1.31-0.11,3.17-0.95,4.27C33,38.25,24.44,50.07,17.15,57.61c-1.74,1.8,0.43,2.83,1.57,2.47c4.75-1.53,13.62-3.77,19.73-5.24" id="Ske208cg03f" kvg:type="㇜" transform="matrix(1,0,0,1,1096,-4)" xmlns:kvg="http://kanjivg.tagaini.net"></path><path class="stroke_order_diagram--existing_path" d="M36.25,47.5c2.47,2.25,6.38,9.25,7,12.75" id="Ske208cg03g" kvg:type="㇔" transform="matrix(1,0,0,1,1096,-4)" xmlns:kvg="http://kanjivg.tagaini.net"></path><path class="stroke_order_diagram--existing_path" d="M26.99,59.75c1,1,1.68,2.02,1.68,4.17c0,9.66-0.1,20.53-0.15,26.83c-0.02,2.56-0.04,4.49-0.04,5.5" id="Ske208cg03h" kvg:type="㇑" transform="matrix(1,0,0,1,1096,-4)" xmlns:kvg="http://kanjivg.tagaini.net"></path><path class="stroke_order_diagram--existing_path" d="M18.63,70.62c0.36,1.76,0.09,2.86-0.36,3.94c-1.5,3.61-3.65,8.06-6.77,12.69" id="Ske208cg03i" kvg:type="㇒" transform="matrix(1,0,0,1,1096,-4)" xmlns:kvg="http://kanjivg.tagaini.net"></path><path class="stroke_order_diagram--existing_path" d="M37.5,69.12c2.85,3.35,4.09,10.09,4.75,13.12" id="Ske208cg03j" kvg:type="㇔" transform="matrix(1,0,0,1,1096,-4)" xmlns:kvg="http://kanjivg.tagaini.net"></path><path class="stroke_order_diagram--existing_path" d="M66.12,12.12c0.32,0.79,0.3,2-0.03,2.75c-0.84,2.6-3.37,6.27-5.71,9.06" id="Ske208cg03k" kvg:type="㇒" transform="matrix(1,0,0,1,1096,-4)" xmlns:kvg="http://kanjivg.tagaini.net"></path><path class="stroke_order_diagram--existing_path" d="M49.09,26.97c0.97,0.97,1.76,2.43,2.03,4.01c1.25,7.15,2.09,12.2,2.88,17.53c0.2,1.34,0.34,2.42,0.38,3.08" id="Ske208cg03l" kvg:type="㇑" transform="matrix(1,0,0,1,1096,-4)" xmlns:kvg="http://kanjivg.tagaini.net"></path><path class="stroke_order_diagram--existing_path" d="M51.28,27.74c9.1-1.24,28.72-3.86,33.77-4.18c2.38-0.15,3.87,1.34,3.43,3.6c-0.2,1.07-1.82,9.53-3.62,17.61c-0.26,1.15-0.52,2.3-0.79,3.41" id="Ske208cg03m" kvg:type="㇕a" transform="matrix(1,0,0,1,1096,-4)" xmlns:kvg="http://kanjivg.tagaini.net"></path><path class="stroke_order_diagram--existing_path" d="M53.64,38.24c9.11-1.24,21.98-2.86,32.19-3.67" id="Ske208cg03n" kvg:type="㇐a" transform="matrix(1,0,0,1,1096,-4)" xmlns:kvg="http://kanjivg.tagaini.net"></path><path class="stroke_order_diagram--existing_path" d="M55.44,49.16c9.31-1.41,17.56-2.41,27.95-3.06" id="Ske208cg03o" kvg:type="㇐a" transform="matrix(1,0,0,1,1096,-4)" xmlns:kvg="http://kanjivg.tagaini.net"></path><path class="stroke_order_diagram--current_path" d="M66.4,52.17c1.1,1.08,1.77,2.71,1.77,5.38c0,12.21-0.16,29.45-0.16,33.6c0,7.85-4.22,1.93-6.59-0.44" id="kvg:07dda-s12" kvg:type="㇚" transform="matrix(1,0,0,1,1096,-4)" xmlns:kvg="http://kanjivg.tagaini.net"></path><path class="stroke_order_diagram--current_path" d="M66.4,52.17c1.1,1.08,1.77,2.71,1.77,5.38c0,12.21-0.16,29.45-0.16,33.6c0,7.85-4.22,1.93-6.59-0.44" id="Ske208cg03q" kvg:type="㇚" transform="matrix(1,0,0,1,1096,-4)" xmlns:kvg="http://kanjivg.tagaini.net"></path><circle class="stroke_order_diagram--path_start" cx="66.4" cy="52.17" r="4" transform="matrix(1,0,0,1,1096,-4)"></circle><line class="stroke_order_diagram--guide_line" x1="1250" x2="1250" y1="1" y2="99"></line><line class="stroke_order_diagram--bounding_box" x1="1299" x2="1299" y1="1" y2="99"></line><path class="stroke_order_diagram--existing_path" d="M30.9,14c0.49,1.93,0.1,3.5-0.93,5.15c-4.47,7.1-10.65,15.21-13.54,17.84c-0.64,0.58-0.62,2.81,0,3.04c3.26,1.21,6.84,3.74,9.64,5.97" id="Ske208cg03t" kvg:type="㇜" transform="matrix(1,0,0,1,1196,-4)" xmlns:kvg="http://kanjivg.tagaini.net"></path><path class="stroke_order_diagram--existing_path" d="M40.53,25.44c0.47,1.31-0.11,3.17-0.95,4.27C33,38.25,24.44,50.07,17.15,57.61c-1.74,1.8,0.43,2.83,1.57,2.47c4.75-1.53,13.62-3.77,19.73-5.24" id="Ske208cg03u" kvg:type="㇜" transform="matrix(1,0,0,1,1196,-4)" xmlns:kvg="http://kanjivg.tagaini.net"></path><path class="stroke_order_diagram--existing_path" d="M36.25,47.5c2.47,2.25,6.38,9.25,7,12.75" id="Ske208cg03v" kvg:type="㇔" transform="matrix(1,0,0,1,1196,-4)" xmlns:kvg="http://kanjivg.tagaini.net"></path><path class="stroke_order_diagram--existing_path" d="M26.99,59.75c1,1,1.68,2.02,1.68,4.17c0,9.66-0.1,20.53-0.15,26.83c-0.02,2.56-0.04,4.49-0.04,5.5" id="Ske208cg03w" kvg:type="㇑" transform="matrix(1,0,0,1,1196,-4)" xmlns:kvg="http://kanjivg.tagaini.net"></path><path class="stroke_order_diagram--existing_path" d="M18.63,70.62c0.36,1.76,0.09,2.86-0.36,3.94c-1.5,3.61-3.65,8.06-6.77,12.69" id="Ske208cg03x" kvg:type="㇒" transform="matrix(1,0,0,1,1196,-4)" xmlns:kvg="http://kanjivg.tagaini.net"></path><path class="stroke_order_diagram--existing_path" d="M37.5,69.12c2.85,3.35,4.09,10.09,4.75,13.12" id="Ske208cg03y" kvg:type="㇔" transform="matrix(1,0,0,1,1196,-4)" xmlns:kvg="http://kanjivg.tagaini.net"></path><path class="stroke_order_diagram--existing_path" d="M66.12,12.12c0.32,0.79,0.3,2-0.03,2.75c-0.84,2.6-3.37,6.27-5.71,9.06" id="Ske208cg03z" kvg:type="㇒" transform="matrix(1,0,0,1,1196,-4)" xmlns:kvg="http://kanjivg.tagaini.net"></path><path class="stroke_order_diagram--existing_path" d="M49.09,26.97c0.97,0.97,1.76,2.43,2.03,4.01c1.25,7.15,2.09,12.2,2.88,17.53c0.2,1.34,0.34,2.42,0.38,3.08" id="Ske208cg040" kvg:type="㇑" transform="matrix(1,0,0,1,1196,-4)" xmlns:kvg="http://kanjivg.tagaini.net"></path><path class="stroke_order_diagram--existing_path" d="M51.28,27.74c9.1-1.24,28.72-3.86,33.77-4.18c2.38-0.15,3.87,1.34,3.43,3.6c-0.2,1.07-1.82,9.53-3.62,17.61c-0.26,1.15-0.52,2.3-0.79,3.41" id="Ske208cg041" kvg:type="㇕a" transform="matrix(1,0,0,1,1196,-4)" xmlns:kvg="http://kanjivg.tagaini.net"></path><path class="stroke_order_diagram--existing_path" d="M53.64,38.24c9.11-1.24,21.98-2.86,32.19-3.67" id="Ske208cg042" kvg:type="㇐a" transform="matrix(1,0,0,1,1196,-4)" xmlns:kvg="http://kanjivg.tagaini.net"></path><path class="stroke_order_diagram--existing_path" d="M55.44,49.16c9.31-1.41,17.56-2.41,27.95-3.06" id="Ske208cg043" kvg:type="㇐a" transform="matrix(1,0,0,1,1196,-4)" xmlns:kvg="http://kanjivg.tagaini.net"></path><path class="stroke_order_diagram--existing_path" d="M66.4,52.17c1.1,1.08,1.77,2.71,1.77,5.38c0,12.21-0.16,29.45-0.16,33.6c0,7.85-4.22,1.93-6.59-0.44" id="Ske208cg044" kvg:type="㇚" transform="matrix(1,0,0,1,1196,-4)" xmlns:kvg="http://kanjivg.tagaini.net"></path><path class="stroke_order_diagram--current_path" d="M44.75,67.14c1.25,0.61,2.78,0.56,4,0.36c2.38-0.38,7.22-1.76,9.17-2.55c2.33-0.95,3.45,0.3,2.46,2.42c-3.49,7.45-7.26,15.13-20.13,22.88" id="kvg:07dda-s13" kvg:type="㇇" transform="matrix(1,0,0,1,1196,-4)" xmlns:kvg="http://kanjivg.tagaini.net"></path><path class="stroke_order_diagram--current_path" d="M44.75,67.14c1.25,0.61,2.78,0.56,4,0.36c2.38-0.38,7.22-1.76,9.17-2.55c2.33-0.95,3.45,0.3,2.46,2.42c-3.49,7.45-7.26,15.13-20.13,22.88" id="Ske208cg046" kvg:type="㇇" transform="matrix(1,0,0,1,1196,-4)" xmlns:kvg="http://kanjivg.tagaini.net"></path><circle class="stroke_order_diagram--path_start" cx="44.75" cy="67.14" r="4" transform="matrix(1,0,0,1,1196,-4)"></circle><line class="stroke_order_diagram--guide_line" x1="1350" x2="1350" y1="1" y2="99"></line><line class="stroke_order_diagram--bounding_box" x1="1399" x2="1399" y1="1" y2="99"></line><path class="stroke_order_diagram--existing_path" d="M30.9,14c0.49,1.93,0.1,3.5-0.93,5.15c-4.47,7.1-10.65,15.21-13.54,17.84c-0.64,0.58-0.62,2.81,0,3.04c3.26,1.21,6.84,3.74,9.64,5.97" id="Ske208cg049" kvg:type="㇜" transform="matrix(1,0,0,1,1296,-4)" xmlns:kvg="http://kanjivg.tagaini.net"></path><path class="stroke_order_diagram--existing_path" d="M40.53,25.44c0.47,1.31-0.11,3.17-0.95,4.27C33,38.25,24.44,50.07,17.15,57.61c-1.74,1.8,0.43,2.83,1.57,2.47c4.75-1.53,13.62-3.77,19.73-5.24" id="Ske208cg04a" kvg:type="㇜" transform="matrix(1,0,0,1,1296,-4)" xmlns:kvg="http://kanjivg.tagaini.net"></path><path class="stroke_order_diagram--existing_path" d="M36.25,47.5c2.47,2.25,6.38,9.25,7,12.75" id="Ske208cg04b" kvg:type="㇔" transform="matrix(1,0,0,1,1296,-4)" xmlns:kvg="http://kanjivg.tagaini.net"></path><path class="stroke_order_diagram--existing_path" d="M26.99,59.75c1,1,1.68,2.02,1.68,4.17c0,9.66-0.1,20.53-0.15,26.83c-0.02,2.56-0.04,4.49-0.04,5.5" id="Ske208cg04c" kvg:type="㇑" transform="matrix(1,0,0,1,1296,-4)" xmlns:kvg="http://kanjivg.tagaini.net"></path><path class="stroke_order_diagram--existing_path" d="M18.63,70.62c0.36,1.76,0.09,2.86-0.36,3.94c-1.5,3.61-3.65,8.06-6.77,12.69" id="Ske208cg04d" kvg:type="㇒" transform="matrix(1,0,0,1,1296,-4)" xmlns:kvg="http://kanjivg.tagaini.net"></path><path class="stroke_order_diagram--existing_path" d="M37.5,69.12c2.85,3.35,4.09,10.09,4.75,13.12" id="Ske208cg04e" kvg:type="㇔" transform="matrix(1,0,0,1,1296,-4)" xmlns:kvg="http://kanjivg.tagaini.net"></path><path class="stroke_order_diagram--existing_path" d="M66.12,12.12c0.32,0.79,0.3,2-0.03,2.75c-0.84,2.6-3.37,6.27-5.71,9.06" id="Ske208cg04f" kvg:type="㇒" transform="matrix(1,0,0,1,1296,-4)" xmlns:kvg="http://kanjivg.tagaini.net"></path><path class="stroke_order_diagram--existing_path" d="M49.09,26.97c0.97,0.97,1.76,2.43,2.03,4.01c1.25,7.15,2.09,12.2,2.88,17.53c0.2,1.34,0.34,2.42,0.38,3.08" id="Ske208cg04g" kvg:type="㇑" transform="matrix(1,0,0,1,1296,-4)" xmlns:kvg="http://kanjivg.tagaini.net"></path><path class="stroke_order_diagram--existing_path" d="M51.28,27.74c9.1-1.24,28.72-3.86,33.77-4.18c2.38-0.15,3.87,1.34,3.43,3.6c-0.2,1.07-1.82,9.53-3.62,17.61c-0.26,1.15-0.52,2.3-0.79,3.41" id="Ske208cg04h" kvg:type="㇕a" transform="matrix(1,0,0,1,1296,-4)" xmlns:kvg="http://kanjivg.tagaini.net"></path><path class="stroke_order_diagram--existing_path" d="M53.64,38.24c9.11-1.24,21.98-2.86,32.19-3.67" id="Ske208cg04i" kvg:type="㇐a" transform="matrix(1,0,0,1,1296,-4)" xmlns:kvg="http://kanjivg.tagaini.net"></path><path class="stroke_order_diagram--existing_path" d="M55.44,49.16c9.31-1.41,17.56-2.41,27.95-3.06" id="Ske208cg04j" kvg:type="㇐a" transform="matrix(1,0,0,1,1296,-4)" xmlns:kvg="http://kanjivg.tagaini.net"></path><path class="stroke_order_diagram--existing_path" d="M66.4,52.17c1.1,1.08,1.77,2.71,1.77,5.38c0,12.21-0.16,29.45-0.16,33.6c0,7.85-4.22,1.93-6.59-0.44" id="Ske208cg04k" kvg:type="㇚" transform="matrix(1,0,0,1,1296,-4)" xmlns:kvg="http://kanjivg.tagaini.net"></path><path class="stroke_order_diagram--existing_path" d="M44.75,67.14c1.25,0.61,2.78,0.56,4,0.36c2.38-0.38,7.22-1.76,9.17-2.55c2.33-0.95,3.45,0.3,2.46,2.42c-3.49,7.45-7.26,15.13-20.13,22.88" id="Ske208cg04l" kvg:type="㇇" transform="matrix(1,0,0,1,1296,-4)" xmlns:kvg="http://kanjivg.tagaini.net"></path><path class="stroke_order_diagram--current_path" d="M87.01,56.25c0.13,0.79-0.12,1.8-0.48,2.45c-2.03,3.75-5.95,7.91-9.16,9.8" id="kvg:07dda-s14" kvg:type="㇒" transform="matrix(1,0,0,1,1296,-4)" xmlns:kvg="http://kanjivg.tagaini.net"></path><path class="stroke_order_diagram--current_path" d="M87.01,56.25c0.13,0.79-0.12,1.8-0.48,2.45c-2.03,3.75-5.95,7.91-9.16,9.8" id="Ske208cg04n" kvg:type="㇒" transform="matrix(1,0,0,1,1296,-4)" xmlns:kvg="http://kanjivg.tagaini.net"></path><circle class="stroke_order_diagram--path_start" cx="87.01" cy="56.25" r="4" transform="matrix(1,0,0,1,1296,-4)"></circle><line class="stroke_order_diagram--guide_line" x1="1450" x2="1450" y1="1" y2="99"></line><line class="stroke_order_diagram--bounding_box" x1="1499" x2="1499" y1="1" y2="99"></line><path class="stroke_order_diagram--existing_path" d="M30.9,14c0.49,1.93,0.1,3.5-0.93,5.15c-4.47,7.1-10.65,15.21-13.54,17.84c-0.64,0.58-0.62,2.81,0,3.04c3.26,1.21,6.84,3.74,9.64,5.97" id="Ske208cg04q" kvg:type="㇜" transform="matrix(1,0,0,1,1396,-4)" xmlns:kvg="http://kanjivg.tagaini.net"></path><path class="stroke_order_diagram--existing_path" d="M40.53,25.44c0.47,1.31-0.11,3.17-0.95,4.27C33,38.25,24.44,50.07,17.15,57.61c-1.74,1.8,0.43,2.83,1.57,2.47c4.75-1.53,13.62-3.77,19.73-5.24" id="Ske208cg04r" kvg:type="㇜" transform="matrix(1,0,0,1,1396,-4)" xmlns:kvg="http://kanjivg.tagaini.net"></path><path class="stroke_order_diagram--existing_path" d="M36.25,47.5c2.47,2.25,6.38,9.25,7,12.75" id="Ske208cg04s" kvg:type="㇔" transform="matrix(1,0,0,1,1396,-4)" xmlns:kvg="http://kanjivg.tagaini.net"></path><path class="stroke_order_diagram--existing_path" d="M26.99,59.75c1,1,1.68,2.02,1.68,4.17c0,9.66-0.1,20.53-0.15,26.83c-0.02,2.56-0.04,4.49-0.04,5.5" id="Ske208cg04t" kvg:type="㇑" transform="matrix(1,0,0,1,1396,-4)" xmlns:kvg="http://kanjivg.tagaini.net"></path><path class="stroke_order_diagram--existing_path" d="M18.63,70.62c0.36,1.76,0.09,2.86-0.36,3.94c-1.5,3.61-3.65,8.06-6.77,12.69" id="Ske208cg04u" kvg:type="㇒" transform="matrix(1,0,0,1,1396,-4)" xmlns:kvg="http://kanjivg.tagaini.net"></path><path class="stroke_order_diagram--existing_path" d="M37.5,69.12c2.85,3.35,4.09,10.09,4.75,13.12" id="Ske208cg04v" kvg:type="㇔" transform="matrix(1,0,0,1,1396,-4)" xmlns:kvg="http://kanjivg.tagaini.net"></path><path class="stroke_order_diagram--existing_path" d="M66.12,12.12c0.32,0.79,0.3,2-0.03,2.75c-0.84,2.6-3.37,6.27-5.71,9.06" id="Ske208cg04w" kvg:type="㇒" transform="matrix(1,0,0,1,1396,-4)" xmlns:kvg="http://kanjivg.tagaini.net"></path><path class="stroke_order_diagram--existing_path" d="M49.09,26.97c0.97,0.97,1.76,2.43,2.03,4.01c1.25,7.15,2.09,12.2,2.88,17.53c0.2,1.34,0.34,2.42,0.38,3.08" id="Ske208cg04x" kvg:type="㇑" transform="matrix(1,0,0,1,1396,-4)" xmlns:kvg="http://kanjivg.tagaini.net"></path><path class="stroke_order_diagram--existing_path" d="M51.28,27.74c9.1-1.24,28.72-3.86,33.77-4.18c2.38-0.15,3.87,1.34,3.43,3.6c-0.2,1.07-1.82,9.53-3.62,17.61c-0.26,1.15-0.52,2.3-0.79,3.41" id="Ske208cg04y" kvg:type="㇕a" transform="matrix(1,0,0,1,1396,-4)" xmlns:kvg="http://kanjivg.tagaini.net"></path><path class="stroke_order_diagram--existing_path" d="M53.64,38.24c9.11-1.24,21.98-2.86,32.19-3.67" id="Ske208cg04z" kvg:type="㇐a" transform="matrix(1,0,0,1,1396,-4)" xmlns:kvg="http://kanjivg.tagaini.net"></path><path class="stroke_order_diagram--existing_path" d="M55.44,49.16c9.31-1.41,17.56-2.41,27.95-3.06" id="Ske208cg050" kvg:type="㇐a" transform="matrix(1,0,0,1,1396,-4)" xmlns:kvg="http://kanjivg.tagaini.net"></path><path class="stroke_order_diagram--existing_path" d="M66.4,52.17c1.1,1.08,1.77,2.71,1.77,5.38c0,12.21-0.16,29.45-0.16,33.6c0,7.85-4.22,1.93-6.59-0.44" id="Ske208cg051" kvg:type="㇚" transform="matrix(1,0,0,1,1396,-4)" xmlns:kvg="http://kanjivg.tagaini.net"></path><path class="stroke_order_diagram--existing_path" d="M44.75,67.14c1.25,0.61,2.78,0.56,4,0.36c2.38-0.38,7.22-1.76,9.17-2.55c2.33-0.95,3.45,0.3,2.46,2.42c-3.49,7.45-7.26,15.13-20.13,22.88" id="Ske208cg052" kvg:type="㇇" transform="matrix(1,0,0,1,1396,-4)" xmlns:kvg="http://kanjivg.tagaini.net"></path><path class="stroke_order_diagram--existing_path" d="M87.01,56.25c0.13,0.79-0.12,1.8-0.48,2.45c-2.03,3.75-5.95,7.91-9.16,9.8" id="Ske208cg053" kvg:type="㇒" transform="matrix(1,0,0,1,1396,-4)" xmlns:kvg="http://kanjivg.tagaini.net"></path><path class="stroke_order_diagram--current_path" d="M68.88,61.5c5.24,8.21,13.65,19,20.04,24.96c1.82,1.69,3.67,3.19,6.09,3.92" id="kvg:07dda-s15" kvg:type="㇏" transform="matrix(1,0,0,1,1396,-4)" xmlns:kvg="http://kanjivg.tagaini.net"></path><path class="stroke_order_diagram--current_path" d="M68.88,61.5c5.24,8.21,13.65,19,20.04,24.96c1.82,1.69,3.67,3.19,6.09,3.92" id="Ske208cg055" kvg:type="㇏" transform="matrix(1,0,0,1,1396,-4)" xmlns:kvg="http://kanjivg.tagaini.net"></path><circle class="stroke_order_diagram--path_start" cx="68.88" cy="61.5" r="4" transform="matrix(1,0,0,1,1396,-4)"></circle></svg>