<svg class="stroke_order_diagram--svg_container_for_518662b6d5dda79658001375" style="height: 100px; width: 1500px;" viewbox="0 0 1500 100"><desc>Created with Snap</desc><defs></defs><line class="stroke_order_diagram--bounding_box" x1="1" x2="1499" y1="1" y2="1"></line><line class="stroke_order_diagram--bounding_box" x1="1" x2="1" y1="1" y2="99"></line><line class="stroke_order_diagram--bounding_box" x1="1" x2="1499" y1="99" y2="99"></line><line class="stroke_order_diagram--guide_line" x1="0" x2="1500" y1="50" y2="50"></line><line class="stroke_order_diagram--guide_line" x1="50" x2="50" y1="1" y2="99"></line><line class="stroke_order_diagram--bounding_box" x1="99" x2="99" y1="1" y2="99"></line><path class="stroke_order_diagram--current_path" d="M27.96,13c0.35,1.4,0.66,2.59-0.18,3.97c-3.68,6.07-10.3,15.94-13.8,19.21c-0.72,0.67-0.69,3.24,0,3.5c3.67,1.4,8.2,2.74,11.35,5.3" id="kvg:07de4-s1" kvg:type="㇜" transform="matrix(1,0,0,1,-4,-4)" xmlns:kvg="http://kanjivg.tagaini.net"></path><path class="stroke_order_diagram--current_path" d="M27.96,13c0.35,1.4,0.66,2.59-0.18,3.97c-3.68,6.07-10.3,15.94-13.8,19.21c-0.72,0.67-0.69,3.24,0,3.5c3.67,1.4,8.2,2.74,11.35,5.3" id="Ske2u2a9mo" kvg:type="㇜" transform="matrix(1,0,0,1,-4,-4)" xmlns:kvg="http://kanjivg.tagaini.net"></path><circle class="stroke_order_diagram--path_start" cx="27.96" cy="13" r="4" transform="matrix(1,0,0,1,-4,-4)"></circle><line class="stroke_order_diagram--guide_line" x1="150" x2="150" y1="1" y2="99"></line><line class="stroke_order_diagram--bounding_box" x1="199" x2="199" y1="1" y2="99"></line><path class="stroke_order_diagram--existing_path" d="M27.96,13c0.35,1.4,0.66,2.59-0.18,3.97c-3.68,6.07-10.3,15.94-13.8,19.21c-0.72,0.67-0.69,3.24,0,3.5c3.67,1.4,8.2,2.74,11.35,5.3" id="Ske2u2a9mr" kvg:type="㇜" transform="matrix(1,0,0,1,96,-4)" xmlns:kvg="http://kanjivg.tagaini.net"></path><path class="stroke_order_diagram--current_path" d="M35.78,27.44c0.29,0.55,0.38,2.35,0,2.94C30.25,39,22.5,48.5,14.9,56.36c-1.74,1.8,0.43,2.83,1.57,2.47c4.75-1.53,15.17-3.61,21.28-5.08" id="kvg:07de4-s2" kvg:type="㇜" transform="matrix(1,0,0,1,96,-4)" xmlns:kvg="http://kanjivg.tagaini.net"></path><path class="stroke_order_diagram--current_path" d="M35.78,27.44c0.29,0.55,0.38,2.35,0,2.94C30.25,39,22.5,48.5,14.9,56.36c-1.74,1.8,0.43,2.83,1.57,2.47c4.75-1.53,15.17-3.61,21.28-5.08" id="Ske2u2a9mt" kvg:type="㇜" transform="matrix(1,0,0,1,96,-4)" xmlns:kvg="http://kanjivg.tagaini.net"></path><circle class="stroke_order_diagram--path_start" cx="35.78" cy="27.44" r="4" transform="matrix(1,0,0,1,96,-4)"></circle><line class="stroke_order_diagram--guide_line" x1="250" x2="250" y1="1" y2="99"></line><line class="stroke_order_diagram--bounding_box" x1="299" x2="299" y1="1" y2="99"></line><path class="stroke_order_diagram--existing_path" d="M27.96,13c0.35,1.4,0.66,2.59-0.18,3.97c-3.68,6.07-10.3,15.94-13.8,19.21c-0.72,0.67-0.69,3.24,0,3.5c3.67,1.4,8.2,2.74,11.35,5.3" id="Ske2u2a9mw" kvg:type="㇜" transform="matrix(1,0,0,1,196,-4)" xmlns:kvg="http://kanjivg.tagaini.net"></path><path class="stroke_order_diagram--existing_path" d="M35.78,27.44c0.29,0.55,0.38,2.35,0,2.94C30.25,39,22.5,48.5,14.9,56.36c-1.74,1.8,0.43,2.83,1.57,2.47c4.75-1.53,15.17-3.61,21.28-5.08" id="Ske2u2a9mx" kvg:type="㇜" transform="matrix(1,0,0,1,196,-4)" xmlns:kvg="http://kanjivg.tagaini.net"></path><path class="stroke_order_diagram--current_path" d="M34,46.25c2.47,2.21,6.38,9.07,7,12.5" id="kvg:07de4-s3" kvg:type="㇔" transform="matrix(1,0,0,1,196,-4)" xmlns:kvg="http://kanjivg.tagaini.net"></path><path class="stroke_order_diagram--current_path" d="M34,46.25c2.47,2.21,6.38,9.07,7,12.5" id="Ske2u2a9mz" kvg:type="㇔" transform="matrix(1,0,0,1,196,-4)" xmlns:kvg="http://kanjivg.tagaini.net"></path><circle class="stroke_order_diagram--path_start" cx="34" cy="46.25" r="4" transform="matrix(1,0,0,1,196,-4)"></circle><line class="stroke_order_diagram--guide_line" x1="350" x2="350" y1="1" y2="99"></line><line class="stroke_order_diagram--bounding_box" x1="399" x2="399" y1="1" y2="99"></line><path class="stroke_order_diagram--existing_path" d="M27.96,13c0.35,1.4,0.66,2.59-0.18,3.97c-3.68,6.07-10.3,15.94-13.8,19.21c-0.72,0.67-0.69,3.24,0,3.5c3.67,1.4,8.2,2.74,11.35,5.3" id="Ske2u2a9m12" kvg:type="㇜" transform="matrix(1,0,0,1,296,-4)" xmlns:kvg="http://kanjivg.tagaini.net"></path><path class="stroke_order_diagram--existing_path" d="M35.78,27.44c0.29,0.55,0.38,2.35,0,2.94C30.25,39,22.5,48.5,14.9,56.36c-1.74,1.8,0.43,2.83,1.57,2.47c4.75-1.53,15.17-3.61,21.28-5.08" id="Ske2u2a9m13" kvg:type="㇜" transform="matrix(1,0,0,1,296,-4)" xmlns:kvg="http://kanjivg.tagaini.net"></path><path class="stroke_order_diagram--existing_path" d="M34,46.25c2.47,2.21,6.38,9.07,7,12.5" id="Ske2u2a9m14" kvg:type="㇔" transform="matrix(1,0,0,1,296,-4)" xmlns:kvg="http://kanjivg.tagaini.net"></path><path class="stroke_order_diagram--current_path" d="M26.86,57.01c0.08,0.29,1.09,1.48,1.17,3.28c0.37,8.64-0.24,34.27-0.24,37.21" id="kvg:07de4-s4" kvg:type="㇑" transform="matrix(1,0,0,1,296,-4)" xmlns:kvg="http://kanjivg.tagaini.net"></path><path class="stroke_order_diagram--current_path" d="M26.86,57.01c0.08,0.29,1.09,1.48,1.17,3.28c0.37,8.64-0.24,34.27-0.24,37.21" id="Ske2u2a9m16" kvg:type="㇑" transform="matrix(1,0,0,1,296,-4)" xmlns:kvg="http://kanjivg.tagaini.net"></path><circle class="stroke_order_diagram--path_start" cx="26.86" cy="57.01" r="4" transform="matrix(1,0,0,1,296,-4)"></circle><line class="stroke_order_diagram--guide_line" x1="450" x2="450" y1="1" y2="99"></line><line class="stroke_order_diagram--bounding_box" x1="499" x2="499" y1="1" y2="99"></line><path class="stroke_order_diagram--existing_path" d="M27.96,13c0.35,1.4,0.66,2.59-0.18,3.97c-3.68,6.07-10.3,15.94-13.8,19.21c-0.72,0.67-0.69,3.24,0,3.5c3.67,1.4,8.2,2.74,11.35,5.3" id="Ske2u2a9m19" kvg:type="㇜" transform="matrix(1,0,0,1,396,-4)" xmlns:kvg="http://kanjivg.tagaini.net"></path><path class="stroke_order_diagram--existing_path" d="M35.78,27.44c0.29,0.55,0.38,2.35,0,2.94C30.25,39,22.5,48.5,14.9,56.36c-1.74,1.8,0.43,2.83,1.57,2.47c4.75-1.53,15.17-3.61,21.28-5.08" id="Ske2u2a9m1a" kvg:type="㇜" transform="matrix(1,0,0,1,396,-4)" xmlns:kvg="http://kanjivg.tagaini.net"></path><path class="stroke_order_diagram--existing_path" d="M34,46.25c2.47,2.21,6.38,9.07,7,12.5" id="Ske2u2a9m1b" kvg:type="㇔" transform="matrix(1,0,0,1,396,-4)" xmlns:kvg="http://kanjivg.tagaini.net"></path><path class="stroke_order_diagram--existing_path" d="M26.86,57.01c0.08,0.29,1.09,1.48,1.17,3.28c0.37,8.64-0.24,34.27-0.24,37.21" id="Ske2u2a9m1c" kvg:type="㇑" transform="matrix(1,0,0,1,396,-4)" xmlns:kvg="http://kanjivg.tagaini.net"></path><path class="stroke_order_diagram--current_path" d="M18.73,69.25c0.16,0.85,0.14,2.54-0.16,3.15C16.62,76.39,11.75,84.08,9,87.5" id="kvg:07de4-s5" kvg:type="㇒" transform="matrix(1,0,0,1,396,-4)" xmlns:kvg="http://kanjivg.tagaini.net"></path><path class="stroke_order_diagram--current_path" d="M18.73,69.25c0.16,0.85,0.14,2.54-0.16,3.15C16.62,76.39,11.75,84.08,9,87.5" id="Ske2u2a9m1e" kvg:type="㇒" transform="matrix(1,0,0,1,396,-4)" xmlns:kvg="http://kanjivg.tagaini.net"></path><circle class="stroke_order_diagram--path_start" cx="18.73" cy="69.25" r="4" transform="matrix(1,0,0,1,396,-4)"></circle><line class="stroke_order_diagram--guide_line" x1="550" x2="550" y1="1" y2="99"></line><line class="stroke_order_diagram--bounding_box" x1="599" x2="599" y1="1" y2="99"></line><path class="stroke_order_diagram--existing_path" d="M27.96,13c0.35,1.4,0.66,2.59-0.18,3.97c-3.68,6.07-10.3,15.94-13.8,19.21c-0.72,0.67-0.69,3.24,0,3.5c3.67,1.4,8.2,2.74,11.35,5.3" id="Ske2u2a9m1h" kvg:type="㇜" transform="matrix(1,0,0,1,496,-4)" xmlns:kvg="http://kanjivg.tagaini.net"></path><path class="stroke_order_diagram--existing_path" d="M35.78,27.44c0.29,0.55,0.38,2.35,0,2.94C30.25,39,22.5,48.5,14.9,56.36c-1.74,1.8,0.43,2.83,1.57,2.47c4.75-1.53,15.17-3.61,21.28-5.08" id="Ske2u2a9m1i" kvg:type="㇜" transform="matrix(1,0,0,1,496,-4)" xmlns:kvg="http://kanjivg.tagaini.net"></path><path class="stroke_order_diagram--existing_path" d="M34,46.25c2.47,2.21,6.38,9.07,7,12.5" id="Ske2u2a9m1j" kvg:type="㇔" transform="matrix(1,0,0,1,496,-4)" xmlns:kvg="http://kanjivg.tagaini.net"></path><path class="stroke_order_diagram--existing_path" d="M26.86,57.01c0.08,0.29,1.09,1.48,1.17,3.28c0.37,8.64-0.24,34.27-0.24,37.21" id="Ske2u2a9m1k" kvg:type="㇑" transform="matrix(1,0,0,1,496,-4)" xmlns:kvg="http://kanjivg.tagaini.net"></path><path class="stroke_order_diagram--existing_path" d="M18.73,69.25c0.16,0.85,0.14,2.54-0.16,3.15C16.62,76.39,11.75,84.08,9,87.5" id="Ske2u2a9m1l" kvg:type="㇒" transform="matrix(1,0,0,1,496,-4)" xmlns:kvg="http://kanjivg.tagaini.net"></path><path class="stroke_order_diagram--current_path" d="M35.75,67.75c2.88,3.13,5.08,10.41,5.75,13.25" id="kvg:07de4-s6" kvg:type="㇔" transform="matrix(1,0,0,1,496,-4)" xmlns:kvg="http://kanjivg.tagaini.net"></path><path class="stroke_order_diagram--current_path" d="M35.75,67.75c2.88,3.13,5.08,10.41,5.75,13.25" id="Ske2u2a9m1n" kvg:type="㇔" transform="matrix(1,0,0,1,496,-4)" xmlns:kvg="http://kanjivg.tagaini.net"></path><circle class="stroke_order_diagram--path_start" cx="35.75" cy="67.75" r="4" transform="matrix(1,0,0,1,496,-4)"></circle><line class="stroke_order_diagram--guide_line" x1="650" x2="650" y1="1" y2="99"></line><line class="stroke_order_diagram--bounding_box" x1="699" x2="699" y1="1" y2="99"></line><path class="stroke_order_diagram--existing_path" d="M27.96,13c0.35,1.4,0.66,2.59-0.18,3.97c-3.68,6.07-10.3,15.94-13.8,19.21c-0.72,0.67-0.69,3.24,0,3.5c3.67,1.4,8.2,2.74,11.35,5.3" id="Ske2u2a9m1q" kvg:type="㇜" transform="matrix(1,0,0,1,596,-4)" xmlns:kvg="http://kanjivg.tagaini.net"></path><path class="stroke_order_diagram--existing_path" d="M35.78,27.44c0.29,0.55,0.38,2.35,0,2.94C30.25,39,22.5,48.5,14.9,56.36c-1.74,1.8,0.43,2.83,1.57,2.47c4.75-1.53,15.17-3.61,21.28-5.08" id="Ske2u2a9m1r" kvg:type="㇜" transform="matrix(1,0,0,1,596,-4)" xmlns:kvg="http://kanjivg.tagaini.net"></path><path class="stroke_order_diagram--existing_path" d="M34,46.25c2.47,2.21,6.38,9.07,7,12.5" id="Ske2u2a9m1s" kvg:type="㇔" transform="matrix(1,0,0,1,596,-4)" xmlns:kvg="http://kanjivg.tagaini.net"></path><path class="stroke_order_diagram--existing_path" d="M26.86,57.01c0.08,0.29,1.09,1.48,1.17,3.28c0.37,8.64-0.24,34.27-0.24,37.21" id="Ske2u2a9m1t" kvg:type="㇑" transform="matrix(1,0,0,1,596,-4)" xmlns:kvg="http://kanjivg.tagaini.net"></path><path class="stroke_order_diagram--existing_path" d="M18.73,69.25c0.16,0.85,0.14,2.54-0.16,3.15C16.62,76.39,11.75,84.08,9,87.5" id="Ske2u2a9m1u" kvg:type="㇒" transform="matrix(1,0,0,1,596,-4)" xmlns:kvg="http://kanjivg.tagaini.net"></path><path class="stroke_order_diagram--existing_path" d="M35.75,67.75c2.88,3.13,5.08,10.41,5.75,13.25" id="Ske2u2a9m1v" kvg:type="㇔" transform="matrix(1,0,0,1,596,-4)" xmlns:kvg="http://kanjivg.tagaini.net"></path><path class="stroke_order_diagram--current_path" d="M42.25,28.78c1.46,0.33,4.16,0.51,5.62,0.33C61.25,27.5,73.5,26,91.12,24.63c2.43-0.19,4.13,0.12,5.63,0.83" id="kvg:07de4-s7" kvg:type="㇐" transform="matrix(1,0,0,1,596,-4)" xmlns:kvg="http://kanjivg.tagaini.net"></path><path class="stroke_order_diagram--current_path" d="M42.25,28.78c1.46,0.33,4.16,0.51,5.62,0.33C61.25,27.5,73.5,26,91.12,24.63c2.43-0.19,4.13,0.12,5.63,0.83" id="Ske2u2a9m1x" kvg:type="㇐" transform="matrix(1,0,0,1,596,-4)" xmlns:kvg="http://kanjivg.tagaini.net"></path><circle class="stroke_order_diagram--path_start" cx="42.25" cy="28.78" r="4" transform="matrix(1,0,0,1,596,-4)"></circle><line class="stroke_order_diagram--guide_line" x1="750" x2="750" y1="1" y2="99"></line><line class="stroke_order_diagram--bounding_box" x1="799" x2="799" y1="1" y2="99"></line><path class="stroke_order_diagram--existing_path" d="M27.96,13c0.35,1.4,0.66,2.59-0.18,3.97c-3.68,6.07-10.3,15.94-13.8,19.21c-0.72,0.67-0.69,3.24,0,3.5c3.67,1.4,8.2,2.74,11.35,5.3" id="Ske2u2a9m20" kvg:type="㇜" transform="matrix(1,0,0,1,696,-4)" xmlns:kvg="http://kanjivg.tagaini.net"></path><path class="stroke_order_diagram--existing_path" d="M35.78,27.44c0.29,0.55,0.38,2.35,0,2.94C30.25,39,22.5,48.5,14.9,56.36c-1.74,1.8,0.43,2.83,1.57,2.47c4.75-1.53,15.17-3.61,21.28-5.08" id="Ske2u2a9m21" kvg:type="㇜" transform="matrix(1,0,0,1,696,-4)" xmlns:kvg="http://kanjivg.tagaini.net"></path><path class="stroke_order_diagram--existing_path" d="M34,46.25c2.47,2.21,6.38,9.07,7,12.5" id="Ske2u2a9m22" kvg:type="㇔" transform="matrix(1,0,0,1,696,-4)" xmlns:kvg="http://kanjivg.tagaini.net"></path><path class="stroke_order_diagram--existing_path" d="M26.86,57.01c0.08,0.29,1.09,1.48,1.17,3.28c0.37,8.64-0.24,34.27-0.24,37.21" id="Ske2u2a9m23" kvg:type="㇑" transform="matrix(1,0,0,1,696,-4)" xmlns:kvg="http://kanjivg.tagaini.net"></path><path class="stroke_order_diagram--existing_path" d="M18.73,69.25c0.16,0.85,0.14,2.54-0.16,3.15C16.62,76.39,11.75,84.08,9,87.5" id="Ske2u2a9m24" kvg:type="㇒" transform="matrix(1,0,0,1,696,-4)" xmlns:kvg="http://kanjivg.tagaini.net"></path><path class="stroke_order_diagram--existing_path" d="M35.75,67.75c2.88,3.13,5.08,10.41,5.75,13.25" id="Ske2u2a9m25" kvg:type="㇔" transform="matrix(1,0,0,1,696,-4)" xmlns:kvg="http://kanjivg.tagaini.net"></path><path class="stroke_order_diagram--existing_path" d="M42.25,28.78c1.46,0.33,4.16,0.51,5.62,0.33C61.25,27.5,73.5,26,91.12,24.63c2.43-0.19,4.13,0.12,5.63,0.83" id="Ske2u2a9m26" kvg:type="㇐" transform="matrix(1,0,0,1,696,-4)" xmlns:kvg="http://kanjivg.tagaini.net"></path><path class="stroke_order_diagram--current_path" d="M64.49,13.5c0.39,0.3,1.12,1.83,1.2,2.42c0.08,0.59-0.18,22.42-0.26,26.12" id="kvg:07de4-s8" kvg:type="㇑" transform="matrix(1,0,0,1,696,-4)" xmlns:kvg="http://kanjivg.tagaini.net"></path><path class="stroke_order_diagram--current_path" d="M64.49,13.5c0.39,0.3,1.12,1.83,1.2,2.42c0.08,0.59-0.18,22.42-0.26,26.12" id="Ske2u2a9m28" kvg:type="㇑" transform="matrix(1,0,0,1,696,-4)" xmlns:kvg="http://kanjivg.tagaini.net"></path><circle class="stroke_order_diagram--path_start" cx="64.49" cy="13.5" r="4" transform="matrix(1,0,0,1,696,-4)"></circle><line class="stroke_order_diagram--guide_line" x1="850" x2="850" y1="1" y2="99"></line><line class="stroke_order_diagram--bounding_box" x1="899" x2="899" y1="1" y2="99"></line><path class="stroke_order_diagram--existing_path" d="M27.96,13c0.35,1.4,0.66,2.59-0.18,3.97c-3.68,6.07-10.3,15.94-13.8,19.21c-0.72,0.67-0.69,3.24,0,3.5c3.67,1.4,8.2,2.74,11.35,5.3" id="Ske2u2a9m2b" kvg:type="㇜" transform="matrix(1,0,0,1,796,-4)" xmlns:kvg="http://kanjivg.tagaini.net"></path><path class="stroke_order_diagram--existing_path" d="M35.78,27.44c0.29,0.55,0.38,2.35,0,2.94C30.25,39,22.5,48.5,14.9,56.36c-1.74,1.8,0.43,2.83,1.57,2.47c4.75-1.53,15.17-3.61,21.28-5.08" id="Ske2u2a9m2c" kvg:type="㇜" transform="matrix(1,0,0,1,796,-4)" xmlns:kvg="http://kanjivg.tagaini.net"></path><path class="stroke_order_diagram--existing_path" d="M34,46.25c2.47,2.21,6.38,9.07,7,12.5" id="Ske2u2a9m2d" kvg:type="㇔" transform="matrix(1,0,0,1,796,-4)" xmlns:kvg="http://kanjivg.tagaini.net"></path><path class="stroke_order_diagram--existing_path" d="M26.86,57.01c0.08,0.29,1.09,1.48,1.17,3.28c0.37,8.64-0.24,34.27-0.24,37.21" id="Ske2u2a9m2e" kvg:type="㇑" transform="matrix(1,0,0,1,796,-4)" xmlns:kvg="http://kanjivg.tagaini.net"></path><path class="stroke_order_diagram--existing_path" d="M18.73,69.25c0.16,0.85,0.14,2.54-0.16,3.15C16.62,76.39,11.75,84.08,9,87.5" id="Ske2u2a9m2f" kvg:type="㇒" transform="matrix(1,0,0,1,796,-4)" xmlns:kvg="http://kanjivg.tagaini.net"></path><path class="stroke_order_diagram--existing_path" d="M35.75,67.75c2.88,3.13,5.08,10.41,5.75,13.25" id="Ske2u2a9m2g" kvg:type="㇔" transform="matrix(1,0,0,1,796,-4)" xmlns:kvg="http://kanjivg.tagaini.net"></path><path class="stroke_order_diagram--existing_path" d="M42.25,28.78c1.46,0.33,4.16,0.51,5.62,0.33C61.25,27.5,73.5,26,91.12,24.63c2.43-0.19,4.13,0.12,5.63,0.83" id="Ske2u2a9m2h" kvg:type="㇐" transform="matrix(1,0,0,1,796,-4)" xmlns:kvg="http://kanjivg.tagaini.net"></path><path class="stroke_order_diagram--existing_path" d="M64.49,13.5c0.39,0.3,1.12,1.83,1.2,2.42c0.08,0.59-0.18,22.42-0.26,26.12" id="Ske2u2a9m2i" kvg:type="㇑" transform="matrix(1,0,0,1,796,-4)" xmlns:kvg="http://kanjivg.tagaini.net"></path><path class="stroke_order_diagram--current_path" d="M79.8,11.5c0.67,0.31,1.08,1.41,1.21,2.03c0.13,0.63-1.29,18.35-1.68,24.92" id="kvg:07de4-s9" kvg:type="㇑" transform="matrix(1,0,0,1,796,-4)" xmlns:kvg="http://kanjivg.tagaini.net"></path><path class="stroke_order_diagram--current_path" d="M79.8,11.5c0.67,0.31,1.08,1.41,1.21,2.03c0.13,0.63-1.29,18.35-1.68,24.92" id="Ske2u2a9m2k" kvg:type="㇑" transform="matrix(1,0,0,1,796,-4)" xmlns:kvg="http://kanjivg.tagaini.net"></path><circle class="stroke_order_diagram--path_start" cx="79.8" cy="11.5" r="4" transform="matrix(1,0,0,1,796,-4)"></circle><line class="stroke_order_diagram--guide_line" x1="950" x2="950" y1="1" y2="99"></line><line class="stroke_order_diagram--bounding_box" x1="999" x2="999" y1="1" y2="99"></line><path class="stroke_order_diagram--existing_path" d="M27.96,13c0.35,1.4,0.66,2.59-0.18,3.97c-3.68,6.07-10.3,15.94-13.8,19.21c-0.72,0.67-0.69,3.24,0,3.5c3.67,1.4,8.2,2.74,11.35,5.3" id="Ske2u2a9m2n" kvg:type="㇜" transform="matrix(1,0,0,1,896,-4)" xmlns:kvg="http://kanjivg.tagaini.net"></path><path class="stroke_order_diagram--existing_path" d="M35.78,27.44c0.29,0.55,0.38,2.35,0,2.94C30.25,39,22.5,48.5,14.9,56.36c-1.74,1.8,0.43,2.83,1.57,2.47c4.75-1.53,15.17-3.61,21.28-5.08" id="Ske2u2a9m2o" kvg:type="㇜" transform="matrix(1,0,0,1,896,-4)" xmlns:kvg="http://kanjivg.tagaini.net"></path><path class="stroke_order_diagram--existing_path" d="M34,46.25c2.47,2.21,6.38,9.07,7,12.5" id="Ske2u2a9m2p" kvg:type="㇔" transform="matrix(1,0,0,1,896,-4)" xmlns:kvg="http://kanjivg.tagaini.net"></path><path class="stroke_order_diagram--existing_path" d="M26.86,57.01c0.08,0.29,1.09,1.48,1.17,3.28c0.37,8.64-0.24,34.27-0.24,37.21" id="Ske2u2a9m2q" kvg:type="㇑" transform="matrix(1,0,0,1,896,-4)" xmlns:kvg="http://kanjivg.tagaini.net"></path><path class="stroke_order_diagram--existing_path" d="M18.73,69.25c0.16,0.85,0.14,2.54-0.16,3.15C16.62,76.39,11.75,84.08,9,87.5" id="Ske2u2a9m2r" kvg:type="㇒" transform="matrix(1,0,0,1,896,-4)" xmlns:kvg="http://kanjivg.tagaini.net"></path><path class="stroke_order_diagram--existing_path" d="M35.75,67.75c2.88,3.13,5.08,10.41,5.75,13.25" id="Ske2u2a9m2s" kvg:type="㇔" transform="matrix(1,0,0,1,896,-4)" xmlns:kvg="http://kanjivg.tagaini.net"></path><path class="stroke_order_diagram--existing_path" d="M42.25,28.78c1.46,0.33,4.16,0.51,5.62,0.33C61.25,27.5,73.5,26,91.12,24.63c2.43-0.19,4.13,0.12,5.63,0.83" id="Ske2u2a9m2t" kvg:type="㇐" transform="matrix(1,0,0,1,896,-4)" xmlns:kvg="http://kanjivg.tagaini.net"></path><path class="stroke_order_diagram--existing_path" d="M64.49,13.5c0.39,0.3,1.12,1.83,1.2,2.42c0.08,0.59-0.18,22.42-0.26,26.12" id="Ske2u2a9m2u" kvg:type="㇑" transform="matrix(1,0,0,1,896,-4)" xmlns:kvg="http://kanjivg.tagaini.net"></path><path class="stroke_order_diagram--existing_path" d="M79.8,11.5c0.67,0.31,1.08,1.41,1.21,2.03c0.13,0.63-1.29,18.35-1.68,24.92" id="Ske2u2a9m2v" kvg:type="㇑" transform="matrix(1,0,0,1,896,-4)" xmlns:kvg="http://kanjivg.tagaini.net"></path><path class="stroke_order_diagram--current_path" d="M67.54,39.89c2.48,0,12.84-1.25,14.24-1.25" id="kvg:07de4-s10" kvg:type="㇐" transform="matrix(1,0,0,1,896,-4)" xmlns:kvg="http://kanjivg.tagaini.net"></path><path class="stroke_order_diagram--current_path" d="M67.54,39.89c2.48,0,12.84-1.25,14.24-1.25" id="Ske2u2a9m2x" kvg:type="㇐" transform="matrix(1,0,0,1,896,-4)" xmlns:kvg="http://kanjivg.tagaini.net"></path><circle class="stroke_order_diagram--path_start" cx="67.54" cy="39.89" r="4" transform="matrix(1,0,0,1,896,-4)"></circle><line class="stroke_order_diagram--guide_line" x1="1050" x2="1050" y1="1" y2="99"></line><line class="stroke_order_diagram--bounding_box" x1="1099" x2="1099" y1="1" y2="99"></line><path class="stroke_order_diagram--existing_path" d="M27.96,13c0.35,1.4,0.66,2.59-0.18,3.97c-3.68,6.07-10.3,15.94-13.8,19.21c-0.72,0.67-0.69,3.24,0,3.5c3.67,1.4,8.2,2.74,11.35,5.3" id="Ske2u2a9m30" kvg:type="㇜" transform="matrix(1,0,0,1,996,-4)" xmlns:kvg="http://kanjivg.tagaini.net"></path><path class="stroke_order_diagram--existing_path" d="M35.78,27.44c0.29,0.55,0.38,2.35,0,2.94C30.25,39,22.5,48.5,14.9,56.36c-1.74,1.8,0.43,2.83,1.57,2.47c4.75-1.53,15.17-3.61,21.28-5.08" id="Ske2u2a9m31" kvg:type="㇜" transform="matrix(1,0,0,1,996,-4)" xmlns:kvg="http://kanjivg.tagaini.net"></path><path class="stroke_order_diagram--existing_path" d="M34,46.25c2.47,2.21,6.38,9.07,7,12.5" id="Ske2u2a9m32" kvg:type="㇔" transform="matrix(1,0,0,1,996,-4)" xmlns:kvg="http://kanjivg.tagaini.net"></path><path class="stroke_order_diagram--existing_path" d="M26.86,57.01c0.08,0.29,1.09,1.48,1.17,3.28c0.37,8.64-0.24,34.27-0.24,37.21" id="Ske2u2a9m33" kvg:type="㇑" transform="matrix(1,0,0,1,996,-4)" xmlns:kvg="http://kanjivg.tagaini.net"></path><path class="stroke_order_diagram--existing_path" d="M18.73,69.25c0.16,0.85,0.14,2.54-0.16,3.15C16.62,76.39,11.75,84.08,9,87.5" id="Ske2u2a9m34" kvg:type="㇒" transform="matrix(1,0,0,1,996,-4)" xmlns:kvg="http://kanjivg.tagaini.net"></path><path class="stroke_order_diagram--existing_path" d="M35.75,67.75c2.88,3.13,5.08,10.41,5.75,13.25" id="Ske2u2a9m35" kvg:type="㇔" transform="matrix(1,0,0,1,996,-4)" xmlns:kvg="http://kanjivg.tagaini.net"></path><path class="stroke_order_diagram--existing_path" d="M42.25,28.78c1.46,0.33,4.16,0.51,5.62,0.33C61.25,27.5,73.5,26,91.12,24.63c2.43-0.19,4.13,0.12,5.63,0.83" id="Ske2u2a9m36" kvg:type="㇐" transform="matrix(1,0,0,1,996,-4)" xmlns:kvg="http://kanjivg.tagaini.net"></path><path class="stroke_order_diagram--existing_path" d="M64.49,13.5c0.39,0.3,1.12,1.83,1.2,2.42c0.08,0.59-0.18,22.42-0.26,26.12" id="Ske2u2a9m37" kvg:type="㇑" transform="matrix(1,0,0,1,996,-4)" xmlns:kvg="http://kanjivg.tagaini.net"></path><path class="stroke_order_diagram--existing_path" d="M79.8,11.5c0.67,0.31,1.08,1.41,1.21,2.03c0.13,0.63-1.29,18.35-1.68,24.92" id="Ske2u2a9m38" kvg:type="㇑" transform="matrix(1,0,0,1,996,-4)" xmlns:kvg="http://kanjivg.tagaini.net"></path><path class="stroke_order_diagram--existing_path" d="M67.54,39.89c2.48,0,12.84-1.25,14.24-1.25" id="Ske2u2a9m39" kvg:type="㇐" transform="matrix(1,0,0,1,996,-4)" xmlns:kvg="http://kanjivg.tagaini.net"></path><path class="stroke_order_diagram--current_path" d="M50.75,15.82c0.67,0.31,1.08,2.41,1.21,3.03s0,19.83-0.48,27.02c-0.15,2.35-0.24,4.12,2.32,3.91c10.87-0.88,21.19-2.04,31.91-2.35c2.02-0.06,3.71,0.13,4.49,0.28" id="kvg:07de4-s11" kvg:type="㇗" transform="matrix(1,0,0,1,996,-4)" xmlns:kvg="http://kanjivg.tagaini.net"></path><path class="stroke_order_diagram--current_path" d="M50.75,15.82c0.67,0.31,1.08,2.41,1.21,3.03s0,19.83-0.48,27.02c-0.15,2.35-0.24,4.12,2.32,3.91c10.87-0.88,21.19-2.04,31.91-2.35c2.02-0.06,3.71,0.13,4.49,0.28" id="Ske2u2a9m3b" kvg:type="㇗" transform="matrix(1,0,0,1,996,-4)" xmlns:kvg="http://kanjivg.tagaini.net"></path><circle class="stroke_order_diagram--path_start" cx="50.75" cy="15.82" r="4" transform="matrix(1,0,0,1,996,-4)"></circle><line class="stroke_order_diagram--guide_line" x1="1150" x2="1150" y1="1" y2="99"></line><line class="stroke_order_diagram--bounding_box" x1="1199" x2="1199" y1="1" y2="99"></line><path class="stroke_order_diagram--existing_path" d="M27.96,13c0.35,1.4,0.66,2.59-0.18,3.97c-3.68,6.07-10.3,15.94-13.8,19.21c-0.72,0.67-0.69,3.24,0,3.5c3.67,1.4,8.2,2.74,11.35,5.3" id="Ske2u2a9m3e" kvg:type="㇜" transform="matrix(1,0,0,1,1096,-4)" xmlns:kvg="http://kanjivg.tagaini.net"></path><path class="stroke_order_diagram--existing_path" d="M35.78,27.44c0.29,0.55,0.38,2.35,0,2.94C30.25,39,22.5,48.5,14.9,56.36c-1.74,1.8,0.43,2.83,1.57,2.47c4.75-1.53,15.17-3.61,21.28-5.08" id="Ske2u2a9m3f" kvg:type="㇜" transform="matrix(1,0,0,1,1096,-4)" xmlns:kvg="http://kanjivg.tagaini.net"></path><path class="stroke_order_diagram--existing_path" d="M34,46.25c2.47,2.21,6.38,9.07,7,12.5" id="Ske2u2a9m3g" kvg:type="㇔" transform="matrix(1,0,0,1,1096,-4)" xmlns:kvg="http://kanjivg.tagaini.net"></path><path class="stroke_order_diagram--existing_path" d="M26.86,57.01c0.08,0.29,1.09,1.48,1.17,3.28c0.37,8.64-0.24,34.27-0.24,37.21" id="Ske2u2a9m3h" kvg:type="㇑" transform="matrix(1,0,0,1,1096,-4)" xmlns:kvg="http://kanjivg.tagaini.net"></path><path class="stroke_order_diagram--existing_path" d="M18.73,69.25c0.16,0.85,0.14,2.54-0.16,3.15C16.62,76.39,11.75,84.08,9,87.5" id="Ske2u2a9m3i" kvg:type="㇒" transform="matrix(1,0,0,1,1096,-4)" xmlns:kvg="http://kanjivg.tagaini.net"></path><path class="stroke_order_diagram--existing_path" d="M35.75,67.75c2.88,3.13,5.08,10.41,5.75,13.25" id="Ske2u2a9m3j" kvg:type="㇔" transform="matrix(1,0,0,1,1096,-4)" xmlns:kvg="http://kanjivg.tagaini.net"></path><path class="stroke_order_diagram--existing_path" d="M42.25,28.78c1.46,0.33,4.16,0.51,5.62,0.33C61.25,27.5,73.5,26,91.12,24.63c2.43-0.19,4.13,0.12,5.63,0.83" id="Ske2u2a9m3k" kvg:type="㇐" transform="matrix(1,0,0,1,1096,-4)" xmlns:kvg="http://kanjivg.tagaini.net"></path><path class="stroke_order_diagram--existing_path" d="M64.49,13.5c0.39,0.3,1.12,1.83,1.2,2.42c0.08,0.59-0.18,22.42-0.26,26.12" id="Ske2u2a9m3l" kvg:type="㇑" transform="matrix(1,0,0,1,1096,-4)" xmlns:kvg="http://kanjivg.tagaini.net"></path><path class="stroke_order_diagram--existing_path" d="M79.8,11.5c0.67,0.31,1.08,1.41,1.21,2.03c0.13,0.63-1.29,18.35-1.68,24.92" id="Ske2u2a9m3m" kvg:type="㇑" transform="matrix(1,0,0,1,1096,-4)" xmlns:kvg="http://kanjivg.tagaini.net"></path><path class="stroke_order_diagram--existing_path" d="M67.54,39.89c2.48,0,12.84-1.25,14.24-1.25" id="Ske2u2a9m3n" kvg:type="㇐" transform="matrix(1,0,0,1,1096,-4)" xmlns:kvg="http://kanjivg.tagaini.net"></path><path class="stroke_order_diagram--existing_path" d="M50.75,15.82c0.67,0.31,1.08,2.41,1.21,3.03s0,19.83-0.48,27.02c-0.15,2.35-0.24,4.12,2.32,3.91c10.87-0.88,21.19-2.04,31.91-2.35c2.02-0.06,3.71,0.13,4.49,0.28" id="Ske2u2a9m3o" kvg:type="㇗" transform="matrix(1,0,0,1,1096,-4)" xmlns:kvg="http://kanjivg.tagaini.net"></path><path class="stroke_order_diagram--current_path" d="M42.99,65.87c1.69,0.68,3.61,0.83,5.55,0.68c10.21-0.8,27.32-2.25,42.29-3.55c1.93-0.17,3.14,0.11,5.07,0.59" id="kvg:07de4-s12" kvg:type="㇐" transform="matrix(1,0,0,1,1096,-4)" xmlns:kvg="http://kanjivg.tagaini.net"></path><path class="stroke_order_diagram--current_path" d="M42.99,65.87c1.69,0.68,3.61,0.83,5.55,0.68c10.21-0.8,27.32-2.25,42.29-3.55c1.93-0.17,3.14,0.11,5.07,0.59" id="Ske2u2a9m3q" kvg:type="㇐" transform="matrix(1,0,0,1,1096,-4)" xmlns:kvg="http://kanjivg.tagaini.net"></path><circle class="stroke_order_diagram--path_start" cx="42.99" cy="65.87" r="4" transform="matrix(1,0,0,1,1096,-4)"></circle><line class="stroke_order_diagram--guide_line" x1="1250" x2="1250" y1="1" y2="99"></line><line class="stroke_order_diagram--bounding_box" x1="1299" x2="1299" y1="1" y2="99"></line><path class="stroke_order_diagram--existing_path" d="M27.96,13c0.35,1.4,0.66,2.59-0.18,3.97c-3.68,6.07-10.3,15.94-13.8,19.21c-0.72,0.67-0.69,3.24,0,3.5c3.67,1.4,8.2,2.74,11.35,5.3" id="Ske2u2a9m3t" kvg:type="㇜" transform="matrix(1,0,0,1,1196,-4)" xmlns:kvg="http://kanjivg.tagaini.net"></path><path class="stroke_order_diagram--existing_path" d="M35.78,27.44c0.29,0.55,0.38,2.35,0,2.94C30.25,39,22.5,48.5,14.9,56.36c-1.74,1.8,0.43,2.83,1.57,2.47c4.75-1.53,15.17-3.61,21.28-5.08" id="Ske2u2a9m3u" kvg:type="㇜" transform="matrix(1,0,0,1,1196,-4)" xmlns:kvg="http://kanjivg.tagaini.net"></path><path class="stroke_order_diagram--existing_path" d="M34,46.25c2.47,2.21,6.38,9.07,7,12.5" id="Ske2u2a9m3v" kvg:type="㇔" transform="matrix(1,0,0,1,1196,-4)" xmlns:kvg="http://kanjivg.tagaini.net"></path><path class="stroke_order_diagram--existing_path" d="M26.86,57.01c0.08,0.29,1.09,1.48,1.17,3.28c0.37,8.64-0.24,34.27-0.24,37.21" id="Ske2u2a9m3w" kvg:type="㇑" transform="matrix(1,0,0,1,1196,-4)" xmlns:kvg="http://kanjivg.tagaini.net"></path><path class="stroke_order_diagram--existing_path" d="M18.73,69.25c0.16,0.85,0.14,2.54-0.16,3.15C16.62,76.39,11.75,84.08,9,87.5" id="Ske2u2a9m3x" kvg:type="㇒" transform="matrix(1,0,0,1,1196,-4)" xmlns:kvg="http://kanjivg.tagaini.net"></path><path class="stroke_order_diagram--existing_path" d="M35.75,67.75c2.88,3.13,5.08,10.41,5.75,13.25" id="Ske2u2a9m3y" kvg:type="㇔" transform="matrix(1,0,0,1,1196,-4)" xmlns:kvg="http://kanjivg.tagaini.net"></path><path class="stroke_order_diagram--existing_path" d="M42.25,28.78c1.46,0.33,4.16,0.51,5.62,0.33C61.25,27.5,73.5,26,91.12,24.63c2.43-0.19,4.13,0.12,5.63,0.83" id="Ske2u2a9m3z" kvg:type="㇐" transform="matrix(1,0,0,1,1196,-4)" xmlns:kvg="http://kanjivg.tagaini.net"></path><path class="stroke_order_diagram--existing_path" d="M64.49,13.5c0.39,0.3,1.12,1.83,1.2,2.42c0.08,0.59-0.18,22.42-0.26,26.12" id="Ske2u2a9m40" kvg:type="㇑" transform="matrix(1,0,0,1,1196,-4)" xmlns:kvg="http://kanjivg.tagaini.net"></path><path class="stroke_order_diagram--existing_path" d="M79.8,11.5c0.67,0.31,1.08,1.41,1.21,2.03c0.13,0.63-1.29,18.35-1.68,24.92" id="Ske2u2a9m41" kvg:type="㇑" transform="matrix(1,0,0,1,1196,-4)" xmlns:kvg="http://kanjivg.tagaini.net"></path><path class="stroke_order_diagram--existing_path" d="M67.54,39.89c2.48,0,12.84-1.25,14.24-1.25" id="Ske2u2a9m42" kvg:type="㇐" transform="matrix(1,0,0,1,1196,-4)" xmlns:kvg="http://kanjivg.tagaini.net"></path><path class="stroke_order_diagram--existing_path" d="M50.75,15.82c0.67,0.31,1.08,2.41,1.21,3.03s0,19.83-0.48,27.02c-0.15,2.35-0.24,4.12,2.32,3.91c10.87-0.88,21.19-2.04,31.91-2.35c2.02-0.06,3.71,0.13,4.49,0.28" id="Ske2u2a9m43" kvg:type="㇗" transform="matrix(1,0,0,1,1196,-4)" xmlns:kvg="http://kanjivg.tagaini.net"></path><path class="stroke_order_diagram--existing_path" d="M42.99,65.87c1.69,0.68,3.61,0.83,5.55,0.68c10.21-0.8,27.32-2.25,42.29-3.55c1.93-0.17,3.14,0.11,5.07,0.59" id="Ske2u2a9m44" kvg:type="㇐" transform="matrix(1,0,0,1,1196,-4)" xmlns:kvg="http://kanjivg.tagaini.net"></path><path class="stroke_order_diagram--current_path" d="M66.28,53.25c1.03,0.42,1.86,1.86,1.86,2.72c0,8.79,0,38.55-0.21,43.78" id="kvg:07de4-s13" kvg:type="㇑" transform="matrix(1,0,0,1,1196,-4)" xmlns:kvg="http://kanjivg.tagaini.net"></path><path class="stroke_order_diagram--current_path" d="M66.28,53.25c1.03,0.42,1.86,1.86,1.86,2.72c0,8.79,0,38.55-0.21,43.78" id="Ske2u2a9m46" kvg:type="㇑" transform="matrix(1,0,0,1,1196,-4)" xmlns:kvg="http://kanjivg.tagaini.net"></path><circle class="stroke_order_diagram--path_start" cx="66.28" cy="53.25" r="4" transform="matrix(1,0,0,1,1196,-4)"></circle><line class="stroke_order_diagram--guide_line" x1="1350" x2="1350" y1="1" y2="99"></line><line class="stroke_order_diagram--bounding_box" x1="1399" x2="1399" y1="1" y2="99"></line><path class="stroke_order_diagram--existing_path" d="M27.96,13c0.35,1.4,0.66,2.59-0.18,3.97c-3.68,6.07-10.3,15.94-13.8,19.21c-0.72,0.67-0.69,3.24,0,3.5c3.67,1.4,8.2,2.74,11.35,5.3" id="Ske2u2a9m49" kvg:type="㇜" transform="matrix(1,0,0,1,1296,-4)" xmlns:kvg="http://kanjivg.tagaini.net"></path><path class="stroke_order_diagram--existing_path" d="M35.78,27.44c0.29,0.55,0.38,2.35,0,2.94C30.25,39,22.5,48.5,14.9,56.36c-1.74,1.8,0.43,2.83,1.57,2.47c4.75-1.53,15.17-3.61,21.28-5.08" id="Ske2u2a9m4a" kvg:type="㇜" transform="matrix(1,0,0,1,1296,-4)" xmlns:kvg="http://kanjivg.tagaini.net"></path><path class="stroke_order_diagram--existing_path" d="M34,46.25c2.47,2.21,6.38,9.07,7,12.5" id="Ske2u2a9m4b" kvg:type="㇔" transform="matrix(1,0,0,1,1296,-4)" xmlns:kvg="http://kanjivg.tagaini.net"></path><path class="stroke_order_diagram--existing_path" d="M26.86,57.01c0.08,0.29,1.09,1.48,1.17,3.28c0.37,8.64-0.24,34.27-0.24,37.21" id="Ske2u2a9m4c" kvg:type="㇑" transform="matrix(1,0,0,1,1296,-4)" xmlns:kvg="http://kanjivg.tagaini.net"></path><path class="stroke_order_diagram--existing_path" d="M18.73,69.25c0.16,0.85,0.14,2.54-0.16,3.15C16.62,76.39,11.75,84.08,9,87.5" id="Ske2u2a9m4d" kvg:type="㇒" transform="matrix(1,0,0,1,1296,-4)" xmlns:kvg="http://kanjivg.tagaini.net"></path><path class="stroke_order_diagram--existing_path" d="M35.75,67.75c2.88,3.13,5.08,10.41,5.75,13.25" id="Ske2u2a9m4e" kvg:type="㇔" transform="matrix(1,0,0,1,1296,-4)" xmlns:kvg="http://kanjivg.tagaini.net"></path><path class="stroke_order_diagram--existing_path" d="M42.25,28.78c1.46,0.33,4.16,0.51,5.62,0.33C61.25,27.5,73.5,26,91.12,24.63c2.43-0.19,4.13,0.12,5.63,0.83" id="Ske2u2a9m4f" kvg:type="㇐" transform="matrix(1,0,0,1,1296,-4)" xmlns:kvg="http://kanjivg.tagaini.net"></path><path class="stroke_order_diagram--existing_path" d="M64.49,13.5c0.39,0.3,1.12,1.83,1.2,2.42c0.08,0.59-0.18,22.42-0.26,26.12" id="Ske2u2a9m4g" kvg:type="㇑" transform="matrix(1,0,0,1,1296,-4)" xmlns:kvg="http://kanjivg.tagaini.net"></path><path class="stroke_order_diagram--existing_path" d="M79.8,11.5c0.67,0.31,1.08,1.41,1.21,2.03c0.13,0.63-1.29,18.35-1.68,24.92" id="Ske2u2a9m4h" kvg:type="㇑" transform="matrix(1,0,0,1,1296,-4)" xmlns:kvg="http://kanjivg.tagaini.net"></path><path class="stroke_order_diagram--existing_path" d="M67.54,39.89c2.48,0,12.84-1.25,14.24-1.25" id="Ske2u2a9m4i" kvg:type="㇐" transform="matrix(1,0,0,1,1296,-4)" xmlns:kvg="http://kanjivg.tagaini.net"></path><path class="stroke_order_diagram--existing_path" d="M50.75,15.82c0.67,0.31,1.08,2.41,1.21,3.03s0,19.83-0.48,27.02c-0.15,2.35-0.24,4.12,2.32,3.91c10.87-0.88,21.19-2.04,31.91-2.35c2.02-0.06,3.71,0.13,4.49,0.28" id="Ske2u2a9m4j" kvg:type="㇗" transform="matrix(1,0,0,1,1296,-4)" xmlns:kvg="http://kanjivg.tagaini.net"></path><path class="stroke_order_diagram--existing_path" d="M42.99,65.87c1.69,0.68,3.61,0.83,5.55,0.68c10.21-0.8,27.32-2.25,42.29-3.55c1.93-0.17,3.14,0.11,5.07,0.59" id="Ske2u2a9m4k" kvg:type="㇐" transform="matrix(1,0,0,1,1296,-4)" xmlns:kvg="http://kanjivg.tagaini.net"></path><path class="stroke_order_diagram--existing_path" d="M66.28,53.25c1.03,0.42,1.86,1.86,1.86,2.72c0,8.79,0,38.55-0.21,43.78" id="Ske2u2a9m4l" kvg:type="㇑" transform="matrix(1,0,0,1,1296,-4)" xmlns:kvg="http://kanjivg.tagaini.net"></path><path class="stroke_order_diagram--current_path" d="M67.85,65.73C62.92,74.71,49.7,88.42,39.44,93.5" id="kvg:07de4-s14" kvg:type="㇒" transform="matrix(1,0,0,1,1296,-4)" xmlns:kvg="http://kanjivg.tagaini.net"></path><path class="stroke_order_diagram--current_path" d="M67.85,65.73C62.92,74.71,49.7,88.42,39.44,93.5" id="Ske2u2a9m4n" kvg:type="㇒" transform="matrix(1,0,0,1,1296,-4)" xmlns:kvg="http://kanjivg.tagaini.net"></path><circle class="stroke_order_diagram--path_start" cx="67.85" cy="65.73" r="4" transform="matrix(1,0,0,1,1296,-4)"></circle><line class="stroke_order_diagram--guide_line" x1="1450" x2="1450" y1="1" y2="99"></line><line class="stroke_order_diagram--bounding_box" x1="1499" x2="1499" y1="1" y2="99"></line><path class="stroke_order_diagram--existing_path" d="M27.96,13c0.35,1.4,0.66,2.59-0.18,3.97c-3.68,6.07-10.3,15.94-13.8,19.21c-0.72,0.67-0.69,3.24,0,3.5c3.67,1.4,8.2,2.74,11.35,5.3" id="Ske2u2a9m4q" kvg:type="㇜" transform="matrix(1,0,0,1,1396,-4)" xmlns:kvg="http://kanjivg.tagaini.net"></path><path class="stroke_order_diagram--existing_path" d="M35.78,27.44c0.29,0.55,0.38,2.35,0,2.94C30.25,39,22.5,48.5,14.9,56.36c-1.74,1.8,0.43,2.83,1.57,2.47c4.75-1.53,15.17-3.61,21.28-5.08" id="Ske2u2a9m4r" kvg:type="㇜" transform="matrix(1,0,0,1,1396,-4)" xmlns:kvg="http://kanjivg.tagaini.net"></path><path class="stroke_order_diagram--existing_path" d="M34,46.25c2.47,2.21,6.38,9.07,7,12.5" id="Ske2u2a9m4s" kvg:type="㇔" transform="matrix(1,0,0,1,1396,-4)" xmlns:kvg="http://kanjivg.tagaini.net"></path><path class="stroke_order_diagram--existing_path" d="M26.86,57.01c0.08,0.29,1.09,1.48,1.17,3.28c0.37,8.64-0.24,34.27-0.24,37.21" id="Ske2u2a9m4t" kvg:type="㇑" transform="matrix(1,0,0,1,1396,-4)" xmlns:kvg="http://kanjivg.tagaini.net"></path><path class="stroke_order_diagram--existing_path" d="M18.73,69.25c0.16,0.85,0.14,2.54-0.16,3.15C16.62,76.39,11.75,84.08,9,87.5" id="Ske2u2a9m4u" kvg:type="㇒" transform="matrix(1,0,0,1,1396,-4)" xmlns:kvg="http://kanjivg.tagaini.net"></path><path class="stroke_order_diagram--existing_path" d="M35.75,67.75c2.88,3.13,5.08,10.41,5.75,13.25" id="Ske2u2a9m4v" kvg:type="㇔" transform="matrix(1,0,0,1,1396,-4)" xmlns:kvg="http://kanjivg.tagaini.net"></path><path class="stroke_order_diagram--existing_path" d="M42.25,28.78c1.46,0.33,4.16,0.51,5.62,0.33C61.25,27.5,73.5,26,91.12,24.63c2.43-0.19,4.13,0.12,5.63,0.83" id="Ske2u2a9m4w" kvg:type="㇐" transform="matrix(1,0,0,1,1396,-4)" xmlns:kvg="http://kanjivg.tagaini.net"></path><path class="stroke_order_diagram--existing_path" d="M64.49,13.5c0.39,0.3,1.12,1.83,1.2,2.42c0.08,0.59-0.18,22.42-0.26,26.12" id="Ske2u2a9m4x" kvg:type="㇑" transform="matrix(1,0,0,1,1396,-4)" xmlns:kvg="http://kanjivg.tagaini.net"></path><path class="stroke_order_diagram--existing_path" d="M79.8,11.5c0.67,0.31,1.08,1.41,1.21,2.03c0.13,0.63-1.29,18.35-1.68,24.92" id="Ske2u2a9m4y" kvg:type="㇑" transform="matrix(1,0,0,1,1396,-4)" xmlns:kvg="http://kanjivg.tagaini.net"></path><path class="stroke_order_diagram--existing_path" d="M67.54,39.89c2.48,0,12.84-1.25,14.24-1.25" id="Ske2u2a9m4z" kvg:type="㇐" transform="matrix(1,0,0,1,1396,-4)" xmlns:kvg="http://kanjivg.tagaini.net"></path><path class="stroke_order_diagram--existing_path" d="M50.75,15.82c0.67,0.31,1.08,2.41,1.21,3.03s0,19.83-0.48,27.02c-0.15,2.35-0.24,4.12,2.32,3.91c10.87-0.88,21.19-2.04,31.91-2.35c2.02-0.06,3.71,0.13,4.49,0.28" id="Ske2u2a9m50" kvg:type="㇗" transform="matrix(1,0,0,1,1396,-4)" xmlns:kvg="http://kanjivg.tagaini.net"></path><path class="stroke_order_diagram--existing_path" d="M42.99,65.87c1.69,0.68,3.61,0.83,5.55,0.68c10.21-0.8,27.32-2.25,42.29-3.55c1.93-0.17,3.14,0.11,5.07,0.59" id="Ske2u2a9m51" kvg:type="㇐" transform="matrix(1,0,0,1,1396,-4)" xmlns:kvg="http://kanjivg.tagaini.net"></path><path class="stroke_order_diagram--existing_path" d="M66.28,53.25c1.03,0.42,1.86,1.86,1.86,2.72c0,8.79,0,38.55-0.21,43.78" id="Ske2u2a9m52" kvg:type="㇑" transform="matrix(1,0,0,1,1396,-4)" xmlns:kvg="http://kanjivg.tagaini.net"></path><path class="stroke_order_diagram--existing_path" d="M67.85,65.73C62.92,74.71,49.7,88.42,39.44,93.5" id="Ske2u2a9m53" kvg:type="㇒" transform="matrix(1,0,0,1,1396,-4)" xmlns:kvg="http://kanjivg.tagaini.net"></path><path class="stroke_order_diagram--current_path" d="M68.43,66.34c3.46,3.31,19.73,19.9,23.49,23.15c1.27,1.1,2.37,1.57,3.64,1.89" id="kvg:07de4-s15" kvg:type="㇏" transform="matrix(1,0,0,1,1396,-4)" xmlns:kvg="http://kanjivg.tagaini.net"></path><path class="stroke_order_diagram--current_path" d="M68.43,66.34c3.46,3.31,19.73,19.9,23.49,23.15c1.27,1.1,2.37,1.57,3.64,1.89" id="Ske2u2a9m55" kvg:type="㇏" transform="matrix(1,0,0,1,1396,-4)" xmlns:kvg="http://kanjivg.tagaini.net"></path><circle class="stroke_order_diagram--path_start" cx="68.43" cy="66.34" r="4" transform="matrix(1,0,0,1,1396,-4)"></circle></svg>