<svg class="stroke_order_diagram--svg_container_for_51866296d5dda796580009c0" style="height: 100px; width: 1500px;" viewbox="0 0 1500 100"><desc>Created with Snap</desc><defs></defs><line class="stroke_order_diagram--bounding_box" x1="1" x2="1499" y1="1" y2="1"></line><line class="stroke_order_diagram--bounding_box" x1="1" x2="1" y1="1" y2="99"></line><line class="stroke_order_diagram--bounding_box" x1="1" x2="1499" y1="99" y2="99"></line><line class="stroke_order_diagram--guide_line" x1="0" x2="1500" y1="50" y2="50"></line><line class="stroke_order_diagram--guide_line" x1="50" x2="50" y1="1" y2="99"></line><line class="stroke_order_diagram--bounding_box" x1="99" x2="99" y1="1" y2="99"></line><path class="stroke_order_diagram--current_path" d="M27.65,14.5c0.31,1.21,0.09,2.49-0.66,3.69c-3.26,5.27-7.61,11.56-11.57,16.54c-0.54,0.68-0.37,2.81,0.25,3.04c3.26,1.21,7.59,2.99,10.39,5.22" id="kvg:07de8-s1" kvg:type="㇜" transform="matrix(1,0,0,1,-4,-4)" xmlns:kvg="http://kanjivg.tagaini.net"></path><path class="stroke_order_diagram--current_path" d="M27.65,14.5c0.31,1.21,0.09,2.49-0.66,3.69c-3.26,5.27-7.61,11.56-11.57,16.54c-0.54,0.68-0.37,2.81,0.25,3.04c3.26,1.21,7.59,2.99,10.39,5.22" id="Ske280cc7o" kvg:type="㇜" transform="matrix(1,0,0,1,-4,-4)" xmlns:kvg="http://kanjivg.tagaini.net"></path><circle class="stroke_order_diagram--path_start" cx="27.65" cy="14.5" r="4" transform="matrix(1,0,0,1,-4,-4)"></circle><line class="stroke_order_diagram--guide_line" x1="150" x2="150" y1="1" y2="99"></line><line class="stroke_order_diagram--bounding_box" x1="199" x2="199" y1="1" y2="99"></line><path class="stroke_order_diagram--existing_path" d="M27.65,14.5c0.31,1.21,0.09,2.49-0.66,3.69c-3.26,5.27-7.61,11.56-11.57,16.54c-0.54,0.68-0.37,2.81,0.25,3.04c3.26,1.21,7.59,2.99,10.39,5.22" id="Ske280cc7r" kvg:type="㇜" transform="matrix(1,0,0,1,96,-4)" xmlns:kvg="http://kanjivg.tagaini.net"></path><path class="stroke_order_diagram--current_path" d="M37.03,25.44c0.22,0.93,0.09,2.18-0.5,3.19c-5.19,8.83-13.78,20.87-21.38,28.73c-1.74,1.8,0.43,2.83,1.57,2.47C21.47,58.3,29.75,56,36.7,54.09" id="kvg:07de8-s2" kvg:type="㇜" transform="matrix(1,0,0,1,96,-4)" xmlns:kvg="http://kanjivg.tagaini.net"></path><path class="stroke_order_diagram--current_path" d="M37.03,25.44c0.22,0.93,0.09,2.18-0.5,3.19c-5.19,8.83-13.78,20.87-21.38,28.73c-1.74,1.8,0.43,2.83,1.57,2.47C21.47,58.3,29.75,56,36.7,54.09" id="Ske280cc7t" kvg:type="㇜" transform="matrix(1,0,0,1,96,-4)" xmlns:kvg="http://kanjivg.tagaini.net"></path><circle class="stroke_order_diagram--path_start" cx="37.03" cy="25.44" r="4" transform="matrix(1,0,0,1,96,-4)"></circle><line class="stroke_order_diagram--guide_line" x1="250" x2="250" y1="1" y2="99"></line><line class="stroke_order_diagram--bounding_box" x1="299" x2="299" y1="1" y2="99"></line><path class="stroke_order_diagram--existing_path" d="M27.65,14.5c0.31,1.21,0.09,2.49-0.66,3.69c-3.26,5.27-7.61,11.56-11.57,16.54c-0.54,0.68-0.37,2.81,0.25,3.04c3.26,1.21,7.59,2.99,10.39,5.22" id="Ske280cc7w" kvg:type="㇜" transform="matrix(1,0,0,1,196,-4)" xmlns:kvg="http://kanjivg.tagaini.net"></path><path class="stroke_order_diagram--existing_path" d="M37.03,25.44c0.22,0.93,0.09,2.18-0.5,3.19c-5.19,8.83-13.78,20.87-21.38,28.73c-1.74,1.8,0.43,2.83,1.57,2.47C21.47,58.3,29.75,56,36.7,54.09" id="Ske280cc7x" kvg:type="㇜" transform="matrix(1,0,0,1,196,-4)" xmlns:kvg="http://kanjivg.tagaini.net"></path><path class="stroke_order_diagram--current_path" d="M33.5,47.75c2.56,2.07,6.61,8.52,7.25,11.75" id="kvg:07de8-s3" kvg:type="㇔" transform="matrix(1,0,0,1,196,-4)" xmlns:kvg="http://kanjivg.tagaini.net"></path><path class="stroke_order_diagram--current_path" d="M33.5,47.75c2.56,2.07,6.61,8.52,7.25,11.75" id="Ske280cc7z" kvg:type="㇔" transform="matrix(1,0,0,1,196,-4)" xmlns:kvg="http://kanjivg.tagaini.net"></path><circle class="stroke_order_diagram--path_start" cx="33.5" cy="47.75" r="4" transform="matrix(1,0,0,1,196,-4)"></circle><line class="stroke_order_diagram--guide_line" x1="350" x2="350" y1="1" y2="99"></line><line class="stroke_order_diagram--bounding_box" x1="399" x2="399" y1="1" y2="99"></line><path class="stroke_order_diagram--existing_path" d="M27.65,14.5c0.31,1.21,0.09,2.49-0.66,3.69c-3.26,5.27-7.61,11.56-11.57,16.54c-0.54,0.68-0.37,2.81,0.25,3.04c3.26,1.21,7.59,2.99,10.39,5.22" id="Ske280cc712" kvg:type="㇜" transform="matrix(1,0,0,1,296,-4)" xmlns:kvg="http://kanjivg.tagaini.net"></path><path class="stroke_order_diagram--existing_path" d="M37.03,25.44c0.22,0.93,0.09,2.18-0.5,3.19c-5.19,8.83-13.78,20.87-21.38,28.73c-1.74,1.8,0.43,2.83,1.57,2.47C21.47,58.3,29.75,56,36.7,54.09" id="Ske280cc713" kvg:type="㇜" transform="matrix(1,0,0,1,296,-4)" xmlns:kvg="http://kanjivg.tagaini.net"></path><path class="stroke_order_diagram--existing_path" d="M33.5,47.75c2.56,2.07,6.61,8.52,7.25,11.75" id="Ske280cc714" kvg:type="㇔" transform="matrix(1,0,0,1,296,-4)" xmlns:kvg="http://kanjivg.tagaini.net"></path><path class="stroke_order_diagram--current_path" d="M26.33,59.51c0.83,0.83,1.28,1.99,1.28,3.28c0,6.96-0.09,18.84-0.09,27.22c0,2.97-0.07,5.18-0.07,5.99" id="kvg:07de8-s4" kvg:type="㇑" transform="matrix(1,0,0,1,296,-4)" xmlns:kvg="http://kanjivg.tagaini.net"></path><path class="stroke_order_diagram--current_path" d="M26.33,59.51c0.83,0.83,1.28,1.99,1.28,3.28c0,6.96-0.09,18.84-0.09,27.22c0,2.97-0.07,5.18-0.07,5.99" id="Ske280cc716" kvg:type="㇑" transform="matrix(1,0,0,1,296,-4)" xmlns:kvg="http://kanjivg.tagaini.net"></path><circle class="stroke_order_diagram--path_start" cx="26.33" cy="59.51" r="4" transform="matrix(1,0,0,1,296,-4)"></circle><line class="stroke_order_diagram--guide_line" x1="450" x2="450" y1="1" y2="99"></line><line class="stroke_order_diagram--bounding_box" x1="499" x2="499" y1="1" y2="99"></line><path class="stroke_order_diagram--existing_path" d="M27.65,14.5c0.31,1.21,0.09,2.49-0.66,3.69c-3.26,5.27-7.61,11.56-11.57,16.54c-0.54,0.68-0.37,2.81,0.25,3.04c3.26,1.21,7.59,2.99,10.39,5.22" id="Ske280cc719" kvg:type="㇜" transform="matrix(1,0,0,1,396,-4)" xmlns:kvg="http://kanjivg.tagaini.net"></path><path class="stroke_order_diagram--existing_path" d="M37.03,25.44c0.22,0.93,0.09,2.18-0.5,3.19c-5.19,8.83-13.78,20.87-21.38,28.73c-1.74,1.8,0.43,2.83,1.57,2.47C21.47,58.3,29.75,56,36.7,54.09" id="Ske280cc71a" kvg:type="㇜" transform="matrix(1,0,0,1,396,-4)" xmlns:kvg="http://kanjivg.tagaini.net"></path><path class="stroke_order_diagram--existing_path" d="M33.5,47.75c2.56,2.07,6.61,8.52,7.25,11.75" id="Ske280cc71b" kvg:type="㇔" transform="matrix(1,0,0,1,396,-4)" xmlns:kvg="http://kanjivg.tagaini.net"></path><path class="stroke_order_diagram--existing_path" d="M26.33,59.51c0.83,0.83,1.28,1.99,1.28,3.28c0,6.96-0.09,18.84-0.09,27.22c0,2.97-0.07,5.18-0.07,5.99" id="Ske280cc71c" kvg:type="㇑" transform="matrix(1,0,0,1,396,-4)" xmlns:kvg="http://kanjivg.tagaini.net"></path><path class="stroke_order_diagram--current_path" d="M18.75,71.5c0.12,0.88,0,1.5-0.37,2.55c-1.62,4.62-4.58,10.9-6.63,13.95" id="kvg:07de8-s5" kvg:type="㇒" transform="matrix(1,0,0,1,396,-4)" xmlns:kvg="http://kanjivg.tagaini.net"></path><path class="stroke_order_diagram--current_path" d="M18.75,71.5c0.12,0.88,0,1.5-0.37,2.55c-1.62,4.62-4.58,10.9-6.63,13.95" id="Ske280cc71e" kvg:type="㇒" transform="matrix(1,0,0,1,396,-4)" xmlns:kvg="http://kanjivg.tagaini.net"></path><circle class="stroke_order_diagram--path_start" cx="18.75" cy="71.5" r="4" transform="matrix(1,0,0,1,396,-4)"></circle><line class="stroke_order_diagram--guide_line" x1="550" x2="550" y1="1" y2="99"></line><line class="stroke_order_diagram--bounding_box" x1="599" x2="599" y1="1" y2="99"></line><path class="stroke_order_diagram--existing_path" d="M27.65,14.5c0.31,1.21,0.09,2.49-0.66,3.69c-3.26,5.27-7.61,11.56-11.57,16.54c-0.54,0.68-0.37,2.81,0.25,3.04c3.26,1.21,7.59,2.99,10.39,5.22" id="Ske280cc71h" kvg:type="㇜" transform="matrix(1,0,0,1,496,-4)" xmlns:kvg="http://kanjivg.tagaini.net"></path><path class="stroke_order_diagram--existing_path" d="M37.03,25.44c0.22,0.93,0.09,2.18-0.5,3.19c-5.19,8.83-13.78,20.87-21.38,28.73c-1.74,1.8,0.43,2.83,1.57,2.47C21.47,58.3,29.75,56,36.7,54.09" id="Ske280cc71i" kvg:type="㇜" transform="matrix(1,0,0,1,496,-4)" xmlns:kvg="http://kanjivg.tagaini.net"></path><path class="stroke_order_diagram--existing_path" d="M33.5,47.75c2.56,2.07,6.61,8.52,7.25,11.75" id="Ske280cc71j" kvg:type="㇔" transform="matrix(1,0,0,1,496,-4)" xmlns:kvg="http://kanjivg.tagaini.net"></path><path class="stroke_order_diagram--existing_path" d="M26.33,59.51c0.83,0.83,1.28,1.99,1.28,3.28c0,6.96-0.09,18.84-0.09,27.22c0,2.97-0.07,5.18-0.07,5.99" id="Ske280cc71k" kvg:type="㇑" transform="matrix(1,0,0,1,496,-4)" xmlns:kvg="http://kanjivg.tagaini.net"></path><path class="stroke_order_diagram--existing_path" d="M18.75,71.5c0.12,0.88,0,1.5-0.37,2.55c-1.62,4.62-4.58,10.9-6.63,13.95" id="Ske280cc71l" kvg:type="㇒" transform="matrix(1,0,0,1,496,-4)" xmlns:kvg="http://kanjivg.tagaini.net"></path><path class="stroke_order_diagram--current_path" d="M34.5,66c2.38,2.01,4.2,6.68,4.75,8.5" id="kvg:07de8-s6" kvg:type="㇔" transform="matrix(1,0,0,1,496,-4)" xmlns:kvg="http://kanjivg.tagaini.net"></path><path class="stroke_order_diagram--current_path" d="M34.5,66c2.38,2.01,4.2,6.68,4.75,8.5" id="Ske280cc71n" kvg:type="㇔" transform="matrix(1,0,0,1,496,-4)" xmlns:kvg="http://kanjivg.tagaini.net"></path><circle class="stroke_order_diagram--path_start" cx="34.5" cy="66" r="4" transform="matrix(1,0,0,1,496,-4)"></circle><line class="stroke_order_diagram--guide_line" x1="650" x2="650" y1="1" y2="99"></line><line class="stroke_order_diagram--bounding_box" x1="699" x2="699" y1="1" y2="99"></line><path class="stroke_order_diagram--existing_path" d="M27.65,14.5c0.31,1.21,0.09,2.49-0.66,3.69c-3.26,5.27-7.61,11.56-11.57,16.54c-0.54,0.68-0.37,2.81,0.25,3.04c3.26,1.21,7.59,2.99,10.39,5.22" id="Ske280cc71q" kvg:type="㇜" transform="matrix(1,0,0,1,596,-4)" xmlns:kvg="http://kanjivg.tagaini.net"></path><path class="stroke_order_diagram--existing_path" d="M37.03,25.44c0.22,0.93,0.09,2.18-0.5,3.19c-5.19,8.83-13.78,20.87-21.38,28.73c-1.74,1.8,0.43,2.83,1.57,2.47C21.47,58.3,29.75,56,36.7,54.09" id="Ske280cc71r" kvg:type="㇜" transform="matrix(1,0,0,1,596,-4)" xmlns:kvg="http://kanjivg.tagaini.net"></path><path class="stroke_order_diagram--existing_path" d="M33.5,47.75c2.56,2.07,6.61,8.52,7.25,11.75" id="Ske280cc71s" kvg:type="㇔" transform="matrix(1,0,0,1,596,-4)" xmlns:kvg="http://kanjivg.tagaini.net"></path><path class="stroke_order_diagram--existing_path" d="M26.33,59.51c0.83,0.83,1.28,1.99,1.28,3.28c0,6.96-0.09,18.84-0.09,27.22c0,2.97-0.07,5.18-0.07,5.99" id="Ske280cc71t" kvg:type="㇑" transform="matrix(1,0,0,1,596,-4)" xmlns:kvg="http://kanjivg.tagaini.net"></path><path class="stroke_order_diagram--existing_path" d="M18.75,71.5c0.12,0.88,0,1.5-0.37,2.55c-1.62,4.62-4.58,10.9-6.63,13.95" id="Ske280cc71u" kvg:type="㇒" transform="matrix(1,0,0,1,596,-4)" xmlns:kvg="http://kanjivg.tagaini.net"></path><path class="stroke_order_diagram--existing_path" d="M34.5,66c2.38,2.01,4.2,6.68,4.75,8.5" id="Ske280cc71v" kvg:type="㇔" transform="matrix(1,0,0,1,596,-4)" xmlns:kvg="http://kanjivg.tagaini.net"></path><path class="stroke_order_diagram--current_path" d="M47.8,16.76c1.34,0.58,3.76,0.49,5.2,0.38c7.72-0.58,23.17-2.47,31.12-3.21c1.85-0.17,4.03-0.2,5.84,0.27" id="kvg:07de8-s7" kvg:type="㇐" transform="matrix(1,0,0,1,596,-4)" xmlns:kvg="http://kanjivg.tagaini.net"></path><path class="stroke_order_diagram--current_path" d="M47.8,16.76c1.34,0.58,3.76,0.49,5.2,0.38c7.72-0.58,23.17-2.47,31.12-3.21c1.85-0.17,4.03-0.2,5.84,0.27" id="Ske280cc71x" kvg:type="㇐" transform="matrix(1,0,0,1,596,-4)" xmlns:kvg="http://kanjivg.tagaini.net"></path><circle class="stroke_order_diagram--path_start" cx="47.8" cy="16.76" r="4" transform="matrix(1,0,0,1,596,-4)"></circle><line class="stroke_order_diagram--guide_line" x1="750" x2="750" y1="1" y2="99"></line><line class="stroke_order_diagram--bounding_box" x1="799" x2="799" y1="1" y2="99"></line><path class="stroke_order_diagram--existing_path" d="M27.65,14.5c0.31,1.21,0.09,2.49-0.66,3.69c-3.26,5.27-7.61,11.56-11.57,16.54c-0.54,0.68-0.37,2.81,0.25,3.04c3.26,1.21,7.59,2.99,10.39,5.22" id="Ske280cc720" kvg:type="㇜" transform="matrix(1,0,0,1,696,-4)" xmlns:kvg="http://kanjivg.tagaini.net"></path><path class="stroke_order_diagram--existing_path" d="M37.03,25.44c0.22,0.93,0.09,2.18-0.5,3.19c-5.19,8.83-13.78,20.87-21.38,28.73c-1.74,1.8,0.43,2.83,1.57,2.47C21.47,58.3,29.75,56,36.7,54.09" id="Ske280cc721" kvg:type="㇜" transform="matrix(1,0,0,1,696,-4)" xmlns:kvg="http://kanjivg.tagaini.net"></path><path class="stroke_order_diagram--existing_path" d="M33.5,47.75c2.56,2.07,6.61,8.52,7.25,11.75" id="Ske280cc722" kvg:type="㇔" transform="matrix(1,0,0,1,696,-4)" xmlns:kvg="http://kanjivg.tagaini.net"></path><path class="stroke_order_diagram--existing_path" d="M26.33,59.51c0.83,0.83,1.28,1.99,1.28,3.28c0,6.96-0.09,18.84-0.09,27.22c0,2.97-0.07,5.18-0.07,5.99" id="Ske280cc723" kvg:type="㇑" transform="matrix(1,0,0,1,696,-4)" xmlns:kvg="http://kanjivg.tagaini.net"></path><path class="stroke_order_diagram--existing_path" d="M18.75,71.5c0.12,0.88,0,1.5-0.37,2.55c-1.62,4.62-4.58,10.9-6.63,13.95" id="Ske280cc724" kvg:type="㇒" transform="matrix(1,0,0,1,696,-4)" xmlns:kvg="http://kanjivg.tagaini.net"></path><path class="stroke_order_diagram--existing_path" d="M34.5,66c2.38,2.01,4.2,6.68,4.75,8.5" id="Ske280cc725" kvg:type="㇔" transform="matrix(1,0,0,1,696,-4)" xmlns:kvg="http://kanjivg.tagaini.net"></path><path class="stroke_order_diagram--existing_path" d="M47.8,16.76c1.34,0.58,3.76,0.49,5.2,0.38c7.72-0.58,23.17-2.47,31.12-3.21c1.85-0.17,4.03-0.2,5.84,0.27" id="Ske280cc726" kvg:type="㇐" transform="matrix(1,0,0,1,696,-4)" xmlns:kvg="http://kanjivg.tagaini.net"></path><path class="stroke_order_diagram--current_path" d="M49.73,28.38c1.64,0.5,3.14,0.62,5.02,0.37c9.36-1.27,25.06-3.03,31.58-3.74c2.29-0.25,3.34,1.56,2.89,3.25c-0.97,3.62-1.59,5.25-2.94,9.5" id="kvg:07de8-s8" kvg:type="㇕c" transform="matrix(1,0,0,1,696,-4)" xmlns:kvg="http://kanjivg.tagaini.net"></path><path class="stroke_order_diagram--current_path" d="M49.73,28.38c1.64,0.5,3.14,0.62,5.02,0.37c9.36-1.27,25.06-3.03,31.58-3.74c2.29-0.25,3.34,1.56,2.89,3.25c-0.97,3.62-1.59,5.25-2.94,9.5" id="Ske280cc728" kvg:type="㇕c" transform="matrix(1,0,0,1,696,-4)" xmlns:kvg="http://kanjivg.tagaini.net"></path><circle class="stroke_order_diagram--path_start" cx="49.73" cy="28.38" r="4" transform="matrix(1,0,0,1,696,-4)"></circle><line class="stroke_order_diagram--guide_line" x1="850" x2="850" y1="1" y2="99"></line><line class="stroke_order_diagram--bounding_box" x1="899" x2="899" y1="1" y2="99"></line><path class="stroke_order_diagram--existing_path" d="M27.65,14.5c0.31,1.21,0.09,2.49-0.66,3.69c-3.26,5.27-7.61,11.56-11.57,16.54c-0.54,0.68-0.37,2.81,0.25,3.04c3.26,1.21,7.59,2.99,10.39,5.22" id="Ske280cc72b" kvg:type="㇜" transform="matrix(1,0,0,1,796,-4)" xmlns:kvg="http://kanjivg.tagaini.net"></path><path class="stroke_order_diagram--existing_path" d="M37.03,25.44c0.22,0.93,0.09,2.18-0.5,3.19c-5.19,8.83-13.78,20.87-21.38,28.73c-1.74,1.8,0.43,2.83,1.57,2.47C21.47,58.3,29.75,56,36.7,54.09" id="Ske280cc72c" kvg:type="㇜" transform="matrix(1,0,0,1,796,-4)" xmlns:kvg="http://kanjivg.tagaini.net"></path><path class="stroke_order_diagram--existing_path" d="M33.5,47.75c2.56,2.07,6.61,8.52,7.25,11.75" id="Ske280cc72d" kvg:type="㇔" transform="matrix(1,0,0,1,796,-4)" xmlns:kvg="http://kanjivg.tagaini.net"></path><path class="stroke_order_diagram--existing_path" d="M26.33,59.51c0.83,0.83,1.28,1.99,1.28,3.28c0,6.96-0.09,18.84-0.09,27.22c0,2.97-0.07,5.18-0.07,5.99" id="Ske280cc72e" kvg:type="㇑" transform="matrix(1,0,0,1,796,-4)" xmlns:kvg="http://kanjivg.tagaini.net"></path><path class="stroke_order_diagram--existing_path" d="M18.75,71.5c0.12,0.88,0,1.5-0.37,2.55c-1.62,4.62-4.58,10.9-6.63,13.95" id="Ske280cc72f" kvg:type="㇒" transform="matrix(1,0,0,1,796,-4)" xmlns:kvg="http://kanjivg.tagaini.net"></path><path class="stroke_order_diagram--existing_path" d="M34.5,66c2.38,2.01,4.2,6.68,4.75,8.5" id="Ske280cc72g" kvg:type="㇔" transform="matrix(1,0,0,1,796,-4)" xmlns:kvg="http://kanjivg.tagaini.net"></path><path class="stroke_order_diagram--existing_path" d="M47.8,16.76c1.34,0.58,3.76,0.49,5.2,0.38c7.72-0.58,23.17-2.47,31.12-3.21c1.85-0.17,4.03-0.2,5.84,0.27" id="Ske280cc72h" kvg:type="㇐" transform="matrix(1,0,0,1,796,-4)" xmlns:kvg="http://kanjivg.tagaini.net"></path><path class="stroke_order_diagram--existing_path" d="M49.73,28.38c1.64,0.5,3.14,0.62,5.02,0.37c9.36-1.27,25.06-3.03,31.58-3.74c2.29-0.25,3.34,1.56,2.89,3.25c-0.97,3.62-1.59,5.25-2.94,9.5" id="Ske280cc72i" kvg:type="㇕c" transform="matrix(1,0,0,1,796,-4)" xmlns:kvg="http://kanjivg.tagaini.net"></path><path class="stroke_order_diagram--current_path" d="M53.11,42.25c7.14-0.62,20.11-2.55,31.14-3.43c1.75-0.14,3.39-0.25,4.85-0.32" id="kvg:07de8-s9" kvg:type="㇐b" transform="matrix(1,0,0,1,796,-4)" xmlns:kvg="http://kanjivg.tagaini.net"></path><path class="stroke_order_diagram--current_path" d="M53.11,42.25c7.14-0.62,20.11-2.55,31.14-3.43c1.75-0.14,3.39-0.25,4.85-0.32" id="Ske280cc72k" kvg:type="㇐b" transform="matrix(1,0,0,1,796,-4)" xmlns:kvg="http://kanjivg.tagaini.net"></path><circle class="stroke_order_diagram--path_start" cx="53.11" cy="42.25" r="4" transform="matrix(1,0,0,1,796,-4)"></circle><line class="stroke_order_diagram--guide_line" x1="950" x2="950" y1="1" y2="99"></line><line class="stroke_order_diagram--bounding_box" x1="999" x2="999" y1="1" y2="99"></line><path class="stroke_order_diagram--existing_path" d="M27.65,14.5c0.31,1.21,0.09,2.49-0.66,3.69c-3.26,5.27-7.61,11.56-11.57,16.54c-0.54,0.68-0.37,2.81,0.25,3.04c3.26,1.21,7.59,2.99,10.39,5.22" id="Ske280cc72n" kvg:type="㇜" transform="matrix(1,0,0,1,896,-4)" xmlns:kvg="http://kanjivg.tagaini.net"></path><path class="stroke_order_diagram--existing_path" d="M37.03,25.44c0.22,0.93,0.09,2.18-0.5,3.19c-5.19,8.83-13.78,20.87-21.38,28.73c-1.74,1.8,0.43,2.83,1.57,2.47C21.47,58.3,29.75,56,36.7,54.09" id="Ske280cc72o" kvg:type="㇜" transform="matrix(1,0,0,1,896,-4)" xmlns:kvg="http://kanjivg.tagaini.net"></path><path class="stroke_order_diagram--existing_path" d="M33.5,47.75c2.56,2.07,6.61,8.52,7.25,11.75" id="Ske280cc72p" kvg:type="㇔" transform="matrix(1,0,0,1,896,-4)" xmlns:kvg="http://kanjivg.tagaini.net"></path><path class="stroke_order_diagram--existing_path" d="M26.33,59.51c0.83,0.83,1.28,1.99,1.28,3.28c0,6.96-0.09,18.84-0.09,27.22c0,2.97-0.07,5.18-0.07,5.99" id="Ske280cc72q" kvg:type="㇑" transform="matrix(1,0,0,1,896,-4)" xmlns:kvg="http://kanjivg.tagaini.net"></path><path class="stroke_order_diagram--existing_path" d="M18.75,71.5c0.12,0.88,0,1.5-0.37,2.55c-1.62,4.62-4.58,10.9-6.63,13.95" id="Ske280cc72r" kvg:type="㇒" transform="matrix(1,0,0,1,896,-4)" xmlns:kvg="http://kanjivg.tagaini.net"></path><path class="stroke_order_diagram--existing_path" d="M34.5,66c2.38,2.01,4.2,6.68,4.75,8.5" id="Ske280cc72s" kvg:type="㇔" transform="matrix(1,0,0,1,896,-4)" xmlns:kvg="http://kanjivg.tagaini.net"></path><path class="stroke_order_diagram--existing_path" d="M47.8,16.76c1.34,0.58,3.76,0.49,5.2,0.38c7.72-0.58,23.17-2.47,31.12-3.21c1.85-0.17,4.03-0.2,5.84,0.27" id="Ske280cc72t" kvg:type="㇐" transform="matrix(1,0,0,1,896,-4)" xmlns:kvg="http://kanjivg.tagaini.net"></path><path class="stroke_order_diagram--existing_path" d="M49.73,28.38c1.64,0.5,3.14,0.62,5.02,0.37c9.36-1.27,25.06-3.03,31.58-3.74c2.29-0.25,3.34,1.56,2.89,3.25c-0.97,3.62-1.59,5.25-2.94,9.5" id="Ske280cc72u" kvg:type="㇕c" transform="matrix(1,0,0,1,896,-4)" xmlns:kvg="http://kanjivg.tagaini.net"></path><path class="stroke_order_diagram--existing_path" d="M53.11,42.25c7.14-0.62,20.11-2.55,31.14-3.43c1.75-0.14,3.39-0.25,4.85-0.32" id="Ske280cc72v" kvg:type="㇐b" transform="matrix(1,0,0,1,896,-4)" xmlns:kvg="http://kanjivg.tagaini.net"></path><path class="stroke_order_diagram--current_path" d="M51.25,28.93c0.6,0.6,0.92,1.7,0.92,3.12c0,23.13-1.8,38.71-12.92,50.71" id="kvg:07de8-s10" kvg:type="㇒" transform="matrix(1,0,0,1,896,-4)" xmlns:kvg="http://kanjivg.tagaini.net"></path><path class="stroke_order_diagram--current_path" d="M51.25,28.93c0.6,0.6,0.92,1.7,0.92,3.12c0,23.13-1.8,38.71-12.92,50.71" id="Ske280cc72x" kvg:type="㇒" transform="matrix(1,0,0,1,896,-4)" xmlns:kvg="http://kanjivg.tagaini.net"></path><circle class="stroke_order_diagram--path_start" cx="51.25" cy="28.93" r="4" transform="matrix(1,0,0,1,896,-4)"></circle><line class="stroke_order_diagram--guide_line" x1="1050" x2="1050" y1="1" y2="99"></line><line class="stroke_order_diagram--bounding_box" x1="1099" x2="1099" y1="1" y2="99"></line><path class="stroke_order_diagram--existing_path" d="M27.65,14.5c0.31,1.21,0.09,2.49-0.66,3.69c-3.26,5.27-7.61,11.56-11.57,16.54c-0.54,0.68-0.37,2.81,0.25,3.04c3.26,1.21,7.59,2.99,10.39,5.22" id="Ske280cc730" kvg:type="㇜" transform="matrix(1,0,0,1,996,-4)" xmlns:kvg="http://kanjivg.tagaini.net"></path><path class="stroke_order_diagram--existing_path" d="M37.03,25.44c0.22,0.93,0.09,2.18-0.5,3.19c-5.19,8.83-13.78,20.87-21.38,28.73c-1.74,1.8,0.43,2.83,1.57,2.47C21.47,58.3,29.75,56,36.7,54.09" id="Ske280cc731" kvg:type="㇜" transform="matrix(1,0,0,1,996,-4)" xmlns:kvg="http://kanjivg.tagaini.net"></path><path class="stroke_order_diagram--existing_path" d="M33.5,47.75c2.56,2.07,6.61,8.52,7.25,11.75" id="Ske280cc732" kvg:type="㇔" transform="matrix(1,0,0,1,996,-4)" xmlns:kvg="http://kanjivg.tagaini.net"></path><path class="stroke_order_diagram--existing_path" d="M26.33,59.51c0.83,0.83,1.28,1.99,1.28,3.28c0,6.96-0.09,18.84-0.09,27.22c0,2.97-0.07,5.18-0.07,5.99" id="Ske280cc733" kvg:type="㇑" transform="matrix(1,0,0,1,996,-4)" xmlns:kvg="http://kanjivg.tagaini.net"></path><path class="stroke_order_diagram--existing_path" d="M18.75,71.5c0.12,0.88,0,1.5-0.37,2.55c-1.62,4.62-4.58,10.9-6.63,13.95" id="Ske280cc734" kvg:type="㇒" transform="matrix(1,0,0,1,996,-4)" xmlns:kvg="http://kanjivg.tagaini.net"></path><path class="stroke_order_diagram--existing_path" d="M34.5,66c2.38,2.01,4.2,6.68,4.75,8.5" id="Ske280cc735" kvg:type="㇔" transform="matrix(1,0,0,1,996,-4)" xmlns:kvg="http://kanjivg.tagaini.net"></path><path class="stroke_order_diagram--existing_path" d="M47.8,16.76c1.34,0.58,3.76,0.49,5.2,0.38c7.72-0.58,23.17-2.47,31.12-3.21c1.85-0.17,4.03-0.2,5.84,0.27" id="Ske280cc736" kvg:type="㇐" transform="matrix(1,0,0,1,996,-4)" xmlns:kvg="http://kanjivg.tagaini.net"></path><path class="stroke_order_diagram--existing_path" d="M49.73,28.38c1.64,0.5,3.14,0.62,5.02,0.37c9.36-1.27,25.06-3.03,31.58-3.74c2.29-0.25,3.34,1.56,2.89,3.25c-0.97,3.62-1.59,5.25-2.94,9.5" id="Ske280cc737" kvg:type="㇕c" transform="matrix(1,0,0,1,996,-4)" xmlns:kvg="http://kanjivg.tagaini.net"></path><path class="stroke_order_diagram--existing_path" d="M53.11,42.25c7.14-0.62,20.11-2.55,31.14-3.43c1.75-0.14,3.39-0.25,4.85-0.32" id="Ske280cc738" kvg:type="㇐b" transform="matrix(1,0,0,1,996,-4)" xmlns:kvg="http://kanjivg.tagaini.net"></path><path class="stroke_order_diagram--existing_path" d="M51.25,28.93c0.6,0.6,0.92,1.7,0.92,3.12c0,23.13-1.8,38.71-12.92,50.71" id="Ske280cc739" kvg:type="㇒" transform="matrix(1,0,0,1,996,-4)" xmlns:kvg="http://kanjivg.tagaini.net"></path><path class="stroke_order_diagram--current_path" d="M53.43,55.71c0.74,0.74,1.04,1.91,1.05,3.06c0.03,5.1-0.21,19.86-0.01,29.97c0.07,3.36-0.14,5.77-0.14,6.25" id="kvg:07de8-s11" kvg:type="㇑" transform="matrix(1,0,0,1,996,-4)" xmlns:kvg="http://kanjivg.tagaini.net"></path><path class="stroke_order_diagram--current_path" d="M53.43,55.71c0.74,0.74,1.04,1.91,1.05,3.06c0.03,5.1-0.21,19.86-0.01,29.97c0.07,3.36-0.14,5.77-0.14,6.25" id="Ske280cc73b" kvg:type="㇑" transform="matrix(1,0,0,1,996,-4)" xmlns:kvg="http://kanjivg.tagaini.net"></path><circle class="stroke_order_diagram--path_start" cx="53.43" cy="55.71" r="4" transform="matrix(1,0,0,1,996,-4)"></circle><line class="stroke_order_diagram--guide_line" x1="1150" x2="1150" y1="1" y2="99"></line><line class="stroke_order_diagram--bounding_box" x1="1199" x2="1199" y1="1" y2="99"></line><path class="stroke_order_diagram--existing_path" d="M27.65,14.5c0.31,1.21,0.09,2.49-0.66,3.69c-3.26,5.27-7.61,11.56-11.57,16.54c-0.54,0.68-0.37,2.81,0.25,3.04c3.26,1.21,7.59,2.99,10.39,5.22" id="Ske280cc73e" kvg:type="㇜" transform="matrix(1,0,0,1,1096,-4)" xmlns:kvg="http://kanjivg.tagaini.net"></path><path class="stroke_order_diagram--existing_path" d="M37.03,25.44c0.22,0.93,0.09,2.18-0.5,3.19c-5.19,8.83-13.78,20.87-21.38,28.73c-1.74,1.8,0.43,2.83,1.57,2.47C21.47,58.3,29.75,56,36.7,54.09" id="Ske280cc73f" kvg:type="㇜" transform="matrix(1,0,0,1,1096,-4)" xmlns:kvg="http://kanjivg.tagaini.net"></path><path class="stroke_order_diagram--existing_path" d="M33.5,47.75c2.56,2.07,6.61,8.52,7.25,11.75" id="Ske280cc73g" kvg:type="㇔" transform="matrix(1,0,0,1,1096,-4)" xmlns:kvg="http://kanjivg.tagaini.net"></path><path class="stroke_order_diagram--existing_path" d="M26.33,59.51c0.83,0.83,1.28,1.99,1.28,3.28c0,6.96-0.09,18.84-0.09,27.22c0,2.97-0.07,5.18-0.07,5.99" id="Ske280cc73h" kvg:type="㇑" transform="matrix(1,0,0,1,1096,-4)" xmlns:kvg="http://kanjivg.tagaini.net"></path><path class="stroke_order_diagram--existing_path" d="M18.75,71.5c0.12,0.88,0,1.5-0.37,2.55c-1.62,4.62-4.58,10.9-6.63,13.95" id="Ske280cc73i" kvg:type="㇒" transform="matrix(1,0,0,1,1096,-4)" xmlns:kvg="http://kanjivg.tagaini.net"></path><path class="stroke_order_diagram--existing_path" d="M34.5,66c2.38,2.01,4.2,6.68,4.75,8.5" id="Ske280cc73j" kvg:type="㇔" transform="matrix(1,0,0,1,1096,-4)" xmlns:kvg="http://kanjivg.tagaini.net"></path><path class="stroke_order_diagram--existing_path" d="M47.8,16.76c1.34,0.58,3.76,0.49,5.2,0.38c7.72-0.58,23.17-2.47,31.12-3.21c1.85-0.17,4.03-0.2,5.84,0.27" id="Ske280cc73k" kvg:type="㇐" transform="matrix(1,0,0,1,1096,-4)" xmlns:kvg="http://kanjivg.tagaini.net"></path><path class="stroke_order_diagram--existing_path" d="M49.73,28.38c1.64,0.5,3.14,0.62,5.02,0.37c9.36-1.27,25.06-3.03,31.58-3.74c2.29-0.25,3.34,1.56,2.89,3.25c-0.97,3.62-1.59,5.25-2.94,9.5" id="Ske280cc73l" kvg:type="㇕c" transform="matrix(1,0,0,1,1096,-4)" xmlns:kvg="http://kanjivg.tagaini.net"></path><path class="stroke_order_diagram--existing_path" d="M53.11,42.25c7.14-0.62,20.11-2.55,31.14-3.43c1.75-0.14,3.39-0.25,4.85-0.32" id="Ske280cc73m" kvg:type="㇐b" transform="matrix(1,0,0,1,1096,-4)" xmlns:kvg="http://kanjivg.tagaini.net"></path><path class="stroke_order_diagram--existing_path" d="M51.25,28.93c0.6,0.6,0.92,1.7,0.92,3.12c0,23.13-1.8,38.71-12.92,50.71" id="Ske280cc73n" kvg:type="㇒" transform="matrix(1,0,0,1,1096,-4)" xmlns:kvg="http://kanjivg.tagaini.net"></path><path class="stroke_order_diagram--existing_path" d="M53.43,55.71c0.74,0.74,1.04,1.91,1.05,3.06c0.03,5.1-0.21,19.86-0.01,29.97c0.07,3.36-0.14,5.77-0.14,6.25" id="Ske280cc73o" kvg:type="㇑" transform="matrix(1,0,0,1,1096,-4)" xmlns:kvg="http://kanjivg.tagaini.net"></path><path class="stroke_order_diagram--current_path" d="M54.59,56.49c5.19-0.51,36.59-4.31,37.63-4.31c1.79,0,3.18,0.82,3.18,3.28c0,6.78,0.02,31.95,0.02,34.83c0,6.7-3.79,2.2-5.71-0.23" id="kvg:07de8-s12" kvg:type="㇆a" transform="matrix(1,0,0,1,1096,-4)" xmlns:kvg="http://kanjivg.tagaini.net"></path><path class="stroke_order_diagram--current_path" d="M54.59,56.49c5.19-0.51,36.59-4.31,37.63-4.31c1.79,0,3.18,0.82,3.18,3.28c0,6.78,0.02,31.95,0.02,34.83c0,6.7-3.79,2.2-5.71-0.23" id="Ske280cc73q" kvg:type="㇆a" transform="matrix(1,0,0,1,1096,-4)" xmlns:kvg="http://kanjivg.tagaini.net"></path><circle class="stroke_order_diagram--path_start" cx="54.59" cy="56.49" r="4" transform="matrix(1,0,0,1,1096,-4)"></circle><line class="stroke_order_diagram--guide_line" x1="1250" x2="1250" y1="1" y2="99"></line><line class="stroke_order_diagram--bounding_box" x1="1299" x2="1299" y1="1" y2="99"></line><path class="stroke_order_diagram--existing_path" d="M27.65,14.5c0.31,1.21,0.09,2.49-0.66,3.69c-3.26,5.27-7.61,11.56-11.57,16.54c-0.54,0.68-0.37,2.81,0.25,3.04c3.26,1.21,7.59,2.99,10.39,5.22" id="Ske280cc73t" kvg:type="㇜" transform="matrix(1,0,0,1,1196,-4)" xmlns:kvg="http://kanjivg.tagaini.net"></path><path class="stroke_order_diagram--existing_path" d="M37.03,25.44c0.22,0.93,0.09,2.18-0.5,3.19c-5.19,8.83-13.78,20.87-21.38,28.73c-1.74,1.8,0.43,2.83,1.57,2.47C21.47,58.3,29.75,56,36.7,54.09" id="Ske280cc73u" kvg:type="㇜" transform="matrix(1,0,0,1,1196,-4)" xmlns:kvg="http://kanjivg.tagaini.net"></path><path class="stroke_order_diagram--existing_path" d="M33.5,47.75c2.56,2.07,6.61,8.52,7.25,11.75" id="Ske280cc73v" kvg:type="㇔" transform="matrix(1,0,0,1,1196,-4)" xmlns:kvg="http://kanjivg.tagaini.net"></path><path class="stroke_order_diagram--existing_path" d="M26.33,59.51c0.83,0.83,1.28,1.99,1.28,3.28c0,6.96-0.09,18.84-0.09,27.22c0,2.97-0.07,5.18-0.07,5.99" id="Ske280cc73w" kvg:type="㇑" transform="matrix(1,0,0,1,1196,-4)" xmlns:kvg="http://kanjivg.tagaini.net"></path><path class="stroke_order_diagram--existing_path" d="M18.75,71.5c0.12,0.88,0,1.5-0.37,2.55c-1.62,4.62-4.58,10.9-6.63,13.95" id="Ske280cc73x" kvg:type="㇒" transform="matrix(1,0,0,1,1196,-4)" xmlns:kvg="http://kanjivg.tagaini.net"></path><path class="stroke_order_diagram--existing_path" d="M34.5,66c2.38,2.01,4.2,6.68,4.75,8.5" id="Ske280cc73y" kvg:type="㇔" transform="matrix(1,0,0,1,1196,-4)" xmlns:kvg="http://kanjivg.tagaini.net"></path><path class="stroke_order_diagram--existing_path" d="M47.8,16.76c1.34,0.58,3.76,0.49,5.2,0.38c7.72-0.58,23.17-2.47,31.12-3.21c1.85-0.17,4.03-0.2,5.84,0.27" id="Ske280cc73z" kvg:type="㇐" transform="matrix(1,0,0,1,1196,-4)" xmlns:kvg="http://kanjivg.tagaini.net"></path><path class="stroke_order_diagram--existing_path" d="M49.73,28.38c1.64,0.5,3.14,0.62,5.02,0.37c9.36-1.27,25.06-3.03,31.58-3.74c2.29-0.25,3.34,1.56,2.89,3.25c-0.97,3.62-1.59,5.25-2.94,9.5" id="Ske280cc740" kvg:type="㇕c" transform="matrix(1,0,0,1,1196,-4)" xmlns:kvg="http://kanjivg.tagaini.net"></path><path class="stroke_order_diagram--existing_path" d="M53.11,42.25c7.14-0.62,20.11-2.55,31.14-3.43c1.75-0.14,3.39-0.25,4.85-0.32" id="Ske280cc741" kvg:type="㇐b" transform="matrix(1,0,0,1,1196,-4)" xmlns:kvg="http://kanjivg.tagaini.net"></path><path class="stroke_order_diagram--existing_path" d="M51.25,28.93c0.6,0.6,0.92,1.7,0.92,3.12c0,23.13-1.8,38.71-12.92,50.71" id="Ske280cc742" kvg:type="㇒" transform="matrix(1,0,0,1,1196,-4)" xmlns:kvg="http://kanjivg.tagaini.net"></path><path class="stroke_order_diagram--existing_path" d="M53.43,55.71c0.74,0.74,1.04,1.91,1.05,3.06c0.03,5.1-0.21,19.86-0.01,29.97c0.07,3.36-0.14,5.77-0.14,6.25" id="Ske280cc743" kvg:type="㇑" transform="matrix(1,0,0,1,1196,-4)" xmlns:kvg="http://kanjivg.tagaini.net"></path><path class="stroke_order_diagram--existing_path" d="M54.59,56.49c5.19-0.51,36.59-4.31,37.63-4.31c1.79,0,3.18,0.82,3.18,3.28c0,6.78,0.02,31.95,0.02,34.83c0,6.7-3.79,2.2-5.71-0.23" id="Ske280cc744" kvg:type="㇆a" transform="matrix(1,0,0,1,1196,-4)" xmlns:kvg="http://kanjivg.tagaini.net"></path><path class="stroke_order_diagram--current_path" d="M56.12,72.31c7.75-0.94,29.13-3.44,38.06-3.77" id="kvg:07de8-s13" kvg:type="㇐a" transform="matrix(1,0,0,1,1196,-4)" xmlns:kvg="http://kanjivg.tagaini.net"></path><path class="stroke_order_diagram--current_path" d="M56.12,72.31c7.75-0.94,29.13-3.44,38.06-3.77" id="Ske280cc746" kvg:type="㇐a" transform="matrix(1,0,0,1,1196,-4)" xmlns:kvg="http://kanjivg.tagaini.net"></path><circle class="stroke_order_diagram--path_start" cx="56.12" cy="72.31" r="4" transform="matrix(1,0,0,1,1196,-4)"></circle><line class="stroke_order_diagram--guide_line" x1="1350" x2="1350" y1="1" y2="99"></line><line class="stroke_order_diagram--bounding_box" x1="1399" x2="1399" y1="1" y2="99"></line><path class="stroke_order_diagram--existing_path" d="M27.65,14.5c0.31,1.21,0.09,2.49-0.66,3.69c-3.26,5.27-7.61,11.56-11.57,16.54c-0.54,0.68-0.37,2.81,0.25,3.04c3.26,1.21,7.59,2.99,10.39,5.22" id="Ske280cc749" kvg:type="㇜" transform="matrix(1,0,0,1,1296,-4)" xmlns:kvg="http://kanjivg.tagaini.net"></path><path class="stroke_order_diagram--existing_path" d="M37.03,25.44c0.22,0.93,0.09,2.18-0.5,3.19c-5.19,8.83-13.78,20.87-21.38,28.73c-1.74,1.8,0.43,2.83,1.57,2.47C21.47,58.3,29.75,56,36.7,54.09" id="Ske280cc74a" kvg:type="㇜" transform="matrix(1,0,0,1,1296,-4)" xmlns:kvg="http://kanjivg.tagaini.net"></path><path class="stroke_order_diagram--existing_path" d="M33.5,47.75c2.56,2.07,6.61,8.52,7.25,11.75" id="Ske280cc74b" kvg:type="㇔" transform="matrix(1,0,0,1,1296,-4)" xmlns:kvg="http://kanjivg.tagaini.net"></path><path class="stroke_order_diagram--existing_path" d="M26.33,59.51c0.83,0.83,1.28,1.99,1.28,3.28c0,6.96-0.09,18.84-0.09,27.22c0,2.97-0.07,5.18-0.07,5.99" id="Ske280cc74c" kvg:type="㇑" transform="matrix(1,0,0,1,1296,-4)" xmlns:kvg="http://kanjivg.tagaini.net"></path><path class="stroke_order_diagram--existing_path" d="M18.75,71.5c0.12,0.88,0,1.5-0.37,2.55c-1.62,4.62-4.58,10.9-6.63,13.95" id="Ske280cc74d" kvg:type="㇒" transform="matrix(1,0,0,1,1296,-4)" xmlns:kvg="http://kanjivg.tagaini.net"></path><path class="stroke_order_diagram--existing_path" d="M34.5,66c2.38,2.01,4.2,6.68,4.75,8.5" id="Ske280cc74e" kvg:type="㇔" transform="matrix(1,0,0,1,1296,-4)" xmlns:kvg="http://kanjivg.tagaini.net"></path><path class="stroke_order_diagram--existing_path" d="M47.8,16.76c1.34,0.58,3.76,0.49,5.2,0.38c7.72-0.58,23.17-2.47,31.12-3.21c1.85-0.17,4.03-0.2,5.84,0.27" id="Ske280cc74f" kvg:type="㇐" transform="matrix(1,0,0,1,1296,-4)" xmlns:kvg="http://kanjivg.tagaini.net"></path><path class="stroke_order_diagram--existing_path" d="M49.73,28.38c1.64,0.5,3.14,0.62,5.02,0.37c9.36-1.27,25.06-3.03,31.58-3.74c2.29-0.25,3.34,1.56,2.89,3.25c-0.97,3.62-1.59,5.25-2.94,9.5" id="Ske280cc74g" kvg:type="㇕c" transform="matrix(1,0,0,1,1296,-4)" xmlns:kvg="http://kanjivg.tagaini.net"></path><path class="stroke_order_diagram--existing_path" d="M53.11,42.25c7.14-0.62,20.11-2.55,31.14-3.43c1.75-0.14,3.39-0.25,4.85-0.32" id="Ske280cc74h" kvg:type="㇐b" transform="matrix(1,0,0,1,1296,-4)" xmlns:kvg="http://kanjivg.tagaini.net"></path><path class="stroke_order_diagram--existing_path" d="M51.25,28.93c0.6,0.6,0.92,1.7,0.92,3.12c0,23.13-1.8,38.71-12.92,50.71" id="Ske280cc74i" kvg:type="㇒" transform="matrix(1,0,0,1,1296,-4)" xmlns:kvg="http://kanjivg.tagaini.net"></path><path class="stroke_order_diagram--existing_path" d="M53.43,55.71c0.74,0.74,1.04,1.91,1.05,3.06c0.03,5.1-0.21,19.86-0.01,29.97c0.07,3.36-0.14,5.77-0.14,6.25" id="Ske280cc74j" kvg:type="㇑" transform="matrix(1,0,0,1,1296,-4)" xmlns:kvg="http://kanjivg.tagaini.net"></path><path class="stroke_order_diagram--existing_path" d="M54.59,56.49c5.19-0.51,36.59-4.31,37.63-4.31c1.79,0,3.18,0.82,3.18,3.28c0,6.78,0.02,31.95,0.02,34.83c0,6.7-3.79,2.2-5.71-0.23" id="Ske280cc74k" kvg:type="㇆a" transform="matrix(1,0,0,1,1296,-4)" xmlns:kvg="http://kanjivg.tagaini.net"></path><path class="stroke_order_diagram--existing_path" d="M56.12,72.31c7.75-0.94,29.13-3.44,38.06-3.77" id="Ske280cc74l" kvg:type="㇐a" transform="matrix(1,0,0,1,1296,-4)" xmlns:kvg="http://kanjivg.tagaini.net"></path><path class="stroke_order_diagram--current_path" d="M65.33,58c0.71,0.71,1.13,1.87,1.13,2.73c0,0.41,0.06,13.31-0.04,22.01c-0.03,2.99-0.07,5.3-0.11,6.15" id="kvg:07de8-s14" kvg:type="㇑" transform="matrix(1,0,0,1,1296,-4)" xmlns:kvg="http://kanjivg.tagaini.net"></path><path class="stroke_order_diagram--current_path" d="M65.33,58c0.71,0.71,1.13,1.87,1.13,2.73c0,0.41,0.06,13.31-0.04,22.01c-0.03,2.99-0.07,5.3-0.11,6.15" id="Ske280cc74n" kvg:type="㇑" transform="matrix(1,0,0,1,1296,-4)" xmlns:kvg="http://kanjivg.tagaini.net"></path><circle class="stroke_order_diagram--path_start" cx="65.33" cy="58" r="4" transform="matrix(1,0,0,1,1296,-4)"></circle><line class="stroke_order_diagram--guide_line" x1="1450" x2="1450" y1="1" y2="99"></line><line class="stroke_order_diagram--bounding_box" x1="1499" x2="1499" y1="1" y2="99"></line><path class="stroke_order_diagram--existing_path" d="M27.65,14.5c0.31,1.21,0.09,2.49-0.66,3.69c-3.26,5.27-7.61,11.56-11.57,16.54c-0.54,0.68-0.37,2.81,0.25,3.04c3.26,1.21,7.59,2.99,10.39,5.22" id="Ske280cc74q" kvg:type="㇜" transform="matrix(1,0,0,1,1396,-4)" xmlns:kvg="http://kanjivg.tagaini.net"></path><path class="stroke_order_diagram--existing_path" d="M37.03,25.44c0.22,0.93,0.09,2.18-0.5,3.19c-5.19,8.83-13.78,20.87-21.38,28.73c-1.74,1.8,0.43,2.83,1.57,2.47C21.47,58.3,29.75,56,36.7,54.09" id="Ske280cc74r" kvg:type="㇜" transform="matrix(1,0,0,1,1396,-4)" xmlns:kvg="http://kanjivg.tagaini.net"></path><path class="stroke_order_diagram--existing_path" d="M33.5,47.75c2.56,2.07,6.61,8.52,7.25,11.75" id="Ske280cc74s" kvg:type="㇔" transform="matrix(1,0,0,1,1396,-4)" xmlns:kvg="http://kanjivg.tagaini.net"></path><path class="stroke_order_diagram--existing_path" d="M26.33,59.51c0.83,0.83,1.28,1.99,1.28,3.28c0,6.96-0.09,18.84-0.09,27.22c0,2.97-0.07,5.18-0.07,5.99" id="Ske280cc74t" kvg:type="㇑" transform="matrix(1,0,0,1,1396,-4)" xmlns:kvg="http://kanjivg.tagaini.net"></path><path class="stroke_order_diagram--existing_path" d="M18.75,71.5c0.12,0.88,0,1.5-0.37,2.55c-1.62,4.62-4.58,10.9-6.63,13.95" id="Ske280cc74u" kvg:type="㇒" transform="matrix(1,0,0,1,1396,-4)" xmlns:kvg="http://kanjivg.tagaini.net"></path><path class="stroke_order_diagram--existing_path" d="M34.5,66c2.38,2.01,4.2,6.68,4.75,8.5" id="Ske280cc74v" kvg:type="㇔" transform="matrix(1,0,0,1,1396,-4)" xmlns:kvg="http://kanjivg.tagaini.net"></path><path class="stroke_order_diagram--existing_path" d="M47.8,16.76c1.34,0.58,3.76,0.49,5.2,0.38c7.72-0.58,23.17-2.47,31.12-3.21c1.85-0.17,4.03-0.2,5.84,0.27" id="Ske280cc74w" kvg:type="㇐" transform="matrix(1,0,0,1,1396,-4)" xmlns:kvg="http://kanjivg.tagaini.net"></path><path class="stroke_order_diagram--existing_path" d="M49.73,28.38c1.64,0.5,3.14,0.62,5.02,0.37c9.36-1.27,25.06-3.03,31.58-3.74c2.29-0.25,3.34,1.56,2.89,3.25c-0.97,3.62-1.59,5.25-2.94,9.5" id="Ske280cc74x" kvg:type="㇕c" transform="matrix(1,0,0,1,1396,-4)" xmlns:kvg="http://kanjivg.tagaini.net"></path><path class="stroke_order_diagram--existing_path" d="M53.11,42.25c7.14-0.62,20.11-2.55,31.14-3.43c1.75-0.14,3.39-0.25,4.85-0.32" id="Ske280cc74y" kvg:type="㇐b" transform="matrix(1,0,0,1,1396,-4)" xmlns:kvg="http://kanjivg.tagaini.net"></path><path class="stroke_order_diagram--existing_path" d="M51.25,28.93c0.6,0.6,0.92,1.7,0.92,3.12c0,23.13-1.8,38.71-12.92,50.71" id="Ske280cc74z" kvg:type="㇒" transform="matrix(1,0,0,1,1396,-4)" xmlns:kvg="http://kanjivg.tagaini.net"></path><path class="stroke_order_diagram--existing_path" d="M53.43,55.71c0.74,0.74,1.04,1.91,1.05,3.06c0.03,5.1-0.21,19.86-0.01,29.97c0.07,3.36-0.14,5.77-0.14,6.25" id="Ske280cc750" kvg:type="㇑" transform="matrix(1,0,0,1,1396,-4)" xmlns:kvg="http://kanjivg.tagaini.net"></path><path class="stroke_order_diagram--existing_path" d="M54.59,56.49c5.19-0.51,36.59-4.31,37.63-4.31c1.79,0,3.18,0.82,3.18,3.28c0,6.78,0.02,31.95,0.02,34.83c0,6.7-3.79,2.2-5.71-0.23" id="Ske280cc751" kvg:type="㇆a" transform="matrix(1,0,0,1,1396,-4)" xmlns:kvg="http://kanjivg.tagaini.net"></path><path class="stroke_order_diagram--existing_path" d="M56.12,72.31c7.75-0.94,29.13-3.44,38.06-3.77" id="Ske280cc752" kvg:type="㇐a" transform="matrix(1,0,0,1,1396,-4)" xmlns:kvg="http://kanjivg.tagaini.net"></path><path class="stroke_order_diagram--existing_path" d="M65.33,58c0.71,0.71,1.13,1.87,1.13,2.73c0,0.41,0.06,13.31-0.04,22.01c-0.03,2.99-0.07,5.3-0.11,6.15" id="Ske280cc753" kvg:type="㇑" transform="matrix(1,0,0,1,1396,-4)" xmlns:kvg="http://kanjivg.tagaini.net"></path><path class="stroke_order_diagram--current_path" d="M78.04,56.57c0.7,0.7,1.13,1.93,1.13,2.98c0,0.42,0.05,13.88-0.05,22.45c-0.03,2.67-0.07,4.72-0.11,5.51" id="kvg:07de8-s15" kvg:type="㇑" transform="matrix(1,0,0,1,1396,-4)" xmlns:kvg="http://kanjivg.tagaini.net"></path><path class="stroke_order_diagram--current_path" d="M78.04,56.57c0.7,0.7,1.13,1.93,1.13,2.98c0,0.42,0.05,13.88-0.05,22.45c-0.03,2.67-0.07,4.72-0.11,5.51" id="Ske280cc755" kvg:type="㇑" transform="matrix(1,0,0,1,1396,-4)" xmlns:kvg="http://kanjivg.tagaini.net"></path><circle class="stroke_order_diagram--path_start" cx="78.04" cy="56.57" r="4" transform="matrix(1,0,0,1,1396,-4)"></circle></svg>