<svg class="stroke_order_diagram--svg_container_for_518662b6d5dda79658001381" style="height: 100px; width: 1600px;" viewbox="0 0 1600 100"><desc>Created with Snap</desc><defs></defs><line class="stroke_order_diagram--bounding_box" x1="1" x2="1599" y1="1" y2="1"></line><line class="stroke_order_diagram--bounding_box" x1="1" x2="1" y1="1" y2="99"></line><line class="stroke_order_diagram--bounding_box" x1="1" x2="1599" y1="99" y2="99"></line><line class="stroke_order_diagram--guide_line" x1="0" x2="1600" y1="50" y2="50"></line><line class="stroke_order_diagram--guide_line" x1="50" x2="50" y1="1" y2="99"></line><line class="stroke_order_diagram--bounding_box" x1="99" x2="99" y1="1" y2="99"></line><path class="stroke_order_diagram--current_path" d="M24.03,12c0.32,1.38,0.34,2.4-0.16,3.91c-2.19,6.64-6.96,14.21-11.24,19.52c-0.59,0.73-0.64,3.19,0,3.45c3.38,1.38,7.57,2.7,10.47,5.23" id="kvg:07e09-s1" kvg:type="㇜" transform="matrix(1,0,0,1,-4,-4)" xmlns:kvg="http://kanjivg.tagaini.net"></path><path class="stroke_order_diagram--current_path" d="M24.03,12c0.32,1.38,0.34,2.4-0.16,3.91c-2.19,6.64-6.96,14.21-11.24,19.52c-0.59,0.73-0.64,3.19,0,3.45c3.38,1.38,7.57,2.7,10.47,5.23" id="Ske2u5qxap" kvg:type="㇜" transform="matrix(1,0,0,1,-4,-4)" xmlns:kvg="http://kanjivg.tagaini.net"></path><circle class="stroke_order_diagram--path_start" cx="24.03" cy="12" r="4" transform="matrix(1,0,0,1,-4,-4)"></circle><line class="stroke_order_diagram--guide_line" x1="150" x2="150" y1="1" y2="99"></line><line class="stroke_order_diagram--bounding_box" x1="199" x2="199" y1="1" y2="99"></line><path class="stroke_order_diagram--existing_path" d="M24.03,12c0.32,1.38,0.34,2.4-0.16,3.91c-2.19,6.64-6.96,14.21-11.24,19.52c-0.59,0.73-0.64,3.19,0,3.45c3.38,1.38,7.57,2.7,10.47,5.23" id="Ske2u5qxas" kvg:type="㇜" transform="matrix(1,0,0,1,96,-4)" xmlns:kvg="http://kanjivg.tagaini.net"></path><path class="stroke_order_diagram--current_path" d="M34.73,24.18c0.26,0.58,0.33,2.48,0,3.11c-5.13,9.8-14.18,22.33-21.23,30.65c-1.62,1.91,0.4,3,1.46,2.61c4.41-1.62,14.9-4.52,20.57-6.08" id="kvg:07e09-s2" kvg:type="㇜" transform="matrix(1,0,0,1,96,-4)" xmlns:kvg="http://kanjivg.tagaini.net"></path><path class="stroke_order_diagram--current_path" d="M34.73,24.18c0.26,0.58,0.33,2.48,0,3.11c-5.13,9.8-14.18,22.33-21.23,30.65c-1.62,1.91,0.4,3,1.46,2.61c4.41-1.62,14.9-4.52,20.57-6.08" id="Ske2u5qxau" kvg:type="㇜" transform="matrix(1,0,0,1,96,-4)" xmlns:kvg="http://kanjivg.tagaini.net"></path><circle class="stroke_order_diagram--path_start" cx="34.73" cy="24.18" r="4" transform="matrix(1,0,0,1,96,-4)"></circle><line class="stroke_order_diagram--guide_line" x1="250" x2="250" y1="1" y2="99"></line><line class="stroke_order_diagram--bounding_box" x1="299" x2="299" y1="1" y2="99"></line><path class="stroke_order_diagram--existing_path" d="M24.03,12c0.32,1.38,0.34,2.4-0.16,3.91c-2.19,6.64-6.96,14.21-11.24,19.52c-0.59,0.73-0.64,3.19,0,3.45c3.38,1.38,7.57,2.7,10.47,5.23" id="Ske2u5qxax" kvg:type="㇜" transform="matrix(1,0,0,1,196,-4)" xmlns:kvg="http://kanjivg.tagaini.net"></path><path class="stroke_order_diagram--existing_path" d="M34.73,24.18c0.26,0.58,0.33,2.48,0,3.11c-5.13,9.8-14.18,22.33-21.23,30.65c-1.62,1.91,0.4,3,1.46,2.61c4.41-1.62,14.9-4.52,20.57-6.08" id="Ske2u5qxay" kvg:type="㇜" transform="matrix(1,0,0,1,196,-4)" xmlns:kvg="http://kanjivg.tagaini.net"></path><path class="stroke_order_diagram--current_path" d="M30.75,45.75C34.01,48.49,39.18,57,40,61.25" id="kvg:07e09-s3" kvg:type="㇔" transform="matrix(1,0,0,1,196,-4)" xmlns:kvg="http://kanjivg.tagaini.net"></path><path class="stroke_order_diagram--current_path" d="M30.75,45.75C34.01,48.49,39.18,57,40,61.25" id="Ske2u5qxa10" kvg:type="㇔" transform="matrix(1,0,0,1,196,-4)" xmlns:kvg="http://kanjivg.tagaini.net"></path><circle class="stroke_order_diagram--path_start" cx="30.75" cy="45.75" r="4" transform="matrix(1,0,0,1,196,-4)"></circle><line class="stroke_order_diagram--guide_line" x1="350" x2="350" y1="1" y2="99"></line><line class="stroke_order_diagram--bounding_box" x1="399" x2="399" y1="1" y2="99"></line><path class="stroke_order_diagram--existing_path" d="M24.03,12c0.32,1.38,0.34,2.4-0.16,3.91c-2.19,6.64-6.96,14.21-11.24,19.52c-0.59,0.73-0.64,3.19,0,3.45c3.38,1.38,7.57,2.7,10.47,5.23" id="Ske2u5qxa13" kvg:type="㇜" transform="matrix(1,0,0,1,296,-4)" xmlns:kvg="http://kanjivg.tagaini.net"></path><path class="stroke_order_diagram--existing_path" d="M34.73,24.18c0.26,0.58,0.33,2.48,0,3.11c-5.13,9.8-14.18,22.33-21.23,30.65c-1.62,1.91,0.4,3,1.46,2.61c4.41-1.62,14.9-4.52,20.57-6.08" id="Ske2u5qxa14" kvg:type="㇜" transform="matrix(1,0,0,1,296,-4)" xmlns:kvg="http://kanjivg.tagaini.net"></path><path class="stroke_order_diagram--existing_path" d="M30.75,45.75C34.01,48.49,39.18,57,40,61.25" id="Ske2u5qxa15" kvg:type="㇔" transform="matrix(1,0,0,1,296,-4)" xmlns:kvg="http://kanjivg.tagaini.net"></path><path class="stroke_order_diagram--current_path" d="M25.89,60.62c0.07,0.36,0.91,1.85,0.98,4.09c0.31,10.79-0.2,28.79-0.2,32.46" id="kvg:07e09-s4" kvg:type="㇑" transform="matrix(1,0,0,1,296,-4)" xmlns:kvg="http://kanjivg.tagaini.net"></path><path class="stroke_order_diagram--current_path" d="M25.89,60.62c0.07,0.36,0.91,1.85,0.98,4.09c0.31,10.79-0.2,28.79-0.2,32.46" id="Ske2u5qxa17" kvg:type="㇑" transform="matrix(1,0,0,1,296,-4)" xmlns:kvg="http://kanjivg.tagaini.net"></path><circle class="stroke_order_diagram--path_start" cx="25.89" cy="60.62" r="4" transform="matrix(1,0,0,1,296,-4)"></circle><line class="stroke_order_diagram--guide_line" x1="450" x2="450" y1="1" y2="99"></line><line class="stroke_order_diagram--bounding_box" x1="499" x2="499" y1="1" y2="99"></line><path class="stroke_order_diagram--existing_path" d="M24.03,12c0.32,1.38,0.34,2.4-0.16,3.91c-2.19,6.64-6.96,14.21-11.24,19.52c-0.59,0.73-0.64,3.19,0,3.45c3.38,1.38,7.57,2.7,10.47,5.23" id="Ske2u5qxa1a" kvg:type="㇜" transform="matrix(1,0,0,1,396,-4)" xmlns:kvg="http://kanjivg.tagaini.net"></path><path class="stroke_order_diagram--existing_path" d="M34.73,24.18c0.26,0.58,0.33,2.48,0,3.11c-5.13,9.8-14.18,22.33-21.23,30.65c-1.62,1.91,0.4,3,1.46,2.61c4.41-1.62,14.9-4.52,20.57-6.08" id="Ske2u5qxa1b" kvg:type="㇜" transform="matrix(1,0,0,1,396,-4)" xmlns:kvg="http://kanjivg.tagaini.net"></path><path class="stroke_order_diagram--existing_path" d="M30.75,45.75C34.01,48.49,39.18,57,40,61.25" id="Ske2u5qxa1c" kvg:type="㇔" transform="matrix(1,0,0,1,396,-4)" xmlns:kvg="http://kanjivg.tagaini.net"></path><path class="stroke_order_diagram--existing_path" d="M25.89,60.62c0.07,0.36,0.91,1.85,0.98,4.09c0.31,10.79-0.2,28.79-0.2,32.46" id="Ske2u5qxa1d" kvg:type="㇑" transform="matrix(1,0,0,1,396,-4)" xmlns:kvg="http://kanjivg.tagaini.net"></path><path class="stroke_order_diagram--current_path" d="M17.61,70.85c0.15,0.98,0.12,2.91-0.15,3.61c-1.77,4.57-6.2,13.38-8.71,17.3" id="kvg:07e09-s5" kvg:type="㇒" transform="matrix(1,0,0,1,396,-4)" xmlns:kvg="http://kanjivg.tagaini.net"></path><path class="stroke_order_diagram--current_path" d="M17.61,70.85c0.15,0.98,0.12,2.91-0.15,3.61c-1.77,4.57-6.2,13.38-8.71,17.3" id="Ske2u5qxa1f" kvg:type="㇒" transform="matrix(1,0,0,1,396,-4)" xmlns:kvg="http://kanjivg.tagaini.net"></path><circle class="stroke_order_diagram--path_start" cx="17.61" cy="70.85" r="4" transform="matrix(1,0,0,1,396,-4)"></circle><line class="stroke_order_diagram--guide_line" x1="550" x2="550" y1="1" y2="99"></line><line class="stroke_order_diagram--bounding_box" x1="599" x2="599" y1="1" y2="99"></line><path class="stroke_order_diagram--existing_path" d="M24.03,12c0.32,1.38,0.34,2.4-0.16,3.91c-2.19,6.64-6.96,14.21-11.24,19.52c-0.59,0.73-0.64,3.19,0,3.45c3.38,1.38,7.57,2.7,10.47,5.23" id="Ske2u5qxa1i" kvg:type="㇜" transform="matrix(1,0,0,1,496,-4)" xmlns:kvg="http://kanjivg.tagaini.net"></path><path class="stroke_order_diagram--existing_path" d="M34.73,24.18c0.26,0.58,0.33,2.48,0,3.11c-5.13,9.8-14.18,22.33-21.23,30.65c-1.62,1.91,0.4,3,1.46,2.61c4.41-1.62,14.9-4.52,20.57-6.08" id="Ske2u5qxa1j" kvg:type="㇜" transform="matrix(1,0,0,1,496,-4)" xmlns:kvg="http://kanjivg.tagaini.net"></path><path class="stroke_order_diagram--existing_path" d="M30.75,45.75C34.01,48.49,39.18,57,40,61.25" id="Ske2u5qxa1k" kvg:type="㇔" transform="matrix(1,0,0,1,496,-4)" xmlns:kvg="http://kanjivg.tagaini.net"></path><path class="stroke_order_diagram--existing_path" d="M25.89,60.62c0.07,0.36,0.91,1.85,0.98,4.09c0.31,10.79-0.2,28.79-0.2,32.46" id="Ske2u5qxa1l" kvg:type="㇑" transform="matrix(1,0,0,1,496,-4)" xmlns:kvg="http://kanjivg.tagaini.net"></path><path class="stroke_order_diagram--existing_path" d="M17.61,70.85c0.15,0.98,0.12,2.91-0.15,3.61c-1.77,4.57-6.2,13.38-8.71,17.3" id="Ske2u5qxa1m" kvg:type="㇒" transform="matrix(1,0,0,1,496,-4)" xmlns:kvg="http://kanjivg.tagaini.net"></path><path class="stroke_order_diagram--current_path" d="M34,68.25c3.96,4.19,7,13.93,7.92,17.72" id="kvg:07e09-s6" kvg:type="㇔" transform="matrix(1,0,0,1,496,-4)" xmlns:kvg="http://kanjivg.tagaini.net"></path><path class="stroke_order_diagram--current_path" d="M34,68.25c3.96,4.19,7,13.93,7.92,17.72" id="Ske2u5qxa1o" kvg:type="㇔" transform="matrix(1,0,0,1,496,-4)" xmlns:kvg="http://kanjivg.tagaini.net"></path><circle class="stroke_order_diagram--path_start" cx="34" cy="68.25" r="4" transform="matrix(1,0,0,1,496,-4)"></circle><line class="stroke_order_diagram--guide_line" x1="650" x2="650" y1="1" y2="99"></line><line class="stroke_order_diagram--bounding_box" x1="699" x2="699" y1="1" y2="99"></line><path class="stroke_order_diagram--existing_path" d="M24.03,12c0.32,1.38,0.34,2.4-0.16,3.91c-2.19,6.64-6.96,14.21-11.24,19.52c-0.59,0.73-0.64,3.19,0,3.45c3.38,1.38,7.57,2.7,10.47,5.23" id="Ske2u5qxa1r" kvg:type="㇜" transform="matrix(1,0,0,1,596,-4)" xmlns:kvg="http://kanjivg.tagaini.net"></path><path class="stroke_order_diagram--existing_path" d="M34.73,24.18c0.26,0.58,0.33,2.48,0,3.11c-5.13,9.8-14.18,22.33-21.23,30.65c-1.62,1.91,0.4,3,1.46,2.61c4.41-1.62,14.9-4.52,20.57-6.08" id="Ske2u5qxa1s" kvg:type="㇜" transform="matrix(1,0,0,1,596,-4)" xmlns:kvg="http://kanjivg.tagaini.net"></path><path class="stroke_order_diagram--existing_path" d="M30.75,45.75C34.01,48.49,39.18,57,40,61.25" id="Ske2u5qxa1t" kvg:type="㇔" transform="matrix(1,0,0,1,596,-4)" xmlns:kvg="http://kanjivg.tagaini.net"></path><path class="stroke_order_diagram--existing_path" d="M25.89,60.62c0.07,0.36,0.91,1.85,0.98,4.09c0.31,10.79-0.2,28.79-0.2,32.46" id="Ske2u5qxa1u" kvg:type="㇑" transform="matrix(1,0,0,1,596,-4)" xmlns:kvg="http://kanjivg.tagaini.net"></path><path class="stroke_order_diagram--existing_path" d="M17.61,70.85c0.15,0.98,0.12,2.91-0.15,3.61c-1.77,4.57-6.2,13.38-8.71,17.3" id="Ske2u5qxa1v" kvg:type="㇒" transform="matrix(1,0,0,1,596,-4)" xmlns:kvg="http://kanjivg.tagaini.net"></path><path class="stroke_order_diagram--existing_path" d="M34,68.25c3.96,4.19,7,13.93,7.92,17.72" id="Ske2u5qxa1w" kvg:type="㇔" transform="matrix(1,0,0,1,596,-4)" xmlns:kvg="http://kanjivg.tagaini.net"></path><path class="stroke_order_diagram--current_path" d="M44.29,17.83c1.31,0.21,3.72,0.26,5.04,0.21c7.77-0.3,28.38-2.05,39.07-2.45c2.18-0.08,3.51,0.1,4.6,0.21" id="kvg:07e09-s7" kvg:type="㇐" transform="matrix(1,0,0,1,596,-4)" xmlns:kvg="http://kanjivg.tagaini.net"></path><path class="stroke_order_diagram--current_path" d="M44.29,17.83c1.31,0.21,3.72,0.26,5.04,0.21c7.77-0.3,28.38-2.05,39.07-2.45c2.18-0.08,3.51,0.1,4.6,0.21" id="Ske2u5qxa1y" kvg:type="㇐" transform="matrix(1,0,0,1,596,-4)" xmlns:kvg="http://kanjivg.tagaini.net"></path><circle class="stroke_order_diagram--path_start" cx="44.29" cy="17.83" r="4" transform="matrix(1,0,0,1,596,-4)"></circle><line class="stroke_order_diagram--guide_line" x1="750" x2="750" y1="1" y2="99"></line><line class="stroke_order_diagram--bounding_box" x1="799" x2="799" y1="1" y2="99"></line><path class="stroke_order_diagram--existing_path" d="M24.03,12c0.32,1.38,0.34,2.4-0.16,3.91c-2.19,6.64-6.96,14.21-11.24,19.52c-0.59,0.73-0.64,3.19,0,3.45c3.38,1.38,7.57,2.7,10.47,5.23" id="Ske2u5qxa21" kvg:type="㇜" transform="matrix(1,0,0,1,696,-4)" xmlns:kvg="http://kanjivg.tagaini.net"></path><path class="stroke_order_diagram--existing_path" d="M34.73,24.18c0.26,0.58,0.33,2.48,0,3.11c-5.13,9.8-14.18,22.33-21.23,30.65c-1.62,1.91,0.4,3,1.46,2.61c4.41-1.62,14.9-4.52,20.57-6.08" id="Ske2u5qxa22" kvg:type="㇜" transform="matrix(1,0,0,1,696,-4)" xmlns:kvg="http://kanjivg.tagaini.net"></path><path class="stroke_order_diagram--existing_path" d="M30.75,45.75C34.01,48.49,39.18,57,40,61.25" id="Ske2u5qxa23" kvg:type="㇔" transform="matrix(1,0,0,1,696,-4)" xmlns:kvg="http://kanjivg.tagaini.net"></path><path class="stroke_order_diagram--existing_path" d="M25.89,60.62c0.07,0.36,0.91,1.85,0.98,4.09c0.31,10.79-0.2,28.79-0.2,32.46" id="Ske2u5qxa24" kvg:type="㇑" transform="matrix(1,0,0,1,696,-4)" xmlns:kvg="http://kanjivg.tagaini.net"></path><path class="stroke_order_diagram--existing_path" d="M17.61,70.85c0.15,0.98,0.12,2.91-0.15,3.61c-1.77,4.57-6.2,13.38-8.71,17.3" id="Ske2u5qxa25" kvg:type="㇒" transform="matrix(1,0,0,1,696,-4)" xmlns:kvg="http://kanjivg.tagaini.net"></path><path class="stroke_order_diagram--existing_path" d="M34,68.25c3.96,4.19,7,13.93,7.92,17.72" id="Ske2u5qxa26" kvg:type="㇔" transform="matrix(1,0,0,1,696,-4)" xmlns:kvg="http://kanjivg.tagaini.net"></path><path class="stroke_order_diagram--existing_path" d="M44.29,17.83c1.31,0.21,3.72,0.26,5.04,0.21c7.77-0.3,28.38-2.05,39.07-2.45c2.18-0.08,3.51,0.1,4.6,0.21" id="Ske2u5qxa27" kvg:type="㇐" transform="matrix(1,0,0,1,696,-4)" xmlns:kvg="http://kanjivg.tagaini.net"></path><path class="stroke_order_diagram--current_path" d="M53.96,23.98c0.24,0.38,0.39,0.88,0.24,1.38c-1.79,6.19-6.53,14.01-9.86,18.35c-1.06,1.38-1.06,1.68,0.49,1.38c3.25-0.64,12.2-2.45,17.08-3.13" id="kvg:07e09-s8" kvg:type="㇜" transform="matrix(1,0,0,1,696,-4)" xmlns:kvg="http://kanjivg.tagaini.net"></path><path class="stroke_order_diagram--current_path" d="M53.96,23.98c0.24,0.38,0.39,0.88,0.24,1.38c-1.79,6.19-6.53,14.01-9.86,18.35c-1.06,1.38-1.06,1.68,0.49,1.38c3.25-0.64,12.2-2.45,17.08-3.13" id="Ske2u5qxa29" kvg:type="㇜" transform="matrix(1,0,0,1,696,-4)" xmlns:kvg="http://kanjivg.tagaini.net"></path><circle class="stroke_order_diagram--path_start" cx="53.96" cy="23.98" r="4" transform="matrix(1,0,0,1,696,-4)"></circle><line class="stroke_order_diagram--guide_line" x1="850" x2="850" y1="1" y2="99"></line><line class="stroke_order_diagram--bounding_box" x1="899" x2="899" y1="1" y2="99"></line><path class="stroke_order_diagram--existing_path" d="M24.03,12c0.32,1.38,0.34,2.4-0.16,3.91c-2.19,6.64-6.96,14.21-11.24,19.52c-0.59,0.73-0.64,3.19,0,3.45c3.38,1.38,7.57,2.7,10.47,5.23" id="Ske2u5qxa2c" kvg:type="㇜" transform="matrix(1,0,0,1,796,-4)" xmlns:kvg="http://kanjivg.tagaini.net"></path><path class="stroke_order_diagram--existing_path" d="M34.73,24.18c0.26,0.58,0.33,2.48,0,3.11c-5.13,9.8-14.18,22.33-21.23,30.65c-1.62,1.91,0.4,3,1.46,2.61c4.41-1.62,14.9-4.52,20.57-6.08" id="Ske2u5qxa2d" kvg:type="㇜" transform="matrix(1,0,0,1,796,-4)" xmlns:kvg="http://kanjivg.tagaini.net"></path><path class="stroke_order_diagram--existing_path" d="M30.75,45.75C34.01,48.49,39.18,57,40,61.25" id="Ske2u5qxa2e" kvg:type="㇔" transform="matrix(1,0,0,1,796,-4)" xmlns:kvg="http://kanjivg.tagaini.net"></path><path class="stroke_order_diagram--existing_path" d="M25.89,60.62c0.07,0.36,0.91,1.85,0.98,4.09c0.31,10.79-0.2,28.79-0.2,32.46" id="Ske2u5qxa2f" kvg:type="㇑" transform="matrix(1,0,0,1,796,-4)" xmlns:kvg="http://kanjivg.tagaini.net"></path><path class="stroke_order_diagram--existing_path" d="M17.61,70.85c0.15,0.98,0.12,2.91-0.15,3.61c-1.77,4.57-6.2,13.38-8.71,17.3" id="Ske2u5qxa2g" kvg:type="㇒" transform="matrix(1,0,0,1,796,-4)" xmlns:kvg="http://kanjivg.tagaini.net"></path><path class="stroke_order_diagram--existing_path" d="M34,68.25c3.96,4.19,7,13.93,7.92,17.72" id="Ske2u5qxa2h" kvg:type="㇔" transform="matrix(1,0,0,1,796,-4)" xmlns:kvg="http://kanjivg.tagaini.net"></path><path class="stroke_order_diagram--existing_path" d="M44.29,17.83c1.31,0.21,3.72,0.26,5.04,0.21c7.77-0.3,28.38-2.05,39.07-2.45c2.18-0.08,3.51,0.1,4.6,0.21" id="Ske2u5qxa2i" kvg:type="㇐" transform="matrix(1,0,0,1,796,-4)" xmlns:kvg="http://kanjivg.tagaini.net"></path><path class="stroke_order_diagram--existing_path" d="M53.96,23.98c0.24,0.38,0.39,0.88,0.24,1.38c-1.79,6.19-6.53,14.01-9.86,18.35c-1.06,1.38-1.06,1.68,0.49,1.38c3.25-0.64,12.2-2.45,17.08-3.13" id="Ske2u5qxa2j" kvg:type="㇜" transform="matrix(1,0,0,1,796,-4)" xmlns:kvg="http://kanjivg.tagaini.net"></path><path class="stroke_order_diagram--current_path" d="M59.75,34.5c2.12,2.07,5.47,8.52,6,11.75" id="kvg:07e09-s9" kvg:type="㇔" transform="matrix(1,0,0,1,796,-4)" xmlns:kvg="http://kanjivg.tagaini.net"></path><path class="stroke_order_diagram--current_path" d="M59.75,34.5c2.12,2.07,5.47,8.52,6,11.75" id="Ske2u5qxa2l" kvg:type="㇔" transform="matrix(1,0,0,1,796,-4)" xmlns:kvg="http://kanjivg.tagaini.net"></path><circle class="stroke_order_diagram--path_start" cx="59.75" cy="34.5" r="4" transform="matrix(1,0,0,1,796,-4)"></circle><line class="stroke_order_diagram--guide_line" x1="950" x2="950" y1="1" y2="99"></line><line class="stroke_order_diagram--bounding_box" x1="999" x2="999" y1="1" y2="99"></line><path class="stroke_order_diagram--existing_path" d="M24.03,12c0.32,1.38,0.34,2.4-0.16,3.91c-2.19,6.64-6.96,14.21-11.24,19.52c-0.59,0.73-0.64,3.19,0,3.45c3.38,1.38,7.57,2.7,10.47,5.23" id="Ske2u5qxa2o" kvg:type="㇜" transform="matrix(1,0,0,1,896,-4)" xmlns:kvg="http://kanjivg.tagaini.net"></path><path class="stroke_order_diagram--existing_path" d="M34.73,24.18c0.26,0.58,0.33,2.48,0,3.11c-5.13,9.8-14.18,22.33-21.23,30.65c-1.62,1.91,0.4,3,1.46,2.61c4.41-1.62,14.9-4.52,20.57-6.08" id="Ske2u5qxa2p" kvg:type="㇜" transform="matrix(1,0,0,1,896,-4)" xmlns:kvg="http://kanjivg.tagaini.net"></path><path class="stroke_order_diagram--existing_path" d="M30.75,45.75C34.01,48.49,39.18,57,40,61.25" id="Ske2u5qxa2q" kvg:type="㇔" transform="matrix(1,0,0,1,896,-4)" xmlns:kvg="http://kanjivg.tagaini.net"></path><path class="stroke_order_diagram--existing_path" d="M25.89,60.62c0.07,0.36,0.91,1.85,0.98,4.09c0.31,10.79-0.2,28.79-0.2,32.46" id="Ske2u5qxa2r" kvg:type="㇑" transform="matrix(1,0,0,1,896,-4)" xmlns:kvg="http://kanjivg.tagaini.net"></path><path class="stroke_order_diagram--existing_path" d="M17.61,70.85c0.15,0.98,0.12,2.91-0.15,3.61c-1.77,4.57-6.2,13.38-8.71,17.3" id="Ske2u5qxa2s" kvg:type="㇒" transform="matrix(1,0,0,1,896,-4)" xmlns:kvg="http://kanjivg.tagaini.net"></path><path class="stroke_order_diagram--existing_path" d="M34,68.25c3.96,4.19,7,13.93,7.92,17.72" id="Ske2u5qxa2t" kvg:type="㇔" transform="matrix(1,0,0,1,896,-4)" xmlns:kvg="http://kanjivg.tagaini.net"></path><path class="stroke_order_diagram--existing_path" d="M44.29,17.83c1.31,0.21,3.72,0.26,5.04,0.21c7.77-0.3,28.38-2.05,39.07-2.45c2.18-0.08,3.51,0.1,4.6,0.21" id="Ske2u5qxa2u" kvg:type="㇐" transform="matrix(1,0,0,1,896,-4)" xmlns:kvg="http://kanjivg.tagaini.net"></path><path class="stroke_order_diagram--existing_path" d="M53.96,23.98c0.24,0.38,0.39,0.88,0.24,1.38c-1.79,6.19-6.53,14.01-9.86,18.35c-1.06,1.38-1.06,1.68,0.49,1.38c3.25-0.64,12.2-2.45,17.08-3.13" id="Ske2u5qxa2v" kvg:type="㇜" transform="matrix(1,0,0,1,896,-4)" xmlns:kvg="http://kanjivg.tagaini.net"></path><path class="stroke_order_diagram--existing_path" d="M59.75,34.5c2.12,2.07,5.47,8.52,6,11.75" id="Ske2u5qxa2w" kvg:type="㇔" transform="matrix(1,0,0,1,896,-4)" xmlns:kvg="http://kanjivg.tagaini.net"></path><path class="stroke_order_diagram--current_path" d="M80.66,21.5c0.22,0.4,0.34,0.91,0.22,1.43c-1.59,6.41-4.92,13.47-7.89,17.97c-0.94,1.43-0.94,1.74,0.43,1.43c2.89-0.67,13.87-3.03,18.21-3.75" id="kvg:07e09-s10" kvg:type="㇜" transform="matrix(1,0,0,1,896,-4)" xmlns:kvg="http://kanjivg.tagaini.net"></path><path class="stroke_order_diagram--current_path" d="M80.66,21.5c0.22,0.4,0.34,0.91,0.22,1.43c-1.59,6.41-4.92,13.47-7.89,17.97c-0.94,1.43-0.94,1.74,0.43,1.43c2.89-0.67,13.87-3.03,18.21-3.75" id="Ske2u5qxa2y" kvg:type="㇜" transform="matrix(1,0,0,1,896,-4)" xmlns:kvg="http://kanjivg.tagaini.net"></path><circle class="stroke_order_diagram--path_start" cx="80.66" cy="21.5" r="4" transform="matrix(1,0,0,1,896,-4)"></circle><line class="stroke_order_diagram--guide_line" x1="1050" x2="1050" y1="1" y2="99"></line><line class="stroke_order_diagram--bounding_box" x1="1099" x2="1099" y1="1" y2="99"></line><path class="stroke_order_diagram--existing_path" d="M24.03,12c0.32,1.38,0.34,2.4-0.16,3.91c-2.19,6.64-6.96,14.21-11.24,19.52c-0.59,0.73-0.64,3.19,0,3.45c3.38,1.38,7.57,2.7,10.47,5.23" id="Ske2u5qxa31" kvg:type="㇜" transform="matrix(1,0,0,1,996,-4)" xmlns:kvg="http://kanjivg.tagaini.net"></path><path class="stroke_order_diagram--existing_path" d="M34.73,24.18c0.26,0.58,0.33,2.48,0,3.11c-5.13,9.8-14.18,22.33-21.23,30.65c-1.62,1.91,0.4,3,1.46,2.61c4.41-1.62,14.9-4.52,20.57-6.08" id="Ske2u5qxa32" kvg:type="㇜" transform="matrix(1,0,0,1,996,-4)" xmlns:kvg="http://kanjivg.tagaini.net"></path><path class="stroke_order_diagram--existing_path" d="M30.75,45.75C34.01,48.49,39.18,57,40,61.25" id="Ske2u5qxa33" kvg:type="㇔" transform="matrix(1,0,0,1,996,-4)" xmlns:kvg="http://kanjivg.tagaini.net"></path><path class="stroke_order_diagram--existing_path" d="M25.89,60.62c0.07,0.36,0.91,1.85,0.98,4.09c0.31,10.79-0.2,28.79-0.2,32.46" id="Ske2u5qxa34" kvg:type="㇑" transform="matrix(1,0,0,1,996,-4)" xmlns:kvg="http://kanjivg.tagaini.net"></path><path class="stroke_order_diagram--existing_path" d="M17.61,70.85c0.15,0.98,0.12,2.91-0.15,3.61c-1.77,4.57-6.2,13.38-8.71,17.3" id="Ske2u5qxa35" kvg:type="㇒" transform="matrix(1,0,0,1,996,-4)" xmlns:kvg="http://kanjivg.tagaini.net"></path><path class="stroke_order_diagram--existing_path" d="M34,68.25c3.96,4.19,7,13.93,7.92,17.72" id="Ske2u5qxa36" kvg:type="㇔" transform="matrix(1,0,0,1,996,-4)" xmlns:kvg="http://kanjivg.tagaini.net"></path><path class="stroke_order_diagram--existing_path" d="M44.29,17.83c1.31,0.21,3.72,0.26,5.04,0.21c7.77-0.3,28.38-2.05,39.07-2.45c2.18-0.08,3.51,0.1,4.6,0.21" id="Ske2u5qxa37" kvg:type="㇐" transform="matrix(1,0,0,1,996,-4)" xmlns:kvg="http://kanjivg.tagaini.net"></path><path class="stroke_order_diagram--existing_path" d="M53.96,23.98c0.24,0.38,0.39,0.88,0.24,1.38c-1.79,6.19-6.53,14.01-9.86,18.35c-1.06,1.38-1.06,1.68,0.49,1.38c3.25-0.64,12.2-2.45,17.08-3.13" id="Ske2u5qxa38" kvg:type="㇜" transform="matrix(1,0,0,1,996,-4)" xmlns:kvg="http://kanjivg.tagaini.net"></path><path class="stroke_order_diagram--existing_path" d="M59.75,34.5c2.12,2.07,5.47,8.52,6,11.75" id="Ske2u5qxa39" kvg:type="㇔" transform="matrix(1,0,0,1,996,-4)" xmlns:kvg="http://kanjivg.tagaini.net"></path><path class="stroke_order_diagram--existing_path" d="M80.66,21.5c0.22,0.4,0.34,0.91,0.22,1.43c-1.59,6.41-4.92,13.47-7.89,17.97c-0.94,1.43-0.94,1.74,0.43,1.43c2.89-0.67,13.87-3.03,18.21-3.75" id="Ske2u5qxa3a" kvg:type="㇜" transform="matrix(1,0,0,1,996,-4)" xmlns:kvg="http://kanjivg.tagaini.net"></path><path class="stroke_order_diagram--current_path" d="M86.61,32.05c2.61,2.15,6.73,8.85,7.39,12.2" id="kvg:07e09-s11" kvg:type="㇔" transform="matrix(1,0,0,1,996,-4)" xmlns:kvg="http://kanjivg.tagaini.net"></path><path class="stroke_order_diagram--current_path" d="M86.61,32.05c2.61,2.15,6.73,8.85,7.39,12.2" id="Ske2u5qxa3c" kvg:type="㇔" transform="matrix(1,0,0,1,996,-4)" xmlns:kvg="http://kanjivg.tagaini.net"></path><circle class="stroke_order_diagram--path_start" cx="86.61" cy="32.05" r="4" transform="matrix(1,0,0,1,996,-4)"></circle><line class="stroke_order_diagram--guide_line" x1="1150" x2="1150" y1="1" y2="99"></line><line class="stroke_order_diagram--bounding_box" x1="1199" x2="1199" y1="1" y2="99"></line><path class="stroke_order_diagram--existing_path" d="M24.03,12c0.32,1.38,0.34,2.4-0.16,3.91c-2.19,6.64-6.96,14.21-11.24,19.52c-0.59,0.73-0.64,3.19,0,3.45c3.38,1.38,7.57,2.7,10.47,5.23" id="Ske2u5qxa3f" kvg:type="㇜" transform="matrix(1,0,0,1,1096,-4)" xmlns:kvg="http://kanjivg.tagaini.net"></path><path class="stroke_order_diagram--existing_path" d="M34.73,24.18c0.26,0.58,0.33,2.48,0,3.11c-5.13,9.8-14.18,22.33-21.23,30.65c-1.62,1.91,0.4,3,1.46,2.61c4.41-1.62,14.9-4.52,20.57-6.08" id="Ske2u5qxa3g" kvg:type="㇜" transform="matrix(1,0,0,1,1096,-4)" xmlns:kvg="http://kanjivg.tagaini.net"></path><path class="stroke_order_diagram--existing_path" d="M30.75,45.75C34.01,48.49,39.18,57,40,61.25" id="Ske2u5qxa3h" kvg:type="㇔" transform="matrix(1,0,0,1,1096,-4)" xmlns:kvg="http://kanjivg.tagaini.net"></path><path class="stroke_order_diagram--existing_path" d="M25.89,60.62c0.07,0.36,0.91,1.85,0.98,4.09c0.31,10.79-0.2,28.79-0.2,32.46" id="Ske2u5qxa3i" kvg:type="㇑" transform="matrix(1,0,0,1,1096,-4)" xmlns:kvg="http://kanjivg.tagaini.net"></path><path class="stroke_order_diagram--existing_path" d="M17.61,70.85c0.15,0.98,0.12,2.91-0.15,3.61c-1.77,4.57-6.2,13.38-8.71,17.3" id="Ske2u5qxa3j" kvg:type="㇒" transform="matrix(1,0,0,1,1096,-4)" xmlns:kvg="http://kanjivg.tagaini.net"></path><path class="stroke_order_diagram--existing_path" d="M34,68.25c3.96,4.19,7,13.93,7.92,17.72" id="Ske2u5qxa3k" kvg:type="㇔" transform="matrix(1,0,0,1,1096,-4)" xmlns:kvg="http://kanjivg.tagaini.net"></path><path class="stroke_order_diagram--existing_path" d="M44.29,17.83c1.31,0.21,3.72,0.26,5.04,0.21c7.77-0.3,28.38-2.05,39.07-2.45c2.18-0.08,3.51,0.1,4.6,0.21" id="Ske2u5qxa3l" kvg:type="㇐" transform="matrix(1,0,0,1,1096,-4)" xmlns:kvg="http://kanjivg.tagaini.net"></path><path class="stroke_order_diagram--existing_path" d="M53.96,23.98c0.24,0.38,0.39,0.88,0.24,1.38c-1.79,6.19-6.53,14.01-9.86,18.35c-1.06,1.38-1.06,1.68,0.49,1.38c3.25-0.64,12.2-2.45,17.08-3.13" id="Ske2u5qxa3m" kvg:type="㇜" transform="matrix(1,0,0,1,1096,-4)" xmlns:kvg="http://kanjivg.tagaini.net"></path><path class="stroke_order_diagram--existing_path" d="M59.75,34.5c2.12,2.07,5.47,8.52,6,11.75" id="Ske2u5qxa3n" kvg:type="㇔" transform="matrix(1,0,0,1,1096,-4)" xmlns:kvg="http://kanjivg.tagaini.net"></path><path class="stroke_order_diagram--existing_path" d="M80.66,21.5c0.22,0.4,0.34,0.91,0.22,1.43c-1.59,6.41-4.92,13.47-7.89,17.97c-0.94,1.43-0.94,1.74,0.43,1.43c2.89-0.67,13.87-3.03,18.21-3.75" id="Ske2u5qxa3o" kvg:type="㇜" transform="matrix(1,0,0,1,1096,-4)" xmlns:kvg="http://kanjivg.tagaini.net"></path><path class="stroke_order_diagram--existing_path" d="M86.61,32.05c2.61,2.15,6.73,8.85,7.39,12.2" id="Ske2u5qxa3p" kvg:type="㇔" transform="matrix(1,0,0,1,1096,-4)" xmlns:kvg="http://kanjivg.tagaini.net"></path><path class="stroke_order_diagram--current_path" d="M43.75,54c1.23,0.27,3.5,0.27,4.73,0.27c11.77,0,33.73-2.54,45.7-2.53c2.06,0,3.29,0.13,4.32,0.26" id="kvg:07e09-s12" kvg:type="㇐" transform="matrix(1,0,0,1,1096,-4)" xmlns:kvg="http://kanjivg.tagaini.net"></path><path class="stroke_order_diagram--current_path" d="M43.75,54c1.23,0.27,3.5,0.27,4.73,0.27c11.77,0,33.73-2.54,45.7-2.53c2.06,0,3.29,0.13,4.32,0.26" id="Ske2u5qxa3r" kvg:type="㇐" transform="matrix(1,0,0,1,1096,-4)" xmlns:kvg="http://kanjivg.tagaini.net"></path><circle class="stroke_order_diagram--path_start" cx="43.75" cy="54" r="4" transform="matrix(1,0,0,1,1096,-4)"></circle><line class="stroke_order_diagram--guide_line" x1="1250" x2="1250" y1="1" y2="99"></line><line class="stroke_order_diagram--bounding_box" x1="1299" x2="1299" y1="1" y2="99"></line><path class="stroke_order_diagram--existing_path" d="M24.03,12c0.32,1.38,0.34,2.4-0.16,3.91c-2.19,6.64-6.96,14.21-11.24,19.52c-0.59,0.73-0.64,3.19,0,3.45c3.38,1.38,7.57,2.7,10.47,5.23" id="Ske2u5qxa3u" kvg:type="㇜" transform="matrix(1,0,0,1,1196,-4)" xmlns:kvg="http://kanjivg.tagaini.net"></path><path class="stroke_order_diagram--existing_path" d="M34.73,24.18c0.26,0.58,0.33,2.48,0,3.11c-5.13,9.8-14.18,22.33-21.23,30.65c-1.62,1.91,0.4,3,1.46,2.61c4.41-1.62,14.9-4.52,20.57-6.08" id="Ske2u5qxa3v" kvg:type="㇜" transform="matrix(1,0,0,1,1196,-4)" xmlns:kvg="http://kanjivg.tagaini.net"></path><path class="stroke_order_diagram--existing_path" d="M30.75,45.75C34.01,48.49,39.18,57,40,61.25" id="Ske2u5qxa3w" kvg:type="㇔" transform="matrix(1,0,0,1,1196,-4)" xmlns:kvg="http://kanjivg.tagaini.net"></path><path class="stroke_order_diagram--existing_path" d="M25.89,60.62c0.07,0.36,0.91,1.85,0.98,4.09c0.31,10.79-0.2,28.79-0.2,32.46" id="Ske2u5qxa3x" kvg:type="㇑" transform="matrix(1,0,0,1,1196,-4)" xmlns:kvg="http://kanjivg.tagaini.net"></path><path class="stroke_order_diagram--existing_path" d="M17.61,70.85c0.15,0.98,0.12,2.91-0.15,3.61c-1.77,4.57-6.2,13.38-8.71,17.3" id="Ske2u5qxa3y" kvg:type="㇒" transform="matrix(1,0,0,1,1196,-4)" xmlns:kvg="http://kanjivg.tagaini.net"></path><path class="stroke_order_diagram--existing_path" d="M34,68.25c3.96,4.19,7,13.93,7.92,17.72" id="Ske2u5qxa3z" kvg:type="㇔" transform="matrix(1,0,0,1,1196,-4)" xmlns:kvg="http://kanjivg.tagaini.net"></path><path class="stroke_order_diagram--existing_path" d="M44.29,17.83c1.31,0.21,3.72,0.26,5.04,0.21c7.77-0.3,28.38-2.05,39.07-2.45c2.18-0.08,3.51,0.1,4.6,0.21" id="Ske2u5qxa40" kvg:type="㇐" transform="matrix(1,0,0,1,1196,-4)" xmlns:kvg="http://kanjivg.tagaini.net"></path><path class="stroke_order_diagram--existing_path" d="M53.96,23.98c0.24,0.38,0.39,0.88,0.24,1.38c-1.79,6.19-6.53,14.01-9.86,18.35c-1.06,1.38-1.06,1.68,0.49,1.38c3.25-0.64,12.2-2.45,17.08-3.13" id="Ske2u5qxa41" kvg:type="㇜" transform="matrix(1,0,0,1,1196,-4)" xmlns:kvg="http://kanjivg.tagaini.net"></path><path class="stroke_order_diagram--existing_path" d="M59.75,34.5c2.12,2.07,5.47,8.52,6,11.75" id="Ske2u5qxa42" kvg:type="㇔" transform="matrix(1,0,0,1,1196,-4)" xmlns:kvg="http://kanjivg.tagaini.net"></path><path class="stroke_order_diagram--existing_path" d="M80.66,21.5c0.22,0.4,0.34,0.91,0.22,1.43c-1.59,6.41-4.92,13.47-7.89,17.97c-0.94,1.43-0.94,1.74,0.43,1.43c2.89-0.67,13.87-3.03,18.21-3.75" id="Ske2u5qxa43" kvg:type="㇜" transform="matrix(1,0,0,1,1196,-4)" xmlns:kvg="http://kanjivg.tagaini.net"></path><path class="stroke_order_diagram--existing_path" d="M86.61,32.05c2.61,2.15,6.73,8.85,7.39,12.2" id="Ske2u5qxa44" kvg:type="㇔" transform="matrix(1,0,0,1,1196,-4)" xmlns:kvg="http://kanjivg.tagaini.net"></path><path class="stroke_order_diagram--existing_path" d="M43.75,54c1.23,0.27,3.5,0.27,4.73,0.27c11.77,0,33.73-2.54,45.7-2.53c2.06,0,3.29,0.13,4.32,0.26" id="Ske2u5qxa45" kvg:type="㇐" transform="matrix(1,0,0,1,1196,-4)" xmlns:kvg="http://kanjivg.tagaini.net"></path><path class="stroke_order_diagram--current_path" d="M53.83,63.73c0.31,0.61,0.4,1.01,0.49,1.79c0.93,8.23,1.68,17.73,2.59,30.44" id="kvg:07e09-s13" kvg:type="㇑" transform="matrix(1,0,0,1,1196,-4)" xmlns:kvg="http://kanjivg.tagaini.net"></path><path class="stroke_order_diagram--current_path" d="M53.83,63.73c0.31,0.61,0.4,1.01,0.49,1.79c0.93,8.23,1.68,17.73,2.59,30.44" id="Ske2u5qxa47" kvg:type="㇑" transform="matrix(1,0,0,1,1196,-4)" xmlns:kvg="http://kanjivg.tagaini.net"></path><circle class="stroke_order_diagram--path_start" cx="53.83" cy="63.73" r="4" transform="matrix(1,0,0,1,1196,-4)"></circle><line class="stroke_order_diagram--guide_line" x1="1350" x2="1350" y1="1" y2="99"></line><line class="stroke_order_diagram--bounding_box" x1="1399" x2="1399" y1="1" y2="99"></line><path class="stroke_order_diagram--existing_path" d="M24.03,12c0.32,1.38,0.34,2.4-0.16,3.91c-2.19,6.64-6.96,14.21-11.24,19.52c-0.59,0.73-0.64,3.19,0,3.45c3.38,1.38,7.57,2.7,10.47,5.23" id="Ske2u5qxa4a" kvg:type="㇜" transform="matrix(1,0,0,1,1296,-4)" xmlns:kvg="http://kanjivg.tagaini.net"></path><path class="stroke_order_diagram--existing_path" d="M34.73,24.18c0.26,0.58,0.33,2.48,0,3.11c-5.13,9.8-14.18,22.33-21.23,30.65c-1.62,1.91,0.4,3,1.46,2.61c4.41-1.62,14.9-4.52,20.57-6.08" id="Ske2u5qxa4b" kvg:type="㇜" transform="matrix(1,0,0,1,1296,-4)" xmlns:kvg="http://kanjivg.tagaini.net"></path><path class="stroke_order_diagram--existing_path" d="M30.75,45.75C34.01,48.49,39.18,57,40,61.25" id="Ske2u5qxa4c" kvg:type="㇔" transform="matrix(1,0,0,1,1296,-4)" xmlns:kvg="http://kanjivg.tagaini.net"></path><path class="stroke_order_diagram--existing_path" d="M25.89,60.62c0.07,0.36,0.91,1.85,0.98,4.09c0.31,10.79-0.2,28.79-0.2,32.46" id="Ske2u5qxa4d" kvg:type="㇑" transform="matrix(1,0,0,1,1296,-4)" xmlns:kvg="http://kanjivg.tagaini.net"></path><path class="stroke_order_diagram--existing_path" d="M17.61,70.85c0.15,0.98,0.12,2.91-0.15,3.61c-1.77,4.57-6.2,13.38-8.71,17.3" id="Ske2u5qxa4e" kvg:type="㇒" transform="matrix(1,0,0,1,1296,-4)" xmlns:kvg="http://kanjivg.tagaini.net"></path><path class="stroke_order_diagram--existing_path" d="M34,68.25c3.96,4.19,7,13.93,7.92,17.72" id="Ske2u5qxa4f" kvg:type="㇔" transform="matrix(1,0,0,1,1296,-4)" xmlns:kvg="http://kanjivg.tagaini.net"></path><path class="stroke_order_diagram--existing_path" d="M44.29,17.83c1.31,0.21,3.72,0.26,5.04,0.21c7.77-0.3,28.38-2.05,39.07-2.45c2.18-0.08,3.51,0.1,4.6,0.21" id="Ske2u5qxa4g" kvg:type="㇐" transform="matrix(1,0,0,1,1296,-4)" xmlns:kvg="http://kanjivg.tagaini.net"></path><path class="stroke_order_diagram--existing_path" d="M53.96,23.98c0.24,0.38,0.39,0.88,0.24,1.38c-1.79,6.19-6.53,14.01-9.86,18.35c-1.06,1.38-1.06,1.68,0.49,1.38c3.25-0.64,12.2-2.45,17.08-3.13" id="Ske2u5qxa4h" kvg:type="㇜" transform="matrix(1,0,0,1,1296,-4)" xmlns:kvg="http://kanjivg.tagaini.net"></path><path class="stroke_order_diagram--existing_path" d="M59.75,34.5c2.12,2.07,5.47,8.52,6,11.75" id="Ske2u5qxa4i" kvg:type="㇔" transform="matrix(1,0,0,1,1296,-4)" xmlns:kvg="http://kanjivg.tagaini.net"></path><path class="stroke_order_diagram--existing_path" d="M80.66,21.5c0.22,0.4,0.34,0.91,0.22,1.43c-1.59,6.41-4.92,13.47-7.89,17.97c-0.94,1.43-0.94,1.74,0.43,1.43c2.89-0.67,13.87-3.03,18.21-3.75" id="Ske2u5qxa4j" kvg:type="㇜" transform="matrix(1,0,0,1,1296,-4)" xmlns:kvg="http://kanjivg.tagaini.net"></path><path class="stroke_order_diagram--existing_path" d="M86.61,32.05c2.61,2.15,6.73,8.85,7.39,12.2" id="Ske2u5qxa4k" kvg:type="㇔" transform="matrix(1,0,0,1,1296,-4)" xmlns:kvg="http://kanjivg.tagaini.net"></path><path class="stroke_order_diagram--existing_path" d="M43.75,54c1.23,0.27,3.5,0.27,4.73,0.27c11.77,0,33.73-2.54,45.7-2.53c2.06,0,3.29,0.13,4.32,0.26" id="Ske2u5qxa4l" kvg:type="㇐" transform="matrix(1,0,0,1,1296,-4)" xmlns:kvg="http://kanjivg.tagaini.net"></path><path class="stroke_order_diagram--existing_path" d="M53.83,63.73c0.31,0.61,0.4,1.01,0.49,1.79c0.93,8.23,1.68,17.73,2.59,30.44" id="Ske2u5qxa4m" kvg:type="㇑" transform="matrix(1,0,0,1,1296,-4)" xmlns:kvg="http://kanjivg.tagaini.net"></path><path class="stroke_order_diagram--current_path" d="M55.02,64.75c7.18-1.34,20.98-2,28.94-2.7c2-0.18,2.98,1.04,2.88,2.51c-0.37,5.36-1.79,20.99-2.69,29.94" id="kvg:07e09-s14" kvg:type="㇕a" transform="matrix(1,0,0,1,1296,-4)" xmlns:kvg="http://kanjivg.tagaini.net"></path><path class="stroke_order_diagram--current_path" d="M55.02,64.75c7.18-1.34,20.98-2,28.94-2.7c2-0.18,2.98,1.04,2.88,2.51c-0.37,5.36-1.79,20.99-2.69,29.94" id="Ske2u5qxa4o" kvg:type="㇕a" transform="matrix(1,0,0,1,1296,-4)" xmlns:kvg="http://kanjivg.tagaini.net"></path><circle class="stroke_order_diagram--path_start" cx="55.02" cy="64.75" r="4" transform="matrix(1,0,0,1,1296,-4)"></circle><line class="stroke_order_diagram--guide_line" x1="1450" x2="1450" y1="1" y2="99"></line><line class="stroke_order_diagram--bounding_box" x1="1499" x2="1499" y1="1" y2="99"></line><path class="stroke_order_diagram--existing_path" d="M24.03,12c0.32,1.38,0.34,2.4-0.16,3.91c-2.19,6.64-6.96,14.21-11.24,19.52c-0.59,0.73-0.64,3.19,0,3.45c3.38,1.38,7.57,2.7,10.47,5.23" id="Ske2u5qxa4r" kvg:type="㇜" transform="matrix(1,0,0,1,1396,-4)" xmlns:kvg="http://kanjivg.tagaini.net"></path><path class="stroke_order_diagram--existing_path" d="M34.73,24.18c0.26,0.58,0.33,2.48,0,3.11c-5.13,9.8-14.18,22.33-21.23,30.65c-1.62,1.91,0.4,3,1.46,2.61c4.41-1.62,14.9-4.52,20.57-6.08" id="Ske2u5qxa4s" kvg:type="㇜" transform="matrix(1,0,0,1,1396,-4)" xmlns:kvg="http://kanjivg.tagaini.net"></path><path class="stroke_order_diagram--existing_path" d="M30.75,45.75C34.01,48.49,39.18,57,40,61.25" id="Ske2u5qxa4t" kvg:type="㇔" transform="matrix(1,0,0,1,1396,-4)" xmlns:kvg="http://kanjivg.tagaini.net"></path><path class="stroke_order_diagram--existing_path" d="M25.89,60.62c0.07,0.36,0.91,1.85,0.98,4.09c0.31,10.79-0.2,28.79-0.2,32.46" id="Ske2u5qxa4u" kvg:type="㇑" transform="matrix(1,0,0,1,1396,-4)" xmlns:kvg="http://kanjivg.tagaini.net"></path><path class="stroke_order_diagram--existing_path" d="M17.61,70.85c0.15,0.98,0.12,2.91-0.15,3.61c-1.77,4.57-6.2,13.38-8.71,17.3" id="Ske2u5qxa4v" kvg:type="㇒" transform="matrix(1,0,0,1,1396,-4)" xmlns:kvg="http://kanjivg.tagaini.net"></path><path class="stroke_order_diagram--existing_path" d="M34,68.25c3.96,4.19,7,13.93,7.92,17.72" id="Ske2u5qxa4w" kvg:type="㇔" transform="matrix(1,0,0,1,1396,-4)" xmlns:kvg="http://kanjivg.tagaini.net"></path><path class="stroke_order_diagram--existing_path" d="M44.29,17.83c1.31,0.21,3.72,0.26,5.04,0.21c7.77-0.3,28.38-2.05,39.07-2.45c2.18-0.08,3.51,0.1,4.6,0.21" id="Ske2u5qxa4x" kvg:type="㇐" transform="matrix(1,0,0,1,1396,-4)" xmlns:kvg="http://kanjivg.tagaini.net"></path><path class="stroke_order_diagram--existing_path" d="M53.96,23.98c0.24,0.38,0.39,0.88,0.24,1.38c-1.79,6.19-6.53,14.01-9.86,18.35c-1.06,1.38-1.06,1.68,0.49,1.38c3.25-0.64,12.2-2.45,17.08-3.13" id="Ske2u5qxa4y" kvg:type="㇜" transform="matrix(1,0,0,1,1396,-4)" xmlns:kvg="http://kanjivg.tagaini.net"></path><path class="stroke_order_diagram--existing_path" d="M59.75,34.5c2.12,2.07,5.47,8.52,6,11.75" id="Ske2u5qxa4z" kvg:type="㇔" transform="matrix(1,0,0,1,1396,-4)" xmlns:kvg="http://kanjivg.tagaini.net"></path><path class="stroke_order_diagram--existing_path" d="M80.66,21.5c0.22,0.4,0.34,0.91,0.22,1.43c-1.59,6.41-4.92,13.47-7.89,17.97c-0.94,1.43-0.94,1.74,0.43,1.43c2.89-0.67,13.87-3.03,18.21-3.75" id="Ske2u5qxa50" kvg:type="㇜" transform="matrix(1,0,0,1,1396,-4)" xmlns:kvg="http://kanjivg.tagaini.net"></path><path class="stroke_order_diagram--existing_path" d="M86.61,32.05c2.61,2.15,6.73,8.85,7.39,12.2" id="Ske2u5qxa51" kvg:type="㇔" transform="matrix(1,0,0,1,1396,-4)" xmlns:kvg="http://kanjivg.tagaini.net"></path><path class="stroke_order_diagram--existing_path" d="M43.75,54c1.23,0.27,3.5,0.27,4.73,0.27c11.77,0,33.73-2.54,45.7-2.53c2.06,0,3.29,0.13,4.32,0.26" id="Ske2u5qxa52" kvg:type="㇐" transform="matrix(1,0,0,1,1396,-4)" xmlns:kvg="http://kanjivg.tagaini.net"></path><path class="stroke_order_diagram--existing_path" d="M53.83,63.73c0.31,0.61,0.4,1.01,0.49,1.79c0.93,8.23,1.68,17.73,2.59,30.44" id="Ske2u5qxa53" kvg:type="㇑" transform="matrix(1,0,0,1,1396,-4)" xmlns:kvg="http://kanjivg.tagaini.net"></path><path class="stroke_order_diagram--existing_path" d="M55.02,64.75c7.18-1.34,20.98-2,28.94-2.7c2-0.18,2.98,1.04,2.88,2.51c-0.37,5.36-1.79,20.99-2.69,29.94" id="Ske2u5qxa54" kvg:type="㇕a" transform="matrix(1,0,0,1,1396,-4)" xmlns:kvg="http://kanjivg.tagaini.net"></path><path class="stroke_order_diagram--current_path" d="M57.72,78.99c2.16-0.38,24.43-2.07,26.22-2.22" id="kvg:07e09-s15" kvg:type="㇐a" transform="matrix(1,0,0,1,1396,-4)" xmlns:kvg="http://kanjivg.tagaini.net"></path><path class="stroke_order_diagram--current_path" d="M57.72,78.99c2.16-0.38,24.43-2.07,26.22-2.22" id="Ske2u5qxa56" kvg:type="㇐a" transform="matrix(1,0,0,1,1396,-4)" xmlns:kvg="http://kanjivg.tagaini.net"></path><circle class="stroke_order_diagram--path_start" cx="57.72" cy="78.99" r="4" transform="matrix(1,0,0,1,1396,-4)"></circle><line class="stroke_order_diagram--guide_line" x1="1550" x2="1550" y1="1" y2="99"></line><line class="stroke_order_diagram--bounding_box" x1="1599" x2="1599" y1="1" y2="99"></line><path class="stroke_order_diagram--existing_path" d="M24.03,12c0.32,1.38,0.34,2.4-0.16,3.91c-2.19,6.64-6.96,14.21-11.24,19.52c-0.59,0.73-0.64,3.19,0,3.45c3.38,1.38,7.57,2.7,10.47,5.23" id="Ske2u5qxa59" kvg:type="㇜" transform="matrix(1,0,0,1,1496,-4)" xmlns:kvg="http://kanjivg.tagaini.net"></path><path class="stroke_order_diagram--existing_path" d="M34.73,24.18c0.26,0.58,0.33,2.48,0,3.11c-5.13,9.8-14.18,22.33-21.23,30.65c-1.62,1.91,0.4,3,1.46,2.61c4.41-1.62,14.9-4.52,20.57-6.08" id="Ske2u5qxa5a" kvg:type="㇜" transform="matrix(1,0,0,1,1496,-4)" xmlns:kvg="http://kanjivg.tagaini.net"></path><path class="stroke_order_diagram--existing_path" d="M30.75,45.75C34.01,48.49,39.18,57,40,61.25" id="Ske2u5qxa5b" kvg:type="㇔" transform="matrix(1,0,0,1,1496,-4)" xmlns:kvg="http://kanjivg.tagaini.net"></path><path class="stroke_order_diagram--existing_path" d="M25.89,60.62c0.07,0.36,0.91,1.85,0.98,4.09c0.31,10.79-0.2,28.79-0.2,32.46" id="Ske2u5qxa5c" kvg:type="㇑" transform="matrix(1,0,0,1,1496,-4)" xmlns:kvg="http://kanjivg.tagaini.net"></path><path class="stroke_order_diagram--existing_path" d="M17.61,70.85c0.15,0.98,0.12,2.91-0.15,3.61c-1.77,4.57-6.2,13.38-8.71,17.3" id="Ske2u5qxa5d" kvg:type="㇒" transform="matrix(1,0,0,1,1496,-4)" xmlns:kvg="http://kanjivg.tagaini.net"></path><path class="stroke_order_diagram--existing_path" d="M34,68.25c3.96,4.19,7,13.93,7.92,17.72" id="Ske2u5qxa5e" kvg:type="㇔" transform="matrix(1,0,0,1,1496,-4)" xmlns:kvg="http://kanjivg.tagaini.net"></path><path class="stroke_order_diagram--existing_path" d="M44.29,17.83c1.31,0.21,3.72,0.26,5.04,0.21c7.77-0.3,28.38-2.05,39.07-2.45c2.18-0.08,3.51,0.1,4.6,0.21" id="Ske2u5qxa5f" kvg:type="㇐" transform="matrix(1,0,0,1,1496,-4)" xmlns:kvg="http://kanjivg.tagaini.net"></path><path class="stroke_order_diagram--existing_path" d="M53.96,23.98c0.24,0.38,0.39,0.88,0.24,1.38c-1.79,6.19-6.53,14.01-9.86,18.35c-1.06,1.38-1.06,1.68,0.49,1.38c3.25-0.64,12.2-2.45,17.08-3.13" id="Ske2u5qxa5g" kvg:type="㇜" transform="matrix(1,0,0,1,1496,-4)" xmlns:kvg="http://kanjivg.tagaini.net"></path><path class="stroke_order_diagram--existing_path" d="M59.75,34.5c2.12,2.07,5.47,8.52,6,11.75" id="Ske2u5qxa5h" kvg:type="㇔" transform="matrix(1,0,0,1,1496,-4)" xmlns:kvg="http://kanjivg.tagaini.net"></path><path class="stroke_order_diagram--existing_path" d="M80.66,21.5c0.22,0.4,0.34,0.91,0.22,1.43c-1.59,6.41-4.92,13.47-7.89,17.97c-0.94,1.43-0.94,1.74,0.43,1.43c2.89-0.67,13.87-3.03,18.21-3.75" id="Ske2u5qxa5i" kvg:type="㇜" transform="matrix(1,0,0,1,1496,-4)" xmlns:kvg="http://kanjivg.tagaini.net"></path><path class="stroke_order_diagram--existing_path" d="M86.61,32.05c2.61,2.15,6.73,8.85,7.39,12.2" id="Ske2u5qxa5j" kvg:type="㇔" transform="matrix(1,0,0,1,1496,-4)" xmlns:kvg="http://kanjivg.tagaini.net"></path><path class="stroke_order_diagram--existing_path" d="M43.75,54c1.23,0.27,3.5,0.27,4.73,0.27c11.77,0,33.73-2.54,45.7-2.53c2.06,0,3.29,0.13,4.32,0.26" id="Ske2u5qxa5k" kvg:type="㇐" transform="matrix(1,0,0,1,1496,-4)" xmlns:kvg="http://kanjivg.tagaini.net"></path><path class="stroke_order_diagram--existing_path" d="M53.83,63.73c0.31,0.61,0.4,1.01,0.49,1.79c0.93,8.23,1.68,17.73,2.59,30.44" id="Ske2u5qxa5l" kvg:type="㇑" transform="matrix(1,0,0,1,1496,-4)" xmlns:kvg="http://kanjivg.tagaini.net"></path><path class="stroke_order_diagram--existing_path" d="M55.02,64.75c7.18-1.34,20.98-2,28.94-2.7c2-0.18,2.98,1.04,2.88,2.51c-0.37,5.36-1.79,20.99-2.69,29.94" id="Ske2u5qxa5m" kvg:type="㇕a" transform="matrix(1,0,0,1,1496,-4)" xmlns:kvg="http://kanjivg.tagaini.net"></path><path class="stroke_order_diagram--existing_path" d="M57.72,78.99c2.16-0.38,24.43-2.07,26.22-2.22" id="Ske2u5qxa5n" kvg:type="㇐a" transform="matrix(1,0,0,1,1496,-4)" xmlns:kvg="http://kanjivg.tagaini.net"></path><path class="stroke_order_diagram--current_path" d="M57.66,93.52c4.92-0.3,18.93-0.75,25.72-1.25" id="kvg:07e09-s16" kvg:type="㇐a" transform="matrix(1,0,0,1,1496,-4)" xmlns:kvg="http://kanjivg.tagaini.net"></path><path class="stroke_order_diagram--current_path" d="M57.66,93.52c4.92-0.3,18.93-0.75,25.72-1.25" id="Ske2u5qxa5p" kvg:type="㇐a" transform="matrix(1,0,0,1,1496,-4)" xmlns:kvg="http://kanjivg.tagaini.net"></path><circle class="stroke_order_diagram--path_start" cx="57.66" cy="93.52" r="4" transform="matrix(1,0,0,1,1496,-4)"></circle></svg>