<svg class="stroke_order_diagram--svg_container_for_518662b6d5dda7965800138a" style="height: 100px; width: 1700px;" viewbox="0 0 1700 100"><desc>Created with Snap</desc><defs></defs><line class="stroke_order_diagram--bounding_box" x1="1" x2="1699" y1="1" y2="1"></line><line class="stroke_order_diagram--bounding_box" x1="1" x2="1" y1="1" y2="99"></line><line class="stroke_order_diagram--bounding_box" x1="1" x2="1699" y1="99" y2="99"></line><line class="stroke_order_diagram--guide_line" x1="0" x2="1700" y1="50" y2="50"></line><line class="stroke_order_diagram--guide_line" x1="50" x2="50" y1="1" y2="99"></line><line class="stroke_order_diagram--bounding_box" x1="99" x2="99" y1="1" y2="99"></line><path class="stroke_order_diagram--current_path" d="M26.65,12.67c0.36,1.42,0.38,2.47-0.18,4.01C24,23.5,19.5,29.25,14.68,34.69c-0.67,0.75-0.72,3.27,0,3.54c3.81,1.42,7.64,3.28,10.91,5.88" id="kvg:07e37-s1" kvg:type="㇜" transform="matrix(1,0,0,1,-4,-4)" xmlns:kvg="http://kanjivg.tagaini.net"></path><path class="stroke_order_diagram--current_path" d="M26.65,12.67c0.36,1.42,0.38,2.47-0.18,4.01C24,23.5,19.5,29.25,14.68,34.69c-0.67,0.75-0.72,3.27,0,3.54c3.81,1.42,7.64,3.28,10.91,5.88" id="Ske2u8fjvq" kvg:type="㇜" transform="matrix(1,0,0,1,-4,-4)" xmlns:kvg="http://kanjivg.tagaini.net"></path><circle class="stroke_order_diagram--path_start" cx="26.65" cy="12.67" r="4" transform="matrix(1,0,0,1,-4,-4)"></circle><line class="stroke_order_diagram--guide_line" x1="150" x2="150" y1="1" y2="99"></line><line class="stroke_order_diagram--bounding_box" x1="199" x2="199" y1="1" y2="99"></line><path class="stroke_order_diagram--existing_path" d="M26.65,12.67c0.36,1.42,0.38,2.47-0.18,4.01C24,23.5,19.5,29.25,14.68,34.69c-0.67,0.75-0.72,3.27,0,3.54c3.81,1.42,7.64,3.28,10.91,5.88" id="Ske2u8fjvt" kvg:type="㇜" transform="matrix(1,0,0,1,96,-4)" xmlns:kvg="http://kanjivg.tagaini.net"></path><path class="stroke_order_diagram--current_path" d="M36.7,26.68c0.27,0.53,0.34,2.27,0,2.85c-5.24,8.99-14.48,20.49-21.69,28.13c-1.65,1.75,0.41,2.75,1.49,2.4c4.51-1.49,14.72-3.65,20.52-5.08" id="kvg:07e37-s2" kvg:type="㇜" transform="matrix(1,0,0,1,96,-4)" xmlns:kvg="http://kanjivg.tagaini.net"></path><path class="stroke_order_diagram--current_path" d="M36.7,26.68c0.27,0.53,0.34,2.27,0,2.85c-5.24,8.99-14.48,20.49-21.69,28.13c-1.65,1.75,0.41,2.75,1.49,2.4c4.51-1.49,14.72-3.65,20.52-5.08" id="Ske2u8fjvv" kvg:type="㇜" transform="matrix(1,0,0,1,96,-4)" xmlns:kvg="http://kanjivg.tagaini.net"></path><circle class="stroke_order_diagram--path_start" cx="36.7" cy="26.68" r="4" transform="matrix(1,0,0,1,96,-4)"></circle><line class="stroke_order_diagram--guide_line" x1="250" x2="250" y1="1" y2="99"></line><line class="stroke_order_diagram--bounding_box" x1="299" x2="299" y1="1" y2="99"></line><path class="stroke_order_diagram--existing_path" d="M26.65,12.67c0.36,1.42,0.38,2.47-0.18,4.01C24,23.5,19.5,29.25,14.68,34.69c-0.67,0.75-0.72,3.27,0,3.54c3.81,1.42,7.64,3.28,10.91,5.88" id="Ske2u8fjvy" kvg:type="㇜" transform="matrix(1,0,0,1,196,-4)" xmlns:kvg="http://kanjivg.tagaini.net"></path><path class="stroke_order_diagram--existing_path" d="M36.7,26.68c0.27,0.53,0.34,2.27,0,2.85c-5.24,8.99-14.48,20.49-21.69,28.13c-1.65,1.75,0.41,2.75,1.49,2.4c4.51-1.49,14.72-3.65,20.52-5.08" id="Ske2u8fjvz" kvg:type="㇜" transform="matrix(1,0,0,1,196,-4)" xmlns:kvg="http://kanjivg.tagaini.net"></path><path class="stroke_order_diagram--current_path" d="M33.63,47.63c2.78,2.27,7.18,9.34,7.87,12.87" id="kvg:07e37-s3" kvg:type="㇔" transform="matrix(1,0,0,1,196,-4)" xmlns:kvg="http://kanjivg.tagaini.net"></path><path class="stroke_order_diagram--current_path" d="M33.63,47.63c2.78,2.27,7.18,9.34,7.87,12.87" id="Ske2u8fjv11" kvg:type="㇔" transform="matrix(1,0,0,1,196,-4)" xmlns:kvg="http://kanjivg.tagaini.net"></path><circle class="stroke_order_diagram--path_start" cx="33.63" cy="47.63" r="4" transform="matrix(1,0,0,1,196,-4)"></circle><line class="stroke_order_diagram--guide_line" x1="350" x2="350" y1="1" y2="99"></line><line class="stroke_order_diagram--bounding_box" x1="399" x2="399" y1="1" y2="99"></line><path class="stroke_order_diagram--existing_path" d="M26.65,12.67c0.36,1.42,0.38,2.47-0.18,4.01C24,23.5,19.5,29.25,14.68,34.69c-0.67,0.75-0.72,3.27,0,3.54c3.81,1.42,7.64,3.28,10.91,5.88" id="Ske2u8fjv14" kvg:type="㇜" transform="matrix(1,0,0,1,296,-4)" xmlns:kvg="http://kanjivg.tagaini.net"></path><path class="stroke_order_diagram--existing_path" d="M36.7,26.68c0.27,0.53,0.34,2.27,0,2.85c-5.24,8.99-14.48,20.49-21.69,28.13c-1.65,1.75,0.41,2.75,1.49,2.4c4.51-1.49,14.72-3.65,20.52-5.08" id="Ske2u8fjv15" kvg:type="㇜" transform="matrix(1,0,0,1,296,-4)" xmlns:kvg="http://kanjivg.tagaini.net"></path><path class="stroke_order_diagram--existing_path" d="M33.63,47.63c2.78,2.27,7.18,9.34,7.87,12.87" id="Ske2u8fjv16" kvg:type="㇔" transform="matrix(1,0,0,1,296,-4)" xmlns:kvg="http://kanjivg.tagaini.net"></path><path class="stroke_order_diagram--current_path" d="M26.86,60.12c0.07,0.38,0.97,1.96,1.04,4.34c0.33,11.46-0.21,30.56-0.21,34.46" id="kvg:07e37-s4" kvg:type="㇑" transform="matrix(1,0,0,1,296,-4)" xmlns:kvg="http://kanjivg.tagaini.net"></path><path class="stroke_order_diagram--current_path" d="M26.86,60.12c0.07,0.38,0.97,1.96,1.04,4.34c0.33,11.46-0.21,30.56-0.21,34.46" id="Ske2u8fjv18" kvg:type="㇑" transform="matrix(1,0,0,1,296,-4)" xmlns:kvg="http://kanjivg.tagaini.net"></path><circle class="stroke_order_diagram--path_start" cx="26.86" cy="60.12" r="4" transform="matrix(1,0,0,1,296,-4)"></circle><line class="stroke_order_diagram--guide_line" x1="450" x2="450" y1="1" y2="99"></line><line class="stroke_order_diagram--bounding_box" x1="499" x2="499" y1="1" y2="99"></line><path class="stroke_order_diagram--existing_path" d="M26.65,12.67c0.36,1.42,0.38,2.47-0.18,4.01C24,23.5,19.5,29.25,14.68,34.69c-0.67,0.75-0.72,3.27,0,3.54c3.81,1.42,7.64,3.28,10.91,5.88" id="Ske2u8fjv1b" kvg:type="㇜" transform="matrix(1,0,0,1,396,-4)" xmlns:kvg="http://kanjivg.tagaini.net"></path><path class="stroke_order_diagram--existing_path" d="M36.7,26.68c0.27,0.53,0.34,2.27,0,2.85c-5.24,8.99-14.48,20.49-21.69,28.13c-1.65,1.75,0.41,2.75,1.49,2.4c4.51-1.49,14.72-3.65,20.52-5.08" id="Ske2u8fjv1c" kvg:type="㇜" transform="matrix(1,0,0,1,396,-4)" xmlns:kvg="http://kanjivg.tagaini.net"></path><path class="stroke_order_diagram--existing_path" d="M33.63,47.63c2.78,2.27,7.18,9.34,7.87,12.87" id="Ske2u8fjv1d" kvg:type="㇔" transform="matrix(1,0,0,1,396,-4)" xmlns:kvg="http://kanjivg.tagaini.net"></path><path class="stroke_order_diagram--existing_path" d="M26.86,60.12c0.07,0.38,0.97,1.96,1.04,4.34c0.33,11.46-0.21,30.56-0.21,34.46" id="Ske2u8fjv1e" kvg:type="㇑" transform="matrix(1,0,0,1,396,-4)" xmlns:kvg="http://kanjivg.tagaini.net"></path><path class="stroke_order_diagram--current_path" d="M18.36,70.35c0.14,0.99,0.12,2.94-0.14,3.65c-1.72,4.62-6.03,13.54-8.47,17.5" id="kvg:07e37-s5" kvg:type="㇒" transform="matrix(1,0,0,1,396,-4)" xmlns:kvg="http://kanjivg.tagaini.net"></path><path class="stroke_order_diagram--current_path" d="M18.36,70.35c0.14,0.99,0.12,2.94-0.14,3.65c-1.72,4.62-6.03,13.54-8.47,17.5" id="Ske2u8fjv1g" kvg:type="㇒" transform="matrix(1,0,0,1,396,-4)" xmlns:kvg="http://kanjivg.tagaini.net"></path><circle class="stroke_order_diagram--path_start" cx="18.36" cy="70.35" r="4" transform="matrix(1,0,0,1,396,-4)"></circle><line class="stroke_order_diagram--guide_line" x1="550" x2="550" y1="1" y2="99"></line><line class="stroke_order_diagram--bounding_box" x1="599" x2="599" y1="1" y2="99"></line><path class="stroke_order_diagram--existing_path" d="M26.65,12.67c0.36,1.42,0.38,2.47-0.18,4.01C24,23.5,19.5,29.25,14.68,34.69c-0.67,0.75-0.72,3.27,0,3.54c3.81,1.42,7.64,3.28,10.91,5.88" id="Ske2u8fjv1j" kvg:type="㇜" transform="matrix(1,0,0,1,496,-4)" xmlns:kvg="http://kanjivg.tagaini.net"></path><path class="stroke_order_diagram--existing_path" d="M36.7,26.68c0.27,0.53,0.34,2.27,0,2.85c-5.24,8.99-14.48,20.49-21.69,28.13c-1.65,1.75,0.41,2.75,1.49,2.4c4.51-1.49,14.72-3.65,20.52-5.08" id="Ske2u8fjv1k" kvg:type="㇜" transform="matrix(1,0,0,1,496,-4)" xmlns:kvg="http://kanjivg.tagaini.net"></path><path class="stroke_order_diagram--existing_path" d="M33.63,47.63c2.78,2.27,7.18,9.34,7.87,12.87" id="Ske2u8fjv1l" kvg:type="㇔" transform="matrix(1,0,0,1,496,-4)" xmlns:kvg="http://kanjivg.tagaini.net"></path><path class="stroke_order_diagram--existing_path" d="M26.86,60.12c0.07,0.38,0.97,1.96,1.04,4.34c0.33,11.46-0.21,30.56-0.21,34.46" id="Ske2u8fjv1m" kvg:type="㇑" transform="matrix(1,0,0,1,496,-4)" xmlns:kvg="http://kanjivg.tagaini.net"></path><path class="stroke_order_diagram--existing_path" d="M18.36,70.35c0.14,0.99,0.12,2.94-0.14,3.65c-1.72,4.62-6.03,13.54-8.47,17.5" id="Ske2u8fjv1n" kvg:type="㇒" transform="matrix(1,0,0,1,496,-4)" xmlns:kvg="http://kanjivg.tagaini.net"></path><path class="stroke_order_diagram--current_path" d="M35,69c3.25,3.49,5.74,11.59,6.5,14.75" id="kvg:07e37-s6" kvg:type="㇔" transform="matrix(1,0,0,1,496,-4)" xmlns:kvg="http://kanjivg.tagaini.net"></path><path class="stroke_order_diagram--current_path" d="M35,69c3.25,3.49,5.74,11.59,6.5,14.75" id="Ske2u8fjv1p" kvg:type="㇔" transform="matrix(1,0,0,1,496,-4)" xmlns:kvg="http://kanjivg.tagaini.net"></path><circle class="stroke_order_diagram--path_start" cx="35" cy="69" r="4" transform="matrix(1,0,0,1,496,-4)"></circle><line class="stroke_order_diagram--guide_line" x1="650" x2="650" y1="1" y2="99"></line><line class="stroke_order_diagram--bounding_box" x1="699" x2="699" y1="1" y2="99"></line><path class="stroke_order_diagram--existing_path" d="M26.65,12.67c0.36,1.42,0.38,2.47-0.18,4.01C24,23.5,19.5,29.25,14.68,34.69c-0.67,0.75-0.72,3.27,0,3.54c3.81,1.42,7.64,3.28,10.91,5.88" id="Ske2u8fjv1s" kvg:type="㇜" transform="matrix(1,0,0,1,596,-4)" xmlns:kvg="http://kanjivg.tagaini.net"></path><path class="stroke_order_diagram--existing_path" d="M36.7,26.68c0.27,0.53,0.34,2.27,0,2.85c-5.24,8.99-14.48,20.49-21.69,28.13c-1.65,1.75,0.41,2.75,1.49,2.4c4.51-1.49,14.72-3.65,20.52-5.08" id="Ske2u8fjv1t" kvg:type="㇜" transform="matrix(1,0,0,1,596,-4)" xmlns:kvg="http://kanjivg.tagaini.net"></path><path class="stroke_order_diagram--existing_path" d="M33.63,47.63c2.78,2.27,7.18,9.34,7.87,12.87" id="Ske2u8fjv1u" kvg:type="㇔" transform="matrix(1,0,0,1,596,-4)" xmlns:kvg="http://kanjivg.tagaini.net"></path><path class="stroke_order_diagram--existing_path" d="M26.86,60.12c0.07,0.38,0.97,1.96,1.04,4.34c0.33,11.46-0.21,30.56-0.21,34.46" id="Ske2u8fjv1v" kvg:type="㇑" transform="matrix(1,0,0,1,596,-4)" xmlns:kvg="http://kanjivg.tagaini.net"></path><path class="stroke_order_diagram--existing_path" d="M18.36,70.35c0.14,0.99,0.12,2.94-0.14,3.65c-1.72,4.62-6.03,13.54-8.47,17.5" id="Ske2u8fjv1w" kvg:type="㇒" transform="matrix(1,0,0,1,596,-4)" xmlns:kvg="http://kanjivg.tagaini.net"></path><path class="stroke_order_diagram--existing_path" d="M35,69c3.25,3.49,5.74,11.59,6.5,14.75" id="Ske2u8fjv1x" kvg:type="㇔" transform="matrix(1,0,0,1,596,-4)" xmlns:kvg="http://kanjivg.tagaini.net"></path><path class="stroke_order_diagram--current_path" d="M49.03,19.23c0.56,0.25,1.6,1.33,1.79,2.27c1.24,6.13,1.84,13.43,2.92,17.47" id="kvg:07e37-s7" kvg:type="㇑" transform="matrix(1,0,0,1,596,-4)" xmlns:kvg="http://kanjivg.tagaini.net"></path><path class="stroke_order_diagram--current_path" d="M49.03,19.23c0.56,0.25,1.6,1.33,1.79,2.27c1.24,6.13,1.84,13.43,2.92,17.47" id="Ske2u8fjv1z" kvg:type="㇑" transform="matrix(1,0,0,1,596,-4)" xmlns:kvg="http://kanjivg.tagaini.net"></path><circle class="stroke_order_diagram--path_start" cx="49.03" cy="19.23" r="4" transform="matrix(1,0,0,1,596,-4)"></circle><line class="stroke_order_diagram--guide_line" x1="750" x2="750" y1="1" y2="99"></line><line class="stroke_order_diagram--bounding_box" x1="799" x2="799" y1="1" y2="99"></line><path class="stroke_order_diagram--existing_path" d="M26.65,12.67c0.36,1.42,0.38,2.47-0.18,4.01C24,23.5,19.5,29.25,14.68,34.69c-0.67,0.75-0.72,3.27,0,3.54c3.81,1.42,7.64,3.28,10.91,5.88" id="Ske2u8fjv22" kvg:type="㇜" transform="matrix(1,0,0,1,696,-4)" xmlns:kvg="http://kanjivg.tagaini.net"></path><path class="stroke_order_diagram--existing_path" d="M36.7,26.68c0.27,0.53,0.34,2.27,0,2.85c-5.24,8.99-14.48,20.49-21.69,28.13c-1.65,1.75,0.41,2.75,1.49,2.4c4.51-1.49,14.72-3.65,20.52-5.08" id="Ske2u8fjv23" kvg:type="㇜" transform="matrix(1,0,0,1,696,-4)" xmlns:kvg="http://kanjivg.tagaini.net"></path><path class="stroke_order_diagram--existing_path" d="M33.63,47.63c2.78,2.27,7.18,9.34,7.87,12.87" id="Ske2u8fjv24" kvg:type="㇔" transform="matrix(1,0,0,1,696,-4)" xmlns:kvg="http://kanjivg.tagaini.net"></path><path class="stroke_order_diagram--existing_path" d="M26.86,60.12c0.07,0.38,0.97,1.96,1.04,4.34c0.33,11.46-0.21,30.56-0.21,34.46" id="Ske2u8fjv25" kvg:type="㇑" transform="matrix(1,0,0,1,696,-4)" xmlns:kvg="http://kanjivg.tagaini.net"></path><path class="stroke_order_diagram--existing_path" d="M18.36,70.35c0.14,0.99,0.12,2.94-0.14,3.65c-1.72,4.62-6.03,13.54-8.47,17.5" id="Ske2u8fjv26" kvg:type="㇒" transform="matrix(1,0,0,1,696,-4)" xmlns:kvg="http://kanjivg.tagaini.net"></path><path class="stroke_order_diagram--existing_path" d="M35,69c3.25,3.49,5.74,11.59,6.5,14.75" id="Ske2u8fjv27" kvg:type="㇔" transform="matrix(1,0,0,1,696,-4)" xmlns:kvg="http://kanjivg.tagaini.net"></path><path class="stroke_order_diagram--existing_path" d="M49.03,19.23c0.56,0.25,1.6,1.33,1.79,2.27c1.24,6.13,1.84,13.43,2.92,17.47" id="Ske2u8fjv28" kvg:type="㇑" transform="matrix(1,0,0,1,696,-4)" xmlns:kvg="http://kanjivg.tagaini.net"></path><path class="stroke_order_diagram--current_path" d="M50.13,20.34c10.34-1,24.74-1.64,32.91-2.51c2.61-0.28,4.1,1.44,3.77,3.35C85.47,28.8,84.52,32.77,83.77,37" id="kvg:07e37-s8" kvg:type="㇕" transform="matrix(1,0,0,1,696,-4)" xmlns:kvg="http://kanjivg.tagaini.net"></path><path class="stroke_order_diagram--current_path" d="M50.13,20.34c10.34-1,24.74-1.64,32.91-2.51c2.61-0.28,4.1,1.44,3.77,3.35C85.47,28.8,84.52,32.77,83.77,37" id="Ske2u8fjv2a" kvg:type="㇕" transform="matrix(1,0,0,1,696,-4)" xmlns:kvg="http://kanjivg.tagaini.net"></path><circle class="stroke_order_diagram--path_start" cx="50.13" cy="20.34" r="4" transform="matrix(1,0,0,1,696,-4)"></circle><line class="stroke_order_diagram--guide_line" x1="850" x2="850" y1="1" y2="99"></line><line class="stroke_order_diagram--bounding_box" x1="899" x2="899" y1="1" y2="99"></line><path class="stroke_order_diagram--existing_path" d="M26.65,12.67c0.36,1.42,0.38,2.47-0.18,4.01C24,23.5,19.5,29.25,14.68,34.69c-0.67,0.75-0.72,3.27,0,3.54c3.81,1.42,7.64,3.28,10.91,5.88" id="Ske2u8fjv2d" kvg:type="㇜" transform="matrix(1,0,0,1,796,-4)" xmlns:kvg="http://kanjivg.tagaini.net"></path><path class="stroke_order_diagram--existing_path" d="M36.7,26.68c0.27,0.53,0.34,2.27,0,2.85c-5.24,8.99-14.48,20.49-21.69,28.13c-1.65,1.75,0.41,2.75,1.49,2.4c4.51-1.49,14.72-3.65,20.52-5.08" id="Ske2u8fjv2e" kvg:type="㇜" transform="matrix(1,0,0,1,796,-4)" xmlns:kvg="http://kanjivg.tagaini.net"></path><path class="stroke_order_diagram--existing_path" d="M33.63,47.63c2.78,2.27,7.18,9.34,7.87,12.87" id="Ske2u8fjv2f" kvg:type="㇔" transform="matrix(1,0,0,1,796,-4)" xmlns:kvg="http://kanjivg.tagaini.net"></path><path class="stroke_order_diagram--existing_path" d="M26.86,60.12c0.07,0.38,0.97,1.96,1.04,4.34c0.33,11.46-0.21,30.56-0.21,34.46" id="Ske2u8fjv2g" kvg:type="㇑" transform="matrix(1,0,0,1,796,-4)" xmlns:kvg="http://kanjivg.tagaini.net"></path><path class="stroke_order_diagram--existing_path" d="M18.36,70.35c0.14,0.99,0.12,2.94-0.14,3.65c-1.72,4.62-6.03,13.54-8.47,17.5" id="Ske2u8fjv2h" kvg:type="㇒" transform="matrix(1,0,0,1,796,-4)" xmlns:kvg="http://kanjivg.tagaini.net"></path><path class="stroke_order_diagram--existing_path" d="M35,69c3.25,3.49,5.74,11.59,6.5,14.75" id="Ske2u8fjv2i" kvg:type="㇔" transform="matrix(1,0,0,1,796,-4)" xmlns:kvg="http://kanjivg.tagaini.net"></path><path class="stroke_order_diagram--existing_path" d="M49.03,19.23c0.56,0.25,1.6,1.33,1.79,2.27c1.24,6.13,1.84,13.43,2.92,17.47" id="Ske2u8fjv2j" kvg:type="㇑" transform="matrix(1,0,0,1,796,-4)" xmlns:kvg="http://kanjivg.tagaini.net"></path><path class="stroke_order_diagram--existing_path" d="M50.13,20.34c10.34-1,24.74-1.64,32.91-2.51c2.61-0.28,4.1,1.44,3.77,3.35C85.47,28.8,84.52,32.77,83.77,37" id="Ske2u8fjv2k" kvg:type="㇕" transform="matrix(1,0,0,1,796,-4)" xmlns:kvg="http://kanjivg.tagaini.net"></path><path class="stroke_order_diagram--current_path" d="M42.3,29.55c1.26,0.43,3.58,0.52,4.84,0.43c11.11-0.73,31.61-2.98,45.06-3.98c1.81-0.13,3.57,0.64,4.92,0.92" id="kvg:07e37-s9" kvg:type="㇐" transform="matrix(1,0,0,1,796,-4)" xmlns:kvg="http://kanjivg.tagaini.net"></path><path class="stroke_order_diagram--current_path" d="M42.3,29.55c1.26,0.43,3.58,0.52,4.84,0.43c11.11-0.73,31.61-2.98,45.06-3.98c1.81-0.13,3.57,0.64,4.92,0.92" id="Ske2u8fjv2m" kvg:type="㇐" transform="matrix(1,0,0,1,796,-4)" xmlns:kvg="http://kanjivg.tagaini.net"></path><circle class="stroke_order_diagram--path_start" cx="42.3" cy="29.55" r="4" transform="matrix(1,0,0,1,796,-4)"></circle><line class="stroke_order_diagram--guide_line" x1="950" x2="950" y1="1" y2="99"></line><line class="stroke_order_diagram--bounding_box" x1="999" x2="999" y1="1" y2="99"></line><path class="stroke_order_diagram--existing_path" d="M26.65,12.67c0.36,1.42,0.38,2.47-0.18,4.01C24,23.5,19.5,29.25,14.68,34.69c-0.67,0.75-0.72,3.27,0,3.54c3.81,1.42,7.64,3.28,10.91,5.88" id="Ske2u8fjv2p" kvg:type="㇜" transform="matrix(1,0,0,1,896,-4)" xmlns:kvg="http://kanjivg.tagaini.net"></path><path class="stroke_order_diagram--existing_path" d="M36.7,26.68c0.27,0.53,0.34,2.27,0,2.85c-5.24,8.99-14.48,20.49-21.69,28.13c-1.65,1.75,0.41,2.75,1.49,2.4c4.51-1.49,14.72-3.65,20.52-5.08" id="Ske2u8fjv2q" kvg:type="㇜" transform="matrix(1,0,0,1,896,-4)" xmlns:kvg="http://kanjivg.tagaini.net"></path><path class="stroke_order_diagram--existing_path" d="M33.63,47.63c2.78,2.27,7.18,9.34,7.87,12.87" id="Ske2u8fjv2r" kvg:type="㇔" transform="matrix(1,0,0,1,896,-4)" xmlns:kvg="http://kanjivg.tagaini.net"></path><path class="stroke_order_diagram--existing_path" d="M26.86,60.12c0.07,0.38,0.97,1.96,1.04,4.34c0.33,11.46-0.21,30.56-0.21,34.46" id="Ske2u8fjv2s" kvg:type="㇑" transform="matrix(1,0,0,1,896,-4)" xmlns:kvg="http://kanjivg.tagaini.net"></path><path class="stroke_order_diagram--existing_path" d="M18.36,70.35c0.14,0.99,0.12,2.94-0.14,3.65c-1.72,4.62-6.03,13.54-8.47,17.5" id="Ske2u8fjv2t" kvg:type="㇒" transform="matrix(1,0,0,1,896,-4)" xmlns:kvg="http://kanjivg.tagaini.net"></path><path class="stroke_order_diagram--existing_path" d="M35,69c3.25,3.49,5.74,11.59,6.5,14.75" id="Ske2u8fjv2u" kvg:type="㇔" transform="matrix(1,0,0,1,896,-4)" xmlns:kvg="http://kanjivg.tagaini.net"></path><path class="stroke_order_diagram--existing_path" d="M49.03,19.23c0.56,0.25,1.6,1.33,1.79,2.27c1.24,6.13,1.84,13.43,2.92,17.47" id="Ske2u8fjv2v" kvg:type="㇑" transform="matrix(1,0,0,1,896,-4)" xmlns:kvg="http://kanjivg.tagaini.net"></path><path class="stroke_order_diagram--existing_path" d="M50.13,20.34c10.34-1,24.74-1.64,32.91-2.51c2.61-0.28,4.1,1.44,3.77,3.35C85.47,28.8,84.52,32.77,83.77,37" id="Ske2u8fjv2w" kvg:type="㇕" transform="matrix(1,0,0,1,896,-4)" xmlns:kvg="http://kanjivg.tagaini.net"></path><path class="stroke_order_diagram--existing_path" d="M42.3,29.55c1.26,0.43,3.58,0.52,4.84,0.43c11.11-0.73,31.61-2.98,45.06-3.98c1.81-0.13,3.57,0.64,4.92,0.92" id="Ske2u8fjv2x" kvg:type="㇐" transform="matrix(1,0,0,1,896,-4)" xmlns:kvg="http://kanjivg.tagaini.net"></path><path class="stroke_order_diagram--current_path" d="M53.7,37.74c2.56-0.17,26.52-2.06,29.81-2.23" id="kvg:07e37-s10" kvg:type="㇐" transform="matrix(1,0,0,1,896,-4)" xmlns:kvg="http://kanjivg.tagaini.net"></path><path class="stroke_order_diagram--current_path" d="M53.7,37.74c2.56-0.17,26.52-2.06,29.81-2.23" id="Ske2u8fjv2z" kvg:type="㇐" transform="matrix(1,0,0,1,896,-4)" xmlns:kvg="http://kanjivg.tagaini.net"></path><circle class="stroke_order_diagram--path_start" cx="53.7" cy="37.74" r="4" transform="matrix(1,0,0,1,896,-4)"></circle><line class="stroke_order_diagram--guide_line" x1="1050" x2="1050" y1="1" y2="99"></line><line class="stroke_order_diagram--bounding_box" x1="1099" x2="1099" y1="1" y2="99"></line><path class="stroke_order_diagram--existing_path" d="M26.65,12.67c0.36,1.42,0.38,2.47-0.18,4.01C24,23.5,19.5,29.25,14.68,34.69c-0.67,0.75-0.72,3.27,0,3.54c3.81,1.42,7.64,3.28,10.91,5.88" id="Ske2u8fjv32" kvg:type="㇜" transform="matrix(1,0,0,1,996,-4)" xmlns:kvg="http://kanjivg.tagaini.net"></path><path class="stroke_order_diagram--existing_path" d="M36.7,26.68c0.27,0.53,0.34,2.27,0,2.85c-5.24,8.99-14.48,20.49-21.69,28.13c-1.65,1.75,0.41,2.75,1.49,2.4c4.51-1.49,14.72-3.65,20.52-5.08" id="Ske2u8fjv33" kvg:type="㇜" transform="matrix(1,0,0,1,996,-4)" xmlns:kvg="http://kanjivg.tagaini.net"></path><path class="stroke_order_diagram--existing_path" d="M33.63,47.63c2.78,2.27,7.18,9.34,7.87,12.87" id="Ske2u8fjv34" kvg:type="㇔" transform="matrix(1,0,0,1,996,-4)" xmlns:kvg="http://kanjivg.tagaini.net"></path><path class="stroke_order_diagram--existing_path" d="M26.86,60.12c0.07,0.38,0.97,1.96,1.04,4.34c0.33,11.46-0.21,30.56-0.21,34.46" id="Ske2u8fjv35" kvg:type="㇑" transform="matrix(1,0,0,1,996,-4)" xmlns:kvg="http://kanjivg.tagaini.net"></path><path class="stroke_order_diagram--existing_path" d="M18.36,70.35c0.14,0.99,0.12,2.94-0.14,3.65c-1.72,4.62-6.03,13.54-8.47,17.5" id="Ske2u8fjv36" kvg:type="㇒" transform="matrix(1,0,0,1,996,-4)" xmlns:kvg="http://kanjivg.tagaini.net"></path><path class="stroke_order_diagram--existing_path" d="M35,69c3.25,3.49,5.74,11.59,6.5,14.75" id="Ske2u8fjv37" kvg:type="㇔" transform="matrix(1,0,0,1,996,-4)" xmlns:kvg="http://kanjivg.tagaini.net"></path><path class="stroke_order_diagram--existing_path" d="M49.03,19.23c0.56,0.25,1.6,1.33,1.79,2.27c1.24,6.13,1.84,13.43,2.92,17.47" id="Ske2u8fjv38" kvg:type="㇑" transform="matrix(1,0,0,1,996,-4)" xmlns:kvg="http://kanjivg.tagaini.net"></path><path class="stroke_order_diagram--existing_path" d="M50.13,20.34c10.34-1,24.74-1.64,32.91-2.51c2.61-0.28,4.1,1.44,3.77,3.35C85.47,28.8,84.52,32.77,83.77,37" id="Ske2u8fjv39" kvg:type="㇕" transform="matrix(1,0,0,1,996,-4)" xmlns:kvg="http://kanjivg.tagaini.net"></path><path class="stroke_order_diagram--existing_path" d="M42.3,29.55c1.26,0.43,3.58,0.52,4.84,0.43c11.11-0.73,31.61-2.98,45.06-3.98c1.81-0.13,3.57,0.64,4.92,0.92" id="Ske2u8fjv3a" kvg:type="㇐" transform="matrix(1,0,0,1,996,-4)" xmlns:kvg="http://kanjivg.tagaini.net"></path><path class="stroke_order_diagram--existing_path" d="M53.7,37.74c2.56-0.17,26.52-2.06,29.81-2.23" id="Ske2u8fjv3b" kvg:type="㇐" transform="matrix(1,0,0,1,996,-4)" xmlns:kvg="http://kanjivg.tagaini.net"></path><path class="stroke_order_diagram--current_path" d="M50.51,45.98c0.45,0.44,1.23,1.02,1.45,1.98c0.78,3.54,1.94,7.03,2.76,10.3" id="kvg:07e37-s11" kvg:type="㇑" transform="matrix(1,0,0,1,996,-4)" xmlns:kvg="http://kanjivg.tagaini.net"></path><path class="stroke_order_diagram--current_path" d="M50.51,45.98c0.45,0.44,1.23,1.02,1.45,1.98c0.78,3.54,1.94,7.03,2.76,10.3" id="Ske2u8fjv3d" kvg:type="㇑" transform="matrix(1,0,0,1,996,-4)" xmlns:kvg="http://kanjivg.tagaini.net"></path><circle class="stroke_order_diagram--path_start" cx="50.51" cy="45.98" r="4" transform="matrix(1,0,0,1,996,-4)"></circle><line class="stroke_order_diagram--guide_line" x1="1150" x2="1150" y1="1" y2="99"></line><line class="stroke_order_diagram--bounding_box" x1="1199" x2="1199" y1="1" y2="99"></line><path class="stroke_order_diagram--existing_path" d="M26.65,12.67c0.36,1.42,0.38,2.47-0.18,4.01C24,23.5,19.5,29.25,14.68,34.69c-0.67,0.75-0.72,3.27,0,3.54c3.81,1.42,7.64,3.28,10.91,5.88" id="Ske2u8fjv3g" kvg:type="㇜" transform="matrix(1,0,0,1,1096,-4)" xmlns:kvg="http://kanjivg.tagaini.net"></path><path class="stroke_order_diagram--existing_path" d="M36.7,26.68c0.27,0.53,0.34,2.27,0,2.85c-5.24,8.99-14.48,20.49-21.69,28.13c-1.65,1.75,0.41,2.75,1.49,2.4c4.51-1.49,14.72-3.65,20.52-5.08" id="Ske2u8fjv3h" kvg:type="㇜" transform="matrix(1,0,0,1,1096,-4)" xmlns:kvg="http://kanjivg.tagaini.net"></path><path class="stroke_order_diagram--existing_path" d="M33.63,47.63c2.78,2.27,7.18,9.34,7.87,12.87" id="Ske2u8fjv3i" kvg:type="㇔" transform="matrix(1,0,0,1,1096,-4)" xmlns:kvg="http://kanjivg.tagaini.net"></path><path class="stroke_order_diagram--existing_path" d="M26.86,60.12c0.07,0.38,0.97,1.96,1.04,4.34c0.33,11.46-0.21,30.56-0.21,34.46" id="Ske2u8fjv3j" kvg:type="㇑" transform="matrix(1,0,0,1,1096,-4)" xmlns:kvg="http://kanjivg.tagaini.net"></path><path class="stroke_order_diagram--existing_path" d="M18.36,70.35c0.14,0.99,0.12,2.94-0.14,3.65c-1.72,4.62-6.03,13.54-8.47,17.5" id="Ske2u8fjv3k" kvg:type="㇒" transform="matrix(1,0,0,1,1096,-4)" xmlns:kvg="http://kanjivg.tagaini.net"></path><path class="stroke_order_diagram--existing_path" d="M35,69c3.25,3.49,5.74,11.59,6.5,14.75" id="Ske2u8fjv3l" kvg:type="㇔" transform="matrix(1,0,0,1,1096,-4)" xmlns:kvg="http://kanjivg.tagaini.net"></path><path class="stroke_order_diagram--existing_path" d="M49.03,19.23c0.56,0.25,1.6,1.33,1.79,2.27c1.24,6.13,1.84,13.43,2.92,17.47" id="Ske2u8fjv3m" kvg:type="㇑" transform="matrix(1,0,0,1,1096,-4)" xmlns:kvg="http://kanjivg.tagaini.net"></path><path class="stroke_order_diagram--existing_path" d="M50.13,20.34c10.34-1,24.74-1.64,32.91-2.51c2.61-0.28,4.1,1.44,3.77,3.35C85.47,28.8,84.52,32.77,83.77,37" id="Ske2u8fjv3n" kvg:type="㇕" transform="matrix(1,0,0,1,1096,-4)" xmlns:kvg="http://kanjivg.tagaini.net"></path><path class="stroke_order_diagram--existing_path" d="M42.3,29.55c1.26,0.43,3.58,0.52,4.84,0.43c11.11-0.73,31.61-2.98,45.06-3.98c1.81-0.13,3.57,0.64,4.92,0.92" id="Ske2u8fjv3o" kvg:type="㇐" transform="matrix(1,0,0,1,1096,-4)" xmlns:kvg="http://kanjivg.tagaini.net"></path><path class="stroke_order_diagram--existing_path" d="M53.7,37.74c2.56-0.17,26.52-2.06,29.81-2.23" id="Ske2u8fjv3p" kvg:type="㇐" transform="matrix(1,0,0,1,1096,-4)" xmlns:kvg="http://kanjivg.tagaini.net"></path><path class="stroke_order_diagram--existing_path" d="M50.51,45.98c0.45,0.44,1.23,1.02,1.45,1.98c0.78,3.54,1.94,7.03,2.76,10.3" id="Ske2u8fjv3q" kvg:type="㇑" transform="matrix(1,0,0,1,1096,-4)" xmlns:kvg="http://kanjivg.tagaini.net"></path><path class="stroke_order_diagram--current_path" d="M51.45,47.07c9.8-0.92,23.46-2.44,31.21-3.24c2.47-0.25,3.9,1.33,3.57,3.1C85.85,49,85,52.25,83.99,56" id="kvg:07e37-s12" kvg:type="㇕b" transform="matrix(1,0,0,1,1096,-4)" xmlns:kvg="http://kanjivg.tagaini.net"></path><path class="stroke_order_diagram--current_path" d="M51.45,47.07c9.8-0.92,23.46-2.44,31.21-3.24c2.47-0.25,3.9,1.33,3.57,3.1C85.85,49,85,52.25,83.99,56" id="Ske2u8fjv3s" kvg:type="㇕b" transform="matrix(1,0,0,1,1096,-4)" xmlns:kvg="http://kanjivg.tagaini.net"></path><circle class="stroke_order_diagram--path_start" cx="51.45" cy="47.07" r="4" transform="matrix(1,0,0,1,1096,-4)"></circle><line class="stroke_order_diagram--guide_line" x1="1250" x2="1250" y1="1" y2="99"></line><line class="stroke_order_diagram--bounding_box" x1="1299" x2="1299" y1="1" y2="99"></line><path class="stroke_order_diagram--existing_path" d="M26.65,12.67c0.36,1.42,0.38,2.47-0.18,4.01C24,23.5,19.5,29.25,14.68,34.69c-0.67,0.75-0.72,3.27,0,3.54c3.81,1.42,7.64,3.28,10.91,5.88" id="Ske2u8fjv3v" kvg:type="㇜" transform="matrix(1,0,0,1,1196,-4)" xmlns:kvg="http://kanjivg.tagaini.net"></path><path class="stroke_order_diagram--existing_path" d="M36.7,26.68c0.27,0.53,0.34,2.27,0,2.85c-5.24,8.99-14.48,20.49-21.69,28.13c-1.65,1.75,0.41,2.75,1.49,2.4c4.51-1.49,14.72-3.65,20.52-5.08" id="Ske2u8fjv3w" kvg:type="㇜" transform="matrix(1,0,0,1,1196,-4)" xmlns:kvg="http://kanjivg.tagaini.net"></path><path class="stroke_order_diagram--existing_path" d="M33.63,47.63c2.78,2.27,7.18,9.34,7.87,12.87" id="Ske2u8fjv3x" kvg:type="㇔" transform="matrix(1,0,0,1,1196,-4)" xmlns:kvg="http://kanjivg.tagaini.net"></path><path class="stroke_order_diagram--existing_path" d="M26.86,60.12c0.07,0.38,0.97,1.96,1.04,4.34c0.33,11.46-0.21,30.56-0.21,34.46" id="Ske2u8fjv3y" kvg:type="㇑" transform="matrix(1,0,0,1,1196,-4)" xmlns:kvg="http://kanjivg.tagaini.net"></path><path class="stroke_order_diagram--existing_path" d="M18.36,70.35c0.14,0.99,0.12,2.94-0.14,3.65c-1.72,4.62-6.03,13.54-8.47,17.5" id="Ske2u8fjv3z" kvg:type="㇒" transform="matrix(1,0,0,1,1196,-4)" xmlns:kvg="http://kanjivg.tagaini.net"></path><path class="stroke_order_diagram--existing_path" d="M35,69c3.25,3.49,5.74,11.59,6.5,14.75" id="Ske2u8fjv40" kvg:type="㇔" transform="matrix(1,0,0,1,1196,-4)" xmlns:kvg="http://kanjivg.tagaini.net"></path><path class="stroke_order_diagram--existing_path" d="M49.03,19.23c0.56,0.25,1.6,1.33,1.79,2.27c1.24,6.13,1.84,13.43,2.92,17.47" id="Ske2u8fjv41" kvg:type="㇑" transform="matrix(1,0,0,1,1196,-4)" xmlns:kvg="http://kanjivg.tagaini.net"></path><path class="stroke_order_diagram--existing_path" d="M50.13,20.34c10.34-1,24.74-1.64,32.91-2.51c2.61-0.28,4.1,1.44,3.77,3.35C85.47,28.8,84.52,32.77,83.77,37" id="Ske2u8fjv42" kvg:type="㇕" transform="matrix(1,0,0,1,1196,-4)" xmlns:kvg="http://kanjivg.tagaini.net"></path><path class="stroke_order_diagram--existing_path" d="M42.3,29.55c1.26,0.43,3.58,0.52,4.84,0.43c11.11-0.73,31.61-2.98,45.06-3.98c1.81-0.13,3.57,0.64,4.92,0.92" id="Ske2u8fjv43" kvg:type="㇐" transform="matrix(1,0,0,1,1196,-4)" xmlns:kvg="http://kanjivg.tagaini.net"></path><path class="stroke_order_diagram--existing_path" d="M53.7,37.74c2.56-0.17,26.52-2.06,29.81-2.23" id="Ske2u8fjv44" kvg:type="㇐" transform="matrix(1,0,0,1,1196,-4)" xmlns:kvg="http://kanjivg.tagaini.net"></path><path class="stroke_order_diagram--existing_path" d="M50.51,45.98c0.45,0.44,1.23,1.02,1.45,1.98c0.78,3.54,1.94,7.03,2.76,10.3" id="Ske2u8fjv45" kvg:type="㇑" transform="matrix(1,0,0,1,1196,-4)" xmlns:kvg="http://kanjivg.tagaini.net"></path><path class="stroke_order_diagram--existing_path" d="M51.45,47.07c9.8-0.92,23.46-2.44,31.21-3.24c2.47-0.25,3.9,1.33,3.57,3.1C85.85,49,85,52.25,83.99,56" id="Ske2u8fjv46" kvg:type="㇕b" transform="matrix(1,0,0,1,1196,-4)" xmlns:kvg="http://kanjivg.tagaini.net"></path><path class="stroke_order_diagram--current_path" d="M55.45,56.56c2.3-0.16,25.33-1.46,28.3-1.62" id="kvg:07e37-s13" kvg:type="㇐b" transform="matrix(1,0,0,1,1196,-4)" xmlns:kvg="http://kanjivg.tagaini.net"></path><path class="stroke_order_diagram--current_path" d="M55.45,56.56c2.3-0.16,25.33-1.46,28.3-1.62" id="Ske2u8fjv48" kvg:type="㇐b" transform="matrix(1,0,0,1,1196,-4)" xmlns:kvg="http://kanjivg.tagaini.net"></path><circle class="stroke_order_diagram--path_start" cx="55.45" cy="56.56" r="4" transform="matrix(1,0,0,1,1196,-4)"></circle><line class="stroke_order_diagram--guide_line" x1="1350" x2="1350" y1="1" y2="99"></line><line class="stroke_order_diagram--bounding_box" x1="1399" x2="1399" y1="1" y2="99"></line><path class="stroke_order_diagram--existing_path" d="M26.65,12.67c0.36,1.42,0.38,2.47-0.18,4.01C24,23.5,19.5,29.25,14.68,34.69c-0.67,0.75-0.72,3.27,0,3.54c3.81,1.42,7.64,3.28,10.91,5.88" id="Ske2u8fjv4b" kvg:type="㇜" transform="matrix(1,0,0,1,1296,-4)" xmlns:kvg="http://kanjivg.tagaini.net"></path><path class="stroke_order_diagram--existing_path" d="M36.7,26.68c0.27,0.53,0.34,2.27,0,2.85c-5.24,8.99-14.48,20.49-21.69,28.13c-1.65,1.75,0.41,2.75,1.49,2.4c4.51-1.49,14.72-3.65,20.52-5.08" id="Ske2u8fjv4c" kvg:type="㇜" transform="matrix(1,0,0,1,1296,-4)" xmlns:kvg="http://kanjivg.tagaini.net"></path><path class="stroke_order_diagram--existing_path" d="M33.63,47.63c2.78,2.27,7.18,9.34,7.87,12.87" id="Ske2u8fjv4d" kvg:type="㇔" transform="matrix(1,0,0,1,1296,-4)" xmlns:kvg="http://kanjivg.tagaini.net"></path><path class="stroke_order_diagram--existing_path" d="M26.86,60.12c0.07,0.38,0.97,1.96,1.04,4.34c0.33,11.46-0.21,30.56-0.21,34.46" id="Ske2u8fjv4e" kvg:type="㇑" transform="matrix(1,0,0,1,1296,-4)" xmlns:kvg="http://kanjivg.tagaini.net"></path><path class="stroke_order_diagram--existing_path" d="M18.36,70.35c0.14,0.99,0.12,2.94-0.14,3.65c-1.72,4.62-6.03,13.54-8.47,17.5" id="Ske2u8fjv4f" kvg:type="㇒" transform="matrix(1,0,0,1,1296,-4)" xmlns:kvg="http://kanjivg.tagaini.net"></path><path class="stroke_order_diagram--existing_path" d="M35,69c3.25,3.49,5.74,11.59,6.5,14.75" id="Ske2u8fjv4g" kvg:type="㇔" transform="matrix(1,0,0,1,1296,-4)" xmlns:kvg="http://kanjivg.tagaini.net"></path><path class="stroke_order_diagram--existing_path" d="M49.03,19.23c0.56,0.25,1.6,1.33,1.79,2.27c1.24,6.13,1.84,13.43,2.92,17.47" id="Ske2u8fjv4h" kvg:type="㇑" transform="matrix(1,0,0,1,1296,-4)" xmlns:kvg="http://kanjivg.tagaini.net"></path><path class="stroke_order_diagram--existing_path" d="M50.13,20.34c10.34-1,24.74-1.64,32.91-2.51c2.61-0.28,4.1,1.44,3.77,3.35C85.47,28.8,84.52,32.77,83.77,37" id="Ske2u8fjv4i" kvg:type="㇕" transform="matrix(1,0,0,1,1296,-4)" xmlns:kvg="http://kanjivg.tagaini.net"></path><path class="stroke_order_diagram--existing_path" d="M42.3,29.55c1.26,0.43,3.58,0.52,4.84,0.43c11.11-0.73,31.61-2.98,45.06-3.98c1.81-0.13,3.57,0.64,4.92,0.92" id="Ske2u8fjv4j" kvg:type="㇐" transform="matrix(1,0,0,1,1296,-4)" xmlns:kvg="http://kanjivg.tagaini.net"></path><path class="stroke_order_diagram--existing_path" d="M53.7,37.74c2.56-0.17,26.52-2.06,29.81-2.23" id="Ske2u8fjv4k" kvg:type="㇐" transform="matrix(1,0,0,1,1296,-4)" xmlns:kvg="http://kanjivg.tagaini.net"></path><path class="stroke_order_diagram--existing_path" d="M50.51,45.98c0.45,0.44,1.23,1.02,1.45,1.98c0.78,3.54,1.94,7.03,2.76,10.3" id="Ske2u8fjv4l" kvg:type="㇑" transform="matrix(1,0,0,1,1296,-4)" xmlns:kvg="http://kanjivg.tagaini.net"></path><path class="stroke_order_diagram--existing_path" d="M51.45,47.07c9.8-0.92,23.46-2.44,31.21-3.24c2.47-0.25,3.9,1.33,3.57,3.1C85.85,49,85,52.25,83.99,56" id="Ske2u8fjv4m" kvg:type="㇕b" transform="matrix(1,0,0,1,1296,-4)" xmlns:kvg="http://kanjivg.tagaini.net"></path><path class="stroke_order_diagram--existing_path" d="M55.45,56.56c2.3-0.16,25.33-1.46,28.3-1.62" id="Ske2u8fjv4n" kvg:type="㇐b" transform="matrix(1,0,0,1,1296,-4)" xmlns:kvg="http://kanjivg.tagaini.net"></path><path class="stroke_order_diagram--current_path" d="M66.31,10.5c0.83,0.46,1.32,2.08,1.48,3.01c0.16,0.93,0,35.45-0.17,41.24" id="kvg:07e37-s14" kvg:type="㇑" transform="matrix(1,0,0,1,1296,-4)" xmlns:kvg="http://kanjivg.tagaini.net"></path><path class="stroke_order_diagram--current_path" d="M66.31,10.5c0.83,0.46,1.32,2.08,1.48,3.01c0.16,0.93,0,35.45-0.17,41.24" id="Ske2u8fjv4p" kvg:type="㇑" transform="matrix(1,0,0,1,1296,-4)" xmlns:kvg="http://kanjivg.tagaini.net"></path><circle class="stroke_order_diagram--path_start" cx="66.31" cy="10.5" r="4" transform="matrix(1,0,0,1,1296,-4)"></circle><line class="stroke_order_diagram--guide_line" x1="1450" x2="1450" y1="1" y2="99"></line><line class="stroke_order_diagram--bounding_box" x1="1499" x2="1499" y1="1" y2="99"></line><path class="stroke_order_diagram--existing_path" d="M26.65,12.67c0.36,1.42,0.38,2.47-0.18,4.01C24,23.5,19.5,29.25,14.68,34.69c-0.67,0.75-0.72,3.27,0,3.54c3.81,1.42,7.64,3.28,10.91,5.88" id="Ske2u8fjv4s" kvg:type="㇜" transform="matrix(1,0,0,1,1396,-4)" xmlns:kvg="http://kanjivg.tagaini.net"></path><path class="stroke_order_diagram--existing_path" d="M36.7,26.68c0.27,0.53,0.34,2.27,0,2.85c-5.24,8.99-14.48,20.49-21.69,28.13c-1.65,1.75,0.41,2.75,1.49,2.4c4.51-1.49,14.72-3.65,20.52-5.08" id="Ske2u8fjv4t" kvg:type="㇜" transform="matrix(1,0,0,1,1396,-4)" xmlns:kvg="http://kanjivg.tagaini.net"></path><path class="stroke_order_diagram--existing_path" d="M33.63,47.63c2.78,2.27,7.18,9.34,7.87,12.87" id="Ske2u8fjv4u" kvg:type="㇔" transform="matrix(1,0,0,1,1396,-4)" xmlns:kvg="http://kanjivg.tagaini.net"></path><path class="stroke_order_diagram--existing_path" d="M26.86,60.12c0.07,0.38,0.97,1.96,1.04,4.34c0.33,11.46-0.21,30.56-0.21,34.46" id="Ske2u8fjv4v" kvg:type="㇑" transform="matrix(1,0,0,1,1396,-4)" xmlns:kvg="http://kanjivg.tagaini.net"></path><path class="stroke_order_diagram--existing_path" d="M18.36,70.35c0.14,0.99,0.12,2.94-0.14,3.65c-1.72,4.62-6.03,13.54-8.47,17.5" id="Ske2u8fjv4w" kvg:type="㇒" transform="matrix(1,0,0,1,1396,-4)" xmlns:kvg="http://kanjivg.tagaini.net"></path><path class="stroke_order_diagram--existing_path" d="M35,69c3.25,3.49,5.74,11.59,6.5,14.75" id="Ske2u8fjv4x" kvg:type="㇔" transform="matrix(1,0,0,1,1396,-4)" xmlns:kvg="http://kanjivg.tagaini.net"></path><path class="stroke_order_diagram--existing_path" d="M49.03,19.23c0.56,0.25,1.6,1.33,1.79,2.27c1.24,6.13,1.84,13.43,2.92,17.47" id="Ske2u8fjv4y" kvg:type="㇑" transform="matrix(1,0,0,1,1396,-4)" xmlns:kvg="http://kanjivg.tagaini.net"></path><path class="stroke_order_diagram--existing_path" d="M50.13,20.34c10.34-1,24.74-1.64,32.91-2.51c2.61-0.28,4.1,1.44,3.77,3.35C85.47,28.8,84.52,32.77,83.77,37" id="Ske2u8fjv4z" kvg:type="㇕" transform="matrix(1,0,0,1,1396,-4)" xmlns:kvg="http://kanjivg.tagaini.net"></path><path class="stroke_order_diagram--existing_path" d="M42.3,29.55c1.26,0.43,3.58,0.52,4.84,0.43c11.11-0.73,31.61-2.98,45.06-3.98c1.81-0.13,3.57,0.64,4.92,0.92" id="Ske2u8fjv50" kvg:type="㇐" transform="matrix(1,0,0,1,1396,-4)" xmlns:kvg="http://kanjivg.tagaini.net"></path><path class="stroke_order_diagram--existing_path" d="M53.7,37.74c2.56-0.17,26.52-2.06,29.81-2.23" id="Ske2u8fjv51" kvg:type="㇐" transform="matrix(1,0,0,1,1396,-4)" xmlns:kvg="http://kanjivg.tagaini.net"></path><path class="stroke_order_diagram--existing_path" d="M50.51,45.98c0.45,0.44,1.23,1.02,1.45,1.98c0.78,3.54,1.94,7.03,2.76,10.3" id="Ske2u8fjv52" kvg:type="㇑" transform="matrix(1,0,0,1,1396,-4)" xmlns:kvg="http://kanjivg.tagaini.net"></path><path class="stroke_order_diagram--existing_path" d="M51.45,47.07c9.8-0.92,23.46-2.44,31.21-3.24c2.47-0.25,3.9,1.33,3.57,3.1C85.85,49,85,52.25,83.99,56" id="Ske2u8fjv53" kvg:type="㇕b" transform="matrix(1,0,0,1,1396,-4)" xmlns:kvg="http://kanjivg.tagaini.net"></path><path class="stroke_order_diagram--existing_path" d="M55.45,56.56c2.3-0.16,25.33-1.46,28.3-1.62" id="Ske2u8fjv54" kvg:type="㇐b" transform="matrix(1,0,0,1,1396,-4)" xmlns:kvg="http://kanjivg.tagaini.net"></path><path class="stroke_order_diagram--existing_path" d="M66.31,10.5c0.83,0.46,1.32,2.08,1.48,3.01c0.16,0.93,0,35.45-0.17,41.24" id="Ske2u8fjv55" kvg:type="㇑" transform="matrix(1,0,0,1,1396,-4)" xmlns:kvg="http://kanjivg.tagaini.net"></path><path class="stroke_order_diagram--current_path" d="M66.44,58.87c0.37,0.92,0.11,2.09-0.18,3.24c-1.44,5.63-7.59,13.41-12.18,19.88c-1,1.41-0.21,1.68,0.55,1.69C65.28,83.83,82.74,90.76,88.25,98" id="kvg:07e37-s15" kvg:type="㇛" transform="matrix(1,0,0,1,1396,-4)" xmlns:kvg="http://kanjivg.tagaini.net"></path><path class="stroke_order_diagram--current_path" d="M66.44,58.87c0.37,0.92,0.11,2.09-0.18,3.24c-1.44,5.63-7.59,13.41-12.18,19.88c-1,1.41-0.21,1.68,0.55,1.69C65.28,83.83,82.74,90.76,88.25,98" id="Ske2u8fjv57" kvg:type="㇛" transform="matrix(1,0,0,1,1396,-4)" xmlns:kvg="http://kanjivg.tagaini.net"></path><circle class="stroke_order_diagram--path_start" cx="66.44" cy="58.87" r="4" transform="matrix(1,0,0,1,1396,-4)"></circle><line class="stroke_order_diagram--guide_line" x1="1550" x2="1550" y1="1" y2="99"></line><line class="stroke_order_diagram--bounding_box" x1="1599" x2="1599" y1="1" y2="99"></line><path class="stroke_order_diagram--existing_path" d="M26.65,12.67c0.36,1.42,0.38,2.47-0.18,4.01C24,23.5,19.5,29.25,14.68,34.69c-0.67,0.75-0.72,3.27,0,3.54c3.81,1.42,7.64,3.28,10.91,5.88" id="Ske2u8fjv5a" kvg:type="㇜" transform="matrix(1,0,0,1,1496,-4)" xmlns:kvg="http://kanjivg.tagaini.net"></path><path class="stroke_order_diagram--existing_path" d="M36.7,26.68c0.27,0.53,0.34,2.27,0,2.85c-5.24,8.99-14.48,20.49-21.69,28.13c-1.65,1.75,0.41,2.75,1.49,2.4c4.51-1.49,14.72-3.65,20.52-5.08" id="Ske2u8fjv5b" kvg:type="㇜" transform="matrix(1,0,0,1,1496,-4)" xmlns:kvg="http://kanjivg.tagaini.net"></path><path class="stroke_order_diagram--existing_path" d="M33.63,47.63c2.78,2.27,7.18,9.34,7.87,12.87" id="Ske2u8fjv5c" kvg:type="㇔" transform="matrix(1,0,0,1,1496,-4)" xmlns:kvg="http://kanjivg.tagaini.net"></path><path class="stroke_order_diagram--existing_path" d="M26.86,60.12c0.07,0.38,0.97,1.96,1.04,4.34c0.33,11.46-0.21,30.56-0.21,34.46" id="Ske2u8fjv5d" kvg:type="㇑" transform="matrix(1,0,0,1,1496,-4)" xmlns:kvg="http://kanjivg.tagaini.net"></path><path class="stroke_order_diagram--existing_path" d="M18.36,70.35c0.14,0.99,0.12,2.94-0.14,3.65c-1.72,4.62-6.03,13.54-8.47,17.5" id="Ske2u8fjv5e" kvg:type="㇒" transform="matrix(1,0,0,1,1496,-4)" xmlns:kvg="http://kanjivg.tagaini.net"></path><path class="stroke_order_diagram--existing_path" d="M35,69c3.25,3.49,5.74,11.59,6.5,14.75" id="Ske2u8fjv5f" kvg:type="㇔" transform="matrix(1,0,0,1,1496,-4)" xmlns:kvg="http://kanjivg.tagaini.net"></path><path class="stroke_order_diagram--existing_path" d="M49.03,19.23c0.56,0.25,1.6,1.33,1.79,2.27c1.24,6.13,1.84,13.43,2.92,17.47" id="Ske2u8fjv5g" kvg:type="㇑" transform="matrix(1,0,0,1,1496,-4)" xmlns:kvg="http://kanjivg.tagaini.net"></path><path class="stroke_order_diagram--existing_path" d="M50.13,20.34c10.34-1,24.74-1.64,32.91-2.51c2.61-0.28,4.1,1.44,3.77,3.35C85.47,28.8,84.52,32.77,83.77,37" id="Ske2u8fjv5h" kvg:type="㇕" transform="matrix(1,0,0,1,1496,-4)" xmlns:kvg="http://kanjivg.tagaini.net"></path><path class="stroke_order_diagram--existing_path" d="M42.3,29.55c1.26,0.43,3.58,0.52,4.84,0.43c11.11-0.73,31.61-2.98,45.06-3.98c1.81-0.13,3.57,0.64,4.92,0.92" id="Ske2u8fjv5i" kvg:type="㇐" transform="matrix(1,0,0,1,1496,-4)" xmlns:kvg="http://kanjivg.tagaini.net"></path><path class="stroke_order_diagram--existing_path" d="M53.7,37.74c2.56-0.17,26.52-2.06,29.81-2.23" id="Ske2u8fjv5j" kvg:type="㇐" transform="matrix(1,0,0,1,1496,-4)" xmlns:kvg="http://kanjivg.tagaini.net"></path><path class="stroke_order_diagram--existing_path" d="M50.51,45.98c0.45,0.44,1.23,1.02,1.45,1.98c0.78,3.54,1.94,7.03,2.76,10.3" id="Ske2u8fjv5k" kvg:type="㇑" transform="matrix(1,0,0,1,1496,-4)" xmlns:kvg="http://kanjivg.tagaini.net"></path><path class="stroke_order_diagram--existing_path" d="M51.45,47.07c9.8-0.92,23.46-2.44,31.21-3.24c2.47-0.25,3.9,1.33,3.57,3.1C85.85,49,85,52.25,83.99,56" id="Ske2u8fjv5l" kvg:type="㇕b" transform="matrix(1,0,0,1,1496,-4)" xmlns:kvg="http://kanjivg.tagaini.net"></path><path class="stroke_order_diagram--existing_path" d="M55.45,56.56c2.3-0.16,25.33-1.46,28.3-1.62" id="Ske2u8fjv5m" kvg:type="㇐b" transform="matrix(1,0,0,1,1496,-4)" xmlns:kvg="http://kanjivg.tagaini.net"></path><path class="stroke_order_diagram--existing_path" d="M66.31,10.5c0.83,0.46,1.32,2.08,1.48,3.01c0.16,0.93,0,35.45-0.17,41.24" id="Ske2u8fjv5n" kvg:type="㇑" transform="matrix(1,0,0,1,1496,-4)" xmlns:kvg="http://kanjivg.tagaini.net"></path><path class="stroke_order_diagram--existing_path" d="M66.44,58.87c0.37,0.92,0.11,2.09-0.18,3.24c-1.44,5.63-7.59,13.41-12.18,19.88c-1,1.41-0.21,1.68,0.55,1.69C65.28,83.83,82.74,90.76,88.25,98" id="Ske2u8fjv5o" kvg:type="㇛" transform="matrix(1,0,0,1,1496,-4)" xmlns:kvg="http://kanjivg.tagaini.net"></path><path class="stroke_order_diagram--current_path" d="M80.98,64.25c0.11,0.81,0.19,2.78-0.22,3.96c-3.29,9.5-10.66,23.83-36.23,30.04" id="kvg:07e37-s16" kvg:type="㇒" transform="matrix(1,0,0,1,1496,-4)" xmlns:kvg="http://kanjivg.tagaini.net"></path><path class="stroke_order_diagram--current_path" d="M80.98,64.25c0.11,0.81,0.19,2.78-0.22,3.96c-3.29,9.5-10.66,23.83-36.23,30.04" id="Ske2u8fjv5q" kvg:type="㇒" transform="matrix(1,0,0,1,1496,-4)" xmlns:kvg="http://kanjivg.tagaini.net"></path><circle class="stroke_order_diagram--path_start" cx="80.98" cy="64.25" r="4" transform="matrix(1,0,0,1,1496,-4)"></circle><line class="stroke_order_diagram--guide_line" x1="1650" x2="1650" y1="1" y2="99"></line><line class="stroke_order_diagram--bounding_box" x1="1699" x2="1699" y1="1" y2="99"></line><path class="stroke_order_diagram--existing_path" d="M26.65,12.67c0.36,1.42,0.38,2.47-0.18,4.01C24,23.5,19.5,29.25,14.68,34.69c-0.67,0.75-0.72,3.27,0,3.54c3.81,1.42,7.64,3.28,10.91,5.88" id="Ske2u8fjv5t" kvg:type="㇜" transform="matrix(1,0,0,1,1596,-4)" xmlns:kvg="http://kanjivg.tagaini.net"></path><path class="stroke_order_diagram--existing_path" d="M36.7,26.68c0.27,0.53,0.34,2.27,0,2.85c-5.24,8.99-14.48,20.49-21.69,28.13c-1.65,1.75,0.41,2.75,1.49,2.4c4.51-1.49,14.72-3.65,20.52-5.08" id="Ske2u8fjv5u" kvg:type="㇜" transform="matrix(1,0,0,1,1596,-4)" xmlns:kvg="http://kanjivg.tagaini.net"></path><path class="stroke_order_diagram--existing_path" d="M33.63,47.63c2.78,2.27,7.18,9.34,7.87,12.87" id="Ske2u8fjv5v" kvg:type="㇔" transform="matrix(1,0,0,1,1596,-4)" xmlns:kvg="http://kanjivg.tagaini.net"></path><path class="stroke_order_diagram--existing_path" d="M26.86,60.12c0.07,0.38,0.97,1.96,1.04,4.34c0.33,11.46-0.21,30.56-0.21,34.46" id="Ske2u8fjv5w" kvg:type="㇑" transform="matrix(1,0,0,1,1596,-4)" xmlns:kvg="http://kanjivg.tagaini.net"></path><path class="stroke_order_diagram--existing_path" d="M18.36,70.35c0.14,0.99,0.12,2.94-0.14,3.65c-1.72,4.62-6.03,13.54-8.47,17.5" id="Ske2u8fjv5x" kvg:type="㇒" transform="matrix(1,0,0,1,1596,-4)" xmlns:kvg="http://kanjivg.tagaini.net"></path><path class="stroke_order_diagram--existing_path" d="M35,69c3.25,3.49,5.74,11.59,6.5,14.75" id="Ske2u8fjv5y" kvg:type="㇔" transform="matrix(1,0,0,1,1596,-4)" xmlns:kvg="http://kanjivg.tagaini.net"></path><path class="stroke_order_diagram--existing_path" d="M49.03,19.23c0.56,0.25,1.6,1.33,1.79,2.27c1.24,6.13,1.84,13.43,2.92,17.47" id="Ske2u8fjv5z" kvg:type="㇑" transform="matrix(1,0,0,1,1596,-4)" xmlns:kvg="http://kanjivg.tagaini.net"></path><path class="stroke_order_diagram--existing_path" d="M50.13,20.34c10.34-1,24.74-1.64,32.91-2.51c2.61-0.28,4.1,1.44,3.77,3.35C85.47,28.8,84.52,32.77,83.77,37" id="Ske2u8fjv60" kvg:type="㇕" transform="matrix(1,0,0,1,1596,-4)" xmlns:kvg="http://kanjivg.tagaini.net"></path><path class="stroke_order_diagram--existing_path" d="M42.3,29.55c1.26,0.43,3.58,0.52,4.84,0.43c11.11-0.73,31.61-2.98,45.06-3.98c1.81-0.13,3.57,0.64,4.92,0.92" id="Ske2u8fjv61" kvg:type="㇐" transform="matrix(1,0,0,1,1596,-4)" xmlns:kvg="http://kanjivg.tagaini.net"></path><path class="stroke_order_diagram--existing_path" d="M53.7,37.74c2.56-0.17,26.52-2.06,29.81-2.23" id="Ske2u8fjv62" kvg:type="㇐" transform="matrix(1,0,0,1,1596,-4)" xmlns:kvg="http://kanjivg.tagaini.net"></path><path class="stroke_order_diagram--existing_path" d="M50.51,45.98c0.45,0.44,1.23,1.02,1.45,1.98c0.78,3.54,1.94,7.03,2.76,10.3" id="Ske2u8fjv63" kvg:type="㇑" transform="matrix(1,0,0,1,1596,-4)" xmlns:kvg="http://kanjivg.tagaini.net"></path><path class="stroke_order_diagram--existing_path" d="M51.45,47.07c9.8-0.92,23.46-2.44,31.21-3.24c2.47-0.25,3.9,1.33,3.57,3.1C85.85,49,85,52.25,83.99,56" id="Ske2u8fjv64" kvg:type="㇕b" transform="matrix(1,0,0,1,1596,-4)" xmlns:kvg="http://kanjivg.tagaini.net"></path><path class="stroke_order_diagram--existing_path" d="M55.45,56.56c2.3-0.16,25.33-1.46,28.3-1.62" id="Ske2u8fjv65" kvg:type="㇐b" transform="matrix(1,0,0,1,1596,-4)" xmlns:kvg="http://kanjivg.tagaini.net"></path><path class="stroke_order_diagram--existing_path" d="M66.31,10.5c0.83,0.46,1.32,2.08,1.48,3.01c0.16,0.93,0,35.45-0.17,41.24" id="Ske2u8fjv66" kvg:type="㇑" transform="matrix(1,0,0,1,1596,-4)" xmlns:kvg="http://kanjivg.tagaini.net"></path><path class="stroke_order_diagram--existing_path" d="M66.44,58.87c0.37,0.92,0.11,2.09-0.18,3.24c-1.44,5.63-7.59,13.41-12.18,19.88c-1,1.41-0.21,1.68,0.55,1.69C65.28,83.83,82.74,90.76,88.25,98" id="Ske2u8fjv67" kvg:type="㇛" transform="matrix(1,0,0,1,1596,-4)" xmlns:kvg="http://kanjivg.tagaini.net"></path><path class="stroke_order_diagram--existing_path" d="M80.98,64.25c0.11,0.81,0.19,2.78-0.22,3.96c-3.29,9.5-10.66,23.83-36.23,30.04" id="Ske2u8fjv68" kvg:type="㇒" transform="matrix(1,0,0,1,1596,-4)" xmlns:kvg="http://kanjivg.tagaini.net"></path><path class="stroke_order_diagram--current_path" d="M44.63,72.71c1.69,0.3,3.49,0.48,4.3,0.46c12.71-0.29,28.22-3.66,44.54-3.79c1.35-0.01,3.68,0.19,4.78,0.53" id="kvg:07e37-s17" kvg:type="㇐" transform="matrix(1,0,0,1,1596,-4)" xmlns:kvg="http://kanjivg.tagaini.net"></path><path class="stroke_order_diagram--current_path" d="M44.63,72.71c1.69,0.3,3.49,0.48,4.3,0.46c12.71-0.29,28.22-3.66,44.54-3.79c1.35-0.01,3.68,0.19,4.78,0.53" id="Ske2u8fjv6a" kvg:type="㇐" transform="matrix(1,0,0,1,1596,-4)" xmlns:kvg="http://kanjivg.tagaini.net"></path><circle class="stroke_order_diagram--path_start" cx="44.63" cy="72.71" r="4" transform="matrix(1,0,0,1,1596,-4)"></circle></svg>