<svg class="stroke_order_diagram--svg_container_for_518662b6d5dda79658001388" style="height: 100px; width: 1700px;" viewbox="0 0 1700 100"><desc>Created with Snap</desc><defs></defs><line class="stroke_order_diagram--bounding_box" x1="1" x2="1699" y1="1" y2="1"></line><line class="stroke_order_diagram--bounding_box" x1="1" x2="1" y1="1" y2="99"></line><line class="stroke_order_diagram--bounding_box" x1="1" x2="1699" y1="99" y2="99"></line><line class="stroke_order_diagram--guide_line" x1="0" x2="1700" y1="50" y2="50"></line><line class="stroke_order_diagram--guide_line" x1="50" x2="50" y1="1" y2="99"></line><line class="stroke_order_diagram--bounding_box" x1="99" x2="99" y1="1" y2="99"></line><path class="stroke_order_diagram--current_path" d="M28.15,10.67c0.36,1.42,0.38,2.47-0.18,4.01C25.5,21.5,20,28.25,15.18,33.69c-0.67,0.75-0.72,3.27,0,3.54c3.81,1.42,8.14,2.78,11.41,5.38" id="kvg:07e39-s1" kvg:type="㇜" transform="matrix(1,0,0,1,-4,-4)" xmlns:kvg="http://kanjivg.tagaini.net"></path><path class="stroke_order_diagram--current_path" d="M28.15,10.67c0.36,1.42,0.38,2.47-0.18,4.01C25.5,21.5,20,28.25,15.18,33.69c-0.67,0.75-0.72,3.27,0,3.54c3.81,1.42,8.14,2.78,11.41,5.38" id="Ske2u7uljq" kvg:type="㇜" transform="matrix(1,0,0,1,-4,-4)" xmlns:kvg="http://kanjivg.tagaini.net"></path><circle class="stroke_order_diagram--path_start" cx="28.15" cy="10.67" r="4" transform="matrix(1,0,0,1,-4,-4)"></circle><line class="stroke_order_diagram--guide_line" x1="150" x2="150" y1="1" y2="99"></line><line class="stroke_order_diagram--bounding_box" x1="199" x2="199" y1="1" y2="99"></line><path class="stroke_order_diagram--existing_path" d="M28.15,10.67c0.36,1.42,0.38,2.47-0.18,4.01C25.5,21.5,20,28.25,15.18,33.69c-0.67,0.75-0.72,3.27,0,3.54c3.81,1.42,8.14,2.78,11.41,5.38" id="Ske2u7uljt" kvg:type="㇜" transform="matrix(1,0,0,1,96,-4)" xmlns:kvg="http://kanjivg.tagaini.net"></path><path class="stroke_order_diagram--current_path" d="M39.05,22.93c0.3,0.58,0.37,2.46,0,3.09c-5.8,9.73-13.99,21.68-21.98,29.94c-1.83,1.89,0.46,2.98,1.65,2.59c5-1.61,15.37-3.99,21.79-5.53" id="kvg:07e39-s2" kvg:type="㇜" transform="matrix(1,0,0,1,96,-4)" xmlns:kvg="http://kanjivg.tagaini.net"></path><path class="stroke_order_diagram--current_path" d="M39.05,22.93c0.3,0.58,0.37,2.46,0,3.09c-5.8,9.73-13.99,21.68-21.98,29.94c-1.83,1.89,0.46,2.98,1.65,2.59c5-1.61,15.37-3.99,21.79-5.53" id="Ske2u7uljv" kvg:type="㇜" transform="matrix(1,0,0,1,96,-4)" xmlns:kvg="http://kanjivg.tagaini.net"></path><circle class="stroke_order_diagram--path_start" cx="39.05" cy="22.93" r="4" transform="matrix(1,0,0,1,96,-4)"></circle><line class="stroke_order_diagram--guide_line" x1="250" x2="250" y1="1" y2="99"></line><line class="stroke_order_diagram--bounding_box" x1="299" x2="299" y1="1" y2="99"></line><path class="stroke_order_diagram--existing_path" d="M28.15,10.67c0.36,1.42,0.38,2.47-0.18,4.01C25.5,21.5,20,28.25,15.18,33.69c-0.67,0.75-0.72,3.27,0,3.54c3.81,1.42,8.14,2.78,11.41,5.38" id="Ske2u7uljy" kvg:type="㇜" transform="matrix(1,0,0,1,196,-4)" xmlns:kvg="http://kanjivg.tagaini.net"></path><path class="stroke_order_diagram--existing_path" d="M39.05,22.93c0.3,0.58,0.37,2.46,0,3.09c-5.8,9.73-13.99,21.68-21.98,29.94c-1.83,1.89,0.46,2.98,1.65,2.59c5-1.61,15.37-3.99,21.79-5.53" id="Ske2u7uljz" kvg:type="㇜" transform="matrix(1,0,0,1,196,-4)" xmlns:kvg="http://kanjivg.tagaini.net"></path><path class="stroke_order_diagram--current_path" d="M37.13,46.38c2.34,2.36,6.04,9.69,6.62,13.35" id="kvg:07e39-s3" kvg:type="㇔" transform="matrix(1,0,0,1,196,-4)" xmlns:kvg="http://kanjivg.tagaini.net"></path><path class="stroke_order_diagram--current_path" d="M37.13,46.38c2.34,2.36,6.04,9.69,6.62,13.35" id="Ske2u7ulj11" kvg:type="㇔" transform="matrix(1,0,0,1,196,-4)" xmlns:kvg="http://kanjivg.tagaini.net"></path><circle class="stroke_order_diagram--path_start" cx="37.13" cy="46.38" r="4" transform="matrix(1,0,0,1,196,-4)"></circle><line class="stroke_order_diagram--guide_line" x1="350" x2="350" y1="1" y2="99"></line><line class="stroke_order_diagram--bounding_box" x1="399" x2="399" y1="1" y2="99"></line><path class="stroke_order_diagram--existing_path" d="M28.15,10.67c0.36,1.42,0.38,2.47-0.18,4.01C25.5,21.5,20,28.25,15.18,33.69c-0.67,0.75-0.72,3.27,0,3.54c3.81,1.42,8.14,2.78,11.41,5.38" id="Ske2u7ulj14" kvg:type="㇜" transform="matrix(1,0,0,1,296,-4)" xmlns:kvg="http://kanjivg.tagaini.net"></path><path class="stroke_order_diagram--existing_path" d="M39.05,22.93c0.3,0.58,0.37,2.46,0,3.09c-5.8,9.73-13.99,21.68-21.98,29.94c-1.83,1.89,0.46,2.98,1.65,2.59c5-1.61,15.37-3.99,21.79-5.53" id="Ske2u7ulj15" kvg:type="㇜" transform="matrix(1,0,0,1,296,-4)" xmlns:kvg="http://kanjivg.tagaini.net"></path><path class="stroke_order_diagram--existing_path" d="M37.13,46.38c2.34,2.36,6.04,9.69,6.62,13.35" id="Ske2u7ulj16" kvg:type="㇔" transform="matrix(1,0,0,1,296,-4)" xmlns:kvg="http://kanjivg.tagaini.net"></path><path class="stroke_order_diagram--current_path" d="M27.89,59.12c0.07,0.36,0.91,1.85,0.98,4.09C29.18,74,28.67,94,28.67,97.67" id="kvg:07e39-s4" kvg:type="㇑" transform="matrix(1,0,0,1,296,-4)" xmlns:kvg="http://kanjivg.tagaini.net"></path><path class="stroke_order_diagram--current_path" d="M27.89,59.12c0.07,0.36,0.91,1.85,0.98,4.09C29.18,74,28.67,94,28.67,97.67" id="Ske2u7ulj18" kvg:type="㇑" transform="matrix(1,0,0,1,296,-4)" xmlns:kvg="http://kanjivg.tagaini.net"></path><circle class="stroke_order_diagram--path_start" cx="27.89" cy="59.12" r="4" transform="matrix(1,0,0,1,296,-4)"></circle><line class="stroke_order_diagram--guide_line" x1="450" x2="450" y1="1" y2="99"></line><line class="stroke_order_diagram--bounding_box" x1="499" x2="499" y1="1" y2="99"></line><path class="stroke_order_diagram--existing_path" d="M28.15,10.67c0.36,1.42,0.38,2.47-0.18,4.01C25.5,21.5,20,28.25,15.18,33.69c-0.67,0.75-0.72,3.27,0,3.54c3.81,1.42,8.14,2.78,11.41,5.38" id="Ske2u7ulj1b" kvg:type="㇜" transform="matrix(1,0,0,1,396,-4)" xmlns:kvg="http://kanjivg.tagaini.net"></path><path class="stroke_order_diagram--existing_path" d="M39.05,22.93c0.3,0.58,0.37,2.46,0,3.09c-5.8,9.73-13.99,21.68-21.98,29.94c-1.83,1.89,0.46,2.98,1.65,2.59c5-1.61,15.37-3.99,21.79-5.53" id="Ske2u7ulj1c" kvg:type="㇜" transform="matrix(1,0,0,1,396,-4)" xmlns:kvg="http://kanjivg.tagaini.net"></path><path class="stroke_order_diagram--existing_path" d="M37.13,46.38c2.34,2.36,6.04,9.69,6.62,13.35" id="Ske2u7ulj1d" kvg:type="㇔" transform="matrix(1,0,0,1,396,-4)" xmlns:kvg="http://kanjivg.tagaini.net"></path><path class="stroke_order_diagram--existing_path" d="M27.89,59.12c0.07,0.36,0.91,1.85,0.98,4.09C29.18,74,28.67,94,28.67,97.67" id="Ske2u7ulj1e" kvg:type="㇑" transform="matrix(1,0,0,1,396,-4)" xmlns:kvg="http://kanjivg.tagaini.net"></path><path class="stroke_order_diagram--current_path" d="M19.13,69.35c0.12,0.96,0.1,2.86-0.12,3.55c-1.42,4.5-4.99,13.17-7.01,17.03" id="kvg:07e39-s5" kvg:type="㇒" transform="matrix(1,0,0,1,396,-4)" xmlns:kvg="http://kanjivg.tagaini.net"></path><path class="stroke_order_diagram--current_path" d="M19.13,69.35c0.12,0.96,0.1,2.86-0.12,3.55c-1.42,4.5-4.99,13.17-7.01,17.03" id="Ske2u7ulj1g" kvg:type="㇒" transform="matrix(1,0,0,1,396,-4)" xmlns:kvg="http://kanjivg.tagaini.net"></path><circle class="stroke_order_diagram--path_start" cx="19.13" cy="69.35" r="4" transform="matrix(1,0,0,1,396,-4)"></circle><line class="stroke_order_diagram--guide_line" x1="550" x2="550" y1="1" y2="99"></line><line class="stroke_order_diagram--bounding_box" x1="599" x2="599" y1="1" y2="99"></line><path class="stroke_order_diagram--existing_path" d="M28.15,10.67c0.36,1.42,0.38,2.47-0.18,4.01C25.5,21.5,20,28.25,15.18,33.69c-0.67,0.75-0.72,3.27,0,3.54c3.81,1.42,8.14,2.78,11.41,5.38" id="Ske2u7ulj1j" kvg:type="㇜" transform="matrix(1,0,0,1,496,-4)" xmlns:kvg="http://kanjivg.tagaini.net"></path><path class="stroke_order_diagram--existing_path" d="M39.05,22.93c0.3,0.58,0.37,2.46,0,3.09c-5.8,9.73-13.99,21.68-21.98,29.94c-1.83,1.89,0.46,2.98,1.65,2.59c5-1.61,15.37-3.99,21.79-5.53" id="Ske2u7ulj1k" kvg:type="㇜" transform="matrix(1,0,0,1,496,-4)" xmlns:kvg="http://kanjivg.tagaini.net"></path><path class="stroke_order_diagram--existing_path" d="M37.13,46.38c2.34,2.36,6.04,9.69,6.62,13.35" id="Ske2u7ulj1l" kvg:type="㇔" transform="matrix(1,0,0,1,496,-4)" xmlns:kvg="http://kanjivg.tagaini.net"></path><path class="stroke_order_diagram--existing_path" d="M27.89,59.12c0.07,0.36,0.91,1.85,0.98,4.09C29.18,74,28.67,94,28.67,97.67" id="Ske2u7ulj1m" kvg:type="㇑" transform="matrix(1,0,0,1,496,-4)" xmlns:kvg="http://kanjivg.tagaini.net"></path><path class="stroke_order_diagram--existing_path" d="M19.13,69.35c0.12,0.96,0.1,2.86-0.12,3.55c-1.42,4.5-4.99,13.17-7.01,17.03" id="Ske2u7ulj1n" kvg:type="㇒" transform="matrix(1,0,0,1,496,-4)" xmlns:kvg="http://kanjivg.tagaini.net"></path><path class="stroke_order_diagram--current_path" d="M36.25,68c3.34,3.54,5.9,11.77,6.67,14.97" id="kvg:07e39-s6" kvg:type="㇔" transform="matrix(1,0,0,1,496,-4)" xmlns:kvg="http://kanjivg.tagaini.net"></path><path class="stroke_order_diagram--current_path" d="M36.25,68c3.34,3.54,5.9,11.77,6.67,14.97" id="Ske2u7ulj1p" kvg:type="㇔" transform="matrix(1,0,0,1,496,-4)" xmlns:kvg="http://kanjivg.tagaini.net"></path><circle class="stroke_order_diagram--path_start" cx="36.25" cy="68" r="4" transform="matrix(1,0,0,1,496,-4)"></circle><line class="stroke_order_diagram--guide_line" x1="650" x2="650" y1="1" y2="99"></line><line class="stroke_order_diagram--bounding_box" x1="699" x2="699" y1="1" y2="99"></line><path class="stroke_order_diagram--existing_path" d="M28.15,10.67c0.36,1.42,0.38,2.47-0.18,4.01C25.5,21.5,20,28.25,15.18,33.69c-0.67,0.75-0.72,3.27,0,3.54c3.81,1.42,8.14,2.78,11.41,5.38" id="Ske2u7ulj1s" kvg:type="㇜" transform="matrix(1,0,0,1,596,-4)" xmlns:kvg="http://kanjivg.tagaini.net"></path><path class="stroke_order_diagram--existing_path" d="M39.05,22.93c0.3,0.58,0.37,2.46,0,3.09c-5.8,9.73-13.99,21.68-21.98,29.94c-1.83,1.89,0.46,2.98,1.65,2.59c5-1.61,15.37-3.99,21.79-5.53" id="Ske2u7ulj1t" kvg:type="㇜" transform="matrix(1,0,0,1,596,-4)" xmlns:kvg="http://kanjivg.tagaini.net"></path><path class="stroke_order_diagram--existing_path" d="M37.13,46.38c2.34,2.36,6.04,9.69,6.62,13.35" id="Ske2u7ulj1u" kvg:type="㇔" transform="matrix(1,0,0,1,596,-4)" xmlns:kvg="http://kanjivg.tagaini.net"></path><path class="stroke_order_diagram--existing_path" d="M27.89,59.12c0.07,0.36,0.91,1.85,0.98,4.09C29.18,74,28.67,94,28.67,97.67" id="Ske2u7ulj1v" kvg:type="㇑" transform="matrix(1,0,0,1,596,-4)" xmlns:kvg="http://kanjivg.tagaini.net"></path><path class="stroke_order_diagram--existing_path" d="M19.13,69.35c0.12,0.96,0.1,2.86-0.12,3.55c-1.42,4.5-4.99,13.17-7.01,17.03" id="Ske2u7ulj1w" kvg:type="㇒" transform="matrix(1,0,0,1,596,-4)" xmlns:kvg="http://kanjivg.tagaini.net"></path><path class="stroke_order_diagram--existing_path" d="M36.25,68c3.34,3.54,5.9,11.77,6.67,14.97" id="Ske2u7ulj1x" kvg:type="㇔" transform="matrix(1,0,0,1,596,-4)" xmlns:kvg="http://kanjivg.tagaini.net"></path><path class="stroke_order_diagram--current_path" d="M47.62,15.86c1.22,0.28,3.46,0.32,4.69,0.28c11.08-0.38,27.86-2.13,35.98-2.32c2.04-0.05,3.26,0.13,4.28,0.27" id="kvg:07e39-s7" kvg:type="㇐" transform="matrix(1,0,0,1,596,-4)" xmlns:kvg="http://kanjivg.tagaini.net"></path><path class="stroke_order_diagram--current_path" d="M47.62,15.86c1.22,0.28,3.46,0.32,4.69,0.28c11.08-0.38,27.86-2.13,35.98-2.32c2.04-0.05,3.26,0.13,4.28,0.27" id="Ske2u7ulj1z" kvg:type="㇐" transform="matrix(1,0,0,1,596,-4)" xmlns:kvg="http://kanjivg.tagaini.net"></path><circle class="stroke_order_diagram--path_start" cx="47.62" cy="15.86" r="4" transform="matrix(1,0,0,1,596,-4)"></circle><line class="stroke_order_diagram--guide_line" x1="750" x2="750" y1="1" y2="99"></line><line class="stroke_order_diagram--bounding_box" x1="799" x2="799" y1="1" y2="99"></line><path class="stroke_order_diagram--existing_path" d="M28.15,10.67c0.36,1.42,0.38,2.47-0.18,4.01C25.5,21.5,20,28.25,15.18,33.69c-0.67,0.75-0.72,3.27,0,3.54c3.81,1.42,8.14,2.78,11.41,5.38" id="Ske2u7ulj22" kvg:type="㇜" transform="matrix(1,0,0,1,696,-4)" xmlns:kvg="http://kanjivg.tagaini.net"></path><path class="stroke_order_diagram--existing_path" d="M39.05,22.93c0.3,0.58,0.37,2.46,0,3.09c-5.8,9.73-13.99,21.68-21.98,29.94c-1.83,1.89,0.46,2.98,1.65,2.59c5-1.61,15.37-3.99,21.79-5.53" id="Ske2u7ulj23" kvg:type="㇜" transform="matrix(1,0,0,1,696,-4)" xmlns:kvg="http://kanjivg.tagaini.net"></path><path class="stroke_order_diagram--existing_path" d="M37.13,46.38c2.34,2.36,6.04,9.69,6.62,13.35" id="Ske2u7ulj24" kvg:type="㇔" transform="matrix(1,0,0,1,696,-4)" xmlns:kvg="http://kanjivg.tagaini.net"></path><path class="stroke_order_diagram--existing_path" d="M27.89,59.12c0.07,0.36,0.91,1.85,0.98,4.09C29.18,74,28.67,94,28.67,97.67" id="Ske2u7ulj25" kvg:type="㇑" transform="matrix(1,0,0,1,696,-4)" xmlns:kvg="http://kanjivg.tagaini.net"></path><path class="stroke_order_diagram--existing_path" d="M19.13,69.35c0.12,0.96,0.1,2.86-0.12,3.55c-1.42,4.5-4.99,13.17-7.01,17.03" id="Ske2u7ulj26" kvg:type="㇒" transform="matrix(1,0,0,1,696,-4)" xmlns:kvg="http://kanjivg.tagaini.net"></path><path class="stroke_order_diagram--existing_path" d="M36.25,68c3.34,3.54,5.9,11.77,6.67,14.97" id="Ske2u7ulj27" kvg:type="㇔" transform="matrix(1,0,0,1,696,-4)" xmlns:kvg="http://kanjivg.tagaini.net"></path><path class="stroke_order_diagram--existing_path" d="M47.62,15.86c1.22,0.28,3.46,0.32,4.69,0.28c11.08-0.38,27.86-2.13,35.98-2.32c2.04-0.05,3.26,0.13,4.28,0.27" id="Ske2u7ulj28" kvg:type="㇐" transform="matrix(1,0,0,1,696,-4)" xmlns:kvg="http://kanjivg.tagaini.net"></path><path class="stroke_order_diagram--current_path" d="M46.57,28.01c0.28,0.3,1.06,1.54,1.18,1.92c0.96,2.94,2.59,11.05,3.24,16.33" id="kvg:07e39-s8" kvg:type="㇑" transform="matrix(1,0,0,1,696,-4)" xmlns:kvg="http://kanjivg.tagaini.net"></path><path class="stroke_order_diagram--current_path" d="M46.57,28.01c0.28,0.3,1.06,1.54,1.18,1.92c0.96,2.94,2.59,11.05,3.24,16.33" id="Ske2u7ulj2a" kvg:type="㇑" transform="matrix(1,0,0,1,696,-4)" xmlns:kvg="http://kanjivg.tagaini.net"></path><circle class="stroke_order_diagram--path_start" cx="46.57" cy="28.01" r="4" transform="matrix(1,0,0,1,696,-4)"></circle><line class="stroke_order_diagram--guide_line" x1="850" x2="850" y1="1" y2="99"></line><line class="stroke_order_diagram--bounding_box" x1="899" x2="899" y1="1" y2="99"></line><path class="stroke_order_diagram--existing_path" d="M28.15,10.67c0.36,1.42,0.38,2.47-0.18,4.01C25.5,21.5,20,28.25,15.18,33.69c-0.67,0.75-0.72,3.27,0,3.54c3.81,1.42,8.14,2.78,11.41,5.38" id="Ske2u7ulj2d" kvg:type="㇜" transform="matrix(1,0,0,1,796,-4)" xmlns:kvg="http://kanjivg.tagaini.net"></path><path class="stroke_order_diagram--existing_path" d="M39.05,22.93c0.3,0.58,0.37,2.46,0,3.09c-5.8,9.73-13.99,21.68-21.98,29.94c-1.83,1.89,0.46,2.98,1.65,2.59c5-1.61,15.37-3.99,21.79-5.53" id="Ske2u7ulj2e" kvg:type="㇜" transform="matrix(1,0,0,1,796,-4)" xmlns:kvg="http://kanjivg.tagaini.net"></path><path class="stroke_order_diagram--existing_path" d="M37.13,46.38c2.34,2.36,6.04,9.69,6.62,13.35" id="Ske2u7ulj2f" kvg:type="㇔" transform="matrix(1,0,0,1,796,-4)" xmlns:kvg="http://kanjivg.tagaini.net"></path><path class="stroke_order_diagram--existing_path" d="M27.89,59.12c0.07,0.36,0.91,1.85,0.98,4.09C29.18,74,28.67,94,28.67,97.67" id="Ske2u7ulj2g" kvg:type="㇑" transform="matrix(1,0,0,1,796,-4)" xmlns:kvg="http://kanjivg.tagaini.net"></path><path class="stroke_order_diagram--existing_path" d="M19.13,69.35c0.12,0.96,0.1,2.86-0.12,3.55c-1.42,4.5-4.99,13.17-7.01,17.03" id="Ske2u7ulj2h" kvg:type="㇒" transform="matrix(1,0,0,1,796,-4)" xmlns:kvg="http://kanjivg.tagaini.net"></path><path class="stroke_order_diagram--existing_path" d="M36.25,68c3.34,3.54,5.9,11.77,6.67,14.97" id="Ske2u7ulj2i" kvg:type="㇔" transform="matrix(1,0,0,1,796,-4)" xmlns:kvg="http://kanjivg.tagaini.net"></path><path class="stroke_order_diagram--existing_path" d="M47.62,15.86c1.22,0.28,3.46,0.32,4.69,0.28c11.08-0.38,27.86-2.13,35.98-2.32c2.04-0.05,3.26,0.13,4.28,0.27" id="Ske2u7ulj2j" kvg:type="㇐" transform="matrix(1,0,0,1,796,-4)" xmlns:kvg="http://kanjivg.tagaini.net"></path><path class="stroke_order_diagram--existing_path" d="M46.57,28.01c0.28,0.3,1.06,1.54,1.18,1.92c0.96,2.94,2.59,11.05,3.24,16.33" id="Ske2u7ulj2k" kvg:type="㇑" transform="matrix(1,0,0,1,796,-4)" xmlns:kvg="http://kanjivg.tagaini.net"></path><path class="stroke_order_diagram--current_path" d="M48.13,29.46c7.23-1.36,39.72-3.69,43.45-4.15c1.36-0.17,2.18,1.69,1.99,2.67c-0.81,4.07-1.59,11.17-3.32,17.05" id="kvg:07e39-s9" kvg:type="㇕" transform="matrix(1,0,0,1,796,-4)" xmlns:kvg="http://kanjivg.tagaini.net"></path><path class="stroke_order_diagram--current_path" d="M48.13,29.46c7.23-1.36,39.72-3.69,43.45-4.15c1.36-0.17,2.18,1.69,1.99,2.67c-0.81,4.07-1.59,11.17-3.32,17.05" id="Ske2u7ulj2m" kvg:type="㇕" transform="matrix(1,0,0,1,796,-4)" xmlns:kvg="http://kanjivg.tagaini.net"></path><circle class="stroke_order_diagram--path_start" cx="48.13" cy="29.46" r="4" transform="matrix(1,0,0,1,796,-4)"></circle><line class="stroke_order_diagram--guide_line" x1="950" x2="950" y1="1" y2="99"></line><line class="stroke_order_diagram--bounding_box" x1="999" x2="999" y1="1" y2="99"></line><path class="stroke_order_diagram--existing_path" d="M28.15,10.67c0.36,1.42,0.38,2.47-0.18,4.01C25.5,21.5,20,28.25,15.18,33.69c-0.67,0.75-0.72,3.27,0,3.54c3.81,1.42,8.14,2.78,11.41,5.38" id="Ske2u7ulj2p" kvg:type="㇜" transform="matrix(1,0,0,1,896,-4)" xmlns:kvg="http://kanjivg.tagaini.net"></path><path class="stroke_order_diagram--existing_path" d="M39.05,22.93c0.3,0.58,0.37,2.46,0,3.09c-5.8,9.73-13.99,21.68-21.98,29.94c-1.83,1.89,0.46,2.98,1.65,2.59c5-1.61,15.37-3.99,21.79-5.53" id="Ske2u7ulj2q" kvg:type="㇜" transform="matrix(1,0,0,1,896,-4)" xmlns:kvg="http://kanjivg.tagaini.net"></path><path class="stroke_order_diagram--existing_path" d="M37.13,46.38c2.34,2.36,6.04,9.69,6.62,13.35" id="Ske2u7ulj2r" kvg:type="㇔" transform="matrix(1,0,0,1,896,-4)" xmlns:kvg="http://kanjivg.tagaini.net"></path><path class="stroke_order_diagram--existing_path" d="M27.89,59.12c0.07,0.36,0.91,1.85,0.98,4.09C29.18,74,28.67,94,28.67,97.67" id="Ske2u7ulj2s" kvg:type="㇑" transform="matrix(1,0,0,1,896,-4)" xmlns:kvg="http://kanjivg.tagaini.net"></path><path class="stroke_order_diagram--existing_path" d="M19.13,69.35c0.12,0.96,0.1,2.86-0.12,3.55c-1.42,4.5-4.99,13.17-7.01,17.03" id="Ske2u7ulj2t" kvg:type="㇒" transform="matrix(1,0,0,1,896,-4)" xmlns:kvg="http://kanjivg.tagaini.net"></path><path class="stroke_order_diagram--existing_path" d="M36.25,68c3.34,3.54,5.9,11.77,6.67,14.97" id="Ske2u7ulj2u" kvg:type="㇔" transform="matrix(1,0,0,1,896,-4)" xmlns:kvg="http://kanjivg.tagaini.net"></path><path class="stroke_order_diagram--existing_path" d="M47.62,15.86c1.22,0.28,3.46,0.32,4.69,0.28c11.08-0.38,27.86-2.13,35.98-2.32c2.04-0.05,3.26,0.13,4.28,0.27" id="Ske2u7ulj2v" kvg:type="㇐" transform="matrix(1,0,0,1,896,-4)" xmlns:kvg="http://kanjivg.tagaini.net"></path><path class="stroke_order_diagram--existing_path" d="M46.57,28.01c0.28,0.3,1.06,1.54,1.18,1.92c0.96,2.94,2.59,11.05,3.24,16.33" id="Ske2u7ulj2w" kvg:type="㇑" transform="matrix(1,0,0,1,896,-4)" xmlns:kvg="http://kanjivg.tagaini.net"></path><path class="stroke_order_diagram--existing_path" d="M48.13,29.46c7.23-1.36,39.72-3.69,43.45-4.15c1.36-0.17,2.18,1.69,1.99,2.67c-0.81,4.07-1.59,11.17-3.32,17.05" id="Ske2u7ulj2x" kvg:type="㇕" transform="matrix(1,0,0,1,896,-4)" xmlns:kvg="http://kanjivg.tagaini.net"></path><path class="stroke_order_diagram--current_path" d="M61.06,17.86c0.59,0.52,0.99,2.85,1.06,3.91c0.23,3.15,0.77,14.45,1.32,21.79" id="kvg:07e39-s10" kvg:type="㇑" transform="matrix(1,0,0,1,896,-4)" xmlns:kvg="http://kanjivg.tagaini.net"></path><path class="stroke_order_diagram--current_path" d="M61.06,17.86c0.59,0.52,0.99,2.85,1.06,3.91c0.23,3.15,0.77,14.45,1.32,21.79" id="Ske2u7ulj2z" kvg:type="㇑" transform="matrix(1,0,0,1,896,-4)" xmlns:kvg="http://kanjivg.tagaini.net"></path><circle class="stroke_order_diagram--path_start" cx="61.06" cy="17.86" r="4" transform="matrix(1,0,0,1,896,-4)"></circle><line class="stroke_order_diagram--guide_line" x1="1050" x2="1050" y1="1" y2="99"></line><line class="stroke_order_diagram--bounding_box" x1="1099" x2="1099" y1="1" y2="99"></line><path class="stroke_order_diagram--existing_path" d="M28.15,10.67c0.36,1.42,0.38,2.47-0.18,4.01C25.5,21.5,20,28.25,15.18,33.69c-0.67,0.75-0.72,3.27,0,3.54c3.81,1.42,8.14,2.78,11.41,5.38" id="Ske2u7ulj32" kvg:type="㇜" transform="matrix(1,0,0,1,996,-4)" xmlns:kvg="http://kanjivg.tagaini.net"></path><path class="stroke_order_diagram--existing_path" d="M39.05,22.93c0.3,0.58,0.37,2.46,0,3.09c-5.8,9.73-13.99,21.68-21.98,29.94c-1.83,1.89,0.46,2.98,1.65,2.59c5-1.61,15.37-3.99,21.79-5.53" id="Ske2u7ulj33" kvg:type="㇜" transform="matrix(1,0,0,1,996,-4)" xmlns:kvg="http://kanjivg.tagaini.net"></path><path class="stroke_order_diagram--existing_path" d="M37.13,46.38c2.34,2.36,6.04,9.69,6.62,13.35" id="Ske2u7ulj34" kvg:type="㇔" transform="matrix(1,0,0,1,996,-4)" xmlns:kvg="http://kanjivg.tagaini.net"></path><path class="stroke_order_diagram--existing_path" d="M27.89,59.12c0.07,0.36,0.91,1.85,0.98,4.09C29.18,74,28.67,94,28.67,97.67" id="Ske2u7ulj35" kvg:type="㇑" transform="matrix(1,0,0,1,996,-4)" xmlns:kvg="http://kanjivg.tagaini.net"></path><path class="stroke_order_diagram--existing_path" d="M19.13,69.35c0.12,0.96,0.1,2.86-0.12,3.55c-1.42,4.5-4.99,13.17-7.01,17.03" id="Ske2u7ulj36" kvg:type="㇒" transform="matrix(1,0,0,1,996,-4)" xmlns:kvg="http://kanjivg.tagaini.net"></path><path class="stroke_order_diagram--existing_path" d="M36.25,68c3.34,3.54,5.9,11.77,6.67,14.97" id="Ske2u7ulj37" kvg:type="㇔" transform="matrix(1,0,0,1,996,-4)" xmlns:kvg="http://kanjivg.tagaini.net"></path><path class="stroke_order_diagram--existing_path" d="M47.62,15.86c1.22,0.28,3.46,0.32,4.69,0.28c11.08-0.38,27.86-2.13,35.98-2.32c2.04-0.05,3.26,0.13,4.28,0.27" id="Ske2u7ulj38" kvg:type="㇐" transform="matrix(1,0,0,1,996,-4)" xmlns:kvg="http://kanjivg.tagaini.net"></path><path class="stroke_order_diagram--existing_path" d="M46.57,28.01c0.28,0.3,1.06,1.54,1.18,1.92c0.96,2.94,2.59,11.05,3.24,16.33" id="Ske2u7ulj39" kvg:type="㇑" transform="matrix(1,0,0,1,996,-4)" xmlns:kvg="http://kanjivg.tagaini.net"></path><path class="stroke_order_diagram--existing_path" d="M48.13,29.46c7.23-1.36,39.72-3.69,43.45-4.15c1.36-0.17,2.18,1.69,1.99,2.67c-0.81,4.07-1.59,11.17-3.32,17.05" id="Ske2u7ulj3a" kvg:type="㇕" transform="matrix(1,0,0,1,996,-4)" xmlns:kvg="http://kanjivg.tagaini.net"></path><path class="stroke_order_diagram--existing_path" d="M61.06,17.86c0.59,0.52,0.99,2.85,1.06,3.91c0.23,3.15,0.77,14.45,1.32,21.79" id="Ske2u7ulj3b" kvg:type="㇑" transform="matrix(1,0,0,1,996,-4)" xmlns:kvg="http://kanjivg.tagaini.net"></path><path class="stroke_order_diagram--current_path" d="M76.43,16.79c0.38,0.5,1.07,1.74,0.9,3.98c-0.31,4.01-0.29,14.19-1.07,21.66" id="kvg:07e39-s11" kvg:type="㇑" transform="matrix(1,0,0,1,996,-4)" xmlns:kvg="http://kanjivg.tagaini.net"></path><path class="stroke_order_diagram--current_path" d="M76.43,16.79c0.38,0.5,1.07,1.74,0.9,3.98c-0.31,4.01-0.29,14.19-1.07,21.66" id="Ske2u7ulj3d" kvg:type="㇑" transform="matrix(1,0,0,1,996,-4)" xmlns:kvg="http://kanjivg.tagaini.net"></path><circle class="stroke_order_diagram--path_start" cx="76.43" cy="16.79" r="4" transform="matrix(1,0,0,1,996,-4)"></circle><line class="stroke_order_diagram--guide_line" x1="1150" x2="1150" y1="1" y2="99"></line><line class="stroke_order_diagram--bounding_box" x1="1199" x2="1199" y1="1" y2="99"></line><path class="stroke_order_diagram--existing_path" d="M28.15,10.67c0.36,1.42,0.38,2.47-0.18,4.01C25.5,21.5,20,28.25,15.18,33.69c-0.67,0.75-0.72,3.27,0,3.54c3.81,1.42,8.14,2.78,11.41,5.38" id="Ske2u7ulj3g" kvg:type="㇜" transform="matrix(1,0,0,1,1096,-4)" xmlns:kvg="http://kanjivg.tagaini.net"></path><path class="stroke_order_diagram--existing_path" d="M39.05,22.93c0.3,0.58,0.37,2.46,0,3.09c-5.8,9.73-13.99,21.68-21.98,29.94c-1.83,1.89,0.46,2.98,1.65,2.59c5-1.61,15.37-3.99,21.79-5.53" id="Ske2u7ulj3h" kvg:type="㇜" transform="matrix(1,0,0,1,1096,-4)" xmlns:kvg="http://kanjivg.tagaini.net"></path><path class="stroke_order_diagram--existing_path" d="M37.13,46.38c2.34,2.36,6.04,9.69,6.62,13.35" id="Ske2u7ulj3i" kvg:type="㇔" transform="matrix(1,0,0,1,1096,-4)" xmlns:kvg="http://kanjivg.tagaini.net"></path><path class="stroke_order_diagram--existing_path" d="M27.89,59.12c0.07,0.36,0.91,1.85,0.98,4.09C29.18,74,28.67,94,28.67,97.67" id="Ske2u7ulj3j" kvg:type="㇑" transform="matrix(1,0,0,1,1096,-4)" xmlns:kvg="http://kanjivg.tagaini.net"></path><path class="stroke_order_diagram--existing_path" d="M19.13,69.35c0.12,0.96,0.1,2.86-0.12,3.55c-1.42,4.5-4.99,13.17-7.01,17.03" id="Ske2u7ulj3k" kvg:type="㇒" transform="matrix(1,0,0,1,1096,-4)" xmlns:kvg="http://kanjivg.tagaini.net"></path><path class="stroke_order_diagram--existing_path" d="M36.25,68c3.34,3.54,5.9,11.77,6.67,14.97" id="Ske2u7ulj3l" kvg:type="㇔" transform="matrix(1,0,0,1,1096,-4)" xmlns:kvg="http://kanjivg.tagaini.net"></path><path class="stroke_order_diagram--existing_path" d="M47.62,15.86c1.22,0.28,3.46,0.32,4.69,0.28c11.08-0.38,27.86-2.13,35.98-2.32c2.04-0.05,3.26,0.13,4.28,0.27" id="Ske2u7ulj3m" kvg:type="㇐" transform="matrix(1,0,0,1,1096,-4)" xmlns:kvg="http://kanjivg.tagaini.net"></path><path class="stroke_order_diagram--existing_path" d="M46.57,28.01c0.28,0.3,1.06,1.54,1.18,1.92c0.96,2.94,2.59,11.05,3.24,16.33" id="Ske2u7ulj3n" kvg:type="㇑" transform="matrix(1,0,0,1,1096,-4)" xmlns:kvg="http://kanjivg.tagaini.net"></path><path class="stroke_order_diagram--existing_path" d="M48.13,29.46c7.23-1.36,39.72-3.69,43.45-4.15c1.36-0.17,2.18,1.69,1.99,2.67c-0.81,4.07-1.59,11.17-3.32,17.05" id="Ske2u7ulj3o" kvg:type="㇕" transform="matrix(1,0,0,1,1096,-4)" xmlns:kvg="http://kanjivg.tagaini.net"></path><path class="stroke_order_diagram--existing_path" d="M61.06,17.86c0.59,0.52,0.99,2.85,1.06,3.91c0.23,3.15,0.77,14.45,1.32,21.79" id="Ske2u7ulj3p" kvg:type="㇑" transform="matrix(1,0,0,1,1096,-4)" xmlns:kvg="http://kanjivg.tagaini.net"></path><path class="stroke_order_diagram--existing_path" d="M76.43,16.79c0.38,0.5,1.07,1.74,0.9,3.98c-0.31,4.01-0.29,14.19-1.07,21.66" id="Ske2u7ulj3q" kvg:type="㇑" transform="matrix(1,0,0,1,1096,-4)" xmlns:kvg="http://kanjivg.tagaini.net"></path><path class="stroke_order_diagram--current_path" d="M52.23,45.57c4.3-0.48,32-2.95,37.46-3.43" id="kvg:07e39-s12" kvg:type="㇐" transform="matrix(1,0,0,1,1096,-4)" xmlns:kvg="http://kanjivg.tagaini.net"></path><path class="stroke_order_diagram--current_path" d="M52.23,45.57c4.3-0.48,32-2.95,37.46-3.43" id="Ske2u7ulj3s" kvg:type="㇐" transform="matrix(1,0,0,1,1096,-4)" xmlns:kvg="http://kanjivg.tagaini.net"></path><circle class="stroke_order_diagram--path_start" cx="52.23" cy="45.57" r="4" transform="matrix(1,0,0,1,1096,-4)"></circle><line class="stroke_order_diagram--guide_line" x1="1250" x2="1250" y1="1" y2="99"></line><line class="stroke_order_diagram--bounding_box" x1="1299" x2="1299" y1="1" y2="99"></line><path class="stroke_order_diagram--existing_path" d="M28.15,10.67c0.36,1.42,0.38,2.47-0.18,4.01C25.5,21.5,20,28.25,15.18,33.69c-0.67,0.75-0.72,3.27,0,3.54c3.81,1.42,8.14,2.78,11.41,5.38" id="Ske2u7ulj3v" kvg:type="㇜" transform="matrix(1,0,0,1,1196,-4)" xmlns:kvg="http://kanjivg.tagaini.net"></path><path class="stroke_order_diagram--existing_path" d="M39.05,22.93c0.3,0.58,0.37,2.46,0,3.09c-5.8,9.73-13.99,21.68-21.98,29.94c-1.83,1.89,0.46,2.98,1.65,2.59c5-1.61,15.37-3.99,21.79-5.53" id="Ske2u7ulj3w" kvg:type="㇜" transform="matrix(1,0,0,1,1196,-4)" xmlns:kvg="http://kanjivg.tagaini.net"></path><path class="stroke_order_diagram--existing_path" d="M37.13,46.38c2.34,2.36,6.04,9.69,6.62,13.35" id="Ske2u7ulj3x" kvg:type="㇔" transform="matrix(1,0,0,1,1196,-4)" xmlns:kvg="http://kanjivg.tagaini.net"></path><path class="stroke_order_diagram--existing_path" d="M27.89,59.12c0.07,0.36,0.91,1.85,0.98,4.09C29.18,74,28.67,94,28.67,97.67" id="Ske2u7ulj3y" kvg:type="㇑" transform="matrix(1,0,0,1,1196,-4)" xmlns:kvg="http://kanjivg.tagaini.net"></path><path class="stroke_order_diagram--existing_path" d="M19.13,69.35c0.12,0.96,0.1,2.86-0.12,3.55c-1.42,4.5-4.99,13.17-7.01,17.03" id="Ske2u7ulj3z" kvg:type="㇒" transform="matrix(1,0,0,1,1196,-4)" xmlns:kvg="http://kanjivg.tagaini.net"></path><path class="stroke_order_diagram--existing_path" d="M36.25,68c3.34,3.54,5.9,11.77,6.67,14.97" id="Ske2u7ulj40" kvg:type="㇔" transform="matrix(1,0,0,1,1196,-4)" xmlns:kvg="http://kanjivg.tagaini.net"></path><path class="stroke_order_diagram--existing_path" d="M47.62,15.86c1.22,0.28,3.46,0.32,4.69,0.28c11.08-0.38,27.86-2.13,35.98-2.32c2.04-0.05,3.26,0.13,4.28,0.27" id="Ske2u7ulj41" kvg:type="㇐" transform="matrix(1,0,0,1,1196,-4)" xmlns:kvg="http://kanjivg.tagaini.net"></path><path class="stroke_order_diagram--existing_path" d="M46.57,28.01c0.28,0.3,1.06,1.54,1.18,1.92c0.96,2.94,2.59,11.05,3.24,16.33" id="Ske2u7ulj42" kvg:type="㇑" transform="matrix(1,0,0,1,1196,-4)" xmlns:kvg="http://kanjivg.tagaini.net"></path><path class="stroke_order_diagram--existing_path" d="M48.13,29.46c7.23-1.36,39.72-3.69,43.45-4.15c1.36-0.17,2.18,1.69,1.99,2.67c-0.81,4.07-1.59,11.17-3.32,17.05" id="Ske2u7ulj43" kvg:type="㇕" transform="matrix(1,0,0,1,1196,-4)" xmlns:kvg="http://kanjivg.tagaini.net"></path><path class="stroke_order_diagram--existing_path" d="M61.06,17.86c0.59,0.52,0.99,2.85,1.06,3.91c0.23,3.15,0.77,14.45,1.32,21.79" id="Ske2u7ulj44" kvg:type="㇑" transform="matrix(1,0,0,1,1196,-4)" xmlns:kvg="http://kanjivg.tagaini.net"></path><path class="stroke_order_diagram--existing_path" d="M76.43,16.79c0.38,0.5,1.07,1.74,0.9,3.98c-0.31,4.01-0.29,14.19-1.07,21.66" id="Ske2u7ulj45" kvg:type="㇑" transform="matrix(1,0,0,1,1196,-4)" xmlns:kvg="http://kanjivg.tagaini.net"></path><path class="stroke_order_diagram--existing_path" d="M52.23,45.57c4.3-0.48,32-2.95,37.46-3.43" id="Ske2u7ulj46" kvg:type="㇐" transform="matrix(1,0,0,1,1196,-4)" xmlns:kvg="http://kanjivg.tagaini.net"></path><path class="stroke_order_diagram--current_path" d="M56.19,56.54c0.86,0.31,2.45,0.39,3.31,0.31c5.5-0.53,16.36-1.87,22.68-1.94c1.44-0.02,2.3,0.15,3.02,0.3" id="kvg:07e39-s13" kvg:type="㇐" transform="matrix(1,0,0,1,1196,-4)" xmlns:kvg="http://kanjivg.tagaini.net"></path><path class="stroke_order_diagram--current_path" d="M56.19,56.54c0.86,0.31,2.45,0.39,3.31,0.31c5.5-0.53,16.36-1.87,22.68-1.94c1.44-0.02,2.3,0.15,3.02,0.3" id="Ske2u7ulj48" kvg:type="㇐" transform="matrix(1,0,0,1,1196,-4)" xmlns:kvg="http://kanjivg.tagaini.net"></path><circle class="stroke_order_diagram--path_start" cx="56.19" cy="56.54" r="4" transform="matrix(1,0,0,1,1196,-4)"></circle><line class="stroke_order_diagram--guide_line" x1="1350" x2="1350" y1="1" y2="99"></line><line class="stroke_order_diagram--bounding_box" x1="1399" x2="1399" y1="1" y2="99"></line><path class="stroke_order_diagram--existing_path" d="M28.15,10.67c0.36,1.42,0.38,2.47-0.18,4.01C25.5,21.5,20,28.25,15.18,33.69c-0.67,0.75-0.72,3.27,0,3.54c3.81,1.42,8.14,2.78,11.41,5.38" id="Ske2u7ulj4b" kvg:type="㇜" transform="matrix(1,0,0,1,1296,-4)" xmlns:kvg="http://kanjivg.tagaini.net"></path><path class="stroke_order_diagram--existing_path" d="M39.05,22.93c0.3,0.58,0.37,2.46,0,3.09c-5.8,9.73-13.99,21.68-21.98,29.94c-1.83,1.89,0.46,2.98,1.65,2.59c5-1.61,15.37-3.99,21.79-5.53" id="Ske2u7ulj4c" kvg:type="㇜" transform="matrix(1,0,0,1,1296,-4)" xmlns:kvg="http://kanjivg.tagaini.net"></path><path class="stroke_order_diagram--existing_path" d="M37.13,46.38c2.34,2.36,6.04,9.69,6.62,13.35" id="Ske2u7ulj4d" kvg:type="㇔" transform="matrix(1,0,0,1,1296,-4)" xmlns:kvg="http://kanjivg.tagaini.net"></path><path class="stroke_order_diagram--existing_path" d="M27.89,59.12c0.07,0.36,0.91,1.85,0.98,4.09C29.18,74,28.67,94,28.67,97.67" id="Ske2u7ulj4e" kvg:type="㇑" transform="matrix(1,0,0,1,1296,-4)" xmlns:kvg="http://kanjivg.tagaini.net"></path><path class="stroke_order_diagram--existing_path" d="M19.13,69.35c0.12,0.96,0.1,2.86-0.12,3.55c-1.42,4.5-4.99,13.17-7.01,17.03" id="Ske2u7ulj4f" kvg:type="㇒" transform="matrix(1,0,0,1,1296,-4)" xmlns:kvg="http://kanjivg.tagaini.net"></path><path class="stroke_order_diagram--existing_path" d="M36.25,68c3.34,3.54,5.9,11.77,6.67,14.97" id="Ske2u7ulj4g" kvg:type="㇔" transform="matrix(1,0,0,1,1296,-4)" xmlns:kvg="http://kanjivg.tagaini.net"></path><path class="stroke_order_diagram--existing_path" d="M47.62,15.86c1.22,0.28,3.46,0.32,4.69,0.28c11.08-0.38,27.86-2.13,35.98-2.32c2.04-0.05,3.26,0.13,4.28,0.27" id="Ske2u7ulj4h" kvg:type="㇐" transform="matrix(1,0,0,1,1296,-4)" xmlns:kvg="http://kanjivg.tagaini.net"></path><path class="stroke_order_diagram--existing_path" d="M46.57,28.01c0.28,0.3,1.06,1.54,1.18,1.92c0.96,2.94,2.59,11.05,3.24,16.33" id="Ske2u7ulj4i" kvg:type="㇑" transform="matrix(1,0,0,1,1296,-4)" xmlns:kvg="http://kanjivg.tagaini.net"></path><path class="stroke_order_diagram--existing_path" d="M48.13,29.46c7.23-1.36,39.72-3.69,43.45-4.15c1.36-0.17,2.18,1.69,1.99,2.67c-0.81,4.07-1.59,11.17-3.32,17.05" id="Ske2u7ulj4j" kvg:type="㇕" transform="matrix(1,0,0,1,1296,-4)" xmlns:kvg="http://kanjivg.tagaini.net"></path><path class="stroke_order_diagram--existing_path" d="M61.06,17.86c0.59,0.52,0.99,2.85,1.06,3.91c0.23,3.15,0.77,14.45,1.32,21.79" id="Ske2u7ulj4k" kvg:type="㇑" transform="matrix(1,0,0,1,1296,-4)" xmlns:kvg="http://kanjivg.tagaini.net"></path><path class="stroke_order_diagram--existing_path" d="M76.43,16.79c0.38,0.5,1.07,1.74,0.9,3.98c-0.31,4.01-0.29,14.19-1.07,21.66" id="Ske2u7ulj4l" kvg:type="㇑" transform="matrix(1,0,0,1,1296,-4)" xmlns:kvg="http://kanjivg.tagaini.net"></path><path class="stroke_order_diagram--existing_path" d="M52.23,45.57c4.3-0.48,32-2.95,37.46-3.43" id="Ske2u7ulj4m" kvg:type="㇐" transform="matrix(1,0,0,1,1296,-4)" xmlns:kvg="http://kanjivg.tagaini.net"></path><path class="stroke_order_diagram--existing_path" d="M56.19,56.54c0.86,0.31,2.45,0.39,3.31,0.31c5.5-0.53,16.36-1.87,22.68-1.94c1.44-0.02,2.3,0.15,3.02,0.3" id="Ske2u7ulj4n" kvg:type="㇐" transform="matrix(1,0,0,1,1296,-4)" xmlns:kvg="http://kanjivg.tagaini.net"></path><path class="stroke_order_diagram--current_path" d="M48.5,68c1.22,0.47,3.46,0.54,4.68,0.47c9.05-0.57,25.81-2.38,39.05-2.98c2.03-0.09,3.25,0.22,4.27,0.45" id="kvg:07e39-s14" kvg:type="㇐" transform="matrix(1,0,0,1,1296,-4)" xmlns:kvg="http://kanjivg.tagaini.net"></path><path class="stroke_order_diagram--current_path" d="M48.5,68c1.22,0.47,3.46,0.54,4.68,0.47c9.05-0.57,25.81-2.38,39.05-2.98c2.03-0.09,3.25,0.22,4.27,0.45" id="Ske2u7ulj4p" kvg:type="㇐" transform="matrix(1,0,0,1,1296,-4)" xmlns:kvg="http://kanjivg.tagaini.net"></path><circle class="stroke_order_diagram--path_start" cx="48.5" cy="68" r="4" transform="matrix(1,0,0,1,1296,-4)"></circle><line class="stroke_order_diagram--guide_line" x1="1450" x2="1450" y1="1" y2="99"></line><line class="stroke_order_diagram--bounding_box" x1="1499" x2="1499" y1="1" y2="99"></line><path class="stroke_order_diagram--existing_path" d="M28.15,10.67c0.36,1.42,0.38,2.47-0.18,4.01C25.5,21.5,20,28.25,15.18,33.69c-0.67,0.75-0.72,3.27,0,3.54c3.81,1.42,8.14,2.78,11.41,5.38" id="Ske2u7ulj4s" kvg:type="㇜" transform="matrix(1,0,0,1,1396,-4)" xmlns:kvg="http://kanjivg.tagaini.net"></path><path class="stroke_order_diagram--existing_path" d="M39.05,22.93c0.3,0.58,0.37,2.46,0,3.09c-5.8,9.73-13.99,21.68-21.98,29.94c-1.83,1.89,0.46,2.98,1.65,2.59c5-1.61,15.37-3.99,21.79-5.53" id="Ske2u7ulj4t" kvg:type="㇜" transform="matrix(1,0,0,1,1396,-4)" xmlns:kvg="http://kanjivg.tagaini.net"></path><path class="stroke_order_diagram--existing_path" d="M37.13,46.38c2.34,2.36,6.04,9.69,6.62,13.35" id="Ske2u7ulj4u" kvg:type="㇔" transform="matrix(1,0,0,1,1396,-4)" xmlns:kvg="http://kanjivg.tagaini.net"></path><path class="stroke_order_diagram--existing_path" d="M27.89,59.12c0.07,0.36,0.91,1.85,0.98,4.09C29.18,74,28.67,94,28.67,97.67" id="Ske2u7ulj4v" kvg:type="㇑" transform="matrix(1,0,0,1,1396,-4)" xmlns:kvg="http://kanjivg.tagaini.net"></path><path class="stroke_order_diagram--existing_path" d="M19.13,69.35c0.12,0.96,0.1,2.86-0.12,3.55c-1.42,4.5-4.99,13.17-7.01,17.03" id="Ske2u7ulj4w" kvg:type="㇒" transform="matrix(1,0,0,1,1396,-4)" xmlns:kvg="http://kanjivg.tagaini.net"></path><path class="stroke_order_diagram--existing_path" d="M36.25,68c3.34,3.54,5.9,11.77,6.67,14.97" id="Ske2u7ulj4x" kvg:type="㇔" transform="matrix(1,0,0,1,1396,-4)" xmlns:kvg="http://kanjivg.tagaini.net"></path><path class="stroke_order_diagram--existing_path" d="M47.62,15.86c1.22,0.28,3.46,0.32,4.69,0.28c11.08-0.38,27.86-2.13,35.98-2.32c2.04-0.05,3.26,0.13,4.28,0.27" id="Ske2u7ulj4y" kvg:type="㇐" transform="matrix(1,0,0,1,1396,-4)" xmlns:kvg="http://kanjivg.tagaini.net"></path><path class="stroke_order_diagram--existing_path" d="M46.57,28.01c0.28,0.3,1.06,1.54,1.18,1.92c0.96,2.94,2.59,11.05,3.24,16.33" id="Ske2u7ulj4z" kvg:type="㇑" transform="matrix(1,0,0,1,1396,-4)" xmlns:kvg="http://kanjivg.tagaini.net"></path><path class="stroke_order_diagram--existing_path" d="M48.13,29.46c7.23-1.36,39.72-3.69,43.45-4.15c1.36-0.17,2.18,1.69,1.99,2.67c-0.81,4.07-1.59,11.17-3.32,17.05" id="Ske2u7ulj50" kvg:type="㇕" transform="matrix(1,0,0,1,1396,-4)" xmlns:kvg="http://kanjivg.tagaini.net"></path><path class="stroke_order_diagram--existing_path" d="M61.06,17.86c0.59,0.52,0.99,2.85,1.06,3.91c0.23,3.15,0.77,14.45,1.32,21.79" id="Ske2u7ulj51" kvg:type="㇑" transform="matrix(1,0,0,1,1396,-4)" xmlns:kvg="http://kanjivg.tagaini.net"></path><path class="stroke_order_diagram--existing_path" d="M76.43,16.79c0.38,0.5,1.07,1.74,0.9,3.98c-0.31,4.01-0.29,14.19-1.07,21.66" id="Ske2u7ulj52" kvg:type="㇑" transform="matrix(1,0,0,1,1396,-4)" xmlns:kvg="http://kanjivg.tagaini.net"></path><path class="stroke_order_diagram--existing_path" d="M52.23,45.57c4.3-0.48,32-2.95,37.46-3.43" id="Ske2u7ulj53" kvg:type="㇐" transform="matrix(1,0,0,1,1396,-4)" xmlns:kvg="http://kanjivg.tagaini.net"></path><path class="stroke_order_diagram--existing_path" d="M56.19,56.54c0.86,0.31,2.45,0.39,3.31,0.31c5.5-0.53,16.36-1.87,22.68-1.94c1.44-0.02,2.3,0.15,3.02,0.3" id="Ske2u7ulj54" kvg:type="㇐" transform="matrix(1,0,0,1,1396,-4)" xmlns:kvg="http://kanjivg.tagaini.net"></path><path class="stroke_order_diagram--existing_path" d="M48.5,68c1.22,0.47,3.46,0.54,4.68,0.47c9.05-0.57,25.81-2.38,39.05-2.98c2.03-0.09,3.25,0.22,4.27,0.45" id="Ske2u7ulj55" kvg:type="㇐" transform="matrix(1,0,0,1,1396,-4)" xmlns:kvg="http://kanjivg.tagaini.net"></path><path class="stroke_order_diagram--current_path" d="M69.46,69.36c0.79,0.89,1.42,2.39,1.42,3.84c0,7.59-0.01,12.8-0.01,18.04c0,7.23-5.14,2.68-7.25,0.31" id="kvg:07e39-s15" kvg:type="㇑" transform="matrix(1,0,0,1,1396,-4)" xmlns:kvg="http://kanjivg.tagaini.net"></path><path class="stroke_order_diagram--current_path" d="M69.46,69.36c0.79,0.89,1.42,2.39,1.42,3.84c0,7.59-0.01,12.8-0.01,18.04c0,7.23-5.14,2.68-7.25,0.31" id="Ske2u7ulj57" kvg:type="㇑" transform="matrix(1,0,0,1,1396,-4)" xmlns:kvg="http://kanjivg.tagaini.net"></path><circle class="stroke_order_diagram--path_start" cx="69.46" cy="69.36" r="4" transform="matrix(1,0,0,1,1396,-4)"></circle><line class="stroke_order_diagram--guide_line" x1="1550" x2="1550" y1="1" y2="99"></line><line class="stroke_order_diagram--bounding_box" x1="1599" x2="1599" y1="1" y2="99"></line><path class="stroke_order_diagram--existing_path" d="M28.15,10.67c0.36,1.42,0.38,2.47-0.18,4.01C25.5,21.5,20,28.25,15.18,33.69c-0.67,0.75-0.72,3.27,0,3.54c3.81,1.42,8.14,2.78,11.41,5.38" id="Ske2u7ulj5a" kvg:type="㇜" transform="matrix(1,0,0,1,1496,-4)" xmlns:kvg="http://kanjivg.tagaini.net"></path><path class="stroke_order_diagram--existing_path" d="M39.05,22.93c0.3,0.58,0.37,2.46,0,3.09c-5.8,9.73-13.99,21.68-21.98,29.94c-1.83,1.89,0.46,2.98,1.65,2.59c5-1.61,15.37-3.99,21.79-5.53" id="Ske2u7ulj5b" kvg:type="㇜" transform="matrix(1,0,0,1,1496,-4)" xmlns:kvg="http://kanjivg.tagaini.net"></path><path class="stroke_order_diagram--existing_path" d="M37.13,46.38c2.34,2.36,6.04,9.69,6.62,13.35" id="Ske2u7ulj5c" kvg:type="㇔" transform="matrix(1,0,0,1,1496,-4)" xmlns:kvg="http://kanjivg.tagaini.net"></path><path class="stroke_order_diagram--existing_path" d="M27.89,59.12c0.07,0.36,0.91,1.85,0.98,4.09C29.18,74,28.67,94,28.67,97.67" id="Ske2u7ulj5d" kvg:type="㇑" transform="matrix(1,0,0,1,1496,-4)" xmlns:kvg="http://kanjivg.tagaini.net"></path><path class="stroke_order_diagram--existing_path" d="M19.13,69.35c0.12,0.96,0.1,2.86-0.12,3.55c-1.42,4.5-4.99,13.17-7.01,17.03" id="Ske2u7ulj5e" kvg:type="㇒" transform="matrix(1,0,0,1,1496,-4)" xmlns:kvg="http://kanjivg.tagaini.net"></path><path class="stroke_order_diagram--existing_path" d="M36.25,68c3.34,3.54,5.9,11.77,6.67,14.97" id="Ske2u7ulj5f" kvg:type="㇔" transform="matrix(1,0,0,1,1496,-4)" xmlns:kvg="http://kanjivg.tagaini.net"></path><path class="stroke_order_diagram--existing_path" d="M47.62,15.86c1.22,0.28,3.46,0.32,4.69,0.28c11.08-0.38,27.86-2.13,35.98-2.32c2.04-0.05,3.26,0.13,4.28,0.27" id="Ske2u7ulj5g" kvg:type="㇐" transform="matrix(1,0,0,1,1496,-4)" xmlns:kvg="http://kanjivg.tagaini.net"></path><path class="stroke_order_diagram--existing_path" d="M46.57,28.01c0.28,0.3,1.06,1.54,1.18,1.92c0.96,2.94,2.59,11.05,3.24,16.33" id="Ske2u7ulj5h" kvg:type="㇑" transform="matrix(1,0,0,1,1496,-4)" xmlns:kvg="http://kanjivg.tagaini.net"></path><path class="stroke_order_diagram--existing_path" d="M48.13,29.46c7.23-1.36,39.72-3.69,43.45-4.15c1.36-0.17,2.18,1.69,1.99,2.67c-0.81,4.07-1.59,11.17-3.32,17.05" id="Ske2u7ulj5i" kvg:type="㇕" transform="matrix(1,0,0,1,1496,-4)" xmlns:kvg="http://kanjivg.tagaini.net"></path><path class="stroke_order_diagram--existing_path" d="M61.06,17.86c0.59,0.52,0.99,2.85,1.06,3.91c0.23,3.15,0.77,14.45,1.32,21.79" id="Ske2u7ulj5j" kvg:type="㇑" transform="matrix(1,0,0,1,1496,-4)" xmlns:kvg="http://kanjivg.tagaini.net"></path><path class="stroke_order_diagram--existing_path" d="M76.43,16.79c0.38,0.5,1.07,1.74,0.9,3.98c-0.31,4.01-0.29,14.19-1.07,21.66" id="Ske2u7ulj5k" kvg:type="㇑" transform="matrix(1,0,0,1,1496,-4)" xmlns:kvg="http://kanjivg.tagaini.net"></path><path class="stroke_order_diagram--existing_path" d="M52.23,45.57c4.3-0.48,32-2.95,37.46-3.43" id="Ske2u7ulj5l" kvg:type="㇐" transform="matrix(1,0,0,1,1496,-4)" xmlns:kvg="http://kanjivg.tagaini.net"></path><path class="stroke_order_diagram--existing_path" d="M56.19,56.54c0.86,0.31,2.45,0.39,3.31,0.31c5.5-0.53,16.36-1.87,22.68-1.94c1.44-0.02,2.3,0.15,3.02,0.3" id="Ske2u7ulj5m" kvg:type="㇐" transform="matrix(1,0,0,1,1496,-4)" xmlns:kvg="http://kanjivg.tagaini.net"></path><path class="stroke_order_diagram--existing_path" d="M48.5,68c1.22,0.47,3.46,0.54,4.68,0.47c9.05-0.57,25.81-2.38,39.05-2.98c2.03-0.09,3.25,0.22,4.27,0.45" id="Ske2u7ulj5n" kvg:type="㇐" transform="matrix(1,0,0,1,1496,-4)" xmlns:kvg="http://kanjivg.tagaini.net"></path><path class="stroke_order_diagram--existing_path" d="M69.46,69.36c0.79,0.89,1.42,2.39,1.42,3.84c0,7.59-0.01,12.8-0.01,18.04c0,7.23-5.14,2.68-7.25,0.31" id="Ske2u7ulj5o" kvg:type="㇑" transform="matrix(1,0,0,1,1496,-4)" xmlns:kvg="http://kanjivg.tagaini.net"></path><path class="stroke_order_diagram--current_path" d="M57.49,77.75c0.04,0.44,0.07,1.13-0.07,1.77c-0.86,3.72-6.4,9.3-15.17,14.73" id="kvg:07e39-s16" kvg:type="㇒" transform="matrix(1,0,0,1,1496,-4)" xmlns:kvg="http://kanjivg.tagaini.net"></path><path class="stroke_order_diagram--current_path" d="M57.49,77.75c0.04,0.44,0.07,1.13-0.07,1.77c-0.86,3.72-6.4,9.3-15.17,14.73" id="Ske2u7ulj5q" kvg:type="㇒" transform="matrix(1,0,0,1,1496,-4)" xmlns:kvg="http://kanjivg.tagaini.net"></path><circle class="stroke_order_diagram--path_start" cx="57.49" cy="77.75" r="4" transform="matrix(1,0,0,1,1496,-4)"></circle><line class="stroke_order_diagram--guide_line" x1="1650" x2="1650" y1="1" y2="99"></line><line class="stroke_order_diagram--bounding_box" x1="1699" x2="1699" y1="1" y2="99"></line><path class="stroke_order_diagram--existing_path" d="M28.15,10.67c0.36,1.42,0.38,2.47-0.18,4.01C25.5,21.5,20,28.25,15.18,33.69c-0.67,0.75-0.72,3.27,0,3.54c3.81,1.42,8.14,2.78,11.41,5.38" id="Ske2u7ulj5t" kvg:type="㇜" transform="matrix(1,0,0,1,1596,-4)" xmlns:kvg="http://kanjivg.tagaini.net"></path><path class="stroke_order_diagram--existing_path" d="M39.05,22.93c0.3,0.58,0.37,2.46,0,3.09c-5.8,9.73-13.99,21.68-21.98,29.94c-1.83,1.89,0.46,2.98,1.65,2.59c5-1.61,15.37-3.99,21.79-5.53" id="Ske2u7ulj5u" kvg:type="㇜" transform="matrix(1,0,0,1,1596,-4)" xmlns:kvg="http://kanjivg.tagaini.net"></path><path class="stroke_order_diagram--existing_path" d="M37.13,46.38c2.34,2.36,6.04,9.69,6.62,13.35" id="Ske2u7ulj5v" kvg:type="㇔" transform="matrix(1,0,0,1,1596,-4)" xmlns:kvg="http://kanjivg.tagaini.net"></path><path class="stroke_order_diagram--existing_path" d="M27.89,59.12c0.07,0.36,0.91,1.85,0.98,4.09C29.18,74,28.67,94,28.67,97.67" id="Ske2u7ulj5w" kvg:type="㇑" transform="matrix(1,0,0,1,1596,-4)" xmlns:kvg="http://kanjivg.tagaini.net"></path><path class="stroke_order_diagram--existing_path" d="M19.13,69.35c0.12,0.96,0.1,2.86-0.12,3.55c-1.42,4.5-4.99,13.17-7.01,17.03" id="Ske2u7ulj5x" kvg:type="㇒" transform="matrix(1,0,0,1,1596,-4)" xmlns:kvg="http://kanjivg.tagaini.net"></path><path class="stroke_order_diagram--existing_path" d="M36.25,68c3.34,3.54,5.9,11.77,6.67,14.97" id="Ske2u7ulj5y" kvg:type="㇔" transform="matrix(1,0,0,1,1596,-4)" xmlns:kvg="http://kanjivg.tagaini.net"></path><path class="stroke_order_diagram--existing_path" d="M47.62,15.86c1.22,0.28,3.46,0.32,4.69,0.28c11.08-0.38,27.86-2.13,35.98-2.32c2.04-0.05,3.26,0.13,4.28,0.27" id="Ske2u7ulj5z" kvg:type="㇐" transform="matrix(1,0,0,1,1596,-4)" xmlns:kvg="http://kanjivg.tagaini.net"></path><path class="stroke_order_diagram--existing_path" d="M46.57,28.01c0.28,0.3,1.06,1.54,1.18,1.92c0.96,2.94,2.59,11.05,3.24,16.33" id="Ske2u7ulj60" kvg:type="㇑" transform="matrix(1,0,0,1,1596,-4)" xmlns:kvg="http://kanjivg.tagaini.net"></path><path class="stroke_order_diagram--existing_path" d="M48.13,29.46c7.23-1.36,39.72-3.69,43.45-4.15c1.36-0.17,2.18,1.69,1.99,2.67c-0.81,4.07-1.59,11.17-3.32,17.05" id="Ske2u7ulj61" kvg:type="㇕" transform="matrix(1,0,0,1,1596,-4)" xmlns:kvg="http://kanjivg.tagaini.net"></path><path class="stroke_order_diagram--existing_path" d="M61.06,17.86c0.59,0.52,0.99,2.85,1.06,3.91c0.23,3.15,0.77,14.45,1.32,21.79" id="Ske2u7ulj62" kvg:type="㇑" transform="matrix(1,0,0,1,1596,-4)" xmlns:kvg="http://kanjivg.tagaini.net"></path><path class="stroke_order_diagram--existing_path" d="M76.43,16.79c0.38,0.5,1.07,1.74,0.9,3.98c-0.31,4.01-0.29,14.19-1.07,21.66" id="Ske2u7ulj63" kvg:type="㇑" transform="matrix(1,0,0,1,1596,-4)" xmlns:kvg="http://kanjivg.tagaini.net"></path><path class="stroke_order_diagram--existing_path" d="M52.23,45.57c4.3-0.48,32-2.95,37.46-3.43" id="Ske2u7ulj64" kvg:type="㇐" transform="matrix(1,0,0,1,1596,-4)" xmlns:kvg="http://kanjivg.tagaini.net"></path><path class="stroke_order_diagram--existing_path" d="M56.19,56.54c0.86,0.31,2.45,0.39,3.31,0.31c5.5-0.53,16.36-1.87,22.68-1.94c1.44-0.02,2.3,0.15,3.02,0.3" id="Ske2u7ulj65" kvg:type="㇐" transform="matrix(1,0,0,1,1596,-4)" xmlns:kvg="http://kanjivg.tagaini.net"></path><path class="stroke_order_diagram--existing_path" d="M48.5,68c1.22,0.47,3.46,0.54,4.68,0.47c9.05-0.57,25.81-2.38,39.05-2.98c2.03-0.09,3.25,0.22,4.27,0.45" id="Ske2u7ulj66" kvg:type="㇐" transform="matrix(1,0,0,1,1596,-4)" xmlns:kvg="http://kanjivg.tagaini.net"></path><path class="stroke_order_diagram--existing_path" d="M69.46,69.36c0.79,0.89,1.42,2.39,1.42,3.84c0,7.59-0.01,12.8-0.01,18.04c0,7.23-5.14,2.68-7.25,0.31" id="Ske2u7ulj67" kvg:type="㇑" transform="matrix(1,0,0,1,1596,-4)" xmlns:kvg="http://kanjivg.tagaini.net"></path><path class="stroke_order_diagram--existing_path" d="M57.49,77.75c0.04,0.44,0.07,1.13-0.07,1.77c-0.86,3.72-6.4,9.3-15.17,14.73" id="Ske2u7ulj68" kvg:type="㇒" transform="matrix(1,0,0,1,1596,-4)" xmlns:kvg="http://kanjivg.tagaini.net"></path><path class="stroke_order_diagram--current_path" d="M81.75,77.75C86,80.36,92.94,88.19,94,92.25" id="kvg:07e39-s17" kvg:type="㇔" transform="matrix(1,0,0,1,1596,-4)" xmlns:kvg="http://kanjivg.tagaini.net"></path><path class="stroke_order_diagram--current_path" d="M81.75,77.75C86,80.36,92.94,88.19,94,92.25" id="Ske2u7ulj6a" kvg:type="㇔" transform="matrix(1,0,0,1,1596,-4)" xmlns:kvg="http://kanjivg.tagaini.net"></path><circle class="stroke_order_diagram--path_start" cx="81.75" cy="77.75" r="4" transform="matrix(1,0,0,1,1596,-4)"></circle></svg>