<svg class="stroke_order_diagram--svg_container_for_518662b6d5dda7965800139f" style="height: 100px; width: 2100px;" viewbox="0 0 2100 100"><desc>Created with Snap</desc><defs></defs><line class="stroke_order_diagram--bounding_box" x1="1" x2="2099" y1="1" y2="1"></line><line class="stroke_order_diagram--bounding_box" x1="1" x2="1" y1="1" y2="99"></line><line class="stroke_order_diagram--bounding_box" x1="1" x2="2099" y1="99" y2="99"></line><line class="stroke_order_diagram--guide_line" x1="0" x2="2100" y1="50" y2="50"></line><line class="stroke_order_diagram--guide_line" x1="50" x2="50" y1="1" y2="99"></line><line class="stroke_order_diagram--bounding_box" x1="99" x2="99" y1="1" y2="99"></line><path class="stroke_order_diagram--current_path" d="M29.26,15.25c0.3,1.18,0.57,2.18-0.15,3.35c-3.16,5.12-9.44,14.61-12.45,17.37c-0.62,0.56-0.6,2.73,0,2.95c3.16,1.18,8.13,3.15,10.84,5.32" id="kvg:07e8c-s1" kvg:type="㇜" transform="matrix(1,0,0,1,-4,-4)" xmlns:kvg="http://kanjivg.tagaini.net"></path><path class="stroke_order_diagram--current_path" d="M29.26,15.25c0.3,1.18,0.57,2.18-0.15,3.35c-3.16,5.12-9.44,14.61-12.45,17.37c-0.62,0.56-0.6,2.73,0,2.95c3.16,1.18,8.13,3.15,10.84,5.32" id="Ske2uef7au" kvg:type="㇜" transform="matrix(1,0,0,1,-4,-4)" xmlns:kvg="http://kanjivg.tagaini.net"></path><circle class="stroke_order_diagram--path_start" cx="29.26" cy="15.25" r="4" transform="matrix(1,0,0,1,-4,-4)"></circle><line class="stroke_order_diagram--guide_line" x1="150" x2="150" y1="1" y2="99"></line><line class="stroke_order_diagram--bounding_box" x1="199" x2="199" y1="1" y2="99"></line><path class="stroke_order_diagram--existing_path" d="M29.26,15.25c0.3,1.18,0.57,2.18-0.15,3.35c-3.16,5.12-9.44,14.61-12.45,17.37c-0.62,0.56-0.6,2.73,0,2.95c3.16,1.18,8.13,3.15,10.84,5.32" id="Ske2uef7ax" kvg:type="㇜" transform="matrix(1,0,0,1,96,-4)" xmlns:kvg="http://kanjivg.tagaini.net"></path><path class="stroke_order_diagram--current_path" d="M37,27.5c0.28,0.58,0.37,2.46,0,3.07c-5.43,9.02-13.49,18.95-20.94,27.17c-1.71,1.88,0.42,2.96,1.54,2.58c4.67-1.6,13.89-3.4,19.88-4.93" id="kvg:07e8c-s2" kvg:type="㇜" transform="matrix(1,0,0,1,96,-4)" xmlns:kvg="http://kanjivg.tagaini.net"></path><path class="stroke_order_diagram--current_path" d="M37,27.5c0.28,0.58,0.37,2.46,0,3.07c-5.43,9.02-13.49,18.95-20.94,27.17c-1.71,1.88,0.42,2.96,1.54,2.58c4.67-1.6,13.89-3.4,19.88-4.93" id="Ske2uef7az" kvg:type="㇜" transform="matrix(1,0,0,1,96,-4)" xmlns:kvg="http://kanjivg.tagaini.net"></path><circle class="stroke_order_diagram--path_start" cx="37" cy="27.5" r="4" transform="matrix(1,0,0,1,96,-4)"></circle><line class="stroke_order_diagram--guide_line" x1="250" x2="250" y1="1" y2="99"></line><line class="stroke_order_diagram--bounding_box" x1="299" x2="299" y1="1" y2="99"></line><path class="stroke_order_diagram--existing_path" d="M29.26,15.25c0.3,1.18,0.57,2.18-0.15,3.35c-3.16,5.12-9.44,14.61-12.45,17.37c-0.62,0.56-0.6,2.73,0,2.95c3.16,1.18,8.13,3.15,10.84,5.32" id="Ske2uef7a12" kvg:type="㇜" transform="matrix(1,0,0,1,196,-4)" xmlns:kvg="http://kanjivg.tagaini.net"></path><path class="stroke_order_diagram--existing_path" d="M37,27.5c0.28,0.58,0.37,2.46,0,3.07c-5.43,9.02-13.49,18.95-20.94,27.17c-1.71,1.88,0.42,2.96,1.54,2.58c4.67-1.6,13.89-3.4,19.88-4.93" id="Ske2uef7a13" kvg:type="㇜" transform="matrix(1,0,0,1,196,-4)" xmlns:kvg="http://kanjivg.tagaini.net"></path><path class="stroke_order_diagram--current_path" d="M32.75,48.25c2.47,2.16,6.38,8.89,7,12.25" id="kvg:07e8c-s3" kvg:type="㇔" transform="matrix(1,0,0,1,196,-4)" xmlns:kvg="http://kanjivg.tagaini.net"></path><path class="stroke_order_diagram--current_path" d="M32.75,48.25c2.47,2.16,6.38,8.89,7,12.25" id="Ske2uef7a15" kvg:type="㇔" transform="matrix(1,0,0,1,196,-4)" xmlns:kvg="http://kanjivg.tagaini.net"></path><circle class="stroke_order_diagram--path_start" cx="32.75" cy="48.25" r="4" transform="matrix(1,0,0,1,196,-4)"></circle><line class="stroke_order_diagram--guide_line" x1="350" x2="350" y1="1" y2="99"></line><line class="stroke_order_diagram--bounding_box" x1="399" x2="399" y1="1" y2="99"></line><path class="stroke_order_diagram--existing_path" d="M29.26,15.25c0.3,1.18,0.57,2.18-0.15,3.35c-3.16,5.12-9.44,14.61-12.45,17.37c-0.62,0.56-0.6,2.73,0,2.95c3.16,1.18,8.13,3.15,10.84,5.32" id="Ske2uef7a18" kvg:type="㇜" transform="matrix(1,0,0,1,296,-4)" xmlns:kvg="http://kanjivg.tagaini.net"></path><path class="stroke_order_diagram--existing_path" d="M37,27.5c0.28,0.58,0.37,2.46,0,3.07c-5.43,9.02-13.49,18.95-20.94,27.17c-1.71,1.88,0.42,2.96,1.54,2.58c4.67-1.6,13.89-3.4,19.88-4.93" id="Ske2uef7a19" kvg:type="㇜" transform="matrix(1,0,0,1,296,-4)" xmlns:kvg="http://kanjivg.tagaini.net"></path><path class="stroke_order_diagram--existing_path" d="M32.75,48.25c2.47,2.16,6.38,8.89,7,12.25" id="Ske2uef7a1a" kvg:type="㇔" transform="matrix(1,0,0,1,296,-4)" xmlns:kvg="http://kanjivg.tagaini.net"></path><path class="stroke_order_diagram--current_path" d="M27.23,60.51c0.05,0.3,0.69,1.53,0.74,3.39c0.23,8.93-0.15,30.81-0.15,33.85" id="kvg:07e8c-s4" kvg:type="㇑" transform="matrix(1,0,0,1,296,-4)" xmlns:kvg="http://kanjivg.tagaini.net"></path><path class="stroke_order_diagram--current_path" d="M27.23,60.51c0.05,0.3,0.69,1.53,0.74,3.39c0.23,8.93-0.15,30.81-0.15,33.85" id="Ske2uef7a1c" kvg:type="㇑" transform="matrix(1,0,0,1,296,-4)" xmlns:kvg="http://kanjivg.tagaini.net"></path><circle class="stroke_order_diagram--path_start" cx="27.23" cy="60.51" r="4" transform="matrix(1,0,0,1,296,-4)"></circle><line class="stroke_order_diagram--guide_line" x1="450" x2="450" y1="1" y2="99"></line><line class="stroke_order_diagram--bounding_box" x1="499" x2="499" y1="1" y2="99"></line><path class="stroke_order_diagram--existing_path" d="M29.26,15.25c0.3,1.18,0.57,2.18-0.15,3.35c-3.16,5.12-9.44,14.61-12.45,17.37c-0.62,0.56-0.6,2.73,0,2.95c3.16,1.18,8.13,3.15,10.84,5.32" id="Ske2uef7a1f" kvg:type="㇜" transform="matrix(1,0,0,1,396,-4)" xmlns:kvg="http://kanjivg.tagaini.net"></path><path class="stroke_order_diagram--existing_path" d="M37,27.5c0.28,0.58,0.37,2.46,0,3.07c-5.43,9.02-13.49,18.95-20.94,27.17c-1.71,1.88,0.42,2.96,1.54,2.58c4.67-1.6,13.89-3.4,19.88-4.93" id="Ske2uef7a1g" kvg:type="㇜" transform="matrix(1,0,0,1,396,-4)" xmlns:kvg="http://kanjivg.tagaini.net"></path><path class="stroke_order_diagram--existing_path" d="M32.75,48.25c2.47,2.16,6.38,8.89,7,12.25" id="Ske2uef7a1h" kvg:type="㇔" transform="matrix(1,0,0,1,396,-4)" xmlns:kvg="http://kanjivg.tagaini.net"></path><path class="stroke_order_diagram--existing_path" d="M27.23,60.51c0.05,0.3,0.69,1.53,0.74,3.39c0.23,8.93-0.15,30.81-0.15,33.85" id="Ske2uef7a1i" kvg:type="㇑" transform="matrix(1,0,0,1,396,-4)" xmlns:kvg="http://kanjivg.tagaini.net"></path><path class="stroke_order_diagram--current_path" d="M18.51,70.75c0.15,0.87,0.13,2.57-0.15,3.19c-1.8,4.04-6.31,11.84-8.86,15.31" id="kvg:07e8c-s5" kvg:type="㇒" transform="matrix(1,0,0,1,396,-4)" xmlns:kvg="http://kanjivg.tagaini.net"></path><path class="stroke_order_diagram--current_path" d="M18.51,70.75c0.15,0.87,0.13,2.57-0.15,3.19c-1.8,4.04-6.31,11.84-8.86,15.31" id="Ske2uef7a1k" kvg:type="㇒" transform="matrix(1,0,0,1,396,-4)" xmlns:kvg="http://kanjivg.tagaini.net"></path><circle class="stroke_order_diagram--path_start" cx="18.51" cy="70.75" r="4" transform="matrix(1,0,0,1,396,-4)"></circle><line class="stroke_order_diagram--guide_line" x1="550" x2="550" y1="1" y2="99"></line><line class="stroke_order_diagram--bounding_box" x1="599" x2="599" y1="1" y2="99"></line><path class="stroke_order_diagram--existing_path" d="M29.26,15.25c0.3,1.18,0.57,2.18-0.15,3.35c-3.16,5.12-9.44,14.61-12.45,17.37c-0.62,0.56-0.6,2.73,0,2.95c3.16,1.18,8.13,3.15,10.84,5.32" id="Ske2uef7a1n" kvg:type="㇜" transform="matrix(1,0,0,1,496,-4)" xmlns:kvg="http://kanjivg.tagaini.net"></path><path class="stroke_order_diagram--existing_path" d="M37,27.5c0.28,0.58,0.37,2.46,0,3.07c-5.43,9.02-13.49,18.95-20.94,27.17c-1.71,1.88,0.42,2.96,1.54,2.58c4.67-1.6,13.89-3.4,19.88-4.93" id="Ske2uef7a1o" kvg:type="㇜" transform="matrix(1,0,0,1,496,-4)" xmlns:kvg="http://kanjivg.tagaini.net"></path><path class="stroke_order_diagram--existing_path" d="M32.75,48.25c2.47,2.16,6.38,8.89,7,12.25" id="Ske2uef7a1p" kvg:type="㇔" transform="matrix(1,0,0,1,496,-4)" xmlns:kvg="http://kanjivg.tagaini.net"></path><path class="stroke_order_diagram--existing_path" d="M27.23,60.51c0.05,0.3,0.69,1.53,0.74,3.39c0.23,8.93-0.15,30.81-0.15,33.85" id="Ske2uef7a1q" kvg:type="㇑" transform="matrix(1,0,0,1,496,-4)" xmlns:kvg="http://kanjivg.tagaini.net"></path><path class="stroke_order_diagram--existing_path" d="M18.51,70.75c0.15,0.87,0.13,2.57-0.15,3.19c-1.8,4.04-6.31,11.84-8.86,15.31" id="Ske2uef7a1r" kvg:type="㇒" transform="matrix(1,0,0,1,496,-4)" xmlns:kvg="http://kanjivg.tagaini.net"></path><path class="stroke_order_diagram--current_path" d="M36,69c2.88,3.54,5.08,11.79,5.75,15" id="kvg:07e8c-s6" kvg:type="㇔" transform="matrix(1,0,0,1,496,-4)" xmlns:kvg="http://kanjivg.tagaini.net"></path><path class="stroke_order_diagram--current_path" d="M36,69c2.88,3.54,5.08,11.79,5.75,15" id="Ske2uef7a1t" kvg:type="㇔" transform="matrix(1,0,0,1,496,-4)" xmlns:kvg="http://kanjivg.tagaini.net"></path><circle class="stroke_order_diagram--path_start" cx="36" cy="69" r="4" transform="matrix(1,0,0,1,496,-4)"></circle><line class="stroke_order_diagram--guide_line" x1="650" x2="650" y1="1" y2="99"></line><line class="stroke_order_diagram--bounding_box" x1="699" x2="699" y1="1" y2="99"></line><path class="stroke_order_diagram--existing_path" d="M29.26,15.25c0.3,1.18,0.57,2.18-0.15,3.35c-3.16,5.12-9.44,14.61-12.45,17.37c-0.62,0.56-0.6,2.73,0,2.95c3.16,1.18,8.13,3.15,10.84,5.32" id="Ske2uef7a1w" kvg:type="㇜" transform="matrix(1,0,0,1,596,-4)" xmlns:kvg="http://kanjivg.tagaini.net"></path><path class="stroke_order_diagram--existing_path" d="M37,27.5c0.28,0.58,0.37,2.46,0,3.07c-5.43,9.02-13.49,18.95-20.94,27.17c-1.71,1.88,0.42,2.96,1.54,2.58c4.67-1.6,13.89-3.4,19.88-4.93" id="Ske2uef7a1x" kvg:type="㇜" transform="matrix(1,0,0,1,596,-4)" xmlns:kvg="http://kanjivg.tagaini.net"></path><path class="stroke_order_diagram--existing_path" d="M32.75,48.25c2.47,2.16,6.38,8.89,7,12.25" id="Ske2uef7a1y" kvg:type="㇔" transform="matrix(1,0,0,1,596,-4)" xmlns:kvg="http://kanjivg.tagaini.net"></path><path class="stroke_order_diagram--existing_path" d="M27.23,60.51c0.05,0.3,0.69,1.53,0.74,3.39c0.23,8.93-0.15,30.81-0.15,33.85" id="Ske2uef7a1z" kvg:type="㇑" transform="matrix(1,0,0,1,596,-4)" xmlns:kvg="http://kanjivg.tagaini.net"></path><path class="stroke_order_diagram--existing_path" d="M18.51,70.75c0.15,0.87,0.13,2.57-0.15,3.19c-1.8,4.04-6.31,11.84-8.86,15.31" id="Ske2uef7a20" kvg:type="㇒" transform="matrix(1,0,0,1,596,-4)" xmlns:kvg="http://kanjivg.tagaini.net"></path><path class="stroke_order_diagram--existing_path" d="M36,69c2.88,3.54,5.08,11.79,5.75,15" id="Ske2uef7a21" kvg:type="㇔" transform="matrix(1,0,0,1,596,-4)" xmlns:kvg="http://kanjivg.tagaini.net"></path><path class="stroke_order_diagram--current_path" d="M48.88,18.54c0.91,0.33,2.57,0.39,3.48,0.33c9.44-0.56,23.2-2.54,34.27-3.26c1.51-0.1,2.42,0.16,3.17,0.33" id="kvg:07e8c-s7" kvg:type="㇐" transform="matrix(1,0,0,1,596,-4)" xmlns:kvg="http://kanjivg.tagaini.net"></path><path class="stroke_order_diagram--current_path" d="M48.88,18.54c0.91,0.33,2.57,0.39,3.48,0.33c9.44-0.56,23.2-2.54,34.27-3.26c1.51-0.1,2.42,0.16,3.17,0.33" id="Ske2uef7a23" kvg:type="㇐" transform="matrix(1,0,0,1,596,-4)" xmlns:kvg="http://kanjivg.tagaini.net"></path><circle class="stroke_order_diagram--path_start" cx="48.88" cy="18.54" r="4" transform="matrix(1,0,0,1,596,-4)"></circle><line class="stroke_order_diagram--guide_line" x1="750" x2="750" y1="1" y2="99"></line><line class="stroke_order_diagram--bounding_box" x1="799" x2="799" y1="1" y2="99"></line><path class="stroke_order_diagram--existing_path" d="M29.26,15.25c0.3,1.18,0.57,2.18-0.15,3.35c-3.16,5.12-9.44,14.61-12.45,17.37c-0.62,0.56-0.6,2.73,0,2.95c3.16,1.18,8.13,3.15,10.84,5.32" id="Ske2uef7a26" kvg:type="㇜" transform="matrix(1,0,0,1,696,-4)" xmlns:kvg="http://kanjivg.tagaini.net"></path><path class="stroke_order_diagram--existing_path" d="M37,27.5c0.28,0.58,0.37,2.46,0,3.07c-5.43,9.02-13.49,18.95-20.94,27.17c-1.71,1.88,0.42,2.96,1.54,2.58c4.67-1.6,13.89-3.4,19.88-4.93" id="Ske2uef7a27" kvg:type="㇜" transform="matrix(1,0,0,1,696,-4)" xmlns:kvg="http://kanjivg.tagaini.net"></path><path class="stroke_order_diagram--existing_path" d="M32.75,48.25c2.47,2.16,6.38,8.89,7,12.25" id="Ske2uef7a28" kvg:type="㇔" transform="matrix(1,0,0,1,696,-4)" xmlns:kvg="http://kanjivg.tagaini.net"></path><path class="stroke_order_diagram--existing_path" d="M27.23,60.51c0.05,0.3,0.69,1.53,0.74,3.39c0.23,8.93-0.15,30.81-0.15,33.85" id="Ske2uef7a29" kvg:type="㇑" transform="matrix(1,0,0,1,696,-4)" xmlns:kvg="http://kanjivg.tagaini.net"></path><path class="stroke_order_diagram--existing_path" d="M18.51,70.75c0.15,0.87,0.13,2.57-0.15,3.19c-1.8,4.04-6.31,11.84-8.86,15.31" id="Ske2uef7a2a" kvg:type="㇒" transform="matrix(1,0,0,1,696,-4)" xmlns:kvg="http://kanjivg.tagaini.net"></path><path class="stroke_order_diagram--existing_path" d="M36,69c2.88,3.54,5.08,11.79,5.75,15" id="Ske2uef7a2b" kvg:type="㇔" transform="matrix(1,0,0,1,696,-4)" xmlns:kvg="http://kanjivg.tagaini.net"></path><path class="stroke_order_diagram--existing_path" d="M48.88,18.54c0.91,0.33,2.57,0.39,3.48,0.33c9.44-0.56,23.2-2.54,34.27-3.26c1.51-0.1,2.42,0.16,3.17,0.33" id="Ske2uef7a2c" kvg:type="㇐" transform="matrix(1,0,0,1,696,-4)" xmlns:kvg="http://kanjivg.tagaini.net"></path><path class="stroke_order_diagram--current_path" d="M67.21,9.85c0.79,0.49,1.27,2.19,1.43,3.16c0.16,0.97,0,8.05-0.16,14.13" id="kvg:07e8c-s8" kvg:type="㇑a" transform="matrix(1,0,0,1,696,-4)" xmlns:kvg="http://kanjivg.tagaini.net"></path><path class="stroke_order_diagram--current_path" d="M67.21,9.85c0.79,0.49,1.27,2.19,1.43,3.16c0.16,0.97,0,8.05-0.16,14.13" id="Ske2uef7a2e" kvg:type="㇑a" transform="matrix(1,0,0,1,696,-4)" xmlns:kvg="http://kanjivg.tagaini.net"></path><circle class="stroke_order_diagram--path_start" cx="67.21" cy="9.85" r="4" transform="matrix(1,0,0,1,696,-4)"></circle><line class="stroke_order_diagram--guide_line" x1="850" x2="850" y1="1" y2="99"></line><line class="stroke_order_diagram--bounding_box" x1="899" x2="899" y1="1" y2="99"></line><path class="stroke_order_diagram--existing_path" d="M29.26,15.25c0.3,1.18,0.57,2.18-0.15,3.35c-3.16,5.12-9.44,14.61-12.45,17.37c-0.62,0.56-0.6,2.73,0,2.95c3.16,1.18,8.13,3.15,10.84,5.32" id="Ske2uef7a2h" kvg:type="㇜" transform="matrix(1,0,0,1,796,-4)" xmlns:kvg="http://kanjivg.tagaini.net"></path><path class="stroke_order_diagram--existing_path" d="M37,27.5c0.28,0.58,0.37,2.46,0,3.07c-5.43,9.02-13.49,18.95-20.94,27.17c-1.71,1.88,0.42,2.96,1.54,2.58c4.67-1.6,13.89-3.4,19.88-4.93" id="Ske2uef7a2i" kvg:type="㇜" transform="matrix(1,0,0,1,796,-4)" xmlns:kvg="http://kanjivg.tagaini.net"></path><path class="stroke_order_diagram--existing_path" d="M32.75,48.25c2.47,2.16,6.38,8.89,7,12.25" id="Ske2uef7a2j" kvg:type="㇔" transform="matrix(1,0,0,1,796,-4)" xmlns:kvg="http://kanjivg.tagaini.net"></path><path class="stroke_order_diagram--existing_path" d="M27.23,60.51c0.05,0.3,0.69,1.53,0.74,3.39c0.23,8.93-0.15,30.81-0.15,33.85" id="Ske2uef7a2k" kvg:type="㇑" transform="matrix(1,0,0,1,796,-4)" xmlns:kvg="http://kanjivg.tagaini.net"></path><path class="stroke_order_diagram--existing_path" d="M18.51,70.75c0.15,0.87,0.13,2.57-0.15,3.19c-1.8,4.04-6.31,11.84-8.86,15.31" id="Ske2uef7a2l" kvg:type="㇒" transform="matrix(1,0,0,1,796,-4)" xmlns:kvg="http://kanjivg.tagaini.net"></path><path class="stroke_order_diagram--existing_path" d="M36,69c2.88,3.54,5.08,11.79,5.75,15" id="Ske2uef7a2m" kvg:type="㇔" transform="matrix(1,0,0,1,796,-4)" xmlns:kvg="http://kanjivg.tagaini.net"></path><path class="stroke_order_diagram--existing_path" d="M48.88,18.54c0.91,0.33,2.57,0.39,3.48,0.33c9.44-0.56,23.2-2.54,34.27-3.26c1.51-0.1,2.42,0.16,3.17,0.33" id="Ske2uef7a2n" kvg:type="㇐" transform="matrix(1,0,0,1,796,-4)" xmlns:kvg="http://kanjivg.tagaini.net"></path><path class="stroke_order_diagram--existing_path" d="M67.21,9.85c0.79,0.49,1.27,2.19,1.43,3.16c0.16,0.97,0,8.05-0.16,14.13" id="Ske2uef7a2o" kvg:type="㇑a" transform="matrix(1,0,0,1,796,-4)" xmlns:kvg="http://kanjivg.tagaini.net"></path><path class="stroke_order_diagram--current_path" d="M53.41,28.23c0.82,0.2,2.31,0.22,3.13,0.2c10.79-0.24,15.23-2.28,26.62-2.26c1.36,0,2.18,0.1,2.86,0.2" id="kvg:07e8c-s9" kvg:type="㇐" transform="matrix(1,0,0,1,796,-4)" xmlns:kvg="http://kanjivg.tagaini.net"></path><path class="stroke_order_diagram--current_path" d="M53.41,28.23c0.82,0.2,2.31,0.22,3.13,0.2c10.79-0.24,15.23-2.28,26.62-2.26c1.36,0,2.18,0.1,2.86,0.2" id="Ske2uef7a2q" kvg:type="㇐" transform="matrix(1,0,0,1,796,-4)" xmlns:kvg="http://kanjivg.tagaini.net"></path><circle class="stroke_order_diagram--path_start" cx="53.41" cy="28.23" r="4" transform="matrix(1,0,0,1,796,-4)"></circle><line class="stroke_order_diagram--guide_line" x1="950" x2="950" y1="1" y2="99"></line><line class="stroke_order_diagram--bounding_box" x1="999" x2="999" y1="1" y2="99"></line><path class="stroke_order_diagram--existing_path" d="M29.26,15.25c0.3,1.18,0.57,2.18-0.15,3.35c-3.16,5.12-9.44,14.61-12.45,17.37c-0.62,0.56-0.6,2.73,0,2.95c3.16,1.18,8.13,3.15,10.84,5.32" id="Ske2uef7a2t" kvg:type="㇜" transform="matrix(1,0,0,1,896,-4)" xmlns:kvg="http://kanjivg.tagaini.net"></path><path class="stroke_order_diagram--existing_path" d="M37,27.5c0.28,0.58,0.37,2.46,0,3.07c-5.43,9.02-13.49,18.95-20.94,27.17c-1.71,1.88,0.42,2.96,1.54,2.58c4.67-1.6,13.89-3.4,19.88-4.93" id="Ske2uef7a2u" kvg:type="㇜" transform="matrix(1,0,0,1,896,-4)" xmlns:kvg="http://kanjivg.tagaini.net"></path><path class="stroke_order_diagram--existing_path" d="M32.75,48.25c2.47,2.16,6.38,8.89,7,12.25" id="Ske2uef7a2v" kvg:type="㇔" transform="matrix(1,0,0,1,896,-4)" xmlns:kvg="http://kanjivg.tagaini.net"></path><path class="stroke_order_diagram--existing_path" d="M27.23,60.51c0.05,0.3,0.69,1.53,0.74,3.39c0.23,8.93-0.15,30.81-0.15,33.85" id="Ske2uef7a2w" kvg:type="㇑" transform="matrix(1,0,0,1,896,-4)" xmlns:kvg="http://kanjivg.tagaini.net"></path><path class="stroke_order_diagram--existing_path" d="M18.51,70.75c0.15,0.87,0.13,2.57-0.15,3.19c-1.8,4.04-6.31,11.84-8.86,15.31" id="Ske2uef7a2x" kvg:type="㇒" transform="matrix(1,0,0,1,896,-4)" xmlns:kvg="http://kanjivg.tagaini.net"></path><path class="stroke_order_diagram--existing_path" d="M36,69c2.88,3.54,5.08,11.79,5.75,15" id="Ske2uef7a2y" kvg:type="㇔" transform="matrix(1,0,0,1,896,-4)" xmlns:kvg="http://kanjivg.tagaini.net"></path><path class="stroke_order_diagram--existing_path" d="M48.88,18.54c0.91,0.33,2.57,0.39,3.48,0.33c9.44-0.56,23.2-2.54,34.27-3.26c1.51-0.1,2.42,0.16,3.17,0.33" id="Ske2uef7a2z" kvg:type="㇐" transform="matrix(1,0,0,1,896,-4)" xmlns:kvg="http://kanjivg.tagaini.net"></path><path class="stroke_order_diagram--existing_path" d="M67.21,9.85c0.79,0.49,1.27,2.19,1.43,3.16c0.16,0.97,0,8.05-0.16,14.13" id="Ske2uef7a30" kvg:type="㇑a" transform="matrix(1,0,0,1,896,-4)" xmlns:kvg="http://kanjivg.tagaini.net"></path><path class="stroke_order_diagram--existing_path" d="M53.41,28.23c0.82,0.2,2.31,0.22,3.13,0.2c10.79-0.24,15.23-2.28,26.62-2.26c1.36,0,2.18,0.1,2.86,0.2" id="Ske2uef7a31" kvg:type="㇐" transform="matrix(1,0,0,1,896,-4)" xmlns:kvg="http://kanjivg.tagaini.net"></path><path class="stroke_order_diagram--current_path" d="M45.75,37c0.27,0.25,0.55,0.46,0.67,0.77c0.95,2.49,3.24,10.34,3.89,14.81" id="kvg:07e8c-s10" kvg:type="㇑" transform="matrix(1,0,0,1,896,-4)" xmlns:kvg="http://kanjivg.tagaini.net"></path><path class="stroke_order_diagram--current_path" d="M45.75,37c0.27,0.25,0.55,0.46,0.67,0.77c0.95,2.49,3.24,10.34,3.89,14.81" id="Ske2uef7a33" kvg:type="㇑" transform="matrix(1,0,0,1,896,-4)" xmlns:kvg="http://kanjivg.tagaini.net"></path><circle class="stroke_order_diagram--path_start" cx="45.75" cy="37" r="4" transform="matrix(1,0,0,1,896,-4)"></circle><line class="stroke_order_diagram--guide_line" x1="1050" x2="1050" y1="1" y2="99"></line><line class="stroke_order_diagram--bounding_box" x1="1099" x2="1099" y1="1" y2="99"></line><path class="stroke_order_diagram--existing_path" d="M29.26,15.25c0.3,1.18,0.57,2.18-0.15,3.35c-3.16,5.12-9.44,14.61-12.45,17.37c-0.62,0.56-0.6,2.73,0,2.95c3.16,1.18,8.13,3.15,10.84,5.32" id="Ske2uef7a36" kvg:type="㇜" transform="matrix(1,0,0,1,996,-4)" xmlns:kvg="http://kanjivg.tagaini.net"></path><path class="stroke_order_diagram--existing_path" d="M37,27.5c0.28,0.58,0.37,2.46,0,3.07c-5.43,9.02-13.49,18.95-20.94,27.17c-1.71,1.88,0.42,2.96,1.54,2.58c4.67-1.6,13.89-3.4,19.88-4.93" id="Ske2uef7a37" kvg:type="㇜" transform="matrix(1,0,0,1,996,-4)" xmlns:kvg="http://kanjivg.tagaini.net"></path><path class="stroke_order_diagram--existing_path" d="M32.75,48.25c2.47,2.16,6.38,8.89,7,12.25" id="Ske2uef7a38" kvg:type="㇔" transform="matrix(1,0,0,1,996,-4)" xmlns:kvg="http://kanjivg.tagaini.net"></path><path class="stroke_order_diagram--existing_path" d="M27.23,60.51c0.05,0.3,0.69,1.53,0.74,3.39c0.23,8.93-0.15,30.81-0.15,33.85" id="Ske2uef7a39" kvg:type="㇑" transform="matrix(1,0,0,1,996,-4)" xmlns:kvg="http://kanjivg.tagaini.net"></path><path class="stroke_order_diagram--existing_path" d="M18.51,70.75c0.15,0.87,0.13,2.57-0.15,3.19c-1.8,4.04-6.31,11.84-8.86,15.31" id="Ske2uef7a3a" kvg:type="㇒" transform="matrix(1,0,0,1,996,-4)" xmlns:kvg="http://kanjivg.tagaini.net"></path><path class="stroke_order_diagram--existing_path" d="M36,69c2.88,3.54,5.08,11.79,5.75,15" id="Ske2uef7a3b" kvg:type="㇔" transform="matrix(1,0,0,1,996,-4)" xmlns:kvg="http://kanjivg.tagaini.net"></path><path class="stroke_order_diagram--existing_path" d="M48.88,18.54c0.91,0.33,2.57,0.39,3.48,0.33c9.44-0.56,23.2-2.54,34.27-3.26c1.51-0.1,2.42,0.16,3.17,0.33" id="Ske2uef7a3c" kvg:type="㇐" transform="matrix(1,0,0,1,996,-4)" xmlns:kvg="http://kanjivg.tagaini.net"></path><path class="stroke_order_diagram--existing_path" d="M67.21,9.85c0.79,0.49,1.27,2.19,1.43,3.16c0.16,0.97,0,8.05-0.16,14.13" id="Ske2uef7a3d" kvg:type="㇑a" transform="matrix(1,0,0,1,996,-4)" xmlns:kvg="http://kanjivg.tagaini.net"></path><path class="stroke_order_diagram--existing_path" d="M53.41,28.23c0.82,0.2,2.31,0.22,3.13,0.2c10.79-0.24,15.23-2.28,26.62-2.26c1.36,0,2.18,0.1,2.86,0.2" id="Ske2uef7a3e" kvg:type="㇐" transform="matrix(1,0,0,1,996,-4)" xmlns:kvg="http://kanjivg.tagaini.net"></path><path class="stroke_order_diagram--existing_path" d="M45.75,37c0.27,0.25,0.55,0.46,0.67,0.77c0.95,2.49,3.24,10.34,3.89,14.81" id="Ske2uef7a3f" kvg:type="㇑" transform="matrix(1,0,0,1,996,-4)" xmlns:kvg="http://kanjivg.tagaini.net"></path><path class="stroke_order_diagram--current_path" d="M47.15,37.85c5.16-0.98,43.17-4.6,45.91-4.93c1-0.12,2.86,1.35,2.59,2.75c-0.56,2.93-3.05,9.42-4.54,13.61" id="kvg:07e8c-s11" kvg:type="㇕" transform="matrix(1,0,0,1,996,-4)" xmlns:kvg="http://kanjivg.tagaini.net"></path><path class="stroke_order_diagram--current_path" d="M47.15,37.85c5.16-0.98,43.17-4.6,45.91-4.93c1-0.12,2.86,1.35,2.59,2.75c-0.56,2.93-3.05,9.42-4.54,13.61" id="Ske2uef7a3h" kvg:type="㇕" transform="matrix(1,0,0,1,996,-4)" xmlns:kvg="http://kanjivg.tagaini.net"></path><circle class="stroke_order_diagram--path_start" cx="47.15" cy="37.85" r="4" transform="matrix(1,0,0,1,996,-4)"></circle><line class="stroke_order_diagram--guide_line" x1="1150" x2="1150" y1="1" y2="99"></line><line class="stroke_order_diagram--bounding_box" x1="1199" x2="1199" y1="1" y2="99"></line><path class="stroke_order_diagram--existing_path" d="M29.26,15.25c0.3,1.18,0.57,2.18-0.15,3.35c-3.16,5.12-9.44,14.61-12.45,17.37c-0.62,0.56-0.6,2.73,0,2.95c3.16,1.18,8.13,3.15,10.84,5.32" id="Ske2uef7a3k" kvg:type="㇜" transform="matrix(1,0,0,1,1096,-4)" xmlns:kvg="http://kanjivg.tagaini.net"></path><path class="stroke_order_diagram--existing_path" d="M37,27.5c0.28,0.58,0.37,2.46,0,3.07c-5.43,9.02-13.49,18.95-20.94,27.17c-1.71,1.88,0.42,2.96,1.54,2.58c4.67-1.6,13.89-3.4,19.88-4.93" id="Ske2uef7a3l" kvg:type="㇜" transform="matrix(1,0,0,1,1096,-4)" xmlns:kvg="http://kanjivg.tagaini.net"></path><path class="stroke_order_diagram--existing_path" d="M32.75,48.25c2.47,2.16,6.38,8.89,7,12.25" id="Ske2uef7a3m" kvg:type="㇔" transform="matrix(1,0,0,1,1096,-4)" xmlns:kvg="http://kanjivg.tagaini.net"></path><path class="stroke_order_diagram--existing_path" d="M27.23,60.51c0.05,0.3,0.69,1.53,0.74,3.39c0.23,8.93-0.15,30.81-0.15,33.85" id="Ske2uef7a3n" kvg:type="㇑" transform="matrix(1,0,0,1,1096,-4)" xmlns:kvg="http://kanjivg.tagaini.net"></path><path class="stroke_order_diagram--existing_path" d="M18.51,70.75c0.15,0.87,0.13,2.57-0.15,3.19c-1.8,4.04-6.31,11.84-8.86,15.31" id="Ske2uef7a3o" kvg:type="㇒" transform="matrix(1,0,0,1,1096,-4)" xmlns:kvg="http://kanjivg.tagaini.net"></path><path class="stroke_order_diagram--existing_path" d="M36,69c2.88,3.54,5.08,11.79,5.75,15" id="Ske2uef7a3p" kvg:type="㇔" transform="matrix(1,0,0,1,1096,-4)" xmlns:kvg="http://kanjivg.tagaini.net"></path><path class="stroke_order_diagram--existing_path" d="M48.88,18.54c0.91,0.33,2.57,0.39,3.48,0.33c9.44-0.56,23.2-2.54,34.27-3.26c1.51-0.1,2.42,0.16,3.17,0.33" id="Ske2uef7a3q" kvg:type="㇐" transform="matrix(1,0,0,1,1096,-4)" xmlns:kvg="http://kanjivg.tagaini.net"></path><path class="stroke_order_diagram--existing_path" d="M67.21,9.85c0.79,0.49,1.27,2.19,1.43,3.16c0.16,0.97,0,8.05-0.16,14.13" id="Ske2uef7a3r" kvg:type="㇑a" transform="matrix(1,0,0,1,1096,-4)" xmlns:kvg="http://kanjivg.tagaini.net"></path><path class="stroke_order_diagram--existing_path" d="M53.41,28.23c0.82,0.2,2.31,0.22,3.13,0.2c10.79-0.24,15.23-2.28,26.62-2.26c1.36,0,2.18,0.1,2.86,0.2" id="Ske2uef7a3s" kvg:type="㇐" transform="matrix(1,0,0,1,1096,-4)" xmlns:kvg="http://kanjivg.tagaini.net"></path><path class="stroke_order_diagram--existing_path" d="M45.75,37c0.27,0.25,0.55,0.46,0.67,0.77c0.95,2.49,3.24,10.34,3.89,14.81" id="Ske2uef7a3t" kvg:type="㇑" transform="matrix(1,0,0,1,1096,-4)" xmlns:kvg="http://kanjivg.tagaini.net"></path><path class="stroke_order_diagram--existing_path" d="M47.15,37.85c5.16-0.98,43.17-4.6,45.91-4.93c1-0.12,2.86,1.35,2.59,2.75c-0.56,2.93-3.05,9.42-4.54,13.61" id="Ske2uef7a3u" kvg:type="㇕" transform="matrix(1,0,0,1,1096,-4)" xmlns:kvg="http://kanjivg.tagaini.net"></path><path class="stroke_order_diagram--current_path" d="M64,38.5c0.04,0.19,0.05,0.48-0.09,0.75c-1.2,2.39-2.73,4.22-7.84,6.54" id="kvg:07e8c-s12" kvg:type="㇒" transform="matrix(1,0,0,1,1096,-4)" xmlns:kvg="http://kanjivg.tagaini.net"></path><path class="stroke_order_diagram--current_path" d="M64,38.5c0.04,0.19,0.05,0.48-0.09,0.75c-1.2,2.39-2.73,4.22-7.84,6.54" id="Ske2uef7a3w" kvg:type="㇒" transform="matrix(1,0,0,1,1096,-4)" xmlns:kvg="http://kanjivg.tagaini.net"></path><circle class="stroke_order_diagram--path_start" cx="64" cy="38.5" r="4" transform="matrix(1,0,0,1,1096,-4)"></circle><line class="stroke_order_diagram--guide_line" x1="1250" x2="1250" y1="1" y2="99"></line><line class="stroke_order_diagram--bounding_box" x1="1299" x2="1299" y1="1" y2="99"></line><path class="stroke_order_diagram--existing_path" d="M29.26,15.25c0.3,1.18,0.57,2.18-0.15,3.35c-3.16,5.12-9.44,14.61-12.45,17.37c-0.62,0.56-0.6,2.73,0,2.95c3.16,1.18,8.13,3.15,10.84,5.32" id="Ske2uef7a3z" kvg:type="㇜" transform="matrix(1,0,0,1,1196,-4)" xmlns:kvg="http://kanjivg.tagaini.net"></path><path class="stroke_order_diagram--existing_path" d="M37,27.5c0.28,0.58,0.37,2.46,0,3.07c-5.43,9.02-13.49,18.95-20.94,27.17c-1.71,1.88,0.42,2.96,1.54,2.58c4.67-1.6,13.89-3.4,19.88-4.93" id="Ske2uef7a40" kvg:type="㇜" transform="matrix(1,0,0,1,1196,-4)" xmlns:kvg="http://kanjivg.tagaini.net"></path><path class="stroke_order_diagram--existing_path" d="M32.75,48.25c2.47,2.16,6.38,8.89,7,12.25" id="Ske2uef7a41" kvg:type="㇔" transform="matrix(1,0,0,1,1196,-4)" xmlns:kvg="http://kanjivg.tagaini.net"></path><path class="stroke_order_diagram--existing_path" d="M27.23,60.51c0.05,0.3,0.69,1.53,0.74,3.39c0.23,8.93-0.15,30.81-0.15,33.85" id="Ske2uef7a42" kvg:type="㇑" transform="matrix(1,0,0,1,1196,-4)" xmlns:kvg="http://kanjivg.tagaini.net"></path><path class="stroke_order_diagram--existing_path" d="M18.51,70.75c0.15,0.87,0.13,2.57-0.15,3.19c-1.8,4.04-6.31,11.84-8.86,15.31" id="Ske2uef7a43" kvg:type="㇒" transform="matrix(1,0,0,1,1196,-4)" xmlns:kvg="http://kanjivg.tagaini.net"></path><path class="stroke_order_diagram--existing_path" d="M36,69c2.88,3.54,5.08,11.79,5.75,15" id="Ske2uef7a44" kvg:type="㇔" transform="matrix(1,0,0,1,1196,-4)" xmlns:kvg="http://kanjivg.tagaini.net"></path><path class="stroke_order_diagram--existing_path" d="M48.88,18.54c0.91,0.33,2.57,0.39,3.48,0.33c9.44-0.56,23.2-2.54,34.27-3.26c1.51-0.1,2.42,0.16,3.17,0.33" id="Ske2uef7a45" kvg:type="㇐" transform="matrix(1,0,0,1,1196,-4)" xmlns:kvg="http://kanjivg.tagaini.net"></path><path class="stroke_order_diagram--existing_path" d="M67.21,9.85c0.79,0.49,1.27,2.19,1.43,3.16c0.16,0.97,0,8.05-0.16,14.13" id="Ske2uef7a46" kvg:type="㇑a" transform="matrix(1,0,0,1,1196,-4)" xmlns:kvg="http://kanjivg.tagaini.net"></path><path class="stroke_order_diagram--existing_path" d="M53.41,28.23c0.82,0.2,2.31,0.22,3.13,0.2c10.79-0.24,15.23-2.28,26.62-2.26c1.36,0,2.18,0.1,2.86,0.2" id="Ske2uef7a47" kvg:type="㇐" transform="matrix(1,0,0,1,1196,-4)" xmlns:kvg="http://kanjivg.tagaini.net"></path><path class="stroke_order_diagram--existing_path" d="M45.75,37c0.27,0.25,0.55,0.46,0.67,0.77c0.95,2.49,3.24,10.34,3.89,14.81" id="Ske2uef7a48" kvg:type="㇑" transform="matrix(1,0,0,1,1196,-4)" xmlns:kvg="http://kanjivg.tagaini.net"></path><path class="stroke_order_diagram--existing_path" d="M47.15,37.85c5.16-0.98,43.17-4.6,45.91-4.93c1-0.12,2.86,1.35,2.59,2.75c-0.56,2.93-3.05,9.42-4.54,13.61" id="Ske2uef7a49" kvg:type="㇕" transform="matrix(1,0,0,1,1196,-4)" xmlns:kvg="http://kanjivg.tagaini.net"></path><path class="stroke_order_diagram--existing_path" d="M64,38.5c0.04,0.19,0.05,0.48-0.09,0.75c-1.2,2.39-2.73,4.22-7.84,6.54" id="Ske2uef7a4a" kvg:type="㇒" transform="matrix(1,0,0,1,1196,-4)" xmlns:kvg="http://kanjivg.tagaini.net"></path><path class="stroke_order_diagram--current_path" d="M74.5,35.5c0.55,0.3,1.01,0.66,1.01,1.12c0,0.63-0.16,1.8-0.16,2.24c0,1.22,1.87,1.72,5.44,1.72c3.23,0,5.61-0.5,6.98-0.89" id="kvg:07e8c-s13" kvg:type="㇄" transform="matrix(1,0,0,1,1196,-4)" xmlns:kvg="http://kanjivg.tagaini.net"></path><path class="stroke_order_diagram--current_path" d="M74.5,35.5c0.55,0.3,1.01,0.66,1.01,1.12c0,0.63-0.16,1.8-0.16,2.24c0,1.22,1.87,1.72,5.44,1.72c3.23,0,5.61-0.5,6.98-0.89" id="Ske2uef7a4c" kvg:type="㇄" transform="matrix(1,0,0,1,1196,-4)" xmlns:kvg="http://kanjivg.tagaini.net"></path><circle class="stroke_order_diagram--path_start" cx="74.5" cy="35.5" r="4" transform="matrix(1,0,0,1,1196,-4)"></circle><line class="stroke_order_diagram--guide_line" x1="1350" x2="1350" y1="1" y2="99"></line><line class="stroke_order_diagram--bounding_box" x1="1399" x2="1399" y1="1" y2="99"></line><path class="stroke_order_diagram--existing_path" d="M29.26,15.25c0.3,1.18,0.57,2.18-0.15,3.35c-3.16,5.12-9.44,14.61-12.45,17.37c-0.62,0.56-0.6,2.73,0,2.95c3.16,1.18,8.13,3.15,10.84,5.32" id="Ske2uef7a4f" kvg:type="㇜" transform="matrix(1,0,0,1,1296,-4)" xmlns:kvg="http://kanjivg.tagaini.net"></path><path class="stroke_order_diagram--existing_path" d="M37,27.5c0.28,0.58,0.37,2.46,0,3.07c-5.43,9.02-13.49,18.95-20.94,27.17c-1.71,1.88,0.42,2.96,1.54,2.58c4.67-1.6,13.89-3.4,19.88-4.93" id="Ske2uef7a4g" kvg:type="㇜" transform="matrix(1,0,0,1,1296,-4)" xmlns:kvg="http://kanjivg.tagaini.net"></path><path class="stroke_order_diagram--existing_path" d="M32.75,48.25c2.47,2.16,6.38,8.89,7,12.25" id="Ske2uef7a4h" kvg:type="㇔" transform="matrix(1,0,0,1,1296,-4)" xmlns:kvg="http://kanjivg.tagaini.net"></path><path class="stroke_order_diagram--existing_path" d="M27.23,60.51c0.05,0.3,0.69,1.53,0.74,3.39c0.23,8.93-0.15,30.81-0.15,33.85" id="Ske2uef7a4i" kvg:type="㇑" transform="matrix(1,0,0,1,1296,-4)" xmlns:kvg="http://kanjivg.tagaini.net"></path><path class="stroke_order_diagram--existing_path" d="M18.51,70.75c0.15,0.87,0.13,2.57-0.15,3.19c-1.8,4.04-6.31,11.84-8.86,15.31" id="Ske2uef7a4j" kvg:type="㇒" transform="matrix(1,0,0,1,1296,-4)" xmlns:kvg="http://kanjivg.tagaini.net"></path><path class="stroke_order_diagram--existing_path" d="M36,69c2.88,3.54,5.08,11.79,5.75,15" id="Ske2uef7a4k" kvg:type="㇔" transform="matrix(1,0,0,1,1296,-4)" xmlns:kvg="http://kanjivg.tagaini.net"></path><path class="stroke_order_diagram--existing_path" d="M48.88,18.54c0.91,0.33,2.57,0.39,3.48,0.33c9.44-0.56,23.2-2.54,34.27-3.26c1.51-0.1,2.42,0.16,3.17,0.33" id="Ske2uef7a4l" kvg:type="㇐" transform="matrix(1,0,0,1,1296,-4)" xmlns:kvg="http://kanjivg.tagaini.net"></path><path class="stroke_order_diagram--existing_path" d="M67.21,9.85c0.79,0.49,1.27,2.19,1.43,3.16c0.16,0.97,0,8.05-0.16,14.13" id="Ske2uef7a4m" kvg:type="㇑a" transform="matrix(1,0,0,1,1296,-4)" xmlns:kvg="http://kanjivg.tagaini.net"></path><path class="stroke_order_diagram--existing_path" d="M53.41,28.23c0.82,0.2,2.31,0.22,3.13,0.2c10.79-0.24,15.23-2.28,26.62-2.26c1.36,0,2.18,0.1,2.86,0.2" id="Ske2uef7a4n" kvg:type="㇐" transform="matrix(1,0,0,1,1296,-4)" xmlns:kvg="http://kanjivg.tagaini.net"></path><path class="stroke_order_diagram--existing_path" d="M45.75,37c0.27,0.25,0.55,0.46,0.67,0.77c0.95,2.49,3.24,10.34,3.89,14.81" id="Ske2uef7a4o" kvg:type="㇑" transform="matrix(1,0,0,1,1296,-4)" xmlns:kvg="http://kanjivg.tagaini.net"></path><path class="stroke_order_diagram--existing_path" d="M47.15,37.85c5.16-0.98,43.17-4.6,45.91-4.93c1-0.12,2.86,1.35,2.59,2.75c-0.56,2.93-3.05,9.42-4.54,13.61" id="Ske2uef7a4p" kvg:type="㇕" transform="matrix(1,0,0,1,1296,-4)" xmlns:kvg="http://kanjivg.tagaini.net"></path><path class="stroke_order_diagram--existing_path" d="M64,38.5c0.04,0.19,0.05,0.48-0.09,0.75c-1.2,2.39-2.73,4.22-7.84,6.54" id="Ske2uef7a4q" kvg:type="㇒" transform="matrix(1,0,0,1,1296,-4)" xmlns:kvg="http://kanjivg.tagaini.net"></path><path class="stroke_order_diagram--existing_path" d="M74.5,35.5c0.55,0.3,1.01,0.66,1.01,1.12c0,0.63-0.16,1.8-0.16,2.24c0,1.22,1.87,1.72,5.44,1.72c3.23,0,5.61-0.5,6.98-0.89" id="Ske2uef7a4r" kvg:type="㇄" transform="matrix(1,0,0,1,1296,-4)" xmlns:kvg="http://kanjivg.tagaini.net"></path><path class="stroke_order_diagram--current_path" d="M50.63,51.01c3.1-0.39,35.86-3.41,40.12-4.01" id="kvg:07e8c-s14" kvg:type="㇐" transform="matrix(1,0,0,1,1296,-4)" xmlns:kvg="http://kanjivg.tagaini.net"></path><path class="stroke_order_diagram--current_path" d="M50.63,51.01c3.1-0.39,35.86-3.41,40.12-4.01" id="Ske2uef7a4t" kvg:type="㇐" transform="matrix(1,0,0,1,1296,-4)" xmlns:kvg="http://kanjivg.tagaini.net"></path><circle class="stroke_order_diagram--path_start" cx="50.63" cy="51.01" r="4" transform="matrix(1,0,0,1,1296,-4)"></circle><line class="stroke_order_diagram--guide_line" x1="1450" x2="1450" y1="1" y2="99"></line><line class="stroke_order_diagram--bounding_box" x1="1499" x2="1499" y1="1" y2="99"></line><path class="stroke_order_diagram--existing_path" d="M29.26,15.25c0.3,1.18,0.57,2.18-0.15,3.35c-3.16,5.12-9.44,14.61-12.45,17.37c-0.62,0.56-0.6,2.73,0,2.95c3.16,1.18,8.13,3.15,10.84,5.32" id="Ske2uef7a4w" kvg:type="㇜" transform="matrix(1,0,0,1,1396,-4)" xmlns:kvg="http://kanjivg.tagaini.net"></path><path class="stroke_order_diagram--existing_path" d="M37,27.5c0.28,0.58,0.37,2.46,0,3.07c-5.43,9.02-13.49,18.95-20.94,27.17c-1.71,1.88,0.42,2.96,1.54,2.58c4.67-1.6,13.89-3.4,19.88-4.93" id="Ske2uef7a4x" kvg:type="㇜" transform="matrix(1,0,0,1,1396,-4)" xmlns:kvg="http://kanjivg.tagaini.net"></path><path class="stroke_order_diagram--existing_path" d="M32.75,48.25c2.47,2.16,6.38,8.89,7,12.25" id="Ske2uef7a4y" kvg:type="㇔" transform="matrix(1,0,0,1,1396,-4)" xmlns:kvg="http://kanjivg.tagaini.net"></path><path class="stroke_order_diagram--existing_path" d="M27.23,60.51c0.05,0.3,0.69,1.53,0.74,3.39c0.23,8.93-0.15,30.81-0.15,33.85" id="Ske2uef7a4z" kvg:type="㇑" transform="matrix(1,0,0,1,1396,-4)" xmlns:kvg="http://kanjivg.tagaini.net"></path><path class="stroke_order_diagram--existing_path" d="M18.51,70.75c0.15,0.87,0.13,2.57-0.15,3.19c-1.8,4.04-6.31,11.84-8.86,15.31" id="Ske2uef7a50" kvg:type="㇒" transform="matrix(1,0,0,1,1396,-4)" xmlns:kvg="http://kanjivg.tagaini.net"></path><path class="stroke_order_diagram--existing_path" d="M36,69c2.88,3.54,5.08,11.79,5.75,15" id="Ske2uef7a51" kvg:type="㇔" transform="matrix(1,0,0,1,1396,-4)" xmlns:kvg="http://kanjivg.tagaini.net"></path><path class="stroke_order_diagram--existing_path" d="M48.88,18.54c0.91,0.33,2.57,0.39,3.48,0.33c9.44-0.56,23.2-2.54,34.27-3.26c1.51-0.1,2.42,0.16,3.17,0.33" id="Ske2uef7a52" kvg:type="㇐" transform="matrix(1,0,0,1,1396,-4)" xmlns:kvg="http://kanjivg.tagaini.net"></path><path class="stroke_order_diagram--existing_path" d="M67.21,9.85c0.79,0.49,1.27,2.19,1.43,3.16c0.16,0.97,0,8.05-0.16,14.13" id="Ske2uef7a53" kvg:type="㇑a" transform="matrix(1,0,0,1,1396,-4)" xmlns:kvg="http://kanjivg.tagaini.net"></path><path class="stroke_order_diagram--existing_path" d="M53.41,28.23c0.82,0.2,2.31,0.22,3.13,0.2c10.79-0.24,15.23-2.28,26.62-2.26c1.36,0,2.18,0.1,2.86,0.2" id="Ske2uef7a54" kvg:type="㇐" transform="matrix(1,0,0,1,1396,-4)" xmlns:kvg="http://kanjivg.tagaini.net"></path><path class="stroke_order_diagram--existing_path" d="M45.75,37c0.27,0.25,0.55,0.46,0.67,0.77c0.95,2.49,3.24,10.34,3.89,14.81" id="Ske2uef7a55" kvg:type="㇑" transform="matrix(1,0,0,1,1396,-4)" xmlns:kvg="http://kanjivg.tagaini.net"></path><path class="stroke_order_diagram--existing_path" d="M47.15,37.85c5.16-0.98,43.17-4.6,45.91-4.93c1-0.12,2.86,1.35,2.59,2.75c-0.56,2.93-3.05,9.42-4.54,13.61" id="Ske2uef7a56" kvg:type="㇕" transform="matrix(1,0,0,1,1396,-4)" xmlns:kvg="http://kanjivg.tagaini.net"></path><path class="stroke_order_diagram--existing_path" d="M64,38.5c0.04,0.19,0.05,0.48-0.09,0.75c-1.2,2.39-2.73,4.22-7.84,6.54" id="Ske2uef7a57" kvg:type="㇒" transform="matrix(1,0,0,1,1396,-4)" xmlns:kvg="http://kanjivg.tagaini.net"></path><path class="stroke_order_diagram--existing_path" d="M74.5,35.5c0.55,0.3,1.01,0.66,1.01,1.12c0,0.63-0.16,1.8-0.16,2.24c0,1.22,1.87,1.72,5.44,1.72c3.23,0,5.61-0.5,6.98-0.89" id="Ske2uef7a58" kvg:type="㇄" transform="matrix(1,0,0,1,1396,-4)" xmlns:kvg="http://kanjivg.tagaini.net"></path><path class="stroke_order_diagram--existing_path" d="M50.63,51.01c3.1-0.39,35.86-3.41,40.12-4.01" id="Ske2uef7a59" kvg:type="㇐" transform="matrix(1,0,0,1,1396,-4)" xmlns:kvg="http://kanjivg.tagaini.net"></path><path class="stroke_order_diagram--current_path" d="M53.87,55.82c0.44,1.09,1.07,1.9,1.07,3.35s0.2,23.63-0.32,29.72" id="kvg:07e8c-s15" kvg:type="㇑" transform="matrix(1,0,0,1,1396,-4)" xmlns:kvg="http://kanjivg.tagaini.net"></path><path class="stroke_order_diagram--current_path" d="M53.87,55.82c0.44,1.09,1.07,1.9,1.07,3.35s0.2,23.63-0.32,29.72" id="Ske2uef7a5b" kvg:type="㇑" transform="matrix(1,0,0,1,1396,-4)" xmlns:kvg="http://kanjivg.tagaini.net"></path><circle class="stroke_order_diagram--path_start" cx="53.87" cy="55.82" r="4" transform="matrix(1,0,0,1,1396,-4)"></circle><line class="stroke_order_diagram--guide_line" x1="1550" x2="1550" y1="1" y2="99"></line><line class="stroke_order_diagram--bounding_box" x1="1599" x2="1599" y1="1" y2="99"></line><path class="stroke_order_diagram--existing_path" d="M29.26,15.25c0.3,1.18,0.57,2.18-0.15,3.35c-3.16,5.12-9.44,14.61-12.45,17.37c-0.62,0.56-0.6,2.73,0,2.95c3.16,1.18,8.13,3.15,10.84,5.32" id="Ske2uef7a5e" kvg:type="㇜" transform="matrix(1,0,0,1,1496,-4)" xmlns:kvg="http://kanjivg.tagaini.net"></path><path class="stroke_order_diagram--existing_path" d="M37,27.5c0.28,0.58,0.37,2.46,0,3.07c-5.43,9.02-13.49,18.95-20.94,27.17c-1.71,1.88,0.42,2.96,1.54,2.58c4.67-1.6,13.89-3.4,19.88-4.93" id="Ske2uef7a5f" kvg:type="㇜" transform="matrix(1,0,0,1,1496,-4)" xmlns:kvg="http://kanjivg.tagaini.net"></path><path class="stroke_order_diagram--existing_path" d="M32.75,48.25c2.47,2.16,6.38,8.89,7,12.25" id="Ske2uef7a5g" kvg:type="㇔" transform="matrix(1,0,0,1,1496,-4)" xmlns:kvg="http://kanjivg.tagaini.net"></path><path class="stroke_order_diagram--existing_path" d="M27.23,60.51c0.05,0.3,0.69,1.53,0.74,3.39c0.23,8.93-0.15,30.81-0.15,33.85" id="Ske2uef7a5h" kvg:type="㇑" transform="matrix(1,0,0,1,1496,-4)" xmlns:kvg="http://kanjivg.tagaini.net"></path><path class="stroke_order_diagram--existing_path" d="M18.51,70.75c0.15,0.87,0.13,2.57-0.15,3.19c-1.8,4.04-6.31,11.84-8.86,15.31" id="Ske2uef7a5i" kvg:type="㇒" transform="matrix(1,0,0,1,1496,-4)" xmlns:kvg="http://kanjivg.tagaini.net"></path><path class="stroke_order_diagram--existing_path" d="M36,69c2.88,3.54,5.08,11.79,5.75,15" id="Ske2uef7a5j" kvg:type="㇔" transform="matrix(1,0,0,1,1496,-4)" xmlns:kvg="http://kanjivg.tagaini.net"></path><path class="stroke_order_diagram--existing_path" d="M48.88,18.54c0.91,0.33,2.57,0.39,3.48,0.33c9.44-0.56,23.2-2.54,34.27-3.26c1.51-0.1,2.42,0.16,3.17,0.33" id="Ske2uef7a5k" kvg:type="㇐" transform="matrix(1,0,0,1,1496,-4)" xmlns:kvg="http://kanjivg.tagaini.net"></path><path class="stroke_order_diagram--existing_path" d="M67.21,9.85c0.79,0.49,1.27,2.19,1.43,3.16c0.16,0.97,0,8.05-0.16,14.13" id="Ske2uef7a5l" kvg:type="㇑a" transform="matrix(1,0,0,1,1496,-4)" xmlns:kvg="http://kanjivg.tagaini.net"></path><path class="stroke_order_diagram--existing_path" d="M53.41,28.23c0.82,0.2,2.31,0.22,3.13,0.2c10.79-0.24,15.23-2.28,26.62-2.26c1.36,0,2.18,0.1,2.86,0.2" id="Ske2uef7a5m" kvg:type="㇐" transform="matrix(1,0,0,1,1496,-4)" xmlns:kvg="http://kanjivg.tagaini.net"></path><path class="stroke_order_diagram--existing_path" d="M45.75,37c0.27,0.25,0.55,0.46,0.67,0.77c0.95,2.49,3.24,10.34,3.89,14.81" id="Ske2uef7a5n" kvg:type="㇑" transform="matrix(1,0,0,1,1496,-4)" xmlns:kvg="http://kanjivg.tagaini.net"></path><path class="stroke_order_diagram--existing_path" d="M47.15,37.85c5.16-0.98,43.17-4.6,45.91-4.93c1-0.12,2.86,1.35,2.59,2.75c-0.56,2.93-3.05,9.42-4.54,13.61" id="Ske2uef7a5o" kvg:type="㇕" transform="matrix(1,0,0,1,1496,-4)" xmlns:kvg="http://kanjivg.tagaini.net"></path><path class="stroke_order_diagram--existing_path" d="M64,38.5c0.04,0.19,0.05,0.48-0.09,0.75c-1.2,2.39-2.73,4.22-7.84,6.54" id="Ske2uef7a5p" kvg:type="㇒" transform="matrix(1,0,0,1,1496,-4)" xmlns:kvg="http://kanjivg.tagaini.net"></path><path class="stroke_order_diagram--existing_path" d="M74.5,35.5c0.55,0.3,1.01,0.66,1.01,1.12c0,0.63-0.16,1.8-0.16,2.24c0,1.22,1.87,1.72,5.44,1.72c3.23,0,5.61-0.5,6.98-0.89" id="Ske2uef7a5q" kvg:type="㇄" transform="matrix(1,0,0,1,1496,-4)" xmlns:kvg="http://kanjivg.tagaini.net"></path><path class="stroke_order_diagram--existing_path" d="M50.63,51.01c3.1-0.39,35.86-3.41,40.12-4.01" id="Ske2uef7a5r" kvg:type="㇐" transform="matrix(1,0,0,1,1496,-4)" xmlns:kvg="http://kanjivg.tagaini.net"></path><path class="stroke_order_diagram--existing_path" d="M53.87,55.82c0.44,1.09,1.07,1.9,1.07,3.35s0.2,23.63-0.32,29.72" id="Ske2uef7a5s" kvg:type="㇑" transform="matrix(1,0,0,1,1496,-4)" xmlns:kvg="http://kanjivg.tagaini.net"></path><path class="stroke_order_diagram--current_path" d="M56.1,57.99c2.82-0.18,25.8-2.43,28.38-2.64c2.14-0.18,3.28,0.97,3.28,2.28c0,3.21-0.63,26.56-0.63,27.61" id="kvg:07e8c-s16" kvg:type="㇕a" transform="matrix(1,0,0,1,1496,-4)" xmlns:kvg="http://kanjivg.tagaini.net"></path><path class="stroke_order_diagram--current_path" d="M56.1,57.99c2.82-0.18,25.8-2.43,28.38-2.64c2.14-0.18,3.28,0.97,3.28,2.28c0,3.21-0.63,26.56-0.63,27.61" id="Ske2uef7a5u" kvg:type="㇕a" transform="matrix(1,0,0,1,1496,-4)" xmlns:kvg="http://kanjivg.tagaini.net"></path><circle class="stroke_order_diagram--path_start" cx="56.1" cy="57.99" r="4" transform="matrix(1,0,0,1,1496,-4)"></circle><line class="stroke_order_diagram--guide_line" x1="1650" x2="1650" y1="1" y2="99"></line><line class="stroke_order_diagram--bounding_box" x1="1699" x2="1699" y1="1" y2="99"></line><path class="stroke_order_diagram--existing_path" d="M29.26,15.25c0.3,1.18,0.57,2.18-0.15,3.35c-3.16,5.12-9.44,14.61-12.45,17.37c-0.62,0.56-0.6,2.73,0,2.95c3.16,1.18,8.13,3.15,10.84,5.32" id="Ske2uef7a5x" kvg:type="㇜" transform="matrix(1,0,0,1,1596,-4)" xmlns:kvg="http://kanjivg.tagaini.net"></path><path class="stroke_order_diagram--existing_path" d="M37,27.5c0.28,0.58,0.37,2.46,0,3.07c-5.43,9.02-13.49,18.95-20.94,27.17c-1.71,1.88,0.42,2.96,1.54,2.58c4.67-1.6,13.89-3.4,19.88-4.93" id="Ske2uef7a5y" kvg:type="㇜" transform="matrix(1,0,0,1,1596,-4)" xmlns:kvg="http://kanjivg.tagaini.net"></path><path class="stroke_order_diagram--existing_path" d="M32.75,48.25c2.47,2.16,6.38,8.89,7,12.25" id="Ske2uef7a5z" kvg:type="㇔" transform="matrix(1,0,0,1,1596,-4)" xmlns:kvg="http://kanjivg.tagaini.net"></path><path class="stroke_order_diagram--existing_path" d="M27.23,60.51c0.05,0.3,0.69,1.53,0.74,3.39c0.23,8.93-0.15,30.81-0.15,33.85" id="Ske2uef7a60" kvg:type="㇑" transform="matrix(1,0,0,1,1596,-4)" xmlns:kvg="http://kanjivg.tagaini.net"></path><path class="stroke_order_diagram--existing_path" d="M18.51,70.75c0.15,0.87,0.13,2.57-0.15,3.19c-1.8,4.04-6.31,11.84-8.86,15.31" id="Ske2uef7a61" kvg:type="㇒" transform="matrix(1,0,0,1,1596,-4)" xmlns:kvg="http://kanjivg.tagaini.net"></path><path class="stroke_order_diagram--existing_path" d="M36,69c2.88,3.54,5.08,11.79,5.75,15" id="Ske2uef7a62" kvg:type="㇔" transform="matrix(1,0,0,1,1596,-4)" xmlns:kvg="http://kanjivg.tagaini.net"></path><path class="stroke_order_diagram--existing_path" d="M48.88,18.54c0.91,0.33,2.57,0.39,3.48,0.33c9.44-0.56,23.2-2.54,34.27-3.26c1.51-0.1,2.42,0.16,3.17,0.33" id="Ske2uef7a63" kvg:type="㇐" transform="matrix(1,0,0,1,1596,-4)" xmlns:kvg="http://kanjivg.tagaini.net"></path><path class="stroke_order_diagram--existing_path" d="M67.21,9.85c0.79,0.49,1.27,2.19,1.43,3.16c0.16,0.97,0,8.05-0.16,14.13" id="Ske2uef7a64" kvg:type="㇑a" transform="matrix(1,0,0,1,1596,-4)" xmlns:kvg="http://kanjivg.tagaini.net"></path><path class="stroke_order_diagram--existing_path" d="M53.41,28.23c0.82,0.2,2.31,0.22,3.13,0.2c10.79-0.24,15.23-2.28,26.62-2.26c1.36,0,2.18,0.1,2.86,0.2" id="Ske2uef7a65" kvg:type="㇐" transform="matrix(1,0,0,1,1596,-4)" xmlns:kvg="http://kanjivg.tagaini.net"></path><path class="stroke_order_diagram--existing_path" d="M45.75,37c0.27,0.25,0.55,0.46,0.67,0.77c0.95,2.49,3.24,10.34,3.89,14.81" id="Ske2uef7a66" kvg:type="㇑" transform="matrix(1,0,0,1,1596,-4)" xmlns:kvg="http://kanjivg.tagaini.net"></path><path class="stroke_order_diagram--existing_path" d="M47.15,37.85c5.16-0.98,43.17-4.6,45.91-4.93c1-0.12,2.86,1.35,2.59,2.75c-0.56,2.93-3.05,9.42-4.54,13.61" id="Ske2uef7a67" kvg:type="㇕" transform="matrix(1,0,0,1,1596,-4)" xmlns:kvg="http://kanjivg.tagaini.net"></path><path class="stroke_order_diagram--existing_path" d="M64,38.5c0.04,0.19,0.05,0.48-0.09,0.75c-1.2,2.39-2.73,4.22-7.84,6.54" id="Ske2uef7a68" kvg:type="㇒" transform="matrix(1,0,0,1,1596,-4)" xmlns:kvg="http://kanjivg.tagaini.net"></path><path class="stroke_order_diagram--existing_path" d="M74.5,35.5c0.55,0.3,1.01,0.66,1.01,1.12c0,0.63-0.16,1.8-0.16,2.24c0,1.22,1.87,1.72,5.44,1.72c3.23,0,5.61-0.5,6.98-0.89" id="Ske2uef7a69" kvg:type="㇄" transform="matrix(1,0,0,1,1596,-4)" xmlns:kvg="http://kanjivg.tagaini.net"></path><path class="stroke_order_diagram--existing_path" d="M50.63,51.01c3.1-0.39,35.86-3.41,40.12-4.01" id="Ske2uef7a6a" kvg:type="㇐" transform="matrix(1,0,0,1,1596,-4)" xmlns:kvg="http://kanjivg.tagaini.net"></path><path class="stroke_order_diagram--existing_path" d="M53.87,55.82c0.44,1.09,1.07,1.9,1.07,3.35s0.2,23.63-0.32,29.72" id="Ske2uef7a6b" kvg:type="㇑" transform="matrix(1,0,0,1,1596,-4)" xmlns:kvg="http://kanjivg.tagaini.net"></path><path class="stroke_order_diagram--existing_path" d="M56.1,57.99c2.82-0.18,25.8-2.43,28.38-2.64c2.14-0.18,3.28,0.97,3.28,2.28c0,3.21-0.63,26.56-0.63,27.61" id="Ske2uef7a6c" kvg:type="㇕a" transform="matrix(1,0,0,1,1596,-4)" xmlns:kvg="http://kanjivg.tagaini.net"></path><path class="stroke_order_diagram--current_path" d="M55.32,67.32c5.27-0.26,27.21-2.03,31.73-2.03" id="kvg:07e8c-s17" kvg:type="㇐a" transform="matrix(1,0,0,1,1596,-4)" xmlns:kvg="http://kanjivg.tagaini.net"></path><path class="stroke_order_diagram--current_path" d="M55.32,67.32c5.27-0.26,27.21-2.03,31.73-2.03" id="Ske2uef7a6e" kvg:type="㇐a" transform="matrix(1,0,0,1,1596,-4)" xmlns:kvg="http://kanjivg.tagaini.net"></path><circle class="stroke_order_diagram--path_start" cx="55.32" cy="67.32" r="4" transform="matrix(1,0,0,1,1596,-4)"></circle><line class="stroke_order_diagram--guide_line" x1="1750" x2="1750" y1="1" y2="99"></line><line class="stroke_order_diagram--bounding_box" x1="1799" x2="1799" y1="1" y2="99"></line><path class="stroke_order_diagram--existing_path" d="M29.26,15.25c0.3,1.18,0.57,2.18-0.15,3.35c-3.16,5.12-9.44,14.61-12.45,17.37c-0.62,0.56-0.6,2.73,0,2.95c3.16,1.18,8.13,3.15,10.84,5.32" id="Ske2uef7a6h" kvg:type="㇜" transform="matrix(1,0,0,1,1696,-4)" xmlns:kvg="http://kanjivg.tagaini.net"></path><path class="stroke_order_diagram--existing_path" d="M37,27.5c0.28,0.58,0.37,2.46,0,3.07c-5.43,9.02-13.49,18.95-20.94,27.17c-1.71,1.88,0.42,2.96,1.54,2.58c4.67-1.6,13.89-3.4,19.88-4.93" id="Ske2uef7a6i" kvg:type="㇜" transform="matrix(1,0,0,1,1696,-4)" xmlns:kvg="http://kanjivg.tagaini.net"></path><path class="stroke_order_diagram--existing_path" d="M32.75,48.25c2.47,2.16,6.38,8.89,7,12.25" id="Ske2uef7a6j" kvg:type="㇔" transform="matrix(1,0,0,1,1696,-4)" xmlns:kvg="http://kanjivg.tagaini.net"></path><path class="stroke_order_diagram--existing_path" d="M27.23,60.51c0.05,0.3,0.69,1.53,0.74,3.39c0.23,8.93-0.15,30.81-0.15,33.85" id="Ske2uef7a6k" kvg:type="㇑" transform="matrix(1,0,0,1,1696,-4)" xmlns:kvg="http://kanjivg.tagaini.net"></path><path class="stroke_order_diagram--existing_path" d="M18.51,70.75c0.15,0.87,0.13,2.57-0.15,3.19c-1.8,4.04-6.31,11.84-8.86,15.31" id="Ske2uef7a6l" kvg:type="㇒" transform="matrix(1,0,0,1,1696,-4)" xmlns:kvg="http://kanjivg.tagaini.net"></path><path class="stroke_order_diagram--existing_path" d="M36,69c2.88,3.54,5.08,11.79,5.75,15" id="Ske2uef7a6m" kvg:type="㇔" transform="matrix(1,0,0,1,1696,-4)" xmlns:kvg="http://kanjivg.tagaini.net"></path><path class="stroke_order_diagram--existing_path" d="M48.88,18.54c0.91,0.33,2.57,0.39,3.48,0.33c9.44-0.56,23.2-2.54,34.27-3.26c1.51-0.1,2.42,0.16,3.17,0.33" id="Ske2uef7a6n" kvg:type="㇐" transform="matrix(1,0,0,1,1696,-4)" xmlns:kvg="http://kanjivg.tagaini.net"></path><path class="stroke_order_diagram--existing_path" d="M67.21,9.85c0.79,0.49,1.27,2.19,1.43,3.16c0.16,0.97,0,8.05-0.16,14.13" id="Ske2uef7a6o" kvg:type="㇑a" transform="matrix(1,0,0,1,1696,-4)" xmlns:kvg="http://kanjivg.tagaini.net"></path><path class="stroke_order_diagram--existing_path" d="M53.41,28.23c0.82,0.2,2.31,0.22,3.13,0.2c10.79-0.24,15.23-2.28,26.62-2.26c1.36,0,2.18,0.1,2.86,0.2" id="Ske2uef7a6p" kvg:type="㇐" transform="matrix(1,0,0,1,1696,-4)" xmlns:kvg="http://kanjivg.tagaini.net"></path><path class="stroke_order_diagram--existing_path" d="M45.75,37c0.27,0.25,0.55,0.46,0.67,0.77c0.95,2.49,3.24,10.34,3.89,14.81" id="Ske2uef7a6q" kvg:type="㇑" transform="matrix(1,0,0,1,1696,-4)" xmlns:kvg="http://kanjivg.tagaini.net"></path><path class="stroke_order_diagram--existing_path" d="M47.15,37.85c5.16-0.98,43.17-4.6,45.91-4.93c1-0.12,2.86,1.35,2.59,2.75c-0.56,2.93-3.05,9.42-4.54,13.61" id="Ske2uef7a6r" kvg:type="㇕" transform="matrix(1,0,0,1,1696,-4)" xmlns:kvg="http://kanjivg.tagaini.net"></path><path class="stroke_order_diagram--existing_path" d="M64,38.5c0.04,0.19,0.05,0.48-0.09,0.75c-1.2,2.39-2.73,4.22-7.84,6.54" id="Ske2uef7a6s" kvg:type="㇒" transform="matrix(1,0,0,1,1696,-4)" xmlns:kvg="http://kanjivg.tagaini.net"></path><path class="stroke_order_diagram--existing_path" d="M74.5,35.5c0.55,0.3,1.01,0.66,1.01,1.12c0,0.63-0.16,1.8-0.16,2.24c0,1.22,1.87,1.72,5.44,1.72c3.23,0,5.61-0.5,6.98-0.89" id="Ske2uef7a6t" kvg:type="㇄" transform="matrix(1,0,0,1,1696,-4)" xmlns:kvg="http://kanjivg.tagaini.net"></path><path class="stroke_order_diagram--existing_path" d="M50.63,51.01c3.1-0.39,35.86-3.41,40.12-4.01" id="Ske2uef7a6u" kvg:type="㇐" transform="matrix(1,0,0,1,1696,-4)" xmlns:kvg="http://kanjivg.tagaini.net"></path><path class="stroke_order_diagram--existing_path" d="M53.87,55.82c0.44,1.09,1.07,1.9,1.07,3.35s0.2,23.63-0.32,29.72" id="Ske2uef7a6v" kvg:type="㇑" transform="matrix(1,0,0,1,1696,-4)" xmlns:kvg="http://kanjivg.tagaini.net"></path><path class="stroke_order_diagram--existing_path" d="M56.1,57.99c2.82-0.18,25.8-2.43,28.38-2.64c2.14-0.18,3.28,0.97,3.28,2.28c0,3.21-0.63,26.56-0.63,27.61" id="Ske2uef7a6w" kvg:type="㇕a" transform="matrix(1,0,0,1,1696,-4)" xmlns:kvg="http://kanjivg.tagaini.net"></path><path class="stroke_order_diagram--existing_path" d="M55.32,67.32c5.27-0.26,27.21-2.03,31.73-2.03" id="Ske2uef7a6x" kvg:type="㇐a" transform="matrix(1,0,0,1,1696,-4)" xmlns:kvg="http://kanjivg.tagaini.net"></path><path class="stroke_order_diagram--current_path" d="M55.55,76.42c7.95-0.77,23.1-1.86,31.54-2.01" id="kvg:07e8c-s18" kvg:type="㇐a" transform="matrix(1,0,0,1,1696,-4)" xmlns:kvg="http://kanjivg.tagaini.net"></path><path class="stroke_order_diagram--current_path" d="M55.55,76.42c7.95-0.77,23.1-1.86,31.54-2.01" id="Ske2uef7a6z" kvg:type="㇐a" transform="matrix(1,0,0,1,1696,-4)" xmlns:kvg="http://kanjivg.tagaini.net"></path><circle class="stroke_order_diagram--path_start" cx="55.55" cy="76.42" r="4" transform="matrix(1,0,0,1,1696,-4)"></circle><line class="stroke_order_diagram--guide_line" x1="1850" x2="1850" y1="1" y2="99"></line><line class="stroke_order_diagram--bounding_box" x1="1899" x2="1899" y1="1" y2="99"></line><path class="stroke_order_diagram--existing_path" d="M29.26,15.25c0.3,1.18,0.57,2.18-0.15,3.35c-3.16,5.12-9.44,14.61-12.45,17.37c-0.62,0.56-0.6,2.73,0,2.95c3.16,1.18,8.13,3.15,10.84,5.32" id="Ske2uef7a72" kvg:type="㇜" transform="matrix(1,0,0,1,1796,-4)" xmlns:kvg="http://kanjivg.tagaini.net"></path><path class="stroke_order_diagram--existing_path" d="M37,27.5c0.28,0.58,0.37,2.46,0,3.07c-5.43,9.02-13.49,18.95-20.94,27.17c-1.71,1.88,0.42,2.96,1.54,2.58c4.67-1.6,13.89-3.4,19.88-4.93" id="Ske2uef7a73" kvg:type="㇜" transform="matrix(1,0,0,1,1796,-4)" xmlns:kvg="http://kanjivg.tagaini.net"></path><path class="stroke_order_diagram--existing_path" d="M32.75,48.25c2.47,2.16,6.38,8.89,7,12.25" id="Ske2uef7a74" kvg:type="㇔" transform="matrix(1,0,0,1,1796,-4)" xmlns:kvg="http://kanjivg.tagaini.net"></path><path class="stroke_order_diagram--existing_path" d="M27.23,60.51c0.05,0.3,0.69,1.53,0.74,3.39c0.23,8.93-0.15,30.81-0.15,33.85" id="Ske2uef7a75" kvg:type="㇑" transform="matrix(1,0,0,1,1796,-4)" xmlns:kvg="http://kanjivg.tagaini.net"></path><path class="stroke_order_diagram--existing_path" d="M18.51,70.75c0.15,0.87,0.13,2.57-0.15,3.19c-1.8,4.04-6.31,11.84-8.86,15.31" id="Ske2uef7a76" kvg:type="㇒" transform="matrix(1,0,0,1,1796,-4)" xmlns:kvg="http://kanjivg.tagaini.net"></path><path class="stroke_order_diagram--existing_path" d="M36,69c2.88,3.54,5.08,11.79,5.75,15" id="Ske2uef7a77" kvg:type="㇔" transform="matrix(1,0,0,1,1796,-4)" xmlns:kvg="http://kanjivg.tagaini.net"></path><path class="stroke_order_diagram--existing_path" d="M48.88,18.54c0.91,0.33,2.57,0.39,3.48,0.33c9.44-0.56,23.2-2.54,34.27-3.26c1.51-0.1,2.42,0.16,3.17,0.33" id="Ske2uef7a78" kvg:type="㇐" transform="matrix(1,0,0,1,1796,-4)" xmlns:kvg="http://kanjivg.tagaini.net"></path><path class="stroke_order_diagram--existing_path" d="M67.21,9.85c0.79,0.49,1.27,2.19,1.43,3.16c0.16,0.97,0,8.05-0.16,14.13" id="Ske2uef7a79" kvg:type="㇑a" transform="matrix(1,0,0,1,1796,-4)" xmlns:kvg="http://kanjivg.tagaini.net"></path><path class="stroke_order_diagram--existing_path" d="M53.41,28.23c0.82,0.2,2.31,0.22,3.13,0.2c10.79-0.24,15.23-2.28,26.62-2.26c1.36,0,2.18,0.1,2.86,0.2" id="Ske2uef7a7a" kvg:type="㇐" transform="matrix(1,0,0,1,1796,-4)" xmlns:kvg="http://kanjivg.tagaini.net"></path><path class="stroke_order_diagram--existing_path" d="M45.75,37c0.27,0.25,0.55,0.46,0.67,0.77c0.95,2.49,3.24,10.34,3.89,14.81" id="Ske2uef7a7b" kvg:type="㇑" transform="matrix(1,0,0,1,1796,-4)" xmlns:kvg="http://kanjivg.tagaini.net"></path><path class="stroke_order_diagram--existing_path" d="M47.15,37.85c5.16-0.98,43.17-4.6,45.91-4.93c1-0.12,2.86,1.35,2.59,2.75c-0.56,2.93-3.05,9.42-4.54,13.61" id="Ske2uef7a7c" kvg:type="㇕" transform="matrix(1,0,0,1,1796,-4)" xmlns:kvg="http://kanjivg.tagaini.net"></path><path class="stroke_order_diagram--existing_path" d="M64,38.5c0.04,0.19,0.05,0.48-0.09,0.75c-1.2,2.39-2.73,4.22-7.84,6.54" id="Ske2uef7a7d" kvg:type="㇒" transform="matrix(1,0,0,1,1796,-4)" xmlns:kvg="http://kanjivg.tagaini.net"></path><path class="stroke_order_diagram--existing_path" d="M74.5,35.5c0.55,0.3,1.01,0.66,1.01,1.12c0,0.63-0.16,1.8-0.16,2.24c0,1.22,1.87,1.72,5.44,1.72c3.23,0,5.61-0.5,6.98-0.89" id="Ske2uef7a7e" kvg:type="㇄" transform="matrix(1,0,0,1,1796,-4)" xmlns:kvg="http://kanjivg.tagaini.net"></path><path class="stroke_order_diagram--existing_path" d="M50.63,51.01c3.1-0.39,35.86-3.41,40.12-4.01" id="Ske2uef7a7f" kvg:type="㇐" transform="matrix(1,0,0,1,1796,-4)" xmlns:kvg="http://kanjivg.tagaini.net"></path><path class="stroke_order_diagram--existing_path" d="M53.87,55.82c0.44,1.09,1.07,1.9,1.07,3.35s0.2,23.63-0.32,29.72" id="Ske2uef7a7g" kvg:type="㇑" transform="matrix(1,0,0,1,1796,-4)" xmlns:kvg="http://kanjivg.tagaini.net"></path><path class="stroke_order_diagram--existing_path" d="M56.1,57.99c2.82-0.18,25.8-2.43,28.38-2.64c2.14-0.18,3.28,0.97,3.28,2.28c0,3.21-0.63,26.56-0.63,27.61" id="Ske2uef7a7h" kvg:type="㇕a" transform="matrix(1,0,0,1,1796,-4)" xmlns:kvg="http://kanjivg.tagaini.net"></path><path class="stroke_order_diagram--existing_path" d="M55.32,67.32c5.27-0.26,27.21-2.03,31.73-2.03" id="Ske2uef7a7i" kvg:type="㇐a" transform="matrix(1,0,0,1,1796,-4)" xmlns:kvg="http://kanjivg.tagaini.net"></path><path class="stroke_order_diagram--existing_path" d="M55.55,76.42c7.95-0.77,23.1-1.86,31.54-2.01" id="Ske2uef7a7j" kvg:type="㇐a" transform="matrix(1,0,0,1,1796,-4)" xmlns:kvg="http://kanjivg.tagaini.net"></path><path class="stroke_order_diagram--current_path" d="M55.19,85.55c7.96-0.58,24.65-1.62,31.9-1.62" id="kvg:07e8c-s19" kvg:type="㇐a" transform="matrix(1,0,0,1,1796,-4)" xmlns:kvg="http://kanjivg.tagaini.net"></path><path class="stroke_order_diagram--current_path" d="M55.19,85.55c7.96-0.58,24.65-1.62,31.9-1.62" id="Ske2uef7a7l" kvg:type="㇐a" transform="matrix(1,0,0,1,1796,-4)" xmlns:kvg="http://kanjivg.tagaini.net"></path><circle class="stroke_order_diagram--path_start" cx="55.19" cy="85.55" r="4" transform="matrix(1,0,0,1,1796,-4)"></circle><line class="stroke_order_diagram--guide_line" x1="1950" x2="1950" y1="1" y2="99"></line><line class="stroke_order_diagram--bounding_box" x1="1999" x2="1999" y1="1" y2="99"></line><path class="stroke_order_diagram--existing_path" d="M29.26,15.25c0.3,1.18,0.57,2.18-0.15,3.35c-3.16,5.12-9.44,14.61-12.45,17.37c-0.62,0.56-0.6,2.73,0,2.95c3.16,1.18,8.13,3.15,10.84,5.32" id="Ske2uef7a7o" kvg:type="㇜" transform="matrix(1,0,0,1,1896,-4)" xmlns:kvg="http://kanjivg.tagaini.net"></path><path class="stroke_order_diagram--existing_path" d="M37,27.5c0.28,0.58,0.37,2.46,0,3.07c-5.43,9.02-13.49,18.95-20.94,27.17c-1.71,1.88,0.42,2.96,1.54,2.58c4.67-1.6,13.89-3.4,19.88-4.93" id="Ske2uef7a7p" kvg:type="㇜" transform="matrix(1,0,0,1,1896,-4)" xmlns:kvg="http://kanjivg.tagaini.net"></path><path class="stroke_order_diagram--existing_path" d="M32.75,48.25c2.47,2.16,6.38,8.89,7,12.25" id="Ske2uef7a7q" kvg:type="㇔" transform="matrix(1,0,0,1,1896,-4)" xmlns:kvg="http://kanjivg.tagaini.net"></path><path class="stroke_order_diagram--existing_path" d="M27.23,60.51c0.05,0.3,0.69,1.53,0.74,3.39c0.23,8.93-0.15,30.81-0.15,33.85" id="Ske2uef7a7r" kvg:type="㇑" transform="matrix(1,0,0,1,1896,-4)" xmlns:kvg="http://kanjivg.tagaini.net"></path><path class="stroke_order_diagram--existing_path" d="M18.51,70.75c0.15,0.87,0.13,2.57-0.15,3.19c-1.8,4.04-6.31,11.84-8.86,15.31" id="Ske2uef7a7s" kvg:type="㇒" transform="matrix(1,0,0,1,1896,-4)" xmlns:kvg="http://kanjivg.tagaini.net"></path><path class="stroke_order_diagram--existing_path" d="M36,69c2.88,3.54,5.08,11.79,5.75,15" id="Ske2uef7a7t" kvg:type="㇔" transform="matrix(1,0,0,1,1896,-4)" xmlns:kvg="http://kanjivg.tagaini.net"></path><path class="stroke_order_diagram--existing_path" d="M48.88,18.54c0.91,0.33,2.57,0.39,3.48,0.33c9.44-0.56,23.2-2.54,34.27-3.26c1.51-0.1,2.42,0.16,3.17,0.33" id="Ske2uef7a7u" kvg:type="㇐" transform="matrix(1,0,0,1,1896,-4)" xmlns:kvg="http://kanjivg.tagaini.net"></path><path class="stroke_order_diagram--existing_path" d="M67.21,9.85c0.79,0.49,1.27,2.19,1.43,3.16c0.16,0.97,0,8.05-0.16,14.13" id="Ske2uef7a7v" kvg:type="㇑a" transform="matrix(1,0,0,1,1896,-4)" xmlns:kvg="http://kanjivg.tagaini.net"></path><path class="stroke_order_diagram--existing_path" d="M53.41,28.23c0.82,0.2,2.31,0.22,3.13,0.2c10.79-0.24,15.23-2.28,26.62-2.26c1.36,0,2.18,0.1,2.86,0.2" id="Ske2uef7a7w" kvg:type="㇐" transform="matrix(1,0,0,1,1896,-4)" xmlns:kvg="http://kanjivg.tagaini.net"></path><path class="stroke_order_diagram--existing_path" d="M45.75,37c0.27,0.25,0.55,0.46,0.67,0.77c0.95,2.49,3.24,10.34,3.89,14.81" id="Ske2uef7a7x" kvg:type="㇑" transform="matrix(1,0,0,1,1896,-4)" xmlns:kvg="http://kanjivg.tagaini.net"></path><path class="stroke_order_diagram--existing_path" d="M47.15,37.85c5.16-0.98,43.17-4.6,45.91-4.93c1-0.12,2.86,1.35,2.59,2.75c-0.56,2.93-3.05,9.42-4.54,13.61" id="Ske2uef7a7y" kvg:type="㇕" transform="matrix(1,0,0,1,1896,-4)" xmlns:kvg="http://kanjivg.tagaini.net"></path><path class="stroke_order_diagram--existing_path" d="M64,38.5c0.04,0.19,0.05,0.48-0.09,0.75c-1.2,2.39-2.73,4.22-7.84,6.54" id="Ske2uef7a7z" kvg:type="㇒" transform="matrix(1,0,0,1,1896,-4)" xmlns:kvg="http://kanjivg.tagaini.net"></path><path class="stroke_order_diagram--existing_path" d="M74.5,35.5c0.55,0.3,1.01,0.66,1.01,1.12c0,0.63-0.16,1.8-0.16,2.24c0,1.22,1.87,1.72,5.44,1.72c3.23,0,5.61-0.5,6.98-0.89" id="Ske2uef7a80" kvg:type="㇄" transform="matrix(1,0,0,1,1896,-4)" xmlns:kvg="http://kanjivg.tagaini.net"></path><path class="stroke_order_diagram--existing_path" d="M50.63,51.01c3.1-0.39,35.86-3.41,40.12-4.01" id="Ske2uef7a81" kvg:type="㇐" transform="matrix(1,0,0,1,1896,-4)" xmlns:kvg="http://kanjivg.tagaini.net"></path><path class="stroke_order_diagram--existing_path" d="M53.87,55.82c0.44,1.09,1.07,1.9,1.07,3.35s0.2,23.63-0.32,29.72" id="Ske2uef7a82" kvg:type="㇑" transform="matrix(1,0,0,1,1896,-4)" xmlns:kvg="http://kanjivg.tagaini.net"></path><path class="stroke_order_diagram--existing_path" d="M56.1,57.99c2.82-0.18,25.8-2.43,28.38-2.64c2.14-0.18,3.28,0.97,3.28,2.28c0,3.21-0.63,26.56-0.63,27.61" id="Ske2uef7a83" kvg:type="㇕a" transform="matrix(1,0,0,1,1896,-4)" xmlns:kvg="http://kanjivg.tagaini.net"></path><path class="stroke_order_diagram--existing_path" d="M55.32,67.32c5.27-0.26,27.21-2.03,31.73-2.03" id="Ske2uef7a84" kvg:type="㇐a" transform="matrix(1,0,0,1,1896,-4)" xmlns:kvg="http://kanjivg.tagaini.net"></path><path class="stroke_order_diagram--existing_path" d="M55.55,76.42c7.95-0.77,23.1-1.86,31.54-2.01" id="Ske2uef7a85" kvg:type="㇐a" transform="matrix(1,0,0,1,1896,-4)" xmlns:kvg="http://kanjivg.tagaini.net"></path><path class="stroke_order_diagram--existing_path" d="M55.19,85.55c7.96-0.58,24.65-1.62,31.9-1.62" id="Ske2uef7a86" kvg:type="㇐a" transform="matrix(1,0,0,1,1896,-4)" xmlns:kvg="http://kanjivg.tagaini.net"></path><path class="stroke_order_diagram--current_path" d="M62.54,88.51c-0.29,1.24-0.46,1.73-1.25,2.55C58.5,94,53.75,97,46.47,100.5" id="kvg:07e8c-s20" kvg:type="㇒" transform="matrix(1,0,0,1,1896,-4)" xmlns:kvg="http://kanjivg.tagaini.net"></path><path class="stroke_order_diagram--current_path" d="M62.54,88.51c-0.29,1.24-0.46,1.73-1.25,2.55C58.5,94,53.75,97,46.47,100.5" id="Ske2uef7a88" kvg:type="㇒" transform="matrix(1,0,0,1,1896,-4)" xmlns:kvg="http://kanjivg.tagaini.net"></path><circle class="stroke_order_diagram--path_start" cx="62.54" cy="88.51" r="4" transform="matrix(1,0,0,1,1896,-4)"></circle><line class="stroke_order_diagram--guide_line" x1="2050" x2="2050" y1="1" y2="99"></line><line class="stroke_order_diagram--bounding_box" x1="2099" x2="2099" y1="1" y2="99"></line><path class="stroke_order_diagram--existing_path" d="M29.26,15.25c0.3,1.18,0.57,2.18-0.15,3.35c-3.16,5.12-9.44,14.61-12.45,17.37c-0.62,0.56-0.6,2.73,0,2.95c3.16,1.18,8.13,3.15,10.84,5.32" id="Ske2uef7a8b" kvg:type="㇜" transform="matrix(1,0,0,1,1996,-4)" xmlns:kvg="http://kanjivg.tagaini.net"></path><path class="stroke_order_diagram--existing_path" d="M37,27.5c0.28,0.58,0.37,2.46,0,3.07c-5.43,9.02-13.49,18.95-20.94,27.17c-1.71,1.88,0.42,2.96,1.54,2.58c4.67-1.6,13.89-3.4,19.88-4.93" id="Ske2uef7a8c" kvg:type="㇜" transform="matrix(1,0,0,1,1996,-4)" xmlns:kvg="http://kanjivg.tagaini.net"></path><path class="stroke_order_diagram--existing_path" d="M32.75,48.25c2.47,2.16,6.38,8.89,7,12.25" id="Ske2uef7a8d" kvg:type="㇔" transform="matrix(1,0,0,1,1996,-4)" xmlns:kvg="http://kanjivg.tagaini.net"></path><path class="stroke_order_diagram--existing_path" d="M27.23,60.51c0.05,0.3,0.69,1.53,0.74,3.39c0.23,8.93-0.15,30.81-0.15,33.85" id="Ske2uef7a8e" kvg:type="㇑" transform="matrix(1,0,0,1,1996,-4)" xmlns:kvg="http://kanjivg.tagaini.net"></path><path class="stroke_order_diagram--existing_path" d="M18.51,70.75c0.15,0.87,0.13,2.57-0.15,3.19c-1.8,4.04-6.31,11.84-8.86,15.31" id="Ske2uef7a8f" kvg:type="㇒" transform="matrix(1,0,0,1,1996,-4)" xmlns:kvg="http://kanjivg.tagaini.net"></path><path class="stroke_order_diagram--existing_path" d="M36,69c2.88,3.54,5.08,11.79,5.75,15" id="Ske2uef7a8g" kvg:type="㇔" transform="matrix(1,0,0,1,1996,-4)" xmlns:kvg="http://kanjivg.tagaini.net"></path><path class="stroke_order_diagram--existing_path" d="M48.88,18.54c0.91,0.33,2.57,0.39,3.48,0.33c9.44-0.56,23.2-2.54,34.27-3.26c1.51-0.1,2.42,0.16,3.17,0.33" id="Ske2uef7a8h" kvg:type="㇐" transform="matrix(1,0,0,1,1996,-4)" xmlns:kvg="http://kanjivg.tagaini.net"></path><path class="stroke_order_diagram--existing_path" d="M67.21,9.85c0.79,0.49,1.27,2.19,1.43,3.16c0.16,0.97,0,8.05-0.16,14.13" id="Ske2uef7a8i" kvg:type="㇑a" transform="matrix(1,0,0,1,1996,-4)" xmlns:kvg="http://kanjivg.tagaini.net"></path><path class="stroke_order_diagram--existing_path" d="M53.41,28.23c0.82,0.2,2.31,0.22,3.13,0.2c10.79-0.24,15.23-2.28,26.62-2.26c1.36,0,2.18,0.1,2.86,0.2" id="Ske2uef7a8j" kvg:type="㇐" transform="matrix(1,0,0,1,1996,-4)" xmlns:kvg="http://kanjivg.tagaini.net"></path><path class="stroke_order_diagram--existing_path" d="M45.75,37c0.27,0.25,0.55,0.46,0.67,0.77c0.95,2.49,3.24,10.34,3.89,14.81" id="Ske2uef7a8k" kvg:type="㇑" transform="matrix(1,0,0,1,1996,-4)" xmlns:kvg="http://kanjivg.tagaini.net"></path><path class="stroke_order_diagram--existing_path" d="M47.15,37.85c5.16-0.98,43.17-4.6,45.91-4.93c1-0.12,2.86,1.35,2.59,2.75c-0.56,2.93-3.05,9.42-4.54,13.61" id="Ske2uef7a8l" kvg:type="㇕" transform="matrix(1,0,0,1,1996,-4)" xmlns:kvg="http://kanjivg.tagaini.net"></path><path class="stroke_order_diagram--existing_path" d="M64,38.5c0.04,0.19,0.05,0.48-0.09,0.75c-1.2,2.39-2.73,4.22-7.84,6.54" id="Ske2uef7a8m" kvg:type="㇒" transform="matrix(1,0,0,1,1996,-4)" xmlns:kvg="http://kanjivg.tagaini.net"></path><path class="stroke_order_diagram--existing_path" d="M74.5,35.5c0.55,0.3,1.01,0.66,1.01,1.12c0,0.63-0.16,1.8-0.16,2.24c0,1.22,1.87,1.72,5.44,1.72c3.23,0,5.61-0.5,6.98-0.89" id="Ske2uef7a8n" kvg:type="㇄" transform="matrix(1,0,0,1,1996,-4)" xmlns:kvg="http://kanjivg.tagaini.net"></path><path class="stroke_order_diagram--existing_path" d="M50.63,51.01c3.1-0.39,35.86-3.41,40.12-4.01" id="Ske2uef7a8o" kvg:type="㇐" transform="matrix(1,0,0,1,1996,-4)" xmlns:kvg="http://kanjivg.tagaini.net"></path><path class="stroke_order_diagram--existing_path" d="M53.87,55.82c0.44,1.09,1.07,1.9,1.07,3.35s0.2,23.63-0.32,29.72" id="Ske2uef7a8p" kvg:type="㇑" transform="matrix(1,0,0,1,1996,-4)" xmlns:kvg="http://kanjivg.tagaini.net"></path><path class="stroke_order_diagram--existing_path" d="M56.1,57.99c2.82-0.18,25.8-2.43,28.38-2.64c2.14-0.18,3.28,0.97,3.28,2.28c0,3.21-0.63,26.56-0.63,27.61" id="Ske2uef7a8q" kvg:type="㇕a" transform="matrix(1,0,0,1,1996,-4)" xmlns:kvg="http://kanjivg.tagaini.net"></path><path class="stroke_order_diagram--existing_path" d="M55.32,67.32c5.27-0.26,27.21-2.03,31.73-2.03" id="Ske2uef7a8r" kvg:type="㇐a" transform="matrix(1,0,0,1,1996,-4)" xmlns:kvg="http://kanjivg.tagaini.net"></path><path class="stroke_order_diagram--existing_path" d="M55.55,76.42c7.95-0.77,23.1-1.86,31.54-2.01" id="Ske2uef7a8s" kvg:type="㇐a" transform="matrix(1,0,0,1,1996,-4)" xmlns:kvg="http://kanjivg.tagaini.net"></path><path class="stroke_order_diagram--existing_path" d="M55.19,85.55c7.96-0.58,24.65-1.62,31.9-1.62" id="Ske2uef7a8t" kvg:type="㇐a" transform="matrix(1,0,0,1,1996,-4)" xmlns:kvg="http://kanjivg.tagaini.net"></path><path class="stroke_order_diagram--existing_path" d="M62.54,88.51c-0.29,1.24-0.46,1.73-1.25,2.55C58.5,94,53.75,97,46.47,100.5" id="Ske2uef7a8u" kvg:type="㇒" transform="matrix(1,0,0,1,1996,-4)" xmlns:kvg="http://kanjivg.tagaini.net"></path><path class="stroke_order_diagram--current_path" d="M77.75,90c7.18,2.41,14.45,7.63,16.25,10" id="kvg:07e8c-s21" kvg:type="㇔" transform="matrix(1,0,0,1,1996,-4)" xmlns:kvg="http://kanjivg.tagaini.net"></path><path class="stroke_order_diagram--current_path" d="M77.75,90c7.18,2.41,14.45,7.63,16.25,10" id="Ske2uef7a8w" kvg:type="㇔" transform="matrix(1,0,0,1,1996,-4)" xmlns:kvg="http://kanjivg.tagaini.net"></path><circle class="stroke_order_diagram--path_start" cx="77.75" cy="90" r="4" transform="matrix(1,0,0,1,1996,-4)"></circle></svg>