<svg class="stroke_order_diagram--svg_container_for_518662efd5dda7965800265f" style="height: 100px; width: 500px;" viewbox="0 0 500 100"><desc>Created with Snap</desc><defs></defs><line class="stroke_order_diagram--bounding_box" x1="1" x2="499" y1="1" y2="1"></line><line class="stroke_order_diagram--bounding_box" x1="1" x2="1" y1="1" y2="99"></line><line class="stroke_order_diagram--bounding_box" x1="1" x2="499" y1="99" y2="99"></line><line class="stroke_order_diagram--guide_line" x1="0" x2="500" y1="50" y2="50"></line><line class="stroke_order_diagram--guide_line" x1="50" x2="50" y1="1" y2="99"></line><line class="stroke_order_diagram--bounding_box" x1="99" x2="99" y1="1" y2="99"></line><path class="stroke_order_diagram--current_path" d="M18.88,39.62c0.94,1.01,1.38,1.78,1.62,3.22c1.07,6.26,2.25,14.16,3.19,21.13c0.27,1.98,0.51,3.88,0.73,5.65" id="kvg:07f52-s1" kvg:type="㇑" transform="matrix(1,0,0,1,-4,-4)" xmlns:kvg="http://kanjivg.tagaini.net"></path><path class="stroke_order_diagram--current_path" d="M18.88,39.62c0.94,1.01,1.38,1.78,1.62,3.22c1.07,6.26,2.25,14.16,3.19,21.13c0.27,1.98,0.51,3.88,0.73,5.65" id="Ske56e9xve" kvg:type="㇑" transform="matrix(1,0,0,1,-4,-4)" xmlns:kvg="http://kanjivg.tagaini.net"></path><circle class="stroke_order_diagram--path_start" cx="18.88" cy="39.62" r="4" transform="matrix(1,0,0,1,-4,-4)"></circle><line class="stroke_order_diagram--guide_line" x1="150" x2="150" y1="1" y2="99"></line><line class="stroke_order_diagram--bounding_box" x1="199" x2="199" y1="1" y2="99"></line><path class="stroke_order_diagram--existing_path" d="M18.88,39.62c0.94,1.01,1.38,1.78,1.62,3.22c1.07,6.26,2.25,14.16,3.19,21.13c0.27,1.98,0.51,3.88,0.73,5.65" id="Ske56e9xvh" kvg:type="㇑" transform="matrix(1,0,0,1,96,-4)" xmlns:kvg="http://kanjivg.tagaini.net"></path><path class="stroke_order_diagram--current_path" d="M21.4,42.22c21.48-2.47,44.98-4.6,63.5-6.01c3.91-0.3,5.49,1.68,4.86,5.43c-0.74,4.43-2.21,11.11-3.54,16.99c-0.49,2.14-0.95,4.14-1.36,5.85" id="kvg:07f52-s2" kvg:type="㇕a" transform="matrix(1,0,0,1,96,-4)" xmlns:kvg="http://kanjivg.tagaini.net"></path><path class="stroke_order_diagram--current_path" d="M21.4,42.22c21.48-2.47,44.98-4.6,63.5-6.01c3.91-0.3,5.49,1.68,4.86,5.43c-0.74,4.43-2.21,11.11-3.54,16.99c-0.49,2.14-0.95,4.14-1.36,5.85" id="Ske56e9xvj" kvg:type="㇕a" transform="matrix(1,0,0,1,96,-4)" xmlns:kvg="http://kanjivg.tagaini.net"></path><circle class="stroke_order_diagram--path_start" cx="21.4" cy="42.22" r="4" transform="matrix(1,0,0,1,96,-4)"></circle><line class="stroke_order_diagram--guide_line" x1="250" x2="250" y1="1" y2="99"></line><line class="stroke_order_diagram--bounding_box" x1="299" x2="299" y1="1" y2="99"></line><path class="stroke_order_diagram--existing_path" d="M18.88,39.62c0.94,1.01,1.38,1.78,1.62,3.22c1.07,6.26,2.25,14.16,3.19,21.13c0.27,1.98,0.51,3.88,0.73,5.65" id="Ske56e9xvm" kvg:type="㇑" transform="matrix(1,0,0,1,196,-4)" xmlns:kvg="http://kanjivg.tagaini.net"></path><path class="stroke_order_diagram--existing_path" d="M21.4,42.22c21.48-2.47,44.98-4.6,63.5-6.01c3.91-0.3,5.49,1.68,4.86,5.43c-0.74,4.43-2.21,11.11-3.54,16.99c-0.49,2.14-0.95,4.14-1.36,5.85" id="Ske56e9xvn" kvg:type="㇕a" transform="matrix(1,0,0,1,196,-4)" xmlns:kvg="http://kanjivg.tagaini.net"></path><path class="stroke_order_diagram--current_path" d="M41.22,41.46c0.72,0.72,1.15,1.75,1.29,3.15c0.57,5.88,1.48,16.17,1.67,19.16" id="kvg:07f52-s3" kvg:type="㇑a" transform="matrix(1,0,0,1,196,-4)" xmlns:kvg="http://kanjivg.tagaini.net"></path><path class="stroke_order_diagram--current_path" d="M41.22,41.46c0.72,0.72,1.15,1.75,1.29,3.15c0.57,5.88,1.48,16.17,1.67,19.16" id="Ske56e9xvp" kvg:type="㇑a" transform="matrix(1,0,0,1,196,-4)" xmlns:kvg="http://kanjivg.tagaini.net"></path><circle class="stroke_order_diagram--path_start" cx="41.22" cy="41.46" r="4" transform="matrix(1,0,0,1,196,-4)"></circle><line class="stroke_order_diagram--guide_line" x1="350" x2="350" y1="1" y2="99"></line><line class="stroke_order_diagram--bounding_box" x1="399" x2="399" y1="1" y2="99"></line><path class="stroke_order_diagram--existing_path" d="M18.88,39.62c0.94,1.01,1.38,1.78,1.62,3.22c1.07,6.26,2.25,14.16,3.19,21.13c0.27,1.98,0.51,3.88,0.73,5.65" id="Ske56e9xvs" kvg:type="㇑" transform="matrix(1,0,0,1,296,-4)" xmlns:kvg="http://kanjivg.tagaini.net"></path><path class="stroke_order_diagram--existing_path" d="M21.4,42.22c21.48-2.47,44.98-4.6,63.5-6.01c3.91-0.3,5.49,1.68,4.86,5.43c-0.74,4.43-2.21,11.11-3.54,16.99c-0.49,2.14-0.95,4.14-1.36,5.85" id="Ske56e9xvt" kvg:type="㇕a" transform="matrix(1,0,0,1,296,-4)" xmlns:kvg="http://kanjivg.tagaini.net"></path><path class="stroke_order_diagram--existing_path" d="M41.22,41.46c0.72,0.72,1.15,1.75,1.29,3.15c0.57,5.88,1.48,16.17,1.67,19.16" id="Ske56e9xvu" kvg:type="㇑a" transform="matrix(1,0,0,1,296,-4)" xmlns:kvg="http://kanjivg.tagaini.net"></path><path class="stroke_order_diagram--current_path" d="M64.55,39.4c0.58,1.22,0.57,2.28,0.43,3.74c-0.63,6.45-1.85,14.74-2.47,18.74" id="kvg:07f52-s4" kvg:type="㇑a" transform="matrix(1,0,0,1,296,-4)" xmlns:kvg="http://kanjivg.tagaini.net"></path><path class="stroke_order_diagram--current_path" d="M64.55,39.4c0.58,1.22,0.57,2.28,0.43,3.74c-0.63,6.45-1.85,14.74-2.47,18.74" id="Ske56e9xvw" kvg:type="㇑a" transform="matrix(1,0,0,1,296,-4)" xmlns:kvg="http://kanjivg.tagaini.net"></path><circle class="stroke_order_diagram--path_start" cx="64.55" cy="39.4" r="4" transform="matrix(1,0,0,1,296,-4)"></circle><line class="stroke_order_diagram--guide_line" x1="450" x2="450" y1="1" y2="99"></line><line class="stroke_order_diagram--bounding_box" x1="499" x2="499" y1="1" y2="99"></line><path class="stroke_order_diagram--existing_path" d="M18.88,39.62c0.94,1.01,1.38,1.78,1.62,3.22c1.07,6.26,2.25,14.16,3.19,21.13c0.27,1.98,0.51,3.88,0.73,5.65" id="Ske56e9xvz" kvg:type="㇑" transform="matrix(1,0,0,1,396,-4)" xmlns:kvg="http://kanjivg.tagaini.net"></path><path class="stroke_order_diagram--existing_path" d="M21.4,42.22c21.48-2.47,44.98-4.6,63.5-6.01c3.91-0.3,5.49,1.68,4.86,5.43c-0.74,4.43-2.21,11.11-3.54,16.99c-0.49,2.14-0.95,4.14-1.36,5.85" id="Ske56e9xv10" kvg:type="㇕a" transform="matrix(1,0,0,1,396,-4)" xmlns:kvg="http://kanjivg.tagaini.net"></path><path class="stroke_order_diagram--existing_path" d="M41.22,41.46c0.72,0.72,1.15,1.75,1.29,3.15c0.57,5.88,1.48,16.17,1.67,19.16" id="Ske56e9xv11" kvg:type="㇑a" transform="matrix(1,0,0,1,396,-4)" xmlns:kvg="http://kanjivg.tagaini.net"></path><path class="stroke_order_diagram--existing_path" d="M64.55,39.4c0.58,1.22,0.57,2.28,0.43,3.74c-0.63,6.45-1.85,14.74-2.47,18.74" id="Ske56e9xv12" kvg:type="㇑a" transform="matrix(1,0,0,1,396,-4)" xmlns:kvg="http://kanjivg.tagaini.net"></path><path class="stroke_order_diagram--current_path" d="M25.07,66.93C30.09,66.2,70,61.75,84.43,62" id="kvg:07f52-s5" kvg:type="㇐a" transform="matrix(1,0,0,1,396,-4)" xmlns:kvg="http://kanjivg.tagaini.net"></path><path class="stroke_order_diagram--current_path" d="M25.07,66.93C30.09,66.2,70,61.75,84.43,62" id="Ske56e9xv14" kvg:type="㇐a" transform="matrix(1,0,0,1,396,-4)" xmlns:kvg="http://kanjivg.tagaini.net"></path><circle class="stroke_order_diagram--path_start" cx="25.07" cy="66.93" r="4" transform="matrix(1,0,0,1,396,-4)"></circle></svg>