<svg class="stroke_order_diagram--svg_container_for_518662b6d5dda796580013b0" style="height: 100px; width: 700px;" viewbox="0 0 700 100"><desc>Created with Snap</desc><defs></defs><line class="stroke_order_diagram--bounding_box" x1="1" x2="699" y1="1" y2="1"></line><line class="stroke_order_diagram--bounding_box" x1="1" x2="1" y1="1" y2="99"></line><line class="stroke_order_diagram--bounding_box" x1="1" x2="699" y1="99" y2="99"></line><line class="stroke_order_diagram--guide_line" x1="0" x2="700" y1="50" y2="50"></line><line class="stroke_order_diagram--guide_line" x1="50" x2="50" y1="1" y2="99"></line><line class="stroke_order_diagram--bounding_box" x1="99" x2="99" y1="1" y2="99"></line><path class="stroke_order_diagram--current_path" d="M21.5,14.5c0,3.91-4.13,14.65-6,17.25" id="kvg:07f55-s1" kvg:type="㇔" transform="matrix(1,0,0,1,-4,-4)" xmlns:kvg="http://kanjivg.tagaini.net"></path><path class="stroke_order_diagram--current_path" d="M21.5,14.5c0,3.91-4.13,14.65-6,17.25" id="Ske2uj8wlg" kvg:type="㇔" transform="matrix(1,0,0,1,-4,-4)" xmlns:kvg="http://kanjivg.tagaini.net"></path><circle class="stroke_order_diagram--path_start" cx="21.5" cy="14.5" r="4" transform="matrix(1,0,0,1,-4,-4)"></circle><line class="stroke_order_diagram--guide_line" x1="150" x2="150" y1="1" y2="99"></line><line class="stroke_order_diagram--bounding_box" x1="199" x2="199" y1="1" y2="99"></line><path class="stroke_order_diagram--existing_path" d="M21.5,14.5c0,3.91-4.13,14.65-6,17.25" id="Ske2uj8wlj" kvg:type="㇔" transform="matrix(1,0,0,1,96,-4)" xmlns:kvg="http://kanjivg.tagaini.net"></path><path class="stroke_order_diagram--current_path" d="M21.25,18.28c10-0.78,52.25-4.28,62.81-4.27c12.27,0.02,6.63,3.78,0.76,9.24" id="kvg:07f55-s2" kvg:type="㇆" transform="matrix(1,0,0,1,96,-4)" xmlns:kvg="http://kanjivg.tagaini.net"></path><path class="stroke_order_diagram--current_path" d="M21.25,18.28c10-0.78,52.25-4.28,62.81-4.27c12.27,0.02,6.63,3.78,0.76,9.24" id="Ske2uj8wll" kvg:type="㇆" transform="matrix(1,0,0,1,96,-4)" xmlns:kvg="http://kanjivg.tagaini.net"></path><circle class="stroke_order_diagram--path_start" cx="21.25" cy="18.28" r="4" transform="matrix(1,0,0,1,96,-4)"></circle><line class="stroke_order_diagram--guide_line" x1="250" x2="250" y1="1" y2="99"></line><line class="stroke_order_diagram--bounding_box" x1="299" x2="299" y1="1" y2="99"></line><path class="stroke_order_diagram--existing_path" d="M21.5,14.5c0,3.91-4.13,14.65-6,17.25" id="Ske2uj8wlo" kvg:type="㇔" transform="matrix(1,0,0,1,196,-4)" xmlns:kvg="http://kanjivg.tagaini.net"></path><path class="stroke_order_diagram--existing_path" d="M21.25,18.28c10-0.78,52.25-4.28,62.81-4.27c12.27,0.02,6.63,3.78,0.76,9.24" id="Ske2uj8wlp" kvg:type="㇆" transform="matrix(1,0,0,1,196,-4)" xmlns:kvg="http://kanjivg.tagaini.net"></path><path class="stroke_order_diagram--current_path" d="M43.48,19.75c0.12,0.56,0.25,1.49-0.25,2.24C38.25,29.5,34,35.25,21,41.5" id="kvg:07f55-s3" kvg:type="㇒" transform="matrix(1,0,0,1,196,-4)" xmlns:kvg="http://kanjivg.tagaini.net"></path><path class="stroke_order_diagram--current_path" d="M43.48,19.75c0.12,0.56,0.25,1.49-0.25,2.24C38.25,29.5,34,35.25,21,41.5" id="Ske2uj8wlr" kvg:type="㇒" transform="matrix(1,0,0,1,196,-4)" xmlns:kvg="http://kanjivg.tagaini.net"></path><circle class="stroke_order_diagram--path_start" cx="43.48" cy="19.75" r="4" transform="matrix(1,0,0,1,196,-4)"></circle><line class="stroke_order_diagram--guide_line" x1="350" x2="350" y1="1" y2="99"></line><line class="stroke_order_diagram--bounding_box" x1="399" x2="399" y1="1" y2="99"></line><path class="stroke_order_diagram--existing_path" d="M21.5,14.5c0,3.91-4.13,14.65-6,17.25" id="Ske2uj8wlu" kvg:type="㇔" transform="matrix(1,0,0,1,296,-4)" xmlns:kvg="http://kanjivg.tagaini.net"></path><path class="stroke_order_diagram--existing_path" d="M21.25,18.28c10-0.78,52.25-4.28,62.81-4.27c12.27,0.02,6.63,3.78,0.76,9.24" id="Ske2uj8wlv" kvg:type="㇆" transform="matrix(1,0,0,1,296,-4)" xmlns:kvg="http://kanjivg.tagaini.net"></path><path class="stroke_order_diagram--existing_path" d="M43.48,19.75c0.12,0.56,0.25,1.49-0.25,2.24C38.25,29.5,34,35.25,21,41.5" id="Ske2uj8wlw" kvg:type="㇒" transform="matrix(1,0,0,1,296,-4)" xmlns:kvg="http://kanjivg.tagaini.net"></path><path class="stroke_order_diagram--current_path" d="M60.76,17.72c1.09,0.85,1.45,2.34,1.52,3.64c0.29,5.82-0.87,11.01,2.33,13.09c3.06,1.99,20.36,0.42,24.14-0.42" id="kvg:07f55-s4" kvg:type="㇟" transform="matrix(1,0,0,1,296,-4)" xmlns:kvg="http://kanjivg.tagaini.net"></path><path class="stroke_order_diagram--current_path" d="M60.76,17.72c1.09,0.85,1.45,2.34,1.52,3.64c0.29,5.82-0.87,11.01,2.33,13.09c3.06,1.99,20.36,0.42,24.14-0.42" id="Ske2uj8wly" kvg:type="㇟" transform="matrix(1,0,0,1,296,-4)" xmlns:kvg="http://kanjivg.tagaini.net"></path><circle class="stroke_order_diagram--path_start" cx="60.76" cy="17.72" r="4" transform="matrix(1,0,0,1,296,-4)"></circle><line class="stroke_order_diagram--guide_line" x1="450" x2="450" y1="1" y2="99"></line><line class="stroke_order_diagram--bounding_box" x1="499" x2="499" y1="1" y2="99"></line><path class="stroke_order_diagram--existing_path" d="M21.5,14.5c0,3.91-4.13,14.65-6,17.25" id="Ske2uj8wl11" kvg:type="㇔" transform="matrix(1,0,0,1,396,-4)" xmlns:kvg="http://kanjivg.tagaini.net"></path><path class="stroke_order_diagram--existing_path" d="M21.25,18.28c10-0.78,52.25-4.28,62.81-4.27c12.27,0.02,6.63,3.78,0.76,9.24" id="Ske2uj8wl12" kvg:type="㇆" transform="matrix(1,0,0,1,396,-4)" xmlns:kvg="http://kanjivg.tagaini.net"></path><path class="stroke_order_diagram--existing_path" d="M43.48,19.75c0.12,0.56,0.25,1.49-0.25,2.24C38.25,29.5,34,35.25,21,41.5" id="Ske2uj8wl13" kvg:type="㇒" transform="matrix(1,0,0,1,396,-4)" xmlns:kvg="http://kanjivg.tagaini.net"></path><path class="stroke_order_diagram--existing_path" d="M60.76,17.72c1.09,0.85,1.45,2.34,1.52,3.64c0.29,5.82-0.87,11.01,2.33,13.09c3.06,1.99,20.36,0.42,24.14-0.42" id="Ske2uj8wl14" kvg:type="㇟" transform="matrix(1,0,0,1,396,-4)" xmlns:kvg="http://kanjivg.tagaini.net"></path><path class="stroke_order_diagram--current_path" d="M27.92,48.96c1,0.33,4.46,0.36,5.47,0.3c6.94-0.39,31.63-2.86,43.47-3.51c1.67-0.09,5.17,0.29,6.01,0.45" id="kvg:07f55-s5" kvg:type="㇐" transform="matrix(1,0,0,1,396,-4)" xmlns:kvg="http://kanjivg.tagaini.net"></path><path class="stroke_order_diagram--current_path" d="M27.92,48.96c1,0.33,4.46,0.36,5.47,0.3c6.94-0.39,31.63-2.86,43.47-3.51c1.67-0.09,5.17,0.29,6.01,0.45" id="Ske2uj8wl16" kvg:type="㇐" transform="matrix(1,0,0,1,396,-4)" xmlns:kvg="http://kanjivg.tagaini.net"></path><circle class="stroke_order_diagram--path_start" cx="27.92" cy="48.96" r="4" transform="matrix(1,0,0,1,396,-4)"></circle><line class="stroke_order_diagram--guide_line" x1="550" x2="550" y1="1" y2="99"></line><line class="stroke_order_diagram--bounding_box" x1="599" x2="599" y1="1" y2="99"></line><path class="stroke_order_diagram--existing_path" d="M21.5,14.5c0,3.91-4.13,14.65-6,17.25" id="Ske2uj8wl19" kvg:type="㇔" transform="matrix(1,0,0,1,496,-4)" xmlns:kvg="http://kanjivg.tagaini.net"></path><path class="stroke_order_diagram--existing_path" d="M21.25,18.28c10-0.78,52.25-4.28,62.81-4.27c12.27,0.02,6.63,3.78,0.76,9.24" id="Ske2uj8wl1a" kvg:type="㇆" transform="matrix(1,0,0,1,496,-4)" xmlns:kvg="http://kanjivg.tagaini.net"></path><path class="stroke_order_diagram--existing_path" d="M43.48,19.75c0.12,0.56,0.25,1.49-0.25,2.24C38.25,29.5,34,35.25,21,41.5" id="Ske2uj8wl1b" kvg:type="㇒" transform="matrix(1,0,0,1,496,-4)" xmlns:kvg="http://kanjivg.tagaini.net"></path><path class="stroke_order_diagram--existing_path" d="M60.76,17.72c1.09,0.85,1.45,2.34,1.52,3.64c0.29,5.82-0.87,11.01,2.33,13.09c3.06,1.99,20.36,0.42,24.14-0.42" id="Ske2uj8wl1c" kvg:type="㇟" transform="matrix(1,0,0,1,496,-4)" xmlns:kvg="http://kanjivg.tagaini.net"></path><path class="stroke_order_diagram--existing_path" d="M27.92,48.96c1,0.33,4.46,0.36,5.47,0.3c6.94-0.39,31.63-2.86,43.47-3.51c1.67-0.09,5.17,0.29,6.01,0.45" id="Ske2uj8wl1d" kvg:type="㇐" transform="matrix(1,0,0,1,496,-4)" xmlns:kvg="http://kanjivg.tagaini.net"></path><path class="stroke_order_diagram--current_path" d="M18.13,66.77c2.02,0.29,5.74,0.37,7.75,0.29c19.02-0.78,37.85-2.51,59.92-2.78c3.37-0.04,5.39,0.14,7.08,0.28" id="kvg:07f55-s6" kvg:type="㇐" transform="matrix(1,0,0,1,496,-4)" xmlns:kvg="http://kanjivg.tagaini.net"></path><path class="stroke_order_diagram--current_path" d="M18.13,66.77c2.02,0.29,5.74,0.37,7.75,0.29c19.02-0.78,37.85-2.51,59.92-2.78c3.37-0.04,5.39,0.14,7.08,0.28" id="Ske2uj8wl1f" kvg:type="㇐" transform="matrix(1,0,0,1,496,-4)" xmlns:kvg="http://kanjivg.tagaini.net"></path><circle class="stroke_order_diagram--path_start" cx="18.13" cy="66.77" r="4" transform="matrix(1,0,0,1,496,-4)"></circle><line class="stroke_order_diagram--guide_line" x1="650" x2="650" y1="1" y2="99"></line><line class="stroke_order_diagram--bounding_box" x1="699" x2="699" y1="1" y2="99"></line><path class="stroke_order_diagram--existing_path" d="M21.5,14.5c0,3.91-4.13,14.65-6,17.25" id="Ske2uj8wl1i" kvg:type="㇔" transform="matrix(1,0,0,1,596,-4)" xmlns:kvg="http://kanjivg.tagaini.net"></path><path class="stroke_order_diagram--existing_path" d="M21.25,18.28c10-0.78,52.25-4.28,62.81-4.27c12.27,0.02,6.63,3.78,0.76,9.24" id="Ske2uj8wl1j" kvg:type="㇆" transform="matrix(1,0,0,1,596,-4)" xmlns:kvg="http://kanjivg.tagaini.net"></path><path class="stroke_order_diagram--existing_path" d="M43.48,19.75c0.12,0.56,0.25,1.49-0.25,2.24C38.25,29.5,34,35.25,21,41.5" id="Ske2uj8wl1k" kvg:type="㇒" transform="matrix(1,0,0,1,596,-4)" xmlns:kvg="http://kanjivg.tagaini.net"></path><path class="stroke_order_diagram--existing_path" d="M60.76,17.72c1.09,0.85,1.45,2.34,1.52,3.64c0.29,5.82-0.87,11.01,2.33,13.09c3.06,1.99,20.36,0.42,24.14-0.42" id="Ske2uj8wl1l" kvg:type="㇟" transform="matrix(1,0,0,1,596,-4)" xmlns:kvg="http://kanjivg.tagaini.net"></path><path class="stroke_order_diagram--existing_path" d="M27.92,48.96c1,0.33,4.46,0.36,5.47,0.3c6.94-0.39,31.63-2.86,43.47-3.51c1.67-0.09,5.17,0.29,6.01,0.45" id="Ske2uj8wl1m" kvg:type="㇐" transform="matrix(1,0,0,1,596,-4)" xmlns:kvg="http://kanjivg.tagaini.net"></path><path class="stroke_order_diagram--existing_path" d="M18.13,66.77c2.02,0.29,5.74,0.37,7.75,0.29c19.02-0.78,37.85-2.51,59.92-2.78c3.37-0.04,5.39,0.14,7.08,0.28" id="Ske2uj8wl1n" kvg:type="㇐" transform="matrix(1,0,0,1,596,-4)" xmlns:kvg="http://kanjivg.tagaini.net"></path><path class="stroke_order_diagram--current_path" d="M52.06,49.88c0.54,0.51,2.29,2.12,2.29,4.83c0,5.29-0.07,37.56-0.18,43.92" id="kvg:07f55-s7" kvg:type="㇑" transform="matrix(1,0,0,1,596,-4)" xmlns:kvg="http://kanjivg.tagaini.net"></path><path class="stroke_order_diagram--current_path" d="M52.06,49.88c0.54,0.51,2.29,2.12,2.29,4.83c0,5.29-0.07,37.56-0.18,43.92" id="Ske2uj8wl1p" kvg:type="㇑" transform="matrix(1,0,0,1,596,-4)" xmlns:kvg="http://kanjivg.tagaini.net"></path><circle class="stroke_order_diagram--path_start" cx="52.06" cy="49.88" r="4" transform="matrix(1,0,0,1,596,-4)"></circle></svg>