<svg class="stroke_order_diagram--svg_container_for_5186628dd5dda79658000730" style="height: 100px; width: 1300px;" viewbox="0 0 1300 100"><desc>Created with Snap</desc><defs></defs><line class="stroke_order_diagram--bounding_box" x1="1" x2="1299" y1="1" y2="1"></line><line class="stroke_order_diagram--bounding_box" x1="1" x2="1" y1="1" y2="99"></line><line class="stroke_order_diagram--bounding_box" x1="1" x2="1299" y1="99" y2="99"></line><line class="stroke_order_diagram--guide_line" x1="0" x2="1300" y1="50" y2="50"></line><line class="stroke_order_diagram--guide_line" x1="50" x2="50" y1="1" y2="99"></line><line class="stroke_order_diagram--bounding_box" x1="99" x2="99" y1="1" y2="99"></line><path class="stroke_order_diagram--current_path" d="M24,16.46c0.65,0.65,1.25,1.55,1.34,1.96c0.71,3.37,1.88,8.19,2.75,12.77c0.25,1.3,0.47,2.59,0.65,3.81" id="kvg:07f6e-s1" kvg:type="㇑" transform="matrix(1,0,0,1,-4,-4)" xmlns:kvg="http://kanjivg.tagaini.net"></path><path class="stroke_order_diagram--current_path" d="M24,16.46c0.65,0.65,1.25,1.55,1.34,1.96c0.71,3.37,1.88,8.19,2.75,12.77c0.25,1.3,0.47,2.59,0.65,3.81" id="Ske22g515m" kvg:type="㇑" transform="matrix(1,0,0,1,-4,-4)" xmlns:kvg="http://kanjivg.tagaini.net"></path><circle class="stroke_order_diagram--path_start" cx="24" cy="16.46" r="4" transform="matrix(1,0,0,1,-4,-4)"></circle><line class="stroke_order_diagram--guide_line" x1="150" x2="150" y1="1" y2="99"></line><line class="stroke_order_diagram--bounding_box" x1="199" x2="199" y1="1" y2="99"></line><path class="stroke_order_diagram--existing_path" d="M24,16.46c0.65,0.65,1.25,1.55,1.34,1.96c0.71,3.37,1.88,8.19,2.75,12.77c0.25,1.3,0.47,2.59,0.65,3.81" id="Ske22g515p" kvg:type="㇑" transform="matrix(1,0,0,1,96,-4)" xmlns:kvg="http://kanjivg.tagaini.net"></path><path class="stroke_order_diagram--current_path" d="M26.37,18.04c7.83-0.84,46.64-4.08,57.51-4.71c3.02-0.17,5.61,0.58,4.7,4.22c-0.62,2.44-1.73,5.73-3.25,9.73c-0.38,1.01-0.79,2.07-1.23,3.17" id="kvg:07f6e-s2" kvg:type="㇕a" transform="matrix(1,0,0,1,96,-4)" xmlns:kvg="http://kanjivg.tagaini.net"></path><path class="stroke_order_diagram--current_path" d="M26.37,18.04c7.83-0.84,46.64-4.08,57.51-4.71c3.02-0.17,5.61,0.58,4.7,4.22c-0.62,2.44-1.73,5.73-3.25,9.73c-0.38,1.01-0.79,2.07-1.23,3.17" id="Ske22g515r" kvg:type="㇕a" transform="matrix(1,0,0,1,96,-4)" xmlns:kvg="http://kanjivg.tagaini.net"></path><circle class="stroke_order_diagram--path_start" cx="26.37" cy="18.04" r="4" transform="matrix(1,0,0,1,96,-4)"></circle><line class="stroke_order_diagram--guide_line" x1="250" x2="250" y1="1" y2="99"></line><line class="stroke_order_diagram--bounding_box" x1="299" x2="299" y1="1" y2="99"></line><path class="stroke_order_diagram--existing_path" d="M24,16.46c0.65,0.65,1.25,1.55,1.34,1.96c0.71,3.37,1.88,8.19,2.75,12.77c0.25,1.3,0.47,2.59,0.65,3.81" id="Ske22g515u" kvg:type="㇑" transform="matrix(1,0,0,1,196,-4)" xmlns:kvg="http://kanjivg.tagaini.net"></path><path class="stroke_order_diagram--existing_path" d="M26.37,18.04c7.83-0.84,46.64-4.08,57.51-4.71c3.02-0.17,5.61,0.58,4.7,4.22c-0.62,2.44-1.73,5.73-3.25,9.73c-0.38,1.01-0.79,2.07-1.23,3.17" id="Ske22g515v" kvg:type="㇕a" transform="matrix(1,0,0,1,196,-4)" xmlns:kvg="http://kanjivg.tagaini.net"></path><path class="stroke_order_diagram--current_path" d="M45.5,17.75c0.56,0.56,0.89,1.34,1,2.39c0.37,3.24,0.97,8.31,1.11,10.03" id="kvg:07f6e-s3" kvg:type="㇑a" transform="matrix(1,0,0,1,196,-4)" xmlns:kvg="http://kanjivg.tagaini.net"></path><path class="stroke_order_diagram--current_path" d="M45.5,17.75c0.56,0.56,0.89,1.34,1,2.39c0.37,3.24,0.97,8.31,1.11,10.03" id="Ske22g515x" kvg:type="㇑a" transform="matrix(1,0,0,1,196,-4)" xmlns:kvg="http://kanjivg.tagaini.net"></path><circle class="stroke_order_diagram--path_start" cx="45.5" cy="17.75" r="4" transform="matrix(1,0,0,1,196,-4)"></circle><line class="stroke_order_diagram--guide_line" x1="350" x2="350" y1="1" y2="99"></line><line class="stroke_order_diagram--bounding_box" x1="399" x2="399" y1="1" y2="99"></line><path class="stroke_order_diagram--existing_path" d="M24,16.46c0.65,0.65,1.25,1.55,1.34,1.96c0.71,3.37,1.88,8.19,2.75,12.77c0.25,1.3,0.47,2.59,0.65,3.81" id="Ske22g51510" kvg:type="㇑" transform="matrix(1,0,0,1,296,-4)" xmlns:kvg="http://kanjivg.tagaini.net"></path><path class="stroke_order_diagram--existing_path" d="M26.37,18.04c7.83-0.84,46.64-4.08,57.51-4.71c3.02-0.17,5.61,0.58,4.7,4.22c-0.62,2.44-1.73,5.73-3.25,9.73c-0.38,1.01-0.79,2.07-1.23,3.17" id="Ske22g51511" kvg:type="㇕a" transform="matrix(1,0,0,1,296,-4)" xmlns:kvg="http://kanjivg.tagaini.net"></path><path class="stroke_order_diagram--existing_path" d="M45.5,17.75c0.56,0.56,0.89,1.34,1,2.39c0.37,3.24,0.97,8.31,1.11,10.03" id="Ske22g51512" kvg:type="㇑a" transform="matrix(1,0,0,1,296,-4)" xmlns:kvg="http://kanjivg.tagaini.net"></path><path class="stroke_order_diagram--current_path" d="M65.81,15.79c0.44,0.71,0.49,1.52,0.36,2.24c-0.79,4.44-1.53,7.83-2.19,10.85" id="kvg:07f6e-s4" kvg:type="㇑a" transform="matrix(1,0,0,1,296,-4)" xmlns:kvg="http://kanjivg.tagaini.net"></path><path class="stroke_order_diagram--current_path" d="M65.81,15.79c0.44,0.71,0.49,1.52,0.36,2.24c-0.79,4.44-1.53,7.83-2.19,10.85" id="Ske22g51514" kvg:type="㇑a" transform="matrix(1,0,0,1,296,-4)" xmlns:kvg="http://kanjivg.tagaini.net"></path><circle class="stroke_order_diagram--path_start" cx="65.81" cy="15.79" r="4" transform="matrix(1,0,0,1,296,-4)"></circle><line class="stroke_order_diagram--guide_line" x1="450" x2="450" y1="1" y2="99"></line><line class="stroke_order_diagram--bounding_box" x1="499" x2="499" y1="1" y2="99"></line><path class="stroke_order_diagram--existing_path" d="M24,16.46c0.65,0.65,1.25,1.55,1.34,1.96c0.71,3.37,1.88,8.19,2.75,12.77c0.25,1.3,0.47,2.59,0.65,3.81" id="Ske22g51517" kvg:type="㇑" transform="matrix(1,0,0,1,396,-4)" xmlns:kvg="http://kanjivg.tagaini.net"></path><path class="stroke_order_diagram--existing_path" d="M26.37,18.04c7.83-0.84,46.64-4.08,57.51-4.71c3.02-0.17,5.61,0.58,4.7,4.22c-0.62,2.44-1.73,5.73-3.25,9.73c-0.38,1.01-0.79,2.07-1.23,3.17" id="Ske22g51518" kvg:type="㇕a" transform="matrix(1,0,0,1,396,-4)" xmlns:kvg="http://kanjivg.tagaini.net"></path><path class="stroke_order_diagram--existing_path" d="M45.5,17.75c0.56,0.56,0.89,1.34,1,2.39c0.37,3.24,0.97,8.31,1.11,10.03" id="Ske22g51519" kvg:type="㇑a" transform="matrix(1,0,0,1,396,-4)" xmlns:kvg="http://kanjivg.tagaini.net"></path><path class="stroke_order_diagram--existing_path" d="M65.81,15.79c0.44,0.71,0.49,1.52,0.36,2.24c-0.79,4.44-1.53,7.83-2.19,10.85" id="Ske22g5151a" kvg:type="㇑a" transform="matrix(1,0,0,1,396,-4)" xmlns:kvg="http://kanjivg.tagaini.net"></path><path class="stroke_order_diagram--current_path" d="M29.56,32.82c10.82-1.07,44.94-3.7,54.08-4" id="kvg:07f6e-s5" kvg:type="㇐a" transform="matrix(1,0,0,1,396,-4)" xmlns:kvg="http://kanjivg.tagaini.net"></path><path class="stroke_order_diagram--current_path" d="M29.56,32.82c10.82-1.07,44.94-3.7,54.08-4" id="Ske22g5151c" kvg:type="㇐a" transform="matrix(1,0,0,1,396,-4)" xmlns:kvg="http://kanjivg.tagaini.net"></path><circle class="stroke_order_diagram--path_start" cx="29.56" cy="32.82" r="4" transform="matrix(1,0,0,1,396,-4)"></circle><line class="stroke_order_diagram--guide_line" x1="550" x2="550" y1="1" y2="99"></line><line class="stroke_order_diagram--bounding_box" x1="599" x2="599" y1="1" y2="99"></line><path class="stroke_order_diagram--existing_path" d="M24,16.46c0.65,0.65,1.25,1.55,1.34,1.96c0.71,3.37,1.88,8.19,2.75,12.77c0.25,1.3,0.47,2.59,0.65,3.81" id="Ske22g5151f" kvg:type="㇑" transform="matrix(1,0,0,1,496,-4)" xmlns:kvg="http://kanjivg.tagaini.net"></path><path class="stroke_order_diagram--existing_path" d="M26.37,18.04c7.83-0.84,46.64-4.08,57.51-4.71c3.02-0.17,5.61,0.58,4.7,4.22c-0.62,2.44-1.73,5.73-3.25,9.73c-0.38,1.01-0.79,2.07-1.23,3.17" id="Ske22g5151g" kvg:type="㇕a" transform="matrix(1,0,0,1,496,-4)" xmlns:kvg="http://kanjivg.tagaini.net"></path><path class="stroke_order_diagram--existing_path" d="M45.5,17.75c0.56,0.56,0.89,1.34,1,2.39c0.37,3.24,0.97,8.31,1.11,10.03" id="Ske22g5151h" kvg:type="㇑a" transform="matrix(1,0,0,1,496,-4)" xmlns:kvg="http://kanjivg.tagaini.net"></path><path class="stroke_order_diagram--existing_path" d="M65.81,15.79c0.44,0.71,0.49,1.52,0.36,2.24c-0.79,4.44-1.53,7.83-2.19,10.85" id="Ske22g5151i" kvg:type="㇑a" transform="matrix(1,0,0,1,496,-4)" xmlns:kvg="http://kanjivg.tagaini.net"></path><path class="stroke_order_diagram--existing_path" d="M29.56,32.82c10.82-1.07,44.94-3.7,54.08-4" id="Ske22g5151j" kvg:type="㇐a" transform="matrix(1,0,0,1,496,-4)" xmlns:kvg="http://kanjivg.tagaini.net"></path><path class="stroke_order_diagram--current_path" d="M28.34,44.27c1.62,0.34,4.57,0.15,6.19,0c14.21-1.27,29.84-3.14,44.2-3.97c2.7-0.16,4.31-0.1,5.65,0.03" id="kvg:07f6e-s6" kvg:type="㇐" transform="matrix(1,0,0,1,496,-4)" xmlns:kvg="http://kanjivg.tagaini.net"></path><path class="stroke_order_diagram--current_path" d="M28.34,44.27c1.62,0.34,4.57,0.15,6.19,0c14.21-1.27,29.84-3.14,44.2-3.97c2.7-0.16,4.31-0.1,5.65,0.03" id="Ske22g5151l" kvg:type="㇐" transform="matrix(1,0,0,1,496,-4)" xmlns:kvg="http://kanjivg.tagaini.net"></path><circle class="stroke_order_diagram--path_start" cx="28.34" cy="44.27" r="4" transform="matrix(1,0,0,1,496,-4)"></circle><line class="stroke_order_diagram--guide_line" x1="650" x2="650" y1="1" y2="99"></line><line class="stroke_order_diagram--bounding_box" x1="699" x2="699" y1="1" y2="99"></line><path class="stroke_order_diagram--existing_path" d="M24,16.46c0.65,0.65,1.25,1.55,1.34,1.96c0.71,3.37,1.88,8.19,2.75,12.77c0.25,1.3,0.47,2.59,0.65,3.81" id="Ske22g5151o" kvg:type="㇑" transform="matrix(1,0,0,1,596,-4)" xmlns:kvg="http://kanjivg.tagaini.net"></path><path class="stroke_order_diagram--existing_path" d="M26.37,18.04c7.83-0.84,46.64-4.08,57.51-4.71c3.02-0.17,5.61,0.58,4.7,4.22c-0.62,2.44-1.73,5.73-3.25,9.73c-0.38,1.01-0.79,2.07-1.23,3.17" id="Ske22g5151p" kvg:type="㇕a" transform="matrix(1,0,0,1,596,-4)" xmlns:kvg="http://kanjivg.tagaini.net"></path><path class="stroke_order_diagram--existing_path" d="M45.5,17.75c0.56,0.56,0.89,1.34,1,2.39c0.37,3.24,0.97,8.31,1.11,10.03" id="Ske22g5151q" kvg:type="㇑a" transform="matrix(1,0,0,1,596,-4)" xmlns:kvg="http://kanjivg.tagaini.net"></path><path class="stroke_order_diagram--existing_path" d="M65.81,15.79c0.44,0.71,0.49,1.52,0.36,2.24c-0.79,4.44-1.53,7.83-2.19,10.85" id="Ske22g5151r" kvg:type="㇑a" transform="matrix(1,0,0,1,596,-4)" xmlns:kvg="http://kanjivg.tagaini.net"></path><path class="stroke_order_diagram--existing_path" d="M29.56,32.82c10.82-1.07,44.94-3.7,54.08-4" id="Ske22g5151s" kvg:type="㇐a" transform="matrix(1,0,0,1,596,-4)" xmlns:kvg="http://kanjivg.tagaini.net"></path><path class="stroke_order_diagram--existing_path" d="M28.34,44.27c1.62,0.34,4.57,0.15,6.19,0c14.21-1.27,29.84-3.14,44.2-3.97c2.7-0.16,4.31-0.1,5.65,0.03" id="Ske22g5151t" kvg:type="㇐" transform="matrix(1,0,0,1,596,-4)" xmlns:kvg="http://kanjivg.tagaini.net"></path><path class="stroke_order_diagram--current_path" d="M53.36,34.55c0.86,0.86,1.31,2.04,1.24,2.82c-0.35,3.89-1.1,7.39-2.13,14.62" id="kvg:07f6e-s7" kvg:type="㇑a" transform="matrix(1,0,0,1,596,-4)" xmlns:kvg="http://kanjivg.tagaini.net"></path><path class="stroke_order_diagram--current_path" d="M53.36,34.55c0.86,0.86,1.31,2.04,1.24,2.82c-0.35,3.89-1.1,7.39-2.13,14.62" id="Ske22g5151v" kvg:type="㇑a" transform="matrix(1,0,0,1,596,-4)" xmlns:kvg="http://kanjivg.tagaini.net"></path><circle class="stroke_order_diagram--path_start" cx="53.36" cy="34.55" r="4" transform="matrix(1,0,0,1,596,-4)"></circle><line class="stroke_order_diagram--guide_line" x1="750" x2="750" y1="1" y2="99"></line><line class="stroke_order_diagram--bounding_box" x1="799" x2="799" y1="1" y2="99"></line><path class="stroke_order_diagram--existing_path" d="M24,16.46c0.65,0.65,1.25,1.55,1.34,1.96c0.71,3.37,1.88,8.19,2.75,12.77c0.25,1.3,0.47,2.59,0.65,3.81" id="Ske22g5151y" kvg:type="㇑" transform="matrix(1,0,0,1,696,-4)" xmlns:kvg="http://kanjivg.tagaini.net"></path><path class="stroke_order_diagram--existing_path" d="M26.37,18.04c7.83-0.84,46.64-4.08,57.51-4.71c3.02-0.17,5.61,0.58,4.7,4.22c-0.62,2.44-1.73,5.73-3.25,9.73c-0.38,1.01-0.79,2.07-1.23,3.17" id="Ske22g5151z" kvg:type="㇕a" transform="matrix(1,0,0,1,696,-4)" xmlns:kvg="http://kanjivg.tagaini.net"></path><path class="stroke_order_diagram--existing_path" d="M45.5,17.75c0.56,0.56,0.89,1.34,1,2.39c0.37,3.24,0.97,8.31,1.11,10.03" id="Ske22g51520" kvg:type="㇑a" transform="matrix(1,0,0,1,696,-4)" xmlns:kvg="http://kanjivg.tagaini.net"></path><path class="stroke_order_diagram--existing_path" d="M65.81,15.79c0.44,0.71,0.49,1.52,0.36,2.24c-0.79,4.44-1.53,7.83-2.19,10.85" id="Ske22g51521" kvg:type="㇑a" transform="matrix(1,0,0,1,696,-4)" xmlns:kvg="http://kanjivg.tagaini.net"></path><path class="stroke_order_diagram--existing_path" d="M29.56,32.82c10.82-1.07,44.94-3.7,54.08-4" id="Ske22g51522" kvg:type="㇐a" transform="matrix(1,0,0,1,696,-4)" xmlns:kvg="http://kanjivg.tagaini.net"></path><path class="stroke_order_diagram--existing_path" d="M28.34,44.27c1.62,0.34,4.57,0.15,6.19,0c14.21-1.27,29.84-3.14,44.2-3.97c2.7-0.16,4.31-0.1,5.65,0.03" id="Ske22g51523" kvg:type="㇐" transform="matrix(1,0,0,1,696,-4)" xmlns:kvg="http://kanjivg.tagaini.net"></path><path class="stroke_order_diagram--existing_path" d="M53.36,34.55c0.86,0.86,1.31,2.04,1.24,2.82c-0.35,3.89-1.1,7.39-2.13,14.62" id="Ske22g51524" kvg:type="㇑a" transform="matrix(1,0,0,1,696,-4)" xmlns:kvg="http://kanjivg.tagaini.net"></path><path class="stroke_order_diagram--current_path" d="M38.39,52.99c1.06,1.06,1.39,1.88,1.39,3.42c0,0.83,0.12,16.04,0.15,25.96c0.01,1.57,0.01,3,0.01,4.23" id="kvg:07f6e-s8" kvg:type="㇑" transform="matrix(1,0,0,1,696,-4)" xmlns:kvg="http://kanjivg.tagaini.net"></path><path class="stroke_order_diagram--current_path" d="M38.39,52.99c1.06,1.06,1.39,1.88,1.39,3.42c0,0.83,0.12,16.04,0.15,25.96c0.01,1.57,0.01,3,0.01,4.23" id="Ske22g51526" kvg:type="㇑" transform="matrix(1,0,0,1,696,-4)" xmlns:kvg="http://kanjivg.tagaini.net"></path><circle class="stroke_order_diagram--path_start" cx="38.39" cy="52.99" r="4" transform="matrix(1,0,0,1,696,-4)"></circle><line class="stroke_order_diagram--guide_line" x1="850" x2="850" y1="1" y2="99"></line><line class="stroke_order_diagram--bounding_box" x1="899" x2="899" y1="1" y2="99"></line><path class="stroke_order_diagram--existing_path" d="M24,16.46c0.65,0.65,1.25,1.55,1.34,1.96c0.71,3.37,1.88,8.19,2.75,12.77c0.25,1.3,0.47,2.59,0.65,3.81" id="Ske22g51529" kvg:type="㇑" transform="matrix(1,0,0,1,796,-4)" xmlns:kvg="http://kanjivg.tagaini.net"></path><path class="stroke_order_diagram--existing_path" d="M26.37,18.04c7.83-0.84,46.64-4.08,57.51-4.71c3.02-0.17,5.61,0.58,4.7,4.22c-0.62,2.44-1.73,5.73-3.25,9.73c-0.38,1.01-0.79,2.07-1.23,3.17" id="Ske22g5152a" kvg:type="㇕a" transform="matrix(1,0,0,1,796,-4)" xmlns:kvg="http://kanjivg.tagaini.net"></path><path class="stroke_order_diagram--existing_path" d="M45.5,17.75c0.56,0.56,0.89,1.34,1,2.39c0.37,3.24,0.97,8.31,1.11,10.03" id="Ske22g5152b" kvg:type="㇑a" transform="matrix(1,0,0,1,796,-4)" xmlns:kvg="http://kanjivg.tagaini.net"></path><path class="stroke_order_diagram--existing_path" d="M65.81,15.79c0.44,0.71,0.49,1.52,0.36,2.24c-0.79,4.44-1.53,7.83-2.19,10.85" id="Ske22g5152c" kvg:type="㇑a" transform="matrix(1,0,0,1,796,-4)" xmlns:kvg="http://kanjivg.tagaini.net"></path><path class="stroke_order_diagram--existing_path" d="M29.56,32.82c10.82-1.07,44.94-3.7,54.08-4" id="Ske22g5152d" kvg:type="㇐a" transform="matrix(1,0,0,1,796,-4)" xmlns:kvg="http://kanjivg.tagaini.net"></path><path class="stroke_order_diagram--existing_path" d="M28.34,44.27c1.62,0.34,4.57,0.15,6.19,0c14.21-1.27,29.84-3.14,44.2-3.97c2.7-0.16,4.31-0.1,5.65,0.03" id="Ske22g5152e" kvg:type="㇐" transform="matrix(1,0,0,1,796,-4)" xmlns:kvg="http://kanjivg.tagaini.net"></path><path class="stroke_order_diagram--existing_path" d="M53.36,34.55c0.86,0.86,1.31,2.04,1.24,2.82c-0.35,3.89-1.1,7.39-2.13,14.62" id="Ske22g5152f" kvg:type="㇑a" transform="matrix(1,0,0,1,796,-4)" xmlns:kvg="http://kanjivg.tagaini.net"></path><path class="stroke_order_diagram--existing_path" d="M38.39,52.99c1.06,1.06,1.39,1.88,1.39,3.42c0,0.83,0.12,16.04,0.15,25.96c0.01,1.57,0.01,3,0.01,4.23" id="Ske22g5152g" kvg:type="㇑" transform="matrix(1,0,0,1,796,-4)" xmlns:kvg="http://kanjivg.tagaini.net"></path><path class="stroke_order_diagram--current_path" d="M40.8,54.38c3.37-0.22,26.81-3.12,29.91-3.36c2.43-0.19,4.14,1.11,4.14,3.68c0,1-0.3,13.62-0.38,23.93c-0.01,1.72-0.02,3.38-0.02,4.91" id="kvg:07f6e-s9" kvg:type="㇕a" transform="matrix(1,0,0,1,796,-4)" xmlns:kvg="http://kanjivg.tagaini.net"></path><path class="stroke_order_diagram--current_path" d="M40.8,54.38c3.37-0.22,26.81-3.12,29.91-3.36c2.43-0.19,4.14,1.11,4.14,3.68c0,1-0.3,13.62-0.38,23.93c-0.01,1.72-0.02,3.38-0.02,4.91" id="Ske22g5152i" kvg:type="㇕a" transform="matrix(1,0,0,1,796,-4)" xmlns:kvg="http://kanjivg.tagaini.net"></path><circle class="stroke_order_diagram--path_start" cx="40.8" cy="54.38" r="4" transform="matrix(1,0,0,1,796,-4)"></circle><line class="stroke_order_diagram--guide_line" x1="950" x2="950" y1="1" y2="99"></line><line class="stroke_order_diagram--bounding_box" x1="999" x2="999" y1="1" y2="99"></line><path class="stroke_order_diagram--existing_path" d="M24,16.46c0.65,0.65,1.25,1.55,1.34,1.96c0.71,3.37,1.88,8.19,2.75,12.77c0.25,1.3,0.47,2.59,0.65,3.81" id="Ske22g5152l" kvg:type="㇑" transform="matrix(1,0,0,1,896,-4)" xmlns:kvg="http://kanjivg.tagaini.net"></path><path class="stroke_order_diagram--existing_path" d="M26.37,18.04c7.83-0.84,46.64-4.08,57.51-4.71c3.02-0.17,5.61,0.58,4.7,4.22c-0.62,2.44-1.73,5.73-3.25,9.73c-0.38,1.01-0.79,2.07-1.23,3.17" id="Ske22g5152m" kvg:type="㇕a" transform="matrix(1,0,0,1,896,-4)" xmlns:kvg="http://kanjivg.tagaini.net"></path><path class="stroke_order_diagram--existing_path" d="M45.5,17.75c0.56,0.56,0.89,1.34,1,2.39c0.37,3.24,0.97,8.31,1.11,10.03" id="Ske22g5152n" kvg:type="㇑a" transform="matrix(1,0,0,1,896,-4)" xmlns:kvg="http://kanjivg.tagaini.net"></path><path class="stroke_order_diagram--existing_path" d="M65.81,15.79c0.44,0.71,0.49,1.52,0.36,2.24c-0.79,4.44-1.53,7.83-2.19,10.85" id="Ske22g5152o" kvg:type="㇑a" transform="matrix(1,0,0,1,896,-4)" xmlns:kvg="http://kanjivg.tagaini.net"></path><path class="stroke_order_diagram--existing_path" d="M29.56,32.82c10.82-1.07,44.94-3.7,54.08-4" id="Ske22g5152p" kvg:type="㇐a" transform="matrix(1,0,0,1,896,-4)" xmlns:kvg="http://kanjivg.tagaini.net"></path><path class="stroke_order_diagram--existing_path" d="M28.34,44.27c1.62,0.34,4.57,0.15,6.19,0c14.21-1.27,29.84-3.14,44.2-3.97c2.7-0.16,4.31-0.1,5.65,0.03" id="Ske22g5152q" kvg:type="㇐" transform="matrix(1,0,0,1,896,-4)" xmlns:kvg="http://kanjivg.tagaini.net"></path><path class="stroke_order_diagram--existing_path" d="M53.36,34.55c0.86,0.86,1.31,2.04,1.24,2.82c-0.35,3.89-1.1,7.39-2.13,14.62" id="Ske22g5152r" kvg:type="㇑a" transform="matrix(1,0,0,1,896,-4)" xmlns:kvg="http://kanjivg.tagaini.net"></path><path class="stroke_order_diagram--existing_path" d="M38.39,52.99c1.06,1.06,1.39,1.88,1.39,3.42c0,0.83,0.12,16.04,0.15,25.96c0.01,1.57,0.01,3,0.01,4.23" id="Ske22g5152s" kvg:type="㇑" transform="matrix(1,0,0,1,896,-4)" xmlns:kvg="http://kanjivg.tagaini.net"></path><path class="stroke_order_diagram--existing_path" d="M40.8,54.38c3.37-0.22,26.81-3.12,29.91-3.36c2.43-0.19,4.14,1.11,4.14,3.68c0,1-0.3,13.62-0.38,23.93c-0.01,1.72-0.02,3.38-0.02,4.91" id="Ske22g5152t" kvg:type="㇕a" transform="matrix(1,0,0,1,896,-4)" xmlns:kvg="http://kanjivg.tagaini.net"></path><path class="stroke_order_diagram--current_path" d="M40.93,64.05c8.07-0.8,27.25-3.06,32.49-3.21" id="kvg:07f6e-s10" kvg:type="㇐a" transform="matrix(1,0,0,1,896,-4)" xmlns:kvg="http://kanjivg.tagaini.net"></path><path class="stroke_order_diagram--current_path" d="M40.93,64.05c8.07-0.8,27.25-3.06,32.49-3.21" id="Ske22g5152v" kvg:type="㇐a" transform="matrix(1,0,0,1,896,-4)" xmlns:kvg="http://kanjivg.tagaini.net"></path><circle class="stroke_order_diagram--path_start" cx="40.93" cy="64.05" r="4" transform="matrix(1,0,0,1,896,-4)"></circle><line class="stroke_order_diagram--guide_line" x1="1050" x2="1050" y1="1" y2="99"></line><line class="stroke_order_diagram--bounding_box" x1="1099" x2="1099" y1="1" y2="99"></line><path class="stroke_order_diagram--existing_path" d="M24,16.46c0.65,0.65,1.25,1.55,1.34,1.96c0.71,3.37,1.88,8.19,2.75,12.77c0.25,1.3,0.47,2.59,0.65,3.81" id="Ske22g5152y" kvg:type="㇑" transform="matrix(1,0,0,1,996,-4)" xmlns:kvg="http://kanjivg.tagaini.net"></path><path class="stroke_order_diagram--existing_path" d="M26.37,18.04c7.83-0.84,46.64-4.08,57.51-4.71c3.02-0.17,5.61,0.58,4.7,4.22c-0.62,2.44-1.73,5.73-3.25,9.73c-0.38,1.01-0.79,2.07-1.23,3.17" id="Ske22g5152z" kvg:type="㇕a" transform="matrix(1,0,0,1,996,-4)" xmlns:kvg="http://kanjivg.tagaini.net"></path><path class="stroke_order_diagram--existing_path" d="M45.5,17.75c0.56,0.56,0.89,1.34,1,2.39c0.37,3.24,0.97,8.31,1.11,10.03" id="Ske22g51530" kvg:type="㇑a" transform="matrix(1,0,0,1,996,-4)" xmlns:kvg="http://kanjivg.tagaini.net"></path><path class="stroke_order_diagram--existing_path" d="M65.81,15.79c0.44,0.71,0.49,1.52,0.36,2.24c-0.79,4.44-1.53,7.83-2.19,10.85" id="Ske22g51531" kvg:type="㇑a" transform="matrix(1,0,0,1,996,-4)" xmlns:kvg="http://kanjivg.tagaini.net"></path><path class="stroke_order_diagram--existing_path" d="M29.56,32.82c10.82-1.07,44.94-3.7,54.08-4" id="Ske22g51532" kvg:type="㇐a" transform="matrix(1,0,0,1,996,-4)" xmlns:kvg="http://kanjivg.tagaini.net"></path><path class="stroke_order_diagram--existing_path" d="M28.34,44.27c1.62,0.34,4.57,0.15,6.19,0c14.21-1.27,29.84-3.14,44.2-3.97c2.7-0.16,4.31-0.1,5.65,0.03" id="Ske22g51533" kvg:type="㇐" transform="matrix(1,0,0,1,996,-4)" xmlns:kvg="http://kanjivg.tagaini.net"></path><path class="stroke_order_diagram--existing_path" d="M53.36,34.55c0.86,0.86,1.31,2.04,1.24,2.82c-0.35,3.89-1.1,7.39-2.13,14.62" id="Ske22g51534" kvg:type="㇑a" transform="matrix(1,0,0,1,996,-4)" xmlns:kvg="http://kanjivg.tagaini.net"></path><path class="stroke_order_diagram--existing_path" d="M38.39,52.99c1.06,1.06,1.39,1.88,1.39,3.42c0,0.83,0.12,16.04,0.15,25.96c0.01,1.57,0.01,3,0.01,4.23" id="Ske22g51535" kvg:type="㇑" transform="matrix(1,0,0,1,996,-4)" xmlns:kvg="http://kanjivg.tagaini.net"></path><path class="stroke_order_diagram--existing_path" d="M40.8,54.38c3.37-0.22,26.81-3.12,29.91-3.36c2.43-0.19,4.14,1.11,4.14,3.68c0,1-0.3,13.62-0.38,23.93c-0.01,1.72-0.02,3.38-0.02,4.91" id="Ske22g51536" kvg:type="㇕a" transform="matrix(1,0,0,1,996,-4)" xmlns:kvg="http://kanjivg.tagaini.net"></path><path class="stroke_order_diagram--existing_path" d="M40.93,64.05c8.07-0.8,27.25-3.06,32.49-3.21" id="Ske22g51537" kvg:type="㇐a" transform="matrix(1,0,0,1,996,-4)" xmlns:kvg="http://kanjivg.tagaini.net"></path><path class="stroke_order_diagram--current_path" d="M41.2,73.79c9.3-1.04,23.05-2.66,32.35-3.1" id="kvg:07f6e-s11" kvg:type="㇐a" transform="matrix(1,0,0,1,996,-4)" xmlns:kvg="http://kanjivg.tagaini.net"></path><path class="stroke_order_diagram--current_path" d="M41.2,73.79c9.3-1.04,23.05-2.66,32.35-3.1" id="Ske22g51539" kvg:type="㇐a" transform="matrix(1,0,0,1,996,-4)" xmlns:kvg="http://kanjivg.tagaini.net"></path><circle class="stroke_order_diagram--path_start" cx="41.2" cy="73.79" r="4" transform="matrix(1,0,0,1,996,-4)"></circle><line class="stroke_order_diagram--guide_line" x1="1150" x2="1150" y1="1" y2="99"></line><line class="stroke_order_diagram--bounding_box" x1="1199" x2="1199" y1="1" y2="99"></line><path class="stroke_order_diagram--existing_path" d="M24,16.46c0.65,0.65,1.25,1.55,1.34,1.96c0.71,3.37,1.88,8.19,2.75,12.77c0.25,1.3,0.47,2.59,0.65,3.81" id="Ske22g5153c" kvg:type="㇑" transform="matrix(1,0,0,1,1096,-4)" xmlns:kvg="http://kanjivg.tagaini.net"></path><path class="stroke_order_diagram--existing_path" d="M26.37,18.04c7.83-0.84,46.64-4.08,57.51-4.71c3.02-0.17,5.61,0.58,4.7,4.22c-0.62,2.44-1.73,5.73-3.25,9.73c-0.38,1.01-0.79,2.07-1.23,3.17" id="Ske22g5153d" kvg:type="㇕a" transform="matrix(1,0,0,1,1096,-4)" xmlns:kvg="http://kanjivg.tagaini.net"></path><path class="stroke_order_diagram--existing_path" d="M45.5,17.75c0.56,0.56,0.89,1.34,1,2.39c0.37,3.24,0.97,8.31,1.11,10.03" id="Ske22g5153e" kvg:type="㇑a" transform="matrix(1,0,0,1,1096,-4)" xmlns:kvg="http://kanjivg.tagaini.net"></path><path class="stroke_order_diagram--existing_path" d="M65.81,15.79c0.44,0.71,0.49,1.52,0.36,2.24c-0.79,4.44-1.53,7.83-2.19,10.85" id="Ske22g5153f" kvg:type="㇑a" transform="matrix(1,0,0,1,1096,-4)" xmlns:kvg="http://kanjivg.tagaini.net"></path><path class="stroke_order_diagram--existing_path" d="M29.56,32.82c10.82-1.07,44.94-3.7,54.08-4" id="Ske22g5153g" kvg:type="㇐a" transform="matrix(1,0,0,1,1096,-4)" xmlns:kvg="http://kanjivg.tagaini.net"></path><path class="stroke_order_diagram--existing_path" d="M28.34,44.27c1.62,0.34,4.57,0.15,6.19,0c14.21-1.27,29.84-3.14,44.2-3.97c2.7-0.16,4.31-0.1,5.65,0.03" id="Ske22g5153h" kvg:type="㇐" transform="matrix(1,0,0,1,1096,-4)" xmlns:kvg="http://kanjivg.tagaini.net"></path><path class="stroke_order_diagram--existing_path" d="M53.36,34.55c0.86,0.86,1.31,2.04,1.24,2.82c-0.35,3.89-1.1,7.39-2.13,14.62" id="Ske22g5153i" kvg:type="㇑a" transform="matrix(1,0,0,1,1096,-4)" xmlns:kvg="http://kanjivg.tagaini.net"></path><path class="stroke_order_diagram--existing_path" d="M38.39,52.99c1.06,1.06,1.39,1.88,1.39,3.42c0,0.83,0.12,16.04,0.15,25.96c0.01,1.57,0.01,3,0.01,4.23" id="Ske22g5153j" kvg:type="㇑" transform="matrix(1,0,0,1,1096,-4)" xmlns:kvg="http://kanjivg.tagaini.net"></path><path class="stroke_order_diagram--existing_path" d="M40.8,54.38c3.37-0.22,26.81-3.12,29.91-3.36c2.43-0.19,4.14,1.11,4.14,3.68c0,1-0.3,13.62-0.38,23.93c-0.01,1.72-0.02,3.38-0.02,4.91" id="Ske22g5153k" kvg:type="㇕a" transform="matrix(1,0,0,1,1096,-4)" xmlns:kvg="http://kanjivg.tagaini.net"></path><path class="stroke_order_diagram--existing_path" d="M40.93,64.05c8.07-0.8,27.25-3.06,32.49-3.21" id="Ske22g5153l" kvg:type="㇐a" transform="matrix(1,0,0,1,1096,-4)" xmlns:kvg="http://kanjivg.tagaini.net"></path><path class="stroke_order_diagram--existing_path" d="M41.2,73.79c9.3-1.04,23.05-2.66,32.35-3.1" id="Ske22g5153m" kvg:type="㇐a" transform="matrix(1,0,0,1,1096,-4)" xmlns:kvg="http://kanjivg.tagaini.net"></path><path class="stroke_order_diagram--current_path" d="M41.1,83.9c5.95-0.53,27.96-3.03,32.25-3.15" id="kvg:07f6e-s12" kvg:type="㇐a" transform="matrix(1,0,0,1,1096,-4)" xmlns:kvg="http://kanjivg.tagaini.net"></path><path class="stroke_order_diagram--current_path" d="M41.1,83.9c5.95-0.53,27.96-3.03,32.25-3.15" id="Ske22g5153o" kvg:type="㇐a" transform="matrix(1,0,0,1,1096,-4)" xmlns:kvg="http://kanjivg.tagaini.net"></path><circle class="stroke_order_diagram--path_start" cx="41.1" cy="83.9" r="4" transform="matrix(1,0,0,1,1096,-4)"></circle><line class="stroke_order_diagram--guide_line" x1="1250" x2="1250" y1="1" y2="99"></line><line class="stroke_order_diagram--bounding_box" x1="1299" x2="1299" y1="1" y2="99"></line><path class="stroke_order_diagram--existing_path" d="M24,16.46c0.65,0.65,1.25,1.55,1.34,1.96c0.71,3.37,1.88,8.19,2.75,12.77c0.25,1.3,0.47,2.59,0.65,3.81" id="Ske22g5153r" kvg:type="㇑" transform="matrix(1,0,0,1,1196,-4)" xmlns:kvg="http://kanjivg.tagaini.net"></path><path class="stroke_order_diagram--existing_path" d="M26.37,18.04c7.83-0.84,46.64-4.08,57.51-4.71c3.02-0.17,5.61,0.58,4.7,4.22c-0.62,2.44-1.73,5.73-3.25,9.73c-0.38,1.01-0.79,2.07-1.23,3.17" id="Ske22g5153s" kvg:type="㇕a" transform="matrix(1,0,0,1,1196,-4)" xmlns:kvg="http://kanjivg.tagaini.net"></path><path class="stroke_order_diagram--existing_path" d="M45.5,17.75c0.56,0.56,0.89,1.34,1,2.39c0.37,3.24,0.97,8.31,1.11,10.03" id="Ske22g5153t" kvg:type="㇑a" transform="matrix(1,0,0,1,1196,-4)" xmlns:kvg="http://kanjivg.tagaini.net"></path><path class="stroke_order_diagram--existing_path" d="M65.81,15.79c0.44,0.71,0.49,1.52,0.36,2.24c-0.79,4.44-1.53,7.83-2.19,10.85" id="Ske22g5153u" kvg:type="㇑a" transform="matrix(1,0,0,1,1196,-4)" xmlns:kvg="http://kanjivg.tagaini.net"></path><path class="stroke_order_diagram--existing_path" d="M29.56,32.82c10.82-1.07,44.94-3.7,54.08-4" id="Ske22g5153v" kvg:type="㇐a" transform="matrix(1,0,0,1,1196,-4)" xmlns:kvg="http://kanjivg.tagaini.net"></path><path class="stroke_order_diagram--existing_path" d="M28.34,44.27c1.62,0.34,4.57,0.15,6.19,0c14.21-1.27,29.84-3.14,44.2-3.97c2.7-0.16,4.31-0.1,5.65,0.03" id="Ske22g5153w" kvg:type="㇐" transform="matrix(1,0,0,1,1196,-4)" xmlns:kvg="http://kanjivg.tagaini.net"></path><path class="stroke_order_diagram--existing_path" d="M53.36,34.55c0.86,0.86,1.31,2.04,1.24,2.82c-0.35,3.89-1.1,7.39-2.13,14.62" id="Ske22g5153x" kvg:type="㇑a" transform="matrix(1,0,0,1,1196,-4)" xmlns:kvg="http://kanjivg.tagaini.net"></path><path class="stroke_order_diagram--existing_path" d="M38.39,52.99c1.06,1.06,1.39,1.88,1.39,3.42c0,0.83,0.12,16.04,0.15,25.96c0.01,1.57,0.01,3,0.01,4.23" id="Ske22g5153y" kvg:type="㇑" transform="matrix(1,0,0,1,1196,-4)" xmlns:kvg="http://kanjivg.tagaini.net"></path><path class="stroke_order_diagram--existing_path" d="M40.8,54.38c3.37-0.22,26.81-3.12,29.91-3.36c2.43-0.19,4.14,1.11,4.14,3.68c0,1-0.3,13.62-0.38,23.93c-0.01,1.72-0.02,3.38-0.02,4.91" id="Ske22g5153z" kvg:type="㇕a" transform="matrix(1,0,0,1,1196,-4)" xmlns:kvg="http://kanjivg.tagaini.net"></path><path class="stroke_order_diagram--existing_path" d="M40.93,64.05c8.07-0.8,27.25-3.06,32.49-3.21" id="Ske22g51540" kvg:type="㇐a" transform="matrix(1,0,0,1,1196,-4)" xmlns:kvg="http://kanjivg.tagaini.net"></path><path class="stroke_order_diagram--existing_path" d="M41.2,73.79c9.3-1.04,23.05-2.66,32.35-3.1" id="Ske22g51541" kvg:type="㇐a" transform="matrix(1,0,0,1,1196,-4)" xmlns:kvg="http://kanjivg.tagaini.net"></path><path class="stroke_order_diagram--existing_path" d="M41.1,83.9c5.95-0.53,27.96-3.03,32.25-3.15" id="Ske22g51542" kvg:type="㇐a" transform="matrix(1,0,0,1,1196,-4)" xmlns:kvg="http://kanjivg.tagaini.net"></path><path class="stroke_order_diagram--current_path" d="M21.78,64.8c0.99,0.92,1.49,2.53,1.49,4.43s-1.2,22.31-1.45,24.07c-0.32,2.2,0.68,3.07,3.22,2.75c20.28-2.61,43.09-3.67,61.29-3.8c2.72-0.02,5.19,0.42,7.17,0.93" id="kvg:07f6e-s13" kvg:type="㇗" transform="matrix(1,0,0,1,1196,-4)" xmlns:kvg="http://kanjivg.tagaini.net"></path><path class="stroke_order_diagram--current_path" d="M21.78,64.8c0.99,0.92,1.49,2.53,1.49,4.43s-1.2,22.31-1.45,24.07c-0.32,2.2,0.68,3.07,3.22,2.75c20.28-2.61,43.09-3.67,61.29-3.8c2.72-0.02,5.19,0.42,7.17,0.93" id="Ske22g51544" kvg:type="㇗" transform="matrix(1,0,0,1,1196,-4)" xmlns:kvg="http://kanjivg.tagaini.net"></path><circle class="stroke_order_diagram--path_start" cx="21.78" cy="64.8" r="4" transform="matrix(1,0,0,1,1196,-4)"></circle></svg>