<svg class="stroke_order_diagram--svg_container_for_5186629ad5dda79658000ad9" style="height: 100px; width: 600px;" viewbox="0 0 600 100"><desc>Created with Snap</desc><defs></defs><line class="stroke_order_diagram--bounding_box" x1="1" x2="599" y1="1" y2="1"></line><line class="stroke_order_diagram--bounding_box" x1="1" x2="1" y1="1" y2="99"></line><line class="stroke_order_diagram--bounding_box" x1="1" x2="599" y1="99" y2="99"></line><line class="stroke_order_diagram--guide_line" x1="0" x2="600" y1="50" y2="50"></line><line class="stroke_order_diagram--guide_line" x1="50" x2="50" y1="1" y2="99"></line><line class="stroke_order_diagram--bounding_box" x1="99" x2="99" y1="1" y2="99"></line><path class="stroke_order_diagram--current_path" d="M33.89,11.71c3.06,2.03,7.9,8.35,8.67,11.51" id="kvg:07f8a-s1" kvg:type="㇔" transform="matrix(1,0,0,1,-4,-4)" xmlns:kvg="http://kanjivg.tagaini.net"></path><path class="stroke_order_diagram--current_path" d="M33.89,11.71c3.06,2.03,7.9,8.35,8.67,11.51" id="Ske2a8j05f" kvg:type="㇔" transform="matrix(1,0,0,1,-4,-4)" xmlns:kvg="http://kanjivg.tagaini.net"></path><circle class="stroke_order_diagram--path_start" cx="33.89" cy="11.71" r="4" transform="matrix(1,0,0,1,-4,-4)"></circle><line class="stroke_order_diagram--guide_line" x1="150" x2="150" y1="1" y2="99"></line><line class="stroke_order_diagram--bounding_box" x1="199" x2="199" y1="1" y2="99"></line><path class="stroke_order_diagram--existing_path" d="M33.89,11.71c3.06,2.03,7.9,8.35,8.67,11.51" id="Ske2a8j05i" kvg:type="㇔" transform="matrix(1,0,0,1,96,-4)" xmlns:kvg="http://kanjivg.tagaini.net"></path><path class="stroke_order_diagram--current_path" d="M69.9,10.64c0.03,0.38,0.12,1.25-0.06,1.79C68.5,16.25,65,21,59.78,25.95" id="kvg:07f8a-s2" kvg:type="㇒" transform="matrix(1,0,0,1,96,-4)" xmlns:kvg="http://kanjivg.tagaini.net"></path><path class="stroke_order_diagram--current_path" d="M69.9,10.64c0.03,0.38,0.12,1.25-0.06,1.79C68.5,16.25,65,21,59.78,25.95" id="Ske2a8j05k" kvg:type="㇒" transform="matrix(1,0,0,1,96,-4)" xmlns:kvg="http://kanjivg.tagaini.net"></path><circle class="stroke_order_diagram--path_start" cx="69.9" cy="10.64" r="4" transform="matrix(1,0,0,1,96,-4)"></circle><line class="stroke_order_diagram--guide_line" x1="250" x2="250" y1="1" y2="99"></line><line class="stroke_order_diagram--bounding_box" x1="299" x2="299" y1="1" y2="99"></line><path class="stroke_order_diagram--existing_path" d="M33.89,11.71c3.06,2.03,7.9,8.35,8.67,11.51" id="Ske2a8j05n" kvg:type="㇔" transform="matrix(1,0,0,1,196,-4)" xmlns:kvg="http://kanjivg.tagaini.net"></path><path class="stroke_order_diagram--existing_path" d="M69.9,10.64c0.03,0.38,0.12,1.25-0.06,1.79C68.5,16.25,65,21,59.78,25.95" id="Ske2a8j05o" kvg:type="㇒" transform="matrix(1,0,0,1,196,-4)" xmlns:kvg="http://kanjivg.tagaini.net"></path><path class="stroke_order_diagram--current_path" d="M26.5,31.64c2.88,0.44,5.74,0.25,8.63,0.01c11-0.9,27.5-3.4,39.36-3.89c2.52-0.1,5.16-0.34,7.64,0.25" id="kvg:07f8a-s3" kvg:type="㇐" transform="matrix(1,0,0,1,196,-4)" xmlns:kvg="http://kanjivg.tagaini.net"></path><path class="stroke_order_diagram--current_path" d="M26.5,31.64c2.88,0.44,5.74,0.25,8.63,0.01c11-0.9,27.5-3.4,39.36-3.89c2.52-0.1,5.16-0.34,7.64,0.25" id="Ske2a8j05q" kvg:type="㇐" transform="matrix(1,0,0,1,196,-4)" xmlns:kvg="http://kanjivg.tagaini.net"></path><circle class="stroke_order_diagram--path_start" cx="26.5" cy="31.64" r="4" transform="matrix(1,0,0,1,196,-4)"></circle><line class="stroke_order_diagram--guide_line" x1="350" x2="350" y1="1" y2="99"></line><line class="stroke_order_diagram--bounding_box" x1="399" x2="399" y1="1" y2="99"></line><path class="stroke_order_diagram--existing_path" d="M33.89,11.71c3.06,2.03,7.9,8.35,8.67,11.51" id="Ske2a8j05t" kvg:type="㇔" transform="matrix(1,0,0,1,296,-4)" xmlns:kvg="http://kanjivg.tagaini.net"></path><path class="stroke_order_diagram--existing_path" d="M69.9,10.64c0.03,0.38,0.12,1.25-0.06,1.79C68.5,16.25,65,21,59.78,25.95" id="Ske2a8j05u" kvg:type="㇒" transform="matrix(1,0,0,1,296,-4)" xmlns:kvg="http://kanjivg.tagaini.net"></path><path class="stroke_order_diagram--existing_path" d="M26.5,31.64c2.88,0.44,5.74,0.25,8.63,0.01c11-0.9,27.5-3.4,39.36-3.89c2.52-0.1,5.16-0.34,7.64,0.25" id="Ske2a8j05v" kvg:type="㇐" transform="matrix(1,0,0,1,296,-4)" xmlns:kvg="http://kanjivg.tagaini.net"></path><path class="stroke_order_diagram--current_path" d="M28.25,49.64c2.38,0.61,4.96,0.67,7.14,0.34c11.36-1.73,26.36-3.23,36.74-3.73c2.43-0.12,5.23-0.07,7.62,0.51" id="kvg:07f8a-s4" kvg:type="㇐" transform="matrix(1,0,0,1,296,-4)" xmlns:kvg="http://kanjivg.tagaini.net"></path><path class="stroke_order_diagram--current_path" d="M28.25,49.64c2.38,0.61,4.96,0.67,7.14,0.34c11.36-1.73,26.36-3.23,36.74-3.73c2.43-0.12,5.23-0.07,7.62,0.51" id="Ske2a8j05x" kvg:type="㇐" transform="matrix(1,0,0,1,296,-4)" xmlns:kvg="http://kanjivg.tagaini.net"></path><circle class="stroke_order_diagram--path_start" cx="28.25" cy="49.64" r="4" transform="matrix(1,0,0,1,296,-4)"></circle><line class="stroke_order_diagram--guide_line" x1="450" x2="450" y1="1" y2="99"></line><line class="stroke_order_diagram--bounding_box" x1="499" x2="499" y1="1" y2="99"></line><path class="stroke_order_diagram--existing_path" d="M33.89,11.71c3.06,2.03,7.9,8.35,8.67,11.51" id="Ske2a8j0510" kvg:type="㇔" transform="matrix(1,0,0,1,396,-4)" xmlns:kvg="http://kanjivg.tagaini.net"></path><path class="stroke_order_diagram--existing_path" d="M69.9,10.64c0.03,0.38,0.12,1.25-0.06,1.79C68.5,16.25,65,21,59.78,25.95" id="Ske2a8j0511" kvg:type="㇒" transform="matrix(1,0,0,1,396,-4)" xmlns:kvg="http://kanjivg.tagaini.net"></path><path class="stroke_order_diagram--existing_path" d="M26.5,31.64c2.88,0.44,5.74,0.25,8.63,0.01c11-0.9,27.5-3.4,39.36-3.89c2.52-0.1,5.16-0.34,7.64,0.25" id="Ske2a8j0512" kvg:type="㇐" transform="matrix(1,0,0,1,396,-4)" xmlns:kvg="http://kanjivg.tagaini.net"></path><path class="stroke_order_diagram--existing_path" d="M28.25,49.64c2.38,0.61,4.96,0.67,7.14,0.34c11.36-1.73,26.36-3.23,36.74-3.73c2.43-0.12,5.23-0.07,7.62,0.51" id="Ske2a8j0513" kvg:type="㇐" transform="matrix(1,0,0,1,396,-4)" xmlns:kvg="http://kanjivg.tagaini.net"></path><path class="stroke_order_diagram--current_path" d="M13.75,68.95c3.96,0.68,8.72,0.42,12.73,0.13c15.53-1.16,37.11-3.35,55.58-3.77c4.08-0.09,8.3-0.28,12.32,0.49" id="kvg:07f8a-s5" kvg:type="㇐" transform="matrix(1,0,0,1,396,-4)" xmlns:kvg="http://kanjivg.tagaini.net"></path><path class="stroke_order_diagram--current_path" d="M13.75,68.95c3.96,0.68,8.72,0.42,12.73,0.13c15.53-1.16,37.11-3.35,55.58-3.77c4.08-0.09,8.3-0.28,12.32,0.49" id="Ske2a8j0515" kvg:type="㇐" transform="matrix(1,0,0,1,396,-4)" xmlns:kvg="http://kanjivg.tagaini.net"></path><circle class="stroke_order_diagram--path_start" cx="13.75" cy="68.95" r="4" transform="matrix(1,0,0,1,396,-4)"></circle><line class="stroke_order_diagram--guide_line" x1="550" x2="550" y1="1" y2="99"></line><line class="stroke_order_diagram--bounding_box" x1="599" x2="599" y1="1" y2="99"></line><path class="stroke_order_diagram--existing_path" d="M33.89,11.71c3.06,2.03,7.9,8.35,8.67,11.51" id="Ske2a8j0518" kvg:type="㇔" transform="matrix(1,0,0,1,496,-4)" xmlns:kvg="http://kanjivg.tagaini.net"></path><path class="stroke_order_diagram--existing_path" d="M69.9,10.64c0.03,0.38,0.12,1.25-0.06,1.79C68.5,16.25,65,21,59.78,25.95" id="Ske2a8j0519" kvg:type="㇒" transform="matrix(1,0,0,1,496,-4)" xmlns:kvg="http://kanjivg.tagaini.net"></path><path class="stroke_order_diagram--existing_path" d="M26.5,31.64c2.88,0.44,5.74,0.25,8.63,0.01c11-0.9,27.5-3.4,39.36-3.89c2.52-0.1,5.16-0.34,7.64,0.25" id="Ske2a8j051a" kvg:type="㇐" transform="matrix(1,0,0,1,496,-4)" xmlns:kvg="http://kanjivg.tagaini.net"></path><path class="stroke_order_diagram--existing_path" d="M28.25,49.64c2.38,0.61,4.96,0.67,7.14,0.34c11.36-1.73,26.36-3.23,36.74-3.73c2.43-0.12,5.23-0.07,7.62,0.51" id="Ske2a8j051b" kvg:type="㇐" transform="matrix(1,0,0,1,496,-4)" xmlns:kvg="http://kanjivg.tagaini.net"></path><path class="stroke_order_diagram--existing_path" d="M13.75,68.95c3.96,0.68,8.72,0.42,12.73,0.13c15.53-1.16,37.11-3.35,55.58-3.77c4.08-0.09,8.3-0.28,12.32,0.49" id="Ske2a8j051c" kvg:type="㇐" transform="matrix(1,0,0,1,496,-4)" xmlns:kvg="http://kanjivg.tagaini.net"></path><path class="stroke_order_diagram--current_path" d="M52.75,32.75c1,1,1.5,2.5,1.5,3.5c0,0.89,0,41.12,0,58.12c0,2.72,0,4.85,0,6.12" id="kvg:07f8a-s6" kvg:type="㇑" transform="matrix(1,0,0,1,496,-4)" xmlns:kvg="http://kanjivg.tagaini.net"></path><path class="stroke_order_diagram--current_path" d="M52.75,32.75c1,1,1.5,2.5,1.5,3.5c0,0.89,0,41.12,0,58.12c0,2.72,0,4.85,0,6.12" id="Ske2a8j051e" kvg:type="㇑" transform="matrix(1,0,0,1,496,-4)" xmlns:kvg="http://kanjivg.tagaini.net"></path><circle class="stroke_order_diagram--path_start" cx="52.75" cy="32.75" r="4" transform="matrix(1,0,0,1,496,-4)"></circle></svg>