<svg class="stroke_order_diagram--svg_container_for_518662b7d5dda796580013da" style="height: 100px; width: 1000px;" viewbox="0 0 1000 100"><desc>Created with Snap</desc><defs></defs><line class="stroke_order_diagram--bounding_box" x1="1" x2="999" y1="1" y2="1"></line><line class="stroke_order_diagram--bounding_box" x1="1" x2="1" y1="1" y2="99"></line><line class="stroke_order_diagram--bounding_box" x1="1" x2="999" y1="99" y2="99"></line><line class="stroke_order_diagram--guide_line" x1="0" x2="1000" y1="50" y2="50"></line><line class="stroke_order_diagram--guide_line" x1="50" x2="50" y1="1" y2="99"></line><line class="stroke_order_diagram--bounding_box" x1="99" x2="99" y1="1" y2="99"></line><path class="stroke_order_diagram--current_path" d="M42.48,21.41c0.07,0.32,0.33,0.97-0.15,1.27c-8.07,5.09-16.3,9.42-26.58,12.08" id="kvg:08018-s1" kvg:type="㇒" transform="matrix(1,0,0,1,-4,-4)" xmlns:kvg="http://kanjivg.tagaini.net"></path><path class="stroke_order_diagram--current_path" d="M42.48,21.41c0.07,0.32,0.33,0.97-0.15,1.27c-8.07,5.09-16.3,9.42-26.58,12.08" id="Ske2uv6xsj" kvg:type="㇒" transform="matrix(1,0,0,1,-4,-4)" xmlns:kvg="http://kanjivg.tagaini.net"></path><circle class="stroke_order_diagram--path_start" cx="42.48" cy="21.41" r="4" transform="matrix(1,0,0,1,-4,-4)"></circle><line class="stroke_order_diagram--guide_line" x1="150" x2="150" y1="1" y2="99"></line><line class="stroke_order_diagram--bounding_box" x1="199" x2="199" y1="1" y2="99"></line><path class="stroke_order_diagram--existing_path" d="M42.48,21.41c0.07,0.32,0.33,0.97-0.15,1.27c-8.07,5.09-16.3,9.42-26.58,12.08" id="Ske2uv6xsm" kvg:type="㇒" transform="matrix(1,0,0,1,96,-4)" xmlns:kvg="http://kanjivg.tagaini.net"></path><path class="stroke_order_diagram--current_path" d="M12.97,42.61c0.51,0.34,3.94,0.94,4.46,0.91c5.31-0.39,16.08-1.58,24.5-2.95c0.84-0.14,2.36,0.16,2.79,0.33" id="kvg:08018-s2" kvg:type="㇐" transform="matrix(1,0,0,1,96,-4)" xmlns:kvg="http://kanjivg.tagaini.net"></path><path class="stroke_order_diagram--current_path" d="M12.97,42.61c0.51,0.34,3.94,0.94,4.46,0.91c5.31-0.39,16.08-1.58,24.5-2.95c0.84-0.14,2.36,0.16,2.79,0.33" id="Ske2uv6xso" kvg:type="㇐" transform="matrix(1,0,0,1,96,-4)" xmlns:kvg="http://kanjivg.tagaini.net"></path><circle class="stroke_order_diagram--path_start" cx="12.97" cy="42.61" r="4" transform="matrix(1,0,0,1,96,-4)"></circle><line class="stroke_order_diagram--guide_line" x1="250" x2="250" y1="1" y2="99"></line><line class="stroke_order_diagram--bounding_box" x1="299" x2="299" y1="1" y2="99"></line><path class="stroke_order_diagram--existing_path" d="M42.48,21.41c0.07,0.32,0.33,0.97-0.15,1.27c-8.07,5.09-16.3,9.42-26.58,12.08" id="Ske2uv6xsr" kvg:type="㇒" transform="matrix(1,0,0,1,196,-4)" xmlns:kvg="http://kanjivg.tagaini.net"></path><path class="stroke_order_diagram--existing_path" d="M12.97,42.61c0.51,0.34,3.94,0.94,4.46,0.91c5.31-0.39,16.08-1.58,24.5-2.95c0.84-0.14,2.36,0.16,2.79,0.33" id="Ske2uv6xss" kvg:type="㇐" transform="matrix(1,0,0,1,196,-4)" xmlns:kvg="http://kanjivg.tagaini.net"></path><path class="stroke_order_diagram--current_path" d="M9.84,55.8c0.42,0.31,3.11,0.93,4.23,0.93c5.85,0.01,19.16-2.11,28.69-3.35c1.11-0.15,2.11,0.31,2.81,0.62" id="kvg:08018-s3" kvg:type="㇐" transform="matrix(1,0,0,1,196,-4)" xmlns:kvg="http://kanjivg.tagaini.net"></path><path class="stroke_order_diagram--current_path" d="M9.84,55.8c0.42,0.31,3.11,0.93,4.23,0.93c5.85,0.01,19.16-2.11,28.69-3.35c1.11-0.15,2.11,0.31,2.81,0.62" id="Ske2uv6xsu" kvg:type="㇐" transform="matrix(1,0,0,1,196,-4)" xmlns:kvg="http://kanjivg.tagaini.net"></path><circle class="stroke_order_diagram--path_start" cx="9.84" cy="55.8" r="4" transform="matrix(1,0,0,1,196,-4)"></circle><line class="stroke_order_diagram--guide_line" x1="350" x2="350" y1="1" y2="99"></line><line class="stroke_order_diagram--bounding_box" x1="399" x2="399" y1="1" y2="99"></line><path class="stroke_order_diagram--existing_path" d="M42.48,21.41c0.07,0.32,0.33,0.97-0.15,1.27c-8.07,5.09-16.3,9.42-26.58,12.08" id="Ske2uv6xsx" kvg:type="㇒" transform="matrix(1,0,0,1,296,-4)" xmlns:kvg="http://kanjivg.tagaini.net"></path><path class="stroke_order_diagram--existing_path" d="M12.97,42.61c0.51,0.34,3.94,0.94,4.46,0.91c5.31-0.39,16.08-1.58,24.5-2.95c0.84-0.14,2.36,0.16,2.79,0.33" id="Ske2uv6xsy" kvg:type="㇐" transform="matrix(1,0,0,1,296,-4)" xmlns:kvg="http://kanjivg.tagaini.net"></path><path class="stroke_order_diagram--existing_path" d="M9.84,55.8c0.42,0.31,3.11,0.93,4.23,0.93c5.85,0.01,19.16-2.11,28.69-3.35c1.11-0.15,2.11,0.31,2.81,0.62" id="Ske2uv6xsz" kvg:type="㇐" transform="matrix(1,0,0,1,296,-4)" xmlns:kvg="http://kanjivg.tagaini.net"></path><path class="stroke_order_diagram--current_path" d="M30.01,15c0.65,0.45,1.17,3.35,1.17,4.3c0,3.62,0.22,70.55,0.09,76.2" id="kvg:08018-s4" kvg:type="㇑" transform="matrix(1,0,0,1,296,-4)" xmlns:kvg="http://kanjivg.tagaini.net"></path><path class="stroke_order_diagram--current_path" d="M30.01,15c0.65,0.45,1.17,3.35,1.17,4.3c0,3.62,0.22,70.55,0.09,76.2" id="Ske2uv6xs11" kvg:type="㇑" transform="matrix(1,0,0,1,296,-4)" xmlns:kvg="http://kanjivg.tagaini.net"></path><circle class="stroke_order_diagram--path_start" cx="30.01" cy="15" r="4" transform="matrix(1,0,0,1,296,-4)"></circle><line class="stroke_order_diagram--guide_line" x1="450" x2="450" y1="1" y2="99"></line><line class="stroke_order_diagram--bounding_box" x1="499" x2="499" y1="1" y2="99"></line><path class="stroke_order_diagram--existing_path" d="M42.48,21.41c0.07,0.32,0.33,0.97-0.15,1.27c-8.07,5.09-16.3,9.42-26.58,12.08" id="Ske2uv6xs14" kvg:type="㇒" transform="matrix(1,0,0,1,396,-4)" xmlns:kvg="http://kanjivg.tagaini.net"></path><path class="stroke_order_diagram--existing_path" d="M12.97,42.61c0.51,0.34,3.94,0.94,4.46,0.91c5.31-0.39,16.08-1.58,24.5-2.95c0.84-0.14,2.36,0.16,2.79,0.33" id="Ske2uv6xs15" kvg:type="㇐" transform="matrix(1,0,0,1,396,-4)" xmlns:kvg="http://kanjivg.tagaini.net"></path><path class="stroke_order_diagram--existing_path" d="M9.84,55.8c0.42,0.31,3.11,0.93,4.23,0.93c5.85,0.01,19.16-2.11,28.69-3.35c1.11-0.15,2.11,0.31,2.81,0.62" id="Ske2uv6xs16" kvg:type="㇐" transform="matrix(1,0,0,1,396,-4)" xmlns:kvg="http://kanjivg.tagaini.net"></path><path class="stroke_order_diagram--existing_path" d="M30.01,15c0.65,0.45,1.17,3.35,1.17,4.3c0,3.62,0.22,70.55,0.09,76.2" id="Ske2uv6xs17" kvg:type="㇑" transform="matrix(1,0,0,1,396,-4)" xmlns:kvg="http://kanjivg.tagaini.net"></path><path class="stroke_order_diagram--current_path" d="M30.53,55.36c-3.67,9.95-13.16,25.03-20.79,30.66" id="kvg:08018-s5" kvg:type="㇒" transform="matrix(1,0,0,1,396,-4)" xmlns:kvg="http://kanjivg.tagaini.net"></path><path class="stroke_order_diagram--current_path" d="M30.53,55.36c-3.67,9.95-13.16,25.03-20.79,30.66" id="Ske2uv6xs19" kvg:type="㇒" transform="matrix(1,0,0,1,396,-4)" xmlns:kvg="http://kanjivg.tagaini.net"></path><circle class="stroke_order_diagram--path_start" cx="30.53" cy="55.36" r="4" transform="matrix(1,0,0,1,396,-4)"></circle><line class="stroke_order_diagram--guide_line" x1="550" x2="550" y1="1" y2="99"></line><line class="stroke_order_diagram--bounding_box" x1="599" x2="599" y1="1" y2="99"></line><path class="stroke_order_diagram--existing_path" d="M42.48,21.41c0.07,0.32,0.33,0.97-0.15,1.27c-8.07,5.09-16.3,9.42-26.58,12.08" id="Ske2uv6xs1c" kvg:type="㇒" transform="matrix(1,0,0,1,496,-4)" xmlns:kvg="http://kanjivg.tagaini.net"></path><path class="stroke_order_diagram--existing_path" d="M12.97,42.61c0.51,0.34,3.94,0.94,4.46,0.91c5.31-0.39,16.08-1.58,24.5-2.95c0.84-0.14,2.36,0.16,2.79,0.33" id="Ske2uv6xs1d" kvg:type="㇐" transform="matrix(1,0,0,1,496,-4)" xmlns:kvg="http://kanjivg.tagaini.net"></path><path class="stroke_order_diagram--existing_path" d="M9.84,55.8c0.42,0.31,3.11,0.93,4.23,0.93c5.85,0.01,19.16-2.11,28.69-3.35c1.11-0.15,2.11,0.31,2.81,0.62" id="Ske2uv6xs1e" kvg:type="㇐" transform="matrix(1,0,0,1,496,-4)" xmlns:kvg="http://kanjivg.tagaini.net"></path><path class="stroke_order_diagram--existing_path" d="M30.01,15c0.65,0.45,1.17,3.35,1.17,4.3c0,3.62,0.22,70.55,0.09,76.2" id="Ske2uv6xs1f" kvg:type="㇑" transform="matrix(1,0,0,1,496,-4)" xmlns:kvg="http://kanjivg.tagaini.net"></path><path class="stroke_order_diagram--existing_path" d="M30.53,55.36c-3.67,9.95-13.16,25.03-20.79,30.66" id="Ske2uv6xs1g" kvg:type="㇒" transform="matrix(1,0,0,1,496,-4)" xmlns:kvg="http://kanjivg.tagaini.net"></path><path class="stroke_order_diagram--current_path" d="M34.25,60.98c4.93,2.65,8.54,6.74,11.5,11.32" id="kvg:08018-s6" kvg:type="㇔/㇏" transform="matrix(1,0,0,1,496,-4)" xmlns:kvg="http://kanjivg.tagaini.net"></path><path class="stroke_order_diagram--current_path" d="M34.25,60.98c4.93,2.65,8.54,6.74,11.5,11.32" id="Ske2uv6xs1i" kvg:type="㇔/㇏" transform="matrix(1,0,0,1,496,-4)" xmlns:kvg="http://kanjivg.tagaini.net"></path><circle class="stroke_order_diagram--path_start" cx="34.25" cy="60.98" r="4" transform="matrix(1,0,0,1,496,-4)"></circle><line class="stroke_order_diagram--guide_line" x1="650" x2="650" y1="1" y2="99"></line><line class="stroke_order_diagram--bounding_box" x1="699" x2="699" y1="1" y2="99"></line><path class="stroke_order_diagram--existing_path" d="M42.48,21.41c0.07,0.32,0.33,0.97-0.15,1.27c-8.07,5.09-16.3,9.42-26.58,12.08" id="Ske2uv6xs1l" kvg:type="㇒" transform="matrix(1,0,0,1,596,-4)" xmlns:kvg="http://kanjivg.tagaini.net"></path><path class="stroke_order_diagram--existing_path" d="M12.97,42.61c0.51,0.34,3.94,0.94,4.46,0.91c5.31-0.39,16.08-1.58,24.5-2.95c0.84-0.14,2.36,0.16,2.79,0.33" id="Ske2uv6xs1m" kvg:type="㇐" transform="matrix(1,0,0,1,596,-4)" xmlns:kvg="http://kanjivg.tagaini.net"></path><path class="stroke_order_diagram--existing_path" d="M9.84,55.8c0.42,0.31,3.11,0.93,4.23,0.93c5.85,0.01,19.16-2.11,28.69-3.35c1.11-0.15,2.11,0.31,2.81,0.62" id="Ske2uv6xs1n" kvg:type="㇐" transform="matrix(1,0,0,1,596,-4)" xmlns:kvg="http://kanjivg.tagaini.net"></path><path class="stroke_order_diagram--existing_path" d="M30.01,15c0.65,0.45,1.17,3.35,1.17,4.3c0,3.62,0.22,70.55,0.09,76.2" id="Ske2uv6xs1o" kvg:type="㇑" transform="matrix(1,0,0,1,596,-4)" xmlns:kvg="http://kanjivg.tagaini.net"></path><path class="stroke_order_diagram--existing_path" d="M30.53,55.36c-3.67,9.95-13.16,25.03-20.79,30.66" id="Ske2uv6xs1p" kvg:type="㇒" transform="matrix(1,0,0,1,596,-4)" xmlns:kvg="http://kanjivg.tagaini.net"></path><path class="stroke_order_diagram--existing_path" d="M34.25,60.98c4.93,2.65,8.54,6.74,11.5,11.32" id="Ske2uv6xs1q" kvg:type="㇔/㇏" transform="matrix(1,0,0,1,596,-4)" xmlns:kvg="http://kanjivg.tagaini.net"></path><path class="stroke_order_diagram--current_path" d="M56.49,27.37c1.67,0.32,4.14,0.26,4.61,0.27c5.66,0.11,17.21-1.46,22.71-2.07c0.76-0.09,3.57-0.37,3.95-0.24" id="kvg:08018-s7" kvg:type="㇐" transform="matrix(1,0,0,1,596,-4)" xmlns:kvg="http://kanjivg.tagaini.net"></path><path class="stroke_order_diagram--current_path" d="M56.49,27.37c1.67,0.32,4.14,0.26,4.61,0.27c5.66,0.11,17.21-1.46,22.71-2.07c0.76-0.09,3.57-0.37,3.95-0.24" id="Ske2uv6xs1s" kvg:type="㇐" transform="matrix(1,0,0,1,596,-4)" xmlns:kvg="http://kanjivg.tagaini.net"></path><circle class="stroke_order_diagram--path_start" cx="56.49" cy="27.37" r="4" transform="matrix(1,0,0,1,596,-4)"></circle><line class="stroke_order_diagram--guide_line" x1="750" x2="750" y1="1" y2="99"></line><line class="stroke_order_diagram--bounding_box" x1="799" x2="799" y1="1" y2="99"></line><path class="stroke_order_diagram--existing_path" d="M42.48,21.41c0.07,0.32,0.33,0.97-0.15,1.27c-8.07,5.09-16.3,9.42-26.58,12.08" id="Ske2uv6xs1v" kvg:type="㇒" transform="matrix(1,0,0,1,696,-4)" xmlns:kvg="http://kanjivg.tagaini.net"></path><path class="stroke_order_diagram--existing_path" d="M12.97,42.61c0.51,0.34,3.94,0.94,4.46,0.91c5.31-0.39,16.08-1.58,24.5-2.95c0.84-0.14,2.36,0.16,2.79,0.33" id="Ske2uv6xs1w" kvg:type="㇐" transform="matrix(1,0,0,1,696,-4)" xmlns:kvg="http://kanjivg.tagaini.net"></path><path class="stroke_order_diagram--existing_path" d="M9.84,55.8c0.42,0.31,3.11,0.93,4.23,0.93c5.85,0.01,19.16-2.11,28.69-3.35c1.11-0.15,2.11,0.31,2.81,0.62" id="Ske2uv6xs1x" kvg:type="㇐" transform="matrix(1,0,0,1,696,-4)" xmlns:kvg="http://kanjivg.tagaini.net"></path><path class="stroke_order_diagram--existing_path" d="M30.01,15c0.65,0.45,1.17,3.35,1.17,4.3c0,3.62,0.22,70.55,0.09,76.2" id="Ske2uv6xs1y" kvg:type="㇑" transform="matrix(1,0,0,1,696,-4)" xmlns:kvg="http://kanjivg.tagaini.net"></path><path class="stroke_order_diagram--existing_path" d="M30.53,55.36c-3.67,9.95-13.16,25.03-20.79,30.66" id="Ske2uv6xs1z" kvg:type="㇒" transform="matrix(1,0,0,1,696,-4)" xmlns:kvg="http://kanjivg.tagaini.net"></path><path class="stroke_order_diagram--existing_path" d="M34.25,60.98c4.93,2.65,8.54,6.74,11.5,11.32" id="Ske2uv6xs20" kvg:type="㇔/㇏" transform="matrix(1,0,0,1,696,-4)" xmlns:kvg="http://kanjivg.tagaini.net"></path><path class="stroke_order_diagram--existing_path" d="M56.49,27.37c1.67,0.32,4.14,0.26,4.61,0.27c5.66,0.11,17.21-1.46,22.71-2.07c0.76-0.09,3.57-0.37,3.95-0.24" id="Ske2uv6xs21" kvg:type="㇐" transform="matrix(1,0,0,1,696,-4)" xmlns:kvg="http://kanjivg.tagaini.net"></path><path class="stroke_order_diagram--current_path" d="M50.5,48.54c0.84,0.29,3.95,0.33,4.79,0.29c7.46-0.33,27.13-3.14,37.47-2.94c1.4,0.03,3.29,0.14,3.99,0.28" id="kvg:08018-s8" kvg:type="㇐" transform="matrix(1,0,0,1,696,-4)" xmlns:kvg="http://kanjivg.tagaini.net"></path><path class="stroke_order_diagram--current_path" d="M50.5,48.54c0.84,0.29,3.95,0.33,4.79,0.29c7.46-0.33,27.13-3.14,37.47-2.94c1.4,0.03,3.29,0.14,3.99,0.28" id="Ske2uv6xs23" kvg:type="㇐" transform="matrix(1,0,0,1,696,-4)" xmlns:kvg="http://kanjivg.tagaini.net"></path><circle class="stroke_order_diagram--path_start" cx="50.5" cy="48.54" r="4" transform="matrix(1,0,0,1,696,-4)"></circle><line class="stroke_order_diagram--guide_line" x1="850" x2="850" y1="1" y2="99"></line><line class="stroke_order_diagram--bounding_box" x1="899" x2="899" y1="1" y2="99"></line><path class="stroke_order_diagram--existing_path" d="M42.48,21.41c0.07,0.32,0.33,0.97-0.15,1.27c-8.07,5.09-16.3,9.42-26.58,12.08" id="Ske2uv6xs26" kvg:type="㇒" transform="matrix(1,0,0,1,796,-4)" xmlns:kvg="http://kanjivg.tagaini.net"></path><path class="stroke_order_diagram--existing_path" d="M12.97,42.61c0.51,0.34,3.94,0.94,4.46,0.91c5.31-0.39,16.08-1.58,24.5-2.95c0.84-0.14,2.36,0.16,2.79,0.33" id="Ske2uv6xs27" kvg:type="㇐" transform="matrix(1,0,0,1,796,-4)" xmlns:kvg="http://kanjivg.tagaini.net"></path><path class="stroke_order_diagram--existing_path" d="M9.84,55.8c0.42,0.31,3.11,0.93,4.23,0.93c5.85,0.01,19.16-2.11,28.69-3.35c1.11-0.15,2.11,0.31,2.81,0.62" id="Ske2uv6xs28" kvg:type="㇐" transform="matrix(1,0,0,1,796,-4)" xmlns:kvg="http://kanjivg.tagaini.net"></path><path class="stroke_order_diagram--existing_path" d="M30.01,15c0.65,0.45,1.17,3.35,1.17,4.3c0,3.62,0.22,70.55,0.09,76.2" id="Ske2uv6xs29" kvg:type="㇑" transform="matrix(1,0,0,1,796,-4)" xmlns:kvg="http://kanjivg.tagaini.net"></path><path class="stroke_order_diagram--existing_path" d="M30.53,55.36c-3.67,9.95-13.16,25.03-20.79,30.66" id="Ske2uv6xs2a" kvg:type="㇒" transform="matrix(1,0,0,1,796,-4)" xmlns:kvg="http://kanjivg.tagaini.net"></path><path class="stroke_order_diagram--existing_path" d="M34.25,60.98c4.93,2.65,8.54,6.74,11.5,11.32" id="Ske2uv6xs2b" kvg:type="㇔/㇏" transform="matrix(1,0,0,1,796,-4)" xmlns:kvg="http://kanjivg.tagaini.net"></path><path class="stroke_order_diagram--existing_path" d="M56.49,27.37c1.67,0.32,4.14,0.26,4.61,0.27c5.66,0.11,17.21-1.46,22.71-2.07c0.76-0.09,3.57-0.37,3.95-0.24" id="Ske2uv6xs2c" kvg:type="㇐" transform="matrix(1,0,0,1,796,-4)" xmlns:kvg="http://kanjivg.tagaini.net"></path><path class="stroke_order_diagram--existing_path" d="M50.5,48.54c0.84,0.29,3.95,0.33,4.79,0.29c7.46-0.33,27.13-3.14,37.47-2.94c1.4,0.03,3.29,0.14,3.99,0.28" id="Ske2uv6xs2d" kvg:type="㇐" transform="matrix(1,0,0,1,796,-4)" xmlns:kvg="http://kanjivg.tagaini.net"></path><path class="stroke_order_diagram--current_path" d="M69.54,50.5c0.3,1.26,0.38,2.91-0.24,4.43c-4.66,11.29-11.23,22.56-18.06,33.05c-1.86,2.85-0.82,4.18,2.1,3.6c6.13-1.21,20.58-5,34.41-8.08" id="kvg:08018-s9" kvg:type="㇜" transform="matrix(1,0,0,1,796,-4)" xmlns:kvg="http://kanjivg.tagaini.net"></path><path class="stroke_order_diagram--current_path" d="M69.54,50.5c0.3,1.26,0.38,2.91-0.24,4.43c-4.66,11.29-11.23,22.56-18.06,33.05c-1.86,2.85-0.82,4.18,2.1,3.6c6.13-1.21,20.58-5,34.41-8.08" id="Ske2uv6xs2f" kvg:type="㇜" transform="matrix(1,0,0,1,796,-4)" xmlns:kvg="http://kanjivg.tagaini.net"></path><circle class="stroke_order_diagram--path_start" cx="69.54" cy="50.5" r="4" transform="matrix(1,0,0,1,796,-4)"></circle><line class="stroke_order_diagram--guide_line" x1="950" x2="950" y1="1" y2="99"></line><line class="stroke_order_diagram--bounding_box" x1="999" x2="999" y1="1" y2="99"></line><path class="stroke_order_diagram--existing_path" d="M42.48,21.41c0.07,0.32,0.33,0.97-0.15,1.27c-8.07,5.09-16.3,9.42-26.58,12.08" id="Ske2uv6xs2i" kvg:type="㇒" transform="matrix(1,0,0,1,896,-4)" xmlns:kvg="http://kanjivg.tagaini.net"></path><path class="stroke_order_diagram--existing_path" d="M12.97,42.61c0.51,0.34,3.94,0.94,4.46,0.91c5.31-0.39,16.08-1.58,24.5-2.95c0.84-0.14,2.36,0.16,2.79,0.33" id="Ske2uv6xs2j" kvg:type="㇐" transform="matrix(1,0,0,1,896,-4)" xmlns:kvg="http://kanjivg.tagaini.net"></path><path class="stroke_order_diagram--existing_path" d="M9.84,55.8c0.42,0.31,3.11,0.93,4.23,0.93c5.85,0.01,19.16-2.11,28.69-3.35c1.11-0.15,2.11,0.31,2.81,0.62" id="Ske2uv6xs2k" kvg:type="㇐" transform="matrix(1,0,0,1,896,-4)" xmlns:kvg="http://kanjivg.tagaini.net"></path><path class="stroke_order_diagram--existing_path" d="M30.01,15c0.65,0.45,1.17,3.35,1.17,4.3c0,3.62,0.22,70.55,0.09,76.2" id="Ske2uv6xs2l" kvg:type="㇑" transform="matrix(1,0,0,1,896,-4)" xmlns:kvg="http://kanjivg.tagaini.net"></path><path class="stroke_order_diagram--existing_path" d="M30.53,55.36c-3.67,9.95-13.16,25.03-20.79,30.66" id="Ske2uv6xs2m" kvg:type="㇒" transform="matrix(1,0,0,1,896,-4)" xmlns:kvg="http://kanjivg.tagaini.net"></path><path class="stroke_order_diagram--existing_path" d="M34.25,60.98c4.93,2.65,8.54,6.74,11.5,11.32" id="Ske2uv6xs2n" kvg:type="㇔/㇏" transform="matrix(1,0,0,1,896,-4)" xmlns:kvg="http://kanjivg.tagaini.net"></path><path class="stroke_order_diagram--existing_path" d="M56.49,27.37c1.67,0.32,4.14,0.26,4.61,0.27c5.66,0.11,17.21-1.46,22.71-2.07c0.76-0.09,3.57-0.37,3.95-0.24" id="Ske2uv6xs2o" kvg:type="㇐" transform="matrix(1,0,0,1,896,-4)" xmlns:kvg="http://kanjivg.tagaini.net"></path><path class="stroke_order_diagram--existing_path" d="M50.5,48.54c0.84,0.29,3.95,0.33,4.79,0.29c7.46-0.33,27.13-3.14,37.47-2.94c1.4,0.03,3.29,0.14,3.99,0.28" id="Ske2uv6xs2p" kvg:type="㇐" transform="matrix(1,0,0,1,896,-4)" xmlns:kvg="http://kanjivg.tagaini.net"></path><path class="stroke_order_diagram--existing_path" d="M69.54,50.5c0.3,1.26,0.38,2.91-0.24,4.43c-4.66,11.29-11.23,22.56-18.06,33.05c-1.86,2.85-0.82,4.18,2.1,3.6c6.13-1.21,20.58-5,34.41-8.08" id="Ske2uv6xs2q" kvg:type="㇜" transform="matrix(1,0,0,1,896,-4)" xmlns:kvg="http://kanjivg.tagaini.net"></path><path class="stroke_order_diagram--current_path" d="M78.13,70.33c5.53,4.59,13.53,18.75,14.91,25.89" id="kvg:08018-s10" kvg:type="㇔" transform="matrix(1,0,0,1,896,-4)" xmlns:kvg="http://kanjivg.tagaini.net"></path><path class="stroke_order_diagram--current_path" d="M78.13,70.33c5.53,4.59,13.53,18.75,14.91,25.89" id="Ske2uv6xs2s" kvg:type="㇔" transform="matrix(1,0,0,1,896,-4)" xmlns:kvg="http://kanjivg.tagaini.net"></path><circle class="stroke_order_diagram--path_start" cx="78.13" cy="70.33" r="4" transform="matrix(1,0,0,1,896,-4)"></circle></svg>