<svg class="stroke_order_diagram--svg_container_for_51866296d5dda796580009a5" style="height: 100px; width: 1400px;" viewbox="0 0 1400 100"><desc>Created with Snap</desc><defs></defs><line class="stroke_order_diagram--bounding_box" x1="1" x2="1399" y1="1" y2="1"></line><line class="stroke_order_diagram--bounding_box" x1="1" x2="1" y1="1" y2="99"></line><line class="stroke_order_diagram--bounding_box" x1="1" x2="1399" y1="99" y2="99"></line><line class="stroke_order_diagram--guide_line" x1="0" x2="1400" y1="50" y2="50"></line><line class="stroke_order_diagram--guide_line" x1="50" x2="50" y1="1" y2="99"></line><line class="stroke_order_diagram--bounding_box" x1="99" x2="99" y1="1" y2="99"></line><path class="stroke_order_diagram--current_path" d="M16.14,17.97c0.94,0.94,1.51,2.16,1.51,3.25c0,0.77-0.03,48.45-0.18,66.29c-0.03,3.16-0.05,5.37-0.07,6.21" id="kvg:0805e-s1" kvg:type="㇑" transform="matrix(1,0,0,1,-4,-4)" xmlns:kvg="http://kanjivg.tagaini.net"></path><path class="stroke_order_diagram--current_path" d="M16.14,17.97c0.94,0.94,1.51,2.16,1.51,3.25c0,0.77-0.03,48.45-0.18,66.29c-0.03,3.16-0.05,5.37-0.07,6.21" id="Ske27skgzn" kvg:type="㇑" transform="matrix(1,0,0,1,-4,-4)" xmlns:kvg="http://kanjivg.tagaini.net"></path><circle class="stroke_order_diagram--path_start" cx="16.14" cy="17.97" r="4" transform="matrix(1,0,0,1,-4,-4)"></circle><line class="stroke_order_diagram--guide_line" x1="150" x2="150" y1="1" y2="99"></line><line class="stroke_order_diagram--bounding_box" x1="199" x2="199" y1="1" y2="99"></line><path class="stroke_order_diagram--existing_path" d="M16.14,17.97c0.94,0.94,1.51,2.16,1.51,3.25c0,0.77-0.03,48.45-0.18,66.29c-0.03,3.16-0.05,5.37-0.07,6.21" id="Ske27skgzq" kvg:type="㇑" transform="matrix(1,0,0,1,96,-4)" xmlns:kvg="http://kanjivg.tagaini.net"></path><path class="stroke_order_diagram--current_path" d="M19.01,19.6c6.86-1.22,18.49-3.1,21.08-3.39c1.9-0.21,3.03,0.79,3,2.46c-0.04,1.84-0.59,10.46-1.44,20.02c-0.09,1.04-0.15,2-0.15,2.69" id="kvg:0805e-s2" kvg:type="㇕a" transform="matrix(1,0,0,1,96,-4)" xmlns:kvg="http://kanjivg.tagaini.net"></path><path class="stroke_order_diagram--current_path" d="M19.01,19.6c6.86-1.22,18.49-3.1,21.08-3.39c1.9-0.21,3.03,0.79,3,2.46c-0.04,1.84-0.59,10.46-1.44,20.02c-0.09,1.04-0.15,2-0.15,2.69" id="Ske27skgzs" kvg:type="㇕a" transform="matrix(1,0,0,1,96,-4)" xmlns:kvg="http://kanjivg.tagaini.net"></path><circle class="stroke_order_diagram--path_start" cx="19.01" cy="19.6" r="4" transform="matrix(1,0,0,1,96,-4)"></circle><line class="stroke_order_diagram--guide_line" x1="250" x2="250" y1="1" y2="99"></line><line class="stroke_order_diagram--bounding_box" x1="299" x2="299" y1="1" y2="99"></line><path class="stroke_order_diagram--existing_path" d="M16.14,17.97c0.94,0.94,1.51,2.16,1.51,3.25c0,0.77-0.03,48.45-0.18,66.29c-0.03,3.16-0.05,5.37-0.07,6.21" id="Ske27skgzv" kvg:type="㇑" transform="matrix(1,0,0,1,196,-4)" xmlns:kvg="http://kanjivg.tagaini.net"></path><path class="stroke_order_diagram--existing_path" d="M19.01,19.6c6.86-1.22,18.49-3.1,21.08-3.39c1.9-0.21,3.03,0.79,3,2.46c-0.04,1.84-0.59,10.46-1.44,20.02c-0.09,1.04-0.15,2-0.15,2.69" id="Ske27skgzw" kvg:type="㇕a" transform="matrix(1,0,0,1,196,-4)" xmlns:kvg="http://kanjivg.tagaini.net"></path><path class="stroke_order_diagram--current_path" d="M18.81,30.43c6.94-1.05,15.82-2.55,22.41-2.9" id="kvg:0805e-s3" kvg:type="㇐a" transform="matrix(1,0,0,1,196,-4)" xmlns:kvg="http://kanjivg.tagaini.net"></path><path class="stroke_order_diagram--current_path" d="M18.81,30.43c6.94-1.05,15.82-2.55,22.41-2.9" id="Ske27skgzy" kvg:type="㇐a" transform="matrix(1,0,0,1,196,-4)" xmlns:kvg="http://kanjivg.tagaini.net"></path><circle class="stroke_order_diagram--path_start" cx="18.81" cy="30.43" r="4" transform="matrix(1,0,0,1,196,-4)"></circle><line class="stroke_order_diagram--guide_line" x1="350" x2="350" y1="1" y2="99"></line><line class="stroke_order_diagram--bounding_box" x1="399" x2="399" y1="1" y2="99"></line><path class="stroke_order_diagram--existing_path" d="M16.14,17.97c0.94,0.94,1.51,2.16,1.51,3.25c0,0.77-0.03,48.45-0.18,66.29c-0.03,3.16-0.05,5.37-0.07,6.21" id="Ske27skgz11" kvg:type="㇑" transform="matrix(1,0,0,1,296,-4)" xmlns:kvg="http://kanjivg.tagaini.net"></path><path class="stroke_order_diagram--existing_path" d="M19.01,19.6c6.86-1.22,18.49-3.1,21.08-3.39c1.9-0.21,3.03,0.79,3,2.46c-0.04,1.84-0.59,10.46-1.44,20.02c-0.09,1.04-0.15,2-0.15,2.69" id="Ske27skgz12" kvg:type="㇕a" transform="matrix(1,0,0,1,296,-4)" xmlns:kvg="http://kanjivg.tagaini.net"></path><path class="stroke_order_diagram--existing_path" d="M18.81,30.43c6.94-1.05,15.82-2.55,22.41-2.9" id="Ske27skgz13" kvg:type="㇐a" transform="matrix(1,0,0,1,296,-4)" xmlns:kvg="http://kanjivg.tagaini.net"></path><path class="stroke_order_diagram--current_path" d="M17.86,42.57C26.25,41.25,33,40,40.42,39.4" id="kvg:0805e-s4" kvg:type="㇐a" transform="matrix(1,0,0,1,296,-4)" xmlns:kvg="http://kanjivg.tagaini.net"></path><path class="stroke_order_diagram--current_path" d="M17.86,42.57C26.25,41.25,33,40,40.42,39.4" id="Ske27skgz15" kvg:type="㇐a" transform="matrix(1,0,0,1,296,-4)" xmlns:kvg="http://kanjivg.tagaini.net"></path><circle class="stroke_order_diagram--path_start" cx="17.86" cy="42.57" r="4" transform="matrix(1,0,0,1,296,-4)"></circle><line class="stroke_order_diagram--guide_line" x1="450" x2="450" y1="1" y2="99"></line><line class="stroke_order_diagram--bounding_box" x1="499" x2="499" y1="1" y2="99"></line><path class="stroke_order_diagram--existing_path" d="M16.14,17.97c0.94,0.94,1.51,2.16,1.51,3.25c0,0.77-0.03,48.45-0.18,66.29c-0.03,3.16-0.05,5.37-0.07,6.21" id="Ske27skgz18" kvg:type="㇑" transform="matrix(1,0,0,1,396,-4)" xmlns:kvg="http://kanjivg.tagaini.net"></path><path class="stroke_order_diagram--existing_path" d="M19.01,19.6c6.86-1.22,18.49-3.1,21.08-3.39c1.9-0.21,3.03,0.79,3,2.46c-0.04,1.84-0.59,10.46-1.44,20.02c-0.09,1.04-0.15,2-0.15,2.69" id="Ske27skgz19" kvg:type="㇕a" transform="matrix(1,0,0,1,396,-4)" xmlns:kvg="http://kanjivg.tagaini.net"></path><path class="stroke_order_diagram--existing_path" d="M18.81,30.43c6.94-1.05,15.82-2.55,22.41-2.9" id="Ske27skgz1a" kvg:type="㇐a" transform="matrix(1,0,0,1,396,-4)" xmlns:kvg="http://kanjivg.tagaini.net"></path><path class="stroke_order_diagram--existing_path" d="M17.86,42.57C26.25,41.25,33,40,40.42,39.4" id="Ske27skgz1b" kvg:type="㇐a" transform="matrix(1,0,0,1,396,-4)" xmlns:kvg="http://kanjivg.tagaini.net"></path><path class="stroke_order_diagram--current_path" d="M66.21,14.22c0.66,0.66,1.17,1.78,1.17,2.93c0,0.56,0.12,13.19,0.17,19.1c0.02,1.71,0.03,2.83,0.03,2.91" id="kvg:0805e-s5" kvg:type="㇑" transform="matrix(1,0,0,1,396,-4)" xmlns:kvg="http://kanjivg.tagaini.net"></path><path class="stroke_order_diagram--current_path" d="M66.21,14.22c0.66,0.66,1.17,1.78,1.17,2.93c0,0.56,0.12,13.19,0.17,19.1c0.02,1.71,0.03,2.83,0.03,2.91" id="Ske27skgz1d" kvg:type="㇑" transform="matrix(1,0,0,1,396,-4)" xmlns:kvg="http://kanjivg.tagaini.net"></path><circle class="stroke_order_diagram--path_start" cx="66.21" cy="14.22" r="4" transform="matrix(1,0,0,1,396,-4)"></circle><line class="stroke_order_diagram--guide_line" x1="550" x2="550" y1="1" y2="99"></line><line class="stroke_order_diagram--bounding_box" x1="599" x2="599" y1="1" y2="99"></line><path class="stroke_order_diagram--existing_path" d="M16.14,17.97c0.94,0.94,1.51,2.16,1.51,3.25c0,0.77-0.03,48.45-0.18,66.29c-0.03,3.16-0.05,5.37-0.07,6.21" id="Ske27skgz1g" kvg:type="㇑" transform="matrix(1,0,0,1,496,-4)" xmlns:kvg="http://kanjivg.tagaini.net"></path><path class="stroke_order_diagram--existing_path" d="M19.01,19.6c6.86-1.22,18.49-3.1,21.08-3.39c1.9-0.21,3.03,0.79,3,2.46c-0.04,1.84-0.59,10.46-1.44,20.02c-0.09,1.04-0.15,2-0.15,2.69" id="Ske27skgz1h" kvg:type="㇕a" transform="matrix(1,0,0,1,496,-4)" xmlns:kvg="http://kanjivg.tagaini.net"></path><path class="stroke_order_diagram--existing_path" d="M18.81,30.43c6.94-1.05,15.82-2.55,22.41-2.9" id="Ske27skgz1i" kvg:type="㇐a" transform="matrix(1,0,0,1,496,-4)" xmlns:kvg="http://kanjivg.tagaini.net"></path><path class="stroke_order_diagram--existing_path" d="M17.86,42.57C26.25,41.25,33,40,40.42,39.4" id="Ske27skgz1j" kvg:type="㇐a" transform="matrix(1,0,0,1,496,-4)" xmlns:kvg="http://kanjivg.tagaini.net"></path><path class="stroke_order_diagram--existing_path" d="M66.21,14.22c0.66,0.66,1.17,1.78,1.17,2.93c0,0.56,0.12,13.19,0.17,19.1c0.02,1.71,0.03,2.83,0.03,2.91" id="Ske27skgz1k" kvg:type="㇑" transform="matrix(1,0,0,1,496,-4)" xmlns:kvg="http://kanjivg.tagaini.net"></path><path class="stroke_order_diagram--current_path" d="M68.51,16.1c6.89-1.1,19.28-3.26,21.17-3.36c1.96-0.1,3.57,1.38,3.57,2.98c0,18.78-0.26,60.28-0.26,73.89c0,11.13-6.37,2.13-8.21,0.25" id="kvg:0805e-s6" kvg:type="㇆a" transform="matrix(1,0,0,1,496,-4)" xmlns:kvg="http://kanjivg.tagaini.net"></path><path class="stroke_order_diagram--current_path" d="M68.51,16.1c6.89-1.1,19.28-3.26,21.17-3.36c1.96-0.1,3.57,1.38,3.57,2.98c0,18.78-0.26,60.28-0.26,73.89c0,11.13-6.37,2.13-8.21,0.25" id="Ske27skgz1m" kvg:type="㇆a" transform="matrix(1,0,0,1,496,-4)" xmlns:kvg="http://kanjivg.tagaini.net"></path><circle class="stroke_order_diagram--path_start" cx="68.51" cy="16.1" r="4" transform="matrix(1,0,0,1,496,-4)"></circle><line class="stroke_order_diagram--guide_line" x1="650" x2="650" y1="1" y2="99"></line><line class="stroke_order_diagram--bounding_box" x1="699" x2="699" y1="1" y2="99"></line><path class="stroke_order_diagram--existing_path" d="M16.14,17.97c0.94,0.94,1.51,2.16,1.51,3.25c0,0.77-0.03,48.45-0.18,66.29c-0.03,3.16-0.05,5.37-0.07,6.21" id="Ske27skgz1p" kvg:type="㇑" transform="matrix(1,0,0,1,596,-4)" xmlns:kvg="http://kanjivg.tagaini.net"></path><path class="stroke_order_diagram--existing_path" d="M19.01,19.6c6.86-1.22,18.49-3.1,21.08-3.39c1.9-0.21,3.03,0.79,3,2.46c-0.04,1.84-0.59,10.46-1.44,20.02c-0.09,1.04-0.15,2-0.15,2.69" id="Ske27skgz1q" kvg:type="㇕a" transform="matrix(1,0,0,1,596,-4)" xmlns:kvg="http://kanjivg.tagaini.net"></path><path class="stroke_order_diagram--existing_path" d="M18.81,30.43c6.94-1.05,15.82-2.55,22.41-2.9" id="Ske27skgz1r" kvg:type="㇐a" transform="matrix(1,0,0,1,596,-4)" xmlns:kvg="http://kanjivg.tagaini.net"></path><path class="stroke_order_diagram--existing_path" d="M17.86,42.57C26.25,41.25,33,40,40.42,39.4" id="Ske27skgz1s" kvg:type="㇐a" transform="matrix(1,0,0,1,596,-4)" xmlns:kvg="http://kanjivg.tagaini.net"></path><path class="stroke_order_diagram--existing_path" d="M66.21,14.22c0.66,0.66,1.17,1.78,1.17,2.93c0,0.56,0.12,13.19,0.17,19.1c0.02,1.71,0.03,2.83,0.03,2.91" id="Ske27skgz1t" kvg:type="㇑" transform="matrix(1,0,0,1,596,-4)" xmlns:kvg="http://kanjivg.tagaini.net"></path><path class="stroke_order_diagram--existing_path" d="M68.51,16.1c6.89-1.1,19.28-3.26,21.17-3.36c1.96-0.1,3.57,1.38,3.57,2.98c0,18.78-0.26,60.28-0.26,73.89c0,11.13-6.37,2.13-8.21,0.25" id="Ske27skgz1u" kvg:type="㇆a" transform="matrix(1,0,0,1,596,-4)" xmlns:kvg="http://kanjivg.tagaini.net"></path><path class="stroke_order_diagram--current_path" d="M68.59,25.94c5.16-0.69,18.16-2.44,23-2.71" id="kvg:0805e-s7" kvg:type="㇐a" transform="matrix(1,0,0,1,596,-4)" xmlns:kvg="http://kanjivg.tagaini.net"></path><path class="stroke_order_diagram--current_path" d="M68.59,25.94c5.16-0.69,18.16-2.44,23-2.71" id="Ske27skgz1w" kvg:type="㇐a" transform="matrix(1,0,0,1,596,-4)" xmlns:kvg="http://kanjivg.tagaini.net"></path><circle class="stroke_order_diagram--path_start" cx="68.59" cy="25.94" r="4" transform="matrix(1,0,0,1,596,-4)"></circle><line class="stroke_order_diagram--guide_line" x1="750" x2="750" y1="1" y2="99"></line><line class="stroke_order_diagram--bounding_box" x1="799" x2="799" y1="1" y2="99"></line><path class="stroke_order_diagram--existing_path" d="M16.14,17.97c0.94,0.94,1.51,2.16,1.51,3.25c0,0.77-0.03,48.45-0.18,66.29c-0.03,3.16-0.05,5.37-0.07,6.21" id="Ske27skgz1z" kvg:type="㇑" transform="matrix(1,0,0,1,696,-4)" xmlns:kvg="http://kanjivg.tagaini.net"></path><path class="stroke_order_diagram--existing_path" d="M19.01,19.6c6.86-1.22,18.49-3.1,21.08-3.39c1.9-0.21,3.03,0.79,3,2.46c-0.04,1.84-0.59,10.46-1.44,20.02c-0.09,1.04-0.15,2-0.15,2.69" id="Ske27skgz20" kvg:type="㇕a" transform="matrix(1,0,0,1,696,-4)" xmlns:kvg="http://kanjivg.tagaini.net"></path><path class="stroke_order_diagram--existing_path" d="M18.81,30.43c6.94-1.05,15.82-2.55,22.41-2.9" id="Ske27skgz21" kvg:type="㇐a" transform="matrix(1,0,0,1,696,-4)" xmlns:kvg="http://kanjivg.tagaini.net"></path><path class="stroke_order_diagram--existing_path" d="M17.86,42.57C26.25,41.25,33,40,40.42,39.4" id="Ske27skgz22" kvg:type="㇐a" transform="matrix(1,0,0,1,696,-4)" xmlns:kvg="http://kanjivg.tagaini.net"></path><path class="stroke_order_diagram--existing_path" d="M66.21,14.22c0.66,0.66,1.17,1.78,1.17,2.93c0,0.56,0.12,13.19,0.17,19.1c0.02,1.71,0.03,2.83,0.03,2.91" id="Ske27skgz23" kvg:type="㇑" transform="matrix(1,0,0,1,696,-4)" xmlns:kvg="http://kanjivg.tagaini.net"></path><path class="stroke_order_diagram--existing_path" d="M68.51,16.1c6.89-1.1,19.28-3.26,21.17-3.36c1.96-0.1,3.57,1.38,3.57,2.98c0,18.78-0.26,60.28-0.26,73.89c0,11.13-6.37,2.13-8.21,0.25" id="Ske27skgz24" kvg:type="㇆a" transform="matrix(1,0,0,1,696,-4)" xmlns:kvg="http://kanjivg.tagaini.net"></path><path class="stroke_order_diagram--existing_path" d="M68.59,25.94c5.16-0.69,18.16-2.44,23-2.71" id="Ske27skgz25" kvg:type="㇐a" transform="matrix(1,0,0,1,696,-4)" xmlns:kvg="http://kanjivg.tagaini.net"></path><path class="stroke_order_diagram--current_path" d="M69.13,36.75c6.37-0.75,15.12-2,22.15-2.53" id="kvg:0805e-s8" kvg:type="㇐a" transform="matrix(1,0,0,1,696,-4)" xmlns:kvg="http://kanjivg.tagaini.net"></path><path class="stroke_order_diagram--current_path" d="M69.13,36.75c6.37-0.75,15.12-2,22.15-2.53" id="Ske27skgz27" kvg:type="㇐a" transform="matrix(1,0,0,1,696,-4)" xmlns:kvg="http://kanjivg.tagaini.net"></path><circle class="stroke_order_diagram--path_start" cx="69.13" cy="36.75" r="4" transform="matrix(1,0,0,1,696,-4)"></circle><line class="stroke_order_diagram--guide_line" x1="850" x2="850" y1="1" y2="99"></line><line class="stroke_order_diagram--bounding_box" x1="899" x2="899" y1="1" y2="99"></line><path class="stroke_order_diagram--existing_path" d="M16.14,17.97c0.94,0.94,1.51,2.16,1.51,3.25c0,0.77-0.03,48.45-0.18,66.29c-0.03,3.16-0.05,5.37-0.07,6.21" id="Ske27skgz2a" kvg:type="㇑" transform="matrix(1,0,0,1,796,-4)" xmlns:kvg="http://kanjivg.tagaini.net"></path><path class="stroke_order_diagram--existing_path" d="M19.01,19.6c6.86-1.22,18.49-3.1,21.08-3.39c1.9-0.21,3.03,0.79,3,2.46c-0.04,1.84-0.59,10.46-1.44,20.02c-0.09,1.04-0.15,2-0.15,2.69" id="Ske27skgz2b" kvg:type="㇕a" transform="matrix(1,0,0,1,796,-4)" xmlns:kvg="http://kanjivg.tagaini.net"></path><path class="stroke_order_diagram--existing_path" d="M18.81,30.43c6.94-1.05,15.82-2.55,22.41-2.9" id="Ske27skgz2c" kvg:type="㇐a" transform="matrix(1,0,0,1,796,-4)" xmlns:kvg="http://kanjivg.tagaini.net"></path><path class="stroke_order_diagram--existing_path" d="M17.86,42.57C26.25,41.25,33,40,40.42,39.4" id="Ske27skgz2d" kvg:type="㇐a" transform="matrix(1,0,0,1,796,-4)" xmlns:kvg="http://kanjivg.tagaini.net"></path><path class="stroke_order_diagram--existing_path" d="M66.21,14.22c0.66,0.66,1.17,1.78,1.17,2.93c0,0.56,0.12,13.19,0.17,19.1c0.02,1.71,0.03,2.83,0.03,2.91" id="Ske27skgz2e" kvg:type="㇑" transform="matrix(1,0,0,1,796,-4)" xmlns:kvg="http://kanjivg.tagaini.net"></path><path class="stroke_order_diagram--existing_path" d="M68.51,16.1c6.89-1.1,19.28-3.26,21.17-3.36c1.96-0.1,3.57,1.38,3.57,2.98c0,18.78-0.26,60.28-0.26,73.89c0,11.13-6.37,2.13-8.21,0.25" id="Ske27skgz2f" kvg:type="㇆a" transform="matrix(1,0,0,1,796,-4)" xmlns:kvg="http://kanjivg.tagaini.net"></path><path class="stroke_order_diagram--existing_path" d="M68.59,25.94c5.16-0.69,18.16-2.44,23-2.71" id="Ske27skgz2g" kvg:type="㇐a" transform="matrix(1,0,0,1,796,-4)" xmlns:kvg="http://kanjivg.tagaini.net"></path><path class="stroke_order_diagram--existing_path" d="M69.13,36.75c6.37-0.75,15.12-2,22.15-2.53" id="Ske27skgz2h" kvg:type="㇐a" transform="matrix(1,0,0,1,796,-4)" xmlns:kvg="http://kanjivg.tagaini.net"></path><path class="stroke_order_diagram--current_path" d="M33.5,51.24c1.71,0.31,4.02,0.25,5.71,0.06c9.6-1.05,20.21-3.05,30.66-4.05c2.83-0.27,4.57-0.1,6,0.05" id="kvg:0805e-s9" kvg:type="㇐" transform="matrix(1,0,0,1,796,-4)" xmlns:kvg="http://kanjivg.tagaini.net"></path><path class="stroke_order_diagram--current_path" d="M33.5,51.24c1.71,0.31,4.02,0.25,5.71,0.06c9.6-1.05,20.21-3.05,30.66-4.05c2.83-0.27,4.57-0.1,6,0.05" id="Ske27skgz2j" kvg:type="㇐" transform="matrix(1,0,0,1,796,-4)" xmlns:kvg="http://kanjivg.tagaini.net"></path><circle class="stroke_order_diagram--path_start" cx="33.5" cy="51.24" r="4" transform="matrix(1,0,0,1,796,-4)"></circle><line class="stroke_order_diagram--guide_line" x1="950" x2="950" y1="1" y2="99"></line><line class="stroke_order_diagram--bounding_box" x1="999" x2="999" y1="1" y2="99"></line><path class="stroke_order_diagram--existing_path" d="M16.14,17.97c0.94,0.94,1.51,2.16,1.51,3.25c0,0.77-0.03,48.45-0.18,66.29c-0.03,3.16-0.05,5.37-0.07,6.21" id="Ske27skgz2m" kvg:type="㇑" transform="matrix(1,0,0,1,896,-4)" xmlns:kvg="http://kanjivg.tagaini.net"></path><path class="stroke_order_diagram--existing_path" d="M19.01,19.6c6.86-1.22,18.49-3.1,21.08-3.39c1.9-0.21,3.03,0.79,3,2.46c-0.04,1.84-0.59,10.46-1.44,20.02c-0.09,1.04-0.15,2-0.15,2.69" id="Ske27skgz2n" kvg:type="㇕a" transform="matrix(1,0,0,1,896,-4)" xmlns:kvg="http://kanjivg.tagaini.net"></path><path class="stroke_order_diagram--existing_path" d="M18.81,30.43c6.94-1.05,15.82-2.55,22.41-2.9" id="Ske27skgz2o" kvg:type="㇐a" transform="matrix(1,0,0,1,896,-4)" xmlns:kvg="http://kanjivg.tagaini.net"></path><path class="stroke_order_diagram--existing_path" d="M17.86,42.57C26.25,41.25,33,40,40.42,39.4" id="Ske27skgz2p" kvg:type="㇐a" transform="matrix(1,0,0,1,896,-4)" xmlns:kvg="http://kanjivg.tagaini.net"></path><path class="stroke_order_diagram--existing_path" d="M66.21,14.22c0.66,0.66,1.17,1.78,1.17,2.93c0,0.56,0.12,13.19,0.17,19.1c0.02,1.71,0.03,2.83,0.03,2.91" id="Ske27skgz2q" kvg:type="㇑" transform="matrix(1,0,0,1,896,-4)" xmlns:kvg="http://kanjivg.tagaini.net"></path><path class="stroke_order_diagram--existing_path" d="M68.51,16.1c6.89-1.1,19.28-3.26,21.17-3.36c1.96-0.1,3.57,1.38,3.57,2.98c0,18.78-0.26,60.28-0.26,73.89c0,11.13-6.37,2.13-8.21,0.25" id="Ske27skgz2r" kvg:type="㇆a" transform="matrix(1,0,0,1,896,-4)" xmlns:kvg="http://kanjivg.tagaini.net"></path><path class="stroke_order_diagram--existing_path" d="M68.59,25.94c5.16-0.69,18.16-2.44,23-2.71" id="Ske27skgz2s" kvg:type="㇐a" transform="matrix(1,0,0,1,896,-4)" xmlns:kvg="http://kanjivg.tagaini.net"></path><path class="stroke_order_diagram--existing_path" d="M69.13,36.75c6.37-0.75,15.12-2,22.15-2.53" id="Ske27skgz2t" kvg:type="㇐a" transform="matrix(1,0,0,1,896,-4)" xmlns:kvg="http://kanjivg.tagaini.net"></path><path class="stroke_order_diagram--existing_path" d="M33.5,51.24c1.71,0.31,4.02,0.25,5.71,0.06c9.6-1.05,20.21-3.05,30.66-4.05c2.83-0.27,4.57-0.1,6,0.05" id="Ske27skgz2u" kvg:type="㇐" transform="matrix(1,0,0,1,896,-4)" xmlns:kvg="http://kanjivg.tagaini.net"></path><path class="stroke_order_diagram--current_path" d="M42.71,53c0.89,0.89,1.3,2.26,1.3,3.51S44,79.31,44,83.84" id="kvg:0805e-s10" kvg:type="㇑a" transform="matrix(1,0,0,1,896,-4)" xmlns:kvg="http://kanjivg.tagaini.net"></path><path class="stroke_order_diagram--current_path" d="M42.71,53c0.89,0.89,1.3,2.26,1.3,3.51S44,79.31,44,83.84" id="Ske27skgz2w" kvg:type="㇑a" transform="matrix(1,0,0,1,896,-4)" xmlns:kvg="http://kanjivg.tagaini.net"></path><circle class="stroke_order_diagram--path_start" cx="42.71" cy="53" r="4" transform="matrix(1,0,0,1,896,-4)"></circle><line class="stroke_order_diagram--guide_line" x1="1050" x2="1050" y1="1" y2="99"></line><line class="stroke_order_diagram--bounding_box" x1="1099" x2="1099" y1="1" y2="99"></line><path class="stroke_order_diagram--existing_path" d="M16.14,17.97c0.94,0.94,1.51,2.16,1.51,3.25c0,0.77-0.03,48.45-0.18,66.29c-0.03,3.16-0.05,5.37-0.07,6.21" id="Ske27skgz2z" kvg:type="㇑" transform="matrix(1,0,0,1,996,-4)" xmlns:kvg="http://kanjivg.tagaini.net"></path><path class="stroke_order_diagram--existing_path" d="M19.01,19.6c6.86-1.22,18.49-3.1,21.08-3.39c1.9-0.21,3.03,0.79,3,2.46c-0.04,1.84-0.59,10.46-1.44,20.02c-0.09,1.04-0.15,2-0.15,2.69" id="Ske27skgz30" kvg:type="㇕a" transform="matrix(1,0,0,1,996,-4)" xmlns:kvg="http://kanjivg.tagaini.net"></path><path class="stroke_order_diagram--existing_path" d="M18.81,30.43c6.94-1.05,15.82-2.55,22.41-2.9" id="Ske27skgz31" kvg:type="㇐a" transform="matrix(1,0,0,1,996,-4)" xmlns:kvg="http://kanjivg.tagaini.net"></path><path class="stroke_order_diagram--existing_path" d="M17.86,42.57C26.25,41.25,33,40,40.42,39.4" id="Ske27skgz32" kvg:type="㇐a" transform="matrix(1,0,0,1,996,-4)" xmlns:kvg="http://kanjivg.tagaini.net"></path><path class="stroke_order_diagram--existing_path" d="M66.21,14.22c0.66,0.66,1.17,1.78,1.17,2.93c0,0.56,0.12,13.19,0.17,19.1c0.02,1.71,0.03,2.83,0.03,2.91" id="Ske27skgz33" kvg:type="㇑" transform="matrix(1,0,0,1,996,-4)" xmlns:kvg="http://kanjivg.tagaini.net"></path><path class="stroke_order_diagram--existing_path" d="M68.51,16.1c6.89-1.1,19.28-3.26,21.17-3.36c1.96-0.1,3.57,1.38,3.57,2.98c0,18.78-0.26,60.28-0.26,73.89c0,11.13-6.37,2.13-8.21,0.25" id="Ske27skgz34" kvg:type="㇆a" transform="matrix(1,0,0,1,996,-4)" xmlns:kvg="http://kanjivg.tagaini.net"></path><path class="stroke_order_diagram--existing_path" d="M68.59,25.94c5.16-0.69,18.16-2.44,23-2.71" id="Ske27skgz35" kvg:type="㇐a" transform="matrix(1,0,0,1,996,-4)" xmlns:kvg="http://kanjivg.tagaini.net"></path><path class="stroke_order_diagram--existing_path" d="M69.13,36.75c6.37-0.75,15.12-2,22.15-2.53" id="Ske27skgz36" kvg:type="㇐a" transform="matrix(1,0,0,1,996,-4)" xmlns:kvg="http://kanjivg.tagaini.net"></path><path class="stroke_order_diagram--existing_path" d="M33.5,51.24c1.71,0.31,4.02,0.25,5.71,0.06c9.6-1.05,20.21-3.05,30.66-4.05c2.83-0.27,4.57-0.1,6,0.05" id="Ske27skgz37" kvg:type="㇐" transform="matrix(1,0,0,1,996,-4)" xmlns:kvg="http://kanjivg.tagaini.net"></path><path class="stroke_order_diagram--existing_path" d="M42.71,53c0.89,0.89,1.3,2.26,1.3,3.51S44,79.31,44,83.84" id="Ske27skgz38" kvg:type="㇑a" transform="matrix(1,0,0,1,996,-4)" xmlns:kvg="http://kanjivg.tagaini.net"></path><path class="stroke_order_diagram--current_path" d="M45.13,61.43c4.49-0.43,13.74-2.05,19.78-2.36" id="kvg:0805e-s11" kvg:type="㇐a" transform="matrix(1,0,0,1,996,-4)" xmlns:kvg="http://kanjivg.tagaini.net"></path><path class="stroke_order_diagram--current_path" d="M45.13,61.43c4.49-0.43,13.74-2.05,19.78-2.36" id="Ske27skgz3a" kvg:type="㇐a" transform="matrix(1,0,0,1,996,-4)" xmlns:kvg="http://kanjivg.tagaini.net"></path><circle class="stroke_order_diagram--path_start" cx="45.13" cy="61.43" r="4" transform="matrix(1,0,0,1,996,-4)"></circle><line class="stroke_order_diagram--guide_line" x1="1150" x2="1150" y1="1" y2="99"></line><line class="stroke_order_diagram--bounding_box" x1="1199" x2="1199" y1="1" y2="99"></line><path class="stroke_order_diagram--existing_path" d="M16.14,17.97c0.94,0.94,1.51,2.16,1.51,3.25c0,0.77-0.03,48.45-0.18,66.29c-0.03,3.16-0.05,5.37-0.07,6.21" id="Ske27skgz3d" kvg:type="㇑" transform="matrix(1,0,0,1,1096,-4)" xmlns:kvg="http://kanjivg.tagaini.net"></path><path class="stroke_order_diagram--existing_path" d="M19.01,19.6c6.86-1.22,18.49-3.1,21.08-3.39c1.9-0.21,3.03,0.79,3,2.46c-0.04,1.84-0.59,10.46-1.44,20.02c-0.09,1.04-0.15,2-0.15,2.69" id="Ske27skgz3e" kvg:type="㇕a" transform="matrix(1,0,0,1,1096,-4)" xmlns:kvg="http://kanjivg.tagaini.net"></path><path class="stroke_order_diagram--existing_path" d="M18.81,30.43c6.94-1.05,15.82-2.55,22.41-2.9" id="Ske27skgz3f" kvg:type="㇐a" transform="matrix(1,0,0,1,1096,-4)" xmlns:kvg="http://kanjivg.tagaini.net"></path><path class="stroke_order_diagram--existing_path" d="M17.86,42.57C26.25,41.25,33,40,40.42,39.4" id="Ske27skgz3g" kvg:type="㇐a" transform="matrix(1,0,0,1,1096,-4)" xmlns:kvg="http://kanjivg.tagaini.net"></path><path class="stroke_order_diagram--existing_path" d="M66.21,14.22c0.66,0.66,1.17,1.78,1.17,2.93c0,0.56,0.12,13.19,0.17,19.1c0.02,1.71,0.03,2.83,0.03,2.91" id="Ske27skgz3h" kvg:type="㇑" transform="matrix(1,0,0,1,1096,-4)" xmlns:kvg="http://kanjivg.tagaini.net"></path><path class="stroke_order_diagram--existing_path" d="M68.51,16.1c6.89-1.1,19.28-3.26,21.17-3.36c1.96-0.1,3.57,1.38,3.57,2.98c0,18.78-0.26,60.28-0.26,73.89c0,11.13-6.37,2.13-8.21,0.25" id="Ske27skgz3i" kvg:type="㇆a" transform="matrix(1,0,0,1,1096,-4)" xmlns:kvg="http://kanjivg.tagaini.net"></path><path class="stroke_order_diagram--existing_path" d="M68.59,25.94c5.16-0.69,18.16-2.44,23-2.71" id="Ske27skgz3j" kvg:type="㇐a" transform="matrix(1,0,0,1,1096,-4)" xmlns:kvg="http://kanjivg.tagaini.net"></path><path class="stroke_order_diagram--existing_path" d="M69.13,36.75c6.37-0.75,15.12-2,22.15-2.53" id="Ske27skgz3k" kvg:type="㇐a" transform="matrix(1,0,0,1,1096,-4)" xmlns:kvg="http://kanjivg.tagaini.net"></path><path class="stroke_order_diagram--existing_path" d="M33.5,51.24c1.71,0.31,4.02,0.25,5.71,0.06c9.6-1.05,20.21-3.05,30.66-4.05c2.83-0.27,4.57-0.1,6,0.05" id="Ske27skgz3l" kvg:type="㇐" transform="matrix(1,0,0,1,1096,-4)" xmlns:kvg="http://kanjivg.tagaini.net"></path><path class="stroke_order_diagram--existing_path" d="M42.71,53c0.89,0.89,1.3,2.26,1.3,3.51S44,79.31,44,83.84" id="Ske27skgz3m" kvg:type="㇑a" transform="matrix(1,0,0,1,1096,-4)" xmlns:kvg="http://kanjivg.tagaini.net"></path><path class="stroke_order_diagram--existing_path" d="M45.13,61.43c4.49-0.43,13.74-2.05,19.78-2.36" id="Ske27skgz3n" kvg:type="㇐a" transform="matrix(1,0,0,1,1096,-4)" xmlns:kvg="http://kanjivg.tagaini.net"></path><path class="stroke_order_diagram--current_path" d="M44.81,71.67c5.72-0.67,12.31-1.92,20.12-2.95" id="kvg:0805e-s12" kvg:type="㇐a" transform="matrix(1,0,0,1,1096,-4)" xmlns:kvg="http://kanjivg.tagaini.net"></path><path class="stroke_order_diagram--current_path" d="M44.81,71.67c5.72-0.67,12.31-1.92,20.12-2.95" id="Ske27skgz3p" kvg:type="㇐a" transform="matrix(1,0,0,1,1096,-4)" xmlns:kvg="http://kanjivg.tagaini.net"></path><circle class="stroke_order_diagram--path_start" cx="44.81" cy="71.67" r="4" transform="matrix(1,0,0,1,1096,-4)"></circle><line class="stroke_order_diagram--guide_line" x1="1250" x2="1250" y1="1" y2="99"></line><line class="stroke_order_diagram--bounding_box" x1="1299" x2="1299" y1="1" y2="99"></line><path class="stroke_order_diagram--existing_path" d="M16.14,17.97c0.94,0.94,1.51,2.16,1.51,3.25c0,0.77-0.03,48.45-0.18,66.29c-0.03,3.16-0.05,5.37-0.07,6.21" id="Ske27skgz3s" kvg:type="㇑" transform="matrix(1,0,0,1,1196,-4)" xmlns:kvg="http://kanjivg.tagaini.net"></path><path class="stroke_order_diagram--existing_path" d="M19.01,19.6c6.86-1.22,18.49-3.1,21.08-3.39c1.9-0.21,3.03,0.79,3,2.46c-0.04,1.84-0.59,10.46-1.44,20.02c-0.09,1.04-0.15,2-0.15,2.69" id="Ske27skgz3t" kvg:type="㇕a" transform="matrix(1,0,0,1,1196,-4)" xmlns:kvg="http://kanjivg.tagaini.net"></path><path class="stroke_order_diagram--existing_path" d="M18.81,30.43c6.94-1.05,15.82-2.55,22.41-2.9" id="Ske27skgz3u" kvg:type="㇐a" transform="matrix(1,0,0,1,1196,-4)" xmlns:kvg="http://kanjivg.tagaini.net"></path><path class="stroke_order_diagram--existing_path" d="M17.86,42.57C26.25,41.25,33,40,40.42,39.4" id="Ske27skgz3v" kvg:type="㇐a" transform="matrix(1,0,0,1,1196,-4)" xmlns:kvg="http://kanjivg.tagaini.net"></path><path class="stroke_order_diagram--existing_path" d="M66.21,14.22c0.66,0.66,1.17,1.78,1.17,2.93c0,0.56,0.12,13.19,0.17,19.1c0.02,1.71,0.03,2.83,0.03,2.91" id="Ske27skgz3w" kvg:type="㇑" transform="matrix(1,0,0,1,1196,-4)" xmlns:kvg="http://kanjivg.tagaini.net"></path><path class="stroke_order_diagram--existing_path" d="M68.51,16.1c6.89-1.1,19.28-3.26,21.17-3.36c1.96-0.1,3.57,1.38,3.57,2.98c0,18.78-0.26,60.28-0.26,73.89c0,11.13-6.37,2.13-8.21,0.25" id="Ske27skgz3x" kvg:type="㇆a" transform="matrix(1,0,0,1,1196,-4)" xmlns:kvg="http://kanjivg.tagaini.net"></path><path class="stroke_order_diagram--existing_path" d="M68.59,25.94c5.16-0.69,18.16-2.44,23-2.71" id="Ske27skgz3y" kvg:type="㇐a" transform="matrix(1,0,0,1,1196,-4)" xmlns:kvg="http://kanjivg.tagaini.net"></path><path class="stroke_order_diagram--existing_path" d="M69.13,36.75c6.37-0.75,15.12-2,22.15-2.53" id="Ske27skgz3z" kvg:type="㇐a" transform="matrix(1,0,0,1,1196,-4)" xmlns:kvg="http://kanjivg.tagaini.net"></path><path class="stroke_order_diagram--existing_path" d="M33.5,51.24c1.71,0.31,4.02,0.25,5.71,0.06c9.6-1.05,20.21-3.05,30.66-4.05c2.83-0.27,4.57-0.1,6,0.05" id="Ske27skgz40" kvg:type="㇐" transform="matrix(1,0,0,1,1196,-4)" xmlns:kvg="http://kanjivg.tagaini.net"></path><path class="stroke_order_diagram--existing_path" d="M42.71,53c0.89,0.89,1.3,2.26,1.3,3.51S44,79.31,44,83.84" id="Ske27skgz41" kvg:type="㇑a" transform="matrix(1,0,0,1,1196,-4)" xmlns:kvg="http://kanjivg.tagaini.net"></path><path class="stroke_order_diagram--existing_path" d="M45.13,61.43c4.49-0.43,13.74-2.05,19.78-2.36" id="Ske27skgz42" kvg:type="㇐a" transform="matrix(1,0,0,1,1196,-4)" xmlns:kvg="http://kanjivg.tagaini.net"></path><path class="stroke_order_diagram--existing_path" d="M44.81,71.67c5.72-0.67,12.31-1.92,20.12-2.95" id="Ske27skgz43" kvg:type="㇐a" transform="matrix(1,0,0,1,1196,-4)" xmlns:kvg="http://kanjivg.tagaini.net"></path><path class="stroke_order_diagram--current_path" d="M32.51,85.14c0.99,0.86,2.2,1.23,3.25,0.92c4.87-1.43,28.2-7.83,34.76-9.39" id="kvg:0805e-s13" kvg:type="㇀" transform="matrix(1,0,0,1,1196,-4)" xmlns:kvg="http://kanjivg.tagaini.net"></path><path class="stroke_order_diagram--current_path" d="M32.51,85.14c0.99,0.86,2.2,1.23,3.25,0.92c4.87-1.43,28.2-7.83,34.76-9.39" id="Ske27skgz45" kvg:type="㇀" transform="matrix(1,0,0,1,1196,-4)" xmlns:kvg="http://kanjivg.tagaini.net"></path><circle class="stroke_order_diagram--path_start" cx="32.51" cy="85.14" r="4" transform="matrix(1,0,0,1,1196,-4)"></circle><line class="stroke_order_diagram--guide_line" x1="1350" x2="1350" y1="1" y2="99"></line><line class="stroke_order_diagram--bounding_box" x1="1399" x2="1399" y1="1" y2="99"></line><path class="stroke_order_diagram--existing_path" d="M16.14,17.97c0.94,0.94,1.51,2.16,1.51,3.25c0,0.77-0.03,48.45-0.18,66.29c-0.03,3.16-0.05,5.37-0.07,6.21" id="Ske27skgz48" kvg:type="㇑" transform="matrix(1,0,0,1,1296,-4)" xmlns:kvg="http://kanjivg.tagaini.net"></path><path class="stroke_order_diagram--existing_path" d="M19.01,19.6c6.86-1.22,18.49-3.1,21.08-3.39c1.9-0.21,3.03,0.79,3,2.46c-0.04,1.84-0.59,10.46-1.44,20.02c-0.09,1.04-0.15,2-0.15,2.69" id="Ske27skgz49" kvg:type="㇕a" transform="matrix(1,0,0,1,1296,-4)" xmlns:kvg="http://kanjivg.tagaini.net"></path><path class="stroke_order_diagram--existing_path" d="M18.81,30.43c6.94-1.05,15.82-2.55,22.41-2.9" id="Ske27skgz4a" kvg:type="㇐a" transform="matrix(1,0,0,1,1296,-4)" xmlns:kvg="http://kanjivg.tagaini.net"></path><path class="stroke_order_diagram--existing_path" d="M17.86,42.57C26.25,41.25,33,40,40.42,39.4" id="Ske27skgz4b" kvg:type="㇐a" transform="matrix(1,0,0,1,1296,-4)" xmlns:kvg="http://kanjivg.tagaini.net"></path><path class="stroke_order_diagram--existing_path" d="M66.21,14.22c0.66,0.66,1.17,1.78,1.17,2.93c0,0.56,0.12,13.19,0.17,19.1c0.02,1.71,0.03,2.83,0.03,2.91" id="Ske27skgz4c" kvg:type="㇑" transform="matrix(1,0,0,1,1296,-4)" xmlns:kvg="http://kanjivg.tagaini.net"></path><path class="stroke_order_diagram--existing_path" d="M68.51,16.1c6.89-1.1,19.28-3.26,21.17-3.36c1.96-0.1,3.57,1.38,3.57,2.98c0,18.78-0.26,60.28-0.26,73.89c0,11.13-6.37,2.13-8.21,0.25" id="Ske27skgz4d" kvg:type="㇆a" transform="matrix(1,0,0,1,1296,-4)" xmlns:kvg="http://kanjivg.tagaini.net"></path><path class="stroke_order_diagram--existing_path" d="M68.59,25.94c5.16-0.69,18.16-2.44,23-2.71" id="Ske27skgz4e" kvg:type="㇐a" transform="matrix(1,0,0,1,1296,-4)" xmlns:kvg="http://kanjivg.tagaini.net"></path><path class="stroke_order_diagram--existing_path" d="M69.13,36.75c6.37-0.75,15.12-2,22.15-2.53" id="Ske27skgz4f" kvg:type="㇐a" transform="matrix(1,0,0,1,1296,-4)" xmlns:kvg="http://kanjivg.tagaini.net"></path><path class="stroke_order_diagram--existing_path" d="M33.5,51.24c1.71,0.31,4.02,0.25,5.71,0.06c9.6-1.05,20.21-3.05,30.66-4.05c2.83-0.27,4.57-0.1,6,0.05" id="Ske27skgz4g" kvg:type="㇐" transform="matrix(1,0,0,1,1296,-4)" xmlns:kvg="http://kanjivg.tagaini.net"></path><path class="stroke_order_diagram--existing_path" d="M42.71,53c0.89,0.89,1.3,2.26,1.3,3.51S44,79.31,44,83.84" id="Ske27skgz4h" kvg:type="㇑a" transform="matrix(1,0,0,1,1296,-4)" xmlns:kvg="http://kanjivg.tagaini.net"></path><path class="stroke_order_diagram--existing_path" d="M45.13,61.43c4.49-0.43,13.74-2.05,19.78-2.36" id="Ske27skgz4i" kvg:type="㇐a" transform="matrix(1,0,0,1,1296,-4)" xmlns:kvg="http://kanjivg.tagaini.net"></path><path class="stroke_order_diagram--existing_path" d="M44.81,71.67c5.72-0.67,12.31-1.92,20.12-2.95" id="Ske27skgz4j" kvg:type="㇐a" transform="matrix(1,0,0,1,1296,-4)" xmlns:kvg="http://kanjivg.tagaini.net"></path><path class="stroke_order_diagram--existing_path" d="M32.51,85.14c0.99,0.86,2.2,1.23,3.25,0.92c4.87-1.43,28.2-7.83,34.76-9.39" id="Ske27skgz4k" kvg:type="㇀" transform="matrix(1,0,0,1,1296,-4)" xmlns:kvg="http://kanjivg.tagaini.net"></path><path class="stroke_order_diagram--current_path" d="M64.84,49.66c0.62,0.63,1.05,1.71,1.05,2.99c0,0.66,0.12,27.55,0.15,39.1c0.01,1.88,0.01,3.36,0.01,4.25" id="kvg:0805e-s14" kvg:type="㇑" transform="matrix(1,0,0,1,1296,-4)" xmlns:kvg="http://kanjivg.tagaini.net"></path><path class="stroke_order_diagram--current_path" d="M64.84,49.66c0.62,0.63,1.05,1.71,1.05,2.99c0,0.66,0.12,27.55,0.15,39.1c0.01,1.88,0.01,3.36,0.01,4.25" id="Ske27skgz4m" kvg:type="㇑" transform="matrix(1,0,0,1,1296,-4)" xmlns:kvg="http://kanjivg.tagaini.net"></path><circle class="stroke_order_diagram--path_start" cx="64.84" cy="49.66" r="4" transform="matrix(1,0,0,1,1296,-4)"></circle></svg>