<svg class="stroke_order_diagram--svg_container_for_51866286d5dda79658000557" style="height: 100px; width: 700px;" viewbox="0 0 700 100"><desc>Created with Snap</desc><defs></defs><line class="stroke_order_diagram--bounding_box" x1="1" x2="699" y1="1" y2="1"></line><line class="stroke_order_diagram--bounding_box" x1="1" x2="1" y1="1" y2="99"></line><line class="stroke_order_diagram--bounding_box" x1="1" x2="699" y1="99" y2="99"></line><line class="stroke_order_diagram--guide_line" x1="0" x2="700" y1="50" y2="50"></line><line class="stroke_order_diagram--guide_line" x1="50" x2="50" y1="1" y2="99"></line><line class="stroke_order_diagram--bounding_box" x1="99" x2="99" y1="1" y2="99"></line><path class="stroke_order_diagram--current_path" d="M53.94,9.87c1.35,1.35,1.72,3.13,1.72,5.08c0,11.3,0,15.3,0,26.17" id="kvg:08096-s1" kvg:type="㇑a" transform="matrix(1,0,0,1,-4,-4)" xmlns:kvg="http://kanjivg.tagaini.net"></path><path class="stroke_order_diagram--current_path" d="M53.94,9.87c1.35,1.35,1.72,3.13,1.72,5.08c0,11.3,0,15.3,0,26.17" id="Ske1ybq6yg" kvg:type="㇑a" transform="matrix(1,0,0,1,-4,-4)" xmlns:kvg="http://kanjivg.tagaini.net"></path><circle class="stroke_order_diagram--path_start" cx="53.94" cy="9.87" r="4" transform="matrix(1,0,0,1,-4,-4)"></circle><line class="stroke_order_diagram--guide_line" x1="150" x2="150" y1="1" y2="99"></line><line class="stroke_order_diagram--bounding_box" x1="199" x2="199" y1="1" y2="99"></line><path class="stroke_order_diagram--existing_path" d="M53.94,9.87c1.35,1.35,1.72,3.13,1.72,5.08c0,11.3,0,15.3,0,26.17" id="Ske1ybq6yj" kvg:type="㇑a" transform="matrix(1,0,0,1,96,-4)" xmlns:kvg="http://kanjivg.tagaini.net"></path><path class="stroke_order_diagram--current_path" d="M28.38,20.62c4.1,2.63,10.6,10.31,11.63,14.4" id="kvg:08096-s2" kvg:type="㇔" transform="matrix(1,0,0,1,96,-4)" xmlns:kvg="http://kanjivg.tagaini.net"></path><path class="stroke_order_diagram--current_path" d="M28.38,20.62c4.1,2.63,10.6,10.31,11.63,14.4" id="Ske1ybq6yl" kvg:type="㇔" transform="matrix(1,0,0,1,96,-4)" xmlns:kvg="http://kanjivg.tagaini.net"></path><circle class="stroke_order_diagram--path_start" cx="28.38" cy="20.62" r="4" transform="matrix(1,0,0,1,96,-4)"></circle><line class="stroke_order_diagram--guide_line" x1="250" x2="250" y1="1" y2="99"></line><line class="stroke_order_diagram--bounding_box" x1="299" x2="299" y1="1" y2="99"></line><path class="stroke_order_diagram--existing_path" d="M53.94,9.87c1.35,1.35,1.72,3.13,1.72,5.08c0,11.3,0,15.3,0,26.17" id="Ske1ybq6yo" kvg:type="㇑a" transform="matrix(1,0,0,1,196,-4)" xmlns:kvg="http://kanjivg.tagaini.net"></path><path class="stroke_order_diagram--existing_path" d="M28.38,20.62c4.1,2.63,10.6,10.31,11.63,14.4" id="Ske1ybq6yp" kvg:type="㇔" transform="matrix(1,0,0,1,196,-4)" xmlns:kvg="http://kanjivg.tagaini.net"></path><path class="stroke_order_diagram--current_path" d="M81.2,16.15c0.08,1.03,0.09,1.81-0.4,2.72c-2.67,5-4.9,8.06-10.79,13.62" id="kvg:08096-s3" kvg:type="㇒" transform="matrix(1,0,0,1,196,-4)" xmlns:kvg="http://kanjivg.tagaini.net"></path><path class="stroke_order_diagram--current_path" d="M81.2,16.15c0.08,1.03,0.09,1.81-0.4,2.72c-2.67,5-4.9,8.06-10.79,13.62" id="Ske1ybq6yr" kvg:type="㇒" transform="matrix(1,0,0,1,196,-4)" xmlns:kvg="http://kanjivg.tagaini.net"></path><circle class="stroke_order_diagram--path_start" cx="81.2" cy="16.15" r="4" transform="matrix(1,0,0,1,196,-4)"></circle><line class="stroke_order_diagram--guide_line" x1="350" x2="350" y1="1" y2="99"></line><line class="stroke_order_diagram--bounding_box" x1="399" x2="399" y1="1" y2="99"></line><path class="stroke_order_diagram--existing_path" d="M53.94,9.87c1.35,1.35,1.72,3.13,1.72,5.08c0,11.3,0,15.3,0,26.17" id="Ske1ybq6yu" kvg:type="㇑a" transform="matrix(1,0,0,1,296,-4)" xmlns:kvg="http://kanjivg.tagaini.net"></path><path class="stroke_order_diagram--existing_path" d="M28.38,20.62c4.1,2.63,10.6,10.31,11.63,14.4" id="Ske1ybq6yv" kvg:type="㇔" transform="matrix(1,0,0,1,296,-4)" xmlns:kvg="http://kanjivg.tagaini.net"></path><path class="stroke_order_diagram--existing_path" d="M81.2,16.15c0.08,1.03,0.09,1.81-0.4,2.72c-2.67,5-4.9,8.06-10.79,13.62" id="Ske1ybq6yw" kvg:type="㇒" transform="matrix(1,0,0,1,296,-4)" xmlns:kvg="http://kanjivg.tagaini.net"></path><path class="stroke_order_diagram--current_path" d="M35.75,41.22c1.02,1.02,1.5,2.53,1.5,4c0,0.77,0.04,27.56,0.04,42.28c0,5.05-0.01,8.65-0.04,9.22" id="kvg:08096-s4" kvg:type="㇑/㇒" transform="matrix(1,0,0,1,296,-4)" xmlns:kvg="http://kanjivg.tagaini.net"></path><path class="stroke_order_diagram--current_path" d="M35.75,41.22c1.02,1.02,1.5,2.53,1.5,4c0,0.77,0.04,27.56,0.04,42.28c0,5.05-0.01,8.65-0.04,9.22" id="Ske1ybq6yy" kvg:type="㇑/㇒" transform="matrix(1,0,0,1,296,-4)" xmlns:kvg="http://kanjivg.tagaini.net"></path><circle class="stroke_order_diagram--path_start" cx="35.75" cy="41.22" r="4" transform="matrix(1,0,0,1,296,-4)"></circle><line class="stroke_order_diagram--guide_line" x1="450" x2="450" y1="1" y2="99"></line><line class="stroke_order_diagram--bounding_box" x1="499" x2="499" y1="1" y2="99"></line><path class="stroke_order_diagram--existing_path" d="M53.94,9.87c1.35,1.35,1.72,3.13,1.72,5.08c0,11.3,0,15.3,0,26.17" id="Ske1ybq6y11" kvg:type="㇑a" transform="matrix(1,0,0,1,396,-4)" xmlns:kvg="http://kanjivg.tagaini.net"></path><path class="stroke_order_diagram--existing_path" d="M28.38,20.62c4.1,2.63,10.6,10.31,11.63,14.4" id="Ske1ybq6y12" kvg:type="㇔" transform="matrix(1,0,0,1,396,-4)" xmlns:kvg="http://kanjivg.tagaini.net"></path><path class="stroke_order_diagram--existing_path" d="M81.2,16.15c0.08,1.03,0.09,1.81-0.4,2.72c-2.67,5-4.9,8.06-10.79,13.62" id="Ske1ybq6y13" kvg:type="㇒" transform="matrix(1,0,0,1,396,-4)" xmlns:kvg="http://kanjivg.tagaini.net"></path><path class="stroke_order_diagram--existing_path" d="M35.75,41.22c1.02,1.02,1.5,2.53,1.5,4c0,0.77,0.04,27.56,0.04,42.28c0,5.05-0.01,8.65-0.04,9.22" id="Ske1ybq6y14" kvg:type="㇑/㇒" transform="matrix(1,0,0,1,396,-4)" xmlns:kvg="http://kanjivg.tagaini.net"></path><path class="stroke_order_diagram--current_path" d="M38,43.47c6.62-0.72,30.5-3.62,32.75-3.75c3.62-0.22,5,1.16,5,4.75c0,10.78,0,25.75,0,46c0,11.03-6,2.78-8.25,1.03" id="kvg:08096-s5" kvg:type="㇆a" transform="matrix(1,0,0,1,396,-4)" xmlns:kvg="http://kanjivg.tagaini.net"></path><path class="stroke_order_diagram--current_path" d="M38,43.47c6.62-0.72,30.5-3.62,32.75-3.75c3.62-0.22,5,1.16,5,4.75c0,10.78,0,25.75,0,46c0,11.03-6,2.78-8.25,1.03" id="Ske1ybq6y16" kvg:type="㇆a" transform="matrix(1,0,0,1,396,-4)" xmlns:kvg="http://kanjivg.tagaini.net"></path><circle class="stroke_order_diagram--path_start" cx="38" cy="43.47" r="4" transform="matrix(1,0,0,1,396,-4)"></circle><line class="stroke_order_diagram--guide_line" x1="550" x2="550" y1="1" y2="99"></line><line class="stroke_order_diagram--bounding_box" x1="599" x2="599" y1="1" y2="99"></line><path class="stroke_order_diagram--existing_path" d="M53.94,9.87c1.35,1.35,1.72,3.13,1.72,5.08c0,11.3,0,15.3,0,26.17" id="Ske1ybq6y19" kvg:type="㇑a" transform="matrix(1,0,0,1,496,-4)" xmlns:kvg="http://kanjivg.tagaini.net"></path><path class="stroke_order_diagram--existing_path" d="M28.38,20.62c4.1,2.63,10.6,10.31,11.63,14.4" id="Ske1ybq6y1a" kvg:type="㇔" transform="matrix(1,0,0,1,496,-4)" xmlns:kvg="http://kanjivg.tagaini.net"></path><path class="stroke_order_diagram--existing_path" d="M81.2,16.15c0.08,1.03,0.09,1.81-0.4,2.72c-2.67,5-4.9,8.06-10.79,13.62" id="Ske1ybq6y1b" kvg:type="㇒" transform="matrix(1,0,0,1,496,-4)" xmlns:kvg="http://kanjivg.tagaini.net"></path><path class="stroke_order_diagram--existing_path" d="M35.75,41.22c1.02,1.02,1.5,2.53,1.5,4c0,0.77,0.04,27.56,0.04,42.28c0,5.05-0.01,8.65-0.04,9.22" id="Ske1ybq6y1c" kvg:type="㇑/㇒" transform="matrix(1,0,0,1,496,-4)" xmlns:kvg="http://kanjivg.tagaini.net"></path><path class="stroke_order_diagram--existing_path" d="M38,43.47c6.62-0.72,30.5-3.62,32.75-3.75c3.62-0.22,5,1.16,5,4.75c0,10.78,0,25.75,0,46c0,11.03-6,2.78-8.25,1.03" id="Ske1ybq6y1d" kvg:type="㇆a" transform="matrix(1,0,0,1,496,-4)" xmlns:kvg="http://kanjivg.tagaini.net"></path><path class="stroke_order_diagram--current_path" d="M38.25,56.47c12-1.22,25.12-2.09,36.5-2.75" id="kvg:08096-s6" kvg:type="㇐a" transform="matrix(1,0,0,1,496,-4)" xmlns:kvg="http://kanjivg.tagaini.net"></path><path class="stroke_order_diagram--current_path" d="M38.25,56.47c12-1.22,25.12-2.09,36.5-2.75" id="Ske1ybq6y1f" kvg:type="㇐a" transform="matrix(1,0,0,1,496,-4)" xmlns:kvg="http://kanjivg.tagaini.net"></path><circle class="stroke_order_diagram--path_start" cx="38.25" cy="56.47" r="4" transform="matrix(1,0,0,1,496,-4)"></circle><line class="stroke_order_diagram--guide_line" x1="650" x2="650" y1="1" y2="99"></line><line class="stroke_order_diagram--bounding_box" x1="699" x2="699" y1="1" y2="99"></line><path class="stroke_order_diagram--existing_path" d="M53.94,9.87c1.35,1.35,1.72,3.13,1.72,5.08c0,11.3,0,15.3,0,26.17" id="Ske1ybq6y1i" kvg:type="㇑a" transform="matrix(1,0,0,1,596,-4)" xmlns:kvg="http://kanjivg.tagaini.net"></path><path class="stroke_order_diagram--existing_path" d="M28.38,20.62c4.1,2.63,10.6,10.31,11.63,14.4" id="Ske1ybq6y1j" kvg:type="㇔" transform="matrix(1,0,0,1,596,-4)" xmlns:kvg="http://kanjivg.tagaini.net"></path><path class="stroke_order_diagram--existing_path" d="M81.2,16.15c0.08,1.03,0.09,1.81-0.4,2.72c-2.67,5-4.9,8.06-10.79,13.62" id="Ske1ybq6y1k" kvg:type="㇒" transform="matrix(1,0,0,1,596,-4)" xmlns:kvg="http://kanjivg.tagaini.net"></path><path class="stroke_order_diagram--existing_path" d="M35.75,41.22c1.02,1.02,1.5,2.53,1.5,4c0,0.77,0.04,27.56,0.04,42.28c0,5.05-0.01,8.65-0.04,9.22" id="Ske1ybq6y1l" kvg:type="㇑/㇒" transform="matrix(1,0,0,1,596,-4)" xmlns:kvg="http://kanjivg.tagaini.net"></path><path class="stroke_order_diagram--existing_path" d="M38,43.47c6.62-0.72,30.5-3.62,32.75-3.75c3.62-0.22,5,1.16,5,4.75c0,10.78,0,25.75,0,46c0,11.03-6,2.78-8.25,1.03" id="Ske1ybq6y1m" kvg:type="㇆a" transform="matrix(1,0,0,1,596,-4)" xmlns:kvg="http://kanjivg.tagaini.net"></path><path class="stroke_order_diagram--existing_path" d="M38.25,56.47c12-1.22,25.12-2.09,36.5-2.75" id="Ske1ybq6y1n" kvg:type="㇐a" transform="matrix(1,0,0,1,596,-4)" xmlns:kvg="http://kanjivg.tagaini.net"></path><path class="stroke_order_diagram--current_path" d="M38.5,71.22c8-0.75,27-2.25,36.25-2.75" id="kvg:08096-s7" kvg:type="㇐a" transform="matrix(1,0,0,1,596,-4)" xmlns:kvg="http://kanjivg.tagaini.net"></path><path class="stroke_order_diagram--current_path" d="M38.5,71.22c8-0.75,27-2.25,36.25-2.75" id="Ske1ybq6y1p" kvg:type="㇐a" transform="matrix(1,0,0,1,596,-4)" xmlns:kvg="http://kanjivg.tagaini.net"></path><circle class="stroke_order_diagram--path_start" cx="38.5" cy="71.22" r="4" transform="matrix(1,0,0,1,596,-4)"></circle></svg>