<svg class="stroke_order_diagram--svg_container_for_5186629dd5dda79658000b95" style="height: 100px; width: 1200px;" viewbox="0 0 1200 100"><desc>Created with Snap</desc><defs></defs><line class="stroke_order_diagram--bounding_box" x1="1" x2="1199" y1="1" y2="1"></line><line class="stroke_order_diagram--bounding_box" x1="1" x2="1" y1="1" y2="99"></line><line class="stroke_order_diagram--bounding_box" x1="1" x2="1199" y1="99" y2="99"></line><line class="stroke_order_diagram--guide_line" x1="0" x2="1200" y1="50" y2="50"></line><line class="stroke_order_diagram--guide_line" x1="50" x2="50" y1="1" y2="99"></line><line class="stroke_order_diagram--bounding_box" x1="99" x2="99" y1="1" y2="99"></line><path class="stroke_order_diagram--current_path" d="M17,20c0.88,0.88,0.96,1.97,1,3c1.5,37.75-1.38,56.62-7.75,69" id="kvg:08155-s1" kvg:type="㇒" transform="matrix(1,0,0,1,-4,-4)" xmlns:kvg="http://kanjivg.tagaini.net"></path><path class="stroke_order_diagram--current_path" d="M17,20c0.88,0.88,0.96,1.97,1,3c1.5,37.75-1.38,56.62-7.75,69" id="Ske2br1zcl" kvg:type="㇒" transform="matrix(1,0,0,1,-4,-4)" xmlns:kvg="http://kanjivg.tagaini.net"></path><circle class="stroke_order_diagram--path_start" cx="17" cy="20" r="4" transform="matrix(1,0,0,1,-4,-4)"></circle><line class="stroke_order_diagram--guide_line" x1="150" x2="150" y1="1" y2="99"></line><line class="stroke_order_diagram--bounding_box" x1="199" x2="199" y1="1" y2="99"></line><path class="stroke_order_diagram--existing_path" d="M17,20c0.88,0.88,0.96,1.97,1,3c1.5,37.75-1.38,56.62-7.75,69" id="Ske2br1zco" kvg:type="㇒" transform="matrix(1,0,0,1,96,-4)" xmlns:kvg="http://kanjivg.tagaini.net"></path><path class="stroke_order_diagram--current_path" d="M19,22.25c4.07-0.79,9.61-1.8,12.26-2.34c2.22-0.46,4.24,0.54,4.24,3.09c0,6.75,0,43.75,0,64c0,10.75-4.75,5.25-7.5,2.25" id="kvg:08155-s2" kvg:type="㇆a" transform="matrix(1,0,0,1,96,-4)" xmlns:kvg="http://kanjivg.tagaini.net"></path><path class="stroke_order_diagram--current_path" d="M19,22.25c4.07-0.79,9.61-1.8,12.26-2.34c2.22-0.46,4.24,0.54,4.24,3.09c0,6.75,0,43.75,0,64c0,10.75-4.75,5.25-7.5,2.25" id="Ske2br1zcq" kvg:type="㇆a" transform="matrix(1,0,0,1,96,-4)" xmlns:kvg="http://kanjivg.tagaini.net"></path><circle class="stroke_order_diagram--path_start" cx="19" cy="22.25" r="4" transform="matrix(1,0,0,1,96,-4)"></circle><line class="stroke_order_diagram--guide_line" x1="250" x2="250" y1="1" y2="99"></line><line class="stroke_order_diagram--bounding_box" x1="299" x2="299" y1="1" y2="99"></line><path class="stroke_order_diagram--existing_path" d="M17,20c0.88,0.88,0.96,1.97,1,3c1.5,37.75-1.38,56.62-7.75,69" id="Ske2br1zct" kvg:type="㇒" transform="matrix(1,0,0,1,196,-4)" xmlns:kvg="http://kanjivg.tagaini.net"></path><path class="stroke_order_diagram--existing_path" d="M19,22.25c4.07-0.79,9.61-1.8,12.26-2.34c2.22-0.46,4.24,0.54,4.24,3.09c0,6.75,0,43.75,0,64c0,10.75-4.75,5.25-7.5,2.25" id="Ske2br1zcu" kvg:type="㇆a" transform="matrix(1,0,0,1,196,-4)" xmlns:kvg="http://kanjivg.tagaini.net"></path><path class="stroke_order_diagram--current_path" d="M19.5,40.75c4.75-0.5,8.25-0.88,15-1.5" id="kvg:08155-s3" kvg:type="㇐a" transform="matrix(1,0,0,1,196,-4)" xmlns:kvg="http://kanjivg.tagaini.net"></path><path class="stroke_order_diagram--current_path" d="M19.5,40.75c4.75-0.5,8.25-0.88,15-1.5" id="Ske2br1zcw" kvg:type="㇐a" transform="matrix(1,0,0,1,196,-4)" xmlns:kvg="http://kanjivg.tagaini.net"></path><circle class="stroke_order_diagram--path_start" cx="19.5" cy="40.75" r="4" transform="matrix(1,0,0,1,196,-4)"></circle><line class="stroke_order_diagram--guide_line" x1="350" x2="350" y1="1" y2="99"></line><line class="stroke_order_diagram--bounding_box" x1="399" x2="399" y1="1" y2="99"></line><path class="stroke_order_diagram--existing_path" d="M17,20c0.88,0.88,0.96,1.97,1,3c1.5,37.75-1.38,56.62-7.75,69" id="Ske2br1zcz" kvg:type="㇒" transform="matrix(1,0,0,1,296,-4)" xmlns:kvg="http://kanjivg.tagaini.net"></path><path class="stroke_order_diagram--existing_path" d="M19,22.25c4.07-0.79,9.61-1.8,12.26-2.34c2.22-0.46,4.24,0.54,4.24,3.09c0,6.75,0,43.75,0,64c0,10.75-4.75,5.25-7.5,2.25" id="Ske2br1zc10" kvg:type="㇆a" transform="matrix(1,0,0,1,296,-4)" xmlns:kvg="http://kanjivg.tagaini.net"></path><path class="stroke_order_diagram--existing_path" d="M19.5,40.75c4.75-0.5,8.25-0.88,15-1.5" id="Ske2br1zc11" kvg:type="㇐a" transform="matrix(1,0,0,1,296,-4)" xmlns:kvg="http://kanjivg.tagaini.net"></path><path class="stroke_order_diagram--current_path" d="M18.75,58.75c5.25-0.75,9.5-1.25,15.5-1.5" id="kvg:08155-s4" kvg:type="㇐a" transform="matrix(1,0,0,1,296,-4)" xmlns:kvg="http://kanjivg.tagaini.net"></path><path class="stroke_order_diagram--current_path" d="M18.75,58.75c5.25-0.75,9.5-1.25,15.5-1.5" id="Ske2br1zc13" kvg:type="㇐a" transform="matrix(1,0,0,1,296,-4)" xmlns:kvg="http://kanjivg.tagaini.net"></path><circle class="stroke_order_diagram--path_start" cx="18.75" cy="58.75" r="4" transform="matrix(1,0,0,1,296,-4)"></circle><line class="stroke_order_diagram--guide_line" x1="450" x2="450" y1="1" y2="99"></line><line class="stroke_order_diagram--bounding_box" x1="499" x2="499" y1="1" y2="99"></line><path class="stroke_order_diagram--existing_path" d="M17,20c0.88,0.88,0.96,1.97,1,3c1.5,37.75-1.38,56.62-7.75,69" id="Ske2br1zc16" kvg:type="㇒" transform="matrix(1,0,0,1,396,-4)" xmlns:kvg="http://kanjivg.tagaini.net"></path><path class="stroke_order_diagram--existing_path" d="M19,22.25c4.07-0.79,9.61-1.8,12.26-2.34c2.22-0.46,4.24,0.54,4.24,3.09c0,6.75,0,43.75,0,64c0,10.75-4.75,5.25-7.5,2.25" id="Ske2br1zc17" kvg:type="㇆a" transform="matrix(1,0,0,1,396,-4)" xmlns:kvg="http://kanjivg.tagaini.net"></path><path class="stroke_order_diagram--existing_path" d="M19.5,40.75c4.75-0.5,8.25-0.88,15-1.5" id="Ske2br1zc18" kvg:type="㇐a" transform="matrix(1,0,0,1,396,-4)" xmlns:kvg="http://kanjivg.tagaini.net"></path><path class="stroke_order_diagram--existing_path" d="M18.75,58.75c5.25-0.75,9.5-1.25,15.5-1.5" id="Ske2br1zc19" kvg:type="㇐a" transform="matrix(1,0,0,1,396,-4)" xmlns:kvg="http://kanjivg.tagaini.net"></path><path class="stroke_order_diagram--current_path" d="M67.15,13.8c0.96,0.96,1.35,2.25,1.35,3.7c0,3.05,0.11,6.45,0.11,9.22" id="kvg:08155-s5" kvg:type="㇑a" transform="matrix(1,0,0,1,396,-4)" xmlns:kvg="http://kanjivg.tagaini.net"></path><path class="stroke_order_diagram--current_path" d="M67.15,13.8c0.96,0.96,1.35,2.25,1.35,3.7c0,3.05,0.11,6.45,0.11,9.22" id="Ske2br1zc1b" kvg:type="㇑a" transform="matrix(1,0,0,1,396,-4)" xmlns:kvg="http://kanjivg.tagaini.net"></path><circle class="stroke_order_diagram--path_start" cx="67.15" cy="13.8" r="4" transform="matrix(1,0,0,1,396,-4)"></circle><line class="stroke_order_diagram--guide_line" x1="550" x2="550" y1="1" y2="99"></line><line class="stroke_order_diagram--bounding_box" x1="599" x2="599" y1="1" y2="99"></line><path class="stroke_order_diagram--existing_path" d="M17,20c0.88,0.88,0.96,1.97,1,3c1.5,37.75-1.38,56.62-7.75,69" id="Ske2br1zc1e" kvg:type="㇒" transform="matrix(1,0,0,1,496,-4)" xmlns:kvg="http://kanjivg.tagaini.net"></path><path class="stroke_order_diagram--existing_path" d="M19,22.25c4.07-0.79,9.61-1.8,12.26-2.34c2.22-0.46,4.24,0.54,4.24,3.09c0,6.75,0,43.75,0,64c0,10.75-4.75,5.25-7.5,2.25" id="Ske2br1zc1f" kvg:type="㇆a" transform="matrix(1,0,0,1,496,-4)" xmlns:kvg="http://kanjivg.tagaini.net"></path><path class="stroke_order_diagram--existing_path" d="M19.5,40.75c4.75-0.5,8.25-0.88,15-1.5" id="Ske2br1zc1g" kvg:type="㇐a" transform="matrix(1,0,0,1,496,-4)" xmlns:kvg="http://kanjivg.tagaini.net"></path><path class="stroke_order_diagram--existing_path" d="M18.75,58.75c5.25-0.75,9.5-1.25,15.5-1.5" id="Ske2br1zc1h" kvg:type="㇐a" transform="matrix(1,0,0,1,496,-4)" xmlns:kvg="http://kanjivg.tagaini.net"></path><path class="stroke_order_diagram--existing_path" d="M67.15,13.8c0.96,0.96,1.35,2.25,1.35,3.7c0,3.05,0.11,6.45,0.11,9.22" id="Ske2br1zc1i" kvg:type="㇑a" transform="matrix(1,0,0,1,496,-4)" xmlns:kvg="http://kanjivg.tagaini.net"></path><path class="stroke_order_diagram--current_path" d="M48.08,27.49c0,3.68-2.87,13.79-4.17,16.25" id="kvg:08155-s6" kvg:type="㇔" transform="matrix(1,0,0,1,496,-4)" xmlns:kvg="http://kanjivg.tagaini.net"></path><path class="stroke_order_diagram--current_path" d="M48.08,27.49c0,3.68-2.87,13.79-4.17,16.25" id="Ske2br1zc1k" kvg:type="㇔" transform="matrix(1,0,0,1,496,-4)" xmlns:kvg="http://kanjivg.tagaini.net"></path><circle class="stroke_order_diagram--path_start" cx="48.08" cy="27.49" r="4" transform="matrix(1,0,0,1,496,-4)"></circle><line class="stroke_order_diagram--guide_line" x1="650" x2="650" y1="1" y2="99"></line><line class="stroke_order_diagram--bounding_box" x1="699" x2="699" y1="1" y2="99"></line><path class="stroke_order_diagram--existing_path" d="M17,20c0.88,0.88,0.96,1.97,1,3c1.5,37.75-1.38,56.62-7.75,69" id="Ske2br1zc1n" kvg:type="㇒" transform="matrix(1,0,0,1,596,-4)" xmlns:kvg="http://kanjivg.tagaini.net"></path><path class="stroke_order_diagram--existing_path" d="M19,22.25c4.07-0.79,9.61-1.8,12.26-2.34c2.22-0.46,4.24,0.54,4.24,3.09c0,6.75,0,43.75,0,64c0,10.75-4.75,5.25-7.5,2.25" id="Ske2br1zc1o" kvg:type="㇆a" transform="matrix(1,0,0,1,596,-4)" xmlns:kvg="http://kanjivg.tagaini.net"></path><path class="stroke_order_diagram--existing_path" d="M19.5,40.75c4.75-0.5,8.25-0.88,15-1.5" id="Ske2br1zc1p" kvg:type="㇐a" transform="matrix(1,0,0,1,596,-4)" xmlns:kvg="http://kanjivg.tagaini.net"></path><path class="stroke_order_diagram--existing_path" d="M18.75,58.75c5.25-0.75,9.5-1.25,15.5-1.5" id="Ske2br1zc1q" kvg:type="㇐a" transform="matrix(1,0,0,1,596,-4)" xmlns:kvg="http://kanjivg.tagaini.net"></path><path class="stroke_order_diagram--existing_path" d="M67.15,13.8c0.96,0.96,1.35,2.25,1.35,3.7c0,3.05,0.11,6.45,0.11,9.22" id="Ske2br1zc1r" kvg:type="㇑a" transform="matrix(1,0,0,1,596,-4)" xmlns:kvg="http://kanjivg.tagaini.net"></path><path class="stroke_order_diagram--existing_path" d="M48.08,27.49c0,3.68-2.87,13.79-4.17,16.25" id="Ske2br1zc1s" kvg:type="㇔" transform="matrix(1,0,0,1,596,-4)" xmlns:kvg="http://kanjivg.tagaini.net"></path><path class="stroke_order_diagram--current_path" d="M48.94,29.35c8.18-1.1,32.93-3.6,42-3.82c9.81-0.24,0.35,6.34-1.64,7.99" id="kvg:08155-s7" kvg:type="㇖b" transform="matrix(1,0,0,1,596,-4)" xmlns:kvg="http://kanjivg.tagaini.net"></path><path class="stroke_order_diagram--current_path" d="M48.94,29.35c8.18-1.1,32.93-3.6,42-3.82c9.81-0.24,0.35,6.34-1.64,7.99" id="Ske2br1zc1u" kvg:type="㇖b" transform="matrix(1,0,0,1,596,-4)" xmlns:kvg="http://kanjivg.tagaini.net"></path><circle class="stroke_order_diagram--path_start" cx="48.94" cy="29.35" r="4" transform="matrix(1,0,0,1,596,-4)"></circle><line class="stroke_order_diagram--guide_line" x1="750" x2="750" y1="1" y2="99"></line><line class="stroke_order_diagram--bounding_box" x1="799" x2="799" y1="1" y2="99"></line><path class="stroke_order_diagram--existing_path" d="M17,20c0.88,0.88,0.96,1.97,1,3c1.5,37.75-1.38,56.62-7.75,69" id="Ske2br1zc1x" kvg:type="㇒" transform="matrix(1,0,0,1,696,-4)" xmlns:kvg="http://kanjivg.tagaini.net"></path><path class="stroke_order_diagram--existing_path" d="M19,22.25c4.07-0.79,9.61-1.8,12.26-2.34c2.22-0.46,4.24,0.54,4.24,3.09c0,6.75,0,43.75,0,64c0,10.75-4.75,5.25-7.5,2.25" id="Ske2br1zc1y" kvg:type="㇆a" transform="matrix(1,0,0,1,696,-4)" xmlns:kvg="http://kanjivg.tagaini.net"></path><path class="stroke_order_diagram--existing_path" d="M19.5,40.75c4.75-0.5,8.25-0.88,15-1.5" id="Ske2br1zc1z" kvg:type="㇐a" transform="matrix(1,0,0,1,696,-4)" xmlns:kvg="http://kanjivg.tagaini.net"></path><path class="stroke_order_diagram--existing_path" d="M18.75,58.75c5.25-0.75,9.5-1.25,15.5-1.5" id="Ske2br1zc20" kvg:type="㇐a" transform="matrix(1,0,0,1,696,-4)" xmlns:kvg="http://kanjivg.tagaini.net"></path><path class="stroke_order_diagram--existing_path" d="M67.15,13.8c0.96,0.96,1.35,2.25,1.35,3.7c0,3.05,0.11,6.45,0.11,9.22" id="Ske2br1zc21" kvg:type="㇑a" transform="matrix(1,0,0,1,696,-4)" xmlns:kvg="http://kanjivg.tagaini.net"></path><path class="stroke_order_diagram--existing_path" d="M48.08,27.49c0,3.68-2.87,13.79-4.17,16.25" id="Ske2br1zc22" kvg:type="㇔" transform="matrix(1,0,0,1,696,-4)" xmlns:kvg="http://kanjivg.tagaini.net"></path><path class="stroke_order_diagram--existing_path" d="M48.94,29.35c8.18-1.1,32.93-3.6,42-3.82c9.81-0.24,0.35,6.34-1.64,7.99" id="Ske2br1zc23" kvg:type="㇖b" transform="matrix(1,0,0,1,696,-4)" xmlns:kvg="http://kanjivg.tagaini.net"></path><path class="stroke_order_diagram--current_path" d="M54.42,39.17c0.15,0.53,0.13,1.92-0.22,2.92c-2.7,7.79-7.75,16.06-14.81,25.85" id="kvg:08155-s8" kvg:type="㇒" transform="matrix(1,0,0,1,696,-4)" xmlns:kvg="http://kanjivg.tagaini.net"></path><path class="stroke_order_diagram--current_path" d="M54.42,39.17c0.15,0.53,0.13,1.92-0.22,2.92c-2.7,7.79-7.75,16.06-14.81,25.85" id="Ske2br1zc25" kvg:type="㇒" transform="matrix(1,0,0,1,696,-4)" xmlns:kvg="http://kanjivg.tagaini.net"></path><circle class="stroke_order_diagram--path_start" cx="54.42" cy="39.17" r="4" transform="matrix(1,0,0,1,696,-4)"></circle><line class="stroke_order_diagram--guide_line" x1="850" x2="850" y1="1" y2="99"></line><line class="stroke_order_diagram--bounding_box" x1="899" x2="899" y1="1" y2="99"></line><path class="stroke_order_diagram--existing_path" d="M17,20c0.88,0.88,0.96,1.97,1,3c1.5,37.75-1.38,56.62-7.75,69" id="Ske2br1zc28" kvg:type="㇒" transform="matrix(1,0,0,1,796,-4)" xmlns:kvg="http://kanjivg.tagaini.net"></path><path class="stroke_order_diagram--existing_path" d="M19,22.25c4.07-0.79,9.61-1.8,12.26-2.34c2.22-0.46,4.24,0.54,4.24,3.09c0,6.75,0,43.75,0,64c0,10.75-4.75,5.25-7.5,2.25" id="Ske2br1zc29" kvg:type="㇆a" transform="matrix(1,0,0,1,796,-4)" xmlns:kvg="http://kanjivg.tagaini.net"></path><path class="stroke_order_diagram--existing_path" d="M19.5,40.75c4.75-0.5,8.25-0.88,15-1.5" id="Ske2br1zc2a" kvg:type="㇐a" transform="matrix(1,0,0,1,796,-4)" xmlns:kvg="http://kanjivg.tagaini.net"></path><path class="stroke_order_diagram--existing_path" d="M18.75,58.75c5.25-0.75,9.5-1.25,15.5-1.5" id="Ske2br1zc2b" kvg:type="㇐a" transform="matrix(1,0,0,1,796,-4)" xmlns:kvg="http://kanjivg.tagaini.net"></path><path class="stroke_order_diagram--existing_path" d="M67.15,13.8c0.96,0.96,1.35,2.25,1.35,3.7c0,3.05,0.11,6.45,0.11,9.22" id="Ske2br1zc2c" kvg:type="㇑a" transform="matrix(1,0,0,1,796,-4)" xmlns:kvg="http://kanjivg.tagaini.net"></path><path class="stroke_order_diagram--existing_path" d="M48.08,27.49c0,3.68-2.87,13.79-4.17,16.25" id="Ske2br1zc2d" kvg:type="㇔" transform="matrix(1,0,0,1,796,-4)" xmlns:kvg="http://kanjivg.tagaini.net"></path><path class="stroke_order_diagram--existing_path" d="M48.94,29.35c8.18-1.1,32.93-3.6,42-3.82c9.81-0.24,0.35,6.34-1.64,7.99" id="Ske2br1zc2e" kvg:type="㇖b" transform="matrix(1,0,0,1,796,-4)" xmlns:kvg="http://kanjivg.tagaini.net"></path><path class="stroke_order_diagram--existing_path" d="M54.42,39.17c0.15,0.53,0.13,1.92-0.22,2.92c-2.7,7.79-7.75,16.06-14.81,25.85" id="Ske2br1zc2f" kvg:type="㇒" transform="matrix(1,0,0,1,796,-4)" xmlns:kvg="http://kanjivg.tagaini.net"></path><path class="stroke_order_diagram--current_path" d="M54.06,50.7c0.57,0.18,1.41,0.19,2.06,0.13c2.01-0.2,4.26-0.7,7.17-1.56c2.11-0.63,3.4,0.77,2.61,2.94C61.88,63.25,52,82.5,38.75,93.75" id="kvg:08155-s9" kvg:type="㇇" transform="matrix(1,0,0,1,796,-4)" xmlns:kvg="http://kanjivg.tagaini.net"></path><path class="stroke_order_diagram--current_path" d="M54.06,50.7c0.57,0.18,1.41,0.19,2.06,0.13c2.01-0.2,4.26-0.7,7.17-1.56c2.11-0.63,3.4,0.77,2.61,2.94C61.88,63.25,52,82.5,38.75,93.75" id="Ske2br1zc2h" kvg:type="㇇" transform="matrix(1,0,0,1,796,-4)" xmlns:kvg="http://kanjivg.tagaini.net"></path><circle class="stroke_order_diagram--path_start" cx="54.06" cy="50.7" r="4" transform="matrix(1,0,0,1,796,-4)"></circle><line class="stroke_order_diagram--guide_line" x1="950" x2="950" y1="1" y2="99"></line><line class="stroke_order_diagram--bounding_box" x1="999" x2="999" y1="1" y2="99"></line><path class="stroke_order_diagram--existing_path" d="M17,20c0.88,0.88,0.96,1.97,1,3c1.5,37.75-1.38,56.62-7.75,69" id="Ske2br1zc2k" kvg:type="㇒" transform="matrix(1,0,0,1,896,-4)" xmlns:kvg="http://kanjivg.tagaini.net"></path><path class="stroke_order_diagram--existing_path" d="M19,22.25c4.07-0.79,9.61-1.8,12.26-2.34c2.22-0.46,4.24,0.54,4.24,3.09c0,6.75,0,43.75,0,64c0,10.75-4.75,5.25-7.5,2.25" id="Ske2br1zc2l" kvg:type="㇆a" transform="matrix(1,0,0,1,896,-4)" xmlns:kvg="http://kanjivg.tagaini.net"></path><path class="stroke_order_diagram--existing_path" d="M19.5,40.75c4.75-0.5,8.25-0.88,15-1.5" id="Ske2br1zc2m" kvg:type="㇐a" transform="matrix(1,0,0,1,896,-4)" xmlns:kvg="http://kanjivg.tagaini.net"></path><path class="stroke_order_diagram--existing_path" d="M18.75,58.75c5.25-0.75,9.5-1.25,15.5-1.5" id="Ske2br1zc2n" kvg:type="㇐a" transform="matrix(1,0,0,1,896,-4)" xmlns:kvg="http://kanjivg.tagaini.net"></path><path class="stroke_order_diagram--existing_path" d="M67.15,13.8c0.96,0.96,1.35,2.25,1.35,3.7c0,3.05,0.11,6.45,0.11,9.22" id="Ske2br1zc2o" kvg:type="㇑a" transform="matrix(1,0,0,1,896,-4)" xmlns:kvg="http://kanjivg.tagaini.net"></path><path class="stroke_order_diagram--existing_path" d="M48.08,27.49c0,3.68-2.87,13.79-4.17,16.25" id="Ske2br1zc2p" kvg:type="㇔" transform="matrix(1,0,0,1,896,-4)" xmlns:kvg="http://kanjivg.tagaini.net"></path><path class="stroke_order_diagram--existing_path" d="M48.94,29.35c8.18-1.1,32.93-3.6,42-3.82c9.81-0.24,0.35,6.34-1.64,7.99" id="Ske2br1zc2q" kvg:type="㇖b" transform="matrix(1,0,0,1,896,-4)" xmlns:kvg="http://kanjivg.tagaini.net"></path><path class="stroke_order_diagram--existing_path" d="M54.42,39.17c0.15,0.53,0.13,1.92-0.22,2.92c-2.7,7.79-7.75,16.06-14.81,25.85" id="Ske2br1zc2r" kvg:type="㇒" transform="matrix(1,0,0,1,896,-4)" xmlns:kvg="http://kanjivg.tagaini.net"></path><path class="stroke_order_diagram--existing_path" d="M54.06,50.7c0.57,0.18,1.41,0.19,2.06,0.13c2.01-0.2,4.26-0.7,7.17-1.56c2.11-0.63,3.4,0.77,2.61,2.94C61.88,63.25,52,82.5,38.75,93.75" id="Ske2br1zc2s" kvg:type="㇇" transform="matrix(1,0,0,1,896,-4)" xmlns:kvg="http://kanjivg.tagaini.net"></path><path class="stroke_order_diagram--current_path" d="M47.62,61.25c2.31,1.55,5.97,6.38,6.54,8.79" id="kvg:08155-s10" kvg:type="㇔" transform="matrix(1,0,0,1,896,-4)" xmlns:kvg="http://kanjivg.tagaini.net"></path><path class="stroke_order_diagram--current_path" d="M47.62,61.25c2.31,1.55,5.97,6.38,6.54,8.79" id="Ske2br1zc2u" kvg:type="㇔" transform="matrix(1,0,0,1,896,-4)" xmlns:kvg="http://kanjivg.tagaini.net"></path><circle class="stroke_order_diagram--path_start" cx="47.62" cy="61.25" r="4" transform="matrix(1,0,0,1,896,-4)"></circle><line class="stroke_order_diagram--guide_line" x1="1050" x2="1050" y1="1" y2="99"></line><line class="stroke_order_diagram--bounding_box" x1="1099" x2="1099" y1="1" y2="99"></line><path class="stroke_order_diagram--existing_path" d="M17,20c0.88,0.88,0.96,1.97,1,3c1.5,37.75-1.38,56.62-7.75,69" id="Ske2br1zc2x" kvg:type="㇒" transform="matrix(1,0,0,1,996,-4)" xmlns:kvg="http://kanjivg.tagaini.net"></path><path class="stroke_order_diagram--existing_path" d="M19,22.25c4.07-0.79,9.61-1.8,12.26-2.34c2.22-0.46,4.24,0.54,4.24,3.09c0,6.75,0,43.75,0,64c0,10.75-4.75,5.25-7.5,2.25" id="Ske2br1zc2y" kvg:type="㇆a" transform="matrix(1,0,0,1,996,-4)" xmlns:kvg="http://kanjivg.tagaini.net"></path><path class="stroke_order_diagram--existing_path" d="M19.5,40.75c4.75-0.5,8.25-0.88,15-1.5" id="Ske2br1zc2z" kvg:type="㇐a" transform="matrix(1,0,0,1,996,-4)" xmlns:kvg="http://kanjivg.tagaini.net"></path><path class="stroke_order_diagram--existing_path" d="M18.75,58.75c5.25-0.75,9.5-1.25,15.5-1.5" id="Ske2br1zc30" kvg:type="㇐a" transform="matrix(1,0,0,1,996,-4)" xmlns:kvg="http://kanjivg.tagaini.net"></path><path class="stroke_order_diagram--existing_path" d="M67.15,13.8c0.96,0.96,1.35,2.25,1.35,3.7c0,3.05,0.11,6.45,0.11,9.22" id="Ske2br1zc31" kvg:type="㇑a" transform="matrix(1,0,0,1,996,-4)" xmlns:kvg="http://kanjivg.tagaini.net"></path><path class="stroke_order_diagram--existing_path" d="M48.08,27.49c0,3.68-2.87,13.79-4.17,16.25" id="Ske2br1zc32" kvg:type="㇔" transform="matrix(1,0,0,1,996,-4)" xmlns:kvg="http://kanjivg.tagaini.net"></path><path class="stroke_order_diagram--existing_path" d="M48.94,29.35c8.18-1.1,32.93-3.6,42-3.82c9.81-0.24,0.35,6.34-1.64,7.99" id="Ske2br1zc33" kvg:type="㇖b" transform="matrix(1,0,0,1,996,-4)" xmlns:kvg="http://kanjivg.tagaini.net"></path><path class="stroke_order_diagram--existing_path" d="M54.42,39.17c0.15,0.53,0.13,1.92-0.22,2.92c-2.7,7.79-7.75,16.06-14.81,25.85" id="Ske2br1zc34" kvg:type="㇒" transform="matrix(1,0,0,1,996,-4)" xmlns:kvg="http://kanjivg.tagaini.net"></path><path class="stroke_order_diagram--existing_path" d="M54.06,50.7c0.57,0.18,1.41,0.19,2.06,0.13c2.01-0.2,4.26-0.7,7.17-1.56c2.11-0.63,3.4,0.77,2.61,2.94C61.88,63.25,52,82.5,38.75,93.75" id="Ske2br1zc35" kvg:type="㇇" transform="matrix(1,0,0,1,996,-4)" xmlns:kvg="http://kanjivg.tagaini.net"></path><path class="stroke_order_diagram--existing_path" d="M47.62,61.25c2.31,1.55,5.97,6.38,6.54,8.79" id="Ske2br1zc36" kvg:type="㇔" transform="matrix(1,0,0,1,996,-4)" xmlns:kvg="http://kanjivg.tagaini.net"></path><path class="stroke_order_diagram--current_path" d="M71.24,45.96c1.64,0.54,3.53,0.21,4.6,0.07c3.91-0.53,10.61-2.08,12.04-2.38c2.49-0.52,3.72,0.87,3.63,3.43c-0.14,4.35-1.73,17.56-4.05,24.64c-2.22,6.78-4.22,2.53-5.45-0.39" id="kvg:08155-s11" kvg:type="㇆" transform="matrix(1,0,0,1,996,-4)" xmlns:kvg="http://kanjivg.tagaini.net"></path><path class="stroke_order_diagram--current_path" d="M71.24,45.96c1.64,0.54,3.53,0.21,4.6,0.07c3.91-0.53,10.61-2.08,12.04-2.38c2.49-0.52,3.72,0.87,3.63,3.43c-0.14,4.35-1.73,17.56-4.05,24.64c-2.22,6.78-4.22,2.53-5.45-0.39" id="Ske2br1zc38" kvg:type="㇆" transform="matrix(1,0,0,1,996,-4)" xmlns:kvg="http://kanjivg.tagaini.net"></path><circle class="stroke_order_diagram--path_start" cx="71.24" cy="45.96" r="4" transform="matrix(1,0,0,1,996,-4)"></circle><line class="stroke_order_diagram--guide_line" x1="1150" x2="1150" y1="1" y2="99"></line><line class="stroke_order_diagram--bounding_box" x1="1199" x2="1199" y1="1" y2="99"></line><path class="stroke_order_diagram--existing_path" d="M17,20c0.88,0.88,0.96,1.97,1,3c1.5,37.75-1.38,56.62-7.75,69" id="Ske2br1zc3b" kvg:type="㇒" transform="matrix(1,0,0,1,1096,-4)" xmlns:kvg="http://kanjivg.tagaini.net"></path><path class="stroke_order_diagram--existing_path" d="M19,22.25c4.07-0.79,9.61-1.8,12.26-2.34c2.22-0.46,4.24,0.54,4.24,3.09c0,6.75,0,43.75,0,64c0,10.75-4.75,5.25-7.5,2.25" id="Ske2br1zc3c" kvg:type="㇆a" transform="matrix(1,0,0,1,1096,-4)" xmlns:kvg="http://kanjivg.tagaini.net"></path><path class="stroke_order_diagram--existing_path" d="M19.5,40.75c4.75-0.5,8.25-0.88,15-1.5" id="Ske2br1zc3d" kvg:type="㇐a" transform="matrix(1,0,0,1,1096,-4)" xmlns:kvg="http://kanjivg.tagaini.net"></path><path class="stroke_order_diagram--existing_path" d="M18.75,58.75c5.25-0.75,9.5-1.25,15.5-1.5" id="Ske2br1zc3e" kvg:type="㇐a" transform="matrix(1,0,0,1,1096,-4)" xmlns:kvg="http://kanjivg.tagaini.net"></path><path class="stroke_order_diagram--existing_path" d="M67.15,13.8c0.96,0.96,1.35,2.25,1.35,3.7c0,3.05,0.11,6.45,0.11,9.22" id="Ske2br1zc3f" kvg:type="㇑a" transform="matrix(1,0,0,1,1096,-4)" xmlns:kvg="http://kanjivg.tagaini.net"></path><path class="stroke_order_diagram--existing_path" d="M48.08,27.49c0,3.68-2.87,13.79-4.17,16.25" id="Ske2br1zc3g" kvg:type="㇔" transform="matrix(1,0,0,1,1096,-4)" xmlns:kvg="http://kanjivg.tagaini.net"></path><path class="stroke_order_diagram--existing_path" d="M48.94,29.35c8.18-1.1,32.93-3.6,42-3.82c9.81-0.24,0.35,6.34-1.64,7.99" id="Ske2br1zc3h" kvg:type="㇖b" transform="matrix(1,0,0,1,1096,-4)" xmlns:kvg="http://kanjivg.tagaini.net"></path><path class="stroke_order_diagram--existing_path" d="M54.42,39.17c0.15,0.53,0.13,1.92-0.22,2.92c-2.7,7.79-7.75,16.06-14.81,25.85" id="Ske2br1zc3i" kvg:type="㇒" transform="matrix(1,0,0,1,1096,-4)" xmlns:kvg="http://kanjivg.tagaini.net"></path><path class="stroke_order_diagram--existing_path" d="M54.06,50.7c0.57,0.18,1.41,0.19,2.06,0.13c2.01-0.2,4.26-0.7,7.17-1.56c2.11-0.63,3.4,0.77,2.61,2.94C61.88,63.25,52,82.5,38.75,93.75" id="Ske2br1zc3j" kvg:type="㇇" transform="matrix(1,0,0,1,1096,-4)" xmlns:kvg="http://kanjivg.tagaini.net"></path><path class="stroke_order_diagram--existing_path" d="M47.62,61.25c2.31,1.55,5.97,6.38,6.54,8.79" id="Ske2br1zc3k" kvg:type="㇔" transform="matrix(1,0,0,1,1096,-4)" xmlns:kvg="http://kanjivg.tagaini.net"></path><path class="stroke_order_diagram--existing_path" d="M71.24,45.96c1.64,0.54,3.53,0.21,4.6,0.07c3.91-0.53,10.61-2.08,12.04-2.38c2.49-0.52,3.72,0.87,3.63,3.43c-0.14,4.35-1.73,17.56-4.05,24.64c-2.22,6.78-4.22,2.53-5.45-0.39" id="Ske2br1zc3l" kvg:type="㇆" transform="matrix(1,0,0,1,1096,-4)" xmlns:kvg="http://kanjivg.tagaini.net"></path><path class="stroke_order_diagram--current_path" d="M71.89,46.75c0.93,0.93,1.28,2,1.28,3.33c0,12.3-0.01,20.3-0.01,29.2c0,12.97,0.58,14.47,12.28,14.47c10.68,0,11.7-2,11.7-10.9" id="kvg:08155-s12" kvg:type="㇟/㇑" transform="matrix(1,0,0,1,1096,-4)" xmlns:kvg="http://kanjivg.tagaini.net"></path><path class="stroke_order_diagram--current_path" d="M71.89,46.75c0.93,0.93,1.28,2,1.28,3.33c0,12.3-0.01,20.3-0.01,29.2c0,12.97,0.58,14.47,12.28,14.47c10.68,0,11.7-2,11.7-10.9" id="Ske2br1zc3n" kvg:type="㇟/㇑" transform="matrix(1,0,0,1,1096,-4)" xmlns:kvg="http://kanjivg.tagaini.net"></path><circle class="stroke_order_diagram--path_start" cx="71.89" cy="46.75" r="4" transform="matrix(1,0,0,1,1096,-4)"></circle></svg>