<svg class="stroke_order_diagram--svg_container_for_518662b8d5dda79658001427" style="height: 100px; width: 1700px;" viewbox="0 0 1700 100"><desc>Created with Snap</desc><defs></defs><line class="stroke_order_diagram--bounding_box" x1="1" x2="1699" y1="1" y2="1"></line><line class="stroke_order_diagram--bounding_box" x1="1" x2="1" y1="1" y2="99"></line><line class="stroke_order_diagram--bounding_box" x1="1" x2="1699" y1="99" y2="99"></line><line class="stroke_order_diagram--guide_line" x1="0" x2="1700" y1="50" y2="50"></line><line class="stroke_order_diagram--guide_line" x1="50" x2="50" y1="1" y2="99"></line><line class="stroke_order_diagram--bounding_box" x1="99" x2="99" y1="1" y2="99"></line><path class="stroke_order_diagram--current_path" d="M17.58,19.92c0.51,0.96,1.19,6.58,1.19,3.42c0-0.57,0.25,23.35-0.39,32.68c-0.73,10.68-3.05,25.08-8.8,35.29" id="kvg:081c9-s1" kvg:type="㇒" transform="matrix(1,0,0,1,-4,-4)" xmlns:kvg="http://kanjivg.tagaini.net"></path><path class="stroke_order_diagram--current_path" d="M17.58,19.92c0.51,0.96,1.19,6.58,1.19,3.42c0-0.57,0.25,23.35-0.39,32.68c-0.73,10.68-3.05,25.08-8.8,35.29" id="Ske2vi2yeq" kvg:type="㇒" transform="matrix(1,0,0,1,-4,-4)" xmlns:kvg="http://kanjivg.tagaini.net"></path><circle class="stroke_order_diagram--path_start" cx="17.58" cy="19.92" r="4" transform="matrix(1,0,0,1,-4,-4)"></circle><line class="stroke_order_diagram--guide_line" x1="150" x2="150" y1="1" y2="99"></line><line class="stroke_order_diagram--bounding_box" x1="199" x2="199" y1="1" y2="99"></line><path class="stroke_order_diagram--existing_path" d="M17.58,19.92c0.51,0.96,1.19,6.58,1.19,3.42c0-0.57,0.25,23.35-0.39,32.68c-0.73,10.68-3.05,25.08-8.8,35.29" id="Ske2vi2yet" kvg:type="㇒" transform="matrix(1,0,0,1,96,-4)" xmlns:kvg="http://kanjivg.tagaini.net"></path><path class="stroke_order_diagram--current_path" d="M19.32,20.82c1.76-0.06,10.15-1.77,11.46-1.89c2.34-0.22,2.93,1.27,2.93,2.59c0,3.13-0.44,45.36-0.44,63.15c0,12.24-4.85,5.88-6.35,4.41" id="kvg:081c9-s2" kvg:type="㇆a" transform="matrix(1,0,0,1,96,-4)" xmlns:kvg="http://kanjivg.tagaini.net"></path><path class="stroke_order_diagram--current_path" d="M19.32,20.82c1.76-0.06,10.15-1.77,11.46-1.89c2.34-0.22,2.93,1.27,2.93,2.59c0,3.13-0.44,45.36-0.44,63.15c0,12.24-4.85,5.88-6.35,4.41" id="Ske2vi2yev" kvg:type="㇆a" transform="matrix(1,0,0,1,96,-4)" xmlns:kvg="http://kanjivg.tagaini.net"></path><circle class="stroke_order_diagram--path_start" cx="19.32" cy="20.82" r="4" transform="matrix(1,0,0,1,96,-4)"></circle><line class="stroke_order_diagram--guide_line" x1="250" x2="250" y1="1" y2="99"></line><line class="stroke_order_diagram--bounding_box" x1="299" x2="299" y1="1" y2="99"></line><path class="stroke_order_diagram--existing_path" d="M17.58,19.92c0.51,0.96,1.19,6.58,1.19,3.42c0-0.57,0.25,23.35-0.39,32.68c-0.73,10.68-3.05,25.08-8.8,35.29" id="Ske2vi2yey" kvg:type="㇒" transform="matrix(1,0,0,1,196,-4)" xmlns:kvg="http://kanjivg.tagaini.net"></path><path class="stroke_order_diagram--existing_path" d="M19.32,20.82c1.76-0.06,10.15-1.77,11.46-1.89c2.34-0.22,2.93,1.27,2.93,2.59c0,3.13-0.44,45.36-0.44,63.15c0,12.24-4.85,5.88-6.35,4.41" id="Ske2vi2yez" kvg:type="㇆a" transform="matrix(1,0,0,1,196,-4)" xmlns:kvg="http://kanjivg.tagaini.net"></path><path class="stroke_order_diagram--current_path" d="M19.65,41.63c3.48-0.19,10.04-1.2,13.1-1.21" id="kvg:081c9-s3" kvg:type="㇐a" transform="matrix(1,0,0,1,196,-4)" xmlns:kvg="http://kanjivg.tagaini.net"></path><path class="stroke_order_diagram--current_path" d="M19.65,41.63c3.48-0.19,10.04-1.2,13.1-1.21" id="Ske2vi2ye11" kvg:type="㇐a" transform="matrix(1,0,0,1,196,-4)" xmlns:kvg="http://kanjivg.tagaini.net"></path><circle class="stroke_order_diagram--path_start" cx="19.65" cy="41.63" r="4" transform="matrix(1,0,0,1,196,-4)"></circle><line class="stroke_order_diagram--guide_line" x1="350" x2="350" y1="1" y2="99"></line><line class="stroke_order_diagram--bounding_box" x1="399" x2="399" y1="1" y2="99"></line><path class="stroke_order_diagram--existing_path" d="M17.58,19.92c0.51,0.96,1.19,6.58,1.19,3.42c0-0.57,0.25,23.35-0.39,32.68c-0.73,10.68-3.05,25.08-8.8,35.29" id="Ske2vi2ye14" kvg:type="㇒" transform="matrix(1,0,0,1,296,-4)" xmlns:kvg="http://kanjivg.tagaini.net"></path><path class="stroke_order_diagram--existing_path" d="M19.32,20.82c1.76-0.06,10.15-1.77,11.46-1.89c2.34-0.22,2.93,1.27,2.93,2.59c0,3.13-0.44,45.36-0.44,63.15c0,12.24-4.85,5.88-6.35,4.41" id="Ske2vi2ye15" kvg:type="㇆a" transform="matrix(1,0,0,1,296,-4)" xmlns:kvg="http://kanjivg.tagaini.net"></path><path class="stroke_order_diagram--existing_path" d="M19.65,41.63c3.48-0.19,10.04-1.2,13.1-1.21" id="Ske2vi2ye16" kvg:type="㇐a" transform="matrix(1,0,0,1,296,-4)" xmlns:kvg="http://kanjivg.tagaini.net"></path><path class="stroke_order_diagram--current_path" d="M18.25,61.42c3.15-0.07,9.55-0.81,13.83-1.17" id="kvg:081c9-s4" kvg:type="㇐a" transform="matrix(1,0,0,1,296,-4)" xmlns:kvg="http://kanjivg.tagaini.net"></path><path class="stroke_order_diagram--current_path" d="M18.25,61.42c3.15-0.07,9.55-0.81,13.83-1.17" id="Ske2vi2ye18" kvg:type="㇐a" transform="matrix(1,0,0,1,296,-4)" xmlns:kvg="http://kanjivg.tagaini.net"></path><circle class="stroke_order_diagram--path_start" cx="18.25" cy="61.42" r="4" transform="matrix(1,0,0,1,296,-4)"></circle><line class="stroke_order_diagram--guide_line" x1="450" x2="450" y1="1" y2="99"></line><line class="stroke_order_diagram--bounding_box" x1="499" x2="499" y1="1" y2="99"></line><path class="stroke_order_diagram--existing_path" d="M17.58,19.92c0.51,0.96,1.19,6.58,1.19,3.42c0-0.57,0.25,23.35-0.39,32.68c-0.73,10.68-3.05,25.08-8.8,35.29" id="Ske2vi2ye1b" kvg:type="㇒" transform="matrix(1,0,0,1,396,-4)" xmlns:kvg="http://kanjivg.tagaini.net"></path><path class="stroke_order_diagram--existing_path" d="M19.32,20.82c1.76-0.06,10.15-1.77,11.46-1.89c2.34-0.22,2.93,1.27,2.93,2.59c0,3.13-0.44,45.36-0.44,63.15c0,12.24-4.85,5.88-6.35,4.41" id="Ske2vi2ye1c" kvg:type="㇆a" transform="matrix(1,0,0,1,396,-4)" xmlns:kvg="http://kanjivg.tagaini.net"></path><path class="stroke_order_diagram--existing_path" d="M19.65,41.63c3.48-0.19,10.04-1.2,13.1-1.21" id="Ske2vi2ye1d" kvg:type="㇐a" transform="matrix(1,0,0,1,396,-4)" xmlns:kvg="http://kanjivg.tagaini.net"></path><path class="stroke_order_diagram--existing_path" d="M18.25,61.42c3.15-0.07,9.55-0.81,13.83-1.17" id="Ske2vi2ye1e" kvg:type="㇐a" transform="matrix(1,0,0,1,396,-4)" xmlns:kvg="http://kanjivg.tagaini.net"></path><path class="stroke_order_diagram--current_path" d="M65.23,13.67c0.07,0.73,0.3,1.97-0.13,2.95c-2.73,6.26-10.44,19.42-23.35,28.26" id="kvg:081c9-s5" kvg:type="㇒" transform="matrix(1,0,0,1,396,-4)" xmlns:kvg="http://kanjivg.tagaini.net"></path><path class="stroke_order_diagram--current_path" d="M65.23,13.67c0.07,0.73,0.3,1.97-0.13,2.95c-2.73,6.26-10.44,19.42-23.35,28.26" id="Ske2vi2ye1g" kvg:type="㇒" transform="matrix(1,0,0,1,396,-4)" xmlns:kvg="http://kanjivg.tagaini.net"></path><circle class="stroke_order_diagram--path_start" cx="65.23" cy="13.67" r="4" transform="matrix(1,0,0,1,396,-4)"></circle><line class="stroke_order_diagram--guide_line" x1="550" x2="550" y1="1" y2="99"></line><line class="stroke_order_diagram--bounding_box" x1="599" x2="599" y1="1" y2="99"></line><path class="stroke_order_diagram--existing_path" d="M17.58,19.92c0.51,0.96,1.19,6.58,1.19,3.42c0-0.57,0.25,23.35-0.39,32.68c-0.73,10.68-3.05,25.08-8.8,35.29" id="Ske2vi2ye1j" kvg:type="㇒" transform="matrix(1,0,0,1,496,-4)" xmlns:kvg="http://kanjivg.tagaini.net"></path><path class="stroke_order_diagram--existing_path" d="M19.32,20.82c1.76-0.06,10.15-1.77,11.46-1.89c2.34-0.22,2.93,1.27,2.93,2.59c0,3.13-0.44,45.36-0.44,63.15c0,12.24-4.85,5.88-6.35,4.41" id="Ske2vi2ye1k" kvg:type="㇆a" transform="matrix(1,0,0,1,496,-4)" xmlns:kvg="http://kanjivg.tagaini.net"></path><path class="stroke_order_diagram--existing_path" d="M19.65,41.63c3.48-0.19,10.04-1.2,13.1-1.21" id="Ske2vi2ye1l" kvg:type="㇐a" transform="matrix(1,0,0,1,496,-4)" xmlns:kvg="http://kanjivg.tagaini.net"></path><path class="stroke_order_diagram--existing_path" d="M18.25,61.42c3.15-0.07,9.55-0.81,13.83-1.17" id="Ske2vi2ye1m" kvg:type="㇐a" transform="matrix(1,0,0,1,496,-4)" xmlns:kvg="http://kanjivg.tagaini.net"></path><path class="stroke_order_diagram--existing_path" d="M65.23,13.67c0.07,0.73,0.3,1.97-0.13,2.95c-2.73,6.26-10.44,19.42-23.35,28.26" id="Ske2vi2ye1n" kvg:type="㇒" transform="matrix(1,0,0,1,496,-4)" xmlns:kvg="http://kanjivg.tagaini.net"></path><path class="stroke_order_diagram--current_path" d="M66.4,15.97c3.9,4.68,20.68,19.96,24.98,23.38c1.46,1.16,3.33,1.66,4.79,1.99" id="kvg:081c9-s6" kvg:type="㇏" transform="matrix(1,0,0,1,496,-4)" xmlns:kvg="http://kanjivg.tagaini.net"></path><path class="stroke_order_diagram--current_path" d="M66.4,15.97c3.9,4.68,20.68,19.96,24.98,23.38c1.46,1.16,3.33,1.66,4.79,1.99" id="Ske2vi2ye1p" kvg:type="㇏" transform="matrix(1,0,0,1,496,-4)" xmlns:kvg="http://kanjivg.tagaini.net"></path><circle class="stroke_order_diagram--path_start" cx="66.4" cy="15.97" r="4" transform="matrix(1,0,0,1,496,-4)"></circle><line class="stroke_order_diagram--guide_line" x1="650" x2="650" y1="1" y2="99"></line><line class="stroke_order_diagram--bounding_box" x1="699" x2="699" y1="1" y2="99"></line><path class="stroke_order_diagram--existing_path" d="M17.58,19.92c0.51,0.96,1.19,6.58,1.19,3.42c0-0.57,0.25,23.35-0.39,32.68c-0.73,10.68-3.05,25.08-8.8,35.29" id="Ske2vi2ye1s" kvg:type="㇒" transform="matrix(1,0,0,1,596,-4)" xmlns:kvg="http://kanjivg.tagaini.net"></path><path class="stroke_order_diagram--existing_path" d="M19.32,20.82c1.76-0.06,10.15-1.77,11.46-1.89c2.34-0.22,2.93,1.27,2.93,2.59c0,3.13-0.44,45.36-0.44,63.15c0,12.24-4.85,5.88-6.35,4.41" id="Ske2vi2ye1t" kvg:type="㇆a" transform="matrix(1,0,0,1,596,-4)" xmlns:kvg="http://kanjivg.tagaini.net"></path><path class="stroke_order_diagram--existing_path" d="M19.65,41.63c3.48-0.19,10.04-1.2,13.1-1.21" id="Ske2vi2ye1u" kvg:type="㇐a" transform="matrix(1,0,0,1,596,-4)" xmlns:kvg="http://kanjivg.tagaini.net"></path><path class="stroke_order_diagram--existing_path" d="M18.25,61.42c3.15-0.07,9.55-0.81,13.83-1.17" id="Ske2vi2ye1v" kvg:type="㇐a" transform="matrix(1,0,0,1,596,-4)" xmlns:kvg="http://kanjivg.tagaini.net"></path><path class="stroke_order_diagram--existing_path" d="M65.23,13.67c0.07,0.73,0.3,1.97-0.13,2.95c-2.73,6.26-10.44,19.42-23.35,28.26" id="Ske2vi2ye1w" kvg:type="㇒" transform="matrix(1,0,0,1,596,-4)" xmlns:kvg="http://kanjivg.tagaini.net"></path><path class="stroke_order_diagram--existing_path" d="M66.4,15.97c3.9,4.68,20.68,19.96,24.98,23.38c1.46,1.16,3.33,1.66,4.79,1.99" id="Ske2vi2ye1x" kvg:type="㇏" transform="matrix(1,0,0,1,596,-4)" xmlns:kvg="http://kanjivg.tagaini.net"></path><path class="stroke_order_diagram--current_path" d="M54.25,41.25c0.46,0.17,3.2,0.51,3.67,0.5c3.53-0.05,16.49-2.53,19.33-2.33c0.76,0.05,3.12,0.25,3.5,0.33" id="kvg:081c9-s7" kvg:type="㇐" transform="matrix(1,0,0,1,596,-4)" xmlns:kvg="http://kanjivg.tagaini.net"></path><path class="stroke_order_diagram--current_path" d="M54.25,41.25c0.46,0.17,3.2,0.51,3.67,0.5c3.53-0.05,16.49-2.53,19.33-2.33c0.76,0.05,3.12,0.25,3.5,0.33" id="Ske2vi2ye1z" kvg:type="㇐" transform="matrix(1,0,0,1,596,-4)" xmlns:kvg="http://kanjivg.tagaini.net"></path><circle class="stroke_order_diagram--path_start" cx="54.25" cy="41.25" r="4" transform="matrix(1,0,0,1,596,-4)"></circle><line class="stroke_order_diagram--guide_line" x1="750" x2="750" y1="1" y2="99"></line><line class="stroke_order_diagram--bounding_box" x1="799" x2="799" y1="1" y2="99"></line><path class="stroke_order_diagram--existing_path" d="M17.58,19.92c0.51,0.96,1.19,6.58,1.19,3.42c0-0.57,0.25,23.35-0.39,32.68c-0.73,10.68-3.05,25.08-8.8,35.29" id="Ske2vi2ye22" kvg:type="㇒" transform="matrix(1,0,0,1,696,-4)" xmlns:kvg="http://kanjivg.tagaini.net"></path><path class="stroke_order_diagram--existing_path" d="M19.32,20.82c1.76-0.06,10.15-1.77,11.46-1.89c2.34-0.22,2.93,1.27,2.93,2.59c0,3.13-0.44,45.36-0.44,63.15c0,12.24-4.85,5.88-6.35,4.41" id="Ske2vi2ye23" kvg:type="㇆a" transform="matrix(1,0,0,1,696,-4)" xmlns:kvg="http://kanjivg.tagaini.net"></path><path class="stroke_order_diagram--existing_path" d="M19.65,41.63c3.48-0.19,10.04-1.2,13.1-1.21" id="Ske2vi2ye24" kvg:type="㇐a" transform="matrix(1,0,0,1,696,-4)" xmlns:kvg="http://kanjivg.tagaini.net"></path><path class="stroke_order_diagram--existing_path" d="M18.25,61.42c3.15-0.07,9.55-0.81,13.83-1.17" id="Ske2vi2ye25" kvg:type="㇐a" transform="matrix(1,0,0,1,696,-4)" xmlns:kvg="http://kanjivg.tagaini.net"></path><path class="stroke_order_diagram--existing_path" d="M65.23,13.67c0.07,0.73,0.3,1.97-0.13,2.95c-2.73,6.26-10.44,19.42-23.35,28.26" id="Ske2vi2ye26" kvg:type="㇒" transform="matrix(1,0,0,1,696,-4)" xmlns:kvg="http://kanjivg.tagaini.net"></path><path class="stroke_order_diagram--existing_path" d="M66.4,15.97c3.9,4.68,20.68,19.96,24.98,23.38c1.46,1.16,3.33,1.66,4.79,1.99" id="Ske2vi2ye27" kvg:type="㇏" transform="matrix(1,0,0,1,696,-4)" xmlns:kvg="http://kanjivg.tagaini.net"></path><path class="stroke_order_diagram--existing_path" d="M54.25,41.25c0.46,0.17,3.2,0.51,3.67,0.5c3.53-0.05,16.49-2.53,19.33-2.33c0.76,0.05,3.12,0.25,3.5,0.33" id="Ske2vi2ye28" kvg:type="㇐" transform="matrix(1,0,0,1,696,-4)" xmlns:kvg="http://kanjivg.tagaini.net"></path><path class="stroke_order_diagram--current_path" d="M45.25,51.25c0.2,0.26,1.1,0.85,1.19,1.17c0.71,2.54,1.5,9.77,1.98,14.33" id="kvg:081c9-s8" kvg:type="㇑" transform="matrix(1,0,0,1,696,-4)" xmlns:kvg="http://kanjivg.tagaini.net"></path><path class="stroke_order_diagram--current_path" d="M45.25,51.25c0.2,0.26,1.1,0.85,1.19,1.17c0.71,2.54,1.5,9.77,1.98,14.33" id="Ske2vi2ye2a" kvg:type="㇑" transform="matrix(1,0,0,1,696,-4)" xmlns:kvg="http://kanjivg.tagaini.net"></path><circle class="stroke_order_diagram--path_start" cx="45.25" cy="51.25" r="4" transform="matrix(1,0,0,1,696,-4)"></circle><line class="stroke_order_diagram--guide_line" x1="850" x2="850" y1="1" y2="99"></line><line class="stroke_order_diagram--bounding_box" x1="899" x2="899" y1="1" y2="99"></line><path class="stroke_order_diagram--existing_path" d="M17.58,19.92c0.51,0.96,1.19,6.58,1.19,3.42c0-0.57,0.25,23.35-0.39,32.68c-0.73,10.68-3.05,25.08-8.8,35.29" id="Ske2vi2ye2d" kvg:type="㇒" transform="matrix(1,0,0,1,796,-4)" xmlns:kvg="http://kanjivg.tagaini.net"></path><path class="stroke_order_diagram--existing_path" d="M19.32,20.82c1.76-0.06,10.15-1.77,11.46-1.89c2.34-0.22,2.93,1.27,2.93,2.59c0,3.13-0.44,45.36-0.44,63.15c0,12.24-4.85,5.88-6.35,4.41" id="Ske2vi2ye2e" kvg:type="㇆a" transform="matrix(1,0,0,1,796,-4)" xmlns:kvg="http://kanjivg.tagaini.net"></path><path class="stroke_order_diagram--existing_path" d="M19.65,41.63c3.48-0.19,10.04-1.2,13.1-1.21" id="Ske2vi2ye2f" kvg:type="㇐a" transform="matrix(1,0,0,1,796,-4)" xmlns:kvg="http://kanjivg.tagaini.net"></path><path class="stroke_order_diagram--existing_path" d="M18.25,61.42c3.15-0.07,9.55-0.81,13.83-1.17" id="Ske2vi2ye2g" kvg:type="㇐a" transform="matrix(1,0,0,1,796,-4)" xmlns:kvg="http://kanjivg.tagaini.net"></path><path class="stroke_order_diagram--existing_path" d="M65.23,13.67c0.07,0.73,0.3,1.97-0.13,2.95c-2.73,6.26-10.44,19.42-23.35,28.26" id="Ske2vi2ye2h" kvg:type="㇒" transform="matrix(1,0,0,1,796,-4)" xmlns:kvg="http://kanjivg.tagaini.net"></path><path class="stroke_order_diagram--existing_path" d="M66.4,15.97c3.9,4.68,20.68,19.96,24.98,23.38c1.46,1.16,3.33,1.66,4.79,1.99" id="Ske2vi2ye2i" kvg:type="㇏" transform="matrix(1,0,0,1,796,-4)" xmlns:kvg="http://kanjivg.tagaini.net"></path><path class="stroke_order_diagram--existing_path" d="M54.25,41.25c0.46,0.17,3.2,0.51,3.67,0.5c3.53-0.05,16.49-2.53,19.33-2.33c0.76,0.05,3.12,0.25,3.5,0.33" id="Ske2vi2ye2j" kvg:type="㇐" transform="matrix(1,0,0,1,796,-4)" xmlns:kvg="http://kanjivg.tagaini.net"></path><path class="stroke_order_diagram--existing_path" d="M45.25,51.25c0.2,0.26,1.1,0.85,1.19,1.17c0.71,2.54,1.5,9.77,1.98,14.33" id="Ske2vi2ye2k" kvg:type="㇑" transform="matrix(1,0,0,1,796,-4)" xmlns:kvg="http://kanjivg.tagaini.net"></path><path class="stroke_order_diagram--current_path" d="M47.75,52.53c6.75-1.19,11.87-1.42,14.99-1.77c1.14-0.13,1.82,0.75,1.66,1.48c-0.68,3.06-1.47,7.53-2.47,11.76" id="kvg:081c9-s9" kvg:type="㇕b" transform="matrix(1,0,0,1,796,-4)" xmlns:kvg="http://kanjivg.tagaini.net"></path><path class="stroke_order_diagram--current_path" d="M47.75,52.53c6.75-1.19,11.87-1.42,14.99-1.77c1.14-0.13,1.82,0.75,1.66,1.48c-0.68,3.06-1.47,7.53-2.47,11.76" id="Ske2vi2ye2m" kvg:type="㇕b" transform="matrix(1,0,0,1,796,-4)" xmlns:kvg="http://kanjivg.tagaini.net"></path><circle class="stroke_order_diagram--path_start" cx="47.75" cy="52.53" r="4" transform="matrix(1,0,0,1,796,-4)"></circle><line class="stroke_order_diagram--guide_line" x1="950" x2="950" y1="1" y2="99"></line><line class="stroke_order_diagram--bounding_box" x1="999" x2="999" y1="1" y2="99"></line><path class="stroke_order_diagram--existing_path" d="M17.58,19.92c0.51,0.96,1.19,6.58,1.19,3.42c0-0.57,0.25,23.35-0.39,32.68c-0.73,10.68-3.05,25.08-8.8,35.29" id="Ske2vi2ye2p" kvg:type="㇒" transform="matrix(1,0,0,1,896,-4)" xmlns:kvg="http://kanjivg.tagaini.net"></path><path class="stroke_order_diagram--existing_path" d="M19.32,20.82c1.76-0.06,10.15-1.77,11.46-1.89c2.34-0.22,2.93,1.27,2.93,2.59c0,3.13-0.44,45.36-0.44,63.15c0,12.24-4.85,5.88-6.35,4.41" id="Ske2vi2ye2q" kvg:type="㇆a" transform="matrix(1,0,0,1,896,-4)" xmlns:kvg="http://kanjivg.tagaini.net"></path><path class="stroke_order_diagram--existing_path" d="M19.65,41.63c3.48-0.19,10.04-1.2,13.1-1.21" id="Ske2vi2ye2r" kvg:type="㇐a" transform="matrix(1,0,0,1,896,-4)" xmlns:kvg="http://kanjivg.tagaini.net"></path><path class="stroke_order_diagram--existing_path" d="M18.25,61.42c3.15-0.07,9.55-0.81,13.83-1.17" id="Ske2vi2ye2s" kvg:type="㇐a" transform="matrix(1,0,0,1,896,-4)" xmlns:kvg="http://kanjivg.tagaini.net"></path><path class="stroke_order_diagram--existing_path" d="M65.23,13.67c0.07,0.73,0.3,1.97-0.13,2.95c-2.73,6.26-10.44,19.42-23.35,28.26" id="Ske2vi2ye2t" kvg:type="㇒" transform="matrix(1,0,0,1,896,-4)" xmlns:kvg="http://kanjivg.tagaini.net"></path><path class="stroke_order_diagram--existing_path" d="M66.4,15.97c3.9,4.68,20.68,19.96,24.98,23.38c1.46,1.16,3.33,1.66,4.79,1.99" id="Ske2vi2ye2u" kvg:type="㇏" transform="matrix(1,0,0,1,896,-4)" xmlns:kvg="http://kanjivg.tagaini.net"></path><path class="stroke_order_diagram--existing_path" d="M54.25,41.25c0.46,0.17,3.2,0.51,3.67,0.5c3.53-0.05,16.49-2.53,19.33-2.33c0.76,0.05,3.12,0.25,3.5,0.33" id="Ske2vi2ye2v" kvg:type="㇐" transform="matrix(1,0,0,1,896,-4)" xmlns:kvg="http://kanjivg.tagaini.net"></path><path class="stroke_order_diagram--existing_path" d="M45.25,51.25c0.2,0.26,1.1,0.85,1.19,1.17c0.71,2.54,1.5,9.77,1.98,14.33" id="Ske2vi2ye2w" kvg:type="㇑" transform="matrix(1,0,0,1,896,-4)" xmlns:kvg="http://kanjivg.tagaini.net"></path><path class="stroke_order_diagram--existing_path" d="M47.75,52.53c6.75-1.19,11.87-1.42,14.99-1.77c1.14-0.13,1.82,0.75,1.66,1.48c-0.68,3.06-1.47,7.53-2.47,11.76" id="Ske2vi2ye2x" kvg:type="㇕b" transform="matrix(1,0,0,1,896,-4)" xmlns:kvg="http://kanjivg.tagaini.net"></path><path class="stroke_order_diagram--current_path" d="M48.58,66c3.92-0.46,9.77-1.26,15.16-1.98" id="kvg:081c9-s10" kvg:type="㇐b" transform="matrix(1,0,0,1,896,-4)" xmlns:kvg="http://kanjivg.tagaini.net"></path><path class="stroke_order_diagram--current_path" d="M48.58,66c3.92-0.46,9.77-1.26,15.16-1.98" id="Ske2vi2ye2z" kvg:type="㇐b" transform="matrix(1,0,0,1,896,-4)" xmlns:kvg="http://kanjivg.tagaini.net"></path><circle class="stroke_order_diagram--path_start" cx="48.58" cy="66" r="4" transform="matrix(1,0,0,1,896,-4)"></circle><line class="stroke_order_diagram--guide_line" x1="1050" x2="1050" y1="1" y2="99"></line><line class="stroke_order_diagram--bounding_box" x1="1099" x2="1099" y1="1" y2="99"></line><path class="stroke_order_diagram--existing_path" d="M17.58,19.92c0.51,0.96,1.19,6.58,1.19,3.42c0-0.57,0.25,23.35-0.39,32.68c-0.73,10.68-3.05,25.08-8.8,35.29" id="Ske2vi2ye32" kvg:type="㇒" transform="matrix(1,0,0,1,996,-4)" xmlns:kvg="http://kanjivg.tagaini.net"></path><path class="stroke_order_diagram--existing_path" d="M19.32,20.82c1.76-0.06,10.15-1.77,11.46-1.89c2.34-0.22,2.93,1.27,2.93,2.59c0,3.13-0.44,45.36-0.44,63.15c0,12.24-4.85,5.88-6.35,4.41" id="Ske2vi2ye33" kvg:type="㇆a" transform="matrix(1,0,0,1,996,-4)" xmlns:kvg="http://kanjivg.tagaini.net"></path><path class="stroke_order_diagram--existing_path" d="M19.65,41.63c3.48-0.19,10.04-1.2,13.1-1.21" id="Ske2vi2ye34" kvg:type="㇐a" transform="matrix(1,0,0,1,996,-4)" xmlns:kvg="http://kanjivg.tagaini.net"></path><path class="stroke_order_diagram--existing_path" d="M18.25,61.42c3.15-0.07,9.55-0.81,13.83-1.17" id="Ske2vi2ye35" kvg:type="㇐a" transform="matrix(1,0,0,1,996,-4)" xmlns:kvg="http://kanjivg.tagaini.net"></path><path class="stroke_order_diagram--existing_path" d="M65.23,13.67c0.07,0.73,0.3,1.97-0.13,2.95c-2.73,6.26-10.44,19.42-23.35,28.26" id="Ske2vi2ye36" kvg:type="㇒" transform="matrix(1,0,0,1,996,-4)" xmlns:kvg="http://kanjivg.tagaini.net"></path><path class="stroke_order_diagram--existing_path" d="M66.4,15.97c3.9,4.68,20.68,19.96,24.98,23.38c1.46,1.16,3.33,1.66,4.79,1.99" id="Ske2vi2ye37" kvg:type="㇏" transform="matrix(1,0,0,1,996,-4)" xmlns:kvg="http://kanjivg.tagaini.net"></path><path class="stroke_order_diagram--existing_path" d="M54.25,41.25c0.46,0.17,3.2,0.51,3.67,0.5c3.53-0.05,16.49-2.53,19.33-2.33c0.76,0.05,3.12,0.25,3.5,0.33" id="Ske2vi2ye38" kvg:type="㇐" transform="matrix(1,0,0,1,996,-4)" xmlns:kvg="http://kanjivg.tagaini.net"></path><path class="stroke_order_diagram--existing_path" d="M45.25,51.25c0.2,0.26,1.1,0.85,1.19,1.17c0.71,2.54,1.5,9.77,1.98,14.33" id="Ske2vi2ye39" kvg:type="㇑" transform="matrix(1,0,0,1,996,-4)" xmlns:kvg="http://kanjivg.tagaini.net"></path><path class="stroke_order_diagram--existing_path" d="M47.75,52.53c6.75-1.19,11.87-1.42,14.99-1.77c1.14-0.13,1.82,0.75,1.66,1.48c-0.68,3.06-1.47,7.53-2.47,11.76" id="Ske2vi2ye3a" kvg:type="㇕b" transform="matrix(1,0,0,1,996,-4)" xmlns:kvg="http://kanjivg.tagaini.net"></path><path class="stroke_order_diagram--existing_path" d="M48.58,66c3.92-0.46,9.77-1.26,15.16-1.98" id="Ske2vi2ye3b" kvg:type="㇐b" transform="matrix(1,0,0,1,996,-4)" xmlns:kvg="http://kanjivg.tagaini.net"></path><path class="stroke_order_diagram--current_path" d="M70.08,49.58c0.2,0.26,1.24,0.67,1.33,1c0.7,2.58,1.54,9.69,2.02,14.32" id="kvg:081c9-s11" kvg:type="㇑" transform="matrix(1,0,0,1,996,-4)" xmlns:kvg="http://kanjivg.tagaini.net"></path><path class="stroke_order_diagram--current_path" d="M70.08,49.58c0.2,0.26,1.24,0.67,1.33,1c0.7,2.58,1.54,9.69,2.02,14.32" id="Ske2vi2ye3d" kvg:type="㇑" transform="matrix(1,0,0,1,996,-4)" xmlns:kvg="http://kanjivg.tagaini.net"></path><circle class="stroke_order_diagram--path_start" cx="70.08" cy="49.58" r="4" transform="matrix(1,0,0,1,996,-4)"></circle><line class="stroke_order_diagram--guide_line" x1="1150" x2="1150" y1="1" y2="99"></line><line class="stroke_order_diagram--bounding_box" x1="1199" x2="1199" y1="1" y2="99"></line><path class="stroke_order_diagram--existing_path" d="M17.58,19.92c0.51,0.96,1.19,6.58,1.19,3.42c0-0.57,0.25,23.35-0.39,32.68c-0.73,10.68-3.05,25.08-8.8,35.29" id="Ske2vi2ye3g" kvg:type="㇒" transform="matrix(1,0,0,1,1096,-4)" xmlns:kvg="http://kanjivg.tagaini.net"></path><path class="stroke_order_diagram--existing_path" d="M19.32,20.82c1.76-0.06,10.15-1.77,11.46-1.89c2.34-0.22,2.93,1.27,2.93,2.59c0,3.13-0.44,45.36-0.44,63.15c0,12.24-4.85,5.88-6.35,4.41" id="Ske2vi2ye3h" kvg:type="㇆a" transform="matrix(1,0,0,1,1096,-4)" xmlns:kvg="http://kanjivg.tagaini.net"></path><path class="stroke_order_diagram--existing_path" d="M19.65,41.63c3.48-0.19,10.04-1.2,13.1-1.21" id="Ske2vi2ye3i" kvg:type="㇐a" transform="matrix(1,0,0,1,1096,-4)" xmlns:kvg="http://kanjivg.tagaini.net"></path><path class="stroke_order_diagram--existing_path" d="M18.25,61.42c3.15-0.07,9.55-0.81,13.83-1.17" id="Ske2vi2ye3j" kvg:type="㇐a" transform="matrix(1,0,0,1,1096,-4)" xmlns:kvg="http://kanjivg.tagaini.net"></path><path class="stroke_order_diagram--existing_path" d="M65.23,13.67c0.07,0.73,0.3,1.97-0.13,2.95c-2.73,6.26-10.44,19.42-23.35,28.26" id="Ske2vi2ye3k" kvg:type="㇒" transform="matrix(1,0,0,1,1096,-4)" xmlns:kvg="http://kanjivg.tagaini.net"></path><path class="stroke_order_diagram--existing_path" d="M66.4,15.97c3.9,4.68,20.68,19.96,24.98,23.38c1.46,1.16,3.33,1.66,4.79,1.99" id="Ske2vi2ye3l" kvg:type="㇏" transform="matrix(1,0,0,1,1096,-4)" xmlns:kvg="http://kanjivg.tagaini.net"></path><path class="stroke_order_diagram--existing_path" d="M54.25,41.25c0.46,0.17,3.2,0.51,3.67,0.5c3.53-0.05,16.49-2.53,19.33-2.33c0.76,0.05,3.12,0.25,3.5,0.33" id="Ske2vi2ye3m" kvg:type="㇐" transform="matrix(1,0,0,1,1096,-4)" xmlns:kvg="http://kanjivg.tagaini.net"></path><path class="stroke_order_diagram--existing_path" d="M45.25,51.25c0.2,0.26,1.1,0.85,1.19,1.17c0.71,2.54,1.5,9.77,1.98,14.33" id="Ske2vi2ye3n" kvg:type="㇑" transform="matrix(1,0,0,1,1096,-4)" xmlns:kvg="http://kanjivg.tagaini.net"></path><path class="stroke_order_diagram--existing_path" d="M47.75,52.53c6.75-1.19,11.87-1.42,14.99-1.77c1.14-0.13,1.82,0.75,1.66,1.48c-0.68,3.06-1.47,7.53-2.47,11.76" id="Ske2vi2ye3o" kvg:type="㇕b" transform="matrix(1,0,0,1,1096,-4)" xmlns:kvg="http://kanjivg.tagaini.net"></path><path class="stroke_order_diagram--existing_path" d="M48.58,66c3.92-0.46,9.77-1.26,15.16-1.98" id="Ske2vi2ye3p" kvg:type="㇐b" transform="matrix(1,0,0,1,1096,-4)" xmlns:kvg="http://kanjivg.tagaini.net"></path><path class="stroke_order_diagram--existing_path" d="M70.08,49.58c0.2,0.26,1.24,0.67,1.33,1c0.7,2.58,1.54,9.69,2.02,14.32" id="Ske2vi2ye3q" kvg:type="㇑" transform="matrix(1,0,0,1,1096,-4)" xmlns:kvg="http://kanjivg.tagaini.net"></path><path class="stroke_order_diagram--current_path" d="M72.43,51.44c5.78-0.93,12.56-1.48,15.8-1.8c1.18-0.12,1.9,0.69,1.73,1.38c-0.7,2.84-0.83,6.13-1.87,10.06" id="kvg:081c9-s12" kvg:type="㇕b" transform="matrix(1,0,0,1,1096,-4)" xmlns:kvg="http://kanjivg.tagaini.net"></path><path class="stroke_order_diagram--current_path" d="M72.43,51.44c5.78-0.93,12.56-1.48,15.8-1.8c1.18-0.12,1.9,0.69,1.73,1.38c-0.7,2.84-0.83,6.13-1.87,10.06" id="Ske2vi2ye3s" kvg:type="㇕b" transform="matrix(1,0,0,1,1096,-4)" xmlns:kvg="http://kanjivg.tagaini.net"></path><circle class="stroke_order_diagram--path_start" cx="72.43" cy="51.44" r="4" transform="matrix(1,0,0,1,1096,-4)"></circle><line class="stroke_order_diagram--guide_line" x1="1250" x2="1250" y1="1" y2="99"></line><line class="stroke_order_diagram--bounding_box" x1="1299" x2="1299" y1="1" y2="99"></line><path class="stroke_order_diagram--existing_path" d="M17.58,19.92c0.51,0.96,1.19,6.58,1.19,3.42c0-0.57,0.25,23.35-0.39,32.68c-0.73,10.68-3.05,25.08-8.8,35.29" id="Ske2vi2ye3v" kvg:type="㇒" transform="matrix(1,0,0,1,1196,-4)" xmlns:kvg="http://kanjivg.tagaini.net"></path><path class="stroke_order_diagram--existing_path" d="M19.32,20.82c1.76-0.06,10.15-1.77,11.46-1.89c2.34-0.22,2.93,1.27,2.93,2.59c0,3.13-0.44,45.36-0.44,63.15c0,12.24-4.85,5.88-6.35,4.41" id="Ske2vi2ye3w" kvg:type="㇆a" transform="matrix(1,0,0,1,1196,-4)" xmlns:kvg="http://kanjivg.tagaini.net"></path><path class="stroke_order_diagram--existing_path" d="M19.65,41.63c3.48-0.19,10.04-1.2,13.1-1.21" id="Ske2vi2ye3x" kvg:type="㇐a" transform="matrix(1,0,0,1,1196,-4)" xmlns:kvg="http://kanjivg.tagaini.net"></path><path class="stroke_order_diagram--existing_path" d="M18.25,61.42c3.15-0.07,9.55-0.81,13.83-1.17" id="Ske2vi2ye3y" kvg:type="㇐a" transform="matrix(1,0,0,1,1196,-4)" xmlns:kvg="http://kanjivg.tagaini.net"></path><path class="stroke_order_diagram--existing_path" d="M65.23,13.67c0.07,0.73,0.3,1.97-0.13,2.95c-2.73,6.26-10.44,19.42-23.35,28.26" id="Ske2vi2ye3z" kvg:type="㇒" transform="matrix(1,0,0,1,1196,-4)" xmlns:kvg="http://kanjivg.tagaini.net"></path><path class="stroke_order_diagram--existing_path" d="M66.4,15.97c3.9,4.68,20.68,19.96,24.98,23.38c1.46,1.16,3.33,1.66,4.79,1.99" id="Ske2vi2ye40" kvg:type="㇏" transform="matrix(1,0,0,1,1196,-4)" xmlns:kvg="http://kanjivg.tagaini.net"></path><path class="stroke_order_diagram--existing_path" d="M54.25,41.25c0.46,0.17,3.2,0.51,3.67,0.5c3.53-0.05,16.49-2.53,19.33-2.33c0.76,0.05,3.12,0.25,3.5,0.33" id="Ske2vi2ye41" kvg:type="㇐" transform="matrix(1,0,0,1,1196,-4)" xmlns:kvg="http://kanjivg.tagaini.net"></path><path class="stroke_order_diagram--existing_path" d="M45.25,51.25c0.2,0.26,1.1,0.85,1.19,1.17c0.71,2.54,1.5,9.77,1.98,14.33" id="Ske2vi2ye42" kvg:type="㇑" transform="matrix(1,0,0,1,1196,-4)" xmlns:kvg="http://kanjivg.tagaini.net"></path><path class="stroke_order_diagram--existing_path" d="M47.75,52.53c6.75-1.19,11.87-1.42,14.99-1.77c1.14-0.13,1.82,0.75,1.66,1.48c-0.68,3.06-1.47,7.53-2.47,11.76" id="Ske2vi2ye43" kvg:type="㇕b" transform="matrix(1,0,0,1,1196,-4)" xmlns:kvg="http://kanjivg.tagaini.net"></path><path class="stroke_order_diagram--existing_path" d="M48.58,66c3.92-0.46,9.77-1.26,15.16-1.98" id="Ske2vi2ye44" kvg:type="㇐b" transform="matrix(1,0,0,1,1196,-4)" xmlns:kvg="http://kanjivg.tagaini.net"></path><path class="stroke_order_diagram--existing_path" d="M70.08,49.58c0.2,0.26,1.24,0.67,1.33,1c0.7,2.58,1.54,9.69,2.02,14.32" id="Ske2vi2ye45" kvg:type="㇑" transform="matrix(1,0,0,1,1196,-4)" xmlns:kvg="http://kanjivg.tagaini.net"></path><path class="stroke_order_diagram--existing_path" d="M72.43,51.44c5.78-0.93,12.56-1.48,15.8-1.8c1.18-0.12,1.9,0.69,1.73,1.38c-0.7,2.84-0.83,6.13-1.87,10.06" id="Ske2vi2ye46" kvg:type="㇕b" transform="matrix(1,0,0,1,1196,-4)" xmlns:kvg="http://kanjivg.tagaini.net"></path><path class="stroke_order_diagram--current_path" d="M74.39,63.4c4.14-0.3,9.86-0.82,15.55-1.28" id="kvg:081c9-s13" kvg:type="㇐b" transform="matrix(1,0,0,1,1196,-4)" xmlns:kvg="http://kanjivg.tagaini.net"></path><path class="stroke_order_diagram--current_path" d="M74.39,63.4c4.14-0.3,9.86-0.82,15.55-1.28" id="Ske2vi2ye48" kvg:type="㇐b" transform="matrix(1,0,0,1,1196,-4)" xmlns:kvg="http://kanjivg.tagaini.net"></path><circle class="stroke_order_diagram--path_start" cx="74.39" cy="63.4" r="4" transform="matrix(1,0,0,1,1196,-4)"></circle><line class="stroke_order_diagram--guide_line" x1="1350" x2="1350" y1="1" y2="99"></line><line class="stroke_order_diagram--bounding_box" x1="1399" x2="1399" y1="1" y2="99"></line><path class="stroke_order_diagram--existing_path" d="M17.58,19.92c0.51,0.96,1.19,6.58,1.19,3.42c0-0.57,0.25,23.35-0.39,32.68c-0.73,10.68-3.05,25.08-8.8,35.29" id="Ske2vi2ye4b" kvg:type="㇒" transform="matrix(1,0,0,1,1296,-4)" xmlns:kvg="http://kanjivg.tagaini.net"></path><path class="stroke_order_diagram--existing_path" d="M19.32,20.82c1.76-0.06,10.15-1.77,11.46-1.89c2.34-0.22,2.93,1.27,2.93,2.59c0,3.13-0.44,45.36-0.44,63.15c0,12.24-4.85,5.88-6.35,4.41" id="Ske2vi2ye4c" kvg:type="㇆a" transform="matrix(1,0,0,1,1296,-4)" xmlns:kvg="http://kanjivg.tagaini.net"></path><path class="stroke_order_diagram--existing_path" d="M19.65,41.63c3.48-0.19,10.04-1.2,13.1-1.21" id="Ske2vi2ye4d" kvg:type="㇐a" transform="matrix(1,0,0,1,1296,-4)" xmlns:kvg="http://kanjivg.tagaini.net"></path><path class="stroke_order_diagram--existing_path" d="M18.25,61.42c3.15-0.07,9.55-0.81,13.83-1.17" id="Ske2vi2ye4e" kvg:type="㇐a" transform="matrix(1,0,0,1,1296,-4)" xmlns:kvg="http://kanjivg.tagaini.net"></path><path class="stroke_order_diagram--existing_path" d="M65.23,13.67c0.07,0.73,0.3,1.97-0.13,2.95c-2.73,6.26-10.44,19.42-23.35,28.26" id="Ske2vi2ye4f" kvg:type="㇒" transform="matrix(1,0,0,1,1296,-4)" xmlns:kvg="http://kanjivg.tagaini.net"></path><path class="stroke_order_diagram--existing_path" d="M66.4,15.97c3.9,4.68,20.68,19.96,24.98,23.38c1.46,1.16,3.33,1.66,4.79,1.99" id="Ske2vi2ye4g" kvg:type="㇏" transform="matrix(1,0,0,1,1296,-4)" xmlns:kvg="http://kanjivg.tagaini.net"></path><path class="stroke_order_diagram--existing_path" d="M54.25,41.25c0.46,0.17,3.2,0.51,3.67,0.5c3.53-0.05,16.49-2.53,19.33-2.33c0.76,0.05,3.12,0.25,3.5,0.33" id="Ske2vi2ye4h" kvg:type="㇐" transform="matrix(1,0,0,1,1296,-4)" xmlns:kvg="http://kanjivg.tagaini.net"></path><path class="stroke_order_diagram--existing_path" d="M45.25,51.25c0.2,0.26,1.1,0.85,1.19,1.17c0.71,2.54,1.5,9.77,1.98,14.33" id="Ske2vi2ye4i" kvg:type="㇑" transform="matrix(1,0,0,1,1296,-4)" xmlns:kvg="http://kanjivg.tagaini.net"></path><path class="stroke_order_diagram--existing_path" d="M47.75,52.53c6.75-1.19,11.87-1.42,14.99-1.77c1.14-0.13,1.82,0.75,1.66,1.48c-0.68,3.06-1.47,7.53-2.47,11.76" id="Ske2vi2ye4j" kvg:type="㇕b" transform="matrix(1,0,0,1,1296,-4)" xmlns:kvg="http://kanjivg.tagaini.net"></path><path class="stroke_order_diagram--existing_path" d="M48.58,66c3.92-0.46,9.77-1.26,15.16-1.98" id="Ske2vi2ye4k" kvg:type="㇐b" transform="matrix(1,0,0,1,1296,-4)" xmlns:kvg="http://kanjivg.tagaini.net"></path><path class="stroke_order_diagram--existing_path" d="M70.08,49.58c0.2,0.26,1.24,0.67,1.33,1c0.7,2.58,1.54,9.69,2.02,14.32" id="Ske2vi2ye4l" kvg:type="㇑" transform="matrix(1,0,0,1,1296,-4)" xmlns:kvg="http://kanjivg.tagaini.net"></path><path class="stroke_order_diagram--existing_path" d="M72.43,51.44c5.78-0.93,12.56-1.48,15.8-1.8c1.18-0.12,1.9,0.69,1.73,1.38c-0.7,2.84-0.83,6.13-1.87,10.06" id="Ske2vi2ye4m" kvg:type="㇕b" transform="matrix(1,0,0,1,1296,-4)" xmlns:kvg="http://kanjivg.tagaini.net"></path><path class="stroke_order_diagram--existing_path" d="M74.39,63.4c4.14-0.3,9.86-0.82,15.55-1.28" id="Ske2vi2ye4n" kvg:type="㇐b" transform="matrix(1,0,0,1,1296,-4)" xmlns:kvg="http://kanjivg.tagaini.net"></path><path class="stroke_order_diagram--current_path" d="M57.07,69.55c0.17,1.09,0.11,2.13-0.12,2.84c-2.01,6.17-6.62,14.34-14.88,21.78" id="kvg:081c9-s14" kvg:type="㇒" transform="matrix(1,0,0,1,1296,-4)" xmlns:kvg="http://kanjivg.tagaini.net"></path><path class="stroke_order_diagram--current_path" d="M57.07,69.55c0.17,1.09,0.11,2.13-0.12,2.84c-2.01,6.17-6.62,14.34-14.88,21.78" id="Ske2vi2ye4p" kvg:type="㇒" transform="matrix(1,0,0,1,1296,-4)" xmlns:kvg="http://kanjivg.tagaini.net"></path><circle class="stroke_order_diagram--path_start" cx="57.07" cy="69.55" r="4" transform="matrix(1,0,0,1,1296,-4)"></circle><line class="stroke_order_diagram--guide_line" x1="1450" x2="1450" y1="1" y2="99"></line><line class="stroke_order_diagram--bounding_box" x1="1499" x2="1499" y1="1" y2="99"></line><path class="stroke_order_diagram--existing_path" d="M17.58,19.92c0.51,0.96,1.19,6.58,1.19,3.42c0-0.57,0.25,23.35-0.39,32.68c-0.73,10.68-3.05,25.08-8.8,35.29" id="Ske2vi2ye4s" kvg:type="㇒" transform="matrix(1,0,0,1,1396,-4)" xmlns:kvg="http://kanjivg.tagaini.net"></path><path class="stroke_order_diagram--existing_path" d="M19.32,20.82c1.76-0.06,10.15-1.77,11.46-1.89c2.34-0.22,2.93,1.27,2.93,2.59c0,3.13-0.44,45.36-0.44,63.15c0,12.24-4.85,5.88-6.35,4.41" id="Ske2vi2ye4t" kvg:type="㇆a" transform="matrix(1,0,0,1,1396,-4)" xmlns:kvg="http://kanjivg.tagaini.net"></path><path class="stroke_order_diagram--existing_path" d="M19.65,41.63c3.48-0.19,10.04-1.2,13.1-1.21" id="Ske2vi2ye4u" kvg:type="㇐a" transform="matrix(1,0,0,1,1396,-4)" xmlns:kvg="http://kanjivg.tagaini.net"></path><path class="stroke_order_diagram--existing_path" d="M18.25,61.42c3.15-0.07,9.55-0.81,13.83-1.17" id="Ske2vi2ye4v" kvg:type="㇐a" transform="matrix(1,0,0,1,1396,-4)" xmlns:kvg="http://kanjivg.tagaini.net"></path><path class="stroke_order_diagram--existing_path" d="M65.23,13.67c0.07,0.73,0.3,1.97-0.13,2.95c-2.73,6.26-10.44,19.42-23.35,28.26" id="Ske2vi2ye4w" kvg:type="㇒" transform="matrix(1,0,0,1,1396,-4)" xmlns:kvg="http://kanjivg.tagaini.net"></path><path class="stroke_order_diagram--existing_path" d="M66.4,15.97c3.9,4.68,20.68,19.96,24.98,23.38c1.46,1.16,3.33,1.66,4.79,1.99" id="Ske2vi2ye4x" kvg:type="㇏" transform="matrix(1,0,0,1,1396,-4)" xmlns:kvg="http://kanjivg.tagaini.net"></path><path class="stroke_order_diagram--existing_path" d="M54.25,41.25c0.46,0.17,3.2,0.51,3.67,0.5c3.53-0.05,16.49-2.53,19.33-2.33c0.76,0.05,3.12,0.25,3.5,0.33" id="Ske2vi2ye4y" kvg:type="㇐" transform="matrix(1,0,0,1,1396,-4)" xmlns:kvg="http://kanjivg.tagaini.net"></path><path class="stroke_order_diagram--existing_path" d="M45.25,51.25c0.2,0.26,1.1,0.85,1.19,1.17c0.71,2.54,1.5,9.77,1.98,14.33" id="Ske2vi2ye4z" kvg:type="㇑" transform="matrix(1,0,0,1,1396,-4)" xmlns:kvg="http://kanjivg.tagaini.net"></path><path class="stroke_order_diagram--existing_path" d="M47.75,52.53c6.75-1.19,11.87-1.42,14.99-1.77c1.14-0.13,1.82,0.75,1.66,1.48c-0.68,3.06-1.47,7.53-2.47,11.76" id="Ske2vi2ye50" kvg:type="㇕b" transform="matrix(1,0,0,1,1396,-4)" xmlns:kvg="http://kanjivg.tagaini.net"></path><path class="stroke_order_diagram--existing_path" d="M48.58,66c3.92-0.46,9.77-1.26,15.16-1.98" id="Ske2vi2ye51" kvg:type="㇐b" transform="matrix(1,0,0,1,1396,-4)" xmlns:kvg="http://kanjivg.tagaini.net"></path><path class="stroke_order_diagram--existing_path" d="M70.08,49.58c0.2,0.26,1.24,0.67,1.33,1c0.7,2.58,1.54,9.69,2.02,14.32" id="Ske2vi2ye52" kvg:type="㇑" transform="matrix(1,0,0,1,1396,-4)" xmlns:kvg="http://kanjivg.tagaini.net"></path><path class="stroke_order_diagram--existing_path" d="M72.43,51.44c5.78-0.93,12.56-1.48,15.8-1.8c1.18-0.12,1.9,0.69,1.73,1.38c-0.7,2.84-0.83,6.13-1.87,10.06" id="Ske2vi2ye53" kvg:type="㇕b" transform="matrix(1,0,0,1,1396,-4)" xmlns:kvg="http://kanjivg.tagaini.net"></path><path class="stroke_order_diagram--existing_path" d="M74.39,63.4c4.14-0.3,9.86-0.82,15.55-1.28" id="Ske2vi2ye54" kvg:type="㇐b" transform="matrix(1,0,0,1,1396,-4)" xmlns:kvg="http://kanjivg.tagaini.net"></path><path class="stroke_order_diagram--existing_path" d="M57.07,69.55c0.17,1.09,0.11,2.13-0.12,2.84c-2.01,6.17-6.62,14.34-14.88,21.78" id="Ske2vi2ye55" kvg:type="㇒" transform="matrix(1,0,0,1,1396,-4)" xmlns:kvg="http://kanjivg.tagaini.net"></path><path class="stroke_order_diagram--current_path" d="M56.71,78.93c2.97,1.6,6.76,5.87,8.21,9.9" id="kvg:081c9-s15" kvg:type="㇏" transform="matrix(1,0,0,1,1396,-4)" xmlns:kvg="http://kanjivg.tagaini.net"></path><path class="stroke_order_diagram--current_path" d="M56.71,78.93c2.97,1.6,6.76,5.87,8.21,9.9" id="Ske2vi2ye57" kvg:type="㇏" transform="matrix(1,0,0,1,1396,-4)" xmlns:kvg="http://kanjivg.tagaini.net"></path><circle class="stroke_order_diagram--path_start" cx="56.71" cy="78.93" r="4" transform="matrix(1,0,0,1,1396,-4)"></circle><line class="stroke_order_diagram--guide_line" x1="1550" x2="1550" y1="1" y2="99"></line><line class="stroke_order_diagram--bounding_box" x1="1599" x2="1599" y1="1" y2="99"></line><path class="stroke_order_diagram--existing_path" d="M17.58,19.92c0.51,0.96,1.19,6.58,1.19,3.42c0-0.57,0.25,23.35-0.39,32.68c-0.73,10.68-3.05,25.08-8.8,35.29" id="Ske2vi2ye5a" kvg:type="㇒" transform="matrix(1,0,0,1,1496,-4)" xmlns:kvg="http://kanjivg.tagaini.net"></path><path class="stroke_order_diagram--existing_path" d="M19.32,20.82c1.76-0.06,10.15-1.77,11.46-1.89c2.34-0.22,2.93,1.27,2.93,2.59c0,3.13-0.44,45.36-0.44,63.15c0,12.24-4.85,5.88-6.35,4.41" id="Ske2vi2ye5b" kvg:type="㇆a" transform="matrix(1,0,0,1,1496,-4)" xmlns:kvg="http://kanjivg.tagaini.net"></path><path class="stroke_order_diagram--existing_path" d="M19.65,41.63c3.48-0.19,10.04-1.2,13.1-1.21" id="Ske2vi2ye5c" kvg:type="㇐a" transform="matrix(1,0,0,1,1496,-4)" xmlns:kvg="http://kanjivg.tagaini.net"></path><path class="stroke_order_diagram--existing_path" d="M18.25,61.42c3.15-0.07,9.55-0.81,13.83-1.17" id="Ske2vi2ye5d" kvg:type="㇐a" transform="matrix(1,0,0,1,1496,-4)" xmlns:kvg="http://kanjivg.tagaini.net"></path><path class="stroke_order_diagram--existing_path" d="M65.23,13.67c0.07,0.73,0.3,1.97-0.13,2.95c-2.73,6.26-10.44,19.42-23.35,28.26" id="Ske2vi2ye5e" kvg:type="㇒" transform="matrix(1,0,0,1,1496,-4)" xmlns:kvg="http://kanjivg.tagaini.net"></path><path class="stroke_order_diagram--existing_path" d="M66.4,15.97c3.9,4.68,20.68,19.96,24.98,23.38c1.46,1.16,3.33,1.66,4.79,1.99" id="Ske2vi2ye5f" kvg:type="㇏" transform="matrix(1,0,0,1,1496,-4)" xmlns:kvg="http://kanjivg.tagaini.net"></path><path class="stroke_order_diagram--existing_path" d="M54.25,41.25c0.46,0.17,3.2,0.51,3.67,0.5c3.53-0.05,16.49-2.53,19.33-2.33c0.76,0.05,3.12,0.25,3.5,0.33" id="Ske2vi2ye5g" kvg:type="㇐" transform="matrix(1,0,0,1,1496,-4)" xmlns:kvg="http://kanjivg.tagaini.net"></path><path class="stroke_order_diagram--existing_path" d="M45.25,51.25c0.2,0.26,1.1,0.85,1.19,1.17c0.71,2.54,1.5,9.77,1.98,14.33" id="Ske2vi2ye5h" kvg:type="㇑" transform="matrix(1,0,0,1,1496,-4)" xmlns:kvg="http://kanjivg.tagaini.net"></path><path class="stroke_order_diagram--existing_path" d="M47.75,52.53c6.75-1.19,11.87-1.42,14.99-1.77c1.14-0.13,1.82,0.75,1.66,1.48c-0.68,3.06-1.47,7.53-2.47,11.76" id="Ske2vi2ye5i" kvg:type="㇕b" transform="matrix(1,0,0,1,1496,-4)" xmlns:kvg="http://kanjivg.tagaini.net"></path><path class="stroke_order_diagram--existing_path" d="M48.58,66c3.92-0.46,9.77-1.26,15.16-1.98" id="Ske2vi2ye5j" kvg:type="㇐b" transform="matrix(1,0,0,1,1496,-4)" xmlns:kvg="http://kanjivg.tagaini.net"></path><path class="stroke_order_diagram--existing_path" d="M70.08,49.58c0.2,0.26,1.24,0.67,1.33,1c0.7,2.58,1.54,9.69,2.02,14.32" id="Ske2vi2ye5k" kvg:type="㇑" transform="matrix(1,0,0,1,1496,-4)" xmlns:kvg="http://kanjivg.tagaini.net"></path><path class="stroke_order_diagram--existing_path" d="M72.43,51.44c5.78-0.93,12.56-1.48,15.8-1.8c1.18-0.12,1.9,0.69,1.73,1.38c-0.7,2.84-0.83,6.13-1.87,10.06" id="Ske2vi2ye5l" kvg:type="㇕b" transform="matrix(1,0,0,1,1496,-4)" xmlns:kvg="http://kanjivg.tagaini.net"></path><path class="stroke_order_diagram--existing_path" d="M74.39,63.4c4.14-0.3,9.86-0.82,15.55-1.28" id="Ske2vi2ye5m" kvg:type="㇐b" transform="matrix(1,0,0,1,1496,-4)" xmlns:kvg="http://kanjivg.tagaini.net"></path><path class="stroke_order_diagram--existing_path" d="M57.07,69.55c0.17,1.09,0.11,2.13-0.12,2.84c-2.01,6.17-6.62,14.34-14.88,21.78" id="Ske2vi2ye5n" kvg:type="㇒" transform="matrix(1,0,0,1,1496,-4)" xmlns:kvg="http://kanjivg.tagaini.net"></path><path class="stroke_order_diagram--existing_path" d="M56.71,78.93c2.97,1.6,6.76,5.87,8.21,9.9" id="Ske2vi2ye5o" kvg:type="㇏" transform="matrix(1,0,0,1,1496,-4)" xmlns:kvg="http://kanjivg.tagaini.net"></path><path class="stroke_order_diagram--current_path" d="M80.29,67.91c0.16,1.13,0.1,2.21-0.12,2.94c-1.93,6.4-6.36,14.86-14.28,22.57" id="kvg:081c9-s16" kvg:type="㇒" transform="matrix(1,0,0,1,1496,-4)" xmlns:kvg="http://kanjivg.tagaini.net"></path><path class="stroke_order_diagram--current_path" d="M80.29,67.91c0.16,1.13,0.1,2.21-0.12,2.94c-1.93,6.4-6.36,14.86-14.28,22.57" id="Ske2vi2ye5q" kvg:type="㇒" transform="matrix(1,0,0,1,1496,-4)" xmlns:kvg="http://kanjivg.tagaini.net"></path><circle class="stroke_order_diagram--path_start" cx="80.29" cy="67.91" r="4" transform="matrix(1,0,0,1,1496,-4)"></circle><line class="stroke_order_diagram--guide_line" x1="1650" x2="1650" y1="1" y2="99"></line><line class="stroke_order_diagram--bounding_box" x1="1699" x2="1699" y1="1" y2="99"></line><path class="stroke_order_diagram--existing_path" d="M17.58,19.92c0.51,0.96,1.19,6.58,1.19,3.42c0-0.57,0.25,23.35-0.39,32.68c-0.73,10.68-3.05,25.08-8.8,35.29" id="Ske2vi2ye5t" kvg:type="㇒" transform="matrix(1,0,0,1,1596,-4)" xmlns:kvg="http://kanjivg.tagaini.net"></path><path class="stroke_order_diagram--existing_path" d="M19.32,20.82c1.76-0.06,10.15-1.77,11.46-1.89c2.34-0.22,2.93,1.27,2.93,2.59c0,3.13-0.44,45.36-0.44,63.15c0,12.24-4.85,5.88-6.35,4.41" id="Ske2vi2ye5u" kvg:type="㇆a" transform="matrix(1,0,0,1,1596,-4)" xmlns:kvg="http://kanjivg.tagaini.net"></path><path class="stroke_order_diagram--existing_path" d="M19.65,41.63c3.48-0.19,10.04-1.2,13.1-1.21" id="Ske2vi2ye5v" kvg:type="㇐a" transform="matrix(1,0,0,1,1596,-4)" xmlns:kvg="http://kanjivg.tagaini.net"></path><path class="stroke_order_diagram--existing_path" d="M18.25,61.42c3.15-0.07,9.55-0.81,13.83-1.17" id="Ske2vi2ye5w" kvg:type="㇐a" transform="matrix(1,0,0,1,1596,-4)" xmlns:kvg="http://kanjivg.tagaini.net"></path><path class="stroke_order_diagram--existing_path" d="M65.23,13.67c0.07,0.73,0.3,1.97-0.13,2.95c-2.73,6.26-10.44,19.42-23.35,28.26" id="Ske2vi2ye5x" kvg:type="㇒" transform="matrix(1,0,0,1,1596,-4)" xmlns:kvg="http://kanjivg.tagaini.net"></path><path class="stroke_order_diagram--existing_path" d="M66.4,15.97c3.9,4.68,20.68,19.96,24.98,23.38c1.46,1.16,3.33,1.66,4.79,1.99" id="Ske2vi2ye5y" kvg:type="㇏" transform="matrix(1,0,0,1,1596,-4)" xmlns:kvg="http://kanjivg.tagaini.net"></path><path class="stroke_order_diagram--existing_path" d="M54.25,41.25c0.46,0.17,3.2,0.51,3.67,0.5c3.53-0.05,16.49-2.53,19.33-2.33c0.76,0.05,3.12,0.25,3.5,0.33" id="Ske2vi2ye5z" kvg:type="㇐" transform="matrix(1,0,0,1,1596,-4)" xmlns:kvg="http://kanjivg.tagaini.net"></path><path class="stroke_order_diagram--existing_path" d="M45.25,51.25c0.2,0.26,1.1,0.85,1.19,1.17c0.71,2.54,1.5,9.77,1.98,14.33" id="Ske2vi2ye60" kvg:type="㇑" transform="matrix(1,0,0,1,1596,-4)" xmlns:kvg="http://kanjivg.tagaini.net"></path><path class="stroke_order_diagram--existing_path" d="M47.75,52.53c6.75-1.19,11.87-1.42,14.99-1.77c1.14-0.13,1.82,0.75,1.66,1.48c-0.68,3.06-1.47,7.53-2.47,11.76" id="Ske2vi2ye61" kvg:type="㇕b" transform="matrix(1,0,0,1,1596,-4)" xmlns:kvg="http://kanjivg.tagaini.net"></path><path class="stroke_order_diagram--existing_path" d="M48.58,66c3.92-0.46,9.77-1.26,15.16-1.98" id="Ske2vi2ye62" kvg:type="㇐b" transform="matrix(1,0,0,1,1596,-4)" xmlns:kvg="http://kanjivg.tagaini.net"></path><path class="stroke_order_diagram--existing_path" d="M70.08,49.58c0.2,0.26,1.24,0.67,1.33,1c0.7,2.58,1.54,9.69,2.02,14.32" id="Ske2vi2ye63" kvg:type="㇑" transform="matrix(1,0,0,1,1596,-4)" xmlns:kvg="http://kanjivg.tagaini.net"></path><path class="stroke_order_diagram--existing_path" d="M72.43,51.44c5.78-0.93,12.56-1.48,15.8-1.8c1.18-0.12,1.9,0.69,1.73,1.38c-0.7,2.84-0.83,6.13-1.87,10.06" id="Ske2vi2ye64" kvg:type="㇕b" transform="matrix(1,0,0,1,1596,-4)" xmlns:kvg="http://kanjivg.tagaini.net"></path><path class="stroke_order_diagram--existing_path" d="M74.39,63.4c4.14-0.3,9.86-0.82,15.55-1.28" id="Ske2vi2ye65" kvg:type="㇐b" transform="matrix(1,0,0,1,1596,-4)" xmlns:kvg="http://kanjivg.tagaini.net"></path><path class="stroke_order_diagram--existing_path" d="M57.07,69.55c0.17,1.09,0.11,2.13-0.12,2.84c-2.01,6.17-6.62,14.34-14.88,21.78" id="Ske2vi2ye66" kvg:type="㇒" transform="matrix(1,0,0,1,1596,-4)" xmlns:kvg="http://kanjivg.tagaini.net"></path><path class="stroke_order_diagram--existing_path" d="M56.71,78.93c2.97,1.6,6.76,5.87,8.21,9.9" id="Ske2vi2ye67" kvg:type="㇏" transform="matrix(1,0,0,1,1596,-4)" xmlns:kvg="http://kanjivg.tagaini.net"></path><path class="stroke_order_diagram--existing_path" d="M80.29,67.91c0.16,1.13,0.1,2.21-0.12,2.94c-1.93,6.4-6.36,14.86-14.28,22.57" id="Ske2vi2ye68" kvg:type="㇒" transform="matrix(1,0,0,1,1596,-4)" xmlns:kvg="http://kanjivg.tagaini.net"></path><path class="stroke_order_diagram--current_path" d="M81.03,77.86c4.56,2.51,10.39,9.19,12.61,15.51" id="kvg:081c9-s17" kvg:type="㇏" transform="matrix(1,0,0,1,1596,-4)" xmlns:kvg="http://kanjivg.tagaini.net"></path><path class="stroke_order_diagram--current_path" d="M81.03,77.86c4.56,2.51,10.39,9.19,12.61,15.51" id="Ske2vi2ye6a" kvg:type="㇏" transform="matrix(1,0,0,1,1596,-4)" xmlns:kvg="http://kanjivg.tagaini.net"></path><circle class="stroke_order_diagram--path_start" cx="81.03" cy="77.86" r="4" transform="matrix(1,0,0,1,1596,-4)"></circle></svg>