<svg class="stroke_order_diagram--svg_container_for_5186629cd5dda79658000b3b" style="height: 100px; width: 1800px;" viewbox="0 0 1800 100"><desc>Created with Snap</desc><defs></defs><line class="stroke_order_diagram--bounding_box" x1="1" x2="1799" y1="1" y2="1"></line><line class="stroke_order_diagram--bounding_box" x1="1" x2="1" y1="1" y2="99"></line><line class="stroke_order_diagram--bounding_box" x1="1" x2="1799" y1="99" y2="99"></line><line class="stroke_order_diagram--guide_line" x1="0" x2="1800" y1="50" y2="50"></line><line class="stroke_order_diagram--guide_line" x1="50" x2="50" y1="1" y2="99"></line><line class="stroke_order_diagram--bounding_box" x1="99" x2="99" y1="1" y2="99"></line><path class="stroke_order_diagram--current_path" d="M12.63,23.33c0.83,0.84,1.18,1.83,1.18,2.98c0,0.61-0.04,39.05-0.05,59.95c0,2.49,0,4.73,0,6.62" id="kvg:081e8-s1" kvg:type="㇑" transform="matrix(1,0,0,1,-4,-4)" xmlns:kvg="http://kanjivg.tagaini.net"></path><path class="stroke_order_diagram--current_path" d="M12.63,23.33c0.83,0.84,1.18,1.83,1.18,2.98c0,0.61-0.04,39.05-0.05,59.95c0,2.49,0,4.73,0,6.62" id="Ske2b0jher" kvg:type="㇑" transform="matrix(1,0,0,1,-4,-4)" xmlns:kvg="http://kanjivg.tagaini.net"></path><circle class="stroke_order_diagram--path_start" cx="12.63" cy="23.33" r="4" transform="matrix(1,0,0,1,-4,-4)"></circle><line class="stroke_order_diagram--guide_line" x1="150" x2="150" y1="1" y2="99"></line><line class="stroke_order_diagram--bounding_box" x1="199" x2="199" y1="1" y2="99"></line><path class="stroke_order_diagram--existing_path" d="M12.63,23.33c0.83,0.84,1.18,1.83,1.18,2.98c0,0.61-0.04,39.05-0.05,59.95c0,2.49,0,4.73,0,6.62" id="Ske2b0jheu" kvg:type="㇑" transform="matrix(1,0,0,1,96,-4)" xmlns:kvg="http://kanjivg.tagaini.net"></path><path class="stroke_order_diagram--current_path" d="M14.67,24.66c6.96-1.28,14.33-2.41,24.21-3.61c0.97-0.12,3.51-0.16,4.54,0.21" id="kvg:081e8-s2" kvg:type="㇐b" transform="matrix(1,0,0,1,96,-4)" xmlns:kvg="http://kanjivg.tagaini.net"></path><path class="stroke_order_diagram--current_path" d="M14.67,24.66c6.96-1.28,14.33-2.41,24.21-3.61c0.97-0.12,3.51-0.16,4.54,0.21" id="Ske2b0jhew" kvg:type="㇐b" transform="matrix(1,0,0,1,96,-4)" xmlns:kvg="http://kanjivg.tagaini.net"></path><circle class="stroke_order_diagram--path_start" cx="14.67" cy="24.66" r="4" transform="matrix(1,0,0,1,96,-4)"></circle><line class="stroke_order_diagram--guide_line" x1="250" x2="250" y1="1" y2="99"></line><line class="stroke_order_diagram--bounding_box" x1="299" x2="299" y1="1" y2="99"></line><path class="stroke_order_diagram--existing_path" d="M12.63,23.33c0.83,0.84,1.18,1.83,1.18,2.98c0,0.61-0.04,39.05-0.05,59.95c0,2.49,0,4.73,0,6.62" id="Ske2b0jhez" kvg:type="㇑" transform="matrix(1,0,0,1,196,-4)" xmlns:kvg="http://kanjivg.tagaini.net"></path><path class="stroke_order_diagram--existing_path" d="M14.67,24.66c6.96-1.28,14.33-2.41,24.21-3.61c0.97-0.12,3.51-0.16,4.54,0.21" id="Ske2b0jhe10" kvg:type="㇐b" transform="matrix(1,0,0,1,196,-4)" xmlns:kvg="http://kanjivg.tagaini.net"></path><path class="stroke_order_diagram--current_path" d="M28.44,24.59c0.74,0.74,0.93,1.78,0.93,2.73c0,0.85,0.01,9.38,0.01,14.68" id="kvg:081e8-s3" kvg:type="㇑a" transform="matrix(1,0,0,1,196,-4)" xmlns:kvg="http://kanjivg.tagaini.net"></path><path class="stroke_order_diagram--current_path" d="M28.44,24.59c0.74,0.74,0.93,1.78,0.93,2.73c0,0.85,0.01,9.38,0.01,14.68" id="Ske2b0jhe12" kvg:type="㇑a" transform="matrix(1,0,0,1,196,-4)" xmlns:kvg="http://kanjivg.tagaini.net"></path><circle class="stroke_order_diagram--path_start" cx="28.44" cy="24.59" r="4" transform="matrix(1,0,0,1,196,-4)"></circle><line class="stroke_order_diagram--guide_line" x1="350" x2="350" y1="1" y2="99"></line><line class="stroke_order_diagram--bounding_box" x1="399" x2="399" y1="1" y2="99"></line><path class="stroke_order_diagram--existing_path" d="M12.63,23.33c0.83,0.84,1.18,1.83,1.18,2.98c0,0.61-0.04,39.05-0.05,59.95c0,2.49,0,4.73,0,6.62" id="Ske2b0jhe15" kvg:type="㇑" transform="matrix(1,0,0,1,296,-4)" xmlns:kvg="http://kanjivg.tagaini.net"></path><path class="stroke_order_diagram--existing_path" d="M14.67,24.66c6.96-1.28,14.33-2.41,24.21-3.61c0.97-0.12,3.51-0.16,4.54,0.21" id="Ske2b0jhe16" kvg:type="㇐b" transform="matrix(1,0,0,1,296,-4)" xmlns:kvg="http://kanjivg.tagaini.net"></path><path class="stroke_order_diagram--existing_path" d="M28.44,24.59c0.74,0.74,0.93,1.78,0.93,2.73c0,0.85,0.01,9.38,0.01,14.68" id="Ske2b0jhe17" kvg:type="㇑a" transform="matrix(1,0,0,1,296,-4)" xmlns:kvg="http://kanjivg.tagaini.net"></path><path class="stroke_order_diagram--current_path" d="M15.18,45.49c7.89-1.31,14.93-2.52,22.6-3.79c2.64-0.44,3.84,0.62,3.47,3.38c-0.56,4.15-1.51,8.42-2.69,14.09" id="kvg:081e8-s4" kvg:type="㇕b" transform="matrix(1,0,0,1,296,-4)" xmlns:kvg="http://kanjivg.tagaini.net"></path><path class="stroke_order_diagram--current_path" d="M15.18,45.49c7.89-1.31,14.93-2.52,22.6-3.79c2.64-0.44,3.84,0.62,3.47,3.38c-0.56,4.15-1.51,8.42-2.69,14.09" id="Ske2b0jhe19" kvg:type="㇕b" transform="matrix(1,0,0,1,296,-4)" xmlns:kvg="http://kanjivg.tagaini.net"></path><circle class="stroke_order_diagram--path_start" cx="15.18" cy="45.49" r="4" transform="matrix(1,0,0,1,296,-4)"></circle><line class="stroke_order_diagram--guide_line" x1="450" x2="450" y1="1" y2="99"></line><line class="stroke_order_diagram--bounding_box" x1="499" x2="499" y1="1" y2="99"></line><path class="stroke_order_diagram--existing_path" d="M12.63,23.33c0.83,0.84,1.18,1.83,1.18,2.98c0,0.61-0.04,39.05-0.05,59.95c0,2.49,0,4.73,0,6.62" id="Ske2b0jhe1c" kvg:type="㇑" transform="matrix(1,0,0,1,396,-4)" xmlns:kvg="http://kanjivg.tagaini.net"></path><path class="stroke_order_diagram--existing_path" d="M14.67,24.66c6.96-1.28,14.33-2.41,24.21-3.61c0.97-0.12,3.51-0.16,4.54,0.21" id="Ske2b0jhe1d" kvg:type="㇐b" transform="matrix(1,0,0,1,396,-4)" xmlns:kvg="http://kanjivg.tagaini.net"></path><path class="stroke_order_diagram--existing_path" d="M28.44,24.59c0.74,0.74,0.93,1.78,0.93,2.73c0,0.85,0.01,9.38,0.01,14.68" id="Ske2b0jhe1e" kvg:type="㇑a" transform="matrix(1,0,0,1,396,-4)" xmlns:kvg="http://kanjivg.tagaini.net"></path><path class="stroke_order_diagram--existing_path" d="M15.18,45.49c7.89-1.31,14.93-2.52,22.6-3.79c2.64-0.44,3.84,0.62,3.47,3.38c-0.56,4.15-1.51,8.42-2.69,14.09" id="Ske2b0jhe1f" kvg:type="㇕b" transform="matrix(1,0,0,1,396,-4)" xmlns:kvg="http://kanjivg.tagaini.net"></path><path class="stroke_order_diagram--current_path" d="M15.28,64.04c2.64-0.57,14.43-2.61,21.24-3.69c1.86-0.3,3.11-0.37,3.97-0.37" id="kvg:081e8-s5" kvg:type="㇐b" transform="matrix(1,0,0,1,396,-4)" xmlns:kvg="http://kanjivg.tagaini.net"></path><path class="stroke_order_diagram--current_path" d="M15.28,64.04c2.64-0.57,14.43-2.61,21.24-3.69c1.86-0.3,3.11-0.37,3.97-0.37" id="Ske2b0jhe1h" kvg:type="㇐b" transform="matrix(1,0,0,1,396,-4)" xmlns:kvg="http://kanjivg.tagaini.net"></path><circle class="stroke_order_diagram--path_start" cx="15.28" cy="64.04" r="4" transform="matrix(1,0,0,1,396,-4)"></circle><line class="stroke_order_diagram--guide_line" x1="550" x2="550" y1="1" y2="99"></line><line class="stroke_order_diagram--bounding_box" x1="599" x2="599" y1="1" y2="99"></line><path class="stroke_order_diagram--existing_path" d="M12.63,23.33c0.83,0.84,1.18,1.83,1.18,2.98c0,0.61-0.04,39.05-0.05,59.95c0,2.49,0,4.73,0,6.62" id="Ske2b0jhe1k" kvg:type="㇑" transform="matrix(1,0,0,1,496,-4)" xmlns:kvg="http://kanjivg.tagaini.net"></path><path class="stroke_order_diagram--existing_path" d="M14.67,24.66c6.96-1.28,14.33-2.41,24.21-3.61c0.97-0.12,3.51-0.16,4.54,0.21" id="Ske2b0jhe1l" kvg:type="㇐b" transform="matrix(1,0,0,1,496,-4)" xmlns:kvg="http://kanjivg.tagaini.net"></path><path class="stroke_order_diagram--existing_path" d="M28.44,24.59c0.74,0.74,0.93,1.78,0.93,2.73c0,0.85,0.01,9.38,0.01,14.68" id="Ske2b0jhe1m" kvg:type="㇑a" transform="matrix(1,0,0,1,496,-4)" xmlns:kvg="http://kanjivg.tagaini.net"></path><path class="stroke_order_diagram--existing_path" d="M15.18,45.49c7.89-1.31,14.93-2.52,22.6-3.79c2.64-0.44,3.84,0.62,3.47,3.38c-0.56,4.15-1.51,8.42-2.69,14.09" id="Ske2b0jhe1n" kvg:type="㇕b" transform="matrix(1,0,0,1,496,-4)" xmlns:kvg="http://kanjivg.tagaini.net"></path><path class="stroke_order_diagram--existing_path" d="M15.28,64.04c2.64-0.57,14.43-2.61,21.24-3.69c1.86-0.3,3.11-0.37,3.97-0.37" id="Ske2b0jhe1o" kvg:type="㇐b" transform="matrix(1,0,0,1,496,-4)" xmlns:kvg="http://kanjivg.tagaini.net"></path><path class="stroke_order_diagram--current_path" d="M27.92,63.93c0.76,0.76,0.93,1.94,0.93,2.98c0,2.34-0.09,12.59-0.09,18.09" id="kvg:081e8-s6" kvg:type="㇑a" transform="matrix(1,0,0,1,496,-4)" xmlns:kvg="http://kanjivg.tagaini.net"></path><path class="stroke_order_diagram--current_path" d="M27.92,63.93c0.76,0.76,0.93,1.94,0.93,2.98c0,2.34-0.09,12.59-0.09,18.09" id="Ske2b0jhe1q" kvg:type="㇑a" transform="matrix(1,0,0,1,496,-4)" xmlns:kvg="http://kanjivg.tagaini.net"></path><circle class="stroke_order_diagram--path_start" cx="27.92" cy="63.93" r="4" transform="matrix(1,0,0,1,496,-4)"></circle><line class="stroke_order_diagram--guide_line" x1="650" x2="650" y1="1" y2="99"></line><line class="stroke_order_diagram--bounding_box" x1="699" x2="699" y1="1" y2="99"></line><path class="stroke_order_diagram--existing_path" d="M12.63,23.33c0.83,0.84,1.18,1.83,1.18,2.98c0,0.61-0.04,39.05-0.05,59.95c0,2.49,0,4.73,0,6.62" id="Ske2b0jhe1t" kvg:type="㇑" transform="matrix(1,0,0,1,596,-4)" xmlns:kvg="http://kanjivg.tagaini.net"></path><path class="stroke_order_diagram--existing_path" d="M14.67,24.66c6.96-1.28,14.33-2.41,24.21-3.61c0.97-0.12,3.51-0.16,4.54,0.21" id="Ske2b0jhe1u" kvg:type="㇐b" transform="matrix(1,0,0,1,596,-4)" xmlns:kvg="http://kanjivg.tagaini.net"></path><path class="stroke_order_diagram--existing_path" d="M28.44,24.59c0.74,0.74,0.93,1.78,0.93,2.73c0,0.85,0.01,9.38,0.01,14.68" id="Ske2b0jhe1v" kvg:type="㇑a" transform="matrix(1,0,0,1,596,-4)" xmlns:kvg="http://kanjivg.tagaini.net"></path><path class="stroke_order_diagram--existing_path" d="M15.18,45.49c7.89-1.31,14.93-2.52,22.6-3.79c2.64-0.44,3.84,0.62,3.47,3.38c-0.56,4.15-1.51,8.42-2.69,14.09" id="Ske2b0jhe1w" kvg:type="㇕b" transform="matrix(1,0,0,1,596,-4)" xmlns:kvg="http://kanjivg.tagaini.net"></path><path class="stroke_order_diagram--existing_path" d="M15.28,64.04c2.64-0.57,14.43-2.61,21.24-3.69c1.86-0.3,3.11-0.37,3.97-0.37" id="Ske2b0jhe1x" kvg:type="㇐b" transform="matrix(1,0,0,1,596,-4)" xmlns:kvg="http://kanjivg.tagaini.net"></path><path class="stroke_order_diagram--existing_path" d="M27.92,63.93c0.76,0.76,0.93,1.94,0.93,2.98c0,2.34-0.09,12.59-0.09,18.09" id="Ske2b0jhe1y" kvg:type="㇑a" transform="matrix(1,0,0,1,596,-4)" xmlns:kvg="http://kanjivg.tagaini.net"></path><path class="stroke_order_diagram--current_path" d="M15.25,87.88c5.5-0.62,13.34-1.94,21-2.84c1.54-0.18,3.75-0.39,5.47-0.39" id="kvg:081e8-s7" kvg:type="㇐b" transform="matrix(1,0,0,1,596,-4)" xmlns:kvg="http://kanjivg.tagaini.net"></path><path class="stroke_order_diagram--current_path" d="M15.25,87.88c5.5-0.62,13.34-1.94,21-2.84c1.54-0.18,3.75-0.39,5.47-0.39" id="Ske2b0jhe20" kvg:type="㇐b" transform="matrix(1,0,0,1,596,-4)" xmlns:kvg="http://kanjivg.tagaini.net"></path><circle class="stroke_order_diagram--path_start" cx="15.25" cy="87.88" r="4" transform="matrix(1,0,0,1,596,-4)"></circle><line class="stroke_order_diagram--guide_line" x1="750" x2="750" y1="1" y2="99"></line><line class="stroke_order_diagram--bounding_box" x1="799" x2="799" y1="1" y2="99"></line><path class="stroke_order_diagram--existing_path" d="M12.63,23.33c0.83,0.84,1.18,1.83,1.18,2.98c0,0.61-0.04,39.05-0.05,59.95c0,2.49,0,4.73,0,6.62" id="Ske2b0jhe23" kvg:type="㇑" transform="matrix(1,0,0,1,696,-4)" xmlns:kvg="http://kanjivg.tagaini.net"></path><path class="stroke_order_diagram--existing_path" d="M14.67,24.66c6.96-1.28,14.33-2.41,24.21-3.61c0.97-0.12,3.51-0.16,4.54,0.21" id="Ske2b0jhe24" kvg:type="㇐b" transform="matrix(1,0,0,1,696,-4)" xmlns:kvg="http://kanjivg.tagaini.net"></path><path class="stroke_order_diagram--existing_path" d="M28.44,24.59c0.74,0.74,0.93,1.78,0.93,2.73c0,0.85,0.01,9.38,0.01,14.68" id="Ske2b0jhe25" kvg:type="㇑a" transform="matrix(1,0,0,1,696,-4)" xmlns:kvg="http://kanjivg.tagaini.net"></path><path class="stroke_order_diagram--existing_path" d="M15.18,45.49c7.89-1.31,14.93-2.52,22.6-3.79c2.64-0.44,3.84,0.62,3.47,3.38c-0.56,4.15-1.51,8.42-2.69,14.09" id="Ske2b0jhe26" kvg:type="㇕b" transform="matrix(1,0,0,1,696,-4)" xmlns:kvg="http://kanjivg.tagaini.net"></path><path class="stroke_order_diagram--existing_path" d="M15.28,64.04c2.64-0.57,14.43-2.61,21.24-3.69c1.86-0.3,3.11-0.37,3.97-0.37" id="Ske2b0jhe27" kvg:type="㇐b" transform="matrix(1,0,0,1,696,-4)" xmlns:kvg="http://kanjivg.tagaini.net"></path><path class="stroke_order_diagram--existing_path" d="M27.92,63.93c0.76,0.76,0.93,1.94,0.93,2.98c0,2.34-0.09,12.59-0.09,18.09" id="Ske2b0jhe28" kvg:type="㇑a" transform="matrix(1,0,0,1,696,-4)" xmlns:kvg="http://kanjivg.tagaini.net"></path><path class="stroke_order_diagram--existing_path" d="M15.25,87.88c5.5-0.62,13.34-1.94,21-2.84c1.54-0.18,3.75-0.39,5.47-0.39" id="Ske2b0jhe29" kvg:type="㇐b" transform="matrix(1,0,0,1,696,-4)" xmlns:kvg="http://kanjivg.tagaini.net"></path><path class="stroke_order_diagram--current_path" d="M59.28,13.14c0.32,1.23,0.25,2.25-0.14,3.4c-2.03,5.9-5.75,13.96-10.58,21.67" id="kvg:081e8-s8" kvg:type="㇒" transform="matrix(1,0,0,1,696,-4)" xmlns:kvg="http://kanjivg.tagaini.net"></path><path class="stroke_order_diagram--current_path" d="M59.28,13.14c0.32,1.23,0.25,2.25-0.14,3.4c-2.03,5.9-5.75,13.96-10.58,21.67" id="Ske2b0jhe2b" kvg:type="㇒" transform="matrix(1,0,0,1,696,-4)" xmlns:kvg="http://kanjivg.tagaini.net"></path><circle class="stroke_order_diagram--path_start" cx="59.28" cy="13.14" r="4" transform="matrix(1,0,0,1,696,-4)"></circle><line class="stroke_order_diagram--guide_line" x1="850" x2="850" y1="1" y2="99"></line><line class="stroke_order_diagram--bounding_box" x1="899" x2="899" y1="1" y2="99"></line><path class="stroke_order_diagram--existing_path" d="M12.63,23.33c0.83,0.84,1.18,1.83,1.18,2.98c0,0.61-0.04,39.05-0.05,59.95c0,2.49,0,4.73,0,6.62" id="Ske2b0jhe2e" kvg:type="㇑" transform="matrix(1,0,0,1,796,-4)" xmlns:kvg="http://kanjivg.tagaini.net"></path><path class="stroke_order_diagram--existing_path" d="M14.67,24.66c6.96-1.28,14.33-2.41,24.21-3.61c0.97-0.12,3.51-0.16,4.54,0.21" id="Ske2b0jhe2f" kvg:type="㇐b" transform="matrix(1,0,0,1,796,-4)" xmlns:kvg="http://kanjivg.tagaini.net"></path><path class="stroke_order_diagram--existing_path" d="M28.44,24.59c0.74,0.74,0.93,1.78,0.93,2.73c0,0.85,0.01,9.38,0.01,14.68" id="Ske2b0jhe2g" kvg:type="㇑a" transform="matrix(1,0,0,1,796,-4)" xmlns:kvg="http://kanjivg.tagaini.net"></path><path class="stroke_order_diagram--existing_path" d="M15.18,45.49c7.89-1.31,14.93-2.52,22.6-3.79c2.64-0.44,3.84,0.62,3.47,3.38c-0.56,4.15-1.51,8.42-2.69,14.09" id="Ske2b0jhe2h" kvg:type="㇕b" transform="matrix(1,0,0,1,796,-4)" xmlns:kvg="http://kanjivg.tagaini.net"></path><path class="stroke_order_diagram--existing_path" d="M15.28,64.04c2.64-0.57,14.43-2.61,21.24-3.69c1.86-0.3,3.11-0.37,3.97-0.37" id="Ske2b0jhe2i" kvg:type="㇐b" transform="matrix(1,0,0,1,796,-4)" xmlns:kvg="http://kanjivg.tagaini.net"></path><path class="stroke_order_diagram--existing_path" d="M27.92,63.93c0.76,0.76,0.93,1.94,0.93,2.98c0,2.34-0.09,12.59-0.09,18.09" id="Ske2b0jhe2j" kvg:type="㇑a" transform="matrix(1,0,0,1,796,-4)" xmlns:kvg="http://kanjivg.tagaini.net"></path><path class="stroke_order_diagram--existing_path" d="M15.25,87.88c5.5-0.62,13.34-1.94,21-2.84c1.54-0.18,3.75-0.39,5.47-0.39" id="Ske2b0jhe2k" kvg:type="㇐b" transform="matrix(1,0,0,1,796,-4)" xmlns:kvg="http://kanjivg.tagaini.net"></path><path class="stroke_order_diagram--existing_path" d="M59.28,13.14c0.32,1.23,0.25,2.25-0.14,3.4c-2.03,5.9-5.75,13.96-10.58,21.67" id="Ske2b0jhe2l" kvg:type="㇒" transform="matrix(1,0,0,1,796,-4)" xmlns:kvg="http://kanjivg.tagaini.net"></path><path class="stroke_order_diagram--current_path" d="M57,29.64c2.25,0.11,4.24-0.17,6.13-0.46c6.87-1.05,13.49-3.05,20.01-4.43c1.9-0.4,3.46-0.45,5.36,0.01" id="kvg:081e8-s9" kvg:type="㇐" transform="matrix(1,0,0,1,796,-4)" xmlns:kvg="http://kanjivg.tagaini.net"></path><path class="stroke_order_diagram--current_path" d="M57,29.64c2.25,0.11,4.24-0.17,6.13-0.46c6.87-1.05,13.49-3.05,20.01-4.43c1.9-0.4,3.46-0.45,5.36,0.01" id="Ske2b0jhe2n" kvg:type="㇐" transform="matrix(1,0,0,1,796,-4)" xmlns:kvg="http://kanjivg.tagaini.net"></path><circle class="stroke_order_diagram--path_start" cx="57" cy="29.64" r="4" transform="matrix(1,0,0,1,796,-4)"></circle><line class="stroke_order_diagram--guide_line" x1="950" x2="950" y1="1" y2="99"></line><line class="stroke_order_diagram--bounding_box" x1="999" x2="999" y1="1" y2="99"></line><path class="stroke_order_diagram--existing_path" d="M12.63,23.33c0.83,0.84,1.18,1.83,1.18,2.98c0,0.61-0.04,39.05-0.05,59.95c0,2.49,0,4.73,0,6.62" id="Ske2b0jhe2q" kvg:type="㇑" transform="matrix(1,0,0,1,896,-4)" xmlns:kvg="http://kanjivg.tagaini.net"></path><path class="stroke_order_diagram--existing_path" d="M14.67,24.66c6.96-1.28,14.33-2.41,24.21-3.61c0.97-0.12,3.51-0.16,4.54,0.21" id="Ske2b0jhe2r" kvg:type="㇐b" transform="matrix(1,0,0,1,896,-4)" xmlns:kvg="http://kanjivg.tagaini.net"></path><path class="stroke_order_diagram--existing_path" d="M28.44,24.59c0.74,0.74,0.93,1.78,0.93,2.73c0,0.85,0.01,9.38,0.01,14.68" id="Ske2b0jhe2s" kvg:type="㇑a" transform="matrix(1,0,0,1,896,-4)" xmlns:kvg="http://kanjivg.tagaini.net"></path><path class="stroke_order_diagram--existing_path" d="M15.18,45.49c7.89-1.31,14.93-2.52,22.6-3.79c2.64-0.44,3.84,0.62,3.47,3.38c-0.56,4.15-1.51,8.42-2.69,14.09" id="Ske2b0jhe2t" kvg:type="㇕b" transform="matrix(1,0,0,1,896,-4)" xmlns:kvg="http://kanjivg.tagaini.net"></path><path class="stroke_order_diagram--existing_path" d="M15.28,64.04c2.64-0.57,14.43-2.61,21.24-3.69c1.86-0.3,3.11-0.37,3.97-0.37" id="Ske2b0jhe2u" kvg:type="㇐b" transform="matrix(1,0,0,1,896,-4)" xmlns:kvg="http://kanjivg.tagaini.net"></path><path class="stroke_order_diagram--existing_path" d="M27.92,63.93c0.76,0.76,0.93,1.94,0.93,2.98c0,2.34-0.09,12.59-0.09,18.09" id="Ske2b0jhe2v" kvg:type="㇑a" transform="matrix(1,0,0,1,896,-4)" xmlns:kvg="http://kanjivg.tagaini.net"></path><path class="stroke_order_diagram--existing_path" d="M15.25,87.88c5.5-0.62,13.34-1.94,21-2.84c1.54-0.18,3.75-0.39,5.47-0.39" id="Ske2b0jhe2w" kvg:type="㇐b" transform="matrix(1,0,0,1,896,-4)" xmlns:kvg="http://kanjivg.tagaini.net"></path><path class="stroke_order_diagram--existing_path" d="M59.28,13.14c0.32,1.23,0.25,2.25-0.14,3.4c-2.03,5.9-5.75,13.96-10.58,21.67" id="Ske2b0jhe2x" kvg:type="㇒" transform="matrix(1,0,0,1,896,-4)" xmlns:kvg="http://kanjivg.tagaini.net"></path><path class="stroke_order_diagram--existing_path" d="M57,29.64c2.25,0.11,4.24-0.17,6.13-0.46c6.87-1.05,13.49-3.05,20.01-4.43c1.9-0.4,3.46-0.45,5.36,0.01" id="Ske2b0jhe2y" kvg:type="㇐" transform="matrix(1,0,0,1,896,-4)" xmlns:kvg="http://kanjivg.tagaini.net"></path><path class="stroke_order_diagram--current_path" d="M52.27,42.5c0.87,0.87,1.41,2.05,1.58,3.26c0.78,5.11,1.06,7.84,1.85,12.96c0.16,1.05,0.33,2.08,0.51,3.06" id="kvg:081e8-s10" kvg:type="㇑" transform="matrix(1,0,0,1,896,-4)" xmlns:kvg="http://kanjivg.tagaini.net"></path><path class="stroke_order_diagram--current_path" d="M52.27,42.5c0.87,0.87,1.41,2.05,1.58,3.26c0.78,5.11,1.06,7.84,1.85,12.96c0.16,1.05,0.33,2.08,0.51,3.06" id="Ske2b0jhe30" kvg:type="㇑" transform="matrix(1,0,0,1,896,-4)" xmlns:kvg="http://kanjivg.tagaini.net"></path><circle class="stroke_order_diagram--path_start" cx="52.27" cy="42.5" r="4" transform="matrix(1,0,0,1,896,-4)"></circle><line class="stroke_order_diagram--guide_line" x1="1050" x2="1050" y1="1" y2="99"></line><line class="stroke_order_diagram--bounding_box" x1="1099" x2="1099" y1="1" y2="99"></line><path class="stroke_order_diagram--existing_path" d="M12.63,23.33c0.83,0.84,1.18,1.83,1.18,2.98c0,0.61-0.04,39.05-0.05,59.95c0,2.49,0,4.73,0,6.62" id="Ske2b0jhe33" kvg:type="㇑" transform="matrix(1,0,0,1,996,-4)" xmlns:kvg="http://kanjivg.tagaini.net"></path><path class="stroke_order_diagram--existing_path" d="M14.67,24.66c6.96-1.28,14.33-2.41,24.21-3.61c0.97-0.12,3.51-0.16,4.54,0.21" id="Ske2b0jhe34" kvg:type="㇐b" transform="matrix(1,0,0,1,996,-4)" xmlns:kvg="http://kanjivg.tagaini.net"></path><path class="stroke_order_diagram--existing_path" d="M28.44,24.59c0.74,0.74,0.93,1.78,0.93,2.73c0,0.85,0.01,9.38,0.01,14.68" id="Ske2b0jhe35" kvg:type="㇑a" transform="matrix(1,0,0,1,996,-4)" xmlns:kvg="http://kanjivg.tagaini.net"></path><path class="stroke_order_diagram--existing_path" d="M15.18,45.49c7.89-1.31,14.93-2.52,22.6-3.79c2.64-0.44,3.84,0.62,3.47,3.38c-0.56,4.15-1.51,8.42-2.69,14.09" id="Ske2b0jhe36" kvg:type="㇕b" transform="matrix(1,0,0,1,996,-4)" xmlns:kvg="http://kanjivg.tagaini.net"></path><path class="stroke_order_diagram--existing_path" d="M15.28,64.04c2.64-0.57,14.43-2.61,21.24-3.69c1.86-0.3,3.11-0.37,3.97-0.37" id="Ske2b0jhe37" kvg:type="㇐b" transform="matrix(1,0,0,1,996,-4)" xmlns:kvg="http://kanjivg.tagaini.net"></path><path class="stroke_order_diagram--existing_path" d="M27.92,63.93c0.76,0.76,0.93,1.94,0.93,2.98c0,2.34-0.09,12.59-0.09,18.09" id="Ske2b0jhe38" kvg:type="㇑a" transform="matrix(1,0,0,1,996,-4)" xmlns:kvg="http://kanjivg.tagaini.net"></path><path class="stroke_order_diagram--existing_path" d="M15.25,87.88c5.5-0.62,13.34-1.94,21-2.84c1.54-0.18,3.75-0.39,5.47-0.39" id="Ske2b0jhe39" kvg:type="㇐b" transform="matrix(1,0,0,1,996,-4)" xmlns:kvg="http://kanjivg.tagaini.net"></path><path class="stroke_order_diagram--existing_path" d="M59.28,13.14c0.32,1.23,0.25,2.25-0.14,3.4c-2.03,5.9-5.75,13.96-10.58,21.67" id="Ske2b0jhe3a" kvg:type="㇒" transform="matrix(1,0,0,1,996,-4)" xmlns:kvg="http://kanjivg.tagaini.net"></path><path class="stroke_order_diagram--existing_path" d="M57,29.64c2.25,0.11,4.24-0.17,6.13-0.46c6.87-1.05,13.49-3.05,20.01-4.43c1.9-0.4,3.46-0.45,5.36,0.01" id="Ske2b0jhe3b" kvg:type="㇐" transform="matrix(1,0,0,1,996,-4)" xmlns:kvg="http://kanjivg.tagaini.net"></path><path class="stroke_order_diagram--existing_path" d="M52.27,42.5c0.87,0.87,1.41,2.05,1.58,3.26c0.78,5.11,1.06,7.84,1.85,12.96c0.16,1.05,0.33,2.08,0.51,3.06" id="Ske2b0jhe3c" kvg:type="㇑" transform="matrix(1,0,0,1,996,-4)" xmlns:kvg="http://kanjivg.tagaini.net"></path><path class="stroke_order_diagram--current_path" d="M54.22,43.52c10.6-1.51,21.41-3.2,27.53-3.79c3.02-0.29,4.61,0.85,3.73,4.14c-1.02,3.79-1.67,7.39-3.34,12.63" id="kvg:081e8-s11" kvg:type="㇕b" transform="matrix(1,0,0,1,996,-4)" xmlns:kvg="http://kanjivg.tagaini.net"></path><path class="stroke_order_diagram--current_path" d="M54.22,43.52c10.6-1.51,21.41-3.2,27.53-3.79c3.02-0.29,4.61,0.85,3.73,4.14c-1.02,3.79-1.67,7.39-3.34,12.63" id="Ske2b0jhe3e" kvg:type="㇕b" transform="matrix(1,0,0,1,996,-4)" xmlns:kvg="http://kanjivg.tagaini.net"></path><circle class="stroke_order_diagram--path_start" cx="54.22" cy="43.52" r="4" transform="matrix(1,0,0,1,996,-4)"></circle><line class="stroke_order_diagram--guide_line" x1="1150" x2="1150" y1="1" y2="99"></line><line class="stroke_order_diagram--bounding_box" x1="1199" x2="1199" y1="1" y2="99"></line><path class="stroke_order_diagram--existing_path" d="M12.63,23.33c0.83,0.84,1.18,1.83,1.18,2.98c0,0.61-0.04,39.05-0.05,59.95c0,2.49,0,4.73,0,6.62" id="Ske2b0jhe3h" kvg:type="㇑" transform="matrix(1,0,0,1,1096,-4)" xmlns:kvg="http://kanjivg.tagaini.net"></path><path class="stroke_order_diagram--existing_path" d="M14.67,24.66c6.96-1.28,14.33-2.41,24.21-3.61c0.97-0.12,3.51-0.16,4.54,0.21" id="Ske2b0jhe3i" kvg:type="㇐b" transform="matrix(1,0,0,1,1096,-4)" xmlns:kvg="http://kanjivg.tagaini.net"></path><path class="stroke_order_diagram--existing_path" d="M28.44,24.59c0.74,0.74,0.93,1.78,0.93,2.73c0,0.85,0.01,9.38,0.01,14.68" id="Ske2b0jhe3j" kvg:type="㇑a" transform="matrix(1,0,0,1,1096,-4)" xmlns:kvg="http://kanjivg.tagaini.net"></path><path class="stroke_order_diagram--existing_path" d="M15.18,45.49c7.89-1.31,14.93-2.52,22.6-3.79c2.64-0.44,3.84,0.62,3.47,3.38c-0.56,4.15-1.51,8.42-2.69,14.09" id="Ske2b0jhe3k" kvg:type="㇕b" transform="matrix(1,0,0,1,1096,-4)" xmlns:kvg="http://kanjivg.tagaini.net"></path><path class="stroke_order_diagram--existing_path" d="M15.28,64.04c2.64-0.57,14.43-2.61,21.24-3.69c1.86-0.3,3.11-0.37,3.97-0.37" id="Ske2b0jhe3l" kvg:type="㇐b" transform="matrix(1,0,0,1,1096,-4)" xmlns:kvg="http://kanjivg.tagaini.net"></path><path class="stroke_order_diagram--existing_path" d="M27.92,63.93c0.76,0.76,0.93,1.94,0.93,2.98c0,2.34-0.09,12.59-0.09,18.09" id="Ske2b0jhe3m" kvg:type="㇑a" transform="matrix(1,0,0,1,1096,-4)" xmlns:kvg="http://kanjivg.tagaini.net"></path><path class="stroke_order_diagram--existing_path" d="M15.25,87.88c5.5-0.62,13.34-1.94,21-2.84c1.54-0.18,3.75-0.39,5.47-0.39" id="Ske2b0jhe3n" kvg:type="㇐b" transform="matrix(1,0,0,1,1096,-4)" xmlns:kvg="http://kanjivg.tagaini.net"></path><path class="stroke_order_diagram--existing_path" d="M59.28,13.14c0.32,1.23,0.25,2.25-0.14,3.4c-2.03,5.9-5.75,13.96-10.58,21.67" id="Ske2b0jhe3o" kvg:type="㇒" transform="matrix(1,0,0,1,1096,-4)" xmlns:kvg="http://kanjivg.tagaini.net"></path><path class="stroke_order_diagram--existing_path" d="M57,29.64c2.25,0.11,4.24-0.17,6.13-0.46c6.87-1.05,13.49-3.05,20.01-4.43c1.9-0.4,3.46-0.45,5.36,0.01" id="Ske2b0jhe3p" kvg:type="㇐" transform="matrix(1,0,0,1,1096,-4)" xmlns:kvg="http://kanjivg.tagaini.net"></path><path class="stroke_order_diagram--existing_path" d="M52.27,42.5c0.87,0.87,1.41,2.05,1.58,3.26c0.78,5.11,1.06,7.84,1.85,12.96c0.16,1.05,0.33,2.08,0.51,3.06" id="Ske2b0jhe3q" kvg:type="㇑" transform="matrix(1,0,0,1,1096,-4)" xmlns:kvg="http://kanjivg.tagaini.net"></path><path class="stroke_order_diagram--existing_path" d="M54.22,43.52c10.6-1.51,21.41-3.2,27.53-3.79c3.02-0.29,4.61,0.85,3.73,4.14c-1.02,3.79-1.67,7.39-3.34,12.63" id="Ske2b0jhe3r" kvg:type="㇕b" transform="matrix(1,0,0,1,1096,-4)" xmlns:kvg="http://kanjivg.tagaini.net"></path><path class="stroke_order_diagram--current_path" d="M57.45,59.98c5.98-0.47,14.45-1.74,22.82-2.61c1.21-0.13,2.42-0.24,3.61-0.35" id="kvg:081e8-s12" kvg:type="㇐b" transform="matrix(1,0,0,1,1096,-4)" xmlns:kvg="http://kanjivg.tagaini.net"></path><path class="stroke_order_diagram--current_path" d="M57.45,59.98c5.98-0.47,14.45-1.74,22.82-2.61c1.21-0.13,2.42-0.24,3.61-0.35" id="Ske2b0jhe3t" kvg:type="㇐b" transform="matrix(1,0,0,1,1096,-4)" xmlns:kvg="http://kanjivg.tagaini.net"></path><circle class="stroke_order_diagram--path_start" cx="57.45" cy="59.98" r="4" transform="matrix(1,0,0,1,1096,-4)"></circle><line class="stroke_order_diagram--guide_line" x1="1250" x2="1250" y1="1" y2="99"></line><line class="stroke_order_diagram--bounding_box" x1="1299" x2="1299" y1="1" y2="99"></line><path class="stroke_order_diagram--existing_path" d="M12.63,23.33c0.83,0.84,1.18,1.83,1.18,2.98c0,0.61-0.04,39.05-0.05,59.95c0,2.49,0,4.73,0,6.62" id="Ske2b0jhe3w" kvg:type="㇑" transform="matrix(1,0,0,1,1196,-4)" xmlns:kvg="http://kanjivg.tagaini.net"></path><path class="stroke_order_diagram--existing_path" d="M14.67,24.66c6.96-1.28,14.33-2.41,24.21-3.61c0.97-0.12,3.51-0.16,4.54,0.21" id="Ske2b0jhe3x" kvg:type="㇐b" transform="matrix(1,0,0,1,1196,-4)" xmlns:kvg="http://kanjivg.tagaini.net"></path><path class="stroke_order_diagram--existing_path" d="M28.44,24.59c0.74,0.74,0.93,1.78,0.93,2.73c0,0.85,0.01,9.38,0.01,14.68" id="Ske2b0jhe3y" kvg:type="㇑a" transform="matrix(1,0,0,1,1196,-4)" xmlns:kvg="http://kanjivg.tagaini.net"></path><path class="stroke_order_diagram--existing_path" d="M15.18,45.49c7.89-1.31,14.93-2.52,22.6-3.79c2.64-0.44,3.84,0.62,3.47,3.38c-0.56,4.15-1.51,8.42-2.69,14.09" id="Ske2b0jhe3z" kvg:type="㇕b" transform="matrix(1,0,0,1,1196,-4)" xmlns:kvg="http://kanjivg.tagaini.net"></path><path class="stroke_order_diagram--existing_path" d="M15.28,64.04c2.64-0.57,14.43-2.61,21.24-3.69c1.86-0.3,3.11-0.37,3.97-0.37" id="Ske2b0jhe40" kvg:type="㇐b" transform="matrix(1,0,0,1,1196,-4)" xmlns:kvg="http://kanjivg.tagaini.net"></path><path class="stroke_order_diagram--existing_path" d="M27.92,63.93c0.76,0.76,0.93,1.94,0.93,2.98c0,2.34-0.09,12.59-0.09,18.09" id="Ske2b0jhe41" kvg:type="㇑a" transform="matrix(1,0,0,1,1196,-4)" xmlns:kvg="http://kanjivg.tagaini.net"></path><path class="stroke_order_diagram--existing_path" d="M15.25,87.88c5.5-0.62,13.34-1.94,21-2.84c1.54-0.18,3.75-0.39,5.47-0.39" id="Ske2b0jhe42" kvg:type="㇐b" transform="matrix(1,0,0,1,1196,-4)" xmlns:kvg="http://kanjivg.tagaini.net"></path><path class="stroke_order_diagram--existing_path" d="M59.28,13.14c0.32,1.23,0.25,2.25-0.14,3.4c-2.03,5.9-5.75,13.96-10.58,21.67" id="Ske2b0jhe43" kvg:type="㇒" transform="matrix(1,0,0,1,1196,-4)" xmlns:kvg="http://kanjivg.tagaini.net"></path><path class="stroke_order_diagram--existing_path" d="M57,29.64c2.25,0.11,4.24-0.17,6.13-0.46c6.87-1.05,13.49-3.05,20.01-4.43c1.9-0.4,3.46-0.45,5.36,0.01" id="Ske2b0jhe44" kvg:type="㇐" transform="matrix(1,0,0,1,1196,-4)" xmlns:kvg="http://kanjivg.tagaini.net"></path><path class="stroke_order_diagram--existing_path" d="M52.27,42.5c0.87,0.87,1.41,2.05,1.58,3.26c0.78,5.11,1.06,7.84,1.85,12.96c0.16,1.05,0.33,2.08,0.51,3.06" id="Ske2b0jhe45" kvg:type="㇑" transform="matrix(1,0,0,1,1196,-4)" xmlns:kvg="http://kanjivg.tagaini.net"></path><path class="stroke_order_diagram--existing_path" d="M54.22,43.52c10.6-1.51,21.41-3.2,27.53-3.79c3.02-0.29,4.61,0.85,3.73,4.14c-1.02,3.79-1.67,7.39-3.34,12.63" id="Ske2b0jhe46" kvg:type="㇕b" transform="matrix(1,0,0,1,1196,-4)" xmlns:kvg="http://kanjivg.tagaini.net"></path><path class="stroke_order_diagram--existing_path" d="M57.45,59.98c5.98-0.47,14.45-1.74,22.82-2.61c1.21-0.13,2.42-0.24,3.61-0.35" id="Ske2b0jhe47" kvg:type="㇐b" transform="matrix(1,0,0,1,1196,-4)" xmlns:kvg="http://kanjivg.tagaini.net"></path><path class="stroke_order_diagram--current_path" d="M45.75,72.45c0.84,0.83,1.12,1.55,1.29,2.81c0.59,4.51,1.1,10.08,1.61,15.5c0.12,1.26,0.25,2.51,0.4,3.74" id="kvg:081e8-s13" kvg:type="㇑" transform="matrix(1,0,0,1,1196,-4)" xmlns:kvg="http://kanjivg.tagaini.net"></path><path class="stroke_order_diagram--current_path" d="M45.75,72.45c0.84,0.83,1.12,1.55,1.29,2.81c0.59,4.51,1.1,10.08,1.61,15.5c0.12,1.26,0.25,2.51,0.4,3.74" id="Ske2b0jhe49" kvg:type="㇑" transform="matrix(1,0,0,1,1196,-4)" xmlns:kvg="http://kanjivg.tagaini.net"></path><circle class="stroke_order_diagram--path_start" cx="45.75" cy="72.45" r="4" transform="matrix(1,0,0,1,1196,-4)"></circle><line class="stroke_order_diagram--guide_line" x1="1350" x2="1350" y1="1" y2="99"></line><line class="stroke_order_diagram--bounding_box" x1="1399" x2="1399" y1="1" y2="99"></line><path class="stroke_order_diagram--existing_path" d="M12.63,23.33c0.83,0.84,1.18,1.83,1.18,2.98c0,0.61-0.04,39.05-0.05,59.95c0,2.49,0,4.73,0,6.62" id="Ske2b0jhe4c" kvg:type="㇑" transform="matrix(1,0,0,1,1296,-4)" xmlns:kvg="http://kanjivg.tagaini.net"></path><path class="stroke_order_diagram--existing_path" d="M14.67,24.66c6.96-1.28,14.33-2.41,24.21-3.61c0.97-0.12,3.51-0.16,4.54,0.21" id="Ske2b0jhe4d" kvg:type="㇐b" transform="matrix(1,0,0,1,1296,-4)" xmlns:kvg="http://kanjivg.tagaini.net"></path><path class="stroke_order_diagram--existing_path" d="M28.44,24.59c0.74,0.74,0.93,1.78,0.93,2.73c0,0.85,0.01,9.38,0.01,14.68" id="Ske2b0jhe4e" kvg:type="㇑a" transform="matrix(1,0,0,1,1296,-4)" xmlns:kvg="http://kanjivg.tagaini.net"></path><path class="stroke_order_diagram--existing_path" d="M15.18,45.49c7.89-1.31,14.93-2.52,22.6-3.79c2.64-0.44,3.84,0.62,3.47,3.38c-0.56,4.15-1.51,8.42-2.69,14.09" id="Ske2b0jhe4f" kvg:type="㇕b" transform="matrix(1,0,0,1,1296,-4)" xmlns:kvg="http://kanjivg.tagaini.net"></path><path class="stroke_order_diagram--existing_path" d="M15.28,64.04c2.64-0.57,14.43-2.61,21.24-3.69c1.86-0.3,3.11-0.37,3.97-0.37" id="Ske2b0jhe4g" kvg:type="㇐b" transform="matrix(1,0,0,1,1296,-4)" xmlns:kvg="http://kanjivg.tagaini.net"></path><path class="stroke_order_diagram--existing_path" d="M27.92,63.93c0.76,0.76,0.93,1.94,0.93,2.98c0,2.34-0.09,12.59-0.09,18.09" id="Ske2b0jhe4h" kvg:type="㇑a" transform="matrix(1,0,0,1,1296,-4)" xmlns:kvg="http://kanjivg.tagaini.net"></path><path class="stroke_order_diagram--existing_path" d="M15.25,87.88c5.5-0.62,13.34-1.94,21-2.84c1.54-0.18,3.75-0.39,5.47-0.39" id="Ske2b0jhe4i" kvg:type="㇐b" transform="matrix(1,0,0,1,1296,-4)" xmlns:kvg="http://kanjivg.tagaini.net"></path><path class="stroke_order_diagram--existing_path" d="M59.28,13.14c0.32,1.23,0.25,2.25-0.14,3.4c-2.03,5.9-5.75,13.96-10.58,21.67" id="Ske2b0jhe4j" kvg:type="㇒" transform="matrix(1,0,0,1,1296,-4)" xmlns:kvg="http://kanjivg.tagaini.net"></path><path class="stroke_order_diagram--existing_path" d="M57,29.64c2.25,0.11,4.24-0.17,6.13-0.46c6.87-1.05,13.49-3.05,20.01-4.43c1.9-0.4,3.46-0.45,5.36,0.01" id="Ske2b0jhe4k" kvg:type="㇐" transform="matrix(1,0,0,1,1296,-4)" xmlns:kvg="http://kanjivg.tagaini.net"></path><path class="stroke_order_diagram--existing_path" d="M52.27,42.5c0.87,0.87,1.41,2.05,1.58,3.26c0.78,5.11,1.06,7.84,1.85,12.96c0.16,1.05,0.33,2.08,0.51,3.06" id="Ske2b0jhe4l" kvg:type="㇑" transform="matrix(1,0,0,1,1296,-4)" xmlns:kvg="http://kanjivg.tagaini.net"></path><path class="stroke_order_diagram--existing_path" d="M54.22,43.52c10.6-1.51,21.41-3.2,27.53-3.79c3.02-0.29,4.61,0.85,3.73,4.14c-1.02,3.79-1.67,7.39-3.34,12.63" id="Ske2b0jhe4m" kvg:type="㇕b" transform="matrix(1,0,0,1,1296,-4)" xmlns:kvg="http://kanjivg.tagaini.net"></path><path class="stroke_order_diagram--existing_path" d="M57.45,59.98c5.98-0.47,14.45-1.74,22.82-2.61c1.21-0.13,2.42-0.24,3.61-0.35" id="Ske2b0jhe4n" kvg:type="㇐b" transform="matrix(1,0,0,1,1296,-4)" xmlns:kvg="http://kanjivg.tagaini.net"></path><path class="stroke_order_diagram--existing_path" d="M45.75,72.45c0.84,0.83,1.12,1.55,1.29,2.81c0.59,4.51,1.1,10.08,1.61,15.5c0.12,1.26,0.25,2.51,0.4,3.74" id="Ske2b0jhe4o" kvg:type="㇑" transform="matrix(1,0,0,1,1296,-4)" xmlns:kvg="http://kanjivg.tagaini.net"></path><path class="stroke_order_diagram--current_path" d="M48.21,73.82c6.27-0.83,10.94-1.22,14.8-1.57c2.94-0.27,4.13,0.57,3.55,3.64c-0.8,4.17-1.57,9.15-2.77,14.66" id="kvg:081e8-s14" kvg:type="㇕b" transform="matrix(1,0,0,1,1296,-4)" xmlns:kvg="http://kanjivg.tagaini.net"></path><path class="stroke_order_diagram--current_path" d="M48.21,73.82c6.27-0.83,10.94-1.22,14.8-1.57c2.94-0.27,4.13,0.57,3.55,3.64c-0.8,4.17-1.57,9.15-2.77,14.66" id="Ske2b0jhe4q" kvg:type="㇕b" transform="matrix(1,0,0,1,1296,-4)" xmlns:kvg="http://kanjivg.tagaini.net"></path><circle class="stroke_order_diagram--path_start" cx="48.21" cy="73.82" r="4" transform="matrix(1,0,0,1,1296,-4)"></circle><line class="stroke_order_diagram--guide_line" x1="1450" x2="1450" y1="1" y2="99"></line><line class="stroke_order_diagram--bounding_box" x1="1499" x2="1499" y1="1" y2="99"></line><path class="stroke_order_diagram--existing_path" d="M12.63,23.33c0.83,0.84,1.18,1.83,1.18,2.98c0,0.61-0.04,39.05-0.05,59.95c0,2.49,0,4.73,0,6.62" id="Ske2b0jhe4t" kvg:type="㇑" transform="matrix(1,0,0,1,1396,-4)" xmlns:kvg="http://kanjivg.tagaini.net"></path><path class="stroke_order_diagram--existing_path" d="M14.67,24.66c6.96-1.28,14.33-2.41,24.21-3.61c0.97-0.12,3.51-0.16,4.54,0.21" id="Ske2b0jhe4u" kvg:type="㇐b" transform="matrix(1,0,0,1,1396,-4)" xmlns:kvg="http://kanjivg.tagaini.net"></path><path class="stroke_order_diagram--existing_path" d="M28.44,24.59c0.74,0.74,0.93,1.78,0.93,2.73c0,0.85,0.01,9.38,0.01,14.68" id="Ske2b0jhe4v" kvg:type="㇑a" transform="matrix(1,0,0,1,1396,-4)" xmlns:kvg="http://kanjivg.tagaini.net"></path><path class="stroke_order_diagram--existing_path" d="M15.18,45.49c7.89-1.31,14.93-2.52,22.6-3.79c2.64-0.44,3.84,0.62,3.47,3.38c-0.56,4.15-1.51,8.42-2.69,14.09" id="Ske2b0jhe4w" kvg:type="㇕b" transform="matrix(1,0,0,1,1396,-4)" xmlns:kvg="http://kanjivg.tagaini.net"></path><path class="stroke_order_diagram--existing_path" d="M15.28,64.04c2.64-0.57,14.43-2.61,21.24-3.69c1.86-0.3,3.11-0.37,3.97-0.37" id="Ske2b0jhe4x" kvg:type="㇐b" transform="matrix(1,0,0,1,1396,-4)" xmlns:kvg="http://kanjivg.tagaini.net"></path><path class="stroke_order_diagram--existing_path" d="M27.92,63.93c0.76,0.76,0.93,1.94,0.93,2.98c0,2.34-0.09,12.59-0.09,18.09" id="Ske2b0jhe4y" kvg:type="㇑a" transform="matrix(1,0,0,1,1396,-4)" xmlns:kvg="http://kanjivg.tagaini.net"></path><path class="stroke_order_diagram--existing_path" d="M15.25,87.88c5.5-0.62,13.34-1.94,21-2.84c1.54-0.18,3.75-0.39,5.47-0.39" id="Ske2b0jhe4z" kvg:type="㇐b" transform="matrix(1,0,0,1,1396,-4)" xmlns:kvg="http://kanjivg.tagaini.net"></path><path class="stroke_order_diagram--existing_path" d="M59.28,13.14c0.32,1.23,0.25,2.25-0.14,3.4c-2.03,5.9-5.75,13.96-10.58,21.67" id="Ske2b0jhe50" kvg:type="㇒" transform="matrix(1,0,0,1,1396,-4)" xmlns:kvg="http://kanjivg.tagaini.net"></path><path class="stroke_order_diagram--existing_path" d="M57,29.64c2.25,0.11,4.24-0.17,6.13-0.46c6.87-1.05,13.49-3.05,20.01-4.43c1.9-0.4,3.46-0.45,5.36,0.01" id="Ske2b0jhe51" kvg:type="㇐" transform="matrix(1,0,0,1,1396,-4)" xmlns:kvg="http://kanjivg.tagaini.net"></path><path class="stroke_order_diagram--existing_path" d="M52.27,42.5c0.87,0.87,1.41,2.05,1.58,3.26c0.78,5.11,1.06,7.84,1.85,12.96c0.16,1.05,0.33,2.08,0.51,3.06" id="Ske2b0jhe52" kvg:type="㇑" transform="matrix(1,0,0,1,1396,-4)" xmlns:kvg="http://kanjivg.tagaini.net"></path><path class="stroke_order_diagram--existing_path" d="M54.22,43.52c10.6-1.51,21.41-3.2,27.53-3.79c3.02-0.29,4.61,0.85,3.73,4.14c-1.02,3.79-1.67,7.39-3.34,12.63" id="Ske2b0jhe53" kvg:type="㇕b" transform="matrix(1,0,0,1,1396,-4)" xmlns:kvg="http://kanjivg.tagaini.net"></path><path class="stroke_order_diagram--existing_path" d="M57.45,59.98c5.98-0.47,14.45-1.74,22.82-2.61c1.21-0.13,2.42-0.24,3.61-0.35" id="Ske2b0jhe54" kvg:type="㇐b" transform="matrix(1,0,0,1,1396,-4)" xmlns:kvg="http://kanjivg.tagaini.net"></path><path class="stroke_order_diagram--existing_path" d="M45.75,72.45c0.84,0.83,1.12,1.55,1.29,2.81c0.59,4.51,1.1,10.08,1.61,15.5c0.12,1.26,0.25,2.51,0.4,3.74" id="Ske2b0jhe55" kvg:type="㇑" transform="matrix(1,0,0,1,1396,-4)" xmlns:kvg="http://kanjivg.tagaini.net"></path><path class="stroke_order_diagram--existing_path" d="M48.21,73.82c6.27-0.83,10.94-1.22,14.8-1.57c2.94-0.27,4.13,0.57,3.55,3.64c-0.8,4.17-1.57,9.15-2.77,14.66" id="Ske2b0jhe56" kvg:type="㇕b" transform="matrix(1,0,0,1,1396,-4)" xmlns:kvg="http://kanjivg.tagaini.net"></path><path class="stroke_order_diagram--current_path" d="M49.97,92.64c4.26-0.49,5.74-0.42,12.29-1.01c0.96-0.09,2.01-0.18,3.17-0.29" id="kvg:081e8-s15" kvg:type="㇐b" transform="matrix(1,0,0,1,1396,-4)" xmlns:kvg="http://kanjivg.tagaini.net"></path><path class="stroke_order_diagram--current_path" d="M49.97,92.64c4.26-0.49,5.74-0.42,12.29-1.01c0.96-0.09,2.01-0.18,3.17-0.29" id="Ske2b0jhe58" kvg:type="㇐b" transform="matrix(1,0,0,1,1396,-4)" xmlns:kvg="http://kanjivg.tagaini.net"></path><circle class="stroke_order_diagram--path_start" cx="49.97" cy="92.64" r="4" transform="matrix(1,0,0,1,1396,-4)"></circle><line class="stroke_order_diagram--guide_line" x1="1550" x2="1550" y1="1" y2="99"></line><line class="stroke_order_diagram--bounding_box" x1="1599" x2="1599" y1="1" y2="99"></line><path class="stroke_order_diagram--existing_path" d="M12.63,23.33c0.83,0.84,1.18,1.83,1.18,2.98c0,0.61-0.04,39.05-0.05,59.95c0,2.49,0,4.73,0,6.62" id="Ske2b0jhe5b" kvg:type="㇑" transform="matrix(1,0,0,1,1496,-4)" xmlns:kvg="http://kanjivg.tagaini.net"></path><path class="stroke_order_diagram--existing_path" d="M14.67,24.66c6.96-1.28,14.33-2.41,24.21-3.61c0.97-0.12,3.51-0.16,4.54,0.21" id="Ske2b0jhe5c" kvg:type="㇐b" transform="matrix(1,0,0,1,1496,-4)" xmlns:kvg="http://kanjivg.tagaini.net"></path><path class="stroke_order_diagram--existing_path" d="M28.44,24.59c0.74,0.74,0.93,1.78,0.93,2.73c0,0.85,0.01,9.38,0.01,14.68" id="Ske2b0jhe5d" kvg:type="㇑a" transform="matrix(1,0,0,1,1496,-4)" xmlns:kvg="http://kanjivg.tagaini.net"></path><path class="stroke_order_diagram--existing_path" d="M15.18,45.49c7.89-1.31,14.93-2.52,22.6-3.79c2.64-0.44,3.84,0.62,3.47,3.38c-0.56,4.15-1.51,8.42-2.69,14.09" id="Ske2b0jhe5e" kvg:type="㇕b" transform="matrix(1,0,0,1,1496,-4)" xmlns:kvg="http://kanjivg.tagaini.net"></path><path class="stroke_order_diagram--existing_path" d="M15.28,64.04c2.64-0.57,14.43-2.61,21.24-3.69c1.86-0.3,3.11-0.37,3.97-0.37" id="Ske2b0jhe5f" kvg:type="㇐b" transform="matrix(1,0,0,1,1496,-4)" xmlns:kvg="http://kanjivg.tagaini.net"></path><path class="stroke_order_diagram--existing_path" d="M27.92,63.93c0.76,0.76,0.93,1.94,0.93,2.98c0,2.34-0.09,12.59-0.09,18.09" id="Ske2b0jhe5g" kvg:type="㇑a" transform="matrix(1,0,0,1,1496,-4)" xmlns:kvg="http://kanjivg.tagaini.net"></path><path class="stroke_order_diagram--existing_path" d="M15.25,87.88c5.5-0.62,13.34-1.94,21-2.84c1.54-0.18,3.75-0.39,5.47-0.39" id="Ske2b0jhe5h" kvg:type="㇐b" transform="matrix(1,0,0,1,1496,-4)" xmlns:kvg="http://kanjivg.tagaini.net"></path><path class="stroke_order_diagram--existing_path" d="M59.28,13.14c0.32,1.23,0.25,2.25-0.14,3.4c-2.03,5.9-5.75,13.96-10.58,21.67" id="Ske2b0jhe5i" kvg:type="㇒" transform="matrix(1,0,0,1,1496,-4)" xmlns:kvg="http://kanjivg.tagaini.net"></path><path class="stroke_order_diagram--existing_path" d="M57,29.64c2.25,0.11,4.24-0.17,6.13-0.46c6.87-1.05,13.49-3.05,20.01-4.43c1.9-0.4,3.46-0.45,5.36,0.01" id="Ske2b0jhe5j" kvg:type="㇐" transform="matrix(1,0,0,1,1496,-4)" xmlns:kvg="http://kanjivg.tagaini.net"></path><path class="stroke_order_diagram--existing_path" d="M52.27,42.5c0.87,0.87,1.41,2.05,1.58,3.26c0.78,5.11,1.06,7.84,1.85,12.96c0.16,1.05,0.33,2.08,0.51,3.06" id="Ske2b0jhe5k" kvg:type="㇑" transform="matrix(1,0,0,1,1496,-4)" xmlns:kvg="http://kanjivg.tagaini.net"></path><path class="stroke_order_diagram--existing_path" d="M54.22,43.52c10.6-1.51,21.41-3.2,27.53-3.79c3.02-0.29,4.61,0.85,3.73,4.14c-1.02,3.79-1.67,7.39-3.34,12.63" id="Ske2b0jhe5l" kvg:type="㇕b" transform="matrix(1,0,0,1,1496,-4)" xmlns:kvg="http://kanjivg.tagaini.net"></path><path class="stroke_order_diagram--existing_path" d="M57.45,59.98c5.98-0.47,14.45-1.74,22.82-2.61c1.21-0.13,2.42-0.24,3.61-0.35" id="Ske2b0jhe5m" kvg:type="㇐b" transform="matrix(1,0,0,1,1496,-4)" xmlns:kvg="http://kanjivg.tagaini.net"></path><path class="stroke_order_diagram--existing_path" d="M45.75,72.45c0.84,0.83,1.12,1.55,1.29,2.81c0.59,4.51,1.1,10.08,1.61,15.5c0.12,1.26,0.25,2.51,0.4,3.74" id="Ske2b0jhe5n" kvg:type="㇑" transform="matrix(1,0,0,1,1496,-4)" xmlns:kvg="http://kanjivg.tagaini.net"></path><path class="stroke_order_diagram--existing_path" d="M48.21,73.82c6.27-0.83,10.94-1.22,14.8-1.57c2.94-0.27,4.13,0.57,3.55,3.64c-0.8,4.17-1.57,9.15-2.77,14.66" id="Ske2b0jhe5o" kvg:type="㇕b" transform="matrix(1,0,0,1,1496,-4)" xmlns:kvg="http://kanjivg.tagaini.net"></path><path class="stroke_order_diagram--existing_path" d="M49.97,92.64c4.26-0.49,5.74-0.42,12.29-1.01c0.96-0.09,2.01-0.18,3.17-0.29" id="Ske2b0jhe5p" kvg:type="㇐b" transform="matrix(1,0,0,1,1496,-4)" xmlns:kvg="http://kanjivg.tagaini.net"></path><path class="stroke_order_diagram--current_path" d="M74.25,69.45c0.84,0.84,1.09,1.68,1.26,2.77c0.86,5.4,1.6,10.32,2.31,17.03c0.14,1.3,0.27,2.56,0.39,3.75" id="kvg:081e8-s16" kvg:type="㇑" transform="matrix(1,0,0,1,1496,-4)" xmlns:kvg="http://kanjivg.tagaini.net"></path><path class="stroke_order_diagram--current_path" d="M74.25,69.45c0.84,0.84,1.09,1.68,1.26,2.77c0.86,5.4,1.6,10.32,2.31,17.03c0.14,1.3,0.27,2.56,0.39,3.75" id="Ske2b0jhe5r" kvg:type="㇑" transform="matrix(1,0,0,1,1496,-4)" xmlns:kvg="http://kanjivg.tagaini.net"></path><circle class="stroke_order_diagram--path_start" cx="74.25" cy="69.45" r="4" transform="matrix(1,0,0,1,1496,-4)"></circle><line class="stroke_order_diagram--guide_line" x1="1650" x2="1650" y1="1" y2="99"></line><line class="stroke_order_diagram--bounding_box" x1="1699" x2="1699" y1="1" y2="99"></line><path class="stroke_order_diagram--existing_path" d="M12.63,23.33c0.83,0.84,1.18,1.83,1.18,2.98c0,0.61-0.04,39.05-0.05,59.95c0,2.49,0,4.73,0,6.62" id="Ske2b0jhe5u" kvg:type="㇑" transform="matrix(1,0,0,1,1596,-4)" xmlns:kvg="http://kanjivg.tagaini.net"></path><path class="stroke_order_diagram--existing_path" d="M14.67,24.66c6.96-1.28,14.33-2.41,24.21-3.61c0.97-0.12,3.51-0.16,4.54,0.21" id="Ske2b0jhe5v" kvg:type="㇐b" transform="matrix(1,0,0,1,1596,-4)" xmlns:kvg="http://kanjivg.tagaini.net"></path><path class="stroke_order_diagram--existing_path" d="M28.44,24.59c0.74,0.74,0.93,1.78,0.93,2.73c0,0.85,0.01,9.38,0.01,14.68" id="Ske2b0jhe5w" kvg:type="㇑a" transform="matrix(1,0,0,1,1596,-4)" xmlns:kvg="http://kanjivg.tagaini.net"></path><path class="stroke_order_diagram--existing_path" d="M15.18,45.49c7.89-1.31,14.93-2.52,22.6-3.79c2.64-0.44,3.84,0.62,3.47,3.38c-0.56,4.15-1.51,8.42-2.69,14.09" id="Ske2b0jhe5x" kvg:type="㇕b" transform="matrix(1,0,0,1,1596,-4)" xmlns:kvg="http://kanjivg.tagaini.net"></path><path class="stroke_order_diagram--existing_path" d="M15.28,64.04c2.64-0.57,14.43-2.61,21.24-3.69c1.86-0.3,3.11-0.37,3.97-0.37" id="Ske2b0jhe5y" kvg:type="㇐b" transform="matrix(1,0,0,1,1596,-4)" xmlns:kvg="http://kanjivg.tagaini.net"></path><path class="stroke_order_diagram--existing_path" d="M27.92,63.93c0.76,0.76,0.93,1.94,0.93,2.98c0,2.34-0.09,12.59-0.09,18.09" id="Ske2b0jhe5z" kvg:type="㇑a" transform="matrix(1,0,0,1,1596,-4)" xmlns:kvg="http://kanjivg.tagaini.net"></path><path class="stroke_order_diagram--existing_path" d="M15.25,87.88c5.5-0.62,13.34-1.94,21-2.84c1.54-0.18,3.75-0.39,5.47-0.39" id="Ske2b0jhe60" kvg:type="㇐b" transform="matrix(1,0,0,1,1596,-4)" xmlns:kvg="http://kanjivg.tagaini.net"></path><path class="stroke_order_diagram--existing_path" d="M59.28,13.14c0.32,1.23,0.25,2.25-0.14,3.4c-2.03,5.9-5.75,13.96-10.58,21.67" id="Ske2b0jhe61" kvg:type="㇒" transform="matrix(1,0,0,1,1596,-4)" xmlns:kvg="http://kanjivg.tagaini.net"></path><path class="stroke_order_diagram--existing_path" d="M57,29.64c2.25,0.11,4.24-0.17,6.13-0.46c6.87-1.05,13.49-3.05,20.01-4.43c1.9-0.4,3.46-0.45,5.36,0.01" id="Ske2b0jhe62" kvg:type="㇐" transform="matrix(1,0,0,1,1596,-4)" xmlns:kvg="http://kanjivg.tagaini.net"></path><path class="stroke_order_diagram--existing_path" d="M52.27,42.5c0.87,0.87,1.41,2.05,1.58,3.26c0.78,5.11,1.06,7.84,1.85,12.96c0.16,1.05,0.33,2.08,0.51,3.06" id="Ske2b0jhe63" kvg:type="㇑" transform="matrix(1,0,0,1,1596,-4)" xmlns:kvg="http://kanjivg.tagaini.net"></path><path class="stroke_order_diagram--existing_path" d="M54.22,43.52c10.6-1.51,21.41-3.2,27.53-3.79c3.02-0.29,4.61,0.85,3.73,4.14c-1.02,3.79-1.67,7.39-3.34,12.63" id="Ske2b0jhe64" kvg:type="㇕b" transform="matrix(1,0,0,1,1596,-4)" xmlns:kvg="http://kanjivg.tagaini.net"></path><path class="stroke_order_diagram--existing_path" d="M57.45,59.98c5.98-0.47,14.45-1.74,22.82-2.61c1.21-0.13,2.42-0.24,3.61-0.35" id="Ske2b0jhe65" kvg:type="㇐b" transform="matrix(1,0,0,1,1596,-4)" xmlns:kvg="http://kanjivg.tagaini.net"></path><path class="stroke_order_diagram--existing_path" d="M45.75,72.45c0.84,0.83,1.12,1.55,1.29,2.81c0.59,4.51,1.1,10.08,1.61,15.5c0.12,1.26,0.25,2.51,0.4,3.74" id="Ske2b0jhe66" kvg:type="㇑" transform="matrix(1,0,0,1,1596,-4)" xmlns:kvg="http://kanjivg.tagaini.net"></path><path class="stroke_order_diagram--existing_path" d="M48.21,73.82c6.27-0.83,10.94-1.22,14.8-1.57c2.94-0.27,4.13,0.57,3.55,3.64c-0.8,4.17-1.57,9.15-2.77,14.66" id="Ske2b0jhe67" kvg:type="㇕b" transform="matrix(1,0,0,1,1596,-4)" xmlns:kvg="http://kanjivg.tagaini.net"></path><path class="stroke_order_diagram--existing_path" d="M49.97,92.64c4.26-0.49,5.74-0.42,12.29-1.01c0.96-0.09,2.01-0.18,3.17-0.29" id="Ske2b0jhe68" kvg:type="㇐b" transform="matrix(1,0,0,1,1596,-4)" xmlns:kvg="http://kanjivg.tagaini.net"></path><path class="stroke_order_diagram--existing_path" d="M74.25,69.45c0.84,0.84,1.09,1.68,1.26,2.77c0.86,5.4,1.6,10.32,2.31,17.03c0.14,1.3,0.27,2.56,0.39,3.75" id="Ske2b0jhe69" kvg:type="㇑" transform="matrix(1,0,0,1,1596,-4)" xmlns:kvg="http://kanjivg.tagaini.net"></path><path class="stroke_order_diagram--current_path" d="M76.43,71.3c6.37-1.22,12.64-1.98,16.73-2.52c3.29-0.43,4.81-0.15,4.13,3.6c-0.82,4.52-2.05,10.1-3.1,15.97" id="kvg:081e8-s17" kvg:type="㇕b" transform="matrix(1,0,0,1,1596,-4)" xmlns:kvg="http://kanjivg.tagaini.net"></path><path class="stroke_order_diagram--current_path" d="M76.43,71.3c6.37-1.22,12.64-1.98,16.73-2.52c3.29-0.43,4.81-0.15,4.13,3.6c-0.82,4.52-2.05,10.1-3.1,15.97" id="Ske2b0jhe6b" kvg:type="㇕b" transform="matrix(1,0,0,1,1596,-4)" xmlns:kvg="http://kanjivg.tagaini.net"></path><circle class="stroke_order_diagram--path_start" cx="76.43" cy="71.3" r="4" transform="matrix(1,0,0,1,1596,-4)"></circle><line class="stroke_order_diagram--guide_line" x1="1750" x2="1750" y1="1" y2="99"></line><line class="stroke_order_diagram--bounding_box" x1="1799" x2="1799" y1="1" y2="99"></line><path class="stroke_order_diagram--existing_path" d="M12.63,23.33c0.83,0.84,1.18,1.83,1.18,2.98c0,0.61-0.04,39.05-0.05,59.95c0,2.49,0,4.73,0,6.62" id="Ske2b0jhe6e" kvg:type="㇑" transform="matrix(1,0,0,1,1696,-4)" xmlns:kvg="http://kanjivg.tagaini.net"></path><path class="stroke_order_diagram--existing_path" d="M14.67,24.66c6.96-1.28,14.33-2.41,24.21-3.61c0.97-0.12,3.51-0.16,4.54,0.21" id="Ske2b0jhe6f" kvg:type="㇐b" transform="matrix(1,0,0,1,1696,-4)" xmlns:kvg="http://kanjivg.tagaini.net"></path><path class="stroke_order_diagram--existing_path" d="M28.44,24.59c0.74,0.74,0.93,1.78,0.93,2.73c0,0.85,0.01,9.38,0.01,14.68" id="Ske2b0jhe6g" kvg:type="㇑a" transform="matrix(1,0,0,1,1696,-4)" xmlns:kvg="http://kanjivg.tagaini.net"></path><path class="stroke_order_diagram--existing_path" d="M15.18,45.49c7.89-1.31,14.93-2.52,22.6-3.79c2.64-0.44,3.84,0.62,3.47,3.38c-0.56,4.15-1.51,8.42-2.69,14.09" id="Ske2b0jhe6h" kvg:type="㇕b" transform="matrix(1,0,0,1,1696,-4)" xmlns:kvg="http://kanjivg.tagaini.net"></path><path class="stroke_order_diagram--existing_path" d="M15.28,64.04c2.64-0.57,14.43-2.61,21.24-3.69c1.86-0.3,3.11-0.37,3.97-0.37" id="Ske2b0jhe6i" kvg:type="㇐b" transform="matrix(1,0,0,1,1696,-4)" xmlns:kvg="http://kanjivg.tagaini.net"></path><path class="stroke_order_diagram--existing_path" d="M27.92,63.93c0.76,0.76,0.93,1.94,0.93,2.98c0,2.34-0.09,12.59-0.09,18.09" id="Ske2b0jhe6j" kvg:type="㇑a" transform="matrix(1,0,0,1,1696,-4)" xmlns:kvg="http://kanjivg.tagaini.net"></path><path class="stroke_order_diagram--existing_path" d="M15.25,87.88c5.5-0.62,13.34-1.94,21-2.84c1.54-0.18,3.75-0.39,5.47-0.39" id="Ske2b0jhe6k" kvg:type="㇐b" transform="matrix(1,0,0,1,1696,-4)" xmlns:kvg="http://kanjivg.tagaini.net"></path><path class="stroke_order_diagram--existing_path" d="M59.28,13.14c0.32,1.23,0.25,2.25-0.14,3.4c-2.03,5.9-5.75,13.96-10.58,21.67" id="Ske2b0jhe6l" kvg:type="㇒" transform="matrix(1,0,0,1,1696,-4)" xmlns:kvg="http://kanjivg.tagaini.net"></path><path class="stroke_order_diagram--existing_path" d="M57,29.64c2.25,0.11,4.24-0.17,6.13-0.46c6.87-1.05,13.49-3.05,20.01-4.43c1.9-0.4,3.46-0.45,5.36,0.01" id="Ske2b0jhe6m" kvg:type="㇐" transform="matrix(1,0,0,1,1696,-4)" xmlns:kvg="http://kanjivg.tagaini.net"></path><path class="stroke_order_diagram--existing_path" d="M52.27,42.5c0.87,0.87,1.41,2.05,1.58,3.26c0.78,5.11,1.06,7.84,1.85,12.96c0.16,1.05,0.33,2.08,0.51,3.06" id="Ske2b0jhe6n" kvg:type="㇑" transform="matrix(1,0,0,1,1696,-4)" xmlns:kvg="http://kanjivg.tagaini.net"></path><path class="stroke_order_diagram--existing_path" d="M54.22,43.52c10.6-1.51,21.41-3.2,27.53-3.79c3.02-0.29,4.61,0.85,3.73,4.14c-1.02,3.79-1.67,7.39-3.34,12.63" id="Ske2b0jhe6o" kvg:type="㇕b" transform="matrix(1,0,0,1,1696,-4)" xmlns:kvg="http://kanjivg.tagaini.net"></path><path class="stroke_order_diagram--existing_path" d="M57.45,59.98c5.98-0.47,14.45-1.74,22.82-2.61c1.21-0.13,2.42-0.24,3.61-0.35" id="Ske2b0jhe6p" kvg:type="㇐b" transform="matrix(1,0,0,1,1696,-4)" xmlns:kvg="http://kanjivg.tagaini.net"></path><path class="stroke_order_diagram--existing_path" d="M45.75,72.45c0.84,0.83,1.12,1.55,1.29,2.81c0.59,4.51,1.1,10.08,1.61,15.5c0.12,1.26,0.25,2.51,0.4,3.74" id="Ske2b0jhe6q" kvg:type="㇑" transform="matrix(1,0,0,1,1696,-4)" xmlns:kvg="http://kanjivg.tagaini.net"></path><path class="stroke_order_diagram--existing_path" d="M48.21,73.82c6.27-0.83,10.94-1.22,14.8-1.57c2.94-0.27,4.13,0.57,3.55,3.64c-0.8,4.17-1.57,9.15-2.77,14.66" id="Ske2b0jhe6r" kvg:type="㇕b" transform="matrix(1,0,0,1,1696,-4)" xmlns:kvg="http://kanjivg.tagaini.net"></path><path class="stroke_order_diagram--existing_path" d="M49.97,92.64c4.26-0.49,5.74-0.42,12.29-1.01c0.96-0.09,2.01-0.18,3.17-0.29" id="Ske2b0jhe6s" kvg:type="㇐b" transform="matrix(1,0,0,1,1696,-4)" xmlns:kvg="http://kanjivg.tagaini.net"></path><path class="stroke_order_diagram--existing_path" d="M74.25,69.45c0.84,0.84,1.09,1.68,1.26,2.77c0.86,5.4,1.6,10.32,2.31,17.03c0.14,1.3,0.27,2.56,0.39,3.75" id="Ske2b0jhe6t" kvg:type="㇑" transform="matrix(1,0,0,1,1696,-4)" xmlns:kvg="http://kanjivg.tagaini.net"></path><path class="stroke_order_diagram--existing_path" d="M76.43,71.3c6.37-1.22,12.64-1.98,16.73-2.52c3.29-0.43,4.81-0.15,4.13,3.6c-0.82,4.52-2.05,10.1-3.1,15.97" id="Ske2b0jhe6u" kvg:type="㇕b" transform="matrix(1,0,0,1,1696,-4)" xmlns:kvg="http://kanjivg.tagaini.net"></path><path class="stroke_order_diagram--current_path" d="M78.94,90.37c1.07-0.09,8.48-0.84,13.81-1.4c0.91-0.1,1.91-0.19,3.01-0.27" id="kvg:081e8-s18" kvg:type="㇐b" transform="matrix(1,0,0,1,1696,-4)" xmlns:kvg="http://kanjivg.tagaini.net"></path><path class="stroke_order_diagram--current_path" d="M78.94,90.37c1.07-0.09,8.48-0.84,13.81-1.4c0.91-0.1,1.91-0.19,3.01-0.27" id="Ske2b0jhe6w" kvg:type="㇐b" transform="matrix(1,0,0,1,1696,-4)" xmlns:kvg="http://kanjivg.tagaini.net"></path><circle class="stroke_order_diagram--path_start" cx="78.94" cy="90.37" r="4" transform="matrix(1,0,0,1,1696,-4)"></circle></svg>