<svg class="stroke_order_diagram--svg_container_for_51866284d5dda796580004d3" style="height: 100px; width: 900px;" viewbox="0 0 900 100"><desc>Created with Snap</desc><defs></defs><line class="stroke_order_diagram--bounding_box" x1="1" x2="899" y1="1" y2="1"></line><line class="stroke_order_diagram--bounding_box" x1="1" x2="1" y1="1" y2="99"></line><line class="stroke_order_diagram--bounding_box" x1="1" x2="899" y1="99" y2="99"></line><line class="stroke_order_diagram--guide_line" x1="0" x2="900" y1="50" y2="50"></line><line class="stroke_order_diagram--guide_line" x1="50" x2="50" y1="1" y2="99"></line><line class="stroke_order_diagram--bounding_box" x1="99" x2="99" y1="1" y2="99"></line><path class="stroke_order_diagram--current_path" d="M55.07,8.95c0.38,0.13-0.36,2.33-0.59,2.72c-1.57,2.57-3.18,6.07-6.89,9.45" id="kvg:081ed-s1" kvg:type="㇒" transform="matrix(1,0,0,1,-4,-4)" xmlns:kvg="http://kanjivg.tagaini.net"></path><path class="stroke_order_diagram--current_path" d="M55.07,8.95c0.38,0.13-0.36,2.33-0.59,2.72c-1.57,2.57-3.18,6.07-6.89,9.45" id="Ske1x72s0i" kvg:type="㇒" transform="matrix(1,0,0,1,-4,-4)" xmlns:kvg="http://kanjivg.tagaini.net"></path><circle class="stroke_order_diagram--path_start" cx="55.07" cy="8.95" r="4" transform="matrix(1,0,0,1,-4,-4)"></circle><line class="stroke_order_diagram--guide_line" x1="150" x2="150" y1="1" y2="99"></line><line class="stroke_order_diagram--bounding_box" x1="199" x2="199" y1="1" y2="99"></line><path class="stroke_order_diagram--existing_path" d="M55.07,8.95c0.38,0.13-0.36,2.33-0.59,2.72c-1.57,2.57-3.18,6.07-6.89,9.45" id="Ske1x72s0l" kvg:type="㇒" transform="matrix(1,0,0,1,96,-4)" xmlns:kvg="http://kanjivg.tagaini.net"></path><path class="stroke_order_diagram--current_path" d="M34.94,22.15c1.02,1.02,1.44,2.35,1.54,3.89c0.41,6.37,0.81,19.69,1.48,29.71c0.11,1.72,0.23,3.34,0.35,4.81" id="kvg:081ed-s2" kvg:type="㇑" transform="matrix(1,0,0,1,96,-4)" xmlns:kvg="http://kanjivg.tagaini.net"></path><path class="stroke_order_diagram--current_path" d="M34.94,22.15c1.02,1.02,1.44,2.35,1.54,3.89c0.41,6.37,0.81,19.69,1.48,29.71c0.11,1.72,0.23,3.34,0.35,4.81" id="Ske1x72s0n" kvg:type="㇑" transform="matrix(1,0,0,1,96,-4)" xmlns:kvg="http://kanjivg.tagaini.net"></path><circle class="stroke_order_diagram--path_start" cx="34.94" cy="22.15" r="4" transform="matrix(1,0,0,1,96,-4)"></circle><line class="stroke_order_diagram--guide_line" x1="250" x2="250" y1="1" y2="99"></line><line class="stroke_order_diagram--bounding_box" x1="299" x2="299" y1="1" y2="99"></line><path class="stroke_order_diagram--existing_path" d="M55.07,8.95c0.38,0.13-0.36,2.33-0.59,2.72c-1.57,2.57-3.18,6.07-6.89,9.45" id="Ske1x72s0q" kvg:type="㇒" transform="matrix(1,0,0,1,196,-4)" xmlns:kvg="http://kanjivg.tagaini.net"></path><path class="stroke_order_diagram--existing_path" d="M34.94,22.15c1.02,1.02,1.44,2.35,1.54,3.89c0.41,6.37,0.81,19.69,1.48,29.71c0.11,1.72,0.23,3.34,0.35,4.81" id="Ske1x72s0r" kvg:type="㇑" transform="matrix(1,0,0,1,196,-4)" xmlns:kvg="http://kanjivg.tagaini.net"></path><path class="stroke_order_diagram--current_path" d="M37.26,24c5.24-0.5,31.75-3.22,34.98-3.39c2.69-0.14,4.13,1.27,4.08,3.86c-0.13,6.03-0.71,16.94-1.65,28.57c-0.12,1.47-0.25,2.96-0.38,4.45" id="kvg:081ed-s3" kvg:type="㇕a" transform="matrix(1,0,0,1,196,-4)" xmlns:kvg="http://kanjivg.tagaini.net"></path><path class="stroke_order_diagram--current_path" d="M37.26,24c5.24-0.5,31.75-3.22,34.98-3.39c2.69-0.14,4.13,1.27,4.08,3.86c-0.13,6.03-0.71,16.94-1.65,28.57c-0.12,1.47-0.25,2.96-0.38,4.45" id="Ske1x72s0t" kvg:type="㇕a" transform="matrix(1,0,0,1,196,-4)" xmlns:kvg="http://kanjivg.tagaini.net"></path><circle class="stroke_order_diagram--path_start" cx="37.26" cy="24" r="4" transform="matrix(1,0,0,1,196,-4)"></circle><line class="stroke_order_diagram--guide_line" x1="350" x2="350" y1="1" y2="99"></line><line class="stroke_order_diagram--bounding_box" x1="399" x2="399" y1="1" y2="99"></line><path class="stroke_order_diagram--existing_path" d="M55.07,8.95c0.38,0.13-0.36,2.33-0.59,2.72c-1.57,2.57-3.18,6.07-6.89,9.45" id="Ske1x72s0w" kvg:type="㇒" transform="matrix(1,0,0,1,296,-4)" xmlns:kvg="http://kanjivg.tagaini.net"></path><path class="stroke_order_diagram--existing_path" d="M34.94,22.15c1.02,1.02,1.44,2.35,1.54,3.89c0.41,6.37,0.81,19.69,1.48,29.71c0.11,1.72,0.23,3.34,0.35,4.81" id="Ske1x72s0x" kvg:type="㇑" transform="matrix(1,0,0,1,296,-4)" xmlns:kvg="http://kanjivg.tagaini.net"></path><path class="stroke_order_diagram--existing_path" d="M37.26,24c5.24-0.5,31.75-3.22,34.98-3.39c2.69-0.14,4.13,1.27,4.08,3.86c-0.13,6.03-0.71,16.94-1.65,28.57c-0.12,1.47-0.25,2.96-0.38,4.45" id="Ske1x72s0y" kvg:type="㇕a" transform="matrix(1,0,0,1,296,-4)" xmlns:kvg="http://kanjivg.tagaini.net"></path><path class="stroke_order_diagram--current_path" d="M37.95,35.07c8.42-0.57,29.8-2.57,36.94-2.82" id="kvg:081ed-s4" kvg:type="㇐a" transform="matrix(1,0,0,1,296,-4)" xmlns:kvg="http://kanjivg.tagaini.net"></path><path class="stroke_order_diagram--current_path" d="M37.95,35.07c8.42-0.57,29.8-2.57,36.94-2.82" id="Ske1x72s010" kvg:type="㇐a" transform="matrix(1,0,0,1,296,-4)" xmlns:kvg="http://kanjivg.tagaini.net"></path><circle class="stroke_order_diagram--path_start" cx="37.95" cy="35.07" r="4" transform="matrix(1,0,0,1,296,-4)"></circle><line class="stroke_order_diagram--guide_line" x1="450" x2="450" y1="1" y2="99"></line><line class="stroke_order_diagram--bounding_box" x1="499" x2="499" y1="1" y2="99"></line><path class="stroke_order_diagram--existing_path" d="M55.07,8.95c0.38,0.13-0.36,2.33-0.59,2.72c-1.57,2.57-3.18,6.07-6.89,9.45" id="Ske1x72s013" kvg:type="㇒" transform="matrix(1,0,0,1,396,-4)" xmlns:kvg="http://kanjivg.tagaini.net"></path><path class="stroke_order_diagram--existing_path" d="M34.94,22.15c1.02,1.02,1.44,2.35,1.54,3.89c0.41,6.37,0.81,19.69,1.48,29.71c0.11,1.72,0.23,3.34,0.35,4.81" id="Ske1x72s014" kvg:type="㇑" transform="matrix(1,0,0,1,396,-4)" xmlns:kvg="http://kanjivg.tagaini.net"></path><path class="stroke_order_diagram--existing_path" d="M37.26,24c5.24-0.5,31.75-3.22,34.98-3.39c2.69-0.14,4.13,1.27,4.08,3.86c-0.13,6.03-0.71,16.94-1.65,28.57c-0.12,1.47-0.25,2.96-0.38,4.45" id="Ske1x72s015" kvg:type="㇕a" transform="matrix(1,0,0,1,396,-4)" xmlns:kvg="http://kanjivg.tagaini.net"></path><path class="stroke_order_diagram--existing_path" d="M37.95,35.07c8.42-0.57,29.8-2.57,36.94-2.82" id="Ske1x72s016" kvg:type="㇐a" transform="matrix(1,0,0,1,396,-4)" xmlns:kvg="http://kanjivg.tagaini.net"></path><path class="stroke_order_diagram--current_path" d="M38.49,45.6c10.76-0.85,26.38-2.1,35.98-2.46" id="kvg:081ed-s5" kvg:type="㇐a" transform="matrix(1,0,0,1,396,-4)" xmlns:kvg="http://kanjivg.tagaini.net"></path><path class="stroke_order_diagram--current_path" d="M38.49,45.6c10.76-0.85,26.38-2.1,35.98-2.46" id="Ske1x72s018" kvg:type="㇐a" transform="matrix(1,0,0,1,396,-4)" xmlns:kvg="http://kanjivg.tagaini.net"></path><circle class="stroke_order_diagram--path_start" cx="38.49" cy="45.6" r="4" transform="matrix(1,0,0,1,396,-4)"></circle><line class="stroke_order_diagram--guide_line" x1="550" x2="550" y1="1" y2="99"></line><line class="stroke_order_diagram--bounding_box" x1="599" x2="599" y1="1" y2="99"></line><path class="stroke_order_diagram--existing_path" d="M55.07,8.95c0.38,0.13-0.36,2.33-0.59,2.72c-1.57,2.57-3.18,6.07-6.89,9.45" id="Ske1x72s01b" kvg:type="㇒" transform="matrix(1,0,0,1,496,-4)" xmlns:kvg="http://kanjivg.tagaini.net"></path><path class="stroke_order_diagram--existing_path" d="M34.94,22.15c1.02,1.02,1.44,2.35,1.54,3.89c0.41,6.37,0.81,19.69,1.48,29.71c0.11,1.72,0.23,3.34,0.35,4.81" id="Ske1x72s01c" kvg:type="㇑" transform="matrix(1,0,0,1,496,-4)" xmlns:kvg="http://kanjivg.tagaini.net"></path><path class="stroke_order_diagram--existing_path" d="M37.26,24c5.24-0.5,31.75-3.22,34.98-3.39c2.69-0.14,4.13,1.27,4.08,3.86c-0.13,6.03-0.71,16.94-1.65,28.57c-0.12,1.47-0.25,2.96-0.38,4.45" id="Ske1x72s01d" kvg:type="㇕a" transform="matrix(1,0,0,1,496,-4)" xmlns:kvg="http://kanjivg.tagaini.net"></path><path class="stroke_order_diagram--existing_path" d="M37.95,35.07c8.42-0.57,29.8-2.57,36.94-2.82" id="Ske1x72s01e" kvg:type="㇐a" transform="matrix(1,0,0,1,496,-4)" xmlns:kvg="http://kanjivg.tagaini.net"></path><path class="stroke_order_diagram--existing_path" d="M38.49,45.6c10.76-0.85,26.38-2.1,35.98-2.46" id="Ske1x72s01f" kvg:type="㇐a" transform="matrix(1,0,0,1,496,-4)" xmlns:kvg="http://kanjivg.tagaini.net"></path><path class="stroke_order_diagram--current_path" d="M38.83,56.76c9.05-0.64,22.3-2.01,34.88-2.28" id="kvg:081ed-s6" kvg:type="㇐a" transform="matrix(1,0,0,1,496,-4)" xmlns:kvg="http://kanjivg.tagaini.net"></path><path class="stroke_order_diagram--current_path" d="M38.83,56.76c9.05-0.64,22.3-2.01,34.88-2.28" id="Ske1x72s01h" kvg:type="㇐a" transform="matrix(1,0,0,1,496,-4)" xmlns:kvg="http://kanjivg.tagaini.net"></path><circle class="stroke_order_diagram--path_start" cx="38.83" cy="56.76" r="4" transform="matrix(1,0,0,1,496,-4)"></circle><line class="stroke_order_diagram--guide_line" x1="650" x2="650" y1="1" y2="99"></line><line class="stroke_order_diagram--bounding_box" x1="699" x2="699" y1="1" y2="99"></line><path class="stroke_order_diagram--existing_path" d="M55.07,8.95c0.38,0.13-0.36,2.33-0.59,2.72c-1.57,2.57-3.18,6.07-6.89,9.45" id="Ske1x72s01k" kvg:type="㇒" transform="matrix(1,0,0,1,596,-4)" xmlns:kvg="http://kanjivg.tagaini.net"></path><path class="stroke_order_diagram--existing_path" d="M34.94,22.15c1.02,1.02,1.44,2.35,1.54,3.89c0.41,6.37,0.81,19.69,1.48,29.71c0.11,1.72,0.23,3.34,0.35,4.81" id="Ske1x72s01l" kvg:type="㇑" transform="matrix(1,0,0,1,596,-4)" xmlns:kvg="http://kanjivg.tagaini.net"></path><path class="stroke_order_diagram--existing_path" d="M37.26,24c5.24-0.5,31.75-3.22,34.98-3.39c2.69-0.14,4.13,1.27,4.08,3.86c-0.13,6.03-0.71,16.94-1.65,28.57c-0.12,1.47-0.25,2.96-0.38,4.45" id="Ske1x72s01m" kvg:type="㇕a" transform="matrix(1,0,0,1,596,-4)" xmlns:kvg="http://kanjivg.tagaini.net"></path><path class="stroke_order_diagram--existing_path" d="M37.95,35.07c8.42-0.57,29.8-2.57,36.94-2.82" id="Ske1x72s01n" kvg:type="㇐a" transform="matrix(1,0,0,1,596,-4)" xmlns:kvg="http://kanjivg.tagaini.net"></path><path class="stroke_order_diagram--existing_path" d="M38.49,45.6c10.76-0.85,26.38-2.1,35.98-2.46" id="Ske1x72s01o" kvg:type="㇐a" transform="matrix(1,0,0,1,596,-4)" xmlns:kvg="http://kanjivg.tagaini.net"></path><path class="stroke_order_diagram--existing_path" d="M38.83,56.76c9.05-0.64,22.3-2.01,34.88-2.28" id="Ske1x72s01p" kvg:type="㇐a" transform="matrix(1,0,0,1,596,-4)" xmlns:kvg="http://kanjivg.tagaini.net"></path><path class="stroke_order_diagram--current_path" d="M18.88,71.86c3.04,0.73,5.81,0.56,8.89,0.29c14.61-1.27,36.36-2.9,52.99-4c3.1-0.21,5.91-0.09,9,0.36" id="kvg:081ed-s7" kvg:type="㇐" transform="matrix(1,0,0,1,596,-4)" xmlns:kvg="http://kanjivg.tagaini.net"></path><path class="stroke_order_diagram--current_path" d="M18.88,71.86c3.04,0.73,5.81,0.56,8.89,0.29c14.61-1.27,36.36-2.9,52.99-4c3.1-0.21,5.91-0.09,9,0.36" id="Ske1x72s01r" kvg:type="㇐" transform="matrix(1,0,0,1,596,-4)" xmlns:kvg="http://kanjivg.tagaini.net"></path><circle class="stroke_order_diagram--path_start" cx="18.88" cy="71.86" r="4" transform="matrix(1,0,0,1,596,-4)"></circle><line class="stroke_order_diagram--guide_line" x1="750" x2="750" y1="1" y2="99"></line><line class="stroke_order_diagram--bounding_box" x1="799" x2="799" y1="1" y2="99"></line><path class="stroke_order_diagram--existing_path" d="M55.07,8.95c0.38,0.13-0.36,2.33-0.59,2.72c-1.57,2.57-3.18,6.07-6.89,9.45" id="Ske1x72s01u" kvg:type="㇒" transform="matrix(1,0,0,1,696,-4)" xmlns:kvg="http://kanjivg.tagaini.net"></path><path class="stroke_order_diagram--existing_path" d="M34.94,22.15c1.02,1.02,1.44,2.35,1.54,3.89c0.41,6.37,0.81,19.69,1.48,29.71c0.11,1.72,0.23,3.34,0.35,4.81" id="Ske1x72s01v" kvg:type="㇑" transform="matrix(1,0,0,1,696,-4)" xmlns:kvg="http://kanjivg.tagaini.net"></path><path class="stroke_order_diagram--existing_path" d="M37.26,24c5.24-0.5,31.75-3.22,34.98-3.39c2.69-0.14,4.13,1.27,4.08,3.86c-0.13,6.03-0.71,16.94-1.65,28.57c-0.12,1.47-0.25,2.96-0.38,4.45" id="Ske1x72s01w" kvg:type="㇕a" transform="matrix(1,0,0,1,696,-4)" xmlns:kvg="http://kanjivg.tagaini.net"></path><path class="stroke_order_diagram--existing_path" d="M37.95,35.07c8.42-0.57,29.8-2.57,36.94-2.82" id="Ske1x72s01x" kvg:type="㇐a" transform="matrix(1,0,0,1,696,-4)" xmlns:kvg="http://kanjivg.tagaini.net"></path><path class="stroke_order_diagram--existing_path" d="M38.49,45.6c10.76-0.85,26.38-2.1,35.98-2.46" id="Ske1x72s01y" kvg:type="㇐a" transform="matrix(1,0,0,1,696,-4)" xmlns:kvg="http://kanjivg.tagaini.net"></path><path class="stroke_order_diagram--existing_path" d="M38.83,56.76c9.05-0.64,22.3-2.01,34.88-2.28" id="Ske1x72s01z" kvg:type="㇐a" transform="matrix(1,0,0,1,696,-4)" xmlns:kvg="http://kanjivg.tagaini.net"></path><path class="stroke_order_diagram--existing_path" d="M18.88,71.86c3.04,0.73,5.81,0.56,8.89,0.29c14.61-1.27,36.36-2.9,52.99-4c3.1-0.21,5.91-0.09,9,0.36" id="Ske1x72s020" kvg:type="㇐" transform="matrix(1,0,0,1,696,-4)" xmlns:kvg="http://kanjivg.tagaini.net"></path><path class="stroke_order_diagram--current_path" d="M53.64,61.5c0.36,0.88,0.63,1.74,0.35,2.92C49.62,83.5,40.5,94.38,16.75,102.75" id="kvg:081ed-s8" kvg:type="㇒" transform="matrix(1,0,0,1,696,-4)" xmlns:kvg="http://kanjivg.tagaini.net"></path><path class="stroke_order_diagram--current_path" d="M53.64,61.5c0.36,0.88,0.63,1.74,0.35,2.92C49.62,83.5,40.5,94.38,16.75,102.75" id="Ske1x72s022" kvg:type="㇒" transform="matrix(1,0,0,1,696,-4)" xmlns:kvg="http://kanjivg.tagaini.net"></path><circle class="stroke_order_diagram--path_start" cx="53.64" cy="61.5" r="4" transform="matrix(1,0,0,1,696,-4)"></circle><line class="stroke_order_diagram--guide_line" x1="850" x2="850" y1="1" y2="99"></line><line class="stroke_order_diagram--bounding_box" x1="899" x2="899" y1="1" y2="99"></line><path class="stroke_order_diagram--existing_path" d="M55.07,8.95c0.38,0.13-0.36,2.33-0.59,2.72c-1.57,2.57-3.18,6.07-6.89,9.45" id="Ske1x72s025" kvg:type="㇒" transform="matrix(1,0,0,1,796,-4)" xmlns:kvg="http://kanjivg.tagaini.net"></path><path class="stroke_order_diagram--existing_path" d="M34.94,22.15c1.02,1.02,1.44,2.35,1.54,3.89c0.41,6.37,0.81,19.69,1.48,29.71c0.11,1.72,0.23,3.34,0.35,4.81" id="Ske1x72s026" kvg:type="㇑" transform="matrix(1,0,0,1,796,-4)" xmlns:kvg="http://kanjivg.tagaini.net"></path><path class="stroke_order_diagram--existing_path" d="M37.26,24c5.24-0.5,31.75-3.22,34.98-3.39c2.69-0.14,4.13,1.27,4.08,3.86c-0.13,6.03-0.71,16.94-1.65,28.57c-0.12,1.47-0.25,2.96-0.38,4.45" id="Ske1x72s027" kvg:type="㇕a" transform="matrix(1,0,0,1,796,-4)" xmlns:kvg="http://kanjivg.tagaini.net"></path><path class="stroke_order_diagram--existing_path" d="M37.95,35.07c8.42-0.57,29.8-2.57,36.94-2.82" id="Ske1x72s028" kvg:type="㇐a" transform="matrix(1,0,0,1,796,-4)" xmlns:kvg="http://kanjivg.tagaini.net"></path><path class="stroke_order_diagram--existing_path" d="M38.49,45.6c10.76-0.85,26.38-2.1,35.98-2.46" id="Ske1x72s029" kvg:type="㇐a" transform="matrix(1,0,0,1,796,-4)" xmlns:kvg="http://kanjivg.tagaini.net"></path><path class="stroke_order_diagram--existing_path" d="M38.83,56.76c9.05-0.64,22.3-2.01,34.88-2.28" id="Ske1x72s02a" kvg:type="㇐a" transform="matrix(1,0,0,1,796,-4)" xmlns:kvg="http://kanjivg.tagaini.net"></path><path class="stroke_order_diagram--existing_path" d="M18.88,71.86c3.04,0.73,5.81,0.56,8.89,0.29c14.61-1.27,36.36-2.9,52.99-4c3.1-0.21,5.91-0.09,9,0.36" id="Ske1x72s02b" kvg:type="㇐" transform="matrix(1,0,0,1,796,-4)" xmlns:kvg="http://kanjivg.tagaini.net"></path><path class="stroke_order_diagram--existing_path" d="M53.64,61.5c0.36,0.88,0.63,1.74,0.35,2.92C49.62,83.5,40.5,94.38,16.75,102.75" id="Ske1x72s02c" kvg:type="㇒" transform="matrix(1,0,0,1,796,-4)" xmlns:kvg="http://kanjivg.tagaini.net"></path><path class="stroke_order_diagram--current_path" d="M54.5,71c6.34,5.28,18.32,16.8,27.19,23.28c2.69,1.97,5.81,3.72,8.81,4.97" id="kvg:081ed-s9" kvg:type="㇏" transform="matrix(1,0,0,1,796,-4)" xmlns:kvg="http://kanjivg.tagaini.net"></path><path class="stroke_order_diagram--current_path" d="M54.5,71c6.34,5.28,18.32,16.8,27.19,23.28c2.69,1.97,5.81,3.72,8.81,4.97" id="Ske1x72s02e" kvg:type="㇏" transform="matrix(1,0,0,1,796,-4)" xmlns:kvg="http://kanjivg.tagaini.net"></path><circle class="stroke_order_diagram--path_start" cx="54.5" cy="71" r="4" transform="matrix(1,0,0,1,796,-4)"></circle></svg>