<svg class="stroke_order_diagram--svg_container_for_518662b8d5dda79658001433" style="height: 100px; width: 900px;" viewbox="0 0 900 100"><desc>Created with Snap</desc><defs></defs><line class="stroke_order_diagram--bounding_box" x1="1" x2="899" y1="1" y2="1"></line><line class="stroke_order_diagram--bounding_box" x1="1" x2="1" y1="1" y2="99"></line><line class="stroke_order_diagram--bounding_box" x1="1" x2="899" y1="99" y2="99"></line><line class="stroke_order_diagram--guide_line" x1="0" x2="900" y1="50" y2="50"></line><line class="stroke_order_diagram--guide_line" x1="50" x2="50" y1="1" y2="99"></line><line class="stroke_order_diagram--bounding_box" x1="99" x2="99" y1="1" y2="99"></line><path class="stroke_order_diagram--current_path" d="M41.85,20.42c0.05,0.29-0.28,1.43-0.59,1.74c-4.21,4.15-8.14,7.28-17.75,10.59" id="kvg:081fe-s1" kvg:type="㇒" transform="matrix(1,0,0,1,-4,-4)" xmlns:kvg="http://kanjivg.tagaini.net"></path><path class="stroke_order_diagram--current_path" d="M41.85,20.42c0.05,0.29-0.28,1.43-0.59,1.74c-4.21,4.15-8.14,7.28-17.75,10.59" id="Ske2vlnmji" kvg:type="㇒" transform="matrix(1,0,0,1,-4,-4)" xmlns:kvg="http://kanjivg.tagaini.net"></path><circle class="stroke_order_diagram--path_start" cx="41.85" cy="20.42" r="4" transform="matrix(1,0,0,1,-4,-4)"></circle><line class="stroke_order_diagram--guide_line" x1="150" x2="150" y1="1" y2="99"></line><line class="stroke_order_diagram--bounding_box" x1="199" x2="199" y1="1" y2="99"></line><path class="stroke_order_diagram--existing_path" d="M41.85,20.42c0.05,0.29-0.28,1.43-0.59,1.74c-4.21,4.15-8.14,7.28-17.75,10.59" id="Ske2vlnmjl" kvg:type="㇒" transform="matrix(1,0,0,1,96,-4)" xmlns:kvg="http://kanjivg.tagaini.net"></path><path class="stroke_order_diagram--current_path" d="M22.36,31.98c0.83,0.86,1.17,2.78,1.38,4.54c0.75,6.43,3.13,19.96,3.89,28.65" id="kvg:081fe-s2" kvg:type="㇑" transform="matrix(1,0,0,1,96,-4)" xmlns:kvg="http://kanjivg.tagaini.net"></path><path class="stroke_order_diagram--current_path" d="M22.36,31.98c0.83,0.86,1.17,2.78,1.38,4.54c0.75,6.43,3.13,19.96,3.89,28.65" id="Ske2vlnmjn" kvg:type="㇑" transform="matrix(1,0,0,1,96,-4)" xmlns:kvg="http://kanjivg.tagaini.net"></path><circle class="stroke_order_diagram--path_start" cx="22.36" cy="31.98" r="4" transform="matrix(1,0,0,1,96,-4)"></circle><line class="stroke_order_diagram--guide_line" x1="250" x2="250" y1="1" y2="99"></line><line class="stroke_order_diagram--bounding_box" x1="299" x2="299" y1="1" y2="99"></line><path class="stroke_order_diagram--existing_path" d="M41.85,20.42c0.05,0.29-0.28,1.43-0.59,1.74c-4.21,4.15-8.14,7.28-17.75,10.59" id="Ske2vlnmjq" kvg:type="㇒" transform="matrix(1,0,0,1,196,-4)" xmlns:kvg="http://kanjivg.tagaini.net"></path><path class="stroke_order_diagram--existing_path" d="M22.36,31.98c0.83,0.86,1.17,2.78,1.38,4.54c0.75,6.43,3.13,19.96,3.89,28.65" id="Ske2vlnmjr" kvg:type="㇑" transform="matrix(1,0,0,1,196,-4)" xmlns:kvg="http://kanjivg.tagaini.net"></path><path class="stroke_order_diagram--current_path" d="M25.67,44.43c4.11-0.39,15-2.03,15.98-2.03c0.98,0,2.35,0,3.13,0" id="kvg:081fe-s3" kvg:type="㇐" transform="matrix(1,0,0,1,196,-4)" xmlns:kvg="http://kanjivg.tagaini.net"></path><path class="stroke_order_diagram--current_path" d="M25.67,44.43c4.11-0.39,15-2.03,15.98-2.03c0.98,0,2.35,0,3.13,0" id="Ske2vlnmjt" kvg:type="㇐" transform="matrix(1,0,0,1,196,-4)" xmlns:kvg="http://kanjivg.tagaini.net"></path><circle class="stroke_order_diagram--path_start" cx="25.67" cy="44.43" r="4" transform="matrix(1,0,0,1,196,-4)"></circle><line class="stroke_order_diagram--guide_line" x1="350" x2="350" y1="1" y2="99"></line><line class="stroke_order_diagram--bounding_box" x1="399" x2="399" y1="1" y2="99"></line><path class="stroke_order_diagram--existing_path" d="M41.85,20.42c0.05,0.29-0.28,1.43-0.59,1.74c-4.21,4.15-8.14,7.28-17.75,10.59" id="Ske2vlnmjw" kvg:type="㇒" transform="matrix(1,0,0,1,296,-4)" xmlns:kvg="http://kanjivg.tagaini.net"></path><path class="stroke_order_diagram--existing_path" d="M22.36,31.98c0.83,0.86,1.17,2.78,1.38,4.54c0.75,6.43,3.13,19.96,3.89,28.65" id="Ske2vlnmjx" kvg:type="㇑" transform="matrix(1,0,0,1,296,-4)" xmlns:kvg="http://kanjivg.tagaini.net"></path><path class="stroke_order_diagram--existing_path" d="M25.67,44.43c4.11-0.39,15-2.03,15.98-2.03c0.98,0,2.35,0,3.13,0" id="Ske2vlnmjy" kvg:type="㇐" transform="matrix(1,0,0,1,296,-4)" xmlns:kvg="http://kanjivg.tagaini.net"></path><path class="stroke_order_diagram--current_path" d="M27.75,62.12c4.11-0.39,14-2.03,14.98-2.03c0.98,0,2.35,0,3.13,0" id="kvg:081fe-s4" kvg:type="㇐" transform="matrix(1,0,0,1,296,-4)" xmlns:kvg="http://kanjivg.tagaini.net"></path><path class="stroke_order_diagram--current_path" d="M27.75,62.12c4.11-0.39,14-2.03,14.98-2.03c0.98,0,2.35,0,3.13,0" id="Ske2vlnmj10" kvg:type="㇐" transform="matrix(1,0,0,1,296,-4)" xmlns:kvg="http://kanjivg.tagaini.net"></path><circle class="stroke_order_diagram--path_start" cx="27.75" cy="62.12" r="4" transform="matrix(1,0,0,1,296,-4)"></circle><line class="stroke_order_diagram--guide_line" x1="450" x2="450" y1="1" y2="99"></line><line class="stroke_order_diagram--bounding_box" x1="499" x2="499" y1="1" y2="99"></line><path class="stroke_order_diagram--existing_path" d="M41.85,20.42c0.05,0.29-0.28,1.43-0.59,1.74c-4.21,4.15-8.14,7.28-17.75,10.59" id="Ske2vlnmj13" kvg:type="㇒" transform="matrix(1,0,0,1,396,-4)" xmlns:kvg="http://kanjivg.tagaini.net"></path><path class="stroke_order_diagram--existing_path" d="M22.36,31.98c0.83,0.86,1.17,2.78,1.38,4.54c0.75,6.43,3.13,19.96,3.89,28.65" id="Ske2vlnmj14" kvg:type="㇑" transform="matrix(1,0,0,1,396,-4)" xmlns:kvg="http://kanjivg.tagaini.net"></path><path class="stroke_order_diagram--existing_path" d="M25.67,44.43c4.11-0.39,15-2.03,15.98-2.03c0.98,0,2.35,0,3.13,0" id="Ske2vlnmj15" kvg:type="㇐" transform="matrix(1,0,0,1,396,-4)" xmlns:kvg="http://kanjivg.tagaini.net"></path><path class="stroke_order_diagram--existing_path" d="M27.75,62.12c4.11-0.39,14-2.03,14.98-2.03c0.98,0,2.35,0,3.13,0" id="Ske2vlnmj16" kvg:type="㇐" transform="matrix(1,0,0,1,396,-4)" xmlns:kvg="http://kanjivg.tagaini.net"></path><path class="stroke_order_diagram--current_path" d="M63.47,25.36c0.98,0.19,1.76,0.59,3.13,0.59c1.37,0,14.88-2.35,16.45-2.54c1.57-0.2,2.86,0.97,2.74,2.15c-1.17,11.34-4.91,36.9-5.1,37.68" id="kvg:081fe-s5" kvg:type="㇕" transform="matrix(1,0,0,1,396,-4)" xmlns:kvg="http://kanjivg.tagaini.net"></path><path class="stroke_order_diagram--current_path" d="M63.47,25.36c0.98,0.19,1.76,0.59,3.13,0.59c1.37,0,14.88-2.35,16.45-2.54c1.57-0.2,2.86,0.97,2.74,2.15c-1.17,11.34-4.91,36.9-5.1,37.68" id="Ske2vlnmj18" kvg:type="㇕" transform="matrix(1,0,0,1,396,-4)" xmlns:kvg="http://kanjivg.tagaini.net"></path><circle class="stroke_order_diagram--path_start" cx="63.47" cy="25.36" r="4" transform="matrix(1,0,0,1,396,-4)"></circle><line class="stroke_order_diagram--guide_line" x1="550" x2="550" y1="1" y2="99"></line><line class="stroke_order_diagram--bounding_box" x1="599" x2="599" y1="1" y2="99"></line><path class="stroke_order_diagram--existing_path" d="M41.85,20.42c0.05,0.29-0.28,1.43-0.59,1.74c-4.21,4.15-8.14,7.28-17.75,10.59" id="Ske2vlnmj1b" kvg:type="㇒" transform="matrix(1,0,0,1,496,-4)" xmlns:kvg="http://kanjivg.tagaini.net"></path><path class="stroke_order_diagram--existing_path" d="M22.36,31.98c0.83,0.86,1.17,2.78,1.38,4.54c0.75,6.43,3.13,19.96,3.89,28.65" id="Ske2vlnmj1c" kvg:type="㇑" transform="matrix(1,0,0,1,496,-4)" xmlns:kvg="http://kanjivg.tagaini.net"></path><path class="stroke_order_diagram--existing_path" d="M25.67,44.43c4.11-0.39,15-2.03,15.98-2.03c0.98,0,2.35,0,3.13,0" id="Ske2vlnmj1d" kvg:type="㇐" transform="matrix(1,0,0,1,496,-4)" xmlns:kvg="http://kanjivg.tagaini.net"></path><path class="stroke_order_diagram--existing_path" d="M27.75,62.12c4.11-0.39,14-2.03,14.98-2.03c0.98,0,2.35,0,3.13,0" id="Ske2vlnmj1e" kvg:type="㇐" transform="matrix(1,0,0,1,496,-4)" xmlns:kvg="http://kanjivg.tagaini.net"></path><path class="stroke_order_diagram--existing_path" d="M63.47,25.36c0.98,0.19,1.76,0.59,3.13,0.59c1.37,0,14.88-2.35,16.45-2.54c1.57-0.2,2.86,0.97,2.74,2.15c-1.17,11.34-4.91,36.9-5.1,37.68" id="Ske2vlnmj1f" kvg:type="㇕" transform="matrix(1,0,0,1,496,-4)" xmlns:kvg="http://kanjivg.tagaini.net"></path><path class="stroke_order_diagram--current_path" d="M61.87,40.55c0.98,0.19,1.76,0.59,3.13,0.59c1.37,0,15.47-0.99,17.04-1.19" id="kvg:081fe-s6" kvg:type="㇐" transform="matrix(1,0,0,1,496,-4)" xmlns:kvg="http://kanjivg.tagaini.net"></path><path class="stroke_order_diagram--current_path" d="M61.87,40.55c0.98,0.19,1.76,0.59,3.13,0.59c1.37,0,15.47-0.99,17.04-1.19" id="Ske2vlnmj1h" kvg:type="㇐" transform="matrix(1,0,0,1,496,-4)" xmlns:kvg="http://kanjivg.tagaini.net"></path><circle class="stroke_order_diagram--path_start" cx="61.87" cy="40.55" r="4" transform="matrix(1,0,0,1,496,-4)"></circle><line class="stroke_order_diagram--guide_line" x1="650" x2="650" y1="1" y2="99"></line><line class="stroke_order_diagram--bounding_box" x1="699" x2="699" y1="1" y2="99"></line><path class="stroke_order_diagram--existing_path" d="M41.85,20.42c0.05,0.29-0.28,1.43-0.59,1.74c-4.21,4.15-8.14,7.28-17.75,10.59" id="Ske2vlnmj1k" kvg:type="㇒" transform="matrix(1,0,0,1,596,-4)" xmlns:kvg="http://kanjivg.tagaini.net"></path><path class="stroke_order_diagram--existing_path" d="M22.36,31.98c0.83,0.86,1.17,2.78,1.38,4.54c0.75,6.43,3.13,19.96,3.89,28.65" id="Ske2vlnmj1l" kvg:type="㇑" transform="matrix(1,0,0,1,596,-4)" xmlns:kvg="http://kanjivg.tagaini.net"></path><path class="stroke_order_diagram--existing_path" d="M25.67,44.43c4.11-0.39,15-2.03,15.98-2.03c0.98,0,2.35,0,3.13,0" id="Ske2vlnmj1m" kvg:type="㇐" transform="matrix(1,0,0,1,596,-4)" xmlns:kvg="http://kanjivg.tagaini.net"></path><path class="stroke_order_diagram--existing_path" d="M27.75,62.12c4.11-0.39,14-2.03,14.98-2.03c0.98,0,2.35,0,3.13,0" id="Ske2vlnmj1n" kvg:type="㇐" transform="matrix(1,0,0,1,596,-4)" xmlns:kvg="http://kanjivg.tagaini.net"></path><path class="stroke_order_diagram--existing_path" d="M63.47,25.36c0.98,0.19,1.76,0.59,3.13,0.59c1.37,0,14.88-2.35,16.45-2.54c1.57-0.2,2.86,0.97,2.74,2.15c-1.17,11.34-4.91,36.9-5.1,37.68" id="Ske2vlnmj1o" kvg:type="㇕" transform="matrix(1,0,0,1,596,-4)" xmlns:kvg="http://kanjivg.tagaini.net"></path><path class="stroke_order_diagram--existing_path" d="M61.87,40.55c0.98,0.19,1.76,0.59,3.13,0.59c1.37,0,15.47-0.99,17.04-1.19" id="Ske2vlnmj1p" kvg:type="㇐" transform="matrix(1,0,0,1,596,-4)" xmlns:kvg="http://kanjivg.tagaini.net"></path><path class="stroke_order_diagram--current_path" d="M61.77,58.44c0.98,0.19,1.76,0.59,3.13,0.59c1.37,0,14.47-0.99,16.04-1.19" id="kvg:081fe-s7" kvg:type="㇐" transform="matrix(1,0,0,1,596,-4)" xmlns:kvg="http://kanjivg.tagaini.net"></path><path class="stroke_order_diagram--current_path" d="M61.77,58.44c0.98,0.19,1.76,0.59,3.13,0.59c1.37,0,14.47-0.99,16.04-1.19" id="Ske2vlnmj1r" kvg:type="㇐" transform="matrix(1,0,0,1,596,-4)" xmlns:kvg="http://kanjivg.tagaini.net"></path><circle class="stroke_order_diagram--path_start" cx="61.77" cy="58.44" r="4" transform="matrix(1,0,0,1,596,-4)"></circle><line class="stroke_order_diagram--guide_line" x1="750" x2="750" y1="1" y2="99"></line><line class="stroke_order_diagram--bounding_box" x1="799" x2="799" y1="1" y2="99"></line><path class="stroke_order_diagram--existing_path" d="M41.85,20.42c0.05,0.29-0.28,1.43-0.59,1.74c-4.21,4.15-8.14,7.28-17.75,10.59" id="Ske2vlnmj1u" kvg:type="㇒" transform="matrix(1,0,0,1,696,-4)" xmlns:kvg="http://kanjivg.tagaini.net"></path><path class="stroke_order_diagram--existing_path" d="M22.36,31.98c0.83,0.86,1.17,2.78,1.38,4.54c0.75,6.43,3.13,19.96,3.89,28.65" id="Ske2vlnmj1v" kvg:type="㇑" transform="matrix(1,0,0,1,696,-4)" xmlns:kvg="http://kanjivg.tagaini.net"></path><path class="stroke_order_diagram--existing_path" d="M25.67,44.43c4.11-0.39,15-2.03,15.98-2.03c0.98,0,2.35,0,3.13,0" id="Ske2vlnmj1w" kvg:type="㇐" transform="matrix(1,0,0,1,696,-4)" xmlns:kvg="http://kanjivg.tagaini.net"></path><path class="stroke_order_diagram--existing_path" d="M27.75,62.12c4.11-0.39,14-2.03,14.98-2.03c0.98,0,2.35,0,3.13,0" id="Ske2vlnmj1x" kvg:type="㇐" transform="matrix(1,0,0,1,696,-4)" xmlns:kvg="http://kanjivg.tagaini.net"></path><path class="stroke_order_diagram--existing_path" d="M63.47,25.36c0.98,0.19,1.76,0.59,3.13,0.59c1.37,0,14.88-2.35,16.45-2.54c1.57-0.2,2.86,0.97,2.74,2.15c-1.17,11.34-4.91,36.9-5.1,37.68" id="Ske2vlnmj1y" kvg:type="㇕" transform="matrix(1,0,0,1,696,-4)" xmlns:kvg="http://kanjivg.tagaini.net"></path><path class="stroke_order_diagram--existing_path" d="M61.87,40.55c0.98,0.19,1.76,0.59,3.13,0.59c1.37,0,15.47-0.99,17.04-1.19" id="Ske2vlnmj1z" kvg:type="㇐" transform="matrix(1,0,0,1,696,-4)" xmlns:kvg="http://kanjivg.tagaini.net"></path><path class="stroke_order_diagram--existing_path" d="M61.77,58.44c0.98,0.19,1.76,0.59,3.13,0.59c1.37,0,14.47-0.99,16.04-1.19" id="Ske2vlnmj20" kvg:type="㇐" transform="matrix(1,0,0,1,696,-4)" xmlns:kvg="http://kanjivg.tagaini.net"></path><path class="stroke_order_diagram--current_path" d="M53.25,11.25c1.25,2,0.78,2.92,0.78,5.99c0,52.01-3.04,65.51-38.79,83.76" id="kvg:081fe-s8" kvg:type="㇒" transform="matrix(1,0,0,1,696,-4)" xmlns:kvg="http://kanjivg.tagaini.net"></path><path class="stroke_order_diagram--current_path" d="M53.25,11.25c1.25,2,0.78,2.92,0.78,5.99c0,52.01-3.04,65.51-38.79,83.76" id="Ske2vlnmj22" kvg:type="㇒" transform="matrix(1,0,0,1,696,-4)" xmlns:kvg="http://kanjivg.tagaini.net"></path><circle class="stroke_order_diagram--path_start" cx="53.25" cy="11.25" r="4" transform="matrix(1,0,0,1,696,-4)"></circle><line class="stroke_order_diagram--guide_line" x1="850" x2="850" y1="1" y2="99"></line><line class="stroke_order_diagram--bounding_box" x1="899" x2="899" y1="1" y2="99"></line><path class="stroke_order_diagram--existing_path" d="M41.85,20.42c0.05,0.29-0.28,1.43-0.59,1.74c-4.21,4.15-8.14,7.28-17.75,10.59" id="Ske2vlnmj25" kvg:type="㇒" transform="matrix(1,0,0,1,796,-4)" xmlns:kvg="http://kanjivg.tagaini.net"></path><path class="stroke_order_diagram--existing_path" d="M22.36,31.98c0.83,0.86,1.17,2.78,1.38,4.54c0.75,6.43,3.13,19.96,3.89,28.65" id="Ske2vlnmj26" kvg:type="㇑" transform="matrix(1,0,0,1,796,-4)" xmlns:kvg="http://kanjivg.tagaini.net"></path><path class="stroke_order_diagram--existing_path" d="M25.67,44.43c4.11-0.39,15-2.03,15.98-2.03c0.98,0,2.35,0,3.13,0" id="Ske2vlnmj27" kvg:type="㇐" transform="matrix(1,0,0,1,796,-4)" xmlns:kvg="http://kanjivg.tagaini.net"></path><path class="stroke_order_diagram--existing_path" d="M27.75,62.12c4.11-0.39,14-2.03,14.98-2.03c0.98,0,2.35,0,3.13,0" id="Ske2vlnmj28" kvg:type="㇐" transform="matrix(1,0,0,1,796,-4)" xmlns:kvg="http://kanjivg.tagaini.net"></path><path class="stroke_order_diagram--existing_path" d="M63.47,25.36c0.98,0.19,1.76,0.59,3.13,0.59c1.37,0,14.88-2.35,16.45-2.54c1.57-0.2,2.86,0.97,2.74,2.15c-1.17,11.34-4.91,36.9-5.1,37.68" id="Ske2vlnmj29" kvg:type="㇕" transform="matrix(1,0,0,1,796,-4)" xmlns:kvg="http://kanjivg.tagaini.net"></path><path class="stroke_order_diagram--existing_path" d="M61.87,40.55c0.98,0.19,1.76,0.59,3.13,0.59c1.37,0,15.47-0.99,17.04-1.19" id="Ske2vlnmj2a" kvg:type="㇐" transform="matrix(1,0,0,1,796,-4)" xmlns:kvg="http://kanjivg.tagaini.net"></path><path class="stroke_order_diagram--existing_path" d="M61.77,58.44c0.98,0.19,1.76,0.59,3.13,0.59c1.37,0,14.47-0.99,16.04-1.19" id="Ske2vlnmj2b" kvg:type="㇐" transform="matrix(1,0,0,1,796,-4)" xmlns:kvg="http://kanjivg.tagaini.net"></path><path class="stroke_order_diagram--existing_path" d="M53.25,11.25c1.25,2,0.78,2.92,0.78,5.99c0,52.01-3.04,65.51-38.79,83.76" id="Ske2vlnmj2c" kvg:type="㇒" transform="matrix(1,0,0,1,796,-4)" xmlns:kvg="http://kanjivg.tagaini.net"></path><path class="stroke_order_diagram--current_path" d="M52.75,56.75c5.64,11.3,19.5,31.19,32.86,38.71c2.32,1.31,4.45,2.54,6.39,3.04" id="kvg:081fe-s9" kvg:type="㇏" transform="matrix(1,0,0,1,796,-4)" xmlns:kvg="http://kanjivg.tagaini.net"></path><path class="stroke_order_diagram--current_path" d="M52.75,56.75c5.64,11.3,19.5,31.19,32.86,38.71c2.32,1.31,4.45,2.54,6.39,3.04" id="Ske2vlnmj2e" kvg:type="㇏" transform="matrix(1,0,0,1,796,-4)" xmlns:kvg="http://kanjivg.tagaini.net"></path><circle class="stroke_order_diagram--path_start" cx="52.75" cy="56.75" r="4" transform="matrix(1,0,0,1,796,-4)"></circle></svg>