<svg class="stroke_order_diagram--svg_container_for_518662b8d5dda79658001436" style="height: 100px; width: 1300px;" viewbox="0 0 1300 100"><desc>Created with Snap</desc><defs></defs><line class="stroke_order_diagram--bounding_box" x1="1" x2="1299" y1="1" y2="1"></line><line class="stroke_order_diagram--bounding_box" x1="1" x2="1" y1="1" y2="99"></line><line class="stroke_order_diagram--bounding_box" x1="1" x2="1299" y1="99" y2="99"></line><line class="stroke_order_diagram--guide_line" x1="0" x2="1300" y1="50" y2="50"></line><line class="stroke_order_diagram--guide_line" x1="50" x2="50" y1="1" y2="99"></line><line class="stroke_order_diagram--bounding_box" x1="99" x2="99" y1="1" y2="99"></line><path class="stroke_order_diagram--current_path" d="M44.6,9.38c0.04,0.21,0.19,0.61-0.09,0.83c-3.6,2.97-9.5,5.91-15.53,7.98" id="kvg:08205-s1" kvg:type="㇒" transform="matrix(1,0,0,1,-4,-4)" xmlns:kvg="http://kanjivg.tagaini.net"></path><path class="stroke_order_diagram--current_path" d="M44.6,9.38c0.04,0.21,0.19,0.61-0.09,0.83c-3.6,2.97-9.5,5.91-15.53,7.98" id="Ske2vmiyum" kvg:type="㇒" transform="matrix(1,0,0,1,-4,-4)" xmlns:kvg="http://kanjivg.tagaini.net"></path><circle class="stroke_order_diagram--path_start" cx="44.6" cy="9.38" r="4" transform="matrix(1,0,0,1,-4,-4)"></circle><line class="stroke_order_diagram--guide_line" x1="150" x2="150" y1="1" y2="99"></line><line class="stroke_order_diagram--bounding_box" x1="199" x2="199" y1="1" y2="99"></line><path class="stroke_order_diagram--existing_path" d="M44.6,9.38c0.04,0.21,0.19,0.61-0.09,0.83c-3.6,2.97-9.5,5.91-15.53,7.98" id="Ske2vmiyup" kvg:type="㇒" transform="matrix(1,0,0,1,96,-4)" xmlns:kvg="http://kanjivg.tagaini.net"></path><path class="stroke_order_diagram--current_path" d="M26.42,16.58c0.53,0.42,1.61,1.96,1.74,2.83c0.48,3.18,2.83,12.46,3.31,16.76" id="kvg:08205-s2" kvg:type="㇑" transform="matrix(1,0,0,1,96,-4)" xmlns:kvg="http://kanjivg.tagaini.net"></path><path class="stroke_order_diagram--current_path" d="M26.42,16.58c0.53,0.42,1.61,1.96,1.74,2.83c0.48,3.18,2.83,12.46,3.31,16.76" id="Ske2vmiyur" kvg:type="㇑" transform="matrix(1,0,0,1,96,-4)" xmlns:kvg="http://kanjivg.tagaini.net"></path><circle class="stroke_order_diagram--path_start" cx="26.42" cy="16.58" r="4" transform="matrix(1,0,0,1,96,-4)"></circle><line class="stroke_order_diagram--guide_line" x1="250" x2="250" y1="1" y2="99"></line><line class="stroke_order_diagram--bounding_box" x1="299" x2="299" y1="1" y2="99"></line><path class="stroke_order_diagram--existing_path" d="M44.6,9.38c0.04,0.21,0.19,0.61-0.09,0.83c-3.6,2.97-9.5,5.91-15.53,7.98" id="Ske2vmiyuu" kvg:type="㇒" transform="matrix(1,0,0,1,196,-4)" xmlns:kvg="http://kanjivg.tagaini.net"></path><path class="stroke_order_diagram--existing_path" d="M26.42,16.58c0.53,0.42,1.61,1.96,1.74,2.83c0.48,3.18,2.83,12.46,3.31,16.76" id="Ske2vmiyuv" kvg:type="㇑" transform="matrix(1,0,0,1,196,-4)" xmlns:kvg="http://kanjivg.tagaini.net"></path><path class="stroke_order_diagram--current_path" d="M61.08,12.92c0.81,0.09,2.01,0.5,3.33,0.5c1.23,0,14.37-1.59,15.78-1.69c1.41-0.1,2.58,0.51,2.47,1.14c-1.06,5.99-3.53,16.26-4.58,21.22" id="kvg:08205-s3" kvg:type="㇕" transform="matrix(1,0,0,1,196,-4)" xmlns:kvg="http://kanjivg.tagaini.net"></path><path class="stroke_order_diagram--current_path" d="M61.08,12.92c0.81,0.09,2.01,0.5,3.33,0.5c1.23,0,14.37-1.59,15.78-1.69c1.41-0.1,2.58,0.51,2.47,1.14c-1.06,5.99-3.53,16.26-4.58,21.22" id="Ske2vmiyux" kvg:type="㇕" transform="matrix(1,0,0,1,196,-4)" xmlns:kvg="http://kanjivg.tagaini.net"></path><circle class="stroke_order_diagram--path_start" cx="61.08" cy="12.92" r="4" transform="matrix(1,0,0,1,196,-4)"></circle><line class="stroke_order_diagram--guide_line" x1="350" x2="350" y1="1" y2="99"></line><line class="stroke_order_diagram--bounding_box" x1="399" x2="399" y1="1" y2="99"></line><path class="stroke_order_diagram--existing_path" d="M44.6,9.38c0.04,0.21,0.19,0.61-0.09,0.83c-3.6,2.97-9.5,5.91-15.53,7.98" id="Ske2vmiyu10" kvg:type="㇒" transform="matrix(1,0,0,1,296,-4)" xmlns:kvg="http://kanjivg.tagaini.net"></path><path class="stroke_order_diagram--existing_path" d="M26.42,16.58c0.53,0.42,1.61,1.96,1.74,2.83c0.48,3.18,2.83,12.46,3.31,16.76" id="Ske2vmiyu11" kvg:type="㇑" transform="matrix(1,0,0,1,296,-4)" xmlns:kvg="http://kanjivg.tagaini.net"></path><path class="stroke_order_diagram--existing_path" d="M61.08,12.92c0.81,0.09,2.01,0.5,3.33,0.5c1.23,0,14.37-1.59,15.78-1.69c1.41-0.1,2.58,0.51,2.47,1.14c-1.06,5.99-3.53,16.26-4.58,21.22" id="Ske2vmiyu12" kvg:type="㇕" transform="matrix(1,0,0,1,296,-4)" xmlns:kvg="http://kanjivg.tagaini.net"></path><path class="stroke_order_diagram--current_path" d="M31.1,25.39c4.98-0.95,13.04-2.3,13.98-2.3c0.94,0,3.08,0,3.83,0" id="kvg:08205-s4" kvg:type="㇐" transform="matrix(1,0,0,1,296,-4)" xmlns:kvg="http://kanjivg.tagaini.net"></path><path class="stroke_order_diagram--current_path" d="M31.1,25.39c4.98-0.95,13.04-2.3,13.98-2.3c0.94,0,3.08,0,3.83,0" id="Ske2vmiyu14" kvg:type="㇐" transform="matrix(1,0,0,1,296,-4)" xmlns:kvg="http://kanjivg.tagaini.net"></path><circle class="stroke_order_diagram--path_start" cx="31.1" cy="25.39" r="4" transform="matrix(1,0,0,1,296,-4)"></circle><line class="stroke_order_diagram--guide_line" x1="450" x2="450" y1="1" y2="99"></line><line class="stroke_order_diagram--bounding_box" x1="499" x2="499" y1="1" y2="99"></line><path class="stroke_order_diagram--existing_path" d="M44.6,9.38c0.04,0.21,0.19,0.61-0.09,0.83c-3.6,2.97-9.5,5.91-15.53,7.98" id="Ske2vmiyu17" kvg:type="㇒" transform="matrix(1,0,0,1,396,-4)" xmlns:kvg="http://kanjivg.tagaini.net"></path><path class="stroke_order_diagram--existing_path" d="M26.42,16.58c0.53,0.42,1.61,1.96,1.74,2.83c0.48,3.18,2.83,12.46,3.31,16.76" id="Ske2vmiyu18" kvg:type="㇑" transform="matrix(1,0,0,1,396,-4)" xmlns:kvg="http://kanjivg.tagaini.net"></path><path class="stroke_order_diagram--existing_path" d="M61.08,12.92c0.81,0.09,2.01,0.5,3.33,0.5c1.23,0,14.37-1.59,15.78-1.69c1.41-0.1,2.58,0.51,2.47,1.14c-1.06,5.99-3.53,16.26-4.58,21.22" id="Ske2vmiyu19" kvg:type="㇕" transform="matrix(1,0,0,1,396,-4)" xmlns:kvg="http://kanjivg.tagaini.net"></path><path class="stroke_order_diagram--existing_path" d="M31.1,25.39c4.98-0.95,13.04-2.3,13.98-2.3c0.94,0,3.08,0,3.83,0" id="Ske2vmiyu1a" kvg:type="㇐" transform="matrix(1,0,0,1,396,-4)" xmlns:kvg="http://kanjivg.tagaini.net"></path><path class="stroke_order_diagram--current_path" d="M59.25,22.08c0.94,0.16,2.86,0.67,4.17,0.67c1.31,0,15.84-1.17,17.33-1.33" id="kvg:08205-s5" kvg:type="㇐" transform="matrix(1,0,0,1,396,-4)" xmlns:kvg="http://kanjivg.tagaini.net"></path><path class="stroke_order_diagram--current_path" d="M59.25,22.08c0.94,0.16,2.86,0.67,4.17,0.67c1.31,0,15.84-1.17,17.33-1.33" id="Ske2vmiyu1c" kvg:type="㇐" transform="matrix(1,0,0,1,396,-4)" xmlns:kvg="http://kanjivg.tagaini.net"></path><circle class="stroke_order_diagram--path_start" cx="59.25" cy="22.08" r="4" transform="matrix(1,0,0,1,396,-4)"></circle><line class="stroke_order_diagram--guide_line" x1="550" x2="550" y1="1" y2="99"></line><line class="stroke_order_diagram--bounding_box" x1="599" x2="599" y1="1" y2="99"></line><path class="stroke_order_diagram--existing_path" d="M44.6,9.38c0.04,0.21,0.19,0.61-0.09,0.83c-3.6,2.97-9.5,5.91-15.53,7.98" id="Ske2vmiyu1f" kvg:type="㇒" transform="matrix(1,0,0,1,496,-4)" xmlns:kvg="http://kanjivg.tagaini.net"></path><path class="stroke_order_diagram--existing_path" d="M26.42,16.58c0.53,0.42,1.61,1.96,1.74,2.83c0.48,3.18,2.83,12.46,3.31,16.76" id="Ske2vmiyu1g" kvg:type="㇑" transform="matrix(1,0,0,1,496,-4)" xmlns:kvg="http://kanjivg.tagaini.net"></path><path class="stroke_order_diagram--existing_path" d="M61.08,12.92c0.81,0.09,2.01,0.5,3.33,0.5c1.23,0,14.37-1.59,15.78-1.69c1.41-0.1,2.58,0.51,2.47,1.14c-1.06,5.99-3.53,16.26-4.58,21.22" id="Ske2vmiyu1h" kvg:type="㇕" transform="matrix(1,0,0,1,496,-4)" xmlns:kvg="http://kanjivg.tagaini.net"></path><path class="stroke_order_diagram--existing_path" d="M31.1,25.39c4.98-0.95,13.04-2.3,13.98-2.3c0.94,0,3.08,0,3.83,0" id="Ske2vmiyu1i" kvg:type="㇐" transform="matrix(1,0,0,1,496,-4)" xmlns:kvg="http://kanjivg.tagaini.net"></path><path class="stroke_order_diagram--existing_path" d="M59.25,22.08c0.94,0.16,2.86,0.67,4.17,0.67c1.31,0,15.84-1.17,17.33-1.33" id="Ske2vmiyu1j" kvg:type="㇐" transform="matrix(1,0,0,1,496,-4)" xmlns:kvg="http://kanjivg.tagaini.net"></path><path class="stroke_order_diagram--current_path" d="M32.16,34.57c10.16-0.89,34.06-3.07,46-3.42" id="kvg:08205-s6" kvg:type="㇐" transform="matrix(1,0,0,1,496,-4)" xmlns:kvg="http://kanjivg.tagaini.net"></path><path class="stroke_order_diagram--current_path" d="M32.16,34.57c10.16-0.89,34.06-3.07,46-3.42" id="Ske2vmiyu1l" kvg:type="㇐" transform="matrix(1,0,0,1,496,-4)" xmlns:kvg="http://kanjivg.tagaini.net"></path><circle class="stroke_order_diagram--path_start" cx="32.16" cy="34.57" r="4" transform="matrix(1,0,0,1,496,-4)"></circle><line class="stroke_order_diagram--guide_line" x1="650" x2="650" y1="1" y2="99"></line><line class="stroke_order_diagram--bounding_box" x1="699" x2="699" y1="1" y2="99"></line><path class="stroke_order_diagram--existing_path" d="M44.6,9.38c0.04,0.21,0.19,0.61-0.09,0.83c-3.6,2.97-9.5,5.91-15.53,7.98" id="Ske2vmiyu1o" kvg:type="㇒" transform="matrix(1,0,0,1,596,-4)" xmlns:kvg="http://kanjivg.tagaini.net"></path><path class="stroke_order_diagram--existing_path" d="M26.42,16.58c0.53,0.42,1.61,1.96,1.74,2.83c0.48,3.18,2.83,12.46,3.31,16.76" id="Ske2vmiyu1p" kvg:type="㇑" transform="matrix(1,0,0,1,596,-4)" xmlns:kvg="http://kanjivg.tagaini.net"></path><path class="stroke_order_diagram--existing_path" d="M61.08,12.92c0.81,0.09,2.01,0.5,3.33,0.5c1.23,0,14.37-1.59,15.78-1.69c1.41-0.1,2.58,0.51,2.47,1.14c-1.06,5.99-3.53,16.26-4.58,21.22" id="Ske2vmiyu1q" kvg:type="㇕" transform="matrix(1,0,0,1,596,-4)" xmlns:kvg="http://kanjivg.tagaini.net"></path><path class="stroke_order_diagram--existing_path" d="M31.1,25.39c4.98-0.95,13.04-2.3,13.98-2.3c0.94,0,3.08,0,3.83,0" id="Ske2vmiyu1r" kvg:type="㇐" transform="matrix(1,0,0,1,596,-4)" xmlns:kvg="http://kanjivg.tagaini.net"></path><path class="stroke_order_diagram--existing_path" d="M59.25,22.08c0.94,0.16,2.86,0.67,4.17,0.67c1.31,0,15.84-1.17,17.33-1.33" id="Ske2vmiyu1s" kvg:type="㇐" transform="matrix(1,0,0,1,596,-4)" xmlns:kvg="http://kanjivg.tagaini.net"></path><path class="stroke_order_diagram--existing_path" d="M32.16,34.57c10.16-0.89,34.06-3.07,46-3.42" id="Ske2vmiyu1t" kvg:type="㇐" transform="matrix(1,0,0,1,596,-4)" xmlns:kvg="http://kanjivg.tagaini.net"></path><path class="stroke_order_diagram--current_path" d="M29.08,42.42c0.82,0.73,1.81,1.94,2,2.67c1.12,4.23,2.94,12.82,4.09,20.69" id="kvg:08205-s7" kvg:type="㇑" transform="matrix(1,0,0,1,596,-4)" xmlns:kvg="http://kanjivg.tagaini.net"></path><path class="stroke_order_diagram--current_path" d="M29.08,42.42c0.82,0.73,1.81,1.94,2,2.67c1.12,4.23,2.94,12.82,4.09,20.69" id="Ske2vmiyu1v" kvg:type="㇑" transform="matrix(1,0,0,1,596,-4)" xmlns:kvg="http://kanjivg.tagaini.net"></path><circle class="stroke_order_diagram--path_start" cx="29.08" cy="42.42" r="4" transform="matrix(1,0,0,1,596,-4)"></circle><line class="stroke_order_diagram--guide_line" x1="750" x2="750" y1="1" y2="99"></line><line class="stroke_order_diagram--bounding_box" x1="799" x2="799" y1="1" y2="99"></line><path class="stroke_order_diagram--existing_path" d="M44.6,9.38c0.04,0.21,0.19,0.61-0.09,0.83c-3.6,2.97-9.5,5.91-15.53,7.98" id="Ske2vmiyu1y" kvg:type="㇒" transform="matrix(1,0,0,1,696,-4)" xmlns:kvg="http://kanjivg.tagaini.net"></path><path class="stroke_order_diagram--existing_path" d="M26.42,16.58c0.53,0.42,1.61,1.96,1.74,2.83c0.48,3.18,2.83,12.46,3.31,16.76" id="Ske2vmiyu1z" kvg:type="㇑" transform="matrix(1,0,0,1,696,-4)" xmlns:kvg="http://kanjivg.tagaini.net"></path><path class="stroke_order_diagram--existing_path" d="M61.08,12.92c0.81,0.09,2.01,0.5,3.33,0.5c1.23,0,14.37-1.59,15.78-1.69c1.41-0.1,2.58,0.51,2.47,1.14c-1.06,5.99-3.53,16.26-4.58,21.22" id="Ske2vmiyu20" kvg:type="㇕" transform="matrix(1,0,0,1,696,-4)" xmlns:kvg="http://kanjivg.tagaini.net"></path><path class="stroke_order_diagram--existing_path" d="M31.1,25.39c4.98-0.95,13.04-2.3,13.98-2.3c0.94,0,3.08,0,3.83,0" id="Ske2vmiyu21" kvg:type="㇐" transform="matrix(1,0,0,1,696,-4)" xmlns:kvg="http://kanjivg.tagaini.net"></path><path class="stroke_order_diagram--existing_path" d="M59.25,22.08c0.94,0.16,2.86,0.67,4.17,0.67c1.31,0,15.84-1.17,17.33-1.33" id="Ske2vmiyu22" kvg:type="㇐" transform="matrix(1,0,0,1,696,-4)" xmlns:kvg="http://kanjivg.tagaini.net"></path><path class="stroke_order_diagram--existing_path" d="M32.16,34.57c10.16-0.89,34.06-3.07,46-3.42" id="Ske2vmiyu23" kvg:type="㇐" transform="matrix(1,0,0,1,696,-4)" xmlns:kvg="http://kanjivg.tagaini.net"></path><path class="stroke_order_diagram--existing_path" d="M29.08,42.42c0.82,0.73,1.81,1.94,2,2.67c1.12,4.23,2.94,12.82,4.09,20.69" id="Ske2vmiyu24" kvg:type="㇑" transform="matrix(1,0,0,1,696,-4)" xmlns:kvg="http://kanjivg.tagaini.net"></path><path class="stroke_order_diagram--current_path" d="M30.42,43.42c12.57-0.75,38.59-2.88,47.17-3c3.55-0.05,3.48,1.92,3,4.33c-0.98,4.93-2.15,10.83-4.17,19" id="kvg:08205-s8" kvg:type="㇕a" transform="matrix(1,0,0,1,696,-4)" xmlns:kvg="http://kanjivg.tagaini.net"></path><path class="stroke_order_diagram--current_path" d="M30.42,43.42c12.57-0.75,38.59-2.88,47.17-3c3.55-0.05,3.48,1.92,3,4.33c-0.98,4.93-2.15,10.83-4.17,19" id="Ske2vmiyu26" kvg:type="㇕a" transform="matrix(1,0,0,1,696,-4)" xmlns:kvg="http://kanjivg.tagaini.net"></path><circle class="stroke_order_diagram--path_start" cx="30.42" cy="43.42" r="4" transform="matrix(1,0,0,1,696,-4)"></circle><line class="stroke_order_diagram--guide_line" x1="850" x2="850" y1="1" y2="99"></line><line class="stroke_order_diagram--bounding_box" x1="899" x2="899" y1="1" y2="99"></line><path class="stroke_order_diagram--existing_path" d="M44.6,9.38c0.04,0.21,0.19,0.61-0.09,0.83c-3.6,2.97-9.5,5.91-15.53,7.98" id="Ske2vmiyu29" kvg:type="㇒" transform="matrix(1,0,0,1,796,-4)" xmlns:kvg="http://kanjivg.tagaini.net"></path><path class="stroke_order_diagram--existing_path" d="M26.42,16.58c0.53,0.42,1.61,1.96,1.74,2.83c0.48,3.18,2.83,12.46,3.31,16.76" id="Ske2vmiyu2a" kvg:type="㇑" transform="matrix(1,0,0,1,796,-4)" xmlns:kvg="http://kanjivg.tagaini.net"></path><path class="stroke_order_diagram--existing_path" d="M61.08,12.92c0.81,0.09,2.01,0.5,3.33,0.5c1.23,0,14.37-1.59,15.78-1.69c1.41-0.1,2.58,0.51,2.47,1.14c-1.06,5.99-3.53,16.26-4.58,21.22" id="Ske2vmiyu2b" kvg:type="㇕" transform="matrix(1,0,0,1,796,-4)" xmlns:kvg="http://kanjivg.tagaini.net"></path><path class="stroke_order_diagram--existing_path" d="M31.1,25.39c4.98-0.95,13.04-2.3,13.98-2.3c0.94,0,3.08,0,3.83,0" id="Ske2vmiyu2c" kvg:type="㇐" transform="matrix(1,0,0,1,796,-4)" xmlns:kvg="http://kanjivg.tagaini.net"></path><path class="stroke_order_diagram--existing_path" d="M59.25,22.08c0.94,0.16,2.86,0.67,4.17,0.67c1.31,0,15.84-1.17,17.33-1.33" id="Ske2vmiyu2d" kvg:type="㇐" transform="matrix(1,0,0,1,796,-4)" xmlns:kvg="http://kanjivg.tagaini.net"></path><path class="stroke_order_diagram--existing_path" d="M32.16,34.57c10.16-0.89,34.06-3.07,46-3.42" id="Ske2vmiyu2e" kvg:type="㇐" transform="matrix(1,0,0,1,796,-4)" xmlns:kvg="http://kanjivg.tagaini.net"></path><path class="stroke_order_diagram--existing_path" d="M29.08,42.42c0.82,0.73,1.81,1.94,2,2.67c1.12,4.23,2.94,12.82,4.09,20.69" id="Ske2vmiyu2f" kvg:type="㇑" transform="matrix(1,0,0,1,796,-4)" xmlns:kvg="http://kanjivg.tagaini.net"></path><path class="stroke_order_diagram--existing_path" d="M30.42,43.42c12.57-0.75,38.59-2.88,47.17-3c3.55-0.05,3.48,1.92,3,4.33c-0.98,4.93-2.15,10.83-4.17,19" id="Ske2vmiyu2g" kvg:type="㇕a" transform="matrix(1,0,0,1,796,-4)" xmlns:kvg="http://kanjivg.tagaini.net"></path><path class="stroke_order_diagram--current_path" d="M53.42,42.75c0.68,0.54,1.15,2.37,1.16,3.28c0.05,6.34,0.26,13.83,0.26,15.62" id="kvg:08205-s9" kvg:type="㇑a" transform="matrix(1,0,0,1,796,-4)" xmlns:kvg="http://kanjivg.tagaini.net"></path><path class="stroke_order_diagram--current_path" d="M53.42,42.75c0.68,0.54,1.15,2.37,1.16,3.28c0.05,6.34,0.26,13.83,0.26,15.62" id="Ske2vmiyu2i" kvg:type="㇑a" transform="matrix(1,0,0,1,796,-4)" xmlns:kvg="http://kanjivg.tagaini.net"></path><circle class="stroke_order_diagram--path_start" cx="53.42" cy="42.75" r="4" transform="matrix(1,0,0,1,796,-4)"></circle><line class="stroke_order_diagram--guide_line" x1="950" x2="950" y1="1" y2="99"></line><line class="stroke_order_diagram--bounding_box" x1="999" x2="999" y1="1" y2="99"></line><path class="stroke_order_diagram--existing_path" d="M44.6,9.38c0.04,0.21,0.19,0.61-0.09,0.83c-3.6,2.97-9.5,5.91-15.53,7.98" id="Ske2vmiyu2l" kvg:type="㇒" transform="matrix(1,0,0,1,896,-4)" xmlns:kvg="http://kanjivg.tagaini.net"></path><path class="stroke_order_diagram--existing_path" d="M26.42,16.58c0.53,0.42,1.61,1.96,1.74,2.83c0.48,3.18,2.83,12.46,3.31,16.76" id="Ske2vmiyu2m" kvg:type="㇑" transform="matrix(1,0,0,1,896,-4)" xmlns:kvg="http://kanjivg.tagaini.net"></path><path class="stroke_order_diagram--existing_path" d="M61.08,12.92c0.81,0.09,2.01,0.5,3.33,0.5c1.23,0,14.37-1.59,15.78-1.69c1.41-0.1,2.58,0.51,2.47,1.14c-1.06,5.99-3.53,16.26-4.58,21.22" id="Ske2vmiyu2n" kvg:type="㇕" transform="matrix(1,0,0,1,896,-4)" xmlns:kvg="http://kanjivg.tagaini.net"></path><path class="stroke_order_diagram--existing_path" d="M31.1,25.39c4.98-0.95,13.04-2.3,13.98-2.3c0.94,0,3.08,0,3.83,0" id="Ske2vmiyu2o" kvg:type="㇐" transform="matrix(1,0,0,1,896,-4)" xmlns:kvg="http://kanjivg.tagaini.net"></path><path class="stroke_order_diagram--existing_path" d="M59.25,22.08c0.94,0.16,2.86,0.67,4.17,0.67c1.31,0,15.84-1.17,17.33-1.33" id="Ske2vmiyu2p" kvg:type="㇐" transform="matrix(1,0,0,1,896,-4)" xmlns:kvg="http://kanjivg.tagaini.net"></path><path class="stroke_order_diagram--existing_path" d="M32.16,34.57c10.16-0.89,34.06-3.07,46-3.42" id="Ske2vmiyu2q" kvg:type="㇐" transform="matrix(1,0,0,1,896,-4)" xmlns:kvg="http://kanjivg.tagaini.net"></path><path class="stroke_order_diagram--existing_path" d="M29.08,42.42c0.82,0.73,1.81,1.94,2,2.67c1.12,4.23,2.94,12.82,4.09,20.69" id="Ske2vmiyu2r" kvg:type="㇑" transform="matrix(1,0,0,1,896,-4)" xmlns:kvg="http://kanjivg.tagaini.net"></path><path class="stroke_order_diagram--existing_path" d="M30.42,43.42c12.57-0.75,38.59-2.88,47.17-3c3.55-0.05,3.48,1.92,3,4.33c-0.98,4.93-2.15,10.83-4.17,19" id="Ske2vmiyu2s" kvg:type="㇕a" transform="matrix(1,0,0,1,896,-4)" xmlns:kvg="http://kanjivg.tagaini.net"></path><path class="stroke_order_diagram--existing_path" d="M53.42,42.75c0.68,0.54,1.15,2.37,1.16,3.28c0.05,6.34,0.26,13.83,0.26,15.62" id="Ske2vmiyu2t" kvg:type="㇑a" transform="matrix(1,0,0,1,896,-4)" xmlns:kvg="http://kanjivg.tagaini.net"></path><path class="stroke_order_diagram--current_path" d="M33.42,52.92c7.3-0.84,39.89-2.8,45.83-2.83" id="kvg:08205-s10" kvg:type="㇐a" transform="matrix(1,0,0,1,896,-4)" xmlns:kvg="http://kanjivg.tagaini.net"></path><path class="stroke_order_diagram--current_path" d="M33.42,52.92c7.3-0.84,39.89-2.8,45.83-2.83" id="Ske2vmiyu2v" kvg:type="㇐a" transform="matrix(1,0,0,1,896,-4)" xmlns:kvg="http://kanjivg.tagaini.net"></path><circle class="stroke_order_diagram--path_start" cx="33.42" cy="52.92" r="4" transform="matrix(1,0,0,1,896,-4)"></circle><line class="stroke_order_diagram--guide_line" x1="1050" x2="1050" y1="1" y2="99"></line><line class="stroke_order_diagram--bounding_box" x1="1099" x2="1099" y1="1" y2="99"></line><path class="stroke_order_diagram--existing_path" d="M44.6,9.38c0.04,0.21,0.19,0.61-0.09,0.83c-3.6,2.97-9.5,5.91-15.53,7.98" id="Ske2vmiyu2y" kvg:type="㇒" transform="matrix(1,0,0,1,996,-4)" xmlns:kvg="http://kanjivg.tagaini.net"></path><path class="stroke_order_diagram--existing_path" d="M26.42,16.58c0.53,0.42,1.61,1.96,1.74,2.83c0.48,3.18,2.83,12.46,3.31,16.76" id="Ske2vmiyu2z" kvg:type="㇑" transform="matrix(1,0,0,1,996,-4)" xmlns:kvg="http://kanjivg.tagaini.net"></path><path class="stroke_order_diagram--existing_path" d="M61.08,12.92c0.81,0.09,2.01,0.5,3.33,0.5c1.23,0,14.37-1.59,15.78-1.69c1.41-0.1,2.58,0.51,2.47,1.14c-1.06,5.99-3.53,16.26-4.58,21.22" id="Ske2vmiyu30" kvg:type="㇕" transform="matrix(1,0,0,1,996,-4)" xmlns:kvg="http://kanjivg.tagaini.net"></path><path class="stroke_order_diagram--existing_path" d="M31.1,25.39c4.98-0.95,13.04-2.3,13.98-2.3c0.94,0,3.08,0,3.83,0" id="Ske2vmiyu31" kvg:type="㇐" transform="matrix(1,0,0,1,996,-4)" xmlns:kvg="http://kanjivg.tagaini.net"></path><path class="stroke_order_diagram--existing_path" d="M59.25,22.08c0.94,0.16,2.86,0.67,4.17,0.67c1.31,0,15.84-1.17,17.33-1.33" id="Ske2vmiyu32" kvg:type="㇐" transform="matrix(1,0,0,1,996,-4)" xmlns:kvg="http://kanjivg.tagaini.net"></path><path class="stroke_order_diagram--existing_path" d="M32.16,34.57c10.16-0.89,34.06-3.07,46-3.42" id="Ske2vmiyu33" kvg:type="㇐" transform="matrix(1,0,0,1,996,-4)" xmlns:kvg="http://kanjivg.tagaini.net"></path><path class="stroke_order_diagram--existing_path" d="M29.08,42.42c0.82,0.73,1.81,1.94,2,2.67c1.12,4.23,2.94,12.82,4.09,20.69" id="Ske2vmiyu34" kvg:type="㇑" transform="matrix(1,0,0,1,996,-4)" xmlns:kvg="http://kanjivg.tagaini.net"></path><path class="stroke_order_diagram--existing_path" d="M30.42,43.42c12.57-0.75,38.59-2.88,47.17-3c3.55-0.05,3.48,1.92,3,4.33c-0.98,4.93-2.15,10.83-4.17,19" id="Ske2vmiyu35" kvg:type="㇕a" transform="matrix(1,0,0,1,996,-4)" xmlns:kvg="http://kanjivg.tagaini.net"></path><path class="stroke_order_diagram--existing_path" d="M53.42,42.75c0.68,0.54,1.15,2.37,1.16,3.28c0.05,6.34,0.26,13.83,0.26,15.62" id="Ske2vmiyu36" kvg:type="㇑a" transform="matrix(1,0,0,1,996,-4)" xmlns:kvg="http://kanjivg.tagaini.net"></path><path class="stroke_order_diagram--existing_path" d="M33.42,52.92c7.3-0.84,39.89-2.8,45.83-2.83" id="Ske2vmiyu37" kvg:type="㇐a" transform="matrix(1,0,0,1,996,-4)" xmlns:kvg="http://kanjivg.tagaini.net"></path><path class="stroke_order_diagram--current_path" d="M35.08,63.58c12.17-1.44,27-1.98,41.33-2.5" id="kvg:08205-s11" kvg:type="㇐a" transform="matrix(1,0,0,1,996,-4)" xmlns:kvg="http://kanjivg.tagaini.net"></path><path class="stroke_order_diagram--current_path" d="M35.08,63.58c12.17-1.44,27-1.98,41.33-2.5" id="Ske2vmiyu39" kvg:type="㇐a" transform="matrix(1,0,0,1,996,-4)" xmlns:kvg="http://kanjivg.tagaini.net"></path><circle class="stroke_order_diagram--path_start" cx="35.08" cy="63.58" r="4" transform="matrix(1,0,0,1,996,-4)"></circle><line class="stroke_order_diagram--guide_line" x1="1150" x2="1150" y1="1" y2="99"></line><line class="stroke_order_diagram--bounding_box" x1="1199" x2="1199" y1="1" y2="99"></line><path class="stroke_order_diagram--existing_path" d="M44.6,9.38c0.04,0.21,0.19,0.61-0.09,0.83c-3.6,2.97-9.5,5.91-15.53,7.98" id="Ske2vmiyu3c" kvg:type="㇒" transform="matrix(1,0,0,1,1096,-4)" xmlns:kvg="http://kanjivg.tagaini.net"></path><path class="stroke_order_diagram--existing_path" d="M26.42,16.58c0.53,0.42,1.61,1.96,1.74,2.83c0.48,3.18,2.83,12.46,3.31,16.76" id="Ske2vmiyu3d" kvg:type="㇑" transform="matrix(1,0,0,1,1096,-4)" xmlns:kvg="http://kanjivg.tagaini.net"></path><path class="stroke_order_diagram--existing_path" d="M61.08,12.92c0.81,0.09,2.01,0.5,3.33,0.5c1.23,0,14.37-1.59,15.78-1.69c1.41-0.1,2.58,0.51,2.47,1.14c-1.06,5.99-3.53,16.26-4.58,21.22" id="Ske2vmiyu3e" kvg:type="㇕" transform="matrix(1,0,0,1,1096,-4)" xmlns:kvg="http://kanjivg.tagaini.net"></path><path class="stroke_order_diagram--existing_path" d="M31.1,25.39c4.98-0.95,13.04-2.3,13.98-2.3c0.94,0,3.08,0,3.83,0" id="Ske2vmiyu3f" kvg:type="㇐" transform="matrix(1,0,0,1,1096,-4)" xmlns:kvg="http://kanjivg.tagaini.net"></path><path class="stroke_order_diagram--existing_path" d="M59.25,22.08c0.94,0.16,2.86,0.67,4.17,0.67c1.31,0,15.84-1.17,17.33-1.33" id="Ske2vmiyu3g" kvg:type="㇐" transform="matrix(1,0,0,1,1096,-4)" xmlns:kvg="http://kanjivg.tagaini.net"></path><path class="stroke_order_diagram--existing_path" d="M32.16,34.57c10.16-0.89,34.06-3.07,46-3.42" id="Ske2vmiyu3h" kvg:type="㇐" transform="matrix(1,0,0,1,1096,-4)" xmlns:kvg="http://kanjivg.tagaini.net"></path><path class="stroke_order_diagram--existing_path" d="M29.08,42.42c0.82,0.73,1.81,1.94,2,2.67c1.12,4.23,2.94,12.82,4.09,20.69" id="Ske2vmiyu3i" kvg:type="㇑" transform="matrix(1,0,0,1,1096,-4)" xmlns:kvg="http://kanjivg.tagaini.net"></path><path class="stroke_order_diagram--existing_path" d="M30.42,43.42c12.57-0.75,38.59-2.88,47.17-3c3.55-0.05,3.48,1.92,3,4.33c-0.98,4.93-2.15,10.83-4.17,19" id="Ske2vmiyu3j" kvg:type="㇕a" transform="matrix(1,0,0,1,1096,-4)" xmlns:kvg="http://kanjivg.tagaini.net"></path><path class="stroke_order_diagram--existing_path" d="M53.42,42.75c0.68,0.54,1.15,2.37,1.16,3.28c0.05,6.34,0.26,13.83,0.26,15.62" id="Ske2vmiyu3k" kvg:type="㇑a" transform="matrix(1,0,0,1,1096,-4)" xmlns:kvg="http://kanjivg.tagaini.net"></path><path class="stroke_order_diagram--existing_path" d="M33.42,52.92c7.3-0.84,39.89-2.8,45.83-2.83" id="Ske2vmiyu3l" kvg:type="㇐a" transform="matrix(1,0,0,1,1096,-4)" xmlns:kvg="http://kanjivg.tagaini.net"></path><path class="stroke_order_diagram--existing_path" d="M35.08,63.58c12.17-1.44,27-1.98,41.33-2.5" id="Ske2vmiyu3m" kvg:type="㇐a" transform="matrix(1,0,0,1,1096,-4)" xmlns:kvg="http://kanjivg.tagaini.net"></path><path class="stroke_order_diagram--current_path" d="M24.75,74.08c1.54,0.43,3.21,0.84,6,0.67c13-0.83,41.34-3.59,46.19-3.94c3.15-0.23,3.56,1.51,3.39,3.11c-0.46,4.21-5.64,16.5-9.58,20.66c-3.15,3.33-3.83,1.33-6-0.17" id="kvg:08205-s12" kvg:type="㇆" transform="matrix(1,0,0,1,1096,-4)" xmlns:kvg="http://kanjivg.tagaini.net"></path><path class="stroke_order_diagram--current_path" d="M24.75,74.08c1.54,0.43,3.21,0.84,6,0.67c13-0.83,41.34-3.59,46.19-3.94c3.15-0.23,3.56,1.51,3.39,3.11c-0.46,4.21-5.64,16.5-9.58,20.66c-3.15,3.33-3.83,1.33-6-0.17" id="Ske2vmiyu3o" kvg:type="㇆" transform="matrix(1,0,0,1,1096,-4)" xmlns:kvg="http://kanjivg.tagaini.net"></path><circle class="stroke_order_diagram--path_start" cx="24.75" cy="74.08" r="4" transform="matrix(1,0,0,1,1096,-4)"></circle><line class="stroke_order_diagram--guide_line" x1="1250" x2="1250" y1="1" y2="99"></line><line class="stroke_order_diagram--bounding_box" x1="1299" x2="1299" y1="1" y2="99"></line><path class="stroke_order_diagram--existing_path" d="M44.6,9.38c0.04,0.21,0.19,0.61-0.09,0.83c-3.6,2.97-9.5,5.91-15.53,7.98" id="Ske2vmiyu3r" kvg:type="㇒" transform="matrix(1,0,0,1,1196,-4)" xmlns:kvg="http://kanjivg.tagaini.net"></path><path class="stroke_order_diagram--existing_path" d="M26.42,16.58c0.53,0.42,1.61,1.96,1.74,2.83c0.48,3.18,2.83,12.46,3.31,16.76" id="Ske2vmiyu3s" kvg:type="㇑" transform="matrix(1,0,0,1,1196,-4)" xmlns:kvg="http://kanjivg.tagaini.net"></path><path class="stroke_order_diagram--existing_path" d="M61.08,12.92c0.81,0.09,2.01,0.5,3.33,0.5c1.23,0,14.37-1.59,15.78-1.69c1.41-0.1,2.58,0.51,2.47,1.14c-1.06,5.99-3.53,16.26-4.58,21.22" id="Ske2vmiyu3t" kvg:type="㇕" transform="matrix(1,0,0,1,1196,-4)" xmlns:kvg="http://kanjivg.tagaini.net"></path><path class="stroke_order_diagram--existing_path" d="M31.1,25.39c4.98-0.95,13.04-2.3,13.98-2.3c0.94,0,3.08,0,3.83,0" id="Ske2vmiyu3u" kvg:type="㇐" transform="matrix(1,0,0,1,1196,-4)" xmlns:kvg="http://kanjivg.tagaini.net"></path><path class="stroke_order_diagram--existing_path" d="M59.25,22.08c0.94,0.16,2.86,0.67,4.17,0.67c1.31,0,15.84-1.17,17.33-1.33" id="Ske2vmiyu3v" kvg:type="㇐" transform="matrix(1,0,0,1,1196,-4)" xmlns:kvg="http://kanjivg.tagaini.net"></path><path class="stroke_order_diagram--existing_path" d="M32.16,34.57c10.16-0.89,34.06-3.07,46-3.42" id="Ske2vmiyu3w" kvg:type="㇐" transform="matrix(1,0,0,1,1196,-4)" xmlns:kvg="http://kanjivg.tagaini.net"></path><path class="stroke_order_diagram--existing_path" d="M29.08,42.42c0.82,0.73,1.81,1.94,2,2.67c1.12,4.23,2.94,12.82,4.09,20.69" id="Ske2vmiyu3x" kvg:type="㇑" transform="matrix(1,0,0,1,1196,-4)" xmlns:kvg="http://kanjivg.tagaini.net"></path><path class="stroke_order_diagram--existing_path" d="M30.42,43.42c12.57-0.75,38.59-2.88,47.17-3c3.55-0.05,3.48,1.92,3,4.33c-0.98,4.93-2.15,10.83-4.17,19" id="Ske2vmiyu3y" kvg:type="㇕a" transform="matrix(1,0,0,1,1196,-4)" xmlns:kvg="http://kanjivg.tagaini.net"></path><path class="stroke_order_diagram--existing_path" d="M53.42,42.75c0.68,0.54,1.15,2.37,1.16,3.28c0.05,6.34,0.26,13.83,0.26,15.62" id="Ske2vmiyu3z" kvg:type="㇑a" transform="matrix(1,0,0,1,1196,-4)" xmlns:kvg="http://kanjivg.tagaini.net"></path><path class="stroke_order_diagram--existing_path" d="M33.42,52.92c7.3-0.84,39.89-2.8,45.83-2.83" id="Ske2vmiyu40" kvg:type="㇐a" transform="matrix(1,0,0,1,1196,-4)" xmlns:kvg="http://kanjivg.tagaini.net"></path><path class="stroke_order_diagram--existing_path" d="M35.08,63.58c12.17-1.44,27-1.98,41.33-2.5" id="Ske2vmiyu41" kvg:type="㇐a" transform="matrix(1,0,0,1,1196,-4)" xmlns:kvg="http://kanjivg.tagaini.net"></path><path class="stroke_order_diagram--existing_path" d="M24.75,74.08c1.54,0.43,3.21,0.84,6,0.67c13-0.83,41.34-3.59,46.19-3.94c3.15-0.23,3.56,1.51,3.39,3.11c-0.46,4.21-5.64,16.5-9.58,20.66c-3.15,3.33-3.83,1.33-6-0.17" id="Ske2vmiyu42" kvg:type="㇆" transform="matrix(1,0,0,1,1196,-4)" xmlns:kvg="http://kanjivg.tagaini.net"></path><path class="stroke_order_diagram--current_path" d="M51.78,65.08c0.79,1.01,0.77,2.08,0.48,3.21c-3.96,15.4-15.22,25.88-33.78,30.39" id="kvg:08205-s13" kvg:type="㇒" transform="matrix(1,0,0,1,1196,-4)" xmlns:kvg="http://kanjivg.tagaini.net"></path><path class="stroke_order_diagram--current_path" d="M51.78,65.08c0.79,1.01,0.77,2.08,0.48,3.21c-3.96,15.4-15.22,25.88-33.78,30.39" id="Ske2vmiyu44" kvg:type="㇒" transform="matrix(1,0,0,1,1196,-4)" xmlns:kvg="http://kanjivg.tagaini.net"></path><circle class="stroke_order_diagram--path_start" cx="51.78" cy="65.08" r="4" transform="matrix(1,0,0,1,1196,-4)"></circle></svg>