<svg class="stroke_order_diagram--svg_container_for_51866289d5dda79658000625" style="height: 100px; width: 600px;" viewbox="0 0 600 100"><desc>Created with Snap</desc><defs></defs><line class="stroke_order_diagram--bounding_box" x1="1" x2="599" y1="1" y2="1"></line><line class="stroke_order_diagram--bounding_box" x1="1" x2="1" y1="1" y2="99"></line><line class="stroke_order_diagram--bounding_box" x1="1" x2="599" y1="99" y2="99"></line><line class="stroke_order_diagram--guide_line" x1="0" x2="600" y1="50" y2="50"></line><line class="stroke_order_diagram--guide_line" x1="50" x2="50" y1="1" y2="99"></line><line class="stroke_order_diagram--bounding_box" x1="99" x2="99" y1="1" y2="99"></line><path class="stroke_order_diagram--current_path" d="M67.12,11.5c-0.25,1.12-1,2.25-2.27,3.11c-5.1,3.46-18.98,9.89-37.47,15.41" id="kvg:0820c-s1" kvg:type="㇒" transform="matrix(1,0,0,1,-4,-4)" xmlns:kvg="http://kanjivg.tagaini.net"></path><path class="stroke_order_diagram--current_path" d="M67.12,11.5c-0.25,1.12-1,2.25-2.27,3.11c-5.1,3.46-18.98,9.89-37.47,15.41" id="Ske200sqvf" kvg:type="㇒" transform="matrix(1,0,0,1,-4,-4)" xmlns:kvg="http://kanjivg.tagaini.net"></path><circle class="stroke_order_diagram--path_start" cx="67.12" cy="11.5" r="4" transform="matrix(1,0,0,1,-4,-4)"></circle><line class="stroke_order_diagram--guide_line" x1="150" x2="150" y1="1" y2="99"></line><line class="stroke_order_diagram--bounding_box" x1="199" x2="199" y1="1" y2="99"></line><path class="stroke_order_diagram--existing_path" d="M67.12,11.5c-0.25,1.12-1,2.25-2.27,3.11c-5.1,3.46-18.98,9.89-37.47,15.41" id="Ske200sqvi" kvg:type="㇒" transform="matrix(1,0,0,1,96,-4)" xmlns:kvg="http://kanjivg.tagaini.net"></path><path class="stroke_order_diagram--current_path" d="M14.63,48.81c1.8,0.41,6.32,0.64,8.09,0.41c17.66-2.34,47.03-6.22,66.36-6.71c3-0.08,4.8,0.19,6.3,0.4" id="kvg:0820c-s2" kvg:type="㇐" transform="matrix(1,0,0,1,96,-4)" xmlns:kvg="http://kanjivg.tagaini.net"></path><path class="stroke_order_diagram--current_path" d="M14.63,48.81c1.8,0.41,6.32,0.64,8.09,0.41c17.66-2.34,47.03-6.22,66.36-6.71c3-0.08,4.8,0.19,6.3,0.4" id="Ske200sqvk" kvg:type="㇐" transform="matrix(1,0,0,1,96,-4)" xmlns:kvg="http://kanjivg.tagaini.net"></path><circle class="stroke_order_diagram--path_start" cx="14.63" cy="48.81" r="4" transform="matrix(1,0,0,1,96,-4)"></circle><line class="stroke_order_diagram--guide_line" x1="250" x2="250" y1="1" y2="99"></line><line class="stroke_order_diagram--bounding_box" x1="299" x2="299" y1="1" y2="99"></line><path class="stroke_order_diagram--existing_path" d="M67.12,11.5c-0.25,1.12-1,2.25-2.27,3.11c-5.1,3.46-18.98,9.89-37.47,15.41" id="Ske200sqvn" kvg:type="㇒" transform="matrix(1,0,0,1,196,-4)" xmlns:kvg="http://kanjivg.tagaini.net"></path><path class="stroke_order_diagram--existing_path" d="M14.63,48.81c1.8,0.41,6.32,0.64,8.09,0.41c17.66-2.34,47.03-6.22,66.36-6.71c3-0.08,4.8,0.19,6.3,0.4" id="Ske200sqvo" kvg:type="㇐" transform="matrix(1,0,0,1,196,-4)" xmlns:kvg="http://kanjivg.tagaini.net"></path><path class="stroke_order_diagram--current_path" d="M52.56,25.26c1.21,1.21,1.76,2.99,1.76,4.58c0,4.28,0,29.41,0,38.91" id="kvg:0820c-s3" kvg:type="㇑a" transform="matrix(1,0,0,1,196,-4)" xmlns:kvg="http://kanjivg.tagaini.net"></path><path class="stroke_order_diagram--current_path" d="M52.56,25.26c1.21,1.21,1.76,2.99,1.76,4.58c0,4.28,0,29.41,0,38.91" id="Ske200sqvq" kvg:type="㇑a" transform="matrix(1,0,0,1,196,-4)" xmlns:kvg="http://kanjivg.tagaini.net"></path><circle class="stroke_order_diagram--path_start" cx="52.56" cy="25.26" r="4" transform="matrix(1,0,0,1,196,-4)"></circle><line class="stroke_order_diagram--guide_line" x1="350" x2="350" y1="1" y2="99"></line><line class="stroke_order_diagram--bounding_box" x1="399" x2="399" y1="1" y2="99"></line><path class="stroke_order_diagram--existing_path" d="M67.12,11.5c-0.25,1.12-1,2.25-2.27,3.11c-5.1,3.46-18.98,9.89-37.47,15.41" id="Ske200sqvt" kvg:type="㇒" transform="matrix(1,0,0,1,296,-4)" xmlns:kvg="http://kanjivg.tagaini.net"></path><path class="stroke_order_diagram--existing_path" d="M14.63,48.81c1.8,0.41,6.32,0.64,8.09,0.41c17.66-2.34,47.03-6.22,66.36-6.71c3-0.08,4.8,0.19,6.3,0.4" id="Ske200sqvu" kvg:type="㇐" transform="matrix(1,0,0,1,296,-4)" xmlns:kvg="http://kanjivg.tagaini.net"></path><path class="stroke_order_diagram--existing_path" d="M52.56,25.26c1.21,1.21,1.76,2.99,1.76,4.58c0,4.28,0,29.41,0,38.91" id="Ske200sqvv" kvg:type="㇑a" transform="matrix(1,0,0,1,296,-4)" xmlns:kvg="http://kanjivg.tagaini.net"></path><path class="stroke_order_diagram--current_path" d="M30,70.75c1.5,0.88,2.12,2.25,2.52,3.74c1.31,4.92,3.49,13.03,4.85,20.03c0.32,1.67,0.62,3.26,0.88,4.73" id="kvg:0820c-s4" kvg:type="㇑" transform="matrix(1,0,0,1,296,-4)" xmlns:kvg="http://kanjivg.tagaini.net"></path><path class="stroke_order_diagram--current_path" d="M30,70.75c1.5,0.88,2.12,2.25,2.52,3.74c1.31,4.92,3.49,13.03,4.85,20.03c0.32,1.67,0.62,3.26,0.88,4.73" id="Ske200sqvx" kvg:type="㇑" transform="matrix(1,0,0,1,296,-4)" xmlns:kvg="http://kanjivg.tagaini.net"></path><circle class="stroke_order_diagram--path_start" cx="30" cy="70.75" r="4" transform="matrix(1,0,0,1,296,-4)"></circle><line class="stroke_order_diagram--guide_line" x1="450" x2="450" y1="1" y2="99"></line><line class="stroke_order_diagram--bounding_box" x1="499" x2="499" y1="1" y2="99"></line><path class="stroke_order_diagram--existing_path" d="M67.12,11.5c-0.25,1.12-1,2.25-2.27,3.11c-5.1,3.46-18.98,9.89-37.47,15.41" id="Ske200sqv10" kvg:type="㇒" transform="matrix(1,0,0,1,396,-4)" xmlns:kvg="http://kanjivg.tagaini.net"></path><path class="stroke_order_diagram--existing_path" d="M14.63,48.81c1.8,0.41,6.32,0.64,8.09,0.41c17.66-2.34,47.03-6.22,66.36-6.71c3-0.08,4.8,0.19,6.3,0.4" id="Ske200sqv11" kvg:type="㇐" transform="matrix(1,0,0,1,396,-4)" xmlns:kvg="http://kanjivg.tagaini.net"></path><path class="stroke_order_diagram--existing_path" d="M52.56,25.26c1.21,1.21,1.76,2.99,1.76,4.58c0,4.28,0,29.41,0,38.91" id="Ske200sqv12" kvg:type="㇑a" transform="matrix(1,0,0,1,396,-4)" xmlns:kvg="http://kanjivg.tagaini.net"></path><path class="stroke_order_diagram--existing_path" d="M30,70.75c1.5,0.88,2.12,2.25,2.52,3.74c1.31,4.92,3.49,13.03,4.85,20.03c0.32,1.67,0.62,3.26,0.88,4.73" id="Ske200sqv13" kvg:type="㇑" transform="matrix(1,0,0,1,396,-4)" xmlns:kvg="http://kanjivg.tagaini.net"></path><path class="stroke_order_diagram--current_path" d="M32.66,71.83c13.59-1.45,36.19-3.69,44.96-4.34c3.2-0.24,4.13,2.41,3.67,3.81c-1.9,5.78-5.62,13.76-8.44,21.75" id="kvg:0820c-s5" kvg:type="㇕b" transform="matrix(1,0,0,1,396,-4)" xmlns:kvg="http://kanjivg.tagaini.net"></path><path class="stroke_order_diagram--current_path" d="M32.66,71.83c13.59-1.45,36.19-3.69,44.96-4.34c3.2-0.24,4.13,2.41,3.67,3.81c-1.9,5.78-5.62,13.76-8.44,21.75" id="Ske200sqv15" kvg:type="㇕b" transform="matrix(1,0,0,1,396,-4)" xmlns:kvg="http://kanjivg.tagaini.net"></path><circle class="stroke_order_diagram--path_start" cx="32.66" cy="71.83" r="4" transform="matrix(1,0,0,1,396,-4)"></circle><line class="stroke_order_diagram--guide_line" x1="550" x2="550" y1="1" y2="99"></line><line class="stroke_order_diagram--bounding_box" x1="599" x2="599" y1="1" y2="99"></line><path class="stroke_order_diagram--existing_path" d="M67.12,11.5c-0.25,1.12-1,2.25-2.27,3.11c-5.1,3.46-18.98,9.89-37.47,15.41" id="Ske200sqv18" kvg:type="㇒" transform="matrix(1,0,0,1,496,-4)" xmlns:kvg="http://kanjivg.tagaini.net"></path><path class="stroke_order_diagram--existing_path" d="M14.63,48.81c1.8,0.41,6.32,0.64,8.09,0.41c17.66-2.34,47.03-6.22,66.36-6.71c3-0.08,4.8,0.19,6.3,0.4" id="Ske200sqv19" kvg:type="㇐" transform="matrix(1,0,0,1,496,-4)" xmlns:kvg="http://kanjivg.tagaini.net"></path><path class="stroke_order_diagram--existing_path" d="M52.56,25.26c1.21,1.21,1.76,2.99,1.76,4.58c0,4.28,0,29.41,0,38.91" id="Ske200sqv1a" kvg:type="㇑a" transform="matrix(1,0,0,1,496,-4)" xmlns:kvg="http://kanjivg.tagaini.net"></path><path class="stroke_order_diagram--existing_path" d="M30,70.75c1.5,0.88,2.12,2.25,2.52,3.74c1.31,4.92,3.49,13.03,4.85,20.03c0.32,1.67,0.62,3.26,0.88,4.73" id="Ske200sqv1b" kvg:type="㇑" transform="matrix(1,0,0,1,496,-4)" xmlns:kvg="http://kanjivg.tagaini.net"></path><path class="stroke_order_diagram--existing_path" d="M32.66,71.83c13.59-1.45,36.19-3.69,44.96-4.34c3.2-0.24,4.13,2.41,3.67,3.81c-1.9,5.78-5.62,13.76-8.44,21.75" id="Ske200sqv1c" kvg:type="㇕b" transform="matrix(1,0,0,1,496,-4)" xmlns:kvg="http://kanjivg.tagaini.net"></path><path class="stroke_order_diagram--current_path" d="M38.42,96.91c9.19-0.66,22.7-1.91,32.12-2.51c1.48-0.1,2.98-0.25,4.51-0.37" id="kvg:0820c-s6" kvg:type="㇐b" transform="matrix(1,0,0,1,496,-4)" xmlns:kvg="http://kanjivg.tagaini.net"></path><path class="stroke_order_diagram--current_path" d="M38.42,96.91c9.19-0.66,22.7-1.91,32.12-2.51c1.48-0.1,2.98-0.25,4.51-0.37" id="Ske200sqv1e" kvg:type="㇐b" transform="matrix(1,0,0,1,496,-4)" xmlns:kvg="http://kanjivg.tagaini.net"></path><circle class="stroke_order_diagram--path_start" cx="38.42" cy="96.91" r="4" transform="matrix(1,0,0,1,496,-4)"></circle></svg>