<svg class="stroke_order_diagram--svg_container_for_518662b9d5dda79658001469" style="height: 100px; width: 900px;" viewbox="0 0 900 100"><desc>Created with Snap</desc><defs></defs><line class="stroke_order_diagram--bounding_box" x1="1" x2="899" y1="1" y2="1"></line><line class="stroke_order_diagram--bounding_box" x1="1" x2="1" y1="1" y2="99"></line><line class="stroke_order_diagram--bounding_box" x1="1" x2="899" y1="99" y2="99"></line><line class="stroke_order_diagram--guide_line" x1="0" x2="900" y1="50" y2="50"></line><line class="stroke_order_diagram--guide_line" x1="50" x2="50" y1="1" y2="99"></line><line class="stroke_order_diagram--bounding_box" x1="99" x2="99" y1="1" y2="99"></line><path class="stroke_order_diagram--current_path" d="M18.5,28.77c1.29,0.53,2.8,0.63,4.1,0.53c11.9-0.96,51.9-3.46,65.62-3.53c2.16-0.01,3.45,0.25,4.53,0.51" id="kvg:08332-s1" kvg:type="㇐" transform="matrix(1,0,0,1,-4,-4)" xmlns:kvg="http://kanjivg.tagaini.net"></path><path class="stroke_order_diagram--current_path" d="M18.5,28.77c1.29,0.53,2.8,0.63,4.1,0.53c11.9-0.96,51.9-3.46,65.62-3.53c2.16-0.01,3.45,0.25,4.53,0.51" id="Ske2w1w7ii" kvg:type="㇐" transform="matrix(1,0,0,1,-4,-4)" xmlns:kvg="http://kanjivg.tagaini.net"></path><circle class="stroke_order_diagram--path_start" cx="18.5" cy="28.77" r="4" transform="matrix(1,0,0,1,-4,-4)"></circle><line class="stroke_order_diagram--guide_line" x1="150" x2="150" y1="1" y2="99"></line><line class="stroke_order_diagram--bounding_box" x1="199" x2="199" y1="1" y2="99"></line><path class="stroke_order_diagram--existing_path" d="M18.5,28.77c1.29,0.53,2.8,0.63,4.1,0.53c11.9-0.96,51.9-3.46,65.62-3.53c2.16-0.01,3.45,0.25,4.53,0.51" id="Ske2w1w7il" kvg:type="㇐" transform="matrix(1,0,0,1,96,-4)" xmlns:kvg="http://kanjivg.tagaini.net"></path><path class="stroke_order_diagram--current_path" d="M36.75,16c1.75,1.43,2.31,1.87,2.5,2.75C41,27,41.5,34.5,42,37.5" id="kvg:08332-s2" kvg:type="㇑" transform="matrix(1,0,0,1,96,-4)" xmlns:kvg="http://kanjivg.tagaini.net"></path><path class="stroke_order_diagram--current_path" d="M36.75,16c1.75,1.43,2.31,1.87,2.5,2.75C41,27,41.5,34.5,42,37.5" id="Ske2w1w7in" kvg:type="㇑" transform="matrix(1,0,0,1,96,-4)" xmlns:kvg="http://kanjivg.tagaini.net"></path><circle class="stroke_order_diagram--path_start" cx="36.75" cy="16" r="4" transform="matrix(1,0,0,1,96,-4)"></circle><line class="stroke_order_diagram--guide_line" x1="250" x2="250" y1="1" y2="99"></line><line class="stroke_order_diagram--bounding_box" x1="299" x2="299" y1="1" y2="99"></line><path class="stroke_order_diagram--existing_path" d="M18.5,28.77c1.29,0.53,2.8,0.63,4.1,0.53c11.9-0.96,51.9-3.46,65.62-3.53c2.16-0.01,3.45,0.25,4.53,0.51" id="Ske2w1w7iq" kvg:type="㇐" transform="matrix(1,0,0,1,196,-4)" xmlns:kvg="http://kanjivg.tagaini.net"></path><path class="stroke_order_diagram--existing_path" d="M36.75,16c1.75,1.43,2.31,1.87,2.5,2.75C41,27,41.5,34.5,42,37.5" id="Ske2w1w7ir" kvg:type="㇑" transform="matrix(1,0,0,1,196,-4)" xmlns:kvg="http://kanjivg.tagaini.net"></path><path class="stroke_order_diagram--current_path" d="M68.25,13.75c0.42,1.18,0.84,2.02,0.5,3.5C67.07,24.64,66,29.5,64.25,36.5" id="kvg:08332-s3" kvg:type="㇑" transform="matrix(1,0,0,1,196,-4)" xmlns:kvg="http://kanjivg.tagaini.net"></path><path class="stroke_order_diagram--current_path" d="M68.25,13.75c0.42,1.18,0.84,2.02,0.5,3.5C67.07,24.64,66,29.5,64.25,36.5" id="Ske2w1w7it" kvg:type="㇑" transform="matrix(1,0,0,1,196,-4)" xmlns:kvg="http://kanjivg.tagaini.net"></path><circle class="stroke_order_diagram--path_start" cx="68.25" cy="13.75" r="4" transform="matrix(1,0,0,1,196,-4)"></circle><line class="stroke_order_diagram--guide_line" x1="350" x2="350" y1="1" y2="99"></line><line class="stroke_order_diagram--bounding_box" x1="399" x2="399" y1="1" y2="99"></line><path class="stroke_order_diagram--existing_path" d="M18.5,28.77c1.29,0.53,2.8,0.63,4.1,0.53c11.9-0.96,51.9-3.46,65.62-3.53c2.16-0.01,3.45,0.25,4.53,0.51" id="Ske2w1w7iw" kvg:type="㇐" transform="matrix(1,0,0,1,296,-4)" xmlns:kvg="http://kanjivg.tagaini.net"></path><path class="stroke_order_diagram--existing_path" d="M36.75,16c1.75,1.43,2.31,1.87,2.5,2.75C41,27,41.5,34.5,42,37.5" id="Ske2w1w7ix" kvg:type="㇑" transform="matrix(1,0,0,1,296,-4)" xmlns:kvg="http://kanjivg.tagaini.net"></path><path class="stroke_order_diagram--existing_path" d="M68.25,13.75c0.42,1.18,0.84,2.02,0.5,3.5C67.07,24.64,66,29.5,64.25,36.5" id="Ske2w1w7iy" kvg:type="㇑" transform="matrix(1,0,0,1,296,-4)" xmlns:kvg="http://kanjivg.tagaini.net"></path><path class="stroke_order_diagram--current_path" d="M34.63,39.87c0.3,1.1,0.39,1.94-0.15,3.13C32,48.5,30,52.75,24.85,58.27c-0.55,0.59-0.63,2.69,0,2.76c3.9,0.47,10.87,2.95,13.59,4.97" id="kvg:08332-s4" kvg:type="㇜" transform="matrix(1,0,0,1,296,-4)" xmlns:kvg="http://kanjivg.tagaini.net"></path><path class="stroke_order_diagram--current_path" d="M34.63,39.87c0.3,1.1,0.39,1.94-0.15,3.13C32,48.5,30,52.75,24.85,58.27c-0.55,0.59-0.63,2.69,0,2.76c3.9,0.47,10.87,2.95,13.59,4.97" id="Ske2w1w7i10" kvg:type="㇜" transform="matrix(1,0,0,1,296,-4)" xmlns:kvg="http://kanjivg.tagaini.net"></path><circle class="stroke_order_diagram--path_start" cx="34.63" cy="39.87" r="4" transform="matrix(1,0,0,1,296,-4)"></circle><line class="stroke_order_diagram--guide_line" x1="450" x2="450" y1="1" y2="99"></line><line class="stroke_order_diagram--bounding_box" x1="499" x2="499" y1="1" y2="99"></line><path class="stroke_order_diagram--existing_path" d="M18.5,28.77c1.29,0.53,2.8,0.63,4.1,0.53c11.9-0.96,51.9-3.46,65.62-3.53c2.16-0.01,3.45,0.25,4.53,0.51" id="Ske2w1w7i13" kvg:type="㇐" transform="matrix(1,0,0,1,396,-4)" xmlns:kvg="http://kanjivg.tagaini.net"></path><path class="stroke_order_diagram--existing_path" d="M36.75,16c1.75,1.43,2.31,1.87,2.5,2.75C41,27,41.5,34.5,42,37.5" id="Ske2w1w7i14" kvg:type="㇑" transform="matrix(1,0,0,1,396,-4)" xmlns:kvg="http://kanjivg.tagaini.net"></path><path class="stroke_order_diagram--existing_path" d="M68.25,13.75c0.42,1.18,0.84,2.02,0.5,3.5C67.07,24.64,66,29.5,64.25,36.5" id="Ske2w1w7i15" kvg:type="㇑" transform="matrix(1,0,0,1,396,-4)" xmlns:kvg="http://kanjivg.tagaini.net"></path><path class="stroke_order_diagram--existing_path" d="M34.63,39.87c0.3,1.1,0.39,1.94-0.15,3.13C32,48.5,30,52.75,24.85,58.27c-0.55,0.59-0.63,2.69,0,2.76c3.9,0.47,10.87,2.95,13.59,4.97" id="Ske2w1w7i16" kvg:type="㇜" transform="matrix(1,0,0,1,396,-4)" xmlns:kvg="http://kanjivg.tagaini.net"></path><path class="stroke_order_diagram--current_path" d="M49.79,47.62c0.42,1.38,0.18,4.23-0.39,5C41.64,63.25,32.09,75.5,20.75,89.37c-1.3,1.59-0.78,2.45,0.78,2c10.72-3.12,17.47-4.62,26.75-7.5" id="kvg:08332-s5" kvg:type="㇜" transform="matrix(1,0,0,1,396,-4)" xmlns:kvg="http://kanjivg.tagaini.net"></path><path class="stroke_order_diagram--current_path" d="M49.79,47.62c0.42,1.38,0.18,4.23-0.39,5C41.64,63.25,32.09,75.5,20.75,89.37c-1.3,1.59-0.78,2.45,0.78,2c10.72-3.12,17.47-4.62,26.75-7.5" id="Ske2w1w7i18" kvg:type="㇜" transform="matrix(1,0,0,1,396,-4)" xmlns:kvg="http://kanjivg.tagaini.net"></path><circle class="stroke_order_diagram--path_start" cx="49.79" cy="47.62" r="4" transform="matrix(1,0,0,1,396,-4)"></circle><line class="stroke_order_diagram--guide_line" x1="550" x2="550" y1="1" y2="99"></line><line class="stroke_order_diagram--bounding_box" x1="599" x2="599" y1="1" y2="99"></line><path class="stroke_order_diagram--existing_path" d="M18.5,28.77c1.29,0.53,2.8,0.63,4.1,0.53c11.9-0.96,51.9-3.46,65.62-3.53c2.16-0.01,3.45,0.25,4.53,0.51" id="Ske2w1w7i1b" kvg:type="㇐" transform="matrix(1,0,0,1,496,-4)" xmlns:kvg="http://kanjivg.tagaini.net"></path><path class="stroke_order_diagram--existing_path" d="M36.75,16c1.75,1.43,2.31,1.87,2.5,2.75C41,27,41.5,34.5,42,37.5" id="Ske2w1w7i1c" kvg:type="㇑" transform="matrix(1,0,0,1,496,-4)" xmlns:kvg="http://kanjivg.tagaini.net"></path><path class="stroke_order_diagram--existing_path" d="M68.25,13.75c0.42,1.18,0.84,2.02,0.5,3.5C67.07,24.64,66,29.5,64.25,36.5" id="Ske2w1w7i1d" kvg:type="㇑" transform="matrix(1,0,0,1,496,-4)" xmlns:kvg="http://kanjivg.tagaini.net"></path><path class="stroke_order_diagram--existing_path" d="M34.63,39.87c0.3,1.1,0.39,1.94-0.15,3.13C32,48.5,30,52.75,24.85,58.27c-0.55,0.59-0.63,2.69,0,2.76c3.9,0.47,10.87,2.95,13.59,4.97" id="Ske2w1w7i1e" kvg:type="㇜" transform="matrix(1,0,0,1,496,-4)" xmlns:kvg="http://kanjivg.tagaini.net"></path><path class="stroke_order_diagram--existing_path" d="M49.79,47.62c0.42,1.38,0.18,4.23-0.39,5C41.64,63.25,32.09,75.5,20.75,89.37c-1.3,1.59-0.78,2.45,0.78,2c10.72-3.12,17.47-4.62,26.75-7.5" id="Ske2w1w7i1f" kvg:type="㇜" transform="matrix(1,0,0,1,496,-4)" xmlns:kvg="http://kanjivg.tagaini.net"></path><path class="stroke_order_diagram--current_path" d="M42.04,74.12c3.5,3.26,9.04,13.42,9.91,18.5" id="kvg:08332-s6" kvg:type="㇔" transform="matrix(1,0,0,1,496,-4)" xmlns:kvg="http://kanjivg.tagaini.net"></path><path class="stroke_order_diagram--current_path" d="M42.04,74.12c3.5,3.26,9.04,13.42,9.91,18.5" id="Ske2w1w7i1h" kvg:type="㇔" transform="matrix(1,0,0,1,496,-4)" xmlns:kvg="http://kanjivg.tagaini.net"></path><circle class="stroke_order_diagram--path_start" cx="42.04" cy="74.12" r="4" transform="matrix(1,0,0,1,496,-4)"></circle><line class="stroke_order_diagram--guide_line" x1="650" x2="650" y1="1" y2="99"></line><line class="stroke_order_diagram--bounding_box" x1="699" x2="699" y1="1" y2="99"></line><path class="stroke_order_diagram--existing_path" d="M18.5,28.77c1.29,0.53,2.8,0.63,4.1,0.53c11.9-0.96,51.9-3.46,65.62-3.53c2.16-0.01,3.45,0.25,4.53,0.51" id="Ske2w1w7i1k" kvg:type="㇐" transform="matrix(1,0,0,1,596,-4)" xmlns:kvg="http://kanjivg.tagaini.net"></path><path class="stroke_order_diagram--existing_path" d="M36.75,16c1.75,1.43,2.31,1.87,2.5,2.75C41,27,41.5,34.5,42,37.5" id="Ske2w1w7i1l" kvg:type="㇑" transform="matrix(1,0,0,1,596,-4)" xmlns:kvg="http://kanjivg.tagaini.net"></path><path class="stroke_order_diagram--existing_path" d="M68.25,13.75c0.42,1.18,0.84,2.02,0.5,3.5C67.07,24.64,66,29.5,64.25,36.5" id="Ske2w1w7i1m" kvg:type="㇑" transform="matrix(1,0,0,1,596,-4)" xmlns:kvg="http://kanjivg.tagaini.net"></path><path class="stroke_order_diagram--existing_path" d="M34.63,39.87c0.3,1.1,0.39,1.94-0.15,3.13C32,48.5,30,52.75,24.85,58.27c-0.55,0.59-0.63,2.69,0,2.76c3.9,0.47,10.87,2.95,13.59,4.97" id="Ske2w1w7i1n" kvg:type="㇜" transform="matrix(1,0,0,1,596,-4)" xmlns:kvg="http://kanjivg.tagaini.net"></path><path class="stroke_order_diagram--existing_path" d="M49.79,47.62c0.42,1.38,0.18,4.23-0.39,5C41.64,63.25,32.09,75.5,20.75,89.37c-1.3,1.59-0.78,2.45,0.78,2c10.72-3.12,17.47-4.62,26.75-7.5" id="Ske2w1w7i1o" kvg:type="㇜" transform="matrix(1,0,0,1,596,-4)" xmlns:kvg="http://kanjivg.tagaini.net"></path><path class="stroke_order_diagram--existing_path" d="M42.04,74.12c3.5,3.26,9.04,13.42,9.91,18.5" id="Ske2w1w7i1p" kvg:type="㇔" transform="matrix(1,0,0,1,596,-4)" xmlns:kvg="http://kanjivg.tagaini.net"></path><path class="stroke_order_diagram--current_path" d="M70.62,40.62c0.34,1.18,0.41,2.05-0.17,3.34C67.75,50,63,56.75,58.59,61.71c-0.59,0.67-0.67,2.72,0,2.95c3.53,1.18,12.63,2.78,15.66,4.94" id="kvg:08332-s7" kvg:type="㇜" transform="matrix(1,0,0,1,596,-4)" xmlns:kvg="http://kanjivg.tagaini.net"></path><path class="stroke_order_diagram--current_path" d="M70.62,40.62c0.34,1.18,0.41,2.05-0.17,3.34C67.75,50,63,56.75,58.59,61.71c-0.59,0.67-0.67,2.72,0,2.95c3.53,1.18,12.63,2.78,15.66,4.94" id="Ske2w1w7i1r" kvg:type="㇜" transform="matrix(1,0,0,1,596,-4)" xmlns:kvg="http://kanjivg.tagaini.net"></path><circle class="stroke_order_diagram--path_start" cx="70.62" cy="40.62" r="4" transform="matrix(1,0,0,1,596,-4)"></circle><line class="stroke_order_diagram--guide_line" x1="750" x2="750" y1="1" y2="99"></line><line class="stroke_order_diagram--bounding_box" x1="799" x2="799" y1="1" y2="99"></line><path class="stroke_order_diagram--existing_path" d="M18.5,28.77c1.29,0.53,2.8,0.63,4.1,0.53c11.9-0.96,51.9-3.46,65.62-3.53c2.16-0.01,3.45,0.25,4.53,0.51" id="Ske2w1w7i1u" kvg:type="㇐" transform="matrix(1,0,0,1,696,-4)" xmlns:kvg="http://kanjivg.tagaini.net"></path><path class="stroke_order_diagram--existing_path" d="M36.75,16c1.75,1.43,2.31,1.87,2.5,2.75C41,27,41.5,34.5,42,37.5" id="Ske2w1w7i1v" kvg:type="㇑" transform="matrix(1,0,0,1,696,-4)" xmlns:kvg="http://kanjivg.tagaini.net"></path><path class="stroke_order_diagram--existing_path" d="M68.25,13.75c0.42,1.18,0.84,2.02,0.5,3.5C67.07,24.64,66,29.5,64.25,36.5" id="Ske2w1w7i1w" kvg:type="㇑" transform="matrix(1,0,0,1,696,-4)" xmlns:kvg="http://kanjivg.tagaini.net"></path><path class="stroke_order_diagram--existing_path" d="M34.63,39.87c0.3,1.1,0.39,1.94-0.15,3.13C32,48.5,30,52.75,24.85,58.27c-0.55,0.59-0.63,2.69,0,2.76c3.9,0.47,10.87,2.95,13.59,4.97" id="Ske2w1w7i1x" kvg:type="㇜" transform="matrix(1,0,0,1,696,-4)" xmlns:kvg="http://kanjivg.tagaini.net"></path><path class="stroke_order_diagram--existing_path" d="M49.79,47.62c0.42,1.38,0.18,4.23-0.39,5C41.64,63.25,32.09,75.5,20.75,89.37c-1.3,1.59-0.78,2.45,0.78,2c10.72-3.12,17.47-4.62,26.75-7.5" id="Ske2w1w7i1y" kvg:type="㇜" transform="matrix(1,0,0,1,696,-4)" xmlns:kvg="http://kanjivg.tagaini.net"></path><path class="stroke_order_diagram--existing_path" d="M42.04,74.12c3.5,3.26,9.04,13.42,9.91,18.5" id="Ske2w1w7i1z" kvg:type="㇔" transform="matrix(1,0,0,1,696,-4)" xmlns:kvg="http://kanjivg.tagaini.net"></path><path class="stroke_order_diagram--existing_path" d="M70.62,40.62c0.34,1.18,0.41,2.05-0.17,3.34C67.75,50,63,56.75,58.59,61.71c-0.59,0.67-0.67,2.72,0,2.95c3.53,1.18,12.63,2.78,15.66,4.94" id="Ske2w1w7i20" kvg:type="㇜" transform="matrix(1,0,0,1,696,-4)" xmlns:kvg="http://kanjivg.tagaini.net"></path><path class="stroke_order_diagram--current_path" d="M84.66,50.36c0.37,1.3,0.15,3.98-0.34,4.71c-6.57,9.68-14.7,22.06-24.66,35.12c-1.14,1.5-0.71,2.21,0.69,1.88c8.42-1.99,19.4-5.71,26.76-7.59" id="kvg:08332-s8" kvg:type="㇜" transform="matrix(1,0,0,1,696,-4)" xmlns:kvg="http://kanjivg.tagaini.net"></path><path class="stroke_order_diagram--current_path" d="M84.66,50.36c0.37,1.3,0.15,3.98-0.34,4.71c-6.57,9.68-14.7,22.06-24.66,35.12c-1.14,1.5-0.71,2.21,0.69,1.88c8.42-1.99,19.4-5.71,26.76-7.59" id="Ske2w1w7i22" kvg:type="㇜" transform="matrix(1,0,0,1,696,-4)" xmlns:kvg="http://kanjivg.tagaini.net"></path><circle class="stroke_order_diagram--path_start" cx="84.66" cy="50.36" r="4" transform="matrix(1,0,0,1,696,-4)"></circle><line class="stroke_order_diagram--guide_line" x1="850" x2="850" y1="1" y2="99"></line><line class="stroke_order_diagram--bounding_box" x1="899" x2="899" y1="1" y2="99"></line><path class="stroke_order_diagram--existing_path" d="M18.5,28.77c1.29,0.53,2.8,0.63,4.1,0.53c11.9-0.96,51.9-3.46,65.62-3.53c2.16-0.01,3.45,0.25,4.53,0.51" id="Ske2w1w7i25" kvg:type="㇐" transform="matrix(1,0,0,1,796,-4)" xmlns:kvg="http://kanjivg.tagaini.net"></path><path class="stroke_order_diagram--existing_path" d="M36.75,16c1.75,1.43,2.31,1.87,2.5,2.75C41,27,41.5,34.5,42,37.5" id="Ske2w1w7i26" kvg:type="㇑" transform="matrix(1,0,0,1,796,-4)" xmlns:kvg="http://kanjivg.tagaini.net"></path><path class="stroke_order_diagram--existing_path" d="M68.25,13.75c0.42,1.18,0.84,2.02,0.5,3.5C67.07,24.64,66,29.5,64.25,36.5" id="Ske2w1w7i27" kvg:type="㇑" transform="matrix(1,0,0,1,796,-4)" xmlns:kvg="http://kanjivg.tagaini.net"></path><path class="stroke_order_diagram--existing_path" d="M34.63,39.87c0.3,1.1,0.39,1.94-0.15,3.13C32,48.5,30,52.75,24.85,58.27c-0.55,0.59-0.63,2.69,0,2.76c3.9,0.47,10.87,2.95,13.59,4.97" id="Ske2w1w7i28" kvg:type="㇜" transform="matrix(1,0,0,1,796,-4)" xmlns:kvg="http://kanjivg.tagaini.net"></path><path class="stroke_order_diagram--existing_path" d="M49.79,47.62c0.42,1.38,0.18,4.23-0.39,5C41.64,63.25,32.09,75.5,20.75,89.37c-1.3,1.59-0.78,2.45,0.78,2c10.72-3.12,17.47-4.62,26.75-7.5" id="Ske2w1w7i29" kvg:type="㇜" transform="matrix(1,0,0,1,796,-4)" xmlns:kvg="http://kanjivg.tagaini.net"></path><path class="stroke_order_diagram--existing_path" d="M42.04,74.12c3.5,3.26,9.04,13.42,9.91,18.5" id="Ske2w1w7i2a" kvg:type="㇔" transform="matrix(1,0,0,1,796,-4)" xmlns:kvg="http://kanjivg.tagaini.net"></path><path class="stroke_order_diagram--existing_path" d="M70.62,40.62c0.34,1.18,0.41,2.05-0.17,3.34C67.75,50,63,56.75,58.59,61.71c-0.59,0.67-0.67,2.72,0,2.95c3.53,1.18,12.63,2.78,15.66,4.94" id="Ske2w1w7i2b" kvg:type="㇜" transform="matrix(1,0,0,1,796,-4)" xmlns:kvg="http://kanjivg.tagaini.net"></path><path class="stroke_order_diagram--existing_path" d="M84.66,50.36c0.37,1.3,0.15,3.98-0.34,4.71c-6.57,9.68-14.7,22.06-24.66,35.12c-1.14,1.5-0.71,2.21,0.69,1.88c8.42-1.99,19.4-5.71,26.76-7.59" id="Ske2w1w7i2c" kvg:type="㇜" transform="matrix(1,0,0,1,796,-4)" xmlns:kvg="http://kanjivg.tagaini.net"></path><path class="stroke_order_diagram--current_path" d="M80.91,75.57c3.63,3.36,9.39,13.82,10.29,19.05" id="kvg:08332-s9" kvg:type="㇔" transform="matrix(1,0,0,1,796,-4)" xmlns:kvg="http://kanjivg.tagaini.net"></path><path class="stroke_order_diagram--current_path" d="M80.91,75.57c3.63,3.36,9.39,13.82,10.29,19.05" id="Ske2w1w7i2e" kvg:type="㇔" transform="matrix(1,0,0,1,796,-4)" xmlns:kvg="http://kanjivg.tagaini.net"></path><circle class="stroke_order_diagram--path_start" cx="80.91" cy="75.57" r="4" transform="matrix(1,0,0,1,796,-4)"></circle></svg>