<svg class="stroke_order_diagram--svg_container_for_518662b9d5dda79658001499" style="height: 100px; width: 1200px;" viewbox="0 0 1200 100"><desc>Created with Snap</desc><defs></defs><line class="stroke_order_diagram--bounding_box" x1="1" x2="1199" y1="1" y2="1"></line><line class="stroke_order_diagram--bounding_box" x1="1" x2="1" y1="1" y2="99"></line><line class="stroke_order_diagram--bounding_box" x1="1" x2="1199" y1="99" y2="99"></line><line class="stroke_order_diagram--guide_line" x1="0" x2="1200" y1="50" y2="50"></line><line class="stroke_order_diagram--guide_line" x1="50" x2="50" y1="1" y2="99"></line><line class="stroke_order_diagram--bounding_box" x1="99" x2="99" y1="1" y2="99"></line><path class="stroke_order_diagram--current_path" d="M18,20.37c1.37,0.56,2.96,0.67,4.34,0.56c12.59-1.02,51.11-3.72,65.62-3.8c2.28-0.01,3.65,0.26,4.79,0.54" id="kvg:0842a-s1" kvg:type="㇐" transform="matrix(1,0,0,1,-4,-4)" xmlns:kvg="http://kanjivg.tagaini.net"></path><path class="stroke_order_diagram--current_path" d="M18,20.37c1.37,0.56,2.96,0.67,4.34,0.56c12.59-1.02,51.11-3.72,65.62-3.8c2.28-0.01,3.65,0.26,4.79,0.54" id="Ske2wgf0ll" kvg:type="㇐" transform="matrix(1,0,0,1,-4,-4)" xmlns:kvg="http://kanjivg.tagaini.net"></path><circle class="stroke_order_diagram--path_start" cx="18" cy="20.37" r="4" transform="matrix(1,0,0,1,-4,-4)"></circle><line class="stroke_order_diagram--guide_line" x1="150" x2="150" y1="1" y2="99"></line><line class="stroke_order_diagram--bounding_box" x1="199" x2="199" y1="1" y2="99"></line><path class="stroke_order_diagram--existing_path" d="M18,20.37c1.37,0.56,2.96,0.67,4.34,0.56c12.59-1.02,51.11-3.72,65.62-3.8c2.28-0.01,3.65,0.26,4.79,0.54" id="Ske2wgf0lo" kvg:type="㇐" transform="matrix(1,0,0,1,96,-4)" xmlns:kvg="http://kanjivg.tagaini.net"></path><path class="stroke_order_diagram--current_path" d="M38.25,9.5c1.75,1.43,2.31,1.87,2.5,2.75C42.5,20.5,42.5,24,43,27" id="kvg:0842a-s2" kvg:type="㇑a" transform="matrix(1,0,0,1,96,-4)" xmlns:kvg="http://kanjivg.tagaini.net"></path><path class="stroke_order_diagram--current_path" d="M38.25,9.5c1.75,1.43,2.31,1.87,2.5,2.75C42.5,20.5,42.5,24,43,27" id="Ske2wgf0lq" kvg:type="㇑a" transform="matrix(1,0,0,1,96,-4)" xmlns:kvg="http://kanjivg.tagaini.net"></path><circle class="stroke_order_diagram--path_start" cx="38.25" cy="9.5" r="4" transform="matrix(1,0,0,1,96,-4)"></circle><line class="stroke_order_diagram--guide_line" x1="250" x2="250" y1="1" y2="99"></line><line class="stroke_order_diagram--bounding_box" x1="299" x2="299" y1="1" y2="99"></line><path class="stroke_order_diagram--existing_path" d="M18,20.37c1.37,0.56,2.96,0.67,4.34,0.56c12.59-1.02,51.11-3.72,65.62-3.8c2.28-0.01,3.65,0.26,4.79,0.54" id="Ske2wgf0lt" kvg:type="㇐" transform="matrix(1,0,0,1,196,-4)" xmlns:kvg="http://kanjivg.tagaini.net"></path><path class="stroke_order_diagram--existing_path" d="M38.25,9.5c1.75,1.43,2.31,1.87,2.5,2.75C42.5,20.5,42.5,24,43,27" id="Ske2wgf0lu" kvg:type="㇑a" transform="matrix(1,0,0,1,196,-4)" xmlns:kvg="http://kanjivg.tagaini.net"></path><path class="stroke_order_diagram--current_path" d="M67.75,9.25c1.12,1,1.37,2.52,1,4c-1.12,4.5-1.5,7.5-2.5,12.25" id="kvg:0842a-s3" kvg:type="㇑a" transform="matrix(1,0,0,1,196,-4)" xmlns:kvg="http://kanjivg.tagaini.net"></path><path class="stroke_order_diagram--current_path" d="M67.75,9.25c1.12,1,1.37,2.52,1,4c-1.12,4.5-1.5,7.5-2.5,12.25" id="Ske2wgf0lw" kvg:type="㇑a" transform="matrix(1,0,0,1,196,-4)" xmlns:kvg="http://kanjivg.tagaini.net"></path><circle class="stroke_order_diagram--path_start" cx="67.75" cy="9.25" r="4" transform="matrix(1,0,0,1,196,-4)"></circle><line class="stroke_order_diagram--guide_line" x1="350" x2="350" y1="1" y2="99"></line><line class="stroke_order_diagram--bounding_box" x1="399" x2="399" y1="1" y2="99"></line><path class="stroke_order_diagram--existing_path" d="M18,20.37c1.37,0.56,2.96,0.67,4.34,0.56c12.59-1.02,51.11-3.72,65.62-3.8c2.28-0.01,3.65,0.26,4.79,0.54" id="Ske2wgf0lz" kvg:type="㇐" transform="matrix(1,0,0,1,296,-4)" xmlns:kvg="http://kanjivg.tagaini.net"></path><path class="stroke_order_diagram--existing_path" d="M38.25,9.5c1.75,1.43,2.31,1.87,2.5,2.75C42.5,20.5,42.5,24,43,27" id="Ske2wgf0l10" kvg:type="㇑a" transform="matrix(1,0,0,1,296,-4)" xmlns:kvg="http://kanjivg.tagaini.net"></path><path class="stroke_order_diagram--existing_path" d="M67.75,9.25c1.12,1,1.37,2.52,1,4c-1.12,4.5-1.5,7.5-2.5,12.25" id="Ske2wgf0l11" kvg:type="㇑a" transform="matrix(1,0,0,1,296,-4)" xmlns:kvg="http://kanjivg.tagaini.net"></path><path class="stroke_order_diagram--current_path" d="M40.02,30.92c0.06,0.27,0.13,0.7-0.12,1.08c-1.47,2.29-9.9,7.31-21.44,10.38" id="kvg:0842a-s4" kvg:type="㇒" transform="matrix(1,0,0,1,296,-4)" xmlns:kvg="http://kanjivg.tagaini.net"></path><path class="stroke_order_diagram--current_path" d="M40.02,30.92c0.06,0.27,0.13,0.7-0.12,1.08c-1.47,2.29-9.9,7.31-21.44,10.38" id="Ske2wgf0l13" kvg:type="㇒" transform="matrix(1,0,0,1,296,-4)" xmlns:kvg="http://kanjivg.tagaini.net"></path><circle class="stroke_order_diagram--path_start" cx="40.02" cy="30.92" r="4" transform="matrix(1,0,0,1,296,-4)"></circle><line class="stroke_order_diagram--guide_line" x1="450" x2="450" y1="1" y2="99"></line><line class="stroke_order_diagram--bounding_box" x1="499" x2="499" y1="1" y2="99"></line><path class="stroke_order_diagram--existing_path" d="M18,20.37c1.37,0.56,2.96,0.67,4.34,0.56c12.59-1.02,51.11-3.72,65.62-3.8c2.28-0.01,3.65,0.26,4.79,0.54" id="Ske2wgf0l16" kvg:type="㇐" transform="matrix(1,0,0,1,396,-4)" xmlns:kvg="http://kanjivg.tagaini.net"></path><path class="stroke_order_diagram--existing_path" d="M38.25,9.5c1.75,1.43,2.31,1.87,2.5,2.75C42.5,20.5,42.5,24,43,27" id="Ske2wgf0l17" kvg:type="㇑a" transform="matrix(1,0,0,1,396,-4)" xmlns:kvg="http://kanjivg.tagaini.net"></path><path class="stroke_order_diagram--existing_path" d="M67.75,9.25c1.12,1,1.37,2.52,1,4c-1.12,4.5-1.5,7.5-2.5,12.25" id="Ske2wgf0l18" kvg:type="㇑a" transform="matrix(1,0,0,1,396,-4)" xmlns:kvg="http://kanjivg.tagaini.net"></path><path class="stroke_order_diagram--existing_path" d="M40.02,30.92c0.06,0.27,0.13,0.7-0.12,1.08c-1.47,2.29-9.9,7.31-21.44,10.38" id="Ske2wgf0l19" kvg:type="㇒" transform="matrix(1,0,0,1,396,-4)" xmlns:kvg="http://kanjivg.tagaini.net"></path><path class="stroke_order_diagram--current_path" d="M12.62,53.24c0.44,0.19,1.61,0.5,2.77,0.57C18.6,54,36.3,51.79,44.32,50.84c1.16-0.14,1.46-0.19,2.19,0" id="kvg:0842a-s5" kvg:type="㇐" transform="matrix(1,0,0,1,396,-4)" xmlns:kvg="http://kanjivg.tagaini.net"></path><path class="stroke_order_diagram--current_path" d="M12.62,53.24c0.44,0.19,1.61,0.5,2.77,0.57C18.6,54,36.3,51.79,44.32,50.84c1.16-0.14,1.46-0.19,2.19,0" id="Ske2wgf0l1b" kvg:type="㇐" transform="matrix(1,0,0,1,396,-4)" xmlns:kvg="http://kanjivg.tagaini.net"></path><circle class="stroke_order_diagram--path_start" cx="12.62" cy="53.24" r="4" transform="matrix(1,0,0,1,396,-4)"></circle><line class="stroke_order_diagram--guide_line" x1="550" x2="550" y1="1" y2="99"></line><line class="stroke_order_diagram--bounding_box" x1="599" x2="599" y1="1" y2="99"></line><path class="stroke_order_diagram--existing_path" d="M18,20.37c1.37,0.56,2.96,0.67,4.34,0.56c12.59-1.02,51.11-3.72,65.62-3.8c2.28-0.01,3.65,0.26,4.79,0.54" id="Ske2wgf0l1e" kvg:type="㇐" transform="matrix(1,0,0,1,496,-4)" xmlns:kvg="http://kanjivg.tagaini.net"></path><path class="stroke_order_diagram--existing_path" d="M38.25,9.5c1.75,1.43,2.31,1.87,2.5,2.75C42.5,20.5,42.5,24,43,27" id="Ske2wgf0l1f" kvg:type="㇑a" transform="matrix(1,0,0,1,496,-4)" xmlns:kvg="http://kanjivg.tagaini.net"></path><path class="stroke_order_diagram--existing_path" d="M67.75,9.25c1.12,1,1.37,2.52,1,4c-1.12,4.5-1.5,7.5-2.5,12.25" id="Ske2wgf0l1g" kvg:type="㇑a" transform="matrix(1,0,0,1,496,-4)" xmlns:kvg="http://kanjivg.tagaini.net"></path><path class="stroke_order_diagram--existing_path" d="M40.02,30.92c0.06,0.27,0.13,0.7-0.12,1.08c-1.47,2.29-9.9,7.31-21.44,10.38" id="Ske2wgf0l1h" kvg:type="㇒" transform="matrix(1,0,0,1,496,-4)" xmlns:kvg="http://kanjivg.tagaini.net"></path><path class="stroke_order_diagram--existing_path" d="M12.62,53.24c0.44,0.19,1.61,0.5,2.77,0.57C18.6,54,36.3,51.79,44.32,50.84c1.16-0.14,1.46-0.19,2.19,0" id="Ske2wgf0l1i" kvg:type="㇐" transform="matrix(1,0,0,1,496,-4)" xmlns:kvg="http://kanjivg.tagaini.net"></path><path class="stroke_order_diagram--current_path" d="M31.92,39.99c0.52,0.53,1.29,2.38,1.4,3.44c0.1,1.06,0,49.82-0.1,54.58" id="kvg:0842a-s6" kvg:type="㇑" transform="matrix(1,0,0,1,496,-4)" xmlns:kvg="http://kanjivg.tagaini.net"></path><path class="stroke_order_diagram--current_path" d="M31.92,39.99c0.52,0.53,1.29,2.38,1.4,3.44c0.1,1.06,0,49.82-0.1,54.58" id="Ske2wgf0l1k" kvg:type="㇑" transform="matrix(1,0,0,1,496,-4)" xmlns:kvg="http://kanjivg.tagaini.net"></path><circle class="stroke_order_diagram--path_start" cx="31.92" cy="39.99" r="4" transform="matrix(1,0,0,1,496,-4)"></circle><line class="stroke_order_diagram--guide_line" x1="650" x2="650" y1="1" y2="99"></line><line class="stroke_order_diagram--bounding_box" x1="699" x2="699" y1="1" y2="99"></line><path class="stroke_order_diagram--existing_path" d="M18,20.37c1.37,0.56,2.96,0.67,4.34,0.56c12.59-1.02,51.11-3.72,65.62-3.8c2.28-0.01,3.65,0.26,4.79,0.54" id="Ske2wgf0l1n" kvg:type="㇐" transform="matrix(1,0,0,1,596,-4)" xmlns:kvg="http://kanjivg.tagaini.net"></path><path class="stroke_order_diagram--existing_path" d="M38.25,9.5c1.75,1.43,2.31,1.87,2.5,2.75C42.5,20.5,42.5,24,43,27" id="Ske2wgf0l1o" kvg:type="㇑a" transform="matrix(1,0,0,1,596,-4)" xmlns:kvg="http://kanjivg.tagaini.net"></path><path class="stroke_order_diagram--existing_path" d="M67.75,9.25c1.12,1,1.37,2.52,1,4c-1.12,4.5-1.5,7.5-2.5,12.25" id="Ske2wgf0l1p" kvg:type="㇑a" transform="matrix(1,0,0,1,596,-4)" xmlns:kvg="http://kanjivg.tagaini.net"></path><path class="stroke_order_diagram--existing_path" d="M40.02,30.92c0.06,0.27,0.13,0.7-0.12,1.08c-1.47,2.29-9.9,7.31-21.44,10.38" id="Ske2wgf0l1q" kvg:type="㇒" transform="matrix(1,0,0,1,596,-4)" xmlns:kvg="http://kanjivg.tagaini.net"></path><path class="stroke_order_diagram--existing_path" d="M12.62,53.24c0.44,0.19,1.61,0.5,2.77,0.57C18.6,54,36.3,51.79,44.32,50.84c1.16-0.14,1.46-0.19,2.19,0" id="Ske2wgf0l1r" kvg:type="㇐" transform="matrix(1,0,0,1,596,-4)" xmlns:kvg="http://kanjivg.tagaini.net"></path><path class="stroke_order_diagram--existing_path" d="M31.92,39.99c0.52,0.53,1.29,2.38,1.4,3.44c0.1,1.06,0,49.82-0.1,54.58" id="Ske2wgf0l1s" kvg:type="㇑" transform="matrix(1,0,0,1,596,-4)" xmlns:kvg="http://kanjivg.tagaini.net"></path><path class="stroke_order_diagram--current_path" d="M33,53.65c-3.89,10.23-13.13,23.8-20,31.22" id="kvg:0842a-s7" kvg:type="㇒" transform="matrix(1,0,0,1,596,-4)" xmlns:kvg="http://kanjivg.tagaini.net"></path><path class="stroke_order_diagram--current_path" d="M33,53.65c-3.89,10.23-13.13,23.8-20,31.22" id="Ske2wgf0l1u" kvg:type="㇒" transform="matrix(1,0,0,1,596,-4)" xmlns:kvg="http://kanjivg.tagaini.net"></path><circle class="stroke_order_diagram--path_start" cx="33" cy="53.65" r="4" transform="matrix(1,0,0,1,596,-4)"></circle><line class="stroke_order_diagram--guide_line" x1="750" x2="750" y1="1" y2="99"></line><line class="stroke_order_diagram--bounding_box" x1="799" x2="799" y1="1" y2="99"></line><path class="stroke_order_diagram--existing_path" d="M18,20.37c1.37,0.56,2.96,0.67,4.34,0.56c12.59-1.02,51.11-3.72,65.62-3.8c2.28-0.01,3.65,0.26,4.79,0.54" id="Ske2wgf0l1x" kvg:type="㇐" transform="matrix(1,0,0,1,696,-4)" xmlns:kvg="http://kanjivg.tagaini.net"></path><path class="stroke_order_diagram--existing_path" d="M38.25,9.5c1.75,1.43,2.31,1.87,2.5,2.75C42.5,20.5,42.5,24,43,27" id="Ske2wgf0l1y" kvg:type="㇑a" transform="matrix(1,0,0,1,696,-4)" xmlns:kvg="http://kanjivg.tagaini.net"></path><path class="stroke_order_diagram--existing_path" d="M67.75,9.25c1.12,1,1.37,2.52,1,4c-1.12,4.5-1.5,7.5-2.5,12.25" id="Ske2wgf0l1z" kvg:type="㇑a" transform="matrix(1,0,0,1,696,-4)" xmlns:kvg="http://kanjivg.tagaini.net"></path><path class="stroke_order_diagram--existing_path" d="M40.02,30.92c0.06,0.27,0.13,0.7-0.12,1.08c-1.47,2.29-9.9,7.31-21.44,10.38" id="Ske2wgf0l20" kvg:type="㇒" transform="matrix(1,0,0,1,696,-4)" xmlns:kvg="http://kanjivg.tagaini.net"></path><path class="stroke_order_diagram--existing_path" d="M12.62,53.24c0.44,0.19,1.61,0.5,2.77,0.57C18.6,54,36.3,51.79,44.32,50.84c1.16-0.14,1.46-0.19,2.19,0" id="Ske2wgf0l21" kvg:type="㇐" transform="matrix(1,0,0,1,696,-4)" xmlns:kvg="http://kanjivg.tagaini.net"></path><path class="stroke_order_diagram--existing_path" d="M31.92,39.99c0.52,0.53,1.29,2.38,1.4,3.44c0.1,1.06,0,49.82-0.1,54.58" id="Ske2wgf0l22" kvg:type="㇑" transform="matrix(1,0,0,1,696,-4)" xmlns:kvg="http://kanjivg.tagaini.net"></path><path class="stroke_order_diagram--existing_path" d="M33,53.65c-3.89,10.23-13.13,23.8-20,31.22" id="Ske2wgf0l23" kvg:type="㇒" transform="matrix(1,0,0,1,696,-4)" xmlns:kvg="http://kanjivg.tagaini.net"></path><path class="stroke_order_diagram--current_path" d="M35.77,61.2c3.39,1.58,8.74,6.51,9.59,8.97" id="kvg:0842a-s8" kvg:type="㇔" transform="matrix(1,0,0,1,696,-4)" xmlns:kvg="http://kanjivg.tagaini.net"></path><path class="stroke_order_diagram--current_path" d="M35.77,61.2c3.39,1.58,8.74,6.51,9.59,8.97" id="Ske2wgf0l25" kvg:type="㇔" transform="matrix(1,0,0,1,696,-4)" xmlns:kvg="http://kanjivg.tagaini.net"></path><circle class="stroke_order_diagram--path_start" cx="35.77" cy="61.2" r="4" transform="matrix(1,0,0,1,696,-4)"></circle><line class="stroke_order_diagram--guide_line" x1="850" x2="850" y1="1" y2="99"></line><line class="stroke_order_diagram--bounding_box" x1="899" x2="899" y1="1" y2="99"></line><path class="stroke_order_diagram--existing_path" d="M18,20.37c1.37,0.56,2.96,0.67,4.34,0.56c12.59-1.02,51.11-3.72,65.62-3.8c2.28-0.01,3.65,0.26,4.79,0.54" id="Ske2wgf0l28" kvg:type="㇐" transform="matrix(1,0,0,1,796,-4)" xmlns:kvg="http://kanjivg.tagaini.net"></path><path class="stroke_order_diagram--existing_path" d="M38.25,9.5c1.75,1.43,2.31,1.87,2.5,2.75C42.5,20.5,42.5,24,43,27" id="Ske2wgf0l29" kvg:type="㇑a" transform="matrix(1,0,0,1,796,-4)" xmlns:kvg="http://kanjivg.tagaini.net"></path><path class="stroke_order_diagram--existing_path" d="M67.75,9.25c1.12,1,1.37,2.52,1,4c-1.12,4.5-1.5,7.5-2.5,12.25" id="Ske2wgf0l2a" kvg:type="㇑a" transform="matrix(1,0,0,1,796,-4)" xmlns:kvg="http://kanjivg.tagaini.net"></path><path class="stroke_order_diagram--existing_path" d="M40.02,30.92c0.06,0.27,0.13,0.7-0.12,1.08c-1.47,2.29-9.9,7.31-21.44,10.38" id="Ske2wgf0l2b" kvg:type="㇒" transform="matrix(1,0,0,1,796,-4)" xmlns:kvg="http://kanjivg.tagaini.net"></path><path class="stroke_order_diagram--existing_path" d="M12.62,53.24c0.44,0.19,1.61,0.5,2.77,0.57C18.6,54,36.3,51.79,44.32,50.84c1.16-0.14,1.46-0.19,2.19,0" id="Ske2wgf0l2c" kvg:type="㇐" transform="matrix(1,0,0,1,796,-4)" xmlns:kvg="http://kanjivg.tagaini.net"></path><path class="stroke_order_diagram--existing_path" d="M31.92,39.99c0.52,0.53,1.29,2.38,1.4,3.44c0.1,1.06,0,49.82-0.1,54.58" id="Ske2wgf0l2d" kvg:type="㇑" transform="matrix(1,0,0,1,796,-4)" xmlns:kvg="http://kanjivg.tagaini.net"></path><path class="stroke_order_diagram--existing_path" d="M33,53.65c-3.89,10.23-13.13,23.8-20,31.22" id="Ske2wgf0l2e" kvg:type="㇒" transform="matrix(1,0,0,1,796,-4)" xmlns:kvg="http://kanjivg.tagaini.net"></path><path class="stroke_order_diagram--existing_path" d="M35.77,61.2c3.39,1.58,8.74,6.51,9.59,8.97" id="Ske2wgf0l2f" kvg:type="㇔" transform="matrix(1,0,0,1,796,-4)" xmlns:kvg="http://kanjivg.tagaini.net"></path><path class="stroke_order_diagram--current_path" d="M57.5,35.44c3.53,1.17,9.12,4.83,10,6.65" id="kvg:0842a-s9" kvg:type="㇔" transform="matrix(1,0,0,1,796,-4)" xmlns:kvg="http://kanjivg.tagaini.net"></path><path class="stroke_order_diagram--current_path" d="M57.5,35.44c3.53,1.17,9.12,4.83,10,6.65" id="Ske2wgf0l2h" kvg:type="㇔" transform="matrix(1,0,0,1,796,-4)" xmlns:kvg="http://kanjivg.tagaini.net"></path><circle class="stroke_order_diagram--path_start" cx="57.5" cy="35.44" r="4" transform="matrix(1,0,0,1,796,-4)"></circle><line class="stroke_order_diagram--guide_line" x1="950" x2="950" y1="1" y2="99"></line><line class="stroke_order_diagram--bounding_box" x1="999" x2="999" y1="1" y2="99"></line><path class="stroke_order_diagram--existing_path" d="M18,20.37c1.37,0.56,2.96,0.67,4.34,0.56c12.59-1.02,51.11-3.72,65.62-3.8c2.28-0.01,3.65,0.26,4.79,0.54" id="Ske2wgf0l2k" kvg:type="㇐" transform="matrix(1,0,0,1,896,-4)" xmlns:kvg="http://kanjivg.tagaini.net"></path><path class="stroke_order_diagram--existing_path" d="M38.25,9.5c1.75,1.43,2.31,1.87,2.5,2.75C42.5,20.5,42.5,24,43,27" id="Ske2wgf0l2l" kvg:type="㇑a" transform="matrix(1,0,0,1,896,-4)" xmlns:kvg="http://kanjivg.tagaini.net"></path><path class="stroke_order_diagram--existing_path" d="M67.75,9.25c1.12,1,1.37,2.52,1,4c-1.12,4.5-1.5,7.5-2.5,12.25" id="Ske2wgf0l2m" kvg:type="㇑a" transform="matrix(1,0,0,1,896,-4)" xmlns:kvg="http://kanjivg.tagaini.net"></path><path class="stroke_order_diagram--existing_path" d="M40.02,30.92c0.06,0.27,0.13,0.7-0.12,1.08c-1.47,2.29-9.9,7.31-21.44,10.38" id="Ske2wgf0l2n" kvg:type="㇒" transform="matrix(1,0,0,1,896,-4)" xmlns:kvg="http://kanjivg.tagaini.net"></path><path class="stroke_order_diagram--existing_path" d="M12.62,53.24c0.44,0.19,1.61,0.5,2.77,0.57C18.6,54,36.3,51.79,44.32,50.84c1.16-0.14,1.46-0.19,2.19,0" id="Ske2wgf0l2o" kvg:type="㇐" transform="matrix(1,0,0,1,896,-4)" xmlns:kvg="http://kanjivg.tagaini.net"></path><path class="stroke_order_diagram--existing_path" d="M31.92,39.99c0.52,0.53,1.29,2.38,1.4,3.44c0.1,1.06,0,49.82-0.1,54.58" id="Ske2wgf0l2p" kvg:type="㇑" transform="matrix(1,0,0,1,896,-4)" xmlns:kvg="http://kanjivg.tagaini.net"></path><path class="stroke_order_diagram--existing_path" d="M33,53.65c-3.89,10.23-13.13,23.8-20,31.22" id="Ske2wgf0l2q" kvg:type="㇒" transform="matrix(1,0,0,1,896,-4)" xmlns:kvg="http://kanjivg.tagaini.net"></path><path class="stroke_order_diagram--existing_path" d="M35.77,61.2c3.39,1.58,8.74,6.51,9.59,8.97" id="Ske2wgf0l2r" kvg:type="㇔" transform="matrix(1,0,0,1,896,-4)" xmlns:kvg="http://kanjivg.tagaini.net"></path><path class="stroke_order_diagram--existing_path" d="M57.5,35.44c3.53,1.17,9.12,4.83,10,6.65" id="Ske2wgf0l2s" kvg:type="㇔" transform="matrix(1,0,0,1,896,-4)" xmlns:kvg="http://kanjivg.tagaini.net"></path><path class="stroke_order_diagram--current_path" d="M54,52.07c4.06,1.57,10.48,6.45,11.5,8.89" id="kvg:0842a-s10" kvg:type="㇔" transform="matrix(1,0,0,1,896,-4)" xmlns:kvg="http://kanjivg.tagaini.net"></path><path class="stroke_order_diagram--current_path" d="M54,52.07c4.06,1.57,10.48,6.45,11.5,8.89" id="Ske2wgf0l2u" kvg:type="㇔" transform="matrix(1,0,0,1,896,-4)" xmlns:kvg="http://kanjivg.tagaini.net"></path><circle class="stroke_order_diagram--path_start" cx="54" cy="52.07" r="4" transform="matrix(1,0,0,1,896,-4)"></circle><line class="stroke_order_diagram--guide_line" x1="1050" x2="1050" y1="1" y2="99"></line><line class="stroke_order_diagram--bounding_box" x1="1099" x2="1099" y1="1" y2="99"></line><path class="stroke_order_diagram--existing_path" d="M18,20.37c1.37,0.56,2.96,0.67,4.34,0.56c12.59-1.02,51.11-3.72,65.62-3.8c2.28-0.01,3.65,0.26,4.79,0.54" id="Ske2wgf0l2x" kvg:type="㇐" transform="matrix(1,0,0,1,996,-4)" xmlns:kvg="http://kanjivg.tagaini.net"></path><path class="stroke_order_diagram--existing_path" d="M38.25,9.5c1.75,1.43,2.31,1.87,2.5,2.75C42.5,20.5,42.5,24,43,27" id="Ske2wgf0l2y" kvg:type="㇑a" transform="matrix(1,0,0,1,996,-4)" xmlns:kvg="http://kanjivg.tagaini.net"></path><path class="stroke_order_diagram--existing_path" d="M67.75,9.25c1.12,1,1.37,2.52,1,4c-1.12,4.5-1.5,7.5-2.5,12.25" id="Ske2wgf0l2z" kvg:type="㇑a" transform="matrix(1,0,0,1,996,-4)" xmlns:kvg="http://kanjivg.tagaini.net"></path><path class="stroke_order_diagram--existing_path" d="M40.02,30.92c0.06,0.27,0.13,0.7-0.12,1.08c-1.47,2.29-9.9,7.31-21.44,10.38" id="Ske2wgf0l30" kvg:type="㇒" transform="matrix(1,0,0,1,996,-4)" xmlns:kvg="http://kanjivg.tagaini.net"></path><path class="stroke_order_diagram--existing_path" d="M12.62,53.24c0.44,0.19,1.61,0.5,2.77,0.57C18.6,54,36.3,51.79,44.32,50.84c1.16-0.14,1.46-0.19,2.19,0" id="Ske2wgf0l31" kvg:type="㇐" transform="matrix(1,0,0,1,996,-4)" xmlns:kvg="http://kanjivg.tagaini.net"></path><path class="stroke_order_diagram--existing_path" d="M31.92,39.99c0.52,0.53,1.29,2.38,1.4,3.44c0.1,1.06,0,49.82-0.1,54.58" id="Ske2wgf0l32" kvg:type="㇑" transform="matrix(1,0,0,1,996,-4)" xmlns:kvg="http://kanjivg.tagaini.net"></path><path class="stroke_order_diagram--existing_path" d="M33,53.65c-3.89,10.23-13.13,23.8-20,31.22" id="Ske2wgf0l33" kvg:type="㇒" transform="matrix(1,0,0,1,996,-4)" xmlns:kvg="http://kanjivg.tagaini.net"></path><path class="stroke_order_diagram--existing_path" d="M35.77,61.2c3.39,1.58,8.74,6.51,9.59,8.97" id="Ske2wgf0l34" kvg:type="㇔" transform="matrix(1,0,0,1,996,-4)" xmlns:kvg="http://kanjivg.tagaini.net"></path><path class="stroke_order_diagram--existing_path" d="M57.5,35.44c3.53,1.17,9.12,4.83,10,6.65" id="Ske2wgf0l35" kvg:type="㇔" transform="matrix(1,0,0,1,996,-4)" xmlns:kvg="http://kanjivg.tagaini.net"></path><path class="stroke_order_diagram--existing_path" d="M54,52.07c4.06,1.57,10.48,6.45,11.5,8.89" id="Ske2wgf0l36" kvg:type="㇔" transform="matrix(1,0,0,1,996,-4)" xmlns:kvg="http://kanjivg.tagaini.net"></path><path class="stroke_order_diagram--current_path" d="M51.25,75.84c0.65,0.21,2.4,0.79,4.13,0.63c7.12-0.63,26.62-4.05,36.85-4.05c1.74,0,2.18-0.21,3.26,0" id="kvg:0842a-s11" kvg:type="㇐" transform="matrix(1,0,0,1,996,-4)" xmlns:kvg="http://kanjivg.tagaini.net"></path><path class="stroke_order_diagram--current_path" d="M51.25,75.84c0.65,0.21,2.4,0.79,4.13,0.63c7.12-0.63,26.62-4.05,36.85-4.05c1.74,0,2.18-0.21,3.26,0" id="Ske2wgf0l38" kvg:type="㇐" transform="matrix(1,0,0,1,996,-4)" xmlns:kvg="http://kanjivg.tagaini.net"></path><circle class="stroke_order_diagram--path_start" cx="51.25" cy="75.84" r="4" transform="matrix(1,0,0,1,996,-4)"></circle><line class="stroke_order_diagram--guide_line" x1="1150" x2="1150" y1="1" y2="99"></line><line class="stroke_order_diagram--bounding_box" x1="1199" x2="1199" y1="1" y2="99"></line><path class="stroke_order_diagram--existing_path" d="M18,20.37c1.37,0.56,2.96,0.67,4.34,0.56c12.59-1.02,51.11-3.72,65.62-3.8c2.28-0.01,3.65,0.26,4.79,0.54" id="Ske2wgf0l3b" kvg:type="㇐" transform="matrix(1,0,0,1,1096,-4)" xmlns:kvg="http://kanjivg.tagaini.net"></path><path class="stroke_order_diagram--existing_path" d="M38.25,9.5c1.75,1.43,2.31,1.87,2.5,2.75C42.5,20.5,42.5,24,43,27" id="Ske2wgf0l3c" kvg:type="㇑a" transform="matrix(1,0,0,1,1096,-4)" xmlns:kvg="http://kanjivg.tagaini.net"></path><path class="stroke_order_diagram--existing_path" d="M67.75,9.25c1.12,1,1.37,2.52,1,4c-1.12,4.5-1.5,7.5-2.5,12.25" id="Ske2wgf0l3d" kvg:type="㇑a" transform="matrix(1,0,0,1,1096,-4)" xmlns:kvg="http://kanjivg.tagaini.net"></path><path class="stroke_order_diagram--existing_path" d="M40.02,30.92c0.06,0.27,0.13,0.7-0.12,1.08c-1.47,2.29-9.9,7.31-21.44,10.38" id="Ske2wgf0l3e" kvg:type="㇒" transform="matrix(1,0,0,1,1096,-4)" xmlns:kvg="http://kanjivg.tagaini.net"></path><path class="stroke_order_diagram--existing_path" d="M12.62,53.24c0.44,0.19,1.61,0.5,2.77,0.57C18.6,54,36.3,51.79,44.32,50.84c1.16-0.14,1.46-0.19,2.19,0" id="Ske2wgf0l3f" kvg:type="㇐" transform="matrix(1,0,0,1,1096,-4)" xmlns:kvg="http://kanjivg.tagaini.net"></path><path class="stroke_order_diagram--existing_path" d="M31.92,39.99c0.52,0.53,1.29,2.38,1.4,3.44c0.1,1.06,0,49.82-0.1,54.58" id="Ske2wgf0l3g" kvg:type="㇑" transform="matrix(1,0,0,1,1096,-4)" xmlns:kvg="http://kanjivg.tagaini.net"></path><path class="stroke_order_diagram--existing_path" d="M33,53.65c-3.89,10.23-13.13,23.8-20,31.22" id="Ske2wgf0l3h" kvg:type="㇒" transform="matrix(1,0,0,1,1096,-4)" xmlns:kvg="http://kanjivg.tagaini.net"></path><path class="stroke_order_diagram--existing_path" d="M35.77,61.2c3.39,1.58,8.74,6.51,9.59,8.97" id="Ske2wgf0l3i" kvg:type="㇔" transform="matrix(1,0,0,1,1096,-4)" xmlns:kvg="http://kanjivg.tagaini.net"></path><path class="stroke_order_diagram--existing_path" d="M57.5,35.44c3.53,1.17,9.12,4.83,10,6.65" id="Ske2wgf0l3j" kvg:type="㇔" transform="matrix(1,0,0,1,1096,-4)" xmlns:kvg="http://kanjivg.tagaini.net"></path><path class="stroke_order_diagram--existing_path" d="M54,52.07c4.06,1.57,10.48,6.45,11.5,8.89" id="Ske2wgf0l3k" kvg:type="㇔" transform="matrix(1,0,0,1,1096,-4)" xmlns:kvg="http://kanjivg.tagaini.net"></path><path class="stroke_order_diagram--existing_path" d="M51.25,75.84c0.65,0.21,2.4,0.79,4.13,0.63c7.12-0.63,26.62-4.05,36.85-4.05c1.74,0,2.18-0.21,3.26,0" id="Ske2wgf0l3l" kvg:type="㇐" transform="matrix(1,0,0,1,1096,-4)" xmlns:kvg="http://kanjivg.tagaini.net"></path><path class="stroke_order_diagram--current_path" d="M77.37,30.5c1.09,0.42,1.74,1.89,1.96,2.74c0.22,0.84,0,59.75-0.22,65.01" id="kvg:0842a-s12" kvg:type="㇑" transform="matrix(1,0,0,1,1096,-4)" xmlns:kvg="http://kanjivg.tagaini.net"></path><path class="stroke_order_diagram--current_path" d="M77.37,30.5c1.09,0.42,1.74,1.89,1.96,2.74c0.22,0.84,0,59.75-0.22,65.01" id="Ske2wgf0l3n" kvg:type="㇑" transform="matrix(1,0,0,1,1096,-4)" xmlns:kvg="http://kanjivg.tagaini.net"></path><circle class="stroke_order_diagram--path_start" cx="77.37" cy="30.5" r="4" transform="matrix(1,0,0,1,1096,-4)"></circle></svg>