<svg class="stroke_order_diagram--svg_container_for_5186628bd5dda7965800069e" style="height: 100px; width: 1500px;" viewbox="0 0 1500 100"><desc>Created with Snap</desc><defs></defs><line class="stroke_order_diagram--bounding_box" x1="1" x2="1499" y1="1" y2="1"></line><line class="stroke_order_diagram--bounding_box" x1="1" x2="1" y1="1" y2="99"></line><line class="stroke_order_diagram--bounding_box" x1="1" x2="1499" y1="99" y2="99"></line><line class="stroke_order_diagram--guide_line" x1="0" x2="1500" y1="50" y2="50"></line><line class="stroke_order_diagram--guide_line" x1="50" x2="50" y1="1" y2="99"></line><line class="stroke_order_diagram--bounding_box" x1="99" x2="99" y1="1" y2="99"></line><path class="stroke_order_diagram--current_path" d="M17.5,25.27c3.38,0.23,6.27,0.13,9.01-0.19C40,23.5,63.25,21.12,76,20.39c3-0.17,6-0.14,9,0.63" id="kvg:08535-s1" kvg:type="㇐" transform="matrix(1,0,0,1,-4,-4)" xmlns:kvg="http://kanjivg.tagaini.net"></path><path class="stroke_order_diagram--current_path" d="M17.5,25.27c3.38,0.23,6.27,0.13,9.01-0.19C40,23.5,63.25,21.12,76,20.39c3-0.17,6-0.14,9,0.63" id="Ske2168sro" kvg:type="㇐" transform="matrix(1,0,0,1,-4,-4)" xmlns:kvg="http://kanjivg.tagaini.net"></path><circle class="stroke_order_diagram--path_start" cx="17.5" cy="25.27" r="4" transform="matrix(1,0,0,1,-4,-4)"></circle><line class="stroke_order_diagram--guide_line" x1="150" x2="150" y1="1" y2="99"></line><line class="stroke_order_diagram--bounding_box" x1="199" x2="199" y1="1" y2="99"></line><path class="stroke_order_diagram--existing_path" d="M17.5,25.27c3.38,0.23,6.27,0.13,9.01-0.19C40,23.5,63.25,21.12,76,20.39c3-0.17,6-0.14,9,0.63" id="Ske2168srr" kvg:type="㇐" transform="matrix(1,0,0,1,96,-4)" xmlns:kvg="http://kanjivg.tagaini.net"></path><path class="stroke_order_diagram--current_path" d="M35.5,14.25c0.75,0.75,1.36,1.74,1.5,2.45c1,4.92,2.35,12.15,2.75,14.55" id="kvg:08535-s2" kvg:type="㇑a" transform="matrix(1,0,0,1,96,-4)" xmlns:kvg="http://kanjivg.tagaini.net"></path><path class="stroke_order_diagram--current_path" d="M35.5,14.25c0.75,0.75,1.36,1.74,1.5,2.45c1,4.92,2.35,12.15,2.75,14.55" id="Ske2168srt" kvg:type="㇑a" transform="matrix(1,0,0,1,96,-4)" xmlns:kvg="http://kanjivg.tagaini.net"></path><circle class="stroke_order_diagram--path_start" cx="35.5" cy="14.25" r="4" transform="matrix(1,0,0,1,96,-4)"></circle><line class="stroke_order_diagram--guide_line" x1="250" x2="250" y1="1" y2="99"></line><line class="stroke_order_diagram--bounding_box" x1="299" x2="299" y1="1" y2="99"></line><path class="stroke_order_diagram--existing_path" d="M17.5,25.27c3.38,0.23,6.27,0.13,9.01-0.19C40,23.5,63.25,21.12,76,20.39c3-0.17,6-0.14,9,0.63" id="Ske2168srw" kvg:type="㇐" transform="matrix(1,0,0,1,196,-4)" xmlns:kvg="http://kanjivg.tagaini.net"></path><path class="stroke_order_diagram--existing_path" d="M35.5,14.25c0.75,0.75,1.36,1.74,1.5,2.45c1,4.92,2.35,12.15,2.75,14.55" id="Ske2168srx" kvg:type="㇑a" transform="matrix(1,0,0,1,196,-4)" xmlns:kvg="http://kanjivg.tagaini.net"></path><path class="stroke_order_diagram--current_path" d="M62.89,11.5c0.28,1.23,0.28,2.16,0.03,3.38c-1.1,5.35-1.92,8.56-3.19,13.87" id="kvg:08535-s3" kvg:type="㇑a" transform="matrix(1,0,0,1,196,-4)" xmlns:kvg="http://kanjivg.tagaini.net"></path><path class="stroke_order_diagram--current_path" d="M62.89,11.5c0.28,1.23,0.28,2.16,0.03,3.38c-1.1,5.35-1.92,8.56-3.19,13.87" id="Ske2168srz" kvg:type="㇑a" transform="matrix(1,0,0,1,196,-4)" xmlns:kvg="http://kanjivg.tagaini.net"></path><circle class="stroke_order_diagram--path_start" cx="62.89" cy="11.5" r="4" transform="matrix(1,0,0,1,196,-4)"></circle><line class="stroke_order_diagram--guide_line" x1="350" x2="350" y1="1" y2="99"></line><line class="stroke_order_diagram--bounding_box" x1="399" x2="399" y1="1" y2="99"></line><path class="stroke_order_diagram--existing_path" d="M17.5,25.27c3.38,0.23,6.27,0.13,9.01-0.19C40,23.5,63.25,21.12,76,20.39c3-0.17,6-0.14,9,0.63" id="Ske2168sr12" kvg:type="㇐" transform="matrix(1,0,0,1,296,-4)" xmlns:kvg="http://kanjivg.tagaini.net"></path><path class="stroke_order_diagram--existing_path" d="M35.5,14.25c0.75,0.75,1.36,1.74,1.5,2.45c1,4.92,2.35,12.15,2.75,14.55" id="Ske2168sr13" kvg:type="㇑a" transform="matrix(1,0,0,1,296,-4)" xmlns:kvg="http://kanjivg.tagaini.net"></path><path class="stroke_order_diagram--existing_path" d="M62.89,11.5c0.28,1.23,0.28,2.16,0.03,3.38c-1.1,5.35-1.92,8.56-3.19,13.87" id="Ske2168sr14" kvg:type="㇑a" transform="matrix(1,0,0,1,296,-4)" xmlns:kvg="http://kanjivg.tagaini.net"></path><path class="stroke_order_diagram--current_path" d="M24.42,42.28c0.58,0.72,0.98,1.84,0.98,3.26c0,17.91,0.72,38.58-12.1,51.95" id="kvg:08535-s4" kvg:type="㇒" transform="matrix(1,0,0,1,296,-4)" xmlns:kvg="http://kanjivg.tagaini.net"></path><path class="stroke_order_diagram--current_path" d="M24.42,42.28c0.58,0.72,0.98,1.84,0.98,3.26c0,17.91,0.72,38.58-12.1,51.95" id="Ske2168sr16" kvg:type="㇒" transform="matrix(1,0,0,1,296,-4)" xmlns:kvg="http://kanjivg.tagaini.net"></path><circle class="stroke_order_diagram--path_start" cx="24.42" cy="42.28" r="4" transform="matrix(1,0,0,1,296,-4)"></circle><line class="stroke_order_diagram--guide_line" x1="450" x2="450" y1="1" y2="99"></line><line class="stroke_order_diagram--bounding_box" x1="499" x2="499" y1="1" y2="99"></line><path class="stroke_order_diagram--existing_path" d="M17.5,25.27c3.38,0.23,6.27,0.13,9.01-0.19C40,23.5,63.25,21.12,76,20.39c3-0.17,6-0.14,9,0.63" id="Ske2168sr19" kvg:type="㇐" transform="matrix(1,0,0,1,396,-4)" xmlns:kvg="http://kanjivg.tagaini.net"></path><path class="stroke_order_diagram--existing_path" d="M35.5,14.25c0.75,0.75,1.36,1.74,1.5,2.45c1,4.92,2.35,12.15,2.75,14.55" id="Ske2168sr1a" kvg:type="㇑a" transform="matrix(1,0,0,1,396,-4)" xmlns:kvg="http://kanjivg.tagaini.net"></path><path class="stroke_order_diagram--existing_path" d="M62.89,11.5c0.28,1.23,0.28,2.16,0.03,3.38c-1.1,5.35-1.92,8.56-3.19,13.87" id="Ske2168sr1b" kvg:type="㇑a" transform="matrix(1,0,0,1,396,-4)" xmlns:kvg="http://kanjivg.tagaini.net"></path><path class="stroke_order_diagram--existing_path" d="M24.42,42.28c0.58,0.72,0.98,1.84,0.98,3.26c0,17.91,0.72,38.58-12.1,51.95" id="Ske2168sr1c" kvg:type="㇒" transform="matrix(1,0,0,1,396,-4)" xmlns:kvg="http://kanjivg.tagaini.net"></path><path class="stroke_order_diagram--current_path" d="M25.5,43.24c2.38,0.51,4.44,0.21,6.52-0.02c11-1.23,30.66-3.69,42.38-4.64c2.74-0.22,5.67-0.16,8.36,0.43" id="kvg:08535-s5" kvg:type="㇐" transform="matrix(1,0,0,1,396,-4)" xmlns:kvg="http://kanjivg.tagaini.net"></path><path class="stroke_order_diagram--current_path" d="M25.5,43.24c2.38,0.51,4.44,0.21,6.52-0.02c11-1.23,30.66-3.69,42.38-4.64c2.74-0.22,5.67-0.16,8.36,0.43" id="Ske2168sr1e" kvg:type="㇐" transform="matrix(1,0,0,1,396,-4)" xmlns:kvg="http://kanjivg.tagaini.net"></path><circle class="stroke_order_diagram--path_start" cx="25.5" cy="43.24" r="4" transform="matrix(1,0,0,1,396,-4)"></circle><line class="stroke_order_diagram--guide_line" x1="550" x2="550" y1="1" y2="99"></line><line class="stroke_order_diagram--bounding_box" x1="599" x2="599" y1="1" y2="99"></line><path class="stroke_order_diagram--existing_path" d="M17.5,25.27c3.38,0.23,6.27,0.13,9.01-0.19C40,23.5,63.25,21.12,76,20.39c3-0.17,6-0.14,9,0.63" id="Ske2168sr1h" kvg:type="㇐" transform="matrix(1,0,0,1,496,-4)" xmlns:kvg="http://kanjivg.tagaini.net"></path><path class="stroke_order_diagram--existing_path" d="M35.5,14.25c0.75,0.75,1.36,1.74,1.5,2.45c1,4.92,2.35,12.15,2.75,14.55" id="Ske2168sr1i" kvg:type="㇑a" transform="matrix(1,0,0,1,496,-4)" xmlns:kvg="http://kanjivg.tagaini.net"></path><path class="stroke_order_diagram--existing_path" d="M62.89,11.5c0.28,1.23,0.28,2.16,0.03,3.38c-1.1,5.35-1.92,8.56-3.19,13.87" id="Ske2168sr1j" kvg:type="㇑a" transform="matrix(1,0,0,1,496,-4)" xmlns:kvg="http://kanjivg.tagaini.net"></path><path class="stroke_order_diagram--existing_path" d="M24.42,42.28c0.58,0.72,0.98,1.84,0.98,3.26c0,17.91,0.72,38.58-12.1,51.95" id="Ske2168sr1k" kvg:type="㇒" transform="matrix(1,0,0,1,496,-4)" xmlns:kvg="http://kanjivg.tagaini.net"></path><path class="stroke_order_diagram--existing_path" d="M25.5,43.24c2.38,0.51,4.44,0.21,6.52-0.02c11-1.23,30.66-3.69,42.38-4.64c2.74-0.22,5.67-0.16,8.36,0.43" id="Ske2168sr1l" kvg:type="㇐" transform="matrix(1,0,0,1,496,-4)" xmlns:kvg="http://kanjivg.tagaini.net"></path><path class="stroke_order_diagram--current_path" d="M34.12,51.89c0.62,0.62,0.9,1.61,0.9,2.75c0,3.87-0.01,23.91-0.02,34.86c0,3.49,0,6.06,0,6.88" id="kvg:08535-s6" kvg:type="㇑" transform="matrix(1,0,0,1,496,-4)" xmlns:kvg="http://kanjivg.tagaini.net"></path><path class="stroke_order_diagram--current_path" d="M34.12,51.89c0.62,0.62,0.9,1.61,0.9,2.75c0,3.87-0.01,23.91-0.02,34.86c0,3.49,0,6.06,0,6.88" id="Ske2168sr1n" kvg:type="㇑" transform="matrix(1,0,0,1,496,-4)" xmlns:kvg="http://kanjivg.tagaini.net"></path><circle class="stroke_order_diagram--path_start" cx="34.12" cy="51.89" r="4" transform="matrix(1,0,0,1,496,-4)"></circle><line class="stroke_order_diagram--guide_line" x1="650" x2="650" y1="1" y2="99"></line><line class="stroke_order_diagram--bounding_box" x1="699" x2="699" y1="1" y2="99"></line><path class="stroke_order_diagram--existing_path" d="M17.5,25.27c3.38,0.23,6.27,0.13,9.01-0.19C40,23.5,63.25,21.12,76,20.39c3-0.17,6-0.14,9,0.63" id="Ske2168sr1q" kvg:type="㇐" transform="matrix(1,0,0,1,596,-4)" xmlns:kvg="http://kanjivg.tagaini.net"></path><path class="stroke_order_diagram--existing_path" d="M35.5,14.25c0.75,0.75,1.36,1.74,1.5,2.45c1,4.92,2.35,12.15,2.75,14.55" id="Ske2168sr1r" kvg:type="㇑a" transform="matrix(1,0,0,1,596,-4)" xmlns:kvg="http://kanjivg.tagaini.net"></path><path class="stroke_order_diagram--existing_path" d="M62.89,11.5c0.28,1.23,0.28,2.16,0.03,3.38c-1.1,5.35-1.92,8.56-3.19,13.87" id="Ske2168sr1s" kvg:type="㇑a" transform="matrix(1,0,0,1,596,-4)" xmlns:kvg="http://kanjivg.tagaini.net"></path><path class="stroke_order_diagram--existing_path" d="M24.42,42.28c0.58,0.72,0.98,1.84,0.98,3.26c0,17.91,0.72,38.58-12.1,51.95" id="Ske2168sr1t" kvg:type="㇒" transform="matrix(1,0,0,1,596,-4)" xmlns:kvg="http://kanjivg.tagaini.net"></path><path class="stroke_order_diagram--existing_path" d="M25.5,43.24c2.38,0.51,4.44,0.21,6.52-0.02c11-1.23,30.66-3.69,42.38-4.64c2.74-0.22,5.67-0.16,8.36,0.43" id="Ske2168sr1u" kvg:type="㇐" transform="matrix(1,0,0,1,596,-4)" xmlns:kvg="http://kanjivg.tagaini.net"></path><path class="stroke_order_diagram--existing_path" d="M34.12,51.89c0.62,0.62,0.9,1.61,0.9,2.75c0,3.87-0.01,23.91-0.02,34.86c0,3.49,0,6.06,0,6.88" id="Ske2168sr1v" kvg:type="㇑" transform="matrix(1,0,0,1,596,-4)" xmlns:kvg="http://kanjivg.tagaini.net"></path><path class="stroke_order_diagram--current_path" d="M35.39,52.98c4.99-0.36,15.16-2.13,22.86-2.53c1.17-0.06,1.87-0.13,2.45,0.02" id="kvg:08535-s7" kvg:type="㇐b" transform="matrix(1,0,0,1,596,-4)" xmlns:kvg="http://kanjivg.tagaini.net"></path><path class="stroke_order_diagram--current_path" d="M35.39,52.98c4.99-0.36,15.16-2.13,22.86-2.53c1.17-0.06,1.87-0.13,2.45,0.02" id="Ske2168sr1x" kvg:type="㇐b" transform="matrix(1,0,0,1,596,-4)" xmlns:kvg="http://kanjivg.tagaini.net"></path><circle class="stroke_order_diagram--path_start" cx="35.39" cy="52.98" r="4" transform="matrix(1,0,0,1,596,-4)"></circle><line class="stroke_order_diagram--guide_line" x1="750" x2="750" y1="1" y2="99"></line><line class="stroke_order_diagram--bounding_box" x1="799" x2="799" y1="1" y2="99"></line><path class="stroke_order_diagram--existing_path" d="M17.5,25.27c3.38,0.23,6.27,0.13,9.01-0.19C40,23.5,63.25,21.12,76,20.39c3-0.17,6-0.14,9,0.63" id="Ske2168sr20" kvg:type="㇐" transform="matrix(1,0,0,1,696,-4)" xmlns:kvg="http://kanjivg.tagaini.net"></path><path class="stroke_order_diagram--existing_path" d="M35.5,14.25c0.75,0.75,1.36,1.74,1.5,2.45c1,4.92,2.35,12.15,2.75,14.55" id="Ske2168sr21" kvg:type="㇑a" transform="matrix(1,0,0,1,696,-4)" xmlns:kvg="http://kanjivg.tagaini.net"></path><path class="stroke_order_diagram--existing_path" d="M62.89,11.5c0.28,1.23,0.28,2.16,0.03,3.38c-1.1,5.35-1.92,8.56-3.19,13.87" id="Ske2168sr22" kvg:type="㇑a" transform="matrix(1,0,0,1,696,-4)" xmlns:kvg="http://kanjivg.tagaini.net"></path><path class="stroke_order_diagram--existing_path" d="M24.42,42.28c0.58,0.72,0.98,1.84,0.98,3.26c0,17.91,0.72,38.58-12.1,51.95" id="Ske2168sr23" kvg:type="㇒" transform="matrix(1,0,0,1,696,-4)" xmlns:kvg="http://kanjivg.tagaini.net"></path><path class="stroke_order_diagram--existing_path" d="M25.5,43.24c2.38,0.51,4.44,0.21,6.52-0.02c11-1.23,30.66-3.69,42.38-4.64c2.74-0.22,5.67-0.16,8.36,0.43" id="Ske2168sr24" kvg:type="㇐" transform="matrix(1,0,0,1,696,-4)" xmlns:kvg="http://kanjivg.tagaini.net"></path><path class="stroke_order_diagram--existing_path" d="M34.12,51.89c0.62,0.62,0.9,1.61,0.9,2.75c0,3.87-0.01,23.91-0.02,34.86c0,3.49,0,6.06,0,6.88" id="Ske2168sr25" kvg:type="㇑" transform="matrix(1,0,0,1,696,-4)" xmlns:kvg="http://kanjivg.tagaini.net"></path><path class="stroke_order_diagram--existing_path" d="M35.39,52.98c4.99-0.36,15.16-2.13,22.86-2.53c1.17-0.06,1.87-0.13,2.45,0.02" id="Ske2168sr26" kvg:type="㇐b" transform="matrix(1,0,0,1,696,-4)" xmlns:kvg="http://kanjivg.tagaini.net"></path><path class="stroke_order_diagram--current_path" d="M47.61,52.41c0.49,0.49,0.8,1.21,0.81,2.33c0.02,2.54-0.02,5.24-0.09,7.57" id="kvg:08535-s8" kvg:type="㇑a" transform="matrix(1,0,0,1,696,-4)" xmlns:kvg="http://kanjivg.tagaini.net"></path><path class="stroke_order_diagram--current_path" d="M47.61,52.41c0.49,0.49,0.8,1.21,0.81,2.33c0.02,2.54-0.02,5.24-0.09,7.57" id="Ske2168sr28" kvg:type="㇑a" transform="matrix(1,0,0,1,696,-4)" xmlns:kvg="http://kanjivg.tagaini.net"></path><circle class="stroke_order_diagram--path_start" cx="47.61" cy="52.41" r="4" transform="matrix(1,0,0,1,696,-4)"></circle><line class="stroke_order_diagram--guide_line" x1="850" x2="850" y1="1" y2="99"></line><line class="stroke_order_diagram--bounding_box" x1="899" x2="899" y1="1" y2="99"></line><path class="stroke_order_diagram--existing_path" d="M17.5,25.27c3.38,0.23,6.27,0.13,9.01-0.19C40,23.5,63.25,21.12,76,20.39c3-0.17,6-0.14,9,0.63" id="Ske2168sr2b" kvg:type="㇐" transform="matrix(1,0,0,1,796,-4)" xmlns:kvg="http://kanjivg.tagaini.net"></path><path class="stroke_order_diagram--existing_path" d="M35.5,14.25c0.75,0.75,1.36,1.74,1.5,2.45c1,4.92,2.35,12.15,2.75,14.55" id="Ske2168sr2c" kvg:type="㇑a" transform="matrix(1,0,0,1,796,-4)" xmlns:kvg="http://kanjivg.tagaini.net"></path><path class="stroke_order_diagram--existing_path" d="M62.89,11.5c0.28,1.23,0.28,2.16,0.03,3.38c-1.1,5.35-1.92,8.56-3.19,13.87" id="Ske2168sr2d" kvg:type="㇑a" transform="matrix(1,0,0,1,796,-4)" xmlns:kvg="http://kanjivg.tagaini.net"></path><path class="stroke_order_diagram--existing_path" d="M24.42,42.28c0.58,0.72,0.98,1.84,0.98,3.26c0,17.91,0.72,38.58-12.1,51.95" id="Ske2168sr2e" kvg:type="㇒" transform="matrix(1,0,0,1,796,-4)" xmlns:kvg="http://kanjivg.tagaini.net"></path><path class="stroke_order_diagram--existing_path" d="M25.5,43.24c2.38,0.51,4.44,0.21,6.52-0.02c11-1.23,30.66-3.69,42.38-4.64c2.74-0.22,5.67-0.16,8.36,0.43" id="Ske2168sr2f" kvg:type="㇐" transform="matrix(1,0,0,1,796,-4)" xmlns:kvg="http://kanjivg.tagaini.net"></path><path class="stroke_order_diagram--existing_path" d="M34.12,51.89c0.62,0.62,0.9,1.61,0.9,2.75c0,3.87-0.01,23.91-0.02,34.86c0,3.49,0,6.06,0,6.88" id="Ske2168sr2g" kvg:type="㇑" transform="matrix(1,0,0,1,796,-4)" xmlns:kvg="http://kanjivg.tagaini.net"></path><path class="stroke_order_diagram--existing_path" d="M35.39,52.98c4.99-0.36,15.16-2.13,22.86-2.53c1.17-0.06,1.87-0.13,2.45,0.02" id="Ske2168sr2h" kvg:type="㇐b" transform="matrix(1,0,0,1,796,-4)" xmlns:kvg="http://kanjivg.tagaini.net"></path><path class="stroke_order_diagram--existing_path" d="M47.61,52.41c0.49,0.49,0.8,1.21,0.81,2.33c0.02,2.54-0.02,5.24-0.09,7.57" id="Ske2168sr2i" kvg:type="㇑a" transform="matrix(1,0,0,1,796,-4)" xmlns:kvg="http://kanjivg.tagaini.net"></path><path class="stroke_order_diagram--current_path" d="M36.08,65.44c7.93-0.99,16.86-2.27,22.36-2.95c2.23-0.28,2.85,0.84,2.54,2.29c-0.56,2.63-1.36,4.72-2.46,8.58" id="kvg:08535-s9" kvg:type="㇕b" transform="matrix(1,0,0,1,796,-4)" xmlns:kvg="http://kanjivg.tagaini.net"></path><path class="stroke_order_diagram--current_path" d="M36.08,65.44c7.93-0.99,16.86-2.27,22.36-2.95c2.23-0.28,2.85,0.84,2.54,2.29c-0.56,2.63-1.36,4.72-2.46,8.58" id="Ske2168sr2k" kvg:type="㇕b" transform="matrix(1,0,0,1,796,-4)" xmlns:kvg="http://kanjivg.tagaini.net"></path><circle class="stroke_order_diagram--path_start" cx="36.08" cy="65.44" r="4" transform="matrix(1,0,0,1,796,-4)"></circle><line class="stroke_order_diagram--guide_line" x1="950" x2="950" y1="1" y2="99"></line><line class="stroke_order_diagram--bounding_box" x1="999" x2="999" y1="1" y2="99"></line><path class="stroke_order_diagram--existing_path" d="M17.5,25.27c3.38,0.23,6.27,0.13,9.01-0.19C40,23.5,63.25,21.12,76,20.39c3-0.17,6-0.14,9,0.63" id="Ske2168sr2n" kvg:type="㇐" transform="matrix(1,0,0,1,896,-4)" xmlns:kvg="http://kanjivg.tagaini.net"></path><path class="stroke_order_diagram--existing_path" d="M35.5,14.25c0.75,0.75,1.36,1.74,1.5,2.45c1,4.92,2.35,12.15,2.75,14.55" id="Ske2168sr2o" kvg:type="㇑a" transform="matrix(1,0,0,1,896,-4)" xmlns:kvg="http://kanjivg.tagaini.net"></path><path class="stroke_order_diagram--existing_path" d="M62.89,11.5c0.28,1.23,0.28,2.16,0.03,3.38c-1.1,5.35-1.92,8.56-3.19,13.87" id="Ske2168sr2p" kvg:type="㇑a" transform="matrix(1,0,0,1,896,-4)" xmlns:kvg="http://kanjivg.tagaini.net"></path><path class="stroke_order_diagram--existing_path" d="M24.42,42.28c0.58,0.72,0.98,1.84,0.98,3.26c0,17.91,0.72,38.58-12.1,51.95" id="Ske2168sr2q" kvg:type="㇒" transform="matrix(1,0,0,1,896,-4)" xmlns:kvg="http://kanjivg.tagaini.net"></path><path class="stroke_order_diagram--existing_path" d="M25.5,43.24c2.38,0.51,4.44,0.21,6.52-0.02c11-1.23,30.66-3.69,42.38-4.64c2.74-0.22,5.67-0.16,8.36,0.43" id="Ske2168sr2r" kvg:type="㇐" transform="matrix(1,0,0,1,896,-4)" xmlns:kvg="http://kanjivg.tagaini.net"></path><path class="stroke_order_diagram--existing_path" d="M34.12,51.89c0.62,0.62,0.9,1.61,0.9,2.75c0,3.87-0.01,23.91-0.02,34.86c0,3.49,0,6.06,0,6.88" id="Ske2168sr2s" kvg:type="㇑" transform="matrix(1,0,0,1,896,-4)" xmlns:kvg="http://kanjivg.tagaini.net"></path><path class="stroke_order_diagram--existing_path" d="M35.39,52.98c4.99-0.36,15.16-2.13,22.86-2.53c1.17-0.06,1.87-0.13,2.45,0.02" id="Ske2168sr2t" kvg:type="㇐b" transform="matrix(1,0,0,1,896,-4)" xmlns:kvg="http://kanjivg.tagaini.net"></path><path class="stroke_order_diagram--existing_path" d="M47.61,52.41c0.49,0.49,0.8,1.21,0.81,2.33c0.02,2.54-0.02,5.24-0.09,7.57" id="Ske2168sr2u" kvg:type="㇑a" transform="matrix(1,0,0,1,896,-4)" xmlns:kvg="http://kanjivg.tagaini.net"></path><path class="stroke_order_diagram--existing_path" d="M36.08,65.44c7.93-0.99,16.86-2.27,22.36-2.95c2.23-0.28,2.85,0.84,2.54,2.29c-0.56,2.63-1.36,4.72-2.46,8.58" id="Ske2168sr2v" kvg:type="㇕b" transform="matrix(1,0,0,1,896,-4)" xmlns:kvg="http://kanjivg.tagaini.net"></path><path class="stroke_order_diagram--current_path" d="M36.12,77.32c4.26-0.7,12.42-1.95,19.61-2.81c1.75-0.21,3.29-0.37,4.45-0.46" id="kvg:08535-s10" kvg:type="㇐b" transform="matrix(1,0,0,1,896,-4)" xmlns:kvg="http://kanjivg.tagaini.net"></path><path class="stroke_order_diagram--current_path" d="M36.12,77.32c4.26-0.7,12.42-1.95,19.61-2.81c1.75-0.21,3.29-0.37,4.45-0.46" id="Ske2168sr2x" kvg:type="㇐b" transform="matrix(1,0,0,1,896,-4)" xmlns:kvg="http://kanjivg.tagaini.net"></path><circle class="stroke_order_diagram--path_start" cx="36.12" cy="77.32" r="4" transform="matrix(1,0,0,1,896,-4)"></circle><line class="stroke_order_diagram--guide_line" x1="1050" x2="1050" y1="1" y2="99"></line><line class="stroke_order_diagram--bounding_box" x1="1099" x2="1099" y1="1" y2="99"></line><path class="stroke_order_diagram--existing_path" d="M17.5,25.27c3.38,0.23,6.27,0.13,9.01-0.19C40,23.5,63.25,21.12,76,20.39c3-0.17,6-0.14,9,0.63" id="Ske2168sr30" kvg:type="㇐" transform="matrix(1,0,0,1,996,-4)" xmlns:kvg="http://kanjivg.tagaini.net"></path><path class="stroke_order_diagram--existing_path" d="M35.5,14.25c0.75,0.75,1.36,1.74,1.5,2.45c1,4.92,2.35,12.15,2.75,14.55" id="Ske2168sr31" kvg:type="㇑a" transform="matrix(1,0,0,1,996,-4)" xmlns:kvg="http://kanjivg.tagaini.net"></path><path class="stroke_order_diagram--existing_path" d="M62.89,11.5c0.28,1.23,0.28,2.16,0.03,3.38c-1.1,5.35-1.92,8.56-3.19,13.87" id="Ske2168sr32" kvg:type="㇑a" transform="matrix(1,0,0,1,996,-4)" xmlns:kvg="http://kanjivg.tagaini.net"></path><path class="stroke_order_diagram--existing_path" d="M24.42,42.28c0.58,0.72,0.98,1.84,0.98,3.26c0,17.91,0.72,38.58-12.1,51.95" id="Ske2168sr33" kvg:type="㇒" transform="matrix(1,0,0,1,996,-4)" xmlns:kvg="http://kanjivg.tagaini.net"></path><path class="stroke_order_diagram--existing_path" d="M25.5,43.24c2.38,0.51,4.44,0.21,6.52-0.02c11-1.23,30.66-3.69,42.38-4.64c2.74-0.22,5.67-0.16,8.36,0.43" id="Ske2168sr34" kvg:type="㇐" transform="matrix(1,0,0,1,996,-4)" xmlns:kvg="http://kanjivg.tagaini.net"></path><path class="stroke_order_diagram--existing_path" d="M34.12,51.89c0.62,0.62,0.9,1.61,0.9,2.75c0,3.87-0.01,23.91-0.02,34.86c0,3.49,0,6.06,0,6.88" id="Ske2168sr35" kvg:type="㇑" transform="matrix(1,0,0,1,996,-4)" xmlns:kvg="http://kanjivg.tagaini.net"></path><path class="stroke_order_diagram--existing_path" d="M35.39,52.98c4.99-0.36,15.16-2.13,22.86-2.53c1.17-0.06,1.87-0.13,2.45,0.02" id="Ske2168sr36" kvg:type="㇐b" transform="matrix(1,0,0,1,996,-4)" xmlns:kvg="http://kanjivg.tagaini.net"></path><path class="stroke_order_diagram--existing_path" d="M47.61,52.41c0.49,0.49,0.8,1.21,0.81,2.33c0.02,2.54-0.02,5.24-0.09,7.57" id="Ske2168sr37" kvg:type="㇑a" transform="matrix(1,0,0,1,996,-4)" xmlns:kvg="http://kanjivg.tagaini.net"></path><path class="stroke_order_diagram--existing_path" d="M36.08,65.44c7.93-0.99,16.86-2.27,22.36-2.95c2.23-0.28,2.85,0.84,2.54,2.29c-0.56,2.63-1.36,4.72-2.46,8.58" id="Ske2168sr38" kvg:type="㇕b" transform="matrix(1,0,0,1,996,-4)" xmlns:kvg="http://kanjivg.tagaini.net"></path><path class="stroke_order_diagram--existing_path" d="M36.12,77.32c4.26-0.7,12.42-1.95,19.61-2.81c1.75-0.21,3.29-0.37,4.45-0.46" id="Ske2168sr39" kvg:type="㇐b" transform="matrix(1,0,0,1,996,-4)" xmlns:kvg="http://kanjivg.tagaini.net"></path><path class="stroke_order_diagram--current_path" d="M47.95,76.39c0.45,0.45,0.8,1.23,0.81,2.36c0.01,2.38-0.09,3.88-0.09,8.22" id="kvg:08535-s11" kvg:type="㇑a" transform="matrix(1,0,0,1,996,-4)" xmlns:kvg="http://kanjivg.tagaini.net"></path><path class="stroke_order_diagram--current_path" d="M47.95,76.39c0.45,0.45,0.8,1.23,0.81,2.36c0.01,2.38-0.09,3.88-0.09,8.22" id="Ske2168sr3b" kvg:type="㇑a" transform="matrix(1,0,0,1,996,-4)" xmlns:kvg="http://kanjivg.tagaini.net"></path><circle class="stroke_order_diagram--path_start" cx="47.95" cy="76.39" r="4" transform="matrix(1,0,0,1,996,-4)"></circle><line class="stroke_order_diagram--guide_line" x1="1150" x2="1150" y1="1" y2="99"></line><line class="stroke_order_diagram--bounding_box" x1="1199" x2="1199" y1="1" y2="99"></line><path class="stroke_order_diagram--existing_path" d="M17.5,25.27c3.38,0.23,6.27,0.13,9.01-0.19C40,23.5,63.25,21.12,76,20.39c3-0.17,6-0.14,9,0.63" id="Ske2168sr3e" kvg:type="㇐" transform="matrix(1,0,0,1,1096,-4)" xmlns:kvg="http://kanjivg.tagaini.net"></path><path class="stroke_order_diagram--existing_path" d="M35.5,14.25c0.75,0.75,1.36,1.74,1.5,2.45c1,4.92,2.35,12.15,2.75,14.55" id="Ske2168sr3f" kvg:type="㇑a" transform="matrix(1,0,0,1,1096,-4)" xmlns:kvg="http://kanjivg.tagaini.net"></path><path class="stroke_order_diagram--existing_path" d="M62.89,11.5c0.28,1.23,0.28,2.16,0.03,3.38c-1.1,5.35-1.92,8.56-3.19,13.87" id="Ske2168sr3g" kvg:type="㇑a" transform="matrix(1,0,0,1,1096,-4)" xmlns:kvg="http://kanjivg.tagaini.net"></path><path class="stroke_order_diagram--existing_path" d="M24.42,42.28c0.58,0.72,0.98,1.84,0.98,3.26c0,17.91,0.72,38.58-12.1,51.95" id="Ske2168sr3h" kvg:type="㇒" transform="matrix(1,0,0,1,1096,-4)" xmlns:kvg="http://kanjivg.tagaini.net"></path><path class="stroke_order_diagram--existing_path" d="M25.5,43.24c2.38,0.51,4.44,0.21,6.52-0.02c11-1.23,30.66-3.69,42.38-4.64c2.74-0.22,5.67-0.16,8.36,0.43" id="Ske2168sr3i" kvg:type="㇐" transform="matrix(1,0,0,1,1096,-4)" xmlns:kvg="http://kanjivg.tagaini.net"></path><path class="stroke_order_diagram--existing_path" d="M34.12,51.89c0.62,0.62,0.9,1.61,0.9,2.75c0,3.87-0.01,23.91-0.02,34.86c0,3.49,0,6.06,0,6.88" id="Ske2168sr3j" kvg:type="㇑" transform="matrix(1,0,0,1,1096,-4)" xmlns:kvg="http://kanjivg.tagaini.net"></path><path class="stroke_order_diagram--existing_path" d="M35.39,52.98c4.99-0.36,15.16-2.13,22.86-2.53c1.17-0.06,1.87-0.13,2.45,0.02" id="Ske2168sr3k" kvg:type="㇐b" transform="matrix(1,0,0,1,1096,-4)" xmlns:kvg="http://kanjivg.tagaini.net"></path><path class="stroke_order_diagram--existing_path" d="M47.61,52.41c0.49,0.49,0.8,1.21,0.81,2.33c0.02,2.54-0.02,5.24-0.09,7.57" id="Ske2168sr3l" kvg:type="㇑a" transform="matrix(1,0,0,1,1096,-4)" xmlns:kvg="http://kanjivg.tagaini.net"></path><path class="stroke_order_diagram--existing_path" d="M36.08,65.44c7.93-0.99,16.86-2.27,22.36-2.95c2.23-0.28,2.85,0.84,2.54,2.29c-0.56,2.63-1.36,4.72-2.46,8.58" id="Ske2168sr3m" kvg:type="㇕b" transform="matrix(1,0,0,1,1096,-4)" xmlns:kvg="http://kanjivg.tagaini.net"></path><path class="stroke_order_diagram--existing_path" d="M36.12,77.32c4.26-0.7,12.42-1.95,19.61-2.81c1.75-0.21,3.29-0.37,4.45-0.46" id="Ske2168sr3n" kvg:type="㇐b" transform="matrix(1,0,0,1,1096,-4)" xmlns:kvg="http://kanjivg.tagaini.net"></path><path class="stroke_order_diagram--existing_path" d="M47.95,76.39c0.45,0.45,0.8,1.23,0.81,2.36c0.01,2.38-0.09,3.88-0.09,8.22" id="Ske2168sr3o" kvg:type="㇑a" transform="matrix(1,0,0,1,1096,-4)" xmlns:kvg="http://kanjivg.tagaini.net"></path><path class="stroke_order_diagram--current_path" d="M36.14,89.45C42,88.75,52,87.62,59.8,86.69c1.16-0.14,1.87-0.13,2.45,0.02" id="kvg:08535-s12" kvg:type="㇐b" transform="matrix(1,0,0,1,1096,-4)" xmlns:kvg="http://kanjivg.tagaini.net"></path><path class="stroke_order_diagram--current_path" d="M36.14,89.45C42,88.75,52,87.62,59.8,86.69c1.16-0.14,1.87-0.13,2.45,0.02" id="Ske2168sr3q" kvg:type="㇐b" transform="matrix(1,0,0,1,1096,-4)" xmlns:kvg="http://kanjivg.tagaini.net"></path><circle class="stroke_order_diagram--path_start" cx="36.14" cy="89.45" r="4" transform="matrix(1,0,0,1,1096,-4)"></circle><line class="stroke_order_diagram--guide_line" x1="1250" x2="1250" y1="1" y2="99"></line><line class="stroke_order_diagram--bounding_box" x1="1299" x2="1299" y1="1" y2="99"></line><path class="stroke_order_diagram--existing_path" d="M17.5,25.27c3.38,0.23,6.27,0.13,9.01-0.19C40,23.5,63.25,21.12,76,20.39c3-0.17,6-0.14,9,0.63" id="Ske2168sr3t" kvg:type="㇐" transform="matrix(1,0,0,1,1196,-4)" xmlns:kvg="http://kanjivg.tagaini.net"></path><path class="stroke_order_diagram--existing_path" d="M35.5,14.25c0.75,0.75,1.36,1.74,1.5,2.45c1,4.92,2.35,12.15,2.75,14.55" id="Ske2168sr3u" kvg:type="㇑a" transform="matrix(1,0,0,1,1196,-4)" xmlns:kvg="http://kanjivg.tagaini.net"></path><path class="stroke_order_diagram--existing_path" d="M62.89,11.5c0.28,1.23,0.28,2.16,0.03,3.38c-1.1,5.35-1.92,8.56-3.19,13.87" id="Ske2168sr3v" kvg:type="㇑a" transform="matrix(1,0,0,1,1196,-4)" xmlns:kvg="http://kanjivg.tagaini.net"></path><path class="stroke_order_diagram--existing_path" d="M24.42,42.28c0.58,0.72,0.98,1.84,0.98,3.26c0,17.91,0.72,38.58-12.1,51.95" id="Ske2168sr3w" kvg:type="㇒" transform="matrix(1,0,0,1,1196,-4)" xmlns:kvg="http://kanjivg.tagaini.net"></path><path class="stroke_order_diagram--existing_path" d="M25.5,43.24c2.38,0.51,4.44,0.21,6.52-0.02c11-1.23,30.66-3.69,42.38-4.64c2.74-0.22,5.67-0.16,8.36,0.43" id="Ske2168sr3x" kvg:type="㇐" transform="matrix(1,0,0,1,1196,-4)" xmlns:kvg="http://kanjivg.tagaini.net"></path><path class="stroke_order_diagram--existing_path" d="M34.12,51.89c0.62,0.62,0.9,1.61,0.9,2.75c0,3.87-0.01,23.91-0.02,34.86c0,3.49,0,6.06,0,6.88" id="Ske2168sr3y" kvg:type="㇑" transform="matrix(1,0,0,1,1196,-4)" xmlns:kvg="http://kanjivg.tagaini.net"></path><path class="stroke_order_diagram--existing_path" d="M35.39,52.98c4.99-0.36,15.16-2.13,22.86-2.53c1.17-0.06,1.87-0.13,2.45,0.02" id="Ske2168sr3z" kvg:type="㇐b" transform="matrix(1,0,0,1,1196,-4)" xmlns:kvg="http://kanjivg.tagaini.net"></path><path class="stroke_order_diagram--existing_path" d="M47.61,52.41c0.49,0.49,0.8,1.21,0.81,2.33c0.02,2.54-0.02,5.24-0.09,7.57" id="Ske2168sr40" kvg:type="㇑a" transform="matrix(1,0,0,1,1196,-4)" xmlns:kvg="http://kanjivg.tagaini.net"></path><path class="stroke_order_diagram--existing_path" d="M36.08,65.44c7.93-0.99,16.86-2.27,22.36-2.95c2.23-0.28,2.85,0.84,2.54,2.29c-0.56,2.63-1.36,4.72-2.46,8.58" id="Ske2168sr41" kvg:type="㇕b" transform="matrix(1,0,0,1,1196,-4)" xmlns:kvg="http://kanjivg.tagaini.net"></path><path class="stroke_order_diagram--existing_path" d="M36.12,77.32c4.26-0.7,12.42-1.95,19.61-2.81c1.75-0.21,3.29-0.37,4.45-0.46" id="Ske2168sr42" kvg:type="㇐b" transform="matrix(1,0,0,1,1196,-4)" xmlns:kvg="http://kanjivg.tagaini.net"></path><path class="stroke_order_diagram--existing_path" d="M47.95,76.39c0.45,0.45,0.8,1.23,0.81,2.36c0.01,2.38-0.09,3.88-0.09,8.22" id="Ske2168sr43" kvg:type="㇑a" transform="matrix(1,0,0,1,1196,-4)" xmlns:kvg="http://kanjivg.tagaini.net"></path><path class="stroke_order_diagram--existing_path" d="M36.14,89.45C42,88.75,52,87.62,59.8,86.69c1.16-0.14,1.87-0.13,2.45,0.02" id="Ske2168sr44" kvg:type="㇐b" transform="matrix(1,0,0,1,1196,-4)" xmlns:kvg="http://kanjivg.tagaini.net"></path><path class="stroke_order_diagram--current_path" d="M64.25,33c1.33,1.39,1.96,3.26,2.16,6.25c1.59,24,10.71,47.13,26.01,56.58c5.11,3.16,4.49,0.59,3.82-5.54" id="kvg:08535-s13" kvg:type="㇂" transform="matrix(1,0,0,1,1196,-4)" xmlns:kvg="http://kanjivg.tagaini.net"></path><path class="stroke_order_diagram--current_path" d="M64.25,33c1.33,1.39,1.96,3.26,2.16,6.25c1.59,24,10.71,47.13,26.01,56.58c5.11,3.16,4.49,0.59,3.82-5.54" id="Ske2168sr46" kvg:type="㇂" transform="matrix(1,0,0,1,1196,-4)" xmlns:kvg="http://kanjivg.tagaini.net"></path><circle class="stroke_order_diagram--path_start" cx="64.25" cy="33" r="4" transform="matrix(1,0,0,1,1196,-4)"></circle><line class="stroke_order_diagram--guide_line" x1="1350" x2="1350" y1="1" y2="99"></line><line class="stroke_order_diagram--bounding_box" x1="1399" x2="1399" y1="1" y2="99"></line><path class="stroke_order_diagram--existing_path" d="M17.5,25.27c3.38,0.23,6.27,0.13,9.01-0.19C40,23.5,63.25,21.12,76,20.39c3-0.17,6-0.14,9,0.63" id="Ske2168sr49" kvg:type="㇐" transform="matrix(1,0,0,1,1296,-4)" xmlns:kvg="http://kanjivg.tagaini.net"></path><path class="stroke_order_diagram--existing_path" d="M35.5,14.25c0.75,0.75,1.36,1.74,1.5,2.45c1,4.92,2.35,12.15,2.75,14.55" id="Ske2168sr4a" kvg:type="㇑a" transform="matrix(1,0,0,1,1296,-4)" xmlns:kvg="http://kanjivg.tagaini.net"></path><path class="stroke_order_diagram--existing_path" d="M62.89,11.5c0.28,1.23,0.28,2.16,0.03,3.38c-1.1,5.35-1.92,8.56-3.19,13.87" id="Ske2168sr4b" kvg:type="㇑a" transform="matrix(1,0,0,1,1296,-4)" xmlns:kvg="http://kanjivg.tagaini.net"></path><path class="stroke_order_diagram--existing_path" d="M24.42,42.28c0.58,0.72,0.98,1.84,0.98,3.26c0,17.91,0.72,38.58-12.1,51.95" id="Ske2168sr4c" kvg:type="㇒" transform="matrix(1,0,0,1,1296,-4)" xmlns:kvg="http://kanjivg.tagaini.net"></path><path class="stroke_order_diagram--existing_path" d="M25.5,43.24c2.38,0.51,4.44,0.21,6.52-0.02c11-1.23,30.66-3.69,42.38-4.64c2.74-0.22,5.67-0.16,8.36,0.43" id="Ske2168sr4d" kvg:type="㇐" transform="matrix(1,0,0,1,1296,-4)" xmlns:kvg="http://kanjivg.tagaini.net"></path><path class="stroke_order_diagram--existing_path" d="M34.12,51.89c0.62,0.62,0.9,1.61,0.9,2.75c0,3.87-0.01,23.91-0.02,34.86c0,3.49,0,6.06,0,6.88" id="Ske2168sr4e" kvg:type="㇑" transform="matrix(1,0,0,1,1296,-4)" xmlns:kvg="http://kanjivg.tagaini.net"></path><path class="stroke_order_diagram--existing_path" d="M35.39,52.98c4.99-0.36,15.16-2.13,22.86-2.53c1.17-0.06,1.87-0.13,2.45,0.02" id="Ske2168sr4f" kvg:type="㇐b" transform="matrix(1,0,0,1,1296,-4)" xmlns:kvg="http://kanjivg.tagaini.net"></path><path class="stroke_order_diagram--existing_path" d="M47.61,52.41c0.49,0.49,0.8,1.21,0.81,2.33c0.02,2.54-0.02,5.24-0.09,7.57" id="Ske2168sr4g" kvg:type="㇑a" transform="matrix(1,0,0,1,1296,-4)" xmlns:kvg="http://kanjivg.tagaini.net"></path><path class="stroke_order_diagram--existing_path" d="M36.08,65.44c7.93-0.99,16.86-2.27,22.36-2.95c2.23-0.28,2.85,0.84,2.54,2.29c-0.56,2.63-1.36,4.72-2.46,8.58" id="Ske2168sr4h" kvg:type="㇕b" transform="matrix(1,0,0,1,1296,-4)" xmlns:kvg="http://kanjivg.tagaini.net"></path><path class="stroke_order_diagram--existing_path" d="M36.12,77.32c4.26-0.7,12.42-1.95,19.61-2.81c1.75-0.21,3.29-0.37,4.45-0.46" id="Ske2168sr4i" kvg:type="㇐b" transform="matrix(1,0,0,1,1296,-4)" xmlns:kvg="http://kanjivg.tagaini.net"></path><path class="stroke_order_diagram--existing_path" d="M47.95,76.39c0.45,0.45,0.8,1.23,0.81,2.36c0.01,2.38-0.09,3.88-0.09,8.22" id="Ske2168sr4j" kvg:type="㇑a" transform="matrix(1,0,0,1,1296,-4)" xmlns:kvg="http://kanjivg.tagaini.net"></path><path class="stroke_order_diagram--existing_path" d="M36.14,89.45C42,88.75,52,87.62,59.8,86.69c1.16-0.14,1.87-0.13,2.45,0.02" id="Ske2168sr4k" kvg:type="㇐b" transform="matrix(1,0,0,1,1296,-4)" xmlns:kvg="http://kanjivg.tagaini.net"></path><path class="stroke_order_diagram--existing_path" d="M64.25,33c1.33,1.39,1.96,3.26,2.16,6.25c1.59,24,10.71,47.13,26.01,56.58c5.11,3.16,4.49,0.59,3.82-5.54" id="Ske2168sr4l" kvg:type="㇂" transform="matrix(1,0,0,1,1296,-4)" xmlns:kvg="http://kanjivg.tagaini.net"></path><path class="stroke_order_diagram--current_path" d="M84.25,53.39c0.25,0.98,0.26,1.99-0.11,3.33c-2.51,8.91-8.76,26.53-20.33,37.75" id="kvg:08535-s14" kvg:type="㇒" transform="matrix(1,0,0,1,1296,-4)" xmlns:kvg="http://kanjivg.tagaini.net"></path><path class="stroke_order_diagram--current_path" d="M84.25,53.39c0.25,0.98,0.26,1.99-0.11,3.33c-2.51,8.91-8.76,26.53-20.33,37.75" id="Ske2168sr4n" kvg:type="㇒" transform="matrix(1,0,0,1,1296,-4)" xmlns:kvg="http://kanjivg.tagaini.net"></path><circle class="stroke_order_diagram--path_start" cx="84.25" cy="53.39" r="4" transform="matrix(1,0,0,1,1296,-4)"></circle><line class="stroke_order_diagram--guide_line" x1="1450" x2="1450" y1="1" y2="99"></line><line class="stroke_order_diagram--bounding_box" x1="1499" x2="1499" y1="1" y2="99"></line><path class="stroke_order_diagram--existing_path" d="M17.5,25.27c3.38,0.23,6.27,0.13,9.01-0.19C40,23.5,63.25,21.12,76,20.39c3-0.17,6-0.14,9,0.63" id="Ske2168sr4q" kvg:type="㇐" transform="matrix(1,0,0,1,1396,-4)" xmlns:kvg="http://kanjivg.tagaini.net"></path><path class="stroke_order_diagram--existing_path" d="M35.5,14.25c0.75,0.75,1.36,1.74,1.5,2.45c1,4.92,2.35,12.15,2.75,14.55" id="Ske2168sr4r" kvg:type="㇑a" transform="matrix(1,0,0,1,1396,-4)" xmlns:kvg="http://kanjivg.tagaini.net"></path><path class="stroke_order_diagram--existing_path" d="M62.89,11.5c0.28,1.23,0.28,2.16,0.03,3.38c-1.1,5.35-1.92,8.56-3.19,13.87" id="Ske2168sr4s" kvg:type="㇑a" transform="matrix(1,0,0,1,1396,-4)" xmlns:kvg="http://kanjivg.tagaini.net"></path><path class="stroke_order_diagram--existing_path" d="M24.42,42.28c0.58,0.72,0.98,1.84,0.98,3.26c0,17.91,0.72,38.58-12.1,51.95" id="Ske2168sr4t" kvg:type="㇒" transform="matrix(1,0,0,1,1396,-4)" xmlns:kvg="http://kanjivg.tagaini.net"></path><path class="stroke_order_diagram--existing_path" d="M25.5,43.24c2.38,0.51,4.44,0.21,6.52-0.02c11-1.23,30.66-3.69,42.38-4.64c2.74-0.22,5.67-0.16,8.36,0.43" id="Ske2168sr4u" kvg:type="㇐" transform="matrix(1,0,0,1,1396,-4)" xmlns:kvg="http://kanjivg.tagaini.net"></path><path class="stroke_order_diagram--existing_path" d="M34.12,51.89c0.62,0.62,0.9,1.61,0.9,2.75c0,3.87-0.01,23.91-0.02,34.86c0,3.49,0,6.06,0,6.88" id="Ske2168sr4v" kvg:type="㇑" transform="matrix(1,0,0,1,1396,-4)" xmlns:kvg="http://kanjivg.tagaini.net"></path><path class="stroke_order_diagram--existing_path" d="M35.39,52.98c4.99-0.36,15.16-2.13,22.86-2.53c1.17-0.06,1.87-0.13,2.45,0.02" id="Ske2168sr4w" kvg:type="㇐b" transform="matrix(1,0,0,1,1396,-4)" xmlns:kvg="http://kanjivg.tagaini.net"></path><path class="stroke_order_diagram--existing_path" d="M47.61,52.41c0.49,0.49,0.8,1.21,0.81,2.33c0.02,2.54-0.02,5.24-0.09,7.57" id="Ske2168sr4x" kvg:type="㇑a" transform="matrix(1,0,0,1,1396,-4)" xmlns:kvg="http://kanjivg.tagaini.net"></path><path class="stroke_order_diagram--existing_path" d="M36.08,65.44c7.93-0.99,16.86-2.27,22.36-2.95c2.23-0.28,2.85,0.84,2.54,2.29c-0.56,2.63-1.36,4.72-2.46,8.58" id="Ske2168sr4y" kvg:type="㇕b" transform="matrix(1,0,0,1,1396,-4)" xmlns:kvg="http://kanjivg.tagaini.net"></path><path class="stroke_order_diagram--existing_path" d="M36.12,77.32c4.26-0.7,12.42-1.95,19.61-2.81c1.75-0.21,3.29-0.37,4.45-0.46" id="Ske2168sr4z" kvg:type="㇐b" transform="matrix(1,0,0,1,1396,-4)" xmlns:kvg="http://kanjivg.tagaini.net"></path><path class="stroke_order_diagram--existing_path" d="M47.95,76.39c0.45,0.45,0.8,1.23,0.81,2.36c0.01,2.38-0.09,3.88-0.09,8.22" id="Ske2168sr50" kvg:type="㇑a" transform="matrix(1,0,0,1,1396,-4)" xmlns:kvg="http://kanjivg.tagaini.net"></path><path class="stroke_order_diagram--existing_path" d="M36.14,89.45C42,88.75,52,87.62,59.8,86.69c1.16-0.14,1.87-0.13,2.45,0.02" id="Ske2168sr51" kvg:type="㇐b" transform="matrix(1,0,0,1,1396,-4)" xmlns:kvg="http://kanjivg.tagaini.net"></path><path class="stroke_order_diagram--existing_path" d="M64.25,33c1.33,1.39,1.96,3.26,2.16,6.25c1.59,24,10.71,47.13,26.01,56.58c5.11,3.16,4.49,0.59,3.82-5.54" id="Ske2168sr52" kvg:type="㇂" transform="matrix(1,0,0,1,1396,-4)" xmlns:kvg="http://kanjivg.tagaini.net"></path><path class="stroke_order_diagram--existing_path" d="M84.25,53.39c0.25,0.98,0.26,1.99-0.11,3.33c-2.51,8.91-8.76,26.53-20.33,37.75" id="Ske2168sr53" kvg:type="㇒" transform="matrix(1,0,0,1,1396,-4)" xmlns:kvg="http://kanjivg.tagaini.net"></path><path class="stroke_order_diagram--current_path" d="M82.75,28c2.69,1.85,7,6.08,8.25,9.25" id="kvg:08535-s15" kvg:type="㇔" transform="matrix(1,0,0,1,1396,-4)" xmlns:kvg="http://kanjivg.tagaini.net"></path><path class="stroke_order_diagram--current_path" d="M82.75,28c2.69,1.85,7,6.08,8.25,9.25" id="Ske2168sr55" kvg:type="㇔" transform="matrix(1,0,0,1,1396,-4)" xmlns:kvg="http://kanjivg.tagaini.net"></path><circle class="stroke_order_diagram--path_start" cx="82.75" cy="28" r="4" transform="matrix(1,0,0,1,1396,-4)"></circle></svg>