<svg class="stroke_order_diagram--svg_container_for_51866295d5dda79658000981" style="height: 100px; width: 1500px;" viewbox="0 0 1500 100"><desc>Created with Snap</desc><defs></defs><line class="stroke_order_diagram--bounding_box" x1="1" x2="1499" y1="1" y2="1"></line><line class="stroke_order_diagram--bounding_box" x1="1" x2="1" y1="1" y2="99"></line><line class="stroke_order_diagram--bounding_box" x1="1" x2="1499" y1="99" y2="99"></line><line class="stroke_order_diagram--guide_line" x1="0" x2="1500" y1="50" y2="50"></line><line class="stroke_order_diagram--guide_line" x1="50" x2="50" y1="1" y2="99"></line><line class="stroke_order_diagram--bounding_box" x1="99" x2="99" y1="1" y2="99"></line><path class="stroke_order_diagram--current_path" d="M20.5,22.77c1.29,0.53,2.8,0.63,4.1,0.53c11.9-0.96,44.4-3.96,58.12-4.03c2.16-0.01,3.45,0.25,4.53,0.51" id="kvg:0856a-s1" kvg:type="㇐" transform="matrix(1,0,0,1,-4,-4)" xmlns:kvg="http://kanjivg.tagaini.net"></path><path class="stroke_order_diagram--current_path" d="M20.5,22.77c1.29,0.53,2.8,0.63,4.1,0.53c11.9-0.96,44.4-3.96,58.12-4.03c2.16-0.01,3.45,0.25,4.53,0.51" id="Ske27i0zro" kvg:type="㇐" transform="matrix(1,0,0,1,-4,-4)" xmlns:kvg="http://kanjivg.tagaini.net"></path><circle class="stroke_order_diagram--path_start" cx="20.5" cy="22.77" r="4" transform="matrix(1,0,0,1,-4,-4)"></circle><line class="stroke_order_diagram--guide_line" x1="150" x2="150" y1="1" y2="99"></line><line class="stroke_order_diagram--bounding_box" x1="199" x2="199" y1="1" y2="99"></line><path class="stroke_order_diagram--existing_path" d="M20.5,22.77c1.29,0.53,2.8,0.63,4.1,0.53c11.9-0.96,44.4-3.96,58.12-4.03c2.16-0.01,3.45,0.25,4.53,0.51" id="Ske27i0zrr" kvg:type="㇐" transform="matrix(1,0,0,1,96,-4)" xmlns:kvg="http://kanjivg.tagaini.net"></path><path class="stroke_order_diagram--current_path" d="M37.25,12c1.58,1.27,2.09,1.65,2.26,2.43C41.1,21.72,41.55,28.35,42,31" id="kvg:0856a-s2" kvg:type="㇑a" transform="matrix(1,0,0,1,96,-4)" xmlns:kvg="http://kanjivg.tagaini.net"></path><path class="stroke_order_diagram--current_path" d="M37.25,12c1.58,1.27,2.09,1.65,2.26,2.43C41.1,21.72,41.55,28.35,42,31" id="Ske27i0zrt" kvg:type="㇑a" transform="matrix(1,0,0,1,96,-4)" xmlns:kvg="http://kanjivg.tagaini.net"></path><circle class="stroke_order_diagram--path_start" cx="37.25" cy="12" r="4" transform="matrix(1,0,0,1,96,-4)"></circle><line class="stroke_order_diagram--guide_line" x1="250" x2="250" y1="1" y2="99"></line><line class="stroke_order_diagram--bounding_box" x1="299" x2="299" y1="1" y2="99"></line><path class="stroke_order_diagram--existing_path" d="M20.5,22.77c1.29,0.53,2.8,0.63,4.1,0.53c11.9-0.96,44.4-3.96,58.12-4.03c2.16-0.01,3.45,0.25,4.53,0.51" id="Ske27i0zrw" kvg:type="㇐" transform="matrix(1,0,0,1,196,-4)" xmlns:kvg="http://kanjivg.tagaini.net"></path><path class="stroke_order_diagram--existing_path" d="M37.25,12c1.58,1.27,2.09,1.65,2.26,2.43C41.1,21.72,41.55,28.35,42,31" id="Ske27i0zrx" kvg:type="㇑a" transform="matrix(1,0,0,1,196,-4)" xmlns:kvg="http://kanjivg.tagaini.net"></path><path class="stroke_order_diagram--current_path" d="M66.53,9.75c1.27,0.91,2.1,2.29,1.69,3.63c-1.27,4.09-2.11,10.9-3.94,16.12" id="kvg:0856a-s3" kvg:type="㇑a" transform="matrix(1,0,0,1,196,-4)" xmlns:kvg="http://kanjivg.tagaini.net"></path><path class="stroke_order_diagram--current_path" d="M66.53,9.75c1.27,0.91,2.1,2.29,1.69,3.63c-1.27,4.09-2.11,10.9-3.94,16.12" id="Ske27i0zrz" kvg:type="㇑a" transform="matrix(1,0,0,1,196,-4)" xmlns:kvg="http://kanjivg.tagaini.net"></path><circle class="stroke_order_diagram--path_start" cx="66.53" cy="9.75" r="4" transform="matrix(1,0,0,1,196,-4)"></circle><line class="stroke_order_diagram--guide_line" x1="350" x2="350" y1="1" y2="99"></line><line class="stroke_order_diagram--bounding_box" x1="399" x2="399" y1="1" y2="99"></line><path class="stroke_order_diagram--existing_path" d="M20.5,22.77c1.29,0.53,2.8,0.63,4.1,0.53c11.9-0.96,44.4-3.96,58.12-4.03c2.16-0.01,3.45,0.25,4.53,0.51" id="Ske27i0zr12" kvg:type="㇐" transform="matrix(1,0,0,1,296,-4)" xmlns:kvg="http://kanjivg.tagaini.net"></path><path class="stroke_order_diagram--existing_path" d="M37.25,12c1.58,1.27,2.09,1.65,2.26,2.43C41.1,21.72,41.55,28.35,42,31" id="Ske27i0zr13" kvg:type="㇑a" transform="matrix(1,0,0,1,296,-4)" xmlns:kvg="http://kanjivg.tagaini.net"></path><path class="stroke_order_diagram--existing_path" d="M66.53,9.75c1.27,0.91,2.1,2.29,1.69,3.63c-1.27,4.09-2.11,10.9-3.94,16.12" id="Ske27i0zr14" kvg:type="㇑a" transform="matrix(1,0,0,1,296,-4)" xmlns:kvg="http://kanjivg.tagaini.net"></path><path class="stroke_order_diagram--current_path" d="M33.34,31.5c0.04,0.5,0.15,1.43-0.08,1.99c-2.9,6.99-7.2,13.4-14.76,19.04" id="kvg:0856a-s4" kvg:type="㇒" transform="matrix(1,0,0,1,296,-4)" xmlns:kvg="http://kanjivg.tagaini.net"></path><path class="stroke_order_diagram--current_path" d="M33.34,31.5c0.04,0.5,0.15,1.43-0.08,1.99c-2.9,6.99-7.2,13.4-14.76,19.04" id="Ske27i0zr16" kvg:type="㇒" transform="matrix(1,0,0,1,296,-4)" xmlns:kvg="http://kanjivg.tagaini.net"></path><circle class="stroke_order_diagram--path_start" cx="33.34" cy="31.5" r="4" transform="matrix(1,0,0,1,296,-4)"></circle><line class="stroke_order_diagram--guide_line" x1="450" x2="450" y1="1" y2="99"></line><line class="stroke_order_diagram--bounding_box" x1="499" x2="499" y1="1" y2="99"></line><path class="stroke_order_diagram--existing_path" d="M20.5,22.77c1.29,0.53,2.8,0.63,4.1,0.53c11.9-0.96,44.4-3.96,58.12-4.03c2.16-0.01,3.45,0.25,4.53,0.51" id="Ske27i0zr19" kvg:type="㇐" transform="matrix(1,0,0,1,396,-4)" xmlns:kvg="http://kanjivg.tagaini.net"></path><path class="stroke_order_diagram--existing_path" d="M37.25,12c1.58,1.27,2.09,1.65,2.26,2.43C41.1,21.72,41.55,28.35,42,31" id="Ske27i0zr1a" kvg:type="㇑a" transform="matrix(1,0,0,1,396,-4)" xmlns:kvg="http://kanjivg.tagaini.net"></path><path class="stroke_order_diagram--existing_path" d="M66.53,9.75c1.27,0.91,2.1,2.29,1.69,3.63c-1.27,4.09-2.11,10.9-3.94,16.12" id="Ske27i0zr1b" kvg:type="㇑a" transform="matrix(1,0,0,1,396,-4)" xmlns:kvg="http://kanjivg.tagaini.net"></path><path class="stroke_order_diagram--existing_path" d="M33.34,31.5c0.04,0.5,0.15,1.43-0.08,1.99c-2.9,6.99-7.2,13.4-14.76,19.04" id="Ske27i0zr1c" kvg:type="㇒" transform="matrix(1,0,0,1,396,-4)" xmlns:kvg="http://kanjivg.tagaini.net"></path><path class="stroke_order_diagram--current_path" d="M31.25,41.56c9.1-0.3,38.01-4.67,46.73-5.42c2.03-0.17,3.25,0.22,4.27,0.45" id="kvg:0856a-s5" kvg:type="㇐" transform="matrix(1,0,0,1,396,-4)" xmlns:kvg="http://kanjivg.tagaini.net"></path><path class="stroke_order_diagram--current_path" d="M31.25,41.56c9.1-0.3,38.01-4.67,46.73-5.42c2.03-0.17,3.25,0.22,4.27,0.45" id="Ske27i0zr1e" kvg:type="㇐" transform="matrix(1,0,0,1,396,-4)" xmlns:kvg="http://kanjivg.tagaini.net"></path><circle class="stroke_order_diagram--path_start" cx="31.25" cy="41.56" r="4" transform="matrix(1,0,0,1,396,-4)"></circle><line class="stroke_order_diagram--guide_line" x1="550" x2="550" y1="1" y2="99"></line><line class="stroke_order_diagram--bounding_box" x1="599" x2="599" y1="1" y2="99"></line><path class="stroke_order_diagram--existing_path" d="M20.5,22.77c1.29,0.53,2.8,0.63,4.1,0.53c11.9-0.96,44.4-3.96,58.12-4.03c2.16-0.01,3.45,0.25,4.53,0.51" id="Ske27i0zr1h" kvg:type="㇐" transform="matrix(1,0,0,1,496,-4)" xmlns:kvg="http://kanjivg.tagaini.net"></path><path class="stroke_order_diagram--existing_path" d="M37.25,12c1.58,1.27,2.09,1.65,2.26,2.43C41.1,21.72,41.55,28.35,42,31" id="Ske27i0zr1i" kvg:type="㇑a" transform="matrix(1,0,0,1,496,-4)" xmlns:kvg="http://kanjivg.tagaini.net"></path><path class="stroke_order_diagram--existing_path" d="M66.53,9.75c1.27,0.91,2.1,2.29,1.69,3.63c-1.27,4.09-2.11,10.9-3.94,16.12" id="Ske27i0zr1j" kvg:type="㇑a" transform="matrix(1,0,0,1,496,-4)" xmlns:kvg="http://kanjivg.tagaini.net"></path><path class="stroke_order_diagram--existing_path" d="M33.34,31.5c0.04,0.5,0.15,1.43-0.08,1.99c-2.9,6.99-7.2,13.4-14.76,19.04" id="Ske27i0zr1k" kvg:type="㇒" transform="matrix(1,0,0,1,496,-4)" xmlns:kvg="http://kanjivg.tagaini.net"></path><path class="stroke_order_diagram--existing_path" d="M31.25,41.56c9.1-0.3,38.01-4.67,46.73-5.42c2.03-0.17,3.25,0.22,4.27,0.45" id="Ske27i0zr1l" kvg:type="㇐" transform="matrix(1,0,0,1,496,-4)" xmlns:kvg="http://kanjivg.tagaini.net"></path><path class="stroke_order_diagram--current_path" d="M14.75,59.42c1.52,0.44,4.32,0.65,5.82,0.44C26.72,59,71.75,55.8,88.19,55.2c2.53-0.09,4.05,0.21,5.31,0.43" id="kvg:0856a-s6" kvg:type="㇐" transform="matrix(1,0,0,1,496,-4)" xmlns:kvg="http://kanjivg.tagaini.net"></path><path class="stroke_order_diagram--current_path" d="M14.75,59.42c1.52,0.44,4.32,0.65,5.82,0.44C26.72,59,71.75,55.8,88.19,55.2c2.53-0.09,4.05,0.21,5.31,0.43" id="Ske27i0zr1n" kvg:type="㇐" transform="matrix(1,0,0,1,496,-4)" xmlns:kvg="http://kanjivg.tagaini.net"></path><circle class="stroke_order_diagram--path_start" cx="14.75" cy="59.42" r="4" transform="matrix(1,0,0,1,496,-4)"></circle><line class="stroke_order_diagram--guide_line" x1="650" x2="650" y1="1" y2="99"></line><line class="stroke_order_diagram--bounding_box" x1="699" x2="699" y1="1" y2="99"></line><path class="stroke_order_diagram--existing_path" d="M20.5,22.77c1.29,0.53,2.8,0.63,4.1,0.53c11.9-0.96,44.4-3.96,58.12-4.03c2.16-0.01,3.45,0.25,4.53,0.51" id="Ske27i0zr1q" kvg:type="㇐" transform="matrix(1,0,0,1,596,-4)" xmlns:kvg="http://kanjivg.tagaini.net"></path><path class="stroke_order_diagram--existing_path" d="M37.25,12c1.58,1.27,2.09,1.65,2.26,2.43C41.1,21.72,41.55,28.35,42,31" id="Ske27i0zr1r" kvg:type="㇑a" transform="matrix(1,0,0,1,596,-4)" xmlns:kvg="http://kanjivg.tagaini.net"></path><path class="stroke_order_diagram--existing_path" d="M66.53,9.75c1.27,0.91,2.1,2.29,1.69,3.63c-1.27,4.09-2.11,10.9-3.94,16.12" id="Ske27i0zr1s" kvg:type="㇑a" transform="matrix(1,0,0,1,596,-4)" xmlns:kvg="http://kanjivg.tagaini.net"></path><path class="stroke_order_diagram--existing_path" d="M33.34,31.5c0.04,0.5,0.15,1.43-0.08,1.99c-2.9,6.99-7.2,13.4-14.76,19.04" id="Ske27i0zr1t" kvg:type="㇒" transform="matrix(1,0,0,1,596,-4)" xmlns:kvg="http://kanjivg.tagaini.net"></path><path class="stroke_order_diagram--existing_path" d="M31.25,41.56c9.1-0.3,38.01-4.67,46.73-5.42c2.03-0.17,3.25,0.22,4.27,0.45" id="Ske27i0zr1u" kvg:type="㇐" transform="matrix(1,0,0,1,596,-4)" xmlns:kvg="http://kanjivg.tagaini.net"></path><path class="stroke_order_diagram--existing_path" d="M14.75,59.42c1.52,0.44,4.32,0.65,5.82,0.44C26.72,59,71.75,55.8,88.19,55.2c2.53-0.09,4.05,0.21,5.31,0.43" id="Ske27i0zr1v" kvg:type="㇐" transform="matrix(1,0,0,1,596,-4)" xmlns:kvg="http://kanjivg.tagaini.net"></path><path class="stroke_order_diagram--current_path" d="M32.37,43.62c0.78,0.49,1.24,2.22,1.4,3.2c0.15,0.99,1.19,18.04,1.73,29.13" id="kvg:0856a-s7" kvg:type="㇑" transform="matrix(1,0,0,1,596,-4)" xmlns:kvg="http://kanjivg.tagaini.net"></path><path class="stroke_order_diagram--current_path" d="M32.37,43.62c0.78,0.49,1.24,2.22,1.4,3.2c0.15,0.99,1.19,18.04,1.73,29.13" id="Ske27i0zr1x" kvg:type="㇑" transform="matrix(1,0,0,1,596,-4)" xmlns:kvg="http://kanjivg.tagaini.net"></path><circle class="stroke_order_diagram--path_start" cx="32.37" cy="43.62" r="4" transform="matrix(1,0,0,1,596,-4)"></circle><line class="stroke_order_diagram--guide_line" x1="750" x2="750" y1="1" y2="99"></line><line class="stroke_order_diagram--bounding_box" x1="799" x2="799" y1="1" y2="99"></line><path class="stroke_order_diagram--existing_path" d="M20.5,22.77c1.29,0.53,2.8,0.63,4.1,0.53c11.9-0.96,44.4-3.96,58.12-4.03c2.16-0.01,3.45,0.25,4.53,0.51" id="Ske27i0zr20" kvg:type="㇐" transform="matrix(1,0,0,1,696,-4)" xmlns:kvg="http://kanjivg.tagaini.net"></path><path class="stroke_order_diagram--existing_path" d="M37.25,12c1.58,1.27,2.09,1.65,2.26,2.43C41.1,21.72,41.55,28.35,42,31" id="Ske27i0zr21" kvg:type="㇑a" transform="matrix(1,0,0,1,696,-4)" xmlns:kvg="http://kanjivg.tagaini.net"></path><path class="stroke_order_diagram--existing_path" d="M66.53,9.75c1.27,0.91,2.1,2.29,1.69,3.63c-1.27,4.09-2.11,10.9-3.94,16.12" id="Ske27i0zr22" kvg:type="㇑a" transform="matrix(1,0,0,1,696,-4)" xmlns:kvg="http://kanjivg.tagaini.net"></path><path class="stroke_order_diagram--existing_path" d="M33.34,31.5c0.04,0.5,0.15,1.43-0.08,1.99c-2.9,6.99-7.2,13.4-14.76,19.04" id="Ske27i0zr23" kvg:type="㇒" transform="matrix(1,0,0,1,696,-4)" xmlns:kvg="http://kanjivg.tagaini.net"></path><path class="stroke_order_diagram--existing_path" d="M31.25,41.56c9.1-0.3,38.01-4.67,46.73-5.42c2.03-0.17,3.25,0.22,4.27,0.45" id="Ske27i0zr24" kvg:type="㇐" transform="matrix(1,0,0,1,696,-4)" xmlns:kvg="http://kanjivg.tagaini.net"></path><path class="stroke_order_diagram--existing_path" d="M14.75,59.42c1.52,0.44,4.32,0.65,5.82,0.44C26.72,59,71.75,55.8,88.19,55.2c2.53-0.09,4.05,0.21,5.31,0.43" id="Ske27i0zr25" kvg:type="㇐" transform="matrix(1,0,0,1,696,-4)" xmlns:kvg="http://kanjivg.tagaini.net"></path><path class="stroke_order_diagram--existing_path" d="M32.37,43.62c0.78,0.49,1.24,2.22,1.4,3.2c0.15,0.99,1.19,18.04,1.73,29.13" id="Ske27i0zr26" kvg:type="㇑" transform="matrix(1,0,0,1,696,-4)" xmlns:kvg="http://kanjivg.tagaini.net"></path><path class="stroke_order_diagram--current_path" d="M46.1,41.56c0.65,0.69,1.38,2.29,1.45,3.34c0.45,6.35,0.95,22.35,1.21,30.04" id="kvg:0856a-s8" kvg:type="㇑" transform="matrix(1,0,0,1,696,-4)" xmlns:kvg="http://kanjivg.tagaini.net"></path><path class="stroke_order_diagram--current_path" d="M46.1,41.56c0.65,0.69,1.38,2.29,1.45,3.34c0.45,6.35,0.95,22.35,1.21,30.04" id="Ske27i0zr28" kvg:type="㇑" transform="matrix(1,0,0,1,696,-4)" xmlns:kvg="http://kanjivg.tagaini.net"></path><circle class="stroke_order_diagram--path_start" cx="46.1" cy="41.56" r="4" transform="matrix(1,0,0,1,696,-4)"></circle><line class="stroke_order_diagram--guide_line" x1="850" x2="850" y1="1" y2="99"></line><line class="stroke_order_diagram--bounding_box" x1="899" x2="899" y1="1" y2="99"></line><path class="stroke_order_diagram--existing_path" d="M20.5,22.77c1.29,0.53,2.8,0.63,4.1,0.53c11.9-0.96,44.4-3.96,58.12-4.03c2.16-0.01,3.45,0.25,4.53,0.51" id="Ske27i0zr2b" kvg:type="㇐" transform="matrix(1,0,0,1,796,-4)" xmlns:kvg="http://kanjivg.tagaini.net"></path><path class="stroke_order_diagram--existing_path" d="M37.25,12c1.58,1.27,2.09,1.65,2.26,2.43C41.1,21.72,41.55,28.35,42,31" id="Ske27i0zr2c" kvg:type="㇑a" transform="matrix(1,0,0,1,796,-4)" xmlns:kvg="http://kanjivg.tagaini.net"></path><path class="stroke_order_diagram--existing_path" d="M66.53,9.75c1.27,0.91,2.1,2.29,1.69,3.63c-1.27,4.09-2.11,10.9-3.94,16.12" id="Ske27i0zr2d" kvg:type="㇑a" transform="matrix(1,0,0,1,796,-4)" xmlns:kvg="http://kanjivg.tagaini.net"></path><path class="stroke_order_diagram--existing_path" d="M33.34,31.5c0.04,0.5,0.15,1.43-0.08,1.99c-2.9,6.99-7.2,13.4-14.76,19.04" id="Ske27i0zr2e" kvg:type="㇒" transform="matrix(1,0,0,1,796,-4)" xmlns:kvg="http://kanjivg.tagaini.net"></path><path class="stroke_order_diagram--existing_path" d="M31.25,41.56c9.1-0.3,38.01-4.67,46.73-5.42c2.03-0.17,3.25,0.22,4.27,0.45" id="Ske27i0zr2f" kvg:type="㇐" transform="matrix(1,0,0,1,796,-4)" xmlns:kvg="http://kanjivg.tagaini.net"></path><path class="stroke_order_diagram--existing_path" d="M14.75,59.42c1.52,0.44,4.32,0.65,5.82,0.44C26.72,59,71.75,55.8,88.19,55.2c2.53-0.09,4.05,0.21,5.31,0.43" id="Ske27i0zr2g" kvg:type="㇐" transform="matrix(1,0,0,1,796,-4)" xmlns:kvg="http://kanjivg.tagaini.net"></path><path class="stroke_order_diagram--existing_path" d="M32.37,43.62c0.78,0.49,1.24,2.22,1.4,3.2c0.15,0.99,1.19,18.04,1.73,29.13" id="Ske27i0zr2h" kvg:type="㇑" transform="matrix(1,0,0,1,796,-4)" xmlns:kvg="http://kanjivg.tagaini.net"></path><path class="stroke_order_diagram--existing_path" d="M46.1,41.56c0.65,0.69,1.38,2.29,1.45,3.34c0.45,6.35,0.95,22.35,1.21,30.04" id="Ske27i0zr2i" kvg:type="㇑" transform="matrix(1,0,0,1,796,-4)" xmlns:kvg="http://kanjivg.tagaini.net"></path><path class="stroke_order_diagram--current_path" d="M61.37,40.34c0.38,0.91,1.03,2.81,0.96,3.64c-0.58,6.49-1.08,16.36-1.83,29.15" id="kvg:0856a-s9" kvg:type="㇑" transform="matrix(1,0,0,1,796,-4)" xmlns:kvg="http://kanjivg.tagaini.net"></path><path class="stroke_order_diagram--current_path" d="M61.37,40.34c0.38,0.91,1.03,2.81,0.96,3.64c-0.58,6.49-1.08,16.36-1.83,29.15" id="Ske27i0zr2k" kvg:type="㇑" transform="matrix(1,0,0,1,796,-4)" xmlns:kvg="http://kanjivg.tagaini.net"></path><circle class="stroke_order_diagram--path_start" cx="61.37" cy="40.34" r="4" transform="matrix(1,0,0,1,796,-4)"></circle><line class="stroke_order_diagram--guide_line" x1="950" x2="950" y1="1" y2="99"></line><line class="stroke_order_diagram--bounding_box" x1="999" x2="999" y1="1" y2="99"></line><path class="stroke_order_diagram--existing_path" d="M20.5,22.77c1.29,0.53,2.8,0.63,4.1,0.53c11.9-0.96,44.4-3.96,58.12-4.03c2.16-0.01,3.45,0.25,4.53,0.51" id="Ske27i0zr2n" kvg:type="㇐" transform="matrix(1,0,0,1,896,-4)" xmlns:kvg="http://kanjivg.tagaini.net"></path><path class="stroke_order_diagram--existing_path" d="M37.25,12c1.58,1.27,2.09,1.65,2.26,2.43C41.1,21.72,41.55,28.35,42,31" id="Ske27i0zr2o" kvg:type="㇑a" transform="matrix(1,0,0,1,896,-4)" xmlns:kvg="http://kanjivg.tagaini.net"></path><path class="stroke_order_diagram--existing_path" d="M66.53,9.75c1.27,0.91,2.1,2.29,1.69,3.63c-1.27,4.09-2.11,10.9-3.94,16.12" id="Ske27i0zr2p" kvg:type="㇑a" transform="matrix(1,0,0,1,896,-4)" xmlns:kvg="http://kanjivg.tagaini.net"></path><path class="stroke_order_diagram--existing_path" d="M33.34,31.5c0.04,0.5,0.15,1.43-0.08,1.99c-2.9,6.99-7.2,13.4-14.76,19.04" id="Ske27i0zr2q" kvg:type="㇒" transform="matrix(1,0,0,1,896,-4)" xmlns:kvg="http://kanjivg.tagaini.net"></path><path class="stroke_order_diagram--existing_path" d="M31.25,41.56c9.1-0.3,38.01-4.67,46.73-5.42c2.03-0.17,3.25,0.22,4.27,0.45" id="Ske27i0zr2r" kvg:type="㇐" transform="matrix(1,0,0,1,896,-4)" xmlns:kvg="http://kanjivg.tagaini.net"></path><path class="stroke_order_diagram--existing_path" d="M14.75,59.42c1.52,0.44,4.32,0.65,5.82,0.44C26.72,59,71.75,55.8,88.19,55.2c2.53-0.09,4.05,0.21,5.31,0.43" id="Ske27i0zr2s" kvg:type="㇐" transform="matrix(1,0,0,1,896,-4)" xmlns:kvg="http://kanjivg.tagaini.net"></path><path class="stroke_order_diagram--existing_path" d="M32.37,43.62c0.78,0.49,1.24,2.22,1.4,3.2c0.15,0.99,1.19,18.04,1.73,29.13" id="Ske27i0zr2t" kvg:type="㇑" transform="matrix(1,0,0,1,896,-4)" xmlns:kvg="http://kanjivg.tagaini.net"></path><path class="stroke_order_diagram--existing_path" d="M46.1,41.56c0.65,0.69,1.38,2.29,1.45,3.34c0.45,6.35,0.95,22.35,1.21,30.04" id="Ske27i0zr2u" kvg:type="㇑" transform="matrix(1,0,0,1,896,-4)" xmlns:kvg="http://kanjivg.tagaini.net"></path><path class="stroke_order_diagram--existing_path" d="M61.37,40.34c0.38,0.91,1.03,2.81,0.96,3.64c-0.58,6.49-1.08,16.36-1.83,29.15" id="Ske27i0zr2v" kvg:type="㇑" transform="matrix(1,0,0,1,896,-4)" xmlns:kvg="http://kanjivg.tagaini.net"></path><path class="stroke_order_diagram--current_path" d="M74.87,39.25c0.63,1,0.71,2.33,0.46,3.95C74.5,48.5,74,60.75,72,73.13" id="kvg:0856a-s10" kvg:type="㇑" transform="matrix(1,0,0,1,896,-4)" xmlns:kvg="http://kanjivg.tagaini.net"></path><path class="stroke_order_diagram--current_path" d="M74.87,39.25c0.63,1,0.71,2.33,0.46,3.95C74.5,48.5,74,60.75,72,73.13" id="Ske27i0zr2x" kvg:type="㇑" transform="matrix(1,0,0,1,896,-4)" xmlns:kvg="http://kanjivg.tagaini.net"></path><circle class="stroke_order_diagram--path_start" cx="74.87" cy="39.25" r="4" transform="matrix(1,0,0,1,896,-4)"></circle><line class="stroke_order_diagram--guide_line" x1="1050" x2="1050" y1="1" y2="99"></line><line class="stroke_order_diagram--bounding_box" x1="1099" x2="1099" y1="1" y2="99"></line><path class="stroke_order_diagram--existing_path" d="M20.5,22.77c1.29,0.53,2.8,0.63,4.1,0.53c11.9-0.96,44.4-3.96,58.12-4.03c2.16-0.01,3.45,0.25,4.53,0.51" id="Ske27i0zr30" kvg:type="㇐" transform="matrix(1,0,0,1,996,-4)" xmlns:kvg="http://kanjivg.tagaini.net"></path><path class="stroke_order_diagram--existing_path" d="M37.25,12c1.58,1.27,2.09,1.65,2.26,2.43C41.1,21.72,41.55,28.35,42,31" id="Ske27i0zr31" kvg:type="㇑a" transform="matrix(1,0,0,1,996,-4)" xmlns:kvg="http://kanjivg.tagaini.net"></path><path class="stroke_order_diagram--existing_path" d="M66.53,9.75c1.27,0.91,2.1,2.29,1.69,3.63c-1.27,4.09-2.11,10.9-3.94,16.12" id="Ske27i0zr32" kvg:type="㇑a" transform="matrix(1,0,0,1,996,-4)" xmlns:kvg="http://kanjivg.tagaini.net"></path><path class="stroke_order_diagram--existing_path" d="M33.34,31.5c0.04,0.5,0.15,1.43-0.08,1.99c-2.9,6.99-7.2,13.4-14.76,19.04" id="Ske27i0zr33" kvg:type="㇒" transform="matrix(1,0,0,1,996,-4)" xmlns:kvg="http://kanjivg.tagaini.net"></path><path class="stroke_order_diagram--existing_path" d="M31.25,41.56c9.1-0.3,38.01-4.67,46.73-5.42c2.03-0.17,3.25,0.22,4.27,0.45" id="Ske27i0zr34" kvg:type="㇐" transform="matrix(1,0,0,1,996,-4)" xmlns:kvg="http://kanjivg.tagaini.net"></path><path class="stroke_order_diagram--existing_path" d="M14.75,59.42c1.52,0.44,4.32,0.65,5.82,0.44C26.72,59,71.75,55.8,88.19,55.2c2.53-0.09,4.05,0.21,5.31,0.43" id="Ske27i0zr35" kvg:type="㇐" transform="matrix(1,0,0,1,996,-4)" xmlns:kvg="http://kanjivg.tagaini.net"></path><path class="stroke_order_diagram--existing_path" d="M32.37,43.62c0.78,0.49,1.24,2.22,1.4,3.2c0.15,0.99,1.19,18.04,1.73,29.13" id="Ske27i0zr36" kvg:type="㇑" transform="matrix(1,0,0,1,996,-4)" xmlns:kvg="http://kanjivg.tagaini.net"></path><path class="stroke_order_diagram--existing_path" d="M46.1,41.56c0.65,0.69,1.38,2.29,1.45,3.34c0.45,6.35,0.95,22.35,1.21,30.04" id="Ske27i0zr37" kvg:type="㇑" transform="matrix(1,0,0,1,996,-4)" xmlns:kvg="http://kanjivg.tagaini.net"></path><path class="stroke_order_diagram--existing_path" d="M61.37,40.34c0.38,0.91,1.03,2.81,0.96,3.64c-0.58,6.49-1.08,16.36-1.83,29.15" id="Ske27i0zr38" kvg:type="㇑" transform="matrix(1,0,0,1,996,-4)" xmlns:kvg="http://kanjivg.tagaini.net"></path><path class="stroke_order_diagram--existing_path" d="M74.87,39.25c0.63,1,0.71,2.33,0.46,3.95C74.5,48.5,74,60.75,72,73.13" id="Ske27i0zr39" kvg:type="㇑" transform="matrix(1,0,0,1,996,-4)" xmlns:kvg="http://kanjivg.tagaini.net"></path><path class="stroke_order_diagram--current_path" d="M19.25,76.53c1.52,0.44,4.31,0.54,5.82,0.44c8.68-0.6,42.68-3.43,59.11-4.03c2.53-0.09,4.05,0.21,5.31,0.43" id="kvg:0856a-s11" kvg:type="㇐" transform="matrix(1,0,0,1,996,-4)" xmlns:kvg="http://kanjivg.tagaini.net"></path><path class="stroke_order_diagram--current_path" d="M19.25,76.53c1.52,0.44,4.31,0.54,5.82,0.44c8.68-0.6,42.68-3.43,59.11-4.03c2.53-0.09,4.05,0.21,5.31,0.43" id="Ske27i0zr3b" kvg:type="㇐" transform="matrix(1,0,0,1,996,-4)" xmlns:kvg="http://kanjivg.tagaini.net"></path><circle class="stroke_order_diagram--path_start" cx="19.25" cy="76.53" r="4" transform="matrix(1,0,0,1,996,-4)"></circle><line class="stroke_order_diagram--guide_line" x1="1150" x2="1150" y1="1" y2="99"></line><line class="stroke_order_diagram--bounding_box" x1="1199" x2="1199" y1="1" y2="99"></line><path class="stroke_order_diagram--existing_path" d="M20.5,22.77c1.29,0.53,2.8,0.63,4.1,0.53c11.9-0.96,44.4-3.96,58.12-4.03c2.16-0.01,3.45,0.25,4.53,0.51" id="Ske27i0zr3e" kvg:type="㇐" transform="matrix(1,0,0,1,1096,-4)" xmlns:kvg="http://kanjivg.tagaini.net"></path><path class="stroke_order_diagram--existing_path" d="M37.25,12c1.58,1.27,2.09,1.65,2.26,2.43C41.1,21.72,41.55,28.35,42,31" id="Ske27i0zr3f" kvg:type="㇑a" transform="matrix(1,0,0,1,1096,-4)" xmlns:kvg="http://kanjivg.tagaini.net"></path><path class="stroke_order_diagram--existing_path" d="M66.53,9.75c1.27,0.91,2.1,2.29,1.69,3.63c-1.27,4.09-2.11,10.9-3.94,16.12" id="Ske27i0zr3g" kvg:type="㇑a" transform="matrix(1,0,0,1,1096,-4)" xmlns:kvg="http://kanjivg.tagaini.net"></path><path class="stroke_order_diagram--existing_path" d="M33.34,31.5c0.04,0.5,0.15,1.43-0.08,1.99c-2.9,6.99-7.2,13.4-14.76,19.04" id="Ske27i0zr3h" kvg:type="㇒" transform="matrix(1,0,0,1,1096,-4)" xmlns:kvg="http://kanjivg.tagaini.net"></path><path class="stroke_order_diagram--existing_path" d="M31.25,41.56c9.1-0.3,38.01-4.67,46.73-5.42c2.03-0.17,3.25,0.22,4.27,0.45" id="Ske27i0zr3i" kvg:type="㇐" transform="matrix(1,0,0,1,1096,-4)" xmlns:kvg="http://kanjivg.tagaini.net"></path><path class="stroke_order_diagram--existing_path" d="M14.75,59.42c1.52,0.44,4.32,0.65,5.82,0.44C26.72,59,71.75,55.8,88.19,55.2c2.53-0.09,4.05,0.21,5.31,0.43" id="Ske27i0zr3j" kvg:type="㇐" transform="matrix(1,0,0,1,1096,-4)" xmlns:kvg="http://kanjivg.tagaini.net"></path><path class="stroke_order_diagram--existing_path" d="M32.37,43.62c0.78,0.49,1.24,2.22,1.4,3.2c0.15,0.99,1.19,18.04,1.73,29.13" id="Ske27i0zr3k" kvg:type="㇑" transform="matrix(1,0,0,1,1096,-4)" xmlns:kvg="http://kanjivg.tagaini.net"></path><path class="stroke_order_diagram--existing_path" d="M46.1,41.56c0.65,0.69,1.38,2.29,1.45,3.34c0.45,6.35,0.95,22.35,1.21,30.04" id="Ske27i0zr3l" kvg:type="㇑" transform="matrix(1,0,0,1,1096,-4)" xmlns:kvg="http://kanjivg.tagaini.net"></path><path class="stroke_order_diagram--existing_path" d="M61.37,40.34c0.38,0.91,1.03,2.81,0.96,3.64c-0.58,6.49-1.08,16.36-1.83,29.15" id="Ske27i0zr3m" kvg:type="㇑" transform="matrix(1,0,0,1,1096,-4)" xmlns:kvg="http://kanjivg.tagaini.net"></path><path class="stroke_order_diagram--existing_path" d="M74.87,39.25c0.63,1,0.71,2.33,0.46,3.95C74.5,48.5,74,60.75,72,73.13" id="Ske27i0zr3n" kvg:type="㇑" transform="matrix(1,0,0,1,1096,-4)" xmlns:kvg="http://kanjivg.tagaini.net"></path><path class="stroke_order_diagram--existing_path" d="M19.25,76.53c1.52,0.44,4.31,0.54,5.82,0.44c8.68-0.6,42.68-3.43,59.11-4.03c2.53-0.09,4.05,0.21,5.31,0.43" id="Ske27i0zr3o" kvg:type="㇐" transform="matrix(1,0,0,1,1096,-4)" xmlns:kvg="http://kanjivg.tagaini.net"></path><path class="stroke_order_diagram--current_path" d="M23.25,85.98c0,4.72-5.35,11.67-6.75,13.02" id="kvg:0856a-s12" kvg:type="㇔" transform="matrix(1,0,0,1,1096,-4)" xmlns:kvg="http://kanjivg.tagaini.net"></path><path class="stroke_order_diagram--current_path" d="M23.25,85.98c0,4.72-5.35,11.67-6.75,13.02" id="Ske27i0zr3q" kvg:type="㇔" transform="matrix(1,0,0,1,1096,-4)" xmlns:kvg="http://kanjivg.tagaini.net"></path><circle class="stroke_order_diagram--path_start" cx="23.25" cy="85.98" r="4" transform="matrix(1,0,0,1,1096,-4)"></circle><line class="stroke_order_diagram--guide_line" x1="1250" x2="1250" y1="1" y2="99"></line><line class="stroke_order_diagram--bounding_box" x1="1299" x2="1299" y1="1" y2="99"></line><path class="stroke_order_diagram--existing_path" d="M20.5,22.77c1.29,0.53,2.8,0.63,4.1,0.53c11.9-0.96,44.4-3.96,58.12-4.03c2.16-0.01,3.45,0.25,4.53,0.51" id="Ske27i0zr3t" kvg:type="㇐" transform="matrix(1,0,0,1,1196,-4)" xmlns:kvg="http://kanjivg.tagaini.net"></path><path class="stroke_order_diagram--existing_path" d="M37.25,12c1.58,1.27,2.09,1.65,2.26,2.43C41.1,21.72,41.55,28.35,42,31" id="Ske27i0zr3u" kvg:type="㇑a" transform="matrix(1,0,0,1,1196,-4)" xmlns:kvg="http://kanjivg.tagaini.net"></path><path class="stroke_order_diagram--existing_path" d="M66.53,9.75c1.27,0.91,2.1,2.29,1.69,3.63c-1.27,4.09-2.11,10.9-3.94,16.12" id="Ske27i0zr3v" kvg:type="㇑a" transform="matrix(1,0,0,1,1196,-4)" xmlns:kvg="http://kanjivg.tagaini.net"></path><path class="stroke_order_diagram--existing_path" d="M33.34,31.5c0.04,0.5,0.15,1.43-0.08,1.99c-2.9,6.99-7.2,13.4-14.76,19.04" id="Ske27i0zr3w" kvg:type="㇒" transform="matrix(1,0,0,1,1196,-4)" xmlns:kvg="http://kanjivg.tagaini.net"></path><path class="stroke_order_diagram--existing_path" d="M31.25,41.56c9.1-0.3,38.01-4.67,46.73-5.42c2.03-0.17,3.25,0.22,4.27,0.45" id="Ske27i0zr3x" kvg:type="㇐" transform="matrix(1,0,0,1,1196,-4)" xmlns:kvg="http://kanjivg.tagaini.net"></path><path class="stroke_order_diagram--existing_path" d="M14.75,59.42c1.52,0.44,4.32,0.65,5.82,0.44C26.72,59,71.75,55.8,88.19,55.2c2.53-0.09,4.05,0.21,5.31,0.43" id="Ske27i0zr3y" kvg:type="㇐" transform="matrix(1,0,0,1,1196,-4)" xmlns:kvg="http://kanjivg.tagaini.net"></path><path class="stroke_order_diagram--existing_path" d="M32.37,43.62c0.78,0.49,1.24,2.22,1.4,3.2c0.15,0.99,1.19,18.04,1.73,29.13" id="Ske27i0zr3z" kvg:type="㇑" transform="matrix(1,0,0,1,1196,-4)" xmlns:kvg="http://kanjivg.tagaini.net"></path><path class="stroke_order_diagram--existing_path" d="M46.1,41.56c0.65,0.69,1.38,2.29,1.45,3.34c0.45,6.35,0.95,22.35,1.21,30.04" id="Ske27i0zr40" kvg:type="㇑" transform="matrix(1,0,0,1,1196,-4)" xmlns:kvg="http://kanjivg.tagaini.net"></path><path class="stroke_order_diagram--existing_path" d="M61.37,40.34c0.38,0.91,1.03,2.81,0.96,3.64c-0.58,6.49-1.08,16.36-1.83,29.15" id="Ske27i0zr41" kvg:type="㇑" transform="matrix(1,0,0,1,1196,-4)" xmlns:kvg="http://kanjivg.tagaini.net"></path><path class="stroke_order_diagram--existing_path" d="M74.87,39.25c0.63,1,0.71,2.33,0.46,3.95C74.5,48.5,74,60.75,72,73.13" id="Ske27i0zr42" kvg:type="㇑" transform="matrix(1,0,0,1,1196,-4)" xmlns:kvg="http://kanjivg.tagaini.net"></path><path class="stroke_order_diagram--existing_path" d="M19.25,76.53c1.52,0.44,4.31,0.54,5.82,0.44c8.68-0.6,42.68-3.43,59.11-4.03c2.53-0.09,4.05,0.21,5.31,0.43" id="Ske27i0zr43" kvg:type="㇐" transform="matrix(1,0,0,1,1196,-4)" xmlns:kvg="http://kanjivg.tagaini.net"></path><path class="stroke_order_diagram--existing_path" d="M23.25,85.98c0,4.72-5.35,11.67-6.75,13.02" id="Ske27i0zr44" kvg:type="㇔" transform="matrix(1,0,0,1,1196,-4)" xmlns:kvg="http://kanjivg.tagaini.net"></path><path class="stroke_order_diagram--current_path" d="M38.27,83.42c2.93,2.79,5.7,10.47,6.44,14.82" id="kvg:0856a-s13" kvg:type="㇔" transform="matrix(1,0,0,1,1196,-4)" xmlns:kvg="http://kanjivg.tagaini.net"></path><path class="stroke_order_diagram--current_path" d="M38.27,83.42c2.93,2.79,5.7,10.47,6.44,14.82" id="Ske27i0zr46" kvg:type="㇔" transform="matrix(1,0,0,1,1196,-4)" xmlns:kvg="http://kanjivg.tagaini.net"></path><circle class="stroke_order_diagram--path_start" cx="38.27" cy="83.42" r="4" transform="matrix(1,0,0,1,1196,-4)"></circle><line class="stroke_order_diagram--guide_line" x1="1350" x2="1350" y1="1" y2="99"></line><line class="stroke_order_diagram--bounding_box" x1="1399" x2="1399" y1="1" y2="99"></line><path class="stroke_order_diagram--existing_path" d="M20.5,22.77c1.29,0.53,2.8,0.63,4.1,0.53c11.9-0.96,44.4-3.96,58.12-4.03c2.16-0.01,3.45,0.25,4.53,0.51" id="Ske27i0zr49" kvg:type="㇐" transform="matrix(1,0,0,1,1296,-4)" xmlns:kvg="http://kanjivg.tagaini.net"></path><path class="stroke_order_diagram--existing_path" d="M37.25,12c1.58,1.27,2.09,1.65,2.26,2.43C41.1,21.72,41.55,28.35,42,31" id="Ske27i0zr4a" kvg:type="㇑a" transform="matrix(1,0,0,1,1296,-4)" xmlns:kvg="http://kanjivg.tagaini.net"></path><path class="stroke_order_diagram--existing_path" d="M66.53,9.75c1.27,0.91,2.1,2.29,1.69,3.63c-1.27,4.09-2.11,10.9-3.94,16.12" id="Ske27i0zr4b" kvg:type="㇑a" transform="matrix(1,0,0,1,1296,-4)" xmlns:kvg="http://kanjivg.tagaini.net"></path><path class="stroke_order_diagram--existing_path" d="M33.34,31.5c0.04,0.5,0.15,1.43-0.08,1.99c-2.9,6.99-7.2,13.4-14.76,19.04" id="Ske27i0zr4c" kvg:type="㇒" transform="matrix(1,0,0,1,1296,-4)" xmlns:kvg="http://kanjivg.tagaini.net"></path><path class="stroke_order_diagram--existing_path" d="M31.25,41.56c9.1-0.3,38.01-4.67,46.73-5.42c2.03-0.17,3.25,0.22,4.27,0.45" id="Ske27i0zr4d" kvg:type="㇐" transform="matrix(1,0,0,1,1296,-4)" xmlns:kvg="http://kanjivg.tagaini.net"></path><path class="stroke_order_diagram--existing_path" d="M14.75,59.42c1.52,0.44,4.32,0.65,5.82,0.44C26.72,59,71.75,55.8,88.19,55.2c2.53-0.09,4.05,0.21,5.31,0.43" id="Ske27i0zr4e" kvg:type="㇐" transform="matrix(1,0,0,1,1296,-4)" xmlns:kvg="http://kanjivg.tagaini.net"></path><path class="stroke_order_diagram--existing_path" d="M32.37,43.62c0.78,0.49,1.24,2.22,1.4,3.2c0.15,0.99,1.19,18.04,1.73,29.13" id="Ske27i0zr4f" kvg:type="㇑" transform="matrix(1,0,0,1,1296,-4)" xmlns:kvg="http://kanjivg.tagaini.net"></path><path class="stroke_order_diagram--existing_path" d="M46.1,41.56c0.65,0.69,1.38,2.29,1.45,3.34c0.45,6.35,0.95,22.35,1.21,30.04" id="Ske27i0zr4g" kvg:type="㇑" transform="matrix(1,0,0,1,1296,-4)" xmlns:kvg="http://kanjivg.tagaini.net"></path><path class="stroke_order_diagram--existing_path" d="M61.37,40.34c0.38,0.91,1.03,2.81,0.96,3.64c-0.58,6.49-1.08,16.36-1.83,29.15" id="Ske27i0zr4h" kvg:type="㇑" transform="matrix(1,0,0,1,1296,-4)" xmlns:kvg="http://kanjivg.tagaini.net"></path><path class="stroke_order_diagram--existing_path" d="M74.87,39.25c0.63,1,0.71,2.33,0.46,3.95C74.5,48.5,74,60.75,72,73.13" id="Ske27i0zr4i" kvg:type="㇑" transform="matrix(1,0,0,1,1296,-4)" xmlns:kvg="http://kanjivg.tagaini.net"></path><path class="stroke_order_diagram--existing_path" d="M19.25,76.53c1.52,0.44,4.31,0.54,5.82,0.44c8.68-0.6,42.68-3.43,59.11-4.03c2.53-0.09,4.05,0.21,5.31,0.43" id="Ske27i0zr4j" kvg:type="㇐" transform="matrix(1,0,0,1,1296,-4)" xmlns:kvg="http://kanjivg.tagaini.net"></path><path class="stroke_order_diagram--existing_path" d="M23.25,85.98c0,4.72-5.35,11.67-6.75,13.02" id="Ske27i0zr4k" kvg:type="㇔" transform="matrix(1,0,0,1,1296,-4)" xmlns:kvg="http://kanjivg.tagaini.net"></path><path class="stroke_order_diagram--existing_path" d="M38.27,83.42c2.93,2.79,5.7,10.47,6.44,14.82" id="Ske27i0zr4l" kvg:type="㇔" transform="matrix(1,0,0,1,1296,-4)" xmlns:kvg="http://kanjivg.tagaini.net"></path><path class="stroke_order_diagram--current_path" d="M58.62,81.91c3.15,2.75,8.15,11.33,8.93,15.61" id="kvg:0856a-s14" kvg:type="㇔" transform="matrix(1,0,0,1,1296,-4)" xmlns:kvg="http://kanjivg.tagaini.net"></path><path class="stroke_order_diagram--current_path" d="M58.62,81.91c3.15,2.75,8.15,11.33,8.93,15.61" id="Ske27i0zr4n" kvg:type="㇔" transform="matrix(1,0,0,1,1296,-4)" xmlns:kvg="http://kanjivg.tagaini.net"></path><circle class="stroke_order_diagram--path_start" cx="58.62" cy="81.91" r="4" transform="matrix(1,0,0,1,1296,-4)"></circle><line class="stroke_order_diagram--guide_line" x1="1450" x2="1450" y1="1" y2="99"></line><line class="stroke_order_diagram--bounding_box" x1="1499" x2="1499" y1="1" y2="99"></line><path class="stroke_order_diagram--existing_path" d="M20.5,22.77c1.29,0.53,2.8,0.63,4.1,0.53c11.9-0.96,44.4-3.96,58.12-4.03c2.16-0.01,3.45,0.25,4.53,0.51" id="Ske27i0zr4q" kvg:type="㇐" transform="matrix(1,0,0,1,1396,-4)" xmlns:kvg="http://kanjivg.tagaini.net"></path><path class="stroke_order_diagram--existing_path" d="M37.25,12c1.58,1.27,2.09,1.65,2.26,2.43C41.1,21.72,41.55,28.35,42,31" id="Ske27i0zr4r" kvg:type="㇑a" transform="matrix(1,0,0,1,1396,-4)" xmlns:kvg="http://kanjivg.tagaini.net"></path><path class="stroke_order_diagram--existing_path" d="M66.53,9.75c1.27,0.91,2.1,2.29,1.69,3.63c-1.27,4.09-2.11,10.9-3.94,16.12" id="Ske27i0zr4s" kvg:type="㇑a" transform="matrix(1,0,0,1,1396,-4)" xmlns:kvg="http://kanjivg.tagaini.net"></path><path class="stroke_order_diagram--existing_path" d="M33.34,31.5c0.04,0.5,0.15,1.43-0.08,1.99c-2.9,6.99-7.2,13.4-14.76,19.04" id="Ske27i0zr4t" kvg:type="㇒" transform="matrix(1,0,0,1,1396,-4)" xmlns:kvg="http://kanjivg.tagaini.net"></path><path class="stroke_order_diagram--existing_path" d="M31.25,41.56c9.1-0.3,38.01-4.67,46.73-5.42c2.03-0.17,3.25,0.22,4.27,0.45" id="Ske27i0zr4u" kvg:type="㇐" transform="matrix(1,0,0,1,1396,-4)" xmlns:kvg="http://kanjivg.tagaini.net"></path><path class="stroke_order_diagram--existing_path" d="M14.75,59.42c1.52,0.44,4.32,0.65,5.82,0.44C26.72,59,71.75,55.8,88.19,55.2c2.53-0.09,4.05,0.21,5.31,0.43" id="Ske27i0zr4v" kvg:type="㇐" transform="matrix(1,0,0,1,1396,-4)" xmlns:kvg="http://kanjivg.tagaini.net"></path><path class="stroke_order_diagram--existing_path" d="M32.37,43.62c0.78,0.49,1.24,2.22,1.4,3.2c0.15,0.99,1.19,18.04,1.73,29.13" id="Ske27i0zr4w" kvg:type="㇑" transform="matrix(1,0,0,1,1396,-4)" xmlns:kvg="http://kanjivg.tagaini.net"></path><path class="stroke_order_diagram--existing_path" d="M46.1,41.56c0.65,0.69,1.38,2.29,1.45,3.34c0.45,6.35,0.95,22.35,1.21,30.04" id="Ske27i0zr4x" kvg:type="㇑" transform="matrix(1,0,0,1,1396,-4)" xmlns:kvg="http://kanjivg.tagaini.net"></path><path class="stroke_order_diagram--existing_path" d="M61.37,40.34c0.38,0.91,1.03,2.81,0.96,3.64c-0.58,6.49-1.08,16.36-1.83,29.15" id="Ske27i0zr4y" kvg:type="㇑" transform="matrix(1,0,0,1,1396,-4)" xmlns:kvg="http://kanjivg.tagaini.net"></path><path class="stroke_order_diagram--existing_path" d="M74.87,39.25c0.63,1,0.71,2.33,0.46,3.95C74.5,48.5,74,60.75,72,73.13" id="Ske27i0zr4z" kvg:type="㇑" transform="matrix(1,0,0,1,1396,-4)" xmlns:kvg="http://kanjivg.tagaini.net"></path><path class="stroke_order_diagram--existing_path" d="M19.25,76.53c1.52,0.44,4.31,0.54,5.82,0.44c8.68-0.6,42.68-3.43,59.11-4.03c2.53-0.09,4.05,0.21,5.31,0.43" id="Ske27i0zr50" kvg:type="㇐" transform="matrix(1,0,0,1,1396,-4)" xmlns:kvg="http://kanjivg.tagaini.net"></path><path class="stroke_order_diagram--existing_path" d="M23.25,85.98c0,4.72-5.35,11.67-6.75,13.02" id="Ske27i0zr51" kvg:type="㇔" transform="matrix(1,0,0,1,1396,-4)" xmlns:kvg="http://kanjivg.tagaini.net"></path><path class="stroke_order_diagram--existing_path" d="M38.27,83.42c2.93,2.79,5.7,10.47,6.44,14.82" id="Ske27i0zr52" kvg:type="㇔" transform="matrix(1,0,0,1,1396,-4)" xmlns:kvg="http://kanjivg.tagaini.net"></path><path class="stroke_order_diagram--existing_path" d="M58.62,81.91c3.15,2.75,8.15,11.33,8.93,15.61" id="Ske27i0zr53" kvg:type="㇔" transform="matrix(1,0,0,1,1396,-4)" xmlns:kvg="http://kanjivg.tagaini.net"></path><path class="stroke_order_diagram--current_path" d="M78.52,80.61c4.25,2.97,10.98,12.21,12.04,16.83" id="kvg:0856a-s15" kvg:type="㇔" transform="matrix(1,0,0,1,1396,-4)" xmlns:kvg="http://kanjivg.tagaini.net"></path><path class="stroke_order_diagram--current_path" d="M78.52,80.61c4.25,2.97,10.98,12.21,12.04,16.83" id="Ske27i0zr55" kvg:type="㇔" transform="matrix(1,0,0,1,1396,-4)" xmlns:kvg="http://kanjivg.tagaini.net"></path><circle class="stroke_order_diagram--path_start" cx="78.52" cy="80.61" r="4" transform="matrix(1,0,0,1,1396,-4)"></circle></svg>