<svg class="stroke_order_diagram--svg_container_for_518662bad5dda796580014f1" style="height: 100px; width: 1000px;" viewbox="0 0 1000 100"><desc>Created with Snap</desc><defs></defs><line class="stroke_order_diagram--bounding_box" x1="1" x2="999" y1="1" y2="1"></line><line class="stroke_order_diagram--bounding_box" x1="1" x2="1" y1="1" y2="99"></line><line class="stroke_order_diagram--bounding_box" x1="1" x2="999" y1="99" y2="99"></line><line class="stroke_order_diagram--guide_line" x1="0" x2="1000" y1="50" y2="50"></line><line class="stroke_order_diagram--guide_line" x1="50" x2="50" y1="1" y2="99"></line><line class="stroke_order_diagram--bounding_box" x1="99" x2="99" y1="1" y2="99"></line><path class="stroke_order_diagram--current_path" d="M12.76,34.4c0.46,0.51,1.02,1.4,1.12,2.06c0.72,4.83,1.54,12.59,2.52,20.05c0.19,1.48,0.4,2.95,0.6,4.38" id="kvg:08693-s1" kvg:type="㇑" transform="matrix(1,0,0,1,-4,-4)" xmlns:kvg="http://kanjivg.tagaini.net"></path><path class="stroke_order_diagram--current_path" d="M12.76,34.4c0.46,0.51,1.02,1.4,1.12,2.06c0.72,4.83,1.54,12.59,2.52,20.05c0.19,1.48,0.4,2.95,0.6,4.38" id="Ske2x6xsrj" kvg:type="㇑" transform="matrix(1,0,0,1,-4,-4)" xmlns:kvg="http://kanjivg.tagaini.net"></path><circle class="stroke_order_diagram--path_start" cx="12.76" cy="34.4" r="4" transform="matrix(1,0,0,1,-4,-4)"></circle><line class="stroke_order_diagram--guide_line" x1="150" x2="150" y1="1" y2="99"></line><line class="stroke_order_diagram--bounding_box" x1="199" x2="199" y1="1" y2="99"></line><path class="stroke_order_diagram--existing_path" d="M12.76,34.4c0.46,0.51,1.02,1.4,1.12,2.06c0.72,4.83,1.54,12.59,2.52,20.05c0.19,1.48,0.4,2.95,0.6,4.38" id="Ske2x6xsrm" kvg:type="㇑" transform="matrix(1,0,0,1,96,-4)" xmlns:kvg="http://kanjivg.tagaini.net"></path><path class="stroke_order_diagram--current_path" d="M14.22,36.48c0.96-0.14,2.09-0.29,3.32-0.45c7.64-1.01,19.49-2.43,23.81-2.75c1.96-0.14,2.86,1.38,2.62,2.83c-0.67,3.97-1.85,8.51-2.99,14.39c-0.29,1.48-0.57,3.06-0.85,4.72" id="kvg:08693-s2" kvg:type="㇕b" transform="matrix(1,0,0,1,96,-4)" xmlns:kvg="http://kanjivg.tagaini.net"></path><path class="stroke_order_diagram--current_path" d="M14.22,36.48c0.96-0.14,2.09-0.29,3.32-0.45c7.64-1.01,19.49-2.43,23.81-2.75c1.96-0.14,2.86,1.38,2.62,2.83c-0.67,3.97-1.85,8.51-2.99,14.39c-0.29,1.48-0.57,3.06-0.85,4.72" id="Ske2x6xsro" kvg:type="㇕b" transform="matrix(1,0,0,1,96,-4)" xmlns:kvg="http://kanjivg.tagaini.net"></path><circle class="stroke_order_diagram--path_start" cx="14.22" cy="36.48" r="4" transform="matrix(1,0,0,1,96,-4)"></circle><line class="stroke_order_diagram--guide_line" x1="250" x2="250" y1="1" y2="99"></line><line class="stroke_order_diagram--bounding_box" x1="299" x2="299" y1="1" y2="99"></line><path class="stroke_order_diagram--existing_path" d="M12.76,34.4c0.46,0.51,1.02,1.4,1.12,2.06c0.72,4.83,1.54,12.59,2.52,20.05c0.19,1.48,0.4,2.95,0.6,4.38" id="Ske2x6xsrr" kvg:type="㇑" transform="matrix(1,0,0,1,196,-4)" xmlns:kvg="http://kanjivg.tagaini.net"></path><path class="stroke_order_diagram--existing_path" d="M14.22,36.48c0.96-0.14,2.09-0.29,3.32-0.45c7.64-1.01,19.49-2.43,23.81-2.75c1.96-0.14,2.86,1.38,2.62,2.83c-0.67,3.97-1.85,8.51-2.99,14.39c-0.29,1.48-0.57,3.06-0.85,4.72" id="Ske2x6xsrs" kvg:type="㇕b" transform="matrix(1,0,0,1,196,-4)" xmlns:kvg="http://kanjivg.tagaini.net"></path><path class="stroke_order_diagram--current_path" d="M17.26,57.93c4.75-0.83,14.07-1.68,21.55-2.48c1.31-0.14,2.55-0.28,3.71-0.41" id="kvg:08693-s3" kvg:type="㇐b" transform="matrix(1,0,0,1,196,-4)" xmlns:kvg="http://kanjivg.tagaini.net"></path><path class="stroke_order_diagram--current_path" d="M17.26,57.93c4.75-0.83,14.07-1.68,21.55-2.48c1.31-0.14,2.55-0.28,3.71-0.41" id="Ske2x6xsru" kvg:type="㇐b" transform="matrix(1,0,0,1,196,-4)" xmlns:kvg="http://kanjivg.tagaini.net"></path><circle class="stroke_order_diagram--path_start" cx="17.26" cy="57.93" r="4" transform="matrix(1,0,0,1,196,-4)"></circle><line class="stroke_order_diagram--guide_line" x1="350" x2="350" y1="1" y2="99"></line><line class="stroke_order_diagram--bounding_box" x1="399" x2="399" y1="1" y2="99"></line><path class="stroke_order_diagram--existing_path" d="M12.76,34.4c0.46,0.51,1.02,1.4,1.12,2.06c0.72,4.83,1.54,12.59,2.52,20.05c0.19,1.48,0.4,2.95,0.6,4.38" id="Ske2x6xsrx" kvg:type="㇑" transform="matrix(1,0,0,1,296,-4)" xmlns:kvg="http://kanjivg.tagaini.net"></path><path class="stroke_order_diagram--existing_path" d="M14.22,36.48c0.96-0.14,2.09-0.29,3.32-0.45c7.64-1.01,19.49-2.43,23.81-2.75c1.96-0.14,2.86,1.38,2.62,2.83c-0.67,3.97-1.85,8.51-2.99,14.39c-0.29,1.48-0.57,3.06-0.85,4.72" id="Ske2x6xsry" kvg:type="㇕b" transform="matrix(1,0,0,1,296,-4)" xmlns:kvg="http://kanjivg.tagaini.net"></path><path class="stroke_order_diagram--existing_path" d="M17.26,57.93c4.75-0.83,14.07-1.68,21.55-2.48c1.31-0.14,2.55-0.28,3.71-0.41" id="Ske2x6xsrz" kvg:type="㇐b" transform="matrix(1,0,0,1,296,-4)" xmlns:kvg="http://kanjivg.tagaini.net"></path><path class="stroke_order_diagram--current_path" d="M25.92,16.25c1.08,1,2.26,2.75,2.26,4.47c0,4.21-0.15,35.25-0.19,51.78c0,2.27-0.01,4.26-0.01,5.88" id="kvg:08693-s4" kvg:type="㇑a" transform="matrix(1,0,0,1,296,-4)" xmlns:kvg="http://kanjivg.tagaini.net"></path><path class="stroke_order_diagram--current_path" d="M25.92,16.25c1.08,1,2.26,2.75,2.26,4.47c0,4.21-0.15,35.25-0.19,51.78c0,2.27-0.01,4.26-0.01,5.88" id="Ske2x6xsr11" kvg:type="㇑a" transform="matrix(1,0,0,1,296,-4)" xmlns:kvg="http://kanjivg.tagaini.net"></path><circle class="stroke_order_diagram--path_start" cx="25.92" cy="16.25" r="4" transform="matrix(1,0,0,1,296,-4)"></circle><line class="stroke_order_diagram--guide_line" x1="450" x2="450" y1="1" y2="99"></line><line class="stroke_order_diagram--bounding_box" x1="499" x2="499" y1="1" y2="99"></line><path class="stroke_order_diagram--existing_path" d="M12.76,34.4c0.46,0.51,1.02,1.4,1.12,2.06c0.72,4.83,1.54,12.59,2.52,20.05c0.19,1.48,0.4,2.95,0.6,4.38" id="Ske2x6xsr14" kvg:type="㇑" transform="matrix(1,0,0,1,396,-4)" xmlns:kvg="http://kanjivg.tagaini.net"></path><path class="stroke_order_diagram--existing_path" d="M14.22,36.48c0.96-0.14,2.09-0.29,3.32-0.45c7.64-1.01,19.49-2.43,23.81-2.75c1.96-0.14,2.86,1.38,2.62,2.83c-0.67,3.97-1.85,8.51-2.99,14.39c-0.29,1.48-0.57,3.06-0.85,4.72" id="Ske2x6xsr15" kvg:type="㇕b" transform="matrix(1,0,0,1,396,-4)" xmlns:kvg="http://kanjivg.tagaini.net"></path><path class="stroke_order_diagram--existing_path" d="M17.26,57.93c4.75-0.83,14.07-1.68,21.55-2.48c1.31-0.14,2.55-0.28,3.71-0.41" id="Ske2x6xsr16" kvg:type="㇐b" transform="matrix(1,0,0,1,396,-4)" xmlns:kvg="http://kanjivg.tagaini.net"></path><path class="stroke_order_diagram--existing_path" d="M25.92,16.25c1.08,1,2.26,2.75,2.26,4.47c0,4.21-0.15,35.25-0.19,51.78c0,2.27-0.01,4.26-0.01,5.88" id="Ske2x6xsr17" kvg:type="㇑a" transform="matrix(1,0,0,1,396,-4)" xmlns:kvg="http://kanjivg.tagaini.net"></path><path class="stroke_order_diagram--current_path" d="M13.57,84.78c0.55,1.14,2.26,1.1,2.82,0.81c0.55-0.28,22.58-12.44,26-14.72" id="kvg:08693-s5" kvg:type="㇀" transform="matrix(1,0,0,1,396,-4)" xmlns:kvg="http://kanjivg.tagaini.net"></path><path class="stroke_order_diagram--current_path" d="M13.57,84.78c0.55,1.14,2.26,1.1,2.82,0.81c0.55-0.28,22.58-12.44,26-14.72" id="Ske2x6xsr19" kvg:type="㇀" transform="matrix(1,0,0,1,396,-4)" xmlns:kvg="http://kanjivg.tagaini.net"></path><circle class="stroke_order_diagram--path_start" cx="13.57" cy="84.78" r="4" transform="matrix(1,0,0,1,396,-4)"></circle><line class="stroke_order_diagram--guide_line" x1="550" x2="550" y1="1" y2="99"></line><line class="stroke_order_diagram--bounding_box" x1="599" x2="599" y1="1" y2="99"></line><path class="stroke_order_diagram--existing_path" d="M12.76,34.4c0.46,0.51,1.02,1.4,1.12,2.06c0.72,4.83,1.54,12.59,2.52,20.05c0.19,1.48,0.4,2.95,0.6,4.38" id="Ske2x6xsr1c" kvg:type="㇑" transform="matrix(1,0,0,1,496,-4)" xmlns:kvg="http://kanjivg.tagaini.net"></path><path class="stroke_order_diagram--existing_path" d="M14.22,36.48c0.96-0.14,2.09-0.29,3.32-0.45c7.64-1.01,19.49-2.43,23.81-2.75c1.96-0.14,2.86,1.38,2.62,2.83c-0.67,3.97-1.85,8.51-2.99,14.39c-0.29,1.48-0.57,3.06-0.85,4.72" id="Ske2x6xsr1d" kvg:type="㇕b" transform="matrix(1,0,0,1,496,-4)" xmlns:kvg="http://kanjivg.tagaini.net"></path><path class="stroke_order_diagram--existing_path" d="M17.26,57.93c4.75-0.83,14.07-1.68,21.55-2.48c1.31-0.14,2.55-0.28,3.71-0.41" id="Ske2x6xsr1e" kvg:type="㇐b" transform="matrix(1,0,0,1,496,-4)" xmlns:kvg="http://kanjivg.tagaini.net"></path><path class="stroke_order_diagram--existing_path" d="M25.92,16.25c1.08,1,2.26,2.75,2.26,4.47c0,4.21-0.15,35.25-0.19,51.78c0,2.27-0.01,4.26-0.01,5.88" id="Ske2x6xsr1f" kvg:type="㇑a" transform="matrix(1,0,0,1,496,-4)" xmlns:kvg="http://kanjivg.tagaini.net"></path><path class="stroke_order_diagram--existing_path" d="M13.57,84.78c0.55,1.14,2.26,1.1,2.82,0.81c0.55-0.28,22.58-12.44,26-14.72" id="Ske2x6xsr1g" kvg:type="㇀" transform="matrix(1,0,0,1,496,-4)" xmlns:kvg="http://kanjivg.tagaini.net"></path><path class="stroke_order_diagram--current_path" d="M37.5,63c2.84,2.72,7.35,11.17,8.06,15.39" id="kvg:08693-s6" kvg:type="㇔" transform="matrix(1,0,0,1,496,-4)" xmlns:kvg="http://kanjivg.tagaini.net"></path><path class="stroke_order_diagram--current_path" d="M37.5,63c2.84,2.72,7.35,11.17,8.06,15.39" id="Ske2x6xsr1i" kvg:type="㇔" transform="matrix(1,0,0,1,496,-4)" xmlns:kvg="http://kanjivg.tagaini.net"></path><circle class="stroke_order_diagram--path_start" cx="37.5" cy="63" r="4" transform="matrix(1,0,0,1,496,-4)"></circle><line class="stroke_order_diagram--guide_line" x1="650" x2="650" y1="1" y2="99"></line><line class="stroke_order_diagram--bounding_box" x1="699" x2="699" y1="1" y2="99"></line><path class="stroke_order_diagram--existing_path" d="M12.76,34.4c0.46,0.51,1.02,1.4,1.12,2.06c0.72,4.83,1.54,12.59,2.52,20.05c0.19,1.48,0.4,2.95,0.6,4.38" id="Ske2x6xsr1l" kvg:type="㇑" transform="matrix(1,0,0,1,596,-4)" xmlns:kvg="http://kanjivg.tagaini.net"></path><path class="stroke_order_diagram--existing_path" d="M14.22,36.48c0.96-0.14,2.09-0.29,3.32-0.45c7.64-1.01,19.49-2.43,23.81-2.75c1.96-0.14,2.86,1.38,2.62,2.83c-0.67,3.97-1.85,8.51-2.99,14.39c-0.29,1.48-0.57,3.06-0.85,4.72" id="Ske2x6xsr1m" kvg:type="㇕b" transform="matrix(1,0,0,1,596,-4)" xmlns:kvg="http://kanjivg.tagaini.net"></path><path class="stroke_order_diagram--existing_path" d="M17.26,57.93c4.75-0.83,14.07-1.68,21.55-2.48c1.31-0.14,2.55-0.28,3.71-0.41" id="Ske2x6xsr1n" kvg:type="㇐b" transform="matrix(1,0,0,1,596,-4)" xmlns:kvg="http://kanjivg.tagaini.net"></path><path class="stroke_order_diagram--existing_path" d="M25.92,16.25c1.08,1,2.26,2.75,2.26,4.47c0,4.21-0.15,35.25-0.19,51.78c0,2.27-0.01,4.26-0.01,5.88" id="Ske2x6xsr1o" kvg:type="㇑a" transform="matrix(1,0,0,1,596,-4)" xmlns:kvg="http://kanjivg.tagaini.net"></path><path class="stroke_order_diagram--existing_path" d="M13.57,84.78c0.55,1.14,2.26,1.1,2.82,0.81c0.55-0.28,22.58-12.44,26-14.72" id="Ske2x6xsr1p" kvg:type="㇀" transform="matrix(1,0,0,1,596,-4)" xmlns:kvg="http://kanjivg.tagaini.net"></path><path class="stroke_order_diagram--existing_path" d="M37.5,63c2.84,2.72,7.35,11.17,8.06,15.39" id="Ske2x6xsr1q" kvg:type="㇔" transform="matrix(1,0,0,1,596,-4)" xmlns:kvg="http://kanjivg.tagaini.net"></path><path class="stroke_order_diagram--current_path" d="M50.35,20.13c1.29,0.66,2.65,1.16,3.72,0.98c5.17-0.86,16.25-3.3,18.4-3.79c2.15-0.49,3.06,0.74,2.65,2.15c-0.61,2.12-1.66,8.27-2.38,12.82c-0.31,1.95-0.56,3.6-0.7,4.52" id="kvg:08693-s7" kvg:type="㇕c" transform="matrix(1,0,0,1,596,-4)" xmlns:kvg="http://kanjivg.tagaini.net"></path><path class="stroke_order_diagram--current_path" d="M50.35,20.13c1.29,0.66,2.65,1.16,3.72,0.98c5.17-0.86,16.25-3.3,18.4-3.79c2.15-0.49,3.06,0.74,2.65,2.15c-0.61,2.12-1.66,8.27-2.38,12.82c-0.31,1.95-0.56,3.6-0.7,4.52" id="Ske2x6xsr1s" kvg:type="㇕c" transform="matrix(1,0,0,1,596,-4)" xmlns:kvg="http://kanjivg.tagaini.net"></path><circle class="stroke_order_diagram--path_start" cx="50.35" cy="20.13" r="4" transform="matrix(1,0,0,1,596,-4)"></circle><line class="stroke_order_diagram--guide_line" x1="750" x2="750" y1="1" y2="99"></line><line class="stroke_order_diagram--bounding_box" x1="799" x2="799" y1="1" y2="99"></line><path class="stroke_order_diagram--existing_path" d="M12.76,34.4c0.46,0.51,1.02,1.4,1.12,2.06c0.72,4.83,1.54,12.59,2.52,20.05c0.19,1.48,0.4,2.95,0.6,4.38" id="Ske2x6xsr1v" kvg:type="㇑" transform="matrix(1,0,0,1,696,-4)" xmlns:kvg="http://kanjivg.tagaini.net"></path><path class="stroke_order_diagram--existing_path" d="M14.22,36.48c0.96-0.14,2.09-0.29,3.32-0.45c7.64-1.01,19.49-2.43,23.81-2.75c1.96-0.14,2.86,1.38,2.62,2.83c-0.67,3.97-1.85,8.51-2.99,14.39c-0.29,1.48-0.57,3.06-0.85,4.72" id="Ske2x6xsr1w" kvg:type="㇕b" transform="matrix(1,0,0,1,696,-4)" xmlns:kvg="http://kanjivg.tagaini.net"></path><path class="stroke_order_diagram--existing_path" d="M17.26,57.93c4.75-0.83,14.07-1.68,21.55-2.48c1.31-0.14,2.55-0.28,3.71-0.41" id="Ske2x6xsr1x" kvg:type="㇐b" transform="matrix(1,0,0,1,696,-4)" xmlns:kvg="http://kanjivg.tagaini.net"></path><path class="stroke_order_diagram--existing_path" d="M25.92,16.25c1.08,1,2.26,2.75,2.26,4.47c0,4.21-0.15,35.25-0.19,51.78c0,2.27-0.01,4.26-0.01,5.88" id="Ske2x6xsr1y" kvg:type="㇑a" transform="matrix(1,0,0,1,696,-4)" xmlns:kvg="http://kanjivg.tagaini.net"></path><path class="stroke_order_diagram--existing_path" d="M13.57,84.78c0.55,1.14,2.26,1.1,2.82,0.81c0.55-0.28,22.58-12.44,26-14.72" id="Ske2x6xsr1z" kvg:type="㇀" transform="matrix(1,0,0,1,696,-4)" xmlns:kvg="http://kanjivg.tagaini.net"></path><path class="stroke_order_diagram--existing_path" d="M37.5,63c2.84,2.72,7.35,11.17,8.06,15.39" id="Ske2x6xsr20" kvg:type="㇔" transform="matrix(1,0,0,1,696,-4)" xmlns:kvg="http://kanjivg.tagaini.net"></path><path class="stroke_order_diagram--existing_path" d="M50.35,20.13c1.29,0.66,2.65,1.16,3.72,0.98c5.17-0.86,16.25-3.3,18.4-3.79c2.15-0.49,3.06,0.74,2.65,2.15c-0.61,2.12-1.66,8.27-2.38,12.82c-0.31,1.95-0.56,3.6-0.7,4.52" id="Ske2x6xsr21" kvg:type="㇕c" transform="matrix(1,0,0,1,696,-4)" xmlns:kvg="http://kanjivg.tagaini.net"></path><path class="stroke_order_diagram--current_path" d="M57.75,38.75c2.18,0,11.09-1.5,12.64-1.5s3.11-0.5,4.36-0.5" id="kvg:08693-s8" kvg:type="㇐" transform="matrix(1,0,0,1,696,-4)" xmlns:kvg="http://kanjivg.tagaini.net"></path><path class="stroke_order_diagram--current_path" d="M57.75,38.75c2.18,0,11.09-1.5,12.64-1.5s3.11-0.5,4.36-0.5" id="Ske2x6xsr23" kvg:type="㇐" transform="matrix(1,0,0,1,696,-4)" xmlns:kvg="http://kanjivg.tagaini.net"></path><circle class="stroke_order_diagram--path_start" cx="57.75" cy="38.75" r="4" transform="matrix(1,0,0,1,696,-4)"></circle><line class="stroke_order_diagram--guide_line" x1="850" x2="850" y1="1" y2="99"></line><line class="stroke_order_diagram--bounding_box" x1="899" x2="899" y1="1" y2="99"></line><path class="stroke_order_diagram--existing_path" d="M12.76,34.4c0.46,0.51,1.02,1.4,1.12,2.06c0.72,4.83,1.54,12.59,2.52,20.05c0.19,1.48,0.4,2.95,0.6,4.38" id="Ske2x6xsr26" kvg:type="㇑" transform="matrix(1,0,0,1,796,-4)" xmlns:kvg="http://kanjivg.tagaini.net"></path><path class="stroke_order_diagram--existing_path" d="M14.22,36.48c0.96-0.14,2.09-0.29,3.32-0.45c7.64-1.01,19.49-2.43,23.81-2.75c1.96-0.14,2.86,1.38,2.62,2.83c-0.67,3.97-1.85,8.51-2.99,14.39c-0.29,1.48-0.57,3.06-0.85,4.72" id="Ske2x6xsr27" kvg:type="㇕b" transform="matrix(1,0,0,1,796,-4)" xmlns:kvg="http://kanjivg.tagaini.net"></path><path class="stroke_order_diagram--existing_path" d="M17.26,57.93c4.75-0.83,14.07-1.68,21.55-2.48c1.31-0.14,2.55-0.28,3.71-0.41" id="Ske2x6xsr28" kvg:type="㇐b" transform="matrix(1,0,0,1,796,-4)" xmlns:kvg="http://kanjivg.tagaini.net"></path><path class="stroke_order_diagram--existing_path" d="M25.92,16.25c1.08,1,2.26,2.75,2.26,4.47c0,4.21-0.15,35.25-0.19,51.78c0,2.27-0.01,4.26-0.01,5.88" id="Ske2x6xsr29" kvg:type="㇑a" transform="matrix(1,0,0,1,796,-4)" xmlns:kvg="http://kanjivg.tagaini.net"></path><path class="stroke_order_diagram--existing_path" d="M13.57,84.78c0.55,1.14,2.26,1.1,2.82,0.81c0.55-0.28,22.58-12.44,26-14.72" id="Ske2x6xsr2a" kvg:type="㇀" transform="matrix(1,0,0,1,796,-4)" xmlns:kvg="http://kanjivg.tagaini.net"></path><path class="stroke_order_diagram--existing_path" d="M37.5,63c2.84,2.72,7.35,11.17,8.06,15.39" id="Ske2x6xsr2b" kvg:type="㇔" transform="matrix(1,0,0,1,796,-4)" xmlns:kvg="http://kanjivg.tagaini.net"></path><path class="stroke_order_diagram--existing_path" d="M50.35,20.13c1.29,0.66,2.65,1.16,3.72,0.98c5.17-0.86,16.25-3.3,18.4-3.79c2.15-0.49,3.06,0.74,2.65,2.15c-0.61,2.12-1.66,8.27-2.38,12.82c-0.31,1.95-0.56,3.6-0.7,4.52" id="Ske2x6xsr2c" kvg:type="㇕c" transform="matrix(1,0,0,1,796,-4)" xmlns:kvg="http://kanjivg.tagaini.net"></path><path class="stroke_order_diagram--existing_path" d="M57.75,38.75c2.18,0,11.09-1.5,12.64-1.5s3.11-0.5,4.36-0.5" id="Ske2x6xsr2d" kvg:type="㇐" transform="matrix(1,0,0,1,796,-4)" xmlns:kvg="http://kanjivg.tagaini.net"></path><path class="stroke_order_diagram--current_path" d="M56.09,36.73c0.43,0.97,0.55,1.86,0.43,3.14c-0.27,2.89-4.91,15.82-5.05,16.79c-0.14,0.96,1,2.38,2.14,1.9s14.52-2.38,16.79-3.1c2.28-0.72,3.44,1.39,3.27,3.12c-0.85,8.93-4.57,22.77-8.04,31.45c-3.38,8.48-7.19,1.45-8.76-0.96" id="kvg:08693-s9" kvg:type="㇉" transform="matrix(1,0,0,1,796,-4)" xmlns:kvg="http://kanjivg.tagaini.net"></path><path class="stroke_order_diagram--current_path" d="M56.09,36.73c0.43,0.97,0.55,1.86,0.43,3.14c-0.27,2.89-4.91,15.82-5.05,16.79c-0.14,0.96,1,2.38,2.14,1.9s14.52-2.38,16.79-3.1c2.28-0.72,3.44,1.39,3.27,3.12c-0.85,8.93-4.57,22.77-8.04,31.45c-3.38,8.48-7.19,1.45-8.76-0.96" id="Ske2x6xsr2f" kvg:type="㇉" transform="matrix(1,0,0,1,796,-4)" xmlns:kvg="http://kanjivg.tagaini.net"></path><circle class="stroke_order_diagram--path_start" cx="56.09" cy="36.73" r="4" transform="matrix(1,0,0,1,796,-4)"></circle><line class="stroke_order_diagram--guide_line" x1="950" x2="950" y1="1" y2="99"></line><line class="stroke_order_diagram--bounding_box" x1="999" x2="999" y1="1" y2="99"></line><path class="stroke_order_diagram--existing_path" d="M12.76,34.4c0.46,0.51,1.02,1.4,1.12,2.06c0.72,4.83,1.54,12.59,2.52,20.05c0.19,1.48,0.4,2.95,0.6,4.38" id="Ske2x6xsr2i" kvg:type="㇑" transform="matrix(1,0,0,1,896,-4)" xmlns:kvg="http://kanjivg.tagaini.net"></path><path class="stroke_order_diagram--existing_path" d="M14.22,36.48c0.96-0.14,2.09-0.29,3.32-0.45c7.64-1.01,19.49-2.43,23.81-2.75c1.96-0.14,2.86,1.38,2.62,2.83c-0.67,3.97-1.85,8.51-2.99,14.39c-0.29,1.48-0.57,3.06-0.85,4.72" id="Ske2x6xsr2j" kvg:type="㇕b" transform="matrix(1,0,0,1,896,-4)" xmlns:kvg="http://kanjivg.tagaini.net"></path><path class="stroke_order_diagram--existing_path" d="M17.26,57.93c4.75-0.83,14.07-1.68,21.55-2.48c1.31-0.14,2.55-0.28,3.71-0.41" id="Ske2x6xsr2k" kvg:type="㇐b" transform="matrix(1,0,0,1,896,-4)" xmlns:kvg="http://kanjivg.tagaini.net"></path><path class="stroke_order_diagram--existing_path" d="M25.92,16.25c1.08,1,2.26,2.75,2.26,4.47c0,4.21-0.15,35.25-0.19,51.78c0,2.27-0.01,4.26-0.01,5.88" id="Ske2x6xsr2l" kvg:type="㇑a" transform="matrix(1,0,0,1,896,-4)" xmlns:kvg="http://kanjivg.tagaini.net"></path><path class="stroke_order_diagram--existing_path" d="M13.57,84.78c0.55,1.14,2.26,1.1,2.82,0.81c0.55-0.28,22.58-12.44,26-14.72" id="Ske2x6xsr2m" kvg:type="㇀" transform="matrix(1,0,0,1,896,-4)" xmlns:kvg="http://kanjivg.tagaini.net"></path><path class="stroke_order_diagram--existing_path" d="M37.5,63c2.84,2.72,7.35,11.17,8.06,15.39" id="Ske2x6xsr2n" kvg:type="㇔" transform="matrix(1,0,0,1,896,-4)" xmlns:kvg="http://kanjivg.tagaini.net"></path><path class="stroke_order_diagram--existing_path" d="M50.35,20.13c1.29,0.66,2.65,1.16,3.72,0.98c5.17-0.86,16.25-3.3,18.4-3.79c2.15-0.49,3.06,0.74,2.65,2.15c-0.61,2.12-1.66,8.27-2.38,12.82c-0.31,1.95-0.56,3.6-0.7,4.52" id="Ske2x6xsr2o" kvg:type="㇕c" transform="matrix(1,0,0,1,896,-4)" xmlns:kvg="http://kanjivg.tagaini.net"></path><path class="stroke_order_diagram--existing_path" d="M57.75,38.75c2.18,0,11.09-1.5,12.64-1.5s3.11-0.5,4.36-0.5" id="Ske2x6xsr2p" kvg:type="㇐" transform="matrix(1,0,0,1,896,-4)" xmlns:kvg="http://kanjivg.tagaini.net"></path><path class="stroke_order_diagram--existing_path" d="M56.09,36.73c0.43,0.97,0.55,1.86,0.43,3.14c-0.27,2.89-4.91,15.82-5.05,16.79c-0.14,0.96,1,2.38,2.14,1.9s14.52-2.38,16.79-3.1c2.28-0.72,3.44,1.39,3.27,3.12c-0.85,8.93-4.57,22.77-8.04,31.45c-3.38,8.48-7.19,1.45-8.76-0.96" id="Ske2x6xsr2q" kvg:type="㇉" transform="matrix(1,0,0,1,896,-4)" xmlns:kvg="http://kanjivg.tagaini.net"></path><path class="stroke_order_diagram--current_path" d="M90.32,14.25c0.92,0.62,1.47,2.8,1.65,4.05c0.16,1.06,0.05,48.32-0.11,73.31c-0.03,4.27-0.05,5.26-0.08,6.39" id="kvg:08693-s10" kvg:type="㇑" transform="matrix(1,0,0,1,896,-4)" xmlns:kvg="http://kanjivg.tagaini.net"></path><path class="stroke_order_diagram--current_path" d="M90.32,14.25c0.92,0.62,1.47,2.8,1.65,4.05c0.16,1.06,0.05,48.32-0.11,73.31c-0.03,4.27-0.05,5.26-0.08,6.39" id="Ske2x6xsr2s" kvg:type="㇑" transform="matrix(1,0,0,1,896,-4)" xmlns:kvg="http://kanjivg.tagaini.net"></path><circle class="stroke_order_diagram--path_start" cx="90.32" cy="14.25" r="4" transform="matrix(1,0,0,1,896,-4)"></circle></svg>