<svg class="stroke_order_diagram--svg_container_for_518662bbd5dda79658001511" style="height: 100px; width: 1400px;" viewbox="0 0 1400 100"><desc>Created with Snap</desc><defs></defs><line class="stroke_order_diagram--bounding_box" x1="1" x2="1399" y1="1" y2="1"></line><line class="stroke_order_diagram--bounding_box" x1="1" x2="1" y1="1" y2="99"></line><line class="stroke_order_diagram--bounding_box" x1="1" x2="1399" y1="99" y2="99"></line><line class="stroke_order_diagram--guide_line" x1="0" x2="1400" y1="50" y2="50"></line><line class="stroke_order_diagram--guide_line" x1="50" x2="50" y1="1" y2="99"></line><line class="stroke_order_diagram--bounding_box" x1="99" x2="99" y1="1" y2="99"></line><path class="stroke_order_diagram--current_path" d="M12.26,34.26c0.46,0.6,1.02,1.64,1.12,2.42c0.87,6.79,1.87,15.58,3.12,25.71" id="kvg:08734-s1" kvg:type="㇑" transform="matrix(1,0,0,1,-4,-4)" xmlns:kvg="http://kanjivg.tagaini.net"></path><path class="stroke_order_diagram--current_path" d="M12.26,34.26c0.46,0.6,1.02,1.64,1.12,2.42c0.87,6.79,1.87,15.58,3.12,25.71" id="Ske2xghzbn" kvg:type="㇑" transform="matrix(1,0,0,1,-4,-4)" xmlns:kvg="http://kanjivg.tagaini.net"></path><circle class="stroke_order_diagram--path_start" cx="12.26" cy="34.26" r="4" transform="matrix(1,0,0,1,-4,-4)"></circle><line class="stroke_order_diagram--guide_line" x1="150" x2="150" y1="1" y2="99"></line><line class="stroke_order_diagram--bounding_box" x1="199" x2="199" y1="1" y2="99"></line><path class="stroke_order_diagram--existing_path" d="M12.26,34.26c0.46,0.6,1.02,1.64,1.12,2.42c0.87,6.79,1.87,15.58,3.12,25.71" id="Ske2xghzbq" kvg:type="㇑" transform="matrix(1,0,0,1,96,-4)" xmlns:kvg="http://kanjivg.tagaini.net"></path><path class="stroke_order_diagram--current_path" d="M13.72,35.7c6.93-1.14,21.11-2.49,26.13-2.93c1.96-0.17,2.86,1.61,2.62,3.32c-0.83,5.83-2.48,12.04-3.83,21.74" id="kvg:08734-s2" kvg:type="㇕b" transform="matrix(1,0,0,1,96,-4)" xmlns:kvg="http://kanjivg.tagaini.net"></path><path class="stroke_order_diagram--current_path" d="M13.72,35.7c6.93-1.14,21.11-2.49,26.13-2.93c1.96-0.17,2.86,1.61,2.62,3.32c-0.83,5.83-2.48,12.04-3.83,21.74" id="Ske2xghzbs" kvg:type="㇕b" transform="matrix(1,0,0,1,96,-4)" xmlns:kvg="http://kanjivg.tagaini.net"></path><circle class="stroke_order_diagram--path_start" cx="13.72" cy="35.7" r="4" transform="matrix(1,0,0,1,96,-4)"></circle><line class="stroke_order_diagram--guide_line" x1="250" x2="250" y1="1" y2="99"></line><line class="stroke_order_diagram--bounding_box" x1="299" x2="299" y1="1" y2="99"></line><path class="stroke_order_diagram--existing_path" d="M12.26,34.26c0.46,0.6,1.02,1.64,1.12,2.42c0.87,6.79,1.87,15.58,3.12,25.71" id="Ske2xghzbv" kvg:type="㇑" transform="matrix(1,0,0,1,196,-4)" xmlns:kvg="http://kanjivg.tagaini.net"></path><path class="stroke_order_diagram--existing_path" d="M13.72,35.7c6.93-1.14,21.11-2.49,26.13-2.93c1.96-0.17,2.86,1.61,2.62,3.32c-0.83,5.83-2.48,12.04-3.83,21.74" id="Ske2xghzbw" kvg:type="㇕b" transform="matrix(1,0,0,1,196,-4)" xmlns:kvg="http://kanjivg.tagaini.net"></path><path class="stroke_order_diagram--current_path" d="M16.76,59.59C24.5,58.75,32,58.5,41.02,57.62" id="kvg:08734-s3" kvg:type="㇐b" transform="matrix(1,0,0,1,196,-4)" xmlns:kvg="http://kanjivg.tagaini.net"></path><path class="stroke_order_diagram--current_path" d="M16.76,59.59C24.5,58.75,32,58.5,41.02,57.62" id="Ske2xghzby" kvg:type="㇐b" transform="matrix(1,0,0,1,196,-4)" xmlns:kvg="http://kanjivg.tagaini.net"></path><circle class="stroke_order_diagram--path_start" cx="16.76" cy="59.59" r="4" transform="matrix(1,0,0,1,196,-4)"></circle><line class="stroke_order_diagram--guide_line" x1="350" x2="350" y1="1" y2="99"></line><line class="stroke_order_diagram--bounding_box" x1="399" x2="399" y1="1" y2="99"></line><path class="stroke_order_diagram--existing_path" d="M12.26,34.26c0.46,0.6,1.02,1.64,1.12,2.42c0.87,6.79,1.87,15.58,3.12,25.71" id="Ske2xghzb11" kvg:type="㇑" transform="matrix(1,0,0,1,296,-4)" xmlns:kvg="http://kanjivg.tagaini.net"></path><path class="stroke_order_diagram--existing_path" d="M13.72,35.7c6.93-1.14,21.11-2.49,26.13-2.93c1.96-0.17,2.86,1.61,2.62,3.32c-0.83,5.83-2.48,12.04-3.83,21.74" id="Ske2xghzb12" kvg:type="㇕b" transform="matrix(1,0,0,1,296,-4)" xmlns:kvg="http://kanjivg.tagaini.net"></path><path class="stroke_order_diagram--existing_path" d="M16.76,59.59C24.5,58.75,32,58.5,41.02,57.62" id="Ske2xghzb13" kvg:type="㇐b" transform="matrix(1,0,0,1,296,-4)" xmlns:kvg="http://kanjivg.tagaini.net"></path><path class="stroke_order_diagram--current_path" d="M25.42,14.75c1.08,1,2.26,2.75,2.26,4.47c0,4.78-0.2,46.78-0.2,60.16" id="kvg:08734-s4" kvg:type="㇑a" transform="matrix(1,0,0,1,296,-4)" xmlns:kvg="http://kanjivg.tagaini.net"></path><path class="stroke_order_diagram--current_path" d="M25.42,14.75c1.08,1,2.26,2.75,2.26,4.47c0,4.78-0.2,46.78-0.2,60.16" id="Ske2xghzb15" kvg:type="㇑a" transform="matrix(1,0,0,1,296,-4)" xmlns:kvg="http://kanjivg.tagaini.net"></path><circle class="stroke_order_diagram--path_start" cx="25.42" cy="14.75" r="4" transform="matrix(1,0,0,1,296,-4)"></circle><line class="stroke_order_diagram--guide_line" x1="450" x2="450" y1="1" y2="99"></line><line class="stroke_order_diagram--bounding_box" x1="499" x2="499" y1="1" y2="99"></line><path class="stroke_order_diagram--existing_path" d="M12.26,34.26c0.46,0.6,1.02,1.64,1.12,2.42c0.87,6.79,1.87,15.58,3.12,25.71" id="Ske2xghzb18" kvg:type="㇑" transform="matrix(1,0,0,1,396,-4)" xmlns:kvg="http://kanjivg.tagaini.net"></path><path class="stroke_order_diagram--existing_path" d="M13.72,35.7c6.93-1.14,21.11-2.49,26.13-2.93c1.96-0.17,2.86,1.61,2.62,3.32c-0.83,5.83-2.48,12.04-3.83,21.74" id="Ske2xghzb19" kvg:type="㇕b" transform="matrix(1,0,0,1,396,-4)" xmlns:kvg="http://kanjivg.tagaini.net"></path><path class="stroke_order_diagram--existing_path" d="M16.76,59.59C24.5,58.75,32,58.5,41.02,57.62" id="Ske2xghzb1a" kvg:type="㇐b" transform="matrix(1,0,0,1,396,-4)" xmlns:kvg="http://kanjivg.tagaini.net"></path><path class="stroke_order_diagram--existing_path" d="M25.42,14.75c1.08,1,2.26,2.75,2.26,4.47c0,4.78-0.2,46.78-0.2,60.16" id="Ske2xghzb1b" kvg:type="㇑a" transform="matrix(1,0,0,1,396,-4)" xmlns:kvg="http://kanjivg.tagaini.net"></path><path class="stroke_order_diagram--current_path" d="M10.57,86.27c0.6,1.16,2.46,1.11,3.06,0.82C14.23,86.8,32,78.5,38.88,75.12" id="kvg:08734-s5" kvg:type="㇀" transform="matrix(1,0,0,1,396,-4)" xmlns:kvg="http://kanjivg.tagaini.net"></path><path class="stroke_order_diagram--current_path" d="M10.57,86.27c0.6,1.16,2.46,1.11,3.06,0.82C14.23,86.8,32,78.5,38.88,75.12" id="Ske2xghzb1d" kvg:type="㇀" transform="matrix(1,0,0,1,396,-4)" xmlns:kvg="http://kanjivg.tagaini.net"></path><circle class="stroke_order_diagram--path_start" cx="10.57" cy="86.27" r="4" transform="matrix(1,0,0,1,396,-4)"></circle><line class="stroke_order_diagram--guide_line" x1="550" x2="550" y1="1" y2="99"></line><line class="stroke_order_diagram--bounding_box" x1="599" x2="599" y1="1" y2="99"></line><path class="stroke_order_diagram--existing_path" d="M12.26,34.26c0.46,0.6,1.02,1.64,1.12,2.42c0.87,6.79,1.87,15.58,3.12,25.71" id="Ske2xghzb1g" kvg:type="㇑" transform="matrix(1,0,0,1,496,-4)" xmlns:kvg="http://kanjivg.tagaini.net"></path><path class="stroke_order_diagram--existing_path" d="M13.72,35.7c6.93-1.14,21.11-2.49,26.13-2.93c1.96-0.17,2.86,1.61,2.62,3.32c-0.83,5.83-2.48,12.04-3.83,21.74" id="Ske2xghzb1h" kvg:type="㇕b" transform="matrix(1,0,0,1,496,-4)" xmlns:kvg="http://kanjivg.tagaini.net"></path><path class="stroke_order_diagram--existing_path" d="M16.76,59.59C24.5,58.75,32,58.5,41.02,57.62" id="Ske2xghzb1i" kvg:type="㇐b" transform="matrix(1,0,0,1,496,-4)" xmlns:kvg="http://kanjivg.tagaini.net"></path><path class="stroke_order_diagram--existing_path" d="M25.42,14.75c1.08,1,2.26,2.75,2.26,4.47c0,4.78-0.2,46.78-0.2,60.16" id="Ske2xghzb1j" kvg:type="㇑a" transform="matrix(1,0,0,1,496,-4)" xmlns:kvg="http://kanjivg.tagaini.net"></path><path class="stroke_order_diagram--existing_path" d="M10.57,86.27c0.6,1.16,2.46,1.11,3.06,0.82C14.23,86.8,32,78.5,38.88,75.12" id="Ske2xghzb1k" kvg:type="㇀" transform="matrix(1,0,0,1,496,-4)" xmlns:kvg="http://kanjivg.tagaini.net"></path><path class="stroke_order_diagram--current_path" d="M33.5,67.25c3.2,2.76,8.26,11.35,9.06,15.64" id="kvg:08734-s6" kvg:type="㇔" transform="matrix(1,0,0,1,496,-4)" xmlns:kvg="http://kanjivg.tagaini.net"></path><path class="stroke_order_diagram--current_path" d="M33.5,67.25c3.2,2.76,8.26,11.35,9.06,15.64" id="Ske2xghzb1m" kvg:type="㇔" transform="matrix(1,0,0,1,496,-4)" xmlns:kvg="http://kanjivg.tagaini.net"></path><circle class="stroke_order_diagram--path_start" cx="33.5" cy="67.25" r="4" transform="matrix(1,0,0,1,496,-4)"></circle><line class="stroke_order_diagram--guide_line" x1="650" x2="650" y1="1" y2="99"></line><line class="stroke_order_diagram--bounding_box" x1="699" x2="699" y1="1" y2="99"></line><path class="stroke_order_diagram--existing_path" d="M12.26,34.26c0.46,0.6,1.02,1.64,1.12,2.42c0.87,6.79,1.87,15.58,3.12,25.71" id="Ske2xghzb1p" kvg:type="㇑" transform="matrix(1,0,0,1,596,-4)" xmlns:kvg="http://kanjivg.tagaini.net"></path><path class="stroke_order_diagram--existing_path" d="M13.72,35.7c6.93-1.14,21.11-2.49,26.13-2.93c1.96-0.17,2.86,1.61,2.62,3.32c-0.83,5.83-2.48,12.04-3.83,21.74" id="Ske2xghzb1q" kvg:type="㇕b" transform="matrix(1,0,0,1,596,-4)" xmlns:kvg="http://kanjivg.tagaini.net"></path><path class="stroke_order_diagram--existing_path" d="M16.76,59.59C24.5,58.75,32,58.5,41.02,57.62" id="Ske2xghzb1r" kvg:type="㇐b" transform="matrix(1,0,0,1,596,-4)" xmlns:kvg="http://kanjivg.tagaini.net"></path><path class="stroke_order_diagram--existing_path" d="M25.42,14.75c1.08,1,2.26,2.75,2.26,4.47c0,4.78-0.2,46.78-0.2,60.16" id="Ske2xghzb1s" kvg:type="㇑a" transform="matrix(1,0,0,1,596,-4)" xmlns:kvg="http://kanjivg.tagaini.net"></path><path class="stroke_order_diagram--existing_path" d="M10.57,86.27c0.6,1.16,2.46,1.11,3.06,0.82C14.23,86.8,32,78.5,38.88,75.12" id="Ske2xghzb1t" kvg:type="㇀" transform="matrix(1,0,0,1,596,-4)" xmlns:kvg="http://kanjivg.tagaini.net"></path><path class="stroke_order_diagram--existing_path" d="M33.5,67.25c3.2,2.76,8.26,11.35,9.06,15.64" id="Ske2xghzb1u" kvg:type="㇔" transform="matrix(1,0,0,1,596,-4)" xmlns:kvg="http://kanjivg.tagaini.net"></path><path class="stroke_order_diagram--current_path" d="M55.15,15.91c1.1,1.34,1.78,2.92,1.83,3.79c0.26,4.69,2.37,23.39,2.51,24.27" id="kvg:08734-s7" kvg:type="㇑" transform="matrix(1,0,0,1,596,-4)" xmlns:kvg="http://kanjivg.tagaini.net"></path><path class="stroke_order_diagram--current_path" d="M55.15,15.91c1.1,1.34,1.78,2.92,1.83,3.79c0.26,4.69,2.37,23.39,2.51,24.27" id="Ske2xghzb1w" kvg:type="㇑" transform="matrix(1,0,0,1,596,-4)" xmlns:kvg="http://kanjivg.tagaini.net"></path><circle class="stroke_order_diagram--path_start" cx="55.15" cy="15.91" r="4" transform="matrix(1,0,0,1,596,-4)"></circle><line class="stroke_order_diagram--guide_line" x1="750" x2="750" y1="1" y2="99"></line><line class="stroke_order_diagram--bounding_box" x1="799" x2="799" y1="1" y2="99"></line><path class="stroke_order_diagram--existing_path" d="M12.26,34.26c0.46,0.6,1.02,1.64,1.12,2.42c0.87,6.79,1.87,15.58,3.12,25.71" id="Ske2xghzb1z" kvg:type="㇑" transform="matrix(1,0,0,1,696,-4)" xmlns:kvg="http://kanjivg.tagaini.net"></path><path class="stroke_order_diagram--existing_path" d="M13.72,35.7c6.93-1.14,21.11-2.49,26.13-2.93c1.96-0.17,2.86,1.61,2.62,3.32c-0.83,5.83-2.48,12.04-3.83,21.74" id="Ske2xghzb20" kvg:type="㇕b" transform="matrix(1,0,0,1,696,-4)" xmlns:kvg="http://kanjivg.tagaini.net"></path><path class="stroke_order_diagram--existing_path" d="M16.76,59.59C24.5,58.75,32,58.5,41.02,57.62" id="Ske2xghzb21" kvg:type="㇐b" transform="matrix(1,0,0,1,696,-4)" xmlns:kvg="http://kanjivg.tagaini.net"></path><path class="stroke_order_diagram--existing_path" d="M25.42,14.75c1.08,1,2.26,2.75,2.26,4.47c0,4.78-0.2,46.78-0.2,60.16" id="Ske2xghzb22" kvg:type="㇑a" transform="matrix(1,0,0,1,696,-4)" xmlns:kvg="http://kanjivg.tagaini.net"></path><path class="stroke_order_diagram--existing_path" d="M10.57,86.27c0.6,1.16,2.46,1.11,3.06,0.82C14.23,86.8,32,78.5,38.88,75.12" id="Ske2xghzb23" kvg:type="㇀" transform="matrix(1,0,0,1,696,-4)" xmlns:kvg="http://kanjivg.tagaini.net"></path><path class="stroke_order_diagram--existing_path" d="M33.5,67.25c3.2,2.76,8.26,11.35,9.06,15.64" id="Ske2xghzb24" kvg:type="㇔" transform="matrix(1,0,0,1,696,-4)" xmlns:kvg="http://kanjivg.tagaini.net"></path><path class="stroke_order_diagram--existing_path" d="M55.15,15.91c1.1,1.34,1.78,2.92,1.83,3.79c0.26,4.69,2.37,23.39,2.51,24.27" id="Ske2xghzb25" kvg:type="㇑" transform="matrix(1,0,0,1,696,-4)" xmlns:kvg="http://kanjivg.tagaini.net"></path><path class="stroke_order_diagram--current_path" d="M58.16,17.45c2.33-0.11,22.37-2.83,24.49-2.96c1.77-0.11,2.83,2.59,2.77,3.26c-0.42,4.94-1.25,13.02-2.75,24.08" id="kvg:08734-s8" kvg:type="㇕a" transform="matrix(1,0,0,1,696,-4)" xmlns:kvg="http://kanjivg.tagaini.net"></path><path class="stroke_order_diagram--current_path" d="M58.16,17.45c2.33-0.11,22.37-2.83,24.49-2.96c1.77-0.11,2.83,2.59,2.77,3.26c-0.42,4.94-1.25,13.02-2.75,24.08" id="Ske2xghzb27" kvg:type="㇕a" transform="matrix(1,0,0,1,696,-4)" xmlns:kvg="http://kanjivg.tagaini.net"></path><circle class="stroke_order_diagram--path_start" cx="58.16" cy="17.45" r="4" transform="matrix(1,0,0,1,696,-4)"></circle><line class="stroke_order_diagram--guide_line" x1="850" x2="850" y1="1" y2="99"></line><line class="stroke_order_diagram--bounding_box" x1="899" x2="899" y1="1" y2="99"></line><path class="stroke_order_diagram--existing_path" d="M12.26,34.26c0.46,0.6,1.02,1.64,1.12,2.42c0.87,6.79,1.87,15.58,3.12,25.71" id="Ske2xghzb2a" kvg:type="㇑" transform="matrix(1,0,0,1,796,-4)" xmlns:kvg="http://kanjivg.tagaini.net"></path><path class="stroke_order_diagram--existing_path" d="M13.72,35.7c6.93-1.14,21.11-2.49,26.13-2.93c1.96-0.17,2.86,1.61,2.62,3.32c-0.83,5.83-2.48,12.04-3.83,21.74" id="Ske2xghzb2b" kvg:type="㇕b" transform="matrix(1,0,0,1,796,-4)" xmlns:kvg="http://kanjivg.tagaini.net"></path><path class="stroke_order_diagram--existing_path" d="M16.76,59.59C24.5,58.75,32,58.5,41.02,57.62" id="Ske2xghzb2c" kvg:type="㇐b" transform="matrix(1,0,0,1,796,-4)" xmlns:kvg="http://kanjivg.tagaini.net"></path><path class="stroke_order_diagram--existing_path" d="M25.42,14.75c1.08,1,2.26,2.75,2.26,4.47c0,4.78-0.2,46.78-0.2,60.16" id="Ske2xghzb2d" kvg:type="㇑a" transform="matrix(1,0,0,1,796,-4)" xmlns:kvg="http://kanjivg.tagaini.net"></path><path class="stroke_order_diagram--existing_path" d="M10.57,86.27c0.6,1.16,2.46,1.11,3.06,0.82C14.23,86.8,32,78.5,38.88,75.12" id="Ske2xghzb2e" kvg:type="㇀" transform="matrix(1,0,0,1,796,-4)" xmlns:kvg="http://kanjivg.tagaini.net"></path><path class="stroke_order_diagram--existing_path" d="M33.5,67.25c3.2,2.76,8.26,11.35,9.06,15.64" id="Ske2xghzb2f" kvg:type="㇔" transform="matrix(1,0,0,1,796,-4)" xmlns:kvg="http://kanjivg.tagaini.net"></path><path class="stroke_order_diagram--existing_path" d="M55.15,15.91c1.1,1.34,1.78,2.92,1.83,3.79c0.26,4.69,2.37,23.39,2.51,24.27" id="Ske2xghzb2g" kvg:type="㇑" transform="matrix(1,0,0,1,796,-4)" xmlns:kvg="http://kanjivg.tagaini.net"></path><path class="stroke_order_diagram--existing_path" d="M58.16,17.45c2.33-0.11,22.37-2.83,24.49-2.96c1.77-0.11,2.83,2.59,2.77,3.26c-0.42,4.94-1.25,13.02-2.75,24.08" id="Ske2xghzb2h" kvg:type="㇕a" transform="matrix(1,0,0,1,796,-4)" xmlns:kvg="http://kanjivg.tagaini.net"></path><path class="stroke_order_diagram--current_path" d="M58.91,30.07c8.2-0.84,19.91-2.24,25.35-2.49" id="kvg:08734-s9" kvg:type="㇐a" transform="matrix(1,0,0,1,796,-4)" xmlns:kvg="http://kanjivg.tagaini.net"></path><path class="stroke_order_diagram--current_path" d="M58.91,30.07c8.2-0.84,19.91-2.24,25.35-2.49" id="Ske2xghzb2j" kvg:type="㇐a" transform="matrix(1,0,0,1,796,-4)" xmlns:kvg="http://kanjivg.tagaini.net"></path><circle class="stroke_order_diagram--path_start" cx="58.91" cy="30.07" r="4" transform="matrix(1,0,0,1,796,-4)"></circle><line class="stroke_order_diagram--guide_line" x1="950" x2="950" y1="1" y2="99"></line><line class="stroke_order_diagram--bounding_box" x1="999" x2="999" y1="1" y2="99"></line><path class="stroke_order_diagram--existing_path" d="M12.26,34.26c0.46,0.6,1.02,1.64,1.12,2.42c0.87,6.79,1.87,15.58,3.12,25.71" id="Ske2xghzb2m" kvg:type="㇑" transform="matrix(1,0,0,1,896,-4)" xmlns:kvg="http://kanjivg.tagaini.net"></path><path class="stroke_order_diagram--existing_path" d="M13.72,35.7c6.93-1.14,21.11-2.49,26.13-2.93c1.96-0.17,2.86,1.61,2.62,3.32c-0.83,5.83-2.48,12.04-3.83,21.74" id="Ske2xghzb2n" kvg:type="㇕b" transform="matrix(1,0,0,1,896,-4)" xmlns:kvg="http://kanjivg.tagaini.net"></path><path class="stroke_order_diagram--existing_path" d="M16.76,59.59C24.5,58.75,32,58.5,41.02,57.62" id="Ske2xghzb2o" kvg:type="㇐b" transform="matrix(1,0,0,1,896,-4)" xmlns:kvg="http://kanjivg.tagaini.net"></path><path class="stroke_order_diagram--existing_path" d="M25.42,14.75c1.08,1,2.26,2.75,2.26,4.47c0,4.78-0.2,46.78-0.2,60.16" id="Ske2xghzb2p" kvg:type="㇑a" transform="matrix(1,0,0,1,896,-4)" xmlns:kvg="http://kanjivg.tagaini.net"></path><path class="stroke_order_diagram--existing_path" d="M10.57,86.27c0.6,1.16,2.46,1.11,3.06,0.82C14.23,86.8,32,78.5,38.88,75.12" id="Ske2xghzb2q" kvg:type="㇀" transform="matrix(1,0,0,1,896,-4)" xmlns:kvg="http://kanjivg.tagaini.net"></path><path class="stroke_order_diagram--existing_path" d="M33.5,67.25c3.2,2.76,8.26,11.35,9.06,15.64" id="Ske2xghzb2r" kvg:type="㇔" transform="matrix(1,0,0,1,896,-4)" xmlns:kvg="http://kanjivg.tagaini.net"></path><path class="stroke_order_diagram--existing_path" d="M55.15,15.91c1.1,1.34,1.78,2.92,1.83,3.79c0.26,4.69,2.37,23.39,2.51,24.27" id="Ske2xghzb2s" kvg:type="㇑" transform="matrix(1,0,0,1,896,-4)" xmlns:kvg="http://kanjivg.tagaini.net"></path><path class="stroke_order_diagram--existing_path" d="M58.16,17.45c2.33-0.11,22.37-2.83,24.49-2.96c1.77-0.11,2.83,2.59,2.77,3.26c-0.42,4.94-1.25,13.02-2.75,24.08" id="Ske2xghzb2t" kvg:type="㇕a" transform="matrix(1,0,0,1,896,-4)" xmlns:kvg="http://kanjivg.tagaini.net"></path><path class="stroke_order_diagram--existing_path" d="M58.91,30.07c8.2-0.84,19.91-2.24,25.35-2.49" id="Ske2xghzb2u" kvg:type="㇐a" transform="matrix(1,0,0,1,896,-4)" xmlns:kvg="http://kanjivg.tagaini.net"></path><path class="stroke_order_diagram--current_path" d="M60.17,42.3c6.77-0.91,16.47-1.84,22.81-2.28" id="kvg:08734-s10" kvg:type="㇐a" transform="matrix(1,0,0,1,896,-4)" xmlns:kvg="http://kanjivg.tagaini.net"></path><path class="stroke_order_diagram--current_path" d="M60.17,42.3c6.77-0.91,16.47-1.84,22.81-2.28" id="Ske2xghzb2w" kvg:type="㇐a" transform="matrix(1,0,0,1,896,-4)" xmlns:kvg="http://kanjivg.tagaini.net"></path><circle class="stroke_order_diagram--path_start" cx="60.17" cy="42.3" r="4" transform="matrix(1,0,0,1,896,-4)"></circle><line class="stroke_order_diagram--guide_line" x1="1050" x2="1050" y1="1" y2="99"></line><line class="stroke_order_diagram--bounding_box" x1="1099" x2="1099" y1="1" y2="99"></line><path class="stroke_order_diagram--existing_path" d="M12.26,34.26c0.46,0.6,1.02,1.64,1.12,2.42c0.87,6.79,1.87,15.58,3.12,25.71" id="Ske2xghzb2z" kvg:type="㇑" transform="matrix(1,0,0,1,996,-4)" xmlns:kvg="http://kanjivg.tagaini.net"></path><path class="stroke_order_diagram--existing_path" d="M13.72,35.7c6.93-1.14,21.11-2.49,26.13-2.93c1.96-0.17,2.86,1.61,2.62,3.32c-0.83,5.83-2.48,12.04-3.83,21.74" id="Ske2xghzb30" kvg:type="㇕b" transform="matrix(1,0,0,1,996,-4)" xmlns:kvg="http://kanjivg.tagaini.net"></path><path class="stroke_order_diagram--existing_path" d="M16.76,59.59C24.5,58.75,32,58.5,41.02,57.62" id="Ske2xghzb31" kvg:type="㇐b" transform="matrix(1,0,0,1,996,-4)" xmlns:kvg="http://kanjivg.tagaini.net"></path><path class="stroke_order_diagram--existing_path" d="M25.42,14.75c1.08,1,2.26,2.75,2.26,4.47c0,4.78-0.2,46.78-0.2,60.16" id="Ske2xghzb32" kvg:type="㇑a" transform="matrix(1,0,0,1,996,-4)" xmlns:kvg="http://kanjivg.tagaini.net"></path><path class="stroke_order_diagram--existing_path" d="M10.57,86.27c0.6,1.16,2.46,1.11,3.06,0.82C14.23,86.8,32,78.5,38.88,75.12" id="Ske2xghzb33" kvg:type="㇀" transform="matrix(1,0,0,1,996,-4)" xmlns:kvg="http://kanjivg.tagaini.net"></path><path class="stroke_order_diagram--existing_path" d="M33.5,67.25c3.2,2.76,8.26,11.35,9.06,15.64" id="Ske2xghzb34" kvg:type="㇔" transform="matrix(1,0,0,1,996,-4)" xmlns:kvg="http://kanjivg.tagaini.net"></path><path class="stroke_order_diagram--existing_path" d="M55.15,15.91c1.1,1.34,1.78,2.92,1.83,3.79c0.26,4.69,2.37,23.39,2.51,24.27" id="Ske2xghzb35" kvg:type="㇑" transform="matrix(1,0,0,1,996,-4)" xmlns:kvg="http://kanjivg.tagaini.net"></path><path class="stroke_order_diagram--existing_path" d="M58.16,17.45c2.33-0.11,22.37-2.83,24.49-2.96c1.77-0.11,2.83,2.59,2.77,3.26c-0.42,4.94-1.25,13.02-2.75,24.08" id="Ske2xghzb36" kvg:type="㇕a" transform="matrix(1,0,0,1,996,-4)" xmlns:kvg="http://kanjivg.tagaini.net"></path><path class="stroke_order_diagram--existing_path" d="M58.91,30.07c8.2-0.84,19.91-2.24,25.35-2.49" id="Ske2xghzb37" kvg:type="㇐a" transform="matrix(1,0,0,1,996,-4)" xmlns:kvg="http://kanjivg.tagaini.net"></path><path class="stroke_order_diagram--existing_path" d="M60.17,42.3c6.77-0.91,16.47-1.84,22.81-2.28" id="Ske2xghzb38" kvg:type="㇐a" transform="matrix(1,0,0,1,996,-4)" xmlns:kvg="http://kanjivg.tagaini.net"></path><path class="stroke_order_diagram--current_path" d="M62.09,47.7c0.04,0.46,0.17,1.23-0.08,1.86c-1.6,3.9-8.1,12.46-15.03,17.76" id="kvg:08734-s11" kvg:type="㇒" transform="matrix(1,0,0,1,996,-4)" xmlns:kvg="http://kanjivg.tagaini.net"></path><path class="stroke_order_diagram--current_path" d="M62.09,47.7c0.04,0.46,0.17,1.23-0.08,1.86c-1.6,3.9-8.1,12.46-15.03,17.76" id="Ske2xghzb3a" kvg:type="㇒" transform="matrix(1,0,0,1,996,-4)" xmlns:kvg="http://kanjivg.tagaini.net"></path><circle class="stroke_order_diagram--path_start" cx="62.09" cy="47.7" r="4" transform="matrix(1,0,0,1,996,-4)"></circle><line class="stroke_order_diagram--guide_line" x1="1150" x2="1150" y1="1" y2="99"></line><line class="stroke_order_diagram--bounding_box" x1="1199" x2="1199" y1="1" y2="99"></line><path class="stroke_order_diagram--existing_path" d="M12.26,34.26c0.46,0.6,1.02,1.64,1.12,2.42c0.87,6.79,1.87,15.58,3.12,25.71" id="Ske2xghzb3d" kvg:type="㇑" transform="matrix(1,0,0,1,1096,-4)" xmlns:kvg="http://kanjivg.tagaini.net"></path><path class="stroke_order_diagram--existing_path" d="M13.72,35.7c6.93-1.14,21.11-2.49,26.13-2.93c1.96-0.17,2.86,1.61,2.62,3.32c-0.83,5.83-2.48,12.04-3.83,21.74" id="Ske2xghzb3e" kvg:type="㇕b" transform="matrix(1,0,0,1,1096,-4)" xmlns:kvg="http://kanjivg.tagaini.net"></path><path class="stroke_order_diagram--existing_path" d="M16.76,59.59C24.5,58.75,32,58.5,41.02,57.62" id="Ske2xghzb3f" kvg:type="㇐b" transform="matrix(1,0,0,1,1096,-4)" xmlns:kvg="http://kanjivg.tagaini.net"></path><path class="stroke_order_diagram--existing_path" d="M25.42,14.75c1.08,1,2.26,2.75,2.26,4.47c0,4.78-0.2,46.78-0.2,60.16" id="Ske2xghzb3g" kvg:type="㇑a" transform="matrix(1,0,0,1,1096,-4)" xmlns:kvg="http://kanjivg.tagaini.net"></path><path class="stroke_order_diagram--existing_path" d="M10.57,86.27c0.6,1.16,2.46,1.11,3.06,0.82C14.23,86.8,32,78.5,38.88,75.12" id="Ske2xghzb3h" kvg:type="㇀" transform="matrix(1,0,0,1,1096,-4)" xmlns:kvg="http://kanjivg.tagaini.net"></path><path class="stroke_order_diagram--existing_path" d="M33.5,67.25c3.2,2.76,8.26,11.35,9.06,15.64" id="Ske2xghzb3i" kvg:type="㇔" transform="matrix(1,0,0,1,1096,-4)" xmlns:kvg="http://kanjivg.tagaini.net"></path><path class="stroke_order_diagram--existing_path" d="M55.15,15.91c1.1,1.34,1.78,2.92,1.83,3.79c0.26,4.69,2.37,23.39,2.51,24.27" id="Ske2xghzb3j" kvg:type="㇑" transform="matrix(1,0,0,1,1096,-4)" xmlns:kvg="http://kanjivg.tagaini.net"></path><path class="stroke_order_diagram--existing_path" d="M58.16,17.45c2.33-0.11,22.37-2.83,24.49-2.96c1.77-0.11,2.83,2.59,2.77,3.26c-0.42,4.94-1.25,13.02-2.75,24.08" id="Ske2xghzb3k" kvg:type="㇕a" transform="matrix(1,0,0,1,1096,-4)" xmlns:kvg="http://kanjivg.tagaini.net"></path><path class="stroke_order_diagram--existing_path" d="M58.91,30.07c8.2-0.84,19.91-2.24,25.35-2.49" id="Ske2xghzb3l" kvg:type="㇐a" transform="matrix(1,0,0,1,1096,-4)" xmlns:kvg="http://kanjivg.tagaini.net"></path><path class="stroke_order_diagram--existing_path" d="M60.17,42.3c6.77-0.91,16.47-1.84,22.81-2.28" id="Ske2xghzb3m" kvg:type="㇐a" transform="matrix(1,0,0,1,1096,-4)" xmlns:kvg="http://kanjivg.tagaini.net"></path><path class="stroke_order_diagram--existing_path" d="M62.09,47.7c0.04,0.46,0.17,1.23-0.08,1.86c-1.6,3.9-8.1,12.46-15.03,17.76" id="Ske2xghzb3n" kvg:type="㇒" transform="matrix(1,0,0,1,1096,-4)" xmlns:kvg="http://kanjivg.tagaini.net"></path><path class="stroke_order_diagram--current_path" d="M61.88,56.57c0.81,0.45,1.95,0.6,3.25,0.3c1.3-0.3,22.33-2.85,25.57-3c3.24-0.15,4.01,1.52,3.41,4.65C92,69.5,90,81.5,83.81,93.42C80.93,98.97,78,97,75.12,91.67" id="kvg:08734-s12" kvg:type="㇆" transform="matrix(1,0,0,1,1096,-4)" xmlns:kvg="http://kanjivg.tagaini.net"></path><path class="stroke_order_diagram--current_path" d="M61.88,56.57c0.81,0.45,1.95,0.6,3.25,0.3c1.3-0.3,22.33-2.85,25.57-3c3.24-0.15,4.01,1.52,3.41,4.65C92,69.5,90,81.5,83.81,93.42C80.93,98.97,78,97,75.12,91.67" id="Ske2xghzb3p" kvg:type="㇆" transform="matrix(1,0,0,1,1096,-4)" xmlns:kvg="http://kanjivg.tagaini.net"></path><circle class="stroke_order_diagram--path_start" cx="61.88" cy="56.57" r="4" transform="matrix(1,0,0,1,1096,-4)"></circle><line class="stroke_order_diagram--guide_line" x1="1250" x2="1250" y1="1" y2="99"></line><line class="stroke_order_diagram--bounding_box" x1="1299" x2="1299" y1="1" y2="99"></line><path class="stroke_order_diagram--existing_path" d="M12.26,34.26c0.46,0.6,1.02,1.64,1.12,2.42c0.87,6.79,1.87,15.58,3.12,25.71" id="Ske2xghzb3s" kvg:type="㇑" transform="matrix(1,0,0,1,1196,-4)" xmlns:kvg="http://kanjivg.tagaini.net"></path><path class="stroke_order_diagram--existing_path" d="M13.72,35.7c6.93-1.14,21.11-2.49,26.13-2.93c1.96-0.17,2.86,1.61,2.62,3.32c-0.83,5.83-2.48,12.04-3.83,21.74" id="Ske2xghzb3t" kvg:type="㇕b" transform="matrix(1,0,0,1,1196,-4)" xmlns:kvg="http://kanjivg.tagaini.net"></path><path class="stroke_order_diagram--existing_path" d="M16.76,59.59C24.5,58.75,32,58.5,41.02,57.62" id="Ske2xghzb3u" kvg:type="㇐b" transform="matrix(1,0,0,1,1196,-4)" xmlns:kvg="http://kanjivg.tagaini.net"></path><path class="stroke_order_diagram--existing_path" d="M25.42,14.75c1.08,1,2.26,2.75,2.26,4.47c0,4.78-0.2,46.78-0.2,60.16" id="Ske2xghzb3v" kvg:type="㇑a" transform="matrix(1,0,0,1,1196,-4)" xmlns:kvg="http://kanjivg.tagaini.net"></path><path class="stroke_order_diagram--existing_path" d="M10.57,86.27c0.6,1.16,2.46,1.11,3.06,0.82C14.23,86.8,32,78.5,38.88,75.12" id="Ske2xghzb3w" kvg:type="㇀" transform="matrix(1,0,0,1,1196,-4)" xmlns:kvg="http://kanjivg.tagaini.net"></path><path class="stroke_order_diagram--existing_path" d="M33.5,67.25c3.2,2.76,8.26,11.35,9.06,15.64" id="Ske2xghzb3x" kvg:type="㇔" transform="matrix(1,0,0,1,1196,-4)" xmlns:kvg="http://kanjivg.tagaini.net"></path><path class="stroke_order_diagram--existing_path" d="M55.15,15.91c1.1,1.34,1.78,2.92,1.83,3.79c0.26,4.69,2.37,23.39,2.51,24.27" id="Ske2xghzb3y" kvg:type="㇑" transform="matrix(1,0,0,1,1196,-4)" xmlns:kvg="http://kanjivg.tagaini.net"></path><path class="stroke_order_diagram--existing_path" d="M58.16,17.45c2.33-0.11,22.37-2.83,24.49-2.96c1.77-0.11,2.83,2.59,2.77,3.26c-0.42,4.94-1.25,13.02-2.75,24.08" id="Ske2xghzb3z" kvg:type="㇕a" transform="matrix(1,0,0,1,1196,-4)" xmlns:kvg="http://kanjivg.tagaini.net"></path><path class="stroke_order_diagram--existing_path" d="M58.91,30.07c8.2-0.84,19.91-2.24,25.35-2.49" id="Ske2xghzb40" kvg:type="㇐a" transform="matrix(1,0,0,1,1196,-4)" xmlns:kvg="http://kanjivg.tagaini.net"></path><path class="stroke_order_diagram--existing_path" d="M60.17,42.3c6.77-0.91,16.47-1.84,22.81-2.28" id="Ske2xghzb41" kvg:type="㇐a" transform="matrix(1,0,0,1,1196,-4)" xmlns:kvg="http://kanjivg.tagaini.net"></path><path class="stroke_order_diagram--existing_path" d="M62.09,47.7c0.04,0.46,0.17,1.23-0.08,1.86c-1.6,3.9-8.1,12.46-15.03,17.76" id="Ske2xghzb42" kvg:type="㇒" transform="matrix(1,0,0,1,1196,-4)" xmlns:kvg="http://kanjivg.tagaini.net"></path><path class="stroke_order_diagram--existing_path" d="M61.88,56.57c0.81,0.45,1.95,0.6,3.25,0.3c1.3-0.3,22.33-2.85,25.57-3c3.24-0.15,4.01,1.52,3.41,4.65C92,69.5,90,81.5,83.81,93.42C80.93,98.97,78,97,75.12,91.67" id="Ske2xghzb43" kvg:type="㇆" transform="matrix(1,0,0,1,1196,-4)" xmlns:kvg="http://kanjivg.tagaini.net"></path><path class="stroke_order_diagram--current_path" d="M66.69,59.56c0.05,0.52,0.23,1.4-0.09,2.1C62.75,70,57.75,75.5,50.81,81.78" id="kvg:08734-s13" kvg:type="㇒" transform="matrix(1,0,0,1,1196,-4)" xmlns:kvg="http://kanjivg.tagaini.net"></path><path class="stroke_order_diagram--current_path" d="M66.69,59.56c0.05,0.52,0.23,1.4-0.09,2.1C62.75,70,57.75,75.5,50.81,81.78" id="Ske2xghzb45" kvg:type="㇒" transform="matrix(1,0,0,1,1196,-4)" xmlns:kvg="http://kanjivg.tagaini.net"></path><circle class="stroke_order_diagram--path_start" cx="66.69" cy="59.56" r="4" transform="matrix(1,0,0,1,1196,-4)"></circle><line class="stroke_order_diagram--guide_line" x1="1350" x2="1350" y1="1" y2="99"></line><line class="stroke_order_diagram--bounding_box" x1="1399" x2="1399" y1="1" y2="99"></line><path class="stroke_order_diagram--existing_path" d="M12.26,34.26c0.46,0.6,1.02,1.64,1.12,2.42c0.87,6.79,1.87,15.58,3.12,25.71" id="Ske2xghzb48" kvg:type="㇑" transform="matrix(1,0,0,1,1296,-4)" xmlns:kvg="http://kanjivg.tagaini.net"></path><path class="stroke_order_diagram--existing_path" d="M13.72,35.7c6.93-1.14,21.11-2.49,26.13-2.93c1.96-0.17,2.86,1.61,2.62,3.32c-0.83,5.83-2.48,12.04-3.83,21.74" id="Ske2xghzb49" kvg:type="㇕b" transform="matrix(1,0,0,1,1296,-4)" xmlns:kvg="http://kanjivg.tagaini.net"></path><path class="stroke_order_diagram--existing_path" d="M16.76,59.59C24.5,58.75,32,58.5,41.02,57.62" id="Ske2xghzb4a" kvg:type="㇐b" transform="matrix(1,0,0,1,1296,-4)" xmlns:kvg="http://kanjivg.tagaini.net"></path><path class="stroke_order_diagram--existing_path" d="M25.42,14.75c1.08,1,2.26,2.75,2.26,4.47c0,4.78-0.2,46.78-0.2,60.16" id="Ske2xghzb4b" kvg:type="㇑a" transform="matrix(1,0,0,1,1296,-4)" xmlns:kvg="http://kanjivg.tagaini.net"></path><path class="stroke_order_diagram--existing_path" d="M10.57,86.27c0.6,1.16,2.46,1.11,3.06,0.82C14.23,86.8,32,78.5,38.88,75.12" id="Ske2xghzb4c" kvg:type="㇀" transform="matrix(1,0,0,1,1296,-4)" xmlns:kvg="http://kanjivg.tagaini.net"></path><path class="stroke_order_diagram--existing_path" d="M33.5,67.25c3.2,2.76,8.26,11.35,9.06,15.64" id="Ske2xghzb4d" kvg:type="㇔" transform="matrix(1,0,0,1,1296,-4)" xmlns:kvg="http://kanjivg.tagaini.net"></path><path class="stroke_order_diagram--existing_path" d="M55.15,15.91c1.1,1.34,1.78,2.92,1.83,3.79c0.26,4.69,2.37,23.39,2.51,24.27" id="Ske2xghzb4e" kvg:type="㇑" transform="matrix(1,0,0,1,1296,-4)" xmlns:kvg="http://kanjivg.tagaini.net"></path><path class="stroke_order_diagram--existing_path" d="M58.16,17.45c2.33-0.11,22.37-2.83,24.49-2.96c1.77-0.11,2.83,2.59,2.77,3.26c-0.42,4.94-1.25,13.02-2.75,24.08" id="Ske2xghzb4f" kvg:type="㇕a" transform="matrix(1,0,0,1,1296,-4)" xmlns:kvg="http://kanjivg.tagaini.net"></path><path class="stroke_order_diagram--existing_path" d="M58.91,30.07c8.2-0.84,19.91-2.24,25.35-2.49" id="Ske2xghzb4g" kvg:type="㇐a" transform="matrix(1,0,0,1,1296,-4)" xmlns:kvg="http://kanjivg.tagaini.net"></path><path class="stroke_order_diagram--existing_path" d="M60.17,42.3c6.77-0.91,16.47-1.84,22.81-2.28" id="Ske2xghzb4h" kvg:type="㇐a" transform="matrix(1,0,0,1,1296,-4)" xmlns:kvg="http://kanjivg.tagaini.net"></path><path class="stroke_order_diagram--existing_path" d="M62.09,47.7c0.04,0.46,0.17,1.23-0.08,1.86c-1.6,3.9-8.1,12.46-15.03,17.76" id="Ske2xghzb4i" kvg:type="㇒" transform="matrix(1,0,0,1,1296,-4)" xmlns:kvg="http://kanjivg.tagaini.net"></path><path class="stroke_order_diagram--existing_path" d="M61.88,56.57c0.81,0.45,1.95,0.6,3.25,0.3c1.3-0.3,22.33-2.85,25.57-3c3.24-0.15,4.01,1.52,3.41,4.65C92,69.5,90,81.5,83.81,93.42C80.93,98.97,78,97,75.12,91.67" id="Ske2xghzb4j" kvg:type="㇆" transform="matrix(1,0,0,1,1296,-4)" xmlns:kvg="http://kanjivg.tagaini.net"></path><path class="stroke_order_diagram--existing_path" d="M66.69,59.56c0.05,0.52,0.23,1.4-0.09,2.1C62.75,70,57.75,75.5,50.81,81.78" id="Ske2xghzb4k" kvg:type="㇒" transform="matrix(1,0,0,1,1296,-4)" xmlns:kvg="http://kanjivg.tagaini.net"></path><path class="stroke_order_diagram--current_path" d="M80.1,58.15c0.07,0.82,0.26,2.14-0.13,3.28C77.25,69.25,69,82.25,57.66,92.76" id="kvg:08734-s14" kvg:type="㇒" transform="matrix(1,0,0,1,1296,-4)" xmlns:kvg="http://kanjivg.tagaini.net"></path><path class="stroke_order_diagram--current_path" d="M80.1,58.15c0.07,0.82,0.26,2.14-0.13,3.28C77.25,69.25,69,82.25,57.66,92.76" id="Ske2xghzb4m" kvg:type="㇒" transform="matrix(1,0,0,1,1296,-4)" xmlns:kvg="http://kanjivg.tagaini.net"></path><circle class="stroke_order_diagram--path_start" cx="80.1" cy="58.15" r="4" transform="matrix(1,0,0,1,1296,-4)"></circle></svg>