<svg class="stroke_order_diagram--svg_container_for_518662bbd5dda79658001519" style="height: 100px; width: 1500px;" viewbox="0 0 1500 100"><desc>Created with Snap</desc><defs></defs><line class="stroke_order_diagram--bounding_box" x1="1" x2="1499" y1="1" y2="1"></line><line class="stroke_order_diagram--bounding_box" x1="1" x2="1" y1="1" y2="99"></line><line class="stroke_order_diagram--bounding_box" x1="1" x2="1499" y1="99" y2="99"></line><line class="stroke_order_diagram--guide_line" x1="0" x2="1500" y1="50" y2="50"></line><line class="stroke_order_diagram--guide_line" x1="50" x2="50" y1="1" y2="99"></line><line class="stroke_order_diagram--bounding_box" x1="99" x2="99" y1="1" y2="99"></line><path class="stroke_order_diagram--current_path" d="M13.26,37.4c0.48,0.54,1.08,1.48,1.19,2.19c0.92,6.15,1.98,14.12,3.31,23.3" id="kvg:0875f-s1" kvg:type="㇑" transform="matrix(1,0,0,1,-4,-4)" xmlns:kvg="http://kanjivg.tagaini.net"></path><path class="stroke_order_diagram--current_path" d="M13.26,37.4c0.48,0.54,1.08,1.48,1.19,2.19c0.92,6.15,1.98,14.12,3.31,23.3" id="Ske2xiw4jo" kvg:type="㇑" transform="matrix(1,0,0,1,-4,-4)" xmlns:kvg="http://kanjivg.tagaini.net"></path><circle class="stroke_order_diagram--path_start" cx="13.26" cy="37.4" r="4" transform="matrix(1,0,0,1,-4,-4)"></circle><line class="stroke_order_diagram--guide_line" x1="150" x2="150" y1="1" y2="99"></line><line class="stroke_order_diagram--bounding_box" x1="199" x2="199" y1="1" y2="99"></line><path class="stroke_order_diagram--existing_path" d="M13.26,37.4c0.48,0.54,1.08,1.48,1.19,2.19c0.92,6.15,1.98,14.12,3.31,23.3" id="Ske2xiw4jr" kvg:type="㇑" transform="matrix(1,0,0,1,96,-4)" xmlns:kvg="http://kanjivg.tagaini.net"></path><path class="stroke_order_diagram--current_path" d="M15.22,39.48c6.93-0.97,20.11-2.83,25.13-3.2c1.96-0.14,2.86,1.38,2.62,2.83c-0.83,4.98-1.98,10.84-3.33,19.12" id="kvg:0875f-s2" kvg:type="㇕b" transform="matrix(1,0,0,1,96,-4)" xmlns:kvg="http://kanjivg.tagaini.net"></path><path class="stroke_order_diagram--current_path" d="M15.22,39.48c6.93-0.97,20.11-2.83,25.13-3.2c1.96-0.14,2.86,1.38,2.62,2.83c-0.83,4.98-1.98,10.84-3.33,19.12" id="Ske2xiw4jt" kvg:type="㇕b" transform="matrix(1,0,0,1,96,-4)" xmlns:kvg="http://kanjivg.tagaini.net"></path><circle class="stroke_order_diagram--path_start" cx="15.22" cy="39.48" r="4" transform="matrix(1,0,0,1,96,-4)"></circle><line class="stroke_order_diagram--guide_line" x1="250" x2="250" y1="1" y2="99"></line><line class="stroke_order_diagram--bounding_box" x1="299" x2="299" y1="1" y2="99"></line><path class="stroke_order_diagram--existing_path" d="M13.26,37.4c0.48,0.54,1.08,1.48,1.19,2.19c0.92,6.15,1.98,14.12,3.31,23.3" id="Ske2xiw4jw" kvg:type="㇑" transform="matrix(1,0,0,1,196,-4)" xmlns:kvg="http://kanjivg.tagaini.net"></path><path class="stroke_order_diagram--existing_path" d="M15.22,39.48c6.93-0.97,20.11-2.83,25.13-3.2c1.96-0.14,2.86,1.38,2.62,2.83c-0.83,4.98-1.98,10.84-3.33,19.12" id="Ske2xiw4jx" kvg:type="㇕b" transform="matrix(1,0,0,1,196,-4)" xmlns:kvg="http://kanjivg.tagaini.net"></path><path class="stroke_order_diagram--current_path" d="M17.76,60.43c5.58-0.98,16.46-1.48,24.26-2.39" id="kvg:0875f-s3" kvg:type="㇐b" transform="matrix(1,0,0,1,196,-4)" xmlns:kvg="http://kanjivg.tagaini.net"></path><path class="stroke_order_diagram--current_path" d="M17.76,60.43c5.58-0.98,16.46-1.48,24.26-2.39" id="Ske2xiw4jz" kvg:type="㇐b" transform="matrix(1,0,0,1,196,-4)" xmlns:kvg="http://kanjivg.tagaini.net"></path><circle class="stroke_order_diagram--path_start" cx="17.76" cy="60.43" r="4" transform="matrix(1,0,0,1,196,-4)"></circle><line class="stroke_order_diagram--guide_line" x1="350" x2="350" y1="1" y2="99"></line><line class="stroke_order_diagram--bounding_box" x1="399" x2="399" y1="1" y2="99"></line><path class="stroke_order_diagram--existing_path" d="M13.26,37.4c0.48,0.54,1.08,1.48,1.19,2.19c0.92,6.15,1.98,14.12,3.31,23.3" id="Ske2xiw4j12" kvg:type="㇑" transform="matrix(1,0,0,1,296,-4)" xmlns:kvg="http://kanjivg.tagaini.net"></path><path class="stroke_order_diagram--existing_path" d="M15.22,39.48c6.93-0.97,20.11-2.83,25.13-3.2c1.96-0.14,2.86,1.38,2.62,2.83c-0.83,4.98-1.98,10.84-3.33,19.12" id="Ske2xiw4j13" kvg:type="㇕b" transform="matrix(1,0,0,1,296,-4)" xmlns:kvg="http://kanjivg.tagaini.net"></path><path class="stroke_order_diagram--existing_path" d="M17.76,60.43c5.58-0.98,16.46-1.48,24.26-2.39" id="Ske2xiw4j14" kvg:type="㇐b" transform="matrix(1,0,0,1,296,-4)" xmlns:kvg="http://kanjivg.tagaini.net"></path><path class="stroke_order_diagram--current_path" d="M25.92,16.75c1.08,1,2.26,2.75,2.26,4.47c0,4.78-0.2,46.28-0.2,59.66" id="kvg:0875f-s4" kvg:type="㇑a" transform="matrix(1,0,0,1,296,-4)" xmlns:kvg="http://kanjivg.tagaini.net"></path><path class="stroke_order_diagram--current_path" d="M25.92,16.75c1.08,1,2.26,2.75,2.26,4.47c0,4.78-0.2,46.28-0.2,59.66" id="Ske2xiw4j16" kvg:type="㇑a" transform="matrix(1,0,0,1,296,-4)" xmlns:kvg="http://kanjivg.tagaini.net"></path><circle class="stroke_order_diagram--path_start" cx="25.92" cy="16.75" r="4" transform="matrix(1,0,0,1,296,-4)"></circle><line class="stroke_order_diagram--guide_line" x1="450" x2="450" y1="1" y2="99"></line><line class="stroke_order_diagram--bounding_box" x1="499" x2="499" y1="1" y2="99"></line><path class="stroke_order_diagram--existing_path" d="M13.26,37.4c0.48,0.54,1.08,1.48,1.19,2.19c0.92,6.15,1.98,14.12,3.31,23.3" id="Ske2xiw4j19" kvg:type="㇑" transform="matrix(1,0,0,1,396,-4)" xmlns:kvg="http://kanjivg.tagaini.net"></path><path class="stroke_order_diagram--existing_path" d="M15.22,39.48c6.93-0.97,20.11-2.83,25.13-3.2c1.96-0.14,2.86,1.38,2.62,2.83c-0.83,4.98-1.98,10.84-3.33,19.12" id="Ske2xiw4j1a" kvg:type="㇕b" transform="matrix(1,0,0,1,396,-4)" xmlns:kvg="http://kanjivg.tagaini.net"></path><path class="stroke_order_diagram--existing_path" d="M17.76,60.43c5.58-0.98,16.46-1.48,24.26-2.39" id="Ske2xiw4j1b" kvg:type="㇐b" transform="matrix(1,0,0,1,396,-4)" xmlns:kvg="http://kanjivg.tagaini.net"></path><path class="stroke_order_diagram--existing_path" d="M25.92,16.75c1.08,1,2.26,2.75,2.26,4.47c0,4.78-0.2,46.28-0.2,59.66" id="Ske2xiw4j1c" kvg:type="㇑a" transform="matrix(1,0,0,1,396,-4)" xmlns:kvg="http://kanjivg.tagaini.net"></path><path class="stroke_order_diagram--current_path" d="M12.07,87.27c0.6,1.16,2.46,1.11,3.06,0.82c0.6-0.29,23.54-12.15,27.26-14.47" id="kvg:0875f-s5" kvg:type="㇀" transform="matrix(1,0,0,1,396,-4)" xmlns:kvg="http://kanjivg.tagaini.net"></path><path class="stroke_order_diagram--current_path" d="M12.07,87.27c0.6,1.16,2.46,1.11,3.06,0.82c0.6-0.29,23.54-12.15,27.26-14.47" id="Ske2xiw4j1e" kvg:type="㇀" transform="matrix(1,0,0,1,396,-4)" xmlns:kvg="http://kanjivg.tagaini.net"></path><circle class="stroke_order_diagram--path_start" cx="12.07" cy="87.27" r="4" transform="matrix(1,0,0,1,396,-4)"></circle><line class="stroke_order_diagram--guide_line" x1="550" x2="550" y1="1" y2="99"></line><line class="stroke_order_diagram--bounding_box" x1="599" x2="599" y1="1" y2="99"></line><path class="stroke_order_diagram--existing_path" d="M13.26,37.4c0.48,0.54,1.08,1.48,1.19,2.19c0.92,6.15,1.98,14.12,3.31,23.3" id="Ske2xiw4j1h" kvg:type="㇑" transform="matrix(1,0,0,1,496,-4)" xmlns:kvg="http://kanjivg.tagaini.net"></path><path class="stroke_order_diagram--existing_path" d="M15.22,39.48c6.93-0.97,20.11-2.83,25.13-3.2c1.96-0.14,2.86,1.38,2.62,2.83c-0.83,4.98-1.98,10.84-3.33,19.12" id="Ske2xiw4j1i" kvg:type="㇕b" transform="matrix(1,0,0,1,496,-4)" xmlns:kvg="http://kanjivg.tagaini.net"></path><path class="stroke_order_diagram--existing_path" d="M17.76,60.43c5.58-0.98,16.46-1.48,24.26-2.39" id="Ske2xiw4j1j" kvg:type="㇐b" transform="matrix(1,0,0,1,496,-4)" xmlns:kvg="http://kanjivg.tagaini.net"></path><path class="stroke_order_diagram--existing_path" d="M25.92,16.75c1.08,1,2.26,2.75,2.26,4.47c0,4.78-0.2,46.28-0.2,59.66" id="Ske2xiw4j1k" kvg:type="㇑a" transform="matrix(1,0,0,1,496,-4)" xmlns:kvg="http://kanjivg.tagaini.net"></path><path class="stroke_order_diagram--existing_path" d="M12.07,87.27c0.6,1.16,2.46,1.11,3.06,0.82c0.6-0.29,23.54-12.15,27.26-14.47" id="Ske2xiw4j1l" kvg:type="㇀" transform="matrix(1,0,0,1,496,-4)" xmlns:kvg="http://kanjivg.tagaini.net"></path><path class="stroke_order_diagram--current_path" d="M37.5,65.25c2.84,2.76,7.35,11.35,8.06,15.64" id="kvg:0875f-s6" kvg:type="㇔" transform="matrix(1,0,0,1,496,-4)" xmlns:kvg="http://kanjivg.tagaini.net"></path><path class="stroke_order_diagram--current_path" d="M37.5,65.25c2.84,2.76,7.35,11.35,8.06,15.64" id="Ske2xiw4j1n" kvg:type="㇔" transform="matrix(1,0,0,1,496,-4)" xmlns:kvg="http://kanjivg.tagaini.net"></path><circle class="stroke_order_diagram--path_start" cx="37.5" cy="65.25" r="4" transform="matrix(1,0,0,1,496,-4)"></circle><line class="stroke_order_diagram--guide_line" x1="650" x2="650" y1="1" y2="99"></line><line class="stroke_order_diagram--bounding_box" x1="699" x2="699" y1="1" y2="99"></line><path class="stroke_order_diagram--existing_path" d="M13.26,37.4c0.48,0.54,1.08,1.48,1.19,2.19c0.92,6.15,1.98,14.12,3.31,23.3" id="Ske2xiw4j1q" kvg:type="㇑" transform="matrix(1,0,0,1,596,-4)" xmlns:kvg="http://kanjivg.tagaini.net"></path><path class="stroke_order_diagram--existing_path" d="M15.22,39.48c6.93-0.97,20.11-2.83,25.13-3.2c1.96-0.14,2.86,1.38,2.62,2.83c-0.83,4.98-1.98,10.84-3.33,19.12" id="Ske2xiw4j1r" kvg:type="㇕b" transform="matrix(1,0,0,1,596,-4)" xmlns:kvg="http://kanjivg.tagaini.net"></path><path class="stroke_order_diagram--existing_path" d="M17.76,60.43c5.58-0.98,16.46-1.48,24.26-2.39" id="Ske2xiw4j1s" kvg:type="㇐b" transform="matrix(1,0,0,1,596,-4)" xmlns:kvg="http://kanjivg.tagaini.net"></path><path class="stroke_order_diagram--existing_path" d="M25.92,16.75c1.08,1,2.26,2.75,2.26,4.47c0,4.78-0.2,46.28-0.2,59.66" id="Ske2xiw4j1t" kvg:type="㇑a" transform="matrix(1,0,0,1,596,-4)" xmlns:kvg="http://kanjivg.tagaini.net"></path><path class="stroke_order_diagram--existing_path" d="M12.07,87.27c0.6,1.16,2.46,1.11,3.06,0.82c0.6-0.29,23.54-12.15,27.26-14.47" id="Ske2xiw4j1u" kvg:type="㇀" transform="matrix(1,0,0,1,596,-4)" xmlns:kvg="http://kanjivg.tagaini.net"></path><path class="stroke_order_diagram--existing_path" d="M37.5,65.25c2.84,2.76,7.35,11.35,8.06,15.64" id="Ske2xiw4j1v" kvg:type="㇔" transform="matrix(1,0,0,1,596,-4)" xmlns:kvg="http://kanjivg.tagaini.net"></path><path class="stroke_order_diagram--current_path" d="M49.38,14.5c0.29,0.49,0.63,1.3,0.78,1.91c1.28,5.02,3.94,16.19,4.69,25.53" id="kvg:0875f-s7" kvg:type="㇑" transform="matrix(1,0,0,1,596,-4)" xmlns:kvg="http://kanjivg.tagaini.net"></path><path class="stroke_order_diagram--current_path" d="M49.38,14.5c0.29,0.49,0.63,1.3,0.78,1.91c1.28,5.02,3.94,16.19,4.69,25.53" id="Ske2xiw4j1x" kvg:type="㇑" transform="matrix(1,0,0,1,596,-4)" xmlns:kvg="http://kanjivg.tagaini.net"></path><circle class="stroke_order_diagram--path_start" cx="49.38" cy="14.5" r="4" transform="matrix(1,0,0,1,596,-4)"></circle><line class="stroke_order_diagram--guide_line" x1="750" x2="750" y1="1" y2="99"></line><line class="stroke_order_diagram--bounding_box" x1="799" x2="799" y1="1" y2="99"></line><path class="stroke_order_diagram--existing_path" d="M13.26,37.4c0.48,0.54,1.08,1.48,1.19,2.19c0.92,6.15,1.98,14.12,3.31,23.3" id="Ske2xiw4j20" kvg:type="㇑" transform="matrix(1,0,0,1,696,-4)" xmlns:kvg="http://kanjivg.tagaini.net"></path><path class="stroke_order_diagram--existing_path" d="M15.22,39.48c6.93-0.97,20.11-2.83,25.13-3.2c1.96-0.14,2.86,1.38,2.62,2.83c-0.83,4.98-1.98,10.84-3.33,19.12" id="Ske2xiw4j21" kvg:type="㇕b" transform="matrix(1,0,0,1,696,-4)" xmlns:kvg="http://kanjivg.tagaini.net"></path><path class="stroke_order_diagram--existing_path" d="M17.76,60.43c5.58-0.98,16.46-1.48,24.26-2.39" id="Ske2xiw4j22" kvg:type="㇐b" transform="matrix(1,0,0,1,696,-4)" xmlns:kvg="http://kanjivg.tagaini.net"></path><path class="stroke_order_diagram--existing_path" d="M25.92,16.75c1.08,1,2.26,2.75,2.26,4.47c0,4.78-0.2,46.28-0.2,59.66" id="Ske2xiw4j23" kvg:type="㇑a" transform="matrix(1,0,0,1,696,-4)" xmlns:kvg="http://kanjivg.tagaini.net"></path><path class="stroke_order_diagram--existing_path" d="M12.07,87.27c0.6,1.16,2.46,1.11,3.06,0.82c0.6-0.29,23.54-12.15,27.26-14.47" id="Ske2xiw4j24" kvg:type="㇀" transform="matrix(1,0,0,1,696,-4)" xmlns:kvg="http://kanjivg.tagaini.net"></path><path class="stroke_order_diagram--existing_path" d="M37.5,65.25c2.84,2.76,7.35,11.35,8.06,15.64" id="Ske2xiw4j25" kvg:type="㇔" transform="matrix(1,0,0,1,696,-4)" xmlns:kvg="http://kanjivg.tagaini.net"></path><path class="stroke_order_diagram--existing_path" d="M49.38,14.5c0.29,0.49,0.63,1.3,0.78,1.91c1.28,5.02,3.94,16.19,4.69,25.53" id="Ske2xiw4j26" kvg:type="㇑" transform="matrix(1,0,0,1,696,-4)" xmlns:kvg="http://kanjivg.tagaini.net"></path><path class="stroke_order_diagram--current_path" d="M50.74,15.65c10.18-1.11,30.46-2.44,38.05-3.38c2.79-0.34,4.36,1.17,4.06,3.85c-0.57,5.03-1.86,12.52-3.24,23.05" id="kvg:0875f-s8" kvg:type="㇕a" transform="matrix(1,0,0,1,696,-4)" xmlns:kvg="http://kanjivg.tagaini.net"></path><path class="stroke_order_diagram--current_path" d="M50.74,15.65c10.18-1.11,30.46-2.44,38.05-3.38c2.79-0.34,4.36,1.17,4.06,3.85c-0.57,5.03-1.86,12.52-3.24,23.05" id="Ske2xiw4j28" kvg:type="㇕a" transform="matrix(1,0,0,1,696,-4)" xmlns:kvg="http://kanjivg.tagaini.net"></path><circle class="stroke_order_diagram--path_start" cx="50.74" cy="15.65" r="4" transform="matrix(1,0,0,1,696,-4)"></circle><line class="stroke_order_diagram--guide_line" x1="850" x2="850" y1="1" y2="99"></line><line class="stroke_order_diagram--bounding_box" x1="899" x2="899" y1="1" y2="99"></line><path class="stroke_order_diagram--existing_path" d="M13.26,37.4c0.48,0.54,1.08,1.48,1.19,2.19c0.92,6.15,1.98,14.12,3.31,23.3" id="Ske2xiw4j2b" kvg:type="㇑" transform="matrix(1,0,0,1,796,-4)" xmlns:kvg="http://kanjivg.tagaini.net"></path><path class="stroke_order_diagram--existing_path" d="M15.22,39.48c6.93-0.97,20.11-2.83,25.13-3.2c1.96-0.14,2.86,1.38,2.62,2.83c-0.83,4.98-1.98,10.84-3.33,19.12" id="Ske2xiw4j2c" kvg:type="㇕b" transform="matrix(1,0,0,1,796,-4)" xmlns:kvg="http://kanjivg.tagaini.net"></path><path class="stroke_order_diagram--existing_path" d="M17.76,60.43c5.58-0.98,16.46-1.48,24.26-2.39" id="Ske2xiw4j2d" kvg:type="㇐b" transform="matrix(1,0,0,1,796,-4)" xmlns:kvg="http://kanjivg.tagaini.net"></path><path class="stroke_order_diagram--existing_path" d="M25.92,16.75c1.08,1,2.26,2.75,2.26,4.47c0,4.78-0.2,46.28-0.2,59.66" id="Ske2xiw4j2e" kvg:type="㇑a" transform="matrix(1,0,0,1,796,-4)" xmlns:kvg="http://kanjivg.tagaini.net"></path><path class="stroke_order_diagram--existing_path" d="M12.07,87.27c0.6,1.16,2.46,1.11,3.06,0.82c0.6-0.29,23.54-12.15,27.26-14.47" id="Ske2xiw4j2f" kvg:type="㇀" transform="matrix(1,0,0,1,796,-4)" xmlns:kvg="http://kanjivg.tagaini.net"></path><path class="stroke_order_diagram--existing_path" d="M37.5,65.25c2.84,2.76,7.35,11.35,8.06,15.64" id="Ske2xiw4j2g" kvg:type="㇔" transform="matrix(1,0,0,1,796,-4)" xmlns:kvg="http://kanjivg.tagaini.net"></path><path class="stroke_order_diagram--existing_path" d="M49.38,14.5c0.29,0.49,0.63,1.3,0.78,1.91c1.28,5.02,3.94,16.19,4.69,25.53" id="Ske2xiw4j2h" kvg:type="㇑" transform="matrix(1,0,0,1,796,-4)" xmlns:kvg="http://kanjivg.tagaini.net"></path><path class="stroke_order_diagram--existing_path" d="M50.74,15.65c10.18-1.11,30.46-2.44,38.05-3.38c2.79-0.34,4.36,1.17,4.06,3.85c-0.57,5.03-1.86,12.52-3.24,23.05" id="Ske2xiw4j2i" kvg:type="㇕a" transform="matrix(1,0,0,1,796,-4)" xmlns:kvg="http://kanjivg.tagaini.net"></path><path class="stroke_order_diagram--current_path" d="M70.19,14.92c0.52,0.4,1.1,2.5,1.1,4.17c0,7.65-0.08,10.46-0.08,18.52" id="kvg:0875f-s9" kvg:type="㇑a" transform="matrix(1,0,0,1,796,-4)" xmlns:kvg="http://kanjivg.tagaini.net"></path><path class="stroke_order_diagram--current_path" d="M70.19,14.92c0.52,0.4,1.1,2.5,1.1,4.17c0,7.65-0.08,10.46-0.08,18.52" id="Ske2xiw4j2k" kvg:type="㇑a" transform="matrix(1,0,0,1,796,-4)" xmlns:kvg="http://kanjivg.tagaini.net"></path><circle class="stroke_order_diagram--path_start" cx="70.19" cy="14.92" r="4" transform="matrix(1,0,0,1,796,-4)"></circle><line class="stroke_order_diagram--guide_line" x1="950" x2="950" y1="1" y2="99"></line><line class="stroke_order_diagram--bounding_box" x1="999" x2="999" y1="1" y2="99"></line><path class="stroke_order_diagram--existing_path" d="M13.26,37.4c0.48,0.54,1.08,1.48,1.19,2.19c0.92,6.15,1.98,14.12,3.31,23.3" id="Ske2xiw4j2n" kvg:type="㇑" transform="matrix(1,0,0,1,896,-4)" xmlns:kvg="http://kanjivg.tagaini.net"></path><path class="stroke_order_diagram--existing_path" d="M15.22,39.48c6.93-0.97,20.11-2.83,25.13-3.2c1.96-0.14,2.86,1.38,2.62,2.83c-0.83,4.98-1.98,10.84-3.33,19.12" id="Ske2xiw4j2o" kvg:type="㇕b" transform="matrix(1,0,0,1,896,-4)" xmlns:kvg="http://kanjivg.tagaini.net"></path><path class="stroke_order_diagram--existing_path" d="M17.76,60.43c5.58-0.98,16.46-1.48,24.26-2.39" id="Ske2xiw4j2p" kvg:type="㇐b" transform="matrix(1,0,0,1,896,-4)" xmlns:kvg="http://kanjivg.tagaini.net"></path><path class="stroke_order_diagram--existing_path" d="M25.92,16.75c1.08,1,2.26,2.75,2.26,4.47c0,4.78-0.2,46.28-0.2,59.66" id="Ske2xiw4j2q" kvg:type="㇑a" transform="matrix(1,0,0,1,896,-4)" xmlns:kvg="http://kanjivg.tagaini.net"></path><path class="stroke_order_diagram--existing_path" d="M12.07,87.27c0.6,1.16,2.46,1.11,3.06,0.82c0.6-0.29,23.54-12.15,27.26-14.47" id="Ske2xiw4j2r" kvg:type="㇀" transform="matrix(1,0,0,1,896,-4)" xmlns:kvg="http://kanjivg.tagaini.net"></path><path class="stroke_order_diagram--existing_path" d="M37.5,65.25c2.84,2.76,7.35,11.35,8.06,15.64" id="Ske2xiw4j2s" kvg:type="㇔" transform="matrix(1,0,0,1,896,-4)" xmlns:kvg="http://kanjivg.tagaini.net"></path><path class="stroke_order_diagram--existing_path" d="M49.38,14.5c0.29,0.49,0.63,1.3,0.78,1.91c1.28,5.02,3.94,16.19,4.69,25.53" id="Ske2xiw4j2t" kvg:type="㇑" transform="matrix(1,0,0,1,896,-4)" xmlns:kvg="http://kanjivg.tagaini.net"></path><path class="stroke_order_diagram--existing_path" d="M50.74,15.65c10.18-1.11,30.46-2.44,38.05-3.38c2.79-0.34,4.36,1.17,4.06,3.85c-0.57,5.03-1.86,12.52-3.24,23.05" id="Ske2xiw4j2u" kvg:type="㇕a" transform="matrix(1,0,0,1,896,-4)" xmlns:kvg="http://kanjivg.tagaini.net"></path><path class="stroke_order_diagram--existing_path" d="M70.19,14.92c0.52,0.4,1.1,2.5,1.1,4.17c0,7.65-0.08,10.46-0.08,18.52" id="Ske2xiw4j2v" kvg:type="㇑a" transform="matrix(1,0,0,1,896,-4)" xmlns:kvg="http://kanjivg.tagaini.net"></path><path class="stroke_order_diagram--current_path" d="M53.06,27.63c4.69-0.38,34.77-2.59,37.51-2.75" id="kvg:0875f-s10" kvg:type="㇐a" transform="matrix(1,0,0,1,896,-4)" xmlns:kvg="http://kanjivg.tagaini.net"></path><path class="stroke_order_diagram--current_path" d="M53.06,27.63c4.69-0.38,34.77-2.59,37.51-2.75" id="Ske2xiw4j2x" kvg:type="㇐a" transform="matrix(1,0,0,1,896,-4)" xmlns:kvg="http://kanjivg.tagaini.net"></path><circle class="stroke_order_diagram--path_start" cx="53.06" cy="27.63" r="4" transform="matrix(1,0,0,1,896,-4)"></circle><line class="stroke_order_diagram--guide_line" x1="1050" x2="1050" y1="1" y2="99"></line><line class="stroke_order_diagram--bounding_box" x1="1099" x2="1099" y1="1" y2="99"></line><path class="stroke_order_diagram--existing_path" d="M13.26,37.4c0.48,0.54,1.08,1.48,1.19,2.19c0.92,6.15,1.98,14.12,3.31,23.3" id="Ske2xiw4j30" kvg:type="㇑" transform="matrix(1,0,0,1,996,-4)" xmlns:kvg="http://kanjivg.tagaini.net"></path><path class="stroke_order_diagram--existing_path" d="M15.22,39.48c6.93-0.97,20.11-2.83,25.13-3.2c1.96-0.14,2.86,1.38,2.62,2.83c-0.83,4.98-1.98,10.84-3.33,19.12" id="Ske2xiw4j31" kvg:type="㇕b" transform="matrix(1,0,0,1,996,-4)" xmlns:kvg="http://kanjivg.tagaini.net"></path><path class="stroke_order_diagram--existing_path" d="M17.76,60.43c5.58-0.98,16.46-1.48,24.26-2.39" id="Ske2xiw4j32" kvg:type="㇐b" transform="matrix(1,0,0,1,996,-4)" xmlns:kvg="http://kanjivg.tagaini.net"></path><path class="stroke_order_diagram--existing_path" d="M25.92,16.75c1.08,1,2.26,2.75,2.26,4.47c0,4.78-0.2,46.28-0.2,59.66" id="Ske2xiw4j33" kvg:type="㇑a" transform="matrix(1,0,0,1,996,-4)" xmlns:kvg="http://kanjivg.tagaini.net"></path><path class="stroke_order_diagram--existing_path" d="M12.07,87.27c0.6,1.16,2.46,1.11,3.06,0.82c0.6-0.29,23.54-12.15,27.26-14.47" id="Ske2xiw4j34" kvg:type="㇀" transform="matrix(1,0,0,1,996,-4)" xmlns:kvg="http://kanjivg.tagaini.net"></path><path class="stroke_order_diagram--existing_path" d="M37.5,65.25c2.84,2.76,7.35,11.35,8.06,15.64" id="Ske2xiw4j35" kvg:type="㇔" transform="matrix(1,0,0,1,996,-4)" xmlns:kvg="http://kanjivg.tagaini.net"></path><path class="stroke_order_diagram--existing_path" d="M49.38,14.5c0.29,0.49,0.63,1.3,0.78,1.91c1.28,5.02,3.94,16.19,4.69,25.53" id="Ske2xiw4j36" kvg:type="㇑" transform="matrix(1,0,0,1,996,-4)" xmlns:kvg="http://kanjivg.tagaini.net"></path><path class="stroke_order_diagram--existing_path" d="M50.74,15.65c10.18-1.11,30.46-2.44,38.05-3.38c2.79-0.34,4.36,1.17,4.06,3.85c-0.57,5.03-1.86,12.52-3.24,23.05" id="Ske2xiw4j37" kvg:type="㇕a" transform="matrix(1,0,0,1,996,-4)" xmlns:kvg="http://kanjivg.tagaini.net"></path><path class="stroke_order_diagram--existing_path" d="M70.19,14.92c0.52,0.4,1.1,2.5,1.1,4.17c0,7.65-0.08,10.46-0.08,18.52" id="Ske2xiw4j38" kvg:type="㇑a" transform="matrix(1,0,0,1,996,-4)" xmlns:kvg="http://kanjivg.tagaini.net"></path><path class="stroke_order_diagram--existing_path" d="M53.06,27.63c4.69-0.38,34.77-2.59,37.51-2.75" id="Ske2xiw4j39" kvg:type="㇐a" transform="matrix(1,0,0,1,996,-4)" xmlns:kvg="http://kanjivg.tagaini.net"></path><path class="stroke_order_diagram--current_path" d="M55.39,39.61c9.61-1.11,24.2-2,34.32-2.73" id="kvg:0875f-s11" kvg:type="㇐a" transform="matrix(1,0,0,1,996,-4)" xmlns:kvg="http://kanjivg.tagaini.net"></path><path class="stroke_order_diagram--current_path" d="M55.39,39.61c9.61-1.11,24.2-2,34.32-2.73" id="Ske2xiw4j3b" kvg:type="㇐a" transform="matrix(1,0,0,1,996,-4)" xmlns:kvg="http://kanjivg.tagaini.net"></path><circle class="stroke_order_diagram--path_start" cx="55.39" cy="39.61" r="4" transform="matrix(1,0,0,1,996,-4)"></circle><line class="stroke_order_diagram--guide_line" x1="1150" x2="1150" y1="1" y2="99"></line><line class="stroke_order_diagram--bounding_box" x1="1199" x2="1199" y1="1" y2="99"></line><path class="stroke_order_diagram--existing_path" d="M13.26,37.4c0.48,0.54,1.08,1.48,1.19,2.19c0.92,6.15,1.98,14.12,3.31,23.3" id="Ske2xiw4j3e" kvg:type="㇑" transform="matrix(1,0,0,1,1096,-4)" xmlns:kvg="http://kanjivg.tagaini.net"></path><path class="stroke_order_diagram--existing_path" d="M15.22,39.48c6.93-0.97,20.11-2.83,25.13-3.2c1.96-0.14,2.86,1.38,2.62,2.83c-0.83,4.98-1.98,10.84-3.33,19.12" id="Ske2xiw4j3f" kvg:type="㇕b" transform="matrix(1,0,0,1,1096,-4)" xmlns:kvg="http://kanjivg.tagaini.net"></path><path class="stroke_order_diagram--existing_path" d="M17.76,60.43c5.58-0.98,16.46-1.48,24.26-2.39" id="Ske2xiw4j3g" kvg:type="㇐b" transform="matrix(1,0,0,1,1096,-4)" xmlns:kvg="http://kanjivg.tagaini.net"></path><path class="stroke_order_diagram--existing_path" d="M25.92,16.75c1.08,1,2.26,2.75,2.26,4.47c0,4.78-0.2,46.28-0.2,59.66" id="Ske2xiw4j3h" kvg:type="㇑a" transform="matrix(1,0,0,1,1096,-4)" xmlns:kvg="http://kanjivg.tagaini.net"></path><path class="stroke_order_diagram--existing_path" d="M12.07,87.27c0.6,1.16,2.46,1.11,3.06,0.82c0.6-0.29,23.54-12.15,27.26-14.47" id="Ske2xiw4j3i" kvg:type="㇀" transform="matrix(1,0,0,1,1096,-4)" xmlns:kvg="http://kanjivg.tagaini.net"></path><path class="stroke_order_diagram--existing_path" d="M37.5,65.25c2.84,2.76,7.35,11.35,8.06,15.64" id="Ske2xiw4j3j" kvg:type="㇔" transform="matrix(1,0,0,1,1096,-4)" xmlns:kvg="http://kanjivg.tagaini.net"></path><path class="stroke_order_diagram--existing_path" d="M49.38,14.5c0.29,0.49,0.63,1.3,0.78,1.91c1.28,5.02,3.94,16.19,4.69,25.53" id="Ske2xiw4j3k" kvg:type="㇑" transform="matrix(1,0,0,1,1096,-4)" xmlns:kvg="http://kanjivg.tagaini.net"></path><path class="stroke_order_diagram--existing_path" d="M50.74,15.65c10.18-1.11,30.46-2.44,38.05-3.38c2.79-0.34,4.36,1.17,4.06,3.85c-0.57,5.03-1.86,12.52-3.24,23.05" id="Ske2xiw4j3l" kvg:type="㇕a" transform="matrix(1,0,0,1,1096,-4)" xmlns:kvg="http://kanjivg.tagaini.net"></path><path class="stroke_order_diagram--existing_path" d="M70.19,14.92c0.52,0.4,1.1,2.5,1.1,4.17c0,7.65-0.08,10.46-0.08,18.52" id="Ske2xiw4j3m" kvg:type="㇑a" transform="matrix(1,0,0,1,1096,-4)" xmlns:kvg="http://kanjivg.tagaini.net"></path><path class="stroke_order_diagram--existing_path" d="M53.06,27.63c4.69-0.38,34.77-2.59,37.51-2.75" id="Ske2xiw4j3n" kvg:type="㇐a" transform="matrix(1,0,0,1,1096,-4)" xmlns:kvg="http://kanjivg.tagaini.net"></path><path class="stroke_order_diagram--existing_path" d="M55.39,39.61c9.61-1.11,24.2-2,34.32-2.73" id="Ske2xiw4j3o" kvg:type="㇐a" transform="matrix(1,0,0,1,1096,-4)" xmlns:kvg="http://kanjivg.tagaini.net"></path><path class="stroke_order_diagram--current_path" d="M56.38,50.47c0.6,0.71,0.99,1.98,1.2,2.7c0.2,0.72,0.35,44.43,0.28,46.06" id="kvg:0875f-s12" kvg:type="㇒" transform="matrix(1,0,0,1,1096,-4)" xmlns:kvg="http://kanjivg.tagaini.net"></path><path class="stroke_order_diagram--current_path" d="M56.38,50.47c0.6,0.71,0.99,1.98,1.2,2.7c0.2,0.72,0.35,44.43,0.28,46.06" id="Ske2xiw4j3q" kvg:type="㇒" transform="matrix(1,0,0,1,1096,-4)" xmlns:kvg="http://kanjivg.tagaini.net"></path><circle class="stroke_order_diagram--path_start" cx="56.38" cy="50.47" r="4" transform="matrix(1,0,0,1,1096,-4)"></circle><line class="stroke_order_diagram--guide_line" x1="1250" x2="1250" y1="1" y2="99"></line><line class="stroke_order_diagram--bounding_box" x1="1299" x2="1299" y1="1" y2="99"></line><path class="stroke_order_diagram--existing_path" d="M13.26,37.4c0.48,0.54,1.08,1.48,1.19,2.19c0.92,6.15,1.98,14.12,3.31,23.3" id="Ske2xiw4j3t" kvg:type="㇑" transform="matrix(1,0,0,1,1196,-4)" xmlns:kvg="http://kanjivg.tagaini.net"></path><path class="stroke_order_diagram--existing_path" d="M15.22,39.48c6.93-0.97,20.11-2.83,25.13-3.2c1.96-0.14,2.86,1.38,2.62,2.83c-0.83,4.98-1.98,10.84-3.33,19.12" id="Ske2xiw4j3u" kvg:type="㇕b" transform="matrix(1,0,0,1,1196,-4)" xmlns:kvg="http://kanjivg.tagaini.net"></path><path class="stroke_order_diagram--existing_path" d="M17.76,60.43c5.58-0.98,16.46-1.48,24.26-2.39" id="Ske2xiw4j3v" kvg:type="㇐b" transform="matrix(1,0,0,1,1196,-4)" xmlns:kvg="http://kanjivg.tagaini.net"></path><path class="stroke_order_diagram--existing_path" d="M25.92,16.75c1.08,1,2.26,2.75,2.26,4.47c0,4.78-0.2,46.28-0.2,59.66" id="Ske2xiw4j3w" kvg:type="㇑a" transform="matrix(1,0,0,1,1196,-4)" xmlns:kvg="http://kanjivg.tagaini.net"></path><path class="stroke_order_diagram--existing_path" d="M12.07,87.27c0.6,1.16,2.46,1.11,3.06,0.82c0.6-0.29,23.54-12.15,27.26-14.47" id="Ske2xiw4j3x" kvg:type="㇀" transform="matrix(1,0,0,1,1196,-4)" xmlns:kvg="http://kanjivg.tagaini.net"></path><path class="stroke_order_diagram--existing_path" d="M37.5,65.25c2.84,2.76,7.35,11.35,8.06,15.64" id="Ske2xiw4j3y" kvg:type="㇔" transform="matrix(1,0,0,1,1196,-4)" xmlns:kvg="http://kanjivg.tagaini.net"></path><path class="stroke_order_diagram--existing_path" d="M49.38,14.5c0.29,0.49,0.63,1.3,0.78,1.91c1.28,5.02,3.94,16.19,4.69,25.53" id="Ske2xiw4j3z" kvg:type="㇑" transform="matrix(1,0,0,1,1196,-4)" xmlns:kvg="http://kanjivg.tagaini.net"></path><path class="stroke_order_diagram--existing_path" d="M50.74,15.65c10.18-1.11,30.46-2.44,38.05-3.38c2.79-0.34,4.36,1.17,4.06,3.85c-0.57,5.03-1.86,12.52-3.24,23.05" id="Ske2xiw4j40" kvg:type="㇕a" transform="matrix(1,0,0,1,1196,-4)" xmlns:kvg="http://kanjivg.tagaini.net"></path><path class="stroke_order_diagram--existing_path" d="M70.19,14.92c0.52,0.4,1.1,2.5,1.1,4.17c0,7.65-0.08,10.46-0.08,18.52" id="Ske2xiw4j41" kvg:type="㇑a" transform="matrix(1,0,0,1,1196,-4)" xmlns:kvg="http://kanjivg.tagaini.net"></path><path class="stroke_order_diagram--existing_path" d="M53.06,27.63c4.69-0.38,34.77-2.59,37.51-2.75" id="Ske2xiw4j42" kvg:type="㇐a" transform="matrix(1,0,0,1,1196,-4)" xmlns:kvg="http://kanjivg.tagaini.net"></path><path class="stroke_order_diagram--existing_path" d="M55.39,39.61c9.61-1.11,24.2-2,34.32-2.73" id="Ske2xiw4j43" kvg:type="㇐a" transform="matrix(1,0,0,1,1196,-4)" xmlns:kvg="http://kanjivg.tagaini.net"></path><path class="stroke_order_diagram--existing_path" d="M56.38,50.47c0.6,0.71,0.99,1.98,1.2,2.7c0.2,0.72,0.35,44.43,0.28,46.06" id="Ske2xiw4j44" kvg:type="㇒" transform="matrix(1,0,0,1,1196,-4)" xmlns:kvg="http://kanjivg.tagaini.net"></path><path class="stroke_order_diagram--current_path" d="M57.58,51.19c2.38-0.23,25.36-2.25,27.13-2.49c3.17-0.43,3.97,2.13,3.97,3.36c0,2.75-0.07,25.33-0.07,40.02c0,11.77-6.38,1.74-7.17,0.85" id="kvg:0875f-s13" kvg:type="㇆a" transform="matrix(1,0,0,1,1196,-4)" xmlns:kvg="http://kanjivg.tagaini.net"></path><path class="stroke_order_diagram--current_path" d="M57.58,51.19c2.38-0.23,25.36-2.25,27.13-2.49c3.17-0.43,3.97,2.13,3.97,3.36c0,2.75-0.07,25.33-0.07,40.02c0,11.77-6.38,1.74-7.17,0.85" id="Ske2xiw4j46" kvg:type="㇆a" transform="matrix(1,0,0,1,1196,-4)" xmlns:kvg="http://kanjivg.tagaini.net"></path><circle class="stroke_order_diagram--path_start" cx="57.58" cy="51.19" r="4" transform="matrix(1,0,0,1,1196,-4)"></circle><line class="stroke_order_diagram--guide_line" x1="1350" x2="1350" y1="1" y2="99"></line><line class="stroke_order_diagram--bounding_box" x1="1399" x2="1399" y1="1" y2="99"></line><path class="stroke_order_diagram--existing_path" d="M13.26,37.4c0.48,0.54,1.08,1.48,1.19,2.19c0.92,6.15,1.98,14.12,3.31,23.3" id="Ske2xiw4j49" kvg:type="㇑" transform="matrix(1,0,0,1,1296,-4)" xmlns:kvg="http://kanjivg.tagaini.net"></path><path class="stroke_order_diagram--existing_path" d="M15.22,39.48c6.93-0.97,20.11-2.83,25.13-3.2c1.96-0.14,2.86,1.38,2.62,2.83c-0.83,4.98-1.98,10.84-3.33,19.12" id="Ske2xiw4j4a" kvg:type="㇕b" transform="matrix(1,0,0,1,1296,-4)" xmlns:kvg="http://kanjivg.tagaini.net"></path><path class="stroke_order_diagram--existing_path" d="M17.76,60.43c5.58-0.98,16.46-1.48,24.26-2.39" id="Ske2xiw4j4b" kvg:type="㇐b" transform="matrix(1,0,0,1,1296,-4)" xmlns:kvg="http://kanjivg.tagaini.net"></path><path class="stroke_order_diagram--existing_path" d="M25.92,16.75c1.08,1,2.26,2.75,2.26,4.47c0,4.78-0.2,46.28-0.2,59.66" id="Ske2xiw4j4c" kvg:type="㇑a" transform="matrix(1,0,0,1,1296,-4)" xmlns:kvg="http://kanjivg.tagaini.net"></path><path class="stroke_order_diagram--existing_path" d="M12.07,87.27c0.6,1.16,2.46,1.11,3.06,0.82c0.6-0.29,23.54-12.15,27.26-14.47" id="Ske2xiw4j4d" kvg:type="㇀" transform="matrix(1,0,0,1,1296,-4)" xmlns:kvg="http://kanjivg.tagaini.net"></path><path class="stroke_order_diagram--existing_path" d="M37.5,65.25c2.84,2.76,7.35,11.35,8.06,15.64" id="Ske2xiw4j4e" kvg:type="㇔" transform="matrix(1,0,0,1,1296,-4)" xmlns:kvg="http://kanjivg.tagaini.net"></path><path class="stroke_order_diagram--existing_path" d="M49.38,14.5c0.29,0.49,0.63,1.3,0.78,1.91c1.28,5.02,3.94,16.19,4.69,25.53" id="Ske2xiw4j4f" kvg:type="㇑" transform="matrix(1,0,0,1,1296,-4)" xmlns:kvg="http://kanjivg.tagaini.net"></path><path class="stroke_order_diagram--existing_path" d="M50.74,15.65c10.18-1.11,30.46-2.44,38.05-3.38c2.79-0.34,4.36,1.17,4.06,3.85c-0.57,5.03-1.86,12.52-3.24,23.05" id="Ske2xiw4j4g" kvg:type="㇕a" transform="matrix(1,0,0,1,1296,-4)" xmlns:kvg="http://kanjivg.tagaini.net"></path><path class="stroke_order_diagram--existing_path" d="M70.19,14.92c0.52,0.4,1.1,2.5,1.1,4.17c0,7.65-0.08,10.46-0.08,18.52" id="Ske2xiw4j4h" kvg:type="㇑a" transform="matrix(1,0,0,1,1296,-4)" xmlns:kvg="http://kanjivg.tagaini.net"></path><path class="stroke_order_diagram--existing_path" d="M53.06,27.63c4.69-0.38,34.77-2.59,37.51-2.75" id="Ske2xiw4j4i" kvg:type="㇐a" transform="matrix(1,0,0,1,1296,-4)" xmlns:kvg="http://kanjivg.tagaini.net"></path><path class="stroke_order_diagram--existing_path" d="M55.39,39.61c9.61-1.11,24.2-2,34.32-2.73" id="Ske2xiw4j4j" kvg:type="㇐a" transform="matrix(1,0,0,1,1296,-4)" xmlns:kvg="http://kanjivg.tagaini.net"></path><path class="stroke_order_diagram--existing_path" d="M56.38,50.47c0.6,0.71,0.99,1.98,1.2,2.7c0.2,0.72,0.35,44.43,0.28,46.06" id="Ske2xiw4j4k" kvg:type="㇒" transform="matrix(1,0,0,1,1296,-4)" xmlns:kvg="http://kanjivg.tagaini.net"></path><path class="stroke_order_diagram--existing_path" d="M57.58,51.19c2.38-0.23,25.36-2.25,27.13-2.49c3.17-0.43,3.97,2.13,3.97,3.36c0,2.75-0.07,25.33-0.07,40.02c0,11.77-6.38,1.74-7.17,0.85" id="Ske2xiw4j4l" kvg:type="㇆a" transform="matrix(1,0,0,1,1296,-4)" xmlns:kvg="http://kanjivg.tagaini.net"></path><path class="stroke_order_diagram--current_path" d="M58.3,63.97c8.12-1.26,22.89-2.11,30.02-2.8" id="kvg:0875f-s14" kvg:type="㇐a" transform="matrix(1,0,0,1,1296,-4)" xmlns:kvg="http://kanjivg.tagaini.net"></path><path class="stroke_order_diagram--current_path" d="M58.3,63.97c8.12-1.26,22.89-2.11,30.02-2.8" id="Ske2xiw4j4n" kvg:type="㇐a" transform="matrix(1,0,0,1,1296,-4)" xmlns:kvg="http://kanjivg.tagaini.net"></path><circle class="stroke_order_diagram--path_start" cx="58.3" cy="63.97" r="4" transform="matrix(1,0,0,1,1296,-4)"></circle><line class="stroke_order_diagram--guide_line" x1="1450" x2="1450" y1="1" y2="99"></line><line class="stroke_order_diagram--bounding_box" x1="1499" x2="1499" y1="1" y2="99"></line><path class="stroke_order_diagram--existing_path" d="M13.26,37.4c0.48,0.54,1.08,1.48,1.19,2.19c0.92,6.15,1.98,14.12,3.31,23.3" id="Ske2xiw4j4q" kvg:type="㇑" transform="matrix(1,0,0,1,1396,-4)" xmlns:kvg="http://kanjivg.tagaini.net"></path><path class="stroke_order_diagram--existing_path" d="M15.22,39.48c6.93-0.97,20.11-2.83,25.13-3.2c1.96-0.14,2.86,1.38,2.62,2.83c-0.83,4.98-1.98,10.84-3.33,19.12" id="Ske2xiw4j4r" kvg:type="㇕b" transform="matrix(1,0,0,1,1396,-4)" xmlns:kvg="http://kanjivg.tagaini.net"></path><path class="stroke_order_diagram--existing_path" d="M17.76,60.43c5.58-0.98,16.46-1.48,24.26-2.39" id="Ske2xiw4j4s" kvg:type="㇐b" transform="matrix(1,0,0,1,1396,-4)" xmlns:kvg="http://kanjivg.tagaini.net"></path><path class="stroke_order_diagram--existing_path" d="M25.92,16.75c1.08,1,2.26,2.75,2.26,4.47c0,4.78-0.2,46.28-0.2,59.66" id="Ske2xiw4j4t" kvg:type="㇑a" transform="matrix(1,0,0,1,1396,-4)" xmlns:kvg="http://kanjivg.tagaini.net"></path><path class="stroke_order_diagram--existing_path" d="M12.07,87.27c0.6,1.16,2.46,1.11,3.06,0.82c0.6-0.29,23.54-12.15,27.26-14.47" id="Ske2xiw4j4u" kvg:type="㇀" transform="matrix(1,0,0,1,1396,-4)" xmlns:kvg="http://kanjivg.tagaini.net"></path><path class="stroke_order_diagram--existing_path" d="M37.5,65.25c2.84,2.76,7.35,11.35,8.06,15.64" id="Ske2xiw4j4v" kvg:type="㇔" transform="matrix(1,0,0,1,1396,-4)" xmlns:kvg="http://kanjivg.tagaini.net"></path><path class="stroke_order_diagram--existing_path" d="M49.38,14.5c0.29,0.49,0.63,1.3,0.78,1.91c1.28,5.02,3.94,16.19,4.69,25.53" id="Ske2xiw4j4w" kvg:type="㇑" transform="matrix(1,0,0,1,1396,-4)" xmlns:kvg="http://kanjivg.tagaini.net"></path><path class="stroke_order_diagram--existing_path" d="M50.74,15.65c10.18-1.11,30.46-2.44,38.05-3.38c2.79-0.34,4.36,1.17,4.06,3.85c-0.57,5.03-1.86,12.52-3.24,23.05" id="Ske2xiw4j4x" kvg:type="㇕a" transform="matrix(1,0,0,1,1396,-4)" xmlns:kvg="http://kanjivg.tagaini.net"></path><path class="stroke_order_diagram--existing_path" d="M70.19,14.92c0.52,0.4,1.1,2.5,1.1,4.17c0,7.65-0.08,10.46-0.08,18.52" id="Ske2xiw4j4y" kvg:type="㇑a" transform="matrix(1,0,0,1,1396,-4)" xmlns:kvg="http://kanjivg.tagaini.net"></path><path class="stroke_order_diagram--existing_path" d="M53.06,27.63c4.69-0.38,34.77-2.59,37.51-2.75" id="Ske2xiw4j4z" kvg:type="㇐a" transform="matrix(1,0,0,1,1396,-4)" xmlns:kvg="http://kanjivg.tagaini.net"></path><path class="stroke_order_diagram--existing_path" d="M55.39,39.61c9.61-1.11,24.2-2,34.32-2.73" id="Ske2xiw4j50" kvg:type="㇐a" transform="matrix(1,0,0,1,1396,-4)" xmlns:kvg="http://kanjivg.tagaini.net"></path><path class="stroke_order_diagram--existing_path" d="M56.38,50.47c0.6,0.71,0.99,1.98,1.2,2.7c0.2,0.72,0.35,44.43,0.28,46.06" id="Ske2xiw4j51" kvg:type="㇒" transform="matrix(1,0,0,1,1396,-4)" xmlns:kvg="http://kanjivg.tagaini.net"></path><path class="stroke_order_diagram--existing_path" d="M57.58,51.19c2.38-0.23,25.36-2.25,27.13-2.49c3.17-0.43,3.97,2.13,3.97,3.36c0,2.75-0.07,25.33-0.07,40.02c0,11.77-6.38,1.74-7.17,0.85" id="Ske2xiw4j52" kvg:type="㇆a" transform="matrix(1,0,0,1,1396,-4)" xmlns:kvg="http://kanjivg.tagaini.net"></path><path class="stroke_order_diagram--existing_path" d="M58.3,63.97c8.12-1.26,22.89-2.11,30.02-2.8" id="Ske2xiw4j53" kvg:type="㇐a" transform="matrix(1,0,0,1,1396,-4)" xmlns:kvg="http://kanjivg.tagaini.net"></path><path class="stroke_order_diagram--current_path" d="M57.93,76.59c6.34-0.68,22.7-2.04,30.04-2.55" id="kvg:0875f-s15" kvg:type="㇐a" transform="matrix(1,0,0,1,1396,-4)" xmlns:kvg="http://kanjivg.tagaini.net"></path><path class="stroke_order_diagram--current_path" d="M57.93,76.59c6.34-0.68,22.7-2.04,30.04-2.55" id="Ske2xiw4j55" kvg:type="㇐a" transform="matrix(1,0,0,1,1396,-4)" xmlns:kvg="http://kanjivg.tagaini.net"></path><circle class="stroke_order_diagram--path_start" cx="57.93" cy="76.59" r="4" transform="matrix(1,0,0,1,1396,-4)"></circle></svg>