<svg class="stroke_order_diagram--svg_container_for_518662bbd5dda79658001523" style="height: 100px; width: 1500px;" viewbox="0 0 1500 100"><desc>Created with Snap</desc><defs></defs><line class="stroke_order_diagram--bounding_box" x1="1" x2="1499" y1="1" y2="1"></line><line class="stroke_order_diagram--bounding_box" x1="1" x2="1" y1="1" y2="99"></line><line class="stroke_order_diagram--bounding_box" x1="1" x2="1499" y1="99" y2="99"></line><line class="stroke_order_diagram--guide_line" x1="0" x2="1500" y1="50" y2="50"></line><line class="stroke_order_diagram--guide_line" x1="50" x2="50" y1="1" y2="99"></line><line class="stroke_order_diagram--bounding_box" x1="99" x2="99" y1="1" y2="99"></line><path class="stroke_order_diagram--current_path" d="M11.26,35.54c0.39,0.54,0.87,1.49,0.96,2.2c0.74,6.18,1.6,14.18,2.67,23.4" id="kvg:08763-s1" kvg:type="㇑" transform="matrix(1,0,0,1,-4,-4)" xmlns:kvg="http://kanjivg.tagaini.net"></path><path class="stroke_order_diagram--current_path" d="M11.26,35.54c0.39,0.54,0.87,1.49,0.96,2.2c0.74,6.18,1.6,14.18,2.67,23.4" id="Ske2xlwc5o" kvg:type="㇑" transform="matrix(1,0,0,1,-4,-4)" xmlns:kvg="http://kanjivg.tagaini.net"></path><circle class="stroke_order_diagram--path_start" cx="11.26" cy="35.54" r="4" transform="matrix(1,0,0,1,-4,-4)"></circle><line class="stroke_order_diagram--guide_line" x1="150" x2="150" y1="1" y2="99"></line><line class="stroke_order_diagram--bounding_box" x1="199" x2="199" y1="1" y2="99"></line><path class="stroke_order_diagram--existing_path" d="M11.26,35.54c0.39,0.54,0.87,1.49,0.96,2.2c0.74,6.18,1.6,14.18,2.67,23.4" id="Ske2xlwc5r" kvg:type="㇑" transform="matrix(1,0,0,1,96,-4)" xmlns:kvg="http://kanjivg.tagaini.net"></path><path class="stroke_order_diagram--current_path" d="M12.94,37.76c5.94-1.04,17.5-2.59,21.79-2.99c1.67-0.15,2.45,1.47,2.24,3.02c-0.71,5.31-1.69,11-2.85,19.83" id="kvg:08763-s2" kvg:type="㇕b" transform="matrix(1,0,0,1,96,-4)" xmlns:kvg="http://kanjivg.tagaini.net"></path><path class="stroke_order_diagram--current_path" d="M12.94,37.76c5.94-1.04,17.5-2.59,21.79-2.99c1.67-0.15,2.45,1.47,2.24,3.02c-0.71,5.31-1.69,11-2.85,19.83" id="Ske2xlwc5t" kvg:type="㇕b" transform="matrix(1,0,0,1,96,-4)" xmlns:kvg="http://kanjivg.tagaini.net"></path><circle class="stroke_order_diagram--path_start" cx="12.94" cy="37.76" r="4" transform="matrix(1,0,0,1,96,-4)"></circle><line class="stroke_order_diagram--guide_line" x1="250" x2="250" y1="1" y2="99"></line><line class="stroke_order_diagram--bounding_box" x1="299" x2="299" y1="1" y2="99"></line><path class="stroke_order_diagram--existing_path" d="M11.26,35.54c0.39,0.54,0.87,1.49,0.96,2.2c0.74,6.18,1.6,14.18,2.67,23.4" id="Ske2xlwc5w" kvg:type="㇑" transform="matrix(1,0,0,1,196,-4)" xmlns:kvg="http://kanjivg.tagaini.net"></path><path class="stroke_order_diagram--existing_path" d="M12.94,37.76c5.94-1.04,17.5-2.59,21.79-2.99c1.67-0.15,2.45,1.47,2.24,3.02c-0.71,5.31-1.69,11-2.85,19.83" id="Ske2xlwc5x" kvg:type="㇕b" transform="matrix(1,0,0,1,196,-4)" xmlns:kvg="http://kanjivg.tagaini.net"></path><path class="stroke_order_diagram--current_path" d="M15.11,59.05c6.64-0.55,13.14-1.05,20.55-1.62" id="kvg:08763-s3" kvg:type="㇐b" transform="matrix(1,0,0,1,196,-4)" xmlns:kvg="http://kanjivg.tagaini.net"></path><path class="stroke_order_diagram--current_path" d="M15.11,59.05c6.64-0.55,13.14-1.05,20.55-1.62" id="Ske2xlwc5z" kvg:type="㇐b" transform="matrix(1,0,0,1,196,-4)" xmlns:kvg="http://kanjivg.tagaini.net"></path><circle class="stroke_order_diagram--path_start" cx="15.11" cy="59.05" r="4" transform="matrix(1,0,0,1,196,-4)"></circle><line class="stroke_order_diagram--guide_line" x1="350" x2="350" y1="1" y2="99"></line><line class="stroke_order_diagram--bounding_box" x1="399" x2="399" y1="1" y2="99"></line><path class="stroke_order_diagram--existing_path" d="M11.26,35.54c0.39,0.54,0.87,1.49,0.96,2.2c0.74,6.18,1.6,14.18,2.67,23.4" id="Ske2xlwc512" kvg:type="㇑" transform="matrix(1,0,0,1,296,-4)" xmlns:kvg="http://kanjivg.tagaini.net"></path><path class="stroke_order_diagram--existing_path" d="M12.94,37.76c5.94-1.04,17.5-2.59,21.79-2.99c1.67-0.15,2.45,1.47,2.24,3.02c-0.71,5.31-1.69,11-2.85,19.83" id="Ske2xlwc513" kvg:type="㇕b" transform="matrix(1,0,0,1,296,-4)" xmlns:kvg="http://kanjivg.tagaini.net"></path><path class="stroke_order_diagram--existing_path" d="M15.11,59.05c6.64-0.55,13.14-1.05,20.55-1.62" id="Ske2xlwc514" kvg:type="㇐b" transform="matrix(1,0,0,1,296,-4)" xmlns:kvg="http://kanjivg.tagaini.net"></path><path class="stroke_order_diagram--current_path" d="M22.42,15.75c1.08,1,2.26,2.75,2.26,4.47c0,4.78-0.2,46.78-0.2,60.16" id="kvg:08763-s4" kvg:type="㇑a" transform="matrix(1,0,0,1,296,-4)" xmlns:kvg="http://kanjivg.tagaini.net"></path><path class="stroke_order_diagram--current_path" d="M22.42,15.75c1.08,1,2.26,2.75,2.26,4.47c0,4.78-0.2,46.78-0.2,60.16" id="Ske2xlwc516" kvg:type="㇑a" transform="matrix(1,0,0,1,296,-4)" xmlns:kvg="http://kanjivg.tagaini.net"></path><circle class="stroke_order_diagram--path_start" cx="22.42" cy="15.75" r="4" transform="matrix(1,0,0,1,296,-4)"></circle><line class="stroke_order_diagram--guide_line" x1="450" x2="450" y1="1" y2="99"></line><line class="stroke_order_diagram--bounding_box" x1="499" x2="499" y1="1" y2="99"></line><path class="stroke_order_diagram--existing_path" d="M11.26,35.54c0.39,0.54,0.87,1.49,0.96,2.2c0.74,6.18,1.6,14.18,2.67,23.4" id="Ske2xlwc519" kvg:type="㇑" transform="matrix(1,0,0,1,396,-4)" xmlns:kvg="http://kanjivg.tagaini.net"></path><path class="stroke_order_diagram--existing_path" d="M12.94,37.76c5.94-1.04,17.5-2.59,21.79-2.99c1.67-0.15,2.45,1.47,2.24,3.02c-0.71,5.31-1.69,11-2.85,19.83" id="Ske2xlwc51a" kvg:type="㇕b" transform="matrix(1,0,0,1,396,-4)" xmlns:kvg="http://kanjivg.tagaini.net"></path><path class="stroke_order_diagram--existing_path" d="M15.11,59.05c6.64-0.55,13.14-1.05,20.55-1.62" id="Ske2xlwc51b" kvg:type="㇐b" transform="matrix(1,0,0,1,396,-4)" xmlns:kvg="http://kanjivg.tagaini.net"></path><path class="stroke_order_diagram--existing_path" d="M22.42,15.75c1.08,1,2.26,2.75,2.26,4.47c0,4.78-0.2,46.78-0.2,60.16" id="Ske2xlwc51c" kvg:type="㇑a" transform="matrix(1,0,0,1,396,-4)" xmlns:kvg="http://kanjivg.tagaini.net"></path><path class="stroke_order_diagram--current_path" d="M10.57,85.27c0.6,1.16,2.46,1.11,3.06,0.82c0.6-0.29,19.04-9.65,22.76-11.97" id="kvg:08763-s5" kvg:type="㇀" transform="matrix(1,0,0,1,396,-4)" xmlns:kvg="http://kanjivg.tagaini.net"></path><path class="stroke_order_diagram--current_path" d="M10.57,85.27c0.6,1.16,2.46,1.11,3.06,0.82c0.6-0.29,19.04-9.65,22.76-11.97" id="Ske2xlwc51e" kvg:type="㇀" transform="matrix(1,0,0,1,396,-4)" xmlns:kvg="http://kanjivg.tagaini.net"></path><circle class="stroke_order_diagram--path_start" cx="10.57" cy="85.27" r="4" transform="matrix(1,0,0,1,396,-4)"></circle><line class="stroke_order_diagram--guide_line" x1="550" x2="550" y1="1" y2="99"></line><line class="stroke_order_diagram--bounding_box" x1="599" x2="599" y1="1" y2="99"></line><path class="stroke_order_diagram--existing_path" d="M11.26,35.54c0.39,0.54,0.87,1.49,0.96,2.2c0.74,6.18,1.6,14.18,2.67,23.4" id="Ske2xlwc51h" kvg:type="㇑" transform="matrix(1,0,0,1,496,-4)" xmlns:kvg="http://kanjivg.tagaini.net"></path><path class="stroke_order_diagram--existing_path" d="M12.94,37.76c5.94-1.04,17.5-2.59,21.79-2.99c1.67-0.15,2.45,1.47,2.24,3.02c-0.71,5.31-1.69,11-2.85,19.83" id="Ske2xlwc51i" kvg:type="㇕b" transform="matrix(1,0,0,1,496,-4)" xmlns:kvg="http://kanjivg.tagaini.net"></path><path class="stroke_order_diagram--existing_path" d="M15.11,59.05c6.64-0.55,13.14-1.05,20.55-1.62" id="Ske2xlwc51j" kvg:type="㇐b" transform="matrix(1,0,0,1,496,-4)" xmlns:kvg="http://kanjivg.tagaini.net"></path><path class="stroke_order_diagram--existing_path" d="M22.42,15.75c1.08,1,2.26,2.75,2.26,4.47c0,4.78-0.2,46.78-0.2,60.16" id="Ske2xlwc51k" kvg:type="㇑a" transform="matrix(1,0,0,1,496,-4)" xmlns:kvg="http://kanjivg.tagaini.net"></path><path class="stroke_order_diagram--existing_path" d="M10.57,85.27c0.6,1.16,2.46,1.11,3.06,0.82c0.6-0.29,19.04-9.65,22.76-11.97" id="Ske2xlwc51l" kvg:type="㇀" transform="matrix(1,0,0,1,496,-4)" xmlns:kvg="http://kanjivg.tagaini.net"></path><path class="stroke_order_diagram--current_path" d="M31,65.5c2.67,2.45,6.89,10.08,7.56,13.89" id="kvg:08763-s6" kvg:type="㇔" transform="matrix(1,0,0,1,496,-4)" xmlns:kvg="http://kanjivg.tagaini.net"></path><path class="stroke_order_diagram--current_path" d="M31,65.5c2.67,2.45,6.89,10.08,7.56,13.89" id="Ske2xlwc51n" kvg:type="㇔" transform="matrix(1,0,0,1,496,-4)" xmlns:kvg="http://kanjivg.tagaini.net"></path><circle class="stroke_order_diagram--path_start" cx="31" cy="65.5" r="4" transform="matrix(1,0,0,1,496,-4)"></circle><line class="stroke_order_diagram--guide_line" x1="650" x2="650" y1="1" y2="99"></line><line class="stroke_order_diagram--bounding_box" x1="699" x2="699" y1="1" y2="99"></line><path class="stroke_order_diagram--existing_path" d="M11.26,35.54c0.39,0.54,0.87,1.49,0.96,2.2c0.74,6.18,1.6,14.18,2.67,23.4" id="Ske2xlwc51q" kvg:type="㇑" transform="matrix(1,0,0,1,596,-4)" xmlns:kvg="http://kanjivg.tagaini.net"></path><path class="stroke_order_diagram--existing_path" d="M12.94,37.76c5.94-1.04,17.5-2.59,21.79-2.99c1.67-0.15,2.45,1.47,2.24,3.02c-0.71,5.31-1.69,11-2.85,19.83" id="Ske2xlwc51r" kvg:type="㇕b" transform="matrix(1,0,0,1,596,-4)" xmlns:kvg="http://kanjivg.tagaini.net"></path><path class="stroke_order_diagram--existing_path" d="M15.11,59.05c6.64-0.55,13.14-1.05,20.55-1.62" id="Ske2xlwc51s" kvg:type="㇐b" transform="matrix(1,0,0,1,596,-4)" xmlns:kvg="http://kanjivg.tagaini.net"></path><path class="stroke_order_diagram--existing_path" d="M22.42,15.75c1.08,1,2.26,2.75,2.26,4.47c0,4.78-0.2,46.78-0.2,60.16" id="Ske2xlwc51t" kvg:type="㇑a" transform="matrix(1,0,0,1,596,-4)" xmlns:kvg="http://kanjivg.tagaini.net"></path><path class="stroke_order_diagram--existing_path" d="M10.57,85.27c0.6,1.16,2.46,1.11,3.06,0.82c0.6-0.29,19.04-9.65,22.76-11.97" id="Ske2xlwc51u" kvg:type="㇀" transform="matrix(1,0,0,1,596,-4)" xmlns:kvg="http://kanjivg.tagaini.net"></path><path class="stroke_order_diagram--existing_path" d="M31,65.5c2.67,2.45,6.89,10.08,7.56,13.89" id="Ske2xlwc51v" kvg:type="㇔" transform="matrix(1,0,0,1,596,-4)" xmlns:kvg="http://kanjivg.tagaini.net"></path><path class="stroke_order_diagram--current_path" d="M53.09,15.78c0.54,0.48,1.42,2.36,1.42,3.32c0,3.55-0.17,9.18-0.07,12.19" id="kvg:08763-s7" kvg:type="㇑a" transform="matrix(1,0,0,1,596,-4)" xmlns:kvg="http://kanjivg.tagaini.net"></path><path class="stroke_order_diagram--current_path" d="M53.09,15.78c0.54,0.48,1.42,2.36,1.42,3.32c0,3.55-0.17,9.18-0.07,12.19" id="Ske2xlwc51x" kvg:type="㇑a" transform="matrix(1,0,0,1,596,-4)" xmlns:kvg="http://kanjivg.tagaini.net"></path><circle class="stroke_order_diagram--path_start" cx="53.09" cy="15.78" r="4" transform="matrix(1,0,0,1,596,-4)"></circle><line class="stroke_order_diagram--guide_line" x1="750" x2="750" y1="1" y2="99"></line><line class="stroke_order_diagram--bounding_box" x1="799" x2="799" y1="1" y2="99"></line><path class="stroke_order_diagram--existing_path" d="M11.26,35.54c0.39,0.54,0.87,1.49,0.96,2.2c0.74,6.18,1.6,14.18,2.67,23.4" id="Ske2xlwc520" kvg:type="㇑" transform="matrix(1,0,0,1,696,-4)" xmlns:kvg="http://kanjivg.tagaini.net"></path><path class="stroke_order_diagram--existing_path" d="M12.94,37.76c5.94-1.04,17.5-2.59,21.79-2.99c1.67-0.15,2.45,1.47,2.24,3.02c-0.71,5.31-1.69,11-2.85,19.83" id="Ske2xlwc521" kvg:type="㇕b" transform="matrix(1,0,0,1,696,-4)" xmlns:kvg="http://kanjivg.tagaini.net"></path><path class="stroke_order_diagram--existing_path" d="M15.11,59.05c6.64-0.55,13.14-1.05,20.55-1.62" id="Ske2xlwc522" kvg:type="㇐b" transform="matrix(1,0,0,1,696,-4)" xmlns:kvg="http://kanjivg.tagaini.net"></path><path class="stroke_order_diagram--existing_path" d="M22.42,15.75c1.08,1,2.26,2.75,2.26,4.47c0,4.78-0.2,46.78-0.2,60.16" id="Ske2xlwc523" kvg:type="㇑a" transform="matrix(1,0,0,1,696,-4)" xmlns:kvg="http://kanjivg.tagaini.net"></path><path class="stroke_order_diagram--existing_path" d="M10.57,85.27c0.6,1.16,2.46,1.11,3.06,0.82c0.6-0.29,19.04-9.65,22.76-11.97" id="Ske2xlwc524" kvg:type="㇀" transform="matrix(1,0,0,1,696,-4)" xmlns:kvg="http://kanjivg.tagaini.net"></path><path class="stroke_order_diagram--existing_path" d="M31,65.5c2.67,2.45,6.89,10.08,7.56,13.89" id="Ske2xlwc525" kvg:type="㇔" transform="matrix(1,0,0,1,696,-4)" xmlns:kvg="http://kanjivg.tagaini.net"></path><path class="stroke_order_diagram--existing_path" d="M53.09,15.78c0.54,0.48,1.42,2.36,1.42,3.32c0,3.55-0.17,9.18-0.07,12.19" id="Ske2xlwc526" kvg:type="㇑a" transform="matrix(1,0,0,1,696,-4)" xmlns:kvg="http://kanjivg.tagaini.net"></path><path class="stroke_order_diagram--current_path" d="M40.57,32.16c0.73,0.04,2.4,0.25,3.11,0.2c5.75-0.42,17.07-1.51,21.61-1.79c1.2-0.07,2.18-0.07,3.53-0.07" id="kvg:08763-s8" kvg:type="㇐" transform="matrix(1,0,0,1,696,-4)" xmlns:kvg="http://kanjivg.tagaini.net"></path><path class="stroke_order_diagram--current_path" d="M40.57,32.16c0.73,0.04,2.4,0.25,3.11,0.2c5.75-0.42,17.07-1.51,21.61-1.79c1.2-0.07,2.18-0.07,3.53-0.07" id="Ske2xlwc528" kvg:type="㇐" transform="matrix(1,0,0,1,696,-4)" xmlns:kvg="http://kanjivg.tagaini.net"></path><circle class="stroke_order_diagram--path_start" cx="40.57" cy="32.16" r="4" transform="matrix(1,0,0,1,696,-4)"></circle><line class="stroke_order_diagram--guide_line" x1="850" x2="850" y1="1" y2="99"></line><line class="stroke_order_diagram--bounding_box" x1="899" x2="899" y1="1" y2="99"></line><path class="stroke_order_diagram--existing_path" d="M11.26,35.54c0.39,0.54,0.87,1.49,0.96,2.2c0.74,6.18,1.6,14.18,2.67,23.4" id="Ske2xlwc52b" kvg:type="㇑" transform="matrix(1,0,0,1,796,-4)" xmlns:kvg="http://kanjivg.tagaini.net"></path><path class="stroke_order_diagram--existing_path" d="M12.94,37.76c5.94-1.04,17.5-2.59,21.79-2.99c1.67-0.15,2.45,1.47,2.24,3.02c-0.71,5.31-1.69,11-2.85,19.83" id="Ske2xlwc52c" kvg:type="㇕b" transform="matrix(1,0,0,1,796,-4)" xmlns:kvg="http://kanjivg.tagaini.net"></path><path class="stroke_order_diagram--existing_path" d="M15.11,59.05c6.64-0.55,13.14-1.05,20.55-1.62" id="Ske2xlwc52d" kvg:type="㇐b" transform="matrix(1,0,0,1,796,-4)" xmlns:kvg="http://kanjivg.tagaini.net"></path><path class="stroke_order_diagram--existing_path" d="M22.42,15.75c1.08,1,2.26,2.75,2.26,4.47c0,4.78-0.2,46.78-0.2,60.16" id="Ske2xlwc52e" kvg:type="㇑a" transform="matrix(1,0,0,1,796,-4)" xmlns:kvg="http://kanjivg.tagaini.net"></path><path class="stroke_order_diagram--existing_path" d="M10.57,85.27c0.6,1.16,2.46,1.11,3.06,0.82c0.6-0.29,19.04-9.65,22.76-11.97" id="Ske2xlwc52f" kvg:type="㇀" transform="matrix(1,0,0,1,796,-4)" xmlns:kvg="http://kanjivg.tagaini.net"></path><path class="stroke_order_diagram--existing_path" d="M31,65.5c2.67,2.45,6.89,10.08,7.56,13.89" id="Ske2xlwc52g" kvg:type="㇔" transform="matrix(1,0,0,1,796,-4)" xmlns:kvg="http://kanjivg.tagaini.net"></path><path class="stroke_order_diagram--existing_path" d="M53.09,15.78c0.54,0.48,1.42,2.36,1.42,3.32c0,3.55-0.17,9.18-0.07,12.19" id="Ske2xlwc52h" kvg:type="㇑a" transform="matrix(1,0,0,1,796,-4)" xmlns:kvg="http://kanjivg.tagaini.net"></path><path class="stroke_order_diagram--existing_path" d="M40.57,32.16c0.73,0.04,2.4,0.25,3.11,0.2c5.75-0.42,17.07-1.51,21.61-1.79c1.2-0.07,2.18-0.07,3.53-0.07" id="Ske2xlwc52i" kvg:type="㇐" transform="matrix(1,0,0,1,796,-4)" xmlns:kvg="http://kanjivg.tagaini.net"></path><path class="stroke_order_diagram--current_path" d="M54.85,41.38c3.1,0.8,3.73,1.12,7.58,1.49c1.65,0.16,2.86,2.27,2.64,4.38c-1.57,15.5-4.94,31.54-9.04,39.58c-3.28,6.42-5.53,3.42-8.34,0.05" id="kvg:08763-s9" kvg:type="㇆a" transform="matrix(1,0,0,1,796,-4)" xmlns:kvg="http://kanjivg.tagaini.net"></path><path class="stroke_order_diagram--current_path" d="M54.85,41.38c3.1,0.8,3.73,1.12,7.58,1.49c1.65,0.16,2.86,2.27,2.64,4.38c-1.57,15.5-4.94,31.54-9.04,39.58c-3.28,6.42-5.53,3.42-8.34,0.05" id="Ske2xlwc52k" kvg:type="㇆a" transform="matrix(1,0,0,1,796,-4)" xmlns:kvg="http://kanjivg.tagaini.net"></path><circle class="stroke_order_diagram--path_start" cx="54.85" cy="41.38" r="4" transform="matrix(1,0,0,1,796,-4)"></circle><line class="stroke_order_diagram--guide_line" x1="950" x2="950" y1="1" y2="99"></line><line class="stroke_order_diagram--bounding_box" x1="999" x2="999" y1="1" y2="99"></line><path class="stroke_order_diagram--existing_path" d="M11.26,35.54c0.39,0.54,0.87,1.49,0.96,2.2c0.74,6.18,1.6,14.18,2.67,23.4" id="Ske2xlwc52n" kvg:type="㇑" transform="matrix(1,0,0,1,896,-4)" xmlns:kvg="http://kanjivg.tagaini.net"></path><path class="stroke_order_diagram--existing_path" d="M12.94,37.76c5.94-1.04,17.5-2.59,21.79-2.99c1.67-0.15,2.45,1.47,2.24,3.02c-0.71,5.31-1.69,11-2.85,19.83" id="Ske2xlwc52o" kvg:type="㇕b" transform="matrix(1,0,0,1,896,-4)" xmlns:kvg="http://kanjivg.tagaini.net"></path><path class="stroke_order_diagram--existing_path" d="M15.11,59.05c6.64-0.55,13.14-1.05,20.55-1.62" id="Ske2xlwc52p" kvg:type="㇐b" transform="matrix(1,0,0,1,896,-4)" xmlns:kvg="http://kanjivg.tagaini.net"></path><path class="stroke_order_diagram--existing_path" d="M22.42,15.75c1.08,1,2.26,2.75,2.26,4.47c0,4.78-0.2,46.78-0.2,60.16" id="Ske2xlwc52q" kvg:type="㇑a" transform="matrix(1,0,0,1,896,-4)" xmlns:kvg="http://kanjivg.tagaini.net"></path><path class="stroke_order_diagram--existing_path" d="M10.57,85.27c0.6,1.16,2.46,1.11,3.06,0.82c0.6-0.29,19.04-9.65,22.76-11.97" id="Ske2xlwc52r" kvg:type="㇀" transform="matrix(1,0,0,1,896,-4)" xmlns:kvg="http://kanjivg.tagaini.net"></path><path class="stroke_order_diagram--existing_path" d="M31,65.5c2.67,2.45,6.89,10.08,7.56,13.89" id="Ske2xlwc52s" kvg:type="㇔" transform="matrix(1,0,0,1,896,-4)" xmlns:kvg="http://kanjivg.tagaini.net"></path><path class="stroke_order_diagram--existing_path" d="M53.09,15.78c0.54,0.48,1.42,2.36,1.42,3.32c0,3.55-0.17,9.18-0.07,12.19" id="Ske2xlwc52t" kvg:type="㇑a" transform="matrix(1,0,0,1,896,-4)" xmlns:kvg="http://kanjivg.tagaini.net"></path><path class="stroke_order_diagram--existing_path" d="M40.57,32.16c0.73,0.04,2.4,0.25,3.11,0.2c5.75-0.42,17.07-1.51,21.61-1.79c1.2-0.07,2.18-0.07,3.53-0.07" id="Ske2xlwc52u" kvg:type="㇐" transform="matrix(1,0,0,1,896,-4)" xmlns:kvg="http://kanjivg.tagaini.net"></path><path class="stroke_order_diagram--existing_path" d="M54.85,41.38c3.1,0.8,3.73,1.12,7.58,1.49c1.65,0.16,2.86,2.27,2.64,4.38c-1.57,15.5-4.94,31.54-9.04,39.58c-3.28,6.42-5.53,3.42-8.34,0.05" id="Ske2xlwc52v" kvg:type="㇆a" transform="matrix(1,0,0,1,896,-4)" xmlns:kvg="http://kanjivg.tagaini.net"></path><path class="stroke_order_diagram--current_path" d="M53.7,35.12c0.61,0.8,1.15,2.54,0.94,4.3c-1.55,13.03-6.34,33.85-16.51,47.26" id="kvg:08763-s10" kvg:type="㇒" transform="matrix(1,0,0,1,896,-4)" xmlns:kvg="http://kanjivg.tagaini.net"></path><path class="stroke_order_diagram--current_path" d="M53.7,35.12c0.61,0.8,1.15,2.54,0.94,4.3c-1.55,13.03-6.34,33.85-16.51,47.26" id="Ske2xlwc52x" kvg:type="㇒" transform="matrix(1,0,0,1,896,-4)" xmlns:kvg="http://kanjivg.tagaini.net"></path><circle class="stroke_order_diagram--path_start" cx="53.7" cy="35.12" r="4" transform="matrix(1,0,0,1,896,-4)"></circle><line class="stroke_order_diagram--guide_line" x1="1050" x2="1050" y1="1" y2="99"></line><line class="stroke_order_diagram--bounding_box" x1="1099" x2="1099" y1="1" y2="99"></line><path class="stroke_order_diagram--existing_path" d="M11.26,35.54c0.39,0.54,0.87,1.49,0.96,2.2c0.74,6.18,1.6,14.18,2.67,23.4" id="Ske2xlwc530" kvg:type="㇑" transform="matrix(1,0,0,1,996,-4)" xmlns:kvg="http://kanjivg.tagaini.net"></path><path class="stroke_order_diagram--existing_path" d="M12.94,37.76c5.94-1.04,17.5-2.59,21.79-2.99c1.67-0.15,2.45,1.47,2.24,3.02c-0.71,5.31-1.69,11-2.85,19.83" id="Ske2xlwc531" kvg:type="㇕b" transform="matrix(1,0,0,1,996,-4)" xmlns:kvg="http://kanjivg.tagaini.net"></path><path class="stroke_order_diagram--existing_path" d="M15.11,59.05c6.64-0.55,13.14-1.05,20.55-1.62" id="Ske2xlwc532" kvg:type="㇐b" transform="matrix(1,0,0,1,996,-4)" xmlns:kvg="http://kanjivg.tagaini.net"></path><path class="stroke_order_diagram--existing_path" d="M22.42,15.75c1.08,1,2.26,2.75,2.26,4.47c0,4.78-0.2,46.78-0.2,60.16" id="Ske2xlwc533" kvg:type="㇑a" transform="matrix(1,0,0,1,996,-4)" xmlns:kvg="http://kanjivg.tagaini.net"></path><path class="stroke_order_diagram--existing_path" d="M10.57,85.27c0.6,1.16,2.46,1.11,3.06,0.82c0.6-0.29,19.04-9.65,22.76-11.97" id="Ske2xlwc534" kvg:type="㇀" transform="matrix(1,0,0,1,996,-4)" xmlns:kvg="http://kanjivg.tagaini.net"></path><path class="stroke_order_diagram--existing_path" d="M31,65.5c2.67,2.45,6.89,10.08,7.56,13.89" id="Ske2xlwc535" kvg:type="㇔" transform="matrix(1,0,0,1,996,-4)" xmlns:kvg="http://kanjivg.tagaini.net"></path><path class="stroke_order_diagram--existing_path" d="M53.09,15.78c0.54,0.48,1.42,2.36,1.42,3.32c0,3.55-0.17,9.18-0.07,12.19" id="Ske2xlwc536" kvg:type="㇑a" transform="matrix(1,0,0,1,996,-4)" xmlns:kvg="http://kanjivg.tagaini.net"></path><path class="stroke_order_diagram--existing_path" d="M40.57,32.16c0.73,0.04,2.4,0.25,3.11,0.2c5.75-0.42,17.07-1.51,21.61-1.79c1.2-0.07,2.18-0.07,3.53-0.07" id="Ske2xlwc537" kvg:type="㇐" transform="matrix(1,0,0,1,996,-4)" xmlns:kvg="http://kanjivg.tagaini.net"></path><path class="stroke_order_diagram--existing_path" d="M54.85,41.38c3.1,0.8,3.73,1.12,7.58,1.49c1.65,0.16,2.86,2.27,2.64,4.38c-1.57,15.5-4.94,31.54-9.04,39.58c-3.28,6.42-5.53,3.42-8.34,0.05" id="Ske2xlwc538" kvg:type="㇆a" transform="matrix(1,0,0,1,996,-4)" xmlns:kvg="http://kanjivg.tagaini.net"></path><path class="stroke_order_diagram--existing_path" d="M53.7,35.12c0.61,0.8,1.15,2.54,0.94,4.3c-1.55,13.03-6.34,33.85-16.51,47.26" id="Ske2xlwc539" kvg:type="㇒" transform="matrix(1,0,0,1,996,-4)" xmlns:kvg="http://kanjivg.tagaini.net"></path><path class="stroke_order_diagram--current_path" d="M79.11,14.89c0.02,0.57,0.04,1.48-0.04,2.3c-0.53,4.85-3.55,15.5-7.68,22.02" id="kvg:08763-s11" kvg:type="㇒" transform="matrix(1,0,0,1,996,-4)" xmlns:kvg="http://kanjivg.tagaini.net"></path><path class="stroke_order_diagram--current_path" d="M79.11,14.89c0.02,0.57,0.04,1.48-0.04,2.3c-0.53,4.85-3.55,15.5-7.68,22.02" id="Ske2xlwc53b" kvg:type="㇒" transform="matrix(1,0,0,1,996,-4)" xmlns:kvg="http://kanjivg.tagaini.net"></path><circle class="stroke_order_diagram--path_start" cx="79.11" cy="14.89" r="4" transform="matrix(1,0,0,1,996,-4)"></circle><line class="stroke_order_diagram--guide_line" x1="1150" x2="1150" y1="1" y2="99"></line><line class="stroke_order_diagram--bounding_box" x1="1199" x2="1199" y1="1" y2="99"></line><path class="stroke_order_diagram--existing_path" d="M11.26,35.54c0.39,0.54,0.87,1.49,0.96,2.2c0.74,6.18,1.6,14.18,2.67,23.4" id="Ske2xlwc53e" kvg:type="㇑" transform="matrix(1,0,0,1,1096,-4)" xmlns:kvg="http://kanjivg.tagaini.net"></path><path class="stroke_order_diagram--existing_path" d="M12.94,37.76c5.94-1.04,17.5-2.59,21.79-2.99c1.67-0.15,2.45,1.47,2.24,3.02c-0.71,5.31-1.69,11-2.85,19.83" id="Ske2xlwc53f" kvg:type="㇕b" transform="matrix(1,0,0,1,1096,-4)" xmlns:kvg="http://kanjivg.tagaini.net"></path><path class="stroke_order_diagram--existing_path" d="M15.11,59.05c6.64-0.55,13.14-1.05,20.55-1.62" id="Ske2xlwc53g" kvg:type="㇐b" transform="matrix(1,0,0,1,1096,-4)" xmlns:kvg="http://kanjivg.tagaini.net"></path><path class="stroke_order_diagram--existing_path" d="M22.42,15.75c1.08,1,2.26,2.75,2.26,4.47c0,4.78-0.2,46.78-0.2,60.16" id="Ske2xlwc53h" kvg:type="㇑a" transform="matrix(1,0,0,1,1096,-4)" xmlns:kvg="http://kanjivg.tagaini.net"></path><path class="stroke_order_diagram--existing_path" d="M10.57,85.27c0.6,1.16,2.46,1.11,3.06,0.82c0.6-0.29,19.04-9.65,22.76-11.97" id="Ske2xlwc53i" kvg:type="㇀" transform="matrix(1,0,0,1,1096,-4)" xmlns:kvg="http://kanjivg.tagaini.net"></path><path class="stroke_order_diagram--existing_path" d="M31,65.5c2.67,2.45,6.89,10.08,7.56,13.89" id="Ske2xlwc53j" kvg:type="㇔" transform="matrix(1,0,0,1,1096,-4)" xmlns:kvg="http://kanjivg.tagaini.net"></path><path class="stroke_order_diagram--existing_path" d="M53.09,15.78c0.54,0.48,1.42,2.36,1.42,3.32c0,3.55-0.17,9.18-0.07,12.19" id="Ske2xlwc53k" kvg:type="㇑a" transform="matrix(1,0,0,1,1096,-4)" xmlns:kvg="http://kanjivg.tagaini.net"></path><path class="stroke_order_diagram--existing_path" d="M40.57,32.16c0.73,0.04,2.4,0.25,3.11,0.2c5.75-0.42,17.07-1.51,21.61-1.79c1.2-0.07,2.18-0.07,3.53-0.07" id="Ske2xlwc53l" kvg:type="㇐" transform="matrix(1,0,0,1,1096,-4)" xmlns:kvg="http://kanjivg.tagaini.net"></path><path class="stroke_order_diagram--existing_path" d="M54.85,41.38c3.1,0.8,3.73,1.12,7.58,1.49c1.65,0.16,2.86,2.27,2.64,4.38c-1.57,15.5-4.94,31.54-9.04,39.58c-3.28,6.42-5.53,3.42-8.34,0.05" id="Ske2xlwc53m" kvg:type="㇆a" transform="matrix(1,0,0,1,1096,-4)" xmlns:kvg="http://kanjivg.tagaini.net"></path><path class="stroke_order_diagram--existing_path" d="M53.7,35.12c0.61,0.8,1.15,2.54,0.94,4.3c-1.55,13.03-6.34,33.85-16.51,47.26" id="Ske2xlwc53n" kvg:type="㇒" transform="matrix(1,0,0,1,1096,-4)" xmlns:kvg="http://kanjivg.tagaini.net"></path><path class="stroke_order_diagram--existing_path" d="M79.11,14.89c0.02,0.57,0.04,1.48-0.04,2.3c-0.53,4.85-3.55,15.5-7.68,22.02" id="Ske2xlwc53o" kvg:type="㇒" transform="matrix(1,0,0,1,1096,-4)" xmlns:kvg="http://kanjivg.tagaini.net"></path><path class="stroke_order_diagram--current_path" d="M77.57,31.91c0.68,0.08,2.23,0.55,2.89,0.44c5.34-0.92,8.86-1.34,13.08-1.95c1.11-0.16,2.03-0.15,3.28-0.15" id="kvg:08763-s12" kvg:type="㇐" transform="matrix(1,0,0,1,1096,-4)" xmlns:kvg="http://kanjivg.tagaini.net"></path><path class="stroke_order_diagram--current_path" d="M77.57,31.91c0.68,0.08,2.23,0.55,2.89,0.44c5.34-0.92,8.86-1.34,13.08-1.95c1.11-0.16,2.03-0.15,3.28-0.15" id="Ske2xlwc53q" kvg:type="㇐" transform="matrix(1,0,0,1,1096,-4)" xmlns:kvg="http://kanjivg.tagaini.net"></path><circle class="stroke_order_diagram--path_start" cx="77.57" cy="31.91" r="4" transform="matrix(1,0,0,1,1096,-4)"></circle><line class="stroke_order_diagram--guide_line" x1="1250" x2="1250" y1="1" y2="99"></line><line class="stroke_order_diagram--bounding_box" x1="1299" x2="1299" y1="1" y2="99"></line><path class="stroke_order_diagram--existing_path" d="M11.26,35.54c0.39,0.54,0.87,1.49,0.96,2.2c0.74,6.18,1.6,14.18,2.67,23.4" id="Ske2xlwc53t" kvg:type="㇑" transform="matrix(1,0,0,1,1196,-4)" xmlns:kvg="http://kanjivg.tagaini.net"></path><path class="stroke_order_diagram--existing_path" d="M12.94,37.76c5.94-1.04,17.5-2.59,21.79-2.99c1.67-0.15,2.45,1.47,2.24,3.02c-0.71,5.31-1.69,11-2.85,19.83" id="Ske2xlwc53u" kvg:type="㇕b" transform="matrix(1,0,0,1,1196,-4)" xmlns:kvg="http://kanjivg.tagaini.net"></path><path class="stroke_order_diagram--existing_path" d="M15.11,59.05c6.64-0.55,13.14-1.05,20.55-1.62" id="Ske2xlwc53v" kvg:type="㇐b" transform="matrix(1,0,0,1,1196,-4)" xmlns:kvg="http://kanjivg.tagaini.net"></path><path class="stroke_order_diagram--existing_path" d="M22.42,15.75c1.08,1,2.26,2.75,2.26,4.47c0,4.78-0.2,46.78-0.2,60.16" id="Ske2xlwc53w" kvg:type="㇑a" transform="matrix(1,0,0,1,1196,-4)" xmlns:kvg="http://kanjivg.tagaini.net"></path><path class="stroke_order_diagram--existing_path" d="M10.57,85.27c0.6,1.16,2.46,1.11,3.06,0.82c0.6-0.29,19.04-9.65,22.76-11.97" id="Ske2xlwc53x" kvg:type="㇀" transform="matrix(1,0,0,1,1196,-4)" xmlns:kvg="http://kanjivg.tagaini.net"></path><path class="stroke_order_diagram--existing_path" d="M31,65.5c2.67,2.45,6.89,10.08,7.56,13.89" id="Ske2xlwc53y" kvg:type="㇔" transform="matrix(1,0,0,1,1196,-4)" xmlns:kvg="http://kanjivg.tagaini.net"></path><path class="stroke_order_diagram--existing_path" d="M53.09,15.78c0.54,0.48,1.42,2.36,1.42,3.32c0,3.55-0.17,9.18-0.07,12.19" id="Ske2xlwc53z" kvg:type="㇑a" transform="matrix(1,0,0,1,1196,-4)" xmlns:kvg="http://kanjivg.tagaini.net"></path><path class="stroke_order_diagram--existing_path" d="M40.57,32.16c0.73,0.04,2.4,0.25,3.11,0.2c5.75-0.42,17.07-1.51,21.61-1.79c1.2-0.07,2.18-0.07,3.53-0.07" id="Ske2xlwc540" kvg:type="㇐" transform="matrix(1,0,0,1,1196,-4)" xmlns:kvg="http://kanjivg.tagaini.net"></path><path class="stroke_order_diagram--existing_path" d="M54.85,41.38c3.1,0.8,3.73,1.12,7.58,1.49c1.65,0.16,2.86,2.27,2.64,4.38c-1.57,15.5-4.94,31.54-9.04,39.58c-3.28,6.42-5.53,3.42-8.34,0.05" id="Ske2xlwc541" kvg:type="㇆a" transform="matrix(1,0,0,1,1196,-4)" xmlns:kvg="http://kanjivg.tagaini.net"></path><path class="stroke_order_diagram--existing_path" d="M53.7,35.12c0.61,0.8,1.15,2.54,0.94,4.3c-1.55,13.03-6.34,33.85-16.51,47.26" id="Ske2xlwc542" kvg:type="㇒" transform="matrix(1,0,0,1,1196,-4)" xmlns:kvg="http://kanjivg.tagaini.net"></path><path class="stroke_order_diagram--existing_path" d="M79.11,14.89c0.02,0.57,0.04,1.48-0.04,2.3c-0.53,4.85-3.55,15.5-7.68,22.02" id="Ske2xlwc543" kvg:type="㇒" transform="matrix(1,0,0,1,1196,-4)" xmlns:kvg="http://kanjivg.tagaini.net"></path><path class="stroke_order_diagram--existing_path" d="M77.57,31.91c0.68,0.08,2.23,0.55,2.89,0.44c5.34-0.92,8.86-1.34,13.08-1.95c1.11-0.16,2.03-0.15,3.28-0.15" id="Ske2xlwc544" kvg:type="㇐" transform="matrix(1,0,0,1,1196,-4)" xmlns:kvg="http://kanjivg.tagaini.net"></path><path class="stroke_order_diagram--current_path" d="M73.78,45.54c0.64,0.21,1.85,0.55,2.81,0.36c1.17-0.23,12.74-2.83,13.86-2.83c1.12,0,2.33,0.64,1.21,1.91S82.4,55.69,79.57,58" id="kvg:08763-s13" kvg:type="㇖" transform="matrix(1,0,0,1,1196,-4)" xmlns:kvg="http://kanjivg.tagaini.net"></path><path class="stroke_order_diagram--current_path" d="M73.78,45.54c0.64,0.21,1.85,0.55,2.81,0.36c1.17-0.23,12.74-2.83,13.86-2.83c1.12,0,2.33,0.64,1.21,1.91S82.4,55.69,79.57,58" id="Ske2xlwc546" kvg:type="㇖" transform="matrix(1,0,0,1,1196,-4)" xmlns:kvg="http://kanjivg.tagaini.net"></path><circle class="stroke_order_diagram--path_start" cx="73.78" cy="45.54" r="4" transform="matrix(1,0,0,1,1196,-4)"></circle><line class="stroke_order_diagram--guide_line" x1="1350" x2="1350" y1="1" y2="99"></line><line class="stroke_order_diagram--bounding_box" x1="1399" x2="1399" y1="1" y2="99"></line><path class="stroke_order_diagram--existing_path" d="M11.26,35.54c0.39,0.54,0.87,1.49,0.96,2.2c0.74,6.18,1.6,14.18,2.67,23.4" id="Ske2xlwc549" kvg:type="㇑" transform="matrix(1,0,0,1,1296,-4)" xmlns:kvg="http://kanjivg.tagaini.net"></path><path class="stroke_order_diagram--existing_path" d="M12.94,37.76c5.94-1.04,17.5-2.59,21.79-2.99c1.67-0.15,2.45,1.47,2.24,3.02c-0.71,5.31-1.69,11-2.85,19.83" id="Ske2xlwc54a" kvg:type="㇕b" transform="matrix(1,0,0,1,1296,-4)" xmlns:kvg="http://kanjivg.tagaini.net"></path><path class="stroke_order_diagram--existing_path" d="M15.11,59.05c6.64-0.55,13.14-1.05,20.55-1.62" id="Ske2xlwc54b" kvg:type="㇐b" transform="matrix(1,0,0,1,1296,-4)" xmlns:kvg="http://kanjivg.tagaini.net"></path><path class="stroke_order_diagram--existing_path" d="M22.42,15.75c1.08,1,2.26,2.75,2.26,4.47c0,4.78-0.2,46.78-0.2,60.16" id="Ske2xlwc54c" kvg:type="㇑a" transform="matrix(1,0,0,1,1296,-4)" xmlns:kvg="http://kanjivg.tagaini.net"></path><path class="stroke_order_diagram--existing_path" d="M10.57,85.27c0.6,1.16,2.46,1.11,3.06,0.82c0.6-0.29,19.04-9.65,22.76-11.97" id="Ske2xlwc54d" kvg:type="㇀" transform="matrix(1,0,0,1,1296,-4)" xmlns:kvg="http://kanjivg.tagaini.net"></path><path class="stroke_order_diagram--existing_path" d="M31,65.5c2.67,2.45,6.89,10.08,7.56,13.89" id="Ske2xlwc54e" kvg:type="㇔" transform="matrix(1,0,0,1,1296,-4)" xmlns:kvg="http://kanjivg.tagaini.net"></path><path class="stroke_order_diagram--existing_path" d="M53.09,15.78c0.54,0.48,1.42,2.36,1.42,3.32c0,3.55-0.17,9.18-0.07,12.19" id="Ske2xlwc54f" kvg:type="㇑a" transform="matrix(1,0,0,1,1296,-4)" xmlns:kvg="http://kanjivg.tagaini.net"></path><path class="stroke_order_diagram--existing_path" d="M40.57,32.16c0.73,0.04,2.4,0.25,3.11,0.2c5.75-0.42,17.07-1.51,21.61-1.79c1.2-0.07,2.18-0.07,3.53-0.07" id="Ske2xlwc54g" kvg:type="㇐" transform="matrix(1,0,0,1,1296,-4)" xmlns:kvg="http://kanjivg.tagaini.net"></path><path class="stroke_order_diagram--existing_path" d="M54.85,41.38c3.1,0.8,3.73,1.12,7.58,1.49c1.65,0.16,2.86,2.27,2.64,4.38c-1.57,15.5-4.94,31.54-9.04,39.58c-3.28,6.42-5.53,3.42-8.34,0.05" id="Ske2xlwc54h" kvg:type="㇆a" transform="matrix(1,0,0,1,1296,-4)" xmlns:kvg="http://kanjivg.tagaini.net"></path><path class="stroke_order_diagram--existing_path" d="M53.7,35.12c0.61,0.8,1.15,2.54,0.94,4.3c-1.55,13.03-6.34,33.85-16.51,47.26" id="Ske2xlwc54i" kvg:type="㇒" transform="matrix(1,0,0,1,1296,-4)" xmlns:kvg="http://kanjivg.tagaini.net"></path><path class="stroke_order_diagram--existing_path" d="M79.11,14.89c0.02,0.57,0.04,1.48-0.04,2.3c-0.53,4.85-3.55,15.5-7.68,22.02" id="Ske2xlwc54j" kvg:type="㇒" transform="matrix(1,0,0,1,1296,-4)" xmlns:kvg="http://kanjivg.tagaini.net"></path><path class="stroke_order_diagram--existing_path" d="M77.57,31.91c0.68,0.08,2.23,0.55,2.89,0.44c5.34-0.92,8.86-1.34,13.08-1.95c1.11-0.16,2.03-0.15,3.28-0.15" id="Ske2xlwc54k" kvg:type="㇐" transform="matrix(1,0,0,1,1296,-4)" xmlns:kvg="http://kanjivg.tagaini.net"></path><path class="stroke_order_diagram--existing_path" d="M73.78,45.54c0.64,0.21,1.85,0.55,2.81,0.36c1.17-0.23,12.74-2.83,13.86-2.83c1.12,0,2.33,0.64,1.21,1.91S82.4,55.69,79.57,58" id="Ske2xlwc54l" kvg:type="㇖" transform="matrix(1,0,0,1,1296,-4)" xmlns:kvg="http://kanjivg.tagaini.net"></path><path class="stroke_order_diagram--current_path" d="M79.06,58.2C82.25,62,88,75.25,83.32,88.78c-1.8,5.21-5.07,2.97-6.59,0.58" id="kvg:08763-s14" kvg:type="㇕v" transform="matrix(1,0,0,1,1296,-4)" xmlns:kvg="http://kanjivg.tagaini.net"></path><path class="stroke_order_diagram--current_path" d="M79.06,58.2C82.25,62,88,75.25,83.32,88.78c-1.8,5.21-5.07,2.97-6.59,0.58" id="Ske2xlwc54n" kvg:type="㇕v" transform="matrix(1,0,0,1,1296,-4)" xmlns:kvg="http://kanjivg.tagaini.net"></path><circle class="stroke_order_diagram--path_start" cx="79.06" cy="58.2" r="4" transform="matrix(1,0,0,1,1296,-4)"></circle><line class="stroke_order_diagram--guide_line" x1="1450" x2="1450" y1="1" y2="99"></line><line class="stroke_order_diagram--bounding_box" x1="1499" x2="1499" y1="1" y2="99"></line><path class="stroke_order_diagram--existing_path" d="M11.26,35.54c0.39,0.54,0.87,1.49,0.96,2.2c0.74,6.18,1.6,14.18,2.67,23.4" id="Ske2xlwc54q" kvg:type="㇑" transform="matrix(1,0,0,1,1396,-4)" xmlns:kvg="http://kanjivg.tagaini.net"></path><path class="stroke_order_diagram--existing_path" d="M12.94,37.76c5.94-1.04,17.5-2.59,21.79-2.99c1.67-0.15,2.45,1.47,2.24,3.02c-0.71,5.31-1.69,11-2.85,19.83" id="Ske2xlwc54r" kvg:type="㇕b" transform="matrix(1,0,0,1,1396,-4)" xmlns:kvg="http://kanjivg.tagaini.net"></path><path class="stroke_order_diagram--existing_path" d="M15.11,59.05c6.64-0.55,13.14-1.05,20.55-1.62" id="Ske2xlwc54s" kvg:type="㇐b" transform="matrix(1,0,0,1,1396,-4)" xmlns:kvg="http://kanjivg.tagaini.net"></path><path class="stroke_order_diagram--existing_path" d="M22.42,15.75c1.08,1,2.26,2.75,2.26,4.47c0,4.78-0.2,46.78-0.2,60.16" id="Ske2xlwc54t" kvg:type="㇑a" transform="matrix(1,0,0,1,1396,-4)" xmlns:kvg="http://kanjivg.tagaini.net"></path><path class="stroke_order_diagram--existing_path" d="M10.57,85.27c0.6,1.16,2.46,1.11,3.06,0.82c0.6-0.29,19.04-9.65,22.76-11.97" id="Ske2xlwc54u" kvg:type="㇀" transform="matrix(1,0,0,1,1396,-4)" xmlns:kvg="http://kanjivg.tagaini.net"></path><path class="stroke_order_diagram--existing_path" d="M31,65.5c2.67,2.45,6.89,10.08,7.56,13.89" id="Ske2xlwc54v" kvg:type="㇔" transform="matrix(1,0,0,1,1396,-4)" xmlns:kvg="http://kanjivg.tagaini.net"></path><path class="stroke_order_diagram--existing_path" d="M53.09,15.78c0.54,0.48,1.42,2.36,1.42,3.32c0,3.55-0.17,9.18-0.07,12.19" id="Ske2xlwc54w" kvg:type="㇑a" transform="matrix(1,0,0,1,1396,-4)" xmlns:kvg="http://kanjivg.tagaini.net"></path><path class="stroke_order_diagram--existing_path" d="M40.57,32.16c0.73,0.04,2.4,0.25,3.11,0.2c5.75-0.42,17.07-1.51,21.61-1.79c1.2-0.07,2.18-0.07,3.53-0.07" id="Ske2xlwc54x" kvg:type="㇐" transform="matrix(1,0,0,1,1396,-4)" xmlns:kvg="http://kanjivg.tagaini.net"></path><path class="stroke_order_diagram--existing_path" d="M54.85,41.38c3.1,0.8,3.73,1.12,7.58,1.49c1.65,0.16,2.86,2.27,2.64,4.38c-1.57,15.5-4.94,31.54-9.04,39.58c-3.28,6.42-5.53,3.42-8.34,0.05" id="Ske2xlwc54y" kvg:type="㇆a" transform="matrix(1,0,0,1,1396,-4)" xmlns:kvg="http://kanjivg.tagaini.net"></path><path class="stroke_order_diagram--existing_path" d="M53.7,35.12c0.61,0.8,1.15,2.54,0.94,4.3c-1.55,13.03-6.34,33.85-16.51,47.26" id="Ske2xlwc54z" kvg:type="㇒" transform="matrix(1,0,0,1,1396,-4)" xmlns:kvg="http://kanjivg.tagaini.net"></path><path class="stroke_order_diagram--existing_path" d="M79.11,14.89c0.02,0.57,0.04,1.48-0.04,2.3c-0.53,4.85-3.55,15.5-7.68,22.02" id="Ske2xlwc550" kvg:type="㇒" transform="matrix(1,0,0,1,1396,-4)" xmlns:kvg="http://kanjivg.tagaini.net"></path><path class="stroke_order_diagram--existing_path" d="M77.57,31.91c0.68,0.08,2.23,0.55,2.89,0.44c5.34-0.92,8.86-1.34,13.08-1.95c1.11-0.16,2.03-0.15,3.28-0.15" id="Ske2xlwc551" kvg:type="㇐" transform="matrix(1,0,0,1,1396,-4)" xmlns:kvg="http://kanjivg.tagaini.net"></path><path class="stroke_order_diagram--existing_path" d="M73.78,45.54c0.64,0.21,1.85,0.55,2.81,0.36c1.17-0.23,12.74-2.83,13.86-2.83c1.12,0,2.33,0.64,1.21,1.91S82.4,55.69,79.57,58" id="Ske2xlwc552" kvg:type="㇖" transform="matrix(1,0,0,1,1396,-4)" xmlns:kvg="http://kanjivg.tagaini.net"></path><path class="stroke_order_diagram--existing_path" d="M79.06,58.2C82.25,62,88,75.25,83.32,88.78c-1.8,5.21-5.07,2.97-6.59,0.58" id="Ske2xlwc553" kvg:type="㇕v" transform="matrix(1,0,0,1,1396,-4)" xmlns:kvg="http://kanjivg.tagaini.net"></path><path class="stroke_order_diagram--current_path" d="M67.78,65.54c0.8,0.33,2.87,0.44,4.31,0.36c5.03-0.29,16.16-2.4,22.73-3.37c1.43-0.21,2.71,0.11,3.67,0.44" id="kvg:08763-s15" kvg:type="㇐" transform="matrix(1,0,0,1,1396,-4)" xmlns:kvg="http://kanjivg.tagaini.net"></path><path class="stroke_order_diagram--current_path" d="M67.78,65.54c0.8,0.33,2.87,0.44,4.31,0.36c5.03-0.29,16.16-2.4,22.73-3.37c1.43-0.21,2.71,0.11,3.67,0.44" id="Ske2xlwc555" kvg:type="㇐" transform="matrix(1,0,0,1,1396,-4)" xmlns:kvg="http://kanjivg.tagaini.net"></path><circle class="stroke_order_diagram--path_start" cx="67.78" cy="65.54" r="4" transform="matrix(1,0,0,1,1396,-4)"></circle></svg>