<svg class="stroke_order_diagram--svg_container_for_518662bbd5dda7965800153d" style="height: 100px; width: 1700px;" viewbox="0 0 1700 100"><desc>Created with Snap</desc><defs></defs><line class="stroke_order_diagram--bounding_box" x1="1" x2="1699" y1="1" y2="1"></line><line class="stroke_order_diagram--bounding_box" x1="1" x2="1" y1="1" y2="99"></line><line class="stroke_order_diagram--bounding_box" x1="1" x2="1699" y1="99" y2="99"></line><line class="stroke_order_diagram--guide_line" x1="0" x2="1700" y1="50" y2="50"></line><line class="stroke_order_diagram--guide_line" x1="50" x2="50" y1="1" y2="99"></line><line class="stroke_order_diagram--bounding_box" x1="99" x2="99" y1="1" y2="99"></line><path class="stroke_order_diagram--current_path" d="M11.26,36.9c0.46,0.51,1.02,1.4,1.12,2.06c0.87,5.79,1.12,14.29,2.62,23.43" id="kvg:0880e-s1" kvg:type="㇑" transform="matrix(1,0,0,1,-4,-4)" xmlns:kvg="http://kanjivg.tagaini.net"></path><path class="stroke_order_diagram--current_path" d="M11.26,36.9c0.46,0.51,1.02,1.4,1.12,2.06c0.87,5.79,1.12,14.29,2.62,23.43" id="Ske2xtug4q" kvg:type="㇑" transform="matrix(1,0,0,1,-4,-4)" xmlns:kvg="http://kanjivg.tagaini.net"></path><circle class="stroke_order_diagram--path_start" cx="11.26" cy="36.9" r="4" transform="matrix(1,0,0,1,-4,-4)"></circle><line class="stroke_order_diagram--guide_line" x1="150" x2="150" y1="1" y2="99"></line><line class="stroke_order_diagram--bounding_box" x1="199" x2="199" y1="1" y2="99"></line><path class="stroke_order_diagram--existing_path" d="M11.26,36.9c0.46,0.51,1.02,1.4,1.12,2.06c0.87,5.79,1.12,14.29,2.62,23.43" id="Ske2xtug4t" kvg:type="㇑" transform="matrix(1,0,0,1,96,-4)" xmlns:kvg="http://kanjivg.tagaini.net"></path><path class="stroke_order_diagram--current_path" d="M13.22,38.98c6.93-0.97,17.11-2.83,22.13-3.2c1.96-0.14,2.86,1.38,2.62,2.83c-0.83,4.98-1.98,11.84-3.33,20.12" id="kvg:0880e-s2" kvg:type="㇕b" transform="matrix(1,0,0,1,96,-4)" xmlns:kvg="http://kanjivg.tagaini.net"></path><path class="stroke_order_diagram--current_path" d="M13.22,38.98c6.93-0.97,17.11-2.83,22.13-3.2c1.96-0.14,2.86,1.38,2.62,2.83c-0.83,4.98-1.98,11.84-3.33,20.12" id="Ske2xtug4v" kvg:type="㇕b" transform="matrix(1,0,0,1,96,-4)" xmlns:kvg="http://kanjivg.tagaini.net"></path><circle class="stroke_order_diagram--path_start" cx="13.22" cy="38.98" r="4" transform="matrix(1,0,0,1,96,-4)"></circle><line class="stroke_order_diagram--guide_line" x1="250" x2="250" y1="1" y2="99"></line><line class="stroke_order_diagram--bounding_box" x1="299" x2="299" y1="1" y2="99"></line><path class="stroke_order_diagram--existing_path" d="M11.26,36.9c0.46,0.51,1.02,1.4,1.12,2.06c0.87,5.79,1.12,14.29,2.62,23.43" id="Ske2xtug4y" kvg:type="㇑" transform="matrix(1,0,0,1,196,-4)" xmlns:kvg="http://kanjivg.tagaini.net"></path><path class="stroke_order_diagram--existing_path" d="M13.22,38.98c6.93-0.97,17.11-2.83,22.13-3.2c1.96-0.14,2.86,1.38,2.62,2.83c-0.83,4.98-1.98,11.84-3.33,20.12" id="Ske2xtug4z" kvg:type="㇕b" transform="matrix(1,0,0,1,196,-4)" xmlns:kvg="http://kanjivg.tagaini.net"></path><path class="stroke_order_diagram--current_path" d="M15.26,60.43c6.24-0.43,12.99-1.18,21.76-1.89" id="kvg:0880e-s3" kvg:type="㇐b" transform="matrix(1,0,0,1,196,-4)" xmlns:kvg="http://kanjivg.tagaini.net"></path><path class="stroke_order_diagram--current_path" d="M15.26,60.43c6.24-0.43,12.99-1.18,21.76-1.89" id="Ske2xtug411" kvg:type="㇐b" transform="matrix(1,0,0,1,196,-4)" xmlns:kvg="http://kanjivg.tagaini.net"></path><circle class="stroke_order_diagram--path_start" cx="15.26" cy="60.43" r="4" transform="matrix(1,0,0,1,196,-4)"></circle><line class="stroke_order_diagram--guide_line" x1="350" x2="350" y1="1" y2="99"></line><line class="stroke_order_diagram--bounding_box" x1="399" x2="399" y1="1" y2="99"></line><path class="stroke_order_diagram--existing_path" d="M11.26,36.9c0.46,0.51,1.02,1.4,1.12,2.06c0.87,5.79,1.12,14.29,2.62,23.43" id="Ske2xtug414" kvg:type="㇑" transform="matrix(1,0,0,1,296,-4)" xmlns:kvg="http://kanjivg.tagaini.net"></path><path class="stroke_order_diagram--existing_path" d="M13.22,38.98c6.93-0.97,17.11-2.83,22.13-3.2c1.96-0.14,2.86,1.38,2.62,2.83c-0.83,4.98-1.98,11.84-3.33,20.12" id="Ske2xtug415" kvg:type="㇕b" transform="matrix(1,0,0,1,296,-4)" xmlns:kvg="http://kanjivg.tagaini.net"></path><path class="stroke_order_diagram--existing_path" d="M15.26,60.43c6.24-0.43,12.99-1.18,21.76-1.89" id="Ske2xtug416" kvg:type="㇐b" transform="matrix(1,0,0,1,296,-4)" xmlns:kvg="http://kanjivg.tagaini.net"></path><path class="stroke_order_diagram--current_path" d="M22.42,17.75c1.08,1,2.26,2.75,2.26,4.47c0,4.78-0.2,45.28-0.2,58.66" id="kvg:0880e-s4" kvg:type="㇑a" transform="matrix(1,0,0,1,296,-4)" xmlns:kvg="http://kanjivg.tagaini.net"></path><path class="stroke_order_diagram--current_path" d="M22.42,17.75c1.08,1,2.26,2.75,2.26,4.47c0,4.78-0.2,45.28-0.2,58.66" id="Ske2xtug418" kvg:type="㇑a" transform="matrix(1,0,0,1,296,-4)" xmlns:kvg="http://kanjivg.tagaini.net"></path><circle class="stroke_order_diagram--path_start" cx="22.42" cy="17.75" r="4" transform="matrix(1,0,0,1,296,-4)"></circle><line class="stroke_order_diagram--guide_line" x1="450" x2="450" y1="1" y2="99"></line><line class="stroke_order_diagram--bounding_box" x1="499" x2="499" y1="1" y2="99"></line><path class="stroke_order_diagram--existing_path" d="M11.26,36.9c0.46,0.51,1.02,1.4,1.12,2.06c0.87,5.79,1.12,14.29,2.62,23.43" id="Ske2xtug41b" kvg:type="㇑" transform="matrix(1,0,0,1,396,-4)" xmlns:kvg="http://kanjivg.tagaini.net"></path><path class="stroke_order_diagram--existing_path" d="M13.22,38.98c6.93-0.97,17.11-2.83,22.13-3.2c1.96-0.14,2.86,1.38,2.62,2.83c-0.83,4.98-1.98,11.84-3.33,20.12" id="Ske2xtug41c" kvg:type="㇕b" transform="matrix(1,0,0,1,396,-4)" xmlns:kvg="http://kanjivg.tagaini.net"></path><path class="stroke_order_diagram--existing_path" d="M15.26,60.43c6.24-0.43,12.99-1.18,21.76-1.89" id="Ske2xtug41d" kvg:type="㇐b" transform="matrix(1,0,0,1,396,-4)" xmlns:kvg="http://kanjivg.tagaini.net"></path><path class="stroke_order_diagram--existing_path" d="M22.42,17.75c1.08,1,2.26,2.75,2.26,4.47c0,4.78-0.2,45.28-0.2,58.66" id="Ske2xtug41e" kvg:type="㇑a" transform="matrix(1,0,0,1,396,-4)" xmlns:kvg="http://kanjivg.tagaini.net"></path><path class="stroke_order_diagram--current_path" d="M11.57,85.77c0.6,1.16,2.46,1.11,3.06,0.82c0.6-0.29,18.04-9.15,21.76-11.47" id="kvg:0880e-s5" kvg:type="㇀" transform="matrix(1,0,0,1,396,-4)" xmlns:kvg="http://kanjivg.tagaini.net"></path><path class="stroke_order_diagram--current_path" d="M11.57,85.77c0.6,1.16,2.46,1.11,3.06,0.82c0.6-0.29,18.04-9.15,21.76-11.47" id="Ske2xtug41g" kvg:type="㇀" transform="matrix(1,0,0,1,396,-4)" xmlns:kvg="http://kanjivg.tagaini.net"></path><circle class="stroke_order_diagram--path_start" cx="11.57" cy="85.77" r="4" transform="matrix(1,0,0,1,396,-4)"></circle><line class="stroke_order_diagram--guide_line" x1="550" x2="550" y1="1" y2="99"></line><line class="stroke_order_diagram--bounding_box" x1="599" x2="599" y1="1" y2="99"></line><path class="stroke_order_diagram--existing_path" d="M11.26,36.9c0.46,0.51,1.02,1.4,1.12,2.06c0.87,5.79,1.12,14.29,2.62,23.43" id="Ske2xtug41j" kvg:type="㇑" transform="matrix(1,0,0,1,496,-4)" xmlns:kvg="http://kanjivg.tagaini.net"></path><path class="stroke_order_diagram--existing_path" d="M13.22,38.98c6.93-0.97,17.11-2.83,22.13-3.2c1.96-0.14,2.86,1.38,2.62,2.83c-0.83,4.98-1.98,11.84-3.33,20.12" id="Ske2xtug41k" kvg:type="㇕b" transform="matrix(1,0,0,1,496,-4)" xmlns:kvg="http://kanjivg.tagaini.net"></path><path class="stroke_order_diagram--existing_path" d="M15.26,60.43c6.24-0.43,12.99-1.18,21.76-1.89" id="Ske2xtug41l" kvg:type="㇐b" transform="matrix(1,0,0,1,496,-4)" xmlns:kvg="http://kanjivg.tagaini.net"></path><path class="stroke_order_diagram--existing_path" d="M22.42,17.75c1.08,1,2.26,2.75,2.26,4.47c0,4.78-0.2,45.28-0.2,58.66" id="Ske2xtug41m" kvg:type="㇑a" transform="matrix(1,0,0,1,496,-4)" xmlns:kvg="http://kanjivg.tagaini.net"></path><path class="stroke_order_diagram--existing_path" d="M11.57,85.77c0.6,1.16,2.46,1.11,3.06,0.82c0.6-0.29,18.04-9.15,21.76-11.47" id="Ske2xtug41n" kvg:type="㇀" transform="matrix(1,0,0,1,496,-4)" xmlns:kvg="http://kanjivg.tagaini.net"></path><path class="stroke_order_diagram--current_path" d="M32,66.75c3.2,3.03,8.26,12.44,9.06,17.14" id="kvg:0880e-s6" kvg:type="㇔" transform="matrix(1,0,0,1,496,-4)" xmlns:kvg="http://kanjivg.tagaini.net"></path><path class="stroke_order_diagram--current_path" d="M32,66.75c3.2,3.03,8.26,12.44,9.06,17.14" id="Ske2xtug41p" kvg:type="㇔" transform="matrix(1,0,0,1,496,-4)" xmlns:kvg="http://kanjivg.tagaini.net"></path><circle class="stroke_order_diagram--path_start" cx="32" cy="66.75" r="4" transform="matrix(1,0,0,1,496,-4)"></circle><line class="stroke_order_diagram--guide_line" x1="650" x2="650" y1="1" y2="99"></line><line class="stroke_order_diagram--bounding_box" x1="699" x2="699" y1="1" y2="99"></line><path class="stroke_order_diagram--existing_path" d="M11.26,36.9c0.46,0.51,1.02,1.4,1.12,2.06c0.87,5.79,1.12,14.29,2.62,23.43" id="Ske2xtug41s" kvg:type="㇑" transform="matrix(1,0,0,1,596,-4)" xmlns:kvg="http://kanjivg.tagaini.net"></path><path class="stroke_order_diagram--existing_path" d="M13.22,38.98c6.93-0.97,17.11-2.83,22.13-3.2c1.96-0.14,2.86,1.38,2.62,2.83c-0.83,4.98-1.98,11.84-3.33,20.12" id="Ske2xtug41t" kvg:type="㇕b" transform="matrix(1,0,0,1,596,-4)" xmlns:kvg="http://kanjivg.tagaini.net"></path><path class="stroke_order_diagram--existing_path" d="M15.26,60.43c6.24-0.43,12.99-1.18,21.76-1.89" id="Ske2xtug41u" kvg:type="㇐b" transform="matrix(1,0,0,1,596,-4)" xmlns:kvg="http://kanjivg.tagaini.net"></path><path class="stroke_order_diagram--existing_path" d="M22.42,17.75c1.08,1,2.26,2.75,2.26,4.47c0,4.78-0.2,45.28-0.2,58.66" id="Ske2xtug41v" kvg:type="㇑a" transform="matrix(1,0,0,1,596,-4)" xmlns:kvg="http://kanjivg.tagaini.net"></path><path class="stroke_order_diagram--existing_path" d="M11.57,85.77c0.6,1.16,2.46,1.11,3.06,0.82c0.6-0.29,18.04-9.15,21.76-11.47" id="Ske2xtug41w" kvg:type="㇀" transform="matrix(1,0,0,1,596,-4)" xmlns:kvg="http://kanjivg.tagaini.net"></path><path class="stroke_order_diagram--existing_path" d="M32,66.75c3.2,3.03,8.26,12.44,9.06,17.14" id="Ske2xtug41x" kvg:type="㇔" transform="matrix(1,0,0,1,596,-4)" xmlns:kvg="http://kanjivg.tagaini.net"></path><path class="stroke_order_diagram--current_path" d="M42.15,24.03c1.4,0.41,3.03,0.5,4.43,0.41c12.86-0.76,29.56-3.69,44.38-3.75c2.33-0.01,3.73,0.2,4.9,0.4" id="kvg:0880e-s7" kvg:type="㇐" transform="matrix(1,0,0,1,596,-4)" xmlns:kvg="http://kanjivg.tagaini.net"></path><path class="stroke_order_diagram--current_path" d="M42.15,24.03c1.4,0.41,3.03,0.5,4.43,0.41c12.86-0.76,29.56-3.69,44.38-3.75c2.33-0.01,3.73,0.2,4.9,0.4" id="Ske2xtug41z" kvg:type="㇐" transform="matrix(1,0,0,1,596,-4)" xmlns:kvg="http://kanjivg.tagaini.net"></path><circle class="stroke_order_diagram--path_start" cx="42.15" cy="24.03" r="4" transform="matrix(1,0,0,1,596,-4)"></circle><line class="stroke_order_diagram--guide_line" x1="750" x2="750" y1="1" y2="99"></line><line class="stroke_order_diagram--bounding_box" x1="799" x2="799" y1="1" y2="99"></line><path class="stroke_order_diagram--existing_path" d="M11.26,36.9c0.46,0.51,1.02,1.4,1.12,2.06c0.87,5.79,1.12,14.29,2.62,23.43" id="Ske2xtug422" kvg:type="㇑" transform="matrix(1,0,0,1,696,-4)" xmlns:kvg="http://kanjivg.tagaini.net"></path><path class="stroke_order_diagram--existing_path" d="M13.22,38.98c6.93-0.97,17.11-2.83,22.13-3.2c1.96-0.14,2.86,1.38,2.62,2.83c-0.83,4.98-1.98,11.84-3.33,20.12" id="Ske2xtug423" kvg:type="㇕b" transform="matrix(1,0,0,1,696,-4)" xmlns:kvg="http://kanjivg.tagaini.net"></path><path class="stroke_order_diagram--existing_path" d="M15.26,60.43c6.24-0.43,12.99-1.18,21.76-1.89" id="Ske2xtug424" kvg:type="㇐b" transform="matrix(1,0,0,1,696,-4)" xmlns:kvg="http://kanjivg.tagaini.net"></path><path class="stroke_order_diagram--existing_path" d="M22.42,17.75c1.08,1,2.26,2.75,2.26,4.47c0,4.78-0.2,45.28-0.2,58.66" id="Ske2xtug425" kvg:type="㇑a" transform="matrix(1,0,0,1,696,-4)" xmlns:kvg="http://kanjivg.tagaini.net"></path><path class="stroke_order_diagram--existing_path" d="M11.57,85.77c0.6,1.16,2.46,1.11,3.06,0.82c0.6-0.29,18.04-9.15,21.76-11.47" id="Ske2xtug426" kvg:type="㇀" transform="matrix(1,0,0,1,696,-4)" xmlns:kvg="http://kanjivg.tagaini.net"></path><path class="stroke_order_diagram--existing_path" d="M32,66.75c3.2,3.03,8.26,12.44,9.06,17.14" id="Ske2xtug427" kvg:type="㇔" transform="matrix(1,0,0,1,696,-4)" xmlns:kvg="http://kanjivg.tagaini.net"></path><path class="stroke_order_diagram--existing_path" d="M42.15,24.03c1.4,0.41,3.03,0.5,4.43,0.41c12.86-0.76,29.56-3.69,44.38-3.75c2.33-0.01,3.73,0.2,4.9,0.4" id="Ske2xtug428" kvg:type="㇐" transform="matrix(1,0,0,1,696,-4)" xmlns:kvg="http://kanjivg.tagaini.net"></path><path class="stroke_order_diagram--current_path" d="M53.67,13.31c1.38,1.13,1.87,1.46,1.97,2.16C56.5,21.75,56.75,28,57.09,31.5" id="kvg:0880e-s8" kvg:type="㇑a" transform="matrix(1,0,0,1,696,-4)" xmlns:kvg="http://kanjivg.tagaini.net"></path><path class="stroke_order_diagram--current_path" d="M53.67,13.31c1.38,1.13,1.87,1.46,1.97,2.16C56.5,21.75,56.75,28,57.09,31.5" id="Ske2xtug42a" kvg:type="㇑a" transform="matrix(1,0,0,1,696,-4)" xmlns:kvg="http://kanjivg.tagaini.net"></path><circle class="stroke_order_diagram--path_start" cx="53.67" cy="13.31" r="4" transform="matrix(1,0,0,1,696,-4)"></circle><line class="stroke_order_diagram--guide_line" x1="850" x2="850" y1="1" y2="99"></line><line class="stroke_order_diagram--bounding_box" x1="899" x2="899" y1="1" y2="99"></line><path class="stroke_order_diagram--existing_path" d="M11.26,36.9c0.46,0.51,1.02,1.4,1.12,2.06c0.87,5.79,1.12,14.29,2.62,23.43" id="Ske2xtug42d" kvg:type="㇑" transform="matrix(1,0,0,1,796,-4)" xmlns:kvg="http://kanjivg.tagaini.net"></path><path class="stroke_order_diagram--existing_path" d="M13.22,38.98c6.93-0.97,17.11-2.83,22.13-3.2c1.96-0.14,2.86,1.38,2.62,2.83c-0.83,4.98-1.98,11.84-3.33,20.12" id="Ske2xtug42e" kvg:type="㇕b" transform="matrix(1,0,0,1,796,-4)" xmlns:kvg="http://kanjivg.tagaini.net"></path><path class="stroke_order_diagram--existing_path" d="M15.26,60.43c6.24-0.43,12.99-1.18,21.76-1.89" id="Ske2xtug42f" kvg:type="㇐b" transform="matrix(1,0,0,1,796,-4)" xmlns:kvg="http://kanjivg.tagaini.net"></path><path class="stroke_order_diagram--existing_path" d="M22.42,17.75c1.08,1,2.26,2.75,2.26,4.47c0,4.78-0.2,45.28-0.2,58.66" id="Ske2xtug42g" kvg:type="㇑a" transform="matrix(1,0,0,1,796,-4)" xmlns:kvg="http://kanjivg.tagaini.net"></path><path class="stroke_order_diagram--existing_path" d="M11.57,85.77c0.6,1.16,2.46,1.11,3.06,0.82c0.6-0.29,18.04-9.15,21.76-11.47" id="Ske2xtug42h" kvg:type="㇀" transform="matrix(1,0,0,1,796,-4)" xmlns:kvg="http://kanjivg.tagaini.net"></path><path class="stroke_order_diagram--existing_path" d="M32,66.75c3.2,3.03,8.26,12.44,9.06,17.14" id="Ske2xtug42i" kvg:type="㇔" transform="matrix(1,0,0,1,796,-4)" xmlns:kvg="http://kanjivg.tagaini.net"></path><path class="stroke_order_diagram--existing_path" d="M42.15,24.03c1.4,0.41,3.03,0.5,4.43,0.41c12.86-0.76,29.56-3.69,44.38-3.75c2.33-0.01,3.73,0.2,4.9,0.4" id="Ske2xtug42j" kvg:type="㇐" transform="matrix(1,0,0,1,796,-4)" xmlns:kvg="http://kanjivg.tagaini.net"></path><path class="stroke_order_diagram--existing_path" d="M53.67,13.31c1.38,1.13,1.87,1.46,1.97,2.16C56.5,21.75,56.75,28,57.09,31.5" id="Ske2xtug42k" kvg:type="㇑a" transform="matrix(1,0,0,1,796,-4)" xmlns:kvg="http://kanjivg.tagaini.net"></path><path class="stroke_order_diagram--current_path" d="M78.45,11.75c0.33,0.93,0.97,2.56,0.89,3.75c-0.34,5-1.59,8.25-2.5,13.82" id="kvg:0880e-s9" kvg:type="㇑a" transform="matrix(1,0,0,1,796,-4)" xmlns:kvg="http://kanjivg.tagaini.net"></path><path class="stroke_order_diagram--current_path" d="M78.45,11.75c0.33,0.93,0.97,2.56,0.89,3.75c-0.34,5-1.59,8.25-2.5,13.82" id="Ske2xtug42m" kvg:type="㇑a" transform="matrix(1,0,0,1,796,-4)" xmlns:kvg="http://kanjivg.tagaini.net"></path><circle class="stroke_order_diagram--path_start" cx="78.45" cy="11.75" r="4" transform="matrix(1,0,0,1,796,-4)"></circle><line class="stroke_order_diagram--guide_line" x1="950" x2="950" y1="1" y2="99"></line><line class="stroke_order_diagram--bounding_box" x1="999" x2="999" y1="1" y2="99"></line><path class="stroke_order_diagram--existing_path" d="M11.26,36.9c0.46,0.51,1.02,1.4,1.12,2.06c0.87,5.79,1.12,14.29,2.62,23.43" id="Ske2xtug42p" kvg:type="㇑" transform="matrix(1,0,0,1,896,-4)" xmlns:kvg="http://kanjivg.tagaini.net"></path><path class="stroke_order_diagram--existing_path" d="M13.22,38.98c6.93-0.97,17.11-2.83,22.13-3.2c1.96-0.14,2.86,1.38,2.62,2.83c-0.83,4.98-1.98,11.84-3.33,20.12" id="Ske2xtug42q" kvg:type="㇕b" transform="matrix(1,0,0,1,896,-4)" xmlns:kvg="http://kanjivg.tagaini.net"></path><path class="stroke_order_diagram--existing_path" d="M15.26,60.43c6.24-0.43,12.99-1.18,21.76-1.89" id="Ske2xtug42r" kvg:type="㇐b" transform="matrix(1,0,0,1,896,-4)" xmlns:kvg="http://kanjivg.tagaini.net"></path><path class="stroke_order_diagram--existing_path" d="M22.42,17.75c1.08,1,2.26,2.75,2.26,4.47c0,4.78-0.2,45.28-0.2,58.66" id="Ske2xtug42s" kvg:type="㇑a" transform="matrix(1,0,0,1,896,-4)" xmlns:kvg="http://kanjivg.tagaini.net"></path><path class="stroke_order_diagram--existing_path" d="M11.57,85.77c0.6,1.16,2.46,1.11,3.06,0.82c0.6-0.29,18.04-9.15,21.76-11.47" id="Ske2xtug42t" kvg:type="㇀" transform="matrix(1,0,0,1,896,-4)" xmlns:kvg="http://kanjivg.tagaini.net"></path><path class="stroke_order_diagram--existing_path" d="M32,66.75c3.2,3.03,8.26,12.44,9.06,17.14" id="Ske2xtug42u" kvg:type="㇔" transform="matrix(1,0,0,1,896,-4)" xmlns:kvg="http://kanjivg.tagaini.net"></path><path class="stroke_order_diagram--existing_path" d="M42.15,24.03c1.4,0.41,3.03,0.5,4.43,0.41c12.86-0.76,29.56-3.69,44.38-3.75c2.33-0.01,3.73,0.2,4.9,0.4" id="Ske2xtug42v" kvg:type="㇐" transform="matrix(1,0,0,1,896,-4)" xmlns:kvg="http://kanjivg.tagaini.net"></path><path class="stroke_order_diagram--existing_path" d="M53.67,13.31c1.38,1.13,1.87,1.46,1.97,2.16C56.5,21.75,56.75,28,57.09,31.5" id="Ske2xtug42w" kvg:type="㇑a" transform="matrix(1,0,0,1,896,-4)" xmlns:kvg="http://kanjivg.tagaini.net"></path><path class="stroke_order_diagram--existing_path" d="M78.45,11.75c0.33,0.93,0.97,2.56,0.89,3.75c-0.34,5-1.59,8.25-2.5,13.82" id="Ske2xtug42x" kvg:type="㇑a" transform="matrix(1,0,0,1,896,-4)" xmlns:kvg="http://kanjivg.tagaini.net"></path><path class="stroke_order_diagram--current_path" d="M44.91,40.06c1.44,0.36,3.16,0.72,5.01,0.57c13.93-1.13,28.84-3,39.99-3.85c1.92-0.15,3.46-0.07,5.19,0.39" id="kvg:0880e-s10" kvg:type="㇐" transform="matrix(1,0,0,1,896,-4)" xmlns:kvg="http://kanjivg.tagaini.net"></path><path class="stroke_order_diagram--current_path" d="M44.91,40.06c1.44,0.36,3.16,0.72,5.01,0.57c13.93-1.13,28.84-3,39.99-3.85c1.92-0.15,3.46-0.07,5.19,0.39" id="Ske2xtug42z" kvg:type="㇐" transform="matrix(1,0,0,1,896,-4)" xmlns:kvg="http://kanjivg.tagaini.net"></path><circle class="stroke_order_diagram--path_start" cx="44.91" cy="40.06" r="4" transform="matrix(1,0,0,1,896,-4)"></circle><line class="stroke_order_diagram--guide_line" x1="1050" x2="1050" y1="1" y2="99"></line><line class="stroke_order_diagram--bounding_box" x1="1099" x2="1099" y1="1" y2="99"></line><path class="stroke_order_diagram--existing_path" d="M11.26,36.9c0.46,0.51,1.02,1.4,1.12,2.06c0.87,5.79,1.12,14.29,2.62,23.43" id="Ske2xtug432" kvg:type="㇑" transform="matrix(1,0,0,1,996,-4)" xmlns:kvg="http://kanjivg.tagaini.net"></path><path class="stroke_order_diagram--existing_path" d="M13.22,38.98c6.93-0.97,17.11-2.83,22.13-3.2c1.96-0.14,2.86,1.38,2.62,2.83c-0.83,4.98-1.98,11.84-3.33,20.12" id="Ske2xtug433" kvg:type="㇕b" transform="matrix(1,0,0,1,996,-4)" xmlns:kvg="http://kanjivg.tagaini.net"></path><path class="stroke_order_diagram--existing_path" d="M15.26,60.43c6.24-0.43,12.99-1.18,21.76-1.89" id="Ske2xtug434" kvg:type="㇐b" transform="matrix(1,0,0,1,996,-4)" xmlns:kvg="http://kanjivg.tagaini.net"></path><path class="stroke_order_diagram--existing_path" d="M22.42,17.75c1.08,1,2.26,2.75,2.26,4.47c0,4.78-0.2,45.28-0.2,58.66" id="Ske2xtug435" kvg:type="㇑a" transform="matrix(1,0,0,1,996,-4)" xmlns:kvg="http://kanjivg.tagaini.net"></path><path class="stroke_order_diagram--existing_path" d="M11.57,85.77c0.6,1.16,2.46,1.11,3.06,0.82c0.6-0.29,18.04-9.15,21.76-11.47" id="Ske2xtug436" kvg:type="㇀" transform="matrix(1,0,0,1,996,-4)" xmlns:kvg="http://kanjivg.tagaini.net"></path><path class="stroke_order_diagram--existing_path" d="M32,66.75c3.2,3.03,8.26,12.44,9.06,17.14" id="Ske2xtug437" kvg:type="㇔" transform="matrix(1,0,0,1,996,-4)" xmlns:kvg="http://kanjivg.tagaini.net"></path><path class="stroke_order_diagram--existing_path" d="M42.15,24.03c1.4,0.41,3.03,0.5,4.43,0.41c12.86-0.76,29.56-3.69,44.38-3.75c2.33-0.01,3.73,0.2,4.9,0.4" id="Ske2xtug438" kvg:type="㇐" transform="matrix(1,0,0,1,996,-4)" xmlns:kvg="http://kanjivg.tagaini.net"></path><path class="stroke_order_diagram--existing_path" d="M53.67,13.31c1.38,1.13,1.87,1.46,1.97,2.16C56.5,21.75,56.75,28,57.09,31.5" id="Ske2xtug439" kvg:type="㇑a" transform="matrix(1,0,0,1,996,-4)" xmlns:kvg="http://kanjivg.tagaini.net"></path><path class="stroke_order_diagram--existing_path" d="M78.45,11.75c0.33,0.93,0.97,2.56,0.89,3.75c-0.34,5-1.59,8.25-2.5,13.82" id="Ske2xtug43a" kvg:type="㇑a" transform="matrix(1,0,0,1,996,-4)" xmlns:kvg="http://kanjivg.tagaini.net"></path><path class="stroke_order_diagram--existing_path" d="M44.91,40.06c1.44,0.36,3.16,0.72,5.01,0.57c13.93-1.13,28.84-3,39.99-3.85c1.92-0.15,3.46-0.07,5.19,0.39" id="Ske2xtug43b" kvg:type="㇐" transform="matrix(1,0,0,1,996,-4)" xmlns:kvg="http://kanjivg.tagaini.net"></path><path class="stroke_order_diagram--current_path" d="M66.24,27.25c0.23,1.18,0.31,1.92-0.11,2.84C59.25,45.25,52.5,53.75,42.69,62.33" id="kvg:0880e-s11" kvg:type="㇒" transform="matrix(1,0,0,1,996,-4)" xmlns:kvg="http://kanjivg.tagaini.net"></path><path class="stroke_order_diagram--current_path" d="M66.24,27.25c0.23,1.18,0.31,1.92-0.11,2.84C59.25,45.25,52.5,53.75,42.69,62.33" id="Ske2xtug43d" kvg:type="㇒" transform="matrix(1,0,0,1,996,-4)" xmlns:kvg="http://kanjivg.tagaini.net"></path><circle class="stroke_order_diagram--path_start" cx="66.24" cy="27.25" r="4" transform="matrix(1,0,0,1,996,-4)"></circle><line class="stroke_order_diagram--guide_line" x1="1150" x2="1150" y1="1" y2="99"></line><line class="stroke_order_diagram--bounding_box" x1="1199" x2="1199" y1="1" y2="99"></line><path class="stroke_order_diagram--existing_path" d="M11.26,36.9c0.46,0.51,1.02,1.4,1.12,2.06c0.87,5.79,1.12,14.29,2.62,23.43" id="Ske2xtug43g" kvg:type="㇑" transform="matrix(1,0,0,1,1096,-4)" xmlns:kvg="http://kanjivg.tagaini.net"></path><path class="stroke_order_diagram--existing_path" d="M13.22,38.98c6.93-0.97,17.11-2.83,22.13-3.2c1.96-0.14,2.86,1.38,2.62,2.83c-0.83,4.98-1.98,11.84-3.33,20.12" id="Ske2xtug43h" kvg:type="㇕b" transform="matrix(1,0,0,1,1096,-4)" xmlns:kvg="http://kanjivg.tagaini.net"></path><path class="stroke_order_diagram--existing_path" d="M15.26,60.43c6.24-0.43,12.99-1.18,21.76-1.89" id="Ske2xtug43i" kvg:type="㇐b" transform="matrix(1,0,0,1,1096,-4)" xmlns:kvg="http://kanjivg.tagaini.net"></path><path class="stroke_order_diagram--existing_path" d="M22.42,17.75c1.08,1,2.26,2.75,2.26,4.47c0,4.78-0.2,45.28-0.2,58.66" id="Ske2xtug43j" kvg:type="㇑a" transform="matrix(1,0,0,1,1096,-4)" xmlns:kvg="http://kanjivg.tagaini.net"></path><path class="stroke_order_diagram--existing_path" d="M11.57,85.77c0.6,1.16,2.46,1.11,3.06,0.82c0.6-0.29,18.04-9.15,21.76-11.47" id="Ske2xtug43k" kvg:type="㇀" transform="matrix(1,0,0,1,1096,-4)" xmlns:kvg="http://kanjivg.tagaini.net"></path><path class="stroke_order_diagram--existing_path" d="M32,66.75c3.2,3.03,8.26,12.44,9.06,17.14" id="Ske2xtug43l" kvg:type="㇔" transform="matrix(1,0,0,1,1096,-4)" xmlns:kvg="http://kanjivg.tagaini.net"></path><path class="stroke_order_diagram--existing_path" d="M42.15,24.03c1.4,0.41,3.03,0.5,4.43,0.41c12.86-0.76,29.56-3.69,44.38-3.75c2.33-0.01,3.73,0.2,4.9,0.4" id="Ske2xtug43m" kvg:type="㇐" transform="matrix(1,0,0,1,1096,-4)" xmlns:kvg="http://kanjivg.tagaini.net"></path><path class="stroke_order_diagram--existing_path" d="M53.67,13.31c1.38,1.13,1.87,1.46,1.97,2.16C56.5,21.75,56.75,28,57.09,31.5" id="Ske2xtug43n" kvg:type="㇑a" transform="matrix(1,0,0,1,1096,-4)" xmlns:kvg="http://kanjivg.tagaini.net"></path><path class="stroke_order_diagram--existing_path" d="M78.45,11.75c0.33,0.93,0.97,2.56,0.89,3.75c-0.34,5-1.59,8.25-2.5,13.82" id="Ske2xtug43o" kvg:type="㇑a" transform="matrix(1,0,0,1,1096,-4)" xmlns:kvg="http://kanjivg.tagaini.net"></path><path class="stroke_order_diagram--existing_path" d="M44.91,40.06c1.44,0.36,3.16,0.72,5.01,0.57c13.93-1.13,28.84-3,39.99-3.85c1.92-0.15,3.46-0.07,5.19,0.39" id="Ske2xtug43p" kvg:type="㇐" transform="matrix(1,0,0,1,1096,-4)" xmlns:kvg="http://kanjivg.tagaini.net"></path><path class="stroke_order_diagram--existing_path" d="M66.24,27.25c0.23,1.18,0.31,1.92-0.11,2.84C59.25,45.25,52.5,53.75,42.69,62.33" id="Ske2xtug43q" kvg:type="㇒" transform="matrix(1,0,0,1,1096,-4)" xmlns:kvg="http://kanjivg.tagaini.net"></path><path class="stroke_order_diagram--current_path" d="M73.78,38.46c4.76,4.43,15.86,15.71,20.61,18.68c1.62,1.01,2.18,1.16,2.91,1.25" id="kvg:0880e-s12" kvg:type="㇏" transform="matrix(1,0,0,1,1096,-4)" xmlns:kvg="http://kanjivg.tagaini.net"></path><path class="stroke_order_diagram--current_path" d="M73.78,38.46c4.76,4.43,15.86,15.71,20.61,18.68c1.62,1.01,2.18,1.16,2.91,1.25" id="Ske2xtug43s" kvg:type="㇏" transform="matrix(1,0,0,1,1096,-4)" xmlns:kvg="http://kanjivg.tagaini.net"></path><circle class="stroke_order_diagram--path_start" cx="73.78" cy="38.46" r="4" transform="matrix(1,0,0,1,1096,-4)"></circle><line class="stroke_order_diagram--guide_line" x1="1250" x2="1250" y1="1" y2="99"></line><line class="stroke_order_diagram--bounding_box" x1="1299" x2="1299" y1="1" y2="99"></line><path class="stroke_order_diagram--existing_path" d="M11.26,36.9c0.46,0.51,1.02,1.4,1.12,2.06c0.87,5.79,1.12,14.29,2.62,23.43" id="Ske2xtug43v" kvg:type="㇑" transform="matrix(1,0,0,1,1196,-4)" xmlns:kvg="http://kanjivg.tagaini.net"></path><path class="stroke_order_diagram--existing_path" d="M13.22,38.98c6.93-0.97,17.11-2.83,22.13-3.2c1.96-0.14,2.86,1.38,2.62,2.83c-0.83,4.98-1.98,11.84-3.33,20.12" id="Ske2xtug43w" kvg:type="㇕b" transform="matrix(1,0,0,1,1196,-4)" xmlns:kvg="http://kanjivg.tagaini.net"></path><path class="stroke_order_diagram--existing_path" d="M15.26,60.43c6.24-0.43,12.99-1.18,21.76-1.89" id="Ske2xtug43x" kvg:type="㇐b" transform="matrix(1,0,0,1,1196,-4)" xmlns:kvg="http://kanjivg.tagaini.net"></path><path class="stroke_order_diagram--existing_path" d="M22.42,17.75c1.08,1,2.26,2.75,2.26,4.47c0,4.78-0.2,45.28-0.2,58.66" id="Ske2xtug43y" kvg:type="㇑a" transform="matrix(1,0,0,1,1196,-4)" xmlns:kvg="http://kanjivg.tagaini.net"></path><path class="stroke_order_diagram--existing_path" d="M11.57,85.77c0.6,1.16,2.46,1.11,3.06,0.82c0.6-0.29,18.04-9.15,21.76-11.47" id="Ske2xtug43z" kvg:type="㇀" transform="matrix(1,0,0,1,1196,-4)" xmlns:kvg="http://kanjivg.tagaini.net"></path><path class="stroke_order_diagram--existing_path" d="M32,66.75c3.2,3.03,8.26,12.44,9.06,17.14" id="Ske2xtug440" kvg:type="㇔" transform="matrix(1,0,0,1,1196,-4)" xmlns:kvg="http://kanjivg.tagaini.net"></path><path class="stroke_order_diagram--existing_path" d="M42.15,24.03c1.4,0.41,3.03,0.5,4.43,0.41c12.86-0.76,29.56-3.69,44.38-3.75c2.33-0.01,3.73,0.2,4.9,0.4" id="Ske2xtug441" kvg:type="㇐" transform="matrix(1,0,0,1,1196,-4)" xmlns:kvg="http://kanjivg.tagaini.net"></path><path class="stroke_order_diagram--existing_path" d="M53.67,13.31c1.38,1.13,1.87,1.46,1.97,2.16C56.5,21.75,56.75,28,57.09,31.5" id="Ske2xtug442" kvg:type="㇑a" transform="matrix(1,0,0,1,1196,-4)" xmlns:kvg="http://kanjivg.tagaini.net"></path><path class="stroke_order_diagram--existing_path" d="M78.45,11.75c0.33,0.93,0.97,2.56,0.89,3.75c-0.34,5-1.59,8.25-2.5,13.82" id="Ske2xtug443" kvg:type="㇑a" transform="matrix(1,0,0,1,1196,-4)" xmlns:kvg="http://kanjivg.tagaini.net"></path><path class="stroke_order_diagram--existing_path" d="M44.91,40.06c1.44,0.36,3.16,0.72,5.01,0.57c13.93-1.13,28.84-3,39.99-3.85c1.92-0.15,3.46-0.07,5.19,0.39" id="Ske2xtug444" kvg:type="㇐" transform="matrix(1,0,0,1,1196,-4)" xmlns:kvg="http://kanjivg.tagaini.net"></path><path class="stroke_order_diagram--existing_path" d="M66.24,27.25c0.23,1.18,0.31,1.92-0.11,2.84C59.25,45.25,52.5,53.75,42.69,62.33" id="Ske2xtug445" kvg:type="㇒" transform="matrix(1,0,0,1,1196,-4)" xmlns:kvg="http://kanjivg.tagaini.net"></path><path class="stroke_order_diagram--existing_path" d="M73.78,38.46c4.76,4.43,15.86,15.71,20.61,18.68c1.62,1.01,2.18,1.16,2.91,1.25" id="Ske2xtug446" kvg:type="㇏" transform="matrix(1,0,0,1,1196,-4)" xmlns:kvg="http://kanjivg.tagaini.net"></path><path class="stroke_order_diagram--current_path" d="M56.08,56.93c0.77,0.23,2.19,0.29,2.96,0.23c5.71-0.41,13.46-1.16,19.69-1.68c1.28-0.11,2.06,0.11,2.7,0.23" id="kvg:0880e-s13" kvg:type="㇐" transform="matrix(1,0,0,1,1196,-4)" xmlns:kvg="http://kanjivg.tagaini.net"></path><path class="stroke_order_diagram--current_path" d="M56.08,56.93c0.77,0.23,2.19,0.29,2.96,0.23c5.71-0.41,13.46-1.16,19.69-1.68c1.28-0.11,2.06,0.11,2.7,0.23" id="Ske2xtug448" kvg:type="㇐" transform="matrix(1,0,0,1,1196,-4)" xmlns:kvg="http://kanjivg.tagaini.net"></path><circle class="stroke_order_diagram--path_start" cx="56.08" cy="56.93" r="4" transform="matrix(1,0,0,1,1196,-4)"></circle><line class="stroke_order_diagram--guide_line" x1="1350" x2="1350" y1="1" y2="99"></line><line class="stroke_order_diagram--bounding_box" x1="1399" x2="1399" y1="1" y2="99"></line><path class="stroke_order_diagram--existing_path" d="M11.26,36.9c0.46,0.51,1.02,1.4,1.12,2.06c0.87,5.79,1.12,14.29,2.62,23.43" id="Ske2xtug44b" kvg:type="㇑" transform="matrix(1,0,0,1,1296,-4)" xmlns:kvg="http://kanjivg.tagaini.net"></path><path class="stroke_order_diagram--existing_path" d="M13.22,38.98c6.93-0.97,17.11-2.83,22.13-3.2c1.96-0.14,2.86,1.38,2.62,2.83c-0.83,4.98-1.98,11.84-3.33,20.12" id="Ske2xtug44c" kvg:type="㇕b" transform="matrix(1,0,0,1,1296,-4)" xmlns:kvg="http://kanjivg.tagaini.net"></path><path class="stroke_order_diagram--existing_path" d="M15.26,60.43c6.24-0.43,12.99-1.18,21.76-1.89" id="Ske2xtug44d" kvg:type="㇐b" transform="matrix(1,0,0,1,1296,-4)" xmlns:kvg="http://kanjivg.tagaini.net"></path><path class="stroke_order_diagram--existing_path" d="M22.42,17.75c1.08,1,2.26,2.75,2.26,4.47c0,4.78-0.2,45.28-0.2,58.66" id="Ske2xtug44e" kvg:type="㇑a" transform="matrix(1,0,0,1,1296,-4)" xmlns:kvg="http://kanjivg.tagaini.net"></path><path class="stroke_order_diagram--existing_path" d="M11.57,85.77c0.6,1.16,2.46,1.11,3.06,0.82c0.6-0.29,18.04-9.15,21.76-11.47" id="Ske2xtug44f" kvg:type="㇀" transform="matrix(1,0,0,1,1296,-4)" xmlns:kvg="http://kanjivg.tagaini.net"></path><path class="stroke_order_diagram--existing_path" d="M32,66.75c3.2,3.03,8.26,12.44,9.06,17.14" id="Ske2xtug44g" kvg:type="㇔" transform="matrix(1,0,0,1,1296,-4)" xmlns:kvg="http://kanjivg.tagaini.net"></path><path class="stroke_order_diagram--existing_path" d="M42.15,24.03c1.4,0.41,3.03,0.5,4.43,0.41c12.86-0.76,29.56-3.69,44.38-3.75c2.33-0.01,3.73,0.2,4.9,0.4" id="Ske2xtug44h" kvg:type="㇐" transform="matrix(1,0,0,1,1296,-4)" xmlns:kvg="http://kanjivg.tagaini.net"></path><path class="stroke_order_diagram--existing_path" d="M53.67,13.31c1.38,1.13,1.87,1.46,1.97,2.16C56.5,21.75,56.75,28,57.09,31.5" id="Ske2xtug44i" kvg:type="㇑a" transform="matrix(1,0,0,1,1296,-4)" xmlns:kvg="http://kanjivg.tagaini.net"></path><path class="stroke_order_diagram--existing_path" d="M78.45,11.75c0.33,0.93,0.97,2.56,0.89,3.75c-0.34,5-1.59,8.25-2.5,13.82" id="Ske2xtug44j" kvg:type="㇑a" transform="matrix(1,0,0,1,1296,-4)" xmlns:kvg="http://kanjivg.tagaini.net"></path><path class="stroke_order_diagram--existing_path" d="M44.91,40.06c1.44,0.36,3.16,0.72,5.01,0.57c13.93-1.13,28.84-3,39.99-3.85c1.92-0.15,3.46-0.07,5.19,0.39" id="Ske2xtug44k" kvg:type="㇐" transform="matrix(1,0,0,1,1296,-4)" xmlns:kvg="http://kanjivg.tagaini.net"></path><path class="stroke_order_diagram--existing_path" d="M66.24,27.25c0.23,1.18,0.31,1.92-0.11,2.84C59.25,45.25,52.5,53.75,42.69,62.33" id="Ske2xtug44l" kvg:type="㇒" transform="matrix(1,0,0,1,1296,-4)" xmlns:kvg="http://kanjivg.tagaini.net"></path><path class="stroke_order_diagram--existing_path" d="M73.78,38.46c4.76,4.43,15.86,15.71,20.61,18.68c1.62,1.01,2.18,1.16,2.91,1.25" id="Ske2xtug44m" kvg:type="㇏" transform="matrix(1,0,0,1,1296,-4)" xmlns:kvg="http://kanjivg.tagaini.net"></path><path class="stroke_order_diagram--existing_path" d="M56.08,56.93c0.77,0.23,2.19,0.29,2.96,0.23c5.71-0.41,13.46-1.16,19.69-1.68c1.28-0.11,2.06,0.11,2.7,0.23" id="Ske2xtug44n" kvg:type="㇐" transform="matrix(1,0,0,1,1296,-4)" xmlns:kvg="http://kanjivg.tagaini.net"></path><path class="stroke_order_diagram--current_path" d="M68.82,48.13c0.25,0.24,0.78,1.78,0.83,2.25c0.05,0.47-0.03,13.64-0.08,16.61" id="kvg:0880e-s14" kvg:type="㇑" transform="matrix(1,0,0,1,1296,-4)" xmlns:kvg="http://kanjivg.tagaini.net"></path><path class="stroke_order_diagram--current_path" d="M68.82,48.13c0.25,0.24,0.78,1.78,0.83,2.25c0.05,0.47-0.03,13.64-0.08,16.61" id="Ske2xtug44p" kvg:type="㇑" transform="matrix(1,0,0,1,1296,-4)" xmlns:kvg="http://kanjivg.tagaini.net"></path><circle class="stroke_order_diagram--path_start" cx="68.82" cy="48.13" r="4" transform="matrix(1,0,0,1,1296,-4)"></circle><line class="stroke_order_diagram--guide_line" x1="1450" x2="1450" y1="1" y2="99"></line><line class="stroke_order_diagram--bounding_box" x1="1499" x2="1499" y1="1" y2="99"></line><path class="stroke_order_diagram--existing_path" d="M11.26,36.9c0.46,0.51,1.02,1.4,1.12,2.06c0.87,5.79,1.12,14.29,2.62,23.43" id="Ske2xtug44s" kvg:type="㇑" transform="matrix(1,0,0,1,1396,-4)" xmlns:kvg="http://kanjivg.tagaini.net"></path><path class="stroke_order_diagram--existing_path" d="M13.22,38.98c6.93-0.97,17.11-2.83,22.13-3.2c1.96-0.14,2.86,1.38,2.62,2.83c-0.83,4.98-1.98,11.84-3.33,20.12" id="Ske2xtug44t" kvg:type="㇕b" transform="matrix(1,0,0,1,1396,-4)" xmlns:kvg="http://kanjivg.tagaini.net"></path><path class="stroke_order_diagram--existing_path" d="M15.26,60.43c6.24-0.43,12.99-1.18,21.76-1.89" id="Ske2xtug44u" kvg:type="㇐b" transform="matrix(1,0,0,1,1396,-4)" xmlns:kvg="http://kanjivg.tagaini.net"></path><path class="stroke_order_diagram--existing_path" d="M22.42,17.75c1.08,1,2.26,2.75,2.26,4.47c0,4.78-0.2,45.28-0.2,58.66" id="Ske2xtug44v" kvg:type="㇑a" transform="matrix(1,0,0,1,1396,-4)" xmlns:kvg="http://kanjivg.tagaini.net"></path><path class="stroke_order_diagram--existing_path" d="M11.57,85.77c0.6,1.16,2.46,1.11,3.06,0.82c0.6-0.29,18.04-9.15,21.76-11.47" id="Ske2xtug44w" kvg:type="㇀" transform="matrix(1,0,0,1,1396,-4)" xmlns:kvg="http://kanjivg.tagaini.net"></path><path class="stroke_order_diagram--existing_path" d="M32,66.75c3.2,3.03,8.26,12.44,9.06,17.14" id="Ske2xtug44x" kvg:type="㇔" transform="matrix(1,0,0,1,1396,-4)" xmlns:kvg="http://kanjivg.tagaini.net"></path><path class="stroke_order_diagram--existing_path" d="M42.15,24.03c1.4,0.41,3.03,0.5,4.43,0.41c12.86-0.76,29.56-3.69,44.38-3.75c2.33-0.01,3.73,0.2,4.9,0.4" id="Ske2xtug44y" kvg:type="㇐" transform="matrix(1,0,0,1,1396,-4)" xmlns:kvg="http://kanjivg.tagaini.net"></path><path class="stroke_order_diagram--existing_path" d="M53.67,13.31c1.38,1.13,1.87,1.46,1.97,2.16C56.5,21.75,56.75,28,57.09,31.5" id="Ske2xtug44z" kvg:type="㇑a" transform="matrix(1,0,0,1,1396,-4)" xmlns:kvg="http://kanjivg.tagaini.net"></path><path class="stroke_order_diagram--existing_path" d="M78.45,11.75c0.33,0.93,0.97,2.56,0.89,3.75c-0.34,5-1.59,8.25-2.5,13.82" id="Ske2xtug450" kvg:type="㇑a" transform="matrix(1,0,0,1,1396,-4)" xmlns:kvg="http://kanjivg.tagaini.net"></path><path class="stroke_order_diagram--existing_path" d="M44.91,40.06c1.44,0.36,3.16,0.72,5.01,0.57c13.93-1.13,28.84-3,39.99-3.85c1.92-0.15,3.46-0.07,5.19,0.39" id="Ske2xtug451" kvg:type="㇐" transform="matrix(1,0,0,1,1396,-4)" xmlns:kvg="http://kanjivg.tagaini.net"></path><path class="stroke_order_diagram--existing_path" d="M66.24,27.25c0.23,1.18,0.31,1.92-0.11,2.84C59.25,45.25,52.5,53.75,42.69,62.33" id="Ske2xtug452" kvg:type="㇒" transform="matrix(1,0,0,1,1396,-4)" xmlns:kvg="http://kanjivg.tagaini.net"></path><path class="stroke_order_diagram--existing_path" d="M73.78,38.46c4.76,4.43,15.86,15.71,20.61,18.68c1.62,1.01,2.18,1.16,2.91,1.25" id="Ske2xtug453" kvg:type="㇏" transform="matrix(1,0,0,1,1396,-4)" xmlns:kvg="http://kanjivg.tagaini.net"></path><path class="stroke_order_diagram--existing_path" d="M56.08,56.93c0.77,0.23,2.19,0.29,2.96,0.23c5.71-0.41,13.46-1.16,19.69-1.68c1.28-0.11,2.06,0.11,2.7,0.23" id="Ske2xtug454" kvg:type="㇐" transform="matrix(1,0,0,1,1396,-4)" xmlns:kvg="http://kanjivg.tagaini.net"></path><path class="stroke_order_diagram--existing_path" d="M68.82,48.13c0.25,0.24,0.78,1.78,0.83,2.25c0.05,0.47-0.03,13.64-0.08,16.61" id="Ske2xtug455" kvg:type="㇑" transform="matrix(1,0,0,1,1396,-4)" xmlns:kvg="http://kanjivg.tagaini.net"></path><path class="stroke_order_diagram--current_path" d="M45.63,74.6c1.25,0.42,3.54,0.49,4.79,0.42c13.01-0.71,26.05-2.85,42.58-3.21c2.08-0.05,3.34,0.2,4.38,0.42" id="kvg:0880e-s15" kvg:type="㇐" transform="matrix(1,0,0,1,1396,-4)" xmlns:kvg="http://kanjivg.tagaini.net"></path><path class="stroke_order_diagram--current_path" d="M45.63,74.6c1.25,0.42,3.54,0.49,4.79,0.42c13.01-0.71,26.05-2.85,42.58-3.21c2.08-0.05,3.34,0.2,4.38,0.42" id="Ske2xtug457" kvg:type="㇐" transform="matrix(1,0,0,1,1396,-4)" xmlns:kvg="http://kanjivg.tagaini.net"></path><circle class="stroke_order_diagram--path_start" cx="45.63" cy="74.6" r="4" transform="matrix(1,0,0,1,1396,-4)"></circle><line class="stroke_order_diagram--guide_line" x1="1550" x2="1550" y1="1" y2="99"></line><line class="stroke_order_diagram--bounding_box" x1="1599" x2="1599" y1="1" y2="99"></line><path class="stroke_order_diagram--existing_path" d="M11.26,36.9c0.46,0.51,1.02,1.4,1.12,2.06c0.87,5.79,1.12,14.29,2.62,23.43" id="Ske2xtug45a" kvg:type="㇑" transform="matrix(1,0,0,1,1496,-4)" xmlns:kvg="http://kanjivg.tagaini.net"></path><path class="stroke_order_diagram--existing_path" d="M13.22,38.98c6.93-0.97,17.11-2.83,22.13-3.2c1.96-0.14,2.86,1.38,2.62,2.83c-0.83,4.98-1.98,11.84-3.33,20.12" id="Ske2xtug45b" kvg:type="㇕b" transform="matrix(1,0,0,1,1496,-4)" xmlns:kvg="http://kanjivg.tagaini.net"></path><path class="stroke_order_diagram--existing_path" d="M15.26,60.43c6.24-0.43,12.99-1.18,21.76-1.89" id="Ske2xtug45c" kvg:type="㇐b" transform="matrix(1,0,0,1,1496,-4)" xmlns:kvg="http://kanjivg.tagaini.net"></path><path class="stroke_order_diagram--existing_path" d="M22.42,17.75c1.08,1,2.26,2.75,2.26,4.47c0,4.78-0.2,45.28-0.2,58.66" id="Ske2xtug45d" kvg:type="㇑a" transform="matrix(1,0,0,1,1496,-4)" xmlns:kvg="http://kanjivg.tagaini.net"></path><path class="stroke_order_diagram--existing_path" d="M11.57,85.77c0.6,1.16,2.46,1.11,3.06,0.82c0.6-0.29,18.04-9.15,21.76-11.47" id="Ske2xtug45e" kvg:type="㇀" transform="matrix(1,0,0,1,1496,-4)" xmlns:kvg="http://kanjivg.tagaini.net"></path><path class="stroke_order_diagram--existing_path" d="M32,66.75c3.2,3.03,8.26,12.44,9.06,17.14" id="Ske2xtug45f" kvg:type="㇔" transform="matrix(1,0,0,1,1496,-4)" xmlns:kvg="http://kanjivg.tagaini.net"></path><path class="stroke_order_diagram--existing_path" d="M42.15,24.03c1.4,0.41,3.03,0.5,4.43,0.41c12.86-0.76,29.56-3.69,44.38-3.75c2.33-0.01,3.73,0.2,4.9,0.4" id="Ske2xtug45g" kvg:type="㇐" transform="matrix(1,0,0,1,1496,-4)" xmlns:kvg="http://kanjivg.tagaini.net"></path><path class="stroke_order_diagram--existing_path" d="M53.67,13.31c1.38,1.13,1.87,1.46,1.97,2.16C56.5,21.75,56.75,28,57.09,31.5" id="Ske2xtug45h" kvg:type="㇑a" transform="matrix(1,0,0,1,1496,-4)" xmlns:kvg="http://kanjivg.tagaini.net"></path><path class="stroke_order_diagram--existing_path" d="M78.45,11.75c0.33,0.93,0.97,2.56,0.89,3.75c-0.34,5-1.59,8.25-2.5,13.82" id="Ske2xtug45i" kvg:type="㇑a" transform="matrix(1,0,0,1,1496,-4)" xmlns:kvg="http://kanjivg.tagaini.net"></path><path class="stroke_order_diagram--existing_path" d="M44.91,40.06c1.44,0.36,3.16,0.72,5.01,0.57c13.93-1.13,28.84-3,39.99-3.85c1.92-0.15,3.46-0.07,5.19,0.39" id="Ske2xtug45j" kvg:type="㇐" transform="matrix(1,0,0,1,1496,-4)" xmlns:kvg="http://kanjivg.tagaini.net"></path><path class="stroke_order_diagram--existing_path" d="M66.24,27.25c0.23,1.18,0.31,1.92-0.11,2.84C59.25,45.25,52.5,53.75,42.69,62.33" id="Ske2xtug45k" kvg:type="㇒" transform="matrix(1,0,0,1,1496,-4)" xmlns:kvg="http://kanjivg.tagaini.net"></path><path class="stroke_order_diagram--existing_path" d="M73.78,38.46c4.76,4.43,15.86,15.71,20.61,18.68c1.62,1.01,2.18,1.16,2.91,1.25" id="Ske2xtug45l" kvg:type="㇏" transform="matrix(1,0,0,1,1496,-4)" xmlns:kvg="http://kanjivg.tagaini.net"></path><path class="stroke_order_diagram--existing_path" d="M56.08,56.93c0.77,0.23,2.19,0.29,2.96,0.23c5.71-0.41,13.46-1.16,19.69-1.68c1.28-0.11,2.06,0.11,2.7,0.23" id="Ske2xtug45m" kvg:type="㇐" transform="matrix(1,0,0,1,1496,-4)" xmlns:kvg="http://kanjivg.tagaini.net"></path><path class="stroke_order_diagram--existing_path" d="M68.82,48.13c0.25,0.24,0.78,1.78,0.83,2.25c0.05,0.47-0.03,13.64-0.08,16.61" id="Ske2xtug45n" kvg:type="㇑" transform="matrix(1,0,0,1,1496,-4)" xmlns:kvg="http://kanjivg.tagaini.net"></path><path class="stroke_order_diagram--existing_path" d="M45.63,74.6c1.25,0.42,3.54,0.49,4.79,0.42c13.01-0.71,26.05-2.85,42.58-3.21c2.08-0.05,3.34,0.2,4.38,0.42" id="Ske2xtug45o" kvg:type="㇐" transform="matrix(1,0,0,1,1496,-4)" xmlns:kvg="http://kanjivg.tagaini.net"></path><path class="stroke_order_diagram--current_path" d="M58.8,65.1c0.36,0.67,0.7,1.37,0.73,2.34c0.29,8.91-0.78,21.55-12.71,29.96" id="kvg:0880e-s16" kvg:type="㇒" transform="matrix(1,0,0,1,1496,-4)" xmlns:kvg="http://kanjivg.tagaini.net"></path><path class="stroke_order_diagram--current_path" d="M58.8,65.1c0.36,0.67,0.7,1.37,0.73,2.34c0.29,8.91-0.78,21.55-12.71,29.96" id="Ske2xtug45q" kvg:type="㇒" transform="matrix(1,0,0,1,1496,-4)" xmlns:kvg="http://kanjivg.tagaini.net"></path><circle class="stroke_order_diagram--path_start" cx="58.8" cy="65.1" r="4" transform="matrix(1,0,0,1,1496,-4)"></circle><line class="stroke_order_diagram--guide_line" x1="1650" x2="1650" y1="1" y2="99"></line><line class="stroke_order_diagram--bounding_box" x1="1699" x2="1699" y1="1" y2="99"></line><path class="stroke_order_diagram--existing_path" d="M11.26,36.9c0.46,0.51,1.02,1.4,1.12,2.06c0.87,5.79,1.12,14.29,2.62,23.43" id="Ske2xtug45t" kvg:type="㇑" transform="matrix(1,0,0,1,1596,-4)" xmlns:kvg="http://kanjivg.tagaini.net"></path><path class="stroke_order_diagram--existing_path" d="M13.22,38.98c6.93-0.97,17.11-2.83,22.13-3.2c1.96-0.14,2.86,1.38,2.62,2.83c-0.83,4.98-1.98,11.84-3.33,20.12" id="Ske2xtug45u" kvg:type="㇕b" transform="matrix(1,0,0,1,1596,-4)" xmlns:kvg="http://kanjivg.tagaini.net"></path><path class="stroke_order_diagram--existing_path" d="M15.26,60.43c6.24-0.43,12.99-1.18,21.76-1.89" id="Ske2xtug45v" kvg:type="㇐b" transform="matrix(1,0,0,1,1596,-4)" xmlns:kvg="http://kanjivg.tagaini.net"></path><path class="stroke_order_diagram--existing_path" d="M22.42,17.75c1.08,1,2.26,2.75,2.26,4.47c0,4.78-0.2,45.28-0.2,58.66" id="Ske2xtug45w" kvg:type="㇑a" transform="matrix(1,0,0,1,1596,-4)" xmlns:kvg="http://kanjivg.tagaini.net"></path><path class="stroke_order_diagram--existing_path" d="M11.57,85.77c0.6,1.16,2.46,1.11,3.06,0.82c0.6-0.29,18.04-9.15,21.76-11.47" id="Ske2xtug45x" kvg:type="㇀" transform="matrix(1,0,0,1,1596,-4)" xmlns:kvg="http://kanjivg.tagaini.net"></path><path class="stroke_order_diagram--existing_path" d="M32,66.75c3.2,3.03,8.26,12.44,9.06,17.14" id="Ske2xtug45y" kvg:type="㇔" transform="matrix(1,0,0,1,1596,-4)" xmlns:kvg="http://kanjivg.tagaini.net"></path><path class="stroke_order_diagram--existing_path" d="M42.15,24.03c1.4,0.41,3.03,0.5,4.43,0.41c12.86-0.76,29.56-3.69,44.38-3.75c2.33-0.01,3.73,0.2,4.9,0.4" id="Ske2xtug45z" kvg:type="㇐" transform="matrix(1,0,0,1,1596,-4)" xmlns:kvg="http://kanjivg.tagaini.net"></path><path class="stroke_order_diagram--existing_path" d="M53.67,13.31c1.38,1.13,1.87,1.46,1.97,2.16C56.5,21.75,56.75,28,57.09,31.5" id="Ske2xtug460" kvg:type="㇑a" transform="matrix(1,0,0,1,1596,-4)" xmlns:kvg="http://kanjivg.tagaini.net"></path><path class="stroke_order_diagram--existing_path" d="M78.45,11.75c0.33,0.93,0.97,2.56,0.89,3.75c-0.34,5-1.59,8.25-2.5,13.82" id="Ske2xtug461" kvg:type="㇑a" transform="matrix(1,0,0,1,1596,-4)" xmlns:kvg="http://kanjivg.tagaini.net"></path><path class="stroke_order_diagram--existing_path" d="M44.91,40.06c1.44,0.36,3.16,0.72,5.01,0.57c13.93-1.13,28.84-3,39.99-3.85c1.92-0.15,3.46-0.07,5.19,0.39" id="Ske2xtug462" kvg:type="㇐" transform="matrix(1,0,0,1,1596,-4)" xmlns:kvg="http://kanjivg.tagaini.net"></path><path class="stroke_order_diagram--existing_path" d="M66.24,27.25c0.23,1.18,0.31,1.92-0.11,2.84C59.25,45.25,52.5,53.75,42.69,62.33" id="Ske2xtug463" kvg:type="㇒" transform="matrix(1,0,0,1,1596,-4)" xmlns:kvg="http://kanjivg.tagaini.net"></path><path class="stroke_order_diagram--existing_path" d="M73.78,38.46c4.76,4.43,15.86,15.71,20.61,18.68c1.62,1.01,2.18,1.16,2.91,1.25" id="Ske2xtug464" kvg:type="㇏" transform="matrix(1,0,0,1,1596,-4)" xmlns:kvg="http://kanjivg.tagaini.net"></path><path class="stroke_order_diagram--existing_path" d="M56.08,56.93c0.77,0.23,2.19,0.29,2.96,0.23c5.71-0.41,13.46-1.16,19.69-1.68c1.28-0.11,2.06,0.11,2.7,0.23" id="Ske2xtug465" kvg:type="㇐" transform="matrix(1,0,0,1,1596,-4)" xmlns:kvg="http://kanjivg.tagaini.net"></path><path class="stroke_order_diagram--existing_path" d="M68.82,48.13c0.25,0.24,0.78,1.78,0.83,2.25c0.05,0.47-0.03,13.64-0.08,16.61" id="Ske2xtug466" kvg:type="㇑" transform="matrix(1,0,0,1,1596,-4)" xmlns:kvg="http://kanjivg.tagaini.net"></path><path class="stroke_order_diagram--existing_path" d="M45.63,74.6c1.25,0.42,3.54,0.49,4.79,0.42c13.01-0.71,26.05-2.85,42.58-3.21c2.08-0.05,3.34,0.2,4.38,0.42" id="Ske2xtug467" kvg:type="㇐" transform="matrix(1,0,0,1,1596,-4)" xmlns:kvg="http://kanjivg.tagaini.net"></path><path class="stroke_order_diagram--existing_path" d="M58.8,65.1c0.36,0.67,0.7,1.37,0.73,2.34c0.29,8.91-0.78,21.55-12.71,29.96" id="Ske2xtug468" kvg:type="㇒" transform="matrix(1,0,0,1,1596,-4)" xmlns:kvg="http://kanjivg.tagaini.net"></path><path class="stroke_order_diagram--current_path" d="M80.44,62.05c0.46,0.56,1.29,1.37,1.29,2.55c0,5.29,0,29.5-0.14,34.4" id="kvg:0880e-s17" kvg:type="㇑" transform="matrix(1,0,0,1,1596,-4)" xmlns:kvg="http://kanjivg.tagaini.net"></path><path class="stroke_order_diagram--current_path" d="M80.44,62.05c0.46,0.56,1.29,1.37,1.29,2.55c0,5.29,0,29.5-0.14,34.4" id="Ske2xtug46a" kvg:type="㇑" transform="matrix(1,0,0,1,1596,-4)" xmlns:kvg="http://kanjivg.tagaini.net"></path><circle class="stroke_order_diagram--path_start" cx="80.44" cy="62.05" r="4" transform="matrix(1,0,0,1,1596,-4)"></circle></svg>