<svg class="stroke_order_diagram--svg_container_for_51866280d5dda796580003cc" style="height: 100px; width: 1300px;" viewbox="0 0 1300 100"><desc>Created with Snap</desc><defs></defs><line class="stroke_order_diagram--bounding_box" x1="1" x2="1299" y1="1" y2="1"></line><line class="stroke_order_diagram--bounding_box" x1="1" x2="1" y1="1" y2="99"></line><line class="stroke_order_diagram--bounding_box" x1="1" x2="1299" y1="99" y2="99"></line><line class="stroke_order_diagram--guide_line" x1="0" x2="1300" y1="50" y2="50"></line><line class="stroke_order_diagram--guide_line" x1="50" x2="50" y1="1" y2="99"></line><line class="stroke_order_diagram--bounding_box" x1="99" x2="99" y1="1" y2="99"></line><path class="stroke_order_diagram--current_path" d="M23.13,10.5c3.48,1.31,9,5.39,9.87,7.43" id="kvg:088df-s1" kvg:type="㇔" transform="matrix(1,0,0,1,-4,-4)" xmlns:kvg="http://kanjivg.tagaini.net"></path><path class="stroke_order_diagram--current_path" d="M23.13,10.5c3.48,1.31,9,5.39,9.87,7.43" id="Ske1v19k4m" kvg:type="㇔" transform="matrix(1,0,0,1,-4,-4)" xmlns:kvg="http://kanjivg.tagaini.net"></path><circle class="stroke_order_diagram--path_start" cx="23.13" cy="10.5" r="4" transform="matrix(1,0,0,1,-4,-4)"></circle><line class="stroke_order_diagram--guide_line" x1="150" x2="150" y1="1" y2="99"></line><line class="stroke_order_diagram--bounding_box" x1="199" x2="199" y1="1" y2="99"></line><path class="stroke_order_diagram--existing_path" d="M23.13,10.5c3.48,1.31,9,5.39,9.87,7.43" id="Ske1v19k4p" kvg:type="㇔" transform="matrix(1,0,0,1,96,-4)" xmlns:kvg="http://kanjivg.tagaini.net"></path><path class="stroke_order_diagram--current_path" d="M16.88,23c3.75,1.44,9.69,5.91,10.62,8.15" id="kvg:088df-s2" kvg:type="㇔" transform="matrix(1,0,0,1,96,-4)" xmlns:kvg="http://kanjivg.tagaini.net"></path><path class="stroke_order_diagram--current_path" d="M16.88,23c3.75,1.44,9.69,5.91,10.62,8.15" id="Ske1v19k4r" kvg:type="㇔" transform="matrix(1,0,0,1,96,-4)" xmlns:kvg="http://kanjivg.tagaini.net"></path><circle class="stroke_order_diagram--path_start" cx="16.88" cy="23" r="4" transform="matrix(1,0,0,1,96,-4)"></circle><line class="stroke_order_diagram--guide_line" x1="250" x2="250" y1="1" y2="99"></line><line class="stroke_order_diagram--bounding_box" x1="299" x2="299" y1="1" y2="99"></line><path class="stroke_order_diagram--existing_path" d="M23.13,10.5c3.48,1.31,9,5.39,9.87,7.43" id="Ske1v19k4u" kvg:type="㇔" transform="matrix(1,0,0,1,196,-4)" xmlns:kvg="http://kanjivg.tagaini.net"></path><path class="stroke_order_diagram--existing_path" d="M16.88,23c3.75,1.44,9.69,5.91,10.62,8.15" id="Ske1v19k4v" kvg:type="㇔" transform="matrix(1,0,0,1,196,-4)" xmlns:kvg="http://kanjivg.tagaini.net"></path><path class="stroke_order_diagram--current_path" d="M19.75,48.53c1.75,0.72,3.37,0.27,4.54-1.24c3.42-4.37,6.85-9.71,9.96-15.29" id="kvg:088df-s3" kvg:type="㇀" transform="matrix(1,0,0,1,196,-4)" xmlns:kvg="http://kanjivg.tagaini.net"></path><path class="stroke_order_diagram--current_path" d="M19.75,48.53c1.75,0.72,3.37,0.27,4.54-1.24c3.42-4.37,6.85-9.71,9.96-15.29" id="Ske1v19k4x" kvg:type="㇀" transform="matrix(1,0,0,1,196,-4)" xmlns:kvg="http://kanjivg.tagaini.net"></path><circle class="stroke_order_diagram--path_start" cx="19.75" cy="48.53" r="4" transform="matrix(1,0,0,1,196,-4)"></circle><line class="stroke_order_diagram--guide_line" x1="350" x2="350" y1="1" y2="99"></line><line class="stroke_order_diagram--bounding_box" x1="399" x2="399" y1="1" y2="99"></line><path class="stroke_order_diagram--existing_path" d="M23.13,10.5c3.48,1.31,9,5.39,9.87,7.43" id="Ske1v19k410" kvg:type="㇔" transform="matrix(1,0,0,1,296,-4)" xmlns:kvg="http://kanjivg.tagaini.net"></path><path class="stroke_order_diagram--existing_path" d="M16.88,23c3.75,1.44,9.69,5.91,10.62,8.15" id="Ske1v19k411" kvg:type="㇔" transform="matrix(1,0,0,1,296,-4)" xmlns:kvg="http://kanjivg.tagaini.net"></path><path class="stroke_order_diagram--existing_path" d="M19.75,48.53c1.75,0.72,3.37,0.27,4.54-1.24c3.42-4.37,6.85-9.71,9.96-15.29" id="Ske1v19k412" kvg:type="㇀" transform="matrix(1,0,0,1,296,-4)" xmlns:kvg="http://kanjivg.tagaini.net"></path><path class="stroke_order_diagram--current_path" d="M64.95,9.5c0.06,0.24,0.86,1.28,0.93,2.83c0.3,7.47-0.19,18.88-0.19,21.43c0,7.22-4.96,1.51-6.06,0.87" id="kvg:088df-s4" kvg:type="㇚" transform="matrix(1,0,0,1,296,-4)" xmlns:kvg="http://kanjivg.tagaini.net"></path><path class="stroke_order_diagram--current_path" d="M64.95,9.5c0.06,0.24,0.86,1.28,0.93,2.83c0.3,7.47-0.19,18.88-0.19,21.43c0,7.22-4.96,1.51-6.06,0.87" id="Ske1v19k414" kvg:type="㇚" transform="matrix(1,0,0,1,296,-4)" xmlns:kvg="http://kanjivg.tagaini.net"></path><circle class="stroke_order_diagram--path_start" cx="64.95" cy="9.5" r="4" transform="matrix(1,0,0,1,296,-4)"></circle><line class="stroke_order_diagram--guide_line" x1="450" x2="450" y1="1" y2="99"></line><line class="stroke_order_diagram--bounding_box" x1="499" x2="499" y1="1" y2="99"></line><path class="stroke_order_diagram--existing_path" d="M23.13,10.5c3.48,1.31,9,5.39,9.87,7.43" id="Ske1v19k417" kvg:type="㇔" transform="matrix(1,0,0,1,396,-4)" xmlns:kvg="http://kanjivg.tagaini.net"></path><path class="stroke_order_diagram--existing_path" d="M16.88,23c3.75,1.44,9.69,5.91,10.62,8.15" id="Ske1v19k418" kvg:type="㇔" transform="matrix(1,0,0,1,396,-4)" xmlns:kvg="http://kanjivg.tagaini.net"></path><path class="stroke_order_diagram--existing_path" d="M19.75,48.53c1.75,0.72,3.37,0.27,4.54-1.24c3.42-4.37,6.85-9.71,9.96-15.29" id="Ske1v19k419" kvg:type="㇀" transform="matrix(1,0,0,1,396,-4)" xmlns:kvg="http://kanjivg.tagaini.net"></path><path class="stroke_order_diagram--existing_path" d="M64.95,9.5c0.06,0.24,0.86,1.28,0.93,2.83c0.3,7.47-0.19,18.88-0.19,21.43c0,7.22-4.96,1.51-6.06,0.87" id="Ske1v19k41a" kvg:type="㇚" transform="matrix(1,0,0,1,396,-4)" xmlns:kvg="http://kanjivg.tagaini.net"></path><path class="stroke_order_diagram--current_path" d="M53.92,17.37c0.1,1.1-0.07,1.79-0.59,2.79c-2.23,4.34-8.36,11.35-13.42,14.86" id="kvg:088df-s5" kvg:type="㇒" transform="matrix(1,0,0,1,396,-4)" xmlns:kvg="http://kanjivg.tagaini.net"></path><path class="stroke_order_diagram--current_path" d="M53.92,17.37c0.1,1.1-0.07,1.79-0.59,2.79c-2.23,4.34-8.36,11.35-13.42,14.86" id="Ske1v19k41c" kvg:type="㇒" transform="matrix(1,0,0,1,396,-4)" xmlns:kvg="http://kanjivg.tagaini.net"></path><circle class="stroke_order_diagram--path_start" cx="53.92" cy="17.37" r="4" transform="matrix(1,0,0,1,396,-4)"></circle><line class="stroke_order_diagram--guide_line" x1="550" x2="550" y1="1" y2="99"></line><line class="stroke_order_diagram--bounding_box" x1="599" x2="599" y1="1" y2="99"></line><path class="stroke_order_diagram--existing_path" d="M23.13,10.5c3.48,1.31,9,5.39,9.87,7.43" id="Ske1v19k41f" kvg:type="㇔" transform="matrix(1,0,0,1,496,-4)" xmlns:kvg="http://kanjivg.tagaini.net"></path><path class="stroke_order_diagram--existing_path" d="M16.88,23c3.75,1.44,9.69,5.91,10.62,8.15" id="Ske1v19k41g" kvg:type="㇔" transform="matrix(1,0,0,1,496,-4)" xmlns:kvg="http://kanjivg.tagaini.net"></path><path class="stroke_order_diagram--existing_path" d="M19.75,48.53c1.75,0.72,3.37,0.27,4.54-1.24c3.42-4.37,6.85-9.71,9.96-15.29" id="Ske1v19k41h" kvg:type="㇀" transform="matrix(1,0,0,1,496,-4)" xmlns:kvg="http://kanjivg.tagaini.net"></path><path class="stroke_order_diagram--existing_path" d="M64.95,9.5c0.06,0.24,0.86,1.28,0.93,2.83c0.3,7.47-0.19,18.88-0.19,21.43c0,7.22-4.96,1.51-6.06,0.87" id="Ske1v19k41i" kvg:type="㇚" transform="matrix(1,0,0,1,496,-4)" xmlns:kvg="http://kanjivg.tagaini.net"></path><path class="stroke_order_diagram--existing_path" d="M53.92,17.37c0.1,1.1-0.07,1.79-0.59,2.79c-2.23,4.34-8.36,11.35-13.42,14.86" id="Ske1v19k41j" kvg:type="㇒" transform="matrix(1,0,0,1,496,-4)" xmlns:kvg="http://kanjivg.tagaini.net"></path><path class="stroke_order_diagram--current_path" d="M77.75,16.63c6.37,3.25,14.91,11.62,16.5,16.68" id="kvg:088df-s6" kvg:type="㇔" transform="matrix(1,0,0,1,496,-4)" xmlns:kvg="http://kanjivg.tagaini.net"></path><path class="stroke_order_diagram--current_path" d="M77.75,16.63c6.37,3.25,14.91,11.62,16.5,16.68" id="Ske1v19k41l" kvg:type="㇔" transform="matrix(1,0,0,1,496,-4)" xmlns:kvg="http://kanjivg.tagaini.net"></path><circle class="stroke_order_diagram--path_start" cx="77.75" cy="16.63" r="4" transform="matrix(1,0,0,1,496,-4)"></circle><line class="stroke_order_diagram--guide_line" x1="650" x2="650" y1="1" y2="99"></line><line class="stroke_order_diagram--bounding_box" x1="699" x2="699" y1="1" y2="99"></line><path class="stroke_order_diagram--existing_path" d="M23.13,10.5c3.48,1.31,9,5.39,9.87,7.43" id="Ske1v19k41o" kvg:type="㇔" transform="matrix(1,0,0,1,596,-4)" xmlns:kvg="http://kanjivg.tagaini.net"></path><path class="stroke_order_diagram--existing_path" d="M16.88,23c3.75,1.44,9.69,5.91,10.62,8.15" id="Ske1v19k41p" kvg:type="㇔" transform="matrix(1,0,0,1,596,-4)" xmlns:kvg="http://kanjivg.tagaini.net"></path><path class="stroke_order_diagram--existing_path" d="M19.75,48.53c1.75,0.72,3.37,0.27,4.54-1.24c3.42-4.37,6.85-9.71,9.96-15.29" id="Ske1v19k41q" kvg:type="㇀" transform="matrix(1,0,0,1,596,-4)" xmlns:kvg="http://kanjivg.tagaini.net"></path><path class="stroke_order_diagram--existing_path" d="M64.95,9.5c0.06,0.24,0.86,1.28,0.93,2.83c0.3,7.47-0.19,18.88-0.19,21.43c0,7.22-4.96,1.51-6.06,0.87" id="Ske1v19k41r" kvg:type="㇚" transform="matrix(1,0,0,1,596,-4)" xmlns:kvg="http://kanjivg.tagaini.net"></path><path class="stroke_order_diagram--existing_path" d="M53.92,17.37c0.1,1.1-0.07,1.79-0.59,2.79c-2.23,4.34-8.36,11.35-13.42,14.86" id="Ske1v19k41s" kvg:type="㇒" transform="matrix(1,0,0,1,596,-4)" xmlns:kvg="http://kanjivg.tagaini.net"></path><path class="stroke_order_diagram--existing_path" d="M77.75,16.63c6.37,3.25,14.91,11.62,16.5,16.68" id="Ske1v19k41t" kvg:type="㇔" transform="matrix(1,0,0,1,596,-4)" xmlns:kvg="http://kanjivg.tagaini.net"></path><path class="stroke_order_diagram--current_path" d="M80.88,26.31c0.12,0.6-0.06,1.64-0.74,2.43C73.5,36.5,56.63,47.75,37.5,52.5" id="kvg:088df-s7" kvg:type="㇒" transform="matrix(1,0,0,1,596,-4)" xmlns:kvg="http://kanjivg.tagaini.net"></path><path class="stroke_order_diagram--current_path" d="M80.88,26.31c0.12,0.6-0.06,1.64-0.74,2.43C73.5,36.5,56.63,47.75,37.5,52.5" id="Ske1v19k41v" kvg:type="㇒" transform="matrix(1,0,0,1,596,-4)" xmlns:kvg="http://kanjivg.tagaini.net"></path><circle class="stroke_order_diagram--path_start" cx="80.88" cy="26.31" r="4" transform="matrix(1,0,0,1,596,-4)"></circle><line class="stroke_order_diagram--guide_line" x1="750" x2="750" y1="1" y2="99"></line><line class="stroke_order_diagram--bounding_box" x1="799" x2="799" y1="1" y2="99"></line><path class="stroke_order_diagram--existing_path" d="M23.13,10.5c3.48,1.31,9,5.39,9.87,7.43" id="Ske1v19k41y" kvg:type="㇔" transform="matrix(1,0,0,1,696,-4)" xmlns:kvg="http://kanjivg.tagaini.net"></path><path class="stroke_order_diagram--existing_path" d="M16.88,23c3.75,1.44,9.69,5.91,10.62,8.15" id="Ske1v19k41z" kvg:type="㇔" transform="matrix(1,0,0,1,696,-4)" xmlns:kvg="http://kanjivg.tagaini.net"></path><path class="stroke_order_diagram--existing_path" d="M19.75,48.53c1.75,0.72,3.37,0.27,4.54-1.24c3.42-4.37,6.85-9.71,9.96-15.29" id="Ske1v19k420" kvg:type="㇀" transform="matrix(1,0,0,1,696,-4)" xmlns:kvg="http://kanjivg.tagaini.net"></path><path class="stroke_order_diagram--existing_path" d="M64.95,9.5c0.06,0.24,0.86,1.28,0.93,2.83c0.3,7.47-0.19,18.88-0.19,21.43c0,7.22-4.96,1.51-6.06,0.87" id="Ske1v19k421" kvg:type="㇚" transform="matrix(1,0,0,1,696,-4)" xmlns:kvg="http://kanjivg.tagaini.net"></path><path class="stroke_order_diagram--existing_path" d="M53.92,17.37c0.1,1.1-0.07,1.79-0.59,2.79c-2.23,4.34-8.36,11.35-13.42,14.86" id="Ske1v19k422" kvg:type="㇒" transform="matrix(1,0,0,1,696,-4)" xmlns:kvg="http://kanjivg.tagaini.net"></path><path class="stroke_order_diagram--existing_path" d="M77.75,16.63c6.37,3.25,14.91,11.62,16.5,16.68" id="Ske1v19k423" kvg:type="㇔" transform="matrix(1,0,0,1,696,-4)" xmlns:kvg="http://kanjivg.tagaini.net"></path><path class="stroke_order_diagram--existing_path" d="M80.88,26.31c0.12,0.6-0.06,1.64-0.74,2.43C73.5,36.5,56.63,47.75,37.5,52.5" id="Ske1v19k424" kvg:type="㇒" transform="matrix(1,0,0,1,696,-4)" xmlns:kvg="http://kanjivg.tagaini.net"></path><path class="stroke_order_diagram--current_path" d="M54.94,49.25c0.97,0.97,1.19,2,1.19,3.38c0,1.47-0.01,4.25-0.01,5.87" id="kvg:088df-s8" kvg:type="㇑a" transform="matrix(1,0,0,1,696,-4)" xmlns:kvg="http://kanjivg.tagaini.net"></path><path class="stroke_order_diagram--current_path" d="M54.94,49.25c0.97,0.97,1.19,2,1.19,3.38c0,1.47-0.01,4.25-0.01,5.87" id="Ske1v19k426" kvg:type="㇑a" transform="matrix(1,0,0,1,696,-4)" xmlns:kvg="http://kanjivg.tagaini.net"></path><circle class="stroke_order_diagram--path_start" cx="54.94" cy="49.25" r="4" transform="matrix(1,0,0,1,696,-4)"></circle><line class="stroke_order_diagram--guide_line" x1="850" x2="850" y1="1" y2="99"></line><line class="stroke_order_diagram--bounding_box" x1="899" x2="899" y1="1" y2="99"></line><path class="stroke_order_diagram--existing_path" d="M23.13,10.5c3.48,1.31,9,5.39,9.87,7.43" id="Ske1v19k429" kvg:type="㇔" transform="matrix(1,0,0,1,796,-4)" xmlns:kvg="http://kanjivg.tagaini.net"></path><path class="stroke_order_diagram--existing_path" d="M16.88,23c3.75,1.44,9.69,5.91,10.62,8.15" id="Ske1v19k42a" kvg:type="㇔" transform="matrix(1,0,0,1,796,-4)" xmlns:kvg="http://kanjivg.tagaini.net"></path><path class="stroke_order_diagram--existing_path" d="M19.75,48.53c1.75,0.72,3.37,0.27,4.54-1.24c3.42-4.37,6.85-9.71,9.96-15.29" id="Ske1v19k42b" kvg:type="㇀" transform="matrix(1,0,0,1,796,-4)" xmlns:kvg="http://kanjivg.tagaini.net"></path><path class="stroke_order_diagram--existing_path" d="M64.95,9.5c0.06,0.24,0.86,1.28,0.93,2.83c0.3,7.47-0.19,18.88-0.19,21.43c0,7.22-4.96,1.51-6.06,0.87" id="Ske1v19k42c" kvg:type="㇚" transform="matrix(1,0,0,1,796,-4)" xmlns:kvg="http://kanjivg.tagaini.net"></path><path class="stroke_order_diagram--existing_path" d="M53.92,17.37c0.1,1.1-0.07,1.79-0.59,2.79c-2.23,4.34-8.36,11.35-13.42,14.86" id="Ske1v19k42d" kvg:type="㇒" transform="matrix(1,0,0,1,796,-4)" xmlns:kvg="http://kanjivg.tagaini.net"></path><path class="stroke_order_diagram--existing_path" d="M77.75,16.63c6.37,3.25,14.91,11.62,16.5,16.68" id="Ske1v19k42e" kvg:type="㇔" transform="matrix(1,0,0,1,796,-4)" xmlns:kvg="http://kanjivg.tagaini.net"></path><path class="stroke_order_diagram--existing_path" d="M80.88,26.31c0.12,0.6-0.06,1.64-0.74,2.43C73.5,36.5,56.63,47.75,37.5,52.5" id="Ske1v19k42f" kvg:type="㇒" transform="matrix(1,0,0,1,796,-4)" xmlns:kvg="http://kanjivg.tagaini.net"></path><path class="stroke_order_diagram--existing_path" d="M54.94,49.25c0.97,0.97,1.19,2,1.19,3.38c0,1.47-0.01,4.25-0.01,5.87" id="Ske1v19k42g" kvg:type="㇑a" transform="matrix(1,0,0,1,796,-4)" xmlns:kvg="http://kanjivg.tagaini.net"></path><path class="stroke_order_diagram--current_path" d="M17.56,62.36c3.09,0.21,5.84,0.5,8.95,0.23c13.47-1.18,36.83-4.38,51.36-5.3c3.49-0.22,7.75-0.6,11.13,0.62" id="kvg:088df-s9" kvg:type="㇐" transform="matrix(1,0,0,1,796,-4)" xmlns:kvg="http://kanjivg.tagaini.net"></path><path class="stroke_order_diagram--current_path" d="M17.56,62.36c3.09,0.21,5.84,0.5,8.95,0.23c13.47-1.18,36.83-4.38,51.36-5.3c3.49-0.22,7.75-0.6,11.13,0.62" id="Ske1v19k42i" kvg:type="㇐" transform="matrix(1,0,0,1,796,-4)" xmlns:kvg="http://kanjivg.tagaini.net"></path><circle class="stroke_order_diagram--path_start" cx="17.56" cy="62.36" r="4" transform="matrix(1,0,0,1,796,-4)"></circle><line class="stroke_order_diagram--guide_line" x1="950" x2="950" y1="1" y2="99"></line><line class="stroke_order_diagram--bounding_box" x1="999" x2="999" y1="1" y2="99"></line><path class="stroke_order_diagram--existing_path" d="M23.13,10.5c3.48,1.31,9,5.39,9.87,7.43" id="Ske1v19k42l" kvg:type="㇔" transform="matrix(1,0,0,1,896,-4)" xmlns:kvg="http://kanjivg.tagaini.net"></path><path class="stroke_order_diagram--existing_path" d="M16.88,23c3.75,1.44,9.69,5.91,10.62,8.15" id="Ske1v19k42m" kvg:type="㇔" transform="matrix(1,0,0,1,896,-4)" xmlns:kvg="http://kanjivg.tagaini.net"></path><path class="stroke_order_diagram--existing_path" d="M19.75,48.53c1.75,0.72,3.37,0.27,4.54-1.24c3.42-4.37,6.85-9.71,9.96-15.29" id="Ske1v19k42n" kvg:type="㇀" transform="matrix(1,0,0,1,896,-4)" xmlns:kvg="http://kanjivg.tagaini.net"></path><path class="stroke_order_diagram--existing_path" d="M64.95,9.5c0.06,0.24,0.86,1.28,0.93,2.83c0.3,7.47-0.19,18.88-0.19,21.43c0,7.22-4.96,1.51-6.06,0.87" id="Ske1v19k42o" kvg:type="㇚" transform="matrix(1,0,0,1,896,-4)" xmlns:kvg="http://kanjivg.tagaini.net"></path><path class="stroke_order_diagram--existing_path" d="M53.92,17.37c0.1,1.1-0.07,1.79-0.59,2.79c-2.23,4.34-8.36,11.35-13.42,14.86" id="Ske1v19k42p" kvg:type="㇒" transform="matrix(1,0,0,1,896,-4)" xmlns:kvg="http://kanjivg.tagaini.net"></path><path class="stroke_order_diagram--existing_path" d="M77.75,16.63c6.37,3.25,14.91,11.62,16.5,16.68" id="Ske1v19k42q" kvg:type="㇔" transform="matrix(1,0,0,1,896,-4)" xmlns:kvg="http://kanjivg.tagaini.net"></path><path class="stroke_order_diagram--existing_path" d="M80.88,26.31c0.12,0.6-0.06,1.64-0.74,2.43C73.5,36.5,56.63,47.75,37.5,52.5" id="Ske1v19k42r" kvg:type="㇒" transform="matrix(1,0,0,1,896,-4)" xmlns:kvg="http://kanjivg.tagaini.net"></path><path class="stroke_order_diagram--existing_path" d="M54.94,49.25c0.97,0.97,1.19,2,1.19,3.38c0,1.47-0.01,4.25-0.01,5.87" id="Ske1v19k42s" kvg:type="㇑a" transform="matrix(1,0,0,1,896,-4)" xmlns:kvg="http://kanjivg.tagaini.net"></path><path class="stroke_order_diagram--existing_path" d="M17.56,62.36c3.09,0.21,5.84,0.5,8.95,0.23c13.47-1.18,36.83-4.38,51.36-5.3c3.49-0.22,7.75-0.6,11.13,0.62" id="Ske1v19k42t" kvg:type="㇐" transform="matrix(1,0,0,1,896,-4)" xmlns:kvg="http://kanjivg.tagaini.net"></path><path class="stroke_order_diagram--current_path" d="M48.72,62.75c0.21,1.31-0.85,2.45-1.65,3.31c-5.28,5.62-15.65,14.12-33.45,23.23" id="kvg:088df-s10" kvg:type="㇒" transform="matrix(1,0,0,1,896,-4)" xmlns:kvg="http://kanjivg.tagaini.net"></path><path class="stroke_order_diagram--current_path" d="M48.72,62.75c0.21,1.31-0.85,2.45-1.65,3.31c-5.28,5.62-15.65,14.12-33.45,23.23" id="Ske1v19k42v" kvg:type="㇒" transform="matrix(1,0,0,1,896,-4)" xmlns:kvg="http://kanjivg.tagaini.net"></path><circle class="stroke_order_diagram--path_start" cx="48.72" cy="62.75" r="4" transform="matrix(1,0,0,1,896,-4)"></circle><line class="stroke_order_diagram--guide_line" x1="1050" x2="1050" y1="1" y2="99"></line><line class="stroke_order_diagram--bounding_box" x1="1099" x2="1099" y1="1" y2="99"></line><path class="stroke_order_diagram--existing_path" d="M23.13,10.5c3.48,1.31,9,5.39,9.87,7.43" id="Ske1v19k42y" kvg:type="㇔" transform="matrix(1,0,0,1,996,-4)" xmlns:kvg="http://kanjivg.tagaini.net"></path><path class="stroke_order_diagram--existing_path" d="M16.88,23c3.75,1.44,9.69,5.91,10.62,8.15" id="Ske1v19k42z" kvg:type="㇔" transform="matrix(1,0,0,1,996,-4)" xmlns:kvg="http://kanjivg.tagaini.net"></path><path class="stroke_order_diagram--existing_path" d="M19.75,48.53c1.75,0.72,3.37,0.27,4.54-1.24c3.42-4.37,6.85-9.71,9.96-15.29" id="Ske1v19k430" kvg:type="㇀" transform="matrix(1,0,0,1,996,-4)" xmlns:kvg="http://kanjivg.tagaini.net"></path><path class="stroke_order_diagram--existing_path" d="M64.95,9.5c0.06,0.24,0.86,1.28,0.93,2.83c0.3,7.47-0.19,18.88-0.19,21.43c0,7.22-4.96,1.51-6.06,0.87" id="Ske1v19k431" kvg:type="㇚" transform="matrix(1,0,0,1,996,-4)" xmlns:kvg="http://kanjivg.tagaini.net"></path><path class="stroke_order_diagram--existing_path" d="M53.92,17.37c0.1,1.1-0.07,1.79-0.59,2.79c-2.23,4.34-8.36,11.35-13.42,14.86" id="Ske1v19k432" kvg:type="㇒" transform="matrix(1,0,0,1,996,-4)" xmlns:kvg="http://kanjivg.tagaini.net"></path><path class="stroke_order_diagram--existing_path" d="M77.75,16.63c6.37,3.25,14.91,11.62,16.5,16.68" id="Ske1v19k433" kvg:type="㇔" transform="matrix(1,0,0,1,996,-4)" xmlns:kvg="http://kanjivg.tagaini.net"></path><path class="stroke_order_diagram--existing_path" d="M80.88,26.31c0.12,0.6-0.06,1.64-0.74,2.43C73.5,36.5,56.63,47.75,37.5,52.5" id="Ske1v19k434" kvg:type="㇒" transform="matrix(1,0,0,1,996,-4)" xmlns:kvg="http://kanjivg.tagaini.net"></path><path class="stroke_order_diagram--existing_path" d="M54.94,49.25c0.97,0.97,1.19,2,1.19,3.38c0,1.47-0.01,4.25-0.01,5.87" id="Ske1v19k435" kvg:type="㇑a" transform="matrix(1,0,0,1,996,-4)" xmlns:kvg="http://kanjivg.tagaini.net"></path><path class="stroke_order_diagram--existing_path" d="M17.56,62.36c3.09,0.21,5.84,0.5,8.95,0.23c13.47-1.18,36.83-4.38,51.36-5.3c3.49-0.22,7.75-0.6,11.13,0.62" id="Ske1v19k436" kvg:type="㇐" transform="matrix(1,0,0,1,996,-4)" xmlns:kvg="http://kanjivg.tagaini.net"></path><path class="stroke_order_diagram--existing_path" d="M48.72,62.75c0.21,1.31-0.85,2.45-1.65,3.31c-5.28,5.62-15.65,14.12-33.45,23.23" id="Ske1v19k437" kvg:type="㇒" transform="matrix(1,0,0,1,996,-4)" xmlns:kvg="http://kanjivg.tagaini.net"></path><path class="stroke_order_diagram--current_path" d="M39.69,76.08c0.71,0.71,0.93,1.9,0.93,3.05c0,10.63,0.1,15.23,0.1,17.03c0,1.8,1.1,2.82,2.5,1.47s13.35-10.66,15.22-12.01" id="kvg:088df-s11" kvg:type="㇙" transform="matrix(1,0,0,1,996,-4)" xmlns:kvg="http://kanjivg.tagaini.net"></path><path class="stroke_order_diagram--current_path" d="M39.69,76.08c0.71,0.71,0.93,1.9,0.93,3.05c0,10.63,0.1,15.23,0.1,17.03c0,1.8,1.1,2.82,2.5,1.47s13.35-10.66,15.22-12.01" id="Ske1v19k439" kvg:type="㇙" transform="matrix(1,0,0,1,996,-4)" xmlns:kvg="http://kanjivg.tagaini.net"></path><circle class="stroke_order_diagram--path_start" cx="39.69" cy="76.08" r="4" transform="matrix(1,0,0,1,996,-4)"></circle><line class="stroke_order_diagram--guide_line" x1="1150" x2="1150" y1="1" y2="99"></line><line class="stroke_order_diagram--bounding_box" x1="1199" x2="1199" y1="1" y2="99"></line><path class="stroke_order_diagram--existing_path" d="M23.13,10.5c3.48,1.31,9,5.39,9.87,7.43" id="Ske1v19k43c" kvg:type="㇔" transform="matrix(1,0,0,1,1096,-4)" xmlns:kvg="http://kanjivg.tagaini.net"></path><path class="stroke_order_diagram--existing_path" d="M16.88,23c3.75,1.44,9.69,5.91,10.62,8.15" id="Ske1v19k43d" kvg:type="㇔" transform="matrix(1,0,0,1,1096,-4)" xmlns:kvg="http://kanjivg.tagaini.net"></path><path class="stroke_order_diagram--existing_path" d="M19.75,48.53c1.75,0.72,3.37,0.27,4.54-1.24c3.42-4.37,6.85-9.71,9.96-15.29" id="Ske1v19k43e" kvg:type="㇀" transform="matrix(1,0,0,1,1096,-4)" xmlns:kvg="http://kanjivg.tagaini.net"></path><path class="stroke_order_diagram--existing_path" d="M64.95,9.5c0.06,0.24,0.86,1.28,0.93,2.83c0.3,7.47-0.19,18.88-0.19,21.43c0,7.22-4.96,1.51-6.06,0.87" id="Ske1v19k43f" kvg:type="㇚" transform="matrix(1,0,0,1,1096,-4)" xmlns:kvg="http://kanjivg.tagaini.net"></path><path class="stroke_order_diagram--existing_path" d="M53.92,17.37c0.1,1.1-0.07,1.79-0.59,2.79c-2.23,4.34-8.36,11.35-13.42,14.86" id="Ske1v19k43g" kvg:type="㇒" transform="matrix(1,0,0,1,1096,-4)" xmlns:kvg="http://kanjivg.tagaini.net"></path><path class="stroke_order_diagram--existing_path" d="M77.75,16.63c6.37,3.25,14.91,11.62,16.5,16.68" id="Ske1v19k43h" kvg:type="㇔" transform="matrix(1,0,0,1,1096,-4)" xmlns:kvg="http://kanjivg.tagaini.net"></path><path class="stroke_order_diagram--existing_path" d="M80.88,26.31c0.12,0.6-0.06,1.64-0.74,2.43C73.5,36.5,56.63,47.75,37.5,52.5" id="Ske1v19k43i" kvg:type="㇒" transform="matrix(1,0,0,1,1096,-4)" xmlns:kvg="http://kanjivg.tagaini.net"></path><path class="stroke_order_diagram--existing_path" d="M54.94,49.25c0.97,0.97,1.19,2,1.19,3.38c0,1.47-0.01,4.25-0.01,5.87" id="Ske1v19k43j" kvg:type="㇑a" transform="matrix(1,0,0,1,1096,-4)" xmlns:kvg="http://kanjivg.tagaini.net"></path><path class="stroke_order_diagram--existing_path" d="M17.56,62.36c3.09,0.21,5.84,0.5,8.95,0.23c13.47-1.18,36.83-4.38,51.36-5.3c3.49-0.22,7.75-0.6,11.13,0.62" id="Ske1v19k43k" kvg:type="㇐" transform="matrix(1,0,0,1,1096,-4)" xmlns:kvg="http://kanjivg.tagaini.net"></path><path class="stroke_order_diagram--existing_path" d="M48.72,62.75c0.21,1.31-0.85,2.45-1.65,3.31c-5.28,5.62-15.65,14.12-33.45,23.23" id="Ske1v19k43l" kvg:type="㇒" transform="matrix(1,0,0,1,1096,-4)" xmlns:kvg="http://kanjivg.tagaini.net"></path><path class="stroke_order_diagram--existing_path" d="M39.69,76.08c0.71,0.71,0.93,1.9,0.93,3.05c0,10.63,0.1,15.23,0.1,17.03c0,1.8,1.1,2.82,2.5,1.47s13.35-10.66,15.22-12.01" id="Ske1v19k43m" kvg:type="㇙" transform="matrix(1,0,0,1,1096,-4)" xmlns:kvg="http://kanjivg.tagaini.net"></path><path class="stroke_order_diagram--current_path" d="M76.56,64.57c0.08,0.77-0.37,1.67-0.78,2.28c-1.39,2.08-3.11,3.93-8.04,7.73" id="kvg:088df-s12" kvg:type="㇒" transform="matrix(1,0,0,1,1096,-4)" xmlns:kvg="http://kanjivg.tagaini.net"></path><path class="stroke_order_diagram--current_path" d="M76.56,64.57c0.08,0.77-0.37,1.67-0.78,2.28c-1.39,2.08-3.11,3.93-8.04,7.73" id="Ske1v19k43o" kvg:type="㇒" transform="matrix(1,0,0,1,1096,-4)" xmlns:kvg="http://kanjivg.tagaini.net"></path><circle class="stroke_order_diagram--path_start" cx="76.56" cy="64.57" r="4" transform="matrix(1,0,0,1,1096,-4)"></circle><line class="stroke_order_diagram--guide_line" x1="1250" x2="1250" y1="1" y2="99"></line><line class="stroke_order_diagram--bounding_box" x1="1299" x2="1299" y1="1" y2="99"></line><path class="stroke_order_diagram--existing_path" d="M23.13,10.5c3.48,1.31,9,5.39,9.87,7.43" id="Ske1v19k43r" kvg:type="㇔" transform="matrix(1,0,0,1,1196,-4)" xmlns:kvg="http://kanjivg.tagaini.net"></path><path class="stroke_order_diagram--existing_path" d="M16.88,23c3.75,1.44,9.69,5.91,10.62,8.15" id="Ske1v19k43s" kvg:type="㇔" transform="matrix(1,0,0,1,1196,-4)" xmlns:kvg="http://kanjivg.tagaini.net"></path><path class="stroke_order_diagram--existing_path" d="M19.75,48.53c1.75,0.72,3.37,0.27,4.54-1.24c3.42-4.37,6.85-9.71,9.96-15.29" id="Ske1v19k43t" kvg:type="㇀" transform="matrix(1,0,0,1,1196,-4)" xmlns:kvg="http://kanjivg.tagaini.net"></path><path class="stroke_order_diagram--existing_path" d="M64.95,9.5c0.06,0.24,0.86,1.28,0.93,2.83c0.3,7.47-0.19,18.88-0.19,21.43c0,7.22-4.96,1.51-6.06,0.87" id="Ske1v19k43u" kvg:type="㇚" transform="matrix(1,0,0,1,1196,-4)" xmlns:kvg="http://kanjivg.tagaini.net"></path><path class="stroke_order_diagram--existing_path" d="M53.92,17.37c0.1,1.1-0.07,1.79-0.59,2.79c-2.23,4.34-8.36,11.35-13.42,14.86" id="Ske1v19k43v" kvg:type="㇒" transform="matrix(1,0,0,1,1196,-4)" xmlns:kvg="http://kanjivg.tagaini.net"></path><path class="stroke_order_diagram--existing_path" d="M77.75,16.63c6.37,3.25,14.91,11.62,16.5,16.68" id="Ske1v19k43w" kvg:type="㇔" transform="matrix(1,0,0,1,1196,-4)" xmlns:kvg="http://kanjivg.tagaini.net"></path><path class="stroke_order_diagram--existing_path" d="M80.88,26.31c0.12,0.6-0.06,1.64-0.74,2.43C73.5,36.5,56.63,47.75,37.5,52.5" id="Ske1v19k43x" kvg:type="㇒" transform="matrix(1,0,0,1,1196,-4)" xmlns:kvg="http://kanjivg.tagaini.net"></path><path class="stroke_order_diagram--existing_path" d="M54.94,49.25c0.97,0.97,1.19,2,1.19,3.38c0,1.47-0.01,4.25-0.01,5.87" id="Ske1v19k43y" kvg:type="㇑a" transform="matrix(1,0,0,1,1196,-4)" xmlns:kvg="http://kanjivg.tagaini.net"></path><path class="stroke_order_diagram--existing_path" d="M17.56,62.36c3.09,0.21,5.84,0.5,8.95,0.23c13.47-1.18,36.83-4.38,51.36-5.3c3.49-0.22,7.75-0.6,11.13,0.62" id="Ske1v19k43z" kvg:type="㇐" transform="matrix(1,0,0,1,1196,-4)" xmlns:kvg="http://kanjivg.tagaini.net"></path><path class="stroke_order_diagram--existing_path" d="M48.72,62.75c0.21,1.31-0.85,2.45-1.65,3.31c-5.28,5.62-15.65,14.12-33.45,23.23" id="Ske1v19k440" kvg:type="㇒" transform="matrix(1,0,0,1,1196,-4)" xmlns:kvg="http://kanjivg.tagaini.net"></path><path class="stroke_order_diagram--existing_path" d="M39.69,76.08c0.71,0.71,0.93,1.9,0.93,3.05c0,10.63,0.1,15.23,0.1,17.03c0,1.8,1.1,2.82,2.5,1.47s13.35-10.66,15.22-12.01" id="Ske1v19k441" kvg:type="㇙" transform="matrix(1,0,0,1,1196,-4)" xmlns:kvg="http://kanjivg.tagaini.net"></path><path class="stroke_order_diagram--existing_path" d="M76.56,64.57c0.08,0.77-0.37,1.67-0.78,2.28c-1.39,2.08-3.11,3.93-8.04,7.73" id="Ske1v19k442" kvg:type="㇒" transform="matrix(1,0,0,1,1196,-4)" xmlns:kvg="http://kanjivg.tagaini.net"></path><path class="stroke_order_diagram--current_path" d="M55.33,67.39c1.55,0.09,17.41,14.29,26.5,21.17c2.48,1.88,5.42,3.95,8.6,5.3" id="kvg:088df-s13" kvg:type="㇏" transform="matrix(1,0,0,1,1196,-4)" xmlns:kvg="http://kanjivg.tagaini.net"></path><path class="stroke_order_diagram--current_path" d="M55.33,67.39c1.55,0.09,17.41,14.29,26.5,21.17c2.48,1.88,5.42,3.95,8.6,5.3" id="Ske1v19k444" kvg:type="㇏" transform="matrix(1,0,0,1,1196,-4)" xmlns:kvg="http://kanjivg.tagaini.net"></path><circle class="stroke_order_diagram--path_start" cx="55.33" cy="67.39" r="4" transform="matrix(1,0,0,1,1196,-4)"></circle></svg>