<svg class="stroke_order_diagram--svg_container_for_51866295d5dda7965800098f" style="height: 100px; width: 1400px;" viewbox="0 0 1400 100"><desc>Created with Snap</desc><defs></defs><line class="stroke_order_diagram--bounding_box" x1="1" x2="1399" y1="1" y2="1"></line><line class="stroke_order_diagram--bounding_box" x1="1" x2="1" y1="1" y2="99"></line><line class="stroke_order_diagram--bounding_box" x1="1" x2="1399" y1="99" y2="99"></line><line class="stroke_order_diagram--guide_line" x1="0" x2="1400" y1="50" y2="50"></line><line class="stroke_order_diagram--guide_line" x1="50" x2="50" y1="1" y2="99"></line><line class="stroke_order_diagram--bounding_box" x1="99" x2="99" y1="1" y2="99"></line><path class="stroke_order_diagram--current_path" d="M23.38,14.62c2.69,2.17,5.58,5.42,7.89,9.21" id="kvg:08907-s1" kvg:type="㇔" transform="matrix(1,0,0,1,-4,-4)" xmlns:kvg="http://kanjivg.tagaini.net"></path><path class="stroke_order_diagram--current_path" d="M23.38,14.62c2.69,2.17,5.58,5.42,7.89,9.21" id="Ske27m3xsn" kvg:type="㇔" transform="matrix(1,0,0,1,-4,-4)" xmlns:kvg="http://kanjivg.tagaini.net"></path><circle class="stroke_order_diagram--path_start" cx="23.38" cy="14.62" r="4" transform="matrix(1,0,0,1,-4,-4)"></circle><line class="stroke_order_diagram--guide_line" x1="150" x2="150" y1="1" y2="99"></line><line class="stroke_order_diagram--bounding_box" x1="199" x2="199" y1="1" y2="99"></line><path class="stroke_order_diagram--existing_path" d="M23.38,14.62c2.69,2.17,5.58,5.42,7.89,9.21" id="Ske27m3xsq" kvg:type="㇔" transform="matrix(1,0,0,1,96,-4)" xmlns:kvg="http://kanjivg.tagaini.net"></path><path class="stroke_order_diagram--current_path" d="M15.35,34.65c1.52,0.48,3.49,0.55,4.99,0.19c4.53-1.08,14.53-5.08,18.03-6.35c2.18-0.79,3.82,0.68,2.57,2.94C33.63,44.69,22.5,58.42,11.75,68.49" id="kvg:08907-s2" kvg:type="㇇" transform="matrix(1,0,0,1,96,-4)" xmlns:kvg="http://kanjivg.tagaini.net"></path><path class="stroke_order_diagram--current_path" d="M15.35,34.65c1.52,0.48,3.49,0.55,4.99,0.19c4.53-1.08,14.53-5.08,18.03-6.35c2.18-0.79,3.82,0.68,2.57,2.94C33.63,44.69,22.5,58.42,11.75,68.49" id="Ske27m3xss" kvg:type="㇇" transform="matrix(1,0,0,1,96,-4)" xmlns:kvg="http://kanjivg.tagaini.net"></path><circle class="stroke_order_diagram--path_start" cx="15.35" cy="34.65" r="4" transform="matrix(1,0,0,1,96,-4)"></circle><line class="stroke_order_diagram--guide_line" x1="250" x2="250" y1="1" y2="99"></line><line class="stroke_order_diagram--bounding_box" x1="299" x2="299" y1="1" y2="99"></line><path class="stroke_order_diagram--existing_path" d="M23.38,14.62c2.69,2.17,5.58,5.42,7.89,9.21" id="Ske27m3xsv" kvg:type="㇔" transform="matrix(1,0,0,1,196,-4)" xmlns:kvg="http://kanjivg.tagaini.net"></path><path class="stroke_order_diagram--existing_path" d="M15.35,34.65c1.52,0.48,3.49,0.55,4.99,0.19c4.53-1.08,14.53-5.08,18.03-6.35c2.18-0.79,3.82,0.68,2.57,2.94C33.63,44.69,22.5,58.42,11.75,68.49" id="Ske27m3xsw" kvg:type="㇇" transform="matrix(1,0,0,1,196,-4)" xmlns:kvg="http://kanjivg.tagaini.net"></path><path class="stroke_order_diagram--current_path" d="M29.21,51.67c0.68,0.68,1.05,2,1.05,3.83c0,9.24,0.03,24.47,0.04,34.5c0,2.45,0,4.58,0,6.25" id="kvg:08907-s3" kvg:type="㇑" transform="matrix(1,0,0,1,196,-4)" xmlns:kvg="http://kanjivg.tagaini.net"></path><path class="stroke_order_diagram--current_path" d="M29.21,51.67c0.68,0.68,1.05,2,1.05,3.83c0,9.24,0.03,24.47,0.04,34.5c0,2.45,0,4.58,0,6.25" id="Ske27m3xsy" kvg:type="㇑" transform="matrix(1,0,0,1,196,-4)" xmlns:kvg="http://kanjivg.tagaini.net"></path><circle class="stroke_order_diagram--path_start" cx="29.21" cy="51.67" r="4" transform="matrix(1,0,0,1,196,-4)"></circle><line class="stroke_order_diagram--guide_line" x1="350" x2="350" y1="1" y2="99"></line><line class="stroke_order_diagram--bounding_box" x1="399" x2="399" y1="1" y2="99"></line><path class="stroke_order_diagram--existing_path" d="M23.38,14.62c2.69,2.17,5.58,5.42,7.89,9.21" id="Ske27m3xs11" kvg:type="㇔" transform="matrix(1,0,0,1,296,-4)" xmlns:kvg="http://kanjivg.tagaini.net"></path><path class="stroke_order_diagram--existing_path" d="M15.35,34.65c1.52,0.48,3.49,0.55,4.99,0.19c4.53-1.08,14.53-5.08,18.03-6.35c2.18-0.79,3.82,0.68,2.57,2.94C33.63,44.69,22.5,58.42,11.75,68.49" id="Ske27m3xs12" kvg:type="㇇" transform="matrix(1,0,0,1,296,-4)" xmlns:kvg="http://kanjivg.tagaini.net"></path><path class="stroke_order_diagram--existing_path" d="M29.21,51.67c0.68,0.68,1.05,2,1.05,3.83c0,9.24,0.03,24.47,0.04,34.5c0,2.45,0,4.58,0,6.25" id="Ske27m3xs13" kvg:type="㇑" transform="matrix(1,0,0,1,296,-4)" xmlns:kvg="http://kanjivg.tagaini.net"></path><path class="stroke_order_diagram--current_path" d="M42.85,44.85c0.18,0.83-0.15,1.56-0.5,2.17c-1.05,1.83-4.05,5.84-6.16,8.01" id="kvg:08907-s4" kvg:type="㇒" transform="matrix(1,0,0,1,296,-4)" xmlns:kvg="http://kanjivg.tagaini.net"></path><path class="stroke_order_diagram--current_path" d="M42.85,44.85c0.18,0.83-0.15,1.56-0.5,2.17c-1.05,1.83-4.05,5.84-6.16,8.01" id="Ske27m3xs15" kvg:type="㇒" transform="matrix(1,0,0,1,296,-4)" xmlns:kvg="http://kanjivg.tagaini.net"></path><circle class="stroke_order_diagram--path_start" cx="42.85" cy="44.85" r="4" transform="matrix(1,0,0,1,296,-4)"></circle><line class="stroke_order_diagram--guide_line" x1="450" x2="450" y1="1" y2="99"></line><line class="stroke_order_diagram--bounding_box" x1="499" x2="499" y1="1" y2="99"></line><path class="stroke_order_diagram--existing_path" d="M23.38,14.62c2.69,2.17,5.58,5.42,7.89,9.21" id="Ske27m3xs18" kvg:type="㇔" transform="matrix(1,0,0,1,396,-4)" xmlns:kvg="http://kanjivg.tagaini.net"></path><path class="stroke_order_diagram--existing_path" d="M15.35,34.65c1.52,0.48,3.49,0.55,4.99,0.19c4.53-1.08,14.53-5.08,18.03-6.35c2.18-0.79,3.82,0.68,2.57,2.94C33.63,44.69,22.5,58.42,11.75,68.49" id="Ske27m3xs19" kvg:type="㇇" transform="matrix(1,0,0,1,396,-4)" xmlns:kvg="http://kanjivg.tagaini.net"></path><path class="stroke_order_diagram--existing_path" d="M29.21,51.67c0.68,0.68,1.05,2,1.05,3.83c0,9.24,0.03,24.47,0.04,34.5c0,2.45,0,4.58,0,6.25" id="Ske27m3xs1a" kvg:type="㇑" transform="matrix(1,0,0,1,396,-4)" xmlns:kvg="http://kanjivg.tagaini.net"></path><path class="stroke_order_diagram--existing_path" d="M42.85,44.85c0.18,0.83-0.15,1.56-0.5,2.17c-1.05,1.83-4.05,5.84-6.16,8.01" id="Ske27m3xs1b" kvg:type="㇒" transform="matrix(1,0,0,1,396,-4)" xmlns:kvg="http://kanjivg.tagaini.net"></path><path class="stroke_order_diagram--current_path" d="M33.12,56.38c3.23,2.16,6.68,5.39,9.45,9.17" id="kvg:08907-s5" kvg:type="㇔" transform="matrix(1,0,0,1,396,-4)" xmlns:kvg="http://kanjivg.tagaini.net"></path><path class="stroke_order_diagram--current_path" d="M33.12,56.38c3.23,2.16,6.68,5.39,9.45,9.17" id="Ske27m3xs1d" kvg:type="㇔" transform="matrix(1,0,0,1,396,-4)" xmlns:kvg="http://kanjivg.tagaini.net"></path><circle class="stroke_order_diagram--path_start" cx="33.12" cy="56.38" r="4" transform="matrix(1,0,0,1,396,-4)"></circle><line class="stroke_order_diagram--guide_line" x1="550" x2="550" y1="1" y2="99"></line><line class="stroke_order_diagram--bounding_box" x1="599" x2="599" y1="1" y2="99"></line><path class="stroke_order_diagram--existing_path" d="M23.38,14.62c2.69,2.17,5.58,5.42,7.89,9.21" id="Ske27m3xs1g" kvg:type="㇔" transform="matrix(1,0,0,1,496,-4)" xmlns:kvg="http://kanjivg.tagaini.net"></path><path class="stroke_order_diagram--existing_path" d="M15.35,34.65c1.52,0.48,3.49,0.55,4.99,0.19c4.53-1.08,14.53-5.08,18.03-6.35c2.18-0.79,3.82,0.68,2.57,2.94C33.63,44.69,22.5,58.42,11.75,68.49" id="Ske27m3xs1h" kvg:type="㇇" transform="matrix(1,0,0,1,496,-4)" xmlns:kvg="http://kanjivg.tagaini.net"></path><path class="stroke_order_diagram--existing_path" d="M29.21,51.67c0.68,0.68,1.05,2,1.05,3.83c0,9.24,0.03,24.47,0.04,34.5c0,2.45,0,4.58,0,6.25" id="Ske27m3xs1i" kvg:type="㇑" transform="matrix(1,0,0,1,496,-4)" xmlns:kvg="http://kanjivg.tagaini.net"></path><path class="stroke_order_diagram--existing_path" d="M42.85,44.85c0.18,0.83-0.15,1.56-0.5,2.17c-1.05,1.83-4.05,5.84-6.16,8.01" id="Ske27m3xs1j" kvg:type="㇒" transform="matrix(1,0,0,1,496,-4)" xmlns:kvg="http://kanjivg.tagaini.net"></path><path class="stroke_order_diagram--existing_path" d="M33.12,56.38c3.23,2.16,6.68,5.39,9.45,9.17" id="Ske27m3xs1k" kvg:type="㇔" transform="matrix(1,0,0,1,496,-4)" xmlns:kvg="http://kanjivg.tagaini.net"></path><path class="stroke_order_diagram--current_path" d="M59.61,12.25c0.03,0.49,0.12,1.41-0.06,1.97c-2.22,6.91-5.29,12.28-11.04,19.08" id="kvg:08907-s6" kvg:type="㇒" transform="matrix(1,0,0,1,496,-4)" xmlns:kvg="http://kanjivg.tagaini.net"></path><path class="stroke_order_diagram--current_path" d="M59.61,12.25c0.03,0.49,0.12,1.41-0.06,1.97c-2.22,6.91-5.29,12.28-11.04,19.08" id="Ske27m3xs1m" kvg:type="㇒" transform="matrix(1,0,0,1,496,-4)" xmlns:kvg="http://kanjivg.tagaini.net"></path><circle class="stroke_order_diagram--path_start" cx="59.61" cy="12.25" r="4" transform="matrix(1,0,0,1,496,-4)"></circle><line class="stroke_order_diagram--guide_line" x1="650" x2="650" y1="1" y2="99"></line><line class="stroke_order_diagram--bounding_box" x1="699" x2="699" y1="1" y2="99"></line><path class="stroke_order_diagram--existing_path" d="M23.38,14.62c2.69,2.17,5.58,5.42,7.89,9.21" id="Ske27m3xs1p" kvg:type="㇔" transform="matrix(1,0,0,1,596,-4)" xmlns:kvg="http://kanjivg.tagaini.net"></path><path class="stroke_order_diagram--existing_path" d="M15.35,34.65c1.52,0.48,3.49,0.55,4.99,0.19c4.53-1.08,14.53-5.08,18.03-6.35c2.18-0.79,3.82,0.68,2.57,2.94C33.63,44.69,22.5,58.42,11.75,68.49" id="Ske27m3xs1q" kvg:type="㇇" transform="matrix(1,0,0,1,596,-4)" xmlns:kvg="http://kanjivg.tagaini.net"></path><path class="stroke_order_diagram--existing_path" d="M29.21,51.67c0.68,0.68,1.05,2,1.05,3.83c0,9.24,0.03,24.47,0.04,34.5c0,2.45,0,4.58,0,6.25" id="Ske27m3xs1r" kvg:type="㇑" transform="matrix(1,0,0,1,596,-4)" xmlns:kvg="http://kanjivg.tagaini.net"></path><path class="stroke_order_diagram--existing_path" d="M42.85,44.85c0.18,0.83-0.15,1.56-0.5,2.17c-1.05,1.83-4.05,5.84-6.16,8.01" id="Ske27m3xs1s" kvg:type="㇒" transform="matrix(1,0,0,1,596,-4)" xmlns:kvg="http://kanjivg.tagaini.net"></path><path class="stroke_order_diagram--existing_path" d="M33.12,56.38c3.23,2.16,6.68,5.39,9.45,9.17" id="Ske27m3xs1t" kvg:type="㇔" transform="matrix(1,0,0,1,596,-4)" xmlns:kvg="http://kanjivg.tagaini.net"></path><path class="stroke_order_diagram--existing_path" d="M59.61,12.25c0.03,0.49,0.12,1.41-0.06,1.97c-2.22,6.91-5.29,12.28-11.04,19.08" id="Ske27m3xs1u" kvg:type="㇒" transform="matrix(1,0,0,1,596,-4)" xmlns:kvg="http://kanjivg.tagaini.net"></path><path class="stroke_order_diagram--current_path" d="M59,23.97c0.88,0.28,1.94,0.1,2.63,0.03c3.75-0.41,14.42-2.27,21.9-3.34c1.87-0.27,3.86-0.34,5.75-0.28" id="kvg:08907-s7" kvg:type="㇐" transform="matrix(1,0,0,1,596,-4)" xmlns:kvg="http://kanjivg.tagaini.net"></path><path class="stroke_order_diagram--current_path" d="M59,23.97c0.88,0.28,1.94,0.1,2.63,0.03c3.75-0.41,14.42-2.27,21.9-3.34c1.87-0.27,3.86-0.34,5.75-0.28" id="Ske27m3xs1w" kvg:type="㇐" transform="matrix(1,0,0,1,596,-4)" xmlns:kvg="http://kanjivg.tagaini.net"></path><circle class="stroke_order_diagram--path_start" cx="59" cy="23.97" r="4" transform="matrix(1,0,0,1,596,-4)"></circle><line class="stroke_order_diagram--guide_line" x1="750" x2="750" y1="1" y2="99"></line><line class="stroke_order_diagram--bounding_box" x1="799" x2="799" y1="1" y2="99"></line><path class="stroke_order_diagram--existing_path" d="M23.38,14.62c2.69,2.17,5.58,5.42,7.89,9.21" id="Ske27m3xs1z" kvg:type="㇔" transform="matrix(1,0,0,1,696,-4)" xmlns:kvg="http://kanjivg.tagaini.net"></path><path class="stroke_order_diagram--existing_path" d="M15.35,34.65c1.52,0.48,3.49,0.55,4.99,0.19c4.53-1.08,14.53-5.08,18.03-6.35c2.18-0.79,3.82,0.68,2.57,2.94C33.63,44.69,22.5,58.42,11.75,68.49" id="Ske27m3xs20" kvg:type="㇇" transform="matrix(1,0,0,1,696,-4)" xmlns:kvg="http://kanjivg.tagaini.net"></path><path class="stroke_order_diagram--existing_path" d="M29.21,51.67c0.68,0.68,1.05,2,1.05,3.83c0,9.24,0.03,24.47,0.04,34.5c0,2.45,0,4.58,0,6.25" id="Ske27m3xs21" kvg:type="㇑" transform="matrix(1,0,0,1,696,-4)" xmlns:kvg="http://kanjivg.tagaini.net"></path><path class="stroke_order_diagram--existing_path" d="M42.85,44.85c0.18,0.83-0.15,1.56-0.5,2.17c-1.05,1.83-4.05,5.84-6.16,8.01" id="Ske27m3xs22" kvg:type="㇒" transform="matrix(1,0,0,1,696,-4)" xmlns:kvg="http://kanjivg.tagaini.net"></path><path class="stroke_order_diagram--existing_path" d="M33.12,56.38c3.23,2.16,6.68,5.39,9.45,9.17" id="Ske27m3xs23" kvg:type="㇔" transform="matrix(1,0,0,1,696,-4)" xmlns:kvg="http://kanjivg.tagaini.net"></path><path class="stroke_order_diagram--existing_path" d="M59.61,12.25c0.03,0.49,0.12,1.41-0.06,1.97c-2.22,6.91-5.29,12.28-11.04,19.08" id="Ske27m3xs24" kvg:type="㇒" transform="matrix(1,0,0,1,696,-4)" xmlns:kvg="http://kanjivg.tagaini.net"></path><path class="stroke_order_diagram--existing_path" d="M59,23.97c0.88,0.28,1.94,0.1,2.63,0.03c3.75-0.41,14.42-2.27,21.9-3.34c1.87-0.27,3.86-0.34,5.75-0.28" id="Ske27m3xs25" kvg:type="㇐" transform="matrix(1,0,0,1,696,-4)" xmlns:kvg="http://kanjivg.tagaini.net"></path><path class="stroke_order_diagram--current_path" d="M54.52,32.4c0.73,0.73,1.23,1.72,1.42,2.86c0.51,3.18,1.11,11.47,1.69,16.01c0.23,1.81,0.4,3.06,0.43,3.24" id="kvg:08907-s8" kvg:type="㇑" transform="matrix(1,0,0,1,696,-4)" xmlns:kvg="http://kanjivg.tagaini.net"></path><path class="stroke_order_diagram--current_path" d="M54.52,32.4c0.73,0.73,1.23,1.72,1.42,2.86c0.51,3.18,1.11,11.47,1.69,16.01c0.23,1.81,0.4,3.06,0.43,3.24" id="Ske27m3xs27" kvg:type="㇑" transform="matrix(1,0,0,1,696,-4)" xmlns:kvg="http://kanjivg.tagaini.net"></path><circle class="stroke_order_diagram--path_start" cx="54.52" cy="32.4" r="4" transform="matrix(1,0,0,1,696,-4)"></circle><line class="stroke_order_diagram--guide_line" x1="850" x2="850" y1="1" y2="99"></line><line class="stroke_order_diagram--bounding_box" x1="899" x2="899" y1="1" y2="99"></line><path class="stroke_order_diagram--existing_path" d="M23.38,14.62c2.69,2.17,5.58,5.42,7.89,9.21" id="Ske27m3xs2a" kvg:type="㇔" transform="matrix(1,0,0,1,796,-4)" xmlns:kvg="http://kanjivg.tagaini.net"></path><path class="stroke_order_diagram--existing_path" d="M15.35,34.65c1.52,0.48,3.49,0.55,4.99,0.19c4.53-1.08,14.53-5.08,18.03-6.35c2.18-0.79,3.82,0.68,2.57,2.94C33.63,44.69,22.5,58.42,11.75,68.49" id="Ske27m3xs2b" kvg:type="㇇" transform="matrix(1,0,0,1,796,-4)" xmlns:kvg="http://kanjivg.tagaini.net"></path><path class="stroke_order_diagram--existing_path" d="M29.21,51.67c0.68,0.68,1.05,2,1.05,3.83c0,9.24,0.03,24.47,0.04,34.5c0,2.45,0,4.58,0,6.25" id="Ske27m3xs2c" kvg:type="㇑" transform="matrix(1,0,0,1,796,-4)" xmlns:kvg="http://kanjivg.tagaini.net"></path><path class="stroke_order_diagram--existing_path" d="M42.85,44.85c0.18,0.83-0.15,1.56-0.5,2.17c-1.05,1.83-4.05,5.84-6.16,8.01" id="Ske27m3xs2d" kvg:type="㇒" transform="matrix(1,0,0,1,796,-4)" xmlns:kvg="http://kanjivg.tagaini.net"></path><path class="stroke_order_diagram--existing_path" d="M33.12,56.38c3.23,2.16,6.68,5.39,9.45,9.17" id="Ske27m3xs2e" kvg:type="㇔" transform="matrix(1,0,0,1,796,-4)" xmlns:kvg="http://kanjivg.tagaini.net"></path><path class="stroke_order_diagram--existing_path" d="M59.61,12.25c0.03,0.49,0.12,1.41-0.06,1.97c-2.22,6.91-5.29,12.28-11.04,19.08" id="Ske27m3xs2f" kvg:type="㇒" transform="matrix(1,0,0,1,796,-4)" xmlns:kvg="http://kanjivg.tagaini.net"></path><path class="stroke_order_diagram--existing_path" d="M59,23.97c0.88,0.28,1.94,0.1,2.63,0.03c3.75-0.41,14.42-2.27,21.9-3.34c1.87-0.27,3.86-0.34,5.75-0.28" id="Ske27m3xs2g" kvg:type="㇐" transform="matrix(1,0,0,1,796,-4)" xmlns:kvg="http://kanjivg.tagaini.net"></path><path class="stroke_order_diagram--existing_path" d="M54.52,32.4c0.73,0.73,1.23,1.72,1.42,2.86c0.51,3.18,1.11,11.47,1.69,16.01c0.23,1.81,0.4,3.06,0.43,3.24" id="Ske27m3xs2h" kvg:type="㇑" transform="matrix(1,0,0,1,796,-4)" xmlns:kvg="http://kanjivg.tagaini.net"></path><path class="stroke_order_diagram--current_path" d="M56.69,33.99c3.56-0.65,19.46-3.35,24.67-4.07c2.43-0.34,4.29,0.83,3.98,3.47c-0.3,2.62-0.99,9.87-1.7,14.85c-0.4,2.84-0.7,4.97-0.7,5.15" id="kvg:08907-s9" kvg:type="㇕a" transform="matrix(1,0,0,1,796,-4)" xmlns:kvg="http://kanjivg.tagaini.net"></path><path class="stroke_order_diagram--current_path" d="M56.69,33.99c3.56-0.65,19.46-3.35,24.67-4.07c2.43-0.34,4.29,0.83,3.98,3.47c-0.3,2.62-0.99,9.87-1.7,14.85c-0.4,2.84-0.7,4.97-0.7,5.15" id="Ske27m3xs2j" kvg:type="㇕a" transform="matrix(1,0,0,1,796,-4)" xmlns:kvg="http://kanjivg.tagaini.net"></path><circle class="stroke_order_diagram--path_start" cx="56.69" cy="33.99" r="4" transform="matrix(1,0,0,1,796,-4)"></circle><line class="stroke_order_diagram--guide_line" x1="950" x2="950" y1="1" y2="99"></line><line class="stroke_order_diagram--bounding_box" x1="999" x2="999" y1="1" y2="99"></line><path class="stroke_order_diagram--existing_path" d="M23.38,14.62c2.69,2.17,5.58,5.42,7.89,9.21" id="Ske27m3xs2m" kvg:type="㇔" transform="matrix(1,0,0,1,896,-4)" xmlns:kvg="http://kanjivg.tagaini.net"></path><path class="stroke_order_diagram--existing_path" d="M15.35,34.65c1.52,0.48,3.49,0.55,4.99,0.19c4.53-1.08,14.53-5.08,18.03-6.35c2.18-0.79,3.82,0.68,2.57,2.94C33.63,44.69,22.5,58.42,11.75,68.49" id="Ske27m3xs2n" kvg:type="㇇" transform="matrix(1,0,0,1,896,-4)" xmlns:kvg="http://kanjivg.tagaini.net"></path><path class="stroke_order_diagram--existing_path" d="M29.21,51.67c0.68,0.68,1.05,2,1.05,3.83c0,9.24,0.03,24.47,0.04,34.5c0,2.45,0,4.58,0,6.25" id="Ske27m3xs2o" kvg:type="㇑" transform="matrix(1,0,0,1,896,-4)" xmlns:kvg="http://kanjivg.tagaini.net"></path><path class="stroke_order_diagram--existing_path" d="M42.85,44.85c0.18,0.83-0.15,1.56-0.5,2.17c-1.05,1.83-4.05,5.84-6.16,8.01" id="Ske27m3xs2p" kvg:type="㇒" transform="matrix(1,0,0,1,896,-4)" xmlns:kvg="http://kanjivg.tagaini.net"></path><path class="stroke_order_diagram--existing_path" d="M33.12,56.38c3.23,2.16,6.68,5.39,9.45,9.17" id="Ske27m3xs2q" kvg:type="㇔" transform="matrix(1,0,0,1,896,-4)" xmlns:kvg="http://kanjivg.tagaini.net"></path><path class="stroke_order_diagram--existing_path" d="M59.61,12.25c0.03,0.49,0.12,1.41-0.06,1.97c-2.22,6.91-5.29,12.28-11.04,19.08" id="Ske27m3xs2r" kvg:type="㇒" transform="matrix(1,0,0,1,896,-4)" xmlns:kvg="http://kanjivg.tagaini.net"></path><path class="stroke_order_diagram--existing_path" d="M59,23.97c0.88,0.28,1.94,0.1,2.63,0.03c3.75-0.41,14.42-2.27,21.9-3.34c1.87-0.27,3.86-0.34,5.75-0.28" id="Ske27m3xs2s" kvg:type="㇐" transform="matrix(1,0,0,1,896,-4)" xmlns:kvg="http://kanjivg.tagaini.net"></path><path class="stroke_order_diagram--existing_path" d="M54.52,32.4c0.73,0.73,1.23,1.72,1.42,2.86c0.51,3.18,1.11,11.47,1.69,16.01c0.23,1.81,0.4,3.06,0.43,3.24" id="Ske27m3xs2t" kvg:type="㇑" transform="matrix(1,0,0,1,896,-4)" xmlns:kvg="http://kanjivg.tagaini.net"></path><path class="stroke_order_diagram--existing_path" d="M56.69,33.99c3.56-0.65,19.46-3.35,24.67-4.07c2.43-0.34,4.29,0.83,3.98,3.47c-0.3,2.62-0.99,9.87-1.7,14.85c-0.4,2.84-0.7,4.97-0.7,5.15" id="Ske27m3xs2u" kvg:type="㇕a" transform="matrix(1,0,0,1,896,-4)" xmlns:kvg="http://kanjivg.tagaini.net"></path><path class="stroke_order_diagram--current_path" d="M57.83,43.31c6.92-1.06,19.67-2.31,25.72-2.9" id="kvg:08907-s10" kvg:type="㇐a" transform="matrix(1,0,0,1,896,-4)" xmlns:kvg="http://kanjivg.tagaini.net"></path><path class="stroke_order_diagram--current_path" d="M57.83,43.31c6.92-1.06,19.67-2.31,25.72-2.9" id="Ske27m3xs2w" kvg:type="㇐a" transform="matrix(1,0,0,1,896,-4)" xmlns:kvg="http://kanjivg.tagaini.net"></path><circle class="stroke_order_diagram--path_start" cx="57.83" cy="43.31" r="4" transform="matrix(1,0,0,1,896,-4)"></circle><line class="stroke_order_diagram--guide_line" x1="1050" x2="1050" y1="1" y2="99"></line><line class="stroke_order_diagram--bounding_box" x1="1099" x2="1099" y1="1" y2="99"></line><path class="stroke_order_diagram--existing_path" d="M23.38,14.62c2.69,2.17,5.58,5.42,7.89,9.21" id="Ske27m3xs2z" kvg:type="㇔" transform="matrix(1,0,0,1,996,-4)" xmlns:kvg="http://kanjivg.tagaini.net"></path><path class="stroke_order_diagram--existing_path" d="M15.35,34.65c1.52,0.48,3.49,0.55,4.99,0.19c4.53-1.08,14.53-5.08,18.03-6.35c2.18-0.79,3.82,0.68,2.57,2.94C33.63,44.69,22.5,58.42,11.75,68.49" id="Ske27m3xs30" kvg:type="㇇" transform="matrix(1,0,0,1,996,-4)" xmlns:kvg="http://kanjivg.tagaini.net"></path><path class="stroke_order_diagram--existing_path" d="M29.21,51.67c0.68,0.68,1.05,2,1.05,3.83c0,9.24,0.03,24.47,0.04,34.5c0,2.45,0,4.58,0,6.25" id="Ske27m3xs31" kvg:type="㇑" transform="matrix(1,0,0,1,996,-4)" xmlns:kvg="http://kanjivg.tagaini.net"></path><path class="stroke_order_diagram--existing_path" d="M42.85,44.85c0.18,0.83-0.15,1.56-0.5,2.17c-1.05,1.83-4.05,5.84-6.16,8.01" id="Ske27m3xs32" kvg:type="㇒" transform="matrix(1,0,0,1,996,-4)" xmlns:kvg="http://kanjivg.tagaini.net"></path><path class="stroke_order_diagram--existing_path" d="M33.12,56.38c3.23,2.16,6.68,5.39,9.45,9.17" id="Ske27m3xs33" kvg:type="㇔" transform="matrix(1,0,0,1,996,-4)" xmlns:kvg="http://kanjivg.tagaini.net"></path><path class="stroke_order_diagram--existing_path" d="M59.61,12.25c0.03,0.49,0.12,1.41-0.06,1.97c-2.22,6.91-5.29,12.28-11.04,19.08" id="Ske27m3xs34" kvg:type="㇒" transform="matrix(1,0,0,1,996,-4)" xmlns:kvg="http://kanjivg.tagaini.net"></path><path class="stroke_order_diagram--existing_path" d="M59,23.97c0.88,0.28,1.94,0.1,2.63,0.03c3.75-0.41,14.42-2.27,21.9-3.34c1.87-0.27,3.86-0.34,5.75-0.28" id="Ske27m3xs35" kvg:type="㇐" transform="matrix(1,0,0,1,996,-4)" xmlns:kvg="http://kanjivg.tagaini.net"></path><path class="stroke_order_diagram--existing_path" d="M54.52,32.4c0.73,0.73,1.23,1.72,1.42,2.86c0.51,3.18,1.11,11.47,1.69,16.01c0.23,1.81,0.4,3.06,0.43,3.24" id="Ske27m3xs36" kvg:type="㇑" transform="matrix(1,0,0,1,996,-4)" xmlns:kvg="http://kanjivg.tagaini.net"></path><path class="stroke_order_diagram--existing_path" d="M56.69,33.99c3.56-0.65,19.46-3.35,24.67-4.07c2.43-0.34,4.29,0.83,3.98,3.47c-0.3,2.62-0.99,9.87-1.7,14.85c-0.4,2.84-0.7,4.97-0.7,5.15" id="Ske27m3xs37" kvg:type="㇕a" transform="matrix(1,0,0,1,996,-4)" xmlns:kvg="http://kanjivg.tagaini.net"></path><path class="stroke_order_diagram--existing_path" d="M57.83,43.31c6.92-1.06,19.67-2.31,25.72-2.9" id="Ske27m3xs38" kvg:type="㇐a" transform="matrix(1,0,0,1,996,-4)" xmlns:kvg="http://kanjivg.tagaini.net"></path><path class="stroke_order_diagram--current_path" d="M58.94,53.26c7.56-0.76,15.93-1.76,23.1-2.22" id="kvg:08907-s11" kvg:type="㇐a" transform="matrix(1,0,0,1,996,-4)" xmlns:kvg="http://kanjivg.tagaini.net"></path><path class="stroke_order_diagram--current_path" d="M58.94,53.26c7.56-0.76,15.93-1.76,23.1-2.22" id="Ske27m3xs3a" kvg:type="㇐a" transform="matrix(1,0,0,1,996,-4)" xmlns:kvg="http://kanjivg.tagaini.net"></path><circle class="stroke_order_diagram--path_start" cx="58.94" cy="53.26" r="4" transform="matrix(1,0,0,1,996,-4)"></circle><line class="stroke_order_diagram--guide_line" x1="1150" x2="1150" y1="1" y2="99"></line><line class="stroke_order_diagram--bounding_box" x1="1199" x2="1199" y1="1" y2="99"></line><path class="stroke_order_diagram--existing_path" d="M23.38,14.62c2.69,2.17,5.58,5.42,7.89,9.21" id="Ske27m3xs3d" kvg:type="㇔" transform="matrix(1,0,0,1,1096,-4)" xmlns:kvg="http://kanjivg.tagaini.net"></path><path class="stroke_order_diagram--existing_path" d="M15.35,34.65c1.52,0.48,3.49,0.55,4.99,0.19c4.53-1.08,14.53-5.08,18.03-6.35c2.18-0.79,3.82,0.68,2.57,2.94C33.63,44.69,22.5,58.42,11.75,68.49" id="Ske27m3xs3e" kvg:type="㇇" transform="matrix(1,0,0,1,1096,-4)" xmlns:kvg="http://kanjivg.tagaini.net"></path><path class="stroke_order_diagram--existing_path" d="M29.21,51.67c0.68,0.68,1.05,2,1.05,3.83c0,9.24,0.03,24.47,0.04,34.5c0,2.45,0,4.58,0,6.25" id="Ske27m3xs3f" kvg:type="㇑" transform="matrix(1,0,0,1,1096,-4)" xmlns:kvg="http://kanjivg.tagaini.net"></path><path class="stroke_order_diagram--existing_path" d="M42.85,44.85c0.18,0.83-0.15,1.56-0.5,2.17c-1.05,1.83-4.05,5.84-6.16,8.01" id="Ske27m3xs3g" kvg:type="㇒" transform="matrix(1,0,0,1,1096,-4)" xmlns:kvg="http://kanjivg.tagaini.net"></path><path class="stroke_order_diagram--existing_path" d="M33.12,56.38c3.23,2.16,6.68,5.39,9.45,9.17" id="Ske27m3xs3h" kvg:type="㇔" transform="matrix(1,0,0,1,1096,-4)" xmlns:kvg="http://kanjivg.tagaini.net"></path><path class="stroke_order_diagram--existing_path" d="M59.61,12.25c0.03,0.49,0.12,1.41-0.06,1.97c-2.22,6.91-5.29,12.28-11.04,19.08" id="Ske27m3xs3i" kvg:type="㇒" transform="matrix(1,0,0,1,1096,-4)" xmlns:kvg="http://kanjivg.tagaini.net"></path><path class="stroke_order_diagram--existing_path" d="M59,23.97c0.88,0.28,1.94,0.1,2.63,0.03c3.75-0.41,14.42-2.27,21.9-3.34c1.87-0.27,3.86-0.34,5.75-0.28" id="Ske27m3xs3j" kvg:type="㇐" transform="matrix(1,0,0,1,1096,-4)" xmlns:kvg="http://kanjivg.tagaini.net"></path><path class="stroke_order_diagram--existing_path" d="M54.52,32.4c0.73,0.73,1.23,1.72,1.42,2.86c0.51,3.18,1.11,11.47,1.69,16.01c0.23,1.81,0.4,3.06,0.43,3.24" id="Ske27m3xs3k" kvg:type="㇑" transform="matrix(1,0,0,1,1096,-4)" xmlns:kvg="http://kanjivg.tagaini.net"></path><path class="stroke_order_diagram--existing_path" d="M56.69,33.99c3.56-0.65,19.46-3.35,24.67-4.07c2.43-0.34,4.29,0.83,3.98,3.47c-0.3,2.62-0.99,9.87-1.7,14.85c-0.4,2.84-0.7,4.97-0.7,5.15" id="Ske27m3xs3l" kvg:type="㇕a" transform="matrix(1,0,0,1,1096,-4)" xmlns:kvg="http://kanjivg.tagaini.net"></path><path class="stroke_order_diagram--existing_path" d="M57.83,43.31c6.92-1.06,19.67-2.31,25.72-2.9" id="Ske27m3xs3m" kvg:type="㇐a" transform="matrix(1,0,0,1,1096,-4)" xmlns:kvg="http://kanjivg.tagaini.net"></path><path class="stroke_order_diagram--existing_path" d="M58.94,53.26c7.56-0.76,15.93-1.76,23.1-2.22" id="Ske27m3xs3n" kvg:type="㇐a" transform="matrix(1,0,0,1,1096,-4)" xmlns:kvg="http://kanjivg.tagaini.net"></path><path class="stroke_order_diagram--current_path" d="M60.08,59.25c0.09,1.08,0.08,2.09-0.44,3.05c-2.27,4.2-7.27,11.82-14.51,17.62" id="kvg:08907-s12" kvg:type="㇒" transform="matrix(1,0,0,1,1096,-4)" xmlns:kvg="http://kanjivg.tagaini.net"></path><path class="stroke_order_diagram--current_path" d="M60.08,59.25c0.09,1.08,0.08,2.09-0.44,3.05c-2.27,4.2-7.27,11.82-14.51,17.62" id="Ske27m3xs3p" kvg:type="㇒" transform="matrix(1,0,0,1,1096,-4)" xmlns:kvg="http://kanjivg.tagaini.net"></path><circle class="stroke_order_diagram--path_start" cx="60.08" cy="59.25" r="4" transform="matrix(1,0,0,1,1096,-4)"></circle><line class="stroke_order_diagram--guide_line" x1="1250" x2="1250" y1="1" y2="99"></line><line class="stroke_order_diagram--bounding_box" x1="1299" x2="1299" y1="1" y2="99"></line><path class="stroke_order_diagram--existing_path" d="M23.38,14.62c2.69,2.17,5.58,5.42,7.89,9.21" id="Ske27m3xs3s" kvg:type="㇔" transform="matrix(1,0,0,1,1196,-4)" xmlns:kvg="http://kanjivg.tagaini.net"></path><path class="stroke_order_diagram--existing_path" d="M15.35,34.65c1.52,0.48,3.49,0.55,4.99,0.19c4.53-1.08,14.53-5.08,18.03-6.35c2.18-0.79,3.82,0.68,2.57,2.94C33.63,44.69,22.5,58.42,11.75,68.49" id="Ske27m3xs3t" kvg:type="㇇" transform="matrix(1,0,0,1,1196,-4)" xmlns:kvg="http://kanjivg.tagaini.net"></path><path class="stroke_order_diagram--existing_path" d="M29.21,51.67c0.68,0.68,1.05,2,1.05,3.83c0,9.24,0.03,24.47,0.04,34.5c0,2.45,0,4.58,0,6.25" id="Ske27m3xs3u" kvg:type="㇑" transform="matrix(1,0,0,1,1196,-4)" xmlns:kvg="http://kanjivg.tagaini.net"></path><path class="stroke_order_diagram--existing_path" d="M42.85,44.85c0.18,0.83-0.15,1.56-0.5,2.17c-1.05,1.83-4.05,5.84-6.16,8.01" id="Ske27m3xs3v" kvg:type="㇒" transform="matrix(1,0,0,1,1196,-4)" xmlns:kvg="http://kanjivg.tagaini.net"></path><path class="stroke_order_diagram--existing_path" d="M33.12,56.38c3.23,2.16,6.68,5.39,9.45,9.17" id="Ske27m3xs3w" kvg:type="㇔" transform="matrix(1,0,0,1,1196,-4)" xmlns:kvg="http://kanjivg.tagaini.net"></path><path class="stroke_order_diagram--existing_path" d="M59.61,12.25c0.03,0.49,0.12,1.41-0.06,1.97c-2.22,6.91-5.29,12.28-11.04,19.08" id="Ske27m3xs3x" kvg:type="㇒" transform="matrix(1,0,0,1,1196,-4)" xmlns:kvg="http://kanjivg.tagaini.net"></path><path class="stroke_order_diagram--existing_path" d="M59,23.97c0.88,0.28,1.94,0.1,2.63,0.03c3.75-0.41,14.42-2.27,21.9-3.34c1.87-0.27,3.86-0.34,5.75-0.28" id="Ske27m3xs3y" kvg:type="㇐" transform="matrix(1,0,0,1,1196,-4)" xmlns:kvg="http://kanjivg.tagaini.net"></path><path class="stroke_order_diagram--existing_path" d="M54.52,32.4c0.73,0.73,1.23,1.72,1.42,2.86c0.51,3.18,1.11,11.47,1.69,16.01c0.23,1.81,0.4,3.06,0.43,3.24" id="Ske27m3xs3z" kvg:type="㇑" transform="matrix(1,0,0,1,1196,-4)" xmlns:kvg="http://kanjivg.tagaini.net"></path><path class="stroke_order_diagram--existing_path" d="M56.69,33.99c3.56-0.65,19.46-3.35,24.67-4.07c2.43-0.34,4.29,0.83,3.98,3.47c-0.3,2.62-0.99,9.87-1.7,14.85c-0.4,2.84-0.7,4.97-0.7,5.15" id="Ske27m3xs40" kvg:type="㇕a" transform="matrix(1,0,0,1,1196,-4)" xmlns:kvg="http://kanjivg.tagaini.net"></path><path class="stroke_order_diagram--existing_path" d="M57.83,43.31c6.92-1.06,19.67-2.31,25.72-2.9" id="Ske27m3xs41" kvg:type="㇐a" transform="matrix(1,0,0,1,1196,-4)" xmlns:kvg="http://kanjivg.tagaini.net"></path><path class="stroke_order_diagram--existing_path" d="M58.94,53.26c7.56-0.76,15.93-1.76,23.1-2.22" id="Ske27m3xs42" kvg:type="㇐a" transform="matrix(1,0,0,1,1196,-4)" xmlns:kvg="http://kanjivg.tagaini.net"></path><path class="stroke_order_diagram--existing_path" d="M60.08,59.25c0.09,1.08,0.08,2.09-0.44,3.05c-2.27,4.2-7.27,11.82-14.51,17.62" id="Ske27m3xs43" kvg:type="㇒" transform="matrix(1,0,0,1,1196,-4)" xmlns:kvg="http://kanjivg.tagaini.net"></path><path class="stroke_order_diagram--current_path" d="M62.22,64.98c0.25,0.03,1.84,0,2.57-0.08c2.39-0.26,10.07-2.48,13.48-3.28c2.34-0.55,3.12,1.18,2.41,2.63C76.75,72.25,60.12,90.88,45.5,96" id="kvg:08907-s13" kvg:type="㇇" transform="matrix(1,0,0,1,1196,-4)" xmlns:kvg="http://kanjivg.tagaini.net"></path><path class="stroke_order_diagram--current_path" d="M62.22,64.98c0.25,0.03,1.84,0,2.57-0.08c2.39-0.26,10.07-2.48,13.48-3.28c2.34-0.55,3.12,1.18,2.41,2.63C76.75,72.25,60.12,90.88,45.5,96" id="Ske27m3xs45" kvg:type="㇇" transform="matrix(1,0,0,1,1196,-4)" xmlns:kvg="http://kanjivg.tagaini.net"></path><circle class="stroke_order_diagram--path_start" cx="62.22" cy="64.98" r="4" transform="matrix(1,0,0,1,1196,-4)"></circle><line class="stroke_order_diagram--guide_line" x1="1350" x2="1350" y1="1" y2="99"></line><line class="stroke_order_diagram--bounding_box" x1="1399" x2="1399" y1="1" y2="99"></line><path class="stroke_order_diagram--existing_path" d="M23.38,14.62c2.69,2.17,5.58,5.42,7.89,9.21" id="Ske27m3xs48" kvg:type="㇔" transform="matrix(1,0,0,1,1296,-4)" xmlns:kvg="http://kanjivg.tagaini.net"></path><path class="stroke_order_diagram--existing_path" d="M15.35,34.65c1.52,0.48,3.49,0.55,4.99,0.19c4.53-1.08,14.53-5.08,18.03-6.35c2.18-0.79,3.82,0.68,2.57,2.94C33.63,44.69,22.5,58.42,11.75,68.49" id="Ske27m3xs49" kvg:type="㇇" transform="matrix(1,0,0,1,1296,-4)" xmlns:kvg="http://kanjivg.tagaini.net"></path><path class="stroke_order_diagram--existing_path" d="M29.21,51.67c0.68,0.68,1.05,2,1.05,3.83c0,9.24,0.03,24.47,0.04,34.5c0,2.45,0,4.58,0,6.25" id="Ske27m3xs4a" kvg:type="㇑" transform="matrix(1,0,0,1,1296,-4)" xmlns:kvg="http://kanjivg.tagaini.net"></path><path class="stroke_order_diagram--existing_path" d="M42.85,44.85c0.18,0.83-0.15,1.56-0.5,2.17c-1.05,1.83-4.05,5.84-6.16,8.01" id="Ske27m3xs4b" kvg:type="㇒" transform="matrix(1,0,0,1,1296,-4)" xmlns:kvg="http://kanjivg.tagaini.net"></path><path class="stroke_order_diagram--existing_path" d="M33.12,56.38c3.23,2.16,6.68,5.39,9.45,9.17" id="Ske27m3xs4c" kvg:type="㇔" transform="matrix(1,0,0,1,1296,-4)" xmlns:kvg="http://kanjivg.tagaini.net"></path><path class="stroke_order_diagram--existing_path" d="M59.61,12.25c0.03,0.49,0.12,1.41-0.06,1.97c-2.22,6.91-5.29,12.28-11.04,19.08" id="Ske27m3xs4d" kvg:type="㇒" transform="matrix(1,0,0,1,1296,-4)" xmlns:kvg="http://kanjivg.tagaini.net"></path><path class="stroke_order_diagram--existing_path" d="M59,23.97c0.88,0.28,1.94,0.1,2.63,0.03c3.75-0.41,14.42-2.27,21.9-3.34c1.87-0.27,3.86-0.34,5.75-0.28" id="Ske27m3xs4e" kvg:type="㇐" transform="matrix(1,0,0,1,1296,-4)" xmlns:kvg="http://kanjivg.tagaini.net"></path><path class="stroke_order_diagram--existing_path" d="M54.52,32.4c0.73,0.73,1.23,1.72,1.42,2.86c0.51,3.18,1.11,11.47,1.69,16.01c0.23,1.81,0.4,3.06,0.43,3.24" id="Ske27m3xs4f" kvg:type="㇑" transform="matrix(1,0,0,1,1296,-4)" xmlns:kvg="http://kanjivg.tagaini.net"></path><path class="stroke_order_diagram--existing_path" d="M56.69,33.99c3.56-0.65,19.46-3.35,24.67-4.07c2.43-0.34,4.29,0.83,3.98,3.47c-0.3,2.62-0.99,9.87-1.7,14.85c-0.4,2.84-0.7,4.97-0.7,5.15" id="Ske27m3xs4g" kvg:type="㇕a" transform="matrix(1,0,0,1,1296,-4)" xmlns:kvg="http://kanjivg.tagaini.net"></path><path class="stroke_order_diagram--existing_path" d="M57.83,43.31c6.92-1.06,19.67-2.31,25.72-2.9" id="Ske27m3xs4h" kvg:type="㇐a" transform="matrix(1,0,0,1,1296,-4)" xmlns:kvg="http://kanjivg.tagaini.net"></path><path class="stroke_order_diagram--existing_path" d="M58.94,53.26c7.56-0.76,15.93-1.76,23.1-2.22" id="Ske27m3xs4i" kvg:type="㇐a" transform="matrix(1,0,0,1,1296,-4)" xmlns:kvg="http://kanjivg.tagaini.net"></path><path class="stroke_order_diagram--existing_path" d="M60.08,59.25c0.09,1.08,0.08,2.09-0.44,3.05c-2.27,4.2-7.27,11.82-14.51,17.62" id="Ske27m3xs4j" kvg:type="㇒" transform="matrix(1,0,0,1,1296,-4)" xmlns:kvg="http://kanjivg.tagaini.net"></path><path class="stroke_order_diagram--existing_path" d="M62.22,64.98c0.25,0.03,1.84,0,2.57-0.08c2.39-0.26,10.07-2.48,13.48-3.28c2.34-0.55,3.12,1.18,2.41,2.63C76.75,72.25,60.12,90.88,45.5,96" id="Ske27m3xs4k" kvg:type="㇇" transform="matrix(1,0,0,1,1296,-4)" xmlns:kvg="http://kanjivg.tagaini.net"></path><path class="stroke_order_diagram--current_path" d="M57.9,71.06c3.64,3.21,18.16,13.98,26.33,19.71c2.64,1.85,5.39,3.22,8.26,4.72" id="kvg:08907-s14" kvg:type="㇏" transform="matrix(1,0,0,1,1296,-4)" xmlns:kvg="http://kanjivg.tagaini.net"></path><path class="stroke_order_diagram--current_path" d="M57.9,71.06c3.64,3.21,18.16,13.98,26.33,19.71c2.64,1.85,5.39,3.22,8.26,4.72" id="Ske27m3xs4m" kvg:type="㇏" transform="matrix(1,0,0,1,1296,-4)" xmlns:kvg="http://kanjivg.tagaini.net"></path><circle class="stroke_order_diagram--path_start" cx="57.9" cy="71.06" r="4" transform="matrix(1,0,0,1,1296,-4)"></circle></svg>