<svg class="stroke_order_diagram--svg_container_for_51866297d5dda796580009f5" style="height: 100px; width: 1500px;" viewbox="0 0 1500 100"><desc>Created with Snap</desc><defs></defs><line class="stroke_order_diagram--bounding_box" x1="1" x2="1499" y1="1" y2="1"></line><line class="stroke_order_diagram--bounding_box" x1="1" x2="1" y1="1" y2="99"></line><line class="stroke_order_diagram--bounding_box" x1="1" x2="1499" y1="99" y2="99"></line><line class="stroke_order_diagram--guide_line" x1="0" x2="1500" y1="50" y2="50"></line><line class="stroke_order_diagram--guide_line" x1="50" x2="50" y1="1" y2="99"></line><line class="stroke_order_diagram--bounding_box" x1="99" x2="99" y1="1" y2="99"></line><path class="stroke_order_diagram--current_path" d="M52.71,8.5C53.85,9.65,54,11,54,12.21c0,2.17,0,4.1,0,6.42" id="kvg:08912-s1" kvg:type="㇑a" transform="matrix(1,0,0,1,-4,-4)" xmlns:kvg="http://kanjivg.tagaini.net"></path><path class="stroke_order_diagram--current_path" d="M52.71,8.5C53.85,9.65,54,11,54,12.21c0,2.17,0,4.1,0,6.42" id="Ske28faqwo" kvg:type="㇑a" transform="matrix(1,0,0,1,-4,-4)" xmlns:kvg="http://kanjivg.tagaini.net"></path><circle class="stroke_order_diagram--path_start" cx="52.71" cy="8.5" r="4" transform="matrix(1,0,0,1,-4,-4)"></circle><line class="stroke_order_diagram--guide_line" x1="150" x2="150" y1="1" y2="99"></line><line class="stroke_order_diagram--bounding_box" x1="199" x2="199" y1="1" y2="99"></line><path class="stroke_order_diagram--existing_path" d="M52.71,8.5C53.85,9.65,54,11,54,12.21c0,2.17,0,4.1,0,6.42" id="Ske28faqwr" kvg:type="㇑a" transform="matrix(1,0,0,1,96,-4)" xmlns:kvg="http://kanjivg.tagaini.net"></path><path class="stroke_order_diagram--current_path" d="M20.5,21.62c3.12,0.63,6.11,0.55,9.38,0.15c14.5-1.77,36.29-3.53,49.87-4.13c3.09-0.14,6.05-0.37,9,0.74" id="kvg:08912-s2" kvg:type="㇐" transform="matrix(1,0,0,1,96,-4)" xmlns:kvg="http://kanjivg.tagaini.net"></path><path class="stroke_order_diagram--current_path" d="M20.5,21.62c3.12,0.63,6.11,0.55,9.38,0.15c14.5-1.77,36.29-3.53,49.87-4.13c3.09-0.14,6.05-0.37,9,0.74" id="Ske28faqwt" kvg:type="㇐" transform="matrix(1,0,0,1,96,-4)" xmlns:kvg="http://kanjivg.tagaini.net"></path><circle class="stroke_order_diagram--path_start" cx="20.5" cy="21.62" r="4" transform="matrix(1,0,0,1,96,-4)"></circle><line class="stroke_order_diagram--guide_line" x1="250" x2="250" y1="1" y2="99"></line><line class="stroke_order_diagram--bounding_box" x1="299" x2="299" y1="1" y2="99"></line><path class="stroke_order_diagram--existing_path" d="M52.71,8.5C53.85,9.65,54,11,54,12.21c0,2.17,0,4.1,0,6.42" id="Ske28faqww" kvg:type="㇑a" transform="matrix(1,0,0,1,196,-4)" xmlns:kvg="http://kanjivg.tagaini.net"></path><path class="stroke_order_diagram--existing_path" d="M20.5,21.62c3.12,0.63,6.11,0.55,9.38,0.15c14.5-1.77,36.29-3.53,49.87-4.13c3.09-0.14,6.05-0.37,9,0.74" id="Ske28faqwx" kvg:type="㇐" transform="matrix(1,0,0,1,196,-4)" xmlns:kvg="http://kanjivg.tagaini.net"></path><path class="stroke_order_diagram--current_path" d="M36.49,27.54c0,1.08-0.41,2.23-1.18,3.32c-4.94,7.02-9.56,13.89-21.05,23.34" id="kvg:08912-s3" kvg:type="㇒" transform="matrix(1,0,0,1,196,-4)" xmlns:kvg="http://kanjivg.tagaini.net"></path><path class="stroke_order_diagram--current_path" d="M36.49,27.54c0,1.08-0.41,2.23-1.18,3.32c-4.94,7.02-9.56,13.89-21.05,23.34" id="Ske28faqwz" kvg:type="㇒" transform="matrix(1,0,0,1,196,-4)" xmlns:kvg="http://kanjivg.tagaini.net"></path><circle class="stroke_order_diagram--path_start" cx="36.49" cy="27.54" r="4" transform="matrix(1,0,0,1,196,-4)"></circle><line class="stroke_order_diagram--guide_line" x1="350" x2="350" y1="1" y2="99"></line><line class="stroke_order_diagram--bounding_box" x1="399" x2="399" y1="1" y2="99"></line><path class="stroke_order_diagram--existing_path" d="M52.71,8.5C53.85,9.65,54,11,54,12.21c0,2.17,0,4.1,0,6.42" id="Ske28faqw12" kvg:type="㇑a" transform="matrix(1,0,0,1,296,-4)" xmlns:kvg="http://kanjivg.tagaini.net"></path><path class="stroke_order_diagram--existing_path" d="M20.5,21.62c3.12,0.63,6.11,0.55,9.38,0.15c14.5-1.77,36.29-3.53,49.87-4.13c3.09-0.14,6.05-0.37,9,0.74" id="Ske28faqw13" kvg:type="㇐" transform="matrix(1,0,0,1,296,-4)" xmlns:kvg="http://kanjivg.tagaini.net"></path><path class="stroke_order_diagram--existing_path" d="M36.49,27.54c0,1.08-0.41,2.23-1.18,3.32c-4.94,7.02-9.56,13.89-21.05,23.34" id="Ske28faqw14" kvg:type="㇒" transform="matrix(1,0,0,1,296,-4)" xmlns:kvg="http://kanjivg.tagaini.net"></path><path class="stroke_order_diagram--current_path" d="M29.52,41.57c0.77,0.77,0.94,1.93,0.94,3.06c0,5.61,0,13.87,0,19c0,2.08,0,3.73,0,4.63" id="kvg:08912-s4" kvg:type="㇑" transform="matrix(1,0,0,1,296,-4)" xmlns:kvg="http://kanjivg.tagaini.net"></path><path class="stroke_order_diagram--current_path" d="M29.52,41.57c0.77,0.77,0.94,1.93,0.94,3.06c0,5.61,0,13.87,0,19c0,2.08,0,3.73,0,4.63" id="Ske28faqw16" kvg:type="㇑" transform="matrix(1,0,0,1,296,-4)" xmlns:kvg="http://kanjivg.tagaini.net"></path><circle class="stroke_order_diagram--path_start" cx="29.52" cy="41.57" r="4" transform="matrix(1,0,0,1,296,-4)"></circle><line class="stroke_order_diagram--guide_line" x1="450" x2="450" y1="1" y2="99"></line><line class="stroke_order_diagram--bounding_box" x1="499" x2="499" y1="1" y2="99"></line><path class="stroke_order_diagram--existing_path" d="M52.71,8.5C53.85,9.65,54,11,54,12.21c0,2.17,0,4.1,0,6.42" id="Ske28faqw19" kvg:type="㇑a" transform="matrix(1,0,0,1,396,-4)" xmlns:kvg="http://kanjivg.tagaini.net"></path><path class="stroke_order_diagram--existing_path" d="M20.5,21.62c3.12,0.63,6.11,0.55,9.38,0.15c14.5-1.77,36.29-3.53,49.87-4.13c3.09-0.14,6.05-0.37,9,0.74" id="Ske28faqw1a" kvg:type="㇐" transform="matrix(1,0,0,1,396,-4)" xmlns:kvg="http://kanjivg.tagaini.net"></path><path class="stroke_order_diagram--existing_path" d="M36.49,27.54c0,1.08-0.41,2.23-1.18,3.32c-4.94,7.02-9.56,13.89-21.05,23.34" id="Ske28faqw1b" kvg:type="㇒" transform="matrix(1,0,0,1,396,-4)" xmlns:kvg="http://kanjivg.tagaini.net"></path><path class="stroke_order_diagram--existing_path" d="M29.52,41.57c0.77,0.77,0.94,1.93,0.94,3.06c0,5.61,0,13.87,0,19c0,2.08,0,3.73,0,4.63" id="Ske28faqw1c" kvg:type="㇑" transform="matrix(1,0,0,1,396,-4)" xmlns:kvg="http://kanjivg.tagaini.net"></path><path class="stroke_order_diagram--current_path" d="M50.1,27.35c0.76,0.55,1.2,1.3,1.33,2.25c0.66,2,1.33,4.82,1.88,7.63c0.23,1.16,0.44,2.32,0.62,3.42" id="kvg:08912-s5" kvg:type="㇑" transform="matrix(1,0,0,1,396,-4)" xmlns:kvg="http://kanjivg.tagaini.net"></path><path class="stroke_order_diagram--current_path" d="M50.1,27.35c0.76,0.55,1.2,1.3,1.33,2.25c0.66,2,1.33,4.82,1.88,7.63c0.23,1.16,0.44,2.32,0.62,3.42" id="Ske28faqw1e" kvg:type="㇑" transform="matrix(1,0,0,1,396,-4)" xmlns:kvg="http://kanjivg.tagaini.net"></path><circle class="stroke_order_diagram--path_start" cx="50.1" cy="27.35" r="4" transform="matrix(1,0,0,1,396,-4)"></circle><line class="stroke_order_diagram--guide_line" x1="550" x2="550" y1="1" y2="99"></line><line class="stroke_order_diagram--bounding_box" x1="599" x2="599" y1="1" y2="99"></line><path class="stroke_order_diagram--existing_path" d="M52.71,8.5C53.85,9.65,54,11,54,12.21c0,2.17,0,4.1,0,6.42" id="Ske28faqw1h" kvg:type="㇑a" transform="matrix(1,0,0,1,496,-4)" xmlns:kvg="http://kanjivg.tagaini.net"></path><path class="stroke_order_diagram--existing_path" d="M20.5,21.62c3.12,0.63,6.11,0.55,9.38,0.15c14.5-1.77,36.29-3.53,49.87-4.13c3.09-0.14,6.05-0.37,9,0.74" id="Ske28faqw1i" kvg:type="㇐" transform="matrix(1,0,0,1,496,-4)" xmlns:kvg="http://kanjivg.tagaini.net"></path><path class="stroke_order_diagram--existing_path" d="M36.49,27.54c0,1.08-0.41,2.23-1.18,3.32c-4.94,7.02-9.56,13.89-21.05,23.34" id="Ske28faqw1j" kvg:type="㇒" transform="matrix(1,0,0,1,496,-4)" xmlns:kvg="http://kanjivg.tagaini.net"></path><path class="stroke_order_diagram--existing_path" d="M29.52,41.57c0.77,0.77,0.94,1.93,0.94,3.06c0,5.61,0,13.87,0,19c0,2.08,0,3.73,0,4.63" id="Ske28faqw1k" kvg:type="㇑" transform="matrix(1,0,0,1,496,-4)" xmlns:kvg="http://kanjivg.tagaini.net"></path><path class="stroke_order_diagram--existing_path" d="M50.1,27.35c0.76,0.55,1.2,1.3,1.33,2.25c0.66,2,1.33,4.82,1.88,7.63c0.23,1.16,0.44,2.32,0.62,3.42" id="Ske28faqw1l" kvg:type="㇑" transform="matrix(1,0,0,1,496,-4)" xmlns:kvg="http://kanjivg.tagaini.net"></path><path class="stroke_order_diagram--current_path" d="M52.11,28.5c7.85-1.01,19.74-2.56,24.78-3.11c2.65-0.29,3.74,0.41,2.86,3.11c-0.7,2.14-1.33,3.89-2.26,7.06" id="kvg:08912-s6" kvg:type="㇕b" transform="matrix(1,0,0,1,496,-4)" xmlns:kvg="http://kanjivg.tagaini.net"></path><path class="stroke_order_diagram--current_path" d="M52.11,28.5c7.85-1.01,19.74-2.56,24.78-3.11c2.65-0.29,3.74,0.41,2.86,3.11c-0.7,2.14-1.33,3.89-2.26,7.06" id="Ske28faqw1n" kvg:type="㇕b" transform="matrix(1,0,0,1,496,-4)" xmlns:kvg="http://kanjivg.tagaini.net"></path><circle class="stroke_order_diagram--path_start" cx="52.11" cy="28.5" r="4" transform="matrix(1,0,0,1,496,-4)"></circle><line class="stroke_order_diagram--guide_line" x1="650" x2="650" y1="1" y2="99"></line><line class="stroke_order_diagram--bounding_box" x1="699" x2="699" y1="1" y2="99"></line><path class="stroke_order_diagram--existing_path" d="M52.71,8.5C53.85,9.65,54,11,54,12.21c0,2.17,0,4.1,0,6.42" id="Ske28faqw1q" kvg:type="㇑a" transform="matrix(1,0,0,1,596,-4)" xmlns:kvg="http://kanjivg.tagaini.net"></path><path class="stroke_order_diagram--existing_path" d="M20.5,21.62c3.12,0.63,6.11,0.55,9.38,0.15c14.5-1.77,36.29-3.53,49.87-4.13c3.09-0.14,6.05-0.37,9,0.74" id="Ske28faqw1r" kvg:type="㇐" transform="matrix(1,0,0,1,596,-4)" xmlns:kvg="http://kanjivg.tagaini.net"></path><path class="stroke_order_diagram--existing_path" d="M36.49,27.54c0,1.08-0.41,2.23-1.18,3.32c-4.94,7.02-9.56,13.89-21.05,23.34" id="Ske28faqw1s" kvg:type="㇒" transform="matrix(1,0,0,1,596,-4)" xmlns:kvg="http://kanjivg.tagaini.net"></path><path class="stroke_order_diagram--existing_path" d="M29.52,41.57c0.77,0.77,0.94,1.93,0.94,3.06c0,5.61,0,13.87,0,19c0,2.08,0,3.73,0,4.63" id="Ske28faqw1t" kvg:type="㇑" transform="matrix(1,0,0,1,596,-4)" xmlns:kvg="http://kanjivg.tagaini.net"></path><path class="stroke_order_diagram--existing_path" d="M50.1,27.35c0.76,0.55,1.2,1.3,1.33,2.25c0.66,2,1.33,4.82,1.88,7.63c0.23,1.16,0.44,2.32,0.62,3.42" id="Ske28faqw1u" kvg:type="㇑" transform="matrix(1,0,0,1,596,-4)" xmlns:kvg="http://kanjivg.tagaini.net"></path><path class="stroke_order_diagram--existing_path" d="M52.11,28.5c7.85-1.01,19.74-2.56,24.78-3.11c2.65-0.29,3.74,0.41,2.86,3.11c-0.7,2.14-1.33,3.89-2.26,7.06" id="Ske28faqw1v" kvg:type="㇕b" transform="matrix(1,0,0,1,596,-4)" xmlns:kvg="http://kanjivg.tagaini.net"></path><path class="stroke_order_diagram--current_path" d="M55.08,39.05c3.49-0.3,12.9-1.29,19.94-1.96c1.71-0.16,3.21-0.31,4.37-0.42" id="kvg:08912-s7" kvg:type="㇐b" transform="matrix(1,0,0,1,596,-4)" xmlns:kvg="http://kanjivg.tagaini.net"></path><path class="stroke_order_diagram--current_path" d="M55.08,39.05c3.49-0.3,12.9-1.29,19.94-1.96c1.71-0.16,3.21-0.31,4.37-0.42" id="Ske28faqw1x" kvg:type="㇐b" transform="matrix(1,0,0,1,596,-4)" xmlns:kvg="http://kanjivg.tagaini.net"></path><circle class="stroke_order_diagram--path_start" cx="55.08" cy="39.05" r="4" transform="matrix(1,0,0,1,596,-4)"></circle><line class="stroke_order_diagram--guide_line" x1="750" x2="750" y1="1" y2="99"></line><line class="stroke_order_diagram--bounding_box" x1="799" x2="799" y1="1" y2="99"></line><path class="stroke_order_diagram--existing_path" d="M52.71,8.5C53.85,9.65,54,11,54,12.21c0,2.17,0,4.1,0,6.42" id="Ske28faqw20" kvg:type="㇑a" transform="matrix(1,0,0,1,696,-4)" xmlns:kvg="http://kanjivg.tagaini.net"></path><path class="stroke_order_diagram--existing_path" d="M20.5,21.62c3.12,0.63,6.11,0.55,9.38,0.15c14.5-1.77,36.29-3.53,49.87-4.13c3.09-0.14,6.05-0.37,9,0.74" id="Ske28faqw21" kvg:type="㇐" transform="matrix(1,0,0,1,696,-4)" xmlns:kvg="http://kanjivg.tagaini.net"></path><path class="stroke_order_diagram--existing_path" d="M36.49,27.54c0,1.08-0.41,2.23-1.18,3.32c-4.94,7.02-9.56,13.89-21.05,23.34" id="Ske28faqw22" kvg:type="㇒" transform="matrix(1,0,0,1,696,-4)" xmlns:kvg="http://kanjivg.tagaini.net"></path><path class="stroke_order_diagram--existing_path" d="M29.52,41.57c0.77,0.77,0.94,1.93,0.94,3.06c0,5.61,0,13.87,0,19c0,2.08,0,3.73,0,4.63" id="Ske28faqw23" kvg:type="㇑" transform="matrix(1,0,0,1,696,-4)" xmlns:kvg="http://kanjivg.tagaini.net"></path><path class="stroke_order_diagram--existing_path" d="M50.1,27.35c0.76,0.55,1.2,1.3,1.33,2.25c0.66,2,1.33,4.82,1.88,7.63c0.23,1.16,0.44,2.32,0.62,3.42" id="Ske28faqw24" kvg:type="㇑" transform="matrix(1,0,0,1,696,-4)" xmlns:kvg="http://kanjivg.tagaini.net"></path><path class="stroke_order_diagram--existing_path" d="M52.11,28.5c7.85-1.01,19.74-2.56,24.78-3.11c2.65-0.29,3.74,0.41,2.86,3.11c-0.7,2.14-1.33,3.89-2.26,7.06" id="Ske28faqw25" kvg:type="㇕b" transform="matrix(1,0,0,1,696,-4)" xmlns:kvg="http://kanjivg.tagaini.net"></path><path class="stroke_order_diagram--existing_path" d="M55.08,39.05c3.49-0.3,12.9-1.29,19.94-1.96c1.71-0.16,3.21-0.31,4.37-0.42" id="Ske28faqw26" kvg:type="㇐b" transform="matrix(1,0,0,1,696,-4)" xmlns:kvg="http://kanjivg.tagaini.net"></path><path class="stroke_order_diagram--current_path" d="M43.24,46.81c2.01,0.56,4.24,0.63,6.4,0.48c7.62-0.52,24-1.83,33.74-2.53c2.31-0.17,4.53-0.42,6.83-0.02" id="kvg:08912-s8" kvg:type="㇐" transform="matrix(1,0,0,1,696,-4)" xmlns:kvg="http://kanjivg.tagaini.net"></path><path class="stroke_order_diagram--current_path" d="M43.24,46.81c2.01,0.56,4.24,0.63,6.4,0.48c7.62-0.52,24-1.83,33.74-2.53c2.31-0.17,4.53-0.42,6.83-0.02" id="Ske28faqw28" kvg:type="㇐" transform="matrix(1,0,0,1,696,-4)" xmlns:kvg="http://kanjivg.tagaini.net"></path><circle class="stroke_order_diagram--path_start" cx="43.24" cy="46.81" r="4" transform="matrix(1,0,0,1,696,-4)"></circle><line class="stroke_order_diagram--guide_line" x1="850" x2="850" y1="1" y2="99"></line><line class="stroke_order_diagram--bounding_box" x1="899" x2="899" y1="1" y2="99"></line><path class="stroke_order_diagram--existing_path" d="M52.71,8.5C53.85,9.65,54,11,54,12.21c0,2.17,0,4.1,0,6.42" id="Ske28faqw2b" kvg:type="㇑a" transform="matrix(1,0,0,1,796,-4)" xmlns:kvg="http://kanjivg.tagaini.net"></path><path class="stroke_order_diagram--existing_path" d="M20.5,21.62c3.12,0.63,6.11,0.55,9.38,0.15c14.5-1.77,36.29-3.53,49.87-4.13c3.09-0.14,6.05-0.37,9,0.74" id="Ske28faqw2c" kvg:type="㇐" transform="matrix(1,0,0,1,796,-4)" xmlns:kvg="http://kanjivg.tagaini.net"></path><path class="stroke_order_diagram--existing_path" d="M36.49,27.54c0,1.08-0.41,2.23-1.18,3.32c-4.94,7.02-9.56,13.89-21.05,23.34" id="Ske28faqw2d" kvg:type="㇒" transform="matrix(1,0,0,1,796,-4)" xmlns:kvg="http://kanjivg.tagaini.net"></path><path class="stroke_order_diagram--existing_path" d="M29.52,41.57c0.77,0.77,0.94,1.93,0.94,3.06c0,5.61,0,13.87,0,19c0,2.08,0,3.73,0,4.63" id="Ske28faqw2e" kvg:type="㇑" transform="matrix(1,0,0,1,796,-4)" xmlns:kvg="http://kanjivg.tagaini.net"></path><path class="stroke_order_diagram--existing_path" d="M50.1,27.35c0.76,0.55,1.2,1.3,1.33,2.25c0.66,2,1.33,4.82,1.88,7.63c0.23,1.16,0.44,2.32,0.62,3.42" id="Ske28faqw2f" kvg:type="㇑" transform="matrix(1,0,0,1,796,-4)" xmlns:kvg="http://kanjivg.tagaini.net"></path><path class="stroke_order_diagram--existing_path" d="M52.11,28.5c7.85-1.01,19.74-2.56,24.78-3.11c2.65-0.29,3.74,0.41,2.86,3.11c-0.7,2.14-1.33,3.89-2.26,7.06" id="Ske28faqw2g" kvg:type="㇕b" transform="matrix(1,0,0,1,796,-4)" xmlns:kvg="http://kanjivg.tagaini.net"></path><path class="stroke_order_diagram--existing_path" d="M55.08,39.05c3.49-0.3,12.9-1.29,19.94-1.96c1.71-0.16,3.21-0.31,4.37-0.42" id="Ske28faqw2h" kvg:type="㇐b" transform="matrix(1,0,0,1,796,-4)" xmlns:kvg="http://kanjivg.tagaini.net"></path><path class="stroke_order_diagram--existing_path" d="M43.24,46.81c2.01,0.56,4.24,0.63,6.4,0.48c7.62-0.52,24-1.83,33.74-2.53c2.31-0.17,4.53-0.42,6.83-0.02" id="Ske28faqw2i" kvg:type="㇐" transform="matrix(1,0,0,1,796,-4)" xmlns:kvg="http://kanjivg.tagaini.net"></path><path class="stroke_order_diagram--current_path" d="M65.76,40.73c0.81,0.81,1.12,2.02,1.12,3.33c0,2.14,0.06,11.08,0.07,16.81c0.01,2.61,0.01,4.56,0,4.88" id="kvg:08912-s9" kvg:type="㇑" transform="matrix(1,0,0,1,796,-4)" xmlns:kvg="http://kanjivg.tagaini.net"></path><path class="stroke_order_diagram--current_path" d="M65.76,40.73c0.81,0.81,1.12,2.02,1.12,3.33c0,2.14,0.06,11.08,0.07,16.81c0.01,2.61,0.01,4.56,0,4.88" id="Ske28faqw2k" kvg:type="㇑" transform="matrix(1,0,0,1,796,-4)" xmlns:kvg="http://kanjivg.tagaini.net"></path><circle class="stroke_order_diagram--path_start" cx="65.76" cy="40.73" r="4" transform="matrix(1,0,0,1,796,-4)"></circle><line class="stroke_order_diagram--guide_line" x1="950" x2="950" y1="1" y2="99"></line><line class="stroke_order_diagram--bounding_box" x1="999" x2="999" y1="1" y2="99"></line><path class="stroke_order_diagram--existing_path" d="M52.71,8.5C53.85,9.65,54,11,54,12.21c0,2.17,0,4.1,0,6.42" id="Ske28faqw2n" kvg:type="㇑a" transform="matrix(1,0,0,1,896,-4)" xmlns:kvg="http://kanjivg.tagaini.net"></path><path class="stroke_order_diagram--existing_path" d="M20.5,21.62c3.12,0.63,6.11,0.55,9.38,0.15c14.5-1.77,36.29-3.53,49.87-4.13c3.09-0.14,6.05-0.37,9,0.74" id="Ske28faqw2o" kvg:type="㇐" transform="matrix(1,0,0,1,896,-4)" xmlns:kvg="http://kanjivg.tagaini.net"></path><path class="stroke_order_diagram--existing_path" d="M36.49,27.54c0,1.08-0.41,2.23-1.18,3.32c-4.94,7.02-9.56,13.89-21.05,23.34" id="Ske28faqw2p" kvg:type="㇒" transform="matrix(1,0,0,1,896,-4)" xmlns:kvg="http://kanjivg.tagaini.net"></path><path class="stroke_order_diagram--existing_path" d="M29.52,41.57c0.77,0.77,0.94,1.93,0.94,3.06c0,5.61,0,13.87,0,19c0,2.08,0,3.73,0,4.63" id="Ske28faqw2q" kvg:type="㇑" transform="matrix(1,0,0,1,896,-4)" xmlns:kvg="http://kanjivg.tagaini.net"></path><path class="stroke_order_diagram--existing_path" d="M50.1,27.35c0.76,0.55,1.2,1.3,1.33,2.25c0.66,2,1.33,4.82,1.88,7.63c0.23,1.16,0.44,2.32,0.62,3.42" id="Ske28faqw2r" kvg:type="㇑" transform="matrix(1,0,0,1,896,-4)" xmlns:kvg="http://kanjivg.tagaini.net"></path><path class="stroke_order_diagram--existing_path" d="M52.11,28.5c7.85-1.01,19.74-2.56,24.78-3.11c2.65-0.29,3.74,0.41,2.86,3.11c-0.7,2.14-1.33,3.89-2.26,7.06" id="Ske28faqw2s" kvg:type="㇕b" transform="matrix(1,0,0,1,896,-4)" xmlns:kvg="http://kanjivg.tagaini.net"></path><path class="stroke_order_diagram--existing_path" d="M55.08,39.05c3.49-0.3,12.9-1.29,19.94-1.96c1.71-0.16,3.21-0.31,4.37-0.42" id="Ske28faqw2t" kvg:type="㇐b" transform="matrix(1,0,0,1,896,-4)" xmlns:kvg="http://kanjivg.tagaini.net"></path><path class="stroke_order_diagram--existing_path" d="M43.24,46.81c2.01,0.56,4.24,0.63,6.4,0.48c7.62-0.52,24-1.83,33.74-2.53c2.31-0.17,4.53-0.42,6.83-0.02" id="Ske28faqw2u" kvg:type="㇐" transform="matrix(1,0,0,1,896,-4)" xmlns:kvg="http://kanjivg.tagaini.net"></path><path class="stroke_order_diagram--existing_path" d="M65.76,40.73c0.81,0.81,1.12,2.02,1.12,3.33c0,2.14,0.06,11.08,0.07,16.81c0.01,2.61,0.01,4.56,0,4.88" id="Ske28faqw2v" kvg:type="㇑" transform="matrix(1,0,0,1,896,-4)" xmlns:kvg="http://kanjivg.tagaini.net"></path><path class="stroke_order_diagram--current_path" d="M56.01,52.89c0,0.73-0.36,1.34-0.88,1.85c-1.85,2.36-7.25,6.32-14.33,8.85" id="kvg:08912-s10" kvg:type="㇒" transform="matrix(1,0,0,1,896,-4)" xmlns:kvg="http://kanjivg.tagaini.net"></path><path class="stroke_order_diagram--current_path" d="M56.01,52.89c0,0.73-0.36,1.34-0.88,1.85c-1.85,2.36-7.25,6.32-14.33,8.85" id="Ske28faqw2x" kvg:type="㇒" transform="matrix(1,0,0,1,896,-4)" xmlns:kvg="http://kanjivg.tagaini.net"></path><circle class="stroke_order_diagram--path_start" cx="56.01" cy="52.89" r="4" transform="matrix(1,0,0,1,896,-4)"></circle><line class="stroke_order_diagram--guide_line" x1="1050" x2="1050" y1="1" y2="99"></line><line class="stroke_order_diagram--bounding_box" x1="1099" x2="1099" y1="1" y2="99"></line><path class="stroke_order_diagram--existing_path" d="M52.71,8.5C53.85,9.65,54,11,54,12.21c0,2.17,0,4.1,0,6.42" id="Ske28faqw30" kvg:type="㇑a" transform="matrix(1,0,0,1,996,-4)" xmlns:kvg="http://kanjivg.tagaini.net"></path><path class="stroke_order_diagram--existing_path" d="M20.5,21.62c3.12,0.63,6.11,0.55,9.38,0.15c14.5-1.77,36.29-3.53,49.87-4.13c3.09-0.14,6.05-0.37,9,0.74" id="Ske28faqw31" kvg:type="㇐" transform="matrix(1,0,0,1,996,-4)" xmlns:kvg="http://kanjivg.tagaini.net"></path><path class="stroke_order_diagram--existing_path" d="M36.49,27.54c0,1.08-0.41,2.23-1.18,3.32c-4.94,7.02-9.56,13.89-21.05,23.34" id="Ske28faqw32" kvg:type="㇒" transform="matrix(1,0,0,1,996,-4)" xmlns:kvg="http://kanjivg.tagaini.net"></path><path class="stroke_order_diagram--existing_path" d="M29.52,41.57c0.77,0.77,0.94,1.93,0.94,3.06c0,5.61,0,13.87,0,19c0,2.08,0,3.73,0,4.63" id="Ske28faqw33" kvg:type="㇑" transform="matrix(1,0,0,1,996,-4)" xmlns:kvg="http://kanjivg.tagaini.net"></path><path class="stroke_order_diagram--existing_path" d="M50.1,27.35c0.76,0.55,1.2,1.3,1.33,2.25c0.66,2,1.33,4.82,1.88,7.63c0.23,1.16,0.44,2.32,0.62,3.42" id="Ske28faqw34" kvg:type="㇑" transform="matrix(1,0,0,1,996,-4)" xmlns:kvg="http://kanjivg.tagaini.net"></path><path class="stroke_order_diagram--existing_path" d="M52.11,28.5c7.85-1.01,19.74-2.56,24.78-3.11c2.65-0.29,3.74,0.41,2.86,3.11c-0.7,2.14-1.33,3.89-2.26,7.06" id="Ske28faqw35" kvg:type="㇕b" transform="matrix(1,0,0,1,996,-4)" xmlns:kvg="http://kanjivg.tagaini.net"></path><path class="stroke_order_diagram--existing_path" d="M55.08,39.05c3.49-0.3,12.9-1.29,19.94-1.96c1.71-0.16,3.21-0.31,4.37-0.42" id="Ske28faqw36" kvg:type="㇐b" transform="matrix(1,0,0,1,996,-4)" xmlns:kvg="http://kanjivg.tagaini.net"></path><path class="stroke_order_diagram--existing_path" d="M43.24,46.81c2.01,0.56,4.24,0.63,6.4,0.48c7.62-0.52,24-1.83,33.74-2.53c2.31-0.17,4.53-0.42,6.83-0.02" id="Ske28faqw37" kvg:type="㇐" transform="matrix(1,0,0,1,996,-4)" xmlns:kvg="http://kanjivg.tagaini.net"></path><path class="stroke_order_diagram--existing_path" d="M65.76,40.73c0.81,0.81,1.12,2.02,1.12,3.33c0,2.14,0.06,11.08,0.07,16.81c0.01,2.61,0.01,4.56,0,4.88" id="Ske28faqw38" kvg:type="㇑" transform="matrix(1,0,0,1,996,-4)" xmlns:kvg="http://kanjivg.tagaini.net"></path><path class="stroke_order_diagram--existing_path" d="M56.01,52.89c0,0.73-0.36,1.34-0.88,1.85c-1.85,2.36-7.25,6.32-14.33,8.85" id="Ske28faqw39" kvg:type="㇒" transform="matrix(1,0,0,1,996,-4)" xmlns:kvg="http://kanjivg.tagaini.net"></path><path class="stroke_order_diagram--current_path" d="M77.02,51.46c4.16,1.68,10.75,6.9,11.79,9.51" id="kvg:08912-s11" kvg:type="㇔/㇏" transform="matrix(1,0,0,1,996,-4)" xmlns:kvg="http://kanjivg.tagaini.net"></path><path class="stroke_order_diagram--current_path" d="M77.02,51.46c4.16,1.68,10.75,6.9,11.79,9.51" id="Ske28faqw3b" kvg:type="㇔/㇏" transform="matrix(1,0,0,1,996,-4)" xmlns:kvg="http://kanjivg.tagaini.net"></path><circle class="stroke_order_diagram--path_start" cx="77.02" cy="51.46" r="4" transform="matrix(1,0,0,1,996,-4)"></circle><line class="stroke_order_diagram--guide_line" x1="1150" x2="1150" y1="1" y2="99"></line><line class="stroke_order_diagram--bounding_box" x1="1199" x2="1199" y1="1" y2="99"></line><path class="stroke_order_diagram--existing_path" d="M52.71,8.5C53.85,9.65,54,11,54,12.21c0,2.17,0,4.1,0,6.42" id="Ske28faqw3e" kvg:type="㇑a" transform="matrix(1,0,0,1,1096,-4)" xmlns:kvg="http://kanjivg.tagaini.net"></path><path class="stroke_order_diagram--existing_path" d="M20.5,21.62c3.12,0.63,6.11,0.55,9.38,0.15c14.5-1.77,36.29-3.53,49.87-4.13c3.09-0.14,6.05-0.37,9,0.74" id="Ske28faqw3f" kvg:type="㇐" transform="matrix(1,0,0,1,1096,-4)" xmlns:kvg="http://kanjivg.tagaini.net"></path><path class="stroke_order_diagram--existing_path" d="M36.49,27.54c0,1.08-0.41,2.23-1.18,3.32c-4.94,7.02-9.56,13.89-21.05,23.34" id="Ske28faqw3g" kvg:type="㇒" transform="matrix(1,0,0,1,1096,-4)" xmlns:kvg="http://kanjivg.tagaini.net"></path><path class="stroke_order_diagram--existing_path" d="M29.52,41.57c0.77,0.77,0.94,1.93,0.94,3.06c0,5.61,0,13.87,0,19c0,2.08,0,3.73,0,4.63" id="Ske28faqw3h" kvg:type="㇑" transform="matrix(1,0,0,1,1096,-4)" xmlns:kvg="http://kanjivg.tagaini.net"></path><path class="stroke_order_diagram--existing_path" d="M50.1,27.35c0.76,0.55,1.2,1.3,1.33,2.25c0.66,2,1.33,4.82,1.88,7.63c0.23,1.16,0.44,2.32,0.62,3.42" id="Ske28faqw3i" kvg:type="㇑" transform="matrix(1,0,0,1,1096,-4)" xmlns:kvg="http://kanjivg.tagaini.net"></path><path class="stroke_order_diagram--existing_path" d="M52.11,28.5c7.85-1.01,19.74-2.56,24.78-3.11c2.65-0.29,3.74,0.41,2.86,3.11c-0.7,2.14-1.33,3.89-2.26,7.06" id="Ske28faqw3j" kvg:type="㇕b" transform="matrix(1,0,0,1,1096,-4)" xmlns:kvg="http://kanjivg.tagaini.net"></path><path class="stroke_order_diagram--existing_path" d="M55.08,39.05c3.49-0.3,12.9-1.29,19.94-1.96c1.71-0.16,3.21-0.31,4.37-0.42" id="Ske28faqw3k" kvg:type="㇐b" transform="matrix(1,0,0,1,1096,-4)" xmlns:kvg="http://kanjivg.tagaini.net"></path><path class="stroke_order_diagram--existing_path" d="M43.24,46.81c2.01,0.56,4.24,0.63,6.4,0.48c7.62-0.52,24-1.83,33.74-2.53c2.31-0.17,4.53-0.42,6.83-0.02" id="Ske28faqw3l" kvg:type="㇐" transform="matrix(1,0,0,1,1096,-4)" xmlns:kvg="http://kanjivg.tagaini.net"></path><path class="stroke_order_diagram--existing_path" d="M65.76,40.73c0.81,0.81,1.12,2.02,1.12,3.33c0,2.14,0.06,11.08,0.07,16.81c0.01,2.61,0.01,4.56,0,4.88" id="Ske28faqw3m" kvg:type="㇑" transform="matrix(1,0,0,1,1096,-4)" xmlns:kvg="http://kanjivg.tagaini.net"></path><path class="stroke_order_diagram--existing_path" d="M56.01,52.89c0,0.73-0.36,1.34-0.88,1.85c-1.85,2.36-7.25,6.32-14.33,8.85" id="Ske28faqw3n" kvg:type="㇒" transform="matrix(1,0,0,1,1096,-4)" xmlns:kvg="http://kanjivg.tagaini.net"></path><path class="stroke_order_diagram--existing_path" d="M77.02,51.46c4.16,1.68,10.75,6.9,11.79,9.51" id="Ske28faqw3o" kvg:type="㇔/㇏" transform="matrix(1,0,0,1,1096,-4)" xmlns:kvg="http://kanjivg.tagaini.net"></path><path class="stroke_order_diagram--current_path" d="M52.44,65.63c0,1.12-0.77,2.32-1.58,3.1c-6.08,5.93-16.57,13.72-37.05,23.22" id="kvg:08912-s12" kvg:type="㇒" transform="matrix(1,0,0,1,1096,-4)" xmlns:kvg="http://kanjivg.tagaini.net"></path><path class="stroke_order_diagram--current_path" d="M52.44,65.63c0,1.12-0.77,2.32-1.58,3.1c-6.08,5.93-16.57,13.72-37.05,23.22" id="Ske28faqw3q" kvg:type="㇒" transform="matrix(1,0,0,1,1096,-4)" xmlns:kvg="http://kanjivg.tagaini.net"></path><circle class="stroke_order_diagram--path_start" cx="52.44" cy="65.63" r="4" transform="matrix(1,0,0,1,1096,-4)"></circle><line class="stroke_order_diagram--guide_line" x1="1250" x2="1250" y1="1" y2="99"></line><line class="stroke_order_diagram--bounding_box" x1="1299" x2="1299" y1="1" y2="99"></line><path class="stroke_order_diagram--existing_path" d="M52.71,8.5C53.85,9.65,54,11,54,12.21c0,2.17,0,4.1,0,6.42" id="Ske28faqw3t" kvg:type="㇑a" transform="matrix(1,0,0,1,1196,-4)" xmlns:kvg="http://kanjivg.tagaini.net"></path><path class="stroke_order_diagram--existing_path" d="M20.5,21.62c3.12,0.63,6.11,0.55,9.38,0.15c14.5-1.77,36.29-3.53,49.87-4.13c3.09-0.14,6.05-0.37,9,0.74" id="Ske28faqw3u" kvg:type="㇐" transform="matrix(1,0,0,1,1196,-4)" xmlns:kvg="http://kanjivg.tagaini.net"></path><path class="stroke_order_diagram--existing_path" d="M36.49,27.54c0,1.08-0.41,2.23-1.18,3.32c-4.94,7.02-9.56,13.89-21.05,23.34" id="Ske28faqw3v" kvg:type="㇒" transform="matrix(1,0,0,1,1196,-4)" xmlns:kvg="http://kanjivg.tagaini.net"></path><path class="stroke_order_diagram--existing_path" d="M29.52,41.57c0.77,0.77,0.94,1.93,0.94,3.06c0,5.61,0,13.87,0,19c0,2.08,0,3.73,0,4.63" id="Ske28faqw3w" kvg:type="㇑" transform="matrix(1,0,0,1,1196,-4)" xmlns:kvg="http://kanjivg.tagaini.net"></path><path class="stroke_order_diagram--existing_path" d="M50.1,27.35c0.76,0.55,1.2,1.3,1.33,2.25c0.66,2,1.33,4.82,1.88,7.63c0.23,1.16,0.44,2.32,0.62,3.42" id="Ske28faqw3x" kvg:type="㇑" transform="matrix(1,0,0,1,1196,-4)" xmlns:kvg="http://kanjivg.tagaini.net"></path><path class="stroke_order_diagram--existing_path" d="M52.11,28.5c7.85-1.01,19.74-2.56,24.78-3.11c2.65-0.29,3.74,0.41,2.86,3.11c-0.7,2.14-1.33,3.89-2.26,7.06" id="Ske28faqw3y" kvg:type="㇕b" transform="matrix(1,0,0,1,1196,-4)" xmlns:kvg="http://kanjivg.tagaini.net"></path><path class="stroke_order_diagram--existing_path" d="M55.08,39.05c3.49-0.3,12.9-1.29,19.94-1.96c1.71-0.16,3.21-0.31,4.37-0.42" id="Ske28faqw3z" kvg:type="㇐b" transform="matrix(1,0,0,1,1196,-4)" xmlns:kvg="http://kanjivg.tagaini.net"></path><path class="stroke_order_diagram--existing_path" d="M43.24,46.81c2.01,0.56,4.24,0.63,6.4,0.48c7.62-0.52,24-1.83,33.74-2.53c2.31-0.17,4.53-0.42,6.83-0.02" id="Ske28faqw40" kvg:type="㇐" transform="matrix(1,0,0,1,1196,-4)" xmlns:kvg="http://kanjivg.tagaini.net"></path><path class="stroke_order_diagram--existing_path" d="M65.76,40.73c0.81,0.81,1.12,2.02,1.12,3.33c0,2.14,0.06,11.08,0.07,16.81c0.01,2.61,0.01,4.56,0,4.88" id="Ske28faqw41" kvg:type="㇑" transform="matrix(1,0,0,1,1196,-4)" xmlns:kvg="http://kanjivg.tagaini.net"></path><path class="stroke_order_diagram--existing_path" d="M56.01,52.89c0,0.73-0.36,1.34-0.88,1.85c-1.85,2.36-7.25,6.32-14.33,8.85" id="Ske28faqw42" kvg:type="㇒" transform="matrix(1,0,0,1,1196,-4)" xmlns:kvg="http://kanjivg.tagaini.net"></path><path class="stroke_order_diagram--existing_path" d="M77.02,51.46c4.16,1.68,10.75,6.9,11.79,9.51" id="Ske28faqw43" kvg:type="㇔/㇏" transform="matrix(1,0,0,1,1196,-4)" xmlns:kvg="http://kanjivg.tagaini.net"></path><path class="stroke_order_diagram--existing_path" d="M52.44,65.63c0,1.12-0.77,2.32-1.58,3.1c-6.08,5.93-16.57,13.72-37.05,23.22" id="Ske28faqw44" kvg:type="㇒" transform="matrix(1,0,0,1,1196,-4)" xmlns:kvg="http://kanjivg.tagaini.net"></path><path class="stroke_order_diagram--current_path" d="M38.75,81.74c0.88,0.88,1,1.89,1,3.25c0,2.76,0,7.33,0,10.51c0,2,1.11,3.06,2.61,1.56s14.6-10.09,16.6-11.59" id="kvg:08912-s13" kvg:type="㇙" transform="matrix(1,0,0,1,1196,-4)" xmlns:kvg="http://kanjivg.tagaini.net"></path><path class="stroke_order_diagram--current_path" d="M38.75,81.74c0.88,0.88,1,1.89,1,3.25c0,2.76,0,7.33,0,10.51c0,2,1.11,3.06,2.61,1.56s14.6-10.09,16.6-11.59" id="Ske28faqw46" kvg:type="㇙" transform="matrix(1,0,0,1,1196,-4)" xmlns:kvg="http://kanjivg.tagaini.net"></path><circle class="stroke_order_diagram--path_start" cx="38.75" cy="81.74" r="4" transform="matrix(1,0,0,1,1196,-4)"></circle><line class="stroke_order_diagram--guide_line" x1="1350" x2="1350" y1="1" y2="99"></line><line class="stroke_order_diagram--bounding_box" x1="1399" x2="1399" y1="1" y2="99"></line><path class="stroke_order_diagram--existing_path" d="M52.71,8.5C53.85,9.65,54,11,54,12.21c0,2.17,0,4.1,0,6.42" id="Ske28faqw49" kvg:type="㇑a" transform="matrix(1,0,0,1,1296,-4)" xmlns:kvg="http://kanjivg.tagaini.net"></path><path class="stroke_order_diagram--existing_path" d="M20.5,21.62c3.12,0.63,6.11,0.55,9.38,0.15c14.5-1.77,36.29-3.53,49.87-4.13c3.09-0.14,6.05-0.37,9,0.74" id="Ske28faqw4a" kvg:type="㇐" transform="matrix(1,0,0,1,1296,-4)" xmlns:kvg="http://kanjivg.tagaini.net"></path><path class="stroke_order_diagram--existing_path" d="M36.49,27.54c0,1.08-0.41,2.23-1.18,3.32c-4.94,7.02-9.56,13.89-21.05,23.34" id="Ske28faqw4b" kvg:type="㇒" transform="matrix(1,0,0,1,1296,-4)" xmlns:kvg="http://kanjivg.tagaini.net"></path><path class="stroke_order_diagram--existing_path" d="M29.52,41.57c0.77,0.77,0.94,1.93,0.94,3.06c0,5.61,0,13.87,0,19c0,2.08,0,3.73,0,4.63" id="Ske28faqw4c" kvg:type="㇑" transform="matrix(1,0,0,1,1296,-4)" xmlns:kvg="http://kanjivg.tagaini.net"></path><path class="stroke_order_diagram--existing_path" d="M50.1,27.35c0.76,0.55,1.2,1.3,1.33,2.25c0.66,2,1.33,4.82,1.88,7.63c0.23,1.16,0.44,2.32,0.62,3.42" id="Ske28faqw4d" kvg:type="㇑" transform="matrix(1,0,0,1,1296,-4)" xmlns:kvg="http://kanjivg.tagaini.net"></path><path class="stroke_order_diagram--existing_path" d="M52.11,28.5c7.85-1.01,19.74-2.56,24.78-3.11c2.65-0.29,3.74,0.41,2.86,3.11c-0.7,2.14-1.33,3.89-2.26,7.06" id="Ske28faqw4e" kvg:type="㇕b" transform="matrix(1,0,0,1,1296,-4)" xmlns:kvg="http://kanjivg.tagaini.net"></path><path class="stroke_order_diagram--existing_path" d="M55.08,39.05c3.49-0.3,12.9-1.29,19.94-1.96c1.71-0.16,3.21-0.31,4.37-0.42" id="Ske28faqw4f" kvg:type="㇐b" transform="matrix(1,0,0,1,1296,-4)" xmlns:kvg="http://kanjivg.tagaini.net"></path><path class="stroke_order_diagram--existing_path" d="M43.24,46.81c2.01,0.56,4.24,0.63,6.4,0.48c7.62-0.52,24-1.83,33.74-2.53c2.31-0.17,4.53-0.42,6.83-0.02" id="Ske28faqw4g" kvg:type="㇐" transform="matrix(1,0,0,1,1296,-4)" xmlns:kvg="http://kanjivg.tagaini.net"></path><path class="stroke_order_diagram--existing_path" d="M65.76,40.73c0.81,0.81,1.12,2.02,1.12,3.33c0,2.14,0.06,11.08,0.07,16.81c0.01,2.61,0.01,4.56,0,4.88" id="Ske28faqw4h" kvg:type="㇑" transform="matrix(1,0,0,1,1296,-4)" xmlns:kvg="http://kanjivg.tagaini.net"></path><path class="stroke_order_diagram--existing_path" d="M56.01,52.89c0,0.73-0.36,1.34-0.88,1.85c-1.85,2.36-7.25,6.32-14.33,8.85" id="Ske28faqw4i" kvg:type="㇒" transform="matrix(1,0,0,1,1296,-4)" xmlns:kvg="http://kanjivg.tagaini.net"></path><path class="stroke_order_diagram--existing_path" d="M77.02,51.46c4.16,1.68,10.75,6.9,11.79,9.51" id="Ske28faqw4j" kvg:type="㇔/㇏" transform="matrix(1,0,0,1,1296,-4)" xmlns:kvg="http://kanjivg.tagaini.net"></path><path class="stroke_order_diagram--existing_path" d="M52.44,65.63c0,1.12-0.77,2.32-1.58,3.1c-6.08,5.93-16.57,13.72-37.05,23.22" id="Ske28faqw4k" kvg:type="㇒" transform="matrix(1,0,0,1,1296,-4)" xmlns:kvg="http://kanjivg.tagaini.net"></path><path class="stroke_order_diagram--existing_path" d="M38.75,81.74c0.88,0.88,1,1.89,1,3.25c0,2.76,0,7.33,0,10.51c0,2,1.11,3.06,2.61,1.56s14.6-10.09,16.6-11.59" id="Ske28faqw4l" kvg:type="㇙" transform="matrix(1,0,0,1,1296,-4)" xmlns:kvg="http://kanjivg.tagaini.net"></path><path class="stroke_order_diagram--current_path" d="M80.64,68.38c0.09,0.85-0.16,1.66-0.72,2.28c-2.2,2.44-5.68,5.4-10.1,8.55" id="kvg:08912-s14" kvg:type="㇒" transform="matrix(1,0,0,1,1296,-4)" xmlns:kvg="http://kanjivg.tagaini.net"></path><path class="stroke_order_diagram--current_path" d="M80.64,68.38c0.09,0.85-0.16,1.66-0.72,2.28c-2.2,2.44-5.68,5.4-10.1,8.55" id="Ske28faqw4n" kvg:type="㇒" transform="matrix(1,0,0,1,1296,-4)" xmlns:kvg="http://kanjivg.tagaini.net"></path><circle class="stroke_order_diagram--path_start" cx="80.64" cy="68.38" r="4" transform="matrix(1,0,0,1,1296,-4)"></circle><line class="stroke_order_diagram--guide_line" x1="1450" x2="1450" y1="1" y2="99"></line><line class="stroke_order_diagram--bounding_box" x1="1499" x2="1499" y1="1" y2="99"></line><path class="stroke_order_diagram--existing_path" d="M52.71,8.5C53.85,9.65,54,11,54,12.21c0,2.17,0,4.1,0,6.42" id="Ske28faqw4q" kvg:type="㇑a" transform="matrix(1,0,0,1,1396,-4)" xmlns:kvg="http://kanjivg.tagaini.net"></path><path class="stroke_order_diagram--existing_path" d="M20.5,21.62c3.12,0.63,6.11,0.55,9.38,0.15c14.5-1.77,36.29-3.53,49.87-4.13c3.09-0.14,6.05-0.37,9,0.74" id="Ske28faqw4r" kvg:type="㇐" transform="matrix(1,0,0,1,1396,-4)" xmlns:kvg="http://kanjivg.tagaini.net"></path><path class="stroke_order_diagram--existing_path" d="M36.49,27.54c0,1.08-0.41,2.23-1.18,3.32c-4.94,7.02-9.56,13.89-21.05,23.34" id="Ske28faqw4s" kvg:type="㇒" transform="matrix(1,0,0,1,1396,-4)" xmlns:kvg="http://kanjivg.tagaini.net"></path><path class="stroke_order_diagram--existing_path" d="M29.52,41.57c0.77,0.77,0.94,1.93,0.94,3.06c0,5.61,0,13.87,0,19c0,2.08,0,3.73,0,4.63" id="Ske28faqw4t" kvg:type="㇑" transform="matrix(1,0,0,1,1396,-4)" xmlns:kvg="http://kanjivg.tagaini.net"></path><path class="stroke_order_diagram--existing_path" d="M50.1,27.35c0.76,0.55,1.2,1.3,1.33,2.25c0.66,2,1.33,4.82,1.88,7.63c0.23,1.16,0.44,2.32,0.62,3.42" id="Ske28faqw4u" kvg:type="㇑" transform="matrix(1,0,0,1,1396,-4)" xmlns:kvg="http://kanjivg.tagaini.net"></path><path class="stroke_order_diagram--existing_path" d="M52.11,28.5c7.85-1.01,19.74-2.56,24.78-3.11c2.65-0.29,3.74,0.41,2.86,3.11c-0.7,2.14-1.33,3.89-2.26,7.06" id="Ske28faqw4v" kvg:type="㇕b" transform="matrix(1,0,0,1,1396,-4)" xmlns:kvg="http://kanjivg.tagaini.net"></path><path class="stroke_order_diagram--existing_path" d="M55.08,39.05c3.49-0.3,12.9-1.29,19.94-1.96c1.71-0.16,3.21-0.31,4.37-0.42" id="Ske28faqw4w" kvg:type="㇐b" transform="matrix(1,0,0,1,1396,-4)" xmlns:kvg="http://kanjivg.tagaini.net"></path><path class="stroke_order_diagram--existing_path" d="M43.24,46.81c2.01,0.56,4.24,0.63,6.4,0.48c7.62-0.52,24-1.83,33.74-2.53c2.31-0.17,4.53-0.42,6.83-0.02" id="Ske28faqw4x" kvg:type="㇐" transform="matrix(1,0,0,1,1396,-4)" xmlns:kvg="http://kanjivg.tagaini.net"></path><path class="stroke_order_diagram--existing_path" d="M65.76,40.73c0.81,0.81,1.12,2.02,1.12,3.33c0,2.14,0.06,11.08,0.07,16.81c0.01,2.61,0.01,4.56,0,4.88" id="Ske28faqw4y" kvg:type="㇑" transform="matrix(1,0,0,1,1396,-4)" xmlns:kvg="http://kanjivg.tagaini.net"></path><path class="stroke_order_diagram--existing_path" d="M56.01,52.89c0,0.73-0.36,1.34-0.88,1.85c-1.85,2.36-7.25,6.32-14.33,8.85" id="Ske28faqw4z" kvg:type="㇒" transform="matrix(1,0,0,1,1396,-4)" xmlns:kvg="http://kanjivg.tagaini.net"></path><path class="stroke_order_diagram--existing_path" d="M77.02,51.46c4.16,1.68,10.75,6.9,11.79,9.51" id="Ske28faqw50" kvg:type="㇔/㇏" transform="matrix(1,0,0,1,1396,-4)" xmlns:kvg="http://kanjivg.tagaini.net"></path><path class="stroke_order_diagram--existing_path" d="M52.44,65.63c0,1.12-0.77,2.32-1.58,3.1c-6.08,5.93-16.57,13.72-37.05,23.22" id="Ske28faqw51" kvg:type="㇒" transform="matrix(1,0,0,1,1396,-4)" xmlns:kvg="http://kanjivg.tagaini.net"></path><path class="stroke_order_diagram--existing_path" d="M38.75,81.74c0.88,0.88,1,1.89,1,3.25c0,2.76,0,7.33,0,10.51c0,2,1.11,3.06,2.61,1.56s14.6-10.09,16.6-11.59" id="Ske28faqw52" kvg:type="㇙" transform="matrix(1,0,0,1,1396,-4)" xmlns:kvg="http://kanjivg.tagaini.net"></path><path class="stroke_order_diagram--existing_path" d="M80.64,68.38c0.09,0.85-0.16,1.66-0.72,2.28c-2.2,2.44-5.68,5.4-10.1,8.55" id="Ske28faqw53" kvg:type="㇒" transform="matrix(1,0,0,1,1396,-4)" xmlns:kvg="http://kanjivg.tagaini.net"></path><path class="stroke_order_diagram--current_path" d="M56.5,73.49c3.17,0,19.14,12.32,30.11,18.8c2.69,1.59,3.89,2.34,6.64,3.45" id="kvg:08912-s15" kvg:type="㇏" transform="matrix(1,0,0,1,1396,-4)" xmlns:kvg="http://kanjivg.tagaini.net"></path><path class="stroke_order_diagram--current_path" d="M56.5,73.49c3.17,0,19.14,12.32,30.11,18.8c2.69,1.59,3.89,2.34,6.64,3.45" id="Ske28faqw55" kvg:type="㇏" transform="matrix(1,0,0,1,1396,-4)" xmlns:kvg="http://kanjivg.tagaini.net"></path><circle class="stroke_order_diagram--path_start" cx="56.5" cy="73.49" r="4" transform="matrix(1,0,0,1,1396,-4)"></circle></svg>