<svg class="stroke_order_diagram--svg_container_for_5186627dd5dda796580002fb" style="height: 100px; width: 700px;" viewbox="0 0 700 100"><desc>Created with Snap</desc><defs></defs><line class="stroke_order_diagram--bounding_box" x1="1" x2="699" y1="1" y2="1"></line><line class="stroke_order_diagram--bounding_box" x1="1" x2="1" y1="1" y2="99"></line><line class="stroke_order_diagram--bounding_box" x1="1" x2="699" y1="99" y2="99"></line><line class="stroke_order_diagram--guide_line" x1="0" x2="700" y1="50" y2="50"></line><line class="stroke_order_diagram--guide_line" x1="50" x2="50" y1="1" y2="99"></line><line class="stroke_order_diagram--bounding_box" x1="99" x2="99" y1="1" y2="99"></line><path class="stroke_order_diagram--current_path" d="M32.5,15.46c0.96,0.96,1.18,2.1,1.18,3.52c0,1.12,0.07,27.43-0.02,39.27c-0.02,3.12-0.02,5.21,0.02,5.5" id="kvg:0898b-s1" kvg:type="㇑" transform="matrix(1,0,0,1,-4,-4)" xmlns:kvg="http://kanjivg.tagaini.net"></path><path class="stroke_order_diagram--current_path" d="M32.5,15.46c0.96,0.96,1.18,2.1,1.18,3.52c0,1.12,0.07,27.43-0.02,39.27c-0.02,3.12-0.02,5.21,0.02,5.5" id="Ske1tc0p6g" kvg:type="㇑" transform="matrix(1,0,0,1,-4,-4)" xmlns:kvg="http://kanjivg.tagaini.net"></path><circle class="stroke_order_diagram--path_start" cx="32.5" cy="15.46" r="4" transform="matrix(1,0,0,1,-4,-4)"></circle><line class="stroke_order_diagram--guide_line" x1="150" x2="150" y1="1" y2="99"></line><line class="stroke_order_diagram--bounding_box" x1="199" x2="199" y1="1" y2="99"></line><path class="stroke_order_diagram--existing_path" d="M32.5,15.46c0.96,0.96,1.18,2.1,1.18,3.52c0,1.12,0.07,27.43-0.02,39.27c-0.02,3.12-0.02,5.21,0.02,5.5" id="Ske1tc0p6j" kvg:type="㇑" transform="matrix(1,0,0,1,96,-4)" xmlns:kvg="http://kanjivg.tagaini.net"></path><path class="stroke_order_diagram--current_path" d="M34.65,17.15c9.23-1.27,22.23-2.65,31.1-3.65c2.99-0.34,4.26,1.01,4.26,3.55c0,2.5-0.1,28.08-0.14,38.96c-0.01,2.91-0.02,4.75-0.02,4.79" id="kvg:0898b-s2" kvg:type="㇕a" transform="matrix(1,0,0,1,96,-4)" xmlns:kvg="http://kanjivg.tagaini.net"></path><path class="stroke_order_diagram--current_path" d="M34.65,17.15c9.23-1.27,22.23-2.65,31.1-3.65c2.99-0.34,4.26,1.01,4.26,3.55c0,2.5-0.1,28.08-0.14,38.96c-0.01,2.91-0.02,4.75-0.02,4.79" id="Ske1tc0p6l" kvg:type="㇕a" transform="matrix(1,0,0,1,96,-4)" xmlns:kvg="http://kanjivg.tagaini.net"></path><circle class="stroke_order_diagram--path_start" cx="34.65" cy="17.15" r="4" transform="matrix(1,0,0,1,96,-4)"></circle><line class="stroke_order_diagram--guide_line" x1="250" x2="250" y1="1" y2="99"></line><line class="stroke_order_diagram--bounding_box" x1="299" x2="299" y1="1" y2="99"></line><path class="stroke_order_diagram--existing_path" d="M32.5,15.46c0.96,0.96,1.18,2.1,1.18,3.52c0,1.12,0.07,27.43-0.02,39.27c-0.02,3.12-0.02,5.21,0.02,5.5" id="Ske1tc0p6o" kvg:type="㇑" transform="matrix(1,0,0,1,196,-4)" xmlns:kvg="http://kanjivg.tagaini.net"></path><path class="stroke_order_diagram--existing_path" d="M34.65,17.15c9.23-1.27,22.23-2.65,31.1-3.65c2.99-0.34,4.26,1.01,4.26,3.55c0,2.5-0.1,28.08-0.14,38.96c-0.01,2.91-0.02,4.75-0.02,4.79" id="Ske1tc0p6p" kvg:type="㇕a" transform="matrix(1,0,0,1,196,-4)" xmlns:kvg="http://kanjivg.tagaini.net"></path><path class="stroke_order_diagram--current_path" d="M34.84,31.1c7.28-0.6,25.03-2.98,33.9-3.38" id="kvg:0898b-s3" kvg:type="㇐a" transform="matrix(1,0,0,1,196,-4)" xmlns:kvg="http://kanjivg.tagaini.net"></path><path class="stroke_order_diagram--current_path" d="M34.84,31.1c7.28-0.6,25.03-2.98,33.9-3.38" id="Ske1tc0p6r" kvg:type="㇐a" transform="matrix(1,0,0,1,196,-4)" xmlns:kvg="http://kanjivg.tagaini.net"></path><circle class="stroke_order_diagram--path_start" cx="34.84" cy="31.1" r="4" transform="matrix(1,0,0,1,196,-4)"></circle><line class="stroke_order_diagram--guide_line" x1="350" x2="350" y1="1" y2="99"></line><line class="stroke_order_diagram--bounding_box" x1="399" x2="399" y1="1" y2="99"></line><path class="stroke_order_diagram--existing_path" d="M32.5,15.46c0.96,0.96,1.18,2.1,1.18,3.52c0,1.12,0.07,27.43-0.02,39.27c-0.02,3.12-0.02,5.21,0.02,5.5" id="Ske1tc0p6u" kvg:type="㇑" transform="matrix(1,0,0,1,296,-4)" xmlns:kvg="http://kanjivg.tagaini.net"></path><path class="stroke_order_diagram--existing_path" d="M34.65,17.15c9.23-1.27,22.23-2.65,31.1-3.65c2.99-0.34,4.26,1.01,4.26,3.55c0,2.5-0.1,28.08-0.14,38.96c-0.01,2.91-0.02,4.75-0.02,4.79" id="Ske1tc0p6v" kvg:type="㇕a" transform="matrix(1,0,0,1,296,-4)" xmlns:kvg="http://kanjivg.tagaini.net"></path><path class="stroke_order_diagram--existing_path" d="M34.84,31.1c7.28-0.6,25.03-2.98,33.9-3.38" id="Ske1tc0p6w" kvg:type="㇐a" transform="matrix(1,0,0,1,296,-4)" xmlns:kvg="http://kanjivg.tagaini.net"></path><path class="stroke_order_diagram--current_path" d="M34.86,44.63C43.38,44,59,42.12,68.6,41.51" id="kvg:0898b-s4" kvg:type="㇐a" transform="matrix(1,0,0,1,296,-4)" xmlns:kvg="http://kanjivg.tagaini.net"></path><path class="stroke_order_diagram--current_path" d="M34.86,44.63C43.38,44,59,42.12,68.6,41.51" id="Ske1tc0p6y" kvg:type="㇐a" transform="matrix(1,0,0,1,296,-4)" xmlns:kvg="http://kanjivg.tagaini.net"></path><circle class="stroke_order_diagram--path_start" cx="34.86" cy="44.63" r="4" transform="matrix(1,0,0,1,296,-4)"></circle><line class="stroke_order_diagram--guide_line" x1="450" x2="450" y1="1" y2="99"></line><line class="stroke_order_diagram--bounding_box" x1="499" x2="499" y1="1" y2="99"></line><path class="stroke_order_diagram--existing_path" d="M32.5,15.46c0.96,0.96,1.18,2.1,1.18,3.52c0,1.12,0.07,27.43-0.02,39.27c-0.02,3.12-0.02,5.21,0.02,5.5" id="Ske1tc0p611" kvg:type="㇑" transform="matrix(1,0,0,1,396,-4)" xmlns:kvg="http://kanjivg.tagaini.net"></path><path class="stroke_order_diagram--existing_path" d="M34.65,17.15c9.23-1.27,22.23-2.65,31.1-3.65c2.99-0.34,4.26,1.01,4.26,3.55c0,2.5-0.1,28.08-0.14,38.96c-0.01,2.91-0.02,4.75-0.02,4.79" id="Ske1tc0p612" kvg:type="㇕a" transform="matrix(1,0,0,1,396,-4)" xmlns:kvg="http://kanjivg.tagaini.net"></path><path class="stroke_order_diagram--existing_path" d="M34.84,31.1c7.28-0.6,25.03-2.98,33.9-3.38" id="Ske1tc0p613" kvg:type="㇐a" transform="matrix(1,0,0,1,396,-4)" xmlns:kvg="http://kanjivg.tagaini.net"></path><path class="stroke_order_diagram--existing_path" d="M34.86,44.63C43.38,44,59,42.12,68.6,41.51" id="Ske1tc0p614" kvg:type="㇐a" transform="matrix(1,0,0,1,396,-4)" xmlns:kvg="http://kanjivg.tagaini.net"></path><path class="stroke_order_diagram--current_path" d="M34.71,59.66C44.5,59,58.38,57.5,68.45,57.03" id="kvg:0898b-s5" kvg:type="㇐a" transform="matrix(1,0,0,1,396,-4)" xmlns:kvg="http://kanjivg.tagaini.net"></path><path class="stroke_order_diagram--current_path" d="M34.71,59.66C44.5,59,58.38,57.5,68.45,57.03" id="Ske1tc0p616" kvg:type="㇐a" transform="matrix(1,0,0,1,396,-4)" xmlns:kvg="http://kanjivg.tagaini.net"></path><circle class="stroke_order_diagram--path_start" cx="34.71" cy="59.66" r="4" transform="matrix(1,0,0,1,396,-4)"></circle><line class="stroke_order_diagram--guide_line" x1="550" x2="550" y1="1" y2="99"></line><line class="stroke_order_diagram--bounding_box" x1="599" x2="599" y1="1" y2="99"></line><path class="stroke_order_diagram--existing_path" d="M32.5,15.46c0.96,0.96,1.18,2.1,1.18,3.52c0,1.12,0.07,27.43-0.02,39.27c-0.02,3.12-0.02,5.21,0.02,5.5" id="Ske1tc0p619" kvg:type="㇑" transform="matrix(1,0,0,1,496,-4)" xmlns:kvg="http://kanjivg.tagaini.net"></path><path class="stroke_order_diagram--existing_path" d="M34.65,17.15c9.23-1.27,22.23-2.65,31.1-3.65c2.99-0.34,4.26,1.01,4.26,3.55c0,2.5-0.1,28.08-0.14,38.96c-0.01,2.91-0.02,4.75-0.02,4.79" id="Ske1tc0p61a" kvg:type="㇕a" transform="matrix(1,0,0,1,496,-4)" xmlns:kvg="http://kanjivg.tagaini.net"></path><path class="stroke_order_diagram--existing_path" d="M34.84,31.1c7.28-0.6,25.03-2.98,33.9-3.38" id="Ske1tc0p61b" kvg:type="㇐a" transform="matrix(1,0,0,1,496,-4)" xmlns:kvg="http://kanjivg.tagaini.net"></path><path class="stroke_order_diagram--existing_path" d="M34.86,44.63C43.38,44,59,42.12,68.6,41.51" id="Ske1tc0p61c" kvg:type="㇐a" transform="matrix(1,0,0,1,496,-4)" xmlns:kvg="http://kanjivg.tagaini.net"></path><path class="stroke_order_diagram--existing_path" d="M34.71,59.66C44.5,59,58.38,57.5,68.45,57.03" id="Ske1tc0p61d" kvg:type="㇐a" transform="matrix(1,0,0,1,496,-4)" xmlns:kvg="http://kanjivg.tagaini.net"></path><path class="stroke_order_diagram--current_path" d="M41.99,66.75c0.26,1.5,0.01,2.99-0.41,4.04c-2.7,6.83-13.83,20.83-28.41,27.87" id="kvg:0898b-s6" kvg:type="㇒" transform="matrix(1,0,0,1,496,-4)" xmlns:kvg="http://kanjivg.tagaini.net"></path><path class="stroke_order_diagram--current_path" d="M41.99,66.75c0.26,1.5,0.01,2.99-0.41,4.04c-2.7,6.83-13.83,20.83-28.41,27.87" id="Ske1tc0p61f" kvg:type="㇒" transform="matrix(1,0,0,1,496,-4)" xmlns:kvg="http://kanjivg.tagaini.net"></path><circle class="stroke_order_diagram--path_start" cx="41.99" cy="66.75" r="4" transform="matrix(1,0,0,1,496,-4)"></circle><line class="stroke_order_diagram--guide_line" x1="650" x2="650" y1="1" y2="99"></line><line class="stroke_order_diagram--bounding_box" x1="699" x2="699" y1="1" y2="99"></line><path class="stroke_order_diagram--existing_path" d="M32.5,15.46c0.96,0.96,1.18,2.1,1.18,3.52c0,1.12,0.07,27.43-0.02,39.27c-0.02,3.12-0.02,5.21,0.02,5.5" id="Ske1tc0p61i" kvg:type="㇑" transform="matrix(1,0,0,1,596,-4)" xmlns:kvg="http://kanjivg.tagaini.net"></path><path class="stroke_order_diagram--existing_path" d="M34.65,17.15c9.23-1.27,22.23-2.65,31.1-3.65c2.99-0.34,4.26,1.01,4.26,3.55c0,2.5-0.1,28.08-0.14,38.96c-0.01,2.91-0.02,4.75-0.02,4.79" id="Ske1tc0p61j" kvg:type="㇕a" transform="matrix(1,0,0,1,596,-4)" xmlns:kvg="http://kanjivg.tagaini.net"></path><path class="stroke_order_diagram--existing_path" d="M34.84,31.1c7.28-0.6,25.03-2.98,33.9-3.38" id="Ske1tc0p61k" kvg:type="㇐a" transform="matrix(1,0,0,1,596,-4)" xmlns:kvg="http://kanjivg.tagaini.net"></path><path class="stroke_order_diagram--existing_path" d="M34.86,44.63C43.38,44,59,42.12,68.6,41.51" id="Ske1tc0p61l" kvg:type="㇐a" transform="matrix(1,0,0,1,596,-4)" xmlns:kvg="http://kanjivg.tagaini.net"></path><path class="stroke_order_diagram--existing_path" d="M34.71,59.66C44.5,59,58.38,57.5,68.45,57.03" id="Ske1tc0p61m" kvg:type="㇐a" transform="matrix(1,0,0,1,596,-4)" xmlns:kvg="http://kanjivg.tagaini.net"></path><path class="stroke_order_diagram--existing_path" d="M41.99,66.75c0.26,1.5,0.01,2.99-0.41,4.04c-2.7,6.83-13.83,20.83-28.41,27.87" id="Ske1tc0p61n" kvg:type="㇒" transform="matrix(1,0,0,1,596,-4)" xmlns:kvg="http://kanjivg.tagaini.net"></path><path class="stroke_order_diagram--current_path" d="M54.49,61.37c1.07,1.07,1.33,2.59,1.38,4.43c0.2,8.19,0.04,6.2,0.04,18.2c0,10.12,1.23,11.53,18.54,11.53c18.81,0,19.81-1.53,19.81-10.12" id="kvg:0898b-s7" kvg:type="㇟" transform="matrix(1,0,0,1,596,-4)" xmlns:kvg="http://kanjivg.tagaini.net"></path><path class="stroke_order_diagram--current_path" d="M54.49,61.37c1.07,1.07,1.33,2.59,1.38,4.43c0.2,8.19,0.04,6.2,0.04,18.2c0,10.12,1.23,11.53,18.54,11.53c18.81,0,19.81-1.53,19.81-10.12" id="Ske1tc0p61p" kvg:type="㇟" transform="matrix(1,0,0,1,596,-4)" xmlns:kvg="http://kanjivg.tagaini.net"></path><circle class="stroke_order_diagram--path_start" cx="54.49" cy="61.37" r="4" transform="matrix(1,0,0,1,596,-4)"></circle></svg>