<svg class="stroke_order_diagram--svg_container_for_5186628ad5dda79658000668" style="height: 100px; width: 1200px;" viewbox="0 0 1200 100"><desc>Created with Snap</desc><defs></defs><line class="stroke_order_diagram--bounding_box" x1="1" x2="1199" y1="1" y2="1"></line><line class="stroke_order_diagram--bounding_box" x1="1" x2="1" y1="1" y2="99"></line><line class="stroke_order_diagram--bounding_box" x1="1" x2="1199" y1="99" y2="99"></line><line class="stroke_order_diagram--guide_line" x1="0" x2="1200" y1="50" y2="50"></line><line class="stroke_order_diagram--guide_line" x1="50" x2="50" y1="1" y2="99"></line><line class="stroke_order_diagram--bounding_box" x1="99" x2="99" y1="1" y2="99"></line><path class="stroke_order_diagram--current_path" d="M26.43,14.5c2.65,1.77,6.84,7.25,7.5,10" id="kvg:08a34-s1" kvg:type="㇔" transform="matrix(1,0,0,1,-4,-4)" xmlns:kvg="http://kanjivg.tagaini.net"></path><path class="stroke_order_diagram--current_path" d="M26.43,14.5c2.65,1.77,6.84,7.25,7.5,10" id="Ske20lktil" kvg:type="㇔" transform="matrix(1,0,0,1,-4,-4)" xmlns:kvg="http://kanjivg.tagaini.net"></path><circle class="stroke_order_diagram--path_start" cx="26.43" cy="14.5" r="4" transform="matrix(1,0,0,1,-4,-4)"></circle><line class="stroke_order_diagram--guide_line" x1="150" x2="150" y1="1" y2="99"></line><line class="stroke_order_diagram--bounding_box" x1="199" x2="199" y1="1" y2="99"></line><path class="stroke_order_diagram--existing_path" d="M26.43,14.5c2.65,1.77,6.84,7.25,7.5,10" id="Ske20lktio" kvg:type="㇔" transform="matrix(1,0,0,1,96,-4)" xmlns:kvg="http://kanjivg.tagaini.net"></path><path class="stroke_order_diagram--current_path" d="M12.62,34.83c1.61,0.53,3.72,0.26,5.39,0.16C25.82,34.55,34.6,33.45,41,32.5c1.43-0.21,3.42-0.36,4.84-0.08" id="kvg:08a34-s2" kvg:type="㇐" transform="matrix(1,0,0,1,96,-4)" xmlns:kvg="http://kanjivg.tagaini.net"></path><path class="stroke_order_diagram--current_path" d="M12.62,34.83c1.61,0.53,3.72,0.26,5.39,0.16C25.82,34.55,34.6,33.45,41,32.5c1.43-0.21,3.42-0.36,4.84-0.08" id="Ske20lktiq" kvg:type="㇐" transform="matrix(1,0,0,1,96,-4)" xmlns:kvg="http://kanjivg.tagaini.net"></path><circle class="stroke_order_diagram--path_start" cx="12.62" cy="34.83" r="4" transform="matrix(1,0,0,1,96,-4)"></circle><line class="stroke_order_diagram--guide_line" x1="250" x2="250" y1="1" y2="99"></line><line class="stroke_order_diagram--bounding_box" x1="299" x2="299" y1="1" y2="99"></line><path class="stroke_order_diagram--existing_path" d="M26.43,14.5c2.65,1.77,6.84,7.25,7.5,10" id="Ske20lktit" kvg:type="㇔" transform="matrix(1,0,0,1,196,-4)" xmlns:kvg="http://kanjivg.tagaini.net"></path><path class="stroke_order_diagram--existing_path" d="M12.62,34.83c1.61,0.53,3.72,0.26,5.39,0.16C25.82,34.55,34.6,33.45,41,32.5c1.43-0.21,3.42-0.36,4.84-0.08" id="Ske20lktiu" kvg:type="㇐" transform="matrix(1,0,0,1,196,-4)" xmlns:kvg="http://kanjivg.tagaini.net"></path><path class="stroke_order_diagram--current_path" d="M19.68,48.31c1.22,0.35,2.81,0.16,4.07,0.1c4.08-0.21,9.22-1.03,13.38-1.65c1.45-0.22,3.19-0.5,4.64-0.25" id="kvg:08a34-s3" kvg:type="㇐" transform="matrix(1,0,0,1,196,-4)" xmlns:kvg="http://kanjivg.tagaini.net"></path><path class="stroke_order_diagram--current_path" d="M19.68,48.31c1.22,0.35,2.81,0.16,4.07,0.1c4.08-0.21,9.22-1.03,13.38-1.65c1.45-0.22,3.19-0.5,4.64-0.25" id="Ske20lktiw" kvg:type="㇐" transform="matrix(1,0,0,1,196,-4)" xmlns:kvg="http://kanjivg.tagaini.net"></path><circle class="stroke_order_diagram--path_start" cx="19.68" cy="48.31" r="4" transform="matrix(1,0,0,1,196,-4)"></circle><line class="stroke_order_diagram--guide_line" x1="350" x2="350" y1="1" y2="99"></line><line class="stroke_order_diagram--bounding_box" x1="399" x2="399" y1="1" y2="99"></line><path class="stroke_order_diagram--existing_path" d="M26.43,14.5c2.65,1.77,6.84,7.25,7.5,10" id="Ske20lktiz" kvg:type="㇔" transform="matrix(1,0,0,1,296,-4)" xmlns:kvg="http://kanjivg.tagaini.net"></path><path class="stroke_order_diagram--existing_path" d="M12.62,34.83c1.61,0.53,3.72,0.26,5.39,0.16C25.82,34.55,34.6,33.45,41,32.5c1.43-0.21,3.42-0.36,4.84-0.08" id="Ske20lkti10" kvg:type="㇐" transform="matrix(1,0,0,1,296,-4)" xmlns:kvg="http://kanjivg.tagaini.net"></path><path class="stroke_order_diagram--existing_path" d="M19.68,48.31c1.22,0.35,2.81,0.16,4.07,0.1c4.08-0.21,9.22-1.03,13.38-1.65c1.45-0.22,3.19-0.5,4.64-0.25" id="Ske20lkti11" kvg:type="㇐" transform="matrix(1,0,0,1,296,-4)" xmlns:kvg="http://kanjivg.tagaini.net"></path><path class="stroke_order_diagram--current_path" d="M21.3,61.58c1.13,0.35,2.66,0.15,3.84,0.08c3.72-0.21,9.02-1.09,13.12-1.79c1.26-0.21,2.82-0.38,4.07-0.15" id="kvg:08a34-s4" kvg:type="㇐" transform="matrix(1,0,0,1,296,-4)" xmlns:kvg="http://kanjivg.tagaini.net"></path><path class="stroke_order_diagram--current_path" d="M21.3,61.58c1.13,0.35,2.66,0.15,3.84,0.08c3.72-0.21,9.02-1.09,13.12-1.79c1.26-0.21,2.82-0.38,4.07-0.15" id="Ske20lkti13" kvg:type="㇐" transform="matrix(1,0,0,1,296,-4)" xmlns:kvg="http://kanjivg.tagaini.net"></path><circle class="stroke_order_diagram--path_start" cx="21.3" cy="61.58" r="4" transform="matrix(1,0,0,1,296,-4)"></circle><line class="stroke_order_diagram--guide_line" x1="450" x2="450" y1="1" y2="99"></line><line class="stroke_order_diagram--bounding_box" x1="499" x2="499" y1="1" y2="99"></line><path class="stroke_order_diagram--existing_path" d="M26.43,14.5c2.65,1.77,6.84,7.25,7.5,10" id="Ske20lkti16" kvg:type="㇔" transform="matrix(1,0,0,1,396,-4)" xmlns:kvg="http://kanjivg.tagaini.net"></path><path class="stroke_order_diagram--existing_path" d="M12.62,34.83c1.61,0.53,3.72,0.26,5.39,0.16C25.82,34.55,34.6,33.45,41,32.5c1.43-0.21,3.42-0.36,4.84-0.08" id="Ske20lkti17" kvg:type="㇐" transform="matrix(1,0,0,1,396,-4)" xmlns:kvg="http://kanjivg.tagaini.net"></path><path class="stroke_order_diagram--existing_path" d="M19.68,48.31c1.22,0.35,2.81,0.16,4.07,0.1c4.08-0.21,9.22-1.03,13.38-1.65c1.45-0.22,3.19-0.5,4.64-0.25" id="Ske20lkti18" kvg:type="㇐" transform="matrix(1,0,0,1,396,-4)" xmlns:kvg="http://kanjivg.tagaini.net"></path><path class="stroke_order_diagram--existing_path" d="M21.3,61.58c1.13,0.35,2.66,0.15,3.84,0.08c3.72-0.21,9.02-1.09,13.12-1.79c1.26-0.21,2.82-0.38,4.07-0.15" id="Ske20lkti19" kvg:type="㇐" transform="matrix(1,0,0,1,396,-4)" xmlns:kvg="http://kanjivg.tagaini.net"></path><path class="stroke_order_diagram--current_path" d="M19.51,74.3c0.84,0.84,1.23,1.85,1.45,2.84c0.73,3.3,1.56,8.49,2.32,13.1c0.25,1.51,0.49,2.96,0.72,4.26" id="kvg:08a34-s5" kvg:type="㇑" transform="matrix(1,0,0,1,396,-4)" xmlns:kvg="http://kanjivg.tagaini.net"></path><path class="stroke_order_diagram--current_path" d="M19.51,74.3c0.84,0.84,1.23,1.85,1.45,2.84c0.73,3.3,1.56,8.49,2.32,13.1c0.25,1.51,0.49,2.96,0.72,4.26" id="Ske20lkti1b" kvg:type="㇑" transform="matrix(1,0,0,1,396,-4)" xmlns:kvg="http://kanjivg.tagaini.net"></path><circle class="stroke_order_diagram--path_start" cx="19.51" cy="74.3" r="4" transform="matrix(1,0,0,1,396,-4)"></circle><line class="stroke_order_diagram--guide_line" x1="550" x2="550" y1="1" y2="99"></line><line class="stroke_order_diagram--bounding_box" x1="599" x2="599" y1="1" y2="99"></line><path class="stroke_order_diagram--existing_path" d="M26.43,14.5c2.65,1.77,6.84,7.25,7.5,10" id="Ske20lkti1e" kvg:type="㇔" transform="matrix(1,0,0,1,496,-4)" xmlns:kvg="http://kanjivg.tagaini.net"></path><path class="stroke_order_diagram--existing_path" d="M12.62,34.83c1.61,0.53,3.72,0.26,5.39,0.16C25.82,34.55,34.6,33.45,41,32.5c1.43-0.21,3.42-0.36,4.84-0.08" id="Ske20lkti1f" kvg:type="㇐" transform="matrix(1,0,0,1,496,-4)" xmlns:kvg="http://kanjivg.tagaini.net"></path><path class="stroke_order_diagram--existing_path" d="M19.68,48.31c1.22,0.35,2.81,0.16,4.07,0.1c4.08-0.21,9.22-1.03,13.38-1.65c1.45-0.22,3.19-0.5,4.64-0.25" id="Ske20lkti1g" kvg:type="㇐" transform="matrix(1,0,0,1,496,-4)" xmlns:kvg="http://kanjivg.tagaini.net"></path><path class="stroke_order_diagram--existing_path" d="M21.3,61.58c1.13,0.35,2.66,0.15,3.84,0.08c3.72-0.21,9.02-1.09,13.12-1.79c1.26-0.21,2.82-0.38,4.07-0.15" id="Ske20lkti1h" kvg:type="㇐" transform="matrix(1,0,0,1,496,-4)" xmlns:kvg="http://kanjivg.tagaini.net"></path><path class="stroke_order_diagram--existing_path" d="M19.51,74.3c0.84,0.84,1.23,1.85,1.45,2.84c0.73,3.3,1.56,8.49,2.32,13.1c0.25,1.51,0.49,2.96,0.72,4.26" id="Ske20lkti1i" kvg:type="㇑" transform="matrix(1,0,0,1,496,-4)" xmlns:kvg="http://kanjivg.tagaini.net"></path><path class="stroke_order_diagram--current_path" d="M21.59,75.44c6.24-0.79,12.32-1.6,18.05-2.39c2.6-0.36,3.83,0.29,3.28,2.99c-0.74,3.6-1.67,7.23-3.14,13.26" id="kvg:08a34-s6" kvg:type="㇕b" transform="matrix(1,0,0,1,496,-4)" xmlns:kvg="http://kanjivg.tagaini.net"></path><path class="stroke_order_diagram--current_path" d="M21.59,75.44c6.24-0.79,12.32-1.6,18.05-2.39c2.6-0.36,3.83,0.29,3.28,2.99c-0.74,3.6-1.67,7.23-3.14,13.26" id="Ske20lkti1k" kvg:type="㇕b" transform="matrix(1,0,0,1,496,-4)" xmlns:kvg="http://kanjivg.tagaini.net"></path><circle class="stroke_order_diagram--path_start" cx="21.59" cy="75.44" r="4" transform="matrix(1,0,0,1,496,-4)"></circle><line class="stroke_order_diagram--guide_line" x1="650" x2="650" y1="1" y2="99"></line><line class="stroke_order_diagram--bounding_box" x1="699" x2="699" y1="1" y2="99"></line><path class="stroke_order_diagram--existing_path" d="M26.43,14.5c2.65,1.77,6.84,7.25,7.5,10" id="Ske20lkti1n" kvg:type="㇔" transform="matrix(1,0,0,1,596,-4)" xmlns:kvg="http://kanjivg.tagaini.net"></path><path class="stroke_order_diagram--existing_path" d="M12.62,34.83c1.61,0.53,3.72,0.26,5.39,0.16C25.82,34.55,34.6,33.45,41,32.5c1.43-0.21,3.42-0.36,4.84-0.08" id="Ske20lkti1o" kvg:type="㇐" transform="matrix(1,0,0,1,596,-4)" xmlns:kvg="http://kanjivg.tagaini.net"></path><path class="stroke_order_diagram--existing_path" d="M19.68,48.31c1.22,0.35,2.81,0.16,4.07,0.1c4.08-0.21,9.22-1.03,13.38-1.65c1.45-0.22,3.19-0.5,4.64-0.25" id="Ske20lkti1p" kvg:type="㇐" transform="matrix(1,0,0,1,596,-4)" xmlns:kvg="http://kanjivg.tagaini.net"></path><path class="stroke_order_diagram--existing_path" d="M21.3,61.58c1.13,0.35,2.66,0.15,3.84,0.08c3.72-0.21,9.02-1.09,13.12-1.79c1.26-0.21,2.82-0.38,4.07-0.15" id="Ske20lkti1q" kvg:type="㇐" transform="matrix(1,0,0,1,596,-4)" xmlns:kvg="http://kanjivg.tagaini.net"></path><path class="stroke_order_diagram--existing_path" d="M19.51,74.3c0.84,0.84,1.23,1.85,1.45,2.84c0.73,3.3,1.56,8.49,2.32,13.1c0.25,1.51,0.49,2.96,0.72,4.26" id="Ske20lkti1r" kvg:type="㇑" transform="matrix(1,0,0,1,596,-4)" xmlns:kvg="http://kanjivg.tagaini.net"></path><path class="stroke_order_diagram--existing_path" d="M21.59,75.44c6.24-0.79,12.32-1.6,18.05-2.39c2.6-0.36,3.83,0.29,3.28,2.99c-0.74,3.6-1.67,7.23-3.14,13.26" id="Ske20lkti1s" kvg:type="㇕b" transform="matrix(1,0,0,1,596,-4)" xmlns:kvg="http://kanjivg.tagaini.net"></path><path class="stroke_order_diagram--current_path" d="M24.79,91.99c4.02-0.41,8.25-1.01,13.22-1.54c1.21-0.13,2.61-0.17,3.82-0.17" id="kvg:08a34-s7" kvg:type="㇐b" transform="matrix(1,0,0,1,596,-4)" xmlns:kvg="http://kanjivg.tagaini.net"></path><path class="stroke_order_diagram--current_path" d="M24.79,91.99c4.02-0.41,8.25-1.01,13.22-1.54c1.21-0.13,2.61-0.17,3.82-0.17" id="Ske20lkti1u" kvg:type="㇐b" transform="matrix(1,0,0,1,596,-4)" xmlns:kvg="http://kanjivg.tagaini.net"></path><circle class="stroke_order_diagram--path_start" cx="24.79" cy="91.99" r="4" transform="matrix(1,0,0,1,596,-4)"></circle><line class="stroke_order_diagram--guide_line" x1="750" x2="750" y1="1" y2="99"></line><line class="stroke_order_diagram--bounding_box" x1="799" x2="799" y1="1" y2="99"></line><path class="stroke_order_diagram--existing_path" d="M26.43,14.5c2.65,1.77,6.84,7.25,7.5,10" id="Ske20lkti1x" kvg:type="㇔" transform="matrix(1,0,0,1,696,-4)" xmlns:kvg="http://kanjivg.tagaini.net"></path><path class="stroke_order_diagram--existing_path" d="M12.62,34.83c1.61,0.53,3.72,0.26,5.39,0.16C25.82,34.55,34.6,33.45,41,32.5c1.43-0.21,3.42-0.36,4.84-0.08" id="Ske20lkti1y" kvg:type="㇐" transform="matrix(1,0,0,1,696,-4)" xmlns:kvg="http://kanjivg.tagaini.net"></path><path class="stroke_order_diagram--existing_path" d="M19.68,48.31c1.22,0.35,2.81,0.16,4.07,0.1c4.08-0.21,9.22-1.03,13.38-1.65c1.45-0.22,3.19-0.5,4.64-0.25" id="Ske20lkti1z" kvg:type="㇐" transform="matrix(1,0,0,1,696,-4)" xmlns:kvg="http://kanjivg.tagaini.net"></path><path class="stroke_order_diagram--existing_path" d="M21.3,61.58c1.13,0.35,2.66,0.15,3.84,0.08c3.72-0.21,9.02-1.09,13.12-1.79c1.26-0.21,2.82-0.38,4.07-0.15" id="Ske20lkti20" kvg:type="㇐" transform="matrix(1,0,0,1,696,-4)" xmlns:kvg="http://kanjivg.tagaini.net"></path><path class="stroke_order_diagram--existing_path" d="M19.51,74.3c0.84,0.84,1.23,1.85,1.45,2.84c0.73,3.3,1.56,8.49,2.32,13.1c0.25,1.51,0.49,2.96,0.72,4.26" id="Ske20lkti21" kvg:type="㇑" transform="matrix(1,0,0,1,696,-4)" xmlns:kvg="http://kanjivg.tagaini.net"></path><path class="stroke_order_diagram--existing_path" d="M21.59,75.44c6.24-0.79,12.32-1.6,18.05-2.39c2.6-0.36,3.83,0.29,3.28,2.99c-0.74,3.6-1.67,7.23-3.14,13.26" id="Ske20lkti22" kvg:type="㇕b" transform="matrix(1,0,0,1,696,-4)" xmlns:kvg="http://kanjivg.tagaini.net"></path><path class="stroke_order_diagram--existing_path" d="M24.79,91.99c4.02-0.41,8.25-1.01,13.22-1.54c1.21-0.13,2.61-0.17,3.82-0.17" id="Ske20lkti23" kvg:type="㇐b" transform="matrix(1,0,0,1,696,-4)" xmlns:kvg="http://kanjivg.tagaini.net"></path><path class="stroke_order_diagram--current_path" d="M79.14,14.5c0.15,1.16-0.19,1.91-1.01,2.75c-4.88,5-10.75,9.75-19.83,14.39" id="kvg:08a34-s8" kvg:type="㇒" transform="matrix(1,0,0,1,696,-4)" xmlns:kvg="http://kanjivg.tagaini.net"></path><path class="stroke_order_diagram--current_path" d="M79.14,14.5c0.15,1.16-0.19,1.91-1.01,2.75c-4.88,5-10.75,9.75-19.83,14.39" id="Ske20lkti25" kvg:type="㇒" transform="matrix(1,0,0,1,696,-4)" xmlns:kvg="http://kanjivg.tagaini.net"></path><circle class="stroke_order_diagram--path_start" cx="79.14" cy="14.5" r="4" transform="matrix(1,0,0,1,696,-4)"></circle><line class="stroke_order_diagram--guide_line" x1="850" x2="850" y1="1" y2="99"></line><line class="stroke_order_diagram--bounding_box" x1="899" x2="899" y1="1" y2="99"></line><path class="stroke_order_diagram--existing_path" d="M26.43,14.5c2.65,1.77,6.84,7.25,7.5,10" id="Ske20lkti28" kvg:type="㇔" transform="matrix(1,0,0,1,796,-4)" xmlns:kvg="http://kanjivg.tagaini.net"></path><path class="stroke_order_diagram--existing_path" d="M12.62,34.83c1.61,0.53,3.72,0.26,5.39,0.16C25.82,34.55,34.6,33.45,41,32.5c1.43-0.21,3.42-0.36,4.84-0.08" id="Ske20lkti29" kvg:type="㇐" transform="matrix(1,0,0,1,796,-4)" xmlns:kvg="http://kanjivg.tagaini.net"></path><path class="stroke_order_diagram--existing_path" d="M19.68,48.31c1.22,0.35,2.81,0.16,4.07,0.1c4.08-0.21,9.22-1.03,13.38-1.65c1.45-0.22,3.19-0.5,4.64-0.25" id="Ske20lkti2a" kvg:type="㇐" transform="matrix(1,0,0,1,796,-4)" xmlns:kvg="http://kanjivg.tagaini.net"></path><path class="stroke_order_diagram--existing_path" d="M21.3,61.58c1.13,0.35,2.66,0.15,3.84,0.08c3.72-0.21,9.02-1.09,13.12-1.79c1.26-0.21,2.82-0.38,4.07-0.15" id="Ske20lkti2b" kvg:type="㇐" transform="matrix(1,0,0,1,796,-4)" xmlns:kvg="http://kanjivg.tagaini.net"></path><path class="stroke_order_diagram--existing_path" d="M19.51,74.3c0.84,0.84,1.23,1.85,1.45,2.84c0.73,3.3,1.56,8.49,2.32,13.1c0.25,1.51,0.49,2.96,0.72,4.26" id="Ske20lkti2c" kvg:type="㇑" transform="matrix(1,0,0,1,796,-4)" xmlns:kvg="http://kanjivg.tagaini.net"></path><path class="stroke_order_diagram--existing_path" d="M21.59,75.44c6.24-0.79,12.32-1.6,18.05-2.39c2.6-0.36,3.83,0.29,3.28,2.99c-0.74,3.6-1.67,7.23-3.14,13.26" id="Ske20lkti2d" kvg:type="㇕b" transform="matrix(1,0,0,1,796,-4)" xmlns:kvg="http://kanjivg.tagaini.net"></path><path class="stroke_order_diagram--existing_path" d="M24.79,91.99c4.02-0.41,8.25-1.01,13.22-1.54c1.21-0.13,2.61-0.17,3.82-0.17" id="Ske20lkti2e" kvg:type="㇐b" transform="matrix(1,0,0,1,796,-4)" xmlns:kvg="http://kanjivg.tagaini.net"></path><path class="stroke_order_diagram--existing_path" d="M79.14,14.5c0.15,1.16-0.19,1.91-1.01,2.75c-4.88,5-10.75,9.75-19.83,14.39" id="Ske20lkti2f" kvg:type="㇒" transform="matrix(1,0,0,1,796,-4)" xmlns:kvg="http://kanjivg.tagaini.net"></path><path class="stroke_order_diagram--current_path" d="M54.84,31.79c1.19,1.19,1.35,2.3,1.37,4.29c0.29,33.68-1.76,45.54-8.19,54.7" id="kvg:08a34-s9" kvg:type="㇒" transform="matrix(1,0,0,1,796,-4)" xmlns:kvg="http://kanjivg.tagaini.net"></path><path class="stroke_order_diagram--current_path" d="M54.84,31.79c1.19,1.19,1.35,2.3,1.37,4.29c0.29,33.68-1.76,45.54-8.19,54.7" id="Ske20lkti2h" kvg:type="㇒" transform="matrix(1,0,0,1,796,-4)" xmlns:kvg="http://kanjivg.tagaini.net"></path><circle class="stroke_order_diagram--path_start" cx="54.84" cy="31.79" r="4" transform="matrix(1,0,0,1,796,-4)"></circle><line class="stroke_order_diagram--guide_line" x1="950" x2="950" y1="1" y2="99"></line><line class="stroke_order_diagram--bounding_box" x1="999" x2="999" y1="1" y2="99"></line><path class="stroke_order_diagram--existing_path" d="M26.43,14.5c2.65,1.77,6.84,7.25,7.5,10" id="Ske20lkti2k" kvg:type="㇔" transform="matrix(1,0,0,1,896,-4)" xmlns:kvg="http://kanjivg.tagaini.net"></path><path class="stroke_order_diagram--existing_path" d="M12.62,34.83c1.61,0.53,3.72,0.26,5.39,0.16C25.82,34.55,34.6,33.45,41,32.5c1.43-0.21,3.42-0.36,4.84-0.08" id="Ske20lkti2l" kvg:type="㇐" transform="matrix(1,0,0,1,896,-4)" xmlns:kvg="http://kanjivg.tagaini.net"></path><path class="stroke_order_diagram--existing_path" d="M19.68,48.31c1.22,0.35,2.81,0.16,4.07,0.1c4.08-0.21,9.22-1.03,13.38-1.65c1.45-0.22,3.19-0.5,4.64-0.25" id="Ske20lkti2m" kvg:type="㇐" transform="matrix(1,0,0,1,896,-4)" xmlns:kvg="http://kanjivg.tagaini.net"></path><path class="stroke_order_diagram--existing_path" d="M21.3,61.58c1.13,0.35,2.66,0.15,3.84,0.08c3.72-0.21,9.02-1.09,13.12-1.79c1.26-0.21,2.82-0.38,4.07-0.15" id="Ske20lkti2n" kvg:type="㇐" transform="matrix(1,0,0,1,896,-4)" xmlns:kvg="http://kanjivg.tagaini.net"></path><path class="stroke_order_diagram--existing_path" d="M19.51,74.3c0.84,0.84,1.23,1.85,1.45,2.84c0.73,3.3,1.56,8.49,2.32,13.1c0.25,1.51,0.49,2.96,0.72,4.26" id="Ske20lkti2o" kvg:type="㇑" transform="matrix(1,0,0,1,896,-4)" xmlns:kvg="http://kanjivg.tagaini.net"></path><path class="stroke_order_diagram--existing_path" d="M21.59,75.44c6.24-0.79,12.32-1.6,18.05-2.39c2.6-0.36,3.83,0.29,3.28,2.99c-0.74,3.6-1.67,7.23-3.14,13.26" id="Ske20lkti2p" kvg:type="㇕b" transform="matrix(1,0,0,1,896,-4)" xmlns:kvg="http://kanjivg.tagaini.net"></path><path class="stroke_order_diagram--existing_path" d="M24.79,91.99c4.02-0.41,8.25-1.01,13.22-1.54c1.21-0.13,2.61-0.17,3.82-0.17" id="Ske20lkti2q" kvg:type="㇐b" transform="matrix(1,0,0,1,896,-4)" xmlns:kvg="http://kanjivg.tagaini.net"></path><path class="stroke_order_diagram--existing_path" d="M79.14,14.5c0.15,1.16-0.19,1.91-1.01,2.75c-4.88,5-10.75,9.75-19.83,14.39" id="Ske20lkti2r" kvg:type="㇒" transform="matrix(1,0,0,1,896,-4)" xmlns:kvg="http://kanjivg.tagaini.net"></path><path class="stroke_order_diagram--existing_path" d="M54.84,31.79c1.19,1.19,1.35,2.3,1.37,4.29c0.29,33.68-1.76,45.54-8.19,54.7" id="Ske20lkti2s" kvg:type="㇒" transform="matrix(1,0,0,1,896,-4)" xmlns:kvg="http://kanjivg.tagaini.net"></path><path class="stroke_order_diagram--current_path" d="M58.78,44.75c1.97,0,3.28-0.23,4.53-0.39c8.36-1.04,18.98-2.78,27.74-4.27c1.91-0.33,4.07-0.79,6-0.31" id="kvg:08a34-s10" kvg:type="㇐" transform="matrix(1,0,0,1,896,-4)" xmlns:kvg="http://kanjivg.tagaini.net"></path><path class="stroke_order_diagram--current_path" d="M58.78,44.75c1.97,0,3.28-0.23,4.53-0.39c8.36-1.04,18.98-2.78,27.74-4.27c1.91-0.33,4.07-0.79,6-0.31" id="Ske20lkti2u" kvg:type="㇐" transform="matrix(1,0,0,1,896,-4)" xmlns:kvg="http://kanjivg.tagaini.net"></path><circle class="stroke_order_diagram--path_start" cx="58.78" cy="44.75" r="4" transform="matrix(1,0,0,1,896,-4)"></circle><line class="stroke_order_diagram--guide_line" x1="1050" x2="1050" y1="1" y2="99"></line><line class="stroke_order_diagram--bounding_box" x1="1099" x2="1099" y1="1" y2="99"></line><path class="stroke_order_diagram--existing_path" d="M26.43,14.5c2.65,1.77,6.84,7.25,7.5,10" id="Ske20lkti2x" kvg:type="㇔" transform="matrix(1,0,0,1,996,-4)" xmlns:kvg="http://kanjivg.tagaini.net"></path><path class="stroke_order_diagram--existing_path" d="M12.62,34.83c1.61,0.53,3.72,0.26,5.39,0.16C25.82,34.55,34.6,33.45,41,32.5c1.43-0.21,3.42-0.36,4.84-0.08" id="Ske20lkti2y" kvg:type="㇐" transform="matrix(1,0,0,1,996,-4)" xmlns:kvg="http://kanjivg.tagaini.net"></path><path class="stroke_order_diagram--existing_path" d="M19.68,48.31c1.22,0.35,2.81,0.16,4.07,0.1c4.08-0.21,9.22-1.03,13.38-1.65c1.45-0.22,3.19-0.5,4.64-0.25" id="Ske20lkti2z" kvg:type="㇐" transform="matrix(1,0,0,1,996,-4)" xmlns:kvg="http://kanjivg.tagaini.net"></path><path class="stroke_order_diagram--existing_path" d="M21.3,61.58c1.13,0.35,2.66,0.15,3.84,0.08c3.72-0.21,9.02-1.09,13.12-1.79c1.26-0.21,2.82-0.38,4.07-0.15" id="Ske20lkti30" kvg:type="㇐" transform="matrix(1,0,0,1,996,-4)" xmlns:kvg="http://kanjivg.tagaini.net"></path><path class="stroke_order_diagram--existing_path" d="M19.51,74.3c0.84,0.84,1.23,1.85,1.45,2.84c0.73,3.3,1.56,8.49,2.32,13.1c0.25,1.51,0.49,2.96,0.72,4.26" id="Ske20lkti31" kvg:type="㇑" transform="matrix(1,0,0,1,996,-4)" xmlns:kvg="http://kanjivg.tagaini.net"></path><path class="stroke_order_diagram--existing_path" d="M21.59,75.44c6.24-0.79,12.32-1.6,18.05-2.39c2.6-0.36,3.83,0.29,3.28,2.99c-0.74,3.6-1.67,7.23-3.14,13.26" id="Ske20lkti32" kvg:type="㇕b" transform="matrix(1,0,0,1,996,-4)" xmlns:kvg="http://kanjivg.tagaini.net"></path><path class="stroke_order_diagram--existing_path" d="M24.79,91.99c4.02-0.41,8.25-1.01,13.22-1.54c1.21-0.13,2.61-0.17,3.82-0.17" id="Ske20lkti33" kvg:type="㇐b" transform="matrix(1,0,0,1,996,-4)" xmlns:kvg="http://kanjivg.tagaini.net"></path><path class="stroke_order_diagram--existing_path" d="M79.14,14.5c0.15,1.16-0.19,1.91-1.01,2.75c-4.88,5-10.75,9.75-19.83,14.39" id="Ske20lkti34" kvg:type="㇒" transform="matrix(1,0,0,1,996,-4)" xmlns:kvg="http://kanjivg.tagaini.net"></path><path class="stroke_order_diagram--existing_path" d="M54.84,31.79c1.19,1.19,1.35,2.3,1.37,4.29c0.29,33.68-1.76,45.54-8.19,54.7" id="Ske20lkti35" kvg:type="㇒" transform="matrix(1,0,0,1,996,-4)" xmlns:kvg="http://kanjivg.tagaini.net"></path><path class="stroke_order_diagram--existing_path" d="M58.78,44.75c1.97,0,3.28-0.23,4.53-0.39c8.36-1.04,18.98-2.78,27.74-4.27c1.91-0.33,4.07-0.79,6-0.31" id="Ske20lkti36" kvg:type="㇐" transform="matrix(1,0,0,1,996,-4)" xmlns:kvg="http://kanjivg.tagaini.net"></path><path class="stroke_order_diagram--current_path" d="M78.75,44.6c1.26,1.26,1.56,2.77,1.56,4.49c0,0.73,0.05,27.71,0.06,41.9c0,4.76,0,8.08-0.01,8.5" id="kvg:08a34-s11" kvg:type="㇑" transform="matrix(1,0,0,1,996,-4)" xmlns:kvg="http://kanjivg.tagaini.net"></path><path class="stroke_order_diagram--current_path" d="M78.75,44.6c1.26,1.26,1.56,2.77,1.56,4.49c0,0.73,0.05,27.71,0.06,41.9c0,4.76,0,8.08-0.01,8.5" id="Ske20lkti38" kvg:type="㇑" transform="matrix(1,0,0,1,996,-4)" xmlns:kvg="http://kanjivg.tagaini.net"></path><circle class="stroke_order_diagram--path_start" cx="78.75" cy="44.6" r="4" transform="matrix(1,0,0,1,996,-4)"></circle><line class="stroke_order_diagram--guide_line" x1="1150" x2="1150" y1="1" y2="99"></line><line class="stroke_order_diagram--bounding_box" x1="1199" x2="1199" y1="1" y2="99"></line><path class="stroke_order_diagram--existing_path" d="M26.43,14.5c2.65,1.77,6.84,7.25,7.5,10" id="Ske20lkti3b" kvg:type="㇔" transform="matrix(1,0,0,1,1096,-4)" xmlns:kvg="http://kanjivg.tagaini.net"></path><path class="stroke_order_diagram--existing_path" d="M12.62,34.83c1.61,0.53,3.72,0.26,5.39,0.16C25.82,34.55,34.6,33.45,41,32.5c1.43-0.21,3.42-0.36,4.84-0.08" id="Ske20lkti3c" kvg:type="㇐" transform="matrix(1,0,0,1,1096,-4)" xmlns:kvg="http://kanjivg.tagaini.net"></path><path class="stroke_order_diagram--existing_path" d="M19.68,48.31c1.22,0.35,2.81,0.16,4.07,0.1c4.08-0.21,9.22-1.03,13.38-1.65c1.45-0.22,3.19-0.5,4.64-0.25" id="Ske20lkti3d" kvg:type="㇐" transform="matrix(1,0,0,1,1096,-4)" xmlns:kvg="http://kanjivg.tagaini.net"></path><path class="stroke_order_diagram--existing_path" d="M21.3,61.58c1.13,0.35,2.66,0.15,3.84,0.08c3.72-0.21,9.02-1.09,13.12-1.79c1.26-0.21,2.82-0.38,4.07-0.15" id="Ske20lkti3e" kvg:type="㇐" transform="matrix(1,0,0,1,1096,-4)" xmlns:kvg="http://kanjivg.tagaini.net"></path><path class="stroke_order_diagram--existing_path" d="M19.51,74.3c0.84,0.84,1.23,1.85,1.45,2.84c0.73,3.3,1.56,8.49,2.32,13.1c0.25,1.51,0.49,2.96,0.72,4.26" id="Ske20lkti3f" kvg:type="㇑" transform="matrix(1,0,0,1,1096,-4)" xmlns:kvg="http://kanjivg.tagaini.net"></path><path class="stroke_order_diagram--existing_path" d="M21.59,75.44c6.24-0.79,12.32-1.6,18.05-2.39c2.6-0.36,3.83,0.29,3.28,2.99c-0.74,3.6-1.67,7.23-3.14,13.26" id="Ske20lkti3g" kvg:type="㇕b" transform="matrix(1,0,0,1,1096,-4)" xmlns:kvg="http://kanjivg.tagaini.net"></path><path class="stroke_order_diagram--existing_path" d="M24.79,91.99c4.02-0.41,8.25-1.01,13.22-1.54c1.21-0.13,2.61-0.17,3.82-0.17" id="Ske20lkti3h" kvg:type="㇐b" transform="matrix(1,0,0,1,1096,-4)" xmlns:kvg="http://kanjivg.tagaini.net"></path><path class="stroke_order_diagram--existing_path" d="M79.14,14.5c0.15,1.16-0.19,1.91-1.01,2.75c-4.88,5-10.75,9.75-19.83,14.39" id="Ske20lkti3i" kvg:type="㇒" transform="matrix(1,0,0,1,1096,-4)" xmlns:kvg="http://kanjivg.tagaini.net"></path><path class="stroke_order_diagram--existing_path" d="M54.84,31.79c1.19,1.19,1.35,2.3,1.37,4.29c0.29,33.68-1.76,45.54-8.19,54.7" id="Ske20lkti3j" kvg:type="㇒" transform="matrix(1,0,0,1,1096,-4)" xmlns:kvg="http://kanjivg.tagaini.net"></path><path class="stroke_order_diagram--existing_path" d="M58.78,44.75c1.97,0,3.28-0.23,4.53-0.39c8.36-1.04,18.98-2.78,27.74-4.27c1.91-0.33,4.07-0.79,6-0.31" id="Ske20lkti3k" kvg:type="㇐" transform="matrix(1,0,0,1,1096,-4)" xmlns:kvg="http://kanjivg.tagaini.net"></path><path class="stroke_order_diagram--existing_path" d="M78.75,44.6c1.26,1.26,1.56,2.77,1.56,4.49c0,0.73,0.05,27.71,0.06,41.9c0,4.76,0,8.08-0.01,8.5" id="Ske20lkti3l" kvg:type="㇑" transform="matrix(1,0,0,1,1096,-4)" xmlns:kvg="http://kanjivg.tagaini.net"></path><path class="stroke_order_diagram--current_path" d="M68.91,59.73c9.71,3.27,21.84,9.9,26.58,15.47" id="kvg:08a34-s12" kvg:type="㇔" transform="matrix(1,0,0,1,1096,-4)" xmlns:kvg="http://kanjivg.tagaini.net"></path><path class="stroke_order_diagram--current_path" d="M68.91,59.73c9.71,3.27,21.84,9.9,26.58,15.47" id="Ske20lkti3n" kvg:type="㇔" transform="matrix(1,0,0,1,1096,-4)" xmlns:kvg="http://kanjivg.tagaini.net"></path><circle class="stroke_order_diagram--path_start" cx="68.91" cy="59.73" r="4" transform="matrix(1,0,0,1,1096,-4)"></circle></svg>