<svg class="stroke_order_diagram--svg_container_for_5186628cd5dda79658000726" style="height: 100px; width: 1500px;" viewbox="0 0 1500 100"><desc>Created with Snap</desc><defs></defs><line class="stroke_order_diagram--bounding_box" x1="1" x2="1499" y1="1" y2="1"></line><line class="stroke_order_diagram--bounding_box" x1="1" x2="1" y1="1" y2="99"></line><line class="stroke_order_diagram--bounding_box" x1="1" x2="1499" y1="99" y2="99"></line><line class="stroke_order_diagram--guide_line" x1="0" x2="1500" y1="50" y2="50"></line><line class="stroke_order_diagram--guide_line" x1="50" x2="50" y1="1" y2="99"></line><line class="stroke_order_diagram--bounding_box" x1="99" x2="99" y1="1" y2="99"></line><path class="stroke_order_diagram--current_path" d="M23.38,15.25c2.43,1.52,6.27,6.23,6.87,8.58" id="kvg:08ac7-s1" kvg:type="㇔" transform="matrix(1,0,0,1,-4,-4)" xmlns:kvg="http://kanjivg.tagaini.net"></path><path class="stroke_order_diagram--current_path" d="M23.38,15.25c2.43,1.52,6.27,6.23,6.87,8.58" id="Ske22cydyo" kvg:type="㇔" transform="matrix(1,0,0,1,-4,-4)" xmlns:kvg="http://kanjivg.tagaini.net"></path><circle class="stroke_order_diagram--path_start" cx="23.38" cy="15.25" r="4" transform="matrix(1,0,0,1,-4,-4)"></circle><line class="stroke_order_diagram--guide_line" x1="150" x2="150" y1="1" y2="99"></line><line class="stroke_order_diagram--bounding_box" x1="199" x2="199" y1="1" y2="99"></line><path class="stroke_order_diagram--existing_path" d="M23.38,15.25c2.43,1.52,6.27,6.23,6.87,8.58" id="Ske22cydyr" kvg:type="㇔" transform="matrix(1,0,0,1,96,-4)" xmlns:kvg="http://kanjivg.tagaini.net"></path><path class="stroke_order_diagram--current_path" d="M10.37,33.77c0.82,0.23,3.19,0.32,4,0.23c7.62-0.75,17.75-2.12,23.37-2.9c1.35-0.19,3.42-0.14,4.1-0.02" id="kvg:08ac7-s2" kvg:type="㇐" transform="matrix(1,0,0,1,96,-4)" xmlns:kvg="http://kanjivg.tagaini.net"></path><path class="stroke_order_diagram--current_path" d="M10.37,33.77c0.82,0.23,3.19,0.32,4,0.23c7.62-0.75,17.75-2.12,23.37-2.9c1.35-0.19,3.42-0.14,4.1-0.02" id="Ske22cydyt" kvg:type="㇐" transform="matrix(1,0,0,1,96,-4)" xmlns:kvg="http://kanjivg.tagaini.net"></path><circle class="stroke_order_diagram--path_start" cx="10.37" cy="33.77" r="4" transform="matrix(1,0,0,1,96,-4)"></circle><line class="stroke_order_diagram--guide_line" x1="250" x2="250" y1="1" y2="99"></line><line class="stroke_order_diagram--bounding_box" x1="299" x2="299" y1="1" y2="99"></line><path class="stroke_order_diagram--existing_path" d="M23.38,15.25c2.43,1.52,6.27,6.23,6.87,8.58" id="Ske22cydyw" kvg:type="㇔" transform="matrix(1,0,0,1,196,-4)" xmlns:kvg="http://kanjivg.tagaini.net"></path><path class="stroke_order_diagram--existing_path" d="M10.37,33.77c0.82,0.23,3.19,0.32,4,0.23c7.62-0.75,17.75-2.12,23.37-2.9c1.35-0.19,3.42-0.14,4.1-0.02" id="Ske22cydyx" kvg:type="㇐" transform="matrix(1,0,0,1,196,-4)" xmlns:kvg="http://kanjivg.tagaini.net"></path><path class="stroke_order_diagram--current_path" d="M17.23,46.63c0.89,0.25,1.75,0.17,2.72,0.12c4.79-0.25,9.29-1,14.54-1.82c0.96-0.15,2.66,0.06,3.02,0.12" id="kvg:08ac7-s3" kvg:type="㇐" transform="matrix(1,0,0,1,196,-4)" xmlns:kvg="http://kanjivg.tagaini.net"></path><path class="stroke_order_diagram--current_path" d="M17.23,46.63c0.89,0.25,1.75,0.17,2.72,0.12c4.79-0.25,9.29-1,14.54-1.82c0.96-0.15,2.66,0.06,3.02,0.12" id="Ske22cydyz" kvg:type="㇐" transform="matrix(1,0,0,1,196,-4)" xmlns:kvg="http://kanjivg.tagaini.net"></path><circle class="stroke_order_diagram--path_start" cx="17.23" cy="46.63" r="4" transform="matrix(1,0,0,1,196,-4)"></circle><line class="stroke_order_diagram--guide_line" x1="350" x2="350" y1="1" y2="99"></line><line class="stroke_order_diagram--bounding_box" x1="399" x2="399" y1="1" y2="99"></line><path class="stroke_order_diagram--existing_path" d="M23.38,15.25c2.43,1.52,6.27,6.23,6.87,8.58" id="Ske22cydy12" kvg:type="㇔" transform="matrix(1,0,0,1,296,-4)" xmlns:kvg="http://kanjivg.tagaini.net"></path><path class="stroke_order_diagram--existing_path" d="M10.37,33.77c0.82,0.23,3.19,0.32,4,0.23c7.62-0.75,17.75-2.12,23.37-2.9c1.35-0.19,3.42-0.14,4.1-0.02" id="Ske22cydy13" kvg:type="㇐" transform="matrix(1,0,0,1,296,-4)" xmlns:kvg="http://kanjivg.tagaini.net"></path><path class="stroke_order_diagram--existing_path" d="M17.23,46.63c0.89,0.25,1.75,0.17,2.72,0.12c4.79-0.25,9.29-1,14.54-1.82c0.96-0.15,2.66,0.06,3.02,0.12" id="Ske22cydy14" kvg:type="㇐" transform="matrix(1,0,0,1,296,-4)" xmlns:kvg="http://kanjivg.tagaini.net"></path><path class="stroke_order_diagram--current_path" d="M17.48,59.27c0.87,0.23,2.01,0.21,3.14,0.12c4.75-0.39,8.88-1.14,13.49-1.87c0.91-0.14,2.49-0.28,3.66-0.14" id="kvg:08ac7-s4" kvg:type="㇐" transform="matrix(1,0,0,1,296,-4)" xmlns:kvg="http://kanjivg.tagaini.net"></path><path class="stroke_order_diagram--current_path" d="M17.48,59.27c0.87,0.23,2.01,0.21,3.14,0.12c4.75-0.39,8.88-1.14,13.49-1.87c0.91-0.14,2.49-0.28,3.66-0.14" id="Ske22cydy16" kvg:type="㇐" transform="matrix(1,0,0,1,296,-4)" xmlns:kvg="http://kanjivg.tagaini.net"></path><circle class="stroke_order_diagram--path_start" cx="17.48" cy="59.27" r="4" transform="matrix(1,0,0,1,296,-4)"></circle><line class="stroke_order_diagram--guide_line" x1="450" x2="450" y1="1" y2="99"></line><line class="stroke_order_diagram--bounding_box" x1="499" x2="499" y1="1" y2="99"></line><path class="stroke_order_diagram--existing_path" d="M23.38,15.25c2.43,1.52,6.27,6.23,6.87,8.58" id="Ske22cydy19" kvg:type="㇔" transform="matrix(1,0,0,1,396,-4)" xmlns:kvg="http://kanjivg.tagaini.net"></path><path class="stroke_order_diagram--existing_path" d="M10.37,33.77c0.82,0.23,3.19,0.32,4,0.23c7.62-0.75,17.75-2.12,23.37-2.9c1.35-0.19,3.42-0.14,4.1-0.02" id="Ske22cydy1a" kvg:type="㇐" transform="matrix(1,0,0,1,396,-4)" xmlns:kvg="http://kanjivg.tagaini.net"></path><path class="stroke_order_diagram--existing_path" d="M17.23,46.63c0.89,0.25,1.75,0.17,2.72,0.12c4.79-0.25,9.29-1,14.54-1.82c0.96-0.15,2.66,0.06,3.02,0.12" id="Ske22cydy1b" kvg:type="㇐" transform="matrix(1,0,0,1,396,-4)" xmlns:kvg="http://kanjivg.tagaini.net"></path><path class="stroke_order_diagram--existing_path" d="M17.48,59.27c0.87,0.23,2.01,0.21,3.14,0.12c4.75-0.39,8.88-1.14,13.49-1.87c0.91-0.14,2.49-0.28,3.66-0.14" id="Ske22cydy1c" kvg:type="㇐" transform="matrix(1,0,0,1,396,-4)" xmlns:kvg="http://kanjivg.tagaini.net"></path><path class="stroke_order_diagram--current_path" d="M16.39,72.2c0.8,0.74,1.71,2.17,1.72,3.28c0.79,3.77,1.52,8.81,2.27,13.65c0.12,0.8,0.25,1.59,0.37,2.38" id="kvg:08ac7-s5" kvg:type="㇑" transform="matrix(1,0,0,1,396,-4)" xmlns:kvg="http://kanjivg.tagaini.net"></path><path class="stroke_order_diagram--current_path" d="M16.39,72.2c0.8,0.74,1.71,2.17,1.72,3.28c0.79,3.77,1.52,8.81,2.27,13.65c0.12,0.8,0.25,1.59,0.37,2.38" id="Ske22cydy1e" kvg:type="㇑" transform="matrix(1,0,0,1,396,-4)" xmlns:kvg="http://kanjivg.tagaini.net"></path><circle class="stroke_order_diagram--path_start" cx="16.39" cy="72.2" r="4" transform="matrix(1,0,0,1,396,-4)"></circle><line class="stroke_order_diagram--guide_line" x1="550" x2="550" y1="1" y2="99"></line><line class="stroke_order_diagram--bounding_box" x1="599" x2="599" y1="1" y2="99"></line><path class="stroke_order_diagram--existing_path" d="M23.38,15.25c2.43,1.52,6.27,6.23,6.87,8.58" id="Ske22cydy1h" kvg:type="㇔" transform="matrix(1,0,0,1,496,-4)" xmlns:kvg="http://kanjivg.tagaini.net"></path><path class="stroke_order_diagram--existing_path" d="M10.37,33.77c0.82,0.23,3.19,0.32,4,0.23c7.62-0.75,17.75-2.12,23.37-2.9c1.35-0.19,3.42-0.14,4.1-0.02" id="Ske22cydy1i" kvg:type="㇐" transform="matrix(1,0,0,1,496,-4)" xmlns:kvg="http://kanjivg.tagaini.net"></path><path class="stroke_order_diagram--existing_path" d="M17.23,46.63c0.89,0.25,1.75,0.17,2.72,0.12c4.79-0.25,9.29-1,14.54-1.82c0.96-0.15,2.66,0.06,3.02,0.12" id="Ske22cydy1j" kvg:type="㇐" transform="matrix(1,0,0,1,496,-4)" xmlns:kvg="http://kanjivg.tagaini.net"></path><path class="stroke_order_diagram--existing_path" d="M17.48,59.27c0.87,0.23,2.01,0.21,3.14,0.12c4.75-0.39,8.88-1.14,13.49-1.87c0.91-0.14,2.49-0.28,3.66-0.14" id="Ske22cydy1k" kvg:type="㇐" transform="matrix(1,0,0,1,496,-4)" xmlns:kvg="http://kanjivg.tagaini.net"></path><path class="stroke_order_diagram--existing_path" d="M16.39,72.2c0.8,0.74,1.71,2.17,1.72,3.28c0.79,3.77,1.52,8.81,2.27,13.65c0.12,0.8,0.25,1.59,0.37,2.38" id="Ske22cydy1l" kvg:type="㇑" transform="matrix(1,0,0,1,496,-4)" xmlns:kvg="http://kanjivg.tagaini.net"></path><path class="stroke_order_diagram--current_path" d="M18.56,73.19c6.44-0.9,12.23-1.87,18.17-2.77c1.49-0.22,2.64,1.3,2.43,2.33c-0.89,4.29-1.66,6.28-3.24,13.42" id="kvg:08ac7-s6" kvg:type="㇕b" transform="matrix(1,0,0,1,496,-4)" xmlns:kvg="http://kanjivg.tagaini.net"></path><path class="stroke_order_diagram--current_path" d="M18.56,73.19c6.44-0.9,12.23-1.87,18.17-2.77c1.49-0.22,2.64,1.3,2.43,2.33c-0.89,4.29-1.66,6.28-3.24,13.42" id="Ske22cydy1n" kvg:type="㇕b" transform="matrix(1,0,0,1,496,-4)" xmlns:kvg="http://kanjivg.tagaini.net"></path><circle class="stroke_order_diagram--path_start" cx="18.56" cy="73.19" r="4" transform="matrix(1,0,0,1,496,-4)"></circle><line class="stroke_order_diagram--guide_line" x1="650" x2="650" y1="1" y2="99"></line><line class="stroke_order_diagram--bounding_box" x1="699" x2="699" y1="1" y2="99"></line><path class="stroke_order_diagram--existing_path" d="M23.38,15.25c2.43,1.52,6.27,6.23,6.87,8.58" id="Ske22cydy1q" kvg:type="㇔" transform="matrix(1,0,0,1,596,-4)" xmlns:kvg="http://kanjivg.tagaini.net"></path><path class="stroke_order_diagram--existing_path" d="M10.37,33.77c0.82,0.23,3.19,0.32,4,0.23c7.62-0.75,17.75-2.12,23.37-2.9c1.35-0.19,3.42-0.14,4.1-0.02" id="Ske22cydy1r" kvg:type="㇐" transform="matrix(1,0,0,1,596,-4)" xmlns:kvg="http://kanjivg.tagaini.net"></path><path class="stroke_order_diagram--existing_path" d="M17.23,46.63c0.89,0.25,1.75,0.17,2.72,0.12c4.79-0.25,9.29-1,14.54-1.82c0.96-0.15,2.66,0.06,3.02,0.12" id="Ske22cydy1s" kvg:type="㇐" transform="matrix(1,0,0,1,596,-4)" xmlns:kvg="http://kanjivg.tagaini.net"></path><path class="stroke_order_diagram--existing_path" d="M17.48,59.27c0.87,0.23,2.01,0.21,3.14,0.12c4.75-0.39,8.88-1.14,13.49-1.87c0.91-0.14,2.49-0.28,3.66-0.14" id="Ske22cydy1t" kvg:type="㇐" transform="matrix(1,0,0,1,596,-4)" xmlns:kvg="http://kanjivg.tagaini.net"></path><path class="stroke_order_diagram--existing_path" d="M16.39,72.2c0.8,0.74,1.71,2.17,1.72,3.28c0.79,3.77,1.52,8.81,2.27,13.65c0.12,0.8,0.25,1.59,0.37,2.38" id="Ske22cydy1u" kvg:type="㇑" transform="matrix(1,0,0,1,596,-4)" xmlns:kvg="http://kanjivg.tagaini.net"></path><path class="stroke_order_diagram--existing_path" d="M18.56,73.19c6.44-0.9,12.23-1.87,18.17-2.77c1.49-0.22,2.64,1.3,2.43,2.33c-0.89,4.29-1.66,6.28-3.24,13.42" id="Ske22cydy1v" kvg:type="㇕b" transform="matrix(1,0,0,1,596,-4)" xmlns:kvg="http://kanjivg.tagaini.net"></path><path class="stroke_order_diagram--current_path" d="M21.47,89.02c4.13-0.47,8.07-1.05,13.28-1.73c0.85-0.11,1.74-0.23,2.67-0.35" id="kvg:08ac7-s7" kvg:type="㇐b" transform="matrix(1,0,0,1,596,-4)" xmlns:kvg="http://kanjivg.tagaini.net"></path><path class="stroke_order_diagram--current_path" d="M21.47,89.02c4.13-0.47,8.07-1.05,13.28-1.73c0.85-0.11,1.74-0.23,2.67-0.35" id="Ske22cydy1x" kvg:type="㇐b" transform="matrix(1,0,0,1,596,-4)" xmlns:kvg="http://kanjivg.tagaini.net"></path><circle class="stroke_order_diagram--path_start" cx="21.47" cy="89.02" r="4" transform="matrix(1,0,0,1,596,-4)"></circle><line class="stroke_order_diagram--guide_line" x1="750" x2="750" y1="1" y2="99"></line><line class="stroke_order_diagram--bounding_box" x1="799" x2="799" y1="1" y2="99"></line><path class="stroke_order_diagram--existing_path" d="M23.38,15.25c2.43,1.52,6.27,6.23,6.87,8.58" id="Ske22cydy20" kvg:type="㇔" transform="matrix(1,0,0,1,696,-4)" xmlns:kvg="http://kanjivg.tagaini.net"></path><path class="stroke_order_diagram--existing_path" d="M10.37,33.77c0.82,0.23,3.19,0.32,4,0.23c7.62-0.75,17.75-2.12,23.37-2.9c1.35-0.19,3.42-0.14,4.1-0.02" id="Ske22cydy21" kvg:type="㇐" transform="matrix(1,0,0,1,696,-4)" xmlns:kvg="http://kanjivg.tagaini.net"></path><path class="stroke_order_diagram--existing_path" d="M17.23,46.63c0.89,0.25,1.75,0.17,2.72,0.12c4.79-0.25,9.29-1,14.54-1.82c0.96-0.15,2.66,0.06,3.02,0.12" id="Ske22cydy22" kvg:type="㇐" transform="matrix(1,0,0,1,696,-4)" xmlns:kvg="http://kanjivg.tagaini.net"></path><path class="stroke_order_diagram--existing_path" d="M17.48,59.27c0.87,0.23,2.01,0.21,3.14,0.12c4.75-0.39,8.88-1.14,13.49-1.87c0.91-0.14,2.49-0.28,3.66-0.14" id="Ske22cydy23" kvg:type="㇐" transform="matrix(1,0,0,1,696,-4)" xmlns:kvg="http://kanjivg.tagaini.net"></path><path class="stroke_order_diagram--existing_path" d="M16.39,72.2c0.8,0.74,1.71,2.17,1.72,3.28c0.79,3.77,1.52,8.81,2.27,13.65c0.12,0.8,0.25,1.59,0.37,2.38" id="Ske22cydy24" kvg:type="㇑" transform="matrix(1,0,0,1,696,-4)" xmlns:kvg="http://kanjivg.tagaini.net"></path><path class="stroke_order_diagram--existing_path" d="M18.56,73.19c6.44-0.9,12.23-1.87,18.17-2.77c1.49-0.22,2.64,1.3,2.43,2.33c-0.89,4.29-1.66,6.28-3.24,13.42" id="Ske22cydy25" kvg:type="㇕b" transform="matrix(1,0,0,1,696,-4)" xmlns:kvg="http://kanjivg.tagaini.net"></path><path class="stroke_order_diagram--existing_path" d="M21.47,89.02c4.13-0.47,8.07-1.05,13.28-1.73c0.85-0.11,1.74-0.23,2.67-0.35" id="Ske22cydy26" kvg:type="㇐b" transform="matrix(1,0,0,1,696,-4)" xmlns:kvg="http://kanjivg.tagaini.net"></path><path class="stroke_order_diagram--current_path" d="M48.5,24.88c1.83,2,4.5,7.65,5,9.64" id="kvg:08ac7-s8" kvg:type="㇔" transform="matrix(1,0,0,1,696,-4)" xmlns:kvg="http://kanjivg.tagaini.net"></path><path class="stroke_order_diagram--current_path" d="M48.5,24.88c1.83,2,4.5,7.65,5,9.64" id="Ske22cydy28" kvg:type="㇔" transform="matrix(1,0,0,1,696,-4)" xmlns:kvg="http://kanjivg.tagaini.net"></path><circle class="stroke_order_diagram--path_start" cx="48.5" cy="24.88" r="4" transform="matrix(1,0,0,1,696,-4)"></circle><line class="stroke_order_diagram--guide_line" x1="850" x2="850" y1="1" y2="99"></line><line class="stroke_order_diagram--bounding_box" x1="899" x2="899" y1="1" y2="99"></line><path class="stroke_order_diagram--existing_path" d="M23.38,15.25c2.43,1.52,6.27,6.23,6.87,8.58" id="Ske22cydy2b" kvg:type="㇔" transform="matrix(1,0,0,1,796,-4)" xmlns:kvg="http://kanjivg.tagaini.net"></path><path class="stroke_order_diagram--existing_path" d="M10.37,33.77c0.82,0.23,3.19,0.32,4,0.23c7.62-0.75,17.75-2.12,23.37-2.9c1.35-0.19,3.42-0.14,4.1-0.02" id="Ske22cydy2c" kvg:type="㇐" transform="matrix(1,0,0,1,796,-4)" xmlns:kvg="http://kanjivg.tagaini.net"></path><path class="stroke_order_diagram--existing_path" d="M17.23,46.63c0.89,0.25,1.75,0.17,2.72,0.12c4.79-0.25,9.29-1,14.54-1.82c0.96-0.15,2.66,0.06,3.02,0.12" id="Ske22cydy2d" kvg:type="㇐" transform="matrix(1,0,0,1,796,-4)" xmlns:kvg="http://kanjivg.tagaini.net"></path><path class="stroke_order_diagram--existing_path" d="M17.48,59.27c0.87,0.23,2.01,0.21,3.14,0.12c4.75-0.39,8.88-1.14,13.49-1.87c0.91-0.14,2.49-0.28,3.66-0.14" id="Ske22cydy2e" kvg:type="㇐" transform="matrix(1,0,0,1,796,-4)" xmlns:kvg="http://kanjivg.tagaini.net"></path><path class="stroke_order_diagram--existing_path" d="M16.39,72.2c0.8,0.74,1.71,2.17,1.72,3.28c0.79,3.77,1.52,8.81,2.27,13.65c0.12,0.8,0.25,1.59,0.37,2.38" id="Ske22cydy2f" kvg:type="㇑" transform="matrix(1,0,0,1,796,-4)" xmlns:kvg="http://kanjivg.tagaini.net"></path><path class="stroke_order_diagram--existing_path" d="M18.56,73.19c6.44-0.9,12.23-1.87,18.17-2.77c1.49-0.22,2.64,1.3,2.43,2.33c-0.89,4.29-1.66,6.28-3.24,13.42" id="Ske22cydy2g" kvg:type="㇕b" transform="matrix(1,0,0,1,796,-4)" xmlns:kvg="http://kanjivg.tagaini.net"></path><path class="stroke_order_diagram--existing_path" d="M21.47,89.02c4.13-0.47,8.07-1.05,13.28-1.73c0.85-0.11,1.74-0.23,2.67-0.35" id="Ske22cydy2h" kvg:type="㇐b" transform="matrix(1,0,0,1,796,-4)" xmlns:kvg="http://kanjivg.tagaini.net"></path><path class="stroke_order_diagram--existing_path" d="M48.5,24.88c1.83,2,4.5,7.65,5,9.64" id="Ske22cydy2i" kvg:type="㇔" transform="matrix(1,0,0,1,796,-4)" xmlns:kvg="http://kanjivg.tagaini.net"></path><path class="stroke_order_diagram--current_path" d="M82.95,19c0.05,1-0.34,2.23-0.92,2.99c-1.91,2.51-4.78,4.85-7.69,6.62" id="kvg:08ac7-s9" kvg:type="㇒" transform="matrix(1,0,0,1,796,-4)" xmlns:kvg="http://kanjivg.tagaini.net"></path><path class="stroke_order_diagram--current_path" d="M82.95,19c0.05,1-0.34,2.23-0.92,2.99c-1.91,2.51-4.78,4.85-7.69,6.62" id="Ske22cydy2k" kvg:type="㇒" transform="matrix(1,0,0,1,796,-4)" xmlns:kvg="http://kanjivg.tagaini.net"></path><circle class="stroke_order_diagram--path_start" cx="82.95" cy="19" r="4" transform="matrix(1,0,0,1,796,-4)"></circle><line class="stroke_order_diagram--guide_line" x1="950" x2="950" y1="1" y2="99"></line><line class="stroke_order_diagram--bounding_box" x1="999" x2="999" y1="1" y2="99"></line><path class="stroke_order_diagram--existing_path" d="M23.38,15.25c2.43,1.52,6.27,6.23,6.87,8.58" id="Ske22cydy2n" kvg:type="㇔" transform="matrix(1,0,0,1,896,-4)" xmlns:kvg="http://kanjivg.tagaini.net"></path><path class="stroke_order_diagram--existing_path" d="M10.37,33.77c0.82,0.23,3.19,0.32,4,0.23c7.62-0.75,17.75-2.12,23.37-2.9c1.35-0.19,3.42-0.14,4.1-0.02" id="Ske22cydy2o" kvg:type="㇐" transform="matrix(1,0,0,1,896,-4)" xmlns:kvg="http://kanjivg.tagaini.net"></path><path class="stroke_order_diagram--existing_path" d="M17.23,46.63c0.89,0.25,1.75,0.17,2.72,0.12c4.79-0.25,9.29-1,14.54-1.82c0.96-0.15,2.66,0.06,3.02,0.12" id="Ske22cydy2p" kvg:type="㇐" transform="matrix(1,0,0,1,896,-4)" xmlns:kvg="http://kanjivg.tagaini.net"></path><path class="stroke_order_diagram--existing_path" d="M17.48,59.27c0.87,0.23,2.01,0.21,3.14,0.12c4.75-0.39,8.88-1.14,13.49-1.87c0.91-0.14,2.49-0.28,3.66-0.14" id="Ske22cydy2q" kvg:type="㇐" transform="matrix(1,0,0,1,896,-4)" xmlns:kvg="http://kanjivg.tagaini.net"></path><path class="stroke_order_diagram--existing_path" d="M16.39,72.2c0.8,0.74,1.71,2.17,1.72,3.28c0.79,3.77,1.52,8.81,2.27,13.65c0.12,0.8,0.25,1.59,0.37,2.38" id="Ske22cydy2r" kvg:type="㇑" transform="matrix(1,0,0,1,896,-4)" xmlns:kvg="http://kanjivg.tagaini.net"></path><path class="stroke_order_diagram--existing_path" d="M18.56,73.19c6.44-0.9,12.23-1.87,18.17-2.77c1.49-0.22,2.64,1.3,2.43,2.33c-0.89,4.29-1.66,6.28-3.24,13.42" id="Ske22cydy2s" kvg:type="㇕b" transform="matrix(1,0,0,1,896,-4)" xmlns:kvg="http://kanjivg.tagaini.net"></path><path class="stroke_order_diagram--existing_path" d="M21.47,89.02c4.13-0.47,8.07-1.05,13.28-1.73c0.85-0.11,1.74-0.23,2.67-0.35" id="Ske22cydy2t" kvg:type="㇐b" transform="matrix(1,0,0,1,896,-4)" xmlns:kvg="http://kanjivg.tagaini.net"></path><path class="stroke_order_diagram--existing_path" d="M48.5,24.88c1.83,2,4.5,7.65,5,9.64" id="Ske22cydy2u" kvg:type="㇔" transform="matrix(1,0,0,1,896,-4)" xmlns:kvg="http://kanjivg.tagaini.net"></path><path class="stroke_order_diagram--existing_path" d="M82.95,19c0.05,1-0.34,2.23-0.92,2.99c-1.91,2.51-4.78,4.85-7.69,6.62" id="Ske22cydy2v" kvg:type="㇒" transform="matrix(1,0,0,1,896,-4)" xmlns:kvg="http://kanjivg.tagaini.net"></path><path class="stroke_order_diagram--current_path" d="M63.64,11.25c0.93,0.93,1.16,2.49,1.13,3.19c-1.01,20.93-5.39,32.18-17.01,39.31" id="kvg:08ac7-s10" kvg:type="㇒" transform="matrix(1,0,0,1,896,-4)" xmlns:kvg="http://kanjivg.tagaini.net"></path><path class="stroke_order_diagram--current_path" d="M63.64,11.25c0.93,0.93,1.16,2.49,1.13,3.19c-1.01,20.93-5.39,32.18-17.01,39.31" id="Ske22cydy2x" kvg:type="㇒" transform="matrix(1,0,0,1,896,-4)" xmlns:kvg="http://kanjivg.tagaini.net"></path><circle class="stroke_order_diagram--path_start" cx="63.64" cy="11.25" r="4" transform="matrix(1,0,0,1,896,-4)"></circle><line class="stroke_order_diagram--guide_line" x1="1050" x2="1050" y1="1" y2="99"></line><line class="stroke_order_diagram--bounding_box" x1="1099" x2="1099" y1="1" y2="99"></line><path class="stroke_order_diagram--existing_path" d="M23.38,15.25c2.43,1.52,6.27,6.23,6.87,8.58" id="Ske22cydy30" kvg:type="㇔" transform="matrix(1,0,0,1,996,-4)" xmlns:kvg="http://kanjivg.tagaini.net"></path><path class="stroke_order_diagram--existing_path" d="M10.37,33.77c0.82,0.23,3.19,0.32,4,0.23c7.62-0.75,17.75-2.12,23.37-2.9c1.35-0.19,3.42-0.14,4.1-0.02" id="Ske22cydy31" kvg:type="㇐" transform="matrix(1,0,0,1,996,-4)" xmlns:kvg="http://kanjivg.tagaini.net"></path><path class="stroke_order_diagram--existing_path" d="M17.23,46.63c0.89,0.25,1.75,0.17,2.72,0.12c4.79-0.25,9.29-1,14.54-1.82c0.96-0.15,2.66,0.06,3.02,0.12" id="Ske22cydy32" kvg:type="㇐" transform="matrix(1,0,0,1,996,-4)" xmlns:kvg="http://kanjivg.tagaini.net"></path><path class="stroke_order_diagram--existing_path" d="M17.48,59.27c0.87,0.23,2.01,0.21,3.14,0.12c4.75-0.39,8.88-1.14,13.49-1.87c0.91-0.14,2.49-0.28,3.66-0.14" id="Ske22cydy33" kvg:type="㇐" transform="matrix(1,0,0,1,996,-4)" xmlns:kvg="http://kanjivg.tagaini.net"></path><path class="stroke_order_diagram--existing_path" d="M16.39,72.2c0.8,0.74,1.71,2.17,1.72,3.28c0.79,3.77,1.52,8.81,2.27,13.65c0.12,0.8,0.25,1.59,0.37,2.38" id="Ske22cydy34" kvg:type="㇑" transform="matrix(1,0,0,1,996,-4)" xmlns:kvg="http://kanjivg.tagaini.net"></path><path class="stroke_order_diagram--existing_path" d="M18.56,73.19c6.44-0.9,12.23-1.87,18.17-2.77c1.49-0.22,2.64,1.3,2.43,2.33c-0.89,4.29-1.66,6.28-3.24,13.42" id="Ske22cydy35" kvg:type="㇕b" transform="matrix(1,0,0,1,996,-4)" xmlns:kvg="http://kanjivg.tagaini.net"></path><path class="stroke_order_diagram--existing_path" d="M21.47,89.02c4.13-0.47,8.07-1.05,13.28-1.73c0.85-0.11,1.74-0.23,2.67-0.35" id="Ske22cydy36" kvg:type="㇐b" transform="matrix(1,0,0,1,996,-4)" xmlns:kvg="http://kanjivg.tagaini.net"></path><path class="stroke_order_diagram--existing_path" d="M48.5,24.88c1.83,2,4.5,7.65,5,9.64" id="Ske22cydy37" kvg:type="㇔" transform="matrix(1,0,0,1,996,-4)" xmlns:kvg="http://kanjivg.tagaini.net"></path><path class="stroke_order_diagram--existing_path" d="M82.95,19c0.05,1-0.34,2.23-0.92,2.99c-1.91,2.51-4.78,4.85-7.69,6.62" id="Ske22cydy38" kvg:type="㇒" transform="matrix(1,0,0,1,996,-4)" xmlns:kvg="http://kanjivg.tagaini.net"></path><path class="stroke_order_diagram--existing_path" d="M63.64,11.25c0.93,0.93,1.16,2.49,1.13,3.19c-1.01,20.93-5.39,32.18-17.01,39.31" id="Ske22cydy39" kvg:type="㇒" transform="matrix(1,0,0,1,996,-4)" xmlns:kvg="http://kanjivg.tagaini.net"></path><path class="stroke_order_diagram--current_path" d="M63.76,30.83C71.66,38.17,81,45.61,87.28,49.77c2.16,1.43,3.54,2.51,6.09,2.98" id="kvg:08ac7-s11" kvg:type="㇏" transform="matrix(1,0,0,1,996,-4)" xmlns:kvg="http://kanjivg.tagaini.net"></path><path class="stroke_order_diagram--current_path" d="M63.76,30.83C71.66,38.17,81,45.61,87.28,49.77c2.16,1.43,3.54,2.51,6.09,2.98" id="Ske22cydy3b" kvg:type="㇏" transform="matrix(1,0,0,1,996,-4)" xmlns:kvg="http://kanjivg.tagaini.net"></path><circle class="stroke_order_diagram--path_start" cx="63.76" cy="30.83" r="4" transform="matrix(1,0,0,1,996,-4)"></circle><line class="stroke_order_diagram--guide_line" x1="1150" x2="1150" y1="1" y2="99"></line><line class="stroke_order_diagram--bounding_box" x1="1199" x2="1199" y1="1" y2="99"></line><path class="stroke_order_diagram--existing_path" d="M23.38,15.25c2.43,1.52,6.27,6.23,6.87,8.58" id="Ske22cydy3e" kvg:type="㇔" transform="matrix(1,0,0,1,1096,-4)" xmlns:kvg="http://kanjivg.tagaini.net"></path><path class="stroke_order_diagram--existing_path" d="M10.37,33.77c0.82,0.23,3.19,0.32,4,0.23c7.62-0.75,17.75-2.12,23.37-2.9c1.35-0.19,3.42-0.14,4.1-0.02" id="Ske22cydy3f" kvg:type="㇐" transform="matrix(1,0,0,1,1096,-4)" xmlns:kvg="http://kanjivg.tagaini.net"></path><path class="stroke_order_diagram--existing_path" d="M17.23,46.63c0.89,0.25,1.75,0.17,2.72,0.12c4.79-0.25,9.29-1,14.54-1.82c0.96-0.15,2.66,0.06,3.02,0.12" id="Ske22cydy3g" kvg:type="㇐" transform="matrix(1,0,0,1,1096,-4)" xmlns:kvg="http://kanjivg.tagaini.net"></path><path class="stroke_order_diagram--existing_path" d="M17.48,59.27c0.87,0.23,2.01,0.21,3.14,0.12c4.75-0.39,8.88-1.14,13.49-1.87c0.91-0.14,2.49-0.28,3.66-0.14" id="Ske22cydy3h" kvg:type="㇐" transform="matrix(1,0,0,1,1096,-4)" xmlns:kvg="http://kanjivg.tagaini.net"></path><path class="stroke_order_diagram--existing_path" d="M16.39,72.2c0.8,0.74,1.71,2.17,1.72,3.28c0.79,3.77,1.52,8.81,2.27,13.65c0.12,0.8,0.25,1.59,0.37,2.38" id="Ske22cydy3i" kvg:type="㇑" transform="matrix(1,0,0,1,1096,-4)" xmlns:kvg="http://kanjivg.tagaini.net"></path><path class="stroke_order_diagram--existing_path" d="M18.56,73.19c6.44-0.9,12.23-1.87,18.17-2.77c1.49-0.22,2.64,1.3,2.43,2.33c-0.89,4.29-1.66,6.28-3.24,13.42" id="Ske22cydy3j" kvg:type="㇕b" transform="matrix(1,0,0,1,1096,-4)" xmlns:kvg="http://kanjivg.tagaini.net"></path><path class="stroke_order_diagram--existing_path" d="M21.47,89.02c4.13-0.47,8.07-1.05,13.28-1.73c0.85-0.11,1.74-0.23,2.67-0.35" id="Ske22cydy3k" kvg:type="㇐b" transform="matrix(1,0,0,1,1096,-4)" xmlns:kvg="http://kanjivg.tagaini.net"></path><path class="stroke_order_diagram--existing_path" d="M48.5,24.88c1.83,2,4.5,7.65,5,9.64" id="Ske22cydy3l" kvg:type="㇔" transform="matrix(1,0,0,1,1096,-4)" xmlns:kvg="http://kanjivg.tagaini.net"></path><path class="stroke_order_diagram--existing_path" d="M82.95,19c0.05,1-0.34,2.23-0.92,2.99c-1.91,2.51-4.78,4.85-7.69,6.62" id="Ske22cydy3m" kvg:type="㇒" transform="matrix(1,0,0,1,1096,-4)" xmlns:kvg="http://kanjivg.tagaini.net"></path><path class="stroke_order_diagram--existing_path" d="M63.64,11.25c0.93,0.93,1.16,2.49,1.13,3.19c-1.01,20.93-5.39,32.18-17.01,39.31" id="Ske22cydy3n" kvg:type="㇒" transform="matrix(1,0,0,1,1096,-4)" xmlns:kvg="http://kanjivg.tagaini.net"></path><path class="stroke_order_diagram--existing_path" d="M63.76,30.83C71.66,38.17,81,45.61,87.28,49.77c2.16,1.43,3.54,2.51,6.09,2.98" id="Ske22cydy3o" kvg:type="㇏" transform="matrix(1,0,0,1,1096,-4)" xmlns:kvg="http://kanjivg.tagaini.net"></path><path class="stroke_order_diagram--current_path" d="M48.38,65.38c2.2,2,3.57,6.95,4.17,8.95" id="kvg:08ac7-s12" kvg:type="㇔" transform="matrix(1,0,0,1,1096,-4)" xmlns:kvg="http://kanjivg.tagaini.net"></path><path class="stroke_order_diagram--current_path" d="M48.38,65.38c2.2,2,3.57,6.95,4.17,8.95" id="Ske22cydy3q" kvg:type="㇔" transform="matrix(1,0,0,1,1096,-4)" xmlns:kvg="http://kanjivg.tagaini.net"></path><circle class="stroke_order_diagram--path_start" cx="48.38" cy="65.38" r="4" transform="matrix(1,0,0,1,1096,-4)"></circle><line class="stroke_order_diagram--guide_line" x1="1250" x2="1250" y1="1" y2="99"></line><line class="stroke_order_diagram--bounding_box" x1="1299" x2="1299" y1="1" y2="99"></line><path class="stroke_order_diagram--existing_path" d="M23.38,15.25c2.43,1.52,6.27,6.23,6.87,8.58" id="Ske22cydy3t" kvg:type="㇔" transform="matrix(1,0,0,1,1196,-4)" xmlns:kvg="http://kanjivg.tagaini.net"></path><path class="stroke_order_diagram--existing_path" d="M10.37,33.77c0.82,0.23,3.19,0.32,4,0.23c7.62-0.75,17.75-2.12,23.37-2.9c1.35-0.19,3.42-0.14,4.1-0.02" id="Ske22cydy3u" kvg:type="㇐" transform="matrix(1,0,0,1,1196,-4)" xmlns:kvg="http://kanjivg.tagaini.net"></path><path class="stroke_order_diagram--existing_path" d="M17.23,46.63c0.89,0.25,1.75,0.17,2.72,0.12c4.79-0.25,9.29-1,14.54-1.82c0.96-0.15,2.66,0.06,3.02,0.12" id="Ske22cydy3v" kvg:type="㇐" transform="matrix(1,0,0,1,1196,-4)" xmlns:kvg="http://kanjivg.tagaini.net"></path><path class="stroke_order_diagram--existing_path" d="M17.48,59.27c0.87,0.23,2.01,0.21,3.14,0.12c4.75-0.39,8.88-1.14,13.49-1.87c0.91-0.14,2.49-0.28,3.66-0.14" id="Ske22cydy3w" kvg:type="㇐" transform="matrix(1,0,0,1,1196,-4)" xmlns:kvg="http://kanjivg.tagaini.net"></path><path class="stroke_order_diagram--existing_path" d="M16.39,72.2c0.8,0.74,1.71,2.17,1.72,3.28c0.79,3.77,1.52,8.81,2.27,13.65c0.12,0.8,0.25,1.59,0.37,2.38" id="Ske22cydy3x" kvg:type="㇑" transform="matrix(1,0,0,1,1196,-4)" xmlns:kvg="http://kanjivg.tagaini.net"></path><path class="stroke_order_diagram--existing_path" d="M18.56,73.19c6.44-0.9,12.23-1.87,18.17-2.77c1.49-0.22,2.64,1.3,2.43,2.33c-0.89,4.29-1.66,6.28-3.24,13.42" id="Ske22cydy3y" kvg:type="㇕b" transform="matrix(1,0,0,1,1196,-4)" xmlns:kvg="http://kanjivg.tagaini.net"></path><path class="stroke_order_diagram--existing_path" d="M21.47,89.02c4.13-0.47,8.07-1.05,13.28-1.73c0.85-0.11,1.74-0.23,2.67-0.35" id="Ske22cydy3z" kvg:type="㇐b" transform="matrix(1,0,0,1,1196,-4)" xmlns:kvg="http://kanjivg.tagaini.net"></path><path class="stroke_order_diagram--existing_path" d="M48.5,24.88c1.83,2,4.5,7.65,5,9.64" id="Ske22cydy40" kvg:type="㇔" transform="matrix(1,0,0,1,1196,-4)" xmlns:kvg="http://kanjivg.tagaini.net"></path><path class="stroke_order_diagram--existing_path" d="M82.95,19c0.05,1-0.34,2.23-0.92,2.99c-1.91,2.51-4.78,4.85-7.69,6.62" id="Ske22cydy41" kvg:type="㇒" transform="matrix(1,0,0,1,1196,-4)" xmlns:kvg="http://kanjivg.tagaini.net"></path><path class="stroke_order_diagram--existing_path" d="M63.64,11.25c0.93,0.93,1.16,2.49,1.13,3.19c-1.01,20.93-5.39,32.18-17.01,39.31" id="Ske22cydy42" kvg:type="㇒" transform="matrix(1,0,0,1,1196,-4)" xmlns:kvg="http://kanjivg.tagaini.net"></path><path class="stroke_order_diagram--existing_path" d="M63.76,30.83C71.66,38.17,81,45.61,87.28,49.77c2.16,1.43,3.54,2.51,6.09,2.98" id="Ske22cydy43" kvg:type="㇏" transform="matrix(1,0,0,1,1196,-4)" xmlns:kvg="http://kanjivg.tagaini.net"></path><path class="stroke_order_diagram--existing_path" d="M48.38,65.38c2.2,2,3.57,6.95,4.17,8.95" id="Ske22cydy44" kvg:type="㇔" transform="matrix(1,0,0,1,1196,-4)" xmlns:kvg="http://kanjivg.tagaini.net"></path><path class="stroke_order_diagram--current_path" d="M83.96,59.4c0.17,0.97-0.19,2.27-0.93,3.14c-1.53,1.83-4.78,4.7-8.5,7.18" id="kvg:08ac7-s13" kvg:type="㇒" transform="matrix(1,0,0,1,1196,-4)" xmlns:kvg="http://kanjivg.tagaini.net"></path><path class="stroke_order_diagram--current_path" d="M83.96,59.4c0.17,0.97-0.19,2.27-0.93,3.14c-1.53,1.83-4.78,4.7-8.5,7.18" id="Ske22cydy46" kvg:type="㇒" transform="matrix(1,0,0,1,1196,-4)" xmlns:kvg="http://kanjivg.tagaini.net"></path><circle class="stroke_order_diagram--path_start" cx="83.96" cy="59.4" r="4" transform="matrix(1,0,0,1,1196,-4)"></circle><line class="stroke_order_diagram--guide_line" x1="1350" x2="1350" y1="1" y2="99"></line><line class="stroke_order_diagram--bounding_box" x1="1399" x2="1399" y1="1" y2="99"></line><path class="stroke_order_diagram--existing_path" d="M23.38,15.25c2.43,1.52,6.27,6.23,6.87,8.58" id="Ske22cydy49" kvg:type="㇔" transform="matrix(1,0,0,1,1296,-4)" xmlns:kvg="http://kanjivg.tagaini.net"></path><path class="stroke_order_diagram--existing_path" d="M10.37,33.77c0.82,0.23,3.19,0.32,4,0.23c7.62-0.75,17.75-2.12,23.37-2.9c1.35-0.19,3.42-0.14,4.1-0.02" id="Ske22cydy4a" kvg:type="㇐" transform="matrix(1,0,0,1,1296,-4)" xmlns:kvg="http://kanjivg.tagaini.net"></path><path class="stroke_order_diagram--existing_path" d="M17.23,46.63c0.89,0.25,1.75,0.17,2.72,0.12c4.79-0.25,9.29-1,14.54-1.82c0.96-0.15,2.66,0.06,3.02,0.12" id="Ske22cydy4b" kvg:type="㇐" transform="matrix(1,0,0,1,1296,-4)" xmlns:kvg="http://kanjivg.tagaini.net"></path><path class="stroke_order_diagram--existing_path" d="M17.48,59.27c0.87,0.23,2.01,0.21,3.14,0.12c4.75-0.39,8.88-1.14,13.49-1.87c0.91-0.14,2.49-0.28,3.66-0.14" id="Ske22cydy4c" kvg:type="㇐" transform="matrix(1,0,0,1,1296,-4)" xmlns:kvg="http://kanjivg.tagaini.net"></path><path class="stroke_order_diagram--existing_path" d="M16.39,72.2c0.8,0.74,1.71,2.17,1.72,3.28c0.79,3.77,1.52,8.81,2.27,13.65c0.12,0.8,0.25,1.59,0.37,2.38" id="Ske22cydy4d" kvg:type="㇑" transform="matrix(1,0,0,1,1296,-4)" xmlns:kvg="http://kanjivg.tagaini.net"></path><path class="stroke_order_diagram--existing_path" d="M18.56,73.19c6.44-0.9,12.23-1.87,18.17-2.77c1.49-0.22,2.64,1.3,2.43,2.33c-0.89,4.29-1.66,6.28-3.24,13.42" id="Ske22cydy4e" kvg:type="㇕b" transform="matrix(1,0,0,1,1296,-4)" xmlns:kvg="http://kanjivg.tagaini.net"></path><path class="stroke_order_diagram--existing_path" d="M21.47,89.02c4.13-0.47,8.07-1.05,13.28-1.73c0.85-0.11,1.74-0.23,2.67-0.35" id="Ske22cydy4f" kvg:type="㇐b" transform="matrix(1,0,0,1,1296,-4)" xmlns:kvg="http://kanjivg.tagaini.net"></path><path class="stroke_order_diagram--existing_path" d="M48.5,24.88c1.83,2,4.5,7.65,5,9.64" id="Ske22cydy4g" kvg:type="㇔" transform="matrix(1,0,0,1,1296,-4)" xmlns:kvg="http://kanjivg.tagaini.net"></path><path class="stroke_order_diagram--existing_path" d="M82.95,19c0.05,1-0.34,2.23-0.92,2.99c-1.91,2.51-4.78,4.85-7.69,6.62" id="Ske22cydy4h" kvg:type="㇒" transform="matrix(1,0,0,1,1296,-4)" xmlns:kvg="http://kanjivg.tagaini.net"></path><path class="stroke_order_diagram--existing_path" d="M63.64,11.25c0.93,0.93,1.16,2.49,1.13,3.19c-1.01,20.93-5.39,32.18-17.01,39.31" id="Ske22cydy4i" kvg:type="㇒" transform="matrix(1,0,0,1,1296,-4)" xmlns:kvg="http://kanjivg.tagaini.net"></path><path class="stroke_order_diagram--existing_path" d="M63.76,30.83C71.66,38.17,81,45.61,87.28,49.77c2.16,1.43,3.54,2.51,6.09,2.98" id="Ske22cydy4j" kvg:type="㇏" transform="matrix(1,0,0,1,1296,-4)" xmlns:kvg="http://kanjivg.tagaini.net"></path><path class="stroke_order_diagram--existing_path" d="M48.38,65.38c2.2,2,3.57,6.95,4.17,8.95" id="Ske22cydy4k" kvg:type="㇔" transform="matrix(1,0,0,1,1296,-4)" xmlns:kvg="http://kanjivg.tagaini.net"></path><path class="stroke_order_diagram--existing_path" d="M83.96,59.4c0.17,0.97-0.19,2.27-0.93,3.14c-1.53,1.83-4.78,4.7-8.5,7.18" id="Ske22cydy4l" kvg:type="㇒" transform="matrix(1,0,0,1,1296,-4)" xmlns:kvg="http://kanjivg.tagaini.net"></path><path class="stroke_order_diagram--current_path" d="M64.19,51.38c0.97,0.97,1.34,2.75,1.32,4.06C65.12,78.62,52.38,91.5,38.43,96.5" id="kvg:08ac7-s14" kvg:type="㇒" transform="matrix(1,0,0,1,1296,-4)" xmlns:kvg="http://kanjivg.tagaini.net"></path><path class="stroke_order_diagram--current_path" d="M64.19,51.38c0.97,0.97,1.34,2.75,1.32,4.06C65.12,78.62,52.38,91.5,38.43,96.5" id="Ske22cydy4n" kvg:type="㇒" transform="matrix(1,0,0,1,1296,-4)" xmlns:kvg="http://kanjivg.tagaini.net"></path><circle class="stroke_order_diagram--path_start" cx="64.19" cy="51.38" r="4" transform="matrix(1,0,0,1,1296,-4)"></circle><line class="stroke_order_diagram--guide_line" x1="1450" x2="1450" y1="1" y2="99"></line><line class="stroke_order_diagram--bounding_box" x1="1499" x2="1499" y1="1" y2="99"></line><path class="stroke_order_diagram--existing_path" d="M23.38,15.25c2.43,1.52,6.27,6.23,6.87,8.58" id="Ske22cydy4q" kvg:type="㇔" transform="matrix(1,0,0,1,1396,-4)" xmlns:kvg="http://kanjivg.tagaini.net"></path><path class="stroke_order_diagram--existing_path" d="M10.37,33.77c0.82,0.23,3.19,0.32,4,0.23c7.62-0.75,17.75-2.12,23.37-2.9c1.35-0.19,3.42-0.14,4.1-0.02" id="Ske22cydy4r" kvg:type="㇐" transform="matrix(1,0,0,1,1396,-4)" xmlns:kvg="http://kanjivg.tagaini.net"></path><path class="stroke_order_diagram--existing_path" d="M17.23,46.63c0.89,0.25,1.75,0.17,2.72,0.12c4.79-0.25,9.29-1,14.54-1.82c0.96-0.15,2.66,0.06,3.02,0.12" id="Ske22cydy4s" kvg:type="㇐" transform="matrix(1,0,0,1,1396,-4)" xmlns:kvg="http://kanjivg.tagaini.net"></path><path class="stroke_order_diagram--existing_path" d="M17.48,59.27c0.87,0.23,2.01,0.21,3.14,0.12c4.75-0.39,8.88-1.14,13.49-1.87c0.91-0.14,2.49-0.28,3.66-0.14" id="Ske22cydy4t" kvg:type="㇐" transform="matrix(1,0,0,1,1396,-4)" xmlns:kvg="http://kanjivg.tagaini.net"></path><path class="stroke_order_diagram--existing_path" d="M16.39,72.2c0.8,0.74,1.71,2.17,1.72,3.28c0.79,3.77,1.52,8.81,2.27,13.65c0.12,0.8,0.25,1.59,0.37,2.38" id="Ske22cydy4u" kvg:type="㇑" transform="matrix(1,0,0,1,1396,-4)" xmlns:kvg="http://kanjivg.tagaini.net"></path><path class="stroke_order_diagram--existing_path" d="M18.56,73.19c6.44-0.9,12.23-1.87,18.17-2.77c1.49-0.22,2.64,1.3,2.43,2.33c-0.89,4.29-1.66,6.28-3.24,13.42" id="Ske22cydy4v" kvg:type="㇕b" transform="matrix(1,0,0,1,1396,-4)" xmlns:kvg="http://kanjivg.tagaini.net"></path><path class="stroke_order_diagram--existing_path" d="M21.47,89.02c4.13-0.47,8.07-1.05,13.28-1.73c0.85-0.11,1.74-0.23,2.67-0.35" id="Ske22cydy4w" kvg:type="㇐b" transform="matrix(1,0,0,1,1396,-4)" xmlns:kvg="http://kanjivg.tagaini.net"></path><path class="stroke_order_diagram--existing_path" d="M48.5,24.88c1.83,2,4.5,7.65,5,9.64" id="Ske22cydy4x" kvg:type="㇔" transform="matrix(1,0,0,1,1396,-4)" xmlns:kvg="http://kanjivg.tagaini.net"></path><path class="stroke_order_diagram--existing_path" d="M82.95,19c0.05,1-0.34,2.23-0.92,2.99c-1.91,2.51-4.78,4.85-7.69,6.62" id="Ske22cydy4y" kvg:type="㇒" transform="matrix(1,0,0,1,1396,-4)" xmlns:kvg="http://kanjivg.tagaini.net"></path><path class="stroke_order_diagram--existing_path" d="M63.64,11.25c0.93,0.93,1.16,2.49,1.13,3.19c-1.01,20.93-5.39,32.18-17.01,39.31" id="Ske22cydy4z" kvg:type="㇒" transform="matrix(1,0,0,1,1396,-4)" xmlns:kvg="http://kanjivg.tagaini.net"></path><path class="stroke_order_diagram--existing_path" d="M63.76,30.83C71.66,38.17,81,45.61,87.28,49.77c2.16,1.43,3.54,2.51,6.09,2.98" id="Ske22cydy50" kvg:type="㇏" transform="matrix(1,0,0,1,1396,-4)" xmlns:kvg="http://kanjivg.tagaini.net"></path><path class="stroke_order_diagram--existing_path" d="M48.38,65.38c2.2,2,3.57,6.95,4.17,8.95" id="Ske22cydy51" kvg:type="㇔" transform="matrix(1,0,0,1,1396,-4)" xmlns:kvg="http://kanjivg.tagaini.net"></path><path class="stroke_order_diagram--existing_path" d="M83.96,59.4c0.17,0.97-0.19,2.27-0.93,3.14c-1.53,1.83-4.78,4.7-8.5,7.18" id="Ske22cydy52" kvg:type="㇒" transform="matrix(1,0,0,1,1396,-4)" xmlns:kvg="http://kanjivg.tagaini.net"></path><path class="stroke_order_diagram--existing_path" d="M64.19,51.38c0.97,0.97,1.34,2.75,1.32,4.06C65.12,78.62,52.38,91.5,38.43,96.5" id="Ske22cydy53" kvg:type="㇒" transform="matrix(1,0,0,1,1396,-4)" xmlns:kvg="http://kanjivg.tagaini.net"></path><path class="stroke_order_diagram--current_path" d="M63.64,71.46c10.74,9.66,18.11,16.29,25.27,21.11c1.95,1.31,3.71,2.18,5.65,2.86" id="kvg:08ac7-s15" kvg:type="㇏" transform="matrix(1,0,0,1,1396,-4)" xmlns:kvg="http://kanjivg.tagaini.net"></path><path class="stroke_order_diagram--current_path" d="M63.64,71.46c10.74,9.66,18.11,16.29,25.27,21.11c1.95,1.31,3.71,2.18,5.65,2.86" id="Ske22cydy55" kvg:type="㇏" transform="matrix(1,0,0,1,1396,-4)" xmlns:kvg="http://kanjivg.tagaini.net"></path><circle class="stroke_order_diagram--path_start" cx="63.64" cy="71.46" r="4" transform="matrix(1,0,0,1,1396,-4)"></circle></svg>