<svg class="stroke_order_diagram--svg_container_for_518662bdd5dda796580015c0" style="height: 100px; width: 1700px;" viewbox="0 0 1700 100"><desc>Created with Snap</desc><defs></defs><line class="stroke_order_diagram--bounding_box" x1="1" x2="1699" y1="1" y2="1"></line><line class="stroke_order_diagram--bounding_box" x1="1" x2="1" y1="1" y2="99"></line><line class="stroke_order_diagram--bounding_box" x1="1" x2="1699" y1="99" y2="99"></line><line class="stroke_order_diagram--guide_line" x1="0" x2="1700" y1="50" y2="50"></line><line class="stroke_order_diagram--guide_line" x1="50" x2="50" y1="1" y2="99"></line><line class="stroke_order_diagram--bounding_box" x1="99" x2="99" y1="1" y2="99"></line><path class="stroke_order_diagram--current_path" d="M19.8,14.75c3.84,2.03,9.92,8.34,10.88,11.5" id="kvg:08af1-s1" kvg:type="㇔" transform="matrix(1,0,0,1,-4,-4)" xmlns:kvg="http://kanjivg.tagaini.net"></path><path class="stroke_order_diagram--current_path" d="M19.8,14.75c3.84,2.03,9.92,8.34,10.88,11.5" id="Ske2yy14nq" kvg:type="㇔" transform="matrix(1,0,0,1,-4,-4)" xmlns:kvg="http://kanjivg.tagaini.net"></path><circle class="stroke_order_diagram--path_start" cx="19.8" cy="14.75" r="4" transform="matrix(1,0,0,1,-4,-4)"></circle><line class="stroke_order_diagram--guide_line" x1="150" x2="150" y1="1" y2="99"></line><line class="stroke_order_diagram--bounding_box" x1="199" x2="199" y1="1" y2="99"></line><path class="stroke_order_diagram--existing_path" d="M19.8,14.75c3.84,2.03,9.92,8.34,10.88,11.5" id="Ske2yy14nt" kvg:type="㇔" transform="matrix(1,0,0,1,96,-4)" xmlns:kvg="http://kanjivg.tagaini.net"></path><path class="stroke_order_diagram--current_path" d="M10.12,35.58c0.71,0.23,3.4,0.27,4.1,0.23c8.72-0.42,14.78-1.31,21.33-2.37c1.17-0.19,2.95-0.39,3.54-0.27" id="kvg:08af1-s2" kvg:type="㇐" transform="matrix(1,0,0,1,96,-4)" xmlns:kvg="http://kanjivg.tagaini.net"></path><path class="stroke_order_diagram--current_path" d="M10.12,35.58c0.71,0.23,3.4,0.27,4.1,0.23c8.72-0.42,14.78-1.31,21.33-2.37c1.17-0.19,2.95-0.39,3.54-0.27" id="Ske2yy14nv" kvg:type="㇐" transform="matrix(1,0,0,1,96,-4)" xmlns:kvg="http://kanjivg.tagaini.net"></path><circle class="stroke_order_diagram--path_start" cx="10.12" cy="35.58" r="4" transform="matrix(1,0,0,1,96,-4)"></circle><line class="stroke_order_diagram--guide_line" x1="250" x2="250" y1="1" y2="99"></line><line class="stroke_order_diagram--bounding_box" x1="299" x2="299" y1="1" y2="99"></line><path class="stroke_order_diagram--existing_path" d="M19.8,14.75c3.84,2.03,9.92,8.34,10.88,11.5" id="Ske2yy14ny" kvg:type="㇔" transform="matrix(1,0,0,1,196,-4)" xmlns:kvg="http://kanjivg.tagaini.net"></path><path class="stroke_order_diagram--existing_path" d="M10.12,35.58c0.71,0.23,3.4,0.27,4.1,0.23c8.72-0.42,14.78-1.31,21.33-2.37c1.17-0.19,2.95-0.39,3.54-0.27" id="Ske2yy14nz" kvg:type="㇐" transform="matrix(1,0,0,1,196,-4)" xmlns:kvg="http://kanjivg.tagaini.net"></path><path class="stroke_order_diagram--current_path" d="M15.18,48.06c0.43,0.12,3.04,0.13,3.47,0.12c4.44-0.14,9.86-1.43,14.34-2.05c0.7-0.1,3.68,0.06,4.04,0.12" id="kvg:08af1-s3" kvg:type="㇐" transform="matrix(1,0,0,1,196,-4)" xmlns:kvg="http://kanjivg.tagaini.net"></path><path class="stroke_order_diagram--current_path" d="M15.18,48.06c0.43,0.12,3.04,0.13,3.47,0.12c4.44-0.14,9.86-1.43,14.34-2.05c0.7-0.1,3.68,0.06,4.04,0.12" id="Ske2yy14n11" kvg:type="㇐" transform="matrix(1,0,0,1,196,-4)" xmlns:kvg="http://kanjivg.tagaini.net"></path><circle class="stroke_order_diagram--path_start" cx="15.18" cy="48.06" r="4" transform="matrix(1,0,0,1,196,-4)"></circle><line class="stroke_order_diagram--guide_line" x1="350" x2="350" y1="1" y2="99"></line><line class="stroke_order_diagram--bounding_box" x1="399" x2="399" y1="1" y2="99"></line><path class="stroke_order_diagram--existing_path" d="M19.8,14.75c3.84,2.03,9.92,8.34,10.88,11.5" id="Ske2yy14n14" kvg:type="㇔" transform="matrix(1,0,0,1,296,-4)" xmlns:kvg="http://kanjivg.tagaini.net"></path><path class="stroke_order_diagram--existing_path" d="M10.12,35.58c0.71,0.23,3.4,0.27,4.1,0.23c8.72-0.42,14.78-1.31,21.33-2.37c1.17-0.19,2.95-0.39,3.54-0.27" id="Ske2yy14n15" kvg:type="㇐" transform="matrix(1,0,0,1,296,-4)" xmlns:kvg="http://kanjivg.tagaini.net"></path><path class="stroke_order_diagram--existing_path" d="M15.18,48.06c0.43,0.12,3.04,0.13,3.47,0.12c4.44-0.14,9.86-1.43,14.34-2.05c0.7-0.1,3.68,0.06,4.04,0.12" id="Ske2yy14n16" kvg:type="㇐" transform="matrix(1,0,0,1,296,-4)" xmlns:kvg="http://kanjivg.tagaini.net"></path><path class="stroke_order_diagram--current_path" d="M14.3,61.83c0.38,0.12,2.71,0.13,3.1,0.12c3.97-0.13,11.61-1.2,15.83-1.59c0.63-0.06,3.29-0.44,3.6-0.39" id="kvg:08af1-s4" kvg:type="㇐" transform="matrix(1,0,0,1,296,-4)" xmlns:kvg="http://kanjivg.tagaini.net"></path><path class="stroke_order_diagram--current_path" d="M14.3,61.83c0.38,0.12,2.71,0.13,3.1,0.12c3.97-0.13,11.61-1.2,15.83-1.59c0.63-0.06,3.29-0.44,3.6-0.39" id="Ske2yy14n18" kvg:type="㇐" transform="matrix(1,0,0,1,296,-4)" xmlns:kvg="http://kanjivg.tagaini.net"></path><circle class="stroke_order_diagram--path_start" cx="14.3" cy="61.83" r="4" transform="matrix(1,0,0,1,296,-4)"></circle><line class="stroke_order_diagram--guide_line" x1="450" x2="450" y1="1" y2="99"></line><line class="stroke_order_diagram--bounding_box" x1="499" x2="499" y1="1" y2="99"></line><path class="stroke_order_diagram--existing_path" d="M19.8,14.75c3.84,2.03,9.92,8.34,10.88,11.5" id="Ske2yy14n1b" kvg:type="㇔" transform="matrix(1,0,0,1,396,-4)" xmlns:kvg="http://kanjivg.tagaini.net"></path><path class="stroke_order_diagram--existing_path" d="M10.12,35.58c0.71,0.23,3.4,0.27,4.1,0.23c8.72-0.42,14.78-1.31,21.33-2.37c1.17-0.19,2.95-0.39,3.54-0.27" id="Ske2yy14n1c" kvg:type="㇐" transform="matrix(1,0,0,1,396,-4)" xmlns:kvg="http://kanjivg.tagaini.net"></path><path class="stroke_order_diagram--existing_path" d="M15.18,48.06c0.43,0.12,3.04,0.13,3.47,0.12c4.44-0.14,9.86-1.43,14.34-2.05c0.7-0.1,3.68,0.06,4.04,0.12" id="Ske2yy14n1d" kvg:type="㇐" transform="matrix(1,0,0,1,396,-4)" xmlns:kvg="http://kanjivg.tagaini.net"></path><path class="stroke_order_diagram--existing_path" d="M14.3,61.83c0.38,0.12,2.71,0.13,3.1,0.12c3.97-0.13,11.61-1.2,15.83-1.59c0.63-0.06,3.29-0.44,3.6-0.39" id="Ske2yy14n1e" kvg:type="㇐" transform="matrix(1,0,0,1,396,-4)" xmlns:kvg="http://kanjivg.tagaini.net"></path><path class="stroke_order_diagram--current_path" d="M15.01,74.05c0.36,0.35,0.78,1.1,0.89,1.55c1.03,3.99,1.81,13.79,2.85,19.65" id="kvg:08af1-s5" kvg:type="㇑" transform="matrix(1,0,0,1,396,-4)" xmlns:kvg="http://kanjivg.tagaini.net"></path><path class="stroke_order_diagram--current_path" d="M15.01,74.05c0.36,0.35,0.78,1.1,0.89,1.55c1.03,3.99,1.81,13.79,2.85,19.65" id="Ske2yy14n1g" kvg:type="㇑" transform="matrix(1,0,0,1,396,-4)" xmlns:kvg="http://kanjivg.tagaini.net"></path><circle class="stroke_order_diagram--path_start" cx="15.01" cy="74.05" r="4" transform="matrix(1,0,0,1,396,-4)"></circle><line class="stroke_order_diagram--guide_line" x1="550" x2="550" y1="1" y2="99"></line><line class="stroke_order_diagram--bounding_box" x1="599" x2="599" y1="1" y2="99"></line><path class="stroke_order_diagram--existing_path" d="M19.8,14.75c3.84,2.03,9.92,8.34,10.88,11.5" id="Ske2yy14n1j" kvg:type="㇔" transform="matrix(1,0,0,1,496,-4)" xmlns:kvg="http://kanjivg.tagaini.net"></path><path class="stroke_order_diagram--existing_path" d="M10.12,35.58c0.71,0.23,3.4,0.27,4.1,0.23c8.72-0.42,14.78-1.31,21.33-2.37c1.17-0.19,2.95-0.39,3.54-0.27" id="Ske2yy14n1k" kvg:type="㇐" transform="matrix(1,0,0,1,496,-4)" xmlns:kvg="http://kanjivg.tagaini.net"></path><path class="stroke_order_diagram--existing_path" d="M15.18,48.06c0.43,0.12,3.04,0.13,3.47,0.12c4.44-0.14,9.86-1.43,14.34-2.05c0.7-0.1,3.68,0.06,4.04,0.12" id="Ske2yy14n1l" kvg:type="㇐" transform="matrix(1,0,0,1,496,-4)" xmlns:kvg="http://kanjivg.tagaini.net"></path><path class="stroke_order_diagram--existing_path" d="M14.3,61.83c0.38,0.12,2.71,0.13,3.1,0.12c3.97-0.13,11.61-1.2,15.83-1.59c0.63-0.06,3.29-0.44,3.6-0.39" id="Ske2yy14n1m" kvg:type="㇐" transform="matrix(1,0,0,1,496,-4)" xmlns:kvg="http://kanjivg.tagaini.net"></path><path class="stroke_order_diagram--existing_path" d="M15.01,74.05c0.36,0.35,0.78,1.1,0.89,1.55c1.03,3.99,1.81,13.79,2.85,19.65" id="Ske2yy14n1n" kvg:type="㇑" transform="matrix(1,0,0,1,496,-4)" xmlns:kvg="http://kanjivg.tagaini.net"></path><path class="stroke_order_diagram--current_path" d="M16.34,75.44c6.7-0.84,13.39-2.47,19.57-3.32c1.55-0.21,2.49,0.98,2.27,1.96c-0.92,4.03-1.76,10.27-3.4,16.97" id="kvg:08af1-s6" kvg:type="㇕b" transform="matrix(1,0,0,1,496,-4)" xmlns:kvg="http://kanjivg.tagaini.net"></path><path class="stroke_order_diagram--current_path" d="M16.34,75.44c6.7-0.84,13.39-2.47,19.57-3.32c1.55-0.21,2.49,0.98,2.27,1.96c-0.92,4.03-1.76,10.27-3.4,16.97" id="Ske2yy14n1p" kvg:type="㇕b" transform="matrix(1,0,0,1,496,-4)" xmlns:kvg="http://kanjivg.tagaini.net"></path><circle class="stroke_order_diagram--path_start" cx="16.34" cy="75.44" r="4" transform="matrix(1,0,0,1,496,-4)"></circle><line class="stroke_order_diagram--guide_line" x1="650" x2="650" y1="1" y2="99"></line><line class="stroke_order_diagram--bounding_box" x1="699" x2="699" y1="1" y2="99"></line><path class="stroke_order_diagram--existing_path" d="M19.8,14.75c3.84,2.03,9.92,8.34,10.88,11.5" id="Ske2yy14n1s" kvg:type="㇔" transform="matrix(1,0,0,1,596,-4)" xmlns:kvg="http://kanjivg.tagaini.net"></path><path class="stroke_order_diagram--existing_path" d="M10.12,35.58c0.71,0.23,3.4,0.27,4.1,0.23c8.72-0.42,14.78-1.31,21.33-2.37c1.17-0.19,2.95-0.39,3.54-0.27" id="Ske2yy14n1t" kvg:type="㇐" transform="matrix(1,0,0,1,596,-4)" xmlns:kvg="http://kanjivg.tagaini.net"></path><path class="stroke_order_diagram--existing_path" d="M15.18,48.06c0.43,0.12,3.04,0.13,3.47,0.12c4.44-0.14,9.86-1.43,14.34-2.05c0.7-0.1,3.68,0.06,4.04,0.12" id="Ske2yy14n1u" kvg:type="㇐" transform="matrix(1,0,0,1,596,-4)" xmlns:kvg="http://kanjivg.tagaini.net"></path><path class="stroke_order_diagram--existing_path" d="M14.3,61.83c0.38,0.12,2.71,0.13,3.1,0.12c3.97-0.13,11.61-1.2,15.83-1.59c0.63-0.06,3.29-0.44,3.6-0.39" id="Ske2yy14n1v" kvg:type="㇐" transform="matrix(1,0,0,1,596,-4)" xmlns:kvg="http://kanjivg.tagaini.net"></path><path class="stroke_order_diagram--existing_path" d="M15.01,74.05c0.36,0.35,0.78,1.1,0.89,1.55c1.03,3.99,1.81,13.79,2.85,19.65" id="Ske2yy14n1w" kvg:type="㇑" transform="matrix(1,0,0,1,596,-4)" xmlns:kvg="http://kanjivg.tagaini.net"></path><path class="stroke_order_diagram--existing_path" d="M16.34,75.44c6.7-0.84,13.39-2.47,19.57-3.32c1.55-0.21,2.49,0.98,2.27,1.96c-0.92,4.03-1.76,10.27-3.4,16.97" id="Ske2yy14n1x" kvg:type="㇕b" transform="matrix(1,0,0,1,596,-4)" xmlns:kvg="http://kanjivg.tagaini.net"></path><path class="stroke_order_diagram--current_path" d="M19.04,92.24c5-0.51,11.93-0.92,18.79-1.71" id="kvg:08af1-s7" kvg:type="㇐b" transform="matrix(1,0,0,1,596,-4)" xmlns:kvg="http://kanjivg.tagaini.net"></path><path class="stroke_order_diagram--current_path" d="M19.04,92.24c5-0.51,11.93-0.92,18.79-1.71" id="Ske2yy14n1z" kvg:type="㇐b" transform="matrix(1,0,0,1,596,-4)" xmlns:kvg="http://kanjivg.tagaini.net"></path><circle class="stroke_order_diagram--path_start" cx="19.04" cy="92.24" r="4" transform="matrix(1,0,0,1,596,-4)"></circle><line class="stroke_order_diagram--guide_line" x1="750" x2="750" y1="1" y2="99"></line><line class="stroke_order_diagram--bounding_box" x1="799" x2="799" y1="1" y2="99"></line><path class="stroke_order_diagram--existing_path" d="M19.8,14.75c3.84,2.03,9.92,8.34,10.88,11.5" id="Ske2yy14n22" kvg:type="㇔" transform="matrix(1,0,0,1,696,-4)" xmlns:kvg="http://kanjivg.tagaini.net"></path><path class="stroke_order_diagram--existing_path" d="M10.12,35.58c0.71,0.23,3.4,0.27,4.1,0.23c8.72-0.42,14.78-1.31,21.33-2.37c1.17-0.19,2.95-0.39,3.54-0.27" id="Ske2yy14n23" kvg:type="㇐" transform="matrix(1,0,0,1,696,-4)" xmlns:kvg="http://kanjivg.tagaini.net"></path><path class="stroke_order_diagram--existing_path" d="M15.18,48.06c0.43,0.12,3.04,0.13,3.47,0.12c4.44-0.14,9.86-1.43,14.34-2.05c0.7-0.1,3.68,0.06,4.04,0.12" id="Ske2yy14n24" kvg:type="㇐" transform="matrix(1,0,0,1,696,-4)" xmlns:kvg="http://kanjivg.tagaini.net"></path><path class="stroke_order_diagram--existing_path" d="M14.3,61.83c0.38,0.12,2.71,0.13,3.1,0.12c3.97-0.13,11.61-1.2,15.83-1.59c0.63-0.06,3.29-0.44,3.6-0.39" id="Ske2yy14n25" kvg:type="㇐" transform="matrix(1,0,0,1,696,-4)" xmlns:kvg="http://kanjivg.tagaini.net"></path><path class="stroke_order_diagram--existing_path" d="M15.01,74.05c0.36,0.35,0.78,1.1,0.89,1.55c1.03,3.99,1.81,13.79,2.85,19.65" id="Ske2yy14n26" kvg:type="㇑" transform="matrix(1,0,0,1,696,-4)" xmlns:kvg="http://kanjivg.tagaini.net"></path><path class="stroke_order_diagram--existing_path" d="M16.34,75.44c6.7-0.84,13.39-2.47,19.57-3.32c1.55-0.21,2.49,0.98,2.27,1.96c-0.92,4.03-1.76,10.27-3.4,16.97" id="Ske2yy14n27" kvg:type="㇕b" transform="matrix(1,0,0,1,696,-4)" xmlns:kvg="http://kanjivg.tagaini.net"></path><path class="stroke_order_diagram--existing_path" d="M19.04,92.24c5-0.51,11.93-0.92,18.79-1.71" id="Ske2yy14n28" kvg:type="㇐b" transform="matrix(1,0,0,1,696,-4)" xmlns:kvg="http://kanjivg.tagaini.net"></path><path class="stroke_order_diagram--current_path" d="M65.44,11.27c0.4,0.38,1.17,1.71,0.91,2.56C64.75,19,62.5,26,59.47,34.65" id="kvg:08af1-s8" kvg:type="㇑" transform="matrix(1,0,0,1,696,-4)" xmlns:kvg="http://kanjivg.tagaini.net"></path><path class="stroke_order_diagram--current_path" d="M65.44,11.27c0.4,0.38,1.17,1.71,0.91,2.56C64.75,19,62.5,26,59.47,34.65" id="Ske2yy14n2a" kvg:type="㇑" transform="matrix(1,0,0,1,696,-4)" xmlns:kvg="http://kanjivg.tagaini.net"></path><circle class="stroke_order_diagram--path_start" cx="65.44" cy="11.27" r="4" transform="matrix(1,0,0,1,696,-4)"></circle><line class="stroke_order_diagram--guide_line" x1="850" x2="850" y1="1" y2="99"></line><line class="stroke_order_diagram--bounding_box" x1="899" x2="899" y1="1" y2="99"></line><path class="stroke_order_diagram--existing_path" d="M19.8,14.75c3.84,2.03,9.92,8.34,10.88,11.5" id="Ske2yy14n2d" kvg:type="㇔" transform="matrix(1,0,0,1,796,-4)" xmlns:kvg="http://kanjivg.tagaini.net"></path><path class="stroke_order_diagram--existing_path" d="M10.12,35.58c0.71,0.23,3.4,0.27,4.1,0.23c8.72-0.42,14.78-1.31,21.33-2.37c1.17-0.19,2.95-0.39,3.54-0.27" id="Ske2yy14n2e" kvg:type="㇐" transform="matrix(1,0,0,1,796,-4)" xmlns:kvg="http://kanjivg.tagaini.net"></path><path class="stroke_order_diagram--existing_path" d="M15.18,48.06c0.43,0.12,3.04,0.13,3.47,0.12c4.44-0.14,9.86-1.43,14.34-2.05c0.7-0.1,3.68,0.06,4.04,0.12" id="Ske2yy14n2f" kvg:type="㇐" transform="matrix(1,0,0,1,796,-4)" xmlns:kvg="http://kanjivg.tagaini.net"></path><path class="stroke_order_diagram--existing_path" d="M14.3,61.83c0.38,0.12,2.71,0.13,3.1,0.12c3.97-0.13,11.61-1.2,15.83-1.59c0.63-0.06,3.29-0.44,3.6-0.39" id="Ske2yy14n2g" kvg:type="㇐" transform="matrix(1,0,0,1,796,-4)" xmlns:kvg="http://kanjivg.tagaini.net"></path><path class="stroke_order_diagram--existing_path" d="M15.01,74.05c0.36,0.35,0.78,1.1,0.89,1.55c1.03,3.99,1.81,13.79,2.85,19.65" id="Ske2yy14n2h" kvg:type="㇑" transform="matrix(1,0,0,1,796,-4)" xmlns:kvg="http://kanjivg.tagaini.net"></path><path class="stroke_order_diagram--existing_path" d="M16.34,75.44c6.7-0.84,13.39-2.47,19.57-3.32c1.55-0.21,2.49,0.98,2.27,1.96c-0.92,4.03-1.76,10.27-3.4,16.97" id="Ske2yy14n2i" kvg:type="㇕b" transform="matrix(1,0,0,1,796,-4)" xmlns:kvg="http://kanjivg.tagaini.net"></path><path class="stroke_order_diagram--existing_path" d="M19.04,92.24c5-0.51,11.93-0.92,18.79-1.71" id="Ske2yy14n2j" kvg:type="㇐b" transform="matrix(1,0,0,1,796,-4)" xmlns:kvg="http://kanjivg.tagaini.net"></path><path class="stroke_order_diagram--existing_path" d="M65.44,11.27c0.4,0.38,1.17,1.71,0.91,2.56C64.75,19,62.5,26,59.47,34.65" id="Ske2yy14n2k" kvg:type="㇑" transform="matrix(1,0,0,1,796,-4)" xmlns:kvg="http://kanjivg.tagaini.net"></path><path class="stroke_order_diagram--current_path" d="M49.08,22.53c1.42,0.47,3.23,0.82,3.84,0.78c10.58-0.8,27.94-2.97,28.81-3c1.46-0.05,2.24,1.38,2.05,2.44c-0.73,4.12-1.52,6.25-2.11,8.85" id="kvg:08af1-s9" kvg:type="㇕" transform="matrix(1,0,0,1,796,-4)" xmlns:kvg="http://kanjivg.tagaini.net"></path><path class="stroke_order_diagram--current_path" d="M49.08,22.53c1.42,0.47,3.23,0.82,3.84,0.78c10.58-0.8,27.94-2.97,28.81-3c1.46-0.05,2.24,1.38,2.05,2.44c-0.73,4.12-1.52,6.25-2.11,8.85" id="Ske2yy14n2m" kvg:type="㇕" transform="matrix(1,0,0,1,796,-4)" xmlns:kvg="http://kanjivg.tagaini.net"></path><circle class="stroke_order_diagram--path_start" cx="49.08" cy="22.53" r="4" transform="matrix(1,0,0,1,796,-4)"></circle><line class="stroke_order_diagram--guide_line" x1="950" x2="950" y1="1" y2="99"></line><line class="stroke_order_diagram--bounding_box" x1="999" x2="999" y1="1" y2="99"></line><path class="stroke_order_diagram--existing_path" d="M19.8,14.75c3.84,2.03,9.92,8.34,10.88,11.5" id="Ske2yy14n2p" kvg:type="㇔" transform="matrix(1,0,0,1,896,-4)" xmlns:kvg="http://kanjivg.tagaini.net"></path><path class="stroke_order_diagram--existing_path" d="M10.12,35.58c0.71,0.23,3.4,0.27,4.1,0.23c8.72-0.42,14.78-1.31,21.33-2.37c1.17-0.19,2.95-0.39,3.54-0.27" id="Ske2yy14n2q" kvg:type="㇐" transform="matrix(1,0,0,1,896,-4)" xmlns:kvg="http://kanjivg.tagaini.net"></path><path class="stroke_order_diagram--existing_path" d="M15.18,48.06c0.43,0.12,3.04,0.13,3.47,0.12c4.44-0.14,9.86-1.43,14.34-2.05c0.7-0.1,3.68,0.06,4.04,0.12" id="Ske2yy14n2r" kvg:type="㇐" transform="matrix(1,0,0,1,896,-4)" xmlns:kvg="http://kanjivg.tagaini.net"></path><path class="stroke_order_diagram--existing_path" d="M14.3,61.83c0.38,0.12,2.71,0.13,3.1,0.12c3.97-0.13,11.61-1.2,15.83-1.59c0.63-0.06,3.29-0.44,3.6-0.39" id="Ske2yy14n2s" kvg:type="㇐" transform="matrix(1,0,0,1,896,-4)" xmlns:kvg="http://kanjivg.tagaini.net"></path><path class="stroke_order_diagram--existing_path" d="M15.01,74.05c0.36,0.35,0.78,1.1,0.89,1.55c1.03,3.99,1.81,13.79,2.85,19.65" id="Ske2yy14n2t" kvg:type="㇑" transform="matrix(1,0,0,1,896,-4)" xmlns:kvg="http://kanjivg.tagaini.net"></path><path class="stroke_order_diagram--existing_path" d="M16.34,75.44c6.7-0.84,13.39-2.47,19.57-3.32c1.55-0.21,2.49,0.98,2.27,1.96c-0.92,4.03-1.76,10.27-3.4,16.97" id="Ske2yy14n2u" kvg:type="㇕b" transform="matrix(1,0,0,1,896,-4)" xmlns:kvg="http://kanjivg.tagaini.net"></path><path class="stroke_order_diagram--existing_path" d="M19.04,92.24c5-0.51,11.93-0.92,18.79-1.71" id="Ske2yy14n2v" kvg:type="㇐b" transform="matrix(1,0,0,1,896,-4)" xmlns:kvg="http://kanjivg.tagaini.net"></path><path class="stroke_order_diagram--existing_path" d="M65.44,11.27c0.4,0.38,1.17,1.71,0.91,2.56C64.75,19,62.5,26,59.47,34.65" id="Ske2yy14n2w" kvg:type="㇑" transform="matrix(1,0,0,1,896,-4)" xmlns:kvg="http://kanjivg.tagaini.net"></path><path class="stroke_order_diagram--existing_path" d="M49.08,22.53c1.42,0.47,3.23,0.82,3.84,0.78c10.58-0.8,27.94-2.97,28.81-3c1.46-0.05,2.24,1.38,2.05,2.44c-0.73,4.12-1.52,6.25-2.11,8.85" id="Ske2yy14n2x" kvg:type="㇕" transform="matrix(1,0,0,1,896,-4)" xmlns:kvg="http://kanjivg.tagaini.net"></path><path class="stroke_order_diagram--current_path" d="M44.19,35.85c0.8,0.27,2.78,0.23,3.59,0.17c6.97-0.52,29.02-2.41,44.43-3.71c1.33-0.11,2.65,0.05,3.32,0.18" id="kvg:08af1-s10" kvg:type="㇐" transform="matrix(1,0,0,1,896,-4)" xmlns:kvg="http://kanjivg.tagaini.net"></path><path class="stroke_order_diagram--current_path" d="M44.19,35.85c0.8,0.27,2.78,0.23,3.59,0.17c6.97-0.52,29.02-2.41,44.43-3.71c1.33-0.11,2.65,0.05,3.32,0.18" id="Ske2yy14n2z" kvg:type="㇐" transform="matrix(1,0,0,1,896,-4)" xmlns:kvg="http://kanjivg.tagaini.net"></path><circle class="stroke_order_diagram--path_start" cx="44.19" cy="35.85" r="4" transform="matrix(1,0,0,1,896,-4)"></circle><line class="stroke_order_diagram--guide_line" x1="1050" x2="1050" y1="1" y2="99"></line><line class="stroke_order_diagram--bounding_box" x1="1099" x2="1099" y1="1" y2="99"></line><path class="stroke_order_diagram--existing_path" d="M19.8,14.75c3.84,2.03,9.92,8.34,10.88,11.5" id="Ske2yy14n32" kvg:type="㇔" transform="matrix(1,0,0,1,996,-4)" xmlns:kvg="http://kanjivg.tagaini.net"></path><path class="stroke_order_diagram--existing_path" d="M10.12,35.58c0.71,0.23,3.4,0.27,4.1,0.23c8.72-0.42,14.78-1.31,21.33-2.37c1.17-0.19,2.95-0.39,3.54-0.27" id="Ske2yy14n33" kvg:type="㇐" transform="matrix(1,0,0,1,996,-4)" xmlns:kvg="http://kanjivg.tagaini.net"></path><path class="stroke_order_diagram--existing_path" d="M15.18,48.06c0.43,0.12,3.04,0.13,3.47,0.12c4.44-0.14,9.86-1.43,14.34-2.05c0.7-0.1,3.68,0.06,4.04,0.12" id="Ske2yy14n34" kvg:type="㇐" transform="matrix(1,0,0,1,996,-4)" xmlns:kvg="http://kanjivg.tagaini.net"></path><path class="stroke_order_diagram--existing_path" d="M14.3,61.83c0.38,0.12,2.71,0.13,3.1,0.12c3.97-0.13,11.61-1.2,15.83-1.59c0.63-0.06,3.29-0.44,3.6-0.39" id="Ske2yy14n35" kvg:type="㇐" transform="matrix(1,0,0,1,996,-4)" xmlns:kvg="http://kanjivg.tagaini.net"></path><path class="stroke_order_diagram--existing_path" d="M15.01,74.05c0.36,0.35,0.78,1.1,0.89,1.55c1.03,3.99,1.81,13.79,2.85,19.65" id="Ske2yy14n36" kvg:type="㇑" transform="matrix(1,0,0,1,996,-4)" xmlns:kvg="http://kanjivg.tagaini.net"></path><path class="stroke_order_diagram--existing_path" d="M16.34,75.44c6.7-0.84,13.39-2.47,19.57-3.32c1.55-0.21,2.49,0.98,2.27,1.96c-0.92,4.03-1.76,10.27-3.4,16.97" id="Ske2yy14n37" kvg:type="㇕b" transform="matrix(1,0,0,1,996,-4)" xmlns:kvg="http://kanjivg.tagaini.net"></path><path class="stroke_order_diagram--existing_path" d="M19.04,92.24c5-0.51,11.93-0.92,18.79-1.71" id="Ske2yy14n38" kvg:type="㇐b" transform="matrix(1,0,0,1,996,-4)" xmlns:kvg="http://kanjivg.tagaini.net"></path><path class="stroke_order_diagram--existing_path" d="M65.44,11.27c0.4,0.38,1.17,1.71,0.91,2.56C64.75,19,62.5,26,59.47,34.65" id="Ske2yy14n39" kvg:type="㇑" transform="matrix(1,0,0,1,996,-4)" xmlns:kvg="http://kanjivg.tagaini.net"></path><path class="stroke_order_diagram--existing_path" d="M49.08,22.53c1.42,0.47,3.23,0.82,3.84,0.78c10.58-0.8,27.94-2.97,28.81-3c1.46-0.05,2.24,1.38,2.05,2.44c-0.73,4.12-1.52,6.25-2.11,8.85" id="Ske2yy14n3a" kvg:type="㇕" transform="matrix(1,0,0,1,996,-4)" xmlns:kvg="http://kanjivg.tagaini.net"></path><path class="stroke_order_diagram--existing_path" d="M44.19,35.85c0.8,0.27,2.78,0.23,3.59,0.17c6.97-0.52,29.02-2.41,44.43-3.71c1.33-0.11,2.65,0.05,3.32,0.18" id="Ske2yy14n3b" kvg:type="㇐" transform="matrix(1,0,0,1,996,-4)" xmlns:kvg="http://kanjivg.tagaini.net"></path><path class="stroke_order_diagram--current_path" d="M52.48,42.68c0.27,0.38,0.55,0.7,0.67,1.18c0.94,3.85,1.63,6.58,2.49,13.42" id="kvg:08af1-s11" kvg:type="㇑" transform="matrix(1,0,0,1,996,-4)" xmlns:kvg="http://kanjivg.tagaini.net"></path><path class="stroke_order_diagram--current_path" d="M52.48,42.68c0.27,0.38,0.55,0.7,0.67,1.18c0.94,3.85,1.63,6.58,2.49,13.42" id="Ske2yy14n3d" kvg:type="㇑" transform="matrix(1,0,0,1,996,-4)" xmlns:kvg="http://kanjivg.tagaini.net"></path><circle class="stroke_order_diagram--path_start" cx="52.48" cy="42.68" r="4" transform="matrix(1,0,0,1,996,-4)"></circle><line class="stroke_order_diagram--guide_line" x1="1150" x2="1150" y1="1" y2="99"></line><line class="stroke_order_diagram--bounding_box" x1="1199" x2="1199" y1="1" y2="99"></line><path class="stroke_order_diagram--existing_path" d="M19.8,14.75c3.84,2.03,9.92,8.34,10.88,11.5" id="Ske2yy14n3g" kvg:type="㇔" transform="matrix(1,0,0,1,1096,-4)" xmlns:kvg="http://kanjivg.tagaini.net"></path><path class="stroke_order_diagram--existing_path" d="M10.12,35.58c0.71,0.23,3.4,0.27,4.1,0.23c8.72-0.42,14.78-1.31,21.33-2.37c1.17-0.19,2.95-0.39,3.54-0.27" id="Ske2yy14n3h" kvg:type="㇐" transform="matrix(1,0,0,1,1096,-4)" xmlns:kvg="http://kanjivg.tagaini.net"></path><path class="stroke_order_diagram--existing_path" d="M15.18,48.06c0.43,0.12,3.04,0.13,3.47,0.12c4.44-0.14,9.86-1.43,14.34-2.05c0.7-0.1,3.68,0.06,4.04,0.12" id="Ske2yy14n3i" kvg:type="㇐" transform="matrix(1,0,0,1,1096,-4)" xmlns:kvg="http://kanjivg.tagaini.net"></path><path class="stroke_order_diagram--existing_path" d="M14.3,61.83c0.38,0.12,2.71,0.13,3.1,0.12c3.97-0.13,11.61-1.2,15.83-1.59c0.63-0.06,3.29-0.44,3.6-0.39" id="Ske2yy14n3j" kvg:type="㇐" transform="matrix(1,0,0,1,1096,-4)" xmlns:kvg="http://kanjivg.tagaini.net"></path><path class="stroke_order_diagram--existing_path" d="M15.01,74.05c0.36,0.35,0.78,1.1,0.89,1.55c1.03,3.99,1.81,13.79,2.85,19.65" id="Ske2yy14n3k" kvg:type="㇑" transform="matrix(1,0,0,1,1096,-4)" xmlns:kvg="http://kanjivg.tagaini.net"></path><path class="stroke_order_diagram--existing_path" d="M16.34,75.44c6.7-0.84,13.39-2.47,19.57-3.32c1.55-0.21,2.49,0.98,2.27,1.96c-0.92,4.03-1.76,10.27-3.4,16.97" id="Ske2yy14n3l" kvg:type="㇕b" transform="matrix(1,0,0,1,1096,-4)" xmlns:kvg="http://kanjivg.tagaini.net"></path><path class="stroke_order_diagram--existing_path" d="M19.04,92.24c5-0.51,11.93-0.92,18.79-1.71" id="Ske2yy14n3m" kvg:type="㇐b" transform="matrix(1,0,0,1,1096,-4)" xmlns:kvg="http://kanjivg.tagaini.net"></path><path class="stroke_order_diagram--existing_path" d="M65.44,11.27c0.4,0.38,1.17,1.71,0.91,2.56C64.75,19,62.5,26,59.47,34.65" id="Ske2yy14n3n" kvg:type="㇑" transform="matrix(1,0,0,1,1096,-4)" xmlns:kvg="http://kanjivg.tagaini.net"></path><path class="stroke_order_diagram--existing_path" d="M49.08,22.53c1.42,0.47,3.23,0.82,3.84,0.78c10.58-0.8,27.94-2.97,28.81-3c1.46-0.05,2.24,1.38,2.05,2.44c-0.73,4.12-1.52,6.25-2.11,8.85" id="Ske2yy14n3o" kvg:type="㇕" transform="matrix(1,0,0,1,1096,-4)" xmlns:kvg="http://kanjivg.tagaini.net"></path><path class="stroke_order_diagram--existing_path" d="M44.19,35.85c0.8,0.27,2.78,0.23,3.59,0.17c6.97-0.52,29.02-2.41,44.43-3.71c1.33-0.11,2.65,0.05,3.32,0.18" id="Ske2yy14n3p" kvg:type="㇐" transform="matrix(1,0,0,1,1096,-4)" xmlns:kvg="http://kanjivg.tagaini.net"></path><path class="stroke_order_diagram--existing_path" d="M52.48,42.68c0.27,0.38,0.55,0.7,0.67,1.18c0.94,3.85,1.63,6.58,2.49,13.42" id="Ske2yy14n3q" kvg:type="㇑" transform="matrix(1,0,0,1,1096,-4)" xmlns:kvg="http://kanjivg.tagaini.net"></path><path class="stroke_order_diagram--current_path" d="M53.44,43.91c8.54-0.89,26.31-2.68,29.9-2.96c2.6-0.2,3.39,1.22,3.02,2.36c-0.68,2.11-2.23,7.38-2.77,9.98" id="kvg:08af1-s12" kvg:type="㇕b" transform="matrix(1,0,0,1,1096,-4)" xmlns:kvg="http://kanjivg.tagaini.net"></path><path class="stroke_order_diagram--current_path" d="M53.44,43.91c8.54-0.89,26.31-2.68,29.9-2.96c2.6-0.2,3.39,1.22,3.02,2.36c-0.68,2.11-2.23,7.38-2.77,9.98" id="Ske2yy14n3s" kvg:type="㇕b" transform="matrix(1,0,0,1,1096,-4)" xmlns:kvg="http://kanjivg.tagaini.net"></path><circle class="stroke_order_diagram--path_start" cx="53.44" cy="43.91" r="4" transform="matrix(1,0,0,1,1096,-4)"></circle><line class="stroke_order_diagram--guide_line" x1="1250" x2="1250" y1="1" y2="99"></line><line class="stroke_order_diagram--bounding_box" x1="1299" x2="1299" y1="1" y2="99"></line><path class="stroke_order_diagram--existing_path" d="M19.8,14.75c3.84,2.03,9.92,8.34,10.88,11.5" id="Ske2yy14n3v" kvg:type="㇔" transform="matrix(1,0,0,1,1196,-4)" xmlns:kvg="http://kanjivg.tagaini.net"></path><path class="stroke_order_diagram--existing_path" d="M10.12,35.58c0.71,0.23,3.4,0.27,4.1,0.23c8.72-0.42,14.78-1.31,21.33-2.37c1.17-0.19,2.95-0.39,3.54-0.27" id="Ske2yy14n3w" kvg:type="㇐" transform="matrix(1,0,0,1,1196,-4)" xmlns:kvg="http://kanjivg.tagaini.net"></path><path class="stroke_order_diagram--existing_path" d="M15.18,48.06c0.43,0.12,3.04,0.13,3.47,0.12c4.44-0.14,9.86-1.43,14.34-2.05c0.7-0.1,3.68,0.06,4.04,0.12" id="Ske2yy14n3x" kvg:type="㇐" transform="matrix(1,0,0,1,1196,-4)" xmlns:kvg="http://kanjivg.tagaini.net"></path><path class="stroke_order_diagram--existing_path" d="M14.3,61.83c0.38,0.12,2.71,0.13,3.1,0.12c3.97-0.13,11.61-1.2,15.83-1.59c0.63-0.06,3.29-0.44,3.6-0.39" id="Ske2yy14n3y" kvg:type="㇐" transform="matrix(1,0,0,1,1196,-4)" xmlns:kvg="http://kanjivg.tagaini.net"></path><path class="stroke_order_diagram--existing_path" d="M15.01,74.05c0.36,0.35,0.78,1.1,0.89,1.55c1.03,3.99,1.81,13.79,2.85,19.65" id="Ske2yy14n3z" kvg:type="㇑" transform="matrix(1,0,0,1,1196,-4)" xmlns:kvg="http://kanjivg.tagaini.net"></path><path class="stroke_order_diagram--existing_path" d="M16.34,75.44c6.7-0.84,13.39-2.47,19.57-3.32c1.55-0.21,2.49,0.98,2.27,1.96c-0.92,4.03-1.76,10.27-3.4,16.97" id="Ske2yy14n40" kvg:type="㇕b" transform="matrix(1,0,0,1,1196,-4)" xmlns:kvg="http://kanjivg.tagaini.net"></path><path class="stroke_order_diagram--existing_path" d="M19.04,92.24c5-0.51,11.93-0.92,18.79-1.71" id="Ske2yy14n41" kvg:type="㇐b" transform="matrix(1,0,0,1,1196,-4)" xmlns:kvg="http://kanjivg.tagaini.net"></path><path class="stroke_order_diagram--existing_path" d="M65.44,11.27c0.4,0.38,1.17,1.71,0.91,2.56C64.75,19,62.5,26,59.47,34.65" id="Ske2yy14n42" kvg:type="㇑" transform="matrix(1,0,0,1,1196,-4)" xmlns:kvg="http://kanjivg.tagaini.net"></path><path class="stroke_order_diagram--existing_path" d="M49.08,22.53c1.42,0.47,3.23,0.82,3.84,0.78c10.58-0.8,27.94-2.97,28.81-3c1.46-0.05,2.24,1.38,2.05,2.44c-0.73,4.12-1.52,6.25-2.11,8.85" id="Ske2yy14n43" kvg:type="㇕" transform="matrix(1,0,0,1,1196,-4)" xmlns:kvg="http://kanjivg.tagaini.net"></path><path class="stroke_order_diagram--existing_path" d="M44.19,35.85c0.8,0.27,2.78,0.23,3.59,0.17c6.97-0.52,29.02-2.41,44.43-3.71c1.33-0.11,2.65,0.05,3.32,0.18" id="Ske2yy14n44" kvg:type="㇐" transform="matrix(1,0,0,1,1196,-4)" xmlns:kvg="http://kanjivg.tagaini.net"></path><path class="stroke_order_diagram--existing_path" d="M52.48,42.68c0.27,0.38,0.55,0.7,0.67,1.18c0.94,3.85,1.63,6.58,2.49,13.42" id="Ske2yy14n45" kvg:type="㇑" transform="matrix(1,0,0,1,1196,-4)" xmlns:kvg="http://kanjivg.tagaini.net"></path><path class="stroke_order_diagram--existing_path" d="M53.44,43.91c8.54-0.89,26.31-2.68,29.9-2.96c2.6-0.2,3.39,1.22,3.02,2.36c-0.68,2.11-2.23,7.38-2.77,9.98" id="Ske2yy14n46" kvg:type="㇕b" transform="matrix(1,0,0,1,1196,-4)" xmlns:kvg="http://kanjivg.tagaini.net"></path><path class="stroke_order_diagram--current_path" d="M56.46,55.75c5.55-0.59,21.69-1.84,29.78-2.26" id="kvg:08af1-s13" kvg:type="㇐b" transform="matrix(1,0,0,1,1196,-4)" xmlns:kvg="http://kanjivg.tagaini.net"></path><path class="stroke_order_diagram--current_path" d="M56.46,55.75c5.55-0.59,21.69-1.84,29.78-2.26" id="Ske2yy14n48" kvg:type="㇐b" transform="matrix(1,0,0,1,1196,-4)" xmlns:kvg="http://kanjivg.tagaini.net"></path><circle class="stroke_order_diagram--path_start" cx="56.46" cy="55.75" r="4" transform="matrix(1,0,0,1,1196,-4)"></circle><line class="stroke_order_diagram--guide_line" x1="1350" x2="1350" y1="1" y2="99"></line><line class="stroke_order_diagram--bounding_box" x1="1399" x2="1399" y1="1" y2="99"></line><path class="stroke_order_diagram--existing_path" d="M19.8,14.75c3.84,2.03,9.92,8.34,10.88,11.5" id="Ske2yy14n4b" kvg:type="㇔" transform="matrix(1,0,0,1,1296,-4)" xmlns:kvg="http://kanjivg.tagaini.net"></path><path class="stroke_order_diagram--existing_path" d="M10.12,35.58c0.71,0.23,3.4,0.27,4.1,0.23c8.72-0.42,14.78-1.31,21.33-2.37c1.17-0.19,2.95-0.39,3.54-0.27" id="Ske2yy14n4c" kvg:type="㇐" transform="matrix(1,0,0,1,1296,-4)" xmlns:kvg="http://kanjivg.tagaini.net"></path><path class="stroke_order_diagram--existing_path" d="M15.18,48.06c0.43,0.12,3.04,0.13,3.47,0.12c4.44-0.14,9.86-1.43,14.34-2.05c0.7-0.1,3.68,0.06,4.04,0.12" id="Ske2yy14n4d" kvg:type="㇐" transform="matrix(1,0,0,1,1296,-4)" xmlns:kvg="http://kanjivg.tagaini.net"></path><path class="stroke_order_diagram--existing_path" d="M14.3,61.83c0.38,0.12,2.71,0.13,3.1,0.12c3.97-0.13,11.61-1.2,15.83-1.59c0.63-0.06,3.29-0.44,3.6-0.39" id="Ske2yy14n4e" kvg:type="㇐" transform="matrix(1,0,0,1,1296,-4)" xmlns:kvg="http://kanjivg.tagaini.net"></path><path class="stroke_order_diagram--existing_path" d="M15.01,74.05c0.36,0.35,0.78,1.1,0.89,1.55c1.03,3.99,1.81,13.79,2.85,19.65" id="Ske2yy14n4f" kvg:type="㇑" transform="matrix(1,0,0,1,1296,-4)" xmlns:kvg="http://kanjivg.tagaini.net"></path><path class="stroke_order_diagram--existing_path" d="M16.34,75.44c6.7-0.84,13.39-2.47,19.57-3.32c1.55-0.21,2.49,0.98,2.27,1.96c-0.92,4.03-1.76,10.27-3.4,16.97" id="Ske2yy14n4g" kvg:type="㇕b" transform="matrix(1,0,0,1,1296,-4)" xmlns:kvg="http://kanjivg.tagaini.net"></path><path class="stroke_order_diagram--existing_path" d="M19.04,92.24c5-0.51,11.93-0.92,18.79-1.71" id="Ske2yy14n4h" kvg:type="㇐b" transform="matrix(1,0,0,1,1296,-4)" xmlns:kvg="http://kanjivg.tagaini.net"></path><path class="stroke_order_diagram--existing_path" d="M65.44,11.27c0.4,0.38,1.17,1.71,0.91,2.56C64.75,19,62.5,26,59.47,34.65" id="Ske2yy14n4i" kvg:type="㇑" transform="matrix(1,0,0,1,1296,-4)" xmlns:kvg="http://kanjivg.tagaini.net"></path><path class="stroke_order_diagram--existing_path" d="M49.08,22.53c1.42,0.47,3.23,0.82,3.84,0.78c10.58-0.8,27.94-2.97,28.81-3c1.46-0.05,2.24,1.38,2.05,2.44c-0.73,4.12-1.52,6.25-2.11,8.85" id="Ske2yy14n4j" kvg:type="㇕" transform="matrix(1,0,0,1,1296,-4)" xmlns:kvg="http://kanjivg.tagaini.net"></path><path class="stroke_order_diagram--existing_path" d="M44.19,35.85c0.8,0.27,2.78,0.23,3.59,0.17c6.97-0.52,29.02-2.41,44.43-3.71c1.33-0.11,2.65,0.05,3.32,0.18" id="Ske2yy14n4k" kvg:type="㇐" transform="matrix(1,0,0,1,1296,-4)" xmlns:kvg="http://kanjivg.tagaini.net"></path><path class="stroke_order_diagram--existing_path" d="M52.48,42.68c0.27,0.38,0.55,0.7,0.67,1.18c0.94,3.85,1.63,6.58,2.49,13.42" id="Ske2yy14n4l" kvg:type="㇑" transform="matrix(1,0,0,1,1296,-4)" xmlns:kvg="http://kanjivg.tagaini.net"></path><path class="stroke_order_diagram--existing_path" d="M53.44,43.91c8.54-0.89,26.31-2.68,29.9-2.96c2.6-0.2,3.39,1.22,3.02,2.36c-0.68,2.11-2.23,7.38-2.77,9.98" id="Ske2yy14n4m" kvg:type="㇕b" transform="matrix(1,0,0,1,1296,-4)" xmlns:kvg="http://kanjivg.tagaini.net"></path><path class="stroke_order_diagram--existing_path" d="M56.46,55.75c5.55-0.59,21.69-1.84,29.78-2.26" id="Ske2yy14n4n" kvg:type="㇐b" transform="matrix(1,0,0,1,1296,-4)" xmlns:kvg="http://kanjivg.tagaini.net"></path><path class="stroke_order_diagram--current_path" d="M53.86,67.63c0.61,0.27,2.84,0.33,3.44,0.32c5.97-0.08,21.45-1.84,32.08-2.47c1.01-0.06,1.62,0.15,2.12,0.29" id="kvg:08af1-s14" kvg:type="㇐" transform="matrix(1,0,0,1,1296,-4)" xmlns:kvg="http://kanjivg.tagaini.net"></path><path class="stroke_order_diagram--current_path" d="M53.86,67.63c0.61,0.27,2.84,0.33,3.44,0.32c5.97-0.08,21.45-1.84,32.08-2.47c1.01-0.06,1.62,0.15,2.12,0.29" id="Ske2yy14n4p" kvg:type="㇐" transform="matrix(1,0,0,1,1296,-4)" xmlns:kvg="http://kanjivg.tagaini.net"></path><circle class="stroke_order_diagram--path_start" cx="53.86" cy="67.63" r="4" transform="matrix(1,0,0,1,1296,-4)"></circle><line class="stroke_order_diagram--guide_line" x1="1450" x2="1450" y1="1" y2="99"></line><line class="stroke_order_diagram--bounding_box" x1="1499" x2="1499" y1="1" y2="99"></line><path class="stroke_order_diagram--existing_path" d="M19.8,14.75c3.84,2.03,9.92,8.34,10.88,11.5" id="Ske2yy14n4s" kvg:type="㇔" transform="matrix(1,0,0,1,1396,-4)" xmlns:kvg="http://kanjivg.tagaini.net"></path><path class="stroke_order_diagram--existing_path" d="M10.12,35.58c0.71,0.23,3.4,0.27,4.1,0.23c8.72-0.42,14.78-1.31,21.33-2.37c1.17-0.19,2.95-0.39,3.54-0.27" id="Ske2yy14n4t" kvg:type="㇐" transform="matrix(1,0,0,1,1396,-4)" xmlns:kvg="http://kanjivg.tagaini.net"></path><path class="stroke_order_diagram--existing_path" d="M15.18,48.06c0.43,0.12,3.04,0.13,3.47,0.12c4.44-0.14,9.86-1.43,14.34-2.05c0.7-0.1,3.68,0.06,4.04,0.12" id="Ske2yy14n4u" kvg:type="㇐" transform="matrix(1,0,0,1,1396,-4)" xmlns:kvg="http://kanjivg.tagaini.net"></path><path class="stroke_order_diagram--existing_path" d="M14.3,61.83c0.38,0.12,2.71,0.13,3.1,0.12c3.97-0.13,11.61-1.2,15.83-1.59c0.63-0.06,3.29-0.44,3.6-0.39" id="Ske2yy14n4v" kvg:type="㇐" transform="matrix(1,0,0,1,1396,-4)" xmlns:kvg="http://kanjivg.tagaini.net"></path><path class="stroke_order_diagram--existing_path" d="M15.01,74.05c0.36,0.35,0.78,1.1,0.89,1.55c1.03,3.99,1.81,13.79,2.85,19.65" id="Ske2yy14n4w" kvg:type="㇑" transform="matrix(1,0,0,1,1396,-4)" xmlns:kvg="http://kanjivg.tagaini.net"></path><path class="stroke_order_diagram--existing_path" d="M16.34,75.44c6.7-0.84,13.39-2.47,19.57-3.32c1.55-0.21,2.49,0.98,2.27,1.96c-0.92,4.03-1.76,10.27-3.4,16.97" id="Ske2yy14n4x" kvg:type="㇕b" transform="matrix(1,0,0,1,1396,-4)" xmlns:kvg="http://kanjivg.tagaini.net"></path><path class="stroke_order_diagram--existing_path" d="M19.04,92.24c5-0.51,11.93-0.92,18.79-1.71" id="Ske2yy14n4y" kvg:type="㇐b" transform="matrix(1,0,0,1,1396,-4)" xmlns:kvg="http://kanjivg.tagaini.net"></path><path class="stroke_order_diagram--existing_path" d="M65.44,11.27c0.4,0.38,1.17,1.71,0.91,2.56C64.75,19,62.5,26,59.47,34.65" id="Ske2yy14n4z" kvg:type="㇑" transform="matrix(1,0,0,1,1396,-4)" xmlns:kvg="http://kanjivg.tagaini.net"></path><path class="stroke_order_diagram--existing_path" d="M49.08,22.53c1.42,0.47,3.23,0.82,3.84,0.78c10.58-0.8,27.94-2.97,28.81-3c1.46-0.05,2.24,1.38,2.05,2.44c-0.73,4.12-1.52,6.25-2.11,8.85" id="Ske2yy14n50" kvg:type="㇕" transform="matrix(1,0,0,1,1396,-4)" xmlns:kvg="http://kanjivg.tagaini.net"></path><path class="stroke_order_diagram--existing_path" d="M44.19,35.85c0.8,0.27,2.78,0.23,3.59,0.17c6.97-0.52,29.02-2.41,44.43-3.71c1.33-0.11,2.65,0.05,3.32,0.18" id="Ske2yy14n51" kvg:type="㇐" transform="matrix(1,0,0,1,1396,-4)" xmlns:kvg="http://kanjivg.tagaini.net"></path><path class="stroke_order_diagram--existing_path" d="M52.48,42.68c0.27,0.38,0.55,0.7,0.67,1.18c0.94,3.85,1.63,6.58,2.49,13.42" id="Ske2yy14n52" kvg:type="㇑" transform="matrix(1,0,0,1,1396,-4)" xmlns:kvg="http://kanjivg.tagaini.net"></path><path class="stroke_order_diagram--existing_path" d="M53.44,43.91c8.54-0.89,26.31-2.68,29.9-2.96c2.6-0.2,3.39,1.22,3.02,2.36c-0.68,2.11-2.23,7.38-2.77,9.98" id="Ske2yy14n53" kvg:type="㇕b" transform="matrix(1,0,0,1,1396,-4)" xmlns:kvg="http://kanjivg.tagaini.net"></path><path class="stroke_order_diagram--existing_path" d="M56.46,55.75c5.55-0.59,21.69-1.84,29.78-2.26" id="Ske2yy14n54" kvg:type="㇐b" transform="matrix(1,0,0,1,1396,-4)" xmlns:kvg="http://kanjivg.tagaini.net"></path><path class="stroke_order_diagram--existing_path" d="M53.86,67.63c0.61,0.27,2.84,0.33,3.44,0.32c5.97-0.08,21.45-1.84,32.08-2.47c1.01-0.06,1.62,0.15,2.12,0.29" id="Ske2yy14n55" kvg:type="㇐" transform="matrix(1,0,0,1,1396,-4)" xmlns:kvg="http://kanjivg.tagaini.net"></path><path class="stroke_order_diagram--current_path" d="M57.34,69.28c0,4.15-0.19,7.82-0.19,11.57" id="kvg:08af1-s15" kvg:type="㇑" transform="matrix(1,0,0,1,1396,-4)" xmlns:kvg="http://kanjivg.tagaini.net"></path><path class="stroke_order_diagram--current_path" d="M57.34,69.28c0,4.15-0.19,7.82-0.19,11.57" id="Ske2yy14n57" kvg:type="㇑" transform="matrix(1,0,0,1,1396,-4)" xmlns:kvg="http://kanjivg.tagaini.net"></path><circle class="stroke_order_diagram--path_start" cx="57.34" cy="69.28" r="4" transform="matrix(1,0,0,1,1396,-4)"></circle><line class="stroke_order_diagram--guide_line" x1="1550" x2="1550" y1="1" y2="99"></line><line class="stroke_order_diagram--bounding_box" x1="1599" x2="1599" y1="1" y2="99"></line><path class="stroke_order_diagram--existing_path" d="M19.8,14.75c3.84,2.03,9.92,8.34,10.88,11.5" id="Ske2yy14n5a" kvg:type="㇔" transform="matrix(1,0,0,1,1496,-4)" xmlns:kvg="http://kanjivg.tagaini.net"></path><path class="stroke_order_diagram--existing_path" d="M10.12,35.58c0.71,0.23,3.4,0.27,4.1,0.23c8.72-0.42,14.78-1.31,21.33-2.37c1.17-0.19,2.95-0.39,3.54-0.27" id="Ske2yy14n5b" kvg:type="㇐" transform="matrix(1,0,0,1,1496,-4)" xmlns:kvg="http://kanjivg.tagaini.net"></path><path class="stroke_order_diagram--existing_path" d="M15.18,48.06c0.43,0.12,3.04,0.13,3.47,0.12c4.44-0.14,9.86-1.43,14.34-2.05c0.7-0.1,3.68,0.06,4.04,0.12" id="Ske2yy14n5c" kvg:type="㇐" transform="matrix(1,0,0,1,1496,-4)" xmlns:kvg="http://kanjivg.tagaini.net"></path><path class="stroke_order_diagram--existing_path" d="M14.3,61.83c0.38,0.12,2.71,0.13,3.1,0.12c3.97-0.13,11.61-1.2,15.83-1.59c0.63-0.06,3.29-0.44,3.6-0.39" id="Ske2yy14n5d" kvg:type="㇐" transform="matrix(1,0,0,1,1496,-4)" xmlns:kvg="http://kanjivg.tagaini.net"></path><path class="stroke_order_diagram--existing_path" d="M15.01,74.05c0.36,0.35,0.78,1.1,0.89,1.55c1.03,3.99,1.81,13.79,2.85,19.65" id="Ske2yy14n5e" kvg:type="㇑" transform="matrix(1,0,0,1,1496,-4)" xmlns:kvg="http://kanjivg.tagaini.net"></path><path class="stroke_order_diagram--existing_path" d="M16.34,75.44c6.7-0.84,13.39-2.47,19.57-3.32c1.55-0.21,2.49,0.98,2.27,1.96c-0.92,4.03-1.76,10.27-3.4,16.97" id="Ske2yy14n5f" kvg:type="㇕b" transform="matrix(1,0,0,1,1496,-4)" xmlns:kvg="http://kanjivg.tagaini.net"></path><path class="stroke_order_diagram--existing_path" d="M19.04,92.24c5-0.51,11.93-0.92,18.79-1.71" id="Ske2yy14n5g" kvg:type="㇐b" transform="matrix(1,0,0,1,1496,-4)" xmlns:kvg="http://kanjivg.tagaini.net"></path><path class="stroke_order_diagram--existing_path" d="M65.44,11.27c0.4,0.38,1.17,1.71,0.91,2.56C64.75,19,62.5,26,59.47,34.65" id="Ske2yy14n5h" kvg:type="㇑" transform="matrix(1,0,0,1,1496,-4)" xmlns:kvg="http://kanjivg.tagaini.net"></path><path class="stroke_order_diagram--existing_path" d="M49.08,22.53c1.42,0.47,3.23,0.82,3.84,0.78c10.58-0.8,27.94-2.97,28.81-3c1.46-0.05,2.24,1.38,2.05,2.44c-0.73,4.12-1.52,6.25-2.11,8.85" id="Ske2yy14n5i" kvg:type="㇕" transform="matrix(1,0,0,1,1496,-4)" xmlns:kvg="http://kanjivg.tagaini.net"></path><path class="stroke_order_diagram--existing_path" d="M44.19,35.85c0.8,0.27,2.78,0.23,3.59,0.17c6.97-0.52,29.02-2.41,44.43-3.71c1.33-0.11,2.65,0.05,3.32,0.18" id="Ske2yy14n5j" kvg:type="㇐" transform="matrix(1,0,0,1,1496,-4)" xmlns:kvg="http://kanjivg.tagaini.net"></path><path class="stroke_order_diagram--existing_path" d="M52.48,42.68c0.27,0.38,0.55,0.7,0.67,1.18c0.94,3.85,1.63,6.58,2.49,13.42" id="Ske2yy14n5k" kvg:type="㇑" transform="matrix(1,0,0,1,1496,-4)" xmlns:kvg="http://kanjivg.tagaini.net"></path><path class="stroke_order_diagram--existing_path" d="M53.44,43.91c8.54-0.89,26.31-2.68,29.9-2.96c2.6-0.2,3.39,1.22,3.02,2.36c-0.68,2.11-2.23,7.38-2.77,9.98" id="Ske2yy14n5l" kvg:type="㇕b" transform="matrix(1,0,0,1,1496,-4)" xmlns:kvg="http://kanjivg.tagaini.net"></path><path class="stroke_order_diagram--existing_path" d="M56.46,55.75c5.55-0.59,21.69-1.84,29.78-2.26" id="Ske2yy14n5m" kvg:type="㇐b" transform="matrix(1,0,0,1,1496,-4)" xmlns:kvg="http://kanjivg.tagaini.net"></path><path class="stroke_order_diagram--existing_path" d="M53.86,67.63c0.61,0.27,2.84,0.33,3.44,0.32c5.97-0.08,21.45-1.84,32.08-2.47c1.01-0.06,1.62,0.15,2.12,0.29" id="Ske2yy14n5n" kvg:type="㇐" transform="matrix(1,0,0,1,1496,-4)" xmlns:kvg="http://kanjivg.tagaini.net"></path><path class="stroke_order_diagram--existing_path" d="M57.34,69.28c0,4.15-0.19,7.82-0.19,11.57" id="Ske2yy14n5o" kvg:type="㇑" transform="matrix(1,0,0,1,1496,-4)" xmlns:kvg="http://kanjivg.tagaini.net"></path><path class="stroke_order_diagram--current_path" d="M44.12,80.83c1.1,0.43,3.13,0.55,4.23,0.49c12.79-0.71,28.04-1.9,45.35-2.9c1.84-0.11,2.94,0.25,3.86,0.48" id="kvg:08af1-s16" kvg:type="㇐" transform="matrix(1,0,0,1,1496,-4)" xmlns:kvg="http://kanjivg.tagaini.net"></path><path class="stroke_order_diagram--current_path" d="M44.12,80.83c1.1,0.43,3.13,0.55,4.23,0.49c12.79-0.71,28.04-1.9,45.35-2.9c1.84-0.11,2.94,0.25,3.86,0.48" id="Ske2yy14n5q" kvg:type="㇐" transform="matrix(1,0,0,1,1496,-4)" xmlns:kvg="http://kanjivg.tagaini.net"></path><circle class="stroke_order_diagram--path_start" cx="44.12" cy="80.83" r="4" transform="matrix(1,0,0,1,1496,-4)"></circle><line class="stroke_order_diagram--guide_line" x1="1650" x2="1650" y1="1" y2="99"></line><line class="stroke_order_diagram--bounding_box" x1="1699" x2="1699" y1="1" y2="99"></line><path class="stroke_order_diagram--existing_path" d="M19.8,14.75c3.84,2.03,9.92,8.34,10.88,11.5" id="Ske2yy14n5t" kvg:type="㇔" transform="matrix(1,0,0,1,1596,-4)" xmlns:kvg="http://kanjivg.tagaini.net"></path><path class="stroke_order_diagram--existing_path" d="M10.12,35.58c0.71,0.23,3.4,0.27,4.1,0.23c8.72-0.42,14.78-1.31,21.33-2.37c1.17-0.19,2.95-0.39,3.54-0.27" id="Ske2yy14n5u" kvg:type="㇐" transform="matrix(1,0,0,1,1596,-4)" xmlns:kvg="http://kanjivg.tagaini.net"></path><path class="stroke_order_diagram--existing_path" d="M15.18,48.06c0.43,0.12,3.04,0.13,3.47,0.12c4.44-0.14,9.86-1.43,14.34-2.05c0.7-0.1,3.68,0.06,4.04,0.12" id="Ske2yy14n5v" kvg:type="㇐" transform="matrix(1,0,0,1,1596,-4)" xmlns:kvg="http://kanjivg.tagaini.net"></path><path class="stroke_order_diagram--existing_path" d="M14.3,61.83c0.38,0.12,2.71,0.13,3.1,0.12c3.97-0.13,11.61-1.2,15.83-1.59c0.63-0.06,3.29-0.44,3.6-0.39" id="Ske2yy14n5w" kvg:type="㇐" transform="matrix(1,0,0,1,1596,-4)" xmlns:kvg="http://kanjivg.tagaini.net"></path><path class="stroke_order_diagram--existing_path" d="M15.01,74.05c0.36,0.35,0.78,1.1,0.89,1.55c1.03,3.99,1.81,13.79,2.85,19.65" id="Ske2yy14n5x" kvg:type="㇑" transform="matrix(1,0,0,1,1596,-4)" xmlns:kvg="http://kanjivg.tagaini.net"></path><path class="stroke_order_diagram--existing_path" d="M16.34,75.44c6.7-0.84,13.39-2.47,19.57-3.32c1.55-0.21,2.49,0.98,2.27,1.96c-0.92,4.03-1.76,10.27-3.4,16.97" id="Ske2yy14n5y" kvg:type="㇕b" transform="matrix(1,0,0,1,1596,-4)" xmlns:kvg="http://kanjivg.tagaini.net"></path><path class="stroke_order_diagram--existing_path" d="M19.04,92.24c5-0.51,11.93-0.92,18.79-1.71" id="Ske2yy14n5z" kvg:type="㇐b" transform="matrix(1,0,0,1,1596,-4)" xmlns:kvg="http://kanjivg.tagaini.net"></path><path class="stroke_order_diagram--existing_path" d="M65.44,11.27c0.4,0.38,1.17,1.71,0.91,2.56C64.75,19,62.5,26,59.47,34.65" id="Ske2yy14n60" kvg:type="㇑" transform="matrix(1,0,0,1,1596,-4)" xmlns:kvg="http://kanjivg.tagaini.net"></path><path class="stroke_order_diagram--existing_path" d="M49.08,22.53c1.42,0.47,3.23,0.82,3.84,0.78c10.58-0.8,27.94-2.97,28.81-3c1.46-0.05,2.24,1.38,2.05,2.44c-0.73,4.12-1.52,6.25-2.11,8.85" id="Ske2yy14n61" kvg:type="㇕" transform="matrix(1,0,0,1,1596,-4)" xmlns:kvg="http://kanjivg.tagaini.net"></path><path class="stroke_order_diagram--existing_path" d="M44.19,35.85c0.8,0.27,2.78,0.23,3.59,0.17c6.97-0.52,29.02-2.41,44.43-3.71c1.33-0.11,2.65,0.05,3.32,0.18" id="Ske2yy14n62" kvg:type="㇐" transform="matrix(1,0,0,1,1596,-4)" xmlns:kvg="http://kanjivg.tagaini.net"></path><path class="stroke_order_diagram--existing_path" d="M52.48,42.68c0.27,0.38,0.55,0.7,0.67,1.18c0.94,3.85,1.63,6.58,2.49,13.42" id="Ske2yy14n63" kvg:type="㇑" transform="matrix(1,0,0,1,1596,-4)" xmlns:kvg="http://kanjivg.tagaini.net"></path><path class="stroke_order_diagram--existing_path" d="M53.44,43.91c8.54-0.89,26.31-2.68,29.9-2.96c2.6-0.2,3.39,1.22,3.02,2.36c-0.68,2.11-2.23,7.38-2.77,9.98" id="Ske2yy14n64" kvg:type="㇕b" transform="matrix(1,0,0,1,1596,-4)" xmlns:kvg="http://kanjivg.tagaini.net"></path><path class="stroke_order_diagram--existing_path" d="M56.46,55.75c5.55-0.59,21.69-1.84,29.78-2.26" id="Ske2yy14n65" kvg:type="㇐b" transform="matrix(1,0,0,1,1596,-4)" xmlns:kvg="http://kanjivg.tagaini.net"></path><path class="stroke_order_diagram--existing_path" d="M53.86,67.63c0.61,0.27,2.84,0.33,3.44,0.32c5.97-0.08,21.45-1.84,32.08-2.47c1.01-0.06,1.62,0.15,2.12,0.29" id="Ske2yy14n66" kvg:type="㇐" transform="matrix(1,0,0,1,1596,-4)" xmlns:kvg="http://kanjivg.tagaini.net"></path><path class="stroke_order_diagram--existing_path" d="M57.34,69.28c0,4.15-0.19,7.82-0.19,11.57" id="Ske2yy14n67" kvg:type="㇑" transform="matrix(1,0,0,1,1596,-4)" xmlns:kvg="http://kanjivg.tagaini.net"></path><path class="stroke_order_diagram--existing_path" d="M44.12,80.83c1.1,0.43,3.13,0.55,4.23,0.49c12.79-0.71,28.04-1.9,45.35-2.9c1.84-0.11,2.94,0.25,3.86,0.48" id="Ske2yy14n68" kvg:type="㇐" transform="matrix(1,0,0,1,1596,-4)" xmlns:kvg="http://kanjivg.tagaini.net"></path><path class="stroke_order_diagram--current_path" d="M75.15,58.39c0.38,0.4,1.19,3.04,1.27,3.86c0.08,0.82-0.05,32.46-0.13,37.6" id="kvg:08af1-s17" kvg:type="㇑" transform="matrix(1,0,0,1,1596,-4)" xmlns:kvg="http://kanjivg.tagaini.net"></path><path class="stroke_order_diagram--current_path" d="M75.15,58.39c0.38,0.4,1.19,3.04,1.27,3.86c0.08,0.82-0.05,32.46-0.13,37.6" id="Ske2yy14n6a" kvg:type="㇑" transform="matrix(1,0,0,1,1596,-4)" xmlns:kvg="http://kanjivg.tagaini.net"></path><circle class="stroke_order_diagram--path_start" cx="75.15" cy="58.39" r="4" transform="matrix(1,0,0,1,1596,-4)"></circle></svg>