<svg class="stroke_order_diagram--svg_container_for_51866280d5dda796580003ee" style="height: 100px; width: 1000px;" viewbox="0 0 1000 100"><desc>Created with Snap</desc><defs></defs><line class="stroke_order_diagram--bounding_box" x1="1" x2="999" y1="1" y2="1"></line><line class="stroke_order_diagram--bounding_box" x1="1" x2="1" y1="1" y2="99"></line><line class="stroke_order_diagram--bounding_box" x1="1" x2="999" y1="99" y2="99"></line><line class="stroke_order_diagram--guide_line" x1="0" x2="1000" y1="50" y2="50"></line><line class="stroke_order_diagram--guide_line" x1="50" x2="50" y1="1" y2="99"></line><line class="stroke_order_diagram--bounding_box" x1="99" x2="99" y1="1" y2="99"></line><path class="stroke_order_diagram--current_path" d="M19.2,21.18c0.81,0.81,0.99,2.04,0.99,3.6c0,8.22-0.07,30.89-0.06,42.47c0,1.95,0.01,3.4,0.04,4.14" id="kvg:08ca1-s1" kvg:type="㇑" transform="matrix(1,0,0,1,-4,-4)" xmlns:kvg="http://kanjivg.tagaini.net"></path><path class="stroke_order_diagram--current_path" d="M19.2,21.18c0.81,0.81,0.99,2.04,0.99,3.6c0,8.22-0.07,30.89-0.06,42.47c0,1.95,0.01,3.4,0.04,4.14" id="Ske1vb9e1j" kvg:type="㇑" transform="matrix(1,0,0,1,-4,-4)" xmlns:kvg="http://kanjivg.tagaini.net"></path><circle class="stroke_order_diagram--path_start" cx="19.2" cy="21.18" r="4" transform="matrix(1,0,0,1,-4,-4)"></circle><line class="stroke_order_diagram--guide_line" x1="150" x2="150" y1="1" y2="99"></line><line class="stroke_order_diagram--bounding_box" x1="199" x2="199" y1="1" y2="99"></line><path class="stroke_order_diagram--existing_path" d="M19.2,21.18c0.81,0.81,0.99,2.04,0.99,3.6c0,8.22-0.07,30.89-0.06,42.47c0,1.95,0.01,3.4,0.04,4.14" id="Ske1vb9e1m" kvg:type="㇑" transform="matrix(1,0,0,1,96,-4)" xmlns:kvg="http://kanjivg.tagaini.net"></path><path class="stroke_order_diagram--current_path" d="M20.86,21.67c2.29-0.19,19.22-2.69,21.3-2.92c1.74-0.19,2.96,1.08,2.96,2.53c0,5.85-0.1,27.22-0.1,42.97c0,2.22,0.04,3.88,0.04,5.71" id="kvg:08ca1-s2" kvg:type="㇕a" transform="matrix(1,0,0,1,96,-4)" xmlns:kvg="http://kanjivg.tagaini.net"></path><path class="stroke_order_diagram--current_path" d="M20.86,21.67c2.29-0.19,19.22-2.69,21.3-2.92c1.74-0.19,2.96,1.08,2.96,2.53c0,5.85-0.1,27.22-0.1,42.97c0,2.22,0.04,3.88,0.04,5.71" id="Ske1vb9e1o" kvg:type="㇕a" transform="matrix(1,0,0,1,96,-4)" xmlns:kvg="http://kanjivg.tagaini.net"></path><circle class="stroke_order_diagram--path_start" cx="20.86" cy="21.67" r="4" transform="matrix(1,0,0,1,96,-4)"></circle><line class="stroke_order_diagram--guide_line" x1="250" x2="250" y1="1" y2="99"></line><line class="stroke_order_diagram--bounding_box" x1="299" x2="299" y1="1" y2="99"></line><path class="stroke_order_diagram--existing_path" d="M19.2,21.18c0.81,0.81,0.99,2.04,0.99,3.6c0,8.22-0.07,30.89-0.06,42.47c0,1.95,0.01,3.4,0.04,4.14" id="Ske1vb9e1r" kvg:type="㇑" transform="matrix(1,0,0,1,196,-4)" xmlns:kvg="http://kanjivg.tagaini.net"></path><path class="stroke_order_diagram--existing_path" d="M20.86,21.67c2.29-0.19,19.22-2.69,21.3-2.92c1.74-0.19,2.96,1.08,2.96,2.53c0,5.85-0.1,27.22-0.1,42.97c0,2.22,0.04,3.88,0.04,5.71" id="Ske1vb9e1s" kvg:type="㇕a" transform="matrix(1,0,0,1,196,-4)" xmlns:kvg="http://kanjivg.tagaini.net"></path><path class="stroke_order_diagram--current_path" d="M21.32,36.87c8.93-1.24,17.8-2.24,22.55-2.66" id="kvg:08ca1-s3" kvg:type="㇐a" transform="matrix(1,0,0,1,196,-4)" xmlns:kvg="http://kanjivg.tagaini.net"></path><path class="stroke_order_diagram--current_path" d="M21.32,36.87c8.93-1.24,17.8-2.24,22.55-2.66" id="Ske1vb9e1u" kvg:type="㇐a" transform="matrix(1,0,0,1,196,-4)" xmlns:kvg="http://kanjivg.tagaini.net"></path><circle class="stroke_order_diagram--path_start" cx="21.32" cy="36.87" r="4" transform="matrix(1,0,0,1,196,-4)"></circle><line class="stroke_order_diagram--guide_line" x1="350" x2="350" y1="1" y2="99"></line><line class="stroke_order_diagram--bounding_box" x1="399" x2="399" y1="1" y2="99"></line><path class="stroke_order_diagram--existing_path" d="M19.2,21.18c0.81,0.81,0.99,2.04,0.99,3.6c0,8.22-0.07,30.89-0.06,42.47c0,1.95,0.01,3.4,0.04,4.14" id="Ske1vb9e1x" kvg:type="㇑" transform="matrix(1,0,0,1,296,-4)" xmlns:kvg="http://kanjivg.tagaini.net"></path><path class="stroke_order_diagram--existing_path" d="M20.86,21.67c2.29-0.19,19.22-2.69,21.3-2.92c1.74-0.19,2.96,1.08,2.96,2.53c0,5.85-0.1,27.22-0.1,42.97c0,2.22,0.04,3.88,0.04,5.71" id="Ske1vb9e1y" kvg:type="㇕a" transform="matrix(1,0,0,1,296,-4)" xmlns:kvg="http://kanjivg.tagaini.net"></path><path class="stroke_order_diagram--existing_path" d="M21.32,36.87c8.93-1.24,17.8-2.24,22.55-2.66" id="Ske1vb9e1z" kvg:type="㇐a" transform="matrix(1,0,0,1,296,-4)" xmlns:kvg="http://kanjivg.tagaini.net"></path><path class="stroke_order_diagram--current_path" d="M21.01,51.95c8.74-0.95,13.24-1.7,22.84-2.59" id="kvg:08ca1-s4" kvg:type="㇐a" transform="matrix(1,0,0,1,296,-4)" xmlns:kvg="http://kanjivg.tagaini.net"></path><path class="stroke_order_diagram--current_path" d="M21.01,51.95c8.74-0.95,13.24-1.7,22.84-2.59" id="Ske1vb9e111" kvg:type="㇐a" transform="matrix(1,0,0,1,296,-4)" xmlns:kvg="http://kanjivg.tagaini.net"></path><circle class="stroke_order_diagram--path_start" cx="21.01" cy="51.95" r="4" transform="matrix(1,0,0,1,296,-4)"></circle><line class="stroke_order_diagram--guide_line" x1="450" x2="450" y1="1" y2="99"></line><line class="stroke_order_diagram--bounding_box" x1="499" x2="499" y1="1" y2="99"></line><path class="stroke_order_diagram--existing_path" d="M19.2,21.18c0.81,0.81,0.99,2.04,0.99,3.6c0,8.22-0.07,30.89-0.06,42.47c0,1.95,0.01,3.4,0.04,4.14" id="Ske1vb9e114" kvg:type="㇑" transform="matrix(1,0,0,1,396,-4)" xmlns:kvg="http://kanjivg.tagaini.net"></path><path class="stroke_order_diagram--existing_path" d="M20.86,21.67c2.29-0.19,19.22-2.69,21.3-2.92c1.74-0.19,2.96,1.08,2.96,2.53c0,5.85-0.1,27.22-0.1,42.97c0,2.22,0.04,3.88,0.04,5.71" id="Ske1vb9e115" kvg:type="㇕a" transform="matrix(1,0,0,1,396,-4)" xmlns:kvg="http://kanjivg.tagaini.net"></path><path class="stroke_order_diagram--existing_path" d="M21.32,36.87c8.93-1.24,17.8-2.24,22.55-2.66" id="Ske1vb9e116" kvg:type="㇐a" transform="matrix(1,0,0,1,396,-4)" xmlns:kvg="http://kanjivg.tagaini.net"></path><path class="stroke_order_diagram--existing_path" d="M21.01,51.95c8.74-0.95,13.24-1.7,22.84-2.59" id="Ske1vb9e117" kvg:type="㇐a" transform="matrix(1,0,0,1,396,-4)" xmlns:kvg="http://kanjivg.tagaini.net"></path><path class="stroke_order_diagram--current_path" d="M21.35,68.98c7.15-0.98,14.4-2.23,22.59-2.84" id="kvg:08ca1-s5" kvg:type="㇐a" transform="matrix(1,0,0,1,396,-4)" xmlns:kvg="http://kanjivg.tagaini.net"></path><path class="stroke_order_diagram--current_path" d="M21.35,68.98c7.15-0.98,14.4-2.23,22.59-2.84" id="Ske1vb9e119" kvg:type="㇐a" transform="matrix(1,0,0,1,396,-4)" xmlns:kvg="http://kanjivg.tagaini.net"></path><circle class="stroke_order_diagram--path_start" cx="21.35" cy="68.98" r="4" transform="matrix(1,0,0,1,396,-4)"></circle><line class="stroke_order_diagram--guide_line" x1="550" x2="550" y1="1" y2="99"></line><line class="stroke_order_diagram--bounding_box" x1="599" x2="599" y1="1" y2="99"></line><path class="stroke_order_diagram--existing_path" d="M19.2,21.18c0.81,0.81,0.99,2.04,0.99,3.6c0,8.22-0.07,30.89-0.06,42.47c0,1.95,0.01,3.4,0.04,4.14" id="Ske1vb9e11c" kvg:type="㇑" transform="matrix(1,0,0,1,496,-4)" xmlns:kvg="http://kanjivg.tagaini.net"></path><path class="stroke_order_diagram--existing_path" d="M20.86,21.67c2.29-0.19,19.22-2.69,21.3-2.92c1.74-0.19,2.96,1.08,2.96,2.53c0,5.85-0.1,27.22-0.1,42.97c0,2.22,0.04,3.88,0.04,5.71" id="Ske1vb9e11d" kvg:type="㇕a" transform="matrix(1,0,0,1,496,-4)" xmlns:kvg="http://kanjivg.tagaini.net"></path><path class="stroke_order_diagram--existing_path" d="M21.32,36.87c8.93-1.24,17.8-2.24,22.55-2.66" id="Ske1vb9e11e" kvg:type="㇐a" transform="matrix(1,0,0,1,496,-4)" xmlns:kvg="http://kanjivg.tagaini.net"></path><path class="stroke_order_diagram--existing_path" d="M21.01,51.95c8.74-0.95,13.24-1.7,22.84-2.59" id="Ske1vb9e11f" kvg:type="㇐a" transform="matrix(1,0,0,1,496,-4)" xmlns:kvg="http://kanjivg.tagaini.net"></path><path class="stroke_order_diagram--existing_path" d="M21.35,68.98c7.15-0.98,14.4-2.23,22.59-2.84" id="Ske1vb9e11g" kvg:type="㇐a" transform="matrix(1,0,0,1,496,-4)" xmlns:kvg="http://kanjivg.tagaini.net"></path><path class="stroke_order_diagram--current_path" d="M27.2,75.98c0.29,1.09,0.09,1.88-0.5,2.67c-1.77,2.39-7.48,9.02-11.03,11.84" id="kvg:08ca1-s6" kvg:type="㇒" transform="matrix(1,0,0,1,496,-4)" xmlns:kvg="http://kanjivg.tagaini.net"></path><path class="stroke_order_diagram--current_path" d="M27.2,75.98c0.29,1.09,0.09,1.88-0.5,2.67c-1.77,2.39-7.48,9.02-11.03,11.84" id="Ske1vb9e11i" kvg:type="㇒" transform="matrix(1,0,0,1,496,-4)" xmlns:kvg="http://kanjivg.tagaini.net"></path><circle class="stroke_order_diagram--path_start" cx="27.2" cy="75.98" r="4" transform="matrix(1,0,0,1,496,-4)"></circle><line class="stroke_order_diagram--guide_line" x1="650" x2="650" y1="1" y2="99"></line><line class="stroke_order_diagram--bounding_box" x1="699" x2="699" y1="1" y2="99"></line><path class="stroke_order_diagram--existing_path" d="M19.2,21.18c0.81,0.81,0.99,2.04,0.99,3.6c0,8.22-0.07,30.89-0.06,42.47c0,1.95,0.01,3.4,0.04,4.14" id="Ske1vb9e11l" kvg:type="㇑" transform="matrix(1,0,0,1,596,-4)" xmlns:kvg="http://kanjivg.tagaini.net"></path><path class="stroke_order_diagram--existing_path" d="M20.86,21.67c2.29-0.19,19.22-2.69,21.3-2.92c1.74-0.19,2.96,1.08,2.96,2.53c0,5.85-0.1,27.22-0.1,42.97c0,2.22,0.04,3.88,0.04,5.71" id="Ske1vb9e11m" kvg:type="㇕a" transform="matrix(1,0,0,1,596,-4)" xmlns:kvg="http://kanjivg.tagaini.net"></path><path class="stroke_order_diagram--existing_path" d="M21.32,36.87c8.93-1.24,17.8-2.24,22.55-2.66" id="Ske1vb9e11n" kvg:type="㇐a" transform="matrix(1,0,0,1,596,-4)" xmlns:kvg="http://kanjivg.tagaini.net"></path><path class="stroke_order_diagram--existing_path" d="M21.01,51.95c8.74-0.95,13.24-1.7,22.84-2.59" id="Ske1vb9e11o" kvg:type="㇐a" transform="matrix(1,0,0,1,596,-4)" xmlns:kvg="http://kanjivg.tagaini.net"></path><path class="stroke_order_diagram--existing_path" d="M21.35,68.98c7.15-0.98,14.4-2.23,22.59-2.84" id="Ske1vb9e11p" kvg:type="㇐a" transform="matrix(1,0,0,1,596,-4)" xmlns:kvg="http://kanjivg.tagaini.net"></path><path class="stroke_order_diagram--existing_path" d="M27.2,75.98c0.29,1.09,0.09,1.88-0.5,2.67c-1.77,2.39-7.48,9.02-11.03,11.84" id="Ske1vb9e11q" kvg:type="㇒" transform="matrix(1,0,0,1,596,-4)" xmlns:kvg="http://kanjivg.tagaini.net"></path><path class="stroke_order_diagram--current_path" d="M40.85,74.7c4.16,3.14,8.84,8.83,9.97,11.58" id="kvg:08ca1-s7" kvg:type="㇔" transform="matrix(1,0,0,1,596,-4)" xmlns:kvg="http://kanjivg.tagaini.net"></path><path class="stroke_order_diagram--current_path" d="M40.85,74.7c4.16,3.14,8.84,8.83,9.97,11.58" id="Ske1vb9e11s" kvg:type="㇔" transform="matrix(1,0,0,1,596,-4)" xmlns:kvg="http://kanjivg.tagaini.net"></path><circle class="stroke_order_diagram--path_start" cx="40.85" cy="74.7" r="4" transform="matrix(1,0,0,1,596,-4)"></circle><line class="stroke_order_diagram--guide_line" x1="750" x2="750" y1="1" y2="99"></line><line class="stroke_order_diagram--bounding_box" x1="799" x2="799" y1="1" y2="99"></line><path class="stroke_order_diagram--existing_path" d="M19.2,21.18c0.81,0.81,0.99,2.04,0.99,3.6c0,8.22-0.07,30.89-0.06,42.47c0,1.95,0.01,3.4,0.04,4.14" id="Ske1vb9e11v" kvg:type="㇑" transform="matrix(1,0,0,1,696,-4)" xmlns:kvg="http://kanjivg.tagaini.net"></path><path class="stroke_order_diagram--existing_path" d="M20.86,21.67c2.29-0.19,19.22-2.69,21.3-2.92c1.74-0.19,2.96,1.08,2.96,2.53c0,5.85-0.1,27.22-0.1,42.97c0,2.22,0.04,3.88,0.04,5.71" id="Ske1vb9e11w" kvg:type="㇕a" transform="matrix(1,0,0,1,696,-4)" xmlns:kvg="http://kanjivg.tagaini.net"></path><path class="stroke_order_diagram--existing_path" d="M21.32,36.87c8.93-1.24,17.8-2.24,22.55-2.66" id="Ske1vb9e11x" kvg:type="㇐a" transform="matrix(1,0,0,1,696,-4)" xmlns:kvg="http://kanjivg.tagaini.net"></path><path class="stroke_order_diagram--existing_path" d="M21.01,51.95c8.74-0.95,13.24-1.7,22.84-2.59" id="Ske1vb9e11y" kvg:type="㇐a" transform="matrix(1,0,0,1,696,-4)" xmlns:kvg="http://kanjivg.tagaini.net"></path><path class="stroke_order_diagram--existing_path" d="M21.35,68.98c7.15-0.98,14.4-2.23,22.59-2.84" id="Ske1vb9e11z" kvg:type="㇐a" transform="matrix(1,0,0,1,696,-4)" xmlns:kvg="http://kanjivg.tagaini.net"></path><path class="stroke_order_diagram--existing_path" d="M27.2,75.98c0.29,1.09,0.09,1.88-0.5,2.67c-1.77,2.39-7.48,9.02-11.03,11.84" id="Ske1vb9e120" kvg:type="㇒" transform="matrix(1,0,0,1,696,-4)" xmlns:kvg="http://kanjivg.tagaini.net"></path><path class="stroke_order_diagram--existing_path" d="M40.85,74.7c4.16,3.14,8.84,8.83,9.97,11.58" id="Ske1vb9e121" kvg:type="㇔" transform="matrix(1,0,0,1,696,-4)" xmlns:kvg="http://kanjivg.tagaini.net"></path><path class="stroke_order_diagram--current_path" d="M54.25,37c2.43,0.4,4.55,0.58,7.01,0.31c7.17-0.78,17.53-2.22,29.13-3.35c2.39-0.23,4.74-0.44,7.12,0.04" id="kvg:08ca1-s8" kvg:type="㇐" transform="matrix(1,0,0,1,696,-4)" xmlns:kvg="http://kanjivg.tagaini.net"></path><path class="stroke_order_diagram--current_path" d="M54.25,37c2.43,0.4,4.55,0.58,7.01,0.31c7.17-0.78,17.53-2.22,29.13-3.35c2.39-0.23,4.74-0.44,7.12,0.04" id="Ske1vb9e123" kvg:type="㇐" transform="matrix(1,0,0,1,696,-4)" xmlns:kvg="http://kanjivg.tagaini.net"></path><circle class="stroke_order_diagram--path_start" cx="54.25" cy="37" r="4" transform="matrix(1,0,0,1,696,-4)"></circle><line class="stroke_order_diagram--guide_line" x1="850" x2="850" y1="1" y2="99"></line><line class="stroke_order_diagram--bounding_box" x1="899" x2="899" y1="1" y2="99"></line><path class="stroke_order_diagram--existing_path" d="M19.2,21.18c0.81,0.81,0.99,2.04,0.99,3.6c0,8.22-0.07,30.89-0.06,42.47c0,1.95,0.01,3.4,0.04,4.14" id="Ske1vb9e126" kvg:type="㇑" transform="matrix(1,0,0,1,796,-4)" xmlns:kvg="http://kanjivg.tagaini.net"></path><path class="stroke_order_diagram--existing_path" d="M20.86,21.67c2.29-0.19,19.22-2.69,21.3-2.92c1.74-0.19,2.96,1.08,2.96,2.53c0,5.85-0.1,27.22-0.1,42.97c0,2.22,0.04,3.88,0.04,5.71" id="Ske1vb9e127" kvg:type="㇕a" transform="matrix(1,0,0,1,796,-4)" xmlns:kvg="http://kanjivg.tagaini.net"></path><path class="stroke_order_diagram--existing_path" d="M21.32,36.87c8.93-1.24,17.8-2.24,22.55-2.66" id="Ske1vb9e128" kvg:type="㇐a" transform="matrix(1,0,0,1,796,-4)" xmlns:kvg="http://kanjivg.tagaini.net"></path><path class="stroke_order_diagram--existing_path" d="M21.01,51.95c8.74-0.95,13.24-1.7,22.84-2.59" id="Ske1vb9e129" kvg:type="㇐a" transform="matrix(1,0,0,1,796,-4)" xmlns:kvg="http://kanjivg.tagaini.net"></path><path class="stroke_order_diagram--existing_path" d="M21.35,68.98c7.15-0.98,14.4-2.23,22.59-2.84" id="Ske1vb9e12a" kvg:type="㇐a" transform="matrix(1,0,0,1,796,-4)" xmlns:kvg="http://kanjivg.tagaini.net"></path><path class="stroke_order_diagram--existing_path" d="M27.2,75.98c0.29,1.09,0.09,1.88-0.5,2.67c-1.77,2.39-7.48,9.02-11.03,11.84" id="Ske1vb9e12b" kvg:type="㇒" transform="matrix(1,0,0,1,796,-4)" xmlns:kvg="http://kanjivg.tagaini.net"></path><path class="stroke_order_diagram--existing_path" d="M40.85,74.7c4.16,3.14,8.84,8.83,9.97,11.58" id="Ske1vb9e12c" kvg:type="㇔" transform="matrix(1,0,0,1,796,-4)" xmlns:kvg="http://kanjivg.tagaini.net"></path><path class="stroke_order_diagram--existing_path" d="M54.25,37c2.43,0.4,4.55,0.58,7.01,0.31c7.17-0.78,17.53-2.22,29.13-3.35c2.39-0.23,4.74-0.44,7.12,0.04" id="Ske1vb9e12d" kvg:type="㇐" transform="matrix(1,0,0,1,796,-4)" xmlns:kvg="http://kanjivg.tagaini.net"></path><path class="stroke_order_diagram--current_path" d="M80.77,13.58c1.08,1.08,1.76,3.17,1.76,5.02c0,14.56-0.01,66.91-0.01,71.87c0,8.78-7.21,0.5-8.71-0.75" id="kvg:08ca1-s9" kvg:type="㇚" transform="matrix(1,0,0,1,796,-4)" xmlns:kvg="http://kanjivg.tagaini.net"></path><path class="stroke_order_diagram--current_path" d="M80.77,13.58c1.08,1.08,1.76,3.17,1.76,5.02c0,14.56-0.01,66.91-0.01,71.87c0,8.78-7.21,0.5-8.71-0.75" id="Ske1vb9e12f" kvg:type="㇚" transform="matrix(1,0,0,1,796,-4)" xmlns:kvg="http://kanjivg.tagaini.net"></path><circle class="stroke_order_diagram--path_start" cx="80.77" cy="13.58" r="4" transform="matrix(1,0,0,1,796,-4)"></circle><line class="stroke_order_diagram--guide_line" x1="950" x2="950" y1="1" y2="99"></line><line class="stroke_order_diagram--bounding_box" x1="999" x2="999" y1="1" y2="99"></line><path class="stroke_order_diagram--existing_path" d="M19.2,21.18c0.81,0.81,0.99,2.04,0.99,3.6c0,8.22-0.07,30.89-0.06,42.47c0,1.95,0.01,3.4,0.04,4.14" id="Ske1vb9e12i" kvg:type="㇑" transform="matrix(1,0,0,1,896,-4)" xmlns:kvg="http://kanjivg.tagaini.net"></path><path class="stroke_order_diagram--existing_path" d="M20.86,21.67c2.29-0.19,19.22-2.69,21.3-2.92c1.74-0.19,2.96,1.08,2.96,2.53c0,5.85-0.1,27.22-0.1,42.97c0,2.22,0.04,3.88,0.04,5.71" id="Ske1vb9e12j" kvg:type="㇕a" transform="matrix(1,0,0,1,896,-4)" xmlns:kvg="http://kanjivg.tagaini.net"></path><path class="stroke_order_diagram--existing_path" d="M21.32,36.87c8.93-1.24,17.8-2.24,22.55-2.66" id="Ske1vb9e12k" kvg:type="㇐a" transform="matrix(1,0,0,1,896,-4)" xmlns:kvg="http://kanjivg.tagaini.net"></path><path class="stroke_order_diagram--existing_path" d="M21.01,51.95c8.74-0.95,13.24-1.7,22.84-2.59" id="Ske1vb9e12l" kvg:type="㇐a" transform="matrix(1,0,0,1,896,-4)" xmlns:kvg="http://kanjivg.tagaini.net"></path><path class="stroke_order_diagram--existing_path" d="M21.35,68.98c7.15-0.98,14.4-2.23,22.59-2.84" id="Ske1vb9e12m" kvg:type="㇐a" transform="matrix(1,0,0,1,896,-4)" xmlns:kvg="http://kanjivg.tagaini.net"></path><path class="stroke_order_diagram--existing_path" d="M27.2,75.98c0.29,1.09,0.09,1.88-0.5,2.67c-1.77,2.39-7.48,9.02-11.03,11.84" id="Ske1vb9e12n" kvg:type="㇒" transform="matrix(1,0,0,1,896,-4)" xmlns:kvg="http://kanjivg.tagaini.net"></path><path class="stroke_order_diagram--existing_path" d="M40.85,74.7c4.16,3.14,8.84,8.83,9.97,11.58" id="Ske1vb9e12o" kvg:type="㇔" transform="matrix(1,0,0,1,896,-4)" xmlns:kvg="http://kanjivg.tagaini.net"></path><path class="stroke_order_diagram--existing_path" d="M54.25,37c2.43,0.4,4.55,0.58,7.01,0.31c7.17-0.78,17.53-2.22,29.13-3.35c2.39-0.23,4.74-0.44,7.12,0.04" id="Ske1vb9e12p" kvg:type="㇐" transform="matrix(1,0,0,1,896,-4)" xmlns:kvg="http://kanjivg.tagaini.net"></path><path class="stroke_order_diagram--existing_path" d="M80.77,13.58c1.08,1.08,1.76,3.17,1.76,5.02c0,14.56-0.01,66.91-0.01,71.87c0,8.78-7.21,0.5-8.71-0.75" id="Ske1vb9e12q" kvg:type="㇚" transform="matrix(1,0,0,1,896,-4)" xmlns:kvg="http://kanjivg.tagaini.net"></path><path class="stroke_order_diagram--current_path" d="M81.54,43.75c0.09,0.71,0.23,1.85-0.17,2.85c-2.5,6.27-13.5,18.02-29.63,27.52" id="kvg:08ca1-s10" kvg:type="㇒" transform="matrix(1,0,0,1,896,-4)" xmlns:kvg="http://kanjivg.tagaini.net"></path><path class="stroke_order_diagram--current_path" d="M81.54,43.75c0.09,0.71,0.23,1.85-0.17,2.85c-2.5,6.27-13.5,18.02-29.63,27.52" id="Ske1vb9e12s" kvg:type="㇒" transform="matrix(1,0,0,1,896,-4)" xmlns:kvg="http://kanjivg.tagaini.net"></path><circle class="stroke_order_diagram--path_start" cx="81.54" cy="43.75" r="4" transform="matrix(1,0,0,1,896,-4)"></circle></svg>