<svg class="stroke_order_diagram--svg_container_for_51866289d5dda79658000616" style="height: 100px; width: 700px;" viewbox="0 0 700 100"><desc>Created with Snap</desc><defs></defs><line class="stroke_order_diagram--bounding_box" x1="1" x2="699" y1="1" y2="1"></line><line class="stroke_order_diagram--bounding_box" x1="1" x2="1" y1="1" y2="99"></line><line class="stroke_order_diagram--bounding_box" x1="1" x2="699" y1="99" y2="99"></line><line class="stroke_order_diagram--guide_line" x1="0" x2="700" y1="50" y2="50"></line><line class="stroke_order_diagram--guide_line" x1="50" x2="50" y1="1" y2="99"></line><line class="stroke_order_diagram--bounding_box" x1="99" x2="99" y1="1" y2="99"></line><path class="stroke_order_diagram--current_path" d="M30.13,29.42c2.55,0.64,5.18,0.48,7.76,0.15c9.53-1.23,23.14-3.87,31.61-4.52c2.51-0.19,4.9-0.13,7.38,0.25" id="kvg:08d64-s1" kvg:type="㇐" transform="matrix(1,0,0,1,-4,-4)" xmlns:kvg="http://kanjivg.tagaini.net"></path><path class="stroke_order_diagram--current_path" d="M30.13,29.42c2.55,0.64,5.18,0.48,7.76,0.15c9.53-1.23,23.14-3.87,31.61-4.52c2.51-0.19,4.9-0.13,7.38,0.25" id="Ske1zwdwug" kvg:type="㇐" transform="matrix(1,0,0,1,-4,-4)" xmlns:kvg="http://kanjivg.tagaini.net"></path><circle class="stroke_order_diagram--path_start" cx="30.13" cy="29.42" r="4" transform="matrix(1,0,0,1,-4,-4)"></circle><line class="stroke_order_diagram--guide_line" x1="150" x2="150" y1="1" y2="99"></line><line class="stroke_order_diagram--bounding_box" x1="199" x2="199" y1="1" y2="99"></line><path class="stroke_order_diagram--existing_path" d="M30.13,29.42c2.55,0.64,5.18,0.48,7.76,0.15c9.53-1.23,23.14-3.87,31.61-4.52c2.51-0.19,4.9-0.13,7.38,0.25" id="Ske1zwdwuj" kvg:type="㇐" transform="matrix(1,0,0,1,96,-4)" xmlns:kvg="http://kanjivg.tagaini.net"></path><path class="stroke_order_diagram--current_path" d="M52.24,12.45c1.53,1.53,2.01,3.55,2.01,5.05c0,3.33,0.04,25.2,0,26.25" id="kvg:08d64-s2" kvg:type="㇑a" transform="matrix(1,0,0,1,96,-4)" xmlns:kvg="http://kanjivg.tagaini.net"></path><path class="stroke_order_diagram--current_path" d="M52.24,12.45c1.53,1.53,2.01,3.55,2.01,5.05c0,3.33,0.04,25.2,0,26.25" id="Ske1zwdwul" kvg:type="㇑a" transform="matrix(1,0,0,1,96,-4)" xmlns:kvg="http://kanjivg.tagaini.net"></path><circle class="stroke_order_diagram--path_start" cx="52.24" cy="12.45" r="4" transform="matrix(1,0,0,1,96,-4)"></circle><line class="stroke_order_diagram--guide_line" x1="250" x2="250" y1="1" y2="99"></line><line class="stroke_order_diagram--bounding_box" x1="299" x2="299" y1="1" y2="99"></line><path class="stroke_order_diagram--existing_path" d="M30.13,29.42c2.55,0.64,5.18,0.48,7.76,0.15c9.53-1.23,23.14-3.87,31.61-4.52c2.51-0.19,4.9-0.13,7.38,0.25" id="Ske1zwdwuo" kvg:type="㇐" transform="matrix(1,0,0,1,196,-4)" xmlns:kvg="http://kanjivg.tagaini.net"></path><path class="stroke_order_diagram--existing_path" d="M52.24,12.45c1.53,1.53,2.01,3.55,2.01,5.05c0,3.33,0.04,25.2,0,26.25" id="Ske1zwdwup" kvg:type="㇑a" transform="matrix(1,0,0,1,196,-4)" xmlns:kvg="http://kanjivg.tagaini.net"></path><path class="stroke_order_diagram--current_path" d="M14.38,49.17c2.64,0.58,4.98,0.91,10.12,0.13c18.5-2.8,40.29-6,58.24-7.47c3.33-0.27,6.79-0.66,10.13-0.3" id="kvg:08d64-s3" kvg:type="㇐" transform="matrix(1,0,0,1,196,-4)" xmlns:kvg="http://kanjivg.tagaini.net"></path><path class="stroke_order_diagram--current_path" d="M14.38,49.17c2.64,0.58,4.98,0.91,10.12,0.13c18.5-2.8,40.29-6,58.24-7.47c3.33-0.27,6.79-0.66,10.13-0.3" id="Ske1zwdwur" kvg:type="㇐" transform="matrix(1,0,0,1,196,-4)" xmlns:kvg="http://kanjivg.tagaini.net"></path><circle class="stroke_order_diagram--path_start" cx="14.38" cy="49.17" r="4" transform="matrix(1,0,0,1,196,-4)"></circle><line class="stroke_order_diagram--guide_line" x1="350" x2="350" y1="1" y2="99"></line><line class="stroke_order_diagram--bounding_box" x1="399" x2="399" y1="1" y2="99"></line><path class="stroke_order_diagram--existing_path" d="M30.13,29.42c2.55,0.64,5.18,0.48,7.76,0.15c9.53-1.23,23.14-3.87,31.61-4.52c2.51-0.19,4.9-0.13,7.38,0.25" id="Ske1zwdwuu" kvg:type="㇐" transform="matrix(1,0,0,1,296,-4)" xmlns:kvg="http://kanjivg.tagaini.net"></path><path class="stroke_order_diagram--existing_path" d="M52.24,12.45c1.53,1.53,2.01,3.55,2.01,5.05c0,3.33,0.04,25.2,0,26.25" id="Ske1zwdwuv" kvg:type="㇑a" transform="matrix(1,0,0,1,296,-4)" xmlns:kvg="http://kanjivg.tagaini.net"></path><path class="stroke_order_diagram--existing_path" d="M14.38,49.17c2.64,0.58,4.98,0.91,10.12,0.13c18.5-2.8,40.29-6,58.24-7.47c3.33-0.27,6.79-0.66,10.13-0.3" id="Ske1zwdwuw" kvg:type="㇐" transform="matrix(1,0,0,1,296,-4)" xmlns:kvg="http://kanjivg.tagaini.net"></path><path class="stroke_order_diagram--current_path" d="M42.78,49.89c0.97,1.23,1.22,3.09,1.2,4.53c-0.22,15.82,0.15,26.07-8.72,37.82" id="kvg:08d64-s4" kvg:type="㇒" transform="matrix(1,0,0,1,296,-4)" xmlns:kvg="http://kanjivg.tagaini.net"></path><path class="stroke_order_diagram--current_path" d="M42.78,49.89c0.97,1.23,1.22,3.09,1.2,4.53c-0.22,15.82,0.15,26.07-8.72,37.82" id="Ske1zwdwuy" kvg:type="㇒" transform="matrix(1,0,0,1,296,-4)" xmlns:kvg="http://kanjivg.tagaini.net"></path><circle class="stroke_order_diagram--path_start" cx="42.78" cy="49.89" r="4" transform="matrix(1,0,0,1,296,-4)"></circle><line class="stroke_order_diagram--guide_line" x1="450" x2="450" y1="1" y2="99"></line><line class="stroke_order_diagram--bounding_box" x1="499" x2="499" y1="1" y2="99"></line><path class="stroke_order_diagram--existing_path" d="M30.13,29.42c2.55,0.64,5.18,0.48,7.76,0.15c9.53-1.23,23.14-3.87,31.61-4.52c2.51-0.19,4.9-0.13,7.38,0.25" id="Ske1zwdwu11" kvg:type="㇐" transform="matrix(1,0,0,1,396,-4)" xmlns:kvg="http://kanjivg.tagaini.net"></path><path class="stroke_order_diagram--existing_path" d="M52.24,12.45c1.53,1.53,2.01,3.55,2.01,5.05c0,3.33,0.04,25.2,0,26.25" id="Ske1zwdwu12" kvg:type="㇑a" transform="matrix(1,0,0,1,396,-4)" xmlns:kvg="http://kanjivg.tagaini.net"></path><path class="stroke_order_diagram--existing_path" d="M14.38,49.17c2.64,0.58,4.98,0.91,10.12,0.13c18.5-2.8,40.29-6,58.24-7.47c3.33-0.27,6.79-0.66,10.13-0.3" id="Ske1zwdwu13" kvg:type="㇐" transform="matrix(1,0,0,1,396,-4)" xmlns:kvg="http://kanjivg.tagaini.net"></path><path class="stroke_order_diagram--existing_path" d="M42.78,49.89c0.97,1.23,1.22,3.09,1.2,4.53c-0.22,15.82,0.15,26.07-8.72,37.82" id="Ske1zwdwu14" kvg:type="㇒" transform="matrix(1,0,0,1,396,-4)" xmlns:kvg="http://kanjivg.tagaini.net"></path><path class="stroke_order_diagram--current_path" d="M61.02,46.83c1.39,1.39,2.01,2.92,2.01,5.02c0,13.52-0.06,30.44-0.06,35.4c0,12.25-3.71,5.75-6.71,2.75" id="kvg:08d64-s5" kvg:type="㇚" transform="matrix(1,0,0,1,396,-4)" xmlns:kvg="http://kanjivg.tagaini.net"></path><path class="stroke_order_diagram--current_path" d="M61.02,46.83c1.39,1.39,2.01,2.92,2.01,5.02c0,13.52-0.06,30.44-0.06,35.4c0,12.25-3.71,5.75-6.71,2.75" id="Ske1zwdwu16" kvg:type="㇚" transform="matrix(1,0,0,1,396,-4)" xmlns:kvg="http://kanjivg.tagaini.net"></path><circle class="stroke_order_diagram--path_start" cx="61.02" cy="46.83" r="4" transform="matrix(1,0,0,1,396,-4)"></circle><line class="stroke_order_diagram--guide_line" x1="550" x2="550" y1="1" y2="99"></line><line class="stroke_order_diagram--bounding_box" x1="599" x2="599" y1="1" y2="99"></line><path class="stroke_order_diagram--existing_path" d="M30.13,29.42c2.55,0.64,5.18,0.48,7.76,0.15c9.53-1.23,23.14-3.87,31.61-4.52c2.51-0.19,4.9-0.13,7.38,0.25" id="Ske1zwdwu19" kvg:type="㇐" transform="matrix(1,0,0,1,496,-4)" xmlns:kvg="http://kanjivg.tagaini.net"></path><path class="stroke_order_diagram--existing_path" d="M52.24,12.45c1.53,1.53,2.01,3.55,2.01,5.05c0,3.33,0.04,25.2,0,26.25" id="Ske1zwdwu1a" kvg:type="㇑a" transform="matrix(1,0,0,1,496,-4)" xmlns:kvg="http://kanjivg.tagaini.net"></path><path class="stroke_order_diagram--existing_path" d="M14.38,49.17c2.64,0.58,4.98,0.91,10.12,0.13c18.5-2.8,40.29-6,58.24-7.47c3.33-0.27,6.79-0.66,10.13-0.3" id="Ske1zwdwu1b" kvg:type="㇐" transform="matrix(1,0,0,1,496,-4)" xmlns:kvg="http://kanjivg.tagaini.net"></path><path class="stroke_order_diagram--existing_path" d="M42.78,49.89c0.97,1.23,1.22,3.09,1.2,4.53c-0.22,15.82,0.15,26.07-8.72,37.82" id="Ske1zwdwu1c" kvg:type="㇒" transform="matrix(1,0,0,1,496,-4)" xmlns:kvg="http://kanjivg.tagaini.net"></path><path class="stroke_order_diagram--existing_path" d="M61.02,46.83c1.39,1.39,2.01,2.92,2.01,5.02c0,13.52-0.06,30.44-0.06,35.4c0,12.25-3.71,5.75-6.71,2.75" id="Ske1zwdwu1d" kvg:type="㇚" transform="matrix(1,0,0,1,496,-4)" xmlns:kvg="http://kanjivg.tagaini.net"></path><path class="stroke_order_diagram--current_path" d="M28.53,63.89c0.35,1.23,0.25,2.31-0.02,3.18c-1.63,5.43-4.42,9.93-9.26,15.93" id="kvg:08d64-s6" kvg:type="㇒" transform="matrix(1,0,0,1,496,-4)" xmlns:kvg="http://kanjivg.tagaini.net"></path><path class="stroke_order_diagram--current_path" d="M28.53,63.89c0.35,1.23,0.25,2.31-0.02,3.18c-1.63,5.43-4.42,9.93-9.26,15.93" id="Ske1zwdwu1f" kvg:type="㇒" transform="matrix(1,0,0,1,496,-4)" xmlns:kvg="http://kanjivg.tagaini.net"></path><circle class="stroke_order_diagram--path_start" cx="28.53" cy="63.89" r="4" transform="matrix(1,0,0,1,496,-4)"></circle><line class="stroke_order_diagram--guide_line" x1="650" x2="650" y1="1" y2="99"></line><line class="stroke_order_diagram--bounding_box" x1="699" x2="699" y1="1" y2="99"></line><path class="stroke_order_diagram--existing_path" d="M30.13,29.42c2.55,0.64,5.18,0.48,7.76,0.15c9.53-1.23,23.14-3.87,31.61-4.52c2.51-0.19,4.9-0.13,7.38,0.25" id="Ske1zwdwu1i" kvg:type="㇐" transform="matrix(1,0,0,1,596,-4)" xmlns:kvg="http://kanjivg.tagaini.net"></path><path class="stroke_order_diagram--existing_path" d="M52.24,12.45c1.53,1.53,2.01,3.55,2.01,5.05c0,3.33,0.04,25.2,0,26.25" id="Ske1zwdwu1j" kvg:type="㇑a" transform="matrix(1,0,0,1,596,-4)" xmlns:kvg="http://kanjivg.tagaini.net"></path><path class="stroke_order_diagram--existing_path" d="M14.38,49.17c2.64,0.58,4.98,0.91,10.12,0.13c18.5-2.8,40.29-6,58.24-7.47c3.33-0.27,6.79-0.66,10.13-0.3" id="Ske1zwdwu1k" kvg:type="㇐" transform="matrix(1,0,0,1,596,-4)" xmlns:kvg="http://kanjivg.tagaini.net"></path><path class="stroke_order_diagram--existing_path" d="M42.78,49.89c0.97,1.23,1.22,3.09,1.2,4.53c-0.22,15.82,0.15,26.07-8.72,37.82" id="Ske1zwdwu1l" kvg:type="㇒" transform="matrix(1,0,0,1,596,-4)" xmlns:kvg="http://kanjivg.tagaini.net"></path><path class="stroke_order_diagram--existing_path" d="M61.02,46.83c1.39,1.39,2.01,2.92,2.01,5.02c0,13.52-0.06,30.44-0.06,35.4c0,12.25-3.71,5.75-6.71,2.75" id="Ske1zwdwu1m" kvg:type="㇚" transform="matrix(1,0,0,1,596,-4)" xmlns:kvg="http://kanjivg.tagaini.net"></path><path class="stroke_order_diagram--existing_path" d="M28.53,63.89c0.35,1.23,0.25,2.31-0.02,3.18c-1.63,5.43-4.42,9.93-9.26,15.93" id="Ske1zwdwu1n" kvg:type="㇒" transform="matrix(1,0,0,1,596,-4)" xmlns:kvg="http://kanjivg.tagaini.net"></path><path class="stroke_order_diagram--current_path" d="M78.77,63.83c3.86,3.92,9.11,12.92,10.98,19.17" id="kvg:08d64-s7" kvg:type="㇔" transform="matrix(1,0,0,1,596,-4)" xmlns:kvg="http://kanjivg.tagaini.net"></path><path class="stroke_order_diagram--current_path" d="M78.77,63.83c3.86,3.92,9.11,12.92,10.98,19.17" id="Ske1zwdwu1p" kvg:type="㇔" transform="matrix(1,0,0,1,596,-4)" xmlns:kvg="http://kanjivg.tagaini.net"></path><circle class="stroke_order_diagram--path_start" cx="78.77" cy="63.83" r="4" transform="matrix(1,0,0,1,596,-4)"></circle></svg>