<svg class="stroke_order_diagram--svg_container_for_518662bfd5dda79658001671" style="height: 100px; width: 1600px;" viewbox="0 0 1600 100"><desc>Created with Snap</desc><defs></defs><line class="stroke_order_diagram--bounding_box" x1="1" x2="1599" y1="1" y2="1"></line><line class="stroke_order_diagram--bounding_box" x1="1" x2="1" y1="1" y2="99"></line><line class="stroke_order_diagram--bounding_box" x1="1" x2="1599" y1="99" y2="99"></line><line class="stroke_order_diagram--guide_line" x1="0" x2="1600" y1="50" y2="50"></line><line class="stroke_order_diagram--guide_line" x1="50" x2="50" y1="1" y2="99"></line><line class="stroke_order_diagram--bounding_box" x1="99" x2="99" y1="1" y2="99"></line><path class="stroke_order_diagram--current_path" d="M11.25,27.5c1.03,0.38,2.93,0.45,3.96,0.38C24.75,27.25,30.25,27,38.89,26c1.71-0.2,2.75,0.18,3.61,0.37" id="kvg:08f39-s1" kvg:type="㇐" transform="matrix(1,0,0,1,-4,-4)" xmlns:kvg="http://kanjivg.tagaini.net"></path><path class="stroke_order_diagram--current_path" d="M11.25,27.5c1.03,0.38,2.93,0.45,3.96,0.38C24.75,27.25,30.25,27,38.89,26c1.71-0.2,2.75,0.18,3.61,0.37" id="Ske30rr1cp" kvg:type="㇐" transform="matrix(1,0,0,1,-4,-4)" xmlns:kvg="http://kanjivg.tagaini.net"></path><circle class="stroke_order_diagram--path_start" cx="11.25" cy="27.5" r="4" transform="matrix(1,0,0,1,-4,-4)"></circle><line class="stroke_order_diagram--guide_line" x1="150" x2="150" y1="1" y2="99"></line><line class="stroke_order_diagram--bounding_box" x1="199" x2="199" y1="1" y2="99"></line><path class="stroke_order_diagram--existing_path" d="M11.25,27.5c1.03,0.38,2.93,0.45,3.96,0.38C24.75,27.25,30.25,27,38.89,26c1.71-0.2,2.75,0.18,3.61,0.37" id="Ske30rr1cs" kvg:type="㇐" transform="matrix(1,0,0,1,96,-4)" xmlns:kvg="http://kanjivg.tagaini.net"></path><path class="stroke_order_diagram--current_path" d="M13.75,38.45c0.42,0.51,0.96,0.9,1.03,1.58c0.57,4.89,2.14,16.95,2.94,26.22" id="kvg:08f39-s2" kvg:type="㇑" transform="matrix(1,0,0,1,96,-4)" xmlns:kvg="http://kanjivg.tagaini.net"></path><path class="stroke_order_diagram--current_path" d="M13.75,38.45c0.42,0.51,0.96,0.9,1.03,1.58c0.57,4.89,2.14,16.95,2.94,26.22" id="Ske30rr1cu" kvg:type="㇑" transform="matrix(1,0,0,1,96,-4)" xmlns:kvg="http://kanjivg.tagaini.net"></path><circle class="stroke_order_diagram--path_start" cx="13.75" cy="38.45" r="4" transform="matrix(1,0,0,1,96,-4)"></circle><line class="stroke_order_diagram--guide_line" x1="250" x2="250" y1="1" y2="99"></line><line class="stroke_order_diagram--bounding_box" x1="299" x2="299" y1="1" y2="99"></line><path class="stroke_order_diagram--existing_path" d="M11.25,27.5c1.03,0.38,2.93,0.45,3.96,0.38C24.75,27.25,30.25,27,38.89,26c1.71-0.2,2.75,0.18,3.61,0.37" id="Ske30rr1cx" kvg:type="㇐" transform="matrix(1,0,0,1,196,-4)" xmlns:kvg="http://kanjivg.tagaini.net"></path><path class="stroke_order_diagram--existing_path" d="M13.75,38.45c0.42,0.51,0.96,0.9,1.03,1.58c0.57,4.89,2.14,16.95,2.94,26.22" id="Ske30rr1cy" kvg:type="㇑" transform="matrix(1,0,0,1,196,-4)" xmlns:kvg="http://kanjivg.tagaini.net"></path><path class="stroke_order_diagram--current_path" d="M15.37,39.8c6.4-0.98,19.43-2.41,23.8-2.57c1.81-0.06,2.18,1.34,2.1,2.88c-0.27,5.27-0.84,15.62-2.73,24.06" id="kvg:08f39-s3" kvg:type="㇕a" transform="matrix(1,0,0,1,196,-4)" xmlns:kvg="http://kanjivg.tagaini.net"></path><path class="stroke_order_diagram--current_path" d="M15.37,39.8c6.4-0.98,19.43-2.41,23.8-2.57c1.81-0.06,2.18,1.34,2.1,2.88c-0.27,5.27-0.84,15.62-2.73,24.06" id="Ske30rr1c10" kvg:type="㇕a" transform="matrix(1,0,0,1,196,-4)" xmlns:kvg="http://kanjivg.tagaini.net"></path><circle class="stroke_order_diagram--path_start" cx="15.37" cy="39.8" r="4" transform="matrix(1,0,0,1,196,-4)"></circle><line class="stroke_order_diagram--guide_line" x1="350" x2="350" y1="1" y2="99"></line><line class="stroke_order_diagram--bounding_box" x1="399" x2="399" y1="1" y2="99"></line><path class="stroke_order_diagram--existing_path" d="M11.25,27.5c1.03,0.38,2.93,0.45,3.96,0.38C24.75,27.25,30.25,27,38.89,26c1.71-0.2,2.75,0.18,3.61,0.37" id="Ske30rr1c13" kvg:type="㇐" transform="matrix(1,0,0,1,296,-4)" xmlns:kvg="http://kanjivg.tagaini.net"></path><path class="stroke_order_diagram--existing_path" d="M13.75,38.45c0.42,0.51,0.96,0.9,1.03,1.58c0.57,4.89,2.14,16.95,2.94,26.22" id="Ske30rr1c14" kvg:type="㇑" transform="matrix(1,0,0,1,296,-4)" xmlns:kvg="http://kanjivg.tagaini.net"></path><path class="stroke_order_diagram--existing_path" d="M15.37,39.8c6.4-0.98,19.43-2.41,23.8-2.57c1.81-0.06,2.18,1.34,2.1,2.88c-0.27,5.27-0.84,15.62-2.73,24.06" id="Ske30rr1c15" kvg:type="㇕a" transform="matrix(1,0,0,1,296,-4)" xmlns:kvg="http://kanjivg.tagaini.net"></path><path class="stroke_order_diagram--current_path" d="M16.76,52.02c6.57-0.7,16.99-1.75,23.46-2.31" id="kvg:08f39-s4" kvg:type="㇐a" transform="matrix(1,0,0,1,296,-4)" xmlns:kvg="http://kanjivg.tagaini.net"></path><path class="stroke_order_diagram--current_path" d="M16.76,52.02c6.57-0.7,16.99-1.75,23.46-2.31" id="Ske30rr1c17" kvg:type="㇐a" transform="matrix(1,0,0,1,296,-4)" xmlns:kvg="http://kanjivg.tagaini.net"></path><circle class="stroke_order_diagram--path_start" cx="16.76" cy="52.02" r="4" transform="matrix(1,0,0,1,296,-4)"></circle><line class="stroke_order_diagram--guide_line" x1="450" x2="450" y1="1" y2="99"></line><line class="stroke_order_diagram--bounding_box" x1="499" x2="499" y1="1" y2="99"></line><path class="stroke_order_diagram--existing_path" d="M11.25,27.5c1.03,0.38,2.93,0.45,3.96,0.38C24.75,27.25,30.25,27,38.89,26c1.71-0.2,2.75,0.18,3.61,0.37" id="Ske30rr1c1a" kvg:type="㇐" transform="matrix(1,0,0,1,396,-4)" xmlns:kvg="http://kanjivg.tagaini.net"></path><path class="stroke_order_diagram--existing_path" d="M13.75,38.45c0.42,0.51,0.96,0.9,1.03,1.58c0.57,4.89,2.14,16.95,2.94,26.22" id="Ske30rr1c1b" kvg:type="㇑" transform="matrix(1,0,0,1,396,-4)" xmlns:kvg="http://kanjivg.tagaini.net"></path><path class="stroke_order_diagram--existing_path" d="M15.37,39.8c6.4-0.98,19.43-2.41,23.8-2.57c1.81-0.06,2.18,1.34,2.1,2.88c-0.27,5.27-0.84,15.62-2.73,24.06" id="Ske30rr1c1c" kvg:type="㇕a" transform="matrix(1,0,0,1,396,-4)" xmlns:kvg="http://kanjivg.tagaini.net"></path><path class="stroke_order_diagram--existing_path" d="M16.76,52.02c6.57-0.7,16.99-1.75,23.46-2.31" id="Ske30rr1c1d" kvg:type="㇐a" transform="matrix(1,0,0,1,396,-4)" xmlns:kvg="http://kanjivg.tagaini.net"></path><path class="stroke_order_diagram--current_path" d="M18.26,63.72c5.61-1.02,13.35-0.79,20.27-1.57" id="kvg:08f39-s5" kvg:type="㇐a" transform="matrix(1,0,0,1,396,-4)" xmlns:kvg="http://kanjivg.tagaini.net"></path><path class="stroke_order_diagram--current_path" d="M18.26,63.72c5.61-1.02,13.35-0.79,20.27-1.57" id="Ske30rr1c1f" kvg:type="㇐a" transform="matrix(1,0,0,1,396,-4)" xmlns:kvg="http://kanjivg.tagaini.net"></path><circle class="stroke_order_diagram--path_start" cx="18.26" cy="63.72" r="4" transform="matrix(1,0,0,1,396,-4)"></circle><line class="stroke_order_diagram--guide_line" x1="550" x2="550" y1="1" y2="99"></line><line class="stroke_order_diagram--bounding_box" x1="599" x2="599" y1="1" y2="99"></line><path class="stroke_order_diagram--existing_path" d="M11.25,27.5c1.03,0.38,2.93,0.45,3.96,0.38C24.75,27.25,30.25,27,38.89,26c1.71-0.2,2.75,0.18,3.61,0.37" id="Ske30rr1c1i" kvg:type="㇐" transform="matrix(1,0,0,1,496,-4)" xmlns:kvg="http://kanjivg.tagaini.net"></path><path class="stroke_order_diagram--existing_path" d="M13.75,38.45c0.42,0.51,0.96,0.9,1.03,1.58c0.57,4.89,2.14,16.95,2.94,26.22" id="Ske30rr1c1j" kvg:type="㇑" transform="matrix(1,0,0,1,496,-4)" xmlns:kvg="http://kanjivg.tagaini.net"></path><path class="stroke_order_diagram--existing_path" d="M15.37,39.8c6.4-0.98,19.43-2.41,23.8-2.57c1.81-0.06,2.18,1.34,2.1,2.88c-0.27,5.27-0.84,15.62-2.73,24.06" id="Ske30rr1c1k" kvg:type="㇕a" transform="matrix(1,0,0,1,496,-4)" xmlns:kvg="http://kanjivg.tagaini.net"></path><path class="stroke_order_diagram--existing_path" d="M16.76,52.02c6.57-0.7,16.99-1.75,23.46-2.31" id="Ske30rr1c1l" kvg:type="㇐a" transform="matrix(1,0,0,1,496,-4)" xmlns:kvg="http://kanjivg.tagaini.net"></path><path class="stroke_order_diagram--existing_path" d="M18.26,63.72c5.61-1.02,13.35-0.79,20.27-1.57" id="Ske30rr1c1m" kvg:type="㇐a" transform="matrix(1,0,0,1,496,-4)" xmlns:kvg="http://kanjivg.tagaini.net"></path><path class="stroke_order_diagram--current_path" d="M9.25,75.85c1.46,0.5,2.75,1.15,5.6,1c10.59-0.57,17.39-1.65,25.18-2.14c2.43-0.15,4.25-0.59,5.46-0.34" id="kvg:08f39-s6" kvg:type="㇐" transform="matrix(1,0,0,1,496,-4)" xmlns:kvg="http://kanjivg.tagaini.net"></path><path class="stroke_order_diagram--current_path" d="M9.25,75.85c1.46,0.5,2.75,1.15,5.6,1c10.59-0.57,17.39-1.65,25.18-2.14c2.43-0.15,4.25-0.59,5.46-0.34" id="Ske30rr1c1o" kvg:type="㇐" transform="matrix(1,0,0,1,496,-4)" xmlns:kvg="http://kanjivg.tagaini.net"></path><circle class="stroke_order_diagram--path_start" cx="9.25" cy="75.85" r="4" transform="matrix(1,0,0,1,496,-4)"></circle><line class="stroke_order_diagram--guide_line" x1="650" x2="650" y1="1" y2="99"></line><line class="stroke_order_diagram--bounding_box" x1="699" x2="699" y1="1" y2="99"></line><path class="stroke_order_diagram--existing_path" d="M11.25,27.5c1.03,0.38,2.93,0.45,3.96,0.38C24.75,27.25,30.25,27,38.89,26c1.71-0.2,2.75,0.18,3.61,0.37" id="Ske30rr1c1r" kvg:type="㇐" transform="matrix(1,0,0,1,596,-4)" xmlns:kvg="http://kanjivg.tagaini.net"></path><path class="stroke_order_diagram--existing_path" d="M13.75,38.45c0.42,0.51,0.96,0.9,1.03,1.58c0.57,4.89,2.14,16.95,2.94,26.22" id="Ske30rr1c1s" kvg:type="㇑" transform="matrix(1,0,0,1,596,-4)" xmlns:kvg="http://kanjivg.tagaini.net"></path><path class="stroke_order_diagram--existing_path" d="M15.37,39.8c6.4-0.98,19.43-2.41,23.8-2.57c1.81-0.06,2.18,1.34,2.1,2.88c-0.27,5.27-0.84,15.62-2.73,24.06" id="Ske30rr1c1t" kvg:type="㇕a" transform="matrix(1,0,0,1,596,-4)" xmlns:kvg="http://kanjivg.tagaini.net"></path><path class="stroke_order_diagram--existing_path" d="M16.76,52.02c6.57-0.7,16.99-1.75,23.46-2.31" id="Ske30rr1c1u" kvg:type="㇐a" transform="matrix(1,0,0,1,596,-4)" xmlns:kvg="http://kanjivg.tagaini.net"></path><path class="stroke_order_diagram--existing_path" d="M18.26,63.72c5.61-1.02,13.35-0.79,20.27-1.57" id="Ske30rr1c1v" kvg:type="㇐a" transform="matrix(1,0,0,1,596,-4)" xmlns:kvg="http://kanjivg.tagaini.net"></path><path class="stroke_order_diagram--existing_path" d="M9.25,75.85c1.46,0.5,2.75,1.15,5.6,1c10.59-0.57,17.39-1.65,25.18-2.14c2.43-0.15,4.25-0.59,5.46-0.34" id="Ske30rr1c1w" kvg:type="㇐" transform="matrix(1,0,0,1,596,-4)" xmlns:kvg="http://kanjivg.tagaini.net"></path><path class="stroke_order_diagram--current_path" d="M25.3,13.63c0.62,0.49,1.93,3.65,2.05,4.62c0.12,0.97-0.08,74.05-0.2,80.13" id="kvg:08f39-s7" kvg:type="㇑" transform="matrix(1,0,0,1,596,-4)" xmlns:kvg="http://kanjivg.tagaini.net"></path><path class="stroke_order_diagram--current_path" d="M25.3,13.63c0.62,0.49,1.93,3.65,2.05,4.62c0.12,0.97-0.08,74.05-0.2,80.13" id="Ske30rr1c1y" kvg:type="㇑" transform="matrix(1,0,0,1,596,-4)" xmlns:kvg="http://kanjivg.tagaini.net"></path><circle class="stroke_order_diagram--path_start" cx="25.3" cy="13.63" r="4" transform="matrix(1,0,0,1,596,-4)"></circle><line class="stroke_order_diagram--guide_line" x1="750" x2="750" y1="1" y2="99"></line><line class="stroke_order_diagram--bounding_box" x1="799" x2="799" y1="1" y2="99"></line><path class="stroke_order_diagram--existing_path" d="M11.25,27.5c1.03,0.38,2.93,0.45,3.96,0.38C24.75,27.25,30.25,27,38.89,26c1.71-0.2,2.75,0.18,3.61,0.37" id="Ske30rr1c21" kvg:type="㇐" transform="matrix(1,0,0,1,696,-4)" xmlns:kvg="http://kanjivg.tagaini.net"></path><path class="stroke_order_diagram--existing_path" d="M13.75,38.45c0.42,0.51,0.96,0.9,1.03,1.58c0.57,4.89,2.14,16.95,2.94,26.22" id="Ske30rr1c22" kvg:type="㇑" transform="matrix(1,0,0,1,696,-4)" xmlns:kvg="http://kanjivg.tagaini.net"></path><path class="stroke_order_diagram--existing_path" d="M15.37,39.8c6.4-0.98,19.43-2.41,23.8-2.57c1.81-0.06,2.18,1.34,2.1,2.88c-0.27,5.27-0.84,15.62-2.73,24.06" id="Ske30rr1c23" kvg:type="㇕a" transform="matrix(1,0,0,1,696,-4)" xmlns:kvg="http://kanjivg.tagaini.net"></path><path class="stroke_order_diagram--existing_path" d="M16.76,52.02c6.57-0.7,16.99-1.75,23.46-2.31" id="Ske30rr1c24" kvg:type="㇐a" transform="matrix(1,0,0,1,696,-4)" xmlns:kvg="http://kanjivg.tagaini.net"></path><path class="stroke_order_diagram--existing_path" d="M18.26,63.72c5.61-1.02,13.35-0.79,20.27-1.57" id="Ske30rr1c25" kvg:type="㇐a" transform="matrix(1,0,0,1,696,-4)" xmlns:kvg="http://kanjivg.tagaini.net"></path><path class="stroke_order_diagram--existing_path" d="M9.25,75.85c1.46,0.5,2.75,1.15,5.6,1c10.59-0.57,17.39-1.65,25.18-2.14c2.43-0.15,4.25-0.59,5.46-0.34" id="Ske30rr1c26" kvg:type="㇐" transform="matrix(1,0,0,1,696,-4)" xmlns:kvg="http://kanjivg.tagaini.net"></path><path class="stroke_order_diagram--existing_path" d="M25.3,13.63c0.62,0.49,1.93,3.65,2.05,4.62c0.12,0.97-0.08,74.05-0.2,80.13" id="Ske30rr1c27" kvg:type="㇑" transform="matrix(1,0,0,1,696,-4)" xmlns:kvg="http://kanjivg.tagaini.net"></path><path class="stroke_order_diagram--current_path" d="M58.11,11.75c0.03,0.61,0.12,1.77-0.06,2.46c-2.27,8.66-5.62,16.6-11.54,23.58" id="kvg:08f39-s8" kvg:type="㇒" transform="matrix(1,0,0,1,696,-4)" xmlns:kvg="http://kanjivg.tagaini.net"></path><path class="stroke_order_diagram--current_path" d="M58.11,11.75c0.03,0.61,0.12,1.77-0.06,2.46c-2.27,8.66-5.62,16.6-11.54,23.58" id="Ske30rr1c29" kvg:type="㇒" transform="matrix(1,0,0,1,696,-4)" xmlns:kvg="http://kanjivg.tagaini.net"></path><circle class="stroke_order_diagram--path_start" cx="58.11" cy="11.75" r="4" transform="matrix(1,0,0,1,696,-4)"></circle><line class="stroke_order_diagram--guide_line" x1="850" x2="850" y1="1" y2="99"></line><line class="stroke_order_diagram--bounding_box" x1="899" x2="899" y1="1" y2="99"></line><path class="stroke_order_diagram--existing_path" d="M11.25,27.5c1.03,0.38,2.93,0.45,3.96,0.38C24.75,27.25,30.25,27,38.89,26c1.71-0.2,2.75,0.18,3.61,0.37" id="Ske30rr1c2c" kvg:type="㇐" transform="matrix(1,0,0,1,796,-4)" xmlns:kvg="http://kanjivg.tagaini.net"></path><path class="stroke_order_diagram--existing_path" d="M13.75,38.45c0.42,0.51,0.96,0.9,1.03,1.58c0.57,4.89,2.14,16.95,2.94,26.22" id="Ske30rr1c2d" kvg:type="㇑" transform="matrix(1,0,0,1,796,-4)" xmlns:kvg="http://kanjivg.tagaini.net"></path><path class="stroke_order_diagram--existing_path" d="M15.37,39.8c6.4-0.98,19.43-2.41,23.8-2.57c1.81-0.06,2.18,1.34,2.1,2.88c-0.27,5.27-0.84,15.62-2.73,24.06" id="Ske30rr1c2e" kvg:type="㇕a" transform="matrix(1,0,0,1,796,-4)" xmlns:kvg="http://kanjivg.tagaini.net"></path><path class="stroke_order_diagram--existing_path" d="M16.76,52.02c6.57-0.7,16.99-1.75,23.46-2.31" id="Ske30rr1c2f" kvg:type="㇐a" transform="matrix(1,0,0,1,796,-4)" xmlns:kvg="http://kanjivg.tagaini.net"></path><path class="stroke_order_diagram--existing_path" d="M18.26,63.72c5.61-1.02,13.35-0.79,20.27-1.57" id="Ske30rr1c2g" kvg:type="㇐a" transform="matrix(1,0,0,1,796,-4)" xmlns:kvg="http://kanjivg.tagaini.net"></path><path class="stroke_order_diagram--existing_path" d="M9.25,75.85c1.46,0.5,2.75,1.15,5.6,1c10.59-0.57,17.39-1.65,25.18-2.14c2.43-0.15,4.25-0.59,5.46-0.34" id="Ske30rr1c2h" kvg:type="㇐" transform="matrix(1,0,0,1,796,-4)" xmlns:kvg="http://kanjivg.tagaini.net"></path><path class="stroke_order_diagram--existing_path" d="M25.3,13.63c0.62,0.49,1.93,3.65,2.05,4.62c0.12,0.97-0.08,74.05-0.2,80.13" id="Ske30rr1c2i" kvg:type="㇑" transform="matrix(1,0,0,1,796,-4)" xmlns:kvg="http://kanjivg.tagaini.net"></path><path class="stroke_order_diagram--existing_path" d="M58.11,11.75c0.03,0.61,0.12,1.77-0.06,2.46c-2.27,8.66-5.62,16.6-11.54,23.58" id="Ske30rr1c2j" kvg:type="㇒" transform="matrix(1,0,0,1,796,-4)" xmlns:kvg="http://kanjivg.tagaini.net"></path><path class="stroke_order_diagram--current_path" d="M58.75,21.97c1,0.28,2.84,0.32,3.85,0.28C69.38,22,78.18,21,88.22,19.91c1.65-0.18,2.21-0.06,3.55-0.03" id="kvg:08f39-s9" kvg:type="㇐" transform="matrix(1,0,0,1,796,-4)" xmlns:kvg="http://kanjivg.tagaini.net"></path><path class="stroke_order_diagram--current_path" d="M58.75,21.97c1,0.28,2.84,0.32,3.85,0.28C69.38,22,78.18,21,88.22,19.91c1.65-0.18,2.21-0.06,3.55-0.03" id="Ske30rr1c2l" kvg:type="㇐" transform="matrix(1,0,0,1,796,-4)" xmlns:kvg="http://kanjivg.tagaini.net"></path><circle class="stroke_order_diagram--path_start" cx="58.75" cy="21.97" r="4" transform="matrix(1,0,0,1,796,-4)"></circle><line class="stroke_order_diagram--guide_line" x1="950" x2="950" y1="1" y2="99"></line><line class="stroke_order_diagram--bounding_box" x1="999" x2="999" y1="1" y2="99"></line><path class="stroke_order_diagram--existing_path" d="M11.25,27.5c1.03,0.38,2.93,0.45,3.96,0.38C24.75,27.25,30.25,27,38.89,26c1.71-0.2,2.75,0.18,3.61,0.37" id="Ske30rr1c2o" kvg:type="㇐" transform="matrix(1,0,0,1,896,-4)" xmlns:kvg="http://kanjivg.tagaini.net"></path><path class="stroke_order_diagram--existing_path" d="M13.75,38.45c0.42,0.51,0.96,0.9,1.03,1.58c0.57,4.89,2.14,16.95,2.94,26.22" id="Ske30rr1c2p" kvg:type="㇑" transform="matrix(1,0,0,1,896,-4)" xmlns:kvg="http://kanjivg.tagaini.net"></path><path class="stroke_order_diagram--existing_path" d="M15.37,39.8c6.4-0.98,19.43-2.41,23.8-2.57c1.81-0.06,2.18,1.34,2.1,2.88c-0.27,5.27-0.84,15.62-2.73,24.06" id="Ske30rr1c2q" kvg:type="㇕a" transform="matrix(1,0,0,1,896,-4)" xmlns:kvg="http://kanjivg.tagaini.net"></path><path class="stroke_order_diagram--existing_path" d="M16.76,52.02c6.57-0.7,16.99-1.75,23.46-2.31" id="Ske30rr1c2r" kvg:type="㇐a" transform="matrix(1,0,0,1,896,-4)" xmlns:kvg="http://kanjivg.tagaini.net"></path><path class="stroke_order_diagram--existing_path" d="M18.26,63.72c5.61-1.02,13.35-0.79,20.27-1.57" id="Ske30rr1c2s" kvg:type="㇐a" transform="matrix(1,0,0,1,896,-4)" xmlns:kvg="http://kanjivg.tagaini.net"></path><path class="stroke_order_diagram--existing_path" d="M9.25,75.85c1.46,0.5,2.75,1.15,5.6,1c10.59-0.57,17.39-1.65,25.18-2.14c2.43-0.15,4.25-0.59,5.46-0.34" id="Ske30rr1c2t" kvg:type="㇐" transform="matrix(1,0,0,1,896,-4)" xmlns:kvg="http://kanjivg.tagaini.net"></path><path class="stroke_order_diagram--existing_path" d="M25.3,13.63c0.62,0.49,1.93,3.65,2.05,4.62c0.12,0.97-0.08,74.05-0.2,80.13" id="Ske30rr1c2u" kvg:type="㇑" transform="matrix(1,0,0,1,896,-4)" xmlns:kvg="http://kanjivg.tagaini.net"></path><path class="stroke_order_diagram--existing_path" d="M58.11,11.75c0.03,0.61,0.12,1.77-0.06,2.46c-2.27,8.66-5.62,16.6-11.54,23.58" id="Ske30rr1c2v" kvg:type="㇒" transform="matrix(1,0,0,1,896,-4)" xmlns:kvg="http://kanjivg.tagaini.net"></path><path class="stroke_order_diagram--existing_path" d="M58.75,21.97c1,0.28,2.84,0.32,3.85,0.28C69.38,22,78.18,21,88.22,19.91c1.65-0.18,2.21-0.06,3.55-0.03" id="Ske30rr1c2w" kvg:type="㇐" transform="matrix(1,0,0,1,896,-4)" xmlns:kvg="http://kanjivg.tagaini.net"></path><path class="stroke_order_diagram--current_path" d="M56.27,31.4c0.39,0.53,0.78,0.79,0.78,1.5c0,0.71,2.24,18.93,2.24,19.28c0,0.35,0.13,0.35,0.26,1.06" id="kvg:08f39-s10" kvg:type="㇑" transform="matrix(1,0,0,1,896,-4)" xmlns:kvg="http://kanjivg.tagaini.net"></path><path class="stroke_order_diagram--current_path" d="M56.27,31.4c0.39,0.53,0.78,0.79,0.78,1.5c0,0.71,2.24,18.93,2.24,19.28c0,0.35,0.13,0.35,0.26,1.06" id="Ske30rr1c2y" kvg:type="㇑" transform="matrix(1,0,0,1,896,-4)" xmlns:kvg="http://kanjivg.tagaini.net"></path><circle class="stroke_order_diagram--path_start" cx="56.27" cy="31.4" r="4" transform="matrix(1,0,0,1,896,-4)"></circle><line class="stroke_order_diagram--guide_line" x1="1050" x2="1050" y1="1" y2="99"></line><line class="stroke_order_diagram--bounding_box" x1="1099" x2="1099" y1="1" y2="99"></line><path class="stroke_order_diagram--existing_path" d="M11.25,27.5c1.03,0.38,2.93,0.45,3.96,0.38C24.75,27.25,30.25,27,38.89,26c1.71-0.2,2.75,0.18,3.61,0.37" id="Ske30rr1c31" kvg:type="㇐" transform="matrix(1,0,0,1,996,-4)" xmlns:kvg="http://kanjivg.tagaini.net"></path><path class="stroke_order_diagram--existing_path" d="M13.75,38.45c0.42,0.51,0.96,0.9,1.03,1.58c0.57,4.89,2.14,16.95,2.94,26.22" id="Ske30rr1c32" kvg:type="㇑" transform="matrix(1,0,0,1,996,-4)" xmlns:kvg="http://kanjivg.tagaini.net"></path><path class="stroke_order_diagram--existing_path" d="M15.37,39.8c6.4-0.98,19.43-2.41,23.8-2.57c1.81-0.06,2.18,1.34,2.1,2.88c-0.27,5.27-0.84,15.62-2.73,24.06" id="Ske30rr1c33" kvg:type="㇕a" transform="matrix(1,0,0,1,996,-4)" xmlns:kvg="http://kanjivg.tagaini.net"></path><path class="stroke_order_diagram--existing_path" d="M16.76,52.02c6.57-0.7,16.99-1.75,23.46-2.31" id="Ske30rr1c34" kvg:type="㇐a" transform="matrix(1,0,0,1,996,-4)" xmlns:kvg="http://kanjivg.tagaini.net"></path><path class="stroke_order_diagram--existing_path" d="M18.26,63.72c5.61-1.02,13.35-0.79,20.27-1.57" id="Ske30rr1c35" kvg:type="㇐a" transform="matrix(1,0,0,1,996,-4)" xmlns:kvg="http://kanjivg.tagaini.net"></path><path class="stroke_order_diagram--existing_path" d="M9.25,75.85c1.46,0.5,2.75,1.15,5.6,1c10.59-0.57,17.39-1.65,25.18-2.14c2.43-0.15,4.25-0.59,5.46-0.34" id="Ske30rr1c36" kvg:type="㇐" transform="matrix(1,0,0,1,996,-4)" xmlns:kvg="http://kanjivg.tagaini.net"></path><path class="stroke_order_diagram--existing_path" d="M25.3,13.63c0.62,0.49,1.93,3.65,2.05,4.62c0.12,0.97-0.08,74.05-0.2,80.13" id="Ske30rr1c37" kvg:type="㇑" transform="matrix(1,0,0,1,996,-4)" xmlns:kvg="http://kanjivg.tagaini.net"></path><path class="stroke_order_diagram--existing_path" d="M58.11,11.75c0.03,0.61,0.12,1.77-0.06,2.46c-2.27,8.66-5.62,16.6-11.54,23.58" id="Ske30rr1c38" kvg:type="㇒" transform="matrix(1,0,0,1,996,-4)" xmlns:kvg="http://kanjivg.tagaini.net"></path><path class="stroke_order_diagram--existing_path" d="M58.75,21.97c1,0.28,2.84,0.32,3.85,0.28C69.38,22,78.18,21,88.22,19.91c1.65-0.18,2.21-0.06,3.55-0.03" id="Ske30rr1c39" kvg:type="㇐" transform="matrix(1,0,0,1,996,-4)" xmlns:kvg="http://kanjivg.tagaini.net"></path><path class="stroke_order_diagram--existing_path" d="M56.27,31.4c0.39,0.53,0.78,0.79,0.78,1.5c0,0.71,2.24,18.93,2.24,19.28c0,0.35,0.13,0.35,0.26,1.06" id="Ske30rr1c3a" kvg:type="㇑" transform="matrix(1,0,0,1,996,-4)" xmlns:kvg="http://kanjivg.tagaini.net"></path><path class="stroke_order_diagram--current_path" d="M58.19,32.99c4.06-0.74,22.91-2.64,24.92-2.75c1.67-0.09,2.74,1.98,2.61,2.5c-0.26,1.06-3.02,19.11-3.02,19.64" id="kvg:08f39-s11" kvg:type="㇕a" transform="matrix(1,0,0,1,996,-4)" xmlns:kvg="http://kanjivg.tagaini.net"></path><path class="stroke_order_diagram--current_path" d="M58.19,32.99c4.06-0.74,22.91-2.64,24.92-2.75c1.67-0.09,2.74,1.98,2.61,2.5c-0.26,1.06-3.02,19.11-3.02,19.64" id="Ske30rr1c3c" kvg:type="㇕a" transform="matrix(1,0,0,1,996,-4)" xmlns:kvg="http://kanjivg.tagaini.net"></path><circle class="stroke_order_diagram--path_start" cx="58.19" cy="32.99" r="4" transform="matrix(1,0,0,1,996,-4)"></circle><line class="stroke_order_diagram--guide_line" x1="1150" x2="1150" y1="1" y2="99"></line><line class="stroke_order_diagram--bounding_box" x1="1199" x2="1199" y1="1" y2="99"></line><path class="stroke_order_diagram--existing_path" d="M11.25,27.5c1.03,0.38,2.93,0.45,3.96,0.38C24.75,27.25,30.25,27,38.89,26c1.71-0.2,2.75,0.18,3.61,0.37" id="Ske30rr1c3f" kvg:type="㇐" transform="matrix(1,0,0,1,1096,-4)" xmlns:kvg="http://kanjivg.tagaini.net"></path><path class="stroke_order_diagram--existing_path" d="M13.75,38.45c0.42,0.51,0.96,0.9,1.03,1.58c0.57,4.89,2.14,16.95,2.94,26.22" id="Ske30rr1c3g" kvg:type="㇑" transform="matrix(1,0,0,1,1096,-4)" xmlns:kvg="http://kanjivg.tagaini.net"></path><path class="stroke_order_diagram--existing_path" d="M15.37,39.8c6.4-0.98,19.43-2.41,23.8-2.57c1.81-0.06,2.18,1.34,2.1,2.88c-0.27,5.27-0.84,15.62-2.73,24.06" id="Ske30rr1c3h" kvg:type="㇕a" transform="matrix(1,0,0,1,1096,-4)" xmlns:kvg="http://kanjivg.tagaini.net"></path><path class="stroke_order_diagram--existing_path" d="M16.76,52.02c6.57-0.7,16.99-1.75,23.46-2.31" id="Ske30rr1c3i" kvg:type="㇐a" transform="matrix(1,0,0,1,1096,-4)" xmlns:kvg="http://kanjivg.tagaini.net"></path><path class="stroke_order_diagram--existing_path" d="M18.26,63.72c5.61-1.02,13.35-0.79,20.27-1.57" id="Ske30rr1c3j" kvg:type="㇐a" transform="matrix(1,0,0,1,1096,-4)" xmlns:kvg="http://kanjivg.tagaini.net"></path><path class="stroke_order_diagram--existing_path" d="M9.25,75.85c1.46,0.5,2.75,1.15,5.6,1c10.59-0.57,17.39-1.65,25.18-2.14c2.43-0.15,4.25-0.59,5.46-0.34" id="Ske30rr1c3k" kvg:type="㇐" transform="matrix(1,0,0,1,1096,-4)" xmlns:kvg="http://kanjivg.tagaini.net"></path><path class="stroke_order_diagram--existing_path" d="M25.3,13.63c0.62,0.49,1.93,3.65,2.05,4.62c0.12,0.97-0.08,74.05-0.2,80.13" id="Ske30rr1c3l" kvg:type="㇑" transform="matrix(1,0,0,1,1096,-4)" xmlns:kvg="http://kanjivg.tagaini.net"></path><path class="stroke_order_diagram--existing_path" d="M58.11,11.75c0.03,0.61,0.12,1.77-0.06,2.46c-2.27,8.66-5.62,16.6-11.54,23.58" id="Ske30rr1c3m" kvg:type="㇒" transform="matrix(1,0,0,1,1096,-4)" xmlns:kvg="http://kanjivg.tagaini.net"></path><path class="stroke_order_diagram--existing_path" d="M58.75,21.97c1,0.28,2.84,0.32,3.85,0.28C69.38,22,78.18,21,88.22,19.91c1.65-0.18,2.21-0.06,3.55-0.03" id="Ske30rr1c3n" kvg:type="㇐" transform="matrix(1,0,0,1,1096,-4)" xmlns:kvg="http://kanjivg.tagaini.net"></path><path class="stroke_order_diagram--existing_path" d="M56.27,31.4c0.39,0.53,0.78,0.79,0.78,1.5c0,0.71,2.24,18.93,2.24,19.28c0,0.35,0.13,0.35,0.26,1.06" id="Ske30rr1c3o" kvg:type="㇑" transform="matrix(1,0,0,1,1096,-4)" xmlns:kvg="http://kanjivg.tagaini.net"></path><path class="stroke_order_diagram--existing_path" d="M58.19,32.99c4.06-0.74,22.91-2.64,24.92-2.75c1.67-0.09,2.74,1.98,2.61,2.5c-0.26,1.06-3.02,19.11-3.02,19.64" id="Ske30rr1c3p" kvg:type="㇕a" transform="matrix(1,0,0,1,1096,-4)" xmlns:kvg="http://kanjivg.tagaini.net"></path><path class="stroke_order_diagram--current_path" d="M58.58,42.06c6.92-1.06,19.67-1.31,25.72-1.9" id="kvg:08f39-s12" kvg:type="㇐a" transform="matrix(1,0,0,1,1096,-4)" xmlns:kvg="http://kanjivg.tagaini.net"></path><path class="stroke_order_diagram--current_path" d="M58.58,42.06c6.92-1.06,19.67-1.31,25.72-1.9" id="Ske30rr1c3r" kvg:type="㇐a" transform="matrix(1,0,0,1,1096,-4)" xmlns:kvg="http://kanjivg.tagaini.net"></path><circle class="stroke_order_diagram--path_start" cx="58.58" cy="42.06" r="4" transform="matrix(1,0,0,1,1096,-4)"></circle><line class="stroke_order_diagram--guide_line" x1="1250" x2="1250" y1="1" y2="99"></line><line class="stroke_order_diagram--bounding_box" x1="1299" x2="1299" y1="1" y2="99"></line><path class="stroke_order_diagram--existing_path" d="M11.25,27.5c1.03,0.38,2.93,0.45,3.96,0.38C24.75,27.25,30.25,27,38.89,26c1.71-0.2,2.75,0.18,3.61,0.37" id="Ske30rr1c3u" kvg:type="㇐" transform="matrix(1,0,0,1,1196,-4)" xmlns:kvg="http://kanjivg.tagaini.net"></path><path class="stroke_order_diagram--existing_path" d="M13.75,38.45c0.42,0.51,0.96,0.9,1.03,1.58c0.57,4.89,2.14,16.95,2.94,26.22" id="Ske30rr1c3v" kvg:type="㇑" transform="matrix(1,0,0,1,1196,-4)" xmlns:kvg="http://kanjivg.tagaini.net"></path><path class="stroke_order_diagram--existing_path" d="M15.37,39.8c6.4-0.98,19.43-2.41,23.8-2.57c1.81-0.06,2.18,1.34,2.1,2.88c-0.27,5.27-0.84,15.62-2.73,24.06" id="Ske30rr1c3w" kvg:type="㇕a" transform="matrix(1,0,0,1,1196,-4)" xmlns:kvg="http://kanjivg.tagaini.net"></path><path class="stroke_order_diagram--existing_path" d="M16.76,52.02c6.57-0.7,16.99-1.75,23.46-2.31" id="Ske30rr1c3x" kvg:type="㇐a" transform="matrix(1,0,0,1,1196,-4)" xmlns:kvg="http://kanjivg.tagaini.net"></path><path class="stroke_order_diagram--existing_path" d="M18.26,63.72c5.61-1.02,13.35-0.79,20.27-1.57" id="Ske30rr1c3y" kvg:type="㇐a" transform="matrix(1,0,0,1,1196,-4)" xmlns:kvg="http://kanjivg.tagaini.net"></path><path class="stroke_order_diagram--existing_path" d="M9.25,75.85c1.46,0.5,2.75,1.15,5.6,1c10.59-0.57,17.39-1.65,25.18-2.14c2.43-0.15,4.25-0.59,5.46-0.34" id="Ske30rr1c3z" kvg:type="㇐" transform="matrix(1,0,0,1,1196,-4)" xmlns:kvg="http://kanjivg.tagaini.net"></path><path class="stroke_order_diagram--existing_path" d="M25.3,13.63c0.62,0.49,1.93,3.65,2.05,4.62c0.12,0.97-0.08,74.05-0.2,80.13" id="Ske30rr1c40" kvg:type="㇑" transform="matrix(1,0,0,1,1196,-4)" xmlns:kvg="http://kanjivg.tagaini.net"></path><path class="stroke_order_diagram--existing_path" d="M58.11,11.75c0.03,0.61,0.12,1.77-0.06,2.46c-2.27,8.66-5.62,16.6-11.54,23.58" id="Ske30rr1c41" kvg:type="㇒" transform="matrix(1,0,0,1,1196,-4)" xmlns:kvg="http://kanjivg.tagaini.net"></path><path class="stroke_order_diagram--existing_path" d="M58.75,21.97c1,0.28,2.84,0.32,3.85,0.28C69.38,22,78.18,21,88.22,19.91c1.65-0.18,2.21-0.06,3.55-0.03" id="Ske30rr1c42" kvg:type="㇐" transform="matrix(1,0,0,1,1196,-4)" xmlns:kvg="http://kanjivg.tagaini.net"></path><path class="stroke_order_diagram--existing_path" d="M56.27,31.4c0.39,0.53,0.78,0.79,0.78,1.5c0,0.71,2.24,18.93,2.24,19.28c0,0.35,0.13,0.35,0.26,1.06" id="Ske30rr1c43" kvg:type="㇑" transform="matrix(1,0,0,1,1196,-4)" xmlns:kvg="http://kanjivg.tagaini.net"></path><path class="stroke_order_diagram--existing_path" d="M58.19,32.99c4.06-0.74,22.91-2.64,24.92-2.75c1.67-0.09,2.74,1.98,2.61,2.5c-0.26,1.06-3.02,19.11-3.02,19.64" id="Ske30rr1c44" kvg:type="㇕a" transform="matrix(1,0,0,1,1196,-4)" xmlns:kvg="http://kanjivg.tagaini.net"></path><path class="stroke_order_diagram--existing_path" d="M58.58,42.06c6.92-1.06,19.67-1.31,25.72-1.9" id="Ske30rr1c45" kvg:type="㇐a" transform="matrix(1,0,0,1,1196,-4)" xmlns:kvg="http://kanjivg.tagaini.net"></path><path class="stroke_order_diagram--current_path" d="M60.44,51.26c6.06-0.38,13.81-0.89,21.35-1.22" id="kvg:08f39-s13" kvg:type="㇐a" transform="matrix(1,0,0,1,1196,-4)" xmlns:kvg="http://kanjivg.tagaini.net"></path><path class="stroke_order_diagram--current_path" d="M60.44,51.26c6.06-0.38,13.81-0.89,21.35-1.22" id="Ske30rr1c47" kvg:type="㇐a" transform="matrix(1,0,0,1,1196,-4)" xmlns:kvg="http://kanjivg.tagaini.net"></path><circle class="stroke_order_diagram--path_start" cx="60.44" cy="51.26" r="4" transform="matrix(1,0,0,1,1196,-4)"></circle><line class="stroke_order_diagram--guide_line" x1="1350" x2="1350" y1="1" y2="99"></line><line class="stroke_order_diagram--bounding_box" x1="1399" x2="1399" y1="1" y2="99"></line><path class="stroke_order_diagram--existing_path" d="M11.25,27.5c1.03,0.38,2.93,0.45,3.96,0.38C24.75,27.25,30.25,27,38.89,26c1.71-0.2,2.75,0.18,3.61,0.37" id="Ske30rr1c4a" kvg:type="㇐" transform="matrix(1,0,0,1,1296,-4)" xmlns:kvg="http://kanjivg.tagaini.net"></path><path class="stroke_order_diagram--existing_path" d="M13.75,38.45c0.42,0.51,0.96,0.9,1.03,1.58c0.57,4.89,2.14,16.95,2.94,26.22" id="Ske30rr1c4b" kvg:type="㇑" transform="matrix(1,0,0,1,1296,-4)" xmlns:kvg="http://kanjivg.tagaini.net"></path><path class="stroke_order_diagram--existing_path" d="M15.37,39.8c6.4-0.98,19.43-2.41,23.8-2.57c1.81-0.06,2.18,1.34,2.1,2.88c-0.27,5.27-0.84,15.62-2.73,24.06" id="Ske30rr1c4c" kvg:type="㇕a" transform="matrix(1,0,0,1,1296,-4)" xmlns:kvg="http://kanjivg.tagaini.net"></path><path class="stroke_order_diagram--existing_path" d="M16.76,52.02c6.57-0.7,16.99-1.75,23.46-2.31" id="Ske30rr1c4d" kvg:type="㇐a" transform="matrix(1,0,0,1,1296,-4)" xmlns:kvg="http://kanjivg.tagaini.net"></path><path class="stroke_order_diagram--existing_path" d="M18.26,63.72c5.61-1.02,13.35-0.79,20.27-1.57" id="Ske30rr1c4e" kvg:type="㇐a" transform="matrix(1,0,0,1,1296,-4)" xmlns:kvg="http://kanjivg.tagaini.net"></path><path class="stroke_order_diagram--existing_path" d="M9.25,75.85c1.46,0.5,2.75,1.15,5.6,1c10.59-0.57,17.39-1.65,25.18-2.14c2.43-0.15,4.25-0.59,5.46-0.34" id="Ske30rr1c4f" kvg:type="㇐" transform="matrix(1,0,0,1,1296,-4)" xmlns:kvg="http://kanjivg.tagaini.net"></path><path class="stroke_order_diagram--existing_path" d="M25.3,13.63c0.62,0.49,1.93,3.65,2.05,4.62c0.12,0.97-0.08,74.05-0.2,80.13" id="Ske30rr1c4g" kvg:type="㇑" transform="matrix(1,0,0,1,1296,-4)" xmlns:kvg="http://kanjivg.tagaini.net"></path><path class="stroke_order_diagram--existing_path" d="M58.11,11.75c0.03,0.61,0.12,1.77-0.06,2.46c-2.27,8.66-5.62,16.6-11.54,23.58" id="Ske30rr1c4h" kvg:type="㇒" transform="matrix(1,0,0,1,1296,-4)" xmlns:kvg="http://kanjivg.tagaini.net"></path><path class="stroke_order_diagram--existing_path" d="M58.75,21.97c1,0.28,2.84,0.32,3.85,0.28C69.38,22,78.18,21,88.22,19.91c1.65-0.18,2.21-0.06,3.55-0.03" id="Ske30rr1c4i" kvg:type="㇐" transform="matrix(1,0,0,1,1296,-4)" xmlns:kvg="http://kanjivg.tagaini.net"></path><path class="stroke_order_diagram--existing_path" d="M56.27,31.4c0.39,0.53,0.78,0.79,0.78,1.5c0,0.71,2.24,18.93,2.24,19.28c0,0.35,0.13,0.35,0.26,1.06" id="Ske30rr1c4j" kvg:type="㇑" transform="matrix(1,0,0,1,1296,-4)" xmlns:kvg="http://kanjivg.tagaini.net"></path><path class="stroke_order_diagram--existing_path" d="M58.19,32.99c4.06-0.74,22.91-2.64,24.92-2.75c1.67-0.09,2.74,1.98,2.61,2.5c-0.26,1.06-3.02,19.11-3.02,19.64" id="Ske30rr1c4k" kvg:type="㇕a" transform="matrix(1,0,0,1,1296,-4)" xmlns:kvg="http://kanjivg.tagaini.net"></path><path class="stroke_order_diagram--existing_path" d="M58.58,42.06c6.92-1.06,19.67-1.31,25.72-1.9" id="Ske30rr1c4l" kvg:type="㇐a" transform="matrix(1,0,0,1,1296,-4)" xmlns:kvg="http://kanjivg.tagaini.net"></path><path class="stroke_order_diagram--existing_path" d="M60.44,51.26c6.06-0.38,13.81-0.89,21.35-1.22" id="Ske30rr1c4m" kvg:type="㇐a" transform="matrix(1,0,0,1,1296,-4)" xmlns:kvg="http://kanjivg.tagaini.net"></path><path class="stroke_order_diagram--current_path" d="M63.32,56.25c0.05,0.6,0.11,1.56-0.1,2.43c-1.27,5.12-8.58,16.36-18.58,23.24" id="kvg:08f39-s14" kvg:type="㇒" transform="matrix(1,0,0,1,1296,-4)" xmlns:kvg="http://kanjivg.tagaini.net"></path><path class="stroke_order_diagram--current_path" d="M63.32,56.25c0.05,0.6,0.11,1.56-0.1,2.43c-1.27,5.12-8.58,16.36-18.58,23.24" id="Ske30rr1c4o" kvg:type="㇒" transform="matrix(1,0,0,1,1296,-4)" xmlns:kvg="http://kanjivg.tagaini.net"></path><circle class="stroke_order_diagram--path_start" cx="63.32" cy="56.25" r="4" transform="matrix(1,0,0,1,1296,-4)"></circle><line class="stroke_order_diagram--guide_line" x1="1450" x2="1450" y1="1" y2="99"></line><line class="stroke_order_diagram--bounding_box" x1="1499" x2="1499" y1="1" y2="99"></line><path class="stroke_order_diagram--existing_path" d="M11.25,27.5c1.03,0.38,2.93,0.45,3.96,0.38C24.75,27.25,30.25,27,38.89,26c1.71-0.2,2.75,0.18,3.61,0.37" id="Ske30rr1c4r" kvg:type="㇐" transform="matrix(1,0,0,1,1396,-4)" xmlns:kvg="http://kanjivg.tagaini.net"></path><path class="stroke_order_diagram--existing_path" d="M13.75,38.45c0.42,0.51,0.96,0.9,1.03,1.58c0.57,4.89,2.14,16.95,2.94,26.22" id="Ske30rr1c4s" kvg:type="㇑" transform="matrix(1,0,0,1,1396,-4)" xmlns:kvg="http://kanjivg.tagaini.net"></path><path class="stroke_order_diagram--existing_path" d="M15.37,39.8c6.4-0.98,19.43-2.41,23.8-2.57c1.81-0.06,2.18,1.34,2.1,2.88c-0.27,5.27-0.84,15.62-2.73,24.06" id="Ske30rr1c4t" kvg:type="㇕a" transform="matrix(1,0,0,1,1396,-4)" xmlns:kvg="http://kanjivg.tagaini.net"></path><path class="stroke_order_diagram--existing_path" d="M16.76,52.02c6.57-0.7,16.99-1.75,23.46-2.31" id="Ske30rr1c4u" kvg:type="㇐a" transform="matrix(1,0,0,1,1396,-4)" xmlns:kvg="http://kanjivg.tagaini.net"></path><path class="stroke_order_diagram--existing_path" d="M18.26,63.72c5.61-1.02,13.35-0.79,20.27-1.57" id="Ske30rr1c4v" kvg:type="㇐a" transform="matrix(1,0,0,1,1396,-4)" xmlns:kvg="http://kanjivg.tagaini.net"></path><path class="stroke_order_diagram--existing_path" d="M9.25,75.85c1.46,0.5,2.75,1.15,5.6,1c10.59-0.57,17.39-1.65,25.18-2.14c2.43-0.15,4.25-0.59,5.46-0.34" id="Ske30rr1c4w" kvg:type="㇐" transform="matrix(1,0,0,1,1396,-4)" xmlns:kvg="http://kanjivg.tagaini.net"></path><path class="stroke_order_diagram--existing_path" d="M25.3,13.63c0.62,0.49,1.93,3.65,2.05,4.62c0.12,0.97-0.08,74.05-0.2,80.13" id="Ske30rr1c4x" kvg:type="㇑" transform="matrix(1,0,0,1,1396,-4)" xmlns:kvg="http://kanjivg.tagaini.net"></path><path class="stroke_order_diagram--existing_path" d="M58.11,11.75c0.03,0.61,0.12,1.77-0.06,2.46c-2.27,8.66-5.62,16.6-11.54,23.58" id="Ske30rr1c4y" kvg:type="㇒" transform="matrix(1,0,0,1,1396,-4)" xmlns:kvg="http://kanjivg.tagaini.net"></path><path class="stroke_order_diagram--existing_path" d="M58.75,21.97c1,0.28,2.84,0.32,3.85,0.28C69.38,22,78.18,21,88.22,19.91c1.65-0.18,2.21-0.06,3.55-0.03" id="Ske30rr1c4z" kvg:type="㇐" transform="matrix(1,0,0,1,1396,-4)" xmlns:kvg="http://kanjivg.tagaini.net"></path><path class="stroke_order_diagram--existing_path" d="M56.27,31.4c0.39,0.53,0.78,0.79,0.78,1.5c0,0.71,2.24,18.93,2.24,19.28c0,0.35,0.13,0.35,0.26,1.06" id="Ske30rr1c50" kvg:type="㇑" transform="matrix(1,0,0,1,1396,-4)" xmlns:kvg="http://kanjivg.tagaini.net"></path><path class="stroke_order_diagram--existing_path" d="M58.19,32.99c4.06-0.74,22.91-2.64,24.92-2.75c1.67-0.09,2.74,1.98,2.61,2.5c-0.26,1.06-3.02,19.11-3.02,19.64" id="Ske30rr1c51" kvg:type="㇕a" transform="matrix(1,0,0,1,1396,-4)" xmlns:kvg="http://kanjivg.tagaini.net"></path><path class="stroke_order_diagram--existing_path" d="M58.58,42.06c6.92-1.06,19.67-1.31,25.72-1.9" id="Ske30rr1c52" kvg:type="㇐a" transform="matrix(1,0,0,1,1396,-4)" xmlns:kvg="http://kanjivg.tagaini.net"></path><path class="stroke_order_diagram--existing_path" d="M60.44,51.26c6.06-0.38,13.81-0.89,21.35-1.22" id="Ske30rr1c53" kvg:type="㇐a" transform="matrix(1,0,0,1,1396,-4)" xmlns:kvg="http://kanjivg.tagaini.net"></path><path class="stroke_order_diagram--existing_path" d="M63.32,56.25c0.05,0.6,0.11,1.56-0.1,2.43c-1.27,5.12-8.58,16.36-18.58,23.24" id="Ske30rr1c54" kvg:type="㇒" transform="matrix(1,0,0,1,1396,-4)" xmlns:kvg="http://kanjivg.tagaini.net"></path><path class="stroke_order_diagram--current_path" d="M65.22,63.98c0.25,0.03,1.84,0,2.57-0.08c2.39-0.26,9.82-1.73,13.23-2.53c2.34-0.55,3.01,0.63,2.41,2.13C80.15,71.7,61.12,92.27,46.5,96.5" id="kvg:08f39-s15" kvg:type="㇇" transform="matrix(1,0,0,1,1396,-4)" xmlns:kvg="http://kanjivg.tagaini.net"></path><path class="stroke_order_diagram--current_path" d="M65.22,63.98c0.25,0.03,1.84,0,2.57-0.08c2.39-0.26,9.82-1.73,13.23-2.53c2.34-0.55,3.01,0.63,2.41,2.13C80.15,71.7,61.12,92.27,46.5,96.5" id="Ske30rr1c56" kvg:type="㇇" transform="matrix(1,0,0,1,1396,-4)" xmlns:kvg="http://kanjivg.tagaini.net"></path><circle class="stroke_order_diagram--path_start" cx="65.22" cy="63.98" r="4" transform="matrix(1,0,0,1,1396,-4)"></circle><line class="stroke_order_diagram--guide_line" x1="1550" x2="1550" y1="1" y2="99"></line><line class="stroke_order_diagram--bounding_box" x1="1599" x2="1599" y1="1" y2="99"></line><path class="stroke_order_diagram--existing_path" d="M11.25,27.5c1.03,0.38,2.93,0.45,3.96,0.38C24.75,27.25,30.25,27,38.89,26c1.71-0.2,2.75,0.18,3.61,0.37" id="Ske30rr1c59" kvg:type="㇐" transform="matrix(1,0,0,1,1496,-4)" xmlns:kvg="http://kanjivg.tagaini.net"></path><path class="stroke_order_diagram--existing_path" d="M13.75,38.45c0.42,0.51,0.96,0.9,1.03,1.58c0.57,4.89,2.14,16.95,2.94,26.22" id="Ske30rr1c5a" kvg:type="㇑" transform="matrix(1,0,0,1,1496,-4)" xmlns:kvg="http://kanjivg.tagaini.net"></path><path class="stroke_order_diagram--existing_path" d="M15.37,39.8c6.4-0.98,19.43-2.41,23.8-2.57c1.81-0.06,2.18,1.34,2.1,2.88c-0.27,5.27-0.84,15.62-2.73,24.06" id="Ske30rr1c5b" kvg:type="㇕a" transform="matrix(1,0,0,1,1496,-4)" xmlns:kvg="http://kanjivg.tagaini.net"></path><path class="stroke_order_diagram--existing_path" d="M16.76,52.02c6.57-0.7,16.99-1.75,23.46-2.31" id="Ske30rr1c5c" kvg:type="㇐a" transform="matrix(1,0,0,1,1496,-4)" xmlns:kvg="http://kanjivg.tagaini.net"></path><path class="stroke_order_diagram--existing_path" d="M18.26,63.72c5.61-1.02,13.35-0.79,20.27-1.57" id="Ske30rr1c5d" kvg:type="㇐a" transform="matrix(1,0,0,1,1496,-4)" xmlns:kvg="http://kanjivg.tagaini.net"></path><path class="stroke_order_diagram--existing_path" d="M9.25,75.85c1.46,0.5,2.75,1.15,5.6,1c10.59-0.57,17.39-1.65,25.18-2.14c2.43-0.15,4.25-0.59,5.46-0.34" id="Ske30rr1c5e" kvg:type="㇐" transform="matrix(1,0,0,1,1496,-4)" xmlns:kvg="http://kanjivg.tagaini.net"></path><path class="stroke_order_diagram--existing_path" d="M25.3,13.63c0.62,0.49,1.93,3.65,2.05,4.62c0.12,0.97-0.08,74.05-0.2,80.13" id="Ske30rr1c5f" kvg:type="㇑" transform="matrix(1,0,0,1,1496,-4)" xmlns:kvg="http://kanjivg.tagaini.net"></path><path class="stroke_order_diagram--existing_path" d="M58.11,11.75c0.03,0.61,0.12,1.77-0.06,2.46c-2.27,8.66-5.62,16.6-11.54,23.58" id="Ske30rr1c5g" kvg:type="㇒" transform="matrix(1,0,0,1,1496,-4)" xmlns:kvg="http://kanjivg.tagaini.net"></path><path class="stroke_order_diagram--existing_path" d="M58.75,21.97c1,0.28,2.84,0.32,3.85,0.28C69.38,22,78.18,21,88.22,19.91c1.65-0.18,2.21-0.06,3.55-0.03" id="Ske30rr1c5h" kvg:type="㇐" transform="matrix(1,0,0,1,1496,-4)" xmlns:kvg="http://kanjivg.tagaini.net"></path><path class="stroke_order_diagram--existing_path" d="M56.27,31.4c0.39,0.53,0.78,0.79,0.78,1.5c0,0.71,2.24,18.93,2.24,19.28c0,0.35,0.13,0.35,0.26,1.06" id="Ske30rr1c5i" kvg:type="㇑" transform="matrix(1,0,0,1,1496,-4)" xmlns:kvg="http://kanjivg.tagaini.net"></path><path class="stroke_order_diagram--existing_path" d="M58.19,32.99c4.06-0.74,22.91-2.64,24.92-2.75c1.67-0.09,2.74,1.98,2.61,2.5c-0.26,1.06-3.02,19.11-3.02,19.64" id="Ske30rr1c5j" kvg:type="㇕a" transform="matrix(1,0,0,1,1496,-4)" xmlns:kvg="http://kanjivg.tagaini.net"></path><path class="stroke_order_diagram--existing_path" d="M58.58,42.06c6.92-1.06,19.67-1.31,25.72-1.9" id="Ske30rr1c5k" kvg:type="㇐a" transform="matrix(1,0,0,1,1496,-4)" xmlns:kvg="http://kanjivg.tagaini.net"></path><path class="stroke_order_diagram--existing_path" d="M60.44,51.26c6.06-0.38,13.81-0.89,21.35-1.22" id="Ske30rr1c5l" kvg:type="㇐a" transform="matrix(1,0,0,1,1496,-4)" xmlns:kvg="http://kanjivg.tagaini.net"></path><path class="stroke_order_diagram--existing_path" d="M63.32,56.25c0.05,0.6,0.11,1.56-0.1,2.43c-1.27,5.12-8.58,16.36-18.58,23.24" id="Ske30rr1c5m" kvg:type="㇒" transform="matrix(1,0,0,1,1496,-4)" xmlns:kvg="http://kanjivg.tagaini.net"></path><path class="stroke_order_diagram--existing_path" d="M65.22,63.98c0.25,0.03,1.84,0,2.57-0.08c2.39-0.26,9.82-1.73,13.23-2.53c2.34-0.55,3.01,0.63,2.41,2.13C80.15,71.7,61.12,92.27,46.5,96.5" id="Ske30rr1c5n" kvg:type="㇇" transform="matrix(1,0,0,1,1496,-4)" xmlns:kvg="http://kanjivg.tagaini.net"></path><path class="stroke_order_diagram--current_path" d="M60.9,69.06c3.92,4.38,21.68,21.02,26.96,25.02c1.58,1.19,2.85,1.77,4.38,2.13" id="kvg:08f39-s16" kvg:type="㇏" transform="matrix(1,0,0,1,1496,-4)" xmlns:kvg="http://kanjivg.tagaini.net"></path><path class="stroke_order_diagram--current_path" d="M60.9,69.06c3.92,4.38,21.68,21.02,26.96,25.02c1.58,1.19,2.85,1.77,4.38,2.13" id="Ske30rr1c5p" kvg:type="㇏" transform="matrix(1,0,0,1,1496,-4)" xmlns:kvg="http://kanjivg.tagaini.net"></path><circle class="stroke_order_diagram--path_start" cx="60.9" cy="69.06" r="4" transform="matrix(1,0,0,1,1496,-4)"></circle></svg>