<svg class="stroke_order_diagram--svg_container_for_51866287d5dda796580005ab" style="height: 100px; width: 700px;" viewbox="0 0 700 100"><desc>Created with Snap</desc><defs></defs><line class="stroke_order_diagram--bounding_box" x1="1" x2="699" y1="1" y2="1"></line><line class="stroke_order_diagram--bounding_box" x1="1" x2="1" y1="1" y2="99"></line><line class="stroke_order_diagram--bounding_box" x1="1" x2="699" y1="99" y2="99"></line><line class="stroke_order_diagram--guide_line" x1="0" x2="700" y1="50" y2="50"></line><line class="stroke_order_diagram--guide_line" x1="50" x2="50" y1="1" y2="99"></line><line class="stroke_order_diagram--bounding_box" x1="99" x2="99" y1="1" y2="99"></line><path class="stroke_order_diagram--current_path" d="M52.81,12.5c1.28,1.28,1.87,3.25,1.87,5.35c0,3.05,0,3.65,0,7.65" id="kvg:08f9b-s1" kvg:type="㇑a" transform="matrix(1,0,0,1,-4,-4)" xmlns:kvg="http://kanjivg.tagaini.net"></path><path class="stroke_order_diagram--current_path" d="M52.81,12.5c1.28,1.28,1.87,3.25,1.87,5.35c0,3.05,0,3.65,0,7.65" id="Ske1z0pt7g" kvg:type="㇑a" transform="matrix(1,0,0,1,-4,-4)" xmlns:kvg="http://kanjivg.tagaini.net"></path><circle class="stroke_order_diagram--path_start" cx="52.81" cy="12.5" r="4" transform="matrix(1,0,0,1,-4,-4)"></circle><line class="stroke_order_diagram--guide_line" x1="150" x2="150" y1="1" y2="99"></line><line class="stroke_order_diagram--bounding_box" x1="199" x2="199" y1="1" y2="99"></line><path class="stroke_order_diagram--existing_path" d="M52.81,12.5c1.28,1.28,1.87,3.25,1.87,5.35c0,3.05,0,3.65,0,7.65" id="Ske1z0pt7j" kvg:type="㇑a" transform="matrix(1,0,0,1,96,-4)" xmlns:kvg="http://kanjivg.tagaini.net"></path><path class="stroke_order_diagram--current_path" d="M29.25,28.45c2.19,0.62,5.12,0.5,7.4,0.27c8.67-0.91,26.08-3.46,36.1-4.24c2.68-0.21,5.33-0.35,8,0.1" id="kvg:08f9b-s2" kvg:type="㇐" transform="matrix(1,0,0,1,96,-4)" xmlns:kvg="http://kanjivg.tagaini.net"></path><path class="stroke_order_diagram--current_path" d="M29.25,28.45c2.19,0.62,5.12,0.5,7.4,0.27c8.67-0.91,26.08-3.46,36.1-4.24c2.68-0.21,5.33-0.35,8,0.1" id="Ske1z0pt7l" kvg:type="㇐" transform="matrix(1,0,0,1,96,-4)" xmlns:kvg="http://kanjivg.tagaini.net"></path><circle class="stroke_order_diagram--path_start" cx="29.25" cy="28.45" r="4" transform="matrix(1,0,0,1,96,-4)"></circle><line class="stroke_order_diagram--guide_line" x1="250" x2="250" y1="1" y2="99"></line><line class="stroke_order_diagram--bounding_box" x1="299" x2="299" y1="1" y2="99"></line><path class="stroke_order_diagram--existing_path" d="M52.81,12.5c1.28,1.28,1.87,3.25,1.87,5.35c0,3.05,0,3.65,0,7.65" id="Ske1z0pt7o" kvg:type="㇑a" transform="matrix(1,0,0,1,196,-4)" xmlns:kvg="http://kanjivg.tagaini.net"></path><path class="stroke_order_diagram--existing_path" d="M29.25,28.45c2.19,0.62,5.12,0.5,7.4,0.27c8.67-0.91,26.08-3.46,36.1-4.24c2.68-0.21,5.33-0.35,8,0.1" id="Ske1z0pt7p" kvg:type="㇐" transform="matrix(1,0,0,1,196,-4)" xmlns:kvg="http://kanjivg.tagaini.net"></path><path class="stroke_order_diagram--current_path" d="M38.25,33.25c2.91,4.85,4.24,9.81,4.5,13" id="kvg:08f9b-s3" kvg:type="㇔" transform="matrix(1,0,0,1,196,-4)" xmlns:kvg="http://kanjivg.tagaini.net"></path><path class="stroke_order_diagram--current_path" d="M38.25,33.25c2.91,4.85,4.24,9.81,4.5,13" id="Ske1z0pt7r" kvg:type="㇔" transform="matrix(1,0,0,1,196,-4)" xmlns:kvg="http://kanjivg.tagaini.net"></path><circle class="stroke_order_diagram--path_start" cx="38.25" cy="33.25" r="4" transform="matrix(1,0,0,1,196,-4)"></circle><line class="stroke_order_diagram--guide_line" x1="350" x2="350" y1="1" y2="99"></line><line class="stroke_order_diagram--bounding_box" x1="399" x2="399" y1="1" y2="99"></line><path class="stroke_order_diagram--existing_path" d="M52.81,12.5c1.28,1.28,1.87,3.25,1.87,5.35c0,3.05,0,3.65,0,7.65" id="Ske1z0pt7u" kvg:type="㇑a" transform="matrix(1,0,0,1,296,-4)" xmlns:kvg="http://kanjivg.tagaini.net"></path><path class="stroke_order_diagram--existing_path" d="M29.25,28.45c2.19,0.62,5.12,0.5,7.4,0.27c8.67-0.91,26.08-3.46,36.1-4.24c2.68-0.21,5.33-0.35,8,0.1" id="Ske1z0pt7v" kvg:type="㇐" transform="matrix(1,0,0,1,296,-4)" xmlns:kvg="http://kanjivg.tagaini.net"></path><path class="stroke_order_diagram--existing_path" d="M38.25,33.25c2.91,4.85,4.24,9.81,4.5,13" id="Ske1z0pt7w" kvg:type="㇔" transform="matrix(1,0,0,1,296,-4)" xmlns:kvg="http://kanjivg.tagaini.net"></path><path class="stroke_order_diagram--current_path" d="M68.26,28c0.37,1,0.12,1.75-0.24,2.77c-1.04,2.96-4.74,10.12-6.27,12.48" id="kvg:08f9b-s4" kvg:type="㇒" transform="matrix(1,0,0,1,296,-4)" xmlns:kvg="http://kanjivg.tagaini.net"></path><path class="stroke_order_diagram--current_path" d="M68.26,28c0.37,1,0.12,1.75-0.24,2.77c-1.04,2.96-4.74,10.12-6.27,12.48" id="Ske1z0pt7y" kvg:type="㇒" transform="matrix(1,0,0,1,296,-4)" xmlns:kvg="http://kanjivg.tagaini.net"></path><circle class="stroke_order_diagram--path_start" cx="68.26" cy="28" r="4" transform="matrix(1,0,0,1,296,-4)"></circle><line class="stroke_order_diagram--guide_line" x1="450" x2="450" y1="1" y2="99"></line><line class="stroke_order_diagram--bounding_box" x1="499" x2="499" y1="1" y2="99"></line><path class="stroke_order_diagram--existing_path" d="M52.81,12.5c1.28,1.28,1.87,3.25,1.87,5.35c0,3.05,0,3.65,0,7.65" id="Ske1z0pt711" kvg:type="㇑a" transform="matrix(1,0,0,1,396,-4)" xmlns:kvg="http://kanjivg.tagaini.net"></path><path class="stroke_order_diagram--existing_path" d="M29.25,28.45c2.19,0.62,5.12,0.5,7.4,0.27c8.67-0.91,26.08-3.46,36.1-4.24c2.68-0.21,5.33-0.35,8,0.1" id="Ske1z0pt712" kvg:type="㇐" transform="matrix(1,0,0,1,396,-4)" xmlns:kvg="http://kanjivg.tagaini.net"></path><path class="stroke_order_diagram--existing_path" d="M38.25,33.25c2.91,4.85,4.24,9.81,4.5,13" id="Ske1z0pt713" kvg:type="㇔" transform="matrix(1,0,0,1,396,-4)" xmlns:kvg="http://kanjivg.tagaini.net"></path><path class="stroke_order_diagram--existing_path" d="M68.26,28c0.37,1,0.12,1.75-0.24,2.77c-1.04,2.96-4.74,10.12-6.27,12.48" id="Ske1z0pt714" kvg:type="㇒" transform="matrix(1,0,0,1,396,-4)" xmlns:kvg="http://kanjivg.tagaini.net"></path><path class="stroke_order_diagram--current_path" d="M13.25,50.3c3.28,0.88,6.65,0.76,10,0.32c17-2.25,44.14-4.57,61.63-5.64c3.5-0.21,6.9-0.21,10.38,0.35" id="kvg:08f9b-s5" kvg:type="㇐" transform="matrix(1,0,0,1,396,-4)" xmlns:kvg="http://kanjivg.tagaini.net"></path><path class="stroke_order_diagram--current_path" d="M13.25,50.3c3.28,0.88,6.65,0.76,10,0.32c17-2.25,44.14-4.57,61.63-5.64c3.5-0.21,6.9-0.21,10.38,0.35" id="Ske1z0pt716" kvg:type="㇐" transform="matrix(1,0,0,1,396,-4)" xmlns:kvg="http://kanjivg.tagaini.net"></path><circle class="stroke_order_diagram--path_start" cx="13.25" cy="50.3" r="4" transform="matrix(1,0,0,1,396,-4)"></circle><line class="stroke_order_diagram--guide_line" x1="550" x2="550" y1="1" y2="99"></line><line class="stroke_order_diagram--bounding_box" x1="599" x2="599" y1="1" y2="99"></line><path class="stroke_order_diagram--existing_path" d="M52.81,12.5c1.28,1.28,1.87,3.25,1.87,5.35c0,3.05,0,3.65,0,7.65" id="Ske1z0pt719" kvg:type="㇑a" transform="matrix(1,0,0,1,496,-4)" xmlns:kvg="http://kanjivg.tagaini.net"></path><path class="stroke_order_diagram--existing_path" d="M29.25,28.45c2.19,0.62,5.12,0.5,7.4,0.27c8.67-0.91,26.08-3.46,36.1-4.24c2.68-0.21,5.33-0.35,8,0.1" id="Ske1z0pt71a" kvg:type="㇐" transform="matrix(1,0,0,1,496,-4)" xmlns:kvg="http://kanjivg.tagaini.net"></path><path class="stroke_order_diagram--existing_path" d="M38.25,33.25c2.91,4.85,4.24,9.81,4.5,13" id="Ske1z0pt71b" kvg:type="㇔" transform="matrix(1,0,0,1,496,-4)" xmlns:kvg="http://kanjivg.tagaini.net"></path><path class="stroke_order_diagram--existing_path" d="M68.26,28c0.37,1,0.12,1.75-0.24,2.77c-1.04,2.96-4.74,10.12-6.27,12.48" id="Ske1z0pt71c" kvg:type="㇒" transform="matrix(1,0,0,1,496,-4)" xmlns:kvg="http://kanjivg.tagaini.net"></path><path class="stroke_order_diagram--existing_path" d="M13.25,50.3c3.28,0.88,6.65,0.76,10,0.32c17-2.25,44.14-4.57,61.63-5.64c3.5-0.21,6.9-0.21,10.38,0.35" id="Ske1z0pt71d" kvg:type="㇐" transform="matrix(1,0,0,1,496,-4)" xmlns:kvg="http://kanjivg.tagaini.net"></path><path class="stroke_order_diagram--current_path" d="M24.64,69.2c2.96,1.05,7.34,0.67,10.36,0.19c13.8-2.19,28.14-3.34,40.5-4.25c3.41-0.25,6.73-0.14,10.11,0.58" id="kvg:08f9b-s6" kvg:type="㇐" transform="matrix(1,0,0,1,496,-4)" xmlns:kvg="http://kanjivg.tagaini.net"></path><path class="stroke_order_diagram--current_path" d="M24.64,69.2c2.96,1.05,7.34,0.67,10.36,0.19c13.8-2.19,28.14-3.34,40.5-4.25c3.41-0.25,6.73-0.14,10.11,0.58" id="Ske1z0pt71f" kvg:type="㇐" transform="matrix(1,0,0,1,496,-4)" xmlns:kvg="http://kanjivg.tagaini.net"></path><circle class="stroke_order_diagram--path_start" cx="24.64" cy="69.2" r="4" transform="matrix(1,0,0,1,496,-4)"></circle><line class="stroke_order_diagram--guide_line" x1="650" x2="650" y1="1" y2="99"></line><line class="stroke_order_diagram--bounding_box" x1="699" x2="699" y1="1" y2="99"></line><path class="stroke_order_diagram--existing_path" d="M52.81,12.5c1.28,1.28,1.87,3.25,1.87,5.35c0,3.05,0,3.65,0,7.65" id="Ske1z0pt71i" kvg:type="㇑a" transform="matrix(1,0,0,1,596,-4)" xmlns:kvg="http://kanjivg.tagaini.net"></path><path class="stroke_order_diagram--existing_path" d="M29.25,28.45c2.19,0.62,5.12,0.5,7.4,0.27c8.67-0.91,26.08-3.46,36.1-4.24c2.68-0.21,5.33-0.35,8,0.1" id="Ske1z0pt71j" kvg:type="㇐" transform="matrix(1,0,0,1,596,-4)" xmlns:kvg="http://kanjivg.tagaini.net"></path><path class="stroke_order_diagram--existing_path" d="M38.25,33.25c2.91,4.85,4.24,9.81,4.5,13" id="Ske1z0pt71k" kvg:type="㇔" transform="matrix(1,0,0,1,596,-4)" xmlns:kvg="http://kanjivg.tagaini.net"></path><path class="stroke_order_diagram--existing_path" d="M68.26,28c0.37,1,0.12,1.75-0.24,2.77c-1.04,2.96-4.74,10.12-6.27,12.48" id="Ske1z0pt71l" kvg:type="㇒" transform="matrix(1,0,0,1,596,-4)" xmlns:kvg="http://kanjivg.tagaini.net"></path><path class="stroke_order_diagram--existing_path" d="M13.25,50.3c3.28,0.88,6.65,0.76,10,0.32c17-2.25,44.14-4.57,61.63-5.64c3.5-0.21,6.9-0.21,10.38,0.35" id="Ske1z0pt71m" kvg:type="㇐" transform="matrix(1,0,0,1,596,-4)" xmlns:kvg="http://kanjivg.tagaini.net"></path><path class="stroke_order_diagram--existing_path" d="M24.64,69.2c2.96,1.05,7.34,0.67,10.36,0.19c13.8-2.19,28.14-3.34,40.5-4.25c3.41-0.25,6.73-0.14,10.11,0.58" id="Ske1z0pt71n" kvg:type="㇐" transform="matrix(1,0,0,1,596,-4)" xmlns:kvg="http://kanjivg.tagaini.net"></path><path class="stroke_order_diagram--current_path" d="M53.14,49.38c0.99,0.99,1.18,2.37,1.18,4.21c0,6.46,0.02,25.4,0.03,37.15c0,3.07,0,5.65,0,7.38" id="kvg:08f9b-s7" kvg:type="㇑" transform="matrix(1,0,0,1,596,-4)" xmlns:kvg="http://kanjivg.tagaini.net"></path><path class="stroke_order_diagram--current_path" d="M53.14,49.38c0.99,0.99,1.18,2.37,1.18,4.21c0,6.46,0.02,25.4,0.03,37.15c0,3.07,0,5.65,0,7.38" id="Ske1z0pt71p" kvg:type="㇑" transform="matrix(1,0,0,1,596,-4)" xmlns:kvg="http://kanjivg.tagaini.net"></path><circle class="stroke_order_diagram--path_start" cx="53.14" cy="49.38" r="4" transform="matrix(1,0,0,1,596,-4)"></circle></svg>