<svg class="stroke_order_diagram--svg_container_for_5186629ad5dda79658000abd" style="height: 100px; width: 1200px;" viewbox="0 0 1200 100"><desc>Created with Snap</desc><defs></defs><line class="stroke_order_diagram--bounding_box" x1="1" x2="1199" y1="1" y2="1"></line><line class="stroke_order_diagram--bounding_box" x1="1" x2="1" y1="1" y2="99"></line><line class="stroke_order_diagram--bounding_box" x1="1" x2="1199" y1="99" y2="99"></line><line class="stroke_order_diagram--guide_line" x1="0" x2="1200" y1="50" y2="50"></line><line class="stroke_order_diagram--guide_line" x1="50" x2="50" y1="1" y2="99"></line><line class="stroke_order_diagram--bounding_box" x1="99" x2="99" y1="1" y2="99"></line><path class="stroke_order_diagram--current_path" d="M46.52,12.03c0.98,0.98,1.67,2.22,1.67,3.82c0,3.55-0.07,7.4-0.07,10.44" id="kvg:0904a-s1" kvg:type="㇑a" transform="matrix(1,0,0,1,-4,-4)" xmlns:kvg="http://kanjivg.tagaini.net"></path><path class="stroke_order_diagram--current_path" d="M46.52,12.03c0.98,0.98,1.67,2.22,1.67,3.82c0,3.55-0.07,7.4-0.07,10.44" id="Ske2a0l15l" kvg:type="㇑a" transform="matrix(1,0,0,1,-4,-4)" xmlns:kvg="http://kanjivg.tagaini.net"></path><circle class="stroke_order_diagram--path_start" cx="46.52" cy="12.03" r="4" transform="matrix(1,0,0,1,-4,-4)"></circle><line class="stroke_order_diagram--guide_line" x1="150" x2="150" y1="1" y2="99"></line><line class="stroke_order_diagram--bounding_box" x1="199" x2="199" y1="1" y2="99"></line><path class="stroke_order_diagram--existing_path" d="M46.52,12.03c0.98,0.98,1.67,2.22,1.67,3.82c0,3.55-0.07,7.4-0.07,10.44" id="Ske2a0l15o" kvg:type="㇑a" transform="matrix(1,0,0,1,96,-4)" xmlns:kvg="http://kanjivg.tagaini.net"></path><path class="stroke_order_diagram--current_path" d="M33.25,28.91c1.88,0.23,2.82,0.46,4.77,0.1c4.86-0.89,12.05-2.34,16.36-3.07c1.73-0.29,3.37-0.44,5.12-0.44" id="kvg:0904a-s2" kvg:type="㇐" transform="matrix(1,0,0,1,96,-4)" xmlns:kvg="http://kanjivg.tagaini.net"></path><path class="stroke_order_diagram--current_path" d="M33.25,28.91c1.88,0.23,2.82,0.46,4.77,0.1c4.86-0.89,12.05-2.34,16.36-3.07c1.73-0.29,3.37-0.44,5.12-0.44" id="Ske2a0l15q" kvg:type="㇐" transform="matrix(1,0,0,1,96,-4)" xmlns:kvg="http://kanjivg.tagaini.net"></path><circle class="stroke_order_diagram--path_start" cx="33.25" cy="28.91" r="4" transform="matrix(1,0,0,1,96,-4)"></circle><line class="stroke_order_diagram--guide_line" x1="250" x2="250" y1="1" y2="99"></line><line class="stroke_order_diagram--bounding_box" x1="299" x2="299" y1="1" y2="99"></line><path class="stroke_order_diagram--existing_path" d="M46.52,12.03c0.98,0.98,1.67,2.22,1.67,3.82c0,3.55-0.07,7.4-0.07,10.44" id="Ske2a0l15t" kvg:type="㇑a" transform="matrix(1,0,0,1,196,-4)" xmlns:kvg="http://kanjivg.tagaini.net"></path><path class="stroke_order_diagram--existing_path" d="M33.25,28.91c1.88,0.23,2.82,0.46,4.77,0.1c4.86-0.89,12.05-2.34,16.36-3.07c1.73-0.29,3.37-0.44,5.12-0.44" id="Ske2a0l15u" kvg:type="㇐" transform="matrix(1,0,0,1,196,-4)" xmlns:kvg="http://kanjivg.tagaini.net"></path><path class="stroke_order_diagram--current_path" d="M47.27,39.88c3.1,0.8,4.98,1.87,8.83,2.24c1.65,0.16,3.05,2.3,2.64,4.38c-1.5,7.75-7.17,22.8-9.29,26.83c-2.21,4.17-4.46,1.55-6.09-1.7" id="kvg:0904a-s3" kvg:type="㇆a" transform="matrix(1,0,0,1,196,-4)" xmlns:kvg="http://kanjivg.tagaini.net"></path><path class="stroke_order_diagram--current_path" d="M47.27,39.88c3.1,0.8,4.98,1.87,8.83,2.24c1.65,0.16,3.05,2.3,2.64,4.38c-1.5,7.75-7.17,22.8-9.29,26.83c-2.21,4.17-4.46,1.55-6.09-1.7" id="Ske2a0l15w" kvg:type="㇆a" transform="matrix(1,0,0,1,196,-4)" xmlns:kvg="http://kanjivg.tagaini.net"></path><circle class="stroke_order_diagram--path_start" cx="47.27" cy="39.88" r="4" transform="matrix(1,0,0,1,196,-4)"></circle><line class="stroke_order_diagram--guide_line" x1="350" x2="350" y1="1" y2="99"></line><line class="stroke_order_diagram--bounding_box" x1="399" x2="399" y1="1" y2="99"></line><path class="stroke_order_diagram--existing_path" d="M46.52,12.03c0.98,0.98,1.67,2.22,1.67,3.82c0,3.55-0.07,7.4-0.07,10.44" id="Ske2a0l15z" kvg:type="㇑a" transform="matrix(1,0,0,1,296,-4)" xmlns:kvg="http://kanjivg.tagaini.net"></path><path class="stroke_order_diagram--existing_path" d="M33.25,28.91c1.88,0.23,2.82,0.46,4.77,0.1c4.86-0.89,12.05-2.34,16.36-3.07c1.73-0.29,3.37-0.44,5.12-0.44" id="Ske2a0l1510" kvg:type="㇐" transform="matrix(1,0,0,1,296,-4)" xmlns:kvg="http://kanjivg.tagaini.net"></path><path class="stroke_order_diagram--existing_path" d="M47.27,39.88c3.1,0.8,4.98,1.87,8.83,2.24c1.65,0.16,3.05,2.3,2.64,4.38c-1.5,7.75-7.17,22.8-9.29,26.83c-2.21,4.17-4.46,1.55-6.09-1.7" id="Ske2a0l1511" kvg:type="㇆a" transform="matrix(1,0,0,1,296,-4)" xmlns:kvg="http://kanjivg.tagaini.net"></path><path class="stroke_order_diagram--current_path" d="M46.35,31.12c0.47,0.51,0.92,1.89,0.72,3.01c-1.7,9.36-6.7,24.99-16.2,35.11" id="kvg:0904a-s4" kvg:type="㇒" transform="matrix(1,0,0,1,296,-4)" xmlns:kvg="http://kanjivg.tagaini.net"></path><path class="stroke_order_diagram--current_path" d="M46.35,31.12c0.47,0.51,0.92,1.89,0.72,3.01c-1.7,9.36-6.7,24.99-16.2,35.11" id="Ske2a0l1513" kvg:type="㇒" transform="matrix(1,0,0,1,296,-4)" xmlns:kvg="http://kanjivg.tagaini.net"></path><circle class="stroke_order_diagram--path_start" cx="46.35" cy="31.12" r="4" transform="matrix(1,0,0,1,296,-4)"></circle><line class="stroke_order_diagram--guide_line" x1="450" x2="450" y1="1" y2="99"></line><line class="stroke_order_diagram--bounding_box" x1="499" x2="499" y1="1" y2="99"></line><path class="stroke_order_diagram--existing_path" d="M46.52,12.03c0.98,0.98,1.67,2.22,1.67,3.82c0,3.55-0.07,7.4-0.07,10.44" id="Ske2a0l1516" kvg:type="㇑a" transform="matrix(1,0,0,1,396,-4)" xmlns:kvg="http://kanjivg.tagaini.net"></path><path class="stroke_order_diagram--existing_path" d="M33.25,28.91c1.88,0.23,2.82,0.46,4.77,0.1c4.86-0.89,12.05-2.34,16.36-3.07c1.73-0.29,3.37-0.44,5.12-0.44" id="Ske2a0l1517" kvg:type="㇐" transform="matrix(1,0,0,1,396,-4)" xmlns:kvg="http://kanjivg.tagaini.net"></path><path class="stroke_order_diagram--existing_path" d="M47.27,39.88c3.1,0.8,4.98,1.87,8.83,2.24c1.65,0.16,3.05,2.3,2.64,4.38c-1.5,7.75-7.17,22.8-9.29,26.83c-2.21,4.17-4.46,1.55-6.09-1.7" id="Ske2a0l1518" kvg:type="㇆a" transform="matrix(1,0,0,1,396,-4)" xmlns:kvg="http://kanjivg.tagaini.net"></path><path class="stroke_order_diagram--existing_path" d="M46.35,31.12c0.47,0.51,0.92,1.89,0.72,3.01c-1.7,9.36-6.7,24.99-16.2,35.11" id="Ske2a0l1519" kvg:type="㇒" transform="matrix(1,0,0,1,396,-4)" xmlns:kvg="http://kanjivg.tagaini.net"></path><path class="stroke_order_diagram--current_path" d="M71.28,11.39c0.35,0.73,0.4,1.66,0.2,2.41c-1.6,5.95-4.48,13.32-10.17,20.66" id="kvg:0904a-s5" kvg:type="㇒" transform="matrix(1,0,0,1,396,-4)" xmlns:kvg="http://kanjivg.tagaini.net"></path><path class="stroke_order_diagram--current_path" d="M71.28,11.39c0.35,0.73,0.4,1.66,0.2,2.41c-1.6,5.95-4.48,13.32-10.17,20.66" id="Ske2a0l151b" kvg:type="㇒" transform="matrix(1,0,0,1,396,-4)" xmlns:kvg="http://kanjivg.tagaini.net"></path><circle class="stroke_order_diagram--path_start" cx="71.28" cy="11.39" r="4" transform="matrix(1,0,0,1,396,-4)"></circle><line class="stroke_order_diagram--guide_line" x1="550" x2="550" y1="1" y2="99"></line><line class="stroke_order_diagram--bounding_box" x1="599" x2="599" y1="1" y2="99"></line><path class="stroke_order_diagram--existing_path" d="M46.52,12.03c0.98,0.98,1.67,2.22,1.67,3.82c0,3.55-0.07,7.4-0.07,10.44" id="Ske2a0l151e" kvg:type="㇑a" transform="matrix(1,0,0,1,496,-4)" xmlns:kvg="http://kanjivg.tagaini.net"></path><path class="stroke_order_diagram--existing_path" d="M33.25,28.91c1.88,0.23,2.82,0.46,4.77,0.1c4.86-0.89,12.05-2.34,16.36-3.07c1.73-0.29,3.37-0.44,5.12-0.44" id="Ske2a0l151f" kvg:type="㇐" transform="matrix(1,0,0,1,496,-4)" xmlns:kvg="http://kanjivg.tagaini.net"></path><path class="stroke_order_diagram--existing_path" d="M47.27,39.88c3.1,0.8,4.98,1.87,8.83,2.24c1.65,0.16,3.05,2.3,2.64,4.38c-1.5,7.75-7.17,22.8-9.29,26.83c-2.21,4.17-4.46,1.55-6.09-1.7" id="Ske2a0l151g" kvg:type="㇆a" transform="matrix(1,0,0,1,496,-4)" xmlns:kvg="http://kanjivg.tagaini.net"></path><path class="stroke_order_diagram--existing_path" d="M46.35,31.12c0.47,0.51,0.92,1.89,0.72,3.01c-1.7,9.36-6.7,24.99-16.2,35.11" id="Ske2a0l151h" kvg:type="㇒" transform="matrix(1,0,0,1,496,-4)" xmlns:kvg="http://kanjivg.tagaini.net"></path><path class="stroke_order_diagram--existing_path" d="M71.28,11.39c0.35,0.73,0.4,1.66,0.2,2.41c-1.6,5.95-4.48,13.32-10.17,20.66" id="Ske2a0l151i" kvg:type="㇒" transform="matrix(1,0,0,1,496,-4)" xmlns:kvg="http://kanjivg.tagaini.net"></path><path class="stroke_order_diagram--current_path" d="M71.25,23.66c0.75,0.09,2.15,0.32,2.89,0.19c5.34-0.92,10.36-2.09,14.58-2.7C89.83,20.99,90.75,21,92,21" id="kvg:0904a-s6" kvg:type="㇐" transform="matrix(1,0,0,1,496,-4)" xmlns:kvg="http://kanjivg.tagaini.net"></path><path class="stroke_order_diagram--current_path" d="M71.25,23.66c0.75,0.09,2.15,0.32,2.89,0.19c5.34-0.92,10.36-2.09,14.58-2.7C89.83,20.99,90.75,21,92,21" id="Ske2a0l151k" kvg:type="㇐" transform="matrix(1,0,0,1,496,-4)" xmlns:kvg="http://kanjivg.tagaini.net"></path><circle class="stroke_order_diagram--path_start" cx="71.25" cy="23.66" r="4" transform="matrix(1,0,0,1,496,-4)"></circle><line class="stroke_order_diagram--guide_line" x1="650" x2="650" y1="1" y2="99"></line><line class="stroke_order_diagram--bounding_box" x1="699" x2="699" y1="1" y2="99"></line><path class="stroke_order_diagram--existing_path" d="M46.52,12.03c0.98,0.98,1.67,2.22,1.67,3.82c0,3.55-0.07,7.4-0.07,10.44" id="Ske2a0l151n" kvg:type="㇑a" transform="matrix(1,0,0,1,596,-4)" xmlns:kvg="http://kanjivg.tagaini.net"></path><path class="stroke_order_diagram--existing_path" d="M33.25,28.91c1.88,0.23,2.82,0.46,4.77,0.1c4.86-0.89,12.05-2.34,16.36-3.07c1.73-0.29,3.37-0.44,5.12-0.44" id="Ske2a0l151o" kvg:type="㇐" transform="matrix(1,0,0,1,596,-4)" xmlns:kvg="http://kanjivg.tagaini.net"></path><path class="stroke_order_diagram--existing_path" d="M47.27,39.88c3.1,0.8,4.98,1.87,8.83,2.24c1.65,0.16,3.05,2.3,2.64,4.38c-1.5,7.75-7.17,22.8-9.29,26.83c-2.21,4.17-4.46,1.55-6.09-1.7" id="Ske2a0l151p" kvg:type="㇆a" transform="matrix(1,0,0,1,596,-4)" xmlns:kvg="http://kanjivg.tagaini.net"></path><path class="stroke_order_diagram--existing_path" d="M46.35,31.12c0.47,0.51,0.92,1.89,0.72,3.01c-1.7,9.36-6.7,24.99-16.2,35.11" id="Ske2a0l151q" kvg:type="㇒" transform="matrix(1,0,0,1,596,-4)" xmlns:kvg="http://kanjivg.tagaini.net"></path><path class="stroke_order_diagram--existing_path" d="M71.28,11.39c0.35,0.73,0.4,1.66,0.2,2.41c-1.6,5.95-4.48,13.32-10.17,20.66" id="Ske2a0l151r" kvg:type="㇒" transform="matrix(1,0,0,1,596,-4)" xmlns:kvg="http://kanjivg.tagaini.net"></path><path class="stroke_order_diagram--existing_path" d="M71.25,23.66c0.75,0.09,2.15,0.32,2.89,0.19c5.34-0.92,10.36-2.09,14.58-2.7C89.83,20.99,90.75,21,92,21" id="Ske2a0l151s" kvg:type="㇐" transform="matrix(1,0,0,1,596,-4)" xmlns:kvg="http://kanjivg.tagaini.net"></path><path class="stroke_order_diagram--current_path" d="M68.21,37.29c1.17,0.21,2.84,0.28,3.81,0.11c4.48-0.78,10.36-2.15,14.86-3.58c1.72-0.54,2.33,0.88,1.21,2.16C86.12,38.25,82.25,42.5,77.74,47" id="kvg:0904a-s7" kvg:type="㇖" transform="matrix(1,0,0,1,596,-4)" xmlns:kvg="http://kanjivg.tagaini.net"></path><path class="stroke_order_diagram--current_path" d="M68.21,37.29c1.17,0.21,2.84,0.28,3.81,0.11c4.48-0.78,10.36-2.15,14.86-3.58c1.72-0.54,2.33,0.88,1.21,2.16C86.12,38.25,82.25,42.5,77.74,47" id="Ske2a0l151u" kvg:type="㇖" transform="matrix(1,0,0,1,596,-4)" xmlns:kvg="http://kanjivg.tagaini.net"></path><circle class="stroke_order_diagram--path_start" cx="68.21" cy="37.29" r="4" transform="matrix(1,0,0,1,596,-4)"></circle><line class="stroke_order_diagram--guide_line" x1="750" x2="750" y1="1" y2="99"></line><line class="stroke_order_diagram--bounding_box" x1="799" x2="799" y1="1" y2="99"></line><path class="stroke_order_diagram--existing_path" d="M46.52,12.03c0.98,0.98,1.67,2.22,1.67,3.82c0,3.55-0.07,7.4-0.07,10.44" id="Ske2a0l151x" kvg:type="㇑a" transform="matrix(1,0,0,1,696,-4)" xmlns:kvg="http://kanjivg.tagaini.net"></path><path class="stroke_order_diagram--existing_path" d="M33.25,28.91c1.88,0.23,2.82,0.46,4.77,0.1c4.86-0.89,12.05-2.34,16.36-3.07c1.73-0.29,3.37-0.44,5.12-0.44" id="Ske2a0l151y" kvg:type="㇐" transform="matrix(1,0,0,1,696,-4)" xmlns:kvg="http://kanjivg.tagaini.net"></path><path class="stroke_order_diagram--existing_path" d="M47.27,39.88c3.1,0.8,4.98,1.87,8.83,2.24c1.65,0.16,3.05,2.3,2.64,4.38c-1.5,7.75-7.17,22.8-9.29,26.83c-2.21,4.17-4.46,1.55-6.09-1.7" id="Ske2a0l151z" kvg:type="㇆a" transform="matrix(1,0,0,1,696,-4)" xmlns:kvg="http://kanjivg.tagaini.net"></path><path class="stroke_order_diagram--existing_path" d="M46.35,31.12c0.47,0.51,0.92,1.89,0.72,3.01c-1.7,9.36-6.7,24.99-16.2,35.11" id="Ske2a0l1520" kvg:type="㇒" transform="matrix(1,0,0,1,696,-4)" xmlns:kvg="http://kanjivg.tagaini.net"></path><path class="stroke_order_diagram--existing_path" d="M71.28,11.39c0.35,0.73,0.4,1.66,0.2,2.41c-1.6,5.95-4.48,13.32-10.17,20.66" id="Ske2a0l1521" kvg:type="㇒" transform="matrix(1,0,0,1,696,-4)" xmlns:kvg="http://kanjivg.tagaini.net"></path><path class="stroke_order_diagram--existing_path" d="M71.25,23.66c0.75,0.09,2.15,0.32,2.89,0.19c5.34-0.92,10.36-2.09,14.58-2.7C89.83,20.99,90.75,21,92,21" id="Ske2a0l1522" kvg:type="㇐" transform="matrix(1,0,0,1,696,-4)" xmlns:kvg="http://kanjivg.tagaini.net"></path><path class="stroke_order_diagram--existing_path" d="M68.21,37.29c1.17,0.21,2.84,0.28,3.81,0.11c4.48-0.78,10.36-2.15,14.86-3.58c1.72-0.54,2.33,0.88,1.21,2.16C86.12,38.25,82.25,42.5,77.74,47" id="Ske2a0l1523" kvg:type="㇖" transform="matrix(1,0,0,1,696,-4)" xmlns:kvg="http://kanjivg.tagaini.net"></path><path class="stroke_order_diagram--current_path" d="M76.74,47.45c6.63,8.05,8.13,19.3,3.34,30.16c-2.11,4.77-5.46-0.34-6.18-0.89" id="kvg:0904a-s8" kvg:type="㇕v" transform="matrix(1,0,0,1,696,-4)" xmlns:kvg="http://kanjivg.tagaini.net"></path><path class="stroke_order_diagram--current_path" d="M76.74,47.45c6.63,8.05,8.13,19.3,3.34,30.16c-2.11,4.77-5.46-0.34-6.18-0.89" id="Ske2a0l1525" kvg:type="㇕v" transform="matrix(1,0,0,1,696,-4)" xmlns:kvg="http://kanjivg.tagaini.net"></path><circle class="stroke_order_diagram--path_start" cx="76.74" cy="47.45" r="4" transform="matrix(1,0,0,1,696,-4)"></circle><line class="stroke_order_diagram--guide_line" x1="850" x2="850" y1="1" y2="99"></line><line class="stroke_order_diagram--bounding_box" x1="899" x2="899" y1="1" y2="99"></line><path class="stroke_order_diagram--existing_path" d="M46.52,12.03c0.98,0.98,1.67,2.22,1.67,3.82c0,3.55-0.07,7.4-0.07,10.44" id="Ske2a0l1528" kvg:type="㇑a" transform="matrix(1,0,0,1,796,-4)" xmlns:kvg="http://kanjivg.tagaini.net"></path><path class="stroke_order_diagram--existing_path" d="M33.25,28.91c1.88,0.23,2.82,0.46,4.77,0.1c4.86-0.89,12.05-2.34,16.36-3.07c1.73-0.29,3.37-0.44,5.12-0.44" id="Ske2a0l1529" kvg:type="㇐" transform="matrix(1,0,0,1,796,-4)" xmlns:kvg="http://kanjivg.tagaini.net"></path><path class="stroke_order_diagram--existing_path" d="M47.27,39.88c3.1,0.8,4.98,1.87,8.83,2.24c1.65,0.16,3.05,2.3,2.64,4.38c-1.5,7.75-7.17,22.8-9.29,26.83c-2.21,4.17-4.46,1.55-6.09-1.7" id="Ske2a0l152a" kvg:type="㇆a" transform="matrix(1,0,0,1,796,-4)" xmlns:kvg="http://kanjivg.tagaini.net"></path><path class="stroke_order_diagram--existing_path" d="M46.35,31.12c0.47,0.51,0.92,1.89,0.72,3.01c-1.7,9.36-6.7,24.99-16.2,35.11" id="Ske2a0l152b" kvg:type="㇒" transform="matrix(1,0,0,1,796,-4)" xmlns:kvg="http://kanjivg.tagaini.net"></path><path class="stroke_order_diagram--existing_path" d="M71.28,11.39c0.35,0.73,0.4,1.66,0.2,2.41c-1.6,5.95-4.48,13.32-10.17,20.66" id="Ske2a0l152c" kvg:type="㇒" transform="matrix(1,0,0,1,796,-4)" xmlns:kvg="http://kanjivg.tagaini.net"></path><path class="stroke_order_diagram--existing_path" d="M71.25,23.66c0.75,0.09,2.15,0.32,2.89,0.19c5.34-0.92,10.36-2.09,14.58-2.7C89.83,20.99,90.75,21,92,21" id="Ske2a0l152d" kvg:type="㇐" transform="matrix(1,0,0,1,796,-4)" xmlns:kvg="http://kanjivg.tagaini.net"></path><path class="stroke_order_diagram--existing_path" d="M68.21,37.29c1.17,0.21,2.84,0.28,3.81,0.11c4.48-0.78,10.36-2.15,14.86-3.58c1.72-0.54,2.33,0.88,1.21,2.16C86.12,38.25,82.25,42.5,77.74,47" id="Ske2a0l152e" kvg:type="㇖" transform="matrix(1,0,0,1,796,-4)" xmlns:kvg="http://kanjivg.tagaini.net"></path><path class="stroke_order_diagram--existing_path" d="M76.74,47.45c6.63,8.05,8.13,19.3,3.34,30.16c-2.11,4.77-5.46-0.34-6.18-0.89" id="Ske2a0l152f" kvg:type="㇕v" transform="matrix(1,0,0,1,796,-4)" xmlns:kvg="http://kanjivg.tagaini.net"></path><path class="stroke_order_diagram--current_path" d="M62.21,56.54c2.1,0.83,4.87,0.38,7.05,0.14c5.9-0.65,16.43-2.37,22.99-2.62c1.89-0.07,4.09-0.19,5.93,0.41" id="kvg:0904a-s9" kvg:type="㇐" transform="matrix(1,0,0,1,796,-4)" xmlns:kvg="http://kanjivg.tagaini.net"></path><path class="stroke_order_diagram--current_path" d="M62.21,56.54c2.1,0.83,4.87,0.38,7.05,0.14c5.9-0.65,16.43-2.37,22.99-2.62c1.89-0.07,4.09-0.19,5.93,0.41" id="Ske2a0l152h" kvg:type="㇐" transform="matrix(1,0,0,1,796,-4)" xmlns:kvg="http://kanjivg.tagaini.net"></path><circle class="stroke_order_diagram--path_start" cx="62.21" cy="56.54" r="4" transform="matrix(1,0,0,1,796,-4)"></circle><line class="stroke_order_diagram--guide_line" x1="950" x2="950" y1="1" y2="99"></line><line class="stroke_order_diagram--bounding_box" x1="999" x2="999" y1="1" y2="99"></line><path class="stroke_order_diagram--existing_path" d="M46.52,12.03c0.98,0.98,1.67,2.22,1.67,3.82c0,3.55-0.07,7.4-0.07,10.44" id="Ske2a0l152k" kvg:type="㇑a" transform="matrix(1,0,0,1,896,-4)" xmlns:kvg="http://kanjivg.tagaini.net"></path><path class="stroke_order_diagram--existing_path" d="M33.25,28.91c1.88,0.23,2.82,0.46,4.77,0.1c4.86-0.89,12.05-2.34,16.36-3.07c1.73-0.29,3.37-0.44,5.12-0.44" id="Ske2a0l152l" kvg:type="㇐" transform="matrix(1,0,0,1,896,-4)" xmlns:kvg="http://kanjivg.tagaini.net"></path><path class="stroke_order_diagram--existing_path" d="M47.27,39.88c3.1,0.8,4.98,1.87,8.83,2.24c1.65,0.16,3.05,2.3,2.64,4.38c-1.5,7.75-7.17,22.8-9.29,26.83c-2.21,4.17-4.46,1.55-6.09-1.7" id="Ske2a0l152m" kvg:type="㇆a" transform="matrix(1,0,0,1,896,-4)" xmlns:kvg="http://kanjivg.tagaini.net"></path><path class="stroke_order_diagram--existing_path" d="M46.35,31.12c0.47,0.51,0.92,1.89,0.72,3.01c-1.7,9.36-6.7,24.99-16.2,35.11" id="Ske2a0l152n" kvg:type="㇒" transform="matrix(1,0,0,1,896,-4)" xmlns:kvg="http://kanjivg.tagaini.net"></path><path class="stroke_order_diagram--existing_path" d="M71.28,11.39c0.35,0.73,0.4,1.66,0.2,2.41c-1.6,5.95-4.48,13.32-10.17,20.66" id="Ske2a0l152o" kvg:type="㇒" transform="matrix(1,0,0,1,896,-4)" xmlns:kvg="http://kanjivg.tagaini.net"></path><path class="stroke_order_diagram--existing_path" d="M71.25,23.66c0.75,0.09,2.15,0.32,2.89,0.19c5.34-0.92,10.36-2.09,14.58-2.7C89.83,20.99,90.75,21,92,21" id="Ske2a0l152p" kvg:type="㇐" transform="matrix(1,0,0,1,896,-4)" xmlns:kvg="http://kanjivg.tagaini.net"></path><path class="stroke_order_diagram--existing_path" d="M68.21,37.29c1.17,0.21,2.84,0.28,3.81,0.11c4.48-0.78,10.36-2.15,14.86-3.58c1.72-0.54,2.33,0.88,1.21,2.16C86.12,38.25,82.25,42.5,77.74,47" id="Ske2a0l152q" kvg:type="㇖" transform="matrix(1,0,0,1,896,-4)" xmlns:kvg="http://kanjivg.tagaini.net"></path><path class="stroke_order_diagram--existing_path" d="M76.74,47.45c6.63,8.05,8.13,19.3,3.34,30.16c-2.11,4.77-5.46-0.34-6.18-0.89" id="Ske2a0l152r" kvg:type="㇕v" transform="matrix(1,0,0,1,896,-4)" xmlns:kvg="http://kanjivg.tagaini.net"></path><path class="stroke_order_diagram--existing_path" d="M62.21,56.54c2.1,0.83,4.87,0.38,7.05,0.14c5.9-0.65,16.43-2.37,22.99-2.62c1.89-0.07,4.09-0.19,5.93,0.41" id="Ske2a0l152s" kvg:type="㇐" transform="matrix(1,0,0,1,896,-4)" xmlns:kvg="http://kanjivg.tagaini.net"></path><path class="stroke_order_diagram--current_path" d="M15.38,18.62c3.4,1.72,8.78,7.08,9.62,9.76" id="kvg:0904a-s10" kvg:type="㇔" transform="matrix(1,0,0,1,896,-4)" xmlns:kvg="http://kanjivg.tagaini.net"></path><path class="stroke_order_diagram--current_path" d="M15.38,18.62c3.4,1.72,8.78,7.08,9.62,9.76" id="Ske2a0l152u" kvg:type="㇔" transform="matrix(1,0,0,1,896,-4)" xmlns:kvg="http://kanjivg.tagaini.net"></path><circle class="stroke_order_diagram--path_start" cx="15.38" cy="18.62" r="4" transform="matrix(1,0,0,1,896,-4)"></circle><line class="stroke_order_diagram--guide_line" x1="1050" x2="1050" y1="1" y2="99"></line><line class="stroke_order_diagram--bounding_box" x1="1099" x2="1099" y1="1" y2="99"></line><path class="stroke_order_diagram--existing_path" d="M46.52,12.03c0.98,0.98,1.67,2.22,1.67,3.82c0,3.55-0.07,7.4-0.07,10.44" id="Ske2a0l152x" kvg:type="㇑a" transform="matrix(1,0,0,1,996,-4)" xmlns:kvg="http://kanjivg.tagaini.net"></path><path class="stroke_order_diagram--existing_path" d="M33.25,28.91c1.88,0.23,2.82,0.46,4.77,0.1c4.86-0.89,12.05-2.34,16.36-3.07c1.73-0.29,3.37-0.44,5.12-0.44" id="Ske2a0l152y" kvg:type="㇐" transform="matrix(1,0,0,1,996,-4)" xmlns:kvg="http://kanjivg.tagaini.net"></path><path class="stroke_order_diagram--existing_path" d="M47.27,39.88c3.1,0.8,4.98,1.87,8.83,2.24c1.65,0.16,3.05,2.3,2.64,4.38c-1.5,7.75-7.17,22.8-9.29,26.83c-2.21,4.17-4.46,1.55-6.09-1.7" id="Ske2a0l152z" kvg:type="㇆a" transform="matrix(1,0,0,1,996,-4)" xmlns:kvg="http://kanjivg.tagaini.net"></path><path class="stroke_order_diagram--existing_path" d="M46.35,31.12c0.47,0.51,0.92,1.89,0.72,3.01c-1.7,9.36-6.7,24.99-16.2,35.11" id="Ske2a0l1530" kvg:type="㇒" transform="matrix(1,0,0,1,996,-4)" xmlns:kvg="http://kanjivg.tagaini.net"></path><path class="stroke_order_diagram--existing_path" d="M71.28,11.39c0.35,0.73,0.4,1.66,0.2,2.41c-1.6,5.95-4.48,13.32-10.17,20.66" id="Ske2a0l1531" kvg:type="㇒" transform="matrix(1,0,0,1,996,-4)" xmlns:kvg="http://kanjivg.tagaini.net"></path><path class="stroke_order_diagram--existing_path" d="M71.25,23.66c0.75,0.09,2.15,0.32,2.89,0.19c5.34-0.92,10.36-2.09,14.58-2.7C89.83,20.99,90.75,21,92,21" id="Ske2a0l1532" kvg:type="㇐" transform="matrix(1,0,0,1,996,-4)" xmlns:kvg="http://kanjivg.tagaini.net"></path><path class="stroke_order_diagram--existing_path" d="M68.21,37.29c1.17,0.21,2.84,0.28,3.81,0.11c4.48-0.78,10.36-2.15,14.86-3.58c1.72-0.54,2.33,0.88,1.21,2.16C86.12,38.25,82.25,42.5,77.74,47" id="Ske2a0l1533" kvg:type="㇖" transform="matrix(1,0,0,1,996,-4)" xmlns:kvg="http://kanjivg.tagaini.net"></path><path class="stroke_order_diagram--existing_path" d="M76.74,47.45c6.63,8.05,8.13,19.3,3.34,30.16c-2.11,4.77-5.46-0.34-6.18-0.89" id="Ske2a0l1534" kvg:type="㇕v" transform="matrix(1,0,0,1,996,-4)" xmlns:kvg="http://kanjivg.tagaini.net"></path><path class="stroke_order_diagram--existing_path" d="M62.21,56.54c2.1,0.83,4.87,0.38,7.05,0.14c5.9-0.65,16.43-2.37,22.99-2.62c1.89-0.07,4.09-0.19,5.93,0.41" id="Ske2a0l1535" kvg:type="㇐" transform="matrix(1,0,0,1,996,-4)" xmlns:kvg="http://kanjivg.tagaini.net"></path><path class="stroke_order_diagram--existing_path" d="M15.38,18.62c3.4,1.72,8.78,7.08,9.62,9.76" id="Ske2a0l1536" kvg:type="㇔" transform="matrix(1,0,0,1,996,-4)" xmlns:kvg="http://kanjivg.tagaini.net"></path><path class="stroke_order_diagram--current_path" d="M11,47c2.25,1,3.75,0.5,4.75,0.25S25,44,26.5,43.5s3.41,1.62,2.25,3c-11.88,14.12-11.5,11.38-3.75,18c1.82,1.56,1.5,3.5-0.5,5.25c-2.39,2.1-5.5,4.88-8.5,7.75" id="kvg:0904a-s11" kvg:type="㇋" transform="matrix(1,0,0,1,996,-4)" xmlns:kvg="http://kanjivg.tagaini.net"></path><path class="stroke_order_diagram--current_path" d="M11,47c2.25,1,3.75,0.5,4.75,0.25S25,44,26.5,43.5s3.41,1.62,2.25,3c-11.88,14.12-11.5,11.38-3.75,18c1.82,1.56,1.5,3.5-0.5,5.25c-2.39,2.1-5.5,4.88-8.5,7.75" id="Ske2a0l1538" kvg:type="㇋" transform="matrix(1,0,0,1,996,-4)" xmlns:kvg="http://kanjivg.tagaini.net"></path><circle class="stroke_order_diagram--path_start" cx="11" cy="47" r="4" transform="matrix(1,0,0,1,996,-4)"></circle><line class="stroke_order_diagram--guide_line" x1="1150" x2="1150" y1="1" y2="99"></line><line class="stroke_order_diagram--bounding_box" x1="1199" x2="1199" y1="1" y2="99"></line><path class="stroke_order_diagram--existing_path" d="M46.52,12.03c0.98,0.98,1.67,2.22,1.67,3.82c0,3.55-0.07,7.4-0.07,10.44" id="Ske2a0l153b" kvg:type="㇑a" transform="matrix(1,0,0,1,1096,-4)" xmlns:kvg="http://kanjivg.tagaini.net"></path><path class="stroke_order_diagram--existing_path" d="M33.25,28.91c1.88,0.23,2.82,0.46,4.77,0.1c4.86-0.89,12.05-2.34,16.36-3.07c1.73-0.29,3.37-0.44,5.12-0.44" id="Ske2a0l153c" kvg:type="㇐" transform="matrix(1,0,0,1,1096,-4)" xmlns:kvg="http://kanjivg.tagaini.net"></path><path class="stroke_order_diagram--existing_path" d="M47.27,39.88c3.1,0.8,4.98,1.87,8.83,2.24c1.65,0.16,3.05,2.3,2.64,4.38c-1.5,7.75-7.17,22.8-9.29,26.83c-2.21,4.17-4.46,1.55-6.09-1.7" id="Ske2a0l153d" kvg:type="㇆a" transform="matrix(1,0,0,1,1096,-4)" xmlns:kvg="http://kanjivg.tagaini.net"></path><path class="stroke_order_diagram--existing_path" d="M46.35,31.12c0.47,0.51,0.92,1.89,0.72,3.01c-1.7,9.36-6.7,24.99-16.2,35.11" id="Ske2a0l153e" kvg:type="㇒" transform="matrix(1,0,0,1,1096,-4)" xmlns:kvg="http://kanjivg.tagaini.net"></path><path class="stroke_order_diagram--existing_path" d="M71.28,11.39c0.35,0.73,0.4,1.66,0.2,2.41c-1.6,5.95-4.48,13.32-10.17,20.66" id="Ske2a0l153f" kvg:type="㇒" transform="matrix(1,0,0,1,1096,-4)" xmlns:kvg="http://kanjivg.tagaini.net"></path><path class="stroke_order_diagram--existing_path" d="M71.25,23.66c0.75,0.09,2.15,0.32,2.89,0.19c5.34-0.92,10.36-2.09,14.58-2.7C89.83,20.99,90.75,21,92,21" id="Ske2a0l153g" kvg:type="㇐" transform="matrix(1,0,0,1,1096,-4)" xmlns:kvg="http://kanjivg.tagaini.net"></path><path class="stroke_order_diagram--existing_path" d="M68.21,37.29c1.17,0.21,2.84,0.28,3.81,0.11c4.48-0.78,10.36-2.15,14.86-3.58c1.72-0.54,2.33,0.88,1.21,2.16C86.12,38.25,82.25,42.5,77.74,47" id="Ske2a0l153h" kvg:type="㇖" transform="matrix(1,0,0,1,1096,-4)" xmlns:kvg="http://kanjivg.tagaini.net"></path><path class="stroke_order_diagram--existing_path" d="M76.74,47.45c6.63,8.05,8.13,19.3,3.34,30.16c-2.11,4.77-5.46-0.34-6.18-0.89" id="Ske2a0l153i" kvg:type="㇕v" transform="matrix(1,0,0,1,1096,-4)" xmlns:kvg="http://kanjivg.tagaini.net"></path><path class="stroke_order_diagram--existing_path" d="M62.21,56.54c2.1,0.83,4.87,0.38,7.05,0.14c5.9-0.65,16.43-2.37,22.99-2.62c1.89-0.07,4.09-0.19,5.93,0.41" id="Ske2a0l153j" kvg:type="㇐" transform="matrix(1,0,0,1,1096,-4)" xmlns:kvg="http://kanjivg.tagaini.net"></path><path class="stroke_order_diagram--existing_path" d="M15.38,18.62c3.4,1.72,8.78,7.08,9.62,9.76" id="Ske2a0l153k" kvg:type="㇔" transform="matrix(1,0,0,1,1096,-4)" xmlns:kvg="http://kanjivg.tagaini.net"></path><path class="stroke_order_diagram--existing_path" d="M11,47c2.25,1,3.75,0.5,4.75,0.25S25,44,26.5,43.5s3.41,1.62,2.25,3c-11.88,14.12-11.5,11.38-3.75,18c1.82,1.56,1.5,3.5-0.5,5.25c-2.39,2.1-5.5,4.88-8.5,7.75" id="Ske2a0l153l" kvg:type="㇋" transform="matrix(1,0,0,1,1096,-4)" xmlns:kvg="http://kanjivg.tagaini.net"></path><path class="stroke_order_diagram--current_path" d="M11.5,79c3-0.5,8.5-1.75,13-0.75s30.07,7.71,34.5,9c12,3.5,19.88,5.5,31.25,7" id="kvg:0904a-s12" kvg:type="㇏a" transform="matrix(1,0,0,1,1096,-4)" xmlns:kvg="http://kanjivg.tagaini.net"></path><path class="stroke_order_diagram--current_path" d="M11.5,79c3-0.5,8.5-1.75,13-0.75s30.07,7.71,34.5,9c12,3.5,19.88,5.5,31.25,7" id="Ske2a0l153n" kvg:type="㇏a" transform="matrix(1,0,0,1,1096,-4)" xmlns:kvg="http://kanjivg.tagaini.net"></path><circle class="stroke_order_diagram--path_start" cx="11.5" cy="79" r="4" transform="matrix(1,0,0,1,1096,-4)"></circle></svg>