<svg class="stroke_order_diagram--svg_container_for_5186628fd5dda796580007c2" style="height: 100px; width: 1400px;" viewbox="0 0 1400 100"><desc>Created with Snap</desc><defs></defs><line class="stroke_order_diagram--bounding_box" x1="1" x2="1399" y1="1" y2="1"></line><line class="stroke_order_diagram--bounding_box" x1="1" x2="1" y1="1" y2="99"></line><line class="stroke_order_diagram--bounding_box" x1="1" x2="1399" y1="99" y2="99"></line><line class="stroke_order_diagram--guide_line" x1="0" x2="1400" y1="50" y2="50"></line><line class="stroke_order_diagram--guide_line" x1="50" x2="50" y1="1" y2="99"></line><line class="stroke_order_diagram--bounding_box" x1="99" x2="99" y1="1" y2="99"></line><path class="stroke_order_diagram--current_path" d="M63.66,10.25c1.11,1.11,1.65,2.5,1.65,4.25c0,1.12,0,4,0,6.25" id="kvg:09069-s1" kvg:type="㇑a" transform="matrix(1,0,0,1,-4,-4)" xmlns:kvg="http://kanjivg.tagaini.net"></path><path class="stroke_order_diagram--current_path" d="M63.66,10.25c1.11,1.11,1.65,2.5,1.65,4.25c0,1.12,0,4,0,6.25" id="Ske23sjq9n" kvg:type="㇑a" transform="matrix(1,0,0,1,-4,-4)" xmlns:kvg="http://kanjivg.tagaini.net"></path><circle class="stroke_order_diagram--path_start" cx="63.66" cy="10.25" r="4" transform="matrix(1,0,0,1,-4,-4)"></circle><line class="stroke_order_diagram--guide_line" x1="150" x2="150" y1="1" y2="99"></line><line class="stroke_order_diagram--bounding_box" x1="199" x2="199" y1="1" y2="99"></line><path class="stroke_order_diagram--existing_path" d="M63.66,10.25c1.11,1.11,1.65,2.5,1.65,4.25c0,1.12,0,4,0,6.25" id="Ske23sjq9q" kvg:type="㇑a" transform="matrix(1,0,0,1,96,-4)" xmlns:kvg="http://kanjivg.tagaini.net"></path><path class="stroke_order_diagram--current_path" d="M43.5,23.95c2.31,0.59,4.8,0.16,7.14-0.15c9.99-1.31,22.19-2.85,32-3.94c2.3-0.26,4.58-0.13,6.87,0.22" id="kvg:09069-s2" kvg:type="㇐" transform="matrix(1,0,0,1,96,-4)" xmlns:kvg="http://kanjivg.tagaini.net"></path><path class="stroke_order_diagram--current_path" d="M43.5,23.95c2.31,0.59,4.8,0.16,7.14-0.15c9.99-1.31,22.19-2.85,32-3.94c2.3-0.26,4.58-0.13,6.87,0.22" id="Ske23sjq9s" kvg:type="㇐" transform="matrix(1,0,0,1,96,-4)" xmlns:kvg="http://kanjivg.tagaini.net"></path><circle class="stroke_order_diagram--path_start" cx="43.5" cy="23.95" r="4" transform="matrix(1,0,0,1,96,-4)"></circle><line class="stroke_order_diagram--guide_line" x1="250" x2="250" y1="1" y2="99"></line><line class="stroke_order_diagram--bounding_box" x1="299" x2="299" y1="1" y2="99"></line><path class="stroke_order_diagram--existing_path" d="M63.66,10.25c1.11,1.11,1.65,2.5,1.65,4.25c0,1.12,0,4,0,6.25" id="Ske23sjq9v" kvg:type="㇑a" transform="matrix(1,0,0,1,196,-4)" xmlns:kvg="http://kanjivg.tagaini.net"></path><path class="stroke_order_diagram--existing_path" d="M43.5,23.95c2.31,0.59,4.8,0.16,7.14-0.15c9.99-1.31,22.19-2.85,32-3.94c2.3-0.26,4.58-0.13,6.87,0.22" id="Ske23sjq9w" kvg:type="㇐" transform="matrix(1,0,0,1,196,-4)" xmlns:kvg="http://kanjivg.tagaini.net"></path><path class="stroke_order_diagram--current_path" d="M53.17,26.75c2.85,3.92,4.15,7.92,4.41,10.5" id="kvg:09069-s3" kvg:type="㇔" transform="matrix(1,0,0,1,196,-4)" xmlns:kvg="http://kanjivg.tagaini.net"></path><path class="stroke_order_diagram--current_path" d="M53.17,26.75c2.85,3.92,4.15,7.92,4.41,10.5" id="Ske23sjq9y" kvg:type="㇔" transform="matrix(1,0,0,1,196,-4)" xmlns:kvg="http://kanjivg.tagaini.net"></path><circle class="stroke_order_diagram--path_start" cx="53.17" cy="26.75" r="4" transform="matrix(1,0,0,1,196,-4)"></circle><line class="stroke_order_diagram--guide_line" x1="350" x2="350" y1="1" y2="99"></line><line class="stroke_order_diagram--bounding_box" x1="399" x2="399" y1="1" y2="99"></line><path class="stroke_order_diagram--existing_path" d="M63.66,10.25c1.11,1.11,1.65,2.5,1.65,4.25c0,1.12,0,4,0,6.25" id="Ske23sjq911" kvg:type="㇑a" transform="matrix(1,0,0,1,296,-4)" xmlns:kvg="http://kanjivg.tagaini.net"></path><path class="stroke_order_diagram--existing_path" d="M43.5,23.95c2.31,0.59,4.8,0.16,7.14-0.15c9.99-1.31,22.19-2.85,32-3.94c2.3-0.26,4.58-0.13,6.87,0.22" id="Ske23sjq912" kvg:type="㇐" transform="matrix(1,0,0,1,296,-4)" xmlns:kvg="http://kanjivg.tagaini.net"></path><path class="stroke_order_diagram--existing_path" d="M53.17,26.75c2.85,3.92,4.15,7.92,4.41,10.5" id="Ske23sjq913" kvg:type="㇔" transform="matrix(1,0,0,1,296,-4)" xmlns:kvg="http://kanjivg.tagaini.net"></path><path class="stroke_order_diagram--current_path" d="M76.56,23.5c0.31,1,0.19,1.88-0.15,2.69c-0.9,2.16-3.66,7.56-5.09,10.06" id="kvg:09069-s4" kvg:type="㇒" transform="matrix(1,0,0,1,296,-4)" xmlns:kvg="http://kanjivg.tagaini.net"></path><path class="stroke_order_diagram--current_path" d="M76.56,23.5c0.31,1,0.19,1.88-0.15,2.69c-0.9,2.16-3.66,7.56-5.09,10.06" id="Ske23sjq915" kvg:type="㇒" transform="matrix(1,0,0,1,296,-4)" xmlns:kvg="http://kanjivg.tagaini.net"></path><circle class="stroke_order_diagram--path_start" cx="76.56" cy="23.5" r="4" transform="matrix(1,0,0,1,296,-4)"></circle><line class="stroke_order_diagram--guide_line" x1="450" x2="450" y1="1" y2="99"></line><line class="stroke_order_diagram--bounding_box" x1="499" x2="499" y1="1" y2="99"></line><path class="stroke_order_diagram--existing_path" d="M63.66,10.25c1.11,1.11,1.65,2.5,1.65,4.25c0,1.12,0,4,0,6.25" id="Ske23sjq918" kvg:type="㇑a" transform="matrix(1,0,0,1,396,-4)" xmlns:kvg="http://kanjivg.tagaini.net"></path><path class="stroke_order_diagram--existing_path" d="M43.5,23.95c2.31,0.59,4.8,0.16,7.14-0.15c9.99-1.31,22.19-2.85,32-3.94c2.3-0.26,4.58-0.13,6.87,0.22" id="Ske23sjq919" kvg:type="㇐" transform="matrix(1,0,0,1,396,-4)" xmlns:kvg="http://kanjivg.tagaini.net"></path><path class="stroke_order_diagram--existing_path" d="M53.17,26.75c2.85,3.92,4.15,7.92,4.41,10.5" id="Ske23sjq91a" kvg:type="㇔" transform="matrix(1,0,0,1,396,-4)" xmlns:kvg="http://kanjivg.tagaini.net"></path><path class="stroke_order_diagram--existing_path" d="M76.56,23.5c0.31,1,0.19,1.88-0.15,2.69c-0.9,2.16-3.66,7.56-5.09,10.06" id="Ske23sjq91b" kvg:type="㇒" transform="matrix(1,0,0,1,396,-4)" xmlns:kvg="http://kanjivg.tagaini.net"></path><path class="stroke_order_diagram--current_path" d="M44.68,40.73c0.79,0.79,1.34,1.99,1.34,3.38c0,2.67-0.07,20.11-0.09,30.76c-0.01,2.38-0.01,4.42-0.01,5.88" id="kvg:09069-s5" kvg:type="㇑" transform="matrix(1,0,0,1,396,-4)" xmlns:kvg="http://kanjivg.tagaini.net"></path><path class="stroke_order_diagram--current_path" d="M44.68,40.73c0.79,0.79,1.34,1.99,1.34,3.38c0,2.67-0.07,20.11-0.09,30.76c-0.01,2.38-0.01,4.42-0.01,5.88" id="Ske23sjq91d" kvg:type="㇑" transform="matrix(1,0,0,1,396,-4)" xmlns:kvg="http://kanjivg.tagaini.net"></path><circle class="stroke_order_diagram--path_start" cx="44.68" cy="40.73" r="4" transform="matrix(1,0,0,1,396,-4)"></circle><line class="stroke_order_diagram--guide_line" x1="550" x2="550" y1="1" y2="99"></line><line class="stroke_order_diagram--bounding_box" x1="599" x2="599" y1="1" y2="99"></line><path class="stroke_order_diagram--existing_path" d="M63.66,10.25c1.11,1.11,1.65,2.5,1.65,4.25c0,1.12,0,4,0,6.25" id="Ske23sjq91g" kvg:type="㇑a" transform="matrix(1,0,0,1,496,-4)" xmlns:kvg="http://kanjivg.tagaini.net"></path><path class="stroke_order_diagram--existing_path" d="M43.5,23.95c2.31,0.59,4.8,0.16,7.14-0.15c9.99-1.31,22.19-2.85,32-3.94c2.3-0.26,4.58-0.13,6.87,0.22" id="Ske23sjq91h" kvg:type="㇐" transform="matrix(1,0,0,1,496,-4)" xmlns:kvg="http://kanjivg.tagaini.net"></path><path class="stroke_order_diagram--existing_path" d="M53.17,26.75c2.85,3.92,4.15,7.92,4.41,10.5" id="Ske23sjq91i" kvg:type="㇔" transform="matrix(1,0,0,1,496,-4)" xmlns:kvg="http://kanjivg.tagaini.net"></path><path class="stroke_order_diagram--existing_path" d="M76.56,23.5c0.31,1,0.19,1.88-0.15,2.69c-0.9,2.16-3.66,7.56-5.09,10.06" id="Ske23sjq91j" kvg:type="㇒" transform="matrix(1,0,0,1,496,-4)" xmlns:kvg="http://kanjivg.tagaini.net"></path><path class="stroke_order_diagram--existing_path" d="M44.68,40.73c0.79,0.79,1.34,1.99,1.34,3.38c0,2.67-0.07,20.11-0.09,30.76c-0.01,2.38-0.01,4.42-0.01,5.88" id="Ske23sjq91k" kvg:type="㇑" transform="matrix(1,0,0,1,496,-4)" xmlns:kvg="http://kanjivg.tagaini.net"></path><path class="stroke_order_diagram--current_path" d="M46.77,42.02c7.86-1.4,36.61-5.11,37.72-5.32c2.36-0.46,3.83,0.43,3.83,2.84c0,2.96-0.19,38.09-0.19,41.62c0,7.59-4.76,0.92-6.53-1.08" id="kvg:09069-s6" kvg:type="㇆a" transform="matrix(1,0,0,1,496,-4)" xmlns:kvg="http://kanjivg.tagaini.net"></path><path class="stroke_order_diagram--current_path" d="M46.77,42.02c7.86-1.4,36.61-5.11,37.72-5.32c2.36-0.46,3.83,0.43,3.83,2.84c0,2.96-0.19,38.09-0.19,41.62c0,7.59-4.76,0.92-6.53-1.08" id="Ske23sjq91m" kvg:type="㇆a" transform="matrix(1,0,0,1,496,-4)" xmlns:kvg="http://kanjivg.tagaini.net"></path><circle class="stroke_order_diagram--path_start" cx="46.77" cy="42.02" r="4" transform="matrix(1,0,0,1,496,-4)"></circle><line class="stroke_order_diagram--guide_line" x1="650" x2="650" y1="1" y2="99"></line><line class="stroke_order_diagram--bounding_box" x1="699" x2="699" y1="1" y2="99"></line><path class="stroke_order_diagram--existing_path" d="M63.66,10.25c1.11,1.11,1.65,2.5,1.65,4.25c0,1.12,0,4,0,6.25" id="Ske23sjq91p" kvg:type="㇑a" transform="matrix(1,0,0,1,596,-4)" xmlns:kvg="http://kanjivg.tagaini.net"></path><path class="stroke_order_diagram--existing_path" d="M43.5,23.95c2.31,0.59,4.8,0.16,7.14-0.15c9.99-1.31,22.19-2.85,32-3.94c2.3-0.26,4.58-0.13,6.87,0.22" id="Ske23sjq91q" kvg:type="㇐" transform="matrix(1,0,0,1,596,-4)" xmlns:kvg="http://kanjivg.tagaini.net"></path><path class="stroke_order_diagram--existing_path" d="M53.17,26.75c2.85,3.92,4.15,7.92,4.41,10.5" id="Ske23sjq91r" kvg:type="㇔" transform="matrix(1,0,0,1,596,-4)" xmlns:kvg="http://kanjivg.tagaini.net"></path><path class="stroke_order_diagram--existing_path" d="M76.56,23.5c0.31,1,0.19,1.88-0.15,2.69c-0.9,2.16-3.66,7.56-5.09,10.06" id="Ske23sjq91s" kvg:type="㇒" transform="matrix(1,0,0,1,596,-4)" xmlns:kvg="http://kanjivg.tagaini.net"></path><path class="stroke_order_diagram--existing_path" d="M44.68,40.73c0.79,0.79,1.34,1.99,1.34,3.38c0,2.67-0.07,20.11-0.09,30.76c-0.01,2.38-0.01,4.42-0.01,5.88" id="Ske23sjq91t" kvg:type="㇑" transform="matrix(1,0,0,1,596,-4)" xmlns:kvg="http://kanjivg.tagaini.net"></path><path class="stroke_order_diagram--existing_path" d="M46.77,42.02c7.86-1.4,36.61-5.11,37.72-5.32c2.36-0.46,3.83,0.43,3.83,2.84c0,2.96-0.19,38.09-0.19,41.62c0,7.59-4.76,0.92-6.53-1.08" id="Ske23sjq91u" kvg:type="㇆a" transform="matrix(1,0,0,1,596,-4)" xmlns:kvg="http://kanjivg.tagaini.net"></path><path class="stroke_order_diagram--current_path" d="M52.81,52.06c1.1,0.34,3.06,0.23,4.21,0.07c4.68-0.66,13.84-2.48,19.23-2.95c1.21-0.11,2.69-0.34,3.89-0.11" id="kvg:09069-s7" kvg:type="㇐" transform="matrix(1,0,0,1,596,-4)" xmlns:kvg="http://kanjivg.tagaini.net"></path><path class="stroke_order_diagram--current_path" d="M52.81,52.06c1.1,0.34,3.06,0.23,4.21,0.07c4.68-0.66,13.84-2.48,19.23-2.95c1.21-0.11,2.69-0.34,3.89-0.11" id="Ske23sjq91w" kvg:type="㇐" transform="matrix(1,0,0,1,596,-4)" xmlns:kvg="http://kanjivg.tagaini.net"></path><circle class="stroke_order_diagram--path_start" cx="52.81" cy="52.06" r="4" transform="matrix(1,0,0,1,596,-4)"></circle><line class="stroke_order_diagram--guide_line" x1="750" x2="750" y1="1" y2="99"></line><line class="stroke_order_diagram--bounding_box" x1="799" x2="799" y1="1" y2="99"></line><path class="stroke_order_diagram--existing_path" d="M63.66,10.25c1.11,1.11,1.65,2.5,1.65,4.25c0,1.12,0,4,0,6.25" id="Ske23sjq91z" kvg:type="㇑a" transform="matrix(1,0,0,1,696,-4)" xmlns:kvg="http://kanjivg.tagaini.net"></path><path class="stroke_order_diagram--existing_path" d="M43.5,23.95c2.31,0.59,4.8,0.16,7.14-0.15c9.99-1.31,22.19-2.85,32-3.94c2.3-0.26,4.58-0.13,6.87,0.22" id="Ske23sjq920" kvg:type="㇐" transform="matrix(1,0,0,1,696,-4)" xmlns:kvg="http://kanjivg.tagaini.net"></path><path class="stroke_order_diagram--existing_path" d="M53.17,26.75c2.85,3.92,4.15,7.92,4.41,10.5" id="Ske23sjq921" kvg:type="㇔" transform="matrix(1,0,0,1,696,-4)" xmlns:kvg="http://kanjivg.tagaini.net"></path><path class="stroke_order_diagram--existing_path" d="M76.56,23.5c0.31,1,0.19,1.88-0.15,2.69c-0.9,2.16-3.66,7.56-5.09,10.06" id="Ske23sjq922" kvg:type="㇒" transform="matrix(1,0,0,1,696,-4)" xmlns:kvg="http://kanjivg.tagaini.net"></path><path class="stroke_order_diagram--existing_path" d="M44.68,40.73c0.79,0.79,1.34,1.99,1.34,3.38c0,2.67-0.07,20.11-0.09,30.76c-0.01,2.38-0.01,4.42-0.01,5.88" id="Ske23sjq923" kvg:type="㇑" transform="matrix(1,0,0,1,696,-4)" xmlns:kvg="http://kanjivg.tagaini.net"></path><path class="stroke_order_diagram--existing_path" d="M46.77,42.02c7.86-1.4,36.61-5.11,37.72-5.32c2.36-0.46,3.83,0.43,3.83,2.84c0,2.96-0.19,38.09-0.19,41.62c0,7.59-4.76,0.92-6.53-1.08" id="Ske23sjq924" kvg:type="㇆a" transform="matrix(1,0,0,1,696,-4)" xmlns:kvg="http://kanjivg.tagaini.net"></path><path class="stroke_order_diagram--existing_path" d="M52.81,52.06c1.1,0.34,3.06,0.23,4.21,0.07c4.68-0.66,13.84-2.48,19.23-2.95c1.21-0.11,2.69-0.34,3.89-0.11" id="Ske23sjq925" kvg:type="㇐" transform="matrix(1,0,0,1,696,-4)" xmlns:kvg="http://kanjivg.tagaini.net"></path><path class="stroke_order_diagram--current_path" d="M64.41,42c0.67,0.67,1.18,1.88,1.18,3.38c0,6.62,0.04,8.93,0.04,14.74" id="kvg:09069-s8" kvg:type="㇑a" transform="matrix(1,0,0,1,696,-4)" xmlns:kvg="http://kanjivg.tagaini.net"></path><path class="stroke_order_diagram--current_path" d="M64.41,42c0.67,0.67,1.18,1.88,1.18,3.38c0,6.62,0.04,8.93,0.04,14.74" id="Ske23sjq927" kvg:type="㇑a" transform="matrix(1,0,0,1,696,-4)" xmlns:kvg="http://kanjivg.tagaini.net"></path><circle class="stroke_order_diagram--path_start" cx="64.41" cy="42" r="4" transform="matrix(1,0,0,1,696,-4)"></circle><line class="stroke_order_diagram--guide_line" x1="850" x2="850" y1="1" y2="99"></line><line class="stroke_order_diagram--bounding_box" x1="899" x2="899" y1="1" y2="99"></line><path class="stroke_order_diagram--existing_path" d="M63.66,10.25c1.11,1.11,1.65,2.5,1.65,4.25c0,1.12,0,4,0,6.25" id="Ske23sjq92a" kvg:type="㇑a" transform="matrix(1,0,0,1,796,-4)" xmlns:kvg="http://kanjivg.tagaini.net"></path><path class="stroke_order_diagram--existing_path" d="M43.5,23.95c2.31,0.59,4.8,0.16,7.14-0.15c9.99-1.31,22.19-2.85,32-3.94c2.3-0.26,4.58-0.13,6.87,0.22" id="Ske23sjq92b" kvg:type="㇐" transform="matrix(1,0,0,1,796,-4)" xmlns:kvg="http://kanjivg.tagaini.net"></path><path class="stroke_order_diagram--existing_path" d="M53.17,26.75c2.85,3.92,4.15,7.92,4.41,10.5" id="Ske23sjq92c" kvg:type="㇔" transform="matrix(1,0,0,1,796,-4)" xmlns:kvg="http://kanjivg.tagaini.net"></path><path class="stroke_order_diagram--existing_path" d="M76.56,23.5c0.31,1,0.19,1.88-0.15,2.69c-0.9,2.16-3.66,7.56-5.09,10.06" id="Ske23sjq92d" kvg:type="㇒" transform="matrix(1,0,0,1,796,-4)" xmlns:kvg="http://kanjivg.tagaini.net"></path><path class="stroke_order_diagram--existing_path" d="M44.68,40.73c0.79,0.79,1.34,1.99,1.34,3.38c0,2.67-0.07,20.11-0.09,30.76c-0.01,2.38-0.01,4.42-0.01,5.88" id="Ske23sjq92e" kvg:type="㇑" transform="matrix(1,0,0,1,796,-4)" xmlns:kvg="http://kanjivg.tagaini.net"></path><path class="stroke_order_diagram--existing_path" d="M46.77,42.02c7.86-1.4,36.61-5.11,37.72-5.32c2.36-0.46,3.83,0.43,3.83,2.84c0,2.96-0.19,38.09-0.19,41.62c0,7.59-4.76,0.92-6.53-1.08" id="Ske23sjq92f" kvg:type="㇆a" transform="matrix(1,0,0,1,796,-4)" xmlns:kvg="http://kanjivg.tagaini.net"></path><path class="stroke_order_diagram--existing_path" d="M52.81,52.06c1.1,0.34,3.06,0.23,4.21,0.07c4.68-0.66,13.84-2.48,19.23-2.95c1.21-0.11,2.69-0.34,3.89-0.11" id="Ske23sjq92g" kvg:type="㇐" transform="matrix(1,0,0,1,796,-4)" xmlns:kvg="http://kanjivg.tagaini.net"></path><path class="stroke_order_diagram--existing_path" d="M64.41,42c0.67,0.67,1.18,1.88,1.18,3.38c0,6.62,0.04,8.93,0.04,14.74" id="Ske23sjq92h" kvg:type="㇑a" transform="matrix(1,0,0,1,796,-4)" xmlns:kvg="http://kanjivg.tagaini.net"></path><path class="stroke_order_diagram--current_path" d="M55.13,61.04c0.54,0.54,0.87,1.21,1.17,2.2c0.5,1.64,1.31,5.62,2,9.2c0.19,0.98,0.35,1.93,0.48,2.81" id="kvg:09069-s9" kvg:type="㇑" transform="matrix(1,0,0,1,796,-4)" xmlns:kvg="http://kanjivg.tagaini.net"></path><path class="stroke_order_diagram--current_path" d="M55.13,61.04c0.54,0.54,0.87,1.21,1.17,2.2c0.5,1.64,1.31,5.62,2,9.2c0.19,0.98,0.35,1.93,0.48,2.81" id="Ske23sjq92j" kvg:type="㇑" transform="matrix(1,0,0,1,796,-4)" xmlns:kvg="http://kanjivg.tagaini.net"></path><circle class="stroke_order_diagram--path_start" cx="55.13" cy="61.04" r="4" transform="matrix(1,0,0,1,796,-4)"></circle><line class="stroke_order_diagram--guide_line" x1="950" x2="950" y1="1" y2="99"></line><line class="stroke_order_diagram--bounding_box" x1="999" x2="999" y1="1" y2="99"></line><path class="stroke_order_diagram--existing_path" d="M63.66,10.25c1.11,1.11,1.65,2.5,1.65,4.25c0,1.12,0,4,0,6.25" id="Ske23sjq92m" kvg:type="㇑a" transform="matrix(1,0,0,1,896,-4)" xmlns:kvg="http://kanjivg.tagaini.net"></path><path class="stroke_order_diagram--existing_path" d="M43.5,23.95c2.31,0.59,4.8,0.16,7.14-0.15c9.99-1.31,22.19-2.85,32-3.94c2.3-0.26,4.58-0.13,6.87,0.22" id="Ske23sjq92n" kvg:type="㇐" transform="matrix(1,0,0,1,896,-4)" xmlns:kvg="http://kanjivg.tagaini.net"></path><path class="stroke_order_diagram--existing_path" d="M53.17,26.75c2.85,3.92,4.15,7.92,4.41,10.5" id="Ske23sjq92o" kvg:type="㇔" transform="matrix(1,0,0,1,896,-4)" xmlns:kvg="http://kanjivg.tagaini.net"></path><path class="stroke_order_diagram--existing_path" d="M76.56,23.5c0.31,1,0.19,1.88-0.15,2.69c-0.9,2.16-3.66,7.56-5.09,10.06" id="Ske23sjq92p" kvg:type="㇒" transform="matrix(1,0,0,1,896,-4)" xmlns:kvg="http://kanjivg.tagaini.net"></path><path class="stroke_order_diagram--existing_path" d="M44.68,40.73c0.79,0.79,1.34,1.99,1.34,3.38c0,2.67-0.07,20.11-0.09,30.76c-0.01,2.38-0.01,4.42-0.01,5.88" id="Ske23sjq92q" kvg:type="㇑" transform="matrix(1,0,0,1,896,-4)" xmlns:kvg="http://kanjivg.tagaini.net"></path><path class="stroke_order_diagram--existing_path" d="M46.77,42.02c7.86-1.4,36.61-5.11,37.72-5.32c2.36-0.46,3.83,0.43,3.83,2.84c0,2.96-0.19,38.09-0.19,41.62c0,7.59-4.76,0.92-6.53-1.08" id="Ske23sjq92r" kvg:type="㇆a" transform="matrix(1,0,0,1,896,-4)" xmlns:kvg="http://kanjivg.tagaini.net"></path><path class="stroke_order_diagram--existing_path" d="M52.81,52.06c1.1,0.34,3.06,0.23,4.21,0.07c4.68-0.66,13.84-2.48,19.23-2.95c1.21-0.11,2.69-0.34,3.89-0.11" id="Ske23sjq92s" kvg:type="㇐" transform="matrix(1,0,0,1,896,-4)" xmlns:kvg="http://kanjivg.tagaini.net"></path><path class="stroke_order_diagram--existing_path" d="M64.41,42c0.67,0.67,1.18,1.88,1.18,3.38c0,6.62,0.04,8.93,0.04,14.74" id="Ske23sjq92t" kvg:type="㇑a" transform="matrix(1,0,0,1,896,-4)" xmlns:kvg="http://kanjivg.tagaini.net"></path><path class="stroke_order_diagram--existing_path" d="M55.13,61.04c0.54,0.54,0.87,1.21,1.17,2.2c0.5,1.64,1.31,5.62,2,9.2c0.19,0.98,0.35,1.93,0.48,2.81" id="Ske23sjq92u" kvg:type="㇑" transform="matrix(1,0,0,1,896,-4)" xmlns:kvg="http://kanjivg.tagaini.net"></path><path class="stroke_order_diagram--current_path" d="M57.23,62.17c5.34-0.85,11.42-1.77,16.16-2.44c2.15-0.3,3.33,0.43,2.78,2.68c-0.61,2.51-1.89,6.06-2.51,8.9" id="kvg:09069-s10" kvg:type="㇕b" transform="matrix(1,0,0,1,896,-4)" xmlns:kvg="http://kanjivg.tagaini.net"></path><path class="stroke_order_diagram--current_path" d="M57.23,62.17c5.34-0.85,11.42-1.77,16.16-2.44c2.15-0.3,3.33,0.43,2.78,2.68c-0.61,2.51-1.89,6.06-2.51,8.9" id="Ske23sjq92w" kvg:type="㇕b" transform="matrix(1,0,0,1,896,-4)" xmlns:kvg="http://kanjivg.tagaini.net"></path><circle class="stroke_order_diagram--path_start" cx="57.23" cy="62.17" r="4" transform="matrix(1,0,0,1,896,-4)"></circle><line class="stroke_order_diagram--guide_line" x1="1050" x2="1050" y1="1" y2="99"></line><line class="stroke_order_diagram--bounding_box" x1="1099" x2="1099" y1="1" y2="99"></line><path class="stroke_order_diagram--existing_path" d="M63.66,10.25c1.11,1.11,1.65,2.5,1.65,4.25c0,1.12,0,4,0,6.25" id="Ske23sjq92z" kvg:type="㇑a" transform="matrix(1,0,0,1,996,-4)" xmlns:kvg="http://kanjivg.tagaini.net"></path><path class="stroke_order_diagram--existing_path" d="M43.5,23.95c2.31,0.59,4.8,0.16,7.14-0.15c9.99-1.31,22.19-2.85,32-3.94c2.3-0.26,4.58-0.13,6.87,0.22" id="Ske23sjq930" kvg:type="㇐" transform="matrix(1,0,0,1,996,-4)" xmlns:kvg="http://kanjivg.tagaini.net"></path><path class="stroke_order_diagram--existing_path" d="M53.17,26.75c2.85,3.92,4.15,7.92,4.41,10.5" id="Ske23sjq931" kvg:type="㇔" transform="matrix(1,0,0,1,996,-4)" xmlns:kvg="http://kanjivg.tagaini.net"></path><path class="stroke_order_diagram--existing_path" d="M76.56,23.5c0.31,1,0.19,1.88-0.15,2.69c-0.9,2.16-3.66,7.56-5.09,10.06" id="Ske23sjq932" kvg:type="㇒" transform="matrix(1,0,0,1,996,-4)" xmlns:kvg="http://kanjivg.tagaini.net"></path><path class="stroke_order_diagram--existing_path" d="M44.68,40.73c0.79,0.79,1.34,1.99,1.34,3.38c0,2.67-0.07,20.11-0.09,30.76c-0.01,2.38-0.01,4.42-0.01,5.88" id="Ske23sjq933" kvg:type="㇑" transform="matrix(1,0,0,1,996,-4)" xmlns:kvg="http://kanjivg.tagaini.net"></path><path class="stroke_order_diagram--existing_path" d="M46.77,42.02c7.86-1.4,36.61-5.11,37.72-5.32c2.36-0.46,3.83,0.43,3.83,2.84c0,2.96-0.19,38.09-0.19,41.62c0,7.59-4.76,0.92-6.53-1.08" id="Ske23sjq934" kvg:type="㇆a" transform="matrix(1,0,0,1,996,-4)" xmlns:kvg="http://kanjivg.tagaini.net"></path><path class="stroke_order_diagram--existing_path" d="M52.81,52.06c1.1,0.34,3.06,0.23,4.21,0.07c4.68-0.66,13.84-2.48,19.23-2.95c1.21-0.11,2.69-0.34,3.89-0.11" id="Ske23sjq935" kvg:type="㇐" transform="matrix(1,0,0,1,996,-4)" xmlns:kvg="http://kanjivg.tagaini.net"></path><path class="stroke_order_diagram--existing_path" d="M64.41,42c0.67,0.67,1.18,1.88,1.18,3.38c0,6.62,0.04,8.93,0.04,14.74" id="Ske23sjq936" kvg:type="㇑a" transform="matrix(1,0,0,1,996,-4)" xmlns:kvg="http://kanjivg.tagaini.net"></path><path class="stroke_order_diagram--existing_path" d="M55.13,61.04c0.54,0.54,0.87,1.21,1.17,2.2c0.5,1.64,1.31,5.62,2,9.2c0.19,0.98,0.35,1.93,0.48,2.81" id="Ske23sjq937" kvg:type="㇑" transform="matrix(1,0,0,1,996,-4)" xmlns:kvg="http://kanjivg.tagaini.net"></path><path class="stroke_order_diagram--existing_path" d="M57.23,62.17c5.34-0.85,11.42-1.77,16.16-2.44c2.15-0.3,3.33,0.43,2.78,2.68c-0.61,2.51-1.89,6.06-2.51,8.9" id="Ske23sjq938" kvg:type="㇕b" transform="matrix(1,0,0,1,996,-4)" xmlns:kvg="http://kanjivg.tagaini.net"></path><path class="stroke_order_diagram--current_path" d="M59.72,73.4c4.15-0.53,7.68-0.78,12.03-1.4c1.26-0.18,2.45-0.31,3.49-0.37" id="kvg:09069-s11" kvg:type="㇐b" transform="matrix(1,0,0,1,996,-4)" xmlns:kvg="http://kanjivg.tagaini.net"></path><path class="stroke_order_diagram--current_path" d="M59.72,73.4c4.15-0.53,7.68-0.78,12.03-1.4c1.26-0.18,2.45-0.31,3.49-0.37" id="Ske23sjq93a" kvg:type="㇐b" transform="matrix(1,0,0,1,996,-4)" xmlns:kvg="http://kanjivg.tagaini.net"></path><circle class="stroke_order_diagram--path_start" cx="59.72" cy="73.4" r="4" transform="matrix(1,0,0,1,996,-4)"></circle><line class="stroke_order_diagram--guide_line" x1="1150" x2="1150" y1="1" y2="99"></line><line class="stroke_order_diagram--bounding_box" x1="1199" x2="1199" y1="1" y2="99"></line><path class="stroke_order_diagram--existing_path" d="M63.66,10.25c1.11,1.11,1.65,2.5,1.65,4.25c0,1.12,0,4,0,6.25" id="Ske23sjq93d" kvg:type="㇑a" transform="matrix(1,0,0,1,1096,-4)" xmlns:kvg="http://kanjivg.tagaini.net"></path><path class="stroke_order_diagram--existing_path" d="M43.5,23.95c2.31,0.59,4.8,0.16,7.14-0.15c9.99-1.31,22.19-2.85,32-3.94c2.3-0.26,4.58-0.13,6.87,0.22" id="Ske23sjq93e" kvg:type="㇐" transform="matrix(1,0,0,1,1096,-4)" xmlns:kvg="http://kanjivg.tagaini.net"></path><path class="stroke_order_diagram--existing_path" d="M53.17,26.75c2.85,3.92,4.15,7.92,4.41,10.5" id="Ske23sjq93f" kvg:type="㇔" transform="matrix(1,0,0,1,1096,-4)" xmlns:kvg="http://kanjivg.tagaini.net"></path><path class="stroke_order_diagram--existing_path" d="M76.56,23.5c0.31,1,0.19,1.88-0.15,2.69c-0.9,2.16-3.66,7.56-5.09,10.06" id="Ske23sjq93g" kvg:type="㇒" transform="matrix(1,0,0,1,1096,-4)" xmlns:kvg="http://kanjivg.tagaini.net"></path><path class="stroke_order_diagram--existing_path" d="M44.68,40.73c0.79,0.79,1.34,1.99,1.34,3.38c0,2.67-0.07,20.11-0.09,30.76c-0.01,2.38-0.01,4.42-0.01,5.88" id="Ske23sjq93h" kvg:type="㇑" transform="matrix(1,0,0,1,1096,-4)" xmlns:kvg="http://kanjivg.tagaini.net"></path><path class="stroke_order_diagram--existing_path" d="M46.77,42.02c7.86-1.4,36.61-5.11,37.72-5.32c2.36-0.46,3.83,0.43,3.83,2.84c0,2.96-0.19,38.09-0.19,41.62c0,7.59-4.76,0.92-6.53-1.08" id="Ske23sjq93i" kvg:type="㇆a" transform="matrix(1,0,0,1,1096,-4)" xmlns:kvg="http://kanjivg.tagaini.net"></path><path class="stroke_order_diagram--existing_path" d="M52.81,52.06c1.1,0.34,3.06,0.23,4.21,0.07c4.68-0.66,13.84-2.48,19.23-2.95c1.21-0.11,2.69-0.34,3.89-0.11" id="Ske23sjq93j" kvg:type="㇐" transform="matrix(1,0,0,1,1096,-4)" xmlns:kvg="http://kanjivg.tagaini.net"></path><path class="stroke_order_diagram--existing_path" d="M64.41,42c0.67,0.67,1.18,1.88,1.18,3.38c0,6.62,0.04,8.93,0.04,14.74" id="Ske23sjq93k" kvg:type="㇑a" transform="matrix(1,0,0,1,1096,-4)" xmlns:kvg="http://kanjivg.tagaini.net"></path><path class="stroke_order_diagram--existing_path" d="M55.13,61.04c0.54,0.54,0.87,1.21,1.17,2.2c0.5,1.64,1.31,5.62,2,9.2c0.19,0.98,0.35,1.93,0.48,2.81" id="Ske23sjq93l" kvg:type="㇑" transform="matrix(1,0,0,1,1096,-4)" xmlns:kvg="http://kanjivg.tagaini.net"></path><path class="stroke_order_diagram--existing_path" d="M57.23,62.17c5.34-0.85,11.42-1.77,16.16-2.44c2.15-0.3,3.33,0.43,2.78,2.68c-0.61,2.51-1.89,6.06-2.51,8.9" id="Ske23sjq93m" kvg:type="㇕b" transform="matrix(1,0,0,1,1096,-4)" xmlns:kvg="http://kanjivg.tagaini.net"></path><path class="stroke_order_diagram--existing_path" d="M59.72,73.4c4.15-0.53,7.68-0.78,12.03-1.4c1.26-0.18,2.45-0.31,3.49-0.37" id="Ske23sjq93n" kvg:type="㇐b" transform="matrix(1,0,0,1,1096,-4)" xmlns:kvg="http://kanjivg.tagaini.net"></path><path class="stroke_order_diagram--current_path" d="M18.25,17.62c4.5,2.08,11.62,8.53,12.75,11.76" id="kvg:09069-s12" kvg:type="㇔" transform="matrix(1,0,0,1,1096,-4)" xmlns:kvg="http://kanjivg.tagaini.net"></path><path class="stroke_order_diagram--current_path" d="M18.25,17.62c4.5,2.08,11.62,8.53,12.75,11.76" id="Ske23sjq93p" kvg:type="㇔" transform="matrix(1,0,0,1,1096,-4)" xmlns:kvg="http://kanjivg.tagaini.net"></path><circle class="stroke_order_diagram--path_start" cx="18.25" cy="17.62" r="4" transform="matrix(1,0,0,1,1096,-4)"></circle><line class="stroke_order_diagram--guide_line" x1="1250" x2="1250" y1="1" y2="99"></line><line class="stroke_order_diagram--bounding_box" x1="1299" x2="1299" y1="1" y2="99"></line><path class="stroke_order_diagram--existing_path" d="M63.66,10.25c1.11,1.11,1.65,2.5,1.65,4.25c0,1.12,0,4,0,6.25" id="Ske23sjq93s" kvg:type="㇑a" transform="matrix(1,0,0,1,1196,-4)" xmlns:kvg="http://kanjivg.tagaini.net"></path><path class="stroke_order_diagram--existing_path" d="M43.5,23.95c2.31,0.59,4.8,0.16,7.14-0.15c9.99-1.31,22.19-2.85,32-3.94c2.3-0.26,4.58-0.13,6.87,0.22" id="Ske23sjq93t" kvg:type="㇐" transform="matrix(1,0,0,1,1196,-4)" xmlns:kvg="http://kanjivg.tagaini.net"></path><path class="stroke_order_diagram--existing_path" d="M53.17,26.75c2.85,3.92,4.15,7.92,4.41,10.5" id="Ske23sjq93u" kvg:type="㇔" transform="matrix(1,0,0,1,1196,-4)" xmlns:kvg="http://kanjivg.tagaini.net"></path><path class="stroke_order_diagram--existing_path" d="M76.56,23.5c0.31,1,0.19,1.88-0.15,2.69c-0.9,2.16-3.66,7.56-5.09,10.06" id="Ske23sjq93v" kvg:type="㇒" transform="matrix(1,0,0,1,1196,-4)" xmlns:kvg="http://kanjivg.tagaini.net"></path><path class="stroke_order_diagram--existing_path" d="M44.68,40.73c0.79,0.79,1.34,1.99,1.34,3.38c0,2.67-0.07,20.11-0.09,30.76c-0.01,2.38-0.01,4.42-0.01,5.88" id="Ske23sjq93w" kvg:type="㇑" transform="matrix(1,0,0,1,1196,-4)" xmlns:kvg="http://kanjivg.tagaini.net"></path><path class="stroke_order_diagram--existing_path" d="M46.77,42.02c7.86-1.4,36.61-5.11,37.72-5.32c2.36-0.46,3.83,0.43,3.83,2.84c0,2.96-0.19,38.09-0.19,41.62c0,7.59-4.76,0.92-6.53-1.08" id="Ske23sjq93x" kvg:type="㇆a" transform="matrix(1,0,0,1,1196,-4)" xmlns:kvg="http://kanjivg.tagaini.net"></path><path class="stroke_order_diagram--existing_path" d="M52.81,52.06c1.1,0.34,3.06,0.23,4.21,0.07c4.68-0.66,13.84-2.48,19.23-2.95c1.21-0.11,2.69-0.34,3.89-0.11" id="Ske23sjq93y" kvg:type="㇐" transform="matrix(1,0,0,1,1196,-4)" xmlns:kvg="http://kanjivg.tagaini.net"></path><path class="stroke_order_diagram--existing_path" d="M64.41,42c0.67,0.67,1.18,1.88,1.18,3.38c0,6.62,0.04,8.93,0.04,14.74" id="Ske23sjq93z" kvg:type="㇑a" transform="matrix(1,0,0,1,1196,-4)" xmlns:kvg="http://kanjivg.tagaini.net"></path><path class="stroke_order_diagram--existing_path" d="M55.13,61.04c0.54,0.54,0.87,1.21,1.17,2.2c0.5,1.64,1.31,5.62,2,9.2c0.19,0.98,0.35,1.93,0.48,2.81" id="Ske23sjq940" kvg:type="㇑" transform="matrix(1,0,0,1,1196,-4)" xmlns:kvg="http://kanjivg.tagaini.net"></path><path class="stroke_order_diagram--existing_path" d="M57.23,62.17c5.34-0.85,11.42-1.77,16.16-2.44c2.15-0.3,3.33,0.43,2.78,2.68c-0.61,2.51-1.89,6.06-2.51,8.9" id="Ske23sjq941" kvg:type="㇕b" transform="matrix(1,0,0,1,1196,-4)" xmlns:kvg="http://kanjivg.tagaini.net"></path><path class="stroke_order_diagram--existing_path" d="M59.72,73.4c4.15-0.53,7.68-0.78,12.03-1.4c1.26-0.18,2.45-0.31,3.49-0.37" id="Ske23sjq942" kvg:type="㇐b" transform="matrix(1,0,0,1,1196,-4)" xmlns:kvg="http://kanjivg.tagaini.net"></path><path class="stroke_order_diagram--existing_path" d="M18.25,17.62c4.5,2.08,11.62,8.53,12.75,11.76" id="Ske23sjq943" kvg:type="㇔" transform="matrix(1,0,0,1,1196,-4)" xmlns:kvg="http://kanjivg.tagaini.net"></path><path class="stroke_order_diagram--current_path" d="M11.25,50.75c2.25,1,3.75,0.5,4.75,0.25s10.75-3.75,12.25-4.25s2.95,1.47,2,3c-9.12,14.75-8,8.88,0,19c1.04,1.32,1.25,3-0.25,4.25S18,83,16.5,83.5" id="kvg:09069-s13" kvg:type="㇋" transform="matrix(1,0,0,1,1196,-4)" xmlns:kvg="http://kanjivg.tagaini.net"></path><path class="stroke_order_diagram--current_path" d="M11.25,50.75c2.25,1,3.75,0.5,4.75,0.25s10.75-3.75,12.25-4.25s2.95,1.47,2,3c-9.12,14.75-8,8.88,0,19c1.04,1.32,1.25,3-0.25,4.25S18,83,16.5,83.5" id="Ske23sjq945" kvg:type="㇋" transform="matrix(1,0,0,1,1196,-4)" xmlns:kvg="http://kanjivg.tagaini.net"></path><circle class="stroke_order_diagram--path_start" cx="11.25" cy="50.75" r="4" transform="matrix(1,0,0,1,1196,-4)"></circle><line class="stroke_order_diagram--guide_line" x1="1350" x2="1350" y1="1" y2="99"></line><line class="stroke_order_diagram--bounding_box" x1="1399" x2="1399" y1="1" y2="99"></line><path class="stroke_order_diagram--existing_path" d="M63.66,10.25c1.11,1.11,1.65,2.5,1.65,4.25c0,1.12,0,4,0,6.25" id="Ske23sjq948" kvg:type="㇑a" transform="matrix(1,0,0,1,1296,-4)" xmlns:kvg="http://kanjivg.tagaini.net"></path><path class="stroke_order_diagram--existing_path" d="M43.5,23.95c2.31,0.59,4.8,0.16,7.14-0.15c9.99-1.31,22.19-2.85,32-3.94c2.3-0.26,4.58-0.13,6.87,0.22" id="Ske23sjq949" kvg:type="㇐" transform="matrix(1,0,0,1,1296,-4)" xmlns:kvg="http://kanjivg.tagaini.net"></path><path class="stroke_order_diagram--existing_path" d="M53.17,26.75c2.85,3.92,4.15,7.92,4.41,10.5" id="Ske23sjq94a" kvg:type="㇔" transform="matrix(1,0,0,1,1296,-4)" xmlns:kvg="http://kanjivg.tagaini.net"></path><path class="stroke_order_diagram--existing_path" d="M76.56,23.5c0.31,1,0.19,1.88-0.15,2.69c-0.9,2.16-3.66,7.56-5.09,10.06" id="Ske23sjq94b" kvg:type="㇒" transform="matrix(1,0,0,1,1296,-4)" xmlns:kvg="http://kanjivg.tagaini.net"></path><path class="stroke_order_diagram--existing_path" d="M44.68,40.73c0.79,0.79,1.34,1.99,1.34,3.38c0,2.67-0.07,20.11-0.09,30.76c-0.01,2.38-0.01,4.42-0.01,5.88" id="Ske23sjq94c" kvg:type="㇑" transform="matrix(1,0,0,1,1296,-4)" xmlns:kvg="http://kanjivg.tagaini.net"></path><path class="stroke_order_diagram--existing_path" d="M46.77,42.02c7.86-1.4,36.61-5.11,37.72-5.32c2.36-0.46,3.83,0.43,3.83,2.84c0,2.96-0.19,38.09-0.19,41.62c0,7.59-4.76,0.92-6.53-1.08" id="Ske23sjq94d" kvg:type="㇆a" transform="matrix(1,0,0,1,1296,-4)" xmlns:kvg="http://kanjivg.tagaini.net"></path><path class="stroke_order_diagram--existing_path" d="M52.81,52.06c1.1,0.34,3.06,0.23,4.21,0.07c4.68-0.66,13.84-2.48,19.23-2.95c1.21-0.11,2.69-0.34,3.89-0.11" id="Ske23sjq94e" kvg:type="㇐" transform="matrix(1,0,0,1,1296,-4)" xmlns:kvg="http://kanjivg.tagaini.net"></path><path class="stroke_order_diagram--existing_path" d="M64.41,42c0.67,0.67,1.18,1.88,1.18,3.38c0,6.62,0.04,8.93,0.04,14.74" id="Ske23sjq94f" kvg:type="㇑a" transform="matrix(1,0,0,1,1296,-4)" xmlns:kvg="http://kanjivg.tagaini.net"></path><path class="stroke_order_diagram--existing_path" d="M55.13,61.04c0.54,0.54,0.87,1.21,1.17,2.2c0.5,1.64,1.31,5.62,2,9.2c0.19,0.98,0.35,1.93,0.48,2.81" id="Ske23sjq94g" kvg:type="㇑" transform="matrix(1,0,0,1,1296,-4)" xmlns:kvg="http://kanjivg.tagaini.net"></path><path class="stroke_order_diagram--existing_path" d="M57.23,62.17c5.34-0.85,11.42-1.77,16.16-2.44c2.15-0.3,3.33,0.43,2.78,2.68c-0.61,2.51-1.89,6.06-2.51,8.9" id="Ske23sjq94h" kvg:type="㇕b" transform="matrix(1,0,0,1,1296,-4)" xmlns:kvg="http://kanjivg.tagaini.net"></path><path class="stroke_order_diagram--existing_path" d="M59.72,73.4c4.15-0.53,7.68-0.78,12.03-1.4c1.26-0.18,2.45-0.31,3.49-0.37" id="Ske23sjq94i" kvg:type="㇐b" transform="matrix(1,0,0,1,1296,-4)" xmlns:kvg="http://kanjivg.tagaini.net"></path><path class="stroke_order_diagram--existing_path" d="M18.25,17.62c4.5,2.08,11.62,8.53,12.75,11.76" id="Ske23sjq94j" kvg:type="㇔" transform="matrix(1,0,0,1,1296,-4)" xmlns:kvg="http://kanjivg.tagaini.net"></path><path class="stroke_order_diagram--existing_path" d="M11.25,50.75c2.25,1,3.75,0.5,4.75,0.25s10.75-3.75,12.25-4.25s2.95,1.47,2,3c-9.12,14.75-8,8.88,0,19c1.04,1.32,1.25,3-0.25,4.25S18,83,16.5,83.5" id="Ske23sjq94k" kvg:type="㇋" transform="matrix(1,0,0,1,1296,-4)" xmlns:kvg="http://kanjivg.tagaini.net"></path><path class="stroke_order_diagram--current_path" d="M14,84.25c3-0.5,9.67-0.99,14.25-0.5c5.88,0.62,30.07,7.21,34.5,8.5c12,3.5,19.25,4.38,28,4.5" id="kvg:09069-s14" kvg:type="㇏a" transform="matrix(1,0,0,1,1296,-4)" xmlns:kvg="http://kanjivg.tagaini.net"></path><path class="stroke_order_diagram--current_path" d="M14,84.25c3-0.5,9.67-0.99,14.25-0.5c5.88,0.62,30.07,7.21,34.5,8.5c12,3.5,19.25,4.38,28,4.5" id="Ske23sjq94m" kvg:type="㇏a" transform="matrix(1,0,0,1,1296,-4)" xmlns:kvg="http://kanjivg.tagaini.net"></path><circle class="stroke_order_diagram--path_start" cx="14" cy="84.25" r="4" transform="matrix(1,0,0,1,1296,-4)"></circle></svg>