<svg class="stroke_order_diagram--svg_container_for_518662c0d5dda796580016c5" style="height: 100px; width: 1500px;" viewbox="0 0 1500 100"><desc>Created with Snap</desc><defs></defs><line class="stroke_order_diagram--bounding_box" x1="1" x2="1499" y1="1" y2="1"></line><line class="stroke_order_diagram--bounding_box" x1="1" x2="1" y1="1" y2="99"></line><line class="stroke_order_diagram--bounding_box" x1="1" x2="1499" y1="99" y2="99"></line><line class="stroke_order_diagram--guide_line" x1="0" x2="1500" y1="50" y2="50"></line><line class="stroke_order_diagram--guide_line" x1="50" x2="50" y1="1" y2="99"></line><line class="stroke_order_diagram--bounding_box" x1="99" x2="99" y1="1" y2="99"></line><path class="stroke_order_diagram--current_path" d="M10.24,20.14c0.63,0.41,3.81,1.01,4.46,0.95c6.66-0.58,24.25-2.29,27.05-2.57C43.34,18.37,45,18,46.5,18.38" id="kvg:0918b-s1" kvg:type="㇐" transform="matrix(1,0,0,1,-4,-4)" xmlns:kvg="http://kanjivg.tagaini.net"></path><path class="stroke_order_diagram--current_path" d="M10.24,20.14c0.63,0.41,3.81,1.01,4.46,0.95c6.66-0.58,24.25-2.29,27.05-2.57C43.34,18.37,45,18,46.5,18.38" id="Ske31hr6yo" kvg:type="㇐" transform="matrix(1,0,0,1,-4,-4)" xmlns:kvg="http://kanjivg.tagaini.net"></path><circle class="stroke_order_diagram--path_start" cx="10.24" cy="20.14" r="4" transform="matrix(1,0,0,1,-4,-4)"></circle><line class="stroke_order_diagram--guide_line" x1="150" x2="150" y1="1" y2="99"></line><line class="stroke_order_diagram--bounding_box" x1="199" x2="199" y1="1" y2="99"></line><path class="stroke_order_diagram--existing_path" d="M10.24,20.14c0.63,0.41,3.81,1.01,4.46,0.95c6.66-0.58,24.25-2.29,27.05-2.57C43.34,18.37,45,18,46.5,18.38" id="Ske31hr6yr" kvg:type="㇐" transform="matrix(1,0,0,1,96,-4)" xmlns:kvg="http://kanjivg.tagaini.net"></path><path class="stroke_order_diagram--current_path" d="M13.47,34.84c0.43,0.74,0.59,2.52,0.59,3.51c0,0.99-0.14,51.41,0,52.39" id="kvg:0918b-s2" kvg:type="㇑" transform="matrix(1,0,0,1,96,-4)" xmlns:kvg="http://kanjivg.tagaini.net"></path><path class="stroke_order_diagram--current_path" d="M13.47,34.84c0.43,0.74,0.59,2.52,0.59,3.51c0,0.99-0.14,51.41,0,52.39" id="Ske31hr6yt" kvg:type="㇑" transform="matrix(1,0,0,1,96,-4)" xmlns:kvg="http://kanjivg.tagaini.net"></path><circle class="stroke_order_diagram--path_start" cx="13.47" cy="34.84" r="4" transform="matrix(1,0,0,1,96,-4)"></circle><line class="stroke_order_diagram--guide_line" x1="250" x2="250" y1="1" y2="99"></line><line class="stroke_order_diagram--bounding_box" x1="299" x2="299" y1="1" y2="99"></line><path class="stroke_order_diagram--existing_path" d="M10.24,20.14c0.63,0.41,3.81,1.01,4.46,0.95c6.66-0.58,24.25-2.29,27.05-2.57C43.34,18.37,45,18,46.5,18.38" id="Ske31hr6yw" kvg:type="㇐" transform="matrix(1,0,0,1,196,-4)" xmlns:kvg="http://kanjivg.tagaini.net"></path><path class="stroke_order_diagram--existing_path" d="M13.47,34.84c0.43,0.74,0.59,2.52,0.59,3.51c0,0.99-0.14,51.41,0,52.39" id="Ske31hr6yx" kvg:type="㇑" transform="matrix(1,0,0,1,196,-4)" xmlns:kvg="http://kanjivg.tagaini.net"></path><path class="stroke_order_diagram--current_path" d="M14.26,36.88c2.41-0.12,24.79-2.28,26.98-2.59c2.27-0.32,4.15,1.19,4.15,3.98c0,1.56-0.35,50.65-0.35,51.39" id="kvg:0918b-s3" kvg:type="㇕a" transform="matrix(1,0,0,1,196,-4)" xmlns:kvg="http://kanjivg.tagaini.net"></path><path class="stroke_order_diagram--current_path" d="M14.26,36.88c2.41-0.12,24.79-2.28,26.98-2.59c2.27-0.32,4.15,1.19,4.15,3.98c0,1.56-0.35,50.65-0.35,51.39" id="Ske31hr6yz" kvg:type="㇕a" transform="matrix(1,0,0,1,196,-4)" xmlns:kvg="http://kanjivg.tagaini.net"></path><circle class="stroke_order_diagram--path_start" cx="14.26" cy="36.88" r="4" transform="matrix(1,0,0,1,196,-4)"></circle><line class="stroke_order_diagram--guide_line" x1="350" x2="350" y1="1" y2="99"></line><line class="stroke_order_diagram--bounding_box" x1="399" x2="399" y1="1" y2="99"></line><path class="stroke_order_diagram--existing_path" d="M10.24,20.14c0.63,0.41,3.81,1.01,4.46,0.95c6.66-0.58,24.25-2.29,27.05-2.57C43.34,18.37,45,18,46.5,18.38" id="Ske31hr6y12" kvg:type="㇐" transform="matrix(1,0,0,1,296,-4)" xmlns:kvg="http://kanjivg.tagaini.net"></path><path class="stroke_order_diagram--existing_path" d="M13.47,34.84c0.43,0.74,0.59,2.52,0.59,3.51c0,0.99-0.14,51.41,0,52.39" id="Ske31hr6y13" kvg:type="㇑" transform="matrix(1,0,0,1,296,-4)" xmlns:kvg="http://kanjivg.tagaini.net"></path><path class="stroke_order_diagram--existing_path" d="M14.26,36.88c2.41-0.12,24.79-2.28,26.98-2.59c2.27-0.32,4.15,1.19,4.15,3.98c0,1.56-0.35,50.65-0.35,51.39" id="Ske31hr6y14" kvg:type="㇕a" transform="matrix(1,0,0,1,296,-4)" xmlns:kvg="http://kanjivg.tagaini.net"></path><path class="stroke_order_diagram--current_path" d="M23.94,23.22c0.67,1.18,1.08,2.8,0.98,4.42c-0.9,14.98-2.76,23.7-6.75,30.95" id="kvg:0918b-s4" kvg:type="㇒" transform="matrix(1,0,0,1,296,-4)" xmlns:kvg="http://kanjivg.tagaini.net"></path><path class="stroke_order_diagram--current_path" d="M23.94,23.22c0.67,1.18,1.08,2.8,0.98,4.42c-0.9,14.98-2.76,23.7-6.75,30.95" id="Ske31hr6y16" kvg:type="㇒" transform="matrix(1,0,0,1,296,-4)" xmlns:kvg="http://kanjivg.tagaini.net"></path><circle class="stroke_order_diagram--path_start" cx="23.94" cy="23.22" r="4" transform="matrix(1,0,0,1,296,-4)"></circle><line class="stroke_order_diagram--guide_line" x1="450" x2="450" y1="1" y2="99"></line><line class="stroke_order_diagram--bounding_box" x1="499" x2="499" y1="1" y2="99"></line><path class="stroke_order_diagram--existing_path" d="M10.24,20.14c0.63,0.41,3.81,1.01,4.46,0.95c6.66-0.58,24.25-2.29,27.05-2.57C43.34,18.37,45,18,46.5,18.38" id="Ske31hr6y19" kvg:type="㇐" transform="matrix(1,0,0,1,396,-4)" xmlns:kvg="http://kanjivg.tagaini.net"></path><path class="stroke_order_diagram--existing_path" d="M13.47,34.84c0.43,0.74,0.59,2.52,0.59,3.51c0,0.99-0.14,51.41,0,52.39" id="Ske31hr6y1a" kvg:type="㇑" transform="matrix(1,0,0,1,396,-4)" xmlns:kvg="http://kanjivg.tagaini.net"></path><path class="stroke_order_diagram--existing_path" d="M14.26,36.88c2.41-0.12,24.79-2.28,26.98-2.59c2.27-0.32,4.15,1.19,4.15,3.98c0,1.56-0.35,50.65-0.35,51.39" id="Ske31hr6y1b" kvg:type="㇕a" transform="matrix(1,0,0,1,396,-4)" xmlns:kvg="http://kanjivg.tagaini.net"></path><path class="stroke_order_diagram--existing_path" d="M23.94,23.22c0.67,1.18,1.08,2.8,0.98,4.42c-0.9,14.98-2.76,23.7-6.75,30.95" id="Ske31hr6y1c" kvg:type="㇒" transform="matrix(1,0,0,1,396,-4)" xmlns:kvg="http://kanjivg.tagaini.net"></path><path class="stroke_order_diagram--current_path" d="M32.71,22.04c0.43,1.21,0.77,2.65,0.8,4.52c0.08,5.94-0.19,13.5-0.23,20.84c-0.03,6.37,1.86,7.69,4.88,7.69c3.06,0,5.17-0.22,5.47-0.94" id="kvg:0918b-s5" kvg:type="㇟a" transform="matrix(1,0,0,1,396,-4)" xmlns:kvg="http://kanjivg.tagaini.net"></path><path class="stroke_order_diagram--current_path" d="M32.71,22.04c0.43,1.21,0.77,2.65,0.8,4.52c0.08,5.94-0.19,13.5-0.23,20.84c-0.03,6.37,1.86,7.69,4.88,7.69c3.06,0,5.17-0.22,5.47-0.94" id="Ske31hr6y1e" kvg:type="㇟a" transform="matrix(1,0,0,1,396,-4)" xmlns:kvg="http://kanjivg.tagaini.net"></path><circle class="stroke_order_diagram--path_start" cx="32.71" cy="22.04" r="4" transform="matrix(1,0,0,1,396,-4)"></circle><line class="stroke_order_diagram--guide_line" x1="550" x2="550" y1="1" y2="99"></line><line class="stroke_order_diagram--bounding_box" x1="599" x2="599" y1="1" y2="99"></line><path class="stroke_order_diagram--existing_path" d="M10.24,20.14c0.63,0.41,3.81,1.01,4.46,0.95c6.66-0.58,24.25-2.29,27.05-2.57C43.34,18.37,45,18,46.5,18.38" id="Ske31hr6y1h" kvg:type="㇐" transform="matrix(1,0,0,1,496,-4)" xmlns:kvg="http://kanjivg.tagaini.net"></path><path class="stroke_order_diagram--existing_path" d="M13.47,34.84c0.43,0.74,0.59,2.52,0.59,3.51c0,0.99-0.14,51.41,0,52.39" id="Ske31hr6y1i" kvg:type="㇑" transform="matrix(1,0,0,1,496,-4)" xmlns:kvg="http://kanjivg.tagaini.net"></path><path class="stroke_order_diagram--existing_path" d="M14.26,36.88c2.41-0.12,24.79-2.28,26.98-2.59c2.27-0.32,4.15,1.19,4.15,3.98c0,1.56-0.35,50.65-0.35,51.39" id="Ske31hr6y1j" kvg:type="㇕a" transform="matrix(1,0,0,1,496,-4)" xmlns:kvg="http://kanjivg.tagaini.net"></path><path class="stroke_order_diagram--existing_path" d="M23.94,23.22c0.67,1.18,1.08,2.8,0.98,4.42c-0.9,14.98-2.76,23.7-6.75,30.95" id="Ske31hr6y1k" kvg:type="㇒" transform="matrix(1,0,0,1,496,-4)" xmlns:kvg="http://kanjivg.tagaini.net"></path><path class="stroke_order_diagram--existing_path" d="M32.71,22.04c0.43,1.21,0.77,2.65,0.8,4.52c0.08,5.94-0.19,13.5-0.23,20.84c-0.03,6.37,1.86,7.69,4.88,7.69c3.06,0,5.17-0.22,5.47-0.94" id="Ske31hr6y1l" kvg:type="㇟a" transform="matrix(1,0,0,1,496,-4)" xmlns:kvg="http://kanjivg.tagaini.net"></path><path class="stroke_order_diagram--current_path" d="M14.69,70.51c3.27,0,26.2-1.69,29.89-1.69" id="kvg:0918b-s6" kvg:type="㇐a" transform="matrix(1,0,0,1,496,-4)" xmlns:kvg="http://kanjivg.tagaini.net"></path><path class="stroke_order_diagram--current_path" d="M14.69,70.51c3.27,0,26.2-1.69,29.89-1.69" id="Ske31hr6y1n" kvg:type="㇐a" transform="matrix(1,0,0,1,496,-4)" xmlns:kvg="http://kanjivg.tagaini.net"></path><circle class="stroke_order_diagram--path_start" cx="14.69" cy="70.51" r="4" transform="matrix(1,0,0,1,496,-4)"></circle><line class="stroke_order_diagram--guide_line" x1="650" x2="650" y1="1" y2="99"></line><line class="stroke_order_diagram--bounding_box" x1="699" x2="699" y1="1" y2="99"></line><path class="stroke_order_diagram--existing_path" d="M10.24,20.14c0.63,0.41,3.81,1.01,4.46,0.95c6.66-0.58,24.25-2.29,27.05-2.57C43.34,18.37,45,18,46.5,18.38" id="Ske31hr6y1q" kvg:type="㇐" transform="matrix(1,0,0,1,596,-4)" xmlns:kvg="http://kanjivg.tagaini.net"></path><path class="stroke_order_diagram--existing_path" d="M13.47,34.84c0.43,0.74,0.59,2.52,0.59,3.51c0,0.99-0.14,51.41,0,52.39" id="Ske31hr6y1r" kvg:type="㇑" transform="matrix(1,0,0,1,596,-4)" xmlns:kvg="http://kanjivg.tagaini.net"></path><path class="stroke_order_diagram--existing_path" d="M14.26,36.88c2.41-0.12,24.79-2.28,26.98-2.59c2.27-0.32,4.15,1.19,4.15,3.98c0,1.56-0.35,50.65-0.35,51.39" id="Ske31hr6y1s" kvg:type="㇕a" transform="matrix(1,0,0,1,596,-4)" xmlns:kvg="http://kanjivg.tagaini.net"></path><path class="stroke_order_diagram--existing_path" d="M23.94,23.22c0.67,1.18,1.08,2.8,0.98,4.42c-0.9,14.98-2.76,23.7-6.75,30.95" id="Ske31hr6y1t" kvg:type="㇒" transform="matrix(1,0,0,1,596,-4)" xmlns:kvg="http://kanjivg.tagaini.net"></path><path class="stroke_order_diagram--existing_path" d="M32.71,22.04c0.43,1.21,0.77,2.65,0.8,4.52c0.08,5.94-0.19,13.5-0.23,20.84c-0.03,6.37,1.86,7.69,4.88,7.69c3.06,0,5.17-0.22,5.47-0.94" id="Ske31hr6y1u" kvg:type="㇟a" transform="matrix(1,0,0,1,596,-4)" xmlns:kvg="http://kanjivg.tagaini.net"></path><path class="stroke_order_diagram--existing_path" d="M14.69,70.51c3.27,0,26.2-1.69,29.89-1.69" id="Ske31hr6y1v" kvg:type="㇐a" transform="matrix(1,0,0,1,596,-4)" xmlns:kvg="http://kanjivg.tagaini.net"></path><path class="stroke_order_diagram--current_path" d="M14.54,87.44c6.65-0.53,21.75-1.45,30.03-1.9" id="kvg:0918b-s7" kvg:type="㇐a" transform="matrix(1,0,0,1,596,-4)" xmlns:kvg="http://kanjivg.tagaini.net"></path><path class="stroke_order_diagram--current_path" d="M14.54,87.44c6.65-0.53,21.75-1.45,30.03-1.9" id="Ske31hr6y1x" kvg:type="㇐a" transform="matrix(1,0,0,1,596,-4)" xmlns:kvg="http://kanjivg.tagaini.net"></path><circle class="stroke_order_diagram--path_start" cx="14.54" cy="87.44" r="4" transform="matrix(1,0,0,1,596,-4)"></circle><line class="stroke_order_diagram--guide_line" x1="750" x2="750" y1="1" y2="99"></line><line class="stroke_order_diagram--bounding_box" x1="799" x2="799" y1="1" y2="99"></line><path class="stroke_order_diagram--existing_path" d="M10.24,20.14c0.63,0.41,3.81,1.01,4.46,0.95c6.66-0.58,24.25-2.29,27.05-2.57C43.34,18.37,45,18,46.5,18.38" id="Ske31hr6y20" kvg:type="㇐" transform="matrix(1,0,0,1,696,-4)" xmlns:kvg="http://kanjivg.tagaini.net"></path><path class="stroke_order_diagram--existing_path" d="M13.47,34.84c0.43,0.74,0.59,2.52,0.59,3.51c0,0.99-0.14,51.41,0,52.39" id="Ske31hr6y21" kvg:type="㇑" transform="matrix(1,0,0,1,696,-4)" xmlns:kvg="http://kanjivg.tagaini.net"></path><path class="stroke_order_diagram--existing_path" d="M14.26,36.88c2.41-0.12,24.79-2.28,26.98-2.59c2.27-0.32,4.15,1.19,4.15,3.98c0,1.56-0.35,50.65-0.35,51.39" id="Ske31hr6y22" kvg:type="㇕a" transform="matrix(1,0,0,1,696,-4)" xmlns:kvg="http://kanjivg.tagaini.net"></path><path class="stroke_order_diagram--existing_path" d="M23.94,23.22c0.67,1.18,1.08,2.8,0.98,4.42c-0.9,14.98-2.76,23.7-6.75,30.95" id="Ske31hr6y23" kvg:type="㇒" transform="matrix(1,0,0,1,696,-4)" xmlns:kvg="http://kanjivg.tagaini.net"></path><path class="stroke_order_diagram--existing_path" d="M32.71,22.04c0.43,1.21,0.77,2.65,0.8,4.52c0.08,5.94-0.19,13.5-0.23,20.84c-0.03,6.37,1.86,7.69,4.88,7.69c3.06,0,5.17-0.22,5.47-0.94" id="Ske31hr6y24" kvg:type="㇟a" transform="matrix(1,0,0,1,696,-4)" xmlns:kvg="http://kanjivg.tagaini.net"></path><path class="stroke_order_diagram--existing_path" d="M14.69,70.51c3.27,0,26.2-1.69,29.89-1.69" id="Ske31hr6y25" kvg:type="㇐a" transform="matrix(1,0,0,1,696,-4)" xmlns:kvg="http://kanjivg.tagaini.net"></path><path class="stroke_order_diagram--existing_path" d="M14.54,87.44c6.65-0.53,21.75-1.45,30.03-1.9" id="Ske31hr6y26" kvg:type="㇐a" transform="matrix(1,0,0,1,696,-4)" xmlns:kvg="http://kanjivg.tagaini.net"></path><path class="stroke_order_diagram--current_path" d="M54.38,28.81c1,0.39,2.84,0.5,3.84,0.39c6.39-0.68,25-2.86,32.96-2.97c1.67-0.02,2.67,0.19,3.51,0.38" id="kvg:0918b-s8" kvg:type="㇐" transform="matrix(1,0,0,1,696,-4)" xmlns:kvg="http://kanjivg.tagaini.net"></path><path class="stroke_order_diagram--current_path" d="M54.38,28.81c1,0.39,2.84,0.5,3.84,0.39c6.39-0.68,25-2.86,32.96-2.97c1.67-0.02,2.67,0.19,3.51,0.38" id="Ske31hr6y28" kvg:type="㇐" transform="matrix(1,0,0,1,696,-4)" xmlns:kvg="http://kanjivg.tagaini.net"></path><circle class="stroke_order_diagram--path_start" cx="54.38" cy="28.81" r="4" transform="matrix(1,0,0,1,696,-4)"></circle><line class="stroke_order_diagram--guide_line" x1="850" x2="850" y1="1" y2="99"></line><line class="stroke_order_diagram--bounding_box" x1="899" x2="899" y1="1" y2="99"></line><path class="stroke_order_diagram--existing_path" d="M10.24,20.14c0.63,0.41,3.81,1.01,4.46,0.95c6.66-0.58,24.25-2.29,27.05-2.57C43.34,18.37,45,18,46.5,18.38" id="Ske31hr6y2b" kvg:type="㇐" transform="matrix(1,0,0,1,796,-4)" xmlns:kvg="http://kanjivg.tagaini.net"></path><path class="stroke_order_diagram--existing_path" d="M13.47,34.84c0.43,0.74,0.59,2.52,0.59,3.51c0,0.99-0.14,51.41,0,52.39" id="Ske31hr6y2c" kvg:type="㇑" transform="matrix(1,0,0,1,796,-4)" xmlns:kvg="http://kanjivg.tagaini.net"></path><path class="stroke_order_diagram--existing_path" d="M14.26,36.88c2.41-0.12,24.79-2.28,26.98-2.59c2.27-0.32,4.15,1.19,4.15,3.98c0,1.56-0.35,50.65-0.35,51.39" id="Ske31hr6y2d" kvg:type="㇕a" transform="matrix(1,0,0,1,796,-4)" xmlns:kvg="http://kanjivg.tagaini.net"></path><path class="stroke_order_diagram--existing_path" d="M23.94,23.22c0.67,1.18,1.08,2.8,0.98,4.42c-0.9,14.98-2.76,23.7-6.75,30.95" id="Ske31hr6y2e" kvg:type="㇒" transform="matrix(1,0,0,1,796,-4)" xmlns:kvg="http://kanjivg.tagaini.net"></path><path class="stroke_order_diagram--existing_path" d="M32.71,22.04c0.43,1.21,0.77,2.65,0.8,4.52c0.08,5.94-0.19,13.5-0.23,20.84c-0.03,6.37,1.86,7.69,4.88,7.69c3.06,0,5.17-0.22,5.47-0.94" id="Ske31hr6y2f" kvg:type="㇟a" transform="matrix(1,0,0,1,796,-4)" xmlns:kvg="http://kanjivg.tagaini.net"></path><path class="stroke_order_diagram--existing_path" d="M14.69,70.51c3.27,0,26.2-1.69,29.89-1.69" id="Ske31hr6y2g" kvg:type="㇐a" transform="matrix(1,0,0,1,796,-4)" xmlns:kvg="http://kanjivg.tagaini.net"></path><path class="stroke_order_diagram--existing_path" d="M14.54,87.44c6.65-0.53,21.75-1.45,30.03-1.9" id="Ske31hr6y2h" kvg:type="㇐a" transform="matrix(1,0,0,1,796,-4)" xmlns:kvg="http://kanjivg.tagaini.net"></path><path class="stroke_order_diagram--existing_path" d="M54.38,28.81c1,0.39,2.84,0.5,3.84,0.39c6.39-0.68,25-2.86,32.96-2.97c1.67-0.02,2.67,0.19,3.51,0.38" id="Ske31hr6y2i" kvg:type="㇐" transform="matrix(1,0,0,1,796,-4)" xmlns:kvg="http://kanjivg.tagaini.net"></path><path class="stroke_order_diagram--current_path" d="M61.91,15.13c1,0.55,1.6,2.48,1.8,3.58c0.2,1.1,0.39,17.89,1.08,28.35" id="kvg:0918b-s9" kvg:type="㇑" transform="matrix(1,0,0,1,796,-4)" xmlns:kvg="http://kanjivg.tagaini.net"></path><path class="stroke_order_diagram--current_path" d="M61.91,15.13c1,0.55,1.6,2.48,1.8,3.58c0.2,1.1,0.39,17.89,1.08,28.35" id="Ske31hr6y2k" kvg:type="㇑" transform="matrix(1,0,0,1,796,-4)" xmlns:kvg="http://kanjivg.tagaini.net"></path><circle class="stroke_order_diagram--path_start" cx="61.91" cy="15.13" r="4" transform="matrix(1,0,0,1,796,-4)"></circle><line class="stroke_order_diagram--guide_line" x1="950" x2="950" y1="1" y2="99"></line><line class="stroke_order_diagram--bounding_box" x1="999" x2="999" y1="1" y2="99"></line><path class="stroke_order_diagram--existing_path" d="M10.24,20.14c0.63,0.41,3.81,1.01,4.46,0.95c6.66-0.58,24.25-2.29,27.05-2.57C43.34,18.37,45,18,46.5,18.38" id="Ske31hr6y2n" kvg:type="㇐" transform="matrix(1,0,0,1,896,-4)" xmlns:kvg="http://kanjivg.tagaini.net"></path><path class="stroke_order_diagram--existing_path" d="M13.47,34.84c0.43,0.74,0.59,2.52,0.59,3.51c0,0.99-0.14,51.41,0,52.39" id="Ske31hr6y2o" kvg:type="㇑" transform="matrix(1,0,0,1,896,-4)" xmlns:kvg="http://kanjivg.tagaini.net"></path><path class="stroke_order_diagram--existing_path" d="M14.26,36.88c2.41-0.12,24.79-2.28,26.98-2.59c2.27-0.32,4.15,1.19,4.15,3.98c0,1.56-0.35,50.65-0.35,51.39" id="Ske31hr6y2p" kvg:type="㇕a" transform="matrix(1,0,0,1,896,-4)" xmlns:kvg="http://kanjivg.tagaini.net"></path><path class="stroke_order_diagram--existing_path" d="M23.94,23.22c0.67,1.18,1.08,2.8,0.98,4.42c-0.9,14.98-2.76,23.7-6.75,30.95" id="Ske31hr6y2q" kvg:type="㇒" transform="matrix(1,0,0,1,896,-4)" xmlns:kvg="http://kanjivg.tagaini.net"></path><path class="stroke_order_diagram--existing_path" d="M32.71,22.04c0.43,1.21,0.77,2.65,0.8,4.52c0.08,5.94-0.19,13.5-0.23,20.84c-0.03,6.37,1.86,7.69,4.88,7.69c3.06,0,5.17-0.22,5.47-0.94" id="Ske31hr6y2r" kvg:type="㇟a" transform="matrix(1,0,0,1,896,-4)" xmlns:kvg="http://kanjivg.tagaini.net"></path><path class="stroke_order_diagram--existing_path" d="M14.69,70.51c3.27,0,26.2-1.69,29.89-1.69" id="Ske31hr6y2s" kvg:type="㇐a" transform="matrix(1,0,0,1,896,-4)" xmlns:kvg="http://kanjivg.tagaini.net"></path><path class="stroke_order_diagram--existing_path" d="M14.54,87.44c6.65-0.53,21.75-1.45,30.03-1.9" id="Ske31hr6y2t" kvg:type="㇐a" transform="matrix(1,0,0,1,896,-4)" xmlns:kvg="http://kanjivg.tagaini.net"></path><path class="stroke_order_diagram--existing_path" d="M54.38,28.81c1,0.39,2.84,0.5,3.84,0.39c6.39-0.68,25-2.86,32.96-2.97c1.67-0.02,2.67,0.19,3.51,0.38" id="Ske31hr6y2u" kvg:type="㇐" transform="matrix(1,0,0,1,896,-4)" xmlns:kvg="http://kanjivg.tagaini.net"></path><path class="stroke_order_diagram--existing_path" d="M61.91,15.13c1,0.55,1.6,2.48,1.8,3.58c0.2,1.1,0.39,17.89,1.08,28.35" id="Ske31hr6y2v" kvg:type="㇑" transform="matrix(1,0,0,1,896,-4)" xmlns:kvg="http://kanjivg.tagaini.net"></path><path class="stroke_order_diagram--current_path" d="M80.84,12.75c0.8,0.51,1.28,2.3,1.44,3.33c0.16,1.02-1.53,19.17-1.69,30.43" id="kvg:0918b-s10" kvg:type="㇑" transform="matrix(1,0,0,1,896,-4)" xmlns:kvg="http://kanjivg.tagaini.net"></path><path class="stroke_order_diagram--current_path" d="M80.84,12.75c0.8,0.51,1.28,2.3,1.44,3.33c0.16,1.02-1.53,19.17-1.69,30.43" id="Ske31hr6y2x" kvg:type="㇑" transform="matrix(1,0,0,1,896,-4)" xmlns:kvg="http://kanjivg.tagaini.net"></path><circle class="stroke_order_diagram--path_start" cx="80.84" cy="12.75" r="4" transform="matrix(1,0,0,1,896,-4)"></circle><line class="stroke_order_diagram--guide_line" x1="1050" x2="1050" y1="1" y2="99"></line><line class="stroke_order_diagram--bounding_box" x1="1099" x2="1099" y1="1" y2="99"></line><path class="stroke_order_diagram--existing_path" d="M10.24,20.14c0.63,0.41,3.81,1.01,4.46,0.95c6.66-0.58,24.25-2.29,27.05-2.57C43.34,18.37,45,18,46.5,18.38" id="Ske31hr6y30" kvg:type="㇐" transform="matrix(1,0,0,1,996,-4)" xmlns:kvg="http://kanjivg.tagaini.net"></path><path class="stroke_order_diagram--existing_path" d="M13.47,34.84c0.43,0.74,0.59,2.52,0.59,3.51c0,0.99-0.14,51.41,0,52.39" id="Ske31hr6y31" kvg:type="㇑" transform="matrix(1,0,0,1,996,-4)" xmlns:kvg="http://kanjivg.tagaini.net"></path><path class="stroke_order_diagram--existing_path" d="M14.26,36.88c2.41-0.12,24.79-2.28,26.98-2.59c2.27-0.32,4.15,1.19,4.15,3.98c0,1.56-0.35,50.65-0.35,51.39" id="Ske31hr6y32" kvg:type="㇕a" transform="matrix(1,0,0,1,996,-4)" xmlns:kvg="http://kanjivg.tagaini.net"></path><path class="stroke_order_diagram--existing_path" d="M23.94,23.22c0.67,1.18,1.08,2.8,0.98,4.42c-0.9,14.98-2.76,23.7-6.75,30.95" id="Ske31hr6y33" kvg:type="㇒" transform="matrix(1,0,0,1,996,-4)" xmlns:kvg="http://kanjivg.tagaini.net"></path><path class="stroke_order_diagram--existing_path" d="M32.71,22.04c0.43,1.21,0.77,2.65,0.8,4.52c0.08,5.94-0.19,13.5-0.23,20.84c-0.03,6.37,1.86,7.69,4.88,7.69c3.06,0,5.17-0.22,5.47-0.94" id="Ske31hr6y34" kvg:type="㇟a" transform="matrix(1,0,0,1,996,-4)" xmlns:kvg="http://kanjivg.tagaini.net"></path><path class="stroke_order_diagram--existing_path" d="M14.69,70.51c3.27,0,26.2-1.69,29.89-1.69" id="Ske31hr6y35" kvg:type="㇐a" transform="matrix(1,0,0,1,996,-4)" xmlns:kvg="http://kanjivg.tagaini.net"></path><path class="stroke_order_diagram--existing_path" d="M14.54,87.44c6.65-0.53,21.75-1.45,30.03-1.9" id="Ske31hr6y36" kvg:type="㇐a" transform="matrix(1,0,0,1,996,-4)" xmlns:kvg="http://kanjivg.tagaini.net"></path><path class="stroke_order_diagram--existing_path" d="M54.38,28.81c1,0.39,2.84,0.5,3.84,0.39c6.39-0.68,25-2.86,32.96-2.97c1.67-0.02,2.67,0.19,3.51,0.38" id="Ske31hr6y37" kvg:type="㇐" transform="matrix(1,0,0,1,996,-4)" xmlns:kvg="http://kanjivg.tagaini.net"></path><path class="stroke_order_diagram--existing_path" d="M61.91,15.13c1,0.55,1.6,2.48,1.8,3.58c0.2,1.1,0.39,17.89,1.08,28.35" id="Ske31hr6y38" kvg:type="㇑" transform="matrix(1,0,0,1,996,-4)" xmlns:kvg="http://kanjivg.tagaini.net"></path><path class="stroke_order_diagram--existing_path" d="M80.84,12.75c0.8,0.51,1.28,2.3,1.44,3.33c0.16,1.02-1.53,19.17-1.69,30.43" id="Ske31hr6y39" kvg:type="㇑" transform="matrix(1,0,0,1,996,-4)" xmlns:kvg="http://kanjivg.tagaini.net"></path><path class="stroke_order_diagram--current_path" d="M51.22,48.3c1.3,0.49,3.68,0.5,5,0.49c10.29-0.04,28.04-3.04,38.51-3.2c2.17-0.03,3.48,0.23,4.56,0.48" id="kvg:0918b-s11" kvg:type="㇐" transform="matrix(1,0,0,1,996,-4)" xmlns:kvg="http://kanjivg.tagaini.net"></path><path class="stroke_order_diagram--current_path" d="M51.22,48.3c1.3,0.49,3.68,0.5,5,0.49c10.29-0.04,28.04-3.04,38.51-3.2c2.17-0.03,3.48,0.23,4.56,0.48" id="Ske31hr6y3b" kvg:type="㇐" transform="matrix(1,0,0,1,996,-4)" xmlns:kvg="http://kanjivg.tagaini.net"></path><circle class="stroke_order_diagram--path_start" cx="51.22" cy="48.3" r="4" transform="matrix(1,0,0,1,996,-4)"></circle><line class="stroke_order_diagram--guide_line" x1="1150" x2="1150" y1="1" y2="99"></line><line class="stroke_order_diagram--bounding_box" x1="1199" x2="1199" y1="1" y2="99"></line><path class="stroke_order_diagram--existing_path" d="M10.24,20.14c0.63,0.41,3.81,1.01,4.46,0.95c6.66-0.58,24.25-2.29,27.05-2.57C43.34,18.37,45,18,46.5,18.38" id="Ske31hr6y3e" kvg:type="㇐" transform="matrix(1,0,0,1,1096,-4)" xmlns:kvg="http://kanjivg.tagaini.net"></path><path class="stroke_order_diagram--existing_path" d="M13.47,34.84c0.43,0.74,0.59,2.52,0.59,3.51c0,0.99-0.14,51.41,0,52.39" id="Ske31hr6y3f" kvg:type="㇑" transform="matrix(1,0,0,1,1096,-4)" xmlns:kvg="http://kanjivg.tagaini.net"></path><path class="stroke_order_diagram--existing_path" d="M14.26,36.88c2.41-0.12,24.79-2.28,26.98-2.59c2.27-0.32,4.15,1.19,4.15,3.98c0,1.56-0.35,50.65-0.35,51.39" id="Ske31hr6y3g" kvg:type="㇕a" transform="matrix(1,0,0,1,1096,-4)" xmlns:kvg="http://kanjivg.tagaini.net"></path><path class="stroke_order_diagram--existing_path" d="M23.94,23.22c0.67,1.18,1.08,2.8,0.98,4.42c-0.9,14.98-2.76,23.7-6.75,30.95" id="Ske31hr6y3h" kvg:type="㇒" transform="matrix(1,0,0,1,1096,-4)" xmlns:kvg="http://kanjivg.tagaini.net"></path><path class="stroke_order_diagram--existing_path" d="M32.71,22.04c0.43,1.21,0.77,2.65,0.8,4.52c0.08,5.94-0.19,13.5-0.23,20.84c-0.03,6.37,1.86,7.69,4.88,7.69c3.06,0,5.17-0.22,5.47-0.94" id="Ske31hr6y3i" kvg:type="㇟a" transform="matrix(1,0,0,1,1096,-4)" xmlns:kvg="http://kanjivg.tagaini.net"></path><path class="stroke_order_diagram--existing_path" d="M14.69,70.51c3.27,0,26.2-1.69,29.89-1.69" id="Ske31hr6y3j" kvg:type="㇐a" transform="matrix(1,0,0,1,1096,-4)" xmlns:kvg="http://kanjivg.tagaini.net"></path><path class="stroke_order_diagram--existing_path" d="M14.54,87.44c6.65-0.53,21.75-1.45,30.03-1.9" id="Ske31hr6y3k" kvg:type="㇐a" transform="matrix(1,0,0,1,1096,-4)" xmlns:kvg="http://kanjivg.tagaini.net"></path><path class="stroke_order_diagram--existing_path" d="M54.38,28.81c1,0.39,2.84,0.5,3.84,0.39c6.39-0.68,25-2.86,32.96-2.97c1.67-0.02,2.67,0.19,3.51,0.38" id="Ske31hr6y3l" kvg:type="㇐" transform="matrix(1,0,0,1,1096,-4)" xmlns:kvg="http://kanjivg.tagaini.net"></path><path class="stroke_order_diagram--existing_path" d="M61.91,15.13c1,0.55,1.6,2.48,1.8,3.58c0.2,1.1,0.39,17.89,1.08,28.35" id="Ske31hr6y3m" kvg:type="㇑" transform="matrix(1,0,0,1,1096,-4)" xmlns:kvg="http://kanjivg.tagaini.net"></path><path class="stroke_order_diagram--existing_path" d="M80.84,12.75c0.8,0.51,1.28,2.3,1.44,3.33c0.16,1.02-1.53,19.17-1.69,30.43" id="Ske31hr6y3n" kvg:type="㇑" transform="matrix(1,0,0,1,1096,-4)" xmlns:kvg="http://kanjivg.tagaini.net"></path><path class="stroke_order_diagram--existing_path" d="M51.22,48.3c1.3,0.49,3.68,0.5,5,0.49c10.29-0.04,28.04-3.04,38.51-3.2c2.17-0.03,3.48,0.23,4.56,0.48" id="Ske31hr6y3o" kvg:type="㇐" transform="matrix(1,0,0,1,1096,-4)" xmlns:kvg="http://kanjivg.tagaini.net"></path><path class="stroke_order_diagram--current_path" d="M59.08,58.58c0.36,0.87,1.13,2.35,1.13,3.5c0,1.16,0,26.43,0,34.17" id="kvg:0918b-s12" kvg:type="㇑" transform="matrix(1,0,0,1,1096,-4)" xmlns:kvg="http://kanjivg.tagaini.net"></path><path class="stroke_order_diagram--current_path" d="M59.08,58.58c0.36,0.87,1.13,2.35,1.13,3.5c0,1.16,0,26.43,0,34.17" id="Ske31hr6y3q" kvg:type="㇑" transform="matrix(1,0,0,1,1096,-4)" xmlns:kvg="http://kanjivg.tagaini.net"></path><circle class="stroke_order_diagram--path_start" cx="59.08" cy="58.58" r="4" transform="matrix(1,0,0,1,1096,-4)"></circle><line class="stroke_order_diagram--guide_line" x1="1250" x2="1250" y1="1" y2="99"></line><line class="stroke_order_diagram--bounding_box" x1="1299" x2="1299" y1="1" y2="99"></line><path class="stroke_order_diagram--existing_path" d="M10.24,20.14c0.63,0.41,3.81,1.01,4.46,0.95c6.66-0.58,24.25-2.29,27.05-2.57C43.34,18.37,45,18,46.5,18.38" id="Ske31hr6y3t" kvg:type="㇐" transform="matrix(1,0,0,1,1196,-4)" xmlns:kvg="http://kanjivg.tagaini.net"></path><path class="stroke_order_diagram--existing_path" d="M13.47,34.84c0.43,0.74,0.59,2.52,0.59,3.51c0,0.99-0.14,51.41,0,52.39" id="Ske31hr6y3u" kvg:type="㇑" transform="matrix(1,0,0,1,1196,-4)" xmlns:kvg="http://kanjivg.tagaini.net"></path><path class="stroke_order_diagram--existing_path" d="M14.26,36.88c2.41-0.12,24.79-2.28,26.98-2.59c2.27-0.32,4.15,1.19,4.15,3.98c0,1.56-0.35,50.65-0.35,51.39" id="Ske31hr6y3v" kvg:type="㇕a" transform="matrix(1,0,0,1,1196,-4)" xmlns:kvg="http://kanjivg.tagaini.net"></path><path class="stroke_order_diagram--existing_path" d="M23.94,23.22c0.67,1.18,1.08,2.8,0.98,4.42c-0.9,14.98-2.76,23.7-6.75,30.95" id="Ske31hr6y3w" kvg:type="㇒" transform="matrix(1,0,0,1,1196,-4)" xmlns:kvg="http://kanjivg.tagaini.net"></path><path class="stroke_order_diagram--existing_path" d="M32.71,22.04c0.43,1.21,0.77,2.65,0.8,4.52c0.08,5.94-0.19,13.5-0.23,20.84c-0.03,6.37,1.86,7.69,4.88,7.69c3.06,0,5.17-0.22,5.47-0.94" id="Ske31hr6y3x" kvg:type="㇟a" transform="matrix(1,0,0,1,1196,-4)" xmlns:kvg="http://kanjivg.tagaini.net"></path><path class="stroke_order_diagram--existing_path" d="M14.69,70.51c3.27,0,26.2-1.69,29.89-1.69" id="Ske31hr6y3y" kvg:type="㇐a" transform="matrix(1,0,0,1,1196,-4)" xmlns:kvg="http://kanjivg.tagaini.net"></path><path class="stroke_order_diagram--existing_path" d="M14.54,87.44c6.65-0.53,21.75-1.45,30.03-1.9" id="Ske31hr6y3z" kvg:type="㇐a" transform="matrix(1,0,0,1,1196,-4)" xmlns:kvg="http://kanjivg.tagaini.net"></path><path class="stroke_order_diagram--existing_path" d="M54.38,28.81c1,0.39,2.84,0.5,3.84,0.39c6.39-0.68,25-2.86,32.96-2.97c1.67-0.02,2.67,0.19,3.51,0.38" id="Ske31hr6y40" kvg:type="㇐" transform="matrix(1,0,0,1,1196,-4)" xmlns:kvg="http://kanjivg.tagaini.net"></path><path class="stroke_order_diagram--existing_path" d="M61.91,15.13c1,0.55,1.6,2.48,1.8,3.58c0.2,1.1,0.39,17.89,1.08,28.35" id="Ske31hr6y41" kvg:type="㇑" transform="matrix(1,0,0,1,1196,-4)" xmlns:kvg="http://kanjivg.tagaini.net"></path><path class="stroke_order_diagram--existing_path" d="M80.84,12.75c0.8,0.51,1.28,2.3,1.44,3.33c0.16,1.02-1.53,19.17-1.69,30.43" id="Ske31hr6y42" kvg:type="㇑" transform="matrix(1,0,0,1,1196,-4)" xmlns:kvg="http://kanjivg.tagaini.net"></path><path class="stroke_order_diagram--existing_path" d="M51.22,48.3c1.3,0.49,3.68,0.5,5,0.49c10.29-0.04,28.04-3.04,38.51-3.2c2.17-0.03,3.48,0.23,4.56,0.48" id="Ske31hr6y43" kvg:type="㇐" transform="matrix(1,0,0,1,1196,-4)" xmlns:kvg="http://kanjivg.tagaini.net"></path><path class="stroke_order_diagram--existing_path" d="M59.08,58.58c0.36,0.87,1.13,2.35,1.13,3.5c0,1.16,0,26.43,0,34.17" id="Ske31hr6y44" kvg:type="㇑" transform="matrix(1,0,0,1,1196,-4)" xmlns:kvg="http://kanjivg.tagaini.net"></path><path class="stroke_order_diagram--current_path" d="M60.81,60.34c2.05-0.15,22.79-2.54,24.66-2.72c1.56-0.15,2.56,1.61,2.44,2.46c-0.24,1.74-1.48,34.61-1.48,35.47" id="kvg:0918b-s13" kvg:type="㇕a" transform="matrix(1,0,0,1,1196,-4)" xmlns:kvg="http://kanjivg.tagaini.net"></path><path class="stroke_order_diagram--current_path" d="M60.81,60.34c2.05-0.15,22.79-2.54,24.66-2.72c1.56-0.15,2.56,1.61,2.44,2.46c-0.24,1.74-1.48,34.61-1.48,35.47" id="Ske31hr6y46" kvg:type="㇕a" transform="matrix(1,0,0,1,1196,-4)" xmlns:kvg="http://kanjivg.tagaini.net"></path><circle class="stroke_order_diagram--path_start" cx="60.81" cy="60.34" r="4" transform="matrix(1,0,0,1,1196,-4)"></circle><line class="stroke_order_diagram--guide_line" x1="1350" x2="1350" y1="1" y2="99"></line><line class="stroke_order_diagram--bounding_box" x1="1399" x2="1399" y1="1" y2="99"></line><path class="stroke_order_diagram--existing_path" d="M10.24,20.14c0.63,0.41,3.81,1.01,4.46,0.95c6.66-0.58,24.25-2.29,27.05-2.57C43.34,18.37,45,18,46.5,18.38" id="Ske31hr6y49" kvg:type="㇐" transform="matrix(1,0,0,1,1296,-4)" xmlns:kvg="http://kanjivg.tagaini.net"></path><path class="stroke_order_diagram--existing_path" d="M13.47,34.84c0.43,0.74,0.59,2.52,0.59,3.51c0,0.99-0.14,51.41,0,52.39" id="Ske31hr6y4a" kvg:type="㇑" transform="matrix(1,0,0,1,1296,-4)" xmlns:kvg="http://kanjivg.tagaini.net"></path><path class="stroke_order_diagram--existing_path" d="M14.26,36.88c2.41-0.12,24.79-2.28,26.98-2.59c2.27-0.32,4.15,1.19,4.15,3.98c0,1.56-0.35,50.65-0.35,51.39" id="Ske31hr6y4b" kvg:type="㇕a" transform="matrix(1,0,0,1,1296,-4)" xmlns:kvg="http://kanjivg.tagaini.net"></path><path class="stroke_order_diagram--existing_path" d="M23.94,23.22c0.67,1.18,1.08,2.8,0.98,4.42c-0.9,14.98-2.76,23.7-6.75,30.95" id="Ske31hr6y4c" kvg:type="㇒" transform="matrix(1,0,0,1,1296,-4)" xmlns:kvg="http://kanjivg.tagaini.net"></path><path class="stroke_order_diagram--existing_path" d="M32.71,22.04c0.43,1.21,0.77,2.65,0.8,4.52c0.08,5.94-0.19,13.5-0.23,20.84c-0.03,6.37,1.86,7.69,4.88,7.69c3.06,0,5.17-0.22,5.47-0.94" id="Ske31hr6y4d" kvg:type="㇟a" transform="matrix(1,0,0,1,1296,-4)" xmlns:kvg="http://kanjivg.tagaini.net"></path><path class="stroke_order_diagram--existing_path" d="M14.69,70.51c3.27,0,26.2-1.69,29.89-1.69" id="Ske31hr6y4e" kvg:type="㇐a" transform="matrix(1,0,0,1,1296,-4)" xmlns:kvg="http://kanjivg.tagaini.net"></path><path class="stroke_order_diagram--existing_path" d="M14.54,87.44c6.65-0.53,21.75-1.45,30.03-1.9" id="Ske31hr6y4f" kvg:type="㇐a" transform="matrix(1,0,0,1,1296,-4)" xmlns:kvg="http://kanjivg.tagaini.net"></path><path class="stroke_order_diagram--existing_path" d="M54.38,28.81c1,0.39,2.84,0.5,3.84,0.39c6.39-0.68,25-2.86,32.96-2.97c1.67-0.02,2.67,0.19,3.51,0.38" id="Ske31hr6y4g" kvg:type="㇐" transform="matrix(1,0,0,1,1296,-4)" xmlns:kvg="http://kanjivg.tagaini.net"></path><path class="stroke_order_diagram--existing_path" d="M61.91,15.13c1,0.55,1.6,2.48,1.8,3.58c0.2,1.1,0.39,17.89,1.08,28.35" id="Ske31hr6y4h" kvg:type="㇑" transform="matrix(1,0,0,1,1296,-4)" xmlns:kvg="http://kanjivg.tagaini.net"></path><path class="stroke_order_diagram--existing_path" d="M80.84,12.75c0.8,0.51,1.28,2.3,1.44,3.33c0.16,1.02-1.53,19.17-1.69,30.43" id="Ske31hr6y4i" kvg:type="㇑" transform="matrix(1,0,0,1,1296,-4)" xmlns:kvg="http://kanjivg.tagaini.net"></path><path class="stroke_order_diagram--existing_path" d="M51.22,48.3c1.3,0.49,3.68,0.5,5,0.49c10.29-0.04,28.04-3.04,38.51-3.2c2.17-0.03,3.48,0.23,4.56,0.48" id="Ske31hr6y4j" kvg:type="㇐" transform="matrix(1,0,0,1,1296,-4)" xmlns:kvg="http://kanjivg.tagaini.net"></path><path class="stroke_order_diagram--existing_path" d="M59.08,58.58c0.36,0.87,1.13,2.35,1.13,3.5c0,1.16,0,26.43,0,34.17" id="Ske31hr6y4k" kvg:type="㇑" transform="matrix(1,0,0,1,1296,-4)" xmlns:kvg="http://kanjivg.tagaini.net"></path><path class="stroke_order_diagram--existing_path" d="M60.81,60.34c2.05-0.15,22.79-2.54,24.66-2.72c1.56-0.15,2.56,1.61,2.44,2.46c-0.24,1.74-1.48,34.61-1.48,35.47" id="Ske31hr6y4l" kvg:type="㇕a" transform="matrix(1,0,0,1,1296,-4)" xmlns:kvg="http://kanjivg.tagaini.net"></path><path class="stroke_order_diagram--current_path" d="M60.68,75.52c2.78,0,22.77-2.14,25.91-2.14" id="kvg:0918b-s14" kvg:type="㇐a" transform="matrix(1,0,0,1,1296,-4)" xmlns:kvg="http://kanjivg.tagaini.net"></path><path class="stroke_order_diagram--current_path" d="M60.68,75.52c2.78,0,22.77-2.14,25.91-2.14" id="Ske31hr6y4n" kvg:type="㇐a" transform="matrix(1,0,0,1,1296,-4)" xmlns:kvg="http://kanjivg.tagaini.net"></path><circle class="stroke_order_diagram--path_start" cx="60.68" cy="75.52" r="4" transform="matrix(1,0,0,1,1296,-4)"></circle><line class="stroke_order_diagram--guide_line" x1="1450" x2="1450" y1="1" y2="99"></line><line class="stroke_order_diagram--bounding_box" x1="1499" x2="1499" y1="1" y2="99"></line><path class="stroke_order_diagram--existing_path" d="M10.24,20.14c0.63,0.41,3.81,1.01,4.46,0.95c6.66-0.58,24.25-2.29,27.05-2.57C43.34,18.37,45,18,46.5,18.38" id="Ske31hr6y4q" kvg:type="㇐" transform="matrix(1,0,0,1,1396,-4)" xmlns:kvg="http://kanjivg.tagaini.net"></path><path class="stroke_order_diagram--existing_path" d="M13.47,34.84c0.43,0.74,0.59,2.52,0.59,3.51c0,0.99-0.14,51.41,0,52.39" id="Ske31hr6y4r" kvg:type="㇑" transform="matrix(1,0,0,1,1396,-4)" xmlns:kvg="http://kanjivg.tagaini.net"></path><path class="stroke_order_diagram--existing_path" d="M14.26,36.88c2.41-0.12,24.79-2.28,26.98-2.59c2.27-0.32,4.15,1.19,4.15,3.98c0,1.56-0.35,50.65-0.35,51.39" id="Ske31hr6y4s" kvg:type="㇕a" transform="matrix(1,0,0,1,1396,-4)" xmlns:kvg="http://kanjivg.tagaini.net"></path><path class="stroke_order_diagram--existing_path" d="M23.94,23.22c0.67,1.18,1.08,2.8,0.98,4.42c-0.9,14.98-2.76,23.7-6.75,30.95" id="Ske31hr6y4t" kvg:type="㇒" transform="matrix(1,0,0,1,1396,-4)" xmlns:kvg="http://kanjivg.tagaini.net"></path><path class="stroke_order_diagram--existing_path" d="M32.71,22.04c0.43,1.21,0.77,2.65,0.8,4.52c0.08,5.94-0.19,13.5-0.23,20.84c-0.03,6.37,1.86,7.69,4.88,7.69c3.06,0,5.17-0.22,5.47-0.94" id="Ske31hr6y4u" kvg:type="㇟a" transform="matrix(1,0,0,1,1396,-4)" xmlns:kvg="http://kanjivg.tagaini.net"></path><path class="stroke_order_diagram--existing_path" d="M14.69,70.51c3.27,0,26.2-1.69,29.89-1.69" id="Ske31hr6y4v" kvg:type="㇐a" transform="matrix(1,0,0,1,1396,-4)" xmlns:kvg="http://kanjivg.tagaini.net"></path><path class="stroke_order_diagram--existing_path" d="M14.54,87.44c6.65-0.53,21.75-1.45,30.03-1.9" id="Ske31hr6y4w" kvg:type="㇐a" transform="matrix(1,0,0,1,1396,-4)" xmlns:kvg="http://kanjivg.tagaini.net"></path><path class="stroke_order_diagram--existing_path" d="M54.38,28.81c1,0.39,2.84,0.5,3.84,0.39c6.39-0.68,25-2.86,32.96-2.97c1.67-0.02,2.67,0.19,3.51,0.38" id="Ske31hr6y4x" kvg:type="㇐" transform="matrix(1,0,0,1,1396,-4)" xmlns:kvg="http://kanjivg.tagaini.net"></path><path class="stroke_order_diagram--existing_path" d="M61.91,15.13c1,0.55,1.6,2.48,1.8,3.58c0.2,1.1,0.39,17.89,1.08,28.35" id="Ske31hr6y4y" kvg:type="㇑" transform="matrix(1,0,0,1,1396,-4)" xmlns:kvg="http://kanjivg.tagaini.net"></path><path class="stroke_order_diagram--existing_path" d="M80.84,12.75c0.8,0.51,1.28,2.3,1.44,3.33c0.16,1.02-1.53,19.17-1.69,30.43" id="Ske31hr6y4z" kvg:type="㇑" transform="matrix(1,0,0,1,1396,-4)" xmlns:kvg="http://kanjivg.tagaini.net"></path><path class="stroke_order_diagram--existing_path" d="M51.22,48.3c1.3,0.49,3.68,0.5,5,0.49c10.29-0.04,28.04-3.04,38.51-3.2c2.17-0.03,3.48,0.23,4.56,0.48" id="Ske31hr6y50" kvg:type="㇐" transform="matrix(1,0,0,1,1396,-4)" xmlns:kvg="http://kanjivg.tagaini.net"></path><path class="stroke_order_diagram--existing_path" d="M59.08,58.58c0.36,0.87,1.13,2.35,1.13,3.5c0,1.16,0,26.43,0,34.17" id="Ske31hr6y51" kvg:type="㇑" transform="matrix(1,0,0,1,1396,-4)" xmlns:kvg="http://kanjivg.tagaini.net"></path><path class="stroke_order_diagram--existing_path" d="M60.81,60.34c2.05-0.15,22.79-2.54,24.66-2.72c1.56-0.15,2.56,1.61,2.44,2.46c-0.24,1.74-1.48,34.61-1.48,35.47" id="Ske31hr6y52" kvg:type="㇕a" transform="matrix(1,0,0,1,1396,-4)" xmlns:kvg="http://kanjivg.tagaini.net"></path><path class="stroke_order_diagram--existing_path" d="M60.68,75.52c2.78,0,22.77-2.14,25.91-2.14" id="Ske31hr6y53" kvg:type="㇐a" transform="matrix(1,0,0,1,1396,-4)" xmlns:kvg="http://kanjivg.tagaini.net"></path><path class="stroke_order_diagram--current_path" d="M61.05,93.49c5.65-0.62,17.49-1.24,24.53-1.78" id="kvg:0918b-s15" kvg:type="㇐a" transform="matrix(1,0,0,1,1396,-4)" xmlns:kvg="http://kanjivg.tagaini.net"></path><path class="stroke_order_diagram--current_path" d="M61.05,93.49c5.65-0.62,17.49-1.24,24.53-1.78" id="Ske31hr6y55" kvg:type="㇐a" transform="matrix(1,0,0,1,1396,-4)" xmlns:kvg="http://kanjivg.tagaini.net"></path><circle class="stroke_order_diagram--path_start" cx="61.05" cy="93.49" r="4" transform="matrix(1,0,0,1,1396,-4)"></circle></svg>