<svg class="stroke_order_diagram--svg_container_for_518662c1d5dda796580016e9" style="height: 100px; width: 1300px;" viewbox="0 0 1300 100"><desc>Created with Snap</desc><defs></defs><line class="stroke_order_diagram--bounding_box" x1="1" x2="1299" y1="1" y2="1"></line><line class="stroke_order_diagram--bounding_box" x1="1" x2="1" y1="1" y2="99"></line><line class="stroke_order_diagram--bounding_box" x1="1" x2="1299" y1="99" y2="99"></line><line class="stroke_order_diagram--guide_line" x1="0" x2="1300" y1="50" y2="50"></line><line class="stroke_order_diagram--guide_line" x1="50" x2="50" y1="1" y2="99"></line><line class="stroke_order_diagram--bounding_box" x1="99" x2="99" y1="1" y2="99"></line><path class="stroke_order_diagram--current_path" d="M31.75,13.24c0,0.85,0.05,1.54-0.16,2.56c-1.12,5.34-11.76,23.17-20.87,31.07" id="kvg:0924b-s1" kvg:type="㇒" transform="matrix(1,0,0,1,-4,-4)" xmlns:kvg="http://kanjivg.tagaini.net"></path><path class="stroke_order_diagram--current_path" d="M31.75,13.24c0,0.85,0.05,1.54-0.16,2.56c-1.12,5.34-11.76,23.17-20.87,31.07" id="Ske31t29mm" kvg:type="㇒" transform="matrix(1,0,0,1,-4,-4)" xmlns:kvg="http://kanjivg.tagaini.net"></path><circle class="stroke_order_diagram--path_start" cx="31.75" cy="13.24" r="4" transform="matrix(1,0,0,1,-4,-4)"></circle><line class="stroke_order_diagram--guide_line" x1="150" x2="150" y1="1" y2="99"></line><line class="stroke_order_diagram--bounding_box" x1="199" x2="199" y1="1" y2="99"></line><path class="stroke_order_diagram--existing_path" d="M31.75,13.24c0,0.85,0.05,1.54-0.16,2.56c-1.12,5.34-11.76,23.17-20.87,31.07" id="Ske31t29mp" kvg:type="㇒" transform="matrix(1,0,0,1,96,-4)" xmlns:kvg="http://kanjivg.tagaini.net"></path><path class="stroke_order_diagram--current_path" d="M33.89,20.46c4.47,2.03,10.18,7.42,12.36,12.54" id="kvg:0924b-s2" kvg:type="㇔/㇏" transform="matrix(1,0,0,1,96,-4)" xmlns:kvg="http://kanjivg.tagaini.net"></path><path class="stroke_order_diagram--current_path" d="M33.89,20.46c4.47,2.03,10.18,7.42,12.36,12.54" id="Ske31t29mr" kvg:type="㇔/㇏" transform="matrix(1,0,0,1,96,-4)" xmlns:kvg="http://kanjivg.tagaini.net"></path><circle class="stroke_order_diagram--path_start" cx="33.89" cy="20.46" r="4" transform="matrix(1,0,0,1,96,-4)"></circle><line class="stroke_order_diagram--guide_line" x1="250" x2="250" y1="1" y2="99"></line><line class="stroke_order_diagram--bounding_box" x1="299" x2="299" y1="1" y2="99"></line><path class="stroke_order_diagram--existing_path" d="M31.75,13.24c0,0.85,0.05,1.54-0.16,2.56c-1.12,5.34-11.76,23.17-20.87,31.07" id="Ske31t29mu" kvg:type="㇒" transform="matrix(1,0,0,1,196,-4)" xmlns:kvg="http://kanjivg.tagaini.net"></path><path class="stroke_order_diagram--existing_path" d="M33.89,20.46c4.47,2.03,10.18,7.42,12.36,12.54" id="Ske31t29mv" kvg:type="㇔/㇏" transform="matrix(1,0,0,1,196,-4)" xmlns:kvg="http://kanjivg.tagaini.net"></path><path class="stroke_order_diagram--current_path" d="M21,41.5c1.71,0,2.49,0.09,3.05,0.06c4.95-0.31,10.67-1.53,16.5-1.75c0.84-0.03,1.02-0.05,2.45-0.05" id="kvg:0924b-s3" kvg:type="㇐" transform="matrix(1,0,0,1,196,-4)" xmlns:kvg="http://kanjivg.tagaini.net"></path><path class="stroke_order_diagram--current_path" d="M21,41.5c1.71,0,2.49,0.09,3.05,0.06c4.95-0.31,10.67-1.53,16.5-1.75c0.84-0.03,1.02-0.05,2.45-0.05" id="Ske31t29mx" kvg:type="㇐" transform="matrix(1,0,0,1,196,-4)" xmlns:kvg="http://kanjivg.tagaini.net"></path><circle class="stroke_order_diagram--path_start" cx="21" cy="41.5" r="4" transform="matrix(1,0,0,1,196,-4)"></circle><line class="stroke_order_diagram--guide_line" x1="350" x2="350" y1="1" y2="99"></line><line class="stroke_order_diagram--bounding_box" x1="399" x2="399" y1="1" y2="99"></line><path class="stroke_order_diagram--existing_path" d="M31.75,13.24c0,0.85,0.05,1.54-0.16,2.56c-1.12,5.34-11.76,23.17-20.87,31.07" id="Ske31t29m10" kvg:type="㇒" transform="matrix(1,0,0,1,296,-4)" xmlns:kvg="http://kanjivg.tagaini.net"></path><path class="stroke_order_diagram--existing_path" d="M33.89,20.46c4.47,2.03,10.18,7.42,12.36,12.54" id="Ske31t29m11" kvg:type="㇔/㇏" transform="matrix(1,0,0,1,296,-4)" xmlns:kvg="http://kanjivg.tagaini.net"></path><path class="stroke_order_diagram--existing_path" d="M21,41.5c1.71,0,2.49,0.09,3.05,0.06c4.95-0.31,10.67-1.53,16.5-1.75c0.84-0.03,1.02-0.05,2.45-0.05" id="Ske31t29m12" kvg:type="㇐" transform="matrix(1,0,0,1,296,-4)" xmlns:kvg="http://kanjivg.tagaini.net"></path><path class="stroke_order_diagram--current_path" d="M13.59,55.81c0.66,0.33,2.84,0.48,3.52,0.43c6.1-0.49,17.48-2.49,25.29-2.67c0.83-0.02,2.64-0.13,3.87,0.15" id="kvg:0924b-s4" kvg:type="㇐" transform="matrix(1,0,0,1,296,-4)" xmlns:kvg="http://kanjivg.tagaini.net"></path><path class="stroke_order_diagram--current_path" d="M13.59,55.81c0.66,0.33,2.84,0.48,3.52,0.43c6.1-0.49,17.48-2.49,25.29-2.67c0.83-0.02,2.64-0.13,3.87,0.15" id="Ske31t29m14" kvg:type="㇐" transform="matrix(1,0,0,1,296,-4)" xmlns:kvg="http://kanjivg.tagaini.net"></path><circle class="stroke_order_diagram--path_start" cx="13.59" cy="55.81" r="4" transform="matrix(1,0,0,1,296,-4)"></circle><line class="stroke_order_diagram--guide_line" x1="450" x2="450" y1="1" y2="99"></line><line class="stroke_order_diagram--bounding_box" x1="499" x2="499" y1="1" y2="99"></line><path class="stroke_order_diagram--existing_path" d="M31.75,13.24c0,0.85,0.05,1.54-0.16,2.56c-1.12,5.34-11.76,23.17-20.87,31.07" id="Ske31t29m17" kvg:type="㇒" transform="matrix(1,0,0,1,396,-4)" xmlns:kvg="http://kanjivg.tagaini.net"></path><path class="stroke_order_diagram--existing_path" d="M33.89,20.46c4.47,2.03,10.18,7.42,12.36,12.54" id="Ske31t29m18" kvg:type="㇔/㇏" transform="matrix(1,0,0,1,396,-4)" xmlns:kvg="http://kanjivg.tagaini.net"></path><path class="stroke_order_diagram--existing_path" d="M21,41.5c1.71,0,2.49,0.09,3.05,0.06c4.95-0.31,10.67-1.53,16.5-1.75c0.84-0.03,1.02-0.05,2.45-0.05" id="Ske31t29m19" kvg:type="㇐" transform="matrix(1,0,0,1,396,-4)" xmlns:kvg="http://kanjivg.tagaini.net"></path><path class="stroke_order_diagram--existing_path" d="M13.59,55.81c0.66,0.33,2.84,0.48,3.52,0.43c6.1-0.49,17.48-2.49,25.29-2.67c0.83-0.02,2.64-0.13,3.87,0.15" id="Ske31t29m1a" kvg:type="㇐" transform="matrix(1,0,0,1,396,-4)" xmlns:kvg="http://kanjivg.tagaini.net"></path><path class="stroke_order_diagram--current_path" d="M29.95,43.19c1.24,0.78,1.24,2.52,1.24,3.14c0,4.35,0.62,32.63,0.31,36.98" id="kvg:0924b-s5" kvg:type="㇑a" transform="matrix(1,0,0,1,396,-4)" xmlns:kvg="http://kanjivg.tagaini.net"></path><path class="stroke_order_diagram--current_path" d="M29.95,43.19c1.24,0.78,1.24,2.52,1.24,3.14c0,4.35,0.62,32.63,0.31,36.98" id="Ske31t29m1c" kvg:type="㇑a" transform="matrix(1,0,0,1,396,-4)" xmlns:kvg="http://kanjivg.tagaini.net"></path><circle class="stroke_order_diagram--path_start" cx="29.95" cy="43.19" r="4" transform="matrix(1,0,0,1,396,-4)"></circle><line class="stroke_order_diagram--guide_line" x1="550" x2="550" y1="1" y2="99"></line><line class="stroke_order_diagram--bounding_box" x1="599" x2="599" y1="1" y2="99"></line><path class="stroke_order_diagram--existing_path" d="M31.75,13.24c0,0.85,0.05,1.54-0.16,2.56c-1.12,5.34-11.76,23.17-20.87,31.07" id="Ske31t29m1f" kvg:type="㇒" transform="matrix(1,0,0,1,496,-4)" xmlns:kvg="http://kanjivg.tagaini.net"></path><path class="stroke_order_diagram--existing_path" d="M33.89,20.46c4.47,2.03,10.18,7.42,12.36,12.54" id="Ske31t29m1g" kvg:type="㇔/㇏" transform="matrix(1,0,0,1,496,-4)" xmlns:kvg="http://kanjivg.tagaini.net"></path><path class="stroke_order_diagram--existing_path" d="M21,41.5c1.71,0,2.49,0.09,3.05,0.06c4.95-0.31,10.67-1.53,16.5-1.75c0.84-0.03,1.02-0.05,2.45-0.05" id="Ske31t29m1h" kvg:type="㇐" transform="matrix(1,0,0,1,496,-4)" xmlns:kvg="http://kanjivg.tagaini.net"></path><path class="stroke_order_diagram--existing_path" d="M13.59,55.81c0.66,0.33,2.84,0.48,3.52,0.43c6.1-0.49,17.48-2.49,25.29-2.67c0.83-0.02,2.64-0.13,3.87,0.15" id="Ske31t29m1i" kvg:type="㇐" transform="matrix(1,0,0,1,496,-4)" xmlns:kvg="http://kanjivg.tagaini.net"></path><path class="stroke_order_diagram--existing_path" d="M29.95,43.19c1.24,0.78,1.24,2.52,1.24,3.14c0,4.35,0.62,32.63,0.31,36.98" id="Ske31t29m1j" kvg:type="㇑a" transform="matrix(1,0,0,1,496,-4)" xmlns:kvg="http://kanjivg.tagaini.net"></path><path class="stroke_order_diagram--current_path" d="M15.39,66.26c4.08,4.85,6.07,10.11,6.9,12.94" id="kvg:0924b-s6" kvg:type="㇔" transform="matrix(1,0,0,1,496,-4)" xmlns:kvg="http://kanjivg.tagaini.net"></path><path class="stroke_order_diagram--current_path" d="M15.39,66.26c4.08,4.85,6.07,10.11,6.9,12.94" id="Ske31t29m1l" kvg:type="㇔" transform="matrix(1,0,0,1,496,-4)" xmlns:kvg="http://kanjivg.tagaini.net"></path><circle class="stroke_order_diagram--path_start" cx="15.39" cy="66.26" r="4" transform="matrix(1,0,0,1,496,-4)"></circle><line class="stroke_order_diagram--guide_line" x1="650" x2="650" y1="1" y2="99"></line><line class="stroke_order_diagram--bounding_box" x1="699" x2="699" y1="1" y2="99"></line><path class="stroke_order_diagram--existing_path" d="M31.75,13.24c0,0.85,0.05,1.54-0.16,2.56c-1.12,5.34-11.76,23.17-20.87,31.07" id="Ske31t29m1o" kvg:type="㇒" transform="matrix(1,0,0,1,596,-4)" xmlns:kvg="http://kanjivg.tagaini.net"></path><path class="stroke_order_diagram--existing_path" d="M33.89,20.46c4.47,2.03,10.18,7.42,12.36,12.54" id="Ske31t29m1p" kvg:type="㇔/㇏" transform="matrix(1,0,0,1,596,-4)" xmlns:kvg="http://kanjivg.tagaini.net"></path><path class="stroke_order_diagram--existing_path" d="M21,41.5c1.71,0,2.49,0.09,3.05,0.06c4.95-0.31,10.67-1.53,16.5-1.75c0.84-0.03,1.02-0.05,2.45-0.05" id="Ske31t29m1q" kvg:type="㇐" transform="matrix(1,0,0,1,596,-4)" xmlns:kvg="http://kanjivg.tagaini.net"></path><path class="stroke_order_diagram--existing_path" d="M13.59,55.81c0.66,0.33,2.84,0.48,3.52,0.43c6.1-0.49,17.48-2.49,25.29-2.67c0.83-0.02,2.64-0.13,3.87,0.15" id="Ske31t29m1r" kvg:type="㇐" transform="matrix(1,0,0,1,596,-4)" xmlns:kvg="http://kanjivg.tagaini.net"></path><path class="stroke_order_diagram--existing_path" d="M29.95,43.19c1.24,0.78,1.24,2.52,1.24,3.14c0,4.35,0.62,32.63,0.31,36.98" id="Ske31t29m1s" kvg:type="㇑a" transform="matrix(1,0,0,1,596,-4)" xmlns:kvg="http://kanjivg.tagaini.net"></path><path class="stroke_order_diagram--existing_path" d="M15.39,66.26c4.08,4.85,6.07,10.11,6.9,12.94" id="Ske31t29m1t" kvg:type="㇔" transform="matrix(1,0,0,1,596,-4)" xmlns:kvg="http://kanjivg.tagaini.net"></path><path class="stroke_order_diagram--current_path" d="M45.14,61.55c0.35,0.84,0.54,2.06,0.4,2.76c-0.35,1.81-3.15,5.13-7.12,10.47" id="kvg:0924b-s7" kvg:type="㇒" transform="matrix(1,0,0,1,596,-4)" xmlns:kvg="http://kanjivg.tagaini.net"></path><path class="stroke_order_diagram--current_path" d="M45.14,61.55c0.35,0.84,0.54,2.06,0.4,2.76c-0.35,1.81-3.15,5.13-7.12,10.47" id="Ske31t29m1v" kvg:type="㇒" transform="matrix(1,0,0,1,596,-4)" xmlns:kvg="http://kanjivg.tagaini.net"></path><circle class="stroke_order_diagram--path_start" cx="45.14" cy="61.55" r="4" transform="matrix(1,0,0,1,596,-4)"></circle><line class="stroke_order_diagram--guide_line" x1="750" x2="750" y1="1" y2="99"></line><line class="stroke_order_diagram--bounding_box" x1="799" x2="799" y1="1" y2="99"></line><path class="stroke_order_diagram--existing_path" d="M31.75,13.24c0,0.85,0.05,1.54-0.16,2.56c-1.12,5.34-11.76,23.17-20.87,31.07" id="Ske31t29m1y" kvg:type="㇒" transform="matrix(1,0,0,1,696,-4)" xmlns:kvg="http://kanjivg.tagaini.net"></path><path class="stroke_order_diagram--existing_path" d="M33.89,20.46c4.47,2.03,10.18,7.42,12.36,12.54" id="Ske31t29m1z" kvg:type="㇔/㇏" transform="matrix(1,0,0,1,696,-4)" xmlns:kvg="http://kanjivg.tagaini.net"></path><path class="stroke_order_diagram--existing_path" d="M21,41.5c1.71,0,2.49,0.09,3.05,0.06c4.95-0.31,10.67-1.53,16.5-1.75c0.84-0.03,1.02-0.05,2.45-0.05" id="Ske31t29m20" kvg:type="㇐" transform="matrix(1,0,0,1,696,-4)" xmlns:kvg="http://kanjivg.tagaini.net"></path><path class="stroke_order_diagram--existing_path" d="M13.59,55.81c0.66,0.33,2.84,0.48,3.52,0.43c6.1-0.49,17.48-2.49,25.29-2.67c0.83-0.02,2.64-0.13,3.87,0.15" id="Ske31t29m21" kvg:type="㇐" transform="matrix(1,0,0,1,696,-4)" xmlns:kvg="http://kanjivg.tagaini.net"></path><path class="stroke_order_diagram--existing_path" d="M29.95,43.19c1.24,0.78,1.24,2.52,1.24,3.14c0,4.35,0.62,32.63,0.31,36.98" id="Ske31t29m22" kvg:type="㇑a" transform="matrix(1,0,0,1,696,-4)" xmlns:kvg="http://kanjivg.tagaini.net"></path><path class="stroke_order_diagram--existing_path" d="M15.39,66.26c4.08,4.85,6.07,10.11,6.9,12.94" id="Ske31t29m23" kvg:type="㇔" transform="matrix(1,0,0,1,696,-4)" xmlns:kvg="http://kanjivg.tagaini.net"></path><path class="stroke_order_diagram--existing_path" d="M45.14,61.55c0.35,0.84,0.54,2.06,0.4,2.76c-0.35,1.81-3.15,5.13-7.12,10.47" id="Ske31t29m24" kvg:type="㇒" transform="matrix(1,0,0,1,696,-4)" xmlns:kvg="http://kanjivg.tagaini.net"></path><path class="stroke_order_diagram--current_path" d="M13.5,89.83c1.25,1.92,2.87,1.43,4.54,0.72c4.21-1.8,11.35-5.04,24.46-10.3" id="kvg:0924b-s8" kvg:type="㇀/㇐" transform="matrix(1,0,0,1,696,-4)" xmlns:kvg="http://kanjivg.tagaini.net"></path><path class="stroke_order_diagram--current_path" d="M13.5,89.83c1.25,1.92,2.87,1.43,4.54,0.72c4.21-1.8,11.35-5.04,24.46-10.3" id="Ske31t29m26" kvg:type="㇀/㇐" transform="matrix(1,0,0,1,696,-4)" xmlns:kvg="http://kanjivg.tagaini.net"></path><circle class="stroke_order_diagram--path_start" cx="13.5" cy="89.83" r="4" transform="matrix(1,0,0,1,696,-4)"></circle><line class="stroke_order_diagram--guide_line" x1="850" x2="850" y1="1" y2="99"></line><line class="stroke_order_diagram--bounding_box" x1="899" x2="899" y1="1" y2="99"></line><path class="stroke_order_diagram--existing_path" d="M31.75,13.24c0,0.85,0.05,1.54-0.16,2.56c-1.12,5.34-11.76,23.17-20.87,31.07" id="Ske31t29m29" kvg:type="㇒" transform="matrix(1,0,0,1,796,-4)" xmlns:kvg="http://kanjivg.tagaini.net"></path><path class="stroke_order_diagram--existing_path" d="M33.89,20.46c4.47,2.03,10.18,7.42,12.36,12.54" id="Ske31t29m2a" kvg:type="㇔/㇏" transform="matrix(1,0,0,1,796,-4)" xmlns:kvg="http://kanjivg.tagaini.net"></path><path class="stroke_order_diagram--existing_path" d="M21,41.5c1.71,0,2.49,0.09,3.05,0.06c4.95-0.31,10.67-1.53,16.5-1.75c0.84-0.03,1.02-0.05,2.45-0.05" id="Ske31t29m2b" kvg:type="㇐" transform="matrix(1,0,0,1,796,-4)" xmlns:kvg="http://kanjivg.tagaini.net"></path><path class="stroke_order_diagram--existing_path" d="M13.59,55.81c0.66,0.33,2.84,0.48,3.52,0.43c6.1-0.49,17.48-2.49,25.29-2.67c0.83-0.02,2.64-0.13,3.87,0.15" id="Ske31t29m2c" kvg:type="㇐" transform="matrix(1,0,0,1,796,-4)" xmlns:kvg="http://kanjivg.tagaini.net"></path><path class="stroke_order_diagram--existing_path" d="M29.95,43.19c1.24,0.78,1.24,2.52,1.24,3.14c0,4.35,0.62,32.63,0.31,36.98" id="Ske31t29m2d" kvg:type="㇑a" transform="matrix(1,0,0,1,796,-4)" xmlns:kvg="http://kanjivg.tagaini.net"></path><path class="stroke_order_diagram--existing_path" d="M15.39,66.26c4.08,4.85,6.07,10.11,6.9,12.94" id="Ske31t29m2e" kvg:type="㇔" transform="matrix(1,0,0,1,796,-4)" xmlns:kvg="http://kanjivg.tagaini.net"></path><path class="stroke_order_diagram--existing_path" d="M45.14,61.55c0.35,0.84,0.54,2.06,0.4,2.76c-0.35,1.81-3.15,5.13-7.12,10.47" id="Ske31t29m2f" kvg:type="㇒" transform="matrix(1,0,0,1,796,-4)" xmlns:kvg="http://kanjivg.tagaini.net"></path><path class="stroke_order_diagram--existing_path" d="M13.5,89.83c1.25,1.92,2.87,1.43,4.54,0.72c4.21-1.8,11.35-5.04,24.46-10.3" id="Ske31t29m2g" kvg:type="㇀/㇐" transform="matrix(1,0,0,1,796,-4)" xmlns:kvg="http://kanjivg.tagaini.net"></path><path class="stroke_order_diagram--current_path" d="M63.11,13.5c0.05,0.74,0.25,1.96-0.09,2.96c-2.2,6.52-5.19,16.26-13.41,25.77" id="kvg:0924b-s9" kvg:type="㇒" transform="matrix(1,0,0,1,796,-4)" xmlns:kvg="http://kanjivg.tagaini.net"></path><path class="stroke_order_diagram--current_path" d="M63.11,13.5c0.05,0.74,0.25,1.96-0.09,2.96c-2.2,6.52-5.19,16.26-13.41,25.77" id="Ske31t29m2i" kvg:type="㇒" transform="matrix(1,0,0,1,796,-4)" xmlns:kvg="http://kanjivg.tagaini.net"></path><circle class="stroke_order_diagram--path_start" cx="63.11" cy="13.5" r="4" transform="matrix(1,0,0,1,796,-4)"></circle><line class="stroke_order_diagram--guide_line" x1="950" x2="950" y1="1" y2="99"></line><line class="stroke_order_diagram--bounding_box" x1="999" x2="999" y1="1" y2="99"></line><path class="stroke_order_diagram--existing_path" d="M31.75,13.24c0,0.85,0.05,1.54-0.16,2.56c-1.12,5.34-11.76,23.17-20.87,31.07" id="Ske31t29m2l" kvg:type="㇒" transform="matrix(1,0,0,1,896,-4)" xmlns:kvg="http://kanjivg.tagaini.net"></path><path class="stroke_order_diagram--existing_path" d="M33.89,20.46c4.47,2.03,10.18,7.42,12.36,12.54" id="Ske31t29m2m" kvg:type="㇔/㇏" transform="matrix(1,0,0,1,896,-4)" xmlns:kvg="http://kanjivg.tagaini.net"></path><path class="stroke_order_diagram--existing_path" d="M21,41.5c1.71,0,2.49,0.09,3.05,0.06c4.95-0.31,10.67-1.53,16.5-1.75c0.84-0.03,1.02-0.05,2.45-0.05" id="Ske31t29m2n" kvg:type="㇐" transform="matrix(1,0,0,1,896,-4)" xmlns:kvg="http://kanjivg.tagaini.net"></path><path class="stroke_order_diagram--existing_path" d="M13.59,55.81c0.66,0.33,2.84,0.48,3.52,0.43c6.1-0.49,17.48-2.49,25.29-2.67c0.83-0.02,2.64-0.13,3.87,0.15" id="Ske31t29m2o" kvg:type="㇐" transform="matrix(1,0,0,1,896,-4)" xmlns:kvg="http://kanjivg.tagaini.net"></path><path class="stroke_order_diagram--existing_path" d="M29.95,43.19c1.24,0.78,1.24,2.52,1.24,3.14c0,4.35,0.62,32.63,0.31,36.98" id="Ske31t29m2p" kvg:type="㇑a" transform="matrix(1,0,0,1,896,-4)" xmlns:kvg="http://kanjivg.tagaini.net"></path><path class="stroke_order_diagram--existing_path" d="M15.39,66.26c4.08,4.85,6.07,10.11,6.9,12.94" id="Ske31t29m2q" kvg:type="㇔" transform="matrix(1,0,0,1,896,-4)" xmlns:kvg="http://kanjivg.tagaini.net"></path><path class="stroke_order_diagram--existing_path" d="M45.14,61.55c0.35,0.84,0.54,2.06,0.4,2.76c-0.35,1.81-3.15,5.13-7.12,10.47" id="Ske31t29m2r" kvg:type="㇒" transform="matrix(1,0,0,1,896,-4)" xmlns:kvg="http://kanjivg.tagaini.net"></path><path class="stroke_order_diagram--existing_path" d="M13.5,89.83c1.25,1.92,2.87,1.43,4.54,0.72c4.21-1.8,11.35-5.04,24.46-10.3" id="Ske31t29m2s" kvg:type="㇀/㇐" transform="matrix(1,0,0,1,896,-4)" xmlns:kvg="http://kanjivg.tagaini.net"></path><path class="stroke_order_diagram--existing_path" d="M63.11,13.5c0.05,0.74,0.25,1.96-0.09,2.96c-2.2,6.52-5.19,16.26-13.41,25.77" id="Ske31t29m2t" kvg:type="㇒" transform="matrix(1,0,0,1,896,-4)" xmlns:kvg="http://kanjivg.tagaini.net"></path><path class="stroke_order_diagram--current_path" d="M61.99,27.68c0.98,0.61,2.35,0.82,3.92,0.41s17.09-2.78,20.99-3.14c1.85-0.17,3.95,1.12,3.87,3.41c-0.27,6.89-3.02,26.14-7.6,39.21c-1.44,4.11-3.96,1.53-6.27-1.02" id="kvg:0924b-s10" kvg:type="㇆" transform="matrix(1,0,0,1,896,-4)" xmlns:kvg="http://kanjivg.tagaini.net"></path><path class="stroke_order_diagram--current_path" d="M61.99,27.68c0.98,0.61,2.35,0.82,3.92,0.41s17.09-2.78,20.99-3.14c1.85-0.17,3.95,1.12,3.87,3.41c-0.27,6.89-3.02,26.14-7.6,39.21c-1.44,4.11-3.96,1.53-6.27-1.02" id="Ske31t29m2v" kvg:type="㇆" transform="matrix(1,0,0,1,896,-4)" xmlns:kvg="http://kanjivg.tagaini.net"></path><circle class="stroke_order_diagram--path_start" cx="61.99" cy="27.68" r="4" transform="matrix(1,0,0,1,896,-4)"></circle><line class="stroke_order_diagram--guide_line" x1="1050" x2="1050" y1="1" y2="99"></line><line class="stroke_order_diagram--bounding_box" x1="1099" x2="1099" y1="1" y2="99"></line><path class="stroke_order_diagram--existing_path" d="M31.75,13.24c0,0.85,0.05,1.54-0.16,2.56c-1.12,5.34-11.76,23.17-20.87,31.07" id="Ske31t29m2y" kvg:type="㇒" transform="matrix(1,0,0,1,996,-4)" xmlns:kvg="http://kanjivg.tagaini.net"></path><path class="stroke_order_diagram--existing_path" d="M33.89,20.46c4.47,2.03,10.18,7.42,12.36,12.54" id="Ske31t29m2z" kvg:type="㇔/㇏" transform="matrix(1,0,0,1,996,-4)" xmlns:kvg="http://kanjivg.tagaini.net"></path><path class="stroke_order_diagram--existing_path" d="M21,41.5c1.71,0,2.49,0.09,3.05,0.06c4.95-0.31,10.67-1.53,16.5-1.75c0.84-0.03,1.02-0.05,2.45-0.05" id="Ske31t29m30" kvg:type="㇐" transform="matrix(1,0,0,1,996,-4)" xmlns:kvg="http://kanjivg.tagaini.net"></path><path class="stroke_order_diagram--existing_path" d="M13.59,55.81c0.66,0.33,2.84,0.48,3.52,0.43c6.1-0.49,17.48-2.49,25.29-2.67c0.83-0.02,2.64-0.13,3.87,0.15" id="Ske31t29m31" kvg:type="㇐" transform="matrix(1,0,0,1,996,-4)" xmlns:kvg="http://kanjivg.tagaini.net"></path><path class="stroke_order_diagram--existing_path" d="M29.95,43.19c1.24,0.78,1.24,2.52,1.24,3.14c0,4.35,0.62,32.63,0.31,36.98" id="Ske31t29m32" kvg:type="㇑a" transform="matrix(1,0,0,1,996,-4)" xmlns:kvg="http://kanjivg.tagaini.net"></path><path class="stroke_order_diagram--existing_path" d="M15.39,66.26c4.08,4.85,6.07,10.11,6.9,12.94" id="Ske31t29m33" kvg:type="㇔" transform="matrix(1,0,0,1,996,-4)" xmlns:kvg="http://kanjivg.tagaini.net"></path><path class="stroke_order_diagram--existing_path" d="M45.14,61.55c0.35,0.84,0.54,2.06,0.4,2.76c-0.35,1.81-3.15,5.13-7.12,10.47" id="Ske31t29m34" kvg:type="㇒" transform="matrix(1,0,0,1,996,-4)" xmlns:kvg="http://kanjivg.tagaini.net"></path><path class="stroke_order_diagram--existing_path" d="M13.5,89.83c1.25,1.92,2.87,1.43,4.54,0.72c4.21-1.8,11.35-5.04,24.46-10.3" id="Ske31t29m35" kvg:type="㇀/㇐" transform="matrix(1,0,0,1,996,-4)" xmlns:kvg="http://kanjivg.tagaini.net"></path><path class="stroke_order_diagram--existing_path" d="M63.11,13.5c0.05,0.74,0.25,1.96-0.09,2.96c-2.2,6.52-5.19,16.26-13.41,25.77" id="Ske31t29m36" kvg:type="㇒" transform="matrix(1,0,0,1,996,-4)" xmlns:kvg="http://kanjivg.tagaini.net"></path><path class="stroke_order_diagram--existing_path" d="M61.99,27.68c0.98,0.61,2.35,0.82,3.92,0.41s17.09-2.78,20.99-3.14c1.85-0.17,3.95,1.12,3.87,3.41c-0.27,6.89-3.02,26.14-7.6,39.21c-1.44,4.11-3.96,1.53-6.27-1.02" id="Ske31t29m37" kvg:type="㇆" transform="matrix(1,0,0,1,996,-4)" xmlns:kvg="http://kanjivg.tagaini.net"></path><path class="stroke_order_diagram--current_path" d="M52.53,43.74c1.28,0.94,2.38,0.97,4.25,0.63c6.22-1.12,15.64-2.27,16.8-2.39c1.54-0.16,2.75,1.03,2.2,3.47C75.62,46.18,75,51,73.16,57.48" id="kvg:0924b-s11" kvg:type="㇕" transform="matrix(1,0,0,1,996,-4)" xmlns:kvg="http://kanjivg.tagaini.net"></path><path class="stroke_order_diagram--current_path" d="M52.53,43.74c1.28,0.94,2.38,0.97,4.25,0.63c6.22-1.12,15.64-2.27,16.8-2.39c1.54-0.16,2.75,1.03,2.2,3.47C75.62,46.18,75,51,73.16,57.48" id="Ske31t29m39" kvg:type="㇕" transform="matrix(1,0,0,1,996,-4)" xmlns:kvg="http://kanjivg.tagaini.net"></path><circle class="stroke_order_diagram--path_start" cx="52.53" cy="43.74" r="4" transform="matrix(1,0,0,1,996,-4)"></circle><line class="stroke_order_diagram--guide_line" x1="1150" x2="1150" y1="1" y2="99"></line><line class="stroke_order_diagram--bounding_box" x1="1199" x2="1199" y1="1" y2="99"></line><path class="stroke_order_diagram--existing_path" d="M31.75,13.24c0,0.85,0.05,1.54-0.16,2.56c-1.12,5.34-11.76,23.17-20.87,31.07" id="Ske31t29m3c" kvg:type="㇒" transform="matrix(1,0,0,1,1096,-4)" xmlns:kvg="http://kanjivg.tagaini.net"></path><path class="stroke_order_diagram--existing_path" d="M33.89,20.46c4.47,2.03,10.18,7.42,12.36,12.54" id="Ske31t29m3d" kvg:type="㇔/㇏" transform="matrix(1,0,0,1,1096,-4)" xmlns:kvg="http://kanjivg.tagaini.net"></path><path class="stroke_order_diagram--existing_path" d="M21,41.5c1.71,0,2.49,0.09,3.05,0.06c4.95-0.31,10.67-1.53,16.5-1.75c0.84-0.03,1.02-0.05,2.45-0.05" id="Ske31t29m3e" kvg:type="㇐" transform="matrix(1,0,0,1,1096,-4)" xmlns:kvg="http://kanjivg.tagaini.net"></path><path class="stroke_order_diagram--existing_path" d="M13.59,55.81c0.66,0.33,2.84,0.48,3.52,0.43c6.1-0.49,17.48-2.49,25.29-2.67c0.83-0.02,2.64-0.13,3.87,0.15" id="Ske31t29m3f" kvg:type="㇐" transform="matrix(1,0,0,1,1096,-4)" xmlns:kvg="http://kanjivg.tagaini.net"></path><path class="stroke_order_diagram--existing_path" d="M29.95,43.19c1.24,0.78,1.24,2.52,1.24,3.14c0,4.35,0.62,32.63,0.31,36.98" id="Ske31t29m3g" kvg:type="㇑a" transform="matrix(1,0,0,1,1096,-4)" xmlns:kvg="http://kanjivg.tagaini.net"></path><path class="stroke_order_diagram--existing_path" d="M15.39,66.26c4.08,4.85,6.07,10.11,6.9,12.94" id="Ske31t29m3h" kvg:type="㇔" transform="matrix(1,0,0,1,1096,-4)" xmlns:kvg="http://kanjivg.tagaini.net"></path><path class="stroke_order_diagram--existing_path" d="M45.14,61.55c0.35,0.84,0.54,2.06,0.4,2.76c-0.35,1.81-3.15,5.13-7.12,10.47" id="Ske31t29m3i" kvg:type="㇒" transform="matrix(1,0,0,1,1096,-4)" xmlns:kvg="http://kanjivg.tagaini.net"></path><path class="stroke_order_diagram--existing_path" d="M13.5,89.83c1.25,1.92,2.87,1.43,4.54,0.72c4.21-1.8,11.35-5.04,24.46-10.3" id="Ske31t29m3j" kvg:type="㇀/㇐" transform="matrix(1,0,0,1,1096,-4)" xmlns:kvg="http://kanjivg.tagaini.net"></path><path class="stroke_order_diagram--existing_path" d="M63.11,13.5c0.05,0.74,0.25,1.96-0.09,2.96c-2.2,6.52-5.19,16.26-13.41,25.77" id="Ske31t29m3k" kvg:type="㇒" transform="matrix(1,0,0,1,1096,-4)" xmlns:kvg="http://kanjivg.tagaini.net"></path><path class="stroke_order_diagram--existing_path" d="M61.99,27.68c0.98,0.61,2.35,0.82,3.92,0.41s17.09-2.78,20.99-3.14c1.85-0.17,3.95,1.12,3.87,3.41c-0.27,6.89-3.02,26.14-7.6,39.21c-1.44,4.11-3.96,1.53-6.27-1.02" id="Ske31t29m3l" kvg:type="㇆" transform="matrix(1,0,0,1,1096,-4)" xmlns:kvg="http://kanjivg.tagaini.net"></path><path class="stroke_order_diagram--existing_path" d="M52.53,43.74c1.28,0.94,2.38,0.97,4.25,0.63c6.22-1.12,15.64-2.27,16.8-2.39c1.54-0.16,2.75,1.03,2.2,3.47C75.62,46.18,75,51,73.16,57.48" id="Ske31t29m3m" kvg:type="㇕" transform="matrix(1,0,0,1,1096,-4)" xmlns:kvg="http://kanjivg.tagaini.net"></path><path class="stroke_order_diagram--current_path" d="M55.24,60.85c4.12-0.45,14.57-1.79,20.43-2.18" id="kvg:0924b-s12" kvg:type="㇐" transform="matrix(1,0,0,1,1096,-4)" xmlns:kvg="http://kanjivg.tagaini.net"></path><path class="stroke_order_diagram--current_path" d="M55.24,60.85c4.12-0.45,14.57-1.79,20.43-2.18" id="Ske31t29m3o" kvg:type="㇐" transform="matrix(1,0,0,1,1096,-4)" xmlns:kvg="http://kanjivg.tagaini.net"></path><circle class="stroke_order_diagram--path_start" cx="55.24" cy="60.85" r="4" transform="matrix(1,0,0,1,1096,-4)"></circle><line class="stroke_order_diagram--guide_line" x1="1250" x2="1250" y1="1" y2="99"></line><line class="stroke_order_diagram--bounding_box" x1="1299" x2="1299" y1="1" y2="99"></line><path class="stroke_order_diagram--existing_path" d="M31.75,13.24c0,0.85,0.05,1.54-0.16,2.56c-1.12,5.34-11.76,23.17-20.87,31.07" id="Ske31t29m3r" kvg:type="㇒" transform="matrix(1,0,0,1,1196,-4)" xmlns:kvg="http://kanjivg.tagaini.net"></path><path class="stroke_order_diagram--existing_path" d="M33.89,20.46c4.47,2.03,10.18,7.42,12.36,12.54" id="Ske31t29m3s" kvg:type="㇔/㇏" transform="matrix(1,0,0,1,1196,-4)" xmlns:kvg="http://kanjivg.tagaini.net"></path><path class="stroke_order_diagram--existing_path" d="M21,41.5c1.71,0,2.49,0.09,3.05,0.06c4.95-0.31,10.67-1.53,16.5-1.75c0.84-0.03,1.02-0.05,2.45-0.05" id="Ske31t29m3t" kvg:type="㇐" transform="matrix(1,0,0,1,1196,-4)" xmlns:kvg="http://kanjivg.tagaini.net"></path><path class="stroke_order_diagram--existing_path" d="M13.59,55.81c0.66,0.33,2.84,0.48,3.52,0.43c6.1-0.49,17.48-2.49,25.29-2.67c0.83-0.02,2.64-0.13,3.87,0.15" id="Ske31t29m3u" kvg:type="㇐" transform="matrix(1,0,0,1,1196,-4)" xmlns:kvg="http://kanjivg.tagaini.net"></path><path class="stroke_order_diagram--existing_path" d="M29.95,43.19c1.24,0.78,1.24,2.52,1.24,3.14c0,4.35,0.62,32.63,0.31,36.98" id="Ske31t29m3v" kvg:type="㇑a" transform="matrix(1,0,0,1,1196,-4)" xmlns:kvg="http://kanjivg.tagaini.net"></path><path class="stroke_order_diagram--existing_path" d="M15.39,66.26c4.08,4.85,6.07,10.11,6.9,12.94" id="Ske31t29m3w" kvg:type="㇔" transform="matrix(1,0,0,1,1196,-4)" xmlns:kvg="http://kanjivg.tagaini.net"></path><path class="stroke_order_diagram--existing_path" d="M45.14,61.55c0.35,0.84,0.54,2.06,0.4,2.76c-0.35,1.81-3.15,5.13-7.12,10.47" id="Ske31t29m3x" kvg:type="㇒" transform="matrix(1,0,0,1,1196,-4)" xmlns:kvg="http://kanjivg.tagaini.net"></path><path class="stroke_order_diagram--existing_path" d="M13.5,89.83c1.25,1.92,2.87,1.43,4.54,0.72c4.21-1.8,11.35-5.04,24.46-10.3" id="Ske31t29m3y" kvg:type="㇀/㇐" transform="matrix(1,0,0,1,1196,-4)" xmlns:kvg="http://kanjivg.tagaini.net"></path><path class="stroke_order_diagram--existing_path" d="M63.11,13.5c0.05,0.74,0.25,1.96-0.09,2.96c-2.2,6.52-5.19,16.26-13.41,25.77" id="Ske31t29m3z" kvg:type="㇒" transform="matrix(1,0,0,1,1196,-4)" xmlns:kvg="http://kanjivg.tagaini.net"></path><path class="stroke_order_diagram--existing_path" d="M61.99,27.68c0.98,0.61,2.35,0.82,3.92,0.41s17.09-2.78,20.99-3.14c1.85-0.17,3.95,1.12,3.87,3.41c-0.27,6.89-3.02,26.14-7.6,39.21c-1.44,4.11-3.96,1.53-6.27-1.02" id="Ske31t29m40" kvg:type="㇆" transform="matrix(1,0,0,1,1196,-4)" xmlns:kvg="http://kanjivg.tagaini.net"></path><path class="stroke_order_diagram--existing_path" d="M52.53,43.74c1.28,0.94,2.38,0.97,4.25,0.63c6.22-1.12,15.64-2.27,16.8-2.39c1.54-0.16,2.75,1.03,2.2,3.47C75.62,46.18,75,51,73.16,57.48" id="Ske31t29m41" kvg:type="㇕" transform="matrix(1,0,0,1,1196,-4)" xmlns:kvg="http://kanjivg.tagaini.net"></path><path class="stroke_order_diagram--existing_path" d="M55.24,60.85c4.12-0.45,14.57-1.79,20.43-2.18" id="Ske31t29m42" kvg:type="㇐" transform="matrix(1,0,0,1,1196,-4)" xmlns:kvg="http://kanjivg.tagaini.net"></path><path class="stroke_order_diagram--current_path" d="M54.52,45.02c0.23,1.73,0.52,2.39,0.51,4.09C55,54.54,55.17,76.36,55.17,81.1c0,10.3,2.39,12.08,23.07,12.08c17.28,0,17.9-2.57,17.9-12.39" id="kvg:0924b-s13" kvg:type="㇟" transform="matrix(1,0,0,1,1196,-4)" xmlns:kvg="http://kanjivg.tagaini.net"></path><path class="stroke_order_diagram--current_path" d="M54.52,45.02c0.23,1.73,0.52,2.39,0.51,4.09C55,54.54,55.17,76.36,55.17,81.1c0,10.3,2.39,12.08,23.07,12.08c17.28,0,17.9-2.57,17.9-12.39" id="Ske31t29m44" kvg:type="㇟" transform="matrix(1,0,0,1,1196,-4)" xmlns:kvg="http://kanjivg.tagaini.net"></path><circle class="stroke_order_diagram--path_start" cx="54.52" cy="45.02" r="4" transform="matrix(1,0,0,1,1196,-4)"></circle></svg>