<svg class="stroke_order_diagram--svg_container_for_518662c1d5dda796580016eb" style="height: 100px; width: 1400px;" viewbox="0 0 1400 100"><desc>Created with Snap</desc><defs></defs><line class="stroke_order_diagram--bounding_box" x1="1" x2="1399" y1="1" y2="1"></line><line class="stroke_order_diagram--bounding_box" x1="1" x2="1" y1="1" y2="99"></line><line class="stroke_order_diagram--bounding_box" x1="1" x2="1399" y1="99" y2="99"></line><line class="stroke_order_diagram--guide_line" x1="0" x2="1400" y1="50" y2="50"></line><line class="stroke_order_diagram--guide_line" x1="50" x2="50" y1="1" y2="99"></line><line class="stroke_order_diagram--bounding_box" x1="99" x2="99" y1="1" y2="99"></line><path class="stroke_order_diagram--current_path" d="M28.14,13.5c0.04,0.5,0.19,1.39-0.08,2.01c-1.9,4.33-6.88,11.87-13.83,19.2" id="kvg:0929c-s1" kvg:type="㇒" transform="matrix(1,0,0,1,-4,-4)" xmlns:kvg="http://kanjivg.tagaini.net"></path><path class="stroke_order_diagram--current_path" d="M28.14,13.5c0.04,0.5,0.19,1.39-0.08,2.01c-1.9,4.33-6.88,11.87-13.83,19.2" id="Ske31toknn" kvg:type="㇒" transform="matrix(1,0,0,1,-4,-4)" xmlns:kvg="http://kanjivg.tagaini.net"></path><circle class="stroke_order_diagram--path_start" cx="28.14" cy="13.5" r="4" transform="matrix(1,0,0,1,-4,-4)"></circle><line class="stroke_order_diagram--guide_line" x1="150" x2="150" y1="1" y2="99"></line><line class="stroke_order_diagram--bounding_box" x1="199" x2="199" y1="1" y2="99"></line><path class="stroke_order_diagram--existing_path" d="M28.14,13.5c0.04,0.5,0.19,1.39-0.08,2.01c-1.9,4.33-6.88,11.87-13.83,19.2" id="Ske31toknq" kvg:type="㇒" transform="matrix(1,0,0,1,96,-4)" xmlns:kvg="http://kanjivg.tagaini.net"></path><path class="stroke_order_diagram--current_path" d="M32.42,31.27c0.06,0.68,0.31,1.89-0.11,2.72c-4.06,8-11.66,18.52-21.56,28.03" id="kvg:0929c-s2" kvg:type="㇒" transform="matrix(1,0,0,1,96,-4)" xmlns:kvg="http://kanjivg.tagaini.net"></path><path class="stroke_order_diagram--current_path" d="M32.42,31.27c0.06,0.68,0.31,1.89-0.11,2.72c-4.06,8-11.66,18.52-21.56,28.03" id="Ske31tokns" kvg:type="㇒" transform="matrix(1,0,0,1,96,-4)" xmlns:kvg="http://kanjivg.tagaini.net"></path><circle class="stroke_order_diagram--path_start" cx="32.42" cy="31.27" r="4" transform="matrix(1,0,0,1,96,-4)"></circle><line class="stroke_order_diagram--guide_line" x1="250" x2="250" y1="1" y2="99"></line><line class="stroke_order_diagram--bounding_box" x1="299" x2="299" y1="1" y2="99"></line><path class="stroke_order_diagram--existing_path" d="M28.14,13.5c0.04,0.5,0.19,1.39-0.08,2.01c-1.9,4.33-6.88,11.87-13.83,19.2" id="Ske31toknv" kvg:type="㇒" transform="matrix(1,0,0,1,196,-4)" xmlns:kvg="http://kanjivg.tagaini.net"></path><path class="stroke_order_diagram--existing_path" d="M32.42,31.27c0.06,0.68,0.31,1.89-0.11,2.72c-4.06,8-11.66,18.52-21.56,28.03" id="Ske31toknw" kvg:type="㇒" transform="matrix(1,0,0,1,196,-4)" xmlns:kvg="http://kanjivg.tagaini.net"></path><path class="stroke_order_diagram--current_path" d="M22.95,51.62c0.27,0.24,0.93,2.09,0.98,2.58c0.05,0.49,0,39.27-0.05,42.3" id="kvg:0929c-s3" kvg:type="㇑" transform="matrix(1,0,0,1,196,-4)" xmlns:kvg="http://kanjivg.tagaini.net"></path><path class="stroke_order_diagram--current_path" d="M22.95,51.62c0.27,0.24,0.93,2.09,0.98,2.58c0.05,0.49,0,39.27-0.05,42.3" id="Ske31tokny" kvg:type="㇑" transform="matrix(1,0,0,1,196,-4)" xmlns:kvg="http://kanjivg.tagaini.net"></path><circle class="stroke_order_diagram--path_start" cx="22.95" cy="51.62" r="4" transform="matrix(1,0,0,1,196,-4)"></circle><line class="stroke_order_diagram--guide_line" x1="350" x2="350" y1="1" y2="99"></line><line class="stroke_order_diagram--bounding_box" x1="399" x2="399" y1="1" y2="99"></line><path class="stroke_order_diagram--existing_path" d="M28.14,13.5c0.04,0.5,0.19,1.39-0.08,2.01c-1.9,4.33-6.88,11.87-13.83,19.2" id="Ske31tokn11" kvg:type="㇒" transform="matrix(1,0,0,1,296,-4)" xmlns:kvg="http://kanjivg.tagaini.net"></path><path class="stroke_order_diagram--existing_path" d="M32.42,31.27c0.06,0.68,0.31,1.89-0.11,2.72c-4.06,8-11.66,18.52-21.56,28.03" id="Ske31tokn12" kvg:type="㇒" transform="matrix(1,0,0,1,296,-4)" xmlns:kvg="http://kanjivg.tagaini.net"></path><path class="stroke_order_diagram--existing_path" d="M22.95,51.62c0.27,0.24,0.93,2.09,0.98,2.58c0.05,0.49,0,39.27-0.05,42.3" id="Ske31tokn13" kvg:type="㇑" transform="matrix(1,0,0,1,296,-4)" xmlns:kvg="http://kanjivg.tagaini.net"></path><path class="stroke_order_diagram--current_path" d="M53.75,13.24c0,0.87,0.05,1.57-0.16,2.62c-1.12,5.46-11.76,23.68-20.87,31.76" id="kvg:0929c-s4" kvg:type="㇒" transform="matrix(1,0,0,1,296,-4)" xmlns:kvg="http://kanjivg.tagaini.net"></path><path class="stroke_order_diagram--current_path" d="M53.75,13.24c0,0.87,0.05,1.57-0.16,2.62c-1.12,5.46-11.76,23.68-20.87,31.76" id="Ske31tokn15" kvg:type="㇒" transform="matrix(1,0,0,1,296,-4)" xmlns:kvg="http://kanjivg.tagaini.net"></path><circle class="stroke_order_diagram--path_start" cx="53.75" cy="13.24" r="4" transform="matrix(1,0,0,1,296,-4)"></circle><line class="stroke_order_diagram--guide_line" x1="450" x2="450" y1="1" y2="99"></line><line class="stroke_order_diagram--bounding_box" x1="499" x2="499" y1="1" y2="99"></line><path class="stroke_order_diagram--existing_path" d="M28.14,13.5c0.04,0.5,0.19,1.39-0.08,2.01c-1.9,4.33-6.88,11.87-13.83,19.2" id="Ske31tokn18" kvg:type="㇒" transform="matrix(1,0,0,1,396,-4)" xmlns:kvg="http://kanjivg.tagaini.net"></path><path class="stroke_order_diagram--existing_path" d="M32.42,31.27c0.06,0.68,0.31,1.89-0.11,2.72c-4.06,8-11.66,18.52-21.56,28.03" id="Ske31tokn19" kvg:type="㇒" transform="matrix(1,0,0,1,396,-4)" xmlns:kvg="http://kanjivg.tagaini.net"></path><path class="stroke_order_diagram--existing_path" d="M22.95,51.62c0.27,0.24,0.93,2.09,0.98,2.58c0.05,0.49,0,39.27-0.05,42.3" id="Ske31tokn1a" kvg:type="㇑" transform="matrix(1,0,0,1,396,-4)" xmlns:kvg="http://kanjivg.tagaini.net"></path><path class="stroke_order_diagram--existing_path" d="M53.75,13.24c0,0.87,0.05,1.57-0.16,2.62c-1.12,5.46-11.76,23.68-20.87,31.76" id="Ske31tokn1b" kvg:type="㇒" transform="matrix(1,0,0,1,396,-4)" xmlns:kvg="http://kanjivg.tagaini.net"></path><path class="stroke_order_diagram--current_path" d="M54.39,21.96C59.4,23.91,65.81,29.09,68.25,34" id="kvg:0929c-s5" kvg:type="㇏" transform="matrix(1,0,0,1,396,-4)" xmlns:kvg="http://kanjivg.tagaini.net"></path><path class="stroke_order_diagram--current_path" d="M54.39,21.96C59.4,23.91,65.81,29.09,68.25,34" id="Ske31tokn1d" kvg:type="㇏" transform="matrix(1,0,0,1,396,-4)" xmlns:kvg="http://kanjivg.tagaini.net"></path><circle class="stroke_order_diagram--path_start" cx="54.39" cy="21.96" r="4" transform="matrix(1,0,0,1,396,-4)"></circle><line class="stroke_order_diagram--guide_line" x1="550" x2="550" y1="1" y2="99"></line><line class="stroke_order_diagram--bounding_box" x1="599" x2="599" y1="1" y2="99"></line><path class="stroke_order_diagram--existing_path" d="M28.14,13.5c0.04,0.5,0.19,1.39-0.08,2.01c-1.9,4.33-6.88,11.87-13.83,19.2" id="Ske31tokn1g" kvg:type="㇒" transform="matrix(1,0,0,1,496,-4)" xmlns:kvg="http://kanjivg.tagaini.net"></path><path class="stroke_order_diagram--existing_path" d="M32.42,31.27c0.06,0.68,0.31,1.89-0.11,2.72c-4.06,8-11.66,18.52-21.56,28.03" id="Ske31tokn1h" kvg:type="㇒" transform="matrix(1,0,0,1,496,-4)" xmlns:kvg="http://kanjivg.tagaini.net"></path><path class="stroke_order_diagram--existing_path" d="M22.95,51.62c0.27,0.24,0.93,2.09,0.98,2.58c0.05,0.49,0,39.27-0.05,42.3" id="Ske31tokn1i" kvg:type="㇑" transform="matrix(1,0,0,1,496,-4)" xmlns:kvg="http://kanjivg.tagaini.net"></path><path class="stroke_order_diagram--existing_path" d="M53.75,13.24c0,0.87,0.05,1.57-0.16,2.62c-1.12,5.46-11.76,23.68-20.87,31.76" id="Ske31tokn1j" kvg:type="㇒" transform="matrix(1,0,0,1,496,-4)" xmlns:kvg="http://kanjivg.tagaini.net"></path><path class="stroke_order_diagram--existing_path" d="M54.39,21.96C59.4,23.91,65.81,29.09,68.25,34" id="Ske31tokn1k" kvg:type="㇏" transform="matrix(1,0,0,1,496,-4)" xmlns:kvg="http://kanjivg.tagaini.net"></path><path class="stroke_order_diagram--current_path" d="M41.5,43c1.77,0,2.58,0.09,3.15,0.06c5.12-0.31,11.03-1.53,17.06-1.75c0.87-0.03,1.06-0.05,2.54-0.05" id="kvg:0929c-s6" kvg:type="㇐" transform="matrix(1,0,0,1,496,-4)" xmlns:kvg="http://kanjivg.tagaini.net"></path><path class="stroke_order_diagram--current_path" d="M41.5,43c1.77,0,2.58,0.09,3.15,0.06c5.12-0.31,11.03-1.53,17.06-1.75c0.87-0.03,1.06-0.05,2.54-0.05" id="Ske31tokn1m" kvg:type="㇐" transform="matrix(1,0,0,1,496,-4)" xmlns:kvg="http://kanjivg.tagaini.net"></path><circle class="stroke_order_diagram--path_start" cx="41.5" cy="43" r="4" transform="matrix(1,0,0,1,496,-4)"></circle><line class="stroke_order_diagram--guide_line" x1="650" x2="650" y1="1" y2="99"></line><line class="stroke_order_diagram--bounding_box" x1="699" x2="699" y1="1" y2="99"></line><path class="stroke_order_diagram--existing_path" d="M28.14,13.5c0.04,0.5,0.19,1.39-0.08,2.01c-1.9,4.33-6.88,11.87-13.83,19.2" id="Ske31tokn1p" kvg:type="㇒" transform="matrix(1,0,0,1,596,-4)" xmlns:kvg="http://kanjivg.tagaini.net"></path><path class="stroke_order_diagram--existing_path" d="M32.42,31.27c0.06,0.68,0.31,1.89-0.11,2.72c-4.06,8-11.66,18.52-21.56,28.03" id="Ske31tokn1q" kvg:type="㇒" transform="matrix(1,0,0,1,596,-4)" xmlns:kvg="http://kanjivg.tagaini.net"></path><path class="stroke_order_diagram--existing_path" d="M22.95,51.62c0.27,0.24,0.93,2.09,0.98,2.58c0.05,0.49,0,39.27-0.05,42.3" id="Ske31tokn1r" kvg:type="㇑" transform="matrix(1,0,0,1,596,-4)" xmlns:kvg="http://kanjivg.tagaini.net"></path><path class="stroke_order_diagram--existing_path" d="M53.75,13.24c0,0.87,0.05,1.57-0.16,2.62c-1.12,5.46-11.76,23.68-20.87,31.76" id="Ske31tokn1s" kvg:type="㇒" transform="matrix(1,0,0,1,596,-4)" xmlns:kvg="http://kanjivg.tagaini.net"></path><path class="stroke_order_diagram--existing_path" d="M54.39,21.96C59.4,23.91,65.81,29.09,68.25,34" id="Ske31tokn1t" kvg:type="㇏" transform="matrix(1,0,0,1,596,-4)" xmlns:kvg="http://kanjivg.tagaini.net"></path><path class="stroke_order_diagram--existing_path" d="M41.5,43c1.77,0,2.58,0.09,3.15,0.06c5.12-0.31,11.03-1.53,17.06-1.75c0.87-0.03,1.06-0.05,2.54-0.05" id="Ske31tokn1u" kvg:type="㇐" transform="matrix(1,0,0,1,596,-4)" xmlns:kvg="http://kanjivg.tagaini.net"></path><path class="stroke_order_diagram--current_path" d="M34.59,57.31c0.68,0.33,2.93,0.48,3.63,0.43c6.29-0.49,18.02-2.49,26.07-2.67c0.85-0.02,2.72-0.13,3.99,0.15" id="kvg:0929c-s7" kvg:type="㇐" transform="matrix(1,0,0,1,596,-4)" xmlns:kvg="http://kanjivg.tagaini.net"></path><path class="stroke_order_diagram--current_path" d="M34.59,57.31c0.68,0.33,2.93,0.48,3.63,0.43c6.29-0.49,18.02-2.49,26.07-2.67c0.85-0.02,2.72-0.13,3.99,0.15" id="Ske31tokn1w" kvg:type="㇐" transform="matrix(1,0,0,1,596,-4)" xmlns:kvg="http://kanjivg.tagaini.net"></path><circle class="stroke_order_diagram--path_start" cx="34.59" cy="57.31" r="4" transform="matrix(1,0,0,1,596,-4)"></circle><line class="stroke_order_diagram--guide_line" x1="750" x2="750" y1="1" y2="99"></line><line class="stroke_order_diagram--bounding_box" x1="799" x2="799" y1="1" y2="99"></line><path class="stroke_order_diagram--existing_path" d="M28.14,13.5c0.04,0.5,0.19,1.39-0.08,2.01c-1.9,4.33-6.88,11.87-13.83,19.2" id="Ske31tokn1z" kvg:type="㇒" transform="matrix(1,0,0,1,696,-4)" xmlns:kvg="http://kanjivg.tagaini.net"></path><path class="stroke_order_diagram--existing_path" d="M32.42,31.27c0.06,0.68,0.31,1.89-0.11,2.72c-4.06,8-11.66,18.52-21.56,28.03" id="Ske31tokn20" kvg:type="㇒" transform="matrix(1,0,0,1,696,-4)" xmlns:kvg="http://kanjivg.tagaini.net"></path><path class="stroke_order_diagram--existing_path" d="M22.95,51.62c0.27,0.24,0.93,2.09,0.98,2.58c0.05,0.49,0,39.27-0.05,42.3" id="Ske31tokn21" kvg:type="㇑" transform="matrix(1,0,0,1,696,-4)" xmlns:kvg="http://kanjivg.tagaini.net"></path><path class="stroke_order_diagram--existing_path" d="M53.75,13.24c0,0.87,0.05,1.57-0.16,2.62c-1.12,5.46-11.76,23.68-20.87,31.76" id="Ske31tokn22" kvg:type="㇒" transform="matrix(1,0,0,1,696,-4)" xmlns:kvg="http://kanjivg.tagaini.net"></path><path class="stroke_order_diagram--existing_path" d="M54.39,21.96C59.4,23.91,65.81,29.09,68.25,34" id="Ske31tokn23" kvg:type="㇏" transform="matrix(1,0,0,1,696,-4)" xmlns:kvg="http://kanjivg.tagaini.net"></path><path class="stroke_order_diagram--existing_path" d="M41.5,43c1.77,0,2.58,0.09,3.15,0.06c5.12-0.31,11.03-1.53,17.06-1.75c0.87-0.03,1.06-0.05,2.54-0.05" id="Ske31tokn24" kvg:type="㇐" transform="matrix(1,0,0,1,696,-4)" xmlns:kvg="http://kanjivg.tagaini.net"></path><path class="stroke_order_diagram--existing_path" d="M34.59,57.31c0.68,0.33,2.93,0.48,3.63,0.43c6.29-0.49,18.02-2.49,26.07-2.67c0.85-0.02,2.72-0.13,3.99,0.15" id="Ske31tokn25" kvg:type="㇐" transform="matrix(1,0,0,1,696,-4)" xmlns:kvg="http://kanjivg.tagaini.net"></path><path class="stroke_order_diagram--current_path" d="M50.95,44.19c1.24,0.78,1.24,2.52,1.24,3.14c0,4.35,0.62,32.63,0.31,36.98" id="kvg:0929c-s8" kvg:type="㇑" transform="matrix(1,0,0,1,696,-4)" xmlns:kvg="http://kanjivg.tagaini.net"></path><path class="stroke_order_diagram--current_path" d="M50.95,44.19c1.24,0.78,1.24,2.52,1.24,3.14c0,4.35,0.62,32.63,0.31,36.98" id="Ske31tokn27" kvg:type="㇑" transform="matrix(1,0,0,1,696,-4)" xmlns:kvg="http://kanjivg.tagaini.net"></path><circle class="stroke_order_diagram--path_start" cx="50.95" cy="44.19" r="4" transform="matrix(1,0,0,1,696,-4)"></circle><line class="stroke_order_diagram--guide_line" x1="850" x2="850" y1="1" y2="99"></line><line class="stroke_order_diagram--bounding_box" x1="899" x2="899" y1="1" y2="99"></line><path class="stroke_order_diagram--existing_path" d="M28.14,13.5c0.04,0.5,0.19,1.39-0.08,2.01c-1.9,4.33-6.88,11.87-13.83,19.2" id="Ske31tokn2a" kvg:type="㇒" transform="matrix(1,0,0,1,796,-4)" xmlns:kvg="http://kanjivg.tagaini.net"></path><path class="stroke_order_diagram--existing_path" d="M32.42,31.27c0.06,0.68,0.31,1.89-0.11,2.72c-4.06,8-11.66,18.52-21.56,28.03" id="Ske31tokn2b" kvg:type="㇒" transform="matrix(1,0,0,1,796,-4)" xmlns:kvg="http://kanjivg.tagaini.net"></path><path class="stroke_order_diagram--existing_path" d="M22.95,51.62c0.27,0.24,0.93,2.09,0.98,2.58c0.05,0.49,0,39.27-0.05,42.3" id="Ske31tokn2c" kvg:type="㇑" transform="matrix(1,0,0,1,796,-4)" xmlns:kvg="http://kanjivg.tagaini.net"></path><path class="stroke_order_diagram--existing_path" d="M53.75,13.24c0,0.87,0.05,1.57-0.16,2.62c-1.12,5.46-11.76,23.68-20.87,31.76" id="Ske31tokn2d" kvg:type="㇒" transform="matrix(1,0,0,1,796,-4)" xmlns:kvg="http://kanjivg.tagaini.net"></path><path class="stroke_order_diagram--existing_path" d="M54.39,21.96C59.4,23.91,65.81,29.09,68.25,34" id="Ske31tokn2e" kvg:type="㇏" transform="matrix(1,0,0,1,796,-4)" xmlns:kvg="http://kanjivg.tagaini.net"></path><path class="stroke_order_diagram--existing_path" d="M41.5,43c1.77,0,2.58,0.09,3.15,0.06c5.12-0.31,11.03-1.53,17.06-1.75c0.87-0.03,1.06-0.05,2.54-0.05" id="Ske31tokn2f" kvg:type="㇐" transform="matrix(1,0,0,1,796,-4)" xmlns:kvg="http://kanjivg.tagaini.net"></path><path class="stroke_order_diagram--existing_path" d="M34.59,57.31c0.68,0.33,2.93,0.48,3.63,0.43c6.29-0.49,18.02-2.49,26.07-2.67c0.85-0.02,2.72-0.13,3.99,0.15" id="Ske31tokn2g" kvg:type="㇐" transform="matrix(1,0,0,1,796,-4)" xmlns:kvg="http://kanjivg.tagaini.net"></path><path class="stroke_order_diagram--existing_path" d="M50.95,44.19c1.24,0.78,1.24,2.52,1.24,3.14c0,4.35,0.62,32.63,0.31,36.98" id="Ske31tokn2h" kvg:type="㇑" transform="matrix(1,0,0,1,796,-4)" xmlns:kvg="http://kanjivg.tagaini.net"></path><path class="stroke_order_diagram--current_path" d="M37.64,67.26c3.63,4.85,5.41,10.11,6.15,12.94" id="kvg:0929c-s9" kvg:type="㇔" transform="matrix(1,0,0,1,796,-4)" xmlns:kvg="http://kanjivg.tagaini.net"></path><path class="stroke_order_diagram--current_path" d="M37.64,67.26c3.63,4.85,5.41,10.11,6.15,12.94" id="Ske31tokn2j" kvg:type="㇔" transform="matrix(1,0,0,1,796,-4)" xmlns:kvg="http://kanjivg.tagaini.net"></path><circle class="stroke_order_diagram--path_start" cx="37.64" cy="67.26" r="4" transform="matrix(1,0,0,1,796,-4)"></circle><line class="stroke_order_diagram--guide_line" x1="950" x2="950" y1="1" y2="99"></line><line class="stroke_order_diagram--bounding_box" x1="999" x2="999" y1="1" y2="99"></line><path class="stroke_order_diagram--existing_path" d="M28.14,13.5c0.04,0.5,0.19,1.39-0.08,2.01c-1.9,4.33-6.88,11.87-13.83,19.2" id="Ske31tokn2m" kvg:type="㇒" transform="matrix(1,0,0,1,896,-4)" xmlns:kvg="http://kanjivg.tagaini.net"></path><path class="stroke_order_diagram--existing_path" d="M32.42,31.27c0.06,0.68,0.31,1.89-0.11,2.72c-4.06,8-11.66,18.52-21.56,28.03" id="Ske31tokn2n" kvg:type="㇒" transform="matrix(1,0,0,1,896,-4)" xmlns:kvg="http://kanjivg.tagaini.net"></path><path class="stroke_order_diagram--existing_path" d="M22.95,51.62c0.27,0.24,0.93,2.09,0.98,2.58c0.05,0.49,0,39.27-0.05,42.3" id="Ske31tokn2o" kvg:type="㇑" transform="matrix(1,0,0,1,896,-4)" xmlns:kvg="http://kanjivg.tagaini.net"></path><path class="stroke_order_diagram--existing_path" d="M53.75,13.24c0,0.87,0.05,1.57-0.16,2.62c-1.12,5.46-11.76,23.68-20.87,31.76" id="Ske31tokn2p" kvg:type="㇒" transform="matrix(1,0,0,1,896,-4)" xmlns:kvg="http://kanjivg.tagaini.net"></path><path class="stroke_order_diagram--existing_path" d="M54.39,21.96C59.4,23.91,65.81,29.09,68.25,34" id="Ske31tokn2q" kvg:type="㇏" transform="matrix(1,0,0,1,896,-4)" xmlns:kvg="http://kanjivg.tagaini.net"></path><path class="stroke_order_diagram--existing_path" d="M41.5,43c1.77,0,2.58,0.09,3.15,0.06c5.12-0.31,11.03-1.53,17.06-1.75c0.87-0.03,1.06-0.05,2.54-0.05" id="Ske31tokn2r" kvg:type="㇐" transform="matrix(1,0,0,1,896,-4)" xmlns:kvg="http://kanjivg.tagaini.net"></path><path class="stroke_order_diagram--existing_path" d="M34.59,57.31c0.68,0.33,2.93,0.48,3.63,0.43c6.29-0.49,18.02-2.49,26.07-2.67c0.85-0.02,2.72-0.13,3.99,0.15" id="Ske31tokn2s" kvg:type="㇐" transform="matrix(1,0,0,1,896,-4)" xmlns:kvg="http://kanjivg.tagaini.net"></path><path class="stroke_order_diagram--existing_path" d="M50.95,44.19c1.24,0.78,1.24,2.52,1.24,3.14c0,4.35,0.62,32.63,0.31,36.98" id="Ske31tokn2t" kvg:type="㇑" transform="matrix(1,0,0,1,896,-4)" xmlns:kvg="http://kanjivg.tagaini.net"></path><path class="stroke_order_diagram--existing_path" d="M37.64,67.26c3.63,4.85,5.41,10.11,6.15,12.94" id="Ske31tokn2u" kvg:type="㇔" transform="matrix(1,0,0,1,896,-4)" xmlns:kvg="http://kanjivg.tagaini.net"></path><path class="stroke_order_diagram--current_path" d="M65.7,62.05c0.3,0.84,0.46,2.06,0.34,2.76c-0.3,1.81-2.71,5.13-6.12,10.47" id="kvg:0929c-s10" kvg:type="㇒" transform="matrix(1,0,0,1,896,-4)" xmlns:kvg="http://kanjivg.tagaini.net"></path><path class="stroke_order_diagram--current_path" d="M65.7,62.05c0.3,0.84,0.46,2.06,0.34,2.76c-0.3,1.81-2.71,5.13-6.12,10.47" id="Ske31tokn2w" kvg:type="㇒" transform="matrix(1,0,0,1,896,-4)" xmlns:kvg="http://kanjivg.tagaini.net"></path><circle class="stroke_order_diagram--path_start" cx="65.7" cy="62.05" r="4" transform="matrix(1,0,0,1,896,-4)"></circle><line class="stroke_order_diagram--guide_line" x1="1050" x2="1050" y1="1" y2="99"></line><line class="stroke_order_diagram--bounding_box" x1="1099" x2="1099" y1="1" y2="99"></line><path class="stroke_order_diagram--existing_path" d="M28.14,13.5c0.04,0.5,0.19,1.39-0.08,2.01c-1.9,4.33-6.88,11.87-13.83,19.2" id="Ske31tokn2z" kvg:type="㇒" transform="matrix(1,0,0,1,996,-4)" xmlns:kvg="http://kanjivg.tagaini.net"></path><path class="stroke_order_diagram--existing_path" d="M32.42,31.27c0.06,0.68,0.31,1.89-0.11,2.72c-4.06,8-11.66,18.52-21.56,28.03" id="Ske31tokn30" kvg:type="㇒" transform="matrix(1,0,0,1,996,-4)" xmlns:kvg="http://kanjivg.tagaini.net"></path><path class="stroke_order_diagram--existing_path" d="M22.95,51.62c0.27,0.24,0.93,2.09,0.98,2.58c0.05,0.49,0,39.27-0.05,42.3" id="Ske31tokn31" kvg:type="㇑" transform="matrix(1,0,0,1,996,-4)" xmlns:kvg="http://kanjivg.tagaini.net"></path><path class="stroke_order_diagram--existing_path" d="M53.75,13.24c0,0.87,0.05,1.57-0.16,2.62c-1.12,5.46-11.76,23.68-20.87,31.76" id="Ske31tokn32" kvg:type="㇒" transform="matrix(1,0,0,1,996,-4)" xmlns:kvg="http://kanjivg.tagaini.net"></path><path class="stroke_order_diagram--existing_path" d="M54.39,21.96C59.4,23.91,65.81,29.09,68.25,34" id="Ske31tokn33" kvg:type="㇏" transform="matrix(1,0,0,1,996,-4)" xmlns:kvg="http://kanjivg.tagaini.net"></path><path class="stroke_order_diagram--existing_path" d="M41.5,43c1.77,0,2.58,0.09,3.15,0.06c5.12-0.31,11.03-1.53,17.06-1.75c0.87-0.03,1.06-0.05,2.54-0.05" id="Ske31tokn34" kvg:type="㇐" transform="matrix(1,0,0,1,996,-4)" xmlns:kvg="http://kanjivg.tagaini.net"></path><path class="stroke_order_diagram--existing_path" d="M34.59,57.31c0.68,0.33,2.93,0.48,3.63,0.43c6.29-0.49,18.02-2.49,26.07-2.67c0.85-0.02,2.72-0.13,3.99,0.15" id="Ske31tokn35" kvg:type="㇐" transform="matrix(1,0,0,1,996,-4)" xmlns:kvg="http://kanjivg.tagaini.net"></path><path class="stroke_order_diagram--existing_path" d="M50.95,44.19c1.24,0.78,1.24,2.52,1.24,3.14c0,4.35,0.62,32.63,0.31,36.98" id="Ske31tokn36" kvg:type="㇑" transform="matrix(1,0,0,1,996,-4)" xmlns:kvg="http://kanjivg.tagaini.net"></path><path class="stroke_order_diagram--existing_path" d="M37.64,67.26c3.63,4.85,5.41,10.11,6.15,12.94" id="Ske31tokn37" kvg:type="㇔" transform="matrix(1,0,0,1,996,-4)" xmlns:kvg="http://kanjivg.tagaini.net"></path><path class="stroke_order_diagram--existing_path" d="M65.7,62.05c0.3,0.84,0.46,2.06,0.34,2.76c-0.3,1.81-2.71,5.13-6.12,10.47" id="Ske31tokn38" kvg:type="㇒" transform="matrix(1,0,0,1,996,-4)" xmlns:kvg="http://kanjivg.tagaini.net"></path><path class="stroke_order_diagram--current_path" d="M36,91.25c1.25,1,2.75,0.75,4.5,0.25c1.29-0.37,11.25-5.75,24.25-11.75" id="kvg:0929c-s11" kvg:type="㇐" transform="matrix(1,0,0,1,996,-4)" xmlns:kvg="http://kanjivg.tagaini.net"></path><path class="stroke_order_diagram--current_path" d="M36,91.25c1.25,1,2.75,0.75,4.5,0.25c1.29-0.37,11.25-5.75,24.25-11.75" id="Ske31tokn3a" kvg:type="㇐" transform="matrix(1,0,0,1,996,-4)" xmlns:kvg="http://kanjivg.tagaini.net"></path><circle class="stroke_order_diagram--path_start" cx="36" cy="91.25" r="4" transform="matrix(1,0,0,1,996,-4)"></circle><line class="stroke_order_diagram--guide_line" x1="1150" x2="1150" y1="1" y2="99"></line><line class="stroke_order_diagram--bounding_box" x1="1199" x2="1199" y1="1" y2="99"></line><path class="stroke_order_diagram--existing_path" d="M28.14,13.5c0.04,0.5,0.19,1.39-0.08,2.01c-1.9,4.33-6.88,11.87-13.83,19.2" id="Ske31tokn3d" kvg:type="㇒" transform="matrix(1,0,0,1,1096,-4)" xmlns:kvg="http://kanjivg.tagaini.net"></path><path class="stroke_order_diagram--existing_path" d="M32.42,31.27c0.06,0.68,0.31,1.89-0.11,2.72c-4.06,8-11.66,18.52-21.56,28.03" id="Ske31tokn3e" kvg:type="㇒" transform="matrix(1,0,0,1,1096,-4)" xmlns:kvg="http://kanjivg.tagaini.net"></path><path class="stroke_order_diagram--existing_path" d="M22.95,51.62c0.27,0.24,0.93,2.09,0.98,2.58c0.05,0.49,0,39.27-0.05,42.3" id="Ske31tokn3f" kvg:type="㇑" transform="matrix(1,0,0,1,1096,-4)" xmlns:kvg="http://kanjivg.tagaini.net"></path><path class="stroke_order_diagram--existing_path" d="M53.75,13.24c0,0.87,0.05,1.57-0.16,2.62c-1.12,5.46-11.76,23.68-20.87,31.76" id="Ske31tokn3g" kvg:type="㇒" transform="matrix(1,0,0,1,1096,-4)" xmlns:kvg="http://kanjivg.tagaini.net"></path><path class="stroke_order_diagram--existing_path" d="M54.39,21.96C59.4,23.91,65.81,29.09,68.25,34" id="Ske31tokn3h" kvg:type="㇏" transform="matrix(1,0,0,1,1096,-4)" xmlns:kvg="http://kanjivg.tagaini.net"></path><path class="stroke_order_diagram--existing_path" d="M41.5,43c1.77,0,2.58,0.09,3.15,0.06c5.12-0.31,11.03-1.53,17.06-1.75c0.87-0.03,1.06-0.05,2.54-0.05" id="Ske31tokn3i" kvg:type="㇐" transform="matrix(1,0,0,1,1096,-4)" xmlns:kvg="http://kanjivg.tagaini.net"></path><path class="stroke_order_diagram--existing_path" d="M34.59,57.31c0.68,0.33,2.93,0.48,3.63,0.43c6.29-0.49,18.02-2.49,26.07-2.67c0.85-0.02,2.72-0.13,3.99,0.15" id="Ske31tokn3j" kvg:type="㇐" transform="matrix(1,0,0,1,1096,-4)" xmlns:kvg="http://kanjivg.tagaini.net"></path><path class="stroke_order_diagram--existing_path" d="M50.95,44.19c1.24,0.78,1.24,2.52,1.24,3.14c0,4.35,0.62,32.63,0.31,36.98" id="Ske31tokn3k" kvg:type="㇑" transform="matrix(1,0,0,1,1096,-4)" xmlns:kvg="http://kanjivg.tagaini.net"></path><path class="stroke_order_diagram--existing_path" d="M37.64,67.26c3.63,4.85,5.41,10.11,6.15,12.94" id="Ske31tokn3l" kvg:type="㇔" transform="matrix(1,0,0,1,1096,-4)" xmlns:kvg="http://kanjivg.tagaini.net"></path><path class="stroke_order_diagram--existing_path" d="M65.7,62.05c0.3,0.84,0.46,2.06,0.34,2.76c-0.3,1.81-2.71,5.13-6.12,10.47" id="Ske31tokn3m" kvg:type="㇒" transform="matrix(1,0,0,1,1096,-4)" xmlns:kvg="http://kanjivg.tagaini.net"></path><path class="stroke_order_diagram--existing_path" d="M36,91.25c1.25,1,2.75,0.75,4.5,0.25c1.29-0.37,11.25-5.75,24.25-11.75" id="Ske31tokn3n" kvg:type="㇐" transform="matrix(1,0,0,1,1096,-4)" xmlns:kvg="http://kanjivg.tagaini.net"></path><path class="stroke_order_diagram--current_path" d="M72.34,20.7c0.62,0.22,3.28,0.6,3.9,0.53c4.81-0.61,15.34-1.85,18.21-1.75c1.03,0.03,1.66,0.11,2.17,0.22" id="kvg:0929c-s12" kvg:type="㇐" transform="matrix(1,0,0,1,1096,-4)" xmlns:kvg="http://kanjivg.tagaini.net"></path><path class="stroke_order_diagram--current_path" d="M72.34,20.7c0.62,0.22,3.28,0.6,3.9,0.53c4.81-0.61,15.34-1.85,18.21-1.75c1.03,0.03,1.66,0.11,2.17,0.22" id="Ske31tokn3p" kvg:type="㇐" transform="matrix(1,0,0,1,1096,-4)" xmlns:kvg="http://kanjivg.tagaini.net"></path><circle class="stroke_order_diagram--path_start" cx="72.34" cy="20.7" r="4" transform="matrix(1,0,0,1,1096,-4)"></circle><line class="stroke_order_diagram--guide_line" x1="1250" x2="1250" y1="1" y2="99"></line><line class="stroke_order_diagram--bounding_box" x1="1299" x2="1299" y1="1" y2="99"></line><path class="stroke_order_diagram--existing_path" d="M28.14,13.5c0.04,0.5,0.19,1.39-0.08,2.01c-1.9,4.33-6.88,11.87-13.83,19.2" id="Ske31tokn3s" kvg:type="㇒" transform="matrix(1,0,0,1,1196,-4)" xmlns:kvg="http://kanjivg.tagaini.net"></path><path class="stroke_order_diagram--existing_path" d="M32.42,31.27c0.06,0.68,0.31,1.89-0.11,2.72c-4.06,8-11.66,18.52-21.56,28.03" id="Ske31tokn3t" kvg:type="㇒" transform="matrix(1,0,0,1,1196,-4)" xmlns:kvg="http://kanjivg.tagaini.net"></path><path class="stroke_order_diagram--existing_path" d="M22.95,51.62c0.27,0.24,0.93,2.09,0.98,2.58c0.05,0.49,0,39.27-0.05,42.3" id="Ske31tokn3u" kvg:type="㇑" transform="matrix(1,0,0,1,1196,-4)" xmlns:kvg="http://kanjivg.tagaini.net"></path><path class="stroke_order_diagram--existing_path" d="M53.75,13.24c0,0.87,0.05,1.57-0.16,2.62c-1.12,5.46-11.76,23.68-20.87,31.76" id="Ske31tokn3v" kvg:type="㇒" transform="matrix(1,0,0,1,1196,-4)" xmlns:kvg="http://kanjivg.tagaini.net"></path><path class="stroke_order_diagram--existing_path" d="M54.39,21.96C59.4,23.91,65.81,29.09,68.25,34" id="Ske31tokn3w" kvg:type="㇏" transform="matrix(1,0,0,1,1196,-4)" xmlns:kvg="http://kanjivg.tagaini.net"></path><path class="stroke_order_diagram--existing_path" d="M41.5,43c1.77,0,2.58,0.09,3.15,0.06c5.12-0.31,11.03-1.53,17.06-1.75c0.87-0.03,1.06-0.05,2.54-0.05" id="Ske31tokn3x" kvg:type="㇐" transform="matrix(1,0,0,1,1196,-4)" xmlns:kvg="http://kanjivg.tagaini.net"></path><path class="stroke_order_diagram--existing_path" d="M34.59,57.31c0.68,0.33,2.93,0.48,3.63,0.43c6.29-0.49,18.02-2.49,26.07-2.67c0.85-0.02,2.72-0.13,3.99,0.15" id="Ske31tokn3y" kvg:type="㇐" transform="matrix(1,0,0,1,1196,-4)" xmlns:kvg="http://kanjivg.tagaini.net"></path><path class="stroke_order_diagram--existing_path" d="M50.95,44.19c1.24,0.78,1.24,2.52,1.24,3.14c0,4.35,0.62,32.63,0.31,36.98" id="Ske31tokn3z" kvg:type="㇑" transform="matrix(1,0,0,1,1196,-4)" xmlns:kvg="http://kanjivg.tagaini.net"></path><path class="stroke_order_diagram--existing_path" d="M37.64,67.26c3.63,4.85,5.41,10.11,6.15,12.94" id="Ske31tokn40" kvg:type="㇔" transform="matrix(1,0,0,1,1196,-4)" xmlns:kvg="http://kanjivg.tagaini.net"></path><path class="stroke_order_diagram--existing_path" d="M65.7,62.05c0.3,0.84,0.46,2.06,0.34,2.76c-0.3,1.81-2.71,5.13-6.12,10.47" id="Ske31tokn41" kvg:type="㇒" transform="matrix(1,0,0,1,1196,-4)" xmlns:kvg="http://kanjivg.tagaini.net"></path><path class="stroke_order_diagram--existing_path" d="M36,91.25c1.25,1,2.75,0.75,4.5,0.25c1.29-0.37,11.25-5.75,24.25-11.75" id="Ske31tokn42" kvg:type="㇐" transform="matrix(1,0,0,1,1196,-4)" xmlns:kvg="http://kanjivg.tagaini.net"></path><path class="stroke_order_diagram--existing_path" d="M72.34,20.7c0.62,0.22,3.28,0.6,3.9,0.53c4.81-0.61,15.34-1.85,18.21-1.75c1.03,0.03,1.66,0.11,2.17,0.22" id="Ske31tokn43" kvg:type="㇐" transform="matrix(1,0,0,1,1196,-4)" xmlns:kvg="http://kanjivg.tagaini.net"></path><path class="stroke_order_diagram--current_path" d="M70.59,42.71c0.82,0.36,2.31,0.41,3.13,0.36c5.78-0.33,18.03-2.08,24.3-2.12c1.36-0.01,2.18,0.17,2.86,0.35" id="kvg:0929c-s13" kvg:type="㇐" transform="matrix(1,0,0,1,1196,-4)" xmlns:kvg="http://kanjivg.tagaini.net"></path><path class="stroke_order_diagram--current_path" d="M70.59,42.71c0.82,0.36,2.31,0.41,3.13,0.36c5.78-0.33,18.03-2.08,24.3-2.12c1.36-0.01,2.18,0.17,2.86,0.35" id="Ske31tokn45" kvg:type="㇐" transform="matrix(1,0,0,1,1196,-4)" xmlns:kvg="http://kanjivg.tagaini.net"></path><circle class="stroke_order_diagram--path_start" cx="70.59" cy="42.71" r="4" transform="matrix(1,0,0,1,1196,-4)"></circle><line class="stroke_order_diagram--guide_line" x1="1350" x2="1350" y1="1" y2="99"></line><line class="stroke_order_diagram--bounding_box" x1="1399" x2="1399" y1="1" y2="99"></line><path class="stroke_order_diagram--existing_path" d="M28.14,13.5c0.04,0.5,0.19,1.39-0.08,2.01c-1.9,4.33-6.88,11.87-13.83,19.2" id="Ske31tokn48" kvg:type="㇒" transform="matrix(1,0,0,1,1296,-4)" xmlns:kvg="http://kanjivg.tagaini.net"></path><path class="stroke_order_diagram--existing_path" d="M32.42,31.27c0.06,0.68,0.31,1.89-0.11,2.72c-4.06,8-11.66,18.52-21.56,28.03" id="Ske31tokn49" kvg:type="㇒" transform="matrix(1,0,0,1,1296,-4)" xmlns:kvg="http://kanjivg.tagaini.net"></path><path class="stroke_order_diagram--existing_path" d="M22.95,51.62c0.27,0.24,0.93,2.09,0.98,2.58c0.05,0.49,0,39.27-0.05,42.3" id="Ske31tokn4a" kvg:type="㇑" transform="matrix(1,0,0,1,1296,-4)" xmlns:kvg="http://kanjivg.tagaini.net"></path><path class="stroke_order_diagram--existing_path" d="M53.75,13.24c0,0.87,0.05,1.57-0.16,2.62c-1.12,5.46-11.76,23.68-20.87,31.76" id="Ske31tokn4b" kvg:type="㇒" transform="matrix(1,0,0,1,1296,-4)" xmlns:kvg="http://kanjivg.tagaini.net"></path><path class="stroke_order_diagram--existing_path" d="M54.39,21.96C59.4,23.91,65.81,29.09,68.25,34" id="Ske31tokn4c" kvg:type="㇏" transform="matrix(1,0,0,1,1296,-4)" xmlns:kvg="http://kanjivg.tagaini.net"></path><path class="stroke_order_diagram--existing_path" d="M41.5,43c1.77,0,2.58,0.09,3.15,0.06c5.12-0.31,11.03-1.53,17.06-1.75c0.87-0.03,1.06-0.05,2.54-0.05" id="Ske31tokn4d" kvg:type="㇐" transform="matrix(1,0,0,1,1296,-4)" xmlns:kvg="http://kanjivg.tagaini.net"></path><path class="stroke_order_diagram--existing_path" d="M34.59,57.31c0.68,0.33,2.93,0.48,3.63,0.43c6.29-0.49,18.02-2.49,26.07-2.67c0.85-0.02,2.72-0.13,3.99,0.15" id="Ske31tokn4e" kvg:type="㇐" transform="matrix(1,0,0,1,1296,-4)" xmlns:kvg="http://kanjivg.tagaini.net"></path><path class="stroke_order_diagram--existing_path" d="M50.95,44.19c1.24,0.78,1.24,2.52,1.24,3.14c0,4.35,0.62,32.63,0.31,36.98" id="Ske31tokn4f" kvg:type="㇑" transform="matrix(1,0,0,1,1296,-4)" xmlns:kvg="http://kanjivg.tagaini.net"></path><path class="stroke_order_diagram--existing_path" d="M37.64,67.26c3.63,4.85,5.41,10.11,6.15,12.94" id="Ske31tokn4g" kvg:type="㇔" transform="matrix(1,0,0,1,1296,-4)" xmlns:kvg="http://kanjivg.tagaini.net"></path><path class="stroke_order_diagram--existing_path" d="M65.7,62.05c0.3,0.84,0.46,2.06,0.34,2.76c-0.3,1.81-2.71,5.13-6.12,10.47" id="Ske31tokn4h" kvg:type="㇒" transform="matrix(1,0,0,1,1296,-4)" xmlns:kvg="http://kanjivg.tagaini.net"></path><path class="stroke_order_diagram--existing_path" d="M36,91.25c1.25,1,2.75,0.75,4.5,0.25c1.29-0.37,11.25-5.75,24.25-11.75" id="Ske31tokn4i" kvg:type="㇐" transform="matrix(1,0,0,1,1296,-4)" xmlns:kvg="http://kanjivg.tagaini.net"></path><path class="stroke_order_diagram--existing_path" d="M72.34,20.7c0.62,0.22,3.28,0.6,3.9,0.53c4.81-0.61,15.34-1.85,18.21-1.75c1.03,0.03,1.66,0.11,2.17,0.22" id="Ske31tokn4j" kvg:type="㇐" transform="matrix(1,0,0,1,1296,-4)" xmlns:kvg="http://kanjivg.tagaini.net"></path><path class="stroke_order_diagram--existing_path" d="M70.59,42.71c0.82,0.36,2.31,0.41,3.13,0.36c5.78-0.33,18.03-2.08,24.3-2.12c1.36-0.01,2.18,0.17,2.86,0.35" id="Ske31tokn4k" kvg:type="㇐" transform="matrix(1,0,0,1,1296,-4)" xmlns:kvg="http://kanjivg.tagaini.net"></path><path class="stroke_order_diagram--current_path" d="M85.71,44.16c0.08,0.47,1.02,2.44,1.1,5.41c0.35,14.27-0.22,37.9-0.22,42.76c0,7.88-6.29-0.49-7.6-1.71" id="kvg:0929c-s14" kvg:type="㇚" transform="matrix(1,0,0,1,1296,-4)" xmlns:kvg="http://kanjivg.tagaini.net"></path><path class="stroke_order_diagram--current_path" d="M85.71,44.16c0.08,0.47,1.02,2.44,1.1,5.41c0.35,14.27-0.22,37.9-0.22,42.76c0,7.88-6.29-0.49-7.6-1.71" id="Ske31tokn4m" kvg:type="㇚" transform="matrix(1,0,0,1,1296,-4)" xmlns:kvg="http://kanjivg.tagaini.net"></path><circle class="stroke_order_diagram--path_start" cx="85.71" cy="44.16" r="4" transform="matrix(1,0,0,1,1296,-4)"></circle></svg>