<svg class="stroke_order_diagram--svg_container_for_51866287d5dda796580005cf" style="height: 100px; width: 1600px;" viewbox="0 0 1600 100"><desc>Created with Snap</desc><defs></defs><line class="stroke_order_diagram--bounding_box" x1="1" x2="1599" y1="1" y2="1"></line><line class="stroke_order_diagram--bounding_box" x1="1" x2="1" y1="1" y2="99"></line><line class="stroke_order_diagram--bounding_box" x1="1" x2="1599" y1="99" y2="99"></line><line class="stroke_order_diagram--guide_line" x1="0" x2="1600" y1="50" y2="50"></line><line class="stroke_order_diagram--guide_line" x1="50" x2="50" y1="1" y2="99"></line><line class="stroke_order_diagram--bounding_box" x1="99" x2="99" y1="1" y2="99"></line><path class="stroke_order_diagram--current_path" d="M30.25,14.99c0,0.83,0.05,1.49-0.14,2.49c-0.97,5.18-10.22,22.48-18.14,30.15" id="kvg:09310-s1" kvg:type="㇒" transform="matrix(1,0,0,1,-4,-4)" xmlns:kvg="http://kanjivg.tagaini.net"></path><path class="stroke_order_diagram--current_path" d="M30.25,14.99c0,0.83,0.05,1.49-0.14,2.49c-0.97,5.18-10.22,22.48-18.14,30.15" id="Ske1zat8zp" kvg:type="㇒" transform="matrix(1,0,0,1,-4,-4)" xmlns:kvg="http://kanjivg.tagaini.net"></path><circle class="stroke_order_diagram--path_start" cx="30.25" cy="14.99" r="4" transform="matrix(1,0,0,1,-4,-4)"></circle><line class="stroke_order_diagram--guide_line" x1="150" x2="150" y1="1" y2="99"></line><line class="stroke_order_diagram--bounding_box" x1="199" x2="199" y1="1" y2="99"></line><path class="stroke_order_diagram--existing_path" d="M30.25,14.99c0,0.83,0.05,1.49-0.14,2.49c-0.97,5.18-10.22,22.48-18.14,30.15" id="Ske1zat8zs" kvg:type="㇒" transform="matrix(1,0,0,1,96,-4)" xmlns:kvg="http://kanjivg.tagaini.net"></path><path class="stroke_order_diagram--current_path" d="M31.89,20.96c4.47,1.95,10.18,7.13,12.36,12.04" id="kvg:09310-s2" kvg:type="㇔/㇏" transform="matrix(1,0,0,1,96,-4)" xmlns:kvg="http://kanjivg.tagaini.net"></path><path class="stroke_order_diagram--current_path" d="M31.89,20.96c4.47,1.95,10.18,7.13,12.36,12.04" id="Ske1zat8zu" kvg:type="㇔/㇏" transform="matrix(1,0,0,1,96,-4)" xmlns:kvg="http://kanjivg.tagaini.net"></path><circle class="stroke_order_diagram--path_start" cx="31.89" cy="20.96" r="4" transform="matrix(1,0,0,1,96,-4)"></circle><line class="stroke_order_diagram--guide_line" x1="250" x2="250" y1="1" y2="99"></line><line class="stroke_order_diagram--bounding_box" x1="299" x2="299" y1="1" y2="99"></line><path class="stroke_order_diagram--existing_path" d="M30.25,14.99c0,0.83,0.05,1.49-0.14,2.49c-0.97,5.18-10.22,22.48-18.14,30.15" id="Ske1zat8zx" kvg:type="㇒" transform="matrix(1,0,0,1,196,-4)" xmlns:kvg="http://kanjivg.tagaini.net"></path><path class="stroke_order_diagram--existing_path" d="M31.89,20.96c4.47,1.95,10.18,7.13,12.36,12.04" id="Ske1zat8zy" kvg:type="㇔/㇏" transform="matrix(1,0,0,1,196,-4)" xmlns:kvg="http://kanjivg.tagaini.net"></path><path class="stroke_order_diagram--current_path" d="M19.75,43.75c1.5,0.02,3.01,0.28,4.5,0.11c4.5-0.49,7.88-1.36,12.24-1.98c1.16-0.16,2.59-0.38,3.76-0.39" id="kvg:09310-s3" kvg:type="㇐" transform="matrix(1,0,0,1,196,-4)" xmlns:kvg="http://kanjivg.tagaini.net"></path><path class="stroke_order_diagram--current_path" d="M19.75,43.75c1.5,0.02,3.01,0.28,4.5,0.11c4.5-0.49,7.88-1.36,12.24-1.98c1.16-0.16,2.59-0.38,3.76-0.39" id="Ske1zat8z10" kvg:type="㇐" transform="matrix(1,0,0,1,196,-4)" xmlns:kvg="http://kanjivg.tagaini.net"></path><circle class="stroke_order_diagram--path_start" cx="19.75" cy="43.75" r="4" transform="matrix(1,0,0,1,196,-4)"></circle><line class="stroke_order_diagram--guide_line" x1="350" x2="350" y1="1" y2="99"></line><line class="stroke_order_diagram--bounding_box" x1="399" x2="399" y1="1" y2="99"></line><path class="stroke_order_diagram--existing_path" d="M30.25,14.99c0,0.83,0.05,1.49-0.14,2.49c-0.97,5.18-10.22,22.48-18.14,30.15" id="Ske1zat8z13" kvg:type="㇒" transform="matrix(1,0,0,1,296,-4)" xmlns:kvg="http://kanjivg.tagaini.net"></path><path class="stroke_order_diagram--existing_path" d="M31.89,20.96c4.47,1.95,10.18,7.13,12.36,12.04" id="Ske1zat8z14" kvg:type="㇔/㇏" transform="matrix(1,0,0,1,296,-4)" xmlns:kvg="http://kanjivg.tagaini.net"></path><path class="stroke_order_diagram--existing_path" d="M19.75,43.75c1.5,0.02,3.01,0.28,4.5,0.11c4.5-0.49,7.88-1.36,12.24-1.98c1.16-0.16,2.59-0.38,3.76-0.39" id="Ske1zat8z15" kvg:type="㇐" transform="matrix(1,0,0,1,296,-4)" xmlns:kvg="http://kanjivg.tagaini.net"></path><path class="stroke_order_diagram--current_path" d="M13.59,57.81c2.29,0.56,5.31,0.54,7.28,0.22c5.82-0.95,12.25-1.91,18.6-2.91c1.9-0.3,3.65-0.38,5.3-0.15" id="kvg:09310-s4" kvg:type="㇐" transform="matrix(1,0,0,1,296,-4)" xmlns:kvg="http://kanjivg.tagaini.net"></path><path class="stroke_order_diagram--current_path" d="M13.59,57.81c2.29,0.56,5.31,0.54,7.28,0.22c5.82-0.95,12.25-1.91,18.6-2.91c1.9-0.3,3.65-0.38,5.3-0.15" id="Ske1zat8z17" kvg:type="㇐" transform="matrix(1,0,0,1,296,-4)" xmlns:kvg="http://kanjivg.tagaini.net"></path><circle class="stroke_order_diagram--path_start" cx="13.59" cy="57.81" r="4" transform="matrix(1,0,0,1,296,-4)"></circle><line class="stroke_order_diagram--guide_line" x1="450" x2="450" y1="1" y2="99"></line><line class="stroke_order_diagram--bounding_box" x1="499" x2="499" y1="1" y2="99"></line><path class="stroke_order_diagram--existing_path" d="M30.25,14.99c0,0.83,0.05,1.49-0.14,2.49c-0.97,5.18-10.22,22.48-18.14,30.15" id="Ske1zat8z1a" kvg:type="㇒" transform="matrix(1,0,0,1,396,-4)" xmlns:kvg="http://kanjivg.tagaini.net"></path><path class="stroke_order_diagram--existing_path" d="M31.89,20.96c4.47,1.95,10.18,7.13,12.36,12.04" id="Ske1zat8z1b" kvg:type="㇔/㇏" transform="matrix(1,0,0,1,396,-4)" xmlns:kvg="http://kanjivg.tagaini.net"></path><path class="stroke_order_diagram--existing_path" d="M19.75,43.75c1.5,0.02,3.01,0.28,4.5,0.11c4.5-0.49,7.88-1.36,12.24-1.98c1.16-0.16,2.59-0.38,3.76-0.39" id="Ske1zat8z1c" kvg:type="㇐" transform="matrix(1,0,0,1,396,-4)" xmlns:kvg="http://kanjivg.tagaini.net"></path><path class="stroke_order_diagram--existing_path" d="M13.59,57.81c2.29,0.56,5.31,0.54,7.28,0.22c5.82-0.95,12.25-1.91,18.6-2.91c1.9-0.3,3.65-0.38,5.3-0.15" id="Ske1zat8z1d" kvg:type="㇐" transform="matrix(1,0,0,1,396,-4)" xmlns:kvg="http://kanjivg.tagaini.net"></path><path class="stroke_order_diagram--current_path" d="M29.2,46.19C30,47,30.19,48,30.19,49.33c0,4.35,0.06,31.29,0.06,36.73" id="kvg:09310-s5" kvg:type="㇑a" transform="matrix(1,0,0,1,396,-4)" xmlns:kvg="http://kanjivg.tagaini.net"></path><path class="stroke_order_diagram--current_path" d="M29.2,46.19C30,47,30.19,48,30.19,49.33c0,4.35,0.06,31.29,0.06,36.73" id="Ske1zat8z1f" kvg:type="㇑a" transform="matrix(1,0,0,1,396,-4)" xmlns:kvg="http://kanjivg.tagaini.net"></path><circle class="stroke_order_diagram--path_start" cx="29.2" cy="46.19" r="4" transform="matrix(1,0,0,1,396,-4)"></circle><line class="stroke_order_diagram--guide_line" x1="550" x2="550" y1="1" y2="99"></line><line class="stroke_order_diagram--bounding_box" x1="599" x2="599" y1="1" y2="99"></line><path class="stroke_order_diagram--existing_path" d="M30.25,14.99c0,0.83,0.05,1.49-0.14,2.49c-0.97,5.18-10.22,22.48-18.14,30.15" id="Ske1zat8z1i" kvg:type="㇒" transform="matrix(1,0,0,1,496,-4)" xmlns:kvg="http://kanjivg.tagaini.net"></path><path class="stroke_order_diagram--existing_path" d="M31.89,20.96c4.47,1.95,10.18,7.13,12.36,12.04" id="Ske1zat8z1j" kvg:type="㇔/㇏" transform="matrix(1,0,0,1,496,-4)" xmlns:kvg="http://kanjivg.tagaini.net"></path><path class="stroke_order_diagram--existing_path" d="M19.75,43.75c1.5,0.02,3.01,0.28,4.5,0.11c4.5-0.49,7.88-1.36,12.24-1.98c1.16-0.16,2.59-0.38,3.76-0.39" id="Ske1zat8z1k" kvg:type="㇐" transform="matrix(1,0,0,1,496,-4)" xmlns:kvg="http://kanjivg.tagaini.net"></path><path class="stroke_order_diagram--existing_path" d="M13.59,57.81c2.29,0.56,5.31,0.54,7.28,0.22c5.82-0.95,12.25-1.91,18.6-2.91c1.9-0.3,3.65-0.38,5.3-0.15" id="Ske1zat8z1l" kvg:type="㇐" transform="matrix(1,0,0,1,496,-4)" xmlns:kvg="http://kanjivg.tagaini.net"></path><path class="stroke_order_diagram--existing_path" d="M29.2,46.19C30,47,30.19,48,30.19,49.33c0,4.35,0.06,31.29,0.06,36.73" id="Ske1zat8z1m" kvg:type="㇑a" transform="matrix(1,0,0,1,496,-4)" xmlns:kvg="http://kanjivg.tagaini.net"></path><path class="stroke_order_diagram--current_path" d="M16.14,70.01c2.61,3.49,5.28,8.88,5.9,11.44" id="kvg:09310-s6" kvg:type="㇔" transform="matrix(1,0,0,1,496,-4)" xmlns:kvg="http://kanjivg.tagaini.net"></path><path class="stroke_order_diagram--current_path" d="M16.14,70.01c2.61,3.49,5.28,8.88,5.9,11.44" id="Ske1zat8z1o" kvg:type="㇔" transform="matrix(1,0,0,1,496,-4)" xmlns:kvg="http://kanjivg.tagaini.net"></path><circle class="stroke_order_diagram--path_start" cx="16.14" cy="70.01" r="4" transform="matrix(1,0,0,1,496,-4)"></circle><line class="stroke_order_diagram--guide_line" x1="650" x2="650" y1="1" y2="99"></line><line class="stroke_order_diagram--bounding_box" x1="699" x2="699" y1="1" y2="99"></line><path class="stroke_order_diagram--existing_path" d="M30.25,14.99c0,0.83,0.05,1.49-0.14,2.49c-0.97,5.18-10.22,22.48-18.14,30.15" id="Ske1zat8z1r" kvg:type="㇒" transform="matrix(1,0,0,1,596,-4)" xmlns:kvg="http://kanjivg.tagaini.net"></path><path class="stroke_order_diagram--existing_path" d="M31.89,20.96c4.47,1.95,10.18,7.13,12.36,12.04" id="Ske1zat8z1s" kvg:type="㇔/㇏" transform="matrix(1,0,0,1,596,-4)" xmlns:kvg="http://kanjivg.tagaini.net"></path><path class="stroke_order_diagram--existing_path" d="M19.75,43.75c1.5,0.02,3.01,0.28,4.5,0.11c4.5-0.49,7.88-1.36,12.24-1.98c1.16-0.16,2.59-0.38,3.76-0.39" id="Ske1zat8z1t" kvg:type="㇐" transform="matrix(1,0,0,1,596,-4)" xmlns:kvg="http://kanjivg.tagaini.net"></path><path class="stroke_order_diagram--existing_path" d="M13.59,57.81c2.29,0.56,5.31,0.54,7.28,0.22c5.82-0.95,12.25-1.91,18.6-2.91c1.9-0.3,3.65-0.38,5.3-0.15" id="Ske1zat8z1u" kvg:type="㇐" transform="matrix(1,0,0,1,596,-4)" xmlns:kvg="http://kanjivg.tagaini.net"></path><path class="stroke_order_diagram--existing_path" d="M29.2,46.19C30,47,30.19,48,30.19,49.33c0,4.35,0.06,31.29,0.06,36.73" id="Ske1zat8z1v" kvg:type="㇑a" transform="matrix(1,0,0,1,596,-4)" xmlns:kvg="http://kanjivg.tagaini.net"></path><path class="stroke_order_diagram--existing_path" d="M16.14,70.01c2.61,3.49,5.28,8.88,5.9,11.44" id="Ske1zat8z1w" kvg:type="㇔" transform="matrix(1,0,0,1,596,-4)" xmlns:kvg="http://kanjivg.tagaini.net"></path><path class="stroke_order_diagram--current_path" d="M44.12,64.05c0,1.2-0.24,2.14-0.59,2.88c-1.28,2.7-3.16,5.82-7.36,11.6" id="kvg:09310-s7" kvg:type="㇒" transform="matrix(1,0,0,1,596,-4)" xmlns:kvg="http://kanjivg.tagaini.net"></path><path class="stroke_order_diagram--current_path" d="M44.12,64.05c0,1.2-0.24,2.14-0.59,2.88c-1.28,2.7-3.16,5.82-7.36,11.6" id="Ske1zat8z1y" kvg:type="㇒" transform="matrix(1,0,0,1,596,-4)" xmlns:kvg="http://kanjivg.tagaini.net"></path><circle class="stroke_order_diagram--path_start" cx="44.12" cy="64.05" r="4" transform="matrix(1,0,0,1,596,-4)"></circle><line class="stroke_order_diagram--guide_line" x1="750" x2="750" y1="1" y2="99"></line><line class="stroke_order_diagram--bounding_box" x1="799" x2="799" y1="1" y2="99"></line><path class="stroke_order_diagram--existing_path" d="M30.25,14.99c0,0.83,0.05,1.49-0.14,2.49c-0.97,5.18-10.22,22.48-18.14,30.15" id="Ske1zat8z21" kvg:type="㇒" transform="matrix(1,0,0,1,696,-4)" xmlns:kvg="http://kanjivg.tagaini.net"></path><path class="stroke_order_diagram--existing_path" d="M31.89,20.96c4.47,1.95,10.18,7.13,12.36,12.04" id="Ske1zat8z22" kvg:type="㇔/㇏" transform="matrix(1,0,0,1,696,-4)" xmlns:kvg="http://kanjivg.tagaini.net"></path><path class="stroke_order_diagram--existing_path" d="M19.75,43.75c1.5,0.02,3.01,0.28,4.5,0.11c4.5-0.49,7.88-1.36,12.24-1.98c1.16-0.16,2.59-0.38,3.76-0.39" id="Ske1zat8z23" kvg:type="㇐" transform="matrix(1,0,0,1,696,-4)" xmlns:kvg="http://kanjivg.tagaini.net"></path><path class="stroke_order_diagram--existing_path" d="M13.59,57.81c2.29,0.56,5.31,0.54,7.28,0.22c5.82-0.95,12.25-1.91,18.6-2.91c1.9-0.3,3.65-0.38,5.3-0.15" id="Ske1zat8z24" kvg:type="㇐" transform="matrix(1,0,0,1,696,-4)" xmlns:kvg="http://kanjivg.tagaini.net"></path><path class="stroke_order_diagram--existing_path" d="M29.2,46.19C30,47,30.19,48,30.19,49.33c0,4.35,0.06,31.29,0.06,36.73" id="Ske1zat8z25" kvg:type="㇑a" transform="matrix(1,0,0,1,696,-4)" xmlns:kvg="http://kanjivg.tagaini.net"></path><path class="stroke_order_diagram--existing_path" d="M16.14,70.01c2.61,3.49,5.28,8.88,5.9,11.44" id="Ske1zat8z26" kvg:type="㇔" transform="matrix(1,0,0,1,696,-4)" xmlns:kvg="http://kanjivg.tagaini.net"></path><path class="stroke_order_diagram--existing_path" d="M44.12,64.05c0,1.2-0.24,2.14-0.59,2.88c-1.28,2.7-3.16,5.82-7.36,11.6" id="Ske1zat8z27" kvg:type="㇒" transform="matrix(1,0,0,1,696,-4)" xmlns:kvg="http://kanjivg.tagaini.net"></path><path class="stroke_order_diagram--current_path" d="M14,91.33c1.25,1.05,2.8,1.06,4.82,0.18C22.25,90,29.96,87,44,81.25" id="kvg:09310-s8" kvg:type="㇀/㇐" transform="matrix(1,0,0,1,696,-4)" xmlns:kvg="http://kanjivg.tagaini.net"></path><path class="stroke_order_diagram--current_path" d="M14,91.33c1.25,1.05,2.8,1.06,4.82,0.18C22.25,90,29.96,87,44,81.25" id="Ske1zat8z29" kvg:type="㇀/㇐" transform="matrix(1,0,0,1,696,-4)" xmlns:kvg="http://kanjivg.tagaini.net"></path><circle class="stroke_order_diagram--path_start" cx="14" cy="91.33" r="4" transform="matrix(1,0,0,1,696,-4)"></circle><line class="stroke_order_diagram--guide_line" x1="850" x2="850" y1="1" y2="99"></line><line class="stroke_order_diagram--bounding_box" x1="899" x2="899" y1="1" y2="99"></line><path class="stroke_order_diagram--existing_path" d="M30.25,14.99c0,0.83,0.05,1.49-0.14,2.49c-0.97,5.18-10.22,22.48-18.14,30.15" id="Ske1zat8z2c" kvg:type="㇒" transform="matrix(1,0,0,1,796,-4)" xmlns:kvg="http://kanjivg.tagaini.net"></path><path class="stroke_order_diagram--existing_path" d="M31.89,20.96c4.47,1.95,10.18,7.13,12.36,12.04" id="Ske1zat8z2d" kvg:type="㇔/㇏" transform="matrix(1,0,0,1,796,-4)" xmlns:kvg="http://kanjivg.tagaini.net"></path><path class="stroke_order_diagram--existing_path" d="M19.75,43.75c1.5,0.02,3.01,0.28,4.5,0.11c4.5-0.49,7.88-1.36,12.24-1.98c1.16-0.16,2.59-0.38,3.76-0.39" id="Ske1zat8z2e" kvg:type="㇐" transform="matrix(1,0,0,1,796,-4)" xmlns:kvg="http://kanjivg.tagaini.net"></path><path class="stroke_order_diagram--existing_path" d="M13.59,57.81c2.29,0.56,5.31,0.54,7.28,0.22c5.82-0.95,12.25-1.91,18.6-2.91c1.9-0.3,3.65-0.38,5.3-0.15" id="Ske1zat8z2f" kvg:type="㇐" transform="matrix(1,0,0,1,796,-4)" xmlns:kvg="http://kanjivg.tagaini.net"></path><path class="stroke_order_diagram--existing_path" d="M29.2,46.19C30,47,30.19,48,30.19,49.33c0,4.35,0.06,31.29,0.06,36.73" id="Ske1zat8z2g" kvg:type="㇑a" transform="matrix(1,0,0,1,796,-4)" xmlns:kvg="http://kanjivg.tagaini.net"></path><path class="stroke_order_diagram--existing_path" d="M16.14,70.01c2.61,3.49,5.28,8.88,5.9,11.44" id="Ske1zat8z2h" kvg:type="㇔" transform="matrix(1,0,0,1,796,-4)" xmlns:kvg="http://kanjivg.tagaini.net"></path><path class="stroke_order_diagram--existing_path" d="M44.12,64.05c0,1.2-0.24,2.14-0.59,2.88c-1.28,2.7-3.16,5.82-7.36,11.6" id="Ske1zat8z2i" kvg:type="㇒" transform="matrix(1,0,0,1,796,-4)" xmlns:kvg="http://kanjivg.tagaini.net"></path><path class="stroke_order_diagram--existing_path" d="M14,91.33c1.25,1.05,2.8,1.06,4.82,0.18C22.25,90,29.96,87,44,81.25" id="Ske1zat8z2j" kvg:type="㇀/㇐" transform="matrix(1,0,0,1,796,-4)" xmlns:kvg="http://kanjivg.tagaini.net"></path><path class="stroke_order_diagram--current_path" d="M62.13,17.5c0.16,1.63-0.05,3.02-0.57,4.41c-3.36,8.9-7.61,16.69-15.3,27.52" id="kvg:09310-s9" kvg:type="㇒" transform="matrix(1,0,0,1,796,-4)" xmlns:kvg="http://kanjivg.tagaini.net"></path><path class="stroke_order_diagram--current_path" d="M62.13,17.5c0.16,1.63-0.05,3.02-0.57,4.41c-3.36,8.9-7.61,16.69-15.3,27.52" id="Ske1zat8z2l" kvg:type="㇒" transform="matrix(1,0,0,1,796,-4)" xmlns:kvg="http://kanjivg.tagaini.net"></path><circle class="stroke_order_diagram--path_start" cx="62.13" cy="17.5" r="4" transform="matrix(1,0,0,1,796,-4)"></circle><line class="stroke_order_diagram--guide_line" x1="950" x2="950" y1="1" y2="99"></line><line class="stroke_order_diagram--bounding_box" x1="999" x2="999" y1="1" y2="99"></line><path class="stroke_order_diagram--existing_path" d="M30.25,14.99c0,0.83,0.05,1.49-0.14,2.49c-0.97,5.18-10.22,22.48-18.14,30.15" id="Ske1zat8z2o" kvg:type="㇒" transform="matrix(1,0,0,1,896,-4)" xmlns:kvg="http://kanjivg.tagaini.net"></path><path class="stroke_order_diagram--existing_path" d="M31.89,20.96c4.47,1.95,10.18,7.13,12.36,12.04" id="Ske1zat8z2p" kvg:type="㇔/㇏" transform="matrix(1,0,0,1,896,-4)" xmlns:kvg="http://kanjivg.tagaini.net"></path><path class="stroke_order_diagram--existing_path" d="M19.75,43.75c1.5,0.02,3.01,0.28,4.5,0.11c4.5-0.49,7.88-1.36,12.24-1.98c1.16-0.16,2.59-0.38,3.76-0.39" id="Ske1zat8z2q" kvg:type="㇐" transform="matrix(1,0,0,1,896,-4)" xmlns:kvg="http://kanjivg.tagaini.net"></path><path class="stroke_order_diagram--existing_path" d="M13.59,57.81c2.29,0.56,5.31,0.54,7.28,0.22c5.82-0.95,12.25-1.91,18.6-2.91c1.9-0.3,3.65-0.38,5.3-0.15" id="Ske1zat8z2r" kvg:type="㇐" transform="matrix(1,0,0,1,896,-4)" xmlns:kvg="http://kanjivg.tagaini.net"></path><path class="stroke_order_diagram--existing_path" d="M29.2,46.19C30,47,30.19,48,30.19,49.33c0,4.35,0.06,31.29,0.06,36.73" id="Ske1zat8z2s" kvg:type="㇑a" transform="matrix(1,0,0,1,896,-4)" xmlns:kvg="http://kanjivg.tagaini.net"></path><path class="stroke_order_diagram--existing_path" d="M16.14,70.01c2.61,3.49,5.28,8.88,5.9,11.44" id="Ske1zat8z2t" kvg:type="㇔" transform="matrix(1,0,0,1,896,-4)" xmlns:kvg="http://kanjivg.tagaini.net"></path><path class="stroke_order_diagram--existing_path" d="M44.12,64.05c0,1.2-0.24,2.14-0.59,2.88c-1.28,2.7-3.16,5.82-7.36,11.6" id="Ske1zat8z2u" kvg:type="㇒" transform="matrix(1,0,0,1,896,-4)" xmlns:kvg="http://kanjivg.tagaini.net"></path><path class="stroke_order_diagram--existing_path" d="M14,91.33c1.25,1.05,2.8,1.06,4.82,0.18C22.25,90,29.96,87,44,81.25" id="Ske1zat8z2v" kvg:type="㇀/㇐" transform="matrix(1,0,0,1,896,-4)" xmlns:kvg="http://kanjivg.tagaini.net"></path><path class="stroke_order_diagram--existing_path" d="M62.13,17.5c0.16,1.63-0.05,3.02-0.57,4.41c-3.36,8.9-7.61,16.69-15.3,27.52" id="Ske1zat8z2w" kvg:type="㇒" transform="matrix(1,0,0,1,896,-4)" xmlns:kvg="http://kanjivg.tagaini.net"></path><path class="stroke_order_diagram--current_path" d="M54.94,38.65c0.83,0.83,0.9,2.3,0.9,3.66c0,6.45-0.05,30.06-0.07,43.31c-0.01,5.1-0.02,8.66-0.02,9.13" id="kvg:09310-s10" kvg:type="㇑" transform="matrix(1,0,0,1,896,-4)" xmlns:kvg="http://kanjivg.tagaini.net"></path><path class="stroke_order_diagram--current_path" d="M54.94,38.65c0.83,0.83,0.9,2.3,0.9,3.66c0,6.45-0.05,30.06-0.07,43.31c-0.01,5.1-0.02,8.66-0.02,9.13" id="Ske1zat8z2y" kvg:type="㇑" transform="matrix(1,0,0,1,896,-4)" xmlns:kvg="http://kanjivg.tagaini.net"></path><circle class="stroke_order_diagram--path_start" cx="54.94" cy="38.65" r="4" transform="matrix(1,0,0,1,896,-4)"></circle><line class="stroke_order_diagram--guide_line" x1="1050" x2="1050" y1="1" y2="99"></line><line class="stroke_order_diagram--bounding_box" x1="1099" x2="1099" y1="1" y2="99"></line><path class="stroke_order_diagram--existing_path" d="M30.25,14.99c0,0.83,0.05,1.49-0.14,2.49c-0.97,5.18-10.22,22.48-18.14,30.15" id="Ske1zat8z31" kvg:type="㇒" transform="matrix(1,0,0,1,996,-4)" xmlns:kvg="http://kanjivg.tagaini.net"></path><path class="stroke_order_diagram--existing_path" d="M31.89,20.96c4.47,1.95,10.18,7.13,12.36,12.04" id="Ske1zat8z32" kvg:type="㇔/㇏" transform="matrix(1,0,0,1,996,-4)" xmlns:kvg="http://kanjivg.tagaini.net"></path><path class="stroke_order_diagram--existing_path" d="M19.75,43.75c1.5,0.02,3.01,0.28,4.5,0.11c4.5-0.49,7.88-1.36,12.24-1.98c1.16-0.16,2.59-0.38,3.76-0.39" id="Ske1zat8z33" kvg:type="㇐" transform="matrix(1,0,0,1,996,-4)" xmlns:kvg="http://kanjivg.tagaini.net"></path><path class="stroke_order_diagram--existing_path" d="M13.59,57.81c2.29,0.56,5.31,0.54,7.28,0.22c5.82-0.95,12.25-1.91,18.6-2.91c1.9-0.3,3.65-0.38,5.3-0.15" id="Ske1zat8z34" kvg:type="㇐" transform="matrix(1,0,0,1,996,-4)" xmlns:kvg="http://kanjivg.tagaini.net"></path><path class="stroke_order_diagram--existing_path" d="M29.2,46.19C30,47,30.19,48,30.19,49.33c0,4.35,0.06,31.29,0.06,36.73" id="Ske1zat8z35" kvg:type="㇑a" transform="matrix(1,0,0,1,996,-4)" xmlns:kvg="http://kanjivg.tagaini.net"></path><path class="stroke_order_diagram--existing_path" d="M16.14,70.01c2.61,3.49,5.28,8.88,5.9,11.44" id="Ske1zat8z36" kvg:type="㇔" transform="matrix(1,0,0,1,996,-4)" xmlns:kvg="http://kanjivg.tagaini.net"></path><path class="stroke_order_diagram--existing_path" d="M44.12,64.05c0,1.2-0.24,2.14-0.59,2.88c-1.28,2.7-3.16,5.82-7.36,11.6" id="Ske1zat8z37" kvg:type="㇒" transform="matrix(1,0,0,1,996,-4)" xmlns:kvg="http://kanjivg.tagaini.net"></path><path class="stroke_order_diagram--existing_path" d="M14,91.33c1.25,1.05,2.8,1.06,4.82,0.18C22.25,90,29.96,87,44,81.25" id="Ske1zat8z38" kvg:type="㇀/㇐" transform="matrix(1,0,0,1,996,-4)" xmlns:kvg="http://kanjivg.tagaini.net"></path><path class="stroke_order_diagram--existing_path" d="M62.13,17.5c0.16,1.63-0.05,3.02-0.57,4.41c-3.36,8.9-7.61,16.69-15.3,27.52" id="Ske1zat8z39" kvg:type="㇒" transform="matrix(1,0,0,1,996,-4)" xmlns:kvg="http://kanjivg.tagaini.net"></path><path class="stroke_order_diagram--existing_path" d="M54.94,38.65c0.83,0.83,0.9,2.3,0.9,3.66c0,6.45-0.05,30.06-0.07,43.31c-0.01,5.1-0.02,8.66-0.02,9.13" id="Ske1zat8z3a" kvg:type="㇑" transform="matrix(1,0,0,1,996,-4)" xmlns:kvg="http://kanjivg.tagaini.net"></path><path class="stroke_order_diagram--current_path" d="M79.69,18c0.07,0.92-0.22,1.88-0.49,2.65c-1.82,5.1-2.76,7.62-6.06,13.71" id="kvg:09310-s11" kvg:type="㇒" transform="matrix(1,0,0,1,996,-4)" xmlns:kvg="http://kanjivg.tagaini.net"></path><path class="stroke_order_diagram--current_path" d="M79.69,18c0.07,0.92-0.22,1.88-0.49,2.65c-1.82,5.1-2.76,7.62-6.06,13.71" id="Ske1zat8z3c" kvg:type="㇒" transform="matrix(1,0,0,1,996,-4)" xmlns:kvg="http://kanjivg.tagaini.net"></path><circle class="stroke_order_diagram--path_start" cx="79.69" cy="18" r="4" transform="matrix(1,0,0,1,996,-4)"></circle><line class="stroke_order_diagram--guide_line" x1="1150" x2="1150" y1="1" y2="99"></line><line class="stroke_order_diagram--bounding_box" x1="1199" x2="1199" y1="1" y2="99"></line><path class="stroke_order_diagram--existing_path" d="M30.25,14.99c0,0.83,0.05,1.49-0.14,2.49c-0.97,5.18-10.22,22.48-18.14,30.15" id="Ske1zat8z3f" kvg:type="㇒" transform="matrix(1,0,0,1,1096,-4)" xmlns:kvg="http://kanjivg.tagaini.net"></path><path class="stroke_order_diagram--existing_path" d="M31.89,20.96c4.47,1.95,10.18,7.13,12.36,12.04" id="Ske1zat8z3g" kvg:type="㇔/㇏" transform="matrix(1,0,0,1,1096,-4)" xmlns:kvg="http://kanjivg.tagaini.net"></path><path class="stroke_order_diagram--existing_path" d="M19.75,43.75c1.5,0.02,3.01,0.28,4.5,0.11c4.5-0.49,7.88-1.36,12.24-1.98c1.16-0.16,2.59-0.38,3.76-0.39" id="Ske1zat8z3h" kvg:type="㇐" transform="matrix(1,0,0,1,1096,-4)" xmlns:kvg="http://kanjivg.tagaini.net"></path><path class="stroke_order_diagram--existing_path" d="M13.59,57.81c2.29,0.56,5.31,0.54,7.28,0.22c5.82-0.95,12.25-1.91,18.6-2.91c1.9-0.3,3.65-0.38,5.3-0.15" id="Ske1zat8z3i" kvg:type="㇐" transform="matrix(1,0,0,1,1096,-4)" xmlns:kvg="http://kanjivg.tagaini.net"></path><path class="stroke_order_diagram--existing_path" d="M29.2,46.19C30,47,30.19,48,30.19,49.33c0,4.35,0.06,31.29,0.06,36.73" id="Ske1zat8z3j" kvg:type="㇑a" transform="matrix(1,0,0,1,1096,-4)" xmlns:kvg="http://kanjivg.tagaini.net"></path><path class="stroke_order_diagram--existing_path" d="M16.14,70.01c2.61,3.49,5.28,8.88,5.9,11.44" id="Ske1zat8z3k" kvg:type="㇔" transform="matrix(1,0,0,1,1096,-4)" xmlns:kvg="http://kanjivg.tagaini.net"></path><path class="stroke_order_diagram--existing_path" d="M44.12,64.05c0,1.2-0.24,2.14-0.59,2.88c-1.28,2.7-3.16,5.82-7.36,11.6" id="Ske1zat8z3l" kvg:type="㇒" transform="matrix(1,0,0,1,1096,-4)" xmlns:kvg="http://kanjivg.tagaini.net"></path><path class="stroke_order_diagram--existing_path" d="M14,91.33c1.25,1.05,2.8,1.06,4.82,0.18C22.25,90,29.96,87,44,81.25" id="Ske1zat8z3m" kvg:type="㇀/㇐" transform="matrix(1,0,0,1,1096,-4)" xmlns:kvg="http://kanjivg.tagaini.net"></path><path class="stroke_order_diagram--existing_path" d="M62.13,17.5c0.16,1.63-0.05,3.02-0.57,4.41c-3.36,8.9-7.61,16.69-15.3,27.52" id="Ske1zat8z3n" kvg:type="㇒" transform="matrix(1,0,0,1,1096,-4)" xmlns:kvg="http://kanjivg.tagaini.net"></path><path class="stroke_order_diagram--existing_path" d="M54.94,38.65c0.83,0.83,0.9,2.3,0.9,3.66c0,6.45-0.05,30.06-0.07,43.31c-0.01,5.1-0.02,8.66-0.02,9.13" id="Ske1zat8z3o" kvg:type="㇑" transform="matrix(1,0,0,1,1096,-4)" xmlns:kvg="http://kanjivg.tagaini.net"></path><path class="stroke_order_diagram--existing_path" d="M79.69,18c0.07,0.92-0.22,1.88-0.49,2.65c-1.82,5.1-2.76,7.62-6.06,13.71" id="Ske1zat8z3p" kvg:type="㇒" transform="matrix(1,0,0,1,1096,-4)" xmlns:kvg="http://kanjivg.tagaini.net"></path><path class="stroke_order_diagram--current_path" d="M56.16,38.41c6.85-0.75,20.21-2.04,30.08-2.82c3.32-0.26,5.77-0.6,6.64-0.77" id="kvg:09310-s12" kvg:type="㇐b" transform="matrix(1,0,0,1,1096,-4)" xmlns:kvg="http://kanjivg.tagaini.net"></path><path class="stroke_order_diagram--current_path" d="M56.16,38.41c6.85-0.75,20.21-2.04,30.08-2.82c3.32-0.26,5.77-0.6,6.64-0.77" id="Ske1zat8z3r" kvg:type="㇐b" transform="matrix(1,0,0,1,1096,-4)" xmlns:kvg="http://kanjivg.tagaini.net"></path><circle class="stroke_order_diagram--path_start" cx="56.16" cy="38.41" r="4" transform="matrix(1,0,0,1,1096,-4)"></circle><line class="stroke_order_diagram--guide_line" x1="1250" x2="1250" y1="1" y2="99"></line><line class="stroke_order_diagram--bounding_box" x1="1299" x2="1299" y1="1" y2="99"></line><path class="stroke_order_diagram--existing_path" d="M30.25,14.99c0,0.83,0.05,1.49-0.14,2.49c-0.97,5.18-10.22,22.48-18.14,30.15" id="Ske1zat8z3u" kvg:type="㇒" transform="matrix(1,0,0,1,1196,-4)" xmlns:kvg="http://kanjivg.tagaini.net"></path><path class="stroke_order_diagram--existing_path" d="M31.89,20.96c4.47,1.95,10.18,7.13,12.36,12.04" id="Ske1zat8z3v" kvg:type="㇔/㇏" transform="matrix(1,0,0,1,1196,-4)" xmlns:kvg="http://kanjivg.tagaini.net"></path><path class="stroke_order_diagram--existing_path" d="M19.75,43.75c1.5,0.02,3.01,0.28,4.5,0.11c4.5-0.49,7.88-1.36,12.24-1.98c1.16-0.16,2.59-0.38,3.76-0.39" id="Ske1zat8z3w" kvg:type="㇐" transform="matrix(1,0,0,1,1196,-4)" xmlns:kvg="http://kanjivg.tagaini.net"></path><path class="stroke_order_diagram--existing_path" d="M13.59,57.81c2.29,0.56,5.31,0.54,7.28,0.22c5.82-0.95,12.25-1.91,18.6-2.91c1.9-0.3,3.65-0.38,5.3-0.15" id="Ske1zat8z3x" kvg:type="㇐" transform="matrix(1,0,0,1,1196,-4)" xmlns:kvg="http://kanjivg.tagaini.net"></path><path class="stroke_order_diagram--existing_path" d="M29.2,46.19C30,47,30.19,48,30.19,49.33c0,4.35,0.06,31.29,0.06,36.73" id="Ske1zat8z3y" kvg:type="㇑a" transform="matrix(1,0,0,1,1196,-4)" xmlns:kvg="http://kanjivg.tagaini.net"></path><path class="stroke_order_diagram--existing_path" d="M16.14,70.01c2.61,3.49,5.28,8.88,5.9,11.44" id="Ske1zat8z3z" kvg:type="㇔" transform="matrix(1,0,0,1,1196,-4)" xmlns:kvg="http://kanjivg.tagaini.net"></path><path class="stroke_order_diagram--existing_path" d="M44.12,64.05c0,1.2-0.24,2.14-0.59,2.88c-1.28,2.7-3.16,5.82-7.36,11.6" id="Ske1zat8z40" kvg:type="㇒" transform="matrix(1,0,0,1,1196,-4)" xmlns:kvg="http://kanjivg.tagaini.net"></path><path class="stroke_order_diagram--existing_path" d="M14,91.33c1.25,1.05,2.8,1.06,4.82,0.18C22.25,90,29.96,87,44,81.25" id="Ske1zat8z41" kvg:type="㇀/㇐" transform="matrix(1,0,0,1,1196,-4)" xmlns:kvg="http://kanjivg.tagaini.net"></path><path class="stroke_order_diagram--existing_path" d="M62.13,17.5c0.16,1.63-0.05,3.02-0.57,4.41c-3.36,8.9-7.61,16.69-15.3,27.52" id="Ske1zat8z42" kvg:type="㇒" transform="matrix(1,0,0,1,1196,-4)" xmlns:kvg="http://kanjivg.tagaini.net"></path><path class="stroke_order_diagram--existing_path" d="M54.94,38.65c0.83,0.83,0.9,2.3,0.9,3.66c0,6.45-0.05,30.06-0.07,43.31c-0.01,5.1-0.02,8.66-0.02,9.13" id="Ske1zat8z43" kvg:type="㇑" transform="matrix(1,0,0,1,1196,-4)" xmlns:kvg="http://kanjivg.tagaini.net"></path><path class="stroke_order_diagram--existing_path" d="M79.69,18c0.07,0.92-0.22,1.88-0.49,2.65c-1.82,5.1-2.76,7.62-6.06,13.71" id="Ske1zat8z44" kvg:type="㇒" transform="matrix(1,0,0,1,1196,-4)" xmlns:kvg="http://kanjivg.tagaini.net"></path><path class="stroke_order_diagram--existing_path" d="M56.16,38.41c6.85-0.75,20.21-2.04,30.08-2.82c3.32-0.26,5.77-0.6,6.64-0.77" id="Ske1zat8z45" kvg:type="㇐b" transform="matrix(1,0,0,1,1196,-4)" xmlns:kvg="http://kanjivg.tagaini.net"></path><path class="stroke_order_diagram--current_path" d="M74.48,38.83c0.97,0.97,1.13,2.54,1.13,3.79c0,9.69-0.12,33.08-0.12,44.62" id="kvg:09310-s13" kvg:type="㇑a" transform="matrix(1,0,0,1,1196,-4)" xmlns:kvg="http://kanjivg.tagaini.net"></path><path class="stroke_order_diagram--current_path" d="M74.48,38.83c0.97,0.97,1.13,2.54,1.13,3.79c0,9.69-0.12,33.08-0.12,44.62" id="Ske1zat8z47" kvg:type="㇑a" transform="matrix(1,0,0,1,1196,-4)" xmlns:kvg="http://kanjivg.tagaini.net"></path><circle class="stroke_order_diagram--path_start" cx="74.48" cy="38.83" r="4" transform="matrix(1,0,0,1,1196,-4)"></circle><line class="stroke_order_diagram--guide_line" x1="1350" x2="1350" y1="1" y2="99"></line><line class="stroke_order_diagram--bounding_box" x1="1399" x2="1399" y1="1" y2="99"></line><path class="stroke_order_diagram--existing_path" d="M30.25,14.99c0,0.83,0.05,1.49-0.14,2.49c-0.97,5.18-10.22,22.48-18.14,30.15" id="Ske1zat8z4a" kvg:type="㇒" transform="matrix(1,0,0,1,1296,-4)" xmlns:kvg="http://kanjivg.tagaini.net"></path><path class="stroke_order_diagram--existing_path" d="M31.89,20.96c4.47,1.95,10.18,7.13,12.36,12.04" id="Ske1zat8z4b" kvg:type="㇔/㇏" transform="matrix(1,0,0,1,1296,-4)" xmlns:kvg="http://kanjivg.tagaini.net"></path><path class="stroke_order_diagram--existing_path" d="M19.75,43.75c1.5,0.02,3.01,0.28,4.5,0.11c4.5-0.49,7.88-1.36,12.24-1.98c1.16-0.16,2.59-0.38,3.76-0.39" id="Ske1zat8z4c" kvg:type="㇐" transform="matrix(1,0,0,1,1296,-4)" xmlns:kvg="http://kanjivg.tagaini.net"></path><path class="stroke_order_diagram--existing_path" d="M13.59,57.81c2.29,0.56,5.31,0.54,7.28,0.22c5.82-0.95,12.25-1.91,18.6-2.91c1.9-0.3,3.65-0.38,5.3-0.15" id="Ske1zat8z4d" kvg:type="㇐" transform="matrix(1,0,0,1,1296,-4)" xmlns:kvg="http://kanjivg.tagaini.net"></path><path class="stroke_order_diagram--existing_path" d="M29.2,46.19C30,47,30.19,48,30.19,49.33c0,4.35,0.06,31.29,0.06,36.73" id="Ske1zat8z4e" kvg:type="㇑a" transform="matrix(1,0,0,1,1296,-4)" xmlns:kvg="http://kanjivg.tagaini.net"></path><path class="stroke_order_diagram--existing_path" d="M16.14,70.01c2.61,3.49,5.28,8.88,5.9,11.44" id="Ske1zat8z4f" kvg:type="㇔" transform="matrix(1,0,0,1,1296,-4)" xmlns:kvg="http://kanjivg.tagaini.net"></path><path class="stroke_order_diagram--existing_path" d="M44.12,64.05c0,1.2-0.24,2.14-0.59,2.88c-1.28,2.7-3.16,5.82-7.36,11.6" id="Ske1zat8z4g" kvg:type="㇒" transform="matrix(1,0,0,1,1296,-4)" xmlns:kvg="http://kanjivg.tagaini.net"></path><path class="stroke_order_diagram--existing_path" d="M14,91.33c1.25,1.05,2.8,1.06,4.82,0.18C22.25,90,29.96,87,44,81.25" id="Ske1zat8z4h" kvg:type="㇀/㇐" transform="matrix(1,0,0,1,1296,-4)" xmlns:kvg="http://kanjivg.tagaini.net"></path><path class="stroke_order_diagram--existing_path" d="M62.13,17.5c0.16,1.63-0.05,3.02-0.57,4.41c-3.36,8.9-7.61,16.69-15.3,27.52" id="Ske1zat8z4i" kvg:type="㇒" transform="matrix(1,0,0,1,1296,-4)" xmlns:kvg="http://kanjivg.tagaini.net"></path><path class="stroke_order_diagram--existing_path" d="M54.94,38.65c0.83,0.83,0.9,2.3,0.9,3.66c0,6.45-0.05,30.06-0.07,43.31c-0.01,5.1-0.02,8.66-0.02,9.13" id="Ske1zat8z4j" kvg:type="㇑" transform="matrix(1,0,0,1,1296,-4)" xmlns:kvg="http://kanjivg.tagaini.net"></path><path class="stroke_order_diagram--existing_path" d="M79.69,18c0.07,0.92-0.22,1.88-0.49,2.65c-1.82,5.1-2.76,7.62-6.06,13.71" id="Ske1zat8z4k" kvg:type="㇒" transform="matrix(1,0,0,1,1296,-4)" xmlns:kvg="http://kanjivg.tagaini.net"></path><path class="stroke_order_diagram--existing_path" d="M56.16,38.41c6.85-0.75,20.21-2.04,30.08-2.82c3.32-0.26,5.77-0.6,6.64-0.77" id="Ske1zat8z4l" kvg:type="㇐b" transform="matrix(1,0,0,1,1296,-4)" xmlns:kvg="http://kanjivg.tagaini.net"></path><path class="stroke_order_diagram--existing_path" d="M74.48,38.83c0.97,0.97,1.13,2.54,1.13,3.79c0,9.69-0.12,33.08-0.12,44.62" id="Ske1zat8z4m" kvg:type="㇑a" transform="matrix(1,0,0,1,1296,-4)" xmlns:kvg="http://kanjivg.tagaini.net"></path><path class="stroke_order_diagram--current_path" d="M57.14,54.82c6.27-0.42,19.33-1.39,27.24-2.09c2.96-0.26,4.74-0.37,5.96-0.37" id="kvg:09310-s14" kvg:type="㇐b" transform="matrix(1,0,0,1,1296,-4)" xmlns:kvg="http://kanjivg.tagaini.net"></path><path class="stroke_order_diagram--current_path" d="M57.14,54.82c6.27-0.42,19.33-1.39,27.24-2.09c2.96-0.26,4.74-0.37,5.96-0.37" id="Ske1zat8z4o" kvg:type="㇐b" transform="matrix(1,0,0,1,1296,-4)" xmlns:kvg="http://kanjivg.tagaini.net"></path><circle class="stroke_order_diagram--path_start" cx="57.14" cy="54.82" r="4" transform="matrix(1,0,0,1,1296,-4)"></circle><line class="stroke_order_diagram--guide_line" x1="1450" x2="1450" y1="1" y2="99"></line><line class="stroke_order_diagram--bounding_box" x1="1499" x2="1499" y1="1" y2="99"></line><path class="stroke_order_diagram--existing_path" d="M30.25,14.99c0,0.83,0.05,1.49-0.14,2.49c-0.97,5.18-10.22,22.48-18.14,30.15" id="Ske1zat8z4r" kvg:type="㇒" transform="matrix(1,0,0,1,1396,-4)" xmlns:kvg="http://kanjivg.tagaini.net"></path><path class="stroke_order_diagram--existing_path" d="M31.89,20.96c4.47,1.95,10.18,7.13,12.36,12.04" id="Ske1zat8z4s" kvg:type="㇔/㇏" transform="matrix(1,0,0,1,1396,-4)" xmlns:kvg="http://kanjivg.tagaini.net"></path><path class="stroke_order_diagram--existing_path" d="M19.75,43.75c1.5,0.02,3.01,0.28,4.5,0.11c4.5-0.49,7.88-1.36,12.24-1.98c1.16-0.16,2.59-0.38,3.76-0.39" id="Ske1zat8z4t" kvg:type="㇐" transform="matrix(1,0,0,1,1396,-4)" xmlns:kvg="http://kanjivg.tagaini.net"></path><path class="stroke_order_diagram--existing_path" d="M13.59,57.81c2.29,0.56,5.31,0.54,7.28,0.22c5.82-0.95,12.25-1.91,18.6-2.91c1.9-0.3,3.65-0.38,5.3-0.15" id="Ske1zat8z4u" kvg:type="㇐" transform="matrix(1,0,0,1,1396,-4)" xmlns:kvg="http://kanjivg.tagaini.net"></path><path class="stroke_order_diagram--existing_path" d="M29.2,46.19C30,47,30.19,48,30.19,49.33c0,4.35,0.06,31.29,0.06,36.73" id="Ske1zat8z4v" kvg:type="㇑a" transform="matrix(1,0,0,1,1396,-4)" xmlns:kvg="http://kanjivg.tagaini.net"></path><path class="stroke_order_diagram--existing_path" d="M16.14,70.01c2.61,3.49,5.28,8.88,5.9,11.44" id="Ske1zat8z4w" kvg:type="㇔" transform="matrix(1,0,0,1,1396,-4)" xmlns:kvg="http://kanjivg.tagaini.net"></path><path class="stroke_order_diagram--existing_path" d="M44.12,64.05c0,1.2-0.24,2.14-0.59,2.88c-1.28,2.7-3.16,5.82-7.36,11.6" id="Ske1zat8z4x" kvg:type="㇒" transform="matrix(1,0,0,1,1396,-4)" xmlns:kvg="http://kanjivg.tagaini.net"></path><path class="stroke_order_diagram--existing_path" d="M14,91.33c1.25,1.05,2.8,1.06,4.82,0.18C22.25,90,29.96,87,44,81.25" id="Ske1zat8z4y" kvg:type="㇀/㇐" transform="matrix(1,0,0,1,1396,-4)" xmlns:kvg="http://kanjivg.tagaini.net"></path><path class="stroke_order_diagram--existing_path" d="M62.13,17.5c0.16,1.63-0.05,3.02-0.57,4.41c-3.36,8.9-7.61,16.69-15.3,27.52" id="Ske1zat8z4z" kvg:type="㇒" transform="matrix(1,0,0,1,1396,-4)" xmlns:kvg="http://kanjivg.tagaini.net"></path><path class="stroke_order_diagram--existing_path" d="M54.94,38.65c0.83,0.83,0.9,2.3,0.9,3.66c0,6.45-0.05,30.06-0.07,43.31c-0.01,5.1-0.02,8.66-0.02,9.13" id="Ske1zat8z50" kvg:type="㇑" transform="matrix(1,0,0,1,1396,-4)" xmlns:kvg="http://kanjivg.tagaini.net"></path><path class="stroke_order_diagram--existing_path" d="M79.69,18c0.07,0.92-0.22,1.88-0.49,2.65c-1.82,5.1-2.76,7.62-6.06,13.71" id="Ske1zat8z51" kvg:type="㇒" transform="matrix(1,0,0,1,1396,-4)" xmlns:kvg="http://kanjivg.tagaini.net"></path><path class="stroke_order_diagram--existing_path" d="M56.16,38.41c6.85-0.75,20.21-2.04,30.08-2.82c3.32-0.26,5.77-0.6,6.64-0.77" id="Ske1zat8z52" kvg:type="㇐b" transform="matrix(1,0,0,1,1396,-4)" xmlns:kvg="http://kanjivg.tagaini.net"></path><path class="stroke_order_diagram--existing_path" d="M74.48,38.83c0.97,0.97,1.13,2.54,1.13,3.79c0,9.69-0.12,33.08-0.12,44.62" id="Ske1zat8z53" kvg:type="㇑a" transform="matrix(1,0,0,1,1396,-4)" xmlns:kvg="http://kanjivg.tagaini.net"></path><path class="stroke_order_diagram--existing_path" d="M57.14,54.82c6.27-0.42,19.33-1.39,27.24-2.09c2.96-0.26,4.74-0.37,5.96-0.37" id="Ske1zat8z54" kvg:type="㇐b" transform="matrix(1,0,0,1,1396,-4)" xmlns:kvg="http://kanjivg.tagaini.net"></path><path class="stroke_order_diagram--current_path" d="M57.05,71.29c6.2-0.54,20.91-1.45,29.46-2.12c2.63-0.21,3.73-0.23,5.3-0.23" id="kvg:09310-s15" kvg:type="㇐b" transform="matrix(1,0,0,1,1396,-4)" xmlns:kvg="http://kanjivg.tagaini.net"></path><path class="stroke_order_diagram--current_path" d="M57.05,71.29c6.2-0.54,20.91-1.45,29.46-2.12c2.63-0.21,3.73-0.23,5.3-0.23" id="Ske1zat8z56" kvg:type="㇐b" transform="matrix(1,0,0,1,1396,-4)" xmlns:kvg="http://kanjivg.tagaini.net"></path><circle class="stroke_order_diagram--path_start" cx="57.05" cy="71.29" r="4" transform="matrix(1,0,0,1,1396,-4)"></circle><line class="stroke_order_diagram--guide_line" x1="1550" x2="1550" y1="1" y2="99"></line><line class="stroke_order_diagram--bounding_box" x1="1599" x2="1599" y1="1" y2="99"></line><path class="stroke_order_diagram--existing_path" d="M30.25,14.99c0,0.83,0.05,1.49-0.14,2.49c-0.97,5.18-10.22,22.48-18.14,30.15" id="Ske1zat8z59" kvg:type="㇒" transform="matrix(1,0,0,1,1496,-4)" xmlns:kvg="http://kanjivg.tagaini.net"></path><path class="stroke_order_diagram--existing_path" d="M31.89,20.96c4.47,1.95,10.18,7.13,12.36,12.04" id="Ske1zat8z5a" kvg:type="㇔/㇏" transform="matrix(1,0,0,1,1496,-4)" xmlns:kvg="http://kanjivg.tagaini.net"></path><path class="stroke_order_diagram--existing_path" d="M19.75,43.75c1.5,0.02,3.01,0.28,4.5,0.11c4.5-0.49,7.88-1.36,12.24-1.98c1.16-0.16,2.59-0.38,3.76-0.39" id="Ske1zat8z5b" kvg:type="㇐" transform="matrix(1,0,0,1,1496,-4)" xmlns:kvg="http://kanjivg.tagaini.net"></path><path class="stroke_order_diagram--existing_path" d="M13.59,57.81c2.29,0.56,5.31,0.54,7.28,0.22c5.82-0.95,12.25-1.91,18.6-2.91c1.9-0.3,3.65-0.38,5.3-0.15" id="Ske1zat8z5c" kvg:type="㇐" transform="matrix(1,0,0,1,1496,-4)" xmlns:kvg="http://kanjivg.tagaini.net"></path><path class="stroke_order_diagram--existing_path" d="M29.2,46.19C30,47,30.19,48,30.19,49.33c0,4.35,0.06,31.29,0.06,36.73" id="Ske1zat8z5d" kvg:type="㇑a" transform="matrix(1,0,0,1,1496,-4)" xmlns:kvg="http://kanjivg.tagaini.net"></path><path class="stroke_order_diagram--existing_path" d="M16.14,70.01c2.61,3.49,5.28,8.88,5.9,11.44" id="Ske1zat8z5e" kvg:type="㇔" transform="matrix(1,0,0,1,1496,-4)" xmlns:kvg="http://kanjivg.tagaini.net"></path><path class="stroke_order_diagram--existing_path" d="M44.12,64.05c0,1.2-0.24,2.14-0.59,2.88c-1.28,2.7-3.16,5.82-7.36,11.6" id="Ske1zat8z5f" kvg:type="㇒" transform="matrix(1,0,0,1,1496,-4)" xmlns:kvg="http://kanjivg.tagaini.net"></path><path class="stroke_order_diagram--existing_path" d="M14,91.33c1.25,1.05,2.8,1.06,4.82,0.18C22.25,90,29.96,87,44,81.25" id="Ske1zat8z5g" kvg:type="㇀/㇐" transform="matrix(1,0,0,1,1496,-4)" xmlns:kvg="http://kanjivg.tagaini.net"></path><path class="stroke_order_diagram--existing_path" d="M62.13,17.5c0.16,1.63-0.05,3.02-0.57,4.41c-3.36,8.9-7.61,16.69-15.3,27.52" id="Ske1zat8z5h" kvg:type="㇒" transform="matrix(1,0,0,1,1496,-4)" xmlns:kvg="http://kanjivg.tagaini.net"></path><path class="stroke_order_diagram--existing_path" d="M54.94,38.65c0.83,0.83,0.9,2.3,0.9,3.66c0,6.45-0.05,30.06-0.07,43.31c-0.01,5.1-0.02,8.66-0.02,9.13" id="Ske1zat8z5i" kvg:type="㇑" transform="matrix(1,0,0,1,1496,-4)" xmlns:kvg="http://kanjivg.tagaini.net"></path><path class="stroke_order_diagram--existing_path" d="M79.69,18c0.07,0.92-0.22,1.88-0.49,2.65c-1.82,5.1-2.76,7.62-6.06,13.71" id="Ske1zat8z5j" kvg:type="㇒" transform="matrix(1,0,0,1,1496,-4)" xmlns:kvg="http://kanjivg.tagaini.net"></path><path class="stroke_order_diagram--existing_path" d="M56.16,38.41c6.85-0.75,20.21-2.04,30.08-2.82c3.32-0.26,5.77-0.6,6.64-0.77" id="Ske1zat8z5k" kvg:type="㇐b" transform="matrix(1,0,0,1,1496,-4)" xmlns:kvg="http://kanjivg.tagaini.net"></path><path class="stroke_order_diagram--existing_path" d="M74.48,38.83c0.97,0.97,1.13,2.54,1.13,3.79c0,9.69-0.12,33.08-0.12,44.62" id="Ske1zat8z5l" kvg:type="㇑a" transform="matrix(1,0,0,1,1496,-4)" xmlns:kvg="http://kanjivg.tagaini.net"></path><path class="stroke_order_diagram--existing_path" d="M57.14,54.82c6.27-0.42,19.33-1.39,27.24-2.09c2.96-0.26,4.74-0.37,5.96-0.37" id="Ske1zat8z5m" kvg:type="㇐b" transform="matrix(1,0,0,1,1496,-4)" xmlns:kvg="http://kanjivg.tagaini.net"></path><path class="stroke_order_diagram--existing_path" d="M57.05,71.29c6.2-0.54,20.91-1.45,29.46-2.12c2.63-0.21,3.73-0.23,5.3-0.23" id="Ske1zat8z5n" kvg:type="㇐b" transform="matrix(1,0,0,1,1496,-4)" xmlns:kvg="http://kanjivg.tagaini.net"></path><path class="stroke_order_diagram--current_path" d="M56.55,89.43c5.73-0.31,23.08-1.26,33.19-1.86c3.69-0.22,5.38-0.2,7.26-0.09" id="kvg:09310-s16" kvg:type="㇐b" transform="matrix(1,0,0,1,1496,-4)" xmlns:kvg="http://kanjivg.tagaini.net"></path><path class="stroke_order_diagram--current_path" d="M56.55,89.43c5.73-0.31,23.08-1.26,33.19-1.86c3.69-0.22,5.38-0.2,7.26-0.09" id="Ske1zat8z5p" kvg:type="㇐b" transform="matrix(1,0,0,1,1496,-4)" xmlns:kvg="http://kanjivg.tagaini.net"></path><circle class="stroke_order_diagram--path_start" cx="56.55" cy="89.43" r="4" transform="matrix(1,0,0,1,1496,-4)"></circle></svg>