<svg class="stroke_order_diagram--svg_container_for_51866299d5dda79658000a8f" style="height: 100px; width: 800px;" viewbox="0 0 800 100"><desc>Created with Snap</desc><defs></defs><line class="stroke_order_diagram--bounding_box" x1="1" x2="799" y1="1" y2="1"></line><line class="stroke_order_diagram--bounding_box" x1="1" x2="1" y1="1" y2="99"></line><line class="stroke_order_diagram--bounding_box" x1="1" x2="799" y1="99" y2="99"></line><line class="stroke_order_diagram--guide_line" x1="0" x2="800" y1="50" y2="50"></line><line class="stroke_order_diagram--guide_line" x1="50" x2="50" y1="1" y2="99"></line><line class="stroke_order_diagram--bounding_box" x1="99" x2="99" y1="1" y2="99"></line><path class="stroke_order_diagram--current_path" d="M17.39,14.97c0.94,0.94,1.26,2.28,1.26,4c0,0.77-0.18,49.78-0.18,69.28c0,3.3-0.04,4.11-0.07,4.97" id="kvg:09580-s1" kvg:type="㇑" transform="matrix(1,0,0,1,-4,-4)" xmlns:kvg="http://kanjivg.tagaini.net"></path><path class="stroke_order_diagram--current_path" d="M17.39,14.97c0.94,0.94,1.26,2.28,1.26,4c0,0.77-0.18,49.78-0.18,69.28c0,3.3-0.04,4.11-0.07,4.97" id="Ske29nhqph" kvg:type="㇑" transform="matrix(1,0,0,1,-4,-4)" xmlns:kvg="http://kanjivg.tagaini.net"></path><circle class="stroke_order_diagram--path_start" cx="17.39" cy="14.97" r="4" transform="matrix(1,0,0,1,-4,-4)"></circle><line class="stroke_order_diagram--guide_line" x1="150" x2="150" y1="1" y2="99"></line><line class="stroke_order_diagram--bounding_box" x1="199" x2="199" y1="1" y2="99"></line><path class="stroke_order_diagram--existing_path" d="M17.39,14.97c0.94,0.94,1.26,2.28,1.26,4c0,0.77-0.18,49.78-0.18,69.28c0,3.3-0.04,4.11-0.07,4.97" id="Ske29nhqpk" kvg:type="㇑" transform="matrix(1,0,0,1,96,-4)" xmlns:kvg="http://kanjivg.tagaini.net"></path><path class="stroke_order_diagram--current_path" d="M19.77,17.18c6.04-0.81,20.02-2.86,21.83-2.97c1.91-0.12,2.9,1.04,3,1.96c0.11,1.07-1.17,15.69-1.78,22.84c-0.19,2.21-0.31,3.71-0.31,3.87" id="kvg:09580-s2" kvg:type="㇕a" transform="matrix(1,0,0,1,96,-4)" xmlns:kvg="http://kanjivg.tagaini.net"></path><path class="stroke_order_diagram--current_path" d="M19.77,17.18c6.04-0.81,20.02-2.86,21.83-2.97c1.91-0.12,2.9,1.04,3,1.96c0.11,1.07-1.17,15.69-1.78,22.84c-0.19,2.21-0.31,3.71-0.31,3.87" id="Ske29nhqpm" kvg:type="㇕a" transform="matrix(1,0,0,1,96,-4)" xmlns:kvg="http://kanjivg.tagaini.net"></path><circle class="stroke_order_diagram--path_start" cx="19.77" cy="17.18" r="4" transform="matrix(1,0,0,1,96,-4)"></circle><line class="stroke_order_diagram--guide_line" x1="250" x2="250" y1="1" y2="99"></line><line class="stroke_order_diagram--bounding_box" x1="299" x2="299" y1="1" y2="99"></line><path class="stroke_order_diagram--existing_path" d="M17.39,14.97c0.94,0.94,1.26,2.28,1.26,4c0,0.77-0.18,49.78-0.18,69.28c0,3.3-0.04,4.11-0.07,4.97" id="Ske29nhqpp" kvg:type="㇑" transform="matrix(1,0,0,1,196,-4)" xmlns:kvg="http://kanjivg.tagaini.net"></path><path class="stroke_order_diagram--existing_path" d="M19.77,17.18c6.04-0.81,20.02-2.86,21.83-2.97c1.91-0.12,2.9,1.04,3,1.96c0.11,1.07-1.17,15.69-1.78,22.84c-0.19,2.21-0.31,3.71-0.31,3.87" id="Ske29nhqpq" kvg:type="㇕a" transform="matrix(1,0,0,1,196,-4)" xmlns:kvg="http://kanjivg.tagaini.net"></path><path class="stroke_order_diagram--current_path" d="M20.06,30.18C27,29,36.5,27.75,42.46,27.02" id="kvg:09580-s3" kvg:type="㇐a" transform="matrix(1,0,0,1,196,-4)" xmlns:kvg="http://kanjivg.tagaini.net"></path><path class="stroke_order_diagram--current_path" d="M20.06,30.18C27,29,36.5,27.75,42.46,27.02" id="Ske29nhqps" kvg:type="㇐a" transform="matrix(1,0,0,1,196,-4)" xmlns:kvg="http://kanjivg.tagaini.net"></path><circle class="stroke_order_diagram--path_start" cx="20.06" cy="30.18" r="4" transform="matrix(1,0,0,1,196,-4)"></circle><line class="stroke_order_diagram--guide_line" x1="350" x2="350" y1="1" y2="99"></line><line class="stroke_order_diagram--bounding_box" x1="399" x2="399" y1="1" y2="99"></line><path class="stroke_order_diagram--existing_path" d="M17.39,14.97c0.94,0.94,1.26,2.28,1.26,4c0,0.77-0.18,49.78-0.18,69.28c0,3.3-0.04,4.11-0.07,4.97" id="Ske29nhqpv" kvg:type="㇑" transform="matrix(1,0,0,1,296,-4)" xmlns:kvg="http://kanjivg.tagaini.net"></path><path class="stroke_order_diagram--existing_path" d="M19.77,17.18c6.04-0.81,20.02-2.86,21.83-2.97c1.91-0.12,2.9,1.04,3,1.96c0.11,1.07-1.17,15.69-1.78,22.84c-0.19,2.21-0.31,3.71-0.31,3.87" id="Ske29nhqpw" kvg:type="㇕a" transform="matrix(1,0,0,1,296,-4)" xmlns:kvg="http://kanjivg.tagaini.net"></path><path class="stroke_order_diagram--existing_path" d="M20.06,30.18C27,29,36.5,27.75,42.46,27.02" id="Ske29nhqpx" kvg:type="㇐a" transform="matrix(1,0,0,1,296,-4)" xmlns:kvg="http://kanjivg.tagaini.net"></path><path class="stroke_order_diagram--current_path" d="M19.61,43.82c8.39-1.32,14.14-2.57,21.55-3.17" id="kvg:09580-s4" kvg:type="㇐a" transform="matrix(1,0,0,1,296,-4)" xmlns:kvg="http://kanjivg.tagaini.net"></path><path class="stroke_order_diagram--current_path" d="M19.61,43.82c8.39-1.32,14.14-2.57,21.55-3.17" id="Ske29nhqpz" kvg:type="㇐a" transform="matrix(1,0,0,1,296,-4)" xmlns:kvg="http://kanjivg.tagaini.net"></path><circle class="stroke_order_diagram--path_start" cx="19.61" cy="43.82" r="4" transform="matrix(1,0,0,1,296,-4)"></circle><line class="stroke_order_diagram--guide_line" x1="450" x2="450" y1="1" y2="99"></line><line class="stroke_order_diagram--bounding_box" x1="499" x2="499" y1="1" y2="99"></line><path class="stroke_order_diagram--existing_path" d="M17.39,14.97c0.94,0.94,1.26,2.28,1.26,4c0,0.77-0.18,49.78-0.18,69.28c0,3.3-0.04,4.11-0.07,4.97" id="Ske29nhqp12" kvg:type="㇑" transform="matrix(1,0,0,1,396,-4)" xmlns:kvg="http://kanjivg.tagaini.net"></path><path class="stroke_order_diagram--existing_path" d="M19.77,17.18c6.04-0.81,20.02-2.86,21.83-2.97c1.91-0.12,2.9,1.04,3,1.96c0.11,1.07-1.17,15.69-1.78,22.84c-0.19,2.21-0.31,3.71-0.31,3.87" id="Ske29nhqp13" kvg:type="㇕a" transform="matrix(1,0,0,1,396,-4)" xmlns:kvg="http://kanjivg.tagaini.net"></path><path class="stroke_order_diagram--existing_path" d="M20.06,30.18C27,29,36.5,27.75,42.46,27.02" id="Ske29nhqp14" kvg:type="㇐a" transform="matrix(1,0,0,1,396,-4)" xmlns:kvg="http://kanjivg.tagaini.net"></path><path class="stroke_order_diagram--existing_path" d="M19.61,43.82c8.39-1.32,14.14-2.57,21.55-3.17" id="Ske29nhqp15" kvg:type="㇐a" transform="matrix(1,0,0,1,396,-4)" xmlns:kvg="http://kanjivg.tagaini.net"></path><path class="stroke_order_diagram--current_path" d="M61.96,13.47c0.89,1.19,0.92,2.64,0.91,4.04c-0.02,3.82-0.08,14.92-0.05,20.49c0.01,1.84,0.03,3.07,0.06,3.25" id="kvg:09580-s5" kvg:type="㇑" transform="matrix(1,0,0,1,396,-4)" xmlns:kvg="http://kanjivg.tagaini.net"></path><path class="stroke_order_diagram--current_path" d="M61.96,13.47c0.89,1.19,0.92,2.64,0.91,4.04c-0.02,3.82-0.08,14.92-0.05,20.49c0.01,1.84,0.03,3.07,0.06,3.25" id="Ske29nhqp17" kvg:type="㇑" transform="matrix(1,0,0,1,396,-4)" xmlns:kvg="http://kanjivg.tagaini.net"></path><circle class="stroke_order_diagram--path_start" cx="61.96" cy="13.47" r="4" transform="matrix(1,0,0,1,396,-4)"></circle><line class="stroke_order_diagram--guide_line" x1="550" x2="550" y1="1" y2="99"></line><line class="stroke_order_diagram--bounding_box" x1="599" x2="599" y1="1" y2="99"></line><path class="stroke_order_diagram--existing_path" d="M17.39,14.97c0.94,0.94,1.26,2.28,1.26,4c0,0.77-0.18,49.78-0.18,69.28c0,3.3-0.04,4.11-0.07,4.97" id="Ske29nhqp1a" kvg:type="㇑" transform="matrix(1,0,0,1,496,-4)" xmlns:kvg="http://kanjivg.tagaini.net"></path><path class="stroke_order_diagram--existing_path" d="M19.77,17.18c6.04-0.81,20.02-2.86,21.83-2.97c1.91-0.12,2.9,1.04,3,1.96c0.11,1.07-1.17,15.69-1.78,22.84c-0.19,2.21-0.31,3.71-0.31,3.87" id="Ske29nhqp1b" kvg:type="㇕a" transform="matrix(1,0,0,1,496,-4)" xmlns:kvg="http://kanjivg.tagaini.net"></path><path class="stroke_order_diagram--existing_path" d="M20.06,30.18C27,29,36.5,27.75,42.46,27.02" id="Ske29nhqp1c" kvg:type="㇐a" transform="matrix(1,0,0,1,496,-4)" xmlns:kvg="http://kanjivg.tagaini.net"></path><path class="stroke_order_diagram--existing_path" d="M19.61,43.82c8.39-1.32,14.14-2.57,21.55-3.17" id="Ske29nhqp1d" kvg:type="㇐a" transform="matrix(1,0,0,1,496,-4)" xmlns:kvg="http://kanjivg.tagaini.net"></path><path class="stroke_order_diagram--existing_path" d="M61.96,13.47c0.89,1.19,0.92,2.64,0.91,4.04c-0.02,3.82-0.08,14.92-0.05,20.49c0.01,1.84,0.03,3.07,0.06,3.25" id="Ske29nhqp1e" kvg:type="㇑" transform="matrix(1,0,0,1,496,-4)" xmlns:kvg="http://kanjivg.tagaini.net"></path><path class="stroke_order_diagram--current_path" d="M63.98,15.09c6.63-0.9,21.65-3.51,23.46-3.6c1.96-0.1,3.82,1.63,3.82,2.98c0,18.78-0.52,61.53-0.51,75.14c0.01,11.13-5.24,3.63-9.49-0.12" id="kvg:09580-s6" kvg:type="㇆a" transform="matrix(1,0,0,1,496,-4)" xmlns:kvg="http://kanjivg.tagaini.net"></path><path class="stroke_order_diagram--current_path" d="M63.98,15.09c6.63-0.9,21.65-3.51,23.46-3.6c1.96-0.1,3.82,1.63,3.82,2.98c0,18.78-0.52,61.53-0.51,75.14c0.01,11.13-5.24,3.63-9.49-0.12" id="Ske29nhqp1g" kvg:type="㇆a" transform="matrix(1,0,0,1,496,-4)" xmlns:kvg="http://kanjivg.tagaini.net"></path><circle class="stroke_order_diagram--path_start" cx="63.98" cy="15.09" r="4" transform="matrix(1,0,0,1,496,-4)"></circle><line class="stroke_order_diagram--guide_line" x1="650" x2="650" y1="1" y2="99"></line><line class="stroke_order_diagram--bounding_box" x1="699" x2="699" y1="1" y2="99"></line><path class="stroke_order_diagram--existing_path" d="M17.39,14.97c0.94,0.94,1.26,2.28,1.26,4c0,0.77-0.18,49.78-0.18,69.28c0,3.3-0.04,4.11-0.07,4.97" id="Ske29nhqp1j" kvg:type="㇑" transform="matrix(1,0,0,1,596,-4)" xmlns:kvg="http://kanjivg.tagaini.net"></path><path class="stroke_order_diagram--existing_path" d="M19.77,17.18c6.04-0.81,20.02-2.86,21.83-2.97c1.91-0.12,2.9,1.04,3,1.96c0.11,1.07-1.17,15.69-1.78,22.84c-0.19,2.21-0.31,3.71-0.31,3.87" id="Ske29nhqp1k" kvg:type="㇕a" transform="matrix(1,0,0,1,596,-4)" xmlns:kvg="http://kanjivg.tagaini.net"></path><path class="stroke_order_diagram--existing_path" d="M20.06,30.18C27,29,36.5,27.75,42.46,27.02" id="Ske29nhqp1l" kvg:type="㇐a" transform="matrix(1,0,0,1,596,-4)" xmlns:kvg="http://kanjivg.tagaini.net"></path><path class="stroke_order_diagram--existing_path" d="M19.61,43.82c8.39-1.32,14.14-2.57,21.55-3.17" id="Ske29nhqp1m" kvg:type="㇐a" transform="matrix(1,0,0,1,596,-4)" xmlns:kvg="http://kanjivg.tagaini.net"></path><path class="stroke_order_diagram--existing_path" d="M61.96,13.47c0.89,1.19,0.92,2.64,0.91,4.04c-0.02,3.82-0.08,14.92-0.05,20.49c0.01,1.84,0.03,3.07,0.06,3.25" id="Ske29nhqp1n" kvg:type="㇑" transform="matrix(1,0,0,1,596,-4)" xmlns:kvg="http://kanjivg.tagaini.net"></path><path class="stroke_order_diagram--existing_path" d="M63.98,15.09c6.63-0.9,21.65-3.51,23.46-3.6c1.96-0.1,3.82,1.63,3.82,2.98c0,18.78-0.52,61.53-0.51,75.14c0.01,11.13-5.24,3.63-9.49-0.12" id="Ske29nhqp1o" kvg:type="㇆a" transform="matrix(1,0,0,1,596,-4)" xmlns:kvg="http://kanjivg.tagaini.net"></path><path class="stroke_order_diagram--current_path" d="M64.34,26.89c6.16-0.89,20.29-2.39,25.5-2.67" id="kvg:09580-s7" kvg:type="㇐a" transform="matrix(1,0,0,1,596,-4)" xmlns:kvg="http://kanjivg.tagaini.net"></path><path class="stroke_order_diagram--current_path" d="M64.34,26.89c6.16-0.89,20.29-2.39,25.5-2.67" id="Ske29nhqp1q" kvg:type="㇐a" transform="matrix(1,0,0,1,596,-4)" xmlns:kvg="http://kanjivg.tagaini.net"></path><circle class="stroke_order_diagram--path_start" cx="64.34" cy="26.89" r="4" transform="matrix(1,0,0,1,596,-4)"></circle><line class="stroke_order_diagram--guide_line" x1="750" x2="750" y1="1" y2="99"></line><line class="stroke_order_diagram--bounding_box" x1="799" x2="799" y1="1" y2="99"></line><path class="stroke_order_diagram--existing_path" d="M17.39,14.97c0.94,0.94,1.26,2.28,1.26,4c0,0.77-0.18,49.78-0.18,69.28c0,3.3-0.04,4.11-0.07,4.97" id="Ske29nhqp1t" kvg:type="㇑" transform="matrix(1,0,0,1,696,-4)" xmlns:kvg="http://kanjivg.tagaini.net"></path><path class="stroke_order_diagram--existing_path" d="M19.77,17.18c6.04-0.81,20.02-2.86,21.83-2.97c1.91-0.12,2.9,1.04,3,1.96c0.11,1.07-1.17,15.69-1.78,22.84c-0.19,2.21-0.31,3.71-0.31,3.87" id="Ske29nhqp1u" kvg:type="㇕a" transform="matrix(1,0,0,1,696,-4)" xmlns:kvg="http://kanjivg.tagaini.net"></path><path class="stroke_order_diagram--existing_path" d="M20.06,30.18C27,29,36.5,27.75,42.46,27.02" id="Ske29nhqp1v" kvg:type="㇐a" transform="matrix(1,0,0,1,696,-4)" xmlns:kvg="http://kanjivg.tagaini.net"></path><path class="stroke_order_diagram--existing_path" d="M19.61,43.82c8.39-1.32,14.14-2.57,21.55-3.17" id="Ske29nhqp1w" kvg:type="㇐a" transform="matrix(1,0,0,1,696,-4)" xmlns:kvg="http://kanjivg.tagaini.net"></path><path class="stroke_order_diagram--existing_path" d="M61.96,13.47c0.89,1.19,0.92,2.64,0.91,4.04c-0.02,3.82-0.08,14.92-0.05,20.49c0.01,1.84,0.03,3.07,0.06,3.25" id="Ske29nhqp1x" kvg:type="㇑" transform="matrix(1,0,0,1,696,-4)" xmlns:kvg="http://kanjivg.tagaini.net"></path><path class="stroke_order_diagram--existing_path" d="M63.98,15.09c6.63-0.9,21.65-3.51,23.46-3.6c1.96-0.1,3.82,1.63,3.82,2.98c0,18.78-0.52,61.53-0.51,75.14c0.01,11.13-5.24,3.63-9.49-0.12" id="Ske29nhqp1y" kvg:type="㇆a" transform="matrix(1,0,0,1,696,-4)" xmlns:kvg="http://kanjivg.tagaini.net"></path><path class="stroke_order_diagram--existing_path" d="M64.34,26.89c6.16-0.89,20.29-2.39,25.5-2.67" id="Ske29nhqp1z" kvg:type="㇐a" transform="matrix(1,0,0,1,696,-4)" xmlns:kvg="http://kanjivg.tagaini.net"></path><path class="stroke_order_diagram--current_path" d="M64.13,39.63c8.99-1,15.87-1.63,25.9-2.47" id="kvg:09580-s8" kvg:type="㇐a" transform="matrix(1,0,0,1,696,-4)" xmlns:kvg="http://kanjivg.tagaini.net"></path><path class="stroke_order_diagram--current_path" d="M64.13,39.63c8.99-1,15.87-1.63,25.9-2.47" id="Ske29nhqp21" kvg:type="㇐a" transform="matrix(1,0,0,1,696,-4)" xmlns:kvg="http://kanjivg.tagaini.net"></path><circle class="stroke_order_diagram--path_start" cx="64.13" cy="39.63" r="4" transform="matrix(1,0,0,1,696,-4)"></circle></svg>