<svg class="stroke_order_diagram--svg_container_for_51866278d5dda796580001b0" style="height: 100px; width: 1400px;" viewbox="0 0 1400 100"><desc>Created with Snap</desc><defs></defs><line class="stroke_order_diagram--bounding_box" x1="1" x2="1399" y1="1" y2="1"></line><line class="stroke_order_diagram--bounding_box" x1="1" x2="1" y1="1" y2="99"></line><line class="stroke_order_diagram--bounding_box" x1="1" x2="1399" y1="99" y2="99"></line><line class="stroke_order_diagram--guide_line" x1="0" x2="1400" y1="50" y2="50"></line><line class="stroke_order_diagram--guide_line" x1="50" x2="50" y1="1" y2="99"></line><line class="stroke_order_diagram--bounding_box" x1="99" x2="99" y1="1" y2="99"></line><path class="stroke_order_diagram--current_path" d="M18.39,15.29c0.91,0.91,1.43,2.47,1.43,3.4c0,3.03,0.01,51.35,0.01,70.18c0,3.28,0,5.66,0,6.76" id="kvg:095a2-s1" kvg:type="㇑" transform="matrix(1,0,0,1,-4,-4)" xmlns:kvg="http://kanjivg.tagaini.net"></path><path class="stroke_order_diagram--current_path" d="M18.39,15.29c0.91,0.91,1.43,2.47,1.43,3.4c0,3.03,0.01,51.35,0.01,70.18c0,3.28,0,5.66,0,6.76" id="Ske1qn5w2n" kvg:type="㇑" transform="matrix(1,0,0,1,-4,-4)" xmlns:kvg="http://kanjivg.tagaini.net"></path><circle class="stroke_order_diagram--path_start" cx="18.39" cy="15.29" r="4" transform="matrix(1,0,0,1,-4,-4)"></circle><line class="stroke_order_diagram--guide_line" x1="150" x2="150" y1="1" y2="99"></line><line class="stroke_order_diagram--bounding_box" x1="199" x2="199" y1="1" y2="99"></line><path class="stroke_order_diagram--existing_path" d="M18.39,15.29c0.91,0.91,1.43,2.47,1.43,3.4c0,3.03,0.01,51.35,0.01,70.18c0,3.28,0,5.66,0,6.76" id="Ske1qn5w2q" kvg:type="㇑" transform="matrix(1,0,0,1,96,-4)" xmlns:kvg="http://kanjivg.tagaini.net"></path><path class="stroke_order_diagram--current_path" d="M20.02,17.08c2.11-0.09,15.2-2.02,20.11-2.62c2.68-0.32,4.58,0.07,4.55,3.04c-0.04,3.63-0.39,12.69-0.67,19.52c-0.04,0.91-0.14,1.81-0.14,2.41" id="kvg:095a2-s2" kvg:type="㇕a" transform="matrix(1,0,0,1,96,-4)" xmlns:kvg="http://kanjivg.tagaini.net"></path><path class="stroke_order_diagram--current_path" d="M20.02,17.08c2.11-0.09,15.2-2.02,20.11-2.62c2.68-0.32,4.58,0.07,4.55,3.04c-0.04,3.63-0.39,12.69-0.67,19.52c-0.04,0.91-0.14,1.81-0.14,2.41" id="Ske1qn5w2s" kvg:type="㇕a" transform="matrix(1,0,0,1,96,-4)" xmlns:kvg="http://kanjivg.tagaini.net"></path><circle class="stroke_order_diagram--path_start" cx="20.02" cy="17.08" r="4" transform="matrix(1,0,0,1,96,-4)"></circle><line class="stroke_order_diagram--guide_line" x1="250" x2="250" y1="1" y2="99"></line><line class="stroke_order_diagram--bounding_box" x1="299" x2="299" y1="1" y2="99"></line><path class="stroke_order_diagram--existing_path" d="M18.39,15.29c0.91,0.91,1.43,2.47,1.43,3.4c0,3.03,0.01,51.35,0.01,70.18c0,3.28,0,5.66,0,6.76" id="Ske1qn5w2v" kvg:type="㇑" transform="matrix(1,0,0,1,196,-4)" xmlns:kvg="http://kanjivg.tagaini.net"></path><path class="stroke_order_diagram--existing_path" d="M20.02,17.08c2.11-0.09,15.2-2.02,20.11-2.62c2.68-0.32,4.58,0.07,4.55,3.04c-0.04,3.63-0.39,12.69-0.67,19.52c-0.04,0.91-0.14,1.81-0.14,2.41" id="Ske1qn5w2w" kvg:type="㇕a" transform="matrix(1,0,0,1,196,-4)" xmlns:kvg="http://kanjivg.tagaini.net"></path><path class="stroke_order_diagram--current_path" d="M20.95,27.39c6.67-0.89,15.67-2.14,22.38-2.76" id="kvg:095a2-s3" kvg:type="㇐a" transform="matrix(1,0,0,1,196,-4)" xmlns:kvg="http://kanjivg.tagaini.net"></path><path class="stroke_order_diagram--current_path" d="M20.95,27.39c6.67-0.89,15.67-2.14,22.38-2.76" id="Ske1qn5w2y" kvg:type="㇐a" transform="matrix(1,0,0,1,196,-4)" xmlns:kvg="http://kanjivg.tagaini.net"></path><circle class="stroke_order_diagram--path_start" cx="20.95" cy="27.39" r="4" transform="matrix(1,0,0,1,196,-4)"></circle><line class="stroke_order_diagram--guide_line" x1="350" x2="350" y1="1" y2="99"></line><line class="stroke_order_diagram--bounding_box" x1="399" x2="399" y1="1" y2="99"></line><path class="stroke_order_diagram--existing_path" d="M18.39,15.29c0.91,0.91,1.43,2.47,1.43,3.4c0,3.03,0.01,51.35,0.01,70.18c0,3.28,0,5.66,0,6.76" id="Ske1qn5w211" kvg:type="㇑" transform="matrix(1,0,0,1,296,-4)" xmlns:kvg="http://kanjivg.tagaini.net"></path><path class="stroke_order_diagram--existing_path" d="M20.02,17.08c2.11-0.09,15.2-2.02,20.11-2.62c2.68-0.32,4.58,0.07,4.55,3.04c-0.04,3.63-0.39,12.69-0.67,19.52c-0.04,0.91-0.14,1.81-0.14,2.41" id="Ske1qn5w212" kvg:type="㇕a" transform="matrix(1,0,0,1,296,-4)" xmlns:kvg="http://kanjivg.tagaini.net"></path><path class="stroke_order_diagram--existing_path" d="M20.95,27.39c6.67-0.89,15.67-2.14,22.38-2.76" id="Ske1qn5w213" kvg:type="㇐a" transform="matrix(1,0,0,1,296,-4)" xmlns:kvg="http://kanjivg.tagaini.net"></path><path class="stroke_order_diagram--current_path" d="M21.02,38.98c8.11-1.15,14.64-2.03,21.81-2.56" id="kvg:095a2-s4" kvg:type="㇐a" transform="matrix(1,0,0,1,296,-4)" xmlns:kvg="http://kanjivg.tagaini.net"></path><path class="stroke_order_diagram--current_path" d="M21.02,38.98c8.11-1.15,14.64-2.03,21.81-2.56" id="Ske1qn5w215" kvg:type="㇐a" transform="matrix(1,0,0,1,296,-4)" xmlns:kvg="http://kanjivg.tagaini.net"></path><circle class="stroke_order_diagram--path_start" cx="21.02" cy="38.98" r="4" transform="matrix(1,0,0,1,296,-4)"></circle><line class="stroke_order_diagram--guide_line" x1="450" x2="450" y1="1" y2="99"></line><line class="stroke_order_diagram--bounding_box" x1="499" x2="499" y1="1" y2="99"></line><path class="stroke_order_diagram--existing_path" d="M18.39,15.29c0.91,0.91,1.43,2.47,1.43,3.4c0,3.03,0.01,51.35,0.01,70.18c0,3.28,0,5.66,0,6.76" id="Ske1qn5w218" kvg:type="㇑" transform="matrix(1,0,0,1,396,-4)" xmlns:kvg="http://kanjivg.tagaini.net"></path><path class="stroke_order_diagram--existing_path" d="M20.02,17.08c2.11-0.09,15.2-2.02,20.11-2.62c2.68-0.32,4.58,0.07,4.55,3.04c-0.04,3.63-0.39,12.69-0.67,19.52c-0.04,0.91-0.14,1.81-0.14,2.41" id="Ske1qn5w219" kvg:type="㇕a" transform="matrix(1,0,0,1,396,-4)" xmlns:kvg="http://kanjivg.tagaini.net"></path><path class="stroke_order_diagram--existing_path" d="M20.95,27.39c6.67-0.89,15.67-2.14,22.38-2.76" id="Ske1qn5w21a" kvg:type="㇐a" transform="matrix(1,0,0,1,396,-4)" xmlns:kvg="http://kanjivg.tagaini.net"></path><path class="stroke_order_diagram--existing_path" d="M21.02,38.98c8.11-1.15,14.64-2.03,21.81-2.56" id="Ske1qn5w21b" kvg:type="㇐a" transform="matrix(1,0,0,1,396,-4)" xmlns:kvg="http://kanjivg.tagaini.net"></path><path class="stroke_order_diagram--current_path" d="M63.69,13.01c0.84,0.84,1.13,1.74,1.13,2.98c0,0.56-0.02,13.04-0.04,19.14c0,1.92-0.01,3.2-0.01,3.29" id="kvg:095a2-s5" kvg:type="㇑" transform="matrix(1,0,0,1,396,-4)" xmlns:kvg="http://kanjivg.tagaini.net"></path><path class="stroke_order_diagram--current_path" d="M63.69,13.01c0.84,0.84,1.13,1.74,1.13,2.98c0,0.56-0.02,13.04-0.04,19.14c0,1.92-0.01,3.2-0.01,3.29" id="Ske1qn5w21d" kvg:type="㇑" transform="matrix(1,0,0,1,396,-4)" xmlns:kvg="http://kanjivg.tagaini.net"></path><circle class="stroke_order_diagram--path_start" cx="63.69" cy="13.01" r="4" transform="matrix(1,0,0,1,396,-4)"></circle><line class="stroke_order_diagram--guide_line" x1="550" x2="550" y1="1" y2="99"></line><line class="stroke_order_diagram--bounding_box" x1="599" x2="599" y1="1" y2="99"></line><path class="stroke_order_diagram--existing_path" d="M18.39,15.29c0.91,0.91,1.43,2.47,1.43,3.4c0,3.03,0.01,51.35,0.01,70.18c0,3.28,0,5.66,0,6.76" id="Ske1qn5w21g" kvg:type="㇑" transform="matrix(1,0,0,1,496,-4)" xmlns:kvg="http://kanjivg.tagaini.net"></path><path class="stroke_order_diagram--existing_path" d="M20.02,17.08c2.11-0.09,15.2-2.02,20.11-2.62c2.68-0.32,4.58,0.07,4.55,3.04c-0.04,3.63-0.39,12.69-0.67,19.52c-0.04,0.91-0.14,1.81-0.14,2.41" id="Ske1qn5w21h" kvg:type="㇕a" transform="matrix(1,0,0,1,496,-4)" xmlns:kvg="http://kanjivg.tagaini.net"></path><path class="stroke_order_diagram--existing_path" d="M20.95,27.39c6.67-0.89,15.67-2.14,22.38-2.76" id="Ske1qn5w21i" kvg:type="㇐a" transform="matrix(1,0,0,1,496,-4)" xmlns:kvg="http://kanjivg.tagaini.net"></path><path class="stroke_order_diagram--existing_path" d="M21.02,38.98c8.11-1.15,14.64-2.03,21.81-2.56" id="Ske1qn5w21j" kvg:type="㇐a" transform="matrix(1,0,0,1,496,-4)" xmlns:kvg="http://kanjivg.tagaini.net"></path><path class="stroke_order_diagram--existing_path" d="M63.69,13.01c0.84,0.84,1.13,1.74,1.13,2.98c0,0.56-0.02,13.04-0.04,19.14c0,1.92-0.01,3.2-0.01,3.29" id="Ske1qn5w21k" kvg:type="㇑" transform="matrix(1,0,0,1,496,-4)" xmlns:kvg="http://kanjivg.tagaini.net"></path><path class="stroke_order_diagram--current_path" d="M65.55,14.66c3.51-0.46,15.87-2.38,20.6-2.99c3.21-0.41,4.62,0.61,4.55,3.96c-0.41,20.46,0.05,63.63,0.05,77.57c0,9.05-5.14,3-8.65-0.14" id="kvg:095a2-s6" kvg:type="㇆a" transform="matrix(1,0,0,1,496,-4)" xmlns:kvg="http://kanjivg.tagaini.net"></path><path class="stroke_order_diagram--current_path" d="M65.55,14.66c3.51-0.46,15.87-2.38,20.6-2.99c3.21-0.41,4.62,0.61,4.55,3.96c-0.41,20.46,0.05,63.63,0.05,77.57c0,9.05-5.14,3-8.65-0.14" id="Ske1qn5w21m" kvg:type="㇆a" transform="matrix(1,0,0,1,496,-4)" xmlns:kvg="http://kanjivg.tagaini.net"></path><circle class="stroke_order_diagram--path_start" cx="65.55" cy="14.66" r="4" transform="matrix(1,0,0,1,496,-4)"></circle><line class="stroke_order_diagram--guide_line" x1="650" x2="650" y1="1" y2="99"></line><line class="stroke_order_diagram--bounding_box" x1="699" x2="699" y1="1" y2="99"></line><path class="stroke_order_diagram--existing_path" d="M18.39,15.29c0.91,0.91,1.43,2.47,1.43,3.4c0,3.03,0.01,51.35,0.01,70.18c0,3.28,0,5.66,0,6.76" id="Ske1qn5w21p" kvg:type="㇑" transform="matrix(1,0,0,1,596,-4)" xmlns:kvg="http://kanjivg.tagaini.net"></path><path class="stroke_order_diagram--existing_path" d="M20.02,17.08c2.11-0.09,15.2-2.02,20.11-2.62c2.68-0.32,4.58,0.07,4.55,3.04c-0.04,3.63-0.39,12.69-0.67,19.52c-0.04,0.91-0.14,1.81-0.14,2.41" id="Ske1qn5w21q" kvg:type="㇕a" transform="matrix(1,0,0,1,596,-4)" xmlns:kvg="http://kanjivg.tagaini.net"></path><path class="stroke_order_diagram--existing_path" d="M20.95,27.39c6.67-0.89,15.67-2.14,22.38-2.76" id="Ske1qn5w21r" kvg:type="㇐a" transform="matrix(1,0,0,1,596,-4)" xmlns:kvg="http://kanjivg.tagaini.net"></path><path class="stroke_order_diagram--existing_path" d="M21.02,38.98c8.11-1.15,14.64-2.03,21.81-2.56" id="Ske1qn5w21s" kvg:type="㇐a" transform="matrix(1,0,0,1,596,-4)" xmlns:kvg="http://kanjivg.tagaini.net"></path><path class="stroke_order_diagram--existing_path" d="M63.69,13.01c0.84,0.84,1.13,1.74,1.13,2.98c0,0.56-0.02,13.04-0.04,19.14c0,1.92-0.01,3.2-0.01,3.29" id="Ske1qn5w21t" kvg:type="㇑" transform="matrix(1,0,0,1,596,-4)" xmlns:kvg="http://kanjivg.tagaini.net"></path><path class="stroke_order_diagram--existing_path" d="M65.55,14.66c3.51-0.46,15.87-2.38,20.6-2.99c3.21-0.41,4.62,0.61,4.55,3.96c-0.41,20.46,0.05,63.63,0.05,77.57c0,9.05-5.14,3-8.65-0.14" id="Ske1qn5w21u" kvg:type="㇆a" transform="matrix(1,0,0,1,596,-4)" xmlns:kvg="http://kanjivg.tagaini.net"></path><path class="stroke_order_diagram--current_path" d="M65.99,24.72c4.76-0.22,19.09-1.99,22.9-1.99" id="kvg:095a2-s7" kvg:type="㇐a" transform="matrix(1,0,0,1,596,-4)" xmlns:kvg="http://kanjivg.tagaini.net"></path><path class="stroke_order_diagram--current_path" d="M65.99,24.72c4.76-0.22,19.09-1.99,22.9-1.99" id="Ske1qn5w21w" kvg:type="㇐a" transform="matrix(1,0,0,1,596,-4)" xmlns:kvg="http://kanjivg.tagaini.net"></path><circle class="stroke_order_diagram--path_start" cx="65.99" cy="24.72" r="4" transform="matrix(1,0,0,1,596,-4)"></circle><line class="stroke_order_diagram--guide_line" x1="750" x2="750" y1="1" y2="99"></line><line class="stroke_order_diagram--bounding_box" x1="799" x2="799" y1="1" y2="99"></line><path class="stroke_order_diagram--existing_path" d="M18.39,15.29c0.91,0.91,1.43,2.47,1.43,3.4c0,3.03,0.01,51.35,0.01,70.18c0,3.28,0,5.66,0,6.76" id="Ske1qn5w21z" kvg:type="㇑" transform="matrix(1,0,0,1,696,-4)" xmlns:kvg="http://kanjivg.tagaini.net"></path><path class="stroke_order_diagram--existing_path" d="M20.02,17.08c2.11-0.09,15.2-2.02,20.11-2.62c2.68-0.32,4.58,0.07,4.55,3.04c-0.04,3.63-0.39,12.69-0.67,19.52c-0.04,0.91-0.14,1.81-0.14,2.41" id="Ske1qn5w220" kvg:type="㇕a" transform="matrix(1,0,0,1,696,-4)" xmlns:kvg="http://kanjivg.tagaini.net"></path><path class="stroke_order_diagram--existing_path" d="M20.95,27.39c6.67-0.89,15.67-2.14,22.38-2.76" id="Ske1qn5w221" kvg:type="㇐a" transform="matrix(1,0,0,1,696,-4)" xmlns:kvg="http://kanjivg.tagaini.net"></path><path class="stroke_order_diagram--existing_path" d="M21.02,38.98c8.11-1.15,14.64-2.03,21.81-2.56" id="Ske1qn5w222" kvg:type="㇐a" transform="matrix(1,0,0,1,696,-4)" xmlns:kvg="http://kanjivg.tagaini.net"></path><path class="stroke_order_diagram--existing_path" d="M63.69,13.01c0.84,0.84,1.13,1.74,1.13,2.98c0,0.56-0.02,13.04-0.04,19.14c0,1.92-0.01,3.2-0.01,3.29" id="Ske1qn5w223" kvg:type="㇑" transform="matrix(1,0,0,1,696,-4)" xmlns:kvg="http://kanjivg.tagaini.net"></path><path class="stroke_order_diagram--existing_path" d="M65.55,14.66c3.51-0.46,15.87-2.38,20.6-2.99c3.21-0.41,4.62,0.61,4.55,3.96c-0.41,20.46,0.05,63.63,0.05,77.57c0,9.05-5.14,3-8.65-0.14" id="Ske1qn5w224" kvg:type="㇆a" transform="matrix(1,0,0,1,696,-4)" xmlns:kvg="http://kanjivg.tagaini.net"></path><path class="stroke_order_diagram--existing_path" d="M65.99,24.72c4.76-0.22,19.09-1.99,22.9-1.99" id="Ske1qn5w225" kvg:type="㇐a" transform="matrix(1,0,0,1,696,-4)" xmlns:kvg="http://kanjivg.tagaini.net"></path><path class="stroke_order_diagram--current_path" d="M66.05,36.26c6.7-0.76,14.2-1.76,23.05-2.06" id="kvg:095a2-s8" kvg:type="㇐a" transform="matrix(1,0,0,1,696,-4)" xmlns:kvg="http://kanjivg.tagaini.net"></path><path class="stroke_order_diagram--current_path" d="M66.05,36.26c6.7-0.76,14.2-1.76,23.05-2.06" id="Ske1qn5w227" kvg:type="㇐a" transform="matrix(1,0,0,1,696,-4)" xmlns:kvg="http://kanjivg.tagaini.net"></path><circle class="stroke_order_diagram--path_start" cx="66.05" cy="36.26" r="4" transform="matrix(1,0,0,1,696,-4)"></circle><line class="stroke_order_diagram--guide_line" x1="850" x2="850" y1="1" y2="99"></line><line class="stroke_order_diagram--bounding_box" x1="899" x2="899" y1="1" y2="99"></line><path class="stroke_order_diagram--existing_path" d="M18.39,15.29c0.91,0.91,1.43,2.47,1.43,3.4c0,3.03,0.01,51.35,0.01,70.18c0,3.28,0,5.66,0,6.76" id="Ske1qn5w22a" kvg:type="㇑" transform="matrix(1,0,0,1,796,-4)" xmlns:kvg="http://kanjivg.tagaini.net"></path><path class="stroke_order_diagram--existing_path" d="M20.02,17.08c2.11-0.09,15.2-2.02,20.11-2.62c2.68-0.32,4.58,0.07,4.55,3.04c-0.04,3.63-0.39,12.69-0.67,19.52c-0.04,0.91-0.14,1.81-0.14,2.41" id="Ske1qn5w22b" kvg:type="㇕a" transform="matrix(1,0,0,1,796,-4)" xmlns:kvg="http://kanjivg.tagaini.net"></path><path class="stroke_order_diagram--existing_path" d="M20.95,27.39c6.67-0.89,15.67-2.14,22.38-2.76" id="Ske1qn5w22c" kvg:type="㇐a" transform="matrix(1,0,0,1,796,-4)" xmlns:kvg="http://kanjivg.tagaini.net"></path><path class="stroke_order_diagram--existing_path" d="M21.02,38.98c8.11-1.15,14.64-2.03,21.81-2.56" id="Ske1qn5w22d" kvg:type="㇐a" transform="matrix(1,0,0,1,796,-4)" xmlns:kvg="http://kanjivg.tagaini.net"></path><path class="stroke_order_diagram--existing_path" d="M63.69,13.01c0.84,0.84,1.13,1.74,1.13,2.98c0,0.56-0.02,13.04-0.04,19.14c0,1.92-0.01,3.2-0.01,3.29" id="Ske1qn5w22e" kvg:type="㇑" transform="matrix(1,0,0,1,796,-4)" xmlns:kvg="http://kanjivg.tagaini.net"></path><path class="stroke_order_diagram--existing_path" d="M65.55,14.66c3.51-0.46,15.87-2.38,20.6-2.99c3.21-0.41,4.62,0.61,4.55,3.96c-0.41,20.46,0.05,63.63,0.05,77.57c0,9.05-5.14,3-8.65-0.14" id="Ske1qn5w22f" kvg:type="㇆a" transform="matrix(1,0,0,1,796,-4)" xmlns:kvg="http://kanjivg.tagaini.net"></path><path class="stroke_order_diagram--existing_path" d="M65.99,24.72c4.76-0.22,19.09-1.99,22.9-1.99" id="Ske1qn5w22g" kvg:type="㇐a" transform="matrix(1,0,0,1,796,-4)" xmlns:kvg="http://kanjivg.tagaini.net"></path><path class="stroke_order_diagram--existing_path" d="M66.05,36.26c6.7-0.76,14.2-1.76,23.05-2.06" id="Ske1qn5w22h" kvg:type="㇐a" transform="matrix(1,0,0,1,796,-4)" xmlns:kvg="http://kanjivg.tagaini.net"></path><path class="stroke_order_diagram--current_path" d="M41.85,44.67c1.66,1.34,4.28,5.52,4.69,7.61" id="kvg:095a2-s9" kvg:type="㇔" transform="matrix(1,0,0,1,796,-4)" xmlns:kvg="http://kanjivg.tagaini.net"></path><path class="stroke_order_diagram--current_path" d="M41.85,44.67c1.66,1.34,4.28,5.52,4.69,7.61" id="Ske1qn5w22j" kvg:type="㇔" transform="matrix(1,0,0,1,796,-4)" xmlns:kvg="http://kanjivg.tagaini.net"></path><circle class="stroke_order_diagram--path_start" cx="41.85" cy="44.67" r="4" transform="matrix(1,0,0,1,796,-4)"></circle><line class="stroke_order_diagram--guide_line" x1="950" x2="950" y1="1" y2="99"></line><line class="stroke_order_diagram--bounding_box" x1="999" x2="999" y1="1" y2="99"></line><path class="stroke_order_diagram--existing_path" d="M18.39,15.29c0.91,0.91,1.43,2.47,1.43,3.4c0,3.03,0.01,51.35,0.01,70.18c0,3.28,0,5.66,0,6.76" id="Ske1qn5w22m" kvg:type="㇑" transform="matrix(1,0,0,1,896,-4)" xmlns:kvg="http://kanjivg.tagaini.net"></path><path class="stroke_order_diagram--existing_path" d="M20.02,17.08c2.11-0.09,15.2-2.02,20.11-2.62c2.68-0.32,4.58,0.07,4.55,3.04c-0.04,3.63-0.39,12.69-0.67,19.52c-0.04,0.91-0.14,1.81-0.14,2.41" id="Ske1qn5w22n" kvg:type="㇕a" transform="matrix(1,0,0,1,896,-4)" xmlns:kvg="http://kanjivg.tagaini.net"></path><path class="stroke_order_diagram--existing_path" d="M20.95,27.39c6.67-0.89,15.67-2.14,22.38-2.76" id="Ske1qn5w22o" kvg:type="㇐a" transform="matrix(1,0,0,1,896,-4)" xmlns:kvg="http://kanjivg.tagaini.net"></path><path class="stroke_order_diagram--existing_path" d="M21.02,38.98c8.11-1.15,14.64-2.03,21.81-2.56" id="Ske1qn5w22p" kvg:type="㇐a" transform="matrix(1,0,0,1,896,-4)" xmlns:kvg="http://kanjivg.tagaini.net"></path><path class="stroke_order_diagram--existing_path" d="M63.69,13.01c0.84,0.84,1.13,1.74,1.13,2.98c0,0.56-0.02,13.04-0.04,19.14c0,1.92-0.01,3.2-0.01,3.29" id="Ske1qn5w22q" kvg:type="㇑" transform="matrix(1,0,0,1,896,-4)" xmlns:kvg="http://kanjivg.tagaini.net"></path><path class="stroke_order_diagram--existing_path" d="M65.55,14.66c3.51-0.46,15.87-2.38,20.6-2.99c3.21-0.41,4.62,0.61,4.55,3.96c-0.41,20.46,0.05,63.63,0.05,77.57c0,9.05-5.14,3-8.65-0.14" id="Ske1qn5w22r" kvg:type="㇆a" transform="matrix(1,0,0,1,896,-4)" xmlns:kvg="http://kanjivg.tagaini.net"></path><path class="stroke_order_diagram--existing_path" d="M65.99,24.72c4.76-0.22,19.09-1.99,22.9-1.99" id="Ske1qn5w22s" kvg:type="㇐a" transform="matrix(1,0,0,1,896,-4)" xmlns:kvg="http://kanjivg.tagaini.net"></path><path class="stroke_order_diagram--existing_path" d="M66.05,36.26c6.7-0.76,14.2-1.76,23.05-2.06" id="Ske1qn5w22t" kvg:type="㇐a" transform="matrix(1,0,0,1,896,-4)" xmlns:kvg="http://kanjivg.tagaini.net"></path><path class="stroke_order_diagram--existing_path" d="M41.85,44.67c1.66,1.34,4.28,5.52,4.69,7.61" id="Ske1qn5w22u" kvg:type="㇔" transform="matrix(1,0,0,1,896,-4)" xmlns:kvg="http://kanjivg.tagaini.net"></path><path class="stroke_order_diagram--current_path" d="M61.7,42.39c0.02,0.24,0.11,0.63-0.03,0.95c-1.17,2.65-2.57,5.44-6.01,9.12" id="kvg:095a2-s10" kvg:type="㇒" transform="matrix(1,0,0,1,896,-4)" xmlns:kvg="http://kanjivg.tagaini.net"></path><path class="stroke_order_diagram--current_path" d="M61.7,42.39c0.02,0.24,0.11,0.63-0.03,0.95c-1.17,2.65-2.57,5.44-6.01,9.12" id="Ske1qn5w22w" kvg:type="㇒" transform="matrix(1,0,0,1,896,-4)" xmlns:kvg="http://kanjivg.tagaini.net"></path><circle class="stroke_order_diagram--path_start" cx="61.7" cy="42.39" r="4" transform="matrix(1,0,0,1,896,-4)"></circle><line class="stroke_order_diagram--guide_line" x1="1050" x2="1050" y1="1" y2="99"></line><line class="stroke_order_diagram--bounding_box" x1="1099" x2="1099" y1="1" y2="99"></line><path class="stroke_order_diagram--existing_path" d="M18.39,15.29c0.91,0.91,1.43,2.47,1.43,3.4c0,3.03,0.01,51.35,0.01,70.18c0,3.28,0,5.66,0,6.76" id="Ske1qn5w22z" kvg:type="㇑" transform="matrix(1,0,0,1,996,-4)" xmlns:kvg="http://kanjivg.tagaini.net"></path><path class="stroke_order_diagram--existing_path" d="M20.02,17.08c2.11-0.09,15.2-2.02,20.11-2.62c2.68-0.32,4.58,0.07,4.55,3.04c-0.04,3.63-0.39,12.69-0.67,19.52c-0.04,0.91-0.14,1.81-0.14,2.41" id="Ske1qn5w230" kvg:type="㇕a" transform="matrix(1,0,0,1,996,-4)" xmlns:kvg="http://kanjivg.tagaini.net"></path><path class="stroke_order_diagram--existing_path" d="M20.95,27.39c6.67-0.89,15.67-2.14,22.38-2.76" id="Ske1qn5w231" kvg:type="㇐a" transform="matrix(1,0,0,1,996,-4)" xmlns:kvg="http://kanjivg.tagaini.net"></path><path class="stroke_order_diagram--existing_path" d="M21.02,38.98c8.11-1.15,14.64-2.03,21.81-2.56" id="Ske1qn5w232" kvg:type="㇐a" transform="matrix(1,0,0,1,996,-4)" xmlns:kvg="http://kanjivg.tagaini.net"></path><path class="stroke_order_diagram--existing_path" d="M63.69,13.01c0.84,0.84,1.13,1.74,1.13,2.98c0,0.56-0.02,13.04-0.04,19.14c0,1.92-0.01,3.2-0.01,3.29" id="Ske1qn5w233" kvg:type="㇑" transform="matrix(1,0,0,1,996,-4)" xmlns:kvg="http://kanjivg.tagaini.net"></path><path class="stroke_order_diagram--existing_path" d="M65.55,14.66c3.51-0.46,15.87-2.38,20.6-2.99c3.21-0.41,4.62,0.61,4.55,3.96c-0.41,20.46,0.05,63.63,0.05,77.57c0,9.05-5.14,3-8.65-0.14" id="Ske1qn5w234" kvg:type="㇆a" transform="matrix(1,0,0,1,996,-4)" xmlns:kvg="http://kanjivg.tagaini.net"></path><path class="stroke_order_diagram--existing_path" d="M65.99,24.72c4.76-0.22,19.09-1.99,22.9-1.99" id="Ske1qn5w235" kvg:type="㇐a" transform="matrix(1,0,0,1,996,-4)" xmlns:kvg="http://kanjivg.tagaini.net"></path><path class="stroke_order_diagram--existing_path" d="M66.05,36.26c6.7-0.76,14.2-1.76,23.05-2.06" id="Ske1qn5w236" kvg:type="㇐a" transform="matrix(1,0,0,1,996,-4)" xmlns:kvg="http://kanjivg.tagaini.net"></path><path class="stroke_order_diagram--existing_path" d="M41.85,44.67c1.66,1.34,4.28,5.52,4.69,7.61" id="Ske1qn5w237" kvg:type="㇔" transform="matrix(1,0,0,1,996,-4)" xmlns:kvg="http://kanjivg.tagaini.net"></path><path class="stroke_order_diagram--existing_path" d="M61.7,42.39c0.02,0.24,0.11,0.63-0.03,0.95c-1.17,2.65-2.57,5.44-6.01,9.12" id="Ske1qn5w238" kvg:type="㇒" transform="matrix(1,0,0,1,996,-4)" xmlns:kvg="http://kanjivg.tagaini.net"></path><path class="stroke_order_diagram--current_path" d="M37.1,57.11c1.59,0.61,3.52,0.24,5.15,0.06c5.84-0.65,17.04-2.26,22.52-2.75c1.53-0.14,2.95-0.2,4.45,0.15" id="kvg:095a2-s11" kvg:type="㇐" transform="matrix(1,0,0,1,996,-4)" xmlns:kvg="http://kanjivg.tagaini.net"></path><path class="stroke_order_diagram--current_path" d="M37.1,57.11c1.59,0.61,3.52,0.24,5.15,0.06c5.84-0.65,17.04-2.26,22.52-2.75c1.53-0.14,2.95-0.2,4.45,0.15" id="Ske1qn5w23a" kvg:type="㇐" transform="matrix(1,0,0,1,996,-4)" xmlns:kvg="http://kanjivg.tagaini.net"></path><circle class="stroke_order_diagram--path_start" cx="37.1" cy="57.11" r="4" transform="matrix(1,0,0,1,996,-4)"></circle><line class="stroke_order_diagram--guide_line" x1="1150" x2="1150" y1="1" y2="99"></line><line class="stroke_order_diagram--bounding_box" x1="1199" x2="1199" y1="1" y2="99"></line><path class="stroke_order_diagram--existing_path" d="M18.39,15.29c0.91,0.91,1.43,2.47,1.43,3.4c0,3.03,0.01,51.35,0.01,70.18c0,3.28,0,5.66,0,6.76" id="Ske1qn5w23d" kvg:type="㇑" transform="matrix(1,0,0,1,1096,-4)" xmlns:kvg="http://kanjivg.tagaini.net"></path><path class="stroke_order_diagram--existing_path" d="M20.02,17.08c2.11-0.09,15.2-2.02,20.11-2.62c2.68-0.32,4.58,0.07,4.55,3.04c-0.04,3.63-0.39,12.69-0.67,19.52c-0.04,0.91-0.14,1.81-0.14,2.41" id="Ske1qn5w23e" kvg:type="㇕a" transform="matrix(1,0,0,1,1096,-4)" xmlns:kvg="http://kanjivg.tagaini.net"></path><path class="stroke_order_diagram--existing_path" d="M20.95,27.39c6.67-0.89,15.67-2.14,22.38-2.76" id="Ske1qn5w23f" kvg:type="㇐a" transform="matrix(1,0,0,1,1096,-4)" xmlns:kvg="http://kanjivg.tagaini.net"></path><path class="stroke_order_diagram--existing_path" d="M21.02,38.98c8.11-1.15,14.64-2.03,21.81-2.56" id="Ske1qn5w23g" kvg:type="㇐a" transform="matrix(1,0,0,1,1096,-4)" xmlns:kvg="http://kanjivg.tagaini.net"></path><path class="stroke_order_diagram--existing_path" d="M63.69,13.01c0.84,0.84,1.13,1.74,1.13,2.98c0,0.56-0.02,13.04-0.04,19.14c0,1.92-0.01,3.2-0.01,3.29" id="Ske1qn5w23h" kvg:type="㇑" transform="matrix(1,0,0,1,1096,-4)" xmlns:kvg="http://kanjivg.tagaini.net"></path><path class="stroke_order_diagram--existing_path" d="M65.55,14.66c3.51-0.46,15.87-2.38,20.6-2.99c3.21-0.41,4.62,0.61,4.55,3.96c-0.41,20.46,0.05,63.63,0.05,77.57c0,9.05-5.14,3-8.65-0.14" id="Ske1qn5w23i" kvg:type="㇆a" transform="matrix(1,0,0,1,1096,-4)" xmlns:kvg="http://kanjivg.tagaini.net"></path><path class="stroke_order_diagram--existing_path" d="M65.99,24.72c4.76-0.22,19.09-1.99,22.9-1.99" id="Ske1qn5w23j" kvg:type="㇐a" transform="matrix(1,0,0,1,1096,-4)" xmlns:kvg="http://kanjivg.tagaini.net"></path><path class="stroke_order_diagram--existing_path" d="M66.05,36.26c6.7-0.76,14.2-1.76,23.05-2.06" id="Ske1qn5w23k" kvg:type="㇐a" transform="matrix(1,0,0,1,1096,-4)" xmlns:kvg="http://kanjivg.tagaini.net"></path><path class="stroke_order_diagram--existing_path" d="M41.85,44.67c1.66,1.34,4.28,5.52,4.69,7.61" id="Ske1qn5w23l" kvg:type="㇔" transform="matrix(1,0,0,1,1096,-4)" xmlns:kvg="http://kanjivg.tagaini.net"></path><path class="stroke_order_diagram--existing_path" d="M61.7,42.39c0.02,0.24,0.11,0.63-0.03,0.95c-1.17,2.65-2.57,5.44-6.01,9.12" id="Ske1qn5w23m" kvg:type="㇒" transform="matrix(1,0,0,1,1096,-4)" xmlns:kvg="http://kanjivg.tagaini.net"></path><path class="stroke_order_diagram--existing_path" d="M37.1,57.11c1.59,0.61,3.52,0.24,5.15,0.06c5.84-0.65,17.04-2.26,22.52-2.75c1.53-0.14,2.95-0.2,4.45,0.15" id="Ske1qn5w23n" kvg:type="㇐" transform="matrix(1,0,0,1,1096,-4)" xmlns:kvg="http://kanjivg.tagaini.net"></path><path class="stroke_order_diagram--current_path" d="M33.29,69.54c1.59,0.64,3.57,0.21,5.2,0.05c7.32-0.73,21.74-2.29,29.12-2.85c2.31-0.17,4.37-0.49,6.64,0.02" id="kvg:095a2-s12" kvg:type="㇐" transform="matrix(1,0,0,1,1096,-4)" xmlns:kvg="http://kanjivg.tagaini.net"></path><path class="stroke_order_diagram--current_path" d="M33.29,69.54c1.59,0.64,3.57,0.21,5.2,0.05c7.32-0.73,21.74-2.29,29.12-2.85c2.31-0.17,4.37-0.49,6.64,0.02" id="Ske1qn5w23p" kvg:type="㇐" transform="matrix(1,0,0,1,1096,-4)" xmlns:kvg="http://kanjivg.tagaini.net"></path><circle class="stroke_order_diagram--path_start" cx="33.29" cy="69.54" r="4" transform="matrix(1,0,0,1,1096,-4)"></circle><line class="stroke_order_diagram--guide_line" x1="1250" x2="1250" y1="1" y2="99"></line><line class="stroke_order_diagram--bounding_box" x1="1299" x2="1299" y1="1" y2="99"></line><path class="stroke_order_diagram--existing_path" d="M18.39,15.29c0.91,0.91,1.43,2.47,1.43,3.4c0,3.03,0.01,51.35,0.01,70.18c0,3.28,0,5.66,0,6.76" id="Ske1qn5w23s" kvg:type="㇑" transform="matrix(1,0,0,1,1196,-4)" xmlns:kvg="http://kanjivg.tagaini.net"></path><path class="stroke_order_diagram--existing_path" d="M20.02,17.08c2.11-0.09,15.2-2.02,20.11-2.62c2.68-0.32,4.58,0.07,4.55,3.04c-0.04,3.63-0.39,12.69-0.67,19.52c-0.04,0.91-0.14,1.81-0.14,2.41" id="Ske1qn5w23t" kvg:type="㇕a" transform="matrix(1,0,0,1,1196,-4)" xmlns:kvg="http://kanjivg.tagaini.net"></path><path class="stroke_order_diagram--existing_path" d="M20.95,27.39c6.67-0.89,15.67-2.14,22.38-2.76" id="Ske1qn5w23u" kvg:type="㇐a" transform="matrix(1,0,0,1,1196,-4)" xmlns:kvg="http://kanjivg.tagaini.net"></path><path class="stroke_order_diagram--existing_path" d="M21.02,38.98c8.11-1.15,14.64-2.03,21.81-2.56" id="Ske1qn5w23v" kvg:type="㇐a" transform="matrix(1,0,0,1,1196,-4)" xmlns:kvg="http://kanjivg.tagaini.net"></path><path class="stroke_order_diagram--existing_path" d="M63.69,13.01c0.84,0.84,1.13,1.74,1.13,2.98c0,0.56-0.02,13.04-0.04,19.14c0,1.92-0.01,3.2-0.01,3.29" id="Ske1qn5w23w" kvg:type="㇑" transform="matrix(1,0,0,1,1196,-4)" xmlns:kvg="http://kanjivg.tagaini.net"></path><path class="stroke_order_diagram--existing_path" d="M65.55,14.66c3.51-0.46,15.87-2.38,20.6-2.99c3.21-0.41,4.62,0.61,4.55,3.96c-0.41,20.46,0.05,63.63,0.05,77.57c0,9.05-5.14,3-8.65-0.14" id="Ske1qn5w23x" kvg:type="㇆a" transform="matrix(1,0,0,1,1196,-4)" xmlns:kvg="http://kanjivg.tagaini.net"></path><path class="stroke_order_diagram--existing_path" d="M65.99,24.72c4.76-0.22,19.09-1.99,22.9-1.99" id="Ske1qn5w23y" kvg:type="㇐a" transform="matrix(1,0,0,1,1196,-4)" xmlns:kvg="http://kanjivg.tagaini.net"></path><path class="stroke_order_diagram--existing_path" d="M66.05,36.26c6.7-0.76,14.2-1.76,23.05-2.06" id="Ske1qn5w23z" kvg:type="㇐a" transform="matrix(1,0,0,1,1196,-4)" xmlns:kvg="http://kanjivg.tagaini.net"></path><path class="stroke_order_diagram--existing_path" d="M41.85,44.67c1.66,1.34,4.28,5.52,4.69,7.61" id="Ske1qn5w240" kvg:type="㇔" transform="matrix(1,0,0,1,1196,-4)" xmlns:kvg="http://kanjivg.tagaini.net"></path><path class="stroke_order_diagram--existing_path" d="M61.7,42.39c0.02,0.24,0.11,0.63-0.03,0.95c-1.17,2.65-2.57,5.44-6.01,9.12" id="Ske1qn5w241" kvg:type="㇒" transform="matrix(1,0,0,1,1196,-4)" xmlns:kvg="http://kanjivg.tagaini.net"></path><path class="stroke_order_diagram--existing_path" d="M37.1,57.11c1.59,0.61,3.52,0.24,5.15,0.06c5.84-0.65,17.04-2.26,22.52-2.75c1.53-0.14,2.95-0.2,4.45,0.15" id="Ske1qn5w242" kvg:type="㇐" transform="matrix(1,0,0,1,1196,-4)" xmlns:kvg="http://kanjivg.tagaini.net"></path><path class="stroke_order_diagram--existing_path" d="M33.29,69.54c1.59,0.64,3.57,0.21,5.2,0.05c7.32-0.73,21.74-2.29,29.12-2.85c2.31-0.17,4.37-0.49,6.64,0.02" id="Ske1qn5w243" kvg:type="㇐" transform="matrix(1,0,0,1,1196,-4)" xmlns:kvg="http://kanjivg.tagaini.net"></path><path class="stroke_order_diagram--current_path" d="M52.6,58.34c0.52,0.78,0.75,1.71,0.6,2.65c-2.7,16.76-10.45,24.88-21.78,30.13" id="kvg:095a2-s13" kvg:type="㇒" transform="matrix(1,0,0,1,1196,-4)" xmlns:kvg="http://kanjivg.tagaini.net"></path><path class="stroke_order_diagram--current_path" d="M52.6,58.34c0.52,0.78,0.75,1.71,0.6,2.65c-2.7,16.76-10.45,24.88-21.78,30.13" id="Ske1qn5w245" kvg:type="㇒" transform="matrix(1,0,0,1,1196,-4)" xmlns:kvg="http://kanjivg.tagaini.net"></path><circle class="stroke_order_diagram--path_start" cx="52.6" cy="58.34" r="4" transform="matrix(1,0,0,1,1196,-4)"></circle><line class="stroke_order_diagram--guide_line" x1="1350" x2="1350" y1="1" y2="99"></line><line class="stroke_order_diagram--bounding_box" x1="1399" x2="1399" y1="1" y2="99"></line><path class="stroke_order_diagram--existing_path" d="M18.39,15.29c0.91,0.91,1.43,2.47,1.43,3.4c0,3.03,0.01,51.35,0.01,70.18c0,3.28,0,5.66,0,6.76" id="Ske1qn5w248" kvg:type="㇑" transform="matrix(1,0,0,1,1296,-4)" xmlns:kvg="http://kanjivg.tagaini.net"></path><path class="stroke_order_diagram--existing_path" d="M20.02,17.08c2.11-0.09,15.2-2.02,20.11-2.62c2.68-0.32,4.58,0.07,4.55,3.04c-0.04,3.63-0.39,12.69-0.67,19.52c-0.04,0.91-0.14,1.81-0.14,2.41" id="Ske1qn5w249" kvg:type="㇕a" transform="matrix(1,0,0,1,1296,-4)" xmlns:kvg="http://kanjivg.tagaini.net"></path><path class="stroke_order_diagram--existing_path" d="M20.95,27.39c6.67-0.89,15.67-2.14,22.38-2.76" id="Ske1qn5w24a" kvg:type="㇐a" transform="matrix(1,0,0,1,1296,-4)" xmlns:kvg="http://kanjivg.tagaini.net"></path><path class="stroke_order_diagram--existing_path" d="M21.02,38.98c8.11-1.15,14.64-2.03,21.81-2.56" id="Ske1qn5w24b" kvg:type="㇐a" transform="matrix(1,0,0,1,1296,-4)" xmlns:kvg="http://kanjivg.tagaini.net"></path><path class="stroke_order_diagram--existing_path" d="M63.69,13.01c0.84,0.84,1.13,1.74,1.13,2.98c0,0.56-0.02,13.04-0.04,19.14c0,1.92-0.01,3.2-0.01,3.29" id="Ske1qn5w24c" kvg:type="㇑" transform="matrix(1,0,0,1,1296,-4)" xmlns:kvg="http://kanjivg.tagaini.net"></path><path class="stroke_order_diagram--existing_path" d="M65.55,14.66c3.51-0.46,15.87-2.38,20.6-2.99c3.21-0.41,4.62,0.61,4.55,3.96c-0.41,20.46,0.05,63.63,0.05,77.57c0,9.05-5.14,3-8.65-0.14" id="Ske1qn5w24d" kvg:type="㇆a" transform="matrix(1,0,0,1,1296,-4)" xmlns:kvg="http://kanjivg.tagaini.net"></path><path class="stroke_order_diagram--existing_path" d="M65.99,24.72c4.76-0.22,19.09-1.99,22.9-1.99" id="Ske1qn5w24e" kvg:type="㇐a" transform="matrix(1,0,0,1,1296,-4)" xmlns:kvg="http://kanjivg.tagaini.net"></path><path class="stroke_order_diagram--existing_path" d="M66.05,36.26c6.7-0.76,14.2-1.76,23.05-2.06" id="Ske1qn5w24f" kvg:type="㇐a" transform="matrix(1,0,0,1,1296,-4)" xmlns:kvg="http://kanjivg.tagaini.net"></path><path class="stroke_order_diagram--existing_path" d="M41.85,44.67c1.66,1.34,4.28,5.52,4.69,7.61" id="Ske1qn5w24g" kvg:type="㇔" transform="matrix(1,0,0,1,1296,-4)" xmlns:kvg="http://kanjivg.tagaini.net"></path><path class="stroke_order_diagram--existing_path" d="M61.7,42.39c0.02,0.24,0.11,0.63-0.03,0.95c-1.17,2.65-2.57,5.44-6.01,9.12" id="Ske1qn5w24h" kvg:type="㇒" transform="matrix(1,0,0,1,1296,-4)" xmlns:kvg="http://kanjivg.tagaini.net"></path><path class="stroke_order_diagram--existing_path" d="M37.1,57.11c1.59,0.61,3.52,0.24,5.15,0.06c5.84-0.65,17.04-2.26,22.52-2.75c1.53-0.14,2.95-0.2,4.45,0.15" id="Ske1qn5w24i" kvg:type="㇐" transform="matrix(1,0,0,1,1296,-4)" xmlns:kvg="http://kanjivg.tagaini.net"></path><path class="stroke_order_diagram--existing_path" d="M33.29,69.54c1.59,0.64,3.57,0.21,5.2,0.05c7.32-0.73,21.74-2.29,29.12-2.85c2.31-0.17,4.37-0.49,6.64,0.02" id="Ske1qn5w24j" kvg:type="㇐" transform="matrix(1,0,0,1,1296,-4)" xmlns:kvg="http://kanjivg.tagaini.net"></path><path class="stroke_order_diagram--existing_path" d="M52.6,58.34c0.52,0.78,0.75,1.71,0.6,2.65c-2.7,16.76-10.45,24.88-21.78,30.13" id="Ske1qn5w24k" kvg:type="㇒" transform="matrix(1,0,0,1,1296,-4)" xmlns:kvg="http://kanjivg.tagaini.net"></path><path class="stroke_order_diagram--current_path" d="M53.99,69.34c3.44,3.79,10.28,11.95,14.75,16.17c1.26,1.19,2.76,2.36,4.63,3.11" id="kvg:095a2-s14" kvg:type="㇏" transform="matrix(1,0,0,1,1296,-4)" xmlns:kvg="http://kanjivg.tagaini.net"></path><path class="stroke_order_diagram--current_path" d="M53.99,69.34c3.44,3.79,10.28,11.95,14.75,16.17c1.26,1.19,2.76,2.36,4.63,3.11" id="Ske1qn5w24m" kvg:type="㇏" transform="matrix(1,0,0,1,1296,-4)" xmlns:kvg="http://kanjivg.tagaini.net"></path><circle class="stroke_order_diagram--path_start" cx="53.99" cy="69.34" r="4" transform="matrix(1,0,0,1,1296,-4)"></circle></svg>