<svg class="stroke_order_diagram--svg_container_for_518662b8d5dda79658001408" style="height: 100px; width: 1200px;" viewbox="0 0 1200 100"><desc>Created with Snap</desc><defs></defs><line class="stroke_order_diagram--bounding_box" x1="1" x2="1199" y1="1" y2="1"></line><line class="stroke_order_diagram--bounding_box" x1="1" x2="1" y1="1" y2="99"></line><line class="stroke_order_diagram--bounding_box" x1="1" x2="1199" y1="99" y2="99"></line><line class="stroke_order_diagram--guide_line" x1="0" x2="1200" y1="50" y2="50"></line><line class="stroke_order_diagram--guide_line" x1="50" x2="50" y1="1" y2="99"></line><line class="stroke_order_diagram--bounding_box" x1="99" x2="99" y1="1" y2="99"></line><path class="stroke_order_diagram--current_path" d="M17.25,15.75c0.98,0.08,2.49,0.74,3.5,0.65c6.75-0.65,10.4-1.05,12.81-1.96c2.86-1.08,5.73,1.08,4.46,3.59c-1.27,2.51-7.68,16.21-9.91,19.8" id="kvg:0968b-s1" kvg:type="㇇" transform="matrix(1,0,0,1,-4,-4)" xmlns:kvg="http://kanjivg.tagaini.net"></path><path class="stroke_order_diagram--current_path" d="M17.25,15.75c0.98,0.08,2.49,0.74,3.5,0.65c6.75-0.65,10.4-1.05,12.81-1.96c2.86-1.08,5.73,1.08,4.46,3.59c-1.27,2.51-7.68,16.21-9.91,19.8" id="Ske2v8tzjl" kvg:type="㇇" transform="matrix(1,0,0,1,-4,-4)" xmlns:kvg="http://kanjivg.tagaini.net"></path><circle class="stroke_order_diagram--path_start" cx="17.25" cy="15.75" r="4" transform="matrix(1,0,0,1,-4,-4)"></circle><line class="stroke_order_diagram--guide_line" x1="150" x2="150" y1="1" y2="99"></line><line class="stroke_order_diagram--bounding_box" x1="199" x2="199" y1="1" y2="99"></line><path class="stroke_order_diagram--existing_path" d="M17.25,15.75c0.98,0.08,2.49,0.74,3.5,0.65c6.75-0.65,10.4-1.05,12.81-1.96c2.86-1.08,5.73,1.08,4.46,3.59c-1.27,2.51-7.68,16.21-9.91,19.8" id="Ske2v8tzjo" kvg:type="㇇" transform="matrix(1,0,0,1,96,-4)" xmlns:kvg="http://kanjivg.tagaini.net"></path><path class="stroke_order_diagram--current_path" d="M28.11,37.83C43.5,47.5,39.5,77.75,29.7,68.05" id="kvg:0968b-s2" kvg:type="㇕va" transform="matrix(1,0,0,1,96,-4)" xmlns:kvg="http://kanjivg.tagaini.net"></path><path class="stroke_order_diagram--current_path" d="M28.11,37.83C43.5,47.5,39.5,77.75,29.7,68.05" id="Ske2v8tzjq" kvg:type="㇕va" transform="matrix(1,0,0,1,96,-4)" xmlns:kvg="http://kanjivg.tagaini.net"></path><circle class="stroke_order_diagram--path_start" cx="28.11" cy="37.83" r="4" transform="matrix(1,0,0,1,96,-4)"></circle><line class="stroke_order_diagram--guide_line" x1="250" x2="250" y1="1" y2="99"></line><line class="stroke_order_diagram--bounding_box" x1="299" x2="299" y1="1" y2="99"></line><path class="stroke_order_diagram--existing_path" d="M17.25,15.75c0.98,0.08,2.49,0.74,3.5,0.65c6.75-0.65,10.4-1.05,12.81-1.96c2.86-1.08,5.73,1.08,4.46,3.59c-1.27,2.51-7.68,16.21-9.91,19.8" id="Ske2v8tzjt" kvg:type="㇇" transform="matrix(1,0,0,1,196,-4)" xmlns:kvg="http://kanjivg.tagaini.net"></path><path class="stroke_order_diagram--existing_path" d="M28.11,37.83C43.5,47.5,39.5,77.75,29.7,68.05" id="Ske2v8tzju" kvg:type="㇕va" transform="matrix(1,0,0,1,196,-4)" xmlns:kvg="http://kanjivg.tagaini.net"></path><path class="stroke_order_diagram--current_path" d="M18.99,16.14c0,0.83,0.37,0.86,0.37,3c0,5.11,0,69.63-0.21,76.36" id="kvg:0968b-s3" kvg:type="㇑" transform="matrix(1,0,0,1,196,-4)" xmlns:kvg="http://kanjivg.tagaini.net"></path><path class="stroke_order_diagram--current_path" d="M18.99,16.14c0,0.83,0.37,0.86,0.37,3c0,5.11,0,69.63-0.21,76.36" id="Ske2v8tzjw" kvg:type="㇑" transform="matrix(1,0,0,1,196,-4)" xmlns:kvg="http://kanjivg.tagaini.net"></path><circle class="stroke_order_diagram--path_start" cx="18.99" cy="16.14" r="4" transform="matrix(1,0,0,1,196,-4)"></circle><line class="stroke_order_diagram--guide_line" x1="350" x2="350" y1="1" y2="99"></line><line class="stroke_order_diagram--bounding_box" x1="399" x2="399" y1="1" y2="99"></line><path class="stroke_order_diagram--existing_path" d="M17.25,15.75c0.98,0.08,2.49,0.74,3.5,0.65c6.75-0.65,10.4-1.05,12.81-1.96c2.86-1.08,5.73,1.08,4.46,3.59c-1.27,2.51-7.68,16.21-9.91,19.8" id="Ske2v8tzjz" kvg:type="㇇" transform="matrix(1,0,0,1,296,-4)" xmlns:kvg="http://kanjivg.tagaini.net"></path><path class="stroke_order_diagram--existing_path" d="M28.11,37.83C43.5,47.5,39.5,77.75,29.7,68.05" id="Ske2v8tzj10" kvg:type="㇕va" transform="matrix(1,0,0,1,296,-4)" xmlns:kvg="http://kanjivg.tagaini.net"></path><path class="stroke_order_diagram--existing_path" d="M18.99,16.14c0,0.83,0.37,0.86,0.37,3c0,5.11,0,69.63-0.21,76.36" id="Ske2v8tzj11" kvg:type="㇑" transform="matrix(1,0,0,1,296,-4)" xmlns:kvg="http://kanjivg.tagaini.net"></path><path class="stroke_order_diagram--current_path" d="M45.98,20.28c1.51,0.19,3.02,0.4,4.37,0.3c11.87-0.84,23.02-1.9,37.8-2.8c2.07-0.13,3.16-0.13,4.86,0.26" id="kvg:0968b-s4" kvg:type="㇐" transform="matrix(1,0,0,1,296,-4)" xmlns:kvg="http://kanjivg.tagaini.net"></path><path class="stroke_order_diagram--current_path" d="M45.98,20.28c1.51,0.19,3.02,0.4,4.37,0.3c11.87-0.84,23.02-1.9,37.8-2.8c2.07-0.13,3.16-0.13,4.86,0.26" id="Ske2v8tzj13" kvg:type="㇐" transform="matrix(1,0,0,1,296,-4)" xmlns:kvg="http://kanjivg.tagaini.net"></path><circle class="stroke_order_diagram--path_start" cx="45.98" cy="20.28" r="4" transform="matrix(1,0,0,1,296,-4)"></circle><line class="stroke_order_diagram--guide_line" x1="450" x2="450" y1="1" y2="99"></line><line class="stroke_order_diagram--bounding_box" x1="499" x2="499" y1="1" y2="99"></line><path class="stroke_order_diagram--existing_path" d="M17.25,15.75c0.98,0.08,2.49,0.74,3.5,0.65c6.75-0.65,10.4-1.05,12.81-1.96c2.86-1.08,5.73,1.08,4.46,3.59c-1.27,2.51-7.68,16.21-9.91,19.8" id="Ske2v8tzj16" kvg:type="㇇" transform="matrix(1,0,0,1,396,-4)" xmlns:kvg="http://kanjivg.tagaini.net"></path><path class="stroke_order_diagram--existing_path" d="M28.11,37.83C43.5,47.5,39.5,77.75,29.7,68.05" id="Ske2v8tzj17" kvg:type="㇕va" transform="matrix(1,0,0,1,396,-4)" xmlns:kvg="http://kanjivg.tagaini.net"></path><path class="stroke_order_diagram--existing_path" d="M18.99,16.14c0,0.83,0.37,0.86,0.37,3c0,5.11,0,69.63-0.21,76.36" id="Ske2v8tzj18" kvg:type="㇑" transform="matrix(1,0,0,1,396,-4)" xmlns:kvg="http://kanjivg.tagaini.net"></path><path class="stroke_order_diagram--existing_path" d="M45.98,20.28c1.51,0.19,3.02,0.4,4.37,0.3c11.87-0.84,23.02-1.9,37.8-2.8c2.07-0.13,3.16-0.13,4.86,0.26" id="Ske2v8tzj19" kvg:type="㇐" transform="matrix(1,0,0,1,396,-4)" xmlns:kvg="http://kanjivg.tagaini.net"></path><path class="stroke_order_diagram--current_path" d="M62.84,8.75c0.14,0.75,0.23,2.12-0.02,2.96c-4.37,14.46-11.37,26.06-21.95,34.13" id="kvg:0968b-s5" kvg:type="㇒" transform="matrix(1,0,0,1,396,-4)" xmlns:kvg="http://kanjivg.tagaini.net"></path><path class="stroke_order_diagram--current_path" d="M62.84,8.75c0.14,0.75,0.23,2.12-0.02,2.96c-4.37,14.46-11.37,26.06-21.95,34.13" id="Ske2v8tzj1b" kvg:type="㇒" transform="matrix(1,0,0,1,396,-4)" xmlns:kvg="http://kanjivg.tagaini.net"></path><circle class="stroke_order_diagram--path_start" cx="62.84" cy="8.75" r="4" transform="matrix(1,0,0,1,396,-4)"></circle><line class="stroke_order_diagram--guide_line" x1="550" x2="550" y1="1" y2="99"></line><line class="stroke_order_diagram--bounding_box" x1="599" x2="599" y1="1" y2="99"></line><path class="stroke_order_diagram--existing_path" d="M17.25,15.75c0.98,0.08,2.49,0.74,3.5,0.65c6.75-0.65,10.4-1.05,12.81-1.96c2.86-1.08,5.73,1.08,4.46,3.59c-1.27,2.51-7.68,16.21-9.91,19.8" id="Ske2v8tzj1e" kvg:type="㇇" transform="matrix(1,0,0,1,496,-4)" xmlns:kvg="http://kanjivg.tagaini.net"></path><path class="stroke_order_diagram--existing_path" d="M28.11,37.83C43.5,47.5,39.5,77.75,29.7,68.05" id="Ske2v8tzj1f" kvg:type="㇕va" transform="matrix(1,0,0,1,496,-4)" xmlns:kvg="http://kanjivg.tagaini.net"></path><path class="stroke_order_diagram--existing_path" d="M18.99,16.14c0,0.83,0.37,0.86,0.37,3c0,5.11,0,69.63-0.21,76.36" id="Ske2v8tzj1g" kvg:type="㇑" transform="matrix(1,0,0,1,496,-4)" xmlns:kvg="http://kanjivg.tagaini.net"></path><path class="stroke_order_diagram--existing_path" d="M45.98,20.28c1.51,0.19,3.02,0.4,4.37,0.3c11.87-0.84,23.02-1.9,37.8-2.8c2.07-0.13,3.16-0.13,4.86,0.26" id="Ske2v8tzj1h" kvg:type="㇐" transform="matrix(1,0,0,1,496,-4)" xmlns:kvg="http://kanjivg.tagaini.net"></path><path class="stroke_order_diagram--existing_path" d="M62.84,8.75c0.14,0.75,0.23,2.12-0.02,2.96c-4.37,14.46-11.37,26.06-21.95,34.13" id="Ske2v8tzj1i" kvg:type="㇒" transform="matrix(1,0,0,1,496,-4)" xmlns:kvg="http://kanjivg.tagaini.net"></path><path class="stroke_order_diagram--current_path" d="M57.64,30.73c0.5,0.24,2.87,0.28,3.38,0.24c3.77-0.29,14.76-1.23,20.33-1.97c0.77-0.1,2.58,0.05,3.22,0.25" id="kvg:0968b-s6" kvg:type="㇐" transform="matrix(1,0,0,1,496,-4)" xmlns:kvg="http://kanjivg.tagaini.net"></path><path class="stroke_order_diagram--current_path" d="M57.64,30.73c0.5,0.24,2.87,0.28,3.38,0.24c3.77-0.29,14.76-1.23,20.33-1.97c0.77-0.1,2.58,0.05,3.22,0.25" id="Ske2v8tzj1k" kvg:type="㇐" transform="matrix(1,0,0,1,496,-4)" xmlns:kvg="http://kanjivg.tagaini.net"></path><circle class="stroke_order_diagram--path_start" cx="57.64" cy="30.73" r="4" transform="matrix(1,0,0,1,496,-4)"></circle><line class="stroke_order_diagram--guide_line" x1="650" x2="650" y1="1" y2="99"></line><line class="stroke_order_diagram--bounding_box" x1="699" x2="699" y1="1" y2="99"></line><path class="stroke_order_diagram--existing_path" d="M17.25,15.75c0.98,0.08,2.49,0.74,3.5,0.65c6.75-0.65,10.4-1.05,12.81-1.96c2.86-1.08,5.73,1.08,4.46,3.59c-1.27,2.51-7.68,16.21-9.91,19.8" id="Ske2v8tzj1n" kvg:type="㇇" transform="matrix(1,0,0,1,596,-4)" xmlns:kvg="http://kanjivg.tagaini.net"></path><path class="stroke_order_diagram--existing_path" d="M28.11,37.83C43.5,47.5,39.5,77.75,29.7,68.05" id="Ske2v8tzj1o" kvg:type="㇕va" transform="matrix(1,0,0,1,596,-4)" xmlns:kvg="http://kanjivg.tagaini.net"></path><path class="stroke_order_diagram--existing_path" d="M18.99,16.14c0,0.83,0.37,0.86,0.37,3c0,5.11,0,69.63-0.21,76.36" id="Ske2v8tzj1p" kvg:type="㇑" transform="matrix(1,0,0,1,596,-4)" xmlns:kvg="http://kanjivg.tagaini.net"></path><path class="stroke_order_diagram--existing_path" d="M45.98,20.28c1.51,0.19,3.02,0.4,4.37,0.3c11.87-0.84,23.02-1.9,37.8-2.8c2.07-0.13,3.16-0.13,4.86,0.26" id="Ske2v8tzj1q" kvg:type="㇐" transform="matrix(1,0,0,1,596,-4)" xmlns:kvg="http://kanjivg.tagaini.net"></path><path class="stroke_order_diagram--existing_path" d="M62.84,8.75c0.14,0.75,0.23,2.12-0.02,2.96c-4.37,14.46-11.37,26.06-21.95,34.13" id="Ske2v8tzj1r" kvg:type="㇒" transform="matrix(1,0,0,1,596,-4)" xmlns:kvg="http://kanjivg.tagaini.net"></path><path class="stroke_order_diagram--existing_path" d="M57.64,30.73c0.5,0.24,2.87,0.28,3.38,0.24c3.77-0.29,14.76-1.23,20.33-1.97c0.77-0.1,2.58,0.05,3.22,0.25" id="Ske2v8tzj1s" kvg:type="㇐" transform="matrix(1,0,0,1,596,-4)" xmlns:kvg="http://kanjivg.tagaini.net"></path><path class="stroke_order_diagram--current_path" d="M67.35,30.68c1.03,0.72,1.4,1.73,1.4,2.31c0,2.76,0.03,5.76,0.03,8.65" id="kvg:0968b-s7" kvg:type="㇑a" transform="matrix(1,0,0,1,596,-4)" xmlns:kvg="http://kanjivg.tagaini.net"></path><path class="stroke_order_diagram--current_path" d="M67.35,30.68c1.03,0.72,1.4,1.73,1.4,2.31c0,2.76,0.03,5.76,0.03,8.65" id="Ske2v8tzj1u" kvg:type="㇑a" transform="matrix(1,0,0,1,596,-4)" xmlns:kvg="http://kanjivg.tagaini.net"></path><circle class="stroke_order_diagram--path_start" cx="67.35" cy="30.68" r="4" transform="matrix(1,0,0,1,596,-4)"></circle><line class="stroke_order_diagram--guide_line" x1="750" x2="750" y1="1" y2="99"></line><line class="stroke_order_diagram--bounding_box" x1="799" x2="799" y1="1" y2="99"></line><path class="stroke_order_diagram--existing_path" d="M17.25,15.75c0.98,0.08,2.49,0.74,3.5,0.65c6.75-0.65,10.4-1.05,12.81-1.96c2.86-1.08,5.73,1.08,4.46,3.59c-1.27,2.51-7.68,16.21-9.91,19.8" id="Ske2v8tzj1x" kvg:type="㇇" transform="matrix(1,0,0,1,696,-4)" xmlns:kvg="http://kanjivg.tagaini.net"></path><path class="stroke_order_diagram--existing_path" d="M28.11,37.83C43.5,47.5,39.5,77.75,29.7,68.05" id="Ske2v8tzj1y" kvg:type="㇕va" transform="matrix(1,0,0,1,696,-4)" xmlns:kvg="http://kanjivg.tagaini.net"></path><path class="stroke_order_diagram--existing_path" d="M18.99,16.14c0,0.83,0.37,0.86,0.37,3c0,5.11,0,69.63-0.21,76.36" id="Ske2v8tzj1z" kvg:type="㇑" transform="matrix(1,0,0,1,696,-4)" xmlns:kvg="http://kanjivg.tagaini.net"></path><path class="stroke_order_diagram--existing_path" d="M45.98,20.28c1.51,0.19,3.02,0.4,4.37,0.3c11.87-0.84,23.02-1.9,37.8-2.8c2.07-0.13,3.16-0.13,4.86,0.26" id="Ske2v8tzj20" kvg:type="㇐" transform="matrix(1,0,0,1,696,-4)" xmlns:kvg="http://kanjivg.tagaini.net"></path><path class="stroke_order_diagram--existing_path" d="M62.84,8.75c0.14,0.75,0.23,2.12-0.02,2.96c-4.37,14.46-11.37,26.06-21.95,34.13" id="Ske2v8tzj21" kvg:type="㇒" transform="matrix(1,0,0,1,696,-4)" xmlns:kvg="http://kanjivg.tagaini.net"></path><path class="stroke_order_diagram--existing_path" d="M57.64,30.73c0.5,0.24,2.87,0.28,3.38,0.24c3.77-0.29,14.76-1.23,20.33-1.97c0.77-0.1,2.58,0.05,3.22,0.25" id="Ske2v8tzj22" kvg:type="㇐" transform="matrix(1,0,0,1,696,-4)" xmlns:kvg="http://kanjivg.tagaini.net"></path><path class="stroke_order_diagram--existing_path" d="M67.35,30.68c1.03,0.72,1.4,1.73,1.4,2.31c0,2.76,0.03,5.76,0.03,8.65" id="Ske2v8tzj23" kvg:type="㇑a" transform="matrix(1,0,0,1,696,-4)" xmlns:kvg="http://kanjivg.tagaini.net"></path><path class="stroke_order_diagram--current_path" d="M50.33,42.71c0.67,0.18,2.71,0.31,3.85,0.29c9.71-0.15,23.82-2.25,33.99-2.67c1.83-0.07,3.3,0.3,4.21,0.59" id="kvg:0968b-s8" kvg:type="㇐" transform="matrix(1,0,0,1,696,-4)" xmlns:kvg="http://kanjivg.tagaini.net"></path><path class="stroke_order_diagram--current_path" d="M50.33,42.71c0.67,0.18,2.71,0.31,3.85,0.29c9.71-0.15,23.82-2.25,33.99-2.67c1.83-0.07,3.3,0.3,4.21,0.59" id="Ske2v8tzj25" kvg:type="㇐" transform="matrix(1,0,0,1,696,-4)" xmlns:kvg="http://kanjivg.tagaini.net"></path><circle class="stroke_order_diagram--path_start" cx="50.33" cy="42.71" r="4" transform="matrix(1,0,0,1,696,-4)"></circle><line class="stroke_order_diagram--guide_line" x1="850" x2="850" y1="1" y2="99"></line><line class="stroke_order_diagram--bounding_box" x1="899" x2="899" y1="1" y2="99"></line><path class="stroke_order_diagram--existing_path" d="M17.25,15.75c0.98,0.08,2.49,0.74,3.5,0.65c6.75-0.65,10.4-1.05,12.81-1.96c2.86-1.08,5.73,1.08,4.46,3.59c-1.27,2.51-7.68,16.21-9.91,19.8" id="Ske2v8tzj28" kvg:type="㇇" transform="matrix(1,0,0,1,796,-4)" xmlns:kvg="http://kanjivg.tagaini.net"></path><path class="stroke_order_diagram--existing_path" d="M28.11,37.83C43.5,47.5,39.5,77.75,29.7,68.05" id="Ske2v8tzj29" kvg:type="㇕va" transform="matrix(1,0,0,1,796,-4)" xmlns:kvg="http://kanjivg.tagaini.net"></path><path class="stroke_order_diagram--existing_path" d="M18.99,16.14c0,0.83,0.37,0.86,0.37,3c0,5.11,0,69.63-0.21,76.36" id="Ske2v8tzj2a" kvg:type="㇑" transform="matrix(1,0,0,1,796,-4)" xmlns:kvg="http://kanjivg.tagaini.net"></path><path class="stroke_order_diagram--existing_path" d="M45.98,20.28c1.51,0.19,3.02,0.4,4.37,0.3c11.87-0.84,23.02-1.9,37.8-2.8c2.07-0.13,3.16-0.13,4.86,0.26" id="Ske2v8tzj2b" kvg:type="㇐" transform="matrix(1,0,0,1,796,-4)" xmlns:kvg="http://kanjivg.tagaini.net"></path><path class="stroke_order_diagram--existing_path" d="M62.84,8.75c0.14,0.75,0.23,2.12-0.02,2.96c-4.37,14.46-11.37,26.06-21.95,34.13" id="Ske2v8tzj2c" kvg:type="㇒" transform="matrix(1,0,0,1,796,-4)" xmlns:kvg="http://kanjivg.tagaini.net"></path><path class="stroke_order_diagram--existing_path" d="M57.64,30.73c0.5,0.24,2.87,0.28,3.38,0.24c3.77-0.29,14.76-1.23,20.33-1.97c0.77-0.1,2.58,0.05,3.22,0.25" id="Ske2v8tzj2d" kvg:type="㇐" transform="matrix(1,0,0,1,796,-4)" xmlns:kvg="http://kanjivg.tagaini.net"></path><path class="stroke_order_diagram--existing_path" d="M67.35,30.68c1.03,0.72,1.4,1.73,1.4,2.31c0,2.76,0.03,5.76,0.03,8.65" id="Ske2v8tzj2e" kvg:type="㇑a" transform="matrix(1,0,0,1,796,-4)" xmlns:kvg="http://kanjivg.tagaini.net"></path><path class="stroke_order_diagram--existing_path" d="M50.33,42.71c0.67,0.18,2.71,0.31,3.85,0.29c9.71-0.15,23.82-2.25,33.99-2.67c1.83-0.07,3.3,0.3,4.21,0.59" id="Ske2v8tzj2f" kvg:type="㇐" transform="matrix(1,0,0,1,796,-4)" xmlns:kvg="http://kanjivg.tagaini.net"></path><path class="stroke_order_diagram--current_path" d="M53.03,52.08c0.58,0.66,1.15,2.29,1.15,2.97c0,3.95,0.27,39.06,0.19,40.49" id="kvg:0968b-s9" kvg:type="㇒" transform="matrix(1,0,0,1,796,-4)" xmlns:kvg="http://kanjivg.tagaini.net"></path><path class="stroke_order_diagram--current_path" d="M53.03,52.08c0.58,0.66,1.15,2.29,1.15,2.97c0,3.95,0.27,39.06,0.19,40.49" id="Ske2v8tzj2h" kvg:type="㇒" transform="matrix(1,0,0,1,796,-4)" xmlns:kvg="http://kanjivg.tagaini.net"></path><circle class="stroke_order_diagram--path_start" cx="53.03" cy="52.08" r="4" transform="matrix(1,0,0,1,796,-4)"></circle><line class="stroke_order_diagram--guide_line" x1="950" x2="950" y1="1" y2="99"></line><line class="stroke_order_diagram--bounding_box" x1="999" x2="999" y1="1" y2="99"></line><path class="stroke_order_diagram--existing_path" d="M17.25,15.75c0.98,0.08,2.49,0.74,3.5,0.65c6.75-0.65,10.4-1.05,12.81-1.96c2.86-1.08,5.73,1.08,4.46,3.59c-1.27,2.51-7.68,16.21-9.91,19.8" id="Ske2v8tzj2k" kvg:type="㇇" transform="matrix(1,0,0,1,896,-4)" xmlns:kvg="http://kanjivg.tagaini.net"></path><path class="stroke_order_diagram--existing_path" d="M28.11,37.83C43.5,47.5,39.5,77.75,29.7,68.05" id="Ske2v8tzj2l" kvg:type="㇕va" transform="matrix(1,0,0,1,896,-4)" xmlns:kvg="http://kanjivg.tagaini.net"></path><path class="stroke_order_diagram--existing_path" d="M18.99,16.14c0,0.83,0.37,0.86,0.37,3c0,5.11,0,69.63-0.21,76.36" id="Ske2v8tzj2m" kvg:type="㇑" transform="matrix(1,0,0,1,896,-4)" xmlns:kvg="http://kanjivg.tagaini.net"></path><path class="stroke_order_diagram--existing_path" d="M45.98,20.28c1.51,0.19,3.02,0.4,4.37,0.3c11.87-0.84,23.02-1.9,37.8-2.8c2.07-0.13,3.16-0.13,4.86,0.26" id="Ske2v8tzj2n" kvg:type="㇐" transform="matrix(1,0,0,1,896,-4)" xmlns:kvg="http://kanjivg.tagaini.net"></path><path class="stroke_order_diagram--existing_path" d="M62.84,8.75c0.14,0.75,0.23,2.12-0.02,2.96c-4.37,14.46-11.37,26.06-21.95,34.13" id="Ske2v8tzj2o" kvg:type="㇒" transform="matrix(1,0,0,1,896,-4)" xmlns:kvg="http://kanjivg.tagaini.net"></path><path class="stroke_order_diagram--existing_path" d="M57.64,30.73c0.5,0.24,2.87,0.28,3.38,0.24c3.77-0.29,14.76-1.23,20.33-1.97c0.77-0.1,2.58,0.05,3.22,0.25" id="Ske2v8tzj2p" kvg:type="㇐" transform="matrix(1,0,0,1,896,-4)" xmlns:kvg="http://kanjivg.tagaini.net"></path><path class="stroke_order_diagram--existing_path" d="M67.35,30.68c1.03,0.72,1.4,1.73,1.4,2.31c0,2.76,0.03,5.76,0.03,8.65" id="Ske2v8tzj2q" kvg:type="㇑a" transform="matrix(1,0,0,1,896,-4)" xmlns:kvg="http://kanjivg.tagaini.net"></path><path class="stroke_order_diagram--existing_path" d="M50.33,42.71c0.67,0.18,2.71,0.31,3.85,0.29c9.71-0.15,23.82-2.25,33.99-2.67c1.83-0.07,3.3,0.3,4.21,0.59" id="Ske2v8tzj2r" kvg:type="㇐" transform="matrix(1,0,0,1,896,-4)" xmlns:kvg="http://kanjivg.tagaini.net"></path><path class="stroke_order_diagram--existing_path" d="M53.03,52.08c0.58,0.66,1.15,2.29,1.15,2.97c0,3.95,0.27,39.06,0.19,40.49" id="Ske2v8tzj2s" kvg:type="㇒" transform="matrix(1,0,0,1,896,-4)" xmlns:kvg="http://kanjivg.tagaini.net"></path><path class="stroke_order_diagram--current_path" d="M55.33,53.46c2.3-0.05,23.39-2.3,25.11-2.4c3.07-0.18,3.83,0.93,3.83,3.2c0,3.23-0.58,21.88-0.58,34.79c0,11.44-3.45,4.69-6.02,2.14" id="kvg:0968b-s10" kvg:type="㇆a" transform="matrix(1,0,0,1,896,-4)" xmlns:kvg="http://kanjivg.tagaini.net"></path><path class="stroke_order_diagram--current_path" d="M55.33,53.46c2.3-0.05,23.39-2.3,25.11-2.4c3.07-0.18,3.83,0.93,3.83,3.2c0,3.23-0.58,21.88-0.58,34.79c0,11.44-3.45,4.69-6.02,2.14" id="Ske2v8tzj2u" kvg:type="㇆a" transform="matrix(1,0,0,1,896,-4)" xmlns:kvg="http://kanjivg.tagaini.net"></path><circle class="stroke_order_diagram--path_start" cx="55.33" cy="53.46" r="4" transform="matrix(1,0,0,1,896,-4)"></circle><line class="stroke_order_diagram--guide_line" x1="1050" x2="1050" y1="1" y2="99"></line><line class="stroke_order_diagram--bounding_box" x1="1099" x2="1099" y1="1" y2="99"></line><path class="stroke_order_diagram--existing_path" d="M17.25,15.75c0.98,0.08,2.49,0.74,3.5,0.65c6.75-0.65,10.4-1.05,12.81-1.96c2.86-1.08,5.73,1.08,4.46,3.59c-1.27,2.51-7.68,16.21-9.91,19.8" id="Ske2v8tzj2x" kvg:type="㇇" transform="matrix(1,0,0,1,996,-4)" xmlns:kvg="http://kanjivg.tagaini.net"></path><path class="stroke_order_diagram--existing_path" d="M28.11,37.83C43.5,47.5,39.5,77.75,29.7,68.05" id="Ske2v8tzj2y" kvg:type="㇕va" transform="matrix(1,0,0,1,996,-4)" xmlns:kvg="http://kanjivg.tagaini.net"></path><path class="stroke_order_diagram--existing_path" d="M18.99,16.14c0,0.83,0.37,0.86,0.37,3c0,5.11,0,69.63-0.21,76.36" id="Ske2v8tzj2z" kvg:type="㇑" transform="matrix(1,0,0,1,996,-4)" xmlns:kvg="http://kanjivg.tagaini.net"></path><path class="stroke_order_diagram--existing_path" d="M45.98,20.28c1.51,0.19,3.02,0.4,4.37,0.3c11.87-0.84,23.02-1.9,37.8-2.8c2.07-0.13,3.16-0.13,4.86,0.26" id="Ske2v8tzj30" kvg:type="㇐" transform="matrix(1,0,0,1,996,-4)" xmlns:kvg="http://kanjivg.tagaini.net"></path><path class="stroke_order_diagram--existing_path" d="M62.84,8.75c0.14,0.75,0.23,2.12-0.02,2.96c-4.37,14.46-11.37,26.06-21.95,34.13" id="Ske2v8tzj31" kvg:type="㇒" transform="matrix(1,0,0,1,996,-4)" xmlns:kvg="http://kanjivg.tagaini.net"></path><path class="stroke_order_diagram--existing_path" d="M57.64,30.73c0.5,0.24,2.87,0.28,3.38,0.24c3.77-0.29,14.76-1.23,20.33-1.97c0.77-0.1,2.58,0.05,3.22,0.25" id="Ske2v8tzj32" kvg:type="㇐" transform="matrix(1,0,0,1,996,-4)" xmlns:kvg="http://kanjivg.tagaini.net"></path><path class="stroke_order_diagram--existing_path" d="M67.35,30.68c1.03,0.72,1.4,1.73,1.4,2.31c0,2.76,0.03,5.76,0.03,8.65" id="Ske2v8tzj33" kvg:type="㇑a" transform="matrix(1,0,0,1,996,-4)" xmlns:kvg="http://kanjivg.tagaini.net"></path><path class="stroke_order_diagram--existing_path" d="M50.33,42.71c0.67,0.18,2.71,0.31,3.85,0.29c9.71-0.15,23.82-2.25,33.99-2.67c1.83-0.07,3.3,0.3,4.21,0.59" id="Ske2v8tzj34" kvg:type="㇐" transform="matrix(1,0,0,1,996,-4)" xmlns:kvg="http://kanjivg.tagaini.net"></path><path class="stroke_order_diagram--existing_path" d="M53.03,52.08c0.58,0.66,1.15,2.29,1.15,2.97c0,3.95,0.27,39.06,0.19,40.49" id="Ske2v8tzj35" kvg:type="㇒" transform="matrix(1,0,0,1,996,-4)" xmlns:kvg="http://kanjivg.tagaini.net"></path><path class="stroke_order_diagram--existing_path" d="M55.33,53.46c2.3-0.05,23.39-2.3,25.11-2.4c3.07-0.18,3.83,0.93,3.83,3.2c0,3.23-0.58,21.88-0.58,34.79c0,11.44-3.45,4.69-6.02,2.14" id="Ske2v8tzj36" kvg:type="㇆a" transform="matrix(1,0,0,1,996,-4)" xmlns:kvg="http://kanjivg.tagaini.net"></path><path class="stroke_order_diagram--current_path" d="M55.33,64.24c7.86-0.6,20.7-1.96,27.6-2.12" id="kvg:0968b-s11" kvg:type="㇐a" transform="matrix(1,0,0,1,996,-4)" xmlns:kvg="http://kanjivg.tagaini.net"></path><path class="stroke_order_diagram--current_path" d="M55.33,64.24c7.86-0.6,20.7-1.96,27.6-2.12" id="Ske2v8tzj38" kvg:type="㇐a" transform="matrix(1,0,0,1,996,-4)" xmlns:kvg="http://kanjivg.tagaini.net"></path><circle class="stroke_order_diagram--path_start" cx="55.33" cy="64.24" r="4" transform="matrix(1,0,0,1,996,-4)"></circle><line class="stroke_order_diagram--guide_line" x1="1150" x2="1150" y1="1" y2="99"></line><line class="stroke_order_diagram--bounding_box" x1="1199" x2="1199" y1="1" y2="99"></line><path class="stroke_order_diagram--existing_path" d="M17.25,15.75c0.98,0.08,2.49,0.74,3.5,0.65c6.75-0.65,10.4-1.05,12.81-1.96c2.86-1.08,5.73,1.08,4.46,3.59c-1.27,2.51-7.68,16.21-9.91,19.8" id="Ske2v8tzj3b" kvg:type="㇇" transform="matrix(1,0,0,1,1096,-4)" xmlns:kvg="http://kanjivg.tagaini.net"></path><path class="stroke_order_diagram--existing_path" d="M28.11,37.83C43.5,47.5,39.5,77.75,29.7,68.05" id="Ske2v8tzj3c" kvg:type="㇕va" transform="matrix(1,0,0,1,1096,-4)" xmlns:kvg="http://kanjivg.tagaini.net"></path><path class="stroke_order_diagram--existing_path" d="M18.99,16.14c0,0.83,0.37,0.86,0.37,3c0,5.11,0,69.63-0.21,76.36" id="Ske2v8tzj3d" kvg:type="㇑" transform="matrix(1,0,0,1,1096,-4)" xmlns:kvg="http://kanjivg.tagaini.net"></path><path class="stroke_order_diagram--existing_path" d="M45.98,20.28c1.51,0.19,3.02,0.4,4.37,0.3c11.87-0.84,23.02-1.9,37.8-2.8c2.07-0.13,3.16-0.13,4.86,0.26" id="Ske2v8tzj3e" kvg:type="㇐" transform="matrix(1,0,0,1,1096,-4)" xmlns:kvg="http://kanjivg.tagaini.net"></path><path class="stroke_order_diagram--existing_path" d="M62.84,8.75c0.14,0.75,0.23,2.12-0.02,2.96c-4.37,14.46-11.37,26.06-21.95,34.13" id="Ske2v8tzj3f" kvg:type="㇒" transform="matrix(1,0,0,1,1096,-4)" xmlns:kvg="http://kanjivg.tagaini.net"></path><path class="stroke_order_diagram--existing_path" d="M57.64,30.73c0.5,0.24,2.87,0.28,3.38,0.24c3.77-0.29,14.76-1.23,20.33-1.97c0.77-0.1,2.58,0.05,3.22,0.25" id="Ske2v8tzj3g" kvg:type="㇐" transform="matrix(1,0,0,1,1096,-4)" xmlns:kvg="http://kanjivg.tagaini.net"></path><path class="stroke_order_diagram--existing_path" d="M67.35,30.68c1.03,0.72,1.4,1.73,1.4,2.31c0,2.76,0.03,5.76,0.03,8.65" id="Ske2v8tzj3h" kvg:type="㇑a" transform="matrix(1,0,0,1,1096,-4)" xmlns:kvg="http://kanjivg.tagaini.net"></path><path class="stroke_order_diagram--existing_path" d="M50.33,42.71c0.67,0.18,2.71,0.31,3.85,0.29c9.71-0.15,23.82-2.25,33.99-2.67c1.83-0.07,3.3,0.3,4.21,0.59" id="Ske2v8tzj3i" kvg:type="㇐" transform="matrix(1,0,0,1,1096,-4)" xmlns:kvg="http://kanjivg.tagaini.net"></path><path class="stroke_order_diagram--existing_path" d="M53.03,52.08c0.58,0.66,1.15,2.29,1.15,2.97c0,3.95,0.27,39.06,0.19,40.49" id="Ske2v8tzj3j" kvg:type="㇒" transform="matrix(1,0,0,1,1096,-4)" xmlns:kvg="http://kanjivg.tagaini.net"></path><path class="stroke_order_diagram--existing_path" d="M55.33,53.46c2.3-0.05,23.39-2.3,25.11-2.4c3.07-0.18,3.83,0.93,3.83,3.2c0,3.23-0.58,21.88-0.58,34.79c0,11.44-3.45,4.69-6.02,2.14" id="Ske2v8tzj3k" kvg:type="㇆a" transform="matrix(1,0,0,1,1096,-4)" xmlns:kvg="http://kanjivg.tagaini.net"></path><path class="stroke_order_diagram--existing_path" d="M55.33,64.24c7.86-0.6,20.7-1.96,27.6-2.12" id="Ske2v8tzj3l" kvg:type="㇐a" transform="matrix(1,0,0,1,1096,-4)" xmlns:kvg="http://kanjivg.tagaini.net"></path><path class="stroke_order_diagram--current_path" d="M54.41,75.36c6.13-0.2,20.34-1.36,29.14-2.03" id="kvg:0968b-s12" kvg:type="㇐a" transform="matrix(1,0,0,1,1096,-4)" xmlns:kvg="http://kanjivg.tagaini.net"></path><path class="stroke_order_diagram--current_path" d="M54.41,75.36c6.13-0.2,20.34-1.36,29.14-2.03" id="Ske2v8tzj3n" kvg:type="㇐a" transform="matrix(1,0,0,1,1096,-4)" xmlns:kvg="http://kanjivg.tagaini.net"></path><circle class="stroke_order_diagram--path_start" cx="54.41" cy="75.36" r="4" transform="matrix(1,0,0,1,1096,-4)"></circle></svg>