<svg class="stroke_order_diagram--svg_container_for_51866296d5dda796580009a3" style="height: 100px; width: 1200px;" viewbox="0 0 1200 100"><desc>Created with Snap</desc><defs></defs><line class="stroke_order_diagram--bounding_box" x1="1" x2="1199" y1="1" y2="1"></line><line class="stroke_order_diagram--bounding_box" x1="1" x2="1" y1="1" y2="99"></line><line class="stroke_order_diagram--bounding_box" x1="1" x2="1199" y1="99" y2="99"></line><line class="stroke_order_diagram--guide_line" x1="0" x2="1200" y1="50" y2="50"></line><line class="stroke_order_diagram--guide_line" x1="50" x2="50" y1="1" y2="99"></line><line class="stroke_order_diagram--bounding_box" x1="99" x2="99" y1="1" y2="99"></line><path class="stroke_order_diagram--current_path" d="M32.31,14.13c2.56,0.74,4.9,0.6,7.34,0.3c6.14-0.77,18.32-2.02,28.36-2.67c2.32-0.15,4.66-0.34,6.97-0.02" id="kvg:096f0-s1" kvg:type="㇐" transform="matrix(1,0,0,1,-4,-4)" xmlns:kvg="http://kanjivg.tagaini.net"></path><path class="stroke_order_diagram--current_path" d="M32.31,14.13c2.56,0.74,4.9,0.6,7.34,0.3c6.14-0.77,18.32-2.02,28.36-2.67c2.32-0.15,4.66-0.34,6.97-0.02" id="Ske27rzsvl" kvg:type="㇐" transform="matrix(1,0,0,1,-4,-4)" xmlns:kvg="http://kanjivg.tagaini.net"></path><circle class="stroke_order_diagram--path_start" cx="32.31" cy="14.13" r="4" transform="matrix(1,0,0,1,-4,-4)"></circle><line class="stroke_order_diagram--guide_line" x1="150" x2="150" y1="1" y2="99"></line><line class="stroke_order_diagram--bounding_box" x1="199" x2="199" y1="1" y2="99"></line><path class="stroke_order_diagram--existing_path" d="M32.31,14.13c2.56,0.74,4.9,0.6,7.34,0.3c6.14-0.77,18.32-2.02,28.36-2.67c2.32-0.15,4.66-0.34,6.97-0.02" id="Ske27rzsvo" kvg:type="㇐" transform="matrix(1,0,0,1,96,-4)" xmlns:kvg="http://kanjivg.tagaini.net"></path><path class="stroke_order_diagram--current_path" d="M20.91,24.42c-0.32,5.48-3.28,12.71-5.21,17.09" id="kvg:096f0-s2" kvg:type="㇔/㇑" transform="matrix(1,0,0,1,96,-4)" xmlns:kvg="http://kanjivg.tagaini.net"></path><path class="stroke_order_diagram--current_path" d="M20.91,24.42c-0.32,5.48-3.28,12.71-5.21,17.09" id="Ske27rzsvq" kvg:type="㇔/㇑" transform="matrix(1,0,0,1,96,-4)" xmlns:kvg="http://kanjivg.tagaini.net"></path><circle class="stroke_order_diagram--path_start" cx="20.91" cy="24.42" r="4" transform="matrix(1,0,0,1,96,-4)"></circle><line class="stroke_order_diagram--guide_line" x1="250" x2="250" y1="1" y2="99"></line><line class="stroke_order_diagram--bounding_box" x1="299" x2="299" y1="1" y2="99"></line><path class="stroke_order_diagram--existing_path" d="M32.31,14.13c2.56,0.74,4.9,0.6,7.34,0.3c6.14-0.77,18.32-2.02,28.36-2.67c2.32-0.15,4.66-0.34,6.97-0.02" id="Ske27rzsvt" kvg:type="㇐" transform="matrix(1,0,0,1,196,-4)" xmlns:kvg="http://kanjivg.tagaini.net"></path><path class="stroke_order_diagram--existing_path" d="M20.91,24.42c-0.32,5.48-3.28,12.71-5.21,17.09" id="Ske27rzsvu" kvg:type="㇔/㇑" transform="matrix(1,0,0,1,196,-4)" xmlns:kvg="http://kanjivg.tagaini.net"></path><path class="stroke_order_diagram--current_path" d="M21.61,26.71c21.26-1.83,51.19-4.91,67.08-4.91c8.22,0,3.55,4.45-1.28,8.18" id="kvg:096f0-s3" kvg:type="㇖b/㇆" transform="matrix(1,0,0,1,196,-4)" xmlns:kvg="http://kanjivg.tagaini.net"></path><path class="stroke_order_diagram--current_path" d="M21.61,26.71c21.26-1.83,51.19-4.91,67.08-4.91c8.22,0,3.55,4.45-1.28,8.18" id="Ske27rzsvw" kvg:type="㇖b/㇆" transform="matrix(1,0,0,1,196,-4)" xmlns:kvg="http://kanjivg.tagaini.net"></path><circle class="stroke_order_diagram--path_start" cx="21.61" cy="26.71" r="4" transform="matrix(1,0,0,1,196,-4)"></circle><line class="stroke_order_diagram--guide_line" x1="350" x2="350" y1="1" y2="99"></line><line class="stroke_order_diagram--bounding_box" x1="399" x2="399" y1="1" y2="99"></line><path class="stroke_order_diagram--existing_path" d="M32.31,14.13c2.56,0.74,4.9,0.6,7.34,0.3c6.14-0.77,18.32-2.02,28.36-2.67c2.32-0.15,4.66-0.34,6.97-0.02" id="Ske27rzsvz" kvg:type="㇐" transform="matrix(1,0,0,1,296,-4)" xmlns:kvg="http://kanjivg.tagaini.net"></path><path class="stroke_order_diagram--existing_path" d="M20.91,24.42c-0.32,5.48-3.28,12.71-5.21,17.09" id="Ske27rzsv10" kvg:type="㇔/㇑" transform="matrix(1,0,0,1,296,-4)" xmlns:kvg="http://kanjivg.tagaini.net"></path><path class="stroke_order_diagram--existing_path" d="M21.61,26.71c21.26-1.83,51.19-4.91,67.08-4.91c8.22,0,3.55,4.45-1.28,8.18" id="Ske27rzsv11" kvg:type="㇖b/㇆" transform="matrix(1,0,0,1,296,-4)" xmlns:kvg="http://kanjivg.tagaini.net"></path><path class="stroke_order_diagram--current_path" d="M52.81,16.22c1.11,1.11,1.35,2.53,1.35,3.98c0,0.35-0.02,10.71-0.03,18.06c0,3.01-0.01,5.27-0.01,5.66" id="kvg:096f0-s4" kvg:type="㇑" transform="matrix(1,0,0,1,296,-4)" xmlns:kvg="http://kanjivg.tagaini.net"></path><path class="stroke_order_diagram--current_path" d="M52.81,16.22c1.11,1.11,1.35,2.53,1.35,3.98c0,0.35-0.02,10.71-0.03,18.06c0,3.01-0.01,5.27-0.01,5.66" id="Ske27rzsv13" kvg:type="㇑" transform="matrix(1,0,0,1,296,-4)" xmlns:kvg="http://kanjivg.tagaini.net"></path><circle class="stroke_order_diagram--path_start" cx="52.81" cy="16.22" r="4" transform="matrix(1,0,0,1,296,-4)"></circle><line class="stroke_order_diagram--guide_line" x1="450" x2="450" y1="1" y2="99"></line><line class="stroke_order_diagram--bounding_box" x1="499" x2="499" y1="1" y2="99"></line><path class="stroke_order_diagram--existing_path" d="M32.31,14.13c2.56,0.74,4.9,0.6,7.34,0.3c6.14-0.77,18.32-2.02,28.36-2.67c2.32-0.15,4.66-0.34,6.97-0.02" id="Ske27rzsv16" kvg:type="㇐" transform="matrix(1,0,0,1,396,-4)" xmlns:kvg="http://kanjivg.tagaini.net"></path><path class="stroke_order_diagram--existing_path" d="M20.91,24.42c-0.32,5.48-3.28,12.71-5.21,17.09" id="Ske27rzsv17" kvg:type="㇔/㇑" transform="matrix(1,0,0,1,396,-4)" xmlns:kvg="http://kanjivg.tagaini.net"></path><path class="stroke_order_diagram--existing_path" d="M21.61,26.71c21.26-1.83,51.19-4.91,67.08-4.91c8.22,0,3.55,4.45-1.28,8.18" id="Ske27rzsv18" kvg:type="㇖b/㇆" transform="matrix(1,0,0,1,396,-4)" xmlns:kvg="http://kanjivg.tagaini.net"></path><path class="stroke_order_diagram--existing_path" d="M52.81,16.22c1.11,1.11,1.35,2.53,1.35,3.98c0,0.35-0.02,10.71-0.03,18.06c0,3.01-0.01,5.27-0.01,5.66" id="Ske27rzsv19" kvg:type="㇑" transform="matrix(1,0,0,1,396,-4)" xmlns:kvg="http://kanjivg.tagaini.net"></path><path class="stroke_order_diagram--current_path" d="M31.5,32.25c3.86,0.81,9.11,3.22,11.22,4.57" id="kvg:096f0-s5" kvg:type="㇔" transform="matrix(1,0,0,1,396,-4)" xmlns:kvg="http://kanjivg.tagaini.net"></path><path class="stroke_order_diagram--current_path" d="M31.5,32.25c3.86,0.81,9.11,3.22,11.22,4.57" id="Ske27rzsv1b" kvg:type="㇔" transform="matrix(1,0,0,1,396,-4)" xmlns:kvg="http://kanjivg.tagaini.net"></path><circle class="stroke_order_diagram--path_start" cx="31.5" cy="32.25" r="4" transform="matrix(1,0,0,1,396,-4)"></circle><line class="stroke_order_diagram--guide_line" x1="550" x2="550" y1="1" y2="99"></line><line class="stroke_order_diagram--bounding_box" x1="599" x2="599" y1="1" y2="99"></line><path class="stroke_order_diagram--existing_path" d="M32.31,14.13c2.56,0.74,4.9,0.6,7.34,0.3c6.14-0.77,18.32-2.02,28.36-2.67c2.32-0.15,4.66-0.34,6.97-0.02" id="Ske27rzsv1e" kvg:type="㇐" transform="matrix(1,0,0,1,496,-4)" xmlns:kvg="http://kanjivg.tagaini.net"></path><path class="stroke_order_diagram--existing_path" d="M20.91,24.42c-0.32,5.48-3.28,12.71-5.21,17.09" id="Ske27rzsv1f" kvg:type="㇔/㇑" transform="matrix(1,0,0,1,496,-4)" xmlns:kvg="http://kanjivg.tagaini.net"></path><path class="stroke_order_diagram--existing_path" d="M21.61,26.71c21.26-1.83,51.19-4.91,67.08-4.91c8.22,0,3.55,4.45-1.28,8.18" id="Ske27rzsv1g" kvg:type="㇖b/㇆" transform="matrix(1,0,0,1,496,-4)" xmlns:kvg="http://kanjivg.tagaini.net"></path><path class="stroke_order_diagram--existing_path" d="M52.81,16.22c1.11,1.11,1.35,2.53,1.35,3.98c0,0.35-0.02,10.71-0.03,18.06c0,3.01-0.01,5.27-0.01,5.66" id="Ske27rzsv1h" kvg:type="㇑" transform="matrix(1,0,0,1,496,-4)" xmlns:kvg="http://kanjivg.tagaini.net"></path><path class="stroke_order_diagram--existing_path" d="M31.5,32.25c3.86,0.81,9.11,3.22,11.22,4.57" id="Ske27rzsv1i" kvg:type="㇔" transform="matrix(1,0,0,1,496,-4)" xmlns:kvg="http://kanjivg.tagaini.net"></path><path class="stroke_order_diagram--current_path" d="M28.62,41.62c3.61,0.87,9.2,4.07,11.17,5.53" id="kvg:096f0-s6" kvg:type="㇔" transform="matrix(1,0,0,1,496,-4)" xmlns:kvg="http://kanjivg.tagaini.net"></path><path class="stroke_order_diagram--current_path" d="M28.62,41.62c3.61,0.87,9.2,4.07,11.17,5.53" id="Ske27rzsv1k" kvg:type="㇔" transform="matrix(1,0,0,1,496,-4)" xmlns:kvg="http://kanjivg.tagaini.net"></path><circle class="stroke_order_diagram--path_start" cx="28.62" cy="41.62" r="4" transform="matrix(1,0,0,1,496,-4)"></circle><line class="stroke_order_diagram--guide_line" x1="650" x2="650" y1="1" y2="99"></line><line class="stroke_order_diagram--bounding_box" x1="699" x2="699" y1="1" y2="99"></line><path class="stroke_order_diagram--existing_path" d="M32.31,14.13c2.56,0.74,4.9,0.6,7.34,0.3c6.14-0.77,18.32-2.02,28.36-2.67c2.32-0.15,4.66-0.34,6.97-0.02" id="Ske27rzsv1n" kvg:type="㇐" transform="matrix(1,0,0,1,596,-4)" xmlns:kvg="http://kanjivg.tagaini.net"></path><path class="stroke_order_diagram--existing_path" d="M20.91,24.42c-0.32,5.48-3.28,12.71-5.21,17.09" id="Ske27rzsv1o" kvg:type="㇔/㇑" transform="matrix(1,0,0,1,596,-4)" xmlns:kvg="http://kanjivg.tagaini.net"></path><path class="stroke_order_diagram--existing_path" d="M21.61,26.71c21.26-1.83,51.19-4.91,67.08-4.91c8.22,0,3.55,4.45-1.28,8.18" id="Ske27rzsv1p" kvg:type="㇖b/㇆" transform="matrix(1,0,0,1,596,-4)" xmlns:kvg="http://kanjivg.tagaini.net"></path><path class="stroke_order_diagram--existing_path" d="M52.81,16.22c1.11,1.11,1.35,2.53,1.35,3.98c0,0.35-0.02,10.71-0.03,18.06c0,3.01-0.01,5.27-0.01,5.66" id="Ske27rzsv1q" kvg:type="㇑" transform="matrix(1,0,0,1,596,-4)" xmlns:kvg="http://kanjivg.tagaini.net"></path><path class="stroke_order_diagram--existing_path" d="M31.5,32.25c3.86,0.81,9.11,3.22,11.22,4.57" id="Ske27rzsv1r" kvg:type="㇔" transform="matrix(1,0,0,1,596,-4)" xmlns:kvg="http://kanjivg.tagaini.net"></path><path class="stroke_order_diagram--existing_path" d="M28.62,41.62c3.61,0.87,9.2,4.07,11.17,5.53" id="Ske27rzsv1s" kvg:type="㇔" transform="matrix(1,0,0,1,596,-4)" xmlns:kvg="http://kanjivg.tagaini.net"></path><path class="stroke_order_diagram--current_path" d="M65.14,29.98c4.46,1.28,9.52,3.85,11.31,4.92" id="kvg:096f0-s7" kvg:type="㇔" transform="matrix(1,0,0,1,596,-4)" xmlns:kvg="http://kanjivg.tagaini.net"></path><path class="stroke_order_diagram--current_path" d="M65.14,29.98c4.46,1.28,9.52,3.85,11.31,4.92" id="Ske27rzsv1u" kvg:type="㇔" transform="matrix(1,0,0,1,596,-4)" xmlns:kvg="http://kanjivg.tagaini.net"></path><circle class="stroke_order_diagram--path_start" cx="65.14" cy="29.98" r="4" transform="matrix(1,0,0,1,596,-4)"></circle><line class="stroke_order_diagram--guide_line" x1="750" x2="750" y1="1" y2="99"></line><line class="stroke_order_diagram--bounding_box" x1="799" x2="799" y1="1" y2="99"></line><path class="stroke_order_diagram--existing_path" d="M32.31,14.13c2.56,0.74,4.9,0.6,7.34,0.3c6.14-0.77,18.32-2.02,28.36-2.67c2.32-0.15,4.66-0.34,6.97-0.02" id="Ske27rzsv1x" kvg:type="㇐" transform="matrix(1,0,0,1,696,-4)" xmlns:kvg="http://kanjivg.tagaini.net"></path><path class="stroke_order_diagram--existing_path" d="M20.91,24.42c-0.32,5.48-3.28,12.71-5.21,17.09" id="Ske27rzsv1y" kvg:type="㇔/㇑" transform="matrix(1,0,0,1,696,-4)" xmlns:kvg="http://kanjivg.tagaini.net"></path><path class="stroke_order_diagram--existing_path" d="M21.61,26.71c21.26-1.83,51.19-4.91,67.08-4.91c8.22,0,3.55,4.45-1.28,8.18" id="Ske27rzsv1z" kvg:type="㇖b/㇆" transform="matrix(1,0,0,1,696,-4)" xmlns:kvg="http://kanjivg.tagaini.net"></path><path class="stroke_order_diagram--existing_path" d="M52.81,16.22c1.11,1.11,1.35,2.53,1.35,3.98c0,0.35-0.02,10.71-0.03,18.06c0,3.01-0.01,5.27-0.01,5.66" id="Ske27rzsv20" kvg:type="㇑" transform="matrix(1,0,0,1,696,-4)" xmlns:kvg="http://kanjivg.tagaini.net"></path><path class="stroke_order_diagram--existing_path" d="M31.5,32.25c3.86,0.81,9.11,3.22,11.22,4.57" id="Ske27rzsv21" kvg:type="㇔" transform="matrix(1,0,0,1,696,-4)" xmlns:kvg="http://kanjivg.tagaini.net"></path><path class="stroke_order_diagram--existing_path" d="M28.62,41.62c3.61,0.87,9.2,4.07,11.17,5.53" id="Ske27rzsv22" kvg:type="㇔" transform="matrix(1,0,0,1,696,-4)" xmlns:kvg="http://kanjivg.tagaini.net"></path><path class="stroke_order_diagram--existing_path" d="M65.14,29.98c4.46,1.28,9.52,3.85,11.31,4.92" id="Ske27rzsv23" kvg:type="㇔" transform="matrix(1,0,0,1,696,-4)" xmlns:kvg="http://kanjivg.tagaini.net"></path><path class="stroke_order_diagram--current_path" d="M64.72,41.36c4.01,0.97,9.48,3.88,11.67,5.49" id="kvg:096f0-s8" kvg:type="㇔" transform="matrix(1,0,0,1,696,-4)" xmlns:kvg="http://kanjivg.tagaini.net"></path><path class="stroke_order_diagram--current_path" d="M64.72,41.36c4.01,0.97,9.48,3.88,11.67,5.49" id="Ske27rzsv25" kvg:type="㇔" transform="matrix(1,0,0,1,696,-4)" xmlns:kvg="http://kanjivg.tagaini.net"></path><circle class="stroke_order_diagram--path_start" cx="64.72" cy="41.36" r="4" transform="matrix(1,0,0,1,696,-4)"></circle><line class="stroke_order_diagram--guide_line" x1="850" x2="850" y1="1" y2="99"></line><line class="stroke_order_diagram--bounding_box" x1="899" x2="899" y1="1" y2="99"></line><path class="stroke_order_diagram--existing_path" d="M32.31,14.13c2.56,0.74,4.9,0.6,7.34,0.3c6.14-0.77,18.32-2.02,28.36-2.67c2.32-0.15,4.66-0.34,6.97-0.02" id="Ske27rzsv28" kvg:type="㇐" transform="matrix(1,0,0,1,796,-4)" xmlns:kvg="http://kanjivg.tagaini.net"></path><path class="stroke_order_diagram--existing_path" d="M20.91,24.42c-0.32,5.48-3.28,12.71-5.21,17.09" id="Ske27rzsv29" kvg:type="㇔/㇑" transform="matrix(1,0,0,1,796,-4)" xmlns:kvg="http://kanjivg.tagaini.net"></path><path class="stroke_order_diagram--existing_path" d="M21.61,26.71c21.26-1.83,51.19-4.91,67.08-4.91c8.22,0,3.55,4.45-1.28,8.18" id="Ske27rzsv2a" kvg:type="㇖b/㇆" transform="matrix(1,0,0,1,796,-4)" xmlns:kvg="http://kanjivg.tagaini.net"></path><path class="stroke_order_diagram--existing_path" d="M52.81,16.22c1.11,1.11,1.35,2.53,1.35,3.98c0,0.35-0.02,10.71-0.03,18.06c0,3.01-0.01,5.27-0.01,5.66" id="Ske27rzsv2b" kvg:type="㇑" transform="matrix(1,0,0,1,796,-4)" xmlns:kvg="http://kanjivg.tagaini.net"></path><path class="stroke_order_diagram--existing_path" d="M31.5,32.25c3.86,0.81,9.11,3.22,11.22,4.57" id="Ske27rzsv2c" kvg:type="㇔" transform="matrix(1,0,0,1,796,-4)" xmlns:kvg="http://kanjivg.tagaini.net"></path><path class="stroke_order_diagram--existing_path" d="M28.62,41.62c3.61,0.87,9.2,4.07,11.17,5.53" id="Ske27rzsv2d" kvg:type="㇔" transform="matrix(1,0,0,1,796,-4)" xmlns:kvg="http://kanjivg.tagaini.net"></path><path class="stroke_order_diagram--existing_path" d="M65.14,29.98c4.46,1.28,9.52,3.85,11.31,4.92" id="Ske27rzsv2e" kvg:type="㇔" transform="matrix(1,0,0,1,796,-4)" xmlns:kvg="http://kanjivg.tagaini.net"></path><path class="stroke_order_diagram--existing_path" d="M64.72,41.36c4.01,0.97,9.48,3.88,11.67,5.49" id="Ske27rzsv2f" kvg:type="㇔" transform="matrix(1,0,0,1,796,-4)" xmlns:kvg="http://kanjivg.tagaini.net"></path><path class="stroke_order_diagram--current_path" d="M43.92,53.47c0,1.39-0.67,2.24-1.57,3.23C36.96,62.61,25.38,70.12,15,73.11" id="kvg:096f0-s9" kvg:type="㇒" transform="matrix(1,0,0,1,796,-4)" xmlns:kvg="http://kanjivg.tagaini.net"></path><path class="stroke_order_diagram--current_path" d="M43.92,53.47c0,1.39-0.67,2.24-1.57,3.23C36.96,62.61,25.38,70.12,15,73.11" id="Ske27rzsv2h" kvg:type="㇒" transform="matrix(1,0,0,1,796,-4)" xmlns:kvg="http://kanjivg.tagaini.net"></path><circle class="stroke_order_diagram--path_start" cx="43.92" cy="53.47" r="4" transform="matrix(1,0,0,1,796,-4)"></circle><line class="stroke_order_diagram--guide_line" x1="950" x2="950" y1="1" y2="99"></line><line class="stroke_order_diagram--bounding_box" x1="999" x2="999" y1="1" y2="99"></line><path class="stroke_order_diagram--existing_path" d="M32.31,14.13c2.56,0.74,4.9,0.6,7.34,0.3c6.14-0.77,18.32-2.02,28.36-2.67c2.32-0.15,4.66-0.34,6.97-0.02" id="Ske27rzsv2k" kvg:type="㇐" transform="matrix(1,0,0,1,896,-4)" xmlns:kvg="http://kanjivg.tagaini.net"></path><path class="stroke_order_diagram--existing_path" d="M20.91,24.42c-0.32,5.48-3.28,12.71-5.21,17.09" id="Ske27rzsv2l" kvg:type="㇔/㇑" transform="matrix(1,0,0,1,896,-4)" xmlns:kvg="http://kanjivg.tagaini.net"></path><path class="stroke_order_diagram--existing_path" d="M21.61,26.71c21.26-1.83,51.19-4.91,67.08-4.91c8.22,0,3.55,4.45-1.28,8.18" id="Ske27rzsv2m" kvg:type="㇖b/㇆" transform="matrix(1,0,0,1,896,-4)" xmlns:kvg="http://kanjivg.tagaini.net"></path><path class="stroke_order_diagram--existing_path" d="M52.81,16.22c1.11,1.11,1.35,2.53,1.35,3.98c0,0.35-0.02,10.71-0.03,18.06c0,3.01-0.01,5.27-0.01,5.66" id="Ske27rzsv2n" kvg:type="㇑" transform="matrix(1,0,0,1,896,-4)" xmlns:kvg="http://kanjivg.tagaini.net"></path><path class="stroke_order_diagram--existing_path" d="M31.5,32.25c3.86,0.81,9.11,3.22,11.22,4.57" id="Ske27rzsv2o" kvg:type="㇔" transform="matrix(1,0,0,1,896,-4)" xmlns:kvg="http://kanjivg.tagaini.net"></path><path class="stroke_order_diagram--existing_path" d="M28.62,41.62c3.61,0.87,9.2,4.07,11.17,5.53" id="Ske27rzsv2p" kvg:type="㇔" transform="matrix(1,0,0,1,896,-4)" xmlns:kvg="http://kanjivg.tagaini.net"></path><path class="stroke_order_diagram--existing_path" d="M65.14,29.98c4.46,1.28,9.52,3.85,11.31,4.92" id="Ske27rzsv2q" kvg:type="㇔" transform="matrix(1,0,0,1,896,-4)" xmlns:kvg="http://kanjivg.tagaini.net"></path><path class="stroke_order_diagram--existing_path" d="M64.72,41.36c4.01,0.97,9.48,3.88,11.67,5.49" id="Ske27rzsv2r" kvg:type="㇔" transform="matrix(1,0,0,1,896,-4)" xmlns:kvg="http://kanjivg.tagaini.net"></path><path class="stroke_order_diagram--existing_path" d="M43.92,53.47c0,1.39-0.67,2.24-1.57,3.23C36.96,62.61,25.38,70.12,15,73.11" id="Ske27rzsv2s" kvg:type="㇒" transform="matrix(1,0,0,1,896,-4)" xmlns:kvg="http://kanjivg.tagaini.net"></path><path class="stroke_order_diagram--current_path" d="M54.69,50c8.68,1.12,21.43,14,31.12,19.05c3.43,1.79,4.56,2.33,8.44,3.23" id="kvg:096f0-s10" kvg:type="㇏" transform="matrix(1,0,0,1,896,-4)" xmlns:kvg="http://kanjivg.tagaini.net"></path><path class="stroke_order_diagram--current_path" d="M54.69,50c8.68,1.12,21.43,14,31.12,19.05c3.43,1.79,4.56,2.33,8.44,3.23" id="Ske27rzsv2u" kvg:type="㇏" transform="matrix(1,0,0,1,896,-4)" xmlns:kvg="http://kanjivg.tagaini.net"></path><circle class="stroke_order_diagram--path_start" cx="54.69" cy="50" r="4" transform="matrix(1,0,0,1,896,-4)"></circle><line class="stroke_order_diagram--guide_line" x1="1050" x2="1050" y1="1" y2="99"></line><line class="stroke_order_diagram--bounding_box" x1="1099" x2="1099" y1="1" y2="99"></line><path class="stroke_order_diagram--existing_path" d="M32.31,14.13c2.56,0.74,4.9,0.6,7.34,0.3c6.14-0.77,18.32-2.02,28.36-2.67c2.32-0.15,4.66-0.34,6.97-0.02" id="Ske27rzsv2x" kvg:type="㇐" transform="matrix(1,0,0,1,996,-4)" xmlns:kvg="http://kanjivg.tagaini.net"></path><path class="stroke_order_diagram--existing_path" d="M20.91,24.42c-0.32,5.48-3.28,12.71-5.21,17.09" id="Ske27rzsv2y" kvg:type="㇔/㇑" transform="matrix(1,0,0,1,996,-4)" xmlns:kvg="http://kanjivg.tagaini.net"></path><path class="stroke_order_diagram--existing_path" d="M21.61,26.71c21.26-1.83,51.19-4.91,67.08-4.91c8.22,0,3.55,4.45-1.28,8.18" id="Ske27rzsv2z" kvg:type="㇖b/㇆" transform="matrix(1,0,0,1,996,-4)" xmlns:kvg="http://kanjivg.tagaini.net"></path><path class="stroke_order_diagram--existing_path" d="M52.81,16.22c1.11,1.11,1.35,2.53,1.35,3.98c0,0.35-0.02,10.71-0.03,18.06c0,3.01-0.01,5.27-0.01,5.66" id="Ske27rzsv30" kvg:type="㇑" transform="matrix(1,0,0,1,996,-4)" xmlns:kvg="http://kanjivg.tagaini.net"></path><path class="stroke_order_diagram--existing_path" d="M31.5,32.25c3.86,0.81,9.11,3.22,11.22,4.57" id="Ske27rzsv31" kvg:type="㇔" transform="matrix(1,0,0,1,996,-4)" xmlns:kvg="http://kanjivg.tagaini.net"></path><path class="stroke_order_diagram--existing_path" d="M28.62,41.62c3.61,0.87,9.2,4.07,11.17,5.53" id="Ske27rzsv32" kvg:type="㇔" transform="matrix(1,0,0,1,996,-4)" xmlns:kvg="http://kanjivg.tagaini.net"></path><path class="stroke_order_diagram--existing_path" d="M65.14,29.98c4.46,1.28,9.52,3.85,11.31,4.92" id="Ske27rzsv33" kvg:type="㇔" transform="matrix(1,0,0,1,996,-4)" xmlns:kvg="http://kanjivg.tagaini.net"></path><path class="stroke_order_diagram--existing_path" d="M64.72,41.36c4.01,0.97,9.48,3.88,11.67,5.49" id="Ske27rzsv34" kvg:type="㇔" transform="matrix(1,0,0,1,996,-4)" xmlns:kvg="http://kanjivg.tagaini.net"></path><path class="stroke_order_diagram--existing_path" d="M43.92,53.47c0,1.39-0.67,2.24-1.57,3.23C36.96,62.61,25.38,70.12,15,73.11" id="Ske27rzsv35" kvg:type="㇒" transform="matrix(1,0,0,1,996,-4)" xmlns:kvg="http://kanjivg.tagaini.net"></path><path class="stroke_order_diagram--existing_path" d="M54.69,50c8.68,1.12,21.43,14,31.12,19.05c3.43,1.79,4.56,2.33,8.44,3.23" id="Ske27rzsv36" kvg:type="㇏" transform="matrix(1,0,0,1,996,-4)" xmlns:kvg="http://kanjivg.tagaini.net"></path><path class="stroke_order_diagram--current_path" d="M30.35,72.01c2.77,0.86,5.01,1.05,7.76,0.62c11.81-1.87,25.01-3.65,30.89-4.16c3.03-0.27,5.15,0.61,4.62,4.04c-0.7,4.48-3.74,16.72-7.88,22.1c-4.12,5.36-4.49,4.64-7.34-0.28" id="kvg:096f0-s11" kvg:type="㇆" transform="matrix(1,0,0,1,996,-4)" xmlns:kvg="http://kanjivg.tagaini.net"></path><path class="stroke_order_diagram--current_path" d="M30.35,72.01c2.77,0.86,5.01,1.05,7.76,0.62c11.81-1.87,25.01-3.65,30.89-4.16c3.03-0.27,5.15,0.61,4.62,4.04c-0.7,4.48-3.74,16.72-7.88,22.1c-4.12,5.36-4.49,4.64-7.34-0.28" id="Ske27rzsv38" kvg:type="㇆" transform="matrix(1,0,0,1,996,-4)" xmlns:kvg="http://kanjivg.tagaini.net"></path><circle class="stroke_order_diagram--path_start" cx="30.35" cy="72.01" r="4" transform="matrix(1,0,0,1,996,-4)"></circle><line class="stroke_order_diagram--guide_line" x1="1150" x2="1150" y1="1" y2="99"></line><line class="stroke_order_diagram--bounding_box" x1="1199" x2="1199" y1="1" y2="99"></line><path class="stroke_order_diagram--existing_path" d="M32.31,14.13c2.56,0.74,4.9,0.6,7.34,0.3c6.14-0.77,18.32-2.02,28.36-2.67c2.32-0.15,4.66-0.34,6.97-0.02" id="Ske27rzsv3b" kvg:type="㇐" transform="matrix(1,0,0,1,1096,-4)" xmlns:kvg="http://kanjivg.tagaini.net"></path><path class="stroke_order_diagram--existing_path" d="M20.91,24.42c-0.32,5.48-3.28,12.71-5.21,17.09" id="Ske27rzsv3c" kvg:type="㇔/㇑" transform="matrix(1,0,0,1,1096,-4)" xmlns:kvg="http://kanjivg.tagaini.net"></path><path class="stroke_order_diagram--existing_path" d="M21.61,26.71c21.26-1.83,51.19-4.91,67.08-4.91c8.22,0,3.55,4.45-1.28,8.18" id="Ske27rzsv3d" kvg:type="㇖b/㇆" transform="matrix(1,0,0,1,1096,-4)" xmlns:kvg="http://kanjivg.tagaini.net"></path><path class="stroke_order_diagram--existing_path" d="M52.81,16.22c1.11,1.11,1.35,2.53,1.35,3.98c0,0.35-0.02,10.71-0.03,18.06c0,3.01-0.01,5.27-0.01,5.66" id="Ske27rzsv3e" kvg:type="㇑" transform="matrix(1,0,0,1,1096,-4)" xmlns:kvg="http://kanjivg.tagaini.net"></path><path class="stroke_order_diagram--existing_path" d="M31.5,32.25c3.86,0.81,9.11,3.22,11.22,4.57" id="Ske27rzsv3f" kvg:type="㇔" transform="matrix(1,0,0,1,1096,-4)" xmlns:kvg="http://kanjivg.tagaini.net"></path><path class="stroke_order_diagram--existing_path" d="M28.62,41.62c3.61,0.87,9.2,4.07,11.17,5.53" id="Ske27rzsv3g" kvg:type="㇔" transform="matrix(1,0,0,1,1096,-4)" xmlns:kvg="http://kanjivg.tagaini.net"></path><path class="stroke_order_diagram--existing_path" d="M65.14,29.98c4.46,1.28,9.52,3.85,11.31,4.92" id="Ske27rzsv3h" kvg:type="㇔" transform="matrix(1,0,0,1,1096,-4)" xmlns:kvg="http://kanjivg.tagaini.net"></path><path class="stroke_order_diagram--existing_path" d="M64.72,41.36c4.01,0.97,9.48,3.88,11.67,5.49" id="Ske27rzsv3i" kvg:type="㇔" transform="matrix(1,0,0,1,1096,-4)" xmlns:kvg="http://kanjivg.tagaini.net"></path><path class="stroke_order_diagram--existing_path" d="M43.92,53.47c0,1.39-0.67,2.24-1.57,3.23C36.96,62.61,25.38,70.12,15,73.11" id="Ske27rzsv3j" kvg:type="㇒" transform="matrix(1,0,0,1,1096,-4)" xmlns:kvg="http://kanjivg.tagaini.net"></path><path class="stroke_order_diagram--existing_path" d="M54.69,50c8.68,1.12,21.43,14,31.12,19.05c3.43,1.79,4.56,2.33,8.44,3.23" id="Ske27rzsv3k" kvg:type="㇏" transform="matrix(1,0,0,1,1096,-4)" xmlns:kvg="http://kanjivg.tagaini.net"></path><path class="stroke_order_diagram--existing_path" d="M30.35,72.01c2.77,0.86,5.01,1.05,7.76,0.62c11.81-1.87,25.01-3.65,30.89-4.16c3.03-0.27,5.15,0.61,4.62,4.04c-0.7,4.48-3.74,16.72-7.88,22.1c-4.12,5.36-4.49,4.64-7.34-0.28" id="Ske27rzsv3l" kvg:type="㇆" transform="matrix(1,0,0,1,1096,-4)" xmlns:kvg="http://kanjivg.tagaini.net"></path><path class="stroke_order_diagram--current_path" d="M49.26,74.23c0.14,1.1,0.01,1.92-0.48,2.91c-4.1,8.19-10.23,14.61-23.28,21.34" id="kvg:096f0-s12" kvg:type="㇒" transform="matrix(1,0,0,1,1096,-4)" xmlns:kvg="http://kanjivg.tagaini.net"></path><path class="stroke_order_diagram--current_path" d="M49.26,74.23c0.14,1.1,0.01,1.92-0.48,2.91c-4.1,8.19-10.23,14.61-23.28,21.34" id="Ske27rzsv3n" kvg:type="㇒" transform="matrix(1,0,0,1,1096,-4)" xmlns:kvg="http://kanjivg.tagaini.net"></path><circle class="stroke_order_diagram--path_start" cx="49.26" cy="74.23" r="4" transform="matrix(1,0,0,1,1096,-4)"></circle></svg>