<svg class="stroke_order_diagram--svg_container_for_51866272d5dda79658000028" style="height: 100px; width: 1500px;" viewbox="0 0 1500 100"><desc>Created with Snap</desc><defs></defs><line class="stroke_order_diagram--bounding_box" x1="1" x2="1499" y1="1" y2="1"></line><line class="stroke_order_diagram--bounding_box" x1="1" x2="1" y1="1" y2="99"></line><line class="stroke_order_diagram--bounding_box" x1="1" x2="1499" y1="99" y2="99"></line><line class="stroke_order_diagram--guide_line" x1="0" x2="1500" y1="50" y2="50"></line><line class="stroke_order_diagram--guide_line" x1="50" x2="50" y1="1" y2="99"></line><line class="stroke_order_diagram--bounding_box" x1="99" x2="99" y1="1" y2="99"></line><path class="stroke_order_diagram--current_path" d="M10.9,29.13c1.54,0.66,3.66,0.15,5.23-0.05c5.86-0.74,18.27-2.48,25.48-3.07c1.84-0.15,3.78-0.4,5.6,0.07" id="kvg:0978d-s1" kvg:type="㇐" transform="matrix(1,0,0,1,-4,-4)" xmlns:kvg="http://kanjivg.tagaini.net"></path><path class="stroke_order_diagram--current_path" d="M10.9,29.13c1.54,0.66,3.66,0.15,5.23-0.05c5.86-0.74,18.27-2.48,25.48-3.07c1.84-0.15,3.78-0.4,5.6,0.07" id="Ske1njat5o" kvg:type="㇐" transform="matrix(1,0,0,1,-4,-4)" xmlns:kvg="http://kanjivg.tagaini.net"></path><circle class="stroke_order_diagram--path_start" cx="10.9" cy="29.13" r="4" transform="matrix(1,0,0,1,-4,-4)"></circle><line class="stroke_order_diagram--guide_line" x1="150" x2="150" y1="1" y2="99"></line><line class="stroke_order_diagram--bounding_box" x1="199" x2="199" y1="1" y2="99"></line><path class="stroke_order_diagram--existing_path" d="M10.9,29.13c1.54,0.66,3.66,0.15,5.23-0.05c5.86-0.74,18.27-2.48,25.48-3.07c1.84-0.15,3.78-0.4,5.6,0.07" id="Ske1njat5r" kvg:type="㇐" transform="matrix(1,0,0,1,96,-4)" xmlns:kvg="http://kanjivg.tagaini.net"></path><path class="stroke_order_diagram--current_path" d="M18.35,16.21c0.97,0.97,1.49,2.29,1.59,3.53c0.45,5.3,0.85,10.27,1.47,16.13c0.15,1.48,0.32,3.01,0.51,4.63" id="kvg:0978d-s2" kvg:type="㇑" transform="matrix(1,0,0,1,96,-4)" xmlns:kvg="http://kanjivg.tagaini.net"></path><path class="stroke_order_diagram--current_path" d="M18.35,16.21c0.97,0.97,1.49,2.29,1.59,3.53c0.45,5.3,0.85,10.27,1.47,16.13c0.15,1.48,0.32,3.01,0.51,4.63" id="Ske1njat5t" kvg:type="㇑" transform="matrix(1,0,0,1,96,-4)" xmlns:kvg="http://kanjivg.tagaini.net"></path><circle class="stroke_order_diagram--path_start" cx="18.35" cy="16.21" r="4" transform="matrix(1,0,0,1,96,-4)"></circle><line class="stroke_order_diagram--guide_line" x1="250" x2="250" y1="1" y2="99"></line><line class="stroke_order_diagram--bounding_box" x1="299" x2="299" y1="1" y2="99"></line><path class="stroke_order_diagram--existing_path" d="M10.9,29.13c1.54,0.66,3.66,0.15,5.23-0.05c5.86-0.74,18.27-2.48,25.48-3.07c1.84-0.15,3.78-0.4,5.6,0.07" id="Ske1njat5w" kvg:type="㇐" transform="matrix(1,0,0,1,196,-4)" xmlns:kvg="http://kanjivg.tagaini.net"></path><path class="stroke_order_diagram--existing_path" d="M18.35,16.21c0.97,0.97,1.49,2.29,1.59,3.53c0.45,5.3,0.85,10.27,1.47,16.13c0.15,1.48,0.32,3.01,0.51,4.63" id="Ske1njat5x" kvg:type="㇑" transform="matrix(1,0,0,1,196,-4)" xmlns:kvg="http://kanjivg.tagaini.net"></path><path class="stroke_order_diagram--current_path" d="M38.31,14.5c0.56,1.12,0.62,2.2,0.47,3.15c-1.23,7.83-2.69,14.75-3.7,19.38" id="kvg:0978d-s3" kvg:type="㇑a" transform="matrix(1,0,0,1,196,-4)" xmlns:kvg="http://kanjivg.tagaini.net"></path><path class="stroke_order_diagram--current_path" d="M38.31,14.5c0.56,1.12,0.62,2.2,0.47,3.15c-1.23,7.83-2.69,14.75-3.7,19.38" id="Ske1njat5z" kvg:type="㇑a" transform="matrix(1,0,0,1,196,-4)" xmlns:kvg="http://kanjivg.tagaini.net"></path><circle class="stroke_order_diagram--path_start" cx="38.31" cy="14.5" r="4" transform="matrix(1,0,0,1,196,-4)"></circle><line class="stroke_order_diagram--guide_line" x1="350" x2="350" y1="1" y2="99"></line><line class="stroke_order_diagram--bounding_box" x1="399" x2="399" y1="1" y2="99"></line><path class="stroke_order_diagram--existing_path" d="M10.9,29.13c1.54,0.66,3.66,0.15,5.23-0.05c5.86-0.74,18.27-2.48,25.48-3.07c1.84-0.15,3.78-0.4,5.6,0.07" id="Ske1njat512" kvg:type="㇐" transform="matrix(1,0,0,1,296,-4)" xmlns:kvg="http://kanjivg.tagaini.net"></path><path class="stroke_order_diagram--existing_path" d="M18.35,16.21c0.97,0.97,1.49,2.29,1.59,3.53c0.45,5.3,0.85,10.27,1.47,16.13c0.15,1.48,0.32,3.01,0.51,4.63" id="Ske1njat513" kvg:type="㇑" transform="matrix(1,0,0,1,296,-4)" xmlns:kvg="http://kanjivg.tagaini.net"></path><path class="stroke_order_diagram--existing_path" d="M38.31,14.5c0.56,1.12,0.62,2.2,0.47,3.15c-1.23,7.83-2.69,14.75-3.7,19.38" id="Ske1njat514" kvg:type="㇑a" transform="matrix(1,0,0,1,296,-4)" xmlns:kvg="http://kanjivg.tagaini.net"></path><path class="stroke_order_diagram--current_path" d="M23.08,39.25c1.18,0,6.29-0.54,10.05-0.95c1.89-0.2,3.44-0.37,3.97-0.42" id="kvg:0978d-s4" kvg:type="㇐b" transform="matrix(1,0,0,1,296,-4)" xmlns:kvg="http://kanjivg.tagaini.net"></path><path class="stroke_order_diagram--current_path" d="M23.08,39.25c1.18,0,6.29-0.54,10.05-0.95c1.89-0.2,3.44-0.37,3.97-0.42" id="Ske1njat516" kvg:type="㇐b" transform="matrix(1,0,0,1,296,-4)" xmlns:kvg="http://kanjivg.tagaini.net"></path><circle class="stroke_order_diagram--path_start" cx="23.08" cy="39.25" r="4" transform="matrix(1,0,0,1,296,-4)"></circle><line class="stroke_order_diagram--guide_line" x1="450" x2="450" y1="1" y2="99"></line><line class="stroke_order_diagram--bounding_box" x1="499" x2="499" y1="1" y2="99"></line><path class="stroke_order_diagram--existing_path" d="M10.9,29.13c1.54,0.66,3.66,0.15,5.23-0.05c5.86-0.74,18.27-2.48,25.48-3.07c1.84-0.15,3.78-0.4,5.6,0.07" id="Ske1njat519" kvg:type="㇐" transform="matrix(1,0,0,1,396,-4)" xmlns:kvg="http://kanjivg.tagaini.net"></path><path class="stroke_order_diagram--existing_path" d="M18.35,16.21c0.97,0.97,1.49,2.29,1.59,3.53c0.45,5.3,0.85,10.27,1.47,16.13c0.15,1.48,0.32,3.01,0.51,4.63" id="Ske1njat51a" kvg:type="㇑" transform="matrix(1,0,0,1,396,-4)" xmlns:kvg="http://kanjivg.tagaini.net"></path><path class="stroke_order_diagram--existing_path" d="M38.31,14.5c0.56,1.12,0.62,2.2,0.47,3.15c-1.23,7.83-2.69,14.75-3.7,19.38" id="Ske1njat51b" kvg:type="㇑a" transform="matrix(1,0,0,1,396,-4)" xmlns:kvg="http://kanjivg.tagaini.net"></path><path class="stroke_order_diagram--existing_path" d="M23.08,39.25c1.18,0,6.29-0.54,10.05-0.95c1.89-0.2,3.44-0.37,3.97-0.42" id="Ske1njat51c" kvg:type="㇐b" transform="matrix(1,0,0,1,396,-4)" xmlns:kvg="http://kanjivg.tagaini.net"></path><path class="stroke_order_diagram--current_path" d="M13.51,50.01c0.52,0.75,0.84,1.58,0.93,2.48c0.64,3.07,1.24,6.61,1.73,9.63c0.2,1.22,0.38,2.36,0.54,3.35" id="kvg:0978d-s5" kvg:type="㇑" transform="matrix(1,0,0,1,396,-4)" xmlns:kvg="http://kanjivg.tagaini.net"></path><path class="stroke_order_diagram--current_path" d="M13.51,50.01c0.52,0.75,0.84,1.58,0.93,2.48c0.64,3.07,1.24,6.61,1.73,9.63c0.2,1.22,0.38,2.36,0.54,3.35" id="Ske1njat51e" kvg:type="㇑" transform="matrix(1,0,0,1,396,-4)" xmlns:kvg="http://kanjivg.tagaini.net"></path><circle class="stroke_order_diagram--path_start" cx="13.51" cy="50.01" r="4" transform="matrix(1,0,0,1,396,-4)"></circle><line class="stroke_order_diagram--guide_line" x1="550" x2="550" y1="1" y2="99"></line><line class="stroke_order_diagram--bounding_box" x1="599" x2="599" y1="1" y2="99"></line><path class="stroke_order_diagram--existing_path" d="M10.9,29.13c1.54,0.66,3.66,0.15,5.23-0.05c5.86-0.74,18.27-2.48,25.48-3.07c1.84-0.15,3.78-0.4,5.6,0.07" id="Ske1njat51h" kvg:type="㇐" transform="matrix(1,0,0,1,496,-4)" xmlns:kvg="http://kanjivg.tagaini.net"></path><path class="stroke_order_diagram--existing_path" d="M18.35,16.21c0.97,0.97,1.49,2.29,1.59,3.53c0.45,5.3,0.85,10.27,1.47,16.13c0.15,1.48,0.32,3.01,0.51,4.63" id="Ske1njat51i" kvg:type="㇑" transform="matrix(1,0,0,1,496,-4)" xmlns:kvg="http://kanjivg.tagaini.net"></path><path class="stroke_order_diagram--existing_path" d="M38.31,14.5c0.56,1.12,0.62,2.2,0.47,3.15c-1.23,7.83-2.69,14.75-3.7,19.38" id="Ske1njat51j" kvg:type="㇑a" transform="matrix(1,0,0,1,496,-4)" xmlns:kvg="http://kanjivg.tagaini.net"></path><path class="stroke_order_diagram--existing_path" d="M23.08,39.25c1.18,0,6.29-0.54,10.05-0.95c1.89-0.2,3.44-0.37,3.97-0.42" id="Ske1njat51k" kvg:type="㇐b" transform="matrix(1,0,0,1,496,-4)" xmlns:kvg="http://kanjivg.tagaini.net"></path><path class="stroke_order_diagram--existing_path" d="M13.51,50.01c0.52,0.75,0.84,1.58,0.93,2.48c0.64,3.07,1.24,6.61,1.73,9.63c0.2,1.22,0.38,2.36,0.54,3.35" id="Ske1njat51l" kvg:type="㇑" transform="matrix(1,0,0,1,496,-4)" xmlns:kvg="http://kanjivg.tagaini.net"></path><path class="stroke_order_diagram--current_path" d="M15.48,50.82c9.85-1.43,20.84-2.68,25.41-3.37c1.71-0.26,3.7,0.27,3.31,2.57c-0.47,2.77-1.25,5.14-2.28,9.97" id="kvg:0978d-s6" kvg:type="㇕" transform="matrix(1,0,0,1,496,-4)" xmlns:kvg="http://kanjivg.tagaini.net"></path><path class="stroke_order_diagram--current_path" d="M15.48,50.82c9.85-1.43,20.84-2.68,25.41-3.37c1.71-0.26,3.7,0.27,3.31,2.57c-0.47,2.77-1.25,5.14-2.28,9.97" id="Ske1njat51n" kvg:type="㇕" transform="matrix(1,0,0,1,496,-4)" xmlns:kvg="http://kanjivg.tagaini.net"></path><circle class="stroke_order_diagram--path_start" cx="15.48" cy="50.82" r="4" transform="matrix(1,0,0,1,496,-4)"></circle><line class="stroke_order_diagram--guide_line" x1="650" x2="650" y1="1" y2="99"></line><line class="stroke_order_diagram--bounding_box" x1="699" x2="699" y1="1" y2="99"></line><path class="stroke_order_diagram--existing_path" d="M10.9,29.13c1.54,0.66,3.66,0.15,5.23-0.05c5.86-0.74,18.27-2.48,25.48-3.07c1.84-0.15,3.78-0.4,5.6,0.07" id="Ske1njat51q" kvg:type="㇐" transform="matrix(1,0,0,1,596,-4)" xmlns:kvg="http://kanjivg.tagaini.net"></path><path class="stroke_order_diagram--existing_path" d="M18.35,16.21c0.97,0.97,1.49,2.29,1.59,3.53c0.45,5.3,0.85,10.27,1.47,16.13c0.15,1.48,0.32,3.01,0.51,4.63" id="Ske1njat51r" kvg:type="㇑" transform="matrix(1,0,0,1,596,-4)" xmlns:kvg="http://kanjivg.tagaini.net"></path><path class="stroke_order_diagram--existing_path" d="M38.31,14.5c0.56,1.12,0.62,2.2,0.47,3.15c-1.23,7.83-2.69,14.75-3.7,19.38" id="Ske1njat51s" kvg:type="㇑a" transform="matrix(1,0,0,1,596,-4)" xmlns:kvg="http://kanjivg.tagaini.net"></path><path class="stroke_order_diagram--existing_path" d="M23.08,39.25c1.18,0,6.29-0.54,10.05-0.95c1.89-0.2,3.44-0.37,3.97-0.42" id="Ske1njat51t" kvg:type="㇐b" transform="matrix(1,0,0,1,596,-4)" xmlns:kvg="http://kanjivg.tagaini.net"></path><path class="stroke_order_diagram--existing_path" d="M13.51,50.01c0.52,0.75,0.84,1.58,0.93,2.48c0.64,3.07,1.24,6.61,1.73,9.63c0.2,1.22,0.38,2.36,0.54,3.35" id="Ske1njat51u" kvg:type="㇑" transform="matrix(1,0,0,1,596,-4)" xmlns:kvg="http://kanjivg.tagaini.net"></path><path class="stroke_order_diagram--existing_path" d="M15.48,50.82c9.85-1.43,20.84-2.68,25.41-3.37c1.71-0.26,3.7,0.27,3.31,2.57c-0.47,2.77-1.25,5.14-2.28,9.97" id="Ske1njat51v" kvg:type="㇕" transform="matrix(1,0,0,1,596,-4)" xmlns:kvg="http://kanjivg.tagaini.net"></path><path class="stroke_order_diagram--current_path" d="M17.75,64.21c4.54-0.69,14.28-1.97,21.38-2.67c1.5-0.15,2.89-0.27,4.1-0.35" id="kvg:0978d-s7" kvg:type="㇐" transform="matrix(1,0,0,1,596,-4)" xmlns:kvg="http://kanjivg.tagaini.net"></path><path class="stroke_order_diagram--current_path" d="M17.75,64.21c4.54-0.69,14.28-1.97,21.38-2.67c1.5-0.15,2.89-0.27,4.1-0.35" id="Ske1njat51x" kvg:type="㇐" transform="matrix(1,0,0,1,596,-4)" xmlns:kvg="http://kanjivg.tagaini.net"></path><circle class="stroke_order_diagram--path_start" cx="17.75" cy="64.21" r="4" transform="matrix(1,0,0,1,596,-4)"></circle><line class="stroke_order_diagram--guide_line" x1="750" x2="750" y1="1" y2="99"></line><line class="stroke_order_diagram--bounding_box" x1="799" x2="799" y1="1" y2="99"></line><path class="stroke_order_diagram--existing_path" d="M10.9,29.13c1.54,0.66,3.66,0.15,5.23-0.05c5.86-0.74,18.27-2.48,25.48-3.07c1.84-0.15,3.78-0.4,5.6,0.07" id="Ske1njat520" kvg:type="㇐" transform="matrix(1,0,0,1,696,-4)" xmlns:kvg="http://kanjivg.tagaini.net"></path><path class="stroke_order_diagram--existing_path" d="M18.35,16.21c0.97,0.97,1.49,2.29,1.59,3.53c0.45,5.3,0.85,10.27,1.47,16.13c0.15,1.48,0.32,3.01,0.51,4.63" id="Ske1njat521" kvg:type="㇑" transform="matrix(1,0,0,1,696,-4)" xmlns:kvg="http://kanjivg.tagaini.net"></path><path class="stroke_order_diagram--existing_path" d="M38.31,14.5c0.56,1.12,0.62,2.2,0.47,3.15c-1.23,7.83-2.69,14.75-3.7,19.38" id="Ske1njat522" kvg:type="㇑a" transform="matrix(1,0,0,1,696,-4)" xmlns:kvg="http://kanjivg.tagaini.net"></path><path class="stroke_order_diagram--existing_path" d="M23.08,39.25c1.18,0,6.29-0.54,10.05-0.95c1.89-0.2,3.44-0.37,3.97-0.42" id="Ske1njat523" kvg:type="㇐b" transform="matrix(1,0,0,1,696,-4)" xmlns:kvg="http://kanjivg.tagaini.net"></path><path class="stroke_order_diagram--existing_path" d="M13.51,50.01c0.52,0.75,0.84,1.58,0.93,2.48c0.64,3.07,1.24,6.61,1.73,9.63c0.2,1.22,0.38,2.36,0.54,3.35" id="Ske1njat524" kvg:type="㇑" transform="matrix(1,0,0,1,696,-4)" xmlns:kvg="http://kanjivg.tagaini.net"></path><path class="stroke_order_diagram--existing_path" d="M15.48,50.82c9.85-1.43,20.84-2.68,25.41-3.37c1.71-0.26,3.7,0.27,3.31,2.57c-0.47,2.77-1.25,5.14-2.28,9.97" id="Ske1njat525" kvg:type="㇕" transform="matrix(1,0,0,1,696,-4)" xmlns:kvg="http://kanjivg.tagaini.net"></path><path class="stroke_order_diagram--existing_path" d="M17.75,64.21c4.54-0.69,14.28-1.97,21.38-2.67c1.5-0.15,2.89-0.27,4.1-0.35" id="Ske1njat526" kvg:type="㇐" transform="matrix(1,0,0,1,696,-4)" xmlns:kvg="http://kanjivg.tagaini.net"></path><path class="stroke_order_diagram--current_path" d="M9.75,76.2c2,0.68,4.22,0.66,5.89,0.39c7.04-1.16,17.49-3.09,26.62-4.22c1.67-0.21,3.9-0.43,5.49,0.17" id="kvg:0978d-s8" kvg:type="㇐" transform="matrix(1,0,0,1,696,-4)" xmlns:kvg="http://kanjivg.tagaini.net"></path><path class="stroke_order_diagram--current_path" d="M9.75,76.2c2,0.68,4.22,0.66,5.89,0.39c7.04-1.16,17.49-3.09,26.62-4.22c1.67-0.21,3.9-0.43,5.49,0.17" id="Ske1njat528" kvg:type="㇐" transform="matrix(1,0,0,1,696,-4)" xmlns:kvg="http://kanjivg.tagaini.net"></path><circle class="stroke_order_diagram--path_start" cx="9.75" cy="76.2" r="4" transform="matrix(1,0,0,1,696,-4)"></circle><line class="stroke_order_diagram--guide_line" x1="850" x2="850" y1="1" y2="99"></line><line class="stroke_order_diagram--bounding_box" x1="899" x2="899" y1="1" y2="99"></line><path class="stroke_order_diagram--existing_path" d="M10.9,29.13c1.54,0.66,3.66,0.15,5.23-0.05c5.86-0.74,18.27-2.48,25.48-3.07c1.84-0.15,3.78-0.4,5.6,0.07" id="Ske1njat52b" kvg:type="㇐" transform="matrix(1,0,0,1,796,-4)" xmlns:kvg="http://kanjivg.tagaini.net"></path><path class="stroke_order_diagram--existing_path" d="M18.35,16.21c0.97,0.97,1.49,2.29,1.59,3.53c0.45,5.3,0.85,10.27,1.47,16.13c0.15,1.48,0.32,3.01,0.51,4.63" id="Ske1njat52c" kvg:type="㇑" transform="matrix(1,0,0,1,796,-4)" xmlns:kvg="http://kanjivg.tagaini.net"></path><path class="stroke_order_diagram--existing_path" d="M38.31,14.5c0.56,1.12,0.62,2.2,0.47,3.15c-1.23,7.83-2.69,14.75-3.7,19.38" id="Ske1njat52d" kvg:type="㇑a" transform="matrix(1,0,0,1,796,-4)" xmlns:kvg="http://kanjivg.tagaini.net"></path><path class="stroke_order_diagram--existing_path" d="M23.08,39.25c1.18,0,6.29-0.54,10.05-0.95c1.89-0.2,3.44-0.37,3.97-0.42" id="Ske1njat52e" kvg:type="㇐b" transform="matrix(1,0,0,1,796,-4)" xmlns:kvg="http://kanjivg.tagaini.net"></path><path class="stroke_order_diagram--existing_path" d="M13.51,50.01c0.52,0.75,0.84,1.58,0.93,2.48c0.64,3.07,1.24,6.61,1.73,9.63c0.2,1.22,0.38,2.36,0.54,3.35" id="Ske1njat52f" kvg:type="㇑" transform="matrix(1,0,0,1,796,-4)" xmlns:kvg="http://kanjivg.tagaini.net"></path><path class="stroke_order_diagram--existing_path" d="M15.48,50.82c9.85-1.43,20.84-2.68,25.41-3.37c1.71-0.26,3.7,0.27,3.31,2.57c-0.47,2.77-1.25,5.14-2.28,9.97" id="Ske1njat52g" kvg:type="㇕" transform="matrix(1,0,0,1,796,-4)" xmlns:kvg="http://kanjivg.tagaini.net"></path><path class="stroke_order_diagram--existing_path" d="M17.75,64.21c4.54-0.69,14.28-1.97,21.38-2.67c1.5-0.15,2.89-0.27,4.1-0.35" id="Ske1njat52h" kvg:type="㇐" transform="matrix(1,0,0,1,796,-4)" xmlns:kvg="http://kanjivg.tagaini.net"></path><path class="stroke_order_diagram--existing_path" d="M9.75,76.2c2,0.68,4.22,0.66,5.89,0.39c7.04-1.16,17.49-3.09,26.62-4.22c1.67-0.21,3.9-0.43,5.49,0.17" id="Ske1njat52i" kvg:type="㇐" transform="matrix(1,0,0,1,796,-4)" xmlns:kvg="http://kanjivg.tagaini.net"></path><path class="stroke_order_diagram--current_path" d="M28.46,40.75c0.83,0.83,1.04,2.12,1.04,3.75c0,7.05,0,34.8,0,48c0,2.72,0,4.83,0,6" id="kvg:0978d-s9" kvg:type="㇑" transform="matrix(1,0,0,1,796,-4)" xmlns:kvg="http://kanjivg.tagaini.net"></path><path class="stroke_order_diagram--current_path" d="M28.46,40.75c0.83,0.83,1.04,2.12,1.04,3.75c0,7.05,0,34.8,0,48c0,2.72,0,4.83,0,6" id="Ske1njat52k" kvg:type="㇑" transform="matrix(1,0,0,1,796,-4)" xmlns:kvg="http://kanjivg.tagaini.net"></path><circle class="stroke_order_diagram--path_start" cx="28.46" cy="40.75" r="4" transform="matrix(1,0,0,1,796,-4)"></circle><line class="stroke_order_diagram--guide_line" x1="950" x2="950" y1="1" y2="99"></line><line class="stroke_order_diagram--bounding_box" x1="999" x2="999" y1="1" y2="99"></line><path class="stroke_order_diagram--existing_path" d="M10.9,29.13c1.54,0.66,3.66,0.15,5.23-0.05c5.86-0.74,18.27-2.48,25.48-3.07c1.84-0.15,3.78-0.4,5.6,0.07" id="Ske1njat52n" kvg:type="㇐" transform="matrix(1,0,0,1,896,-4)" xmlns:kvg="http://kanjivg.tagaini.net"></path><path class="stroke_order_diagram--existing_path" d="M18.35,16.21c0.97,0.97,1.49,2.29,1.59,3.53c0.45,5.3,0.85,10.27,1.47,16.13c0.15,1.48,0.32,3.01,0.51,4.63" id="Ske1njat52o" kvg:type="㇑" transform="matrix(1,0,0,1,896,-4)" xmlns:kvg="http://kanjivg.tagaini.net"></path><path class="stroke_order_diagram--existing_path" d="M38.31,14.5c0.56,1.12,0.62,2.2,0.47,3.15c-1.23,7.83-2.69,14.75-3.7,19.38" id="Ske1njat52p" kvg:type="㇑a" transform="matrix(1,0,0,1,896,-4)" xmlns:kvg="http://kanjivg.tagaini.net"></path><path class="stroke_order_diagram--existing_path" d="M23.08,39.25c1.18,0,6.29-0.54,10.05-0.95c1.89-0.2,3.44-0.37,3.97-0.42" id="Ske1njat52q" kvg:type="㇐b" transform="matrix(1,0,0,1,896,-4)" xmlns:kvg="http://kanjivg.tagaini.net"></path><path class="stroke_order_diagram--existing_path" d="M13.51,50.01c0.52,0.75,0.84,1.58,0.93,2.48c0.64,3.07,1.24,6.61,1.73,9.63c0.2,1.22,0.38,2.36,0.54,3.35" id="Ske1njat52r" kvg:type="㇑" transform="matrix(1,0,0,1,896,-4)" xmlns:kvg="http://kanjivg.tagaini.net"></path><path class="stroke_order_diagram--existing_path" d="M15.48,50.82c9.85-1.43,20.84-2.68,25.41-3.37c1.71-0.26,3.7,0.27,3.31,2.57c-0.47,2.77-1.25,5.14-2.28,9.97" id="Ske1njat52s" kvg:type="㇕" transform="matrix(1,0,0,1,896,-4)" xmlns:kvg="http://kanjivg.tagaini.net"></path><path class="stroke_order_diagram--existing_path" d="M17.75,64.21c4.54-0.69,14.28-1.97,21.38-2.67c1.5-0.15,2.89-0.27,4.1-0.35" id="Ske1njat52t" kvg:type="㇐" transform="matrix(1,0,0,1,896,-4)" xmlns:kvg="http://kanjivg.tagaini.net"></path><path class="stroke_order_diagram--existing_path" d="M9.75,76.2c2,0.68,4.22,0.66,5.89,0.39c7.04-1.16,17.49-3.09,26.62-4.22c1.67-0.21,3.9-0.43,5.49,0.17" id="Ske1njat52u" kvg:type="㇐" transform="matrix(1,0,0,1,896,-4)" xmlns:kvg="http://kanjivg.tagaini.net"></path><path class="stroke_order_diagram--existing_path" d="M28.46,40.75c0.83,0.83,1.04,2.12,1.04,3.75c0,7.05,0,34.8,0,48c0,2.72,0,4.83,0,6" id="Ske1njat52v" kvg:type="㇑" transform="matrix(1,0,0,1,896,-4)" xmlns:kvg="http://kanjivg.tagaini.net"></path><path class="stroke_order_diagram--current_path" d="M70.58,13.98c0.91,0.91,1.06,2.15,1.06,3.89c0,3.04-0.02,7.12-0.02,9.88" id="kvg:0978d-s10" kvg:type="㇑a" transform="matrix(1,0,0,1,896,-4)" xmlns:kvg="http://kanjivg.tagaini.net"></path><path class="stroke_order_diagram--current_path" d="M70.58,13.98c0.91,0.91,1.06,2.15,1.06,3.89c0,3.04-0.02,7.12-0.02,9.88" id="Ske1njat52x" kvg:type="㇑a" transform="matrix(1,0,0,1,896,-4)" xmlns:kvg="http://kanjivg.tagaini.net"></path><circle class="stroke_order_diagram--path_start" cx="70.58" cy="13.98" r="4" transform="matrix(1,0,0,1,896,-4)"></circle><line class="stroke_order_diagram--guide_line" x1="1050" x2="1050" y1="1" y2="99"></line><line class="stroke_order_diagram--bounding_box" x1="1099" x2="1099" y1="1" y2="99"></line><path class="stroke_order_diagram--existing_path" d="M10.9,29.13c1.54,0.66,3.66,0.15,5.23-0.05c5.86-0.74,18.27-2.48,25.48-3.07c1.84-0.15,3.78-0.4,5.6,0.07" id="Ske1njat530" kvg:type="㇐" transform="matrix(1,0,0,1,996,-4)" xmlns:kvg="http://kanjivg.tagaini.net"></path><path class="stroke_order_diagram--existing_path" d="M18.35,16.21c0.97,0.97,1.49,2.29,1.59,3.53c0.45,5.3,0.85,10.27,1.47,16.13c0.15,1.48,0.32,3.01,0.51,4.63" id="Ske1njat531" kvg:type="㇑" transform="matrix(1,0,0,1,996,-4)" xmlns:kvg="http://kanjivg.tagaini.net"></path><path class="stroke_order_diagram--existing_path" d="M38.31,14.5c0.56,1.12,0.62,2.2,0.47,3.15c-1.23,7.83-2.69,14.75-3.7,19.38" id="Ske1njat532" kvg:type="㇑a" transform="matrix(1,0,0,1,996,-4)" xmlns:kvg="http://kanjivg.tagaini.net"></path><path class="stroke_order_diagram--existing_path" d="M23.08,39.25c1.18,0,6.29-0.54,10.05-0.95c1.89-0.2,3.44-0.37,3.97-0.42" id="Ske1njat533" kvg:type="㇐b" transform="matrix(1,0,0,1,996,-4)" xmlns:kvg="http://kanjivg.tagaini.net"></path><path class="stroke_order_diagram--existing_path" d="M13.51,50.01c0.52,0.75,0.84,1.58,0.93,2.48c0.64,3.07,1.24,6.61,1.73,9.63c0.2,1.22,0.38,2.36,0.54,3.35" id="Ske1njat534" kvg:type="㇑" transform="matrix(1,0,0,1,996,-4)" xmlns:kvg="http://kanjivg.tagaini.net"></path><path class="stroke_order_diagram--existing_path" d="M15.48,50.82c9.85-1.43,20.84-2.68,25.41-3.37c1.71-0.26,3.7,0.27,3.31,2.57c-0.47,2.77-1.25,5.14-2.28,9.97" id="Ske1njat535" kvg:type="㇕" transform="matrix(1,0,0,1,996,-4)" xmlns:kvg="http://kanjivg.tagaini.net"></path><path class="stroke_order_diagram--existing_path" d="M17.75,64.21c4.54-0.69,14.28-1.97,21.38-2.67c1.5-0.15,2.89-0.27,4.1-0.35" id="Ske1njat536" kvg:type="㇐" transform="matrix(1,0,0,1,996,-4)" xmlns:kvg="http://kanjivg.tagaini.net"></path><path class="stroke_order_diagram--existing_path" d="M9.75,76.2c2,0.68,4.22,0.66,5.89,0.39c7.04-1.16,17.49-3.09,26.62-4.22c1.67-0.21,3.9-0.43,5.49,0.17" id="Ske1njat537" kvg:type="㇐" transform="matrix(1,0,0,1,996,-4)" xmlns:kvg="http://kanjivg.tagaini.net"></path><path class="stroke_order_diagram--existing_path" d="M28.46,40.75c0.83,0.83,1.04,2.12,1.04,3.75c0,7.05,0,34.8,0,48c0,2.72,0,4.83,0,6" id="Ske1njat538" kvg:type="㇑" transform="matrix(1,0,0,1,996,-4)" xmlns:kvg="http://kanjivg.tagaini.net"></path><path class="stroke_order_diagram--existing_path" d="M70.58,13.98c0.91,0.91,1.06,2.15,1.06,3.89c0,3.04-0.02,7.12-0.02,9.88" id="Ske1njat539" kvg:type="㇑a" transform="matrix(1,0,0,1,996,-4)" xmlns:kvg="http://kanjivg.tagaini.net"></path><path class="stroke_order_diagram--current_path" d="M52.88,28.25c0,2.9-2.45,10.86-3.56,12.79" id="kvg:0978d-s11" kvg:type="㇔" transform="matrix(1,0,0,1,996,-4)" xmlns:kvg="http://kanjivg.tagaini.net"></path><path class="stroke_order_diagram--current_path" d="M52.88,28.25c0,2.9-2.45,10.86-3.56,12.79" id="Ske1njat53b" kvg:type="㇔" transform="matrix(1,0,0,1,996,-4)" xmlns:kvg="http://kanjivg.tagaini.net"></path><circle class="stroke_order_diagram--path_start" cx="52.88" cy="28.25" r="4" transform="matrix(1,0,0,1,996,-4)"></circle><line class="stroke_order_diagram--guide_line" x1="1150" x2="1150" y1="1" y2="99"></line><line class="stroke_order_diagram--bounding_box" x1="1199" x2="1199" y1="1" y2="99"></line><path class="stroke_order_diagram--existing_path" d="M10.9,29.13c1.54,0.66,3.66,0.15,5.23-0.05c5.86-0.74,18.27-2.48,25.48-3.07c1.84-0.15,3.78-0.4,5.6,0.07" id="Ske1njat53e" kvg:type="㇐" transform="matrix(1,0,0,1,1096,-4)" xmlns:kvg="http://kanjivg.tagaini.net"></path><path class="stroke_order_diagram--existing_path" d="M18.35,16.21c0.97,0.97,1.49,2.29,1.59,3.53c0.45,5.3,0.85,10.27,1.47,16.13c0.15,1.48,0.32,3.01,0.51,4.63" id="Ske1njat53f" kvg:type="㇑" transform="matrix(1,0,0,1,1096,-4)" xmlns:kvg="http://kanjivg.tagaini.net"></path><path class="stroke_order_diagram--existing_path" d="M38.31,14.5c0.56,1.12,0.62,2.2,0.47,3.15c-1.23,7.83-2.69,14.75-3.7,19.38" id="Ske1njat53g" kvg:type="㇑a" transform="matrix(1,0,0,1,1096,-4)" xmlns:kvg="http://kanjivg.tagaini.net"></path><path class="stroke_order_diagram--existing_path" d="M23.08,39.25c1.18,0,6.29-0.54,10.05-0.95c1.89-0.2,3.44-0.37,3.97-0.42" id="Ske1njat53h" kvg:type="㇐b" transform="matrix(1,0,0,1,1096,-4)" xmlns:kvg="http://kanjivg.tagaini.net"></path><path class="stroke_order_diagram--existing_path" d="M13.51,50.01c0.52,0.75,0.84,1.58,0.93,2.48c0.64,3.07,1.24,6.61,1.73,9.63c0.2,1.22,0.38,2.36,0.54,3.35" id="Ske1njat53i" kvg:type="㇑" transform="matrix(1,0,0,1,1096,-4)" xmlns:kvg="http://kanjivg.tagaini.net"></path><path class="stroke_order_diagram--existing_path" d="M15.48,50.82c9.85-1.43,20.84-2.68,25.41-3.37c1.71-0.26,3.7,0.27,3.31,2.57c-0.47,2.77-1.25,5.14-2.28,9.97" id="Ske1njat53j" kvg:type="㇕" transform="matrix(1,0,0,1,1096,-4)" xmlns:kvg="http://kanjivg.tagaini.net"></path><path class="stroke_order_diagram--existing_path" d="M17.75,64.21c4.54-0.69,14.28-1.97,21.38-2.67c1.5-0.15,2.89-0.27,4.1-0.35" id="Ske1njat53k" kvg:type="㇐" transform="matrix(1,0,0,1,1096,-4)" xmlns:kvg="http://kanjivg.tagaini.net"></path><path class="stroke_order_diagram--existing_path" d="M9.75,76.2c2,0.68,4.22,0.66,5.89,0.39c7.04-1.16,17.49-3.09,26.62-4.22c1.67-0.21,3.9-0.43,5.49,0.17" id="Ske1njat53l" kvg:type="㇐" transform="matrix(1,0,0,1,1096,-4)" xmlns:kvg="http://kanjivg.tagaini.net"></path><path class="stroke_order_diagram--existing_path" d="M28.46,40.75c0.83,0.83,1.04,2.12,1.04,3.75c0,7.05,0,34.8,0,48c0,2.72,0,4.83,0,6" id="Ske1njat53m" kvg:type="㇑" transform="matrix(1,0,0,1,1096,-4)" xmlns:kvg="http://kanjivg.tagaini.net"></path><path class="stroke_order_diagram--existing_path" d="M70.58,13.98c0.91,0.91,1.06,2.15,1.06,3.89c0,3.04-0.02,7.12-0.02,9.88" id="Ske1njat53n" kvg:type="㇑a" transform="matrix(1,0,0,1,1096,-4)" xmlns:kvg="http://kanjivg.tagaini.net"></path><path class="stroke_order_diagram--existing_path" d="M52.88,28.25c0,2.9-2.45,10.86-3.56,12.79" id="Ske1njat53o" kvg:type="㇔" transform="matrix(1,0,0,1,1096,-4)" xmlns:kvg="http://kanjivg.tagaini.net"></path><path class="stroke_order_diagram--current_path" d="M54.02,31.24C69,29,87.46,27.08,91.62,27.16c6.7,0.12-0.44,6.82-1.48,7.39" id="kvg:0978d-s12" kvg:type="㇖b" transform="matrix(1,0,0,1,1096,-4)" xmlns:kvg="http://kanjivg.tagaini.net"></path><path class="stroke_order_diagram--current_path" d="M54.02,31.24C69,29,87.46,27.08,91.62,27.16c6.7,0.12-0.44,6.82-1.48,7.39" id="Ske1njat53q" kvg:type="㇖b" transform="matrix(1,0,0,1,1096,-4)" xmlns:kvg="http://kanjivg.tagaini.net"></path><circle class="stroke_order_diagram--path_start" cx="54.02" cy="31.24" r="4" transform="matrix(1,0,0,1,1096,-4)"></circle><line class="stroke_order_diagram--guide_line" x1="1250" x2="1250" y1="1" y2="99"></line><line class="stroke_order_diagram--bounding_box" x1="1299" x2="1299" y1="1" y2="99"></line><path class="stroke_order_diagram--existing_path" d="M10.9,29.13c1.54,0.66,3.66,0.15,5.23-0.05c5.86-0.74,18.27-2.48,25.48-3.07c1.84-0.15,3.78-0.4,5.6,0.07" id="Ske1njat53t" kvg:type="㇐" transform="matrix(1,0,0,1,1196,-4)" xmlns:kvg="http://kanjivg.tagaini.net"></path><path class="stroke_order_diagram--existing_path" d="M18.35,16.21c0.97,0.97,1.49,2.29,1.59,3.53c0.45,5.3,0.85,10.27,1.47,16.13c0.15,1.48,0.32,3.01,0.51,4.63" id="Ske1njat53u" kvg:type="㇑" transform="matrix(1,0,0,1,1196,-4)" xmlns:kvg="http://kanjivg.tagaini.net"></path><path class="stroke_order_diagram--existing_path" d="M38.31,14.5c0.56,1.12,0.62,2.2,0.47,3.15c-1.23,7.83-2.69,14.75-3.7,19.38" id="Ske1njat53v" kvg:type="㇑a" transform="matrix(1,0,0,1,1196,-4)" xmlns:kvg="http://kanjivg.tagaini.net"></path><path class="stroke_order_diagram--existing_path" d="M23.08,39.25c1.18,0,6.29-0.54,10.05-0.95c1.89-0.2,3.44-0.37,3.97-0.42" id="Ske1njat53w" kvg:type="㇐b" transform="matrix(1,0,0,1,1196,-4)" xmlns:kvg="http://kanjivg.tagaini.net"></path><path class="stroke_order_diagram--existing_path" d="M13.51,50.01c0.52,0.75,0.84,1.58,0.93,2.48c0.64,3.07,1.24,6.61,1.73,9.63c0.2,1.22,0.38,2.36,0.54,3.35" id="Ske1njat53x" kvg:type="㇑" transform="matrix(1,0,0,1,1196,-4)" xmlns:kvg="http://kanjivg.tagaini.net"></path><path class="stroke_order_diagram--existing_path" d="M15.48,50.82c9.85-1.43,20.84-2.68,25.41-3.37c1.71-0.26,3.7,0.27,3.31,2.57c-0.47,2.77-1.25,5.14-2.28,9.97" id="Ske1njat53y" kvg:type="㇕" transform="matrix(1,0,0,1,1196,-4)" xmlns:kvg="http://kanjivg.tagaini.net"></path><path class="stroke_order_diagram--existing_path" d="M17.75,64.21c4.54-0.69,14.28-1.97,21.38-2.67c1.5-0.15,2.89-0.27,4.1-0.35" id="Ske1njat53z" kvg:type="㇐" transform="matrix(1,0,0,1,1196,-4)" xmlns:kvg="http://kanjivg.tagaini.net"></path><path class="stroke_order_diagram--existing_path" d="M9.75,76.2c2,0.68,4.22,0.66,5.89,0.39c7.04-1.16,17.49-3.09,26.62-4.22c1.67-0.21,3.9-0.43,5.49,0.17" id="Ske1njat540" kvg:type="㇐" transform="matrix(1,0,0,1,1196,-4)" xmlns:kvg="http://kanjivg.tagaini.net"></path><path class="stroke_order_diagram--existing_path" d="M28.46,40.75c0.83,0.83,1.04,2.12,1.04,3.75c0,7.05,0,34.8,0,48c0,2.72,0,4.83,0,6" id="Ske1njat541" kvg:type="㇑" transform="matrix(1,0,0,1,1196,-4)" xmlns:kvg="http://kanjivg.tagaini.net"></path><path class="stroke_order_diagram--existing_path" d="M70.58,13.98c0.91,0.91,1.06,2.15,1.06,3.89c0,3.04-0.02,7.12-0.02,9.88" id="Ske1njat542" kvg:type="㇑a" transform="matrix(1,0,0,1,1196,-4)" xmlns:kvg="http://kanjivg.tagaini.net"></path><path class="stroke_order_diagram--existing_path" d="M52.88,28.25c0,2.9-2.45,10.86-3.56,12.79" id="Ske1njat543" kvg:type="㇔" transform="matrix(1,0,0,1,1196,-4)" xmlns:kvg="http://kanjivg.tagaini.net"></path><path class="stroke_order_diagram--existing_path" d="M54.02,31.24C69,29,87.46,27.08,91.62,27.16c6.7,0.12-0.44,6.82-1.48,7.39" id="Ske1njat544" kvg:type="㇖b" transform="matrix(1,0,0,1,1196,-4)" xmlns:kvg="http://kanjivg.tagaini.net"></path><path class="stroke_order_diagram--current_path" d="M68.52,35.5c0.39,1.41,0.3,3.23-0.19,4.94c-2.56,8.83-5.12,18.53-10.43,28.76c-1.61,3.1-1.41,4.84,0.86,5.18C69.25,76,76.75,81.12,83.79,87.83c2.81,2.68,4.66,6.13,6.34,9.31" id="kvg:0978d-s13" kvg:type="㇛" transform="matrix(1,0,0,1,1196,-4)" xmlns:kvg="http://kanjivg.tagaini.net"></path><path class="stroke_order_diagram--current_path" d="M68.52,35.5c0.39,1.41,0.3,3.23-0.19,4.94c-2.56,8.83-5.12,18.53-10.43,28.76c-1.61,3.1-1.41,4.84,0.86,5.18C69.25,76,76.75,81.12,83.79,87.83c2.81,2.68,4.66,6.13,6.34,9.31" id="Ske1njat546" kvg:type="㇛" transform="matrix(1,0,0,1,1196,-4)" xmlns:kvg="http://kanjivg.tagaini.net"></path><circle class="stroke_order_diagram--path_start" cx="68.52" cy="35.5" r="4" transform="matrix(1,0,0,1,1196,-4)"></circle><line class="stroke_order_diagram--guide_line" x1="1350" x2="1350" y1="1" y2="99"></line><line class="stroke_order_diagram--bounding_box" x1="1399" x2="1399" y1="1" y2="99"></line><path class="stroke_order_diagram--existing_path" d="M10.9,29.13c1.54,0.66,3.66,0.15,5.23-0.05c5.86-0.74,18.27-2.48,25.48-3.07c1.84-0.15,3.78-0.4,5.6,0.07" id="Ske1njat549" kvg:type="㇐" transform="matrix(1,0,0,1,1296,-4)" xmlns:kvg="http://kanjivg.tagaini.net"></path><path class="stroke_order_diagram--existing_path" d="M18.35,16.21c0.97,0.97,1.49,2.29,1.59,3.53c0.45,5.3,0.85,10.27,1.47,16.13c0.15,1.48,0.32,3.01,0.51,4.63" id="Ske1njat54a" kvg:type="㇑" transform="matrix(1,0,0,1,1296,-4)" xmlns:kvg="http://kanjivg.tagaini.net"></path><path class="stroke_order_diagram--existing_path" d="M38.31,14.5c0.56,1.12,0.62,2.2,0.47,3.15c-1.23,7.83-2.69,14.75-3.7,19.38" id="Ske1njat54b" kvg:type="㇑a" transform="matrix(1,0,0,1,1296,-4)" xmlns:kvg="http://kanjivg.tagaini.net"></path><path class="stroke_order_diagram--existing_path" d="M23.08,39.25c1.18,0,6.29-0.54,10.05-0.95c1.89-0.2,3.44-0.37,3.97-0.42" id="Ske1njat54c" kvg:type="㇐b" transform="matrix(1,0,0,1,1296,-4)" xmlns:kvg="http://kanjivg.tagaini.net"></path><path class="stroke_order_diagram--existing_path" d="M13.51,50.01c0.52,0.75,0.84,1.58,0.93,2.48c0.64,3.07,1.24,6.61,1.73,9.63c0.2,1.22,0.38,2.36,0.54,3.35" id="Ske1njat54d" kvg:type="㇑" transform="matrix(1,0,0,1,1296,-4)" xmlns:kvg="http://kanjivg.tagaini.net"></path><path class="stroke_order_diagram--existing_path" d="M15.48,50.82c9.85-1.43,20.84-2.68,25.41-3.37c1.71-0.26,3.7,0.27,3.31,2.57c-0.47,2.77-1.25,5.14-2.28,9.97" id="Ske1njat54e" kvg:type="㇕" transform="matrix(1,0,0,1,1296,-4)" xmlns:kvg="http://kanjivg.tagaini.net"></path><path class="stroke_order_diagram--existing_path" d="M17.75,64.21c4.54-0.69,14.28-1.97,21.38-2.67c1.5-0.15,2.89-0.27,4.1-0.35" id="Ske1njat54f" kvg:type="㇐" transform="matrix(1,0,0,1,1296,-4)" xmlns:kvg="http://kanjivg.tagaini.net"></path><path class="stroke_order_diagram--existing_path" d="M9.75,76.2c2,0.68,4.22,0.66,5.89,0.39c7.04-1.16,17.49-3.09,26.62-4.22c1.67-0.21,3.9-0.43,5.49,0.17" id="Ske1njat54g" kvg:type="㇐" transform="matrix(1,0,0,1,1296,-4)" xmlns:kvg="http://kanjivg.tagaini.net"></path><path class="stroke_order_diagram--existing_path" d="M28.46,40.75c0.83,0.83,1.04,2.12,1.04,3.75c0,7.05,0,34.8,0,48c0,2.72,0,4.83,0,6" id="Ske1njat54h" kvg:type="㇑" transform="matrix(1,0,0,1,1296,-4)" xmlns:kvg="http://kanjivg.tagaini.net"></path><path class="stroke_order_diagram--existing_path" d="M70.58,13.98c0.91,0.91,1.06,2.15,1.06,3.89c0,3.04-0.02,7.12-0.02,9.88" id="Ske1njat54i" kvg:type="㇑a" transform="matrix(1,0,0,1,1296,-4)" xmlns:kvg="http://kanjivg.tagaini.net"></path><path class="stroke_order_diagram--existing_path" d="M52.88,28.25c0,2.9-2.45,10.86-3.56,12.79" id="Ske1njat54j" kvg:type="㇔" transform="matrix(1,0,0,1,1296,-4)" xmlns:kvg="http://kanjivg.tagaini.net"></path><path class="stroke_order_diagram--existing_path" d="M54.02,31.24C69,29,87.46,27.08,91.62,27.16c6.7,0.12-0.44,6.82-1.48,7.39" id="Ske1njat54k" kvg:type="㇖b" transform="matrix(1,0,0,1,1296,-4)" xmlns:kvg="http://kanjivg.tagaini.net"></path><path class="stroke_order_diagram--existing_path" d="M68.52,35.5c0.39,1.41,0.3,3.23-0.19,4.94c-2.56,8.83-5.12,18.53-10.43,28.76c-1.61,3.1-1.41,4.84,0.86,5.18C69.25,76,76.75,81.12,83.79,87.83c2.81,2.68,4.66,6.13,6.34,9.31" id="Ske1njat54l" kvg:type="㇛" transform="matrix(1,0,0,1,1296,-4)" xmlns:kvg="http://kanjivg.tagaini.net"></path><path class="stroke_order_diagram--current_path" d="M83.36,47.47c0.39,1.16,0.17,3.16-0.2,4.91c-2.97,14.2-13.22,36.58-32.96,44.88" id="kvg:0978d-s14" kvg:type="㇒" transform="matrix(1,0,0,1,1296,-4)" xmlns:kvg="http://kanjivg.tagaini.net"></path><path class="stroke_order_diagram--current_path" d="M83.36,47.47c0.39,1.16,0.17,3.16-0.2,4.91c-2.97,14.2-13.22,36.58-32.96,44.88" id="Ske1njat54n" kvg:type="㇒" transform="matrix(1,0,0,1,1296,-4)" xmlns:kvg="http://kanjivg.tagaini.net"></path><circle class="stroke_order_diagram--path_start" cx="83.36" cy="47.47" r="4" transform="matrix(1,0,0,1,1296,-4)"></circle><line class="stroke_order_diagram--guide_line" x1="1450" x2="1450" y1="1" y2="99"></line><line class="stroke_order_diagram--bounding_box" x1="1499" x2="1499" y1="1" y2="99"></line><path class="stroke_order_diagram--existing_path" d="M10.9,29.13c1.54,0.66,3.66,0.15,5.23-0.05c5.86-0.74,18.27-2.48,25.48-3.07c1.84-0.15,3.78-0.4,5.6,0.07" id="Ske1njat54q" kvg:type="㇐" transform="matrix(1,0,0,1,1396,-4)" xmlns:kvg="http://kanjivg.tagaini.net"></path><path class="stroke_order_diagram--existing_path" d="M18.35,16.21c0.97,0.97,1.49,2.29,1.59,3.53c0.45,5.3,0.85,10.27,1.47,16.13c0.15,1.48,0.32,3.01,0.51,4.63" id="Ske1njat54r" kvg:type="㇑" transform="matrix(1,0,0,1,1396,-4)" xmlns:kvg="http://kanjivg.tagaini.net"></path><path class="stroke_order_diagram--existing_path" d="M38.31,14.5c0.56,1.12,0.62,2.2,0.47,3.15c-1.23,7.83-2.69,14.75-3.7,19.38" id="Ske1njat54s" kvg:type="㇑a" transform="matrix(1,0,0,1,1396,-4)" xmlns:kvg="http://kanjivg.tagaini.net"></path><path class="stroke_order_diagram--existing_path" d="M23.08,39.25c1.18,0,6.29-0.54,10.05-0.95c1.89-0.2,3.44-0.37,3.97-0.42" id="Ske1njat54t" kvg:type="㇐b" transform="matrix(1,0,0,1,1396,-4)" xmlns:kvg="http://kanjivg.tagaini.net"></path><path class="stroke_order_diagram--existing_path" d="M13.51,50.01c0.52,0.75,0.84,1.58,0.93,2.48c0.64,3.07,1.24,6.61,1.73,9.63c0.2,1.22,0.38,2.36,0.54,3.35" id="Ske1njat54u" kvg:type="㇑" transform="matrix(1,0,0,1,1396,-4)" xmlns:kvg="http://kanjivg.tagaini.net"></path><path class="stroke_order_diagram--existing_path" d="M15.48,50.82c9.85-1.43,20.84-2.68,25.41-3.37c1.71-0.26,3.7,0.27,3.31,2.57c-0.47,2.77-1.25,5.14-2.28,9.97" id="Ske1njat54v" kvg:type="㇕" transform="matrix(1,0,0,1,1396,-4)" xmlns:kvg="http://kanjivg.tagaini.net"></path><path class="stroke_order_diagram--existing_path" d="M17.75,64.21c4.54-0.69,14.28-1.97,21.38-2.67c1.5-0.15,2.89-0.27,4.1-0.35" id="Ske1njat54w" kvg:type="㇐" transform="matrix(1,0,0,1,1396,-4)" xmlns:kvg="http://kanjivg.tagaini.net"></path><path class="stroke_order_diagram--existing_path" d="M9.75,76.2c2,0.68,4.22,0.66,5.89,0.39c7.04-1.16,17.49-3.09,26.62-4.22c1.67-0.21,3.9-0.43,5.49,0.17" id="Ske1njat54x" kvg:type="㇐" transform="matrix(1,0,0,1,1396,-4)" xmlns:kvg="http://kanjivg.tagaini.net"></path><path class="stroke_order_diagram--existing_path" d="M28.46,40.75c0.83,0.83,1.04,2.12,1.04,3.75c0,7.05,0,34.8,0,48c0,2.72,0,4.83,0,6" id="Ske1njat54y" kvg:type="㇑" transform="matrix(1,0,0,1,1396,-4)" xmlns:kvg="http://kanjivg.tagaini.net"></path><path class="stroke_order_diagram--existing_path" d="M70.58,13.98c0.91,0.91,1.06,2.15,1.06,3.89c0,3.04-0.02,7.12-0.02,9.88" id="Ske1njat54z" kvg:type="㇑a" transform="matrix(1,0,0,1,1396,-4)" xmlns:kvg="http://kanjivg.tagaini.net"></path><path class="stroke_order_diagram--existing_path" d="M52.88,28.25c0,2.9-2.45,10.86-3.56,12.79" id="Ske1njat550" kvg:type="㇔" transform="matrix(1,0,0,1,1396,-4)" xmlns:kvg="http://kanjivg.tagaini.net"></path><path class="stroke_order_diagram--existing_path" d="M54.02,31.24C69,29,87.46,27.08,91.62,27.16c6.7,0.12-0.44,6.82-1.48,7.39" id="Ske1njat551" kvg:type="㇖b" transform="matrix(1,0,0,1,1396,-4)" xmlns:kvg="http://kanjivg.tagaini.net"></path><path class="stroke_order_diagram--existing_path" d="M68.52,35.5c0.39,1.41,0.3,3.23-0.19,4.94c-2.56,8.83-5.12,18.53-10.43,28.76c-1.61,3.1-1.41,4.84,0.86,5.18C69.25,76,76.75,81.12,83.79,87.83c2.81,2.68,4.66,6.13,6.34,9.31" id="Ske1njat552" kvg:type="㇛" transform="matrix(1,0,0,1,1396,-4)" xmlns:kvg="http://kanjivg.tagaini.net"></path><path class="stroke_order_diagram--existing_path" d="M83.36,47.47c0.39,1.16,0.17,3.16-0.2,4.91c-2.97,14.2-13.22,36.58-32.96,44.88" id="Ske1njat553" kvg:type="㇒" transform="matrix(1,0,0,1,1396,-4)" xmlns:kvg="http://kanjivg.tagaini.net"></path><path class="stroke_order_diagram--current_path" d="M49.63,56.77c1.96,0.86,4.87,0.28,6.88,0.08c7.22-0.72,21.86-2.1,35.12-2.88c2.48-0.15,5.25-0.1,7.87,0.63" id="kvg:0978d-s15" kvg:type="㇐" transform="matrix(1,0,0,1,1396,-4)" xmlns:kvg="http://kanjivg.tagaini.net"></path><path class="stroke_order_diagram--current_path" d="M49.63,56.77c1.96,0.86,4.87,0.28,6.88,0.08c7.22-0.72,21.86-2.1,35.12-2.88c2.48-0.15,5.25-0.1,7.87,0.63" id="Ske1njat555" kvg:type="㇐" transform="matrix(1,0,0,1,1396,-4)" xmlns:kvg="http://kanjivg.tagaini.net"></path><circle class="stroke_order_diagram--path_start" cx="49.63" cy="56.77" r="4" transform="matrix(1,0,0,1,1396,-4)"></circle></svg>