<svg class="stroke_order_diagram--svg_container_for_518662c3d5dda79658001796" style="height: 100px; width: 1700px;" viewbox="0 0 1700 100"><desc>Created with Snap</desc><defs></defs><line class="stroke_order_diagram--bounding_box" x1="1" x2="1699" y1="1" y2="1"></line><line class="stroke_order_diagram--bounding_box" x1="1" x2="1" y1="1" y2="99"></line><line class="stroke_order_diagram--bounding_box" x1="1" x2="1699" y1="99" y2="99"></line><line class="stroke_order_diagram--guide_line" x1="0" x2="1700" y1="50" y2="50"></line><line class="stroke_order_diagram--guide_line" x1="50" x2="50" y1="1" y2="99"></line><line class="stroke_order_diagram--bounding_box" x1="99" x2="99" y1="1" y2="99"></line><path class="stroke_order_diagram--current_path" d="M11.4,23.84c0.88,0.38,2.5,0.44,3.38,0.38c4.6-0.34,21.97-2.22,30.6-2.99c1.47-0.13,2.35,0.18,3.09,0.37" id="kvg:0979c-s1" kvg:type="㇐" transform="matrix(1,0,0,1,-4,-4)" xmlns:kvg="http://kanjivg.tagaini.net"></path><path class="stroke_order_diagram--current_path" d="M11.4,23.84c0.88,0.38,2.5,0.44,3.38,0.38c4.6-0.34,21.97-2.22,30.6-2.99c1.47-0.13,2.35,0.18,3.09,0.37" id="Ske33dlzwq" kvg:type="㇐" transform="matrix(1,0,0,1,-4,-4)" xmlns:kvg="http://kanjivg.tagaini.net"></path><circle class="stroke_order_diagram--path_start" cx="11.4" cy="23.84" r="4" transform="matrix(1,0,0,1,-4,-4)"></circle><line class="stroke_order_diagram--guide_line" x1="150" x2="150" y1="1" y2="99"></line><line class="stroke_order_diagram--bounding_box" x1="199" x2="199" y1="1" y2="99"></line><path class="stroke_order_diagram--existing_path" d="M11.4,23.84c0.88,0.38,2.5,0.44,3.38,0.38c4.6-0.34,21.97-2.22,30.6-2.99c1.47-0.13,2.35,0.18,3.09,0.37" id="Ske33dlzwt" kvg:type="㇐" transform="matrix(1,0,0,1,96,-4)" xmlns:kvg="http://kanjivg.tagaini.net"></path><path class="stroke_order_diagram--current_path" d="M19.35,13.46c0.47,0.33,0.75,1.48,0.84,2.14c0.81,5.9,1.73,11.44,2.23,18.9" id="kvg:0979c-s2" kvg:type="㇑" transform="matrix(1,0,0,1,96,-4)" xmlns:kvg="http://kanjivg.tagaini.net"></path><path class="stroke_order_diagram--current_path" d="M19.35,13.46c0.47,0.33,0.75,1.48,0.84,2.14c0.81,5.9,1.73,11.44,2.23,18.9" id="Ske33dlzwv" kvg:type="㇑" transform="matrix(1,0,0,1,96,-4)" xmlns:kvg="http://kanjivg.tagaini.net"></path><circle class="stroke_order_diagram--path_start" cx="19.35" cy="13.46" r="4" transform="matrix(1,0,0,1,96,-4)"></circle><line class="stroke_order_diagram--guide_line" x1="250" x2="250" y1="1" y2="99"></line><line class="stroke_order_diagram--bounding_box" x1="299" x2="299" y1="1" y2="99"></line><path class="stroke_order_diagram--existing_path" d="M11.4,23.84c0.88,0.38,2.5,0.44,3.38,0.38c4.6-0.34,21.97-2.22,30.6-2.99c1.47-0.13,2.35,0.18,3.09,0.37" id="Ske33dlzwy" kvg:type="㇐" transform="matrix(1,0,0,1,196,-4)" xmlns:kvg="http://kanjivg.tagaini.net"></path><path class="stroke_order_diagram--existing_path" d="M19.35,13.46c0.47,0.33,0.75,1.48,0.84,2.14c0.81,5.9,1.73,11.44,2.23,18.9" id="Ske33dlzwz" kvg:type="㇑" transform="matrix(1,0,0,1,196,-4)" xmlns:kvg="http://kanjivg.tagaini.net"></path><path class="stroke_order_diagram--current_path" d="M37.56,12.25c0.46,0.33,0.9,1.47,0.84,2.14c-0.65,6.86,0.17,8.42-1.07,17.63" id="kvg:0979c-s3" kvg:type="㇑a" transform="matrix(1,0,0,1,196,-4)" xmlns:kvg="http://kanjivg.tagaini.net"></path><path class="stroke_order_diagram--current_path" d="M37.56,12.25c0.46,0.33,0.9,1.47,0.84,2.14c-0.65,6.86,0.17,8.42-1.07,17.63" id="Ske33dlzw11" kvg:type="㇑a" transform="matrix(1,0,0,1,196,-4)" xmlns:kvg="http://kanjivg.tagaini.net"></path><circle class="stroke_order_diagram--path_start" cx="37.56" cy="12.25" r="4" transform="matrix(1,0,0,1,196,-4)"></circle><line class="stroke_order_diagram--guide_line" x1="350" x2="350" y1="1" y2="99"></line><line class="stroke_order_diagram--bounding_box" x1="399" x2="399" y1="1" y2="99"></line><path class="stroke_order_diagram--existing_path" d="M11.4,23.84c0.88,0.38,2.5,0.44,3.38,0.38c4.6-0.34,21.97-2.22,30.6-2.99c1.47-0.13,2.35,0.18,3.09,0.37" id="Ske33dlzw14" kvg:type="㇐" transform="matrix(1,0,0,1,296,-4)" xmlns:kvg="http://kanjivg.tagaini.net"></path><path class="stroke_order_diagram--existing_path" d="M19.35,13.46c0.47,0.33,0.75,1.48,0.84,2.14c0.81,5.9,1.73,11.44,2.23,18.9" id="Ske33dlzw15" kvg:type="㇑" transform="matrix(1,0,0,1,296,-4)" xmlns:kvg="http://kanjivg.tagaini.net"></path><path class="stroke_order_diagram--existing_path" d="M37.56,12.25c0.46,0.33,0.9,1.47,0.84,2.14c-0.65,6.86,0.17,8.42-1.07,17.63" id="Ske33dlzw16" kvg:type="㇑a" transform="matrix(1,0,0,1,296,-4)" xmlns:kvg="http://kanjivg.tagaini.net"></path><path class="stroke_order_diagram--current_path" d="M22.33,33.25c1.77,0,14.68-1.23,16.27-1.37" id="kvg:0979c-s4" kvg:type="㇐b" transform="matrix(1,0,0,1,296,-4)" xmlns:kvg="http://kanjivg.tagaini.net"></path><path class="stroke_order_diagram--current_path" d="M22.33,33.25c1.77,0,14.68-1.23,16.27-1.37" id="Ske33dlzw18" kvg:type="㇐b" transform="matrix(1,0,0,1,296,-4)" xmlns:kvg="http://kanjivg.tagaini.net"></path><circle class="stroke_order_diagram--path_start" cx="22.33" cy="33.25" r="4" transform="matrix(1,0,0,1,296,-4)"></circle><line class="stroke_order_diagram--guide_line" x1="450" x2="450" y1="1" y2="99"></line><line class="stroke_order_diagram--bounding_box" x1="499" x2="499" y1="1" y2="99"></line><path class="stroke_order_diagram--existing_path" d="M11.4,23.84c0.88,0.38,2.5,0.44,3.38,0.38c4.6-0.34,21.97-2.22,30.6-2.99c1.47-0.13,2.35,0.18,3.09,0.37" id="Ske33dlzw1b" kvg:type="㇐" transform="matrix(1,0,0,1,396,-4)" xmlns:kvg="http://kanjivg.tagaini.net"></path><path class="stroke_order_diagram--existing_path" d="M19.35,13.46c0.47,0.33,0.75,1.48,0.84,2.14c0.81,5.9,1.73,11.44,2.23,18.9" id="Ske33dlzw1c" kvg:type="㇑" transform="matrix(1,0,0,1,396,-4)" xmlns:kvg="http://kanjivg.tagaini.net"></path><path class="stroke_order_diagram--existing_path" d="M37.56,12.25c0.46,0.33,0.9,1.47,0.84,2.14c-0.65,6.86,0.17,8.42-1.07,17.63" id="Ske33dlzw1d" kvg:type="㇑a" transform="matrix(1,0,0,1,396,-4)" xmlns:kvg="http://kanjivg.tagaini.net"></path><path class="stroke_order_diagram--existing_path" d="M22.33,33.25c1.77,0,14.68-1.23,16.27-1.37" id="Ske33dlzw1e" kvg:type="㇐b" transform="matrix(1,0,0,1,396,-4)" xmlns:kvg="http://kanjivg.tagaini.net"></path><path class="stroke_order_diagram--current_path" d="M14.26,43.6c0.29,0.47,0.58,0.86,0.7,1.45c0.99,4.66,1.83,7.53,2.5,15.91" id="kvg:0979c-s5" kvg:type="㇑" transform="matrix(1,0,0,1,396,-4)" xmlns:kvg="http://kanjivg.tagaini.net"></path><path class="stroke_order_diagram--current_path" d="M14.26,43.6c0.29,0.47,0.58,0.86,0.7,1.45c0.99,4.66,1.83,7.53,2.5,15.91" id="Ske33dlzw1g" kvg:type="㇑" transform="matrix(1,0,0,1,396,-4)" xmlns:kvg="http://kanjivg.tagaini.net"></path><circle class="stroke_order_diagram--path_start" cx="14.26" cy="43.6" r="4" transform="matrix(1,0,0,1,396,-4)"></circle><line class="stroke_order_diagram--guide_line" x1="550" x2="550" y1="1" y2="99"></line><line class="stroke_order_diagram--bounding_box" x1="599" x2="599" y1="1" y2="99"></line><path class="stroke_order_diagram--existing_path" d="M11.4,23.84c0.88,0.38,2.5,0.44,3.38,0.38c4.6-0.34,21.97-2.22,30.6-2.99c1.47-0.13,2.35,0.18,3.09,0.37" id="Ske33dlzw1j" kvg:type="㇐" transform="matrix(1,0,0,1,496,-4)" xmlns:kvg="http://kanjivg.tagaini.net"></path><path class="stroke_order_diagram--existing_path" d="M19.35,13.46c0.47,0.33,0.75,1.48,0.84,2.14c0.81,5.9,1.73,11.44,2.23,18.9" id="Ske33dlzw1k" kvg:type="㇑" transform="matrix(1,0,0,1,496,-4)" xmlns:kvg="http://kanjivg.tagaini.net"></path><path class="stroke_order_diagram--existing_path" d="M37.56,12.25c0.46,0.33,0.9,1.47,0.84,2.14c-0.65,6.86,0.17,8.42-1.07,17.63" id="Ske33dlzw1l" kvg:type="㇑a" transform="matrix(1,0,0,1,496,-4)" xmlns:kvg="http://kanjivg.tagaini.net"></path><path class="stroke_order_diagram--existing_path" d="M22.33,33.25c1.77,0,14.68-1.23,16.27-1.37" id="Ske33dlzw1m" kvg:type="㇐b" transform="matrix(1,0,0,1,496,-4)" xmlns:kvg="http://kanjivg.tagaini.net"></path><path class="stroke_order_diagram--existing_path" d="M14.26,43.6c0.29,0.47,0.58,0.86,0.7,1.45c0.99,4.66,1.83,7.53,2.5,15.91" id="Ske33dlzw1n" kvg:type="㇑" transform="matrix(1,0,0,1,496,-4)" xmlns:kvg="http://kanjivg.tagaini.net"></path><path class="stroke_order_diagram--current_path" d="M15.48,44.71c9.52-1.21,24.92-3.03,28.52-3.69c1.32-0.24,2.43,1.45,2.2,2.85c-0.47,2.88-1.75,7.38-2.78,12.4" id="kvg:0979c-s6" kvg:type="㇕" transform="matrix(1,0,0,1,496,-4)" xmlns:kvg="http://kanjivg.tagaini.net"></path><path class="stroke_order_diagram--current_path" d="M15.48,44.71c9.52-1.21,24.92-3.03,28.52-3.69c1.32-0.24,2.43,1.45,2.2,2.85c-0.47,2.88-1.75,7.38-2.78,12.4" id="Ske33dlzw1p" kvg:type="㇕" transform="matrix(1,0,0,1,496,-4)" xmlns:kvg="http://kanjivg.tagaini.net"></path><circle class="stroke_order_diagram--path_start" cx="15.48" cy="44.71" r="4" transform="matrix(1,0,0,1,496,-4)"></circle><line class="stroke_order_diagram--guide_line" x1="650" x2="650" y1="1" y2="99"></line><line class="stroke_order_diagram--bounding_box" x1="699" x2="699" y1="1" y2="99"></line><path class="stroke_order_diagram--existing_path" d="M11.4,23.84c0.88,0.38,2.5,0.44,3.38,0.38c4.6-0.34,21.97-2.22,30.6-2.99c1.47-0.13,2.35,0.18,3.09,0.37" id="Ske33dlzw1s" kvg:type="㇐" transform="matrix(1,0,0,1,596,-4)" xmlns:kvg="http://kanjivg.tagaini.net"></path><path class="stroke_order_diagram--existing_path" d="M19.35,13.46c0.47,0.33,0.75,1.48,0.84,2.14c0.81,5.9,1.73,11.44,2.23,18.9" id="Ske33dlzw1t" kvg:type="㇑" transform="matrix(1,0,0,1,596,-4)" xmlns:kvg="http://kanjivg.tagaini.net"></path><path class="stroke_order_diagram--existing_path" d="M37.56,12.25c0.46,0.33,0.9,1.47,0.84,2.14c-0.65,6.86,0.17,8.42-1.07,17.63" id="Ske33dlzw1u" kvg:type="㇑a" transform="matrix(1,0,0,1,596,-4)" xmlns:kvg="http://kanjivg.tagaini.net"></path><path class="stroke_order_diagram--existing_path" d="M22.33,33.25c1.77,0,14.68-1.23,16.27-1.37" id="Ske33dlzw1v" kvg:type="㇐b" transform="matrix(1,0,0,1,596,-4)" xmlns:kvg="http://kanjivg.tagaini.net"></path><path class="stroke_order_diagram--existing_path" d="M14.26,43.6c0.29,0.47,0.58,0.86,0.7,1.45c0.99,4.66,1.83,7.53,2.5,15.91" id="Ske33dlzw1w" kvg:type="㇑" transform="matrix(1,0,0,1,596,-4)" xmlns:kvg="http://kanjivg.tagaini.net"></path><path class="stroke_order_diagram--existing_path" d="M15.48,44.71c9.52-1.21,24.92-3.03,28.52-3.69c1.32-0.24,2.43,1.45,2.2,2.85c-0.47,2.88-1.75,7.38-2.78,12.4" id="Ske33dlzw1x" kvg:type="㇕" transform="matrix(1,0,0,1,596,-4)" xmlns:kvg="http://kanjivg.tagaini.net"></path><path class="stroke_order_diagram--current_path" d="M17.25,59.38c4.23-0.75,20.5-1.88,27.48-2.38" id="kvg:0979c-s7" kvg:type="㇐" transform="matrix(1,0,0,1,596,-4)" xmlns:kvg="http://kanjivg.tagaini.net"></path><path class="stroke_order_diagram--current_path" d="M17.25,59.38c4.23-0.75,20.5-1.88,27.48-2.38" id="Ske33dlzw1z" kvg:type="㇐" transform="matrix(1,0,0,1,596,-4)" xmlns:kvg="http://kanjivg.tagaini.net"></path><circle class="stroke_order_diagram--path_start" cx="17.25" cy="59.38" r="4" transform="matrix(1,0,0,1,596,-4)"></circle><line class="stroke_order_diagram--guide_line" x1="750" x2="750" y1="1" y2="99"></line><line class="stroke_order_diagram--bounding_box" x1="799" x2="799" y1="1" y2="99"></line><path class="stroke_order_diagram--existing_path" d="M11.4,23.84c0.88,0.38,2.5,0.44,3.38,0.38c4.6-0.34,21.97-2.22,30.6-2.99c1.47-0.13,2.35,0.18,3.09,0.37" id="Ske33dlzw22" kvg:type="㇐" transform="matrix(1,0,0,1,696,-4)" xmlns:kvg="http://kanjivg.tagaini.net"></path><path class="stroke_order_diagram--existing_path" d="M19.35,13.46c0.47,0.33,0.75,1.48,0.84,2.14c0.81,5.9,1.73,11.44,2.23,18.9" id="Ske33dlzw23" kvg:type="㇑" transform="matrix(1,0,0,1,696,-4)" xmlns:kvg="http://kanjivg.tagaini.net"></path><path class="stroke_order_diagram--existing_path" d="M37.56,12.25c0.46,0.33,0.9,1.47,0.84,2.14c-0.65,6.86,0.17,8.42-1.07,17.63" id="Ske33dlzw24" kvg:type="㇑a" transform="matrix(1,0,0,1,696,-4)" xmlns:kvg="http://kanjivg.tagaini.net"></path><path class="stroke_order_diagram--existing_path" d="M22.33,33.25c1.77,0,14.68-1.23,16.27-1.37" id="Ske33dlzw25" kvg:type="㇐b" transform="matrix(1,0,0,1,696,-4)" xmlns:kvg="http://kanjivg.tagaini.net"></path><path class="stroke_order_diagram--existing_path" d="M14.26,43.6c0.29,0.47,0.58,0.86,0.7,1.45c0.99,4.66,1.83,7.53,2.5,15.91" id="Ske33dlzw26" kvg:type="㇑" transform="matrix(1,0,0,1,696,-4)" xmlns:kvg="http://kanjivg.tagaini.net"></path><path class="stroke_order_diagram--existing_path" d="M15.48,44.71c9.52-1.21,24.92-3.03,28.52-3.69c1.32-0.24,2.43,1.45,2.2,2.85c-0.47,2.88-1.75,7.38-2.78,12.4" id="Ske33dlzw27" kvg:type="㇕" transform="matrix(1,0,0,1,696,-4)" xmlns:kvg="http://kanjivg.tagaini.net"></path><path class="stroke_order_diagram--existing_path" d="M17.25,59.38c4.23-0.75,20.5-1.88,27.48-2.38" id="Ske33dlzw28" kvg:type="㇐" transform="matrix(1,0,0,1,696,-4)" xmlns:kvg="http://kanjivg.tagaini.net"></path><path class="stroke_order_diagram--current_path" d="M12.25,74.7c0.86,0.54,2.43,0.63,3.29,0.54C24.75,74.25,35,73,44.99,72.01c1.43-0.14,2.29,0.26,3.01,0.53" id="kvg:0979c-s8" kvg:type="㇐" transform="matrix(1,0,0,1,696,-4)" xmlns:kvg="http://kanjivg.tagaini.net"></path><path class="stroke_order_diagram--current_path" d="M12.25,74.7c0.86,0.54,2.43,0.63,3.29,0.54C24.75,74.25,35,73,44.99,72.01c1.43-0.14,2.29,0.26,3.01,0.53" id="Ske33dlzw2a" kvg:type="㇐" transform="matrix(1,0,0,1,696,-4)" xmlns:kvg="http://kanjivg.tagaini.net"></path><circle class="stroke_order_diagram--path_start" cx="12.25" cy="74.7" r="4" transform="matrix(1,0,0,1,696,-4)"></circle><line class="stroke_order_diagram--guide_line" x1="850" x2="850" y1="1" y2="99"></line><line class="stroke_order_diagram--bounding_box" x1="899" x2="899" y1="1" y2="99"></line><path class="stroke_order_diagram--existing_path" d="M11.4,23.84c0.88,0.38,2.5,0.44,3.38,0.38c4.6-0.34,21.97-2.22,30.6-2.99c1.47-0.13,2.35,0.18,3.09,0.37" id="Ske33dlzw2d" kvg:type="㇐" transform="matrix(1,0,0,1,796,-4)" xmlns:kvg="http://kanjivg.tagaini.net"></path><path class="stroke_order_diagram--existing_path" d="M19.35,13.46c0.47,0.33,0.75,1.48,0.84,2.14c0.81,5.9,1.73,11.44,2.23,18.9" id="Ske33dlzw2e" kvg:type="㇑" transform="matrix(1,0,0,1,796,-4)" xmlns:kvg="http://kanjivg.tagaini.net"></path><path class="stroke_order_diagram--existing_path" d="M37.56,12.25c0.46,0.33,0.9,1.47,0.84,2.14c-0.65,6.86,0.17,8.42-1.07,17.63" id="Ske33dlzw2f" kvg:type="㇑a" transform="matrix(1,0,0,1,796,-4)" xmlns:kvg="http://kanjivg.tagaini.net"></path><path class="stroke_order_diagram--existing_path" d="M22.33,33.25c1.77,0,14.68-1.23,16.27-1.37" id="Ske33dlzw2g" kvg:type="㇐b" transform="matrix(1,0,0,1,796,-4)" xmlns:kvg="http://kanjivg.tagaini.net"></path><path class="stroke_order_diagram--existing_path" d="M14.26,43.6c0.29,0.47,0.58,0.86,0.7,1.45c0.99,4.66,1.83,7.53,2.5,15.91" id="Ske33dlzw2h" kvg:type="㇑" transform="matrix(1,0,0,1,796,-4)" xmlns:kvg="http://kanjivg.tagaini.net"></path><path class="stroke_order_diagram--existing_path" d="M15.48,44.71c9.52-1.21,24.92-3.03,28.52-3.69c1.32-0.24,2.43,1.45,2.2,2.85c-0.47,2.88-1.75,7.38-2.78,12.4" id="Ske33dlzw2i" kvg:type="㇕" transform="matrix(1,0,0,1,796,-4)" xmlns:kvg="http://kanjivg.tagaini.net"></path><path class="stroke_order_diagram--existing_path" d="M17.25,59.38c4.23-0.75,20.5-1.88,27.48-2.38" id="Ske33dlzw2j" kvg:type="㇐" transform="matrix(1,0,0,1,796,-4)" xmlns:kvg="http://kanjivg.tagaini.net"></path><path class="stroke_order_diagram--existing_path" d="M12.25,74.7c0.86,0.54,2.43,0.63,3.29,0.54C24.75,74.25,35,73,44.99,72.01c1.43-0.14,2.29,0.26,3.01,0.53" id="Ske33dlzw2k" kvg:type="㇐" transform="matrix(1,0,0,1,796,-4)" xmlns:kvg="http://kanjivg.tagaini.net"></path><path class="stroke_order_diagram--current_path" d="M29.96,35.25c0.36,1,0.54,2.23,0.54,3.25c0,8.5,0,53.75-0.12,60" id="kvg:0979c-s9" kvg:type="㇑" transform="matrix(1,0,0,1,796,-4)" xmlns:kvg="http://kanjivg.tagaini.net"></path><path class="stroke_order_diagram--current_path" d="M29.96,35.25c0.36,1,0.54,2.23,0.54,3.25c0,8.5,0,53.75-0.12,60" id="Ske33dlzw2m" kvg:type="㇑" transform="matrix(1,0,0,1,796,-4)" xmlns:kvg="http://kanjivg.tagaini.net"></path><circle class="stroke_order_diagram--path_start" cx="29.96" cy="35.25" r="4" transform="matrix(1,0,0,1,796,-4)"></circle><line class="stroke_order_diagram--guide_line" x1="950" x2="950" y1="1" y2="99"></line><line class="stroke_order_diagram--bounding_box" x1="999" x2="999" y1="1" y2="99"></line><path class="stroke_order_diagram--existing_path" d="M11.4,23.84c0.88,0.38,2.5,0.44,3.38,0.38c4.6-0.34,21.97-2.22,30.6-2.99c1.47-0.13,2.35,0.18,3.09,0.37" id="Ske33dlzw2p" kvg:type="㇐" transform="matrix(1,0,0,1,896,-4)" xmlns:kvg="http://kanjivg.tagaini.net"></path><path class="stroke_order_diagram--existing_path" d="M19.35,13.46c0.47,0.33,0.75,1.48,0.84,2.14c0.81,5.9,1.73,11.44,2.23,18.9" id="Ske33dlzw2q" kvg:type="㇑" transform="matrix(1,0,0,1,896,-4)" xmlns:kvg="http://kanjivg.tagaini.net"></path><path class="stroke_order_diagram--existing_path" d="M37.56,12.25c0.46,0.33,0.9,1.47,0.84,2.14c-0.65,6.86,0.17,8.42-1.07,17.63" id="Ske33dlzw2r" kvg:type="㇑a" transform="matrix(1,0,0,1,896,-4)" xmlns:kvg="http://kanjivg.tagaini.net"></path><path class="stroke_order_diagram--existing_path" d="M22.33,33.25c1.77,0,14.68-1.23,16.27-1.37" id="Ske33dlzw2s" kvg:type="㇐b" transform="matrix(1,0,0,1,896,-4)" xmlns:kvg="http://kanjivg.tagaini.net"></path><path class="stroke_order_diagram--existing_path" d="M14.26,43.6c0.29,0.47,0.58,0.86,0.7,1.45c0.99,4.66,1.83,7.53,2.5,15.91" id="Ske33dlzw2t" kvg:type="㇑" transform="matrix(1,0,0,1,896,-4)" xmlns:kvg="http://kanjivg.tagaini.net"></path><path class="stroke_order_diagram--existing_path" d="M15.48,44.71c9.52-1.21,24.92-3.03,28.52-3.69c1.32-0.24,2.43,1.45,2.2,2.85c-0.47,2.88-1.75,7.38-2.78,12.4" id="Ske33dlzw2u" kvg:type="㇕" transform="matrix(1,0,0,1,896,-4)" xmlns:kvg="http://kanjivg.tagaini.net"></path><path class="stroke_order_diagram--existing_path" d="M17.25,59.38c4.23-0.75,20.5-1.88,27.48-2.38" id="Ske33dlzw2v" kvg:type="㇐" transform="matrix(1,0,0,1,896,-4)" xmlns:kvg="http://kanjivg.tagaini.net"></path><path class="stroke_order_diagram--existing_path" d="M12.25,74.7c0.86,0.54,2.43,0.63,3.29,0.54C24.75,74.25,35,73,44.99,72.01c1.43-0.14,2.29,0.26,3.01,0.53" id="Ske33dlzw2w" kvg:type="㇐" transform="matrix(1,0,0,1,896,-4)" xmlns:kvg="http://kanjivg.tagaini.net"></path><path class="stroke_order_diagram--existing_path" d="M29.96,35.25c0.36,1,0.54,2.23,0.54,3.25c0,8.5,0,53.75-0.12,60" id="Ske33dlzw2x" kvg:type="㇑" transform="matrix(1,0,0,1,896,-4)" xmlns:kvg="http://kanjivg.tagaini.net"></path><path class="stroke_order_diagram--current_path" d="M71.82,11.58c0.55,0.53,0.93,1.44,0.98,3.19c0.22,8.41-0.14,34.15-0.14,37.01c0,5.66-4.19,0.02-5.03-0.7" id="kvg:0979c-s10" kvg:type="㇚" transform="matrix(1,0,0,1,896,-4)" xmlns:kvg="http://kanjivg.tagaini.net"></path><path class="stroke_order_diagram--current_path" d="M71.82,11.58c0.55,0.53,0.93,1.44,0.98,3.19c0.22,8.41-0.14,34.15-0.14,37.01c0,5.66-4.19,0.02-5.03-0.7" id="Ske33dlzw2z" kvg:type="㇚" transform="matrix(1,0,0,1,896,-4)" xmlns:kvg="http://kanjivg.tagaini.net"></path><circle class="stroke_order_diagram--path_start" cx="71.82" cy="11.58" r="4" transform="matrix(1,0,0,1,896,-4)"></circle><line class="stroke_order_diagram--guide_line" x1="1050" x2="1050" y1="1" y2="99"></line><line class="stroke_order_diagram--bounding_box" x1="1099" x2="1099" y1="1" y2="99"></line><path class="stroke_order_diagram--existing_path" d="M11.4,23.84c0.88,0.38,2.5,0.44,3.38,0.38c4.6-0.34,21.97-2.22,30.6-2.99c1.47-0.13,2.35,0.18,3.09,0.37" id="Ske33dlzw32" kvg:type="㇐" transform="matrix(1,0,0,1,996,-4)" xmlns:kvg="http://kanjivg.tagaini.net"></path><path class="stroke_order_diagram--existing_path" d="M19.35,13.46c0.47,0.33,0.75,1.48,0.84,2.14c0.81,5.9,1.73,11.44,2.23,18.9" id="Ske33dlzw33" kvg:type="㇑" transform="matrix(1,0,0,1,996,-4)" xmlns:kvg="http://kanjivg.tagaini.net"></path><path class="stroke_order_diagram--existing_path" d="M37.56,12.25c0.46,0.33,0.9,1.47,0.84,2.14c-0.65,6.86,0.17,8.42-1.07,17.63" id="Ske33dlzw34" kvg:type="㇑a" transform="matrix(1,0,0,1,996,-4)" xmlns:kvg="http://kanjivg.tagaini.net"></path><path class="stroke_order_diagram--existing_path" d="M22.33,33.25c1.77,0,14.68-1.23,16.27-1.37" id="Ske33dlzw35" kvg:type="㇐b" transform="matrix(1,0,0,1,996,-4)" xmlns:kvg="http://kanjivg.tagaini.net"></path><path class="stroke_order_diagram--existing_path" d="M14.26,43.6c0.29,0.47,0.58,0.86,0.7,1.45c0.99,4.66,1.83,7.53,2.5,15.91" id="Ske33dlzw36" kvg:type="㇑" transform="matrix(1,0,0,1,996,-4)" xmlns:kvg="http://kanjivg.tagaini.net"></path><path class="stroke_order_diagram--existing_path" d="M15.48,44.71c9.52-1.21,24.92-3.03,28.52-3.69c1.32-0.24,2.43,1.45,2.2,2.85c-0.47,2.88-1.75,7.38-2.78,12.4" id="Ske33dlzw37" kvg:type="㇕" transform="matrix(1,0,0,1,996,-4)" xmlns:kvg="http://kanjivg.tagaini.net"></path><path class="stroke_order_diagram--existing_path" d="M17.25,59.38c4.23-0.75,20.5-1.88,27.48-2.38" id="Ske33dlzw38" kvg:type="㇐" transform="matrix(1,0,0,1,996,-4)" xmlns:kvg="http://kanjivg.tagaini.net"></path><path class="stroke_order_diagram--existing_path" d="M12.25,74.7c0.86,0.54,2.43,0.63,3.29,0.54C24.75,74.25,35,73,44.99,72.01c1.43-0.14,2.29,0.26,3.01,0.53" id="Ske33dlzw39" kvg:type="㇐" transform="matrix(1,0,0,1,996,-4)" xmlns:kvg="http://kanjivg.tagaini.net"></path><path class="stroke_order_diagram--existing_path" d="M29.96,35.25c0.36,1,0.54,2.23,0.54,3.25c0,8.5,0,53.75-0.12,60" id="Ske33dlzw3a" kvg:type="㇑" transform="matrix(1,0,0,1,996,-4)" xmlns:kvg="http://kanjivg.tagaini.net"></path><path class="stroke_order_diagram--existing_path" d="M71.82,11.58c0.55,0.53,0.93,1.44,0.98,3.19c0.22,8.41-0.14,34.15-0.14,37.01c0,5.66-4.19,0.02-5.03-0.7" id="Ske33dlzw3b" kvg:type="㇚" transform="matrix(1,0,0,1,996,-4)" xmlns:kvg="http://kanjivg.tagaini.net"></path><path class="stroke_order_diagram--current_path" d="M50.25,29.73c0.99,0.14,2.1,0.36,3.13,0.28c3.62-0.26,9.11-1.92,10.76-2.48c1.65-0.57,3.12,0.5,2.47,1.71c-3.36,6.27-7.36,12.02-12.87,16.98" id="kvg:0979c-s11" kvg:type="㇇" transform="matrix(1,0,0,1,996,-4)" xmlns:kvg="http://kanjivg.tagaini.net"></path><path class="stroke_order_diagram--current_path" d="M50.25,29.73c0.99,0.14,2.1,0.36,3.13,0.28c3.62-0.26,9.11-1.92,10.76-2.48c1.65-0.57,3.12,0.5,2.47,1.71c-3.36,6.27-7.36,12.02-12.87,16.98" id="Ske33dlzw3d" kvg:type="㇇" transform="matrix(1,0,0,1,996,-4)" xmlns:kvg="http://kanjivg.tagaini.net"></path><circle class="stroke_order_diagram--path_start" cx="50.25" cy="29.73" r="4" transform="matrix(1,0,0,1,996,-4)"></circle><line class="stroke_order_diagram--guide_line" x1="1150" x2="1150" y1="1" y2="99"></line><line class="stroke_order_diagram--bounding_box" x1="1199" x2="1199" y1="1" y2="99"></line><path class="stroke_order_diagram--existing_path" d="M11.4,23.84c0.88,0.38,2.5,0.44,3.38,0.38c4.6-0.34,21.97-2.22,30.6-2.99c1.47-0.13,2.35,0.18,3.09,0.37" id="Ske33dlzw3g" kvg:type="㇐" transform="matrix(1,0,0,1,1096,-4)" xmlns:kvg="http://kanjivg.tagaini.net"></path><path class="stroke_order_diagram--existing_path" d="M19.35,13.46c0.47,0.33,0.75,1.48,0.84,2.14c0.81,5.9,1.73,11.44,2.23,18.9" id="Ske33dlzw3h" kvg:type="㇑" transform="matrix(1,0,0,1,1096,-4)" xmlns:kvg="http://kanjivg.tagaini.net"></path><path class="stroke_order_diagram--existing_path" d="M37.56,12.25c0.46,0.33,0.9,1.47,0.84,2.14c-0.65,6.86,0.17,8.42-1.07,17.63" id="Ske33dlzw3i" kvg:type="㇑a" transform="matrix(1,0,0,1,1096,-4)" xmlns:kvg="http://kanjivg.tagaini.net"></path><path class="stroke_order_diagram--existing_path" d="M22.33,33.25c1.77,0,14.68-1.23,16.27-1.37" id="Ske33dlzw3j" kvg:type="㇐b" transform="matrix(1,0,0,1,1096,-4)" xmlns:kvg="http://kanjivg.tagaini.net"></path><path class="stroke_order_diagram--existing_path" d="M14.26,43.6c0.29,0.47,0.58,0.86,0.7,1.45c0.99,4.66,1.83,7.53,2.5,15.91" id="Ske33dlzw3k" kvg:type="㇑" transform="matrix(1,0,0,1,1096,-4)" xmlns:kvg="http://kanjivg.tagaini.net"></path><path class="stroke_order_diagram--existing_path" d="M15.48,44.71c9.52-1.21,24.92-3.03,28.52-3.69c1.32-0.24,2.43,1.45,2.2,2.85c-0.47,2.88-1.75,7.38-2.78,12.4" id="Ske33dlzw3l" kvg:type="㇕" transform="matrix(1,0,0,1,1096,-4)" xmlns:kvg="http://kanjivg.tagaini.net"></path><path class="stroke_order_diagram--existing_path" d="M17.25,59.38c4.23-0.75,20.5-1.88,27.48-2.38" id="Ske33dlzw3m" kvg:type="㇐" transform="matrix(1,0,0,1,1096,-4)" xmlns:kvg="http://kanjivg.tagaini.net"></path><path class="stroke_order_diagram--existing_path" d="M12.25,74.7c0.86,0.54,2.43,0.63,3.29,0.54C24.75,74.25,35,73,44.99,72.01c1.43-0.14,2.29,0.26,3.01,0.53" id="Ske33dlzw3n" kvg:type="㇐" transform="matrix(1,0,0,1,1096,-4)" xmlns:kvg="http://kanjivg.tagaini.net"></path><path class="stroke_order_diagram--existing_path" d="M29.96,35.25c0.36,1,0.54,2.23,0.54,3.25c0,8.5,0,53.75-0.12,60" id="Ske33dlzw3o" kvg:type="㇑" transform="matrix(1,0,0,1,1096,-4)" xmlns:kvg="http://kanjivg.tagaini.net"></path><path class="stroke_order_diagram--existing_path" d="M71.82,11.58c0.55,0.53,0.93,1.44,0.98,3.19c0.22,8.41-0.14,34.15-0.14,37.01c0,5.66-4.19,0.02-5.03-0.7" id="Ske33dlzw3p" kvg:type="㇚" transform="matrix(1,0,0,1,1096,-4)" xmlns:kvg="http://kanjivg.tagaini.net"></path><path class="stroke_order_diagram--existing_path" d="M50.25,29.73c0.99,0.14,2.1,0.36,3.13,0.28c3.62-0.26,9.11-1.92,10.76-2.48c1.65-0.57,3.12,0.5,2.47,1.71c-3.36,6.27-7.36,12.02-12.87,16.98" id="Ske33dlzw3q" kvg:type="㇇" transform="matrix(1,0,0,1,1096,-4)" xmlns:kvg="http://kanjivg.tagaini.net"></path><path class="stroke_order_diagram--current_path" d="M89.94,17.86c0.06,0.29-0.11,1.12-0.32,1.5c-1.99,3.55-6.22,7.92-9.82,9.77" id="kvg:0979c-s12" kvg:type="㇒" transform="matrix(1,0,0,1,1096,-4)" xmlns:kvg="http://kanjivg.tagaini.net"></path><path class="stroke_order_diagram--current_path" d="M89.94,17.86c0.06,0.29-0.11,1.12-0.32,1.5c-1.99,3.55-6.22,7.92-9.82,9.77" id="Ske33dlzw3s" kvg:type="㇒" transform="matrix(1,0,0,1,1096,-4)" xmlns:kvg="http://kanjivg.tagaini.net"></path><circle class="stroke_order_diagram--path_start" cx="89.94" cy="17.86" r="4" transform="matrix(1,0,0,1,1096,-4)"></circle><line class="stroke_order_diagram--guide_line" x1="1250" x2="1250" y1="1" y2="99"></line><line class="stroke_order_diagram--bounding_box" x1="1299" x2="1299" y1="1" y2="99"></line><path class="stroke_order_diagram--existing_path" d="M11.4,23.84c0.88,0.38,2.5,0.44,3.38,0.38c4.6-0.34,21.97-2.22,30.6-2.99c1.47-0.13,2.35,0.18,3.09,0.37" id="Ske33dlzw3v" kvg:type="㇐" transform="matrix(1,0,0,1,1196,-4)" xmlns:kvg="http://kanjivg.tagaini.net"></path><path class="stroke_order_diagram--existing_path" d="M19.35,13.46c0.47,0.33,0.75,1.48,0.84,2.14c0.81,5.9,1.73,11.44,2.23,18.9" id="Ske33dlzw3w" kvg:type="㇑" transform="matrix(1,0,0,1,1196,-4)" xmlns:kvg="http://kanjivg.tagaini.net"></path><path class="stroke_order_diagram--existing_path" d="M37.56,12.25c0.46,0.33,0.9,1.47,0.84,2.14c-0.65,6.86,0.17,8.42-1.07,17.63" id="Ske33dlzw3x" kvg:type="㇑a" transform="matrix(1,0,0,1,1196,-4)" xmlns:kvg="http://kanjivg.tagaini.net"></path><path class="stroke_order_diagram--existing_path" d="M22.33,33.25c1.77,0,14.68-1.23,16.27-1.37" id="Ske33dlzw3y" kvg:type="㇐b" transform="matrix(1,0,0,1,1196,-4)" xmlns:kvg="http://kanjivg.tagaini.net"></path><path class="stroke_order_diagram--existing_path" d="M14.26,43.6c0.29,0.47,0.58,0.86,0.7,1.45c0.99,4.66,1.83,7.53,2.5,15.91" id="Ske33dlzw3z" kvg:type="㇑" transform="matrix(1,0,0,1,1196,-4)" xmlns:kvg="http://kanjivg.tagaini.net"></path><path class="stroke_order_diagram--existing_path" d="M15.48,44.71c9.52-1.21,24.92-3.03,28.52-3.69c1.32-0.24,2.43,1.45,2.2,2.85c-0.47,2.88-1.75,7.38-2.78,12.4" id="Ske33dlzw40" kvg:type="㇕" transform="matrix(1,0,0,1,1196,-4)" xmlns:kvg="http://kanjivg.tagaini.net"></path><path class="stroke_order_diagram--existing_path" d="M17.25,59.38c4.23-0.75,20.5-1.88,27.48-2.38" id="Ske33dlzw41" kvg:type="㇐" transform="matrix(1,0,0,1,1196,-4)" xmlns:kvg="http://kanjivg.tagaini.net"></path><path class="stroke_order_diagram--existing_path" d="M12.25,74.7c0.86,0.54,2.43,0.63,3.29,0.54C24.75,74.25,35,73,44.99,72.01c1.43-0.14,2.29,0.26,3.01,0.53" id="Ske33dlzw42" kvg:type="㇐" transform="matrix(1,0,0,1,1196,-4)" xmlns:kvg="http://kanjivg.tagaini.net"></path><path class="stroke_order_diagram--existing_path" d="M29.96,35.25c0.36,1,0.54,2.23,0.54,3.25c0,8.5,0,53.75-0.12,60" id="Ske33dlzw43" kvg:type="㇑" transform="matrix(1,0,0,1,1196,-4)" xmlns:kvg="http://kanjivg.tagaini.net"></path><path class="stroke_order_diagram--existing_path" d="M71.82,11.58c0.55,0.53,0.93,1.44,0.98,3.19c0.22,8.41-0.14,34.15-0.14,37.01c0,5.66-4.19,0.02-5.03-0.7" id="Ske33dlzw44" kvg:type="㇚" transform="matrix(1,0,0,1,1196,-4)" xmlns:kvg="http://kanjivg.tagaini.net"></path><path class="stroke_order_diagram--existing_path" d="M50.25,29.73c0.99,0.14,2.1,0.36,3.13,0.28c3.62-0.26,9.11-1.92,10.76-2.48c1.65-0.57,3.12,0.5,2.47,1.71c-3.36,6.27-7.36,12.02-12.87,16.98" id="Ske33dlzw45" kvg:type="㇇" transform="matrix(1,0,0,1,1196,-4)" xmlns:kvg="http://kanjivg.tagaini.net"></path><path class="stroke_order_diagram--existing_path" d="M89.94,17.86c0.06,0.29-0.11,1.12-0.32,1.5c-1.99,3.55-6.22,7.92-9.82,9.77" id="Ske33dlzw46" kvg:type="㇒" transform="matrix(1,0,0,1,1196,-4)" xmlns:kvg="http://kanjivg.tagaini.net"></path><path class="stroke_order_diagram--current_path" d="M74.16,28.12c4.66,5.92,12.48,13.92,17.69,17.33c1.1,0.72,2.14,1.08,3.15,1.33" id="kvg:0979c-s13" kvg:type="㇏" transform="matrix(1,0,0,1,1196,-4)" xmlns:kvg="http://kanjivg.tagaini.net"></path><path class="stroke_order_diagram--current_path" d="M74.16,28.12c4.66,5.92,12.48,13.92,17.69,17.33c1.1,0.72,2.14,1.08,3.15,1.33" id="Ske33dlzw48" kvg:type="㇏" transform="matrix(1,0,0,1,1196,-4)" xmlns:kvg="http://kanjivg.tagaini.net"></path><circle class="stroke_order_diagram--path_start" cx="74.16" cy="28.12" r="4" transform="matrix(1,0,0,1,1196,-4)"></circle><line class="stroke_order_diagram--guide_line" x1="1350" x2="1350" y1="1" y2="99"></line><line class="stroke_order_diagram--bounding_box" x1="1399" x2="1399" y1="1" y2="99"></line><path class="stroke_order_diagram--existing_path" d="M11.4,23.84c0.88,0.38,2.5,0.44,3.38,0.38c4.6-0.34,21.97-2.22,30.6-2.99c1.47-0.13,2.35,0.18,3.09,0.37" id="Ske33dlzw4b" kvg:type="㇐" transform="matrix(1,0,0,1,1296,-4)" xmlns:kvg="http://kanjivg.tagaini.net"></path><path class="stroke_order_diagram--existing_path" d="M19.35,13.46c0.47,0.33,0.75,1.48,0.84,2.14c0.81,5.9,1.73,11.44,2.23,18.9" id="Ske33dlzw4c" kvg:type="㇑" transform="matrix(1,0,0,1,1296,-4)" xmlns:kvg="http://kanjivg.tagaini.net"></path><path class="stroke_order_diagram--existing_path" d="M37.56,12.25c0.46,0.33,0.9,1.47,0.84,2.14c-0.65,6.86,0.17,8.42-1.07,17.63" id="Ske33dlzw4d" kvg:type="㇑a" transform="matrix(1,0,0,1,1296,-4)" xmlns:kvg="http://kanjivg.tagaini.net"></path><path class="stroke_order_diagram--existing_path" d="M22.33,33.25c1.77,0,14.68-1.23,16.27-1.37" id="Ske33dlzw4e" kvg:type="㇐b" transform="matrix(1,0,0,1,1296,-4)" xmlns:kvg="http://kanjivg.tagaini.net"></path><path class="stroke_order_diagram--existing_path" d="M14.26,43.6c0.29,0.47,0.58,0.86,0.7,1.45c0.99,4.66,1.83,7.53,2.5,15.91" id="Ske33dlzw4f" kvg:type="㇑" transform="matrix(1,0,0,1,1296,-4)" xmlns:kvg="http://kanjivg.tagaini.net"></path><path class="stroke_order_diagram--existing_path" d="M15.48,44.71c9.52-1.21,24.92-3.03,28.52-3.69c1.32-0.24,2.43,1.45,2.2,2.85c-0.47,2.88-1.75,7.38-2.78,12.4" id="Ske33dlzw4g" kvg:type="㇕" transform="matrix(1,0,0,1,1296,-4)" xmlns:kvg="http://kanjivg.tagaini.net"></path><path class="stroke_order_diagram--existing_path" d="M17.25,59.38c4.23-0.75,20.5-1.88,27.48-2.38" id="Ske33dlzw4h" kvg:type="㇐" transform="matrix(1,0,0,1,1296,-4)" xmlns:kvg="http://kanjivg.tagaini.net"></path><path class="stroke_order_diagram--existing_path" d="M12.25,74.7c0.86,0.54,2.43,0.63,3.29,0.54C24.75,74.25,35,73,44.99,72.01c1.43-0.14,2.29,0.26,3.01,0.53" id="Ske33dlzw4i" kvg:type="㇐" transform="matrix(1,0,0,1,1296,-4)" xmlns:kvg="http://kanjivg.tagaini.net"></path><path class="stroke_order_diagram--existing_path" d="M29.96,35.25c0.36,1,0.54,2.23,0.54,3.25c0,8.5,0,53.75-0.12,60" id="Ske33dlzw4j" kvg:type="㇑" transform="matrix(1,0,0,1,1296,-4)" xmlns:kvg="http://kanjivg.tagaini.net"></path><path class="stroke_order_diagram--existing_path" d="M71.82,11.58c0.55,0.53,0.93,1.44,0.98,3.19c0.22,8.41-0.14,34.15-0.14,37.01c0,5.66-4.19,0.02-5.03-0.7" id="Ske33dlzw4k" kvg:type="㇚" transform="matrix(1,0,0,1,1296,-4)" xmlns:kvg="http://kanjivg.tagaini.net"></path><path class="stroke_order_diagram--existing_path" d="M50.25,29.73c0.99,0.14,2.1,0.36,3.13,0.28c3.62-0.26,9.11-1.92,10.76-2.48c1.65-0.57,3.12,0.5,2.47,1.71c-3.36,6.27-7.36,12.02-12.87,16.98" id="Ske33dlzw4l" kvg:type="㇇" transform="matrix(1,0,0,1,1296,-4)" xmlns:kvg="http://kanjivg.tagaini.net"></path><path class="stroke_order_diagram--existing_path" d="M89.94,17.86c0.06,0.29-0.11,1.12-0.32,1.5c-1.99,3.55-6.22,7.92-9.82,9.77" id="Ske33dlzw4m" kvg:type="㇒" transform="matrix(1,0,0,1,1296,-4)" xmlns:kvg="http://kanjivg.tagaini.net"></path><path class="stroke_order_diagram--existing_path" d="M74.16,28.12c4.66,5.92,12.48,13.92,17.69,17.33c1.1,0.72,2.14,1.08,3.15,1.33" id="Ske33dlzw4n" kvg:type="㇏" transform="matrix(1,0,0,1,1296,-4)" xmlns:kvg="http://kanjivg.tagaini.net"></path><path class="stroke_order_diagram--current_path" d="M55.49,63.48c0.33,0.5,0.86,2.32,0.95,2.98c0.95,7.04,1.68,20.31,2.62,30" id="kvg:0979c-s14" kvg:type="㇑" transform="matrix(1,0,0,1,1296,-4)" xmlns:kvg="http://kanjivg.tagaini.net"></path><path class="stroke_order_diagram--current_path" d="M55.49,63.48c0.33,0.5,0.86,2.32,0.95,2.98c0.95,7.04,1.68,20.31,2.62,30" id="Ske33dlzw4p" kvg:type="㇑" transform="matrix(1,0,0,1,1296,-4)" xmlns:kvg="http://kanjivg.tagaini.net"></path><circle class="stroke_order_diagram--path_start" cx="55.49" cy="63.48" r="4" transform="matrix(1,0,0,1,1296,-4)"></circle><line class="stroke_order_diagram--guide_line" x1="1450" x2="1450" y1="1" y2="99"></line><line class="stroke_order_diagram--bounding_box" x1="1499" x2="1499" y1="1" y2="99"></line><path class="stroke_order_diagram--existing_path" d="M11.4,23.84c0.88,0.38,2.5,0.44,3.38,0.38c4.6-0.34,21.97-2.22,30.6-2.99c1.47-0.13,2.35,0.18,3.09,0.37" id="Ske33dlzw4s" kvg:type="㇐" transform="matrix(1,0,0,1,1396,-4)" xmlns:kvg="http://kanjivg.tagaini.net"></path><path class="stroke_order_diagram--existing_path" d="M19.35,13.46c0.47,0.33,0.75,1.48,0.84,2.14c0.81,5.9,1.73,11.44,2.23,18.9" id="Ske33dlzw4t" kvg:type="㇑" transform="matrix(1,0,0,1,1396,-4)" xmlns:kvg="http://kanjivg.tagaini.net"></path><path class="stroke_order_diagram--existing_path" d="M37.56,12.25c0.46,0.33,0.9,1.47,0.84,2.14c-0.65,6.86,0.17,8.42-1.07,17.63" id="Ske33dlzw4u" kvg:type="㇑a" transform="matrix(1,0,0,1,1396,-4)" xmlns:kvg="http://kanjivg.tagaini.net"></path><path class="stroke_order_diagram--existing_path" d="M22.33,33.25c1.77,0,14.68-1.23,16.27-1.37" id="Ske33dlzw4v" kvg:type="㇐b" transform="matrix(1,0,0,1,1396,-4)" xmlns:kvg="http://kanjivg.tagaini.net"></path><path class="stroke_order_diagram--existing_path" d="M14.26,43.6c0.29,0.47,0.58,0.86,0.7,1.45c0.99,4.66,1.83,7.53,2.5,15.91" id="Ske33dlzw4w" kvg:type="㇑" transform="matrix(1,0,0,1,1396,-4)" xmlns:kvg="http://kanjivg.tagaini.net"></path><path class="stroke_order_diagram--existing_path" d="M15.48,44.71c9.52-1.21,24.92-3.03,28.52-3.69c1.32-0.24,2.43,1.45,2.2,2.85c-0.47,2.88-1.75,7.38-2.78,12.4" id="Ske33dlzw4x" kvg:type="㇕" transform="matrix(1,0,0,1,1396,-4)" xmlns:kvg="http://kanjivg.tagaini.net"></path><path class="stroke_order_diagram--existing_path" d="M17.25,59.38c4.23-0.75,20.5-1.88,27.48-2.38" id="Ske33dlzw4y" kvg:type="㇐" transform="matrix(1,0,0,1,1396,-4)" xmlns:kvg="http://kanjivg.tagaini.net"></path><path class="stroke_order_diagram--existing_path" d="M12.25,74.7c0.86,0.54,2.43,0.63,3.29,0.54C24.75,74.25,35,73,44.99,72.01c1.43-0.14,2.29,0.26,3.01,0.53" id="Ske33dlzw4z" kvg:type="㇐" transform="matrix(1,0,0,1,1396,-4)" xmlns:kvg="http://kanjivg.tagaini.net"></path><path class="stroke_order_diagram--existing_path" d="M29.96,35.25c0.36,1,0.54,2.23,0.54,3.25c0,8.5,0,53.75-0.12,60" id="Ske33dlzw50" kvg:type="㇑" transform="matrix(1,0,0,1,1396,-4)" xmlns:kvg="http://kanjivg.tagaini.net"></path><path class="stroke_order_diagram--existing_path" d="M71.82,11.58c0.55,0.53,0.93,1.44,0.98,3.19c0.22,8.41-0.14,34.15-0.14,37.01c0,5.66-4.19,0.02-5.03-0.7" id="Ske33dlzw51" kvg:type="㇚" transform="matrix(1,0,0,1,1396,-4)" xmlns:kvg="http://kanjivg.tagaini.net"></path><path class="stroke_order_diagram--existing_path" d="M50.25,29.73c0.99,0.14,2.1,0.36,3.13,0.28c3.62-0.26,9.11-1.92,10.76-2.48c1.65-0.57,3.12,0.5,2.47,1.71c-3.36,6.27-7.36,12.02-12.87,16.98" id="Ske33dlzw52" kvg:type="㇇" transform="matrix(1,0,0,1,1396,-4)" xmlns:kvg="http://kanjivg.tagaini.net"></path><path class="stroke_order_diagram--existing_path" d="M89.94,17.86c0.06,0.29-0.11,1.12-0.32,1.5c-1.99,3.55-6.22,7.92-9.82,9.77" id="Ske33dlzw53" kvg:type="㇒" transform="matrix(1,0,0,1,1396,-4)" xmlns:kvg="http://kanjivg.tagaini.net"></path><path class="stroke_order_diagram--existing_path" d="M74.16,28.12c4.66,5.92,12.48,13.92,17.69,17.33c1.1,0.72,2.14,1.08,3.15,1.33" id="Ske33dlzw54" kvg:type="㇏" transform="matrix(1,0,0,1,1396,-4)" xmlns:kvg="http://kanjivg.tagaini.net"></path><path class="stroke_order_diagram--existing_path" d="M55.49,63.48c0.33,0.5,0.86,2.32,0.95,2.98c0.95,7.04,1.68,20.31,2.62,30" id="Ske33dlzw55" kvg:type="㇑" transform="matrix(1,0,0,1,1396,-4)" xmlns:kvg="http://kanjivg.tagaini.net"></path><path class="stroke_order_diagram--current_path" d="M57.06,64.67c12.69-1.92,21.69-2.67,30.49-3.12c3.24-0.17,4.36,2.02,4.2,3.45c-0.61,5.24-2.1,20.5-3.57,29.25" id="kvg:0979c-s15" kvg:type="㇕a" transform="matrix(1,0,0,1,1396,-4)" xmlns:kvg="http://kanjivg.tagaini.net"></path><path class="stroke_order_diagram--current_path" d="M57.06,64.67c12.69-1.92,21.69-2.67,30.49-3.12c3.24-0.17,4.36,2.02,4.2,3.45c-0.61,5.24-2.1,20.5-3.57,29.25" id="Ske33dlzw57" kvg:type="㇕a" transform="matrix(1,0,0,1,1396,-4)" xmlns:kvg="http://kanjivg.tagaini.net"></path><circle class="stroke_order_diagram--path_start" cx="57.06" cy="64.67" r="4" transform="matrix(1,0,0,1,1396,-4)"></circle><line class="stroke_order_diagram--guide_line" x1="1550" x2="1550" y1="1" y2="99"></line><line class="stroke_order_diagram--bounding_box" x1="1599" x2="1599" y1="1" y2="99"></line><path class="stroke_order_diagram--existing_path" d="M11.4,23.84c0.88,0.38,2.5,0.44,3.38,0.38c4.6-0.34,21.97-2.22,30.6-2.99c1.47-0.13,2.35,0.18,3.09,0.37" id="Ske33dlzw5a" kvg:type="㇐" transform="matrix(1,0,0,1,1496,-4)" xmlns:kvg="http://kanjivg.tagaini.net"></path><path class="stroke_order_diagram--existing_path" d="M19.35,13.46c0.47,0.33,0.75,1.48,0.84,2.14c0.81,5.9,1.73,11.44,2.23,18.9" id="Ske33dlzw5b" kvg:type="㇑" transform="matrix(1,0,0,1,1496,-4)" xmlns:kvg="http://kanjivg.tagaini.net"></path><path class="stroke_order_diagram--existing_path" d="M37.56,12.25c0.46,0.33,0.9,1.47,0.84,2.14c-0.65,6.86,0.17,8.42-1.07,17.63" id="Ske33dlzw5c" kvg:type="㇑a" transform="matrix(1,0,0,1,1496,-4)" xmlns:kvg="http://kanjivg.tagaini.net"></path><path class="stroke_order_diagram--existing_path" d="M22.33,33.25c1.77,0,14.68-1.23,16.27-1.37" id="Ske33dlzw5d" kvg:type="㇐b" transform="matrix(1,0,0,1,1496,-4)" xmlns:kvg="http://kanjivg.tagaini.net"></path><path class="stroke_order_diagram--existing_path" d="M14.26,43.6c0.29,0.47,0.58,0.86,0.7,1.45c0.99,4.66,1.83,7.53,2.5,15.91" id="Ske33dlzw5e" kvg:type="㇑" transform="matrix(1,0,0,1,1496,-4)" xmlns:kvg="http://kanjivg.tagaini.net"></path><path class="stroke_order_diagram--existing_path" d="M15.48,44.71c9.52-1.21,24.92-3.03,28.52-3.69c1.32-0.24,2.43,1.45,2.2,2.85c-0.47,2.88-1.75,7.38-2.78,12.4" id="Ske33dlzw5f" kvg:type="㇕" transform="matrix(1,0,0,1,1496,-4)" xmlns:kvg="http://kanjivg.tagaini.net"></path><path class="stroke_order_diagram--existing_path" d="M17.25,59.38c4.23-0.75,20.5-1.88,27.48-2.38" id="Ske33dlzw5g" kvg:type="㇐" transform="matrix(1,0,0,1,1496,-4)" xmlns:kvg="http://kanjivg.tagaini.net"></path><path class="stroke_order_diagram--existing_path" d="M12.25,74.7c0.86,0.54,2.43,0.63,3.29,0.54C24.75,74.25,35,73,44.99,72.01c1.43-0.14,2.29,0.26,3.01,0.53" id="Ske33dlzw5h" kvg:type="㇐" transform="matrix(1,0,0,1,1496,-4)" xmlns:kvg="http://kanjivg.tagaini.net"></path><path class="stroke_order_diagram--existing_path" d="M29.96,35.25c0.36,1,0.54,2.23,0.54,3.25c0,8.5,0,53.75-0.12,60" id="Ske33dlzw5i" kvg:type="㇑" transform="matrix(1,0,0,1,1496,-4)" xmlns:kvg="http://kanjivg.tagaini.net"></path><path class="stroke_order_diagram--existing_path" d="M71.82,11.58c0.55,0.53,0.93,1.44,0.98,3.19c0.22,8.41-0.14,34.15-0.14,37.01c0,5.66-4.19,0.02-5.03-0.7" id="Ske33dlzw5j" kvg:type="㇚" transform="matrix(1,0,0,1,1496,-4)" xmlns:kvg="http://kanjivg.tagaini.net"></path><path class="stroke_order_diagram--existing_path" d="M50.25,29.73c0.99,0.14,2.1,0.36,3.13,0.28c3.62-0.26,9.11-1.92,10.76-2.48c1.65-0.57,3.12,0.5,2.47,1.71c-3.36,6.27-7.36,12.02-12.87,16.98" id="Ske33dlzw5k" kvg:type="㇇" transform="matrix(1,0,0,1,1496,-4)" xmlns:kvg="http://kanjivg.tagaini.net"></path><path class="stroke_order_diagram--existing_path" d="M89.94,17.86c0.06,0.29-0.11,1.12-0.32,1.5c-1.99,3.55-6.22,7.92-9.82,9.77" id="Ske33dlzw5l" kvg:type="㇒" transform="matrix(1,0,0,1,1496,-4)" xmlns:kvg="http://kanjivg.tagaini.net"></path><path class="stroke_order_diagram--existing_path" d="M74.16,28.12c4.66,5.92,12.48,13.92,17.69,17.33c1.1,0.72,2.14,1.08,3.15,1.33" id="Ske33dlzw5m" kvg:type="㇏" transform="matrix(1,0,0,1,1496,-4)" xmlns:kvg="http://kanjivg.tagaini.net"></path><path class="stroke_order_diagram--existing_path" d="M55.49,63.48c0.33,0.5,0.86,2.32,0.95,2.98c0.95,7.04,1.68,20.31,2.62,30" id="Ske33dlzw5n" kvg:type="㇑" transform="matrix(1,0,0,1,1496,-4)" xmlns:kvg="http://kanjivg.tagaini.net"></path><path class="stroke_order_diagram--existing_path" d="M57.06,64.67c12.69-1.92,21.69-2.67,30.49-3.12c3.24-0.17,4.36,2.02,4.2,3.45c-0.61,5.24-2.1,20.5-3.57,29.25" id="Ske33dlzw5o" kvg:type="㇕a" transform="matrix(1,0,0,1,1496,-4)" xmlns:kvg="http://kanjivg.tagaini.net"></path><path class="stroke_order_diagram--current_path" d="M57.91,78.11c3.82-0.51,29.63-2.26,32.78-2.47" id="kvg:0979c-s16" kvg:type="㇐a" transform="matrix(1,0,0,1,1496,-4)" xmlns:kvg="http://kanjivg.tagaini.net"></path><path class="stroke_order_diagram--current_path" d="M57.91,78.11c3.82-0.51,29.63-2.26,32.78-2.47" id="Ske33dlzw5q" kvg:type="㇐a" transform="matrix(1,0,0,1,1496,-4)" xmlns:kvg="http://kanjivg.tagaini.net"></path><circle class="stroke_order_diagram--path_start" cx="57.91" cy="78.11" r="4" transform="matrix(1,0,0,1,1496,-4)"></circle><line class="stroke_order_diagram--guide_line" x1="1650" x2="1650" y1="1" y2="99"></line><line class="stroke_order_diagram--bounding_box" x1="1699" x2="1699" y1="1" y2="99"></line><path class="stroke_order_diagram--existing_path" d="M11.4,23.84c0.88,0.38,2.5,0.44,3.38,0.38c4.6-0.34,21.97-2.22,30.6-2.99c1.47-0.13,2.35,0.18,3.09,0.37" id="Ske33dlzw5t" kvg:type="㇐" transform="matrix(1,0,0,1,1596,-4)" xmlns:kvg="http://kanjivg.tagaini.net"></path><path class="stroke_order_diagram--existing_path" d="M19.35,13.46c0.47,0.33,0.75,1.48,0.84,2.14c0.81,5.9,1.73,11.44,2.23,18.9" id="Ske33dlzw5u" kvg:type="㇑" transform="matrix(1,0,0,1,1596,-4)" xmlns:kvg="http://kanjivg.tagaini.net"></path><path class="stroke_order_diagram--existing_path" d="M37.56,12.25c0.46,0.33,0.9,1.47,0.84,2.14c-0.65,6.86,0.17,8.42-1.07,17.63" id="Ske33dlzw5v" kvg:type="㇑a" transform="matrix(1,0,0,1,1596,-4)" xmlns:kvg="http://kanjivg.tagaini.net"></path><path class="stroke_order_diagram--existing_path" d="M22.33,33.25c1.77,0,14.68-1.23,16.27-1.37" id="Ske33dlzw5w" kvg:type="㇐b" transform="matrix(1,0,0,1,1596,-4)" xmlns:kvg="http://kanjivg.tagaini.net"></path><path class="stroke_order_diagram--existing_path" d="M14.26,43.6c0.29,0.47,0.58,0.86,0.7,1.45c0.99,4.66,1.83,7.53,2.5,15.91" id="Ske33dlzw5x" kvg:type="㇑" transform="matrix(1,0,0,1,1596,-4)" xmlns:kvg="http://kanjivg.tagaini.net"></path><path class="stroke_order_diagram--existing_path" d="M15.48,44.71c9.52-1.21,24.92-3.03,28.52-3.69c1.32-0.24,2.43,1.45,2.2,2.85c-0.47,2.88-1.75,7.38-2.78,12.4" id="Ske33dlzw5y" kvg:type="㇕" transform="matrix(1,0,0,1,1596,-4)" xmlns:kvg="http://kanjivg.tagaini.net"></path><path class="stroke_order_diagram--existing_path" d="M17.25,59.38c4.23-0.75,20.5-1.88,27.48-2.38" id="Ske33dlzw5z" kvg:type="㇐" transform="matrix(1,0,0,1,1596,-4)" xmlns:kvg="http://kanjivg.tagaini.net"></path><path class="stroke_order_diagram--existing_path" d="M12.25,74.7c0.86,0.54,2.43,0.63,3.29,0.54C24.75,74.25,35,73,44.99,72.01c1.43-0.14,2.29,0.26,3.01,0.53" id="Ske33dlzw60" kvg:type="㇐" transform="matrix(1,0,0,1,1596,-4)" xmlns:kvg="http://kanjivg.tagaini.net"></path><path class="stroke_order_diagram--existing_path" d="M29.96,35.25c0.36,1,0.54,2.23,0.54,3.25c0,8.5,0,53.75-0.12,60" id="Ske33dlzw61" kvg:type="㇑" transform="matrix(1,0,0,1,1596,-4)" xmlns:kvg="http://kanjivg.tagaini.net"></path><path class="stroke_order_diagram--existing_path" d="M71.82,11.58c0.55,0.53,0.93,1.44,0.98,3.19c0.22,8.41-0.14,34.15-0.14,37.01c0,5.66-4.19,0.02-5.03-0.7" id="Ske33dlzw62" kvg:type="㇚" transform="matrix(1,0,0,1,1596,-4)" xmlns:kvg="http://kanjivg.tagaini.net"></path><path class="stroke_order_diagram--existing_path" d="M50.25,29.73c0.99,0.14,2.1,0.36,3.13,0.28c3.62-0.26,9.11-1.92,10.76-2.48c1.65-0.57,3.12,0.5,2.47,1.71c-3.36,6.27-7.36,12.02-12.87,16.98" id="Ske33dlzw63" kvg:type="㇇" transform="matrix(1,0,0,1,1596,-4)" xmlns:kvg="http://kanjivg.tagaini.net"></path><path class="stroke_order_diagram--existing_path" d="M89.94,17.86c0.06,0.29-0.11,1.12-0.32,1.5c-1.99,3.55-6.22,7.92-9.82,9.77" id="Ske33dlzw64" kvg:type="㇒" transform="matrix(1,0,0,1,1596,-4)" xmlns:kvg="http://kanjivg.tagaini.net"></path><path class="stroke_order_diagram--existing_path" d="M74.16,28.12c4.66,5.92,12.48,13.92,17.69,17.33c1.1,0.72,2.14,1.08,3.15,1.33" id="Ske33dlzw65" kvg:type="㇏" transform="matrix(1,0,0,1,1596,-4)" xmlns:kvg="http://kanjivg.tagaini.net"></path><path class="stroke_order_diagram--existing_path" d="M55.49,63.48c0.33,0.5,0.86,2.32,0.95,2.98c0.95,7.04,1.68,20.31,2.62,30" id="Ske33dlzw66" kvg:type="㇑" transform="matrix(1,0,0,1,1596,-4)" xmlns:kvg="http://kanjivg.tagaini.net"></path><path class="stroke_order_diagram--existing_path" d="M57.06,64.67c12.69-1.92,21.69-2.67,30.49-3.12c3.24-0.17,4.36,2.02,4.2,3.45c-0.61,5.24-2.1,20.5-3.57,29.25" id="Ske33dlzw67" kvg:type="㇕a" transform="matrix(1,0,0,1,1596,-4)" xmlns:kvg="http://kanjivg.tagaini.net"></path><path class="stroke_order_diagram--existing_path" d="M57.91,78.11c3.82-0.51,29.63-2.26,32.78-2.47" id="Ske33dlzw68" kvg:type="㇐a" transform="matrix(1,0,0,1,1596,-4)" xmlns:kvg="http://kanjivg.tagaini.net"></path><path class="stroke_order_diagram--current_path" d="M59.66,93.54c8.44-0.56,21.34-1.79,28.02-2.29" id="kvg:0979c-s17" kvg:type="㇐a" transform="matrix(1,0,0,1,1596,-4)" xmlns:kvg="http://kanjivg.tagaini.net"></path><path class="stroke_order_diagram--current_path" d="M59.66,93.54c8.44-0.56,21.34-1.79,28.02-2.29" id="Ske33dlzw6a" kvg:type="㇐a" transform="matrix(1,0,0,1,1596,-4)" xmlns:kvg="http://kanjivg.tagaini.net"></path><circle class="stroke_order_diagram--path_start" cx="59.66" cy="93.54" r="4" transform="matrix(1,0,0,1,1596,-4)"></circle></svg>