<svg class="stroke_order_diagram--svg_container_for_518662c3d5dda7965800179f" style="height: 100px; width: 1000px;" viewbox="0 0 1000 100"><desc>Created with Snap</desc><defs></defs><line class="stroke_order_diagram--bounding_box" x1="1" x2="999" y1="1" y2="1"></line><line class="stroke_order_diagram--bounding_box" x1="1" x2="1" y1="1" y2="99"></line><line class="stroke_order_diagram--bounding_box" x1="1" x2="999" y1="99" y2="99"></line><line class="stroke_order_diagram--guide_line" x1="0" x2="1000" y1="50" y2="50"></line><line class="stroke_order_diagram--guide_line" x1="50" x2="50" y1="1" y2="99"></line><line class="stroke_order_diagram--bounding_box" x1="99" x2="99" y1="1" y2="99"></line><path class="stroke_order_diagram--current_path" d="M49.08,9.5c0.33,0.23,0.86,1.02,0.74,1.53c-1.18,4.9-4.34,16.04-5.57,19.11" id="kvg:097cb-s1" kvg:type="㇑" transform="matrix(1,0,0,1,-4,-4)" xmlns:kvg="http://kanjivg.tagaini.net"></path><path class="stroke_order_diagram--current_path" d="M49.08,9.5c0.33,0.23,0.86,1.02,0.74,1.53c-1.18,4.9-4.34,16.04-5.57,19.11" id="Ske33gf92j" kvg:type="㇑" transform="matrix(1,0,0,1,-4,-4)" xmlns:kvg="http://kanjivg.tagaini.net"></path><circle class="stroke_order_diagram--path_start" cx="49.08" cy="9.5" r="4" transform="matrix(1,0,0,1,-4,-4)"></circle><line class="stroke_order_diagram--guide_line" x1="150" x2="150" y1="1" y2="99"></line><line class="stroke_order_diagram--bounding_box" x1="199" x2="199" y1="1" y2="99"></line><path class="stroke_order_diagram--existing_path" d="M49.08,9.5c0.33,0.23,0.86,1.02,0.74,1.53c-1.18,4.9-4.34,16.04-5.57,19.11" id="Ske33gf92m" kvg:type="㇑" transform="matrix(1,0,0,1,96,-4)" xmlns:kvg="http://kanjivg.tagaini.net"></path><path class="stroke_order_diagram--current_path" d="M30.76,18.58c1,0.65,2.39,0.93,3.22,0.87c13.28-0.95,35.68-2.56,36.89-2.56c2.01,0,3.08,1.47,2.82,2.54c-1.01,4.12-2.09,6.24-2.89,8.85" id="kvg:097cb-s2" kvg:type="㇕" transform="matrix(1,0,0,1,96,-4)" xmlns:kvg="http://kanjivg.tagaini.net"></path><path class="stroke_order_diagram--current_path" d="M30.76,18.58c1,0.65,2.39,0.93,3.22,0.87c13.28-0.95,35.68-2.56,36.89-2.56c2.01,0,3.08,1.47,2.82,2.54c-1.01,4.12-2.09,6.24-2.89,8.85" id="Ske33gf92o" kvg:type="㇕" transform="matrix(1,0,0,1,96,-4)" xmlns:kvg="http://kanjivg.tagaini.net"></path><circle class="stroke_order_diagram--path_start" cx="30.76" cy="18.58" r="4" transform="matrix(1,0,0,1,96,-4)"></circle><line class="stroke_order_diagram--guide_line" x1="250" x2="250" y1="1" y2="99"></line><line class="stroke_order_diagram--bounding_box" x1="299" x2="299" y1="1" y2="99"></line><path class="stroke_order_diagram--existing_path" d="M49.08,9.5c0.33,0.23,0.86,1.02,0.74,1.53c-1.18,4.9-4.34,16.04-5.57,19.11" id="Ske33gf92r" kvg:type="㇑" transform="matrix(1,0,0,1,196,-4)" xmlns:kvg="http://kanjivg.tagaini.net"></path><path class="stroke_order_diagram--existing_path" d="M30.76,18.58c1,0.65,2.39,0.93,3.22,0.87c13.28-0.95,35.68-2.56,36.89-2.56c2.01,0,3.08,1.47,2.82,2.54c-1.01,4.12-2.09,6.24-2.89,8.85" id="Ske33gf92s" kvg:type="㇕" transform="matrix(1,0,0,1,196,-4)" xmlns:kvg="http://kanjivg.tagaini.net"></path><path class="stroke_order_diagram--current_path" d="M16.47,32.01c1.03,0.28,3.59,0.42,4.6,0.28c4.15-0.55,48.2-3.49,67.95-4.19c1.71-0.06,3.4,0.14,4.26,0.28" id="kvg:097cb-s3" kvg:type="㇐" transform="matrix(1,0,0,1,196,-4)" xmlns:kvg="http://kanjivg.tagaini.net"></path><path class="stroke_order_diagram--current_path" d="M16.47,32.01c1.03,0.28,3.59,0.42,4.6,0.28c4.15-0.55,48.2-3.49,67.95-4.19c1.71-0.06,3.4,0.14,4.26,0.28" id="Ske33gf92u" kvg:type="㇐" transform="matrix(1,0,0,1,196,-4)" xmlns:kvg="http://kanjivg.tagaini.net"></path><circle class="stroke_order_diagram--path_start" cx="16.47" cy="32.01" r="4" transform="matrix(1,0,0,1,196,-4)"></circle><line class="stroke_order_diagram--guide_line" x1="350" x2="350" y1="1" y2="99"></line><line class="stroke_order_diagram--bounding_box" x1="399" x2="399" y1="1" y2="99"></line><path class="stroke_order_diagram--existing_path" d="M49.08,9.5c0.33,0.23,0.86,1.02,0.74,1.53c-1.18,4.9-4.34,16.04-5.57,19.11" id="Ske33gf92x" kvg:type="㇑" transform="matrix(1,0,0,1,296,-4)" xmlns:kvg="http://kanjivg.tagaini.net"></path><path class="stroke_order_diagram--existing_path" d="M30.76,18.58c1,0.65,2.39,0.93,3.22,0.87c13.28-0.95,35.68-2.56,36.89-2.56c2.01,0,3.08,1.47,2.82,2.54c-1.01,4.12-2.09,6.24-2.89,8.85" id="Ske33gf92y" kvg:type="㇕" transform="matrix(1,0,0,1,296,-4)" xmlns:kvg="http://kanjivg.tagaini.net"></path><path class="stroke_order_diagram--existing_path" d="M16.47,32.01c1.03,0.28,3.59,0.42,4.6,0.28c4.15-0.55,48.2-3.49,67.95-4.19c1.71-0.06,3.4,0.14,4.26,0.28" id="Ske33gf92z" kvg:type="㇐" transform="matrix(1,0,0,1,296,-4)" xmlns:kvg="http://kanjivg.tagaini.net"></path><path class="stroke_order_diagram--current_path" d="M32.35,38.5c0.39,0.41,0.8,0.76,0.97,1.27C34.68,43.86,35,46.75,36.25,54" id="kvg:097cb-s4" kvg:type="㇑" transform="matrix(1,0,0,1,296,-4)" xmlns:kvg="http://kanjivg.tagaini.net"></path><path class="stroke_order_diagram--current_path" d="M32.35,38.5c0.39,0.41,0.8,0.76,0.97,1.27C34.68,43.86,35,46.75,36.25,54" id="Ske33gf9211" kvg:type="㇑" transform="matrix(1,0,0,1,296,-4)" xmlns:kvg="http://kanjivg.tagaini.net"></path><circle class="stroke_order_diagram--path_start" cx="32.35" cy="38.5" r="4" transform="matrix(1,0,0,1,296,-4)"></circle><line class="stroke_order_diagram--guide_line" x1="450" x2="450" y1="1" y2="99"></line><line class="stroke_order_diagram--bounding_box" x1="499" x2="499" y1="1" y2="99"></line><path class="stroke_order_diagram--existing_path" d="M49.08,9.5c0.33,0.23,0.86,1.02,0.74,1.53c-1.18,4.9-4.34,16.04-5.57,19.11" id="Ske33gf9214" kvg:type="㇑" transform="matrix(1,0,0,1,396,-4)" xmlns:kvg="http://kanjivg.tagaini.net"></path><path class="stroke_order_diagram--existing_path" d="M30.76,18.58c1,0.65,2.39,0.93,3.22,0.87c13.28-0.95,35.68-2.56,36.89-2.56c2.01,0,3.08,1.47,2.82,2.54c-1.01,4.12-2.09,6.24-2.89,8.85" id="Ske33gf9215" kvg:type="㇕" transform="matrix(1,0,0,1,396,-4)" xmlns:kvg="http://kanjivg.tagaini.net"></path><path class="stroke_order_diagram--existing_path" d="M16.47,32.01c1.03,0.28,3.59,0.42,4.6,0.28c4.15-0.55,48.2-3.49,67.95-4.19c1.71-0.06,3.4,0.14,4.26,0.28" id="Ske33gf9216" kvg:type="㇐" transform="matrix(1,0,0,1,396,-4)" xmlns:kvg="http://kanjivg.tagaini.net"></path><path class="stroke_order_diagram--existing_path" d="M32.35,38.5c0.39,0.41,0.8,0.76,0.97,1.27C34.68,43.86,35,46.75,36.25,54" id="Ske33gf9217" kvg:type="㇑" transform="matrix(1,0,0,1,396,-4)" xmlns:kvg="http://kanjivg.tagaini.net"></path><path class="stroke_order_diagram--current_path" d="M33.73,39.84c9.1-1.1,33.97-2.5,39.05-3.09c1.86-0.22,3.24,1.37,2.71,2.56c-0.99,2.2-3.24,8.2-4.03,10.92" id="kvg:097cb-s5" kvg:type="㇕b" transform="matrix(1,0,0,1,396,-4)" xmlns:kvg="http://kanjivg.tagaini.net"></path><path class="stroke_order_diagram--current_path" d="M33.73,39.84c9.1-1.1,33.97-2.5,39.05-3.09c1.86-0.22,3.24,1.37,2.71,2.56c-0.99,2.2-3.24,8.2-4.03,10.92" id="Ske33gf9219" kvg:type="㇕b" transform="matrix(1,0,0,1,396,-4)" xmlns:kvg="http://kanjivg.tagaini.net"></path><circle class="stroke_order_diagram--path_start" cx="33.73" cy="39.84" r="4" transform="matrix(1,0,0,1,396,-4)"></circle><line class="stroke_order_diagram--guide_line" x1="550" x2="550" y1="1" y2="99"></line><line class="stroke_order_diagram--bounding_box" x1="599" x2="599" y1="1" y2="99"></line><path class="stroke_order_diagram--existing_path" d="M49.08,9.5c0.33,0.23,0.86,1.02,0.74,1.53c-1.18,4.9-4.34,16.04-5.57,19.11" id="Ske33gf921c" kvg:type="㇑" transform="matrix(1,0,0,1,496,-4)" xmlns:kvg="http://kanjivg.tagaini.net"></path><path class="stroke_order_diagram--existing_path" d="M30.76,18.58c1,0.65,2.39,0.93,3.22,0.87c13.28-0.95,35.68-2.56,36.89-2.56c2.01,0,3.08,1.47,2.82,2.54c-1.01,4.12-2.09,6.24-2.89,8.85" id="Ske33gf921d" kvg:type="㇕" transform="matrix(1,0,0,1,496,-4)" xmlns:kvg="http://kanjivg.tagaini.net"></path><path class="stroke_order_diagram--existing_path" d="M16.47,32.01c1.03,0.28,3.59,0.42,4.6,0.28c4.15-0.55,48.2-3.49,67.95-4.19c1.71-0.06,3.4,0.14,4.26,0.28" id="Ske33gf921e" kvg:type="㇐" transform="matrix(1,0,0,1,496,-4)" xmlns:kvg="http://kanjivg.tagaini.net"></path><path class="stroke_order_diagram--existing_path" d="M32.35,38.5c0.39,0.41,0.8,0.76,0.97,1.27C34.68,43.86,35,46.75,36.25,54" id="Ske33gf921f" kvg:type="㇑" transform="matrix(1,0,0,1,496,-4)" xmlns:kvg="http://kanjivg.tagaini.net"></path><path class="stroke_order_diagram--existing_path" d="M33.73,39.84c9.1-1.1,33.97-2.5,39.05-3.09c1.86-0.22,3.24,1.37,2.71,2.56c-0.99,2.2-3.24,8.2-4.03,10.92" id="Ske33gf921g" kvg:type="㇕b" transform="matrix(1,0,0,1,496,-4)" xmlns:kvg="http://kanjivg.tagaini.net"></path><path class="stroke_order_diagram--current_path" d="M37.44,51.91C45.5,51.5,67,50.25,74.5,50" id="kvg:097cb-s6" kvg:type="㇐b" transform="matrix(1,0,0,1,496,-4)" xmlns:kvg="http://kanjivg.tagaini.net"></path><path class="stroke_order_diagram--current_path" d="M37.44,51.91C45.5,51.5,67,50.25,74.5,50" id="Ske33gf921i" kvg:type="㇐b" transform="matrix(1,0,0,1,496,-4)" xmlns:kvg="http://kanjivg.tagaini.net"></path><circle class="stroke_order_diagram--path_start" cx="37.44" cy="51.91" r="4" transform="matrix(1,0,0,1,496,-4)"></circle><line class="stroke_order_diagram--guide_line" x1="650" x2="650" y1="1" y2="99"></line><line class="stroke_order_diagram--bounding_box" x1="699" x2="699" y1="1" y2="99"></line><path class="stroke_order_diagram--existing_path" d="M49.08,9.5c0.33,0.23,0.86,1.02,0.74,1.53c-1.18,4.9-4.34,16.04-5.57,19.11" id="Ske33gf921l" kvg:type="㇑" transform="matrix(1,0,0,1,596,-4)" xmlns:kvg="http://kanjivg.tagaini.net"></path><path class="stroke_order_diagram--existing_path" d="M30.76,18.58c1,0.65,2.39,0.93,3.22,0.87c13.28-0.95,35.68-2.56,36.89-2.56c2.01,0,3.08,1.47,2.82,2.54c-1.01,4.12-2.09,6.24-2.89,8.85" id="Ske33gf921m" kvg:type="㇕" transform="matrix(1,0,0,1,596,-4)" xmlns:kvg="http://kanjivg.tagaini.net"></path><path class="stroke_order_diagram--existing_path" d="M16.47,32.01c1.03,0.28,3.59,0.42,4.6,0.28c4.15-0.55,48.2-3.49,67.95-4.19c1.71-0.06,3.4,0.14,4.26,0.28" id="Ske33gf921n" kvg:type="㇐" transform="matrix(1,0,0,1,596,-4)" xmlns:kvg="http://kanjivg.tagaini.net"></path><path class="stroke_order_diagram--existing_path" d="M32.35,38.5c0.39,0.41,0.8,0.76,0.97,1.27C34.68,43.86,35,46.75,36.25,54" id="Ske33gf921o" kvg:type="㇑" transform="matrix(1,0,0,1,596,-4)" xmlns:kvg="http://kanjivg.tagaini.net"></path><path class="stroke_order_diagram--existing_path" d="M33.73,39.84c9.1-1.1,33.97-2.5,39.05-3.09c1.86-0.22,3.24,1.37,2.71,2.56c-0.99,2.2-3.24,8.2-4.03,10.92" id="Ske33gf921p" kvg:type="㇕b" transform="matrix(1,0,0,1,596,-4)" xmlns:kvg="http://kanjivg.tagaini.net"></path><path class="stroke_order_diagram--existing_path" d="M37.44,51.91C45.5,51.5,67,50.25,74.5,50" id="Ske33gf921q" kvg:type="㇐b" transform="matrix(1,0,0,1,596,-4)" xmlns:kvg="http://kanjivg.tagaini.net"></path><path class="stroke_order_diagram--current_path" d="M31.23,62.69c0.92,0.26,3.6,1.28,4.51,1.26c9.01-0.2,27.76-1.45,43.8-2.29c1.52-0.08,2.44,0.12,3.21,0.26" id="kvg:097cb-s7" kvg:type="㇐" transform="matrix(1,0,0,1,596,-4)" xmlns:kvg="http://kanjivg.tagaini.net"></path><path class="stroke_order_diagram--current_path" d="M31.23,62.69c0.92,0.26,3.6,1.28,4.51,1.26c9.01-0.2,27.76-1.45,43.8-2.29c1.52-0.08,2.44,0.12,3.21,0.26" id="Ske33gf921s" kvg:type="㇐" transform="matrix(1,0,0,1,596,-4)" xmlns:kvg="http://kanjivg.tagaini.net"></path><circle class="stroke_order_diagram--path_start" cx="31.23" cy="62.69" r="4" transform="matrix(1,0,0,1,596,-4)"></circle><line class="stroke_order_diagram--guide_line" x1="750" x2="750" y1="1" y2="99"></line><line class="stroke_order_diagram--bounding_box" x1="799" x2="799" y1="1" y2="99"></line><path class="stroke_order_diagram--existing_path" d="M49.08,9.5c0.33,0.23,0.86,1.02,0.74,1.53c-1.18,4.9-4.34,16.04-5.57,19.11" id="Ske33gf921v" kvg:type="㇑" transform="matrix(1,0,0,1,696,-4)" xmlns:kvg="http://kanjivg.tagaini.net"></path><path class="stroke_order_diagram--existing_path" d="M30.76,18.58c1,0.65,2.39,0.93,3.22,0.87c13.28-0.95,35.68-2.56,36.89-2.56c2.01,0,3.08,1.47,2.82,2.54c-1.01,4.12-2.09,6.24-2.89,8.85" id="Ske33gf921w" kvg:type="㇕" transform="matrix(1,0,0,1,696,-4)" xmlns:kvg="http://kanjivg.tagaini.net"></path><path class="stroke_order_diagram--existing_path" d="M16.47,32.01c1.03,0.28,3.59,0.42,4.6,0.28c4.15-0.55,48.2-3.49,67.95-4.19c1.71-0.06,3.4,0.14,4.26,0.28" id="Ske33gf921x" kvg:type="㇐" transform="matrix(1,0,0,1,696,-4)" xmlns:kvg="http://kanjivg.tagaini.net"></path><path class="stroke_order_diagram--existing_path" d="M32.35,38.5c0.39,0.41,0.8,0.76,0.97,1.27C34.68,43.86,35,46.75,36.25,54" id="Ske33gf921y" kvg:type="㇑" transform="matrix(1,0,0,1,696,-4)" xmlns:kvg="http://kanjivg.tagaini.net"></path><path class="stroke_order_diagram--existing_path" d="M33.73,39.84c9.1-1.1,33.97-2.5,39.05-3.09c1.86-0.22,3.24,1.37,2.71,2.56c-0.99,2.2-3.24,8.2-4.03,10.92" id="Ske33gf921z" kvg:type="㇕b" transform="matrix(1,0,0,1,696,-4)" xmlns:kvg="http://kanjivg.tagaini.net"></path><path class="stroke_order_diagram--existing_path" d="M37.44,51.91C45.5,51.5,67,50.25,74.5,50" id="Ske33gf9220" kvg:type="㇐b" transform="matrix(1,0,0,1,696,-4)" xmlns:kvg="http://kanjivg.tagaini.net"></path><path class="stroke_order_diagram--existing_path" d="M31.23,62.69c0.92,0.26,3.6,1.28,4.51,1.26c9.01-0.2,27.76-1.45,43.8-2.29c1.52-0.08,2.44,0.12,3.21,0.26" id="Ske33gf9221" kvg:type="㇐" transform="matrix(1,0,0,1,696,-4)" xmlns:kvg="http://kanjivg.tagaini.net"></path><path class="stroke_order_diagram--current_path" d="M35.24,64.8c0,4.18-0.26,11.44-0.26,15.21" id="kvg:097cb-s8" kvg:type="㇑" transform="matrix(1,0,0,1,696,-4)" xmlns:kvg="http://kanjivg.tagaini.net"></path><path class="stroke_order_diagram--current_path" d="M35.24,64.8c0,4.18-0.26,11.44-0.26,15.21" id="Ske33gf9223" kvg:type="㇑" transform="matrix(1,0,0,1,696,-4)" xmlns:kvg="http://kanjivg.tagaini.net"></path><circle class="stroke_order_diagram--path_start" cx="35.24" cy="64.8" r="4" transform="matrix(1,0,0,1,696,-4)"></circle><line class="stroke_order_diagram--guide_line" x1="850" x2="850" y1="1" y2="99"></line><line class="stroke_order_diagram--bounding_box" x1="899" x2="899" y1="1" y2="99"></line><path class="stroke_order_diagram--existing_path" d="M49.08,9.5c0.33,0.23,0.86,1.02,0.74,1.53c-1.18,4.9-4.34,16.04-5.57,19.11" id="Ske33gf9226" kvg:type="㇑" transform="matrix(1,0,0,1,796,-4)" xmlns:kvg="http://kanjivg.tagaini.net"></path><path class="stroke_order_diagram--existing_path" d="M30.76,18.58c1,0.65,2.39,0.93,3.22,0.87c13.28-0.95,35.68-2.56,36.89-2.56c2.01,0,3.08,1.47,2.82,2.54c-1.01,4.12-2.09,6.24-2.89,8.85" id="Ske33gf9227" kvg:type="㇕" transform="matrix(1,0,0,1,796,-4)" xmlns:kvg="http://kanjivg.tagaini.net"></path><path class="stroke_order_diagram--existing_path" d="M16.47,32.01c1.03,0.28,3.59,0.42,4.6,0.28c4.15-0.55,48.2-3.49,67.95-4.19c1.71-0.06,3.4,0.14,4.26,0.28" id="Ske33gf9228" kvg:type="㇐" transform="matrix(1,0,0,1,796,-4)" xmlns:kvg="http://kanjivg.tagaini.net"></path><path class="stroke_order_diagram--existing_path" d="M32.35,38.5c0.39,0.41,0.8,0.76,0.97,1.27C34.68,43.86,35,46.75,36.25,54" id="Ske33gf9229" kvg:type="㇑" transform="matrix(1,0,0,1,796,-4)" xmlns:kvg="http://kanjivg.tagaini.net"></path><path class="stroke_order_diagram--existing_path" d="M33.73,39.84c9.1-1.1,33.97-2.5,39.05-3.09c1.86-0.22,3.24,1.37,2.71,2.56c-0.99,2.2-3.24,8.2-4.03,10.92" id="Ske33gf922a" kvg:type="㇕b" transform="matrix(1,0,0,1,796,-4)" xmlns:kvg="http://kanjivg.tagaini.net"></path><path class="stroke_order_diagram--existing_path" d="M37.44,51.91C45.5,51.5,67,50.25,74.5,50" id="Ske33gf922b" kvg:type="㇐b" transform="matrix(1,0,0,1,796,-4)" xmlns:kvg="http://kanjivg.tagaini.net"></path><path class="stroke_order_diagram--existing_path" d="M31.23,62.69c0.92,0.26,3.6,1.28,4.51,1.26c9.01-0.2,27.76-1.45,43.8-2.29c1.52-0.08,2.44,0.12,3.21,0.26" id="Ske33gf922c" kvg:type="㇐" transform="matrix(1,0,0,1,796,-4)" xmlns:kvg="http://kanjivg.tagaini.net"></path><path class="stroke_order_diagram--existing_path" d="M35.24,64.8c0,4.18-0.26,11.44-0.26,15.21" id="Ske33gf922d" kvg:type="㇑" transform="matrix(1,0,0,1,796,-4)" xmlns:kvg="http://kanjivg.tagaini.net"></path><path class="stroke_order_diagram--current_path" d="M16.37,81.9c1.48,0.37,4.21,0.53,5.68,0.37c15.16-1.62,42.68-3.37,65.41-3.92c2.47-0.06,3.95,0.18,5.18,0.36" id="kvg:097cb-s9" kvg:type="㇐" transform="matrix(1,0,0,1,796,-4)" xmlns:kvg="http://kanjivg.tagaini.net"></path><path class="stroke_order_diagram--current_path" d="M16.37,81.9c1.48,0.37,4.21,0.53,5.68,0.37c15.16-1.62,42.68-3.37,65.41-3.92c2.47-0.06,3.95,0.18,5.18,0.36" id="Ske33gf922f" kvg:type="㇐" transform="matrix(1,0,0,1,796,-4)" xmlns:kvg="http://kanjivg.tagaini.net"></path><circle class="stroke_order_diagram--path_start" cx="16.37" cy="81.9" r="4" transform="matrix(1,0,0,1,796,-4)"></circle><line class="stroke_order_diagram--guide_line" x1="950" x2="950" y1="1" y2="99"></line><line class="stroke_order_diagram--bounding_box" x1="999" x2="999" y1="1" y2="99"></line><path class="stroke_order_diagram--existing_path" d="M49.08,9.5c0.33,0.23,0.86,1.02,0.74,1.53c-1.18,4.9-4.34,16.04-5.57,19.11" id="Ske33gf922i" kvg:type="㇑" transform="matrix(1,0,0,1,896,-4)" xmlns:kvg="http://kanjivg.tagaini.net"></path><path class="stroke_order_diagram--existing_path" d="M30.76,18.58c1,0.65,2.39,0.93,3.22,0.87c13.28-0.95,35.68-2.56,36.89-2.56c2.01,0,3.08,1.47,2.82,2.54c-1.01,4.12-2.09,6.24-2.89,8.85" id="Ske33gf922j" kvg:type="㇕" transform="matrix(1,0,0,1,896,-4)" xmlns:kvg="http://kanjivg.tagaini.net"></path><path class="stroke_order_diagram--existing_path" d="M16.47,32.01c1.03,0.28,3.59,0.42,4.6,0.28c4.15-0.55,48.2-3.49,67.95-4.19c1.71-0.06,3.4,0.14,4.26,0.28" id="Ske33gf922k" kvg:type="㇐" transform="matrix(1,0,0,1,896,-4)" xmlns:kvg="http://kanjivg.tagaini.net"></path><path class="stroke_order_diagram--existing_path" d="M32.35,38.5c0.39,0.41,0.8,0.76,0.97,1.27C34.68,43.86,35,46.75,36.25,54" id="Ske33gf922l" kvg:type="㇑" transform="matrix(1,0,0,1,896,-4)" xmlns:kvg="http://kanjivg.tagaini.net"></path><path class="stroke_order_diagram--existing_path" d="M33.73,39.84c9.1-1.1,33.97-2.5,39.05-3.09c1.86-0.22,3.24,1.37,2.71,2.56c-0.99,2.2-3.24,8.2-4.03,10.92" id="Ske33gf922m" kvg:type="㇕b" transform="matrix(1,0,0,1,896,-4)" xmlns:kvg="http://kanjivg.tagaini.net"></path><path class="stroke_order_diagram--existing_path" d="M37.44,51.91C45.5,51.5,67,50.25,74.5,50" id="Ske33gf922n" kvg:type="㇐b" transform="matrix(1,0,0,1,896,-4)" xmlns:kvg="http://kanjivg.tagaini.net"></path><path class="stroke_order_diagram--existing_path" d="M31.23,62.69c0.92,0.26,3.6,1.28,4.51,1.26c9.01-0.2,27.76-1.45,43.8-2.29c1.52-0.08,2.44,0.12,3.21,0.26" id="Ske33gf922o" kvg:type="㇐" transform="matrix(1,0,0,1,896,-4)" xmlns:kvg="http://kanjivg.tagaini.net"></path><path class="stroke_order_diagram--existing_path" d="M35.24,64.8c0,4.18-0.26,11.44-0.26,15.21" id="Ske33gf922p" kvg:type="㇑" transform="matrix(1,0,0,1,896,-4)" xmlns:kvg="http://kanjivg.tagaini.net"></path><path class="stroke_order_diagram--existing_path" d="M16.37,81.9c1.48,0.37,4.21,0.53,5.68,0.37c15.16-1.62,42.68-3.37,65.41-3.92c2.47-0.06,3.95,0.18,5.18,0.36" id="Ske33gf922q" kvg:type="㇐" transform="matrix(1,0,0,1,896,-4)" xmlns:kvg="http://kanjivg.tagaini.net"></path><path class="stroke_order_diagram--current_path" d="M59.75,53.46c0.53,0.41,1.64,3.1,1.74,3.93c0.11,0.83-0.07,36.81-0.17,41.99" id="kvg:097cb-s10" kvg:type="㇑" transform="matrix(1,0,0,1,896,-4)" xmlns:kvg="http://kanjivg.tagaini.net"></path><path class="stroke_order_diagram--current_path" d="M59.75,53.46c0.53,0.41,1.64,3.1,1.74,3.93c0.11,0.83-0.07,36.81-0.17,41.99" id="Ske33gf922s" kvg:type="㇑" transform="matrix(1,0,0,1,896,-4)" xmlns:kvg="http://kanjivg.tagaini.net"></path><circle class="stroke_order_diagram--path_start" cx="59.75" cy="53.46" r="4" transform="matrix(1,0,0,1,896,-4)"></circle></svg>