<svg class="stroke_order_diagram--svg_container_for_51866273d5dda7965800008e" style="height: 100px; width: 1600px;" viewbox="0 0 1600 100"><desc>Created with Snap</desc><defs></defs><line class="stroke_order_diagram--bounding_box" x1="1" x2="1599" y1="1" y2="1"></line><line class="stroke_order_diagram--bounding_box" x1="1" x2="1" y1="1" y2="99"></line><line class="stroke_order_diagram--bounding_box" x1="1" x2="1599" y1="99" y2="99"></line><line class="stroke_order_diagram--guide_line" x1="0" x2="1600" y1="50" y2="50"></line><line class="stroke_order_diagram--guide_line" x1="50" x2="50" y1="1" y2="99"></line><line class="stroke_order_diagram--bounding_box" x1="99" x2="99" y1="1" y2="99"></line><path class="stroke_order_diagram--current_path" d="M44.57,16.8c-0.32,1.57-0.73,2.12-1.87,2.69c-3.4,2.3-11.1,6.32-19.02,8.27" id="kvg:09834-s1" kvg:type="㇒" transform="matrix(1,0,0,1,-4,-4)" xmlns:kvg="http://kanjivg.tagaini.net"></path><path class="stroke_order_diagram--current_path" d="M44.57,16.8c-0.32,1.57-0.73,2.12-1.87,2.69c-3.4,2.3-11.1,6.32-19.02,8.27" id="Ske1ocghwp" kvg:type="㇒" transform="matrix(1,0,0,1,-4,-4)" xmlns:kvg="http://kanjivg.tagaini.net"></path><circle class="stroke_order_diagram--path_start" cx="44.57" cy="16.8" r="4" transform="matrix(1,0,0,1,-4,-4)"></circle><line class="stroke_order_diagram--guide_line" x1="150" x2="150" y1="1" y2="99"></line><line class="stroke_order_diagram--bounding_box" x1="199" x2="199" y1="1" y2="99"></line><path class="stroke_order_diagram--existing_path" d="M44.57,16.8c-0.32,1.57-0.73,2.12-1.87,2.69c-3.4,2.3-11.1,6.32-19.02,8.27" id="Ske1ocghws" kvg:type="㇒" transform="matrix(1,0,0,1,96,-4)" xmlns:kvg="http://kanjivg.tagaini.net"></path><path class="stroke_order_diagram--current_path" d="M21.25,14.75c0.93,0.95,1.07,2.28,0.9,3.5c0.02,3.81,0.08,14.65,0.08,16.11c0,7.82,6.58,6.74,12.54,6.74c10.01,0,11.99-0.76,11.99-4.75" id="kvg:09834-s2" kvg:type="㇟" transform="matrix(1,0,0,1,96,-4)" xmlns:kvg="http://kanjivg.tagaini.net"></path><path class="stroke_order_diagram--current_path" d="M21.25,14.75c0.93,0.95,1.07,2.28,0.9,3.5c0.02,3.81,0.08,14.65,0.08,16.11c0,7.82,6.58,6.74,12.54,6.74c10.01,0,11.99-0.76,11.99-4.75" id="Ske1ocghwu" kvg:type="㇟" transform="matrix(1,0,0,1,96,-4)" xmlns:kvg="http://kanjivg.tagaini.net"></path><circle class="stroke_order_diagram--path_start" cx="21.25" cy="14.75" r="4" transform="matrix(1,0,0,1,96,-4)"></circle><line class="stroke_order_diagram--guide_line" x1="250" x2="250" y1="1" y2="99"></line><line class="stroke_order_diagram--bounding_box" x1="299" x2="299" y1="1" y2="99"></line><path class="stroke_order_diagram--existing_path" d="M44.57,16.8c-0.32,1.57-0.73,2.12-1.87,2.69c-3.4,2.3-11.1,6.32-19.02,8.27" id="Ske1ocghwx" kvg:type="㇒" transform="matrix(1,0,0,1,196,-4)" xmlns:kvg="http://kanjivg.tagaini.net"></path><path class="stroke_order_diagram--existing_path" d="M21.25,14.75c0.93,0.95,1.07,2.28,0.9,3.5c0.02,3.81,0.08,14.65,0.08,16.11c0,7.82,6.58,6.74,12.54,6.74c10.01,0,11.99-0.76,11.99-4.75" id="Ske1ocghwy" kvg:type="㇟" transform="matrix(1,0,0,1,196,-4)" xmlns:kvg="http://kanjivg.tagaini.net"></path><path class="stroke_order_diagram--current_path" d="M21.57,52.35c1.99,0.11,3.97,0.02,5.94-0.27c4.29-0.5,10.27-1.11,14.11-1.35c1.53-0.13,3.05-0.08,4.58,0.14" id="kvg:09834-s3" kvg:type="㇐" transform="matrix(1,0,0,1,196,-4)" xmlns:kvg="http://kanjivg.tagaini.net"></path><path class="stroke_order_diagram--current_path" d="M21.57,52.35c1.99,0.11,3.97,0.02,5.94-0.27c4.29-0.5,10.27-1.11,14.11-1.35c1.53-0.13,3.05-0.08,4.58,0.14" id="Ske1ocghw10" kvg:type="㇐" transform="matrix(1,0,0,1,196,-4)" xmlns:kvg="http://kanjivg.tagaini.net"></path><circle class="stroke_order_diagram--path_start" cx="21.57" cy="52.35" r="4" transform="matrix(1,0,0,1,196,-4)"></circle><line class="stroke_order_diagram--guide_line" x1="350" x2="350" y1="1" y2="99"></line><line class="stroke_order_diagram--bounding_box" x1="399" x2="399" y1="1" y2="99"></line><path class="stroke_order_diagram--existing_path" d="M44.57,16.8c-0.32,1.57-0.73,2.12-1.87,2.69c-3.4,2.3-11.1,6.32-19.02,8.27" id="Ske1ocghw13" kvg:type="㇒" transform="matrix(1,0,0,1,296,-4)" xmlns:kvg="http://kanjivg.tagaini.net"></path><path class="stroke_order_diagram--existing_path" d="M21.25,14.75c0.93,0.95,1.07,2.28,0.9,3.5c0.02,3.81,0.08,14.65,0.08,16.11c0,7.82,6.58,6.74,12.54,6.74c10.01,0,11.99-0.76,11.99-4.75" id="Ske1ocghw14" kvg:type="㇟" transform="matrix(1,0,0,1,296,-4)" xmlns:kvg="http://kanjivg.tagaini.net"></path><path class="stroke_order_diagram--existing_path" d="M21.57,52.35c1.99,0.11,3.97,0.02,5.94-0.27c4.29-0.5,10.27-1.11,14.11-1.35c1.53-0.13,3.05-0.08,4.58,0.14" id="Ske1ocghw15" kvg:type="㇐" transform="matrix(1,0,0,1,296,-4)" xmlns:kvg="http://kanjivg.tagaini.net"></path><path class="stroke_order_diagram--current_path" d="M14.09,65.35c2.12,0.44,4.21,0.46,6.29,0.06c5.86-0.82,17.27-2.18,24.76-2.41c2.11-0.35,4.22-0.33,6.31,0.05" id="kvg:09834-s4" kvg:type="㇐" transform="matrix(1,0,0,1,296,-4)" xmlns:kvg="http://kanjivg.tagaini.net"></path><path class="stroke_order_diagram--current_path" d="M14.09,65.35c2.12,0.44,4.21,0.46,6.29,0.06c5.86-0.82,17.27-2.18,24.76-2.41c2.11-0.35,4.22-0.33,6.31,0.05" id="Ske1ocghw17" kvg:type="㇐" transform="matrix(1,0,0,1,296,-4)" xmlns:kvg="http://kanjivg.tagaini.net"></path><circle class="stroke_order_diagram--path_start" cx="14.09" cy="65.35" r="4" transform="matrix(1,0,0,1,296,-4)"></circle><line class="stroke_order_diagram--guide_line" x1="450" x2="450" y1="1" y2="99"></line><line class="stroke_order_diagram--bounding_box" x1="499" x2="499" y1="1" y2="99"></line><path class="stroke_order_diagram--existing_path" d="M44.57,16.8c-0.32,1.57-0.73,2.12-1.87,2.69c-3.4,2.3-11.1,6.32-19.02,8.27" id="Ske1ocghw1a" kvg:type="㇒" transform="matrix(1,0,0,1,396,-4)" xmlns:kvg="http://kanjivg.tagaini.net"></path><path class="stroke_order_diagram--existing_path" d="M21.25,14.75c0.93,0.95,1.07,2.28,0.9,3.5c0.02,3.81,0.08,14.65,0.08,16.11c0,7.82,6.58,6.74,12.54,6.74c10.01,0,11.99-0.76,11.99-4.75" id="Ske1ocghw1b" kvg:type="㇟" transform="matrix(1,0,0,1,396,-4)" xmlns:kvg="http://kanjivg.tagaini.net"></path><path class="stroke_order_diagram--existing_path" d="M21.57,52.35c1.99,0.11,3.97,0.02,5.94-0.27c4.29-0.5,10.27-1.11,14.11-1.35c1.53-0.13,3.05-0.08,4.58,0.14" id="Ske1ocghw1c" kvg:type="㇐" transform="matrix(1,0,0,1,396,-4)" xmlns:kvg="http://kanjivg.tagaini.net"></path><path class="stroke_order_diagram--existing_path" d="M14.09,65.35c2.12,0.44,4.21,0.46,6.29,0.06c5.86-0.82,17.27-2.18,24.76-2.41c2.11-0.35,4.22-0.33,6.31,0.05" id="Ske1ocghw1d" kvg:type="㇐" transform="matrix(1,0,0,1,396,-4)" xmlns:kvg="http://kanjivg.tagaini.net"></path><path class="stroke_order_diagram--current_path" d="M34.1,66.12c0.05,0.29,0.72,1.5,0.72,3.33c0,8.8,0.1,18.53,0.1,21.52c0,6.34-3.07,2.03-5.46-0.1" id="kvg:09834-s5" kvg:type="㇑" transform="matrix(1,0,0,1,396,-4)" xmlns:kvg="http://kanjivg.tagaini.net"></path><path class="stroke_order_diagram--current_path" d="M34.1,66.12c0.05,0.29,0.72,1.5,0.72,3.33c0,8.8,0.1,18.53,0.1,21.52c0,6.34-3.07,2.03-5.46-0.1" id="Ske1ocghw1f" kvg:type="㇑" transform="matrix(1,0,0,1,396,-4)" xmlns:kvg="http://kanjivg.tagaini.net"></path><circle class="stroke_order_diagram--path_start" cx="34.1" cy="66.12" r="4" transform="matrix(1,0,0,1,396,-4)"></circle><line class="stroke_order_diagram--guide_line" x1="550" x2="550" y1="1" y2="99"></line><line class="stroke_order_diagram--bounding_box" x1="599" x2="599" y1="1" y2="99"></line><path class="stroke_order_diagram--existing_path" d="M44.57,16.8c-0.32,1.57-0.73,2.12-1.87,2.69c-3.4,2.3-11.1,6.32-19.02,8.27" id="Ske1ocghw1i" kvg:type="㇒" transform="matrix(1,0,0,1,496,-4)" xmlns:kvg="http://kanjivg.tagaini.net"></path><path class="stroke_order_diagram--existing_path" d="M21.25,14.75c0.93,0.95,1.07,2.28,0.9,3.5c0.02,3.81,0.08,14.65,0.08,16.11c0,7.82,6.58,6.74,12.54,6.74c10.01,0,11.99-0.76,11.99-4.75" id="Ske1ocghw1j" kvg:type="㇟" transform="matrix(1,0,0,1,496,-4)" xmlns:kvg="http://kanjivg.tagaini.net"></path><path class="stroke_order_diagram--existing_path" d="M21.57,52.35c1.99,0.11,3.97,0.02,5.94-0.27c4.29-0.5,10.27-1.11,14.11-1.35c1.53-0.13,3.05-0.08,4.58,0.14" id="Ske1ocghw1k" kvg:type="㇐" transform="matrix(1,0,0,1,496,-4)" xmlns:kvg="http://kanjivg.tagaini.net"></path><path class="stroke_order_diagram--existing_path" d="M14.09,65.35c2.12,0.44,4.21,0.46,6.29,0.06c5.86-0.82,17.27-2.18,24.76-2.41c2.11-0.35,4.22-0.33,6.31,0.05" id="Ske1ocghw1l" kvg:type="㇐" transform="matrix(1,0,0,1,496,-4)" xmlns:kvg="http://kanjivg.tagaini.net"></path><path class="stroke_order_diagram--existing_path" d="M34.1,66.12c0.05,0.29,0.72,1.5,0.72,3.33c0,8.8,0.1,18.53,0.1,21.52c0,6.34-3.07,2.03-5.46-0.1" id="Ske1ocghw1m" kvg:type="㇑" transform="matrix(1,0,0,1,496,-4)" xmlns:kvg="http://kanjivg.tagaini.net"></path><path class="stroke_order_diagram--current_path" d="M22.06,75.55c0.09,1.11-0.08,2.19-0.51,3.22c-1.3,3.52-4.8,9.02-8.55,12.81" id="kvg:09834-s6" kvg:type="㇒" transform="matrix(1,0,0,1,496,-4)" xmlns:kvg="http://kanjivg.tagaini.net"></path><path class="stroke_order_diagram--current_path" d="M22.06,75.55c0.09,1.11-0.08,2.19-0.51,3.22c-1.3,3.52-4.8,9.02-8.55,12.81" id="Ske1ocghw1o" kvg:type="㇒" transform="matrix(1,0,0,1,496,-4)" xmlns:kvg="http://kanjivg.tagaini.net"></path><circle class="stroke_order_diagram--path_start" cx="22.06" cy="75.55" r="4" transform="matrix(1,0,0,1,496,-4)"></circle><line class="stroke_order_diagram--guide_line" x1="650" x2="650" y1="1" y2="99"></line><line class="stroke_order_diagram--bounding_box" x1="699" x2="699" y1="1" y2="99"></line><path class="stroke_order_diagram--existing_path" d="M44.57,16.8c-0.32,1.57-0.73,2.12-1.87,2.69c-3.4,2.3-11.1,6.32-19.02,8.27" id="Ske1ocghw1r" kvg:type="㇒" transform="matrix(1,0,0,1,596,-4)" xmlns:kvg="http://kanjivg.tagaini.net"></path><path class="stroke_order_diagram--existing_path" d="M21.25,14.75c0.93,0.95,1.07,2.28,0.9,3.5c0.02,3.81,0.08,14.65,0.08,16.11c0,7.82,6.58,6.74,12.54,6.74c10.01,0,11.99-0.76,11.99-4.75" id="Ske1ocghw1s" kvg:type="㇟" transform="matrix(1,0,0,1,596,-4)" xmlns:kvg="http://kanjivg.tagaini.net"></path><path class="stroke_order_diagram--existing_path" d="M21.57,52.35c1.99,0.11,3.97,0.02,5.94-0.27c4.29-0.5,10.27-1.11,14.11-1.35c1.53-0.13,3.05-0.08,4.58,0.14" id="Ske1ocghw1t" kvg:type="㇐" transform="matrix(1,0,0,1,596,-4)" xmlns:kvg="http://kanjivg.tagaini.net"></path><path class="stroke_order_diagram--existing_path" d="M14.09,65.35c2.12,0.44,4.21,0.46,6.29,0.06c5.86-0.82,17.27-2.18,24.76-2.41c2.11-0.35,4.22-0.33,6.31,0.05" id="Ske1ocghw1u" kvg:type="㇐" transform="matrix(1,0,0,1,596,-4)" xmlns:kvg="http://kanjivg.tagaini.net"></path><path class="stroke_order_diagram--existing_path" d="M34.1,66.12c0.05,0.29,0.72,1.5,0.72,3.33c0,8.8,0.1,18.53,0.1,21.52c0,6.34-3.07,2.03-5.46-0.1" id="Ske1ocghw1v" kvg:type="㇑" transform="matrix(1,0,0,1,596,-4)" xmlns:kvg="http://kanjivg.tagaini.net"></path><path class="stroke_order_diagram--existing_path" d="M22.06,75.55c0.09,1.11-0.08,2.19-0.51,3.22c-1.3,3.52-4.8,9.02-8.55,12.81" id="Ske1ocghw1w" kvg:type="㇒" transform="matrix(1,0,0,1,596,-4)" xmlns:kvg="http://kanjivg.tagaini.net"></path><path class="stroke_order_diagram--current_path" d="M44.91,74.72c2.37,2.03,6.25,8.13,6.84,11.3" id="kvg:09834-s7" kvg:type="㇔" transform="matrix(1,0,0,1,596,-4)" xmlns:kvg="http://kanjivg.tagaini.net"></path><path class="stroke_order_diagram--current_path" d="M44.91,74.72c2.37,2.03,6.25,8.13,6.84,11.3" id="Ske1ocghw1y" kvg:type="㇔" transform="matrix(1,0,0,1,596,-4)" xmlns:kvg="http://kanjivg.tagaini.net"></path><circle class="stroke_order_diagram--path_start" cx="44.91" cy="74.72" r="4" transform="matrix(1,0,0,1,596,-4)"></circle><line class="stroke_order_diagram--guide_line" x1="750" x2="750" y1="1" y2="99"></line><line class="stroke_order_diagram--bounding_box" x1="799" x2="799" y1="1" y2="99"></line><path class="stroke_order_diagram--existing_path" d="M44.57,16.8c-0.32,1.57-0.73,2.12-1.87,2.69c-3.4,2.3-11.1,6.32-19.02,8.27" id="Ske1ocghw21" kvg:type="㇒" transform="matrix(1,0,0,1,696,-4)" xmlns:kvg="http://kanjivg.tagaini.net"></path><path class="stroke_order_diagram--existing_path" d="M21.25,14.75c0.93,0.95,1.07,2.28,0.9,3.5c0.02,3.81,0.08,14.65,0.08,16.11c0,7.82,6.58,6.74,12.54,6.74c10.01,0,11.99-0.76,11.99-4.75" id="Ske1ocghw22" kvg:type="㇟" transform="matrix(1,0,0,1,696,-4)" xmlns:kvg="http://kanjivg.tagaini.net"></path><path class="stroke_order_diagram--existing_path" d="M21.57,52.35c1.99,0.11,3.97,0.02,5.94-0.27c4.29-0.5,10.27-1.11,14.11-1.35c1.53-0.13,3.05-0.08,4.58,0.14" id="Ske1ocghw23" kvg:type="㇐" transform="matrix(1,0,0,1,696,-4)" xmlns:kvg="http://kanjivg.tagaini.net"></path><path class="stroke_order_diagram--existing_path" d="M14.09,65.35c2.12,0.44,4.21,0.46,6.29,0.06c5.86-0.82,17.27-2.18,24.76-2.41c2.11-0.35,4.22-0.33,6.31,0.05" id="Ske1ocghw24" kvg:type="㇐" transform="matrix(1,0,0,1,696,-4)" xmlns:kvg="http://kanjivg.tagaini.net"></path><path class="stroke_order_diagram--existing_path" d="M34.1,66.12c0.05,0.29,0.72,1.5,0.72,3.33c0,8.8,0.1,18.53,0.1,21.52c0,6.34-3.07,2.03-5.46-0.1" id="Ske1ocghw25" kvg:type="㇑" transform="matrix(1,0,0,1,696,-4)" xmlns:kvg="http://kanjivg.tagaini.net"></path><path class="stroke_order_diagram--existing_path" d="M22.06,75.55c0.09,1.11-0.08,2.19-0.51,3.22c-1.3,3.52-4.8,9.02-8.55,12.81" id="Ske1ocghw26" kvg:type="㇒" transform="matrix(1,0,0,1,696,-4)" xmlns:kvg="http://kanjivg.tagaini.net"></path><path class="stroke_order_diagram--existing_path" d="M44.91,74.72c2.37,2.03,6.25,8.13,6.84,11.3" id="Ske1ocghw27" kvg:type="㇔" transform="matrix(1,0,0,1,696,-4)" xmlns:kvg="http://kanjivg.tagaini.net"></path><path class="stroke_order_diagram--current_path" d="M56.11,17.53c1.96,0.5,3.92,0.62,5.89,0.36c7.96-0.62,19.45-2.03,26.25-2.5c1.91-0.22,3.81-0.1,5.7,0.37" id="kvg:09834-s8" kvg:type="㇐" transform="matrix(1,0,0,1,696,-4)" xmlns:kvg="http://kanjivg.tagaini.net"></path><path class="stroke_order_diagram--current_path" d="M56.11,17.53c1.96,0.5,3.92,0.62,5.89,0.36c7.96-0.62,19.45-2.03,26.25-2.5c1.91-0.22,3.81-0.1,5.7,0.37" id="Ske1ocghw29" kvg:type="㇐" transform="matrix(1,0,0,1,696,-4)" xmlns:kvg="http://kanjivg.tagaini.net"></path><circle class="stroke_order_diagram--path_start" cx="56.11" cy="17.53" r="4" transform="matrix(1,0,0,1,696,-4)"></circle><line class="stroke_order_diagram--guide_line" x1="850" x2="850" y1="1" y2="99"></line><line class="stroke_order_diagram--bounding_box" x1="899" x2="899" y1="1" y2="99"></line><path class="stroke_order_diagram--existing_path" d="M44.57,16.8c-0.32,1.57-0.73,2.12-1.87,2.69c-3.4,2.3-11.1,6.32-19.02,8.27" id="Ske1ocghw2c" kvg:type="㇒" transform="matrix(1,0,0,1,796,-4)" xmlns:kvg="http://kanjivg.tagaini.net"></path><path class="stroke_order_diagram--existing_path" d="M21.25,14.75c0.93,0.95,1.07,2.28,0.9,3.5c0.02,3.81,0.08,14.65,0.08,16.11c0,7.82,6.58,6.74,12.54,6.74c10.01,0,11.99-0.76,11.99-4.75" id="Ske1ocghw2d" kvg:type="㇟" transform="matrix(1,0,0,1,796,-4)" xmlns:kvg="http://kanjivg.tagaini.net"></path><path class="stroke_order_diagram--existing_path" d="M21.57,52.35c1.99,0.11,3.97,0.02,5.94-0.27c4.29-0.5,10.27-1.11,14.11-1.35c1.53-0.13,3.05-0.08,4.58,0.14" id="Ske1ocghw2e" kvg:type="㇐" transform="matrix(1,0,0,1,796,-4)" xmlns:kvg="http://kanjivg.tagaini.net"></path><path class="stroke_order_diagram--existing_path" d="M14.09,65.35c2.12,0.44,4.21,0.46,6.29,0.06c5.86-0.82,17.27-2.18,24.76-2.41c2.11-0.35,4.22-0.33,6.31,0.05" id="Ske1ocghw2f" kvg:type="㇐" transform="matrix(1,0,0,1,796,-4)" xmlns:kvg="http://kanjivg.tagaini.net"></path><path class="stroke_order_diagram--existing_path" d="M34.1,66.12c0.05,0.29,0.72,1.5,0.72,3.33c0,8.8,0.1,18.53,0.1,21.52c0,6.34-3.07,2.03-5.46-0.1" id="Ske1ocghw2g" kvg:type="㇑" transform="matrix(1,0,0,1,796,-4)" xmlns:kvg="http://kanjivg.tagaini.net"></path><path class="stroke_order_diagram--existing_path" d="M22.06,75.55c0.09,1.11-0.08,2.19-0.51,3.22c-1.3,3.52-4.8,9.02-8.55,12.81" id="Ske1ocghw2h" kvg:type="㇒" transform="matrix(1,0,0,1,796,-4)" xmlns:kvg="http://kanjivg.tagaini.net"></path><path class="stroke_order_diagram--existing_path" d="M44.91,74.72c2.37,2.03,6.25,8.13,6.84,11.3" id="Ske1ocghw2i" kvg:type="㇔" transform="matrix(1,0,0,1,796,-4)" xmlns:kvg="http://kanjivg.tagaini.net"></path><path class="stroke_order_diagram--existing_path" d="M56.11,17.53c1.96,0.5,3.92,0.62,5.89,0.36c7.96-0.62,19.45-2.03,26.25-2.5c1.91-0.22,3.81-0.1,5.7,0.37" id="Ske1ocghw2j" kvg:type="㇐" transform="matrix(1,0,0,1,796,-4)" xmlns:kvg="http://kanjivg.tagaini.net"></path><path class="stroke_order_diagram--current_path" d="M72.27,20.35c0.05,0.86-0.05,1.71-0.32,2.54c-0.65,2.29-2.7,5.76-4.46,8.36" id="kvg:09834-s9" kvg:type="㇒" transform="matrix(1,0,0,1,796,-4)" xmlns:kvg="http://kanjivg.tagaini.net"></path><path class="stroke_order_diagram--current_path" d="M72.27,20.35c0.05,0.86-0.05,1.71-0.32,2.54c-0.65,2.29-2.7,5.76-4.46,8.36" id="Ske1ocghw2l" kvg:type="㇒" transform="matrix(1,0,0,1,796,-4)" xmlns:kvg="http://kanjivg.tagaini.net"></path><circle class="stroke_order_diagram--path_start" cx="72.27" cy="20.35" r="4" transform="matrix(1,0,0,1,796,-4)"></circle><line class="stroke_order_diagram--guide_line" x1="950" x2="950" y1="1" y2="99"></line><line class="stroke_order_diagram--bounding_box" x1="999" x2="999" y1="1" y2="99"></line><path class="stroke_order_diagram--existing_path" d="M44.57,16.8c-0.32,1.57-0.73,2.12-1.87,2.69c-3.4,2.3-11.1,6.32-19.02,8.27" id="Ske1ocghw2o" kvg:type="㇒" transform="matrix(1,0,0,1,896,-4)" xmlns:kvg="http://kanjivg.tagaini.net"></path><path class="stroke_order_diagram--existing_path" d="M21.25,14.75c0.93,0.95,1.07,2.28,0.9,3.5c0.02,3.81,0.08,14.65,0.08,16.11c0,7.82,6.58,6.74,12.54,6.74c10.01,0,11.99-0.76,11.99-4.75" id="Ske1ocghw2p" kvg:type="㇟" transform="matrix(1,0,0,1,896,-4)" xmlns:kvg="http://kanjivg.tagaini.net"></path><path class="stroke_order_diagram--existing_path" d="M21.57,52.35c1.99,0.11,3.97,0.02,5.94-0.27c4.29-0.5,10.27-1.11,14.11-1.35c1.53-0.13,3.05-0.08,4.58,0.14" id="Ske1ocghw2q" kvg:type="㇐" transform="matrix(1,0,0,1,896,-4)" xmlns:kvg="http://kanjivg.tagaini.net"></path><path class="stroke_order_diagram--existing_path" d="M14.09,65.35c2.12,0.44,4.21,0.46,6.29,0.06c5.86-0.82,17.27-2.18,24.76-2.41c2.11-0.35,4.22-0.33,6.31,0.05" id="Ske1ocghw2r" kvg:type="㇐" transform="matrix(1,0,0,1,896,-4)" xmlns:kvg="http://kanjivg.tagaini.net"></path><path class="stroke_order_diagram--existing_path" d="M34.1,66.12c0.05,0.29,0.72,1.5,0.72,3.33c0,8.8,0.1,18.53,0.1,21.52c0,6.34-3.07,2.03-5.46-0.1" id="Ske1ocghw2s" kvg:type="㇑" transform="matrix(1,0,0,1,896,-4)" xmlns:kvg="http://kanjivg.tagaini.net"></path><path class="stroke_order_diagram--existing_path" d="M22.06,75.55c0.09,1.11-0.08,2.19-0.51,3.22c-1.3,3.52-4.8,9.02-8.55,12.81" id="Ske1ocghw2t" kvg:type="㇒" transform="matrix(1,0,0,1,896,-4)" xmlns:kvg="http://kanjivg.tagaini.net"></path><path class="stroke_order_diagram--existing_path" d="M44.91,74.72c2.37,2.03,6.25,8.13,6.84,11.3" id="Ske1ocghw2u" kvg:type="㇔" transform="matrix(1,0,0,1,896,-4)" xmlns:kvg="http://kanjivg.tagaini.net"></path><path class="stroke_order_diagram--existing_path" d="M56.11,17.53c1.96,0.5,3.92,0.62,5.89,0.36c7.96-0.62,19.45-2.03,26.25-2.5c1.91-0.22,3.81-0.1,5.7,0.37" id="Ske1ocghw2v" kvg:type="㇐" transform="matrix(1,0,0,1,896,-4)" xmlns:kvg="http://kanjivg.tagaini.net"></path><path class="stroke_order_diagram--existing_path" d="M72.27,20.35c0.05,0.86-0.05,1.71-0.32,2.54c-0.65,2.29-2.7,5.76-4.46,8.36" id="Ske1ocghw2w" kvg:type="㇒" transform="matrix(1,0,0,1,896,-4)" xmlns:kvg="http://kanjivg.tagaini.net"></path><path class="stroke_order_diagram--current_path" d="M57.75,32.99c1,1,1.21,2.15,1.21,3.6c0,1.14-0.1,25.45-0.07,36.53c0.01,3.07,0.03,5.14,0.07,5.45" id="kvg:09834-s10" kvg:type="㇑" transform="matrix(1,0,0,1,896,-4)" xmlns:kvg="http://kanjivg.tagaini.net"></path><path class="stroke_order_diagram--current_path" d="M57.75,32.99c1,1,1.21,2.15,1.21,3.6c0,1.14-0.1,25.45-0.07,36.53c0.01,3.07,0.03,5.14,0.07,5.45" id="Ske1ocghw2y" kvg:type="㇑" transform="matrix(1,0,0,1,896,-4)" xmlns:kvg="http://kanjivg.tagaini.net"></path><circle class="stroke_order_diagram--path_start" cx="57.75" cy="32.99" r="4" transform="matrix(1,0,0,1,896,-4)"></circle><line class="stroke_order_diagram--guide_line" x1="1050" x2="1050" y1="1" y2="99"></line><line class="stroke_order_diagram--bounding_box" x1="1099" x2="1099" y1="1" y2="99"></line><path class="stroke_order_diagram--existing_path" d="M44.57,16.8c-0.32,1.57-0.73,2.12-1.87,2.69c-3.4,2.3-11.1,6.32-19.02,8.27" id="Ske1ocghw31" kvg:type="㇒" transform="matrix(1,0,0,1,996,-4)" xmlns:kvg="http://kanjivg.tagaini.net"></path><path class="stroke_order_diagram--existing_path" d="M21.25,14.75c0.93,0.95,1.07,2.28,0.9,3.5c0.02,3.81,0.08,14.65,0.08,16.11c0,7.82,6.58,6.74,12.54,6.74c10.01,0,11.99-0.76,11.99-4.75" id="Ske1ocghw32" kvg:type="㇟" transform="matrix(1,0,0,1,996,-4)" xmlns:kvg="http://kanjivg.tagaini.net"></path><path class="stroke_order_diagram--existing_path" d="M21.57,52.35c1.99,0.11,3.97,0.02,5.94-0.27c4.29-0.5,10.27-1.11,14.11-1.35c1.53-0.13,3.05-0.08,4.58,0.14" id="Ske1ocghw33" kvg:type="㇐" transform="matrix(1,0,0,1,996,-4)" xmlns:kvg="http://kanjivg.tagaini.net"></path><path class="stroke_order_diagram--existing_path" d="M14.09,65.35c2.12,0.44,4.21,0.46,6.29,0.06c5.86-0.82,17.27-2.18,24.76-2.41c2.11-0.35,4.22-0.33,6.31,0.05" id="Ske1ocghw34" kvg:type="㇐" transform="matrix(1,0,0,1,996,-4)" xmlns:kvg="http://kanjivg.tagaini.net"></path><path class="stroke_order_diagram--existing_path" d="M34.1,66.12c0.05,0.29,0.72,1.5,0.72,3.33c0,8.8,0.1,18.53,0.1,21.52c0,6.34-3.07,2.03-5.46-0.1" id="Ske1ocghw35" kvg:type="㇑" transform="matrix(1,0,0,1,996,-4)" xmlns:kvg="http://kanjivg.tagaini.net"></path><path class="stroke_order_diagram--existing_path" d="M22.06,75.55c0.09,1.11-0.08,2.19-0.51,3.22c-1.3,3.52-4.8,9.02-8.55,12.81" id="Ske1ocghw36" kvg:type="㇒" transform="matrix(1,0,0,1,996,-4)" xmlns:kvg="http://kanjivg.tagaini.net"></path><path class="stroke_order_diagram--existing_path" d="M44.91,74.72c2.37,2.03,6.25,8.13,6.84,11.3" id="Ske1ocghw37" kvg:type="㇔" transform="matrix(1,0,0,1,996,-4)" xmlns:kvg="http://kanjivg.tagaini.net"></path><path class="stroke_order_diagram--existing_path" d="M56.11,17.53c1.96,0.5,3.92,0.62,5.89,0.36c7.96-0.62,19.45-2.03,26.25-2.5c1.91-0.22,3.81-0.1,5.7,0.37" id="Ske1ocghw38" kvg:type="㇐" transform="matrix(1,0,0,1,996,-4)" xmlns:kvg="http://kanjivg.tagaini.net"></path><path class="stroke_order_diagram--existing_path" d="M72.27,20.35c0.05,0.86-0.05,1.71-0.32,2.54c-0.65,2.29-2.7,5.76-4.46,8.36" id="Ske1ocghw39" kvg:type="㇒" transform="matrix(1,0,0,1,996,-4)" xmlns:kvg="http://kanjivg.tagaini.net"></path><path class="stroke_order_diagram--existing_path" d="M57.75,32.99c1,1,1.21,2.15,1.21,3.6c0,1.14-0.1,25.45-0.07,36.53c0.01,3.07,0.03,5.14,0.07,5.45" id="Ske1ocghw3a" kvg:type="㇑" transform="matrix(1,0,0,1,996,-4)" xmlns:kvg="http://kanjivg.tagaini.net"></path><path class="stroke_order_diagram--current_path" d="M59.79,34.44c2.51-0.16,19.76-2.38,25.06-2.98c3.32-0.38,4.92,1.31,4.86,4.67c-0.09,5.64,0.04,25.73,0.12,36.5c0.02,2.84-0.05,4.95-0.05,5.83" id="kvg:09834-s11" kvg:type="㇕a" transform="matrix(1,0,0,1,996,-4)" xmlns:kvg="http://kanjivg.tagaini.net"></path><path class="stroke_order_diagram--current_path" d="M59.79,34.44c2.51-0.16,19.76-2.38,25.06-2.98c3.32-0.38,4.92,1.31,4.86,4.67c-0.09,5.64,0.04,25.73,0.12,36.5c0.02,2.84-0.05,4.95-0.05,5.83" id="Ske1ocghw3c" kvg:type="㇕a" transform="matrix(1,0,0,1,996,-4)" xmlns:kvg="http://kanjivg.tagaini.net"></path><circle class="stroke_order_diagram--path_start" cx="59.79" cy="34.44" r="4" transform="matrix(1,0,0,1,996,-4)"></circle><line class="stroke_order_diagram--guide_line" x1="1150" x2="1150" y1="1" y2="99"></line><line class="stroke_order_diagram--bounding_box" x1="1199" x2="1199" y1="1" y2="99"></line><path class="stroke_order_diagram--existing_path" d="M44.57,16.8c-0.32,1.57-0.73,2.12-1.87,2.69c-3.4,2.3-11.1,6.32-19.02,8.27" id="Ske1ocghw3f" kvg:type="㇒" transform="matrix(1,0,0,1,1096,-4)" xmlns:kvg="http://kanjivg.tagaini.net"></path><path class="stroke_order_diagram--existing_path" d="M21.25,14.75c0.93,0.95,1.07,2.28,0.9,3.5c0.02,3.81,0.08,14.65,0.08,16.11c0,7.82,6.58,6.74,12.54,6.74c10.01,0,11.99-0.76,11.99-4.75" id="Ske1ocghw3g" kvg:type="㇟" transform="matrix(1,0,0,1,1096,-4)" xmlns:kvg="http://kanjivg.tagaini.net"></path><path class="stroke_order_diagram--existing_path" d="M21.57,52.35c1.99,0.11,3.97,0.02,5.94-0.27c4.29-0.5,10.27-1.11,14.11-1.35c1.53-0.13,3.05-0.08,4.58,0.14" id="Ske1ocghw3h" kvg:type="㇐" transform="matrix(1,0,0,1,1096,-4)" xmlns:kvg="http://kanjivg.tagaini.net"></path><path class="stroke_order_diagram--existing_path" d="M14.09,65.35c2.12,0.44,4.21,0.46,6.29,0.06c5.86-0.82,17.27-2.18,24.76-2.41c2.11-0.35,4.22-0.33,6.31,0.05" id="Ske1ocghw3i" kvg:type="㇐" transform="matrix(1,0,0,1,1096,-4)" xmlns:kvg="http://kanjivg.tagaini.net"></path><path class="stroke_order_diagram--existing_path" d="M34.1,66.12c0.05,0.29,0.72,1.5,0.72,3.33c0,8.8,0.1,18.53,0.1,21.52c0,6.34-3.07,2.03-5.46-0.1" id="Ske1ocghw3j" kvg:type="㇑" transform="matrix(1,0,0,1,1096,-4)" xmlns:kvg="http://kanjivg.tagaini.net"></path><path class="stroke_order_diagram--existing_path" d="M22.06,75.55c0.09,1.11-0.08,2.19-0.51,3.22c-1.3,3.52-4.8,9.02-8.55,12.81" id="Ske1ocghw3k" kvg:type="㇒" transform="matrix(1,0,0,1,1096,-4)" xmlns:kvg="http://kanjivg.tagaini.net"></path><path class="stroke_order_diagram--existing_path" d="M44.91,74.72c2.37,2.03,6.25,8.13,6.84,11.3" id="Ske1ocghw3l" kvg:type="㇔" transform="matrix(1,0,0,1,1096,-4)" xmlns:kvg="http://kanjivg.tagaini.net"></path><path class="stroke_order_diagram--existing_path" d="M56.11,17.53c1.96,0.5,3.92,0.62,5.89,0.36c7.96-0.62,19.45-2.03,26.25-2.5c1.91-0.22,3.81-0.1,5.7,0.37" id="Ske1ocghw3m" kvg:type="㇐" transform="matrix(1,0,0,1,1096,-4)" xmlns:kvg="http://kanjivg.tagaini.net"></path><path class="stroke_order_diagram--existing_path" d="M72.27,20.35c0.05,0.86-0.05,1.71-0.32,2.54c-0.65,2.29-2.7,5.76-4.46,8.36" id="Ske1ocghw3n" kvg:type="㇒" transform="matrix(1,0,0,1,1096,-4)" xmlns:kvg="http://kanjivg.tagaini.net"></path><path class="stroke_order_diagram--existing_path" d="M57.75,32.99c1,1,1.21,2.15,1.21,3.6c0,1.14-0.1,25.45-0.07,36.53c0.01,3.07,0.03,5.14,0.07,5.45" id="Ske1ocghw3o" kvg:type="㇑" transform="matrix(1,0,0,1,1096,-4)" xmlns:kvg="http://kanjivg.tagaini.net"></path><path class="stroke_order_diagram--existing_path" d="M59.79,34.44c2.51-0.16,19.76-2.38,25.06-2.98c3.32-0.38,4.92,1.31,4.86,4.67c-0.09,5.64,0.04,25.73,0.12,36.5c0.02,2.84-0.05,4.95-0.05,5.83" id="Ske1ocghw3p" kvg:type="㇕a" transform="matrix(1,0,0,1,1096,-4)" xmlns:kvg="http://kanjivg.tagaini.net"></path><path class="stroke_order_diagram--current_path" d="M59.75,48.42c5.13-0.42,23.38-1.95,29.36-2.34" id="kvg:09834-s12" kvg:type="㇐a" transform="matrix(1,0,0,1,1096,-4)" xmlns:kvg="http://kanjivg.tagaini.net"></path><path class="stroke_order_diagram--current_path" d="M59.75,48.42c5.13-0.42,23.38-1.95,29.36-2.34" id="Ske1ocghw3r" kvg:type="㇐a" transform="matrix(1,0,0,1,1096,-4)" xmlns:kvg="http://kanjivg.tagaini.net"></path><circle class="stroke_order_diagram--path_start" cx="59.75" cy="48.42" r="4" transform="matrix(1,0,0,1,1096,-4)"></circle><line class="stroke_order_diagram--guide_line" x1="1250" x2="1250" y1="1" y2="99"></line><line class="stroke_order_diagram--bounding_box" x1="1299" x2="1299" y1="1" y2="99"></line><path class="stroke_order_diagram--existing_path" d="M44.57,16.8c-0.32,1.57-0.73,2.12-1.87,2.69c-3.4,2.3-11.1,6.32-19.02,8.27" id="Ske1ocghw3u" kvg:type="㇒" transform="matrix(1,0,0,1,1196,-4)" xmlns:kvg="http://kanjivg.tagaini.net"></path><path class="stroke_order_diagram--existing_path" d="M21.25,14.75c0.93,0.95,1.07,2.28,0.9,3.5c0.02,3.81,0.08,14.65,0.08,16.11c0,7.82,6.58,6.74,12.54,6.74c10.01,0,11.99-0.76,11.99-4.75" id="Ske1ocghw3v" kvg:type="㇟" transform="matrix(1,0,0,1,1196,-4)" xmlns:kvg="http://kanjivg.tagaini.net"></path><path class="stroke_order_diagram--existing_path" d="M21.57,52.35c1.99,0.11,3.97,0.02,5.94-0.27c4.29-0.5,10.27-1.11,14.11-1.35c1.53-0.13,3.05-0.08,4.58,0.14" id="Ske1ocghw3w" kvg:type="㇐" transform="matrix(1,0,0,1,1196,-4)" xmlns:kvg="http://kanjivg.tagaini.net"></path><path class="stroke_order_diagram--existing_path" d="M14.09,65.35c2.12,0.44,4.21,0.46,6.29,0.06c5.86-0.82,17.27-2.18,24.76-2.41c2.11-0.35,4.22-0.33,6.31,0.05" id="Ske1ocghw3x" kvg:type="㇐" transform="matrix(1,0,0,1,1196,-4)" xmlns:kvg="http://kanjivg.tagaini.net"></path><path class="stroke_order_diagram--existing_path" d="M34.1,66.12c0.05,0.29,0.72,1.5,0.72,3.33c0,8.8,0.1,18.53,0.1,21.52c0,6.34-3.07,2.03-5.46-0.1" id="Ske1ocghw3y" kvg:type="㇑" transform="matrix(1,0,0,1,1196,-4)" xmlns:kvg="http://kanjivg.tagaini.net"></path><path class="stroke_order_diagram--existing_path" d="M22.06,75.55c0.09,1.11-0.08,2.19-0.51,3.22c-1.3,3.52-4.8,9.02-8.55,12.81" id="Ske1ocghw3z" kvg:type="㇒" transform="matrix(1,0,0,1,1196,-4)" xmlns:kvg="http://kanjivg.tagaini.net"></path><path class="stroke_order_diagram--existing_path" d="M44.91,74.72c2.37,2.03,6.25,8.13,6.84,11.3" id="Ske1ocghw40" kvg:type="㇔" transform="matrix(1,0,0,1,1196,-4)" xmlns:kvg="http://kanjivg.tagaini.net"></path><path class="stroke_order_diagram--existing_path" d="M56.11,17.53c1.96,0.5,3.92,0.62,5.89,0.36c7.96-0.62,19.45-2.03,26.25-2.5c1.91-0.22,3.81-0.1,5.7,0.37" id="Ske1ocghw41" kvg:type="㇐" transform="matrix(1,0,0,1,1196,-4)" xmlns:kvg="http://kanjivg.tagaini.net"></path><path class="stroke_order_diagram--existing_path" d="M72.27,20.35c0.05,0.86-0.05,1.71-0.32,2.54c-0.65,2.29-2.7,5.76-4.46,8.36" id="Ske1ocghw42" kvg:type="㇒" transform="matrix(1,0,0,1,1196,-4)" xmlns:kvg="http://kanjivg.tagaini.net"></path><path class="stroke_order_diagram--existing_path" d="M57.75,32.99c1,1,1.21,2.15,1.21,3.6c0,1.14-0.1,25.45-0.07,36.53c0.01,3.07,0.03,5.14,0.07,5.45" id="Ske1ocghw43" kvg:type="㇑" transform="matrix(1,0,0,1,1196,-4)" xmlns:kvg="http://kanjivg.tagaini.net"></path><path class="stroke_order_diagram--existing_path" d="M59.79,34.44c2.51-0.16,19.76-2.38,25.06-2.98c3.32-0.38,4.92,1.31,4.86,4.67c-0.09,5.64,0.04,25.73,0.12,36.5c0.02,2.84-0.05,4.95-0.05,5.83" id="Ske1ocghw44" kvg:type="㇕a" transform="matrix(1,0,0,1,1196,-4)" xmlns:kvg="http://kanjivg.tagaini.net"></path><path class="stroke_order_diagram--existing_path" d="M59.75,48.42c5.13-0.42,23.38-1.95,29.36-2.34" id="Ske1ocghw45" kvg:type="㇐a" transform="matrix(1,0,0,1,1196,-4)" xmlns:kvg="http://kanjivg.tagaini.net"></path><path class="stroke_order_diagram--current_path" d="M59.97,62.68c10.65-0.8,21.44-1.81,29.08-2.32" id="kvg:09834-s13" kvg:type="㇐a" transform="matrix(1,0,0,1,1196,-4)" xmlns:kvg="http://kanjivg.tagaini.net"></path><path class="stroke_order_diagram--current_path" d="M59.97,62.68c10.65-0.8,21.44-1.81,29.08-2.32" id="Ske1ocghw47" kvg:type="㇐a" transform="matrix(1,0,0,1,1196,-4)" xmlns:kvg="http://kanjivg.tagaini.net"></path><circle class="stroke_order_diagram--path_start" cx="59.97" cy="62.68" r="4" transform="matrix(1,0,0,1,1196,-4)"></circle><line class="stroke_order_diagram--guide_line" x1="1350" x2="1350" y1="1" y2="99"></line><line class="stroke_order_diagram--bounding_box" x1="1399" x2="1399" y1="1" y2="99"></line><path class="stroke_order_diagram--existing_path" d="M44.57,16.8c-0.32,1.57-0.73,2.12-1.87,2.69c-3.4,2.3-11.1,6.32-19.02,8.27" id="Ske1ocghw4a" kvg:type="㇒" transform="matrix(1,0,0,1,1296,-4)" xmlns:kvg="http://kanjivg.tagaini.net"></path><path class="stroke_order_diagram--existing_path" d="M21.25,14.75c0.93,0.95,1.07,2.28,0.9,3.5c0.02,3.81,0.08,14.65,0.08,16.11c0,7.82,6.58,6.74,12.54,6.74c10.01,0,11.99-0.76,11.99-4.75" id="Ske1ocghw4b" kvg:type="㇟" transform="matrix(1,0,0,1,1296,-4)" xmlns:kvg="http://kanjivg.tagaini.net"></path><path class="stroke_order_diagram--existing_path" d="M21.57,52.35c1.99,0.11,3.97,0.02,5.94-0.27c4.29-0.5,10.27-1.11,14.11-1.35c1.53-0.13,3.05-0.08,4.58,0.14" id="Ske1ocghw4c" kvg:type="㇐" transform="matrix(1,0,0,1,1296,-4)" xmlns:kvg="http://kanjivg.tagaini.net"></path><path class="stroke_order_diagram--existing_path" d="M14.09,65.35c2.12,0.44,4.21,0.46,6.29,0.06c5.86-0.82,17.27-2.18,24.76-2.41c2.11-0.35,4.22-0.33,6.31,0.05" id="Ske1ocghw4d" kvg:type="㇐" transform="matrix(1,0,0,1,1296,-4)" xmlns:kvg="http://kanjivg.tagaini.net"></path><path class="stroke_order_diagram--existing_path" d="M34.1,66.12c0.05,0.29,0.72,1.5,0.72,3.33c0,8.8,0.1,18.53,0.1,21.52c0,6.34-3.07,2.03-5.46-0.1" id="Ske1ocghw4e" kvg:type="㇑" transform="matrix(1,0,0,1,1296,-4)" xmlns:kvg="http://kanjivg.tagaini.net"></path><path class="stroke_order_diagram--existing_path" d="M22.06,75.55c0.09,1.11-0.08,2.19-0.51,3.22c-1.3,3.52-4.8,9.02-8.55,12.81" id="Ske1ocghw4f" kvg:type="㇒" transform="matrix(1,0,0,1,1296,-4)" xmlns:kvg="http://kanjivg.tagaini.net"></path><path class="stroke_order_diagram--existing_path" d="M44.91,74.72c2.37,2.03,6.25,8.13,6.84,11.3" id="Ske1ocghw4g" kvg:type="㇔" transform="matrix(1,0,0,1,1296,-4)" xmlns:kvg="http://kanjivg.tagaini.net"></path><path class="stroke_order_diagram--existing_path" d="M56.11,17.53c1.96,0.5,3.92,0.62,5.89,0.36c7.96-0.62,19.45-2.03,26.25-2.5c1.91-0.22,3.81-0.1,5.7,0.37" id="Ske1ocghw4h" kvg:type="㇐" transform="matrix(1,0,0,1,1296,-4)" xmlns:kvg="http://kanjivg.tagaini.net"></path><path class="stroke_order_diagram--existing_path" d="M72.27,20.35c0.05,0.86-0.05,1.71-0.32,2.54c-0.65,2.29-2.7,5.76-4.46,8.36" id="Ske1ocghw4i" kvg:type="㇒" transform="matrix(1,0,0,1,1296,-4)" xmlns:kvg="http://kanjivg.tagaini.net"></path><path class="stroke_order_diagram--existing_path" d="M57.75,32.99c1,1,1.21,2.15,1.21,3.6c0,1.14-0.1,25.45-0.07,36.53c0.01,3.07,0.03,5.14,0.07,5.45" id="Ske1ocghw4j" kvg:type="㇑" transform="matrix(1,0,0,1,1296,-4)" xmlns:kvg="http://kanjivg.tagaini.net"></path><path class="stroke_order_diagram--existing_path" d="M59.79,34.44c2.51-0.16,19.76-2.38,25.06-2.98c3.32-0.38,4.92,1.31,4.86,4.67c-0.09,5.64,0.04,25.73,0.12,36.5c0.02,2.84-0.05,4.95-0.05,5.83" id="Ske1ocghw4k" kvg:type="㇕a" transform="matrix(1,0,0,1,1296,-4)" xmlns:kvg="http://kanjivg.tagaini.net"></path><path class="stroke_order_diagram--existing_path" d="M59.75,48.42c5.13-0.42,23.38-1.95,29.36-2.34" id="Ske1ocghw4l" kvg:type="㇐a" transform="matrix(1,0,0,1,1296,-4)" xmlns:kvg="http://kanjivg.tagaini.net"></path><path class="stroke_order_diagram--existing_path" d="M59.97,62.68c10.65-0.8,21.44-1.81,29.08-2.32" id="Ske1ocghw4m" kvg:type="㇐a" transform="matrix(1,0,0,1,1296,-4)" xmlns:kvg="http://kanjivg.tagaini.net"></path><path class="stroke_order_diagram--current_path" d="M59.69,76.94c6.44-1.08,20.2-1.53,28.33-2.08" id="kvg:09834-s14" kvg:type="㇐a" transform="matrix(1,0,0,1,1296,-4)" xmlns:kvg="http://kanjivg.tagaini.net"></path><path class="stroke_order_diagram--current_path" d="M59.69,76.94c6.44-1.08,20.2-1.53,28.33-2.08" id="Ske1ocghw4o" kvg:type="㇐a" transform="matrix(1,0,0,1,1296,-4)" xmlns:kvg="http://kanjivg.tagaini.net"></path><circle class="stroke_order_diagram--path_start" cx="59.69" cy="76.94" r="4" transform="matrix(1,0,0,1,1296,-4)"></circle><line class="stroke_order_diagram--guide_line" x1="1450" x2="1450" y1="1" y2="99"></line><line class="stroke_order_diagram--bounding_box" x1="1499" x2="1499" y1="1" y2="99"></line><path class="stroke_order_diagram--existing_path" d="M44.57,16.8c-0.32,1.57-0.73,2.12-1.87,2.69c-3.4,2.3-11.1,6.32-19.02,8.27" id="Ske1ocghw4r" kvg:type="㇒" transform="matrix(1,0,0,1,1396,-4)" xmlns:kvg="http://kanjivg.tagaini.net"></path><path class="stroke_order_diagram--existing_path" d="M21.25,14.75c0.93,0.95,1.07,2.28,0.9,3.5c0.02,3.81,0.08,14.65,0.08,16.11c0,7.82,6.58,6.74,12.54,6.74c10.01,0,11.99-0.76,11.99-4.75" id="Ske1ocghw4s" kvg:type="㇟" transform="matrix(1,0,0,1,1396,-4)" xmlns:kvg="http://kanjivg.tagaini.net"></path><path class="stroke_order_diagram--existing_path" d="M21.57,52.35c1.99,0.11,3.97,0.02,5.94-0.27c4.29-0.5,10.27-1.11,14.11-1.35c1.53-0.13,3.05-0.08,4.58,0.14" id="Ske1ocghw4t" kvg:type="㇐" transform="matrix(1,0,0,1,1396,-4)" xmlns:kvg="http://kanjivg.tagaini.net"></path><path class="stroke_order_diagram--existing_path" d="M14.09,65.35c2.12,0.44,4.21,0.46,6.29,0.06c5.86-0.82,17.27-2.18,24.76-2.41c2.11-0.35,4.22-0.33,6.31,0.05" id="Ske1ocghw4u" kvg:type="㇐" transform="matrix(1,0,0,1,1396,-4)" xmlns:kvg="http://kanjivg.tagaini.net"></path><path class="stroke_order_diagram--existing_path" d="M34.1,66.12c0.05,0.29,0.72,1.5,0.72,3.33c0,8.8,0.1,18.53,0.1,21.52c0,6.34-3.07,2.03-5.46-0.1" id="Ske1ocghw4v" kvg:type="㇑" transform="matrix(1,0,0,1,1396,-4)" xmlns:kvg="http://kanjivg.tagaini.net"></path><path class="stroke_order_diagram--existing_path" d="M22.06,75.55c0.09,1.11-0.08,2.19-0.51,3.22c-1.3,3.52-4.8,9.02-8.55,12.81" id="Ske1ocghw4w" kvg:type="㇒" transform="matrix(1,0,0,1,1396,-4)" xmlns:kvg="http://kanjivg.tagaini.net"></path><path class="stroke_order_diagram--existing_path" d="M44.91,74.72c2.37,2.03,6.25,8.13,6.84,11.3" id="Ske1ocghw4x" kvg:type="㇔" transform="matrix(1,0,0,1,1396,-4)" xmlns:kvg="http://kanjivg.tagaini.net"></path><path class="stroke_order_diagram--existing_path" d="M56.11,17.53c1.96,0.5,3.92,0.62,5.89,0.36c7.96-0.62,19.45-2.03,26.25-2.5c1.91-0.22,3.81-0.1,5.7,0.37" id="Ske1ocghw4y" kvg:type="㇐" transform="matrix(1,0,0,1,1396,-4)" xmlns:kvg="http://kanjivg.tagaini.net"></path><path class="stroke_order_diagram--existing_path" d="M72.27,20.35c0.05,0.86-0.05,1.71-0.32,2.54c-0.65,2.29-2.7,5.76-4.46,8.36" id="Ske1ocghw4z" kvg:type="㇒" transform="matrix(1,0,0,1,1396,-4)" xmlns:kvg="http://kanjivg.tagaini.net"></path><path class="stroke_order_diagram--existing_path" d="M57.75,32.99c1,1,1.21,2.15,1.21,3.6c0,1.14-0.1,25.45-0.07,36.53c0.01,3.07,0.03,5.14,0.07,5.45" id="Ske1ocghw50" kvg:type="㇑" transform="matrix(1,0,0,1,1396,-4)" xmlns:kvg="http://kanjivg.tagaini.net"></path><path class="stroke_order_diagram--existing_path" d="M59.79,34.44c2.51-0.16,19.76-2.38,25.06-2.98c3.32-0.38,4.92,1.31,4.86,4.67c-0.09,5.64,0.04,25.73,0.12,36.5c0.02,2.84-0.05,4.95-0.05,5.83" id="Ske1ocghw51" kvg:type="㇕a" transform="matrix(1,0,0,1,1396,-4)" xmlns:kvg="http://kanjivg.tagaini.net"></path><path class="stroke_order_diagram--existing_path" d="M59.75,48.42c5.13-0.42,23.38-1.95,29.36-2.34" id="Ske1ocghw52" kvg:type="㇐a" transform="matrix(1,0,0,1,1396,-4)" xmlns:kvg="http://kanjivg.tagaini.net"></path><path class="stroke_order_diagram--existing_path" d="M59.97,62.68c10.65-0.8,21.44-1.81,29.08-2.32" id="Ske1ocghw53" kvg:type="㇐a" transform="matrix(1,0,0,1,1396,-4)" xmlns:kvg="http://kanjivg.tagaini.net"></path><path class="stroke_order_diagram--existing_path" d="M59.69,76.94c6.44-1.08,20.2-1.53,28.33-2.08" id="Ske1ocghw54" kvg:type="㇐a" transform="matrix(1,0,0,1,1396,-4)" xmlns:kvg="http://kanjivg.tagaini.net"></path><path class="stroke_order_diagram--current_path" d="M66.63,82.07c-0.06,1.61-0.65,2.92-1.77,3.92c-2.91,3.11-8.69,8.22-13.2,11.27" id="kvg:09834-s15" kvg:type="㇒" transform="matrix(1,0,0,1,1396,-4)" xmlns:kvg="http://kanjivg.tagaini.net"></path><path class="stroke_order_diagram--current_path" d="M66.63,82.07c-0.06,1.61-0.65,2.92-1.77,3.92c-2.91,3.11-8.69,8.22-13.2,11.27" id="Ske1ocghw56" kvg:type="㇒" transform="matrix(1,0,0,1,1396,-4)" xmlns:kvg="http://kanjivg.tagaini.net"></path><circle class="stroke_order_diagram--path_start" cx="66.63" cy="82.07" r="4" transform="matrix(1,0,0,1,1396,-4)"></circle><line class="stroke_order_diagram--guide_line" x1="1550" x2="1550" y1="1" y2="99"></line><line class="stroke_order_diagram--bounding_box" x1="1599" x2="1599" y1="1" y2="99"></line><path class="stroke_order_diagram--existing_path" d="M44.57,16.8c-0.32,1.57-0.73,2.12-1.87,2.69c-3.4,2.3-11.1,6.32-19.02,8.27" id="Ske1ocghw59" kvg:type="㇒" transform="matrix(1,0,0,1,1496,-4)" xmlns:kvg="http://kanjivg.tagaini.net"></path><path class="stroke_order_diagram--existing_path" d="M21.25,14.75c0.93,0.95,1.07,2.28,0.9,3.5c0.02,3.81,0.08,14.65,0.08,16.11c0,7.82,6.58,6.74,12.54,6.74c10.01,0,11.99-0.76,11.99-4.75" id="Ske1ocghw5a" kvg:type="㇟" transform="matrix(1,0,0,1,1496,-4)" xmlns:kvg="http://kanjivg.tagaini.net"></path><path class="stroke_order_diagram--existing_path" d="M21.57,52.35c1.99,0.11,3.97,0.02,5.94-0.27c4.29-0.5,10.27-1.11,14.11-1.35c1.53-0.13,3.05-0.08,4.58,0.14" id="Ske1ocghw5b" kvg:type="㇐" transform="matrix(1,0,0,1,1496,-4)" xmlns:kvg="http://kanjivg.tagaini.net"></path><path class="stroke_order_diagram--existing_path" d="M14.09,65.35c2.12,0.44,4.21,0.46,6.29,0.06c5.86-0.82,17.27-2.18,24.76-2.41c2.11-0.35,4.22-0.33,6.31,0.05" id="Ske1ocghw5c" kvg:type="㇐" transform="matrix(1,0,0,1,1496,-4)" xmlns:kvg="http://kanjivg.tagaini.net"></path><path class="stroke_order_diagram--existing_path" d="M34.1,66.12c0.05,0.29,0.72,1.5,0.72,3.33c0,8.8,0.1,18.53,0.1,21.52c0,6.34-3.07,2.03-5.46-0.1" id="Ske1ocghw5d" kvg:type="㇑" transform="matrix(1,0,0,1,1496,-4)" xmlns:kvg="http://kanjivg.tagaini.net"></path><path class="stroke_order_diagram--existing_path" d="M22.06,75.55c0.09,1.11-0.08,2.19-0.51,3.22c-1.3,3.52-4.8,9.02-8.55,12.81" id="Ske1ocghw5e" kvg:type="㇒" transform="matrix(1,0,0,1,1496,-4)" xmlns:kvg="http://kanjivg.tagaini.net"></path><path class="stroke_order_diagram--existing_path" d="M44.91,74.72c2.37,2.03,6.25,8.13,6.84,11.3" id="Ske1ocghw5f" kvg:type="㇔" transform="matrix(1,0,0,1,1496,-4)" xmlns:kvg="http://kanjivg.tagaini.net"></path><path class="stroke_order_diagram--existing_path" d="M56.11,17.53c1.96,0.5,3.92,0.62,5.89,0.36c7.96-0.62,19.45-2.03,26.25-2.5c1.91-0.22,3.81-0.1,5.7,0.37" id="Ske1ocghw5g" kvg:type="㇐" transform="matrix(1,0,0,1,1496,-4)" xmlns:kvg="http://kanjivg.tagaini.net"></path><path class="stroke_order_diagram--existing_path" d="M72.27,20.35c0.05,0.86-0.05,1.71-0.32,2.54c-0.65,2.29-2.7,5.76-4.46,8.36" id="Ske1ocghw5h" kvg:type="㇒" transform="matrix(1,0,0,1,1496,-4)" xmlns:kvg="http://kanjivg.tagaini.net"></path><path class="stroke_order_diagram--existing_path" d="M57.75,32.99c1,1,1.21,2.15,1.21,3.6c0,1.14-0.1,25.45-0.07,36.53c0.01,3.07,0.03,5.14,0.07,5.45" id="Ske1ocghw5i" kvg:type="㇑" transform="matrix(1,0,0,1,1496,-4)" xmlns:kvg="http://kanjivg.tagaini.net"></path><path class="stroke_order_diagram--existing_path" d="M59.79,34.44c2.51-0.16,19.76-2.38,25.06-2.98c3.32-0.38,4.92,1.31,4.86,4.67c-0.09,5.64,0.04,25.73,0.12,36.5c0.02,2.84-0.05,4.95-0.05,5.83" id="Ske1ocghw5j" kvg:type="㇕a" transform="matrix(1,0,0,1,1496,-4)" xmlns:kvg="http://kanjivg.tagaini.net"></path><path class="stroke_order_diagram--existing_path" d="M59.75,48.42c5.13-0.42,23.38-1.95,29.36-2.34" id="Ske1ocghw5k" kvg:type="㇐a" transform="matrix(1,0,0,1,1496,-4)" xmlns:kvg="http://kanjivg.tagaini.net"></path><path class="stroke_order_diagram--existing_path" d="M59.97,62.68c10.65-0.8,21.44-1.81,29.08-2.32" id="Ske1ocghw5l" kvg:type="㇐a" transform="matrix(1,0,0,1,1496,-4)" xmlns:kvg="http://kanjivg.tagaini.net"></path><path class="stroke_order_diagram--existing_path" d="M59.69,76.94c6.44-1.08,20.2-1.53,28.33-2.08" id="Ske1ocghw5m" kvg:type="㇐a" transform="matrix(1,0,0,1,1496,-4)" xmlns:kvg="http://kanjivg.tagaini.net"></path><path class="stroke_order_diagram--existing_path" d="M66.63,82.07c-0.06,1.61-0.65,2.92-1.77,3.92c-2.91,3.11-8.69,8.22-13.2,11.27" id="Ske1ocghw5n" kvg:type="㇒" transform="matrix(1,0,0,1,1496,-4)" xmlns:kvg="http://kanjivg.tagaini.net"></path><path class="stroke_order_diagram--current_path" d="M80.7,83.15c5.46,3.66,11.92,10.54,13.4,13.74" id="kvg:09834-s16" kvg:type="㇔" transform="matrix(1,0,0,1,1496,-4)" xmlns:kvg="http://kanjivg.tagaini.net"></path><path class="stroke_order_diagram--current_path" d="M80.7,83.15c5.46,3.66,11.92,10.54,13.4,13.74" id="Ske1ocghw5p" kvg:type="㇔" transform="matrix(1,0,0,1,1496,-4)" xmlns:kvg="http://kanjivg.tagaini.net"></path><circle class="stroke_order_diagram--path_start" cx="80.7" cy="83.15" r="4" transform="matrix(1,0,0,1,1496,-4)"></circle></svg>