<svg class="stroke_order_diagram--svg_container_for_518662c4d5dda796580017e2" style="height: 100px; width: 1600px;" viewbox="0 0 1600 100"><desc>Created with Snap</desc><defs></defs><line class="stroke_order_diagram--bounding_box" x1="1" x2="1599" y1="1" y2="1"></line><line class="stroke_order_diagram--bounding_box" x1="1" x2="1" y1="1" y2="99"></line><line class="stroke_order_diagram--bounding_box" x1="1" x2="1599" y1="99" y2="99"></line><line class="stroke_order_diagram--guide_line" x1="0" x2="1600" y1="50" y2="50"></line><line class="stroke_order_diagram--guide_line" x1="50" x2="50" y1="1" y2="99"></line><line class="stroke_order_diagram--bounding_box" x1="99" x2="99" y1="1" y2="99"></line><path class="stroke_order_diagram--current_path" d="M15.74,17.06c0.51,0.94,0.99,2.63,0.99,3.94c-0.05,10.27-0.29,38.94-0.97,41.77" id="kvg:099ed-s1" kvg:type="㇑" transform="matrix(1,0,0,1,-4,-4)" xmlns:kvg="http://kanjivg.tagaini.net"></path><path class="stroke_order_diagram--current_path" d="M15.74,17.06c0.51,0.94,0.99,2.63,0.99,3.94c-0.05,10.27-0.29,38.94-0.97,41.77" id="Ske34cr27p" kvg:type="㇑" transform="matrix(1,0,0,1,-4,-4)" xmlns:kvg="http://kanjivg.tagaini.net"></path><circle class="stroke_order_diagram--path_start" cx="15.74" cy="17.06" r="4" transform="matrix(1,0,0,1,-4,-4)"></circle><line class="stroke_order_diagram--guide_line" x1="150" x2="150" y1="1" y2="99"></line><line class="stroke_order_diagram--bounding_box" x1="199" x2="199" y1="1" y2="99"></line><path class="stroke_order_diagram--existing_path" d="M15.74,17.06c0.51,0.94,0.99,2.63,0.99,3.94c-0.05,10.27-0.29,38.94-0.97,41.77" id="Ske34cr27s" kvg:type="㇑" transform="matrix(1,0,0,1,96,-4)" xmlns:kvg="http://kanjivg.tagaini.net"></path><path class="stroke_order_diagram--current_path" d="M17.27,18.19c7.98-0.69,21.4-2.97,23.76-3.34c0.94-0.15,2.53-0.26,3-0.03" id="kvg:099ed-s2" kvg:type="㇐b" transform="matrix(1,0,0,1,96,-4)" xmlns:kvg="http://kanjivg.tagaini.net"></path><path class="stroke_order_diagram--current_path" d="M17.27,18.19c7.98-0.69,21.4-2.97,23.76-3.34c0.94-0.15,2.53-0.26,3-0.03" id="Ske34cr27u" kvg:type="㇐b" transform="matrix(1,0,0,1,96,-4)" xmlns:kvg="http://kanjivg.tagaini.net"></path><circle class="stroke_order_diagram--path_start" cx="17.27" cy="18.19" r="4" transform="matrix(1,0,0,1,96,-4)"></circle><line class="stroke_order_diagram--guide_line" x1="250" x2="250" y1="1" y2="99"></line><line class="stroke_order_diagram--bounding_box" x1="299" x2="299" y1="1" y2="99"></line><path class="stroke_order_diagram--existing_path" d="M15.74,17.06c0.51,0.94,0.99,2.63,0.99,3.94c-0.05,10.27-0.29,38.94-0.97,41.77" id="Ske34cr27x" kvg:type="㇑" transform="matrix(1,0,0,1,196,-4)" xmlns:kvg="http://kanjivg.tagaini.net"></path><path class="stroke_order_diagram--existing_path" d="M17.27,18.19c7.98-0.69,21.4-2.97,23.76-3.34c0.94-0.15,2.53-0.26,3-0.03" id="Ske34cr27y" kvg:type="㇐b" transform="matrix(1,0,0,1,196,-4)" xmlns:kvg="http://kanjivg.tagaini.net"></path><path class="stroke_order_diagram--current_path" d="M29.31,17.75c0.25,0.4,0.96,0.93,0.95,1.58c-0.02,6.55-0.06,29.67-0.25,39.97" id="kvg:099ed-s3" kvg:type="㇑a" transform="matrix(1,0,0,1,196,-4)" xmlns:kvg="http://kanjivg.tagaini.net"></path><path class="stroke_order_diagram--current_path" d="M29.31,17.75c0.25,0.4,0.96,0.93,0.95,1.58c-0.02,6.55-0.06,29.67-0.25,39.97" id="Ske34cr2710" kvg:type="㇑a" transform="matrix(1,0,0,1,196,-4)" xmlns:kvg="http://kanjivg.tagaini.net"></path><circle class="stroke_order_diagram--path_start" cx="29.31" cy="17.75" r="4" transform="matrix(1,0,0,1,196,-4)"></circle><line class="stroke_order_diagram--guide_line" x1="350" x2="350" y1="1" y2="99"></line><line class="stroke_order_diagram--bounding_box" x1="399" x2="399" y1="1" y2="99"></line><path class="stroke_order_diagram--existing_path" d="M15.74,17.06c0.51,0.94,0.99,2.63,0.99,3.94c-0.05,10.27-0.29,38.94-0.97,41.77" id="Ske34cr2713" kvg:type="㇑" transform="matrix(1,0,0,1,296,-4)" xmlns:kvg="http://kanjivg.tagaini.net"></path><path class="stroke_order_diagram--existing_path" d="M17.27,18.19c7.98-0.69,21.4-2.97,23.76-3.34c0.94-0.15,2.53-0.26,3-0.03" id="Ske34cr2714" kvg:type="㇐b" transform="matrix(1,0,0,1,296,-4)" xmlns:kvg="http://kanjivg.tagaini.net"></path><path class="stroke_order_diagram--existing_path" d="M29.31,17.75c0.25,0.4,0.96,0.93,0.95,1.58c-0.02,6.55-0.06,29.67-0.25,39.97" id="Ske34cr2715" kvg:type="㇑a" transform="matrix(1,0,0,1,296,-4)" xmlns:kvg="http://kanjivg.tagaini.net"></path><path class="stroke_order_diagram--current_path" d="M17.16,32.36c6.26-0.62,18.75-3.2,21.44-3.61c0.94-0.15,2.53-0.26,3-0.03" id="kvg:099ed-s4" kvg:type="㇐b" transform="matrix(1,0,0,1,296,-4)" xmlns:kvg="http://kanjivg.tagaini.net"></path><path class="stroke_order_diagram--current_path" d="M17.16,32.36c6.26-0.62,18.75-3.2,21.44-3.61c0.94-0.15,2.53-0.26,3-0.03" id="Ske34cr2717" kvg:type="㇐b" transform="matrix(1,0,0,1,296,-4)" xmlns:kvg="http://kanjivg.tagaini.net"></path><circle class="stroke_order_diagram--path_start" cx="17.16" cy="32.36" r="4" transform="matrix(1,0,0,1,296,-4)"></circle><line class="stroke_order_diagram--guide_line" x1="450" x2="450" y1="1" y2="99"></line><line class="stroke_order_diagram--bounding_box" x1="499" x2="499" y1="1" y2="99"></line><path class="stroke_order_diagram--existing_path" d="M15.74,17.06c0.51,0.94,0.99,2.63,0.99,3.94c-0.05,10.27-0.29,38.94-0.97,41.77" id="Ske34cr271a" kvg:type="㇑" transform="matrix(1,0,0,1,396,-4)" xmlns:kvg="http://kanjivg.tagaini.net"></path><path class="stroke_order_diagram--existing_path" d="M17.27,18.19c7.98-0.69,21.4-2.97,23.76-3.34c0.94-0.15,2.53-0.26,3-0.03" id="Ske34cr271b" kvg:type="㇐b" transform="matrix(1,0,0,1,396,-4)" xmlns:kvg="http://kanjivg.tagaini.net"></path><path class="stroke_order_diagram--existing_path" d="M29.31,17.75c0.25,0.4,0.96,0.93,0.95,1.58c-0.02,6.55-0.06,29.67-0.25,39.97" id="Ske34cr271c" kvg:type="㇑a" transform="matrix(1,0,0,1,396,-4)" xmlns:kvg="http://kanjivg.tagaini.net"></path><path class="stroke_order_diagram--existing_path" d="M17.16,32.36c6.26-0.62,18.75-3.2,21.44-3.61c0.94-0.15,2.53-0.26,3-0.03" id="Ske34cr271d" kvg:type="㇐b" transform="matrix(1,0,0,1,396,-4)" xmlns:kvg="http://kanjivg.tagaini.net"></path><path class="stroke_order_diagram--current_path" d="M17.26,46.19c6.26-0.62,18.75-2.73,21.44-3.14c0.94-0.15,2.53-0.26,3-0.03" id="kvg:099ed-s5" kvg:type="㇐b" transform="matrix(1,0,0,1,396,-4)" xmlns:kvg="http://kanjivg.tagaini.net"></path><path class="stroke_order_diagram--current_path" d="M17.26,46.19c6.26-0.62,18.75-2.73,21.44-3.14c0.94-0.15,2.53-0.26,3-0.03" id="Ske34cr271f" kvg:type="㇐b" transform="matrix(1,0,0,1,396,-4)" xmlns:kvg="http://kanjivg.tagaini.net"></path><circle class="stroke_order_diagram--path_start" cx="17.26" cy="46.19" r="4" transform="matrix(1,0,0,1,396,-4)"></circle><line class="stroke_order_diagram--guide_line" x1="550" x2="550" y1="1" y2="99"></line><line class="stroke_order_diagram--bounding_box" x1="599" x2="599" y1="1" y2="99"></line><path class="stroke_order_diagram--existing_path" d="M15.74,17.06c0.51,0.94,0.99,2.63,0.99,3.94c-0.05,10.27-0.29,38.94-0.97,41.77" id="Ske34cr271i" kvg:type="㇑" transform="matrix(1,0,0,1,496,-4)" xmlns:kvg="http://kanjivg.tagaini.net"></path><path class="stroke_order_diagram--existing_path" d="M17.27,18.19c7.98-0.69,21.4-2.97,23.76-3.34c0.94-0.15,2.53-0.26,3-0.03" id="Ske34cr271j" kvg:type="㇐b" transform="matrix(1,0,0,1,496,-4)" xmlns:kvg="http://kanjivg.tagaini.net"></path><path class="stroke_order_diagram--existing_path" d="M29.31,17.75c0.25,0.4,0.96,0.93,0.95,1.58c-0.02,6.55-0.06,29.67-0.25,39.97" id="Ske34cr271k" kvg:type="㇑a" transform="matrix(1,0,0,1,496,-4)" xmlns:kvg="http://kanjivg.tagaini.net"></path><path class="stroke_order_diagram--existing_path" d="M17.16,32.36c6.26-0.62,18.75-3.2,21.44-3.61c0.94-0.15,2.53-0.26,3-0.03" id="Ske34cr271l" kvg:type="㇐b" transform="matrix(1,0,0,1,496,-4)" xmlns:kvg="http://kanjivg.tagaini.net"></path><path class="stroke_order_diagram--existing_path" d="M17.26,46.19c6.26-0.62,18.75-2.73,21.44-3.14c0.94-0.15,2.53-0.26,3-0.03" id="Ske34cr271m" kvg:type="㇐b" transform="matrix(1,0,0,1,496,-4)" xmlns:kvg="http://kanjivg.tagaini.net"></path><path class="stroke_order_diagram--current_path" d="M16.49,62.13c6.76-1.38,21.04-3.28,24.43-3.92c4.33-0.81,5.85,0.99,5.45,4.85C45.25,73.75,41.75,86,37.75,94.34c-2.89,6.04-6.32,0.43-7.21-0.91" id="kvg:099ed-s6" kvg:type="㇆a" transform="matrix(1,0,0,1,496,-4)" xmlns:kvg="http://kanjivg.tagaini.net"></path><path class="stroke_order_diagram--current_path" d="M16.49,62.13c6.76-1.38,21.04-3.28,24.43-3.92c4.33-0.81,5.85,0.99,5.45,4.85C45.25,73.75,41.75,86,37.75,94.34c-2.89,6.04-6.32,0.43-7.21-0.91" id="Ske34cr271o" kvg:type="㇆a" transform="matrix(1,0,0,1,496,-4)" xmlns:kvg="http://kanjivg.tagaini.net"></path><circle class="stroke_order_diagram--path_start" cx="16.49" cy="62.13" r="4" transform="matrix(1,0,0,1,496,-4)"></circle><line class="stroke_order_diagram--guide_line" x1="650" x2="650" y1="1" y2="99"></line><line class="stroke_order_diagram--bounding_box" x1="699" x2="699" y1="1" y2="99"></line><path class="stroke_order_diagram--existing_path" d="M15.74,17.06c0.51,0.94,0.99,2.63,0.99,3.94c-0.05,10.27-0.29,38.94-0.97,41.77" id="Ske34cr271r" kvg:type="㇑" transform="matrix(1,0,0,1,596,-4)" xmlns:kvg="http://kanjivg.tagaini.net"></path><path class="stroke_order_diagram--existing_path" d="M17.27,18.19c7.98-0.69,21.4-2.97,23.76-3.34c0.94-0.15,2.53-0.26,3-0.03" id="Ske34cr271s" kvg:type="㇐b" transform="matrix(1,0,0,1,596,-4)" xmlns:kvg="http://kanjivg.tagaini.net"></path><path class="stroke_order_diagram--existing_path" d="M29.31,17.75c0.25,0.4,0.96,0.93,0.95,1.58c-0.02,6.55-0.06,29.67-0.25,39.97" id="Ske34cr271t" kvg:type="㇑a" transform="matrix(1,0,0,1,596,-4)" xmlns:kvg="http://kanjivg.tagaini.net"></path><path class="stroke_order_diagram--existing_path" d="M17.16,32.36c6.26-0.62,18.75-3.2,21.44-3.61c0.94-0.15,2.53-0.26,3-0.03" id="Ske34cr271u" kvg:type="㇐b" transform="matrix(1,0,0,1,596,-4)" xmlns:kvg="http://kanjivg.tagaini.net"></path><path class="stroke_order_diagram--existing_path" d="M17.26,46.19c6.26-0.62,18.75-2.73,21.44-3.14c0.94-0.15,2.53-0.26,3-0.03" id="Ske34cr271v" kvg:type="㇐b" transform="matrix(1,0,0,1,596,-4)" xmlns:kvg="http://kanjivg.tagaini.net"></path><path class="stroke_order_diagram--existing_path" d="M16.49,62.13c6.76-1.38,21.04-3.28,24.43-3.92c4.33-0.81,5.85,0.99,5.45,4.85C45.25,73.75,41.75,86,37.75,94.34c-2.89,6.04-6.32,0.43-7.21-0.91" id="Ske34cr271w" kvg:type="㇆a" transform="matrix(1,0,0,1,596,-4)" xmlns:kvg="http://kanjivg.tagaini.net"></path><path class="stroke_order_diagram--current_path" d="M12.64,74.65c0.37,6.29-1.25,11.81-1.64,13.07" id="kvg:099ed-s7" kvg:type="㇔" transform="matrix(1,0,0,1,596,-4)" xmlns:kvg="http://kanjivg.tagaini.net"></path><path class="stroke_order_diagram--current_path" d="M12.64,74.65c0.37,6.29-1.25,11.81-1.64,13.07" id="Ske34cr271y" kvg:type="㇔" transform="matrix(1,0,0,1,596,-4)" xmlns:kvg="http://kanjivg.tagaini.net"></path><circle class="stroke_order_diagram--path_start" cx="12.64" cy="74.65" r="4" transform="matrix(1,0,0,1,596,-4)"></circle><line class="stroke_order_diagram--guide_line" x1="750" x2="750" y1="1" y2="99"></line><line class="stroke_order_diagram--bounding_box" x1="799" x2="799" y1="1" y2="99"></line><path class="stroke_order_diagram--existing_path" d="M15.74,17.06c0.51,0.94,0.99,2.63,0.99,3.94c-0.05,10.27-0.29,38.94-0.97,41.77" id="Ske34cr2721" kvg:type="㇑" transform="matrix(1,0,0,1,696,-4)" xmlns:kvg="http://kanjivg.tagaini.net"></path><path class="stroke_order_diagram--existing_path" d="M17.27,18.19c7.98-0.69,21.4-2.97,23.76-3.34c0.94-0.15,2.53-0.26,3-0.03" id="Ske34cr2722" kvg:type="㇐b" transform="matrix(1,0,0,1,696,-4)" xmlns:kvg="http://kanjivg.tagaini.net"></path><path class="stroke_order_diagram--existing_path" d="M29.31,17.75c0.25,0.4,0.96,0.93,0.95,1.58c-0.02,6.55-0.06,29.67-0.25,39.97" id="Ske34cr2723" kvg:type="㇑a" transform="matrix(1,0,0,1,696,-4)" xmlns:kvg="http://kanjivg.tagaini.net"></path><path class="stroke_order_diagram--existing_path" d="M17.16,32.36c6.26-0.62,18.75-3.2,21.44-3.61c0.94-0.15,2.53-0.26,3-0.03" id="Ske34cr2724" kvg:type="㇐b" transform="matrix(1,0,0,1,696,-4)" xmlns:kvg="http://kanjivg.tagaini.net"></path><path class="stroke_order_diagram--existing_path" d="M17.26,46.19c6.26-0.62,18.75-2.73,21.44-3.14c0.94-0.15,2.53-0.26,3-0.03" id="Ske34cr2725" kvg:type="㇐b" transform="matrix(1,0,0,1,696,-4)" xmlns:kvg="http://kanjivg.tagaini.net"></path><path class="stroke_order_diagram--existing_path" d="M16.49,62.13c6.76-1.38,21.04-3.28,24.43-3.92c4.33-0.81,5.85,0.99,5.45,4.85C45.25,73.75,41.75,86,37.75,94.34c-2.89,6.04-6.32,0.43-7.21-0.91" id="Ske34cr2726" kvg:type="㇆a" transform="matrix(1,0,0,1,696,-4)" xmlns:kvg="http://kanjivg.tagaini.net"></path><path class="stroke_order_diagram--existing_path" d="M12.64,74.65c0.37,6.29-1.25,11.81-1.64,13.07" id="Ske34cr2727" kvg:type="㇔" transform="matrix(1,0,0,1,696,-4)" xmlns:kvg="http://kanjivg.tagaini.net"></path><path class="stroke_order_diagram--current_path" d="M18.6,72.07c1.26,2.61,2.33,5.89,2.62,10.54" id="kvg:099ed-s8" kvg:type="㇔" transform="matrix(1,0,0,1,696,-4)" xmlns:kvg="http://kanjivg.tagaini.net"></path><path class="stroke_order_diagram--current_path" d="M18.6,72.07c1.26,2.61,2.33,5.89,2.62,10.54" id="Ske34cr2729" kvg:type="㇔" transform="matrix(1,0,0,1,696,-4)" xmlns:kvg="http://kanjivg.tagaini.net"></path><circle class="stroke_order_diagram--path_start" cx="18.6" cy="72.07" r="4" transform="matrix(1,0,0,1,696,-4)"></circle><line class="stroke_order_diagram--guide_line" x1="850" x2="850" y1="1" y2="99"></line><line class="stroke_order_diagram--bounding_box" x1="899" x2="899" y1="1" y2="99"></line><path class="stroke_order_diagram--existing_path" d="M15.74,17.06c0.51,0.94,0.99,2.63,0.99,3.94c-0.05,10.27-0.29,38.94-0.97,41.77" id="Ske34cr272c" kvg:type="㇑" transform="matrix(1,0,0,1,796,-4)" xmlns:kvg="http://kanjivg.tagaini.net"></path><path class="stroke_order_diagram--existing_path" d="M17.27,18.19c7.98-0.69,21.4-2.97,23.76-3.34c0.94-0.15,2.53-0.26,3-0.03" id="Ske34cr272d" kvg:type="㇐b" transform="matrix(1,0,0,1,796,-4)" xmlns:kvg="http://kanjivg.tagaini.net"></path><path class="stroke_order_diagram--existing_path" d="M29.31,17.75c0.25,0.4,0.96,0.93,0.95,1.58c-0.02,6.55-0.06,29.67-0.25,39.97" id="Ske34cr272e" kvg:type="㇑a" transform="matrix(1,0,0,1,796,-4)" xmlns:kvg="http://kanjivg.tagaini.net"></path><path class="stroke_order_diagram--existing_path" d="M17.16,32.36c6.26-0.62,18.75-3.2,21.44-3.61c0.94-0.15,2.53-0.26,3-0.03" id="Ske34cr272f" kvg:type="㇐b" transform="matrix(1,0,0,1,796,-4)" xmlns:kvg="http://kanjivg.tagaini.net"></path><path class="stroke_order_diagram--existing_path" d="M17.26,46.19c6.26-0.62,18.75-2.73,21.44-3.14c0.94-0.15,2.53-0.26,3-0.03" id="Ske34cr272g" kvg:type="㇐b" transform="matrix(1,0,0,1,796,-4)" xmlns:kvg="http://kanjivg.tagaini.net"></path><path class="stroke_order_diagram--existing_path" d="M16.49,62.13c6.76-1.38,21.04-3.28,24.43-3.92c4.33-0.81,5.85,0.99,5.45,4.85C45.25,73.75,41.75,86,37.75,94.34c-2.89,6.04-6.32,0.43-7.21-0.91" id="Ske34cr272h" kvg:type="㇆a" transform="matrix(1,0,0,1,796,-4)" xmlns:kvg="http://kanjivg.tagaini.net"></path><path class="stroke_order_diagram--existing_path" d="M12.64,74.65c0.37,6.29-1.25,11.81-1.64,13.07" id="Ske34cr272i" kvg:type="㇔" transform="matrix(1,0,0,1,796,-4)" xmlns:kvg="http://kanjivg.tagaini.net"></path><path class="stroke_order_diagram--existing_path" d="M18.6,72.07c1.26,2.61,2.33,5.89,2.62,10.54" id="Ske34cr272j" kvg:type="㇔" transform="matrix(1,0,0,1,796,-4)" xmlns:kvg="http://kanjivg.tagaini.net"></path><path class="stroke_order_diagram--current_path" d="M27.1,70.71c0.62,1.04,2.83,4.49,3.1,7.9" id="kvg:099ed-s9" kvg:type="㇔" transform="matrix(1,0,0,1,796,-4)" xmlns:kvg="http://kanjivg.tagaini.net"></path><path class="stroke_order_diagram--current_path" d="M27.1,70.71c0.62,1.04,2.83,4.49,3.1,7.9" id="Ske34cr272l" kvg:type="㇔" transform="matrix(1,0,0,1,796,-4)" xmlns:kvg="http://kanjivg.tagaini.net"></path><circle class="stroke_order_diagram--path_start" cx="27.1" cy="70.71" r="4" transform="matrix(1,0,0,1,796,-4)"></circle><line class="stroke_order_diagram--guide_line" x1="950" x2="950" y1="1" y2="99"></line><line class="stroke_order_diagram--bounding_box" x1="999" x2="999" y1="1" y2="99"></line><path class="stroke_order_diagram--existing_path" d="M15.74,17.06c0.51,0.94,0.99,2.63,0.99,3.94c-0.05,10.27-0.29,38.94-0.97,41.77" id="Ske34cr272o" kvg:type="㇑" transform="matrix(1,0,0,1,896,-4)" xmlns:kvg="http://kanjivg.tagaini.net"></path><path class="stroke_order_diagram--existing_path" d="M17.27,18.19c7.98-0.69,21.4-2.97,23.76-3.34c0.94-0.15,2.53-0.26,3-0.03" id="Ske34cr272p" kvg:type="㇐b" transform="matrix(1,0,0,1,896,-4)" xmlns:kvg="http://kanjivg.tagaini.net"></path><path class="stroke_order_diagram--existing_path" d="M29.31,17.75c0.25,0.4,0.96,0.93,0.95,1.58c-0.02,6.55-0.06,29.67-0.25,39.97" id="Ske34cr272q" kvg:type="㇑a" transform="matrix(1,0,0,1,896,-4)" xmlns:kvg="http://kanjivg.tagaini.net"></path><path class="stroke_order_diagram--existing_path" d="M17.16,32.36c6.26-0.62,18.75-3.2,21.44-3.61c0.94-0.15,2.53-0.26,3-0.03" id="Ske34cr272r" kvg:type="㇐b" transform="matrix(1,0,0,1,896,-4)" xmlns:kvg="http://kanjivg.tagaini.net"></path><path class="stroke_order_diagram--existing_path" d="M17.26,46.19c6.26-0.62,18.75-2.73,21.44-3.14c0.94-0.15,2.53-0.26,3-0.03" id="Ske34cr272s" kvg:type="㇐b" transform="matrix(1,0,0,1,896,-4)" xmlns:kvg="http://kanjivg.tagaini.net"></path><path class="stroke_order_diagram--existing_path" d="M16.49,62.13c6.76-1.38,21.04-3.28,24.43-3.92c4.33-0.81,5.85,0.99,5.45,4.85C45.25,73.75,41.75,86,37.75,94.34c-2.89,6.04-6.32,0.43-7.21-0.91" id="Ske34cr272t" kvg:type="㇆a" transform="matrix(1,0,0,1,896,-4)" xmlns:kvg="http://kanjivg.tagaini.net"></path><path class="stroke_order_diagram--existing_path" d="M12.64,74.65c0.37,6.29-1.25,11.81-1.64,13.07" id="Ske34cr272u" kvg:type="㇔" transform="matrix(1,0,0,1,896,-4)" xmlns:kvg="http://kanjivg.tagaini.net"></path><path class="stroke_order_diagram--existing_path" d="M18.6,72.07c1.26,2.61,2.33,5.89,2.62,10.54" id="Ske34cr272v" kvg:type="㇔" transform="matrix(1,0,0,1,896,-4)" xmlns:kvg="http://kanjivg.tagaini.net"></path><path class="stroke_order_diagram--existing_path" d="M27.1,70.71c0.62,1.04,2.83,4.49,3.1,7.9" id="Ske34cr272w" kvg:type="㇔" transform="matrix(1,0,0,1,896,-4)" xmlns:kvg="http://kanjivg.tagaini.net"></path><path class="stroke_order_diagram--current_path" d="M33.08,66.83c1.45,2.6,3.84,5.29,4.36,8.74" id="kvg:099ed-s10" kvg:type="㇔" transform="matrix(1,0,0,1,896,-4)" xmlns:kvg="http://kanjivg.tagaini.net"></path><path class="stroke_order_diagram--current_path" d="M33.08,66.83c1.45,2.6,3.84,5.29,4.36,8.74" id="Ske34cr272y" kvg:type="㇔" transform="matrix(1,0,0,1,896,-4)" xmlns:kvg="http://kanjivg.tagaini.net"></path><circle class="stroke_order_diagram--path_start" cx="33.08" cy="66.83" r="4" transform="matrix(1,0,0,1,896,-4)"></circle><line class="stroke_order_diagram--guide_line" x1="1050" x2="1050" y1="1" y2="99"></line><line class="stroke_order_diagram--bounding_box" x1="1099" x2="1099" y1="1" y2="99"></line><path class="stroke_order_diagram--existing_path" d="M15.74,17.06c0.51,0.94,0.99,2.63,0.99,3.94c-0.05,10.27-0.29,38.94-0.97,41.77" id="Ske34cr2731" kvg:type="㇑" transform="matrix(1,0,0,1,996,-4)" xmlns:kvg="http://kanjivg.tagaini.net"></path><path class="stroke_order_diagram--existing_path" d="M17.27,18.19c7.98-0.69,21.4-2.97,23.76-3.34c0.94-0.15,2.53-0.26,3-0.03" id="Ske34cr2732" kvg:type="㇐b" transform="matrix(1,0,0,1,996,-4)" xmlns:kvg="http://kanjivg.tagaini.net"></path><path class="stroke_order_diagram--existing_path" d="M29.31,17.75c0.25,0.4,0.96,0.93,0.95,1.58c-0.02,6.55-0.06,29.67-0.25,39.97" id="Ske34cr2733" kvg:type="㇑a" transform="matrix(1,0,0,1,996,-4)" xmlns:kvg="http://kanjivg.tagaini.net"></path><path class="stroke_order_diagram--existing_path" d="M17.16,32.36c6.26-0.62,18.75-3.2,21.44-3.61c0.94-0.15,2.53-0.26,3-0.03" id="Ske34cr2734" kvg:type="㇐b" transform="matrix(1,0,0,1,996,-4)" xmlns:kvg="http://kanjivg.tagaini.net"></path><path class="stroke_order_diagram--existing_path" d="M17.26,46.19c6.26-0.62,18.75-2.73,21.44-3.14c0.94-0.15,2.53-0.26,3-0.03" id="Ske34cr2735" kvg:type="㇐b" transform="matrix(1,0,0,1,996,-4)" xmlns:kvg="http://kanjivg.tagaini.net"></path><path class="stroke_order_diagram--existing_path" d="M16.49,62.13c6.76-1.38,21.04-3.28,24.43-3.92c4.33-0.81,5.85,0.99,5.45,4.85C45.25,73.75,41.75,86,37.75,94.34c-2.89,6.04-6.32,0.43-7.21-0.91" id="Ske34cr2736" kvg:type="㇆a" transform="matrix(1,0,0,1,996,-4)" xmlns:kvg="http://kanjivg.tagaini.net"></path><path class="stroke_order_diagram--existing_path" d="M12.64,74.65c0.37,6.29-1.25,11.81-1.64,13.07" id="Ske34cr2737" kvg:type="㇔" transform="matrix(1,0,0,1,996,-4)" xmlns:kvg="http://kanjivg.tagaini.net"></path><path class="stroke_order_diagram--existing_path" d="M18.6,72.07c1.26,2.61,2.33,5.89,2.62,10.54" id="Ske34cr2738" kvg:type="㇔" transform="matrix(1,0,0,1,996,-4)" xmlns:kvg="http://kanjivg.tagaini.net"></path><path class="stroke_order_diagram--existing_path" d="M27.1,70.71c0.62,1.04,2.83,4.49,3.1,7.9" id="Ske34cr2739" kvg:type="㇔" transform="matrix(1,0,0,1,996,-4)" xmlns:kvg="http://kanjivg.tagaini.net"></path><path class="stroke_order_diagram--existing_path" d="M33.08,66.83c1.45,2.6,3.84,5.29,4.36,8.74" id="Ske34cr273a" kvg:type="㇔" transform="matrix(1,0,0,1,996,-4)" xmlns:kvg="http://kanjivg.tagaini.net"></path><path class="stroke_order_diagram--current_path" d="M68.51,9.74c1.08,0.58,2.85,2.83,2.85,3.98c0,4.26-0.34,8.97-0.14,12.58" id="kvg:099ed-s11" kvg:type="㇑a" transform="matrix(1,0,0,1,996,-4)" xmlns:kvg="http://kanjivg.tagaini.net"></path><path class="stroke_order_diagram--current_path" d="M68.51,9.74c1.08,0.58,2.85,2.83,2.85,3.98c0,4.26-0.34,8.97-0.14,12.58" id="Ske34cr273c" kvg:type="㇑a" transform="matrix(1,0,0,1,996,-4)" xmlns:kvg="http://kanjivg.tagaini.net"></path><circle class="stroke_order_diagram--path_start" cx="68.51" cy="9.74" r="4" transform="matrix(1,0,0,1,996,-4)"></circle><line class="stroke_order_diagram--guide_line" x1="1150" x2="1150" y1="1" y2="99"></line><line class="stroke_order_diagram--bounding_box" x1="1199" x2="1199" y1="1" y2="99"></line><path class="stroke_order_diagram--existing_path" d="M15.74,17.06c0.51,0.94,0.99,2.63,0.99,3.94c-0.05,10.27-0.29,38.94-0.97,41.77" id="Ske34cr273f" kvg:type="㇑" transform="matrix(1,0,0,1,1096,-4)" xmlns:kvg="http://kanjivg.tagaini.net"></path><path class="stroke_order_diagram--existing_path" d="M17.27,18.19c7.98-0.69,21.4-2.97,23.76-3.34c0.94-0.15,2.53-0.26,3-0.03" id="Ske34cr273g" kvg:type="㇐b" transform="matrix(1,0,0,1,1096,-4)" xmlns:kvg="http://kanjivg.tagaini.net"></path><path class="stroke_order_diagram--existing_path" d="M29.31,17.75c0.25,0.4,0.96,0.93,0.95,1.58c-0.02,6.55-0.06,29.67-0.25,39.97" id="Ske34cr273h" kvg:type="㇑a" transform="matrix(1,0,0,1,1096,-4)" xmlns:kvg="http://kanjivg.tagaini.net"></path><path class="stroke_order_diagram--existing_path" d="M17.16,32.36c6.26-0.62,18.75-3.2,21.44-3.61c0.94-0.15,2.53-0.26,3-0.03" id="Ske34cr273i" kvg:type="㇐b" transform="matrix(1,0,0,1,1096,-4)" xmlns:kvg="http://kanjivg.tagaini.net"></path><path class="stroke_order_diagram--existing_path" d="M17.26,46.19c6.26-0.62,18.75-2.73,21.44-3.14c0.94-0.15,2.53-0.26,3-0.03" id="Ske34cr273j" kvg:type="㇐b" transform="matrix(1,0,0,1,1096,-4)" xmlns:kvg="http://kanjivg.tagaini.net"></path><path class="stroke_order_diagram--existing_path" d="M16.49,62.13c6.76-1.38,21.04-3.28,24.43-3.92c4.33-0.81,5.85,0.99,5.45,4.85C45.25,73.75,41.75,86,37.75,94.34c-2.89,6.04-6.32,0.43-7.21-0.91" id="Ske34cr273k" kvg:type="㇆a" transform="matrix(1,0,0,1,1096,-4)" xmlns:kvg="http://kanjivg.tagaini.net"></path><path class="stroke_order_diagram--existing_path" d="M12.64,74.65c0.37,6.29-1.25,11.81-1.64,13.07" id="Ske34cr273l" kvg:type="㇔" transform="matrix(1,0,0,1,1096,-4)" xmlns:kvg="http://kanjivg.tagaini.net"></path><path class="stroke_order_diagram--existing_path" d="M18.6,72.07c1.26,2.61,2.33,5.89,2.62,10.54" id="Ske34cr273m" kvg:type="㇔" transform="matrix(1,0,0,1,1096,-4)" xmlns:kvg="http://kanjivg.tagaini.net"></path><path class="stroke_order_diagram--existing_path" d="M27.1,70.71c0.62,1.04,2.83,4.49,3.1,7.9" id="Ske34cr273n" kvg:type="㇔" transform="matrix(1,0,0,1,1096,-4)" xmlns:kvg="http://kanjivg.tagaini.net"></path><path class="stroke_order_diagram--existing_path" d="M33.08,66.83c1.45,2.6,3.84,5.29,4.36,8.74" id="Ske34cr273o" kvg:type="㇔" transform="matrix(1,0,0,1,1096,-4)" xmlns:kvg="http://kanjivg.tagaini.net"></path><path class="stroke_order_diagram--existing_path" d="M68.51,9.74c1.08,0.58,2.85,2.83,2.85,3.98c0,4.26-0.34,8.97-0.14,12.58" id="Ske34cr273p" kvg:type="㇑a" transform="matrix(1,0,0,1,1096,-4)" xmlns:kvg="http://kanjivg.tagaini.net"></path><path class="stroke_order_diagram--current_path" d="M48.5,27.83c1.32,0.09,3.25,0.67,5.6,0.51c10.36-0.74,25.28-3.53,40.02-4.26c2.17-0.11,3.27,0.04,4.89,0.65" id="kvg:099ed-s12" kvg:type="㇐" transform="matrix(1,0,0,1,1096,-4)" xmlns:kvg="http://kanjivg.tagaini.net"></path><path class="stroke_order_diagram--current_path" d="M48.5,27.83c1.32,0.09,3.25,0.67,5.6,0.51c10.36-0.74,25.28-3.53,40.02-4.26c2.17-0.11,3.27,0.04,4.89,0.65" id="Ske34cr273r" kvg:type="㇐" transform="matrix(1,0,0,1,1096,-4)" xmlns:kvg="http://kanjivg.tagaini.net"></path><circle class="stroke_order_diagram--path_start" cx="48.5" cy="27.83" r="4" transform="matrix(1,0,0,1,1096,-4)"></circle><line class="stroke_order_diagram--guide_line" x1="1250" x2="1250" y1="1" y2="99"></line><line class="stroke_order_diagram--bounding_box" x1="1299" x2="1299" y1="1" y2="99"></line><path class="stroke_order_diagram--existing_path" d="M15.74,17.06c0.51,0.94,0.99,2.63,0.99,3.94c-0.05,10.27-0.29,38.94-0.97,41.77" id="Ske34cr273u" kvg:type="㇑" transform="matrix(1,0,0,1,1196,-4)" xmlns:kvg="http://kanjivg.tagaini.net"></path><path class="stroke_order_diagram--existing_path" d="M17.27,18.19c7.98-0.69,21.4-2.97,23.76-3.34c0.94-0.15,2.53-0.26,3-0.03" id="Ske34cr273v" kvg:type="㇐b" transform="matrix(1,0,0,1,1196,-4)" xmlns:kvg="http://kanjivg.tagaini.net"></path><path class="stroke_order_diagram--existing_path" d="M29.31,17.75c0.25,0.4,0.96,0.93,0.95,1.58c-0.02,6.55-0.06,29.67-0.25,39.97" id="Ske34cr273w" kvg:type="㇑a" transform="matrix(1,0,0,1,1196,-4)" xmlns:kvg="http://kanjivg.tagaini.net"></path><path class="stroke_order_diagram--existing_path" d="M17.16,32.36c6.26-0.62,18.75-3.2,21.44-3.61c0.94-0.15,2.53-0.26,3-0.03" id="Ske34cr273x" kvg:type="㇐b" transform="matrix(1,0,0,1,1196,-4)" xmlns:kvg="http://kanjivg.tagaini.net"></path><path class="stroke_order_diagram--existing_path" d="M17.26,46.19c6.26-0.62,18.75-2.73,21.44-3.14c0.94-0.15,2.53-0.26,3-0.03" id="Ske34cr273y" kvg:type="㇐b" transform="matrix(1,0,0,1,1196,-4)" xmlns:kvg="http://kanjivg.tagaini.net"></path><path class="stroke_order_diagram--existing_path" d="M16.49,62.13c6.76-1.38,21.04-3.28,24.43-3.92c4.33-0.81,5.85,0.99,5.45,4.85C45.25,73.75,41.75,86,37.75,94.34c-2.89,6.04-6.32,0.43-7.21-0.91" id="Ske34cr273z" kvg:type="㇆a" transform="matrix(1,0,0,1,1196,-4)" xmlns:kvg="http://kanjivg.tagaini.net"></path><path class="stroke_order_diagram--existing_path" d="M12.64,74.65c0.37,6.29-1.25,11.81-1.64,13.07" id="Ske34cr2740" kvg:type="㇔" transform="matrix(1,0,0,1,1196,-4)" xmlns:kvg="http://kanjivg.tagaini.net"></path><path class="stroke_order_diagram--existing_path" d="M18.6,72.07c1.26,2.61,2.33,5.89,2.62,10.54" id="Ske34cr2741" kvg:type="㇔" transform="matrix(1,0,0,1,1196,-4)" xmlns:kvg="http://kanjivg.tagaini.net"></path><path class="stroke_order_diagram--existing_path" d="M27.1,70.71c0.62,1.04,2.83,4.49,3.1,7.9" id="Ske34cr2742" kvg:type="㇔" transform="matrix(1,0,0,1,1196,-4)" xmlns:kvg="http://kanjivg.tagaini.net"></path><path class="stroke_order_diagram--existing_path" d="M33.08,66.83c1.45,2.6,3.84,5.29,4.36,8.74" id="Ske34cr2743" kvg:type="㇔" transform="matrix(1,0,0,1,1196,-4)" xmlns:kvg="http://kanjivg.tagaini.net"></path><path class="stroke_order_diagram--existing_path" d="M68.51,9.74c1.08,0.58,2.85,2.83,2.85,3.98c0,4.26-0.34,8.97-0.14,12.58" id="Ske34cr2744" kvg:type="㇑a" transform="matrix(1,0,0,1,1196,-4)" xmlns:kvg="http://kanjivg.tagaini.net"></path><path class="stroke_order_diagram--existing_path" d="M48.5,27.83c1.32,0.09,3.25,0.67,5.6,0.51c10.36-0.74,25.28-3.53,40.02-4.26c2.17-0.11,3.27,0.04,4.89,0.65" id="Ske34cr2745" kvg:type="㇐" transform="matrix(1,0,0,1,1196,-4)" xmlns:kvg="http://kanjivg.tagaini.net"></path><path class="stroke_order_diagram--current_path" d="M67.98,29.37c0.48,1.23,0.16,2.57-0.74,3.97c-2.98,4.66-4.73,8.41-9.8,14.44c-0.74,0.88-0.95,2.83,0,3.07c5.06,1.23,11.6,2.27,15.93,4.52" id="kvg:099ed-s13" kvg:type="㇜" transform="matrix(1,0,0,1,1196,-4)" xmlns:kvg="http://kanjivg.tagaini.net"></path><path class="stroke_order_diagram--current_path" d="M67.98,29.37c0.48,1.23,0.16,2.57-0.74,3.97c-2.98,4.66-4.73,8.41-9.8,14.44c-0.74,0.88-0.95,2.83,0,3.07c5.06,1.23,11.6,2.27,15.93,4.52" id="Ske34cr2747" kvg:type="㇜" transform="matrix(1,0,0,1,1196,-4)" xmlns:kvg="http://kanjivg.tagaini.net"></path><circle class="stroke_order_diagram--path_start" cx="67.98" cy="29.37" r="4" transform="matrix(1,0,0,1,1196,-4)"></circle><line class="stroke_order_diagram--guide_line" x1="1350" x2="1350" y1="1" y2="99"></line><line class="stroke_order_diagram--bounding_box" x1="1399" x2="1399" y1="1" y2="99"></line><path class="stroke_order_diagram--existing_path" d="M15.74,17.06c0.51,0.94,0.99,2.63,0.99,3.94c-0.05,10.27-0.29,38.94-0.97,41.77" id="Ske34cr274a" kvg:type="㇑" transform="matrix(1,0,0,1,1296,-4)" xmlns:kvg="http://kanjivg.tagaini.net"></path><path class="stroke_order_diagram--existing_path" d="M17.27,18.19c7.98-0.69,21.4-2.97,23.76-3.34c0.94-0.15,2.53-0.26,3-0.03" id="Ske34cr274b" kvg:type="㇐b" transform="matrix(1,0,0,1,1296,-4)" xmlns:kvg="http://kanjivg.tagaini.net"></path><path class="stroke_order_diagram--existing_path" d="M29.31,17.75c0.25,0.4,0.96,0.93,0.95,1.58c-0.02,6.55-0.06,29.67-0.25,39.97" id="Ske34cr274c" kvg:type="㇑a" transform="matrix(1,0,0,1,1296,-4)" xmlns:kvg="http://kanjivg.tagaini.net"></path><path class="stroke_order_diagram--existing_path" d="M17.16,32.36c6.26-0.62,18.75-3.2,21.44-3.61c0.94-0.15,2.53-0.26,3-0.03" id="Ske34cr274d" kvg:type="㇐b" transform="matrix(1,0,0,1,1296,-4)" xmlns:kvg="http://kanjivg.tagaini.net"></path><path class="stroke_order_diagram--existing_path" d="M17.26,46.19c6.26-0.62,18.75-2.73,21.44-3.14c0.94-0.15,2.53-0.26,3-0.03" id="Ske34cr274e" kvg:type="㇐b" transform="matrix(1,0,0,1,1296,-4)" xmlns:kvg="http://kanjivg.tagaini.net"></path><path class="stroke_order_diagram--existing_path" d="M16.49,62.13c6.76-1.38,21.04-3.28,24.43-3.92c4.33-0.81,5.85,0.99,5.45,4.85C45.25,73.75,41.75,86,37.75,94.34c-2.89,6.04-6.32,0.43-7.21-0.91" id="Ske34cr274f" kvg:type="㇆a" transform="matrix(1,0,0,1,1296,-4)" xmlns:kvg="http://kanjivg.tagaini.net"></path><path class="stroke_order_diagram--existing_path" d="M12.64,74.65c0.37,6.29-1.25,11.81-1.64,13.07" id="Ske34cr274g" kvg:type="㇔" transform="matrix(1,0,0,1,1296,-4)" xmlns:kvg="http://kanjivg.tagaini.net"></path><path class="stroke_order_diagram--existing_path" d="M18.6,72.07c1.26,2.61,2.33,5.89,2.62,10.54" id="Ske34cr274h" kvg:type="㇔" transform="matrix(1,0,0,1,1296,-4)" xmlns:kvg="http://kanjivg.tagaini.net"></path><path class="stroke_order_diagram--existing_path" d="M27.1,70.71c0.62,1.04,2.83,4.49,3.1,7.9" id="Ske34cr274i" kvg:type="㇔" transform="matrix(1,0,0,1,1296,-4)" xmlns:kvg="http://kanjivg.tagaini.net"></path><path class="stroke_order_diagram--existing_path" d="M33.08,66.83c1.45,2.6,3.84,5.29,4.36,8.74" id="Ske34cr274j" kvg:type="㇔" transform="matrix(1,0,0,1,1296,-4)" xmlns:kvg="http://kanjivg.tagaini.net"></path><path class="stroke_order_diagram--existing_path" d="M68.51,9.74c1.08,0.58,2.85,2.83,2.85,3.98c0,4.26-0.34,8.97-0.14,12.58" id="Ske34cr274k" kvg:type="㇑a" transform="matrix(1,0,0,1,1296,-4)" xmlns:kvg="http://kanjivg.tagaini.net"></path><path class="stroke_order_diagram--existing_path" d="M48.5,27.83c1.32,0.09,3.25,0.67,5.6,0.51c10.36-0.74,25.28-3.53,40.02-4.26c2.17-0.11,3.27,0.04,4.89,0.65" id="Ske34cr274l" kvg:type="㇐" transform="matrix(1,0,0,1,1296,-4)" xmlns:kvg="http://kanjivg.tagaini.net"></path><path class="stroke_order_diagram--existing_path" d="M67.98,29.37c0.48,1.23,0.16,2.57-0.74,3.97c-2.98,4.66-4.73,8.41-9.8,14.44c-0.74,0.88-0.95,2.83,0,3.07c5.06,1.23,11.6,2.27,15.93,4.52" id="Ske34cr274m" kvg:type="㇜" transform="matrix(1,0,0,1,1296,-4)" xmlns:kvg="http://kanjivg.tagaini.net"></path><path class="stroke_order_diagram--current_path" d="M85.02,35.5c0.09,1,0.42,2.95-0.18,4c-7.71,13.61-17.66,25.75-34.09,38.25" id="kvg:099ed-s14" kvg:type="㇒" transform="matrix(1,0,0,1,1296,-4)" xmlns:kvg="http://kanjivg.tagaini.net"></path><path class="stroke_order_diagram--current_path" d="M85.02,35.5c0.09,1,0.42,2.95-0.18,4c-7.71,13.61-17.66,25.75-34.09,38.25" id="Ske34cr274o" kvg:type="㇒" transform="matrix(1,0,0,1,1296,-4)" xmlns:kvg="http://kanjivg.tagaini.net"></path><circle class="stroke_order_diagram--path_start" cx="85.02" cy="35.5" r="4" transform="matrix(1,0,0,1,1296,-4)"></circle><line class="stroke_order_diagram--guide_line" x1="1450" x2="1450" y1="1" y2="99"></line><line class="stroke_order_diagram--bounding_box" x1="1499" x2="1499" y1="1" y2="99"></line><path class="stroke_order_diagram--existing_path" d="M15.74,17.06c0.51,0.94,0.99,2.63,0.99,3.94c-0.05,10.27-0.29,38.94-0.97,41.77" id="Ske34cr274r" kvg:type="㇑" transform="matrix(1,0,0,1,1396,-4)" xmlns:kvg="http://kanjivg.tagaini.net"></path><path class="stroke_order_diagram--existing_path" d="M17.27,18.19c7.98-0.69,21.4-2.97,23.76-3.34c0.94-0.15,2.53-0.26,3-0.03" id="Ske34cr274s" kvg:type="㇐b" transform="matrix(1,0,0,1,1396,-4)" xmlns:kvg="http://kanjivg.tagaini.net"></path><path class="stroke_order_diagram--existing_path" d="M29.31,17.75c0.25,0.4,0.96,0.93,0.95,1.58c-0.02,6.55-0.06,29.67-0.25,39.97" id="Ske34cr274t" kvg:type="㇑a" transform="matrix(1,0,0,1,1396,-4)" xmlns:kvg="http://kanjivg.tagaini.net"></path><path class="stroke_order_diagram--existing_path" d="M17.16,32.36c6.26-0.62,18.75-3.2,21.44-3.61c0.94-0.15,2.53-0.26,3-0.03" id="Ske34cr274u" kvg:type="㇐b" transform="matrix(1,0,0,1,1396,-4)" xmlns:kvg="http://kanjivg.tagaini.net"></path><path class="stroke_order_diagram--existing_path" d="M17.26,46.19c6.26-0.62,18.75-2.73,21.44-3.14c0.94-0.15,2.53-0.26,3-0.03" id="Ske34cr274v" kvg:type="㇐b" transform="matrix(1,0,0,1,1396,-4)" xmlns:kvg="http://kanjivg.tagaini.net"></path><path class="stroke_order_diagram--existing_path" d="M16.49,62.13c6.76-1.38,21.04-3.28,24.43-3.92c4.33-0.81,5.85,0.99,5.45,4.85C45.25,73.75,41.75,86,37.75,94.34c-2.89,6.04-6.32,0.43-7.21-0.91" id="Ske34cr274w" kvg:type="㇆a" transform="matrix(1,0,0,1,1396,-4)" xmlns:kvg="http://kanjivg.tagaini.net"></path><path class="stroke_order_diagram--existing_path" d="M12.64,74.65c0.37,6.29-1.25,11.81-1.64,13.07" id="Ske34cr274x" kvg:type="㇔" transform="matrix(1,0,0,1,1396,-4)" xmlns:kvg="http://kanjivg.tagaini.net"></path><path class="stroke_order_diagram--existing_path" d="M18.6,72.07c1.26,2.61,2.33,5.89,2.62,10.54" id="Ske34cr274y" kvg:type="㇔" transform="matrix(1,0,0,1,1396,-4)" xmlns:kvg="http://kanjivg.tagaini.net"></path><path class="stroke_order_diagram--existing_path" d="M27.1,70.71c0.62,1.04,2.83,4.49,3.1,7.9" id="Ske34cr274z" kvg:type="㇔" transform="matrix(1,0,0,1,1396,-4)" xmlns:kvg="http://kanjivg.tagaini.net"></path><path class="stroke_order_diagram--existing_path" d="M33.08,66.83c1.45,2.6,3.84,5.29,4.36,8.74" id="Ske34cr2750" kvg:type="㇔" transform="matrix(1,0,0,1,1396,-4)" xmlns:kvg="http://kanjivg.tagaini.net"></path><path class="stroke_order_diagram--existing_path" d="M68.51,9.74c1.08,0.58,2.85,2.83,2.85,3.98c0,4.26-0.34,8.97-0.14,12.58" id="Ske34cr2751" kvg:type="㇑a" transform="matrix(1,0,0,1,1396,-4)" xmlns:kvg="http://kanjivg.tagaini.net"></path><path class="stroke_order_diagram--existing_path" d="M48.5,27.83c1.32,0.09,3.25,0.67,5.6,0.51c10.36-0.74,25.28-3.53,40.02-4.26c2.17-0.11,3.27,0.04,4.89,0.65" id="Ske34cr2752" kvg:type="㇐" transform="matrix(1,0,0,1,1396,-4)" xmlns:kvg="http://kanjivg.tagaini.net"></path><path class="stroke_order_diagram--existing_path" d="M67.98,29.37c0.48,1.23,0.16,2.57-0.74,3.97c-2.98,4.66-4.73,8.41-9.8,14.44c-0.74,0.88-0.95,2.83,0,3.07c5.06,1.23,11.6,2.27,15.93,4.52" id="Ske34cr2753" kvg:type="㇜" transform="matrix(1,0,0,1,1396,-4)" xmlns:kvg="http://kanjivg.tagaini.net"></path><path class="stroke_order_diagram--existing_path" d="M85.02,35.5c0.09,1,0.42,2.95-0.18,4c-7.71,13.61-17.66,25.75-34.09,38.25" id="Ske34cr2754" kvg:type="㇒" transform="matrix(1,0,0,1,1396,-4)" xmlns:kvg="http://kanjivg.tagaini.net"></path><path class="stroke_order_diagram--current_path" d="M89.47,55.5c0.11,1.05,0.46,3.07-0.23,4.22C81,73.5,68.5,89.5,45.5,100.75" id="kvg:099ed-s15" kvg:type="㇒" transform="matrix(1,0,0,1,1396,-4)" xmlns:kvg="http://kanjivg.tagaini.net"></path><path class="stroke_order_diagram--current_path" d="M89.47,55.5c0.11,1.05,0.46,3.07-0.23,4.22C81,73.5,68.5,89.5,45.5,100.75" id="Ske34cr2756" kvg:type="㇒" transform="matrix(1,0,0,1,1396,-4)" xmlns:kvg="http://kanjivg.tagaini.net"></path><circle class="stroke_order_diagram--path_start" cx="89.47" cy="55.5" r="4" transform="matrix(1,0,0,1,1396,-4)"></circle><line class="stroke_order_diagram--guide_line" x1="1550" x2="1550" y1="1" y2="99"></line><line class="stroke_order_diagram--bounding_box" x1="1599" x2="1599" y1="1" y2="99"></line><path class="stroke_order_diagram--existing_path" d="M15.74,17.06c0.51,0.94,0.99,2.63,0.99,3.94c-0.05,10.27-0.29,38.94-0.97,41.77" id="Ske34cr2759" kvg:type="㇑" transform="matrix(1,0,0,1,1496,-4)" xmlns:kvg="http://kanjivg.tagaini.net"></path><path class="stroke_order_diagram--existing_path" d="M17.27,18.19c7.98-0.69,21.4-2.97,23.76-3.34c0.94-0.15,2.53-0.26,3-0.03" id="Ske34cr275a" kvg:type="㇐b" transform="matrix(1,0,0,1,1496,-4)" xmlns:kvg="http://kanjivg.tagaini.net"></path><path class="stroke_order_diagram--existing_path" d="M29.31,17.75c0.25,0.4,0.96,0.93,0.95,1.58c-0.02,6.55-0.06,29.67-0.25,39.97" id="Ske34cr275b" kvg:type="㇑a" transform="matrix(1,0,0,1,1496,-4)" xmlns:kvg="http://kanjivg.tagaini.net"></path><path class="stroke_order_diagram--existing_path" d="M17.16,32.36c6.26-0.62,18.75-3.2,21.44-3.61c0.94-0.15,2.53-0.26,3-0.03" id="Ske34cr275c" kvg:type="㇐b" transform="matrix(1,0,0,1,1496,-4)" xmlns:kvg="http://kanjivg.tagaini.net"></path><path class="stroke_order_diagram--existing_path" d="M17.26,46.19c6.26-0.62,18.75-2.73,21.44-3.14c0.94-0.15,2.53-0.26,3-0.03" id="Ske34cr275d" kvg:type="㇐b" transform="matrix(1,0,0,1,1496,-4)" xmlns:kvg="http://kanjivg.tagaini.net"></path><path class="stroke_order_diagram--existing_path" d="M16.49,62.13c6.76-1.38,21.04-3.28,24.43-3.92c4.33-0.81,5.85,0.99,5.45,4.85C45.25,73.75,41.75,86,37.75,94.34c-2.89,6.04-6.32,0.43-7.21-0.91" id="Ske34cr275e" kvg:type="㇆a" transform="matrix(1,0,0,1,1496,-4)" xmlns:kvg="http://kanjivg.tagaini.net"></path><path class="stroke_order_diagram--existing_path" d="M12.64,74.65c0.37,6.29-1.25,11.81-1.64,13.07" id="Ske34cr275f" kvg:type="㇔" transform="matrix(1,0,0,1,1496,-4)" xmlns:kvg="http://kanjivg.tagaini.net"></path><path class="stroke_order_diagram--existing_path" d="M18.6,72.07c1.26,2.61,2.33,5.89,2.62,10.54" id="Ske34cr275g" kvg:type="㇔" transform="matrix(1,0,0,1,1496,-4)" xmlns:kvg="http://kanjivg.tagaini.net"></path><path class="stroke_order_diagram--existing_path" d="M27.1,70.71c0.62,1.04,2.83,4.49,3.1,7.9" id="Ske34cr275h" kvg:type="㇔" transform="matrix(1,0,0,1,1496,-4)" xmlns:kvg="http://kanjivg.tagaini.net"></path><path class="stroke_order_diagram--existing_path" d="M33.08,66.83c1.45,2.6,3.84,5.29,4.36,8.74" id="Ske34cr275i" kvg:type="㇔" transform="matrix(1,0,0,1,1496,-4)" xmlns:kvg="http://kanjivg.tagaini.net"></path><path class="stroke_order_diagram--existing_path" d="M68.51,9.74c1.08,0.58,2.85,2.83,2.85,3.98c0,4.26-0.34,8.97-0.14,12.58" id="Ske34cr275j" kvg:type="㇑a" transform="matrix(1,0,0,1,1496,-4)" xmlns:kvg="http://kanjivg.tagaini.net"></path><path class="stroke_order_diagram--existing_path" d="M48.5,27.83c1.32,0.09,3.25,0.67,5.6,0.51c10.36-0.74,25.28-3.53,40.02-4.26c2.17-0.11,3.27,0.04,4.89,0.65" id="Ske34cr275k" kvg:type="㇐" transform="matrix(1,0,0,1,1496,-4)" xmlns:kvg="http://kanjivg.tagaini.net"></path><path class="stroke_order_diagram--existing_path" d="M67.98,29.37c0.48,1.23,0.16,2.57-0.74,3.97c-2.98,4.66-4.73,8.41-9.8,14.44c-0.74,0.88-0.95,2.83,0,3.07c5.06,1.23,11.6,2.27,15.93,4.52" id="Ske34cr275l" kvg:type="㇜" transform="matrix(1,0,0,1,1496,-4)" xmlns:kvg="http://kanjivg.tagaini.net"></path><path class="stroke_order_diagram--existing_path" d="M85.02,35.5c0.09,1,0.42,2.95-0.18,4c-7.71,13.61-17.66,25.75-34.09,38.25" id="Ske34cr275m" kvg:type="㇒" transform="matrix(1,0,0,1,1496,-4)" xmlns:kvg="http://kanjivg.tagaini.net"></path><path class="stroke_order_diagram--existing_path" d="M89.47,55.5c0.11,1.05,0.46,3.07-0.23,4.22C81,73.5,68.5,89.5,45.5,100.75" id="Ske34cr275n" kvg:type="㇒" transform="matrix(1,0,0,1,1496,-4)" xmlns:kvg="http://kanjivg.tagaini.net"></path><path class="stroke_order_diagram--current_path" d="M78.52,79.83c6.26,3.29,16.17,13.54,17.73,18.67" id="kvg:099ed-s16" kvg:type="㇔/㇏" transform="matrix(1,0,0,1,1496,-4)" xmlns:kvg="http://kanjivg.tagaini.net"></path><path class="stroke_order_diagram--current_path" d="M78.52,79.83c6.26,3.29,16.17,13.54,17.73,18.67" id="Ske34cr275p" kvg:type="㇔/㇏" transform="matrix(1,0,0,1,1496,-4)" xmlns:kvg="http://kanjivg.tagaini.net"></path><circle class="stroke_order_diagram--path_start" cx="78.52" cy="79.83" r="4" transform="matrix(1,0,0,1,1496,-4)"></circle></svg>