<svg class="stroke_order_diagram--svg_container_for_518662c4d5dda796580017ff" style="height: 100px; width: 1300px;" viewbox="0 0 1300 100"><desc>Created with Snap</desc><defs></defs><line class="stroke_order_diagram--bounding_box" x1="1" x2="1299" y1="1" y2="1"></line><line class="stroke_order_diagram--bounding_box" x1="1" x2="1" y1="1" y2="99"></line><line class="stroke_order_diagram--bounding_box" x1="1" x2="1299" y1="99" y2="99"></line><line class="stroke_order_diagram--guide_line" x1="0" x2="1300" y1="50" y2="50"></line><line class="stroke_order_diagram--guide_line" x1="50" x2="50" y1="1" y2="99"></line><line class="stroke_order_diagram--bounding_box" x1="99" x2="99" y1="1" y2="99"></line><path class="stroke_order_diagram--current_path" d="M15.62,14.2c0.25,0.48,0.96,2.54,0.99,3.17c0.14,2.88,2.09,18.34,2.09,18.66" id="kvg:09aad-s1" kvg:type="㇑a" transform="matrix(1,0,0,1,-4,-4)" xmlns:kvg="http://kanjivg.tagaini.net"></path><path class="stroke_order_diagram--current_path" d="M15.62,14.2c0.25,0.48,0.96,2.54,0.99,3.17c0.14,2.88,2.09,18.34,2.09,18.66" id="Ske34n9qfm" kvg:type="㇑a" transform="matrix(1,0,0,1,-4,-4)" xmlns:kvg="http://kanjivg.tagaini.net"></path><circle class="stroke_order_diagram--path_start" cx="15.62" cy="14.2" r="4" transform="matrix(1,0,0,1,-4,-4)"></circle><line class="stroke_order_diagram--guide_line" x1="150" x2="150" y1="1" y2="99"></line><line class="stroke_order_diagram--bounding_box" x1="199" x2="199" y1="1" y2="99"></line><path class="stroke_order_diagram--existing_path" d="M15.62,14.2c0.25,0.48,0.96,2.54,0.99,3.17c0.14,2.88,2.09,18.34,2.09,18.66" id="Ske34n9qfp" kvg:type="㇑a" transform="matrix(1,0,0,1,96,-4)" xmlns:kvg="http://kanjivg.tagaini.net"></path><path class="stroke_order_diagram--current_path" d="M16.81,16.13C18.22,16.1,32.5,14,39.09,12.56c1.41-0.31,2.91,1.19,2.68,2.39c-0.66,3.41-2.25,11.52-2.91,19.72" id="kvg:09aad-s2" kvg:type="㇕b" transform="matrix(1,0,0,1,96,-4)" xmlns:kvg="http://kanjivg.tagaini.net"></path><path class="stroke_order_diagram--current_path" d="M16.81,16.13C18.22,16.1,32.5,14,39.09,12.56c1.41-0.31,2.91,1.19,2.68,2.39c-0.66,3.41-2.25,11.52-2.91,19.72" id="Ske34n9qfr" kvg:type="㇕b" transform="matrix(1,0,0,1,96,-4)" xmlns:kvg="http://kanjivg.tagaini.net"></path><circle class="stroke_order_diagram--path_start" cx="16.81" cy="16.13" r="4" transform="matrix(1,0,0,1,96,-4)"></circle><line class="stroke_order_diagram--guide_line" x1="250" x2="250" y1="1" y2="99"></line><line class="stroke_order_diagram--bounding_box" x1="299" x2="299" y1="1" y2="99"></line><path class="stroke_order_diagram--existing_path" d="M15.62,14.2c0.25,0.48,0.96,2.54,0.99,3.17c0.14,2.88,2.09,18.34,2.09,18.66" id="Ske34n9qfu" kvg:type="㇑a" transform="matrix(1,0,0,1,196,-4)" xmlns:kvg="http://kanjivg.tagaini.net"></path><path class="stroke_order_diagram--existing_path" d="M16.81,16.13C18.22,16.1,32.5,14,39.09,12.56c1.41-0.31,2.91,1.19,2.68,2.39c-0.66,3.41-2.25,11.52-2.91,19.72" id="Ske34n9qfv" kvg:type="㇕b" transform="matrix(1,0,0,1,196,-4)" xmlns:kvg="http://kanjivg.tagaini.net"></path><path class="stroke_order_diagram--current_path" d="M28.07,24.12c0.25,0.48,0.46,1.54,0.49,2.17c0.15,2.81,0.32,8.98,0.31,9.29" id="kvg:09aad-s3" kvg:type="㇑a" transform="matrix(1,0,0,1,196,-4)" xmlns:kvg="http://kanjivg.tagaini.net"></path><path class="stroke_order_diagram--current_path" d="M28.07,24.12c0.25,0.48,0.46,1.54,0.49,2.17c0.15,2.81,0.32,8.98,0.31,9.29" id="Ske34n9qfx" kvg:type="㇑a" transform="matrix(1,0,0,1,196,-4)" xmlns:kvg="http://kanjivg.tagaini.net"></path><circle class="stroke_order_diagram--path_start" cx="28.07" cy="24.12" r="4" transform="matrix(1,0,0,1,196,-4)"></circle><line class="stroke_order_diagram--guide_line" x1="350" x2="350" y1="1" y2="99"></line><line class="stroke_order_diagram--bounding_box" x1="399" x2="399" y1="1" y2="99"></line><path class="stroke_order_diagram--existing_path" d="M15.62,14.2c0.25,0.48,0.96,2.54,0.99,3.17c0.14,2.88,2.09,18.34,2.09,18.66" id="Ske34n9qf10" kvg:type="㇑a" transform="matrix(1,0,0,1,296,-4)" xmlns:kvg="http://kanjivg.tagaini.net"></path><path class="stroke_order_diagram--existing_path" d="M16.81,16.13C18.22,16.1,32.5,14,39.09,12.56c1.41-0.31,2.91,1.19,2.68,2.39c-0.66,3.41-2.25,11.52-2.91,19.72" id="Ske34n9qf11" kvg:type="㇕b" transform="matrix(1,0,0,1,296,-4)" xmlns:kvg="http://kanjivg.tagaini.net"></path><path class="stroke_order_diagram--existing_path" d="M28.07,24.12c0.25,0.48,0.46,1.54,0.49,2.17c0.15,2.81,0.32,8.98,0.31,9.29" id="Ske34n9qf12" kvg:type="㇑a" transform="matrix(1,0,0,1,296,-4)" xmlns:kvg="http://kanjivg.tagaini.net"></path><path class="stroke_order_diagram--current_path" d="M28.98,24.91c1.41-0.03,9.45-1.47,10.73-1.64" id="kvg:09aad-s4" kvg:type="㇐a" transform="matrix(1,0,0,1,296,-4)" xmlns:kvg="http://kanjivg.tagaini.net"></path><path class="stroke_order_diagram--current_path" d="M28.98,24.91c1.41-0.03,9.45-1.47,10.73-1.64" id="Ske34n9qf14" kvg:type="㇐a" transform="matrix(1,0,0,1,296,-4)" xmlns:kvg="http://kanjivg.tagaini.net"></path><circle class="stroke_order_diagram--path_start" cx="28.98" cy="24.91" r="4" transform="matrix(1,0,0,1,296,-4)"></circle><line class="stroke_order_diagram--guide_line" x1="450" x2="450" y1="1" y2="99"></line><line class="stroke_order_diagram--bounding_box" x1="499" x2="499" y1="1" y2="99"></line><path class="stroke_order_diagram--existing_path" d="M15.62,14.2c0.25,0.48,0.96,2.54,0.99,3.17c0.14,2.88,2.09,18.34,2.09,18.66" id="Ske34n9qf17" kvg:type="㇑a" transform="matrix(1,0,0,1,396,-4)" xmlns:kvg="http://kanjivg.tagaini.net"></path><path class="stroke_order_diagram--existing_path" d="M16.81,16.13C18.22,16.1,32.5,14,39.09,12.56c1.41-0.31,2.91,1.19,2.68,2.39c-0.66,3.41-2.25,11.52-2.91,19.72" id="Ske34n9qf18" kvg:type="㇕b" transform="matrix(1,0,0,1,396,-4)" xmlns:kvg="http://kanjivg.tagaini.net"></path><path class="stroke_order_diagram--existing_path" d="M28.07,24.12c0.25,0.48,0.46,1.54,0.49,2.17c0.15,2.81,0.32,8.98,0.31,9.29" id="Ske34n9qf19" kvg:type="㇑a" transform="matrix(1,0,0,1,396,-4)" xmlns:kvg="http://kanjivg.tagaini.net"></path><path class="stroke_order_diagram--existing_path" d="M28.98,24.91c1.41-0.03,9.45-1.47,10.73-1.64" id="Ske34n9qf1a" kvg:type="㇐a" transform="matrix(1,0,0,1,396,-4)" xmlns:kvg="http://kanjivg.tagaini.net"></path><path class="stroke_order_diagram--current_path" d="M12.04,36.62c-0.02,3.61-1.85,9-2.31,11.38" id="kvg:09aad-s5" kvg:type="㇔" transform="matrix(1,0,0,1,396,-4)" xmlns:kvg="http://kanjivg.tagaini.net"></path><path class="stroke_order_diagram--current_path" d="M12.04,36.62c-0.02,3.61-1.85,9-2.31,11.38" id="Ske34n9qf1c" kvg:type="㇔" transform="matrix(1,0,0,1,396,-4)" xmlns:kvg="http://kanjivg.tagaini.net"></path><circle class="stroke_order_diagram--path_start" cx="12.04" cy="36.62" r="4" transform="matrix(1,0,0,1,396,-4)"></circle><line class="stroke_order_diagram--guide_line" x1="550" x2="550" y1="1" y2="99"></line><line class="stroke_order_diagram--bounding_box" x1="599" x2="599" y1="1" y2="99"></line><path class="stroke_order_diagram--existing_path" d="M15.62,14.2c0.25,0.48,0.96,2.54,0.99,3.17c0.14,2.88,2.09,18.34,2.09,18.66" id="Ske34n9qf1f" kvg:type="㇑a" transform="matrix(1,0,0,1,496,-4)" xmlns:kvg="http://kanjivg.tagaini.net"></path><path class="stroke_order_diagram--existing_path" d="M16.81,16.13C18.22,16.1,32.5,14,39.09,12.56c1.41-0.31,2.91,1.19,2.68,2.39c-0.66,3.41-2.25,11.52-2.91,19.72" id="Ske34n9qf1g" kvg:type="㇕b" transform="matrix(1,0,0,1,496,-4)" xmlns:kvg="http://kanjivg.tagaini.net"></path><path class="stroke_order_diagram--existing_path" d="M28.07,24.12c0.25,0.48,0.46,1.54,0.49,2.17c0.15,2.81,0.32,8.98,0.31,9.29" id="Ske34n9qf1h" kvg:type="㇑a" transform="matrix(1,0,0,1,496,-4)" xmlns:kvg="http://kanjivg.tagaini.net"></path><path class="stroke_order_diagram--existing_path" d="M28.98,24.91c1.41-0.03,9.45-1.47,10.73-1.64" id="Ske34n9qf1i" kvg:type="㇐a" transform="matrix(1,0,0,1,496,-4)" xmlns:kvg="http://kanjivg.tagaini.net"></path><path class="stroke_order_diagram--existing_path" d="M12.04,36.62c-0.02,3.61-1.85,9-2.31,11.38" id="Ske34n9qf1j" kvg:type="㇔" transform="matrix(1,0,0,1,496,-4)" xmlns:kvg="http://kanjivg.tagaini.net"></path><path class="stroke_order_diagram--current_path" d="M12.19,38.26c5.8-1.18,30.14-4.09,33.94-4.29c5.94-0.32,0.23,5.3-1.25,7.24" id="kvg:09aad-s6" kvg:type="㇖b" transform="matrix(1,0,0,1,496,-4)" xmlns:kvg="http://kanjivg.tagaini.net"></path><path class="stroke_order_diagram--current_path" d="M12.19,38.26c5.8-1.18,30.14-4.09,33.94-4.29c5.94-0.32,0.23,5.3-1.25,7.24" id="Ske34n9qf1l" kvg:type="㇖b" transform="matrix(1,0,0,1,496,-4)" xmlns:kvg="http://kanjivg.tagaini.net"></path><circle class="stroke_order_diagram--path_start" cx="12.19" cy="38.26" r="4" transform="matrix(1,0,0,1,496,-4)"></circle><line class="stroke_order_diagram--guide_line" x1="650" x2="650" y1="1" y2="99"></line><line class="stroke_order_diagram--bounding_box" x1="699" x2="699" y1="1" y2="99"></line><path class="stroke_order_diagram--existing_path" d="M15.62,14.2c0.25,0.48,0.96,2.54,0.99,3.17c0.14,2.88,2.09,18.34,2.09,18.66" id="Ske34n9qf1o" kvg:type="㇑a" transform="matrix(1,0,0,1,596,-4)" xmlns:kvg="http://kanjivg.tagaini.net"></path><path class="stroke_order_diagram--existing_path" d="M16.81,16.13C18.22,16.1,32.5,14,39.09,12.56c1.41-0.31,2.91,1.19,2.68,2.39c-0.66,3.41-2.25,11.52-2.91,19.72" id="Ske34n9qf1p" kvg:type="㇕b" transform="matrix(1,0,0,1,596,-4)" xmlns:kvg="http://kanjivg.tagaini.net"></path><path class="stroke_order_diagram--existing_path" d="M28.07,24.12c0.25,0.48,0.46,1.54,0.49,2.17c0.15,2.81,0.32,8.98,0.31,9.29" id="Ske34n9qf1q" kvg:type="㇑a" transform="matrix(1,0,0,1,596,-4)" xmlns:kvg="http://kanjivg.tagaini.net"></path><path class="stroke_order_diagram--existing_path" d="M28.98,24.91c1.41-0.03,9.45-1.47,10.73-1.64" id="Ske34n9qf1r" kvg:type="㇐a" transform="matrix(1,0,0,1,596,-4)" xmlns:kvg="http://kanjivg.tagaini.net"></path><path class="stroke_order_diagram--existing_path" d="M12.04,36.62c-0.02,3.61-1.85,9-2.31,11.38" id="Ske34n9qf1s" kvg:type="㇔" transform="matrix(1,0,0,1,596,-4)" xmlns:kvg="http://kanjivg.tagaini.net"></path><path class="stroke_order_diagram--existing_path" d="M12.19,38.26c5.8-1.18,30.14-4.09,33.94-4.29c5.94-0.32,0.23,5.3-1.25,7.24" id="Ske34n9qf1t" kvg:type="㇖b" transform="matrix(1,0,0,1,596,-4)" xmlns:kvg="http://kanjivg.tagaini.net"></path><path class="stroke_order_diagram--current_path" d="M18.81,44.12c0.37,0.7,0.62,1.4,0.74,2.1c0.12,0.7,0.18,50.51,0.12,52.08" id="kvg:09aad-s7" kvg:type="㇑/㇒" transform="matrix(1,0,0,1,596,-4)" xmlns:kvg="http://kanjivg.tagaini.net"></path><path class="stroke_order_diagram--current_path" d="M18.81,44.12c0.37,0.7,0.62,1.4,0.74,2.1c0.12,0.7,0.18,50.51,0.12,52.08" id="Ske34n9qf1v" kvg:type="㇑/㇒" transform="matrix(1,0,0,1,596,-4)" xmlns:kvg="http://kanjivg.tagaini.net"></path><circle class="stroke_order_diagram--path_start" cx="18.81" cy="44.12" r="4" transform="matrix(1,0,0,1,596,-4)"></circle><line class="stroke_order_diagram--guide_line" x1="750" x2="750" y1="1" y2="99"></line><line class="stroke_order_diagram--bounding_box" x1="799" x2="799" y1="1" y2="99"></line><path class="stroke_order_diagram--existing_path" d="M15.62,14.2c0.25,0.48,0.96,2.54,0.99,3.17c0.14,2.88,2.09,18.34,2.09,18.66" id="Ske34n9qf1y" kvg:type="㇑a" transform="matrix(1,0,0,1,696,-4)" xmlns:kvg="http://kanjivg.tagaini.net"></path><path class="stroke_order_diagram--existing_path" d="M16.81,16.13C18.22,16.1,32.5,14,39.09,12.56c1.41-0.31,2.91,1.19,2.68,2.39c-0.66,3.41-2.25,11.52-2.91,19.72" id="Ske34n9qf1z" kvg:type="㇕b" transform="matrix(1,0,0,1,696,-4)" xmlns:kvg="http://kanjivg.tagaini.net"></path><path class="stroke_order_diagram--existing_path" d="M28.07,24.12c0.25,0.48,0.46,1.54,0.49,2.17c0.15,2.81,0.32,8.98,0.31,9.29" id="Ske34n9qf20" kvg:type="㇑a" transform="matrix(1,0,0,1,696,-4)" xmlns:kvg="http://kanjivg.tagaini.net"></path><path class="stroke_order_diagram--existing_path" d="M28.98,24.91c1.41-0.03,9.45-1.47,10.73-1.64" id="Ske34n9qf21" kvg:type="㇐a" transform="matrix(1,0,0,1,696,-4)" xmlns:kvg="http://kanjivg.tagaini.net"></path><path class="stroke_order_diagram--existing_path" d="M12.04,36.62c-0.02,3.61-1.85,9-2.31,11.38" id="Ske34n9qf22" kvg:type="㇔" transform="matrix(1,0,0,1,696,-4)" xmlns:kvg="http://kanjivg.tagaini.net"></path><path class="stroke_order_diagram--existing_path" d="M12.19,38.26c5.8-1.18,30.14-4.09,33.94-4.29c5.94-0.32,0.23,5.3-1.25,7.24" id="Ske34n9qf23" kvg:type="㇖b" transform="matrix(1,0,0,1,696,-4)" xmlns:kvg="http://kanjivg.tagaini.net"></path><path class="stroke_order_diagram--existing_path" d="M18.81,44.12c0.37,0.7,0.62,1.4,0.74,2.1c0.12,0.7,0.18,50.51,0.12,52.08" id="Ske34n9qf24" kvg:type="㇑/㇒" transform="matrix(1,0,0,1,696,-4)" xmlns:kvg="http://kanjivg.tagaini.net"></path><path class="stroke_order_diagram--current_path" d="M20.29,45.82c1.49-0.17,15.14-2.65,16.25-2.85c1.98-0.35,2.73,2.27,2.48,3.32c-0.24,1.01-0.37,29.87-0.37,44.04c0,9.09-4.98,3.15-6.22,1.57" id="kvg:09aad-s8" kvg:type="㇆a" transform="matrix(1,0,0,1,696,-4)" xmlns:kvg="http://kanjivg.tagaini.net"></path><path class="stroke_order_diagram--current_path" d="M20.29,45.82c1.49-0.17,15.14-2.65,16.25-2.85c1.98-0.35,2.73,2.27,2.48,3.32c-0.24,1.01-0.37,29.87-0.37,44.04c0,9.09-4.98,3.15-6.22,1.57" id="Ske34n9qf26" kvg:type="㇆a" transform="matrix(1,0,0,1,696,-4)" xmlns:kvg="http://kanjivg.tagaini.net"></path><circle class="stroke_order_diagram--path_start" cx="20.29" cy="45.82" r="4" transform="matrix(1,0,0,1,696,-4)"></circle><line class="stroke_order_diagram--guide_line" x1="850" x2="850" y1="1" y2="99"></line><line class="stroke_order_diagram--bounding_box" x1="899" x2="899" y1="1" y2="99"></line><path class="stroke_order_diagram--existing_path" d="M15.62,14.2c0.25,0.48,0.96,2.54,0.99,3.17c0.14,2.88,2.09,18.34,2.09,18.66" id="Ske34n9qf29" kvg:type="㇑a" transform="matrix(1,0,0,1,796,-4)" xmlns:kvg="http://kanjivg.tagaini.net"></path><path class="stroke_order_diagram--existing_path" d="M16.81,16.13C18.22,16.1,32.5,14,39.09,12.56c1.41-0.31,2.91,1.19,2.68,2.39c-0.66,3.41-2.25,11.52-2.91,19.72" id="Ske34n9qf2a" kvg:type="㇕b" transform="matrix(1,0,0,1,796,-4)" xmlns:kvg="http://kanjivg.tagaini.net"></path><path class="stroke_order_diagram--existing_path" d="M28.07,24.12c0.25,0.48,0.46,1.54,0.49,2.17c0.15,2.81,0.32,8.98,0.31,9.29" id="Ske34n9qf2b" kvg:type="㇑a" transform="matrix(1,0,0,1,796,-4)" xmlns:kvg="http://kanjivg.tagaini.net"></path><path class="stroke_order_diagram--existing_path" d="M28.98,24.91c1.41-0.03,9.45-1.47,10.73-1.64" id="Ske34n9qf2c" kvg:type="㇐a" transform="matrix(1,0,0,1,796,-4)" xmlns:kvg="http://kanjivg.tagaini.net"></path><path class="stroke_order_diagram--existing_path" d="M12.04,36.62c-0.02,3.61-1.85,9-2.31,11.38" id="Ske34n9qf2d" kvg:type="㇔" transform="matrix(1,0,0,1,796,-4)" xmlns:kvg="http://kanjivg.tagaini.net"></path><path class="stroke_order_diagram--existing_path" d="M12.19,38.26c5.8-1.18,30.14-4.09,33.94-4.29c5.94-0.32,0.23,5.3-1.25,7.24" id="Ske34n9qf2e" kvg:type="㇖b" transform="matrix(1,0,0,1,796,-4)" xmlns:kvg="http://kanjivg.tagaini.net"></path><path class="stroke_order_diagram--existing_path" d="M18.81,44.12c0.37,0.7,0.62,1.4,0.74,2.1c0.12,0.7,0.18,50.51,0.12,52.08" id="Ske34n9qf2f" kvg:type="㇑/㇒" transform="matrix(1,0,0,1,796,-4)" xmlns:kvg="http://kanjivg.tagaini.net"></path><path class="stroke_order_diagram--existing_path" d="M20.29,45.82c1.49-0.17,15.14-2.65,16.25-2.85c1.98-0.35,2.73,2.27,2.48,3.32c-0.24,1.01-0.37,29.87-0.37,44.04c0,9.09-4.98,3.15-6.22,1.57" id="Ske34n9qf2g" kvg:type="㇆a" transform="matrix(1,0,0,1,796,-4)" xmlns:kvg="http://kanjivg.tagaini.net"></path><path class="stroke_order_diagram--current_path" d="M20.29,59.31c6.46-0.81,13.73-1.64,18.2-2.17" id="kvg:09aad-s9" kvg:type="㇐a" transform="matrix(1,0,0,1,796,-4)" xmlns:kvg="http://kanjivg.tagaini.net"></path><path class="stroke_order_diagram--current_path" d="M20.29,59.31c6.46-0.81,13.73-1.64,18.2-2.17" id="Ske34n9qf2i" kvg:type="㇐a" transform="matrix(1,0,0,1,796,-4)" xmlns:kvg="http://kanjivg.tagaini.net"></path><circle class="stroke_order_diagram--path_start" cx="20.29" cy="59.31" r="4" transform="matrix(1,0,0,1,796,-4)"></circle><line class="stroke_order_diagram--guide_line" x1="950" x2="950" y1="1" y2="99"></line><line class="stroke_order_diagram--bounding_box" x1="999" x2="999" y1="1" y2="99"></line><path class="stroke_order_diagram--existing_path" d="M15.62,14.2c0.25,0.48,0.96,2.54,0.99,3.17c0.14,2.88,2.09,18.34,2.09,18.66" id="Ske34n9qf2l" kvg:type="㇑a" transform="matrix(1,0,0,1,896,-4)" xmlns:kvg="http://kanjivg.tagaini.net"></path><path class="stroke_order_diagram--existing_path" d="M16.81,16.13C18.22,16.1,32.5,14,39.09,12.56c1.41-0.31,2.91,1.19,2.68,2.39c-0.66,3.41-2.25,11.52-2.91,19.72" id="Ske34n9qf2m" kvg:type="㇕b" transform="matrix(1,0,0,1,896,-4)" xmlns:kvg="http://kanjivg.tagaini.net"></path><path class="stroke_order_diagram--existing_path" d="M28.07,24.12c0.25,0.48,0.46,1.54,0.49,2.17c0.15,2.81,0.32,8.98,0.31,9.29" id="Ske34n9qf2n" kvg:type="㇑a" transform="matrix(1,0,0,1,896,-4)" xmlns:kvg="http://kanjivg.tagaini.net"></path><path class="stroke_order_diagram--existing_path" d="M28.98,24.91c1.41-0.03,9.45-1.47,10.73-1.64" id="Ske34n9qf2o" kvg:type="㇐a" transform="matrix(1,0,0,1,896,-4)" xmlns:kvg="http://kanjivg.tagaini.net"></path><path class="stroke_order_diagram--existing_path" d="M12.04,36.62c-0.02,3.61-1.85,9-2.31,11.38" id="Ske34n9qf2p" kvg:type="㇔" transform="matrix(1,0,0,1,896,-4)" xmlns:kvg="http://kanjivg.tagaini.net"></path><path class="stroke_order_diagram--existing_path" d="M12.19,38.26c5.8-1.18,30.14-4.09,33.94-4.29c5.94-0.32,0.23,5.3-1.25,7.24" id="Ske34n9qf2q" kvg:type="㇖b" transform="matrix(1,0,0,1,896,-4)" xmlns:kvg="http://kanjivg.tagaini.net"></path><path class="stroke_order_diagram--existing_path" d="M18.81,44.12c0.37,0.7,0.62,1.4,0.74,2.1c0.12,0.7,0.18,50.51,0.12,52.08" id="Ske34n9qf2r" kvg:type="㇑/㇒" transform="matrix(1,0,0,1,896,-4)" xmlns:kvg="http://kanjivg.tagaini.net"></path><path class="stroke_order_diagram--existing_path" d="M20.29,45.82c1.49-0.17,15.14-2.65,16.25-2.85c1.98-0.35,2.73,2.27,2.48,3.32c-0.24,1.01-0.37,29.87-0.37,44.04c0,9.09-4.98,3.15-6.22,1.57" id="Ske34n9qf2s" kvg:type="㇆a" transform="matrix(1,0,0,1,896,-4)" xmlns:kvg="http://kanjivg.tagaini.net"></path><path class="stroke_order_diagram--existing_path" d="M20.29,59.31c6.46-0.81,13.73-1.64,18.2-2.17" id="Ske34n9qf2t" kvg:type="㇐a" transform="matrix(1,0,0,1,896,-4)" xmlns:kvg="http://kanjivg.tagaini.net"></path><path class="stroke_order_diagram--current_path" d="M19.99,72.67c3.97-0.53,13.67-1.62,18.26-1.97" id="kvg:09aad-s10" kvg:type="㇐a" transform="matrix(1,0,0,1,896,-4)" xmlns:kvg="http://kanjivg.tagaini.net"></path><path class="stroke_order_diagram--current_path" d="M19.99,72.67c3.97-0.53,13.67-1.62,18.26-1.97" id="Ske34n9qf2v" kvg:type="㇐a" transform="matrix(1,0,0,1,896,-4)" xmlns:kvg="http://kanjivg.tagaini.net"></path><circle class="stroke_order_diagram--path_start" cx="19.99" cy="72.67" r="4" transform="matrix(1,0,0,1,896,-4)"></circle><line class="stroke_order_diagram--guide_line" x1="1050" x2="1050" y1="1" y2="99"></line><line class="stroke_order_diagram--bounding_box" x1="1099" x2="1099" y1="1" y2="99"></line><path class="stroke_order_diagram--existing_path" d="M15.62,14.2c0.25,0.48,0.96,2.54,0.99,3.17c0.14,2.88,2.09,18.34,2.09,18.66" id="Ske34n9qf2y" kvg:type="㇑a" transform="matrix(1,0,0,1,996,-4)" xmlns:kvg="http://kanjivg.tagaini.net"></path><path class="stroke_order_diagram--existing_path" d="M16.81,16.13C18.22,16.1,32.5,14,39.09,12.56c1.41-0.31,2.91,1.19,2.68,2.39c-0.66,3.41-2.25,11.52-2.91,19.72" id="Ske34n9qf2z" kvg:type="㇕b" transform="matrix(1,0,0,1,996,-4)" xmlns:kvg="http://kanjivg.tagaini.net"></path><path class="stroke_order_diagram--existing_path" d="M28.07,24.12c0.25,0.48,0.46,1.54,0.49,2.17c0.15,2.81,0.32,8.98,0.31,9.29" id="Ske34n9qf30" kvg:type="㇑a" transform="matrix(1,0,0,1,996,-4)" xmlns:kvg="http://kanjivg.tagaini.net"></path><path class="stroke_order_diagram--existing_path" d="M28.98,24.91c1.41-0.03,9.45-1.47,10.73-1.64" id="Ske34n9qf31" kvg:type="㇐a" transform="matrix(1,0,0,1,996,-4)" xmlns:kvg="http://kanjivg.tagaini.net"></path><path class="stroke_order_diagram--existing_path" d="M12.04,36.62c-0.02,3.61-1.85,9-2.31,11.38" id="Ske34n9qf32" kvg:type="㇔" transform="matrix(1,0,0,1,996,-4)" xmlns:kvg="http://kanjivg.tagaini.net"></path><path class="stroke_order_diagram--existing_path" d="M12.19,38.26c5.8-1.18,30.14-4.09,33.94-4.29c5.94-0.32,0.23,5.3-1.25,7.24" id="Ske34n9qf33" kvg:type="㇖b" transform="matrix(1,0,0,1,996,-4)" xmlns:kvg="http://kanjivg.tagaini.net"></path><path class="stroke_order_diagram--existing_path" d="M18.81,44.12c0.37,0.7,0.62,1.4,0.74,2.1c0.12,0.7,0.18,50.51,0.12,52.08" id="Ske34n9qf34" kvg:type="㇑/㇒" transform="matrix(1,0,0,1,996,-4)" xmlns:kvg="http://kanjivg.tagaini.net"></path><path class="stroke_order_diagram--existing_path" d="M20.29,45.82c1.49-0.17,15.14-2.65,16.25-2.85c1.98-0.35,2.73,2.27,2.48,3.32c-0.24,1.01-0.37,29.87-0.37,44.04c0,9.09-4.98,3.15-6.22,1.57" id="Ske34n9qf35" kvg:type="㇆a" transform="matrix(1,0,0,1,996,-4)" xmlns:kvg="http://kanjivg.tagaini.net"></path><path class="stroke_order_diagram--existing_path" d="M20.29,59.31c6.46-0.81,13.73-1.64,18.2-2.17" id="Ske34n9qf36" kvg:type="㇐a" transform="matrix(1,0,0,1,996,-4)" xmlns:kvg="http://kanjivg.tagaini.net"></path><path class="stroke_order_diagram--existing_path" d="M19.99,72.67c3.97-0.53,13.67-1.62,18.26-1.97" id="Ske34n9qf37" kvg:type="㇐a" transform="matrix(1,0,0,1,996,-4)" xmlns:kvg="http://kanjivg.tagaini.net"></path><path class="stroke_order_diagram--current_path" d="M55.17,16.12c0.8,0.43,3.56,0.46,4.36,0.38c5.54-0.5,20.84-2.16,30.29-3c1.33-0.12,4.13,0.37,4.79,0.58" id="kvg:09aad-s11" kvg:type="㇐" transform="matrix(1,0,0,1,996,-4)" xmlns:kvg="http://kanjivg.tagaini.net"></path><path class="stroke_order_diagram--current_path" d="M55.17,16.12c0.8,0.43,3.56,0.46,4.36,0.38c5.54-0.5,20.84-2.16,30.29-3c1.33-0.12,4.13,0.37,4.79,0.58" id="Ske34n9qf39" kvg:type="㇐" transform="matrix(1,0,0,1,996,-4)" xmlns:kvg="http://kanjivg.tagaini.net"></path><circle class="stroke_order_diagram--path_start" cx="55.17" cy="16.12" r="4" transform="matrix(1,0,0,1,996,-4)"></circle><line class="stroke_order_diagram--guide_line" x1="1150" x2="1150" y1="1" y2="99"></line><line class="stroke_order_diagram--bounding_box" x1="1199" x2="1199" y1="1" y2="99"></line><path class="stroke_order_diagram--existing_path" d="M15.62,14.2c0.25,0.48,0.96,2.54,0.99,3.17c0.14,2.88,2.09,18.34,2.09,18.66" id="Ske34n9qf3c" kvg:type="㇑a" transform="matrix(1,0,0,1,1096,-4)" xmlns:kvg="http://kanjivg.tagaini.net"></path><path class="stroke_order_diagram--existing_path" d="M16.81,16.13C18.22,16.1,32.5,14,39.09,12.56c1.41-0.31,2.91,1.19,2.68,2.39c-0.66,3.41-2.25,11.52-2.91,19.72" id="Ske34n9qf3d" kvg:type="㇕b" transform="matrix(1,0,0,1,1096,-4)" xmlns:kvg="http://kanjivg.tagaini.net"></path><path class="stroke_order_diagram--existing_path" d="M28.07,24.12c0.25,0.48,0.46,1.54,0.49,2.17c0.15,2.81,0.32,8.98,0.31,9.29" id="Ske34n9qf3e" kvg:type="㇑a" transform="matrix(1,0,0,1,1096,-4)" xmlns:kvg="http://kanjivg.tagaini.net"></path><path class="stroke_order_diagram--existing_path" d="M28.98,24.91c1.41-0.03,9.45-1.47,10.73-1.64" id="Ske34n9qf3f" kvg:type="㇐a" transform="matrix(1,0,0,1,1096,-4)" xmlns:kvg="http://kanjivg.tagaini.net"></path><path class="stroke_order_diagram--existing_path" d="M12.04,36.62c-0.02,3.61-1.85,9-2.31,11.38" id="Ske34n9qf3g" kvg:type="㇔" transform="matrix(1,0,0,1,1096,-4)" xmlns:kvg="http://kanjivg.tagaini.net"></path><path class="stroke_order_diagram--existing_path" d="M12.19,38.26c5.8-1.18,30.14-4.09,33.94-4.29c5.94-0.32,0.23,5.3-1.25,7.24" id="Ske34n9qf3h" kvg:type="㇖b" transform="matrix(1,0,0,1,1096,-4)" xmlns:kvg="http://kanjivg.tagaini.net"></path><path class="stroke_order_diagram--existing_path" d="M18.81,44.12c0.37,0.7,0.62,1.4,0.74,2.1c0.12,0.7,0.18,50.51,0.12,52.08" id="Ske34n9qf3i" kvg:type="㇑/㇒" transform="matrix(1,0,0,1,1096,-4)" xmlns:kvg="http://kanjivg.tagaini.net"></path><path class="stroke_order_diagram--existing_path" d="M20.29,45.82c1.49-0.17,15.14-2.65,16.25-2.85c1.98-0.35,2.73,2.27,2.48,3.32c-0.24,1.01-0.37,29.87-0.37,44.04c0,9.09-4.98,3.15-6.22,1.57" id="Ske34n9qf3j" kvg:type="㇆a" transform="matrix(1,0,0,1,1096,-4)" xmlns:kvg="http://kanjivg.tagaini.net"></path><path class="stroke_order_diagram--existing_path" d="M20.29,59.31c6.46-0.81,13.73-1.64,18.2-2.17" id="Ske34n9qf3k" kvg:type="㇐a" transform="matrix(1,0,0,1,1096,-4)" xmlns:kvg="http://kanjivg.tagaini.net"></path><path class="stroke_order_diagram--existing_path" d="M19.99,72.67c3.97-0.53,13.67-1.62,18.26-1.97" id="Ske34n9qf3l" kvg:type="㇐a" transform="matrix(1,0,0,1,1096,-4)" xmlns:kvg="http://kanjivg.tagaini.net"></path><path class="stroke_order_diagram--existing_path" d="M55.17,16.12c0.8,0.43,3.56,0.46,4.36,0.38c5.54-0.5,20.84-2.16,30.29-3c1.33-0.12,4.13,0.37,4.79,0.58" id="Ske34n9qf3m" kvg:type="㇐" transform="matrix(1,0,0,1,1096,-4)" xmlns:kvg="http://kanjivg.tagaini.net"></path><path class="stroke_order_diagram--current_path" d="M49.38,46.28c1.29,0.46,3.67,0.59,4.96,0.46c12.16-1.24,25.65-2.99,39.76-3.41c2.16-0.06,3.45,0.22,4.53,0.45" id="kvg:09aad-s12" kvg:type="㇐" transform="matrix(1,0,0,1,1096,-4)" xmlns:kvg="http://kanjivg.tagaini.net"></path><path class="stroke_order_diagram--current_path" d="M49.38,46.28c1.29,0.46,3.67,0.59,4.96,0.46c12.16-1.24,25.65-2.99,39.76-3.41c2.16-0.06,3.45,0.22,4.53,0.45" id="Ske34n9qf3o" kvg:type="㇐" transform="matrix(1,0,0,1,1096,-4)" xmlns:kvg="http://kanjivg.tagaini.net"></path><circle class="stroke_order_diagram--path_start" cx="49.38" cy="46.28" r="4" transform="matrix(1,0,0,1,1096,-4)"></circle><line class="stroke_order_diagram--guide_line" x1="1250" x2="1250" y1="1" y2="99"></line><line class="stroke_order_diagram--bounding_box" x1="1299" x2="1299" y1="1" y2="99"></line><path class="stroke_order_diagram--existing_path" d="M15.62,14.2c0.25,0.48,0.96,2.54,0.99,3.17c0.14,2.88,2.09,18.34,2.09,18.66" id="Ske34n9qf3r" kvg:type="㇑a" transform="matrix(1,0,0,1,1196,-4)" xmlns:kvg="http://kanjivg.tagaini.net"></path><path class="stroke_order_diagram--existing_path" d="M16.81,16.13C18.22,16.1,32.5,14,39.09,12.56c1.41-0.31,2.91,1.19,2.68,2.39c-0.66,3.41-2.25,11.52-2.91,19.72" id="Ske34n9qf3s" kvg:type="㇕b" transform="matrix(1,0,0,1,1196,-4)" xmlns:kvg="http://kanjivg.tagaini.net"></path><path class="stroke_order_diagram--existing_path" d="M28.07,24.12c0.25,0.48,0.46,1.54,0.49,2.17c0.15,2.81,0.32,8.98,0.31,9.29" id="Ske34n9qf3t" kvg:type="㇑a" transform="matrix(1,0,0,1,1196,-4)" xmlns:kvg="http://kanjivg.tagaini.net"></path><path class="stroke_order_diagram--existing_path" d="M28.98,24.91c1.41-0.03,9.45-1.47,10.73-1.64" id="Ske34n9qf3u" kvg:type="㇐a" transform="matrix(1,0,0,1,1196,-4)" xmlns:kvg="http://kanjivg.tagaini.net"></path><path class="stroke_order_diagram--existing_path" d="M12.04,36.62c-0.02,3.61-1.85,9-2.31,11.38" id="Ske34n9qf3v" kvg:type="㇔" transform="matrix(1,0,0,1,1196,-4)" xmlns:kvg="http://kanjivg.tagaini.net"></path><path class="stroke_order_diagram--existing_path" d="M12.19,38.26c5.8-1.18,30.14-4.09,33.94-4.29c5.94-0.32,0.23,5.3-1.25,7.24" id="Ske34n9qf3w" kvg:type="㇖b" transform="matrix(1,0,0,1,1196,-4)" xmlns:kvg="http://kanjivg.tagaini.net"></path><path class="stroke_order_diagram--existing_path" d="M18.81,44.12c0.37,0.7,0.62,1.4,0.74,2.1c0.12,0.7,0.18,50.51,0.12,52.08" id="Ske34n9qf3x" kvg:type="㇑/㇒" transform="matrix(1,0,0,1,1196,-4)" xmlns:kvg="http://kanjivg.tagaini.net"></path><path class="stroke_order_diagram--existing_path" d="M20.29,45.82c1.49-0.17,15.14-2.65,16.25-2.85c1.98-0.35,2.73,2.27,2.48,3.32c-0.24,1.01-0.37,29.87-0.37,44.04c0,9.09-4.98,3.15-6.22,1.57" id="Ske34n9qf3y" kvg:type="㇆a" transform="matrix(1,0,0,1,1196,-4)" xmlns:kvg="http://kanjivg.tagaini.net"></path><path class="stroke_order_diagram--existing_path" d="M20.29,59.31c6.46-0.81,13.73-1.64,18.2-2.17" id="Ske34n9qf3z" kvg:type="㇐a" transform="matrix(1,0,0,1,1196,-4)" xmlns:kvg="http://kanjivg.tagaini.net"></path><path class="stroke_order_diagram--existing_path" d="M19.99,72.67c3.97-0.53,13.67-1.62,18.26-1.97" id="Ske34n9qf40" kvg:type="㇐a" transform="matrix(1,0,0,1,1196,-4)" xmlns:kvg="http://kanjivg.tagaini.net"></path><path class="stroke_order_diagram--existing_path" d="M55.17,16.12c0.8,0.43,3.56,0.46,4.36,0.38c5.54-0.5,20.84-2.16,30.29-3c1.33-0.12,4.13,0.37,4.79,0.58" id="Ske34n9qf41" kvg:type="㇐" transform="matrix(1,0,0,1,1196,-4)" xmlns:kvg="http://kanjivg.tagaini.net"></path><path class="stroke_order_diagram--existing_path" d="M49.38,46.28c1.29,0.46,3.67,0.59,4.96,0.46c12.16-1.24,25.65-2.99,39.76-3.41c2.16-0.06,3.45,0.22,4.53,0.45" id="Ske34n9qf42" kvg:type="㇐" transform="matrix(1,0,0,1,1196,-4)" xmlns:kvg="http://kanjivg.tagaini.net"></path><path class="stroke_order_diagram--current_path" d="M72.45,16.63c0.47,0.45,2,1.85,2,4.23c0,4.62-0.06,72.71-0.16,78.27" id="kvg:09aad-s13" kvg:type="㇑" transform="matrix(1,0,0,1,1196,-4)" xmlns:kvg="http://kanjivg.tagaini.net"></path><path class="stroke_order_diagram--current_path" d="M72.45,16.63c0.47,0.45,2,1.85,2,4.23c0,4.62-0.06,72.71-0.16,78.27" id="Ske34n9qf44" kvg:type="㇑" transform="matrix(1,0,0,1,1196,-4)" xmlns:kvg="http://kanjivg.tagaini.net"></path><circle class="stroke_order_diagram--path_start" cx="72.45" cy="16.63" r="4" transform="matrix(1,0,0,1,1196,-4)"></circle></svg>