<svg class="stroke_order_diagram--svg_container_for_518662c5d5dda79658001853" style="height: 100px; width: 2200px;" viewbox="0 0 2200 100"><desc>Created with Snap</desc><defs></defs><line class="stroke_order_diagram--bounding_box" x1="1" x2="2199" y1="1" y2="1"></line><line class="stroke_order_diagram--bounding_box" x1="1" x2="1" y1="1" y2="99"></line><line class="stroke_order_diagram--bounding_box" x1="1" x2="2199" y1="99" y2="99"></line><line class="stroke_order_diagram--guide_line" x1="0" x2="2200" y1="50" y2="50"></line><line class="stroke_order_diagram--guide_line" x1="50" x2="50" y1="1" y2="99"></line><line class="stroke_order_diagram--bounding_box" x1="99" x2="99" y1="1" y2="99"></line><path class="stroke_order_diagram--current_path" d="M17.87,17.25c0.8,0.29,2.27,0.34,3.08,0.29c6.15-0.33,15.37-1.2,22.83-2.05c1.33-0.15,2.14,0.14,2.81,0.29" id="kvg:09c32-s1" kvg:type="㇐" transform="matrix(1,0,0,1,-4,-4)" xmlns:kvg="http://kanjivg.tagaini.net"></path><path class="stroke_order_diagram--current_path" d="M17.87,17.25c0.8,0.29,2.27,0.34,3.08,0.29c6.15-0.33,15.37-1.2,22.83-2.05c1.33-0.15,2.14,0.14,2.81,0.29" id="Ske35br2lv" kvg:type="㇐" transform="matrix(1,0,0,1,-4,-4)" xmlns:kvg="http://kanjivg.tagaini.net"></path><circle class="stroke_order_diagram--path_start" cx="17.87" cy="17.25" r="4" transform="matrix(1,0,0,1,-4,-4)"></circle><line class="stroke_order_diagram--guide_line" x1="150" x2="150" y1="1" y2="99"></line><line class="stroke_order_diagram--bounding_box" x1="199" x2="199" y1="1" y2="99"></line><path class="stroke_order_diagram--existing_path" d="M17.87,17.25c0.8,0.29,2.27,0.34,3.08,0.29c6.15-0.33,15.37-1.2,22.83-2.05c1.33-0.15,2.14,0.14,2.81,0.29" id="Ske35br2ly" kvg:type="㇐" transform="matrix(1,0,0,1,96,-4)" xmlns:kvg="http://kanjivg.tagaini.net"></path><path class="stroke_order_diagram--current_path" d="M30.82,9.5c0.11,0.21,1.61,1.08,1.61,2.4c0,5.1,0.36,8.85,0.36,12.4" id="kvg:09c32-s2" kvg:type="㇑a" transform="matrix(1,0,0,1,96,-4)" xmlns:kvg="http://kanjivg.tagaini.net"></path><path class="stroke_order_diagram--current_path" d="M30.82,9.5c0.11,0.21,1.61,1.08,1.61,2.4c0,5.1,0.36,8.85,0.36,12.4" id="Ske35br2l10" kvg:type="㇑a" transform="matrix(1,0,0,1,96,-4)" xmlns:kvg="http://kanjivg.tagaini.net"></path><circle class="stroke_order_diagram--path_start" cx="30.82" cy="9.5" r="4" transform="matrix(1,0,0,1,96,-4)"></circle><line class="stroke_order_diagram--guide_line" x1="250" x2="250" y1="1" y2="99"></line><line class="stroke_order_diagram--bounding_box" x1="299" x2="299" y1="1" y2="99"></line><path class="stroke_order_diagram--existing_path" d="M17.87,17.25c0.8,0.29,2.27,0.34,3.08,0.29c6.15-0.33,15.37-1.2,22.83-2.05c1.33-0.15,2.14,0.14,2.81,0.29" id="Ske35br2l13" kvg:type="㇐" transform="matrix(1,0,0,1,196,-4)" xmlns:kvg="http://kanjivg.tagaini.net"></path><path class="stroke_order_diagram--existing_path" d="M30.82,9.5c0.11,0.21,1.61,1.08,1.61,2.4c0,5.1,0.36,8.85,0.36,12.4" id="Ske35br2l14" kvg:type="㇑a" transform="matrix(1,0,0,1,196,-4)" xmlns:kvg="http://kanjivg.tagaini.net"></path><path class="stroke_order_diagram--current_path" d="M13.78,25.12c1.24,0.47,3.52,0.51,4.76,0.47c3.91-0.15,23.06-2.36,28.55-2.55c2.07-0.07,3.31,0.22,4.35,0.46" id="kvg:09c32-s3" kvg:type="㇐" transform="matrix(1,0,0,1,196,-4)" xmlns:kvg="http://kanjivg.tagaini.net"></path><path class="stroke_order_diagram--current_path" d="M13.78,25.12c1.24,0.47,3.52,0.51,4.76,0.47c3.91-0.15,23.06-2.36,28.55-2.55c2.07-0.07,3.31,0.22,4.35,0.46" id="Ske35br2l16" kvg:type="㇐" transform="matrix(1,0,0,1,196,-4)" xmlns:kvg="http://kanjivg.tagaini.net"></path><circle class="stroke_order_diagram--path_start" cx="13.78" cy="25.12" r="4" transform="matrix(1,0,0,1,196,-4)"></circle><line class="stroke_order_diagram--guide_line" x1="350" x2="350" y1="1" y2="99"></line><line class="stroke_order_diagram--bounding_box" x1="399" x2="399" y1="1" y2="99"></line><path class="stroke_order_diagram--existing_path" d="M17.87,17.25c0.8,0.29,2.27,0.34,3.08,0.29c6.15-0.33,15.37-1.2,22.83-2.05c1.33-0.15,2.14,0.14,2.81,0.29" id="Ske35br2l19" kvg:type="㇐" transform="matrix(1,0,0,1,296,-4)" xmlns:kvg="http://kanjivg.tagaini.net"></path><path class="stroke_order_diagram--existing_path" d="M30.82,9.5c0.11,0.21,1.61,1.08,1.61,2.4c0,5.1,0.36,8.85,0.36,12.4" id="Ske35br2l1a" kvg:type="㇑a" transform="matrix(1,0,0,1,296,-4)" xmlns:kvg="http://kanjivg.tagaini.net"></path><path class="stroke_order_diagram--existing_path" d="M13.78,25.12c1.24,0.47,3.52,0.51,4.76,0.47c3.91-0.15,23.06-2.36,28.55-2.55c2.07-0.07,3.31,0.22,4.35,0.46" id="Ske35br2l1b" kvg:type="㇐" transform="matrix(1,0,0,1,296,-4)" xmlns:kvg="http://kanjivg.tagaini.net"></path><path class="stroke_order_diagram--current_path" d="M30.9,26.07c0.63,0.34,1.66,1.64,1.66,2.31c0,3.12-0.08,3.37-0.08,4.43" id="kvg:09c32-s4" kvg:type="㇑a" transform="matrix(1,0,0,1,296,-4)" xmlns:kvg="http://kanjivg.tagaini.net"></path><path class="stroke_order_diagram--current_path" d="M30.9,26.07c0.63,0.34,1.66,1.64,1.66,2.31c0,3.12-0.08,3.37-0.08,4.43" id="Ske35br2l1d" kvg:type="㇑a" transform="matrix(1,0,0,1,296,-4)" xmlns:kvg="http://kanjivg.tagaini.net"></path><circle class="stroke_order_diagram--path_start" cx="30.9" cy="26.07" r="4" transform="matrix(1,0,0,1,296,-4)"></circle><line class="stroke_order_diagram--guide_line" x1="450" x2="450" y1="1" y2="99"></line><line class="stroke_order_diagram--bounding_box" x1="499" x2="499" y1="1" y2="99"></line><path class="stroke_order_diagram--existing_path" d="M17.87,17.25c0.8,0.29,2.27,0.34,3.08,0.29c6.15-0.33,15.37-1.2,22.83-2.05c1.33-0.15,2.14,0.14,2.81,0.29" id="Ske35br2l1g" kvg:type="㇐" transform="matrix(1,0,0,1,396,-4)" xmlns:kvg="http://kanjivg.tagaini.net"></path><path class="stroke_order_diagram--existing_path" d="M30.82,9.5c0.11,0.21,1.61,1.08,1.61,2.4c0,5.1,0.36,8.85,0.36,12.4" id="Ske35br2l1h" kvg:type="㇑a" transform="matrix(1,0,0,1,396,-4)" xmlns:kvg="http://kanjivg.tagaini.net"></path><path class="stroke_order_diagram--existing_path" d="M13.78,25.12c1.24,0.47,3.52,0.51,4.76,0.47c3.91-0.15,23.06-2.36,28.55-2.55c2.07-0.07,3.31,0.22,4.35,0.46" id="Ske35br2l1i" kvg:type="㇐" transform="matrix(1,0,0,1,396,-4)" xmlns:kvg="http://kanjivg.tagaini.net"></path><path class="stroke_order_diagram--existing_path" d="M30.9,26.07c0.63,0.34,1.66,1.64,1.66,2.31c0,3.12-0.08,3.37-0.08,4.43" id="Ske35br2l1j" kvg:type="㇑a" transform="matrix(1,0,0,1,396,-4)" xmlns:kvg="http://kanjivg.tagaini.net"></path><path class="stroke_order_diagram--current_path" d="M13.9,33.74c0.83,0.24,2.59,0.36,3.37,0.33c7.24-0.31,21.95-1.78,29.22-2.55c1.3-0.14,1.97,0.03,2.94,0.42" id="kvg:09c32-s5" kvg:type="㇐" transform="matrix(1,0,0,1,396,-4)" xmlns:kvg="http://kanjivg.tagaini.net"></path><path class="stroke_order_diagram--current_path" d="M13.9,33.74c0.83,0.24,2.59,0.36,3.37,0.33c7.24-0.31,21.95-1.78,29.22-2.55c1.3-0.14,1.97,0.03,2.94,0.42" id="Ske35br2l1l" kvg:type="㇐" transform="matrix(1,0,0,1,396,-4)" xmlns:kvg="http://kanjivg.tagaini.net"></path><circle class="stroke_order_diagram--path_start" cx="13.9" cy="33.74" r="4" transform="matrix(1,0,0,1,396,-4)"></circle><line class="stroke_order_diagram--guide_line" x1="550" x2="550" y1="1" y2="99"></line><line class="stroke_order_diagram--bounding_box" x1="599" x2="599" y1="1" y2="99"></line><path class="stroke_order_diagram--existing_path" d="M17.87,17.25c0.8,0.29,2.27,0.34,3.08,0.29c6.15-0.33,15.37-1.2,22.83-2.05c1.33-0.15,2.14,0.14,2.81,0.29" id="Ske35br2l1o" kvg:type="㇐" transform="matrix(1,0,0,1,496,-4)" xmlns:kvg="http://kanjivg.tagaini.net"></path><path class="stroke_order_diagram--existing_path" d="M30.82,9.5c0.11,0.21,1.61,1.08,1.61,2.4c0,5.1,0.36,8.85,0.36,12.4" id="Ske35br2l1p" kvg:type="㇑a" transform="matrix(1,0,0,1,496,-4)" xmlns:kvg="http://kanjivg.tagaini.net"></path><path class="stroke_order_diagram--existing_path" d="M13.78,25.12c1.24,0.47,3.52,0.51,4.76,0.47c3.91-0.15,23.06-2.36,28.55-2.55c2.07-0.07,3.31,0.22,4.35,0.46" id="Ske35br2l1q" kvg:type="㇐" transform="matrix(1,0,0,1,496,-4)" xmlns:kvg="http://kanjivg.tagaini.net"></path><path class="stroke_order_diagram--existing_path" d="M30.9,26.07c0.63,0.34,1.66,1.64,1.66,2.31c0,3.12-0.08,3.37-0.08,4.43" id="Ske35br2l1r" kvg:type="㇑a" transform="matrix(1,0,0,1,496,-4)" xmlns:kvg="http://kanjivg.tagaini.net"></path><path class="stroke_order_diagram--existing_path" d="M13.9,33.74c0.83,0.24,2.59,0.36,3.37,0.33c7.24-0.31,21.95-1.78,29.22-2.55c1.3-0.14,1.97,0.03,2.94,0.42" id="Ske35br2l1s" kvg:type="㇐" transform="matrix(1,0,0,1,496,-4)" xmlns:kvg="http://kanjivg.tagaini.net"></path><path class="stroke_order_diagram--current_path" d="M31.31,38.5c1.69,0.75,3.69,1,6.57,1.66c0.61,0.14,1.22,0.56,1.12,1.43c-0.27,2.3-6.72,11.7-9.06,13.57c-2.53,2.02-4.43-0.4-4.98-1.85" id="kvg:09c32-s6" kvg:type="㇆a" transform="matrix(1,0,0,1,496,-4)" xmlns:kvg="http://kanjivg.tagaini.net"></path><path class="stroke_order_diagram--current_path" d="M31.31,38.5c1.69,0.75,3.69,1,6.57,1.66c0.61,0.14,1.22,0.56,1.12,1.43c-0.27,2.3-6.72,11.7-9.06,13.57c-2.53,2.02-4.43-0.4-4.98-1.85" id="Ske35br2l1u" kvg:type="㇆a" transform="matrix(1,0,0,1,496,-4)" xmlns:kvg="http://kanjivg.tagaini.net"></path><circle class="stroke_order_diagram--path_start" cx="31.31" cy="38.5" r="4" transform="matrix(1,0,0,1,496,-4)"></circle><line class="stroke_order_diagram--guide_line" x1="650" x2="650" y1="1" y2="99"></line><line class="stroke_order_diagram--bounding_box" x1="699" x2="699" y1="1" y2="99"></line><path class="stroke_order_diagram--existing_path" d="M17.87,17.25c0.8,0.29,2.27,0.34,3.08,0.29c6.15-0.33,15.37-1.2,22.83-2.05c1.33-0.15,2.14,0.14,2.81,0.29" id="Ske35br2l1x" kvg:type="㇐" transform="matrix(1,0,0,1,596,-4)" xmlns:kvg="http://kanjivg.tagaini.net"></path><path class="stroke_order_diagram--existing_path" d="M30.82,9.5c0.11,0.21,1.61,1.08,1.61,2.4c0,5.1,0.36,8.85,0.36,12.4" id="Ske35br2l1y" kvg:type="㇑a" transform="matrix(1,0,0,1,596,-4)" xmlns:kvg="http://kanjivg.tagaini.net"></path><path class="stroke_order_diagram--existing_path" d="M13.78,25.12c1.24,0.47,3.52,0.51,4.76,0.47c3.91-0.15,23.06-2.36,28.55-2.55c2.07-0.07,3.31,0.22,4.35,0.46" id="Ske35br2l1z" kvg:type="㇐" transform="matrix(1,0,0,1,596,-4)" xmlns:kvg="http://kanjivg.tagaini.net"></path><path class="stroke_order_diagram--existing_path" d="M30.9,26.07c0.63,0.34,1.66,1.64,1.66,2.31c0,3.12-0.08,3.37-0.08,4.43" id="Ske35br2l20" kvg:type="㇑a" transform="matrix(1,0,0,1,596,-4)" xmlns:kvg="http://kanjivg.tagaini.net"></path><path class="stroke_order_diagram--existing_path" d="M13.9,33.74c0.83,0.24,2.59,0.36,3.37,0.33c7.24-0.31,21.95-1.78,29.22-2.55c1.3-0.14,1.97,0.03,2.94,0.42" id="Ske35br2l21" kvg:type="㇐" transform="matrix(1,0,0,1,596,-4)" xmlns:kvg="http://kanjivg.tagaini.net"></path><path class="stroke_order_diagram--existing_path" d="M31.31,38.5c1.69,0.75,3.69,1,6.57,1.66c0.61,0.14,1.22,0.56,1.12,1.43c-0.27,2.3-6.72,11.7-9.06,13.57c-2.53,2.02-4.43-0.4-4.98-1.85" id="Ske35br2l22" kvg:type="㇆a" transform="matrix(1,0,0,1,596,-4)" xmlns:kvg="http://kanjivg.tagaini.net"></path><path class="stroke_order_diagram--current_path" d="M30.06,34.61c0.25,0.54,0.2,1.15-0.1,1.76c-2.02,4.19-7.85,12.66-16.92,16.62" id="kvg:09c32-s7" kvg:type="㇒" transform="matrix(1,0,0,1,596,-4)" xmlns:kvg="http://kanjivg.tagaini.net"></path><path class="stroke_order_diagram--current_path" d="M30.06,34.61c0.25,0.54,0.2,1.15-0.1,1.76c-2.02,4.19-7.85,12.66-16.92,16.62" id="Ske35br2l24" kvg:type="㇒" transform="matrix(1,0,0,1,596,-4)" xmlns:kvg="http://kanjivg.tagaini.net"></path><circle class="stroke_order_diagram--path_start" cx="30.06" cy="34.61" r="4" transform="matrix(1,0,0,1,596,-4)"></circle><line class="stroke_order_diagram--guide_line" x1="750" x2="750" y1="1" y2="99"></line><line class="stroke_order_diagram--bounding_box" x1="799" x2="799" y1="1" y2="99"></line><path class="stroke_order_diagram--existing_path" d="M17.87,17.25c0.8,0.29,2.27,0.34,3.08,0.29c6.15-0.33,15.37-1.2,22.83-2.05c1.33-0.15,2.14,0.14,2.81,0.29" id="Ske35br2l27" kvg:type="㇐" transform="matrix(1,0,0,1,696,-4)" xmlns:kvg="http://kanjivg.tagaini.net"></path><path class="stroke_order_diagram--existing_path" d="M30.82,9.5c0.11,0.21,1.61,1.08,1.61,2.4c0,5.1,0.36,8.85,0.36,12.4" id="Ske35br2l28" kvg:type="㇑a" transform="matrix(1,0,0,1,696,-4)" xmlns:kvg="http://kanjivg.tagaini.net"></path><path class="stroke_order_diagram--existing_path" d="M13.78,25.12c1.24,0.47,3.52,0.51,4.76,0.47c3.91-0.15,23.06-2.36,28.55-2.55c2.07-0.07,3.31,0.22,4.35,0.46" id="Ske35br2l29" kvg:type="㇐" transform="matrix(1,0,0,1,696,-4)" xmlns:kvg="http://kanjivg.tagaini.net"></path><path class="stroke_order_diagram--existing_path" d="M30.9,26.07c0.63,0.34,1.66,1.64,1.66,2.31c0,3.12-0.08,3.37-0.08,4.43" id="Ske35br2l2a" kvg:type="㇑a" transform="matrix(1,0,0,1,696,-4)" xmlns:kvg="http://kanjivg.tagaini.net"></path><path class="stroke_order_diagram--existing_path" d="M13.9,33.74c0.83,0.24,2.59,0.36,3.37,0.33c7.24-0.31,21.95-1.78,29.22-2.55c1.3-0.14,1.97,0.03,2.94,0.42" id="Ske35br2l2b" kvg:type="㇐" transform="matrix(1,0,0,1,696,-4)" xmlns:kvg="http://kanjivg.tagaini.net"></path><path class="stroke_order_diagram--existing_path" d="M31.31,38.5c1.69,0.75,3.69,1,6.57,1.66c0.61,0.14,1.22,0.56,1.12,1.43c-0.27,2.3-6.72,11.7-9.06,13.57c-2.53,2.02-4.43-0.4-4.98-1.85" id="Ske35br2l2c" kvg:type="㇆a" transform="matrix(1,0,0,1,696,-4)" xmlns:kvg="http://kanjivg.tagaini.net"></path><path class="stroke_order_diagram--existing_path" d="M30.06,34.61c0.25,0.54,0.2,1.15-0.1,1.76c-2.02,4.19-7.85,12.66-16.92,16.62" id="Ske35br2l2d" kvg:type="㇒" transform="matrix(1,0,0,1,696,-4)" xmlns:kvg="http://kanjivg.tagaini.net"></path><path class="stroke_order_diagram--current_path" d="M64.08,9.81c0.03,0.54,0.11,1.4-0.06,2.15C62.75,17.75,59,27,53.29,33.89" id="kvg:09c32-s8" kvg:type="㇒" transform="matrix(1,0,0,1,696,-4)" xmlns:kvg="http://kanjivg.tagaini.net"></path><path class="stroke_order_diagram--current_path" d="M64.08,9.81c0.03,0.54,0.11,1.4-0.06,2.15C62.75,17.75,59,27,53.29,33.89" id="Ske35br2l2f" kvg:type="㇒" transform="matrix(1,0,0,1,696,-4)" xmlns:kvg="http://kanjivg.tagaini.net"></path><circle class="stroke_order_diagram--path_start" cx="64.08" cy="9.81" r="4" transform="matrix(1,0,0,1,696,-4)"></circle><line class="stroke_order_diagram--guide_line" x1="850" x2="850" y1="1" y2="99"></line><line class="stroke_order_diagram--bounding_box" x1="899" x2="899" y1="1" y2="99"></line><path class="stroke_order_diagram--existing_path" d="M17.87,17.25c0.8,0.29,2.27,0.34,3.08,0.29c6.15-0.33,15.37-1.2,22.83-2.05c1.33-0.15,2.14,0.14,2.81,0.29" id="Ske35br2l2i" kvg:type="㇐" transform="matrix(1,0,0,1,796,-4)" xmlns:kvg="http://kanjivg.tagaini.net"></path><path class="stroke_order_diagram--existing_path" d="M30.82,9.5c0.11,0.21,1.61,1.08,1.61,2.4c0,5.1,0.36,8.85,0.36,12.4" id="Ske35br2l2j" kvg:type="㇑a" transform="matrix(1,0,0,1,796,-4)" xmlns:kvg="http://kanjivg.tagaini.net"></path><path class="stroke_order_diagram--existing_path" d="M13.78,25.12c1.24,0.47,3.52,0.51,4.76,0.47c3.91-0.15,23.06-2.36,28.55-2.55c2.07-0.07,3.31,0.22,4.35,0.46" id="Ske35br2l2k" kvg:type="㇐" transform="matrix(1,0,0,1,796,-4)" xmlns:kvg="http://kanjivg.tagaini.net"></path><path class="stroke_order_diagram--existing_path" d="M30.9,26.07c0.63,0.34,1.66,1.64,1.66,2.31c0,3.12-0.08,3.37-0.08,4.43" id="Ske35br2l2l" kvg:type="㇑a" transform="matrix(1,0,0,1,796,-4)" xmlns:kvg="http://kanjivg.tagaini.net"></path><path class="stroke_order_diagram--existing_path" d="M13.9,33.74c0.83,0.24,2.59,0.36,3.37,0.33c7.24-0.31,21.95-1.78,29.22-2.55c1.3-0.14,1.97,0.03,2.94,0.42" id="Ske35br2l2m" kvg:type="㇐" transform="matrix(1,0,0,1,796,-4)" xmlns:kvg="http://kanjivg.tagaini.net"></path><path class="stroke_order_diagram--existing_path" d="M31.31,38.5c1.69,0.75,3.69,1,6.57,1.66c0.61,0.14,1.22,0.56,1.12,1.43c-0.27,2.3-6.72,11.7-9.06,13.57c-2.53,2.02-4.43-0.4-4.98-1.85" id="Ske35br2l2n" kvg:type="㇆a" transform="matrix(1,0,0,1,796,-4)" xmlns:kvg="http://kanjivg.tagaini.net"></path><path class="stroke_order_diagram--existing_path" d="M30.06,34.61c0.25,0.54,0.2,1.15-0.1,1.76c-2.02,4.19-7.85,12.66-16.92,16.62" id="Ske35br2l2o" kvg:type="㇒" transform="matrix(1,0,0,1,796,-4)" xmlns:kvg="http://kanjivg.tagaini.net"></path><path class="stroke_order_diagram--existing_path" d="M64.08,9.81c0.03,0.54,0.11,1.4-0.06,2.15C62.75,17.75,59,27,53.29,33.89" id="Ske35br2l2p" kvg:type="㇒" transform="matrix(1,0,0,1,796,-4)" xmlns:kvg="http://kanjivg.tagaini.net"></path><path class="stroke_order_diagram--current_path" d="M63.17,19.95c0.03-0.11,1.8,0.32,2.44,0.29c6.62-0.33,14.46-2.1,24.58-2.62c1.14-0.06,1.83-0.01,2.13,0.05" id="kvg:09c32-s9" kvg:type="㇐" transform="matrix(1,0,0,1,796,-4)" xmlns:kvg="http://kanjivg.tagaini.net"></path><path class="stroke_order_diagram--current_path" d="M63.17,19.95c0.03-0.11,1.8,0.32,2.44,0.29c6.62-0.33,14.46-2.1,24.58-2.62c1.14-0.06,1.83-0.01,2.13,0.05" id="Ske35br2l2r" kvg:type="㇐" transform="matrix(1,0,0,1,796,-4)" xmlns:kvg="http://kanjivg.tagaini.net"></path><circle class="stroke_order_diagram--path_start" cx="63.17" cy="19.95" r="4" transform="matrix(1,0,0,1,796,-4)"></circle><line class="stroke_order_diagram--guide_line" x1="950" x2="950" y1="1" y2="99"></line><line class="stroke_order_diagram--bounding_box" x1="999" x2="999" y1="1" y2="99"></line><path class="stroke_order_diagram--existing_path" d="M17.87,17.25c0.8,0.29,2.27,0.34,3.08,0.29c6.15-0.33,15.37-1.2,22.83-2.05c1.33-0.15,2.14,0.14,2.81,0.29" id="Ske35br2l2u" kvg:type="㇐" transform="matrix(1,0,0,1,896,-4)" xmlns:kvg="http://kanjivg.tagaini.net"></path><path class="stroke_order_diagram--existing_path" d="M30.82,9.5c0.11,0.21,1.61,1.08,1.61,2.4c0,5.1,0.36,8.85,0.36,12.4" id="Ske35br2l2v" kvg:type="㇑a" transform="matrix(1,0,0,1,896,-4)" xmlns:kvg="http://kanjivg.tagaini.net"></path><path class="stroke_order_diagram--existing_path" d="M13.78,25.12c1.24,0.47,3.52,0.51,4.76,0.47c3.91-0.15,23.06-2.36,28.55-2.55c2.07-0.07,3.31,0.22,4.35,0.46" id="Ske35br2l2w" kvg:type="㇐" transform="matrix(1,0,0,1,896,-4)" xmlns:kvg="http://kanjivg.tagaini.net"></path><path class="stroke_order_diagram--existing_path" d="M30.9,26.07c0.63,0.34,1.66,1.64,1.66,2.31c0,3.12-0.08,3.37-0.08,4.43" id="Ske35br2l2x" kvg:type="㇑a" transform="matrix(1,0,0,1,896,-4)" xmlns:kvg="http://kanjivg.tagaini.net"></path><path class="stroke_order_diagram--existing_path" d="M13.9,33.74c0.83,0.24,2.59,0.36,3.37,0.33c7.24-0.31,21.95-1.78,29.22-2.55c1.3-0.14,1.97,0.03,2.94,0.42" id="Ske35br2l2y" kvg:type="㇐" transform="matrix(1,0,0,1,896,-4)" xmlns:kvg="http://kanjivg.tagaini.net"></path><path class="stroke_order_diagram--existing_path" d="M31.31,38.5c1.69,0.75,3.69,1,6.57,1.66c0.61,0.14,1.22,0.56,1.12,1.43c-0.27,2.3-6.72,11.7-9.06,13.57c-2.53,2.02-4.43-0.4-4.98-1.85" id="Ske35br2l2z" kvg:type="㇆a" transform="matrix(1,0,0,1,896,-4)" xmlns:kvg="http://kanjivg.tagaini.net"></path><path class="stroke_order_diagram--existing_path" d="M30.06,34.61c0.25,0.54,0.2,1.15-0.1,1.76c-2.02,4.19-7.85,12.66-16.92,16.62" id="Ske35br2l30" kvg:type="㇒" transform="matrix(1,0,0,1,896,-4)" xmlns:kvg="http://kanjivg.tagaini.net"></path><path class="stroke_order_diagram--existing_path" d="M64.08,9.81c0.03,0.54,0.11,1.4-0.06,2.15C62.75,17.75,59,27,53.29,33.89" id="Ske35br2l31" kvg:type="㇒" transform="matrix(1,0,0,1,896,-4)" xmlns:kvg="http://kanjivg.tagaini.net"></path><path class="stroke_order_diagram--existing_path" d="M63.17,19.95c0.03-0.11,1.8,0.32,2.44,0.29c6.62-0.33,14.46-2.1,24.58-2.62c1.14-0.06,1.83-0.01,2.13,0.05" id="Ske35br2l32" kvg:type="㇐" transform="matrix(1,0,0,1,896,-4)" xmlns:kvg="http://kanjivg.tagaini.net"></path><path class="stroke_order_diagram--current_path" d="M78.61,22.12c0.14,1.13,0.23,2.11-0.33,3.12C74.25,32.5,67.25,41.5,57.11,46.5" id="kvg:09c32-s10" kvg:type="㇒" transform="matrix(1,0,0,1,896,-4)" xmlns:kvg="http://kanjivg.tagaini.net"></path><path class="stroke_order_diagram--current_path" d="M78.61,22.12c0.14,1.13,0.23,2.11-0.33,3.12C74.25,32.5,67.25,41.5,57.11,46.5" id="Ske35br2l34" kvg:type="㇒" transform="matrix(1,0,0,1,896,-4)" xmlns:kvg="http://kanjivg.tagaini.net"></path><circle class="stroke_order_diagram--path_start" cx="78.61" cy="22.12" r="4" transform="matrix(1,0,0,1,896,-4)"></circle><line class="stroke_order_diagram--guide_line" x1="1050" x2="1050" y1="1" y2="99"></line><line class="stroke_order_diagram--bounding_box" x1="1099" x2="1099" y1="1" y2="99"></line><path class="stroke_order_diagram--existing_path" d="M17.87,17.25c0.8,0.29,2.27,0.34,3.08,0.29c6.15-0.33,15.37-1.2,22.83-2.05c1.33-0.15,2.14,0.14,2.81,0.29" id="Ske35br2l37" kvg:type="㇐" transform="matrix(1,0,0,1,996,-4)" xmlns:kvg="http://kanjivg.tagaini.net"></path><path class="stroke_order_diagram--existing_path" d="M30.82,9.5c0.11,0.21,1.61,1.08,1.61,2.4c0,5.1,0.36,8.85,0.36,12.4" id="Ske35br2l38" kvg:type="㇑a" transform="matrix(1,0,0,1,996,-4)" xmlns:kvg="http://kanjivg.tagaini.net"></path><path class="stroke_order_diagram--existing_path" d="M13.78,25.12c1.24,0.47,3.52,0.51,4.76,0.47c3.91-0.15,23.06-2.36,28.55-2.55c2.07-0.07,3.31,0.22,4.35,0.46" id="Ske35br2l39" kvg:type="㇐" transform="matrix(1,0,0,1,996,-4)" xmlns:kvg="http://kanjivg.tagaini.net"></path><path class="stroke_order_diagram--existing_path" d="M30.9,26.07c0.63,0.34,1.66,1.64,1.66,2.31c0,3.12-0.08,3.37-0.08,4.43" id="Ske35br2l3a" kvg:type="㇑a" transform="matrix(1,0,0,1,996,-4)" xmlns:kvg="http://kanjivg.tagaini.net"></path><path class="stroke_order_diagram--existing_path" d="M13.9,33.74c0.83,0.24,2.59,0.36,3.37,0.33c7.24-0.31,21.95-1.78,29.22-2.55c1.3-0.14,1.97,0.03,2.94,0.42" id="Ske35br2l3b" kvg:type="㇐" transform="matrix(1,0,0,1,996,-4)" xmlns:kvg="http://kanjivg.tagaini.net"></path><path class="stroke_order_diagram--existing_path" d="M31.31,38.5c1.69,0.75,3.69,1,6.57,1.66c0.61,0.14,1.22,0.56,1.12,1.43c-0.27,2.3-6.72,11.7-9.06,13.57c-2.53,2.02-4.43-0.4-4.98-1.85" id="Ske35br2l3c" kvg:type="㇆a" transform="matrix(1,0,0,1,996,-4)" xmlns:kvg="http://kanjivg.tagaini.net"></path><path class="stroke_order_diagram--existing_path" d="M30.06,34.61c0.25,0.54,0.2,1.15-0.1,1.76c-2.02,4.19-7.85,12.66-16.92,16.62" id="Ske35br2l3d" kvg:type="㇒" transform="matrix(1,0,0,1,996,-4)" xmlns:kvg="http://kanjivg.tagaini.net"></path><path class="stroke_order_diagram--existing_path" d="M64.08,9.81c0.03,0.54,0.11,1.4-0.06,2.15C62.75,17.75,59,27,53.29,33.89" id="Ske35br2l3e" kvg:type="㇒" transform="matrix(1,0,0,1,996,-4)" xmlns:kvg="http://kanjivg.tagaini.net"></path><path class="stroke_order_diagram--existing_path" d="M63.17,19.95c0.03-0.11,1.8,0.32,2.44,0.29c6.62-0.33,14.46-2.1,24.58-2.62c1.14-0.06,1.83-0.01,2.13,0.05" id="Ske35br2l3f" kvg:type="㇐" transform="matrix(1,0,0,1,996,-4)" xmlns:kvg="http://kanjivg.tagaini.net"></path><path class="stroke_order_diagram--existing_path" d="M78.61,22.12c0.14,1.13,0.23,2.11-0.33,3.12C74.25,32.5,67.25,41.5,57.11,46.5" id="Ske35br2l3g" kvg:type="㇒" transform="matrix(1,0,0,1,996,-4)" xmlns:kvg="http://kanjivg.tagaini.net"></path><path class="stroke_order_diagram--current_path" d="M59.32,25.25C66,31,77.51,41.08,87.86,48.46c1.63,1.16,3.93,2.05,5.39,2.15" id="kvg:09c32-s11" kvg:type="㇏" transform="matrix(1,0,0,1,996,-4)" xmlns:kvg="http://kanjivg.tagaini.net"></path><path class="stroke_order_diagram--current_path" d="M59.32,25.25C66,31,77.51,41.08,87.86,48.46c1.63,1.16,3.93,2.05,5.39,2.15" id="Ske35br2l3i" kvg:type="㇏" transform="matrix(1,0,0,1,996,-4)" xmlns:kvg="http://kanjivg.tagaini.net"></path><circle class="stroke_order_diagram--path_start" cx="59.32" cy="25.25" r="4" transform="matrix(1,0,0,1,996,-4)"></circle><line class="stroke_order_diagram--guide_line" x1="1150" x2="1150" y1="1" y2="99"></line><line class="stroke_order_diagram--bounding_box" x1="1199" x2="1199" y1="1" y2="99"></line><path class="stroke_order_diagram--existing_path" d="M17.87,17.25c0.8,0.29,2.27,0.34,3.08,0.29c6.15-0.33,15.37-1.2,22.83-2.05c1.33-0.15,2.14,0.14,2.81,0.29" id="Ske35br2l3l" kvg:type="㇐" transform="matrix(1,0,0,1,1096,-4)" xmlns:kvg="http://kanjivg.tagaini.net"></path><path class="stroke_order_diagram--existing_path" d="M30.82,9.5c0.11,0.21,1.61,1.08,1.61,2.4c0,5.1,0.36,8.85,0.36,12.4" id="Ske35br2l3m" kvg:type="㇑a" transform="matrix(1,0,0,1,1096,-4)" xmlns:kvg="http://kanjivg.tagaini.net"></path><path class="stroke_order_diagram--existing_path" d="M13.78,25.12c1.24,0.47,3.52,0.51,4.76,0.47c3.91-0.15,23.06-2.36,28.55-2.55c2.07-0.07,3.31,0.22,4.35,0.46" id="Ske35br2l3n" kvg:type="㇐" transform="matrix(1,0,0,1,1096,-4)" xmlns:kvg="http://kanjivg.tagaini.net"></path><path class="stroke_order_diagram--existing_path" d="M30.9,26.07c0.63,0.34,1.66,1.64,1.66,2.31c0,3.12-0.08,3.37-0.08,4.43" id="Ske35br2l3o" kvg:type="㇑a" transform="matrix(1,0,0,1,1096,-4)" xmlns:kvg="http://kanjivg.tagaini.net"></path><path class="stroke_order_diagram--existing_path" d="M13.9,33.74c0.83,0.24,2.59,0.36,3.37,0.33c7.24-0.31,21.95-1.78,29.22-2.55c1.3-0.14,1.97,0.03,2.94,0.42" id="Ske35br2l3p" kvg:type="㇐" transform="matrix(1,0,0,1,1096,-4)" xmlns:kvg="http://kanjivg.tagaini.net"></path><path class="stroke_order_diagram--existing_path" d="M31.31,38.5c1.69,0.75,3.69,1,6.57,1.66c0.61,0.14,1.22,0.56,1.12,1.43c-0.27,2.3-6.72,11.7-9.06,13.57c-2.53,2.02-4.43-0.4-4.98-1.85" id="Ske35br2l3q" kvg:type="㇆a" transform="matrix(1,0,0,1,1096,-4)" xmlns:kvg="http://kanjivg.tagaini.net"></path><path class="stroke_order_diagram--existing_path" d="M30.06,34.61c0.25,0.54,0.2,1.15-0.1,1.76c-2.02,4.19-7.85,12.66-16.92,16.62" id="Ske35br2l3r" kvg:type="㇒" transform="matrix(1,0,0,1,1096,-4)" xmlns:kvg="http://kanjivg.tagaini.net"></path><path class="stroke_order_diagram--existing_path" d="M64.08,9.81c0.03,0.54,0.11,1.4-0.06,2.15C62.75,17.75,59,27,53.29,33.89" id="Ske35br2l3s" kvg:type="㇒" transform="matrix(1,0,0,1,1096,-4)" xmlns:kvg="http://kanjivg.tagaini.net"></path><path class="stroke_order_diagram--existing_path" d="M63.17,19.95c0.03-0.11,1.8,0.32,2.44,0.29c6.62-0.33,14.46-2.1,24.58-2.62c1.14-0.06,1.83-0.01,2.13,0.05" id="Ske35br2l3t" kvg:type="㇐" transform="matrix(1,0,0,1,1096,-4)" xmlns:kvg="http://kanjivg.tagaini.net"></path><path class="stroke_order_diagram--existing_path" d="M78.61,22.12c0.14,1.13,0.23,2.11-0.33,3.12C74.25,32.5,67.25,41.5,57.11,46.5" id="Ske35br2l3u" kvg:type="㇒" transform="matrix(1,0,0,1,1096,-4)" xmlns:kvg="http://kanjivg.tagaini.net"></path><path class="stroke_order_diagram--existing_path" d="M59.32,25.25C66,31,77.51,41.08,87.86,48.46c1.63,1.16,3.93,2.05,5.39,2.15" id="Ske35br2l3v" kvg:type="㇏" transform="matrix(1,0,0,1,1096,-4)" xmlns:kvg="http://kanjivg.tagaini.net"></path><path class="stroke_order_diagram--current_path" d="M46.92,44.75c0.06,0.47,0.13,1.22-0.13,1.91c-1.54,4.02-10.39,12.83-22.51,18.23" id="kvg:09c32-s12" kvg:type="㇒" transform="matrix(1,0,0,1,1096,-4)" xmlns:kvg="http://kanjivg.tagaini.net"></path><path class="stroke_order_diagram--current_path" d="M46.92,44.75c0.06,0.47,0.13,1.22-0.13,1.91c-1.54,4.02-10.39,12.83-22.51,18.23" id="Ske35br2l3x" kvg:type="㇒" transform="matrix(1,0,0,1,1096,-4)" xmlns:kvg="http://kanjivg.tagaini.net"></path><circle class="stroke_order_diagram--path_start" cx="46.92" cy="44.75" r="4" transform="matrix(1,0,0,1,1096,-4)"></circle><line class="stroke_order_diagram--guide_line" x1="1250" x2="1250" y1="1" y2="99"></line><line class="stroke_order_diagram--bounding_box" x1="1299" x2="1299" y1="1" y2="99"></line><path class="stroke_order_diagram--existing_path" d="M17.87,17.25c0.8,0.29,2.27,0.34,3.08,0.29c6.15-0.33,15.37-1.2,22.83-2.05c1.33-0.15,2.14,0.14,2.81,0.29" id="Ske35br2l40" kvg:type="㇐" transform="matrix(1,0,0,1,1196,-4)" xmlns:kvg="http://kanjivg.tagaini.net"></path><path class="stroke_order_diagram--existing_path" d="M30.82,9.5c0.11,0.21,1.61,1.08,1.61,2.4c0,5.1,0.36,8.85,0.36,12.4" id="Ske35br2l41" kvg:type="㇑a" transform="matrix(1,0,0,1,1196,-4)" xmlns:kvg="http://kanjivg.tagaini.net"></path><path class="stroke_order_diagram--existing_path" d="M13.78,25.12c1.24,0.47,3.52,0.51,4.76,0.47c3.91-0.15,23.06-2.36,28.55-2.55c2.07-0.07,3.31,0.22,4.35,0.46" id="Ske35br2l42" kvg:type="㇐" transform="matrix(1,0,0,1,1196,-4)" xmlns:kvg="http://kanjivg.tagaini.net"></path><path class="stroke_order_diagram--existing_path" d="M30.9,26.07c0.63,0.34,1.66,1.64,1.66,2.31c0,3.12-0.08,3.37-0.08,4.43" id="Ske35br2l43" kvg:type="㇑a" transform="matrix(1,0,0,1,1196,-4)" xmlns:kvg="http://kanjivg.tagaini.net"></path><path class="stroke_order_diagram--existing_path" d="M13.9,33.74c0.83,0.24,2.59,0.36,3.37,0.33c7.24-0.31,21.95-1.78,29.22-2.55c1.3-0.14,1.97,0.03,2.94,0.42" id="Ske35br2l44" kvg:type="㇐" transform="matrix(1,0,0,1,1196,-4)" xmlns:kvg="http://kanjivg.tagaini.net"></path><path class="stroke_order_diagram--existing_path" d="M31.31,38.5c1.69,0.75,3.69,1,6.57,1.66c0.61,0.14,1.22,0.56,1.12,1.43c-0.27,2.3-6.72,11.7-9.06,13.57c-2.53,2.02-4.43-0.4-4.98-1.85" id="Ske35br2l45" kvg:type="㇆a" transform="matrix(1,0,0,1,1196,-4)" xmlns:kvg="http://kanjivg.tagaini.net"></path><path class="stroke_order_diagram--existing_path" d="M30.06,34.61c0.25,0.54,0.2,1.15-0.1,1.76c-2.02,4.19-7.85,12.66-16.92,16.62" id="Ske35br2l46" kvg:type="㇒" transform="matrix(1,0,0,1,1196,-4)" xmlns:kvg="http://kanjivg.tagaini.net"></path><path class="stroke_order_diagram--existing_path" d="M64.08,9.81c0.03,0.54,0.11,1.4-0.06,2.15C62.75,17.75,59,27,53.29,33.89" id="Ske35br2l47" kvg:type="㇒" transform="matrix(1,0,0,1,1196,-4)" xmlns:kvg="http://kanjivg.tagaini.net"></path><path class="stroke_order_diagram--existing_path" d="M63.17,19.95c0.03-0.11,1.8,0.32,2.44,0.29c6.62-0.33,14.46-2.1,24.58-2.62c1.14-0.06,1.83-0.01,2.13,0.05" id="Ske35br2l48" kvg:type="㇐" transform="matrix(1,0,0,1,1196,-4)" xmlns:kvg="http://kanjivg.tagaini.net"></path><path class="stroke_order_diagram--existing_path" d="M78.61,22.12c0.14,1.13,0.23,2.11-0.33,3.12C74.25,32.5,67.25,41.5,57.11,46.5" id="Ske35br2l49" kvg:type="㇒" transform="matrix(1,0,0,1,1196,-4)" xmlns:kvg="http://kanjivg.tagaini.net"></path><path class="stroke_order_diagram--existing_path" d="M59.32,25.25C66,31,77.51,41.08,87.86,48.46c1.63,1.16,3.93,2.05,5.39,2.15" id="Ske35br2l4a" kvg:type="㇏" transform="matrix(1,0,0,1,1196,-4)" xmlns:kvg="http://kanjivg.tagaini.net"></path><path class="stroke_order_diagram--existing_path" d="M46.92,44.75c0.06,0.47,0.13,1.22-0.13,1.91c-1.54,4.02-10.39,12.83-22.51,18.23" id="Ske35br2l4b" kvg:type="㇒" transform="matrix(1,0,0,1,1196,-4)" xmlns:kvg="http://kanjivg.tagaini.net"></path><path class="stroke_order_diagram--current_path" d="M44.83,51.06c2.57,0,19-1.19,21.7-1.36c2.31-0.15,2.51,1.64,1.54,2.39C64,55.27,62.25,56.75,59,61" id="kvg:09c32-s13" kvg:type="㇇" transform="matrix(1,0,0,1,1196,-4)" xmlns:kvg="http://kanjivg.tagaini.net"></path><path class="stroke_order_diagram--current_path" d="M44.83,51.06c2.57,0,19-1.19,21.7-1.36c2.31-0.15,2.51,1.64,1.54,2.39C64,55.27,62.25,56.75,59,61" id="Ske35br2l4d" kvg:type="㇇" transform="matrix(1,0,0,1,1196,-4)" xmlns:kvg="http://kanjivg.tagaini.net"></path><circle class="stroke_order_diagram--path_start" cx="44.83" cy="51.06" r="4" transform="matrix(1,0,0,1,1196,-4)"></circle><line class="stroke_order_diagram--guide_line" x1="1350" x2="1350" y1="1" y2="99"></line><line class="stroke_order_diagram--bounding_box" x1="1399" x2="1399" y1="1" y2="99"></line><path class="stroke_order_diagram--existing_path" d="M17.87,17.25c0.8,0.29,2.27,0.34,3.08,0.29c6.15-0.33,15.37-1.2,22.83-2.05c1.33-0.15,2.14,0.14,2.81,0.29" id="Ske35br2l4g" kvg:type="㇐" transform="matrix(1,0,0,1,1296,-4)" xmlns:kvg="http://kanjivg.tagaini.net"></path><path class="stroke_order_diagram--existing_path" d="M30.82,9.5c0.11,0.21,1.61,1.08,1.61,2.4c0,5.1,0.36,8.85,0.36,12.4" id="Ske35br2l4h" kvg:type="㇑a" transform="matrix(1,0,0,1,1296,-4)" xmlns:kvg="http://kanjivg.tagaini.net"></path><path class="stroke_order_diagram--existing_path" d="M13.78,25.12c1.24,0.47,3.52,0.51,4.76,0.47c3.91-0.15,23.06-2.36,28.55-2.55c2.07-0.07,3.31,0.22,4.35,0.46" id="Ske35br2l4i" kvg:type="㇐" transform="matrix(1,0,0,1,1296,-4)" xmlns:kvg="http://kanjivg.tagaini.net"></path><path class="stroke_order_diagram--existing_path" d="M30.9,26.07c0.63,0.34,1.66,1.64,1.66,2.31c0,3.12-0.08,3.37-0.08,4.43" id="Ske35br2l4j" kvg:type="㇑a" transform="matrix(1,0,0,1,1296,-4)" xmlns:kvg="http://kanjivg.tagaini.net"></path><path class="stroke_order_diagram--existing_path" d="M13.9,33.74c0.83,0.24,2.59,0.36,3.37,0.33c7.24-0.31,21.95-1.78,29.22-2.55c1.3-0.14,1.97,0.03,2.94,0.42" id="Ske35br2l4k" kvg:type="㇐" transform="matrix(1,0,0,1,1296,-4)" xmlns:kvg="http://kanjivg.tagaini.net"></path><path class="stroke_order_diagram--existing_path" d="M31.31,38.5c1.69,0.75,3.69,1,6.57,1.66c0.61,0.14,1.22,0.56,1.12,1.43c-0.27,2.3-6.72,11.7-9.06,13.57c-2.53,2.02-4.43-0.4-4.98-1.85" id="Ske35br2l4l" kvg:type="㇆a" transform="matrix(1,0,0,1,1296,-4)" xmlns:kvg="http://kanjivg.tagaini.net"></path><path class="stroke_order_diagram--existing_path" d="M30.06,34.61c0.25,0.54,0.2,1.15-0.1,1.76c-2.02,4.19-7.85,12.66-16.92,16.62" id="Ske35br2l4m" kvg:type="㇒" transform="matrix(1,0,0,1,1296,-4)" xmlns:kvg="http://kanjivg.tagaini.net"></path><path class="stroke_order_diagram--existing_path" d="M64.08,9.81c0.03,0.54,0.11,1.4-0.06,2.15C62.75,17.75,59,27,53.29,33.89" id="Ske35br2l4n" kvg:type="㇒" transform="matrix(1,0,0,1,1296,-4)" xmlns:kvg="http://kanjivg.tagaini.net"></path><path class="stroke_order_diagram--existing_path" d="M63.17,19.95c0.03-0.11,1.8,0.32,2.44,0.29c6.62-0.33,14.46-2.1,24.58-2.62c1.14-0.06,1.83-0.01,2.13,0.05" id="Ske35br2l4o" kvg:type="㇐" transform="matrix(1,0,0,1,1296,-4)" xmlns:kvg="http://kanjivg.tagaini.net"></path><path class="stroke_order_diagram--existing_path" d="M78.61,22.12c0.14,1.13,0.23,2.11-0.33,3.12C74.25,32.5,67.25,41.5,57.11,46.5" id="Ske35br2l4p" kvg:type="㇒" transform="matrix(1,0,0,1,1296,-4)" xmlns:kvg="http://kanjivg.tagaini.net"></path><path class="stroke_order_diagram--existing_path" d="M59.32,25.25C66,31,77.51,41.08,87.86,48.46c1.63,1.16,3.93,2.05,5.39,2.15" id="Ske35br2l4q" kvg:type="㇏" transform="matrix(1,0,0,1,1296,-4)" xmlns:kvg="http://kanjivg.tagaini.net"></path><path class="stroke_order_diagram--existing_path" d="M46.92,44.75c0.06,0.47,0.13,1.22-0.13,1.91c-1.54,4.02-10.39,12.83-22.51,18.23" id="Ske35br2l4r" kvg:type="㇒" transform="matrix(1,0,0,1,1296,-4)" xmlns:kvg="http://kanjivg.tagaini.net"></path><path class="stroke_order_diagram--existing_path" d="M44.83,51.06c2.57,0,19-1.19,21.7-1.36c2.31-0.15,2.51,1.64,1.54,2.39C64,55.27,62.25,56.75,59,61" id="Ske35br2l4s" kvg:type="㇇" transform="matrix(1,0,0,1,1296,-4)" xmlns:kvg="http://kanjivg.tagaini.net"></path><path class="stroke_order_diagram--current_path" d="M30.86,62.83c0.36,0.34,0.41,0.57,0.57,1.02c1.32,3.9,2.32,14.15,3.17,20.78" id="kvg:09c32-s14" kvg:type="㇑" transform="matrix(1,0,0,1,1296,-4)" xmlns:kvg="http://kanjivg.tagaini.net"></path><path class="stroke_order_diagram--current_path" d="M30.86,62.83c0.36,0.34,0.41,0.57,0.57,1.02c1.32,3.9,2.32,14.15,3.17,20.78" id="Ske35br2l4u" kvg:type="㇑" transform="matrix(1,0,0,1,1296,-4)" xmlns:kvg="http://kanjivg.tagaini.net"></path><circle class="stroke_order_diagram--path_start" cx="30.86" cy="62.83" r="4" transform="matrix(1,0,0,1,1296,-4)"></circle><line class="stroke_order_diagram--guide_line" x1="1450" x2="1450" y1="1" y2="99"></line><line class="stroke_order_diagram--bounding_box" x1="1499" x2="1499" y1="1" y2="99"></line><path class="stroke_order_diagram--existing_path" d="M17.87,17.25c0.8,0.29,2.27,0.34,3.08,0.29c6.15-0.33,15.37-1.2,22.83-2.05c1.33-0.15,2.14,0.14,2.81,0.29" id="Ske35br2l4x" kvg:type="㇐" transform="matrix(1,0,0,1,1396,-4)" xmlns:kvg="http://kanjivg.tagaini.net"></path><path class="stroke_order_diagram--existing_path" d="M30.82,9.5c0.11,0.21,1.61,1.08,1.61,2.4c0,5.1,0.36,8.85,0.36,12.4" id="Ske35br2l4y" kvg:type="㇑a" transform="matrix(1,0,0,1,1396,-4)" xmlns:kvg="http://kanjivg.tagaini.net"></path><path class="stroke_order_diagram--existing_path" d="M13.78,25.12c1.24,0.47,3.52,0.51,4.76,0.47c3.91-0.15,23.06-2.36,28.55-2.55c2.07-0.07,3.31,0.22,4.35,0.46" id="Ske35br2l4z" kvg:type="㇐" transform="matrix(1,0,0,1,1396,-4)" xmlns:kvg="http://kanjivg.tagaini.net"></path><path class="stroke_order_diagram--existing_path" d="M30.9,26.07c0.63,0.34,1.66,1.64,1.66,2.31c0,3.12-0.08,3.37-0.08,4.43" id="Ske35br2l50" kvg:type="㇑a" transform="matrix(1,0,0,1,1396,-4)" xmlns:kvg="http://kanjivg.tagaini.net"></path><path class="stroke_order_diagram--existing_path" d="M13.9,33.74c0.83,0.24,2.59,0.36,3.37,0.33c7.24-0.31,21.95-1.78,29.22-2.55c1.3-0.14,1.97,0.03,2.94,0.42" id="Ske35br2l51" kvg:type="㇐" transform="matrix(1,0,0,1,1396,-4)" xmlns:kvg="http://kanjivg.tagaini.net"></path><path class="stroke_order_diagram--existing_path" d="M31.31,38.5c1.69,0.75,3.69,1,6.57,1.66c0.61,0.14,1.22,0.56,1.12,1.43c-0.27,2.3-6.72,11.7-9.06,13.57c-2.53,2.02-4.43-0.4-4.98-1.85" id="Ske35br2l52" kvg:type="㇆a" transform="matrix(1,0,0,1,1396,-4)" xmlns:kvg="http://kanjivg.tagaini.net"></path><path class="stroke_order_diagram--existing_path" d="M30.06,34.61c0.25,0.54,0.2,1.15-0.1,1.76c-2.02,4.19-7.85,12.66-16.92,16.62" id="Ske35br2l53" kvg:type="㇒" transform="matrix(1,0,0,1,1396,-4)" xmlns:kvg="http://kanjivg.tagaini.net"></path><path class="stroke_order_diagram--existing_path" d="M64.08,9.81c0.03,0.54,0.11,1.4-0.06,2.15C62.75,17.75,59,27,53.29,33.89" id="Ske35br2l54" kvg:type="㇒" transform="matrix(1,0,0,1,1396,-4)" xmlns:kvg="http://kanjivg.tagaini.net"></path><path class="stroke_order_diagram--existing_path" d="M63.17,19.95c0.03-0.11,1.8,0.32,2.44,0.29c6.62-0.33,14.46-2.1,24.58-2.62c1.14-0.06,1.83-0.01,2.13,0.05" id="Ske35br2l55" kvg:type="㇐" transform="matrix(1,0,0,1,1396,-4)" xmlns:kvg="http://kanjivg.tagaini.net"></path><path class="stroke_order_diagram--existing_path" d="M78.61,22.12c0.14,1.13,0.23,2.11-0.33,3.12C74.25,32.5,67.25,41.5,57.11,46.5" id="Ske35br2l56" kvg:type="㇒" transform="matrix(1,0,0,1,1396,-4)" xmlns:kvg="http://kanjivg.tagaini.net"></path><path class="stroke_order_diagram--existing_path" d="M59.32,25.25C66,31,77.51,41.08,87.86,48.46c1.63,1.16,3.93,2.05,5.39,2.15" id="Ske35br2l57" kvg:type="㇏" transform="matrix(1,0,0,1,1396,-4)" xmlns:kvg="http://kanjivg.tagaini.net"></path><path class="stroke_order_diagram--existing_path" d="M46.92,44.75c0.06,0.47,0.13,1.22-0.13,1.91c-1.54,4.02-10.39,12.83-22.51,18.23" id="Ske35br2l58" kvg:type="㇒" transform="matrix(1,0,0,1,1396,-4)" xmlns:kvg="http://kanjivg.tagaini.net"></path><path class="stroke_order_diagram--existing_path" d="M44.83,51.06c2.57,0,19-1.19,21.7-1.36c2.31-0.15,2.51,1.64,1.54,2.39C64,55.27,62.25,56.75,59,61" id="Ske35br2l59" kvg:type="㇇" transform="matrix(1,0,0,1,1396,-4)" xmlns:kvg="http://kanjivg.tagaini.net"></path><path class="stroke_order_diagram--existing_path" d="M30.86,62.83c0.36,0.34,0.41,0.57,0.57,1.02c1.32,3.9,2.32,14.15,3.17,20.78" id="Ske35br2l5a" kvg:type="㇑" transform="matrix(1,0,0,1,1396,-4)" xmlns:kvg="http://kanjivg.tagaini.net"></path><path class="stroke_order_diagram--current_path" d="M32.54,63.31c12.6-0.9,36.69-2.62,46.11-3.18c2.09-0.13,3.84,1.62,3.55,3.69c-0.51,3.63-2.76,12.43-4.34,18.45" id="kvg:09c32-s15" kvg:type="㇕a" transform="matrix(1,0,0,1,1396,-4)" xmlns:kvg="http://kanjivg.tagaini.net"></path><path class="stroke_order_diagram--current_path" d="M32.54,63.31c12.6-0.9,36.69-2.62,46.11-3.18c2.09-0.13,3.84,1.62,3.55,3.69c-0.51,3.63-2.76,12.43-4.34,18.45" id="Ske35br2l5c" kvg:type="㇕a" transform="matrix(1,0,0,1,1396,-4)" xmlns:kvg="http://kanjivg.tagaini.net"></path><circle class="stroke_order_diagram--path_start" cx="32.54" cy="63.31" r="4" transform="matrix(1,0,0,1,1396,-4)"></circle><line class="stroke_order_diagram--guide_line" x1="1550" x2="1550" y1="1" y2="99"></line><line class="stroke_order_diagram--bounding_box" x1="1599" x2="1599" y1="1" y2="99"></line><path class="stroke_order_diagram--existing_path" d="M17.87,17.25c0.8,0.29,2.27,0.34,3.08,0.29c6.15-0.33,15.37-1.2,22.83-2.05c1.33-0.15,2.14,0.14,2.81,0.29" id="Ske35br2l5f" kvg:type="㇐" transform="matrix(1,0,0,1,1496,-4)" xmlns:kvg="http://kanjivg.tagaini.net"></path><path class="stroke_order_diagram--existing_path" d="M30.82,9.5c0.11,0.21,1.61,1.08,1.61,2.4c0,5.1,0.36,8.85,0.36,12.4" id="Ske35br2l5g" kvg:type="㇑a" transform="matrix(1,0,0,1,1496,-4)" xmlns:kvg="http://kanjivg.tagaini.net"></path><path class="stroke_order_diagram--existing_path" d="M13.78,25.12c1.24,0.47,3.52,0.51,4.76,0.47c3.91-0.15,23.06-2.36,28.55-2.55c2.07-0.07,3.31,0.22,4.35,0.46" id="Ske35br2l5h" kvg:type="㇐" transform="matrix(1,0,0,1,1496,-4)" xmlns:kvg="http://kanjivg.tagaini.net"></path><path class="stroke_order_diagram--existing_path" d="M30.9,26.07c0.63,0.34,1.66,1.64,1.66,2.31c0,3.12-0.08,3.37-0.08,4.43" id="Ske35br2l5i" kvg:type="㇑a" transform="matrix(1,0,0,1,1496,-4)" xmlns:kvg="http://kanjivg.tagaini.net"></path><path class="stroke_order_diagram--existing_path" d="M13.9,33.74c0.83,0.24,2.59,0.36,3.37,0.33c7.24-0.31,21.95-1.78,29.22-2.55c1.3-0.14,1.97,0.03,2.94,0.42" id="Ske35br2l5j" kvg:type="㇐" transform="matrix(1,0,0,1,1496,-4)" xmlns:kvg="http://kanjivg.tagaini.net"></path><path class="stroke_order_diagram--existing_path" d="M31.31,38.5c1.69,0.75,3.69,1,6.57,1.66c0.61,0.14,1.22,0.56,1.12,1.43c-0.27,2.3-6.72,11.7-9.06,13.57c-2.53,2.02-4.43-0.4-4.98-1.85" id="Ske35br2l5k" kvg:type="㇆a" transform="matrix(1,0,0,1,1496,-4)" xmlns:kvg="http://kanjivg.tagaini.net"></path><path class="stroke_order_diagram--existing_path" d="M30.06,34.61c0.25,0.54,0.2,1.15-0.1,1.76c-2.02,4.19-7.85,12.66-16.92,16.62" id="Ske35br2l5l" kvg:type="㇒" transform="matrix(1,0,0,1,1496,-4)" xmlns:kvg="http://kanjivg.tagaini.net"></path><path class="stroke_order_diagram--existing_path" d="M64.08,9.81c0.03,0.54,0.11,1.4-0.06,2.15C62.75,17.75,59,27,53.29,33.89" id="Ske35br2l5m" kvg:type="㇒" transform="matrix(1,0,0,1,1496,-4)" xmlns:kvg="http://kanjivg.tagaini.net"></path><path class="stroke_order_diagram--existing_path" d="M63.17,19.95c0.03-0.11,1.8,0.32,2.44,0.29c6.62-0.33,14.46-2.1,24.58-2.62c1.14-0.06,1.83-0.01,2.13,0.05" id="Ske35br2l5n" kvg:type="㇐" transform="matrix(1,0,0,1,1496,-4)" xmlns:kvg="http://kanjivg.tagaini.net"></path><path class="stroke_order_diagram--existing_path" d="M78.61,22.12c0.14,1.13,0.23,2.11-0.33,3.12C74.25,32.5,67.25,41.5,57.11,46.5" id="Ske35br2l5o" kvg:type="㇒" transform="matrix(1,0,0,1,1496,-4)" xmlns:kvg="http://kanjivg.tagaini.net"></path><path class="stroke_order_diagram--existing_path" d="M59.32,25.25C66,31,77.51,41.08,87.86,48.46c1.63,1.16,3.93,2.05,5.39,2.15" id="Ske35br2l5p" kvg:type="㇏" transform="matrix(1,0,0,1,1496,-4)" xmlns:kvg="http://kanjivg.tagaini.net"></path><path class="stroke_order_diagram--existing_path" d="M46.92,44.75c0.06,0.47,0.13,1.22-0.13,1.91c-1.54,4.02-10.39,12.83-22.51,18.23" id="Ske35br2l5q" kvg:type="㇒" transform="matrix(1,0,0,1,1496,-4)" xmlns:kvg="http://kanjivg.tagaini.net"></path><path class="stroke_order_diagram--existing_path" d="M44.83,51.06c2.57,0,19-1.19,21.7-1.36c2.31-0.15,2.51,1.64,1.54,2.39C64,55.27,62.25,56.75,59,61" id="Ske35br2l5r" kvg:type="㇇" transform="matrix(1,0,0,1,1496,-4)" xmlns:kvg="http://kanjivg.tagaini.net"></path><path class="stroke_order_diagram--existing_path" d="M30.86,62.83c0.36,0.34,0.41,0.57,0.57,1.02c1.32,3.9,2.32,14.15,3.17,20.78" id="Ske35br2l5s" kvg:type="㇑" transform="matrix(1,0,0,1,1496,-4)" xmlns:kvg="http://kanjivg.tagaini.net"></path><path class="stroke_order_diagram--existing_path" d="M32.54,63.31c12.6-0.9,36.69-2.62,46.11-3.18c2.09-0.13,3.84,1.62,3.55,3.69c-0.51,3.63-2.76,12.43-4.34,18.45" id="Ske35br2l5t" kvg:type="㇕a" transform="matrix(1,0,0,1,1496,-4)" xmlns:kvg="http://kanjivg.tagaini.net"></path><path class="stroke_order_diagram--current_path" d="M55.25,62.33c0.45,4.65,0.23,14.81,0.23,17.91" id="kvg:09c32-s16" kvg:type="㇑a" transform="matrix(1,0,0,1,1496,-4)" xmlns:kvg="http://kanjivg.tagaini.net"></path><path class="stroke_order_diagram--current_path" d="M55.25,62.33c0.45,4.65,0.23,14.81,0.23,17.91" id="Ske35br2l5v" kvg:type="㇑a" transform="matrix(1,0,0,1,1496,-4)" xmlns:kvg="http://kanjivg.tagaini.net"></path><circle class="stroke_order_diagram--path_start" cx="55.25" cy="62.33" r="4" transform="matrix(1,0,0,1,1496,-4)"></circle><line class="stroke_order_diagram--guide_line" x1="1650" x2="1650" y1="1" y2="99"></line><line class="stroke_order_diagram--bounding_box" x1="1699" x2="1699" y1="1" y2="99"></line><path class="stroke_order_diagram--existing_path" d="M17.87,17.25c0.8,0.29,2.27,0.34,3.08,0.29c6.15-0.33,15.37-1.2,22.83-2.05c1.33-0.15,2.14,0.14,2.81,0.29" id="Ske35br2l5y" kvg:type="㇐" transform="matrix(1,0,0,1,1596,-4)" xmlns:kvg="http://kanjivg.tagaini.net"></path><path class="stroke_order_diagram--existing_path" d="M30.82,9.5c0.11,0.21,1.61,1.08,1.61,2.4c0,5.1,0.36,8.85,0.36,12.4" id="Ske35br2l5z" kvg:type="㇑a" transform="matrix(1,0,0,1,1596,-4)" xmlns:kvg="http://kanjivg.tagaini.net"></path><path class="stroke_order_diagram--existing_path" d="M13.78,25.12c1.24,0.47,3.52,0.51,4.76,0.47c3.91-0.15,23.06-2.36,28.55-2.55c2.07-0.07,3.31,0.22,4.35,0.46" id="Ske35br2l60" kvg:type="㇐" transform="matrix(1,0,0,1,1596,-4)" xmlns:kvg="http://kanjivg.tagaini.net"></path><path class="stroke_order_diagram--existing_path" d="M30.9,26.07c0.63,0.34,1.66,1.64,1.66,2.31c0,3.12-0.08,3.37-0.08,4.43" id="Ske35br2l61" kvg:type="㇑a" transform="matrix(1,0,0,1,1596,-4)" xmlns:kvg="http://kanjivg.tagaini.net"></path><path class="stroke_order_diagram--existing_path" d="M13.9,33.74c0.83,0.24,2.59,0.36,3.37,0.33c7.24-0.31,21.95-1.78,29.22-2.55c1.3-0.14,1.97,0.03,2.94,0.42" id="Ske35br2l62" kvg:type="㇐" transform="matrix(1,0,0,1,1596,-4)" xmlns:kvg="http://kanjivg.tagaini.net"></path><path class="stroke_order_diagram--existing_path" d="M31.31,38.5c1.69,0.75,3.69,1,6.57,1.66c0.61,0.14,1.22,0.56,1.12,1.43c-0.27,2.3-6.72,11.7-9.06,13.57c-2.53,2.02-4.43-0.4-4.98-1.85" id="Ske35br2l63" kvg:type="㇆a" transform="matrix(1,0,0,1,1596,-4)" xmlns:kvg="http://kanjivg.tagaini.net"></path><path class="stroke_order_diagram--existing_path" d="M30.06,34.61c0.25,0.54,0.2,1.15-0.1,1.76c-2.02,4.19-7.85,12.66-16.92,16.62" id="Ske35br2l64" kvg:type="㇒" transform="matrix(1,0,0,1,1596,-4)" xmlns:kvg="http://kanjivg.tagaini.net"></path><path class="stroke_order_diagram--existing_path" d="M64.08,9.81c0.03,0.54,0.11,1.4-0.06,2.15C62.75,17.75,59,27,53.29,33.89" id="Ske35br2l65" kvg:type="㇒" transform="matrix(1,0,0,1,1596,-4)" xmlns:kvg="http://kanjivg.tagaini.net"></path><path class="stroke_order_diagram--existing_path" d="M63.17,19.95c0.03-0.11,1.8,0.32,2.44,0.29c6.62-0.33,14.46-2.1,24.58-2.62c1.14-0.06,1.83-0.01,2.13,0.05" id="Ske35br2l66" kvg:type="㇐" transform="matrix(1,0,0,1,1596,-4)" xmlns:kvg="http://kanjivg.tagaini.net"></path><path class="stroke_order_diagram--existing_path" d="M78.61,22.12c0.14,1.13,0.23,2.11-0.33,3.12C74.25,32.5,67.25,41.5,57.11,46.5" id="Ske35br2l67" kvg:type="㇒" transform="matrix(1,0,0,1,1596,-4)" xmlns:kvg="http://kanjivg.tagaini.net"></path><path class="stroke_order_diagram--existing_path" d="M59.32,25.25C66,31,77.51,41.08,87.86,48.46c1.63,1.16,3.93,2.05,5.39,2.15" id="Ske35br2l68" kvg:type="㇏" transform="matrix(1,0,0,1,1596,-4)" xmlns:kvg="http://kanjivg.tagaini.net"></path><path class="stroke_order_diagram--existing_path" d="M46.92,44.75c0.06,0.47,0.13,1.22-0.13,1.91c-1.54,4.02-10.39,12.83-22.51,18.23" id="Ske35br2l69" kvg:type="㇒" transform="matrix(1,0,0,1,1596,-4)" xmlns:kvg="http://kanjivg.tagaini.net"></path><path class="stroke_order_diagram--existing_path" d="M44.83,51.06c2.57,0,19-1.19,21.7-1.36c2.31-0.15,2.51,1.64,1.54,2.39C64,55.27,62.25,56.75,59,61" id="Ske35br2l6a" kvg:type="㇇" transform="matrix(1,0,0,1,1596,-4)" xmlns:kvg="http://kanjivg.tagaini.net"></path><path class="stroke_order_diagram--existing_path" d="M30.86,62.83c0.36,0.34,0.41,0.57,0.57,1.02c1.32,3.9,2.32,14.15,3.17,20.78" id="Ske35br2l6b" kvg:type="㇑" transform="matrix(1,0,0,1,1596,-4)" xmlns:kvg="http://kanjivg.tagaini.net"></path><path class="stroke_order_diagram--existing_path" d="M32.54,63.31c12.6-0.9,36.69-2.62,46.11-3.18c2.09-0.13,3.84,1.62,3.55,3.69c-0.51,3.63-2.76,12.43-4.34,18.45" id="Ske35br2l6c" kvg:type="㇕a" transform="matrix(1,0,0,1,1596,-4)" xmlns:kvg="http://kanjivg.tagaini.net"></path><path class="stroke_order_diagram--existing_path" d="M55.25,62.33c0.45,4.65,0.23,14.81,0.23,17.91" id="Ske35br2l6d" kvg:type="㇑a" transform="matrix(1,0,0,1,1596,-4)" xmlns:kvg="http://kanjivg.tagaini.net"></path><path class="stroke_order_diagram--current_path" d="M34.9,72.56c4.11-0.35,42.17-2.43,45.56-2.58" id="kvg:09c32-s17" kvg:type="㇐a" transform="matrix(1,0,0,1,1596,-4)" xmlns:kvg="http://kanjivg.tagaini.net"></path><path class="stroke_order_diagram--current_path" d="M34.9,72.56c4.11-0.35,42.17-2.43,45.56-2.58" id="Ske35br2l6f" kvg:type="㇐a" transform="matrix(1,0,0,1,1596,-4)" xmlns:kvg="http://kanjivg.tagaini.net"></path><circle class="stroke_order_diagram--path_start" cx="34.9" cy="72.56" r="4" transform="matrix(1,0,0,1,1596,-4)"></circle><line class="stroke_order_diagram--guide_line" x1="1750" x2="1750" y1="1" y2="99"></line><line class="stroke_order_diagram--bounding_box" x1="1799" x2="1799" y1="1" y2="99"></line><path class="stroke_order_diagram--existing_path" d="M17.87,17.25c0.8,0.29,2.27,0.34,3.08,0.29c6.15-0.33,15.37-1.2,22.83-2.05c1.33-0.15,2.14,0.14,2.81,0.29" id="Ske35br2l6i" kvg:type="㇐" transform="matrix(1,0,0,1,1696,-4)" xmlns:kvg="http://kanjivg.tagaini.net"></path><path class="stroke_order_diagram--existing_path" d="M30.82,9.5c0.11,0.21,1.61,1.08,1.61,2.4c0,5.1,0.36,8.85,0.36,12.4" id="Ske35br2l6j" kvg:type="㇑a" transform="matrix(1,0,0,1,1696,-4)" xmlns:kvg="http://kanjivg.tagaini.net"></path><path class="stroke_order_diagram--existing_path" d="M13.78,25.12c1.24,0.47,3.52,0.51,4.76,0.47c3.91-0.15,23.06-2.36,28.55-2.55c2.07-0.07,3.31,0.22,4.35,0.46" id="Ske35br2l6k" kvg:type="㇐" transform="matrix(1,0,0,1,1696,-4)" xmlns:kvg="http://kanjivg.tagaini.net"></path><path class="stroke_order_diagram--existing_path" d="M30.9,26.07c0.63,0.34,1.66,1.64,1.66,2.31c0,3.12-0.08,3.37-0.08,4.43" id="Ske35br2l6l" kvg:type="㇑a" transform="matrix(1,0,0,1,1696,-4)" xmlns:kvg="http://kanjivg.tagaini.net"></path><path class="stroke_order_diagram--existing_path" d="M13.9,33.74c0.83,0.24,2.59,0.36,3.37,0.33c7.24-0.31,21.95-1.78,29.22-2.55c1.3-0.14,1.97,0.03,2.94,0.42" id="Ske35br2l6m" kvg:type="㇐" transform="matrix(1,0,0,1,1696,-4)" xmlns:kvg="http://kanjivg.tagaini.net"></path><path class="stroke_order_diagram--existing_path" d="M31.31,38.5c1.69,0.75,3.69,1,6.57,1.66c0.61,0.14,1.22,0.56,1.12,1.43c-0.27,2.3-6.72,11.7-9.06,13.57c-2.53,2.02-4.43-0.4-4.98-1.85" id="Ske35br2l6n" kvg:type="㇆a" transform="matrix(1,0,0,1,1696,-4)" xmlns:kvg="http://kanjivg.tagaini.net"></path><path class="stroke_order_diagram--existing_path" d="M30.06,34.61c0.25,0.54,0.2,1.15-0.1,1.76c-2.02,4.19-7.85,12.66-16.92,16.62" id="Ske35br2l6o" kvg:type="㇒" transform="matrix(1,0,0,1,1696,-4)" xmlns:kvg="http://kanjivg.tagaini.net"></path><path class="stroke_order_diagram--existing_path" d="M64.08,9.81c0.03,0.54,0.11,1.4-0.06,2.15C62.75,17.75,59,27,53.29,33.89" id="Ske35br2l6p" kvg:type="㇒" transform="matrix(1,0,0,1,1696,-4)" xmlns:kvg="http://kanjivg.tagaini.net"></path><path class="stroke_order_diagram--existing_path" d="M63.17,19.95c0.03-0.11,1.8,0.32,2.44,0.29c6.62-0.33,14.46-2.1,24.58-2.62c1.14-0.06,1.83-0.01,2.13,0.05" id="Ske35br2l6q" kvg:type="㇐" transform="matrix(1,0,0,1,1696,-4)" xmlns:kvg="http://kanjivg.tagaini.net"></path><path class="stroke_order_diagram--existing_path" d="M78.61,22.12c0.14,1.13,0.23,2.11-0.33,3.12C74.25,32.5,67.25,41.5,57.11,46.5" id="Ske35br2l6r" kvg:type="㇒" transform="matrix(1,0,0,1,1696,-4)" xmlns:kvg="http://kanjivg.tagaini.net"></path><path class="stroke_order_diagram--existing_path" d="M59.32,25.25C66,31,77.51,41.08,87.86,48.46c1.63,1.16,3.93,2.05,5.39,2.15" id="Ske35br2l6s" kvg:type="㇏" transform="matrix(1,0,0,1,1696,-4)" xmlns:kvg="http://kanjivg.tagaini.net"></path><path class="stroke_order_diagram--existing_path" d="M46.92,44.75c0.06,0.47,0.13,1.22-0.13,1.91c-1.54,4.02-10.39,12.83-22.51,18.23" id="Ske35br2l6t" kvg:type="㇒" transform="matrix(1,0,0,1,1696,-4)" xmlns:kvg="http://kanjivg.tagaini.net"></path><path class="stroke_order_diagram--existing_path" d="M44.83,51.06c2.57,0,19-1.19,21.7-1.36c2.31-0.15,2.51,1.64,1.54,2.39C64,55.27,62.25,56.75,59,61" id="Ske35br2l6u" kvg:type="㇇" transform="matrix(1,0,0,1,1696,-4)" xmlns:kvg="http://kanjivg.tagaini.net"></path><path class="stroke_order_diagram--existing_path" d="M30.86,62.83c0.36,0.34,0.41,0.57,0.57,1.02c1.32,3.9,2.32,14.15,3.17,20.78" id="Ske35br2l6v" kvg:type="㇑" transform="matrix(1,0,0,1,1696,-4)" xmlns:kvg="http://kanjivg.tagaini.net"></path><path class="stroke_order_diagram--existing_path" d="M32.54,63.31c12.6-0.9,36.69-2.62,46.11-3.18c2.09-0.13,3.84,1.62,3.55,3.69c-0.51,3.63-2.76,12.43-4.34,18.45" id="Ske35br2l6w" kvg:type="㇕a" transform="matrix(1,0,0,1,1696,-4)" xmlns:kvg="http://kanjivg.tagaini.net"></path><path class="stroke_order_diagram--existing_path" d="M55.25,62.33c0.45,4.65,0.23,14.81,0.23,17.91" id="Ske35br2l6x" kvg:type="㇑a" transform="matrix(1,0,0,1,1696,-4)" xmlns:kvg="http://kanjivg.tagaini.net"></path><path class="stroke_order_diagram--existing_path" d="M34.9,72.56c4.11-0.35,42.17-2.43,45.56-2.58" id="Ske35br2l6y" kvg:type="㇐a" transform="matrix(1,0,0,1,1696,-4)" xmlns:kvg="http://kanjivg.tagaini.net"></path><path class="stroke_order_diagram--current_path" d="M35.24,82.16c9.07-0.38,30.1-0.99,42.63-1.61" id="kvg:09c32-s18" kvg:type="㇐a" transform="matrix(1,0,0,1,1696,-4)" xmlns:kvg="http://kanjivg.tagaini.net"></path><path class="stroke_order_diagram--current_path" d="M35.24,82.16c9.07-0.38,30.1-0.99,42.63-1.61" id="Ske35br2l70" kvg:type="㇐a" transform="matrix(1,0,0,1,1696,-4)" xmlns:kvg="http://kanjivg.tagaini.net"></path><circle class="stroke_order_diagram--path_start" cx="35.24" cy="82.16" r="4" transform="matrix(1,0,0,1,1696,-4)"></circle><line class="stroke_order_diagram--guide_line" x1="1850" x2="1850" y1="1" y2="99"></line><line class="stroke_order_diagram--bounding_box" x1="1899" x2="1899" y1="1" y2="99"></line><path class="stroke_order_diagram--existing_path" d="M17.87,17.25c0.8,0.29,2.27,0.34,3.08,0.29c6.15-0.33,15.37-1.2,22.83-2.05c1.33-0.15,2.14,0.14,2.81,0.29" id="Ske35br2l73" kvg:type="㇐" transform="matrix(1,0,0,1,1796,-4)" xmlns:kvg="http://kanjivg.tagaini.net"></path><path class="stroke_order_diagram--existing_path" d="M30.82,9.5c0.11,0.21,1.61,1.08,1.61,2.4c0,5.1,0.36,8.85,0.36,12.4" id="Ske35br2l74" kvg:type="㇑a" transform="matrix(1,0,0,1,1796,-4)" xmlns:kvg="http://kanjivg.tagaini.net"></path><path class="stroke_order_diagram--existing_path" d="M13.78,25.12c1.24,0.47,3.52,0.51,4.76,0.47c3.91-0.15,23.06-2.36,28.55-2.55c2.07-0.07,3.31,0.22,4.35,0.46" id="Ske35br2l75" kvg:type="㇐" transform="matrix(1,0,0,1,1796,-4)" xmlns:kvg="http://kanjivg.tagaini.net"></path><path class="stroke_order_diagram--existing_path" d="M30.9,26.07c0.63,0.34,1.66,1.64,1.66,2.31c0,3.12-0.08,3.37-0.08,4.43" id="Ske35br2l76" kvg:type="㇑a" transform="matrix(1,0,0,1,1796,-4)" xmlns:kvg="http://kanjivg.tagaini.net"></path><path class="stroke_order_diagram--existing_path" d="M13.9,33.74c0.83,0.24,2.59,0.36,3.37,0.33c7.24-0.31,21.95-1.78,29.22-2.55c1.3-0.14,1.97,0.03,2.94,0.42" id="Ske35br2l77" kvg:type="㇐" transform="matrix(1,0,0,1,1796,-4)" xmlns:kvg="http://kanjivg.tagaini.net"></path><path class="stroke_order_diagram--existing_path" d="M31.31,38.5c1.69,0.75,3.69,1,6.57,1.66c0.61,0.14,1.22,0.56,1.12,1.43c-0.27,2.3-6.72,11.7-9.06,13.57c-2.53,2.02-4.43-0.4-4.98-1.85" id="Ske35br2l78" kvg:type="㇆a" transform="matrix(1,0,0,1,1796,-4)" xmlns:kvg="http://kanjivg.tagaini.net"></path><path class="stroke_order_diagram--existing_path" d="M30.06,34.61c0.25,0.54,0.2,1.15-0.1,1.76c-2.02,4.19-7.85,12.66-16.92,16.62" id="Ske35br2l79" kvg:type="㇒" transform="matrix(1,0,0,1,1796,-4)" xmlns:kvg="http://kanjivg.tagaini.net"></path><path class="stroke_order_diagram--existing_path" d="M64.08,9.81c0.03,0.54,0.11,1.4-0.06,2.15C62.75,17.75,59,27,53.29,33.89" id="Ske35br2l7a" kvg:type="㇒" transform="matrix(1,0,0,1,1796,-4)" xmlns:kvg="http://kanjivg.tagaini.net"></path><path class="stroke_order_diagram--existing_path" d="M63.17,19.95c0.03-0.11,1.8,0.32,2.44,0.29c6.62-0.33,14.46-2.1,24.58-2.62c1.14-0.06,1.83-0.01,2.13,0.05" id="Ske35br2l7b" kvg:type="㇐" transform="matrix(1,0,0,1,1796,-4)" xmlns:kvg="http://kanjivg.tagaini.net"></path><path class="stroke_order_diagram--existing_path" d="M78.61,22.12c0.14,1.13,0.23,2.11-0.33,3.12C74.25,32.5,67.25,41.5,57.11,46.5" id="Ske35br2l7c" kvg:type="㇒" transform="matrix(1,0,0,1,1796,-4)" xmlns:kvg="http://kanjivg.tagaini.net"></path><path class="stroke_order_diagram--existing_path" d="M59.32,25.25C66,31,77.51,41.08,87.86,48.46c1.63,1.16,3.93,2.05,5.39,2.15" id="Ske35br2l7d" kvg:type="㇏" transform="matrix(1,0,0,1,1796,-4)" xmlns:kvg="http://kanjivg.tagaini.net"></path><path class="stroke_order_diagram--existing_path" d="M46.92,44.75c0.06,0.47,0.13,1.22-0.13,1.91c-1.54,4.02-10.39,12.83-22.51,18.23" id="Ske35br2l7e" kvg:type="㇒" transform="matrix(1,0,0,1,1796,-4)" xmlns:kvg="http://kanjivg.tagaini.net"></path><path class="stroke_order_diagram--existing_path" d="M44.83,51.06c2.57,0,19-1.19,21.7-1.36c2.31-0.15,2.51,1.64,1.54,2.39C64,55.27,62.25,56.75,59,61" id="Ske35br2l7f" kvg:type="㇇" transform="matrix(1,0,0,1,1796,-4)" xmlns:kvg="http://kanjivg.tagaini.net"></path><path class="stroke_order_diagram--existing_path" d="M30.86,62.83c0.36,0.34,0.41,0.57,0.57,1.02c1.32,3.9,2.32,14.15,3.17,20.78" id="Ske35br2l7g" kvg:type="㇑" transform="matrix(1,0,0,1,1796,-4)" xmlns:kvg="http://kanjivg.tagaini.net"></path><path class="stroke_order_diagram--existing_path" d="M32.54,63.31c12.6-0.9,36.69-2.62,46.11-3.18c2.09-0.13,3.84,1.62,3.55,3.69c-0.51,3.63-2.76,12.43-4.34,18.45" id="Ske35br2l7h" kvg:type="㇕a" transform="matrix(1,0,0,1,1796,-4)" xmlns:kvg="http://kanjivg.tagaini.net"></path><path class="stroke_order_diagram--existing_path" d="M55.25,62.33c0.45,4.65,0.23,14.81,0.23,17.91" id="Ske35br2l7i" kvg:type="㇑a" transform="matrix(1,0,0,1,1796,-4)" xmlns:kvg="http://kanjivg.tagaini.net"></path><path class="stroke_order_diagram--existing_path" d="M34.9,72.56c4.11-0.35,42.17-2.43,45.56-2.58" id="Ske35br2l7j" kvg:type="㇐a" transform="matrix(1,0,0,1,1796,-4)" xmlns:kvg="http://kanjivg.tagaini.net"></path><path class="stroke_order_diagram--existing_path" d="M35.24,82.16c9.07-0.38,30.1-0.99,42.63-1.61" id="Ske35br2l7k" kvg:type="㇐a" transform="matrix(1,0,0,1,1796,-4)" xmlns:kvg="http://kanjivg.tagaini.net"></path><path class="stroke_order_diagram--current_path" d="M26.78,88.02c0,4.34-6.38,10.74-8.05,11.98" id="kvg:09c32-s19" kvg:type="㇔" transform="matrix(1,0,0,1,1796,-4)" xmlns:kvg="http://kanjivg.tagaini.net"></path><path class="stroke_order_diagram--current_path" d="M26.78,88.02c0,4.34-6.38,10.74-8.05,11.98" id="Ske35br2l7m" kvg:type="㇔" transform="matrix(1,0,0,1,1796,-4)" xmlns:kvg="http://kanjivg.tagaini.net"></path><circle class="stroke_order_diagram--path_start" cx="26.78" cy="88.02" r="4" transform="matrix(1,0,0,1,1796,-4)"></circle><line class="stroke_order_diagram--guide_line" x1="1950" x2="1950" y1="1" y2="99"></line><line class="stroke_order_diagram--bounding_box" x1="1999" x2="1999" y1="1" y2="99"></line><path class="stroke_order_diagram--existing_path" d="M17.87,17.25c0.8,0.29,2.27,0.34,3.08,0.29c6.15-0.33,15.37-1.2,22.83-2.05c1.33-0.15,2.14,0.14,2.81,0.29" id="Ske35br2l7p" kvg:type="㇐" transform="matrix(1,0,0,1,1896,-4)" xmlns:kvg="http://kanjivg.tagaini.net"></path><path class="stroke_order_diagram--existing_path" d="M30.82,9.5c0.11,0.21,1.61,1.08,1.61,2.4c0,5.1,0.36,8.85,0.36,12.4" id="Ske35br2l7q" kvg:type="㇑a" transform="matrix(1,0,0,1,1896,-4)" xmlns:kvg="http://kanjivg.tagaini.net"></path><path class="stroke_order_diagram--existing_path" d="M13.78,25.12c1.24,0.47,3.52,0.51,4.76,0.47c3.91-0.15,23.06-2.36,28.55-2.55c2.07-0.07,3.31,0.22,4.35,0.46" id="Ske35br2l7r" kvg:type="㇐" transform="matrix(1,0,0,1,1896,-4)" xmlns:kvg="http://kanjivg.tagaini.net"></path><path class="stroke_order_diagram--existing_path" d="M30.9,26.07c0.63,0.34,1.66,1.64,1.66,2.31c0,3.12-0.08,3.37-0.08,4.43" id="Ske35br2l7s" kvg:type="㇑a" transform="matrix(1,0,0,1,1896,-4)" xmlns:kvg="http://kanjivg.tagaini.net"></path><path class="stroke_order_diagram--existing_path" d="M13.9,33.74c0.83,0.24,2.59,0.36,3.37,0.33c7.24-0.31,21.95-1.78,29.22-2.55c1.3-0.14,1.97,0.03,2.94,0.42" id="Ske35br2l7t" kvg:type="㇐" transform="matrix(1,0,0,1,1896,-4)" xmlns:kvg="http://kanjivg.tagaini.net"></path><path class="stroke_order_diagram--existing_path" d="M31.31,38.5c1.69,0.75,3.69,1,6.57,1.66c0.61,0.14,1.22,0.56,1.12,1.43c-0.27,2.3-6.72,11.7-9.06,13.57c-2.53,2.02-4.43-0.4-4.98-1.85" id="Ske35br2l7u" kvg:type="㇆a" transform="matrix(1,0,0,1,1896,-4)" xmlns:kvg="http://kanjivg.tagaini.net"></path><path class="stroke_order_diagram--existing_path" d="M30.06,34.61c0.25,0.54,0.2,1.15-0.1,1.76c-2.02,4.19-7.85,12.66-16.92,16.62" id="Ske35br2l7v" kvg:type="㇒" transform="matrix(1,0,0,1,1896,-4)" xmlns:kvg="http://kanjivg.tagaini.net"></path><path class="stroke_order_diagram--existing_path" d="M64.08,9.81c0.03,0.54,0.11,1.4-0.06,2.15C62.75,17.75,59,27,53.29,33.89" id="Ske35br2l7w" kvg:type="㇒" transform="matrix(1,0,0,1,1896,-4)" xmlns:kvg="http://kanjivg.tagaini.net"></path><path class="stroke_order_diagram--existing_path" d="M63.17,19.95c0.03-0.11,1.8,0.32,2.44,0.29c6.62-0.33,14.46-2.1,24.58-2.62c1.14-0.06,1.83-0.01,2.13,0.05" id="Ske35br2l7x" kvg:type="㇐" transform="matrix(1,0,0,1,1896,-4)" xmlns:kvg="http://kanjivg.tagaini.net"></path><path class="stroke_order_diagram--existing_path" d="M78.61,22.12c0.14,1.13,0.23,2.11-0.33,3.12C74.25,32.5,67.25,41.5,57.11,46.5" id="Ske35br2l7y" kvg:type="㇒" transform="matrix(1,0,0,1,1896,-4)" xmlns:kvg="http://kanjivg.tagaini.net"></path><path class="stroke_order_diagram--existing_path" d="M59.32,25.25C66,31,77.51,41.08,87.86,48.46c1.63,1.16,3.93,2.05,5.39,2.15" id="Ske35br2l7z" kvg:type="㇏" transform="matrix(1,0,0,1,1896,-4)" xmlns:kvg="http://kanjivg.tagaini.net"></path><path class="stroke_order_diagram--existing_path" d="M46.92,44.75c0.06,0.47,0.13,1.22-0.13,1.91c-1.54,4.02-10.39,12.83-22.51,18.23" id="Ske35br2l80" kvg:type="㇒" transform="matrix(1,0,0,1,1896,-4)" xmlns:kvg="http://kanjivg.tagaini.net"></path><path class="stroke_order_diagram--existing_path" d="M44.83,51.06c2.57,0,19-1.19,21.7-1.36c2.31-0.15,2.51,1.64,1.54,2.39C64,55.27,62.25,56.75,59,61" id="Ske35br2l81" kvg:type="㇇" transform="matrix(1,0,0,1,1896,-4)" xmlns:kvg="http://kanjivg.tagaini.net"></path><path class="stroke_order_diagram--existing_path" d="M30.86,62.83c0.36,0.34,0.41,0.57,0.57,1.02c1.32,3.9,2.32,14.15,3.17,20.78" id="Ske35br2l82" kvg:type="㇑" transform="matrix(1,0,0,1,1896,-4)" xmlns:kvg="http://kanjivg.tagaini.net"></path><path class="stroke_order_diagram--existing_path" d="M32.54,63.31c12.6-0.9,36.69-2.62,46.11-3.18c2.09-0.13,3.84,1.62,3.55,3.69c-0.51,3.63-2.76,12.43-4.34,18.45" id="Ske35br2l83" kvg:type="㇕a" transform="matrix(1,0,0,1,1896,-4)" xmlns:kvg="http://kanjivg.tagaini.net"></path><path class="stroke_order_diagram--existing_path" d="M55.25,62.33c0.45,4.65,0.23,14.81,0.23,17.91" id="Ske35br2l84" kvg:type="㇑a" transform="matrix(1,0,0,1,1896,-4)" xmlns:kvg="http://kanjivg.tagaini.net"></path><path class="stroke_order_diagram--existing_path" d="M34.9,72.56c4.11-0.35,42.17-2.43,45.56-2.58" id="Ske35br2l85" kvg:type="㇐a" transform="matrix(1,0,0,1,1896,-4)" xmlns:kvg="http://kanjivg.tagaini.net"></path><path class="stroke_order_diagram--existing_path" d="M35.24,82.16c9.07-0.38,30.1-0.99,42.63-1.61" id="Ske35br2l86" kvg:type="㇐a" transform="matrix(1,0,0,1,1896,-4)" xmlns:kvg="http://kanjivg.tagaini.net"></path><path class="stroke_order_diagram--existing_path" d="M26.78,88.02c0,4.34-6.38,10.74-8.05,11.98" id="Ske35br2l87" kvg:type="㇔" transform="matrix(1,0,0,1,1896,-4)" xmlns:kvg="http://kanjivg.tagaini.net"></path><path class="stroke_order_diagram--current_path" d="M42.72,87.55c2.96,2.32,5.77,8.7,6.51,12.31" id="kvg:09c32-s20" kvg:type="㇔" transform="matrix(1,0,0,1,1896,-4)" xmlns:kvg="http://kanjivg.tagaini.net"></path><path class="stroke_order_diagram--current_path" d="M42.72,87.55c2.96,2.32,5.77,8.7,6.51,12.31" id="Ske35br2l89" kvg:type="㇔" transform="matrix(1,0,0,1,1896,-4)" xmlns:kvg="http://kanjivg.tagaini.net"></path><circle class="stroke_order_diagram--path_start" cx="42.72" cy="87.55" r="4" transform="matrix(1,0,0,1,1896,-4)"></circle><line class="stroke_order_diagram--guide_line" x1="2050" x2="2050" y1="1" y2="99"></line><line class="stroke_order_diagram--bounding_box" x1="2099" x2="2099" y1="1" y2="99"></line><path class="stroke_order_diagram--existing_path" d="M17.87,17.25c0.8,0.29,2.27,0.34,3.08,0.29c6.15-0.33,15.37-1.2,22.83-2.05c1.33-0.15,2.14,0.14,2.81,0.29" id="Ske35br2l8c" kvg:type="㇐" transform="matrix(1,0,0,1,1996,-4)" xmlns:kvg="http://kanjivg.tagaini.net"></path><path class="stroke_order_diagram--existing_path" d="M30.82,9.5c0.11,0.21,1.61,1.08,1.61,2.4c0,5.1,0.36,8.85,0.36,12.4" id="Ske35br2l8d" kvg:type="㇑a" transform="matrix(1,0,0,1,1996,-4)" xmlns:kvg="http://kanjivg.tagaini.net"></path><path class="stroke_order_diagram--existing_path" d="M13.78,25.12c1.24,0.47,3.52,0.51,4.76,0.47c3.91-0.15,23.06-2.36,28.55-2.55c2.07-0.07,3.31,0.22,4.35,0.46" id="Ske35br2l8e" kvg:type="㇐" transform="matrix(1,0,0,1,1996,-4)" xmlns:kvg="http://kanjivg.tagaini.net"></path><path class="stroke_order_diagram--existing_path" d="M30.9,26.07c0.63,0.34,1.66,1.64,1.66,2.31c0,3.12-0.08,3.37-0.08,4.43" id="Ske35br2l8f" kvg:type="㇑a" transform="matrix(1,0,0,1,1996,-4)" xmlns:kvg="http://kanjivg.tagaini.net"></path><path class="stroke_order_diagram--existing_path" d="M13.9,33.74c0.83,0.24,2.59,0.36,3.37,0.33c7.24-0.31,21.95-1.78,29.22-2.55c1.3-0.14,1.97,0.03,2.94,0.42" id="Ske35br2l8g" kvg:type="㇐" transform="matrix(1,0,0,1,1996,-4)" xmlns:kvg="http://kanjivg.tagaini.net"></path><path class="stroke_order_diagram--existing_path" d="M31.31,38.5c1.69,0.75,3.69,1,6.57,1.66c0.61,0.14,1.22,0.56,1.12,1.43c-0.27,2.3-6.72,11.7-9.06,13.57c-2.53,2.02-4.43-0.4-4.98-1.85" id="Ske35br2l8h" kvg:type="㇆a" transform="matrix(1,0,0,1,1996,-4)" xmlns:kvg="http://kanjivg.tagaini.net"></path><path class="stroke_order_diagram--existing_path" d="M30.06,34.61c0.25,0.54,0.2,1.15-0.1,1.76c-2.02,4.19-7.85,12.66-16.92,16.62" id="Ske35br2l8i" kvg:type="㇒" transform="matrix(1,0,0,1,1996,-4)" xmlns:kvg="http://kanjivg.tagaini.net"></path><path class="stroke_order_diagram--existing_path" d="M64.08,9.81c0.03,0.54,0.11,1.4-0.06,2.15C62.75,17.75,59,27,53.29,33.89" id="Ske35br2l8j" kvg:type="㇒" transform="matrix(1,0,0,1,1996,-4)" xmlns:kvg="http://kanjivg.tagaini.net"></path><path class="stroke_order_diagram--existing_path" d="M63.17,19.95c0.03-0.11,1.8,0.32,2.44,0.29c6.62-0.33,14.46-2.1,24.58-2.62c1.14-0.06,1.83-0.01,2.13,0.05" id="Ske35br2l8k" kvg:type="㇐" transform="matrix(1,0,0,1,1996,-4)" xmlns:kvg="http://kanjivg.tagaini.net"></path><path class="stroke_order_diagram--existing_path" d="M78.61,22.12c0.14,1.13,0.23,2.11-0.33,3.12C74.25,32.5,67.25,41.5,57.11,46.5" id="Ske35br2l8l" kvg:type="㇒" transform="matrix(1,0,0,1,1996,-4)" xmlns:kvg="http://kanjivg.tagaini.net"></path><path class="stroke_order_diagram--existing_path" d="M59.32,25.25C66,31,77.51,41.08,87.86,48.46c1.63,1.16,3.93,2.05,5.39,2.15" id="Ske35br2l8m" kvg:type="㇏" transform="matrix(1,0,0,1,1996,-4)" xmlns:kvg="http://kanjivg.tagaini.net"></path><path class="stroke_order_diagram--existing_path" d="M46.92,44.75c0.06,0.47,0.13,1.22-0.13,1.91c-1.54,4.02-10.39,12.83-22.51,18.23" id="Ske35br2l8n" kvg:type="㇒" transform="matrix(1,0,0,1,1996,-4)" xmlns:kvg="http://kanjivg.tagaini.net"></path><path class="stroke_order_diagram--existing_path" d="M44.83,51.06c2.57,0,19-1.19,21.7-1.36c2.31-0.15,2.51,1.64,1.54,2.39C64,55.27,62.25,56.75,59,61" id="Ske35br2l8o" kvg:type="㇇" transform="matrix(1,0,0,1,1996,-4)" xmlns:kvg="http://kanjivg.tagaini.net"></path><path class="stroke_order_diagram--existing_path" d="M30.86,62.83c0.36,0.34,0.41,0.57,0.57,1.02c1.32,3.9,2.32,14.15,3.17,20.78" id="Ske35br2l8p" kvg:type="㇑" transform="matrix(1,0,0,1,1996,-4)" xmlns:kvg="http://kanjivg.tagaini.net"></path><path class="stroke_order_diagram--existing_path" d="M32.54,63.31c12.6-0.9,36.69-2.62,46.11-3.18c2.09-0.13,3.84,1.62,3.55,3.69c-0.51,3.63-2.76,12.43-4.34,18.45" id="Ske35br2l8q" kvg:type="㇕a" transform="matrix(1,0,0,1,1996,-4)" xmlns:kvg="http://kanjivg.tagaini.net"></path><path class="stroke_order_diagram--existing_path" d="M55.25,62.33c0.45,4.65,0.23,14.81,0.23,17.91" id="Ske35br2l8r" kvg:type="㇑a" transform="matrix(1,0,0,1,1996,-4)" xmlns:kvg="http://kanjivg.tagaini.net"></path><path class="stroke_order_diagram--existing_path" d="M34.9,72.56c4.11-0.35,42.17-2.43,45.56-2.58" id="Ske35br2l8s" kvg:type="㇐a" transform="matrix(1,0,0,1,1996,-4)" xmlns:kvg="http://kanjivg.tagaini.net"></path><path class="stroke_order_diagram--existing_path" d="M35.24,82.16c9.07-0.38,30.1-0.99,42.63-1.61" id="Ske35br2l8t" kvg:type="㇐a" transform="matrix(1,0,0,1,1996,-4)" xmlns:kvg="http://kanjivg.tagaini.net"></path><path class="stroke_order_diagram--existing_path" d="M26.78,88.02c0,4.34-6.38,10.74-8.05,11.98" id="Ske35br2l8u" kvg:type="㇔" transform="matrix(1,0,0,1,1996,-4)" xmlns:kvg="http://kanjivg.tagaini.net"></path><path class="stroke_order_diagram--existing_path" d="M42.72,87.55c2.96,2.32,5.77,8.7,6.51,12.31" id="Ske35br2l8v" kvg:type="㇔" transform="matrix(1,0,0,1,1996,-4)" xmlns:kvg="http://kanjivg.tagaini.net"></path><path class="stroke_order_diagram--current_path" d="M64.15,87.01c2.58,2.24,6.67,9.21,7.32,12.7" id="kvg:09c32-s21" kvg:type="㇔" transform="matrix(1,0,0,1,1996,-4)" xmlns:kvg="http://kanjivg.tagaini.net"></path><path class="stroke_order_diagram--current_path" d="M64.15,87.01c2.58,2.24,6.67,9.21,7.32,12.7" id="Ske35br2l8x" kvg:type="㇔" transform="matrix(1,0,0,1,1996,-4)" xmlns:kvg="http://kanjivg.tagaini.net"></path><circle class="stroke_order_diagram--path_start" cx="64.15" cy="87.01" r="4" transform="matrix(1,0,0,1,1996,-4)"></circle><line class="stroke_order_diagram--guide_line" x1="2150" x2="2150" y1="1" y2="99"></line><line class="stroke_order_diagram--bounding_box" x1="2199" x2="2199" y1="1" y2="99"></line><path class="stroke_order_diagram--existing_path" d="M17.87,17.25c0.8,0.29,2.27,0.34,3.08,0.29c6.15-0.33,15.37-1.2,22.83-2.05c1.33-0.15,2.14,0.14,2.81,0.29" id="Ske35br2l90" kvg:type="㇐" transform="matrix(1,0,0,1,2096,-4)" xmlns:kvg="http://kanjivg.tagaini.net"></path><path class="stroke_order_diagram--existing_path" d="M30.82,9.5c0.11,0.21,1.61,1.08,1.61,2.4c0,5.1,0.36,8.85,0.36,12.4" id="Ske35br2l91" kvg:type="㇑a" transform="matrix(1,0,0,1,2096,-4)" xmlns:kvg="http://kanjivg.tagaini.net"></path><path class="stroke_order_diagram--existing_path" d="M13.78,25.12c1.24,0.47,3.52,0.51,4.76,0.47c3.91-0.15,23.06-2.36,28.55-2.55c2.07-0.07,3.31,0.22,4.35,0.46" id="Ske35br2l92" kvg:type="㇐" transform="matrix(1,0,0,1,2096,-4)" xmlns:kvg="http://kanjivg.tagaini.net"></path><path class="stroke_order_diagram--existing_path" d="M30.9,26.07c0.63,0.34,1.66,1.64,1.66,2.31c0,3.12-0.08,3.37-0.08,4.43" id="Ske35br2l93" kvg:type="㇑a" transform="matrix(1,0,0,1,2096,-4)" xmlns:kvg="http://kanjivg.tagaini.net"></path><path class="stroke_order_diagram--existing_path" d="M13.9,33.74c0.83,0.24,2.59,0.36,3.37,0.33c7.24-0.31,21.95-1.78,29.22-2.55c1.3-0.14,1.97,0.03,2.94,0.42" id="Ske35br2l94" kvg:type="㇐" transform="matrix(1,0,0,1,2096,-4)" xmlns:kvg="http://kanjivg.tagaini.net"></path><path class="stroke_order_diagram--existing_path" d="M31.31,38.5c1.69,0.75,3.69,1,6.57,1.66c0.61,0.14,1.22,0.56,1.12,1.43c-0.27,2.3-6.72,11.7-9.06,13.57c-2.53,2.02-4.43-0.4-4.98-1.85" id="Ske35br2l95" kvg:type="㇆a" transform="matrix(1,0,0,1,2096,-4)" xmlns:kvg="http://kanjivg.tagaini.net"></path><path class="stroke_order_diagram--existing_path" d="M30.06,34.61c0.25,0.54,0.2,1.15-0.1,1.76c-2.02,4.19-7.85,12.66-16.92,16.62" id="Ske35br2l96" kvg:type="㇒" transform="matrix(1,0,0,1,2096,-4)" xmlns:kvg="http://kanjivg.tagaini.net"></path><path class="stroke_order_diagram--existing_path" d="M64.08,9.81c0.03,0.54,0.11,1.4-0.06,2.15C62.75,17.75,59,27,53.29,33.89" id="Ske35br2l97" kvg:type="㇒" transform="matrix(1,0,0,1,2096,-4)" xmlns:kvg="http://kanjivg.tagaini.net"></path><path class="stroke_order_diagram--existing_path" d="M63.17,19.95c0.03-0.11,1.8,0.32,2.44,0.29c6.62-0.33,14.46-2.1,24.58-2.62c1.14-0.06,1.83-0.01,2.13,0.05" id="Ske35br2l98" kvg:type="㇐" transform="matrix(1,0,0,1,2096,-4)" xmlns:kvg="http://kanjivg.tagaini.net"></path><path class="stroke_order_diagram--existing_path" d="M78.61,22.12c0.14,1.13,0.23,2.11-0.33,3.12C74.25,32.5,67.25,41.5,57.11,46.5" id="Ske35br2l99" kvg:type="㇒" transform="matrix(1,0,0,1,2096,-4)" xmlns:kvg="http://kanjivg.tagaini.net"></path><path class="stroke_order_diagram--existing_path" d="M59.32,25.25C66,31,77.51,41.08,87.86,48.46c1.63,1.16,3.93,2.05,5.39,2.15" id="Ske35br2l9a" kvg:type="㇏" transform="matrix(1,0,0,1,2096,-4)" xmlns:kvg="http://kanjivg.tagaini.net"></path><path class="stroke_order_diagram--existing_path" d="M46.92,44.75c0.06,0.47,0.13,1.22-0.13,1.91c-1.54,4.02-10.39,12.83-22.51,18.23" id="Ske35br2l9b" kvg:type="㇒" transform="matrix(1,0,0,1,2096,-4)" xmlns:kvg="http://kanjivg.tagaini.net"></path><path class="stroke_order_diagram--existing_path" d="M44.83,51.06c2.57,0,19-1.19,21.7-1.36c2.31-0.15,2.51,1.64,1.54,2.39C64,55.27,62.25,56.75,59,61" id="Ske35br2l9c" kvg:type="㇇" transform="matrix(1,0,0,1,2096,-4)" xmlns:kvg="http://kanjivg.tagaini.net"></path><path class="stroke_order_diagram--existing_path" d="M30.86,62.83c0.36,0.34,0.41,0.57,0.57,1.02c1.32,3.9,2.32,14.15,3.17,20.78" id="Ske35br2l9d" kvg:type="㇑" transform="matrix(1,0,0,1,2096,-4)" xmlns:kvg="http://kanjivg.tagaini.net"></path><path class="stroke_order_diagram--existing_path" d="M32.54,63.31c12.6-0.9,36.69-2.62,46.11-3.18c2.09-0.13,3.84,1.62,3.55,3.69c-0.51,3.63-2.76,12.43-4.34,18.45" id="Ske35br2l9e" kvg:type="㇕a" transform="matrix(1,0,0,1,2096,-4)" xmlns:kvg="http://kanjivg.tagaini.net"></path><path class="stroke_order_diagram--existing_path" d="M55.25,62.33c0.45,4.65,0.23,14.81,0.23,17.91" id="Ske35br2l9f" kvg:type="㇑a" transform="matrix(1,0,0,1,2096,-4)" xmlns:kvg="http://kanjivg.tagaini.net"></path><path class="stroke_order_diagram--existing_path" d="M34.9,72.56c4.11-0.35,42.17-2.43,45.56-2.58" id="Ske35br2l9g" kvg:type="㇐a" transform="matrix(1,0,0,1,2096,-4)" xmlns:kvg="http://kanjivg.tagaini.net"></path><path class="stroke_order_diagram--existing_path" d="M35.24,82.16c9.07-0.38,30.1-0.99,42.63-1.61" id="Ske35br2l9h" kvg:type="㇐a" transform="matrix(1,0,0,1,2096,-4)" xmlns:kvg="http://kanjivg.tagaini.net"></path><path class="stroke_order_diagram--existing_path" d="M26.78,88.02c0,4.34-6.38,10.74-8.05,11.98" id="Ske35br2l9i" kvg:type="㇔" transform="matrix(1,0,0,1,2096,-4)" xmlns:kvg="http://kanjivg.tagaini.net"></path><path class="stroke_order_diagram--existing_path" d="M42.72,87.55c2.96,2.32,5.77,8.7,6.51,12.31" id="Ske35br2l9j" kvg:type="㇔" transform="matrix(1,0,0,1,2096,-4)" xmlns:kvg="http://kanjivg.tagaini.net"></path><path class="stroke_order_diagram--existing_path" d="M64.15,87.01c2.58,2.24,6.67,9.21,7.32,12.7" id="Ske35br2l9k" kvg:type="㇔" transform="matrix(1,0,0,1,2096,-4)" xmlns:kvg="http://kanjivg.tagaini.net"></path><path class="stroke_order_diagram--current_path" d="M82.92,86.99c3.85,2.16,9.94,8.87,10.9,12.22" id="kvg:09c32-s22" kvg:type="㇔" transform="matrix(1,0,0,1,2096,-4)" xmlns:kvg="http://kanjivg.tagaini.net"></path><path class="stroke_order_diagram--current_path" d="M82.92,86.99c3.85,2.16,9.94,8.87,10.9,12.22" id="Ske35br2l9m" kvg:type="㇔" transform="matrix(1,0,0,1,2096,-4)" xmlns:kvg="http://kanjivg.tagaini.net"></path><circle class="stroke_order_diagram--path_start" cx="82.92" cy="86.99" r="4" transform="matrix(1,0,0,1,2096,-4)"></circle></svg>