<svg class="stroke_order_diagram--svg_container_for_5186629cd5dda79658000b53" style="height: 100px; width: 1900px;" viewbox="0 0 1900 100"><desc>Created with Snap</desc><defs></defs><line class="stroke_order_diagram--bounding_box" x1="1" x2="1899" y1="1" y2="1"></line><line class="stroke_order_diagram--bounding_box" x1="1" x2="1" y1="1" y2="99"></line><line class="stroke_order_diagram--bounding_box" x1="1" x2="1899" y1="99" y2="99"></line><line class="stroke_order_diagram--guide_line" x1="0" x2="1900" y1="50" y2="50"></line><line class="stroke_order_diagram--guide_line" x1="50" x2="50" y1="1" y2="99"></line><line class="stroke_order_diagram--bounding_box" x1="99" x2="99" y1="1" y2="99"></line><path class="stroke_order_diagram--current_path" d="M19.25,14.14c1.48,0.6,3.33,0.42,4.88,0.3c5.39-0.44,15.28-1.74,21.5-2.34c1.37-0.13,3.51-0.16,4.87,0.17" id="kvg:09e97-s1" kvg:type="㇐" transform="matrix(1,0,0,1,-4,-4)" xmlns:kvg="http://kanjivg.tagaini.net"></path><path class="stroke_order_diagram--current_path" d="M19.25,14.14c1.48,0.6,3.33,0.42,4.88,0.3c5.39-0.44,15.28-1.74,21.5-2.34c1.37-0.13,3.51-0.16,4.87,0.17" id="Ske2b7hvis" kvg:type="㇐" transform="matrix(1,0,0,1,-4,-4)" xmlns:kvg="http://kanjivg.tagaini.net"></path><circle class="stroke_order_diagram--path_start" cx="19.25" cy="14.14" r="4" transform="matrix(1,0,0,1,-4,-4)"></circle><line class="stroke_order_diagram--guide_line" x1="150" x2="150" y1="1" y2="99"></line><line class="stroke_order_diagram--bounding_box" x1="199" x2="199" y1="1" y2="99"></line><path class="stroke_order_diagram--existing_path" d="M19.25,14.14c1.48,0.6,3.33,0.42,4.88,0.3c5.39-0.44,15.28-1.74,21.5-2.34c1.37-0.13,3.51-0.16,4.87,0.17" id="Ske2b7hviv" kvg:type="㇐" transform="matrix(1,0,0,1,96,-4)" xmlns:kvg="http://kanjivg.tagaini.net"></path><path class="stroke_order_diagram--current_path" d="M24.27,23.67c0.72,0.72,0.84,1.64,0.84,2.44c0,0.54-0.04,5.8-0.04,9.9c0,1.97,0.01,3.49,0.04,3.75" id="kvg:09e97-s2" kvg:type="㇑" transform="matrix(1,0,0,1,96,-4)" xmlns:kvg="http://kanjivg.tagaini.net"></path><path class="stroke_order_diagram--current_path" d="M24.27,23.67c0.72,0.72,0.84,1.64,0.84,2.44c0,0.54-0.04,5.8-0.04,9.9c0,1.97,0.01,3.49,0.04,3.75" id="Ske2b7hvix" kvg:type="㇑" transform="matrix(1,0,0,1,96,-4)" xmlns:kvg="http://kanjivg.tagaini.net"></path><circle class="stroke_order_diagram--path_start" cx="24.27" cy="23.67" r="4" transform="matrix(1,0,0,1,96,-4)"></circle><line class="stroke_order_diagram--guide_line" x1="250" x2="250" y1="1" y2="99"></line><line class="stroke_order_diagram--bounding_box" x1="299" x2="299" y1="1" y2="99"></line><path class="stroke_order_diagram--existing_path" d="M19.25,14.14c1.48,0.6,3.33,0.42,4.88,0.3c5.39-0.44,15.28-1.74,21.5-2.34c1.37-0.13,3.51-0.16,4.87,0.17" id="Ske2b7hvi10" kvg:type="㇐" transform="matrix(1,0,0,1,196,-4)" xmlns:kvg="http://kanjivg.tagaini.net"></path><path class="stroke_order_diagram--existing_path" d="M24.27,23.67c0.72,0.72,0.84,1.64,0.84,2.44c0,0.54-0.04,5.8-0.04,9.9c0,1.97,0.01,3.49,0.04,3.75" id="Ske2b7hvi11" kvg:type="㇑" transform="matrix(1,0,0,1,196,-4)" xmlns:kvg="http://kanjivg.tagaini.net"></path><path class="stroke_order_diagram--current_path" d="M26.09,24.52c1.36-0.08,12.33-1.68,16.92-2.29c2.6-0.35,3.85-0.08,3.81,2.77c-0.03,2.19,0.03,6.46-0.03,9.51c-0.03,1.86-0.04,3.55-0.04,3.74" id="kvg:09e97-s3" kvg:type="㇕a" transform="matrix(1,0,0,1,196,-4)" xmlns:kvg="http://kanjivg.tagaini.net"></path><path class="stroke_order_diagram--current_path" d="M26.09,24.52c1.36-0.08,12.33-1.68,16.92-2.29c2.6-0.35,3.85-0.08,3.81,2.77c-0.03,2.19,0.03,6.46-0.03,9.51c-0.03,1.86-0.04,3.55-0.04,3.74" id="Ske2b7hvi13" kvg:type="㇕a" transform="matrix(1,0,0,1,196,-4)" xmlns:kvg="http://kanjivg.tagaini.net"></path><circle class="stroke_order_diagram--path_start" cx="26.09" cy="24.52" r="4" transform="matrix(1,0,0,1,196,-4)"></circle><line class="stroke_order_diagram--guide_line" x1="350" x2="350" y1="1" y2="99"></line><line class="stroke_order_diagram--bounding_box" x1="399" x2="399" y1="1" y2="99"></line><path class="stroke_order_diagram--existing_path" d="M19.25,14.14c1.48,0.6,3.33,0.42,4.88,0.3c5.39-0.44,15.28-1.74,21.5-2.34c1.37-0.13,3.51-0.16,4.87,0.17" id="Ske2b7hvi16" kvg:type="㇐" transform="matrix(1,0,0,1,296,-4)" xmlns:kvg="http://kanjivg.tagaini.net"></path><path class="stroke_order_diagram--existing_path" d="M24.27,23.67c0.72,0.72,0.84,1.64,0.84,2.44c0,0.54-0.04,5.8-0.04,9.9c0,1.97,0.01,3.49,0.04,3.75" id="Ske2b7hvi17" kvg:type="㇑" transform="matrix(1,0,0,1,296,-4)" xmlns:kvg="http://kanjivg.tagaini.net"></path><path class="stroke_order_diagram--existing_path" d="M26.09,24.52c1.36-0.08,12.33-1.68,16.92-2.29c2.6-0.35,3.85-0.08,3.81,2.77c-0.03,2.19,0.03,6.46-0.03,9.51c-0.03,1.86-0.04,3.55-0.04,3.74" id="Ske2b7hvi18" kvg:type="㇕a" transform="matrix(1,0,0,1,296,-4)" xmlns:kvg="http://kanjivg.tagaini.net"></path><path class="stroke_order_diagram--current_path" d="M32.13,30.25c2.34,1.03,6.03,4.24,6.62,5.84" id="kvg:09e97-s4" kvg:type="㇔" transform="matrix(1,0,0,1,296,-4)" xmlns:kvg="http://kanjivg.tagaini.net"></path><path class="stroke_order_diagram--current_path" d="M32.13,30.25c2.34,1.03,6.03,4.24,6.62,5.84" id="Ske2b7hvi1a" kvg:type="㇔" transform="matrix(1,0,0,1,296,-4)" xmlns:kvg="http://kanjivg.tagaini.net"></path><circle class="stroke_order_diagram--path_start" cx="32.13" cy="30.25" r="4" transform="matrix(1,0,0,1,296,-4)"></circle><line class="stroke_order_diagram--guide_line" x1="450" x2="450" y1="1" y2="99"></line><line class="stroke_order_diagram--bounding_box" x1="499" x2="499" y1="1" y2="99"></line><path class="stroke_order_diagram--existing_path" d="M19.25,14.14c1.48,0.6,3.33,0.42,4.88,0.3c5.39-0.44,15.28-1.74,21.5-2.34c1.37-0.13,3.51-0.16,4.87,0.17" id="Ske2b7hvi1d" kvg:type="㇐" transform="matrix(1,0,0,1,396,-4)" xmlns:kvg="http://kanjivg.tagaini.net"></path><path class="stroke_order_diagram--existing_path" d="M24.27,23.67c0.72,0.72,0.84,1.64,0.84,2.44c0,0.54-0.04,5.8-0.04,9.9c0,1.97,0.01,3.49,0.04,3.75" id="Ske2b7hvi1e" kvg:type="㇑" transform="matrix(1,0,0,1,396,-4)" xmlns:kvg="http://kanjivg.tagaini.net"></path><path class="stroke_order_diagram--existing_path" d="M26.09,24.52c1.36-0.08,12.33-1.68,16.92-2.29c2.6-0.35,3.85-0.08,3.81,2.77c-0.03,2.19,0.03,6.46-0.03,9.51c-0.03,1.86-0.04,3.55-0.04,3.74" id="Ske2b7hvi1f" kvg:type="㇕a" transform="matrix(1,0,0,1,396,-4)" xmlns:kvg="http://kanjivg.tagaini.net"></path><path class="stroke_order_diagram--existing_path" d="M32.13,30.25c2.34,1.03,6.03,4.24,6.62,5.84" id="Ske2b7hvi1g" kvg:type="㇔" transform="matrix(1,0,0,1,396,-4)" xmlns:kvg="http://kanjivg.tagaini.net"></path><path class="stroke_order_diagram--current_path" d="M59,12.64c2.25,0.36,3.84,0.16,5.62-0.04c5.47-0.61,14.98-1.69,20.5-2.11c1.56-0.12,3.33-0.35,4.88,0.02" id="kvg:09e97-s5" kvg:type="㇐" transform="matrix(1,0,0,1,396,-4)" xmlns:kvg="http://kanjivg.tagaini.net"></path><path class="stroke_order_diagram--current_path" d="M59,12.64c2.25,0.36,3.84,0.16,5.62-0.04c5.47-0.61,14.98-1.69,20.5-2.11c1.56-0.12,3.33-0.35,4.88,0.02" id="Ske2b7hvi1i" kvg:type="㇐" transform="matrix(1,0,0,1,396,-4)" xmlns:kvg="http://kanjivg.tagaini.net"></path><circle class="stroke_order_diagram--path_start" cx="59" cy="12.64" r="4" transform="matrix(1,0,0,1,396,-4)"></circle><line class="stroke_order_diagram--guide_line" x1="550" x2="550" y1="1" y2="99"></line><line class="stroke_order_diagram--bounding_box" x1="599" x2="599" y1="1" y2="99"></line><path class="stroke_order_diagram--existing_path" d="M19.25,14.14c1.48,0.6,3.33,0.42,4.88,0.3c5.39-0.44,15.28-1.74,21.5-2.34c1.37-0.13,3.51-0.16,4.87,0.17" id="Ske2b7hvi1l" kvg:type="㇐" transform="matrix(1,0,0,1,496,-4)" xmlns:kvg="http://kanjivg.tagaini.net"></path><path class="stroke_order_diagram--existing_path" d="M24.27,23.67c0.72,0.72,0.84,1.64,0.84,2.44c0,0.54-0.04,5.8-0.04,9.9c0,1.97,0.01,3.49,0.04,3.75" id="Ske2b7hvi1m" kvg:type="㇑" transform="matrix(1,0,0,1,496,-4)" xmlns:kvg="http://kanjivg.tagaini.net"></path><path class="stroke_order_diagram--existing_path" d="M26.09,24.52c1.36-0.08,12.33-1.68,16.92-2.29c2.6-0.35,3.85-0.08,3.81,2.77c-0.03,2.19,0.03,6.46-0.03,9.51c-0.03,1.86-0.04,3.55-0.04,3.74" id="Ske2b7hvi1n" kvg:type="㇕a" transform="matrix(1,0,0,1,496,-4)" xmlns:kvg="http://kanjivg.tagaini.net"></path><path class="stroke_order_diagram--existing_path" d="M32.13,30.25c2.34,1.03,6.03,4.24,6.62,5.84" id="Ske2b7hvi1o" kvg:type="㇔" transform="matrix(1,0,0,1,496,-4)" xmlns:kvg="http://kanjivg.tagaini.net"></path><path class="stroke_order_diagram--existing_path" d="M59,12.64c2.25,0.36,3.84,0.16,5.62-0.04c5.47-0.61,14.98-1.69,20.5-2.11c1.56-0.12,3.33-0.35,4.88,0.02" id="Ske2b7hvi1p" kvg:type="㇐" transform="matrix(1,0,0,1,496,-4)" xmlns:kvg="http://kanjivg.tagaini.net"></path><path class="stroke_order_diagram--current_path" d="M61.77,21.92c0.78,0.78,0.84,1.83,0.84,2.94c0,0.52-0.04,4.81-0.04,8.9c0,2.09,0.01,3.73,0.04,4" id="kvg:09e97-s6" kvg:type="㇑" transform="matrix(1,0,0,1,496,-4)" xmlns:kvg="http://kanjivg.tagaini.net"></path><path class="stroke_order_diagram--current_path" d="M61.77,21.92c0.78,0.78,0.84,1.83,0.84,2.94c0,0.52-0.04,4.81-0.04,8.9c0,2.09,0.01,3.73,0.04,4" id="Ske2b7hvi1r" kvg:type="㇑" transform="matrix(1,0,0,1,496,-4)" xmlns:kvg="http://kanjivg.tagaini.net"></path><circle class="stroke_order_diagram--path_start" cx="61.77" cy="21.92" r="4" transform="matrix(1,0,0,1,496,-4)"></circle><line class="stroke_order_diagram--guide_line" x1="650" x2="650" y1="1" y2="99"></line><line class="stroke_order_diagram--bounding_box" x1="699" x2="699" y1="1" y2="99"></line><path class="stroke_order_diagram--existing_path" d="M19.25,14.14c1.48,0.6,3.33,0.42,4.88,0.3c5.39-0.44,15.28-1.74,21.5-2.34c1.37-0.13,3.51-0.16,4.87,0.17" id="Ske2b7hvi1u" kvg:type="㇐" transform="matrix(1,0,0,1,596,-4)" xmlns:kvg="http://kanjivg.tagaini.net"></path><path class="stroke_order_diagram--existing_path" d="M24.27,23.67c0.72,0.72,0.84,1.64,0.84,2.44c0,0.54-0.04,5.8-0.04,9.9c0,1.97,0.01,3.49,0.04,3.75" id="Ske2b7hvi1v" kvg:type="㇑" transform="matrix(1,0,0,1,596,-4)" xmlns:kvg="http://kanjivg.tagaini.net"></path><path class="stroke_order_diagram--existing_path" d="M26.09,24.52c1.36-0.08,12.33-1.68,16.92-2.29c2.6-0.35,3.85-0.08,3.81,2.77c-0.03,2.19,0.03,6.46-0.03,9.51c-0.03,1.86-0.04,3.55-0.04,3.74" id="Ske2b7hvi1w" kvg:type="㇕a" transform="matrix(1,0,0,1,596,-4)" xmlns:kvg="http://kanjivg.tagaini.net"></path><path class="stroke_order_diagram--existing_path" d="M32.13,30.25c2.34,1.03,6.03,4.24,6.62,5.84" id="Ske2b7hvi1x" kvg:type="㇔" transform="matrix(1,0,0,1,596,-4)" xmlns:kvg="http://kanjivg.tagaini.net"></path><path class="stroke_order_diagram--existing_path" d="M59,12.64c2.25,0.36,3.84,0.16,5.62-0.04c5.47-0.61,14.98-1.69,20.5-2.11c1.56-0.12,3.33-0.35,4.88,0.02" id="Ske2b7hvi1y" kvg:type="㇐" transform="matrix(1,0,0,1,596,-4)" xmlns:kvg="http://kanjivg.tagaini.net"></path><path class="stroke_order_diagram--existing_path" d="M61.77,21.92c0.78,0.78,0.84,1.83,0.84,2.94c0,0.52-0.04,4.81-0.04,8.9c0,2.09,0.01,3.73,0.04,4" id="Ske2b7hvi1z" kvg:type="㇑" transform="matrix(1,0,0,1,596,-4)" xmlns:kvg="http://kanjivg.tagaini.net"></path><path class="stroke_order_diagram--current_path" d="M63.09,22.52c1.43-0.09,15.06-1.83,19.67-2.37c2.48-0.29,3.37,0,3.37,2.6c0,2.57,0,6.48,0.06,10.13c0.03,2.02,0.05,3.52,0.05,3.58" id="kvg:09e97-s7" kvg:type="㇕a" transform="matrix(1,0,0,1,596,-4)" xmlns:kvg="http://kanjivg.tagaini.net"></path><path class="stroke_order_diagram--current_path" d="M63.09,22.52c1.43-0.09,15.06-1.83,19.67-2.37c2.48-0.29,3.37,0,3.37,2.6c0,2.57,0,6.48,0.06,10.13c0.03,2.02,0.05,3.52,0.05,3.58" id="Ske2b7hvi21" kvg:type="㇕a" transform="matrix(1,0,0,1,596,-4)" xmlns:kvg="http://kanjivg.tagaini.net"></path><circle class="stroke_order_diagram--path_start" cx="63.09" cy="22.52" r="4" transform="matrix(1,0,0,1,596,-4)"></circle><line class="stroke_order_diagram--guide_line" x1="750" x2="750" y1="1" y2="99"></line><line class="stroke_order_diagram--bounding_box" x1="799" x2="799" y1="1" y2="99"></line><path class="stroke_order_diagram--existing_path" d="M19.25,14.14c1.48,0.6,3.33,0.42,4.88,0.3c5.39-0.44,15.28-1.74,21.5-2.34c1.37-0.13,3.51-0.16,4.87,0.17" id="Ske2b7hvi24" kvg:type="㇐" transform="matrix(1,0,0,1,696,-4)" xmlns:kvg="http://kanjivg.tagaini.net"></path><path class="stroke_order_diagram--existing_path" d="M24.27,23.67c0.72,0.72,0.84,1.64,0.84,2.44c0,0.54-0.04,5.8-0.04,9.9c0,1.97,0.01,3.49,0.04,3.75" id="Ske2b7hvi25" kvg:type="㇑" transform="matrix(1,0,0,1,696,-4)" xmlns:kvg="http://kanjivg.tagaini.net"></path><path class="stroke_order_diagram--existing_path" d="M26.09,24.52c1.36-0.08,12.33-1.68,16.92-2.29c2.6-0.35,3.85-0.08,3.81,2.77c-0.03,2.19,0.03,6.46-0.03,9.51c-0.03,1.86-0.04,3.55-0.04,3.74" id="Ske2b7hvi26" kvg:type="㇕a" transform="matrix(1,0,0,1,696,-4)" xmlns:kvg="http://kanjivg.tagaini.net"></path><path class="stroke_order_diagram--existing_path" d="M32.13,30.25c2.34,1.03,6.03,4.24,6.62,5.84" id="Ske2b7hvi27" kvg:type="㇔" transform="matrix(1,0,0,1,696,-4)" xmlns:kvg="http://kanjivg.tagaini.net"></path><path class="stroke_order_diagram--existing_path" d="M59,12.64c2.25,0.36,3.84,0.16,5.62-0.04c5.47-0.61,14.98-1.69,20.5-2.11c1.56-0.12,3.33-0.35,4.88,0.02" id="Ske2b7hvi28" kvg:type="㇐" transform="matrix(1,0,0,1,696,-4)" xmlns:kvg="http://kanjivg.tagaini.net"></path><path class="stroke_order_diagram--existing_path" d="M61.77,21.92c0.78,0.78,0.84,1.83,0.84,2.94c0,0.52-0.04,4.81-0.04,8.9c0,2.09,0.01,3.73,0.04,4" id="Ske2b7hvi29" kvg:type="㇑" transform="matrix(1,0,0,1,696,-4)" xmlns:kvg="http://kanjivg.tagaini.net"></path><path class="stroke_order_diagram--existing_path" d="M63.09,22.52c1.43-0.09,15.06-1.83,19.67-2.37c2.48-0.29,3.37,0,3.37,2.6c0,2.57,0,6.48,0.06,10.13c0.03,2.02,0.05,3.52,0.05,3.58" id="Ske2b7hvi2a" kvg:type="㇕a" transform="matrix(1,0,0,1,696,-4)" xmlns:kvg="http://kanjivg.tagaini.net"></path><path class="stroke_order_diagram--current_path" d="M70.76,28.12c2.03,0.96,5.23,3.97,5.74,5.47" id="kvg:09e97-s8" kvg:type="㇔" transform="matrix(1,0,0,1,696,-4)" xmlns:kvg="http://kanjivg.tagaini.net"></path><path class="stroke_order_diagram--current_path" d="M70.76,28.12c2.03,0.96,5.23,3.97,5.74,5.47" id="Ske2b7hvi2c" kvg:type="㇔" transform="matrix(1,0,0,1,696,-4)" xmlns:kvg="http://kanjivg.tagaini.net"></path><circle class="stroke_order_diagram--path_start" cx="70.76" cy="28.12" r="4" transform="matrix(1,0,0,1,696,-4)"></circle><line class="stroke_order_diagram--guide_line" x1="850" x2="850" y1="1" y2="99"></line><line class="stroke_order_diagram--bounding_box" x1="899" x2="899" y1="1" y2="99"></line><path class="stroke_order_diagram--existing_path" d="M19.25,14.14c1.48,0.6,3.33,0.42,4.88,0.3c5.39-0.44,15.28-1.74,21.5-2.34c1.37-0.13,3.51-0.16,4.87,0.17" id="Ske2b7hvi2f" kvg:type="㇐" transform="matrix(1,0,0,1,796,-4)" xmlns:kvg="http://kanjivg.tagaini.net"></path><path class="stroke_order_diagram--existing_path" d="M24.27,23.67c0.72,0.72,0.84,1.64,0.84,2.44c0,0.54-0.04,5.8-0.04,9.9c0,1.97,0.01,3.49,0.04,3.75" id="Ske2b7hvi2g" kvg:type="㇑" transform="matrix(1,0,0,1,796,-4)" xmlns:kvg="http://kanjivg.tagaini.net"></path><path class="stroke_order_diagram--existing_path" d="M26.09,24.52c1.36-0.08,12.33-1.68,16.92-2.29c2.6-0.35,3.85-0.08,3.81,2.77c-0.03,2.19,0.03,6.46-0.03,9.51c-0.03,1.86-0.04,3.55-0.04,3.74" id="Ske2b7hvi2h" kvg:type="㇕a" transform="matrix(1,0,0,1,796,-4)" xmlns:kvg="http://kanjivg.tagaini.net"></path><path class="stroke_order_diagram--existing_path" d="M32.13,30.25c2.34,1.03,6.03,4.24,6.62,5.84" id="Ske2b7hvi2i" kvg:type="㇔" transform="matrix(1,0,0,1,796,-4)" xmlns:kvg="http://kanjivg.tagaini.net"></path><path class="stroke_order_diagram--existing_path" d="M59,12.64c2.25,0.36,3.84,0.16,5.62-0.04c5.47-0.61,14.98-1.69,20.5-2.11c1.56-0.12,3.33-0.35,4.88,0.02" id="Ske2b7hvi2j" kvg:type="㇐" transform="matrix(1,0,0,1,796,-4)" xmlns:kvg="http://kanjivg.tagaini.net"></path><path class="stroke_order_diagram--existing_path" d="M61.77,21.92c0.78,0.78,0.84,1.83,0.84,2.94c0,0.52-0.04,4.81-0.04,8.9c0,2.09,0.01,3.73,0.04,4" id="Ske2b7hvi2k" kvg:type="㇑" transform="matrix(1,0,0,1,796,-4)" xmlns:kvg="http://kanjivg.tagaini.net"></path><path class="stroke_order_diagram--existing_path" d="M63.09,22.52c1.43-0.09,15.06-1.83,19.67-2.37c2.48-0.29,3.37,0,3.37,2.6c0,2.57,0,6.48,0.06,10.13c0.03,2.02,0.05,3.52,0.05,3.58" id="Ske2b7hvi2l" kvg:type="㇕a" transform="matrix(1,0,0,1,796,-4)" xmlns:kvg="http://kanjivg.tagaini.net"></path><path class="stroke_order_diagram--existing_path" d="M70.76,28.12c2.03,0.96,5.23,3.97,5.74,5.47" id="Ske2b7hvi2m" kvg:type="㇔" transform="matrix(1,0,0,1,796,-4)" xmlns:kvg="http://kanjivg.tagaini.net"></path><path class="stroke_order_diagram--current_path" d="M55.27,36.13c0.92,0.93,1.05,1.87,1.05,3.31c0,0.56-0.07,2.19-0.07,4.69" id="kvg:09e97-s9" kvg:type="㇑a" transform="matrix(1,0,0,1,796,-4)" xmlns:kvg="http://kanjivg.tagaini.net"></path><path class="stroke_order_diagram--current_path" d="M55.27,36.13c0.92,0.93,1.05,1.87,1.05,3.31c0,0.56-0.07,2.19-0.07,4.69" id="Ske2b7hvi2o" kvg:type="㇑a" transform="matrix(1,0,0,1,796,-4)" xmlns:kvg="http://kanjivg.tagaini.net"></path><circle class="stroke_order_diagram--path_start" cx="55.27" cy="36.13" r="4" transform="matrix(1,0,0,1,796,-4)"></circle><line class="stroke_order_diagram--guide_line" x1="950" x2="950" y1="1" y2="99"></line><line class="stroke_order_diagram--bounding_box" x1="999" x2="999" y1="1" y2="99"></line><path class="stroke_order_diagram--existing_path" d="M19.25,14.14c1.48,0.6,3.33,0.42,4.88,0.3c5.39-0.44,15.28-1.74,21.5-2.34c1.37-0.13,3.51-0.16,4.87,0.17" id="Ske2b7hvi2r" kvg:type="㇐" transform="matrix(1,0,0,1,896,-4)" xmlns:kvg="http://kanjivg.tagaini.net"></path><path class="stroke_order_diagram--existing_path" d="M24.27,23.67c0.72,0.72,0.84,1.64,0.84,2.44c0,0.54-0.04,5.8-0.04,9.9c0,1.97,0.01,3.49,0.04,3.75" id="Ske2b7hvi2s" kvg:type="㇑" transform="matrix(1,0,0,1,896,-4)" xmlns:kvg="http://kanjivg.tagaini.net"></path><path class="stroke_order_diagram--existing_path" d="M26.09,24.52c1.36-0.08,12.33-1.68,16.92-2.29c2.6-0.35,3.85-0.08,3.81,2.77c-0.03,2.19,0.03,6.46-0.03,9.51c-0.03,1.86-0.04,3.55-0.04,3.74" id="Ske2b7hvi2t" kvg:type="㇕a" transform="matrix(1,0,0,1,896,-4)" xmlns:kvg="http://kanjivg.tagaini.net"></path><path class="stroke_order_diagram--existing_path" d="M32.13,30.25c2.34,1.03,6.03,4.24,6.62,5.84" id="Ske2b7hvi2u" kvg:type="㇔" transform="matrix(1,0,0,1,896,-4)" xmlns:kvg="http://kanjivg.tagaini.net"></path><path class="stroke_order_diagram--existing_path" d="M59,12.64c2.25,0.36,3.84,0.16,5.62-0.04c5.47-0.61,14.98-1.69,20.5-2.11c1.56-0.12,3.33-0.35,4.88,0.02" id="Ske2b7hvi2v" kvg:type="㇐" transform="matrix(1,0,0,1,896,-4)" xmlns:kvg="http://kanjivg.tagaini.net"></path><path class="stroke_order_diagram--existing_path" d="M61.77,21.92c0.78,0.78,0.84,1.83,0.84,2.94c0,0.52-0.04,4.81-0.04,8.9c0,2.09,0.01,3.73,0.04,4" id="Ske2b7hvi2w" kvg:type="㇑" transform="matrix(1,0,0,1,896,-4)" xmlns:kvg="http://kanjivg.tagaini.net"></path><path class="stroke_order_diagram--existing_path" d="M63.09,22.52c1.43-0.09,15.06-1.83,19.67-2.37c2.48-0.29,3.37,0,3.37,2.6c0,2.57,0,6.48,0.06,10.13c0.03,2.02,0.05,3.52,0.05,3.58" id="Ske2b7hvi2x" kvg:type="㇕a" transform="matrix(1,0,0,1,896,-4)" xmlns:kvg="http://kanjivg.tagaini.net"></path><path class="stroke_order_diagram--existing_path" d="M70.76,28.12c2.03,0.96,5.23,3.97,5.74,5.47" id="Ske2b7hvi2y" kvg:type="㇔" transform="matrix(1,0,0,1,896,-4)" xmlns:kvg="http://kanjivg.tagaini.net"></path><path class="stroke_order_diagram--existing_path" d="M55.27,36.13c0.92,0.93,1.05,1.87,1.05,3.31c0,0.56-0.07,2.19-0.07,4.69" id="Ske2b7hvi2z" kvg:type="㇑a" transform="matrix(1,0,0,1,896,-4)" xmlns:kvg="http://kanjivg.tagaini.net"></path><path class="stroke_order_diagram--current_path" d="M26.45,46.85c2.52,0.69,5.09,0.65,7.67,0.51c12.95-0.7,30.53-2.88,43.13-3.8c3.25-0.24,6.11-0.71,9.38-0.18" id="kvg:09e97-s10" kvg:type="㇐" transform="matrix(1,0,0,1,896,-4)" xmlns:kvg="http://kanjivg.tagaini.net"></path><path class="stroke_order_diagram--current_path" d="M26.45,46.85c2.52,0.69,5.09,0.65,7.67,0.51c12.95-0.7,30.53-2.88,43.13-3.8c3.25-0.24,6.11-0.71,9.38-0.18" id="Ske2b7hvi31" kvg:type="㇐" transform="matrix(1,0,0,1,896,-4)" xmlns:kvg="http://kanjivg.tagaini.net"></path><circle class="stroke_order_diagram--path_start" cx="26.45" cy="46.85" r="4" transform="matrix(1,0,0,1,896,-4)"></circle><line class="stroke_order_diagram--guide_line" x1="1050" x2="1050" y1="1" y2="99"></line><line class="stroke_order_diagram--bounding_box" x1="1099" x2="1099" y1="1" y2="99"></line><path class="stroke_order_diagram--existing_path" d="M19.25,14.14c1.48,0.6,3.33,0.42,4.88,0.3c5.39-0.44,15.28-1.74,21.5-2.34c1.37-0.13,3.51-0.16,4.87,0.17" id="Ske2b7hvi34" kvg:type="㇐" transform="matrix(1,0,0,1,996,-4)" xmlns:kvg="http://kanjivg.tagaini.net"></path><path class="stroke_order_diagram--existing_path" d="M24.27,23.67c0.72,0.72,0.84,1.64,0.84,2.44c0,0.54-0.04,5.8-0.04,9.9c0,1.97,0.01,3.49,0.04,3.75" id="Ske2b7hvi35" kvg:type="㇑" transform="matrix(1,0,0,1,996,-4)" xmlns:kvg="http://kanjivg.tagaini.net"></path><path class="stroke_order_diagram--existing_path" d="M26.09,24.52c1.36-0.08,12.33-1.68,16.92-2.29c2.6-0.35,3.85-0.08,3.81,2.77c-0.03,2.19,0.03,6.46-0.03,9.51c-0.03,1.86-0.04,3.55-0.04,3.74" id="Ske2b7hvi36" kvg:type="㇕a" transform="matrix(1,0,0,1,996,-4)" xmlns:kvg="http://kanjivg.tagaini.net"></path><path class="stroke_order_diagram--existing_path" d="M32.13,30.25c2.34,1.03,6.03,4.24,6.62,5.84" id="Ske2b7hvi37" kvg:type="㇔" transform="matrix(1,0,0,1,996,-4)" xmlns:kvg="http://kanjivg.tagaini.net"></path><path class="stroke_order_diagram--existing_path" d="M59,12.64c2.25,0.36,3.84,0.16,5.62-0.04c5.47-0.61,14.98-1.69,20.5-2.11c1.56-0.12,3.33-0.35,4.88,0.02" id="Ske2b7hvi38" kvg:type="㇐" transform="matrix(1,0,0,1,996,-4)" xmlns:kvg="http://kanjivg.tagaini.net"></path><path class="stroke_order_diagram--existing_path" d="M61.77,21.92c0.78,0.78,0.84,1.83,0.84,2.94c0,0.52-0.04,4.81-0.04,8.9c0,2.09,0.01,3.73,0.04,4" id="Ske2b7hvi39" kvg:type="㇑" transform="matrix(1,0,0,1,996,-4)" xmlns:kvg="http://kanjivg.tagaini.net"></path><path class="stroke_order_diagram--existing_path" d="M63.09,22.52c1.43-0.09,15.06-1.83,19.67-2.37c2.48-0.29,3.37,0,3.37,2.6c0,2.57,0,6.48,0.06,10.13c0.03,2.02,0.05,3.52,0.05,3.58" id="Ske2b7hvi3a" kvg:type="㇕a" transform="matrix(1,0,0,1,996,-4)" xmlns:kvg="http://kanjivg.tagaini.net"></path><path class="stroke_order_diagram--existing_path" d="M70.76,28.12c2.03,0.96,5.23,3.97,5.74,5.47" id="Ske2b7hvi3b" kvg:type="㇔" transform="matrix(1,0,0,1,996,-4)" xmlns:kvg="http://kanjivg.tagaini.net"></path><path class="stroke_order_diagram--existing_path" d="M55.27,36.13c0.92,0.93,1.05,1.87,1.05,3.31c0,0.56-0.07,2.19-0.07,4.69" id="Ske2b7hvi3c" kvg:type="㇑a" transform="matrix(1,0,0,1,996,-4)" xmlns:kvg="http://kanjivg.tagaini.net"></path><path class="stroke_order_diagram--existing_path" d="M26.45,46.85c2.52,0.69,5.09,0.65,7.67,0.51c12.95-0.7,30.53-2.88,43.13-3.8c3.25-0.24,6.11-0.71,9.38-0.18" id="Ske2b7hvi3d" kvg:type="㇐" transform="matrix(1,0,0,1,996,-4)" xmlns:kvg="http://kanjivg.tagaini.net"></path><path class="stroke_order_diagram--current_path" d="M27.95,47.99c0.91,0.91,1.04,2.12,0.92,3.72c-0.74,10.04-2.62,31.79-14.06,44.42" id="kvg:09e97-s11" kvg:type="㇒" transform="matrix(1,0,0,1,996,-4)" xmlns:kvg="http://kanjivg.tagaini.net"></path><path class="stroke_order_diagram--current_path" d="M27.95,47.99c0.91,0.91,1.04,2.12,0.92,3.72c-0.74,10.04-2.62,31.79-14.06,44.42" id="Ske2b7hvi3f" kvg:type="㇒" transform="matrix(1,0,0,1,996,-4)" xmlns:kvg="http://kanjivg.tagaini.net"></path><circle class="stroke_order_diagram--path_start" cx="27.95" cy="47.99" r="4" transform="matrix(1,0,0,1,996,-4)"></circle><line class="stroke_order_diagram--guide_line" x1="1150" x2="1150" y1="1" y2="99"></line><line class="stroke_order_diagram--bounding_box" x1="1199" x2="1199" y1="1" y2="99"></line><path class="stroke_order_diagram--existing_path" d="M19.25,14.14c1.48,0.6,3.33,0.42,4.88,0.3c5.39-0.44,15.28-1.74,21.5-2.34c1.37-0.13,3.51-0.16,4.87,0.17" id="Ske2b7hvi3i" kvg:type="㇐" transform="matrix(1,0,0,1,1096,-4)" xmlns:kvg="http://kanjivg.tagaini.net"></path><path class="stroke_order_diagram--existing_path" d="M24.27,23.67c0.72,0.72,0.84,1.64,0.84,2.44c0,0.54-0.04,5.8-0.04,9.9c0,1.97,0.01,3.49,0.04,3.75" id="Ske2b7hvi3j" kvg:type="㇑" transform="matrix(1,0,0,1,1096,-4)" xmlns:kvg="http://kanjivg.tagaini.net"></path><path class="stroke_order_diagram--existing_path" d="M26.09,24.52c1.36-0.08,12.33-1.68,16.92-2.29c2.6-0.35,3.85-0.08,3.81,2.77c-0.03,2.19,0.03,6.46-0.03,9.51c-0.03,1.86-0.04,3.55-0.04,3.74" id="Ske2b7hvi3k" kvg:type="㇕a" transform="matrix(1,0,0,1,1096,-4)" xmlns:kvg="http://kanjivg.tagaini.net"></path><path class="stroke_order_diagram--existing_path" d="M32.13,30.25c2.34,1.03,6.03,4.24,6.62,5.84" id="Ske2b7hvi3l" kvg:type="㇔" transform="matrix(1,0,0,1,1096,-4)" xmlns:kvg="http://kanjivg.tagaini.net"></path><path class="stroke_order_diagram--existing_path" d="M59,12.64c2.25,0.36,3.84,0.16,5.62-0.04c5.47-0.61,14.98-1.69,20.5-2.11c1.56-0.12,3.33-0.35,4.88,0.02" id="Ske2b7hvi3m" kvg:type="㇐" transform="matrix(1,0,0,1,1096,-4)" xmlns:kvg="http://kanjivg.tagaini.net"></path><path class="stroke_order_diagram--existing_path" d="M61.77,21.92c0.78,0.78,0.84,1.83,0.84,2.94c0,0.52-0.04,4.81-0.04,8.9c0,2.09,0.01,3.73,0.04,4" id="Ske2b7hvi3n" kvg:type="㇑" transform="matrix(1,0,0,1,1096,-4)" xmlns:kvg="http://kanjivg.tagaini.net"></path><path class="stroke_order_diagram--existing_path" d="M63.09,22.52c1.43-0.09,15.06-1.83,19.67-2.37c2.48-0.29,3.37,0,3.37,2.6c0,2.57,0,6.48,0.06,10.13c0.03,2.02,0.05,3.52,0.05,3.58" id="Ske2b7hvi3o" kvg:type="㇕a" transform="matrix(1,0,0,1,1096,-4)" xmlns:kvg="http://kanjivg.tagaini.net"></path><path class="stroke_order_diagram--existing_path" d="M70.76,28.12c2.03,0.96,5.23,3.97,5.74,5.47" id="Ske2b7hvi3p" kvg:type="㇔" transform="matrix(1,0,0,1,1096,-4)" xmlns:kvg="http://kanjivg.tagaini.net"></path><path class="stroke_order_diagram--existing_path" d="M55.27,36.13c0.92,0.93,1.05,1.87,1.05,3.31c0,0.56-0.07,2.19-0.07,4.69" id="Ske2b7hvi3q" kvg:type="㇑a" transform="matrix(1,0,0,1,1096,-4)" xmlns:kvg="http://kanjivg.tagaini.net"></path><path class="stroke_order_diagram--existing_path" d="M26.45,46.85c2.52,0.69,5.09,0.65,7.67,0.51c12.95-0.7,30.53-2.88,43.13-3.8c3.25-0.24,6.11-0.71,9.38-0.18" id="Ske2b7hvi3r" kvg:type="㇐" transform="matrix(1,0,0,1,1096,-4)" xmlns:kvg="http://kanjivg.tagaini.net"></path><path class="stroke_order_diagram--existing_path" d="M27.95,47.99c0.91,0.91,1.04,2.12,0.92,3.72c-0.74,10.04-2.62,31.79-14.06,44.42" id="Ske2b7hvi3s" kvg:type="㇒" transform="matrix(1,0,0,1,1096,-4)" xmlns:kvg="http://kanjivg.tagaini.net"></path><path class="stroke_order_diagram--current_path" d="M33.94,57.08c1.83,0.44,3.38,0.73,5.28,0.56c13.09-1.22,30.4-3.13,38.95-3.89c2.74-0.24,3.12,1.66,2.73,3.26c-0.9,3.62-1.4,5.99-2.13,8.78" id="kvg:09e97-s12" kvg:type="㇕c" transform="matrix(1,0,0,1,1096,-4)" xmlns:kvg="http://kanjivg.tagaini.net"></path><path class="stroke_order_diagram--current_path" d="M33.94,57.08c1.83,0.44,3.38,0.73,5.28,0.56c13.09-1.22,30.4-3.13,38.95-3.89c2.74-0.24,3.12,1.66,2.73,3.26c-0.9,3.62-1.4,5.99-2.13,8.78" id="Ske2b7hvi3u" kvg:type="㇕c" transform="matrix(1,0,0,1,1096,-4)" xmlns:kvg="http://kanjivg.tagaini.net"></path><circle class="stroke_order_diagram--path_start" cx="33.94" cy="57.08" r="4" transform="matrix(1,0,0,1,1096,-4)"></circle><line class="stroke_order_diagram--guide_line" x1="1250" x2="1250" y1="1" y2="99"></line><line class="stroke_order_diagram--bounding_box" x1="1299" x2="1299" y1="1" y2="99"></line><path class="stroke_order_diagram--existing_path" d="M19.25,14.14c1.48,0.6,3.33,0.42,4.88,0.3c5.39-0.44,15.28-1.74,21.5-2.34c1.37-0.13,3.51-0.16,4.87,0.17" id="Ske2b7hvi3x" kvg:type="㇐" transform="matrix(1,0,0,1,1196,-4)" xmlns:kvg="http://kanjivg.tagaini.net"></path><path class="stroke_order_diagram--existing_path" d="M24.27,23.67c0.72,0.72,0.84,1.64,0.84,2.44c0,0.54-0.04,5.8-0.04,9.9c0,1.97,0.01,3.49,0.04,3.75" id="Ske2b7hvi3y" kvg:type="㇑" transform="matrix(1,0,0,1,1196,-4)" xmlns:kvg="http://kanjivg.tagaini.net"></path><path class="stroke_order_diagram--existing_path" d="M26.09,24.52c1.36-0.08,12.33-1.68,16.92-2.29c2.6-0.35,3.85-0.08,3.81,2.77c-0.03,2.19,0.03,6.46-0.03,9.51c-0.03,1.86-0.04,3.55-0.04,3.74" id="Ske2b7hvi3z" kvg:type="㇕a" transform="matrix(1,0,0,1,1196,-4)" xmlns:kvg="http://kanjivg.tagaini.net"></path><path class="stroke_order_diagram--existing_path" d="M32.13,30.25c2.34,1.03,6.03,4.24,6.62,5.84" id="Ske2b7hvi40" kvg:type="㇔" transform="matrix(1,0,0,1,1196,-4)" xmlns:kvg="http://kanjivg.tagaini.net"></path><path class="stroke_order_diagram--existing_path" d="M59,12.64c2.25,0.36,3.84,0.16,5.62-0.04c5.47-0.61,14.98-1.69,20.5-2.11c1.56-0.12,3.33-0.35,4.88,0.02" id="Ske2b7hvi41" kvg:type="㇐" transform="matrix(1,0,0,1,1196,-4)" xmlns:kvg="http://kanjivg.tagaini.net"></path><path class="stroke_order_diagram--existing_path" d="M61.77,21.92c0.78,0.78,0.84,1.83,0.84,2.94c0,0.52-0.04,4.81-0.04,8.9c0,2.09,0.01,3.73,0.04,4" id="Ske2b7hvi42" kvg:type="㇑" transform="matrix(1,0,0,1,1196,-4)" xmlns:kvg="http://kanjivg.tagaini.net"></path><path class="stroke_order_diagram--existing_path" d="M63.09,22.52c1.43-0.09,15.06-1.83,19.67-2.37c2.48-0.29,3.37,0,3.37,2.6c0,2.57,0,6.48,0.06,10.13c0.03,2.02,0.05,3.52,0.05,3.58" id="Ske2b7hvi43" kvg:type="㇕a" transform="matrix(1,0,0,1,1196,-4)" xmlns:kvg="http://kanjivg.tagaini.net"></path><path class="stroke_order_diagram--existing_path" d="M70.76,28.12c2.03,0.96,5.23,3.97,5.74,5.47" id="Ske2b7hvi44" kvg:type="㇔" transform="matrix(1,0,0,1,1196,-4)" xmlns:kvg="http://kanjivg.tagaini.net"></path><path class="stroke_order_diagram--existing_path" d="M55.27,36.13c0.92,0.93,1.05,1.87,1.05,3.31c0,0.56-0.07,2.19-0.07,4.69" id="Ske2b7hvi45" kvg:type="㇑a" transform="matrix(1,0,0,1,1196,-4)" xmlns:kvg="http://kanjivg.tagaini.net"></path><path class="stroke_order_diagram--existing_path" d="M26.45,46.85c2.52,0.69,5.09,0.65,7.67,0.51c12.95-0.7,30.53-2.88,43.13-3.8c3.25-0.24,6.11-0.71,9.38-0.18" id="Ske2b7hvi46" kvg:type="㇐" transform="matrix(1,0,0,1,1196,-4)" xmlns:kvg="http://kanjivg.tagaini.net"></path><path class="stroke_order_diagram--existing_path" d="M27.95,47.99c0.91,0.91,1.04,2.12,0.92,3.72c-0.74,10.04-2.62,31.79-14.06,44.42" id="Ske2b7hvi47" kvg:type="㇒" transform="matrix(1,0,0,1,1196,-4)" xmlns:kvg="http://kanjivg.tagaini.net"></path><path class="stroke_order_diagram--existing_path" d="M33.94,57.08c1.83,0.44,3.38,0.73,5.28,0.56c13.09-1.22,30.4-3.13,38.95-3.89c2.74-0.24,3.12,1.66,2.73,3.26c-0.9,3.62-1.4,5.99-2.13,8.78" id="Ske2b7hvi48" kvg:type="㇕c" transform="matrix(1,0,0,1,1196,-4)" xmlns:kvg="http://kanjivg.tagaini.net"></path><path class="stroke_order_diagram--current_path" d="M45.51,50.65c0.85,0.85,1.11,1.6,1.2,2.64c0.05,0.6,0.79,9.71,1.07,14.45" id="kvg:09e97-s13" kvg:type="㇑a" transform="matrix(1,0,0,1,1196,-4)" xmlns:kvg="http://kanjivg.tagaini.net"></path><path class="stroke_order_diagram--current_path" d="M45.51,50.65c0.85,0.85,1.11,1.6,1.2,2.64c0.05,0.6,0.79,9.71,1.07,14.45" id="Ske2b7hvi4a" kvg:type="㇑a" transform="matrix(1,0,0,1,1196,-4)" xmlns:kvg="http://kanjivg.tagaini.net"></path><circle class="stroke_order_diagram--path_start" cx="45.51" cy="50.65" r="4" transform="matrix(1,0,0,1,1196,-4)"></circle><line class="stroke_order_diagram--guide_line" x1="1350" x2="1350" y1="1" y2="99"></line><line class="stroke_order_diagram--bounding_box" x1="1399" x2="1399" y1="1" y2="99"></line><path class="stroke_order_diagram--existing_path" d="M19.25,14.14c1.48,0.6,3.33,0.42,4.88,0.3c5.39-0.44,15.28-1.74,21.5-2.34c1.37-0.13,3.51-0.16,4.87,0.17" id="Ske2b7hvi4d" kvg:type="㇐" transform="matrix(1,0,0,1,1296,-4)" xmlns:kvg="http://kanjivg.tagaini.net"></path><path class="stroke_order_diagram--existing_path" d="M24.27,23.67c0.72,0.72,0.84,1.64,0.84,2.44c0,0.54-0.04,5.8-0.04,9.9c0,1.97,0.01,3.49,0.04,3.75" id="Ske2b7hvi4e" kvg:type="㇑" transform="matrix(1,0,0,1,1296,-4)" xmlns:kvg="http://kanjivg.tagaini.net"></path><path class="stroke_order_diagram--existing_path" d="M26.09,24.52c1.36-0.08,12.33-1.68,16.92-2.29c2.6-0.35,3.85-0.08,3.81,2.77c-0.03,2.19,0.03,6.46-0.03,9.51c-0.03,1.86-0.04,3.55-0.04,3.74" id="Ske2b7hvi4f" kvg:type="㇕a" transform="matrix(1,0,0,1,1296,-4)" xmlns:kvg="http://kanjivg.tagaini.net"></path><path class="stroke_order_diagram--existing_path" d="M32.13,30.25c2.34,1.03,6.03,4.24,6.62,5.84" id="Ske2b7hvi4g" kvg:type="㇔" transform="matrix(1,0,0,1,1296,-4)" xmlns:kvg="http://kanjivg.tagaini.net"></path><path class="stroke_order_diagram--existing_path" d="M59,12.64c2.25,0.36,3.84,0.16,5.62-0.04c5.47-0.61,14.98-1.69,20.5-2.11c1.56-0.12,3.33-0.35,4.88,0.02" id="Ske2b7hvi4h" kvg:type="㇐" transform="matrix(1,0,0,1,1296,-4)" xmlns:kvg="http://kanjivg.tagaini.net"></path><path class="stroke_order_diagram--existing_path" d="M61.77,21.92c0.78,0.78,0.84,1.83,0.84,2.94c0,0.52-0.04,4.81-0.04,8.9c0,2.09,0.01,3.73,0.04,4" id="Ske2b7hvi4i" kvg:type="㇑" transform="matrix(1,0,0,1,1296,-4)" xmlns:kvg="http://kanjivg.tagaini.net"></path><path class="stroke_order_diagram--existing_path" d="M63.09,22.52c1.43-0.09,15.06-1.83,19.67-2.37c2.48-0.29,3.37,0,3.37,2.6c0,2.57,0,6.48,0.06,10.13c0.03,2.02,0.05,3.52,0.05,3.58" id="Ske2b7hvi4j" kvg:type="㇕a" transform="matrix(1,0,0,1,1296,-4)" xmlns:kvg="http://kanjivg.tagaini.net"></path><path class="stroke_order_diagram--existing_path" d="M70.76,28.12c2.03,0.96,5.23,3.97,5.74,5.47" id="Ske2b7hvi4k" kvg:type="㇔" transform="matrix(1,0,0,1,1296,-4)" xmlns:kvg="http://kanjivg.tagaini.net"></path><path class="stroke_order_diagram--existing_path" d="M55.27,36.13c0.92,0.93,1.05,1.87,1.05,3.31c0,0.56-0.07,2.19-0.07,4.69" id="Ske2b7hvi4l" kvg:type="㇑a" transform="matrix(1,0,0,1,1296,-4)" xmlns:kvg="http://kanjivg.tagaini.net"></path><path class="stroke_order_diagram--existing_path" d="M26.45,46.85c2.52,0.69,5.09,0.65,7.67,0.51c12.95-0.7,30.53-2.88,43.13-3.8c3.25-0.24,6.11-0.71,9.38-0.18" id="Ske2b7hvi4m" kvg:type="㇐" transform="matrix(1,0,0,1,1296,-4)" xmlns:kvg="http://kanjivg.tagaini.net"></path><path class="stroke_order_diagram--existing_path" d="M27.95,47.99c0.91,0.91,1.04,2.12,0.92,3.72c-0.74,10.04-2.62,31.79-14.06,44.42" id="Ske2b7hvi4n" kvg:type="㇒" transform="matrix(1,0,0,1,1296,-4)" xmlns:kvg="http://kanjivg.tagaini.net"></path><path class="stroke_order_diagram--existing_path" d="M33.94,57.08c1.83,0.44,3.38,0.73,5.28,0.56c13.09-1.22,30.4-3.13,38.95-3.89c2.74-0.24,3.12,1.66,2.73,3.26c-0.9,3.62-1.4,5.99-2.13,8.78" id="Ske2b7hvi4o" kvg:type="㇕c" transform="matrix(1,0,0,1,1296,-4)" xmlns:kvg="http://kanjivg.tagaini.net"></path><path class="stroke_order_diagram--existing_path" d="M45.51,50.65c0.85,0.85,1.11,1.6,1.2,2.64c0.05,0.6,0.79,9.71,1.07,14.45" id="Ske2b7hvi4p" kvg:type="㇑a" transform="matrix(1,0,0,1,1296,-4)" xmlns:kvg="http://kanjivg.tagaini.net"></path><path class="stroke_order_diagram--current_path" d="M63.69,48.46c0.8,0.8,0.99,2.04,0.95,2.64c-0.2,2.6-1.01,9.41-2.01,15.43" id="kvg:09e97-s14" kvg:type="㇑a" transform="matrix(1,0,0,1,1296,-4)" xmlns:kvg="http://kanjivg.tagaini.net"></path><path class="stroke_order_diagram--current_path" d="M63.69,48.46c0.8,0.8,0.99,2.04,0.95,2.64c-0.2,2.6-1.01,9.41-2.01,15.43" id="Ske2b7hvi4r" kvg:type="㇑a" transform="matrix(1,0,0,1,1296,-4)" xmlns:kvg="http://kanjivg.tagaini.net"></path><circle class="stroke_order_diagram--path_start" cx="63.69" cy="48.46" r="4" transform="matrix(1,0,0,1,1296,-4)"></circle><line class="stroke_order_diagram--guide_line" x1="1450" x2="1450" y1="1" y2="99"></line><line class="stroke_order_diagram--bounding_box" x1="1499" x2="1499" y1="1" y2="99"></line><path class="stroke_order_diagram--existing_path" d="M19.25,14.14c1.48,0.6,3.33,0.42,4.88,0.3c5.39-0.44,15.28-1.74,21.5-2.34c1.37-0.13,3.51-0.16,4.87,0.17" id="Ske2b7hvi4u" kvg:type="㇐" transform="matrix(1,0,0,1,1396,-4)" xmlns:kvg="http://kanjivg.tagaini.net"></path><path class="stroke_order_diagram--existing_path" d="M24.27,23.67c0.72,0.72,0.84,1.64,0.84,2.44c0,0.54-0.04,5.8-0.04,9.9c0,1.97,0.01,3.49,0.04,3.75" id="Ske2b7hvi4v" kvg:type="㇑" transform="matrix(1,0,0,1,1396,-4)" xmlns:kvg="http://kanjivg.tagaini.net"></path><path class="stroke_order_diagram--existing_path" d="M26.09,24.52c1.36-0.08,12.33-1.68,16.92-2.29c2.6-0.35,3.85-0.08,3.81,2.77c-0.03,2.19,0.03,6.46-0.03,9.51c-0.03,1.86-0.04,3.55-0.04,3.74" id="Ske2b7hvi4w" kvg:type="㇕a" transform="matrix(1,0,0,1,1396,-4)" xmlns:kvg="http://kanjivg.tagaini.net"></path><path class="stroke_order_diagram--existing_path" d="M32.13,30.25c2.34,1.03,6.03,4.24,6.62,5.84" id="Ske2b7hvi4x" kvg:type="㇔" transform="matrix(1,0,0,1,1396,-4)" xmlns:kvg="http://kanjivg.tagaini.net"></path><path class="stroke_order_diagram--existing_path" d="M59,12.64c2.25,0.36,3.84,0.16,5.62-0.04c5.47-0.61,14.98-1.69,20.5-2.11c1.56-0.12,3.33-0.35,4.88,0.02" id="Ske2b7hvi4y" kvg:type="㇐" transform="matrix(1,0,0,1,1396,-4)" xmlns:kvg="http://kanjivg.tagaini.net"></path><path class="stroke_order_diagram--existing_path" d="M61.77,21.92c0.78,0.78,0.84,1.83,0.84,2.94c0,0.52-0.04,4.81-0.04,8.9c0,2.09,0.01,3.73,0.04,4" id="Ske2b7hvi4z" kvg:type="㇑" transform="matrix(1,0,0,1,1396,-4)" xmlns:kvg="http://kanjivg.tagaini.net"></path><path class="stroke_order_diagram--existing_path" d="M63.09,22.52c1.43-0.09,15.06-1.83,19.67-2.37c2.48-0.29,3.37,0,3.37,2.6c0,2.57,0,6.48,0.06,10.13c0.03,2.02,0.05,3.52,0.05,3.58" id="Ske2b7hvi50" kvg:type="㇕a" transform="matrix(1,0,0,1,1396,-4)" xmlns:kvg="http://kanjivg.tagaini.net"></path><path class="stroke_order_diagram--existing_path" d="M70.76,28.12c2.03,0.96,5.23,3.97,5.74,5.47" id="Ske2b7hvi51" kvg:type="㇔" transform="matrix(1,0,0,1,1396,-4)" xmlns:kvg="http://kanjivg.tagaini.net"></path><path class="stroke_order_diagram--existing_path" d="M55.27,36.13c0.92,0.93,1.05,1.87,1.05,3.31c0,0.56-0.07,2.19-0.07,4.69" id="Ske2b7hvi52" kvg:type="㇑a" transform="matrix(1,0,0,1,1396,-4)" xmlns:kvg="http://kanjivg.tagaini.net"></path><path class="stroke_order_diagram--existing_path" d="M26.45,46.85c2.52,0.69,5.09,0.65,7.67,0.51c12.95-0.7,30.53-2.88,43.13-3.8c3.25-0.24,6.11-0.71,9.38-0.18" id="Ske2b7hvi53" kvg:type="㇐" transform="matrix(1,0,0,1,1396,-4)" xmlns:kvg="http://kanjivg.tagaini.net"></path><path class="stroke_order_diagram--existing_path" d="M27.95,47.99c0.91,0.91,1.04,2.12,0.92,3.72c-0.74,10.04-2.62,31.79-14.06,44.42" id="Ske2b7hvi54" kvg:type="㇒" transform="matrix(1,0,0,1,1396,-4)" xmlns:kvg="http://kanjivg.tagaini.net"></path><path class="stroke_order_diagram--existing_path" d="M33.94,57.08c1.83,0.44,3.38,0.73,5.28,0.56c13.09-1.22,30.4-3.13,38.95-3.89c2.74-0.24,3.12,1.66,2.73,3.26c-0.9,3.62-1.4,5.99-2.13,8.78" id="Ske2b7hvi55" kvg:type="㇕c" transform="matrix(1,0,0,1,1396,-4)" xmlns:kvg="http://kanjivg.tagaini.net"></path><path class="stroke_order_diagram--existing_path" d="M45.51,50.65c0.85,0.85,1.11,1.6,1.2,2.64c0.05,0.6,0.79,9.71,1.07,14.45" id="Ske2b7hvi56" kvg:type="㇑a" transform="matrix(1,0,0,1,1396,-4)" xmlns:kvg="http://kanjivg.tagaini.net"></path><path class="stroke_order_diagram--existing_path" d="M63.69,48.46c0.8,0.8,0.99,2.04,0.95,2.64c-0.2,2.6-1.01,9.41-2.01,15.43" id="Ske2b7hvi57" kvg:type="㇑a" transform="matrix(1,0,0,1,1396,-4)" xmlns:kvg="http://kanjivg.tagaini.net"></path><path class="stroke_order_diagram--current_path" d="M32.67,69.82c2.34,0.72,5.13,0.35,7.49,0.11c8.68-0.89,26.32-2.79,34.59-3.29c2.12-0.13,4.29-0.25,6.4,0.14" id="kvg:09e97-s15" kvg:type="㇐" transform="matrix(1,0,0,1,1396,-4)" xmlns:kvg="http://kanjivg.tagaini.net"></path><path class="stroke_order_diagram--current_path" d="M32.67,69.82c2.34,0.72,5.13,0.35,7.49,0.11c8.68-0.89,26.32-2.79,34.59-3.29c2.12-0.13,4.29-0.25,6.4,0.14" id="Ske2b7hvi59" kvg:type="㇐" transform="matrix(1,0,0,1,1396,-4)" xmlns:kvg="http://kanjivg.tagaini.net"></path><circle class="stroke_order_diagram--path_start" cx="32.67" cy="69.82" r="4" transform="matrix(1,0,0,1,1396,-4)"></circle><line class="stroke_order_diagram--guide_line" x1="1550" x2="1550" y1="1" y2="99"></line><line class="stroke_order_diagram--bounding_box" x1="1599" x2="1599" y1="1" y2="99"></line><path class="stroke_order_diagram--existing_path" d="M19.25,14.14c1.48,0.6,3.33,0.42,4.88,0.3c5.39-0.44,15.28-1.74,21.5-2.34c1.37-0.13,3.51-0.16,4.87,0.17" id="Ske2b7hvi5c" kvg:type="㇐" transform="matrix(1,0,0,1,1496,-4)" xmlns:kvg="http://kanjivg.tagaini.net"></path><path class="stroke_order_diagram--existing_path" d="M24.27,23.67c0.72,0.72,0.84,1.64,0.84,2.44c0,0.54-0.04,5.8-0.04,9.9c0,1.97,0.01,3.49,0.04,3.75" id="Ske2b7hvi5d" kvg:type="㇑" transform="matrix(1,0,0,1,1496,-4)" xmlns:kvg="http://kanjivg.tagaini.net"></path><path class="stroke_order_diagram--existing_path" d="M26.09,24.52c1.36-0.08,12.33-1.68,16.92-2.29c2.6-0.35,3.85-0.08,3.81,2.77c-0.03,2.19,0.03,6.46-0.03,9.51c-0.03,1.86-0.04,3.55-0.04,3.74" id="Ske2b7hvi5e" kvg:type="㇕a" transform="matrix(1,0,0,1,1496,-4)" xmlns:kvg="http://kanjivg.tagaini.net"></path><path class="stroke_order_diagram--existing_path" d="M32.13,30.25c2.34,1.03,6.03,4.24,6.62,5.84" id="Ske2b7hvi5f" kvg:type="㇔" transform="matrix(1,0,0,1,1496,-4)" xmlns:kvg="http://kanjivg.tagaini.net"></path><path class="stroke_order_diagram--existing_path" d="M59,12.64c2.25,0.36,3.84,0.16,5.62-0.04c5.47-0.61,14.98-1.69,20.5-2.11c1.56-0.12,3.33-0.35,4.88,0.02" id="Ske2b7hvi5g" kvg:type="㇐" transform="matrix(1,0,0,1,1496,-4)" xmlns:kvg="http://kanjivg.tagaini.net"></path><path class="stroke_order_diagram--existing_path" d="M61.77,21.92c0.78,0.78,0.84,1.83,0.84,2.94c0,0.52-0.04,4.81-0.04,8.9c0,2.09,0.01,3.73,0.04,4" id="Ske2b7hvi5h" kvg:type="㇑" transform="matrix(1,0,0,1,1496,-4)" xmlns:kvg="http://kanjivg.tagaini.net"></path><path class="stroke_order_diagram--existing_path" d="M63.09,22.52c1.43-0.09,15.06-1.83,19.67-2.37c2.48-0.29,3.37,0,3.37,2.6c0,2.57,0,6.48,0.06,10.13c0.03,2.02,0.05,3.52,0.05,3.58" id="Ske2b7hvi5i" kvg:type="㇕a" transform="matrix(1,0,0,1,1496,-4)" xmlns:kvg="http://kanjivg.tagaini.net"></path><path class="stroke_order_diagram--existing_path" d="M70.76,28.12c2.03,0.96,5.23,3.97,5.74,5.47" id="Ske2b7hvi5j" kvg:type="㇔" transform="matrix(1,0,0,1,1496,-4)" xmlns:kvg="http://kanjivg.tagaini.net"></path><path class="stroke_order_diagram--existing_path" d="M55.27,36.13c0.92,0.93,1.05,1.87,1.05,3.31c0,0.56-0.07,2.19-0.07,4.69" id="Ske2b7hvi5k" kvg:type="㇑a" transform="matrix(1,0,0,1,1496,-4)" xmlns:kvg="http://kanjivg.tagaini.net"></path><path class="stroke_order_diagram--existing_path" d="M26.45,46.85c2.52,0.69,5.09,0.65,7.67,0.51c12.95-0.7,30.53-2.88,43.13-3.8c3.25-0.24,6.11-0.71,9.38-0.18" id="Ske2b7hvi5l" kvg:type="㇐" transform="matrix(1,0,0,1,1496,-4)" xmlns:kvg="http://kanjivg.tagaini.net"></path><path class="stroke_order_diagram--existing_path" d="M27.95,47.99c0.91,0.91,1.04,2.12,0.92,3.72c-0.74,10.04-2.62,31.79-14.06,44.42" id="Ske2b7hvi5m" kvg:type="㇒" transform="matrix(1,0,0,1,1496,-4)" xmlns:kvg="http://kanjivg.tagaini.net"></path><path class="stroke_order_diagram--existing_path" d="M33.94,57.08c1.83,0.44,3.38,0.73,5.28,0.56c13.09-1.22,30.4-3.13,38.95-3.89c2.74-0.24,3.12,1.66,2.73,3.26c-0.9,3.62-1.4,5.99-2.13,8.78" id="Ske2b7hvi5n" kvg:type="㇕c" transform="matrix(1,0,0,1,1496,-4)" xmlns:kvg="http://kanjivg.tagaini.net"></path><path class="stroke_order_diagram--existing_path" d="M45.51,50.65c0.85,0.85,1.11,1.6,1.2,2.64c0.05,0.6,0.79,9.71,1.07,14.45" id="Ske2b7hvi5o" kvg:type="㇑a" transform="matrix(1,0,0,1,1496,-4)" xmlns:kvg="http://kanjivg.tagaini.net"></path><path class="stroke_order_diagram--existing_path" d="M63.69,48.46c0.8,0.8,0.99,2.04,0.95,2.64c-0.2,2.6-1.01,9.41-2.01,15.43" id="Ske2b7hvi5p" kvg:type="㇑a" transform="matrix(1,0,0,1,1496,-4)" xmlns:kvg="http://kanjivg.tagaini.net"></path><path class="stroke_order_diagram--existing_path" d="M32.67,69.82c2.34,0.72,5.13,0.35,7.49,0.11c8.68-0.89,26.32-2.79,34.59-3.29c2.12-0.13,4.29-0.25,6.4,0.14" id="Ske2b7hvi5q" kvg:type="㇐" transform="matrix(1,0,0,1,1496,-4)" xmlns:kvg="http://kanjivg.tagaini.net"></path><path class="stroke_order_diagram--current_path" d="M37.67,82.25c5.7-0.75,10.04-1.68,14-2.02c1.16-0.1,1.9-0.1,2.5-0.04" id="kvg:09e97-s16" kvg:type="㇐b" transform="matrix(1,0,0,1,1496,-4)" xmlns:kvg="http://kanjivg.tagaini.net"></path><path class="stroke_order_diagram--current_path" d="M37.67,82.25c5.7-0.75,10.04-1.68,14-2.02c1.16-0.1,1.9-0.1,2.5-0.04" id="Ske2b7hvi5s" kvg:type="㇐b" transform="matrix(1,0,0,1,1496,-4)" xmlns:kvg="http://kanjivg.tagaini.net"></path><circle class="stroke_order_diagram--path_start" cx="37.67" cy="82.25" r="4" transform="matrix(1,0,0,1,1496,-4)"></circle><line class="stroke_order_diagram--guide_line" x1="1650" x2="1650" y1="1" y2="99"></line><line class="stroke_order_diagram--bounding_box" x1="1699" x2="1699" y1="1" y2="99"></line><path class="stroke_order_diagram--existing_path" d="M19.25,14.14c1.48,0.6,3.33,0.42,4.88,0.3c5.39-0.44,15.28-1.74,21.5-2.34c1.37-0.13,3.51-0.16,4.87,0.17" id="Ske2b7hvi5v" kvg:type="㇐" transform="matrix(1,0,0,1,1596,-4)" xmlns:kvg="http://kanjivg.tagaini.net"></path><path class="stroke_order_diagram--existing_path" d="M24.27,23.67c0.72,0.72,0.84,1.64,0.84,2.44c0,0.54-0.04,5.8-0.04,9.9c0,1.97,0.01,3.49,0.04,3.75" id="Ske2b7hvi5w" kvg:type="㇑" transform="matrix(1,0,0,1,1596,-4)" xmlns:kvg="http://kanjivg.tagaini.net"></path><path class="stroke_order_diagram--existing_path" d="M26.09,24.52c1.36-0.08,12.33-1.68,16.92-2.29c2.6-0.35,3.85-0.08,3.81,2.77c-0.03,2.19,0.03,6.46-0.03,9.51c-0.03,1.86-0.04,3.55-0.04,3.74" id="Ske2b7hvi5x" kvg:type="㇕a" transform="matrix(1,0,0,1,1596,-4)" xmlns:kvg="http://kanjivg.tagaini.net"></path><path class="stroke_order_diagram--existing_path" d="M32.13,30.25c2.34,1.03,6.03,4.24,6.62,5.84" id="Ske2b7hvi5y" kvg:type="㇔" transform="matrix(1,0,0,1,1596,-4)" xmlns:kvg="http://kanjivg.tagaini.net"></path><path class="stroke_order_diagram--existing_path" d="M59,12.64c2.25,0.36,3.84,0.16,5.62-0.04c5.47-0.61,14.98-1.69,20.5-2.11c1.56-0.12,3.33-0.35,4.88,0.02" id="Ske2b7hvi5z" kvg:type="㇐" transform="matrix(1,0,0,1,1596,-4)" xmlns:kvg="http://kanjivg.tagaini.net"></path><path class="stroke_order_diagram--existing_path" d="M61.77,21.92c0.78,0.78,0.84,1.83,0.84,2.94c0,0.52-0.04,4.81-0.04,8.9c0,2.09,0.01,3.73,0.04,4" id="Ske2b7hvi60" kvg:type="㇑" transform="matrix(1,0,0,1,1596,-4)" xmlns:kvg="http://kanjivg.tagaini.net"></path><path class="stroke_order_diagram--existing_path" d="M63.09,22.52c1.43-0.09,15.06-1.83,19.67-2.37c2.48-0.29,3.37,0,3.37,2.6c0,2.57,0,6.48,0.06,10.13c0.03,2.02,0.05,3.52,0.05,3.58" id="Ske2b7hvi61" kvg:type="㇕a" transform="matrix(1,0,0,1,1596,-4)" xmlns:kvg="http://kanjivg.tagaini.net"></path><path class="stroke_order_diagram--existing_path" d="M70.76,28.12c2.03,0.96,5.23,3.97,5.74,5.47" id="Ske2b7hvi62" kvg:type="㇔" transform="matrix(1,0,0,1,1596,-4)" xmlns:kvg="http://kanjivg.tagaini.net"></path><path class="stroke_order_diagram--existing_path" d="M55.27,36.13c0.92,0.93,1.05,1.87,1.05,3.31c0,0.56-0.07,2.19-0.07,4.69" id="Ske2b7hvi63" kvg:type="㇑a" transform="matrix(1,0,0,1,1596,-4)" xmlns:kvg="http://kanjivg.tagaini.net"></path><path class="stroke_order_diagram--existing_path" d="M26.45,46.85c2.52,0.69,5.09,0.65,7.67,0.51c12.95-0.7,30.53-2.88,43.13-3.8c3.25-0.24,6.11-0.71,9.38-0.18" id="Ske2b7hvi64" kvg:type="㇐" transform="matrix(1,0,0,1,1596,-4)" xmlns:kvg="http://kanjivg.tagaini.net"></path><path class="stroke_order_diagram--existing_path" d="M27.95,47.99c0.91,0.91,1.04,2.12,0.92,3.72c-0.74,10.04-2.62,31.79-14.06,44.42" id="Ske2b7hvi65" kvg:type="㇒" transform="matrix(1,0,0,1,1596,-4)" xmlns:kvg="http://kanjivg.tagaini.net"></path><path class="stroke_order_diagram--existing_path" d="M33.94,57.08c1.83,0.44,3.38,0.73,5.28,0.56c13.09-1.22,30.4-3.13,38.95-3.89c2.74-0.24,3.12,1.66,2.73,3.26c-0.9,3.62-1.4,5.99-2.13,8.78" id="Ske2b7hvi66" kvg:type="㇕c" transform="matrix(1,0,0,1,1596,-4)" xmlns:kvg="http://kanjivg.tagaini.net"></path><path class="stroke_order_diagram--existing_path" d="M45.51,50.65c0.85,0.85,1.11,1.6,1.2,2.64c0.05,0.6,0.79,9.71,1.07,14.45" id="Ske2b7hvi67" kvg:type="㇑a" transform="matrix(1,0,0,1,1596,-4)" xmlns:kvg="http://kanjivg.tagaini.net"></path><path class="stroke_order_diagram--existing_path" d="M63.69,48.46c0.8,0.8,0.99,2.04,0.95,2.64c-0.2,2.6-1.01,9.41-2.01,15.43" id="Ske2b7hvi68" kvg:type="㇑a" transform="matrix(1,0,0,1,1596,-4)" xmlns:kvg="http://kanjivg.tagaini.net"></path><path class="stroke_order_diagram--existing_path" d="M32.67,69.82c2.34,0.72,5.13,0.35,7.49,0.11c8.68-0.89,26.32-2.79,34.59-3.29c2.12-0.13,4.29-0.25,6.4,0.14" id="Ske2b7hvi69" kvg:type="㇐" transform="matrix(1,0,0,1,1596,-4)" xmlns:kvg="http://kanjivg.tagaini.net"></path><path class="stroke_order_diagram--existing_path" d="M37.67,82.25c5.7-0.75,10.04-1.68,14-2.02c1.16-0.1,1.9-0.1,2.5-0.04" id="Ske2b7hvi6a" kvg:type="㇐b" transform="matrix(1,0,0,1,1596,-4)" xmlns:kvg="http://kanjivg.tagaini.net"></path><path class="stroke_order_diagram--current_path" d="M36.18,76.14c0.78,0.78,0.77,1.61,0.77,2.71c0,1.18-0.01,11.61-0.01,15.65c0,2.55,0.78,3.29,3.29,2.36c4.27-1.58,8.01-3.23,12.38-4.61" id="kvg:09e97-s17" kvg:type="㇙" transform="matrix(1,0,0,1,1596,-4)" xmlns:kvg="http://kanjivg.tagaini.net"></path><path class="stroke_order_diagram--current_path" d="M36.18,76.14c0.78,0.78,0.77,1.61,0.77,2.71c0,1.18-0.01,11.61-0.01,15.65c0,2.55,0.78,3.29,3.29,2.36c4.27-1.58,8.01-3.23,12.38-4.61" id="Ske2b7hvi6c" kvg:type="㇙" transform="matrix(1,0,0,1,1596,-4)" xmlns:kvg="http://kanjivg.tagaini.net"></path><circle class="stroke_order_diagram--path_start" cx="36.18" cy="76.14" r="4" transform="matrix(1,0,0,1,1596,-4)"></circle><line class="stroke_order_diagram--guide_line" x1="1750" x2="1750" y1="1" y2="99"></line><line class="stroke_order_diagram--bounding_box" x1="1799" x2="1799" y1="1" y2="99"></line><path class="stroke_order_diagram--existing_path" d="M19.25,14.14c1.48,0.6,3.33,0.42,4.88,0.3c5.39-0.44,15.28-1.74,21.5-2.34c1.37-0.13,3.51-0.16,4.87,0.17" id="Ske2b7hvi6f" kvg:type="㇐" transform="matrix(1,0,0,1,1696,-4)" xmlns:kvg="http://kanjivg.tagaini.net"></path><path class="stroke_order_diagram--existing_path" d="M24.27,23.67c0.72,0.72,0.84,1.64,0.84,2.44c0,0.54-0.04,5.8-0.04,9.9c0,1.97,0.01,3.49,0.04,3.75" id="Ske2b7hvi6g" kvg:type="㇑" transform="matrix(1,0,0,1,1696,-4)" xmlns:kvg="http://kanjivg.tagaini.net"></path><path class="stroke_order_diagram--existing_path" d="M26.09,24.52c1.36-0.08,12.33-1.68,16.92-2.29c2.6-0.35,3.85-0.08,3.81,2.77c-0.03,2.19,0.03,6.46-0.03,9.51c-0.03,1.86-0.04,3.55-0.04,3.74" id="Ske2b7hvi6h" kvg:type="㇕a" transform="matrix(1,0,0,1,1696,-4)" xmlns:kvg="http://kanjivg.tagaini.net"></path><path class="stroke_order_diagram--existing_path" d="M32.13,30.25c2.34,1.03,6.03,4.24,6.62,5.84" id="Ske2b7hvi6i" kvg:type="㇔" transform="matrix(1,0,0,1,1696,-4)" xmlns:kvg="http://kanjivg.tagaini.net"></path><path class="stroke_order_diagram--existing_path" d="M59,12.64c2.25,0.36,3.84,0.16,5.62-0.04c5.47-0.61,14.98-1.69,20.5-2.11c1.56-0.12,3.33-0.35,4.88,0.02" id="Ske2b7hvi6j" kvg:type="㇐" transform="matrix(1,0,0,1,1696,-4)" xmlns:kvg="http://kanjivg.tagaini.net"></path><path class="stroke_order_diagram--existing_path" d="M61.77,21.92c0.78,0.78,0.84,1.83,0.84,2.94c0,0.52-0.04,4.81-0.04,8.9c0,2.09,0.01,3.73,0.04,4" id="Ske2b7hvi6k" kvg:type="㇑" transform="matrix(1,0,0,1,1696,-4)" xmlns:kvg="http://kanjivg.tagaini.net"></path><path class="stroke_order_diagram--existing_path" d="M63.09,22.52c1.43-0.09,15.06-1.83,19.67-2.37c2.48-0.29,3.37,0,3.37,2.6c0,2.57,0,6.48,0.06,10.13c0.03,2.02,0.05,3.52,0.05,3.58" id="Ske2b7hvi6l" kvg:type="㇕a" transform="matrix(1,0,0,1,1696,-4)" xmlns:kvg="http://kanjivg.tagaini.net"></path><path class="stroke_order_diagram--existing_path" d="M70.76,28.12c2.03,0.96,5.23,3.97,5.74,5.47" id="Ske2b7hvi6m" kvg:type="㇔" transform="matrix(1,0,0,1,1696,-4)" xmlns:kvg="http://kanjivg.tagaini.net"></path><path class="stroke_order_diagram--existing_path" d="M55.27,36.13c0.92,0.93,1.05,1.87,1.05,3.31c0,0.56-0.07,2.19-0.07,4.69" id="Ske2b7hvi6n" kvg:type="㇑a" transform="matrix(1,0,0,1,1696,-4)" xmlns:kvg="http://kanjivg.tagaini.net"></path><path class="stroke_order_diagram--existing_path" d="M26.45,46.85c2.52,0.69,5.09,0.65,7.67,0.51c12.95-0.7,30.53-2.88,43.13-3.8c3.25-0.24,6.11-0.71,9.38-0.18" id="Ske2b7hvi6o" kvg:type="㇐" transform="matrix(1,0,0,1,1696,-4)" xmlns:kvg="http://kanjivg.tagaini.net"></path><path class="stroke_order_diagram--existing_path" d="M27.95,47.99c0.91,0.91,1.04,2.12,0.92,3.72c-0.74,10.04-2.62,31.79-14.06,44.42" id="Ske2b7hvi6p" kvg:type="㇒" transform="matrix(1,0,0,1,1696,-4)" xmlns:kvg="http://kanjivg.tagaini.net"></path><path class="stroke_order_diagram--existing_path" d="M33.94,57.08c1.83,0.44,3.38,0.73,5.28,0.56c13.09-1.22,30.4-3.13,38.95-3.89c2.74-0.24,3.12,1.66,2.73,3.26c-0.9,3.62-1.4,5.99-2.13,8.78" id="Ske2b7hvi6q" kvg:type="㇕c" transform="matrix(1,0,0,1,1696,-4)" xmlns:kvg="http://kanjivg.tagaini.net"></path><path class="stroke_order_diagram--existing_path" d="M45.51,50.65c0.85,0.85,1.11,1.6,1.2,2.64c0.05,0.6,0.79,9.71,1.07,14.45" id="Ske2b7hvi6r" kvg:type="㇑a" transform="matrix(1,0,0,1,1696,-4)" xmlns:kvg="http://kanjivg.tagaini.net"></path><path class="stroke_order_diagram--existing_path" d="M63.69,48.46c0.8,0.8,0.99,2.04,0.95,2.64c-0.2,2.6-1.01,9.41-2.01,15.43" id="Ske2b7hvi6s" kvg:type="㇑a" transform="matrix(1,0,0,1,1696,-4)" xmlns:kvg="http://kanjivg.tagaini.net"></path><path class="stroke_order_diagram--existing_path" d="M32.67,69.82c2.34,0.72,5.13,0.35,7.49,0.11c8.68-0.89,26.32-2.79,34.59-3.29c2.12-0.13,4.29-0.25,6.4,0.14" id="Ske2b7hvi6t" kvg:type="㇐" transform="matrix(1,0,0,1,1696,-4)" xmlns:kvg="http://kanjivg.tagaini.net"></path><path class="stroke_order_diagram--existing_path" d="M37.67,82.25c5.7-0.75,10.04-1.68,14-2.02c1.16-0.1,1.9-0.1,2.5-0.04" id="Ske2b7hvi6u" kvg:type="㇐b" transform="matrix(1,0,0,1,1696,-4)" xmlns:kvg="http://kanjivg.tagaini.net"></path><path class="stroke_order_diagram--existing_path" d="M36.18,76.14c0.78,0.78,0.77,1.61,0.77,2.71c0,1.18-0.01,11.61-0.01,15.65c0,2.55,0.78,3.29,3.29,2.36c4.27-1.58,8.01-3.23,12.38-4.61" id="Ske2b7hvi6v" kvg:type="㇙" transform="matrix(1,0,0,1,1696,-4)" xmlns:kvg="http://kanjivg.tagaini.net"></path><path class="stroke_order_diagram--current_path" d="M83.38,76.48c-0.13,0.77-0.66,1.31-1.32,1.67c-3.82,2.1-8.44,3.98-15.95,6.54" id="kvg:09e97-s18" kvg:type="㇒" transform="matrix(1,0,0,1,1696,-4)" xmlns:kvg="http://kanjivg.tagaini.net"></path><path class="stroke_order_diagram--current_path" d="M83.38,76.48c-0.13,0.77-0.66,1.31-1.32,1.67c-3.82,2.1-8.44,3.98-15.95,6.54" id="Ske2b7hvi6x" kvg:type="㇒" transform="matrix(1,0,0,1,1696,-4)" xmlns:kvg="http://kanjivg.tagaini.net"></path><circle class="stroke_order_diagram--path_start" cx="83.38" cy="76.48" r="4" transform="matrix(1,0,0,1,1696,-4)"></circle><line class="stroke_order_diagram--guide_line" x1="1850" x2="1850" y1="1" y2="99"></line><line class="stroke_order_diagram--bounding_box" x1="1899" x2="1899" y1="1" y2="99"></line><path class="stroke_order_diagram--existing_path" d="M19.25,14.14c1.48,0.6,3.33,0.42,4.88,0.3c5.39-0.44,15.28-1.74,21.5-2.34c1.37-0.13,3.51-0.16,4.87,0.17" id="Ske2b7hvi70" kvg:type="㇐" transform="matrix(1,0,0,1,1796,-4)" xmlns:kvg="http://kanjivg.tagaini.net"></path><path class="stroke_order_diagram--existing_path" d="M24.27,23.67c0.72,0.72,0.84,1.64,0.84,2.44c0,0.54-0.04,5.8-0.04,9.9c0,1.97,0.01,3.49,0.04,3.75" id="Ske2b7hvi71" kvg:type="㇑" transform="matrix(1,0,0,1,1796,-4)" xmlns:kvg="http://kanjivg.tagaini.net"></path><path class="stroke_order_diagram--existing_path" d="M26.09,24.52c1.36-0.08,12.33-1.68,16.92-2.29c2.6-0.35,3.85-0.08,3.81,2.77c-0.03,2.19,0.03,6.46-0.03,9.51c-0.03,1.86-0.04,3.55-0.04,3.74" id="Ske2b7hvi72" kvg:type="㇕a" transform="matrix(1,0,0,1,1796,-4)" xmlns:kvg="http://kanjivg.tagaini.net"></path><path class="stroke_order_diagram--existing_path" d="M32.13,30.25c2.34,1.03,6.03,4.24,6.62,5.84" id="Ske2b7hvi73" kvg:type="㇔" transform="matrix(1,0,0,1,1796,-4)" xmlns:kvg="http://kanjivg.tagaini.net"></path><path class="stroke_order_diagram--existing_path" d="M59,12.64c2.25,0.36,3.84,0.16,5.62-0.04c5.47-0.61,14.98-1.69,20.5-2.11c1.56-0.12,3.33-0.35,4.88,0.02" id="Ske2b7hvi74" kvg:type="㇐" transform="matrix(1,0,0,1,1796,-4)" xmlns:kvg="http://kanjivg.tagaini.net"></path><path class="stroke_order_diagram--existing_path" d="M61.77,21.92c0.78,0.78,0.84,1.83,0.84,2.94c0,0.52-0.04,4.81-0.04,8.9c0,2.09,0.01,3.73,0.04,4" id="Ske2b7hvi75" kvg:type="㇑" transform="matrix(1,0,0,1,1796,-4)" xmlns:kvg="http://kanjivg.tagaini.net"></path><path class="stroke_order_diagram--existing_path" d="M63.09,22.52c1.43-0.09,15.06-1.83,19.67-2.37c2.48-0.29,3.37,0,3.37,2.6c0,2.57,0,6.48,0.06,10.13c0.03,2.02,0.05,3.52,0.05,3.58" id="Ske2b7hvi76" kvg:type="㇕a" transform="matrix(1,0,0,1,1796,-4)" xmlns:kvg="http://kanjivg.tagaini.net"></path><path class="stroke_order_diagram--existing_path" d="M70.76,28.12c2.03,0.96,5.23,3.97,5.74,5.47" id="Ske2b7hvi77" kvg:type="㇔" transform="matrix(1,0,0,1,1796,-4)" xmlns:kvg="http://kanjivg.tagaini.net"></path><path class="stroke_order_diagram--existing_path" d="M55.27,36.13c0.92,0.93,1.05,1.87,1.05,3.31c0,0.56-0.07,2.19-0.07,4.69" id="Ske2b7hvi78" kvg:type="㇑a" transform="matrix(1,0,0,1,1796,-4)" xmlns:kvg="http://kanjivg.tagaini.net"></path><path class="stroke_order_diagram--existing_path" d="M26.45,46.85c2.52,0.69,5.09,0.65,7.67,0.51c12.95-0.7,30.53-2.88,43.13-3.8c3.25-0.24,6.11-0.71,9.38-0.18" id="Ske2b7hvi79" kvg:type="㇐" transform="matrix(1,0,0,1,1796,-4)" xmlns:kvg="http://kanjivg.tagaini.net"></path><path class="stroke_order_diagram--existing_path" d="M27.95,47.99c0.91,0.91,1.04,2.12,0.92,3.72c-0.74,10.04-2.62,31.79-14.06,44.42" id="Ske2b7hvi7a" kvg:type="㇒" transform="matrix(1,0,0,1,1796,-4)" xmlns:kvg="http://kanjivg.tagaini.net"></path><path class="stroke_order_diagram--existing_path" d="M33.94,57.08c1.83,0.44,3.38,0.73,5.28,0.56c13.09-1.22,30.4-3.13,38.95-3.89c2.74-0.24,3.12,1.66,2.73,3.26c-0.9,3.62-1.4,5.99-2.13,8.78" id="Ske2b7hvi7b" kvg:type="㇕c" transform="matrix(1,0,0,1,1796,-4)" xmlns:kvg="http://kanjivg.tagaini.net"></path><path class="stroke_order_diagram--existing_path" d="M45.51,50.65c0.85,0.85,1.11,1.6,1.2,2.64c0.05,0.6,0.79,9.71,1.07,14.45" id="Ske2b7hvi7c" kvg:type="㇑a" transform="matrix(1,0,0,1,1796,-4)" xmlns:kvg="http://kanjivg.tagaini.net"></path><path class="stroke_order_diagram--existing_path" d="M63.69,48.46c0.8,0.8,0.99,2.04,0.95,2.64c-0.2,2.6-1.01,9.41-2.01,15.43" id="Ske2b7hvi7d" kvg:type="㇑a" transform="matrix(1,0,0,1,1796,-4)" xmlns:kvg="http://kanjivg.tagaini.net"></path><path class="stroke_order_diagram--existing_path" d="M32.67,69.82c2.34,0.72,5.13,0.35,7.49,0.11c8.68-0.89,26.32-2.79,34.59-3.29c2.12-0.13,4.29-0.25,6.4,0.14" id="Ske2b7hvi7e" kvg:type="㇐" transform="matrix(1,0,0,1,1796,-4)" xmlns:kvg="http://kanjivg.tagaini.net"></path><path class="stroke_order_diagram--existing_path" d="M37.67,82.25c5.7-0.75,10.04-1.68,14-2.02c1.16-0.1,1.9-0.1,2.5-0.04" id="Ske2b7hvi7f" kvg:type="㇐b" transform="matrix(1,0,0,1,1796,-4)" xmlns:kvg="http://kanjivg.tagaini.net"></path><path class="stroke_order_diagram--existing_path" d="M36.18,76.14c0.78,0.78,0.77,1.61,0.77,2.71c0,1.18-0.01,11.61-0.01,15.65c0,2.55,0.78,3.29,3.29,2.36c4.27-1.58,8.01-3.23,12.38-4.61" id="Ske2b7hvi7g" kvg:type="㇙" transform="matrix(1,0,0,1,1796,-4)" xmlns:kvg="http://kanjivg.tagaini.net"></path><path class="stroke_order_diagram--existing_path" d="M83.38,76.48c-0.13,0.77-0.66,1.31-1.32,1.67c-3.82,2.1-8.44,3.98-15.95,6.54" id="Ske2b7hvi7h" kvg:type="㇒" transform="matrix(1,0,0,1,1796,-4)" xmlns:kvg="http://kanjivg.tagaini.net"></path><path class="stroke_order_diagram--current_path" d="M63.03,72.2c0.89,0.89,1.04,1.93,1.04,3.47c0,1.31-0.06,11.68-0.06,13.21c0,6.88,1.38,8.71,14.29,8.71c12.71,0,14.99-1.83,14.99-6.65" id="kvg:09e97-s19" kvg:type="㇟" transform="matrix(1,0,0,1,1796,-4)" xmlns:kvg="http://kanjivg.tagaini.net"></path><path class="stroke_order_diagram--current_path" d="M63.03,72.2c0.89,0.89,1.04,1.93,1.04,3.47c0,1.31-0.06,11.68-0.06,13.21c0,6.88,1.38,8.71,14.29,8.71c12.71,0,14.99-1.83,14.99-6.65" id="Ske2b7hvi7j" kvg:type="㇟" transform="matrix(1,0,0,1,1796,-4)" xmlns:kvg="http://kanjivg.tagaini.net"></path><circle class="stroke_order_diagram--path_start" cx="63.03" cy="72.2" r="4" transform="matrix(1,0,0,1,1796,-4)"></circle></svg>