<svg class="stroke_order_diagram--svg_container_for_518662c6d5dda796580018bc" style="height: 100px; width: 1700px;" viewbox="0 0 1700 100"><desc>Created with Snap</desc><defs></defs><line class="stroke_order_diagram--bounding_box" x1="1" x2="1699" y1="1" y2="1"></line><line class="stroke_order_diagram--bounding_box" x1="1" x2="1" y1="1" y2="99"></line><line class="stroke_order_diagram--bounding_box" x1="1" x2="1699" y1="99" y2="99"></line><line class="stroke_order_diagram--guide_line" x1="0" x2="1700" y1="50" y2="50"></line><line class="stroke_order_diagram--guide_line" x1="50" x2="50" y1="1" y2="99"></line><line class="stroke_order_diagram--bounding_box" x1="99" x2="99" y1="1" y2="99"></line><path class="stroke_order_diagram--current_path" d="M32.24,10.81c0.23,0.07,0.63,1.96,0.52,2.17c-1.25,2.27-2.5,4.27-5.13,7.64" id="kvg:09f3e-s1" kvg:type="㇒" transform="matrix(1,0,0,1,-4,-4)" xmlns:kvg="http://kanjivg.tagaini.net"></path><path class="stroke_order_diagram--current_path" d="M32.24,10.81c0.23,0.07,0.63,1.96,0.52,2.17c-1.25,2.27-2.5,4.27-5.13,7.64" id="Ske365xrdq" kvg:type="㇒" transform="matrix(1,0,0,1,-4,-4)" xmlns:kvg="http://kanjivg.tagaini.net"></path><circle class="stroke_order_diagram--path_start" cx="32.24" cy="10.81" r="4" transform="matrix(1,0,0,1,-4,-4)"></circle><line class="stroke_order_diagram--guide_line" x1="150" x2="150" y1="1" y2="99"></line><line class="stroke_order_diagram--bounding_box" x1="199" x2="199" y1="1" y2="99"></line><path class="stroke_order_diagram--existing_path" d="M32.24,10.81c0.23,0.07,0.63,1.96,0.52,2.17c-1.25,2.27-2.5,4.27-5.13,7.64" id="Ske365xrdt" kvg:type="㇒" transform="matrix(1,0,0,1,96,-4)" xmlns:kvg="http://kanjivg.tagaini.net"></path><path class="stroke_order_diagram--current_path" d="M18.25,21.99c0.39,0.47,0.94,1.82,0.95,2.44c0.05,2.31,2.18,18.55,2.31,19.18" id="kvg:09f3e-s2" kvg:type="㇑" transform="matrix(1,0,0,1,96,-4)" xmlns:kvg="http://kanjivg.tagaini.net"></path><path class="stroke_order_diagram--current_path" d="M18.25,21.99c0.39,0.47,0.94,1.82,0.95,2.44c0.05,2.31,2.18,18.55,2.31,19.18" id="Ske365xrdv" kvg:type="㇑" transform="matrix(1,0,0,1,96,-4)" xmlns:kvg="http://kanjivg.tagaini.net"></path><circle class="stroke_order_diagram--path_start" cx="18.25" cy="21.99" r="4" transform="matrix(1,0,0,1,96,-4)"></circle><line class="stroke_order_diagram--guide_line" x1="250" x2="250" y1="1" y2="99"></line><line class="stroke_order_diagram--bounding_box" x1="299" x2="299" y1="1" y2="99"></line><path class="stroke_order_diagram--existing_path" d="M32.24,10.81c0.23,0.07,0.63,1.96,0.52,2.17c-1.25,2.27-2.5,4.27-5.13,7.64" id="Ske365xrdy" kvg:type="㇒" transform="matrix(1,0,0,1,196,-4)" xmlns:kvg="http://kanjivg.tagaini.net"></path><path class="stroke_order_diagram--existing_path" d="M18.25,21.99c0.39,0.47,0.94,1.82,0.95,2.44c0.05,2.31,2.18,18.55,2.31,19.18" id="Ske365xrdz" kvg:type="㇑" transform="matrix(1,0,0,1,196,-4)" xmlns:kvg="http://kanjivg.tagaini.net"></path><path class="stroke_order_diagram--current_path" d="M19.35,22.69c2.19-0.08,22.58-1.89,24.58-1.98c1.66-0.08,2.83,1.06,2.84,2.63c0,0.75-0.6,10.46-1.45,18.94" id="kvg:09f3e-s3" kvg:type="㇕a" transform="matrix(1,0,0,1,196,-4)" xmlns:kvg="http://kanjivg.tagaini.net"></path><path class="stroke_order_diagram--current_path" d="M19.35,22.69c2.19-0.08,22.58-1.89,24.58-1.98c1.66-0.08,2.83,1.06,2.84,2.63c0,0.75-0.6,10.46-1.45,18.94" id="Ske365xrd11" kvg:type="㇕a" transform="matrix(1,0,0,1,196,-4)" xmlns:kvg="http://kanjivg.tagaini.net"></path><circle class="stroke_order_diagram--path_start" cx="19.35" cy="22.69" r="4" transform="matrix(1,0,0,1,196,-4)"></circle><line class="stroke_order_diagram--guide_line" x1="350" x2="350" y1="1" y2="99"></line><line class="stroke_order_diagram--bounding_box" x1="399" x2="399" y1="1" y2="99"></line><path class="stroke_order_diagram--existing_path" d="M32.24,10.81c0.23,0.07,0.63,1.96,0.52,2.17c-1.25,2.27-2.5,4.27-5.13,7.64" id="Ske365xrd14" kvg:type="㇒" transform="matrix(1,0,0,1,296,-4)" xmlns:kvg="http://kanjivg.tagaini.net"></path><path class="stroke_order_diagram--existing_path" d="M18.25,21.99c0.39,0.47,0.94,1.82,0.95,2.44c0.05,2.31,2.18,18.55,2.31,19.18" id="Ske365xrd15" kvg:type="㇑" transform="matrix(1,0,0,1,296,-4)" xmlns:kvg="http://kanjivg.tagaini.net"></path><path class="stroke_order_diagram--existing_path" d="M19.35,22.69c2.19-0.08,22.58-1.89,24.58-1.98c1.66-0.08,2.83,1.06,2.84,2.63c0,0.75-0.6,10.46-1.45,18.94" id="Ske365xrd16" kvg:type="㇕a" transform="matrix(1,0,0,1,296,-4)" xmlns:kvg="http://kanjivg.tagaini.net"></path><path class="stroke_order_diagram--current_path" d="M20.12,29.23c4.32-0.11,21.06-2.4,24.57-2.4" id="kvg:09f3e-s4" kvg:type="㇐a" transform="matrix(1,0,0,1,296,-4)" xmlns:kvg="http://kanjivg.tagaini.net"></path><path class="stroke_order_diagram--current_path" d="M20.12,29.23c4.32-0.11,21.06-2.4,24.57-2.4" id="Ske365xrd18" kvg:type="㇐a" transform="matrix(1,0,0,1,296,-4)" xmlns:kvg="http://kanjivg.tagaini.net"></path><circle class="stroke_order_diagram--path_start" cx="20.12" cy="29.23" r="4" transform="matrix(1,0,0,1,296,-4)"></circle><line class="stroke_order_diagram--guide_line" x1="450" x2="450" y1="1" y2="99"></line><line class="stroke_order_diagram--bounding_box" x1="499" x2="499" y1="1" y2="99"></line><path class="stroke_order_diagram--existing_path" d="M32.24,10.81c0.23,0.07,0.63,1.96,0.52,2.17c-1.25,2.27-2.5,4.27-5.13,7.64" id="Ske365xrd1b" kvg:type="㇒" transform="matrix(1,0,0,1,396,-4)" xmlns:kvg="http://kanjivg.tagaini.net"></path><path class="stroke_order_diagram--existing_path" d="M18.25,21.99c0.39,0.47,0.94,1.82,0.95,2.44c0.05,2.31,2.18,18.55,2.31,19.18" id="Ske365xrd1c" kvg:type="㇑" transform="matrix(1,0,0,1,396,-4)" xmlns:kvg="http://kanjivg.tagaini.net"></path><path class="stroke_order_diagram--existing_path" d="M19.35,22.69c2.19-0.08,22.58-1.89,24.58-1.98c1.66-0.08,2.83,1.06,2.84,2.63c0,0.75-0.6,10.46-1.45,18.94" id="Ske365xrd1d" kvg:type="㇕a" transform="matrix(1,0,0,1,396,-4)" xmlns:kvg="http://kanjivg.tagaini.net"></path><path class="stroke_order_diagram--existing_path" d="M20.12,29.23c4.32-0.11,21.06-2.4,24.57-2.4" id="Ske365xrd1e" kvg:type="㇐a" transform="matrix(1,0,0,1,396,-4)" xmlns:kvg="http://kanjivg.tagaini.net"></path><path class="stroke_order_diagram--current_path" d="M20.8,35.53c5.81-0.26,18-2.34,23.64-2.34" id="kvg:09f3e-s5" kvg:type="㇐a" transform="matrix(1,0,0,1,396,-4)" xmlns:kvg="http://kanjivg.tagaini.net"></path><path class="stroke_order_diagram--current_path" d="M20.8,35.53c5.81-0.26,18-2.34,23.64-2.34" id="Ske365xrd1g" kvg:type="㇐a" transform="matrix(1,0,0,1,396,-4)" xmlns:kvg="http://kanjivg.tagaini.net"></path><circle class="stroke_order_diagram--path_start" cx="20.8" cy="35.53" r="4" transform="matrix(1,0,0,1,396,-4)"></circle><line class="stroke_order_diagram--guide_line" x1="550" x2="550" y1="1" y2="99"></line><line class="stroke_order_diagram--bounding_box" x1="599" x2="599" y1="1" y2="99"></line><path class="stroke_order_diagram--existing_path" d="M32.24,10.81c0.23,0.07,0.63,1.96,0.52,2.17c-1.25,2.27-2.5,4.27-5.13,7.64" id="Ske365xrd1j" kvg:type="㇒" transform="matrix(1,0,0,1,496,-4)" xmlns:kvg="http://kanjivg.tagaini.net"></path><path class="stroke_order_diagram--existing_path" d="M18.25,21.99c0.39,0.47,0.94,1.82,0.95,2.44c0.05,2.31,2.18,18.55,2.31,19.18" id="Ske365xrd1k" kvg:type="㇑" transform="matrix(1,0,0,1,496,-4)" xmlns:kvg="http://kanjivg.tagaini.net"></path><path class="stroke_order_diagram--existing_path" d="M19.35,22.69c2.19-0.08,22.58-1.89,24.58-1.98c1.66-0.08,2.83,1.06,2.84,2.63c0,0.75-0.6,10.46-1.45,18.94" id="Ske365xrd1l" kvg:type="㇕a" transform="matrix(1,0,0,1,496,-4)" xmlns:kvg="http://kanjivg.tagaini.net"></path><path class="stroke_order_diagram--existing_path" d="M20.12,29.23c4.32-0.11,21.06-2.4,24.57-2.4" id="Ske365xrd1m" kvg:type="㇐a" transform="matrix(1,0,0,1,496,-4)" xmlns:kvg="http://kanjivg.tagaini.net"></path><path class="stroke_order_diagram--existing_path" d="M20.8,35.53c5.81-0.26,18-2.34,23.64-2.34" id="Ske365xrd1n" kvg:type="㇐a" transform="matrix(1,0,0,1,496,-4)" xmlns:kvg="http://kanjivg.tagaini.net"></path><path class="stroke_order_diagram--current_path" d="M21.51,41.9c4.36,0,16.81-1.7,22.45-1.7" id="kvg:09f3e-s6" kvg:type="㇐a" transform="matrix(1,0,0,1,496,-4)" xmlns:kvg="http://kanjivg.tagaini.net"></path><path class="stroke_order_diagram--current_path" d="M21.51,41.9c4.36,0,16.81-1.7,22.45-1.7" id="Ske365xrd1p" kvg:type="㇐a" transform="matrix(1,0,0,1,496,-4)" xmlns:kvg="http://kanjivg.tagaini.net"></path><circle class="stroke_order_diagram--path_start" cx="21.51" cy="41.9" r="4" transform="matrix(1,0,0,1,496,-4)"></circle><line class="stroke_order_diagram--guide_line" x1="650" x2="650" y1="1" y2="99"></line><line class="stroke_order_diagram--bounding_box" x1="699" x2="699" y1="1" y2="99"></line><path class="stroke_order_diagram--existing_path" d="M32.24,10.81c0.23,0.07,0.63,1.96,0.52,2.17c-1.25,2.27-2.5,4.27-5.13,7.64" id="Ske365xrd1s" kvg:type="㇒" transform="matrix(1,0,0,1,596,-4)" xmlns:kvg="http://kanjivg.tagaini.net"></path><path class="stroke_order_diagram--existing_path" d="M18.25,21.99c0.39,0.47,0.94,1.82,0.95,2.44c0.05,2.31,2.18,18.55,2.31,19.18" id="Ske365xrd1t" kvg:type="㇑" transform="matrix(1,0,0,1,596,-4)" xmlns:kvg="http://kanjivg.tagaini.net"></path><path class="stroke_order_diagram--existing_path" d="M19.35,22.69c2.19-0.08,22.58-1.89,24.58-1.98c1.66-0.08,2.83,1.06,2.84,2.63c0,0.75-0.6,10.46-1.45,18.94" id="Ske365xrd1u" kvg:type="㇕a" transform="matrix(1,0,0,1,596,-4)" xmlns:kvg="http://kanjivg.tagaini.net"></path><path class="stroke_order_diagram--existing_path" d="M20.12,29.23c4.32-0.11,21.06-2.4,24.57-2.4" id="Ske365xrd1v" kvg:type="㇐a" transform="matrix(1,0,0,1,596,-4)" xmlns:kvg="http://kanjivg.tagaini.net"></path><path class="stroke_order_diagram--existing_path" d="M20.8,35.53c5.81-0.26,18-2.34,23.64-2.34" id="Ske365xrd1w" kvg:type="㇐a" transform="matrix(1,0,0,1,596,-4)" xmlns:kvg="http://kanjivg.tagaini.net"></path><path class="stroke_order_diagram--existing_path" d="M21.51,41.9c4.36,0,16.81-1.7,22.45-1.7" id="Ske365xrd1x" kvg:type="㇐a" transform="matrix(1,0,0,1,596,-4)" xmlns:kvg="http://kanjivg.tagaini.net"></path><path class="stroke_order_diagram--current_path" d="M15.67,49.33c0.27,0.26,0.77,0.94,0.92,1.27c1.2,2.7,1.79,10.52,2.51,15.55" id="kvg:09f3e-s7" kvg:type="㇑" transform="matrix(1,0,0,1,596,-4)" xmlns:kvg="http://kanjivg.tagaini.net"></path><path class="stroke_order_diagram--current_path" d="M15.67,49.33c0.27,0.26,0.77,0.94,0.92,1.27c1.2,2.7,1.79,10.52,2.51,15.55" id="Ske365xrd1z" kvg:type="㇑" transform="matrix(1,0,0,1,596,-4)" xmlns:kvg="http://kanjivg.tagaini.net"></path><circle class="stroke_order_diagram--path_start" cx="15.67" cy="49.33" r="4" transform="matrix(1,0,0,1,596,-4)"></circle><line class="stroke_order_diagram--guide_line" x1="750" x2="750" y1="1" y2="99"></line><line class="stroke_order_diagram--bounding_box" x1="799" x2="799" y1="1" y2="99"></line><path class="stroke_order_diagram--existing_path" d="M32.24,10.81c0.23,0.07,0.63,1.96,0.52,2.17c-1.25,2.27-2.5,4.27-5.13,7.64" id="Ske365xrd22" kvg:type="㇒" transform="matrix(1,0,0,1,696,-4)" xmlns:kvg="http://kanjivg.tagaini.net"></path><path class="stroke_order_diagram--existing_path" d="M18.25,21.99c0.39,0.47,0.94,1.82,0.95,2.44c0.05,2.31,2.18,18.55,2.31,19.18" id="Ske365xrd23" kvg:type="㇑" transform="matrix(1,0,0,1,696,-4)" xmlns:kvg="http://kanjivg.tagaini.net"></path><path class="stroke_order_diagram--existing_path" d="M19.35,22.69c2.19-0.08,22.58-1.89,24.58-1.98c1.66-0.08,2.83,1.06,2.84,2.63c0,0.75-0.6,10.46-1.45,18.94" id="Ske365xrd24" kvg:type="㇕a" transform="matrix(1,0,0,1,696,-4)" xmlns:kvg="http://kanjivg.tagaini.net"></path><path class="stroke_order_diagram--existing_path" d="M20.12,29.23c4.32-0.11,21.06-2.4,24.57-2.4" id="Ske365xrd25" kvg:type="㇐a" transform="matrix(1,0,0,1,696,-4)" xmlns:kvg="http://kanjivg.tagaini.net"></path><path class="stroke_order_diagram--existing_path" d="M20.8,35.53c5.81-0.26,18-2.34,23.64-2.34" id="Ske365xrd26" kvg:type="㇐a" transform="matrix(1,0,0,1,696,-4)" xmlns:kvg="http://kanjivg.tagaini.net"></path><path class="stroke_order_diagram--existing_path" d="M21.51,41.9c4.36,0,16.81-1.7,22.45-1.7" id="Ske365xrd27" kvg:type="㇐a" transform="matrix(1,0,0,1,696,-4)" xmlns:kvg="http://kanjivg.tagaini.net"></path><path class="stroke_order_diagram--existing_path" d="M15.67,49.33c0.27,0.26,0.77,0.94,0.92,1.27c1.2,2.7,1.79,10.52,2.51,15.55" id="Ske365xrd28" kvg:type="㇑" transform="matrix(1,0,0,1,696,-4)" xmlns:kvg="http://kanjivg.tagaini.net"></path><path class="stroke_order_diagram--current_path" d="M17.43,50.2c9.49-0.67,25.35-2.3,32.43-2.86c2.6-0.21,3.64,1.22,3.24,3.81c-0.42,2.74-1.6,7.84-2.61,12.15" id="kvg:09f3e-s8" kvg:type="㇕a" transform="matrix(1,0,0,1,696,-4)" xmlns:kvg="http://kanjivg.tagaini.net"></path><path class="stroke_order_diagram--current_path" d="M17.43,50.2c9.49-0.67,25.35-2.3,32.43-2.86c2.6-0.21,3.64,1.22,3.24,3.81c-0.42,2.74-1.6,7.84-2.61,12.15" id="Ske365xrd2a" kvg:type="㇕a" transform="matrix(1,0,0,1,696,-4)" xmlns:kvg="http://kanjivg.tagaini.net"></path><circle class="stroke_order_diagram--path_start" cx="17.43" cy="50.2" r="4" transform="matrix(1,0,0,1,696,-4)"></circle><line class="stroke_order_diagram--guide_line" x1="850" x2="850" y1="1" y2="99"></line><line class="stroke_order_diagram--bounding_box" x1="899" x2="899" y1="1" y2="99"></line><path class="stroke_order_diagram--existing_path" d="M32.24,10.81c0.23,0.07,0.63,1.96,0.52,2.17c-1.25,2.27-2.5,4.27-5.13,7.64" id="Ske365xrd2d" kvg:type="㇒" transform="matrix(1,0,0,1,796,-4)" xmlns:kvg="http://kanjivg.tagaini.net"></path><path class="stroke_order_diagram--existing_path" d="M18.25,21.99c0.39,0.47,0.94,1.82,0.95,2.44c0.05,2.31,2.18,18.55,2.31,19.18" id="Ske365xrd2e" kvg:type="㇑" transform="matrix(1,0,0,1,796,-4)" xmlns:kvg="http://kanjivg.tagaini.net"></path><path class="stroke_order_diagram--existing_path" d="M19.35,22.69c2.19-0.08,22.58-1.89,24.58-1.98c1.66-0.08,2.83,1.06,2.84,2.63c0,0.75-0.6,10.46-1.45,18.94" id="Ske365xrd2f" kvg:type="㇕a" transform="matrix(1,0,0,1,796,-4)" xmlns:kvg="http://kanjivg.tagaini.net"></path><path class="stroke_order_diagram--existing_path" d="M20.12,29.23c4.32-0.11,21.06-2.4,24.57-2.4" id="Ske365xrd2g" kvg:type="㇐a" transform="matrix(1,0,0,1,796,-4)" xmlns:kvg="http://kanjivg.tagaini.net"></path><path class="stroke_order_diagram--existing_path" d="M20.8,35.53c5.81-0.26,18-2.34,23.64-2.34" id="Ske365xrd2h" kvg:type="㇐a" transform="matrix(1,0,0,1,796,-4)" xmlns:kvg="http://kanjivg.tagaini.net"></path><path class="stroke_order_diagram--existing_path" d="M21.51,41.9c4.36,0,16.81-1.7,22.45-1.7" id="Ske365xrd2i" kvg:type="㇐a" transform="matrix(1,0,0,1,796,-4)" xmlns:kvg="http://kanjivg.tagaini.net"></path><path class="stroke_order_diagram--existing_path" d="M15.67,49.33c0.27,0.26,0.77,0.94,0.92,1.27c1.2,2.7,1.79,10.52,2.51,15.55" id="Ske365xrd2j" kvg:type="㇑" transform="matrix(1,0,0,1,796,-4)" xmlns:kvg="http://kanjivg.tagaini.net"></path><path class="stroke_order_diagram--existing_path" d="M17.43,50.2c9.49-0.67,25.35-2.3,32.43-2.86c2.6-0.21,3.64,1.22,3.24,3.81c-0.42,2.74-1.6,7.84-2.61,12.15" id="Ske365xrd2k" kvg:type="㇕a" transform="matrix(1,0,0,1,796,-4)" xmlns:kvg="http://kanjivg.tagaini.net"></path><path class="stroke_order_diagram--current_path" d="M34.55,49.39c-0.13,1.6-0.24,12.25-0.23,13.58" id="kvg:09f3e-s9" kvg:type="㇑a" transform="matrix(1,0,0,1,796,-4)" xmlns:kvg="http://kanjivg.tagaini.net"></path><path class="stroke_order_diagram--current_path" d="M34.55,49.39c-0.13,1.6-0.24,12.25-0.23,13.58" id="Ske365xrd2m" kvg:type="㇑a" transform="matrix(1,0,0,1,796,-4)" xmlns:kvg="http://kanjivg.tagaini.net"></path><circle class="stroke_order_diagram--path_start" cx="34.55" cy="49.39" r="4" transform="matrix(1,0,0,1,796,-4)"></circle><line class="stroke_order_diagram--guide_line" x1="950" x2="950" y1="1" y2="99"></line><line class="stroke_order_diagram--bounding_box" x1="999" x2="999" y1="1" y2="99"></line><path class="stroke_order_diagram--existing_path" d="M32.24,10.81c0.23,0.07,0.63,1.96,0.52,2.17c-1.25,2.27-2.5,4.27-5.13,7.64" id="Ske365xrd2p" kvg:type="㇒" transform="matrix(1,0,0,1,896,-4)" xmlns:kvg="http://kanjivg.tagaini.net"></path><path class="stroke_order_diagram--existing_path" d="M18.25,21.99c0.39,0.47,0.94,1.82,0.95,2.44c0.05,2.31,2.18,18.55,2.31,19.18" id="Ske365xrd2q" kvg:type="㇑" transform="matrix(1,0,0,1,896,-4)" xmlns:kvg="http://kanjivg.tagaini.net"></path><path class="stroke_order_diagram--existing_path" d="M19.35,22.69c2.19-0.08,22.58-1.89,24.58-1.98c1.66-0.08,2.83,1.06,2.84,2.63c0,0.75-0.6,10.46-1.45,18.94" id="Ske365xrd2r" kvg:type="㇕a" transform="matrix(1,0,0,1,896,-4)" xmlns:kvg="http://kanjivg.tagaini.net"></path><path class="stroke_order_diagram--existing_path" d="M20.12,29.23c4.32-0.11,21.06-2.4,24.57-2.4" id="Ske365xrd2s" kvg:type="㇐a" transform="matrix(1,0,0,1,896,-4)" xmlns:kvg="http://kanjivg.tagaini.net"></path><path class="stroke_order_diagram--existing_path" d="M20.8,35.53c5.81-0.26,18-2.34,23.64-2.34" id="Ske365xrd2t" kvg:type="㇐a" transform="matrix(1,0,0,1,896,-4)" xmlns:kvg="http://kanjivg.tagaini.net"></path><path class="stroke_order_diagram--existing_path" d="M21.51,41.9c4.36,0,16.81-1.7,22.45-1.7" id="Ske365xrd2u" kvg:type="㇐a" transform="matrix(1,0,0,1,896,-4)" xmlns:kvg="http://kanjivg.tagaini.net"></path><path class="stroke_order_diagram--existing_path" d="M15.67,49.33c0.27,0.26,0.77,0.94,0.92,1.27c1.2,2.7,1.79,10.52,2.51,15.55" id="Ske365xrd2v" kvg:type="㇑" transform="matrix(1,0,0,1,896,-4)" xmlns:kvg="http://kanjivg.tagaini.net"></path><path class="stroke_order_diagram--existing_path" d="M17.43,50.2c9.49-0.67,25.35-2.3,32.43-2.86c2.6-0.21,3.64,1.22,3.24,3.81c-0.42,2.74-1.6,7.84-2.61,12.15" id="Ske365xrd2w" kvg:type="㇕a" transform="matrix(1,0,0,1,896,-4)" xmlns:kvg="http://kanjivg.tagaini.net"></path><path class="stroke_order_diagram--existing_path" d="M34.55,49.39c-0.13,1.6-0.24,12.25-0.23,13.58" id="Ske365xrd2x" kvg:type="㇑a" transform="matrix(1,0,0,1,896,-4)" xmlns:kvg="http://kanjivg.tagaini.net"></path><path class="stroke_order_diagram--current_path" d="M19.14,56.68c3.09-0.26,29.83-2.18,32.39-2.28" id="kvg:09f3e-s10" kvg:type="㇐a" transform="matrix(1,0,0,1,896,-4)" xmlns:kvg="http://kanjivg.tagaini.net"></path><path class="stroke_order_diagram--current_path" d="M19.14,56.68c3.09-0.26,29.83-2.18,32.39-2.28" id="Ske365xrd2z" kvg:type="㇐a" transform="matrix(1,0,0,1,896,-4)" xmlns:kvg="http://kanjivg.tagaini.net"></path><circle class="stroke_order_diagram--path_start" cx="19.14" cy="56.68" r="4" transform="matrix(1,0,0,1,896,-4)"></circle><line class="stroke_order_diagram--guide_line" x1="1050" x2="1050" y1="1" y2="99"></line><line class="stroke_order_diagram--bounding_box" x1="1099" x2="1099" y1="1" y2="99"></line><path class="stroke_order_diagram--existing_path" d="M32.24,10.81c0.23,0.07,0.63,1.96,0.52,2.17c-1.25,2.27-2.5,4.27-5.13,7.64" id="Ske365xrd32" kvg:type="㇒" transform="matrix(1,0,0,1,996,-4)" xmlns:kvg="http://kanjivg.tagaini.net"></path><path class="stroke_order_diagram--existing_path" d="M18.25,21.99c0.39,0.47,0.94,1.82,0.95,2.44c0.05,2.31,2.18,18.55,2.31,19.18" id="Ske365xrd33" kvg:type="㇑" transform="matrix(1,0,0,1,996,-4)" xmlns:kvg="http://kanjivg.tagaini.net"></path><path class="stroke_order_diagram--existing_path" d="M19.35,22.69c2.19-0.08,22.58-1.89,24.58-1.98c1.66-0.08,2.83,1.06,2.84,2.63c0,0.75-0.6,10.46-1.45,18.94" id="Ske365xrd34" kvg:type="㇕a" transform="matrix(1,0,0,1,996,-4)" xmlns:kvg="http://kanjivg.tagaini.net"></path><path class="stroke_order_diagram--existing_path" d="M20.12,29.23c4.32-0.11,21.06-2.4,24.57-2.4" id="Ske365xrd35" kvg:type="㇐a" transform="matrix(1,0,0,1,996,-4)" xmlns:kvg="http://kanjivg.tagaini.net"></path><path class="stroke_order_diagram--existing_path" d="M20.8,35.53c5.81-0.26,18-2.34,23.64-2.34" id="Ske365xrd36" kvg:type="㇐a" transform="matrix(1,0,0,1,996,-4)" xmlns:kvg="http://kanjivg.tagaini.net"></path><path class="stroke_order_diagram--existing_path" d="M21.51,41.9c4.36,0,16.81-1.7,22.45-1.7" id="Ske365xrd37" kvg:type="㇐a" transform="matrix(1,0,0,1,996,-4)" xmlns:kvg="http://kanjivg.tagaini.net"></path><path class="stroke_order_diagram--existing_path" d="M15.67,49.33c0.27,0.26,0.77,0.94,0.92,1.27c1.2,2.7,1.79,10.52,2.51,15.55" id="Ske365xrd38" kvg:type="㇑" transform="matrix(1,0,0,1,996,-4)" xmlns:kvg="http://kanjivg.tagaini.net"></path><path class="stroke_order_diagram--existing_path" d="M17.43,50.2c9.49-0.67,25.35-2.3,32.43-2.86c2.6-0.21,3.64,1.22,3.24,3.81c-0.42,2.74-1.6,7.84-2.61,12.15" id="Ske365xrd39" kvg:type="㇕a" transform="matrix(1,0,0,1,996,-4)" xmlns:kvg="http://kanjivg.tagaini.net"></path><path class="stroke_order_diagram--existing_path" d="M34.55,49.39c-0.13,1.6-0.24,12.25-0.23,13.58" id="Ske365xrd3a" kvg:type="㇑a" transform="matrix(1,0,0,1,996,-4)" xmlns:kvg="http://kanjivg.tagaini.net"></path><path class="stroke_order_diagram--existing_path" d="M19.14,56.68c3.09-0.26,29.83-2.18,32.39-2.28" id="Ske365xrd3b" kvg:type="㇐a" transform="matrix(1,0,0,1,996,-4)" xmlns:kvg="http://kanjivg.tagaini.net"></path><path class="stroke_order_diagram--current_path" d="M19.09,64.42c6.83-0.28,22.05-1.53,31.48-1.99" id="kvg:09f3e-s11" kvg:type="㇐a" transform="matrix(1,0,0,1,996,-4)" xmlns:kvg="http://kanjivg.tagaini.net"></path><path class="stroke_order_diagram--current_path" d="M19.09,64.42c6.83-0.28,22.05-1.53,31.48-1.99" id="Ske365xrd3d" kvg:type="㇐a" transform="matrix(1,0,0,1,996,-4)" xmlns:kvg="http://kanjivg.tagaini.net"></path><circle class="stroke_order_diagram--path_start" cx="19.09" cy="64.42" r="4" transform="matrix(1,0,0,1,996,-4)"></circle><line class="stroke_order_diagram--guide_line" x1="1150" x2="1150" y1="1" y2="99"></line><line class="stroke_order_diagram--bounding_box" x1="1199" x2="1199" y1="1" y2="99"></line><path class="stroke_order_diagram--existing_path" d="M32.24,10.81c0.23,0.07,0.63,1.96,0.52,2.17c-1.25,2.27-2.5,4.27-5.13,7.64" id="Ske365xrd3g" kvg:type="㇒" transform="matrix(1,0,0,1,1096,-4)" xmlns:kvg="http://kanjivg.tagaini.net"></path><path class="stroke_order_diagram--existing_path" d="M18.25,21.99c0.39,0.47,0.94,1.82,0.95,2.44c0.05,2.31,2.18,18.55,2.31,19.18" id="Ske365xrd3h" kvg:type="㇑" transform="matrix(1,0,0,1,1096,-4)" xmlns:kvg="http://kanjivg.tagaini.net"></path><path class="stroke_order_diagram--existing_path" d="M19.35,22.69c2.19-0.08,22.58-1.89,24.58-1.98c1.66-0.08,2.83,1.06,2.84,2.63c0,0.75-0.6,10.46-1.45,18.94" id="Ske365xrd3i" kvg:type="㇕a" transform="matrix(1,0,0,1,1096,-4)" xmlns:kvg="http://kanjivg.tagaini.net"></path><path class="stroke_order_diagram--existing_path" d="M20.12,29.23c4.32-0.11,21.06-2.4,24.57-2.4" id="Ske365xrd3j" kvg:type="㇐a" transform="matrix(1,0,0,1,1096,-4)" xmlns:kvg="http://kanjivg.tagaini.net"></path><path class="stroke_order_diagram--existing_path" d="M20.8,35.53c5.81-0.26,18-2.34,23.64-2.34" id="Ske365xrd3k" kvg:type="㇐a" transform="matrix(1,0,0,1,1096,-4)" xmlns:kvg="http://kanjivg.tagaini.net"></path><path class="stroke_order_diagram--existing_path" d="M21.51,41.9c4.36,0,16.81-1.7,22.45-1.7" id="Ske365xrd3l" kvg:type="㇐a" transform="matrix(1,0,0,1,1096,-4)" xmlns:kvg="http://kanjivg.tagaini.net"></path><path class="stroke_order_diagram--existing_path" d="M15.67,49.33c0.27,0.26,0.77,0.94,0.92,1.27c1.2,2.7,1.79,10.52,2.51,15.55" id="Ske365xrd3m" kvg:type="㇑" transform="matrix(1,0,0,1,1096,-4)" xmlns:kvg="http://kanjivg.tagaini.net"></path><path class="stroke_order_diagram--existing_path" d="M17.43,50.2c9.49-0.67,25.35-2.3,32.43-2.86c2.6-0.21,3.64,1.22,3.24,3.81c-0.42,2.74-1.6,7.84-2.61,12.15" id="Ske365xrd3n" kvg:type="㇕a" transform="matrix(1,0,0,1,1096,-4)" xmlns:kvg="http://kanjivg.tagaini.net"></path><path class="stroke_order_diagram--existing_path" d="M34.55,49.39c-0.13,1.6-0.24,12.25-0.23,13.58" id="Ske365xrd3o" kvg:type="㇑a" transform="matrix(1,0,0,1,1096,-4)" xmlns:kvg="http://kanjivg.tagaini.net"></path><path class="stroke_order_diagram--existing_path" d="M19.14,56.68c3.09-0.26,29.83-2.18,32.39-2.28" id="Ske365xrd3p" kvg:type="㇐a" transform="matrix(1,0,0,1,1096,-4)" xmlns:kvg="http://kanjivg.tagaini.net"></path><path class="stroke_order_diagram--existing_path" d="M19.09,64.42c6.83-0.28,22.05-1.53,31.48-1.99" id="Ske365xrd3q" kvg:type="㇐a" transform="matrix(1,0,0,1,1096,-4)" xmlns:kvg="http://kanjivg.tagaini.net"></path><path class="stroke_order_diagram--current_path" d="M10.88,73.58c0.89,0.42,2.52,0.49,3.4,0.42c9.24-0.71,27.51-2.84,39.24-3.21c1.48-0.05,2.37,0.2,3.11,0.42" id="kvg:09f3e-s12" kvg:type="㇐" transform="matrix(1,0,0,1,1096,-4)" xmlns:kvg="http://kanjivg.tagaini.net"></path><path class="stroke_order_diagram--current_path" d="M10.88,73.58c0.89,0.42,2.52,0.49,3.4,0.42c9.24-0.71,27.51-2.84,39.24-3.21c1.48-0.05,2.37,0.2,3.11,0.42" id="Ske365xrd3s" kvg:type="㇐" transform="matrix(1,0,0,1,1096,-4)" xmlns:kvg="http://kanjivg.tagaini.net"></path><circle class="stroke_order_diagram--path_start" cx="10.88" cy="73.58" r="4" transform="matrix(1,0,0,1,1096,-4)"></circle><line class="stroke_order_diagram--guide_line" x1="1250" x2="1250" y1="1" y2="99"></line><line class="stroke_order_diagram--bounding_box" x1="1299" x2="1299" y1="1" y2="99"></line><path class="stroke_order_diagram--existing_path" d="M32.24,10.81c0.23,0.07,0.63,1.96,0.52,2.17c-1.25,2.27-2.5,4.27-5.13,7.64" id="Ske365xrd3v" kvg:type="㇒" transform="matrix(1,0,0,1,1196,-4)" xmlns:kvg="http://kanjivg.tagaini.net"></path><path class="stroke_order_diagram--existing_path" d="M18.25,21.99c0.39,0.47,0.94,1.82,0.95,2.44c0.05,2.31,2.18,18.55,2.31,19.18" id="Ske365xrd3w" kvg:type="㇑" transform="matrix(1,0,0,1,1196,-4)" xmlns:kvg="http://kanjivg.tagaini.net"></path><path class="stroke_order_diagram--existing_path" d="M19.35,22.69c2.19-0.08,22.58-1.89,24.58-1.98c1.66-0.08,2.83,1.06,2.84,2.63c0,0.75-0.6,10.46-1.45,18.94" id="Ske365xrd3x" kvg:type="㇕a" transform="matrix(1,0,0,1,1196,-4)" xmlns:kvg="http://kanjivg.tagaini.net"></path><path class="stroke_order_diagram--existing_path" d="M20.12,29.23c4.32-0.11,21.06-2.4,24.57-2.4" id="Ske365xrd3y" kvg:type="㇐a" transform="matrix(1,0,0,1,1196,-4)" xmlns:kvg="http://kanjivg.tagaini.net"></path><path class="stroke_order_diagram--existing_path" d="M20.8,35.53c5.81-0.26,18-2.34,23.64-2.34" id="Ske365xrd3z" kvg:type="㇐a" transform="matrix(1,0,0,1,1196,-4)" xmlns:kvg="http://kanjivg.tagaini.net"></path><path class="stroke_order_diagram--existing_path" d="M21.51,41.9c4.36,0,16.81-1.7,22.45-1.7" id="Ske365xrd40" kvg:type="㇐a" transform="matrix(1,0,0,1,1196,-4)" xmlns:kvg="http://kanjivg.tagaini.net"></path><path class="stroke_order_diagram--existing_path" d="M15.67,49.33c0.27,0.26,0.77,0.94,0.92,1.27c1.2,2.7,1.79,10.52,2.51,15.55" id="Ske365xrd41" kvg:type="㇑" transform="matrix(1,0,0,1,1196,-4)" xmlns:kvg="http://kanjivg.tagaini.net"></path><path class="stroke_order_diagram--existing_path" d="M17.43,50.2c9.49-0.67,25.35-2.3,32.43-2.86c2.6-0.21,3.64,1.22,3.24,3.81c-0.42,2.74-1.6,7.84-2.61,12.15" id="Ske365xrd42" kvg:type="㇕a" transform="matrix(1,0,0,1,1196,-4)" xmlns:kvg="http://kanjivg.tagaini.net"></path><path class="stroke_order_diagram--existing_path" d="M34.55,49.39c-0.13,1.6-0.24,12.25-0.23,13.58" id="Ske365xrd43" kvg:type="㇑a" transform="matrix(1,0,0,1,1196,-4)" xmlns:kvg="http://kanjivg.tagaini.net"></path><path class="stroke_order_diagram--existing_path" d="M19.14,56.68c3.09-0.26,29.83-2.18,32.39-2.28" id="Ske365xrd44" kvg:type="㇐a" transform="matrix(1,0,0,1,1196,-4)" xmlns:kvg="http://kanjivg.tagaini.net"></path><path class="stroke_order_diagram--existing_path" d="M19.09,64.42c6.83-0.28,22.05-1.53,31.48-1.99" id="Ske365xrd45" kvg:type="㇐a" transform="matrix(1,0,0,1,1196,-4)" xmlns:kvg="http://kanjivg.tagaini.net"></path><path class="stroke_order_diagram--existing_path" d="M10.88,73.58c0.89,0.42,2.52,0.49,3.4,0.42c9.24-0.71,27.51-2.84,39.24-3.21c1.48-0.05,2.37,0.2,3.11,0.42" id="Ske365xrd46" kvg:type="㇐" transform="matrix(1,0,0,1,1196,-4)" xmlns:kvg="http://kanjivg.tagaini.net"></path><path class="stroke_order_diagram--current_path" d="M26.17,76c0.84,0.78,0.96,2.01,0.8,2.79C25.61,85.63,24,94,14,98.5" id="kvg:09f3e-s13" kvg:type="㇒" transform="matrix(1,0,0,1,1196,-4)" xmlns:kvg="http://kanjivg.tagaini.net"></path><path class="stroke_order_diagram--current_path" d="M26.17,76c0.84,0.78,0.96,2.01,0.8,2.79C25.61,85.63,24,94,14,98.5" id="Ske365xrd48" kvg:type="㇒" transform="matrix(1,0,0,1,1196,-4)" xmlns:kvg="http://kanjivg.tagaini.net"></path><circle class="stroke_order_diagram--path_start" cx="26.17" cy="76" r="4" transform="matrix(1,0,0,1,1196,-4)"></circle><line class="stroke_order_diagram--guide_line" x1="1350" x2="1350" y1="1" y2="99"></line><line class="stroke_order_diagram--bounding_box" x1="1399" x2="1399" y1="1" y2="99"></line><path class="stroke_order_diagram--existing_path" d="M32.24,10.81c0.23,0.07,0.63,1.96,0.52,2.17c-1.25,2.27-2.5,4.27-5.13,7.64" id="Ske365xrd4b" kvg:type="㇒" transform="matrix(1,0,0,1,1296,-4)" xmlns:kvg="http://kanjivg.tagaini.net"></path><path class="stroke_order_diagram--existing_path" d="M18.25,21.99c0.39,0.47,0.94,1.82,0.95,2.44c0.05,2.31,2.18,18.55,2.31,19.18" id="Ske365xrd4c" kvg:type="㇑" transform="matrix(1,0,0,1,1296,-4)" xmlns:kvg="http://kanjivg.tagaini.net"></path><path class="stroke_order_diagram--existing_path" d="M19.35,22.69c2.19-0.08,22.58-1.89,24.58-1.98c1.66-0.08,2.83,1.06,2.84,2.63c0,0.75-0.6,10.46-1.45,18.94" id="Ske365xrd4d" kvg:type="㇕a" transform="matrix(1,0,0,1,1296,-4)" xmlns:kvg="http://kanjivg.tagaini.net"></path><path class="stroke_order_diagram--existing_path" d="M20.12,29.23c4.32-0.11,21.06-2.4,24.57-2.4" id="Ske365xrd4e" kvg:type="㇐a" transform="matrix(1,0,0,1,1296,-4)" xmlns:kvg="http://kanjivg.tagaini.net"></path><path class="stroke_order_diagram--existing_path" d="M20.8,35.53c5.81-0.26,18-2.34,23.64-2.34" id="Ske365xrd4f" kvg:type="㇐a" transform="matrix(1,0,0,1,1296,-4)" xmlns:kvg="http://kanjivg.tagaini.net"></path><path class="stroke_order_diagram--existing_path" d="M21.51,41.9c4.36,0,16.81-1.7,22.45-1.7" id="Ske365xrd4g" kvg:type="㇐a" transform="matrix(1,0,0,1,1296,-4)" xmlns:kvg="http://kanjivg.tagaini.net"></path><path class="stroke_order_diagram--existing_path" d="M15.67,49.33c0.27,0.26,0.77,0.94,0.92,1.27c1.2,2.7,1.79,10.52,2.51,15.55" id="Ske365xrd4h" kvg:type="㇑" transform="matrix(1,0,0,1,1296,-4)" xmlns:kvg="http://kanjivg.tagaini.net"></path><path class="stroke_order_diagram--existing_path" d="M17.43,50.2c9.49-0.67,25.35-2.3,32.43-2.86c2.6-0.21,3.64,1.22,3.24,3.81c-0.42,2.74-1.6,7.84-2.61,12.15" id="Ske365xrd4i" kvg:type="㇕a" transform="matrix(1,0,0,1,1296,-4)" xmlns:kvg="http://kanjivg.tagaini.net"></path><path class="stroke_order_diagram--existing_path" d="M34.55,49.39c-0.13,1.6-0.24,12.25-0.23,13.58" id="Ske365xrd4j" kvg:type="㇑a" transform="matrix(1,0,0,1,1296,-4)" xmlns:kvg="http://kanjivg.tagaini.net"></path><path class="stroke_order_diagram--existing_path" d="M19.14,56.68c3.09-0.26,29.83-2.18,32.39-2.28" id="Ske365xrd4k" kvg:type="㇐a" transform="matrix(1,0,0,1,1296,-4)" xmlns:kvg="http://kanjivg.tagaini.net"></path><path class="stroke_order_diagram--existing_path" d="M19.09,64.42c6.83-0.28,22.05-1.53,31.48-1.99" id="Ske365xrd4l" kvg:type="㇐a" transform="matrix(1,0,0,1,1296,-4)" xmlns:kvg="http://kanjivg.tagaini.net"></path><path class="stroke_order_diagram--existing_path" d="M10.88,73.58c0.89,0.42,2.52,0.49,3.4,0.42c9.24-0.71,27.51-2.84,39.24-3.21c1.48-0.05,2.37,0.2,3.11,0.42" id="Ske365xrd4m" kvg:type="㇐" transform="matrix(1,0,0,1,1296,-4)" xmlns:kvg="http://kanjivg.tagaini.net"></path><path class="stroke_order_diagram--existing_path" d="M26.17,76c0.84,0.78,0.96,2.01,0.8,2.79C25.61,85.63,24,94,14,98.5" id="Ske365xrd4n" kvg:type="㇒" transform="matrix(1,0,0,1,1296,-4)" xmlns:kvg="http://kanjivg.tagaini.net"></path><path class="stroke_order_diagram--current_path" d="M40.63,73.41c0.82,0.38,1.31,1.69,1.47,2.44c0.16,0.75,0,18.47-0.16,23.16" id="kvg:09f3e-s14" kvg:type="㇑" transform="matrix(1,0,0,1,1296,-4)" xmlns:kvg="http://kanjivg.tagaini.net"></path><path class="stroke_order_diagram--current_path" d="M40.63,73.41c0.82,0.38,1.31,1.69,1.47,2.44c0.16,0.75,0,18.47-0.16,23.16" id="Ske365xrd4p" kvg:type="㇑" transform="matrix(1,0,0,1,1296,-4)" xmlns:kvg="http://kanjivg.tagaini.net"></path><circle class="stroke_order_diagram--path_start" cx="40.63" cy="73.41" r="4" transform="matrix(1,0,0,1,1296,-4)"></circle><line class="stroke_order_diagram--guide_line" x1="1450" x2="1450" y1="1" y2="99"></line><line class="stroke_order_diagram--bounding_box" x1="1499" x2="1499" y1="1" y2="99"></line><path class="stroke_order_diagram--existing_path" d="M32.24,10.81c0.23,0.07,0.63,1.96,0.52,2.17c-1.25,2.27-2.5,4.27-5.13,7.64" id="Ske365xrd4s" kvg:type="㇒" transform="matrix(1,0,0,1,1396,-4)" xmlns:kvg="http://kanjivg.tagaini.net"></path><path class="stroke_order_diagram--existing_path" d="M18.25,21.99c0.39,0.47,0.94,1.82,0.95,2.44c0.05,2.31,2.18,18.55,2.31,19.18" id="Ske365xrd4t" kvg:type="㇑" transform="matrix(1,0,0,1,1396,-4)" xmlns:kvg="http://kanjivg.tagaini.net"></path><path class="stroke_order_diagram--existing_path" d="M19.35,22.69c2.19-0.08,22.58-1.89,24.58-1.98c1.66-0.08,2.83,1.06,2.84,2.63c0,0.75-0.6,10.46-1.45,18.94" id="Ske365xrd4u" kvg:type="㇕a" transform="matrix(1,0,0,1,1396,-4)" xmlns:kvg="http://kanjivg.tagaini.net"></path><path class="stroke_order_diagram--existing_path" d="M20.12,29.23c4.32-0.11,21.06-2.4,24.57-2.4" id="Ske365xrd4v" kvg:type="㇐a" transform="matrix(1,0,0,1,1396,-4)" xmlns:kvg="http://kanjivg.tagaini.net"></path><path class="stroke_order_diagram--existing_path" d="M20.8,35.53c5.81-0.26,18-2.34,23.64-2.34" id="Ske365xrd4w" kvg:type="㇐a" transform="matrix(1,0,0,1,1396,-4)" xmlns:kvg="http://kanjivg.tagaini.net"></path><path class="stroke_order_diagram--existing_path" d="M21.51,41.9c4.36,0,16.81-1.7,22.45-1.7" id="Ske365xrd4x" kvg:type="㇐a" transform="matrix(1,0,0,1,1396,-4)" xmlns:kvg="http://kanjivg.tagaini.net"></path><path class="stroke_order_diagram--existing_path" d="M15.67,49.33c0.27,0.26,0.77,0.94,0.92,1.27c1.2,2.7,1.79,10.52,2.51,15.55" id="Ske365xrd4y" kvg:type="㇑" transform="matrix(1,0,0,1,1396,-4)" xmlns:kvg="http://kanjivg.tagaini.net"></path><path class="stroke_order_diagram--existing_path" d="M17.43,50.2c9.49-0.67,25.35-2.3,32.43-2.86c2.6-0.21,3.64,1.22,3.24,3.81c-0.42,2.74-1.6,7.84-2.61,12.15" id="Ske365xrd4z" kvg:type="㇕a" transform="matrix(1,0,0,1,1396,-4)" xmlns:kvg="http://kanjivg.tagaini.net"></path><path class="stroke_order_diagram--existing_path" d="M34.55,49.39c-0.13,1.6-0.24,12.25-0.23,13.58" id="Ske365xrd50" kvg:type="㇑a" transform="matrix(1,0,0,1,1396,-4)" xmlns:kvg="http://kanjivg.tagaini.net"></path><path class="stroke_order_diagram--existing_path" d="M19.14,56.68c3.09-0.26,29.83-2.18,32.39-2.28" id="Ske365xrd51" kvg:type="㇐a" transform="matrix(1,0,0,1,1396,-4)" xmlns:kvg="http://kanjivg.tagaini.net"></path><path class="stroke_order_diagram--existing_path" d="M19.09,64.42c6.83-0.28,22.05-1.53,31.48-1.99" id="Ske365xrd52" kvg:type="㇐a" transform="matrix(1,0,0,1,1396,-4)" xmlns:kvg="http://kanjivg.tagaini.net"></path><path class="stroke_order_diagram--existing_path" d="M10.88,73.58c0.89,0.42,2.52,0.49,3.4,0.42c9.24-0.71,27.51-2.84,39.24-3.21c1.48-0.05,2.37,0.2,3.11,0.42" id="Ske365xrd53" kvg:type="㇐" transform="matrix(1,0,0,1,1396,-4)" xmlns:kvg="http://kanjivg.tagaini.net"></path><path class="stroke_order_diagram--existing_path" d="M26.17,76c0.84,0.78,0.96,2.01,0.8,2.79C25.61,85.63,24,94,14,98.5" id="Ske365xrd54" kvg:type="㇒" transform="matrix(1,0,0,1,1396,-4)" xmlns:kvg="http://kanjivg.tagaini.net"></path><path class="stroke_order_diagram--existing_path" d="M40.63,73.41c0.82,0.38,1.31,1.69,1.47,2.44c0.16,0.75,0,18.47-0.16,23.16" id="Ske365xrd55" kvg:type="㇑" transform="matrix(1,0,0,1,1396,-4)" xmlns:kvg="http://kanjivg.tagaini.net"></path><path class="stroke_order_diagram--current_path" d="M58.05,20.92c0.65,0.21,3.9,0.72,4.56,0.69c4.48-0.24,19.17-2.29,26.97-2.71c1.08-0.06,3.37,0.18,3.91,0.28" id="kvg:09f3e-s15" kvg:type="㇐" transform="matrix(1,0,0,1,1396,-4)" xmlns:kvg="http://kanjivg.tagaini.net"></path><path class="stroke_order_diagram--current_path" d="M58.05,20.92c0.65,0.21,3.9,0.72,4.56,0.69c4.48-0.24,19.17-2.29,26.97-2.71c1.08-0.06,3.37,0.18,3.91,0.28" id="Ske365xrd57" kvg:type="㇐" transform="matrix(1,0,0,1,1396,-4)" xmlns:kvg="http://kanjivg.tagaini.net"></path><circle class="stroke_order_diagram--path_start" cx="58.05" cy="20.92" r="4" transform="matrix(1,0,0,1,1396,-4)"></circle><line class="stroke_order_diagram--guide_line" x1="1550" x2="1550" y1="1" y2="99"></line><line class="stroke_order_diagram--bounding_box" x1="1599" x2="1599" y1="1" y2="99"></line><path class="stroke_order_diagram--existing_path" d="M32.24,10.81c0.23,0.07,0.63,1.96,0.52,2.17c-1.25,2.27-2.5,4.27-5.13,7.64" id="Ske365xrd5a" kvg:type="㇒" transform="matrix(1,0,0,1,1496,-4)" xmlns:kvg="http://kanjivg.tagaini.net"></path><path class="stroke_order_diagram--existing_path" d="M18.25,21.99c0.39,0.47,0.94,1.82,0.95,2.44c0.05,2.31,2.18,18.55,2.31,19.18" id="Ske365xrd5b" kvg:type="㇑" transform="matrix(1,0,0,1,1496,-4)" xmlns:kvg="http://kanjivg.tagaini.net"></path><path class="stroke_order_diagram--existing_path" d="M19.35,22.69c2.19-0.08,22.58-1.89,24.58-1.98c1.66-0.08,2.83,1.06,2.84,2.63c0,0.75-0.6,10.46-1.45,18.94" id="Ske365xrd5c" kvg:type="㇕a" transform="matrix(1,0,0,1,1496,-4)" xmlns:kvg="http://kanjivg.tagaini.net"></path><path class="stroke_order_diagram--existing_path" d="M20.12,29.23c4.32-0.11,21.06-2.4,24.57-2.4" id="Ske365xrd5d" kvg:type="㇐a" transform="matrix(1,0,0,1,1496,-4)" xmlns:kvg="http://kanjivg.tagaini.net"></path><path class="stroke_order_diagram--existing_path" d="M20.8,35.53c5.81-0.26,18-2.34,23.64-2.34" id="Ske365xrd5e" kvg:type="㇐a" transform="matrix(1,0,0,1,1496,-4)" xmlns:kvg="http://kanjivg.tagaini.net"></path><path class="stroke_order_diagram--existing_path" d="M21.51,41.9c4.36,0,16.81-1.7,22.45-1.7" id="Ske365xrd5f" kvg:type="㇐a" transform="matrix(1,0,0,1,1496,-4)" xmlns:kvg="http://kanjivg.tagaini.net"></path><path class="stroke_order_diagram--existing_path" d="M15.67,49.33c0.27,0.26,0.77,0.94,0.92,1.27c1.2,2.7,1.79,10.52,2.51,15.55" id="Ske365xrd5g" kvg:type="㇑" transform="matrix(1,0,0,1,1496,-4)" xmlns:kvg="http://kanjivg.tagaini.net"></path><path class="stroke_order_diagram--existing_path" d="M17.43,50.2c9.49-0.67,25.35-2.3,32.43-2.86c2.6-0.21,3.64,1.22,3.24,3.81c-0.42,2.74-1.6,7.84-2.61,12.15" id="Ske365xrd5h" kvg:type="㇕a" transform="matrix(1,0,0,1,1496,-4)" xmlns:kvg="http://kanjivg.tagaini.net"></path><path class="stroke_order_diagram--existing_path" d="M34.55,49.39c-0.13,1.6-0.24,12.25-0.23,13.58" id="Ske365xrd5i" kvg:type="㇑a" transform="matrix(1,0,0,1,1496,-4)" xmlns:kvg="http://kanjivg.tagaini.net"></path><path class="stroke_order_diagram--existing_path" d="M19.14,56.68c3.09-0.26,29.83-2.18,32.39-2.28" id="Ske365xrd5j" kvg:type="㇐a" transform="matrix(1,0,0,1,1496,-4)" xmlns:kvg="http://kanjivg.tagaini.net"></path><path class="stroke_order_diagram--existing_path" d="M19.09,64.42c6.83-0.28,22.05-1.53,31.48-1.99" id="Ske365xrd5k" kvg:type="㇐a" transform="matrix(1,0,0,1,1496,-4)" xmlns:kvg="http://kanjivg.tagaini.net"></path><path class="stroke_order_diagram--existing_path" d="M10.88,73.58c0.89,0.42,2.52,0.49,3.4,0.42c9.24-0.71,27.51-2.84,39.24-3.21c1.48-0.05,2.37,0.2,3.11,0.42" id="Ske365xrd5l" kvg:type="㇐" transform="matrix(1,0,0,1,1496,-4)" xmlns:kvg="http://kanjivg.tagaini.net"></path><path class="stroke_order_diagram--existing_path" d="M26.17,76c0.84,0.78,0.96,2.01,0.8,2.79C25.61,85.63,24,94,14,98.5" id="Ske365xrd5m" kvg:type="㇒" transform="matrix(1,0,0,1,1496,-4)" xmlns:kvg="http://kanjivg.tagaini.net"></path><path class="stroke_order_diagram--existing_path" d="M40.63,73.41c0.82,0.38,1.31,1.69,1.47,2.44c0.16,0.75,0,18.47-0.16,23.16" id="Ske365xrd5n" kvg:type="㇑" transform="matrix(1,0,0,1,1496,-4)" xmlns:kvg="http://kanjivg.tagaini.net"></path><path class="stroke_order_diagram--existing_path" d="M58.05,20.92c0.65,0.21,3.9,0.72,4.56,0.69c4.48-0.24,19.17-2.29,26.97-2.71c1.08-0.06,3.37,0.18,3.91,0.28" id="Ske365xrd5o" kvg:type="㇐" transform="matrix(1,0,0,1,1496,-4)" xmlns:kvg="http://kanjivg.tagaini.net"></path><path class="stroke_order_diagram--current_path" d="M58,51.28c1.37,0.46,3.88,0.59,5.25,0.46C76.12,50.5,84,49.75,93.21,49.33c2.28-0.1,3.65,0.22,4.79,0.45" id="kvg:09f3e-s16" kvg:type="㇐" transform="matrix(1,0,0,1,1496,-4)" xmlns:kvg="http://kanjivg.tagaini.net"></path><path class="stroke_order_diagram--current_path" d="M58,51.28c1.37,0.46,3.88,0.59,5.25,0.46C76.12,50.5,84,49.75,93.21,49.33c2.28-0.1,3.65,0.22,4.79,0.45" id="Ske365xrd5q" kvg:type="㇐" transform="matrix(1,0,0,1,1496,-4)" xmlns:kvg="http://kanjivg.tagaini.net"></path><circle class="stroke_order_diagram--path_start" cx="58" cy="51.28" r="4" transform="matrix(1,0,0,1,1496,-4)"></circle><line class="stroke_order_diagram--guide_line" x1="1650" x2="1650" y1="1" y2="99"></line><line class="stroke_order_diagram--bounding_box" x1="1699" x2="1699" y1="1" y2="99"></line><path class="stroke_order_diagram--existing_path" d="M32.24,10.81c0.23,0.07,0.63,1.96,0.52,2.17c-1.25,2.27-2.5,4.27-5.13,7.64" id="Ske365xrd5t" kvg:type="㇒" transform="matrix(1,0,0,1,1596,-4)" xmlns:kvg="http://kanjivg.tagaini.net"></path><path class="stroke_order_diagram--existing_path" d="M18.25,21.99c0.39,0.47,0.94,1.82,0.95,2.44c0.05,2.31,2.18,18.55,2.31,19.18" id="Ske365xrd5u" kvg:type="㇑" transform="matrix(1,0,0,1,1596,-4)" xmlns:kvg="http://kanjivg.tagaini.net"></path><path class="stroke_order_diagram--existing_path" d="M19.35,22.69c2.19-0.08,22.58-1.89,24.58-1.98c1.66-0.08,2.83,1.06,2.84,2.63c0,0.75-0.6,10.46-1.45,18.94" id="Ske365xrd5v" kvg:type="㇕a" transform="matrix(1,0,0,1,1596,-4)" xmlns:kvg="http://kanjivg.tagaini.net"></path><path class="stroke_order_diagram--existing_path" d="M20.12,29.23c4.32-0.11,21.06-2.4,24.57-2.4" id="Ske365xrd5w" kvg:type="㇐a" transform="matrix(1,0,0,1,1596,-4)" xmlns:kvg="http://kanjivg.tagaini.net"></path><path class="stroke_order_diagram--existing_path" d="M20.8,35.53c5.81-0.26,18-2.34,23.64-2.34" id="Ske365xrd5x" kvg:type="㇐a" transform="matrix(1,0,0,1,1596,-4)" xmlns:kvg="http://kanjivg.tagaini.net"></path><path class="stroke_order_diagram--existing_path" d="M21.51,41.9c4.36,0,16.81-1.7,22.45-1.7" id="Ske365xrd5y" kvg:type="㇐a" transform="matrix(1,0,0,1,1596,-4)" xmlns:kvg="http://kanjivg.tagaini.net"></path><path class="stroke_order_diagram--existing_path" d="M15.67,49.33c0.27,0.26,0.77,0.94,0.92,1.27c1.2,2.7,1.79,10.52,2.51,15.55" id="Ske365xrd5z" kvg:type="㇑" transform="matrix(1,0,0,1,1596,-4)" xmlns:kvg="http://kanjivg.tagaini.net"></path><path class="stroke_order_diagram--existing_path" d="M17.43,50.2c9.49-0.67,25.35-2.3,32.43-2.86c2.6-0.21,3.64,1.22,3.24,3.81c-0.42,2.74-1.6,7.84-2.61,12.15" id="Ske365xrd60" kvg:type="㇕a" transform="matrix(1,0,0,1,1596,-4)" xmlns:kvg="http://kanjivg.tagaini.net"></path><path class="stroke_order_diagram--existing_path" d="M34.55,49.39c-0.13,1.6-0.24,12.25-0.23,13.58" id="Ske365xrd61" kvg:type="㇑a" transform="matrix(1,0,0,1,1596,-4)" xmlns:kvg="http://kanjivg.tagaini.net"></path><path class="stroke_order_diagram--existing_path" d="M19.14,56.68c3.09-0.26,29.83-2.18,32.39-2.28" id="Ske365xrd62" kvg:type="㇐a" transform="matrix(1,0,0,1,1596,-4)" xmlns:kvg="http://kanjivg.tagaini.net"></path><path class="stroke_order_diagram--existing_path" d="M19.09,64.42c6.83-0.28,22.05-1.53,31.48-1.99" id="Ske365xrd63" kvg:type="㇐a" transform="matrix(1,0,0,1,1596,-4)" xmlns:kvg="http://kanjivg.tagaini.net"></path><path class="stroke_order_diagram--existing_path" d="M10.88,73.58c0.89,0.42,2.52,0.49,3.4,0.42c9.24-0.71,27.51-2.84,39.24-3.21c1.48-0.05,2.37,0.2,3.11,0.42" id="Ske365xrd64" kvg:type="㇐" transform="matrix(1,0,0,1,1596,-4)" xmlns:kvg="http://kanjivg.tagaini.net"></path><path class="stroke_order_diagram--existing_path" d="M26.17,76c0.84,0.78,0.96,2.01,0.8,2.79C25.61,85.63,24,94,14,98.5" id="Ske365xrd65" kvg:type="㇒" transform="matrix(1,0,0,1,1596,-4)" xmlns:kvg="http://kanjivg.tagaini.net"></path><path class="stroke_order_diagram--existing_path" d="M40.63,73.41c0.82,0.38,1.31,1.69,1.47,2.44c0.16,0.75,0,18.47-0.16,23.16" id="Ske365xrd66" kvg:type="㇑" transform="matrix(1,0,0,1,1596,-4)" xmlns:kvg="http://kanjivg.tagaini.net"></path><path class="stroke_order_diagram--existing_path" d="M58.05,20.92c0.65,0.21,3.9,0.72,4.56,0.69c4.48-0.24,19.17-2.29,26.97-2.71c1.08-0.06,3.37,0.18,3.91,0.28" id="Ske365xrd67" kvg:type="㇐" transform="matrix(1,0,0,1,1596,-4)" xmlns:kvg="http://kanjivg.tagaini.net"></path><path class="stroke_order_diagram--existing_path" d="M58,51.28c1.37,0.46,3.88,0.59,5.25,0.46C76.12,50.5,84,49.75,93.21,49.33c2.28-0.1,3.65,0.22,4.79,0.45" id="Ske365xrd68" kvg:type="㇐" transform="matrix(1,0,0,1,1596,-4)" xmlns:kvg="http://kanjivg.tagaini.net"></path><path class="stroke_order_diagram--current_path" d="M73.68,23.63c0.54,0.51,2.29,2.12,2.29,4.83c0,5.29-0.07,62.56-0.18,68.92" id="kvg:09f3e-s17" kvg:type="㇑" transform="matrix(1,0,0,1,1596,-4)" xmlns:kvg="http://kanjivg.tagaini.net"></path><path class="stroke_order_diagram--current_path" d="M73.68,23.63c0.54,0.51,2.29,2.12,2.29,4.83c0,5.29-0.07,62.56-0.18,68.92" id="Ske365xrd6a" kvg:type="㇑" transform="matrix(1,0,0,1,1596,-4)" xmlns:kvg="http://kanjivg.tagaini.net"></path><circle class="stroke_order_diagram--path_start" cx="73.68" cy="23.63" r="4" transform="matrix(1,0,0,1,1596,-4)"></circle></svg>