<svg class="stroke_order_diagram--svg_container_for_518662c7d5dda796580018cd" style="height: 100px; width: 1700px;" viewbox="0 0 1700 100"><desc>Created with Snap</desc><defs></defs><line class="stroke_order_diagram--bounding_box" x1="1" x2="1699" y1="1" y2="1"></line><line class="stroke_order_diagram--bounding_box" x1="1" x2="1" y1="1" y2="99"></line><line class="stroke_order_diagram--bounding_box" x1="1" x2="1699" y1="99" y2="99"></line><line class="stroke_order_diagram--guide_line" x1="0" x2="1700" y1="50" y2="50"></line><line class="stroke_order_diagram--guide_line" x1="50" x2="50" y1="1" y2="99"></line><line class="stroke_order_diagram--bounding_box" x1="99" x2="99" y1="1" y2="99"></line><path class="stroke_order_diagram--current_path" d="M50.25,9.75c0.11,0.78,0.41,2.1-0.21,3.12C45.5,20.25,32.25,33,11.5,42.75" id="kvg:09fa0-s1" kvg:type="㇒" transform="matrix(1,0,0,1,-4,-4)" xmlns:kvg="http://kanjivg.tagaini.net"></path><path class="stroke_order_diagram--current_path" d="M50.25,9.75c0.11,0.78,0.41,2.1-0.21,3.12C45.5,20.25,32.25,33,11.5,42.75" id="Ske36aqk1q" kvg:type="㇒" transform="matrix(1,0,0,1,-4,-4)" xmlns:kvg="http://kanjivg.tagaini.net"></path><circle class="stroke_order_diagram--path_start" cx="50.25" cy="9.75" r="4" transform="matrix(1,0,0,1,-4,-4)"></circle><line class="stroke_order_diagram--guide_line" x1="150" x2="150" y1="1" y2="99"></line><line class="stroke_order_diagram--bounding_box" x1="199" x2="199" y1="1" y2="99"></line><path class="stroke_order_diagram--existing_path" d="M50.25,9.75c0.11,0.78,0.41,2.1-0.21,3.12C45.5,20.25,32.25,33,11.5,42.75" id="Ske36aqk1t" kvg:type="㇒" transform="matrix(1,0,0,1,96,-4)" xmlns:kvg="http://kanjivg.tagaini.net"></path><path class="stroke_order_diagram--current_path" d="M51,12.38c5.83,4.4,30.9,19.21,37.33,22.43c2.18,1.09,4.98,1.56,7.17,1.87" id="kvg:09fa0-s2" kvg:type="㇏" transform="matrix(1,0,0,1,96,-4)" xmlns:kvg="http://kanjivg.tagaini.net"></path><path class="stroke_order_diagram--current_path" d="M51,12.38c5.83,4.4,30.9,19.21,37.33,22.43c2.18,1.09,4.98,1.56,7.17,1.87" id="Ske36aqk1v" kvg:type="㇏" transform="matrix(1,0,0,1,96,-4)" xmlns:kvg="http://kanjivg.tagaini.net"></path><circle class="stroke_order_diagram--path_start" cx="51" cy="12.38" r="4" transform="matrix(1,0,0,1,96,-4)"></circle><line class="stroke_order_diagram--guide_line" x1="250" x2="250" y1="1" y2="99"></line><line class="stroke_order_diagram--bounding_box" x1="299" x2="299" y1="1" y2="99"></line><path class="stroke_order_diagram--existing_path" d="M50.25,9.75c0.11,0.78,0.41,2.1-0.21,3.12C45.5,20.25,32.25,33,11.5,42.75" id="Ske36aqk1y" kvg:type="㇒" transform="matrix(1,0,0,1,196,-4)" xmlns:kvg="http://kanjivg.tagaini.net"></path><path class="stroke_order_diagram--existing_path" d="M51,12.38c5.83,4.4,30.9,19.21,37.33,22.43c2.18,1.09,4.98,1.56,7.17,1.87" id="Ske36aqk1z" kvg:type="㇏" transform="matrix(1,0,0,1,196,-4)" xmlns:kvg="http://kanjivg.tagaini.net"></path><path class="stroke_order_diagram--current_path" d="M37.25,33.19c0.82,0.33,2.31,0.37,3.13,0.33c5.87-0.27,17.37-2.02,24.01-2.38c1.36-0.07,2.18,0.16,2.86,0.32" id="kvg:09fa0-s3" kvg:type="㇐" transform="matrix(1,0,0,1,196,-4)" xmlns:kvg="http://kanjivg.tagaini.net"></path><path class="stroke_order_diagram--current_path" d="M37.25,33.19c0.82,0.33,2.31,0.37,3.13,0.33c5.87-0.27,17.37-2.02,24.01-2.38c1.36-0.07,2.18,0.16,2.86,0.32" id="Ske36aqk111" kvg:type="㇐" transform="matrix(1,0,0,1,196,-4)" xmlns:kvg="http://kanjivg.tagaini.net"></path><circle class="stroke_order_diagram--path_start" cx="37.25" cy="33.19" r="4" transform="matrix(1,0,0,1,196,-4)"></circle><line class="stroke_order_diagram--guide_line" x1="350" x2="350" y1="1" y2="99"></line><line class="stroke_order_diagram--bounding_box" x1="399" x2="399" y1="1" y2="99"></line><path class="stroke_order_diagram--existing_path" d="M50.25,9.75c0.11,0.78,0.41,2.1-0.21,3.12C45.5,20.25,32.25,33,11.5,42.75" id="Ske36aqk114" kvg:type="㇒" transform="matrix(1,0,0,1,296,-4)" xmlns:kvg="http://kanjivg.tagaini.net"></path><path class="stroke_order_diagram--existing_path" d="M51,12.38c5.83,4.4,30.9,19.21,37.33,22.43c2.18,1.09,4.98,1.56,7.17,1.87" id="Ske36aqk115" kvg:type="㇏" transform="matrix(1,0,0,1,296,-4)" xmlns:kvg="http://kanjivg.tagaini.net"></path><path class="stroke_order_diagram--existing_path" d="M37.25,33.19c0.82,0.33,2.31,0.37,3.13,0.33c5.87-0.27,17.37-2.02,24.01-2.38c1.36-0.07,2.18,0.16,2.86,0.32" id="Ske36aqk116" kvg:type="㇐" transform="matrix(1,0,0,1,296,-4)" xmlns:kvg="http://kanjivg.tagaini.net"></path><path class="stroke_order_diagram--current_path" d="M23.39,42.34c0.27,0.29,0.58,0.53,0.67,0.92c0.77,3.4,1.75,10.55,2.52,15.55" id="kvg:09fa0-s4" kvg:type="㇑" transform="matrix(1,0,0,1,296,-4)" xmlns:kvg="http://kanjivg.tagaini.net"></path><path class="stroke_order_diagram--current_path" d="M23.39,42.34c0.27,0.29,0.58,0.53,0.67,0.92c0.77,3.4,1.75,10.55,2.52,15.55" id="Ske36aqk118" kvg:type="㇑" transform="matrix(1,0,0,1,296,-4)" xmlns:kvg="http://kanjivg.tagaini.net"></path><circle class="stroke_order_diagram--path_start" cx="23.39" cy="42.34" r="4" transform="matrix(1,0,0,1,296,-4)"></circle><line class="stroke_order_diagram--guide_line" x1="450" x2="450" y1="1" y2="99"></line><line class="stroke_order_diagram--bounding_box" x1="499" x2="499" y1="1" y2="99"></line><path class="stroke_order_diagram--existing_path" d="M50.25,9.75c0.11,0.78,0.41,2.1-0.21,3.12C45.5,20.25,32.25,33,11.5,42.75" id="Ske36aqk11b" kvg:type="㇒" transform="matrix(1,0,0,1,396,-4)" xmlns:kvg="http://kanjivg.tagaini.net"></path><path class="stroke_order_diagram--existing_path" d="M51,12.38c5.83,4.4,30.9,19.21,37.33,22.43c2.18,1.09,4.98,1.56,7.17,1.87" id="Ske36aqk11c" kvg:type="㇏" transform="matrix(1,0,0,1,396,-4)" xmlns:kvg="http://kanjivg.tagaini.net"></path><path class="stroke_order_diagram--existing_path" d="M37.25,33.19c0.82,0.33,2.31,0.37,3.13,0.33c5.87-0.27,17.37-2.02,24.01-2.38c1.36-0.07,2.18,0.16,2.86,0.32" id="Ske36aqk11d" kvg:type="㇐" transform="matrix(1,0,0,1,396,-4)" xmlns:kvg="http://kanjivg.tagaini.net"></path><path class="stroke_order_diagram--existing_path" d="M23.39,42.34c0.27,0.29,0.58,0.53,0.67,0.92c0.77,3.4,1.75,10.55,2.52,15.55" id="Ske36aqk11e" kvg:type="㇑" transform="matrix(1,0,0,1,396,-4)" xmlns:kvg="http://kanjivg.tagaini.net"></path><path class="stroke_order_diagram--current_path" d="M25.07,44.33c5-0.72,9.29-1.3,13.91-2.02c1.16-0.18,1.85,0.84,1.69,1.67c-0.69,3.44-1.29,5.03-2.51,10.75" id="kvg:09fa0-s5" kvg:type="㇕b" transform="matrix(1,0,0,1,396,-4)" xmlns:kvg="http://kanjivg.tagaini.net"></path><path class="stroke_order_diagram--current_path" d="M25.07,44.33c5-0.72,9.29-1.3,13.91-2.02c1.16-0.18,1.85,0.84,1.69,1.67c-0.69,3.44-1.29,5.03-2.51,10.75" id="Ske36aqk11g" kvg:type="㇕b" transform="matrix(1,0,0,1,396,-4)" xmlns:kvg="http://kanjivg.tagaini.net"></path><circle class="stroke_order_diagram--path_start" cx="25.07" cy="44.33" r="4" transform="matrix(1,0,0,1,396,-4)"></circle><line class="stroke_order_diagram--guide_line" x1="550" x2="550" y1="1" y2="99"></line><line class="stroke_order_diagram--bounding_box" x1="599" x2="599" y1="1" y2="99"></line><path class="stroke_order_diagram--existing_path" d="M50.25,9.75c0.11,0.78,0.41,2.1-0.21,3.12C45.5,20.25,32.25,33,11.5,42.75" id="Ske36aqk11j" kvg:type="㇒" transform="matrix(1,0,0,1,496,-4)" xmlns:kvg="http://kanjivg.tagaini.net"></path><path class="stroke_order_diagram--existing_path" d="M51,12.38c5.83,4.4,30.9,19.21,37.33,22.43c2.18,1.09,4.98,1.56,7.17,1.87" id="Ske36aqk11k" kvg:type="㇏" transform="matrix(1,0,0,1,496,-4)" xmlns:kvg="http://kanjivg.tagaini.net"></path><path class="stroke_order_diagram--existing_path" d="M37.25,33.19c0.82,0.33,2.31,0.37,3.13,0.33c5.87-0.27,17.37-2.02,24.01-2.38c1.36-0.07,2.18,0.16,2.86,0.32" id="Ske36aqk11l" kvg:type="㇐" transform="matrix(1,0,0,1,496,-4)" xmlns:kvg="http://kanjivg.tagaini.net"></path><path class="stroke_order_diagram--existing_path" d="M23.39,42.34c0.27,0.29,0.58,0.53,0.67,0.92c0.77,3.4,1.75,10.55,2.52,15.55" id="Ske36aqk11m" kvg:type="㇑" transform="matrix(1,0,0,1,496,-4)" xmlns:kvg="http://kanjivg.tagaini.net"></path><path class="stroke_order_diagram--existing_path" d="M25.07,44.33c5-0.72,9.29-1.3,13.91-2.02c1.16-0.18,1.85,0.84,1.69,1.67c-0.69,3.44-1.29,5.03-2.51,10.75" id="Ske36aqk11n" kvg:type="㇕b" transform="matrix(1,0,0,1,496,-4)" xmlns:kvg="http://kanjivg.tagaini.net"></path><path class="stroke_order_diagram--current_path" d="M27.14,57.02c3.73-0.44,7.06-1.19,12.18-1.87" id="kvg:09fa0-s6" kvg:type="㇐b" transform="matrix(1,0,0,1,496,-4)" xmlns:kvg="http://kanjivg.tagaini.net"></path><path class="stroke_order_diagram--current_path" d="M27.14,57.02c3.73-0.44,7.06-1.19,12.18-1.87" id="Ske36aqk11p" kvg:type="㇐b" transform="matrix(1,0,0,1,496,-4)" xmlns:kvg="http://kanjivg.tagaini.net"></path><circle class="stroke_order_diagram--path_start" cx="27.14" cy="57.02" r="4" transform="matrix(1,0,0,1,496,-4)"></circle><line class="stroke_order_diagram--guide_line" x1="650" x2="650" y1="1" y2="99"></line><line class="stroke_order_diagram--bounding_box" x1="699" x2="699" y1="1" y2="99"></line><path class="stroke_order_diagram--existing_path" d="M50.25,9.75c0.11,0.78,0.41,2.1-0.21,3.12C45.5,20.25,32.25,33,11.5,42.75" id="Ske36aqk11s" kvg:type="㇒" transform="matrix(1,0,0,1,596,-4)" xmlns:kvg="http://kanjivg.tagaini.net"></path><path class="stroke_order_diagram--existing_path" d="M51,12.38c5.83,4.4,30.9,19.21,37.33,22.43c2.18,1.09,4.98,1.56,7.17,1.87" id="Ske36aqk11t" kvg:type="㇏" transform="matrix(1,0,0,1,596,-4)" xmlns:kvg="http://kanjivg.tagaini.net"></path><path class="stroke_order_diagram--existing_path" d="M37.25,33.19c0.82,0.33,2.31,0.37,3.13,0.33c5.87-0.27,17.37-2.02,24.01-2.38c1.36-0.07,2.18,0.16,2.86,0.32" id="Ske36aqk11u" kvg:type="㇐" transform="matrix(1,0,0,1,596,-4)" xmlns:kvg="http://kanjivg.tagaini.net"></path><path class="stroke_order_diagram--existing_path" d="M23.39,42.34c0.27,0.29,0.58,0.53,0.67,0.92c0.77,3.4,1.75,10.55,2.52,15.55" id="Ske36aqk11v" kvg:type="㇑" transform="matrix(1,0,0,1,596,-4)" xmlns:kvg="http://kanjivg.tagaini.net"></path><path class="stroke_order_diagram--existing_path" d="M25.07,44.33c5-0.72,9.29-1.3,13.91-2.02c1.16-0.18,1.85,0.84,1.69,1.67c-0.69,3.44-1.29,5.03-2.51,10.75" id="Ske36aqk11w" kvg:type="㇕b" transform="matrix(1,0,0,1,596,-4)" xmlns:kvg="http://kanjivg.tagaini.net"></path><path class="stroke_order_diagram--existing_path" d="M27.14,57.02c3.73-0.44,7.06-1.19,12.18-1.87" id="Ske36aqk11x" kvg:type="㇐b" transform="matrix(1,0,0,1,596,-4)" xmlns:kvg="http://kanjivg.tagaini.net"></path><path class="stroke_order_diagram--current_path" d="M46.14,41.55c0.25,0.27,0.53,0.48,0.61,0.84c0.7,3.11,1.6,9.64,2.31,14.21" id="kvg:09fa0-s7" kvg:type="㇑" transform="matrix(1,0,0,1,596,-4)" xmlns:kvg="http://kanjivg.tagaini.net"></path><path class="stroke_order_diagram--current_path" d="M46.14,41.55c0.25,0.27,0.53,0.48,0.61,0.84c0.7,3.11,1.6,9.64,2.31,14.21" id="Ske36aqk11z" kvg:type="㇑" transform="matrix(1,0,0,1,596,-4)" xmlns:kvg="http://kanjivg.tagaini.net"></path><circle class="stroke_order_diagram--path_start" cx="46.14" cy="41.55" r="4" transform="matrix(1,0,0,1,596,-4)"></circle><line class="stroke_order_diagram--guide_line" x1="750" x2="750" y1="1" y2="99"></line><line class="stroke_order_diagram--bounding_box" x1="799" x2="799" y1="1" y2="99"></line><path class="stroke_order_diagram--existing_path" d="M50.25,9.75c0.11,0.78,0.41,2.1-0.21,3.12C45.5,20.25,32.25,33,11.5,42.75" id="Ske36aqk122" kvg:type="㇒" transform="matrix(1,0,0,1,696,-4)" xmlns:kvg="http://kanjivg.tagaini.net"></path><path class="stroke_order_diagram--existing_path" d="M51,12.38c5.83,4.4,30.9,19.21,37.33,22.43c2.18,1.09,4.98,1.56,7.17,1.87" id="Ske36aqk123" kvg:type="㇏" transform="matrix(1,0,0,1,696,-4)" xmlns:kvg="http://kanjivg.tagaini.net"></path><path class="stroke_order_diagram--existing_path" d="M37.25,33.19c0.82,0.33,2.31,0.37,3.13,0.33c5.87-0.27,17.37-2.02,24.01-2.38c1.36-0.07,2.18,0.16,2.86,0.32" id="Ske36aqk124" kvg:type="㇐" transform="matrix(1,0,0,1,696,-4)" xmlns:kvg="http://kanjivg.tagaini.net"></path><path class="stroke_order_diagram--existing_path" d="M23.39,42.34c0.27,0.29,0.58,0.53,0.67,0.92c0.77,3.4,1.75,10.55,2.52,15.55" id="Ske36aqk125" kvg:type="㇑" transform="matrix(1,0,0,1,696,-4)" xmlns:kvg="http://kanjivg.tagaini.net"></path><path class="stroke_order_diagram--existing_path" d="M25.07,44.33c5-0.72,9.29-1.3,13.91-2.02c1.16-0.18,1.85,0.84,1.69,1.67c-0.69,3.44-1.29,5.03-2.51,10.75" id="Ske36aqk126" kvg:type="㇕b" transform="matrix(1,0,0,1,696,-4)" xmlns:kvg="http://kanjivg.tagaini.net"></path><path class="stroke_order_diagram--existing_path" d="M27.14,57.02c3.73-0.44,7.06-1.19,12.18-1.87" id="Ske36aqk127" kvg:type="㇐b" transform="matrix(1,0,0,1,696,-4)" xmlns:kvg="http://kanjivg.tagaini.net"></path><path class="stroke_order_diagram--existing_path" d="M46.14,41.55c0.25,0.27,0.53,0.48,0.61,0.84c0.7,3.11,1.6,9.64,2.31,14.21" id="Ske36aqk128" kvg:type="㇑" transform="matrix(1,0,0,1,696,-4)" xmlns:kvg="http://kanjivg.tagaini.net"></path><path class="stroke_order_diagram--current_path" d="M47.68,43.37c4.56-0.66,8.49-1.18,12.7-1.85c1.05-0.16,1.69,0.77,1.54,1.52c-0.63,3.14-1.18,4.6-2.29,9.82" id="kvg:09fa0-s8" kvg:type="㇕b" transform="matrix(1,0,0,1,696,-4)" xmlns:kvg="http://kanjivg.tagaini.net"></path><path class="stroke_order_diagram--current_path" d="M47.68,43.37c4.56-0.66,8.49-1.18,12.7-1.85c1.05-0.16,1.69,0.77,1.54,1.52c-0.63,3.14-1.18,4.6-2.29,9.82" id="Ske36aqk12a" kvg:type="㇕b" transform="matrix(1,0,0,1,696,-4)" xmlns:kvg="http://kanjivg.tagaini.net"></path><circle class="stroke_order_diagram--path_start" cx="47.68" cy="43.37" r="4" transform="matrix(1,0,0,1,696,-4)"></circle><line class="stroke_order_diagram--guide_line" x1="850" x2="850" y1="1" y2="99"></line><line class="stroke_order_diagram--bounding_box" x1="899" x2="899" y1="1" y2="99"></line><path class="stroke_order_diagram--existing_path" d="M50.25,9.75c0.11,0.78,0.41,2.1-0.21,3.12C45.5,20.25,32.25,33,11.5,42.75" id="Ske36aqk12d" kvg:type="㇒" transform="matrix(1,0,0,1,796,-4)" xmlns:kvg="http://kanjivg.tagaini.net"></path><path class="stroke_order_diagram--existing_path" d="M51,12.38c5.83,4.4,30.9,19.21,37.33,22.43c2.18,1.09,4.98,1.56,7.17,1.87" id="Ske36aqk12e" kvg:type="㇏" transform="matrix(1,0,0,1,796,-4)" xmlns:kvg="http://kanjivg.tagaini.net"></path><path class="stroke_order_diagram--existing_path" d="M37.25,33.19c0.82,0.33,2.31,0.37,3.13,0.33c5.87-0.27,17.37-2.02,24.01-2.38c1.36-0.07,2.18,0.16,2.86,0.32" id="Ske36aqk12f" kvg:type="㇐" transform="matrix(1,0,0,1,796,-4)" xmlns:kvg="http://kanjivg.tagaini.net"></path><path class="stroke_order_diagram--existing_path" d="M23.39,42.34c0.27,0.29,0.58,0.53,0.67,0.92c0.77,3.4,1.75,10.55,2.52,15.55" id="Ske36aqk12g" kvg:type="㇑" transform="matrix(1,0,0,1,796,-4)" xmlns:kvg="http://kanjivg.tagaini.net"></path><path class="stroke_order_diagram--existing_path" d="M25.07,44.33c5-0.72,9.29-1.3,13.91-2.02c1.16-0.18,1.85,0.84,1.69,1.67c-0.69,3.44-1.29,5.03-2.51,10.75" id="Ske36aqk12h" kvg:type="㇕b" transform="matrix(1,0,0,1,796,-4)" xmlns:kvg="http://kanjivg.tagaini.net"></path><path class="stroke_order_diagram--existing_path" d="M27.14,57.02c3.73-0.44,7.06-1.19,12.18-1.87" id="Ske36aqk12i" kvg:type="㇐b" transform="matrix(1,0,0,1,796,-4)" xmlns:kvg="http://kanjivg.tagaini.net"></path><path class="stroke_order_diagram--existing_path" d="M46.14,41.55c0.25,0.27,0.53,0.48,0.61,0.84c0.7,3.11,1.6,9.64,2.31,14.21" id="Ske36aqk12j" kvg:type="㇑" transform="matrix(1,0,0,1,796,-4)" xmlns:kvg="http://kanjivg.tagaini.net"></path><path class="stroke_order_diagram--existing_path" d="M47.68,43.37c4.56-0.66,8.49-1.18,12.7-1.85c1.05-0.16,1.69,0.77,1.54,1.52c-0.63,3.14-1.18,4.6-2.29,9.82" id="Ske36aqk12k" kvg:type="㇕b" transform="matrix(1,0,0,1,796,-4)" xmlns:kvg="http://kanjivg.tagaini.net"></path><path class="stroke_order_diagram--current_path" d="M49.56,54.96c3.4-0.4,6.45-1.09,11.12-1.71" id="kvg:09fa0-s9" kvg:type="㇐b" transform="matrix(1,0,0,1,796,-4)" xmlns:kvg="http://kanjivg.tagaini.net"></path><path class="stroke_order_diagram--current_path" d="M49.56,54.96c3.4-0.4,6.45-1.09,11.12-1.71" id="Ske36aqk12m" kvg:type="㇐b" transform="matrix(1,0,0,1,796,-4)" xmlns:kvg="http://kanjivg.tagaini.net"></path><circle class="stroke_order_diagram--path_start" cx="49.56" cy="54.96" r="4" transform="matrix(1,0,0,1,796,-4)"></circle><line class="stroke_order_diagram--guide_line" x1="950" x2="950" y1="1" y2="99"></line><line class="stroke_order_diagram--bounding_box" x1="999" x2="999" y1="1" y2="99"></line><path class="stroke_order_diagram--existing_path" d="M50.25,9.75c0.11,0.78,0.41,2.1-0.21,3.12C45.5,20.25,32.25,33,11.5,42.75" id="Ske36aqk12p" kvg:type="㇒" transform="matrix(1,0,0,1,896,-4)" xmlns:kvg="http://kanjivg.tagaini.net"></path><path class="stroke_order_diagram--existing_path" d="M51,12.38c5.83,4.4,30.9,19.21,37.33,22.43c2.18,1.09,4.98,1.56,7.17,1.87" id="Ske36aqk12q" kvg:type="㇏" transform="matrix(1,0,0,1,896,-4)" xmlns:kvg="http://kanjivg.tagaini.net"></path><path class="stroke_order_diagram--existing_path" d="M37.25,33.19c0.82,0.33,2.31,0.37,3.13,0.33c5.87-0.27,17.37-2.02,24.01-2.38c1.36-0.07,2.18,0.16,2.86,0.32" id="Ske36aqk12r" kvg:type="㇐" transform="matrix(1,0,0,1,896,-4)" xmlns:kvg="http://kanjivg.tagaini.net"></path><path class="stroke_order_diagram--existing_path" d="M23.39,42.34c0.27,0.29,0.58,0.53,0.67,0.92c0.77,3.4,1.75,10.55,2.52,15.55" id="Ske36aqk12s" kvg:type="㇑" transform="matrix(1,0,0,1,896,-4)" xmlns:kvg="http://kanjivg.tagaini.net"></path><path class="stroke_order_diagram--existing_path" d="M25.07,44.33c5-0.72,9.29-1.3,13.91-2.02c1.16-0.18,1.85,0.84,1.69,1.67c-0.69,3.44-1.29,5.03-2.51,10.75" id="Ske36aqk12t" kvg:type="㇕b" transform="matrix(1,0,0,1,896,-4)" xmlns:kvg="http://kanjivg.tagaini.net"></path><path class="stroke_order_diagram--existing_path" d="M27.14,57.02c3.73-0.44,7.06-1.19,12.18-1.87" id="Ske36aqk12u" kvg:type="㇐b" transform="matrix(1,0,0,1,896,-4)" xmlns:kvg="http://kanjivg.tagaini.net"></path><path class="stroke_order_diagram--existing_path" d="M46.14,41.55c0.25,0.27,0.53,0.48,0.61,0.84c0.7,3.11,1.6,9.64,2.31,14.21" id="Ske36aqk12v" kvg:type="㇑" transform="matrix(1,0,0,1,896,-4)" xmlns:kvg="http://kanjivg.tagaini.net"></path><path class="stroke_order_diagram--existing_path" d="M47.68,43.37c4.56-0.66,8.49-1.18,12.7-1.85c1.05-0.16,1.69,0.77,1.54,1.52c-0.63,3.14-1.18,4.6-2.29,9.82" id="Ske36aqk12w" kvg:type="㇕b" transform="matrix(1,0,0,1,896,-4)" xmlns:kvg="http://kanjivg.tagaini.net"></path><path class="stroke_order_diagram--existing_path" d="M49.56,54.96c3.4-0.4,6.45-1.09,11.12-1.71" id="Ske36aqk12x" kvg:type="㇐b" transform="matrix(1,0,0,1,896,-4)" xmlns:kvg="http://kanjivg.tagaini.net"></path><path class="stroke_order_diagram--current_path" d="M67.64,40.05c0.26,0.27,0.56,0.48,0.65,0.84c0.75,3.11,1.7,9.64,2.45,14.2" id="kvg:09fa0-s10" kvg:type="㇑" transform="matrix(1,0,0,1,896,-4)" xmlns:kvg="http://kanjivg.tagaini.net"></path><path class="stroke_order_diagram--current_path" d="M67.64,40.05c0.26,0.27,0.56,0.48,0.65,0.84c0.75,3.11,1.7,9.64,2.45,14.2" id="Ske36aqk12z" kvg:type="㇑" transform="matrix(1,0,0,1,896,-4)" xmlns:kvg="http://kanjivg.tagaini.net"></path><circle class="stroke_order_diagram--path_start" cx="67.64" cy="40.05" r="4" transform="matrix(1,0,0,1,896,-4)"></circle><line class="stroke_order_diagram--guide_line" x1="1050" x2="1050" y1="1" y2="99"></line><line class="stroke_order_diagram--bounding_box" x1="1099" x2="1099" y1="1" y2="99"></line><path class="stroke_order_diagram--existing_path" d="M50.25,9.75c0.11,0.78,0.41,2.1-0.21,3.12C45.5,20.25,32.25,33,11.5,42.75" id="Ske36aqk132" kvg:type="㇒" transform="matrix(1,0,0,1,996,-4)" xmlns:kvg="http://kanjivg.tagaini.net"></path><path class="stroke_order_diagram--existing_path" d="M51,12.38c5.83,4.4,30.9,19.21,37.33,22.43c2.18,1.09,4.98,1.56,7.17,1.87" id="Ske36aqk133" kvg:type="㇏" transform="matrix(1,0,0,1,996,-4)" xmlns:kvg="http://kanjivg.tagaini.net"></path><path class="stroke_order_diagram--existing_path" d="M37.25,33.19c0.82,0.33,2.31,0.37,3.13,0.33c5.87-0.27,17.37-2.02,24.01-2.38c1.36-0.07,2.18,0.16,2.86,0.32" id="Ske36aqk134" kvg:type="㇐" transform="matrix(1,0,0,1,996,-4)" xmlns:kvg="http://kanjivg.tagaini.net"></path><path class="stroke_order_diagram--existing_path" d="M23.39,42.34c0.27,0.29,0.58,0.53,0.67,0.92c0.77,3.4,1.75,10.55,2.52,15.55" id="Ske36aqk135" kvg:type="㇑" transform="matrix(1,0,0,1,996,-4)" xmlns:kvg="http://kanjivg.tagaini.net"></path><path class="stroke_order_diagram--existing_path" d="M25.07,44.33c5-0.72,9.29-1.3,13.91-2.02c1.16-0.18,1.85,0.84,1.69,1.67c-0.69,3.44-1.29,5.03-2.51,10.75" id="Ske36aqk136" kvg:type="㇕b" transform="matrix(1,0,0,1,996,-4)" xmlns:kvg="http://kanjivg.tagaini.net"></path><path class="stroke_order_diagram--existing_path" d="M27.14,57.02c3.73-0.44,7.06-1.19,12.18-1.87" id="Ske36aqk137" kvg:type="㇐b" transform="matrix(1,0,0,1,996,-4)" xmlns:kvg="http://kanjivg.tagaini.net"></path><path class="stroke_order_diagram--existing_path" d="M46.14,41.55c0.25,0.27,0.53,0.48,0.61,0.84c0.7,3.11,1.6,9.64,2.31,14.21" id="Ske36aqk138" kvg:type="㇑" transform="matrix(1,0,0,1,996,-4)" xmlns:kvg="http://kanjivg.tagaini.net"></path><path class="stroke_order_diagram--existing_path" d="M47.68,43.37c4.56-0.66,8.49-1.18,12.7-1.85c1.05-0.16,1.69,0.77,1.54,1.52c-0.63,3.14-1.18,4.6-2.29,9.82" id="Ske36aqk139" kvg:type="㇕b" transform="matrix(1,0,0,1,996,-4)" xmlns:kvg="http://kanjivg.tagaini.net"></path><path class="stroke_order_diagram--existing_path" d="M49.56,54.96c3.4-0.4,6.45-1.09,11.12-1.71" id="Ske36aqk13a" kvg:type="㇐b" transform="matrix(1,0,0,1,996,-4)" xmlns:kvg="http://kanjivg.tagaini.net"></path><path class="stroke_order_diagram--existing_path" d="M67.64,40.05c0.26,0.27,0.56,0.48,0.65,0.84c0.75,3.11,1.7,9.64,2.45,14.2" id="Ske36aqk13b" kvg:type="㇑" transform="matrix(1,0,0,1,996,-4)" xmlns:kvg="http://kanjivg.tagaini.net"></path><path class="stroke_order_diagram--current_path" d="M69.27,41.87c4.85-0.66,9.03-1.18,13.5-1.85c1.12-0.16,1.8,0.77,1.64,1.52c-0.67,3.14-1.25,4.6-2.44,9.82" id="kvg:09fa0-s11" kvg:type="㇕b" transform="matrix(1,0,0,1,996,-4)" xmlns:kvg="http://kanjivg.tagaini.net"></path><path class="stroke_order_diagram--current_path" d="M69.27,41.87c4.85-0.66,9.03-1.18,13.5-1.85c1.12-0.16,1.8,0.77,1.64,1.52c-0.67,3.14-1.25,4.6-2.44,9.82" id="Ske36aqk13d" kvg:type="㇕b" transform="matrix(1,0,0,1,996,-4)" xmlns:kvg="http://kanjivg.tagaini.net"></path><circle class="stroke_order_diagram--path_start" cx="69.27" cy="41.87" r="4" transform="matrix(1,0,0,1,996,-4)"></circle><line class="stroke_order_diagram--guide_line" x1="1150" x2="1150" y1="1" y2="99"></line><line class="stroke_order_diagram--bounding_box" x1="1199" x2="1199" y1="1" y2="99"></line><path class="stroke_order_diagram--existing_path" d="M50.25,9.75c0.11,0.78,0.41,2.1-0.21,3.12C45.5,20.25,32.25,33,11.5,42.75" id="Ske36aqk13g" kvg:type="㇒" transform="matrix(1,0,0,1,1096,-4)" xmlns:kvg="http://kanjivg.tagaini.net"></path><path class="stroke_order_diagram--existing_path" d="M51,12.38c5.83,4.4,30.9,19.21,37.33,22.43c2.18,1.09,4.98,1.56,7.17,1.87" id="Ske36aqk13h" kvg:type="㇏" transform="matrix(1,0,0,1,1096,-4)" xmlns:kvg="http://kanjivg.tagaini.net"></path><path class="stroke_order_diagram--existing_path" d="M37.25,33.19c0.82,0.33,2.31,0.37,3.13,0.33c5.87-0.27,17.37-2.02,24.01-2.38c1.36-0.07,2.18,0.16,2.86,0.32" id="Ske36aqk13i" kvg:type="㇐" transform="matrix(1,0,0,1,1096,-4)" xmlns:kvg="http://kanjivg.tagaini.net"></path><path class="stroke_order_diagram--existing_path" d="M23.39,42.34c0.27,0.29,0.58,0.53,0.67,0.92c0.77,3.4,1.75,10.55,2.52,15.55" id="Ske36aqk13j" kvg:type="㇑" transform="matrix(1,0,0,1,1096,-4)" xmlns:kvg="http://kanjivg.tagaini.net"></path><path class="stroke_order_diagram--existing_path" d="M25.07,44.33c5-0.72,9.29-1.3,13.91-2.02c1.16-0.18,1.85,0.84,1.69,1.67c-0.69,3.44-1.29,5.03-2.51,10.75" id="Ske36aqk13k" kvg:type="㇕b" transform="matrix(1,0,0,1,1096,-4)" xmlns:kvg="http://kanjivg.tagaini.net"></path><path class="stroke_order_diagram--existing_path" d="M27.14,57.02c3.73-0.44,7.06-1.19,12.18-1.87" id="Ske36aqk13l" kvg:type="㇐b" transform="matrix(1,0,0,1,1096,-4)" xmlns:kvg="http://kanjivg.tagaini.net"></path><path class="stroke_order_diagram--existing_path" d="M46.14,41.55c0.25,0.27,0.53,0.48,0.61,0.84c0.7,3.11,1.6,9.64,2.31,14.21" id="Ske36aqk13m" kvg:type="㇑" transform="matrix(1,0,0,1,1096,-4)" xmlns:kvg="http://kanjivg.tagaini.net"></path><path class="stroke_order_diagram--existing_path" d="M47.68,43.37c4.56-0.66,8.49-1.18,12.7-1.85c1.05-0.16,1.69,0.77,1.54,1.52c-0.63,3.14-1.18,4.6-2.29,9.82" id="Ske36aqk13n" kvg:type="㇕b" transform="matrix(1,0,0,1,1096,-4)" xmlns:kvg="http://kanjivg.tagaini.net"></path><path class="stroke_order_diagram--existing_path" d="M49.56,54.96c3.4-0.4,6.45-1.09,11.12-1.71" id="Ske36aqk13o" kvg:type="㇐b" transform="matrix(1,0,0,1,1096,-4)" xmlns:kvg="http://kanjivg.tagaini.net"></path><path class="stroke_order_diagram--existing_path" d="M67.64,40.05c0.26,0.27,0.56,0.48,0.65,0.84c0.75,3.11,1.7,9.64,2.45,14.2" id="Ske36aqk13p" kvg:type="㇑" transform="matrix(1,0,0,1,1096,-4)" xmlns:kvg="http://kanjivg.tagaini.net"></path><path class="stroke_order_diagram--existing_path" d="M69.27,41.87c4.85-0.66,9.03-1.18,13.5-1.85c1.12-0.16,1.8,0.77,1.64,1.52c-0.67,3.14-1.25,4.6-2.44,9.82" id="Ske36aqk13q" kvg:type="㇕b" transform="matrix(1,0,0,1,1096,-4)" xmlns:kvg="http://kanjivg.tagaini.net"></path><path class="stroke_order_diagram--current_path" d="M71.28,53.46c3.62-0.4,6.85-1.09,11.82-1.71" id="kvg:09fa0-s12" kvg:type="㇐b" transform="matrix(1,0,0,1,1096,-4)" xmlns:kvg="http://kanjivg.tagaini.net"></path><path class="stroke_order_diagram--current_path" d="M71.28,53.46c3.62-0.4,6.85-1.09,11.82-1.71" id="Ske36aqk13s" kvg:type="㇐b" transform="matrix(1,0,0,1,1096,-4)" xmlns:kvg="http://kanjivg.tagaini.net"></path><circle class="stroke_order_diagram--path_start" cx="71.28" cy="53.46" r="4" transform="matrix(1,0,0,1,1096,-4)"></circle><line class="stroke_order_diagram--guide_line" x1="1250" x2="1250" y1="1" y2="99"></line><line class="stroke_order_diagram--bounding_box" x1="1299" x2="1299" y1="1" y2="99"></line><path class="stroke_order_diagram--existing_path" d="M50.25,9.75c0.11,0.78,0.41,2.1-0.21,3.12C45.5,20.25,32.25,33,11.5,42.75" id="Ske36aqk13v" kvg:type="㇒" transform="matrix(1,0,0,1,1196,-4)" xmlns:kvg="http://kanjivg.tagaini.net"></path><path class="stroke_order_diagram--existing_path" d="M51,12.38c5.83,4.4,30.9,19.21,37.33,22.43c2.18,1.09,4.98,1.56,7.17,1.87" id="Ske36aqk13w" kvg:type="㇏" transform="matrix(1,0,0,1,1196,-4)" xmlns:kvg="http://kanjivg.tagaini.net"></path><path class="stroke_order_diagram--existing_path" d="M37.25,33.19c0.82,0.33,2.31,0.37,3.13,0.33c5.87-0.27,17.37-2.02,24.01-2.38c1.36-0.07,2.18,0.16,2.86,0.32" id="Ske36aqk13x" kvg:type="㇐" transform="matrix(1,0,0,1,1196,-4)" xmlns:kvg="http://kanjivg.tagaini.net"></path><path class="stroke_order_diagram--existing_path" d="M23.39,42.34c0.27,0.29,0.58,0.53,0.67,0.92c0.77,3.4,1.75,10.55,2.52,15.55" id="Ske36aqk13y" kvg:type="㇑" transform="matrix(1,0,0,1,1196,-4)" xmlns:kvg="http://kanjivg.tagaini.net"></path><path class="stroke_order_diagram--existing_path" d="M25.07,44.33c5-0.72,9.29-1.3,13.91-2.02c1.16-0.18,1.85,0.84,1.69,1.67c-0.69,3.44-1.29,5.03-2.51,10.75" id="Ske36aqk13z" kvg:type="㇕b" transform="matrix(1,0,0,1,1196,-4)" xmlns:kvg="http://kanjivg.tagaini.net"></path><path class="stroke_order_diagram--existing_path" d="M27.14,57.02c3.73-0.44,7.06-1.19,12.18-1.87" id="Ske36aqk140" kvg:type="㇐b" transform="matrix(1,0,0,1,1196,-4)" xmlns:kvg="http://kanjivg.tagaini.net"></path><path class="stroke_order_diagram--existing_path" d="M46.14,41.55c0.25,0.27,0.53,0.48,0.61,0.84c0.7,3.11,1.6,9.64,2.31,14.21" id="Ske36aqk141" kvg:type="㇑" transform="matrix(1,0,0,1,1196,-4)" xmlns:kvg="http://kanjivg.tagaini.net"></path><path class="stroke_order_diagram--existing_path" d="M47.68,43.37c4.56-0.66,8.49-1.18,12.7-1.85c1.05-0.16,1.69,0.77,1.54,1.52c-0.63,3.14-1.18,4.6-2.29,9.82" id="Ske36aqk142" kvg:type="㇕b" transform="matrix(1,0,0,1,1196,-4)" xmlns:kvg="http://kanjivg.tagaini.net"></path><path class="stroke_order_diagram--existing_path" d="M49.56,54.96c3.4-0.4,6.45-1.09,11.12-1.71" id="Ske36aqk143" kvg:type="㇐b" transform="matrix(1,0,0,1,1196,-4)" xmlns:kvg="http://kanjivg.tagaini.net"></path><path class="stroke_order_diagram--existing_path" d="M67.64,40.05c0.26,0.27,0.56,0.48,0.65,0.84c0.75,3.11,1.7,9.64,2.45,14.2" id="Ske36aqk144" kvg:type="㇑" transform="matrix(1,0,0,1,1196,-4)" xmlns:kvg="http://kanjivg.tagaini.net"></path><path class="stroke_order_diagram--existing_path" d="M69.27,41.87c4.85-0.66,9.03-1.18,13.5-1.85c1.12-0.16,1.8,0.77,1.64,1.52c-0.67,3.14-1.25,4.6-2.44,9.82" id="Ske36aqk145" kvg:type="㇕b" transform="matrix(1,0,0,1,1196,-4)" xmlns:kvg="http://kanjivg.tagaini.net"></path><path class="stroke_order_diagram--existing_path" d="M71.28,53.46c3.62-0.4,6.85-1.09,11.82-1.71" id="Ske36aqk146" kvg:type="㇐b" transform="matrix(1,0,0,1,1196,-4)" xmlns:kvg="http://kanjivg.tagaini.net"></path><path class="stroke_order_diagram--current_path" d="M23.82,63.97c0.53,0.67,1.17,1.73,1.26,2.94c0.49,6.55-0.27,26.44,0.4,33.09" id="kvg:09fa0-s13" kvg:type="㇑" transform="matrix(1,0,0,1,1196,-4)" xmlns:kvg="http://kanjivg.tagaini.net"></path><path class="stroke_order_diagram--current_path" d="M23.82,63.97c0.53,0.67,1.17,1.73,1.26,2.94c0.49,6.55-0.27,26.44,0.4,33.09" id="Ske36aqk148" kvg:type="㇑" transform="matrix(1,0,0,1,1196,-4)" xmlns:kvg="http://kanjivg.tagaini.net"></path><circle class="stroke_order_diagram--path_start" cx="23.82" cy="63.97" r="4" transform="matrix(1,0,0,1,1196,-4)"></circle><line class="stroke_order_diagram--guide_line" x1="1350" x2="1350" y1="1" y2="99"></line><line class="stroke_order_diagram--bounding_box" x1="1399" x2="1399" y1="1" y2="99"></line><path class="stroke_order_diagram--existing_path" d="M50.25,9.75c0.11,0.78,0.41,2.1-0.21,3.12C45.5,20.25,32.25,33,11.5,42.75" id="Ske36aqk14b" kvg:type="㇒" transform="matrix(1,0,0,1,1296,-4)" xmlns:kvg="http://kanjivg.tagaini.net"></path><path class="stroke_order_diagram--existing_path" d="M51,12.38c5.83,4.4,30.9,19.21,37.33,22.43c2.18,1.09,4.98,1.56,7.17,1.87" id="Ske36aqk14c" kvg:type="㇏" transform="matrix(1,0,0,1,1296,-4)" xmlns:kvg="http://kanjivg.tagaini.net"></path><path class="stroke_order_diagram--existing_path" d="M37.25,33.19c0.82,0.33,2.31,0.37,3.13,0.33c5.87-0.27,17.37-2.02,24.01-2.38c1.36-0.07,2.18,0.16,2.86,0.32" id="Ske36aqk14d" kvg:type="㇐" transform="matrix(1,0,0,1,1296,-4)" xmlns:kvg="http://kanjivg.tagaini.net"></path><path class="stroke_order_diagram--existing_path" d="M23.39,42.34c0.27,0.29,0.58,0.53,0.67,0.92c0.77,3.4,1.75,10.55,2.52,15.55" id="Ske36aqk14e" kvg:type="㇑" transform="matrix(1,0,0,1,1296,-4)" xmlns:kvg="http://kanjivg.tagaini.net"></path><path class="stroke_order_diagram--existing_path" d="M25.07,44.33c5-0.72,9.29-1.3,13.91-2.02c1.16-0.18,1.85,0.84,1.69,1.67c-0.69,3.44-1.29,5.03-2.51,10.75" id="Ske36aqk14f" kvg:type="㇕b" transform="matrix(1,0,0,1,1296,-4)" xmlns:kvg="http://kanjivg.tagaini.net"></path><path class="stroke_order_diagram--existing_path" d="M27.14,57.02c3.73-0.44,7.06-1.19,12.18-1.87" id="Ske36aqk14g" kvg:type="㇐b" transform="matrix(1,0,0,1,1296,-4)" xmlns:kvg="http://kanjivg.tagaini.net"></path><path class="stroke_order_diagram--existing_path" d="M46.14,41.55c0.25,0.27,0.53,0.48,0.61,0.84c0.7,3.11,1.6,9.64,2.31,14.21" id="Ske36aqk14h" kvg:type="㇑" transform="matrix(1,0,0,1,1296,-4)" xmlns:kvg="http://kanjivg.tagaini.net"></path><path class="stroke_order_diagram--existing_path" d="M47.68,43.37c4.56-0.66,8.49-1.18,12.7-1.85c1.05-0.16,1.69,0.77,1.54,1.52c-0.63,3.14-1.18,4.6-2.29,9.82" id="Ske36aqk14i" kvg:type="㇕b" transform="matrix(1,0,0,1,1296,-4)" xmlns:kvg="http://kanjivg.tagaini.net"></path><path class="stroke_order_diagram--existing_path" d="M49.56,54.96c3.4-0.4,6.45-1.09,11.12-1.71" id="Ske36aqk14j" kvg:type="㇐b" transform="matrix(1,0,0,1,1296,-4)" xmlns:kvg="http://kanjivg.tagaini.net"></path><path class="stroke_order_diagram--existing_path" d="M67.64,40.05c0.26,0.27,0.56,0.48,0.65,0.84c0.75,3.11,1.7,9.64,2.45,14.2" id="Ske36aqk14k" kvg:type="㇑" transform="matrix(1,0,0,1,1296,-4)" xmlns:kvg="http://kanjivg.tagaini.net"></path><path class="stroke_order_diagram--existing_path" d="M69.27,41.87c4.85-0.66,9.03-1.18,13.5-1.85c1.12-0.16,1.8,0.77,1.64,1.52c-0.67,3.14-1.25,4.6-2.44,9.82" id="Ske36aqk14l" kvg:type="㇕b" transform="matrix(1,0,0,1,1296,-4)" xmlns:kvg="http://kanjivg.tagaini.net"></path><path class="stroke_order_diagram--existing_path" d="M71.28,53.46c3.62-0.4,6.85-1.09,11.82-1.71" id="Ske36aqk14m" kvg:type="㇐b" transform="matrix(1,0,0,1,1296,-4)" xmlns:kvg="http://kanjivg.tagaini.net"></path><path class="stroke_order_diagram--existing_path" d="M23.82,63.97c0.53,0.67,1.17,1.73,1.26,2.94c0.49,6.55-0.27,26.44,0.4,33.09" id="Ske36aqk14n" kvg:type="㇑" transform="matrix(1,0,0,1,1296,-4)" xmlns:kvg="http://kanjivg.tagaini.net"></path><path class="stroke_order_diagram--current_path" d="M24.64,65c6.67-0.54,52.12-4.47,53.43-4.65c2.81-0.4,3.83,2.81,3.86,4.14c0.15,7.14-0.46,13.43-0.46,26.17c0,8.41-2.17,4.66-5.74,1.72" id="kvg:09fa0-s14" kvg:type="㇆a" transform="matrix(1,0,0,1,1296,-4)" xmlns:kvg="http://kanjivg.tagaini.net"></path><path class="stroke_order_diagram--current_path" d="M24.64,65c6.67-0.54,52.12-4.47,53.43-4.65c2.81-0.4,3.83,2.81,3.86,4.14c0.15,7.14-0.46,13.43-0.46,26.17c0,8.41-2.17,4.66-5.74,1.72" id="Ske36aqk14p" kvg:type="㇆a" transform="matrix(1,0,0,1,1296,-4)" xmlns:kvg="http://kanjivg.tagaini.net"></path><circle class="stroke_order_diagram--path_start" cx="24.64" cy="65" r="4" transform="matrix(1,0,0,1,1296,-4)"></circle><line class="stroke_order_diagram--guide_line" x1="1450" x2="1450" y1="1" y2="99"></line><line class="stroke_order_diagram--bounding_box" x1="1499" x2="1499" y1="1" y2="99"></line><path class="stroke_order_diagram--existing_path" d="M50.25,9.75c0.11,0.78,0.41,2.1-0.21,3.12C45.5,20.25,32.25,33,11.5,42.75" id="Ske36aqk14s" kvg:type="㇒" transform="matrix(1,0,0,1,1396,-4)" xmlns:kvg="http://kanjivg.tagaini.net"></path><path class="stroke_order_diagram--existing_path" d="M51,12.38c5.83,4.4,30.9,19.21,37.33,22.43c2.18,1.09,4.98,1.56,7.17,1.87" id="Ske36aqk14t" kvg:type="㇏" transform="matrix(1,0,0,1,1396,-4)" xmlns:kvg="http://kanjivg.tagaini.net"></path><path class="stroke_order_diagram--existing_path" d="M37.25,33.19c0.82,0.33,2.31,0.37,3.13,0.33c5.87-0.27,17.37-2.02,24.01-2.38c1.36-0.07,2.18,0.16,2.86,0.32" id="Ske36aqk14u" kvg:type="㇐" transform="matrix(1,0,0,1,1396,-4)" xmlns:kvg="http://kanjivg.tagaini.net"></path><path class="stroke_order_diagram--existing_path" d="M23.39,42.34c0.27,0.29,0.58,0.53,0.67,0.92c0.77,3.4,1.75,10.55,2.52,15.55" id="Ske36aqk14v" kvg:type="㇑" transform="matrix(1,0,0,1,1396,-4)" xmlns:kvg="http://kanjivg.tagaini.net"></path><path class="stroke_order_diagram--existing_path" d="M25.07,44.33c5-0.72,9.29-1.3,13.91-2.02c1.16-0.18,1.85,0.84,1.69,1.67c-0.69,3.44-1.29,5.03-2.51,10.75" id="Ske36aqk14w" kvg:type="㇕b" transform="matrix(1,0,0,1,1396,-4)" xmlns:kvg="http://kanjivg.tagaini.net"></path><path class="stroke_order_diagram--existing_path" d="M27.14,57.02c3.73-0.44,7.06-1.19,12.18-1.87" id="Ske36aqk14x" kvg:type="㇐b" transform="matrix(1,0,0,1,1396,-4)" xmlns:kvg="http://kanjivg.tagaini.net"></path><path class="stroke_order_diagram--existing_path" d="M46.14,41.55c0.25,0.27,0.53,0.48,0.61,0.84c0.7,3.11,1.6,9.64,2.31,14.21" id="Ske36aqk14y" kvg:type="㇑" transform="matrix(1,0,0,1,1396,-4)" xmlns:kvg="http://kanjivg.tagaini.net"></path><path class="stroke_order_diagram--existing_path" d="M47.68,43.37c4.56-0.66,8.49-1.18,12.7-1.85c1.05-0.16,1.69,0.77,1.54,1.52c-0.63,3.14-1.18,4.6-2.29,9.82" id="Ske36aqk14z" kvg:type="㇕b" transform="matrix(1,0,0,1,1396,-4)" xmlns:kvg="http://kanjivg.tagaini.net"></path><path class="stroke_order_diagram--existing_path" d="M49.56,54.96c3.4-0.4,6.45-1.09,11.12-1.71" id="Ske36aqk150" kvg:type="㇐b" transform="matrix(1,0,0,1,1396,-4)" xmlns:kvg="http://kanjivg.tagaini.net"></path><path class="stroke_order_diagram--existing_path" d="M67.64,40.05c0.26,0.27,0.56,0.48,0.65,0.84c0.75,3.11,1.7,9.64,2.45,14.2" id="Ske36aqk151" kvg:type="㇑" transform="matrix(1,0,0,1,1396,-4)" xmlns:kvg="http://kanjivg.tagaini.net"></path><path class="stroke_order_diagram--existing_path" d="M69.27,41.87c4.85-0.66,9.03-1.18,13.5-1.85c1.12-0.16,1.8,0.77,1.64,1.52c-0.67,3.14-1.25,4.6-2.44,9.82" id="Ske36aqk152" kvg:type="㇕b" transform="matrix(1,0,0,1,1396,-4)" xmlns:kvg="http://kanjivg.tagaini.net"></path><path class="stroke_order_diagram--existing_path" d="M71.28,53.46c3.62-0.4,6.85-1.09,11.82-1.71" id="Ske36aqk153" kvg:type="㇐b" transform="matrix(1,0,0,1,1396,-4)" xmlns:kvg="http://kanjivg.tagaini.net"></path><path class="stroke_order_diagram--existing_path" d="M23.82,63.97c0.53,0.67,1.17,1.73,1.26,2.94c0.49,6.55-0.27,26.44,0.4,33.09" id="Ske36aqk154" kvg:type="㇑" transform="matrix(1,0,0,1,1396,-4)" xmlns:kvg="http://kanjivg.tagaini.net"></path><path class="stroke_order_diagram--existing_path" d="M24.64,65c6.67-0.54,52.12-4.47,53.43-4.65c2.81-0.4,3.83,2.81,3.86,4.14c0.15,7.14-0.46,13.43-0.46,26.17c0,8.41-2.17,4.66-5.74,1.72" id="Ske36aqk155" kvg:type="㇆a" transform="matrix(1,0,0,1,1396,-4)" xmlns:kvg="http://kanjivg.tagaini.net"></path><path class="stroke_order_diagram--current_path" d="M25.16,78.61c13.59-0.86,42.34-4.11,56.63-4.63" id="kvg:09fa0-s15" kvg:type="㇑" transform="matrix(1,0,0,1,1396,-4)" xmlns:kvg="http://kanjivg.tagaini.net"></path><path class="stroke_order_diagram--current_path" d="M25.16,78.61c13.59-0.86,42.34-4.11,56.63-4.63" id="Ske36aqk157" kvg:type="㇑" transform="matrix(1,0,0,1,1396,-4)" xmlns:kvg="http://kanjivg.tagaini.net"></path><circle class="stroke_order_diagram--path_start" cx="25.16" cy="78.61" r="4" transform="matrix(1,0,0,1,1396,-4)"></circle><line class="stroke_order_diagram--guide_line" x1="1550" x2="1550" y1="1" y2="99"></line><line class="stroke_order_diagram--bounding_box" x1="1599" x2="1599" y1="1" y2="99"></line><path class="stroke_order_diagram--existing_path" d="M50.25,9.75c0.11,0.78,0.41,2.1-0.21,3.12C45.5,20.25,32.25,33,11.5,42.75" id="Ske36aqk15a" kvg:type="㇒" transform="matrix(1,0,0,1,1496,-4)" xmlns:kvg="http://kanjivg.tagaini.net"></path><path class="stroke_order_diagram--existing_path" d="M51,12.38c5.83,4.4,30.9,19.21,37.33,22.43c2.18,1.09,4.98,1.56,7.17,1.87" id="Ske36aqk15b" kvg:type="㇏" transform="matrix(1,0,0,1,1496,-4)" xmlns:kvg="http://kanjivg.tagaini.net"></path><path class="stroke_order_diagram--existing_path" d="M37.25,33.19c0.82,0.33,2.31,0.37,3.13,0.33c5.87-0.27,17.37-2.02,24.01-2.38c1.36-0.07,2.18,0.16,2.86,0.32" id="Ske36aqk15c" kvg:type="㇐" transform="matrix(1,0,0,1,1496,-4)" xmlns:kvg="http://kanjivg.tagaini.net"></path><path class="stroke_order_diagram--existing_path" d="M23.39,42.34c0.27,0.29,0.58,0.53,0.67,0.92c0.77,3.4,1.75,10.55,2.52,15.55" id="Ske36aqk15d" kvg:type="㇑" transform="matrix(1,0,0,1,1496,-4)" xmlns:kvg="http://kanjivg.tagaini.net"></path><path class="stroke_order_diagram--existing_path" d="M25.07,44.33c5-0.72,9.29-1.3,13.91-2.02c1.16-0.18,1.85,0.84,1.69,1.67c-0.69,3.44-1.29,5.03-2.51,10.75" id="Ske36aqk15e" kvg:type="㇕b" transform="matrix(1,0,0,1,1496,-4)" xmlns:kvg="http://kanjivg.tagaini.net"></path><path class="stroke_order_diagram--existing_path" d="M27.14,57.02c3.73-0.44,7.06-1.19,12.18-1.87" id="Ske36aqk15f" kvg:type="㇐b" transform="matrix(1,0,0,1,1496,-4)" xmlns:kvg="http://kanjivg.tagaini.net"></path><path class="stroke_order_diagram--existing_path" d="M46.14,41.55c0.25,0.27,0.53,0.48,0.61,0.84c0.7,3.11,1.6,9.64,2.31,14.21" id="Ske36aqk15g" kvg:type="㇑" transform="matrix(1,0,0,1,1496,-4)" xmlns:kvg="http://kanjivg.tagaini.net"></path><path class="stroke_order_diagram--existing_path" d="M47.68,43.37c4.56-0.66,8.49-1.18,12.7-1.85c1.05-0.16,1.69,0.77,1.54,1.52c-0.63,3.14-1.18,4.6-2.29,9.82" id="Ske36aqk15h" kvg:type="㇕b" transform="matrix(1,0,0,1,1496,-4)" xmlns:kvg="http://kanjivg.tagaini.net"></path><path class="stroke_order_diagram--existing_path" d="M49.56,54.96c3.4-0.4,6.45-1.09,11.12-1.71" id="Ske36aqk15i" kvg:type="㇐b" transform="matrix(1,0,0,1,1496,-4)" xmlns:kvg="http://kanjivg.tagaini.net"></path><path class="stroke_order_diagram--existing_path" d="M67.64,40.05c0.26,0.27,0.56,0.48,0.65,0.84c0.75,3.11,1.7,9.64,2.45,14.2" id="Ske36aqk15j" kvg:type="㇑" transform="matrix(1,0,0,1,1496,-4)" xmlns:kvg="http://kanjivg.tagaini.net"></path><path class="stroke_order_diagram--existing_path" d="M69.27,41.87c4.85-0.66,9.03-1.18,13.5-1.85c1.12-0.16,1.8,0.77,1.64,1.52c-0.67,3.14-1.25,4.6-2.44,9.82" id="Ske36aqk15k" kvg:type="㇕b" transform="matrix(1,0,0,1,1496,-4)" xmlns:kvg="http://kanjivg.tagaini.net"></path><path class="stroke_order_diagram--existing_path" d="M71.28,53.46c3.62-0.4,6.85-1.09,11.82-1.71" id="Ske36aqk15l" kvg:type="㇐b" transform="matrix(1,0,0,1,1496,-4)" xmlns:kvg="http://kanjivg.tagaini.net"></path><path class="stroke_order_diagram--existing_path" d="M23.82,63.97c0.53,0.67,1.17,1.73,1.26,2.94c0.49,6.55-0.27,26.44,0.4,33.09" id="Ske36aqk15m" kvg:type="㇑" transform="matrix(1,0,0,1,1496,-4)" xmlns:kvg="http://kanjivg.tagaini.net"></path><path class="stroke_order_diagram--existing_path" d="M24.64,65c6.67-0.54,52.12-4.47,53.43-4.65c2.81-0.4,3.83,2.81,3.86,4.14c0.15,7.14-0.46,13.43-0.46,26.17c0,8.41-2.17,4.66-5.74,1.72" id="Ske36aqk15n" kvg:type="㇆a" transform="matrix(1,0,0,1,1496,-4)" xmlns:kvg="http://kanjivg.tagaini.net"></path><path class="stroke_order_diagram--existing_path" d="M25.16,78.61c13.59-0.86,42.34-4.11,56.63-4.63" id="Ske36aqk15o" kvg:type="㇑" transform="matrix(1,0,0,1,1496,-4)" xmlns:kvg="http://kanjivg.tagaini.net"></path><path class="stroke_order_diagram--current_path" d="M42.78,63.59c0.78,0.84,1.33-0.68,1.39,2.1c0.32,13.35-0.02,26.28-0.02,30.83" id="kvg:09fa0-s16" kvg:type="㇑" transform="matrix(1,0,0,1,1496,-4)" xmlns:kvg="http://kanjivg.tagaini.net"></path><path class="stroke_order_diagram--current_path" d="M42.78,63.59c0.78,0.84,1.33-0.68,1.39,2.1c0.32,13.35-0.02,26.28-0.02,30.83" id="Ske36aqk15q" kvg:type="㇑" transform="matrix(1,0,0,1,1496,-4)" xmlns:kvg="http://kanjivg.tagaini.net"></path><circle class="stroke_order_diagram--path_start" cx="42.78" cy="63.59" r="4" transform="matrix(1,0,0,1,1496,-4)"></circle><line class="stroke_order_diagram--guide_line" x1="1650" x2="1650" y1="1" y2="99"></line><line class="stroke_order_diagram--bounding_box" x1="1699" x2="1699" y1="1" y2="99"></line><path class="stroke_order_diagram--existing_path" d="M50.25,9.75c0.11,0.78,0.41,2.1-0.21,3.12C45.5,20.25,32.25,33,11.5,42.75" id="Ske36aqk15t" kvg:type="㇒" transform="matrix(1,0,0,1,1596,-4)" xmlns:kvg="http://kanjivg.tagaini.net"></path><path class="stroke_order_diagram--existing_path" d="M51,12.38c5.83,4.4,30.9,19.21,37.33,22.43c2.18,1.09,4.98,1.56,7.17,1.87" id="Ske36aqk15u" kvg:type="㇏" transform="matrix(1,0,0,1,1596,-4)" xmlns:kvg="http://kanjivg.tagaini.net"></path><path class="stroke_order_diagram--existing_path" d="M37.25,33.19c0.82,0.33,2.31,0.37,3.13,0.33c5.87-0.27,17.37-2.02,24.01-2.38c1.36-0.07,2.18,0.16,2.86,0.32" id="Ske36aqk15v" kvg:type="㇐" transform="matrix(1,0,0,1,1596,-4)" xmlns:kvg="http://kanjivg.tagaini.net"></path><path class="stroke_order_diagram--existing_path" d="M23.39,42.34c0.27,0.29,0.58,0.53,0.67,0.92c0.77,3.4,1.75,10.55,2.52,15.55" id="Ske36aqk15w" kvg:type="㇑" transform="matrix(1,0,0,1,1596,-4)" xmlns:kvg="http://kanjivg.tagaini.net"></path><path class="stroke_order_diagram--existing_path" d="M25.07,44.33c5-0.72,9.29-1.3,13.91-2.02c1.16-0.18,1.85,0.84,1.69,1.67c-0.69,3.44-1.29,5.03-2.51,10.75" id="Ske36aqk15x" kvg:type="㇕b" transform="matrix(1,0,0,1,1596,-4)" xmlns:kvg="http://kanjivg.tagaini.net"></path><path class="stroke_order_diagram--existing_path" d="M27.14,57.02c3.73-0.44,7.06-1.19,12.18-1.87" id="Ske36aqk15y" kvg:type="㇐b" transform="matrix(1,0,0,1,1596,-4)" xmlns:kvg="http://kanjivg.tagaini.net"></path><path class="stroke_order_diagram--existing_path" d="M46.14,41.55c0.25,0.27,0.53,0.48,0.61,0.84c0.7,3.11,1.6,9.64,2.31,14.21" id="Ske36aqk15z" kvg:type="㇑" transform="matrix(1,0,0,1,1596,-4)" xmlns:kvg="http://kanjivg.tagaini.net"></path><path class="stroke_order_diagram--existing_path" d="M47.68,43.37c4.56-0.66,8.49-1.18,12.7-1.85c1.05-0.16,1.69,0.77,1.54,1.52c-0.63,3.14-1.18,4.6-2.29,9.82" id="Ske36aqk160" kvg:type="㇕b" transform="matrix(1,0,0,1,1596,-4)" xmlns:kvg="http://kanjivg.tagaini.net"></path><path class="stroke_order_diagram--existing_path" d="M49.56,54.96c3.4-0.4,6.45-1.09,11.12-1.71" id="Ske36aqk161" kvg:type="㇐b" transform="matrix(1,0,0,1,1596,-4)" xmlns:kvg="http://kanjivg.tagaini.net"></path><path class="stroke_order_diagram--existing_path" d="M67.64,40.05c0.26,0.27,0.56,0.48,0.65,0.84c0.75,3.11,1.7,9.64,2.45,14.2" id="Ske36aqk162" kvg:type="㇑" transform="matrix(1,0,0,1,1596,-4)" xmlns:kvg="http://kanjivg.tagaini.net"></path><path class="stroke_order_diagram--existing_path" d="M69.27,41.87c4.85-0.66,9.03-1.18,13.5-1.85c1.12-0.16,1.8,0.77,1.64,1.52c-0.67,3.14-1.25,4.6-2.44,9.82" id="Ske36aqk163" kvg:type="㇕b" transform="matrix(1,0,0,1,1596,-4)" xmlns:kvg="http://kanjivg.tagaini.net"></path><path class="stroke_order_diagram--existing_path" d="M71.28,53.46c3.62-0.4,6.85-1.09,11.82-1.71" id="Ske36aqk164" kvg:type="㇐b" transform="matrix(1,0,0,1,1596,-4)" xmlns:kvg="http://kanjivg.tagaini.net"></path><path class="stroke_order_diagram--existing_path" d="M23.82,63.97c0.53,0.67,1.17,1.73,1.26,2.94c0.49,6.55-0.27,26.44,0.4,33.09" id="Ske36aqk165" kvg:type="㇑" transform="matrix(1,0,0,1,1596,-4)" xmlns:kvg="http://kanjivg.tagaini.net"></path><path class="stroke_order_diagram--existing_path" d="M24.64,65c6.67-0.54,52.12-4.47,53.43-4.65c2.81-0.4,3.83,2.81,3.86,4.14c0.15,7.14-0.46,13.43-0.46,26.17c0,8.41-2.17,4.66-5.74,1.72" id="Ske36aqk166" kvg:type="㇆a" transform="matrix(1,0,0,1,1596,-4)" xmlns:kvg="http://kanjivg.tagaini.net"></path><path class="stroke_order_diagram--existing_path" d="M25.16,78.61c13.59-0.86,42.34-4.11,56.63-4.63" id="Ske36aqk167" kvg:type="㇑" transform="matrix(1,0,0,1,1596,-4)" xmlns:kvg="http://kanjivg.tagaini.net"></path><path class="stroke_order_diagram--existing_path" d="M42.78,63.59c0.78,0.84,1.33-0.68,1.39,2.1c0.32,13.35-0.02,26.28-0.02,30.83" id="Ske36aqk168" kvg:type="㇑" transform="matrix(1,0,0,1,1596,-4)" xmlns:kvg="http://kanjivg.tagaini.net"></path><path class="stroke_order_diagram--current_path" d="M60.59,61.92c0.78,0.84,1.33,0.82,1.39,3.6c0.32,13.35-0.02,26.4-0.02,30.95" id="kvg:09fa0-s17" kvg:type="㇐" transform="matrix(1,0,0,1,1596,-4)" xmlns:kvg="http://kanjivg.tagaini.net"></path><path class="stroke_order_diagram--current_path" d="M60.59,61.92c0.78,0.84,1.33,0.82,1.39,3.6c0.32,13.35-0.02,26.4-0.02,30.95" id="Ske36aqk16a" kvg:type="㇐" transform="matrix(1,0,0,1,1596,-4)" xmlns:kvg="http://kanjivg.tagaini.net"></path><circle class="stroke_order_diagram--path_start" cx="60.59" cy="61.92" r="4" transform="matrix(1,0,0,1,1596,-4)"></circle></svg>